<svg class="phonechat" width="660px" height="714px" viewBox="0 0 660 714" version="1.1" xmlns="http://www.w3.org/2000/svg" xmlns:xlink="http://www.w3.org/1999/xlink" xml:space="preserve" xmlns:serif="http://www.serif.com/" style="fill-rule:evenodd;clip-rule:evenodd;stroke-miterlimit:10;">
    <g id="phonechat" transform="matrix(1,0,0,1,-129,0)">
        <g transform="matrix(1,0,0,1,54,0)">
            <path d="M170,499.1L13.7,853.6L233.1,966L304.5,714.5L465.1,621.3L391.5,425.4L170,499.1Z" style="fill:rgb(255,184,130);fill-rule:nonzero;"/>
            <path d="M311,220.8L391.5,425.4C391.5,425.4 209.3,598 208.1,591.7C206.9,585.4 169.9,499.1 169.9,499.1L311,220.8Z" style="fill:rgb(255,184,130);fill-rule:nonzero;"/>
            <path d="M309,463.7C309,463.7 304.3,525.6 249.8,576C249.8,576 284.7,563.1 318.4,506.7L309,463.7Z" style="fill:rgb(239,143,111);fill-rule:nonzero;"/>
        </g>
        <g transform="matrix(1,0,0,1,54,0)">
            <path d="M553.1,172L659,129.5C673.4,123.7 689.9,130.7 695.7,145.1C700.5,156.9 696.7,170.5 686.5,178.1L592.3,238L553.1,172Z" style="fill:rgb(255,184,130);fill-rule:nonzero;"/>
            <path d="M542.5,281.8L652.2,257.7C667.4,254.2 682.5,263.8 686,278.9C688.8,291.3 683,304.1 671.7,310.1L561.8,356.4L542.5,281.8Z" style="fill:rgb(255,184,130);fill-rule:nonzero;"/>
        </g>
        <g transform="matrix(1,0,0,1,54,0)">
            <path d="M586.7,382C575.3,388.2 574.1,415.5 577.7,428C582.1,443.1 604.2,454.1 619.2,449.1L659.9,436.8C677.5,431.5 687.9,413.2 683.5,395.3L683,393.4C678.4,374.9 659.8,363.5 641.3,368L625.7,371.7L586.7,382Z" style="fill:rgb(255,184,130);fill-rule:nonzero;"/>
            <path d="M587.7,476C569.7,481 575.8,508.6 577.7,520C580,533.8 598.4,541.1 612.1,538.2L649.2,531.4C665.3,528.4 676.3,513.4 674.2,497.2L674,495.4C671.8,478.6 656.5,466.7 639.7,468.8L626,470.5L587.7,476Z" style="fill:rgb(255,184,130);fill-rule:nonzero;"/>
        </g>
        <g transform="matrix(1,0,0,1,54,0)">
            <g>
                <g>
                    <g>
                        <g>
                            <g>
                                <path d="M313.2,233.4L316.6,233.4L316.6,140L313.2,140C311.6,140 310.4,141.3 310.4,142.8L310.4,230.5C310.4,232.1 311.7,233.4 313.2,233.4Z" style="fill:rgb(7,1,0);fill-rule:nonzero;"/>
                                <path d="M314,231L316.7,231L316.7,141.7L314,141.7C312.6,141.7 311.5,142.8 311.5,144.2L311.5,228.5C311.4,229.8 312.6,231 314,231Z" style="fill:url(#_Linear1);fill-rule:nonzero;"/>
                            </g>
                            <g>
                                <path d="M313.2,300.5L316.6,300.5L316.6,258.2L313.2,258.2C311.6,258.2 310.4,259.5 310.4,261L310.4,297.6C310.4,299.2 311.7,300.5 313.2,300.5Z" style="fill:rgb(7,1,0);fill-rule:nonzero;"/>
                                <path d="M314,298.1L316.7,298.1L316.7,259.8L314,259.8C312.6,259.8 311.5,260.9 311.5,262.3L311.5,295.5C311.4,296.9 312.6,298.1 314,298.1Z" style="fill:url(#_Linear2);fill-rule:nonzero;"/>
                            </g>
                            <g>
                                <path d="M614.4,300.5L611,300.5L611,258.2L614.4,258.2C616,258.2 617.2,259.5 617.2,261L617.2,297.6C617.2,299.2 615.9,300.5 614.4,300.5Z" style="fill:rgb(7,1,0);fill-rule:nonzero;"/>
                                <path d="M613.6,298.1L611,298.1L611,259.8L613.7,259.8C615.1,259.8 616.2,260.9 616.2,262.3L616.2,295.5C616.2,296.9 615,298.1 613.6,298.1Z" style="fill:url(#_Linear3);fill-rule:nonzero;"/>
                            </g>
                            <g>
                                <path d="M352.5,654L575,654C596.5,654 614,636.5 614,615L614,59.6C614,38.1 596.5,20.6 575,20.6L352.5,20.6C331,20.6 313.5,38.1 313.5,59.6L313.5,615C313.6,636.6 331,654 352.5,654Z" style="fill:rgb(7,1,0);fill-rule:nonzero;"/>
                                <g>
                                    <path d="M598.5,37.6C598.5,37.6 589,22.7 567,22.7L353.5,22.7C342.9,22.7 331.1,27 321.6,37.6L598.5,37.6Z" style="fill:url(#_Linear4);fill-rule:nonzero;"/>
                                    <path d="M532.9,25.2L528.7,29.4L394.5,29.4L390.7,25.6L532.9,25.2Z" style="fill:rgb(7,1,0);fill-rule:nonzero;"/>
                                    <g>
                                        <rect x="524.8" y="25.2" width="2.8" height="4.2" style="fill:url(#_Linear5);fill-rule:nonzero;"/>
                                        <rect x="521.2" y="25.2" width="2.8" height="4.2" style="fill:url(#_Linear6);fill-rule:nonzero;"/>
                                        <rect x="517.6" y="25.2" width="2.8" height="4.2" style="fill:url(#_Linear7);fill-rule:nonzero;"/>
                                        <rect x="514" y="25.2" width="2.8" height="4.2" style="fill:url(#_Linear8);fill-rule:nonzero;"/>
                                        <rect x="510.4" y="25.2" width="2.8" height="4.2" style="fill:url(#_Linear9);fill-rule:nonzero;"/>
                                        <rect x="506.8" y="25.2" width="2.9" height="4.2" style="fill:url(#_Linear10);fill-rule:nonzero;"/>
                                        <rect x="503.2" y="25.2" width="2.9" height="4.2" style="fill:url(#_Linear11);fill-rule:nonzero;"/>
                                        <path d="M499.6,25.3L502.5,25.2L502.5,29.4L499.6,29.4L499.6,25.3Z" style="fill:url(#_Linear12);fill-rule:nonzero;"/>
                                        <rect x="496" y="25.3" width="2.9" height="4.1" style="fill:url(#_Linear13);fill-rule:nonzero;"/>
                                        <rect x="492.5" y="25.3" width="2.8" height="4.1" style="fill:url(#_Linear14);fill-rule:nonzero;"/>
                                        <rect x="488.9" y="25.3" width="2.8" height="4.1" style="fill:url(#_Linear15);fill-rule:nonzero;"/>
                                        <rect x="485.3" y="25.3" width="2.8" height="4.1" style="fill:url(#_Linear16);fill-rule:nonzero;"/>
                                        <rect x="481.7" y="25.3" width="2.8" height="4.1" style="fill:url(#_Linear17);fill-rule:nonzero;"/>
                                        <rect x="478.1" y="25.3" width="2.8" height="4.1" style="fill:url(#_Linear18);fill-rule:nonzero;"/>
                                        <rect x="474.5" y="25.3" width="2.8" height="4.1" style="fill:url(#_Linear19);fill-rule:nonzero;"/>
                                        <rect x="470.9" y="25.3" width="2.8" height="4.1" style="fill:url(#_Linear20);fill-rule:nonzero;"/>
                                        <rect x="467.3" y="25.3" width="2.9" height="4.1" style="fill:url(#_Linear21);fill-rule:nonzero;"/>
                                        <path d="M463.7,25.4L466.6,25.3L466.6,29.4L463.7,29.4L463.7,25.4Z" style="fill:url(#_Linear22);fill-rule:nonzero;"/>
                                        <rect x="460.1" y="25.4" width="2.9" height="4" style="fill:url(#_Linear23);fill-rule:nonzero;"/>
                                        <rect x="456.5" y="25.4" width="2.9" height="4" style="fill:url(#_Linear24);fill-rule:nonzero;"/>
                                        <rect x="452.9" y="25.4" width="2.9" height="4" style="fill:url(#_Linear25);fill-rule:nonzero;"/>
                                        <rect x="449.4" y="25.4" width="2.8" height="4" style="fill:url(#_Linear26);fill-rule:nonzero;"/>
                                        <rect x="445.8" y="25.4" width="2.8" height="4" style="fill:url(#_Linear27);fill-rule:nonzero;"/>
                                        <rect x="442.2" y="25.4" width="2.8" height="4" style="fill:url(#_Linear28);fill-rule:nonzero;"/>
                                        <rect x="438.6" y="25.4" width="2.8" height="4" style="fill:url(#_Linear29);fill-rule:nonzero;"/>
                                        <rect x="435" y="25.4" width="2.8" height="4" style="fill:url(#_Linear30);fill-rule:nonzero;"/>
                                        <rect x="431.4" y="25.4" width="2.8" height="4" style="fill:url(#_Linear31);fill-rule:nonzero;"/>
                                        <path d="M427.8,25.5L430.6,25.4L430.6,29.4L427.8,29.4L427.8,25.5Z" style="fill:url(#_Linear32);fill-rule:nonzero;"/>
                                        <rect x="424.2" y="25.5" width="2.9" height="3.9" style="fill:url(#_Linear33);fill-rule:nonzero;"/>
                                        <rect x="420.6" y="25.5" width="2.9" height="3.9" style="fill:url(#_Linear34);fill-rule:nonzero;"/>
                                        <rect x="417" y="25.5" width="2.9" height="3.9" style="fill:url(#_Linear35);fill-rule:nonzero;"/>
                                        <rect x="413.4" y="25.5" width="2.9" height="3.9" style="fill:url(#_Linear36);fill-rule:nonzero;"/>
                                        <rect x="409.9" y="25.5" width="2.8" height="3.9" style="fill:url(#_Linear37);fill-rule:nonzero;"/>
                                        <rect x="406.3" y="25.5" width="2.8" height="3.9" style="fill:url(#_Linear38);fill-rule:nonzero;"/>
                                        <rect x="402.7" y="25.5" width="2.8" height="3.9" style="fill:url(#_Linear39);fill-rule:nonzero;"/>
                                        <rect x="399.1" y="25.5" width="2.8" height="3.9" style="fill:url(#_Linear40);fill-rule:nonzero;"/>
                                        <rect x="395.5" y="25.5" width="2.8" height="3.9" style="fill:url(#_Linear41);fill-rule:nonzero;"/>
                                        <path d="M391.9,26.8L391.9,25.6L394.7,25.6L394.7,29.4L394.5,29.4L391.9,26.8Z" style="fill:url(#_Linear42);fill-rule:nonzero;"/>
                                    </g>
                                </g>
                                <path d="M360.7,34.4L435.2,34.4C443.4,34.4 442.6,58.2 463.7,58.2C484.8,58.2 487.3,34.4 492.3,34.4L566.8,34.4C587,34.4 603.3,50.8 603.3,70.9L603.3,596.8C603.3,617 586.9,633.3 566.8,633.3L360.7,633.3C340.5,633.3 324.2,616.9 324.2,596.8L324.2,70.9C324.2,50.7 340.6,34.4 360.7,34.4Z" style="fill:url(#_Linear43);fill-rule:nonzero;"/>
                                <path d="M593.4,33.8C593.4,33.8 607.8,38.7 607.8,75.4L607.8,601.1C607.8,616 607.8,633 589.2,641L593.4,33.8Z" style="fill:url(#_Linear44);fill-rule:nonzero;"/>
                                <path d="M331,33.8C331,33.8 316.6,38.7 316.6,75.4L316.6,601.1C316.6,616 316.6,633 335.2,641L331,33.8Z" style="fill:url(#_Linear45);fill-rule:nonzero;"/>
                                <path d="M321.5,633.5C321.5,633.5 331,648.4 353,648.4L566.5,648.4C577.1,648.4 588.9,644.1 598.4,633.5L321.5,633.5Z" style="fill:url(#_Linear46);fill-rule:nonzero;"/>
                            </g>
                        </g>
                        <g>
                            <path d="M455.8,42.2C455.8,46.6 459.4,50.2 463.8,50.2C468.2,50.2 471.8,46.6 471.8,42.2C471.8,37.8 468.2,34.2 463.8,34.2C459.4,34.2 455.8,37.8 455.8,42.2Z" style="fill:url(#_Radial47);fill-rule:nonzero;"/>
                            <path d="M460.5,42.2C460.5,44 462,45.5 463.8,45.5C465.6,45.5 467.1,44 467.1,42.2C467.1,40.4 465.6,38.9 463.8,38.9C462,38.9 460.5,40.3 460.5,42.2Z" style="fill-rule:nonzero;"/>
                            <path d="M455.8,42.2C455.8,46.6 459.4,50.2 463.8,50.2C468.2,50.2 471.8,46.6 471.8,42.2C471.8,37.8 468.2,34.2 463.8,34.2C459.4,34.2 455.8,37.8 455.8,42.2Z" style="fill:none;fill-rule:nonzero;stroke:url(#_Radial48);stroke-width:1.84px;"/>
                        </g>
                    </g>
                    <path d="M323,34.3C330.1,26 340.7,20.7 352.6,20.7L575,20.7C596.5,20.7 614,38.2 614,59.7L614,615C614,624.2 610.8,632.7 605.4,639.3L323,34.3Z" style="fill:url(#_Linear49);fill-rule:nonzero;"/>
                </g>
                <g>
                    <path d="M567.1,49.6L567.1,49L570.4,49L570.4,49.6L573.2,49.6L573.2,64.9L564.3,64.9L564.3,49.6L567.1,49.6Z" style="fill:white;fill-rule:nonzero;"/>
                    <g>
                        <path d="M581,52.9L581,64.9L578.7,64.9L578.7,49.9L581,52.9Z" style="fill:white;fill-rule:nonzero;"/>
                        <path d="M581.8,53.9L584.1,56.9L584.1,64.9L581.8,64.9L581.8,53.9Z" style="fill:white;fill-rule:nonzero;"/>
                        <path d="M585,57.9L587.3,60.9L587.3,64.9L585,64.9L585,57.9Z" style="fill:white;fill-rule:nonzero;"/>
                        <path d="M588.1,61.9L590.4,64.9L588.1,64.9L588.1,61.9Z" style="fill:white;fill-rule:nonzero;"/>
                    </g>
                </g>
                <g>
                    <path d="M456.4,604.5C456.4,611.2 461.8,616.6 468.5,616.6C475.2,616.6 480.6,611.2 480.6,604.5C480.6,597.8 475.2,592.4 468.5,592.4C461.8,592.4 456.4,597.8 456.4,604.5ZM461,604.5C461,600.4 464.4,597 468.5,597C472.6,597 476,600.4 476,604.5C476,608.6 472.6,612 468.5,612C464.4,612 461,608.7 461,604.5Z" style="fill:white;fill-rule:nonzero;"/>
                    <path d="M464.2,604.5C464.2,606.9 466.1,608.9 468.6,608.9C471,608.9 473,607 473,604.5C473,602.1 471.1,600.1 468.6,600.1C466.1,600.2 464.2,602.1 464.2,604.5Z" style="fill:white;fill-rule:nonzero;"/>
                </g>
            </g>
        </g>
        <g transform="matrix(1,0,0,1,54,0)">
            <path d="M170,499.1C170,499.1 191,338.6 213.3,290L311.8,177.6C322.8,159.4 337.9,153 354.3,166.6C365.6,175.9 360.2,201.1 355.3,214.9C344,247.1 325.8,272.8 312.5,297.3L170,499.1Z" style="fill:rgb(255,184,130);fill-rule:nonzero;"/>
        </g>
    </g>
    <defs>
        <linearGradient id="_Linear1" x1="0" y1="0" x2="1" y2="0" gradientUnits="userSpaceOnUse" gradientTransform="matrix(3.3296,0,0,3.3296,310.183,186.304)"><stop offset="0" style="stop-color:white;stop-opacity:1"/><stop offset="1" style="stop-color:white;stop-opacity:0"/></linearGradient>
        <linearGradient id="_Linear2" x1="0" y1="0" x2="1" y2="0" gradientUnits="userSpaceOnUse" gradientTransform="matrix(3.3296,0,0,3.3296,310.183,278.928)"><stop offset="0" style="stop-color:white;stop-opacity:1"/><stop offset="1" style="stop-color:white;stop-opacity:0"/></linearGradient>
        <linearGradient id="_Linear3" x1="0" y1="0" x2="1" y2="0" gradientUnits="userSpaceOnUse" gradientTransform="matrix(-3.3296,4.07758e-16,-4.07758e-16,-3.3296,617.403,278.928)"><stop offset="0" style="stop-color:white;stop-opacity:1"/><stop offset="1" style="stop-color:white;stop-opacity:0"/></linearGradient>
        <linearGradient id="_Linear4" x1="0" y1="0" x2="1" y2="0" gradientUnits="userSpaceOnUse" gradientTransform="matrix(1.26044e-15,20.5845,-20.5845,1.26044e-15,459.999,9.9105)"><stop offset="0" style="stop-color:white;stop-opacity:1"/><stop offset="1" style="stop-color:white;stop-opacity:0"/></linearGradient>
        <linearGradient id="_Linear5" x1="0" y1="0" x2="1" y2="0" gradientUnits="userSpaceOnUse" gradientTransform="matrix(-4.796,5.87341e-16,-5.87341e-16,-4.796,530.761,27.2979)"><stop offset="0" style="stop-color:white;stop-opacity:1"/><stop offset="1" style="stop-color:white;stop-opacity:0"/></linearGradient>
        <linearGradient id="_Linear6" x1="0" y1="0" x2="1" y2="0" gradientUnits="userSpaceOnUse" gradientTransform="matrix(-4.796,5.87341e-16,-5.87341e-16,-4.796,527.17,27.303)"><stop offset="0" style="stop-color:white;stop-opacity:1"/><stop offset="1" style="stop-color:white;stop-opacity:0"/></linearGradient>
        <linearGradient id="_Linear7" x1="0" y1="0" x2="1" y2="0" gradientUnits="userSpaceOnUse" gradientTransform="matrix(-4.7959,5.87328e-16,-5.87328e-16,-4.7959,523.578,27.308)"><stop offset="0" style="stop-color:white;stop-opacity:1"/><stop offset="1" style="stop-color:white;stop-opacity:0"/></linearGradient>
        <linearGradient id="_Linear8" x1="0" y1="0" x2="1" y2="0" gradientUnits="userSpaceOnUse" gradientTransform="matrix(-4.7959,5.87328e-16,-5.87328e-16,-4.7959,519.987,27.313)"><stop offset="0" style="stop-color:white;stop-opacity:1"/><stop offset="1" style="stop-color:white;stop-opacity:0"/></linearGradient>
        <linearGradient id="_Linear9" x1="0" y1="0" x2="1" y2="0" gradientUnits="userSpaceOnUse" gradientTransform="matrix(-4.7956,5.87292e-16,-5.87292e-16,-4.7956,516.396,27.3181)"><stop offset="0" style="stop-color:white;stop-opacity:1"/><stop offset="1" style="stop-color:white;stop-opacity:0"/></linearGradient>
        <linearGradient id="_Linear10" x1="0" y1="0" x2="1" y2="0" gradientUnits="userSpaceOnUse" gradientTransform="matrix(-4.7957,5.87304e-16,-5.87304e-16,-4.7957,512.804,27.3232)"><stop offset="0" style="stop-color:white;stop-opacity:1"/><stop offset="1" style="stop-color:white;stop-opacity:0"/></linearGradient>
        <linearGradient id="_Linear11" x1="0" y1="0" x2="1" y2="0" gradientUnits="userSpaceOnUse" gradientTransform="matrix(-4.7957,5.87304e-16,-5.87304e-16,-4.7957,509.213,27.3282)"><stop offset="0" style="stop-color:white;stop-opacity:1"/><stop offset="1" style="stop-color:white;stop-opacity:0"/></linearGradient>
        <linearGradient id="_Linear12" x1="0" y1="0" x2="1" y2="0" gradientUnits="userSpaceOnUse" gradientTransform="matrix(-4.7956,5.87292e-16,-5.87292e-16,-4.7956,505.622,27.3332)"><stop offset="0" style="stop-color:white;stop-opacity:1"/><stop offset="1" style="stop-color:white;stop-opacity:0"/></linearGradient>
        <linearGradient id="_Linear13" x1="0" y1="0" x2="1" y2="0" gradientUnits="userSpaceOnUse" gradientTransform="matrix(-4.7956,5.87292e-16,-5.87292e-16,-4.7956,502.03,27.3384)"><stop offset="0" style="stop-color:white;stop-opacity:1"/><stop offset="1" style="stop-color:white;stop-opacity:0"/></linearGradient>
        <linearGradient id="_Linear14" x1="0" y1="0" x2="1" y2="0" gradientUnits="userSpaceOnUse" gradientTransform="matrix(-4.796,5.87341e-16,-5.87341e-16,-4.796,498.439,27.3433)"><stop offset="0" style="stop-color:white;stop-opacity:1"/><stop offset="1" style="stop-color:white;stop-opacity:0"/></linearGradient>
        <linearGradient id="_Linear15" x1="0" y1="0" x2="1" y2="0" gradientUnits="userSpaceOnUse" gradientTransform="matrix(-4.7961,5.87353e-16,-5.87353e-16,-4.7961,494.848,27.3483)"><stop offset="0" style="stop-color:white;stop-opacity:1"/><stop offset="1" style="stop-color:white;stop-opacity:0"/></linearGradient>
        <linearGradient id="_Linear16" x1="0" y1="0" x2="1" y2="0" gradientUnits="userSpaceOnUse" gradientTransform="matrix(-4.7961,5.87353e-16,-5.87353e-16,-4.7961,491.257,27.3535)"><stop offset="0" style="stop-color:white;stop-opacity:1"/><stop offset="1" style="stop-color:white;stop-opacity:0"/></linearGradient>
        <linearGradient id="_Linear17" x1="0" y1="0" x2="1" y2="0" gradientUnits="userSpaceOnUse" gradientTransform="matrix(-4.796,5.87341e-16,-5.87341e-16,-4.796,487.665,27.3584)"><stop offset="0" style="stop-color:white;stop-opacity:1"/><stop offset="1" style="stop-color:white;stop-opacity:0"/></linearGradient>
        <linearGradient id="_Linear18" x1="0" y1="0" x2="1" y2="0" gradientUnits="userSpaceOnUse" gradientTransform="matrix(-4.796,5.87341e-16,-5.87341e-16,-4.796,484.074,27.3636)"><stop offset="0" style="stop-color:white;stop-opacity:1"/><stop offset="1" style="stop-color:white;stop-opacity:0"/></linearGradient>
        <linearGradient id="_Linear19" x1="0" y1="0" x2="1" y2="0" gradientUnits="userSpaceOnUse" gradientTransform="matrix(-4.7957,5.87304e-16,-5.87304e-16,-4.7957,480.483,27.3686)"><stop offset="0" style="stop-color:white;stop-opacity:1"/><stop offset="1" style="stop-color:white;stop-opacity:0"/></linearGradient>
        <linearGradient id="_Linear20" x1="0" y1="0" x2="1" y2="0" gradientUnits="userSpaceOnUse" gradientTransform="matrix(-4.7956,5.87292e-16,-5.87292e-16,-4.7956,476.891,27.3735)"><stop offset="0" style="stop-color:white;stop-opacity:1"/><stop offset="1" style="stop-color:white;stop-opacity:0"/></linearGradient>
        <linearGradient id="_Linear21" x1="0" y1="0" x2="1" y2="0" gradientUnits="userSpaceOnUse" gradientTransform="matrix(-4.7956,5.87292e-16,-5.87292e-16,-4.7956,473.3,27.3787)"><stop offset="0" style="stop-color:white;stop-opacity:1"/><stop offset="1" style="stop-color:white;stop-opacity:0"/></linearGradient>
        <linearGradient id="_Linear22" x1="0" y1="0" x2="1" y2="0" gradientUnits="userSpaceOnUse" gradientTransform="matrix(-4.7957,5.87304e-16,-5.87304e-16,-4.7957,469.709,27.3837)"><stop offset="0" style="stop-color:white;stop-opacity:1"/><stop offset="1" style="stop-color:white;stop-opacity:0"/></linearGradient>
        <linearGradient id="_Linear23" x1="0" y1="0" x2="1" y2="0" gradientUnits="userSpaceOnUse" gradientTransform="matrix(-4.7957,5.87304e-16,-5.87304e-16,-4.7957,466.117,27.3888)"><stop offset="0" style="stop-color:white;stop-opacity:1"/><stop offset="1" style="stop-color:white;stop-opacity:0"/></linearGradient>
        <linearGradient id="_Linear24" x1="0" y1="0" x2="1" y2="0" gradientUnits="userSpaceOnUse" gradientTransform="matrix(-4.7956,5.87292e-16,-5.87292e-16,-4.7956,462.526,27.3938)"><stop offset="0" style="stop-color:white;stop-opacity:1"/><stop offset="1" style="stop-color:white;stop-opacity:0"/></linearGradient>
        <linearGradient id="_Linear25" x1="0" y1="0" x2="1" y2="0" gradientUnits="userSpaceOnUse" gradientTransform="matrix(-4.796,5.87341e-16,-5.87341e-16,-4.796,458.935,27.3988)"><stop offset="0" style="stop-color:white;stop-opacity:1"/><stop offset="1" style="stop-color:white;stop-opacity:0"/></linearGradient>
        <linearGradient id="_Linear26" x1="0" y1="0" x2="1" y2="0" gradientUnits="userSpaceOnUse" gradientTransform="matrix(-4.796,5.87341e-16,-5.87341e-16,-4.796,455.344,27.4039)"><stop offset="0" style="stop-color:white;stop-opacity:1"/><stop offset="1" style="stop-color:white;stop-opacity:0"/></linearGradient>
        <linearGradient id="_Linear27" x1="0" y1="0" x2="1" y2="0" gradientUnits="userSpaceOnUse" gradientTransform="matrix(-4.796,5.87341e-16,-5.87341e-16,-4.796,451.752,27.4089)"><stop offset="0" style="stop-color:white;stop-opacity:1"/><stop offset="1" style="stop-color:white;stop-opacity:0"/></linearGradient>
        <linearGradient id="_Linear28" x1="0" y1="0" x2="1" y2="0" gradientUnits="userSpaceOnUse" gradientTransform="matrix(-4.7959,5.87328e-16,-5.87328e-16,-4.7959,448.161,27.414)"><stop offset="0" style="stop-color:white;stop-opacity:1"/><stop offset="1" style="stop-color:white;stop-opacity:0"/></linearGradient>
        <linearGradient id="_Linear29" x1="0" y1="0" x2="1" y2="0" gradientUnits="userSpaceOnUse" gradientTransform="matrix(-4.7961,5.87353e-16,-5.87353e-16,-4.7961,444.57,27.419)"><stop offset="0" style="stop-color:white;stop-opacity:1"/><stop offset="1" style="stop-color:white;stop-opacity:0"/></linearGradient>
        <linearGradient id="_Linear30" x1="0" y1="0" x2="1" y2="0" gradientUnits="userSpaceOnUse" gradientTransform="matrix(-4.7956,5.87292e-16,-5.87292e-16,-4.7956,440.978,27.4241)"><stop offset="0" style="stop-color:white;stop-opacity:1"/><stop offset="1" style="stop-color:white;stop-opacity:0"/></linearGradient>
        <linearGradient id="_Linear31" x1="0" y1="0" x2="1" y2="0" gradientUnits="userSpaceOnUse" gradientTransform="matrix(-4.7955,5.87279e-16,-5.87279e-16,-4.7955,437.387,27.4291)"><stop offset="0" style="stop-color:white;stop-opacity:1"/><stop offset="1" style="stop-color:white;stop-opacity:0"/></linearGradient>
        <linearGradient id="_Linear32" x1="0" y1="0" x2="1" y2="0" gradientUnits="userSpaceOnUse" gradientTransform="matrix(-4.7956,5.87292e-16,-5.87292e-16,-4.7956,433.796,27.4341)"><stop offset="0" style="stop-color:white;stop-opacity:1"/><stop offset="1" style="stop-color:white;stop-opacity:0"/></linearGradient>
        <linearGradient id="_Linear33" x1="0" y1="0" x2="1" y2="0" gradientUnits="userSpaceOnUse" gradientTransform="matrix(-4.7956,5.87292e-16,-5.87292e-16,-4.7956,430.204,27.4393)"><stop offset="0" style="stop-color:white;stop-opacity:1"/><stop offset="1" style="stop-color:white;stop-opacity:0"/></linearGradient>
        <linearGradient id="_Linear34" x1="0" y1="0" x2="1" y2="0" gradientUnits="userSpaceOnUse" gradientTransform="matrix(-4.7956,5.87292e-16,-5.87292e-16,-4.7956,426.613,27.4442)"><stop offset="0" style="stop-color:white;stop-opacity:1"/><stop offset="1" style="stop-color:white;stop-opacity:0"/></linearGradient>
        <linearGradient id="_Linear35" x1="0" y1="0" x2="1" y2="0" gradientUnits="userSpaceOnUse" gradientTransform="matrix(-4.7956,5.87292e-16,-5.87292e-16,-4.7956,423.022,27.4494)"><stop offset="0" style="stop-color:white;stop-opacity:1"/><stop offset="1" style="stop-color:white;stop-opacity:0"/></linearGradient>
        <linearGradient id="_Linear36" x1="0" y1="0" x2="1" y2="0" gradientUnits="userSpaceOnUse" gradientTransform="matrix(-4.7959,5.87328e-16,-5.87328e-16,-4.7959,419.431,27.4544)"><stop offset="0" style="stop-color:white;stop-opacity:1"/><stop offset="1" style="stop-color:white;stop-opacity:0"/></linearGradient>
        <linearGradient id="_Linear37" x1="0" y1="0" x2="1" y2="0" gradientUnits="userSpaceOnUse" gradientTransform="matrix(-4.7959,5.87328e-16,-5.87328e-16,-4.7959,415.839,27.4593)"><stop offset="0" style="stop-color:white;stop-opacity:1"/><stop offset="1" style="stop-color:white;stop-opacity:0"/></linearGradient>
        <linearGradient id="_Linear38" x1="0" y1="0" x2="1" y2="0" gradientUnits="userSpaceOnUse" gradientTransform="matrix(-4.796,5.87341e-16,-5.87341e-16,-4.796,412.248,27.4645)"><stop offset="0" style="stop-color:white;stop-opacity:1"/><stop offset="1" style="stop-color:white;stop-opacity:0"/></linearGradient>
        <linearGradient id="_Linear39" x1="0" y1="0" x2="1" y2="0" gradientUnits="userSpaceOnUse" gradientTransform="matrix(-4.796,5.87341e-16,-5.87341e-16,-4.796,408.657,27.4695)"><stop offset="0" style="stop-color:white;stop-opacity:1"/><stop offset="1" style="stop-color:white;stop-opacity:0"/></linearGradient>
        <linearGradient id="_Linear40" x1="0" y1="0" x2="1" y2="0" gradientUnits="userSpaceOnUse" gradientTransform="matrix(-4.7959,5.87328e-16,-5.87328e-16,-4.7959,405.065,27.4746)"><stop offset="0" style="stop-color:white;stop-opacity:1"/><stop offset="1" style="stop-color:white;stop-opacity:0"/></linearGradient>
        <linearGradient id="_Linear41" x1="0" y1="0" x2="1" y2="0" gradientUnits="userSpaceOnUse" gradientTransform="matrix(-4.7956,5.87292e-16,-5.87292e-16,-4.7956,401.474,27.4796)"><stop offset="0" style="stop-color:white;stop-opacity:1"/><stop offset="1" style="stop-color:white;stop-opacity:0"/></linearGradient>
        <linearGradient id="_Linear42" x1="0" y1="0" x2="1" y2="0" gradientUnits="userSpaceOnUse" gradientTransform="matrix(-4.7956,5.87292e-16,-5.87292e-16,-4.7956,397.883,27.4846)"><stop offset="0" style="stop-color:white;stop-opacity:1"/><stop offset="1" style="stop-color:white;stop-opacity:0"/></linearGradient>
        <linearGradient id="_Linear43" x1="0" y1="0" x2="1" y2="0" gradientUnits="userSpaceOnUse" gradientTransform="matrix(1.80313e-14,294.473,-294.473,1.80313e-14,463.793,317.445)"><stop offset="0" style="stop-color:rgb(39,0,83);stop-opacity:1"/><stop offset="0.37" style="stop-color:rgb(87,10,103);stop-opacity:1"/><stop offset="0.79" style="stop-color:rgb(137,19,124);stop-opacity:1"/><stop offset="1" style="stop-color:rgb(156,23,132);stop-opacity:1"/></linearGradient>
        <linearGradient id="_Linear44" x1="0" y1="0" x2="1" y2="0" gradientUnits="userSpaceOnUse" gradientTransform="matrix(-9.2494,1.13272e-15,-1.13272e-15,-9.2494,611.676,337.339)"><stop offset="0" style="stop-color:white;stop-opacity:1"/><stop offset="1" style="stop-color:white;stop-opacity:0"/></linearGradient>
        <linearGradient id="_Linear45" x1="0" y1="0" x2="1" y2="0" gradientUnits="userSpaceOnUse" gradientTransform="matrix(9.2492,0,0,9.2492,312.732,337.339)"><stop offset="0" style="stop-color:white;stop-opacity:1"/><stop offset="1" style="stop-color:white;stop-opacity:0"/></linearGradient>
        <linearGradient id="_Linear46" x1="0" y1="0" x2="1" y2="0" gradientUnits="userSpaceOnUse" gradientTransform="matrix(1.26043e-15,-20.5844,20.5844,1.26043e-15,459.999,661.132)"><stop offset="0" style="stop-color:white;stop-opacity:1"/><stop offset="1" style="stop-color:white;stop-opacity:0"/></linearGradient>
        <radialGradient id="_Radial47" cx="0" cy="0" r="1" gradientUnits="userSpaceOnUse" gradientTransform="matrix(-16.8891,0,0,16.8891,471.902,31.3474)"><stop offset="0" style="stop-color:rgb(0,80,159);stop-opacity:1"/><stop offset="1" style="stop-color:rgb(0,0,43);stop-opacity:1"/></radialGradient>
        <radialGradient id="_Radial48" cx="0" cy="0" r="1" gradientUnits="userSpaceOnUse" gradientTransform="matrix(-8.8984,0,0,8.8984,463.793,42.1635)"><stop offset="0" style="stop-color:white;stop-opacity:1"/><stop offset="1" style="stop-color:rgb(95,95,94);stop-opacity:1"/></radialGradient>
        <linearGradient id="_Linear49" x1="0" y1="0" x2="1" y2="0" gradientUnits="userSpaceOnUse" gradientTransform="matrix(472.156,195.954,-195.954,472.156,201.5,167.055)"><stop offset="0" style="stop-color:white;stop-opacity:0.53"/><stop offset="1" style="stop-color:white;stop-opacity:0"/></linearGradient>
    </defs>
</svg>
