<?xml version="1.0" encoding="utf-8"?>
<!-- Generator: Adobe Illustrator 24.0.3, SVG Export Plug-In . SVG Version: 6.00 Build 0)  -->
<svg version="1.1" id="Layer_1" xmlns:serif="http://www.serif.com/"
	 xmlns="http://www.w3.org/2000/svg" xmlns:xlink="http://www.w3.org/1999/xlink" x="0px" y="0px" width="602.1px" height="650.4px"
	 viewBox="0 0 602.1 650.4" style="enable-background:new 0 0 602.1 650.4;" xml:space="preserve">
<style type="text/css">
	.st0{fill:#1A1A1A;}
	.st1{fill:#4D4D4D;}
	.st2{fill:#A36546;}
	.st3{fill:#270210;}
	.st4{fill:#9A6042;}
	.st5{fill:#AB6A4A;}
	.st6{opacity:0.28;fill:#7C2E2E;}
	.st7{opacity:0.59;fill:#BE8469;}
	.st8{fill:#CF2721;}
	.st9{fill:#FFFFFF;}
	.st10{fill:#333333;}
	.st11{fill:#4D4D4F;}
	.st12{fill:none;stroke:#F5D1BE;stroke-width:2.0965;stroke-miterlimit:10;}
	.st13{fill:#39170B;}
	.st14{fill:#390B1D;}
	.st15{opacity:0.29;fill:#813B3B;}
</style>
<g>
	<path class="st0" d="M543.2,1376.5c0-42.3-14.8-152.1-21.7-181.4c-7-29.4-26.1-121.8-27.8-148.6c-1.7-26.8-1.7-40.6-26.9-140
		c-25.2-99.4-90.9-286.8-94.3-286.8c0.8-2-125.9-7.9-125.9-7.9c-2.4,2.5-4.8,5.1-7.4,7.8c-26.1,28.5-53.6,92.4-60.5,146.9
		c-7,54.4,19.2,250.6,19.2,250.6s-36.5,25.9-33.9,80.4c2.6,54.4,38.2,146.9,43.4,184c5.2,37.2-4.3,53.6-4.3,53.6l-16.5-1.7l7.8,18.1
		l-34.8,27.6c0,0,13.9,19.9,13.9,31.1c0,11.2-3.5,66.5-3.5,66.5h10.4c0,0-0.9-64.8,6.1-67.4c6.9-2.6,17.4,19,19.1,31.1
		c1.7,12.1,5.2,38.9,5.2,38.9h49.5l1.7-12.1c0,0-13,0-19.1-5.2c-6.1-5.2,0-23.3,1.7-87.3c1.7-63.9-5.2-331.8-5.2-331.8L305,743.1
		c0,0,133.9,263.6,137.4,286.1c3.5,22.5-19.1,51-13.9,83.8c5.2,32.8,53,134.8,66,161.6c13,26.8,11.3,57.9,11.3,57.9l-16.5,1.7
		l9.6,19l-33.9,27.7c0,0,10.4,15.6,12.2,25.9c1.7,10.4,0,68.3,0,68.3h12.2c0,0-6.1-63.9,0-64.8c6.1-0.9,15.6,11.2,19.1,22.5
		c3.5,11.2,7,44.1,7,44.1h57.4v-9.5c0,0-21.7-0.9-31.3-11.2C531.9,1445.6,543.2,1418.8,543.2,1376.5z"/>
	<g>
		<path class="st1" d="M244.7,1374.7c1.7-63.9-5.2-331.8-5.2-331.8L305,743.1l-77.7,298.2c0,0,5.8,346.8,4.6,375.6
			c-1.1,26.2-2.9,44.3-2.9,62.5h31.3l1.7-12.1c0,0-13,0-19.1-5.2C236.9,1456.8,243,1438.7,244.7,1374.7z"/>
		<path class="st1" d="M572.7,1467.2c-41.7,9.5-52.2-16.4-69.6-85.5c0.1-8.9,23.7-43.2,5.5-100.8c-24.4-77.8-80.9-163-64.6-198.1
			c11.6-25.1,15.7-51.8,6.4-74.9C442.3,987.4,305,743.1,305,743.1c23.9,45.7,134.3,266.2,137.4,286.1c3.5,22.5-19.1,51-13.9,83.8
			c5.2,32.8,53,134.8,66,161.6c13,26.8,11.3,57.9,11.3,57.9l-16.5,1.7l9.6,19l-33.9,27.7c0,0,10.4,15.6,12.2,25.9
			c1.7,10.4,0,68.3,0,68.3h12.2c0,0-6.1-63.9,0-64.8c6.1-0.9,15.6,11.2,19.1,22.5c3.5,11.2,7,44.1,7,44.1h57.4
			C572.7,1476.7,569.2,1468,572.7,1467.2z"/>
	</g>
	<path class="st2" d="M98.2,519.3l-27.5,22.9l59.2,58.4c0,0,37.6,35.5,48.5,35.9c10.9,0.4,19.2-11,19.2-11l23.5-5.3l1.6-11.2
		l-12.6-8c0,0-1.4-6.9-4.8-15.6c-3.5-8.7-21.1-22.6-32-23c-10.9-0.4-25.6,6.1-25.6,6.1L98.2,519.3z"/>
	<polygon class="st2" points="526.7,460.1 572.5,347.8 543.5,337.1 495.2,447.3 	"/>
	<path class="st2" d="M575,345.3c-9.7,7.2-7.6,13.3-20.9,11.1c-11.9-2-14.7-3-17.6-13.5c-2-7.1-3.2-41.8,2.1-47.3c3-3.1,5.7-4,8-7.6
		c1.8-2.9,3.4-6.5,3.6-10c0.2-3.4,2.3-7.5,5.8-7.3c1.3,0.1,7.7,3.6,3.8,21.1c-0.8,3.8,10.9-23,17.1-48.8c1.1-4.3,5-6.4,7.5,3.9
		c0.5,11.1-6.3,29.9-9.2,40.6c5.2,1.7,11.8,6,14.6,10.6c3.4,5.6,4.5,19.1,1.6,25.4C589,328.6,579.4,342,575,345.3z"/>
	<polygon class="st0" points="358.4,351.9 476.1,465.4 513.4,401.5 548,417.5 497.4,542.5 332.5,430.8 	"/>
	<path class="st3" d="M259.6,251.1c-17.3-8.6-45.4-107.1-38.8-118.5c1.1-1.8-27.5,9.2-28.1,20.3c-0.4,8.4-23.3,113.1-17.9,118.1
		c5.1,12.3,65,65.6,65,65.6c8.5,6.6,44.6,15.5,51.8-0.9C293.5,331.5,282.2,262.4,259.6,251.1z M391.6,310.4
		c0,0,3.4-146.8-24.8-177.8c-3.9,5.8-27.2,67.2-42.3,79c-12.2,37.5-26.2,126.2-0.8,147C333.3,364.5,400,331,391.6,310.4z"/>
	<path class="st0" d="M375.1,356.2c11.3,15.5,36,48.7,46.7,58.3c-9.1,43.1-55,54.6-55,54.6s4.1,111.8-1.1,149.5
		c0.1,0.3,2.8,2.5,7.3,6.3l-122.9-21.5c0.1-0.2,0.2-0.2,0.2-0.2s10.9-36.1,5.3-68.8c-5.5-32.7-55.4-118.5-55.4-118.5L79.7,489.3
		l37.2,47.9l-21.3,31.9L7.9,478.7c0,0,162-162.1,178.7-170c16.8-7.9,123.7-4.3,123.7-4.3l5.9,1.9L375.1,356.2z"/>
	<path class="st4" d="M316.2,247.2l-4.4,57.3c0,0,16.6,16.6-15.7,20.8c-43.1,5.6-36.4-16.1-36.4-16.1l0.1-60.4L316.2,247.2z"/>
	<path class="st5" d="M207.3,159.2c-21.1-36.2,2.4-105.1,73.6-107.3c71.3-2.2,99,65.2,80.3,102.6c0,0,17.2,10.5,11.4,48
		c-6.4,41.6-71.3,74.3-71.3,74.3s-0.1,0-0.1,0c-4.1,3.5-8.5,5.5-13.2,5.6c-4.7,0.1-9.2-1.5-13.5-4.8c-1.6-0.7-66.9-29.1-75.7-69.7
		C190.8,170.8,207.3,159.2,207.3,159.2z"/>
	<path class="st6" d="M207.3,159.2c-21.1-36.2,2.4-105.1,73.6-107.3c71.3-2.2,99,65.2,80.3,102.6c0,0,17.2,10.5,11.4,48
		c-1.6,10.7-7.2,20.8-14.5,30c2.2-44.2-2.9-128.4-70.8-130.7c-67.8-2.3-72.4,89.7-70.4,137.2c-8.7-9.1-15.7-19.6-18.1-31
		C190.8,170.8,207.3,159.2,207.3,159.2z"/>
	<g>
		<path class="st7" d="M289.6,205.1c0.1-0.4,1-0.4,2-1c1-0.5,2.2-1.5,2.8-3.1c0.5-1.4,0.4-3.4-0.5-5.4c-0.9-2.1-2.5-4.1-4.3-6.6
			c-1.8-2.4-3.6-5.8-4.3-8.9c-0.8-3.2-0.7-6.3-0.2-8.8c1.1-5.1,3.7-7.7,5.1-6.9c1.5,0.7,1,3.6,1.3,7.5c0.1,1.9,0.4,4.2,1.1,6.4
			c0.7,2.3,1.7,4.3,3.3,6.8c1.5,2.4,3.4,5.4,4.2,8.8c0.8,3.3,0.4,7.1-1.7,9.7c-2,2.4-4.6,3.1-6.3,2.9
			C290.1,206.3,289.4,205.4,289.6,205.1z"/>
	</g>
	<g>
		<path class="st7" d="M281,206c-0.3,1.2-3.8,1.3-6.2-0.9c-2.5-2.2-2.9-5.8-0.5-6.2c2.4-0.4,3.4,1.1,4.6,2.6
			C279.8,203,281.3,204.8,281,206z"/>
	</g>
	<g>
		<path class="st8" d="M319,229c-13.7,2.5-20.6-4.8-31.8-4.5c-11.1,0.3-22.5,8.8-30.6,5.3c6.1,9.3,16.1,23.8,31.9,22.8
			C304.4,251.6,313.3,233.9,319,229z"/>
		<path class="st9" d="M310.1,232.4c-9.7,1.8-14.7-1.4-22.6-1.1c-7.9,0.2-16.1,4.2-21.8,1.8c4.3,6.5,11.4,16.6,22.7,15.9
			C299.7,248.3,306.1,235.9,310.1,232.4z"/>
	</g>
	<path class="st10" d="M421.8,414.5c-9.1,43.1-55,54.6-55,54.6s-33.3,18.1-68.2,6.9c-34.9-11.2-25.2,44.7-12.6,68.5
		c12.6,23.8,4.2,61.5,4.2,61.5l-38-10.4c2.8-12.2,7.4-37.6,3.4-61.4c-5.5-32.7-46.1-103.2-55.4-118.5c34,26.7,59.2-15.3,110.9,4.3
		c32.8,12.4,39.1,0,74.1-12.6C396.2,403.6,419.3,412.2,421.8,414.5z"/>
	<path class="st11" d="M256.3,572.4c39,14.7,83.2,8.9,112.9,1.7c2,19.3,4.2,48.2,4.2,50.3c-53.1,13.2-96.2,11.8-133.9-3.8
		C249.2,603.1,256.4,589.2,256.3,572.4z"/>
	<path class="st11" d="M253.3,460.3c0,0,34.7,17.1,72.8-0.6C303.8,491,268.9,482,253.3,460.3z"/>
	<g>
		<path class="st12" d="M159.5,171.7"/>
	</g>
	<path class="st0" d="M316.1,276.5c0,0-6.9,10.4-26.6,10.4c-19.7,0-31-8.5-31-8.5l-13.6,43.9c0,0,14.1,11.3,42.3,11.3
		c28.2,0,36.1-15.7,36.1-15.7L316.1,276.5z"/>
	<g>
		<path class="st9" d="M308.4,177c-3.3-4.1,2.7-18.5,16.6-22.7c14-4.1,21,5.3,21.4,9.1c0.3,3.7-1.6,10.3-9.7,13.6
			c-8,3.3-14.6,2.2-18.4,1.9C313.6,178.4,310.3,179.3,308.4,177z"/>
		<circle class="st13" cx="325.1" cy="163.4" r="12.1"/>
		<circle class="st9" cx="329.7" cy="161" r="4.8"/>
		<path class="st13" d="M307.5,173.7c0,0-1.7-7.1,7-16.1c8.7-9,19.9-6.8,23-7.3c3.1-0.5,6.4,0.5,5.4,1.3c-1,0.8,1.8,3.3,4.3,2.8
			c2.5-0.5,0,2.1,0,2.9c0,0.8,4.3,0.6,4.6,1.6c0.3,0.9-2.5,2.9-1.8,3.1c0.7,0.2,3,2.1,1.8,2.9c-1.2,0.8-3.5,3.6-4.5,4.7
			s-3.6,2.2-3.6,2.2s3.1-5.7,1.3-9.8c-1.8-4.1-6.5-8.5-14.5-7.6s-12.9,4.5-16.4,7.6C310.7,165,307.5,173.7,307.5,173.7z"/>
		<path class="st13" d="M305.3,137.7c-2.4,5.6,8.4,4.3,14.9,1.8c6.6-2.5,15.2-3.6,22.4-3.4c7.2,0.2,16.7,4.5,16.7,4.5
			s-11.3-7.2-22.2-8.1c-10.9-0.9-22.9,0.7-26.5,1.6S306.7,134.5,305.3,137.7z"/>
	</g>
	<g>
		<path class="st9" d="M264.3,172.1c3.1-3.8-2.5-17.6-15.8-21.5c-13.2-3.9-19.9,5-20.2,8.6c-0.3,3.6,1.6,9.8,9.2,12.9
			s13.9,2.1,17.4,1.8C259.4,173.5,262.5,174.3,264.3,172.1z"/>
		<circle class="st13" cx="248.4" cy="159.2" r="11.5"/>
		<path class="st9" d="M257.4,157c0,2.5-2.1,4.6-4.6,4.6c-2.5,0-4.6-2.1-4.6-4.6c0-2.5,2.1-4.6,4.6-4.6
			C255.4,152.4,257.4,154.5,257.4,157z"/>
		<path class="st13" d="M265.1,169c0,0,1.6-6.7-6.6-15.3c-8.3-8.6-18.8-6.4-21.8-7c-3-0.5-6.1,0.5-5.1,1.2c0.9,0.8-1.7,3.1-4,2.6
			c-2.3-0.5,0,2,0,2.8c0,0.8-4,0.6-4.4,1.5c-0.3,0.9,2.3,2.8,1.7,3c-0.6,0.2-2.9,2-1.7,2.7c1.1,0.8,3.3,3.4,4.2,4.5s3.4,2,3.4,2
			s-3-5.4-1.3-9.3c1.7-3.9,6.2-8,13.7-7.3c7.5,0.8,12.2,4.2,15.6,7.2C262.1,160.7,265.1,169,265.1,169z"/>
		<path class="st13" d="M272.1,134.9c2.3,5.4-7.9,4.1-14.2,1.7c-6.2-2.4-14.4-3.4-21.2-3.2c-6.9,0.2-15.9,4.3-15.9,4.3
			s10.7-6.9,21-7.7c10.3-0.9,21.7,0.6,25.1,1.5S270.8,131.9,272.1,134.9z"/>
	</g>
	<g>
		<g>
			<path class="st14" d="M425.4,275.7c5.2-4.4,7.9-8.7,8.4-13.5c0.9-8.4-3.3-18.7-15.4-31.4c-26.2-27.7-17.7-39.7-17.7-84.1
				c0-28.2,0-56.4-19.7-87.4c-25.2-39.6-51.2-34.1-52.7-33.9c-2.5-2.4-18.7-10.2-39.5-8.5c-33.9,2.8-56.7,14.8-79.9,33.9
				c-20.6,16.9-56.4,45.1-44.2,101.6c5.5,25.4,21.7,39.5-6.4,72.2c-11.4,13.3-16.2,23.1-15.4,31.4c0.5,4.8,3.2,9.1,8.4,13.5
				c6.5,5.4,10,8.4,10.2,10.7c0.2,2.1-2.3,5-6.4,9.8c-3.4,4.1-11.1,14.5-8.1,22.8c2,5.4,8.1,8.6,18,9.4c1.2,1.4,5.2,5.8,12,9.5
				c3.7,2,6.3,5.2,5.9,7.1c-0.2,0.8-1.6,3.6-12.5,3.6c-1.4,0-2.9,0-4.4-0.1c-3.1-2.1-6-4.7-8.5-6.9l-0.3-0.2
				c-0.3-0.3-0.7-0.4-1.1-0.4c-0.7,0-1.3,0.5-1.6,1.2c-0.3,0.7-0.1,1.5,0.4,2c6.1,6.7,13.8,15.1,23.5,15.1c2.1,0,4.3-0.4,6.5-1.2
				c5-1.9,9.1-5.8,11.3-10.9c2.2-4.9,2.4-10.4,0.8-15.5c-0.5-1.6-1.3-3.1-2-4.6c-0.9-1.7-1.7-3.3-2.1-5c-0.8-3.5-0.3-6.5,1.6-9.5
				c1.9-3,3.4-3.4,10.9,1.2c10.9,6.6,22.2,13.4,20.4,23.4c-2.7,15.5-17.6,16.3-20.6,16.3c-0.2,0-0.3,0-0.4,0c0,0,0,0-0.1,0
				c-0.7,0-1.2,0.5-1.3,1.2c-0.1,0.7,0.3,1.5,1,1.7c0.1,0,2.9,0.9,6.8,0.9c6.8,0,18.7-2.8,22-21.3c0.7-4.1,1.1-7.6,1-10.8
				c0.8-8.5-0.6-16.1-4.1-22.6c-2.4-4.4-5.9-7.5-9.3-10.5c-0.7-0.6-1.5-1.3-2.2-2c-3.7-3.4-7.4-7.1-7.2-11.9
				c0.2-5.7,5.7-24.3,5.7-35.5c0-16.9-6.4-32.1-8.5-39.5c-1.2-4.3-5.6-19.1,2.8-44.5s20.3-37.6,45.5-47.8
				c27.9-11.3,47.3-16.3,53.7-22.8c8.9,0,29.1,40.8,44.7,56.4c14.1,14.1,14.1,50.8,9.4,64.9c-3.8,11.3-8.5,25.4-8.5,42.3
				c0,11.3,8.4,27,8.6,32.7c0.2,4.8-3.5,8.5-7.2,11.9c-0.7,0.7-1.5,1.3-2.2,2c-3.4,3-6.9,6.1-9.3,10.5c-3.5,6.4-4.8,14-4.1,22.6
				c-0.1,3.2,0.2,6.7,1,10.8c3.4,18.5,15.3,21.3,22,21.3c3.9,0,6.7-0.9,6.8-0.9c0.7-0.2,1.1-0.9,1-1.7c-0.1-0.7-0.7-1.2-1.3-1.2
				c0,0,0,0-0.1,0c0,0-0.1,0-0.4,0c-3,0-17.9-0.8-20.6-16.3c-1.7-10,9.5-16.8,20.4-23.4c7.5-4.5,9-4.1,10.9-1.2c1.9,3,2.5,6,1.6,9.5
				c-0.4,1.7-1.2,3.3-2.1,5c-0.7,1.5-1.5,3-2,4.6c-1.6,5.2-1.4,10.7,0.8,15.5c2.2,5,6.4,9,11.3,10.9c2.2,0.8,4.3,1.2,6.5,1.2
				c9.8,0,17.4-8.3,23.5-15.1c0.5-0.5,0.6-1.3,0.4-2c-0.3-0.7-0.9-1.2-1.6-1.2c-0.4,0-0.8,0.2-1.1,0.4l-0.3,0.2
				c-2.6,2.2-5.5,4.8-8.5,6.9c-1.6,0.1-3.1,0.1-4.4,0.1c-10.9,0-12.4-2.8-12.5-3.6c-0.4-1.9,2.2-5.1,5.9-7.1
				c6.8-3.7,10.8-8.1,12-9.5c10-0.8,16-3.9,18-9.4c3-8.3-4.6-18.7-8.1-22.8c-4.1-4.8-6.6-7.8-6.4-9.8
				C415.4,284.1,418.9,281.2,425.4,275.7z"/>
			<path class="st15" d="M408.5,137v1.8C408.5,138.8,408.5,138.2,408.5,137z M345.5,37.6c41.1,35.4,43.8,91.6,43.9,102.2v-12.5
				C392.6,67.8,345.5,37.6,345.5,37.6z M204.8,89.1c35.1-39.2,111.8-69.3,111.8-69.3s-59.9,16.6-110.2,61c-3.5,3.1-6.6,6-9.4,8.8
				c12.8-16.2,35.3-37.7,73.3-57c0,0-68.2,29.9-89.2,76c-8,15.5-5.3,33.3-7,29.1c2.8,3.9,6.1,7.4,9.9,12.1l4.1,3.3
				C188,153.1,169.7,128.2,204.8,89.1z M331,81.5C324.9,68.2,316,64,313.4,63c8.2-17.7,12-31.9,12-31.9
				c-26.4,52.7-53.5,51.2-94.3,73.8c-15.4,8.5-23.7,16.3-28.1,22.7c2-8.6,9.5-24.8,36.1-45.3c39.9-30.9,78.3-52.7,78.3-52.7
				s-85.8,38.7-114.3,86c6-12.6,20.8-35.1,56-58.9c0,0-59.3,30.3-64.1,78.3c-1.4,6.6-1.5,13.3,0.3,20.1c0.1-2.1,0.4-4.2,0.7-6.5
				c3.2-19.6,24-36.2,60.7-49c28.5-9.9,44.9-23,50.9-28.4c21.7,7.7,21.9,26.3,33.7,42.7c5.5,7.6,11.9,12.8,17.3,16.2
				C337.5,113,337.8,96.6,331,81.5z M366.2,109.7c-3-8.1-7.1-15.6-11.3-21.4c-11.2-15.8-26.4-35.4-26.4-35.4s12,22.6,24,42.9
				c12,20.3,12.8,39.9,12.8,39.9l0.1,1.3c1.2,4.2,1.6,8.4,1.4,12.5c3.5-6.7,4.4-14.4,3.7-22.2l2,8.4c4-52-39.9-98.7-39.9-98.7
				C350.9,58.3,361.8,93.1,366.2,109.7z"/>
		</g>
	</g>
</g>
</svg>
