<?xml version="1.0" encoding="utf-8"?>
<!-- Generator: Adobe Illustrator 24.0.3, SVG Export Plug-In . SVG Version: 6.00 Build 0)  -->
<svg version="1.1" id="Layer_1" xmlns="http://www.w3.org/2000/svg" xmlns:xlink="http://www.w3.org/1999/xlink" x="0px" y="0px"
	 width="228.8px" height="578px" viewBox="0 0 228.8 578" style="enable-background:new 0 0 228.8 578;" xml:space="preserve">
<style type="text/css">
	.st0{fill:#A36546;}
	.st1{fill:#1A1A1A;}
	.st2{fill:#270210;}
	.st3{fill:#333333;}
	.st4{fill:#9A6042;}
	.st5{fill:#4D4D4F;}
	.st6{fill:#AB6A4A;}
	.st7{opacity:0.28;fill:#7C2E2E;}
	.st8{opacity:0.59;fill:#BE8469;}
	.st9{fill:#CF2721;}
	.st10{fill:#FFFFFF;}
	.st11{fill:#4D4D4D;}
	.st12{fill:#39170B;}
	.st13{fill:#390B1D;}
	.st14{opacity:0.29;fill:#813B3B;}
</style>
<g>
	<path class="st0" d="M64.4,243.9c-2.9,1-12.5,12.5-12.5,12.5l29.1,27.5l-6.4-22.5L64.4,243.9z"/>
	<path class="st1" d="M3,606.1c0-18.6,6.5-67,9.6-79.9c3.1-12.9,11.5-53.6,12.2-65.4c0.8-11.8,0.8-17.9,11.9-61.6
		C47.8,355.4,78.4,281.7,80,281.7c-0.3-0.9,0.4-1.5,0.1-2.4l53.6-9.9c1,1.1,2.1,2.2,3.2,3.4c11.5,12.6,30.6,40.7,33.7,64.7
		c3.1,24-6.1,110.3-6.1,110.3s16.1,11.4,14.9,35.4c-1.1,24-16.8,64.7-19.1,81c-2.3,16.4,1.9,23.6,1.9,23.6l7.3-0.8l-3.4,8l15.3,12.2
		c0,0-6.1,8.8-6.1,13.7c0,4.9,1.5,29.3,1.5,29.3h-4.6c0,0,0.4-28.5-2.7-29.7c-3.1-1.1-7.7,8.4-8.4,13.7c-0.8,5.3-2.3,17.1-2.3,17.1
		h-21.8l-0.8-5.3c0,0,5.7,0,8.4-2.3c2.7-2.3,0-10.3-0.8-38.4c-0.8-28.2,2.3-146.1,2.3-146.1l-34.7-132c0,0-62.5,116.1-64,126
		c-1.5,9.9,8.4,22.4,6.1,36.9c-2.3,14.5-23.3,59.3-29.1,71.1c-5.7,11.8-5,25.5-5,25.5l7.3,0.8l-4.2,8.4L37.5,608
		c0,0-4.6,6.8-5.4,11.4c-0.8,4.6,0,30.1,0,30.1h-5.4c0,0,2.7-28.2,0-28.5c-2.7-0.4-6.9,4.9-8.4,9.9c-1.5,4.9-3.1,19.4-3.1,19.4H-10
		v-4.2c0,0,9.6-0.4,13.8-4.9C8,636.6,3,624.8,3,606.1z"/>
	<path class="st2" d="M123.3,110.5c-6.6-3.3-41.3-46.1-38.8-50.4c0.4-0.7,0.1-1.7,0.2-2.6c-3.4,1.3-6.8,5.7-7,9.9
		c-0.2,3.2-7.6-2-6.4,0.8c4.3,10.8-4.3,29.9-1,39.2c-0.1,0.4-0.1,0.8-0.2,1.2c-0.8-0.6-1.7-1.2-2.4-1.6c-0.3,1.7,1.1,3.7,3.2,5.6
		c2,4.7,7.1,6.9,11.2,8.8c0.8,0.3,1.8,0.8,2.9,1.3c1.6,1,3.2,2.1,4.6,3.4c3.2,2.8,4.3,5.8,6.2,9.4v2.3c3.3,2.5,17.1,6,19.9-0.3
		C116.4,136,132,114.8,123.3,110.5z M167.6,120.1l-4,5.8c-0.8-2.4-2.2-4.7-3.2-6.8c-2.5-4.9-5-11-8.1-16.1c0,0,0,0,0,0
		c-1.9,0-3.4-1-4.6-2.9c-0.9,2.5-3.8-2.4-8.3,3.3c-0.9,14.7-4.9,35.8,6.5,40.9C158,145.9,177.9,133.5,167.6,120.1z"/>
	<path class="st1" d="M82.8,134c-19.3,18.3-63.5,84.7-63.5,84.7l32.6,37.7l12.5-12.5l-18.1-26l45.6-61.4L82.8,134z"/>
	<path class="st1" d="M173.2,244.9l20.1-26.6l-33.2-46.4c-7.6,10.1-37.6,50.6-39.7,65.8c-2.2,15.6,4.8,21.1,15.1,31.8l-56.4,10.4
		c-10.8-32-6.6-81.3-6.6-81.3s-14.9-2.4-18.9-25c7.7-2.4,28.2-24.6,28.2-24.6s-4-9.3,2-16.1c6-6.8,68.4-4.8,86.1,2.7
		c17.7,7.5,53.7,87.1,53.7,87.1L184,258.2L173.2,244.9z"/>
	<path class="st3" d="M72.5,198.6l20.5-0.7c0,0,20.9,8.6,17.2,22c-3.8,13.4,0,36,0,36l11.5-3.9c-1.5-3.9-2.1-8.4-1.3-14.4
		c2.4-17.3,41.5-68.1,41.5-68.1s-9.3,9.5-21.1,11.1c-11.8,1.6-28.5-4.3-42.4,0c-14,4.3-16.1-0.5-26.3-5.4
		c-10.2-4.8-18.5-1.7-18.5-1.7C57.6,196.2,72.5,198.6,72.5,198.6z"/>
	<path class="st4" d="M119.6,112c0,0,4.7,11.6-4.9,21.3c-3.9,8.7,27.1,1.1,27.1,1.1s-4.8-7.5-2-35.3
		C138.5,102.7,119.6,112,119.6,112z"/>
	<path class="st5" d="M120.9,249.6c-13,9.4-34.5,11.4-46.2,11.8c1.2,7.3,2.9,14.4,5.3,20.8c21-0.5,39.7-6.8,52.1-16.4
		C126.6,260.3,122.5,255.8,120.9,249.6z"/>
	<path class="st6" d="M86.6,76.6c0,0-5.9,3.9-3.5,16.9c2.7,14.5,25.8,25.2,25.8,25.2s30.6-7.8,41.3-36.8c10.7-29-14.9-55.2-42-47.4
		C81,34.6,79.6,63.8,86.6,76.6z"/>
	<path class="st7" d="M150.2,82c8.9-23.9-7.4-41.3-28.5-42.2c6.6,4.1,12.4,11.2,14,23.8c3.4,25.7-15.1,46.1-24.2,54.3
		C119.2,115.3,141.4,105.8,150.2,82z"/>
	<g>
		<path class="st8" d="M104.8,89.9c0-0.2-0.3-0.4-0.9-0.7c-0.6-0.3-1.4-0.6-2.1-1.2c-0.3-0.3-0.6-0.7-0.7-1c-0.1-0.4-0.1-0.7,0.1-1
			c0.3-0.7,1.3-1.7,2.3-3.1c1.9-2.6,2.8-5.7,2.9-8.1c0.1-2.4-0.6-3.9-1.2-3.8c-0.7,0.1-1,1.5-1.5,3.5c-0.5,2-1.4,4.5-2.8,6.7
			c-0.6,1.1-1.8,2.1-2.3,4.1c-0.2,1,0,2.1,0.5,2.9c0.5,0.8,1.1,1.2,1.7,1.6c1.3,0.6,2.3,0.6,3,0.5C104.4,90.2,104.8,90.1,104.8,89.9
			z"/>
	</g>
	<g>
		<path class="st9" d="M95.3,100.6c0,0-4.1-2.2-2.4-3.7c1.7-1.5,16.7,3.1,23.5,0c-2.8,7-6.6,11.9-12.9,12.3
			C97.3,109.5,95.3,100.6,95.3,100.6z"/>
		<path class="st10" d="M113.4,99.6c-6.4,1.2-8.9,1.9-17.1,0.3c0.8,2.7,3,7.1,6.5,6.8C108.7,106.3,113.4,99.6,113.4,99.6z"/>
	</g>
	<path class="st5" d="M98.2,197.4c0,0,18.9,5.2,27.8-3.2C118.8,207,105.1,205,98.2,197.4z"/>
	<path class="st0" d="M173.6,244.1l-30.7,25.7l-5.4-4.3l-1.1,6.5c0,0,3.3,5.4,6.5,5.4c7.7,0,41.2-19.6,41.2-19.6
		S178.8,247.7,173.6,244.1z"/>
	<g>
		<g>
			<path class="st0" d="M106.8,259.4L106.8,259.4l17,1.4l-11.9-4.6c-1.4-0.7-1.2-1.8-1.1-2.3l6.4,1.7l2,0.6l0,0c2,0.5,3.7,1,5.3,1.5
				l0,0l2.7,0.7l13,9.4l0,0l-0.4,2.2l-1.9,2.4c0,0-5.5,0.6-10.8-0.8c-6.1,1.1-11.3,0.8-11.3,0.8c-3.1-0.6-1-2-1-2
				c3,0.6,7.6-0.4,8.3-0.6c0.5-0.1,1-0.3,1.5-0.4l-0.2-0.4l-16.4-1.2c-2.3-0.5-0.5-2.4-0.5-2.4l12.5,0l2.8-0.3l-0.4-0.9l0.3-0.1
				l-0.3,0l-15.7-1.5l0,0c-2.7-0.4-2.3-3.3-2.3-3.3L106.8,259.4z"/>
		</g>
	</g>
	<g>
		<path class="st11" d="M143.8,605.4c-0.8-28.2,2.3-146.1,2.3-146.1l-34.7-132l40.1,131.3c0,0-2.6,152.7-2,165.4
			c0.5,11.5,1.3,19.5,1.3,27.5h-13.8l-0.8-5.3c0,0,5.7,0,8.4-2.3C147.3,641.5,144.6,633.5,143.8,605.4z"/>
		<path class="st11" d="M-10,646.1c18.3,4.2,23-7.2,30.6-37.7c0-3.9-10.4-19-2.4-44.4c10.8-34.2,35.6-71.8,28.5-87.2
			c-5.1-11.1-6.9-22.8-2.8-33c3.6-9,67.6-116.6,67.6-116.6c-10.5,20.1-62.6,117.2-64,126c-1.5,9.9,8.4,22.4,6.1,36.9
			c-2.3,14.5-23.3,59.3-29.1,71.1c-5.7,11.8-5,25.5-5,25.5l7.3,0.8l-4.2,8.4L37.5,608c0,0-4.6,6.8-5.4,11.4c-0.8,4.6,0,30.1,0,30.1
			h-5.4c0,0,2.7-28.2,0-28.5c-2.7-0.4-6.9,4.9-8.4,9.9c-1.5,4.9-3.1,19.4-3.1,19.4H-10C-10,650.3-8.4,646.5-10,646.1z"/>
	</g>
	<path class="st1" d="M139.6,118.1c0,0-1.1,2.2-8.7,2.2c-7.6,0-10.8-2.2-10.8-2.2l-10.8,18.4c0,0,5.4,4.3,16.3,4.3
		s18.4-6.5,18.4-6.5L139.6,118.1z"/>
	<g>
		<path class="st10" d="M115.8,78.8c-1.3-1.6,1-7.1,6.4-8.7c5.4-1.6,8.1,2,8.2,3.5c0.1,1.4-0.6,4-3.7,5.2c-3.1,1.3-5.6,0.9-7.1,0.7
			C117.8,79.3,116.5,79.7,115.8,78.8z"/>
		<circle class="st12" cx="122.2" cy="73.6" r="4.7"/>
		<circle class="st10" cx="124" cy="72.7" r="1.9"/>
		<path class="st12" d="M115.4,77.5c0,0-0.7-2.7,2.7-6.2c3.3-3.5,7.6-2.6,8.8-2.8c1.2-0.2,2.5,0.2,2.1,0.5c-0.4,0.3,0.7,1.3,1.6,1.1
			c0.9-0.2,0,0.8,0,1.1c0,0.3,1.6,0.2,1.8,0.6c0.1,0.3-0.9,1.1-0.7,1.2c0.3,0.1,1.2,0.8,0.7,1.1c-0.5,0.3-1.3,1.4-1.7,1.8
			c-0.4,0.4-1.4,0.8-1.4,0.8s1.2-2.2,0.5-3.8c-0.7-1.6-2.5-3.3-5.6-2.9c-3,0.3-5,1.7-6.3,2.9C116.7,74.2,115.4,77.5,115.4,77.5z"/>
		<path class="st12" d="M114.6,63.7c-0.9,2.2,3.2,1.7,5.7,0.7c2.5-1,5.8-1.4,8.6-1.3c2.8,0.1,6.4,1.7,6.4,1.7s-4.3-2.8-8.5-3.1
			c-4.2-0.3-8.8,0.3-10.2,0.6S115.1,62.5,114.6,63.7z"/>
	</g>
	<g>
		<path class="st10" d="M98.8,76.9c1.2-1.5-1-6.8-6.1-8.3c-5.1-1.5-7.7,1.9-7.8,3.3c-0.1,1.4,0.6,3.8,3.5,5c2.9,1.2,5.3,0.8,6.7,0.7
			C97,77.4,98.1,77.8,98.8,76.9z"/>
		<circle class="st12" cx="92.7" cy="72" r="4.4"/>
		<path class="st10" d="M96.2,71.1c0,1-0.8,1.8-1.8,1.8c-1,0-1.8-0.8-1.8-1.8c0-1,0.8-1.8,1.8-1.8C95.4,69.3,96.2,70.1,96.2,71.1z"
			/>
		<path class="st12" d="M99.1,75.7c0,0,0.6-2.6-2.6-5.9c-3.2-3.3-7.2-2.5-8.4-2.7c-1.1-0.2-2.3,0.2-2,0.5c0.4,0.3-0.7,1.2-1.6,1
			c-0.9-0.2,0,0.8,0,1.1c0,0.3-1.6,0.2-1.7,0.6c-0.1,0.3,0.9,1.1,0.7,1.1c-0.2,0.1-1.1,0.8-0.7,1c0.4,0.3,1.3,1.3,1.6,1.7
			c0.4,0.4,1.3,0.8,1.3,0.8s-1.1-2.1-0.5-3.6c0.7-1.5,2.4-3.1,5.3-2.8c2.9,0.3,4.7,1.6,6,2.8C98,72.5,99.1,75.7,99.1,75.7z"/>
		<path class="st12" d="M101.8,62.6c0.9,2.1-3.1,1.6-5.4,0.7c-2.4-0.9-5.5-1.3-8.2-1.2c-2.6,0.1-6.1,1.6-6.1,1.6s4.1-2.6,8.1-3
			c4-0.3,8.3,0.2,9.6,0.6S101.3,61.5,101.8,62.6z"/>
	</g>
	<g>
		<g>
			<path class="st13" d="M178.5,117.7c2-1.7,3-3.3,3.2-5.2c0.3-3.2-1.8-6.7-5.9-12.1c-5.6-7.4-5.7-10.5-6.2-27.5
				c0-1.2-0.1-2.4-0.1-3.7c-0.7-21.9-6.2-38.8-15.5-47.4c-6.2-5.7-13.2-6.9-18.1-6.9c-2.1,0-3.6,0.2-4.2,0.3
				c-1-0.9-5.3-4.6-13.3-4.6c-6.6,0-13.9,2.5-21.8,7.4C85,25.4,78,34.2,74.1,40.4c-4.2,6.7-6.9,13.9-7.3,19.3
				c-0.4,1.9-0.6,3.8-0.4,5.8c0.2,2.8,1.2,5.3,2.1,7.5c0.4,1,1,2,1.5,3c0.6,1.2,1.3,2.5,1.8,3.8c0.8,2.2-0.2,4.2-1.4,6.3
				c-0.4,0.6-0.7,1.2-1.1,1.8c-0.9,1.4-1.8,2.9-2.5,4.5c-1.9,4.4-2.4,9.5-1.6,15c0.2,2.7,1,5.2,2.5,7.4c2.7,4.1,6.8,7,10.7,9.6
				c0.3,0.2,0.6,0.4,1,0.6c3.3,2.2,6.5,4.2,8.3,8.2c0.5,1.1,1.2,3.1,0.7,5c-0.6,2-3.2,2.7-4.2,2.9c-3.3-1.3-6.3-4.3-6.4-4.4
				c-0.1-0.1-0.2-0.2-0.4-0.2c-0.1,0-0.2,0-0.3,0.1c-0.2,0.2-0.2,0.5-0.1,0.7c0.1,0.2,3.5,5.9,7.7,7c0.7,0.2,1.5,0.3,2.5,0.3
				c5.4,0,13.2-2.6,13.5-8.5c0.3-7.1-5.4-12.3-17.6-15.7c-4.6-1.3-7.6-3.8-9-7.6c-1.6-4.4-0.9-10.1,2-15.4c3.1-5.6,2.9-10,2.8-14.8
				c-0.1-2.6-0.1-5.2,0.3-8.3c1.2-8.5,8.9-15.7,23-21.4c10.7-4.3,17.1-10,19.5-12.5c5.2,2.3,6.9,6.5,8.9,11.4c1,2.4,2,4.9,3.5,7.3
				c2.8,4.5,6.3,7.2,8.7,8.7c2.2,6.7,0.3,12.8-1.9,19.9c-0.6,1.8-1.1,3.6-1.7,5.5c-0.8,2.8-1.1,5.3-1.1,7.4c-0.1,1.2-0.1,2.4,0,3.6
				c0.2,2.6,1,5.1,2.2,7.6c0.3,0.6,0.6,1.2,0.9,1.7c1.1,2,2.2,4,2.3,6.2c0.1,1.8-1.3,3.3-2.8,4.6c-0.3,0.3-0.6,0.5-0.8,0.8
				c-1.3,1.2-2.7,2.3-3.6,4c-1.3,2.5-1.9,5.4-1.6,8.7c0,1.2,0.1,2.6,0.4,4.1c1.3,7.1,5.9,8.2,8.5,8.2c1.5,0,2.6-0.3,2.6-0.3
				c0.3-0.1,0.4-0.4,0.4-0.6c0-0.3-0.3-0.5-0.5-0.5c0,0,0,0,0,0c0,0-0.1,0-0.1,0c-1.1,0-6.9-0.3-7.9-6.3c-0.7-3.8,3.7-6.5,7.9-9
				c2.9-1.7,5.6-3.4,6.5-5.4c1.8-4,0.5-7.2-1-9.8c-0.4-0.7-0.8-1.3-1.2-1.9c-0.7-1-1.3-1.9-1.8-3c-0.2-0.5-0.3-1-0.4-1.5
				c0.6,0.9,1.2,1.9,2,2.9c2,3.1,4,5.8,6.1,8.2c0.3,0.6,0.7,1.1,1,1.7c0.8,1.4,1.8,2.7,2.7,3.9c0.8,1.1,1.5,2.2,2.3,3.3
				c0.7,1.2,0.9,2.3,0.6,3.6c-0.2,0.6-0.5,1.3-0.8,1.9c-0.3,0.6-0.6,1.1-0.8,1.8c-0.6,2-0.5,4.1,0.3,6c0.9,1.9,2.4,3.5,4.4,4.2
				c0.8,0.3,1.7,0.5,2.5,0.5c3.8,0,6.7-3.2,9-5.8c0.2-0.2,0.2-0.5,0.1-0.8c-0.1-0.3-0.3-0.4-0.6-0.4c-0.1,0-0.3,0.1-0.4,0.2
				l-0.1,0.1c-1,0.9-2.1,1.8-3.3,2.7c-0.6,0-1.2,0.1-1.7,0.1c-4.2,0-4.8-1.1-4.8-1.4c-0.2-0.7,0.9-1.9,2.3-2.7
				c2.6-1.4,4.1-3.1,4.6-3.6c3.8-0.3,6.2-1.5,6.9-3.6c1.2-3.2-1.8-7.2-3.1-8.7c-1.6-1.9-2.5-3-2.5-3.8
				C174.7,121,176.1,119.8,178.5,117.7z M73,74.8L73,74.7c-0.1-0.1-0.1-0.3-0.2-0.4c0.8,1.1,1.6,2.3,2.5,3.7
				c0.9,1.5,0.6,3.3-0.4,5.3c0.2-0.8,0.3-1.5,0.3-2.4C75.1,78.7,74,76.6,73,74.8z"/>
			<path class="st14" d="M160.1,69.2V70C160.1,70,160.1,69.7,160.1,69.2z M143.2,23.6c15.8,15.8,16.8,40.8,16.9,45.5v-5.6
				C161.3,37.1,143.2,23.6,143.2,23.6z M81.9,47.8c13.5-17.5,43-30.9,43-30.9s-23,7.4-42.3,27.2c-1.3,1.4-2.5,2.7-3.6,3.9
				c4.9-7.2,13.6-16.8,28.2-25.4c0,0-26.2,13.3-34.3,33.9c-0.6,1-1.1,2-1.5,2.9c1.2-8.1,5.2-23.6,19.3-36.4
				C74.5,35.6,67.9,51.8,67.3,59.8c-0.4,1.8-0.6,3.7-0.4,5.6c0.2,2.6,1.1,5,2.1,7.3c0.1,0.3,0.3,0.6,0.4,0.9c0.3,0,0.6,0,0.6,0
				l3.8,3.6c-0.4-0.8-0.8-1.6-1.1-2.3c-0.9-1.8-1.8-3.6-2.5-5.5c1.1,1.7,2.3,3.3,3.8,5.4l1.6,1.5C75.4,76.3,68.4,65.3,81.9,47.8z
				 M163.8,49.5c-6.4-31.5-30.1-30.2-30.1-30.2c20.3,3.7,25.8,24.8,25.8,24.8l1.8,29.9C161.3,74,170.2,81,163.8,49.5z M130.4,44.5
				c-2.3-5.9-5.7-7.8-6.8-8.3c3.1-7.9,6.1-18.2,6.1-18.2C119.6,41.4,107.6,44.8,92,54.9c-5.9,3.8-9.1,7.3-10.8,10.1
				c0.8-3.8,3.7-11,13.9-20.2c15.3-13.8,30.1-23.5,30.1-23.5s-33,17.2-43.9,38.3c2.3-5.6,8-15.6,21.5-26.2c0,0-22.8,13.5-24.6,34.9
				c-0.5,3-0.6,5.9,0.1,8.9c0.1-0.9,0.1-1.9,0.3-2.9c1.2-8.7,9.2-16.1,23.3-21.8c10.9-4.4,17.3-10.3,19.6-12.7
				c8.4,3.4,8.4,11.7,13,19c2.1,3.4,4.6,5.7,6.7,7.2C132.8,58.5,133,51.2,130.4,44.5z M143.9,57c-1.2-3.6-2.7-6.9-4.3-9.5
				c-4.3-7-10.1-15.8-10.1-15.8s4.6,10.1,9.2,19.1c4.6,9.1,4.9,17.8,4.9,17.8l0,0.6c0.5,1.9,0.6,3.7,0.5,5.6c1.4-3,1.7-6.4,1.4-9.9
				l0.8,3.8c1.5-23.2-15.3-44-15.3-44C138,34.1,142.2,49.6,143.9,57z"/>
		</g>
	</g>
	<g>
		<path class="st0" d="M139.6,74.7c0,0,2.2-4.8,4.9-6c2.7-1.2,4.9,1.6,5.5,5.1c0.6,3.5-1.9,8.8-3.3,10.3c-1.3,1.5-5.6,2.8-7.1,2.7
			c-1.5-0.1-2.1,0.2-2.2-1.3C137.3,84,139.6,74.7,139.6,74.7z"/>
		<path class="st7" d="M139.7,82.3c0.4-5,1.9-9.1,3.6-10.7c1.6-1.6,3.6-0.4,4.3,1.4c0.7,1.8,0.1,4.5,0.1,4.5s-1.5-4.6-3-4
			C143.2,74.1,139.7,82.3,139.7,82.3z"/>
	</g>
</g>
</svg>
