<?xml version="1.0" encoding="utf-8"?>
<!-- Generator: Adobe Illustrator 24.3.0, SVG Export Plug-In . SVG Version: 6.00 Build 0)  -->
<svg version="1.1" id="Layer_1" xmlns="http://www.w3.org/2000/svg" xmlns:xlink="http://www.w3.org/1999/xlink" x="0px" y="0px"
	 viewBox="0 0 480 600" style="enable-background:new 0 0 480 600;" xml:space="preserve">
<style type="text/css">
	.st0{fill-rule:evenodd;clip-rule:evenodd;fill:#E1346B;}
	.st1{fill:#FFB476;}
	.st2{fill:#EBDDE5;}
	.st3{fill:#2D313D;}
	.st4{fill:#37373F;}
	.st5{fill:#3D3D5B;}
	.st6{fill:#323249;}
	.st7{fill:#F7E8F0;}
	.st8{fill:#E08344;}
	.st9{fill:#DBB4D1;}
	.st10{fill:#E9A76F;}
	.st11{fill:#D1652F;}
	.st12{fill:#4D4C56;}
	.st13{fill:#723C1E;}
	.st14{fill:#9EA8DD;}
	.st15{fill:#EDDFE7;}
	.st16{fill:#E5C3DA;}
	.st17{fill:#674399;}
	.st18{fill:#E97B59;}
	.st19{fill:#FFB781;}
	.st20{fill:#FFFFFF;}
	.st21{fill:#39170B;}
</style>
<g transform="matrix(0.948172,0,0,1.88724,-3.09674,-964.778)">
	<rect x="-8.4" y="506.6" class="st0" width="529.6" height="328.5"/>
</g>
<g>
	<g>
		<g>
			<g id="wrist_left_1_">
				<path class="st1" d="M113.1,699.3c0,0-7.3,5.2-13.1,14.7c-4.6,7.5-8.8,18.2-14.2,27.9c-3.1,5.7-5.7,9.6-5.4,10.5
					c0.6,1.4,6.6,1.6,12-6.7c5.4-8.3,13.4-16.4,13.4-16.4L113.1,699.3z"/>
				<path class="st1" d="M133.7,700.4c0,0,4.3,28.9-0.6,53.2c-4.9,24.3-10.5,30.2-13,29.6c-2.5-0.7-0.3-4.8,1.8-12.9
					c1.7-6.7,4.3-13.4,3.1-13.5c-1.2-0.1-5.6,13.5-6.2,15.9c-0.6,2.4-5.4,18.7-9.6,18.1c-3.9-0.6-0.4-12.2,1.6-18.5
					c0,0,4-15.8,2.8-15.8c-1.2,0-4.1,14.4-4.6,16.8c-0.6,2.4-4.2,20.1-8.1,20c-3.9-0.2-4.2-4.4-0.6-19.5c0,0,4.8-18.2,3.5-18.1
					c-3.4-0.3-5.6,31.6-11.6,31.5c-3.1,0-2-7.1-0.2-16.4c1.9-9.4,5.9-25.1,6.6-33.3c2.1-26.7,14.4-38,14.4-38
					S126.1,689.3,133.7,700.4z"/>
			</g>
		</g>
		<polygon class="st1" points="133.7,700.4 139.6,675 111.7,674.3 113,699.3 		"/>
	</g>
	<path class="st2" d="M148.2,314.2c-39,21.6-38.5,106.1-40.3,212.8c-1.7,106.7,3,164.1,3,164.1l27.2,2.3c0,0,19.2-45.5,29.6-147.3
		C178.1,444.2,148.2,314.2,148.2,314.2z"/>
	<path class="st3" d="M318.5,1269.9c0,0,1.2,14.4-19.4,23s-22.1,6.7-21,12.4c1.1,5.7,59.4,2.9,59.1-3.8c-0.2-6.7-4.2-16.3-3.8-31.6
		C333.8,1254.6,318.5,1269.9,318.5,1269.9z"/>
	<g>
		<path class="st3" d="M170.2,1274.6c0,0-7.9,12.4-26.4,19.9c-18.5,7.5-30.4,5.8-29.1,10.8c1.4,5,73.2,2.5,72.6-3.3
			c-0.6-5.8-4.8-14.1-5.4-27.3C181.4,1261.3,170.2,1274.6,170.2,1274.6z"/>
	</g>
	<path class="st4" d="M318.5,92.1c38.4,20.5-7.8,151.7-39.3,140.7C245.6,221,235.1,68.2,318.5,92.1z"/>
	<path class="st5" d="M350.9,586l-203.8,30.7c0,0,4.5,247.8,5.9,328.1c0.7,41.4,7.1,330.4,7.1,330.4h30.6c0,0,37.2-176.3,34.5-210.7
		c-2.7-34.4,6.8-119.7,6.8-119.7l11.4-189.6c0,0,19.2,77.3,34.5,204.5c10.3,85.4,21.4,193.4,29.9,315.5h34.8
		c0,0,28.3-169.3,26.8-207.2c-1.6-37.8-15.3-113.7-15.3-113.7l7.9-307.3L350.9,586z"/>
	<path class="st6" d="M233.3,1068c-2.6,77.6-42.6,207.2-42.6,207.2l-30.6,0c0,0-6.4-289-7.1-330.4c-1.2-69.9-7-253.6-6.2-304.6
		l75.1,6.4l0,92.4l21.6,16.2l-11.4,189.6C232.1,944.8,234.3,1038.7,233.3,1068z"/>
	<path class="st6" d="M146.8,663.9c0,0,0.2-29.4-0.2-53.3L364.1,628l-3,34.5C352.4,676.5,201.4,692.3,146.8,663.9z"/>
	<path class="st7" d="M363.7,633.4c7-9.2,12.4-188.5-2.6-319.8c0,0-37.4-23-117.9-21.2c-59.4,1.3-95,21.7-95,21.7
		c-19.9,53.5-6.9,115.6-3.8,194.5c2,52.6-2.7,120.4,2.5,126.8c2.5,3.1,50.8,11.5,101.2,11.5C302.8,647,360,638.2,363.7,633.4z"/>
	<path class="st8" d="M289.4,177.2c0,0-18.4,78.7-2.9,120.5c-24.7,9-72.7,21.1-80.8-1.5c0,0,3.9-12.9,1.4-48.2L289.4,177.2z"/>
	<path class="st9" d="M217.8,338.5l-14.9,24.1l-16.4-62.7c15.3-3.8,34.5-6.9,56.7-7.4c25.8-0.6,46.6,1.5,63.7,4.4l-52.8,66.3
		l-10.4-21.8l-12.4,19.1L217.8,338.5z"/>
	<path class="st10" d="M192.6,296.8c0,0,2.9,28.9,43.7,30.1c40.8,1.2,62.1-31,62.1-31S252.5,285.1,192.6,296.8z"/>
	<path class="st10" d="M285.5,197.6l-13.9-9.1l-60.5,7.6c1.3,17.9-3,81.8-3.7,89.4c7.8,8.8,25.5,24.4,60.3,36.3
		c22.2-9.2,32.5-26,32.5-26s-4.1-1.3-14.9-2.4C274.4,260.3,285.5,197.6,285.5,197.6z"/>
	<path class="st4" d="M171.3,168.1c1.2-45.3-34-62.9-20.4-83.7c24.3-37.1,173.9-58.7,174.2,11C325.2,136,171.3,168.1,171.3,168.1z"
		/>
	<path class="st1" d="M278.6,201.7c-5.9,40.1-8.5,39.1-44.6,64.4c-7.7,5.4-30.8,4.9-36.8,1.1c-6-3.7-6.1-9.8-13.7-23.8
		c-8.7-15.8-12.8-31.9-13.1-40.8c-0.4-11.8,1.1-19.8,1.1-28.2c-0.1-16.1-2.7-30.6-1.5-49c1.2-18.1,23.5-29.2,51.2-28
		C284.5,100.4,283.5,126.6,278.6,201.7z"/>
	<path class="st4" d="M281.9,111.6c0,0,13.5,28.2-15.7,15.2c0,0-9.3-27.2-55.8-27.6c-36-0.3-40.2,24.2-40.2,24.2
		S185.7,43,281.9,111.6z"/>
	<path class="st4" d="M286.5,172.2l-6.9,10.9l-10,0.7c0,0,7.5-51.7-18.6-74.1C251,109.6,297.3,95.9,286.5,172.2z"/>
	<g>
		<path class="st1" d="M275.7,189.1c0.5,9,8.4,15.8,17.6,15.1c9.2-0.7,16.1-8.5,15.6-17.5c-0.5-9-8.4-15.8-17.6-15.1
			C282.1,172.2,275.1,180.1,275.7,189.1z"/>
		<path class="st11" d="M289,196c4.3-0.5,7.4-4.4,6.9-8.6c-0.5-4.1-4.2-7-8.3-6.7c1.1-0.6,2.3-1.1,3.6-1.3c5.1-0.6,9.6,2.9,10.2,7.9
			s-3.1,9.5-8.1,10.2c-2.4,0.3-4.7-0.4-6.5-1.7C287.5,195.9,288.2,196.1,289,196z"/>
	</g>
	<path class="st4" d="M265.2,165.9c-2.6,2.3-8.1-6.2-18.4-13s-19.8-8.1-17.6-12.6c2.6-5.3,13.6-3.2,23.8,3.6
		C266.3,152.8,268.1,163.3,265.2,165.9z"/>
	<path class="st4" d="M172.6,156.2c2.1,2.6,6-1.8,13.8-6.5c7.8-4.7,15.7-6.1,13.8-10.7c-2.2-5.4-10.1-4.1-18,0.6
		C172.1,145.7,170.1,153.3,172.6,156.2z"/>
	<path class="st12" d="M282,130.7c-10.7-19.5,35.1-36.6,41.9-23.2C331.8,122.7,293.1,150.9,282,130.7z"/>
	<path class="st12" d="M316.6,87.9c0.7-40.7-97.3-43-102.9-23.3C203.6,99.8,316.2,109.5,316.6,87.9z"/>
	<g>
		<g>
			<g id="wrist_left_23_">
				<path class="st1" d="M293,717.8c0,0-8.5,2.7-17,10c-6.7,5.8-13.9,14.6-22,22.2c-4.7,4.4-8.4,7.4-8.3,8.3
					c0.1,1.5,5.8,3.5,13.5-2.7c7.6-6.2,17.8-11.6,17.8-11.6L293,717.8z"/>
				<path class="st1" d="M312.3,725.1c0,0-4.7,28.8-16.7,50.5c-12,21.7-19.2,25.6-21.4,24.2c-2.2-1.4,1.2-4.7,5.6-11.8
					c3.7-5.8,8.1-11.5,7-11.9c-1.1-0.5-9.4,11.2-10.7,13.3c-1.3,2.1-10.9,16.2-14.6,14.4c-3.6-1.7,3.3-11.7,7.1-17.2
					c0,0,8.7-13.8,7.5-14.2c-1.2-0.4-8.2,12.4-9.5,14.6c-1.3,2.1-10.1,17.9-13.8,16.6c-3.6-1.3-2.6-5.5,5.4-18.8
					c0,0,10.1-15.9,8.9-16.1c-3.2-1.4-14.9,28.4-20.6,26.4c-2.9-1,0.3-7.4,4.8-15.7c4.6-8.4,13.3-22.1,16.4-29.7
					c10.1-24.8,25.3-31.8,25.3-31.8S308.5,712.3,312.3,725.1z"/>
			</g>
		</g>
		<polygon class="st1" points="312.3,725.1 325.7,702.7 299.3,693.6 293,717.8 		"/>
	</g>
	<g>
		<path class="st13" d="M146.3,641.1l0,16.5c90.8,25.7,199.2,3.3,217.1-0.8l-0.3-15.7C225.1,667.7,146.3,641.1,146.3,641.1z"/>
		<polygon class="st6" points="155.1,640.6 168.8,643.2 168.8,667.7 155.1,667.7 		"/>
		<polygon class="st6" points="197.5,647 211.2,649.5 211.2,674.1 197.5,674.1 		"/>
		<polygon class="st6" points="274.2,648.3 287.9,648.8 287.9,675.4 274.2,675.4 		"/>
		<polygon class="st6" points="332.1,641.9 345.8,642.3 345.8,665.2 332.1,665.2 		"/>
		<rect x="223.2" y="649.9" class="st14" width="40.3" height="23.7"/>
		<rect x="227.5" y="654.2" class="st13" width="31.7" height="15.2"/>
	</g>
	<path class="st15" d="M358.3,309.9c-31.5-5.2-31.5,67.9-31.8,136c-0.3,64.8-2.7,126.5,26.2,130.8
		C419.5,586.5,409.2,318.3,358.3,309.9z"/>
	<polygon class="st16" points="222.9,307.6 231.5,326.9 238.9,307.6 247.3,327.5 231.3,342.1 213.8,327.5 	"/>
	<g>
		<path class="st17" d="M236.9,355.6c0,0,18.1,103.4,17.2,203.3l-25.6,42L203,559.7c8-78.8,22.5-204.2,22.5-204.2H236.9z"/>
		<polygon class="st17" points="224.7,330.2 211.1,319.3 204.6,330.2 218.4,344.4 223.1,338.3 		"/>
		<polygon class="st17" points="238.8,330.2 252.3,320.6 257.5,329.9 245,344.4 237.7,339.5 		"/>
		<path class="st17" d="M238.8,330.2c0,0-14,0-14.1,0c-0.1,0-6.3,14.3-6.3,14.3l5.6,17.3l12.3,0.3l8.6-17.6L238.8,330.2z"/>
	</g>
	<polygon class="st7" points="223,307.6 204.7,349.1 191.9,296.8 206.2,279 	"/>
	<polygon class="st7" points="238.9,307.6 256.6,349.1 302.5,295.4 284.2,270.8 	"/>
	<path class="st15" d="M396.4,502.6c12.2,77.2-77.7,216.8-77.7,216.8l-25.5-10.1c0,0,46.3-119.3,36.1-205.2L396.4,502.6z"/>
	<g>
		<path class="st18" d="M215.7,160.3c-5.2,18.3-12.4,42.5-12.4,46c0,3.5,15.7,7.7,18.5,6.6c2.8-1.2-3.3-52.6-3.3-52.6H215.7z"/>
		<path class="st19" d="M218.5,158.6c-5.2,18.3-12.4,42.5-12.4,46c0,3.5,15.7,7.7,18.5,6.6c2.8-1.2-3.3-52.6-3.3-52.6H218.5z"/>
	</g>
	<g>
		<path class="st20" d="M202.4,176.5c0.2-7-0.9-15.3-11.6-18.1c-10.9-2.8-15.9,6.8-15.8,10.3c0.1,3.5,3.1,8.7,9.1,9.4
			c6,0.6,11.3,0.1,13.5,0.4C199.8,178.9,202.3,178,202.4,176.5z"/>
		<ellipse class="st21" cx="189.7" cy="168.1" rx="9" ry="8.9"/>
		<path class="st20" d="M190.2,170.7c-0.1,2.2-2,4-4.2,3.9s-4-1.9-3.9-4.1s2-4,4.2-3.9C188.5,166.5,190.4,168.3,190.2,170.7z"/>
		<path class="st20" d="M230.3,177.4c0.3-7,1.8-15.2,12.8-17.4c11-2.2,15.5,7.7,15,11.3c-0.5,3.6-3.7,8.5-9.7,8.8
			c-6,0.3-11.3-0.7-13.5-0.4C232.8,179.8,230.2,178.8,230.3,177.4z"/>
		<path class="st21" d="M235,168.9c-0.1,4.9,3.7,9,8.7,9.1c5,0.1,9.1-3.6,9.2-8.6c0.1-4.9-3.7-9-8.7-9.1
			C239.2,160.1,235.2,164,235,168.9z"/>
		<path class="st20" d="M236.2,171.4c-0.1,2.2,1.7,4.1,3.9,4.1c2.2,0.1,4.2-1.7,4.2-3.9c0.1-2.2-1.7-4.1-3.9-4.1
			C238.2,167.4,236.3,169.2,236.2,171.4z"/>
	</g>
	<g>
		<path class="st18" d="M233.7,242.2l0.9-3.1c-7.5-8-22.1-8.5-46-1.4l0.4,1.3C211.9,232.2,226.9,235,233.7,242.2z"/>
	</g>
	<path class="st18" d="M223.7,249.4c0.2,1.1-3.3,3.7-8.4,4.1c-5.1,0.4-10-1.4-10.2-2.5c-0.2-1.1,4.8-0.3,10-0.7
		C220.2,249.8,223.5,248.3,223.7,249.4z"/>
</g>
</svg>
