<?xml version="1.0" encoding="utf-8"?>
<!-- Generator: Adobe Illustrator 24.3.0, SVG Export Plug-In . SVG Version: 6.00 Build 0)  -->
<svg version="1.1" id="Layer_1" xmlns="http://www.w3.org/2000/svg" xmlns:xlink="http://www.w3.org/1999/xlink" x="0px" y="0px"
	 viewBox="0 0 480 600" style="enable-background:new 0 0 480 600;" xml:space="preserve">
<style type="text/css">
	.st0{fill:#F9B058;}
	.st1{opacity:0.3;}
	.st2{fill:#FFFFFF;}
	.st3{fill:none;stroke:#CCCCCC;stroke-width:4.7792;stroke-miterlimit:10;}
	.st4{fill:none;stroke:#808080;stroke-width:4;stroke-miterlimit:10;}
	.st5{fill:none;stroke:#808080;stroke-width:4;stroke-miterlimit:10;stroke-dasharray:7.2222,7.2222;}
	.st6{fill:#069D48;}
	.st7{fill-rule:evenodd;clip-rule:evenodd;fill:#BE272D;}
	.st8{fill-rule:evenodd;clip-rule:evenodd;fill:#069D48;}
</style>
<g>
	<rect id="table_3_" x="-27.2" y="-24.5" class="st0" width="548" height="632.3"/>
	<g id="XMLID_186_" class="st1">
	</g>
</g>
<g>
	<g>
		
			<rect x="69.8" y="42.6" transform="matrix(0.9834 -0.1817 0.1817 0.9834 -43.7395 47.3878)" class="st2" width="334" height="439.7"/>
		<line class="st3" x1="298.7" y1="409.5" x2="395.8" y2="391.6"/>
		
			<rect x="264.6" y="101.6" transform="matrix(0.9825 -0.1865 0.1865 0.9825 -15.3449 58.103)" class="st4" width="73" height="18"/>
		<g>
			<g>
				<polyline class="st4" points="347.9,161.7 348.7,165.6 344.7,166.4 				"/>
				<line class="st5" x1="337.6" y1="167.7" x2="284.4" y2="177.8"/>
				<polyline class="st4" points="280.9,178.5 276.9,179.3 276.2,175.3 				"/>
				<polyline class="st4" points="274.3,165.5 273.6,161.6 277.5,160.8 				"/>
				<line class="st5" x1="284.6" y1="159.5" x2="337.8" y2="149.4"/>
				<polyline class="st4" points="341.4,148.7 345.3,148 346.1,151.9 				"/>
			</g>
		</g>
		<g>
			<g>
				<polyline class="st4" points="356.9,209.7 357.7,213.6 353.7,214.4 				"/>
				<line class="st5" x1="346.6" y1="215.7" x2="293.4" y2="225.8"/>
				<polyline class="st4" points="289.9,226.5 285.9,227.3 285.2,223.3 				"/>
				<polyline class="st4" points="283.3,213.5 282.6,209.6 286.5,208.8 				"/>
				<line class="st5" x1="293.6" y1="207.5" x2="346.8" y2="197.4"/>
				<polyline class="st4" points="350.4,196.7 354.3,196 355.1,199.9 				"/>
			</g>
		</g>
		<g>
			<g>
				<polyline class="st4" points="367.9,264.7 368.7,268.6 364.7,269.4 				"/>
				<line class="st5" x1="357.6" y1="270.7" x2="304.4" y2="280.8"/>
				<polyline class="st4" points="300.9,281.5 296.9,282.3 296.2,278.3 				"/>
				<polyline class="st4" points="294.3,268.5 293.6,264.6 297.5,263.8 				"/>
				<line class="st5" x1="304.6" y1="262.5" x2="357.8" y2="252.4"/>
				<polyline class="st4" points="361.4,251.7 365.3,251 366.1,254.9 				"/>
			</g>
		</g>
		<g>
			<g>
				<polyline class="st4" points="377.9,317.7 378.7,321.6 374.7,322.4 				"/>
				<line class="st5" x1="367.6" y1="323.7" x2="314.4" y2="333.8"/>
				<polyline class="st4" points="310.9,334.5 306.9,335.3 306.2,331.3 				"/>
				<polyline class="st4" points="304.3,321.5 303.6,317.6 307.5,316.8 				"/>
				<line class="st5" x1="314.6" y1="315.5" x2="367.8" y2="305.4"/>
				<polyline class="st4" points="371.4,304.7 375.3,304 376.1,307.9 				"/>
			</g>
		</g>
		<polygon class="st6" points="450.7,405.9 97.2,476.4 89.9,423.8 440.2,356.4 		"/>
		<g>
			<path class="st2" d="M201.8,437.8l-3.6,0.7c-0.4,0.1-0.6-0.2-0.6-0.7l1.8-23.5c0.1-0.6,0.4-0.9,1-1l5-0.9c0.6-0.1,1,0.1,1.3,0.6
				l10,21.3c0.2,0.5,0.1,0.8-0.3,0.9l-3.6,0.7c-0.3,0.1-0.5,0-0.6-0.1c-0.1-0.1-0.2-0.3-0.3-0.6l-1.8-3.9l-7.3,1.3l-0.3,4.3
				c0,0.3,0,0.5-0.1,0.7C202.2,437.7,202.1,437.8,201.8,437.8z M203.6,417.4l-0.7,11.3l5.5-1l-4.7-10.3L203.6,417.4z"/>
			<path class="st2" d="M224.6,438.9l-3.2,0.6c-0.5,0.1-0.8-0.1-0.9-0.6l-4.2-22.5c-0.1-0.5,0.1-0.8,0.6-0.9l3.2-0.6
				c0.5-0.1,0.8,0.1,0.9,0.6l0.2,1.2l0.1,0c0.1-0.7,0.5-1.3,1.2-1.8c0.6-0.5,1.3-0.8,2.1-0.9l1.5-0.3c1.9-0.4,3.5-0.1,4.6,0.8
				c1.2,0.9,1.9,2.3,2.3,4.2l1.3,6.9c0.4,2,0.1,3.6-0.6,4.8c-0.8,1.2-2.1,2-4.1,2.4l-1.5,0.3c-0.8,0.1-1.5,0.1-2.3-0.1
				c-0.8-0.2-1.3-0.6-1.7-1.2l-0.1,0l1.2,6.3C225.3,438.5,225.1,438.8,224.6,438.9z M226.2,429.1l1.6-0.3c0.8-0.1,1.3-0.4,1.6-0.8
				s0.3-1,0.2-1.8l-1.2-6.4c-0.1-0.8-0.4-1.3-0.8-1.6c-0.4-0.3-1-0.3-1.8-0.2l-1.6,0.3c-1.7,0.3-2.4,1.4-2,3.3l0.9,5.1
				C223.5,428.6,224.5,429.4,226.2,429.1z"/>
			<path class="st2" d="M243.2,430.2l-3.2,0.6c-0.5,0.1-0.8-0.1-0.9-0.6l-3.2-17.4c-0.1-0.5,0.1-0.8,0.6-0.9l3.2-0.6
				c0.5-0.1,0.8,0.1,0.9,0.6l0.2,1.3l0.1,0c0.1-0.7,0.5-1.3,1.2-1.8c0.6-0.5,1.3-0.8,2.1-0.9l1.3-0.2c0.5-0.1,0.8,0.1,0.9,0.6
				l0.5,2.6c0.1,0.3,0,0.5-0.1,0.6s-0.3,0.2-0.6,0.2l-2.6,0.5c-1.7,0.3-2.4,1.4-2,3.4l2.1,11.2C244,429.8,243.8,430.1,243.2,430.2z"
				/>
			<path class="st2" d="M261.4,426.8l-3.3,0.6c-2,0.4-3.6,0.1-4.8-0.7c-1.3-0.8-2.1-2.2-2.4-4.2l-1.3-6.9c-0.4-2-0.1-3.6,0.8-4.8
				s2.3-2,4.3-2.4l3.3-0.6c1.9-0.4,3.5-0.1,4.8,0.7s2.1,2.3,2.5,4.2l1.3,6.9c0.4,1.9,0.1,3.5-0.8,4.8
				C264.7,425.7,263.3,426.5,261.4,426.8z M258,423.2l1.9-0.4c0.8-0.1,1.3-0.4,1.6-0.8c0.3-0.4,0.3-1,0.2-1.8l-1.2-6.6
				c-0.1-0.8-0.4-1.3-0.8-1.6c-0.4-0.3-1-0.3-1.8-0.2l-1.9,0.4c-0.8,0.1-1.3,0.4-1.6,0.8c-0.3,0.4-0.3,1-0.2,1.8l1.2,6.6
				c0.1,0.8,0.4,1.3,0.8,1.6C256.6,423.3,257.2,423.4,258,423.2z"/>
			<path class="st2" d="M271.1,424.2l-4.5-24.6c-0.1-0.5,0.1-0.8,0.6-0.9l3.2-0.6c0.5-0.1,0.8,0.1,0.9,0.6l1.5,8.4l0.1,0
				c0.1-0.7,0.5-1.3,1.2-1.8s1.3-0.8,2.1-0.9l1.2-0.2c2-0.4,3.6-0.1,4.8,0.7c1.3,0.8,2.1,2.2,2.4,4.2l1.3,6.9c0.4,2,0.1,3.6-0.8,4.8
				c-0.9,1.2-2.3,2-4.3,2.4l-8.9,1.7C271.5,425,271.2,424.7,271.1,424.2z M275.6,420l3.8-0.7c0.8-0.1,1.3-0.4,1.6-0.8
				c0.3-0.4,0.3-1,0.2-1.8l-1.2-6.5c-0.1-0.8-0.4-1.3-0.8-1.6s-1-0.3-1.8-0.2l-1.6,0.3c-1.7,0.3-2.4,1.4-2,3.3l1.4,7.6
				C275.2,419.9,275.4,420,275.6,420z"/>
			<path class="st2" d="M297.5,420.1l-0.9,0.2c-2,0.4-3.6,0.1-4.8-0.7c-1.3-0.8-2.1-2.2-2.4-4.2l-1.3-6.9c-0.4-2-0.1-3.6,0.8-4.8
				c0.9-1.2,2.3-2,4.3-2.4l8.6-1.6c0.5-0.1,0.9,0.1,1,0.6l3.2,17.4c0.1,0.5-0.1,0.8-0.7,0.9l-3.1,0.6c-0.5,0.1-0.8-0.1-0.9-0.6
				l-0.2-1.2l-0.1,0c-0.1,0.7-0.5,1.3-1.2,1.8C299,419.7,298.3,420,297.5,420.1z M300,412.5l-1.4-7.6c-0.1-0.3-0.2-0.4-0.5-0.3
				l-3.5,0.6c-0.8,0.1-1.3,0.4-1.6,0.8c-0.3,0.4-0.3,1-0.2,1.8l1.2,6.4c0.1,0.8,0.4,1.3,0.8,1.6c0.4,0.3,1,0.3,1.8,0.2l1.4-0.3
				C299.7,415.5,300.4,414.4,300,412.5z"/>
			<path class="st2" d="M317.1,416.5l-1.5,0.3c-1.9,0.4-3.5,0.1-4.6-0.8c-1.2-0.9-1.9-2.3-2.3-4.2l-1.3-6.9c-0.4-2-0.1-3.6,0.6-4.8
				c0.8-1.2,2.1-2,4.1-2.4l1.5-0.3c0.8-0.1,1.5-0.1,2.3,0.1s1.3,0.6,1.7,1.2l0.1,0l-1.6-8.4c-0.1-0.5,0.1-0.8,0.6-0.9l3.2-0.6
				c0.5-0.1,0.8,0.1,0.9,0.6l4.5,24.6c0.1,0.5-0.1,0.8-0.6,0.9l-3.2,0.6c-0.5,0.1-0.8-0.1-0.9-0.6l-0.2-1.2l-0.1,0
				c-0.1,0.7-0.5,1.3-1.2,1.8C318.6,416.1,317.9,416.4,317.1,416.5z M319.6,408.9l-0.9-5.1c-0.3-1.9-1.4-2.7-3.1-2.4l-1.7,0.3
				c-0.8,0.1-1.3,0.4-1.6,0.8c-0.3,0.4-0.3,1-0.2,1.8l1.2,6.4c0.1,0.8,0.4,1.3,0.8,1.6c0.4,0.3,1,0.3,1.8,0.2l1.7-0.3
				C319.3,411.9,320,410.8,319.6,408.9z"/>
			<path class="st2" d="M338.8,412.5l-3.3,0.6c-2,0.4-3.6,0.1-4.8-0.7c-1.3-0.8-2.1-2.2-2.4-4.2l-1.3-6.9c-0.4-2-0.1-3.6,0.8-4.8
				c0.9-1.2,2.3-2,4.3-2.4l3.3-0.6c1.9-0.4,3.5-0.1,4.8,0.7c1.3,0.9,2.1,2.3,2.5,4.2l1.3,6.9c0.4,1.9,0.1,3.5-0.8,4.8
				C342.2,411.3,340.8,412.2,338.8,412.5z M335.5,408.9l1.9-0.3c0.8-0.1,1.3-0.4,1.6-0.8s0.3-1,0.2-1.8l-1.2-6.6
				c-0.1-0.8-0.4-1.3-0.8-1.6c-0.4-0.3-1-0.3-1.8-0.2l-1.9,0.4c-0.8,0.1-1.3,0.4-1.6,0.8c-0.3,0.4-0.3,1-0.2,1.8l1.2,6.6
				c0.1,0.8,0.4,1.3,0.8,1.6C334.1,409,334.7,409.1,335.5,408.9z"/>
		</g>
		<g>
			<line class="st4" x1="83.6" y1="160.3" x2="248" y2="130"/>
			<line class="st4" x1="93.9" y1="139.8" x2="244.6" y2="111.9"/>
			<g>
				<g>
					<polygon class="st7" points="88,139.4 86.3,137.8 80.1,144.2 81.7,145.7 					"/>
					<polygon class="st7" points="86.2,145.8 87.9,144.2 81.7,137.7 80.1,139.3 					"/>
				</g>
				<g>
					<polygon class="st7" points="88.4,143.2 88.5,140.9 79.6,140.4 79.5,142.6 					"/>
					<polygon class="st7" points="82.4,146.1 84.8,146.3 85.6,137.4 83.3,137.2 					"/>
				</g>
			</g>
		</g>
		<g>
			<line class="st4" x1="92.6" y1="212.3" x2="257" y2="182"/>
			<line class="st4" x1="102.9" y1="191.8" x2="253.6" y2="163.9"/>
			<g>
				<g>
					<polygon class="st7" points="97,191.4 95.3,189.8 89.1,196.2 90.7,197.7 					"/>
					<polygon class="st7" points="95.2,197.8 96.9,196.2 90.7,189.7 89.1,191.3 					"/>
				</g>
				<g>
					<polygon class="st7" points="97.4,195.2 97.5,192.9 88.6,192.4 88.5,194.6 					"/>
					<polygon class="st7" points="91.4,198.1 93.8,198.3 94.6,189.4 92.3,189.2 					"/>
				</g>
			</g>
		</g>
		<g>
			<line class="st4" x1="103.6" y1="261.3" x2="268" y2="231"/>
			<line class="st4" x1="113.9" y1="240.8" x2="264.6" y2="212.9"/>
			<g>
				<g>
					<polygon class="st7" points="108,240.4 106.3,238.8 100.1,245.2 101.7,246.7 					"/>
					<polygon class="st7" points="106.2,246.8 107.9,245.2 101.7,238.7 100.1,240.3 					"/>
				</g>
				<g>
					<polygon class="st7" points="108.4,244.2 108.5,241.9 99.6,241.4 99.5,243.6 					"/>
					<polygon class="st7" points="102.4,247.1 104.8,247.3 105.6,238.4 103.3,238.2 					"/>
				</g>
			</g>
		</g>
		<g>
			<line class="st4" x1="115.6" y1="316.3" x2="280" y2="286"/>
			<line class="st4" x1="125.9" y1="295.8" x2="276.6" y2="267.9"/>
			<g>
				<g>
					<polygon class="st7" points="120,295.4 118.3,293.8 112.1,300.2 113.7,301.7 					"/>
					<polygon class="st7" points="118.2,301.8 119.9,300.2 113.7,293.7 112.1,295.3 					"/>
				</g>
				<g>
					<polygon class="st7" points="120.4,299.2 120.5,296.9 111.6,296.4 111.5,298.6 					"/>
					<polygon class="st7" points="114.4,302.1 116.8,302.3 117.6,293.4 115.3,293.2 					"/>
				</g>
			</g>
		</g>
		<g>
			<line class="st4" x1="124.6" y1="369.3" x2="289" y2="339"/>
			<line class="st4" x1="134.9" y1="348.8" x2="285.6" y2="320.9"/>
			<g>
				<g>
					<polygon class="st7" points="129,348.4 127.3,346.8 121.1,353.2 122.7,354.7 					"/>
					<polygon class="st7" points="127.2,354.8 128.9,353.2 122.7,346.7 121.1,348.3 					"/>
				</g>
				<g>
					<polygon class="st7" points="129.4,352.2 129.5,349.9 120.6,349.4 120.5,351.6 					"/>
					<polygon class="st7" points="123.4,355.1 125.8,355.3 126.6,346.4 124.3,346.2 					"/>
				</g>
			</g>
		</g>
		<polygon class="st8" points="334.3,79.1 320,71.7 296.6,118.1 282,110.6 274.9,124.4 303.2,138.8 		"/>
	</g>
</g>
</svg>
