<?xml version="1.0" encoding="utf-8"?>
<!-- Generator: Adobe Illustrator 25.0.0, SVG Export Plug-In . SVG Version: 6.00 Build 0)  -->
<svg version="1.1" id="Layer_1" xmlns="http://www.w3.org/2000/svg" xmlns:xlink="http://www.w3.org/1999/xlink" x="0px" y="0px"
	 viewBox="0 0 480 600" style="enable-background:new 0 0 480 600;" xml:space="preserve">
<style type="text/css">
	.st0{opacity:0.5;fill:#BC5642;enable-background:new    ;}
	.st1{fill:#FFFAE3;}
	.st2{fill:#72CDD6;}
	.st3{fill:#B9EFFC;}
	.st4{fill:#9EE4EF;}
	.st5{opacity:0.3;fill:#A5FFE8;enable-background:new    ;}
	.st6{fill:#AA5B2D;}
	.st7{fill:#9E4E21;}
	.st8{fill:#C47C42;}
	.st9{fill:#A85425;}
	.st10{fill:#99451F;}
	.st11{fill:#AF5F2C;}
	.st12{fill:#D38B51;}
	.st13{fill:#B76334;}
	.st14{fill:#F49F44;}
	.st15{fill:#333333;}
	.st16{fill:#FFFFFF;}
	.st17{fill:#B2B2B2;}
	.st18{fill:url(#SVGID_1_);}
	.st19{opacity:0.5;fill:#808080;enable-background:new    ;}
	.st20{fill:#B6B8BA;}
	.st21{fill:#666666;}
	.st22{fill:#4D4D4D;}
	.st23{opacity:0.93;fill:url(#SVGID_2_);enable-background:new    ;}
	.st24{clip-path:url(#SVGID_4_);}
	.st25{fill:#424242;}
	.st26{fill:#FAFAFA;}
	.st27{fill:#FBCBBD;}
	.st28{fill:#F8AA92;}
	.st29{fill:#EF5350;}
	.st30{fill:#EEEEEE;}
	.st31{clip-path:url(#SVGID_6_);}
	.st32{clip-path:url(#SVGID_8_);}
	.st33{clip-path:url(#SVGID_10_);}
	.st34{fill:#2176BB;}
	.st35{fill:#B92500;}
	.st36{enable-background:new    ;}
	.st37{fill:none;stroke:#808080;stroke-width:4.3147;stroke-miterlimit:10;}
	.st38{fill:#419B19;}
	.st39{fill:#3A7F1C;}
	.st40{fill:#8BCB0A;}
	.st41{fill:#069D48;}
</style>
<g>
	<g>
		<rect x="-58" y="1.6" class="st0" width="669.2" height="547.7"/>
		<rect x="-60.5" y="-5.8" class="st1" width="667.2" height="536.1"/>
		<rect x="-50.2" y="9.4" class="st2" width="646.7" height="505.8"/>
		<rect x="-42.5" y="18" class="st3" width="631.2" height="488.6"/>
		<rect x="-35.7" y="25.5" class="st4" width="617.5" height="473.4"/>
	</g>
	<polygon class="st5" points="-31.2,500.8 323.3,26.8 505,26.5 280.2,500.8 	"/>
	<rect x="-46.4" y="10.8" class="st0" width="640" height="17"/>
</g>
<rect x="-89.8" y="484.3" class="st6" width="620" height="167"/>
<g>
	<g id="table_10_">
		<rect x="422.4" y="448.9" class="st7" width="211.8" height="396.4"/>
		<rect x="-125.1" y="448.9" class="st8" width="229.4" height="396.4"/>
		<rect x="-125.1" y="447.5" class="st8" width="16.9" height="467.4"/>
		<rect x="84.5" y="447.5" class="st8" width="10.1" height="467.4"/>
		<rect x="94.5" y="447.5" class="st9" width="10.1" height="467.4"/>
		<rect x="414" y="447.5" class="st7" width="16.9" height="467.4"/>
		<rect x="617.3" y="447.5" class="st9" width="16.9" height="467.4"/>
		<rect x="94.5" y="448.9" class="st9" width="539.7" height="49.3"/>
		<rect x="94.5" y="447.6" class="st10" width="539.7" height="29.8"/>
		<rect x="-125.1" y="448.9" class="st11" width="219.6" height="28.5"/>
		<rect x="-155.3" y="431.9" class="st12" width="256.1" height="32.3"/>
		<rect x="94.2" y="431.9" class="st13" width="574" height="32.3"/>
		<rect x="-155.3" y="431.9" class="st14" width="823.5" height="6.7"/>
	</g>
</g>
<g>
	<g>
		<g>
			<polygon points="74.4,359.9 27.5,108.5 465.2,111.2 416.1,355 			"/>
			<polygon class="st15" points="70.2,336.9 418.9,341.3 416.1,355 74.4,359.9 			"/>
			<polygon class="st15" points="74.4,359.9 59,359.9 8.1,116.1 27.5,108.5 			"/>
			<polygon class="st16" points="86.1,321.9 56.3,126.5 442.9,126.5 404.1,327.4 			"/>
			<polygon class="st17" points="79.8,341.1 412.4,345.1 417.4,348.6 82.7,353.8 			"/>
			
				<linearGradient id="SVGID_1_" gradientUnits="userSpaceOnUse" x1="32.7" y1="388.45" x2="273.5" y2="388.45" gradientTransform="matrix(1 0 0 -1 0 602)">
				<stop  offset="0" style="stop-color:#8A7500"/>
				<stop  offset="1" style="stop-color:#000000"/>
			</linearGradient>
			<polygon class="st18" points="70.2,315.6 32.7,111.5 273.5,116.1 48.4,122.1 			"/>
			<polygon class="st19" points="266.9,353.8 299.2,341.1 410.5,343.6 398.2,352.1 			"/>
			<polygon class="st20" points="74.4,126.5 433.8,132.3 397.3,327.3 404.1,327.4 442.9,126.5 			"/>
		</g>
		<polygon class="st21" points="200.6,353.8 164.4,435.9 258.7,435.9 246.3,353.8 		"/>
		<polygon class="st15" points="190.2,377.3 207.6,387 202.3,435.9 164.4,435.9 		"/>
		<polygon class="st22" points="117,435.9 103.1,415.1 450.7,415.1 442.9,435.9 		"/>
		<polygon class="st15" points="32.7,435.9 27.5,419.3 103.1,415.1 117,435.9 		"/>
	</g>
	<g>
		
			<radialGradient id="SVGID_2_" cx="388.4" cy="75.6047" r="29.994" gradientTransform="matrix(1 0 0 -0.398 0 377.5259)" gradientUnits="userSpaceOnUse">
			<stop  offset="0" style="stop-color:#8A7500"/>
			<stop  offset="1" style="stop-color:#000000"/>
		</radialGradient>
		<ellipse class="st23" cx="388.4" cy="347.4" rx="30" ry="11.9"/>
		<polygon class="st16" points="377.1,349.8 376.7,345.1 397.5,345.1 396.5,349.8 		"/>
	</g>
</g>
<g>
	<g>
		<defs>
			<circle id="SVGID_3_" cx="131.1" cy="196.5" r="18.9"/>
		</defs>
		<clipPath id="SVGID_4_">
			<use xlink:href="#SVGID_3_"  style="overflow:visible;"/>
		</clipPath>
		<g class="st24">
			<path class="st25" d="M134,207.4h-5.8c-3.3,0-6,2.7-6,6v2.9H140v-2.9C140,210.1,137.3,207.4,134,207.4z"/>
			<polygon class="st26" points="132.4,216.4 129.8,216.4 127.9,207.4 134.2,207.4 			"/>
			<path class="st25" d="M121.2,195c0,0.3,0,0.6,0,0.9h19.7c0-0.3,0-0.6,0-0.9c4.5-14.3-5.6-12.6-5.6-12.6s-10.2-3.7-14.2,3.3
				c-1.4,2.4-1.1,5.1,0,7.7v1.6H121.2z"/>
			<rect x="128.8" y="203.2" class="st27" width="4.6" height="5.5"/>
			<path class="st28" d="M128.8,206.7c0.7,0.2,1.5,0.3,2.3,0.3l0,0c0.8,0,1.6-0.1,2.3-0.3v-3.4h-4.6V206.7z"/>
			<path class="st27" d="M138.2,195c0,1.2,0.9,2.1,2.1,2.1c1.2,0,2.1-0.9,2.1-2.1c0-1.2-0.9-2.1-2.1-2.1
				C139.1,192.9,138.2,193.9,138.2,195z"/>
			<path class="st28" d="M139.1,195c0,0.7,0.5,1.2,1.2,1.2s1.2-0.5,1.2-1.2s-0.5-1.2-1.2-1.2C139.6,193.9,139.1,194.4,139.1,195z"/>
			<path class="st27" d="M124,195c0,1.2-0.9,2.1-2.1,2.1s-2.1-0.9-2.1-2.1c0-1.2,0.9-2.1,2.1-2.1S124,193.9,124,195z"/>
			<path class="st28" d="M123.1,195c0,0.7-0.5,1.2-1.2,1.2s-1.2-0.5-1.2-1.2s0.5-1.2,1.2-1.2C122.6,193.9,123.1,194.4,123.1,195z"/>
			<path class="st27" d="M131.1,184.1L131.1,184.1c-5.1,0-9.2,4.1-9.2,9.2v3.5c0,5.1,4.1,9.2,9.2,9.2l0,0c5.1,0,9.2-4.1,9.2-9.2
				v-3.5C140.3,188.2,136.2,184.1,131.1,184.1z"/>
			<path class="st25" d="M132.9,184.1h-3.6c-4.1,0-7.4,3.3-7.4,7.4v0.2h0.9c0,0,10.6-0.2,12.6-4.2c0,0,1.1,3.2,3.9,4.2h0.9v-0.2
				C140.3,187.4,137,184.1,132.9,184.1z"/>
			<polygon class="st29" points="131.1,208.6 131.1,208.6 130.5,209.8 130.9,210.7 131.2,210.7 131.7,209.8 			"/>
			<polygon class="st30" points="134.6,206.7 131.1,208.6 131.7,209.8 136.1,207.5 			"/>
			<polygon class="st30" points="127.6,206.7 131.1,208.6 130.5,209.8 126.1,207.5 			"/>
			<polygon class="st29" points="131.2,210.7 130.9,210.7 130.2,216.4 132,216.4 			"/>
		</g>
	</g>
</g>
<g>
	<g>
		<defs>
			<circle id="SVGID_5_" cx="131.1" cy="239.5" r="18.9"/>
		</defs>
		<clipPath id="SVGID_6_">
			<use xlink:href="#SVGID_5_"  style="overflow:visible;"/>
		</clipPath>
		<g class="st31">
			<path class="st25" d="M134,250.4h-5.8c-3.3,0-6,2.7-6,6v2.9H140v-2.9C140,253.1,137.3,250.4,134,250.4z"/>
			<polygon class="st26" points="132.4,259.4 129.8,259.4 127.9,250.4 134.2,250.4 			"/>
			<path class="st25" d="M121.2,238c0,0.3,0,0.6,0,0.9h19.7c0-0.3,0-0.6,0-0.9c4.5-14.3-5.6-12.6-5.6-12.6s-10.2-3.7-14.2,3.3
				c-1.4,2.4-1.1,5.1,0,7.7v1.6H121.2z"/>
			<rect x="128.8" y="246.2" class="st27" width="4.6" height="5.5"/>
			<path class="st28" d="M128.8,249.7c0.7,0.2,1.5,0.3,2.3,0.3l0,0c0.8,0,1.6-0.1,2.3-0.3v-3.4h-4.6V249.7z"/>
			<path class="st27" d="M138.2,238c0,1.2,0.9,2.1,2.1,2.1c1.2,0,2.1-0.9,2.1-2.1c0-1.2-0.9-2.1-2.1-2.1
				C139.1,235.9,138.2,236.9,138.2,238z"/>
			<path class="st28" d="M139.1,238c0,0.7,0.5,1.2,1.2,1.2s1.2-0.5,1.2-1.2s-0.5-1.2-1.2-1.2C139.6,236.9,139.1,237.4,139.1,238z"/>
			<path class="st27" d="M124,238c0,1.2-0.9,2.1-2.1,2.1s-2.1-0.9-2.1-2.1c0-1.2,0.9-2.1,2.1-2.1S124,236.9,124,238z"/>
			<path class="st28" d="M123.1,238c0,0.7-0.5,1.2-1.2,1.2s-1.2-0.5-1.2-1.2s0.5-1.2,1.2-1.2C122.6,236.9,123.1,237.4,123.1,238z"/>
			<path class="st27" d="M131.1,227.1L131.1,227.1c-5.1,0-9.2,4.1-9.2,9.2v3.5c0,5.1,4.1,9.2,9.2,9.2l0,0c5.1,0,9.2-4.1,9.2-9.2
				v-3.5C140.3,231.2,136.2,227.1,131.1,227.1z"/>
			<path class="st25" d="M132.9,227.1h-3.6c-4.1,0-7.4,3.3-7.4,7.4v0.2h0.9c0,0,10.6-0.2,12.6-4.2c0,0,1.1,3.2,3.9,4.2h0.9v-0.2
				C140.3,230.4,137,227.1,132.9,227.1z"/>
			<polygon class="st29" points="131.1,251.6 131.1,251.6 130.5,252.8 130.9,253.7 131.2,253.7 131.7,252.8 			"/>
			<polygon class="st30" points="134.6,249.7 131.1,251.6 131.7,252.8 136.1,250.5 			"/>
			<polygon class="st30" points="127.6,249.7 131.1,251.6 130.5,252.8 126.1,250.5 			"/>
			<polygon class="st29" points="131.2,253.7 130.9,253.7 130.2,259.4 132,259.4 			"/>
		</g>
	</g>
</g>
<g>
	<g>
		<defs>
			<circle id="SVGID_7_" cx="131.1" cy="282.5" r="18.9"/>
		</defs>
		<clipPath id="SVGID_8_">
			<use xlink:href="#SVGID_7_"  style="overflow:visible;"/>
		</clipPath>
		<g class="st32">
			<path class="st25" d="M134,293.4h-5.8c-3.3,0-6,2.7-6,6v2.9H140v-2.9C140,296.1,137.3,293.4,134,293.4z"/>
			<polygon class="st26" points="132.4,302.4 129.8,302.4 127.9,293.4 134.2,293.4 			"/>
			<path class="st25" d="M121.2,281c0,0.3,0,0.6,0,0.9h19.7c0-0.3,0-0.6,0-0.9c4.5-14.3-5.6-12.6-5.6-12.6s-10.2-3.7-14.2,3.3
				c-1.4,2.4-1.1,5.1,0,7.7v1.6H121.2z"/>
			<rect x="128.8" y="289.2" class="st27" width="4.6" height="5.5"/>
			<path class="st28" d="M128.8,292.7c0.7,0.2,1.5,0.3,2.3,0.3l0,0c0.8,0,1.6-0.1,2.3-0.3v-3.4h-4.6V292.7z"/>
			<path class="st27" d="M138.2,281c0,1.2,0.9,2.1,2.1,2.1c1.2,0,2.1-0.9,2.1-2.1s-0.9-2.1-2.1-2.1
				C139.1,278.9,138.2,279.9,138.2,281z"/>
			<path class="st28" d="M139.1,281c0,0.7,0.5,1.2,1.2,1.2s1.2-0.5,1.2-1.2s-0.5-1.2-1.2-1.2C139.6,279.9,139.1,280.4,139.1,281z"/>
			<path class="st27" d="M124,281c0,1.2-0.9,2.1-2.1,2.1s-2.1-0.9-2.1-2.1s0.9-2.1,2.1-2.1S124,279.9,124,281z"/>
			<path class="st28" d="M123.1,281c0,0.7-0.5,1.2-1.2,1.2s-1.2-0.5-1.2-1.2s0.5-1.2,1.2-1.2C122.6,279.9,123.1,280.4,123.1,281z"/>
			<path class="st27" d="M131.1,270.1L131.1,270.1c-5.1,0-9.2,4.1-9.2,9.2v3.5c0,5.1,4.1,9.2,9.2,9.2l0,0c5.1,0,9.2-4.1,9.2-9.2
				v-3.5C140.3,274.2,136.2,270.1,131.1,270.1z"/>
			<path class="st25" d="M132.9,270.1h-3.6c-4.1,0-7.4,3.3-7.4,7.4v0.2h0.9c0,0,10.6-0.2,12.6-4.2c0,0,1.1,3.2,3.9,4.2h0.9v-0.2
				C140.3,273.4,137,270.1,132.9,270.1z"/>
			<polygon class="st29" points="131.1,294.6 131.1,294.6 130.5,295.8 130.9,296.7 131.2,296.7 131.7,295.8 			"/>
			<polygon class="st30" points="134.6,292.7 131.1,294.6 131.7,295.8 136.1,293.5 			"/>
			<polygon class="st30" points="127.6,292.7 131.1,294.6 130.5,295.8 126.1,293.5 			"/>
			<polygon class="st29" points="131.2,296.7 130.9,296.7 130.2,302.4 132,302.4 			"/>
		</g>
	</g>
</g>
<g>
	<g>
		<defs>
			<circle id="SVGID_9_" cx="270.2" cy="199.5" r="18.9"/>
		</defs>
		<clipPath id="SVGID_10_">
			<use xlink:href="#SVGID_9_"  style="overflow:visible;"/>
		</clipPath>
		<g class="st33">
			<path class="st25" d="M273.1,210.4h-5.8c-3.3,0-6,2.7-6,6v2.9h17.9v-2.9C279.1,213.1,276.4,210.4,273.1,210.4z"/>
			<polygon class="st26" points="271.5,219.4 268.8,219.4 267,210.4 273.3,210.4 			"/>
			<path class="st25" d="M260.3,198c0,0.3,0,0.6,0,0.9H280c0-0.3,0-0.6,0-0.9c4.5-14.3-5.6-12.6-5.6-12.6s-10.2-3.7-14.2,3.3
				c-1.4,2.4-1.1,5.1,0,7.7v1.6H260.3z"/>
			<rect x="267.9" y="206.2" class="st27" width="4.6" height="5.5"/>
			<path class="st28" d="M267.9,209.7c0.7,0.2,1.5,0.3,2.3,0.3l0,0c0.8,0,1.6-0.1,2.3-0.3v-3.4h-4.6L267.9,209.7L267.9,209.7z"/>
			<path class="st27" d="M277.2,198c0,1.2,0.9,2.1,2.1,2.1s2.1-0.9,2.1-2.1c0-1.2-0.9-2.1-2.1-2.1
				C278.2,195.9,277.2,196.9,277.2,198z"/>
			<path class="st28" d="M278.2,198c0,0.7,0.5,1.2,1.2,1.2s1.2-0.5,1.2-1.2s-0.5-1.2-1.2-1.2C278.7,196.9,278.2,197.4,278.2,198z"/>
			<path class="st27" d="M263.1,198c0,1.2-0.9,2.1-2.1,2.1s-2.1-0.9-2.1-2.1c0-1.2,0.9-2.1,2.1-2.1S263.1,196.9,263.1,198z"/>
			<path class="st28" d="M262.2,198c0,0.7-0.5,1.2-1.2,1.2s-1.2-0.5-1.2-1.2s0.5-1.2,1.2-1.2C261.6,196.9,262.2,197.4,262.2,198z"/>
			<path class="st27" d="M270.2,187.1L270.2,187.1c-5.1,0-9.2,4.1-9.2,9.2v3.5c0,5.1,4.1,9.2,9.2,9.2l0,0c5.1,0,9.2-4.1,9.2-9.2
				v-3.5C279.4,191.2,275.2,187.1,270.2,187.1z"/>
			<path class="st25" d="M272,187.1h-3.6c-4.1,0-7.4,3.3-7.4,7.4v0.2h0.9c0,0,10.6-0.2,12.6-4.2c0,0,1.1,3.2,3.9,4.2h0.9v-0.2
				C279.4,190.4,276,187.1,272,187.1z"/>
			<polygon class="st29" points="270.2,211.6 270.2,211.6 269.6,212.8 270,213.7 270.3,213.7 270.7,212.8 			"/>
			<polygon class="st30" points="273.7,209.7 270.2,211.6 270.7,212.8 275.2,210.5 			"/>
			<polygon class="st30" points="266.7,209.7 270.2,211.6 269.6,212.8 265.1,210.5 			"/>
			<polygon class="st29" points="270.3,213.7 270,213.7 269.3,219.4 271,219.4 			"/>
		</g>
	</g>
</g>
<circle class="st34" cx="270.2" cy="288.8" r="17.5"/>
<circle class="st35" cx="270.2" cy="244.1" r="17.5"/>
<g class="st36">
	<path class="st16" d="M276,254h-10.2c-0.4,0-0.7-0.2-0.7-0.7v-18.6c0-0.4,0.2-0.7,0.7-0.7h2.6c0.4,0,0.7,0.2,0.7,0.7v15.5
		c0,0.2,0.1,0.3,0.4,0.3h6.5c0.4,0,0.6,0.2,0.6,0.7v2.1C276.7,253.8,276.4,254,276,254z"/>
</g>
<g class="st36">
	<path class="st16" d="M272.4,299H269c-1.6,0-2.9-0.4-3.8-1.3s-1.3-2.1-1.3-3.8v-9.8c0-1.6,0.4-2.9,1.3-3.8s2.1-1.3,3.8-1.3h3.4
		c1.6,0,2.9,0.4,3.8,1.3c0.9,0.9,1.3,2.1,1.3,3.7v1.5c0,0.5-0.2,0.7-0.7,0.7h-2.6c-0.4,0-0.7-0.2-0.7-0.7v-1.3
		c0-0.7-0.1-1.1-0.4-1.4c-0.3-0.3-0.8-0.4-1.4-0.4h-2.1c-0.6,0-1.1,0.1-1.4,0.4c-0.3,0.3-0.4,0.7-0.4,1.4v9.5c0,0.7,0.1,1.1,0.4,1.4
		c0.3,0.3,0.7,0.4,1.4,0.4h2.1c0.7,0,1.1-0.1,1.4-0.4c0.3-0.3,0.4-0.7,0.4-1.4v-1.3c0-0.5,0.2-0.7,0.7-0.7h2.6
		c0.5,0,0.7,0.2,0.7,0.7v1.5c0,1.6-0.5,2.9-1.3,3.7C275.2,298.6,274,299,272.4,299z"/>
</g>
<line class="st37" x1="154.2" y1="196.3" x2="243.2" y2="196.3"/>
<line class="st37" x1="154.2" y1="244.3" x2="243.2" y2="244.3"/>
<line class="st37" x1="154.2" y1="284.3" x2="243.2" y2="284.3"/>
<line class="st37" x1="294.2" y1="197.3" x2="383.2" y2="197.3"/>
<line class="st37" x1="296.2" y1="244.3" x2="385.2" y2="244.3"/>
<line class="st37" x1="294.2" y1="289.3" x2="383.2" y2="289.3"/>
<g>
	<g>
		<polygon class="st38" points="141.2,154.5 169.9,174.7 183.1,167.2 183.1,159.6 141.2,150.7 		"/>
	</g>
	<g>
		<polygon class="st39" points="141.2,158.3 169.9,174.7 169.7,165 141.2,150.7 		"/>
	</g>
	<g>
		<g>
			<path class="st40" d="M141.3,150.7c9.4,5.7,19,11.1,28.6,16.6c4.4-2.5,8.8-5.1,13.3-7.6c-9.5-5.6-19-11.1-28.6-16.6
				C150.1,145.6,145.7,148.2,141.3,150.7z"/>
			<path class="st38" d="M155,144.6c-3.6,2-7.2,4.1-10.7,6.1c8.6,5.1,17.3,10.1,26,15c3.5-2,7.1-4.1,10.6-6.1
				C172.3,154.5,163.7,149.5,155,144.6z M168.1,162.9c-2.5-1.4-4.9-2.8-7.3-4.2c2,0.2,4.2-0.2,5.9-1.2c1.8-1,2.4-2.4,1.9-3.6
				c2.5,1.4,5,2.9,7.5,4.4c-1.1,0.6-1.4,2-0.3,2.6c-1.6,0.9-2.3,1.4-3.9,2.3C170.8,162.6,169.1,162.3,168.1,162.9z M152.6,147.5
				c1.1,0.6,3.5,0.5,4.6-0.2c2.4,1.4,4.8,2.8,7.3,4.2c-2.1-0.3-4.5,0.1-6.3,1.1c-1.7,1-2.4,2.3-2,3.4c-2.4-1.4-4.7-2.7-7-4.1
				c1.1-0.6,0.7-1.5-0.4-2.2C150.3,148.9,151,148.4,152.6,147.5z"/>
			<g>
				<path class="st16" d="M165.2,155.2c0,0,0-0.1,0-0.2c0-0.1-0.1-0.2-0.1-0.2c-0.1-0.1-0.1-0.2-0.2-0.3c-0.1-0.1-0.2-0.2-0.3-0.3
					c-0.5,0.3-0.8,0.5-1.4,0.8l0.1,0.1c0.2,0.2,0.4,0.3,0.5,0.5s0.2,0.3,0.3,0.4c0,0.1,0,0.3,0,0.4c-0.1,0.1-0.2,0.3-0.4,0.4
					c-0.2,0.1-0.5,0.2-0.7,0.3c-0.3,0-0.5,0.1-0.8,0c-0.3,0-0.5-0.1-0.8-0.2c-0.3-0.1-0.5-0.2-0.8-0.3c-0.3,0.2-0.4,0.2-0.7,0.4
					c-0.1-0.1-0.2-0.1-0.4-0.2c0.3-0.2,0.4-0.2,0.7-0.4c-0.3-0.2-0.6-0.4-0.8-0.7c-0.2-0.2-0.3-0.5-0.4-0.7c0.4-0.1,0.6-0.1,1-0.2
					c0,0.1,0,0.1,0.1,0.2c0,0.1,0.1,0.2,0.2,0.3c0.1,0.1,0.2,0.2,0.3,0.3s0.2,0.2,0.4,0.3c0.5-0.3,0.8-0.5,1.4-0.8c0,0,0,0-0.1-0.1
					c0,0,0,0-0.1-0.1c-0.2-0.2-0.3-0.3-0.4-0.5c-0.1-0.1-0.2-0.3-0.2-0.4c0-0.1,0-0.2,0.1-0.4c0.1-0.1,0.2-0.2,0.4-0.3
					s0.4-0.2,0.7-0.3c0.2,0,0.5-0.1,0.8-0.1s0.5,0.1,0.8,0.1c0.3,0.1,0.5,0.2,0.8,0.3c0.3-0.2,0.4-0.2,0.7-0.4
					c0.1,0.1,0.2,0.1,0.4,0.2c-0.3,0.2-0.4,0.2-0.7,0.4c0.3,0.2,0.5,0.4,0.7,0.6c0.2,0.2,0.3,0.4,0.3,0.6
					C165.8,155.1,165.6,155.2,165.2,155.2z M162.7,154c-0.2,0.1-0.3,0.2-0.2,0.4c0,0.1,0.2,0.3,0.4,0.5c0.5-0.3,0.8-0.4,1.3-0.7
					c-0.3-0.2-0.6-0.2-0.8-0.3C163.2,153.8,162.9,153.9,162.7,154z M162.6,156.4c0.2-0.1,0.3-0.2,0.2-0.4c-0.1-0.1-0.2-0.3-0.4-0.5
					c-0.5,0.3-0.8,0.4-1.3,0.7c0.3,0.2,0.6,0.3,0.8,0.3C162.2,156.5,162.4,156.5,162.6,156.4z"/>
			</g>
			<path class="st16" d="M169.1,159.2c-0.6,0.3-0.5,0.9,0.1,1.2s1.6,0.4,2.1,0c0.6-0.3,0.6-0.9-0.1-1.2
				C170.6,158.9,169.7,158.9,169.1,159.2z"/>
			<path class="st16" d="M155.3,151.3c-0.6,0.3-1.6,0.3-2.2,0c-0.6-0.4-0.6-0.9,0-1.2s1.5-0.3,2.2,0
				C155.9,150.4,155.9,150.9,155.3,151.3z"/>
		</g>
	</g>
</g>
<g>
	<g>
		<polygon class="st38" points="146.1,140 174.8,160.2 188,152.7 188,145.1 146.1,136.2 		"/>
	</g>
	<g>
		<polygon class="st39" points="146.1,143.8 174.8,160.2 174.7,150.5 146.1,136.2 		"/>
	</g>
	<g>
		<g>
			<path class="st40" d="M146.2,136.2c9.4,5.7,19,11.1,28.6,16.6c4.4-2.5,8.8-5.1,13.3-7.6c-9.5-5.6-19-11.1-28.6-16.6
				C155,131.2,150.6,133.7,146.2,136.2z"/>
			<path class="st38" d="M160,130.1c-3.6,2-7.2,4.1-10.7,6.1c8.6,5.1,17.3,10.1,26,15c3.5-2,7.1-4.1,10.6-6.1
				C177.2,140.1,168.6,135.1,160,130.1z M173,148.5c-2.5-1.4-4.9-2.8-7.3-4.2c2,0.2,4.2-0.2,5.9-1.2c1.8-1,2.4-2.4,1.9-3.6
				c2.5,1.4,5,2.9,7.5,4.4c-1.1,0.6-1.4,2-0.3,2.6c-1.6,0.9-2.3,1.4-3.9,2.3C175.7,148.1,174.1,147.8,173,148.5z M157.6,133
				c1.1,0.6,3.5,0.5,4.6-0.2c2.4,1.4,4.8,2.8,7.3,4.2c-2.1-0.3-4.5,0.1-6.3,1.1c-1.7,1-2.4,2.3-2,3.4c-2.4-1.4-4.7-2.7-7-4.1
				c1.1-0.6,0.7-1.5-0.4-2.2C155.2,134.4,156,133.9,157.6,133z"/>
			<g>
				<path class="st16" d="M170.1,140.7c0,0,0-0.1,0-0.2c0-0.1-0.1-0.2-0.1-0.2c-0.1-0.1-0.1-0.2-0.2-0.3c-0.1-0.1-0.2-0.2-0.3-0.3
					c-0.5,0.3-0.8,0.5-1.4,0.8l0.1,0.1c0.2,0.2,0.4,0.3,0.5,0.5s0.2,0.3,0.3,0.4c0,0.1,0,0.3,0,0.4c-0.1,0.1-0.2,0.3-0.4,0.4
					c-0.2,0.1-0.5,0.2-0.7,0.3c-0.3,0-0.5,0.1-0.8,0c-0.3,0-0.5-0.1-0.8-0.2c-0.3-0.1-0.5-0.2-0.8-0.3c-0.3,0.2-0.4,0.2-0.7,0.4
					c-0.1-0.1-0.2-0.1-0.4-0.2c0.3-0.2,0.4-0.2,0.7-0.4c-0.3-0.2-0.6-0.4-0.8-0.7c-0.2-0.2-0.3-0.5-0.4-0.7c0.4-0.1,0.6-0.1,1-0.2
					c0,0.1,0,0.1,0.1,0.2c0,0.1,0.1,0.2,0.2,0.3c0.1,0.1,0.2,0.2,0.3,0.3s0.2,0.2,0.4,0.3c0.5-0.3,0.8-0.5,1.4-0.8c0,0,0,0-0.1-0.1
					c0,0,0,0-0.1-0.1c-0.2-0.2-0.3-0.3-0.4-0.5c-0.1-0.1-0.2-0.3-0.2-0.4c0-0.1,0-0.2,0.1-0.4c0.1-0.1,0.2-0.2,0.4-0.3
					s0.4-0.2,0.7-0.3c0.2,0,0.5-0.1,0.8-0.1s0.5,0.1,0.8,0.1c0.3,0.1,0.5,0.2,0.8,0.3c0.3-0.2,0.4-0.2,0.7-0.4
					c0.1,0.1,0.2,0.1,0.4,0.2c-0.3,0.2-0.4,0.2-0.7,0.4c0.3,0.2,0.5,0.4,0.7,0.6c0.2,0.2,0.3,0.4,0.3,0.6
					C170.7,140.6,170.5,140.7,170.1,140.7z M167.7,139.5c-0.2,0.1-0.3,0.2-0.2,0.4c0,0.1,0.2,0.3,0.4,0.5c0.5-0.3,0.8-0.4,1.3-0.7
					c-0.3-0.2-0.6-0.2-0.8-0.3C168.1,139.3,167.9,139.4,167.7,139.5z M167.5,141.9c0.2-0.1,0.3-0.2,0.2-0.4
					c-0.1-0.1-0.2-0.3-0.4-0.5c-0.5,0.3-0.8,0.4-1.3,0.7c0.3,0.2,0.6,0.3,0.8,0.3C167.1,142,167.3,142,167.5,141.9z"/>
			</g>
			<path class="st16" d="M174,144.7c-0.6,0.3-0.5,0.9,0.1,1.2s1.6,0.4,2.1,0c0.6-0.3,0.6-0.9-0.1-1.2
				C175.5,144.4,174.6,144.4,174,144.7z"/>
			<path class="st16" d="M160.3,136.8c-0.6,0.3-1.6,0.3-2.2,0c-0.6-0.4-0.6-0.9,0-1.2s1.5-0.3,2.2,0
				C160.8,135.9,160.8,136.4,160.3,136.8z"/>
		</g>
	</g>
</g>
<g>
	<g class="st36">
		<path class="st41" d="M209.6,166.6h-3.2c-0.5,0-0.8-0.3-0.8-0.8v-22.8c0-0.5,0.3-0.8,0.8-0.8h9.2c2,0,3.5,0.5,4.6,1.6
			c1.1,1.1,1.6,2.6,1.6,4.6v3.6c0,2-0.5,3.5-1.6,4.6c-1.1,1.1-2.6,1.6-4.6,1.6h-4.8c-0.3,0-0.5,0.1-0.5,0.4v7.2
			C210.4,166.4,210.2,166.6,209.6,166.6z M210.8,154.1h4c0.8,0,1.4-0.2,1.7-0.5c0.3-0.3,0.5-0.9,0.5-1.7v-3.2c0-0.8-0.2-1.4-0.5-1.7
			c-0.3-0.3-0.9-0.5-1.7-0.5h-4c-0.3,0-0.4,0.1-0.4,0.4v6.8C210.4,153.9,210.6,154.1,210.8,154.1z"/>
		<path class="st41" d="M232.1,166.6h-0.9c-2,0-3.5-0.5-4.6-1.6c-1.1-1.1-1.6-2.6-1.6-4.6v-7c0-2,0.5-3.5,1.6-4.6
			c1.1-1.1,2.6-1.6,4.6-1.6h8.8c0.6,0,0.8,0.3,0.8,0.8v17.7c0,0.5-0.3,0.8-0.8,0.8h-3.2c-0.5,0-0.8-0.3-0.8-0.8v-1.2h-0.2
			c-0.3,0.7-0.8,1.2-1.5,1.5C233.6,166.5,232.9,166.6,232.1,166.6z M236,159.6v-7.7c0-0.3-0.2-0.4-0.5-0.4h-3.6
			c-0.8,0-1.4,0.2-1.7,0.5c-0.3,0.3-0.5,0.9-0.5,1.7v6.5c0,0.8,0.2,1.4,0.5,1.7c0.3,0.3,0.9,0.5,1.7,0.5h1.4
			C235.1,162.5,236,161.5,236,159.6z"/>
		<path class="st41" d="M251.8,165.8h-1.2c-1.9,0-3.4-0.5-4.4-1.6c-1-1.1-1.5-2.6-1.5-4.6v-6.1c0-2,0.5-3.5,1.6-4.6
			c1.1-1.1,2.6-1.6,4.6-1.6h8.8c0.6,0,0.8,0.3,0.8,0.8v18.7c0,2-0.5,3.5-1.6,4.5c-1.1,1.1-2.6,1.6-4.6,1.6h-7.3
			c-0.3,0-0.5-0.1-0.6-0.2c-0.1-0.1-0.2-0.3-0.2-0.6v-2.6c0-0.5,0.3-0.8,0.8-0.8h6.5c0.8,0,1.4-0.2,1.7-0.5s0.5-0.9,0.5-1.7v-2.9
			h-0.2c-0.3,0.7-0.8,1.2-1.5,1.6C253.3,165.6,252.5,165.8,251.8,165.8z M255.6,158.7v-6.8c0-0.3-0.2-0.4-0.5-0.4h-3.6
			c-0.8,0-1.4,0.2-1.7,0.5c-0.3,0.3-0.5,0.9-0.5,1.7v5.6c0,0.8,0.2,1.4,0.5,1.7c0.3,0.3,0.9,0.5,1.7,0.5h1.4
			C254.8,161.6,255.6,160.6,255.6,158.7z"/>
		<path class="st41" d="M273.9,166.6h-3.4c-2,0-3.5-0.5-4.6-1.6c-1.1-1.1-1.6-2.6-1.6-4.6v-7c0-2,0.5-3.5,1.6-4.6
			c1.1-1.1,2.6-1.6,4.6-1.6h3.4c2,0,3.5,0.5,4.6,1.6c1.1,1.1,1.6,2.6,1.6,4.6v7c0,2-0.5,3.5-1.6,4.6
			C277.4,166.1,275.8,166.6,273.9,166.6z M271.2,162.5h1.9c0.8,0,1.4-0.2,1.7-0.5c0.3-0.3,0.5-0.9,0.5-1.7v-6.7
			c0-0.8-0.2-1.4-0.5-1.7c-0.3-0.3-0.9-0.5-1.7-0.5h-1.9c-0.8,0-1.4,0.2-1.7,0.5c-0.3,0.3-0.5,0.9-0.5,1.7v6.7
			c0,0.8,0.2,1.4,0.5,1.7C269.8,162.3,270.4,162.5,271.2,162.5z"/>
		<path class="st41" d="M291.2,166.6H284c-0.5,0-0.8-0.3-0.8-0.8v-2.4c0-0.3,0.1-0.5,0.2-0.6c0.1-0.1,0.3-0.2,0.6-0.2h6.3
			c1.2,0,1.9-0.4,1.9-1.1v-0.2c0-0.6-0.5-1.2-1.6-1.7l-3.8-2.1c-1.3-0.7-2.2-1.4-2.8-2.1s-0.9-1.7-0.9-2.9c0-1.8,0.5-3.1,1.4-3.9
			s2.4-1.2,4.4-1.2h6.3c0.5,0,0.8,0.3,0.8,0.8v2.5c0,0.3-0.1,0.5-0.2,0.6c-0.1,0.1-0.3,0.2-0.6,0.2H290c-1.2,0-1.9,0.3-1.9,0.9v0.2
			c0,0.6,0.5,1.1,1.6,1.7l3.8,2.3c1.3,0.7,2.2,1.4,2.8,2.2s0.8,1.7,0.8,2.9C297.2,165,295.2,166.6,291.2,166.6z"/>
	</g>
</g>
</svg>
