<?xml version="1.0" encoding="utf-8"?>
<!-- Generator: Adobe Illustrator 24.3.0, SVG Export Plug-In . SVG Version: 6.00 Build 0)  -->
<svg version="1.1" id="Layer_1" xmlns="http://www.w3.org/2000/svg" xmlns:xlink="http://www.w3.org/1999/xlink" x="0px" y="0px"
	 viewBox="0 0 480 600" style="enable-background:new 0 0 480 600;" xml:space="preserve">
<style type="text/css">
	.st0{fill-rule:evenodd;clip-rule:evenodd;fill:#FFECB4;}
	.st1{fill:#EDDBA8;}
	.st2{opacity:0.5;}
	.st3{opacity:0.2;}
	.st4{opacity:0.1;}
	.st5{opacity:0.22;}
	.st6{fill:#B5581E;}
	.st7{fill:#71350A;}
	.st8{fill:#4A5F65;}
	.st9{fill:#74919B;}
	.st10{fill:#94A7B0;}
	.st11{fill:#5F7880;}
	.st12{fill:#9A4C1E;}
	.st13{fill:#7F3D13;}
	.st14{fill:#005869;}
	.st15{fill:#BB7348;}
	.st16{fill:#D8D4DE;}
	.st17{fill:#3B3B3B;}
	.st18{opacity:0.2;fill:#3B3B3B;}
	.st19{opacity:0.2;fill:#4D0B00;}
	.st20{fill:#E9E4EF;}
	.st21{fill:#E9A76F;}
	.st22{fill:#F3F0F5;}
	.st23{opacity:6.000000e-02;fill:#4D0B00;}
	.st24{fill:#E97B59;}
	.st25{fill:#FFB476;}
	.st26{fill:#48270F;}
	.st27{fill:#FFFFFF;}
	.st28{fill:#39170B;}
	.st29{fill-rule:evenodd;clip-rule:evenodd;fill:#B86851;}
	.st30{fill-rule:evenodd;clip-rule:evenodd;fill:#A15647;}
	.st31{fill-rule:evenodd;clip-rule:evenodd;fill:#8F483A;}
	.st32{fill-rule:evenodd;clip-rule:evenodd;fill:#7F3B2E;}
	.st33{fill:#666666;}
	.st34{fill:#333333;}
	.st35{fill:#4D4D4D;}
	.st36{fill:#2176BB;}
	.st37{fill:#CF0E51;}
</style>
<g transform="matrix(0.948172,0,0,1.88724,-3.09674,-964.778)">
	<rect x="-7" y="503.5" class="st0" width="529.6" height="328.5"/>
</g>
<g>
	<g>
		<path class="st1" d="M358.2,573.4v3.5h3v-3.5c19.8,0.2,39.5,0.3,59,0.3c31.3,0.1,63.2,0.3,95.2,0.8c0,0.2,0,0.4,0,0.6h3
			c0-0.2,0-0.4,0-0.5c8.8,0.2,17.6,0.3,26.4,0.6c-0.1,0.6-0.1,1.2-0.2,1.7h3c0.1-0.6,0.1-1.1,0.2-1.7c7,0.2,14,0.4,21.1,0.7v-1.7
			c-16.8-0.6-33.6-1-50.4-1.3c0.1-4.4,0.4-8.9,0.7-13.3c0.4-5.2,0.8-10.5,0.8-15.7c0-1.3,0-2.5-0.1-3.8c15.9,0.2,32.2,0.5,48.9,0.8
			v-1.7c-9.8-0.2-19.4-0.3-28.9-0.5c0.4-6.3,0.5-12.9,0.5-19.2c10.1,0,19.5,0.1,28.5,0.2V518c-15.8-0.2-33-0.3-52.7-0.3
			c-6.7,0-13.5,0-20.2,0c-0.1-2.6-0.2-5.1-0.2-7.7c0-9.9,0.7-19.3,2.1-28.2c23.6,0.5,47.3,1.1,71,1.8v-1.7c-9-0.3-17.9-0.5-26.9-0.8
			c0.2-3.7,0.3-7.4,0.5-11c0.4-7.9,0.9-16.2,0.9-24.3c8.9,0.2,17.3,0.4,25.5,0.6v-1.7c-17.4-0.5-36-0.8-57-0.9
			c-0.4-9.3-0.4-18.3-0.4-27.8h-3c0,9.5,0,18.5,0.4,27.8c-4.4,0-8.9,0-13.5,0c-19.8,0-39.9,0.1-59.4,0.3c-7.7,0.1-15.5,0.1-23.4,0.2
			l-0.2-1.6c-1.4-11.9-2.8-23.1-3.7-34.7c14.1,1,28.4,2.2,43,3.4c38.5,3.2,78.2,6.5,117.1,6.5v-1.7c-3.7,0-7.4,0-11.1-0.1
			c-0.2-3.1-0.4-6.1-0.5-9.2c-0.4-6.8-0.9-13.8-0.9-20.6c4.2,0.2,8.3,0.4,12.5,0.6V385c-9.4-0.4-18.9-0.9-28.3-1.3
			c-20.4-0.9-40.9-1.9-61.5-2.8c0.1-4.9,0.7-9.8,1.3-14.6c0.5-4,1-8.2,1.2-12.3c17.6,0.4,35.2,0.7,52.6,1.2
			c11.6,0.3,23.2,0.6,34.8,0.9v-1.7c-11.5-0.3-23.1-0.6-34.6-0.9c-39.2-1-79-1.7-118.9-2.6c0.2-3.5,0.6-7.1,1-10.5
			c0.6-5.5,1.3-11.1,1.3-16.8h-3c0,5.6-0.7,11.2-1.3,16.6c-0.4,3.5-0.8,7-1,10.6c-25.8-0.6-51.7-1.4-77.5-2.5
			c-0.5-9-0.9-17.5-0.9-26.3c10.7,0.3,21.3,0.5,31.9,0.7c0,0,0,0,0,0.1l2.2,0c20.5,0.4,40.9,0.6,61.2,0.6c29,0,58.3-0.4,87.6-1.1
			l1.2,0.1c0,0,0-0.1,0-0.2c12.5-0.3,24.9-0.7,37.4-1.1c0,1,0.1,2.1,0.1,3.1c0,4.3-0.3,8.7-0.6,12.9c-0.3,4.3-0.6,8.7-0.6,13
			c0,1.3,0,2.5,0.1,3.8l3,0c-0.1-1.2-0.1-2.5-0.1-3.7c0-4.3,0.3-8.7,0.6-12.9c0.3-4.3,0.6-8.7,0.6-13c0-1.1,0-2.2-0.1-3.3
			c3.5-0.1,7-0.3,10.5-0.4v-1.7c-16.8,0.7-33.6,1.2-50.5,1.6c1.2-4.7,2-9.5,2.8-14.1c0.9-5.3,1.7-10.7,3.2-15.9l-3-0.3
			c-1.5,5.3-2.4,10.7-3.3,16c-0.8,4.7-1.6,9.6-2.8,14.4c-23.3,0.6-46.5,0.9-69.6,1c0.9-11.1,1.4-22.2,1.4-33.3
			c40.2,0.9,81.2,1.9,121.8,3.1v-1.7c-3.5-0.1-7-0.2-10.5-0.3c0-9.4,0.8-17.5,1.6-26.9l0.3-3.7l-3-0.1l-0.3,3.7
			c-0.9,9.4-1.6,17.5-1.6,26.9c-24.8-0.7-49.6-1.4-74.3-1.9c0.5-4.9,0.8-9.9,1.2-14.8c0.4-5.3,0.7-10.6,1.2-15.8l-0.9,0
			c28.7,0.5,57.6,1.2,86.3,2.2v-1.7c-12.8-0.4-25.6-0.8-38.5-1.1c0-1.1-0.1-2.2-0.1-3.3c0-3,0.2-6.2,0.3-9.2c0.2-3,0.3-6.1,0.3-9.1
			h-3c0,3-0.2,6.1-0.3,9.1c-0.2,3-0.3,6.2-0.3,9.3c0,1.1,0.1,2.1,0.1,3.2c-33.1-0.8-66.2-1.3-98.8-1.8c0-0.2,0-0.3,0-0.5
			c0-4.6,0.8-9.4,1.6-14c0.4-2.1,0.7-4.2,1-6.2c24,0.6,48.4,1.1,72.6,1.1c23.6,0,45.2-0.5,65.2-1.5v-1.7c-7.5,0.4-15.3,0.7-23.3,0.9
			c0.8-4.9,1.1-9.9,1.5-14.8c0.2-3.3,0.5-6.6,0.8-9.9c7,0.2,14,0.4,21.1,0.7v-1.7c-16.8-0.6-33.6-1-50.4-1.3
			c0.1-4.4,0.4-8.9,0.7-13.3c0.4-5.2,0.8-10.5,0.8-15.7c0-1.3,0-2.5-0.1-3.8c15.9,0.2,32.2,0.5,48.9,0.8v-1.7
			c-9.8-0.2-19.4-0.3-28.9-0.5c0.4-6.3,0.5-12.9,0.5-19.2c10.1,0,19.5,0.1,28.5,0.2V150c-15.8-0.2-33-0.3-52.7-0.3
			c-6.7,0-13.5,0-20.2,0c-0.1-2.6-0.2-5.1-0.2-7.7c0-9.9,0.7-19.3,2.1-28.2c23.6,0.5,47.3,1.1,71,1.8v-1.7c-9-0.3-17.9-0.5-26.9-0.8
			c0.2-3.7,0.3-7.4,0.5-11c0.4-7.9,0.9-16.2,0.9-24.3c8.9,0.2,17.3,0.4,25.5,0.6v-1.7c-17.4-0.5-36-0.8-57-0.9
			c-0.4-9.3-0.4-18.3-0.4-27.8h-3c0,9.5,0,18.5,0.4,27.8c-4.4,0-8.9,0-13.5,0c-19.8,0-39.9,0.1-59.4,0.3c-7.7,0.1-15.5,0.1-23.4,0.2
			l-0.2-1.6c-1.4-11.9-2.8-23.1-3.7-34.7c14.1,1,28.4,2.2,43,3.4c38.5,3.2,78.2,6.5,117.1,6.5V48c-3.7,0-7.4-0.1-11.1-0.1
			c-0.2-3.1-0.4-6.1-0.5-9.2c-0.4-6.8-0.9-13.8-0.9-20.6c4.2,0.2,8.3,0.4,12.5,0.6v-1.7c-9.4-0.4-18.9-0.9-28.3-1.3
			c-20.4-0.9-40.9-1.9-61.5-2.8c0.1-4.9,0.7-9.8,1.3-14.6c0.5-4,1-8.2,1.2-12.3l-3-0.1c-0.2,4.1-0.7,8.2-1.2,12.3
			c-0.6,4.8-1.1,9.7-1.3,14.6c-32.8-1.5-65.9-2.8-99.1-3.9c1.4-8.6,2.8-17.5,3.7-26.3c51.4,2,102.9,3.4,153.3,4.6
			c11.6,0.3,23.2,0.6,34.8,0.9v-1.7c-11.5-0.3-23.1-0.6-34.6-0.9c-10.1-0.3-20.3-0.5-30.6-0.8c0.7-4.8,1-9.5,1.3-14.1
			c0.3-5,0.6-10,1.4-15.2h-3c-0.8,5.1-1.1,10.2-1.4,15.1c-0.3,4.6-0.6,9.3-1.3,14.1c-47.5-1.2-95.7-2.6-143.7-4.8
			c0.3-2.9,0.7-5.8,1.1-8.7c0.7-5.2,1.4-10.5,1.7-15.7h-3c-0.3,5.1-1,10.4-1.7,15.5c-0.4,2.9-0.8,5.8-1.1,8.7
			c-7.3-0.3-43.2-0.7-81-1c0.7-5.9,1-10.8,1-15.4c0-2.7-0.1-5.3-0.4-7.8h-2.8c0.2,2.5,0.4,5.1,0.4,7.8c0,4.6-0.3,9.4-1,15.4
			c-27.5-0.3-55.6-0.5-74.5-0.8c-0.9,0-4.2,0-9.2,0c-0.8-5-1.2-9.9-1.5-14.7c-0.2-2.5-0.4-5.1-0.6-7.6h-2.8c0.3,2.6,0.5,5.2,0.6,7.7
			c0.3,4.7,0.7,9.6,1.5,14.6c-18.6,0-56.2-0.1-98.7-0.1c0.4-7.3,0.7-14.8,0.8-22.1h-2.8c-0.1,7.4-0.5,14.8-0.8,22l1.9,0.1
			c-29.8,0-62-0.1-91.7-0.1c-0.2-3.3-0.2-6.6-0.3-9.8c0-4-0.2-8.1-0.5-12.2h-2.8c0.3,4.1,0.5,8.2,0.5,12.2c0,3.2,0.1,6.5,0.3,9.8
			c-4.5,0-8.9,0-13.2,0c0.2-3.7,0.7-7.6,1.2-11.5c0.4-3.5,0.8-7.1,1.1-10.6h-2.8c-0.3,3.4-0.6,6.9-1.1,10.3
			c-0.5,3.9-0.9,7.9-1.2,11.7c-19.8,0-37.8,0-52.5-0.1c0-0.2,0-0.4,0-0.6l-2.8-0.1c0,0.2,0,0.4,0,0.6c-13.9,0-24.4,0-30.1-0.1v1.8
			c5.7,0,16.2,0.1,30.1,0.1c-0.3,6-0.6,12.6-0.6,19.1c0,3,0.1,5.9,0.2,8.8c-13.7,0-24,0-29.7,0v1.7c11.2,0,40.8,0,77.5,0
			c0.3,3.8,0.4,7.7,0.4,11.4c0.1,5.2,0.1,10.5,0.9,15.9c-37.3,0-67.5,0.1-78.8,0.1v1.7c5.5,0,15.5,0,28.7,0c0,0.5,0,1.1,0,1.6
			c0,9.2,1.5,18.3,2.9,27.2c0.5,2.9,0.9,5.9,1.4,8.9c-15.3,0-26.9-0.1-33-0.1v1.7c4.1,0,10.7,0,19.4,0c0.2,3.9,0.7,7.9,1.1,11.7
			c0.6,5.2,1.2,10.5,1.2,15.7c0,0.8,0,1.7-0.1,2.5c-9.7,0-17.2,0-21.7-0.1v1.8c7,0.1,20.9,0.1,39.6,0.1c-0.4,12.7-0.9,25.8-2.3,39.1
			c-17.4,0-30.6-0.1-37.3-0.1v1.8c8.9,0.1,29,0.1,55.3,0.2c0,0.6,0,1.1,0,1.7c0,1.9-0.1,3.8-0.1,5.7c-0.1,1.9-0.1,3.9-0.1,5.8
			c0,3.1,0.2,5.6,0.6,8c-26.4,0-46.8,0-55.7,0v1.7c5.9,0,16.9,0,31.3-0.1c0.5,5.1,1.6,10,2.7,14.8c1.1,4.9,2.3,10,2.8,15.2
			c-17.1,0-30.1,0-36.7,0v1.8c5.3,0,14.6,0,26.8,0c-0.1,1-0.3,2.1-0.3,3.2c0,4.6,1.1,9.3,2.1,13.8c0.6,2.4,1.1,4.8,1.5,7.1l2.8-0.3
			c-0.4-2.4-1-4.9-1.5-7.3c-1-4.4-2.1-8.9-2.1-13.3c0-1.1,0.1-2.2,0.3-3.2c13.6,0,30.4,0,49,0c0.8,4.1,1.4,8.2,1.9,12.2
			c0.5,4,1.1,8.2,1.9,12.4c-9.8,0-19.1,0-27.7,0c0,0,0,0,0,0l-0.2,0c-25.9,0-45.8,0-54.6,0v1.7c8.4,0,27.5,0,52.2,0
			c0.7,3.4,0.8,6.7,0.8,9.6l0,3.7c0,2.3,0,4.9,0.4,7.5c-25.3,0-44.8,0-53.3,0v1.7c13,0,50.7,0,95.8,0c-0.2,2.8-0.4,5.6-0.6,8.4
			c-0.4,5.3-0.8,10.8-0.8,16.2c0,1.4,0,2.8,0.1,4.2l2.8-0.1c-0.1-1.4-0.1-2.8-0.1-4.1c0-5.3,0.4-10.8,0.8-16.1
			c0.2-2.9,0.4-5.8,0.6-8.6c20.8,0,43.1,0,65.2,0c-0.3,4-0.4,8.3-0.4,13.7c0,2.6,0,5.2,0.1,7.8c0,2.6,0.1,5.2,0.1,7.8H54
			c0-2.6,0-5.2-0.1-7.8c0-2.6-0.1-5.2-0.1-7.8c0-5.5,0.1-9.8,0.5-13.7c27.4,0,54.4,0,77.6,0c0,1-0.1,2-0.1,3c0,2.9,0.1,5.7,0.2,8.5
			c0.1,2.8,0.2,5.6,0.2,8.4c0,3.6-0.2,6.6-0.5,9.5c-97.7-0.1-218.6-0.2-244-0.2v1.8c6.8,0.1,19.9,0.1,37.3,0.2l0,6.4
			c0,9.3-0.1,18.9,0.3,28.2c-17.6,0-30.9-0.1-37.6-0.1v1.7c9.9,0,34.4,0,66,0.1c1.1,4.1,1.3,8,1.3,11.1c0,1.9-0.1,3.9-0.1,5.8
			c-0.1,1.9-0.1,3.9-0.1,5.8c0,1.1,0,2.1,0.1,3.1c-32,0-57-0.1-67-0.1v1.8c3.9,0,10.1,0.1,18.1,0.1c0.9,3.9,1.3,7.9,1.7,11.8
			c0.4,4.7,0.9,9.7,2.3,14.5c-9.9,0-17.5,0-22.1,0v1.7c9,0,29.8,0,56.9,0.1c0.5,3,0.9,6,1.3,9c0.7,6,1.5,12.1,3.6,18.2
			c-29.5,0-52.3,0.1-61.8,0.1v1.7c11,0,39.8-0.1,76.4-0.1c-0.9,12.4-0.9,25.2-0.9,37.5h2.8c0-12.4,0-25.1,0.9-37.5
			c17.1,0,35.7,0,54.9-0.1c0,1.8-0.1,3.6-0.1,5.4c0,9.5,0.6,19.6,2,32.6c-62.6-0.1-119.4-0.1-136.1-0.2v1.7c5.7,0,16.3,0,30.2,0.1
			c0,0.8,0.1,1.6,0.1,2.5c0,3.4-0.2,6.9-0.4,10.2c-0.2,3.4-0.4,6.8-0.4,10.3c0,2.4,0.1,4.6,0.3,6.6l2.8-0.2c-0.2-2-0.3-4.1-0.3-6.4
			c0-3.4,0.2-6.9,0.4-10.2c0.2-3.4,0.4-6.9,0.4-10.4c0-0.8,0-1.6-0.1-2.5c16.9,0,38.2,0,61.9,0.1c-0.1,1.9-0.1,3.7-0.1,5.6
			c0,4.3,0.2,8.6,0.3,12.9c0.1,3.8,0.2,7.6,0.3,11.5c-45.4-0.1-82.5-0.1-95.4-0.2v1.8c4.5,0.1,11.6,0.1,20.9,0.1
			c0.5,3.3,1,6.7,1.5,10c1.3,9.6,2.6,19.6,6.6,29.1c-13.3,0-23.4-0.1-29-0.1v1.8c7.1,0.1,21.3,0.1,40,0.2c-0.2,2.4-0.4,4.8-0.4,7.4
			c0,4.1,0.3,8.6,0.9,13.7c-17.7,0-32.3,0-40.5,0v1.7c11.6,0,35.9-0.1,65.1-0.1c-0.1,3.1-0.3,6.2-0.5,9.3c-0.3,3.6-0.5,7.3-0.5,11
			c0,3.6,0.3,6.9,0.9,9.9c-29.3,0-53.5,0-65,0v1.8c47.3,0.1,314,0.2,336.4,0.3C274.9,573.2,346.7,573.3,358.2,573.4z M399.6,556.1
			c-0.5,5.2-0.9,10.3-1.4,15.8c-24.9-0.1-50.2-0.3-75.4-0.8c-0.5-5.2-1-10.1-1.5-15c-0.5-5-1-9.9-1.5-15.3l-3,0.1
			c0.5,5.4,1,10.4,1.5,15.3c0.5,4.8,1,9.6,1.5,14.8c-2.2,0-37.9-0.1-73.4-0.1c0.2-2.6,0.4-5.3,0.6-7.9c0.5-7.5,1-15.3,2.8-22.8
			c58.5-0.3,130.9-0.5,151.3-0.6C400.6,545.4,400.1,550.8,399.6,556.1z M168.8,539C168.8,539,168.8,539,168.8,539
			c-27.5,0-61.7,0.1-96.9,0.1c0.1-1.1,0.1-2.2,0.1-3.3c0-2.1-0.1-4.3-0.2-6.4c-0.1-2.1-0.2-4.2-0.2-6.3c0-1.7,0.1-3.3,0.3-4.7
			c22.6,0,44.8,0.1,65.2,0.1c-0.3,3.1-0.5,6.2-0.6,9.3c-0.1,3.5-0.2,7.1-0.7,10.7l2.8,0.3c0.5-3.6,0.6-7.3,0.7-10.9
			c0.1-3.1,0.2-6.2,0.6-9.3c23.1,0,43.8,0.1,59.6,0.1c-0.1,6.3-0.4,12.6-0.8,18.8l-0.1,1.5c-7.8,0-16.9,0-26.9,0c0,0,0,0,0,0H168.8z
			 M42.3,477.5c23,0.1,46.4,0.1,68.5,0.2c0.3,2.1,0.5,4.2,0.5,6.4c0,6-1.1,12.2-2.2,18.1c-0.9,4.6-1.7,9.5-2.1,14.3
			c-19,0-38.9-0.1-58.6-0.1c0-0.3,0.1-0.7,0.1-1C48.4,515,43.8,492.9,42.3,477.5z M49.3,443.7c-8.3,0-16.6,0-24.9,0l2.2-0.2
			c-1.4-12.9-2-22.9-2-32.4c0-1.8,0-3.6,0.1-5.5c22.2,0,45.1,0,67.2-0.1c0.1,3.7,0.2,7.4,0.2,11.1c0.1,8.9,0.2,18,1.4,27
			c-13.6,0-27.5,0-41.4,0c0,0,0,0,0-0.1L49.3,443.7C49.3,443.7,49.3,443.7,49.3,443.7z M-19.4,371.1c0-3.9,0.3-7.9,0.5-11.7
			c0.2-3.4,0.4-7,0.5-10.5c24.3,0,50.9,0.1,77.2,0.1c0.5,3.8,0.6,7.5,0.6,11.3l0,2.5c0,4.1,0.1,8.2,0.7,12.4c-28,0-56.3,0-81.8-0.1
			l2.4-0.1C-19.3,373.7-19.4,372.4-19.4,371.1z M32.8,393.7c0.5-3.6,1-7.3,1-11.1c0-2.1-0.2-3.9-0.5-5.8c23.4,0,47.4,0,70,0
			c0.5,3.6,0.8,7.5,0.8,11.9c0,3.7-0.3,8.5-0.5,12.7l-0.1,2.4c-23.2,0-47.7,0-71.6,0.1C31.8,400.5,32.3,397.2,32.8,393.7z
			 M62.2,362.7l0-2.5c0-3.8-0.1-7.5-0.6-11.3c29.3,0.1,57.9,0.1,82.1,0.2c0,8.5,0,17.3-0.5,25.9l2.8,0.1c0.4-8.6,0.5-17.4,0.5-26
			c34.3,0.1,59.3,0.1,63.8,0.2c1.8,0,3.7,0.1,5.7,0.1c0,0,0,0,0,0.1h0.3c0.3,2.2,0.7,8.3,0.7,12c0,4.2-0.2,9.8-0.4,13.9
			c-6,0-15.2,0-27-0.1c0,0,0,0,0,0l-0.3,0c-31.2,0-79.6-0.1-128.8-0.1l2.4-0.3C62.3,370.8,62.2,366.8,62.2,362.7z M127.3,321.2
			c26.4,0,49.4,0,65.3,0c0.3,3.9,0.4,7.8,0.4,11.4l0,7.1c0,2.5,0,5,0.2,7.5c-15.4,0-39.3-0.1-67.2-0.1c0.2-2.9,0.4-5.7,0.6-8.6
			c0.4-4.8,0.8-9.7,0.8-14.6C127.3,323,127.3,322.1,127.3,321.2z M134.9,265.2c-0.1-2.8-0.2-5.6-0.2-8.4c0-1,0-2,0.1-3
			c27.8,0,49.9,0,60.5,0c0,3.8-0.1,7.5-0.3,11.3c-0.2,4.2-0.3,8.3-0.3,12.5c0,1.9,0,3.8,0.1,5.6c-18,0-38.5,0-60.2-0.1
			c0.3-2.9,0.5-5.9,0.5-9.5C135.1,270.8,135,268,134.9,265.2z M133.1,202.9c-22.3,0-48.7,0-75.8,0v-30.2c28.1,0,55.8,0,79.6-0.1
			c-1.4,4.9-1.6,9.9-1.9,14.8c-0.2,5.1-0.5,10.4-2.1,15.5L133.1,202.9z M-54.4,163.1c0-1.9,0.1-3.8,0.1-5.7c0.1-1.9,0.1-3.8,0.1-5.7
			c0-0.6,0-1.1,0-1.7c17.1,0,36.6,0.1,57.1,0.1c0,1-0.1,2-0.1,3c0,3,0.1,5.9,0.3,8.9c0.1,2.9,0.3,5.9,0.3,8.9h2.8
			c0-3.1-0.2-6.1-0.3-9c-0.1-2.9-0.3-5.8-0.3-8.8c0-1,0-2,0.1-3c23.4,0,48.1,0.1,71.8,0.1c-0.1,3.8-0.5,7.8-1,11.7
			c-0.4,3-0.8,6.1-1,9.1l2,0.1c-45.4,0-94.1,0-131.4,0.1l0.1,0C-54.2,168.8-54.4,166.3-54.4,163.1z M29.9,107.3
			c-26.2,0-51.6-0.1-73.8-0.1c-0.6-4.7-1.5-9.3-2.4-13.8c-1-5.3-2-10.7-2.6-16.2c23.8,0,51.8,0,80.5,0.1c-0.1,1.4-0.3,3.5-0.4,7.1
			C30.9,92.3,30.3,104.1,29.9,107.3L29.9,107.3z M-19.6,75.6l1.8-0.1c-0.2-3-0.3-6.2-0.3-9.8c0-4.9,0.2-9.9,0.4-14.8
			c0.2-4.3,0.3-8.8,0.4-13.2c20.5,0,42.5,0,64.3,0c-0.2,5.5-0.3,10.6-0.3,15.3c0,7.9,0.3,15.3,0.8,22.6c-4.3,0-8.7,0-13,0
			c-0.2-0.3-0.5-0.6-1.2-0.6c-0.6-0.1-0.9,0-1.2,0.6C14.2,75.6-3.3,75.6-19.6,75.6z M121.1,37.7c0,12.3,0,25.1,1.4,38l2.8-0.2
			c-1.4-12.8-1.4-25.5-1.4-37.8c39.3,0,68.5-0.1,71.8-0.1c9.6-0.1,21.7-0.1,34.7-0.2c-1.2,7.4-1.6,15-2,22.3
			c-0.3,5.3-0.5,10.7-1.1,16.1l0.7,0.1c-2.4,0-4.8,0-7.1,0c-10.8-0.1-91.2-0.1-170.9-0.2C49.7,68.4,49.4,61,49.4,53
			c0-4.7,0.1-9.8,0.3-15.3C74.7,37.7,99.4,37.7,121.1,37.7z M71,36c0-7.2,0.8-14.7,1.6-22c0.2-1.7,0.4-3.5,0.5-5.2
			c48.1,0,91.6,0,110.7,0c-0.2,2.8-0.3,5.7-0.5,8.5c-0.4,6.1-0.8,12.4-0.9,18.6C160.9,35.9,117.9,35.9,71,36z M275.7,9.1
			c33.5,0.1,63.7,0.3,69.1,0.4c0.6,5.2,0.6,10.5,0.7,15.5c0,3.4,0.1,6.8,0.3,10.3c-1.5,0-3.1,0-4.6,0c-5,0-34.5,0.1-67.3,0.2
			c0.2-3.2,0.5-6.5,0.9-9.6c0.5-4.8,1-9.8,1-14.6C275.7,10.5,275.7,9.8,275.7,9.1z M320.4,37.1c-0.5,6.5-1.4,12.9-2.2,19.2
			c-0.9,6.5-1.8,13.2-2.3,19.9c-27.2-0.1-58.8-0.1-85.6-0.3c0.6-5.4,0.8-10.8,1.1-16.1c0.4-7.4,0.8-15.1,2-22.5
			C263.6,37.2,298.5,37.1,320.4,37.1z M345.6,108.5c-6.8-0.2-50.5-0.5-92.2-0.7c0.2-4.4,0.7-8.9,1.1-13.2c0.6-5.5,1.1-11.3,1.2-17
			c40.8,0.1,82.8,0.2,89,0.3c0.4,2.8,0.6,5.9,0.6,9.6c0,2,0,4-0.1,6c0,2-0.1,4-0.1,6C345.2,103,345.3,105.9,345.6,108.5z
			 M382.7,130.8c0.5,6.2,1,12.4,1.5,18.9c-9.8-0.1-39.9-0.2-74.4-0.4c0.6-4.5,1.2-9.1,1.8-13.6c1.1-8.4,2.2-17.1,3.6-25.6
			c24.1,0.5,46.7,0.9,67.4,1.3l-1.3,0C381.7,118.2,382.2,124.5,382.7,130.8z M492.9,149.7c-7.8,0-15.7,0-23.5,0.1
			c-15.6,0.1-31.2,0.1-46.8,0.1c-11.6,0-23.5,0-35.4-0.1c-0.5-6.6-1-12.8-1.5-19c-0.5-6.3-1-12.6-1.5-19.3c30,0.6,55.8,1.1,75.5,1.5
			c11.6,0.2,23.4,0.5,35.1,0.7c-1.4,8.9-2.1,18.4-2.1,28.3C492.7,144.6,492.8,147.2,492.9,149.7z M422.6,151.6c5.6,0,11.3,0,16.9,0
			c-0.1,1.8-0.2,3.8-0.2,6c0,2.2,0.1,4.5,0.1,6.7c0,1.9,0.1,3.7,0.1,5.6c-2.9,0-5.8,0-8.7,0c-32,0-62.6,0.2-92.6,0.7
			c-0.2-3.1-0.3-6.1-0.3-9.2c0-3.3,0.1-6.6,0.4-9.9C375.9,151.6,408.7,151.6,422.6,151.6z M516.9,172.1c0.1,1.3,0.1,2.5,0.1,3.8
			c0,5.2-0.4,10.5-0.8,15.6c-0.3,4.4-0.6,8.9-0.7,13.3c-32-0.6-63.9-0.7-95.2-0.8c-6.3,0-12.6,0-19-0.1c0.5-5.5,0.9-10.6,1.4-15.8
			c0.5-5.4,1-10.8,1.5-16.6c8.8,0,17.7-0.1,26.7-0.1C458.6,171.6,487.2,171.7,516.9,172.1z M425.5,253.9c-0.9,0-1.9,0-2.8,0
			c0.5-6.8,1.1-13.8,3.3-20.4l-2.9-0.3c-2.3,6.7-2.9,13.8-3.4,20.7c-2,0-4-0.1-5.9-0.1c-28.1-0.4-56.8-0.8-85.4-1.4
			c0.1-1.7,0.2-3.3,0.2-5c0.2-5.4,0.3-10.9,1.7-16.2c26.7,0.2,53.8,0.9,80,1.6c5.9,0.2,11.8,0.3,17.8,0.5c-0.3,2-0.6,4.1-1,6.1
			c-0.8,4.7-1.6,9.5-1.6,14.2C425.5,253.6,425.5,253.7,425.5,253.9z M332.7,283.6c-3-0.1-21.4-0.2-44.8-0.2V254
			c23.4,0.1,41.9,0.1,44.8,0.2c-0.3,5.3-0.4,10.4-0.4,15.5C332.4,274.3,332.5,278.9,332.7,283.6z M265.7,252.1c0-0.3,0-0.6,0-0.8
			c0-2.9,0.4-5.9,0.8-8.9c0.4-3,0.8-6.1,0.8-9.2c0-0.7-0.1-1.5-0.1-2.2c26.5,0,48.7,0,50.1,0c3.3,0,6.7,0,10,0.1
			c-1.4,5.4-1.5,10.9-1.7,16.2c0,1.7-0.1,3.3-0.2,5C322.7,252.2,296,252.2,265.7,252.1z M285.1,254v29.4c-8.4,0-17.4-0.1-26.5-0.1
			c-8.5,0-31-0.1-61-0.1c-0.1-1.9-0.1-3.8-0.1-5.6c0-4.1,0.2-8.3,0.3-12.4c0.1-3.8,0.3-7.6,0.3-11.4c1.7,0,2.9,0,3.6,0
			C224.6,253.8,257.8,253.9,285.1,254z M358.2,229.7c-13.7-0.3-27.4-0.4-41-0.4c-1.1,0-13.8,0-31.3,0c2.8-8,3.8-16.3,4.2-24.1
			c32.7,0.1,61.2,0.2,68.1,0.2V229.7z M222.2,170.9c-4.3,0-8.4,0-12.3,0c-4.3,0-23.6,0-50.9,0c1.7-6.9,2.6-13.9,3.5-20.7
			c26.2,0.1,44.4,0.1,48,0.2c9.6,0.1,20.4,0.3,31.8,0.4c0.2,1.6,0.4,3.2,0.4,5.1c0,2.7-0.3,5.5-0.5,8.2c-0.2,2.2-0.4,4.5-0.4,6.8
			c-5.7,0-11.2,0-16.6,0c0,0,0-0.1,0-0.1L222.2,170.9C222.2,170.9,222.2,170.9,222.2,170.9z M97.9,90.7c-0.1-2.5-0.2-5.1-0.2-7.6
			c0-2.1,0.1-4,0.2-5.7c23.9,0,46.5,0,65.6,0c-0.3,2.5-0.4,5.3-0.4,8.5c0,2,0,4,0.1,6c0,2,0.1,4,0.1,6c0,2.7-0.2,6.9-0.4,8.8h-0.2
			c0,0.4,0,0.6,0,0.8c-19,0-41.5,0-65.2-0.1c0.4-2.7,0.5-5.6,0.5-9C98,95.8,97.9,93.3,97.9,90.7z M212.1,109.3
			c-1.4,7.3-1.8,14.9-2.1,22.2c-0.3,5.6-0.6,11.4-1.3,17.2c-6.3,0-23.9-0.1-48.1-0.1l-0.7-0.1l0,0.1c-10.6,0-22.4,0-35-0.1
			c0-3.5,0-7,0.1-10.4c0-3.5,0.1-6.9,0.1-10.4c0-6.1-0.1-11.7-0.5-18.4C156.4,109.2,186.7,109.3,212.1,109.3z M166,91.9
			c0-2-0.1-4-0.1-6c0-3.3,0.2-6,0.4-8.5c28.3,0,48.7,0,54,0.1c10.2,0,21.3,0.1,32.6,0.1c-0.1,5.7-0.6,11.3-1.2,16.8
			c-0.4,4.4-0.9,8.9-1.1,13.4c-11-0.1-21.8-0.1-31.7-0.2c-5.2,0-25.3-0.1-53.3-0.1c0.3-1.4,0.4-4.2,0.4-9.6
			C166.1,95.9,166,93.9,166,91.9z M335.2,170.6c-5.2,0.1-49.7,0.2-90.7,0.3c0.1-2.2,0.2-4.4,0.4-6.6c0.2-2.7,0.5-5.5,0.5-8.3
			c0-1.8-0.1-3.5-0.4-5.1c28.4,0.3,60.6,0.4,90.2,0.5c-0.2,3.3-0.4,6.6-0.4,9.9C334.9,164.4,335,167.5,335.2,170.6z M306.9,149.3
			c-32.5-0.2-68.6-0.4-95.4-0.7c0.7-5.7,1-11.5,1.3-17.1c0.4-7.4,0.8-14.9,2.2-22.3c35.4,0,60.4,0.1,65,0.2
			c11,0.2,21.8,0.4,32.4,0.6c-1.4,8.4-2.5,17-3.6,25.4C308.1,140.1,307.5,144.7,306.9,149.3z M159.6,150.3
			c-0.9,6.8-1.8,13.8-3.5,20.7c-22.2,0-49.3,0-77.7,0c0.2-2.9,0.6-6,1-8.9c0.5-3.9,1-8,1.1-11.9
			C109.6,150.3,137.3,150.3,159.6,150.3z M225.2,176.3c0-1.3,0-2.6-0.1-4c5.3,0,10.8-0.1,16.5-0.1c0,0.1,0,0.1,0,0.2h2.8
			c0-0.1,0-0.1,0-0.2c22.9-0.1,48.2-0.2,72-0.3c0.5,5.4,1.4,11.5,1.9,16.4c0.5,4.8,1,9.6,1.5,14.8c-2.7,0-56.1-0.1-97.4-0.2
			C224.2,194.2,225.2,185.2,225.2,176.3z M322.8,203.2c-0.5-5.2-1-10.1-1.5-15c-0.5-4.9-1.4-11-1.9-16.3c36.7-0.1,69.1-0.2,81.7-0.3
			c-0.5,5.7-1,11.1-1.5,16.5c-0.5,5.2-0.9,10.3-1.4,15.8C373.3,203.8,348.1,203.6,322.8,203.2z M271.9,25.6
			c-0.3,3.3-0.7,6.6-0.9,9.9c-13,0-26.5,0.1-39.1,0.2l-1.1-0.1c0,0,0,0.1,0,0.1c-5,0-9.9,0-14.5,0.1c0.5-4.6,1.3-9.3,2-13.9
			c0.7-4.2,1.4-8.6,1.9-12.9C236.4,9,255,9.1,272.8,9.1c0,0.7,0.1,1.4,0.1,2.1C272.9,15.9,272.4,20.9,271.9,25.6z M215.4,21.5
			c-0.8,4.7-1.6,9.5-2.1,14.2c-6,0-11.6,0.1-16.6,0.1c-1.2,0-5.2,0-11.5,0c0-6.1,0.4-12.4,0.9-18.4c0.2-2.9,0.4-5.8,0.5-8.7
			c3.9,0,6.4,0,7.2,0c6.7,0,14.7,0.1,23.4,0.1C216.8,13.1,216.1,17.4,215.4,21.5z M69.8,13.7C69,21.1,68.2,28.6,68.2,36
			C34.9,36-0.1,36-30.6,36c-0.7-5.4-0.8-10.7-0.9-16c0-3.7-0.1-7.5-0.4-11.4c31.5,0,68,0,102.3,0C70.2,10.4,70,12.1,69.8,13.7z
			 M34.1,84.5c0.1-3,0.3-5.8,0.4-7.2c20.2,0,40.8,0,60.5,0c-0.1,1.8-0.2,3.6-0.2,5.7c0,2.6,0.1,5.1,0.2,7.7c0.1,2.5,0.2,5.1,0.2,7.6
			c0,3.4-0.2,6.3-0.5,8.9l0.8,0.1c-20.4,0-41.7,0-62.7-0.1C33.2,103.8,33.7,92.7,34.1,84.5z M49.7,128.5c0.3-6.5,0.7-12.9,0.9-19.3
			c23.5,0,47.7,0,71,0c0.4,6.7,0.5,12.3,0.5,18.4c0,3.4,0,6.9-0.1,10.4c0,3.5-0.1,6.9-0.1,10.4c-22.8,0-48-0.1-73.3-0.1
			C49,141.8,49.4,135.1,49.7,128.5z M137.9,187.5c0.2-4.9,0.5-10,1.9-14.9c36.7,0,63.6-0.1,67.8-0.1c4.6,0,9.5-0.1,14.7-0.1
			c0,1.3,0.1,2.6,0.1,3.9c0,8.9-1,17.8-2.9,26.6c-8.9,0-17.2,0-24.2,0c-3.1,0-26.6,0-59.5,0C137.4,197.8,137.7,192.5,137.9,187.5z
			 M208.5,217c0.3-4,0.7-8,0.9-12.1c22.2,0.1,51.2,0.2,77.9,0.3c-0.5,7.9-1.4,16.1-4.3,24.1c-22.9,0-52.7,0-75.4,0
			C207.9,225.1,208.2,221.1,208.5,217z M264.4,231c0.1,0.7,0.1,1.5,0.1,2.2c0,2.9-0.4,6-0.8,8.9c-0.4,3-0.8,6.1-0.8,9.1
			c0,0.3,0,0.6,0,0.8c-21.4,0-44.2-0.1-61.3-0.1c-2.3,0-11.1,0-24.5,0c0.1-0.6,1-11.2,2.5-20.9c10.4,0,17.2,0,19,0
			C216.6,231,241.8,231,264.4,231z M220,285.7c0.9,4.1,1.4,8.5,1.4,13.9c0,3.6-0.2,7.2-0.4,10.7c-0.2,3.1-0.3,6.4-0.3,9.6
			c-2.4,0-4.7,0-6.9-0.1c-2.3,0-8.8,0-18.4-0.1c0-0.1,0-0.1,0-0.2l-2.8,0.2c-9.7,0-22.1,0-36.5-0.1c-0.9-12-1.8-22.9-3.1-34.2
			C178.5,285.5,201.6,285.6,220,285.7z M263,321.4c33.4,0.1,64.2,0.2,67.8,0.3c0,8.9,0.5,17.3,0.9,26.3c-3.9-0.2-36.1-0.3-70.5-0.5
			c1.1-5.7,2.2-12.2,2.2-18.9C263.5,326.1,263.3,323.7,263,321.4z M345.6,476.5c-4.8-0.2-27.8-0.3-55.5-0.5c0-0.9-0.1-1.8-0.1-2.7
			c0-5.3,0.6-10.9,1.1-16.3c0.4-3.7,0.8-7.6,1-11.3c26.6,0.1,48.3,0.1,52.7,0.2c0.4,2.8,0.6,5.9,0.6,9.6c0,2,0,4-0.1,6
			c0,2-0.1,4-0.1,6C345.2,471,345.3,473.9,345.6,476.5z M492.9,517.7c-7.8,0-15.7,0-23.5,0.1c-15.6,0.1-31.2,0.1-46.8,0.1
			c-11.6,0-23.5,0-35.4-0.1c-0.5-6.6-1-12.8-1.5-19c-0.5-6.1-1-12.2-1.5-18.7c32.5,0.3,60.2,0.7,75.5,1c11.6,0.2,23.4,0.5,35.1,0.7
			c-1.4,8.9-2.1,18.4-2.1,28.3C492.7,512.6,492.8,515.2,492.9,517.7z M422.6,519.6c5.6,0,11.3,0,16.9,0c-0.1,1.8-0.2,3.8-0.2,6
			c0,2.2,0.1,4.5,0.1,6.7c0,1.9,0.1,3.7,0.1,5.6c-2.9,0-5.8,0-8.7,0c-32,0-62.6,0.2-92.6,0.7c-0.2-3.1-0.3-6.1-0.3-9.2
			c0-3.3,0.1-6.6,0.4-9.9C375.9,519.6,408.7,519.6,422.6,519.6z M239.9,516.9c0.6-4.1,1.4-8.3,2.1-12.3c1.6-8.5,3.2-17.3,3.3-26.1
			c22.5,0.3,47.4,0.6,72.4,0.9c0,0.6,0,1.2,0,1.8c0,9.5-1.4,18.8-2.9,28.6c-0.4,2.4-0.7,4.8-1.1,7.3l2.8,0.3
			c0.3-2.4,0.7-4.8,1.1-7.3c1.4-9.4,2.9-19.2,2.9-28.9c0-0.6,0-1.2,0-1.8c20.8,0.2,41.5,0.4,60.6,0.7c0.5,6.5,1,12.7,1.5,18.8
			c0.5,6.2,1,12.4,1.5,18.9C367.8,517.6,295.8,517.4,239.9,516.9z M335.2,538.6c-3.7,0.1-27,0.1-54.8,0.2c0.2-2.2,0.6-4.5,1-6.9
			c0.6-3.1,1.2-6.4,1.2-9.6c0-1.1-0.2-2.1-0.3-3.1c17.7,0.1,35.8,0.2,52.9,0.3c-0.2,3.3-0.4,6.6-0.4,9.9
			C334.9,532.4,335,535.5,335.2,538.6z M204.7,475.6c-18.4,0-45.2-0.1-75.6-0.1c-0.4-2.9-0.5-6-0.5-9.6c0-3.5,0.2-7.1,0.3-10.6
			c0.1-3.3,0.3-6.6,0.3-9.9c32.5,0,60.7,0,78.9,0.1c-0.4,3.5-0.9,7-1.5,10.4c-0.9,5.3-1.9,10.8-1.9,16.3
			C204.5,473.3,204.6,474.5,204.7,475.6z M164.5,516.7c-16.6,0-35.1-0.1-54.7-0.1c0.4-4.7,1.2-9.4,2-13.9c1.1-6,2.3-12.3,2.3-18.5
			c0-2.3-0.2-4.4-0.5-6.4c18.5,0.1,36,0.1,51.5,0.2c-0.1,0.9-0.1,2-0.1,3.5c0,4.6-0.2,9.3-0.4,13.8c-0.2,4.5-0.4,9.2-0.4,13.9
			C164.3,511.8,164.4,514.3,164.5,516.7z M189.8,376.9c16.8,0,28.5,0,32.5,0c16.6,0.1,35.4,0.1,53.3,0.2c0,0.8-0.1,1.7-0.1,2.5
			c0,2.3,0.1,4.6,0.1,7c0.1,2.3,0.1,4.7,0.1,7c0,3.3-0.1,6.9-0.4,9.9c-16.9,0.1-34.8,0.1-50.8,0.2c-4.6,0-18.6,0-38.3,0.1
			c0-0.9-0.1-2-0.1-2.5c0-3.6,1-7.3,1.9-10.8c1-3.6,1.9-7.4,1.9-11.2C190,378.5,189.9,377.7,189.8,376.9z M247.8,405.4
			c0,12.6,0,25.6-1.8,38.7c-6.6,0-13-0.1-19.1-0.1c-5.4,0-24.8-0.1-51.8-0.1c0.1-2.1,0.1-4.2,0.2-6.3c0.3-10.8,0.7-21.9,2.4-32
			c24.2,0,41.4-0.1,46.6-0.1C231.8,405.4,239.7,405.4,247.8,405.4z M185.3,390c-1,3.7-2,7.4-2,11.3c0,0.5,0,1.6,0.1,2.5
			c-21,0-48,0.1-77.2,0.1l0.1-2.3c0.2-4.3,0.5-9.1,0.5-12.9c0-4.4-0.3-8.3-0.8-11.9c31.1,0,59.6,0,80.8,0.1c0.1,0.8,0.2,1.5,0.2,2.3
			C187.2,382.8,186.2,386.3,185.3,390z M174.8,405.5c-1.7,10.2-2.1,21.2-2.4,32c-0.1,2.1-0.1,4.2-0.2,6.3c-21.7,0-48-0.1-75.9-0.1
			c-1.3-9-1.4-18.2-1.4-27.1c0-3.7-0.1-7.4-0.2-11.1C124.4,405.6,152.3,405.6,174.8,405.5z M209.2,456.2c0.6-3.5,1.2-7.1,1.6-10.7
			c8.1,0,13.9,0,16.6,0c19.7,0.1,42,0.1,61.8,0.2c-0.2,3.7-0.6,7.5-0.9,11.1c-0.6,5.4-1.1,11-1.1,16.5c0,0.9,0,1.8,0.1,2.7
			c-18.9-0.1-39.8-0.2-58.4-0.4c-3.3,0-10.8,0-21.3-0.1c-0.1-1.2-0.2-2.3-0.2-3.5C207.4,466.9,208.3,461.4,209.2,456.2z
			 M327.8,427.4c-0.6,4.7-1.2,9.6-1.2,14.4c0,0.8,0,1.6,0.1,2.5c-23.6,0-51.9-0.1-77.9-0.2c1.8-13.1,1.8-26.1,1.8-38.7
			c29.6-0.1,60.5-0.2,77.6-0.2c0.5,2.5,0.7,5.1,0.7,8C329,417.8,328.4,422.7,327.8,427.4z M278.3,403.5c0.4-3,0.4-6.6,0.4-9.9
			c0-2.3-0.1-4.7-0.1-7c-0.1-2.3-0.1-4.6-0.1-6.9c0-0.8,0-1.7,0.1-2.5c32.4,0.1,61,0.3,66.3,0.4c0.6,5.2,0.6,10.5,0.7,15.5
			c0,3.4,0.1,6.8,0.3,10.3c-1.5,0-3.1,0-4.6,0C336.4,403.3,309.3,403.4,278.3,403.5z M309.3,360.4c-0.5,4.3-1.1,10.1-1.1,15.6
			c-3.7,0-7.5-0.1-11.3-0.1c0.3-2.7,0.9-5.5,1.5-8.2c0.9-4,1.8-8.1,1.8-12.3c0-1.8-0.2-3.4-0.6-5c3.4,0,6.7,0.1,10,0.1
			c0,0.5,0,1,0,1.5c0,1,0.1,2,0.1,3.1C309.8,356.1,309.6,358,309.3,360.4z M296.8,350.4c0.4,1.6,0.6,3.2,0.6,5
			c0,3.9-0.9,7.9-1.7,11.8c-0.6,2.8-1.2,5.7-1.5,8.6c-5.2,0-10.4-0.1-15.7-0.1c0-0.1,0-0.2,0-0.2l-2.8-0.1c0,0.1,0,0.2,0,0.3
			c-18.4-0.1-36.8-0.2-52.9-0.3c-0.8,0-1.9,0-3.2,0c0.2-4,0.4-9.6,0.4-13.9c0-6.5-0.3-10-0.7-12
			C242.2,349.8,270.4,350.1,296.8,350.4z M258.4,347.5c-13.8-0.1-27.9-0.2-40.4-0.2c-0.1,0-0.2,0-0.4,0c-0.1,0-0.2,0-0.4,0
			c-2.3,0-4.6,0-6.8,0c-2,0-7,0-14.5,0c-0.1-2.5-0.2-5-0.2-7.5l0-7.1c0-3.6-0.1-7.4-0.4-11.4c9.6,0,16.2,0,18.7,0
			c14,0.1,30.2,0.1,46,0.2c0.3,2.3,0.5,4.6,0.5,7.1C260.6,335.3,259.5,341.8,258.4,347.5z M126.3,445.4c0,3.2-0.1,6.5-0.3,9.8
			c-0.2,3.5-0.3,7.1-0.3,10.7c0,3.6,0.2,6.7,0.5,9.6c-22.5,0-46.8-0.1-71.1-0.1c-1.3-9.6-2.7-20.4-2.9-30
			C77.5,445.4,102.9,445.4,126.3,445.4z M69,518.4c-0.1,1.5-0.2,3-0.2,4.7c0,2.1,0.1,4.3,0.2,6.4c0.1,2.1,0.2,4.2,0.2,6.3
			c0,1.1,0,2.1-0.1,3.2l2.8,0.1l0,0l0,0l0,0c-26.1,0-52.7,0-77.4,0c0.5-3.6,1.3-7.2,2-10.6c0.7-3.3,1.5-6.8,2-10.2
			C21.1,518.3,45.2,518.3,69,518.4z M167.4,516.7c-0.1-2.4-0.2-4.8-0.2-7.6c0-4.6,0.2-9.3,0.4-13.8c0.2-4.5,0.4-9.2,0.4-13.9
			c0-1.9,0-2.9,0.1-3.5c32.3,0.1,55.9,0.2,61.7,0.3c4.1,0.1,8.4,0.1,12.7,0.2c-0.1,8.7-1.7,17.4-3.3,25.8c-0.8,4.2-1.6,8.4-2.2,12.7
			c-2,0-3.9,0-5.8,0C224.6,516.8,200.3,516.7,167.4,516.7z M201.5,537.6c0.4-6.2,0.8-12.6,0.8-18.9c14.5,0,24.7,0.1,28.4,0.1
			c15,0.2,31.7,0.3,48.8,0.4c0.2,1,0.3,2,0.3,3.1c0,3-0.6,6.2-1.2,9.2c-0.4,2.4-0.9,4.9-1.1,7.3c-8.9,0-18.2,0-27.5,0.1
			c0,0,0,0,0-0.1l-2.8-0.5c-0.1,0.2-0.1,0.4-0.1,0.6c-6.9,0-13.7,0-20.2,0.1c-3.7,0-12.7,0-25.5,0L201.5,537.6z M516.2,559.6
			c-0.3,4.4-0.6,8.9-0.7,13.3c-32-0.6-63.9-0.7-95.2-0.8c-6.3,0-12.6,0-19-0.1c0.5-5.5,0.9-10.6,1.4-15.8c0.5-5.4,1-10.8,1.5-16.6
			c8.8,0,17.7-0.1,26.7-0.1c27.8,0,56.3,0.2,86,0.6c0.1,1.3,0.1,2.5,0.1,3.8C517,549.1,516.6,554.4,516.2,559.6z M516.1,519.4
			c7.4,0,14.5,0,21.2,0c0,6.3,0,12.9-0.5,19.2c-32.8-0.5-64-0.8-94.4-0.8c0-1.9,0-3.7-0.1-5.6c-0.1-2.2-0.1-4.4-0.1-6.7
			c0-2.2,0.1-4.2,0.2-6c9,0,17.9,0,26.9-0.1C485,519.5,500.5,519.4,516.1,519.4z M436,445.7c19.4-0.1,39.6-0.3,59.3-0.3
			c16.3,0,31.1,0.1,45,0.3c0,8.2-0.4,16.4-0.9,24.3c-0.2,3.6-0.4,7.3-0.5,11c-26.6-0.7-53.1-1.2-79.1-1.8
			c-5.6-0.1-11.2-0.2-16.8-0.3c-0.1-3.1-0.2-6.5-0.2-10.3c0-3.8,0.1-7.7,0.1-11.5c0.1-3.8,0.1-7.6,0.1-11.4h-3
			c0,3.8-0.1,7.5-0.1,11.3c-0.1,3.8-0.1,7.7-0.1,11.5c0,3.8,0.1,7.2,0.2,10.2c-30.2-0.6-60.8-1.3-91.3-2.3c-0.3-2.7-0.5-5.6-0.5-9.1
			c0-2,0-4,0.1-6c0-2,0.1-4,0.1-6c0-3.7-0.2-6.8-0.5-9.6c10.2,0.1,19.8,0.1,28.8,0.1C396.4,446,416.5,445.9,436,445.7z M409.3,442.7
			l0.2,1.5c-11,0.1-22,0.1-32.9,0.1c-6,0-24.1,0-47.1,0c0-0.8-0.1-1.6-0.1-2.5c0-4.7,0.6-9.5,1.2-14.2c0.6-4.7,1.2-9.7,1.2-14.5
			c0-2.9-0.3-5.5-0.7-8c5.1,0,8.6,0,10,0c21.7,0,43.8,1.1,66.5,2.7l-2.1,0.1C406.6,419.6,407.9,430.8,409.3,442.7z M348.7,403.4
			c-0.2-3.5-0.2-6.9-0.3-10.3c-0.1-5-0.1-10.2-0.7-15.4c33.2,0.9,66.3,2.2,99.2,3.5c0.2,4,0.6,8,0.9,11.9c0.5,5.3,0.9,10.8,1,16.2
			C414.1,406.4,381,403.8,348.7,403.4z M479,382.6c20.6,0.9,41,1.9,61.3,2.8c5.1,0.2,10.1,0.5,15.2,0.7h-2.2
			c0,6.8,0.5,13.9,0.9,20.7c0.2,3.1,0.4,6.1,0.5,9.1c-34.2-0.7-68.9-3.6-102.7-6.4c0,0-0.1,0-0.1,0c-0.1-5.6-0.6-11.2-1-16.6
			c-0.3-3.8-0.7-7.7-0.9-11.6c8.7,0.4,17.3,0.7,25.9,1.1c0,0.1,0,0.1,0,0.2L479,382.6C479,382.6,479,382.6,479,382.6z M412.1,352.4
			c0,0.1,0,0.2,0,0.3l3,0.1c0-0.1,0-0.2,0-0.3c21.2,0.5,42.3,1,63.3,1.4c-0.2,4.1-0.7,8.2-1.2,12.2c-0.6,4.8-1.1,9.7-1.3,14.6
			c-32.8-1.5-65.9-2.8-99.1-3.9c1.3-8.3,2.7-16.8,3.6-25.3C391.1,351.9,401.6,352.2,412.1,352.4z M377.6,351.4
			c-0.9,8.4-2.3,17-3.6,25.3c-8-0.3-33-0.5-62.8-0.7c0-5.4,0.6-11.2,1.1-15.4c0.3-2.5,0.5-4.4,0.5-5.5c0-1,0-2.1-0.1-3.1
			c0-0.5,0-0.9,0-1.4C343.2,350.9,369,351.2,377.6,351.4z M365.6,320.8c-13.5-0.2-89.6-0.6-142.1-0.9c0-3.2,0.2-6.4,0.3-9.5
			c0.2-3.5,0.4-7.2,0.4-10.8c0-5.3-0.4-9.8-1.3-13.9c17.6,0.1,30.4,0.1,36.2,0.2c13.4,0.1,27.5,0.3,41.6,0.4c0,1.1-0.1,2.2-0.1,3.3
			c0,4.2,0.2,8.3,0.3,12.5c0.2,4.1,0.3,8.3,0.3,12.4c0,1.8,0,3.6-0.1,5.4l2.8,0.1c0.1-1.8,0.1-3.7,0.1-5.5c0-4.2-0.2-8.3-0.3-12.5
			c-0.2-4.1-0.3-8.3-0.3-12.4c0-1.1,0-2.2,0.1-3.3c21.4,0.2,42.8,0.4,62.2,0.6c-0.4,4.6-0.6,9.4-0.6,14.9
			C365.1,308.3,365.4,314.6,365.6,320.8z M335.7,283.7c-0.2-4.7-0.3-9.4-0.3-14c0-5.1,0.1-10.2,0.4-15.5c20.4,0.4,40.7,0.7,60.9,1
			v30C376.4,284.7,356.1,284.2,335.7,283.7z M444,288.1c0,11-0.5,22.2-1.4,33.3c-4.5,0-9.1,0.1-13.6,0.1c-20,0-40.2-0.2-60.4-0.6
			c-0.3-6.2-0.5-12.6-0.5-19c0-5.5,0.2-10.3,0.6-14.9c28.9,0.3,52.9,0.6,65.3,0.9c4.2,0.1,8.5,0.2,12.8,0.3H444z M428.6,255.9
			c0-0.1,0-0.1,0-0.2c17.2,0.2,34.5,0.5,51.9,0.8c-0.5,5.2-0.9,10.5-1.2,15.8c-0.3,5-0.7,9.9-1.2,14.8c-14.7-0.3-29.4-0.7-43.9-1
			c-11.4-0.3-22.9-0.5-34.5-0.8v-30c4.7,0.1,9.4,0.1,14.1,0.2c2,0,3.9,0.1,5.9,0.1c0,0,0,0,0,0l3,0.1c0,0,0,0,0-0.1c1,0,2,0,3,0
			c0,0.1,0,0.2,0,0.3L428.6,255.9z M544.7,207.2c-0.4,3.3-0.6,6.7-0.8,9.9c-0.3,4.9-0.7,10-1.5,14.9c-12.3,0.3-25.2,0.5-38.9,0.5
			c-16.4,0-33-0.2-49.4-0.6c0.4-5.5,1.6-11.2,2.7-16.7c0.6-3,1.2-6,1.7-8.9l-3-0.2c-0.5,2.9-1.1,5.9-1.7,8.9
			c-1.1,5.5-2.2,11.3-2.7,16.9c-13.7-0.3-27.3-0.6-40.7-1c-16.2-0.4-32.7-0.9-49.2-1.2v-24.3c19.8,0.2,39.5,0.3,59,0.3
			c31.3,0.1,63.2,0.3,95.2,0.8c0,0.2,0,0.4,0,0.6h3c0-0.2,0-0.4,0-0.5C527.2,206.8,536,207,544.7,207.2z M516.1,151.4
			c7.4,0,14.5,0,21.2,0c0,6.3,0,12.9-0.5,19.2c-32.8-0.5-64-0.8-94.4-0.8c0-1.9,0-3.7-0.1-5.6c-0.1-2.2-0.1-4.4-0.1-6.7
			c0-2.2,0.1-4.2,0.2-6c9,0,17.9,0,26.9-0.1C485,151.5,500.5,151.4,516.1,151.4z M436,77.7c19.4-0.1,39.6-0.3,59.3-0.3
			c16.3,0,31.1,0.1,45,0.3c0,8.2-0.4,16.4-0.9,24.3c-0.2,3.6-0.4,7.3-0.5,11c-26.6-0.7-53.1-1.2-79.1-1.8
			c-5.6-0.1-11.2-0.2-16.8-0.3c-0.1-3.1-0.2-6.5-0.2-10.3c0-3.8,0.1-7.7,0.1-11.5c0.1-3.8,0.1-7.6,0.1-11.4h-3
			c0,3.8-0.1,7.5-0.1,11.3c-0.1,3.8-0.1,7.7-0.1,11.5c0,3.8,0.1,7.2,0.2,10.2c-30.2-0.6-60.8-1.3-91.3-2.3c-0.3-2.7-0.5-5.6-0.5-9.1
			c0-2,0-4,0.1-6c0-2,0.1-4,0.1-6c0-3.7-0.2-6.8-0.5-9.6C358,78,367.6,78,376.6,78C396.4,78,416.5,77.9,436,77.7z M409.3,74.7
			l0.2,1.5c-11,0.1-22,0.1-32.9,0.1c-7,0-29.8,0-57.8-0.1c0.5-6.6,1.4-13.2,2.3-19.6c0.9-6.3,1.7-12.9,2.2-19.5c9.3,0,15.8,0,17.9,0
			c21.7,0,43.8,1.1,66.5,2.7l-2.1,0.1C406.6,51.6,407.9,62.8,409.3,74.7z M476,14.4c0,0.1,0,0.1,0,0.2h3c0,0,0,0,0,0
			c20.6,0.9,41,1.9,61.3,2.8c5.1,0.2,10.1,0.5,15.2,0.7h-2.2c0,6.8,0.5,13.9,0.9,20.7c0.2,3.1,0.4,6.1,0.5,9.1
			c-34.2-0.7-68.9-3.6-102.7-6.4c0,0-0.1,0-0.1,0c-0.1-5.6-0.6-11.2-1-16.6c-0.3-3.8-0.7-7.7-0.9-11.6C458.7,13.7,467.4,14,476,14.4
			z M447.1,13.2c0.2,4,0.6,8,0.9,11.9c0.5,5.3,0.9,10.8,1,16.2c-34.9-2.9-68-5.5-100.3-5.9c-0.2-3.5-0.2-6.9-0.3-10.3
			c-0.1-5-0.1-10.2-0.7-15.4C381,10.6,414.1,11.8,447.1,13.2z M295.8-19c37.7,0.5,71.8,0.9,81.9,1.3c-0.9,8.8-2.4,17.7-3.8,26.3
			c-9.4-0.3-42-0.6-78.4-0.8c0.1-1.5,0.1-3.5,0.1-4.9c0-2.3-0.1-4.6-0.1-7c-0.1-2.3-0.1-4.6-0.1-6.9C295.3-13.9,295.5-16.5,295.8-19
			z M205.6-20.2c23.7,0.4,56.5,0.8,87.3,1.2c-0.3,2.5-0.4,5.1-0.4,8.1c0,2.3,0.1,4.6,0.1,6.9c0.1,2.3,0.1,4.6,0.1,6.9
			c0,1.4,0,3.4-0.1,4.9c-25.4-0.2-52.4-0.3-74.4-0.5l-0.8-0.1c0,0,0,0,0,0c-4.7,0-9.1-0.1-13.2-0.1C204.3-1.9,204.8-11.1,205.6-20.2
			z M113.1-20.7c44.6,0.1,78.6,0.1,81.7,0.2c2.5,0.1,5.2,0.1,7.9,0.2c-0.9,9.1-1.3,18.4-1.3,27.5c-2.6,0-5.2,0-7.6-0.1
			c-3,0-38.3,0-84.1-0.1c0.3-3.2,0.9-6.5,1.5-9.7c0.9-5,1.9-10.2,1.9-15.5C113.2-18.9,113.2-19.8,113.1-20.7z M15.2-20.8
			c32.2,0,65.7,0.1,95,0.1c0.1,0.9,0.1,1.7,0.1,2.6c0,5.1-0.9,10.2-1.9,15.1c-0.6,3.3-1.2,6.7-1.6,10c-10.8,0-22.2,0-33.9,0
			l-2.6-0.2c0,0.1,0,0.1,0,0.2C52.3,7,33.6,7,15.2,7V-20.8z M-33.9,7C-51.7,7-68,7-81.2,7l1.5,0C-79.9,4-80,1.1-80-1.9
			c0-6.5,0.3-13,0.6-19.1c24,0,57,0.1,91.8,0.1V7C-3,7-18,7-32,7c0,0,0-0.1,0-0.1L-33.9,7z M-80.8,39.4c0-0.5,0-1.1,0-1.6
			c16.5,0,37.5,0,60.5,0c0,4.4-0.2,8.8-0.4,13.1c-0.2,4.9-0.4,9.9-0.4,14.9c0,3.6,0.1,6.8,0.3,9.9c-9.9,0-19.4,0-28.3,0
			c0,0,0-0.1,0-0.1l-1.4,0.1c-9.9,0-19,0-27.2,0l1.1-0.1c-0.4-3-0.9-6.1-1.4-9.1C-79.4,57.1-80.8,48.5-80.8,39.4z M-87.8,107.2
			c0-0.8,0.1-1.7,0.1-2.5c0-5.3-0.6-10.7-1.3-16c-0.4-3.8-0.9-7.7-1.1-11.5c10.5,0,23.6,0,38.4,0c0.6,5.6,1.6,11.2,2.6,16.6
			c0.8,4.4,1.7,8.9,2.3,13.4C-62.5,107.2-76.5,107.2-87.8,107.2z M-72.2,148.1c1.4-13.3,1.9-26.4,2.3-39.1c14.7,0,32.2,0,51.3,0.1
			c-0.6,3-0.8,5.7-0.8,8.9c0,5.5,0.6,11.1,1.3,16.5c0.5,4.4,1,9.1,1.2,13.5l2.8-0.1c-0.2-4.5-0.7-9.2-1.2-13.7
			c-0.6-5.4-1.3-10.9-1.3-16.3c0-3.3,0.3-5.9,0.8-8.9c19.8,0,41.4,0,63.5,0.1c-0.2,6.4-0.6,12.8-0.9,19.2c-0.4,6.7-0.7,13.4-0.9,20
			c-35.7,0-71.4-0.1-100.2-0.1c0,0,0-0.1,0-0.1l-1.8,0.1C-61.7,148.2-67.1,148.1-72.2,148.1z M-72.7,202.9
			c-0.5-5.4-1.7-10.6-2.8-15.7c-1.1-4.7-2.1-9.5-2.6-14.4c16.8,0,37.8,0,60.8-0.1v30h2.8v-30c22,0,45.6,0,69-0.1v30.2
			C8.5,202.9-39.3,202.9-72.7,202.9z M-30.8,204.7c24.1,0,51,0,77.6,0c-0.3,2.5-0.6,5-0.9,7.5c-0.7,5.5-1.5,11.2-1.8,16.9l2.8,0.1
			c0.3-5.6,1.1-11.2,1.8-16.7c0.3-2.6,0.7-5.2,1-7.7c25.6,0,50.8,0,72.9,0l0,0.2c0.5,8,0.9,16.4,1.8,24.3l2.8-0.2
			c-0.9-7.9-1.4-16.2-1.8-24.2l0,0c38.9,0,67.7,0,70.9,0.1c3.2,0,6.6,0,10.2,0.1c-0.2,4.1-0.6,8-0.9,12c-0.3,4.1-0.7,8.2-0.9,12.4
			c-1.9,0-3.9,0-5.7,0c-9,0-135.8,0-226.1,0c-0.8-4.3-1.4-8.5-2-12.7C-29.5,212.7-30,208.7-30.8,204.7z M13,244.3
			c-0.2,1.4-0.3,2.4-0.3,2.7c0,0.9,0.1,1.9,0.1,2.8c0,0.7,0.1,1.4,0.1,2.1c-25.7,0-50.4,0-71.2,0l2.2-0.2c-0.3-2.6-0.4-5-0.4-7.3
			l0-3.7c0-2.9-0.1-6.2-0.7-9.6c21,0,45.7,0,71.5,0C14.1,235.9,13.4,241.3,13,244.3z M98.9,251.9c-14.4,0-29.5,0-44.7,0l-2.6-0.2
			c0,0.1,0,0.1,0,0.2c-12,0-24.1,0-35.9,0c0-0.7,0-1.4-0.1-2.2c0-0.9-0.1-1.8-0.1-2.7c0-0.3,0.1-1.2,0.3-2.4
			c0.4-3.1,1.2-8.5,1.3-13.6c27.1,0,55.1,0,80.9,0c0.1,1.7,0.2,3.3,0.4,5c0.3,4.1,0.7,8.3,0.7,12.4C99,249.6,99,250.8,98.9,251.9z
			 M101.7,251.9c0.1-1.1,0.1-2.3,0.1-3.4c0-4.2-0.3-8.5-0.7-12.6c-0.1-1.6-0.3-3.3-0.4-4.9c30.8,0,58,0,76,0
			c-1.5,9.9-2.5,20.7-2.5,20.8l1.4,0.1C157.4,251.9,131.1,251.9,101.7,251.9z M74.7,285.3c25.8,0.1,51.6,0.1,75.4,0.2
			c1.3,11.3,2.2,22.3,3.1,34.2c-22.9,0-50.4-0.1-78.8-0.1c0.1-1,0.1-2.6,0.1-5.1c0-2.9-0.1-5.9-0.1-8.8c-0.1-2.9-0.1-5.8-0.1-8.8
			C74.1,292.4,74.3,288.7,74.7,285.3z M72.9,321.2c0.3,0,0.5,0,0.7-0.1c17.6,0,34.8,0,50.9,0c0,0.9,0.1,1.8,0.1,2.7
			c0,4.8-0.4,9.7-0.8,14.4c-0.3,2.9-0.5,5.8-0.7,8.8c-51.7,0-116.3-0.1-165.5-0.1c-0.1-1-0.1-2.1-0.1-3.1c0-1.9,0.1-3.8,0.1-5.8
			c0.1-1.9,0.1-3.9,0.1-5.8c0-3.1-0.2-7-1.2-11.1c24.5,0,53,0,82,0c1.5,6,1.7,12.2,1.7,18.3c0,2.5,0.1,5,0.2,7.5l2.8-0.1
			c-0.1-2.5-0.2-4.9-0.2-7.4c-0.1-6-0.2-12.2-1.7-18.2C51.9,321.2,62.4,321.2,72.9,321.2L72.9,321.2z M-0.4,285.1
			c23,0.1,47.6,0.1,72.3,0.2c-0.4,3.4-0.5,7.2-0.5,11.6c0,2.9,0.1,5.9,0.1,8.8c0.1,2.9,0.1,5.8,0.1,8.8c0,1.5,0,3.3,0,4.4h-0.1
			l0,0.7c-23.4,0-47.3,0-70-0.1c-0.2-4.4-0.6-8.8-1-13.1c-0.5-5.6-1.1-11.3-1.1-17C-0.6,287.9-0.5,286.5-0.4,285.1z M-73.3,319.4
			l1.4,0c-0.4-9.2-0.3-18.8-0.3-28.1l0-6.4c19.1,0.1,42.9,0.1,68.9,0.2c-0.1,1.4-0.2,2.9-0.2,4.3c0,5.8,0.6,11.6,1.1,17.2
			c0.4,4.2,0.8,8.6,1,12.9c-15,0-29.3,0-42.5-0.1c0,0,0-0.1,0-0.1l-0.5,0.1C-54.9,319.4-64.6,319.4-73.3,319.4z M-52.8,374.9
			l-1.4,0.2c-13,0-24.7,0-34.2,0l1.1-0.3c-1.5-4.8-1.9-9.7-2.3-14.5c-0.3-3.8-0.8-7.7-1.6-11.6c17.4,0.1,42.1,0.1,70.2,0.2
			c0,3.5-0.3,7-0.5,10.4c-0.3,3.9-0.5,7.9-0.5,11.9c0,1.3,0,2.6,0.1,4c-10.8,0-21.1,0-30.7,0C-52.8,375-52.8,374.9-52.8,374.9z
			 M-49.8,404l2-0.5c-2.1-5.9-2.8-12.1-3.5-18c-0.3-2.9-0.7-5.8-1.2-8.8c24.2,0,53.1,0,83,0c0.3,1.8,0.5,3.7,0.5,5.8
			c0,3.6-0.5,7.3-1,10.8c-0.5,3.5-1,7-1,10.6C0.7,404-26.6,404-49.8,404z M-14.6,445.3c20.2,0,42,0,63.9,0c0.2,9.7,1.6,20.4,2.9,30
			c-22.7,0-45.3-0.1-66.3-0.1c0-3.8-0.1-7.7-0.3-11.5c-0.2-4.3-0.3-8.6-0.3-12.9C-14.7,449-14.6,447.2-14.6,445.3z M-24.4,477.3
			c20,0.1,41.7,0.1,63.9,0.2c1.5,15.5,6.1,37.9,6.2,38.1c0,0.2,0,0.5-0.1,0.8c-25.5,0-50.6-0.1-73.2-0.1c0.3-4.7,0.9-9.4,1.4-14
			c0.9-7.6,1.8-15.4,1.8-23.1C-24.4,478.6-24.4,478-24.4,477.3z M-81.6,516.2l1.1-0.3c-4-9.4-5.3-19.4-6.6-29
			c-0.4-3.2-0.9-6.5-1.4-9.7c15.8,0.1,37.1,0.2,61.2,0.2c0,0.6,0,1.2,0,1.9c0,7.6-0.9,15.4-1.8,22.9c-0.5,4.7-1.1,9.5-1.4,14.2
			C-50,516.3-67.5,516.2-81.6,516.2z M-47.2,539.1c-7.7,0-15,0-21.8,0c-0.6-5.1-0.9-9.6-0.9-13.7c0-2.6,0.2-5.1,0.4-7.4
			c18.4,0.1,40.8,0.1,65.1,0.2c-0.5,3.3-1.2,6.6-1.9,9.8c-0.8,3.6-1.6,7.3-2.1,11.1c-12.6,0-24.7,0-36,0c0,0,0-0.1,0-0.1h-2.8
			C-47.2,539-47.2,539.1-47.2,539.1z M-44.5,570.9c-0.6-3-0.9-6.2-0.9-9.9c0-3.6,0.3-7.3,0.5-10.9c0.2-3.1,0.4-6.2,0.5-9.4
			c20.8,0,44.5-0.1,69-0.1c-0.1,1.8-0.1,3.7-0.1,5.5c0,3,0.1,6.1,0.2,9.2c0.1,3,0.2,6.1,0.2,9.1c0,2,0,4-0.1,6l2.8,0.1
			c0.1-2,0.1-4,0.1-6c0-3-0.1-6.1-0.2-9.2c-0.1-3-0.2-6.1-0.2-9.1c0-1.8,0-3.7,0.1-5.5c25.4,0,51.6-0.1,76.5-0.1
			c-1.1,7.5-2.1,16.3-2.1,24.9c0,1.6,0,3.2,0.1,4.8l2.8-0.1c-0.1-1.6-0.1-3.1-0.1-4.7c0-8.6,1.1-17.4,2.1-24.9
			c22.4,0,43.6,0,61.9-0.1c-0.1,4.7-0.3,9.4-0.7,14c-0.3,5.1-0.7,10.4-0.7,15.6h2.8c0-5.1,0.4-10.4,0.7-15.5
			c0.3-4.6,0.6-9.4,0.7-14.1c30.2,0,52.2-0.1,58.2-0.1c5.5,0,11.2-0.1,17.1-0.1c-1.7,7.5-2.3,15.2-2.8,22.7
			c-0.2,2.7-0.4,5.4-0.6,8.1c-6.7,0-13.4,0-19.9,0C205.7,571,50.1,570.9-44.5,570.9z"/>
	</g>
	<g class="st2">
		<g class="st3">
			<path class="st1" d="M566.5,481.9c-8.9-0.3-17.9-0.5-26.8-0.8c0.2-3.7,0.3-7.4,0.5-11c0.4-7.9,0.9-16.2,0.9-24.3
				c8.8,0.2,17.2,0.4,25.4,0.6V481.9z"/>
			<path class="st1" d="M437.8,151.6c-0.1,1.8-0.2,3.8-0.2,6c0,2.2,0.1,4.5,0.1,6.7c0,1.9,0.1,3.7,0.1,5.6c-2.9,0-5.8,0-8.6,0
				c-31.9,0-62.4,0.2-92.3,0.7c-0.2-3.1-0.3-6.1-0.3-9.2c0-3.5,0.1-7,0.4-10.4l-3-0.1c-0.2,3.5-0.4,7-0.4,10.5
				c0,3.1,0.1,6.2,0.3,9.3c-9.5,0.2-441.1,0.4-450.5,0.6v-21.4c18.5,0.7,129.5,0.3,245.9,0.6c132.4,0.3,271.9,1.3,291.5,1.3
				C426.5,151.6,432.1,151.6,437.8,151.6z"/>
			<path class="st1" d="M344.1,393.1c0,3.4,0.1,6.8,0.3,10.3c-1.5,0-3.1,0-4.6,0c-11.5,0-445,0.3-456.4,0.8v-27.5
				c12.6,0.2,447.4,0.5,460,0.9C344,382.8,344.1,388,344.1,393.1z"/>
			<path class="st1" d="M399.6,203.9c0.5-5.5,0.9-10.6,1.4-15.8c0.5-5.4,1-10.8,1.5-16.6c8.8,0,17.6-0.1,26.6-0.1
				c27.7,0,56.1,0.2,85.7,0.6c0.1,1.3,0.1,2.5,0.1,3.8c0,5.2-0.4,10.5-0.8,15.6c-0.3,4.4-0.6,8.9-0.7,13.3
				c-31.9-0.6-63.7-0.7-94.8-0.8C412.3,204,406,204,399.6,203.9z"/>
			<path class="st1" d="M331.1,269.7c0,4.6,0.1,9.2,0.3,13.9c-8.6-0.2-439.4-0.5-448-0.7v-29.2c8.6,0.2,439.4,0.4,448,0.6
				C331.2,259.4,331.1,264.5,331.1,269.7z"/>
			<path class="st1" d="M516.3,320.3c1.2-4.7,2-9.5,2.8-14.1c0.9-5.3,1.7-10.7,3.2-15.9l-2.9-0.3c-1.5,5.3-2.4,10.7-3.2,16
				c-0.8,4.7-1.6,9.6-2.8,14.4c-23.2,0.6-46.3,0.9-69.4,1c0.9-11.1,1.4-22.2,1.4-33.3c40,0.9,80.8,1.9,121.3,3.1v27.4
				C549.8,319.3,533,319.8,516.3,320.3z"/>
			<path class="st1" d="M478.5,256.4c-0.5,5.2-0.9,10.5-1.2,15.8c-0.3,5-0.7,9.9-1.2,14.8c-14.7-0.3-29.3-0.7-43.7-1
				c-11.4-0.3-22.8-0.5-34.3-0.8v-30c4.7,0.1,9.4,0.1,14,0.2c1.9,0,3.9,0.1,5.9,0.1c0,0,0,0,0,0l3,0.1c0,0,0,0,0-0.1c1,0,2,0,3,0
				c0,0.1,0,0.2,0,0.3l3-0.1c0-0.1,0-0.1,0-0.2C444,255.9,461.2,256.1,478.5,256.4z"/>
			<path class="st1" d="M566.5,256.9c-12.7-0.4-25.5-0.8-38.3-1.1c0-1.1-0.1-2.2-0.1-3.3c0-3,0.2-6.2,0.3-9.2c0.2-3,0.3-6.1,0.3-9.1
				h-3c0,3-0.2,6.1-0.3,9.1c-0.2,3-0.3,6.2-0.3,9.3c0,1.1,0.1,2.1,0.1,3.2c-33-0.8-65.9-1.3-98.4-1.8c0-0.2,0-0.3,0-0.5
				c0-4.6,0.8-9.4,1.6-14c0.4-2.1,0.7-4.2,1-6.2c23.9,0.6,48.2,1.1,72.3,1.1c23.5,0,45-0.5,64.9-1.5V256.9z"/>
			<path class="st1" d="M514,519.4c7.4,0,14.4,0,21.2,0c0,6.3,0,12.9-0.4,19.2c-32.6-0.5-63.8-0.8-94-0.8c0-1.9,0-3.7-0.1-5.6
				c-0.1-2.2-0.1-4.4-0.1-6.7c0-2.2,0.1-4.2,0.2-6c8.9,0,17.8,0,26.8-0.1C483,519.5,498.5,519.4,514,519.4z"/>
			<path class="st1" d="M418.5,573.8c31.2,0.1,62.9,0.3,94.8,0.8c0,0.2,0,0.4,0,0.6h3c0-0.2,0-0.4,0-0.5c8.8,0.2,17.5,0.3,26.3,0.6
				c-0.1,0.6-0.1,1.2-0.2,1.7h-86.2c0.2-0.9,0.3-1.7,0.5-2.6l-3-0.2c-0.1,0.9-0.3,1.8-0.5,2.7h-93.4v-3.5
				C379.5,573.6,399.2,573.7,418.5,573.8z"/>
			<path class="st1" d="M492.9,481.8c-1.4,8.9-2.1,18.4-2.1,28.3c0,2.6,0.1,5.1,0.2,7.7c-7.8,0-15.6,0-23.4,0.1
				c-15.5,0.1-31.1,0.1-46.6,0.1c-11.6,0-23.4,0-35.3-0.1c-0.5-6.6-1-12.8-1.5-19c-0.5-6.3-1-12.6-1.5-19.3l-3,0.1
				c0.5,6.7,1,13,1.5,19.3c0.5,6.2,1,12.4,1.5,18.9c-25.1-0.2-473.1-0.7-499.2-1.8v-39.1c27.2,1.1,176,0.4,315.8,1.1
				c121,0.6,235.4,2.6,258.6,3.1C469.4,481.3,481.1,481.5,492.9,481.8z"/>
			<path class="st1" d="M566.5,113.9c-8.9-0.3-17.9-0.5-26.8-0.8c0.2-3.7,0.3-7.4,0.5-11c0.4-7.9,0.9-16.2,0.9-24.3
				c8.8,0.2,17.2,0.4,25.4,0.6V113.9z"/>
			<path class="st1" d="M375.1,78c19.7,0,39.8-0.1,59.1-0.3c19.4-0.1,39.4-0.3,59.1-0.3c16.2,0,31,0.1,44.8,0.3
				c0,8.2-0.4,16.4-0.9,24.3c-0.2,3.6-0.4,7.3-0.5,11c-26.5-0.7-52.9-1.2-78.8-1.8c-5.6-0.1-11.1-0.2-16.7-0.3
				c-0.1-3.1-0.2-6.5-0.2-10.3c0-3.8,0.1-7.7,0.1-11.5c0.1-3.8,0.1-7.6,0.1-11.4h-3c0,3.8-0.1,7.5-0.1,11.3
				c-0.1,3.8-0.1,7.7-0.1,11.5c0,3.8,0.1,7.2,0.2,10.2c-30.1-0.6-60.5-1.3-91-2.3c-0.3-2.7-0.5-5.6-0.5-9.1c0-2,0-4,0.1-6
				c0-2,0.1-4,0.1-6c0-3.7-0.2-6.8-0.5-9.6C356.5,78,366.2,78,375.1,78z"/>
			<path class="st1" d="M375.1,446c19.7,0,39.8-0.1,59.1-0.3c19.4-0.1,39.4-0.3,59.1-0.3c16.2,0,31,0.1,44.8,0.3
				c0,8.2-0.4,16.4-0.9,24.3c-0.2,3.6-0.4,7.3-0.5,11c-26.5-0.7-52.9-1.2-78.8-1.8c-5.6-0.1-11.1-0.2-16.7-0.3
				c-0.1-3.1-0.2-6.5-0.2-10.3c0-3.8,0.1-7.7,0.1-11.5c0.1-3.8,0.1-7.6,0.1-11.4h-3c0,3.8-0.1,7.5-0.1,11.3
				c-0.1,3.8-0.1,7.7-0.1,11.5c0,3.8,0.1,7.2,0.2,10.2c-30.1-0.6-60.5-1.3-91-2.3c-0.3-2.7-0.5-5.6-0.5-9.1c0-2,0-4,0.1-6
				c0-2,0.1-4,0.1-6c0-3.7-0.2-6.8-0.5-9.6C356.5,446,366.2,446,375.1,446z"/>
			<path class="st1" d="M398.1,556.1c-0.5,5.2-0.9,10.3-1.4,15.8c-24.8-0.1-50-0.3-75.1-0.7c-0.5-5.2-1-10.1-1.5-15
				c-0.5-5-1-9.9-1.5-15.3l-3,0.1c0.5,5.4,1,10.4,1.5,15.3c0.5,4.8,1,9.6,1.4,14.8c-4.3-0.1-430.8-0.2-435.1-0.3v-30
				c30.6-0.7,483.9-1.1,516.1-1.3C399,545.4,398.5,550.8,398.1,556.1z"/>
			<path class="st1" d="M344.1,25.1c0,3.4,0.1,6.8,0.3,10.3c-1.5,0-3.1,0-4.6,0c-11.5,0-445,0.3-456.4,0.8V8.7
				c12.6,0.2,447.4,0.5,460,0.9C344,14.8,344.1,20,344.1,25.1z"/>
			<path class="st1" d="M553.3,18.1h-2.2c0,6.8,0.5,13.9,0.9,20.7c0.2,3.1,0.4,6.1,0.5,9.1c-34.1-0.7-68.6-3.6-102.2-6.4
				c0,0-0.1,0-0.1,0c-0.1-5.6-0.6-11.2-1-16.6c-0.3-3.8-0.7-7.7-0.9-11.6c8.6,0.4,17.2,0.7,25.8,1.1c0,0.1,0,0.1,0,0.2h3
				c0,0,0,0,0,0c20.5,0.9,40.9,1.9,61.1,2.8C543.2,17.6,548.2,17.8,553.3,18.1z"/>
			<path class="st1" d="M514.8,540.1c0.1,1.3,0.1,2.5,0.1,3.8c0,5.2-0.4,10.5-0.8,15.6c-0.3,4.4-0.6,8.9-0.7,13.3
				c-31.9-0.6-63.7-0.7-94.8-0.8c-6.3,0-12.6,0-18.9-0.1c0.5-5.5,0.9-10.6,1.4-15.8c0.5-5.4,1-10.8,1.5-16.6
				c8.8,0,17.6-0.1,26.6-0.1C456.8,539.6,485.2,539.8,514.8,540.1z"/>
			<path class="st1" d="M474.1,382.4c0,0.1,0,0.1,0,0.2h3c0,0,0,0,0,0c20.5,0.9,40.9,1.9,61.1,2.8c5,0.2,10.1,0.5,15.2,0.7h-2.2
				c0,6.8,0.5,13.9,0.9,20.7c0.2,3.1,0.4,6.1,0.5,9.1c-34.1-0.7-68.6-3.6-102.2-6.4c0,0-0.1,0-0.1,0c-0.1-5.6-0.6-11.2-1-16.6
				c-0.3-3.8-0.7-7.7-0.9-11.6C456.9,381.7,465.5,382.1,474.1,382.4z"/>
			<path class="st1" d="M538.2,151.5c10.1,0,19.4,0.1,28.4,0.2v19.5c-9.7-0.2-19.3-0.3-28.8-0.5
				C538.1,164.4,538.2,157.8,538.2,151.5z"/>
			<path class="st1" d="M538.2,519.5c10.1,0,19.4,0.1,28.4,0.2v19.5c-9.7-0.2-19.3-0.3-28.8-0.5
				C538.1,532.4,538.2,525.8,538.2,519.5z"/>
			<path class="st1" d="M566.5-12v28.9c-9.4-0.4-18.8-0.9-28.1-1.3c-20.3-0.9-40.7-1.9-61.3-2.8c0.1-4.9,0.7-9.8,1.2-14.6
				c0.5-4,1-8.2,1.2-12.3l-3-0.1c-0.2,4.1-0.7,8.2-1.2,12.3c-0.6,4.8-1.1,9.7-1.2,14.6c-32.7-1.5-65.6-2.8-98.7-3.9
				c1.4-8.6,2.8-17.5,3.7-26.3c51.2,2,102.5,3.4,152.7,4.6C543.4-12.6,555-12.3,566.5-12z"/>
			<path class="st1" d="M492.9,113.8c-1.4,8.9-2.1,18.4-2.1,28.3c0,2.6,0.1,5.1,0.2,7.7c-7.8,0-15.6,0-23.4,0.1
				c-15.5,0.1-31.1,0.1-46.6,0.1c-11.6,0-23.4,0-35.3-0.1c-0.5-6.6-1-12.8-1.5-19c-0.5-6.3-1-12.6-1.5-19.3l-3,0.1
				c0.5,6.7,1,13,1.5,19.3c0.5,6.2,1,12.4,1.5,18.9c-25.1-0.2-473.1-0.7-499.2-1.8v-39.1c65.4-1,262.3-0.7,409,0.9
				c80.2,0.8,147.7,3,165.4,3.3C469.4,113.3,481.1,113.5,492.9,113.8z"/>
			<path class="st1" d="M-116.6,405.9c11.4-0.5,444.9-0.8,456.4-0.8c21.6,0,43.6,1.1,66.3,2.7l-2,0.1c0.9,11.7,2.3,23,3.7,34.8
				l0.2,1.5c-10.9,0.1-21.9,0.1-32.8,0.1c-20.3,0-466.3-0.1-491.7-0.9V405.9z"/>
			<path class="st1" d="M353.5-29.2c-0.4,2.9-0.7,5.8-1.1,8.7c-15.6-0.7-453.5-1.5-469-2.4v-21.8h471.7
				C354.9-39.5,354.2-34.3,353.5-29.2z"/>
			<path class="st1" d="M532-14.6c-10.1-0.3-20.3-0.5-30.4-0.8c0.7-4.8,1-9.5,1.3-14.1c0.3-5,0.6-10,1.4-15.2h62.2v30.9
				C555-14,543.5-14.4,532-14.6z"/>
			<path class="st1" d="M545.4,577c0.1-0.6,0.1-1.1,0.2-1.7c7,0.2,14,0.4,21,0.7v1H545.4z"/>
			<path class="st1" d="M-116.6,37.9c11.4-0.5,444.9-0.8,456.4-0.8c21.6,0,43.6,1.1,66.3,2.7l-2,0.1c0.9,11.7,2.3,23,3.7,34.8
				l0.2,1.5c-10.9,0.1-21.9,0.1-32.8,0.1c-20.3,0-466.3-0.1-491.7-0.9V37.9z"/>
			<path class="st1" d="M-116.6,321c7.9,0.3,438.1,0.5,446.1,0.7c0,8.9,0.5,17.3,0.9,26.3c-8.3-0.4-438.7-0.8-447-1.2V321z"/>
			<path class="st1" d="M333.4,348.2c25.7,1.1,51.5,1.9,77.2,2.5c0.3-3.6,0.6-7.1,1-10.6c0.6-5.4,1.3-11,1.3-16.6h3
				c0,5.7-0.7,11.3-1.3,16.8c-0.4,3.4-0.8,7-1,10.5c39.7,1,79.4,1.7,118.4,2.6c11.5,0.3,23,0.6,34.5,0.9v-33.9
				c-3.5,0.1-7,0.3-10.5,0.4c0,1.1,0.1,2.2,0.1,3.3c0,4.3-0.3,8.7-0.6,13c-0.3,4.2-0.6,8.6-0.6,12.9c0,1.2,0,2.5,0.1,3.7l-3,0
				c-0.1-1.2-0.1-2.5-0.1-3.8c0-4.3,0.3-8.7,0.6-13c0.3-4.2,0.6-8.6,0.6-12.9c0-1,0-2.1-0.1-3.1c-12.4,0.4-24.8,0.8-37.3,1.1
				c0,0,0,0.1,0,0.1l-1.2-0.1c-29.2,0.7-58.3,1.1-87.2,1.1c-20.2,0-40.6-0.2-61-0.6l-2.1,0c0,0,0,0,0-0.1
				c-10.6-0.2-21.2-0.4-31.8-0.7C332.5,330.7,332.9,339.2,333.4,348.2z M481.5,351.8l0.2-1.2c1.4-9.2,2.9-18.7,5.3-27.9l2.9,0.3
				c-2.4,9.1-3.8,18.6-5.3,27.8l-0.2,1.2L481.5,351.8z"/>
			<path class="st1" d="M326,231.1c-1.4,5.4-1.5,10.9-1.7,16.2c0,1.7-0.1,3.3-0.2,5c-6.2-0.1-434.5-0.3-440.7-0.4V231
				c3.4,0,429.1,0,432.6,0C319.3,231,322.7,231,326,231.1z"/>
			<path class="st1" d="M555.5,416c-0.2-3.1-0.3-6.1-0.5-9.2c-0.4-6.8-0.9-13.8-0.9-20.6c4.2,0.2,8.3,0.4,12.5,0.6v29.4
				C562.9,416.1,559.2,416,555.5,416z"/>
			<path class="st1" d="M379,351.5c10.5,0.3,21,0.6,31.5,0.9c0,0.1,0,0.2,0,0.3l3,0.1c0-0.1,0-0.2,0-0.3c21.1,0.5,42.1,1,63.1,1.4
				c-0.2,4.1-0.7,8.2-1.2,12.2c-0.6,4.8-1.1,9.7-1.2,14.6c-32.7-1.5-65.6-2.8-98.7-3.9C376.8,368.5,378.1,360,379,351.5z"/>
			<path class="st1" d="M566.5,206.2c-16.7-0.6-33.4-1-50.1-1.3c0.1-4.4,0.4-8.9,0.7-13.3c0.4-5.2,0.8-10.5,0.8-15.7
				c0-1.3,0-2.5-0.1-3.8c15.9,0.2,32.1,0.5,48.7,0.8V206.2z"/>
			<path class="st1" d="M356.8,229.7c-13.6-0.3-27.3-0.4-40.8-0.4c-3.5,0-429.2,0-432.6,0v-24.7c17.1,0.4,456.4,0.6,473.4,0.8V229.7
				z"/>
			<path class="st1" d="M566.5,231.1c-7.5,0.4-15.3,0.7-23.2,0.9c0.8-4.9,1.1-9.9,1.5-14.8c0.2-3.3,0.5-6.6,0.8-9.9
				c7,0.2,14,0.4,21,0.7V231.1z"/>
		</g>
		<g class="st4">
			<path class="st1" d="M230.5,59.8c0.4-7.4,0.8-15.1,2-22.5c30.2-0.1,64.9-0.2,86.7-0.3c-0.5,6.5-1.3,12.9-2.2,19.2
				c-0.9,6.5-1.8,13.2-2.3,19.9c-27.1-0.1-58.6-0.1-85.3-0.3C230,70.6,230.2,65.1,230.5,59.8z"/>
			<path class="st1" d="M165,107.5c0.3-1.4,0.4-4.2,0.4-9.6c0-2,0-4-0.1-6c0-2-0.1-4-0.1-6c0-3.3,0.2-6,0.4-8.5
				c28.2,0,48.5,0,53.8,0.1c10.1,0,21.2,0.1,32.4,0.1c-0.1,5.7-0.6,11.3-1.2,16.8c-0.4,4.4-0.9,8.9-1.1,13.4
				c-11-0.1-21.7-0.1-31.6-0.2C213,107.5,192.9,107.5,165,107.5z"/>
			<path class="st1" d="M109.9-20.7c0.1,0.9,0.1,1.7,0.1,2.6c0,5.1-0.9,10.2-1.9,15.1c-0.6,3.3-1.2,6.7-1.6,10
				c-10.8,0-22.1,0-33.7,0l-2.6-0.2c0,0.1,0,0.1,0,0.2C52.2,7,33.5,7,15.2,7v-27.8C47.3-20.8,80.7-20.7,109.9-20.7z"/>
			<path class="st1" d="M216.7,7.3C216.7,7.3,216.7,7.3,216.7,7.3c-4.6,0-9.1,0-13.2,0c0-9.1,0.5-18.3,1.3-27.5
				c23.6,0.4,56.3,0.8,87,1.2c-0.3,2.5-0.4,5.1-0.4,8.1c0,2.3,0.1,4.6,0.1,6.9c0.1,2.3,0.1,4.6,0.1,6.9c0,1.4,0,3.4-0.1,4.9
				c-25.3-0.2-52.1-0.3-74.1-0.5L216.7,7.3z"/>
			<path class="st1" d="M229.9,35.5c0,0,0,0.1,0,0.1c-5,0-9.9,0-14.5,0.1c0.5-4.6,1.3-9.3,2-13.9c0.7-4.2,1.4-8.6,1.9-12.9
				C235.5,9,254,9.1,271.8,9.1c0,0.7,0.1,1.4,0.1,2.1c0,4.7-0.5,9.7-1,14.4c-0.3,3.3-0.7,6.6-0.9,9.9c-13,0-26.4,0.1-38.9,0.2
				L229.9,35.5z"/>
			<path class="st1" d="M257.6,283.2c-8.5,0-30.9-0.1-60.7-0.1c-0.1-1.9-0.1-3.8-0.1-5.6c0-4.1,0.2-8.3,0.3-12.4
				c0.1-3.8,0.3-7.6,0.3-11.4c1.7,0,2.9,0,3.5,0c22.8,0.1,55.9,0.1,83.1,0.2v29.4C275.6,283.3,266.7,283.3,257.6,283.2z"/>
			<path class="st1" d="M207.7,217c0.3-4,0.7-8,0.9-12.1c22.1,0.1,51,0.2,77.6,0.3c-0.5,7.9-1.4,16.1-4.3,24.1
				c-22.8,0-52.5,0-75.1,0C207.1,225.1,207.4,221.1,207.7,217z"/>
			<path class="st1" d="M194.6,319.7c0-0.1,0-0.1,0-0.2l-2.8,0.2c-9.7,0-22.1,0-36.3-0.1c-0.9-12-1.8-22.9-3-34.2
				c25.4,0.1,48.5,0.1,66.8,0.2c0.9,4.1,1.4,8.5,1.4,13.9c0,3.6-0.2,7.2-0.4,10.7c-0.2,3.1-0.3,6.4-0.3,9.6c-2.4,0-4.7,0-6.9-0.1
				C210.6,319.8,204.1,319.8,194.6,319.7z"/>
			<path class="st1" d="M209.1,171c-4.3,0-23.5,0-50.7,0c1.7-6.9,2.6-13.9,3.5-20.7c26.1,0.1,44.2,0.1,47.8,0.2
				c9.6,0.1,20.3,0.3,31.7,0.4c0.2,1.6,0.4,3.2,0.4,5.1c0,2.7-0.3,5.5-0.5,8.2c-0.2,2.2-0.4,4.5-0.4,6.8c-5.6,0-11.2,0-16.5,0
				c0,0,0-0.1,0-0.1l-2.8,0.1c0,0,0,0,0,0C217.2,170.9,213,171,209.1,171z"/>
			<path class="st1" d="M184.6,35.9c0-6.1,0.4-12.4,0.9-18.4c0.2-2.9,0.4-5.8,0.5-8.7c3.9,0,6.4,0,7.1,0c6.6,0,14.6,0.1,23.3,0.1
				c-0.5,4.2-1.2,8.5-1.9,12.6c-0.8,4.7-1.6,9.5-2.1,14.2c-6,0-11.6,0.1-16.5,0.1C194.9,35.9,190.8,35.9,184.6,35.9z"/>
			<path class="st1" d="M122.1,75.7l2.8-0.2c-1.4-12.8-1.4-25.5-1.4-37.8c39.2,0,68.2-0.1,71.5-0.1c9.6-0.1,21.6-0.1,34.6-0.2
				c-1.2,7.4-1.6,15-1.9,22.3c-0.3,5.3-0.5,10.7-1.1,16.1l0.7,0.1c-2.4,0-4.7,0-7,0c-10.7-0.1-90.8-0.1-170.2-0.2
				C49.5,68.4,49.3,61,49.3,53c0-4.7,0.1-9.8,0.3-15.3c24.9,0,49.4,0,71.1,0C120.7,50,120.7,62.8,122.1,75.7z"/>
			<path class="st1" d="M181.3-36.9c0.3,4.7,0.7,9.6,1.5,14.6c-18.5,0-56-0.1-98.3-0.1c0.4-7.3,0.7-14.8,0.8-22.1h95.4
				C180.9-42.1,181.1-39.5,181.3-36.9z"/>
			<path class="st1" d="M31.7,77.3c-0.1,1.4-0.3,3.5-0.4,7.1c-0.4,7.9-1,19.7-1.4,22.9l0,0c-26.1,0-51.4-0.1-73.5-0.1
				c-0.6-4.7-1.5-9.3-2.4-13.8c-1-5.3-2-10.7-2.6-16.2C-24.9,77.3,3,77.3,31.7,77.3z"/>
			<path class="st1" d="M124.5,138c0-3.5,0.1-6.9,0.1-10.4c0-6.1-0.1-11.7-0.5-18.4c31.8,0,62,0,87.2,0.1
				c-1.4,7.3-1.8,14.9-2.1,22.2c-0.3,5.6-0.6,11.4-1.3,17.2c-6.2,0-23.8-0.1-47.9-0.1l-0.7-0.1l0,0.1c-10.5,0-22.3,0-34.8-0.1
				C124.4,144.9,124.5,141.5,124.5,138z"/>
			<path class="st1" d="M155.5,171c-22.1,0-49.1,0-77.4,0c0.2-2.9,0.6-6,0.9-8.9c0.5-3.9,1-8,1-11.9c29.1,0,56.7,0.1,78.9,0.1
				C158.2,157.2,157.2,164.2,155.5,171z"/>
			<path class="st1" d="M136.4,172.6c-1.4,4.9-1.6,9.9-1.9,14.8c-0.2,5.1-0.5,10.4-2.1,15.5l0.1,0c-22.2,0-48.5,0-75.5,0v-30.2
				C85.2,172.7,112.7,172.6,136.4,172.6z"/>
			<path class="st1" d="M185.6,403.8c0-0.9-0.1-2-0.1-2.5c0-3.6,1-7.3,1.9-10.8c0.9-3.6,1.9-7.4,1.9-11.2c0-0.8-0.1-1.6-0.2-2.3
				c16.7,0,28.4,0,32.4,0c16.5,0.1,35.3,0.1,53.1,0.2c0,0.8-0.1,1.7-0.1,2.5c0,2.3,0.1,4.6,0.1,7c0.1,2.3,0.1,4.7,0.1,7
				c0,3.3-0.1,6.9-0.4,9.9c-16.8,0.1-34.7,0.1-50.6,0.2C219.2,403.7,205.3,403.8,185.6,403.8z"/>
			<path class="st1" d="M15.6,249.7c0-0.9-0.1-1.8-0.1-2.7c0-0.3,0.1-1.2,0.3-2.4c0.4-3.1,1.2-8.5,1.3-13.6c27,0,54.9,0,80.5,0
				c0.1,1.7,0.2,3.3,0.4,5c0.3,4.1,0.7,8.3,0.7,12.4c0,1.2,0,2.3-0.1,3.4c-14.3,0-29.3,0-44.5,0l-2.6-0.2c0,0.1,0,0.1,0,0.2
				c-12,0-24,0-35.8,0C15.7,251.2,15.6,250.5,15.6,249.7z"/>
			<path class="st1" d="M14.2,231c-0.1,4.9-0.8,10.3-1.3,13.3c-0.2,1.4-0.3,2.4-0.3,2.7c0,0.9,0.1,1.9,0.1,2.8
				c0,0.7,0.1,1.4,0.1,2.1c-25.6,0-50.2,0-70.9,0l2.2-0.2c-0.3-2.6-0.4-5-0.4-7.3l0-3.7c0-2.9-0.1-6.2-0.7-9.6
				C-36.1,231-11.4,231,14.2,231z"/>
			<path class="st1" d="M-3.3,289.4c0,5.8,0.6,11.6,1.1,17.2c0.4,4.2,0.8,8.6,1,12.9c-14.9,0-29.2,0-42.4-0.1c0,0,0-0.1,0-0.1
				l-0.5,0.1c-10.4,0-20.1,0-28.7,0l1.4,0c-0.4-9.2-0.3-18.8-0.3-28.1l0-6.4c19,0.1,42.7,0.1,68.7,0.2
				C-3.3,286.5-3.3,287.9-3.3,289.4z"/>
			<path class="st1" d="M-90.9,348.7c17.3,0.1,42,0.1,69.9,0.2c0,3.5-0.3,7-0.5,10.4c-0.3,3.9-0.5,7.9-0.5,11.9c0,1.3,0,2.6,0.1,4
				c-10.8,0-21.1,0-30.6,0c0-0.1,0-0.1,0-0.2l-1.4,0.2c-13,0-24.6,0-34.1,0l1.1-0.3c-1.5-4.8-1.9-9.7-2.3-14.5
				C-89.6,356.5-90.1,352.6-90.9,348.7z"/>
			<path class="st1" d="M-17.2,172.7v30h2.8v-30c21.9,0,45.4,0,68.7-0.1v30.2c-45.8,0-93.4,0-126.6,0c-0.5-5.4-1.7-10.6-2.8-15.7
				c-1.1-4.7-2.1-9.5-2.6-14.4C-61.1,172.8-40.2,172.8-17.2,172.7z"/>
			<path class="st1" d="M216.8,347.2c-0.1,0-0.2,0-0.4,0c-2.3,0-4.6,0-6.8,0c-2,0-7,0-14.4,0c-0.1-2.5-0.2-5-0.2-7.5l0-7.1
				c0-3.6-0.1-7.4-0.4-11.4c9.6,0,16.2,0,18.7,0c14,0.1,30.1,0.1,45.8,0.2c0.3,2.3,0.5,4.6,0.5,7.1c0,6.7-1.1,13.3-2.2,18.9
				c-13.8-0.1-27.8-0.2-40.3-0.2C217,347.2,216.9,347.2,216.8,347.2z"/>
			<path class="st1" d="M-20.5,50.9c-0.2,4.9-0.4,9.9-0.4,14.9c0,3.6,0.1,6.8,0.3,9.9c-9.9,0-19.3,0-28.2,0c0,0,0-0.1,0-0.1
				l-1.4,0.1c-9.9,0-18.9,0-27.1,0l1.1-0.1c-0.4-3-0.9-6.1-1.4-9.1c-1.5-9.2-2.9-17.9-2.9-26.9c0-0.5,0-1.1,0-1.6
				c16.4,0,37.3,0,60.2,0C-20.2,42.1-20.3,46.6-20.5,50.9z"/>
			<path class="st1" d="M-10.9-32.4c0,3.2,0.1,6.5,0.3,9.8c-4.5,0-8.8,0-13.2,0c0.2-3.7,0.7-7.6,1.1-11.5c0.4-3.5,0.8-7.1,1.1-10.6
				h10.2C-11.1-40.5-11-36.4-10.9-32.4z"/>
			<path class="st1" d="M-69.5,109c14.7,0,32,0,51.1,0.1c-0.6,3-0.8,5.7-0.8,8.9c0,5.5,0.6,11.1,1.3,16.5c0.5,4.4,1,9.1,1.2,13.5
				l2.8-0.1c-0.2-4.5-0.7-9.2-1.2-13.7c-0.6-5.4-1.3-10.9-1.3-16.3c0-3.3,0.3-5.9,0.8-8.9c19.7,0,41.2,0,63.2,0.1
				c-0.2,6.4-0.6,12.8-0.9,19.2c-0.4,6.7-0.7,13.4-0.9,20c-35.6,0-71.1-0.1-99.8-0.1c0,0,0-0.1,0-0.1l-1.8,0.1c-5.6,0-11,0-16,0
				C-70.4,134.8-70,121.7-69.5,109z"/>
			<path class="st1" d="M228,475.7c-3.3,0-10.7,0-21.3-0.1c-0.1-1.2-0.2-2.3-0.2-3.5c0-5.3,0.9-10.7,1.9-15.9
				c0.6-3.5,1.2-7.1,1.6-10.7c8.1,0,13.8,0,16.5,0c19.6,0.1,41.8,0.1,61.6,0.2c-0.2,3.7-0.6,7.5-0.9,11.1c-0.6,5.4-1.1,11-1.1,16.5
				c0,0.9,0,1.8,0.1,2.7C267.3,475.9,246.5,475.8,228,475.7z"/>
			<path class="st1" d="M191.8,321.2c0.3,3.9,0.4,7.8,0.4,11.4l0,7.1c0,2.5,0,5,0.2,7.5c-15.3,0-39.1-0.1-67-0.1
				c0.2-2.9,0.4-5.7,0.6-8.6c0.4-4.8,0.8-9.7,0.8-14.6c0-0.9,0-1.8-0.1-2.7C153.1,321.2,176,321.2,191.8,321.2z"/>
			<path class="st1" d="M-47.5,403.5c-2-5.9-2.8-12.1-3.5-18c-0.3-2.9-0.7-5.8-1.2-8.8c24.1,0,52.9,0,82.6,0
				c0.3,1.8,0.5,3.7,0.5,5.8c0,3.6-0.5,7.3-1,10.8c-0.5,3.5-1,7-1,10.6c-28.1,0-55.3,0.1-78.4,0.1L-47.5,403.5z"/>
			<path class="st1" d="M297.3,367.7c0.9-4,1.8-8.1,1.8-12.3c0-1.8-0.2-3.4-0.6-5c3.4,0,6.7,0.1,10,0.1c0,0.5,0,1,0,1.5
				c0,1,0.1,2,0.1,3.1c0,1-0.2,2.9-0.5,5.3c-0.4,4.3-1.1,10.1-1.1,15.6c-3.7,0-7.4-0.1-11.2-0.1
				C296.1,373.2,296.7,370.4,297.3,367.7z"/>
			<path class="st1" d="M200.7,539l0.1-1.4c0.4-6.2,0.8-12.6,0.8-18.9c14.5,0,24.6,0.1,28.3,0.1c15,0.2,31.6,0.3,48.6,0.4
				c0.2,1,0.3,2,0.3,3.1c0,3-0.6,6.2-1.2,9.2c-0.4,2.4-0.9,4.9-1.1,7.3c-8.9,0-18.2,0-27.4,0.1c0,0,0,0,0-0.1l-2.8-0.5
				c-0.1,0.2-0.1,0.4-0.1,0.6c-6.9,0-13.6,0-20.1,0.1C222.5,539,213.5,539,200.7,539z"/>
			<path class="st1" d="M-72.4,525.5c0,4.1,0.3,8.6,0.9,13.7c-26.8,0-44.3,0-45.1,0.1v-21.4c2.4,0.1,19.3,0.2,44.6,0.3
				C-72.2,520.4-72.4,522.9-72.4,525.5z"/>
			<path class="st1" d="M-81.7,447.7c0,3.4-0.2,6.9-0.4,10.2c-0.2,3.4-0.4,6.8-0.4,10.3c0,2.4,0.1,4.6,0.3,6.6l2.8-0.2
				c-0.2-2-0.3-4.1-0.3-6.4c0-3.4,0.2-6.9,0.4-10.2c0.2-3.4,0.4-6.9,0.4-10.4c0-0.8,0-1.6-0.1-2.5c16.8,0,38.1,0,61.6,0.1
				c-0.1,1.9-0.1,3.7-0.1,5.6c0,4.3,0.2,8.6,0.3,12.9c0.1,3.8,0.2,7.6,0.3,11.5c-55.1-0.1-98-0.1-99.8-0.2v-29.9
				c0.9,0,14.1,0.1,34.9,0.1C-81.7,446.1-81.7,446.9-81.7,447.7z"/>
			<path class="st1" d="M-44.8,332.2c0,1.9-0.1,3.9-0.1,5.8c-0.1,1.9-0.1,3.9-0.1,5.8c0,1.1,0,2.1,0.1,3.1
				c-41.1,0-70.8-0.1-71.5-0.1V321c0.8,0,29.9,0.1,70.5,0.1C-45,325.2-44.8,329.1-44.8,332.2z"/>
			<path class="st1" d="M-47.4,550c-0.3,3.6-0.5,7.3-0.5,11c0,3.6,0.3,6.9,0.9,9.9c-40.4,0-69,0-69.5,0v-30
				c2.6-0.1,30.6-0.1,69.6-0.2C-47,543.9-47.2,547-47.4,550z"/>
			<path class="st1" d="M-92.1,360.5c0.4,4.7,0.9,9.7,2.3,14.5c-15.7,0-25.7,0-26.8-0.1v-26.4c0.9,0,9.3,0.1,22.8,0.1
				C-92.9,352.6-92.5,356.6-92.1,360.5z"/>
			<path class="st1" d="M-36.5,443.2h2.8c0-12.4,0-25.1,0.9-37.5c17,0,35.5,0,54.6-0.1c0,1.8-0.1,3.6-0.1,5.4c0,9.5,0.6,19.6,2,32.6
				c-72.3-0.1-136.8-0.2-140.3-0.3v-37.5c1.3-0.1,35.1-0.1,80.9-0.2C-36.5,418.2-36.5,430.9-36.5,443.2z"/>
			<path class="st1" d="M-89.5,487.1c1.3,9.6,2.6,19.6,6.6,29.1c-19.5-0.1-32.1-0.1-33.6-0.2v-39.1c1.9,0.1,11.2,0.2,25.6,0.2
				C-90.4,480.4-89.9,483.8-89.5,487.1z"/>
			<path class="st1" d="M-34.2,20.1c0.1,5.2,0.1,10.5,0.9,15.9c-46.9,0-82.5,0.1-83.3,0.1V8.7c0.8,0,35.8,0,82,0
				C-34.3,12.6-34.2,16.4-34.2,20.1z"/>
			<path class="st1" d="M-91.4,88.9c0.6,5.2,1.2,10.5,1.2,15.7c0,0.8,0,1.7-0.1,2.5c-15.8,0-25.7-0.1-26.4-0.1V77.1
				c0.7,0,9.6,0,24.1,0.1C-92.3,81.1-91.8,85.1-91.4,88.9z"/>
			<path class="st1" d="M-82.4-1.9c0,3,0.1,5.9,0.2,8.8c-20.5,0-33.6,0-34.4,0v-28c0.8,0,14.1,0.1,34.7,0.1
				C-82.1-14.9-82.4-8.3-82.4-1.9z"/>
			<path class="st1" d="M-56.7,151.7c0,1.9-0.1,3.8-0.1,5.7c-0.1,1.9-0.1,3.9-0.1,5.8c0,3.1,0.2,5.6,0.6,8c-35.1,0-59.4,0-60.2,0.1
				v-21.4c2.1,0.1,25.9,0.2,59.8,0.2C-56.7,150.5-56.7,151.1-56.7,151.7z"/>
			<path class="st1" d="M-17,262.1c-0.4,5.3-0.8,10.8-0.8,16.2c0,1.4,0,2.8,0.1,4.2l2.8-0.1c-0.1-1.4-0.1-2.8-0.1-4.2
				c0-5.3,0.4-10.8,0.8-16.1c0.2-2.9,0.4-5.8,0.6-8.6c20.7,0,42.9,0,64.9,0c-0.3,4-0.4,8.3-0.4,13.7c0,2.6,0,5.2,0.1,7.8
				c0,2.6,0.1,5.2,0.1,7.8h2.8c0-2.6,0-5.2-0.1-7.8c0-2.6-0.1-5.2-0.1-7.8c0-5.5,0.1-9.8,0.4-13.7c27.3,0,54.2,0,77.3,0
				c0,1-0.1,2-0.1,3c0,2.9,0.1,5.7,0.2,8.5c0.1,2.8,0.2,5.6,0.2,8.4c0,3.6-0.2,6.6-0.5,9.5c-108.2-0.1-245-0.2-247.8-0.3v-29.2
				c0.8,0,45,0,100.2,0.1C-16.6,256.5-16.8,259.3-17,262.1z"/>
			<path class="st1" d="M-85.4,207.9c0,4.6,1.1,9.3,2.1,13.8c0.6,2.4,1.1,4.8,1.5,7.1l2.8-0.3c-0.4-2.4-1-4.9-1.5-7.3
				c-1-4.4-2.1-8.9-2.1-13.3c0-1.1,0.1-2.2,0.3-3.2c13.5,0,30.3,0,48.8,0c0.8,4.1,1.4,8.2,1.9,12.2c0.5,4,1.1,8.2,1.9,12.4
				c-9.7,0-19,0-27.6,0c0,0,0,0,0,0l-0.2,0c-34.8,0-58.9,0-59.1,0v-24.7c0.6,0,12.6,0,31.5,0C-85.2,205.7-85.4,206.7-85.4,207.9z"/>
			<path class="st1" d="M105.9,403.9l0.1-2.3c0.2-4.3,0.5-9.1,0.5-12.9c0-4.4-0.3-8.3-0.8-11.9c31,0,59.4,0,80.5,0.1
				c0.1,0.8,0.2,1.5,0.2,2.3c0,3.6-0.9,7-1.9,10.7c-1,3.7-1.9,7.4-1.9,11.3c0,0.5,0,1.6,0.1,2.5C161.9,403.8,135,403.8,105.9,403.9z
				"/>
			<path class="st1" d="M125.8,445.4c0,3.2-0.1,6.5-0.3,9.8c-0.2,3.5-0.3,7.1-0.3,10.7c0,3.6,0.2,6.7,0.5,9.6
				c-22.4,0-46.6-0.1-70.9-0.1c-1.3-9.6-2.7-20.4-2.9-30C77.2,445.4,102.5,445.4,125.8,445.4z"/>
			<path class="st1" d="M59.2,360.3l0,2.5c0,4.1,0.1,8.2,0.7,12.4c-27.9,0-56.1,0-81.5-0.1l2.4-0.1c-0.1-1.3-0.1-2.6-0.1-3.9
				c0-3.9,0.3-7.9,0.5-11.7c0.2-3.4,0.4-7,0.5-10.5c24.2,0,50.7,0.1,76.9,0.1C59.1,352.8,59.2,356.5,59.2,360.3z"/>
			<path class="st1" d="M39.3,477.5c1.5,15.5,6.1,37.9,6.2,38.1c0,0.2,0,0.5-0.1,0.8c-25.4,0-50.4-0.1-72.9-0.1
				c0.3-4.7,0.9-9.4,1.4-14c0.9-7.6,1.8-15.4,1.8-23.1c0-0.6,0-1.2,0-1.9C-4.4,477.4,17.3,477.5,39.3,477.5z"/>
			<path class="st1" d="M-80.1,515.9c-4-9.4-5.3-19.4-6.6-29c-0.4-3.2-0.9-6.5-1.4-9.7c15.8,0.1,37,0.2,61,0.2c0,0.6,0,1.2,0,1.9
				c0,7.6-0.9,15.4-1.8,22.9c-0.5,4.7-1.1,9.5-1.4,14.2c-19.4,0-36.9-0.1-51-0.1L-80.1,515.9z"/>
			<path class="st1" d="M68.6,523.1c0,2.1,0.1,4.3,0.2,6.4c0.1,2.1,0.2,4.2,0.2,6.3c0,1.1,0,2.1-0.1,3.2l2.8,0.1
				c-26,0-52.5,0-77.1,0c0.5-3.6,1.3-7.2,2-10.6c0.7-3.3,1.5-6.8,2-10.2c22.5,0.1,46.5,0.1,70.2,0.2
				C68.6,519.8,68.6,521.3,68.6,523.1z"/>
			<path class="st1" d="M174.3,443.9c0.1-2.1,0.1-4.2,0.2-6.3c0.3-10.8,0.7-21.9,2.4-32c24.1,0,41.3-0.1,46.4-0.1
				c7.5,0,15.4-0.1,23.4-0.1c0,12.6,0,25.6-1.8,38.7c-6.5,0-12.9-0.1-19-0.1C220.6,443.9,201.2,443.9,174.3,443.9z"/>
			<path class="st1" d="M109.5,516.6c0.4-4.7,1.2-9.4,2-13.9c1.1-6,2.3-12.3,2.3-18.5c0-2.3-0.2-4.4-0.5-6.4
				c18.4,0.1,35.8,0.1,51.3,0.2c-0.1,0.9-0.1,2-0.1,3.5c0,4.6-0.2,9.3-0.4,13.8c-0.2,4.5-0.4,9.2-0.4,13.9c0,2.7,0.1,5.2,0.2,7.6
				C147.4,516.6,128.9,516.6,109.5,516.6z"/>
			<path class="st1" d="M152.6,319.7c-22.9,0-50.2-0.1-78.5-0.1c0.1-1,0.1-2.6,0.1-5.1c0-2.9-0.1-5.9-0.1-8.8
				c-0.1-2.9-0.1-5.8-0.1-8.8c0-4.5,0.2-8.2,0.5-11.6c25.7,0.1,51.4,0.1,75.1,0.2C150.8,296.8,151.7,307.7,152.6,319.7z"/>
			<path class="st1" d="M101.5,248.5c0-4.2-0.3-8.5-0.7-12.6c-0.1-1.6-0.3-3.3-0.4-4.9c30.7,0,57.8,0,75.6,0
				c-1.5,9.9-2.5,20.7-2.5,20.8l1.4,0.1c-18.2,0-44.4,0-73.7,0C101.4,250.8,101.5,249.6,101.5,248.5z"/>
			<path class="st1" d="M70.1,8.8c-0.2,1.7-0.3,3.3-0.5,5C68.8,21.1,68,28.6,68,36c-33.1,0-68,0-98.4,0.1c-0.7-5.4-0.8-10.7-0.9-16
				c0-3.7-0.1-7.5-0.4-11.4C-0.3,8.7,36,8.7,70.1,8.8z"/>
		</g>
	</g>
	<path class="st1" d="M481.8,351.8l3,0.2l0.2-1.2c1.4-9.1,2.9-18.6,5.2-27.8l-2.9-0.3c-2.4,9.2-3.8,18.7-5.3,27.9L481.8,351.8z"/>
</g>
<rect x="-10.2" y="54" class="st5" width="226" height="59"/>
<g id="XMLID_185_">
	<g>
		<path class="st6" d="M289.2,124c8.2,10.5,37.4,0.6,48.8-0.2c12.1-1.1,47.4,1.6,52.6-12.4c3.3-8.9-4.3-18.3-12.6-22.1l0,0
			c-19.6-5.6-55.6-1.5-75.2,4C292.6,95.9,274.4,104.8,289.2,124z M382.5,135.4c-26.7-4-59.9-1.8-87.3,6.1l0-0.1
			c-6.8,1.9-15.7,3.6-19.4-0.3c-2.1-2.1-5.6-9.8-5.9-13.1c-0.6-10.8-1.2-27.9,7.3-36.1c8.3-7.4,25.7-10.3,39.6-12.3
			c4.2-0.6,8-1.1,11.2-1.6c20-4.2,43.4-6.7,63.4,0c16.1,5.3,22.7,30.7,20.8,46.5C410.5,139,394.9,135.1,382.5,135.4z"/>
		<path class="st7" d="M391.2,78.1c16.1,5.3,22.7,30.7,20.8,46.5c-1.6,14.4-17.1,10.5-29.5,10.9c6.7,1,13,2.4,18.6,4.1
			c6.1-0.6,11.7-0.5,16.7,0.4c20.2-2.5,33.4-13.4,18.9-42.8c-10.7-21.5-62.8-30.5-120.2-17.5c4.2-0.6,8-1.1,11.2-1.6
			C347.8,73.8,371.1,71.3,391.2,78.1z"/>
		<path class="st6" d="M401.1,139.6c-1.4,0.1-2.9,0.4-4.5,0.6c2.5,0.2,5,0.3,7.4,0.4c-0.5-0.2-1.1-0.4-1.7-0.6
			C402,139.9,401.6,139.7,401.1,139.6z"/>
		<path class="st7" d="M401.1,139.6c0.5,0.1,0.9,0.3,1.3,0.4c0.6,0.2,1.1,0.4,1.7,0.6c4.8,0.1,9.5,0,13.8-0.6
			C412.8,139.1,407.3,138.9,401.1,139.6z"/>
		<path class="st8" d="M447.4,612c-7.7,0.3-15.5,0.6-23.5,0.9c1.7,4.3,6,9.4,9.8,9.7c7.8,1,14.1-3.8,14.4-10.6
			C447.9,612,447.6,612,447.4,612z"/>
		<path class="st8" d="M411.4,582.3c2.4-2.2,5.3-9.3,0.6-10.2l0,0c-4.4,3.4-9.1,5.9-14,8.7C400.5,585.2,408,585.6,411.4,582.3z"/>
		<path class="st9" d="M447.4,611.3c-18.5,0.3-39.2-7.3-56.4-12.9c-9.6-3.2-20.1-5.8-30-7.8c-1.3-0.3-3.5-1.4-5.3-2.8
			c1.2,8.4,2.2,16.8,3,25.3c0,0,0.1,0,0.1,0c20.9,0.5,43.3,0.4,65.1-0.2c7.9-0.2,15.8-0.5,23.5-0.9L447.4,611.3z"/>
		<path class="st9" d="M296,664.4l8.9-6.5c6-4.7,12.2-10,18.3-15.4c1.6-1.5,3.2-2.9,4.8-4.3c8.5-7.5,16.8-15,24.7-20.8
			c0-0.5-0.1-2.5-0.2-3c-0.1-1.5-0.3-3.1-0.6-4.7c-0.7-3.3-1.2-6.6-1.8-9.8c-1.4-6.4-3.8-12-5.7-18.1c-2.4-0.7-4.6-0.6-6.6,0.2
			c0.6,2.1,1.1,4.2,1.6,6.3c-4.1,5.1-7.8,10.3-11.2,15.8c-12.2,18.9-21.5,39.6-32.1,59.9C296.1,664.1,296,664.3,296,664.4z"/>
		<path class="st10" d="M390.9,598.4c17.3,5.6,37.9,13.2,56.4,12.9l0,0.7c0.2,0,0.5,0,0.7,0c4.6-0.3,9.2-0.5,13.7-0.8l0.1-0.4
			c-22.5-8.5-48.7-17.9-73.7-23.6c-11.5-2.7-22.8-4.5-33.3-5.1c0,0,0,0-0.1,0c0.3,1.9,0.5,3.7,0.8,5.6c1.7,1.4,4,2.5,5.3,2.8
			C370.8,592.6,381.3,595.2,390.9,598.4z"/>
		<path class="st11" d="M287.9,600.3c3.8,0.5,7.3,1,10.9,1.4c7.1,0.8,14,1.4,21.6,1.9c3.7-6.5,8.6-16.3,15.1-20.3
			c-17.1,1.4-60.8,9.2-75.1,12c0,0.2-0.1,0.3-0.1,0.5c4,0.8,7.8,1.4,11.3,2C277.5,598.8,282.8,599.6,287.9,600.3z"/>
		<path class="st12" d="M218.1,404c19.7-9.2,40.5-18.3,62.5-20.5c0-0.9,0-1.8,0.1-2.8c-8.2,1.1-16.3,2.4-24.2,3.9
			c-2.5,0.5-5.1,0.9-7.6,1.5c-22.2,4.9-39.3,12-58.8,22.3c-11,5.3-45.2,29.2-45.4,47.8c0,2.6,0.6,5.2,2.1,7.5
			c7.9,12,86.7,12.7,101.7,11.1c28.1-2.6,41.5,0.4,67.5-8.8c18.5-6.9,49.5-30,62.8-43.5c8.8-8.1,30.8-28.5,27.6-39.7
			c-0.3-0.3-0.5-0.7-0.8-0.9c0.1-0.2,0.1-0.4,0.2-0.6c-1.7-3.1-5.9-5.2-13.6-5.8c0,0-0.1,0-0.1,0c-0.4,0-0.8-0.1-1.3-0.1
			c-1.1,0-3.1-0.1-5.3-0.3c-0.3,0-0.6,0-0.9,0l0,0.2c-11.9,16.9-19.5,34.4-35.3,47.6c-13.1,11-27.9,18.5-44.1,24.2
			c-34.7,12.3-75.8,10.8-111.8,10.4c-15.2,0-29.7-2.4-20.2-20.5C183.2,419.8,201.2,411.4,218.1,404z"/>
		<path class="st11" d="M352.8,617.4c2-1.5,4-3,5.9-4.2c0,0,0,0,0-0.1c-0.8-8.5-1.8-16.9-3-25.3c-2.2-1.8-3.6-4.1-0.8-5.6l0,0
			c-0.2-1.1-0.3-2.1-0.5-3.2c-0.3-1.8-0.6-3.6-0.8-5.4c-3.1-20-6.6-39.9-8.9-60c-7.9,3.1-16.6,5.8-25.4,7.8
			c5.6,17.4,12,36.3,17.2,55c0.5,1.9,1,3.7,1.5,5.6c2-0.8,4.3-0.9,6.6-0.2c1.9,6.1,4.3,11.7,5.7,18.1c0.6,3.2,1.1,6.5,1.8,9.8
			c0.3,1.6,0.5,3.2,0.6,4.7C352.6,614.9,352.8,616.9,352.8,617.4z"/>
		<path class="st10" d="M335.4,583.3c-6.5,4-11.4,13.8-15.1,20.3c2.6,0.2,5.2,0.4,8,0.5c3.5-5.4,7.2-10.7,11.2-15.8
			c-0.5-2.1-1-4.2-1.6-6.3C337,582.3,336.2,582.8,335.4,583.3z"/>
		<path class="st11" d="M417.3,567.3c-18.5,2.4-43.9,8.7-62,11.6l-1,0.1c0.1,1.1,0.3,2.1,0.5,3.2c0,0,0,0,0.1,0
			c10.5,0.6,21.8,2.4,33.3,5.1l0.1-0.5c3.2-2.3,6.4-4.2,9.6-6.1c4.8-2.8,9.5-5.3,14-8.7C413.8,570.7,415.6,569.1,417.3,567.3z"/>
		<path class="st6" d="M396.6,140.2c1.5-0.2,3-0.5,4.5-0.6c-5.6-1.8-11.9-3.1-18.6-4.1c-26.7-4-59.9-1.8-87.3,6.1
			c-12.4,3.6-23.7,8.4-32.5,14.2c-20.4,14-16.7,39-16.4,61.6c0.2,22.7,4,45.6,5.7,68.5c2.1,32.6,3.3,66.5,4.6,98.7
			c7.9-1.5,16-2.7,24.2-3.9c0.9-26.3,1.9-53.5-2.2-78.7c-5.2-36.3-12.4-74.1-9.6-111c2.7-35.7,76.4-42.9,109.9-28.6
			c23.9,10.4,17.1,31.3,18.2,54.4c0.9,20.4,0.7,41.8-0.4,62.1c-1.7,30.2,1.2,67.2-10.7,95.3c2.2,0.2,4.4,0.6,6.4,0.9c0,0,0,0,0.1,0
			c7.7,0.6,11.9,2.7,13.6,5.8c5.8-16.8,8.2-50.4,10.5-64.9c3.5-23.8,3.5-48,5.6-72c1.9-26.3,12.8-91.4-18-103.5
			C401.6,140.5,399.2,140.4,396.6,140.2z"/>
		<path class="st13" d="M249.2,515.6c47-2.7,95.3-12.3,132.4-36.1c13.1-8.4,24.9-18.6,34.6-30.9c6.1-19.9,1.9-51.6-9.6-65.9
			c3.1,11.2-18.9,31.6-27.6,39.7c-13.3,13.5-44.3,36.7-62.8,43.5c-26,9.2-39.4,6.2-67.5,8.8c-15,1.6-93.8,0.9-101.7-11.1
			c-1.5-2.3-2.2-4.9-2.1-7.5l-0.4,0c-0.5,48.6,39.9,60.8,83.2,60.3C234.8,516.3,242,516,249.2,515.6z"/>
		<path class="st13" d="M280.7,383.5c-22.1,2.2-42.9,11.3-62.5,20.5c-17,7.4-35,15.8-44.8,32.7c-9.5,18.1,5,20.5,20.2,20.5
			c36,0.4,77.1,2,111.8-10.4c16.1-5.7,31-13.2,44.1-24.2c15.8-13.3,23.4-30.8,35.3-47.6l0-0.2c0.3,0,0.6,0,0.9,0
			c0.1-0.2,0.2-0.4,0.2-0.6c-15.6-1.7-35.6-1.1-45.2-0.2c-19.4,2.1-40,3.9-59.9,6.6C280.7,381.7,280.7,382.6,280.7,383.5z"/>
		<path class="st8" d="M271.5,597.8c-0.9,11.7,20.4,11.2,16.3,2.5C282.8,599.6,277.5,598.8,271.5,597.8z"/>
		<path class="st10" d="M293.4,582.9c-7,1.5-31.3,3.5-33.1,12.3c14.3-2.8,58-10.6,75.1-12c0.8-0.5,1.6-0.9,2.5-1.2
			c-0.5-1.9-1-3.7-1.5-5.6C322.5,576.1,307,579.6,293.4,582.9z"/>
		<path class="st10" d="M292.9,651.3c-1.5,3.9-5.6,14.6,3.3,12.7c10.6-20.3,19.8-40.9,32.1-59.9c-2.8-0.2-5.4-0.3-8-0.5
			c-0.7,1.3-1.4,2.5-2,3.5c-4.7,7-8.2,14.3-12.5,21.5C301,636.7,295.5,642.2,292.9,651.3z"/>
		<path class="st8" d="M304.9,657.9c1.6,5.2,14,2,16.9-1.3c3.3-4,3.1-9.3,1.5-14.1C317.1,647.9,310.9,653.3,304.9,657.9z"/>
		<path class="st9" d="M319.2,521.5c8.8-2,17.5-4.7,25.4-7.8c23.2-9.1,40.4-21.9,36.9-34.1c-37.1,23.8-85.3,33.4-132.4,36.1
			C259.2,528.6,289.8,528.4,319.2,521.5z"/>
		<path class="st12" d="M280.8,380.7c20-2.7,40.5-4.5,59.9-6.6c9.6-0.9,29.6-1.5,45.2,0.2c11.9-28.1,8.9-65.1,10.7-95.3
			c1.2-20.4,1.3-41.8,0.4-62.1c-1.1-23.1,5.8-44-18.2-54.4c-33.4-14.3-107.1-7.1-109.9,28.6c-2.8,36.9,4.4,74.7,9.6,111
			C282.6,327.2,281.6,354.4,280.8,380.7z"/>
		<path class="st11" d="M354.8,582.2c-2.8,1.5-1.4,3.8,0.8,5.6C355.4,585.9,355.1,584.1,354.8,582.2z"/>
		<path class="st9" d="M354.8,582.2L354.8,582.2C354.9,582.2,354.9,582.2,354.8,582.2C354.9,582.2,354.9,582.2,354.8,582.2z"/>
		<path class="st10" d="M353.5,573.6c0.3,1.8,0.6,3.6,0.8,5.4l1-0.1c18-2.9,43.4-9.2,62-11.6l0.1-0.2c-10-3.6-19.5-2.3-29.9-0.4
			C376.3,569,364.7,570.1,353.5,573.6z"/>
		<path class="st12" d="M302.8,93.3c-10.2,2.5-28.4,11.5-13.6,30.7c8.2,10.5,37.4,0.6,48.8-0.2c12.1-1.1,47.4,1.6,52.6-12.4
			c3.3-8.9-4.3-18.3-12.6-22.1l0,0C358.4,83.8,322.4,87.8,302.8,93.3z"/>
		<path class="st7" d="M406,381.1c0.2,0.5,0.4,1,0.6,1.5c11.5,14.3,15.6,46,9.6,65.9c14.1-17.8,24.1-40,28.3-67.5
			c7.4-48.8,51.1-228-26.6-241.1c-4.3,0.6-9,0.8-13.8,0.6c30.8,12.1,19.9,77.2,18,103.5c-2.1,24-2.1,48.2-5.6,72
			C414.1,330.7,411.8,364.2,406,381.1z"/>
	</g>
</g>
<g>
	<path class="st14" d="M324.3,671.9c1.5-17.1,1.7-27.6,1.7-27.6l11.7-201.1l13.7,228.7h22.7l7.4-222.4c0,0,0.4-11,1-29.4v-43.3
		h-89.6V420c0.6,18.4,1,29.4,1,29.4l7.4,222.4H324.3z"/>
	<g>
		<g>
			<g>
				<g>
					<path class="st15" d="M397.7,403.8c0,0-4.9,7-5,7.5c-0.1,0.5,1,16.5,4.5,16.6c3.5,0,4.8-19,3.3-20.3
						C399.1,406.3,398.2,404.1,397.7,403.8z"/>
					<g>
						<path class="st15" d="M418.2,399.9c2.2,5.7-0.1,27.3-1.1,31.8c-0.5,2.4-2.6,2.7-4.3,2.8c-5.4,0.1-10.2,4.4-12.9,2.5
							c-0.7-0.5-4.1-1.1-3.7-4.4c0.8-7.2,1.4-17.1,1.3-28.6C400.9,393.7,415.9,396,418.2,399.9z"/>
					</g>
				</g>
				<path class="st15" d="M406.9,291.3c0,0,1.3,7.1,2.3,9.9c1,2.8,4.1,16.1,4.5,20s6.7,76.9,3.3,82.6c-3.5,5.7-15.5,3.9-17,0.5
					c-1.5-3.4-9.6-62-10.1-65.9s-4.3-35.2-6-38.6C382.1,296.5,405.8,287.5,406.9,291.3z"/>
				<g>
					<path class="st16" d="M372.2,214.2c30.7-4.3,43.7,64.7,44.4,112c0,3.1-28.4,9.9-28.9,3.6c-2.5-27.2-9.4-70.5-14.8-85.9
						C370.7,237.7,368.6,214.7,372.2,214.2z"/>
				</g>
				<g class="st3">
					<path class="st17" d="M377.7,214.2c21.8,12.3,30.2,84.4,30.8,104.2c0.1,2.1-12.7,5.8-21.3,6.1c0.3,1.6,0.6,3.3,0.9,5.1
						c1.1,6.2,29-0.6,28.9-3.6C416.4,302.6,409.7,221.5,377.7,214.2z"/>
				</g>
			</g>
			<g>
				<path class="st16" d="M385.9,329.3l0.4,4.4c0.3,2.8,2.4,4.6,4.8,4.1l5.4-1.3l19.2-4.2c2.3-0.5,4-3,4-5.7l0-6.7
					c0-3.2-2.5-5.4-5.2-4.6l-23.1,7.2l-1.9,0.6C387.3,323.8,385.6,326.6,385.9,329.3z"/>
				<path class="st18" d="M391.5,322.5c0,0,12.3-4.1,13,3c0.5,4.8-3.3,8.4-7.9,11.1l19.2-4.2c2.3-0.5,4-3,4-5.7l0-6.7
					c0-3.2-2.5-5.4-5.2-4.6L391.5,322.5z"/>
			</g>
		</g>
		<g>
			<g>
				<g>
					<path class="st15" d="M273,412.1c0,0,5.1,6.9,5.1,7.4s-0.6,16.6-4.1,16.7c-3.5,0.1-5.3-18.8-3.8-20.2
						C271.7,414.6,272.5,412.3,273,412.1z"/>
					<g>
						<path class="st15" d="M252.4,408.7c-2,5.8,0.8,27.3,1.8,31.7c0.6,2.4,2.7,2.7,4.3,2.7c5.4-0.1,10.3,4.1,13,2.1
							c0.7-0.5,4-1.2,3.6-4.5c-1-7.2-1.8-17.1-2-28.6C269.6,402,254.6,404.7,252.4,408.7z"/>
					</g>
				</g>
				<path class="st15" d="M261.1,299.9c0,0-1.1,7.1-2,9.9s-3.7,16.2-4,20.1c-0.4,3.9-4.9,77-1.3,82.7s15.6,3.5,17,0.1
					c1.4-3.5,8.2-62.2,8.5-66.1c0.4-3.9,3.5-35.3,5.1-38.7S262.1,296,261.1,299.9z"/>
				<path class="st19" d="M252.8,408.2c-1.7-17.1,1.9-74.8,2.3-78.3c0.4-3.9,3.1-17.3,4-20.1c0.9-2.9,2-9.9,2-9.9
					c0.3-1.1,2.5-1.2,5.5-0.7c-0.2,1-0.5,2-0.7,2.7c-0.9,2.9-3.7,16.2-4,20.1c-0.3,3.4-3.9,61.2-2.3,78.3c-0.1,0.2-0.3,0.3-0.4,0.5
					c-2,5.8,0.8,27.3,1.8,31.7c0.6,2.4,2.7,2.7,4.3,2.7c3.5,0,6.7,1.7,9.3,2.4c0.1,1.1,0.3,2.2,0.4,3.2c0.5,3.2-2.9,3.9-3.6,4.5
					c-2.7,2-7.5-2.2-13-2.1c-1.6,0-3.8-0.2-4.3-2.7c-1-4.4-3.8-25.9-1.8-31.7C252.5,408.5,252.6,408.4,252.8,408.2z"/>
				<g>
					<path class="st16" d="M297.9,217.3c-30.7-4.3-43.7,64.7-44.4,112c0,3.1,28.4,9.9,28.9,3.6c2.5-27.2,9.4-70.5,14.8-85.9
						C299.4,240.8,301.4,217.8,297.9,217.3z"/>
				</g>
				<g class="st3">
					<path class="st17" d="M292.4,217.3c-21.8,12.3-30.2,84.4-30.8,104.2c-0.1,2.1,12.7,5.8,21.3,6.1c-0.3,1.6-0.6,3.3-0.9,5.1
						c-1.1,6.2-29-0.6-28.9-3.6C253.7,305.8,260.4,224.6,292.4,217.3z"/>
				</g>
			</g>
			<g>
				<path class="st16" d="M284,335.8l0.7-4.3c0.5-2.8-1.1-5.1-3.6-5.3l-5.5-0.4l-19.5-1.6c-2.3-0.1-4.6,1.7-5.3,4.3l-1.7,6.4
					c-0.8,3.1,1,5.9,3.8,5.9l24.1-0.1l2,0C281.3,340.7,283.6,338.5,284,335.8z"/>
				<path class="st18" d="M276.9,340.7c0,0-12.9,0.4-11.7-6.7c0.8-4.7,5.4-7.1,10.5-8.3l-19.5-1.6c-2.3-0.1-4.6,1.7-5.3,4.3
					l-1.7,6.4c-0.8,3.1,1,5.9,3.8,5.9L276.9,340.7z"/>
			</g>
		</g>
		<g>
			<path class="st20" d="M374.6,210.8c11.4,9.9,10.4,137.2,11.7,181.7c0,1.3-0.6,2.4-1.2,3.2c-0.4,0.6-1,0.8-1.5,1.1
				c-4.8,2.4-21.4,8.7-44.7,9.6c-45.2,1.7-48.6-18.5-48.7-24.6c-0.7-36.1-3.1-94-1.2-136.9c0.7-15.5,4.5-30.4,13.5-34.5
				C311.5,206.3,365.6,202.9,374.6,210.8z"/>
		</g>
		<g>
			<path class="st21" d="M350.3,211.8c0,0-2,7.4-5.4,13.3c-3.6,6.2-12.5,16.4-12.5,16.4s-6.9-8.2-11.2-16.7
				c-3.7-7.4-4.9-15.2-4.1-16.1c1.8-1.9,8.6-1.5,6.4-17.6c0,0,8.1,4,25.4,1.1c0,0-0.9,2.7-1.3,6.3
				C347.2,202.7,347.3,208.2,350.3,211.8z"/>
			<path class="st22" d="M323.5,202.2c0,0-14.7-1.5-17.9,14.4c-2.2,10.9,3.3,21.4,9.5,31.2c0,0,1.7-10.9,13.8-11.6
				c0,0-5.2-8.6-7.9-15c-3.3-7.7-4.5-12.1-4.5-12.1S322.3,206.8,323.5,202.2z"/>
			<path class="st22" d="M353.6,247.1c0,0-11.5-15.3-16.1-12.3c4.4-5.6,7-8.7,9-12.3c3.4-6.3,4-10.8,4-10.8
				c-3.7-3.6-3.7-9.8-3.7-9.8s0.1,0,0.1,0c14,1.1,16.3,9,16.3,9C367.1,226,353.6,247.1,353.6,247.1z"/>
			<path class="st23" d="M347.7,198.5c0,0-10.1,0.8-16,2.7c0,0,0.6,4.1-3.8,10.5c-4.2,6.2-1.5,21.6,12.9,17.6
				c-3.6,6.2-8.2,12.3-8.2,12.3s-5.7-8.2-10-16.8c-3.7-7.4-6.2-15.2-5.4-16.1c1.8-1.9,8.6-1.5,6.4-17.6c0,0,8.1,4,25.4,1.1
				C349,192.2,348.1,194.9,347.7,198.5z"/>
		</g>
		<g class="st3">
			<path class="st17" d="M332.7,241.8c2.8,33.7,2.1,98.9,1.2,143.3"/>
		</g>
		<g class="st3">
			<path class="st17" d="M341.1,253.9c0.2,0.6-0.1,2.6-1.6,2.6c-1.9,0.1-2.4-1.7-2-2.9C337.9,252.2,340.4,251.9,341.1,253.9z"/>
		</g>
		<g class="st3">
			<path class="st17" d="M340.9,277.4c0.2,0.6-0.1,2.6-1.6,2.6c-1.9,0.1-2.4-1.7-2-2.9C337.7,275.7,340.3,275.4,340.9,277.4z"/>
		</g>
		<g class="st3">
			<path class="st17" d="M340.9,301c0.2,0.6-0.1,2.6-1.6,2.6c-1.9,0.1-2.4-1.7-2-2.9C337.7,299.3,340.3,299,340.9,301z"/>
		</g>
		<g class="st3">
			<path class="st17" d="M340.9,324.5c0.2,0.6-0.1,2.6-1.6,2.6c-1.9,0.1-2.4-1.7-2-2.9C337.7,322.8,340.3,322.5,340.9,324.5z"/>
		</g>
		<g class="st3">
			<path class="st17" d="M340.9,348c0.2,0.6-0.1,2.6-1.6,2.6c-1.9,0.1-2.4-1.7-2-2.9C337.7,346.4,340.3,346.1,340.9,348z"/>
		</g>
		<g class="st3">
			<path class="st17" d="M340.9,371.6c0.2,0.6-0.1,2.6-1.6,2.6c-1.9,0.1-2.4-1.7-2-2.9C337.7,369.9,340.3,369.6,340.9,371.6z"/>
		</g>
	</g>
	<g>
		<g>
			<g>
				<path class="st21" d="M374.2,151.2c-0.9,6.8,1.8,12.8,6.1,13.4c4.3,0.6,8.5-4.5,9.4-11.3c0.9-6.8-1.8-12.8-6.1-13.4
					C379.4,139.3,375.1,144.3,374.2,151.2z"/>
				<path class="st24" d="M379.5,149.1c0,0-0.4-0.7,2.3-0.9c0,0,3.2,0.4,1.5,3.8c-0.3,0.7-0.6,1.5-0.8,2.3c-0.2,1.1,0.4,2.7-0.3,3.7
					c-0.9,1.3-3.4,0.6-3.6-0.9c-0.2-1.1,1.1-3.1,1.7-3.9C380.4,153.2,382.3,150.7,379.5,149.1z"/>
			</g>
			<g>
				<path class="st21" d="M298.3,151.2c0.9,6.8-1.8,12.8-6.1,13.4c-4.3,0.6-8.5-4.5-9.4-11.3c-0.9-6.8,1.8-12.8,6.1-13.4
					C293.2,139.3,297.4,144.3,298.3,151.2z"/>
				<path class="st24" d="M293,149.1c0,0,0.4-0.7-2.3-0.9c0,0-3.2,0.4-1.5,3.8c0.3,0.7,0.6,1.5,0.8,2.3c0.2,1.1-0.4,2.7,0.3,3.7
					c0.9,1.3,3.4,0.6,3.6-0.9c0.2-1.1-1.1-3.1-1.7-3.9C292.1,153.2,290.3,150.7,293,149.1z"/>
			</g>
		</g>
		<path class="st25" d="M336.4,73.9L336.4,73.9c0,0-0.1,0-0.1,0c0,0-0.1,0-0.1,0v0c-10.3,0.6-55.1,7-44.4,76.1l2.6,28.9
			c0,0,2.3,6.5,10.3,12.6c0,0,13.9,11.7,25.5,16.8c0,0,2.5,0.7,6,2v0.1c0,0,0.1,0,0.1-0.1c0.1,0,0.1,0,0.1,0.1v-0.1c3.4-1.3,6-2,6-2
			c11.6-5.2,25.5-16.8,25.5-16.8c8-6.1,8.4-12.6,8.4-12.6l4.5-28.9C391.5,80.8,346.7,74.4,336.4,73.9z"/>
		<path class="st26" d="M370.7,64.4c0,0,15.6,8.4,17.7,27.3c1.5,13.8-3.9,48.4-3.9,48.4c-4.2-0.7-3.2,8.1-3.2,8.1l-1.8-0.2
			c-0.2-21.6-10.3-33.9-10.3-33.9c5.5-7.1-2.9-19.8-2.9-19.8c-26.1,9.7-59.9-0.2-59.9-0.2s-19.7-23.9-4.5-37c0,0,15.2-17,57.8-11.4
			C359.6,45.8,347.6,58.9,370.7,64.4z"/>
		<path class="st26" d="M306.5,94c0,0-8.2,11.3-6.1,20.2c0,0-11.1,8.8-7.5,33.9l-1.7,0c0,0,0.6-9.7-4.8-7.3c0,0-5.6-31.3,3.4-51.2
			c0,0,4.6-11.8,17.9-16.7C307.8,72.9,303.1,89.3,306.5,94z"/>
		<path class="st26" d="M347.3,121l18.7,2.7c0,0,6.5-3.7,0.1-5.9l-17.9-2.6c0,0-1.4-0.5-2,0.6l-0.6,4.1
			C345.6,120,345.7,120.9,347.3,121z"/>
		<path class="st26" d="M323.7,120.3l-16.6,4c0,0-6.3-3.2-0.7-5.8l15.9-3.8c0,0,1.2-0.6,1.8,0.5l1,4.1
			C325.1,119.2,325.1,120.1,323.7,120.3z"/>
		<path class="st24" d="M334.3,129.6c-3.8,12.1-9,28.2-9,30.5c0,2.3,11.4,5.1,13.4,4.4c2.1-0.8-2.4-34.8-2.4-34.8H334.3z"/>
		<path class="st25" d="M336.3,128.4c-3.8,12.1-9,28.2-9,30.5c0,2.3,11.4,5.1,13.4,4.4c2.1-0.8-2.4-34.8-2.4-34.8H336.3z"/>
		<g>
			<path class="st27" d="M324.6,137.4c0.1-5.1-0.6-11.2-8.4-13.3c-7.9-2.1-11.5,5-11.4,7.5c0.1,2.6,2.2,6.4,6.6,6.9
				c4.3,0.4,8.2,0.1,9.8,0.3C322.7,139.1,324.6,138.5,324.6,137.4z"/>
			
				<ellipse transform="matrix(4.801666e-02 -0.9988 0.9988 4.801666e-02 169.2447 440.0402)" class="st28" cx="315.5" cy="131.2" rx="6.5" ry="6.5"/>
			<path class="st27" d="M316,132.9c-0.1,1.6-1.4,2.9-3,2.8s-2.9-1.4-2.8-3s1.4-2.9,3-2.8C314.8,129.9,316.1,131.3,316,132.9z"/>
			<path class="st27" d="M344.8,138.1c0.2-5.1,1.3-11.1,9.2-12.7s11.2,5.6,10.9,8.3s-2.6,6.2-7,6.5c-4.4,0.2-8.2-0.5-9.8-0.3
				C346.6,139.8,344.7,139.1,344.8,138.1z"/>
			<path class="st28" d="M348.1,131.8c-0.1,3.6,2.7,6.6,6.3,6.7c3.6,0.1,6.6-2.7,6.7-6.3c0.1-3.6-2.7-6.6-6.3-6.7
				C351.2,125.4,348.3,128.2,348.1,131.8z"/>
			<path class="st27" d="M349.2,133.5c-0.1,1.6,1.2,3,2.8,3c1.6,0.1,3-1.2,3-2.8c0.1-1.6-1.2-3-2.8-3
				C350.6,130.6,349.3,131.9,349.2,133.5z"/>
		</g>
		<g>
			<path class="st24" d="M354,179.5l0.8,2c-5.5,4.9-16.4,4.7-34.6-0.6l0.3-0.8C337.8,185.2,349.1,183.9,354,179.5z"/>
		</g>
		<path class="st24" d="M329,185.8c-0.2,0.5,1.2,2,3.5,2.8c2.3,0.7,4.8,0.4,5-0.1c0.2-0.5-2.2-0.6-4.6-1.4
			C330.6,186.3,329.2,185.3,329,185.8z"/>
	</g>
</g>
<g>
	<rect x="-8.8" y="360.1" class="st29" width="428.7" height="305"/>
	<polygon class="st30" points="7.6,360.1 412.2,360.1 412.2,395.1 316.5,392.9 7.6,379.9 	"/>
	<rect x="409.9" y="360.1" class="st31" width="69.7" height="305"/>
	<polygon class="st32" points="479.5,360.1 409.5,360.1 409.5,392.9 479.5,436 	"/>
	<path class="st30" d="M491,331.2H305.6c-6,0-10.9,4.6-10.9,10.2v15.8c0,5.6,4.9,10.2,10.9,10.2H491c6,0,10.9-4.6,10.9-10.2v-15.8
		C501.9,335.8,497,331.2,491,331.2z"/>
	<path class="st29" d="M431.7,331.2H-16c-6,0-10.9,4.6-10.9,10.2v15.8c0,5.6,4.9,10.2,10.9,10.2h447.7c6,0,10.9-4.6,10.9-10.2v-15.8
		C442.6,335.8,437.7,331.2,431.7,331.2z"/>
</g>
<g>
	<g>
		<polygon class="st33" points="148.8,285.1 169.2,331.4 116.1,331.4 123,285.1 		"/>
		<polygon class="st34" points="154.6,298.4 144.8,303.9 147.8,331.4 169.2,331.4 		"/>
		<polygon class="st35" points="195.9,331.4 203.7,319.7 7.9,319.7 12.3,331.4 		"/>
		<polygon class="st34" points="243.3,331.4 246.3,322.1 203.7,319.7 195.9,331.4 		"/>
		<g>
			<polygon class="st35" points="219.8,288.6 246.3,147 -0.2,148.5 27.4,285.8 			"/>
			<polygon class="st33" points="222.2,275.7 25.8,278.1 27.4,285.8 219.8,288.6 			"/>
			<polygon class="st33" points="219.8,288.6 228.5,288.6 257.2,151.3 246.3,147 			"/>
		</g>
	</g>
</g>
<rect x="-16.2" y="48" class="st36" width="226" height="59"/>
<g>
	<g>
		<path class="st27" d="M36.3,89.1h-3.2c-0.6,0-0.8-0.3-0.8-0.8v-19c0-0.3-0.1-0.4-0.4-0.4h-4.3c-0.5,0-0.8-0.3-0.8-0.8v-2.6
			c0-0.5,0.3-0.8,0.8-0.8h14.3c0.5,0,0.8,0.3,0.8,0.8v2.6c0,0.5-0.3,0.8-0.8,0.8h-4.3c-0.3,0-0.5,0.1-0.5,0.4v19
			C37.1,88.9,36.9,89.1,36.3,89.1z"/>
		<path class="st27" d="M59.4,89.1h-8.4c-2,0-3.5-0.5-4.6-1.6c-1.1-1.1-1.6-2.6-1.6-4.6v-7c0-2,0.5-3.5,1.6-4.6
			c1.1-1.1,2.6-1.6,4.6-1.6h3c2,0,3.5,0.5,4.6,1.6c1.1,1.1,1.6,2.6,1.6,4.6v4.8c0,0.5-0.3,0.8-0.8,0.8H50c-0.3,0-0.5,0.1-0.5,0.4
			v0.8c0,0.8,0.2,1.3,0.5,1.7S51,85,51.8,85h7.7c0.5,0,0.8,0.3,0.8,0.8v2.5c0,0.3-0.1,0.5-0.2,0.6C60,89.1,59.8,89.1,59.4,89.1z
			 M50,78.4h5.2c0.3,0,0.4-0.1,0.4-0.4v-1.8c0-0.8-0.2-1.4-0.5-1.7c-0.3-0.3-0.9-0.5-1.7-0.5h-1.6c-0.8,0-1.4,0.2-1.7,0.5
			c-0.3,0.3-0.5,0.9-0.5,1.7V78C49.6,78.2,49.7,78.4,50,78.4z"/>
		<path class="st27" d="M71.2,89.1H64c-0.5,0-0.8-0.3-0.8-0.8v-2.4c0-0.3,0-0.5,0.2-0.6c0.1-0.1,0.3-0.2,0.6-0.2h6.3
			c1.2,0,1.9-0.4,1.9-1.1v-0.2c0-0.6-0.5-1.2-1.6-1.7L66.9,80c-1.3-0.7-2.2-1.4-2.8-2.1c-0.6-0.8-0.9-1.7-0.9-2.9
			c0-1.8,0.5-3.1,1.4-3.9s2.4-1.2,4.4-1.2h6.3c0.5,0,0.8,0.3,0.8,0.8v2.5c0,0.3-0.1,0.5-0.2,0.6s-0.3,0.2-0.6,0.2H70
			c-1.2,0-1.9,0.3-1.9,0.9V75c0,0.6,0.5,1.1,1.6,1.7l3.8,2.3c1.3,0.7,2.2,1.4,2.8,2.2s0.8,1.7,0.8,2.9
			C77.2,87.4,75.2,89.1,71.2,89.1z"/>
		<path class="st27" d="M89.8,89.1h-3.4c-2,0-3.5-0.5-4.6-1.6c-1.1-1.1-1.6-2.6-1.6-4.6v-7c0-2,0.5-3.5,1.6-4.6
			c1.1-1.1,2.6-1.6,4.6-1.6h3.4c2,0,3.5,0.5,4.6,1.6C95.5,72.5,96,74,96,76v7c0,2-0.5,3.5-1.6,4.6C93.3,88.6,91.7,89.1,89.8,89.1z
			 M87.1,85H89c0.8,0,1.4-0.2,1.7-0.5c0.3-0.3,0.5-0.9,0.5-1.7v-6.7c0-0.8-0.2-1.4-0.5-1.7c-0.3-0.3-0.9-0.5-1.7-0.5h-1.9
			c-0.8,0-1.4,0.2-1.7,0.5c-0.3,0.3-0.5,0.9-0.5,1.7v6.7c0,0.8,0.2,1.4,0.5,1.7C85.7,84.8,86.3,85,87.1,85z"/>
		<path class="st27" d="M103.8,89.1h-3.2c-0.5,0-0.8-0.3-0.8-0.8V70.6c0-0.5,0.3-0.8,0.8-0.8h3.2c0.5,0,0.8,0.3,0.8,0.8v1.3h0.2
			c0.3-0.7,0.8-1.2,1.5-1.6c0.7-0.4,1.5-0.5,2.2-0.5h1.4c0.5,0,0.8,0.3,0.8,0.8v2.6c0,0.3-0.1,0.5-0.2,0.6c-0.1,0.1-0.3,0.2-0.6,0.1
			h-2.6c-1.7,0-2.6,1-2.6,3v11.4C104.6,88.9,104.3,89.1,103.8,89.1z"/>
		<path class="st27" d="M127.3,89.1h-8.4c-2,0-3.5-0.5-4.6-1.6c-1.1-1.1-1.6-2.6-1.6-4.6v-7c0-2,0.5-3.5,1.6-4.6
			c1.1-1.1,2.6-1.6,4.6-1.6h3c2,0,3.5,0.5,4.6,1.6c1.1,1.1,1.6,2.6,1.6,4.6v4.8c0,0.5-0.3,0.8-0.8,0.8h-9.5c-0.3,0-0.5,0.1-0.5,0.4
			v0.8c0,0.8,0.2,1.3,0.5,1.7s0.9,0.5,1.7,0.5h7.7c0.5,0,0.8,0.3,0.8,0.8v2.5c0,0.3-0.1,0.5-0.2,0.6
			C127.8,89.1,127.6,89.1,127.3,89.1z M117.8,78.4h5.2c0.3,0,0.4-0.1,0.4-0.4v-1.8c0-0.8-0.2-1.4-0.5-1.7c-0.3-0.3-0.9-0.5-1.7-0.5
			h-1.6c-0.8,0-1.4,0.2-1.7,0.5c-0.3,0.3-0.5,0.9-0.5,1.7V78C117.4,78.2,117.6,78.4,117.8,78.4z"/>
		<path class="st27" d="M135.8,89.1h-3.2c-0.5,0-0.8-0.3-0.8-0.8V70.6c0-0.5,0.3-0.8,0.8-0.8h3.2c0.5,0,0.8,0.3,0.8,0.8v1.3h0.2
			c0.3-0.7,0.8-1.2,1.5-1.6s1.5-0.5,2.2-0.5h1.4c0.5,0,0.8,0.3,0.8,0.8v2.6c0,0.3-0.1,0.5-0.2,0.6c-0.1,0.1-0.3,0.2-0.6,0.1h-2.6
			c-1.7,0-2.6,1-2.6,3v11.4C136.6,88.9,136.3,89.1,135.8,89.1z"/>
		<path class="st27" d="M145.2,66.5v-3.3c0-0.5,0.3-0.8,0.8-0.8h3.3c0.5,0,0.8,0.2,0.8,0.7v3.3c0,0.5-0.3,0.8-0.8,0.8h-3.3
			C145.4,67.3,145.2,67.1,145.2,66.5z M145.2,88.3V70.6c0-0.5,0.3-0.8,0.8-0.8h3.3c0.5,0,0.8,0.3,0.8,0.8v17.7
			c0,0.3-0.1,0.5-0.2,0.6c-0.1,0.1-0.3,0.2-0.6,0.2H146C145.4,89.1,145.2,88.9,145.2,88.3z"/>
		<path class="st27" d="M161.1,89.1h-0.9c-2,0-3.5-0.5-4.6-1.6c-1.1-1.1-1.6-2.6-1.6-4.6v-7c0-2,0.5-3.5,1.6-4.6
			c1.1-1.1,2.6-1.6,4.6-1.6h8.8c0.6,0,0.8,0.3,0.8,0.8v17.7c0,0.5-0.3,0.8-0.8,0.8h-3.2c-0.5,0-0.8-0.3-0.8-0.8v-1.2h-0.2
			c-0.3,0.7-0.8,1.2-1.5,1.5C162.6,89,161.9,89.1,161.1,89.1z M165,82.1v-7.7c0-0.3-0.2-0.4-0.5-0.4H161c-0.8,0-1.4,0.2-1.7,0.5
			c-0.3,0.3-0.5,0.9-0.5,1.7v6.5c0,0.8,0.2,1.4,0.5,1.7s0.9,0.5,1.7,0.5h1.4C164.1,85,165,84,165,82.1z"/>
	</g>
</g>
<g>
	<path class="st37" d="M410.3,68.3l-4,12.6c-0.5,1.4-1.3,1.9-2.6,1.5l-9.1-2.9c-1.4-0.4-1.8-1.4-1.3-2.9l4-12.4
		c0.4-1.4,1.3-1.8,2.7-1.4l9.1,2.9C410.3,66.2,410.7,67,410.3,68.3z M414.5,54.9l-0.9,2.7c-0.5,1.4-1.4,1.9-2.8,1.5l-8.1-2.6
		c-1.4-0.5-1.9-1.4-1.5-2.8l0.9-2.8c0.7-2.3,1.7-4,2.9-5.1c1.2-1.2,2.9-2.2,5.1-3l7.2-2.9c2.7-1,4.4-2.5,5.1-4.6l0.2-0.6
		c0.7-2.1,0.7-3.8,0-5c-0.7-1.2-2.2-2.2-4.4-2.9l-1.8-0.6c-2.1-0.7-3.8-0.7-5-0.1c-1.2,0.6-2.2,2-2.9,4.2l-0.7,2.1
		c-0.5,1.5-1.4,2-2.9,1.6l-8.7-2.8c-1.4-0.5-1.9-1.4-1.4-2.9l0.8-2.4c1.7-5.3,4.5-8.9,8.3-10.9s8.5-2,13.9-0.3l6,1.9
		c5.4,1.7,9.1,4.5,11.1,8.3c2,3.8,2.2,8.4,0.5,13.7l-0.5,1.4c-1.1,3.3-3.6,5.9-7.5,7.5l-8.8,3.4C416.4,51.9,415,53.2,414.5,54.9z"/>
</g>
</svg>
