<?xml version="1.0" encoding="utf-8"?>
<!-- Generator: Adobe Illustrator 24.3.0, SVG Export Plug-In . SVG Version: 6.00 Build 0)  -->
<svg version="1.1" id="Layer_1" xmlns="http://www.w3.org/2000/svg" xmlns:xlink="http://www.w3.org/1999/xlink" x="0px" y="0px"
	 viewBox="0 0 480 600" style="enable-background:new 0 0 480 600;" xml:space="preserve">
<style type="text/css">
	.st0{fill-rule:evenodd;clip-rule:evenodd;fill:#FFECB4;}
	.st1{fill:#EDDBA8;}
	.st2{opacity:0.5;}
	.st3{opacity:0.2;}
	.st4{opacity:0.1;}
	.st5{opacity:0.22;}
	.st6{fill:#B5581E;}
	.st7{fill:#71350A;}
	.st8{fill:#4A5F65;}
	.st9{fill:#74919B;}
	.st10{fill:#94A7B0;}
	.st11{fill:#5F7880;}
	.st12{fill:#9A4C1E;}
	.st13{fill:#7F3D13;}
	.st14{fill:#005869;}
	.st15{fill:#BB7348;}
	.st16{fill:#D8D4DE;}
	.st17{fill:#3B3B3B;}
	.st18{opacity:0.2;fill:#3B3B3B;}
	.st19{opacity:0.2;fill:#4D0B00;}
	.st20{fill:#E9E4EF;}
	.st21{fill:#E9A76F;}
	.st22{fill:#F3F0F5;}
	.st23{opacity:6.000000e-02;fill:#4D0B00;}
	.st24{fill:#E97B59;}
	.st25{fill:#FFB476;}
	.st26{fill:#48270F;}
	.st27{fill:#FFFFFF;}
	.st28{fill:#39170B;}
	.st29{fill-rule:evenodd;clip-rule:evenodd;fill:#B86851;}
	.st30{fill-rule:evenodd;clip-rule:evenodd;fill:#A15647;}
	.st31{fill-rule:evenodd;clip-rule:evenodd;fill:#8F483A;}
	.st32{fill-rule:evenodd;clip-rule:evenodd;fill:#7F3B2E;}
	.st33{fill:#666666;}
	.st34{fill:#333333;}
	.st35{fill:#4D4D4D;}
	.st36{fill:#2176BB;}
	.st37{fill-rule:evenodd;clip-rule:evenodd;fill:#FFFFFF;}
	.st38{fill:#CF0E51;}
	.st39{fill:#FFCD9C;}
	.st40{fill:#F4AD7D;}
	.st41{fill:#66331A;}
	.st42{fill:#4C2212;}
	.st43{fill:#E0D599;}
	.st44{fill:#61B2D6;}
	.st45{fill:#4992BA;}
	.st46{fill:#F9F2C0;}
	.st47{fill:#C7F3FF;}
	.st48{fill:#3A2A26;}
	.st49{fill:#281B18;}
	.st50{fill:#C5C8D3;}
	.st51{fill:#A39288;}
	.st52{fill:#778099;}
	.st53{opacity:0.4;fill:#604E4A;}
	.st54{fill:#3D87A8;}
</style>
<g transform="matrix(0.948172,0,0,1.88724,-3.09674,-964.778)">
	<rect x="-14.7" y="507" class="st0" width="529.6" height="328.5"/>
</g>
<g>
	<g>
		<path class="st1" d="M350.9,580.1v3.5h3v-3.5c19.8,0.2,39.5,0.3,59,0.3c31.3,0.1,63.2,0.3,95.2,0.8c0,0.2,0,0.4,0,0.6h3
			c0-0.2,0-0.4,0-0.5c8.8,0.2,17.6,0.3,26.4,0.6c-0.1,0.6-0.1,1.2-0.2,1.7h3c0.1-0.6,0.1-1.1,0.2-1.7c7,0.2,14,0.4,21.1,0.7v-1.7
			c-16.8-0.6-33.6-1-50.4-1.3c0.1-4.4,0.4-8.9,0.7-13.3c0.4-5.2,0.8-10.5,0.8-15.7c0-1.3,0-2.5-0.1-3.8c15.9,0.2,32.2,0.5,48.9,0.8
			v-1.7c-9.8-0.2-19.4-0.3-28.9-0.5c0.4-6.3,0.5-12.9,0.5-19.2c10.1,0,19.5,0.1,28.5,0.2v-1.7c-15.8-0.2-33-0.3-52.7-0.3
			c-6.7,0-13.5,0-20.2,0c-0.1-2.6-0.2-5.1-0.2-7.7c0-9.9,0.7-19.3,2.1-28.2c23.6,0.5,47.3,1.1,71,1.8v-1.7c-9-0.3-17.9-0.5-26.9-0.8
			c0.2-3.7,0.3-7.4,0.5-11c0.4-7.9,0.9-16.2,0.9-24.3c8.9,0.2,17.3,0.4,25.5,0.6v-1.7c-17.4-0.5-36-0.8-57-0.9
			c-0.4-9.3-0.4-18.3-0.4-27.8h-3c0,9.5,0,18.5,0.4,27.8c-4.4,0-8.9,0-13.5,0c-19.8,0-39.9,0.1-59.4,0.3c-7.7,0.1-15.5,0.1-23.4,0.2
			l-0.2-1.6c-1.4-11.9-2.8-23.1-3.7-34.7c14.1,1,28.4,2.2,43,3.4c38.5,3.2,78.2,6.5,117.1,6.5v-1.7c-3.7,0-7.4,0-11.1-0.1
			c-0.2-3.1-0.4-6.1-0.5-9.2c-0.4-6.8-0.9-13.8-0.9-20.6c4.2,0.2,8.3,0.4,12.5,0.6v-1.7c-9.4-0.4-18.9-0.9-28.3-1.3
			c-20.4-0.9-40.9-1.9-61.5-2.8c0.1-4.9,0.7-9.8,1.3-14.6c0.5-4,1-8.2,1.2-12.3c17.6,0.4,35.2,0.7,52.6,1.2
			c11.6,0.3,23.2,0.6,34.8,0.9V361c-11.5-0.3-23.1-0.6-34.6-0.9c-39.2-1-79-1.7-118.9-2.6c0.2-3.5,0.6-7.1,1-10.5
			c0.6-5.5,1.3-11.1,1.3-16.8h-3c0,5.6-0.7,11.2-1.3,16.6c-0.4,3.5-0.8,7-1,10.6c-25.8-0.6-51.7-1.4-77.5-2.5
			c-0.5-9-0.9-17.5-0.9-26.3c10.7,0.3,21.3,0.5,31.9,0.7c0,0,0,0,0,0.1l2.2,0c20.5,0.4,40.9,0.6,61.2,0.6c29,0,58.3-0.4,87.6-1.1
			l1.2,0.1c0,0,0-0.1,0-0.2c12.5-0.3,24.9-0.7,37.4-1.1c0,1,0.1,2.1,0.1,3.1c0,4.3-0.3,8.7-0.6,12.9c-0.3,4.3-0.6,8.7-0.6,13
			c0,1.3,0,2.5,0.1,3.8l3,0c-0.1-1.2-0.1-2.5-0.1-3.7c0-4.3,0.3-8.7,0.6-12.9c0.3-4.3,0.6-8.7,0.6-13c0-1.1,0-2.2-0.1-3.3
			c3.5-0.1,7-0.3,10.5-0.4v-1.7c-16.8,0.7-33.6,1.2-50.5,1.6c1.2-4.7,2-9.5,2.8-14.1c0.9-5.3,1.7-10.7,3.2-15.9l-3-0.3
			c-1.5,5.3-2.4,10.7-3.3,16c-0.8,4.7-1.6,9.6-2.8,14.4c-23.3,0.6-46.5,0.9-69.6,1c0.9-11.1,1.4-22.2,1.4-33.3
			c40.2,0.9,81.2,1.9,121.8,3.1v-1.7c-3.5-0.1-7-0.2-10.5-0.3c0-9.4,0.8-17.5,1.6-26.9l0.3-3.7l-3-0.1l-0.3,3.7
			c-0.9,9.4-1.6,17.5-1.6,26.9c-24.8-0.7-49.6-1.4-74.3-1.9c0.5-4.9,0.8-9.9,1.2-14.8c0.4-5.3,0.7-10.6,1.2-15.8l-0.9,0
			c28.7,0.5,57.6,1.2,86.3,2.2v-1.7c-12.8-0.4-25.6-0.8-38.5-1.1c0-1.1-0.1-2.2-0.1-3.3c0-3,0.2-6.2,0.3-9.2c0.2-3,0.3-6.1,0.3-9.1
			h-3c0,3-0.2,6.1-0.3,9.1c-0.2,3-0.3,6.2-0.3,9.3c0,1.1,0.1,2.1,0.1,3.2c-33.1-0.8-66.2-1.3-98.8-1.8c0-0.2,0-0.3,0-0.5
			c0-4.6,0.8-9.4,1.6-14c0.4-2.1,0.7-4.2,1-6.2c24,0.6,48.4,1.1,72.6,1.1c23.6,0,45.2-0.5,65.2-1.5v-1.7c-7.5,0.4-15.3,0.7-23.3,0.9
			c0.8-4.9,1.1-9.9,1.5-14.8c0.2-3.3,0.5-6.6,0.8-9.9c7,0.2,14,0.4,21.1,0.7v-1.7c-16.8-0.6-33.6-1-50.4-1.3
			c0.1-4.4,0.4-8.9,0.7-13.3c0.4-5.2,0.8-10.5,0.8-15.7c0-1.3,0-2.5-0.1-3.8c15.9,0.2,32.2,0.5,48.9,0.8v-1.7
			c-9.8-0.2-19.4-0.3-28.9-0.5c0.4-6.3,0.5-12.9,0.5-19.2c10.1,0,19.5,0.1,28.5,0.2v-1.7c-15.8-0.2-33-0.3-52.7-0.3
			c-6.7,0-13.5,0-20.2,0c-0.1-2.6-0.2-5.1-0.2-7.7c0-9.9,0.7-19.3,2.1-28.2c23.6,0.5,47.3,1.1,71,1.8v-1.7c-9-0.3-17.9-0.5-26.9-0.8
			c0.2-3.7,0.3-7.4,0.5-11c0.4-7.9,0.9-16.2,0.9-24.3c8.9,0.2,17.3,0.4,25.5,0.6v-1.7c-17.4-0.5-36-0.8-57-0.9
			c-0.4-9.3-0.4-18.3-0.4-27.8h-3c0,9.5,0,18.5,0.4,27.8c-4.4,0-8.9,0-13.5,0c-19.8,0-39.9,0.1-59.4,0.3c-7.7,0.1-15.5,0.1-23.4,0.2
			l-0.2-1.6c-1.4-11.9-2.8-23.1-3.7-34.7c14.1,1,28.4,2.2,43,3.4c38.5,3.2,78.2,6.5,117.1,6.5v-1.7c-3.7,0-7.4-0.1-11.1-0.1
			c-0.2-3.1-0.4-6.1-0.5-9.2c-0.4-6.8-0.9-13.8-0.9-20.6c4.2,0.2,8.3,0.4,12.5,0.6v-1.7c-9.4-0.4-18.9-0.9-28.3-1.3
			c-20.4-0.9-40.9-1.9-61.5-2.8c0.1-4.9,0.7-9.8,1.3-14.6c0.5-4,1-8.2,1.2-12.3l-3-0.1c-0.2,4.1-0.7,8.2-1.2,12.3
			c-0.6,4.8-1.1,9.7-1.3,14.6c-32.8-1.5-65.9-2.8-99.1-3.9c1.4-8.6,2.8-17.5,3.7-26.3c51.4,2,102.9,3.4,153.3,4.6
			c11.6,0.3,23.2,0.6,34.8,0.9v-1.7c-11.5-0.3-23.1-0.6-34.6-0.9c-10.1-0.3-20.3-0.5-30.6-0.8c0.7-4.8,1-9.5,1.3-14.1
			c0.3-5,0.6-10,1.4-15.2h-3c-0.8,5.1-1.1,10.2-1.4,15.1c-0.3,4.6-0.6,9.3-1.3,14.1c-47.5-1.2-95.7-2.6-143.7-4.8
			c0.3-2.9,0.7-5.8,1.1-8.7c0.7-5.2,1.4-10.5,1.7-15.7h-3c-0.3,5.1-1,10.4-1.7,15.5c-0.4,2.9-0.8,5.8-1.1,8.7
			c-7.3-0.3-43.2-0.7-81-1c0.7-5.9,1-10.8,1-15.4c0-2.7-0.1-5.3-0.4-7.8h-2.8c0.2,2.5,0.4,5.1,0.4,7.8c0,4.6-0.3,9.4-1,15.4
			c-27.5-0.3-55.6-0.5-74.5-0.8c-0.9,0-4.2,0-9.2,0c-0.8-5-1.2-9.9-1.5-14.7c-0.2-2.5-0.4-5.1-0.6-7.6H174c0.3,2.6,0.5,5.2,0.6,7.7
			c0.3,4.7,0.7,9.6,1.5,14.6c-18.6,0-56.2-0.1-98.7-0.1c0.4-7.3,0.7-14.8,0.8-22.1h-2.8c-0.1,7.4-0.5,14.8-0.8,22l1.9,0.1
			c-29.8,0-62-0.1-91.7-0.1c-0.2-3.3-0.2-6.6-0.3-9.8c0-4-0.2-8.1-0.5-12.2h-2.8c0.3,4.1,0.5,8.2,0.5,12.2c0,3.2,0.1,6.5,0.3,9.8
			c-4.5,0-8.9,0-13.2,0c0.2-3.7,0.7-7.6,1.2-11.5c0.4-3.5,0.8-7.1,1.1-10.6h-2.8c-0.3,3.4-0.6,6.9-1.1,10.3
			c-0.5,3.9-0.9,7.9-1.2,11.7c-19.8,0-37.8,0-52.5-0.1c0-0.2,0-0.4,0-0.6l-2.8-0.1c0,0.2,0,0.4,0,0.6c-13.9,0-24.4,0-30.1-0.1v1.8
			c5.7,0,16.2,0.1,30.1,0.1c-0.3,6-0.6,12.6-0.6,19.1c0,3,0.1,5.9,0.2,8.8c-13.7,0-24,0-29.7,0v1.7c11.2,0,40.8,0,77.5,0
			c0.3,3.8,0.4,7.7,0.4,11.4c0.1,5.2,0.1,10.5,0.9,15.9c-37.3,0-67.5,0.1-78.8,0.1v1.7c5.5,0,15.5,0,28.7,0c0,0.5,0,1.1,0,1.6
			c0,9.2,1.5,18.3,2.9,27.2c0.5,2.9,0.9,5.9,1.4,8.9c-15.3,0-26.9-0.1-33-0.1v1.7c4.1,0,10.7,0,19.4,0c0.2,3.9,0.7,7.9,1.1,11.7
			c0.6,5.2,1.2,10.5,1.2,15.7c0,0.8,0,1.7-0.1,2.5c-9.7,0-17.2,0-21.7-0.1v1.8c7,0.1,20.9,0.1,39.6,0.1c-0.4,12.7-0.9,25.8-2.3,39.1
			c-17.4,0-30.6-0.1-37.3-0.1v1.8c8.9,0.1,29,0.1,55.3,0.2c0,0.6,0,1.1,0,1.7c0,1.9-0.1,3.8-0.1,5.7c-0.1,1.9-0.1,3.9-0.1,5.8
			c0,3.1,0.2,5.6,0.6,8c-26.4,0-46.8,0-55.7,0v1.7c5.9,0,16.9,0,31.3-0.1c0.5,5.1,1.6,10,2.7,14.8c1.1,4.9,2.3,10,2.8,15.2
			c-17.1,0-30.1,0-36.7,0v1.8c5.3,0,14.6,0,26.8,0c-0.1,1-0.3,2.1-0.3,3.2c0,4.6,1.1,9.3,2.1,13.8c0.6,2.4,1.1,4.8,1.5,7.1l2.8-0.3
			c-0.4-2.4-1-4.9-1.5-7.3c-1-4.4-2.1-8.9-2.1-13.3c0-1.1,0.1-2.2,0.3-3.2c13.6,0,30.4,0,49,0c0.8,4.1,1.4,8.2,1.9,12.2
			c0.5,4,1.1,8.2,1.9,12.4c-9.8,0-19.1,0-27.7,0c0,0,0,0,0,0l-0.2,0c-25.9,0-45.8,0-54.6,0v1.7c8.4,0,27.5,0,52.2,0
			c0.7,3.4,0.8,6.7,0.8,9.6l0,3.7c0,2.3,0,4.9,0.4,7.5c-25.3,0-44.8,0-53.3,0v1.7c13,0,50.7,0,95.8,0c-0.2,2.8-0.4,5.6-0.6,8.4
			c-0.4,5.3-0.8,10.8-0.8,16.2c0,1.4,0,2.8,0.1,4.2l2.8-0.1c-0.1-1.4-0.1-2.8-0.1-4.1c0-5.3,0.4-10.8,0.8-16.1
			c0.2-2.9,0.4-5.8,0.6-8.6c20.8,0,43.1,0,65.2,0c-0.3,4-0.4,8.3-0.4,13.7c0,2.6,0,5.2,0.1,7.8c0,2.6,0.1,5.2,0.1,7.8h2.8
			c0-2.6,0-5.2-0.1-7.8c0-2.6-0.1-5.2-0.1-7.8c0-5.5,0.1-9.8,0.5-13.7c27.4,0,54.4,0,77.6,0c0,1-0.1,2-0.1,3c0,2.9,0.1,5.7,0.2,8.5
			c0.1,2.8,0.2,5.6,0.2,8.4c0,3.6-0.2,6.6-0.5,9.5c-97.7-0.1-218.6-0.2-244-0.2v1.8c6.8,0.1,19.9,0.1,37.3,0.2l0,6.4
			c0,9.3-0.1,18.9,0.3,28.2c-17.6,0-30.9-0.1-37.6-0.1v1.7c9.9,0,34.4,0,66,0.1c1.1,4.1,1.3,8,1.3,11.1c0,1.9-0.1,3.9-0.1,5.8
			c-0.1,1.9-0.1,3.9-0.1,5.8c0,1.1,0,2.1,0.1,3.1c-32,0-57-0.1-67-0.1v1.8c3.9,0,10.1,0.1,18.1,0.1c0.9,3.9,1.3,7.9,1.7,11.8
			c0.4,4.7,0.9,9.7,2.3,14.5c-9.9,0-17.5,0-22.1,0v1.7c9,0,29.8,0,56.9,0.1c0.5,3,0.9,6,1.3,9c0.7,6,1.5,12.1,3.6,18.2
			c-29.5,0-52.3,0.1-61.8,0.1v1.7c11,0,39.8-0.1,76.4-0.1c-0.9,12.4-0.9,25.2-0.9,37.5h2.8c0-12.4,0-25.1,0.9-37.5
			c17.1,0,35.7,0,54.9-0.1c0,1.8-0.1,3.6-0.1,5.4c0,9.5,0.6,19.6,2,32.6c-62.6-0.1-119.4-0.1-136.1-0.2v1.7c5.7,0,16.3,0,30.2,0.1
			c0,0.8,0.1,1.6,0.1,2.5c0,3.4-0.2,6.9-0.4,10.2c-0.2,3.4-0.4,6.8-0.4,10.3c0,2.4,0.1,4.6,0.3,6.6l2.8-0.2c-0.2-2-0.3-4.1-0.3-6.4
			c0-3.4,0.2-6.9,0.4-10.2c0.2-3.4,0.4-6.9,0.4-10.4c0-0.8,0-1.6-0.1-2.5c16.9,0,38.2,0,61.9,0.1c-0.1,1.9-0.1,3.7-0.1,5.6
			c0,4.3,0.2,8.6,0.3,12.9c0.1,3.8,0.2,7.6,0.3,11.5c-45.4-0.1-82.5-0.1-95.4-0.2v1.8c4.5,0.1,11.6,0.1,20.9,0.1
			c0.5,3.3,1,6.7,1.5,10c1.3,9.6,2.6,19.6,6.6,29.1c-13.3,0-23.4-0.1-29-0.1v1.8c7.1,0.1,21.3,0.1,40,0.2c-0.2,2.4-0.4,4.8-0.4,7.4
			c0,4.1,0.3,8.6,0.9,13.7c-17.7,0-32.3,0-40.5,0v1.7c11.6,0,35.9-0.1,65.1-0.1c-0.1,3.1-0.3,6.2-0.5,9.3c-0.3,3.6-0.5,7.3-0.5,11
			c0,3.6,0.3,6.9,0.9,9.9c-29.3,0-53.5,0-65,0v1.8c47.3,0.1,314,0.2,336.4,0.3C267.6,579.9,339.4,580,350.9,580.1z M392.3,562.8
			c-0.5,5.2-0.9,10.3-1.4,15.8c-24.9-0.1-50.2-0.3-75.4-0.8c-0.5-5.2-1-10.1-1.5-15c-0.5-5-1-9.9-1.5-15.3l-3,0.1
			c0.5,5.4,1,10.4,1.5,15.3c0.5,4.8,1,9.6,1.5,14.8c-2.2,0-37.9-0.1-73.4-0.1c0.2-2.6,0.4-5.3,0.6-7.9c0.5-7.5,1-15.3,2.8-22.8
			c58.5-0.3,130.9-0.5,151.3-0.6C393.3,552.1,392.8,557.5,392.3,562.8z M161.5,545.7C161.5,545.7,161.5,545.7,161.5,545.7
			c-27.5,0-61.7,0.1-96.9,0.1c0.1-1.1,0.1-2.2,0.1-3.3c0-2.1-0.1-4.3-0.2-6.4c-0.1-2.1-0.2-4.2-0.2-6.3c0-1.7,0.1-3.3,0.3-4.7
			c22.6,0,44.8,0.1,65.2,0.1c-0.3,3.1-0.5,6.2-0.6,9.3c-0.1,3.5-0.2,7.1-0.7,10.7l2.8,0.3c0.5-3.6,0.6-7.3,0.7-10.9
			c0.1-3.1,0.2-6.2,0.6-9.3c23.1,0,43.8,0.1,59.6,0.1c-0.1,6.3-0.4,12.6-0.8,18.8l-0.1,1.5c-7.8,0-16.9,0-26.9,0c0,0,0,0,0,0H161.5z
			 M35,484.2c23,0.1,46.4,0.1,68.5,0.2c0.3,2.1,0.5,4.2,0.5,6.4c0,6-1.1,12.2-2.2,18.1c-0.9,4.6-1.7,9.5-2.1,14.3
			c-19,0-38.9-0.1-58.6-0.1c0-0.3,0.1-0.7,0.1-1C41.1,521.7,36.5,499.6,35,484.2z M42,450.4c-8.3,0-16.6,0-24.9,0l2.2-0.2
			c-1.4-12.9-2-22.9-2-32.4c0-1.8,0-3.6,0.1-5.5c22.2,0,45.1,0,67.2-0.1c0.1,3.7,0.2,7.4,0.2,11.1c0.1,8.9,0.2,18,1.4,27
			c-13.6,0-27.5,0-41.4,0c0,0,0,0,0-0.1L42,450.4C42,450.4,42,450.4,42,450.4z M-26.7,377.8c0-3.9,0.3-7.9,0.5-11.7
			c0.2-3.4,0.4-7,0.5-10.5c24.3,0,50.9,0.1,77.2,0.1c0.5,3.8,0.6,7.5,0.6,11.3l0,2.5c0,4.1,0.1,8.2,0.7,12.4c-28,0-56.3,0-81.8-0.1
			l2.4-0.1C-26.6,380.4-26.7,379.1-26.7,377.8z M25.4,400.3c0.5-3.6,1-7.3,1-11.1c0-2.1-0.2-3.9-0.5-5.8c23.4,0,47.4,0,70,0
			c0.5,3.6,0.8,7.5,0.8,11.9c0,3.7-0.3,8.5-0.5,12.7l-0.1,2.4c-23.2,0-47.7,0-71.6,0.1C24.5,407.2,25,403.9,25.4,400.3z M54.9,369.4
			l0-2.5c0-3.8-0.1-7.5-0.6-11.3c29.3,0.1,57.9,0.1,82.1,0.2c0,8.5,0,17.3-0.5,25.9l2.8,0.1c0.4-8.6,0.5-17.4,0.5-26
			c34.3,0.1,59.3,0.1,63.8,0.2c1.8,0,3.7,0.1,5.7,0.1c0,0,0,0,0,0.1h0.3c0.3,2.2,0.7,8.3,0.7,12c0,4.2-0.2,9.8-0.4,13.9
			c-6,0-15.2,0-27-0.1c0,0,0,0,0,0l-0.3,0c-31.2,0-79.6-0.1-128.8-0.1l2.4-0.3C55,377.5,54.9,373.5,54.9,369.4z M120,327.9
			c26.4,0,49.4,0,65.3,0c0.3,3.9,0.4,7.8,0.4,11.4l0,7.1c0,2.5,0,5,0.2,7.5c-15.4,0-39.3-0.1-67.2-0.1c0.2-2.9,0.4-5.7,0.6-8.6
			c0.4-4.8,0.8-9.7,0.8-14.6C120,329.7,120,328.8,120,327.9z M127.6,271.9c-0.1-2.8-0.2-5.6-0.2-8.4c0-1,0-2,0.1-3
			c27.8,0,49.9,0,60.5,0c0,3.8-0.1,7.5-0.3,11.3c-0.2,4.2-0.3,8.3-0.3,12.5c0,1.9,0,3.8,0.1,5.6c-18,0-38.5,0-60.2-0.1
			c0.3-2.9,0.5-5.9,0.5-9.5C127.8,277.5,127.7,274.7,127.6,271.9z M125.8,209.6c-22.3,0-48.7,0-75.8,0v-30.2c28.1,0,55.8,0,79.6-0.1
			c-1.4,4.9-1.6,9.9-1.9,14.8c-0.2,5.1-0.5,10.4-2.1,15.5L125.8,209.6z M-61.7,169.8c0-1.9,0.1-3.8,0.1-5.7c0.1-1.9,0.1-3.8,0.1-5.7
			c0-0.6,0-1.1,0-1.7c17.1,0,36.6,0.1,57.1,0.1c0,1-0.1,2-0.1,3c0,3,0.1,5.9,0.3,8.9c0.1,2.9,0.3,5.9,0.3,8.9h2.8
			c0-3.1-0.2-6.1-0.3-9c-0.1-2.9-0.3-5.8-0.3-8.8c0-1,0-2,0.1-3c23.4,0,48.1,0.1,71.8,0.1c-0.1,3.8-0.5,7.8-1,11.7
			c-0.4,3-0.8,6.1-1,9.1l2,0.1c-45.4,0-94.1,0-131.4,0.1l0.1,0C-61.5,175.5-61.7,173-61.7,169.8z M22.6,114
			c-26.2,0-51.6-0.1-73.8-0.1c-0.6-4.7-1.5-9.3-2.4-13.8c-1-5.3-2-10.7-2.6-16.2c23.8,0,51.8,0,80.5,0.1c-0.1,1.4-0.3,3.5-0.4,7.1
			C23.6,99,23,110.8,22.6,114L22.6,114z M-27,82.3l1.8-0.1c-0.2-3-0.3-6.2-0.3-9.8c0-4.9,0.2-9.9,0.4-14.8c0.2-4.3,0.3-8.8,0.4-13.2
			c20.5,0,42.5,0,64.3,0c-0.2,5.5-0.3,10.6-0.3,15.3c0,7.9,0.3,15.3,0.8,22.6c-4.3,0-8.7,0-13,0c-0.2-0.3-0.5-0.6-1.2-0.6
			c-0.6-0.1-0.9,0-1.2,0.6C6.9,82.3-10.6,82.3-27,82.3z M113.8,44.4c0,12.3,0,25.1,1.4,38l2.8-0.2c-1.4-12.8-1.4-25.5-1.4-37.8
			c39.3,0,68.5-0.1,71.8-0.1c9.6-0.1,21.7-0.1,34.7-0.2c-1.2,7.4-1.6,15-2,22.3c-0.3,5.3-0.5,10.7-1.1,16.1l0.7,0.1
			c-2.4,0-4.8,0-7.1,0c-10.8-0.1-91.2-0.1-170.9-0.2c-0.5-7.3-0.8-14.7-0.8-22.6c0-4.7,0.1-9.8,0.3-15.3
			C67.4,44.4,92.1,44.4,113.8,44.4z M63.7,42.7c0-7.2,0.8-14.7,1.6-22c0.2-1.7,0.4-3.5,0.5-5.2c48.1,0,91.6,0,110.7,0
			c-0.2,2.8-0.3,5.7-0.5,8.5c-0.4,6.1-0.8,12.4-0.9,18.6C153.6,42.6,110.6,42.6,63.7,42.7z M268.4,15.8c33.5,0.1,63.7,0.3,69.1,0.4
			c0.6,5.2,0.6,10.5,0.7,15.5c0,3.4,0.1,6.8,0.3,10.3c-1.5,0-3.1,0-4.6,0c-5,0-34.5,0.1-67.3,0.2c0.2-3.2,0.5-6.5,0.9-9.6
			c0.5-4.8,1-9.8,1-14.6C268.4,17.2,268.4,16.5,268.4,15.8z M313.1,43.8c-0.5,6.5-1.4,12.9-2.2,19.2c-0.9,6.5-1.8,13.2-2.3,19.9
			c-27.2-0.1-58.8-0.1-85.6-0.3c0.6-5.4,0.8-10.8,1.1-16.1c0.4-7.4,0.8-15.1,2-22.5C256.3,43.9,291.2,43.8,313.1,43.8z M338.3,115.2
			c-6.8-0.2-50.5-0.5-92.2-0.7c0.2-4.4,0.7-8.9,1.1-13.2c0.6-5.5,1.1-11.3,1.2-17c40.8,0.1,82.8,0.2,89,0.3c0.4,2.8,0.6,5.9,0.6,9.6
			c0,2,0,4-0.1,6c0,2-0.1,4-0.1,6C337.9,109.6,338,112.5,338.3,115.2z M375.4,137.5c0.5,6.2,1,12.4,1.5,18.9
			c-9.8-0.1-39.9-0.2-74.4-0.4c0.6-4.5,1.2-9.1,1.8-13.6c1.1-8.4,2.2-17.1,3.6-25.6c24.1,0.5,46.7,0.9,67.4,1.3l-1.3,0
			C374.4,124.9,374.9,131.2,375.4,137.5z M485.6,156.4c-7.8,0-15.7,0-23.5,0.1c-15.6,0.1-31.2,0.1-46.8,0.1c-11.6,0-23.5,0-35.4-0.1
			c-0.5-6.6-1-12.8-1.5-19c-0.5-6.3-1-12.6-1.5-19.3c30,0.6,55.8,1.1,75.5,1.5c11.6,0.2,23.4,0.5,35.1,0.7
			c-1.4,8.9-2.1,18.4-2.1,28.3C485.4,151.3,485.5,153.8,485.6,156.4z M415.3,158.3c5.6,0,11.3,0,16.9,0c-0.1,1.8-0.2,3.8-0.2,6
			c0,2.2,0.1,4.5,0.1,6.7c0,1.9,0.1,3.7,0.1,5.6c-2.9,0-5.8,0-8.7,0c-32,0-62.6,0.2-92.6,0.7c-0.2-3.1-0.3-6.1-0.3-9.2
			c0-3.3,0.1-6.6,0.4-9.9C368.6,158.3,401.4,158.3,415.3,158.3z M509.6,178.8c0.1,1.3,0.1,2.5,0.1,3.8c0,5.2-0.4,10.5-0.8,15.6
			c-0.3,4.4-0.6,8.9-0.7,13.3c-32-0.6-63.9-0.7-95.2-0.8c-6.3,0-12.6,0-19-0.1c0.5-5.5,0.9-10.6,1.4-15.8c0.5-5.4,1-10.8,1.5-16.6
			c8.8,0,17.7-0.1,26.7-0.1C451.3,178.2,479.9,178.4,509.6,178.8z M418.2,260.6c-0.9,0-1.9,0-2.8,0c0.5-6.8,1.1-13.8,3.3-20.4
			l-2.9-0.3c-2.3,6.7-2.9,13.8-3.4,20.7c-2,0-4-0.1-5.9-0.1c-28.1-0.4-56.8-0.8-85.4-1.4c0.1-1.7,0.2-3.3,0.2-5
			c0.2-5.4,0.3-10.9,1.7-16.2c26.7,0.2,53.8,0.9,80,1.6c5.9,0.2,11.8,0.3,17.8,0.5c-0.3,2-0.6,4.1-1,6.1c-0.8,4.7-1.6,9.5-1.6,14.2
			C418.2,260.3,418.2,260.4,418.2,260.6z M325.4,290.3c-3-0.1-21.4-0.2-44.8-0.2v-29.4c23.4,0.1,41.9,0.1,44.8,0.2
			c-0.3,5.3-0.4,10.4-0.4,15.5C325.1,281,325.2,285.6,325.4,290.3z M258.4,258.8c0-0.3,0-0.6,0-0.8c0-2.9,0.4-5.9,0.8-8.9
			c0.4-3,0.8-6.1,0.8-9.2c0-0.7-0.1-1.5-0.1-2.2c26.5,0,48.7,0,50.1,0c3.3,0,6.7,0,10,0.1c-1.4,5.4-1.5,10.9-1.7,16.2
			c0,1.7-0.1,3.3-0.2,5C315.4,258.9,288.7,258.8,258.4,258.8z M277.8,260.7V290c-8.4,0-17.4-0.1-26.5-0.1c-8.5,0-31-0.1-61-0.1
			c-0.1-1.9-0.1-3.8-0.1-5.6c0-4.1,0.2-8.3,0.3-12.4c0.1-3.8,0.3-7.6,0.3-11.4c1.7,0,2.9,0,3.6,0
			C217.3,260.5,250.5,260.6,277.8,260.7z M350.9,236.4c-13.7-0.3-27.4-0.4-41-0.4c-1.1,0-13.8,0-31.3,0c2.8-8,3.8-16.3,4.2-24.1
			c32.7,0.1,61.2,0.2,68.1,0.2V236.4z M214.9,177.6c-4.3,0-8.4,0-12.3,0c-4.3,0-23.6,0-50.9,0c1.7-6.9,2.6-13.9,3.5-20.7
			c26.2,0.1,44.4,0.1,48,0.2c9.6,0.1,20.4,0.3,31.8,0.4c0.2,1.6,0.4,3.2,0.4,5.1c0,2.7-0.3,5.5-0.5,8.2c-0.2,2.2-0.4,4.5-0.4,6.8
			c-5.7,0-11.2,0-16.6,0c0,0,0-0.1,0-0.1L214.9,177.6C214.9,177.6,214.9,177.6,214.9,177.6z M90.5,97.4c-0.1-2.5-0.2-5.1-0.2-7.6
			c0-2.1,0.1-4,0.2-5.7c23.9,0,46.5,0,65.6,0c-0.3,2.5-0.4,5.3-0.4,8.5c0,2,0,4,0.1,6c0,2,0.1,4,0.1,6c0,2.7-0.2,6.9-0.4,8.8h-0.2
			c0,0.4,0,0.6,0,0.8c-19,0-41.5,0-65.2-0.1c0.4-2.7,0.5-5.6,0.5-9C90.7,102.5,90.6,99.9,90.5,97.4z M204.8,116
			c-1.4,7.3-1.8,14.9-2.1,22.2c-0.3,5.6-0.6,11.4-1.3,17.2c-6.3,0-23.9-0.1-48.1-0.1l-0.7-0.1l0,0.1c-10.6,0-22.4,0-35-0.1
			c0-3.5,0-7,0.1-10.4c0-3.5,0.1-6.9,0.1-10.4c0-6.1-0.1-11.7-0.5-18.4C149.1,115.9,179.4,115.9,204.8,116z M158.7,98.6
			c0-2-0.1-4-0.1-6c0-3.3,0.2-6,0.4-8.5c28.3,0,48.7,0,54,0.1c10.2,0,21.3,0.1,32.6,0.1c-0.1,5.7-0.6,11.3-1.2,16.8
			c-0.4,4.4-0.9,8.9-1.1,13.4c-11-0.1-21.8-0.1-31.7-0.2c-5.2,0-25.3-0.1-53.3-0.1c0.3-1.4,0.4-4.2,0.4-9.6
			C158.8,102.6,158.7,100.6,158.7,98.6z M327.9,177.3c-5.2,0.1-49.7,0.2-90.7,0.3c0.1-2.2,0.2-4.4,0.4-6.6c0.2-2.7,0.5-5.5,0.5-8.3
			c0-1.8-0.1-3.5-0.4-5.1c28.4,0.3,60.6,0.4,90.2,0.5c-0.2,3.3-0.4,6.6-0.4,9.9C327.6,171.1,327.7,174.2,327.9,177.3z M299.6,156
			c-32.5-0.2-68.6-0.4-95.4-0.7c0.7-5.7,1-11.5,1.3-17.1c0.4-7.4,0.8-14.9,2.2-22.3c35.4,0,60.4,0.1,65,0.2
			c11,0.2,21.8,0.4,32.4,0.6c-1.4,8.4-2.5,17-3.6,25.4C300.8,146.8,300.2,151.4,299.6,156z M152.3,157c-0.9,6.8-1.8,13.8-3.5,20.7
			c-22.2,0-49.3,0-77.7,0c0.2-2.9,0.6-6,1-8.9c0.5-3.9,1-8,1.1-11.9C102.3,156.9,130,157,152.3,157z M217.9,183c0-1.3,0-2.6-0.1-4
			c5.3,0,10.8-0.1,16.5-0.1c0,0.1,0,0.1,0,0.2h2.8c0-0.1,0-0.1,0-0.2c22.9-0.1,48.2-0.2,72-0.3c0.5,5.4,1.4,11.5,1.9,16.4
			c0.5,4.8,1,9.6,1.5,14.8c-2.7,0-56.1-0.1-97.4-0.2C216.9,200.9,217.9,191.9,217.9,183z M315.5,209.9c-0.5-5.2-1-10.1-1.5-15
			c-0.5-4.9-1.4-11-1.9-16.3c36.7-0.1,69.1-0.2,81.7-0.3c-0.5,5.7-1,11.1-1.5,16.5c-0.5,5.2-0.9,10.3-1.4,15.8
			C366,210.5,340.7,210.3,315.5,209.9z M264.5,32.3c-0.3,3.3-0.7,6.6-0.9,9.9c-13,0-26.5,0.1-39.1,0.2l-1.1-0.1c0,0,0,0.1,0,0.1
			c-5,0-9.9,0-14.5,0.1c0.5-4.6,1.3-9.3,2-13.9c0.7-4.2,1.4-8.6,1.9-12.9c16.2,0.1,34.8,0.1,52.7,0.2c0,0.7,0.1,1.4,0.1,2.1
			C265.6,22.6,265.1,27.6,264.5,32.3z M208.1,28.2c-0.8,4.7-1.6,9.5-2.1,14.2c-6,0-11.6,0.1-16.6,0.1c-1.2,0-5.2,0-11.5,0
			c0-6.1,0.4-12.4,0.9-18.4c0.2-2.9,0.4-5.8,0.5-8.7c3.9,0,6.4,0,7.2,0c6.7,0,14.7,0.1,23.4,0.1C209.5,19.8,208.8,24.1,208.1,28.2z
			 M62.5,20.4c-0.8,7.3-1.6,14.9-1.6,22.2c-33.3,0-68.3,0-98.8,0.1c-0.7-5.4-0.8-10.7-0.9-16c0-3.7-0.1-7.5-0.4-11.4
			c31.5,0,68,0,102.3,0C62.9,17.1,62.7,18.8,62.5,20.4z M26.8,91.2c0.1-3,0.3-5.8,0.4-7.2c20.2,0,40.8,0,60.5,0
			c-0.1,1.8-0.2,3.6-0.2,5.7c0,2.6,0.1,5.1,0.2,7.7c0.1,2.5,0.2,5.1,0.2,7.6c0,3.4-0.2,6.3-0.5,8.9l0.8,0.1c-20.4,0-41.7,0-62.7-0.1
			C25.9,110.5,26.4,99.4,26.8,91.2z M42.4,135.2c0.3-6.5,0.7-12.9,0.9-19.3c23.5,0,47.7,0,71,0c0.4,6.7,0.5,12.3,0.5,18.4
			c0,3.4,0,6.9-0.1,10.4c0,3.5-0.1,6.9-0.1,10.4c-22.8,0-48-0.1-73.3-0.1C41.7,148.4,42,141.8,42.4,135.2z M130.6,194.2
			c0.2-4.9,0.5-10,1.9-14.9c36.7,0,63.6-0.1,67.8-0.1c4.6,0,9.5-0.1,14.7-0.1c0,1.3,0.1,2.6,0.1,3.9c0,8.9-1,17.8-2.9,26.6
			c-8.9,0-17.2,0-24.2,0c-3.1,0-26.6,0-59.5,0C130.1,204.5,130.3,199.2,130.6,194.2z M201.2,223.7c0.3-4,0.7-8,0.9-12.1
			c22.2,0.1,51.2,0.2,77.9,0.3c-0.5,7.9-1.4,16.1-4.3,24.1c-22.9,0-52.7,0-75.4,0C200.6,231.8,200.9,227.8,201.2,223.7z
			 M257.1,237.7c0.1,0.7,0.1,1.5,0.1,2.2c0,2.9-0.4,6-0.8,8.9c-0.4,3-0.8,6.1-0.8,9.1c0,0.3,0,0.6,0,0.8c-21.4,0-44.2-0.1-61.3-0.1
			c-2.3,0-11.1,0-24.5,0c0.1-0.6,1-11.2,2.5-20.9c10.4,0,17.2,0,19,0C209.3,237.7,234.5,237.7,257.1,237.7z M212.7,292.4
			c0.9,4.1,1.4,8.5,1.4,13.9c0,3.6-0.2,7.2-0.4,10.7c-0.2,3.1-0.3,6.4-0.3,9.6c-2.4,0-4.7,0-6.9-0.1c-2.3,0-8.8,0-18.4-0.1
			c0-0.1,0-0.1,0-0.2l-2.8,0.2c-9.7,0-22.1,0-36.5-0.1c-0.9-12-1.8-22.9-3.1-34.2C171.2,292.2,194.3,292.3,212.7,292.4z
			 M255.7,328.1c33.4,0.1,64.2,0.2,67.8,0.3c0,8.9,0.5,17.3,0.9,26.3c-3.9-0.2-36.1-0.3-70.5-0.5c1.1-5.7,2.2-12.2,2.2-18.9
			C256.2,332.8,255.9,330.4,255.7,328.1z M338.3,483.2c-4.8-0.2-27.8-0.3-55.5-0.5c0-0.9-0.1-1.8-0.1-2.7c0-5.3,0.6-10.9,1.1-16.3
			c0.4-3.7,0.8-7.6,1-11.3c26.6,0.1,48.3,0.1,52.7,0.2c0.4,2.8,0.6,5.9,0.6,9.6c0,2,0,4-0.1,6c0,2-0.1,4-0.1,6
			C337.9,477.7,338,480.6,338.3,483.2z M485.6,524.4c-7.8,0-15.7,0-23.5,0.1c-15.6,0.1-31.2,0.1-46.8,0.1c-11.6,0-23.5,0-35.4-0.1
			c-0.5-6.6-1-12.8-1.5-19c-0.5-6.1-1-12.2-1.5-18.7c32.5,0.3,60.2,0.7,75.5,1c11.6,0.2,23.4,0.5,35.1,0.7
			c-1.4,8.9-2.1,18.4-2.1,28.3C485.4,519.3,485.5,521.9,485.6,524.4z M415.3,526.3c5.6,0,11.3,0,16.9,0c-0.1,1.8-0.2,3.8-0.2,6
			c0,2.2,0.1,4.5,0.1,6.7c0,1.9,0.1,3.7,0.1,5.6c-2.9,0-5.8,0-8.7,0c-32,0-62.6,0.2-92.6,0.7c-0.2-3.1-0.3-6.1-0.3-9.2
			c0-3.3,0.1-6.6,0.4-9.9C368.6,526.3,401.4,526.3,415.3,526.3z M232.6,523.6c0.6-4.1,1.4-8.3,2.1-12.3c1.6-8.5,3.2-17.3,3.3-26.1
			c22.5,0.3,47.4,0.6,72.4,0.9c0,0.6,0,1.2,0,1.8c0,9.5-1.4,18.8-2.9,28.6c-0.4,2.4-0.7,4.8-1.1,7.3l2.8,0.3
			c0.3-2.4,0.7-4.8,1.1-7.3c1.4-9.4,2.9-19.2,2.9-28.9c0-0.6,0-1.2,0-1.8c20.8,0.2,41.5,0.4,60.6,0.7c0.5,6.5,1,12.7,1.5,18.8
			c0.5,6.2,1,12.4,1.5,18.9C360.5,524.3,288.5,524.1,232.6,523.6z M327.9,545.3c-3.7,0.1-27,0.1-54.8,0.2c0.2-2.2,0.6-4.5,1-6.9
			c0.6-3.1,1.2-6.4,1.2-9.6c0-1.1-0.2-2.1-0.3-3.1c17.7,0.1,35.8,0.2,52.9,0.3c-0.2,3.3-0.4,6.6-0.4,9.9
			C327.6,539.1,327.7,542.2,327.9,545.3z M197.4,482.3c-18.4,0-45.2-0.1-75.6-0.1c-0.4-2.9-0.5-6-0.5-9.6c0-3.5,0.2-7.1,0.3-10.6
			c0.1-3.3,0.3-6.6,0.3-9.9c32.5,0,60.7,0,78.9,0.1c-0.4,3.5-0.9,7-1.5,10.4c-0.9,5.3-1.9,10.8-1.9,16.3
			C197.2,480,197.3,481.1,197.4,482.3z M157.2,523.4c-16.6,0-35.1-0.1-54.7-0.1c0.4-4.7,1.2-9.4,2-13.9c1.1-6,2.3-12.3,2.3-18.5
			c0-2.3-0.2-4.4-0.5-6.4c18.5,0.1,36,0.1,51.5,0.2c-0.1,0.9-0.1,2-0.1,3.5c0,4.6-0.2,9.3-0.4,13.8c-0.2,4.5-0.4,9.2-0.4,13.9
			C157,518.5,157.1,521,157.2,523.4z M182.5,383.6c16.8,0,28.5,0,32.5,0c16.6,0.1,35.4,0.1,53.3,0.2c0,0.8-0.1,1.7-0.1,2.5
			c0,2.3,0.1,4.6,0.1,7c0.1,2.3,0.1,4.7,0.1,7c0,3.3-0.1,6.9-0.4,9.9c-16.9,0.1-34.8,0.1-50.8,0.2c-4.6,0-18.6,0-38.3,0.1
			c0-0.9-0.1-2-0.1-2.5c0-3.6,1-7.3,1.9-10.8c1-3.6,1.9-7.4,1.9-11.2C182.7,385.1,182.6,384.4,182.5,383.6z M240.5,412
			c0,12.6,0,25.6-1.8,38.7c-6.6,0-13-0.1-19.1-0.1c-5.4,0-24.8-0.1-51.8-0.1c0.1-2.1,0.1-4.2,0.2-6.3c0.3-10.8,0.7-21.9,2.4-32
			c24.2,0,41.4-0.1,46.6-0.1C224.4,412.1,232.4,412.1,240.5,412z M178,396.7c-1,3.7-2,7.4-2,11.3c0,0.5,0,1.6,0.1,2.5
			c-21,0-48,0.1-77.2,0.1l0.1-2.3c0.2-4.3,0.5-9.1,0.5-12.9c0-4.4-0.3-8.3-0.8-11.9c31.1,0,59.6,0,80.8,0.1c0.1,0.8,0.2,1.5,0.2,2.3
			C179.9,389.5,178.9,393,178,396.7z M167.5,412.2c-1.7,10.2-2.1,21.2-2.4,32c-0.1,2.1-0.1,4.2-0.2,6.3c-21.7,0-48-0.1-75.9-0.1
			c-1.3-9-1.4-18.2-1.4-27.1c0-3.7-0.1-7.4-0.2-11.1C117.1,412.3,145,412.3,167.5,412.2z M201.9,462.9c0.6-3.5,1.2-7.1,1.6-10.7
			c8.1,0,13.9,0,16.6,0c19.7,0.1,42,0.1,61.8,0.2c-0.2,3.7-0.6,7.5-0.9,11.1c-0.6,5.4-1.1,11-1.1,16.5c0,0.9,0,1.8,0.1,2.7
			c-18.9-0.1-39.8-0.2-58.4-0.4c-3.3,0-10.8,0-21.3-0.1c-0.1-1.2-0.2-2.3-0.2-3.5C200.1,473.6,201,468.1,201.9,462.9z M320.5,434
			c-0.6,4.7-1.2,9.6-1.2,14.4c0,0.8,0,1.6,0.1,2.5c-23.6,0-51.9-0.1-77.9-0.2c1.8-13.1,1.8-26.1,1.8-38.7
			c29.6-0.1,60.5-0.2,77.6-0.2c0.5,2.5,0.7,5.1,0.7,8C321.7,424.5,321.1,429.4,320.5,434z M270.9,410.2c0.4-3,0.4-6.6,0.4-9.9
			c0-2.3-0.1-4.7-0.1-7c-0.1-2.3-0.1-4.6-0.1-6.9c0-0.8,0-1.7,0.1-2.5c32.4,0.1,61,0.3,66.3,0.4c0.6,5.2,0.6,10.5,0.7,15.5
			c0,3.4,0.1,6.8,0.3,10.3c-1.5,0-3.1,0-4.6,0C329.1,410,302,410.1,270.9,410.2z M302,367.1c-0.5,4.3-1.1,10.1-1.1,15.6
			c-3.7,0-7.5-0.1-11.3-0.1c0.3-2.7,0.9-5.5,1.5-8.2c0.9-4,1.8-8.1,1.8-12.3c0-1.8-0.2-3.4-0.6-5c3.4,0,6.7,0.1,10,0.1
			c0,0.5,0,1,0,1.5c0,1,0.1,2,0.1,3.1C302.5,362.8,302.3,364.7,302,367.1z M289.5,357.1c0.4,1.6,0.6,3.2,0.6,5
			c0,3.9-0.9,7.9-1.7,11.8c-0.6,2.8-1.2,5.7-1.5,8.6c-5.2,0-10.4-0.1-15.7-0.1c0-0.1,0-0.2,0-0.2l-2.8-0.1c0,0.1,0,0.2,0,0.3
			c-18.4-0.1-36.8-0.2-52.9-0.3c-0.8,0-1.9,0-3.2,0c0.2-4,0.4-9.6,0.4-13.9c0-6.5-0.3-10-0.7-12
			C234.8,356.5,263.1,356.8,289.5,357.1z M251.1,354.2c-13.8-0.1-27.9-0.2-40.4-0.2c-0.1,0-0.2,0-0.4,0c-0.1,0-0.2,0-0.4,0
			c-2.3,0-4.6,0-6.8,0c-2,0-7,0-14.5,0c-0.1-2.5-0.2-5-0.2-7.5l0-7.1c0-3.6-0.1-7.4-0.4-11.4c9.6,0,16.2,0,18.7,0
			c14,0.1,30.2,0.1,46,0.2c0.3,2.3,0.5,4.6,0.5,7.1C253.3,342,252.2,348.5,251.1,354.2z M119,452.1c0,3.2-0.1,6.5-0.3,9.8
			c-0.2,3.5-0.3,7.1-0.3,10.7c0,3.6,0.2,6.7,0.5,9.6c-22.5,0-46.8-0.1-71.1-0.1c-1.3-9.6-2.7-20.4-2.9-30
			C70.2,452.1,95.6,452.1,119,452.1z M61.7,525.1c-0.1,1.5-0.2,3-0.2,4.7c0,2.1,0.1,4.3,0.2,6.4c0.1,2.1,0.2,4.2,0.2,6.3
			c0,1.1,0,2.1-0.1,3.2l2.8,0.1l0,0l0,0l0,0c-26.1,0-52.7,0-77.4,0c0.5-3.6,1.3-7.2,2-10.6c0.7-3.3,1.5-6.8,2-10.2
			C13.8,525,37.9,525,61.7,525.1z M160.1,523.4c-0.1-2.4-0.2-4.8-0.2-7.6c0-4.6,0.2-9.3,0.4-13.8c0.2-4.5,0.4-9.2,0.4-13.9
			c0-1.9,0-2.9,0.1-3.5c32.3,0.1,55.9,0.2,61.7,0.3c4.1,0.1,8.4,0.1,12.7,0.2c-0.1,8.7-1.7,17.4-3.3,25.8c-0.8,4.2-1.6,8.4-2.2,12.7
			c-2,0-3.9,0-5.8,0C217.3,523.5,193,523.4,160.1,523.4z M194.2,544.3c0.4-6.2,0.8-12.6,0.8-18.9c14.5,0,24.7,0.1,28.4,0.1
			c15,0.2,31.7,0.3,48.8,0.4c0.2,1,0.3,2,0.3,3.1c0,3-0.6,6.2-1.2,9.2c-0.4,2.4-0.9,4.9-1.1,7.3c-8.9,0-18.2,0-27.5,0.1
			c0,0,0,0,0-0.1L240,545c-0.1,0.2-0.1,0.4-0.1,0.6c-6.9,0-13.7,0-20.2,0.1c-3.7,0-12.7,0-25.5,0L194.2,544.3z M508.9,566.3
			c-0.3,4.4-0.6,8.9-0.7,13.3c-32-0.6-63.9-0.7-95.2-0.8c-6.3,0-12.6,0-19-0.1c0.5-5.5,0.9-10.6,1.4-15.8c0.5-5.4,1-10.8,1.5-16.6
			c8.8,0,17.7-0.1,26.7-0.1c27.8,0,56.3,0.2,86,0.6c0.1,1.3,0.1,2.5,0.1,3.8C509.6,555.8,509.2,561.1,508.9,566.3z M508.8,526.1
			c7.4,0,14.5,0,21.2,0c0,6.3,0,12.9-0.5,19.2c-32.8-0.5-64-0.8-94.4-0.8c0-1.9,0-3.7-0.1-5.6c-0.1-2.2-0.1-4.4-0.1-6.7
			c0-2.2,0.1-4.2,0.2-6c9,0,17.9,0,26.9-0.1C477.6,526.2,493.2,526.1,508.8,526.1z M428.7,452.4c19.4-0.1,39.6-0.3,59.3-0.3
			c16.3,0,31.1,0.1,45,0.3c0,8.2-0.4,16.4-0.9,24.3c-0.2,3.6-0.4,7.3-0.5,11c-26.6-0.7-53.1-1.2-79.1-1.8
			c-5.6-0.1-11.2-0.2-16.8-0.3c-0.1-3.1-0.2-6.5-0.2-10.3c0-3.8,0.1-7.7,0.1-11.5c0.1-3.8,0.1-7.6,0.1-11.4h-3
			c0,3.8-0.1,7.5-0.1,11.3c-0.1,3.8-0.1,7.7-0.1,11.5c0,3.8,0.1,7.2,0.2,10.2c-30.2-0.6-60.8-1.3-91.3-2.3c-0.3-2.7-0.5-5.6-0.5-9.1
			c0-2,0-4,0.1-6c0-2,0.1-4,0.1-6c0-3.7-0.2-6.8-0.5-9.6c10.2,0.1,19.8,0.1,28.8,0.1C389.1,452.7,409.2,452.6,428.7,452.4z
			 M402,449.4l0.2,1.5c-11,0.1-22,0.1-32.9,0.1c-6,0-24.1,0-47.1,0c0-0.8-0.1-1.6-0.1-2.5c0-4.7,0.6-9.5,1.2-14.2
			c0.6-4.7,1.2-9.7,1.2-14.5c0-2.9-0.3-5.5-0.7-8c5.1,0,8.6,0,10,0c21.7,0,43.8,1.1,66.5,2.7l-2.1,0.1
			C399.3,426.3,400.6,437.5,402,449.4z M341.4,410.1c-0.2-3.5-0.2-6.9-0.3-10.3c-0.1-5-0.1-10.2-0.7-15.4
			c33.2,0.9,66.3,2.2,99.2,3.5c0.2,4,0.6,8,0.9,11.9c0.5,5.3,0.9,10.8,1,16.2C406.8,413.1,373.7,410.5,341.4,410.1z M471.7,389.3
			c20.6,0.9,41,1.9,61.3,2.8c5.1,0.2,10.1,0.5,15.2,0.7H546c0,6.8,0.5,13.9,0.9,20.7c0.2,3.1,0.4,6.1,0.5,9.1
			c-34.2-0.7-68.9-3.6-102.7-6.4c0,0-0.1,0-0.1,0c-0.1-5.6-0.6-11.2-1-16.6c-0.3-3.8-0.7-7.7-0.9-11.6c8.7,0.4,17.3,0.7,25.9,1.1
			c0,0.1,0,0.1,0,0.2L471.7,389.3C471.7,389.3,471.7,389.3,471.7,389.3z M404.8,359.1c0,0.1,0,0.2,0,0.3l3,0.1c0-0.1,0-0.2,0-0.3
			c21.2,0.5,42.3,1,63.3,1.4c-0.2,4.1-0.7,8.2-1.2,12.2c-0.6,4.8-1.1,9.7-1.3,14.6c-32.8-1.5-65.9-2.8-99.1-3.9
			c1.3-8.3,2.7-16.8,3.6-25.3C383.8,358.5,394.3,358.8,404.8,359.1z M370.3,358.1c-0.9,8.4-2.3,17-3.6,25.3c-8-0.3-33-0.5-62.8-0.7
			c0-5.4,0.6-11.2,1.1-15.4c0.3-2.5,0.5-4.4,0.5-5.5c0-1,0-2.1-0.1-3.1c0-0.5,0-0.9,0-1.4C335.9,357.6,361.7,357.9,370.3,358.1z
			 M358.3,327.5c-13.5-0.2-89.6-0.6-142.1-0.9c0-3.2,0.2-6.4,0.3-9.5c0.2-3.5,0.4-7.2,0.4-10.8c0-5.3-0.4-9.8-1.3-13.9
			c17.6,0.1,30.4,0.1,36.2,0.2c13.4,0.1,27.5,0.3,41.6,0.4c0,1.1-0.1,2.2-0.1,3.3c0,4.2,0.2,8.3,0.3,12.5c0.2,4.1,0.3,8.3,0.3,12.4
			c0,1.8,0,3.6-0.1,5.4l2.8,0.1c0.1-1.8,0.1-3.7,0.1-5.5c0-4.2-0.2-8.3-0.3-12.5c-0.2-4.1-0.3-8.3-0.3-12.4c0-1.1,0-2.2,0.1-3.3
			c21.4,0.2,42.8,0.4,62.2,0.6c-0.4,4.6-0.6,9.4-0.6,14.9C357.8,314.9,358.1,321.3,358.3,327.5z M328.4,290.4
			c-0.2-4.7-0.3-9.4-0.3-14c0-5.1,0.1-10.2,0.4-15.5c20.4,0.4,40.7,0.7,60.9,1v30C369.1,291.4,348.8,290.9,328.4,290.4z
			 M436.7,294.8c0,11-0.5,22.2-1.4,33.3c-4.5,0-9.1,0.1-13.6,0.1c-20,0-40.2-0.2-60.4-0.6c-0.3-6.2-0.5-12.6-0.5-19
			c0-5.5,0.2-10.3,0.6-14.9c28.9,0.3,52.9,0.6,65.3,0.9c4.2,0.1,8.5,0.2,12.8,0.3H436.7z M421.3,262.5c0-0.1,0-0.1,0-0.2
			c17.2,0.2,34.5,0.5,51.9,0.8c-0.5,5.2-0.9,10.5-1.2,15.8c-0.3,5-0.7,9.9-1.2,14.8c-14.7-0.3-29.4-0.7-43.9-1
			c-11.4-0.3-22.9-0.5-34.5-0.8v-30c4.7,0.1,9.4,0.1,14.1,0.2c2,0,3.9,0.1,5.9,0.1c0,0,0,0,0,0l3,0.1c0,0,0,0,0-0.1c1,0,2,0,3,0
			c0,0.1,0,0.2,0,0.3L421.3,262.5z M537.4,213.9c-0.4,3.3-0.6,6.7-0.8,9.9c-0.3,4.9-0.7,10-1.5,14.9c-12.3,0.3-25.2,0.5-38.9,0.5
			c-16.4,0-33-0.2-49.4-0.6c0.4-5.5,1.6-11.2,2.7-16.7c0.6-3,1.2-6,1.7-8.9l-3-0.2c-0.5,2.9-1.1,5.9-1.7,8.9
			c-1.1,5.5-2.2,11.3-2.7,16.9c-13.7-0.3-27.3-0.6-40.7-1c-16.2-0.4-32.7-0.9-49.2-1.2v-24.3c19.8,0.2,39.5,0.3,59,0.3
			c31.3,0.1,63.2,0.3,95.2,0.8c0,0.2,0,0.4,0,0.6h3c0-0.2,0-0.4,0-0.5C519.9,213.5,528.7,213.7,537.4,213.9z M508.8,158.1
			c7.4,0,14.5,0,21.2,0c0,6.3,0,12.9-0.5,19.2c-32.8-0.5-64-0.8-94.4-0.8c0-1.9,0-3.7-0.1-5.6c-0.1-2.2-0.1-4.4-0.1-6.7
			c0-2.2,0.1-4.2,0.2-6c9,0,17.9,0,26.9-0.1C477.6,158.1,493.2,158.1,508.8,158.1z M428.7,84.4c19.4-0.1,39.6-0.3,59.3-0.3
			c16.3,0,31.1,0.1,45,0.3c0,8.2-0.4,16.4-0.9,24.3c-0.2,3.6-0.4,7.3-0.5,11c-26.6-0.7-53.1-1.2-79.1-1.8
			c-5.6-0.1-11.2-0.2-16.8-0.3c-0.1-3.1-0.2-6.5-0.2-10.3c0-3.8,0.1-7.7,0.1-11.5c0.1-3.8,0.1-7.6,0.1-11.4h-3
			c0,3.8-0.1,7.5-0.1,11.3c-0.1,3.8-0.1,7.7-0.1,11.5c0,3.8,0.1,7.2,0.2,10.2c-30.2-0.6-60.8-1.3-91.3-2.3c-0.3-2.7-0.5-5.6-0.5-9.1
			c0-2,0-4,0.1-6c0-2,0.1-4,0.1-6c0-3.7-0.2-6.8-0.5-9.6c10.2,0.1,19.8,0.1,28.8,0.1C389.1,84.7,409.2,84.5,428.7,84.4z M402,81.4
			l0.2,1.5c-11,0.1-22,0.1-32.9,0.1c-7,0-29.8,0-57.8-0.1c0.5-6.6,1.4-13.2,2.3-19.6c0.9-6.3,1.7-12.9,2.2-19.5c9.3,0,15.8,0,17.9,0
			c21.7,0,43.8,1.1,66.5,2.7l-2.1,0.1C399.3,58.3,400.6,69.5,402,81.4z M468.7,21.1c0,0.1,0,0.1,0,0.2h3c0,0,0,0,0,0
			c20.6,0.9,41,1.9,61.3,2.8c5.1,0.2,10.1,0.5,15.2,0.7H546c0,6.8,0.5,13.9,0.9,20.7c0.2,3.1,0.4,6.1,0.5,9.1
			c-34.2-0.7-68.9-3.6-102.7-6.4c0,0-0.1,0-0.1,0c-0.1-5.6-0.6-11.2-1-16.6c-0.3-3.8-0.7-7.7-0.9-11.6
			C451.4,20.4,460,20.7,468.7,21.1z M439.7,19.9c0.2,4,0.6,8,0.9,11.9c0.5,5.3,0.9,10.8,1,16.2c-34.9-2.9-68-5.5-100.3-5.9
			c-0.2-3.5-0.2-6.9-0.3-10.3c-0.1-5-0.1-10.2-0.7-15.4C373.7,17.3,406.8,18.5,439.7,19.9z M288.5-12.3c37.7,0.5,71.8,0.9,81.9,1.3
			c-0.9,8.8-2.4,17.7-3.8,26.3c-9.4-0.3-42-0.6-78.4-0.8c0.1-1.5,0.1-3.5,0.1-4.9c0-2.3-0.1-4.6-0.1-7c-0.1-2.3-0.1-4.6-0.1-6.9
			C288-7.3,288.2-9.8,288.5-12.3z M198.3-13.6c23.7,0.4,56.5,0.8,87.3,1.2c-0.3,2.5-0.4,5.1-0.4,8.1c0,2.3,0.1,4.6,0.1,6.9
			c0.1,2.3,0.1,4.6,0.1,6.9c0,1.4,0,3.4-0.1,4.9C259.9,14.3,233,14.2,211,14l-0.8-0.1c0,0,0,0,0,0c-4.7,0-9.1-0.1-13.2-0.1
			C197,4.8,197.4-4.4,198.3-13.6z M105.8-14c44.6,0.1,78.6,0.1,81.7,0.2c2.5,0.1,5.2,0.1,7.9,0.2c-0.9,9.1-1.3,18.4-1.3,27.5
			c-2.6,0-5.2,0-7.6-0.1c-3,0-38.3,0-84.1-0.1c0.3-3.2,0.9-6.5,1.5-9.7c0.9-5,1.9-10.2,1.9-15.5C105.9-12.2,105.9-13.1,105.8-14z
			 M7.9-14.1c32.2,0,65.7,0.1,95,0.1c0.1,0.9,0.1,1.7,0.1,2.6c0,5.1-0.9,10.2-1.9,15.1c-0.6,3.3-1.2,6.7-1.6,10
			c-10.8,0-22.2,0-33.9,0l-2.6-0.2c0,0.1,0,0.1,0,0.2c-18.2,0-36.9,0-55.3,0V-14.1z M-41.2,13.7c-17.9,0-34.1,0-47.4,0l1.5,0
			c-0.1-2.9-0.2-5.8-0.2-8.8c0-6.5,0.3-13,0.6-19.1c24,0,57,0.1,91.8,0.1v27.8c-15.4,0-30.4,0-44.4,0c0,0,0-0.1,0-0.1L-41.2,13.7z
			 M-88.1,46.1c0-0.5,0-1.1,0-1.6c16.5,0,37.5,0,60.5,0c0,4.4-0.2,8.8-0.4,13.1c-0.2,4.9-0.4,9.9-0.4,14.9c0,3.6,0.1,6.8,0.3,9.9
			c-9.9,0-19.4,0-28.3,0c0,0,0-0.1,0-0.1l-1.4,0.1c-9.9,0-19,0-27.2,0l1.1-0.1c-0.4-3-0.9-6.1-1.4-9.1
			C-86.7,63.8-88.1,55.1-88.1,46.1z M-95.1,113.9c0-0.8,0.1-1.7,0.1-2.5c0-5.3-0.6-10.7-1.3-16c-0.4-3.8-0.9-7.7-1.1-11.5
			c10.5,0,23.6,0,38.4,0c0.6,5.6,1.6,11.2,2.6,16.6c0.8,4.4,1.7,8.9,2.3,13.4C-69.8,113.9-83.8,113.9-95.1,113.9z M-79.5,154.8
			c1.4-13.3,1.9-26.4,2.3-39.1c14.7,0,32.2,0,51.3,0.1c-0.6,3-0.8,5.7-0.8,8.9c0,5.5,0.6,11.1,1.3,16.5c0.5,4.4,1,9.1,1.2,13.5
			l2.8-0.1c-0.2-4.5-0.7-9.2-1.2-13.7c-0.6-5.4-1.3-10.9-1.3-16.3c0-3.3,0.3-5.9,0.8-8.9c19.8,0,41.4,0,63.5,0.1
			c-0.2,6.4-0.6,12.8-0.9,19.2c-0.4,6.7-0.7,13.4-0.9,20c-35.7,0-71.4-0.1-100.2-0.1c0,0,0-0.1,0-0.1l-1.8,0.1
			C-69,154.8-74.4,154.8-79.5,154.8z M-80,209.6c-0.5-5.4-1.7-10.6-2.8-15.7c-1.1-4.7-2.1-9.5-2.6-14.4c16.8,0,37.8,0,60.8-0.1v30
			h2.8v-30c22,0,45.6,0,69-0.1v30.2C1.1,209.6-46.6,209.6-80,209.6z M-38.1,211.4c24.1,0,51,0,77.6,0c-0.3,2.5-0.6,5-0.9,7.5
			c-0.7,5.5-1.5,11.2-1.8,16.9l2.8,0.1c0.3-5.6,1.1-11.2,1.8-16.7c0.3-2.6,0.7-5.2,1-7.7c25.6,0,50.8,0,72.9,0l0,0.2
			c0.5,8,0.9,16.4,1.8,24.3l2.8-0.2c-0.9-7.9-1.4-16.2-1.8-24.2l0,0c38.9,0,67.7,0,70.9,0.1c3.2,0,6.6,0,10.2,0.1
			c-0.2,4.1-0.5,8-0.9,12c-0.3,4.1-0.7,8.2-0.9,12.4c-1.9,0-3.9,0-5.7,0c-9,0-135.8,0-226.1,0c-0.8-4.3-1.4-8.5-2-12.7
			C-36.8,219.4-37.4,215.4-38.1,211.4z M5.7,251c-0.2,1.4-0.3,2.4-0.3,2.7c0,0.9,0.1,1.9,0.1,2.8c0,0.7,0.1,1.4,0.1,2.1
			c-25.7,0-50.4,0-71.2,0l2.2-0.2c-0.3-2.6-0.4-5-0.4-7.3l0-3.7c0-2.9-0.1-6.2-0.7-9.6c21,0,45.7,0,71.5,0
			C6.8,242.6,6.1,248,5.7,251z M91.6,258.6c-14.4,0-29.5,0-44.7,0l-2.6-0.2c0,0.1,0,0.1,0,0.2c-12,0-24.1,0-35.9,0
			c0-0.7,0-1.4-0.1-2.2c0-0.9-0.1-1.8-0.1-2.7c0-0.3,0.1-1.2,0.3-2.4c0.4-3.1,1.2-8.5,1.3-13.6c27.1,0,55.1,0,80.9,0
			c0.1,1.7,0.2,3.3,0.4,5c0.3,4.1,0.7,8.3,0.7,12.4C91.7,256.3,91.7,257.5,91.6,258.6z M94.4,258.6c0.1-1.1,0.1-2.3,0.1-3.4
			c0-4.2-0.3-8.5-0.7-12.6c-0.1-1.6-0.3-3.3-0.4-4.9c30.8,0,58,0,76,0c-1.5,9.9-2.5,20.7-2.5,20.8l1.4,0.1
			C150.1,258.6,123.8,258.6,94.4,258.6z M67.4,292c25.8,0.1,51.6,0.1,75.4,0.2c1.3,11.3,2.2,22.3,3.1,34.2
			c-22.9,0-50.4-0.1-78.8-0.1c0.1-1,0.1-2.6,0.1-5.1c0-2.9-0.1-5.9-0.1-8.8c-0.1-2.9-0.1-5.8-0.1-8.8C66.8,299.1,67,295.4,67.4,292z
			 M65.6,327.9c0.3,0,0.5,0,0.7-0.1c17.6,0,34.8,0,50.9,0c0,0.9,0.1,1.8,0.1,2.7c0,4.8-0.4,9.7-0.8,14.4c-0.3,2.9-0.5,5.8-0.7,8.8
			c-51.7,0-116.3-0.1-165.5-0.1c-0.1-1-0.1-2.1-0.1-3.1c0-1.9,0.1-3.8,0.1-5.8c0.1-1.9,0.1-3.9,0.1-5.8c0-3.1-0.2-7-1.2-11.1
			c24.5,0,53,0,82,0c1.5,6,1.7,12.2,1.7,18.3c0,2.5,0.1,5,0.2,7.5l2.8-0.1c-0.1-2.5-0.2-4.9-0.2-7.4c-0.1-6-0.2-12.2-1.7-18.2
			C44.6,327.9,55.1,327.9,65.6,327.9L65.6,327.9z M-7.7,291.8c23,0.1,47.6,0.1,72.3,0.2c-0.4,3.4-0.5,7.2-0.5,11.6
			c0,2.9,0.1,5.9,0.1,8.8c0.1,2.9,0.1,5.8,0.1,8.8c0,1.5,0,3.3,0,4.4h-0.1l0,0.7c-23.4,0-47.3,0-70-0.1c-0.2-4.4-0.6-8.8-1-13.1
			c-0.5-5.6-1.1-11.3-1.1-17C-7.9,294.6-7.8,293.2-7.7,291.8z M-80.6,326.1l1.4,0c-0.4-9.2-0.3-18.8-0.3-28.1l0-6.4
			c19.1,0.1,42.9,0.1,68.9,0.2c-0.1,1.4-0.2,2.9-0.2,4.3c0,5.8,0.6,11.6,1.1,17.2c0.4,4.2,0.8,8.6,1,12.9c-15,0-29.3,0-42.5-0.1
			c0,0,0-0.1,0-0.1l-0.5,0.1C-62.2,326.1-71.9,326.1-80.6,326.1z M-60.2,381.6l-1.4,0.2c-13,0-24.7,0-34.2,0l1.1-0.3
			c-1.5-4.8-1.9-9.7-2.3-14.5c-0.3-3.8-0.8-7.7-1.6-11.6c17.4,0.1,42.1,0.1,70.2,0.2c0,3.5-0.3,7-0.5,10.4
			c-0.3,3.9-0.5,7.9-0.5,11.9c0,1.3,0,2.6,0.1,4c-10.8,0-21.1,0-30.7,0C-60.1,381.7-60.1,381.6-60.2,381.6z M-57.1,410.7l2-0.5
			c-2.1-5.9-2.8-12.1-3.5-18c-0.3-2.9-0.7-5.8-1.2-8.8c24.2,0,53.1,0,83,0c0.3,1.8,0.5,3.7,0.5,5.8c0,3.6-0.5,7.3-1,10.8
			c-0.5,3.5-1,7-1,10.6C-6.6,410.7-33.9,410.7-57.1,410.7z M-21.9,452c20.2,0,42,0,63.9,0c0.2,9.7,1.6,20.4,2.9,30
			c-22.7,0-45.3-0.1-66.3-0.1c0-3.8-0.1-7.7-0.3-11.5c-0.2-4.3-0.3-8.6-0.3-12.9C-22,455.7-21.9,453.9-21.9,452z M-31.7,484
			c20,0.1,41.7,0.1,63.9,0.2c1.5,15.5,6.1,37.9,6.2,38.1c0,0.2,0,0.5-0.1,0.8c-25.5,0-50.6-0.1-73.2-0.1c0.3-4.7,0.9-9.4,1.4-14
			c0.9-7.6,1.8-15.4,1.8-23.1C-31.7,485.3-31.7,484.7-31.7,484z M-88.9,522.9l1.1-0.3c-4-9.4-5.3-19.4-6.6-29
			c-0.4-3.2-0.9-6.5-1.4-9.7c15.8,0.1,37.1,0.2,61.2,0.2c0,0.6,0,1.2,0,1.9c0,7.6-0.9,15.4-1.8,22.9c-0.5,4.7-1.1,9.5-1.4,14.2
			C-57.3,523-74.8,522.9-88.9,522.9z M-54.5,545.8c-7.7,0-15,0-21.8,0c-0.6-5.1-0.9-9.6-0.9-13.7c0-2.6,0.2-5.1,0.4-7.4
			c18.4,0.1,40.8,0.1,65.1,0.2c-0.5,3.3-1.2,6.6-1.9,9.8c-0.8,3.6-1.6,7.3-2.1,11.1c-12.6,0-24.7,0-36,0c0,0,0-0.1,0-0.1h-2.8
			C-54.5,545.7-54.5,545.8-54.5,545.8z M-51.8,577.6c-0.6-3-0.9-6.2-0.9-9.9c0-3.6,0.3-7.3,0.5-10.9c0.2-3.1,0.4-6.2,0.5-9.4
			c20.8,0,44.5-0.1,69-0.1c-0.1,1.8-0.1,3.7-0.1,5.5c0,3,0.1,6.1,0.2,9.2c0.1,3,0.2,6.1,0.2,9.1c0,2,0,4-0.1,6l2.8,0.1
			c0.1-2,0.1-4,0.1-6c0-3-0.1-6.1-0.2-9.2c-0.1-3-0.2-6.1-0.2-9.1c0-1.8,0-3.7,0.1-5.5c25.4,0,51.6-0.1,76.5-0.1
			c-1.1,7.5-2.1,16.3-2.1,24.9c0,1.6,0,3.2,0.1,4.8l2.8-0.1c-0.1-1.6-0.1-3.1-0.1-4.7c0-8.6,1.1-17.4,2.1-24.9
			c22.4,0,43.6,0,61.9-0.1c-0.1,4.7-0.3,9.4-0.7,14c-0.3,5.1-0.7,10.4-0.7,15.6h2.8c0-5.1,0.4-10.4,0.7-15.5
			c0.3-4.6,0.6-9.4,0.7-14.1c30.2,0,52.2-0.1,58.2-0.1c5.5,0,11.2-0.1,17.1-0.1c-1.7,7.5-2.3,15.2-2.8,22.7
			c-0.2,2.7-0.4,5.4-0.6,8.1c-6.7,0-13.4,0-19.9,0C198.4,577.7,42.8,577.6-51.8,577.6z"/>
	</g>
	<g class="st2">
		<g class="st3">
			<path class="st1" d="M559.2,488.6c-8.9-0.3-17.9-0.5-26.8-0.8c0.2-3.7,0.3-7.4,0.5-11c0.4-7.9,0.9-16.2,0.9-24.3
				c8.8,0.2,17.2,0.4,25.4,0.6V488.6z"/>
			<path class="st1" d="M430.5,158.3c-0.1,1.8-0.2,3.8-0.2,6c0,2.2,0.1,4.5,0.1,6.7c0,1.9,0.1,3.7,0.1,5.6c-2.9,0-5.8,0-8.6,0
				c-31.9,0-62.4,0.2-92.3,0.7c-0.2-3.1-0.3-6.1-0.3-9.2c0-3.5,0.1-7,0.4-10.4l-3-0.1c-0.2,3.5-0.4,7-0.4,10.5
				c0,3.1,0.1,6.2,0.3,9.3c-9.5,0.2-441.1,0.4-450.5,0.6v-21.4c18.5,0.7,129.5,0.3,245.9,0.6c132.4,0.3,271.9,1.3,291.5,1.3
				C419.2,158.3,424.8,158.3,430.5,158.3z"/>
			<path class="st1" d="M336.8,399.8c0,3.4,0.1,6.8,0.3,10.3c-1.5,0-3.1,0-4.6,0c-11.5,0-445,0.3-456.4,0.8v-27.5
				c12.6,0.2,447.4,0.5,460,0.9C336.7,389.5,336.8,394.7,336.8,399.8z"/>
			<path class="st1" d="M392.3,210.6c0.5-5.5,0.9-10.6,1.4-15.8c0.5-5.4,1-10.8,1.5-16.6c8.8,0,17.6-0.1,26.6-0.1
				c27.7,0,56.1,0.2,85.7,0.6c0.1,1.3,0.1,2.5,0.1,3.8c0,5.2-0.4,10.5-0.8,15.6c-0.3,4.4-0.6,8.9-0.7,13.3
				c-31.9-0.6-63.7-0.7-94.8-0.8C405,210.7,398.6,210.7,392.3,210.6z"/>
			<path class="st1" d="M323.8,276.4c0,4.6,0.1,9.2,0.3,13.9c-8.6-0.2-439.4-0.5-448-0.7v-29.2c8.6,0.2,439.4,0.4,448,0.6
				C323.9,266.1,323.8,271.2,323.8,276.4z"/>
			<path class="st1" d="M509,326.9c1.2-4.7,2-9.5,2.8-14.1c0.9-5.3,1.7-10.7,3.2-15.9l-2.9-0.3c-1.5,5.3-2.4,10.7-3.2,16
				c-0.8,4.7-1.6,9.6-2.8,14.4c-23.2,0.6-46.3,0.9-69.4,1c0.9-11.1,1.4-22.2,1.4-33.3c40,0.9,80.8,1.9,121.3,3.1v27.4
				C542.5,326,525.7,326.5,509,326.9z"/>
			<path class="st1" d="M471.2,263.1c-0.5,5.2-0.9,10.5-1.2,15.8c-0.3,5-0.7,9.9-1.2,14.8c-14.7-0.3-29.3-0.7-43.7-1
				c-11.4-0.3-22.8-0.5-34.3-0.8v-30c4.7,0.1,9.4,0.1,14,0.2c1.9,0,3.9,0.1,5.9,0.1c0,0,0,0,0,0l3,0.1c0,0,0,0,0-0.1c1,0,2,0,3,0
				c0,0.1,0,0.2,0,0.3l3-0.1c0-0.1,0-0.1,0-0.2C436.7,262.6,453.9,262.8,471.2,263.1z"/>
			<path class="st1" d="M559.2,263.6c-12.7-0.4-25.5-0.8-38.3-1.1c0-1.1-0.1-2.2-0.1-3.3c0-3,0.2-6.2,0.3-9.2c0.2-3,0.3-6.1,0.3-9.1
				h-3c0,3-0.2,6.1-0.3,9.1c-0.2,3-0.3,6.2-0.3,9.3c0,1.1,0.1,2.1,0.1,3.2c-33-0.8-65.9-1.3-98.4-1.8c0-0.2,0-0.3,0-0.5
				c0-4.6,0.8-9.4,1.6-14c0.4-2.1,0.7-4.2,1-6.2c23.9,0.6,48.2,1.1,72.3,1.1c23.5,0,45-0.5,64.9-1.5V263.6z"/>
			<path class="st1" d="M506.7,526.1c7.4,0,14.4,0,21.2,0c0,6.3,0,12.9-0.4,19.2c-32.6-0.5-63.8-0.8-94-0.8c0-1.9,0-3.7-0.1-5.6
				c-0.1-2.2-0.1-4.4-0.1-6.7c0-2.2,0.1-4.2,0.2-6c8.9,0,17.8,0,26.8-0.1C475.7,526.2,491.2,526.1,506.7,526.1z"/>
			<path class="st1" d="M411.2,580.5c31.2,0.1,62.9,0.3,94.8,0.8c0,0.2,0,0.4,0,0.6h3c0-0.2,0-0.4,0-0.5c8.8,0.2,17.5,0.3,26.3,0.6
				c-0.1,0.6-0.1,1.2-0.2,1.7h-86.2c0.2-0.9,0.3-1.7,0.5-2.6l-3-0.2c-0.1,0.9-0.3,1.8-0.5,2.7h-93.4v-3.5
				C372.2,580.3,391.8,580.4,411.2,580.5z"/>
			<path class="st1" d="M485.6,488.5c-1.4,8.9-2.1,18.4-2.1,28.3c0,2.6,0.1,5.1,0.2,7.7c-7.8,0-15.6,0-23.4,0.1
				c-15.5,0.1-31.1,0.1-46.6,0.1c-11.6,0-23.4,0-35.3-0.1c-0.5-6.6-1-12.8-1.5-19c-0.5-6.3-1-12.6-1.5-19.3l-3,0.1
				c0.5,6.7,1,13,1.5,19.3c0.5,6.2,1,12.4,1.5,18.9c-25.1-0.2-473.1-0.7-499.2-1.8v-39.1c27.2,1.1,176,0.4,315.8,1.1
				c121,0.6,235.4,2.6,258.6,3.1C462.1,488,473.8,488.2,485.6,488.5z"/>
			<path class="st1" d="M559.2,120.6c-8.9-0.3-17.9-0.5-26.8-0.8c0.2-3.7,0.3-7.4,0.5-11c0.4-7.9,0.9-16.2,0.9-24.3
				c8.8,0.2,17.2,0.4,25.4,0.6V120.6z"/>
			<path class="st1" d="M367.8,84.7c19.7,0,39.8-0.1,59.1-0.3c19.4-0.1,39.4-0.3,59.1-0.3c16.2,0,31,0.1,44.8,0.3
				c0,8.2-0.4,16.4-0.9,24.3c-0.2,3.6-0.4,7.3-0.5,11c-26.5-0.7-52.9-1.2-78.8-1.8c-5.6-0.1-11.1-0.2-16.7-0.3
				c-0.1-3.1-0.2-6.5-0.2-10.3c0-3.8,0.1-7.7,0.1-11.5c0.1-3.8,0.1-7.6,0.1-11.4h-3c0,3.8-0.1,7.5-0.1,11.3
				c-0.1,3.8-0.1,7.7-0.1,11.5c0,3.8,0.1,7.2,0.2,10.2c-30.1-0.6-60.5-1.3-91-2.3c-0.3-2.7-0.5-5.6-0.5-9.1c0-2,0-4,0.1-6
				c0-2,0.1-4,0.1-6c0-3.7-0.2-6.8-0.5-9.6C349.2,84.7,358.9,84.7,367.8,84.7z"/>
			<path class="st1" d="M367.8,452.7c19.7,0,39.8-0.1,59.1-0.3c19.4-0.1,39.4-0.3,59.1-0.3c16.2,0,31,0.1,44.8,0.3
				c0,8.2-0.4,16.4-0.9,24.3c-0.2,3.6-0.4,7.3-0.5,11c-26.5-0.7-52.9-1.2-78.8-1.8c-5.6-0.1-11.1-0.2-16.7-0.3
				c-0.1-3.1-0.2-6.5-0.2-10.3c0-3.8,0.1-7.7,0.1-11.5c0.1-3.8,0.1-7.6,0.1-11.4h-3c0,3.8-0.1,7.5-0.1,11.3
				c-0.1,3.8-0.1,7.7-0.1,11.5c0,3.8,0.1,7.2,0.2,10.2c-30.1-0.6-60.5-1.3-91-2.3c-0.3-2.7-0.5-5.6-0.5-9.1c0-2,0-4,0.1-6
				c0-2,0.1-4,0.1-6c0-3.7-0.2-6.8-0.5-9.6C349.2,452.7,358.9,452.7,367.8,452.7z"/>
			<path class="st1" d="M390.8,562.8c-0.5,5.2-0.9,10.3-1.4,15.8c-24.8-0.1-50-0.3-75.1-0.7c-0.5-5.2-1-10.1-1.5-15
				c-0.5-5-1-9.9-1.5-15.3l-3,0.1c0.5,5.4,1,10.4,1.5,15.3c0.5,4.8,1,9.6,1.4,14.8c-4.3-0.1-430.8-0.2-435.1-0.3v-30
				c30.6-0.7,483.9-1.1,516.1-1.3C391.7,552.1,391.2,557.5,390.8,562.8z"/>
			<path class="st1" d="M336.8,31.8c0,3.4,0.1,6.8,0.3,10.3c-1.5,0-3.1,0-4.6,0c-11.5,0-445,0.3-456.4,0.8V15.4
				c12.6,0.2,447.4,0.5,460,0.9C336.7,21.5,336.8,26.7,336.8,31.8z"/>
			<path class="st1" d="M546,24.8h-2.2c0,6.8,0.5,13.9,0.9,20.7c0.2,3.1,0.4,6.1,0.5,9.1c-34.1-0.7-68.6-3.6-102.2-6.4
				c0,0-0.1,0-0.1,0c-0.1-5.6-0.6-11.2-1-16.6c-0.3-3.8-0.7-7.7-0.9-11.6c8.6,0.4,17.2,0.7,25.8,1.1c0,0.1,0,0.1,0,0.2h3
				c0,0,0,0,0,0c20.5,0.9,40.9,1.9,61.1,2.8C535.9,24.3,540.9,24.5,546,24.8z"/>
			<path class="st1" d="M507.5,546.8c0.1,1.3,0.1,2.5,0.1,3.8c0,5.2-0.4,10.5-0.8,15.6c-0.3,4.4-0.6,8.9-0.7,13.3
				c-31.9-0.6-63.7-0.7-94.8-0.8c-6.3,0-12.6,0-18.9-0.1c0.5-5.5,0.9-10.6,1.4-15.8c0.5-5.4,1-10.8,1.5-16.6
				c8.8,0,17.6-0.1,26.6-0.1C449.5,546.3,477.9,546.5,507.5,546.8z"/>
			<path class="st1" d="M466.8,389.1c0,0.1,0,0.1,0,0.2h3c0,0,0,0,0,0c20.5,0.9,40.9,1.9,61.1,2.8c5,0.2,10.1,0.5,15.2,0.7h-2.2
				c0,6.8,0.5,13.9,0.9,20.7c0.2,3.1,0.4,6.1,0.5,9.1c-34.1-0.7-68.6-3.6-102.2-6.4c0,0-0.1,0-0.1,0c-0.1-5.6-0.6-11.2-1-16.6
				c-0.3-3.8-0.7-7.7-0.9-11.6C449.6,388.4,458.2,388.8,466.8,389.1z"/>
			<path class="st1" d="M530.9,158.1c10.1,0,19.4,0.1,28.4,0.2v19.5c-9.7-0.2-19.3-0.3-28.8-0.5C530.8,171,530.9,164.5,530.9,158.1z
				"/>
			<path class="st1" d="M530.9,526.2c10.1,0,19.4,0.1,28.4,0.2v19.5c-9.7-0.2-19.3-0.3-28.8-0.5
				C530.8,539.1,530.9,532.5,530.9,526.2z"/>
			<path class="st1" d="M559.2-5.3v28.9c-9.4-0.4-18.8-0.9-28.1-1.3c-20.3-0.9-40.7-1.9-61.3-2.8c0.1-4.9,0.7-9.8,1.2-14.6
				c0.5-4,1-8.2,1.2-12.3l-3-0.1c-0.2,4.1-0.7,8.2-1.2,12.3c-0.6,4.8-1.1,9.7-1.2,14.6c-32.7-1.5-65.6-2.8-98.7-3.9
				c1.4-8.6,2.8-17.5,3.7-26.3c51.2,2,102.5,3.4,152.7,4.6C536.1-5.9,547.7-5.6,559.2-5.3z"/>
			<path class="st1" d="M485.6,120.5c-1.4,8.9-2.1,18.4-2.1,28.3c0,2.6,0.1,5.1,0.2,7.7c-7.8,0-15.6,0-23.4,0.1
				c-15.5,0.1-31.1,0.1-46.6,0.1c-11.6,0-23.4,0-35.3-0.1c-0.5-6.6-1-12.8-1.5-19c-0.5-6.3-1-12.6-1.5-19.3l-3,0.1
				c0.5,6.7,1,13,1.5,19.3c0.5,6.2,1,12.4,1.5,18.9c-25.1-0.2-473.1-0.7-499.2-1.8v-39.1c65.4-1,262.3-0.7,409,0.9
				c80.2,0.8,147.7,3,165.4,3.3C462.1,120,473.8,120.2,485.6,120.5z"/>
			<path class="st1" d="M-123.9,412.6c11.4-0.5,444.9-0.8,456.4-0.8c21.6,0,43.6,1.1,66.3,2.7l-2,0.1c0.9,11.7,2.3,23,3.7,34.8
				l0.2,1.5c-10.9,0.1-21.9,0.1-32.8,0.1c-20.3,0-466.3-0.1-491.7-0.9V412.6z"/>
			<path class="st1" d="M346.2-22.5c-0.4,2.9-0.7,5.8-1.1,8.7c-15.6-0.7-453.5-1.5-469-2.4V-38h471.7
				C347.6-32.8,346.9-27.6,346.2-22.5z"/>
			<path class="st1" d="M524.7-7.9c-10.1-0.3-20.3-0.5-30.4-0.8c0.7-4.8,1-9.5,1.3-14.1c0.3-5,0.6-10,1.4-15.2h62.2v30.9
				C547.7-7.4,536.2-7.7,524.7-7.9z"/>
			<path class="st1" d="M538.1,583.7c0.1-0.6,0.1-1.1,0.2-1.7c7,0.2,14,0.4,21,0.7v1H538.1z"/>
			<path class="st1" d="M-123.9,44.6c11.4-0.5,444.9-0.8,456.4-0.8c21.6,0,43.6,1.1,66.3,2.7l-2,0.1c0.9,11.7,2.3,23,3.7,34.8
				l0.2,1.5c-10.9,0.1-21.9,0.1-32.8,0.1c-20.3,0-466.3-0.1-491.7-0.9V44.6z"/>
			<path class="st1" d="M-123.9,327.7c7.9,0.3,438.1,0.5,446.1,0.7c0,8.9,0.5,17.3,0.9,26.3c-8.3-0.4-438.7-0.8-447-1.2V327.7z"/>
			<path class="st1" d="M326.1,354.9c25.7,1.1,51.5,1.9,77.2,2.5c0.3-3.6,0.6-7.1,1-10.6c0.6-5.4,1.3-11,1.3-16.6h3
				c0,5.7-0.7,11.3-1.3,16.8c-0.4,3.4-0.8,7-1,10.5c39.7,1,79.4,1.7,118.4,2.6c11.5,0.3,23,0.6,34.5,0.9V327
				c-3.5,0.1-7,0.3-10.5,0.4c0,1.1,0.1,2.2,0.1,3.3c0,4.3-0.3,8.7-0.6,13c-0.3,4.2-0.6,8.6-0.6,12.9c0,1.2,0,2.5,0.1,3.7l-3,0
				c-0.1-1.2-0.1-2.5-0.1-3.8c0-4.3,0.3-8.7,0.6-13c0.3-4.2,0.6-8.6,0.6-12.9c0-1,0-2.1-0.1-3.1c-12.4,0.4-24.8,0.8-37.3,1.1
				c0,0,0,0.1,0,0.1l-1.2-0.1c-29.2,0.7-58.3,1.1-87.2,1.1c-20.2,0-40.6-0.2-61-0.6l-2.1,0c0,0,0,0,0-0.1
				c-10.6-0.2-21.2-0.4-31.8-0.7C325.2,337.4,325.6,345.9,326.1,354.9z M474.2,358.5l0.2-1.2c1.4-9.2,2.9-18.7,5.3-27.9l2.9,0.3
				c-2.4,9.1-3.8,18.6-5.3,27.8l-0.2,1.2L474.2,358.5z"/>
			<path class="st1" d="M318.7,237.8c-1.4,5.4-1.5,10.9-1.7,16.2c0,1.7-0.1,3.3-0.2,5c-6.2-0.1-434.5-0.3-440.7-0.4v-20.8
				c3.4,0,429.1,0,432.6,0C312,237.7,315.4,237.7,318.7,237.8z"/>
			<path class="st1" d="M548.2,422.6c-0.2-3.1-0.3-6.1-0.5-9.2c-0.4-6.8-0.9-13.8-0.9-20.6c4.2,0.2,8.3,0.4,12.5,0.6v29.4
				C555.6,422.8,551.9,422.7,548.2,422.6z"/>
			<path class="st1" d="M371.7,358.2c10.5,0.3,21,0.6,31.5,0.9c0,0.1,0,0.2,0,0.3l3,0.1c0-0.1,0-0.2,0-0.3c21.1,0.5,42.1,1,63.1,1.4
				c-0.2,4.1-0.7,8.2-1.2,12.2c-0.6,4.8-1.1,9.7-1.2,14.6c-32.7-1.5-65.6-2.8-98.7-3.9C369.5,375.2,370.8,366.7,371.7,358.2z"/>
			<path class="st1" d="M559.2,212.9c-16.7-0.6-33.4-1-50.1-1.3c0.1-4.4,0.4-8.9,0.7-13.3c0.4-5.2,0.8-10.5,0.8-15.7
				c0-1.3,0-2.5-0.1-3.8c15.9,0.2,32.1,0.5,48.7,0.8V212.9z"/>
			<path class="st1" d="M349.5,236.4c-13.6-0.3-27.3-0.4-40.8-0.4c-3.5,0-429.2,0-432.6,0v-24.7c17.1,0.4,456.4,0.6,473.4,0.8V236.4
				z"/>
			<path class="st1" d="M559.2,237.8c-7.5,0.4-15.3,0.7-23.2,0.9c0.8-4.9,1.1-9.9,1.5-14.8c0.2-3.3,0.5-6.6,0.8-9.9
				c7,0.2,14,0.4,21,0.7V237.8z"/>
		</g>
		<g class="st4">
			<path class="st1" d="M223.2,66.5c0.4-7.4,0.8-15.1,2-22.5c30.2-0.1,64.9-0.2,86.7-0.3c-0.5,6.5-1.3,12.9-2.2,19.2
				c-0.9,6.5-1.8,13.2-2.3,19.9c-27.1-0.1-58.6-0.1-85.3-0.3C222.6,77.2,222.9,71.8,223.2,66.5z"/>
			<path class="st1" d="M157.7,114.2c0.3-1.4,0.4-4.2,0.4-9.6c0-2,0-4-0.1-6c0-2-0.1-4-0.1-6c0-3.3,0.2-6,0.4-8.5
				c28.2,0,48.5,0,53.8,0.1c10.1,0,21.2,0.1,32.4,0.1c-0.1,5.7-0.6,11.3-1.2,16.8c-0.4,4.4-0.9,8.9-1.1,13.4
				c-11-0.1-21.7-0.1-31.6-0.2C205.7,114.2,185.6,114.2,157.7,114.2z"/>
			<path class="st1" d="M102.6-14c0.1,0.9,0.1,1.7,0.1,2.6c0,5.1-0.9,10.2-1.9,15.1c-0.6,3.3-1.2,6.7-1.6,10c-10.8,0-22.1,0-33.7,0
				L63,13.6c0,0.1,0,0.1,0,0.2c-18.1,0-36.8,0-55.1,0v-27.8C40-14.1,73.4-14,102.6-14z"/>
			<path class="st1" d="M209.4,14C209.4,14,209.4,14,209.4,14c-4.6,0-9.1,0-13.2,0c0-9.1,0.5-18.3,1.3-27.5
				c23.6,0.4,56.3,0.8,87,1.2c-0.3,2.5-0.4,5.1-0.4,8.1c0,2.3,0.1,4.6,0.1,6.9c0.1,2.3,0.1,4.6,0.1,6.9c0,1.4,0,3.4-0.1,4.9
				c-25.3-0.2-52.1-0.3-74.1-0.5L209.4,14z"/>
			<path class="st1" d="M222.6,42.2c0,0,0,0.1,0,0.1c-5,0-9.9,0-14.5,0.1c0.5-4.6,1.3-9.3,2-13.9c0.7-4.2,1.4-8.6,1.9-12.9
				c16.2,0.1,34.7,0.1,52.5,0.2c0,0.7,0.1,1.4,0.1,2.1c0,4.7-0.5,9.7-1,14.4c-0.3,3.3-0.7,6.6-0.9,9.9c-13,0-26.4,0.1-38.9,0.2
				L222.6,42.2z"/>
			<path class="st1" d="M250.3,289.9c-8.5,0-30.9-0.1-60.7-0.1c-0.1-1.9-0.1-3.8-0.1-5.6c0-4.1,0.2-8.3,0.3-12.4
				c0.1-3.8,0.3-7.6,0.3-11.4c1.7,0,2.9,0,3.5,0c22.8,0.1,55.9,0.1,83.1,0.2V290C268.3,290,259.4,290,250.3,289.9z"/>
			<path class="st1" d="M200.4,223.7c0.3-4,0.7-8,0.9-12.1c22.1,0.1,51,0.2,77.6,0.3c-0.5,7.9-1.4,16.1-4.3,24.1
				c-22.8,0-52.5,0-75.1,0C199.8,231.8,200.1,227.8,200.4,223.7z"/>
			<path class="st1" d="M187.3,326.4c0-0.1,0-0.1,0-0.2l-2.8,0.2c-9.7,0-22.1,0-36.3-0.1c-0.9-12-1.8-22.9-3-34.2
				c25.4,0.1,48.5,0.1,66.8,0.2c0.9,4.1,1.4,8.5,1.4,13.9c0,3.6-0.2,7.2-0.4,10.7c-0.2,3.1-0.3,6.4-0.3,9.6c-2.4,0-4.7,0-6.9-0.1
				C203.3,326.5,196.8,326.4,187.3,326.4z"/>
			<path class="st1" d="M201.8,177.7c-4.3,0-23.5,0-50.7,0c1.7-6.9,2.6-13.9,3.5-20.7c26.1,0.1,44.2,0.1,47.8,0.2
				c9.6,0.1,20.3,0.3,31.7,0.4c0.2,1.6,0.4,3.2,0.4,5.1c0,2.7-0.3,5.5-0.5,8.2c-0.2,2.2-0.4,4.5-0.4,6.8c-5.6,0-11.2,0-16.5,0
				c0,0,0-0.1,0-0.1l-2.8,0.1c0,0,0,0,0,0C209.8,177.6,205.7,177.7,201.8,177.7z"/>
			<path class="st1" d="M177.3,42.6c0-6.1,0.4-12.4,0.9-18.4c0.2-2.9,0.4-5.8,0.5-8.7c3.9,0,6.4,0,7.1,0c6.6,0,14.6,0.1,23.3,0.1
				c-0.5,4.2-1.2,8.5-1.9,12.6c-0.8,4.7-1.6,9.5-2.1,14.2c-6,0-11.6,0.1-16.5,0.1C187.6,42.6,183.5,42.6,177.3,42.6z"/>
			<path class="st1" d="M114.8,82.4l2.8-0.2c-1.4-12.8-1.4-25.5-1.4-37.8c39.2,0,68.2-0.1,71.5-0.1c9.6-0.1,21.6-0.1,34.6-0.2
				c-1.2,7.4-1.6,15-1.9,22.3c-0.3,5.3-0.5,10.7-1.1,16.1l0.7,0.1c-2.4,0-4.7,0-7,0c-10.7-0.1-90.8-0.1-170.2-0.2
				C42.2,75.1,42,67.7,42,59.7c0-4.7,0.1-9.8,0.3-15.3c24.9,0,49.4,0,71.1,0C113.4,56.7,113.4,69.5,114.8,82.4z"/>
			<path class="st1" d="M174-30.2c0.3,4.7,0.7,9.6,1.5,14.6c-18.5,0-56-0.1-98.3-0.1c0.4-7.3,0.7-14.8,0.8-22.1h95.4
				C173.6-35.4,173.8-32.8,174-30.2z"/>
			<path class="st1" d="M24.4,84c-0.1,1.4-0.3,3.5-0.4,7.1c-0.4,7.9-1,19.7-1.4,22.9l0,0c-26.1,0-51.4-0.1-73.5-0.1
				c-0.6-4.7-1.5-9.3-2.4-13.8c-1-5.3-2-10.7-2.6-16.2C-32.2,84-4.3,84,24.4,84z"/>
			<path class="st1" d="M117.2,144.7c0-3.5,0.1-6.9,0.1-10.4c0-6.1-0.1-11.7-0.5-18.4c31.8,0,62,0,87.2,0.1
				c-1.4,7.3-1.8,14.9-2.1,22.2c-0.3,5.6-0.6,11.4-1.3,17.2c-6.2,0-23.8-0.1-47.9-0.1l-0.7-0.1l0,0.1c-10.5,0-22.3,0-34.8-0.1
				C117.1,151.6,117.1,148.2,117.2,144.7z"/>
			<path class="st1" d="M148.2,177.7c-22.1,0-49.1,0-77.4,0c0.2-2.9,0.6-6,0.9-8.9c0.5-3.9,1-8,1-11.9c29.1,0,56.7,0.1,78.9,0.1
				C150.9,163.9,149.9,170.8,148.2,177.7z"/>
			<path class="st1" d="M129.1,179.3c-1.4,4.9-1.6,9.9-1.9,14.8c-0.2,5.1-0.5,10.4-2.1,15.5l0.1,0c-22.2,0-48.5,0-75.5,0v-30.2
				C77.8,179.3,105.4,179.3,129.1,179.3z"/>
			<path class="st1" d="M178.2,410.5c0-0.9-0.1-2-0.1-2.5c0-3.6,1-7.3,1.9-10.8c0.9-3.6,1.9-7.4,1.9-11.2c0-0.8-0.1-1.6-0.2-2.3
				c16.7,0,28.4,0,32.4,0c16.5,0.1,35.3,0.1,53.1,0.2c0,0.8-0.1,1.7-0.1,2.5c0,2.3,0.1,4.6,0.1,7c0.1,2.3,0.1,4.7,0.1,7
				c0,3.3-0.1,6.9-0.4,9.9c-16.8,0.1-34.7,0.1-50.6,0.2C211.9,410.4,198,410.5,178.2,410.5z"/>
			<path class="st1" d="M8.3,256.4c0-0.9-0.1-1.8-0.1-2.7c0-0.3,0.1-1.2,0.3-2.4c0.4-3.1,1.2-8.5,1.3-13.6c27,0,54.9,0,80.5,0
				c0.1,1.7,0.2,3.3,0.4,5c0.3,4.1,0.7,8.3,0.7,12.4c0,1.2,0,2.3-0.1,3.4c-14.3,0-29.3,0-44.5,0l-2.6-0.2c0,0.1,0,0.1,0,0.2
				c-12,0-24,0-35.8,0C8.4,257.9,8.3,257.2,8.3,256.4z"/>
			<path class="st1" d="M6.9,237.7C6.8,242.6,6.1,248,5.7,251c-0.2,1.4-0.3,2.4-0.3,2.7c0,0.9,0.1,1.9,0.1,2.8
				c0,0.7,0.1,1.4,0.1,2.1c-25.6,0-50.2,0-70.9,0l2.2-0.2c-0.3-2.6-0.4-5-0.4-7.3l0-3.7c0-2.9-0.1-6.2-0.7-9.6
				C-43.4,237.7-18.7,237.7,6.9,237.7z"/>
			<path class="st1" d="M-10.7,296.1c0,5.8,0.6,11.6,1.1,17.2c0.4,4.2,0.8,8.6,1,12.9c-14.9,0-29.2,0-42.4-0.1c0,0,0-0.1,0-0.1
				l-0.5,0.1c-10.4,0-20.1,0-28.7,0l1.4,0c-0.4-9.2-0.3-18.8-0.3-28.1l0-6.4c19,0.1,42.7,0.1,68.7,0.2
				C-10.6,293.2-10.7,294.6-10.7,296.1z"/>
			<path class="st1" d="M-98.2,355.4c17.3,0.1,42,0.1,69.9,0.2c0,3.5-0.3,7-0.5,10.4c-0.3,3.9-0.5,7.9-0.5,11.9c0,1.3,0,2.6,0.1,4
				c-10.8,0-21.1,0-30.6,0c0-0.1,0-0.1,0-0.2l-1.4,0.2c-13,0-24.6,0-34.1,0l1.1-0.3c-1.5-4.8-1.9-9.7-2.3-14.5
				C-96.9,363.2-97.4,359.3-98.2,355.4z"/>
			<path class="st1" d="M-24.6,179.4v30h2.8v-30c21.9,0,45.4,0,68.7-0.1v30.2c-45.8,0-93.4,0-126.6,0c-0.5-5.4-1.7-10.6-2.8-15.7
				c-1.1-4.7-2.1-9.5-2.6-14.4C-68.4,179.5-47.5,179.5-24.6,179.4z"/>
			<path class="st1" d="M209.5,353.9c-0.1,0-0.2,0-0.4,0c-2.3,0-4.6,0-6.8,0c-2,0-7,0-14.4,0c-0.1-2.5-0.2-5-0.2-7.5l0-7.1
				c0-3.6-0.1-7.4-0.4-11.4c9.6,0,16.2,0,18.7,0c14,0.1,30.1,0.1,45.8,0.2c0.3,2.3,0.5,4.6,0.5,7.1c0,6.7-1.1,13.3-2.2,18.9
				c-13.8-0.1-27.8-0.2-40.3-0.2C209.7,353.9,209.6,353.9,209.5,353.9z"/>
			<path class="st1" d="M-27.8,57.5c-0.2,4.9-0.4,9.9-0.4,14.9c0,3.6,0.1,6.8,0.3,9.9c-9.9,0-19.3,0-28.2,0c0,0,0-0.1,0-0.1
				l-1.4,0.1c-9.9,0-18.9,0-27.1,0l1.1-0.1c-0.4-3-0.9-6.1-1.4-9.1c-1.5-9.2-2.9-17.9-2.9-26.9c0-0.5,0-1.1,0-1.6
				c16.4,0,37.3,0,60.2,0C-27.5,48.8-27.6,53.3-27.8,57.5z"/>
			<path class="st1" d="M-18.2-25.8c0,3.2,0.1,6.5,0.3,9.8c-4.5,0-8.8,0-13.2,0c0.2-3.7,0.7-7.6,1.1-11.5c0.4-3.5,0.8-7.1,1.1-10.6
				h10.2C-18.4-33.9-18.3-29.7-18.2-25.8z"/>
			<path class="st1" d="M-76.8,115.7c14.7,0,32,0,51.1,0.1c-0.6,3-0.8,5.7-0.8,8.9c0,5.5,0.6,11.1,1.3,16.5c0.5,4.4,1,9.1,1.2,13.5
				l2.8-0.1c-0.2-4.5-0.7-9.2-1.2-13.7c-0.6-5.4-1.3-10.9-1.3-16.3c0-3.3,0.3-5.9,0.8-8.9c19.7,0,41.2,0,63.2,0.1
				c-0.2,6.4-0.6,12.8-0.9,19.2c-0.4,6.7-0.7,13.4-0.9,20c-35.6,0-71.1-0.1-99.8-0.1c0,0,0-0.1,0-0.1l-1.8,0.1c-5.6,0-11,0-16,0
				C-77.7,141.5-77.3,128.4-76.8,115.7z"/>
			<path class="st1" d="M220.7,482.4c-3.3,0-10.7,0-21.3-0.1c-0.1-1.2-0.2-2.3-0.2-3.5c0-5.3,0.9-10.7,1.9-15.9
				c0.6-3.5,1.2-7.1,1.6-10.7c8.1,0,13.8,0,16.5,0c19.6,0.1,41.8,0.1,61.6,0.2c-0.2,3.7-0.6,7.5-0.9,11.1c-0.6,5.4-1.1,11-1.1,16.5
				c0,0.9,0,1.8,0.1,2.7C260,482.6,239.2,482.5,220.7,482.4z"/>
			<path class="st1" d="M184.5,327.9c0.3,3.9,0.4,7.8,0.4,11.4l0,7.1c0,2.5,0,5,0.2,7.5c-15.3,0-39.1-0.1-67-0.1
				c0.2-2.9,0.4-5.7,0.6-8.6c0.4-4.8,0.8-9.7,0.8-14.6c0-0.9,0-1.8-0.1-2.7C145.8,327.9,168.7,327.9,184.5,327.9z"/>
			<path class="st1" d="M-54.8,410.2c-2-5.9-2.8-12.1-3.5-18c-0.3-2.9-0.7-5.8-1.2-8.8c24.1,0,52.9,0,82.6,0
				c0.3,1.8,0.5,3.7,0.5,5.8c0,3.6-0.5,7.3-1,10.8c-0.5,3.5-1,7-1,10.6c-28.1,0-55.3,0.1-78.4,0.1L-54.8,410.2z"/>
			<path class="st1" d="M290,374.4c0.9-4,1.8-8.1,1.8-12.3c0-1.8-0.2-3.4-0.6-5c3.4,0,6.7,0.1,10,0.1c0,0.5,0,1,0,1.5
				c0,1,0.1,2,0.1,3.1c0,1-0.2,2.9-0.5,5.3c-0.4,4.3-1.1,10.1-1.1,15.6c-3.7,0-7.4-0.1-11.2-0.1C288.8,379.9,289.4,377.1,290,374.4z
				"/>
			<path class="st1" d="M193.4,545.7l0.1-1.4c0.4-6.2,0.8-12.6,0.8-18.9c14.5,0,24.6,0.1,28.3,0.1c15,0.2,31.6,0.3,48.6,0.4
				c0.2,1,0.3,2,0.3,3.1c0,3-0.6,6.2-1.2,9.2c-0.4,2.4-0.9,4.9-1.1,7.3c-8.9,0-18.2,0-27.4,0.1c0,0,0,0,0-0.1l-2.8-0.5
				c-0.1,0.2-0.1,0.4-0.1,0.6c-6.9,0-13.6,0-20.1,0.1C215.2,545.7,206.2,545.7,193.4,545.7z"/>
			<path class="st1" d="M-79.7,532.1c0,4.1,0.3,8.6,0.9,13.7c-26.8,0-44.3,0-45.1,0.1v-21.4c2.4,0.1,19.3,0.2,44.6,0.3
				C-79.5,527.1-79.7,529.5-79.7,532.1z"/>
			<path class="st1" d="M-89,454.4c0,3.4-0.2,6.9-0.4,10.2c-0.2,3.4-0.4,6.8-0.4,10.3c0,2.4,0.1,4.6,0.3,6.6l2.8-0.2
				c-0.2-2-0.3-4.1-0.3-6.4c0-3.4,0.2-6.9,0.4-10.2c0.2-3.4,0.4-6.9,0.4-10.4c0-0.8,0-1.6-0.1-2.5c16.8,0,38.1,0,61.6,0.1
				c-0.1,1.9-0.1,3.7-0.1,5.6c0,4.3,0.2,8.6,0.3,12.9c0.1,3.8,0.2,7.6,0.3,11.5c-55.1-0.1-98-0.1-99.8-0.2v-29.9
				c0.9,0,14.1,0.1,34.9,0.1C-89,452.8-89,453.6-89,454.4z"/>
			<path class="st1" d="M-52.1,338.9c0,1.9-0.1,3.9-0.1,5.8c-0.1,1.9-0.1,3.9-0.1,5.8c0,1.1,0,2.1,0.1,3.1
				c-41.1,0-70.8-0.1-71.5-0.1v-25.8c0.8,0,29.9,0.1,70.5,0.1C-52.3,331.9-52.1,335.8-52.1,338.9z"/>
			<path class="st1" d="M-54.7,556.7c-0.3,3.6-0.5,7.3-0.5,11c0,3.6,0.3,6.9,0.9,9.9c-40.4,0-69,0-69.5,0v-30
				c2.6-0.1,30.6-0.1,69.6-0.2C-54.3,550.6-54.5,553.7-54.7,556.7z"/>
			<path class="st1" d="M-99.4,367.2c0.4,4.7,0.9,9.7,2.3,14.5c-15.7,0-25.7,0-26.8-0.1v-26.4c0.9,0,9.3,0.1,22.8,0.1
				C-100.2,359.3-99.8,363.3-99.4,367.2z"/>
			<path class="st1" d="M-43.9,449.9h2.8c0-12.4,0-25.1,0.9-37.5c17,0,35.5,0,54.6-0.1c0,1.8-0.1,3.6-0.1,5.4c0,9.5,0.6,19.6,2,32.6
				c-72.3-0.1-136.8-0.2-140.3-0.3v-37.5c1.3-0.1,35.1-0.1,80.9-0.2C-43.8,424.8-43.9,437.6-43.9,449.9z"/>
			<path class="st1" d="M-96.8,493.8c1.3,9.6,2.6,19.6,6.6,29.1c-19.5-0.1-32.1-0.1-33.6-0.2v-39.1c1.9,0.1,11.2,0.2,25.6,0.2
				C-97.7,487.1-97.2,490.5-96.8,493.8z"/>
			<path class="st1" d="M-41.5,26.8c0.1,5.2,0.1,10.5,0.9,15.9c-46.9,0-82.5,0.1-83.3,0.1V15.4c0.8,0,35.8,0,82,0
				C-41.6,19.2-41.5,23.1-41.5,26.8z"/>
			<path class="st1" d="M-98.7,95.6c0.6,5.2,1.2,10.5,1.2,15.7c0,0.8,0,1.7-0.1,2.5c-15.8,0-25.7-0.1-26.4-0.1V83.8
				c0.7,0,9.6,0,24.1,0.1C-99.6,87.8-99.1,91.8-98.7,95.6z"/>
			<path class="st1" d="M-89.7,4.8c0,3,0.1,5.9,0.2,8.8c-20.5,0-33.6,0-34.4,0v-28c0.8,0,14.1,0.1,34.7,0.1
				C-89.4-8.2-89.7-1.6-89.7,4.8z"/>
			<path class="st1" d="M-64,158.4c0,1.9-0.1,3.8-0.1,5.7c-0.1,1.9-0.1,3.9-0.1,5.8c0,3.1,0.2,5.6,0.6,8c-35.1,0-59.4,0-60.2,0.1
				v-21.4c2.1,0.1,25.9,0.2,59.8,0.2C-64,157.2-64,157.8-64,158.4z"/>
			<path class="st1" d="M-24.3,268.8c-0.4,5.3-0.8,10.8-0.8,16.2c0,1.4,0,2.8,0.1,4.2l2.8-0.1c-0.1-1.4-0.1-2.8-0.1-4.2
				c0-5.3,0.4-10.8,0.8-16.1c0.2-2.9,0.4-5.8,0.6-8.6c20.7,0,42.9,0,64.9,0c-0.3,4-0.4,8.3-0.4,13.7c0,2.6,0,5.2,0.1,7.8
				c0,2.6,0.1,5.2,0.1,7.8h2.8c0-2.6,0-5.2-0.1-7.8c0-2.6-0.1-5.2-0.1-7.8c0-5.5,0.1-9.8,0.4-13.7c27.3,0,54.2,0,77.3,0
				c0,1-0.1,2-0.1,3c0,2.9,0.1,5.7,0.2,8.5c0.1,2.8,0.2,5.6,0.2,8.4c0,3.6-0.2,6.6-0.5,9.5c-108.2-0.1-245-0.2-247.8-0.3v-29.2
				c0.8,0,45,0,100.2,0.1C-23.9,263.1-24.1,266-24.3,268.8z"/>
			<path class="st1" d="M-92.7,214.5c0,4.6,1.1,9.3,2.1,13.8c0.6,2.4,1.1,4.8,1.5,7.1l2.8-0.3c-0.4-2.4-1-4.9-1.5-7.3
				c-1-4.4-2.1-8.9-2.1-13.3c0-1.1,0.1-2.2,0.3-3.2c13.5,0,30.3,0,48.8,0c0.8,4.1,1.4,8.2,1.9,12.2c0.5,4,1.1,8.2,1.9,12.4
				c-9.7,0-19,0-27.6,0c0,0,0,0,0,0l-0.2,0c-34.8,0-58.9,0-59.1,0v-24.7c0.6,0,12.6,0,31.5,0C-92.5,212.4-92.7,213.4-92.7,214.5z"/>
			<path class="st1" d="M98.6,410.6l0.1-2.3c0.2-4.3,0.5-9.1,0.5-12.9c0-4.4-0.3-8.3-0.8-11.9c31,0,59.4,0,80.5,0.1
				c0.1,0.8,0.2,1.5,0.2,2.3c0,3.6-0.9,7-1.9,10.7c-1,3.7-1.9,7.4-1.9,11.3c0,0.5,0,1.6,0.1,2.5C154.5,410.5,127.7,410.5,98.6,410.6
				z"/>
			<path class="st1" d="M118.5,452.1c0,3.2-0.1,6.5-0.3,9.8c-0.2,3.5-0.3,7.1-0.3,10.7c0,3.6,0.2,6.7,0.5,9.6
				c-22.4,0-46.6-0.1-70.9-0.1c-1.3-9.6-2.7-20.4-2.9-30C69.9,452.1,95.2,452.1,118.5,452.1z"/>
			<path class="st1" d="M51.9,367l0,2.5c0,4.1,0.1,8.2,0.7,12.4c-27.9,0-56.1,0-81.5-0.1l2.4-0.1c-0.1-1.3-0.1-2.6-0.1-3.9
				c0-3.9,0.3-7.9,0.5-11.7c0.2-3.4,0.4-7,0.5-10.5c24.2,0,50.7,0.1,76.9,0.1C51.8,359.5,51.9,363.2,51.9,367z"/>
			<path class="st1" d="M32,484.2c1.5,15.5,6.1,37.9,6.2,38.1c0,0.2,0,0.5-0.1,0.8c-25.4,0-50.4-0.1-72.9-0.1
				c0.3-4.7,0.9-9.4,1.4-14c0.9-7.6,1.8-15.4,1.8-23.1c0-0.6,0-1.2,0-1.9C-11.7,484.1,10,484.2,32,484.2z"/>
			<path class="st1" d="M-87.4,522.5c-4-9.4-5.3-19.4-6.6-29c-0.4-3.2-0.9-6.5-1.4-9.7c15.8,0.1,37,0.2,61,0.2c0,0.6,0,1.2,0,1.9
				c0,7.6-0.9,15.4-1.8,22.9c-0.5,4.7-1.1,9.5-1.4,14.2c-19.4,0-36.9-0.1-51-0.1L-87.4,522.5z"/>
			<path class="st1" d="M61.2,529.8c0,2.1,0.1,4.3,0.2,6.4c0.1,2.1,0.2,4.2,0.2,6.3c0,1.1,0,2.1-0.1,3.2l2.8,0.1
				c-26,0-52.5,0-77.1,0c0.5-3.6,1.3-7.2,2-10.6c0.7-3.3,1.5-6.8,2-10.2c22.5,0.1,46.5,0.1,70.2,0.2C61.3,526.5,61.2,528,61.2,529.8
				z"/>
			<path class="st1" d="M167,450.5c0.1-2.1,0.1-4.2,0.2-6.3c0.3-10.8,0.7-21.9,2.4-32c24.1,0,41.3-0.1,46.4-0.1
				c7.5,0,15.4-0.1,23.4-0.1c0,12.6,0,25.6-1.8,38.7c-6.5,0-12.9-0.1-19-0.1C213.3,450.6,193.9,450.6,167,450.5z"/>
			<path class="st1" d="M102.1,523.3c0.4-4.7,1.2-9.4,2-13.9c1.1-6,2.3-12.3,2.3-18.5c0-2.3-0.2-4.4-0.5-6.4
				c18.4,0.1,35.8,0.1,51.3,0.2c-0.1,0.9-0.1,2-0.1,3.5c0,4.6-0.2,9.3-0.4,13.8c-0.2,4.5-0.4,9.2-0.4,13.9c0,2.7,0.1,5.2,0.2,7.6
				C140.1,523.3,121.6,523.3,102.1,523.3z"/>
			<path class="st1" d="M145.3,326.4c-22.9,0-50.2-0.1-78.5-0.1c0.1-1,0.1-2.6,0.1-5.1c0-2.9-0.1-5.9-0.1-8.8
				c-0.1-2.9-0.1-5.8-0.1-8.8c0-4.5,0.2-8.2,0.5-11.6c25.7,0.1,51.4,0.1,75.1,0.2C143.5,303.5,144.4,314.4,145.3,326.4z"/>
			<path class="st1" d="M94.2,255.2c0-4.2-0.3-8.5-0.7-12.6c-0.1-1.6-0.3-3.3-0.4-4.9c30.7,0,57.8,0,75.6,0
				c-1.5,9.9-2.5,20.7-2.5,20.8l1.4,0.1c-18.2,0-44.4,0-73.7,0C94.1,257.5,94.2,256.3,94.2,255.2z"/>
			<path class="st1" d="M62.8,15.4c-0.2,1.7-0.3,3.3-0.5,5c-0.8,7.3-1.6,14.9-1.6,22.2c-33.1,0-68,0-98.4,0.1
				c-0.7-5.4-0.8-10.7-0.9-16c0-3.7-0.1-7.5-0.4-11.4C-7.6,15.4,28.7,15.4,62.8,15.4z"/>
		</g>
	</g>
	<path class="st1" d="M474.5,358.5l3,0.2l0.2-1.2c1.4-9.1,2.9-18.6,5.2-27.8l-2.9-0.3c-2.4,9.2-3.8,18.7-5.3,27.9L474.5,358.5z"/>
</g>
<rect x="-58.5" y="116.7" class="st5" width="226" height="59"/>
<g id="XMLID_3_">
	<g>
		<path class="st6" d="M240.9,186.7c8.2,10.5,37.4,0.6,48.8-0.2c12.1-1.1,47.4,1.6,52.6-12.4c3.3-8.9-4.3-18.3-12.6-22.1l0,0
			c-19.6-5.6-55.6-1.5-75.2,4C244.3,158.6,226.1,167.5,240.9,186.7z M334.2,198.1c-26.7-4-59.9-1.8-87.3,6.1l0-0.1
			c-6.8,1.9-15.7,3.6-19.4-0.3c-2.1-2.1-5.6-9.8-5.9-13.1c-0.6-10.8-1.2-27.9,7.3-36.1c8.3-7.4,25.7-10.3,39.6-12.3
			c4.2-0.6,8-1.1,11.2-1.6c20-4.2,43.4-6.7,63.4,0c16.1,5.3,22.7,30.7,20.8,46.5C362.1,201.7,346.6,197.8,334.2,198.1z"/>
		<path class="st7" d="M342.9,140.8c16.1,5.3,22.7,30.7,20.8,46.5c-1.6,14.4-17.1,10.5-29.5,10.9c6.7,1,13,2.4,18.6,4.1
			c6.1-0.6,11.7-0.5,16.7,0.4c20.2-2.5,33.4-13.4,18.9-42.8c-10.7-21.5-62.8-30.5-120.2-17.5c4.2-0.6,8-1.1,11.2-1.6
			C299.5,136.5,322.8,134,342.9,140.8z"/>
		<path class="st6" d="M352.8,202.3c-1.4,0.1-2.9,0.4-4.5,0.6c2.5,0.2,5,0.3,7.4,0.4c-0.5-0.2-1.1-0.4-1.7-0.6
			C353.7,202.5,353.3,202.4,352.8,202.3z"/>
		<path class="st7" d="M352.8,202.3c0.5,0.1,0.9,0.3,1.3,0.4c0.6,0.2,1.1,0.4,1.7,0.6c4.8,0.1,9.5,0,13.8-0.6
			C364.5,201.8,359,201.6,352.8,202.3z"/>
		<path class="st8" d="M399.1,674.7c-7.7,0.3-15.5,0.6-23.5,0.9c1.7,4.3,6,9.4,9.8,9.7c7.8,1,14.1-3.8,14.4-10.6
			C399.6,674.7,399.3,674.7,399.1,674.7z"/>
		<path class="st8" d="M363.1,645c2.4-2.2,5.3-9.3,0.6-10.2l0,0c-4.4,3.4-9.1,5.9-14,8.7C352.2,647.9,359.7,648.3,363.1,645z"/>
		<path class="st9" d="M399.1,674c-18.5,0.3-39.2-7.3-56.4-12.9c-9.6-3.2-20.1-5.8-30-7.8c-1.3-0.3-3.5-1.4-5.3-2.8
			c1.2,8.4,2.2,16.8,3,25.3c0,0,0.1,0,0.1,0c20.9,0.5,43.3,0.4,65.1-0.2c7.9-0.2,15.8-0.5,23.5-0.9L399.1,674z"/>
		<path class="st9" d="M247.7,727.1l8.9-6.5c6-4.7,12.2-10,18.3-15.4c1.6-1.5,3.2-2.9,4.8-4.3c8.5-7.5,16.8-15,24.7-20.8
			c0-0.5-0.1-2.5-0.2-3c-0.1-1.5-0.3-3.1-0.6-4.7c-0.7-3.3-1.2-6.6-1.8-9.8c-1.4-6.4-3.8-12-5.7-18.1c-2.4-0.7-4.6-0.6-6.6,0.2
			c0.6,2.1,1.1,4.2,1.6,6.3c-4.1,5.1-7.8,10.3-11.2,15.8c-12.2,18.9-21.5,39.6-32.1,59.9C247.8,726.8,247.7,727,247.7,727.1z"/>
		<path class="st10" d="M342.6,661.1c17.3,5.6,37.9,13.2,56.4,12.9l0,0.7c0.2,0,0.5,0,0.7,0c4.6-0.3,9.2-0.5,13.7-0.8l0.1-0.4
			c-22.5-8.5-48.7-17.9-73.7-23.6c-11.5-2.7-22.8-4.5-33.3-5.1c0,0,0,0-0.1,0c0.3,1.9,0.5,3.7,0.8,5.6c1.7,1.4,4,2.5,5.3,2.8
			C322.5,655.3,333,657.9,342.6,661.1z"/>
		<path class="st11" d="M239.6,663c3.8,0.5,7.3,1,10.9,1.4c7.1,0.8,14,1.4,21.6,1.9c3.7-6.5,8.6-16.3,15.1-20.3
			c-17.1,1.4-60.8,9.2-75.1,12c0,0.2-0.1,0.3-0.1,0.5c4,0.8,7.8,1.4,11.3,2C229.2,661.5,234.5,662.3,239.6,663z"/>
		<path class="st12" d="M169.8,466.7c19.7-9.2,40.5-18.3,62.5-20.5c0-0.9,0-1.8,0.1-2.8c-8.2,1.1-16.3,2.4-24.2,3.9
			c-2.5,0.5-5.1,0.9-7.6,1.5c-22.2,4.9-39.3,12-58.8,22.3c-11,5.3-45.2,29.2-45.4,47.8c0,2.6,0.6,5.2,2.1,7.5
			c7.9,12,86.7,12.7,101.7,11.1c28.1-2.6,41.5,0.4,67.5-8.8c18.5-6.9,49.5-30,62.8-43.5c8.8-8.1,30.8-28.5,27.6-39.7
			c-0.3-0.3-0.5-0.7-0.8-0.9c0.1-0.2,0.1-0.4,0.2-0.6c-1.7-3.1-5.9-5.2-13.6-5.8c0,0-0.1,0-0.1,0c-0.4,0-0.8-0.1-1.3-0.1
			c-1.1,0-3.1-0.1-5.3-0.3c-0.3,0-0.6,0-0.9,0l0,0.2c-11.9,16.9-19.5,34.4-35.3,47.6c-13.1,11-27.9,18.5-44.1,24.2
			c-34.7,12.3-75.8,10.8-111.8,10.4c-15.2,0-29.7-2.4-20.2-20.5C134.9,482.5,152.9,474.1,169.8,466.7z"/>
		<path class="st11" d="M304.5,680.1c2-1.5,4-3,5.9-4.2c0,0,0,0,0-0.1c-0.8-8.5-1.8-16.9-3-25.3c-2.2-1.8-3.6-4.1-0.8-5.6l0,0
			c-0.2-1.1-0.3-2.1-0.5-3.2c-0.3-1.8-0.6-3.6-0.8-5.4c-3.1-20-6.6-39.9-8.9-60c-7.9,3.1-16.6,5.8-25.4,7.8
			c5.6,17.4,12,36.3,17.2,55c0.5,1.9,1,3.7,1.5,5.6c2-0.8,4.3-0.9,6.6-0.2c1.9,6.1,4.3,11.7,5.7,18.1c0.6,3.2,1.1,6.5,1.8,9.8
			c0.3,1.6,0.5,3.2,0.6,4.7C304.3,677.6,304.5,679.6,304.5,680.1z"/>
		<path class="st10" d="M287.1,646c-6.5,4-11.4,13.8-15.1,20.3c2.6,0.2,5.2,0.4,8,0.5c3.5-5.4,7.2-10.7,11.2-15.8
			c-0.5-2.1-1-4.2-1.6-6.3C288.7,645,287.9,645.5,287.1,646z"/>
		<path class="st11" d="M369,630c-18.5,2.4-43.9,8.7-62,11.6l-1,0.1c0.1,1.1,0.3,2.1,0.5,3.2c0,0,0,0,0.1,0
			c10.5,0.6,21.8,2.4,33.3,5.1l0.1-0.5c3.2-2.3,6.4-4.2,9.6-6.1c4.8-2.8,9.5-5.3,14-8.7C365.5,633.4,367.3,631.8,369,630z"/>
		<path class="st6" d="M348.3,202.9c1.5-0.2,3-0.5,4.5-0.6c-5.6-1.8-11.9-3.1-18.6-4.1c-26.7-4-59.9-1.8-87.3,6.1
			c-12.4,3.6-23.7,8.4-32.5,14.2c-20.4,14-16.7,39-16.4,61.6c0.2,22.7,4,45.6,5.7,68.5c2.1,32.6,3.3,66.5,4.6,98.7
			c7.9-1.5,16-2.7,24.2-3.9c0.9-26.3,1.9-53.5-2.2-78.7c-5.2-36.3-12.4-74.1-9.6-111c2.7-35.7,76.4-42.9,109.9-28.6
			c23.9,10.4,17.1,31.3,18.2,54.4c0.9,20.4,0.7,41.8-0.4,62.1c-1.7,30.2,1.2,67.2-10.7,95.3c2.2,0.2,4.4,0.6,6.4,0.9c0,0,0,0,0.1,0
			c7.7,0.6,11.9,2.7,13.6,5.8c5.8-16.8,8.2-50.4,10.5-64.9c3.5-23.8,3.5-48,5.6-72c1.9-26.3,12.8-91.4-18-103.5
			C353.3,203.2,350.8,203.1,348.3,202.9z"/>
		<path class="st13" d="M200.9,578.3c47-2.7,95.3-12.3,132.4-36.1c13.1-8.4,24.9-18.6,34.6-30.9c6.1-19.9,1.9-51.6-9.6-65.9
			c3.1,11.2-18.9,31.6-27.6,39.7c-13.3,13.5-44.3,36.7-62.8,43.5c-26,9.2-39.4,6.2-67.5,8.8c-15,1.6-93.8,0.9-101.7-11.1
			c-1.5-2.3-2.2-4.9-2.1-7.5l-0.4,0c-0.5,48.6,39.9,60.8,83.2,60.3C186.5,579,193.7,578.7,200.9,578.3z"/>
		<path class="st13" d="M232.4,446.2c-22.1,2.2-42.9,11.3-62.5,20.5c-17,7.4-35,15.8-44.8,32.7c-9.5,18.1,5,20.5,20.2,20.5
			c36,0.4,77.1,2,111.8-10.4c16.1-5.7,31-13.2,44.1-24.2c15.8-13.3,23.4-30.8,35.3-47.6l0-0.2c0.3,0,0.6,0,0.9,0
			c0.1-0.2,0.2-0.4,0.2-0.6c-15.6-1.7-35.6-1.1-45.2-0.2c-19.4,2.1-40,3.9-59.9,6.6C232.4,444.3,232.4,445.3,232.4,446.2z"/>
		<path class="st8" d="M223.2,660.5c-0.9,11.7,20.4,11.2,16.3,2.5C234.5,662.3,229.2,661.5,223.2,660.5z"/>
		<path class="st10" d="M245.1,645.6c-7,1.5-31.3,3.5-33.1,12.3c14.3-2.8,58-10.6,75.1-12c0.8-0.5,1.6-0.9,2.5-1.2
			c-0.5-1.9-1-3.7-1.5-5.6C274.2,638.8,258.7,642.3,245.1,645.6z"/>
		<path class="st10" d="M244.5,714c-1.5,3.9-5.6,14.6,3.3,12.7c10.6-20.3,19.8-40.9,32.1-59.9c-2.8-0.2-5.4-0.3-8-0.5
			c-0.7,1.3-1.4,2.5-2,3.5c-4.7,7-8.2,14.3-12.5,21.5C252.7,699.4,247.2,704.9,244.5,714z"/>
		<path class="st8" d="M256.6,720.6c1.6,5.2,14,2,16.9-1.3c3.3-4,3.1-9.3,1.5-14.1C268.8,710.6,262.6,716,256.6,720.6z"/>
		<path class="st9" d="M270.9,584.2c8.8-2,17.5-4.7,25.4-7.8c23.2-9.1,40.4-21.9,36.9-34.1c-37.1,23.8-85.3,33.4-132.4,36.1
			C210.9,591.3,241.5,591.1,270.9,584.2z"/>
		<path class="st12" d="M232.5,443.4c20-2.7,40.5-4.5,59.9-6.6c9.6-0.9,29.6-1.5,45.2,0.2c11.9-28.1,8.9-65.1,10.7-95.3
			c1.2-20.4,1.3-41.8,0.4-62.1c-1.1-23.1,5.8-44-18.2-54.4c-33.4-14.3-107.1-7.1-109.9,28.6c-2.8,36.9,4.4,74.7,9.6,111
			C234.3,389.9,233.3,417.1,232.5,443.4z"/>
		<path class="st11" d="M306.5,644.9c-2.8,1.5-1.4,3.8,0.8,5.6C307.1,648.6,306.8,646.8,306.5,644.9z"/>
		<path class="st9" d="M306.5,644.9L306.5,644.9C306.6,644.9,306.6,644.9,306.5,644.9C306.6,644.9,306.6,644.9,306.5,644.9z"/>
		<path class="st10" d="M305.2,636.3c0.3,1.8,0.6,3.6,0.8,5.4l1-0.1c18-2.9,43.4-9.2,62-11.6l0.1-0.2c-10-3.6-19.5-2.3-29.9-0.4
			C328,631.6,316.4,632.8,305.2,636.3z"/>
		<path class="st12" d="M254.5,156c-10.2,2.5-28.4,11.5-13.6,30.7c8.2,10.5,37.4,0.6,48.8-0.2c12.1-1.1,47.4,1.6,52.6-12.4
			c3.3-8.9-4.3-18.3-12.6-22.1l0,0C310,146.5,274.1,150.5,254.5,156z"/>
		<path class="st7" d="M357.7,443.8c0.2,0.5,0.4,1,0.6,1.5c11.5,14.3,15.6,46,9.6,65.9c14.1-17.8,24.1-40,28.3-67.5
			c7.4-48.8,51.1-228-26.6-241.1c-4.3,0.6-9,0.8-13.8,0.6c30.8,12.1,19.9,77.2,18,103.5c-2.1,24-2.1,48.2-5.6,72
			C365.8,393.4,363.5,426.9,357.7,443.8z"/>
	</g>
</g>
<g>
	<path class="st14" d="M275,712.6c1.5-17.1,1.7-27.6,1.7-27.6l11.7-201.1l13.7,228.7h22.7l7.4-222.4c0,0,0.4-11,1-29.4v-43.3h-89.6
		v43.3c0.6,18.4,1,29.4,1,29.4l7.4,222.4H275z"/>
	<g>
		<g>
			<g>
				<g>
					<path class="st15" d="M348.4,444.5c0,0-4.9,7-5,7.5c-0.1,0.5,1,16.5,4.5,16.6c3.5,0,4.8-19,3.3-20.3
						C349.8,447,348.9,444.8,348.4,444.5z"/>
					<g>
						<path class="st15" d="M368.9,440.6c2.2,5.7-0.1,27.3-1.1,31.8c-0.5,2.4-2.6,2.7-4.3,2.8c-5.4,0.1-10.2,4.4-12.9,2.5
							c-0.7-0.5-4.1-1.1-3.7-4.4c0.8-7.2,1.4-17.1,1.3-28.6C351.6,434.4,366.6,436.6,368.9,440.6z"/>
					</g>
				</g>
				<path class="st15" d="M357.6,332c0,0,1.3,7.1,2.3,9.9c1,2.8,4.1,16.1,4.5,20c0.5,3.9,6.7,76.9,3.3,82.6s-15.5,3.9-17,0.5
					c-1.5-3.4-9.6-62-10.1-65.9c-0.5-3.9-4.3-35.2-6-38.6C332.8,337.2,356.5,328.2,357.6,332z"/>
				<g>
					<path class="st16" d="M322.9,254.9c30.7-4.3,43.7,64.7,44.4,112c0,3.1-28.4,9.9-28.9,3.6c-2.5-27.2-9.4-70.5-14.8-85.9
						C321.4,278.4,319.3,255.4,322.9,254.9z"/>
				</g>
				<g class="st3">
					<path class="st17" d="M328.4,254.9c21.8,12.3,30.2,84.4,30.8,104.2c0.1,2.1-12.7,5.8-21.3,6.1c0.3,1.6,0.6,3.3,0.9,5.1
						c1.1,6.2,29-0.6,28.9-3.6C367.1,343.3,360.4,262.2,328.4,254.9z"/>
				</g>
			</g>
			<g>
				<path class="st16" d="M336.6,370l0.4,4.4c0.3,2.8,2.4,4.6,4.8,4.1l5.4-1.3l19.2-4.2c2.3-0.5,4-3,4-5.7l0-6.7
					c0-3.2-2.5-5.4-5.2-4.6l-23.1,7.2l-1.9,0.6C338,364.5,336.3,367.3,336.6,370z"/>
				<path class="st18" d="M342.2,363.2c0,0,12.3-4.1,13,3c0.5,4.8-3.3,8.4-7.9,11.1l19.2-4.2c2.3-0.5,4-3,4-5.7l0-6.7
					c0-3.2-2.5-5.4-5.2-4.6L342.2,363.2z"/>
			</g>
		</g>
		<g>
			<g>
				<g>
					<path class="st15" d="M223.7,452.8c0,0,5.1,6.9,5.1,7.4c0.1,0.5-0.6,16.6-4.1,16.7s-5.3-18.8-3.8-20.2
						C222.4,455.3,223.1,453,223.7,452.8z"/>
					<g>
						<path class="st15" d="M203.1,449.4c-2,5.8,0.8,27.3,1.8,31.7c0.6,2.4,2.7,2.7,4.3,2.7c5.4-0.1,10.3,4.1,13,2.1
							c0.7-0.5,4-1.2,3.6-4.5c-1-7.2-1.8-17.1-2-28.6C220.3,442.7,205.3,445.4,203.1,449.4z"/>
					</g>
				</g>
				<path class="st15" d="M211.8,340.5c0,0-1.1,7.1-2,9.9c-0.9,2.9-3.7,16.2-4,20.1c-0.4,3.9-4.9,77-1.3,82.7
					c3.6,5.6,15.6,3.5,17,0.1c1.4-3.5,8.2-62.2,8.5-66.1c0.4-3.9,3.5-35.3,5.1-38.7S212.8,336.7,211.8,340.5z"/>
				<path class="st19" d="M203.5,448.9c-1.7-17.1,1.9-74.8,2.3-78.3c0.4-3.9,3.1-17.3,4-20.1c0.9-2.9,2-9.9,2-9.9
					c0.3-1.1,2.5-1.2,5.5-0.7c-0.2,1-0.5,2-0.7,2.7c-0.9,2.9-3.7,16.2-4,20.1c-0.3,3.4-3.9,61.2-2.3,78.3c-0.1,0.2-0.3,0.3-0.4,0.5
					c-2,5.8,0.8,27.3,1.8,31.7c0.6,2.4,2.7,2.7,4.3,2.7c3.5,0,6.7,1.7,9.3,2.4c0.1,1.1,0.3,2.2,0.4,3.2c0.5,3.2-2.9,3.9-3.6,4.5
					c-2.7,2-7.5-2.2-13-2.1c-1.6,0-3.8-0.2-4.3-2.7c-1-4.4-3.8-25.9-1.8-31.7C203.2,449.2,203.3,449,203.5,448.9z"/>
				<g>
					<path class="st16" d="M248.6,258c-30.7-4.3-43.7,64.7-44.4,112c0,3.1,28.4,9.9,28.9,3.6c2.5-27.2,9.4-70.5,14.8-85.9
						C250.1,281.5,252.1,258.5,248.6,258z"/>
				</g>
				<g class="st3">
					<path class="st17" d="M243.1,258c-21.8,12.3-30.2,84.4-30.8,104.2c-0.1,2.1,12.7,5.8,21.3,6.1c-0.3,1.6-0.6,3.3-0.9,5.1
						c-1.1,6.2-29-0.6-28.9-3.6C204.4,346.5,211,265.3,243.1,258z"/>
				</g>
			</g>
			<g>
				<path class="st16" d="M234.7,376.5l0.7-4.3c0.5-2.8-1.1-5.1-3.6-5.3l-5.5-0.4l-19.5-1.6c-2.3-0.1-4.6,1.7-5.3,4.3l-1.7,6.4
					c-0.8,3.1,1,5.9,3.8,5.9l24.1-0.1l2,0C232,381.4,234.3,379.2,234.7,376.5z"/>
				<path class="st18" d="M227.6,381.4c0,0-12.9,0.4-11.7-6.7c0.8-4.7,5.4-7.1,10.5-8.3l-19.5-1.6c-2.3-0.1-4.6,1.7-5.3,4.3
					l-1.7,6.4c-0.8,3.1,1,5.9,3.8,5.9L227.6,381.4z"/>
			</g>
		</g>
		<g>
			<path class="st20" d="M325.3,251.5c11.4,9.9,10.4,137.2,11.7,181.7c0,1.3-0.6,2.4-1.2,3.2c-0.4,0.6-1,0.8-1.5,1.1
				c-4.8,2.4-21.4,8.7-44.7,9.6c-45.2,1.7-48.6-18.5-48.7-24.6c-0.7-36.1-3.1-94-1.2-136.9c0.7-15.5,4.5-30.4,13.5-34.5
				C262.2,247,316.3,243.6,325.3,251.5z"/>
		</g>
		<g>
			<path class="st21" d="M301,252.5c0,0-2,7.4-5.4,13.3c-3.6,6.2-12.5,16.4-12.5,16.4s-6.9-8.2-11.2-16.7
				c-3.7-7.4-4.9-15.2-4.1-16.1c1.8-1.9,8.6-1.5,6.4-17.6c0,0,8.1,4,25.4,1.1c0,0-0.9,2.7-1.3,6.3C297.8,243.4,298,248.8,301,252.5z
				"/>
			<path class="st22" d="M274.2,242.9c0,0-14.7-1.5-17.9,14.4c-2.2,10.9,3.3,21.4,9.5,31.2c0,0,1.7-10.9,13.8-11.6
				c0,0-5.2-8.6-7.9-15c-3.3-7.7-4.5-12.1-4.5-12.1S273,247.5,274.2,242.9z"/>
			<path class="st22" d="M304.3,287.8c0,0-11.5-15.3-16.1-12.3c4.4-5.6,7-8.7,9-12.3c3.4-6.3,4-10.8,4-10.8
				c-3.7-3.6-3.7-9.8-3.7-9.8s0.1,0,0.1,0c14,1.1,16.3,9,16.3,9C317.8,266.6,304.3,287.8,304.3,287.8z"/>
			<path class="st23" d="M298.4,239.2c0,0-10.1,0.8-16,2.7c0,0,0.6,4.1-3.8,10.5c-4.2,6.2-1.5,21.6,12.9,17.6
				c-3.6,6.2-8.2,12.3-8.2,12.3s-5.7-8.2-10-16.8c-3.7-7.4-6.2-15.2-5.4-16.1c1.8-1.9,8.6-1.5,6.4-17.6c0,0,8.1,4,25.4,1.1
				C299.7,232.9,298.8,235.6,298.4,239.2z"/>
		</g>
		<g class="st3">
			<path class="st17" d="M283.3,282.5c2.8,33.7,2.1,98.9,1.2,143.3"/>
		</g>
		<g class="st3">
			<path class="st17" d="M291.8,294.6c0.2,0.6-0.1,2.6-1.6,2.6c-1.9,0.1-2.4-1.7-2-2.9C288.6,292.9,291.1,292.6,291.8,294.6z"/>
		</g>
		<g class="st3">
			<path class="st17" d="M291.6,318.1c0.2,0.6-0.1,2.6-1.6,2.6c-1.9,0.1-2.4-1.7-2-2.9C288.4,316.4,290.9,316.1,291.6,318.1z"/>
		</g>
		<g class="st3">
			<path class="st17" d="M291.6,341.7c0.2,0.6-0.1,2.6-1.6,2.6c-1.9,0.1-2.4-1.7-2-2.9C288.4,340,290.9,339.7,291.6,341.7z"/>
		</g>
		<g class="st3">
			<path class="st17" d="M291.6,365.2c0.2,0.6-0.1,2.6-1.6,2.6c-1.9,0.1-2.4-1.7-2-2.9C288.4,363.5,290.9,363.2,291.6,365.2z"/>
		</g>
		<g class="st3">
			<path class="st17" d="M291.6,388.7c0.2,0.6-0.1,2.6-1.6,2.6c-1.9,0.1-2.4-1.7-2-2.9C288.4,387.1,290.9,386.8,291.6,388.7z"/>
		</g>
		<g class="st3">
			<path class="st17" d="M291.6,412.3c0.2,0.6-0.1,2.6-1.6,2.6c-1.9,0.1-2.4-1.7-2-2.9C288.4,410.6,290.9,410.3,291.6,412.3z"/>
		</g>
	</g>
	<g>
		<g>
			<g>
				<path class="st21" d="M324.9,191.9c-0.9,6.8,1.8,12.8,6.1,13.4c4.3,0.6,8.5-4.5,9.4-11.3c0.9-6.8-1.8-12.8-6.1-13.4
					C330.1,180,325.8,185,324.9,191.9z"/>
				<path class="st24" d="M330.2,189.8c0,0-0.4-0.7,2.3-0.9c0,0,3.2,0.4,1.5,3.8c-0.3,0.7-0.6,1.5-0.8,2.3c-0.2,1.1,0.4,2.7-0.3,3.7
					c-0.9,1.3-3.4,0.6-3.6-0.9c-0.2-1.1,1.1-3.1,1.7-3.9C331.1,193.9,333,191.4,330.2,189.8z"/>
			</g>
			<g>
				<path class="st21" d="M249,191.9c0.9,6.8-1.8,12.8-6.1,13.4c-4.3,0.6-8.5-4.5-9.4-11.3c-0.9-6.8,1.8-12.8,6.1-13.4
					C243.9,180,248.1,185,249,191.9z"/>
				<path class="st24" d="M243.7,189.8c0,0,0.4-0.7-2.3-0.9c0,0-3.2,0.4-1.5,3.8c0.3,0.7,0.6,1.5,0.8,2.3c0.2,1.1-0.4,2.7,0.3,3.7
					c0.9,1.3,3.4,0.6,3.6-0.9c0.2-1.1-1.1-3.1-1.7-3.9C242.8,193.9,241,191.4,243.7,189.8z"/>
			</g>
		</g>
		<path class="st25" d="M287.1,114.5L287.1,114.5c0,0-0.1,0-0.1,0c0,0-0.1,0-0.1,0v0c-10.3,0.6-55.1,7-44.4,76.1l2.6,28.9
			c0,0,2.3,6.5,10.3,12.6c0,0,13.9,11.7,25.5,16.8c0,0,2.5,0.7,6,2v0.1c0,0,0.1,0,0.1-0.1c0.1,0,0.1,0,0.1,0.1v-0.1c3.4-1.3,6-2,6-2
			c11.6-5.2,25.5-16.8,25.5-16.8c8-6.1,8.4-12.6,8.4-12.6l4.5-28.9C342.2,121.5,297.4,115.1,287.1,114.5z"/>
		<path class="st26" d="M321.4,105.1c0,0,15.6,8.4,17.7,27.3c1.5,13.8-3.9,48.4-3.9,48.4c-4.2-0.7-3.2,8.1-3.2,8.1l-1.8-0.2
			c-0.2-21.6-10.3-33.9-10.3-33.9c5.5-7.1-2.9-19.8-2.9-19.8c-26.1,9.7-59.9-0.2-59.9-0.2s-19.7-23.9-4.5-37c0,0,15.2-17,57.8-11.4
			C310.3,86.5,298.3,99.6,321.4,105.1z"/>
		<path class="st26" d="M257.2,134.7c0,0-8.2,11.3-6.1,20.2c0,0-11.1,8.8-7.5,33.9l-1.7,0c0,0,0.6-9.7-4.8-7.3
			c0,0-5.6-31.3,3.4-51.2c0,0,4.6-11.8,17.9-16.7C258.5,113.5,253.8,129.9,257.2,134.7z"/>
		<path class="st26" d="M298,158.7l17.1,8c0,0,7.3-1.6,1.8-5.6l-16.4-7.7c0,0-1.2-0.9-2.1,0l-1.8,3.8
			C296.6,157.3,296.5,158.2,298,158.7z"/>
		<path class="st26" d="M274.4,159.8l-15.9,6.1c0,0-6.6-2.3-1.4-5.7l15.3-5.9c0,0,1.1-0.7,1.9,0.2l1.5,3.9
			C275.7,158.5,275.8,159.4,274.4,159.8z"/>
		<path class="st24" d="M285,170.3c-3.8,12.1-9,28.2-9,30.5c0,2.3,11.4,5.1,13.4,4.4c2.1-0.8-2.4-34.8-2.4-34.8H285z"/>
		<path class="st25" d="M287,169.1c-3.8,12.1-9,28.2-9,30.5c0,2.3,11.4,5.1,13.4,4.4c2.1-0.8-2.4-34.8-2.4-34.8H287z"/>
		<g>
			<path class="st27" d="M275.3,178.1c0.1-5.1-0.6-11.2-8.4-13.3c-7.9-2.1-11.5,5-11.4,7.5c0.1,2.6,2.2,6.4,6.6,6.9
				c4.3,0.4,8.2,0.1,9.8,0.3C273.4,179.8,275.3,179.2,275.3,178.1z"/>
			
				<ellipse transform="matrix(4.801666e-02 -0.9988 0.9988 4.801666e-02 81.662 429.5297)" class="st28" cx="266.2" cy="171.9" rx="6.5" ry="6.5"/>
			<path class="st27" d="M271.7,169.6c-0.1,1.6-1.4,2.9-3,2.8s-2.9-1.4-2.8-3s1.4-2.9,3-2.8C270.5,166.6,271.8,167.9,271.7,169.6z"
				/>
			<path class="st27" d="M295.5,178.7c0.2-5.1,1.3-11.1,9.2-12.7s11.2,5.6,10.9,8.3c-0.3,2.6-2.6,6.2-7,6.5
				c-4.4,0.2-8.2-0.5-9.8-0.3C297.3,180.5,295.4,179.8,295.5,178.7z"/>
			<path class="st28" d="M298.8,172.5c-0.1,3.6,2.7,6.6,6.3,6.7s6.6-2.7,6.7-6.3c0.1-3.6-2.7-6.6-6.3-6.7
				C301.9,166.1,299,168.9,298.8,172.5z"/>
			<path class="st27" d="M304.9,170.2c-0.1,1.6,1.2,3,2.8,3c1.6,0.1,3-1.2,3-2.8c0.1-1.6-1.2-3-2.8-3
				C306.3,167.3,305,168.6,304.9,170.2z"/>
		</g>
		<g>
			<path class="st24" d="M270,224.5l-0.7-2c5.6-4.8,16.6-4.2,34.5,1.6l-0.3,0.8C286.3,219.3,275,220.2,270,224.5z"/>
		</g>
		<path class="st24" d="M279.7,226.5c-0.2,0.5,1.2,2,3.5,2.8c2.3,0.7,4.8,0.4,5-0.1c0.2-0.5-2.2-0.6-4.6-1.4
			C281.3,227,279.9,226,279.7,226.5z"/>
	</g>
</g>
<g>
	<rect x="-57.1" y="422.8" class="st29" width="428.7" height="305"/>
	<polygon class="st30" points="-40.7,422.8 363.9,422.8 363.9,457.8 268.2,455.6 -40.7,442.6 	"/>
	<rect x="361.6" y="422.8" class="st31" width="69.7" height="305"/>
	<polygon class="st32" points="431.2,422.8 361.2,422.8 361.2,455.6 431.2,498.7 	"/>
	<path class="st30" d="M442.7,393.9H257.3c-6,0-10.9,4.6-10.9,10.2V420c0,5.6,4.9,10.2,10.9,10.2h185.4c6,0,10.9-4.6,10.9-10.2
		v-15.8C453.6,398.5,448.7,393.9,442.7,393.9z"/>
	<path class="st29" d="M383.4,393.9H-64.3c-6,0-10.9,4.6-10.9,10.2V420c0,5.6,4.9,10.2,10.9,10.2h447.7c6,0,10.9-4.6,10.9-10.2
		v-15.8C394.2,398.5,389.4,393.9,383.4,393.9z"/>
</g>
<g>
	<g>
		<polygon class="st33" points="100.5,347.8 120.8,394.1 67.8,394.1 74.7,347.8 		"/>
		<polygon class="st34" points="106.3,361.1 96.5,366.5 99.5,394.1 120.8,394.1 		"/>
		<polygon class="st35" points="147.5,394.1 155.4,382.3 -40.4,382.3 -36,394.1 		"/>
		<polygon class="st34" points="195,394.1 198,384.7 155.4,382.3 147.5,394.1 		"/>
		<g>
			<polygon class="st35" points="171.5,351.3 198,209.7 -48.6,211.2 -20.9,348.5 			"/>
			<polygon class="st33" points="173.9,338.3 -22.5,340.8 -20.9,348.5 171.5,351.3 			"/>
			<polygon class="st33" points="171.5,351.3 180.2,351.3 208.9,214 198,209.7 			"/>
		</g>
	</g>
</g>
<rect x="-64.5" y="110.7" class="st36" width="226" height="59"/>
<g>
	<g>
		<path class="st27" d="M-12,151.8h-3.2c-0.6,0-0.8-0.3-0.8-0.8v-19c0-0.3-0.1-0.4-0.4-0.4h-4.3c-0.5,0-0.8-0.3-0.8-0.8v-2.6
			c0-0.5,0.3-0.8,0.8-0.8h14.3c0.5,0,0.8,0.3,0.8,0.8v2.6c0,0.5-0.3,0.8-0.8,0.8h-4.3c-0.3,0-0.5,0.1-0.5,0.4v19
			C-11.2,151.6-11.4,151.8-12,151.8z"/>
		<path class="st27" d="M11.1,151.8H2.8c-2,0-3.5-0.5-4.6-1.6c-1.1-1.1-1.6-2.6-1.6-4.6v-7c0-2,0.5-3.5,1.6-4.6
			c1.1-1.1,2.6-1.6,4.6-1.6h3c2,0,3.5,0.5,4.6,1.6c1.1,1.1,1.6,2.6,1.6,4.6v4.8c0,0.5-0.3,0.8-0.8,0.8H1.7c-0.3,0-0.5,0.1-0.5,0.4
			v0.8c0,0.8,0.2,1.3,0.5,1.7c0.3,0.3,0.9,0.5,1.7,0.5h7.7c0.5,0,0.8,0.3,0.8,0.8v2.5c0,0.3-0.1,0.5-0.2,0.6
			C11.7,151.8,11.4,151.8,11.1,151.8z M1.7,141.1h5.2c0.3,0,0.4-0.1,0.4-0.4v-1.8c0-0.8-0.2-1.4-0.5-1.7c-0.3-0.3-0.9-0.5-1.7-0.5
			H3.5c-0.8,0-1.4,0.2-1.7,0.5c-0.3,0.3-0.5,0.9-0.5,1.7v1.8C1.3,140.9,1.4,141.1,1.7,141.1z"/>
		<path class="st27" d="M22.9,151.8h-7.2c-0.5,0-0.8-0.3-0.8-0.8v-2.4c0-0.3,0.1-0.5,0.2-0.6c0.1-0.1,0.3-0.2,0.6-0.2h6.3
			c1.2,0,1.9-0.4,1.9-1.1v-0.2c0-0.6-0.5-1.2-1.6-1.7l-3.8-2.1c-1.3-0.7-2.2-1.4-2.8-2.1s-0.9-1.7-0.9-2.9c0-1.8,0.5-3.1,1.4-3.9
			s2.4-1.2,4.4-1.2H27c0.5,0,0.8,0.3,0.8,0.8v2.5c0,0.3-0.1,0.5-0.2,0.6c-0.1,0.1-0.3,0.2-0.6,0.2h-5.3c-1.2,0-1.9,0.3-1.9,0.9v0.2
			c0,0.6,0.5,1.1,1.6,1.7l3.8,2.3c1.3,0.7,2.2,1.4,2.8,2.2s0.8,1.7,0.8,2.9C28.9,150.1,26.9,151.8,22.9,151.8z"/>
		<path class="st27" d="M41.5,151.8h-3.4c-2,0-3.5-0.5-4.6-1.6c-1.1-1.1-1.6-2.6-1.6-4.6v-7c0-2,0.5-3.5,1.6-4.6
			c1.1-1.1,2.6-1.6,4.6-1.6h3.4c2,0,3.5,0.5,4.6,1.6s1.6,2.6,1.6,4.6v7c0,2-0.5,3.5-1.6,4.6C45,151.3,43.4,151.8,41.5,151.8z
			 M38.8,147.7h1.9c0.8,0,1.4-0.2,1.7-0.5c0.3-0.3,0.5-0.9,0.5-1.7v-6.7c0-0.8-0.2-1.4-0.5-1.7c-0.3-0.3-0.9-0.5-1.7-0.5h-1.9
			c-0.8,0-1.4,0.2-1.7,0.5c-0.3,0.3-0.5,0.9-0.5,1.7v6.7c0,0.8,0.2,1.4,0.5,1.7C37.4,147.5,38,147.7,38.8,147.7z"/>
		<path class="st27" d="M55.5,151.8h-3.2c-0.5,0-0.8-0.3-0.8-0.8v-17.7c0-0.5,0.3-0.8,0.8-0.8h3.2c0.5,0,0.8,0.3,0.8,0.8v1.3h0.2
			c0.3-0.7,0.8-1.2,1.5-1.6s1.5-0.5,2.2-0.5h1.4c0.5,0,0.8,0.3,0.8,0.8v2.6c0,0.3-0.1,0.5-0.2,0.6c-0.1,0.1-0.3,0.2-0.6,0.1h-2.6
			c-1.7,0-2.6,1-2.6,3V151C56.3,151.6,56,151.8,55.5,151.8z"/>
		<path class="st27" d="M79,151.8h-8.4c-2,0-3.5-0.5-4.6-1.6c-1.1-1.1-1.6-2.6-1.6-4.6v-7c0-2,0.5-3.5,1.6-4.6
			c1.1-1.1,2.6-1.6,4.6-1.6h3c2,0,3.5,0.5,4.6,1.6c1.1,1.1,1.6,2.6,1.6,4.6v4.8c0,0.5-0.3,0.8-0.8,0.8h-9.5c-0.3,0-0.5,0.1-0.5,0.4
			v0.8c0,0.8,0.2,1.3,0.5,1.7c0.3,0.3,0.9,0.5,1.7,0.5H79c0.5,0,0.8,0.3,0.8,0.8v2.5c0,0.3-0.1,0.5-0.2,0.6
			C79.5,151.8,79.3,151.8,79,151.8z M69.5,141.1h5.2c0.3,0,0.4-0.1,0.4-0.4v-1.8c0-0.8-0.2-1.4-0.5-1.7c-0.3-0.3-0.9-0.5-1.7-0.5
			h-1.6c-0.8,0-1.4,0.2-1.7,0.5c-0.3,0.3-0.5,0.9-0.5,1.7v1.8C69.1,140.9,69.3,141.1,69.5,141.1z"/>
		<path class="st27" d="M87.5,151.8h-3.2c-0.5,0-0.8-0.3-0.8-0.8v-17.7c0-0.5,0.3-0.8,0.8-0.8h3.2c0.5,0,0.8,0.3,0.8,0.8v1.3h0.2
			c0.3-0.7,0.8-1.2,1.5-1.6c0.7-0.4,1.5-0.5,2.2-0.5h1.4c0.5,0,0.8,0.3,0.8,0.8v2.6c0,0.3-0.1,0.5-0.2,0.6c-0.1,0.1-0.3,0.2-0.6,0.1
			h-2.6c-1.7,0-2.6,1-2.6,3V151C88.2,151.6,88,151.8,87.5,151.8z"/>
		<path class="st27" d="M96.8,129.2v-3.3c0-0.5,0.3-0.8,0.8-0.8h3.3c0.5,0,0.8,0.2,0.8,0.7v3.3c0,0.5-0.3,0.8-0.8,0.8h-3.3
			C97.1,130,96.8,129.7,96.8,129.2z M96.8,151v-17.7c0-0.5,0.3-0.8,0.8-0.8h3.3c0.5,0,0.8,0.3,0.8,0.8V151c0,0.3-0.1,0.5-0.2,0.6
			c-0.1,0.1-0.3,0.2-0.6,0.2h-3.3C97.1,151.8,96.8,151.6,96.8,151z"/>
		<path class="st27" d="M112.8,151.8h-0.9c-2,0-3.5-0.5-4.6-1.6c-1.1-1.1-1.6-2.6-1.6-4.6v-7c0-2,0.5-3.5,1.6-4.6
			c1.1-1.1,2.6-1.6,4.6-1.6h8.8c0.6,0,0.8,0.3,0.8,0.8V151c0,0.5-0.3,0.8-0.8,0.8h-3.2c-0.5,0-0.8-0.3-0.8-0.8v-1.2h-0.2
			c-0.3,0.7-0.8,1.2-1.5,1.5S113.6,151.8,112.8,151.8z M116.7,144.8v-7.7c0-0.3-0.2-0.4-0.5-0.4h-3.6c-0.8,0-1.4,0.2-1.7,0.5
			c-0.3,0.3-0.5,0.9-0.5,1.7v6.5c0,0.8,0.2,1.4,0.5,1.7c0.3,0.3,0.9,0.5,1.7,0.5h1.4C115.8,147.7,116.7,146.7,116.7,144.8z"/>
	</g>
</g>
<path class="st37" d="M213,82.6"/>
<g transform="matrix(0.722921,-0.299492,0.299492,0.722921,-0.400043,141.362)">
	<path class="st38" d="M378.7,106.8c0.4-2.6,0.8-5.3,0.9-5.6l0,0c2.4-7.8,6.7-13.4,6.7-13.4l0,0c5.9-8.4,15.2-14.9,27-18.2l0,0
		c2.4-1.1,0.3-3,0.3-3c-3.8-2.6-5.6-4.2-5.6-4.2c-8.6-7.2-14.8-16.2-17.4-26.3c-3.1-12.3-0.1-23.9,7.2-33l0,0
		c0.8-3.1-2.8-3.4-2.8-3.4l0,0c-22.7-2.3-43.3-15-52.5-32.4l0,0c-2.8-2.1-4.8,0-4.8,0l0,0c-8.3,8.4-20.7,14.1-35.7,15.2
		c-12.4,0.9-24.6-1.4-35.4-6.2l0,0c0,0-2.3-0.9-6.4-3.2l0,0c0,0-3.2-1-4.1,1.6l0,0c-0.2,15.4-9.9,28.7-25.5,35.8
		c-1.8,0.8-3.7,1.4-5.6,2l0,0c0,0-2.9,1.2-0.9,3.9c0.2,0.2,0.5,0.3,0.7,0.5c0,0,0,0,0,0c0.1,0.1,0.2,0.2,0.4,0.3
		c0.9,0.7,1.8,1.3,2.6,1.9l0,0c1.8,1.4,2.9,2.4,2.9,2.4l0,0c1.3,1.2,1.2,3-0.3,3.8l-21.9,11.8l5.8,22.6l27.3,8.3
		c1.9,0.6,2.9,2.3,2.3,3.7c-0.8,1.7-1.8,3.4-2.9,5l0,0c0,0-2.7,5.4,4.2,6.9c18.7,3.1,35.4,13.2,44.9,26.9l0,0
		c4.2,5.3,10.3,1.1,10.3,1.1c8.1-6.4,18.9-10.6,31.6-11.5c14.4-1.1,28.6,2.3,40.4,8.6C375.1,110.2,378.4,109.2,378.7,106.8z"/>
</g>
<g>
	<g>
		<path class="st25" d="M432.8,47.4c-3.1-12.2-13-19.1-16.8-16.4c-1.3,0.9,0.6,35.8,7.4,36.2C428.1,67.6,435.9,59.6,432.8,47.4z"/>
		<path class="st25" d="M427.6,37.8c-6.4-1.3-11.6-3.3-11.1-6.6c0.5-3.3,5.8-3.1,12.2-1.8c6.4,1.3,10.8,0.9,11,6.4
			C439.9,39,434,39,427.6,37.8z"/>
		<path class="st25" d="M470.4,29.2c4.5-6.4,0.9-12.4-2.4-13.9c-3.3-1.5-4.7,5.8-9.3,12.1c-4.5,6.3-6.4,16.8-3.1,18.3
			C458.9,47.2,465.8,35.5,470.4,29.2z"/>
		<path class="st25" d="M461.5,19.4c4.6-9.5,0.8-16.5-2.6-17.7c-3.4-1.2-4.9,8.8-9.5,18.2c-4.7,9.5-7.2,20.6-3.7,21.7
			C449.1,42.9,456.9,28.9,461.5,19.4z"/>
		<path class="st25" d="M474,43.2c4.8-6,6.9-13.6,4.5-16.3c-2.4-2.7-6,5.7-11,10.4c-6.8,6.4-12.2,17.7-9.7,20.3
			C460.1,60.3,468.1,50.5,474,43.2z"/>
		<g>
			<path class="st25" d="M431.9,99.8c3.7-16.1,35-41.1,23.3-49.7c-10.5-7.7-38.1-4.5-35.5,45.9L431.9,99.8z"/>
			<path class="st25" d="M423.5,70.5c17.7,14.7,34.7-6.9,38.5-15c4.2-8.9-6.3-23.8-14.1-24.5C440.1,30.2,416.7,64.8,423.5,70.5z"/>
		</g>
	</g>
	<g>
		<path class="st39" d="M189.5,147.1c1-10.8,5.8-16.6,10.6-16.6c4.8,0,7.7,5.8,6.7,16.6c-1,10.8-8.9,15.8-13.7,15.8
			C188.3,162.9,188.5,157.9,189.5,147.1z"/>
		<path class="st39" d="M101.6,147.7c-0.7-10.8-5.6-16.6-10.5-16.6c-5,0-8.2,5.8-7.5,16.6c0.7,10.8,8.8,15.8,13.8,15.8
			C102.3,163.5,102.3,158.5,101.6,147.7z"/>
		<path class="st40" d="M94.7,193.3c0.7,5.8,23.4,30.8,49.3,30.8c25.9,0,47.3-22.8,51.8-32c4.5-9.2-13.6-126.9-24.2-136.8
			c-10.6-9.9-53.1-3.3-56.7,1.9C106.3,69.5,91.9,170.6,94.7,193.3z"/>
		<path class="st39" d="M105.3,106.5c3.7,1.8,18.4-36.4,21.5-42.7c3.1-6.4,2.6-13-1.2-14.8c-3.7-1.8-9.2,1.9-12.3,8.3
			C110.2,63.6,101.5,104.7,105.3,106.5z"/>
		<path class="st39" d="M184.5,103.6c3.9-1.3-6.4-40-8.7-46.8c-2.3-6.7-7.3-11.1-11.2-9.7c-3.9,1.3-5.3,7.9-3,14.6
			C163.9,68.4,180.6,104.9,184.5,103.6z"/>
		<path class="st40" d="M172.6,190.7h-58.5l-8.7,53.6c31.8,16.6,50.4,14.8,75.2-3.6L172.6,190.7z"/>
		<path class="st40" d="M149.4,200.9c0-1.1-2.1-2.1-4.6-2.1c-2.6,0-4.6,0.9-4.6,2.1c0,1.1,2.1,1.2,4.6,1.2
			C147.3,202.1,149.4,202,149.4,200.9z"/>
		<path class="st41" d="M92.1,173.8C90.1,160.7,86.5,66.5,95,54c8.5-12.4,58.5-20.6,66.3-18.6c17,4.3,14.1,17.2,14.1,17.2
			s8.5,0,14.4,4.2c5.9,4.1,18.1,63.5,8.3,108.4c-4.4,20.2-21.8,37.8-51.7,38.6C109.1,204.8,94.7,190.2,92.1,173.8z"/>
		<path class="st42" d="M144.3,69.9c-19.5,0-37.5-2.3-52.2-6.3c-4.6,27.6-1.7,98.9,0,110.2c2.5,16.3,17,31,54.2,30
			c30-0.8,47.3-18.4,51.7-38.6c8-36.6,1.3-82.7-4.6-100.8C179.4,67.9,162.5,69.9,144.3,69.9z"/>
	</g>
	<g>
		<path class="st39" d="M61.3,567.2c-1.3-1.1-4.3,1.9-7.4,5.6c-3.1,3.7-5.1,6.7-3.8,7.8c1.3,1.1,4.8-1.1,7.9-4.8
			C61,572.1,62.5,568.3,61.3,567.2z"/>
		<path class="st39" d="M38.3,550.7c6,3.6,25.7,13.5,22.6,20.6c-2.8,6.4-14.8,9.8-27.3-15.8L38.3,550.7z"/>
		<path class="st40" d="M36.9,551.9c6,3.6,25.7,13.5,22.6,20.6c-2.8,6.4-14.8,9.8-27.3-15.8L36.9,551.9z"/>
		<polygon class="st43" points="27,566.9 7.9,554.7 32.9,531.4 42.6,551.4 		"/>
		<path class="st44" d="M-105.9,426.7c-15-6.4,36-97,103.5-156c0,0,37.6,84.7,25,124.8C22.7,395.5-45.5,452.4-105.9,426.7z"/>
		<path class="st45" d="M16.7,320c-7.1,18.2-18.8,38.3-34.4,57.6c-21,26-44.8,45.4-65.5,55c54,6.4,108-38,108-38
			C30.9,375.2,24.7,345.4,16.7,320z"/>
		<path class="st44" d="M-107.9,424.1c0,0,28,53.7,118,137.2c0,0,16.6-5.3,27.1-26.6c0,0-37.4-117.2-87-137.8
			C-49.8,396.9-103,400.8-107.9,424.1z"/>
		<path class="st45" d="M-33.6,407.1c4.1,18.9,0.9,36.2-10.5,46.5c-9.8,8.8-23.9,10.9-39,7.2c18.2,23.9,47.8,58.4,93.2,100.5
			c0,0,16.6-5.3,27.1-26.6C37.2,534.7,7.4,439.8-33.6,407.1z"/>
		<path class="st39" d="M60.3,571.6c0.8-1.5-1.5-3.2-4.4-4.8c-2.9-1.6-5.2-2.3-6-0.9c-0.8,1.5,0.9,3.9,3.8,5.4
			C56.5,572.9,59.5,573,60.3,571.6z"/>
		<path class="st39" d="M57,575.9c0.8-1.4-1.5-3.2-4.4-4.8c-2.9-1.6-5.2-2.3-6-0.9c-0.8,1.5,0.9,3.9,3.8,5.5
			C53.3,577.3,56.3,577.4,57,575.9z"/>
		<path class="st39" d="M53.1,579.7c0.8-1.4-1.5-3.2-4.4-4.8c-2.9-1.6-5.2-2.3-6-0.9c-0.8,1.4,0.9,3.9,3.8,5.4
			C49.3,581.1,52.3,581.2,53.1,579.7z"/>
		<path class="st39" d="M42.4,580.2c1.1,1.2,3.5-0.5,5.9-2.8c2.3-2.3,3.8-4.3,2.6-5.5c-1.1-1.2-4-0.3-6.3,2
			C42.3,576.2,41.3,579,42.4,580.2z"/>
		<path class="st39" d="M39.1,569.2c-1.5,0.7-0.6,3.5,0.8,6.4c1.4,2.9,2.9,4.9,4.3,4.2c1.5-0.7,1.5-3.7,0.1-6.6
			C42.9,570.3,40.5,568.5,39.1,569.2z"/>
	</g>
	<g>
		<path class="st44" d="M402.3,270.9c11.8,11.2-135.5,138.6-159.9,127.1c0,0-41.1-61.5,18-124.7
			C260.4,273.3,354.6,225.7,402.3,270.9z"/>
		<polygon class="st46" points="440.6,85.3 441.8,107.9 408.3,101.3 418.9,81.7 		"/>
		<path class="st43" d="M428.6,92.4c-4.8-0.1-8.6-2.1-10.4-9.5l-9.9,18.4l33.5,6.6l-1.3-22.7l-1.2-0.2
			C437.1,91.5,433,92.6,428.6,92.4z"/>
		<path class="st44" d="M401.9,276.3c0,0,28-53.6,43.1-175.4c0,0-14-10.3-37.5-6.4c0,0-64.9,100.2-71.5,162.9
			C336.1,257.4,380.2,286,401.9,276.3z"/>
		<g>
			<path class="st45" d="M380.8,140.2c-17.7,32.7-38.7,77-44,111.6c-21.2,1.5-41.7,7.6-56.1,13c18.6-2.3,44.6-5.2,66.6-6.7
				C350.8,221.5,366.8,175.1,380.8,140.2z"/>
			<path class="st45" d="M397.4,270.9C397.4,270.9,397.3,270.9,397.4,270.9c-12.3,26.3-117.2,80.2-143.6,75.3
				c-11.9,22.7-11.4,51.9-11.4,51.9c22.3,10.5,147-94.8,159.5-121.7c0,0,0,0,0,0c0,0,28-53.6,43.1-175.4c0,0-1.7-1.2-4.9-2.7
				C424.9,218.1,397.4,270.9,397.4,270.9z"/>
		</g>
		<path class="st47" d="M416.7,109.7c-2.3,1.7-2.8,4.9-1.2,7.2c1.7,2.3,4.9,2.8,7.2,1.2c2.3-1.7,2.8-4.9,1.2-7.2
			C422.2,108.6,419,108.1,416.7,109.7z"/>
		<path class="st45" d="M336.6,252.3c8.9,7.4,21.8,16.6,23.7,13.7C364.1,260.1,336.6,252.3,336.6,252.3z"/>
		<path class="st45" d="M337.5,252.3c3.6,8.6,9.3,19.9,11.7,18.6C354.1,268.1,337.5,252.3,337.5,252.3z"/>
		<path class="st45" d="M336.1,254.1c9.2,1.3,21.9,2.1,21.9-0.6C358.2,247.9,336.1,254.1,336.1,254.1z"/>
	</g>
	<g>
		<path class="st48" d="M70.6,570.2c4.8,73,24.1,157.9,62.7,475h7c-17.4-262.9-26-364.9,0.4-379.3c46.2-25.3,43,166.3,30.7,379.3
			h7.9c17.4-217.4,39.7-366.9,39-477.6C163.3,560.7,111.3,562.9,70.6,570.2z"/>
		<g>
			<path class="st49" d="M134.9,663.7c-26.4,14.5-17.8,116.4-0.4,379.3H133c0.1,0.7,0.2,1.4,0.3,2.2h7
				c-17.4-262.9-26-364.9,0.4-379.3c3.2-1.7,6.1-2.4,8.8-2.2C145.3,660.8,140.4,660.7,134.9,663.7z"/>
			<path class="st49" d="M212.5,566.9c0.5,110.6-21.8,259.7-39,476.2h-2c0,0.7-0.1,1.4-0.1,2.2h7.9c17.4-217.4,39.7-366.9,39-477.6
				C216.4,567.4,214.5,567.1,212.5,566.9z"/>
		</g>
		<path class="st50" d="M199.5,1046.7h-32.9c0,0,2.9-10.8,9.4-10.3C182.6,1036.9,199.5,1046.7,199.5,1046.7z"/>
		<path class="st50" d="M107.4,1046.7h32.8c0,0-2.9-10.8-9.4-10.3C124.4,1036.9,107.4,1046.7,107.4,1046.7z"/>
		<path class="st51" d="M210.7,571.4c-49.1-3.5-95-4-131.2,0v8.7c35.9-3.4,80.8-3.1,131.2,0V571.4z"/>
		<rect x="171.3" y="569.4" class="st48" width="3.6" height="17.4"/>
		<rect x="192.6" y="568.7" class="st48" width="3.6" height="17.4"/>
		<rect x="114.9" y="566.9" class="st48" width="3.6" height="17.4"/>
		<rect x="93.2" y="569.4" class="st48" width="3.6" height="17.3"/>
		<rect x="130.7" y="568.5" class="st48" width="31.9" height="15.9"/>
		<rect x="135.3" y="566.3" class="st52" width="22" height="15.9"/>
	</g>
	<g>
		<path class="st53" d="M218,616.9c-1-23-1.6-44.3-1.9-63.3c-17.9-7.4-42-11.9-68.5-11.9c-30,0-56.9,5.8-75.3,14.9
			c1.2,15.2,2.8,35.9,4.8,60.2C89.2,629.7,142.1,649.8,218,616.9z"/>
		<rect x="74.1" y="554.2" class="st51" width="53" height="7.9"/>
		<path class="st44" d="M-3,271.4c24.5,99.8,70.8,332.2,70.8,332.2c13.6,13.1,41.4,18.4,70,18.1l4.6-12.8l7.6,12.4
			c29.3-1.8,57.4-9.1,69.7-19.5c8-43.1,59.5-335.2,59.5-335.2C129.5,190.9-3,271.4-3,271.4z"/>
		<path class="st45" d="M141.2,321.8C53.4,426.5,22.1,349.5,10.7,336.5c23,106.3,57.1,267.1,57.1,267.1
			c13.7,13.2,41.8,18.4,70.6,18.1l4.3-11.9l7.1,11.5c29.4-1.8,57.6-9.1,70-19.6c4.8-26,32-170,48-258.2
			C253.6,363,212.4,397.3,141.2,321.8z"/>
		<path class="st46" d="M177.2,226.7c-7.9-8.4-56.7-9.6-67.2,0l-3.6,10c22.3,2.6,42.2,1.9,77-0.3L177.2,226.7z"/>
		<path class="st54" d="M147.6,532.3c-2.8-18.4-11.4-141-5.3-187.7C144.7,325.9,147.6,532.3,147.6,532.3z"/>
		<path class="st53" d="M240.6,250.2c-20.1-6.9-39.7-11.3-58.5-13.7c0.4,0,0.8-0.1,1.2-0.1l-6.1-9.7c-0.9-0.9-2.2-1.7-4-2.5
			c0,0-4-15.6-4.2-15.6c-14.6,6.7-44.7,6-50.9,0.4l-3.5,14.9c-1.9,0.8-3.5,1.7-4.6,2.7l-3.6,9.8c-21.3,2.7-40.3,7.3-56.3,12.3
			c17.6,10.8,54.2,18.2,96.4,18.2C187,267.1,222.2,260.3,240.6,250.2z"/>
		<path class="st44" d="M229.4,511.1c0,0,0.7,22.4,5.4,26l4.3-25.3L229.4,511.1z"/>
		<path class="st44" d="M55.7,513.5c0,0,2.2,22.3-3.6,26.8l-9.4-24.2L55.7,513.5z"/>
	</g>
</g>
<g>
	<path class="st27" d="M204.1,79.2l-0.1-0.3c-0.1-0.4,0-0.6,0.4-0.8l1.5-0.5c0.4-0.1,0.7,0,0.8,0.4l0.1,0.3c0.3,0.8,0.4,1.7,0.3,2.6
		c0,0.2,0,0.3,0,0.5c0,0.2,0,0.3-0.1,0.4s-0.1,0.2-0.1,0.4c0,0.1,0,0.2,0,0.3c0.3-0.8,0.5-1.4,0.7-1.7c0.4-0.7,1-1.4,1.8-2
		c0.3-0.2,0.6-0.2,0.9,0.1l0.9,1.3c0.2,0.3,0.2,0.6-0.1,0.9c-0.6,0.5-1.2,0.9-2,1.1c-0.8,0.3-1.5,0.4-2,0.5c1.7,0,3.1,0.4,4.1,1.3
		c0.3,0.2,0.4,0.5,0.2,0.8l-0.9,1.3c-0.2,0.3-0.5,0.4-0.9,0.2c-1.3-0.8-2.3-2-2.8-3.6c0.4,1.3,0.5,2.2,0.4,2.8
		c0,0.5-0.1,1.1-0.3,1.8c-0.1,0.3-0.4,0.5-0.8,0.4l-1.5-0.5c-0.4-0.1-0.6-0.3-0.4-0.7c0.2-0.8,0.5-1.3,0.7-1.7
		c0.2-0.3,0.4-0.6,0.6-0.8c0.2-0.2,0.3-0.4,0.5-0.5c0.1-0.1,0.3-0.3,0.4-0.4c0.1-0.1,0.2-0.2,0.4-0.4c-1.5,1-2.9,1.6-4,1.6l-0.3,0
		c-0.4,0-0.6-0.2-0.6-0.6l0-1.6c0-0.4,0.2-0.6,0.6-0.6c1.3-0.1,2.7,0.3,4.1,1.1l0.2,0.1c-0.1,0-0.1-0.1-0.2-0.2
		c-0.1-0.1-0.2-0.1-0.3-0.2c-0.1-0.1-0.2-0.2-0.4-0.3s-0.2-0.3-0.4-0.4c-0.1-0.1-0.3-0.3-0.4-0.5s-0.3-0.3-0.4-0.5
		C204.5,80.1,204.3,79.7,204.1,79.2z"/>
	<path class="st27" d="M225.3,92.1l-1.8,0.6c-1.5,0.5-2.9,0.5-4,0c-1.1-0.5-1.9-1.6-2.5-3.1l-0.6-1.7c-0.3-1-0.4-1.9-0.1-2.9
		c0.3-0.9,0.8-1.6,1.7-2.1c-1.1-0.7-1.9-1.8-2.3-3l-0.1-0.3c-0.5-1.5-0.5-2.8,0.2-4c0.6-1.1,1.7-2,3.3-2.5l1-0.3
		c1.5-0.5,2.9-0.5,4,0c1.1,0.5,1.9,1.6,2.5,3.1l0.3,1c0.1,0.4,0,0.7-0.4,0.9l-2.5,0.9c-0.4,0.1-0.7,0-0.8-0.4l-0.3-0.9
		c-0.2-0.6-0.5-1-0.8-1.2s-0.7-0.2-1.2,0l-0.2,0.1c-0.6,0.2-0.9,0.5-1.1,0.8c-0.2,0.4-0.1,0.8,0.1,1.4l0.1,0.4
		c0.3,0.8,1,1.5,2.2,2.2l1.9,1.1l6.5-2.2c0.4-0.1,0.7,0,0.8,0.4l0.7,2c0.1,0.4,0,0.7-0.4,0.8l-3.8,1.3l6.7,4.1
		c0.1,0.1,0.2,0.2,0.2,0.3c0,0.1-0.1,0.2-0.2,0.3l-3.1,1.1c-0.5,0.2-0.9,0.1-1.2-0.1l-1.8-1.1c0,0.8-0.2,1.4-0.7,1.9
		C227,91.3,226.3,91.8,225.3,92.1z M222.9,89.3l1.2-0.4c0.8-0.3,1.2-0.8,1-1.7l-4.5-2.7c-0.5,0.2-0.7,0.4-0.8,0.8
		c-0.1,0.4,0,0.9,0.2,1.6l0.4,1.3c0.2,0.6,0.5,1,0.9,1.2C221.8,89.5,222.3,89.5,222.9,89.3z"/>
	<path class="st27" d="M233.8,68.1l1.7-0.6c1-0.3,1.9-0.3,2.6,0c0.7,0.3,1.2,1,1.6,2l1,2.8c0.3,1,0.3,1.9,0,2.6
		c-0.3,0.7-1,1.2-2,1.6l-1.7,0.6c-1,0.3-1.9,0.3-2.6,0c-0.7-0.3-1.2-1-1.6-2l-1-2.8c-0.3-1-0.3-1.9,0-2.6
		C232.1,69,232.8,68.5,233.8,68.1z M235.7,69.8L235,70c-0.4,0.1-0.7,0.3-0.8,0.5c-0.1,0.2-0.1,0.5,0.1,1l0.9,2.6
		c0.1,0.4,0.3,0.7,0.5,0.8c0.2,0.1,0.5,0.1,1-0.1l0.7-0.2c0.4-0.1,0.7-0.3,0.8-0.5c0.1-0.2,0.1-0.5-0.1-0.9l-0.9-2.6
		c-0.1-0.4-0.3-0.7-0.6-0.8C236.4,69.6,236.1,69.7,235.7,69.8z M243.6,85.9l-1.5,0.5c-0.4,0.2-0.7,0-0.7-0.5c0.1-1.8,0.2-5.2,0.5-10
		c0.2-4.9,0.4-8.2,0.5-10c0-0.5,0.2-0.8,0.6-0.9l1.6-0.5c0.5-0.2,0.7,0,0.7,0.5l-1,20C244.2,85.4,244,85.7,243.6,85.9z M248,74.4
		l1.7-0.6c1-0.3,1.9-0.3,2.6,0c0.7,0.3,1.2,1,1.6,2l1,2.8c0.3,1,0.3,1.9,0,2.6c-0.3,0.7-1,1.2-2,1.6l-1.7,0.6c-1,0.3-1.9,0.3-2.6,0
		s-1.2-1-1.6-2l-1-2.8c-0.3-1-0.3-1.9,0-2.6C246.3,75.2,247,74.7,248,74.4z M249.9,76l-0.7,0.2c-0.4,0.1-0.7,0.3-0.8,0.5
		c-0.1,0.2-0.1,0.5,0.1,0.9l0.9,2.6c0.1,0.4,0.3,0.7,0.5,0.8c0.2,0.1,0.5,0.1,1,0l0.7-0.2c0.4-0.1,0.7-0.3,0.8-0.6
		c0.1-0.2,0.1-0.6-0.1-1l-0.9-2.6c-0.1-0.4-0.3-0.7-0.5-0.8C250.7,75.9,250.4,75.9,249.9,76z"/>
	<path class="st27" d="M267,81.1l-1.8,0.6c-0.4,0.1-0.7,0-0.8-0.4l-0.8-2.3l-0.2,0.1c-1.5,0.5-2.8,0.5-3.9-0.1
		c-1.1-0.6-1.9-1.6-2.5-3.1l-0.2-0.6c-0.1-0.4,0-0.7,0.4-0.8l2.5-0.9c0.4-0.1,0.7,0,0.8,0.4l0.1,0.2c0.3,0.7,0.6,1.2,1,1.4
		c0.4,0.2,1,0.1,1.8-0.1l1.2-0.4c0.8-0.3,1.2-0.6,1.4-1c0.2-0.4,0.2-1-0.1-1.8l-0.1-0.4c-0.2-0.5-0.4-0.8-0.8-1s-0.8-0.2-1.2-0.2
		c-0.4,0-1.1,0.2-2.2,0.4c-1.1,0.3-1.9,0.4-2.4,0.4c-0.6,0-1.2,0-1.8-0.2c-1.3-0.3-2.4-1.5-3.1-3.6l-0.4-1.1c-0.5-1.5-0.5-2.9,0-4
		c0.5-1.1,1.6-1.9,3.1-2.4l0.2-0.1l-0.8-2.3c-0.1-0.4,0-0.7,0.4-0.8l1.8-0.6c0.4-0.1,0.7,0,0.8,0.4l0.8,2.3l0.1,0
		c1.4-0.5,2.6-0.4,3.7,0.2c1.1,0.6,1.9,1.6,2.4,3.1l0.2,0.6c0.1,0.4,0,0.7-0.4,0.8l-2.5,0.9c-0.4,0.1-0.7,0-0.8-0.4l-0.1-0.2
		c-0.3-0.7-0.6-1.2-0.9-1.4c-0.4-0.2-1-0.1-1.8,0.1l-0.9,0.3c-0.8,0.3-1.3,0.6-1.5,1c-0.2,0.4-0.1,1,0.2,1.9l0.2,0.6
		c0.1,0.4,0.4,0.7,0.8,0.9c0.4,0.1,0.8,0.2,1.2,0.1c0.5-0.1,1.2-0.2,2.3-0.5c1.1-0.3,1.9-0.4,2.4-0.4c0.6,0,1.2,0.1,1.8,0.3
		c1.3,0.4,2.3,1.5,2.9,3.5l0.4,1.1c0.5,1.5,0.5,2.9-0.1,4c-0.6,1.1-1.6,1.9-3,2.4l-0.1,0l0.8,2.3C267.6,80.7,267.5,80.9,267,81.1z"
		/>
	<path class="st27" d="M282.5,75.8l-1.8,0.6c-0.4,0.1-0.7,0-0.8-0.4l-0.8-2.3l-0.2,0.1c-1.5,0.5-2.8,0.5-3.9-0.1
		c-1.1-0.6-1.9-1.6-2.5-3.1l-0.2-0.6c-0.1-0.4,0-0.7,0.4-0.8l2.5-0.9c0.4-0.1,0.7,0,0.8,0.4l0.1,0.2c0.3,0.7,0.6,1.2,1,1.4
		s1,0.1,1.8-0.1l1.2-0.4c0.8-0.3,1.2-0.6,1.4-1c0.2-0.4,0.2-1-0.1-1.8l-0.2-0.4c-0.2-0.5-0.4-0.8-0.8-1s-0.8-0.2-1.2-0.2
		c-0.4,0-1.1,0.2-2.2,0.4c-1.1,0.3-1.9,0.4-2.4,0.4c-0.6,0-1.2,0-1.8-0.2c-1.3-0.3-2.4-1.5-3.1-3.6l-0.4-1.1c-0.5-1.5-0.5-2.9,0-4
		s1.6-1.9,3.1-2.4l0.2-0.1l-0.8-2.3c-0.1-0.4,0-0.7,0.4-0.8l1.8-0.6c0.4-0.1,0.7,0,0.8,0.4l0.8,2.3l0.1,0c1.4-0.5,2.6-0.4,3.7,0.2
		c1.1,0.6,1.9,1.6,2.4,3.1l0.2,0.6c0.1,0.4,0,0.7-0.4,0.8l-2.5,0.9c-0.4,0.1-0.7,0-0.8-0.4l-0.1-0.2c-0.3-0.7-0.6-1.2-0.9-1.4
		s-1-0.1-1.8,0.1l-0.9,0.3c-0.8,0.3-1.3,0.6-1.5,1c-0.2,0.4-0.1,1,0.2,1.9l0.2,0.6c0.1,0.4,0.4,0.7,0.8,0.9s0.8,0.2,1.2,0.1
		c0.5-0.1,1.2-0.2,2.3-0.5c1.1-0.3,1.9-0.4,2.4-0.4c0.6,0,1.2,0.1,1.8,0.3c1.3,0.4,2.3,1.5,2.9,3.5l0.4,1.1c0.5,1.5,0.5,2.9-0.1,4
		c-0.6,1.1-1.6,1.9-3,2.4l-0.1,0l0.8,2.3C283.1,75.4,282.9,75.7,282.5,75.8z"/>
</g>
</svg>
