<?xml version="1.0" encoding="utf-8"?>
<!-- Generator: Adobe Illustrator 24.0.1, SVG Export Plug-In . SVG Version: 6.00 Build 0)  -->
<svg version="1.1" id="Layer_1" xmlns="http://www.w3.org/2000/svg" xmlns:xlink="http://www.w3.org/1999/xlink" x="0px" y="0px"
	 width="280.6px" height="184.3px" viewBox="0 0 280.6 184.3" style="enable-background:new 0 0 280.6 184.3;" xml:space="preserve"
	>
<style type="text/css">
	.st0{opacity:0.26;fill:#4D4D4D;}
	.st1{fill:#AC5D41;}
	.st2{fill:#AE5F42;}
	.st3{opacity:0.2;fill:#231F20;}
	.st4{fill:#763D26;}
	.st5{opacity:0.1;fill:#FFFFFF;}
	.st6{fill:#A7BB18;}
	.st7{opacity:0.11;}
	.st8{fill:#FFFFFF;}
</style>
<title>Artboard 23 copy 4</title>
<g>
	<g>
		<g>
			<polygon class="st0" points="78,178.6 195.6,180.2 228,143.8 51.1,146.4 			"/>
			<polygon class="st1" points="276.9,125.1 3.7,125.1 10.4,146.7 271.3,148.7 			"/>
			<g>
				<polygon class="st2" points="86.6,147.2 101.8,178.6 78,178.6 50.7,147.2 				"/>
				<polygon class="st3" points="50.7,147.2 86.6,147.2 92.7,159.7 54.6,151.7 				"/>
				<polygon class="st4" points="101.8,178.6 101.8,147.2 86.6,147.2 				"/>
			</g>
			<g>
				<polygon class="st2" points="188.9,148.2 173.7,179.6 197.5,179.6 224.8,148.2 				"/>
				<polygon class="st3" points="224.8,148.2 188.9,148.2 182.8,160.7 220.9,152.7 				"/>
				<polygon class="st4" points="173.7,179.6 173.7,148.2 188.9,148.2 				"/>
			</g>
			<g>
				<polygon class="st5" points="59.1,126 58.1,146.4 18.7,146.2 17.6,125.7 				"/>
				<polygon class="st5" points="68,126.1 75.7,126.1 73.7,146.4 67.4,146.2 				"/>
			</g>
			<g>
				<polygon class="st5" points="221.2,127.1 222.1,148.8 261.4,148.9 262.7,127.1 				"/>
				<polygon class="st5" points="212.3,127.1 204.7,127 206.5,148.6 212.8,148.5 				"/>
			</g>
		</g>
	</g>
	<g>
		<g id="XMLID_62_">
			<g>
				<path class="st6" d="M140.3,4.1c33.1,0,60,26.9,60,60c0,33.1-26.9,60-60,60s-60-26.9-60-60C80.3,31,107.2,4.1,140.3,4.1z"/>
			</g>
		</g>
		<g id="XMLID_61_" class="st7">
			<g>
				<path class="st8" d="M140.3,11.3c29.1,0,52.9,23.7,52.9,52.9c0,29.1-23.7,52.9-52.9,52.9S87.4,93.3,87.4,64.1
					C87.4,35,111.2,11.3,140.3,11.3z"/>
			</g>
		</g>
	</g>
	<g>
		<path class="st8" d="M124.8,98c-0.4,0-0.8-0.3-0.8-0.8v-2.9c0-0.4,0.3-0.8,0.8-0.8c0.4,0,0.8,0.3,0.8,0.8v2.9
			C125.5,97.7,125.2,98,124.8,98z"/>
		<path class="st8" d="M112.8,98c-0.4,0-0.8-0.3-0.8-0.8v-2.9c0-0.4,0.3-0.8,0.8-0.8c0.4,0,0.8,0.3,0.8,0.8v2.9
			C113.6,97.7,113.3,98,112.8,98z"/>
		<path class="st8" d="M128.6,98h-19.4c-0.8,0-1.5-0.7-1.5-1.5c0,0,0-0.1,0-0.1l0.3-5.9c0.1-1.2,0.9-2.2,2.1-2.5l3.8-1l2.3-1.1
			c0.1-0.1,0.2-0.1,0.3-0.1h4.6c0.1,0,0.2,0,0.3,0.1l2.3,1.1l3.8,1c1.2,0.3,2,1.3,2.1,2.5l0.3,5.9C130.1,97.2,129.5,97.9,128.6,98
			C128.6,98,128.6,98,128.6,98z M109.2,96.5h19.3l-0.3-5.9c0-0.5-0.4-1-0.9-1.1l-3.9-1c-0.1,0-0.1,0-0.2-0.1l-2.2-1.1h-4.3l-2.2,1.1
			c-0.1,0-0.1,0-0.2,0.1l-3.9,1c-0.5,0.1-0.9,0.6-0.9,1.1L109.2,96.5z"/>
		<path class="st8" d="M121.2,87.3h-4.7c-0.4,0-0.8-0.3-0.8-0.8v-1.2c0-0.1-0.1-0.2-0.2-0.3c-1.3-0.8-2.1-2.1-2.5-3.5
			c-0.1-0.4,0.2-0.8,0.6-0.9c0.3-0.1,0.6,0,0.8,0.3c0.7,0.9,1.6,1.5,2.7,1.8l0.1,0c1,0.3,2,0.3,2.9,0l0.1,0c1.2-0.3,2.2-1.1,2.9-2.1
			c0.2-0.3,0.7-0.4,1.1-0.2c0.2,0.2,0.4,0.5,0.3,0.8c-0.2,1.6-1.1,3-2.4,3.9c-0.1,0.1-0.2,0.2-0.2,0.3v1.3
			C122,87,121.6,87.3,121.2,87.3z M117.3,85.8h3.1v-0.5c0-0.5,0.2-0.9,0.5-1.3c-0.1,0-0.2,0.1-0.2,0.1l-0.1,0
			c-1.2,0.3-2.5,0.3-3.7,0c0.3,0.3,0.4,0.7,0.4,1.2V85.8z"/>
		<path class="st8" d="M118.7,84.4c-0.6,0-1.3-0.1-1.9-0.3l-0.1,0c-2.1-0.6-3.8-2.2-4.6-4.3l-0.2-0.4c-0.6-1.6-0.8-3.2-0.8-4.8v-1.3
			c0-1.7,1.2-3.3,2.9-3.6c0.6-0.1,1.3-0.1,2,0.2c0.7-0.8,1.7-1.2,2.7-1.2h1.5c3.3,0,6,2.7,6,6c0,1.6-0.3,3.3-0.8,4.8l-0.2,0.5
			c-0.7,2.1-2.4,3.7-4.6,4.3l-0.1,0C120,84.3,119.4,84.4,118.7,84.4z M114.9,71c-0.2,0-0.3,0-0.4,0c-1,0.2-1.7,1.1-1.7,2.1v1.3
			c0,1.5,0.2,2.9,0.7,4.3l0.2,0.4c0.6,1.6,1.9,2.9,3.5,3.3l0.1,0c1,0.3,2,0.3,2.9,0l0.1,0c1.7-0.5,3-1.7,3.5-3.3l0.2-0.5
			c0.5-1.4,0.7-2.8,0.7-4.3c0-2.5-2-4.4-4.4-4.4h-1.5c-0.7,0-1.4,0.4-1.8,1c-0.2,0.4-0.7,0.5-1,0.3C115.6,71.2,115.2,71,114.9,71z"
			/>
		<path class="st8" d="M124.9,81.3c-0.1,0-0.3,0-0.4,0h-0.5c-0.4,0-0.8-0.3-0.8-0.8c0-0.1,0-0.3,0.1-0.4c0.6-1.2,1-2.5,1.2-3.9
			c0.1-0.4,0.5-0.7,0.9-0.6h0c1.3,0.3,2.3,1.5,2.3,2.9C127.8,80,126.5,81.3,124.9,81.3z M125.9,77.5c-0.2,0.8-0.4,1.5-0.6,2.2
			c0.2-0.1,0.4-0.2,0.5-0.3C126.4,79,126.4,78.2,125.9,77.5C126,77.6,125.9,77.6,125.9,77.5z"/>
		<path class="st8" d="M112.5,81.3c-1.6,0-2.9-1.3-2.9-2.9c0-1.4,1-2.5,2.3-2.8c0.4-0.1,0.8,0.2,0.9,0.6v0.1
			c0.2,1.3,0.6,2.6,1.1,3.9c0.2,0.4,0.1,0.8-0.3,1c-0.1,0.1-0.2,0.1-0.4,0.1h-0.5C112.8,81.3,112.6,81.3,112.5,81.3z M111.5,77.6
			c-0.5,0.5-0.5,1.4,0.1,1.9c0,0,0,0,0.1,0.1c0.2,0.1,0.3,0.2,0.5,0.3C111.9,79,111.7,78.3,111.5,77.6z"/>
		<path class="st8" d="M145.6,98c-0.4,0-0.8-0.3-0.8-0.8v-2.9c0-0.4,0.3-0.8,0.8-0.8c0.4,0,0.8,0.3,0.8,0.8v2.9
			C146.4,97.7,146,98,145.6,98z"/>
		<path class="st8" d="M133.7,98c-0.4,0-0.8-0.3-0.8-0.8v-2.9c0-0.4,0.3-0.8,0.8-0.8c0.4,0,0.8,0.3,0.8,0.8v2.9
			C134.5,97.7,134.1,98,133.7,98z"/>
		<path class="st8" d="M149.4,98H130c-0.8,0-1.5-0.7-1.5-1.5c0,0,0-0.1,0-0.1l0.3-5.9c0.1-1.2,0.9-2.2,2.1-2.5l3.8-1l2.3-1.1
			c0.1-0.1,0.2-0.1,0.3-0.1h4.6c0.1,0,0.2,0,0.3,0.1l2.3,1.1l3.8,1c1.2,0.3,2,1.3,2.1,2.5l0.3,5.9C150.9,97.2,150.3,97.9,149.4,98
			C149.5,98,149.5,98,149.4,98z M130.1,96.5h19.3l-0.3-5.9c0-0.5-0.4-1-0.9-1.1l-3.9-1c-0.1,0-0.1,0-0.2-0.1l-2.2-1.1h-4.3l-2.2,1.1
			c-0.1,0-0.1,0-0.2,0.1l-3.9,1c-0.5,0.1-0.9,0.6-0.9,1.1L130.1,96.5z"/>
		<path class="st8" d="M142.1,87.3h-4.6c-0.4,0-0.8-0.3-0.8-0.8v-1.2c0-0.1-0.1-0.2-0.2-0.3c-1.3-0.8-2.1-2.1-2.5-3.5
			c-0.1-0.4,0.2-0.8,0.6-0.9c0.3-0.1,0.6,0,0.8,0.3c0.7,0.9,1.6,1.5,2.7,1.8l0.1,0c1,0.3,2,0.3,2.9,0l0.1,0c1.2-0.3,2.2-1.1,2.9-2.1
			c0.2-0.3,0.7-0.4,1.1-0.2c0.2,0.2,0.4,0.5,0.3,0.8c-0.2,1.6-1.1,3-2.4,3.9c-0.1,0.1-0.2,0.2-0.2,0.3v1.3
			C142.8,87,142.5,87.3,142.1,87.3z M138.2,85.8h3.1v-0.5c0-0.5,0.2-0.9,0.5-1.3c-0.1,0-0.2,0.1-0.2,0.1l-0.1,0
			c-1.2,0.3-2.5,0.3-3.7,0c0.3,0.3,0.4,0.7,0.4,1.2V85.8z"/>
		<path class="st8" d="M139.6,84.4c-0.6,0-1.3-0.1-1.9-0.3l-0.1,0c-2.1-0.6-3.8-2.2-4.6-4.3l-0.1-0.4c-0.6-1.6-0.8-3.2-0.8-4.8v-1.3
			c0-1.7,1.2-3.3,2.9-3.6c0.6-0.1,1.3-0.1,2,0.2c0.7-0.8,1.7-1.2,2.7-1.2h1.5c3.3,0,6,2.7,6,6c0,1.6-0.3,3.3-0.8,4.8l-0.2,0.5
			c-0.7,2.1-2.4,3.7-4.6,4.3l-0.1,0C140.8,84.3,140.2,84.4,139.6,84.4z M135.7,71c-0.2,0-0.3,0-0.4,0c-1,0.2-1.7,1.1-1.7,2.1v1.3
			c0,1.5,0.2,2.9,0.7,4.3l0.1,0.4c0.6,1.6,1.9,2.9,3.5,3.3l0.1,0c1,0.3,2,0.3,2.9,0l0.1,0c1.7-0.5,3-1.7,3.5-3.3l0.2-0.5
			c0.5-1.4,0.7-2.8,0.7-4.3c0-2.5-2-4.4-4.4-4.4h-1.5c-0.7,0-1.4,0.4-1.8,1c-0.2,0.4-0.7,0.5-1,0.3C136.4,71.2,136.1,71,135.7,71z"
			/>
		<path class="st8" d="M145.8,81.3c-0.1,0-0.3,0-0.4,0h-0.5c-0.4,0-0.8-0.3-0.8-0.8c0-0.1,0-0.3,0.1-0.4c0.6-1.2,1-2.5,1.2-3.9
			c0.1-0.4,0.5-0.7,0.9-0.6h0c1.3,0.3,2.3,1.5,2.3,2.9C148.7,80,147.4,81.3,145.8,81.3z M146.8,77.5c-0.2,0.8-0.4,1.5-0.6,2.2
			c0.2-0.1,0.4-0.2,0.5-0.3C147.2,79,147.3,78.2,146.8,77.5C146.8,77.6,146.8,77.6,146.8,77.5z"/>
		<path class="st8" d="M133.4,81.3c-1.6,0-2.9-1.3-2.9-2.9c0-1.4,1-2.5,2.3-2.8c0.4-0.1,0.8,0.2,0.9,0.6v0.1
			c0.2,1.3,0.6,2.6,1.1,3.9c0.2,0.4,0.1,0.8-0.3,1c-0.1,0.1-0.2,0.1-0.4,0.1h-0.5C133.6,81.3,133.5,81.3,133.4,81.3z M132.4,77.6
			c-0.5,0.5-0.5,1.4,0.1,1.9c0,0,0,0,0.1,0.1c0.2,0.1,0.3,0.2,0.5,0.3C132.7,79,132.5,78.3,132.4,77.6z"/>
		<path class="st8" d="M166.5,98c-0.4,0-0.8-0.3-0.8-0.8v-2.9c0-0.4,0.3-0.8,0.8-0.8c0.4,0,0.8,0.3,0.8,0.8v2.9
			C167.2,97.7,166.9,98,166.5,98z"/>
		<path class="st8" d="M154.5,98c-0.4,0-0.8-0.3-0.8-0.8v-2.9c0-0.4,0.3-0.8,0.8-0.8c0.4,0,0.8,0.3,0.8,0.8v2.9
			C155.3,97.7,155,98,154.5,98z"/>
		<path class="st8" d="M170.3,98h-19.4c-0.8,0-1.5-0.7-1.5-1.5c0,0,0-0.1,0-0.1l0.3-5.9c0.1-1.2,0.9-2.2,2.1-2.5l3.8-1l2.3-1.1
			c0.1-0.1,0.2-0.1,0.3-0.1h4.6c0.1,0,0.2,0,0.3,0.1l2.3,1.1l3.8,1c1.2,0.3,2,1.3,2.1,2.5l0.3,5.9C171.8,97.2,171.2,97.9,170.3,98
			C170.3,98,170.3,98,170.3,98z M150.9,96.5h19.3l-0.3-5.9c0-0.5-0.4-1-0.9-1.1l-3.9-1c-0.1,0-0.1,0-0.2-0.1l-2.2-1.1h-4.3l-2.2,1.1
			c-0.1,0-0.1,0-0.2,0.1l-3.9,1c-0.5,0.1-0.9,0.6-0.9,1.1L150.9,96.5z"/>
		<path class="st8" d="M162.9,87.3h-4.6c-0.4,0-0.8-0.3-0.8-0.8v-1.2c0-0.1-0.1-0.2-0.2-0.3c-1.3-0.8-2.1-2.1-2.5-3.5
			c-0.1-0.4,0.2-0.8,0.6-0.9c0.3-0.1,0.6,0,0.8,0.3c0.7,0.9,1.6,1.5,2.7,1.8l0.1,0c1,0.3,2,0.3,2.9,0l0.1,0c1.2-0.3,2.2-1.1,2.9-2.1
			c0.2-0.3,0.7-0.4,1.1-0.2c0.2,0.2,0.4,0.5,0.3,0.8c-0.2,1.6-1.1,3-2.4,3.9c-0.1,0.1-0.2,0.2-0.2,0.3v1.3
			C163.7,87,163.3,87.3,162.9,87.3z M159,85.8h3.1v-0.5c0-0.5,0.2-0.9,0.5-1.3c-0.1,0-0.2,0.1-0.2,0.1l-0.1,0
			c-1.2,0.3-2.5,0.3-3.7,0c0.3,0.3,0.4,0.7,0.4,1.2V85.8z"/>
		<path class="st8" d="M160.4,84.4c-0.6,0-1.3-0.1-1.9-0.3l-0.1,0c-2.1-0.6-3.8-2.2-4.6-4.3l-0.1-0.4c-0.6-1.6-0.8-3.2-0.8-4.8v-1.3
			c0-1.7,1.2-3.3,2.9-3.6c0.6-0.1,1.3-0.1,2,0.2c0.7-0.8,1.7-1.2,2.7-1.2h1.5c3.3,0,6,2.7,6,6c0,1.6-0.3,3.3-0.8,4.8l-0.2,0.5
			c-0.7,2.1-2.4,3.7-4.6,4.3l-0.1,0C161.7,84.3,161.1,84.4,160.4,84.4z M156.6,71c-0.2,0-0.3,0-0.4,0c-1,0.2-1.7,1.1-1.7,2.1v1.3
			c0,1.5,0.2,2.9,0.7,4.3l0.1,0.4c0.6,1.6,1.9,2.9,3.5,3.3l0.1,0c1,0.3,2,0.3,2.9,0l0.1,0c1.7-0.5,3-1.7,3.5-3.3l0.2-0.5
			c0.5-1.4,0.7-2.8,0.7-4.3c0-2.5-2-4.4-4.4-4.4h-1.5c-0.7,0-1.4,0.4-1.8,1c-0.2,0.4-0.7,0.5-1,0.3C157.3,71.2,156.9,71,156.6,71z"
			/>
		<path class="st8" d="M166.7,81.3c-0.1,0-0.3,0-0.4,0h-0.5c-0.4,0-0.8-0.3-0.8-0.8c0-0.1,0-0.3,0.1-0.4c0.6-1.2,1-2.5,1.2-3.9
			c0.1-0.4,0.5-0.7,0.9-0.6h0c1.3,0.3,2.3,1.5,2.3,2.9C169.5,80,168.2,81.3,166.7,81.3z M167.6,77.5c-0.2,0.8-0.4,1.5-0.6,2.2
			c0.2-0.1,0.4-0.2,0.5-0.3C168,79,168.1,78.2,167.6,77.5C167.7,77.6,167.6,77.6,167.6,77.5z"/>
		<path class="st8" d="M154.2,81.3c-1.6,0-2.9-1.3-2.9-2.9c0-1.4,1-2.5,2.3-2.8c0.4-0.1,0.8,0.2,0.9,0.6v0.1
			c0.2,1.3,0.6,2.6,1.1,3.9c0.2,0.4,0.1,0.8-0.3,1c-0.1,0.1-0.2,0.1-0.4,0.1h-0.5C154.5,81.3,154.3,81.3,154.2,81.3z M153.2,77.6
			c-0.5,0.5-0.5,1.4,0.1,1.9c0,0,0,0,0.1,0.1c0.2,0.1,0.3,0.2,0.5,0.3C153.6,79,153.4,78.3,153.2,77.6z"/>
		<path class="st8" d="M131.6,43.8c-0.2,0-0.4,0-0.6-0.1c-0.4-0.1-0.7-0.4-0.6-0.8c0-0.1,0-0.2,0-0.4v-4.4c0-0.1,0-0.2,0-0.4
			c0-0.4,0.2-0.7,0.6-0.8c1.9-0.3,3.6,1,3.9,2.8c0.3,1.9-1,3.6-2.8,3.9C132,43.7,131.8,43.8,131.6,43.8z M132,38.5v3.7
			c1-0.2,1.7-1.2,1.5-2.2C133.3,39.2,132.7,38.6,132,38.5z"/>
		<path class="st8" d="M118.1,43.8c-1.9,0-3.4-1.5-3.4-3.4c0-1.9,1.5-3.4,3.4-3.4c0.2,0,0.4,0,0.6,0c0.4,0.1,0.7,0.4,0.6,0.8v0.4
			v4.4v0.4c0,0.4-0.2,0.7-0.6,0.8C118.5,43.7,118.3,43.8,118.1,43.8z M117.7,38.5c-1,0.2-1.7,1.2-1.5,2.2c0.2,0.8,0.7,1.3,1.5,1.5
			V38.5z"/>
		<path class="st8" d="M124.9,49.7c-3.9,0-7.1-3.2-7.1-7.1v-5.1c0-0.6,0.5-1.1,1.1-1.1c0.1,0,0.2,0,0.2,0c1.2,0.2,4.1,0.6,6.1-2
			c0.2-0.2,0.5-0.4,0.8-0.4c0.3,0,0.6,0.1,0.9,0.3c0.4,0.4,1.6,1.3,4,1.4c0.6,0,1.1,0.5,1.1,1.1v5.8C132,46.5,128.8,49.7,124.9,49.7
			z M119.3,37.9v4.6c0,3.1,2.5,5.6,5.6,5.6c3.1,0,5.6-2.5,5.6-5.6c0,0,0-0.1,0-0.1v-5.3c-2.2-0.2-3.6-0.9-4.3-1.5
			C123.8,38.2,120.7,38.1,119.3,37.9z"/>
		<path class="st8" d="M133.5,39.2c-0.2,0-0.4-0.1-0.5-0.2c-0.3-0.3-0.8-0.5-1.3-0.5c-0.1,0-0.2,0-0.3,0c-0.4,0.1-0.8-0.2-0.9-0.6
			c0,0,0-0.1,0-0.1v-0.5c-2.2-0.2-3.6-0.9-4.3-1.5c-2.3,2.6-5.4,2.5-6.9,2.3c-0.1,0.4-0.5,0.6-0.9,0.6c-0.5-0.1-1,0.1-1.5,0.4
			c-0.3,0.3-0.8,0.2-1.1-0.1c-0.1-0.1-0.2-0.3-0.2-0.5v-2.9c0-4,3.3-7.3,7.3-7.3h1.8c1.3,0,2.5,0.6,3.3,1.6c0.5-0.2,1.1-0.3,1.6-0.3
			c2.4,0,4.4,2,4.4,4.4v4.8C134.2,38.9,133.9,39.2,133.5,39.2z M132,36.9c0.2,0,0.5,0.1,0.7,0.2v-3.4c0-1.6-1.3-2.9-2.9-2.9
			c-0.5,0-1,0.2-1.5,0.4c-0.4,0.2-0.8,0.1-1-0.3c-0.5-0.9-1.4-1.4-2.5-1.4H123c-3.2,0-5.8,2.6-5.8,5.8v1.7c0.2-0.1,0.4-0.1,0.6-0.1
			c0.2-0.5,0.7-0.7,1.2-0.6c1.2,0.2,4.1,0.6,6.1-2c0.2-0.2,0.5-0.4,0.8-0.4c0.3,0,0.6,0.1,0.9,0.3c0.4,0.4,1.6,1.3,4,1.4
			c0.6,0,1.1,0.5,1.1,1.1L132,36.9z"/>
		<path class="st8" d="M124.9,58c-0.1,0-0.1,0-0.2,0c-0.1,0-0.1,0-0.2,0c-0.1,0-0.1,0-0.1-0.1s-0.1-0.1-0.1-0.1c0,0-0.1-0.1-0.1-0.1
			c0,0-0.1-0.1-0.1-0.1c0,0,0-0.1,0-0.2s0-0.1,0-0.2c0-0.1,0-0.1,0-0.2c0-0.1,0-0.1,0-0.2c0,0,0-0.1,0.1-0.1c0,0,0.1-0.1,0.1-0.1
			c0,0,0.1-0.1,0.1-0.1c0,0,0.1-0.1,0.1-0.1c0,0,0.1,0,0.2,0c0.1,0,0.2,0,0.3,0c0.1,0,0.1,0,0.2,0c0.1,0,0.1,0,0.1,0.1
			c0,0,0.1,0.1,0.1,0.1c0,0,0.1,0.1,0.1,0.1c0,0,0.1,0.1,0.1,0.1c0,0.1,0,0.1,0,0.2s0,0.1,0,0.2s0,0.1,0,0.2c0,0.1,0,0.1,0,0.2
			c0,0.1,0,0.1-0.1,0.1s-0.1,0.1-0.1,0.1c0,0-0.1,0.1-0.1,0.1c0,0-0.1,0.1-0.1,0.1c-0.1,0-0.1,0-0.2,0C125.1,58,125,58,124.9,58z"/>
		<path class="st8" d="M124.9,61.4c-0.1,0-0.1,0-0.2,0c-0.1,0-0.1,0-0.2,0c-0.1,0-0.1,0-0.1-0.1c-0.1-0.1-0.2-0.1-0.2-0.2
			c0,0-0.1-0.1-0.1-0.1c0-0.1,0-0.1,0-0.2c0-0.1,0-0.1,0-0.2c0-0.2,0.1-0.4,0.2-0.6c0,0,0.1-0.1,0.1-0.1c0,0,0.1-0.1,0.1-0.1
			c0,0,0.1,0,0.2,0c0.1,0,0.2,0,0.3,0c0.1,0,0.2,0.1,0.3,0.1c0,0,0.1,0.1,0.1,0.1s0.1,0.1,0.1,0.1c0,0,0.1,0.1,0.1,0.1
			c0,0.1,0,0.1,0,0.2c0,0.1,0,0.1,0,0.2c0,0.2-0.1,0.4-0.2,0.6c0,0-0.1,0.1-0.1,0.1c-0.1,0.1-0.2,0.1-0.3,0.1
			C125.1,61.4,125,61.4,124.9,61.4z"/>
		<path class="st8" d="M124.9,64.7c-0.1,0-0.1,0-0.2,0c-0.1,0-0.1,0-0.2,0c-0.1,0-0.1,0-0.1-0.1c0,0-0.1-0.1-0.1-0.1
			c0,0-0.1-0.1-0.1-0.1c0,0-0.1-0.1-0.1-0.1c0-0.1,0-0.1,0-0.2c0-0.1,0-0.2,0-0.3c0-0.1,0-0.1,0-0.2c0,0,0-0.1,0.1-0.1
			c0,0,0.1-0.1,0.1-0.1c0,0,0.1-0.1,0.1-0.1c0,0,0.1-0.1,0.1-0.1c0,0,0.1,0,0.2,0c0.2-0.1,0.5,0,0.7,0.2c0.2,0.2,0.2,0.3,0.2,0.6
			c0,0.1,0,0.1,0,0.2c0,0.1,0,0.1,0,0.2c0,0.1,0,0.1-0.1,0.1c0,0-0.1,0.1-0.1,0.1s-0.1,0.1-0.1,0.1c0,0-0.1,0.1-0.1,0.1
			c-0.1,0-0.1,0-0.2,0C125.1,64.7,125,64.7,124.9,64.7z"/>
		<path class="st8" d="M117.3,66.9c-0.4,0-0.8-0.3-0.8-0.8v-5.9c0-0.4,0.3-0.8,0.8-0.8c0.4,0,0.8,0.3,0.8,0.8v5.9
			C118.1,66.6,117.8,66.9,117.3,66.9z"/>
		<path class="st8" d="M126.5,54.5h-3.1c-0.5,0-1-0.3-1.1-0.8l-1-2.9c0-0.1,0-0.2,0-0.2v-2.4c0-0.4,0.3-0.8,0.8-0.8
			c0.1,0,0.2,0,0.3,0.1c0.8,0.4,1.6,0.6,2.5,0.6c0.9,0,1.8-0.2,2.6-0.7c0.4-0.2,0.8-0.1,1,0.3c0.1,0.1,0.1,0.2,0.1,0.4v2.5
			c0,0.1,0,0.2,0,0.2l-1,2.9C127.4,54.2,127,54.5,126.5,54.5z M123.7,52.9h2.6l0.9-2.5v-1.1c-1.4,0.5-2.9,0.5-4.3,0.1v1.1
			L123.7,52.9z"/>
		<path class="st8" d="M168.3,33.1h-35.1c-0.3,0-0.6-0.2-0.7-0.5c-0.6-1.4-2.2-2.1-3.7-1.6c-0.2,0.1-0.3,0.1-0.4,0.2
			c-0.4,0.2-0.8,0.1-1-0.3c-0.3-0.6-0.8-1-1.4-1.2c-0.4-0.2-0.6-0.5-0.5-0.9c0.3-1.1,1.3-1.9,2.4-1.9h40.5c1.4,0,2.5,1.1,2.5,2.5
			v1.1C170.9,31.9,169.7,33.1,168.3,33.1z M133.7,31.5h34.7c0.5,0,1-0.4,1-1v-1.1c0-0.5-0.4-1-1-1h-40.5c-0.2,0-0.4,0.1-0.6,0.2
			c0.4,0.2,0.7,0.5,1,0.9C130.3,28.8,132.6,29.6,133.7,31.5z"/>
		<path class="st8" d="M131.7,67.4H113c-1.1,0-2.1-0.9-2.1-2.1c0,0,0-0.1,0-0.1l0.6-9.7c0.1-1.4,1.1-2.6,2.5-3l4.8-1.2l2.9-1.4
			c0.4-0.2,0.8,0,1,0.3c0,0,0,0.1,0,0.1l0.9,2.6h2.6l0.9-2.6c0.2-0.4,0.6-0.6,1-0.5c0,0,0.1,0,0.1,0l2.9,1.4l3.1,0.8
			c1.3,0.3,2.5,1.1,3.3,2.1l0,0l2.9,4l6.7-6c1.5-1.3,3.7-1.1,5,0.4c1.3,1.5,1.1,3.7-0.4,5l0,0l-10.3,8.6c-1.3,1-3.1,0.9-4.2-0.2l0,0
			l-4.1-4.7v4.8C133.1,66.7,132.5,67.4,131.7,67.4z M121.6,51.6l-2.2,1.1c-0.1,0-0.1,0-0.2,0.1l-4.9,1.2c-0.7,0.2-1.3,0.8-1.3,1.6
			l-0.6,9.7c0,0.3,0.2,0.6,0.5,0.6h0h18.6v-5.5c0-0.7,0.6-1.2,1.2-1.2c0.3,0,0.6,0.1,0.8,0.3l0.1,0.1l4.6,5.4
			c0.6,0.6,1.5,0.6,2.1,0.1l10.3-8.6c0.8-0.7,1-1.9,0.3-2.8c-0.7-0.9-2-1-2.8-0.3l0,0l-7,6.3c-0.2,0.2-0.5,0.3-0.8,0.3
			c-0.3,0-0.6-0.2-0.7-0.4l-3.2-4.4c-0.6-0.8-1.5-1.3-2.5-1.6l-3.2-0.8c-0.1,0-0.1,0-0.2-0.1l-2.2-1.1l-0.7,2.1
			c-0.2,0.5-0.6,0.8-1.1,0.8h-3.1c-0.5,0-1-0.3-1.1-0.8L121.6,51.6z"/>
		<path class="st8" d="M149.6,59.1c-0.2,0-0.4-0.1-0.6-0.3l-3.6-4.1c-0.3-0.3-0.2-0.8,0.1-1.1l1.6-1.5c0,0,0,0,0,0
			c1.5-1.3,3.7-1.1,5,0.4c0,0,0,0,0.1,0.1c1.2,1.5,1,3.7-0.5,4.9l-1.6,1.3C149.9,59,149.8,59.1,149.6,59.1z M147.1,54.3l2.6,3l1-0.9
			c0.8-0.7,1-1.9,0.3-2.8c-0.7-0.9-2-1-2.8-0.3c0,0,0,0,0,0L147.1,54.3z"/>
		<path class="st8" d="M166.3,64.4h-23.1c-0.4,0-0.8-0.3-0.8-0.8c0-0.2,0.1-0.4,0.3-0.6l8-6.7c0.8-0.7,1-1.9,0.3-2.8
			c-0.7-0.9-2-1-2.8-0.3l0,0l-7.1,6.3c-0.2,0.2-0.5,0.3-0.8,0.3c-0.3,0-0.6-0.2-0.7-0.4l-3.2-4.4c-0.6-0.8-1.5-1.3-2.5-1.6l-3.2-0.8
			c-0.1,0-0.1,0-0.2-0.1l-3-1.5c-0.3-0.1-0.4-0.4-0.4-0.7v-2.5c0-0.3,0.2-0.6,0.4-0.7c1.7-0.9,2.8-2.6,2.9-4.5
			c0-0.4,0.4-0.7,0.8-0.7h0.1c1,0.2,2-0.5,2.1-1.6c0.1-0.6-0.1-1.2-0.6-1.7c-0.2-0.2-0.2-0.3-0.2-0.6v-4.8c0-0.4-0.1-0.7-0.2-1.1
			c-0.2-0.4,0-0.8,0.4-1c0.1,0,0.2-0.1,0.3-0.1h35.2c0.4,0,0.8,0.3,0.8,0.8v29.3C169.1,63.2,167.9,64.4,166.3,64.4z M145.3,62.9h21
			c0.7,0,1.3-0.6,1.3-1.3V33.1h-33.4c0,0.2,0,0.4,0,0.6v4.5c0.5,0.6,0.8,1.4,0.8,2.2c0,1.8-1.4,3.3-3.2,3.4c-0.3,2-1.5,3.7-3.2,4.8
			v1.5l2.5,1.2l3.1,0.8c1.3,0.3,2.5,1.1,3.3,2.1l0,0l2.9,4l6.7-6c1.5-1.3,3.7-1.1,5,0.4c1.3,1.5,1.1,3.7-0.4,5l0,0L145.3,62.9z"/>
		<path class="st8" d="M136.3,64.4h-4c-0.4,0-0.8-0.3-0.8-0.8v-3.3c0-0.7,0.6-1.2,1.2-1.2c0.3,0,0.6,0.1,0.8,0.3
			c0,0,0.1,0.1,0.1,0.1l3.2,3.7c0.3,0.3,0.2,0.8-0.1,1.1C136.7,64.4,136.5,64.4,136.3,64.4z M133.2,62.9h1.5l-1.5-1.7V62.9z"/>
		<path class="st8" d="M136.4,46.2c-0.4,0-0.8-0.3-0.8-0.8c0-0.2,0.1-0.5,0.3-0.6l7.4-5.8c0.3-0.2,0.7-0.2,1,0l6.9,5.4l10.4-8.2
			c0.3-0.3,0.8-0.2,1.1,0.1c0.3,0.3,0.2,0.8-0.1,1.1c0,0,0,0,0,0l-10.9,8.6c-0.3,0.2-0.7,0.2-1,0l-6.9-5.4l-6.9,5.5
			C136.7,46.1,136.6,46.2,136.4,46.2z"/>
		<path class="st8" d="M161.7,41C161.7,41,161.7,41,161.7,41c-0.5,0-0.8-0.4-0.8-0.8l0.3-2.7l-2.7-0.3c-0.4,0-0.7-0.4-0.7-0.8
			c0-0.4,0.4-0.7,0.8-0.7l3.4,0.4c0.4,0,0.7,0.4,0.7,0.8l-0.4,3.4C162.4,40.7,162.1,41,161.7,41z"/>
		<path class="st8" d="M158.6,57.4h-4.3c-0.4,0-0.8-0.3-0.8-0.8V42.9c0-0.2,0.1-0.5,0.3-0.6l4.3-3.4c0.3-0.3,0.8-0.2,1.1,0.1
			c0.1,0.1,0.2,0.3,0.2,0.5v17.1C159.4,57,159.1,57.4,158.6,57.4z M155.1,55.9h2.8V41.1l-2.8,2.2V55.9z"/>
		<path class="st8" d="M154.3,57.4h-2.8c-0.4,0-0.8-0.3-0.8-0.8c0-0.2,0.1-0.3,0.2-0.5c0.6-0.7,0.6-1.8,0-2.5
			c-0.3-0.4-0.7-0.6-1.1-0.7c-0.4-0.1-0.6-0.4-0.6-0.7v-7.7c0-0.4,0.3-0.8,0.8-0.8c0.2,0,0.3,0.1,0.5,0.2l0.7,0.5l2.7-2.1
			c0.3-0.3,0.8-0.2,1.1,0.1c0.1,0.1,0.2,0.3,0.2,0.5v13.7C155.1,57,154.8,57.4,154.3,57.4z M152.8,55.9h0.7V44.5l-1.9,1.5
			c-0.2,0.2-0.6,0.2-0.9,0.1v5.6c0.6,0.2,1,0.6,1.4,1C152.9,53.6,153.2,54.7,152.8,55.9z"/>
		<path class="st8" d="M145.7,55.3c-0.4,0-0.8-0.3-0.8-0.8V41.1c0-0.4,0.3-0.8,0.8-0.8c0.2,0,0.3,0.1,0.5,0.2l4.3,3.4
			c0.2,0.2,0.3,0.4,0.3,0.6v7.7c0,0.4-0.3,0.8-0.8,0.8c-0.1,0-0.1,0-0.2,0c-0.6-0.1-1.3,0-1.7,0.4l-1.9,1.7
			C146.1,55.2,145.9,55.3,145.7,55.3z M146.5,42.7v10.1l0.6-0.6c0.6-0.5,1.3-0.8,2.1-0.9v-6.5L146.5,42.7z"/>
		<path class="st8" d="M143.4,57.4h-2c-0.4,0-0.8-0.3-0.8-0.8V41.4c0-0.2,0.1-0.5,0.3-0.6l2.4-1.9c0.3-0.2,0.7-0.2,1,0l1.9,1.5
			c0.2,0.2,0.3,0.4,0.3,0.6v13.4c0,0.2-0.1,0.4-0.2,0.6l-2.3,2.1C143.7,57.3,143.6,57.4,143.4,57.4z M142.2,55.9h0.9l1.9-1.7V41.5
			l-1.2-0.9l-1.6,1.3L142.2,55.9z"/>
		<path class="st8" d="M141.4,57.4h-3.1c-0.2,0-0.5-0.1-0.6-0.3l-1.3-1.7c-0.1-0.1-0.2-0.3-0.2-0.5V44.8c0-0.2,0.1-0.5,0.3-0.6
			l4.3-3.4c0.3-0.3,0.8-0.2,1.1,0.1c0.1,0.1,0.2,0.3,0.2,0.5v15.2C142.2,57,141.8,57.4,141.4,57.4z M138.7,55.9h1.9V43l-2.8,2.2v9.4
			L138.7,55.9z"/>
	</g>
</g>
</svg>
