<?xml version="1.0" encoding="utf-8"?>
<!-- Generator: Adobe Illustrator 23.1.1, SVG Export Plug-In . SVG Version: 6.00 Build 0)  -->
<svg version="1.1" id="Layer_1" xmlns:serif="http://www.serif.com/"
	 xmlns="http://www.w3.org/2000/svg" xmlns:xlink="http://www.w3.org/1999/xlink" x="0px" y="0px" width="490px" height="425px"
	 viewBox="0 0 490 425" style="enable-background:new 0 0 490 425;" xml:space="preserve">
<style type="text/css">
	.st0{fill:#EA5589;}
	.st1{opacity:0.1;}
	.st2{fill:#231F20;}
	.st3{opacity:0.5;fill:#231F20;}
	.st4{fill:#464747;}
	.st5{fill:#1D0422;}
	.st6{fill:#290C34;}
	.st7{fill:#FF1717;}
	.st8{fill:#FFC217;}
	.st9{fill:#584278;}
	.st10{fill:#73FFE5;}
	.st11{opacity:0.1;fill:#FFFFFF;}
	.st12{fill:#FCC287;}
	.st13{fill:#EFB980;}
	.st14{fill:#C5693D;}
	.st15{fill:#BFDCF3;}
	.st16{fill:#5CBCEB;}
</style>
<rect x="-6.7" y="-4.1" class="st0" width="499.2" height="430.9"/>
<g class="st1">
	<path class="st2" d="M392.7,38.6c-6.6-1.2-13.3-0.4-20-0.1c-7.2,0.3-14.5,0.3-21.6,1.3c-1,0.1-1,1.8,0,2c6.5,1,13.1,0.9,19.6,1.3
		c7.3,0.3,14.7,1.2,21.9-0.1C394.9,42.6,394.9,39,392.7,38.6z"/>
	<path class="st2" d="M436,60.2c-3.4-1-6.9-0.4-10.4-0.2c-3.8,0.2-7.7,0.5-11.5,0.8c-1.8,0.1-1.8,2.7,0,2.9
		c3.8,0.3,7.7,0.6,11.5,0.8c3.5,0.2,7,0.8,10.4-0.2C438,63.5,438,60.8,436,60.2z"/>
	<path class="st2" d="M417.5,98.5c-4.7-0.4-9.3-0.1-14,0.1c-1.9,0.1-1.9,2.9,0,3c4.7,0.3,9.3,0.5,14,0.1
		C419.6,101.6,419.6,98.7,417.5,98.5z"/>
	<path class="st2" d="M474.1,115.3c-7-1.8-15.4-0.2-22.6,0.1c-2.6,0.1-2.6,4,0,4.1c7.2,0.3,15.6,1.8,22.6,0.1
		C476.2,119.1,476.2,115.9,474.1,115.3z"/>
	<path class="st2" d="M471.3,222.4c-3.3-0.7-6.5-0.3-9.8,0c-2.3,0.2-2.3,3.3,0,3.6c3.3,0.3,6.5,0.6,9.8,0
		C473,225.5,473,222.7,471.3,222.4z"/>
	<path class="st2" d="M445.9,275.2c-5.3-0.8-10.5-0.4-15.8-0.2c-2.3,0.1-2.3,3.4,0,3.5c5.3,0.2,10.5,0.6,15.8-0.2
		C447.5,278.2,447.5,275.4,445.9,275.2z"/>
	<path class="st2" d="M479.4,321.8c-5.1-1.1-10.5-0.4-15.7-0.2c-5.6,0.2-11.3,0.4-16.9,0.6c-2.5,0.1-2.5,3.7,0,3.8
		c5.6,0.2,11.3,0.4,16.9,0.6c5.2,0.2,10.6,0.8,15.7-0.2C481.8,326,481.8,322.3,479.4,321.8z"/>
	<path class="st2" d="M462.6,385.2c-6.2-1.2-12.9-0.3-19.1-0.2c-2.4,0-2.4,3.7,0,3.7c6.2,0.1,13,0.9,19.1-0.2
		C464.2,388.1,464.2,385.5,462.6,385.2z"/>
	<path class="st2" d="M125.8,412.3c-5.8-0.8-11.8-0.3-17.7-0.2c-1.7,0-1.7,2.7,0,2.7c5.9,0.2,11.8,0.6,17.7-0.2
		C127,414.5,127,412.4,125.8,412.3z"/>
	<path class="st2" d="M146.1,400.8c-6.9-0.4-13.8,0-20.7,0.2c-1.5,0.1-1.5,2.3,0,2.3c6.9,0.2,13.8,0.6,20.7,0.2
		C147.9,403.4,147.9,400.9,146.1,400.8z"/>
	<path class="st2" d="M423.9,355.2c-6.9-1.3-15.1-0.3-22,0.9c-0.7,0.1-0.7,1.4,0,1.5c6.9,1.1,15.1,2.2,22,0.9
		C425.5,358.1,425.5,355.5,423.9,355.2z"/>
	<path class="st2" d="M336,417.6c-8.3-1.4-16.8-0.3-25.2,0.1c-2.2,0.1-2.2,3.4,0,3.5c8.4,0.4,16.9,1.5,25.2,0.1
		C337.8,421,337.8,418,336,417.6z"/>
	<path class="st2" d="M343.8,405.6c-2.8-0.9-6.1-0.4-9-0.3c-1.9,0.1-1.9,2.8,0,2.9c2.9,0.1,6.2,0.6,9-0.3
		C345,407.6,345,406,343.8,405.6z"/>
	<path class="st2" d="M204.1,429.1c-5.7-0.4-11.6-1.2-17.3-0.4c-2,0.3-2,2.8,0,3c5.7,0.7,11.6,0,17.3-0.4
		C205.5,431.1,205.5,429.2,204.1,429.1z"/>
	<path class="st2" d="M60.8,345.5c-6.5-0.2-13.1-0.4-19.6-0.6c-6-0.1-12.3-0.6-18.2,0.6c-1.9,0.4-1.9,3.5,0,3.9
		c5.9,1.2,12.2,0.7,18.2,0.6c6.6-0.1,13.1-0.3,19.6-0.6C63.4,349.4,63.4,345.6,60.8,345.5z"/>
	<path class="st2" d="M60.8,321.1c-4.7-0.2-9.3-0.6-14,0c-2.2,0.3-2.2,3.1,0,3.4c4.7,0.6,9.3,0.2,14,0C63,324.4,63,321.2,60.8,321.1
		z"/>
	<path class="st2" d="M21.3,427.8c-2.3-0.4-4-0.9-6.3-0.5c-2,0.3-4.2,0.4-6.1,1.2c-0.8,0.3-0.8,1.7,0,2c1.9,0.8,4,0.9,6.1,1.2
		c2.3,0.4,4.1-0.1,6.3-0.5C23,430.9,23,428.1,21.3,427.8z"/>
	<path class="st2" d="M26.1,243.5c-6.5-0.6-14.2-1.8-20.6-0.1c-2,0.6-2,3.5,0,4.1c6.4,1.7,14.1,0.6,20.6-0.1
		C28.6,247.2,28.6,243.8,26.1,243.5z"/>
	<path class="st2" d="M41.9,221.3c-4-1.2-8.9-0.3-13.1-0.1c-2.1,0.1-2.1,3.2,0,3.2c4.1,0.2,9.1,1.1,13.1-0.1
		C43.3,223.9,43.3,221.8,41.9,221.3z"/>
	<path class="st2" d="M54.1,131c-7.2-0.6-14.5-0.5-21.7-0.7c-7.3-0.1-15.1-1.1-22.2,0.4c-2,0.4-2,3.6,0,4c6.6,1.4,13.6,0.6,20.3,0.5
		c7.9-0.1,15.8-0.1,23.6-0.7C56.4,134.4,56.4,131.2,54.1,131z"/>
	<path class="st2" d="M78.1,92.6c-6.5-0.5-12.8-0.4-19.3,0c-1.9,0.1-1.9,2.9,0,3c6.5,0.4,12.9,0.6,19.3,0
		C80.1,95.5,80.1,92.8,78.1,92.6z"/>
	<path class="st2" d="M54.1,51.9c-7.8-0.1-15.5-0.2-23.3-0.3C23.7,51.6,16.1,51,9,52.4c-1.8,0.3-1.8,3.2,0,3.5
		c7.1,1.3,14.7,0.8,21.9,0.7c7.8-0.1,15.5-0.2,23.3-0.3C57,56.3,57,52,54.1,51.9z"/>
	<path class="st2" d="M111.5,61.5c-4.2-0.4-8.4-0.2-12.7-0.1c-1.9,0-1.9,2.8,0,2.9c4.2,0.1,8.4,0.2,12.7-0.1
		C113.2,64,113.2,61.6,111.5,61.5z"/>
	<path class="st2" d="M136.5,17.4c-10.2-1.6-21.4,0-31.7,0.2c-1.6,0-1.6,2.4,0,2.5c10.3,0.3,21.5,1.8,31.7,0.2
		C138,20,138,17.6,136.5,17.4z"/>
	<path class="st2" d="M56.5,31.5c-4.1-0.7-8.3-0.1-12.4,0.1c-1.5,0.1-1.5,2.3,0,2.3c4.1,0.2,8.3,0.9,12.4,0.1
		C57.8,33.9,57.8,31.7,56.5,31.5z"/>
	<path class="st2" d="M222.8,5.8C211,5.2,199.3,5.7,187.5,6c-1.8,0.1-1.8,2.8,0,2.9c11.8,0.4,23.5,0.9,35.3,0.3
		C225,9,225,5.9,222.8,5.8z"/>
	<path class="st2" d="M293.8,8.8c-4.2-1-9.4,0-13.7,0.2c-1.4,0.1-1.4,2,0,2.1c4.3,0.2,9.4,1.3,13.7,0.2
		C295.1,11.1,295.1,9.2,293.8,8.8z"/>
	<path class="st2" d="M437.3,16.4c-8-1.1-16.4,0-24.5,0.3c-1.8,0.1-1.8,2.7,0,2.8c8,0.3,16.5,1.4,24.5,0.3
		C439,19.6,439,16.7,437.3,16.4z"/>
	<circle class="st3" cx="237.9" cy="222.7" r="186"/>
	<circle class="st2" cx="240.3" cy="224.7" r="113.3"/>
</g>
<rect x="-22.5" y="245.8" class="st4" width="516" height="73.5"/>
<g>
	<g>
		<g>
			<g>
				<path class="st5" d="M37.4,240.1c-2.9-0.1-28.5-0.8-30.6-6.1c-0.3-0.7-0.3-1.8,1-3.2c7.1-7.1,79.7-93.1,80.4-94l1.1,0.9
					c-3,3.5-73.4,87-80.5,94.1c-0.9,0.9-0.7,1.4-0.7,1.6c1.3,3.3,18.7,5,29.3,5.2L37.4,240.1z"/>
			</g>
			<g>
				<path class="st5" d="M191.3,240.4c-8.6,0-14.4-0.1-15.5-0.4c-1.9-0.5-4.1-4-5.6-6.8c-6.3-12-12.9-36.7-5.6-55.9
					c9.6-25.1,33.7-38.8,33.9-38.9l0.7,1.3c-0.2,0.1-23.9,13.6-33.3,38.2c-7.1,18.7-0.6,43,5.5,54.7c2.2,4.1,3.9,5.8,4.7,6
					c4.1,1,82.9-0.4,124-1.3l0,1.4C296.3,238.8,223.9,240.4,191.3,240.4z"/>
			</g>
			<g>
				<path class="st5" d="M433.1,242.6l-1-1c0.2-0.2,17.6-17.9,13.8-38.6c-3.8-20.8-37.3-64.9-37.6-65.3l1.2-0.9
					c1.4,1.8,34,44.8,37.9,65.9C451.2,224.1,433.3,242.4,433.1,242.6z"/>
			</g>
			<g>
				<path class="st5" d="M405.2,243.9c-0.1-0.1-11.9-6.4-10.4-17.2l1.4,0.2c-1.4,9.8,9.5,15.6,9.6,15.7L405.2,243.9z"/>
			</g>
			<g>
				<path class="st5" d="M284.8,241.6c-3.7-0.8-22-4.9-22-10.4c0-5.5,23.8-7.9,28.6-8.3l0.1,1.4c-11.3,1-27.3,3.8-27.3,6.9
					c0,3.3,12.8,7.2,20.9,8.9L284.8,241.6z"/>
			</g>
			<g>
				<path class="st5" d="M55.7,241.6l0-1.4c0.2,0,24.3-1.1,43.7-5.2c19.3-4.1,40.2-18.5,40.4-18.7l0.8,1.2
					c-0.2,0.1-21.3,14.7-41,18.9c-7.5,1.6-15.7,2.7-22.9,3.5l81-1l0,1.4L55.7,241.6z"/>
			</g>
		</g>
		<g>
			<polygon class="st5" points="13.3,240.9 26.9,244.4 74.8,242.9 60,239.3 			"/>
			<polygon class="st5" points="60.2,241.9 32.1,242.9 22.5,240.7 24.7,225.2 59,225.2 			"/>
			<polygon class="st6" points="-7.2,158.7 2.1,229.5 96.2,225.7 81.4,161.1 			"/>
			<polygon class="st6" points="32.1,242.9 33.4,234 59.4,230.4 60.2,241.9 			"/>
			<polygon class="st6" points="74.8,242.9 74.8,244.4 27.8,246 26.9,244.4 			"/>
			<polygon class="st5" points="13.3,240.9 12.1,242.9 27.9,246 27,244.4 			"/>
			<polygon class="st5" points="-7.2,158.7 -8,160.8 1.2,230.7 94.4,227 96.2,225.7 2.9,228.5 			"/>
			<polygon class="st2" points="4.1,224.3 91.8,223.2 79.9,163.2 -4.5,161.2 			"/>
		</g>
		<g>
			<polygon class="st5" points="455.7,240.9 442.1,244.4 394.2,242.9 409.1,239.3 			"/>
			<polygon class="st5" points="408.8,241.9 436.9,242.9 446.6,240.7 444.4,225.2 410,225.2 			"/>
			<polygon class="st6" points="476.2,158.7 467,229.5 372.9,225.7 387.7,161.1 			"/>
			<polygon class="st6" points="436.9,242.9 435.6,234 409.6,230.4 408.8,241.9 			"/>
			<polygon class="st6" points="394.2,242.9 394.2,244.4 441.2,246 442.1,244.4 			"/>
			<polygon class="st5" points="455.7,240.9 456.9,242.9 441.2,246 442.1,244.4 			"/>
			<polygon class="st5" points="476.2,158.7 477.1,160.8 467.9,230.7 374.6,227 372.9,225.7 466.1,228.5 			"/>
			<polygon class="st2" points="464.9,224.3 377.2,223.2 389.1,163.2 473.6,161.2 			"/>
		</g>
		<polygon class="st6" points="-8.9,19.8 -8.9,139.8 144.9,139.8 144.9,29.7 		"/>
		<polygon class="st6" points="481.3,21.8 481.3,137.9 327.6,137.9 327.6,30.2 		"/>
		<polygon class="st6" points="152.8,139.9 154.1,32.1 318.3,32.1 320.9,138.3 		"/>
		<polygon class="st5" points="481.3,137.9 483.5,137.9 484.5,23.1 481.3,21.8 		"/>
		<polygon class="st5" points="-8.9,19.8 -11.5,22.3 -11.5,139.8 -8.9,139.8 		"/>
		<polygon class="st2" points="-5.9,134.3 141.7,136.5 141.7,32.1 -5.9,22.3 		"/>
		<polygon class="st2" points="155.9,136.5 317.7,134.6 315.6,35.3 155.9,35.3 		"/>
		<polygon class="st2" points="331.3,132.6 478.8,132.6 478.8,24.4 329.8,32.1 		"/>
		<polygon class="st5" points="141.7,240.6 139.8,243.8 198.8,243.3 196.7,240.6 		"/>
		<polygon class="st6" points="141.7,240.6 151.6,238 184.5,238 196.7,240.6 		"/>
		<polygon class="st5" points="155.1,222.9 155.1,239.6 183.6,239.6 181.9,223.7 		"/>
		<polygon class="st5" points="329.2,240.6 331.1,243.8 272.1,243.3 274.2,240.6 		"/>
		<polygon class="st6" points="329.2,240.6 319.3,238 286.4,238 274.2,240.6 		"/>
		<polygon class="st5" points="315.8,222.9 315.8,239.6 287.3,239.6 289,223.7 		"/>
		<polygon class="st6" points="288.4,229.5 314.4,233.2 314.4,239.3 287.3,239.6 		"/>
		<polygon class="st6" points="157.3,232 182.6,230.4 183.6,239.6 155.1,239.6 		"/>
		<polygon class="st6" points="114.8,224.3 114.8,161.2 225.9,161.2 230.3,224.3 		"/>
		<polygon class="st2" points="227.6,221 116.4,221 116.4,162.7 224.3,162.7 		"/>
		<polygon class="st5" points="230.3,224.3 227.6,226 116.4,226 114.8,224.3 		"/>
		<polygon class="st6" points="245.2,222.9 247.4,161.2 354.3,161.2 355.2,224.3 		"/>
		<polygon class="st2" points="248.6,219.9 352,221 352,163.6 248.6,163.6 		"/>
		<polygon class="st5" points="245.2,222.9 246.6,224.4 353.8,226 355.2,224.3 		"/>
		<rect x="-5.9" y="136" class="st7" width="6.8" height="2.5"/>
		<rect x="471" y="133.5" class="st7" width="6.8" height="2.5"/>
		<rect x="2.8" y="136" class="st8" width="4.1" height="2.5"/>
		
			<rect x="5.7" y="225.3" transform="matrix(0.9979 -6.472641e-02 6.472641e-02 0.9979 -14.6181 0.9256)" class="st8" width="2.6" height="1.6"/>
		
			<rect x="458.3" y="225.2" transform="matrix(0.9979 -6.472641e-02 6.472641e-02 0.9979 -13.6635 30.2229)" class="st7" width="2.6" height="1.6"/>
		<polygon class="st9" points="402.3,244.7 405.5,243.3 428,244 427.7,245.6 		"/>
		<polygon class="st9" points="285,243.4 286.3,240.6 297.9,240.6 296.9,243.4 		"/>
		<polygon class="st9" points="299.2,243.5 300.2,240.6 301.6,240.6 300.9,243.4 		"/>
		<polygon class="st9" points="147.6,243.7 149.4,240.6 167.1,240.6 167.9,243.7 		"/>
		<polygon class="st9" points="39.4,245.7 38.7,244.1 52,243.6 52.6,245.2 		"/>
		<polygon class="st9" points="3.4,159 7,161.2 42.9,161.9 41.5,160 		"/>
		<polygon class="st9" points="42.9,160 44.5,161.9 48,161.9 45.8,160.1 		"/>
		<polygon class="st9" points="142.6,161.2 142.6,161.9 187.9,162.3 187.9,161.2 		"/>
		<polygon class="st9" points="287.7,162.9 318.2,162.7 319.3,161.2 289,161.2 		"/>
		<polygon class="st9" points="441.4,161.2 472.9,160.1 474.4,158.8 442.7,159.6 		"/>
		<polygon class="st9" points="329.8,136.5 331.2,133.5 372.2,133.5 369.3,136.5 		"/>
		<polygon class="st9" points="87.6,139 88.8,137.2 135.9,137.2 133.7,139 		"/>
		<polygon class="st9" points="86,139 86.8,137.2 81.4,137.2 80.4,139 		"/>
		<polygon class="st10" points="303.5,137.6 303.9,135.3 316.1,135.2 316.2,137.5 		"/>
		<polygon class="st11" points="41.1,165.9 7,220.3 10.3,220.5 67.9,166.3 		"/>
		<polygon class="st11" points="70.2,166.3 79.7,166.4 18.1,218.2 14.4,217.8 		"/>
		<polygon class="st11" points="170.1,165 131.9,219.4 135.6,219.6 199.9,165.4 		"/>
		<polygon class="st11" points="202.5,165.4 213.1,165.5 144.4,217.3 140.2,216.9 		"/>
		<polygon class="st11" points="297.9,164.6 259.7,219 263.4,219.2 327.7,165 		"/>
		<polygon class="st11" points="330.3,165 340.9,165.1 272.2,216.9 268,216.5 		"/>
		<polygon class="st11" points="421.7,164.6 379.8,221.2 383.8,221.4 454.6,165 		"/>
		<polygon class="st11" points="457.5,165 469.2,165.1 393.5,219 388.9,218.6 		"/>
		<polygon class="st11" points="61.8,29.5 0.9,126.5 6.5,126.8 110.4,33.6 		"/>
		<polygon class="st11" points="115.8,34.9 140,35 19.9,122.9 13.5,122.2 		"/>
		<polygon class="st11" points="222.8,39.9 164.8,132.3 170.4,132.6 272.9,40.7 		"/>
		<polygon class="st11" points="279.7,40.7 304,40.8 183.8,128.7 177.4,128 		"/>
		<polygon class="st11" points="393.3,33.4 340.1,128.5 345.7,128.6 443.4,31.6 		"/>
		<polygon class="st11" points="450.2,31.1 474.4,30 358.8,123.8 352.4,123.5 		"/>
	</g>
</g>
<g>
	<g>
		<rect x="252.4" y="280.2" class="st12" width="31.5" height="30.9"/>
		<path class="st13" d="M281.1,302.5c-8.6-7.5-21.5-5.5-28.7-15.2v-7.1h31.5v25.7C283.1,304.6,282.2,303.5,281.1,302.5z"/>
	</g>
	<g>
		<g>
			<path class="st12" d="M294.1,212.5c2.7,8,9,13.1,14,11.4c5-1.7,6.9-9.5,4.3-17.6c-2.7-8-9-13.1-14-11.4
				C293.3,196.7,291.5,204.5,294.1,212.5z"/>
		</g>
		<g>
			<path class="st12" d="M210.1,253.8c4.7,7,4.9,15.1,0.5,18.1c-4.4,3-11.8-0.3-16.5-7.4c-4.7-7-4.9-15.1-0.5-18.1
				C198,243.4,205.4,246.8,210.1,253.8z"/>
		</g>
		<path class="st14" d="M210.7,147.8c0,0-0.1,0.1-0.2,0.1c-0.1,0-0.1,0.1-0.2,0.1c-11,6.2-56.9,37.5-7.8,107.7l18.5,30.4
			c0,0,6.1,9.4,18.3,11.8c0,0,18.2,3.5,38.6,2.1c5.1-0.3,8.2-6.6,11.2-10.3c10-12,19.6-29.4,19.6-29.4c5.6-11.1,2.5-18.4,2.5-18.4
			l-10.6-34.3C275.2,125.8,222.3,142.9,210.7,147.8z"/>
		<g>
			<path class="st14" d="M202.6,255.7l1.5-0.7l12.5,16.6c9.2,13.6,19.7,4.1,19.7,4.1s6.7-6.7,16.4-9.6c0,0,11.9-11.6,25.1-8.9
				c0,0,18.3,0.3,21.7-14l-8-24.5l4.2-2c2.9,6.6,10.2,7.9,10.2,7.9l5.5,17.2c0,0,3.1,7.4-2.5,18.4c0,0-9.7,21.7-19.7,33.7
				c-3.1,3.7-8.4,7.4-13.5,6.6c-16.9-2.8-36.3-2.7-36.3-2.7c-12.2-2.4-18.3-11.8-18.3-11.8l-18.7-30.3"/>
		</g>
		<path class="st14" d="M282.2,136.7c18.6,23.8,19.8,57.7,19.8,57.7c2.5,22.5-6.1,22.7-6.1,22.7l-4.3,1.9
			c-9.4-27.4-23.9-34.7-24-35.3c-1-16.8-17.5-23.2-17.5-23.2c-23.5,24.7-68,30.7-68,30.7c-16.3-5-16.1-26.6-16.1-26.6
			s-9.5-27.5,32.4-48.9c0,0,4,23.7,34.7,2.9C233.1,118.7,260.8,109.3,282.2,136.7z"/>
		<path class="st14" d="M202.6,256c0,0-27-28.7-39.4-59c0,0-5.6-23.8,6.3-36.4c0,0,9.7,22.4,16,25.8c0,0-10.1,13,1.5,26.5
			c0,0,1.8,22.3,17.1,42L202.6,256z"/>
		<g>
			<path class="st14" d="M182.1,191.2c0,0,1.2-0.2,3.3-0.6c2.1-0.4,5-1.1,8.5-2c1.8-0.4,3.6-1,5.6-1.6c2-0.5,4-1.3,6.2-2
				c2.1-0.8,4.3-1.5,6.5-2.4c2.2-0.9,4.4-1.8,6.6-2.8l3.3-1.5c1.1-0.5,2.1-1.1,3.2-1.6c2.1-1,4.1-2.2,6.1-3.4c2-1.1,3.8-2.3,5.5-3.5
				c1.7-1.1,3.4-2.2,4.8-3.4c1.4-1.1,2.8-2.1,3.9-3c1.1-1,2.1-1.8,2.9-2.5c1.6-1.4,2.5-2.2,2.5-2.2s-0.8,0.9-2.3,2.5
				c-0.7,0.8-1.6,1.7-2.6,2.8c-1.1,1-2.3,2.1-3.7,3.3c-1.3,1.2-2.9,2.4-4.6,3.7c-0.8,0.6-1.7,1.3-2.6,1.9c-0.9,0.7-1.9,1.2-2.8,1.8
				c-1.9,1.2-4,2.5-6.1,3.6c-1.1,0.6-2.1,1.1-3.2,1.7l-3.3,1.6c-2.2,1-4.5,1.9-6.7,2.7c-2.2,0.9-4.5,1.6-6.7,2.3
				c-2.2,0.6-4.3,1.3-6.4,1.7c-2,0.5-4,0.9-5.8,1.2c-3.6,0.7-6.6,1-8.7,1.2C183.3,191.2,182.1,191.2,182.1,191.2z"/>
		</g>
		<path class="st14" d="M295.6,216.7"/>
	</g>
	<g transform="matrix(-1.07921,-0.207415,-0.185199,0.96362,259.771,329.198)">
		<path class="st15" d="M88.7,102c-9-29.4-20.8-64.1-36.1-103.3C47-15.8,19.4-31.2,10.6-31C0.1-30.8-3.8,1.2,4.2,21.9
			c0,0,28.3,73.4,41.2,106.5C58.3,161.4,110.7,173.6,88.7,102z"/>
	</g>
	<path class="st15" d="M339.7,347.2c-7-38.3-22.3-44.8-22.3-44.8c-86.9-21.5-117.2,24.1-121.4,28.7c-12.7,14.1,0.8,89.2-2.6,126.3
		c0,5.1,0,10.3,0,15.4c0.1,53.6,137.2,45.9,134.9-1.2C326,424.6,343.7,369.5,339.7,347.2z"/>
</g>
<path class="st16" d="M256.2,145.5c0,0-9.1,44.3,10.6,36.1C286.6,173.3,256.2,145.5,256.2,145.5z"/>
</svg>
