<?xml version="1.0" encoding="utf-8"?>
<!-- Generator: Adobe Illustrator 23.1.1, SVG Export Plug-In . SVG Version: 6.00 Build 0)  -->
<svg version="1.1" id="Layer_1" xmlns:serif="http://www.serif.com/"
	 xmlns="http://www.w3.org/2000/svg" xmlns:xlink="http://www.w3.org/1999/xlink" x="0px" y="0px" width="490px" height="425px"
	 viewBox="0 0 490 425" style="enable-background:new 0 0 490 425;" xml:space="preserve">
<style type="text/css">
	.st0{fill:#231F20;}
	.st1{opacity:0.3;fill:#79CFE1;}
	.st2{fill:#2BA5DF;}
	.st3{opacity:0.1;}
	.st4{opacity:0.5;fill:#231F20;}
	.st5{fill:#FFFFFF;}
	.st6{fill:#1D0422;}
	.st7{fill:#290C34;}
	.st8{fill:url(#SVGID_1_);}
	.st9{fill:url(#SVGID_2_);}
	.st10{fill:url(#SVGID_3_);}
	.st11{fill:url(#SVGID_4_);}
	.st12{fill:url(#SVGID_5_);}
	.st13{fill:url(#SVGID_6_);}
	.st14{fill:url(#SVGID_7_);}
	.st15{fill:#FF1717;}
	.st16{fill:#FFC217;}
	.st17{fill:#584278;}
	.st18{fill:#73FFE5;}
	.st19{fill:#1C13BF;}
	.st20{opacity:0.5;fill:#1C13BF;}
	.st21{fill:#0000FF;}
	.st22{fill:#61FFE5;}
	.st23{fill:#A9FFE5;}
	.st24{opacity:0.1;fill:#FFFFFF;}
	.st25{fill:#15446E;}
	.st26{fill:#0B385E;}
	.st27{fill:#0C497D;}
</style>
<g>
	<g>
		<path class="st0" d="M265.7,69.3c-2-0.9-4.8-1.2-7.4-1.1v0c-2.6,0-5.4,0.2-7.4,1.1c-1,0.5-2.7,1.7-2,4.5c0.5,2.3,1.4,7.1,4.7,8.7
			c1.2,0.6,2.6,0.7,3.9,0.8c0.3,0,0.6,0,0.9,0.1v0c0.3,0,0.6,0,0.9-0.1c1.3-0.1,2.7-0.2,3.9-0.8c3.3-1.6,4.1-6.3,4.7-8.7
			C268.3,71,266.7,69.8,265.7,69.3z M264.2,79.9c-0.6,0.9-1.6,1.4-2.5,1.8c-1.1,0.4-2.3,0.6-3.4,0.6v0c-1.2,0-2.4-0.2-3.4-0.6
			c-0.9-0.4-1.9-0.9-2.5-1.8c0,0-2.5-3.6-2.4-7.2c-0.1-1.1,1-1.9,2-2.4c1.7-0.8,4.1-1,6.3-1v0c2.2,0,4.6,0.2,6.3,1
			c1,0.4,2.1,1.3,2,2.4C266.7,76.3,264.2,79.9,264.2,79.9z"/>
		<path class="st0" d="M242.6,69.3c-2-0.9-4.8-1.2-7.4-1.1v0c-2.6,0-5.4,0.2-7.4,1.1c-1,0.5-2.7,1.7-2,4.5c0.5,2.3,1.4,7.1,4.7,8.7
			c1.2,0.6,2.6,0.7,3.9,0.8c0.3,0,0.6,0,0.9,0.1v0c0.3,0,0.6,0,0.9-0.1c1.3-0.1,2.7-0.2,3.9-0.8c3.3-1.6,4.1-6.3,4.7-8.7
			C245.2,71,243.6,69.8,242.6,69.3z M241.1,79.9c-0.6,0.9-1.6,1.4-2.5,1.8c-1.1,0.4-2.3,0.6-3.4,0.6v0c-1.2,0-2.4-0.2-3.4-0.6
			c-0.9-0.4-1.9-0.9-2.5-1.8c0,0-2.5-3.6-2.4-7.2c-0.1-1.1,1-1.9,2-2.4c1.7-0.8,4.1-1,6.3-1v0c2.2,0,4.6,0.2,6.3,1
			c1,0.4,2.1,1.3,2,2.4C243.5,76.3,241.1,79.9,241.1,79.9z"/>
		<polygon class="st0" points="267.4,73.9 269.9,72.7 269.9,69.4 263.9,68.7 266.9,71.3 		"/>
		<polygon class="st0" points="225.8,74 223.3,72.8 223.3,69.4 229.3,68.8 226.3,71.4 		"/>
		<path class="st0" d="M244.5,74.4c0,0,1.9-2.5,4.5,0l0.4-3.9c0,0-2-0.8-5.8,0L244.5,74.4z"/>
	</g>
	<g>
		<path class="st1" d="M226.9,72.6c-0.1-1.1,1-1.9,2-2.4c1.7-0.8,4.1-1,6.3-1v0c2.2,0,4.6,0.2,6.3,1c1,0.4,2.1,1.3,2,2.4
			c0.1,3.6-2.4,7.2-2.4,7.2c-0.6,0.9-1.6,1.4-2.5,1.8c-1.1,0.4-2.3,0.6-3.4,0.6v0c-1.2,0-2.4-0.2-3.4-0.6c-0.9-0.4-1.9-0.9-2.5-1.8
			C229.2,79.9,226.7,76.3,226.9,72.6z"/>
		<path class="st1" d="M235.4,77.7c-3.2-1.3-5.5-4.1-5.8-7.6c0,0,0-0.1,0-0.1c-0.2,0.1-0.5,0.2-0.7,0.3c-1,0.4-2.1,1.3-2,2.4
			c-0.1,3.6,2.4,7.2,2.4,7.2c0.6,0.9,1.6,1.4,2.5,1.8c1.1,0.4,2.3,0.6,3.4,0.6v0c1.2,0,2.4-0.2,3.4-0.6c0.9-0.4,1.9-0.9,2.5-1.8
			c0,0,0.8-1.1,1.4-2.8C240.3,78.3,237.7,78.6,235.4,77.7z"/>
	</g>
	<g>
		<path class="st1" d="M264.2,79.9c-0.6,0.9-1.6,1.4-2.5,1.8c-1.1,0.4-2.3,0.6-3.4,0.6v0c-1.2,0-2.4-0.2-3.4-0.6
			c-0.9-0.4-1.9-0.9-2.5-1.8c0,0-2.5-3.6-2.4-7.2c-0.1-1.1,1-1.9,2-2.4c1.7-0.8,4.1-1,6.3-1v0c2.2,0,4.6,0.2,6.3,1
			c1,0.4,2.1,1.3,2,2.4C266.7,76.3,264.2,79.9,264.2,79.9z"/>
		<path class="st1" d="M258,77.7c3.2-1.3,5.5-4.1,5.8-7.6c0,0,0-0.1,0-0.1c0.2,0.1,0.5,0.2,0.7,0.3c1,0.4,2.1,1.3,2,2.4
			c0.1,3.6-2.4,7.2-2.4,7.2c-0.6,0.9-1.6,1.4-2.5,1.8c-1.1,0.4-2.3,0.6-3.4,0.6v0c-1.2,0-2.4-0.2-3.4-0.6c-0.9-0.4-1.9-0.9-2.5-1.8
			c0,0-0.8-1.1-1.4-2.8C253.1,78.3,255.7,78.6,258,77.7z"/>
	</g>
</g>
<rect x="-3.5" y="-4.6" class="st2" width="498.5" height="428.6"/>
<g class="st3">
	<path class="st0" d="M387.5,42.8c-6.6-1.2-13.3-0.4-20-0.1C360.4,43,353.1,43,346,44c-1,0.1-1,1.8,0,2c6.5,1,13.1,0.9,19.6,1.3
		c7.3,0.3,14.7,1.2,21.9-0.1C389.7,46.8,389.7,43.2,387.5,42.8z"/>
	<path class="st0" d="M430.8,64.4c-3.4-1-6.9-0.4-10.4-0.2c-3.8,0.2-7.7,0.5-11.5,0.8c-1.8,0.1-1.8,2.7,0,2.9
		c3.8,0.3,7.7,0.6,11.5,0.8c3.5,0.2,7,0.8,10.4-0.2C432.7,67.7,432.7,65,430.8,64.4z"/>
	<path class="st0" d="M412.2,102.7c-4.7-0.4-9.3-0.1-14,0.1c-1.9,0.1-1.9,2.9,0,3c4.7,0.3,9.3,0.5,14,0.1
		C414.4,105.8,414.4,102.9,412.2,102.7z"/>
	<path class="st0" d="M468.8,119.6c-7-1.8-15.4-0.2-22.6,0.1c-2.6,0.1-2.6,4,0,4.1c7.2,0.3,15.6,1.8,22.6,0.1
		C470.9,123.3,470.9,120.1,468.8,119.6z"/>
	<path class="st0" d="M466.1,226.6c-3.3-0.7-6.5-0.3-9.8,0c-2.3,0.2-2.3,3.3,0,3.6c3.3,0.3,6.5,0.6,9.8,0
		C467.8,229.7,467.8,226.9,466.1,226.6z"/>
	<path class="st0" d="M440.7,279.4c-5.3-0.8-10.5-0.4-15.8-0.2c-2.3,0.1-2.3,3.4,0,3.5c5.3,0.2,10.5,0.6,15.8-0.2
		C442.3,282.4,442.3,279.6,440.7,279.4z"/>
	<path class="st0" d="M474.2,326c-5.1-1.1-10.5-0.4-15.7-0.2c-5.6,0.2-11.3,0.4-16.9,0.6c-2.5,0.1-2.5,3.7,0,3.8
		c5.6,0.2,11.3,0.4,16.9,0.6c5.2,0.2,10.6,0.8,15.7-0.2C476.6,330.2,476.6,326.5,474.2,326z"/>
	<path class="st0" d="M457.4,389.4c-6.2-1.2-12.9-0.3-19.1-0.2c-2.4,0-2.4,3.7,0,3.7c6.2,0.1,13,0.9,19.1-0.2
		C459,392.3,459,389.7,457.4,389.4z"/>
	<path class="st0" d="M120.6,416.5c-5.8-0.8-11.8-0.3-17.7-0.2c-1.7,0-1.7,2.7,0,2.7c5.9,0.2,11.8,0.6,17.7-0.2
		C121.8,418.7,121.8,416.7,120.6,416.5z"/>
	<path class="st0" d="M140.9,405c-6.9-0.4-13.8,0-20.7,0.2c-1.5,0.1-1.5,2.3,0,2.3c6.9,0.2,13.8,0.6,20.7,0.2
		C142.7,407.6,142.7,405.1,140.9,405z"/>
	<path class="st0" d="M418.7,359.4c-6.9-1.3-15.1-0.3-22,0.9c-0.7,0.1-0.7,1.4,0,1.5c6.9,1.1,15.1,2.2,22,0.9
		C420.3,362.4,420.3,359.7,418.7,359.4z"/>
	<path class="st0" d="M330.7,421.9c-8.3-1.4-16.8-0.3-25.2,0.1c-2.2,0.1-2.2,3.4,0,3.5c8.4,0.4,16.9,1.5,25.2,0.1
		C332.6,425.2,332.6,422.2,330.7,421.9z"/>
	<path class="st0" d="M338.6,409.8c-2.8-0.9-6.1-0.4-9-0.3c-1.9,0.1-1.9,2.8,0,2.9c2.9,0.1,6.2,0.6,9-0.3
		C339.7,411.8,339.7,410.2,338.6,409.8z"/>
	<path class="st0" d="M198.9,433.3c-5.7-0.4-11.6-1.2-17.3-0.4c-2,0.3-2,2.8,0,3c5.7,0.7,11.6,0,17.3-0.4
		C200.3,435.3,200.3,433.4,198.9,433.3z"/>
	<path class="st0" d="M55.6,349.7c-6.5-0.2-13.1-0.4-19.6-0.6c-6-0.1-12.3-0.6-18.2,0.6c-1.9,0.4-1.9,3.5,0,3.9
		c5.9,1.2,12.2,0.7,18.2,0.6c6.6-0.1,13.1-0.3,19.6-0.6C58.1,353.6,58.1,349.8,55.6,349.7z"/>
	<path class="st0" d="M55.6,325.3c-4.7-0.2-9.3-0.6-14,0c-2.2,0.3-2.2,3.1,0,3.4c4.7,0.6,9.3,0.2,14,0
		C57.8,328.6,57.8,325.4,55.6,325.3z"/>
	<path class="st0" d="M16,432c-2.3-0.4-4-0.9-6.3-0.5c-2,0.3-4.2,0.4-6.1,1.2c-0.8,0.3-0.8,1.7,0,2c1.9,0.8,4,0.9,6.1,1.2
		c2.3,0.4,4.1-0.1,6.3-0.5C17.7,435.1,17.7,432.3,16,432z"/>
	<path class="st0" d="M20.9,247.7c-6.5-0.6-14.2-1.8-20.6-0.1c-2,0.6-2,3.5,0,4.1c6.4,1.7,14.1,0.6,20.6-0.1
		C23.4,251.4,23.4,248,20.9,247.7z"/>
	<path class="st0" d="M36.7,225.5c-4-1.2-8.9-0.3-13.1-0.1c-2.1,0.1-2.1,3.2,0,3.2c4.1,0.2,9.1,1.1,13.1-0.1
		C38.1,228.1,38.1,226,36.7,225.5z"/>
	<path class="st0" d="M48.9,135.2c-7.2-0.6-14.5-0.5-21.7-0.7C20,134.4,12.2,133.5,5,135c-2,0.4-2,3.6,0,4
		c6.6,1.4,13.6,0.6,20.3,0.5c7.9-0.1,15.8-0.1,23.6-0.7C51.2,138.6,51.2,135.4,48.9,135.2z"/>
	<path class="st0" d="M72.9,96.8c-6.5-0.5-12.8-0.4-19.3,0c-1.9,0.1-1.9,2.9,0,3c6.5,0.4,12.9,0.6,19.3,0
		C74.9,99.7,74.9,97,72.9,96.8z"/>
	<path class="st0" d="M48.9,56.1C41.1,56,33.4,56,25.6,55.9c-7.2-0.1-14.8-0.6-21.9,0.7c-1.8,0.3-1.8,3.2,0,3.5
		c7.1,1.3,14.7,0.8,21.9,0.7c7.8-0.1,15.5-0.2,23.3-0.3C51.8,60.5,51.8,56.2,48.9,56.1z"/>
	<path class="st0" d="M106.2,65.7c-4.2-0.4-8.4-0.2-12.7-0.1c-1.9,0-1.9,2.8,0,2.9c4.2,0.1,8.4,0.2,12.7-0.1
		C107.9,68.2,107.9,65.9,106.2,65.7z"/>
	<path class="st0" d="M131.3,21.6c-10.2-1.6-21.4,0-31.7,0.2c-1.6,0-1.6,2.4,0,2.5c10.3,0.3,21.5,1.8,31.7,0.2
		C132.8,24.2,132.8,21.8,131.3,21.6z"/>
	<path class="st0" d="M51.3,35.7c-4.1-0.7-8.3-0.1-12.4,0.1c-1.5,0.1-1.5,2.3,0,2.3c4.1,0.2,8.3,0.9,12.4,0.1
		C52.6,38.1,52.6,35.9,51.3,35.7z"/>
	<path class="st0" d="M217.6,10c-11.8-0.6-23.5-0.1-35.3,0.3c-1.8,0.1-1.8,2.8,0,2.9c11.8,0.4,23.5,0.9,35.3,0.3
		C219.7,13.2,219.7,10.1,217.6,10z"/>
	<path class="st0" d="M288.6,13c-4.2-1-9.4,0-13.7,0.2c-1.4,0.1-1.4,2,0,2.1c4.3,0.2,9.4,1.3,13.7,0.2
		C289.9,15.3,289.9,13.4,288.6,13z"/>
	<path class="st0" d="M432,20.7c-8-1.1-16.4,0-24.5,0.3c-1.8,0.1-1.8,2.7,0,2.8c8,0.3,16.5,1.4,24.5,0.3
		C433.7,23.8,433.7,20.9,432,20.7z"/>
	<circle class="st4" cx="232.7" cy="226.9" r="186"/>
	<circle class="st0" cx="235.1" cy="228.9" r="113.3"/>
</g>
<g>
	<g>
		<g>
			<g>
				<rect x="388.7" y="198.8" class="st5" width="1.1" height="2.2"/>
			</g>
			<g>
				<path class="st5" d="M420.3,201h-2v-2.2h2V201z M414.2,201h-2v-2.2h2V201z M408.1,201h-2v-2.2h2V201z M402,201h-2v-2.2h2V201z
					 M395.9,201h-2v-2.2h2V201z"/>
			</g>
			<g>
				<rect x="424.4" y="198.8" class="st5" width="2.2" height="2.2"/>
			</g>
			<g>
				<path class="st5" d="M426.6,194.4h-2.2v-2.2h2.2V194.4z M426.6,187.7h-2.2v-2.2h2.2V187.7z M426.6,181h-2.2v-2.2h2.2V181z
					 M426.6,174.4h-2.2v-2.2h2.2V174.4z M426.6,167.7h-2.2v-2.2h2.2V167.7z M426.6,161.1h-2.2v-2.2h2.2V161.1z M426.6,154.4h-2.2
					v-2.2h2.2V154.4z M426.6,147.8h-2.2v-2.2h2.2V147.8z M426.6,141.1h-2.2v-2.2h2.2V141.1z M426.6,134.4h-2.2v-2.2h2.2V134.4z
					 M426.6,127.8h-2.2v-2.2h2.2V127.8z M426.6,121.1h-2.2v-2.2h2.2V121.1z M426.6,114.5h-2.2v-2.2h2.2V114.5z M426.6,107.8h-2.2
					v-2.2h2.2V107.8z M426.6,101.2h-2.2v-2.2h2.2V101.2z M426.6,94.5h-2.2v-2.2h2.2V94.5z"/>
			</g>
			<g>
				<rect x="424.4" y="85.6" class="st5" width="2.2" height="2.2"/>
			</g>
			<g>
				<rect x="431.5" y="85.6" class="st5" width="2.4" height="2.2"/>
			</g>
			<g>
				<rect x="438.7" y="85.6" class="st5" width="2.2" height="2.2"/>
			</g>
			<g>
				<path class="st5" d="M440.9,155.7h-2.2v-2.3h2.2V155.7z M440.9,148.9h-2.2v-2.3h2.2V148.9z M440.9,142.1h-2.2v-2.3h2.2V142.1z
					 M440.9,135.4h-2.2v-2.3h2.2V135.4z M440.9,128.6h-2.2v-2.3h2.2V128.6z M440.9,121.8h-2.2v-2.3h2.2V121.8z M440.9,115h-2.2v-2.3
					h2.2V115z M440.9,108.2h-2.2v-2.3h2.2V108.2z M440.9,101.4h-2.2v-2.3h2.2V101.4z M440.9,94.6h-2.2v-2.3h2.2V94.6z"/>
			</g>
			<g>
				<rect x="438.7" y="160.2" class="st5" width="2.2" height="2.2"/>
			</g>
			<g>
				<path class="st5" d="M476.4,162.4H474v-2.2h2.4V162.4z M469.3,162.4h-2.4v-2.2h2.4V162.4z M462.2,162.4h-2.4v-2.2h2.4V162.4z
					 M455.1,162.4h-2.4v-2.2h2.4V162.4z M448,162.4h-2.4v-2.2h2.4V162.4z"/>
			</g>
			<g>
				<rect x="481.1" y="160.2" class="st5" width="2.2" height="2.2"/>
			</g>
			<g>
				<path class="st5" d="M483.3,156.5h-2.2v-1.9h2.2V156.5z M483.3,151h-2.2v-1.9h2.2V151z"/>
			</g>
			<g>
				<rect x="481.1" y="144.3" class="st5" width="2.2" height="1.1"/>
			</g>
		</g>
		<g>
			<g>
				<rect x="249" y="69.5" class="st5" width="2.2" height="1.1"/>
			</g>
			<g>
				<path class="st5" d="M251.2,109.5H249v-2.2h2.2V109.5z M251.2,103H249v-2.2h2.2V103z M251.2,96.5H249v-2.2h2.2V96.5z M251.2,90
					H249v-2.2h2.2V90z M251.2,83.5H249v-2.2h2.2V83.5z M251.2,77H249v-2.2h2.2V77z"/>
			</g>
			<g>
				<rect x="249" y="113.8" class="st5" width="2.2" height="2.2"/>
			</g>
			<g>
				<path class="st5" d="M275.3,116h-2v-2.2h2V116z M269.3,116h-2v-2.2h2V116z M263.3,116h-2v-2.2h2V116z M257.2,116h-2v-2.2h2V116z
					"/>
			</g>
			<g>
				<rect x="279.4" y="113.8" class="st5" width="2.2" height="2.2"/>
			</g>
			<g>
				<path class="st5" d="M281.6,194.5h-2.2v-2.2h2.2V194.5z M281.6,188h-2.2v-2.2h2.2V188z M281.6,181.4h-2.2v-2.2h2.2V181.4z
					 M281.6,174.9h-2.2v-2.2h2.2V174.9z M281.6,168.3h-2.2v-2.2h2.2V168.3z M281.6,161.8h-2.2v-2.2h2.2V161.8z M281.6,155.3h-2.2
					v-2.2h2.2V155.3z M281.6,148.7h-2.2v-2.2h2.2V148.7z M281.6,142.2h-2.2V140h2.2V142.2z M281.6,135.6h-2.2v-2.2h2.2V135.6z
					 M281.6,129.1h-2.2v-2.2h2.2V129.1z M281.6,122.5h-2.2v-2.2h2.2V122.5z"/>
			</g>
			<g>
				<rect x="279.4" y="198.9" class="st5" width="2.2" height="2.2"/>
			</g>
			<g>
				<path class="st5" d="M351.5,201.1h-2.1v-2.2h2.1V201.1z M345.1,201.1H343v-2.2h2.1V201.1z M338.8,201.1h-2.1v-2.2h2.1V201.1z
					 M332.4,201.1h-2.1v-2.2h2.1V201.1z M326.1,201.1H324v-2.2h2.1V201.1z M319.7,201.1h-2.1v-2.2h2.1V201.1z M313.4,201.1h-2.1
					v-2.2h2.1V201.1z M307,201.1h-2.1v-2.2h2.1V201.1z M300.6,201.1h-2.1v-2.2h2.1V201.1z M294.3,201.1h-2.1v-2.2h2.1V201.1z
					 M287.9,201.1h-2.1v-2.2h2.1V201.1z"/>
			</g>
			<g>
				<rect x="355.7" y="198.9" class="st5" width="1.1" height="2.2"/>
			</g>
		</g>
		<g>
			<g>
				<rect x="149.3" y="188.5" class="st5" width="2.2" height="1.1"/>
			</g>
			<g>
				<path class="st5" d="M151.5,184.2h-2.2V182h2.2V184.2z M151.5,177.7h-2.2v-2.2h2.2V177.7z M151.5,171.2h-2.2v-2.2h2.2V171.2z
					 M151.5,164.8h-2.2v-2.2h2.2V164.8z M151.5,158.3h-2.2v-2.2h2.2V158.3z"/>
			</g>
			<g>
				<rect x="149.3" y="149.7" class="st5" width="2.2" height="2.2"/>
			</g>
			<g>
				<path class="st5" d="M171.7,151.9h-2.2v-2.2h2.2V151.9z M165,151.9h-2.2v-2.2h2.2V151.9z M158.3,151.9H156v-2.2h2.2V151.9z"/>
			</g>
			<g>
				<rect x="176.2" y="149.7" class="st5" width="2.2" height="2.2"/>
			</g>
			<g>
				<path class="st5" d="M178.4,145.6h-2.2v-2h2.2V145.6z M178.4,139.5h-2.2v-2h2.2V139.5z M178.4,133.5h-2.2v-2h2.2V133.5z"/>
			</g>
			<g>
				<rect x="176.2" y="125.2" class="st5" width="2.2" height="2.2"/>
			</g>
			<g>
				<path class="st5" d="M191.5,127.4h-2.2v-2.2h2.2V127.4z M185,127.4h-2.2v-2.2h2.2V127.4z"/>
			</g>
			<g>
				<rect x="195.8" y="125.2" class="st5" width="2.2" height="2.2"/>
			</g>
			<g>
				<path class="st5" d="M198,167.6h-2.2v-2.2h2.2V167.6z M198,160.9h-2.2v-2.2h2.2V160.9z M198,154.2h-2.2V152h2.2V154.2z
					 M198,147.5h-2.2v-2.2h2.2V147.5z M198,140.8h-2.2v-2.2h2.2V140.8z M198,134.1h-2.2v-2.2h2.2V134.1z"/>
			</g>
			<g>
				<rect x="195.8" y="172.1" class="st5" width="2.2" height="2.2"/>
			</g>
			<g>
				<path class="st5" d="M217.5,174.3h-2.2v-2.2h2.2V174.3z M211,174.3h-2.2v-2.2h2.2V174.3z M204.5,174.3h-2.2v-2.2h2.2V174.3z"/>
			</g>
			<g>
				<rect x="221.8" y="172.1" class="st5" width="2.2" height="2.2"/>
			</g>
			<g>
				<path class="st5" d="M224,167.6h-2.2v-2.3h2.2V167.6z M224,160.8h-2.2v-2.3h2.2V160.8z M224,154h-2.2v-2.3h2.2V154z M224,147.1
					h-2.2v-2.3h2.2V147.1z M224,140.3h-2.2v-2.3h2.2V140.3z"/>
			</g>
			<g>
				<rect x="221.8" y="131.3" class="st5" width="2.2" height="2.2"/>
			</g>
			<g>
				<path class="st5" d="M251.8,133.5h-2.3v-2.2h2.3V133.5z M244.8,133.5h-2.3v-2.2h2.3V133.5z M237.9,133.5h-2.3v-2.2h2.3V133.5z
					 M230.9,133.5h-2.3v-2.2h2.3V133.5z"/>
			</g>
			<g>
				<rect x="256.4" y="131.3" class="st5" width="1.1" height="2.2"/>
			</g>
		</g>
		<g>
			<g>
				<rect x="11.6" y="134.8" class="st5" width="1.1" height="2.2"/>
			</g>
			<g>
				<path class="st5" d="M39,137h-2.2v-2.2H39V137z M32.4,137h-2.2v-2.2h2.2V137z M25.8,137h-2.2v-2.2h2.2V137z M19.2,137H17v-2.2
					h2.2V137z"/>
			</g>
			<g>
				<rect x="43.4" y="134.8" class="st5" width="2.2" height="2.2"/>
			</g>
			<g>
				<path class="st5" d="M45.6,176.1h-2.2v-2.2h2.2V176.1z M45.6,169.6h-2.2v-2.2h2.2V169.6z M45.6,163h-2.2v-2.2h2.2V163z
					 M45.6,156.5h-2.2v-2.2h2.2V156.5z M45.6,150h-2.2v-2.2h2.2V150z M45.6,143.5h-2.2v-2.2h2.2V143.5z"/>
			</g>
			<g>
				<rect x="43.4" y="180.4" class="st5" width="2.2" height="2.2"/>
			</g>
			<g>
				<path class="st5" d="M59.8,182.6h-2.4v-2.2h2.4V182.6z M52.7,182.6h-2.4v-2.2h2.4V182.6z"/>
			</g>
			<g>
				<rect x="64.5" y="180.4" class="st5" width="2.2" height="2.2"/>
			</g>
			<g>
				<path class="st5" d="M66.7,176.4h-2.2v-2h2.2V176.4z M66.7,170.4h-2.2v-2h2.2V170.4z M66.7,164.4h-2.2v-2h2.2V164.4z
					 M66.7,158.4h-2.2v-2h2.2V158.4z"/>
			</g>
			<g>
				<rect x="64.5" y="150.2" class="st5" width="2.2" height="2.2"/>
			</g>
			<g>
				<path class="st5" d="M78.5,152.4h-2v-2.2h2V152.4z M72.6,152.4h-2v-2.2h2V152.4z"/>
			</g>
			<g>
				<rect x="82.4" y="150.2" class="st5" width="2.2" height="2.2"/>
			</g>
			<g>
				<path class="st5" d="M84.6,204.5h-2.2v-2.2h2.2V204.5z M84.6,198h-2.2v-2.2h2.2V198z M84.6,191.5h-2.2v-2.2h2.2V191.5z
					 M84.6,185h-2.2v-2.2h2.2V185z M84.6,178.4h-2.2v-2.2h2.2V178.4z M84.6,171.9h-2.2v-2.2h2.2V171.9z M84.6,165.4h-2.2v-2.2h2.2
					V165.4z M84.6,158.9h-2.2v-2.2h2.2V158.9z"/>
			</g>
			<g>
				<rect x="82.4" y="208.9" class="st5" width="2.2" height="2.2"/>
			</g>
			<g>
				<path class="st5" d="M135.5,211.1h-2.1v-2.2h2.1V211.1z M129.1,211.1H127v-2.2h2.1V211.1z M122.8,211.1h-2.1v-2.2h2.1V211.1z
					 M116.4,211.1h-2.1v-2.2h2.1V211.1z M110.1,211.1h-2.1v-2.2h2.1V211.1z M103.7,211.1h-2.1v-2.2h2.1V211.1z M97.3,211.1h-2.1
					v-2.2h2.1V211.1z M91,211.1h-2.1v-2.2H91V211.1z"/>
			</g>
			<g>
				<rect x="139.8" y="208.9" class="st5" width="1.1" height="2.2"/>
			</g>
		</g>
	</g>
	<g>
		<g>
			<g>
				<g>
					<path class="st6" d="M53.4,245.9c-2.7-0.1-26.8-0.8-28.8-5.8c-0.3-0.7-0.3-1.7,0.9-3c6.7-6.7,75-87.7,75.7-88.5l1,0.9
						c-2.8,3.3-69.1,81.9-75.8,88.6c-0.9,0.9-0.7,1.3-0.6,1.5c1.3,3.1,17.6,4.7,27.6,4.9L53.4,245.9z"/>
				</g>
				<g>
					<path class="st6" d="M198.3,246.2c-8.1,0-13.5-0.1-14.6-0.4c-1.8-0.5-3.9-3.7-5.3-6.4c-5.9-11.3-12.2-34.6-5.3-52.6
						c9-23.6,31.7-36.5,31.9-36.6l0.7,1.2c-0.2,0.1-22.5,12.8-31.3,35.9c-6.7,17.6-0.6,40.5,5.2,51.5c2,3.9,3.6,5.5,4.4,5.7
						c3.9,1,78.1-0.4,116.8-1.3l0,1.4C297.2,244.7,228.9,246.2,198.3,246.2z"/>
				</g>
				<g>
					<path class="st6" d="M426,248.2l-1-1c0.2-0.2,16.5-16.9,13-36.3c-3.6-19.6-35.1-61.1-35.4-61.5l1.1-0.8
						c1.3,1.7,32,42.2,35.7,62.1C443,230.8,426.1,248,426,248.2z"/>
				</g>
				<g>
					<path class="st6" d="M399.7,249.5c-0.1-0.1-11.2-6-9.8-16.2l1.4,0.2c-1.3,9.2,8.9,14.7,9,14.8L399.7,249.5z"/>
				</g>
				<g>
					<path class="st6" d="M286.3,247.3c-3.5-0.7-20.8-4.6-20.8-9.7c0-5.2,22.4-7.5,26.9-7.9l0.1,1.4c-10.7,0.9-25.7,3.6-25.7,6.5
						c0,3.1,12.1,6.8,19.7,8.4L286.3,247.3z"/>
				</g>
				<g>
					<path class="st6" d="M70.6,247.3l0-1.4c0.2,0,22.9-1,41.2-4.9c18.2-3.9,37.9-17.4,38.1-17.6l0.8,1.1
						c-0.2,0.1-20.1,13.8-38.6,17.8c-7.1,1.5-14.8,2.6-21.6,3.3l76.2-0.9l0,1.4L70.6,247.3z"/>
				</g>
			</g>
			<g>
				<polygon class="st6" points="30.7,246.7 43.5,250 88.6,248.5 74.6,245.2 				"/>
				<polygon class="st6" points="74.9,247.6 48.4,248.5 39.3,246.5 41.4,231.8 73.8,231.8 				"/>
				<polygon class="st7" points="11.4,169.3 20.1,235.9 108.7,232.3 94.8,171.5 				"/>
				<polygon class="st7" points="48.4,248.5 49.7,240.2 74.1,236.7 74.9,247.6 				"/>
				<polygon class="st7" points="88.6,248.5 88.6,250 44.4,251.5 43.5,250 				"/>
				<polygon class="st6" points="30.7,246.7 29.6,248.5 44.4,251.5 43.5,250 				"/>
				<polygon class="st6" points="11.4,169.3 10.6,171.2 19.3,237 107,233.5 108.7,232.3 20.9,235 				"/>
				<radialGradient id="SVGID_1_" cx="59.2478" cy="201.2955" r="38.3393" gradientUnits="userSpaceOnUse">
					<stop  offset="0" style="stop-color:#1FB8B4"/>
					<stop  offset="1" style="stop-color:#57F6C9"/>
				</radialGradient>
				<polygon class="st8" points="22,231 104.6,230 93.4,173.5 13.9,171.6 				"/>
			</g>
			<g>
				<polygon class="st6" points="447.3,246.7 434.4,250 389.3,248.5 403.3,245.2 				"/>
				<polygon class="st6" points="403.1,247.6 429.6,248.5 438.7,246.5 436.6,231.8 404.2,231.8 				"/>
				<polygon class="st7" points="466.6,169.3 457.9,235.9 369.2,232.3 383.2,171.5 				"/>
				<polygon class="st7" points="429.6,248.5 428.3,240.2 403.9,236.7 403.1,247.6 				"/>
				<polygon class="st7" points="389.3,248.5 389.3,250 433.6,251.5 434.4,250 				"/>
				<polygon class="st6" points="447.2,246.7 448.4,248.5 433.6,251.5 434.4,250 				"/>
				<polygon class="st6" points="466.6,169.3 467.4,171.2 458.7,237 370.9,233.5 369.2,232.3 457,235 				"/>
				
					<radialGradient id="SVGID_2_" cx="282.5352" cy="201.2955" r="38.3393" gradientTransform="matrix(-1 0 0 1 701.2487 0)" gradientUnits="userSpaceOnUse">
					<stop  offset="0" style="stop-color:#0077B4"/>
					<stop  offset="1" style="stop-color:#04A9C9"/>
				</radialGradient>
				<polygon class="st9" points="455.9,231 373.4,230 384.5,173.5 464.1,171.6 				"/>
			</g>
			<polygon class="st7" points="9.8,38.5 9.8,151.4 154.6,151.4 154.6,47.7 			"/>
			<polygon class="st7" points="471.4,40.3 471.4,149.7 326.6,149.7 326.6,48.3 			"/>
			<polygon class="st7" points="162.1,151.5 163.3,50.1 317.9,50.1 320.3,150 			"/>
			<polygon class="st6" points="471.4,149.7 473.4,149.7 474.4,41.6 471.4,40.3 			"/>
			<polygon class="st6" points="9.8,38.5 7.3,40.8 7.3,151.4 9.8,151.4 			"/>
			<radialGradient id="SVGID_3_" cx="82.0675" cy="94.5673" r="62.1271" gradientUnits="userSpaceOnUse">
				<stop  offset="0" style="stop-color:#1FB8B4"/>
				<stop  offset="1" style="stop-color:#57F6C9"/>
			</radialGradient>
			<polygon class="st10" points="12.6,146.3 151.5,148.4 151.5,50.1 12.6,40.8 			"/>
			<radialGradient id="SVGID_4_" cx="241.1447" cy="100.7075" r="63.5372" gradientUnits="userSpaceOnUse">
				<stop  offset="0" style="stop-color:#0077B4"/>
				<stop  offset="1" style="stop-color:#04A9C9"/>
			</radialGradient>
			<polygon class="st11" points="165,148.4 317.3,146.5 315.3,53.1 165,53.1 			"/>
			<radialGradient id="SVGID_5_" cx="398.8574" cy="93.7713" r="61.307" gradientUnits="userSpaceOnUse">
				<stop  offset="0" style="stop-color:#1FB8B4"/>
				<stop  offset="1" style="stop-color:#57F6C9"/>
			</radialGradient>
			<polygon class="st12" points="330.1,144.7 469,144.7 469,42.8 328.7,50.1 			"/>
			<polygon class="st6" points="151.6,246.4 149.8,249.4 205.4,248.9 203.4,246.4 			"/>
			<polygon class="st7" points="151.6,246.4 160.9,243.9 191.9,243.9 203.4,246.4 			"/>
			<polygon class="st6" points="164.2,229.7 164.2,245.4 191,245.4 189.4,230.5 			"/>
			<polygon class="st6" points="328.1,246.4 329.9,249.4 274.3,248.9 276.4,246.4 			"/>
			<polygon class="st7" points="328.1,246.4 318.9,243.9 287.8,243.9 276.4,246.4 			"/>
			<polygon class="st6" points="315.6,229.7 315.6,245.4 288.7,245.4 290.3,230.5 			"/>
			<polygon class="st7" points="289.7,235.9 314.2,239.4 314.2,245.1 288.7,245.4 			"/>
			<polygon class="st7" points="166.3,238.3 190.1,236.7 191,245.4 164.2,245.4 			"/>
			<polygon class="st7" points="126.2,231 126.2,171.6 230.8,171.6 235,231 			"/>
			<radialGradient id="SVGID_6_" cx="180.1405" cy="200.4861" r="41.8085" gradientUnits="userSpaceOnUse">
				<stop  offset="0" style="stop-color:#1FB8B4"/>
				<stop  offset="1" style="stop-color:#57F6C9"/>
			</radialGradient>
			<polygon class="st13" points="232.5,227.9 127.8,227.9 127.8,173 229.3,173 			"/>
			<polygon class="st6" points="235,231 232.5,232.6 127.8,232.6 126.2,231 			"/>
			<polygon class="st7" points="249,229.7 251.1,171.6 351.7,171.6 352.6,231 			"/>
			<radialGradient id="SVGID_7_" cx="300.955" cy="200.8841" r="39.3754" gradientUnits="userSpaceOnUse">
				<stop  offset="0" style="stop-color:#0077B4"/>
				<stop  offset="1" style="stop-color:#04A9C9"/>
			</radialGradient>
			<polygon class="st14" points="252.3,226.9 349.6,227.9 349.6,173.8 252.3,173.8 			"/>
			<polygon class="st6" points="249,229.7 250.4,231.2 351.3,232.6 352.6,231 			"/>
			<rect x="12.6" y="147.8" class="st15" width="6.4" height="2.4"/>
			<rect x="461.6" y="145.6" class="st15" width="6.4" height="2.4"/>
			<rect x="20.8" y="147.8" class="st16" width="3.9" height="2.4"/>
			
				<rect x="23.5" y="231.9" transform="matrix(0.9979 -6.472641e-02 6.472641e-02 0.9979 -15.0091 2.0888)" class="st16" width="2.4" height="1.5"/>
			
				<rect x="449.7" y="231.9" transform="matrix(0.9979 -6.472641e-02 6.472641e-02 0.9979 -14.1103 29.6746)" class="st15" width="2.4" height="1.5"/>
			<polygon class="st17" points="396.9,250.2 400,248.9 421.2,249.6 420.9,251 			"/>
			<polygon class="st17" points="286.5,249 287.8,246.4 298.7,246.4 297.7,249 			"/>
			<polygon class="st17" points="299.9,249.1 300.8,246.4 302.1,246.4 301.5,249 			"/>
			<polygon class="st17" points="157.1,249.3 158.8,246.4 175.5,246.4 176.2,249.3 			"/>
			<polygon class="st17" points="55.3,251.1 54.6,249.6 67.1,249.2 67.7,250.7 			"/>
			<polygon class="st17" points="21.4,169.5 24.7,171.6 58.6,172.2 57.3,170.5 			"/>
			<polygon class="st17" points="58.6,170.5 60.1,172.2 63.3,172.2 61.3,170.6 			"/>
			<polygon class="st17" points="152.4,171.6 152.4,172.2 195.1,172.7 195.1,171.6 			"/>
			<polygon class="st17" points="289,173.2 317.8,173 318.8,171.6 290.3,171.6 			"/>
			<polygon class="st17" points="433.8,171.6 463.4,170.6 464.8,169.3 435,170.1 			"/>
			<polygon class="st17" points="328.7,148.4 330,145.5 368.6,145.5 365.9,148.4 			"/>
			<polygon class="st17" points="100.6,150.7 101.7,149 146.1,149 144,150.7 			"/>
			<polygon class="st17" points="99.1,150.7 99.9,149 94.8,149 93.8,150.7 			"/>
			<polygon class="st18" points="304,149.3 304.3,147.2 315.8,147.1 315.9,149.3 			"/>
			<rect x="173.4" y="61.7" class="st19" width="65.9" height="34"/>
			<rect x="266.4" y="105.3" class="st19" width="13.9" height="29.9"/>
			<rect x="258.3" y="177.8" class="st19" width="80.8" height="29.9"/>
			<rect x="134" y="177.8" class="st20" width="93" height="29.9"/>
			<polygon class="st19" points="412.7,205 380,205 387.9,175.2 420.6,175.2 			"/>
			<polygon class="st19" points="448.1,223.9 415.4,223.9 423.3,194 456,194 			"/>
			<polygon class="st20" points="28.3,221.6 72.7,221.6 65.8,195.3 23.6,195.3 			"/>
			<rect x="258.3" y="211.1" class="st19" width="80.8" height="8.7"/>
			<rect x="172.6" y="103.4" class="st19" width="66.7" height="10.3"/>
			<rect x="281.6" y="92.3" class="st19" width="28.3" height="37.8"/>
			<rect x="335.5" y="53.2" class="st20" width="22.4" height="85.5"/>
			<polygon class="st20" points="456.2,136.2 378.3,136.2 378.3,50.8 456.2,48.1 			"/>
			<polygon class="st20" points="24.8,111.6 82,111.6 82,48.9 24.8,47 			"/>
			<polygon class="st21" points="108.8,137.6 142.9,137.6 142.9,100.2 108.8,99.1 			"/>
			<polygon class="st20" points="24.8,141 82.2,141 82.2,114.8 24.8,114 			"/>
			<polygon class="st20" points="108.8,93.4 142.9,93.4 142.9,56.1 108.8,54.9 			"/>
			<g>
				<rect x="284.1" y="94.5" class="st22" width="4.7" height="1.2"/>
				<rect x="284.1" y="113.1" class="st22" width="4.7" height="1.2"/>
				<rect x="290" y="94.5" class="st22" width="4" height="1.2"/>
				<rect x="284.1" y="104.4" class="st22" width="2" height="1.2"/>
				<rect x="288" y="104.4" class="st22" width="2" height="1.2"/>
				<rect x="283.1" y="109.6" class="st22" width="2" height="1.2"/>
				<rect x="292.7" y="104.4" class="st22" width="6.5" height="1.2"/>
				<rect x="284.1" y="96.5" class="st22" width="13.6" height="1.2"/>
				<rect x="284.1" y="106.6" class="st22" width="13.6" height="1.2"/>
				<rect x="284.1" y="124.9" class="st22" width="4.7" height="1.2"/>
				<rect x="284.1" y="116.3" class="st22" width="2" height="1.2"/>
				<rect x="288" y="116.3" class="st22" width="2" height="1.2"/>
				<rect x="283.1" y="121.4" class="st22" width="2" height="1.2"/>
				<rect x="286.8" y="109.6" class="st22" width="6.5" height="1.2"/>
				<rect x="284.1" y="118.5" class="st22" width="13.6" height="1.2"/>
			</g>
			<g>
				<rect x="148.4" y="218.2" class="st22" width="4.7" height="1.2"/>
				<rect x="141.6" y="192.7" class="st22" width="4.7" height="1.2"/>
				<rect x="154.3" y="218.2" class="st22" width="4" height="1.2"/>
				<rect x="141.6" y="184.1" class="st22" width="2" height="1.2"/>
				<rect x="145.5" y="184.1" class="st22" width="2" height="1.2"/>
				<rect x="140.6" y="189.3" class="st22" width="2" height="1.2"/>
				<rect x="150.1" y="184.1" class="st22" width="6.5" height="1.2"/>
				<rect x="148.4" y="220.2" class="st22" width="13.6" height="1.2"/>
				<rect x="141.6" y="186.3" class="st22" width="13.6" height="1.2"/>
				<rect x="141.6" y="204.6" class="st22" width="4.7" height="1.2"/>
				<rect x="141.6" y="196" class="st22" width="2" height="1.2"/>
				<rect x="145.5" y="196" class="st22" width="2" height="1.2"/>
				<rect x="140.6" y="201.1" class="st22" width="2" height="1.2"/>
				<rect x="144.2" y="189.3" class="st22" width="6.5" height="1.2"/>
				<rect x="141.6" y="198.2" class="st22" width="13.6" height="1.2"/>
			</g>
			<g>
				
					<rect x="387.9" y="55.7" transform="matrix(0.9999 -1.217690e-02 1.217690e-02 0.9999 -0.6566 4.8255)" class="st22" width="16.1" height="1.2"/>
				
					<rect x="388.1" y="74.3" transform="matrix(0.9999 -1.216846e-02 1.216846e-02 0.9999 -0.8821 4.8262)" class="st22" width="16.1" height="1.2"/>
				
					<rect x="408.1" y="55.5" transform="matrix(0.9999 -1.217513e-02 1.217513e-02 0.9999 -0.6522 5.0563)" class="st22" width="13.7" height="1.2"/>
				
					<rect x="388" y="65.7" transform="matrix(0.9999 -1.216504e-02 1.216504e-02 0.9999 -0.778 4.7664)" class="st22" width="6.8" height="1.2"/>
				
					<rect x="401.4" y="65.6" transform="matrix(0.9999 -1.218497e-02 1.218497e-02 0.9999 -0.7763 4.9376)" class="st22" width="6.8" height="1.2"/>
				
					<rect x="384.6" y="70.9" transform="matrix(0.9999 -1.218497e-02 1.218497e-02 0.9999 -0.8427 4.7337)" class="st22" width="6.8" height="1.2"/>
				
					<rect x="417.4" y="65.3" transform="matrix(0.9999 -1.217842e-02 1.217842e-02 0.9999 -0.7706 5.2249)" class="st22" width="22.4" height="1.2"/>
				
					<rect x="387.9" y="57.6" transform="matrix(0.9999 -1.217559e-02 1.217559e-02 0.9999 -0.6778 5.012)" class="st22" width="46.8" height="1.2"/>
				
					<rect x="388" y="67.7" transform="matrix(0.9999 -1.217559e-02 1.217559e-02 0.9999 -0.8011 5.0142)" class="st22" width="46.8" height="1.2"/>
				
					<rect x="388.2" y="86.2" transform="matrix(0.9999 -1.216846e-02 1.216846e-02 0.9999 -1.0264 4.8289)" class="st22" width="16.1" height="1.2"/>
				
					<rect x="388.1" y="77.6" transform="matrix(0.9999 -1.216504e-02 1.216504e-02 0.9999 -0.9223 4.769)" class="st22" width="6.8" height="1.2"/>
				
					<rect x="401.5" y="77.4" transform="matrix(0.9999 -1.218497e-02 1.218497e-02 0.9999 -0.9208 4.9402)" class="st22" width="6.8" height="1.2"/>
				
					<rect x="384.8" y="82.8" transform="matrix(0.9999 -1.218497e-02 1.218497e-02 0.9999 -0.9872 4.7363)" class="st22" width="6.8" height="1.2"/>
				
					<rect x="397.1" y="70.7" transform="matrix(0.9999 -1.217842e-02 1.217842e-02 0.9999 -0.8378 4.9777)" class="st22" width="22.4" height="1.2"/>
				
					<rect x="388.2" y="79.6" transform="matrix(0.9999 -1.217559e-02 1.217559e-02 0.9999 -0.9455 5.0169)" class="st22" width="46.8" height="1.2"/>
			</g>
			<g>
				
					<rect x="387.9" y="96.8" transform="matrix(0.9999 -1.216846e-02 1.216846e-02 0.9999 -1.1563 4.8252)" class="st22" width="16.1" height="1.2"/>
				
					<rect x="388.1" y="115.4" transform="matrix(0.9999 -1.217690e-02 1.217690e-02 0.9999 -1.3832 4.8327)" class="st22" width="16.1" height="1.2"/>
				
					<rect x="408.1" y="96.6" transform="matrix(0.9999 -1.217513e-02 1.217513e-02 0.9999 -1.1527 5.0594)" class="st22" width="13.7" height="1.2"/>
				
					<rect x="388" y="106.8" transform="matrix(0.9999 -1.216504e-02 1.216504e-02 0.9999 -1.2781 4.7694)" class="st22" width="6.8" height="1.2"/>
				
					<rect x="401.4" y="106.7" transform="matrix(0.9999 -1.216504e-02 1.216504e-02 0.9999 -1.2751 4.9325)" class="st22" width="6.8" height="1.2"/>
				
					<rect x="384.6" y="112" transform="matrix(0.9999 -1.218497e-02 1.218497e-02 0.9999 -1.3436 4.7367)" class="st22" width="6.8" height="1.2"/>
				
					<rect x="417.4" y="106.5" transform="matrix(0.9999 -1.217203e-02 1.217203e-02 0.9999 -1.2723 5.1297)" class="st22" width="6.7" height="1.2"/>
				
					<rect x="433.2" y="126.8" transform="matrix(0.9999 -1.217227e-02 1.217227e-02 0.9999 -1.5181 5.3236)" class="st22" width="6.7" height="1.2"/>
				
					<rect x="387.9" y="98.7" transform="matrix(0.9999 -1.217559e-02 1.217559e-02 0.9999 -1.1783 5.015)" class="st22" width="46.8" height="1.2"/>
				
					<rect x="388" y="108.8" transform="matrix(0.9999 -1.217559e-02 1.217559e-02 0.9999 -1.3016 5.0173)" class="st22" width="46.8" height="1.2"/>
				
					<rect x="388.2" y="127.3" transform="matrix(0.9999 -1.217690e-02 1.217690e-02 0.9999 -1.5276 4.8353)" class="st22" width="16.1" height="1.2"/>
				
					<rect x="388.1" y="118.7" transform="matrix(0.9999 -1.216504e-02 1.216504e-02 0.9999 -1.4223 4.7721)" class="st22" width="6.8" height="1.2"/>
				
					<rect x="401.5" y="118.5" transform="matrix(0.9999 -1.216504e-02 1.216504e-02 0.9999 -1.4194 4.9352)" class="st22" width="6.8" height="1.2"/>
				
					<rect x="409.2" y="118.6" transform="matrix(0.9999 -1.209405e-02 1.209405e-02 0.9999 -1.4113 4.9651)" class="st22" width="1.2" height="1.2"/>
				
					<rect x="446.1" y="118.1" transform="matrix(0.9999 -1.209405e-02 1.209405e-02 0.9999 -1.4032 5.4113)" class="st22" width="1.2" height="1.2"/>
				
					<rect x="412.2" y="86" transform="matrix(0.9999 -1.220813e-02 1.220813e-02 0.9999 -1.026 5.0465)" class="st22" width="1.2" height="1.2"/>
				
					<rect x="441.4" y="118.2" transform="matrix(0.9999 -1.220952e-02 1.220952e-02 0.9999 -1.4173 5.4058)" class="st22" width="1.2" height="1.2"/>
				
					<rect x="407.4" y="86" transform="matrix(0.9999 -1.209405e-02 1.209405e-02 0.9999 -1.0178 4.9405)" class="st22" width="1.2" height="1.2"/>
				
					<rect x="384.8" y="123.9" transform="matrix(0.9999 -1.218497e-02 1.218497e-02 0.9999 -1.4881 4.7394)" class="st22" width="6.8" height="1.2"/>
				
					<rect x="397.1" y="111.8" transform="matrix(0.9999 -1.217842e-02 1.217842e-02 0.9999 -1.3384 4.9808)" class="st22" width="22.4" height="1.2"/>
				
					<rect x="388.2" y="120.9" transform="matrix(0.9999 -1.217290e-02 1.217290e-02 0.9999 -1.4492 4.8262)" class="st22" width="15.1" height="1.2"/>
			</g>
			<g>
				
					<rect x="31.6" y="55.7" transform="matrix(0.9996 2.944920e-02 -2.944920e-02 0.9996 1.676 -1.1427)" class="st22" width="16.1" height="1.2"/>
				
					<rect x="31" y="74.3" transform="matrix(0.9996 2.944921e-02 -2.944921e-02 0.9996 2.2226 -1.1185)" class="st22" width="16.1" height="1.2"/>
				
					<rect x="51.8" y="56.3" transform="matrix(0.9996 2.944535e-02 -2.944535e-02 0.9996 1.7005 -1.7021)" class="st22" width="13.7" height="1.2"/>
				
					<rect x="31.6" y="50.7" transform="matrix(0.9996 2.945531e-02 -2.945531e-02 0.9996 1.5264 -1.1095)" class="st22" width="13.7" height="1.2"/>
				
					<rect x="31.3" y="65.5" transform="matrix(0.9996 2.945531e-02 -2.945531e-02 0.9996 1.9632 -0.993)" class="st22" width="6.8" height="1.2"/>
				
					<rect x="44.7" y="65.9" transform="matrix(0.9996 2.945531e-02 -2.945531e-02 0.9996 1.9807 -1.3877)" class="st22" width="6.8" height="1.2"/>
				
					<rect x="27.7" y="70.6" transform="matrix(0.9996 2.943539e-02 -2.943539e-02 0.9996 2.1088 -0.8851)" class="st22" width="6.8" height="1.2"/>
				
					<rect x="60.7" y="66.4" transform="matrix(0.9996 2.943946e-02 -2.943946e-02 0.9996 2.0004 -1.8565)" class="st22" width="6.7" height="1.2"/>
				
					<rect x="54.4" y="87.3" transform="matrix(0.9996 2.943946e-02 -2.943946e-02 0.9996 2.6139 -1.6614)" class="st22" width="6.7" height="1.2"/>
				
					<rect x="31" y="104" transform="matrix(0.9996 2.943946e-02 -2.943946e-02 0.9996 3.0947 -0.9656)" class="st22" width="6.7" height="1.2"/>
				
					<rect x="31.5" y="58.2" transform="matrix(0.9996 2.944763e-02 -2.944763e-02 0.9996 1.7557 -1.5909)" class="st22" width="46.8" height="1.2"/>
				
					<rect x="31.2" y="68.3" transform="matrix(0.9996 2.945055e-02 -2.945055e-02 0.9996 2.0538 -1.5779)" class="st22" width="46.8" height="1.2"/>
				
					<rect x="30.7" y="86.2" transform="matrix(0.9996 2.944921e-02 -2.944921e-02 0.9996 2.5716 -1.1031)" class="st22" width="16.1" height="1.2"/>
				
					<rect x="30.9" y="77.4" transform="matrix(0.9996 2.945531e-02 -2.945531e-02 0.9996 2.3123 -0.9776)" class="st22" width="6.8" height="1.2"/>
				
					<rect x="44.3" y="77.8" transform="matrix(0.9996 2.945531e-02 -2.945531e-02 0.9996 2.3297 -1.3723)" class="st22" width="6.8" height="1.2"/>
				
					<rect x="52" y="78" transform="matrix(0.9996 2.943593e-02 -2.943593e-02 0.9996 2.3372 -1.514)" class="st22" width="1.2" height="1.2"/>
				
					<rect x="72.3" y="100.7" transform="matrix(0.9996 2.943578e-02 -2.943578e-02 0.9996 3.0138 -2.1028)" class="st22" width="1.2" height="1.2"/>
				
					<rect x="31.1" y="94.4" transform="matrix(0.9996 2.943929e-02 -2.943929e-02 0.9996 2.8099 -0.893)" class="st22" width="1.2" height="1.2"/>
				
					<rect x="56.4" y="45.6" transform="matrix(0.9996 2.943593e-02 -2.943593e-02 0.9996 1.3838 -1.6571)" class="st22" width="1.2" height="1.2"/>
				
					<rect x="67.6" y="100.6" transform="matrix(0.9996 2.943929e-02 -2.943929e-02 0.9996 3.0081 -1.9649)" class="st22" width="1.2" height="1.2"/>
				
					<rect x="46.4" y="104" transform="matrix(0.9996 2.943593e-02 -2.943593e-02 0.9996 3.0998 -1.3373)" class="st22" width="1.2" height="1.2"/>
				
					<rect x="51.5" y="45.4" transform="matrix(0.9996 2.943593e-02 -2.943593e-02 0.9996 1.3774 -1.5142)" class="st22" width="1.2" height="1.2"/>
				
					<rect x="27.3" y="82.4" transform="matrix(0.9996 2.945531e-02 -2.945531e-02 0.9996 2.4593 -0.8702)" class="st22" width="6.8" height="1.2"/>
				
					<rect x="40.1" y="71.2" transform="matrix(0.9996 2.945194e-02 -2.945194e-02 0.9996 2.1363 -1.4815)" class="st22" width="22.4" height="1.2"/>
				
					<rect x="30.9" y="79.7" transform="matrix(0.9996 2.944539e-02 -2.944539e-02 0.9996 2.3818 -1.0965)" class="st22" width="15.1" height="1.2"/>
			</g>
			<g>
				<rect x="338" y="57" class="st23" width="4.7" height="1.2"/>
				<rect x="338" y="75.6" class="st23" width="4.7" height="1.2"/>
				<rect x="343.9" y="57" class="st23" width="4" height="1.2"/>
				<rect x="338" y="67" class="st23" width="2" height="1.2"/>
				<rect x="341.9" y="67" class="st23" width="2" height="1.2"/>
				<rect x="337" y="72.1" class="st23" width="2" height="1.2"/>
				<rect x="346.6" y="67" class="st23" width="6.5" height="1.2"/>
				<rect x="338" y="59.1" class="st23" width="13.6" height="1.2"/>
				<rect x="338" y="69.2" class="st23" width="13.6" height="1.2"/>
				<rect x="338" y="87.5" class="st23" width="4.7" height="1.2"/>
				<rect x="338" y="78.8" class="st23" width="2" height="1.2"/>
				<rect x="341.9" y="78.8" class="st23" width="2" height="1.2"/>
				<rect x="337" y="84" class="st23" width="2" height="1.2"/>
				<rect x="340.6" y="72.1" class="st23" width="6.5" height="1.2"/>
				<rect x="338" y="81" class="st23" width="13.6" height="1.2"/>
				<rect x="338" y="101.4" class="st23" width="4.7" height="1.2"/>
				<rect x="338" y="92.8" class="st23" width="2" height="1.2"/>
				<rect x="341.9" y="92.8" class="st23" width="2" height="1.2"/>
				<rect x="337" y="97.9" class="st23" width="2" height="1.2"/>
				<rect x="346.6" y="92.8" class="st23" width="6.5" height="1.2"/>
				<rect x="338" y="95" class="st23" width="13.6" height="1.2"/>
				<rect x="338" y="113.3" class="st23" width="4.7" height="1.2"/>
				<rect x="338" y="104.6" class="st23" width="2" height="1.2"/>
				<rect x="341.9" y="104.6" class="st23" width="2" height="1.2"/>
				<rect x="337" y="109.8" class="st23" width="2" height="1.2"/>
				<rect x="340.6" y="97.9" class="st23" width="6.5" height="1.2"/>
				<rect x="338" y="106.9" class="st23" width="13.6" height="1.2"/>
			</g>
			<g>
				<rect x="179.2" y="63" class="st22" width="11.7" height="1.2"/>
				<rect x="179.2" y="81.6" class="st22" width="11.7" height="1.2"/>
				<rect x="193.9" y="63" class="st22" width="9.9" height="1.2"/>
				<rect x="179.2" y="73" class="st22" width="5" height="1.2"/>
				<rect x="188.9" y="73" class="st22" width="5" height="1.2"/>
				<rect x="176.7" y="78.1" class="st22" width="5" height="1.2"/>
				<rect x="200.5" y="73" class="st22" width="16.3" height="1.2"/>
				<rect x="179.2" y="65" class="st22" width="33.9" height="1.2"/>
				<rect x="179.2" y="75.2" class="st22" width="33.9" height="1.2"/>
			</g>
			<g>
				<rect x="117.6" y="61.9" class="st22" width="7" height="1.2"/>
				<rect x="117.6" y="80.5" class="st22" width="7" height="1.2"/>
				<rect x="126.4" y="61.9" class="st22" width="5.9" height="1.2"/>
				<rect x="117.6" y="71.8" class="st22" width="2.9" height="1.2"/>
				<rect x="123.4" y="71.8" class="st22" width="2.9" height="1.2"/>
				<rect x="116.2" y="77" class="st22" width="2.9" height="1.2"/>
				<rect x="130.3" y="71.8" class="st22" width="9.7" height="1.2"/>
				<rect x="117.6" y="63.9" class="st22" width="20.1" height="1.2"/>
				<rect x="117.6" y="74.1" class="st22" width="20.1" height="1.2"/>
			</g>
			<g>
				<rect x="116.4" y="106.1" class="st22" width="7" height="1.2"/>
				<rect x="116.4" y="124.7" class="st22" width="7" height="1.2"/>
				<rect x="125.2" y="106.1" class="st22" width="5.9" height="1.2"/>
				<rect x="116.4" y="116.1" class="st22" width="2.9" height="1.2"/>
				<rect x="122.2" y="116.1" class="st22" width="2.9" height="1.2"/>
				<rect x="115" y="121.2" class="st22" width="2.9" height="1.2"/>
				<rect x="129.1" y="116.1" class="st22" width="9.7" height="1.2"/>
				<rect x="116.4" y="108.2" class="st22" width="20.1" height="1.2"/>
				<rect x="116.4" y="118.3" class="st22" width="20.1" height="1.2"/>
			</g>
			<g>
				<rect x="31.2" y="117.5" class="st22" width="14.5" height="1.2"/>
				<rect x="31.2" y="136.1" class="st22" width="14.5" height="1.2"/>
				<rect x="49.3" y="117.5" class="st22" width="12.2" height="1.2"/>
				<rect x="31.2" y="127.5" class="st22" width="6.1" height="1.2"/>
				<rect x="43.2" y="127.5" class="st22" width="6.1" height="1.2"/>
				<rect x="28.1" y="132.6" class="st22" width="6.1" height="1.2"/>
				<rect x="57.5" y="127.5" class="st22" width="20.1" height="1.2"/>
				<rect x="31.2" y="119.6" class="st22" width="41.9" height="1.2"/>
				<rect x="31.2" y="129.7" class="st22" width="41.9" height="1.2"/>
			</g>
			<g>
				<rect x="176.3" y="91.5" class="st22" width="11.7" height="1.2"/>
				<rect x="188" y="110.6" class="st22" width="11.7" height="1.2"/>
				<rect x="191" y="91.5" class="st22" width="9.9" height="1.2"/>
				<rect x="178.6" y="103.6" class="st22" width="5" height="1.2"/>
				<rect x="188.3" y="103.6" class="st22" width="5" height="1.2"/>
				<rect x="176.1" y="108.8" class="st22" width="5" height="1.2"/>
				<rect x="208" y="110.6" class="st22" width="16.3" height="1.2"/>
				<rect x="176.3" y="93.5" class="st22" width="33.9" height="1.2"/>
				<rect x="178.6" y="105.8" class="st22" width="33.9" height="1.2"/>
			</g>
			<g>
				<rect x="177" y="119.4" class="st22" width="11.7" height="1.2"/>
				<rect x="188.7" y="138.5" class="st22" width="11.7" height="1.2"/>
				<rect x="191.7" y="119.4" class="st22" width="9.9" height="1.2"/>
				<rect x="179.3" y="131.6" class="st22" width="5" height="1.2"/>
				<rect x="189" y="131.6" class="st22" width="5" height="1.2"/>
				<rect x="176.8" y="136.7" class="st22" width="5" height="1.2"/>
				<rect x="208.7" y="138.5" class="st22" width="16.3" height="1.2"/>
				<rect x="177" y="121.4" class="st22" width="33.9" height="1.2"/>
				<rect x="179.3" y="133.8" class="st22" width="33.9" height="1.2"/>
			</g>
			<g>
				<rect x="175.3" y="182.6" class="st22" width="11.7" height="1.2"/>
				<rect x="187" y="201.7" class="st22" width="11.7" height="1.2"/>
				<rect x="190" y="182.6" class="st22" width="9.9" height="1.2"/>
				<rect x="177.6" y="194.8" class="st22" width="5" height="1.2"/>
				<rect x="187.3" y="194.8" class="st22" width="5" height="1.2"/>
				<rect x="175.1" y="199.9" class="st22" width="5" height="1.2"/>
				<rect x="207" y="201.7" class="st22" width="16.3" height="1.2"/>
				<rect x="175.3" y="184.7" class="st22" width="33.9" height="1.2"/>
				<rect x="177.6" y="197" class="st22" width="33.9" height="1.2"/>
			</g>
			<g>
				<rect x="262.9" y="184.2" class="st22" width="11.7" height="1.2"/>
				<rect x="274.6" y="203.2" class="st22" width="11.7" height="1.2"/>
				<rect x="277.6" y="184.2" class="st22" width="9.9" height="1.2"/>
				<rect x="265.2" y="196.3" class="st22" width="5" height="1.2"/>
				<rect x="274.9" y="196.3" class="st22" width="5" height="1.2"/>
				<rect x="262.7" y="201.5" class="st22" width="5" height="1.2"/>
				<rect x="294.7" y="203.2" class="st22" width="16.3" height="1.2"/>
				<rect x="262.9" y="186.2" class="st22" width="33.9" height="1.2"/>
				<rect x="265.2" y="198.5" class="st22" width="33.9" height="1.2"/>
			</g>
			<g>
				<rect x="296.3" y="180" class="st22" width="9.5" height="1.2"/>
				<rect x="305.9" y="199" class="st22" width="9.5" height="1.2"/>
				<rect x="308.3" y="180" class="st22" width="8.1" height="1.2"/>
				<rect x="298.2" y="192.1" class="st22" width="4" height="1.2"/>
				<rect x="306.1" y="192.1" class="st22" width="4" height="1.2"/>
				<rect x="296.2" y="197.2" class="st22" width="4" height="1.2"/>
				<rect x="322.2" y="199" class="st22" width="13.3" height="1.2"/>
				<rect x="296.3" y="182" class="st22" width="27.6" height="1.2"/>
				<rect x="298.2" y="194.3" class="st22" width="27.6" height="1.2"/>
			</g>
			<g>
				<polygon class="st22" points="397.5,181.7 387.4,181.7 387.7,180.6 397.9,180.6 				"/>
				<polygon class="st22" points="401.9,200.2 392.3,200.2 392.6,199.1 402.2,199.1 				"/>
				<polygon class="st22" points="408.6,181.7 400.1,181.7 400.4,180.6 409,180.6 				"/>
				<polygon class="st22" points="390.5,193.5 386.4,193.5 386.7,192.3 390.8,192.3 				"/>
				<polygon class="st22" points="398.6,193.5 394.5,193.5 394.8,192.3 398.9,192.3 				"/>
				<polygon class="st22" points="387.1,198.5 383.1,198.5 383.3,197.3 387.4,197.3 				"/>
				<polygon class="st22" points="404.8,189.1 391.5,189.1 391.9,188 405.2,188 				"/>
				<polygon class="st22" points="416,183.7 386.9,183.7 387.2,182.5 416.4,182.5 				"/>
				<polygon class="st22" points="413.9,195.6 385.8,195.6 386.1,194.5 414.3,194.5 				"/>
			</g>
			<g>
				<polygon class="st22" points="439.9,199.4 429.8,199.4 430.1,198.2 440.2,198.2 				"/>
				<polygon class="st22" points="444.2,217.9 434.7,217.9 435,216.7 444.6,216.7 				"/>
				<polygon class="st22" points="451,199.4 442.5,199.4 442.8,198.2 451.4,198.2 				"/>
				<polygon class="st22" points="432.9,211.2 428.7,211.2 429,210 433.2,210 				"/>
				<polygon class="st22" points="440.9,211.2 436.8,211.2 437.1,210 441.3,210 				"/>
				<polygon class="st22" points="429.5,216.2 425.4,216.2 425.7,215 429.8,215 				"/>
				<polygon class="st22" points="437.5,205 424.2,205 424.6,203.9 437.9,203.9 				"/>
				<polygon class="st22" points="458.4,201.3 429.3,201.3 429.6,200.2 458.8,200.2 				"/>
				<polygon class="st22" points="448.1,208.4 420,208.4 420.3,207.2 448.5,207.2 				"/>
			</g>
			<g>
				<polygon class="st22" points="44.4,197.1 54.5,197.1 54.2,196 44,196 				"/>
				<polygon class="st22" points="40,215.7 49.6,215.7 49.2,214.5 39.7,214.5 				"/>
				<polygon class="st22" points="33.2,197.1 41.8,197.1 41.5,196 32.9,196 				"/>
				<polygon class="st22" points="51.4,208.9 55.5,208.9 55.2,207.8 51.1,207.8 				"/>
				<polygon class="st22" points="43.3,208.9 47.4,208.9 47.1,207.8 43,207.8 				"/>
				<polygon class="st22" points="54.8,213.9 58.8,213.9 58.5,212.8 54.5,212.8 				"/>
				<polygon class="st22" points="46.8,202.8 60,202.8 59.6,201.6 46.3,201.6 				"/>
				<polygon class="st22" points="25.9,199.1 55,199.1 54.7,198 25.5,198 				"/>
				<polygon class="st22" points="36.2,206.2 64.2,206.2 63.9,205 35.8,205 				"/>
			</g>
			<g>
				<rect x="265.8" y="212.9" class="st22" width="9.5" height="1.2"/>
				<rect x="277.7" y="212.9" class="st22" width="8.1" height="1.2"/>
				<rect x="303.1" y="211.8" class="st22" width="4" height="1.2"/>
				<rect x="311" y="211.8" class="st22" width="4" height="1.2"/>
				<rect x="301.1" y="216.9" class="st22" width="4" height="1.2"/>
				<rect x="265.8" y="214.9" class="st22" width="27.6" height="1.2"/>
				<rect x="303.1" y="214" class="st22" width="27.6" height="1.2"/>
			</g>
			<g>
				<rect x="249.3" y="65" class="st22" width="5.2" height="1.2"/>
				<rect x="254.5" y="84.1" class="st22" width="5.2" height="1.2"/>
				<rect x="255.8" y="65" class="st22" width="4.4" height="1.2"/>
				<rect x="250.3" y="77.2" class="st22" width="2.2" height="1.2"/>
				<rect x="254.6" y="77.2" class="st22" width="2.2" height="1.2"/>
				<rect x="249.2" y="82.3" class="st22" width="2.2" height="1.2"/>
				<rect x="263.3" y="84.1" class="st22" width="7.2" height="1.2"/>
				<rect x="249.3" y="67.1" class="st22" width="15" height="1.2"/>
				<rect x="250.3" y="79.4" class="st22" width="15" height="1.2"/>
			</g>
			<polygon class="st24" points="56.9,176 24.7,227.2 27.8,227.5 82.1,176.4 			"/>
			<polygon class="st24" points="84.3,176.4 93.2,176.5 35.2,225.3 31.7,224.9 			"/>
			<polygon class="st24" points="178.3,175.2 142.4,226.4 145.9,226.6 206.4,175.6 			"/>
			<polygon class="st24" points="208.9,175.6 218.9,175.6 154.1,224.4 150.2,224.1 			"/>
			<polygon class="st24" points="298.6,174.8 262.7,226 266.2,226.2 326.7,175.2 			"/>
			<polygon class="st24" points="329.2,175.2 339.2,175.2 274.4,224 270.5,223.7 			"/>
			<polygon class="st24" points="415.3,174.8 375.7,228.1 379.6,228.3 446.2,175.2 			"/>
			<polygon class="st24" points="449,175.2 460,175.3 388.6,226 384.3,225.6 			"/>
			<polygon class="st24" points="76.3,47.6 19,138.9 24.3,139.2 122.1,51.5 			"/>
			<polygon class="st24" points="127.2,52.7 150,52.8 36.9,135.5 30.9,134.9 			"/>
			<polygon class="st24" points="228,57.4 173.4,144.4 178.7,144.7 275.2,58.1 			"/>
			<polygon class="st24" points="281.5,58.1 304.4,58.3 191.2,141 185.2,140.4 			"/>
			<polygon class="st24" points="388.5,51.2 338.4,140.9 343.7,140.9 435.7,49.6 			"/>
			<polygon class="st24" points="442,49.1 464.8,48.1 356,136.4 350,136.1 			"/>
		</g>
	</g>
</g>
<g>
	<path class="st25" d="M132.9,277.6c1.4-2.1,29.4-12.2,29.4-12.2v-5.2c-1.7,0-12.2,2.4-12.2,2.4s0-23.1,1-32.2
		c1-9.1,11.5-19.9,22.4-19.9s21.3,10.8,22.4,19.9c1,9.1,1,32.2,1,32.2s-10.5-2.4-12.2-2.4v5.2c0,0,28,10.1,29.4,12.2
		c1.4,2.1,2.8,148.6,2.8,148.6h-43.3h-43.3C130.1,426.2,131.5,279.7,132.9,277.6z"/>
	<path class="st25" d="M-52.6,284.4c2.2-2.2,32.4-22.5,32.9-23.6c0.5-1.1,1.4-11,1.4-11s-5.1-4.4-7.4-9.3c-2-0.1-3.5-3.3-3.5-7.1
		c0-4,1.6-7.2,3.7-7.2c0,0,0,0,0.1,0c1-5.6,2.7-11.5,6.7-13.7c6.3-3.6,13.4-4.1,13.4-4.1S1.7,209,8,212.5c4,2.3,5.7,8.1,6.7,13.7
		c0,0,0,0,0.1,0c2,0,3.7,3.2,3.7,7.2c0,3.9-1.6,7-3.5,7.1c-2.3,4.9-7.4,9.3-7.4,9.3s0.8,9.9,1.4,11c0.5,1.1,30.7,21.4,32.9,23.6
		C43.9,286.6,53,424.7,53,424.7H-5.4h-58.4C-63.9,424.7-54.8,286.6-52.6,284.4z"/>
	<path class="st26" d="M188.8,279.7c2.3-2.3,34.6-24.1,35.2-25.2c0.6-1.2,1.5-11.7,1.5-11.7s-5.4-4.7-7.9-9.9
		c-2.1-0.2-3.8-3.5-3.8-7.6c0-4.2,1.8-7.7,3.9-7.7c0,0,0,0,0.1,0c1-6,2.8-12.3,7.1-14.7c6.7-3.8,14.4-4.4,14.4-4.4s7.6,0.6,14.4,4.4
		c4.3,2.4,6.1,8.7,7.1,14.7c0,0,0,0,0.1,0c2.2,0,3.9,3.4,3.9,7.7c0,4.1-1.7,7.5-3.8,7.6c-2.5,5.3-7.9,9.9-7.9,9.9s0.9,10.6,1.5,11.7
		c0.6,1.2,32.9,22.9,35.2,25.2s12,146.5,12,146.5h-62.5h-62.5C176.8,426.2,186.5,282.1,188.8,279.7z"/>
	<path class="st27" d="M310.9,294.3c2-2,30-20.8,30.5-21.9s1.3-10.2,1.3-10.2s-4.7-4-6.9-8.6c-1.8-0.1-3.3-3-3.3-6.6
		c0-3.7,1.5-6.6,3.4-6.6c0,0,0,0,0.1,0c0.9-5.2,2.5-10.6,6.2-12.7c5.8-3.3,12.5-3.8,12.5-3.8s6.6,0.5,12.5,3.8
		c3.7,2.1,5.3,7.5,6.2,12.7c0,0,0,0,0.1,0c1.9,0,3.4,3,3.4,6.6c0,3.6-1.5,6.5-3.3,6.6c-2.2,4.6-6.9,8.6-6.9,8.6s0.8,9.1,1.3,10.2
		s28.5,19.8,30.5,21.9c2,2,10.4,133.6,10.4,133.6h-54.1h-54.1C300.5,427.9,308.9,296.3,310.9,294.3z"/>
	<path class="st27" d="M445.4,287.1c1.3-1.9,27.1-11.3,27.1-11.3V271c-1.6,0-11.3,2.3-11.3,2.3s0-21.3,1-29.7
		c1-8.4,10.7-18.4,20.7-18.4c10,0,19.7,10,20.7,18.4c1,8.4,1,29.7,1,29.7s-9.7-2.3-11.3-2.3v4.8c0,0,25.8,9.4,27.1,11.3
		c1.3,1.9,2.6,141.1,2.6,141.1h-40.1h-40.1C442.8,428.2,444.1,289.1,445.4,287.1z"/>
	<path class="st26" d="M-23.2,282.8c1.3-2,27.8-11.6,27.8-11.6v-5c-1.7,0-11.6,2.3-11.6,2.3s0-21.9,1-30.5
		c1-8.6,10.9-18.9,21.2-18.9c10.3,0,20.2,10.3,21.2,18.9c1,8.6,1,30.5,1,30.5s-9.9-2.3-11.6-2.3v5c0,0,26.5,9.6,27.8,11.6
		c1.3,2,2.7,143.4,2.7,143.4H15.2h-41.1C-25.9,426.2-24.6,284.8-23.2,282.8z"/>
	<path class="st27" d="M37.9,280l17.9-9.8c0,0,2.6-31.9,6-46c3.4-14,13.2-19.6,20.9-19.6s17.4,5.5,20.9,19.6c3.4,14,6,46,6,46
		l17.9,9.8l5.5,146.2H82.6H32.4L37.9,280z"/>
	<path class="st26" d="M368.6,273.8l19-10.4c0,0,2.7-34,6.3-49c3.6-15,14.1-20.9,22.2-20.9c8.2,0,18.6,5.9,22.2,20.9
		c3.6,15,6.3,49,6.3,49l19,10.4l5.9,152.5h-53.5h-53.5L368.6,273.8z"/>
	<path class="st26" d="M75.5,281.7c2.3-2.3,33.8-23.5,34.4-24.6c0.6-1.1,1.4-11.5,1.4-11.5s-5.3-4.6-7.7-9.7c-2-0.1-3.7-3.4-3.7-7.5
		c0-4.1,1.7-7.5,3.8-7.5c0,0,0,0,0.1,0c1-5.9,2.8-12,7-14.3c6.6-3.7,14-4.3,14-4.3s7.4,0.6,14,4.3c4.2,2.4,5.9,8.5,7,14.3
		c0,0,0,0,0.1,0c2.1,0,3.8,3.4,3.8,7.5c0,4-1.6,7.3-3.7,7.5c-2.4,5.1-7.7,9.7-7.7,9.7s0.9,10.3,1.4,11.5
		c0.6,1.1,32.1,22.3,34.4,24.6c2.3,2.3,11.7,144.2,11.7,144.2h-61h-61C63.8,425.9,73.2,284,75.5,281.7z"/>
	<path class="st25" d="M261.2,278.3c1.4-2.1,29.2-12.2,29.2-12.2v-5.2c-1.7,0-12.2,2.4-12.2,2.4s0-22.9,1-32
		c1-9,11.5-19.8,22.2-19.8c10.8,0,21.2,10.8,22.2,19.8c1,9,1,32,1,32s-10.4-2.4-12.2-2.4v5.2c0,0,27.8,10.1,29.2,12.2
		c1.4,2.1,2.8,147.9,2.8,147.9h-43.1h-43.1C258.4,426.2,259.8,280.4,261.2,278.3z"/>
</g>
</svg>
