<?xml version="1.0" encoding="utf-8"?>
<!-- Generator: Adobe Illustrator 23.1.1, SVG Export Plug-In . SVG Version: 6.00 Build 0)  -->
<svg version="1.1" id="Layer_1" xmlns:serif="http://www.serif.com/"
	 xmlns="http://www.w3.org/2000/svg" xmlns:xlink="http://www.w3.org/1999/xlink" x="0px" y="0px" width="490px" height="425px"
	 viewBox="0 0 490 425" style="enable-background:new 0 0 490 425;" xml:space="preserve">
<style type="text/css">
	.st0{fill:#A3A9AF;}
	.st1{opacity:0.1;}
	.st2{fill:#231F20;}
	.st3{opacity:0.5;fill:#231F20;}
	.st4{fill:#FCC287;}
	.st5{fill:#D1A273;}
	.st6{fill:#C5693D;}
	.st7{fill:#4A2405;}
	.st8{fill:#230000;}
	.st9{fill:#FFFFFF;}
	.st10{fill:none;stroke:#C5693D;stroke-width:4.3784;stroke-linecap:round;stroke-miterlimit:10;}
	.st11{fill:#415570;}
	.st12{fill:#33435B;}
	.st13{fill:#BFDCF3;}
	.st14{fill:#FCC986;}
	.st15{fill:#FCC37F;}
	.st16{fill:#D3EEFB;}
	.st17{fill:#D23C69;}
	.st18{fill:#D79753;}
	.st19{fill:#1D0422;}
	.st20{fill:#584278;}
	.st21{fill:#FFC40D;}
	.st22{fill:#EA4D77;}
	.st23{fill:#EA5589;}
</style>
<rect x="-5.2" y="-18.2" class="st0" width="497.9" height="427.5"/>
<g class="st1">
	<path class="st2" d="M395.8,18.1c-6.6-1.2-13.3-0.4-20-0.1c-7.2,0.3-14.5,0.3-21.6,1.3c-1,0.1-1,1.8,0,2c6.5,1,13.1,0.9,19.6,1.3
		c7.3,0.3,14.7,1.2,21.9-0.1C398,22.1,398,18.5,395.8,18.1z"/>
	<path class="st2" d="M439.1,39.7c-3.4-1-6.9-0.4-10.4-0.2c-3.8,0.2-7.7,0.5-11.5,0.8c-1.8,0.1-1.8,2.7,0,2.9
		c3.8,0.3,7.7,0.6,11.5,0.8c3.5,0.2,7,0.8,10.4-0.2C441,43,441,40.3,439.1,39.7z"/>
	<path class="st2" d="M420.5,78c-4.7-0.4-9.3-0.1-14,0.1c-1.9,0.1-1.9,2.9,0,3c4.7,0.3,9.3,0.5,14,0.1
		C422.6,81.1,422.6,78.2,420.5,78z"/>
	<path class="st2" d="M477.1,94.9c-7-1.8-15.4-0.2-22.6,0.1c-2.6,0.1-2.6,4,0,4.1c7.2,0.3,15.6,1.8,22.6,0.1
		C479.2,98.6,479.2,95.4,477.1,94.9z"/>
	<path class="st2" d="M474.3,201.9c-3.3-0.7-6.5-0.3-9.8,0c-2.3,0.2-2.3,3.3,0,3.6c3.3,0.3,6.5,0.6,9.8,0
		C476.1,205.1,476.1,202.3,474.3,201.9z"/>
	<path class="st2" d="M449,254.7c-5.3-0.8-10.5-0.4-15.8-0.2c-2.3,0.1-2.3,3.4,0,3.5c5.3,0.2,10.5,0.6,15.8-0.2
		C450.5,257.7,450.5,255,449,254.7z"/>
	<path class="st2" d="M482.5,301.3c-5.1-1.1-10.5-0.4-15.7-0.2c-5.6,0.2-11.3,0.4-16.9,0.6c-2.5,0.1-2.5,3.7,0,3.8
		c5.6,0.2,11.3,0.4,16.9,0.6c5.2,0.2,10.6,0.8,15.7-0.2C484.8,305.5,484.8,301.8,482.5,301.3z"/>
	<path class="st2" d="M465.6,364.7c-6.2-1.2-12.9-0.3-19.1-0.2c-2.4,0-2.4,3.7,0,3.7c6.2,0.1,13,0.9,19.1-0.2
		C467.2,367.6,467.2,365,465.6,364.7z"/>
	<path class="st2" d="M128.8,391.8c-5.8-0.8-11.8-0.3-17.7-0.2c-1.7,0-1.7,2.7,0,2.7c5.9,0.2,11.8,0.6,17.7-0.2
		C130,394,130,392,128.8,391.8z"/>
	<path class="st2" d="M149.2,380.3c-6.9-0.4-13.8,0-20.7,0.2c-1.5,0.1-1.5,2.3,0,2.3c6.9,0.2,13.8,0.6,20.7,0.2
		C150.9,382.9,150.9,380.4,149.2,380.3z"/>
	<path class="st2" d="M427,334.7c-6.9-1.3-15.1-0.3-22,0.9c-0.7,0.1-0.7,1.4,0,1.5c6.9,1.1,15.1,2.2,22,0.9
		C428.6,337.7,428.6,335,427,334.7z"/>
	<path class="st2" d="M339,397.2c-8.3-1.4-16.8-0.3-25.2,0.1c-2.2,0.1-2.2,3.4,0,3.5c8.4,0.4,16.9,1.5,25.2,0.1
		C340.8,400.5,340.8,397.5,339,397.2z"/>
	<path class="st2" d="M346.8,385.1c-2.8-0.9-6.1-0.4-9-0.3c-1.9,0.1-1.9,2.8,0,2.9c2.9,0.1,6.2,0.6,9-0.3
		C348,387.1,348,385.5,346.8,385.1z"/>
	<path class="st2" d="M207.2,408.6c-5.7-0.4-11.6-1.2-17.3-0.4c-2,0.3-2,2.8,0,3c5.7,0.7,11.6,0,17.3-0.4
		C208.6,410.6,208.6,408.7,207.2,408.6z"/>
	<path class="st2" d="M63.8,325c-6.5-0.2-13.1-0.4-19.6-0.6c-6-0.1-12.3-0.6-18.2,0.6c-1.9,0.4-1.9,3.5,0,3.9
		c5.9,1.2,12.2,0.7,18.2,0.6c6.6-0.1,13.1-0.3,19.6-0.6C66.4,328.9,66.4,325.1,63.8,325z"/>
	<path class="st2" d="M63.8,300.6c-4.7-0.2-9.3-0.6-14,0c-2.2,0.3-2.2,3.1,0,3.4c4.7,0.6,9.3,0.2,14,0C66,303.9,66,300.7,63.8,300.6
		z"/>
	<path class="st2" d="M24.3,407.3c-2.3-0.4-4-0.9-6.3-0.5c-2,0.3-4.2,0.4-6.1,1.2c-0.8,0.3-0.8,1.7,0,2c1.9,0.8,4,0.9,6.1,1.2
		c2.3,0.4,4.1-0.1,6.3-0.5C26,410.4,26,407.6,24.3,407.3z"/>
	<path class="st2" d="M29.2,223c-6.5-0.6-14.2-1.8-20.6-0.1c-2,0.6-2,3.5,0,4.1c6.4,1.7,14.1,0.6,20.6-0.1
		C31.7,226.7,31.7,223.3,29.2,223z"/>
	<path class="st2" d="M44.9,200.8c-4-1.2-8.9-0.3-13.1-0.1c-2.1,0.1-2.1,3.2,0,3.2c4.1,0.2,9.1,1.1,13.1-0.1
		C46.4,203.4,46.4,201.3,44.9,200.8z"/>
	<path class="st2" d="M57.2,110.5c-7.2-0.6-14.5-0.5-21.7-0.7c-7.3-0.1-15.1-1.1-22.2,0.4c-2,0.4-2,3.6,0,4
		c6.6,1.4,13.6,0.6,20.3,0.5c7.9-0.1,15.8-0.1,23.6-0.7C59.5,113.9,59.5,110.7,57.2,110.5z"/>
	<path class="st2" d="M81.2,72.1c-6.5-0.5-12.8-0.4-19.3,0c-1.9,0.1-1.9,2.9,0,3c6.5,0.4,12.9,0.6,19.3,0
		C83.2,75,83.2,72.3,81.2,72.1z"/>
	<path class="st2" d="M57.2,31.5c-7.8-0.1-15.5-0.2-23.3-0.3c-7.2-0.1-14.8-0.6-21.9,0.7c-1.8,0.3-1.8,3.2,0,3.5
		c7.1,1.3,14.7,0.8,21.9,0.7c7.8-0.1,15.5-0.2,23.3-0.3C60,35.8,60,31.5,57.2,31.5z"/>
	<path class="st2" d="M114.5,41c-4.2-0.4-8.4-0.2-12.7-0.1c-1.9,0-1.9,2.8,0,2.9c4.2,0.1,8.4,0.2,12.7-0.1
		C116.2,43.5,116.2,41.2,114.5,41z"/>
	<path class="st2" d="M139.6-3.1c-10.2-1.6-21.4,0-31.7,0.2c-1.6,0-1.6,2.4,0,2.5c10.3,0.3,21.5,1.8,31.7,0.2
		C141-0.4,141-2.9,139.6-3.1z"/>
	<path class="st2" d="M59.5,11c-4.1-0.7-8.3-0.1-12.4,0.1c-1.5,0.1-1.5,2.3,0,2.3c4.1,0.2,8.3,0.9,12.4,0.1
		C60.8,13.4,60.8,11.3,59.5,11z"/>
	<path class="st2" d="M225.8-14.7c-11.8-0.6-23.5-0.1-35.3,0.3c-1.8,0.1-1.8,2.8,0,2.9c11.8,0.4,23.5,0.9,35.3,0.3
		C228-11.4,228-14.6,225.8-14.7z"/>
	<path class="st2" d="M296.9-11.6c-4.2-1-9.4,0-13.7,0.2c-1.4,0.1-1.4,2,0,2.1C287.5-9,292.6-8,296.9-9
		C298.2-9.4,298.2-11.3,296.9-11.6z"/>
	<path class="st2" d="M440.3-4c-8-1.1-16.4,0-24.5,0.3c-1.8,0.1-1.8,2.7,0,2.8c8,0.3,16.5,1.4,24.5,0.3C442-0.9,442-3.8,440.3-4z"/>
	<circle class="st3" cx="240.9" cy="202.3" r="186"/>
	<circle class="st2" cx="243.4" cy="204.3" r="113.3"/>
</g>
<g>
	<g>
		<g>
			<rect x="229.1" y="206.1" class="st4" width="40.7" height="32.8"/>
			<path class="st5" d="M232.7,229.8c11.1-8,27.8-5.9,37.1-16.2v-7.5h-40.7v27.3C230.1,232,231.3,230.8,232.7,229.8z"/>
		</g>
		<g>
			<g>
				<path class="st4" d="M199.2,145.3c1.2,8.9-2.4,16.7-8,17.4c-5.6,0.7-11.1-5.8-12.3-14.7c-1.2-8.9,2.4-16.7,8-17.4
					C192.6,129.8,198,136.4,199.2,145.3z"/>
				<path class="st5" d="M192.4,142.6c0,0,0-0.5-0.2-1.3c-0.2-0.8-0.5-2-1.1-3.2c-0.6-1.2-1.6-2.6-3-2.7c-0.4,0-0.7,0-1.1,0.1
					c-0.1,0-0.4,0.1-0.5,0.2c-0.1,0.1-0.3,0.1-0.4,0.3c-0.6,0.4-1.1,1.1-1.5,1.9c-0.4,0.8-0.6,1.6-0.8,2.5c-0.1,0.9-0.3,1.8-0.2,2.5
					c0.1,0.9,0.1,1.8,0.2,2.6c0.1,0.8,0.3,1.5,0.4,2.2c0.2,0.7,0.3,1.3,0.4,1.9c0.1,0.6,0.3,1.1,0.4,1.5c0.2,0.8,0.3,1.3,0.3,1.3
					s-0.3-0.4-0.7-1.2c-0.2-0.4-0.5-0.8-0.7-1.4c-0.2-0.5-0.5-1.2-0.8-1.9c-0.3-0.7-0.5-1.5-0.7-2.3c-0.3-0.8-0.3-1.7-0.5-2.6
					c-0.2-1-0.1-2,0.1-3c0.2-1,0.4-2,0.9-3c0.5-1,1.1-1.9,2.1-2.6c0.2-0.2,0.5-0.3,0.8-0.4c0.3-0.1,0.4-0.1,0.8-0.2
					c0.5-0.1,1.1-0.1,1.7,0c1.1,0.2,2,0.9,2.6,1.6c0.6,0.7,0.9,1.5,1.2,2.3c0.5,1.5,0.5,2.7,0.5,3.6
					C192.5,142.2,192.4,142.6,192.4,142.6z"/>
				<path class="st5" d="M192.4,142.6c0,0,0.6-0.9-3.1-1.2c0,0-4.1,0.5-2,5c0.5,1,0.8,1.9,1,3c0.3,1.5-0.5,3.5,0.4,4.8
					c1.1,1.7,4.4,0.8,4.7-1.1c0.2-1.5-1.5-4.1-2.3-5.1C191.2,147.9,188.8,144.7,192.4,142.6z"/>
				<path class="st5" d="M193.5,152.9c0,0,0.1,0.1,0.3,0.2c0.2,0.2,0.3,0.5,0.5,0.8c0.1,0.2,0.1,0.4,0.2,0.6c0,0.2,0.1,0.5,0,0.7
					c0,0.3-0.1,0.5-0.1,0.8c-0.1,0.3-0.2,0.5-0.3,0.7c-0.2,0.2-0.3,0.5-0.5,0.7c-0.2,0.2-0.4,0.3-0.6,0.5c-0.4,0.3-0.8,0.5-1.2,0.6
					c-0.7,0.2-1.3,0.2-1.3,0.2s0.2-0.5,0.6-1.1c0.1-0.1,0.2-0.3,0.3-0.4c0.1-0.2,0.2-0.3,0.3-0.5c0.1-0.2,0.2-0.3,0.3-0.5
					c0.1-0.1,0.2-0.3,0.3-0.5c0.2-0.3,0.4-0.6,0.5-1c0.1-0.2,0.1-0.3,0.2-0.5c0-0.2,0.1-0.3,0.2-0.5
					C193.4,153.4,193.5,152.9,193.5,152.9z"/>
			</g>
			<path class="st4" d="M249.4,44.6c-0.1,0-0.1,0-0.2,0c-0.1,0-0.1,0-0.2,0c-13.4,0.7-71.7,9.1-57.8,99l3.4,37.6
				c0,0,1.4,11.8,11.9,19.8c0,0,7.7,8,22.4,18.6c4.4,3.1,11.3,2.1,15.9,0c15.1-6.7,45.5-22,45.5-22c10.5-8,11-16.4,11-16.4l5.9-37.6
				C321.1,53.7,262.8,45.4,249.4,44.6z"/>
			<g>
				<path class="st6" d="M191.2,143.6l1.7,0l4.1,21.6c2.5,17.2,16.9,13.1,16.9,13.1s9.5-3.3,20.1-1.5c0,0,16.8-5.5,28.1,3.3
					c0,0,17.3,8.8,27.2-3.2l3.8-27.1h4.9c-0.3,7.7,6,12.3,6,12.3l-2.8,19c0,0-0.5,8.4-11,16.4c0,0-30.3,15.2-45.5,22
					c-4.7,2.1-11.5,3.1-15.9,0c-14.7-10.6-22.4-18.6-22.4-18.6c-10.5-8-11.9-19.8-11.9-19.8l-3.6-37.6"/>
			</g>
			<g>
				<g>
					<path class="st5" d="M225.5,128.1c0,2.7-0.3,5.5-0.5,8.2c-0.3,2.7-0.8,5.4-1.4,8.1c-0.6,2.7-1.4,5.4-2.4,8
						c-0.2,0.7-0.5,1.3-0.8,1.9c-0.3,0.6-0.6,1.3-0.9,1.9c-0.4,0.6-0.7,1.3-1.1,1.9l-1.3,1.8l0.1-0.1c-0.2,0.3-0.4,0.8-0.6,1.2
						c-0.2,0.4-0.3,0.9-0.3,1.3c-0.1,0.9,0,1.7,0.4,2.4c0.7,1.5,2.6,2.5,4.5,3.2c2,0.7,4.1,1.1,6.3,1.4c2.2,0.3,4.4,0.4,6.6,0.7
						c-2.2,0.4-4.4,0.6-6.7,0.7c-2.3,0-4.5-0.1-6.8-0.7c-2.2-0.5-4.7-1.6-6.2-4c-0.7-1.2-0.9-2.7-0.8-4c0.1-0.7,0.2-1.3,0.4-1.9
						c0.2-0.6,0.4-1.2,0.8-1.8l0.1-0.1l1.1-1.5l1-1.7c0.3-0.5,0.6-1.2,0.9-1.7c0.3-0.6,0.6-1.2,0.8-1.8c1.1-2.4,1.9-5,2.7-7.6
						c0.8-2.6,1.5-5.2,2.1-7.8C224.3,133.4,224.9,130.7,225.5,128.1z"/>
				</g>
			</g>
			<g>
				<path class="st7" d="M267.5,128.8c0,3.1-2.5,5.6-5.6,5.6c-3.1,0-5.6-2.5-5.6-5.6c0-3.1,2.5-5.6,5.6-5.6
					C265,123.2,267.5,125.7,267.5,128.8z"/>
				<path class="st8" d="M264.5,128.8c0,1.4-1.2,2.6-2.6,2.6c-1.4,0-2.6-1.2-2.6-2.6c0-1.4,1.2-2.6,2.6-2.6
					C263.3,126.2,264.5,127.3,264.5,128.8z"/>
				<path class="st9" d="M261.7,128.6c0,1.1-0.9,2-2,2c-1.1,0-2-0.9-2-2c0-1.1,0.9-2,2-2C260.8,126.6,261.7,127.5,261.7,128.6z"/>
			</g>
			<g>
				<path class="st7" d="M214.5,127.6c0,3.1-2.5,5.6-5.6,5.6c-3.1,0-5.6-2.5-5.6-5.6c0-3.1,2.5-5.6,5.6-5.6
					C212,122,214.5,124.5,214.5,127.6z"/>
				<path class="st8" d="M211.5,127.6c0,1.4-1.2,2.6-2.6,2.6c-1.4,0-2.6-1.2-2.6-2.6c0-1.4,1.2-2.6,2.6-2.6
					C210.3,125,211.5,126.2,211.5,127.6z"/>
				<path class="st9" d="M208.6,127.5c0,1.1-0.9,2-2,2c-1.1,0-2-0.9-2-2c0-1.1,0.9-2,2-2C207.7,125.4,208.6,126.3,208.6,127.5z"/>
			</g>
			<path class="st10" d="M251,108c0,0,10.9-5.5,24.1,1.6"/>
			<path class="st10" d="M221.3,108c0,0-10.9-5.5-24.1,1.6"/>
			<path class="st6" d="M322.7,67.5c6.6,31.4-8.1,64.2-8.1,64.2c-15.7-5.5-16.4,18.8-16.4,18.8l-5-0.2c3.8-30.5-6.6-44.2-6.3-44.9
				c6.9-16.4-5.8-30.3-5.8-30.3c-33.9,12.6-79.2-2.6-79.2-2.6c-13.1-12.4-2.9-32.8-2.9-32.8s3.8-30.7,53.7-31.4
				c0,0-7.3,24.4,31.7,19C284.4,27.3,315.1,31.3,322.7,67.5z"/>
			<path class="st6" d="M191,143.9c0,0-12.3-40-9.9-74.6c0,0,5.8-25.3,23-31.7c0,0-1.2,25.9,3.2,32.1c0,0-15.7,7.7-10.9,25.9
				c0,0-8.7,22.1-3.4,48.1L191,143.9z"/>
			<g>
				<path class="st4" d="M298.6,145.3c-1.2,8.9,2.4,16.7,8,17.4c5.6,0.7,11.1-5.8,12.3-14.7c1.2-8.9-2.4-16.7-8-17.4
					C305.3,129.8,299.8,136.4,298.6,145.3z"/>
				<path class="st5" d="M305.5,142.6c0,0,0-0.5,0.2-1.3c0.2-0.8,0.5-2,1.1-3.2c0.6-1.2,1.6-2.6,3-2.7c0.4,0,0.7,0,1.1,0.1
					c0.1,0,0.4,0.1,0.6,0.2c0.1,0.1,0.3,0.1,0.4,0.3c0.6,0.4,1.1,1.1,1.5,1.9c0.4,0.8,0.6,1.6,0.8,2.5c0.1,0.9,0.3,1.8,0.2,2.5
					c-0.1,0.9-0.1,1.8-0.3,2.6c-0.1,0.8-0.3,1.5-0.4,2.2c-0.2,0.7-0.3,1.3-0.4,1.9c-0.1,0.6-0.3,1.1-0.4,1.5
					c-0.2,0.8-0.3,1.3-0.3,1.3s0.3-0.4,0.7-1.2c0.2-0.4,0.5-0.8,0.7-1.4c0.2-0.5,0.5-1.2,0.8-1.9c0.3-0.7,0.5-1.5,0.7-2.3
					c0.3-0.8,0.3-1.7,0.5-2.6c0.2-1,0.1-2-0.1-3c-0.2-1-0.5-2-0.9-3c-0.5-1-1.1-1.9-2.1-2.6c-0.2-0.2-0.5-0.3-0.8-0.4
					c-0.3-0.1-0.4-0.1-0.8-0.2c-0.6-0.1-1.1-0.1-1.7,0c-1.1,0.2-2,0.9-2.6,1.6c-0.6,0.7-0.9,1.5-1.2,2.3c-0.5,1.5-0.5,2.7-0.5,3.6
					C305.4,142.2,305.5,142.6,305.5,142.6z"/>
				<path class="st5" d="M305.5,142.6c0,0-0.6-0.9,3.1-1.2c0,0,4.1,0.5,2,5c-0.5,1-0.8,1.9-1,3c-0.3,1.5,0.5,3.5-0.4,4.8
					c-1.1,1.7-4.4,0.8-4.7-1.1c-0.2-1.5,1.5-4.1,2.3-5.1C306.7,147.9,309.1,144.7,305.5,142.6z"/>
				<path class="st5" d="M304.4,152.9c0,0-0.1,0.1-0.3,0.2c-0.2,0.2-0.3,0.5-0.5,0.8c-0.1,0.2-0.1,0.4-0.1,0.6c0,0.2-0.1,0.5,0,0.7
					c0,0.3,0.1,0.5,0.1,0.8c0.1,0.3,0.2,0.5,0.3,0.7c0.1,0.2,0.3,0.5,0.5,0.7c0.2,0.2,0.4,0.3,0.6,0.5c0.4,0.3,0.8,0.5,1.2,0.6
					c0.7,0.2,1.3,0.2,1.3,0.2s-0.2-0.5-0.6-1.1c-0.1-0.1-0.2-0.3-0.3-0.4c-0.1-0.2-0.2-0.3-0.3-0.5c-0.1-0.2-0.2-0.3-0.3-0.5
					c-0.1-0.1-0.2-0.3-0.3-0.5c-0.2-0.3-0.3-0.6-0.5-1c-0.1-0.2-0.1-0.3-0.2-0.5c0-0.2-0.1-0.3-0.2-0.5
					C304.5,153.4,304.4,152.9,304.4,152.9z"/>
			</g>
			<g>
				<g>
					<path class="st9" d="M249.5,196.8c-0.3-7.1-7.2-12.7-15.7-12.7c-8.5,0-15.4,5.7-15.7,12.7L249.5,196.8z"/>
					<g>
						<path class="st5" d="M218,196.8c0,0,2-0.4,4.9-0.7c2.9-0.3,6.9-0.5,10.8-0.5c3.9,0,7.9,0.2,10.8,0.5c2.9,0.3,4.9,0.7,4.9,0.7
							s-2,0.4-4.9,0.7c-2.9,0.3-6.9,0.5-10.8,0.5c-3.9,0-7.9-0.2-10.8-0.5C220,197.2,218,196.8,218,196.8z"/>
					</g>
					<g>
						<path class="st5" d="M249.5,196.8c0,0-0.2-0.7-0.5-1.9c-0.1-0.6-0.5-1.2-0.9-2c-0.3-0.7-0.9-1.4-1.5-2.2
							c-0.5-0.8-1.5-1.4-2.3-2.2c-0.4-0.3-1-0.6-1.5-0.9c-0.5-0.3-1-0.6-1.6-0.8c-0.6-0.2-1.1-0.5-1.7-0.7c-0.6-0.1-1.2-0.3-1.9-0.4
							l-0.9-0.2l-1-0.1c-0.6,0-1.4-0.1-1.9-0.1l-2.1,0.2l-1,0.1l-0.9,0.2c-0.6,0.1-1.2,0.3-1.8,0.4c-0.6,0.2-1.2,0.5-1.7,0.7
							c-0.6,0.2-1.1,0.5-1.6,0.8c-0.5,0.3-1,0.6-1.5,0.9c-0.8,0.8-1.8,1.4-2.3,2.2c-0.6,0.8-1.2,1.5-1.5,2.2c-0.4,0.7-0.8,1.4-0.9,2
							c-0.3,1.2-0.5,1.8-0.5,1.8s0-0.7,0.1-1.9c0-0.6,0.2-1.4,0.5-2.2c0.2-0.4,0.2-0.9,0.5-1.3c0.3-0.4,0.5-0.9,0.8-1.4
							c0.5-1,1.4-1.8,2.3-2.7c0.5-0.4,1-0.8,1.5-1.2c0.5-0.4,1.1-0.8,1.7-1.1c0.6-0.3,1.3-0.6,1.9-0.9c0.7-0.2,1.4-0.4,2.1-0.6
							l1.1-0.3l1-0.1l2.1-0.2l2.3,0.2l1.1,0.1l1.1,0.3c0.7,0.2,1.4,0.4,2.1,0.6c0.6,0.3,1.3,0.6,1.9,0.9c0.6,0.3,1.2,0.6,1.7,1.1
							c0.5,0.4,1.1,0.8,1.5,1.2c0.8,1,1.8,1.7,2.3,2.7c0.3,0.5,0.5,0.9,0.8,1.4c0.3,0.4,0.3,0.9,0.5,1.3c0.3,0.9,0.5,1.6,0.5,2.2
							C249.5,196.1,249.5,196.8,249.5,196.8z"/>
					</g>
				</g>
				<path class="st5" d="M229.5,199.8c0,0,0.5-0.1,1.4-0.1c0.8,0,1.9,0,3-0.1c1.1,0,2.2,0.1,3,0.1c0.8,0,1.4,0.1,1.4,0.1v0.3
					c0,0-0.5,0.9-1.4,1.6c-0.4,0.4-0.9,0.7-1.4,0.9c-0.3,0.1-0.5,0.2-0.8,0.2l-0.8,0.1l-0.8-0.1c-0.3,0-0.5-0.2-0.8-0.2
					c-0.5-0.2-1-0.5-1.4-0.9c-0.8-0.7-1.4-1.6-1.4-1.6V199.8z"/>
			</g>
			<g>
				<path class="st6" d="M201.8,72.6c0,0,1.2,0.4,3.4,1c2.2,0.6,5.3,1.3,9,2.1c1.9,0.4,3.9,0.8,6.1,1.1c2.2,0.4,4.5,0.6,6.8,1
					c2.4,0.3,4.8,0.6,7.3,0.8c2.5,0.2,5,0.4,7.6,0.4l3.8,0.1c1.3,0,2.5,0,3.8-0.1c2.5,0,5-0.2,7.3-0.4c2.4-0.2,4.7-0.4,6.8-0.7
					c2.2-0.3,4.2-0.5,6.1-1c1.9-0.4,3.6-0.7,5.1-1c1.5-0.4,2.8-0.8,3.9-1c2.2-0.6,3.4-0.9,3.4-0.9s-1.2,0.5-3.3,1.3
					c-1.1,0.4-2.3,0.9-3.8,1.4c-1.5,0.5-3.2,0.9-5.1,1.4c-1.9,0.6-3.9,1-6.1,1.3c-1.1,0.2-2.2,0.4-3.4,0.6c-1.2,0.2-2.3,0.3-3.6,0.4
					c-2.4,0.3-4.9,0.5-7.5,0.5c-1.3,0-2.6,0.1-3.8,0.1l-3.9-0.1c-2.6,0-5.2-0.3-7.7-0.5c-2.5-0.2-5-0.6-7.4-0.9
					c-2.4-0.4-4.7-0.8-6.9-1.3c-2.2-0.5-4.2-1-6.1-1.5c-3.7-1-6.8-2.1-8.9-2.9C203,73.2,201.8,72.6,201.8,72.6z"/>
			</g>
			<path class="st6" d="M298,149.9"/>
		</g>
	</g>
	<path class="st11" d="M334.4,453c0,0,13.9,58.7,5.8,156.4c-1.1,12.9-79.5,20.4-80.6-1.1c-0.9-17.2-5.4-62.3-12.9-62.3
		c-6.1,0-13.3,31.2-18.6,55.4c-5.3,24.1-69.7,17.1-67.6-9.4c4.7-58.8,9.1-112.4,31.9-143.8C225.3,402.6,334.4,453,334.4,453z"/>
	<path class="st12" d="M301.5,618c20.4-112.8-9.7-165.5-9.7-165.5c28.7,7.1,42.6,0.5,42.6,0.5s15.4,74.7,5.8,157.4
		C338.9,621.2,299.9,626.5,301.5,618z"/>
	<path class="st13" d="M274.1,230.4c0,0,30.6-8,71.4,10.3c5.5,2.5,1.9,197.9-6.7,213c-8.6,15.1-143,4.8-150.4,0.2
		c-7.4-4.6-24.7-205-24.7-205c22.7-15.7,56.9-13.2,59.3-13.1c2.4,0.1,7.7,9.8,7.7,9.8s17.2-2.6,23.1-4.5
		C259.8,239.3,274.1,230.4,274.1,230.4z"/>
	<g>
		<path class="st14" d="M317,63.4c-5.6-17-21.5-28.1-36.4-37.9c-4.5-3-9.6-1-14.8-2.5c-3.1-0.9-10.6-1.3-13.2,0.8
			c-5.9,4.5,2.3,8.3,6.7,10.4c4.7,2.3,9.6,0.3,13.3,4c4.1,4,3,15.4,3.2,21.1c0.6,14.4,11.6,16.3,18.3,18.7c6,2.2,12.8,2.5,19,0.9
			c2.1-0.5,4.6-2.9,3.1-4.4"/>
		<path class="st15" d="M279.6,71.1c12.1-0.1,24.2,0,36.3,0.3l0.4,0.5l-0.2,2.6c1.5,1.5-1,3.9-3.1,4.4c-6.2,1.6-12.9,1.3-19-0.9
			C289,76.2,284.5,73.2,279.6,71.1z"/>
		<path class="st13" d="M340.2,245.4c17.8-5.2,29.3-69.7,26.9-81.5c-3.3-15.9-72.4-71.6-73.3-75.4c-1-3.8,24.5-29.6,29.5-31.1
			c4.9-1.5,75.2,57.8,88.6,92.8c13.3,35-23.7,150-63.9,157.8C307.8,316,340.2,245.4,340.2,245.4z"/>
	</g>
	<path class="st16" d="M275.3,219.8l-27.6,22.9c0,0,25.4,26.9,28.2,27c2.8,0.1,15.3-38.7,15.4-41.5
		C291.5,225.3,279.3,220.3,275.3,219.8z"/>
	<path class="st16" d="M222.3,224.6c0,0,25.2,16.4,25.5,18.1c0.3,1.6-11.8,28.7-14.6,29.1c-2.7,0.4-13.2-17-15.5-21.1
		C215.3,246.5,222.3,224.6,222.3,224.6z"/>
	<g>
		<path class="st14" d="M150.4,84.1c1.5-17.8,14.5-32.3,26.8-45.3c3.7-3.9,9.1-3.2,13.8-5.8c2.8-1.6,10-3.7,13.1-2.3
			c6.7,3-0.3,8.6-4.1,11.7c-4.1,3.3-9.2,2.5-12.1,6.9c-3.1,4.9,0.6,15.6,1.7,21.3c2.7,14.2-7.5,18.5-13.5,22.4
			c-5.4,3.5-11.8,5.4-18.3,5.2c-2.2,0-5.1-1.7-4-3.6"/>
		<path class="st15" d="M188.6,83.1c-11.8,2.7-23.6,5.5-35.3,8.6l-0.2,0.5l0.8,2.5c-1.2,1.9,1.8,3.5,4,3.6
			c6.4,0.1,12.9-1.7,18.3-5.2C180.6,90.2,184.3,86.2,188.6,83.1z"/>
	</g>
	<path class="st13" d="M161.8,250.1c-18.5-0.9-37-44.2-37.4-56.2c-0.5-16.2,53.9-86.3,54-90.2c0.1-3.9-30.7-23.1-35.8-23.5
		c-5.1-0.3-59.9,73.6-64.8,110.7C72.8,228.1,122,312,162.9,310.4C203.8,308.8,161.8,250.1,161.8,250.1z"/>
	<g>
		<path class="st16" d="M126,203.4c0.6,2.6,1.5,5.5,2.4,8.6c-1.2-2.5-1.8-5.4-2.3-8.1C126.1,203.8,126.1,203.6,126,203.4z"/>
	</g>
	<path class="st16" d="M77,193.8c1-7.3,3.9-16.1,7.9-25.4c-2.3,25.5,2.3,51.5,13.2,74.7c12.1,25.5,35.4,32.5,59.6,47.1
		c1.8,1.1,3.6,2.1,4.8,3.8c1.4,1.9,1.8,4.3,2,6.7c0.5,4.4,0.5,8.9,0.1,13.3C124.2,312.9,72.2,230.5,77,193.8z"/>
</g>
<g>
	<path class="st17" d="M281.6,67c1.9-2.1,3.9-2.5,6.3-1.1l12.6,7.4c2.5,1.5,2.8,3.2,0.9,5.4l-9.8,11.5c-1.9,2.1-3.9,2.5-6.2,1.2
		l-12.6-7.4c-2.5-1.5-2.9-3.3-1-5.4L281.6,67z M294.4,61.8c-2.4-1.4-2.7-3.2-0.9-5.4l32.9-43.2c1.6-2.3,3.6-2.7,5.8-1.4l15,8.9
		c2.3,1.4,2.6,3.1,0.7,5.2l-38.2,40.1c-2,2-4.1,2.4-6.3,1.1L294.4,61.8z"/>
</g>
<rect x="-14.1" y="357.4" class="st18" width="513" height="128.5"/>
<g>
	<path class="st19" d="M-15.9,207.4h345.1c6.6,0,11.9,5.3,11.9,11.9V416v1v22.4c0,6.6-5.3,11.9-11.9,11.9H-15.9V207.4z"/>
	<g transform="matrix(0.520313,0,0,0.520313,285.011,316.096)">
		<path class="st19" d="M-330,313.3l5.2-228.9h140l5.3,229.4c0.6,7.9,2.9,15.5,6.6,22.3h-164C-333,329.2-330.6,321.5-330,313.3"/>
	</g>
	<g transform="matrix(0.520313,0,0,0.520313,303.13,364.215)">
		<path class="st20" d="M-401.1,243.7h222.9c2.9,0,5.3,2.4,5.3,5.3v15.5c0,2.9-2.4,5.3-5.3,5.3h-222.9c-2.9,0-5.3-2.4-5.3-5.3V249
			C-406.4,246.1-404.1,243.7-401.1,243.7"/>
	</g>
	<circle class="st20" cx="151" cy="327.8" r="17.6"/>
</g>
<g>
	<polygon class="st21" points="99.5,173.2 53.9,114.4 92.6,118.6 127.8,189.2 91.6,185.3 113.1,238 55.1,167.5 	"/>
</g>
<g>
	<g id="XMLID_38_">
		<g id="XMLID_39_">
			<path id="XMLID_49_" class="st17" d="M106.5,339c-7.8-2.6-13-9.9-13-18.1c0-3.6,1-7.2,2.9-10.2l45.8-79.7
				c3.5-6.6,9.9-10.6,17.1-10.6c2.2,0,4.2,0.3,6.2,1c4.9,1.7,8.8,5.3,11.5,10.6l44.7,76.9c2.2,3.6,4,6.9,4,11.7c0,5.1-2,10-5.6,13.6
				c-3.2,3.2-7.4,5.2-11.8,5.6l0,0.1l-96.5,0.3l0,0C110,340,108.3,339.6,106.5,339z"/>
			<path id="XMLID_48_" class="st9" d="M219.6,310.1l-44.7-76.9c-3.1-6.3-8.5-10.3-15.5-10.3c-6.6,0-12,3.8-14.9,9.3L98.6,312
				c-1.6,2.6-2.6,5.7-2.6,8.9c0,9.2,7.5,16.7,16.8,16.7c0.2,0,0.4,0,0.5,0l0,0l93.2-0.3l0,0c0,0,0,0,0.1,0c9.2,0,16.7-7.5,16.7-16.8
				C223.3,316.6,221.8,313.7,219.6,310.1z"/>
			<path id="XMLID_47_" class="st22" d="M112.8,332.4c-6.3,0-11.5-5.1-11.5-11.5c0-2.2,0.6-4.3,1.8-6.2l44.4-77.3l1.7-2.9
				c2.3-4,5.9-6.4,10.3-6.4c4.7,0,8.1,2.3,10.7,7.1l45.5,78.2c1.1,1.9,2.5,4.5,2.5,7.2c0,6.3-5.1,11.5-11.4,11.5
				C206.7,332.1,112.9,332.4,112.8,332.4z"/>
			<path id="XMLID_46_" class="st17" d="M209.3,314.7L209.3,314.7l-49.9-86.5L110,314.9c-0.8,1.3-1.3,2.8-1.3,4.4c0,4.4,3.6,8,8.1,8
				c0.1,0,0.2,0,0.3,0l0,0l84.8-0.2l0,0c0.2,0,0.4,0,0.6,0c4.4,0,8-3.6,8-8.1C210.6,317.4,210.1,315.9,209.3,314.7z"/>
			<path id="XMLID_45_" class="st23" d="M115.7,332.3c-5-0.2-8.9-4.3-8.9-9.3c0-2.3,0.8-4.5,2.2-6.1c0.2-0.7,0.5-1.4,0.9-2
				l49.4-86.7l0-0.1c-4.4,0-8,2.4-10.3,6.4l-1.7,2.9L103,314.7c-1.2,1.8-1.8,4-1.8,6.2c0,6.3,5.2,11.5,11.5,11.5
				C112.8,332.4,113.8,332.4,115.7,332.3L115.7,332.3z"/>
			<path id="XMLID_41_" class="st9" d="M160,321.8c-5,0-9-4-9-9c0-5,4-9,9-9c5,0,9,4,9,9C169,317.8,165,321.8,160,321.8z M169,253.7
				c0-4.1-4.1-3.2-9.2-3.2c-5.1,0-9.2-0.9-9.2,3.2c0,0.3,0,0.6,0.1,0.8l3.5,37.7c0,3.2,2.6,5.7,5.8,5.7c3.2,0,5.7-2.6,5.7-5.8
				l3.4-37.8C169.1,254.2,169,254,169,253.7z"/>
		</g>
	</g>
	<g id="XMLID_36_">
		<path class="st17" d="M90.2,312.8c-1.1,3.2-1.8,6.5-2,9.9c-0.2,3.3,0.2,6.6,1.3,9.7c0.5,1.5,1.3,3,2.2,4.3c0.4,0.7,1,1.3,1.5,2
			c0.3,0.3,0.6,0.6,0.8,0.9c0.3,0.3,0.6,0.6,0.9,0.9c2.4,2.3,5.2,4.2,8.1,5.9c-3.3-1-6.4-2.6-9.1-4.9c-2.7-2.2-4.9-5.2-6.1-8.5
			c-1.2-3.4-1.5-7-1-10.4C87.3,319.1,88.4,315.7,90.2,312.8z"/>
	</g>
	<g id="XMLID_34_">
		<path class="st17" d="M84.6,304.6c-1.2,2.1-2.3,4.3-3.2,6.5c-0.9,2.2-1.6,4.5-2.2,6.8c-0.3,1.1-0.4,2.3-0.6,3.5
			c-0.1,0.6-0.1,1.2-0.1,1.8l-0.1,0.9l0,0.9c-0.1,2.3,0.4,4.6,1.1,6.8c1.6,4.3,4.2,8.5,7.6,11.7c1.7,1.6,3.7,3,5.8,4.1
			c2.1,1.2,4.4,2,6.6,2.9c-2.4-0.4-4.7-1.1-7-2c-2.3-1-4.4-2.3-6.3-3.8c-1.9-1.6-3.6-3.5-5-5.5c-1.4-2.1-2.5-4.3-3.4-6.7
			c-1.5-4.8-1.4-10.1,0.1-14.8C79.2,312.8,81.6,308.4,84.6,304.6z"/>
	</g>
	<g id="XMLID_31_">
		<path class="st17" d="M229.5,308.5c2.1,3.3,3.5,7.1,4,11c0.3,2,0.3,4,0,6c-0.1,1-0.4,2-0.7,3c-0.3,0.9-0.7,1.9-1,2.8
			c-0.8,1.8-1.7,3.6-2.9,5.2c-1.2,1.6-2.5,3.1-4.1,4.4c-1.5,1.3-3.3,2.3-5.1,3.1c-1.8,0.8-3.7,1.3-5.6,1.6c1.8-0.7,3.6-1.5,5.2-2.4
			c1.7-1,3.2-2.1,4.5-3.4c2.7-2.6,4.8-5.8,6.2-9.3c0.4-0.9,0.7-1.7,1-2.6c0.3-0.9,0.6-1.8,0.7-2.7c0.4-1.8,0.4-3.7,0.3-5.6
			C231.8,315.9,230.9,312.1,229.5,308.5z"/>
	</g>
	<g id="XMLID_28_">
		<path class="st17" d="M220.1,356.2c2.2-1.1,4.3-2.4,6.2-3.9c2-1.4,3.8-3.1,5.4-4.8c1.6-1.8,3.2-3.6,4.4-5.6c0.7-1,1.2-2.1,1.8-3.1
			c0.5-1.1,1-2.2,1.4-3.3c0.9-2.2,1.6-4.5,2-6.9c0.5-2.3,0.7-4.7,0.8-7.1c0-4.8-0.9-9.6-2.9-14.2c2.6,4.2,4.1,9.1,4.3,14.1
			c0.3,5-0.7,10.1-2.5,14.7c-1.8,4.7-4.7,9-8.4,12.4C229.2,351.9,224.8,354.6,220.1,356.2z"/>
	</g>
</g>
</svg>
