<?xml version="1.0" encoding="utf-8"?>
<!-- Generator: Adobe Illustrator 24.0.1, SVG Export Plug-In . SVG Version: 6.00 Build 0)  -->
<svg version="1.1" id="Layer_1" xmlns:serif="http://www.serif.com/"
	 xmlns="http://www.w3.org/2000/svg" xmlns:xlink="http://www.w3.org/1999/xlink" x="0px" y="0px" width="280.6px" height="184.3px"
	 viewBox="0 0 280.6 184.3" style="enable-background:new 0 0 280.6 184.3;" xml:space="preserve">
<style type="text/css">
	.st0{opacity:0.26;fill:#4D4D4D;}
	.st1{fill:#AC5D41;}
	.st2{fill:#AE5F42;}
	.st3{opacity:0.2;fill:#231F20;}
	.st4{fill:#763D26;}
	.st5{opacity:0.1;fill:#FFFFFF;}
	.st6{fill:#6E3E9E;}
	.st7{opacity:0.11;fill:#FFFFFF;}
	.st8{fill:#FFFFFF;}
	.st9{opacity:0.4;}
</style>
<g>
	<g>
		<g>
			<polygon class="st0" points="78,178.6 195.6,180.2 228,143.8 51.1,146.4 			"/>
			<polygon class="st1" points="276.9,125.1 3.7,125.1 10.4,146.7 271.3,148.7 			"/>
			<g>
				<polygon class="st2" points="86.6,147.2 101.8,178.6 78,178.6 50.7,147.2 				"/>
				<polygon class="st3" points="50.7,147.2 86.6,147.2 92.7,159.7 54.6,151.7 				"/>
				<polygon class="st4" points="101.8,178.6 101.8,147.2 86.6,147.2 				"/>
			</g>
			<g>
				<polygon class="st2" points="188.9,148.2 173.7,179.6 197.5,179.6 224.8,148.2 				"/>
				<polygon class="st3" points="224.8,148.2 188.9,148.2 182.8,160.7 220.9,152.7 				"/>
				<polygon class="st4" points="173.7,179.6 173.7,148.2 188.9,148.2 				"/>
			</g>
			<g>
				<polygon class="st5" points="59.1,126 58.1,146.4 18.7,146.2 17.6,125.7 				"/>
				<polygon class="st5" points="68,126.1 75.7,126.1 73.7,146.4 67.4,146.2 				"/>
			</g>
			<g>
				<polygon class="st5" points="221.2,127.1 222.1,148.8 261.4,148.9 262.7,127.1 				"/>
				<polygon class="st5" points="212.3,127.1 204.7,127 206.5,148.6 212.8,148.5 				"/>
			</g>
		</g>
	</g>
	<g>
		<g id="XMLID_60_">
			<g>
				<path class="st6" d="M140.3,4.1c33.1,0,60,26.9,60,60c0,33.1-26.9,60-60,60s-60-26.9-60-60C80.3,31,107.2,4.1,140.3,4.1z"/>
			</g>
		</g>
		<g id="XMLID_59_">
			<g>
				<path class="st7" d="M140.3,11.3c29.1,0,52.9,23.7,52.9,52.9c0,29.1-23.7,52.9-52.9,52.9S87.4,93.3,87.4,64.1
					C87.4,35,111.2,11.3,140.3,11.3z"/>
			</g>
		</g>
	</g>
	<g>
		<path class="st8" d="M171.5,40.8h-10.6v-5.9c0-2-1.6-3.6-3.6-3.6h-40.2c-2,0-3.6,1.6-3.6,3.6v5.9h-1.2c-3.3,0-5.9,2.7-5.9,5.9
			v35.5c0,3.3,2.7,5.9,5.9,5.9h20l-0.9,7.1h-1.3c-1.3,0-2.4,1.1-2.4,2.4v2.4h-2.4v2.4h33.1V100h-2.4v-2.4c0-1.3-1.1-2.4-2.4-2.4
			h-1.3l-0.9-7.1h20c3.3,0,5.9-2.7,5.9-5.9V46.7C177.4,43.4,174.8,40.8,171.5,40.8z M117.1,33.7h40.2c0.7,0,1.2,0.5,1.2,1.2v3.5
			h-42.6v-3.5C115.9,34.2,116.4,33.7,117.1,33.7z M112.3,43.2h1.2v27.2c0,2,1.6,3.6,3.6,3.6h40.2c2,0,3.6-1.6,3.6-3.6h-2.4
			c0,0.7-0.5,1.2-1.2,1.2h-40.2c-0.7,0-1.2-0.5-1.2-1.2V40.8h42.6v29.6h2.4V43.2h10.6c2,0,3.6,1.6,3.6,3.5v29.6h-66.3V46.7
			C108.8,44.7,110.4,43.2,112.3,43.2z M153.8,100h-23.7v-2.4h23.7V100z M150.1,95.2h-16.3l0.9-7.1h14.5L150.1,95.2z M171.5,85.8
			h-59.2c-2,0-3.6-1.6-3.6-3.6v-3.6h66.3v3.6C175.1,84.2,173.5,85.8,171.5,85.8z"/>
		<path class="st8" d="M169.1,81h2.4v2.4h-2.4V81z"/>
		<path class="st8" d="M118.3,34.9h2.4v2.4h-2.4V34.9z"/>
		<path class="st8" d="M123,34.9h2.4v2.4H123V34.9z"/>
		<path class="st8" d="M127.7,34.9h2.4v2.4h-2.4V34.9z"/>
		<path class="st8" d="M119.7,46h7.3c0.6,0,1.1-0.5,1.1-1.1c0-0.6-0.5-1.1-1.1-1.1h-7.3c-0.6,0-1.1,0.5-1.1,1.1
			C118.6,45.5,119.1,46,119.7,46z"/>
		<path class="st8" d="M131,46h24.2c0.6,0,1.1-0.5,1.1-1.1c0-0.6-0.5-1.1-1.1-1.1H131c-0.6,0-1.1,0.5-1.1,1.1
			C129.9,45.5,130.4,46,131,46z"/>
		<path class="st8" d="M119.7,50.2h3.1c0.6,0,1.1-0.5,1.1-1.1c0-0.6-0.5-1.1-1.1-1.1h-3.1c-0.6,0-1.1,0.5-1.1,1.1
			C118.6,49.7,119.1,50.2,119.7,50.2z"/>
		<path class="st8" d="M142.9,49.1c0-0.6-0.5-1.1-1.1-1.1h-1.9c-0.6,0-1.1,0.5-1.1,1.1c0,0.6,0.5,1.1,1.1,1.1h1.9
			C142.4,50.2,142.9,49.7,142.9,49.1z"/>
		<path class="st8" d="M126.6,48c-0.6,0-1.1,0.5-1.1,1.1c0,0.6,0.5,1.1,1.1,1.1h9.3c0.6,0,1.1-0.5,1.1-1.1c0-0.6-0.5-1.1-1.1-1.1
			H126.6z"/>
		<path class="st8" d="M144.1,49.1c0,0.6,0.5,1.1,1.1,1.1h9.8c0.6,0,1.1-0.5,1.1-1.1c0-0.6-0.5-1.1-1.1-1.1h-9.8
			C144.6,48,144.1,48.5,144.1,49.1z"/>
		<path class="st8" d="M146.7,53.8h-5.2c-0.6,0-1.1,0.5-1.1,1.1s0.5,1.1,1.1,1.1h5.2c0.6,0,1.1-0.5,1.1-1.1S147.3,53.8,146.7,53.8z"
			/>
		<path class="st8" d="M148.9,54.9c0,0.6,0.5,1.1,1.1,1.1h5.1c0.6,0,1.1-0.5,1.1-1.1s-0.5-1.1-1.1-1.1H150
			C149.4,53.8,148.9,54.3,148.9,54.9z"/>
		<path class="st8" d="M140.3,60.1c0,0.6,0.5,1.1,1.1,1.1h8.2c0.6,0,1.1-0.5,1.1-1.1s-0.5-1.1-1.1-1.1h-8.2
			C140.8,59,140.3,59.5,140.3,60.1z"/>
		<path class="st8" d="M152,60.1c0,0.6,0.5,1.1,1.1,1.1h2c0.6,0,1.1-0.5,1.1-1.1s-0.5-1.1-1.1-1.1h-2C152.5,59,152,59.5,152,60.1z"
			/>
		<path class="st8" d="M144.6,64.2h-3.2c-0.6,0-1.1,0.5-1.1,1.1c0,0.6,0.5,1.1,1.1,1.1h3.2c0.6,0,1.1-0.5,1.1-1.1
			C145.7,64.7,145.2,64.2,144.6,64.2z"/>
		<path class="st8" d="M155.2,64.2h-7.3c-0.6,0-1.1,0.5-1.1,1.1c0,0.6,0.5,1.1,1.1,1.1h7.3c0.6,0,1.1-0.5,1.1-1.1
			C156.3,64.7,155.8,64.2,155.2,64.2z"/>
		<path class="st8" d="M120.2,67.6h14.7c1,0,1.8-0.8,1.8-1.8V54.5c0-1-0.8-1.8-1.8-1.8h-14.7c-1,0-1.8,0.8-1.8,1.8v11.2
			C118.3,66.7,119.1,67.6,120.2,67.6z M120.5,54.9h14v10.5h-14V54.9z"/>
	</g>
	<g id="XMLID_1_" class="st9">
		<g>
			<path class="st8" d="M140.3,4.1c33.1,0,60,26.9,60,60c0,33.1-26.9,60-60,60s-60-26.9-60-60C80.3,31,107.2,4.1,140.3,4.1z"/>
		</g>
	</g>
</g>
</svg>
