<?xml version="1.0" encoding="utf-8"?>
<!-- Generator: Adobe Illustrator 24.0.1, SVG Export Plug-In . SVG Version: 6.00 Build 0)  -->
<svg version="1.1" id="Layer_1" xmlns="http://www.w3.org/2000/svg" xmlns:xlink="http://www.w3.org/1999/xlink" x="0px" y="0px"
	 width="280.6px" height="184.3px" viewBox="0 0 280.6 184.3" style="enable-background:new 0 0 280.6 184.3;" xml:space="preserve"
	>
<style type="text/css">
	.st0{opacity:0.26;fill:#4D4D4D;}
	.st1{fill:#AC5D41;}
	.st2{fill:#AE5F42;}
	.st3{opacity:0.2;fill:#231F20;}
	.st4{fill:#763D26;}
	.st5{opacity:0.1;fill:#FFFFFF;}
	.st6{fill:#E52568;}
	.st7{opacity:0.11;fill:#FFFFFF;}
	.st8{fill:#FFFFFF;}
</style>
<title>Artboard 23 copy 4</title>
<g>
	<g>
		<g>
			<polygon class="st0" points="78.2,179.2 195.8,180.8 228.2,144.4 51.3,147 			"/>
			<polygon class="st1" points="277.1,125.7 3.9,125.7 10.6,147.3 271.5,149.3 			"/>
			<g>
				<polygon class="st2" points="86.8,147.8 102,179.2 78.2,179.2 50.9,147.8 				"/>
				<polygon class="st3" points="50.9,147.8 86.8,147.8 92.9,160.3 54.8,152.3 				"/>
				<polygon class="st4" points="102,179.2 102,147.8 86.8,147.8 				"/>
			</g>
			<g>
				<polygon class="st2" points="189.1,148.8 173.9,180.2 197.7,180.2 225,148.8 				"/>
				<polygon class="st3" points="225,148.8 189.1,148.8 183,161.3 221.1,153.3 				"/>
				<polygon class="st4" points="173.9,180.2 173.9,148.8 189.1,148.8 				"/>
			</g>
			<g>
				<polygon class="st5" points="59.3,126.6 58.3,147 18.9,146.8 17.8,126.3 				"/>
				<polygon class="st5" points="68.2,126.7 75.9,126.7 73.9,147 67.6,146.8 				"/>
			</g>
			<g>
				<polygon class="st5" points="221.4,127.7 222.3,149.4 261.6,149.5 262.9,127.7 				"/>
				<polygon class="st5" points="212.5,127.7 204.9,127.6 206.7,149.2 213,149.1 				"/>
			</g>
		</g>
	</g>
	<g>
		<g id="XMLID_58_">
			<g>
				<path class="st6" d="M140.5,4.2c33.1,0,60,26.9,60,60c0,33.1-26.9,60-60,60s-60-26.9-60-60C80.5,31.1,107.4,4.2,140.5,4.2z"/>
			</g>
		</g>
		<g id="XMLID_57_">
			<g>
				<path class="st7" d="M140.5,11.4c29.1,0,52.9,23.7,52.9,52.9c0,29.1-23.7,52.9-52.9,52.9S87.6,93.4,87.6,64.2
					C87.6,35.1,111.4,11.4,140.5,11.4z"/>
			</g>
		</g>
	</g>
	<g>
		<path class="st8" d="M152.2,34.1c2.7-1,5.8,0.1,7.3,2.6c0.2,0.4,0.6,0.6,1,0.6c0.4,0,0.8-0.2,1-0.6c0.2-0.4,0.2-0.8,0-1.2
			c-2.1-3.5-6.3-5-10.1-3.6c-0.6,0.2-0.9,0.9-0.7,1.5C150.9,34,151.6,34.3,152.2,34.1z"/>
		<path class="st8" d="M174.7,94.1h-68.6c-0.7,0-1.2,0.5-1.2,1.2c0,0.7,0.5,1.2,1.2,1.2h68.6c0.7,0,1.2-0.5,1.2-1.2
			C175.9,94.6,175.3,94.1,174.7,94.1z"/>
		<path class="st8" d="M139.2,59.7c0-0.7-0.5-1.2-1.2-1.2h-15.4c-0.7,0-1.2,0.5-1.2,1.2c0,0.7,0.5,1.2,1.2,1.2H138
			C138.7,60.9,139.2,60.4,139.2,59.7z"/>
		<path class="st8" d="M132.1,63.3h-3.6c-0.7,0-1.2,0.5-1.2,1.2c0,0.7,0.5,1.2,1.2,1.2h3.6c0.7,0,1.2-0.5,1.2-1.2
			C133.3,63.8,132.7,63.3,132.1,63.3z"/>
		<path class="st8" d="M174.7,84.6c0.7,0,1.2-0.5,1.2-1.2c0-0.7-0.5-1.2-1.2-1.2h-5.9v-4.7h5.9c0.7,0,1.2-0.5,1.2-1.2
			s-0.5-1.2-1.2-1.2h-16.6c-2,0-3.6,1.6-3.6,3.6V81c0,0.4,0.1,0.8,0.2,1.2h-2.6c-2,0-3.6,1.6-3.6,3.6v2.4c0,0.4,0.1,0.8,0.2,1.2
			h-3.8v-1.2c0-2-1.6-3.6-3.5-3.6h-4.7v-4.7h9.5c2.6,0,4.7-2.1,4.7-4.7v-7.4c4.8,1.3,9.8-1.4,11.3-6.1c4.2,1.5,7,5.5,7,10
			c0,0.7,0.5,1.2,1.2,1.2c0.7,0,1.2-0.5,1.2-1.2c0-6-4.1-11.2-9.9-12.6h0c-0.4-0.1-0.8-0.2-1.1-0.2c1.9-1.3,3.5-3.1,4.5-5.2
			c3.3-0.6,7.2-2.3,7.2-9.2c0-10.5-8.5-18.9-18.9-18.9s-18.9,8.5-18.9,18.9c0,3.6,1.1,5.7,2.5,7.1h-23.8c-2.6,0-4.7,2.1-4.7,4.7
			v18.9c0,2.6,2.1,4.7,4.7,4.7h9.5v4.7h-4.7c-2,0-3.6,1.6-3.6,3.6v1.2h-8.3c-0.7,0-1.2,0.5-1.2,1.2c0,0.7,0.5,1.2,1.2,1.2h68.6
			c0.7,0,1.2-0.5,1.2-1.2c0-0.7-0.5-1.2-1.2-1.2H170v-4.7H174.7z M156.9,81v-2.4c0-0.7,0.5-1.2,1.2-1.2h8.3v4.7h-8.3
			C157.5,82.2,156.9,81.7,156.9,81z M153.4,65.7c-0.8,0-1.6-0.1-2.4-0.4v-4.3h7.7c0.4,0,0.9,0,1.3,0.1h0
			C159,63.8,156.4,65.7,153.4,65.7z M153.4,27.8c9.1,0,16.6,7.4,16.6,16.6c0,4.1-1.5,5.8-3.9,6.6c0.2-1,0.4-2,0.4-3v-7.1
			c0-0.7-0.5-1.2-1.2-1.2H151c-0.7,0-1.2,0.5-1.2,1.2s0.5,1.2,1.2,1.2h13v5.9c0,3.3-1.4,6.3-4,8.4c-2.5,2-5.9,2.8-9,2v-2.1
			c0-2.6-2.1-4.7-4.7-4.7h-2.9c-0.4-1.1-0.6-2.3-0.6-3.6V42h2.4c0.7,0,1.2-0.5,1.2-1.2s-0.5-1.2-1.2-1.2h-3.5
			c-0.7,0-1.2,0.5-1.2,1.2v7.1c0,1,0.1,2,0.4,3c-2.5-0.7-3.9-2.4-3.9-6.6C136.8,35.2,144.2,27.8,153.4,27.8z M125,75.1
			c0-2,1.6-3.6,3.5-3.6h2.4c0.7,0,1.2-0.5,1.2-1.2c0-0.7-0.5-1.2-1.2-1.2h-2.4c-3.3,0-5.9,2.7-5.9,5.9v2.4h-9.5
			c-1.3,0-2.4-1.1-2.4-2.4V56.2c0-1.3,1.1-2.4,2.4-2.4h33.1c1.3,0,2.4,1.1,2.4,2.4v18.9c0,1.3-1.1,2.4-2.4,2.4h-9.5v-2.4
			c0-0.7-0.5-1.2-1.2-1.2s-1.2,0.5-1.2,1.2v9.5H125V75.1z M116.7,88.1c0-0.7,0.5-1.2,1.2-1.2h23.7c0.7,0,1.2,0.5,1.2,1.2v1.2h-26
			V88.1z M152.2,89.3c-0.7,0-1.2-0.5-1.2-1.2v-2.4c0-0.7,0.5-1.2,1.2-1.2h5.9v4.7H152.2z M167.6,89.3h-7.1v-4.7h7.1V89.3z"/>
	</g>
</g>
</svg>
