<?xml version="1.0" encoding="UTF-8" standalone="no"?>
<!DOCTYPE svg PUBLIC "-//W3C//DTD SVG 1.1//EN" "http://www.w3.org/Graphics/SVG/1.1/DTD/svg11.dtd">
<svg width="100%" height="100%" viewBox="0 0 150 150" version="1.1" xmlns="http://www.w3.org/2000/svg" xmlns:xlink="http://www.w3.org/1999/xlink" xml:space="preserve" xmlns:serif="http://www.serif.com/" style="fill-rule:evenodd;clip-rule:evenodd;stroke-linecap:round;stroke-miterlimit:10;">
    <circle cx="75" cy="75" r="72.5" style="fill:white;"/>
    <clipPath id="_clip1">
        <circle cx="75" cy="75" r="72.5"/>
    </clipPath>
    <g clip-path="url(#_clip1)">
        <g>
            <g>
                <rect x="68.9" y="101.5" width="19.6" height="15.5" style="fill:rgb(252,194,135);"/>
                <path d="M86.8,112.6C81.4,108.8 73.5,109.8 69.1,104.9L69.1,101.3L88.7,101.3L88.7,114.2C88,113.7 87.5,113.1 86.8,112.6Z" style="fill:rgb(209,162,115);fill-rule:nonzero;"/>
            </g>
            <path d="M39.2,138.8C37.1,130 43.5,123.4 43.5,123.4L71.7,113.3L86.1,113.3L103.9,124.1C103.9,124.1 108.6,127.5 107.8,138.2L104.7,200.7C104.7,200.7 104.3,203.9 104.6,211.7L79.3,211.7L78.9,211.7L53.2,211.7C53.8,206.3 53.2,200.7 53.2,200.7L39.2,138.8Z" style="fill:rgb(252,194,135);fill-rule:nonzero;"/>
            <path d="M69.2,113.7C69.2,113.7 51.6,114.7 39.1,127.1C35.5,130.7 44.1,169.5 48.6,194C50.7,204.8 49.2,211.7 50.3,213.6C53.8,219.8 105.5,216 108.4,214.1C109.4,213.6 108.2,204.6 108.4,192.4C108.8,166 109.5,124.9 109.5,124.9C100.5,118.6 90.4,115.9 89.5,115.9C88.5,116 86.5,119.8 86.5,119.8C86.5,119.8 79.7,118.7 77.3,118C74.8,117.3 69.2,113.7 69.2,113.7Z" style="fill:rgb(191,220,243);fill-rule:nonzero;"/>
            <path d="M68.8,109.4L79.7,118.6C79.7,118.6 72.7,128.7 71.6,128.8C70.5,128.9 62.6,114 62.5,112.8C62.4,111.6 67.1,109.6 68.8,109.4Z" style="fill:rgb(225,244,253);fill-rule:nonzero;"/>
            <path d="M89.6,111.3C89.6,111.3 79.7,117.9 79.5,118.5C79.4,119.1 84.2,130.1 85.2,130.3C86.3,130.5 90.4,123.4 91.4,121.9C92.3,120.1 89.6,111.3 89.6,111.3Z" style="fill:rgb(225,244,253);fill-rule:nonzero;"/>
            <g transform="matrix(-1.07921,-0.207415,-0.185199,0.96362,259.771,329.198)">
                <path d="M137.8,-140.3C144.9,-149.6 153.8,-160.3 164.5,-172.3C168.4,-176.6 180.6,-177.7 183.8,-176.2C187.7,-174.5 184.9,-162 179.3,-155.8C179.3,-155.8 159.3,-133.5 150.3,-123.5C141.2,-113.5 120.3,-117.6 137.8,-140.3Z" style="fill:rgb(191,220,243);fill-rule:nonzero;"/>
            </g>
            <g transform="matrix(-1.07921,-0.207415,-0.185199,0.96362,259.771,329.198)">
                <path d="M248.4,-114.7C244.8,-126.3 240.2,-139.9 234.1,-155.5C231.8,-161.2 221,-167.3 217.4,-167.2C213.3,-167.1 211.7,-154.5 214.9,-146.3C214.9,-146.3 226,-117.3 231.1,-104.2C236.3,-91.3 257,-86.5 248.4,-114.7Z" style="fill:rgb(191,220,243);fill-rule:nonzero;"/>
            </g>
            <g transform="matrix(0.403218,0.0170215,-0.0170215,0.403218,-22.4736,-1.69256)">
                <g>
                    <path d="M317,193.8C315.6,204.4 319.8,213.7 326.5,214.6C333.2,215.5 339.7,207.6 341.1,197C342.5,186.4 338.2,177.1 331.6,176.2C325,175.3 318.4,183.2 317,193.8Z" style="fill:rgb(255,191,125);fill-rule:nonzero;"/>
                    <path d="M325.2,190.7C325.2,190.7 325.3,190.1 325.5,189.1C325.7,188.1 326.1,186.7 326.8,185.3C327.5,183.9 328.8,182.2 330.4,182.1C330.8,182.1 331.2,182.1 331.7,182.2C331.8,182.2 332.2,182.4 332.4,182.5C332.5,182.6 332.7,182.7 332.9,182.8C333.6,183.3 334.2,184.1 334.6,185.1C335.1,186 335.4,187.1 335.6,188.1C335.8,189.1 335.9,190.2 335.8,191.1C335.7,192.2 335.7,193.3 335.5,194.2C335.3,195.1 335.2,196 335,196.9C334.8,197.7 334.6,198.5 334.5,199.2C334.4,199.9 334.1,200.5 334,200.9C333.7,201.9 333.6,202.4 333.6,202.4C333.6,202.4 333.9,201.9 334.4,201C334.6,200.5 335,200 335.2,199.4C335.5,198.8 335.8,198 336.2,197.2C336.5,196.4 336.8,195.4 337,194.4C337.3,193.4 337.4,192.4 337.6,191.3C337.8,190.1 337.7,188.9 337.5,187.7C337.3,186.5 337,185.3 336.4,184.1C335.9,183 335,181.9 333.9,181C333.6,180.8 333.3,180.6 332.9,180.5C332.5,180.4 332.4,180.3 332,180.2C331.3,180.1 330.7,180.1 330,180.2C328.7,180.4 327.6,181.3 326.9,182.1C326.2,183 325.8,183.9 325.5,184.8C324.9,186.5 324.9,188 324.9,189.1C325.1,190.1 325.2,190.7 325.2,190.7Z" style="fill:rgb(217,159,107);fill-rule:nonzero;"/>
                    <path d="M325.2,190.7C325.2,190.7 324.5,189.6 328.8,189.2C328.8,189.2 333.7,189.8 331.2,195.1C330.7,196.2 330.2,197.4 330,198.7C329.7,200.5 330.6,202.8 329.5,204.4C328.1,206.4 324.2,205.4 323.9,203.1C323.6,201.3 325.7,198.3 326.6,197C326.6,197 329.5,193.1 325.2,190.7Z" style="fill:rgb(217,159,107);fill-rule:nonzero;"/>
                    <path d="M323.9,202.9C323.9,202.9 323.8,203 323.6,203.2C323.4,203.4 323.2,203.7 323,204.2C322.9,204.4 322.9,204.7 322.8,205C322.8,205.3 322.7,205.6 322.8,205.9C322.9,206.2 322.9,206.5 323,206.8C323.1,207.1 323.3,207.4 323.4,207.7C323.6,208 323.7,208.3 323.9,208.5C324.1,208.7 324.4,208.9 324.6,209.1C325,209.5 325.5,209.7 326,209.8C326.9,210.1 327.5,210.1 327.5,210.1C327.5,210.1 327.2,209.5 326.7,208.8C326.6,208.6 326.5,208.5 326.3,208.3C326.2,208.1 326.1,207.9 326,207.7C325.9,207.5 325.8,207.3 325.6,207.2C325.4,207 325.4,206.8 325.3,206.6C325,206.2 324.9,205.8 324.7,205.4C324.6,205.2 324.5,205 324.5,204.8C324.5,204.6 324.3,204.4 324.3,204.2C324,203.5 323.9,202.9 323.9,202.9Z" style="fill:rgb(217,159,107);fill-rule:nonzero;"/>
                </g>
                <path d="M257.2,73.8L257.6,73.8C273.5,74.7 343.1,84.6 326.5,191.8L322.4,236.7C322.4,236.7 320.7,250.8 308.2,260.3C308.2,260.3 299.1,269.9 281.5,282.5C276.3,286.3 268.1,285 262.5,282.5C244.5,274.5 208.3,256.3 208.3,256.3C195.8,246.8 195.2,236.7 195.2,236.7L188.2,191.8C171.7,84.7 241.3,74.7 257.2,73.8Z" style="fill:rgb(255,191,125);fill-rule:nonzero;"/>
                <path d="M326.6,191.9L324.5,191.9L319.6,217.7C316.7,238.3 299.5,233.4 299.5,233.4C299.5,233.4 288.2,229.5 275.6,231.7C275.6,231.7 255.6,225.2 242.1,235.6C242.1,235.6 221.4,246.2 209.7,231.8L205.1,199.5L199.2,199.5C199.5,208.6 192,214.2 192,214.2L195.3,236.9C195.3,236.9 195.9,247 208.4,256.5C208.4,256.5 244.6,274.7 262.6,282.7C268.1,285.2 276.3,286.4 281.6,282.7C299.2,270.1 308.3,260.5 308.3,260.5C320.8,251 322.5,236.9 322.5,236.9L326.8,192.1" style="fill:rgb(211,99,47);fill-rule:nonzero;"/>
                <path d="M285.7,173.3C285.7,176.6 286,179.8 286.4,183.1C286.8,186.3 287.3,189.6 288.1,192.8C288.8,196 289.7,199.2 290.9,202.3C291.2,203.1 291.5,203.9 291.9,204.6C292.3,205.4 292.6,206.1 293,206.9C293.4,207.6 293.8,208.4 294.3,209.1L295.8,211.2L295.7,211C295.9,211.4 296.2,211.9 296.4,212.4C296.6,212.9 296.7,213.5 296.8,214C296.9,215.1 296.8,216 296.3,216.9C295.4,218.7 293.2,219.9 290.9,220.7C288.5,221.5 286,222 283.4,222.4C280.8,222.8 278.2,222.9 275.5,223.2C278.1,223.7 280.8,223.9 283.5,224C286.2,224 288.9,223.9 291.6,223.2C294.3,222.6 297.2,221.3 299,218.4C299.9,217 300.1,215.2 299.9,213.6C299.8,212.8 299.6,212.1 299.4,211.3C299.1,210.6 298.9,209.9 298.4,209.2L298.3,209L297,207.2L295.8,205.2C295.4,204.5 295.1,203.8 294.7,203.1C294.3,202.4 294,201.7 293.7,200.9C292.4,198 291.4,195 290.5,191.9C289.6,188.8 288.7,185.7 287.9,182.6C287.1,179.7 286.4,176.5 285.7,173.3Z" style="fill:rgb(217,159,107);fill-rule:nonzero;"/>
                <g>
                    <g>
                        <g>
                            <path d="M235.6,174.1C235.6,177.8 238.6,180.7 242.2,180.7C245.9,180.7 248.8,177.7 248.8,174.1C248.8,170.4 245.8,167.5 242.2,167.5C238.6,167.5 235.6,170.5 235.6,174.1Z" style="fill:rgb(80,34,0);fill-rule:nonzero;"/>
                            <path d="M239.2,174.1C239.2,175.8 240.6,177.2 242.3,177.2C244,177.2 245.4,175.8 245.4,174.1C245.4,172.4 244,171 242.3,171C240.6,171.1 239.2,172.4 239.2,174.1Z" style="fill:rgb(40,0,0);fill-rule:nonzero;"/>
                            <path d="M236.8,172.3C236.8,173.6 237.9,174.7 239.2,174.7C240.5,174.7 241.6,173.6 241.6,172.3C241.6,171 240.5,169.9 239.2,169.9C237.9,169.9 236.8,171 236.8,172.3Z" style="fill:white;fill-rule:nonzero;"/>
                        </g>
                        <path d="M255.3,150.4C255.3,150.4 242.3,143.8 226.6,152.3" style="fill:none;fill-rule:nonzero;stroke:rgb(211,99,47);stroke-width:5.22px;"/>
                    </g>
                    <g>
                        <g>
                            <path d="M310.4,174.1C310.4,177.8 307.4,180.7 303.8,180.7C300.1,180.7 297.2,177.7 297.2,174.1C297.2,170.4 300.2,167.5 303.8,167.5C307.4,167.5 310.4,170.5 310.4,174.1Z" style="fill:rgb(80,34,0);fill-rule:nonzero;"/>
                            <path d="M306.9,174.1C306.9,175.8 305.8,177.2 304.5,177.2C303.2,177.2 302.1,175.8 302.1,174.1C302.1,172.4 303.2,171 304.5,171C305.8,171.1 306.9,172.4 306.9,174.1Z" style="fill:rgb(40,0,0);fill-rule:nonzero;"/>
                            <path d="M304.2,172.3C304.2,173.6 303.1,174.7 301.8,174.7C300.5,174.7 299.4,173.6 299.4,172.3C299.4,171 300.5,169.9 301.8,169.9C303.1,169.9 304.2,171 304.2,172.3Z" style="fill:white;fill-rule:nonzero;"/>
                        </g>
                        <path d="M291.1,146.9C291.1,146.9 305.3,143.7 318.5,155.7" style="fill:none;fill-rule:nonzero;stroke:rgb(211,99,47);stroke-width:5.22px;"/>
                    </g>
                </g>
                <path d="M169.8,101.1C162,138.5 179.5,177.7 179.5,177.7C198.2,171.2 199.1,200.1 199.1,200.1L205.1,199.9C200.5,163.6 212.9,147.1 212.6,146.4C204.3,126.8 219.6,110.3 219.6,110.3C260.1,125.3 314,107.3 314,107.3C329.7,92.5 317.5,68.1 317.5,68.1C317.5,68.1 313,31.5 253.4,30.7C253.4,30.7 262.1,59.8 215.6,53.3C215.5,53.2 178.9,57.9 169.8,101.1Z" style="fill:rgb(211,99,47);fill-rule:nonzero;"/>
                <path d="M326.8,192.2C326.8,192.2 341.5,144.6 338.7,103.2C338.7,103.2 331.8,73.1 311.3,65.4C311.3,65.4 312.7,96.3 307.5,103.7C307.5,103.7 326.2,112.8 320.6,134.6C320.6,134.6 331,160.9 324.6,191.9L326.8,192.2Z" style="fill:rgb(211,99,47);fill-rule:nonzero;"/>
                <g>
                    <path d="M198.5,193.8C199.9,204.4 195.7,213.7 189,214.6C182.3,215.5 175.8,207.6 174.4,197C173,186.4 177.3,177.1 183.9,176.2C190.6,175.3 197.1,183.2 198.5,193.8Z" style="fill:rgb(255,191,125);fill-rule:nonzero;"/>
                    <path d="M190.3,190.7C190.3,190.7 190.2,190.1 190,189.1C189.8,188.1 189.4,186.7 188.7,185.3C188,183.9 186.7,182.2 185.1,182.1C184.7,182.1 184.2,182.1 183.8,182.2C183.7,182.2 183.3,182.4 183.1,182.5C183,182.6 182.8,182.7 182.6,182.8C181.9,183.3 181.3,184.1 180.9,185.1C180.4,186 180.1,187.1 179.9,188.1C179.7,189.1 179.6,190.2 179.7,191.1C179.8,192.2 179.8,193.3 180,194.2C180.2,195.1 180.3,196 180.4,196.9C180.6,197.7 180.8,198.5 180.9,199.2C181,199.9 181.3,200.5 181.4,200.9C181.7,201.9 181.8,202.4 181.8,202.4C181.8,202.4 181.5,201.9 181,201C180.8,200.5 180.4,200 180.2,199.4C179.9,198.8 179.6,198 179.3,197.2C179,196.4 178.7,195.4 178.4,194.4C178.1,193.4 178,192.4 177.8,191.3C177.6,190.1 177.7,188.9 177.9,187.7C178.1,186.5 178.4,185.3 179,184.1C179.5,183 180.4,181.9 181.5,181C181.8,180.8 182.1,180.6 182.5,180.5C182.9,180.4 183,180.3 183.4,180.2C184.1,180.1 184.7,180.1 185.4,180.2C186.7,180.4 187.8,181.3 188.5,182.1C189.2,183 189.6,183.9 189.9,184.8C190.5,186.5 190.5,188 190.5,189.1C190.5,190.1 190.3,190.7 190.3,190.7Z" style="fill:rgb(217,159,107);fill-rule:nonzero;"/>
                    <path d="M190.3,190.7C190.3,190.7 191,189.6 186.7,189.2C186.7,189.2 181.8,189.8 184.3,195.1C184.8,196.2 185.3,197.4 185.5,198.7C185.8,200.5 184.9,202.8 186,204.4C187.4,206.4 191.3,205.4 191.6,203.1C191.9,201.3 189.8,198.3 188.9,197C188.9,197 186,193.1 190.3,190.7Z" style="fill:rgb(217,159,107);fill-rule:nonzero;"/>
                    <path d="M191.6,202.9C191.6,202.9 191.7,203 191.9,203.2C192.1,203.4 192.3,203.7 192.5,204.2C192.6,204.4 192.6,204.7 192.7,205C192.7,205.3 192.8,205.6 192.7,205.9C192.6,206.2 192.6,206.5 192.5,206.8C192.4,207.1 192.2,207.4 192.1,207.7C191.9,208 191.8,208.3 191.6,208.5C191.4,208.7 191.1,208.9 190.9,209.1C190.5,209.5 190,209.7 189.5,209.8C188.6,210.1 188,210.1 188,210.1C188,210.1 188.3,209.5 188.8,208.8C188.9,208.6 189,208.5 189.2,208.3C189.3,208.1 189.4,207.9 189.5,207.7C189.6,207.5 189.7,207.3 189.9,207.2C190.1,207 190.1,206.8 190.2,206.6C190.5,206.2 190.6,205.8 190.8,205.4C190.9,205.2 191,205 191,204.8C191.1,204.6 191.2,204.4 191.2,204.2C191.5,203.5 191.6,202.9 191.6,202.9Z" style="fill:rgb(217,159,107);fill-rule:nonzero;"/>
                </g>
                <g>
                    <g>
                        <path d="M254.9,261C255.3,251.7 264.4,244.2 275.7,244.2C287,244.2 296.1,251.7 296.5,261L254.9,261Z" style="fill:white;fill-rule:nonzero;"/>
                        <path d="M296.5,261C296.5,261 293.9,260.5 290,260.1C286.1,259.7 280.9,259.5 275.7,259.4C270.5,259.4 265.3,259.7 261.4,260.1C257.5,260.5 254.9,261 254.9,261C254.9,261 257.5,261.5 261.4,261.9C265.3,262.3 270.5,262.5 275.7,262.6C280.9,262.6 286.1,262.3 290,261.9C293.9,261.5 296.5,261 296.5,261Z" style="fill:rgb(217,159,107);fill-rule:nonzero;"/>
                        <path d="M254.9,261C254.9,261 255.2,260.1 255.6,258.6C255.7,257.8 256.2,256.9 256.7,256C257.1,255 257.9,254.1 258.7,253.1C259.4,252 260.7,251.2 261.7,250.2C262.3,249.8 263,249.4 263.6,249C264.3,248.6 264.9,248.2 265.7,247.9C266.4,247.6 267.2,247.3 268,247C268.8,246.8 269.6,246.6 270.5,246.4L271.7,246.1L273,246C273.8,245.9 274.8,245.9 275.5,245.8L278.2,246L279.6,246.1L283.2,247C284,247.3 284.7,247.6 285.5,247.9C286.3,248.1 286.9,248.6 287.6,249C288.3,249.4 289,249.8 289.6,250.2C290.6,251.2 291.9,252 292.6,253.1C293.4,254.1 294.2,255 294.6,256.1C295.1,257.1 295.6,257.9 295.7,258.7C296.1,260.2 296.4,261.1 296.4,261.1C296.4,261.1 296.4,260.2 296.3,258.5C296.3,257.6 296,256.7 295.6,255.6C295.4,255.1 295.3,254.4 295,253.8C294.7,253.2 294.3,252.6 294,252C293.4,250.7 292.1,249.7 291,248.4C290.4,247.8 289.7,247.4 289,246.8C288.3,246.3 287.6,245.7 286.7,245.4C285.9,245 285,244.6 284.2,244.2C283.3,243.9 282.3,243.7 281.4,243.4L280,243L278.6,242.9L275.9,242.6L272.9,242.9L271.5,243L270.1,243.4C269.2,243.6 268.2,243.9 267.4,244.2C266.5,244.6 265.7,245 264.9,245.4C264.1,245.7 263.3,246.3 262.6,246.8C261.9,247.3 261.2,247.8 260.6,248.4C259.5,249.7 258.2,250.7 257.6,252C257.2,252.6 256.9,253.2 256.6,253.8C256.3,254.4 256.2,255 256,255.6C255.7,256.7 255.3,257.7 255.3,258.5C254.9,260.1 254.9,261 254.9,261Z" style="fill:rgb(217,159,107);fill-rule:nonzero;"/>
                    </g>
                    <path d="M269.7,269.7C269.7,269.7 270.4,269.8 271.3,269.8C272.3,269.8 273.6,269.9 274.9,269.9C276.2,269.9 277.5,269.8 278.5,269.8C279.5,269.8 280.1,269.7 280.1,269.7L280.1,269.3C280.1,269.3 279.5,268.2 278.5,267.4C278,267 277.4,266.6 276.8,266.4C276.5,266.3 276.2,266.1 275.9,266.1L274.9,266L273.9,266.1C273.6,266.1 273.3,266.3 273,266.4C272.4,266.6 271.8,267 271.3,267.4C270.3,268.2 269.7,269.3 269.7,269.3L269.7,269.7Z" style="fill:rgb(217,159,107);fill-rule:nonzero;"/>
                </g>
                <path d="M314,107.2C314,107.2 312.5,107.7 309.9,108.3C307.3,109 303.6,109.9 299.1,110.8C296.9,111.3 294.4,111.7 291.8,112.2C289.2,112.7 286.5,112.9 283.7,113.4C280.9,113.7 277.9,114.1 275,114.3C272,114.5 269,114.8 265.9,114.8L261.4,115C259.9,115 258.4,115 256.9,114.9C253.9,114.9 251,114.7 248.1,114.4C245.3,114.2 242.5,113.9 239.9,113.5C237.3,113.2 234.9,112.9 232.6,112.3C230.4,111.9 228.3,111.5 226.5,111.1C224.7,110.6 223.1,110.2 221.8,109.9C219.2,109.2 217.7,108.9 217.7,108.9C217.7,108.9 219.1,109.5 221.6,110.4C222.9,110.9 224.4,111.4 226.2,112.1C228,112.7 230,113.2 232.3,113.8C234.5,114.5 237,114.9 239.6,115.4C240.9,115.6 242.2,115.9 243.6,116.2C245,116.4 246.4,116.5 247.8,116.7C250.7,117 253.7,117.3 256.7,117.3C258.2,117.4 259.7,117.4 261.3,117.5L265.9,117.4C269,117.4 272.1,117 275.1,116.8C278.1,116.5 281.1,116.1 283.9,115.7C286.7,115.2 289.5,114.7 292.1,114.1C294.7,113.5 297.1,112.9 299.3,112.3C303.8,111.1 307.4,109.8 309.9,108.8C312.6,107.8 314,107.2 314,107.2Z" style="fill:rgb(211,99,47);fill-rule:nonzero;"/>
            </g>
        </g>
    </g>
</svg>
