<?xml version="1.0" encoding="utf-8"?>
<!-- Generator: Adobe Illustrator 23.1.1, SVG Export Plug-In . SVG Version: 6.00 Build 0)  -->
<svg version="1.1" id="Layer_1" xmlns:serif="http://www.serif.com/"
	 xmlns="http://www.w3.org/2000/svg" xmlns:xlink="http://www.w3.org/1999/xlink" x="0px" y="0px" width="490px" height="425px"
	 viewBox="0 0 490 425" style="enable-background:new 0 0 490 425;" xml:space="preserve">
<style type="text/css">
	.st0{fill:#FED261;}
	.st1{opacity:0.1;}
	.st2{fill:#231F20;}
	.st3{opacity:0.5;fill:#231F20;}
	.st4{fill:#2176BC;}
	.st5{fill:#FFFFFF;}
	.st6{fill:#333333;}
	.st7{fill:#FCC287;}
	.st8{fill:#D1A273;}
	.st9{fill:#C5693D;}
	.st10{fill:#4A2405;}
	.st11{fill:#230000;}
	.st12{fill:none;stroke:#C5693D;stroke-width:4.414;stroke-linecap:round;stroke-miterlimit:10;}
	.st13{opacity:0.2;}
	.st14{fill:#4D0B00;}
	.st15{fill:#BFDCF3;}
	.st16{fill:#B6D1E7;}
	.st17{fill-rule:evenodd;clip-rule:evenodd;fill-opacity:0.11;}
	.st18{fill-rule:evenodd;clip-rule:evenodd;fill:#E1F4FD;}
	.st19{fill:#E0835E;}
</style>
<rect x="-8.2" y="-2.7" class="st0" width="499.4" height="432.7"/>
<g class="st1">
	<path class="st2" d="M388.5,47c-6.6-1.2-13.3-0.4-20-0.1c-7.2,0.3-14.5,0.3-21.6,1.3c-1,0.1-1,1.8,0,2c6.5,1,13.1,0.9,19.6,1.3
		c7.3,0.3,14.7,1.2,21.9-0.1C390.6,51,390.6,47.4,388.5,47z"/>
	<path class="st2" d="M431.7,68.6c-3.4-1-6.9-0.4-10.4-0.2c-3.8,0.2-7.7,0.5-11.5,0.8c-1.8,0.1-1.8,2.7,0,2.9
		c3.8,0.3,7.7,0.6,11.5,0.8c3.5,0.2,7,0.8,10.4-0.2C433.7,71.9,433.7,69.2,431.7,68.6z"/>
	<path class="st2" d="M413.2,106.9c-4.7-0.4-9.3-0.1-14,0.1c-1.9,0.1-1.9,2.9,0,3c4.7,0.3,9.3,0.5,14,0.1
		C415.3,110,415.3,107.1,413.2,106.9z"/>
	<path class="st2" d="M469.8,123.8c-7-1.8-15.4-0.2-22.6,0.1c-2.6,0.1-2.6,4,0,4.1c7.2,0.3,15.6,1.8,22.6,0.1
		C471.9,127.5,471.9,124.3,469.8,123.8z"/>
	<path class="st2" d="M467,230.8c-3.3-0.7-6.5-0.3-9.8,0c-2.3,0.2-2.3,3.3,0,3.6c3.3,0.3,6.5,0.6,9.8,0
		C468.7,234,468.7,231.2,467,230.8z"/>
	<path class="st2" d="M441.6,283.6c-5.3-0.8-10.5-0.4-15.8-0.2c-2.3,0.1-2.3,3.4,0,3.5c5.3,0.2,10.5,0.6,15.8-0.2
		C443.2,286.6,443.2,283.9,441.6,283.6z"/>
	<path class="st2" d="M475.2,330.2c-5.1-1.1-10.5-0.4-15.7-0.2c-5.6,0.2-11.3,0.4-16.9,0.6c-2.5,0.1-2.5,3.7,0,3.8
		c5.6,0.2,11.3,0.4,16.9,0.6c5.2,0.2,10.6,0.8,15.7-0.2C477.5,334.4,477.5,330.7,475.2,330.2z"/>
	<path class="st2" d="M458.3,393.6c-6.2-1.2-12.9-0.3-19.1-0.2c-2.4,0-2.4,3.7,0,3.7c6.2,0.1,13,0.9,19.1-0.2
		C459.9,396.5,459.9,393.9,458.3,393.6z"/>
	<path class="st2" d="M121.5,420.7c-5.8-0.8-11.8-0.3-17.7-0.2c-1.7,0-1.7,2.7,0,2.7c5.9,0.2,11.8,0.6,17.7-0.2
		C122.7,422.9,122.7,420.9,121.5,420.7z"/>
	<path class="st2" d="M141.9,409.2c-6.9-0.4-13.8,0-20.7,0.2c-1.5,0.1-1.5,2.3,0,2.3c6.9,0.2,13.8,0.6,20.7,0.2
		C143.6,411.8,143.6,409.3,141.9,409.2z"/>
	<path class="st2" d="M419.6,363.6c-6.9-1.3-15.1-0.3-22,0.9c-0.7,0.1-0.7,1.4,0,1.5c6.9,1.1,15.1,2.2,22,0.9
		C421.3,366.6,421.3,363.9,419.6,363.6z"/>
	<path class="st2" d="M331.7,426.1c-8.3-1.4-16.8-0.3-25.2,0.1c-2.2,0.1-2.2,3.4,0,3.5c8.4,0.4,16.9,1.5,25.2,0.1
		C333.5,429.4,333.5,426.4,331.7,426.1z"/>
	<path class="st2" d="M339.5,414c-2.8-0.9-6.1-0.4-9-0.3c-1.9,0.1-1.9,2.8,0,2.9c2.9,0.1,6.2,0.6,9-0.3
		C340.7,416,340.7,414.4,339.5,414z"/>
	<path class="st2" d="M199.9,437.5c-5.7-0.4-11.6-1.2-17.3-0.4c-2,0.3-2,2.8,0,3c5.7,0.7,11.6,0,17.3-0.4
		C201.2,439.5,201.2,437.6,199.9,437.5z"/>
	<path class="st2" d="M56.5,353.9c-6.5-0.2-13.1-0.4-19.6-0.6c-6-0.1-12.3-0.6-18.2,0.6c-1.9,0.4-1.9,3.5,0,3.9
		c5.9,1.2,12.2,0.7,18.2,0.6c6.6-0.1,13.1-0.3,19.6-0.6C59.1,357.8,59.1,354,56.5,353.9z"/>
	<path class="st2" d="M56.5,329.5c-4.7-0.2-9.3-0.6-14,0c-2.2,0.3-2.2,3.1,0,3.4c4.7,0.6,9.3,0.2,14,0
		C58.7,332.8,58.7,329.6,56.5,329.5z"/>
	<path class="st2" d="M17,436.2c-2.3-0.4-4-0.9-6.3-0.5c-2,0.3-4.2,0.4-6.1,1.2c-0.8,0.3-0.8,1.7,0,2c1.9,0.8,4,0.9,6.1,1.2
		c2.3,0.4,4.1-0.1,6.3-0.5C18.7,439.3,18.7,436.5,17,436.2z"/>
	<path class="st2" d="M21.9,251.9c-6.5-0.6-14.2-1.8-20.6-0.1c-2,0.6-2,3.5,0,4.1c6.4,1.7,14.1,0.6,20.6-0.1
		C24.4,255.6,24.4,252.2,21.9,251.9z"/>
	<path class="st2" d="M37.6,229.7c-4-1.2-8.9-0.3-13.1-0.1c-2.1,0.1-2.1,3.2,0,3.2c4.1,0.2,9.1,1.1,13.1-0.1
		C39.1,232.3,39.1,230.2,37.6,229.7z"/>
	<path class="st2" d="M49.9,139.4c-7.2-0.6-14.5-0.5-21.7-0.7c-7.3-0.1-15.1-1.1-22.2,0.4c-2,0.4-2,3.6,0,4
		c6.6,1.4,13.6,0.6,20.3,0.5c7.9-0.1,15.8-0.1,23.6-0.7C52.2,142.8,52.2,139.6,49.9,139.4z"/>
	<path class="st2" d="M73.9,101c-6.5-0.5-12.8-0.4-19.3,0c-1.9,0.1-1.9,2.9,0,3c6.5,0.4,12.9,0.6,19.3,0
		C75.8,103.9,75.8,101.2,73.9,101z"/>
	<path class="st2" d="M49.9,60.4c-7.8-0.1-15.5-0.2-23.3-0.3c-7.2-0.1-14.8-0.6-21.9,0.7c-1.8,0.3-1.8,3.2,0,3.5
		c7.1,1.3,14.7,0.8,21.9,0.7c7.8-0.1,15.5-0.2,23.3-0.3C52.7,64.7,52.7,60.4,49.9,60.4z"/>
	<path class="st2" d="M107.2,69.9c-4.2-0.4-8.4-0.2-12.7-0.1c-1.9,0-1.9,2.8,0,2.9c4.2,0.1,8.4,0.2,12.7-0.1
		C108.9,72.4,108.9,70.1,107.2,69.9z"/>
	<path class="st2" d="M132.3,25.8c-10.2-1.6-21.4,0-31.7,0.2c-1.6,0-1.6,2.4,0,2.5c10.3,0.3,21.5,1.8,31.7,0.2
		C133.7,28.5,133.7,26,132.3,25.8z"/>
	<path class="st2" d="M52.2,39.9c-4.1-0.7-8.3-0.1-12.4,0.1c-1.5,0.1-1.5,2.3,0,2.3c4.1,0.2,8.3,0.9,12.4,0.1
		C53.5,42.3,53.5,40.2,52.2,39.9z"/>
	<path class="st2" d="M218.5,14.2c-11.8-0.6-23.5-0.1-35.3,0.3c-1.8,0.1-1.8,2.8,0,2.9c11.8,0.4,23.5,0.9,35.3,0.3
		C220.7,17.5,220.7,14.3,218.5,14.2z"/>
	<path class="st2" d="M289.5,17.3c-4.2-1-9.4,0-13.7,0.2c-1.4,0.1-1.4,2,0,2.1c4.3,0.2,9.4,1.3,13.7,0.2
		C290.8,19.5,290.8,17.6,289.5,17.3z"/>
	<path class="st2" d="M433,24.9c-8-1.1-16.4,0-24.5,0.3c-1.8,0.1-1.8,2.7,0,2.8c8,0.3,16.5,1.4,24.5,0.3
		C434.7,28,434.7,25.1,433,24.9z"/>
	<circle class="st3" cx="233.6" cy="231.2" r="186"/>
	<circle class="st2" cx="236.1" cy="233.2" r="113.3"/>
</g>
<g>
	<g>
		<path class="st4" d="M311.9,138.7L423,160c3.6,0.7,7.1-1.7,7.8-5.3l5.4-27.9c0.7-3.6-1.7-7.1-5.3-7.8L319.8,97.7
			c-3.6-0.7-7.1,1.7-7.8,5.3l-5.4,27.9C305.9,134.6,308.3,138,311.9,138.7z"/>
		<g>
			<path class="st5" d="M335.9,119.2c-0.5-0.1-1,0.1-1.4,0.7c-0.4,0.6-0.8,1.4-1,2.5c-0.4,2.3-0.1,3.6,1.2,3.8
				c0.5,0.1,1.1,0,1.8-0.2l-0.3,1.7c-0.6,0.2-1.2,0.3-2,0.1c-1.1-0.2-1.9-0.8-2.3-1.8c-0.4-1-0.5-2.3-0.2-4c0.3-1.6,0.9-2.8,1.7-3.6
				c0.8-0.8,1.8-1.1,2.9-0.9c0.4,0.1,0.7,0.2,1,0.4c0.3,0.2,0.6,0.4,1,0.7l-0.9,1.4c-0.2-0.2-0.4-0.4-0.6-0.5
				C336.4,119.3,336.2,119.2,335.9,119.2z"/>
			<path class="st5" d="M342.2,129.2l-0.1-2.6l-2.6-0.5l-1.1,2.4l-1.9-0.4l4.4-9.6l2.5,0.5l0.6,10.6L342.2,129.2z M342.1,124.9
				l-0.1-2.4c0-0.1,0-0.5,0-1.1c0-0.6,0-1,0-1.2c-0.1,0.4-0.3,0.8-0.5,1.3c-0.2,0.5-0.6,1.5-1.3,3.1L342.1,124.9z"/>
			<path class="st5" d="M351.8,123.9c-0.2,1.1-0.6,1.8-1.3,2.3c-0.6,0.5-1.5,0.6-2.5,0.4l-0.5-0.1l-0.7,3.6l-1.9-0.4l1.9-10l2.5,0.5
				C351.4,120.6,352.2,121.8,351.8,123.9z M347.8,124.9l0.4,0.1c0.5,0.1,0.8,0,1.1-0.2c0.3-0.2,0.5-0.6,0.6-1.2
				c0.1-0.5,0.1-0.9-0.1-1.2s-0.5-0.5-0.9-0.6l-0.5-0.1L347.8,124.9z"/>
			<path class="st5" d="M356.2,131.9l-0.1-2.6l-2.6-0.5l-1.1,2.4l-1.9-0.4l4.4-9.6l2.5,0.5l0.6,10.6L356.2,131.9z M356,127.5
				l-0.1-2.4c0-0.1,0-0.5,0-1.1c0-0.6,0-1,0-1.2c-0.1,0.4-0.3,0.8-0.5,1.3c-0.2,0.5-0.6,1.5-1.3,3.1L356,127.5z"/>
			<path class="st5" d="M363.9,124.5c-0.5-0.1-1,0.1-1.4,0.7c-0.4,0.6-0.8,1.4-1,2.5c-0.4,2.3-0.1,3.6,1.2,3.8
				c0.5,0.1,1.1,0,1.8-0.2l-0.3,1.7c-0.6,0.2-1.2,0.3-2,0.1c-1.1-0.2-1.9-0.8-2.3-1.8c-0.4-1-0.5-2.3-0.2-4c0.3-1.6,0.9-2.8,1.7-3.6
				c0.8-0.8,1.8-1.1,2.9-0.9c0.4,0.1,0.7,0.2,1,0.4c0.3,0.2,0.6,0.4,1,0.7l-0.9,1.4c-0.2-0.2-0.4-0.4-0.6-0.5
				S364.2,124.6,363.9,124.5z"/>
			<path class="st5" d="M365.8,133.8l1.9-10l1.8,0.3l-1.9,10L365.8,133.8z"/>
			<path class="st5" d="M372.7,135.1l-1.9-0.4l1.6-8.4l-1.9-0.4l0.3-1.6l5.7,1.1l-0.3,1.6l-1.9-0.4L372.7,135.1z"/>
			<path class="st5" d="M380,136.5l-0.1-2.6l-2.6-0.5l-1.1,2.4l-1.9-0.4l4.4-9.6l2.5,0.5l0.6,10.6L380,136.5z M379.9,132.1l-0.1-2.4
				c0-0.1,0-0.5,0-1.1c0-0.6,0-1,0-1.2c-0.1,0.4-0.3,0.8-0.5,1.3c-0.2,0.5-0.6,1.5-1.3,3.1L379.9,132.1z"/>
			<path class="st5" d="M387.7,129.1c-0.5-0.1-1,0.1-1.4,0.7c-0.4,0.6-0.8,1.4-1,2.5c-0.4,2.3-0.1,3.6,1.2,3.8
				c0.5,0.1,1.1,0,1.8-0.2l-0.3,1.7c-0.6,0.2-1.2,0.3-2,0.1c-1.1-0.2-1.9-0.8-2.3-1.8c-0.4-1-0.5-2.3-0.2-4c0.3-1.6,0.9-2.8,1.7-3.6
				c0.8-0.8,1.8-1.1,2.9-0.9c0.4,0.1,0.7,0.2,1,0.4c0.3,0.2,0.6,0.4,1,0.7l-0.9,1.4c-0.2-0.2-0.4-0.4-0.6-0.5
				C388.2,129.3,388,129.1,387.7,129.1z"/>
			<path class="st5" d="M389.6,138.3l1.9-10l1.8,0.3l-1.9,10L389.6,138.3z"/>
			<path class="st5" d="M401.3,135.3c-0.3,1.7-0.9,2.9-1.7,3.7c-0.8,0.8-1.8,1-2.9,0.8c-1.2-0.2-2-0.8-2.4-1.8c-0.5-1-0.5-2.4-0.2-4
				c0.3-1.7,0.9-2.9,1.7-3.6c0.8-0.8,1.8-1,2.9-0.8c1.2,0.2,2,0.8,2.4,1.8C401.6,132.4,401.7,133.7,401.3,135.3z M396,134.3
				c-0.2,1.1-0.2,2-0.1,2.7s0.5,1,1.1,1.1c1.1,0.2,1.9-0.8,2.4-3.2c0.4-2.3,0.1-3.6-1-3.8c-0.6-0.1-1.1,0.1-1.5,0.6
				S396.3,133.2,396,134.3z M397.9,128.7l0-0.2c0.2-0.2,0.5-0.5,0.9-0.9c0.3-0.4,0.6-0.7,0.7-0.9l2.2,0.4l0,0.1
				c-0.1,0.2-0.5,0.4-1,0.8c-0.5,0.4-1,0.7-1.5,0.9L397.9,128.7z"/>
			<path class="st5" d="M408.9,142l-2.3-0.4l-1.7-7.9l-0.1,0c0,0.6,0,1.2-0.2,1.8l-1.1,5.5l-1.7-0.3l1.9-10l2.3,0.4l1.7,7.8l0.1,0
				c0-0.5,0.1-1.1,0.2-1.7l1-5.5l1.7,0.3L408.9,142z"/>
		</g>
		<path class="st4" d="M337.9,138.7c2.1,1.6-34.1,31.5-34.1,31.5l7.1-36.7L337.9,138.7z"/>
	</g>
</g>
<g>
	<path class="st6" d="M65.8,182.5c-0.4,1.6-1.1,2.7-2.2,3.4c-1.1,0.7-2.4,0.8-4.1,0.4c-1.6-0.4-2.7-1.1-3.4-2.1
		c-0.7-1.1-0.8-2.4-0.4-4c0.4-1.6,1.1-2.7,2.2-3.4c1.1-0.7,2.4-0.8,4-0.5c1.7,0.4,2.8,1.1,3.5,2.2C66,179.6,66.2,180.9,65.8,182.5z
		 M55,190.7l6.7,1.5l-5.4,30.6l-9.9-2.3L55,190.7z"/>
	<path class="st6" d="M97.8,220.5l-10.1-2.3l-6.4-35.5l-0.4-0.1c-0.1,2.6-0.4,5.3-1.1,8.1l-5.6,24.4l-7.7-1.8l10.3-44.6L87,171
		l6.3,35.1l0.3,0.1c0.1-2.2,0.5-4.8,1.2-7.8l5.6-24.4l7.6,1.8L97.8,220.5z"/>
	<path class="st6" d="M141.5,207c-1.7,7.4-4.4,12.7-8.1,16.1c-3.7,3.3-8.1,4.4-13.2,3.2c-5.2-1.2-8.7-4.1-10.5-8.7
		c-1.9-4.6-1.9-10.6-0.2-18.1c1.7-7.4,4.4-12.7,8.1-16c3.7-3.3,8.1-4.4,13.3-3.2c5.1,1.2,8.6,4.1,10.5,8.7
		C143.1,193.6,143.2,199.6,141.5,207z M117.9,201.5c-1.2,5.1-1.4,9.1-0.7,12.1c0.7,3,2.2,4.7,4.7,5.3c5,1.2,8.7-3.5,11.1-13.9
		c2.4-10.4,1.1-16.2-3.9-17.3c-2.5-0.6-4.7,0.3-6.6,2.7C120.6,192.7,119.1,196.4,117.9,201.5z"/>
	<path class="st6" d="M154.1,218.3l-6.7-1.5l5.5-30.6l9.7,2.2L154.1,218.3z M143.3,226.5c0.4-1.6,1.1-2.7,2.1-3.4
		c1-0.7,2.4-0.8,4.1-0.4c1.7,0.4,2.8,1.1,3.5,2.2c0.7,1.1,0.8,2.4,0.4,4c-0.4,1.6-1.1,2.7-2.2,3.4c-1.1,0.7-2.4,0.8-4,0.5
		c-1.6-0.4-2.8-1.1-3.5-2.2C143.1,229.4,142.9,228.1,143.3,226.5z"/>
</g>
<g>
	<g>
		<g>
			<rect x="205.6" y="214.1" class="st7" width="41" height="33"/>
			<path class="st8" d="M243,238c-11.2-8.1-28-5.9-37.4-16.3v-7.6h41v27.5C245.6,240.3,244.4,239,243,238z"/>
		</g>
		<g>
			<g>
				<path class="st7" d="M276.7,152.8c-1.2,9,2.4,16.8,8,17.6c5.6,0.8,11.2-5.9,12.4-14.9c1.2-9-2.4-16.8-8.1-17.6
					C283.4,137.2,277.9,143.9,276.7,152.8z"/>
				<path class="st8" d="M283.6,150.2c0,0,0-0.5,0.2-1.3c0.2-0.8,0.5-2,1.1-3.2c0.6-1.2,1.7-2.6,3.1-2.7c0.4,0,0.7,0,1.1,0.1
					c0.1,0,0.4,0.1,0.6,0.2c0.1,0.1,0.3,0.1,0.4,0.3c0.6,0.4,1.1,1.1,1.5,1.9c0.4,0.8,0.6,1.7,0.8,2.5c0.1,0.9,0.3,1.8,0.2,2.6
					c-0.1,0.9-0.1,1.8-0.2,2.6c-0.1,0.8-0.3,1.6-0.4,2.2c-0.2,0.7-0.3,1.3-0.4,1.9c-0.1,0.6-0.3,1.1-0.4,1.5
					c-0.2,0.8-0.3,1.3-0.3,1.3s0.3-0.4,0.7-1.2c0.2-0.4,0.5-0.8,0.7-1.4c0.2-0.5,0.5-1.2,0.8-1.9c0.3-0.7,0.5-1.5,0.7-2.3
					c0.3-0.8,0.3-1.7,0.5-2.6c0.2-1,0.1-2-0.1-3.1c-0.2-1-0.5-2-0.9-3c-0.5-1-1.1-1.9-2.1-2.6c-0.2-0.2-0.5-0.3-0.8-0.4
					c-0.3-0.1-0.4-0.1-0.8-0.2c-0.6-0.1-1.1-0.1-1.7,0c-1.1,0.2-2.1,0.9-2.6,1.6c-0.6,0.7-0.9,1.5-1.2,2.3c-0.5,1.5-0.5,2.7-0.5,3.6
					C283.5,149.7,283.6,150.2,283.6,150.2z"/>
				<path class="st8" d="M283.6,150.2c0,0-0.6-0.9,3.1-1.2c0,0,4.1,0.5,2,5c-0.5,1-0.8,2-1,3c-0.3,1.5,0.5,3.5-0.4,4.8
					c-1.2,1.7-4.5,0.8-4.8-1.1c-0.2-1.5,1.5-4.1,2.3-5.2C284.8,155.5,287.2,152.2,283.6,150.2z"/>
				<path class="st8" d="M282.5,160.5c0,0-0.1,0.1-0.3,0.3c-0.2,0.2-0.4,0.5-0.5,0.8c-0.1,0.2-0.1,0.4-0.2,0.6c0,0.2-0.1,0.5,0,0.7
					c0,0.3,0.1,0.5,0.1,0.8c0.1,0.3,0.2,0.5,0.3,0.7c0.2,0.2,0.3,0.5,0.5,0.7c0.2,0.2,0.4,0.3,0.6,0.5c0.4,0.3,0.8,0.5,1.2,0.6
					c0.7,0.2,1.3,0.2,1.3,0.2s-0.2-0.5-0.6-1.1c-0.1-0.1-0.2-0.3-0.3-0.4c-0.1-0.2-0.2-0.3-0.3-0.5c-0.1-0.2-0.2-0.3-0.3-0.5
					c-0.1-0.1-0.2-0.3-0.3-0.5c-0.2-0.3-0.4-0.6-0.5-1c-0.1-0.2-0.1-0.3-0.2-0.5c0-0.2-0.1-0.3-0.2-0.5
					C282.6,161,282.5,160.5,282.5,160.5z"/>
			</g>
			<path class="st7" d="M226.1,51.3c0.1,0,0.1,0,0.2,0c0.1,0,0.1,0,0.2,0c13.5,0.7,72.3,9.2,58.3,99.8l-3.4,37.9
				c0,0-1.4,11.9-12,19.9c0,0-7.7,8.1-22.6,18.8c-4.4,3.2-11.3,2.1-16,0c-15.2-6.8-45.8-22.2-45.8-22.2c-10.6-8-11.1-16.5-11.1-16.5
				l-5.9-37.9C153.8,60.5,212.6,52.1,226.1,51.3z"/>
			<g>
				<path class="st9" d="M284.7,151.2l-1.7,0l-4.1,21.8c-2.5,17.4-17,13.2-17,13.2s-9.6-3.3-20.2-1.5c0,0-16.9-5.5-28.3,3.3
					c0,0-17.5,8.9-27.4-3.2l-3.9-27.3h-5c0.3,7.7-6.1,12.4-6.1,12.4l2.8,19.2c0,0,0.5,8.5,11.1,16.5c0,0,30.6,15.4,45.8,22.2
					c4.7,2.1,11.6,3.2,16,0c14.9-10.7,22.6-18.8,22.6-18.8c10.6-8,12-19.9,12-19.9l3.6-37.9"/>
			</g>
			<g>
				<g>
					<path class="st8" d="M250.2,135.5c0,2.8,0.3,5.5,0.6,8.3c0.3,2.7,0.8,5.5,1.4,8.2c0.6,2.7,1.4,5.4,2.4,8.1
						c0.2,0.7,0.5,1.3,0.8,2c0.3,0.6,0.6,1.3,0.9,1.9c0.4,0.6,0.7,1.3,1.1,1.9l1.3,1.8l-0.1-0.1c0.2,0.3,0.4,0.8,0.6,1.2
						c0.2,0.4,0.3,0.9,0.3,1.3c0.1,0.9,0,1.7-0.4,2.5c-0.7,1.5-2.6,2.6-4.6,3.3c-2,0.7-4.1,1.1-6.3,1.4c-2.2,0.3-4.4,0.5-6.7,0.7
						c2.2,0.4,4.5,0.6,6.7,0.7c2.3,0,4.6-0.1,6.9-0.7c2.2-0.5,4.8-1.6,6.3-4.1c0.7-1.2,0.9-2.7,0.8-4c-0.1-0.7-0.2-1.3-0.4-1.9
						c-0.2-0.6-0.4-1.2-0.8-1.8l-0.1-0.1l-1.1-1.5l-1-1.7c-0.3-0.6-0.6-1.2-0.9-1.8c-0.3-0.6-0.6-1.2-0.8-1.8
						c-1.1-2.4-1.9-5-2.7-7.6c-0.8-2.6-1.5-5.2-2.2-7.9C251.4,140.9,250.8,138.2,250.2,135.5z"/>
				</g>
			</g>
			<g>
				<path class="st10" d="M207.9,136.2c0,3.1,2.5,5.6,5.6,5.6c3.1,0,5.6-2.5,5.6-5.6c0-3.1-2.5-5.6-5.6-5.6
					C210.4,130.6,207.9,133.1,207.9,136.2z"/>
				<path class="st11" d="M210.9,136.2c0,1.4,1.2,2.6,2.6,2.6c1.4,0,2.6-1.2,2.6-2.6c0-1.4-1.2-2.6-2.6-2.6
					C212,133.6,210.9,134.8,210.9,136.2z"/>
				<path class="st5" d="M208.8,134.6c0,1.1,0.9,2,2,2c1.1,0,2-0.9,2-2c0-1.1-0.9-2-2-2C209.8,132.6,208.8,133.5,208.8,134.6z"/>
			</g>
			<g>
				<path class="st10" d="M261.3,135c0,3.1,2.5,5.6,5.6,5.6c3.1,0,5.6-2.5,5.6-5.6c0-3.1-2.5-5.6-5.6-5.6
					C263.8,129.4,261.3,131.9,261.3,135z"/>
				<path class="st11" d="M264.4,135c0,1.4,1.2,2.6,2.6,2.6c1.4,0,2.6-1.2,2.6-2.6c0-1.4-1.2-2.6-2.6-2.6
					C265.5,132.4,264.4,133.6,264.4,135z"/>
				<path class="st5" d="M262.3,133.5c0,1.1,0.9,2,2,2c1.1,0,2-0.9,2-2c0-1.1-0.9-2-2-2C263.2,131.4,262.3,132.3,262.3,133.5z"/>
			</g>
			<path class="st12" d="M224,124c0,0-9.2-8.2-23.9-4.7"/>
			<path class="st12" d="M254.9,123.9c0,0,9.3-8.2,23.9-4.6"/>
			<path class="st9" d="M152.2,74.4c-6.6,31.6,8.2,64.7,8.2,64.7c15.8-5.5,16.5,18.9,16.5,18.9l5.1-0.2c-3.9-30.7,6.6-44.6,6.4-45.2
				c-7-16.6,5.9-30.5,5.9-30.5c34.2,12.7,79.8-2.6,79.8-2.6c13.2-12.5,2.9-33.1,2.9-33.1s-3.8-30.9-54.2-31.6c0,0,7.4,24.6-32,19.1
				C190.9,33.9,159.9,37.9,152.2,74.4z"/>
			<path class="st9" d="M284.9,151.5c0,0,12.4-40.3,10-75.2c0,0-5.8-25.5-23.2-32c0,0,1.2,26.1-3.2,32.4c0,0,15.8,7.7,11,26.1
				c0,0,8.8,22.2,3.4,48.5L284.9,151.5z"/>
			<g>
				<path class="st7" d="M176.5,152.8c1.2,9-2.4,16.8-8,17.6c-5.6,0.8-11.2-5.9-12.4-14.9c-1.2-9,2.4-16.8,8.1-17.6
					C169.8,137.2,175.3,143.9,176.5,152.8z"/>
				<path class="st8" d="M169.6,150.2c0,0,0-0.5-0.2-1.3c-0.2-0.8-0.5-2-1.1-3.2c-0.6-1.2-1.7-2.6-3.1-2.7c-0.4,0-0.7,0-1.1,0.1
					c-0.1,0-0.4,0.1-0.6,0.2c-0.1,0.1-0.3,0.1-0.4,0.3c-0.6,0.4-1.1,1.1-1.5,1.9c-0.4,0.8-0.7,1.7-0.8,2.5c-0.2,0.9-0.3,1.8-0.2,2.6
					c0.1,0.9,0.1,1.8,0.3,2.6c0.1,0.8,0.3,1.6,0.4,2.2c0.2,0.7,0.3,1.3,0.4,1.9c0.1,0.6,0.3,1.1,0.4,1.5c0.2,0.8,0.3,1.3,0.3,1.3
					s-0.3-0.4-0.7-1.2c-0.2-0.4-0.5-0.8-0.7-1.4c-0.2-0.5-0.5-1.2-0.8-1.9c-0.3-0.7-0.5-1.5-0.7-2.3c-0.3-0.8-0.3-1.7-0.5-2.6
					c-0.2-1-0.1-2,0.1-3.1c0.2-1,0.5-2,0.9-3c0.5-1,1.1-1.9,2.1-2.6c0.2-0.2,0.5-0.3,0.8-0.4c0.3-0.1,0.4-0.1,0.8-0.2
					c0.6-0.1,1.1-0.1,1.7,0c1.1,0.2,2.1,0.9,2.6,1.6c0.6,0.7,0.9,1.5,1.2,2.3c0.5,1.5,0.5,2.7,0.5,3.6
					C169.7,149.7,169.6,150.2,169.6,150.2z"/>
				<path class="st8" d="M169.6,150.2c0,0,0.6-0.9-3.1-1.2c0,0-4.1,0.5-2,5c0.5,1,0.8,2,1,3c0.3,1.5-0.5,3.5,0.4,4.8
					c1.2,1.7,4.5,0.8,4.8-1.1c0.2-1.5-1.5-4.1-2.3-5.2C168.4,155.5,165.9,152.2,169.6,150.2z"/>
				<path class="st8" d="M170.7,160.5c0,0,0.1,0.1,0.3,0.3c0.2,0.2,0.3,0.5,0.5,0.8c0.1,0.2,0.1,0.4,0.2,0.6c0,0.2,0.1,0.5,0,0.7
					c0,0.3-0.1,0.5-0.1,0.8c-0.1,0.3-0.2,0.5-0.4,0.7c-0.1,0.2-0.3,0.5-0.5,0.7c-0.2,0.2-0.4,0.3-0.6,0.5c-0.4,0.3-0.8,0.5-1.2,0.6
					c-0.7,0.2-1.3,0.2-1.3,0.2s0.2-0.5,0.6-1.1c0.1-0.1,0.2-0.3,0.3-0.4c0.1-0.2,0.2-0.3,0.3-0.5c0.1-0.2,0.2-0.3,0.3-0.5
					c0.1-0.1,0.2-0.3,0.3-0.5c0.2-0.3,0.4-0.6,0.5-1c0.1-0.2,0.1-0.3,0.2-0.5c0-0.2,0.1-0.3,0.2-0.5
					C170.6,161,170.7,160.5,170.7,160.5z"/>
			</g>
			<g>
				<g>
					<path class="st5" d="M231.1,204.3c0.2-5.3,5.5-9.6,11.9-9.6s11.7,4.3,11.9,9.6L231.1,204.3z"/>
					<g>
						<path class="st8" d="M254.8,204.3c0,0-1.5-0.3-3.7-0.5c-2.2-0.2-5.2-0.4-8.2-0.4c-3,0-5.9,0.1-8.2,0.4
							c-2.2,0.2-3.7,0.5-3.7,0.5s1.5,0.3,3.7,0.5c2.2,0.2,5.2,0.4,8.2,0.4c3,0,5.9-0.1,8.2-0.4C253.3,204.6,254.8,204.3,254.8,204.3
							z"/>
					</g>
					<g>
						<path class="st8" d="M231.1,204.3c0,0,0.2-0.5,0.4-1.4c0.1-0.5,0.4-0.9,0.6-1.5c0.2-0.6,0.7-1.1,1.2-1.7
							c0.4-0.6,1.1-1.1,1.7-1.7c0.3-0.3,0.7-0.5,1.1-0.7c0.4-0.2,0.8-0.5,1.2-0.6c0.4-0.2,0.9-0.4,1.3-0.5c0.5-0.1,0.9-0.2,1.4-0.3
							l0.7-0.2l0.7,0c0.5,0,1.1-0.1,1.4-0.1l1.6,0.1l0.8,0.1l0.7,0.2c0.5,0.1,0.9,0.2,1.4,0.3c0.4,0.2,0.9,0.4,1.3,0.5
							c0.4,0.1,0.8,0.4,1.2,0.6c0.4,0.2,0.8,0.4,1.1,0.7c0.6,0.6,1.3,1,1.7,1.7c0.5,0.6,0.9,1.1,1.2,1.7c0.3,0.5,0.6,1,0.6,1.5
							c0.2,0.9,0.4,1.4,0.4,1.4s0-0.5-0.1-1.5c0-0.5-0.2-1-0.4-1.7c-0.1-0.3-0.2-0.7-0.4-1c-0.2-0.3-0.4-0.7-0.6-1
							c-0.4-0.8-1.1-1.3-1.7-2.1c-0.4-0.3-0.8-0.6-1.2-0.9c-0.4-0.3-0.8-0.6-1.3-0.8c-0.5-0.2-1-0.5-1.4-0.7
							c-0.5-0.2-1.1-0.3-1.6-0.5l-0.8-0.2l-0.8-0.1l-1.6-0.1l-1.7,0.1l-0.8,0.1l-0.8,0.2c-0.5,0.1-1.1,0.3-1.6,0.4
							c-0.5,0.2-1,0.5-1.4,0.7c-0.5,0.2-0.9,0.5-1.3,0.8c-0.4,0.3-0.8,0.6-1.2,0.9c-0.6,0.7-1.3,1.3-1.7,2.1c-0.2,0.4-0.4,0.7-0.6,1
							c-0.2,0.3-0.2,0.7-0.4,1c-0.2,0.6-0.4,1.2-0.4,1.7C231.1,203.8,231.1,204.3,231.1,204.3z"/>
					</g>
				</g>
				<path class="st8" d="M246.2,206.6c0,0-0.4,0-1-0.1c-0.6,0-1.4,0-2.3-0.1c-0.8,0-1.7,0-2.3,0.1c-0.6,0-1,0.1-1,0.1v0.2
					c0,0,0.4,0.7,1,1.2c0.3,0.3,0.7,0.5,1.1,0.6c0.2,0.1,0.4,0.2,0.6,0.2l0.6,0.1l0.6-0.1c0.2,0,0.4-0.1,0.6-0.2
					c0.4-0.2,0.8-0.4,1.1-0.6c0.6-0.5,1-1.2,1-1.2V206.6z"/>
			</g>
			<g>
				<path class="st9" d="M274.1,79.6c0,0-1.2,0.4-3.4,1c-2.2,0.6-5.3,1.3-9.1,2.1c-1.9,0.4-3.9,0.8-6.1,1.2c-2.2,0.4-4.5,0.6-6.9,1
					c-2.4,0.3-4.9,0.6-7.4,0.8c-2.5,0.2-5.1,0.4-7.7,0.4l-3.8,0.1c-1.3,0-2.6,0-3.8-0.1c-2.5,0-5-0.2-7.4-0.4
					c-2.4-0.2-4.7-0.4-6.9-0.7c-2.2-0.3-4.3-0.5-6.1-1c-1.9-0.4-3.6-0.7-5.2-1c-1.5-0.4-2.8-0.8-3.9-1.1c-2.2-0.6-3.5-0.9-3.5-0.9
					s1.2,0.5,3.3,1.3c1.1,0.4,2.4,0.9,3.8,1.4c1.5,0.5,3.2,0.9,5.1,1.4c1.9,0.6,4,1,6.2,1.4c1.1,0.2,2.2,0.4,3.4,0.6
					c1.2,0.2,2.4,0.3,3.6,0.4c2.4,0.3,5,0.5,7.5,0.5c1.3,0,2.6,0.1,3.9,0.1l3.9-0.1c2.6,0,5.2-0.3,7.8-0.5c2.6-0.2,5.1-0.6,7.5-0.9
					c2.4-0.4,4.7-0.8,6.9-1.4c2.2-0.5,4.2-1,6.1-1.5c3.8-1,6.8-2.1,9-2.9C272.9,80.1,274.1,79.6,274.1,79.6z"/>
			</g>
			<path class="st9" d="M177.1,157.5"/>
		</g>
	</g>
	<g transform="matrix(0.629847,0,0,1,634.498,0)">
		<g transform="matrix(-1.07921,-0.207415,-0.185199,0.96362,214.629,493.062)">
			<g>
				<g>
					<path class="st7" d="M688.2,39.3c-21.3,26.7-17.1,70.7-16,75.8c1,4.5-2.2,11.6-7.1,18.5c-2.3,1.4-9.2,6.4-11.5,14.7
						c-2.7,10.1,1.9,15.1,4.5,19.5c2.6,4.4,16.3,13,19.8,15.6c3.5,2.6,9.9,2.7,13.6,3.4c1.1,0.2,2-0.1,2.3-0.8
						c0.9-1.5-0.6-4.6-7-6.1c-9.1-2.1-12.2-12.7-10.8-17.2c1.4-4.6,8.4-9.6,8.4-9.6s7.8,5.8,7.9,12.8c0,7,8.3,8,8.3,8l-2.2-25.2
						l-3.5-10.6c0-0.1,0-0.2-0.1-0.3c0-0.1-0.1-0.2-0.1-0.3l-0.6-1.8l0,0c-1.5-5.5,0.9-12.3,9.2-36.1c4.3-12.2,11.7-24.3,18.6-33.8
						c8.3-11.6,15.7-19.4,15.7-19.4C696.1,30.9,688.2,39.3,688.2,39.3"/>
				</g>
			</g>
		</g>
		<g transform="matrix(-1.07921,-0.207415,-0.185199,0.96362,238.182,395.351)" class="st13">
			<g>
				<path class="st14" d="M697.2,289.2c0,0-8.8-0.1-13.1-2.5c-22.5-12.5-24.9-21.7-26.2-24.8c-2.5-5.9-0.4-16.3,9.2-24.1
					c8-6.6,10.6-15.2,9.5-20.3c-1.2-5.1-5.4-49.1,16-75.8c0,0,7.8-8.4,49.5,7.1c0,0-7.5,7.9-15.7,19.4l-16.9,3.1
					c0,0-25.1,15.3-22.8,25.2c2.2,10-7.6,43.7-9.7,52.7c-1.9,7.9-4.2,28.8,16.3,33.9C697.2,284.1,700,287.7,697.2,289.2"/>
			</g>
		</g>
		<g transform="matrix(-1.07921,-0.207415,-0.185199,0.96362,259.771,329.198)">
			<path class="st15" d="M676.5,280.5c0,0-0.7-69.2,46.9-182.5c5.1-12.2,42.4-23.7,55.3-23c15.5,0.8,28.2,28.7,21,46.1
				c0,0-25.6,61.8-37.3,89.6c-11.8,27.8-47.9,77-47.9,77L676.5,280.5z"/>
		</g>
		<g transform="matrix(-1.17419,0,0,1,196.202,277.931)">
			<path class="st16" d="M692.6,20.7c18.6-3.9,34.7-9.3,48.4-15.2c41-17.6,60.7-39.8,60.7-39.8c-2.1-1.1-4.2-2.9-6.1-3.8
				c-4.8-2.9-9.5-4.1-9.5-4.1c-46.1-13.5-63,8.1-77.1,8.2c-15.2,0.1-12.3-14.4-20.6-11.8c-18.7,5.9-22.2,15.2-21.7,14.8l0,0v0
				c0,0,0,0.1,0,0.1c-0.9,1.5-1.8,2.9-2.4,4.4C651.8,1.6,692.6,20.7,692.6,20.7"/>
		</g>
		<g transform="matrix(-1.17419,0,0,1,226.864,319.204)">
			<path class="st16" d="M665.3,142.2c77.2,18.6,152-9.3,152-9.3s0-38.8-2.5-78.1c-2.5-39.3,41.7-88.9,32.5-106.4
				c-9.3-17.6-19.4-24-19.4-24l-6-3c-14.4,15.9-33.4,27.6-51.3,35.8c-27.4,12.7-51.9,17.5-51.9,17.5c-28.9-17.2-29.5-34.1-27.6-42.2
				c0.6-2.5,1.4-4.1,1.7-4.7c0-0.1,0-0.1,0-0.1c-0.2,0.1-1,0.8-4.4,3.6c-2.1,1.8-5.3,4.3-9.9,8.1c-14.3,11.8-12,72.5-15.8,103.5
				C662.4,92.2,665.3,142.2,665.3,142.2z"/>
		</g>
		<g transform="matrix(1,0,0,1,-4319.62,0)">
			<path class="st17" d="M3676.2,259.8l10.7-17.1l6.9-1.5l19.8,12.6l-3,2.7l-19.5-11.8l-9.7,16.4L3676.2,259.8z"/>
		</g>
		<g transform="matrix(1,0,0,1,-4319.62,0)">
			<path class="st18" d="M3637.5,225.2c-7.3,1.5-15.1,4.7-17.9,8.4c5.4,12.5,30.6,24.1,58.3,27.5l12.3-19.1
				C3662.6,243.4,3643.1,229.9,3637.5,225.2z"/>
		</g>
		<g transform="matrix(-1,0,0,1,4701.85,0)">
			<path class="st18" d="M5317.8,227.8c-6.5,2.6-11.8,5.8-15.5,8.1c-0.2,5.1-1,13,6.5,19.9l22.7-13.8
				C5316.5,234.8,5318.1,231.6,5317.8,227.8z"/>
		</g>
		<g transform="matrix(-1.07921,-0.207415,-0.185199,0.96362,259.771,329.198)">
			<path class="st15" d="M934.1,240.1c2.4-22.7,1.2-66.6,0.6-98.5c-0.2-11.8-11.6-22.9-31.9-23.3c-10.7-0.2-34.7,13-34.4,29.8
				c0,0,0.9,59.5,1.5,86.3C870.5,261.4,928.2,295.3,934.1,240.1z"/>
		</g>
		<g>
			<path class="st6" d="M-502.5,269.3l-17-61l0.4,0c0.2,0,0.3-0.1,0.3-0.3l-3.2-11.6c0-0.1-0.2-0.2-0.4-0.2l-0.4,0l-5.3-19.1
				c-0.5-1.9-3.3-3.1-6.3-2.8l-65.5,7.4c-3,0.3-4.9,2.1-4.4,4l2.7,9.7l-0.5,0.1c-0.2,0-0.3,0.1-0.3,0.3l1,3.6c0,0.1,0.2,0.2,0.4,0.2
				l0.5-0.1l0.8,2.8l-0.5,0.1c-0.2,0-0.3,0.1-0.3,0.3l2,7.1c0,0.1,0.2,0.2,0.4,0.2l0.5-0.1l0.5,1.8l-0.5,0.1c-0.2,0-0.3,0.1-0.3,0.3
				l2,7.1c0,0.1,0.2,0.2,0.4,0.2l0.5-0.1l16.3,58.7c0.5,1.9,3.3,3.1,6.3,2.8l65.5-7.4C-503.9,273-502,271.2-502.5,269.3z"/>
			<g>
				<g>
					<g>
						<path class="st7" d="M-524.8,260.8l-40.9,14.3c-5.5,1.9-19.4,4.9-24.8,5.7l0,0c-4.7,0-9.1,7.8-12.8,12.6l-26.8,27.7l-38.7-16
							l38.3-38.8c8-7.9,10.8-16.4,10.9-23.2l0.1-3.2c0.1-6.3,2.4-12.5,6.7-18.2l2-2.6c3.6-4.7,4.2-16.4,4.2-16.4
							c0-2.2,1.3-3.9,5.9-3.5c4.6,0.3,0,0,0,0c2.9,0.5,5.4,1.8,6.5,3.6l0.8,1.2c1.1,1.7,1.8,3.5,2.1,5.3l0.1,0.9
							c0.2,1.5,0.2,2.9,0,4.4l-2.2,12.3l36.5-11c9-2.7,18.6-4.7,28.4-5.7l19-2.1c2-0.2,4.1,0.1,5.7,0.9v0c2.5,1.2,3.4,3.3,2.3,5.2
							l-0.6,1c-0.9,1.5-2.9,2.5-5.3,2.9l-25.7,3.4c-3.8,0.5-7.5,1.5-10.8,2.8l0,0l23.8-2c3.1-0.2,6.2,0.2,8.9,1.2l0,0
							c3.3,1.2,4.6,3.7,3.2,5.9l0,0c0.2,1.4-1.5,2.7-3.8,2.8l-29.8,2.2l29.8,0.6c2.4,0.2,4.6,1.6,5.8,2.9c0,0,0.6,3.7-0.2,5.1l0,0
							c-0.8,1.4-2.5,2.5-4.6,3l-12.3,2.9c-1.1,0.3,18.1-2.8,16.4,3.8C-507.8,256.8-518.1,259.2-524.8,260.8z"/>
					</g>
					<path class="st19" d="M-580.6,187.1"/>
				</g>
			</g>
		</g>
		<g>
			<path class="st15" d="M-772.2,370.8c8.7-18.7,31.7-39.8,31.7-39.8c0.2,0,0.3,0,0.5,0c0.6-0.1,33.7-17.1,53.1-29.7
				c19.4-12.7,39.5-33.1,49.9-28.1c14.1,6,23.5,17.7,26.5,22.8c1.6,2.7,1.4,5.6-0.1,8.4c-1.3,2.4-24.9,31.1-49.9,47.8
				c-22.4,15-87,54.9-117.7,48.9C-778.1,401-781.4,390.5-772.2,370.8z"/>
		</g>
	</g>
</g>
</svg>
