<?xml version="1.0" encoding="utf-8"?>
<!-- Generator: Adobe Illustrator 24.0.1, SVG Export Plug-In . SVG Version: 6.00 Build 0)  -->
<svg version="1.1" id="Layer_1" xmlns:serif="http://www.serif.com/"
	 xmlns="http://www.w3.org/2000/svg" xmlns:xlink="http://www.w3.org/1999/xlink" x="0px" y="0px" width="280.6px" height="184.3px"
	 viewBox="0 0 280.6 184.3" style="enable-background:new 0 0 280.6 184.3;" xml:space="preserve">
<style type="text/css">
	.st0{opacity:0.26;fill:#4D4D4D;}
	.st1{fill:#AC5D41;}
	.st2{fill:#AE5F42;}
	.st3{opacity:0.2;fill:#231F20;}
	.st4{fill:#763D26;}
	.st5{opacity:0.1;fill:#FFFFFF;}
	.st6{fill:#E52568;}
	.st7{opacity:0.11;fill:#FFFFFF;}
	.st8{fill:#FFFFFF;}
	.st9{opacity:0.4;}
</style>
<g>
	<g>
		<g>
			<polygon class="st0" points="78,178.9 195.6,180.4 228,144.1 51.1,146.6 			"/>
			<polygon class="st1" points="276.9,125.4 3.7,125.4 10.4,147 271.3,148.9 			"/>
			<g>
				<polygon class="st2" points="86.6,147.4 101.8,178.9 78,178.9 50.7,147.4 				"/>
				<polygon class="st3" points="50.7,147.4 86.6,147.4 92.7,160 54.6,151.9 				"/>
				<polygon class="st4" points="101.8,178.9 101.8,147.5 86.6,147.4 				"/>
			</g>
			<g>
				<polygon class="st2" points="188.9,148.4 173.7,179.9 197.5,179.9 224.8,148.4 				"/>
				<polygon class="st3" points="224.8,148.4 188.9,148.4 182.8,161 220.9,152.9 				"/>
				<polygon class="st4" points="173.7,179.9 173.7,148.5 188.9,148.4 				"/>
			</g>
			<g>
				<polygon class="st5" points="59.1,126.3 58.1,146.6 18.7,146.5 17.6,126 				"/>
				<polygon class="st5" points="68,126.3 75.7,126.4 73.7,146.6 67.4,146.4 				"/>
			</g>
			<g>
				<polygon class="st5" points="221.2,127.3 222.1,149 261.4,149.2 262.7,127.3 				"/>
				<polygon class="st5" points="212.3,127.3 204.7,127.3 206.5,148.9 212.8,148.7 				"/>
			</g>
		</g>
	</g>
	<g>
		<g id="XMLID_58_">
			<g>
				<path class="st6" d="M140.3,3.9c33.1,0,60,26.9,60,60c0,33.1-26.9,60-60,60s-60-26.9-60-60C80.3,30.8,107.2,3.9,140.3,3.9z"/>
			</g>
		</g>
		<g id="XMLID_57_">
			<g>
				<path class="st7" d="M140.3,11c29.1,0,52.9,23.7,52.9,52.9c0,29.1-23.7,52.9-52.9,52.9S87.4,93,87.4,63.9
					C87.4,34.7,111.2,11,140.3,11z"/>
			</g>
		</g>
	</g>
	<g>
		<path class="st8" d="M152,33.7c2.7-1,5.8,0.1,7.3,2.6c0.2,0.4,0.6,0.6,1,0.6c0.4,0,0.8-0.2,1-0.6c0.2-0.4,0.2-0.8,0-1.2
			c-2.1-3.5-6.3-5-10.1-3.6c-0.6,0.2-0.9,0.9-0.7,1.5C150.7,33.6,151.4,33.9,152,33.7z"/>
		<path class="st8" d="M174.5,93.7h-68.6c-0.7,0-1.2,0.5-1.2,1.2c0,0.7,0.5,1.2,1.2,1.2h68.6c0.7,0,1.2-0.5,1.2-1.2
			C175.7,94.2,175.1,93.7,174.5,93.7z"/>
		<path class="st8" d="M139,59.4c0-0.7-0.5-1.2-1.2-1.2h-15.4c-0.7,0-1.2,0.5-1.2,1.2c0,0.7,0.5,1.2,1.2,1.2h15.4
			C138.5,60.6,139,60,139,59.4z"/>
		<path class="st8" d="M131.9,62.9h-3.6c-0.7,0-1.2,0.5-1.2,1.2c0,0.7,0.5,1.2,1.2,1.2h3.6c0.7,0,1.2-0.5,1.2-1.2
			C133.1,63.5,132.5,62.9,131.9,62.9z"/>
		<path class="st8" d="M174.5,84.2c0.7,0,1.2-0.5,1.2-1.2c0-0.7-0.5-1.2-1.2-1.2h-5.9v-4.7h5.9c0.7,0,1.2-0.5,1.2-1.2
			s-0.5-1.2-1.2-1.2h-16.6c-2,0-3.6,1.6-3.6,3.6v2.4c0,0.4,0.1,0.8,0.2,1.2H152c-2,0-3.6,1.6-3.6,3.6v2.4c0,0.4,0.1,0.8,0.2,1.2
			h-3.8v-1.2c0-2-1.6-3.6-3.5-3.6h-4.7v-4.7h9.5c2.6,0,4.7-2.1,4.7-4.7v-7.4c4.8,1.3,9.8-1.4,11.3-6.1c4.2,1.5,7,5.5,7,10
			c0,0.7,0.5,1.2,1.2,1.2c0.7,0,1.2-0.5,1.2-1.2c0-6-4.1-11.2-9.9-12.6h0c-0.4-0.1-0.8-0.2-1.1-0.2c1.9-1.3,3.5-3.1,4.5-5.2
			c3.3-0.6,7.2-2.3,7.2-9.2c0-10.5-8.5-18.9-18.9-18.9s-18.9,8.5-18.9,18.9c0,3.6,1.1,5.7,2.5,7.1H113c-2.6,0-4.7,2.1-4.7,4.7v18.9
			c0,2.6,2.1,4.7,4.7,4.7h9.5v4.7h-4.7c-2,0-3.6,1.6-3.6,3.6V89h-8.3c-0.7,0-1.2,0.5-1.2,1.2c0,0.7,0.5,1.2,1.2,1.2h68.6
			c0.7,0,1.2-0.5,1.2-1.2c0-0.7-0.5-1.2-1.2-1.2h-4.7v-4.7H174.5z M156.7,80.7v-2.4c0-0.7,0.5-1.2,1.2-1.2h8.3v4.7h-8.3
			C157.3,81.9,156.7,81.3,156.7,80.7z M153.2,65.3c-0.8,0-1.6-0.1-2.4-0.4v-4.3h7.7c0.4,0,0.9,0,1.3,0.1h0
			C158.8,63.4,156.2,65.3,153.2,65.3z M153.2,27.4c9.1,0,16.6,7.4,16.6,16.6c0,4.1-1.5,5.8-3.9,6.6c0.2-1,0.4-2,0.4-3v-7.1
			c0-0.7-0.5-1.2-1.2-1.2h-14.2c-0.7,0-1.2,0.5-1.2,1.2s0.5,1.2,1.2,1.2h13v5.9c0,3.3-1.4,6.3-4,8.4c-2.5,2-5.9,2.8-9,2v-2.1
			c0-2.6-2.1-4.7-4.7-4.7h-2.9c-0.4-1.1-0.6-2.3-0.6-3.6v-5.9h2.4c0.7,0,1.2-0.5,1.2-1.2s-0.5-1.2-1.2-1.2h-3.5
			c-0.7,0-1.2,0.5-1.2,1.2v7.1c0,1,0.1,2,0.4,3c-2.5-0.7-3.9-2.4-3.9-6.6C136.6,34.9,144,27.4,153.2,27.4z M124.8,74.8
			c0-2,1.6-3.6,3.5-3.6h2.4c0.7,0,1.2-0.5,1.2-1.2c0-0.7-0.5-1.2-1.2-1.2h-2.4c-3.3,0-5.9,2.7-5.9,5.9v2.4H113
			c-1.3,0-2.4-1.1-2.4-2.4V55.8c0-1.3,1.1-2.4,2.4-2.4h33.1c1.3,0,2.4,1.1,2.4,2.4v18.9c0,1.3-1.1,2.4-2.4,2.4h-9.5v-2.4
			c0-0.7-0.5-1.2-1.2-1.2s-1.2,0.5-1.2,1.2v9.5h-9.5V74.8z M116.5,87.8c0-0.7,0.5-1.2,1.2-1.2h23.7c0.7,0,1.2,0.5,1.2,1.2V89h-26
			V87.8z M152,89c-0.7,0-1.2-0.5-1.2-1.2v-2.4c0-0.7,0.5-1.2,1.2-1.2h5.9V89H152z M167.4,89h-7.1v-4.7h7.1V89z"/>
	</g>
	<g id="XMLID_1_" class="st9">
		<g>
			<path class="st8" d="M140.3,3.9c33.1,0,60,26.9,60,60c0,33.1-26.9,60-60,60s-60-26.9-60-60C80.3,30.8,107.2,3.9,140.3,3.9z"/>
		</g>
	</g>
</g>
</svg>
