<?xml version="1.0" encoding="utf-8"?>
<!-- Generator: Adobe Illustrator 24.0.1, SVG Export Plug-In . SVG Version: 6.00 Build 0)  -->
<svg version="1.1" id="Layer_1" xmlns="http://www.w3.org/2000/svg" xmlns:xlink="http://www.w3.org/1999/xlink" x="0px" y="0px"
	 width="280.6px" height="184.3px" viewBox="0 0 280.6 184.3" style="enable-background:new 0 0 280.6 184.3;" xml:space="preserve"
	>
<style type="text/css">
	.st0{opacity:0.26;fill:#4D4D4D;enable-background:new    ;}
	.st1{fill:#AC5D41;}
	.st2{fill:#AE5F42;}
	.st3{opacity:0.2;fill:#231F20;enable-background:new    ;}
	.st4{fill:#763D26;}
	.st5{opacity:0.1;fill:#FFFFFF;enable-background:new    ;}
	.st6{fill:#0077C1;}
	.st7{opacity:0.11;fill:#FFFFFF;enable-background:new    ;}
	.st8{fill:#FFFFFF;}
</style>
<title>Artboard 23 copy 4</title>
<g>
	<g>
		<g>
			<polygon class="st0" points="78,178.9 195.6,180.4 228,144.1 51.1,146.6 			"/>
			<polygon class="st1" points="276.9,125.3 3.7,125.3 10.4,147 271.4,148.9 			"/>
			<g>
				<polygon class="st2" points="86.6,147.4 101.8,178.9 78,178.9 50.7,147.4 				"/>
				<polygon class="st3" points="50.7,147.4 86.6,147.4 92.7,160 54.6,151.9 				"/>
				<polygon class="st4" points="101.8,178.9 101.8,147.4 86.6,147.4 				"/>
			</g>
			<g>
				<polygon class="st2" points="188.9,148.4 173.7,179.9 197.5,179.9 224.8,148.4 				"/>
				<polygon class="st3" points="224.8,148.4 188.9,148.4 182.8,161 220.9,152.9 				"/>
				<polygon class="st4" points="173.7,179.9 173.7,148.4 188.9,148.4 				"/>
			</g>
			<g>
				<polygon class="st5" points="59.1,126.2 58.1,146.6 18.8,146.4 17.6,126 				"/>
				<polygon class="st5" points="68.1,126.3 75.7,126.4 73.7,146.6 67.4,146.4 				"/>
			</g>
			<g>
				<polygon class="st5" points="221.3,127.3 222.1,149 261.4,149.1 262.8,127.3 				"/>
				<polygon class="st5" points="212.3,127.3 204.7,127.3 206.5,148.9 212.8,148.7 				"/>
			</g>
		</g>
	</g>
	<g>
		<g id="XMLID_56_">
			<g>
				<path class="st6" d="M140.3,3.9c33.1,0,60,26.9,60,60s-26.9,60-60,60s-60-26.9-60-60S107.2,3.9,140.3,3.9z"/>
			</g>
		</g>
		<g id="XMLID_55_">
			<g>
				<path class="st7" d="M140.3,11c29.1,0,52.9,23.7,52.9,52.9c0,29.1-23.7,52.9-52.9,52.9S87.5,93,87.5,63.9
					C87.5,34.7,111.2,11,140.3,11z"/>
			</g>
		</g>
	</g>
	<g>
		<path class="st8" d="M167.8,70.7V43.6c0-2.8-2.3-5.1-5.1-5.1h-33.6c-0.6,0-1.1,0.5-1.1,1.1s0.5,1.1,1.1,1.1h33.6
			c1.6,0,2.9,1.3,2.9,2.9v27.1c0,2-1.6,3.5-3.5,3.5h-42.5c-2,0-3.5-1.6-3.5-3.5V43.6c0-1.6,1.3-2.9,2.9-2.9h5.8
			c0.6,0,1.1-0.5,1.1-1.1s-0.5-1.1-1.1-1.1H119c-2.8,0-5.1,2.3-5.1,5.1v27.1c0,3.1,2.5,5.7,5.7,5.7h42.5
			C165.3,76.3,167.8,73.8,167.8,70.7z"/>
		<path class="st8" d="M175.4,78.5H172V43.6c0-5.1-4.2-9.3-9.3-9.3H119c-5.1,0-9.3,4.2-9.3,9.3v34.9h-3.3c-0.6,0-1.1,0.5-1.1,1.1v3
			c0,3.8,3.1,6.9,6.9,6.9h48.3c0.6,0,1.1-0.5,1.1-1.1s-0.5-1.1-1.1-1.1h-48.3c-2.7,0-4.8-2.2-4.8-4.8v-1.9h22
			c0.5,2.5,2.7,4.4,5.3,4.4H147c2.7,0,4.9-1.9,5.3-4.4h22v1.9c0,2.7-2.2,4.8-4.8,4.8h-4.7c-0.6,0-1.1,0.5-1.1,1.1s0.5,1.1,1.1,1.1
			h4.7c3.8,0,6.9-3.1,6.9-6.9v-3C176.4,78.9,176,78.5,175.4,78.5z M111.9,43.6c0-3.9,3.2-7.2,7.2-7.2h43.7c3.9,0,7.2,3.2,7.2,7.2
			v34.9h-58L111.9,43.6L111.9,43.6z M147,82.9h-12.1c-1.5,0-2.7-1-3.2-2.3h18.5C149.7,81.9,148.5,82.9,147,82.9z"/>
	</g>
</g>
</svg>
