<?xml version="1.0" encoding="utf-8"?>
<!-- Generator: Adobe Illustrator 23.1.1, SVG Export Plug-In . SVG Version: 6.00 Build 0)  -->
<svg version="1.1" id="Layer_1" xmlns:serif="http://www.serif.com/"
	 xmlns="http://www.w3.org/2000/svg" xmlns:xlink="http://www.w3.org/1999/xlink" x="0px" y="0px" width="150px" height="150px"
	 viewBox="0 0 150 150" style="enable-background:new 0 0 150 150;" xml:space="preserve">
<style type="text/css">
	.st0{fill:#FFFFFF;}
	.st1{clip-path:url(#SVGID_2_);}
	.st2{fill:#FCC287;}
	.st3{fill:#D1A273;}
	.st4{fill:#C5693D;}
	.st5{fill:#4A2405;}
	.st6{fill:#230000;}
	.st7{fill:none;stroke:#C5693D;stroke-width:2.0768;stroke-linecap:round;stroke-miterlimit:10;}
	.st8{fill:#BFDCF3;}
	.st9{fill:#E1F4FD;}
</style>
<circle class="st0" cx="75" cy="75" r="72.5"/>
<g>
	<g>
		<defs>
			<circle id="SVGID_1_" cx="75" cy="75" r="72.5"/>
		</defs>
		<clipPath id="SVGID_2_">
			<use xlink:href="#SVGID_1_"  style="overflow:visible;"/>
		</clipPath>
		<g class="st1">
			<g>
				<rect x="68.9" y="101.5" class="st2" width="19.6" height="15.5"/>
				<path class="st3" d="M86.8,112.6c-5.4-3.8-13.3-2.8-17.7-7.7v-3.6h19.6v12.9C88,113.7,87.5,113.1,86.8,112.6z"/>
			</g>
			<path class="st2" d="M39.2,138.8c-2.1-8.8,4.3-15.4,4.3-15.4l28.2-10.1h7h0.4h7l17.8,10.8c0,0,4.7,3.4,3.9,14.1l-3.1,62.5
				c0,0-0.4,3.2-0.1,11H79.3h-0.4H53.2c0.6-5.4,0-11,0-11L39.2,138.8z"/>
			<g>
				<g>
					<path class="st2" d="M104.6,72.6c-0.5,4.2,1.2,7.9,3.8,8.3c2.7,0.3,5.3-2.8,5.8-6.9c0.5-4.2-1.2-7.9-3.8-8.3
						C107.7,65.2,105.1,68.4,104.6,72.6z"/>
					<path class="st3" d="M107.8,71.4c0,0,0-0.2,0.1-0.5c0.1-0.4,0.2-1,0.5-1.5c0.2-0.5,0.8-1.3,1.4-1.3c0.2,0,0.3,0,0.5,0.1
						l0.2,0.1c0.1,0.1,0.1,0.1,0.2,0.1c0.2,0.2,0.5,0.5,0.6,1c0.2,0.3,0.3,0.8,0.4,1.2s0.2,0.9,0.1,1.2c-0.1,0.4-0.1,0.9-0.1,1.3
						c-0.1,0.3-0.1,0.8-0.2,1.1s-0.2,0.6-0.2,1c-0.1,0.2-0.2,0.5-0.2,0.6c-0.1,0.4-0.2,0.5-0.2,0.5s0.1-0.2,0.3-0.5
						c0.1-0.2,0.2-0.4,0.3-0.6c0.1-0.2,0.2-0.5,0.4-0.9c0.1-0.3,0.2-0.6,0.3-1.1c0.1-0.4,0.2-0.9,0.2-1.3c0.1-0.5,0.1-1,0-1.4
						s-0.2-1-0.4-1.4c-0.2-0.4-0.5-1-1-1.2c-0.1-0.1-0.2-0.2-0.4-0.2c-0.2-0.1-0.2-0.1-0.3-0.1c-0.2-0.1-0.5-0.1-0.8,0
						c-0.5,0.1-1,0.4-1.3,0.8c-0.2,0.3-0.4,0.8-0.5,1.1c-0.2,0.6-0.2,1.3-0.2,1.7C107.7,71.1,107.8,71.4,107.8,71.4z"/>
					<path class="st3" d="M107.8,71.4c0,0-0.2-0.4,1.4-0.5c0,0,1.9,0.2,1,2.4c-0.2,0.4-0.4,1-0.5,1.4c-0.2,0.6,0.2,1.7-0.2,2.3
						c-0.5,0.9-2.1,0.4-2.3-0.5c-0.1-0.6,0.6-1.9,1.1-2.4C108.5,73.9,109.5,72.3,107.8,71.4z"/>
					<path class="st3" d="M107.4,76.3C107.4,76.3,107.3,76.3,107.4,76.3c-0.2,0.2-0.2,0.3-0.3,0.5c-0.1,0.1-0.1,0.2-0.1,0.3
						c0,0.1,0,0.2,0,0.3s0,0.2,0.1,0.3c0,0.1,0.1,0.2,0.2,0.3c0.1,0.1,0.2,0.2,0.2,0.3c0.1,0.1,0.2,0.2,0.2,0.2
						c0.2,0.2,0.3,0.2,0.5,0.2c0.3,0.1,0.5,0.1,0.5,0.1s-0.1-0.2-0.3-0.5c-0.1-0.1-0.1-0.2-0.2-0.2c-0.1-0.1-0.1-0.2-0.2-0.2
						c-0.1-0.1-0.1-0.2-0.2-0.2c-0.1-0.1-0.1-0.2-0.1-0.2c-0.1-0.2-0.2-0.3-0.2-0.4s-0.1-0.2-0.1-0.2c0-0.1-0.1-0.2-0.1-0.2
						C107.4,76.5,107.4,76.3,107.4,76.3z"/>
				</g>
				<path class="st2" d="M80.8,24.9L80.8,24.9H81c6.4,0.3,34,4.3,27.5,46.9l-1.6,17.8c0,0-0.6,5.6-5.6,9.4c0,0-3.6,3.8-10.7,8.8
					c-2.1,1.5-5.4,1-7.6,0c-7.2-3.1-21.5-10.4-21.5-10.4c-5-3.8-5.2-7.8-5.2-7.8l-2.7-17.8C46.8,29.2,74.4,25.2,80.8,24.9z"/>
				<g>
					<path class="st4" d="M108.5,71.8h-0.9l-1.9,10.3c-1.2,8.1-8,6.2-8,6.2s-4.5-1.6-9.5-0.6c0,0-8-2.6-13.3,1.6
						c0,0-8.2,4.2-12.9-1.5l-1.8-12.9h-2.4c0.2,3.6-2.8,5.8-2.8,5.8l1.3,9c0,0,0.2,4,5.2,7.8c0,0,14.4,7.2,21.5,10.4
						c2.2,1,5.4,1.5,7.6,0c6.9-5.1,10.7-8.8,10.7-8.8c5-3.8,5.6-9.4,5.6-9.4L108.5,71.8"/>
				</g>
				<g>
					<g>
						<path class="st3" d="M92.1,64.4c0,1.3,0.2,2.6,0.2,3.9c0.2,1.3,0.3,2.6,0.6,3.9c0.2,1.3,0.6,2.5,1.1,3.8
							c0.1,0.3,0.2,0.5,0.4,1c0.2,0.3,0.2,0.5,0.4,1c0.2,0.4,0.3,0.5,0.5,1l0.5,0.9v-0.3c0.1,0.2,0.2,0.3,0.2,0.5
							c0.1,0.2,0.2,0.4,0.2,0.5c0.1,0.4,0,0.9-0.2,1.2c-0.3,0.6-1.3,1.2-2.2,1.5c-1,0.3-1.9,0.5-3,0.6c-1,0.2-2.1,0.2-3.1,0.3
							c1,0.2,2.1,0.2,3.1,0.3c1.1,0,2.2-0.1,3.2-0.3c1.1-0.2,2.3-0.8,2.9-1.9c0.3-0.5,0.4-1.3,0.3-1.9c0-0.3-0.1-0.5-0.2-1
							c-0.1-0.4-0.2-0.5-0.4-0.9l-0.1-0.1l-0.5-0.8l-0.5-0.8c-0.2-0.2-0.2-0.5-0.4-0.9c-0.2-0.3-0.2-0.5-0.4-0.9
							c-0.5-1.2-1-2.4-1.3-3.6c-0.3-1.3-0.8-2.4-1-3.7C92.7,67,92.3,65.7,92.1,64.4z"/>
					</g>
				</g>
				<g>
					<path class="st5" d="M72.2,64.7c0,1.4,1.2,2.7,2.7,2.7c1.4,0,2.7-1.2,2.7-2.7c0-1.4-1.2-2.7-2.7-2.7
						C73.3,62.1,72.2,63.3,72.2,64.7z"/>
					<path class="st6" d="M73.6,64.7c0,0.6,0.5,1.3,1.3,1.3c0.6,0,1.3-0.5,1.3-1.3c0-0.6-0.5-1.3-1.3-1.3
						C74.2,63.6,73.6,64,73.6,64.7z"/>
					<path class="st0" d="M72.7,64c0,0.5,0.4,1,1,1c0.5,0,1-0.4,1-1c0-0.5-0.5-0.9-1-0.9C73.1,63.1,72.7,63.5,72.7,64z"/>
				</g>
				<g>
					<path class="st5" d="M97.9,64.7c0,1.4,1.2,2.7,2.7,2.7c1.4,0,2.7-1.2,2.7-2.7c0-1.4-1.2-2.7-2.7-2.7
						C99,62.1,97.9,63.3,97.9,64.7z"/>
					<path class="st6" d="M99.3,64.7c0,0.6,0.5,1.3,1.3,1.3c0.6,0,1.3-0.5,1.3-1.3c0-0.6-0.5-1.3-1.3-1.3
						C99.9,63.6,99.3,64,99.3,64.7z"/>
					<path class="st0" d="M98.4,64c0,0.5,0.4,1,1,1c0.5,0,1-0.4,1-1c0-0.5-0.5-0.9-1.1-0.9C98.7,63.1,98.4,63.5,98.4,64z"/>
				</g>
				<path class="st7" d="M80,55.4c0,0-5.2-2.6-11.4,0.8"/>
				<path class="st7" d="M94.1,55.4c0,0,5.2-2.6,11.4,0.8"/>
				<path class="st4" d="M46,35.7c-3.1,14.8,3.9,30.5,3.9,30.5c7.5-2.6,7.8,8.9,7.8,8.9l2.4-0.1c-1.8-14.4,3.1-21,3-21.3
					c-3.2-7.8,2.8-14.4,2.8-14.4c16.1,5.9,37.5-1.2,37.5-1.2c6.2-5.8,1.4-15.6,1.4-15.6S102.9,8,79.3,7.7c0,0,3.5,11.6-15,9
					C64.2,16.7,49.6,18.5,46,35.7z"/>
				<path class="st4" d="M108.5,71.9c0,0,5.8-18.9,4.7-35.4c0,0-2.8-12-10.9-15c0,0,0.5,12.3-1.5,15.2c0,0,7.5,3.6,5.2,12.2
					c0,0,4.1,10.5,1.6,22.8L108.5,71.9z"/>
				<path class="st2" d="M57.4,72.6c0.5,4.2-1.1,7.9-3.8,8.3c-2.7,0.3-5.3-2.8-5.8-6.9c-0.5-4.2,1.2-7.9,3.8-8.3
					C54.3,65.2,56.9,68.4,57.4,72.6z"/>
				<path class="st3" d="M54.2,71.4c0,0,0-0.2-0.1-0.5c-0.1-0.4-0.2-1-0.5-1.5c-0.2-0.5-0.8-1.3-1.4-1.3c-0.2,0-0.3,0-0.5,0.1
					l-0.2,0.1c-0.1,0-0.1,0-0.1,0c-0.2,0.2-0.5,0.5-0.6,1c-0.2,0.3-0.3,0.8-0.4,1.2c-0.1,0.4-0.2,0.9-0.1,1.2
					c0.1,0.4,0.1,0.9,0.1,1.3c0.1,0.3,0.1,0.8,0.2,1.1c0.1,0.3,0.2,0.6,0.2,1c0.1,0.2,0.2,0.5,0.2,0.6c0.1,0.4,0.2,0.5,0.2,0.5
					s-0.1-0.2-0.3-0.5c-0.3-0.3-0.5-0.5-0.5-0.8c-0.1-0.2-0.2-0.5-0.3-0.9s-0.2-0.6-0.3-1.1c-0.1-0.4-0.2-0.9-0.2-1.3
					c-0.1-0.5-0.1-1,0-1.4c0.1-0.5,0.2-1,0.4-1.4s0.5-1,1-1.2c0.1-0.1,0.2-0.2,0.4-0.2c0.2-0.1,0.2-0.1,0.3-0.1
					c0.2-0.1,0.5-0.1,0.8,0c0.5,0.1,1,0.4,1.3,0.8c0.2,0.3,0.4,0.8,0.5,1.1c0.2,0.6,0.2,1.3,0.2,1.7C54.3,71.1,54.2,71.4,54.2,71.4z
					"/>
				<path class="st3" d="M54.2,71.4c0,0,0.2-0.4-1.4-0.5c0,0-1.9,0.2-1,2.4c0.2,0.4,0.4,1,0.5,1.4c0.2,0.6-0.2,1.7,0.2,2.3
					c0.5,0.9,2.1,0.4,2.3-0.5c0.1-0.6-0.6-1.9-1.1-2.4C53.6,73.9,52.4,72.3,54.2,71.4z"/>
				<path class="st3" d="M54.7,76.3c0,0,0.1,0,0.2,0.1s0.2,0.2,0.2,0.4c0.1,0.1,0.1,0.2,0.1,0.3c0,0.1,0,0.2,0,0.3s0,0.2-0.1,0.3
					c0,0.1-0.1,0.2-0.2,0.3c-0.2,0.1-0.2,0.2-0.2,0.3s-0.2,0.2-0.2,0.2c-0.2,0.2-0.3,0.2-0.5,0.2C53.6,79,53.4,79,53.4,79
					s0.1-0.2,0.3-0.5c0.1-0.1,0.1-0.2,0.2-0.2c0.1-0.1,0.1-0.2,0.2-0.2c0.1-0.1,0.1-0.2,0.2-0.2c0.1-0.1,0.1-0.2,0.2-0.2
					c0.1-0.2,0.2-0.3,0.2-0.4s0.1-0.2,0.1-0.2c0-0.1,0.1-0.2,0.1-0.2C54.6,76.5,54.7,76.3,54.7,76.3z"/>
				<g>
					<g>
						<path class="st0" d="M96.4,90.3C96.2,94,92.7,97,88.1,97c-4.4,0-8.1-2.9-8.3-6.7H96.4z"/>
						<g>
							<path class="st3" d="M79.9,90.3c0,0,1,0.2,2.6,0.3c1.5,0.2,3.6,0.2,5.7,0.2c2.2,0,4.1-0.1,5.7-0.2c1.5-0.2,2.6-0.3,2.6-0.3
								s-1-0.2-2.6-0.3c-1.5-0.2-3.6-0.2-5.7-0.2c-2.2,0-4.1,0.1-5.7,0.2C80.9,90.1,79.9,90.3,79.9,90.3z"/>
						</g>
						<g>
							<path class="st3" d="M96.4,90.3c0,0-0.1,0.3-0.2,1c-0.1,0.3-0.2,0.6-0.4,1c-0.2,0.4-0.5,0.8-0.9,1.2
								c-0.2,0.4-0.8,0.8-1.2,1.2c-0.2,0.2-0.5,0.3-0.8,0.5c-0.2,0.2-0.5,0.3-0.9,0.4s-0.5,0.2-1,0.3c-0.3,0.1-0.6,0.2-1,0.2
								l-0.5,0.1h-0.5c-0.3,0-0.8,0.1-1,0.1L87,96.3h-0.5L86,96.2c-0.3-0.1-0.6-0.2-1-0.2c-0.3-0.1-0.5-0.2-1-0.3
								c-0.3-0.1-0.5-0.2-0.9-0.4c-0.3-0.2-0.5-0.3-0.8-0.5c-0.4-0.4-1-0.6-1.2-1.2c-0.3-0.4-0.6-0.8-0.9-1.2
								c-0.2-0.4-0.4-0.8-0.4-1c-0.2-0.5-0.2-1-0.2-1s0,0.3,0.1,1c0,0.3,0.2,0.6,0.2,1.2c0.1,0.2,0.1,0.5,0.2,0.6
								c0.2,0.2,0.2,0.5,0.4,0.6c0.2,0.5,0.8,1,1.2,1.4c0.2,0.2,0.5,0.4,0.9,0.5c0.2,0.2,0.5,0.4,1,0.5c0.3,0.2,0.6,0.3,1,0.5
								c0.3,0.1,0.8,0.2,1.1,0.3l0.5,0.2l0.5,0.1l1.1,0.1l1.2-0.1l0.5-0.1l0.5-0.2c0.3-0.1,0.8-0.2,1.1-0.3s0.6-0.3,1-0.5
								s0.6-0.3,1-0.5c0.2-0.2,0.5-0.4,0.9-0.5c0.4-0.5,1-1,1.2-1.4c0.2-0.2,0.2-0.5,0.4-0.6c0.2-0.2,0.2-0.5,0.2-0.6
								c0.2-0.4,0.2-0.9,0.2-1.2C96.4,90.7,96.4,90.3,96.4,90.3z"/>
						</g>
					</g>
					<path class="st3" d="M90.2,98.4c0,0-0.2,0-0.6,0c-0.4,0-1,0-1.4,0c-0.5,0-1,0-1.4,0c-0.4,0-0.6,0-0.6,0v0.2
						c0,0,0.2,0.4,0.6,0.8c0.2,0.2,0.4,0.3,0.6,0.4c0.1,0,0.2,0.1,0.3,0.1l0.4,0.1l0.4-0.1c0.1,0,0.2-0.1,0.3-0.1
						c0.2-0.1,0.5-0.2,0.6-0.4c0.4-0.3,0.6-0.8,0.6-0.8V98.4L90.2,98.4z"/>
				</g>
				<g>
					<path class="st4" d="M103.4,38.2c0,0-0.5,0.2-1.6,0.4c-1,0.2-2.5,0.5-4.3,1c-1,0.2-1.8,0.3-2.8,0.5c-1,0.2-2.1,0.2-3.2,0.5
						c-1.1,0.1-2.3,0.2-3.5,0.3c-1.2,0.1-2.4,0.2-3.6,0.2l-1.8,0.2c-0.5,0-1.2,0-1.7,0c-1.2,0-2.4-0.1-3.6-0.2
						C76,41.1,75,41,74,40.9c-1-0.1-2.1-0.2-2.8-0.4c-1-0.2-1.7-0.3-2.4-0.5c-0.8-0.2-1.3-0.3-1.8-0.5c-1-0.2-1.6-0.4-1.6-0.4
						s0.5,0.2,1.6,0.5c0.5,0.2,1.1,0.4,1.8,0.6c0.6,0.2,1.5,0.4,2.4,0.6c1,0.2,1.8,0.4,2.9,0.6c0.5,0.1,1.1,0.2,1.6,0.3
						c0.5,0.1,1.1,0.1,1.7,0.2c1.2,0.2,2.4,0.2,3.6,0.2c0.5,0,1.2,0.1,1.8,0.1h1.8c1.3,0,2.4-0.2,3.7-0.2c1.2-0.1,2.4-0.3,3.6-0.4
						c1.2-0.2,2.3-0.4,3.2-0.6s2.1-0.5,2.8-0.8c1.7-0.5,3.1-1,4.2-1.3C102.8,38.4,103.4,38.2,103.4,38.2z"/>
				</g>
				<path class="st4" d="M57.7,74.9"/>
			</g>
			<path class="st8" d="M69.2,113.7c0,0-17.6,1-30.1,13.4c-3.6,3.6,5,42.4,9.5,66.9c2.1,10.8,0.6,17.7,1.7,19.6
				c3.5,6.2,55.2,2.4,58.1,0.5c1-0.5-0.2-9.5,0-21.7c0.4-26.4,1.1-67.5,1.1-67.5c-9-6.3-19.1-9-20-9c-1,0.1-3,3.9-3,3.9
				s-6.8-1.1-9.2-1.8C74.8,117.3,69.2,113.7,69.2,113.7z"/>
			<path class="st9" d="M68.8,109.4l10.9,9.2c0,0-7,10.1-8.1,10.2c-1.1,0.1-9-14.8-9.1-16C62.4,111.6,67.1,109.6,68.8,109.4z"/>
			<path class="st9" d="M89.6,111.3c0,0-9.9,6.6-10.1,7.2c-0.1,0.6,4.7,11.6,5.7,11.8c1.1,0.2,5.2-6.9,6.2-8.4
				C92.3,120.1,89.6,111.3,89.6,111.3z"/>
			<g transform="matrix(-1.07921,-0.207415,-0.185199,0.96362,259.771,329.198)">
				<path class="st8" d="M137.8-140.3c7.1-9.3,16-20,26.7-32c3.9-4.3,16.1-5.4,19.3-3.9c3.9,1.7,1.1,14.2-4.5,20.4
					c0,0-20,22.3-29,32.3C141.2-113.5,120.3-117.6,137.8-140.3z"/>
			</g>
			<g transform="matrix(-1.07921,-0.207415,-0.185199,0.96362,259.771,329.198)">
				<path class="st8" d="M248.4-114.7c-3.6-11.6-8.2-25.2-14.3-40.8c-2.3-5.7-13.1-11.8-16.7-11.7c-4.1,0.1-5.7,12.7-2.5,20.9
					c0,0,11.1,29,16.2,42.1C236.3-91.3,257-86.5,248.4-114.7z"/>
			</g>
		</g>
	</g>
</g>
</svg>
