<?xml version="1.0" encoding="utf-8"?>
<!-- Generator: Adobe Illustrator 24.0.1, SVG Export Plug-In . SVG Version: 6.00 Build 0)  -->
<svg version="1.1" id="Layer_1" xmlns:serif="http://www.serif.com/"
	 xmlns="http://www.w3.org/2000/svg" xmlns:xlink="http://www.w3.org/1999/xlink" x="0px" y="0px" width="1366px" height="768px"
	 viewBox="0 0 1366 768" style="enable-background:new 0 0 1366 768;" xml:space="preserve">
<style type="text/css">
	.st0{fill:#65C5B6;}
	.st1{opacity:0.15;}
	.st2{fill:#231F20;}
	.st3{fill:#0B2137;}
	.st4{fill:#0C141E;}
	.st5{fill:#134270;}
	.st6{fill:#FCCA9B;}
	.st7{fill:#FDDDBA;}
	.st8{fill:#2E384C;}
	.st9{fill:#E6F4FF;}
	.st10{fill:#F5FAFF;}
	.st11{fill:#F7CC19;}
	.st12{fill:#FDD55F;}
	.st13{fill:#FED938;}
	.st14{fill:#FFE161;}
	.st15{fill:#FEF4D7;}
	.st16{fill:#103254;}
	.st17{fill:#182933;}
	.st18{fill:#7C7C7A;}
	.st19{fill:#4E524E;}
	.st20{fill:#FFFFFF;}
	.st21{fill:#D2DCE1;}
</style>
<g>
	<g>
		<rect x="-1.1" y="-1.6" class="st0" width="1372.7" height="772.1"/>
	</g>
</g>
<g class="st1">
	<g>
		<g>
			<path class="st2" d="M597.1,456.3h-86.7c-0.7,0-1.6-0.3-2.1-0.9l-41.8-40.6c-0.9-0.9-1.2-2.2-0.7-3.4c0.4-1.2,1.6-1.9,2.8-1.9
				h168.8c1.2,0,2.4,0.7,2.8,1.9c0.4,1.2,0.1,2.5-0.6,3.3l-40.3,40.6C598.8,456.1,597.9,456.3,597.1,456.3z M511.7,450.3h84.2
				l34.3-34.4H476.1L511.7,450.3z"/>
		</g>
	</g>
	<g>
		<g>
			<path class="st2" d="M597.1,544.9h-86.7c-0.6,0-1.2-0.1-1.6-0.4l-65.3-39.9c-1.2-0.7-1.8-2.1-1.3-3.4c0.4-1.3,1.6-2.2,3-2.2H661
				c1.3,0,2.5,0.9,3,2.2c0.4,1.3-0.1,2.7-1.3,3.4l-64,39.9C598.2,544.7,597.7,544.9,597.1,544.9z M511.3,538.8h85l54.2-33.8H456
				L511.3,538.8z"/>
		</g>
	</g>
	<g>
		<g>
			<path class="st2" d="M433.8,693.1c-0.7,0-1.6-0.3-2.2-0.9c-0.9-0.9-1.2-2.4-0.6-3.5l76.2-147.5V502l0,0v-48.6l0,0v-40.5
				c0-0.4,0-0.7,0.1-1.2l17.9-46.4c-0.6-0.7-0.7-1.8-0.4-2.7c0.3-1,1.2-1.8,2.2-2.1l23.5-60.9c0.4-1.2,1.6-1.9,2.8-1.9l0,0
				c1.3,0,2.4,0.7,2.8,1.9l23.8,61.2c0.7,0.3,1.2,1,1.5,1.8c0.1,0.6,0.1,1.3,0,1.9l18.3,47.1v0.1l0,0l0,0c0.1,0.3,0.1,0.6,0.1,0.9
				V541l64.6,147.6c0.6,1.2,0.3,2.5-0.7,3.4c-0.9,0.9-2.4,1-3.5,0.4L550.6,633L435,692.6C434.9,692.9,434.3,693.1,433.8,693.1z
				 M559.3,630.9l96.3,52.2l-56.4-128.9l-5.8,66.1c-0.1,1.3-1,2.4-2.4,2.7L559.3,630.9z M508.2,553L441,683l102.6-52.8l-29.1-11.4
				c-1-0.4-1.8-1.5-1.9-2.7L508.2,553z M518.4,613.9l32.7,12.9l36.5-9l6.4-72.7l-40.8-19.4l-39.5,18.2L518.4,613.9z M560.3,522.3
				l33.7,16v-31.5L560.3,522.3z M513.5,506.9v30.3l32.4-14.9L513.5,506.9z M517,501.7l36.1,17.1l37.2-17.1l-36.6-20.5L517,501.7z
				 M560,477.6l34.1,19.1v-38.3L560,477.6z M513.5,458.6v38.3l34.1-19.1L513.5,458.6z M517,453.7l36.6,20.5l36.6-20.5l-36.6-17.1
				L517,453.7z M560.9,433.1l33.1,15.5v-31L560.9,433.1z M513.5,417.6v31l33.1-15.5L513.5,417.6z M516.7,412.2l37.4,17.4l37.1-17.5
				l-37.5-26.7L516.7,412.2z M558.7,381.7l31.8,22.6l-13.9-35.6L558.7,381.7z M530.5,369.2l-13.6,35.2l31.3-22.6L530.5,369.2z
				 M537.4,366.7l16,11.4l15.8-11.4H537.4z M533.9,360.4h39.6l-19.9-51.3L533.9,360.4z"/>
		</g>
	</g>
	<g>
		<g>
			
				<rect x="583.4" y="509.9" transform="matrix(0.6991 -0.7151 0.7151 0.6991 -263.8894 604.6501)" class="st2" width="6.1" height="211.9"/>
		</g>
	</g>
	<g>
		<g>
			
				<rect x="405.7" y="613.7" transform="matrix(0.743 -0.6693 0.6693 0.743 -280.3022 503.5527)" class="st2" width="219.6" height="6.1"/>
		</g>
	</g>
	<g>
		<g>
			
				<rect x="491.6" y="593.4" transform="matrix(7.538576e-02 -0.9972 0.9972 7.538576e-02 -155.1713 1061.2584)" class="st2" width="6.1" height="41.8"/>
		</g>
	</g>
	<g>
		<g>
			
				<rect x="489.9" y="631.9" transform="matrix(0.2857 -0.9583 0.9583 0.2857 -244.3824 942.032)" class="st2" width="39.6" height="6.1"/>
		</g>
	</g>
	<g>
		<g>
			
				<rect x="590.2" y="614.2" transform="matrix(0.9894 -0.1451 0.1451 0.9894 -83.1111 94.9928)" class="st2" width="38.9" height="6.1"/>
		</g>
	</g>
	<g>
		<g>
			
				<rect x="594.2" y="618.8" transform="matrix(0.9428 -0.3333 0.3333 0.9428 -178.9077 235.616)" class="st2" width="6.1" height="40.9"/>
		</g>
	</g>
	<g>
		<g>
			<rect x="465.6" y="412.8" class="st2" width="6.1" height="40.6"/>
		</g>
	</g>
	<g>
		<rect x="454.4" y="437" class="st2" width="27.9" height="9.5"/>
	</g>
	<g>
		<rect x="454.4" y="453.4" class="st2" width="27.9" height="9.5"/>
	</g>
	<g>
		<g>
			<rect x="442.3" y="501.1" class="st2" width="6.1" height="40.6"/>
		</g>
	</g>
	<g>
		<rect x="431.2" y="525.4" class="st2" width="27.9" height="9.5"/>
	</g>
	<g>
		<rect x="431.2" y="541.8" class="st2" width="27.9" height="9.5"/>
	</g>
	<g>
		<g>
			<rect x="634.7" y="412.8" class="st2" width="6.1" height="40.6"/>
		</g>
	</g>
	<g>
		<rect x="623.4" y="437" class="st2" width="27.9" height="9.5"/>
	</g>
	<g>
		<rect x="623.4" y="453.4" class="st2" width="27.9" height="9.5"/>
	</g>
	<g>
		<g>
			<rect x="659.2" y="502" class="st2" width="6.1" height="40.6"/>
		</g>
	</g>
	<g>
		<rect x="648" y="526.2" class="st2" width="27.9" height="9.5"/>
	</g>
	<g>
		<rect x="648" y="542.6" class="st2" width="27.9" height="9.5"/>
	</g>
</g>
<g class="st1">
	<g>
		<g>
			<path class="st2" d="M874.1,499.4H810c-0.6,0-1.2-0.3-1.6-0.6l-30.9-30c-0.6-0.6-0.9-1.6-0.6-2.5c0.3-0.9,1.2-1.5,2.1-1.5h125
				c0.9,0,1.8,0.6,2.1,1.3c0.3,0.9,0.1,1.8-0.4,2.5l-29.8,30C875.3,499.2,874.7,499.4,874.1,499.4z M811,494.9h62.2l25.4-25.6H784.7
				L811,494.9z"/>
		</g>
	</g>
	<g>
		<g>
			<path class="st2" d="M874.1,564.8H810c-0.4,0-0.9-0.1-1.2-0.3L760.5,535c-0.9-0.6-1.3-1.6-1-2.5c0.3-1,1.2-1.6,2.2-1.6h159.6
				c1,0,1.9,0.7,2.2,1.6c0.3,1-0.1,2.1-1,2.5l-47.3,29.4C875,564.7,874.6,564.8,874.1,564.8z M810.7,560.4h62.8l40-25H769.8
				L810.7,560.4z"/>
		</g>
	</g>
	<g>
		<g>
			<path class="st2" d="M753.4,674.3c-0.6,0-1.2-0.3-1.6-0.6c-0.7-0.7-0.9-1.8-0.4-2.7l56.2-109v-29l0,0v-35.9l0,0v-30
				c0-0.3,0-0.6,0.1-0.9l13.2-34.3c-0.4-0.6-0.4-1.3-0.3-1.9c0.3-0.7,0.9-1.3,1.6-1.5l17.3-44.9c0.3-0.9,1.2-1.5,2.1-1.5l0,0
				c0.9,0,1.8,0.6,2.1,1.5l17.6,45.2c0.4,0.3,0.9,0.7,1,1.3c0.1,0.4,0.1,1,0,1.5l13.6,34.9v0.1l0,0l0,0c0,0.3,0.1,0.4,0.1,0.7v95
				l47.7,109.2c0.4,0.9,0.1,1.9-0.6,2.5c-0.7,0.6-1.8,0.7-2.7,0.3l-81.1-43.9L754,674.5C754.2,674.3,753.9,674.3,753.4,674.3z
				 M846.2,628.4l71.2,38.6l-41.8-95.3l-4.3,48.9c-0.1,0.9-0.7,1.8-1.6,1.9L846.2,628.4z M808.4,570.7l-49.7,96.2l75.8-39l-21.6-8.4
				c-0.7-0.3-1.3-1-1.5-1.9L808.4,570.7z M815.9,615.8l24.2,9.5l26.9-6.6l4.7-53.8l-30.1-14.3L812.3,564L815.9,615.8z M847,548.1
				l25,11.8v-23.3L847,548.1z M812.4,536.6v22.5l23.9-11.1L812.4,536.6z M815,532.9l26.6,12.7l27.5-12.7l-27-15.2L815,532.9z
				 M846.8,515.2l25.1,14.2v-28.2L846.8,515.2z M812.4,501v28.2l25.1-14.2L812.4,501z M815,497.3l27.2,15.2l27.2-15.2l-27.2-12.7
				L815,497.3z M847.4,482.1l24.5,11.5v-22.9L847.4,482.1z M812.4,470.7v22.9l24.5-11.5L812.4,470.7z M814.6,466.7l27.6,13
				l27.6-12.9l-27.9-19.9L814.6,466.7z M845.8,444.1l23.5,16.7l-10.2-26.3L845.8,444.1z M824.9,434.8l-10,26l23.2-16.7L824.9,434.8z
				 M830.1,433l11.8,8.4l11.7-8.4H830.1z M827.4,428.4h29.3l-14.8-37.8L827.4,428.4z"/>
		</g>
	</g>
	<g>
		<g>
			
				<rect x="864.1" y="538.9" transform="matrix(0.6991 -0.7151 0.7151 0.6991 -180.6671 805.2379)" class="st2" width="4.4" height="156.8"/>
		</g>
	</g>
	<g>
		<g>
			
				<rect x="732.6" y="615.6" transform="matrix(0.743 -0.6693 0.6693 0.743 -204.3246 703.4579)" class="st2" width="162.4" height="4.4"/>
		</g>
	</g>
	<g>
		<g>
			
				<rect x="796.3" y="600.7" transform="matrix(7.536602e-02 -0.9972 0.9972 7.536602e-02 123.9194 1365.8796)" class="st2" width="4.4" height="30.9"/>
		</g>
	</g>
	<g>
		<g>
			
				<rect x="794.9" y="629.2" transform="matrix(0.2858 -0.9583 0.9583 0.2858 -26.8487 1226.7294)" class="st2" width="29.3" height="4.4"/>
		</g>
	</g>
	<g>
		<g>
			
				<rect x="869.1" y="616" transform="matrix(0.9894 -0.1453 0.1453 0.9894 -80.4484 134.9329)" class="st2" width="28.8" height="4.4"/>
		</g>
	</g>
	<g>
		<g>
			
				<rect x="872" y="619.4" transform="matrix(0.9428 -0.3333 0.3333 0.9428 -161.5085 327.6513)" class="st2" width="4.4" height="30.3"/>
		</g>
	</g>
	<g>
		<g>
			<rect x="776.9" y="467.1" class="st2" width="4.4" height="30"/>
		</g>
	</g>
	<g>
		<rect x="768.6" y="485" class="st2" width="20.7" height="6.9"/>
	</g>
	<g>
		<rect x="768.6" y="497.1" class="st2" width="20.7" height="6.9"/>
	</g>
	<g>
		<g>
			<rect x="759.8" y="532.5" class="st2" width="4.4" height="30"/>
		</g>
	</g>
	<g>
		<rect x="751.5" y="550.3" class="st2" width="20.7" height="6.9"/>
	</g>
	<g>
		<rect x="751.5" y="562.5" class="st2" width="20.7" height="6.9"/>
	</g>
	<g>
		<g>
			<rect x="901.9" y="467.1" class="st2" width="4.6" height="30"/>
		</g>
	</g>
	<g>
		<rect x="893.6" y="485" class="st2" width="20.7" height="6.9"/>
	</g>
	<g>
		<rect x="893.6" y="497.1" class="st2" width="20.7" height="6.9"/>
	</g>
	<g>
		<g>
			<rect x="920.1" y="533.1" class="st2" width="4.4" height="30"/>
		</g>
	</g>
	<g>
		<rect x="911.8" y="550.9" class="st2" width="20.7" height="6.9"/>
	</g>
	<g>
		<rect x="911.8" y="563.1" class="st2" width="20.7" height="6.9"/>
	</g>
</g>
<g class="st1">
	<g>
		<g>
			<path class="st2" d="M330.7,473.5h-52.5c-0.4,0-0.9-0.1-1.3-0.6l-25.3-24.5c-0.6-0.6-0.7-1.3-0.4-2.1c0.3-0.7,0.9-1.2,1.8-1.2
				h102.1c0.7,0,1.5,0.4,1.8,1.2c0.3,0.7,0.1,1.5-0.4,2.1L332,472.9C331.7,473.3,331.1,473.5,330.7,473.5z M279,469.8h51l20.8-20.8
				h-93.1L279,469.8z"/>
		</g>
	</g>
	<g>
		<g>
			<path class="st2" d="M330.7,527h-52.5c-0.3,0-0.7-0.1-0.9-0.3l-39.6-24.1c-0.7-0.4-1-1.3-0.9-2.1c0.3-0.7,0.9-1.3,1.8-1.3h130.6
				c0.9,0,1.5,0.6,1.8,1.3c0.3,0.7-0.1,1.6-0.7,2.1l-38.7,24.1C331.4,526.8,331,527,330.7,527z M278.8,523.3h51.4l32.8-20.4H245.4
				L278.8,523.3z"/>
		</g>
	</g>
	<g>
		<g>
			<path class="st2" d="M232,616.7c-0.4,0-0.9-0.1-1.3-0.6c-0.6-0.6-0.7-1.5-0.3-2.2l46.1-89.3V501l0,0v-29.4l0,0V447
				c0-0.3,0-0.4,0.1-0.7l10.8-28.1c-0.3-0.4-0.4-1-0.3-1.6s0.7-1,1.3-1.2l14.2-36.8c0.3-0.7,0.9-1.2,1.8-1.2l0,0
				c0.7,0,1.5,0.4,1.8,1.2l14.3,36.9c0.4,0.1,0.7,0.6,0.9,1c0.1,0.4,0.1,0.7,0,1.2l11.1,28.5c0,0,0,0,0,0.1l0,0l0,0
				c0,0.1,0.1,0.4,0.1,0.6v77.7l39.2,89.3c0.3,0.7,0.1,1.6-0.4,2.1c-0.6,0.6-1.5,0.6-2.1,0.3L303,580.4l-70,35.9
				C232.6,616.5,232.3,616.7,232,616.7z M307.8,579l58.4,31.6l-34.1-78l-3.5,39.9c0,0.7-0.6,1.5-1.3,1.6L307.8,579z M276.9,531.9
				l-40.6,78.6l62.1-31.9l-17.6-6.9c-0.6-0.3-1.2-0.9-1.2-1.6L276.9,531.9z M283.1,568.6l19.8,7.8l22-5.5l3.8-43.9L304,515.3
				l-23.9,10.9L283.1,568.6z M308.4,513.4l20.4,9.8v-19.1L308.4,513.4z M280.2,503.9v18.3l19.7-9L280.2,503.9z M282.2,501l21.9,10.3
				l22.6-10.3l-22.2-12.4L282.2,501z M308.2,486.3l20.5,11.5v-23.1L308.2,486.3z M280.2,474.8v23.1l20.5-11.5L280.2,474.8z
				 M282.4,471.7l22.2,12.4l22.2-12.4l-22.2-10.3L282.4,471.7z M308.8,459.3l20.1,9.3v-18.8L308.8,459.3z M280.2,450v18.8l20.1-9.3
				L280.2,450z M281.9,446.7l22.6,10.6l22.6-10.6l-22.8-16.3L281.9,446.7z M307.5,428.3l19.2,13.7l-8.4-21.6L307.5,428.3z
				 M290.5,420.6l-8.3,21.3l18.9-13.6L290.5,420.6z M294.6,419.1l9.6,6.9l9.6-6.9H294.6z M292.4,415.4h23.9l-12.1-31L292.4,415.4z"
				/>
		</g>
	</g>
	<g>
		<g>
			
				<rect x="322.2" y="505.8" transform="matrix(0.699 -0.7151 0.7151 0.699 -310.0581 403.2655)" class="st2" width="3.7" height="128.3"/>
		</g>
	</g>
	<g>
		<g>
			
				<rect x="214.9" y="568.6" transform="matrix(0.7429 -0.6694 0.6694 0.7429 -309.5372 334.9765)" class="st2" width="132.8" height="3.7"/>
		</g>
	</g>
	<g>
		<g>
			
				<rect x="266.9" y="556.4" transform="matrix(7.532503e-02 -0.9972 0.9972 7.532503e-02 -318.8456 794.169)" class="st2" width="3.7" height="25.3"/>
		</g>
	</g>
	<g>
		<g>
			
				<rect x="265.9" y="579.6" transform="matrix(0.2859 -0.9583 0.9583 0.2859 -358.7359 681.467)" class="st2" width="23.9" height="3.7"/>
		</g>
	</g>
	<g>
		<g>
			
				<rect x="326.6" y="568.9" transform="matrix(0.9894 -0.1454 0.1454 0.9894 -79.3915 55.2614)" class="st2" width="23.5" height="3.7"/>
		</g>
	</g>
	<g>
		<g>
			
				<rect x="328.9" y="571.7" transform="matrix(0.9428 -0.3333 0.3333 0.9428 -175.7665 143.6362)" class="st2" width="3.7" height="24.8"/>
		</g>
	</g>
	<g>
		<g>
			<rect x="251.2" y="447" class="st2" width="3.7" height="24.5"/>
		</g>
	</g>
	<g>
		<rect x="244.4" y="461.7" class="st2" width="17" height="5.8"/>
	</g>
	<g>
		<rect x="244.4" y="471.6" class="st2" width="17" height="5.8"/>
	</g>
	<g>
		<g>
			<rect x="237" y="500.5" class="st2" width="3.7" height="24.5"/>
		</g>
	</g>
	<g>
		<rect x="230.4" y="515.2" class="st2" width="17" height="5.8"/>
	</g>
	<g>
		<rect x="230.4" y="525.1" class="st2" width="17" height="5.8"/>
	</g>
	<g>
		<g>
			<rect x="353.4" y="447" class="st2" width="3.7" height="24.5"/>
		</g>
	</g>
	<g>
		<rect x="346.6" y="461.7" class="st2" width="17" height="5.8"/>
	</g>
	<g>
		<rect x="346.6" y="471.6" class="st2" width="17" height="5.8"/>
	</g>
	<g>
		<g>
			<rect x="368.2" y="501" class="st2" width="3.7" height="24.5"/>
		</g>
	</g>
	<g>
		<rect x="361.4" y="515.7" class="st2" width="17" height="5.8"/>
	</g>
	<g>
		<rect x="361.4" y="525.6" class="st2" width="17" height="5.8"/>
	</g>
</g>
<g class="st1">
	<g>
		<g>
			<path class="st2" d="M1097.2,463.4h-52.5c-0.4,0-0.9-0.1-1.3-0.6l-25.3-24.5c-0.6-0.6-0.7-1.3-0.4-2.1c0.3-0.7,0.9-1.2,1.8-1.2
				h102.1c0.7,0,1.5,0.4,1.8,1.2c0.3,0.7,0.1,1.5-0.4,2.1l-24.4,24.5C1098.2,463.2,1097.6,463.4,1097.2,463.4z M1045.4,459.7h51
				l20.8-20.8h-93.1L1045.4,459.7z"/>
		</g>
	</g>
	<g>
		<g>
			<path class="st2" d="M1097.2,516.9h-52.5c-0.3,0-0.7-0.1-0.9-0.3l-39.6-24.1c-0.7-0.4-1-1.3-0.9-2.1c0.3-0.7,0.9-1.3,1.8-1.3
				h130.6c0.9,0,1.5,0.6,1.8,1.3c0.3,0.7-0.1,1.6-0.7,2.1l-38.7,24.1C1097.9,516.7,1097.5,516.9,1097.2,516.9z M1045.3,513.2h51.4
				l32.8-20.4h-117.6L1045.3,513.2z"/>
		</g>
	</g>
	<g>
		<g>
			<path class="st2" d="M998.4,606.6c-0.4,0-0.9-0.1-1.3-0.6c-0.6-0.6-0.7-1.5-0.3-2.2l46.1-89.3v-23.6l0,0v-29.4l0,0V437
				c0-0.3,0-0.4,0.1-0.7l10.8-28.1c-0.3-0.4-0.4-1-0.3-1.6s0.7-1,1.3-1.2l14.2-36.8c0.3-0.7,0.9-1.2,1.8-1.2l0,0
				c0.7,0,1.5,0.4,1.8,1.2l14.3,36.9c0.4,0.1,0.7,0.6,0.9,1c0.1,0.4,0.1,0.7,0,1.2l11.1,28.5c0,0,0,0,0,0.1l0,0l0,0
				c0,0.1,0.1,0.4,0.1,0.6v77.7l39.2,89.3c0.3,0.7,0.1,1.6-0.4,2.1c-0.6,0.6-1.5,0.6-2.1,0.3l-66.3-35.9l-70,35.9
				C999,606.4,998.7,606.6,998.4,606.6z M1074.3,568.9l58.4,31.6l-34.1-78l-3.5,39.9c0,0.7-0.6,1.5-1.3,1.6L1074.3,568.9z
				 M1043.4,521.7l-40.6,78.6l62.1-31.9l-17.6-6.9c-0.6-0.3-1.2-0.9-1.2-1.6L1043.4,521.7z M1049.6,558.5l19.8,7.8l22-5.5l3.8-43.9
				l-24.7-11.7l-23.9,10.9L1049.6,558.5z M1074.8,503.3l20.4,9.8V494L1074.8,503.3z M1046.6,493.8v18.3l19.7-9L1046.6,493.8z
				 M1048.7,490.9l21.9,10.3l22.6-10.3l-22.2-12.4L1048.7,490.9z M1074.7,476.2l20.5,11.5v-23.1L1074.7,476.2z M1046.6,464.7v23.1
				l20.5-11.5L1046.6,464.7z M1048.8,461.6L1071,474l22.2-12.4l-22.2-10.3L1048.8,461.6z M1075.3,449.2l20.1,9.3v-18.8L1075.3,449.2
				z M1046.6,439.9v18.8l20.1-9.3L1046.6,439.9z M1048.4,436.6l22.6,10.6l22.6-10.6l-22.8-16.3L1048.4,436.6z M1074,418.2l19.2,13.7
				l-8.4-21.6L1074,418.2z M1057,410.5l-8.3,21.3l18.9-13.6L1057,410.5z M1061.1,409l9.6,6.9l9.6-6.9H1061.1z M1058.9,405.3h23.9
				l-12.1-31L1058.9,405.3z"/>
		</g>
	</g>
	<g>
		<g>
			
				<rect x="1088.7" y="495.7" transform="matrix(0.699 -0.7151 0.7151 0.699 -72.1238 948.3566)" class="st2" width="3.7" height="128.3"/>
		</g>
	</g>
	<g>
		<g>
			
				<rect x="981.3" y="558.5" transform="matrix(0.7429 -0.6694 0.6694 0.7429 -105.7602 845.399)" class="st2" width="132.8" height="3.7"/>
		</g>
	</g>
	<g>
		<g>
			
				<rect x="1033.5" y="546.2" transform="matrix(7.532503e-02 -0.9972 0.9972 7.532503e-02 400.0557 1549.1703)" class="st2" width="3.7" height="25.3"/>
		</g>
	</g>
	<g>
		<g>
			
				<rect x="1032.4" y="569.4" transform="matrix(0.2859 -0.9583 0.9583 0.2859 198.3719 1408.7745)" class="st2" width="23.9" height="3.7"/>
		</g>
	</g>
	<g>
		<g>
			
				<rect x="1093.1" y="558.8" transform="matrix(0.9894 -0.1454 0.1454 0.9894 -69.7775 166.6033)" class="st2" width="23.5" height="3.7"/>
		</g>
	</g>
	<g>
		<g>
			
				<rect x="1095.4" y="561.6" transform="matrix(0.9428 -0.3333 0.3333 0.9428 -128.5714 398.5338)" class="st2" width="3.7" height="24.8"/>
		</g>
	</g>
	<g>
		<g>
			<rect x="1017.7" y="436.9" class="st2" width="3.7" height="24.5"/>
		</g>
	</g>
	<g>
		<rect x="1010.9" y="451.6" class="st2" width="17" height="5.8"/>
	</g>
	<g>
		<rect x="1010.9" y="461.5" class="st2" width="17" height="5.8"/>
	</g>
	<g>
		<g>
			<rect x="1003.5" y="490.4" class="st2" width="3.7" height="24.5"/>
		</g>
	</g>
	<g>
		<rect x="996.8" y="505" class="st2" width="17" height="5.8"/>
	</g>
	<g>
		<rect x="996.8" y="514.9" class="st2" width="17" height="5.8"/>
	</g>
	<g>
		<g>
			<rect x="1119.9" y="436.9" class="st2" width="3.7" height="24.5"/>
		</g>
	</g>
	<g>
		<rect x="1113.1" y="451.6" class="st2" width="17" height="5.8"/>
	</g>
	<g>
		<rect x="1113.1" y="461.5" class="st2" width="17" height="5.8"/>
	</g>
	<g>
		<g>
			<rect x="1134.7" y="490.9" class="st2" width="3.7" height="24.5"/>
		</g>
	</g>
	<g>
		<rect x="1127.9" y="505.6" class="st2" width="17" height="5.8"/>
	</g>
	<g>
		<rect x="1127.9" y="515.5" class="st2" width="17" height="5.8"/>
	</g>
</g>
<g class="st1">
	<g>
		<g>
			<path class="st2" d="M136.2,558.4H93c-0.4,0-0.7-0.1-1-0.4l-20.7-20.2c-0.4-0.4-0.6-1-0.3-1.6c0.3-0.6,0.7-0.9,1.3-0.9h83.9
				c0.6,0,1.2,0.3,1.3,0.9c0.3,0.6,0.1,1.2-0.3,1.6l-20,20.2C136.9,558.3,136.6,558.4,136.2,558.4z M93.8,555.5h41.8l17-17.1H76
				L93.8,555.5z"/>
		</g>
	</g>
	<g>
		<g>
			<path class="st2" d="M136.2,602.4H93c-0.3,0-0.6-0.1-0.7-0.3l-32.5-19.8c-0.6-0.3-0.9-1-0.7-1.8c0.1-0.6,0.7-1,1.5-1h107.3
				c0.7,0,1.3,0.4,1.5,1c0.1,0.6-0.1,1.3-0.6,1.8L137,602.1C136.8,602.3,136.5,602.4,136.2,602.4z M93.5,599.3h42.3l26.9-16.8H66
				L93.5,599.3z"/>
		</g>
	</g>
	<g>
		<g>
			<path class="st2" d="M55.1,676c-0.4,0-0.7-0.1-1-0.4c-0.4-0.4-0.6-1.2-0.3-1.8l37.8-73.3V581l0,0v-24.1l0,0v-20.1
				c0-0.1,0-0.4,0.1-0.6l8.9-23.1c-0.3-0.4-0.3-0.9-0.1-1.3c0.1-0.4,0.6-0.9,1-1l11.7-30.3c0.3-0.6,0.7-1,1.5-1l0,0
				c0.6,0,1.2,0.4,1.5,1l11.8,30.4c0.3,0.1,0.6,0.4,0.7,0.9c0.1,0.3,0.1,0.6,0,0.9l9.2,23.5c0,0,0,0,0,0.1l0,0l0,0
				c0,0.1,0,0.3,0,0.4v63.8l32.1,73.3c0.3,0.6,0.1,1.3-0.3,1.8s-1.2,0.6-1.8,0.1l-54.5-29.6l-57.5,29.6C55.5,676,55.4,676,55.1,676z
				 M117.4,645.1l47.9,26L137.2,607l-2.8,32.8c0,0.6-0.4,1.2-1.2,1.3L117.4,645.1z M92,606.4L58.6,671l51-26.2L95.1,639
				c-0.6-0.1-0.9-0.7-0.9-1.3L92,606.4z M97,636.7l16.3,6.4l18.2-4.6l3.1-36.1l-20.2-9.6l-19.7,9L97,636.7z M117.9,591.2l16.8,8
				v-15.7L117.9,591.2z M94.7,583.5v14.9l16.1-7.4L94.7,583.5z M96.4,581l17.9,8.6l18.5-8.6l-18.2-10.2L96.4,581z M117.7,569l17,9.5
				v-19.1L117.7,569z M94.7,559.4v19.1l17-9.5L94.7,559.4z M96.4,557.1l18.2,10.2l18.2-10.2l-18.2-8.6L96.4,557.1z M118.2,546.9
				l16.4,7.7v-15.4L118.2,546.9z M94.7,539v15.4l16.4-7.7L94.7,539z M96.1,536.4l18.6,8.7l18.6-8.7l-18.6-13.3L96.1,536.4z
				 M117.1,521.3l15.8,11.2l-6.9-17.7L117.1,521.3z M103.1,515l-6.8,17.4l15.5-11.2L103.1,515z M106.5,513.8l8,5.6l7.8-5.6H106.5z
				 M104.7,510.7h19.7l-9.9-25.4L104.7,510.7z"/>
		</g>
	</g>
	<g>
		<g>
			
				<rect x="129.2" y="585" transform="matrix(0.699 -0.7151 0.7151 0.699 -416.6837 285.3911)" class="st2" width="3" height="105.4"/>
		</g>
	</g>
	<g>
		<g>
			
				<rect x="41" y="636.5" transform="matrix(0.7429 -0.6694 0.6694 0.7429 -402.513 228.0106)" class="st2" width="109.2" height="3"/>
		</g>
	</g>
	<g>
		<g>
			
				<rect x="83.7" y="626.6" transform="matrix(7.546417e-02 -0.9971 0.9971 7.546417e-02 -556.4349 673.8342)" class="st2" width="3" height="20.8"/>
		</g>
	</g>
	<g>
		<g>
			
				<rect x="82.8" y="645.6" transform="matrix(0.2856 -0.9583 0.9583 0.2856 -553.9546 551.0963)" class="st2" width="19.7" height="3"/>
		</g>
	</g>
	<g>
		<g>
			
				<rect x="132.8" y="636.9" transform="matrix(0.9895 -0.1446 0.1446 0.9895 -90.8151 27.315)" class="st2" width="19.4" height="3"/>
		</g>
	</g>
	<g>
		<g>
			
				<rect x="134.7" y="639.1" transform="matrix(0.9428 -0.3333 0.3333 0.9428 -208.6233 82.5234)" class="st2" width="3" height="20.4"/>
		</g>
	</g>
	<g>
		<g>
			<rect x="70.9" y="536.7" class="st2" width="3" height="20.2"/>
		</g>
	</g>
	<g>
		<rect x="65.3" y="548.8" class="st2" width="13.9" height="4.7"/>
	</g>
	<g>
		<rect x="65.3" y="556.9" class="st2" width="13.9" height="4.7"/>
	</g>
	<g>
		<g>
			<rect x="59.2" y="580.7" class="st2" width="3" height="20.2"/>
		</g>
	</g>
	<g>
		<rect x="53.7" y="592.7" class="st2" width="13.9" height="4.7"/>
	</g>
	<g>
		<rect x="53.7" y="600.8" class="st2" width="13.9" height="4.7"/>
	</g>
	<g>
		<g>
			<rect x="154.8" y="536.7" class="st2" width="3" height="20.2"/>
		</g>
	</g>
	<g>
		<rect x="149.3" y="548.8" class="st2" width="13.9" height="4.7"/>
	</g>
	<g>
		<rect x="149.3" y="556.9" class="st2" width="13.9" height="4.7"/>
	</g>
	<g>
		<g>
			<rect x="167.1" y="581" class="st2" width="3" height="20.2"/>
		</g>
	</g>
	<g>
		<rect x="161.5" y="593.1" class="st2" width="13.9" height="4.7"/>
	</g>
	<g>
		<rect x="161.5" y="601.3" class="st2" width="13.9" height="4.7"/>
	</g>
</g>
<g class="st1">
	<g>
		<g>
			<path class="st2" d="M1295.3,551h-43.1c-0.4,0-0.7-0.1-1-0.4l-20.7-20.2c-0.4-0.4-0.6-1-0.3-1.6c0.3-0.6,0.7-0.9,1.3-0.9h83.9
				c0.6,0,1.2,0.3,1.3,0.9c0.3,0.6,0.1,1.2-0.3,1.6l-20.1,20.2C1296,550.9,1295.7,551,1295.3,551z M1252.9,548.1h41.8l17-17.1h-76.5
				L1252.9,548.1z"/>
		</g>
	</g>
	<g>
		<g>
			<path class="st2" d="M1295.3,595h-43.1c-0.3,0-0.6-0.1-0.7-0.3l-32.5-19.8c-0.6-0.3-0.9-1-0.7-1.8c0.1-0.6,0.7-1,1.5-1h107.3
				c0.7,0,1.3,0.4,1.5,1c0.1,0.6-0.1,1.3-0.6,1.8l-31.8,19.8C1295.9,594.9,1295.6,595,1295.3,595z M1252.6,591.9h42.3l26.9-16.8
				h-96.6L1252.6,591.9z"/>
		</g>
	</g>
	<g>
		<g>
			<path class="st2" d="M1214.2,668.6c-0.4,0-0.7-0.1-1-0.4c-0.4-0.4-0.6-1.2-0.3-1.8l37.8-73.3v-19.5l0,0v-24.1l0,0v-20.1
				c0-0.1,0-0.4,0.1-0.6l8.9-23.1c-0.3-0.4-0.3-0.9-0.1-1.3c0.1-0.4,0.6-0.9,1-1l11.7-30.3c0.3-0.6,0.7-1,1.5-1l0,0
				c0.6,0,1.2,0.4,1.5,1l11.8,30.4c0.3,0.1,0.6,0.4,0.7,0.9c0.1,0.3,0.1,0.6,0,0.9l9.2,23.5c0,0,0,0,0,0.1l0,0l0,0
				c0,0.1,0,0.3,0,0.4v63.8l32.1,73.3c0.3,0.6,0.1,1.3-0.3,1.8c-0.4,0.4-1.2,0.6-1.8,0.1l-54.5-29.6l-57.5,29.6
				C1214.6,668.6,1214.5,668.6,1214.2,668.6z M1276.5,637.7l47.9,26l-28.1-64.1l-2.8,32.8c0,0.6-0.4,1.2-1.2,1.3L1276.5,637.7z
				 M1251.1,599l-33.4,64.6l51-26.2l-14.5-5.8c-0.6-0.1-0.9-0.7-0.9-1.3L1251.1,599z M1256.1,629.3l16.3,6.4l18.2-4.6l3.1-36.1
				l-20.2-9.6l-19.7,9L1256.1,629.3z M1277,583.8l16.8,8v-15.7L1277,583.8z M1253.8,576.1V591l16.1-7.4L1253.8,576.1z M1255.5,573.6
				l17.9,8.6l18.5-8.6l-18.2-10.2L1255.5,573.6z M1276.8,561.6l17,9.5V552L1276.8,561.6z M1253.8,552v19.1l17-9.5L1253.8,552z
				 M1255.5,549.7l18.2,10.2l18.2-10.2l-18.2-8.6L1255.5,549.7z M1277.4,539.5l16.4,7.7v-15.4L1277.4,539.5z M1253.8,531.7V547
				l16.4-7.7L1253.8,531.7z M1255.2,529l18.6,8.7l18.6-8.7l-18.6-13.3L1255.2,529z M1276.2,513.9l15.8,11.2l-6.9-17.7L1276.2,513.9z
				 M1262.2,507.6l-6.8,17.4l15.5-11.2L1262.2,507.6z M1265.7,506.4l8,5.6l7.8-5.6H1265.7z M1263.8,503.3h19.7l-9.9-25.4
				L1263.8,503.3z"/>
		</g>
	</g>
	<g>
		<g>
			
				<rect x="1288.3" y="577.6" transform="matrix(0.699 -0.7151 0.7151 0.699 -62.5028 1112.05)" class="st2" width="3" height="105.4"/>
		</g>
	</g>
	<g>
		<g>
			
				<rect x="1200.3" y="629.1" transform="matrix(0.7433 -0.669 0.669 0.7433 -99.7098 1001.3717)" class="st2" width="109.2" height="3"/>
		</g>
	</g>
	<g>
		<g>
			
				<rect x="1242.8" y="619.3" transform="matrix(7.546418e-02 -0.9971 0.9971 7.546418e-02 522.4909 1822.9803)" class="st2" width="3" height="20.8"/>
		</g>
	</g>
	<g>
		<g>
			
				<rect x="1242" y="638.2" transform="matrix(0.2858 -0.9583 0.9583 0.2858 281.0804 1656.5148)" class="st2" width="19.7" height="3"/>
		</g>
	</g>
	<g>
		<g>
			
				<rect x="1291.9" y="629.5" transform="matrix(0.9893 -0.146 0.146 0.9893 -78.1792 196.7951)" class="st2" width="19.4" height="3"/>
		</g>
	</g>
	<g>
		<g>
			
				<rect x="1293.7" y="631.6" transform="matrix(0.9428 -0.3333 0.3333 0.9428 -139.8513 468.386)" class="st2" width="3" height="20.4"/>
		</g>
	</g>
	<g>
		<g>
			<rect x="1230" y="529.3" class="st2" width="3.1" height="20.2"/>
		</g>
	</g>
	<g>
		<rect x="1224.4" y="541.4" class="st2" width="13.9" height="4.7"/>
	</g>
	<g>
		<rect x="1224.4" y="549.5" class="st2" width="13.9" height="4.7"/>
	</g>
	<g>
		<g>
			<rect x="1218.3" y="573.3" class="st2" width="3.1" height="20.2"/>
		</g>
	</g>
	<g>
		<rect x="1212.8" y="585.3" class="st2" width="13.9" height="4.7"/>
	</g>
	<g>
		<rect x="1212.8" y="593.4" class="st2" width="13.9" height="4.7"/>
	</g>
	<g>
		<g>
			<rect x="1314" y="529.3" class="st2" width="3.1" height="20.2"/>
		</g>
	</g>
	<g>
		<rect x="1308.4" y="541.4" class="st2" width="13.9" height="4.7"/>
	</g>
	<g>
		<rect x="1308.4" y="549.5" class="st2" width="13.9" height="4.7"/>
	</g>
	<g>
		<g>
			<rect x="1326.2" y="573.6" class="st2" width="3.1" height="20.2"/>
		</g>
	</g>
	<g>
		<rect x="1320.6" y="585.7" class="st2" width="13.9" height="4.7"/>
	</g>
	<g>
		<rect x="1320.6" y="593.9" class="st2" width="13.9" height="4.7"/>
	</g>
</g>
<g>
	<g>
		<g>
			<g>
				<path class="st3" d="M288.9,692.1h-9.4c-2,0-3.7-1.2-4.4-2.8l-1.1,4.3c-0.8,3.1,1.5,6.1,4.7,6.1h9.4c2.7,0,4.9-2.2,4.9-4.9v-5
					C292.1,691.1,290.7,692.1,288.9,692.1z"/>
			</g>
			<g>
				<path class="st4" d="M276.6,683.2l-1.6,6c0.8,1.7,2.4,2.8,4.4,2.8h9.4c1.8,0,3.2-1,4.1-2.4v-6.5h-16.3L276.6,683.2L276.6,683.2z
					"/>
			</g>
		</g>
		<g>
			<g>
				<path class="st3" d="M312.4,692.1h9.4c2,0,3.7-1.2,4.4-2.8l1.1,4.3c0.8,3.1-1.5,6.1-4.7,6.1h-9.4c-2.7,0-4.9-2.2-4.9-4.9v-5
					C309.2,691.1,310.7,692.1,312.4,692.1z"/>
			</g>
			<g>
				<path class="st4" d="M324.7,683.2l1.6,6c-0.8,1.7-2.4,2.8-4.4,2.8h-9.4c-1.8,0-3.2-1-4.1-2.4v-6.5h16.3L324.7,683.2L324.7,683.2
					z"/>
			</g>
		</g>
		<path class="st5" d="M300.3,487.2V487C300.3,487,300.3,487,300.3,487.2c-0.1-0.1-0.1-0.2-0.1-0.2L300.3,487.2
			c-1.9,2.8-29.3,45.2-28,60.7l2.8,139.8h18.8l6.4-139.9l7.1,139.9h18.8l2.1-134.3C329.5,537.8,302.1,490.3,300.3,487.2z"/>
		<g>
			<polygon class="st6" points="309.8,428.9 300.3,432.6 291.6,432.6 288,459.2 300.3,465.2 312.5,455.8 			"/>
			<g>
				<g>
					<path class="st7" d="M316,425.9L316,425.9c1.8,0,3.2-1.4,3.6-3.4l1.5-9.4c0.2-1.2-0.9-2-1.7-1.3l-2.7,2.3L316,425.9z"/>
				</g>
			</g>
			<path class="st7" d="M303.6,387.9h-3.3c-8.2,0-20.2,8.6-20.2,15.9l2.9,20.1c1.2,8.2,8.4,15.1,17.3,17.6
				c8.9-2.5,16.1-9.4,17.3-17.6l2.9-20.1C320.5,396.5,311.8,387.9,303.6,387.9z"/>
			<g>
				<g>
					<path class="st7" d="M284.6,425.9L284.6,425.9c-1.8,0-3.2-1.4-3.6-3.4l-1.5-9.4c-0.2-1.2,0.9-2,1.7-1.3l2.7,2.3L284.6,425.9z"
						/>
				</g>
			</g>
			<g>
				<g>
					<path class="st8" d="M286.2,403.4c-1,6.1-1.7,12.5-1.7,12.5s-3.5-0.3-4.6-8.8s2.6-14.3,4.5-16.3c1.9-1.9,7.6-4.4,16-4.6
						s12.5,2.5,16.9,6.7c4.4,4.1,4,8.1,3.5,12.1s-3.4,12.2-3.4,12.2l-1.5-10.5c-0.6-4.4-4.4-7.8-8.9-7.9
						C306.9,398.8,287.2,397.3,286.2,403.4z"/>
				</g>
			</g>
		</g>
		<g>
			<g>
				<g>
					<g>
						<g>
							<path class="st6" d="M357.3,571.6c-4.4,8.5-2.8,8.1-4.4,8.5c-3.5,0.8,3.4-6.8-3.3-17.9c-1.4-2.3-2.9,0.1-2.3,2.9
								c0.6,2.8,2.2,6.1-0.5,6.1c0,0-6-6.7-2.7-13.9c2.7-6,2.9-4.7,2.3-5.4l9.2-0.3C355.7,551.5,361.6,563.1,357.3,571.6z"/>
						</g>
					</g>
				</g>
			</g>
		</g>
		<g>
			<path class="st9" d="M346.5,551.9l12.4,0.6c0,0-14.2-83.5-17.8-92.2c-2.1-5.1-6.6-8.7-11.9-9.9h-0.1v34.4L346.5,551.9z"/>
		</g>
		<path class="st10" d="M323.3,449.9c0,0-4.8-1-12-3.7c0,6.1-5.1,14.8-11.1,14.8s-10.5-8.8-10.5-14.9l-11.8,3.9
			c-19.3-2.4-5.7,26.8-5.7,34.8l2.7,49.8c9.8,0,18.2,0.5,25.3,0c0,0,0,0,0-0.1h26l2.8-49.8C329,476.7,342.6,447.5,323.3,449.9z"/>
	</g>
	<g>
		<path class="st11" d="M323.1,402l-1.7-4.8c0-7.3-3.7-13.7-9.3-17.5c0,0-4.5-1.9-4.4-2.2c-1.7-0.6-3.5-1.1-5.4-1.3v0.1h-4.6v-0.1
			c-1.9,0.2-3.7,0.6-5.4,1.3c0.1,0.3-4.4,2.3-4.4,2.3c-5.6,3.8-9.3,10.2-9.3,17.5l-2.1,4.7H323.1z"/>
		<path class="st12" d="M324.3,401.7h-0.9h-2h-21.5H299l0,0h-22.4h-0.9c-0.8,0-1.4,0.6-1.4,1.4s0.6,1.4,1.4,1.4h3.5H299v0.1h21.7
			h3.5c0.8,0,1.4-0.6,1.4-1.4C325.7,402.3,325,401.7,324.3,401.7z"/>
		<path class="st13" d="M300,404.5h-20.7c3,2.9,7,4.6,11.1,4.6h9.6l0,0h9.6c4.1,0,8.1-1.7,11.1-4.6H300z"/>
		<g>
			<path class="st14" d="M300.3,376.1c0.7,0,1.4,0,2.1,0.1c-0.1-1.2-1-2.2-2.3-2.2l0,0v2.1H300.3z"/>
		</g>
		<g>
			<path class="st15" d="M300,376.1V374l0,0c-1.2,0-2.2,1-2.3,2.2c0.7-0.1,1.4-0.1,2.1-0.1H300z"/>
		</g>
		<g>
			<path class="st15" d="M297.7,391.6c0,1.3,1,2.3,2.3,2.3l0,0v-17.8h-0.2c-0.7,0-1.4,0-2.1,0.1v0.1V391.6z"/>
		</g>
		<g>
			<path class="st14" d="M300,376.1V394l0,0c1.3,0,2.3-1,2.3-2.3v-15.4v-0.1c-0.7-0.1-1.4-0.1-2.1-0.1H300z"/>
		</g>
	</g>
	<g>
		<g>
			<path class="st15" d="M290.2,376.1c-1.3,0-2.3,1-2.3,2.3v1.4v11.9c0,1.3,1,2.3,2.3,2.3l0,0V376.1L290.2,376.1z"/>
		</g>
		<g>
			<path class="st14" d="M292.3,377.5c-0.3-0.8-1.2-1.4-2.1-1.4l0,0V394l0,0c1.3,0,2.3-1,2.3-2.3v-13.3
				C292.5,378,292.5,377.7,292.3,377.5z"/>
		</g>
	</g>
	<g>
		<g>
			<path class="st15" d="M309.8,376.1c-0.9,0-1.8,0.6-2.1,1.4c-0.1,0.3-0.2,0.6-0.2,0.9v13.3c0,1.3,1,2.3,2.3,2.3l0,0V376.1
				L309.8,376.1z"/>
		</g>
		<g>
			<path class="st13" d="M309.8,376.1L309.8,376.1V394l0,0c1.3,0,2.3-1,2.3-2.3v-11.9v-1.4C312.1,377.1,311.1,376.1,309.8,376.1z"/>
		</g>
	</g>
	<g>
		<polygon class="st5" points="283.8,483.3 276,483.3 274,449.9 281.1,448.9 		"/>
	</g>
	<g>
		<polygon class="st5" points="300.4,481.7 300.3,481.7 272.3,481.7 272.3,549.8 300.3,549.8 300.4,549.8 328.4,549.8 328.4,481.7 
					"/>
		<g>
			<polygon class="st16" points="316.8,483.3 324.7,483.3 326.6,449.9 319.5,448.9 			"/>
		</g>
	</g>
	<g>
		<path class="st17" d="M281.7,480h-4.3c-1.6,0-2.9-1.3-2.9-2.9v-2.6c0-1.6,1.3-2.9,2.9-2.9h4.3c1.6,0,2.9,1.3,2.9,2.9v2.6
			C284.6,478.7,283.3,480,281.7,480z"/>
	</g>
	<g>
		<path class="st17" d="M323.3,480H319c-1.6,0-2.9-1.3-2.9-2.9v-2.6c0-1.6,1.3-2.9,2.9-2.9h4.3c1.6,0,2.9,1.3,2.9,2.9v2.6
			C326.2,478.7,324.9,480,323.3,480z"/>
	</g>
	<g>
		<polygon class="st17" points="328.4,536.1 312.9,536.1 272.2,536.1 272.2,529 328.4,529 		"/>
	</g>
	<g>
		<g>
			<path class="st17" d="M317,536.1l11.4-1.6v21.7c0,9.8-1,19.6-3.1,29.3l-2.6,12.4L317,536.1z"/>
		</g>
		<g>
			<path class="st17" d="M327.2,603.8h0.2c6.4,0,11.5-5.2,11.5-11.5v-22c0-6.4-5.2-11.5-11.5-11.5h-8.1l3.3,40.7
				C322.7,601.9,324.8,603.8,327.2,603.8z"/>
		</g>
		<g>
			<path class="st17" d="M321.6,563.4h-2l-0.5-6.9l8.2-0.3c6.7,0,12.3,5.1,12.9,11.7v0.2c0.3,3.5,1.7,6.8-1.8,6.8h-0.1l-0.9-3
				c-1.6-5.2-6.5-8.7-11.9-8.6L321.6,563.4z"/>
		</g>
	</g>
	<g>
		<g>
			<path class="st17" d="M283.6,536.1l-11.4-1.6v21.7c0,9.8,1,19.6,3.1,29.3l2.6,12.4L283.6,536.1z"/>
		</g>
		<g>
			<path class="st17" d="M273.5,603.8h-0.2c-6.4,0-11.5-5.2-11.5-11.5v-22c0-6.4,5.2-11.5,11.5-11.5h8.1l-3.3,40.7
				C277.9,601.9,275.9,603.8,273.5,603.8z"/>
		</g>
		<g>
			<path class="st17" d="M279.1,563.4h2l0.5-6.9l-8.2-0.3c-6.7,0-12.3,5.1-12.9,11.7v0.2c-0.3,3.5-1.7,6.8,1.8,6.8h0.1l0.9-3
				c1.6-5.2,6.5-8.7,11.9-8.6L279.1,563.4z"/>
		</g>
	</g>
	<g>
		<g>
			<path class="st18" d="M275.5,437.9c-1.2,0-2.2,1.7-2.2,3.9v76.4c0,2.2,1,3.9,2.2,3.9l0,0V437.9L275.5,437.9z"/>
		</g>
		<g>
			<path class="st19" d="M275.5,437.9L275.5,437.9v84.2l0,0c1.2,0,2.2-1.7,2.2-3.9v-76.4C277.7,439.7,276.7,437.9,275.5,437.9z"/>
		</g>
	</g>
	<g>
		<g>
			<path class="st18" d="M279.9,437.9c-1.2,0-2.2,1.7-2.2,3.9v76.4c0,2.2,1,3.9,2.2,3.9l0,0V437.9L279.9,437.9z"/>
		</g>
		<g>
			<path class="st19" d="M280,437.9L280,437.9v84.2l0,0c1.2,0,2.2-1.7,2.2-3.9v-76.4C282.1,439.7,281.2,437.9,280,437.9z"/>
		</g>
	</g>
	<g>
		<g>
			<path class="st18" d="M284.4,437.9c-1.2,0-2.2,1.7-2.2,3.9v76.4c0,2.2,1,3.9,2.2,3.9l0,0V437.9L284.4,437.9z"/>
		</g>
		<g>
			<path class="st19" d="M284.4,437.9L284.4,437.9v84.2l0,0c1.2,0,2.2-1.7,2.2-3.9v-76.4C286.6,439.7,285.6,437.9,284.4,437.9z"/>
		</g>
	</g>
	<g>
		<path class="st6" d="M274.6,510c0,0,3.2-6,7.7-7.5s9.3-0.9,9.9-0.1c0.6,0.8-1.4,2.8-1.4,2.8s1.1-0.2,1.5,0.9s-1.4,2.3-1.4,2.3
			s1.3,0.4,1.2,1.8s-1.6,2.1-1.6,2.1s1.8,0.3,1.3,1.9c-0.5,1.6-5.9,5-8.4,5.4c-4.2,0.6-6.7-0.3-6.7-0.3L274.6,510z"/>
	</g>
	<g>
		<path class="st9" d="M274.4,509.1l2.3,10.1c0,0-33.6,24.3-26.6-9.9c4.9-24,8.2-44.2,10.2-49c2.1-5.1,6.6-8.7,11.9-9.9h0.1v34.4
			l-8.7,26.2L274.4,509.1z"/>
	</g>
</g>
<path class="st20" d="M692.4,280.6c-3.7,0-7.2,0.9-10.2,2.4c-5.2-9.4-15.5-15.9-27-15.9c-2,0-3.7,0.2-5.4,0.4
	c-5.2-21.1-24.4-37.1-47.1-37.5l0,0c0-13.5-10.9-24.4-24.4-24.4c-7.8,0-14.8,3.7-19.4,9.6c-10.2-8.9-23.5-14.6-38.1-14.6
	c-26.8,0-49.3,18.3-55.8,43.2c-4.8-1.7-10-2.8-15.5-2.8c-23.1,0-41.8,17.7-43.8,40.1c-2-0.7-4.1-0.9-6.3-0.9
	c-13.7,0.4-24.6,11.3-24.6,24.8h342C716.6,291.5,705.7,280.6,692.4,280.6z"/>
<path class="st20" d="M1237.1,358.3c0-12.2-9.8-22-22-22c-2.4,0-4.6,0.4-6.8,1.1c-3.7-15-17.2-26.2-33.6-26.2c-2.4,0-5,0.2-7.2,0.9
	c-2.2-26.8-24.6-48-52.1-48c-22.4,0-41.4,14.2-48.8,33.8c-7-4.6-15.5-7.4-24.6-7.4c-24.8,0-44.9,20.1-44.9,44.9
	c0,3.5,0.4,7,1.3,10.2h-15.7c-9.4,0-17.2,7.6-17.2,17.2v0.4h270.9C1236.9,361.5,1237.1,360,1237.1,358.3z"/>
<path class="st20" d="M964.6,153.1c3.9,0,7.6,0.9,10.9,2.4c5.7-10,16.3-16.8,28.6-16.8c2,0,3.9,0.2,5.9,0.7
	c5.7-22.4,25.7-39,49.7-39.4l0,0c0-14.2,11.6-25.7,25.7-25.7c8.3,0,15.7,3.9,20.5,10c10.7-9.6,24.8-15.3,40.3-15.3
	c28.3,0,52.1,19.4,58.8,45.6c5-2,10.7-3.1,16.3-3.1c24.2,0,44.2,18.7,46.2,42.5c2.2-0.7,4.4-0.9,6.8-0.9c14.2,0,25.7,11.6,25.7,25.7
	H938.9C938.9,164.7,950.2,153.1,964.6,153.1z"/>
<path class="st21" d="M224.4,207.4c0-8.1,6.5-14.6,14.6-14.6c1.5,0,3.1,0.2,4.6,0.7c2.4-9.8,11.3-17.2,22-17.2
	c1.7,0,3.3,0.2,4.8,0.4c1.3-17.7,16.1-31.6,34.2-31.6c14.8,0,27.2,9.4,32.3,22.2c4.6-3.1,10.2-4.8,16.1-4.8
	c16.3,0,29.6,13.3,29.6,29.6c0,2.4-0.2,4.6-0.9,6.8H392c6.3,0,11.3,5,11.3,11.3v0.2H224.8C224.6,209.6,224.4,208.5,224.4,207.4z"/>
<path class="st20" d="M273.2,176c-2.6,0-5,0.7-7.2,1.5c-3.7-6.5-10.7-11.1-18.7-11.1c-1.3,0-2.6,0.2-3.9,0.4
	c-3.7-14.8-17-25.7-32.9-26.2l0,0c0-9.4-7.6-17-17-17c-5.4,0-10.5,2.6-13.5,6.8c-7-6.3-16.3-10-26.6-10c-18.7,0-34.4,12.9-38.8,30.1
	c-3.3-1.3-7-2-10.7-2c-16.1,0-29.2,12.4-30.5,27.9c-1.3-0.4-2.8-0.7-4.4-0.7c-9.4,0-17,7.6-17,17h238.2
	C290.2,183.6,282.6,176,273.2,176z"/>
<path class="st21" d="M1341.3,367.6c0-10.2-8.3-18.7-18.7-18.7c-2,0-3.9,0.2-5.7,0.9c-3.3-12.6-14.6-22.2-28.3-22.2
	c-2.2,0-4.1,0.2-6.1,0.7c-1.7-22.7-20.9-40.8-44-40.8c-19,0-35.1,12-41.4,28.8c-5.9-3.9-13.1-6.1-20.9-6.1
	c-21.1,0-38.1,17-38.1,38.1c0,3.1,0.4,5.9,1.1,8.7h-13.3c-8.1,0-14.6,6.5-14.6,14.6v0.2H1341
	C1341.1,370.5,1341.3,369.2,1341.3,367.6z"/>
</svg>
