<?xml version="1.0" encoding="utf-8"?>
<!-- Generator: Adobe Illustrator 23.1.1, SVG Export Plug-In . SVG Version: 6.00 Build 0)  -->
<svg version="1.1" id="Layer_1" xmlns="http://www.w3.org/2000/svg" xmlns:xlink="http://www.w3.org/1999/xlink" x="0px" y="0px"
	 width="220px" height="220px" viewBox="0 0 220 220" style="enable-background:new 0 0 220 220;" xml:space="preserve">
<style type="text/css">
	.st0{fill:#DEFDFF;}
	.st1{fill:#7CC0A0;}
	.st2{fill:#639980;}
	.st3{fill:#98CDB3;}
	.st4{fill:#FFFFFF;}
	.st5{fill:#F4BA48;}
	.st6{fill:#BD9139;}
	.st7{fill:#E0A370;}
	.st8{fill:#CC4B4C;}
	.st9{fill:#E39700;}
	.st10{fill:#FFCB43;}
	.st11{fill:#959595;}
	.st12{fill:#F2ECBF;}
	.st13{fill:#2B3B4E;}
</style>
<title>Artboard 23 copy 4</title>
<g>
	<g>
		<path class="st0" d="M206.6,110c0,53.1-43,96.1-96.1,96.1c-53.1,0-96.1-43-96.1-96.1c0-53.1,43-96.1,96.1-96.1
			C163.6,13.9,206.6,56.9,206.6,110z"/>
	</g>
	<g>
		<g>
			<path class="st1" d="M41.8,157.8c-0.4,0-0.7-0.3-0.7-0.7V65.2c0-0.4,0.3-0.7,0.7-0.7h141.5c0.4,0,0.7,0.3,0.7,0.7V157
				c0,0.4-0.3,0.7-0.7,0.7H41.8L41.8,157.8z"/>
			<g>
				<path class="st2" d="M183.2,65.2V157H41.8V65.2H183.2 M183.2,63.7H41.8c-0.8,0-1.5,0.6-1.5,1.5V157c0,0.8,0.6,1.5,1.5,1.5h141.5
					c0.8,0,1.5-0.6,1.5-1.5V65.2C184.7,64.4,184.1,63.7,183.2,63.7L183.2,63.7z"/>
			</g>
		</g>
		<g>
			<path class="st3" d="M179.6,70.5H45.3c-0.1,0-0.2-0.1-0.2-0.2s0.1-0.2,0.2-0.2h134.3c0.1,0,0.2,0.1,0.2,0.2
				S179.7,70.5,179.6,70.5z"/>
			<path class="st3" d="M179.6,75.9H45.3c-0.1,0-0.2-0.1-0.2-0.2c0-0.1,0.1-0.2,0.2-0.2h134.3c0.1,0,0.2,0.1,0.2,0.2
				C179.8,75.8,179.7,75.9,179.6,75.9z"/>
			<path class="st3" d="M179.6,81.3H45.3c-0.1,0-0.2-0.1-0.2-0.2s0.1-0.2,0.2-0.2h134.3c0.1,0,0.2,0.1,0.2,0.2
				S179.7,81.3,179.6,81.3z"/>
			<path class="st3" d="M179.6,86.8H45.3c-0.1,0-0.2-0.1-0.2-0.2c0-0.1,0.1-0.2,0.2-0.2h134.3c0.1,0,0.2,0.1,0.2,0.2
				C179.8,86.7,179.7,86.8,179.6,86.8z"/>
			<path class="st3" d="M179.6,92.3H45.3c-0.1,0-0.2-0.1-0.2-0.2s0.1-0.2,0.2-0.2h134.3c0.1,0,0.2,0.1,0.2,0.2
				C179.8,92.2,179.7,92.3,179.6,92.3z"/>
			<path class="st3" d="M179.6,97.7H45.3c-0.1,0-0.2-0.1-0.2-0.2s0.1-0.2,0.2-0.2h134.3c0.1,0,0.2,0.1,0.2,0.2
				C179.8,97.6,179.7,97.7,179.6,97.7z"/>
			<path class="st3" d="M179.6,103.2H45.3c-0.1,0-0.2-0.1-0.2-0.2s0.1-0.2,0.2-0.2h134.3c0.1,0,0.2,0.1,0.2,0.2
				C179.8,103.1,179.7,103.2,179.6,103.2z"/>
			<path class="st3" d="M179.6,108.6H45.3c-0.1,0-0.2-0.1-0.2-0.2s0.1-0.2,0.2-0.2h134.3c0.1,0,0.2,0.1,0.2,0.2
				C179.8,108.5,179.7,108.6,179.6,108.6z"/>
			<path class="st3" d="M179.6,114.1H45.3c-0.1,0-0.2-0.1-0.2-0.2s0.1-0.2,0.2-0.2h134.3c0.1,0,0.2,0.1,0.2,0.2
				C179.8,114,179.7,114.1,179.6,114.1z"/>
			<path class="st3" d="M179.6,119.6H45.3c-0.1,0-0.2-0.1-0.2-0.2s0.1-0.2,0.2-0.2h134.3c0.1,0,0.2,0.1,0.2,0.2
				C179.8,119.4,179.7,119.6,179.6,119.6z"/>
			<path class="st3" d="M179.6,130.4H45.3c-0.1,0-0.2-0.1-0.2-0.2s0.1-0.2,0.2-0.2h134.3c0.1,0,0.2,0.1,0.2,0.2
				C179.8,130.3,179.7,130.4,179.6,130.4z"/>
			<path class="st3" d="M179.6,125H45.3c-0.1,0-0.2-0.1-0.2-0.2s0.1-0.2,0.2-0.2h134.3c0.1,0,0.2,0.1,0.2,0.2
				C179.8,124.9,179.7,125,179.6,125z"/>
			<path class="st3" d="M179.6,135.9H45.3c-0.1,0-0.2-0.1-0.2-0.2s0.1-0.2,0.2-0.2h134.3c0.1,0,0.2,0.1,0.2,0.2
				C179.8,135.8,179.7,135.9,179.6,135.9z"/>
			<path class="st3" d="M179.6,141.4H45.3c-0.1,0-0.2-0.1-0.2-0.2c0-0.1,0.1-0.2,0.2-0.2h134.3c0.1,0,0.2,0.1,0.2,0.2
				C179.8,141.2,179.7,141.4,179.6,141.4z"/>
			<path class="st3" d="M179.6,146.8H45.3c-0.1,0-0.2-0.1-0.2-0.2s0.1-0.2,0.2-0.2h134.3c0.1,0,0.2,0.1,0.2,0.2
				S179.7,146.8,179.6,146.8z"/>
			<path class="st3" d="M177.1,153.8c-0.1,0-0.2-0.1-0.2-0.2V68.7c0-0.1,0.1-0.2,0.2-0.2c0.1,0,0.2,0.1,0.2,0.2v84.8
				C177.3,153.7,177.2,153.8,177.1,153.8z"/>
			<path class="st3" d="M47.8,153.8c-0.1,0-0.2-0.1-0.2-0.2V68.7c0-0.1,0.1-0.2,0.2-0.2s0.2,0.1,0.2,0.2v84.8
				C48,153.7,47.9,153.8,47.8,153.8z"/>
			<path class="st3" d="M54,153.8c-0.1,0-0.2-0.1-0.2-0.2V68.7c0-0.1,0.1-0.2,0.2-0.2s0.2,0.1,0.2,0.2v84.8
				C54.2,153.7,54,153.8,54,153.8z"/>
			<path class="st3" d="M60.1,153.8c-0.1,0-0.2-0.1-0.2-0.2V68.7c0-0.1,0.1-0.2,0.2-0.2s0.2,0.1,0.2,0.2v84.8
				C60.3,153.7,60.2,153.8,60.1,153.8z"/>
			<path class="st3" d="M66.2,153.8c-0.1,0-0.2-0.1-0.2-0.2V68.7c0-0.1,0.1-0.2,0.2-0.2s0.2,0.1,0.2,0.2v84.8
				C66.5,153.7,66.4,153.8,66.2,153.8z"/>
			<path class="st3" d="M72.4,153.8c-0.1,0-0.2-0.1-0.2-0.2V68.7c0-0.1,0.1-0.2,0.2-0.2s0.2,0.1,0.2,0.2v84.8
				C72.6,153.7,72.5,153.8,72.4,153.8z"/>
			<path class="st3" d="M78.5,153.8c-0.1,0-0.2-0.1-0.2-0.2V68.7c0-0.1,0.1-0.2,0.2-0.2s0.2,0.1,0.2,0.2v84.8
				C78.8,153.7,78.7,153.8,78.5,153.8z"/>
			<path class="st3" d="M84.7,153.8c-0.1,0-0.2-0.1-0.2-0.2V68.7c0-0.1,0.1-0.2,0.2-0.2s0.2,0.1,0.2,0.2v84.8
				C85,153.7,84.9,153.8,84.7,153.8z"/>
			<path class="st3" d="M90.9,153.8c-0.1,0-0.2-0.1-0.2-0.2V68.7c0-0.1,0.1-0.2,0.2-0.2s0.2,0.1,0.2,0.2v84.8
				C91.1,153.7,91,153.8,90.9,153.8z"/>
			<path class="st3" d="M97,153.8c-0.1,0-0.2-0.1-0.2-0.2V68.7c0-0.1,0.1-0.2,0.2-0.2s0.2,0.1,0.2,0.2v84.8
				C97.3,153.7,97.2,153.8,97,153.8z"/>
			<path class="st3" d="M103.2,153.8c-0.1,0-0.2-0.1-0.2-0.2V68.7c0-0.1,0.1-0.2,0.2-0.2s0.2,0.1,0.2,0.2v84.8
				C103.4,153.7,103.3,153.8,103.2,153.8z"/>
			<path class="st3" d="M109.4,153.8c-0.1,0-0.2-0.1-0.2-0.2V68.7c0-0.1,0.1-0.2,0.2-0.2s0.2,0.1,0.2,0.2v84.8
				C109.6,153.7,109.5,153.8,109.4,153.8z"/>
			<path class="st3" d="M115.5,153.8c-0.1,0-0.2-0.1-0.2-0.2V68.7c0-0.1,0.1-0.2,0.2-0.2s0.2,0.1,0.2,0.2v84.8
				C115.8,153.7,115.7,153.8,115.5,153.8z"/>
			<path class="st3" d="M121.7,153.8c-0.1,0-0.2-0.1-0.2-0.2V68.7c0-0.1,0.1-0.2,0.2-0.2s0.2,0.1,0.2,0.2v84.8
				C121.9,153.7,121.8,153.8,121.7,153.8z"/>
			<path class="st3" d="M127.8,153.8c-0.1,0-0.2-0.1-0.2-0.2V68.7c0-0.1,0.1-0.2,0.2-0.2s0.2,0.1,0.2,0.2v84.8
				C128.1,153.7,128,153.8,127.8,153.8z"/>
			<path class="st3" d="M134,153.8c-0.1,0-0.2-0.1-0.2-0.2V68.7c0-0.1,0.1-0.2,0.2-0.2c0.1,0,0.2,0.1,0.2,0.2v84.8
				C134.3,153.7,134.1,153.8,134,153.8z"/>
			<path class="st3" d="M140.2,153.8c-0.1,0-0.2-0.1-0.2-0.2V68.7c0-0.1,0.1-0.2,0.2-0.2c0.1,0,0.2,0.1,0.2,0.2v84.8
				C140.4,153.7,140.3,153.8,140.2,153.8z"/>
			<path class="st3" d="M146.3,153.8c-0.1,0-0.2-0.1-0.2-0.2V68.7c0-0.1,0.1-0.2,0.2-0.2c0.1,0,0.2,0.1,0.2,0.2v84.8
				C146.6,153.7,146.5,153.8,146.3,153.8z"/>
			<path class="st3" d="M152.5,153.8c-0.1,0-0.2-0.1-0.2-0.2V68.7c0-0.1,0.1-0.2,0.2-0.2c0.1,0,0.2,0.1,0.2,0.2v84.8
				C152.7,153.7,152.6,153.8,152.5,153.8z"/>
			<path class="st3" d="M158.6,153.8c-0.1,0-0.2-0.1-0.2-0.2V68.7c0-0.1,0.1-0.2,0.2-0.2c0.1,0,0.2,0.1,0.2,0.2v84.8
				C158.9,153.7,158.8,153.8,158.6,153.8z"/>
			<path class="st3" d="M164.8,153.8c-0.1,0-0.2-0.1-0.2-0.2V68.7c0-0.1,0.1-0.2,0.2-0.2c0.1,0,0.2,0.1,0.2,0.2v84.8
				C165,153.7,164.9,153.8,164.8,153.8z"/>
			<path class="st3" d="M171,153.8c-0.1,0-0.2-0.1-0.2-0.2V68.7c0-0.1,0.1-0.2,0.2-0.2c0.1,0,0.2,0.1,0.2,0.2v84.8
				C171.2,153.7,171.1,153.8,171,153.8z"/>
			<path class="st3" d="M179.7,152.2H45.4c-0.1,0-0.2-0.1-0.2-0.2s0.1-0.2,0.2-0.2h134.3c0.1,0,0.2,0.1,0.2,0.2
				S179.8,152.2,179.7,152.2z"/>
		</g>
		<g transform="translate(1 1)">
			<g>
				<g>
					<path class="st4" d="M136.1,86.2h-3.9v-1.3c0-0.8-0.5-1.3-1.3-1.3s-1.3,0.5-1.3,1.3v1.3h-5.2v-1.3c0-0.8-0.5-1.3-1.3-1.3
						s-1.3,0.5-1.3,1.3v1.3h-5.2V74.5c0-0.8-0.5-1.3-1.3-1.3h-11.8v-1.3c0-0.8-0.5-1.3-1.3-1.3c-0.8,0-1.3,0.5-1.3,1.3v1.3h-5.2
						v-1.3c0-0.8-0.5-1.3-1.3-1.3c-0.8,0-1.3,0.5-1.3,1.3v1.3H81.2c-0.8,0-1.3,0.5-1.3,1.3v11.8h-5.2v-1.3c0-0.8-0.5-1.3-1.3-1.3
						c-0.8,0-1.3,0.5-1.3,1.3v1.3h-5.2v-1.3c0-0.8-0.5-1.3-1.3-1.3c-0.8,0-1.3,0.5-1.3,1.3v1.3h-3.9c-0.8,0-1.3,0.5-1.3,1.3v47v10.4
						c0,0.8,0.5,1.3,1.3,1.3h20.9h6.5h21h6.5h20.9c0.8,0,1.3-0.5,1.3-1.3v-10.4V87.5C137.4,86.8,136.9,86.2,136.1,86.2z M134.8,88.8
						v44.4h-18.3V88.8H134.8z M60.6,88.8h19.3v44.4H60.6V88.8z M60.6,135.9h19.3v7.9H60.6V135.9z M81.5,74.7h33.4v69h-5V132
						c0-0.8-0.5-1.3-1.3-1.3H87.8c-0.8,0-1.3,0.5-1.3,1.3v11.8h-5L81.5,74.7z M89.1,133.2h7.9v10.4h-7.9V133.2L89.1,133.2z
						 M99.5,143.7v-10.4h7.9v10.4H99.5z M134.8,143.7h-18.3v-7.9h18.3V143.7z"/>
					<path class="st4" d="M90.4,90.2H93c1.4,0,2.6-1.2,2.6-2.6v-2.6c0-1.4-1.2-2.6-2.6-2.6h-2.6c-1.4,0-2.6,1.2-2.6,2.6v2.6
						C87.8,88.9,88.9,90.2,90.4,90.2z M90.4,84.9H93v2.6h-2.6V84.9z"/>
					<path class="st4" d="M103.5,90.2h2.6c1.4,0,2.6-1.2,2.6-2.6v-2.6c0-1.4-1.2-2.6-2.6-2.6h-2.6c-1.4,0-2.6,1.2-2.6,2.6v2.6
						C100.8,88.9,102,90.2,103.5,90.2z M103.5,84.9h2.6v2.6h-2.6V84.9z"/>
					<path class="st4" d="M90.4,100.6H93c1.4,0,2.6-1.2,2.6-2.6v-2.6c0-1.4-1.2-2.6-2.6-2.6h-2.6c-1.4,0-2.6,1.2-2.6,2.6V98
						C87.8,99.4,88.9,100.6,90.4,100.6z M90.4,95.4H93V98h-2.6V95.4z"/>
					<path class="st4" d="M103.5,100.6h2.6c1.4,0,2.6-1.2,2.6-2.6v-2.6c0-1.4-1.2-2.6-2.6-2.6h-2.6c-1.4,0-2.6,1.2-2.6,2.6V98
						C100.8,99.4,102,100.6,103.5,100.6z M103.5,95.4h2.6V98h-2.6V95.4z"/>
					<path class="st4" d="M90.4,111H93c1.4,0,2.6-1.2,2.6-2.6v-2.6c0-1.4-1.2-2.6-2.6-2.6h-2.6c-1.4,0-2.6,1.2-2.6,2.6v2.6
						C87.8,109.9,88.9,111,90.4,111z M90.4,105.8H93v2.6h-2.6V105.8z"/>
					<path class="st4" d="M103.5,111h2.6c1.4,0,2.6-1.2,2.6-2.6v-2.6c0-1.4-1.2-2.6-2.6-2.6h-2.6c-1.4,0-2.6,1.2-2.6,2.6v2.6
						C100.8,109.9,102,111,103.5,111z M103.5,105.8h2.6v2.6h-2.6V105.8z"/>
					<path class="st4" d="M90.4,121.5H93c1.4,0,2.6-1.2,2.6-2.6v-2.6c0-1.4-1.2-2.6-2.6-2.6h-2.6c-1.4,0-2.6,1.2-2.6,2.6v2.6
						C87.8,120.3,88.9,121.5,90.4,121.5z M90.4,116.3H93v2.6h-2.6V116.3z"/>
					<path class="st4" d="M103.5,121.5h2.6c1.4,0,2.6-1.2,2.6-2.6v-2.6c0-1.4-1.2-2.6-2.6-2.6h-2.6c-1.4,0-2.6,1.2-2.6,2.6v2.6
						C100.8,120.3,102,121.5,103.5,121.5z M103.5,116.3h2.6v2.6h-2.6V116.3z"/>
					<path class="st4" d="M124.4,99.3h2.6c1.4,0,2.6-1.2,2.6-2.6V94c0-1.4-1.2-2.6-2.6-2.6h-2.6c-1.4,0-2.6,1.2-2.6,2.6v2.6
						C121.8,98.1,122.9,99.3,124.4,99.3z M124.4,94.1h2.6v2.6h-2.6V94.1z"/>
					<path class="st4" d="M124.4,109.7h2.6c1.4,0,2.6-1.2,2.6-2.6v-2.6c0-1.4-1.2-2.6-2.6-2.6h-2.6c-1.4,0-2.6,1.2-2.6,2.6v2.6
						C121.8,108.6,122.9,109.7,124.4,109.7z M124.4,104.5h2.6v2.6h-2.6V104.5z"/>
					<path class="st4" d="M124.4,120.2h2.6c1.4,0,2.6-1.2,2.6-2.6v-2.6c0-1.4-1.2-2.6-2.6-2.6h-2.6c-1.4,0-2.6,1.2-2.6,2.6v2.6
						C121.8,119,122.9,120.2,124.4,120.2z M124.4,115h2.6v2.6h-2.6V115z"/>
					<path class="st4" d="M124.4,130.7h2.6c1.4,0,2.6-1.2,2.6-2.6v-2.6c0-1.4-1.2-2.6-2.6-2.6h-2.6c-1.4,0-2.6,1.2-2.6,2.6v2.6
						C121.8,129.5,122.9,130.7,124.4,130.7z M124.4,125.4h2.6v2.6h-2.6V125.4z"/>
					<path class="st4" d="M72.1,91.4h-2.6c-1.4,0-2.6,1.2-2.6,2.6v2.6c0,1.4,1.2,2.6,2.6,2.6h2.6c1.4,0,2.6-1.2,2.6-2.6v-2.6
						C74.7,92.6,73.5,91.4,72.1,91.4z M72.1,96.7h-2.6V94h2.6V96.7L72.1,96.7z"/>
					<path class="st4" d="M72.1,101.9h-2.6c-1.4,0-2.6,1.2-2.6,2.6v2.6c0,1.4,1.2,2.6,2.6,2.6h2.6c1.4,0,2.6-1.2,2.6-2.6v-2.6
						C74.7,103.1,73.5,101.9,72.1,101.9z M72.1,107.1h-2.6v-2.6h2.6V107.1L72.1,107.1z"/>
					<path class="st4" d="M72.1,112.4h-2.6c-1.4,0-2.6,1.2-2.6,2.6v2.6c0,1.4,1.2,2.6,2.6,2.6h2.6c1.4,0,2.6-1.2,2.6-2.6V115
						C74.7,113.5,73.5,112.4,72.1,112.4z M72.1,117.6h-2.6V115h2.6V117.6L72.1,117.6z"/>
					<path class="st4" d="M72.1,122.8h-2.6c-1.4,0-2.6,1.2-2.6,2.6v2.6c0,1.4,1.2,2.6,2.6,2.6h2.6c1.4,0,2.6-1.2,2.6-2.6v-2.6
						C74.7,124,73.5,122.8,72.1,122.8z M72.1,128h-2.6v-2.6h2.6V128L72.1,128z"/>
				</g>
			</g>
		</g>
		<g>
			<path class="st5" d="M48.2,154.6v-7.4c0-0.5,0.4-0.9,0.9-0.9h36.2c0.7,0,1.3,0.6,1.3,1.3v6.6c0,0.7-0.6,1.3-1.3,1.3H49.2
				C48.6,155.6,48.2,155.2,48.2,154.6"/>
			<g>
				<path class="st6" d="M52.9,152.9c1.1,0,2-0.9,2-2c0-1.1-0.9-2-2-2c-1.1,0-2,0.9-2,2C50.9,152,51.8,152.9,52.9,152.9"/>
				<path class="st6" d="M62.8,146.3v2.6c0,0.4,0.2,0.7,0.7,0.7c0.4,0,0.7-0.2,0.7-0.7v-2.6H62.8z"/>
				<path class="st6" d="M60.1,146.3v4c0,0.4,0.2,0.7,0.7,0.7c0.4,0,0.7-0.2,0.7-0.7v-4H60.1z"/>
				<path class="st6" d="M65.5,146.3v4c0,0.4,0.2,0.7,0.7,0.7c0.4,0,0.7-0.2,0.7-0.7v-4H65.5z"/>
				<path class="st6" d="M57.5,146.3v2.6c0,0.4,0.2,0.7,0.7,0.7c0.4,0,0.7-0.2,0.7-0.7v-2.6H57.5z"/>
				<path class="st6" d="M48.9,129.7l31,26.8c0.6,0.5,1.6,0.4,2-0.2l4.4-5.3c0.3-0.4,0.2-0.9-0.1-1.3l-23.8-20.1H48.9z"/>
			</g>
			<path class="st5" d="M48.2,128.8v-7.4c0-0.5,0.4-0.9,0.9-0.9h36.2c0.7,0,1.3,0.6,1.3,1.3v6.6c0,0.7-0.6,1.3-1.3,1.3H49.2
				C48.6,129.7,48.2,129.4,48.2,128.8"/>
			<path class="st6" d="M52.9,127.1c1.1,0,2-0.9,2-2s-0.9-2-2-2c-1.1,0-2,0.9-2,2S51.8,127.1,52.9,127.1"/>
			<path class="st5" d="M81.8,149.5c-0.9-0.7-2-0.6-2.8,0.2c-0.7,0.9-0.6,2,0.2,2.8c0.8,0.7,2,0.6,2.8-0.2
				C82.7,151.4,82.6,150.1,81.8,149.5"/>
			<g>
				<path class="st6" d="M81.4,120.5v4c0,0.4,0.2,0.7,0.7,0.7c0.4,0,0.7-0.2,0.7-0.7v-4H81.4z"/>
				<path class="st6" d="M78.7,120.5v2.6c0,0.4,0.2,0.7,0.7,0.7s0.7-0.2,0.7-0.7v-2.6H78.7z"/>
				<path class="st6" d="M76.1,120.5v4c0,0.4,0.2,0.7,0.7,0.7s0.7-0.2,0.7-0.7v-4H76.1z"/>
				<path class="st6" d="M73.4,120.5v2.6c0,0.4,0.2,0.7,0.7,0.7s0.7-0.2,0.7-0.7v-2.6H73.4z"/>
				<path class="st6" d="M70.8,120.5v4c0,0.4,0.2,0.7,0.7,0.7s0.7-0.2,0.7-0.7v-4H70.8z"/>
				<path class="st6" d="M68.1,120.5v2.6c0,0.4,0.2,0.7,0.7,0.7c0.4,0,0.7-0.2,0.7-0.7v-2.6H68.1z"/>
				<path class="st6" d="M65.5,120.5v4c0,0.4,0.2,0.7,0.7,0.7c0.4,0,0.7-0.2,0.7-0.7v-4H65.5z"/>
				<path class="st6" d="M62.8,120.5v2.6c0,0.4,0.2,0.7,0.7,0.7c0.4,0,0.7-0.2,0.7-0.7v-2.6H62.8z"/>
				<path class="st6" d="M60.1,120.5v4c0,0.4,0.2,0.7,0.7,0.7c0.4,0,0.7-0.2,0.7-0.7v-4H60.1z"/>
				<path class="st6" d="M57.5,120.5v2.6c0,0.4,0.2,0.7,0.7,0.7c0.4,0,0.7-0.2,0.7-0.7v-2.6H57.5z"/>
			</g>
			<g>
				<path class="st5" d="M55,135.1L55,135.1l1.4-1.7c0.2-0.2,0.2-0.7-0.1-0.9c-0.2-0.2-0.7-0.2-0.9,0l-1.3,1.7L55,135.1z"/>
				<path class="st5" d="M57,136.7L57,136.7l2.2-2.7c0.2-0.2,0.2-0.7,0-0.9c-0.2-0.2-0.7-0.2-0.9,0l-2.2,2.7L57,136.7z"/>
				<path class="st5" d="M59,138.5L59,138.5l1.5-1.7c0.2-0.2,0.2-0.7,0-0.9c-0.2-0.2-0.7-0.2-0.9,0l-1.5,1.7L59,138.5z"/>
				<path class="st5" d="M62.3,136.6l-2.3,2.8l1,0.9l0,0l2.3-2.8c0.2-0.2,0.2-0.7,0-0.9C62.9,136.2,62.5,136.3,62.3,136.6"/>
				<path class="st5" d="M63.5,139.3l-1.5,1.8l1,0.9l0,0l1.5-1.8c0.2-0.2,0.2-0.7,0-0.9C64.1,139,63.8,139,63.5,139.3"/>
				<path class="st5" d="M66.4,140l-2.4,2.8l1,0.9l0,0l2.4-2.8c0.2-0.2,0.2-0.7,0-0.9C67.1,139.7,66.6,139.7,66.4,140"/>
				<path class="st5" d="M67.5,142.7l-1.5,1.9l1,0.9l0,0l1.5-1.9c0.2-0.2,0.2-0.7,0-0.9C68.2,142.4,67.8,142.4,67.5,142.7"/>
				<path class="st5" d="M70.4,143.4l-2.4,2.8l1,0.9l0,0l2.4-2.8c0.2-0.2,0.2-0.7,0-0.9C71.1,143.1,70.6,143.1,70.4,143.4"/>
				<path class="st5" d="M71.6,146.1l-1.6,1.9l1,0.9l0,0l1.6-1.9c0.2-0.2,0.2-0.7,0-0.9C72.3,145.8,71.8,145.9,71.6,146.1"/>
				<path class="st5" d="M74.5,146.8l-2.4,2.9l1,0.9l0,0l2.4-2.9c0.2-0.2,0.2-0.7,0-0.9C75.1,146.5,74.7,146.5,74.5,146.8"/>
			</g>
		</g>
		<g>
			<g>
				<g>
					<path class="st4" d="M169,112.1h-14.2c-0.1,0-0.3-0.1-0.3-0.1l-6.8-6.6c-0.1-0.1-0.2-0.4-0.1-0.5c0.1-0.2,0.3-0.3,0.5-0.3h27.6
						c0.2,0,0.4,0.1,0.5,0.3c0.1,0.2,0,0.4-0.1,0.5l-6.6,6.6C169.3,112,169.2,112.1,169,112.1z M155,111.1h13.8l5.6-5.6h-25.2
						L155,111.1z"/>
				</g>
			</g>
			<g>
				<g>
					<path class="st4" d="M169,126.6h-14.2c-0.1,0-0.2,0-0.3-0.1l-10.7-6.5c-0.2-0.1-0.3-0.3-0.2-0.6c0.1-0.2,0.3-0.4,0.5-0.4h35.3
						c0.2,0,0.4,0.1,0.5,0.4c0.1,0.2,0,0.4-0.2,0.6l-10.5,6.5C169.2,126.5,169.1,126.6,169,126.6z M155,125.6h13.9l8.9-5.5h-31.8
						L155,125.6z"/>
				</g>
			</g>
			<g>
				<g>
					<path class="st4" d="M142.3,150.8c-0.1,0-0.3-0.1-0.4-0.1c-0.2-0.2-0.2-0.4-0.1-0.6l12.5-24.1v-6.4c0,0,0,0,0,0v-8c0,0,0,0,0,0
						v-6.6c0-0.1,0-0.1,0-0.2l2.9-7.6c-0.1-0.1-0.1-0.3-0.1-0.4c0.1-0.2,0.2-0.3,0.4-0.3l3.8-10c0.1-0.2,0.3-0.3,0.5-0.3h0
						c0.2,0,0.4,0.1,0.5,0.3l3.9,10c0.1,0.1,0.2,0.2,0.2,0.3c0,0.1,0,0.2,0,0.3l3,7.7c0,0,0,0,0,0v0v0c0,0.1,0,0.1,0,0.2v21
						l10.6,24.2c0.1,0.2,0,0.4-0.1,0.6c-0.2,0.1-0.4,0.2-0.6,0.1l-18-9.7l-18.9,9.7C142.5,150.8,142.4,150.8,142.3,150.8z
						 M162.8,140.6l15.8,8.5l-9.2-21.1l-0.9,10.8c0,0.2-0.2,0.4-0.4,0.4L162.8,140.6z M154.5,127.9l-11,21.3l16.8-8.6l-4.8-1.9
						c-0.2-0.1-0.3-0.2-0.3-0.4L154.5,127.9z M156.1,137.8l5.4,2.1l6-1.5l1-11.9l-6.7-3.2l-6.5,3L156.1,137.8z M163,122.9l5.5,2.6
						v-5.2L163,122.9z M155.3,120.3v5l5.3-2.4L155.3,120.3z M155.9,119.5l5.9,2.8l6.1-2.8l-6-3.4L155.9,119.5z M163,115.6l5.6,3.1
						v-6.3L163,115.6z M155.3,112.4v6.3l5.6-3.1L155.3,112.4z M155.9,111.6l6,3.4l6-3.4l-6-2.8L155.9,111.6z M163.1,108.3l5.4,2.5
						v-5.1L163.1,108.3z M155.3,105.7v5.1l5.4-2.5L155.3,105.7z M155.8,104.8l6.1,2.9l6.1-2.9l-6.1-4.4L155.8,104.8z M162.7,99.9
						l5.2,3.7l-2.3-5.8L162.7,99.9z M158.1,97.8l-2.2,5.8l5.1-3.7L158.1,97.8z M159.3,97.4l2.6,1.9l2.6-1.9H159.3z M158.7,96.4h6.5
						l-3.3-8.4L158.7,96.4z"/>
				</g>
			</g>
			<g>
				<g>
					
						<rect x="166.7" y="120.8" transform="matrix(0.699 -0.7151 0.7151 0.699 -48.4861 161.1828)" class="st4" width="1" height="34.7"/>
				</g>
			</g>
			<g>
				<g>
					
						<rect x="137.7" y="137.8" transform="matrix(0.7433 -0.669 0.669 0.7433 -52.5534 139.6378)" class="st4" width="35.9" height="1"/>
				</g>
			</g>
			<g>
				<g>
					
						<rect x="151.8" y="134.5" transform="matrix(7.545310e-02 -0.9971 0.9971 7.545310e-02 3.2252 279.3499)" class="st4" width="1" height="6.8"/>
				</g>
			</g>
			<g>
				<g>
					
						<rect x="151.5" y="140.8" transform="matrix(0.2858 -0.9583 0.9583 0.2858 -24.8892 249.2028)" class="st4" width="6.5" height="1"/>
				</g>
			</g>
			<g>
				<g>
					
						<rect x="167.9" y="137.9" transform="matrix(0.9893 -0.146 0.146 0.9893 -18.3721 26.4586)" class="st4" width="6.4" height="1"/>
				</g>
			</g>
			<g>
				<g>
					
						<rect x="168.5" y="138.7" transform="matrix(0.9428 -0.3333 0.3333 0.9428 -37.6665 64.4542)" class="st4" width="1" height="6.7"/>
				</g>
			</g>
			<g>
				<g>
					<rect x="147.5" y="104.9" class="st4" width="1" height="6.6"/>
				</g>
			</g>
			<g>
				<rect x="145.7" y="108.9" class="st4" width="4.6" height="1.5"/>
			</g>
			<g>
				<rect x="145.7" y="111.6" class="st4" width="4.6" height="1.5"/>
			</g>
			<g>
				<g>
					<rect x="143.7" y="119.4" class="st4" width="1" height="6.6"/>
				</g>
			</g>
			<g>
				<rect x="141.9" y="123.4" class="st4" width="4.6" height="1.5"/>
			</g>
			<g>
				<rect x="141.9" y="126.1" class="st4" width="4.6" height="1.5"/>
			</g>
			<g>
				<g>
					<rect x="175.2" y="104.9" class="st4" width="1" height="6.6"/>
				</g>
			</g>
			<g>
				<rect x="173.3" y="108.9" class="st4" width="4.6" height="1.5"/>
			</g>
			<g>
				<rect x="173.3" y="111.6" class="st4" width="4.6" height="1.5"/>
			</g>
			<g>
				<g>
					<rect x="179.2" y="119.5" class="st4" width="1" height="6.6"/>
				</g>
			</g>
			<g>
				<rect x="177.4" y="123.5" class="st4" width="4.6" height="1.5"/>
			</g>
			<g>
				<rect x="177.4" y="126.2" class="st4" width="4.6" height="1.5"/>
			</g>
		</g>
		<g>
			<polygon class="st7" points="127.3,153.3 136.3,157.8 136.3,148.8 			"/>
			<path class="st8" d="M187.2,153.3c0-2.5-2-4.5-4.5-4.5h-2.2v9h2.2C185.2,157.8,187.2,155.8,187.2,153.3z"/>
			<rect x="136.3" y="148.8" class="st9" width="41" height="9"/>
			<rect x="136.3" y="151.8" class="st10" width="41" height="3"/>
			<polygon class="st11" points="177.4,157.8 177.4,157.8 180.4,157.8 180.4,157.8 179.6,157.8 			"/>
			<polygon class="st12" points="179.6,148.8 177.4,148.8 177.4,157.8 179.6,157.8 180.4,157.8 180.4,148.8 			"/>
			<path class="st13" d="M126.7,153.9c-0.1-0.1-0.2-0.3-0.2-0.5c0-0.4,0.3-0.7,0.7-0.7h1c0.4,0,0.7,0.3,0.7,0.7
				c0,0.4-0.3,0.7-0.7,0.7h-1C127.1,154,126.9,154,126.7,153.9z"/>
		</g>
	</g>
</g>
</svg>
