<?xml version="1.0" encoding="utf-8"?>
<!-- Generator: Adobe Illustrator 23.1.1, SVG Export Plug-In . SVG Version: 6.00 Build 0)  -->
<svg version="1.1" id="Layer_1" xmlns="http://www.w3.org/2000/svg" xmlns:xlink="http://www.w3.org/1999/xlink" x="0px" y="0px"
	 width="204px" height="204px" viewBox="0 0 204 204" style="enable-background:new 0 0 204 204;" xml:space="preserve">
<style type="text/css">
	.st0{fill:#DEFDFF;}
	.st1{fill:#E88F00;}
	.st2{fill:#FFBE3B;}
	.st3{fill:#FFA910;}
	.st4{fill:#232323;}
	.st5{fill:#3C2F3F;}
	.st6{fill:#755B7F;}
	.st7{fill:#FF7F00;}
	.st8{fill:#FFE000;}
	.st9{fill:#CEFF00;}
	.st10{fill:#00C9FF;}
	.st11{fill:#0068FF;}
	.st12{fill:#BA00FF;}
	.st13{fill:#9CAFBC;}
	.st14{fill:#FF0000;}
	.st15{fill:#FFFFFF;}
	.st16{fill:#83929B;}
	.st17{opacity:0.28;fill:#3C2F3F;}
	.st18{fill:#968299;}
	.st19{fill:#6D7C84;}
	.st20{fill:#C9D9E2;}
	.st21{fill:none;stroke:#9CAFBC;stroke-width:0.8806;stroke-miterlimit:10;}
	.st22{fill:#FFFFFF;stroke:#9CAFBC;stroke-width:0.8806;stroke-miterlimit:10;}
	.st23{opacity:0.5;fill:#5AFFDF;}
	.st24{fill:#00B1FF;}
	.st25{fill:none;stroke:#575757;stroke-width:0.3522;stroke-miterlimit:10;}
	.st26{fill:none;stroke:#83929B;stroke-width:0.8806;stroke-linecap:round;stroke-miterlimit:10;}
	.st27{fill:#C60018;}
	.st28{fill:none;stroke:#C60018;stroke-width:0.3522;stroke-miterlimit:10;}
	.st29{fill:none;stroke:#468E00;stroke-width:0.3522;stroke-miterlimit:10;}
	.st30{fill:#468E00;}
	.st31{fill:none;stroke:#9CAFBC;stroke-width:1.0567;stroke-miterlimit:10;}
	.st32{opacity:0.5;fill:#57D4FF;}
	.st33{fill:none;stroke:#00B1FF;stroke-width:1.7612;stroke-miterlimit:10;}
	.st34{fill:none;stroke:#9CAFBC;stroke-width:0.4986;stroke-miterlimit:10;}
	.st35{opacity:0.5;fill:none;stroke:#57D4FF;stroke-width:1.7612;stroke-miterlimit:10;}
	.st36{opacity:0.98;fill:#83959E;}
	.st37{opacity:0.5;fill:#83959E;}
	.st38{fill:#D14600;}
	.st39{fill:#F95900;}
	.st40{fill:#B2A5B5;}
	.st41{fill:#FFC200;}
	.st42{fill:#2F3347;}
	.st43{fill:none;stroke:#FFE98F;stroke-width:0.6198;stroke-miterlimit:10;}
	.st44{opacity:0.5;fill:#AA2000;}
	.st45{fill:#212123;}
	.st46{fill:#575757;}
	.st47{opacity:0.33;}
	.st48{fill:#9CB1A0;}
	.st49{fill:#B3B3B3;}
	.st50{fill:#D8822D;}
	.st51{fill:#EBEBEB;}
	.st52{fill:#EEA352;}
	.st53{fill:#BBD0BF;}
	.st54{filter:url(#Adobe_OpacityMaskFilter);}
	.st55{filter:url(#Adobe_OpacityMaskFilter_1_);}
	.st56{mask:url(#SVGID_1_);fill:url(#SVGID_2_);}
	.st57{fill:url(#SVGID_3_);}
</style>
<title>Artboard 23 copy 4</title>
<g>
	<g>
		<path class="st0" d="M188.1,102c0,47.3-38.3,85.6-85.6,85.6c-47.3,0-85.6-38.3-85.6-85.6c0-47.3,38.3-85.6,85.6-85.6
			C149.8,16.4,188.1,54.7,188.1,102z"/>
	</g>
	<g>
		<g>
			
				<rect x="54" y="50.4" transform="matrix(0.8895 -0.457 0.457 0.8895 -33.9235 51.0906)" class="st1" width="69.2" height="90.6"/>
			
				<rect x="50.6" y="52.1" transform="matrix(0.8895 -0.457 0.457 0.8895 -35.0917 49.7369)" class="st2" width="69.2" height="90.6"/>
			<polygon class="st3" points="136.8,121.9 75.2,153.5 95.4,41.3 			"/>
			<g>
				<path class="st4" d="M78.6,49.3c3.4,1.1,6.8,2.2,10.3,3.3c5.4,1.7,10.9,3.5,16.3,5.2c1.2,0.4,2.5,0.8,3.7,1.2
					c0.5,0.2,0.7-0.6,0.2-0.8c-3.4-1.1-6.8-2.2-10.3-3.3c-5.4-1.7-10.9-3.5-16.3-5.2c-1.2-0.4-2.5-0.8-3.7-1.2
					C78.3,48.3,78.1,49.1,78.6,49.3L78.6,49.3z"/>
			</g>
			<g>
				<path class="st4" d="M130.1,100.3c-1.1,3.4-2.2,6.8-3.3,10.3c-1.7,5.4-3.5,10.9-5.2,16.3c-0.4,1.2-0.8,2.5-1.2,3.7
					c-0.2,0.5,0.6,0.7,0.8,0.2c1.1-3.4,2.2-6.8,3.3-10.3c1.7-5.4,3.5-10.9,5.2-16.3c0.4-1.2,0.8-2.5,1.2-3.7
					C131.1,100,130.3,99.8,130.1,100.3L130.1,100.3z"/>
			</g>
			<path class="st5" d="M164.8,121.6L56.5,151.4c-1.6,0.4-3.2-0.5-3.6-2L34.4,81.8c-0.4-1.6,0.5-3.2,2-3.6l108.3-29.8
				c1.6-0.4,3.2,0.5,3.6,2l18.6,67.6C167.3,119.6,166.4,121.2,164.8,121.6z"/>
			<path class="st6" d="M164.3,119.8l-27.6,7.6l-35,9.6L56,149.6c-1.6,0.4-3.2-0.5-3.6-2L33.8,80c-0.4-1.6,0.5-3.2,2-3.6l108.3-29.8
				c1.6-0.4,3.2,0.5,3.6,2l18.6,67.6C166.7,117.7,165.8,119.3,164.3,119.8z"/>
			
				<rect x="139" y="65.4" transform="matrix(0.9641 -0.2655 0.2655 0.9641 -12.8661 40.5386)" class="st5" width="9.2" height="4.9"/>
			<path class="st5" d="M51.7,126l-0.6-0.1l-0.3,0c-1.2-0.1-2.2,0.8-2.4,2l0,0c-0.1,1.2,0.8,2.2,2,2.4l0.3,0l0.6,0.1l11.6,1.1
				l2.4,0.2l0-0.4l18.5,1.7l4.6-1.4l-4.2-2.2l-18.5-1.7l0-0.4l-2.4-0.2l-9-0.8l0.1-0.6l-2.6-0.2L51.7,126z"/>
			
				<rect x="141.2" y="73.6" transform="matrix(0.9641 -0.2655 0.2655 0.9641 -14.9491 41.4267)" class="st5" width="9.2" height="4.9"/>
			
				<rect x="143.4" y="81.7" transform="matrix(0.9641 -0.2655 0.2655 0.9641 -17.0322 42.3146)" class="st5" width="9.2" height="4.9"/>
			
				<rect x="145.7" y="89.9" transform="matrix(0.9641 -0.2655 0.2655 0.9641 -19.1152 43.2028)" class="st5" width="9.2" height="4.9"/>
			
				<rect x="147.9" y="98" transform="matrix(0.9641 -0.2655 0.2655 0.9641 -21.1983 44.0909)" class="st5" width="9.2" height="4.9"/>
			
				<rect x="150.2" y="106.2" transform="matrix(0.9641 -0.2655 0.2655 0.9641 -23.2815 44.9793)" class="st5" width="9.2" height="4.9"/>
			
				<rect x="37.7" y="84.1" transform="matrix(0.9641 -0.2655 0.2655 0.9641 -21.4717 14.3384)" class="st5" width="9.2" height="4.9"/>
			
				<rect x="139.6" y="63.8" transform="matrix(0.9641 -0.2655 0.2655 0.9641 -12.4222 40.6545)" class="st7" width="9.2" height="4.9"/>
			
				<rect x="141.9" y="72" transform="matrix(0.9641 -0.2655 0.2655 0.9641 -14.5052 41.5424)" class="st8" width="9.2" height="4.9"/>
			
				<rect x="144.1" y="80.1" transform="matrix(0.9641 -0.2655 0.2655 0.9641 -16.5883 42.4306)" class="st9" width="9.2" height="4.9"/>
			
				<rect x="146.3" y="88.3" transform="matrix(0.9641 -0.2655 0.2655 0.9641 -18.6714 43.3187)" class="st10" width="9.2" height="4.9"/>
			
				<rect x="148.6" y="96.4" transform="matrix(0.9641 -0.2655 0.2655 0.9641 -20.7545 44.2071)" class="st11" width="9.2" height="4.9"/>
			
				<rect x="150.8" y="104.6" transform="matrix(0.9641 -0.2655 0.2655 0.9641 -22.8376 45.0953)" class="st12" width="9.2" height="4.9"/>
			<path class="st5" d="M156.9,119.7l-97.6,26.9c-1.1,0.2-1.3-1.3-1.3-1.6L39.6,78.7l98.8-27.2l19.7,65.9
				C158.2,117.7,157.9,119.3,156.9,119.7z"/>
			<path class="st13" d="M157.6,117.7l-97.6,26.9c-0.3,0.1-0.7-0.1-0.8-0.4L41.3,78.9c-0.1-0.3,0.1-0.7,0.4-0.8l97.6-26.9
				c0.3-0.1,0.7,0.1,0.8,0.4l17.9,65.2C158.2,117.3,158,117.6,157.6,117.7z"/>
			
				<rect x="38.5" y="82.9" transform="matrix(0.9641 -0.2655 0.2655 0.9641 -21.1077 14.5088)" class="st14" width="9.2" height="4.9"/>
			<path class="st15" d="M106.9,129.8l-47.3,13c-0.3,0.1-0.7-0.1-0.8-0.4L40.9,77.3c-0.1-0.3,0.1-0.7,0.4-0.8l47.3-13
				c0.3-0.1,0.7,0.1,0.8,0.4l17.9,65.2C107.5,129.4,107.3,129.7,106.9,129.8z"/>
			<path class="st16" d="M156.7,117.2l-47.3,13c-0.3,0.1-0.7-0.1-0.8-0.4L90.3,63.6c-0.1-0.3,0.1-0.7,0.4-0.8l47.3-13
				c0.3-0.1,0.7,0.1,0.8,0.4l18.4,66.2C157.3,116.8,157.1,117.1,156.7,117.2z"/>
			<path class="st15" d="M157.2,116l-13,3.6l-33.1,9.1l-1.2,0.3c-0.3,0.1-0.7-0.1-0.8-0.4L91.1,63.4c-0.1-0.3,0.1-0.7,0.4-0.8
				l47.3-13c0.3-0.1,0.7,0.1,0.8,0.4l17.9,65.2C157.7,115.6,157.5,115.9,157.2,116z"/>
			<path class="st17" d="M144.2,119.6l-33.1,9.1l4.3-13.3c0.8-2.5,3.6-3.9,6.1-3.1L144.2,119.6z"/>
			<path class="st18" d="M89.4,67.9c0.2,0.7-0.2,1.5-1,1.7c-0.7,0.2-1.5-0.2-1.7-1c-0.2-0.7,0.2-1.5,1-1.7
				C88.4,66.7,89.2,67.2,89.4,67.9z"/>
			<path class="st18" d="M95.9,66.1c0.2,0.7-0.2,1.5-1,1.7c-0.7,0.2-1.5-0.2-1.7-1c-0.2-0.7,0.2-1.5,1-1.7
				C94.9,64.9,95.7,65.4,95.9,66.1z"/>
			<ellipse transform="matrix(0.169 -0.9856 0.9856 0.169 5.6714 143.8115)" class="st5" cx="88.1" cy="68.5" rx="1.1" ry="1.1"/>
			<path class="st5" d="M95.7,66.5c0.2,0.6-0.2,1.2-0.7,1.3c-0.6,0.2-1.2-0.2-1.3-0.7c-0.2-0.6,0.2-1.2,0.7-1.3S95.5,65.9,95.7,66.5
				z"/>
			<path class="st18" d="M90.8,73.1c0.2,0.7-0.2,1.5-1,1.7c-0.7,0.2-1.5-0.2-1.7-1c-0.2-0.7,0.2-1.5,1-1.7
				C89.8,72,90.6,72.4,90.8,73.1z"/>
			<path class="st18" d="M97.3,71.3c0.2,0.7-0.2,1.5-1,1.7c-0.7,0.2-1.5-0.2-1.7-1c-0.2-0.7,0.2-1.5,1-1.7S97.1,70.6,97.3,71.3z"/>
			<path class="st5" d="M90.6,73.5c0.2,0.6-0.2,1.2-0.7,1.3c-0.6,0.2-1.2-0.2-1.3-0.7c-0.2-0.6,0.2-1.2,0.7-1.3S90.4,72.9,90.6,73.5
				z"/>
			<path class="st5" d="M97.1,71.7c0.2,0.6-0.2,1.2-0.7,1.3c-0.6,0.2-1.2-0.2-1.3-0.7s0.2-1.2,0.7-1.3C96.4,70.8,97,71.1,97.1,71.7z
				"/>
			<path class="st18" d="M92.2,78.3c0.2,0.7-0.2,1.5-1,1.7c-0.7,0.2-1.5-0.2-1.7-1c-0.2-0.7,0.2-1.5,1-1.7
				C91.3,77.2,92,77.6,92.2,78.3z"/>
			<path class="st18" d="M98.8,76.5c0.2,0.7-0.2,1.5-1,1.7c-0.7,0.2-1.5-0.2-1.7-1c-0.2-0.7,0.2-1.5,1-1.7S98.6,75.8,98.8,76.5z"/>
			<path class="st5" d="M92,78.7c0.2,0.6-0.2,1.2-0.7,1.3c-0.6,0.2-1.2-0.2-1.3-0.7c-0.2-0.6,0.2-1.2,0.7-1.3
				C91.3,77.8,91.9,78.1,92,78.7z"/>
			<path class="st5" d="M98.6,76.9c0.2,0.6-0.2,1.2-0.7,1.3c-0.6,0.2-1.2-0.2-1.3-0.7c-0.2-0.6,0.2-1.2,0.7-1.3
				C97.8,76,98.4,76.3,98.6,76.9z"/>
			<path class="st18" d="M93.7,83.6c0.2,0.7-0.2,1.5-1,1.7c-0.7,0.2-1.5-0.2-1.7-1c-0.2-0.7,0.2-1.5,1-1.7S93.5,82.8,93.7,83.6z"/>
			<path class="st18" d="M100.2,81.8c0.2,0.7-0.2,1.5-1,1.7s-1.5-0.2-1.7-1c-0.2-0.7,0.2-1.5,1-1.7C99.2,80.6,100,81,100.2,81.8z"/>
			<path class="st5" d="M93.5,83.9c0.2,0.6-0.2,1.2-0.7,1.3c-0.6,0.2-1.2-0.2-1.3-0.7c-0.2-0.6,0.2-1.2,0.7-1.3
				C92.7,83,93.3,83.4,93.5,83.9z"/>
			<path class="st5" d="M100,82.1c0.2,0.6-0.2,1.2-0.7,1.3s-1.2-0.2-1.3-0.7c-0.2-0.6,0.2-1.2,0.7-1.3C99.2,81.2,99.8,81.6,100,82.1
				z"/>
			<circle class="st18" cx="93.8" cy="89.1" r="1.4"/>
			<path class="st18" d="M101.6,87c0.2,0.7-0.2,1.5-1,1.7s-1.5-0.2-1.7-1c-0.2-0.7,0.2-1.5,1-1.7S101.4,86.3,101.6,87z"/>
			<path class="st5" d="M94.9,89.1c0.2,0.6-0.2,1.2-0.7,1.3c-0.6,0.2-1.2-0.2-1.3-0.7c-0.2-0.6,0.2-1.2,0.7-1.3
				C94.2,88.2,94.7,88.6,94.9,89.1z"/>
			<path class="st5" d="M101.4,87.3c0.2,0.6-0.2,1.2-0.7,1.3c-0.6,0.2-1.2-0.2-1.3-0.7c-0.2-0.6,0.2-1.2,0.7-1.3
				C100.7,86.4,101.3,86.8,101.4,87.3z"/>
			<path class="st18" d="M96.5,94c0.2,0.7-0.2,1.5-1,1.7s-1.5-0.2-1.7-1s0.2-1.5,1-1.7S96.3,93.3,96.5,94z"/>
			<path class="st18" d="M103.1,92.2c0.2,0.7-0.2,1.5-1,1.7s-1.5-0.2-1.7-1c-0.2-0.7,0.2-1.5,1-1.7
				C102.1,91.1,102.9,91.5,103.1,92.2z"/>
			<path class="st5" d="M96.3,94.4c0.2,0.6-0.2,1.2-0.7,1.3s-1.2-0.2-1.3-0.7c-0.2-0.6,0.2-1.2,0.7-1.3
				C95.6,93.5,96.2,93.8,96.3,94.4z"/>
			<path class="st5" d="M102.9,92.6c0.2,0.6-0.2,1.2-0.7,1.3c-0.6,0.2-1.2-0.2-1.3-0.7c-0.2-0.6,0.2-1.2,0.7-1.3
				C102.1,91.7,102.7,92,102.9,92.6z"/>
			<path class="st18" d="M98,99.2c0.2,0.7-0.2,1.5-1,1.7c-0.7,0.2-1.5-0.2-1.7-1c-0.2-0.7,0.2-1.5,1-1.7S97.8,98.5,98,99.2z"/>
			<path class="st18" d="M104.5,97.4c0.2,0.7-0.2,1.5-1,1.7s-1.5-0.2-1.7-1c-0.2-0.7,0.2-1.5,1-1.7S104.3,96.7,104.5,97.4z"/>
			<path class="st5" d="M97.8,99.5c0.2,0.6-0.2,1.2-0.7,1.3c-0.6,0.2-1.2-0.2-1.3-0.7c-0.2-0.6,0.2-1.2,0.7-1.3
				C97,98.6,97.6,99,97.8,99.5z"/>
			<ellipse transform="matrix(0.169 -0.9856 0.9856 0.169 -10.8084 183.2328)" class="st5" cx="103.3" cy="98" rx="1.1" ry="1.1"/>
			<path class="st18" d="M99.4,104.4c0.2,0.7-0.2,1.5-1,1.7s-1.5-0.2-1.7-1c-0.2-0.7,0.2-1.5,1-1.7S99.2,103.7,99.4,104.4z"/>
			<path class="st18" d="M105.9,102.6c0.2,0.7-0.2,1.5-1,1.7s-1.5-0.2-1.7-1c-0.2-0.7,0.2-1.5,1-1.7S105.7,101.9,105.9,102.6z"/>
			<path class="st5" d="M99.2,104.8c0.2,0.6-0.2,1.2-0.7,1.3c-0.6,0.2-1.2-0.2-1.3-0.7c-0.2-0.6,0.2-1.2,0.7-1.3
				C98.5,103.9,99,104.2,99.2,104.8z"/>
			<path class="st5" d="M105.7,103c0.2,0.6-0.2,1.2-0.7,1.3s-1.2-0.2-1.3-0.7c-0.2-0.6,0.2-1.2,0.7-1.3
				C105,102.1,105.6,102.4,105.7,103z"/>
			<path class="st18" d="M100.8,109.6c0.2,0.7-0.2,1.5-1,1.7s-1.5-0.2-1.7-1c-0.2-0.7,0.2-1.5,1-1.7S100.6,108.9,100.8,109.6z"/>
			<path class="st18" d="M107.4,107.8c0.2,0.7-0.2,1.5-1,1.7c-0.7,0.2-1.5-0.2-1.7-1s0.2-1.5,1-1.7S107.2,107.1,107.4,107.8z"/>
			<path class="st5" d="M100.6,110c0.2,0.6-0.2,1.2-0.7,1.3c-0.6,0.2-1.2-0.2-1.3-0.7c-0.2-0.6,0.2-1.2,0.7-1.3
				C99.9,109.1,100.5,109.4,100.6,110z"/>
			<path class="st5" d="M107.2,108.2c0.2,0.6-0.2,1.2-0.7,1.3c-0.6,0.2-1.2-0.2-1.3-0.7c-0.2-0.6,0.2-1.2,0.7-1.3
				C106.4,107.3,107,107.6,107.2,108.2z"/>
			<path class="st18" d="M102.3,114.8c0.2,0.7-0.2,1.5-1,1.7s-1.5-0.2-1.7-1s0.2-1.5,1-1.7S102.1,114.1,102.3,114.8z"/>
			<path class="st18" d="M108.8,113c0.2,0.7-0.2,1.5-1,1.7c-0.7,0.2-1.5-0.2-1.7-1c-0.2-0.7,0.2-1.5,1-1.7
				C107.9,111.9,108.6,112.3,108.8,113z"/>
			<path class="st5" d="M102.1,115.2c0.2,0.6-0.2,1.2-0.7,1.3s-1.2-0.2-1.3-0.7c-0.2-0.6,0.2-1.2,0.7-1.3
				C101.3,114.3,101.9,114.6,102.1,115.2z"/>
			<path class="st5" d="M108.6,113.4c0.2,0.6-0.2,1.2-0.7,1.3c-0.6,0.2-1.2-0.2-1.3-0.7s0.2-1.2,0.7-1.3
				C107.9,112.5,108.4,112.8,108.6,113.4z"/>
			<path class="st18" d="M103.7,120.1c0.2,0.7-0.2,1.5-1,1.7c-0.7,0.2-1.5-0.2-1.7-1c-0.2-0.7,0.2-1.5,1-1.7
				S103.5,119.3,103.7,120.1z"/>
			<circle class="st18" cx="108.9" cy="118.6" r="1.4"/>
			<path class="st5" d="M103.5,120.4c0.2,0.6-0.2,1.2-0.7,1.3c-0.6,0.2-1.2-0.2-1.3-0.7c-0.2-0.6,0.2-1.2,0.7-1.3
				C102.8,119.5,103.4,119.9,103.5,120.4z"/>
			<circle class="st5" cx="109" cy="118.9" r="1.1"/>
			<path class="st18" d="M105.2,125.3c0.2,0.7-0.2,1.5-1,1.7s-1.5-0.2-1.7-1c-0.2-0.7,0.2-1.5,1-1.7
				C104.2,124.1,105,124.6,105.2,125.3z"/>
			<path class="st18" d="M111.7,123.5c0.2,0.7-0.2,1.5-1,1.7c-0.7,0.2-1.5-0.2-1.7-1c-0.2-0.7,0.2-1.5,1-1.7
				C110.7,122.3,111.5,122.8,111.7,123.5z"/>
			<path class="st5" d="M105,125.6c0.2,0.6-0.2,1.2-0.7,1.3c-0.6,0.2-1.2-0.2-1.3-0.7c-0.2-0.6,0.2-1.2,0.7-1.3
				C104.2,124.7,104.8,125.1,105,125.6z"/>
			<path class="st5" d="M111.5,123.8c0.2,0.6-0.2,1.2-0.7,1.3c-0.6,0.2-1.2-0.2-1.3-0.7c-0.2-0.6,0.2-1.2,0.7-1.3
				C110.7,122.9,111.3,123.3,111.5,123.8z"/>
			<g>
				<path class="st19" d="M88.6,69c2-0.6,4-1.1,6-1.7c1-0.3,0.6-1.8-0.4-1.6c-2,0.6-4,1.1-6,1.7C87.2,67.7,87.6,69.3,88.6,69
					L88.6,69z"/>
			</g>
			<g>
				<path class="st19" d="M90.1,74.2c2-0.6,4-1.1,6-1.7c1-0.3,0.6-1.8-0.4-1.6c-2,0.6-4,1.1-6,1.7C88.6,72.9,89,74.5,90.1,74.2
					L90.1,74.2z"/>
			</g>
			<g>
				<path class="st20" d="M90.2,68.1c0.9-0.2,1.7-0.5,2.6-0.7c0.5-0.1,0.3-0.9-0.2-0.7c-0.9,0.2-1.7,0.5-2.6,0.7
					C89.5,67.5,89.7,68.2,90.2,68.1L90.2,68.1z"/>
			</g>
			<g>
				<path class="st20" d="M91.6,73.3c0.9-0.2,1.7-0.5,2.6-0.7c0.5-0.1,0.3-0.9-0.2-0.7c-0.9,0.2-1.7,0.5-2.6,0.7
					C91,72.7,91.2,73.5,91.6,73.3L91.6,73.3z"/>
			</g>
			<g>
				<path class="st19" d="M91.5,79.4c2-0.6,4-1.1,6-1.7c1-0.3,0.6-1.8-0.4-1.6c-2,0.6-4,1.1-6,1.7C90.1,78.1,90.5,79.7,91.5,79.4
					L91.5,79.4z"/>
			</g>
			<g>
				<path class="st19" d="M92.9,84.6c2-0.6,4-1.1,6-1.7c1-0.3,0.6-1.8-0.4-1.6c-2,0.6-4,1.1-6,1.7C91.5,83.4,91.9,84.9,92.9,84.6
					L92.9,84.6z"/>
			</g>
			<g>
				<path class="st20" d="M93.1,78.5c0.9-0.2,1.7-0.5,2.6-0.7c0.5-0.1,0.3-0.9-0.2-0.7c-0.9,0.2-1.7,0.5-2.6,0.7
					C92.4,77.9,92.6,78.7,93.1,78.5L93.1,78.5z"/>
			</g>
			<g>
				<path class="st20" d="M94.5,83.8c0.9-0.2,1.7-0.5,2.6-0.7c0.5-0.1,0.3-0.9-0.2-0.7c-0.9,0.2-1.7,0.5-2.6,0.7
					C93.8,83.2,94,83.9,94.5,83.8L94.5,83.8z"/>
			</g>
			<g>
				<path class="st19" d="M94.3,89.9c2-0.6,4-1.1,6-1.7c1-0.3,0.6-1.8-0.4-1.6c-2,0.6-4,1.1-6,1.7C92.9,88.6,93.3,90.1,94.3,89.9
					L94.3,89.9z"/>
			</g>
			<g>
				<path class="st19" d="M95.8,95.1c2-0.6,4-1.1,6-1.7c1-0.3,0.6-1.8-0.4-1.6c-2,0.6-4,1.1-6,1.7C94.3,93.8,94.8,95.4,95.8,95.1
					L95.8,95.1z"/>
			</g>
			<g>
				<path class="st20" d="M95.9,89c0.9-0.2,1.7-0.5,2.6-0.7c0.5-0.1,0.3-0.9-0.2-0.7c-0.9,0.2-1.7,0.5-2.6,0.7
					C95.2,88.4,95.4,89.1,95.9,89L95.9,89z"/>
			</g>
			<g>
				<path class="st20" d="M97.4,94.2c0.9-0.2,1.7-0.5,2.6-0.7c0.5-0.1,0.3-0.9-0.2-0.7c-0.9,0.2-1.7,0.5-2.6,0.7
					C96.7,93.6,96.9,94.3,97.4,94.2L97.4,94.2z"/>
			</g>
			<g>
				<path class="st19" d="M97.2,100.3c2-0.6,4-1.1,6-1.7c1-0.3,0.6-1.8-0.4-1.6c-2,0.6-4,1.1-6,1.7C95.8,99,96.2,100.6,97.2,100.3
					L97.2,100.3z"/>
			</g>
			<g>
				<path class="st19" d="M98.7,105.5c2-0.6,4-1.1,6-1.7c1-0.3,0.6-1.8-0.4-1.6c-2,0.6-4,1.1-6,1.7
					C97.2,104.2,97.6,105.8,98.7,105.5L98.7,105.5z"/>
			</g>
			<g>
				<path class="st20" d="M98.8,99.4c0.9-0.2,1.7-0.5,2.6-0.7c0.5-0.1,0.3-0.9-0.2-0.7c-0.9,0.2-1.7,0.5-2.6,0.7
					C98.1,98.8,98.3,99.6,98.8,99.4L98.8,99.4z"/>
			</g>
			<g>
				<path class="st20" d="M100.2,104.7c0.9-0.2,1.7-0.5,2.6-0.7c0.5-0.1,0.3-0.9-0.2-0.7c-0.9,0.2-1.7,0.5-2.6,0.7
					C99.6,104,99.8,104.8,100.2,104.7L100.2,104.7z"/>
			</g>
			<g>
				<path class="st19" d="M99.9,110.8c2-0.6,4-1.1,6-1.7c1-0.3,0.6-1.8-0.4-1.6c-2,0.6-4,1.1-6,1.7C98.5,109.5,98.9,111,99.9,110.8
					L99.9,110.8z"/>
			</g>
			<g>
				<path class="st19" d="M101.4,116c2-0.6,4-1.1,6-1.7c1-0.3,0.6-1.8-0.4-1.6c-2,0.6-4,1.1-6,1.7C99.9,114.7,100.4,116.3,101.4,116
					L101.4,116z"/>
			</g>
			<g>
				<path class="st20" d="M101.5,109.9c0.9-0.2,1.7-0.5,2.6-0.7c0.5-0.1,0.3-0.9-0.2-0.7c-0.9,0.2-1.7,0.5-2.6,0.7
					C100.8,109.3,101,110,101.5,109.9L101.5,109.9z"/>
			</g>
			<g>
				<path class="st20" d="M102.9,115.1c0.9-0.2,1.7-0.5,2.6-0.7c0.5-0.1,0.3-0.9-0.2-0.7c-0.9,0.2-1.7,0.5-2.6,0.7
					C102.3,114.5,102.5,115.2,102.9,115.1L102.9,115.1z"/>
			</g>
			<g>
				<path class="st19" d="M102.8,121.2c2-0.6,4-1.1,6-1.7c1-0.3,0.6-1.8-0.4-1.6c-2,0.6-4,1.1-6,1.7
					C101.4,119.9,101.8,121.5,102.8,121.2L102.8,121.2z"/>
			</g>
			<g>
				<path class="st19" d="M104.2,126.4c2-0.6,4-1.1,6-1.7c1-0.3,0.6-1.8-0.4-1.6c-2,0.6-4,1.1-6,1.7
					C102.8,125.1,103.2,126.7,104.2,126.4L104.2,126.4z"/>
			</g>
			<g>
				<path class="st20" d="M104.4,120.3c0.9-0.2,1.7-0.5,2.6-0.7c0.5-0.1,0.3-0.9-0.2-0.7c-0.9,0.2-1.7,0.5-2.6,0.7
					C103.7,119.7,103.9,120.5,104.4,120.3L104.4,120.3z"/>
			</g>
			<g>
				<path class="st20" d="M105.8,125.5c0.9-0.2,1.7-0.5,2.6-0.7c0.5-0.1,0.3-0.9-0.2-0.7c-0.9,0.2-1.7,0.5-2.6,0.7
					C105.1,124.9,105.3,125.7,105.8,125.5L105.8,125.5z"/>
			</g>
			<line class="st21" x1="44.6" y1="82.4" x2="47.6" y2="81.5"/>
			<line class="st21" x1="45.6" y1="85.8" x2="48.6" y2="84.9"/>
			<line class="st21" x1="46.5" y1="89.2" x2="49.5" y2="88.3"/>
			<line class="st21" x1="47.5" y1="92.5" x2="50.4" y2="91.7"/>
			<line class="st21" x1="48.4" y1="95.9" x2="51.4" y2="95.1"/>
			<line class="st22" x1="55.6" y1="99.4" x2="57.7" y2="98.9"/>
			<line class="st22" x1="59.4" y1="98.4" x2="61.5" y2="97.8"/>
			<line class="st22" x1="63.3" y1="97.3" x2="65.4" y2="96.8"/>
			<line class="st22" x1="67.1" y1="96.3" x2="69.2" y2="95.7"/>
			<line class="st22" x1="70.9" y1="95.2" x2="73" y2="94.6"/>
			<line class="st22" x1="74.8" y1="94.2" x2="76.9" y2="93.6"/>
			<line class="st22" x1="79" y1="93" x2="81.1" y2="92.4"/>
			<line class="st22" x1="82.9" y1="91.9" x2="85" y2="91.4"/>
			<line class="st22" x1="86.7" y1="90.9" x2="88.8" y2="90.3"/>
			<polygon class="st23" points="51.7,92.1 55.1,89.5 62.2,91.5 68.4,79.6 79.7,88.5 85.1,74.9 88.8,88.5 53.4,98.2 			"/>
			
				<rect x="53.2" y="87.1" transform="matrix(0.9641 -0.2655 0.2655 0.9641 -22.5542 17.8514)" class="st24" width="3.1" height="10.6"/>
			
				<rect x="57.8" y="91.2" transform="matrix(0.9641 -0.2655 0.2655 0.9641 -22.7876 19.1097)" class="st24" width="3.1" height="5.3"/>
			
				<rect x="60" y="78.1" transform="matrix(0.9641 -0.2655 0.2655 0.9641 -20.8629 19.4476)" class="st24" width="3.1" height="17.6"/>
			
				<rect x="64" y="78.7" transform="matrix(0.9641 -0.2655 0.2655 0.9641 -20.6486 20.5148)" class="st24" width="3.1" height="15.9"/>
			
				<rect x="68.8" y="84.6" transform="matrix(0.9641 -0.2655 0.2655 0.9641 -21.0986 21.8652)" class="st24" width="3.1" height="8.8"/>
			
				<rect x="72.4" y="81.7" transform="matrix(0.9641 -0.2655 0.2655 0.9641 -20.4514 22.7478)" class="st24" width="3.1" height="10.6"/>
			
				<rect x="76.4" y="78.9" transform="matrix(0.9641 -0.2655 0.2655 0.9641 -19.7824 23.7503)" class="st24" width="3.1" height="12.3"/>
			
				<rect x="80.5" y="79.5" transform="matrix(0.9641 -0.2655 0.2655 0.9641 -19.5681 24.8175)" class="st24" width="3.1" height="10.6"/>
			
				<rect x="85.3" y="85.4" transform="matrix(0.9641 -0.2655 0.2655 0.9641 -20.018 26.1679)" class="st24" width="3.1" height="3.5"/>
			<polyline class="st25" points="48.2,79.2 53.4,98.2 88.8,88.5 			"/>
			<line class="st26" x1="111.1" y1="102" x2="112.1" y2="101.8"/>
			<line class="st26" x1="112.1" y1="105.4" x2="113" y2="105.2"/>
			<line class="st26" x1="113" y1="108.8" x2="113.9" y2="108.6"/>
			<line class="st26" x1="113.9" y1="112.2" x2="114.9" y2="112"/>
			<line class="st26" x1="114.9" y1="115.6" x2="115.8" y2="115.3"/>
			<line class="st26" x1="120" y1="119.7" x2="120.8" y2="119.5"/>
			<line class="st26" x1="123.9" y1="118.6" x2="124.7" y2="118.4"/>
			<line class="st26" x1="127.7" y1="117.6" x2="128.5" y2="117.3"/>
			<line class="st26" x1="131.5" y1="116.5" x2="132.4" y2="116.3"/>
			<line class="st26" x1="135.4" y1="115.4" x2="136.2" y2="115.2"/>
			<line class="st26" x1="139.2" y1="114.4" x2="140" y2="114.2"/>
			<line class="st26" x1="143.5" y1="113.2" x2="144.3" y2="113"/>
			<line class="st26" x1="147.3" y1="112.2" x2="148.1" y2="111.9"/>
			<line class="st26" x1="151.1" y1="111.1" x2="152" y2="110.9"/>
			<polyline class="st25" points="112.6,99.5 117.9,118.4 153.2,108.7 			"/>
			<path class="st27" d="M122.8,107.9c0.1,0.4-0.1,0.8-0.5,0.9c-0.4,0.1-0.8-0.1-0.9-0.5c-0.1-0.4,0.1-0.8,0.5-0.9
				C122.3,107.4,122.7,107.6,122.8,107.9z"/>
			<path class="st27" d="M131.9,110.9c0.1,0.4-0.1,0.8-0.5,0.9c-0.4,0.1-0.8-0.1-0.9-0.5c-0.1-0.4,0.1-0.8,0.5-0.9
				C131.4,110.3,131.8,110.6,131.9,110.9z"/>
			<path class="st27" d="M136.3,96.9c0.1,0.4-0.1,0.8-0.5,0.9s-0.8-0.1-0.9-0.5c-0.1-0.4,0.1-0.8,0.5-0.9
				C135.8,96.3,136.2,96.6,136.3,96.9z"/>
			<path class="st27" d="M144.9,96.5c0.1,0.4-0.1,0.8-0.5,0.9c-0.4,0.1-0.8-0.1-0.9-0.5c-0.1-0.4,0.1-0.8,0.5-0.9
				C144.4,95.9,144.7,96.1,144.9,96.5z"/>
			<polyline class="st28" points="117.9,118.4 122.1,108.1 131.2,111.1 135.6,97.1 144.2,96.7 148.3,90.8 			"/>
			<polyline class="st29" points="116.2,112.4 120.1,115.9 125.9,106.9 134.6,108.4 139.7,95.3 147.8,95 148.8,92.7 			"/>
			<path class="st30" d="M148.5,94.8c0.1,0.4-0.1,0.8-0.5,0.9c-0.4,0.1-0.8-0.1-0.9-0.5c-0.1-0.4,0.1-0.8,0.5-0.9
				C148,94.2,148.4,94.4,148.5,94.8z"/>
			<path class="st30" d="M140.3,95.1c0.1,0.4-0.1,0.8-0.5,0.9c-0.4,0.1-0.8-0.1-0.9-0.5c-0.1-0.4,0.1-0.8,0.5-0.9
				C139.8,94.5,140.2,94.7,140.3,95.1z"/>
			<path class="st30" d="M135.2,108.3c0.1,0.4-0.1,0.8-0.5,0.9c-0.4,0.1-0.8-0.1-0.9-0.5s0.1-0.8,0.5-0.9S135.1,107.9,135.2,108.3z"
				/>
			<path class="st30" d="M126.6,106.7c0.1,0.4-0.1,0.8-0.5,0.9c-0.4,0.1-0.8-0.1-0.9-0.5s0.1-0.8,0.5-0.9
				C126.1,106.1,126.5,106.4,126.6,106.7z"/>
			<path class="st30" d="M120.8,115.7c0.1,0.4-0.1,0.8-0.5,0.9s-0.8-0.1-0.9-0.5c-0.1-0.4,0.1-0.8,0.5-0.9
				C120.3,115.1,120.7,115.3,120.8,115.7z"/>
			<path class="st31" d="M54.7,112.3c3.1-0.9,3.1-0.9,6.3-1.8c3.1-0.9,3.2-0.5,6.4-1.4c3.1-0.9,3.2-0.8,6.3-1.7
				c3.1-0.9,3.1-1.1,6.2-2c3.1-0.9,3.2-0.8,6.3-1.7c3.1-0.9,3.1-0.9,6.3-1.8"/>
			<path class="st31" d="M55.7,116c3.1-0.9,3.1-1.2,6.2-2c3.1-0.9,3.1-0.9,6.3-1.7c3.1-0.9,3.2-0.7,6.3-1.6c3.1-0.9,3.1-0.9,6.3-1.8
				c3.1-0.9,3.2-0.7,6.3-1.5c3.1-0.9,3.1-1,6.3-1.8"/>
			<path class="st31" d="M56.7,119.4c3.1-0.9,3.1-1.1,6.2-1.9c3.1-0.9,3.1-1,6.2-1.9c3.1-0.9,3.2-0.6,6.4-1.5c3.1-0.9,3.1-1.1,6.2-2
				c3.1-0.9,3.1-1,6.3-1.8c3.1-0.9,3.1-0.9,6.3-1.8"/>
			<path class="st31" d="M57.6,122.4c3.1-0.9,3.2-0.5,6.4-1.4c3.1-0.9,3.1-1.2,6.2-2.1c3.1-0.9,3.1-0.9,6.3-1.8
				c3.1-0.9,3.2-0.6,6.3-1.5c3.1-0.9,3.1-1.1,6.2-1.9c3.1-0.9,3.2-0.6,6.4-1.4"/>
			<path class="st31" d="M58.7,126.1c3.1-0.9,3-1.2,6.2-2.1c3.1-0.9,3.2-0.6,6.4-1.4c3.1-0.9,3.1-0.9,6.3-1.8c3.1-0.9,3.1-1,6.3-1.8
				c3.1-0.9,3.1-0.9,6.3-1.7c3.1-0.9,3.2-0.6,6.4-1.4"/>
			<path class="st31" d="M59.6,129.4c3.1-0.9,3.1-1.1,6.2-2c3.1-0.9,3.2-0.8,6.3-1.7c3.1-0.9,3.1-1,6.3-1.8c3.1-0.9,3.2-0.5,6.4-1.4
				c3.1-0.9,3.1-1.2,6.2-2.1c3.1-0.9,3.2-0.6,6.4-1.5"/>
			<path class="st31" d="M60.5,132.7c3.1-0.9,3.1-1.1,6.2-2c3.1-0.9,3.2-0.5,6.4-1.4c3.1-0.9,3-1.2,6.2-2.1c3.1-0.9,3.2-0.7,6.3-1.6
				c3.1-0.9,3.1-0.9,6.3-1.8c3.1-0.9,3.1-0.9,6.3-1.8"/>
			<path class="st31" d="M61.4,135.9c3.1-0.9,3.2-0.8,6.3-1.6c3.1-0.9,3.1-0.9,6.3-1.8c3.1-0.9,3.2-0.6,6.4-1.5
				c3.1-0.9,3.1-0.9,6.3-1.8c3.1-0.9,3.2-0.6,6.3-1.5c3.1-0.9,3.1-0.9,6.3-1.8"/>
			
				<rect x="54.7" y="102" transform="matrix(0.9641 -0.2655 0.2655 0.9641 -25.3248 18.464)" class="st24" width="1.8" height="1.8"/>
			
				<rect x="55.7" y="105.4" transform="matrix(0.9641 -0.2655 0.2655 0.9641 -26.1925 18.8338)" class="st32" width="1.8" height="1.8"/>
			<line class="st31" x1="58.8" y1="102" x2="74.5" y2="97.7"/>
			<line class="st31" x1="59.8" y1="105.4" x2="75.4" y2="101.1"/>
			<line class="st31" x1="99.4" y1="65.1" x2="116.4" y2="60.4"/>
			<line class="st31" x1="100.4" y1="68.6" x2="124.2" y2="62.1"/>
			<path class="st33" d="M114.3,78.6c-2.5,0.7-5.1-0.8-5.8-3.3c-0.7-2.5,0.8-5.1,3.3-5.8c2.5-0.7,5.1,0.8,5.8,3.3"/>
			<path class="st34" d="M112.5,73.7c-0.2,0.3-0.6,0.4-0.9,0.2c-0.3-0.2-0.4-0.6-0.2-0.9c0.2-0.3,0.6-0.4,0.9-0.2
				C112.6,73,112.7,73.4,112.5,73.7z"/>
			<path class="st34" d="M114.7,74.9c-0.2,0.3-0.6,0.4-0.9,0.2c-0.3-0.2-0.4-0.6-0.2-0.9c0.2-0.3,0.6-0.4,0.9-0.2
				C114.8,74.2,114.9,74.6,114.7,74.9z"/>
			<line class="st34" x1="113.9" y1="72.3" x2="112" y2="75.6"/>
			<path class="st35" d="M127.7,65.8c1.5,0.5,2.7,1.7,3.2,3.3c0.7,2.6-0.8,5.2-3.4,5.9c-2.6,0.7-5.2-0.8-5.9-3.4
				c-0.7-2.6,0.8-5.2,3.4-5.9"/>
			<path class="st34" d="M125.7,70c-0.2,0.3-0.6,0.4-0.9,0.2c-0.3-0.2-0.4-0.6-0.2-0.9c0.2-0.3,0.6-0.4,0.9-0.2
				C125.7,69.3,125.8,69.7,125.7,70z"/>
			<path class="st34" d="M127.9,71.3c-0.2,0.3-0.6,0.4-0.9,0.2c-0.3-0.2-0.4-0.6-0.2-0.9c0.2-0.3,0.6-0.4,0.9-0.2
				C127.9,70.5,128.1,70.9,127.9,71.3z"/>
			<line class="st34" x1="127.1" y1="68.6" x2="125.2" y2="71.9"/>
			<path class="st31" d="M105.1,85.5c3.1-0.9,3.1-1.2,6.2-2.1c3.1-0.9,3.2-0.6,6.4-1.4c3.1-0.9,3.2-0.8,6.3-1.7
				c3.1-0.9,3.1-0.9,6.3-1.7c3.1-0.9,3-1.2,6.2-2.1c3.1-0.9,3.3-0.4,6.4-1.3"/>
			<path class="st31" d="M106,88.6c3.1-0.9,3.2-0.5,6.4-1.4c3.1-0.9,3.2-0.8,6.3-1.7c3.1-0.9,3.1-0.9,6.3-1.8
				c3.1-0.9,3.1-1.1,6.2-1.9c3.1-0.9,3.1-1,6.3-1.8c3.1-0.9,3.1-0.9,6.3-1.8"/>
			<path class="st31" d="M107,92.3c3.1-0.9,3-1.2,6.2-2.1c3.1-0.9,3.1-0.8,6.3-1.7c3.1-0.9,3.1-0.9,6.3-1.8c3.1-0.9,3.2-0.6,6.4-1.5
				c3.1-0.9,3.2-0.7,6.3-1.5c3.1-0.9,3.1-1.1,6.2-2"/>
			<path class="st31" d="M107.8,95.3c3.1-0.9,3.2-0.7,6.3-1.6c3.1-0.9,3.2-0.6,6.4-1.4c3.1-0.9,3.1-0.9,6.3-1.7
				c3.1-0.9,3.1-1,6.2-1.9c3.1-0.9,3.2-0.7,6.3-1.5c3.1-0.9,3-1.2,6.2-2.1"/>
			<g>
				<polygon class="st36" points="65.3,131.7 65.4,131.3 83.8,133 88.4,131.7 84.2,129.5 65.7,127.7 65.8,127.3 63.3,127.1 
					54.4,126.2 55.6,130.7 62.9,131.4 				"/>
				<polygon class="st37" points="54.2,125.6 54.4,126.1 54.4,125.6 				"/>
			</g>
			<g>
				
					<rect x="52.2" y="123.8" transform="matrix(9.404389e-02 -0.9956 0.9956 9.404389e-02 -76.3704 166.2123)" class="st38" width="1.9" height="2.6"/>
			</g>
			<path class="st7" d="M63.4,125.8l-0.4,4.4l-12.5-1.2c-1.2-0.1-2.1-1.2-2-2.4l0,0c0.1-1.2,1.2-2.1,2.4-2L63.4,125.8z"/>
			
				<rect x="66.3" y="112.3" transform="matrix(9.404450e-02 -0.9956 0.9956 9.404450e-02 -66.1702 184.0688)" class="st7" width="3.6" height="32.3"/>
			<g>
				
					<rect x="56.2" y="120.1" transform="matrix(9.404474e-02 -0.9956 0.9956 9.404474e-02 -74.0428 173.5856)" class="st39" width="4.4" height="14.7"/>
			</g>
			<g>
				
					<rect x="49.2" y="126.5" transform="matrix(9.404474e-02 -0.9956 0.9956 9.404474e-02 -79.727 166.0164)" class="st40" width="4.4" height="0.6"/>
			</g>
			<g>
				
					<rect x="58.7" y="117.7" transform="matrix(9.404685e-02 -0.9956 0.9956 9.404685e-02 -70.7422 171.6283)" class="st39" width="0.5" height="14.1"/>
			</g>
			<polygon class="st41" points="84,131.7 88.5,130.3 84.3,128.1 			"/>
			<polygon class="st42" points="87.5,130.6 88.5,130.3 87.6,129.9 			"/>
			<line class="st43" x1="84" y1="131.7" x2="84.3" y2="128.1"/>
			<line class="st43" x1="74.4" y1="130.8" x2="74.8" y2="127.2"/>
			<path class="st44" d="M48.6,126.6c-0.1,1.2,0.8,2.2,2,2.4l0.3,0l0.6,0.1l11.6,1.1l2.4,0.2l0-0.4l18.5,1.7l4.6-1.4L48.6,126.6z"/>
			<polygon class="st17" points="105.7,151.3 109,131.3 111.2,128.6 138.2,123.4 113.1,152.3 			"/>
		</g>
		<g>
			<path class="st45" d="M136.5,163.4l-27.6-8.7c-2.5-0.8-3.9-3.6-3.1-6.1l10.3-32.2c0.8-2.5,3.6-3.9,6.1-3.1l27.7,9
				c2.5,0.8,3.9,3.6,3.1,6.1l-10.4,31.9C141.8,162.9,139,164.3,136.5,163.4z"/>
			<path class="st46" d="M136.8,162.3l-27.6-8.7c-2.5-0.8-3.9-3.6-3.1-6.1l10.3-32.2c0.8-2.5,3.6-3.9,6.1-3.1l27.7,9
				c2.5,0.8,3.9,3.6,3.1,6.1L143,159.2C142.1,161.7,139.4,163.1,136.8,162.3z"/>
			<g class="st47">
				<path class="st45" d="M116.1,154.1l-4.3-1.4c-0.8-0.3-1.3-1.1-1-1.9l1-3c0.3-0.8,1.1-1.3,1.9-1l4.3,1.4c0.8,0.3,1.3,1.1,1,1.9
					l-1,3C117.8,153.9,116.9,154.3,116.1,154.1z"/>
			</g>
			<g class="st47">
				<path class="st45" d="M126.2,157.4l-4.3-1.4c-0.8-0.3-1.3-1.1-1-1.9l1-3c0.3-0.8,1.1-1.3,1.9-1l4.3,1.4c0.8,0.3,1.3,1.1,1,1.9
					l-1,3C127.9,157.2,127,157.6,126.2,157.4z"/>
			</g>
			<g class="st47">
				<path class="st45" d="M136.3,160.6l-4.3-1.4c-0.8-0.3-1.3-1.1-1-1.9l1-3c0.3-0.8,1.1-1.3,1.9-1l4.3,1.4c0.8,0.3,1.3,1.1,1,1.9
					l-1,3C138,160.5,137.1,160.9,136.3,160.6z"/>
			</g>
			<g class="st47">
				<path class="st45" d="M120.7,140l-4.3-1.4c-0.8-0.3-1.3-1.1-1-1.9l1-3c0.3-0.8,1.1-1.3,1.9-1l4.3,1.4c0.8,0.3,1.3,1.1,1,1.9
					l-1,3C122.4,139.9,121.5,140.3,120.7,140z"/>
			</g>
			<g class="st47">
				<path class="st45" d="M140.9,146.6l-4.3-1.4c-0.8-0.3-1.3-1.1-1-1.9l1-3c0.3-0.8,1.1-1.3,1.9-1l4.3,1.4c0.8,0.3,1.3,1.1,1,1.9
					l-1,3C142.6,146.4,141.7,146.9,140.9,146.6z"/>
			</g>
			<g class="st47">
				<path class="st45" d="M130.8,143.4l-4.3-1.4c-0.8-0.3-1.3-1.1-1-1.9l1-3c0.3-0.8,1.1-1.3,1.9-1l4.3,1.4c0.8,0.3,1.3,1.1,1,1.9
					l-1,3C132.5,143.2,131.6,143.6,130.8,143.4z"/>
			</g>
			<g class="st47">
				<path class="st45" d="M118.4,147.1l-4.3-1.4c-0.8-0.3-1.3-1.1-1-1.9l1-3c0.3-0.8,1.1-1.3,1.9-1l4.3,1.4c0.8,0.3,1.3,1.1,1,1.9
					l-1,3C120.1,146.9,119.2,147.3,118.4,147.1z"/>
			</g>
			<g class="st47">
				<path class="st45" d="M128.5,150.4l-4.3-1.4c-0.8-0.3-1.3-1.1-1-1.9l1-3c0.3-0.8,1.1-1.3,1.9-1l4.3,1.4c0.8,0.3,1.3,1.1,1,1.9
					l-1,3C130.2,150.2,129.3,150.6,128.5,150.4z"/>
			</g>
			<g class="st47">
				<path class="st45" d="M138.6,153.6l-4.3-1.4c-0.8-0.3-1.3-1.1-1-1.9l1-3c0.3-0.8,1.1-1.3,1.9-1l4.3,1.4c0.8,0.3,1.3,1.1,1,1.9
					l-1,3C140.3,153.5,139.4,153.9,138.6,153.6z"/>
			</g>
			<g class="st47">
				<path class="st45" d="M123,133.1l-4.3-1.4c-0.8-0.3-1.3-1.1-1-1.9l1-3c0.3-0.8,1.1-1.3,1.9-1l4.3,1.4c0.8,0.3,1.3,1.1,1,1.9
					l-1,3C124.7,133,123.8,133.4,123,133.1z"/>
			</g>
			<g class="st47">
				<path class="st45" d="M133.1,136.4l-4.3-1.4c-0.8-0.3-1.3-1.1-1-1.9l1-3c0.3-0.8,1.1-1.3,1.9-1l4.3,1.4c0.8,0.3,1.3,1.1,1,1.9
					l-1,3C134.8,136.2,133.9,136.7,133.1,136.4z"/>
			</g>
			<g class="st47">
				<path class="st45" d="M143.2,139.7l-4.3-1.4c-0.8-0.3-1.3-1.1-1-1.9l1-3c0.3-0.8,1.1-1.3,1.9-1l4.3,1.4c0.8,0.3,1.3,1.1,1,1.9
					l-1,3C144.9,139.5,144,140,143.2,139.7z"/>
			</g>
			<path class="st48" d="M146.1,130.4l-25.6-8.3c-0.8-0.3-1.3-1.1-1-1.9l1.2-3.8c0.3-0.8,1.1-1.3,1.9-1l25.6,8.3
				c0.8,0.3,1.3,1.1,1,1.9l-1.2,3.8C147.8,130.2,146.9,130.7,146.1,130.4z"/>
			<path class="st49" d="M115.7,153.3l-4.3-1.4c-0.8-0.3-1.3-1.1-1-1.9l1-3c0.3-0.8,1.1-1.3,1.9-1l4.3,1.4c0.8,0.3,1.3,1.1,1,1.9
				l-1,3C117.4,153.1,116.5,153.5,115.7,153.3z"/>
			<path class="st49" d="M125.8,156.5l-4.3-1.4c-0.8-0.3-1.3-1.1-1-1.9l1-3c0.3-0.8,1.1-1.3,1.9-1l4.3,1.4c0.8,0.3,1.3,1.1,1,1.9
				l-1,3C127.5,156.4,126.6,156.8,125.8,156.5z"/>
			<path class="st50" d="M135.9,159.8l-4.3-1.4c-0.8-0.3-1.3-1.1-1-1.9l1-3c0.3-0.8,1.1-1.3,1.9-1l4.3,1.4c0.8,0.3,1.3,1.1,1,1.9
				l-1,3C137.6,159.6,136.7,160.1,135.9,159.8z"/>
			<path class="st49" d="M120.3,139.2l-4.3-1.4c-0.8-0.3-1.3-1.1-1-1.9l1-3c0.3-0.8,1.1-1.3,1.9-1l4.3,1.4c0.8,0.3,1.3,1.1,1,1.9
				l-1,3C121.9,139.1,121.1,139.5,120.3,139.2z"/>
			<path class="st49" d="M130.4,142.5l-4.3-1.4c-0.8-0.3-1.3-1.1-1-1.9l1-3c0.3-0.8,1.1-1.3,1.9-1l4.3,1.4c0.8,0.3,1.3,1.1,1,1.9
				l-1,3C132.1,142.3,131.2,142.8,130.4,142.5z"/>
			<path class="st49" d="M140.5,145.8l-4.3-1.4c-0.8-0.3-1.3-1.1-1-1.9l1-3c0.3-0.8,1.1-1.3,1.9-1l4.3,1.4c0.8,0.3,1.3,1.1,1,1.9
				l-1,3C142.2,145.6,141.3,146.1,140.5,145.8z"/>
			<path class="st49" d="M118,146.3l-4.3-1.4c-0.8-0.3-1.3-1.1-1-1.9l1-3c0.3-0.8,1.1-1.3,1.9-1l4.3,1.4c0.8,0.3,1.3,1.1,1,1.9l-1,3
				C119.7,146.1,118.8,146.5,118,146.3z"/>
			<path class="st49" d="M128.1,149.5l-4.3-1.4c-0.8-0.3-1.3-1.1-1-1.9l1-3c0.3-0.8,1.1-1.3,1.9-1l4.3,1.4c0.8,0.3,1.3,1.1,1,1.9
				l-1,3C129.8,149.4,128.9,149.8,128.1,149.5z"/>
			<path class="st49" d="M138.2,152.8l-4.3-1.4c-0.8-0.3-1.3-1.1-1-1.9l1-3c0.3-0.8,1.1-1.3,1.9-1l4.3,1.4c0.8,0.3,1.3,1.1,1,1.9
				l-1,3C139.9,152.6,139,153.1,138.2,152.8z"/>
			<path class="st51" d="M115.9,152.8l-4.3-1.4c-0.8-0.3-1.3-1.1-1-1.9l1-3c0.3-0.8,1.1-1.3,1.9-1l4.3,1.4c0.8,0.3,1.3,1.1,1,1.9
				l-1,3C117.5,152.6,116.7,153,115.9,152.8z"/>
			<path class="st51" d="M126,156l-4.3-1.4c-0.8-0.3-1.3-1.1-1-1.9l1-3c0.3-0.8,1.1-1.3,1.9-1l4.3,1.4c0.8,0.3,1.3,1.1,1,1.9l-1,3
				C127.6,155.9,126.8,156.3,126,156z"/>
			<path class="st52" d="M136.1,159.3l-4.3-1.4c-0.8-0.3-1.3-1.1-1-1.9l1-3c0.3-0.8,1.1-1.3,1.9-1l4.3,1.4c0.8,0.3,1.3,1.1,1,1.9
				l-1,3C137.7,159.1,136.9,159.6,136.1,159.3z"/>
			<path class="st51" d="M120.4,138.7l-4.3-1.4c-0.8-0.3-1.3-1.1-1-1.9l1-3c0.3-0.8,1.1-1.3,1.9-1l4.3,1.4c0.8,0.3,1.3,1.1,1,1.9
				l-1,3C122.1,138.5,121.2,139,120.4,138.7z"/>
			<path class="st51" d="M130.5,142l-4.3-1.4c-0.8-0.3-1.3-1.1-1-1.9l1-3c0.3-0.8,1.1-1.3,1.9-1l4.3,1.4c0.8,0.3,1.3,1.1,1,1.9l-1,3
				C132.2,141.8,131.4,142.3,130.5,142z"/>
			<path class="st51" d="M140.7,145.3l-4.3-1.4c-0.8-0.3-1.3-1.1-1-1.9l1-3c0.3-0.8,1.1-1.3,1.9-1l4.3,1.4c0.8,0.3,1.3,1.1,1,1.9
				l-1,3C142.3,145.1,141.5,145.5,140.7,145.3z"/>
			<path class="st51" d="M118.2,145.7l-4.3-1.4c-0.8-0.3-1.3-1.1-1-1.9l1-3c0.3-0.8,1.1-1.3,1.9-1l4.3,1.4c0.8,0.3,1.3,1.1,1,1.9
				l-1,3C119.8,145.6,119,146,118.2,145.7z"/>
			<path class="st51" d="M128.3,149l-4.3-1.4c-0.8-0.3-1.3-1.1-1-1.9l1-3c0.3-0.8,1.1-1.3,1.9-1l4.3,1.4c0.8,0.3,1.3,1.1,1,1.9l-1,3
				C129.9,148.8,129.1,149.3,128.3,149z"/>
			<path class="st51" d="M138.4,152.3l-4.3-1.4c-0.8-0.3-1.3-1.1-1-1.9l1-3c0.3-0.8,1.1-1.3,1.9-1l4.3,1.4c0.8,0.3,1.3,1.1,1,1.9
				l-1,3C140.1,152.1,139.2,152.6,138.4,152.3z"/>
			<path class="st45" d="M146.4,129.5l-25.6-8.3c-0.8-0.3-1.3-1.1-1-1.9l1.2-3.8c0.3-0.8,1.1-1.3,1.9-1l25.6,8.3
				c0.8,0.3,1.3,1.1,1,1.9l-1.2,3.8C148.1,129.3,147.2,129.7,146.4,129.5z"/>
			<path class="st53" d="M146.2,130l-25.6-8.3c-0.8-0.3-1.3-1.1-1-1.9l1.2-3.8c0.3-0.8,1.1-1.3,1.9-1l25.6,8.3
				c0.8,0.3,1.3,1.1,1,1.9l-1.2,3.8C147.9,129.8,147,130.2,146.2,130z"/>
			<g>
				<defs>
					<filter id="Adobe_OpacityMaskFilter" filterUnits="userSpaceOnUse" x="119.5" y="114.9" width="20.6" height="10.1">
						<feFlood  style="flood-color:white;flood-opacity:1" result="back"/>
						<feBlend  in="SourceGraphic" in2="back" mode="normal"/>
					</filter>
				</defs>
				<mask maskUnits="userSpaceOnUse" x="119.5" y="114.9" width="20.6" height="10.1" id="SVGID_1_">
					<g class="st54">
						<defs>
							<filter id="Adobe_OpacityMaskFilter_1_" filterUnits="userSpaceOnUse" x="119.5" y="114.9" width="20.6" height="10.1">
								<feFlood  style="flood-color:white;flood-opacity:1" result="back"/>
								<feBlend  in="SourceGraphic" in2="back" mode="normal"/>
							</filter>
						</defs>
						<mask maskUnits="userSpaceOnUse" x="119.5" y="114.9" width="20.6" height="10.1" id="SVGID_1_">
							<g class="st55">
							</g>
						</mask>
						
							<linearGradient id="SVGID_2_" gradientUnits="userSpaceOnUse" x1="1593.6843" y1="-803.7393" x2="1573.9006" y2="-803.7393" gradientTransform="matrix(0.9512 0.3087 -0.3087 0.9512 -1624.9816 396.4619)">
							<stop  offset="0" style="stop-color:#FFFFFF"/>
							<stop  offset="0" style="stop-color:#666666"/>
							<stop  offset="0.7247" style="stop-color:#000000"/>
						</linearGradient>
						<path class="st56" d="M140.1,120.5l-17.3-5.6c-0.9-0.3-1.8,0.2-2,1l-1.2,3.8c-0.3,0.8,0.2,1.7,1.1,2l10.1,3.3L140.1,120.5z"/>
					</g>
				</mask>
				
					<linearGradient id="SVGID_3_" gradientUnits="userSpaceOnUse" x1="1593.6843" y1="-803.7393" x2="1573.9006" y2="-803.7393" gradientTransform="matrix(0.9512 0.3087 -0.3087 0.9512 -1624.9816 396.4619)">
					<stop  offset="0" style="stop-color:#FFFFFF"/>
					<stop  offset="0" style="stop-color:#FFFFFF"/>
					<stop  offset="0.7247" style="stop-color:#F4F4F4"/>
				</linearGradient>
				<path class="st57" d="M140.1,120.5l-17.3-5.6c-0.9-0.3-1.8,0.2-2,1l-1.2,3.8c-0.3,0.8,0.2,1.7,1.1,2l10.1,3.3L140.1,120.5z"/>
			</g>
			<g>
				<path class="st49" d="M122.6,132.3l-4.3-1.4c-0.8-0.3-1.3-1.1-1-1.9l1-3c0.3-0.8,1.1-1.3,1.9-1l4.3,1.4c0.8,0.3,1.3,1.1,1,1.9
					l-1,3C124.3,132.1,123.4,132.6,122.6,132.3z"/>
				<path class="st49" d="M132.7,135.6l-4.3-1.4c-0.8-0.3-1.3-1.1-1-1.9l1-3c0.3-0.8,1.1-1.3,1.9-1l4.3,1.4c0.8,0.3,1.3,1.1,1,1.9
					l-1,3C134.4,135.4,133.5,135.9,132.7,135.6z"/>
				<path class="st49" d="M142.8,138.9l-4.3-1.4c-0.8-0.3-1.3-1.1-1-1.9l1-3c0.3-0.8,1.1-1.3,1.9-1l4.3,1.4c0.8,0.3,1.3,1.1,1,1.9
					l-1,3C144.5,138.7,143.6,139.1,142.8,138.9z"/>
				<path class="st51" d="M122.8,131.8l-4.3-1.4c-0.8-0.3-1.3-1.1-1-1.9l1-3c0.3-0.8,1.1-1.3,1.9-1l4.3,1.4c0.8,0.3,1.3,1.1,1,1.9
					l-1,3C124.5,131.6,123.6,132.1,122.8,131.8z"/>
				<path class="st51" d="M132.9,135.1l-4.3-1.4c-0.8-0.3-1.3-1.1-1-1.9l1-3c0.3-0.8,1.1-1.3,1.9-1l4.3,1.4c0.8,0.3,1.3,1.1,1,1.9
					l-1,3C134.6,134.9,133.7,135.3,132.9,135.1z"/>
				<path class="st51" d="M143,138.4l-4.3-1.4c-0.8-0.3-1.3-1.1-1-1.9l1-3c0.3-0.8,1.1-1.3,1.9-1l4.3,1.4c0.8,0.3,1.3,1.1,1,1.9
					l-1,3C144.7,138.2,143.8,138.6,143,138.4z"/>
			</g>
		</g>
	</g>
</g>
</svg>
