<?xml version="1.0" encoding="utf-8"?>
<!-- Generator: Adobe Illustrator 24.0.0, SVG Export Plug-In . SVG Version: 6.00 Build 0)  -->
<svg version="1.1" id="Layer_1" xmlns="http://www.w3.org/2000/svg" xmlns:xlink="http://www.w3.org/1999/xlink" x="0px" y="0px"
	 width="210px" height="210px" viewBox="0 0 210 210" style="enable-background:new 0 0 210 210;" xml:space="preserve">
<style type="text/css">
	.st0{fill:#DEFDFF;}
	.st1{fill:#96CE00;}
	.st2{clip-path:url(#SVGID_2_);fill:#96CE00;}
	.st3{clip-path:url(#SVGID_4_);fill:#00A43F;}
	.st4{fill:#00A43F;}
	.st5{fill:#0076BF;}
	.st6{fill:#00ABE6;}
</style>
<title>Artboard 23 copy 4</title>
<g>
	<circle class="st0" cx="105.5" cy="105" r="86.8"/>
</g>
<g>
	<path class="st1" d="M72.8,146.4c-0.2,0-0.3-0.1-0.4-0.2c-9.9-8-15.5-20-15.4-33c0.1-13,5.9-24.9,15.8-32.7c0.3-0.2,0.8-0.2,1,0.1
		c0.2,0.3,0.2,0.8-0.1,1c-9.6,7.5-15.2,19.1-15.3,31.6c-0.1,12.6,5.3,24.2,14.9,31.9c0.3,0.2,0.4,0.7,0.1,1
		C73.2,146.3,73,146.4,72.8,146.4"/>
	<g>
		<g>
			<defs>
				<rect id="SVGID_1_" x="66.8" y="70" width="83.9" height="83.8"/>
			</defs>
			<clipPath id="SVGID_2_">
				<use xlink:href="#SVGID_1_"  style="overflow:visible;"/>
			</clipPath>
			<path class="st2" d="M108.7,153.8c-15.6,0-30.6-8.7-37.8-23.7c-1.3-2.7-2.3-5.6-3-8.5c-0.6-2.6-1-5.3-1.1-7.9
				c0-0.4,0.3-0.7,0.7-0.7c0.4,0,0.7,0.3,0.7,0.7c0.1,2.6,0.5,5.1,1.1,7.6c0.7,2.8,1.7,5.6,2.9,8.2c9.7,20.1,34,28.6,54.1,18.8
				c9.7-4.7,17.1-12.9,20.6-23.2c3.6-10.2,2.9-21.2-1.8-31c-6.5-13.5-19.8-22.2-34.8-22.8c-0.4,0-0.7-0.4-0.7-0.7
				c0-0.4,0.4-0.7,0.7-0.7c15.5,0.7,29.3,9.7,36,23.7c4.9,10.1,5.5,21.5,1.9,32c-3.7,10.6-11.3,19.1-21.4,24
				C121.1,152.5,114.8,153.8,108.7,153.8"/>
		</g>
	</g>
	<g>
		<g>
			<defs>
				<rect id="SVGID_3_" x="69.6" y="60.1" width="72.5" height="83.9"/>
			</defs>
			<clipPath id="SVGID_4_">
				<use xlink:href="#SVGID_3_"  style="overflow:visible;"/>
			</clipPath>
			<path class="st3" d="M111.6,144c-5.6,0-11.2-1.1-16.5-3.4c-10.3-4.4-18.3-12.5-22.5-22.9c-4.2-10.4-4.1-21.8,0.3-32.1
				C77.4,75.3,85.6,67.3,96,63.1c10.4-4.2,21.8-4.1,32.1,0.3c2.8,1.2,5.4,2.7,7.9,4.4c2.2,1.5,4.2,3.3,6,5.2c0.3,0.3,0.3,0.7,0,1
				c-0.3,0.3-0.7,0.3-1,0c-1.8-1.9-3.7-3.6-5.8-5.1c-2.4-1.7-4.9-3.1-7.6-4.3c-10-4.2-21-4.4-31-0.3c-10,4-17.9,11.7-22.2,21.7
				c-4.2,10-4.4,21-0.3,31c4,10,11.7,17.9,21.7,22.2c13.7,5.9,29.5,3.7,41.2-5.6c0.3-0.2,0.8-0.2,1,0.1c0.2,0.3,0.2,0.8-0.1,1
				C130.2,140.8,121,144,111.6,144"/>
		</g>
	</g>
	<path class="st4" d="M57.4,97.4c0-10.4,8.5-18.9,18.9-18.9c10.4,0,18.9,8.5,18.9,18.9c0,10.4-8.5,18.9-18.9,18.9
		C65.8,116.2,57.4,107.8,57.4,97.4"/>
	<path class="st4" d="M100.1,87.6c0-10.4,8.5-18.9,18.9-18.9c10.4,0,18.9,8.5,18.9,18.9c0,10.4-8.5,18.9-18.9,18.9
		C108.5,106.4,100.1,98,100.1,87.6"/>
	<path class="st1" d="M115.1,140.9c-0.8-7.9,4.9-15,12.8-15.8c7.9-0.8,15,4.9,15.8,12.8c0.8,7.9-4.9,15-12.8,15.8
		C123.1,154.5,116,148.7,115.1,140.9"/>
	<path class="st1" d="M102.4,61.5c0-7.9,6.4-14.4,14.4-14.4c7.9,0,14.4,6.4,14.4,14.4c0,7.9-6.4,14.4-14.4,14.4
		C108.8,75.9,102.4,69.4,102.4,61.5"/>
	<path class="st1" d="M67.5,157.2c0-7.9,6.4-14.4,14.4-14.4c7.9,0,14.4,6.4,14.4,14.4c0,7.9-6.4,14.4-14.4,14.4
		C73.9,171.6,67.5,165.2,67.5,157.2"/>
	<path class="st5" d="M95.3,126.8c0-2.7,2.2-4.9,4.9-4.9c2.7,0,4.9,2.2,4.9,4.9c0,2.7-2.2,4.9-4.9,4.9
		C97.5,131.7,95.3,129.5,95.3,126.8"/>
	<path class="st6" d="M159.9,74.7c-0.4,0-0.7-0.3-0.7-0.6c-2.3-19.5-18.9-34.8-38.5-35.7c-0.4,0-0.7-0.4-0.7-0.7
		c0-0.4,0.4-0.7,0.7-0.7c20.3,0.9,37.5,16.8,39.9,36.9C160.6,74.3,160.4,74.7,159.9,74.7C159.9,74.7,159.9,74.7,159.9,74.7"/>
	<path class="st6" d="M133.7,126.2c0-9.1,7.3-16.4,16.4-16.4c9.1,0,16.4,7.3,16.4,16.4c0,9.1-7.3,16.4-16.4,16.4
		C141,142.6,133.7,135.2,133.7,126.2"/>
	<path class="st6" d="M146.7,68c0-6,4.9-10.9,10.9-10.9c6,0,10.9,4.9,10.9,10.9c0,6-4.9,10.9-10.9,10.9
		C151.6,79,146.7,74.1,146.7,68"/>
	<path class="st6" d="M74.6,61.5c0-2.7,2.2-4.9,4.9-4.9c2.7,0,4.9,2.2,4.9,4.9c0,2.7-2.2,4.9-4.9,4.9C76.8,66.4,74.6,64.2,74.6,61.5
		"/>
	<path class="st4" d="M122.1,177.5c-1.8-0.7-2.6-2.8-1.9-4.5c0.7-1.8,2.8-2.6,4.5-1.9c1.8,0.7,2.6,2.8,1.9,4.5
		C125.9,177.4,123.9,178.3,122.1,177.5"/>
	<path class="st5" d="M104.3,151.6c0-6,4.9-10.9,10.9-10.9c6,0,10.9,4.9,10.9,10.9s-4.9,10.9-10.9,10.9
		C109.2,162.5,104.3,157.6,104.3,151.6"/>
	<path class="st5" d="M48.3,131.8c0-6,4.9-10.9,10.9-10.9c6,0,10.9,4.9,10.9,10.9c0,6-4.9,10.9-10.9,10.9
		C53.2,142.7,48.3,137.8,48.3,131.8"/>
	<path class="st4" d="M41.2,76.1c-1.8-0.7-2.7-2.8-1.9-4.6c0.7-1.8,2.8-2.7,4.6-1.9c1.8,0.7,2.7,2.8,1.9,4.6
		C45,76,43,76.9,41.2,76.1"/>
</g>
</svg>
