<?xml version="1.0" encoding="utf-8"?>
<!-- Generator: Adobe Illustrator 23.1.1, SVG Export Plug-In . SVG Version: 6.00 Build 0)  -->
<svg version="1.1" id="Layer_1" xmlns="http://www.w3.org/2000/svg" xmlns:xlink="http://www.w3.org/1999/xlink" x="0px" y="0px"
	 width="176px" height="176px" viewBox="0 0 176 176" style="enable-background:new 0 0 176 176;" xml:space="preserve">
<style type="text/css">
	.st0{fill:#DEFDFF;}
	.st1{fill:#FEC150;}
	.st2{fill:#4099D4;}
	.st3{fill:#A290C5;}
	.st4{fill:#E05050;}
</style>
<title>Artboard 23 copy 4</title>
<g>
	<g>
		<g>
			<ellipse transform="matrix(0.2326 -0.9726 0.9726 0.2326 -18.0528 153.1217)" class="st0" cx="88" cy="88" rx="70.8" ry="70.8"/>
		</g>
	</g>
	<g>
		<g>
			<path class="st1" d="M111.9,64.8l-3.3-1.4c-0.7-0.3-1.1-0.9-1.2-1.6c-0.1-0.7,0.2-1.4,0.7-1.9l2.8-2.3c0,0,0-0.1,0-0.1l-4.2-9.2
				c0,0-0.1-0.1-0.1-0.1l-3.5,0.6c-0.8,0.1-1.5-0.2-2-0.8c-0.4-0.5-0.5-1.2-0.3-1.8l1.1-3.4c0,0,0-0.1,0-0.1l-8.5-5.5
				c0,0-0.1,0-0.1,0l-2.7,2.4c-0.4,0.3-0.9,0.5-1.4,0.5c-0.9,0-1.7-0.6-2-1.5l-0.9-3.5c0,0,0-0.1-0.1-0.1H76.1c0,0-0.1,0-0.1,0.1
				l-0.9,3.5c-0.2,0.9-1,1.5-2,1.5c-0.5,0-1-0.2-1.4-0.5l-2.7-2.4c0,0-0.1,0-0.1,0l-8.5,5.5c0,0,0,0.1,0,0.1l1.1,3.4
				c0.2,0.6,0.1,1.3-0.3,1.8c-0.5,0.6-1.2,0.9-2,0.8l-3.5-0.6c0,0-0.1,0-0.1,0.1l-4.2,9.2c0,0,0,0.1,0,0.1l2.8,2.3
				c0.5,0.5,0.8,1.1,0.7,1.9c-0.1,0.7-0.6,1.3-1.2,1.6l-3.3,1.4c0,0-0.1,0.1-0.1,0.1l1.4,10c0,0,0,0.1,0.1,0.1l3.6,0.4
				c0.7,0.1,1.3,0.5,1.6,1.2c0.3,0.6,0.2,1.4-0.2,2l-2,3c0,0,0,0.1,0,0.1l6.6,7.6c0,0,0.1,0,0.1,0l3.2-1.6c0.3-0.1,0.6-0.2,0.9-0.2
				c0.5,0,1.1,0.2,1.5,0.6c0.4,0.4,0.6,0.9,0.6,1.5l-0.1,3.6c0,0,0,0.1,0.1,0.1l9.7,2.8c0,0,0.1,0,0.1,0l1.9-3.1c0.4-0.6,1-1,1.7-1
				c0.7,0,1.4,0.4,1.7,1l1.9,3.1c0,0,0,0,0.1,0c0,0,0,0,0,0l9.7-2.8c0,0,0.1,0,0.1-0.1l-0.1-3.6c0-0.6,0.2-1.1,0.6-1.5
				c0.4-0.4,0.9-0.6,1.5-0.6c0.3,0,0.6,0.1,0.9,0.2l3.2,1.6c0,0,0.1,0,0.1,0l6.6-7.6c0,0,0-0.1,0-0.1l-2-3c-0.4-0.6-0.5-1.3-0.2-2
				c0.3-0.6,0.9-1.1,1.6-1.2l3.6-0.4c0,0,0.1,0,0.1-0.1L111.9,64.8C112,64.9,112,64.8,111.9,64.8z M81.2,80.2
				c-8,0-14.6-6.5-14.6-14.6c0-8,6.5-14.6,14.6-14.6c8,0,14.6,6.5,14.6,14.6C95.7,73.7,89.2,80.2,81.2,80.2z"/>
		</g>
		<g>
			<g>
				<path class="st2" d="M138.6,120.5l-2-2.1c-0.4-0.4-0.5-1-0.4-1.6c0.2-0.6,0.6-1,1.1-1.1l2.8-0.8c0,0,0.1,0,0.1-0.1l-0.1-8.1
					c0,0,0-0.1-0.1-0.1l-2.8-0.7c-0.6-0.2-1.1-0.6-1.2-1.2c-0.1-0.5,0-1,0.4-1.4l1.9-2.2c0,0,0-0.1,0-0.1l-4.4-6.8c0,0-0.1,0-0.1,0
					l-2.7,0.9c-0.4,0.1-0.8,0.1-1.2-0.1c-0.7-0.3-1.1-1-1-1.8l0.5-2.9c0,0,0-0.1,0-0.1l-7.4-3.3c0,0-0.1,0-0.1,0l-1.8,2.2
					c-0.5,0.6-1.3,0.8-1.9,0.5c-0.4-0.2-0.7-0.5-0.8-0.8l-1.2-2.6c0,0,0,0-0.1,0l-8,1.2c0,0-0.1,0-0.1,0.1l-0.3,2.9
					c-0.1,0.5-0.4,1-0.8,1.2c-0.5,0.3-1.2,0.3-1.7-0.1l-2.4-1.6c0,0-0.1,0-0.1,0l-6.1,5.4c0,0,0,0.1,0,0.1l1.3,2.6
					c0.3,0.5,0.2,1.1-0.1,1.6c-0.3,0.5-0.8,0.8-1.4,0.8l-2.9,0c0,0-0.1,0-0.1,0.1l-2.2,7.8c0,0,0,0.1,0,0.1l2.5,1.5
					c0.5,0.3,0.8,0.8,0.8,1.4c0,0.6-0.3,1.1-0.8,1.4l-2.5,1.5c0,0,0,0.1,0,0.1l2.3,7.8c0,0,0,0.1,0.1,0.1l2.9-0.1
					c0.3,0,0.5,0,0.7,0.1c0.4,0.2,0.7,0.5,0.9,0.9c0.2,0.4,0.1,0.9-0.1,1.3l-1.2,2.6c0,0,0,0.1,0,0.1l6.2,5.3c0,0,0.1,0,0.1,0
					l2.4-1.6c0.5-0.3,1.1-0.4,1.6-0.1c0.5,0.2,0.9,0.7,1,1.3l0.4,2.9c0,0,0,0,0,0.1c0,0,0,0,0,0l8,1.1c0,0,0.1,0,0.1,0l1.1-2.7
					c0.2-0.4,0.5-0.7,0.9-0.9c0.4-0.2,0.9-0.2,1.3,0c0.2,0.1,0.4,0.2,0.6,0.4l1.9,2.2c0,0,0.1,0,0.1,0l7.4-3.4c0,0,0,0,0-0.1
					l-0.5-2.8c-0.1-0.6,0.1-1.1,0.5-1.5c0.4-0.4,1-0.5,1.6-0.3l2.8,0.9c0,0,0.1,0,0.1,0L138.6,120.5
					C138.6,120.5,138.6,120.5,138.6,120.5z M111,121.7c-5.9-2.6-8.5-9.6-5.9-15.5c2.6-5.9,9.6-8.5,15.5-5.9
					c5.9,2.6,8.5,9.6,5.9,15.5C123.8,121.7,116.9,124.3,111,121.7z"/>
			</g>
		</g>
		<g>
			<g>
				<path class="st3" d="M88.2,119.2l-1.2-1.4c-0.2-0.3-0.3-0.6-0.2-1c0.1-0.4,0.4-0.6,0.7-0.7l1.8-0.5c0,0,0,0,0,0l0-5.2
					c0,0,0,0,0,0l-1.8-0.5c-0.4-0.1-0.7-0.4-0.8-0.8c-0.1-0.3,0-0.7,0.2-0.9l1.2-1.4c0,0,0,0,0-0.1l-2.8-4.3c0,0,0,0-0.1,0l-1.8,0.6
					c-0.3,0.1-0.5,0.1-0.7,0c-0.4-0.2-0.7-0.6-0.6-1.1l0.3-1.8c0,0,0,0,0,0l-4.7-2.1c0,0,0,0-0.1,0l-1.2,1.4
					c-0.3,0.4-0.8,0.5-1.2,0.3c-0.2-0.1-0.4-0.3-0.5-0.5l-0.7-1.7c0,0,0,0,0,0L68.7,98c0,0,0,0,0,0l-0.2,1.8c0,0.3-0.2,0.6-0.5,0.8
					c-0.3,0.2-0.8,0.2-1.1,0l-1.5-1c0,0,0,0-0.1,0l-3.9,3.4c0,0,0,0,0,0.1l0.8,1.7c0.2,0.3,0.1,0.7-0.1,1c-0.2,0.3-0.5,0.5-0.9,0.5
					l-1.8,0c0,0,0,0,0,0l-1.4,5c0,0,0,0,0,0.1l1.6,1c0.3,0.2,0.5,0.5,0.5,0.9c0,0.4-0.2,0.7-0.5,0.9l-1.6,1c0,0,0,0,0,0.1l1.5,5
					c0,0,0,0,0,0l1.8-0.1c0.2,0,0.3,0,0.5,0.1c0.3,0.1,0.5,0.3,0.6,0.6c0.1,0.3,0.1,0.6,0,0.8l-0.8,1.7c0,0,0,0,0,0.1l3.9,3.4
					c0,0,0,0,0.1,0l1.5-1c0.3-0.2,0.7-0.2,1-0.1c0.3,0.2,0.6,0.5,0.6,0.8l0.2,1.8c0,0,0,0,0,0c0,0,0,0,0,0l5.1,0.7c0,0,0,0,0,0
					l0.7-1.7c0.1-0.3,0.3-0.5,0.6-0.6c0.3-0.1,0.6-0.1,0.8,0c0.1,0.1,0.3,0.2,0.4,0.3l1.2,1.4c0,0,0,0,0.1,0l4.7-2.2c0,0,0,0,0,0
					l-0.3-1.8c-0.1-0.4,0.1-0.7,0.3-1c0.3-0.2,0.6-0.3,1-0.2l1.8,0.5c0,0,0,0,0.1,0L88.2,119.2C88.2,119.2,88.2,119.2,88.2,119.2z
					 M70.5,119.9c-3.8-1.7-5.5-6.1-3.8-9.9c1.7-3.8,6.1-5.5,9.9-3.8c3.8,1.7,5.5,6.1,3.8,9.9C78.7,120,74.3,121.6,70.5,119.9z"/>
			</g>
		</g>
		<g>
			<path class="st4" d="M54.1,125.8c0-0.1-0.2-0.2-0.3,0l-1.7,3.5c0,0,0,0,0,0c-1.3-1.1-2.6-2.1-3.8-3.3c-1.3-1.2-2.4-2.6-3.4-4.1
				c-2-2.8-3.5-6-4.6-9.3c-2.5-7.9-2.3-16.4-0.4-24.4c0.1-0.6-0.7-0.8-0.9-0.2c-2.3,8.2-2.8,16.9-0.5,25.1c1,3.5,2.5,6.8,4.5,9.8
				c2,3,4.5,6,7.5,7.9l-2.7,1.8c-0.1,0.1-0.1,0.3,0.1,0.3l7.9,1.1c0.1,0,0.2-0.1,0.2-0.2L54.1,125.8z"/>
			<path class="st4" d="M144.9,68.2c-1.6-3.2-3.7-6.2-6.2-8.9c-2.5-2.6-5.5-5.1-8.8-6.5l2.3-2.2c0.1-0.1,0-0.3-0.1-0.3l-7.9,0.3
				c-0.1,0-0.2,0.1-0.1,0.2l3.4,7.6c0.1,0.1,0.3,0.1,0.3,0l1-3.7c0,0,0,0,0,0c1.5,0.8,2.9,1.6,4.3,2.5c1.5,1,2.8,2.1,4.1,3.4
				c2.5,2.4,4.5,5.3,6.2,8.3c3.9,7.3,5.2,15.8,4.7,24c0,0.6,0.8,0.7,0.9,0.1C149.7,84.6,148.7,75.8,144.9,68.2z"/>
		</g>
	</g>
</g>
</svg>
