<?xml version="1.0" encoding="utf-8"?>
<!-- Generator: Adobe Illustrator 23.1.1, SVG Export Plug-In . SVG Version: 6.00 Build 0)  -->
<svg version="1.1" id="Layer_1" xmlns:serif="http://www.serif.com/"
	 xmlns="http://www.w3.org/2000/svg" xmlns:xlink="http://www.w3.org/1999/xlink" x="0px" y="0px" width="612px" height="792px"
	 viewBox="0 0 612 792" style="enable-background:new 0 0 612 792;" xml:space="preserve">
<style type="text/css">
	.st0{fill:#7EB746;}
	.st1{fill:#90DC50;}
	.st2{fill:#35ADB8;}
	.st3{fill:#D1D3D4;}
	.st4{fill:#FFC28E;}
	.st5{fill:#FFFFFF;}
	.st6{fill:#3AC0C5;}
	.st7{fill:#F2C4A5;}
	.st8{fill:#1F3547;}
	.st9{fill:#846852;}
	.st10{fill:#684D3A;}
	.st11{fill:#8E725F;}
</style>
<g>
	<g id="_x33__1_">
		<g>
			<path class="st0" d="M545.7,717.2c0.9,33.3-28.8,60.5-73.1,61.3l-347.5,6c-44.3,0.8-75-25.4-75.2-58.7c0-4.4,0.5-9,1.5-13.6
				l44.2-188.5l397.3-6.9l50.7,186.8C544.9,708.3,545.5,712.8,545.7,717.2z"/>
			<path class="st1" d="M545.7,717.2c-13.8,13.1-35.3,21.5-61.6,22l-371.9,6.4c-26.3,0.5-48.1-7.2-62.3-19.8c0-4.4,0.5-9,1.5-13.6
				l44.2-188.5l397.3-6.9l50.7,186.8C544.9,708.3,545.5,712.8,545.7,717.2z"/>
		</g>
		<polygon class="st0" points="80.4,374.1 95.4,530.2 493.4,523.3 502.4,374.1 		"/>
	</g>
	<polygon class="st2" points="184.1,374.1 162.9,478.6 466.9,516.2 435.8,374.1 	"/>
	<g id="_x32_6">
		<path class="st3" d="M379.7,451.3c-4.8-13.6-19.5-22.1-35.1-19.9c-5.5,0.8-24.5,3.4-36.6,5.2c-2.6-1.4-5.6-2.5-7.7-3.9
			c-5.2-3.5-8.8-9.3-13.9-12.6c-17.1-11.1-19.1,9-26.9,19.7c-1.9,2.7-5.8,6-8.3,9.6c-0.2,0.1-0.4,0.1-0.5,0.2
			c38.9,8.9,78.9,14.8,119.9,17.6c-15-16.9-33.1-28.2-56.1-26.1c11.6-2.3,25.2-3.1,25.2-3.1s25.5-3.7,34.4,21.2c1,3,2,5.7,3,8.2
			c3,0.2,6,0.4,8.9,0.4C383.9,462.8,382,457.5,379.7,451.3z"/>
		<g>
			<g>
				<g>
					<g>
						<g>
							<path class="st4" d="M463,143.6c-1.4-3.8-3.5-8-4.3-12c-1-4.9,0.8-9.8,0.2-14.6c-0.7-5.9-0.7-11.3-1.3-16.9
								c-0.3-2.8-0.8-5.6-1.6-8.5c-2.2-7.9-12.4-36.3-17.2-43c-7.8-10.9-3.7-8.6-15.8-21.6c-3-3.2-11.6-9.8-15-2.8
								c-2.4,4.9,10,14.6,14.7,24.1c3.3,6.6,2.4,15.4,0.8,18.3c-2.1-10.8-6.9-16.4-12-26.6C402.8,22.4,382.1-1,377,10.6
								c-2.4,5.5,7.6,13.4,17.3,31.5c6.2,11.5,7,22,9,30c0.4,4.4-5.8-9.6-14.5-23.9c-7.9-13-17.9-25.5-24.1-30.6
								c-2-1.7-5.7-4.1-8-2.9c-4.9,2.5-5,8.6-1.3,13.3c6.2,7.9,13.4,17.5,18.4,26.4c8.7,15.3,12.5,30.6,12.2,31.1
								c-8.6-16.9-27.6-50.1-36.9-47.9c-13.4,3.2,0,10.8,11.6,34.6c8.9,18.4,24.9,42.5,24.9,52.3c-9.8-1-15-20.6-27.4-23
								c-2.8-0.6-10.9,1.7-10.5,5.3c0.3,2.8,4.7,5.8,6.7,8c0.7,0.8,6.3,6.4,6.9,7.2c2,2.9,3.4,6,5.3,9c16,25.1,33.1,24.1,47.5,34.3
								c5.3,3.7,12,4.2,17.7,1.1c6.7-3.7,14-6,20.9-9.4c3.7-1.8,2.6-3.2,6.4-4.9c1.2-0.6,2.5-1.1,3.7-1.7c0.4-0.2,1.7-0.5,1.9-0.8
								c0.3-0.4-0.1-1.1-0.4-1.7C464.3,147.3,463.7,145.6,463,143.6z"/>
						</g>
						<g>
							<path class="st5" d="M413.1,165.8c2,4.4,14.4,21.2,16.4,25.7c16.2-10.2,30.9-25,49-32.6c-1.5-4.7-11.1-15.9-12.7-20.6
								C447.2,146.1,429.7,155.3,413.1,165.8z"/>
						</g>
					</g>
				</g>
				<g>
					<g>
						<g>
							<path class="st4" d="M253,44.6c-9.4-1.5-28,45.7-35.5,48.9c1.8-0.8,5.5-13.5,6.4-15.4c3.3-7.1,12.6-19.6-1.3-21.5
								c-9.3-1.3-10.4,8.2-14,14.2c-0.8,1.3-7.6,10.7-7.2,8.9c1.6-7,9.3-21.4-3.3-22.3c-4.7-0.3-7.5,3.1-9.9,6.6
								c-0.7,1.1-6.1,8.7-6,9.7c-1.2-12.1-8.7-15.6-16.4-5.7c-8.1,10.4-14.8,20.7-18,33.7c-0.7,2.9-1.1,5.7-1.4,8.5
								c-0.5,5.6-0.3,11-0.8,16.9c-0.5,4.9,1.5,9.7,0.6,14.6c-0.7,4-2.7,8.2-4,12.1c-0.7,2-1.2,3.7-1.4,4.4
								c-0.2,0.6-0.6,1.3-0.3,1.7c0.3,0.4,1.6,0.6,2,0.8c1.3,0.5,2.5,1,3.8,1.5c3.8,1.6,2.7,3.1,6.5,4.7c7.8,3.4,15.9,5.7,23.3,9.9
								c6.7,3.8,11.7-0.3,18.1-4.4c13.7-8.8,29.7-9.8,44-33.8c1.8-3,3.1-6.2,5-9.1c0.6-0.9,6-6.6,6.7-7.4c2-2.3,6.3-5.4,6.5-8.2
								c0.3-3.6-7.8-5.7-10.6-5c-12.2,2.8-16.9,22.5-26.7,23.8C218.4,108.4,274.2,48,253,44.6z"/>
						</g>
						<g>
							<path class="st5" d="M135.1,162.8c18.3,7.1,35.8,15.6,52.3,25.3c1.8-4.5,3.6-9,5.5-13.5c-16.9-10-34.7-18.7-53.4-26
								C137.9,153.3,136.5,158.1,135.1,162.8z"/>
						</g>
					</g>
				</g>
				<g>
					<path class="st2" d="M486,154.2l-24.3,0.4l-0.8,0.5l-44.4,29.8L481,351.8c7.2,19.3,6.4,40.6-2,59.4l-5.3,15l-13,36.6l-4.8,13.4
						l-0.5,1.5c-17.2-2.3-35.8-4.3-55.6-5.7c-24-1.7-49.9-2.6-77.2-2.2l-30.5,0.4c-49.9,0.7-94.5,5.5-132.5,11.7l-25.5-65.8
						c-8.9-18.5-10.2-39.8-3.6-59.3c8.7-22,15.8-39.8,21.6-54.4c0.9-2.3,1.8-4.5,2.6-6.6c2.1-5.2,4-10.1,5.8-14.5
						c0.7-1.8,1.4-3.5,2.1-5.2c0.6-1.7,1.3-3.2,1.9-4.8c0.9-2.3,1.8-4.5,2.6-6.6c0.6-1.4,1.1-2.7,1.7-4L194,197l3.6-9l-25.2-16.7
						l-12.1-6.1l-13.4-6.8l-0.1-0.1l-19-9.6L36.7,330.3c-11.3,19.9-14.9,43.3-10.4,65.7c13.2,65.1,11.4,142.1,51.5,198.4
						c46.9,66,140.1,69.8,214.1,73.9c6.3-0.4,30.3-0.8,36.6-0.5c35.5-2.9,75.3-6,112.2-15.9c39.3-10.4,75.1-28.4,98.4-62.2
						c0.1,0,0.1-0.1,0.1-0.1c0.4-0.6,0.8-1.2,1.2-1.8c38.3-57.4,34.4-134.3,45.7-199.7c3.9-22.5-0.4-45.8-12.2-65.4L486,154.2z"/>
					<path class="st6" d="M486,154.2l-24.3,0.4l-0.8,0.5c21.7,46.9,50,94.5,66.7,143.4c5.8,16.8-0.8,34.8-0.4,52.1
						c0.6,22.5-2.2,45.4-10.5,66.5c-7.3,18.6-15.3,50.3-34,60.6c-15.3,8.4-53.5,0-82.8-5.7c-10.3-2-19.5-3.7-26.2-4.3
						c-16.5-1.3-34.3,1.9-51,2.1l-30.5,0.4c-49.9,0.7-94.5,5.5-132.5,11.7l-25.5-65.8c-8.9-18.5-10.2-39.8-3.6-59.3
						c8.7-22,15.8-39.8,21.6-54.4c0.9-2.3,1.8-4.5,2.6-6.6c2.1-5.2,4-10.1,5.8-14.5c0.7-1.8,1.4-3.5,2.1-5.2
						c0.6-1.7,1.3-3.2,1.9-4.8c0.9-2.3,1.8-4.5,2.6-6.6c0.6-1.4,1.1-2.7,1.7-4L194,197l3.6-9l-25.2-16.7l-12.1-6.1
						c-1.2,1.9-2.4,3.9-3.6,6.3c-18.9,36.8-37.9,73.5-56.8,110.2c-16.1,31.3-32.6,55.3-22.6,92.4c17.4,64.1,20.5,141.1,64.1,194.6
						c51,62.9,144.3,60.7,218.4,60.1c6.2-0.9,30.2-2.7,36.5-2.9c35.2-5.2,74.8-10.8,110.9-23c11.1-3.8,21.8-8.1,32-13.2
						c0.1,0,0.1-0.1,0.1-0.1c0.4-0.6,0.8-1.2,1.2-1.8c38.3-57.4,34.4-134.3,45.7-199.7c3.9-22.5-0.4-45.8-12.2-65.4L486,154.2z"/>
				</g>
			</g>
			<g>
				<path class="st7" d="M192.5,594.1c19.9,29.6,30.3-22.7,30.3-22.7l-24.5-28.5C198.3,542.9,189.1,550.2,192.5,594.1z"/>
				<path class="st7" d="M401.1,496.8l-9.7,36.3c0,0,32,42.6,37.1,7.3C412.6,499.3,401.1,496.8,401.1,496.8z"/>
				<path class="st7" d="M405.2,506c-24-42.3-55.9-88.6-112-60.6l-6,2.9c-64.5,1.4-77.9,47.8-80.8,103l5,34.4
					c10.2,70.3,69.5,104,131.6,89.8c0,0,94.7-25.5,72.5-136.3L405.2,506z"/>
				<path class="st7" d="M306.2,429c-5.2-3.5-8.8-9.2-13.9-12.5c-16.9-10.9-18.8,9-26.6,19.7c-4.2,5.8-17.4,14.6-6.2,22.6
					c0.9,0.6,2,1,3.3,1.2c12.1,1.9,27-2.5,38.3-6.8c4.2-1.6,17.5-5.7,18.5-11.6C320.8,433.8,311,432.2,306.2,429z"/>
				<path class="st8" d="M350,427.5c-7.6,1.1-42.1,5.8-46.1,7.2c-5.1,0.1-12.1-1.5-19,0.1c-0.2,0.1-0.4,0.1-0.6,0.2
					c-0.2,0-0.4,0.1-0.6,0.1c-6.9,1.6-12.5,6.1-17.2,8.2c-4.1,0.5-37.3,11.2-44.6,13.5c-14.9,4.7-24.5,18.6-22.9,32.8
					c2,19.5,2.6,31.5,5.1,50.8c2.5-0.3,5-0.6,7.5-1c-2.2-17.5-2.3-27.7-4.1-45.3c-2.7-26.1,21.7-33.7,21.7-33.7s34.2-14.1,40.6-8.7
					c2.1-4.9,8.1-9.5,15.9-11.1c7.7-1.9,15.1-0.4,19.1,3.1c3.5-7.6,40.3-9.7,40.3-9.7s25.2-3.8,34.1,21c6,16.7,10.3,25.9,15.9,42.6
					c2.4-0.8,4.8-1.6,7.2-2.4c-6.1-18.6-10.7-29.6-17.4-48C380.1,433.7,365.5,425.3,350,427.5z"/>
				<g>
					<path class="st9" d="M352,491.9c-15.9,2.6-19.8-15.4-16.1-28.8c-7.3,1.4-14.2,5.5-18.8,11.4c1.4-7.9,2.6-15.7,3.9-23.6
						c-43.2,6.4-58.1,31.5-69.8,50.3c0,0-0.1,0-0.1,0.1c-8.9,14.1-16,24.4-32,20.3c-22-5.7-21.4-6.3-20.9,21.3
						c1,71.3,41.3,122.3,67,134.4c27.5,12.9,68,10.5,100.5-4.1c29.3-13.1,52.2-36,53.2-66.3c1.5-45.5-4.4-103.6-32.9-140.9
						C387.8,468.3,356.4,491.2,352,491.9z"/>
					<path class="st10" d="M276.3,615.4c-23.5-32.4-32.7-74.8-25.1-114c-8.9,14.1-16,24.4-32,20.3c-22-5.7-21.4-6.3-20.9,21.3
						c1,71.3,41.3,122.3,67,134.4c27.5,12.9,68,10.5,100.5-4.1C330.3,665.8,297.6,644.9,276.3,615.4z"/>
				</g>
				<path class="st11" d="M369.9,517.2c-10.9-4.8-23.4-4.4-34.9-7.3c-5.8-1.5-11.8-4.5-16.2-8.6c-4.3-4-7.1-9.1-7-15
					c-22,28.3-26.8,68.3-14.5,101.7c9.7,26.4,42.5,65.1,74.5,49.5c23.7-11.6,28.2-52.5,26.1-75.7
					C396.3,543.3,386.8,524.6,369.9,517.2z"/>
				<path class="st11" d="M330.7,631.5c13,10.3,32.8,11,46.6,1.7c13.7-9.3,20.4-28,15.6-43.9L330.7,631.5z"/>
			</g>
		</g>
	</g>
</g>
</svg>
