<?xml version="1.0" encoding="utf-8"?>
<!-- Generator: Adobe Illustrator 23.1.1, SVG Export Plug-In . SVG Version: 6.00 Build 0)  -->
<svg version="1.1" id="Layer_1" xmlns:serif="http://www.serif.com/"
	 xmlns="http://www.w3.org/2000/svg" xmlns:xlink="http://www.w3.org/1999/xlink" x="0px" y="0px" width="612px" height="792px"
	 viewBox="0 0 612 792" style="enable-background:new 0 0 612 792;" xml:space="preserve">
<style type="text/css">
	.st0{fill:#90DC50;}
	.st1{fill:#7EB746;}
	.st2{fill:#7EBFCE;}
	.st3{fill:#D1D3D4;}
	.st4{fill:#939598;}
	.st5{fill:#EDF1F4;}
	.st6{fill:#F2C4A5;}
	.st7{fill:#E7B088;}
	.st8{fill:#B6E7F2;}
	.st9{fill:#A6DAE8;}
	.st10{fill:#0A0D16;}
	.st11{fill:#2F3033;}
</style>
<g>
	<g id="_x32_">
		<g>
			<path class="st0" d="M110.6,79.2c-0.3-30,27-54.1,67-54.1l313.7,0.3c40,0,67.2,24.2,66.9,54.2c0,4-0.6,8.1-1.6,12.3l-43,169.3
				l-358.6-0.3L112.2,91.4C111.2,87.2,110.6,83.2,110.6,79.2z"/>
			<path class="st1" d="M110.6,79.2c12.6-11.6,32.2-18.8,55.9-18.8l335.7,0.3c23.7,0,43.3,7.3,55.9,18.9c0,4-0.6,8.1-1.6,12.3
				l-43,169.3l-358.6-0.3L112.2,91.4C111.2,87.2,110.6,83.2,110.6,79.2z"/>
		</g>
		<polygon class="st1" points="145.5,370 522.7,370 513.8,255.3 154.6,255 		"/>
	</g>
	<path class="st2" d="M236.1,203.7c4.2,23-38.3,43.1-27.4,77.5c6.1,19.1,17.4,63.1,19.6,88.8h230.1c3.1-14.3,10.1-32.7,10.8-48.3
		c1.3-31.7,6.8-69.8,13.7-84.9c-23.5-38.7-41.9-65.7-65.4-104.4L236.1,203.7z"/>
	<g id="_x32_0">
		<g>
			<path class="st3" d="M18.7,597.7l-0.7-0.2l-1-1.2c0,0,0.8-0.8,1.9-2C18.8,595.5,18.7,596.6,18.7,597.7z"/>
			<g>
				<g>
					<g>
						<path class="st4" d="M64.6,532.6c2.6-0.1,5.4,0.1,8.3,0.4c2.9,0.4,5.6,0.9,8.2,1.6c47.5,12.8,35.4,80.1,12.9,106.1
							c-8.3,9.6-18.6,14.8-28,16.1c-2.9,0.4-5.7,0.4-8.4,0.1c-2.6-0.3-5.4-1-8.1-2.1c-8.8-3.5-17.6-11-23.3-22.4
							C10.8,601.7,15.4,533.4,64.6,532.6z"/>
						<path class="st5" d="M64.6,534.8c2.5,0,5.2,0.1,8,0.4c2.8,0.3,5.4,0.9,7.9,1.5c45.7,12,34.4,74.3,12.9,98.2
							c-7.9,8.8-17.8,13.6-26.8,14.7c-2.8,0.4-5.5,0.4-8.1,0.1c-2.5-0.3-5.2-1-7.8-2c-8.5-3.3-16.9-10.3-22.5-20.8
							C13.2,598.6,17.3,535.4,64.6,534.8z"/>
						<path class="st4" d="M49.9,650.3l14.7-115.5c2.5,0,5.2,0.1,8,0.4c2.8,0.3,5.4,0.9,7.9,1.5L65.3,653.2
							c-2.8,0.4-5.9,1.4-8.4,1.1C54.4,654,52.5,651.4,49.9,650.3z"/>
					</g>
					<g>
						<path class="st6" d="M4.3,591.2l2.8,4.2c1,1.5,2.6,2.5,4.4,2.8l8.8,2.2l-3.3,7.8c-0.5,1.3-0.6,2.7-0.3,4
							c0.1,0.5,0.3,1.1,0.4,1.7c0.4,1.7,1.7,3.1,3.4,3.7l0.1,0c2.3,0.8,5.7,0.1,7.4-1.7l1.5-1.6l6.5-11.5l4.9-8.7
							c0.2-0.2,1.6,0.1,1.5,0.3l-4.8,10.7l-2.4,5.4c0,0-2,5.2-3.5,9c-1,2.6-1.1,5.5-0.1,8.1l0,0.1c0.3,0.9,0.9,1.7,1.7,2.2l0.7,0.4
							c2.2,1.5,5.1,1.6,7.4,0.2l0.1-0.1c2.3-1.4,4.2-3.4,5.2-5.9l0.3-0.6l4.4-10.2c1.1-2,7.1-17.1,10.9-9.5c1.3,2.5,0.4,5.3,0,7.8
							l-8,48.1c-0.2,1.4,0,2.7,0.5,4l0,0c1.4,2.9,4.6,4.2,7.5,3.3l0.7-0.2c0.8-0.2,1.5-0.6,2-1.1c0.2-0.2,0.5-0.4,0.7-0.6
							c0.9-0.9,1.5-2,1.7-3.3l0.9-3.9c0,0,0,0,0-0.1l1.6-7.4l1.9-8.4l7.4-28.1c0.9-3.6,2.2-7,3.6-10.4c0.6-1.3,1.2-2.6,1.8-3.8
							l3.3-6.3l2.6-5.1c0,0,0,0,0,0l1.9-3.6l1.9-3.7l0.4-0.7c0.2-0.3,0.5-0.5,0.8-0.6c0.5-0.1,1.1,0.2,1.2,0.8l2.7,11.4l0,0l1.2,5
							l-3.2,5.1c-0.1,0.2-0.1,0.4-0.2,0.5c-0.9,2.2-1.1,4.6-0.8,7l0.8,5.1c0.5,3,2.3,5.7,5,7.2c0.7,0.4,2,1.4,3.1,1.7
							c0.3,0.1,0.7,0.1,0.9,0c0.1,0,0.1-0.1,0.2-0.1c0.1-0.1,0.3-0.2,0.4-0.3c0,0,0.1-0.1,0.1-0.1c1-1.2,1.8-3.5,2-4.9
							c0.4-2.9,0.5-5.6,1.9-8.2c0,0,0,0,0,0c0.9-1.6,1.9-3.2,2.8-4.8c0.1-0.1,0.2-0.3,0.3-0.4c0.3-0.5,0.5-1,0.8-1.5
							c2.1-4.2,2.9-9,2.5-13.7l-4-43.5c-0.2-1.9-0.5-3.7-1.1-5.5l-6.2-20.3c-1.5-5-1.9-10.3-1-15.4l16-83.1L63,412.4L52.9,499
							c-0.8,8.2-3.1,16.3-8.8,22.3L38,530l-6.5,9.3l-9,13L8.2,577.7L8,578.1l-4,9.3C3.4,588.7,3.5,590.1,4.3,591.2z M27.8,579.3
							l0-0.4c0.7,0.6,0.9,1.7,0.5,2.5l-6.4,14.9c0.7-1.9,0.2-5.4-1.8-5.5l-2.4-0.7l-1-1.2C16.7,589,26.9,578.4,27.8,579.3z"/>
						<path class="st7" d="M74.6,619c0.9-1,1.2-3.1,1.6-4.3c1.1-3.1,2.2-6.2,3.4-9.3c2-5.2,4.2-10.4,6.9-15.2
							c1.5-2.7,5.2-10,8.9-10.2c1.5-0.1,1.8,1.1,2.3,2.4c1.3,3.4,1.8,6.7,1.4,10.1l-2.7-11.4c-0.1-0.6-0.7-0.9-1.2-0.8
							c-0.3,0-0.6,0.2-0.8,0.6l-0.4,0.7l-1.9,3.7c-1.1,0.6-1.3,2.4-1.9,3.6c0,0,0,0,0,0c-0.9,1.7-1.8,3.4-2.6,5.1l-3.3,6.3
							c-0.6,1.3-1.3,2.5-1.8,3.8c-1.5,3.4-2.7,6.8-3.6,10.4l-7.4,28.1l-1.9,8.4l-1.6,7.4C68.3,656.5,73.6,620.1,74.6,619z"/>
					</g>
				</g>
				<g>
					<g>
						<g>
							<path class="st6" d="M462.7,523.7c0.9-6,1.2-11.7,2.1-17.9c0.8-5.2-1.2-10.3,0.6-15.4c9.3-26.5,82.5-66.9,82.9-67.1
								c25.4-14.8-30-57.8-36.8-61.4c-6.1-3.3-83.1,96.4-89.6,101.5c-13.8,10.9-29.2,13.7-44.8,40.7c-2,3.4-3.5,6.9-5.6,10.2
								c-0.6,1-6.2,7.7-7,8.6c-2.1,2.7-6.5,6.5-6.9,9.4c-0.6,3.8,7.1,5.1,9.8,4.1c12-4.3,17.9-25.6,27.5-28.1
								c-1.3,25.5-59.5,95.6-39.4,96.7c8.9,0.5,30.4-51.4,37.9-55.6c-1.8,1-6.3,14.9-7.3,17c-3.7,7.9-13.6,22.2-0.5,22.6
								c8.9,0.3,10.6-9.8,14.5-16.6c0.8-1.4,8.1-12.2,7.6-10.2c-2.1,7.5-10.6,23.7,1.4,23.2c4.5-0.2,7.5-4.1,10-8.1
								c0.8-1.2,6.5-9.9,6.5-10.9c0.2,12.6,7.1,15.5,15.3,4.2c8.6-11.9,15.8-23.6,19.9-37.7C461.6,529.7,462.2,526.7,462.7,523.7z"
								/>
						</g>
					</g>
					<path class="st6" d="M367.5,523.7c0.6-1.4,5.1-8.3,3.9-9.4c-0.6,1-6.2,7.7-7,8.6c-2.1,2.7-6.5,6.5-6.9,9.4
						C359.4,531.5,365.4,528.4,367.5,523.7z"/>
				</g>
				<g>
					<g>
						<path class="st8" d="M334.2,267.8c-63.1,5-106.7-37.2-114.5-94.6l-46.8-3l20,69c22,92.3,73.7,74.4,116.7,77.6
							c79.7,5.8,162.1,34.4,150.8-93.7l5.9-34.1l-43.7-2.8C412.8,231.9,389.5,261.6,334.2,267.8z"/>
						<path class="st8" d="M480.3,140.3c39.5,44,100.7,114.3,124.8,176.4c5.5,14.2,3.2,28.9-0.6,43.4c-4.3,16.4-13.7,31-26.8,41.8
							L518,451.2l-24-22.3l-34.8-32.1l19.9-17.8c12.4-17.7,37.3-32.3,29-49.7c-0.2-0.5-0.4-1-0.7-1.5l-49.9-63.6l-7.3-9.3
							c-30,7-67.8-18.5-108.3-16l-24.7,1.5c-40.5,2.5-76.7,0.9-107.4-2.4l-0.4,1.4l7.2,24.3c0,0-4,2.8-10.1,7.4
							c-15.9,12.2-45.8,37.4-52.2,57.9l-22.7,121.7l-40-11.7l-43.3-12.7c0,0,11.9-116.3,20.7-139c25.5-64.9,43.3-79.1,85.2-124.6
							c23.1-25.1,63.8-54.4,93.1-63.6c26.7-8.5,33.8-16,59.2-19.3c4.6,0,21.8-1.1,26.3-1.6C386.3,78.7,437.3,92.4,480.3,140.3z"/>
						<path class="st9" d="M333.5,275.5c55.3-6.1,71.8-46.3,81.7-92.3l-195.4-10.1C227.5,230.6,270.4,280.6,333.5,275.5z"/>
					</g>
				</g>
				<g>
					<g>
						<g>
							<path class="st6" d="M226.7,134.9c-3.8-103.8,82.6-112.6,82.6-112.6c56.3-3.5,103.5,35.9,102.5,101.2l-0.5,31.9
								c-3.5,16.8-9.2,31.9-16.9,44.4c-0.3,0.4-0.6,0.8-0.8,1.2c-15.2,23.6-38.1,37.6-67.4,35.7l-5.7,1.7
								c-26,3.5-45.1-4.7-59.4-19.2c-0.1,0-0.1,0-0.1,0c-1.9-1.9-3.7-4-5.4-6.1c-10.5-12.8-18.2-29.2-24.4-46.4L226.7,134.9z"/>
							<path class="st6" d="M342.2,220.9c0.8,2.1,0.6,5-0.1,7.4c-1.1,3.8-3.4,7.1-5.5,10.4c-3.6,5.5-6.1,14.8-13.3,16.7
								c-8.1,2.1-11.2-3-16.1-8.2c-4-4.3-19.1-19.8-10-24.8c7.1-3.9,18.4,3.5,26.5,1.6c4.7-1.1,9.2-5.9,13.9-6.2
								C340.1,217.6,341.5,218.9,342.2,220.9z"/>
							<path class="st10" d="M230.5,216.9c0.2,12.2,10.7,21.8,25.2,22.1c7.2,0.1,39.9,0.9,43.8,0.3c4.8,0.7,11,3.2,17.7,2.8
								c0.2,0,0.4-0.1,0.6-0.1c0.2,0,0.4,0,0.6,0c6.7-0.5,12.6-3.7,17.3-5c4,0.2,36.3-4.7,43.4-5.7c14.4-2,23.6-12.9,22.3-25
								c-1.6-15.7-2-24.7-4-38.9c-2.1,0-4.2-0.1-6.4-0.1c1.5,12.7,1.3,20.3,2.6,34.2c2,22.3-21.3,25.4-21.3,25.4s-33.3,7.6-38.6,1.9
								c-2.5,4-8.7,7.4-16.2,7.7c-7.5,0.6-14.1-1.9-17.1-5.6c-4.6,6.3-38.6,2.8-38.6,2.8s-23.5-0.3-24.3-22.6
								c-0.5-14-1.5-21.5-1.6-34.3c-2.1,0.3-4.2,0.6-6.3,0.9C229.4,192.1,230.2,201.1,230.5,216.9z"/>
							<g>
								<path class="st10" d="M420.7,145.7c-1.3,13.7-6.3,26.4-8.7,39.9c-1.1,5.7-2.1,11.2-3.8,16.8c-2,6.4-9.5,18.1-8.8,24.5
									c-1.2-11.2-6.3-21.8-14-30c-0.3-0.3-1.1-1-2.4-2c-5.6-4.3-18.7-13.7-19.6-12.2c-5.3,9.6-13.8,16-23.7,20.7
									c-10.5,5.1-22.7,8-34.2,10.3c-1.5,0.3-3.2,0.6-4.9,1c-23.1,4.9-56.7,13.5-54,41.7c-3.1-8.8-6.1-17.7-9.2-26.6
									c-1.1-3.1-10.3-23-8.7-25.1c-2.5,3.4-5,6.7-7.5,10.1c-9.8-28.1-14.5-57.9-13.9-87.5c0.6-26,2-54.5,17.6-76.3
									c5.5-7.7,11.9-14.4,19-19.8c0.4-0.4,0.9-0.7,1.3-1.1c0.5-0.4,1-0.7,1.5-1.1c1.2-0.9,2.5-1.8,3.8-2.6c1.3-0.9,2.6-1.7,4-2.4
									c1.2-0.7,2.4-1.3,3.6-1.9c12.3-6.4,26-9.8,40.4-10.2c5.1-0.2,10.2,0,15.4,0.6c4.8,0.5,16.8,6.7,25.9,9.6
									c3.8,1.2,7.1,1.9,9.1,1.3c3.7-1.3,7.8-1.9,12.1-1.7c14.4,0.9,31.1,11.4,43.9,38.3C417.1,86.1,423.2,117.1,420.7,145.7z"/>
							</g>
							<path class="st11" d="M381.3,216.2c0.1-0.1,0.2-0.2,0.2-0.3c-14.7,1.2-36.7,5.3-50.9,10.1c12.1,3.9,40.8-5.7,50.3-9.1
								C381,216.6,381.2,216.4,381.3,216.2z"/>
							<path class="st11" d="M268.6,226.2c11.5,1.4,33.4,2.5,39.1-0.9c-11-3.5-27.2-2.7-40.9-1.1
								C267.3,224.8,267.9,225.5,268.6,226.2z"/>
						</g>
						<path class="st11" d="M350.7,191.6c-24.1,26.8-87.2,27.7-89.8,70.2c0.7-11.5-1.8-20.6,5.4-30.4c24.6-33.4,52.3-15.2,68-69.8
							c8.7-30,0.4-76.3-26.4-95.1c-18.9-13.3-44.9-15.9-66-6.5c15.8-13.9,37.4-21.2,58.4-19.7c-25.4-5.6-52.6-1.5-75.3,10.8
							c16.8-9.2,6.3-28.5,73.6-39c27.4-4.3,51.8,11.6,54.5,40.6c-9.1-1.2-18.2-2.3-27.3-3.5c26.2,14.2,43.9,42.8,44.9,72.6
							c-5.5-6.3-14-10-22.4-9.8C366.6,132.7,369.9,170.3,350.7,191.6z"/>
					</g>
					<path class="st11" d="M420.7,145.7c-1.3,13.7-6.3,26.4-8.7,39.9c-1.1,5.7-2.1,11.2-3.8,16.8c-2,6.4-9.5,18.1-8.8,24.5
						c-1.2-11.2-6.3-21.8-14-30c-0.3-0.3-1.1-1-2.4-2c6.8-20.9,11.7-42.3,13.1-64.2c2.5-39.2-8-80.9-35.1-108.8
						c14.4,0.9,31.1,11.4,43.9,38.3C417.1,86.1,423.2,117.1,420.7,145.7z"/>
				</g>
			</g>
		</g>
		<path class="st9" d="M206.5,271.1c-15.9,12.2-45.8,37.4-52.2,57.9l-22.7,121.7l-40-11.7c3.7-39.7,14.3-126.7,31-154.3
			c21.3-35.4,60.6-57.5,79.6-63.6C215.8,216.8,203.4,236.6,206.5,271.1z"/>
		<path class="st9" d="M452.5,214.6c69.9,52.8,94.6,83.2,99.4,116.8c3.3,23.5-34.7,71.1-57.9,97.6l-34.8-32.1l19.9-17.8
			c12.4-17.7,37.3-32.3,29-49.7c-0.2-0.5-0.4-1-0.7-1.5l-49.9-63.6C457.6,247.9,456.4,230.7,452.5,214.6z"/>
	</g>
</g>
</svg>
