<?xml version="1.0" encoding="utf-8"?>
<!-- Generator: Adobe Illustrator 23.1.1, SVG Export Plug-In . SVG Version: 6.00 Build 0)  -->
<svg version="1.1" id="Layer_1" xmlns:serif="http://www.serif.com/"
	 xmlns="http://www.w3.org/2000/svg" xmlns:xlink="http://www.w3.org/1999/xlink" x="0px" y="0px" width="612px" height="792px"
	 viewBox="0 0 612 792" style="enable-background:new 0 0 612 792;" xml:space="preserve">
<style type="text/css">
	.st0{fill:#7EB746;}
	.st1{fill:#90DC50;}
	.st2{fill:#0A0D16;}
	.st3{fill:#DBA881;}
	.st4{fill:#E7B088;}
	.st5{fill:#FFFFFF;}
	.st6{fill:#2F3033;}
	.st7{fill:#3F4044;}
	.st8{fill:#F2C4A5;}
	.st9{fill:#58595B;}
	.st10{fill:#414042;}
	.st11{fill:#6D6E71;}
</style>
<g>
	<g id="_x35_">
		<g>
			<path class="st0" d="M568.8,721.6c0.6,32.4-28.6,58.6-71.8,58.9L158.7,783c-43.1,0.3-72.7-25.5-72.6-57.8c0-4.3,0.5-8.7,1.6-13.2
				l44.9-183l386.8-2.8L567,708.4C568.1,712.9,568.7,717.3,568.8,721.6z"/>
			<path class="st1" d="M568.8,721.6c-13.5,12.6-34.6,20.6-60.2,20.8L146.6,745c-25.6,0.2-46.8-7.5-60.5-19.9
				c0-4.3,0.5-8.7,1.6-13.2l44.9-183l386.8-2.8L567,708.4C568.1,712.9,568.7,717.3,568.8,721.6z"/>
		</g>
		<polygon class="st0" points="117.4,360.7 132.3,535.2 519.8,532.3 531.9,360.7 		"/>
	</g>
	<polygon class="st2" points="149.6,360.7 147,500.7 474.9,495.4 456.4,360.7 	"/>
	<g id="_x31_9">
		<g>
			<g id="_x31_3_5_">
				<path class="st3" d="M217,74.7l15.3,14.7l24.1-3c1.6-0.2,3,0.8,3.4,2.4c0.5,2.1,0.6,5.2-1.5,7.6c-3.8,4.3-22.1,6.1-22.1,6.1
					l-8.2,1.2c0,0-12.4,27.8-13.2,28.6c-0.8,0.8-23.2-4.9-23.2-4.9l3.1-38.1L217,74.7z"/>
				<path class="st3" d="M253.5,78.3c0,0,6.2,4-1.2,10.2c-7.4,6.3-38.8,5.8-38.8,5.8s-2.7-14.1-2.4-14.9
					C211.2,78.6,253.5,78.3,253.5,78.3z"/>
				<path class="st4" d="M187.5,157.1l-9.8-16.4c-6.5-10.9-7.6-24.2-2.9-36l9.3-23.2l6.7-7.7l26.9-10.7l0.1-0.1l2.8-1.3l9.9-4.5
					c1.6-0.7,3.4-0.2,4.4,1c0.1,0.1,0.1,0.1,0.1,0.2c0.3,0.4,0.5,0.8,0.6,1.2c0,0,0,0.1,0,0.1c0.2,0.8,0.4,1.8,0.5,2.9
					c0.1,1-0.1,1.9-0.7,2.7c-5,7-23.8,15.9-32.6,19.5c-2.8,1.2-4.8,5.3-5.1,8.3c-0.7,8.1,0.7,23.6,2.9,28.7c2.1,4.8,6.4,3.6,9.6,1.3
					c0,0,0,0,0.1,0c0.2-0.1,0.3-0.2,0.5-0.4c0.2-0.1,0.3-0.3,0.5-0.4c0,0,0,0,0,0c0.2-0.1,0.3-0.3,0.4-0.4c0.2-0.2,0.3-0.3,0.5-0.5
					c0.1-0.1,0.3-0.3,0.4-0.4c0.1-0.1,0.2-0.3,0.3-0.4c0-0.1,0.1-0.1,0.1-0.1c0.1-0.1,0.2-0.2,0.3-0.4c0.1-0.1,0.2-0.3,0.3-0.4
					c2.3-3.6,11.6-32.1,13-35.8c1.3-3.7,5.7-4.9,10.6-1.7c3.1,2,2.4,5,1.6,7.9c-1.1,4.3-2.2,8.6-2.9,13c-1.4,9.1-1.9,18.2-3,27.3
					c0,0,0.5,7.5,6,23.1c0.6,1.6,1,3.1,1.4,4.6c0.1,0.3,0.1,0.6,0.2,0.9c0.2,1.2,0.3,2.4,0.4,3.6c0.1,1.5,0,2.9-0.1,4.3
					c0,0.4-0.1,0.9-0.2,1.3c0,0.3-0.1,0.6-0.1,0.9c-0.1,0.4-0.1,0.7-0.2,1.1c0,0.2-0.1,0.4-0.1,0.7c-0.1,0.4-0.2,0.9-0.3,1.3
					c-0.1,0.2-0.1,0.4-0.2,0.6c-0.1,0.4-0.2,0.8-0.4,1.2c-0.1,0.2-0.1,0.4-0.2,0.6c-0.1,0.2-0.1,0.4-0.2,0.6
					c-0.1,0.2-0.1,0.4-0.2,0.6c-3.3,8.7-9.2,14.3-9.2,14.3s-40.6,57.7-41.6,57l-38-24.4l39-49.7
					C192.2,168.9,189.9,161.6,187.5,157.1z"/>
				<g>
					<path class="st4" d="M210.4,123.1c0.2-0.1,0.3-0.2,0.5-0.4c0.2-0.1,0.3-0.3,0.5-0.5c0.2-0.1,0.3-0.3,0.4-0.4
						c0.2-0.2,0.3-0.3,0.5-0.5c0.1-0.1,0.3-0.3,0.4-0.4c0.1-0.1,0.2-0.3,0.4-0.5c0.1-0.1,0.2-0.2,0.3-0.4c0.1-0.1,0.2-0.3,0.3-0.4
						c2.3-3.6,11.6-32.1,13-35.8c1.8-4.9,9.8-4.4,12.3-0.3c2.6,4.3-0.9,14.2-1.6,18.8c-1.4,9.1-3.2,19-4.3,28c0,0,0.5,7.5,6,23.1
						c0.6,1.6,1,3.1,1.4,4.6c0.1,0.3,0.1,0.6,0.2,0.9c0.2,1.2,0.3,2.4,0.4,3.6c0.1,1.5,0,2.9-0.1,4.3c0,0.4-0.1,0.9-0.2,1.3
						c0,0.3-0.1,0.6-0.1,0.9c-0.1,0.4-0.1,0.7-0.2,1.1c0,0.2-0.1,0.4-0.1,0.7c-0.1,0.4-0.2,0.9-0.3,1.3c-0.1,0.2-0.1,0.4-0.2,0.6
						c-0.1,0.4-0.2,0.8-0.4,1.2c-0.1,0.2-0.1,0.4-0.2,0.6c-0.1,0.2-0.1,0.4-0.2,0.6c-0.1,0.2-0.1,0.4-0.2,0.6
						c-0.9-0.6-1.8-1.3-2.7-2C219.9,161.3,209,143.8,210.4,123.1z"/>
				</g>
			</g>
			<g>
				<path class="st4" d="M333.4,76.9c8.9-2.6,32.7,40.7,40.3,42.8c-1.8-0.5-6.9-12.3-8.1-14.1c-4.1-6.4-14.6-17.4-1.4-20.9
					c8.9-2.4,11,6.6,15.3,12c0.9,1.1,8.7,9.4,8,7.7C385.2,98,375.9,85,388,82.5c4.5-0.9,7.7,2.1,10.4,5.2c0.8,1,7,7.6,7,8.6
					c-0.4-11.8,6.4-16.1,15.1-7.5c9.1,9,16.9,18.2,21.6,30.3c1.1,2.7,1.8,5.4,2.4,8c1.2,5.3,1.7,10.6,2.9,16.2
					c1,4.6-0.2,9.6,1.2,14.2c1.2,3.8,3.6,7.6,5.3,11.2c0.9,1.9,1.6,3.4,1.9,4c0.3,0.6,0.7,1.1,0.5,1.6c-0.2,0.4-1.4,0.8-1.8,1
					c-1.2,0.7-2.3,1.3-3.5,2c-3.5,2-2.3,3.3-5.7,5.4c-7.1,4.3-14.6,7.5-21.2,12.4c-6,4.5-11.3,1.1-18.1-2
					c-14.3-6.8-29.8-5.8-46.7-27.2c-2.1-2.7-3.8-5.6-6-8.2c-0.6-0.8-6.6-5.7-7.3-6.4c-2.2-2-6.7-4.5-7.3-7.1
					c-0.7-3.5,6.9-6.4,9.6-6.2c12.2,1.2,19.1,19.6,28.7,19.7C374.7,134.2,313.4,82.8,333.4,76.9z"/>
			</g>
			<polygon class="st5" points="173.8,175.6 180.4,161.3 232.5,193.8 221.9,208.5 			"/>
			<g>
				<g>
					<polygon class="st5" points="455.7,159.6 401.8,198.1 418.9,219.7 472.7,185.8 					"/>
				</g>
			</g>
			<g>
				<path class="st6" d="M476,162.2l2.6,3.1l0,0l80.1,97.1l29.3,48.8c9.3,15.5,14.1,33,14.3,50.9c0,2.9-0.1,5.8-0.3,8.7l0,0.1
					c-0.1,1.5-0.3,3-0.5,4.6c-0.1,1.5-0.4,3.1-0.7,4.6c-12,68.8-7.9,149.8-48.2,210.2c-24.6,36.8-62.9,56.3-105,67.4
					c-38.8,10.4-80.8,13.6-118.1,16.7c-6.6-0.3-31.9,0-38.4,0.5c-77.9-4.4-176.1-8.5-225.4-77.9c-42.1-59.2-40.2-140.3-54-208.7
					c-4.8-23.7-0.9-48.1,10.9-69.2l1.8-2.1c25.7-29.9,51.4-59.7,77.2-89.6c0.1-0.1,0.2-0.3,0.3-0.4l45.1-52.4c0,0,0.1-0.1,0.2-0.2
					l9.1-10.6l5,2.9l32,18.6l41.6,24.1l-97.9,118.5L121.2,347c-1.6,4.8-2.8,9.6-3.4,14.6c-0.1,0.8-0.2,1.6-0.4,2.5
					c-0.1,0.9-0.2,1.8-0.3,2.7c-0.2,1.9-0.3,3.8-0.2,5.6c0,1.6,0,3.2,0.1,4.8c0.5,11,3.2,22,8.1,32.2l26.7,69.2
					c40.1-6.6,86.9-11.6,139.5-12.3l32.1-0.4c52.5-0.7,99.6,3,139.7,8.5l0.5-1.6l5.1-14.1l19.2-54.3c0.6-1.5,1.3-3,1.8-4.5
					c7-18.6,7.2-39.2,0.2-58l-0.4-0.6l-81-125.5l43.5-34.7l22-17.5L476,162.2z"/>
				<path class="st7" d="M478.6,165.4L478.6,165.4c10.2,6.3,19.6,23.7,27.1,32.8c17,20.7,39.2,41.3,53,64.3l29.3,48.8
					c9.3,15.5,14.1,33,14.3,50.9c-5.4,49.8-12.2,100.5-39.7,141.6c-24.7,36.8-63,56.2-105,67.4c-38.8,10.4-80.8,13.7-118.1,16.7
					c-6.7-0.3-31.9,0.1-38.4,0.5c-77.9-4.4-176.1-8.5-225.4-77.9c-39-54.9-40.2-128.5-51.3-193.5c25.7-29.9,51.4-59.7,77.2-89.6
					c0.1-0.1,0.2-0.3,0.3-0.4c14.9-17.3,29.1-36,45.1-52.4c0,0,0.1-0.1,0.2-0.2c4-4,8.8-6.5,14.1-7.7l32,18.6l41.6,24.1l-97.9,118.5
					L121.2,347c-1.6,4.8-2.8,9.6-3.4,14.6c-0.1,0.8-0.2,1.6-0.4,2.5c-0.1,0.9-0.2,1.8-0.3,2.7c-0.2,1.9-0.3,3.8-0.2,5.6
					c0,1.6,0,3.2,0.1,4.8c0.7,11.1,4,21.4,8.1,32.2l26.7,69.2c40.1-6.6,86.9-11.6,139.5-12.3l32.1-0.4c52.5-0.7,99.6,3,139.7,8.5
					l0.5-1.6l5.1-14.1l19.2-54.3c0.6-1.5,1.3-3,1.8-4.5c7-18.6,7.2-39.2,0.2-58l-0.4-0.6l-81-125.5l43.5-34.7l22-17.5
					c0.4,0.1,0.9,0.2,1.3,0.4C476.6,164.3,477.7,164.8,478.6,165.4z"/>
			</g>
			<g>
				<g>
					<path class="st8" d="M204.3,542.4c0,0-11.7,5-20.4,51.5c12.4,36.3,37.8-15.1,37.8-15.1L204.3,542.4z"/>
					<path class="st8" d="M425.1,531.1c0,0,11.9,4.5,22.4,50.7c-11,36.8-38.4-13.6-38.4-13.6L425.1,531.1z"/>
					<path class="st8" d="M327.7,699.4c-68.5,0.9-123.4-47.8-118.4-124.1l2.5-37.3c15.4-57.4,53.4-96.2,108.1-90.2l7-1.7
						c61.4-5,82.2,38,98,87.9l9.7,38.2C433.1,693.9,327.7,699.4,327.7,699.4z"/>
					<path class="st8" d="M299.6,465.3c-0.8-2.5-0.4-5.8,0.6-8.7c1.5-4.4,4.5-8.1,7.3-11.9c4.7-6.3,8.2-16.9,17.1-18.7
						c9.9-2,13.4,4.1,19,10.5c4.6,5.2,22,24.3,10.7,29.6c-8.8,4.1-22.1-5.1-32.1-3.3c-5.7,1-11.5,6.4-17.2,6.5
						C302,469.3,300.3,467.6,299.6,465.3z"/>
					<g>
						<path class="st9" d="M435.7,569.9c0,1.5,0.1,3,0.1,4.5c0.6,43.7-7.1,81.4-30.1,106.5c-17.1,18.7-42.8,30.5-79.9,32.3
							c-1.8,0.1-3.7,0.1-5.6,0.2l-0.6,0c-3.6,0-7,0-10.3-0.1c-26.1-0.9-47-6.8-63.4-17.1c-18.7-11.7-31.4-29.2-38.9-51.4
							c-4.1-12.2-6.7-25.7-7.8-40.7c-0.2-2.1-0.2-4.2-0.4-6.2c-0.1-2.7-0.2-5.4-0.3-7.9c-0.1-8.4,0.2-18.5,1.5-29
							c0.1-0.2,0.1-0.5,0.1-0.8c0.3-1.7,0.5-3.5,0.8-5.3c0-0.2,0-0.3,0.1-0.5c3.3-21.7,10.7-43.9,25.9-55.5c6.9-5.2,12-3.4,19.3-5.5
							c2.6-0.7,5-1.8,7.2-3.3c5.3-3.5,9.8-8.7,15.6-14.2c11-10.3,26.8-21.3,61.6-22.9C387.7,450.4,432.8,504.2,435.7,569.9z"/>
					</g>
				</g>
				<path class="st10" d="M405.7,680.8c-17.1,18.7-42.8,30.5-79.9,32.3c-1.8,0.1-3.7,0.1-5.6,0.2l-0.6,0c-3.6,0-7,0-10.3-0.1
					c-26.1-0.9-47-6.8-63.4-17.1c-18.7-11.7-31.4-29.2-38.9-51.4c-4.1-12.2-6.7-25.7-7.8-40.7c-0.2-2.1-0.2-4.2-0.4-6.2
					c-0.1-2.7-0.2-5.4-0.3-7.9c-0.1-8.4,0.2-18.5,1.5-29c2.8,29.1,17.2,56.9,38.2,77.4c24.3,23.7,56.8,38,90.3,43.3
					C354.2,685.8,380.2,685,405.7,680.8z"/>
				<path class="st11" d="M435.7,569.9c-10.6-18.5-22.5-36-37.1-51.4C374,492.5,341,473,305.4,471.3c-12.3-0.6-24.6,1.1-36.3,4.6
					c11-10.3,26.8-21.3,61.6-22.9C387.7,450.4,432.8,504.2,435.7,569.9z"/>
			</g>
		</g>
	</g>
</g>
</svg>
