<?xml version="1.0" encoding="utf-8"?>
<!-- Generator: Adobe Illustrator 23.1.1, SVG Export Plug-In . SVG Version: 6.00 Build 0)  -->
<svg version="1.1" id="Layer_1" xmlns:serif="http://www.serif.com/"
	 xmlns="http://www.w3.org/2000/svg" xmlns:xlink="http://www.w3.org/1999/xlink" x="0px" y="0px" width="612px" height="792px"
	 viewBox="0 0 612 792" style="enable-background:new 0 0 612 792;" xml:space="preserve">
<style type="text/css">
	.st0{fill:#7EB746;}
	.st1{fill:#90DC50;}
	.st2{fill:#0A0D16;}
	.st3{fill:#FFC28E;}
	.st4{fill:#FFFFFF;}
	.st5{fill:#F2C4A5;}
	.st6{fill:#3F4044;}
	.st7{fill:#2F3033;}
	.st8{fill:#D39D46;}
	.st9{fill:#E5A54A;}
</style>
<g>
	<g id="_x33__4_">
		<g>
			<path class="st0" d="M65.1,67.2C65,33.4,95.8,6.5,140.8,6.7l352.9,2c45,0.3,75.5,27.5,75,61.3c-0.1,4.5-0.7,9.1-1.9,13.8
				l-49.3,190.3L114,271.9L66.9,81C65.7,76.3,65.2,71.7,65.1,67.2z"/>
			<path class="st1" d="M65.1,67.2c14.3-13,36.4-21,63-20.9l377.7,2.1c26.7,0.1,48.7,8.5,62.8,21.6c-0.1,4.5-0.7,9.1-1.9,13.8
				l-49.3,190.3L114,271.9L66.9,81C65.7,76.3,65.2,71.7,65.1,67.2z"/>
		</g>
		<polygon class="st0" points="526.9,391.4 517.9,267.6 113.7,265.3 103.1,391.4 		"/>
	</g>
	<polygon class="st2" points="448.2,391.4 464.5,311.2 155.8,273.1 181.7,391.4 	"/>
	<g id="_x32_7">
		<g>
			<g>
				<g>
					<g>
						<g>
							<path class="st3" d="M126.1,640.1c1,4,2.8,8.4,3.3,12.5c0.6,5-1.7,9.8-1.5,14.8c0.1,6-0.4,11.5-0.2,17.2
								c0.1,2.8,0.3,5.7,0.8,8.7c1.5,8.2,9.2,37.8,13.5,45c6.9,11.7,3,9,14,23.3c2.7,3.5,10.8,10.9,14.9,4.2
								c2.9-4.7-8.8-15.7-12.7-25.7c-2.7-7-1-15.8,0.8-18.6c1.2,11.1,5.5,17.2,9.7,28c7.2,18.6,25.9,44.3,32.2,33
								c2.9-5.3-6.5-14.3-14.6-33.4c-5.2-12.2-5-22.9-6.4-31.1c0-4.5,5,10.2,12.5,25.5c6.8,13.9,15.8,27.4,21.6,33.2
								c1.9,1.9,5.4,4.6,7.8,3.6c5.2-2.1,5.9-8.2,2.6-13.3c-5.5-8.6-12-18.9-16.2-28.4c-7.3-16.3-9.8-32-9.5-32.5
								c7.1,17.9,23.3,53.2,32.9,51.8c13.8-2,0.9-10.9-8.5-36.1c-7.3-19.4-21.2-45.2-20.3-55.2c9.9,2,13.3,22.2,25.6,25.8
								c2.8,0.8,11.2-0.7,11.1-4.4c-0.1-2.8-4.2-6.3-6.1-8.7c-0.7-0.9-5.8-7-6.3-8c-1.8-3.1-2.9-6.4-4.5-9.6
								c-13.8-26.8-31.2-27.4-44.9-39c-5-4.2-11.8-5.3-17.8-2.7c-7.1,3.1-14.7,4.8-22,7.5c-3.9,1.4-2.9,3-6.9,4.4
								c-1.3,0.5-2.6,0.9-3.9,1.3c-0.4,0.1-1.7,0.3-2,0.7c-0.3,0.4,0.1,1.1,0.2,1.7C125.2,636.3,125.6,638,126.1,640.1z"/>
						</g>
						<g>
							<path class="st4" d="M178.6,622.3c-1.6-4.7-12.7-22.7-14.2-27.4c-17.3,8.8-33.5,22.5-52.5,28.5c1.1,4.9,9.7,17.1,10.9,22
								C142.3,639.1,160.9,631.3,178.6,622.3z"/>
						</g>
					</g>
					<path class="st5" d="M239.3,687.9c-0.1-2.8-4.2-6.3-6.1-8.7c-0.7-0.9-5.8-7-6.3-8c-1.4,1.1,2.4,7.5,2.9,8.9
						C231.4,684.4,237.4,687.2,239.3,687.9z"/>
				</g>
				<g>
					<g>
						<g>
							<path class="st3" d="M329.4,759.4c9.4,2.4,32.5-43.7,40.4-46.2c-1.9,0.6-6.8,13.1-7.9,15c-4,6.9-14.5,18.7-0.7,21.9
								c9.3,2.1,11.3-7.3,15.4-13.1c0.9-1.2,8.7-10.1,8.1-8.4c-2.2,6.9-11.4,20.8,1.3,22.9c4.7,0.8,7.9-2.5,10.6-5.8
								c0.8-1,7-8.2,7-9.2c0.1,12.3,7.3,16.5,16.1,7.3c9.2-9.8,16.9-19.6,21.3-32.5c1-2.9,1.7-5.7,2.2-8.5c1-5.6,1.3-11.1,2.4-17
								c0.9-4.9-0.6-10,0.7-14.8c1.1-4,3.5-8.1,5.1-11.9c0.9-2,1.6-3.6,1.8-4.3c0.3-0.6,0.7-1.2,0.5-1.7c-0.2-0.4-1.5-0.8-1.9-1
								c-1.2-0.6-2.5-1.3-3.7-1.9c-3.7-2-2.5-3.4-6.1-5.4c-7.6-4.2-15.6-7.2-22.6-12.1c-6.4-4.5-11.9-0.7-18.7,2.8
								c-14.6,7.7-30.9,7.2-47.6,30.2c-2.1,2.9-3.7,6-5.9,8.8c-0.6,0.8-6.6,6.1-7.4,6.9c-2.2,2.2-6.9,4.9-7.3,7.7
								c-0.6,3.6,7.4,6.4,10.3,6c12.6-1.7,19.1-21.2,29.2-21.6C370.2,698.1,308.2,754.1,329.4,759.4z"/>
						</g>
						<g>
							<path class="st4" d="M459.5,650.7c-17.9-8.8-34.7-19-50.5-30.4c-2.2,4.4-4.5,8.8-6.8,13.2c16.1,11.6,33.4,22.1,51.6,31.2
								C455.7,660,457.6,655.4,459.5,650.7z"/>
						</g>
					</g>
					<path class="st5" d="M342.8,682.8c0.7-1.2,5.4-7.1,4.2-8.3c-0.6,0.8-6.6,6.1-7.4,6.9c-2.2,2.2-6.9,4.9-7.3,7.7
						C334.2,688.8,340.6,687,342.8,682.8z"/>
				</g>
				<g>
					<path class="st6" d="M103.9,627.4l24.6,1.8l0.9-0.5l47.7-26.1l-50-174.7c-5.5-20.2-2.7-41.7,7.5-59.9l6.7-14.7l16.5-35.8
						l6.1-13.2l0.7-1.5c17.2,3.9,35.8,7.7,55.7,10.9c24.2,3.9,50.2,7.2,77.9,9.3l30.9,2.4c50.5,3.8,96.1,3.1,135.1,0.3l19.8,68.9
						c7.3,19.5,6.6,41.2-1.8,60.3c-10.8,21.4-19.6,38.8-26.8,53.1c-1.1,2.2-2.2,4.4-3.3,6.4c-2.6,5.1-5,9.9-7.2,14.2
						c-0.9,1.7-1.7,3.4-2.6,5c-0.8,1.6-1.6,3.1-2.3,4.6c-1.1,2.3-2.3,4.4-3.3,6.4c-0.7,1.3-1.3,2.6-2,3.9L403,610.8l-4.5,8.8
						l24,19.2l11.7,7.3l12.9,8.1l0.1,0.1l18.3,11.4l108.8-175.3c13.2-19.1,19.1-42.4,16.5-65.5c-7.4-67,1.4-144.7-33.9-205.3
						c-41.3-71-135.3-83.4-209.8-94.3c-6.4-0.1-30.7-2-37.1-2.8c-36.1-0.3-76.8-0.8-114.9,5.8c-40.6,6.9-78.5,21.9-105.3,53.9
						c-0.1,0-0.1,0.1-0.1,0c-0.5,0.6-0.9,1.1-1.4,1.7c-44,54.5-47.1,132.7-64.5,197.8c-6,22.4-3.8,46.3,6.4,67.2L103.9,627.4z"/>
					<path class="st7" d="M103.9,627.4l24.6,1.8l0.9-0.5C111.7,579.3,87.5,528.5,75,477.6c-4.3-17.6,4-35.1,5.2-52.7
						c1.5-22.8,6.4-45.7,16.7-66.3c9.1-18.2,20-49.5,39.9-58.2c16.3-7.1,54.1,4.9,83.2,13.4c10.3,3,19.4,5.6,26.1,6.7
						c16.5,2.8,34.8,1.3,51.8,2.6l30.9,2.4c50.5,3.8,96.1,3.1,135.1,0.3l19.8,68.9c7.3,19.5,6.6,41.2-1.8,60.3
						c-10.8,21.4-19.6,38.8-26.8,53.1c-1.1,2.2-2.2,4.4-3.3,6.4c-2.6,5.1-5,9.9-7.2,14.2c-0.9,1.7-1.7,3.4-2.6,5
						c-0.8,1.6-1.6,3.1-2.3,4.6c-1.1,2.3-2.3,4.4-3.3,6.4c-0.7,1.3-1.3,2.6-2,3.9L403,610.8l-4.5,8.8l24,19.2l11.7,7.3
						c1.4-1.8,2.8-3.8,4.3-6c22.5-35.5,45-70.8,67.6-106.2c19.2-30.2,38.1-52.9,31.3-91.4c-11.7-66.4-7.8-144.5-47-202.7
						C444.5,171.5,350,165.2,275,159c-6.4,0.3-30.8,0-37.2-0.4c-36.1,2-76.6,4-114.3,13.1c-11.5,2.8-22.8,6.2-33.6,10.4
						c-0.1,0-0.1,0.1-0.1,0c-0.5,0.6-0.9,1.1-1.4,1.7c-44,54.5-47.1,132.7-64.5,197.8c-6,22.4-3.8,46.3,6.4,67.2L103.9,627.4z"/>
				</g>
			</g>
			<g>
				<path class="st5" d="M217.7,279c20.4,45,48.4,94.7,107.7,71.5l6.4-2.4c65.4,4.5,83.2-41.2,91.1-96.7l-1.9-35.2
					c-3.9-72.1-60.8-111.5-124.9-102.9c0,0-98.1,17.1-85.8,131.2L217.7,279z"/>
				<path class="st5" d="M310.8,353.3c5,4,8,10.1,12.9,13.9c16.1,12.6,19.9-7.4,28.7-17.4c4.8-5.5,19-13.2,8.4-22.3
					c-0.8-0.7-1.9-1.2-3.2-1.5c-12.1-3.1-27.6,0.1-39.3,3.4c-4.4,1.2-18.2,4.2-19.7,10C296.5,347,306.2,349.6,310.8,353.3z"/>
				<g>
					<path class="st8" d="M415.8,301.1c-17.8,22.8-31.3,11.5-39.9,12.8c-13.3,1.3-19.4,21-31.1,27c-30.6,15.7-63.4,10.5-97.1,12.9
						c0.4,0-27.6-64.8-30.6-73c-24.7-66.5-7.6-145.4,55.8-167.3c42.4-14.6,86.6-6.9,105.1,7C423,150.3,450.2,256.9,415.8,301.1z"/>
					<path class="st9" d="M430.3,260.5c-0.1,1.8-0.3,3.5-0.3,5.2c-2,13.2-6.4,25.4-14.2,35.4c-4.9,6.3-11.9,11.9-19.7,14.1
						c-7.5,2.1-10.9-1.4-17.4-1.5c-0.9,0-1.9,0-2.8,0.1c9.8-44.6,5.3-94.7-17.8-133.7c-18.8-31.8-50-56-85.2-66.7
						c34.3-11.8,75.4-10.6,102,5c1.1,0.6,2.1,1.3,3.1,2c14.6,10.2,32.2,33.3,42.9,64.9c0.7,2,1.3,4,2,6.2c0.4,1.3,0.8,2.7,1.1,3.9
						c0.4,1.6,0.9,3.3,1.3,5c0.1,0.4,0.2,0.9,0.3,1.3c0.4,1.8,0.9,3.5,1.3,5.4c0.3,1.3,0.5,2.6,0.8,4
						C430.5,226.4,431.6,242.9,430.3,260.5z"/>
				</g>
			</g>
		</g>
	</g>
</g>
</svg>
