<?xml version="1.0" encoding="utf-8"?>
<!-- Generator: Adobe Illustrator 23.1.1, SVG Export Plug-In . SVG Version: 6.00 Build 0)  -->
<svg version="1.1" id="Layer_1" xmlns:serif="http://www.serif.com/"
	 xmlns="http://www.w3.org/2000/svg" xmlns:xlink="http://www.w3.org/1999/xlink" x="0px" y="0px" width="612px" height="792px"
	 viewBox="0 0 612 792" style="enable-background:new 0 0 612 792;" xml:space="preserve">
<style type="text/css">
	.st0{fill:#7EB746;}
	.st1{fill:#90DC50;}
	.st2{fill:#15404C;}
	.st3{fill:#D1D3D4;}
	.st4{fill:#E7B088;}
	.st5{fill:#F2C4A5;}
	.st6{fill:#FFFFFF;}
	.st7{fill:#2E6B7C;}
	.st8{fill:#347989;}
	.st9{fill:#414042;}
	.st10{fill:#58595B;}
</style>
<g>
	<g id="_x31_">
		<g>
			<path class="st0" d="M109.4,73.1c-0.8-33.2,29-60.2,73.2-60.7l346.4-4.5c44.1-0.6,74.6,25.7,74.7,58.8c0,4.4-0.5,8.9-1.6,13.6
				L557.1,268l-396.1,5.1L111.3,86.6C110.1,82,109.5,77.5,109.4,73.1z"/>
			<path class="st1" d="M109.4,73.1c13.8-13,35.3-21.3,61.5-21.6l370.7-4.8c26.2-0.3,47.9,7.4,62,20c0,4.4-0.5,8.9-1.6,13.6
				L557.1,268l-396.1,5.1L111.3,86.6C110.1,82,109.5,77.5,109.4,73.1z"/>
		</g>
		<polygon class="st0" points="570.7,408 557.4,261.5 160.6,266.7 151.4,408 		"/>
	</g>
	<polygon class="st2" points="522.2,408 536.4,300.9 163.2,269.6 184.5,408 	"/>
	<g id="_x32_4">
		<path class="st3" d="M397.5,336.3c-51.9-10.6-104.3-15-156.2-13.6c-2.1,0.1-4.1,0.2-6.2,0.2c15.4,24.7,36.1,44.5,62.1,53.4
			c7.5,2.6,15,3.9,22.2,4.2c0.4,0,0.7,0.1,1.1,0c6.5,0.2,12.9-0.6,19.3-2.2c7,5.3,12.3,10.5,21,5.7c6.5-3.6,7.9-12.5,9.6-20.3
			c1.6-1.6,3.1-3.4,4.5-5.7c0.6-1,3.2-7.4,5.2-13.8c3.1-2,5.9-4.2,8.6-6.7C391.8,337.2,394.7,336.9,397.5,336.3z"/>
		<g>
			<g>
				<g id="_x31_3_3_">
					<path class="st4" d="M361.5,767.3l-14.1-16.5l-24.8,0.7c-1.6,0-3-1.1-3.2-2.7c-0.3-2.2-0.1-5.3,2.3-7.6c4.2-4,23.1-4,23.1-4
						l8.4-0.5c0,0,15.3-27.2,16.2-27.9c0.9-0.7,23.2,7.3,23.2,7.3l-6.9,38.6L361.5,767.3z"/>
					<path class="st4" d="M324.7,760.1c0,0-5.9-4.6,2.3-10.3c8.1-5.7,40.1-2.1,40.1-2.1s1.3,14.6,1,15.5
						C367.8,764,324.7,760.1,324.7,760.1z"/>
					<path class="st5" d="M399.6,686.3l8.4,17.6c5.6,11.7,5.4,25.4-0.6,36.9l-11.7,22.8l-7.6,7.2l-28.5,8.3l-0.1,0l-3,1l-10.6,3.7
						c-1.7,0.6-3.5-0.1-4.4-1.5c0-0.1-0.1-0.1-0.1-0.2c-0.2-0.4-0.4-0.8-0.5-1.3c0,0,0-0.1,0-0.1c-0.1-0.8-0.2-1.8-0.3-3
						c0-1,0.3-2,1-2.7c5.7-6.6,25.8-13.8,35.2-16.7c3-0.9,5.4-4.9,6-7.9c1.5-8.1,1.6-24.1-0.1-29.5c-1.7-5.1-6.1-4.3-9.6-2.2
						c0,0,0,0-0.1,0c-0.2,0.1-0.4,0.2-0.5,0.3c-0.2,0.1-0.4,0.2-0.6,0.4c0,0,0,0,0,0c-0.2,0.1-0.3,0.2-0.5,0.4
						c-0.2,0.1-0.4,0.3-0.5,0.4c-0.2,0.1-0.3,0.3-0.4,0.4c-0.1,0.1-0.2,0.2-0.4,0.4c0,0-0.1,0.1-0.1,0.1c-0.1,0.1-0.2,0.2-0.3,0.4
						c-0.1,0.1-0.2,0.3-0.3,0.4c-2.7,3.4-15,31.6-16.7,35.2c-1.7,3.6-6.2,4.4-11,0.7c-2.9-2.3-2-5.3-0.9-8.3c1.6-4.3,3-8.5,4.2-13
						c2.3-9.1,3.7-18.4,5.7-27.5c0,0,0.2-7.7-3.9-24.1c-0.5-1.6-0.8-3.3-0.9-4.8c0-0.3-0.1-0.6-0.1-1c-0.1-1.3-0.1-2.5-0.1-3.7
						c0.1-1.5,0.2-2.9,0.5-4.3c0.1-0.4,0.2-0.9,0.3-1.3c0.1-0.3,0.1-0.6,0.2-0.9c0.1-0.4,0.2-0.7,0.3-1.1c0.1-0.2,0.1-0.4,0.2-0.7
						c0.1-0.4,0.3-0.9,0.4-1.3c0.1-0.2,0.2-0.4,0.2-0.6c0.2-0.4,0.3-0.8,0.5-1.2c0.1-0.2,0.2-0.4,0.3-0.6c0.1-0.2,0.2-0.4,0.3-0.6
						c0.1-0.2,0.2-0.4,0.3-0.6c4.2-8.5,10.8-13.7,10.8-13.7s47-54.8,48-54l36.3,28.6L399.6,670C396,673.8,397.7,681.4,399.6,686.3z"
						/>
					<g>
						<path class="st5" d="M373,718.7c-0.2,0.1-0.4,0.2-0.5,0.3c-0.2,0.1-0.4,0.3-0.6,0.4c-0.2,0.1-0.3,0.2-0.5,0.4
							c-0.2,0.1-0.4,0.3-0.5,0.4c-0.2,0.1-0.3,0.3-0.4,0.4c-0.1,0.1-0.2,0.2-0.5,0.5c-0.1,0.1-0.2,0.2-0.3,0.4
							c-0.1,0.1-0.2,0.3-0.3,0.4c-2.7,3.4-15,31.6-16.7,35.2c-2.3,4.8-10.4,3.6-12.6-0.9c-2.2-4.6,2.3-14.4,3.5-19
							c2.3-9.1,5.1-19,7.1-28.2c0,0,0.2-7.7-3.9-24.1c-0.5-1.6-0.8-3.3-0.9-4.8c0-0.3-0.1-0.6-0.1-1c-0.1-1.3-0.1-2.5-0.1-3.7
							c0.1-1.5,0.2-2.9,0.5-4.3c0.1-0.4,0.2-0.9,0.3-1.3c0.1-0.3,0.1-0.6,0.2-0.9c0.1-0.4,0.2-0.7,0.3-1.1c0.1-0.2,0.1-0.4,0.2-0.7
							c0.1-0.4,0.3-0.9,0.4-1.3c0.1-0.2,0.2-0.4,0.2-0.6c0.2-0.4,0.3-0.8,0.5-1.2c0.1-0.2,0.2-0.4,0.3-0.6c0.1-0.2,0.2-0.4,0.3-0.6
							c0.1-0.2,0.2-0.4,0.3-0.6c0.9,0.7,1.7,1.5,2.5,2.3C367,678.8,376.5,697.7,373,718.7z"/>
					</g>
				</g>
				<g id="_x31_3_1_">
					<path class="st4" d="M105.4,732.9l20.9-6.1l20.4,14.2c1.3,0.9,3.2,0.7,4.2-0.5c1.5-1.7,3-4.4,2.2-7.7c-1.4-5.7-17.2-16-17.2-16
						l-6.8-5c0,0,2-31.1,1.6-32.2c-0.4-1.1-23.4-6.6-23.4-6.6L92,709L105.4,732.9z"/>
					<path class="st4" d="M140.2,747c0,0,7.5-0.7,3.8-9.9c-3.7-9.2-32.4-23.7-32.4-23.7s-9.1,11.5-9.3,12.4
						C101.9,726.6,140.2,747,140.2,747z"/>
					<path class="st5" d="M117.8,644.2l-16.7,10.2c-11.1,6.8-18.4,18.3-19.7,31.2l-2.6,25.5l2.4,10.2l19.3,22.5l0.1,0.1l1.9,2.5
						l6.8,8.8c1.1,1.4,3,1.8,4.5,1.2c0.1,0,0.2-0.1,0.2-0.1c0.4-0.2,0.8-0.5,1.1-0.8c0,0,0-0.1,0.1-0.1c0.6-0.6,1.2-1.4,1.9-2.4
						c0.6-0.8,0.8-1.8,0.7-2.8c-1.2-8.7-14-25.7-20.3-33.2c-2-2.4-1.9-7.1-0.7-9.9c3.2-7.6,11.8-21.1,16.3-24.6
						c4.2-3.4,7.5-0.2,9.3,3.4c0,0,0,0,0,0.1c0.1,0.2,0.2,0.4,0.2,0.6c0.1,0.2,0.2,0.4,0.3,0.6c0,0,0,0,0,0c0.1,0.2,0.1,0.4,0.2,0.6
						c0.1,0.2,0.1,0.4,0.2,0.6c0.1,0.2,0.1,0.4,0.2,0.6c0,0.2,0.1,0.3,0.1,0.5c0,0.1,0,0.1,0,0.2c0,0.2,0.1,0.3,0.1,0.5
						c0,0.2,0,0.4,0.1,0.5c0.4,4.3-4.7,34.7-5.3,38.6c-0.5,3.9,2.8,7.1,8.8,6.6c3.7-0.3,4.6-3.4,5.2-6.4c1-4.5,2.1-8.8,3.6-13.1
						c3-8.9,6.9-17.4,10.3-26.2c0,0,4-6.6,16.5-18.1c1.3-1.1,2.4-2.3,3.4-3.5c0.2-0.3,0.4-0.5,0.6-0.8c0.8-1,1.5-2,2.1-3
						c0.8-1.3,1.4-2.6,1.9-3.9c0.2-0.4,0.3-0.8,0.5-1.2c0.1-0.3,0.2-0.6,0.3-0.9c0.1-0.4,0.2-0.7,0.3-1.1c0.1-0.2,0.1-0.4,0.2-0.7
						c0.1-0.4,0.2-0.9,0.3-1.3c0.1-0.2,0.1-0.4,0.1-0.7c0.1-0.4,0.2-0.9,0.2-1.3c0-0.2,0.1-0.4,0.1-0.6c0-0.2,0.1-0.4,0.1-0.6
						c0-0.2,0.1-0.4,0.1-0.6c1.1-9.5-1.5-17.4-1.5-17.4s-9.4-71.6-10.6-71.5l-46,4.1l11.7,63.7C127.7,635.7,122.1,641.3,117.8,644.2
						z"/>
					<g>
						<path class="st5" d="M122.4,685.9c0.1,0.2,0.2,0.4,0.2,0.6c0.1,0.2,0.2,0.4,0.3,0.7c0.1,0.2,0.1,0.4,0.2,0.6
							c0.1,0.2,0.1,0.4,0.2,0.6c0.1,0.2,0.1,0.4,0.2,0.6c0,0.2,0.1,0.3,0.1,0.7c0,0.2,0.1,0.3,0.1,0.5c0,0.2,0,0.4,0.1,0.5
							c0.4,4.3-4.7,34.7-5.3,38.6c-0.7,5.3,6.8,8.7,11,6.1c4.4-2.6,5.9-13.3,7.5-17.8c3-8.9,6.1-18.7,9.4-27.5c0,0,4-6.6,16.5-18.1
							c1.3-1.1,2.4-2.3,3.4-3.5c0.2-0.3,0.4-0.5,0.6-0.8c0.8-1,1.5-2,2.1-3c0.8-1.3,1.4-2.6,1.9-3.9c0.2-0.4,0.3-0.8,0.5-1.2
							c0.1-0.3,0.2-0.6,0.3-0.9c0.1-0.4,0.2-0.7,0.3-1.1c0.1-0.2,0.1-0.4,0.2-0.7c0.1-0.4,0.2-0.9,0.3-1.3c0.1-0.2,0.1-0.4,0.1-0.7
							c0.1-0.4,0.2-0.9,0.2-1.3c0-0.2,0.1-0.4,0.1-0.6c0-0.2,0.1-0.4,0.1-0.6c0-0.2,0.1-0.4,0.1-0.6c-1.1,0.2-2.2,0.3-3.4,0.5
							C149.2,655.8,130.9,666.5,122.4,685.9z"/>
					</g>
				</g>
				<path class="st6" d="M105.9,611.8l1.1,23.1l73.3-3.3c0,0-1.1-41.4-5-43C171.5,587,105.9,611.8,105.9,611.8z"/>
				<path class="st6" d="M371.2,619.8c-2.7,1-17,14.9-17,14.9l59.2,52.6l20.9-28.7L371.2,619.8z"/>
				<g>
					<path class="st7" d="M562.3,495.5L434.1,687l-20-15.3l-52.8-52.2l109.5-156.8c7.2-13.5,4-46-2.2-77.4
						c-6.4-32-15.9-62.7-20.7-70.4c-24.1,29.2-66.1,25.9-102.4,25.7c-45.6-0.2-90.7-10-131.2-31.4c-18.9-10-50.3-12.2-44.9-43.2
						c-5.8,33.4-47.1,120.7-43,140.2L193.7,603L133,613.5l-32.4,5.4L21.1,428.7c-8.7-20.5-17.3-43.9-10.1-64.9
						c23.6-68.2,48.4-146,100.6-200c46.1-47.8,116-71.5,182.2-73.4c91.3-2.6,179.1,32.3,235.7,99.6c12.1,14.4,22.8,30.3,31.8,47.6
						c31.1,59.8,29.9,131.2,33.2,195.2C595.7,455,576.4,478.2,562.3,495.5z"/>
					<path class="st8" d="M126.4,406.3c-3-14.2,9.6-41.3,23.6-80.4c0,0-57.7,40.3-72.3,82.4c-7.2,20.9-4.2,52.1,4.5,72.5L133,613.5
						l60.7-10.5L126.4,406.3z"/>
					<path class="st8" d="M594.6,432.9c-3.3-64-2.2-135.4-33.2-195.2c-9-17.3-19.7-33.2-31.8-47.6c-51.7-34.8-115.3-52.3-180.8-50.5
						c-27.5,0.8-55.6,5.4-82.4,14l28.2,13.1l-22.8,48.9l18.3,8.5l-45.8,98.3c32.3,12.1,66.6,18,101.3,18.2
						c36.3,0.2,101.7-23.8,125.9-53c34.5,16.1,47.6,177.3,33,204.5L385.7,645l48.3,41.9l134-185C582.2,484.7,595.7,455,594.6,432.9z
						"/>
				</g>
				<g>
					<path class="st5" d="M299.1,165.4c52.4-15.8,105.3,9.6,118.1,69.3l6.3,29.2c0.8,47.5-19.9,85.6-63.2,93l-5,2.8
						c-46,17.3-76.5-10.5-99.6-45.4l-10.8-27.8C219.4,192.8,299.1,165.4,299.1,165.4z"/>
					<path class="st5" d="M381.1,334.8c1.6,2.6,2.2,6.4,2.2,9.9c-0.1,5.4-1.9,10.4-3.5,15.4c-2.6,8.4-2.8,21.4-11,26
						c-9.1,5.2-14.5-0.7-21.9-6.2c-6.1-4.5-29.2-20.8-19.7-30.1c7.4-7.2,23.3-0.7,32.5-5.5c5.3-2.8,9.3-10.5,14.9-12.2
						C377.5,331.1,379.7,332.4,381.1,334.8z"/>
					<path class="st9" d="M417.1,315.8c-0.9,1.4-1.8,2.9-2.8,4.2c-5.8,7.6-14.4,12.4-23.4,12.8c2.2,1-6.8,25.3-8,27.2
						c-7.1,11.1-16.1,14.2-27,18.2c-9.1,3.3-18.1,4.9-27.4,4.7c-0.4,0-0.7,0-1.1,0c-7.2-0.2-14.6-1.5-22.1-4.1
						c-45.3-15.2-74.6-64.2-88.1-113.7c-22.7-83,11.7-140.8,97.9-144.9c30-1.4,31.7,4.2,36,5.6c13.1,4.3,25.3,14.4,36,28.1
						C420.9,197.5,438.9,276.8,417.1,315.8z"/>
				</g>
			</g>
			<path class="st10" d="M417.1,315.8c-0.9,1.4-1.8,2.9-2.8,4.2c-5.8,7.6-14.4,12.4-23.4,12.8c2.2,1-6.8,25.3-8,27.2
				c-7.1,11.1-16.1,14.2-27,18.2c-9.1,3.3-18.1,4.9-27.4,4.7c-0.4,0-0.7,0-1.1,0c40.4-21,67.5-54.1,54.6-75.4
				c28.6-34.8,31.8-56.3,25.4-92.7c-2.4-13.4-6.1-37.7-20.5-60.8C420.9,197.5,438.9,276.8,417.1,315.8z"/>
		</g>
	</g>
</g>
</svg>
