<?xml version="1.0" encoding="utf-8"?>
<!-- Generator: Adobe Illustrator 23.1.1, SVG Export Plug-In . SVG Version: 6.00 Build 0)  -->
<svg version="1.1" id="Layer_1" xmlns:serif="http://www.serif.com/"
	 xmlns="http://www.w3.org/2000/svg" xmlns:xlink="http://www.w3.org/1999/xlink" x="0px" y="0px" width="612px" height="792px"
	 viewBox="0 0 612 792" style="enable-background:new 0 0 612 792;" xml:space="preserve">
<style type="text/css">
	.st0{fill:#7EB746;}
	.st1{fill:#90DC50;}
	.st2{fill:#225566;}
	.st3{fill:#D1D3D4;}
	.st4{fill:#E7B088;}
	.st5{fill:#F2C4A5;}
	.st6{fill:#F94E63;}
	.st7{fill:#16405E;}
	.st8{fill:#14B0BF;}
	.st9{fill:#FFFFFF;}
	.st10{fill:#2E6B7C;}
	.st11{fill:#EF7A2B;}
	.st12{fill:#D16720;}
	.st13{fill:#F28840;}
	.st14{fill:#F7924D;}
	.st15{fill:#A97C50;}
</style>
<g>
	<g id="_x34__1_">
		<g>
			<path class="st0" d="M547.6,716.6c1.2,31-26.3,56.7-67.6,57.8L156,783.2c-41.3,1.1-70.1-23-70.6-54c-0.1-4.1,0.4-8.4,1.3-12.7
				l39.5-176.1l370.4-10.1l49,173.7C546.8,708.3,547.4,712.5,547.6,716.6z"/>
			<path class="st1" d="M547.6,716.6c-12.7,12.3-32.8,20.4-57.2,21.1l-346.7,9.4c-24.5,0.7-44.9-6.3-58.3-17.9
				c-0.1-4.1,0.4-8.4,1.3-12.7l39.5-176.1l370.4-10.1l49,173.7C546.8,708.3,547.4,712.5,547.6,716.6z"/>
		</g>
		<polygon class="st0" points="106.6,362 126.1,546.4 497,536.3 505.9,362 		"/>
	</g>
	<polygon class="st2" points="190.3,362 168.2,451.5 247.4,558.4 439,480.1 400.3,362 	"/>
	<g id="_x32_1">
		<path class="st3" d="M477.7,124l-0.2-3.3c0.5,1,0.9,1.6,0.9,1.6c0,0,1.3,2.2,1.1,4.1c0,0.2-0.1,0.3-0.1,0.4
			C478.9,125.8,478.3,124.9,477.7,124z"/>
		<g>
			<g id="_x31_3">
				<path class="st4" d="M457.1,71.2L438.8,80l-21-10c-1.4-0.7-3-0.2-3.8,1.1c-1.1,1.8-2.1,4.5-0.9,7.4c2.1,5,18.3,12.1,18.3,12.1
					l7,3.6c0,0,2.9,29,3.4,30c0.5,1,22.6,2.5,22.6,2.5l8.6-35.6L457.1,71.2z"/>
				<path class="st4" d="M422.9,63.5c0,0-6.8,1.8-1.9,9.7c4.8,7.9,33.6,16.9,33.6,16.9s6.6-12,6.7-12.9
					C461.2,76.4,422.9,63.5,422.9,63.5z"/>
				<path class="st5" d="M459.3,154.9l28.4-24.6l-2.7-43.1l-3.8-9L460,60.4l-0.1-0.1l-2.2-2l-7.7-7.1c-1.2-1.1-3-1.2-4.3-0.4
					c-0.1,0-0.1,0.1-0.2,0.1c-0.3,0.2-0.6,0.6-0.9,0.9c0,0,0,0.1-0.1,0.1c-0.4,0.7-0.9,1.5-1.3,2.5c-0.4,0.8-0.5,1.8-0.2,2.7
					c2.4,7.8,16.9,21.5,23.8,27.5c2.2,1.9,2.8,6.2,2.1,9c-1.8,7.5-7.7,21.3-11.2,25.2c-3.3,3.8-6.9,1.4-9.1-1.7c0,0,0,0,0-0.1
					c-0.1-0.2-0.2-0.3-0.3-0.5c-0.1-0.2-0.2-0.4-0.3-0.5c0,0,0,0,0,0c-0.1-0.2-0.2-0.3-0.3-0.5c-0.1-0.2-0.2-0.4-0.3-0.6
					c-0.1-0.2-0.2-0.3-0.2-0.5c-0.1-0.2-0.1-0.3-0.2-0.4c0-0.1,0-0.1-0.1-0.2c0-0.1-0.1-0.3-0.1-0.4c0-0.2-0.1-0.3-0.1-0.5
					c-1-3.9-1-32.7-1.1-36.4c-0.1-3.7-3.7-6.1-9.2-4.7c-3.4,0.9-3.7,3.8-3.8,6.7c-0.3,4.3-0.6,8.5-1.3,12.7
					c-1.4,8.7-3.7,17.1-5.4,25.7c0,0-2.7,6.7-12.4,19.2c-1,1.2-1.9,2.5-2.6,3.8c-0.2,0.3-0.3,0.5-0.4,0.8c-0.6,1-1,2.1-1.4,3.1
					c-0.5,1.3-0.9,2.6-1.2,3.9c-0.1,0.4-0.2,0.8-0.2,1.2c-0.1,0.3-0.1,0.6-0.2,0.8c0,0.4-0.1,0.7-0.1,1.1c0,0.2,0,0.4-0.1,0.6
					c0,0.4-0.1,0.8-0.1,1.3c0,0.2,0,0.4,0,0.6c0,0.4,0,0.8,0,1.2c0,0.2,0,0.4,0,0.6c0,0.2,0,0.4,0,0.6c0,0.2,0,0.4,0,0.6
					c0.4,8.9,4.1,15.8,4.1,15.8s19.7,64.6,20.8,64.3l41.8-10.8l-20.6-56.9C451.5,164.2,455.8,158.3,459.3,154.9z"/>
				<g id="_x33_">
					<path class="st6" d="M401.2,17.9c1.3,2.8,3.2,7.2,6.8,15.1c3.1-2,6.3-4.1,9.4-6.1c-5.7-6.4-8.9-10-11-12.4L401.2,17.9z"/>
					<polygon class="st6" points="479.1,151.8 485.8,162.2 507.7,158.2 498.5,143.8 					"/>
					<path class="st7" d="M448.6,105.1c1.1,1.8,2.2,3.6,3.3,5.5L470,98.8c-1.2-1.8-2.4-3.5-3.6-5.2L448.6,105.1z"/>
					<path class="st8" d="M407.2,32.8c15.8,27.6,26.2,46.5,37.4,65.6l17.3-11.2c-12.8-18.1-25.8-35.4-44.4-61.1
						C414,28.3,410.6,30.5,407.2,32.8z"/>
					<path class="st6" d="M489.4,113.3c-13.4-19.5-28.9-44.7-29.1-45c0,0-5.4,9.2,4.8,17.1c4.5,7,22.8,37.7,23,38
						c0,0,1.3,2.2,1.1,4.1c-0.1,1-0.5,2.3-3.3,2.6c-2.3,0.3-2.8,1.3-2.9,2c-0.3,3.2,8.7,8.6,11.4,10.2l0.3,0.2l0.4-0.2
						c0.1-0.1,3.4-1.4,3.9-6.3C499.6,130.6,496.3,122.9,489.4,113.3z"/>
					<path class="st6" d="M444.6,98.4c1.3,2.2,2.6,4.4,4,6.7l17.8-11.5c-1.5-2.1-3-4.3-4.5-6.4L444.6,98.4z"/>
					<path class="st8" d="M451.8,110.5c8.2,13.5,17.4,27.8,29.6,46c6.1-3.9,12.1-7.8,18.2-11.8c-11.5-18.6-20.8-32.9-29.7-45.9
						L451.8,110.5z"/>
					<path class="st7" d="M398.9,8.8c0.1,1.4,0.3,3.1,0.8,5c0.4,1.6,1,3,1.5,4.2c1.7-1.1,3.4-2.2,5.2-3.3c-0.7-0.9-1.6-1.8-2.7-2.8
						C401.9,10.3,400.3,9.4,398.9,8.8z"/>
				</g>
				<g>
					<path class="st5" d="M448.7,117.1c-0.1-0.2-0.2-0.3-0.3-0.5c-0.1-0.2-0.2-0.4-0.3-0.5c0,0,0,0,0,0c-0.1-0.2-0.2-0.3-0.3-0.5
						c-0.1-0.2-0.2-0.4-0.3-0.6c-0.1-0.2-0.2-0.3-0.2-0.5c-0.1-0.1-0.1-0.3-0.2-0.4c0-0.1,0-0.1-0.1-0.2c0-0.1-0.1-0.3-0.1-0.4
						c0-0.2-0.1-0.3-0.1-0.5c-1-3.9-1-32.7-1.1-36.4c-0.1-3.7-2.2-5.7-9.2-4.7c-3.5,0.5-5.1,2.7-5.2,5.6c-0.2,4.3-0.2,8.5-0.8,12.8
						c-1.4,8.7-2.8,18.2-4.5,26.8c0,0-2.7,6.7-12.4,19.2c-1,1.2-1.9,2.5-2.6,3.8c-0.2,0.3-0.3,0.5-0.4,0.8c-0.6,1-1,2.1-1.4,3.1
						c-0.5,1.3-0.9,2.6-1.2,3.9c-0.1,0.4-0.2,0.8-0.2,1.2c-0.1,0.3-0.1,0.6-0.2,0.8c0,0.4-0.1,0.7-0.1,1.1c0,0.2,0,0.4-0.1,0.6
						c0,0.4-0.1,0.8-0.1,1.3c0,0.2,0,0.4,0,0.6c0,0.4,0,0.8,0,1.2c0,0.2,0,0.4,0,0.6c0,0.2,0,0.4,0,0.6c0,0.2,0,0.4,0,0.6
						c1-0.3,2-0.6,3-1C428.6,149.1,443.8,136.4,448.7,117.1C448.7,117.1,448.7,117.1,448.7,117.1z"/>
				</g>
				<path class="st4" d="M409.3,158.1c-0.7-4.6-0.3-11-0.4-14.2c-0.5,1.3-0.9,2.6-1.2,3.9c-0.1,0.4-0.2,0.8-0.2,1.2
					c-0.1,0.3-0.1,0.6-0.2,0.8c0,0.4-0.1,0.7-0.1,1.1c0,0.2,0,0.4-0.1,0.6c0,0.4-0.1,0.8-0.1,1.3c0,0.2,0,0.4,0,0.6
					c0,0.4,0,0.8,0,1.2c0,0.2,0,0.4,0,0.6c0,0.2,0,0.4,0,0.6c0,0.2,0,0.4,0,0.6c0.4,8.9,4.1,15.8,4.1,15.8s19.7,64.6,20.8,64.3
					l3.3-0.9c-2.7-7.2-8-21.6-17.2-49.1C413.7,173.7,410.6,166.1,409.3,158.1z"/>
			</g>
			<g id="_x31_2_3_">
				<path class="st5" d="M247.2,167.4c1.2-1.8,7.5-15.3,13-27c0.1-0.1,0.1-0.2,0.2-0.3c2.3-5.1,4.5-9.8,6-13.1
					c0.3-0.7,0.4-1.4,0.3-2.1c0-0.5-0.2-1-0.4-1.4c-0.6-1.3-1.9-2.2-3.6-2.3c-4.5-0.1-8.3,1.8-11.9,5.4c-2.1,2.1-4.2,4.8-6.2,8
					l0.2-5.2l0.4-11.8c0,0,3.9-57.1-2.6-59.8c-2.4-1.1-5.2-0.8-6.8,0.8c-0.2,0.2-0.3,0.3-0.5,0.5c-0.7,0.9-0.7,2.3-1.1,3.2l-0.1,0.1
					c-0.1,0.1-0.2,0.3-0.2,0.4c-0.4,0.7-0.6,1.2-0.6,1.4c0.1-1,0.3-1.9,0.4-2.9c0.1-0.7,0.1-1.3,0.2-1.9c0.2-3.1,2-9.1-0.8-10.9
					c-3-1.9-7.2-2-9.1,0.6c-0.8,1-1.6,2-2.4,3c-1.6,2.1-3,4.3-2.9,7c0-0.4-0.1-0.8-0.2-1.1c-0.3-1.1-2-1.9-3.1-2.4
					c-2.3-0.9-4.8,0.3-6.5,1.6c-2.1,1.6-3,4.6-4.1,7c-0.3,0.7-0.6,1.3-0.9,2c-0.1,0.2-0.2,0.5-0.3,0.7c-0.1,0.2-0.2,0.5-0.2,0.7
					c-0.1,0.3-0.2,0.7-0.3,1c-0.3,1-0.5,1.9-0.7,2.6c-0.2,1.1-0.3,1.7-0.3,1.7l-1.2-0.7c-1.2-0.7-3.1-0.7-4.3,0
					c-9.9,5.9-17,40.3-21.8,59.1c-0.1,0.5-0.3,1.1-0.4,1.6c-0.5,2-1,3.8-1.4,5.3c-0.1,0.1-0.1,0.2-0.2,0.4
					c-6.1,13.3-3.8,44-3.7,44.9c0,0-18.9,27.5-34.3,50.1l46.2,27.1c12.3-21.7,24.3-43.3,36.5-64.9
					C226.3,190.8,239.3,179,247.2,167.4z"/>
				<path class="st4" d="M204.8,64.1c-0.3,0.7-0.6,1.3-0.9,2c-0.1,0.2-0.2,0.4-0.2,0.7c-0.1,0.2-0.2,0.5-0.2,0.7
					c-0.1,0.3-0.2,0.7-0.3,1c-0.3,1-0.5,1.9-0.7,2.6l0,0c-0.2,1.1-0.3,1.7-0.3,1.7s0,0-1.2-0.7c-4.7,19.5-8.1,47.6-9.1,56.7
					c-0.2,1.9,0,5.6,1.1,5.5c0.1-0.8,3.3-26.8,3.9-33.2C197.2,96.3,202.3,74.3,204.8,64.1z"/>
				<path class="st4" d="M207.6,125.8c0.4-3.4,0.7-6.8,1.3-10.1c3-16.2,3.8-22.9,5.5-31.9c1.5-7.8,3.8-18.9,7.8-32.3
					c-0.2,0.3-0.4,0.4-0.6,0.4c-1.6,2.1-3,4.3-2.9,7c0-0.4-0.1-0.8-0.2-1.1c-2,7.7-4,16.6-5.5,24c-1.1,5.2-2.1,10.3-3,15.4
					c-1.3,6.5-2.4,13.4-3.2,20.8c-0.3,2.8-0.6,5.5-0.8,8.3c-0.1,1.9,0,3.5-0.2,6.2C207.3,132.2,207.4,127,207.6,125.8z"/>
				<path class="st4" d="M230.8,98.3c0.9-11.7,3.3-29.7,5.1-39.7c-0.2,0.2-0.3,0.3-0.5,0.5c-0.8,0.9-0.7,2.3-1.2,3.1l-0.1,0.1
					c-0.1,0.1-0.1,0.3-0.2,0.4l-0.3-0.7l-5,37l-3.1,24.6c-0.2,1.7-1,6.7,0.1,8C225.6,131.6,229.1,114.3,230.8,98.3z"/>
				<path class="st4" d="M170.2,158.4c0.5-8.8,1.9-16.5,3.5-22.7c-0.2,0.8-0.4,1.6-0.6,2.3c-0.1,0.1-0.1,0.2-0.2,0.4
					c-6.1,13.3-3.8,44-3.7,44.8c0,0,0,0,0,0s-18.9,27.5-34.3,50.1l2.4,1.4c14.6-21.2,31.4-45.9,34.3-51.2
					C170.4,176.7,169.6,168.2,170.2,158.4z"/>
				<path class="st4" d="M244.7,134.7l0.2-5.2c-2.5,8.7-6.6,21.9-8.9,26.4c5-9,10.7-20.9,14.9-29.2
					C248.7,128.8,246.7,131.6,244.7,134.7z"/>
			</g>
			<polygon class="st9" points="166.3,178.5 155,199.6 207.1,225.1 220.2,203.1 			"/>
			<polygon class="st9" points="405.8,178.1 409.4,201.9 466.3,191.2 463.7,165.7 			"/>
			<g>
				<g>
					<g>
						<path class="st10" d="M336.8,423.7c-16.2,3.7-25.1,13.2-41.8,13c-18.7-0.3-34.6-13.6-54.2-11.7c-32.7,3.1-60.4,24.3-68.2,59.8
							l-7.1,32.1l282.3,28.8l-16.6-66.1C420.2,435,377.3,414.4,336.8,423.7z"/>
						<path class="st10" d="M525.4,397.5c6.6-22.2,6.6-45.8-0.4-66.3l-46.5-155.2l-35.1,12.3l-38.6,13.5l38.5,160.1
							c4.1,19.4,1.5,40.2-6.9,58.1l-18.3,46.9l-4.6,11.7l-0.5,1.3c-11.9-1.7-24.8-3.3-38.5-4.5c-12-1-24.7-1.7-37.9-1.9
							c-8.3-0.2-16.7-0.2-25.3,0l-23.5,0.5c-38.5,0.9-72.6,5.2-101.3,10.7l-3.5-7.9l-22.5-51c-9.2-17.5-12.6-38.2-9.4-57.7L218,213
							l-33-11.6l-42.5-14.9L68.3,341c-6,20.8-5,44.4,2.5,66.2c20.6,59.9,29.8,124.5,65.6,167.7c29.8,36.1,74.6,45.8,116.7,49.5
							c0.1,0,0.2,0,0.4,0c12.7,1.1,25.2,1.6,36.9,2.2c4.3-0.3,20.6-0.7,25-0.5c24.3-2.2,51.7-4.5,77.3-11.5
							c28.1-7.6,54.8-21,74.3-46.8C500.9,523.1,507.4,458.1,525.4,397.5z"/>
						<path class="st2" d="M442.7,488.8c28.7-47.9,47.1-93.2,29.4-152.3c0-0.1-41-143.4-41-143.4l-26.3,8.6l38.5,160.1
							c4.1,19.4,1.5,40.2-6.9,58.1l-18.3,46.9l-4.6,11.7l-0.5,1.3c-11.9-1.7-24.8-3.3-38.5-4.5l-0.4,1.1l-0.5,1.3
							c-11.5-1.7-23.9-3.2-37-4.3c-19.9-1.7-41.6-2.6-64.7-2.1l-23.5,0.5c-23.5,0.5-45.4,2.3-65.4,4.9c-12.7,1.6-24.8,3.6-35.9,5.8
							l-26-58.9c-9.1-17.5-12.6-38.2-9.4-57.7L185,201.4l-42.5-14.9L68.3,341c-6,20.8-5,44.4,2.5,66.2
							c20.6,59.9,29.8,124.5,65.6,167.7c29.8,36.1,74.6,45.8,116.7,49.5c0.1,0,0.2,0,0.4,0c6.2-0.3,18.8-0.5,22.5-0.4
							c21.3,0.7,45-13,65.4-28c10.3-7.6,19.8-15.5,27.8-22C398.3,550.1,423.3,521.2,442.7,488.8z"/>
					</g>
				</g>
				<path class="st9" d="M316.6,516.9l-126-48.1c0,0-12.3,128.1,26.4,139c38.7,10.8,178.5,1.7,178.5,1.7l5.2-129.9L316.6,516.9z"/>
				<g>
					<path class="st5" d="M200.9,550.2c0,0-8.1,6.3-5.2,44.3C212.8,620.3,222,575,222,575L200.9,550.2z"/>
					<path class="st5" d="M398.3,530.8C380.6,497,370.4,496,370.4,496l-4.8,32.2C365.6,528.1,397.3,561.7,398.3,530.8z"/>
					<path class="st5" d="M385.2,522.3L374.6,493c-9.4-15.3-20.2-29.3-32.8-39.4c-2.1-1.7-4.2-3.3-6.4-4.8c0,0,0,0-0.1,0
						c-16.7-11-36.6-14.9-60.8-6.2l-5.1,2.8c-28.5,4.2-47.5,22.2-57.2,47.9c-0.2,0.5-0.3,0.9-0.5,1.3c-4.9,13.5-7.2,29.1-7.1,45.9
						l6.1,30.6c12.4,62.7,65.6,90.6,118.7,75.8C329.3,646.9,410.1,620.8,385.2,522.3z"/>
					<path class="st5" d="M300,453.2c7.7-6.6-9.9-18.4-14.6-21.7c-5.7-4-9.8-8.2-17-4.6c-6.5,3.3-7,12.6-9.3,18.7
						c-1.4,3.6-2.9,7.2-3.1,11.1c-0.2,2.5,0.3,5.3,1.4,7.1c1.1,1.7,2.7,2.7,5.1,2c4.4-1.3,7.8-6.7,12-8.7
						C281.7,453.6,294,458.3,300,453.2z"/>
					<g>
						<path class="st11" d="M391.2,537.6c-14.7-52.5-64-96.6-108.7-82.5c-41,12.9-42.8,33.7-52.5,44.7c-1.4,1.6-3,2.9-4.9,4.1
							c-5.3,3.1-9.7,2.7-13.9,8.2c-15.1,19.4-9.2,55.5-3.2,76.6c0.6,2,1.2,4,1.8,6.1c0.5,1.6,1,3.2,1.6,4.8c1.1,3.1,2.2,6.2,3.4,9.1
							c1.4,3.3,2.9,6.6,4.5,9.8c0.6,1.2,1.3,2.5,1.9,3.7c0.6,1,1.1,2,1.7,3c0.6,1.1,1.3,2.2,2,3.2c2.4,3.8,5,7.4,7.9,10.8
							c1.7,2,3.6,4,5.5,5.8c0.1,0,0.1,0.1,0.2,0.2c1,0.9,2,1.8,3,2.7c2.1,1.8,4.3,3.4,6.6,5c2.1,1.4,4.4,2.7,6.6,3.9
							c5.6,2.9,11.6,5.1,18,6.5c1.3,0.3,2.6,0.5,3.8,0.7c0.2,0,0.4,0.1,0.7,0.2c12.4,2,26.4,1.3,42-2.4c2.7-0.6,5.3-1.3,8.1-2
							l0.5-0.1c24.9-7.2,42.2-16.9,53.4-29.2C401.9,607.9,402.1,576.7,391.2,537.6z"/>
						<path class="st12" d="M356.5,623.6c-27.8-2.8-57.2,3.7-83.2-6.6c-27.6-10.9-39-34.8-43.2-62c-1.5-10.2-1.8-20.4-0.8-30.7
							c0.4-4.3-1.3-22.3,0.6-24.4c-1.4,1.6-3,2.9-4.9,4.1c-5.3,3.1-9.7,2.7-13.9,8.2c-15.1,19.4-9.2,55.5-3.2,76.6
							c0.6,2,1.2,4,1.8,6.1c0.5,1.6,1,3.2,1.6,4.8c1.1,3.1,2.2,6.2,3.4,9.1c1.4,3.3,2.9,6.6,4.5,9.8c0.6,1.2,1.3,2.5,1.9,3.7
							c0.6,1,1.1,2,1.7,3c0.6,1.1,1.3,2.2,2,3.2c2.4,3.8,5,7.4,7.9,10.8c1.7,2,3.6,4,5.5,5.8c0.1,0,0.1,0.1,0.2,0.2
							c1,0.9,2,1.8,3,2.7c2.1,1.8,4.3,3.4,6.6,5c2.1,1.4,4.4,2.7,6.6,3.9c5.7,3,11.8,5.1,18,6.5c1.3,0.3,2.6,0.5,3.8,0.7
							c0.2,0,0.4,0.1,0.7,0.2c12.4,2,26.4,1.3,42-2.4c2.7-0.6,5.3-1.3,8.1-2l0.5-0.1c24.9-7.2,42.2-16.9,53.4-29.2
							C373.7,626.4,365,624.6,356.5,623.6z"/>
						<path class="st13" d="M379.3,532.1c-15.7-32.7-49.2-75.3-93.3-58.4c-14,5.4-39.8,17.2-30.3,35.3c5,9.6,15.9,9.7,25.9,9
							c42.9-2.8,92.3,43.2,85.8,100.3c0.6-4.9,7.6-12.7,9.7-17.7C385.8,580.1,388.8,551.8,379.3,532.1z"/>
					</g>
					<path class="st12" d="M392.9,646.2c-4.9-17.7-34.3-25-65.6-16.2c-7.8,2.2-15,5.2-21.3,8.6c-19,10.6-30.1,26-26.3,39.2
						c4.9,17.7,34.3,25,65.6,16.2c12-3.4,22.6-8.6,30.7-14.9C389.1,669.4,396,657.1,392.9,646.2z"/>
					<g>
						<path class="st14" d="M392.9,646.2c-3-10.9-15.3-17.8-31.6-19.5c9.2,6.6,16.3,16.1,19.6,27.8c1.8,6.5,2.2,13,1.5,19.3
							C391.2,665.1,395.4,655.2,392.9,646.2z"/>
						<path class="st11" d="M380.9,654.5c-3.3-11.7-10.3-21.2-19.6-27.8c-10.2-1.1-21.9-0.1-33.9,3.3c-7.8,2.2-15,5.2-21.3,8.6
							c0.1,3,0.6,6,1.5,9c7.2,25.6,37.6,39.6,68.5,31.6c2.3-1.8,4.5-3.5,6.4-5.4C383.1,667.5,382.7,661,380.9,654.5z"/>
					</g>
					<path class="st11" d="M359.2,450.2c-15.2,13.7-66.4,4.6-66.4,4.6s-2.2,6.4,21.7,11.8C361.3,470.3,360.3,447.2,359.2,450.2z"/>
					<path class="st11" d="M366.3,455.5c-8.7,21.4-33.7,12.4-33.7,12.4C352.3,484.5,370.3,466.9,366.3,455.5z"/>
					<path class="st15" d="M213.3,492.5c13.8-8.5,34.9-24.9,47.3-37.2C244.3,458.9,213.3,492.5,213.3,492.5z"/>
					<path class="st15" d="M291.3,445.6c13,5.8,34,7.6,50.4,8.1C339.7,451.9,300.3,442.5,291.3,445.6z"/>
				</g>
			</g>
		</g>
	</g>
</g>
</svg>
