<?xml version="1.0" encoding="utf-8"?>
<!-- Generator: Adobe Illustrator 23.1.1, SVG Export Plug-In . SVG Version: 6.00 Build 0)  -->
<svg version="1.1" id="Layer_1" xmlns:serif="http://www.serif.com/"
	 xmlns="http://www.w3.org/2000/svg" xmlns:xlink="http://www.w3.org/1999/xlink" x="0px" y="0px" width="612px" height="792px"
	 viewBox="0 0 612 792" style="enable-background:new 0 0 612 792;" xml:space="preserve">
<style type="text/css">
	.st0{fill:#7EB746;}
	.st1{fill:#90DC50;}
	.st2{fill:#225566;}
	.st3{fill:#D1D3D4;}
	.st4{fill:#E7B088;}
	.st5{fill:#F2C4A5;}
	.st6{fill:#FFFFFF;}
	.st7{fill:#2E6B7C;}
	.st8{fill:#846852;}
	.st9{fill:#684D3A;}
	.st10{fill:#8E725F;}
	.st11{fill:#A97C50;}
</style>
<g>
	<g id="_x34__2_">
		<g>
			<path class="st0" d="M19,70.2C19,35,51.4,7.1,98.3,7.6L466.5,12c46.9,0.6,78.6,29.2,77.8,64.5c-0.1,4.7-0.8,9.5-2.1,14.4
				l-52.7,198.2l-420.9-5L20.7,84.6C19.5,79.7,19,74.9,19,70.2z"/>
			<path class="st1" d="M19,70.2c15-13.4,38.1-21.7,65.9-21.4l394,4.7c27.8,0.3,50.7,9.1,65.4,22.9c-0.1,4.7-0.8,9.5-2.1,14.4
				l-52.7,198.2l-420.9-5L20.7,84.6C19.5,79.7,19,74.9,19,70.2z"/>
		</g>
		<polygon class="st0" points="499.7,429.6 490,282.2 68.3,277.2 54.6,429.6 		"/>
	</g>
	<polygon class="st2" points="433.2,429.6 459.5,323.3 369.6,201.8 151.8,290.8 196.9,428.3 244.1,429.6 	"/>
	<g id="_x32_8">
		<path class="st3" d="M243,736.3l1.6-2.2h0.1c0.4,1.1,0.9,2.2,1.4,3.4C245.1,737,244.1,736.7,243,736.3z"/>
		<g>
			<g id="_x31_3_2_">
				<path class="st4" d="M240.8,746.7l13.8-18.5l26.4-1c1.7-0.1,3.1-1.4,3.2-3.1c0.2-2.4-0.3-5.7-3-7.9c-4.8-3.9-24.8-2.6-24.8-2.6
					l-9,0.1c0,0-18.2-27.7-19.2-28.4c-1.1-0.7-24.1,9.4-24.1,9.4l10.1,40.4L240.8,746.7z"/>
				<path class="st4" d="M279.3,736.4c0,0,5.9-5.3-3.1-10.8c-9-5.4-42.7,0.6-42.7,0.6s-0.4,15.6,0,16.5
					C233.8,743.6,279.3,736.4,279.3,736.4z"/>
				<path class="st5" d="M194.5,663.6l-7.6,19.3c-5.1,12.8-3.9,27.3,3.3,39.1l14.1,23.3l8.6,7.1l30.8,6.7l0.2,0l3.2,0.9l11.5,3.1
					c1.8,0.5,3.7-0.3,4.6-1.9c0-0.1,0.1-0.2,0.1-0.2c0.2-0.4,0.4-0.9,0.4-1.4c0,0,0-0.1,0-0.1c0.1-0.9,0.1-2,0.1-3.2
					c0-1.1-0.5-2.1-1.2-2.8c-6.6-6.6-28.4-12.8-38.5-15.2c-3.2-0.7-6.1-4.8-6.9-8c-2.2-8.5-3.5-25.5-2-31.3c1.4-5.5,6.2-5,10.1-3
					c0,0,0,0,0.1,0c0.2,0.1,0.4,0.2,0.6,0.3c0.2,0.1,0.4,0.2,0.6,0.4c0,0,0,0,0.1,0c0.2,0.1,0.4,0.2,0.5,0.4
					c0.2,0.1,0.4,0.3,0.6,0.4c0.2,0.1,0.3,0.3,0.5,0.4c0.1,0.1,0.3,0.2,0.4,0.3c0,0,0.1,0.1,0.1,0.1c0.1,0.1,0.3,0.2,0.4,0.4
					c0.1,0.1,0.3,0.3,0.4,0.4c3.1,3.4,18.2,32.5,20.3,36.1c2.1,3.7,6.9,4.3,11.7-0.1c2.9-2.7,1.7-5.8,0.3-8.8
					c-2-4.4-3.8-8.8-5.4-13.4c-3.1-9.5-5.3-19.2-8.1-28.8c0,0-0.8-8.2,2.4-25.9c0.4-1.8,0.6-3.5,0.7-5.2c0-0.4,0-0.7,0-1
					c0-1.3-0.1-2.6-0.2-3.9c-0.2-1.6-0.5-3.1-0.9-4.6c-0.1-0.5-0.3-0.9-0.4-1.4c-0.1-0.3-0.2-0.6-0.3-0.9c-0.1-0.4-0.3-0.8-0.4-1.2
					c-0.1-0.2-0.2-0.5-0.3-0.7c-0.2-0.4-0.4-0.9-0.6-1.3c-0.1-0.2-0.2-0.4-0.3-0.6c-0.2-0.4-0.4-0.8-0.6-1.2
					c-0.1-0.2-0.2-0.4-0.3-0.6c-0.1-0.2-0.2-0.4-0.3-0.6c-0.1-0.2-0.2-0.4-0.3-0.6c-5.1-8.7-12.4-13.8-12.4-13.8
					s-53.8-54.7-54.8-53.8l-36.5,32.9l50.7,46.5C197.5,650,196.3,658.3,194.5,663.6z"/>
				<g>
					<path class="st5" d="M225.1,696c0.2,0.1,0.4,0.2,0.6,0.3c0.2,0.1,0.4,0.2,0.7,0.4c0.2,0.1,0.4,0.2,0.5,0.4
						c0.2,0.1,0.4,0.3,0.6,0.4c0.2,0.1,0.3,0.3,0.5,0.4c0.1,0.1,0.3,0.2,0.5,0.5c0.1,0.1,0.3,0.2,0.4,0.4c0.1,0.1,0.3,0.3,0.4,0.4
						c3.1,3.4,18.2,32.5,20.3,36.1c2.8,4.9,11.3,3,13.3-1.9c2-5.1-3.5-15.1-5.1-19.9c-3.1-9.5-6.8-19.8-9.6-29.3
						c0,0-0.8-8.2,2.4-25.9c0.4-1.8,0.6-3.5,0.7-5.2c0-0.4,0-0.7,0-1c0-1.3-0.1-2.6-0.2-3.9c-0.2-1.6-0.5-3.1-0.9-4.6
						c-0.1-0.5-0.3-0.9-0.4-1.4c-0.1-0.3-0.2-0.6-0.3-0.9c-0.1-0.4-0.3-0.8-0.4-1.2c-0.1-0.2-0.2-0.5-0.3-0.7
						c-0.2-0.4-0.4-0.9-0.6-1.3c-0.1-0.2-0.2-0.4-0.3-0.6c-0.2-0.4-0.4-0.8-0.6-1.2c-0.1-0.2-0.2-0.4-0.3-0.6
						c-0.1-0.2-0.2-0.4-0.3-0.6c-0.1-0.2-0.2-0.4-0.3-0.6c-0.9,0.8-1.7,1.7-2.5,2.6C228.5,653.3,219.9,674.1,225.1,696z"/>
				</g>
			</g>
			<g>
				<g>
					<g>
						<g>
							<g>
								<path class="st5" d="M494,643.6c-0.6,3.8-1.8,8-1.8,11.9c-0.1,4.7,2.5,8.9,2.8,13.5c0.4,5.5,1.4,10.6,1.9,15.8
									c0.2,2.6,0.3,5.3,0,8.1c-0.6,7.7-4.9,35.8-8.1,42.9c-5.3,11.5-1.9,8.6-10.7,22.8c-2.2,3.5-8.9,11.1-13.4,5.3
									c-3.1-4.1,6.6-15.3,9.3-24.9c1.8-6.7-0.6-14.6-2.6-17.1c0,10.3-3.4,16.4-6.3,26.8c-4.9,17.9-19.7,43.4-26.5,33.5
									c-3.2-4.6,4.6-13.8,10.3-32.2c3.6-11.7,2.5-21.6,2.9-29.4c-0.4-4.1-3.6,9.9-9.1,24.7c-5,13.4-12,26.8-16.7,32.7
									c-1.5,1.9-4.5,4.8-6.9,4.1c-5-1.4-6.2-7-3.6-12.1c4.3-8.4,9.2-18.6,12.3-27.8c5.2-15.7,6-30.5,5.7-30.9
									c-4.9,17.2-16.4,51.3-25.4,50.9c-13-0.5-1.9-9.9,4.4-34.1c4.9-18.6,15.3-43.8,13.5-52.9c-8.9,2.7-10.2,21.8-21.1,26.3
									c-2.5,1-10.4,0.4-10.7-3c-0.2-2.6,3.3-6.2,4.8-8.6c0.5-0.9,4.7-7,5-7.9c1.3-3,2.1-6.2,3.3-9.3
									c10.2-26.1,26.2-28.3,37.7-40.3c4.2-4.4,10.4-6,16.2-4.2c6.9,2.2,14,3.1,21,4.9c3.8,1,3,2.5,6.8,3.4
									c1.2,0.3,2.5,0.6,3.8,0.8c0.4,0.1,1.6,0.1,1.9,0.4c0.3,0.3,0.1,1,0,1.6C494.6,640,494.3,641.6,494,643.6z"/>
							</g>
						</g>
					</g>
					<polygon class="st6" points="505.7,666.8 517.2,640.9 450.7,602.1 437.1,628.9 					"/>
					<polygon class="st6" points="252.5,617.2 235.8,590.2 169.8,631.5 186.3,661.1 					"/>
					<g>
						<g>
							<path class="st7" d="M285.5,372c18.4-4.2,28.6-15,47.5-14.8c21.3,0.3,39.3,15.5,61.6,13.3c37.1-3.6,68.6-27.6,77.4-67.9
								l8-36.5l-320.8-32.7l18.8,75.2C190.7,359.1,239.4,382.5,285.5,372z"/>
							<path class="st7" d="M165.8,645.9L71.6,477.1c-7.9-23.3-7.9-50.1-0.4-75.3c19.6-66.2,27.2-136.9,61.9-187.4
								c1.3-2,2.8-4.1,4.4-6.1c22.2-29.3,52.5-44.5,84.5-53.2c29.2-8,60.2-10.6,87.8-13.1c4.9,0.1,23.5-0.3,28.4-0.7
								c6.9,0.4,14,0.7,21.2,1.1c6.8,0.4,13.8,0.9,20.8,1.4h0.4c19.1,1.7,38.7,4.4,57.4,9.8c1.6,0.4,3.2,0.9,4.8,1.3
								c0.6,0.2,1.3,0.4,1.8,0.6c2.5,0.8,4.9,1.6,7.4,2.6c1.5,0.5,2.8,1.1,4.3,1.6c1,0.4,2,0.8,2.9,1.2c2.2,0.9,4.4,1.9,6.5,2.9
								c2,0.9,3.9,1.9,5.8,2.9c9,4.6,17.5,10.2,25.3,16.9c0.1,0.1,0.1,0.1,0.2,0.2c3.2,2.7,6.2,5.5,9.1,8.5c1.3,1.2,2.4,2.5,3.6,3.8
								c1.2,1.3,2.3,2.6,3.4,4c40.7,49.1,51.2,122.5,74.5,190.5c2.2,6.5,4,13.2,5.2,19.9c0.7,14.5-0.9,29.4-4.9,43.1l-13.7,42
								l-77.8,141.7l-0.6-0.3l-9.4-4.1l-45.7-19.8l55.6-178.3c3.7-22.2-0.2-45.6-10.6-65.6l-25.5-57.9l-4-8.9
								c-32.7,6.3-71.4,11.2-115.1,12.2l-26.7,0.5c-9.8,0.2-19.4,0.2-28.8,0c-15-0.3-29.4-1.1-43.1-2.2c-15.6-1.3-30.2-3.1-43.7-5.1
								l-0.6,1.5L193,323l-20.8,53.3c-9.6,20.4-12.5,43.9-7.8,66l84.1,161.2l-29.2,18.7L165.8,645.9z"/>
							<path class="st2" d="M168,651.4L71.6,477.1c-7.9-23.3-20.4-54.4-12.9-79.7c19.6-66.2,38.8-132.8,74.5-183.1
								c1.3-2,2.8-4.1,4.4-6.1c22.2-29.3,52.5-44.5,84.5-53.2c29.2-8,60.2-10.6,87.8-13.1c4.9,0.1,23.5-0.3,28.4-0.7
								c6.9,0.4,14,0.7,21.2,1.1c3.2,0.7,6.5,1.3,9.7,1.8c23,4,45.8,3.4,68.9,9.4c1.6,0.4,3.2,0.9,4.8,1.3c0.6,0.2,1.3,0.4,1.8,0.6
								c2.5,0.8,4.9,1.6,7.4,2.6c1.5,0.5,2.8,1.1,4.3,1.6c1,0.4,2,0.8,2.9,1.2c2.2,0.9,4.4,1.9,6.5,2.9c2,0.9,3.9,1.9,5.8,2.9
								c9,4.7,17.5,10.4,25.3,16.9c0.1,0.1,0.1,0.1,0.2,0.2c3.2,2.7,6.2,5.5,9.1,8.5c1.3,1.2,2.4,2.5,3.6,3.8c1.2,1.3,2.3,2.6,3.4,4
								c35.9,42.2,48.8,97.8,65,149.4c5.3,16.9,11.9,34,14,51.6c0.4,3.1,0.7,6.3,0.8,9.4c0.7,14.5-0.9,29.4-4.9,43.1l-13.7,42
								l-49.9,153l-27.8-11.2l-0.6-0.3l-9.5-3.8l0.1-0.3l54.7-195.7c3.6-22.2-0.3-45.7-10.6-65.6c-8.8-19.9-15.5-47.5-28.2-64.6
								c-16.7-22.6-32-54.1-58.2-63.1c-14-4.8-38.5,10.1-52.8,7.1c-12.3-2.6-20.9-9.6-32.4-14.5c-37.5-16-82.9-33.8-121.2-19.3
								C162.1,246,127.1,374,115.6,415.3c-2.5,9-2.7,18.4-0.7,27.5c9.9,42.8,95.4,159.1,104.4,179.3L168,651.4z"/>
						</g>
					</g>
				</g>
				<g>
					<path class="st5" d="M426.8,271.1c0,0,11.1-3.4,23.5-44.9c-7.8-34.2-35.8,10.1-35.8,10.1L426.8,271.1z"/>
					<path class="st5" d="M209.4,212.1c5.1,43,15.5,48.2,15.5,48.2l18.1-32.2C243,228.1,222.8,179.7,209.4,212.1z"/>
					<path class="st5" d="M219.8,226.4l-0.5,35.4c3.9,20,9.6,39.3,19,55.1c1.5,2.6,3.2,5.2,4.9,7.7c0,0,0,0,0.1,0
						c13.3,18.4,32.8,30.5,62,31.2l6.5-0.9c31.9,7.1,59.4-4.4,80-27.8c0.3-0.4,0.7-0.8,1.1-1.2c10.6-12.4,19.4-28,26-45.8l5.9-34.9
						c12.1-71.6-33-122.7-95.5-128.4C329.5,116.6,233.1,111.7,219.8,226.4z"/>
					<path class="st5" d="M282.4,334.2c-10.9,3.9,3.1,23.6,6.8,28.9c4.4,6.5,7,12.7,16.3,11.7c8.2-0.9,12.5-10.6,17.4-16.1
						c2.9-3.3,6-6.5,7.8-10.5c1.2-2.6,1.8-5.7,1.4-8.2c-0.4-2.2-1.8-3.9-4.6-4.2c-5.2-0.5-11,4-16.3,4.4
						C302,341.2,290.9,331.2,282.4,334.2z"/>
					<g>
						<path class="st8" d="M301.8,339.6c-13.4-2.1-30.1-9.4-43.7-8c-9.3,0.9-16.6,18.8-9.7,26.5c-17.9-19.9-28.8-45.8-31.4-72.4
							c-1.3-13.6,0.1-26.5,2.3-39.9c2.1-12.4-0.8-25.1,0.4-38c4.2-45.9,17-79,48.1-94.7c8.3-4.2,17.9-7.2,29.1-8.8
							c11.5-1.6,24.5-1.9,39.4-0.7l0.5,0.1c3.2,0.3,6.3,0.7,9.4,1.1c18.1,2.5,33.2,7.4,45.6,14.5c0.2,0.1,0.4,0.3,0.6,0.5
							c1.3,0.7,2.6,1.5,3.8,2.3c1.6,1,3.1,2.1,4.6,3.2c4.4,3.3,8.4,6.9,11.9,11c1.9,2.2,3.8,4.5,5.5,6.9c1.8,2.6,3.4,5.2,4.9,8
							c0.7,1.3,1.4,2.8,2.1,4.1c0.1,0.1,0.1,0.2,0.1,0.3c1.3,2.7,2.4,5.5,3.5,8.4c1.7,4.7,3.1,9.6,4.1,14.6c0.3,1.3,0.7,2.7,0.8,4.2
							c0.3,1.3,0.5,2.6,0.7,3.9c0.3,1.5,0.4,3.1,0.5,4.7c0.5,4,0.8,8.1,0.9,12.2c0.1,3.6,0.1,7.3-0.1,11.1c0,2-0.1,3.9-0.2,5.7
							c-0.3,2.5-0.4,4.9-0.6,7.3c-2.2,24.9-10.5,65.6-34.4,80.1c-6.7,4.2-11.2,2-18.1,3.2c-2.6,0.5-4.7,1.3-6.9,2.3
							c-10.6,5.1-16.8,15.2-26.8,20.9c-11.1,6.3-24.8,8-37.4,7C308.3,340.5,305,340.1,301.8,339.6z"/>
						<path class="st9" d="M397.8,254.2c26.8-125.5-171.1-169.5-170.4,16.3c-17.2-50.2-13.4-154.1,69.5-166.3
							c7,0,62.3-6.7,95.6,15.4c26.8,14.1,52.5,53.7,47.7,118.5c-2.6,34.6-20.7,80.3-49.4,100.7c1.8-4.1,3.7-8.3,3.6-12.8
							c-0.1-4.6-13.4-21.2-17.8-14C378.5,308.7,394.4,269.5,397.8,254.2z"/>
						<path class="st10" d="M235.4,238.5c3,35.7,19,86.7,65.6,86.6c14.8,0,42.8-1.9,40.3-22c-1.3-10.6-11.3-14.5-20.7-17.4
							c-40.6-12.5-70.1-72.3-44-122.7c-2.2,4.3-11.5,9.1-15.1,12.9C246.2,192,233.6,217.1,235.4,238.5z"/>
					</g>
					<path class="st9" d="M267,100c6,25.1,36,41.9,67,37.4c7.8-1.1,14.8-3.5,21-6.7c18.5-9.8,28.8-28.1,24.3-47
						c-6-25.1-36-41.9-67-37.4c-12,1.7-22.3,6.3-30.1,12.9C269.5,69.5,263.3,84.5,267,100z"/>
					<path class="st8" d="M283.2,90.7c4.5,18.7,26.8,31.2,49.9,27.9c5.8-0.8,11-2.6,15.6-5c13.8-7.3,21.5-20.9,18.1-35
						c-4.5-18.7-26.8-31.2-49.9-27.9c-8.9,1.3-16.6,4.7-22.4,9.6C285.1,67.9,280.5,79.1,283.2,90.7z"/>
					<path class="st11" d="M390.3,327.5c-18,3.4-47.2,12.3-65.2,20.4C343.8,350.6,390.3,327.5,390.3,327.5z"/>
					<path class="st11" d="M262.3,330.3c-1.1,0.3-2.2,0.8-3.3,1.3c11.3,7.1,23.9,14,29.5,14.2c-5.7-5.7-14-11.2-23.1-16.1
						c-0.3,0-0.5,0-0.8,0.1C263.9,329.9,263.1,330,262.3,330.3z"/>
				</g>
			</g>
		</g>
	</g>
</g>
</svg>
