<?xml version="1.0" encoding="utf-8"?>
<!-- Generator: Adobe Illustrator 23.1.1, SVG Export Plug-In . SVG Version: 6.00 Build 0)  -->
<svg version="1.1" id="Layer_1" xmlns="http://www.w3.org/2000/svg" xmlns:xlink="http://www.w3.org/1999/xlink" x="0px" y="0px"
	 width="140px" height="140px" viewBox="0 0 140 140" style="enable-background:new 0 0 140 140;" xml:space="preserve">
<style type="text/css">
	.st0{fill-rule:evenodd;clip-rule:evenodd;fill:#E5E6E7;}
	.st1{fill-rule:evenodd;clip-rule:evenodd;fill:#CCCCCC;}
	.st2{fill-rule:evenodd;clip-rule:evenodd;fill:#FEFEFE;}
	.st3{fill-rule:evenodd;clip-rule:evenodd;fill:#F16858;}
	.st4{fill-rule:evenodd;clip-rule:evenodd;fill:#C02729;}
	.st5{fill-rule:evenodd;clip-rule:evenodd;fill:#D0D2D4;}
	.st6{fill-rule:evenodd;clip-rule:evenodd;fill:#7C7C7C;}
	.st7{fill-rule:evenodd;clip-rule:evenodd;fill:#08C6A2;}
	.st8{fill-rule:evenodd;clip-rule:evenodd;fill:#FBC081;}
	.st9{fill-rule:evenodd;clip-rule:evenodd;fill:#4D4D4D;}
	.st10{fill-rule:evenodd;clip-rule:evenodd;fill:#B96F2D;}
	.st11{fill-rule:evenodd;clip-rule:evenodd;fill:#E4883A;}
	.st12{fill-rule:evenodd;clip-rule:evenodd;fill:#F99E3F;}
	.st13{fill-rule:evenodd;clip-rule:evenodd;fill:#F1698D;}
	.st14{fill-rule:evenodd;clip-rule:evenodd;fill:#D85E7F;}
	.st15{fill-rule:evenodd;clip-rule:evenodd;fill:#FAB943;}
	.st16{fill-rule:evenodd;clip-rule:evenodd;fill:#686868;}
	.st17{fill-rule:evenodd;clip-rule:evenodd;fill:#F26D6E;}
	.st18{fill-rule:evenodd;clip-rule:evenodd;fill:#808184;}
	.st19{fill-rule:evenodd;clip-rule:evenodd;fill:#ADECF7;}
</style>
<title>Artboard 23 copy 4</title>
<g id="Planning">
	<g>
		<polygon class="st0" points="49,20.9 49,20.9 70.2,80.5 25.3,96.6 4,36.9 		"/>
		<path class="st1" d="M18.9,63.4l35-12.5l0.7,1.7l-35,12.5L18.9,63.4z M13,47.1l35-12.5l0.7,1.7l-35,12.5L13,47.1z M15.9,55.3
			l35-12.5l0.7,1.7L16.6,57L15.9,55.3z M27.6,87.7l35-12.5l0.7,1.7l-35,12.5L27.6,87.7z M24.7,79.6l35-12.5l0.6,1.7l-35,12.5
			L24.7,79.6z M21.8,71.5l35-12.5l0.7,1.7l-35,12.5L21.8,71.5z"/>
		<polygon class="st2" points="125,11.5 125,11.5 125.1,104.4 55.1,104.4 55.1,11.5 		"/>
		<path class="st1" d="M63,50.2h54.6V53H63V50.2z M63,25h54.6v2.7H63V25z M63,37.6h54.6v2.7H63V37.6z M63.1,88.2h54.6v2.7H63.1V88.2
			z M63.1,75.5h54.6v2.7H63.1V75.5z M63.1,62.9h54.6v2.7H63.1V62.9z"/>
	</g>
	<g>
		<rect x="10" y="74.4" class="st2" width="37.1" height="40.8"/>
		<path class="st3" d="M47.2,74.4H28.5H9.7c-0.7,0-1.3-0.6-1.3-1.3V71c0-0.7,0.6-1.3,1.3-1.3h13.5c0-0.2,0-0.4,0-0.6
			c0-2.9,2.3-5.2,5.2-5.2s5.2,2.3,5.2,5.2c0,0.2,0,0.4,0,0.6h13.5c0.7,0,1.3,0.6,1.3,1.3v2C48.6,73.8,48,74.4,47.2,74.4L47.2,74.4z
			 M28.5,67.1c-1.1,0-2,0.9-2,2c0,1.1,0.9,2,2,2s2-0.9,2-2C30.5,68.1,29.6,67.1,28.5,67.1L28.5,67.1z"/>
		<path class="st4" d="M47.2,74.4H28.5H9.7c-0.7,0-1.3-0.6-1.3-1.3l0,0h40.2l0,0C48.6,73.8,48,74.4,47.2,74.4L47.2,74.4z"/>
		<polygon class="st5" points="40.9,115.2 47,109.1 40.9,109.2 		"/>
		<g>
			<path class="st6" d="M38.7,81.5H20.8c-0.5,0-0.9,0.4-0.9,0.9l0,0c0,0.5,0.4,0.9,0.9,0.9h17.8c0.5,0,0.9-0.4,0.9-0.9l0,0
				C39.6,81.9,39.2,81.5,38.7,81.5L38.7,81.5z"/>
			<path class="st6" d="M42.6,91.7H27.3c-0.5,0-0.9,0.4-0.9,0.9l0,0c0,0.5,0.4,0.9,0.9,0.9h15.3c0.5,0,0.9-0.4,0.9-0.9l0,0
				C43.5,92.1,43.1,91.7,42.6,91.7L42.6,91.7z"/>
			<path class="st7" d="M17.7,78.2c2.3,0,4.1,1.9,4.1,4.2c0,2.3-1.9,4.1-4.1,4.1c-2.3,0-4.2-1.9-4.2-4.1
				C13.5,80.1,15.4,78.2,17.7,78.2L17.7,78.2z"/>
			<path class="st6" d="M38.7,101.9H20.8c-0.5,0-0.9,0.4-0.9,0.9l0,0c0,0.5,0.4,0.9,0.9,0.9h17.8c0.5,0,0.9-0.4,0.9-0.9l0,0
				C39.6,102.3,39.2,101.9,38.7,101.9L38.7,101.9z"/>
			<path class="st7" d="M23.5,88.4c2.3,0,4.2,1.9,4.2,4.2c0,2.3-1.9,4.1-4.2,4.1c-2.3,0-4.1-1.9-4.1-4.1
				C19.3,90.3,21.2,88.4,23.5,88.4L23.5,88.4z"/>
			<path class="st7" d="M17.7,98.6c2.3,0,4.1,1.9,4.1,4.2c0,2.3-1.9,4.1-4.1,4.1c-2.3,0-4.2-1.9-4.2-4.1
				C13.5,100.5,15.4,98.6,17.7,98.6L17.7,98.6z"/>
		</g>
	</g>
	<g>
		<path class="st8" d="M34.7,119.1l5.6,1.4c4.4-2.5,4.9-4.9,0.2-7.3l-5.7,1.4C24.2,117.2,24.4,116.4,34.7,119.1L34.7,119.1z"/>
		<path class="st9" d="M31.9,115.3c-7,1.7-6.9,1.5-0.1,3.2c0.7-0.4,1.1-1,1.1-1.6C33,116.3,32.5,115.7,31.9,115.3L31.9,115.3z"/>
		<path class="st10" d="M76.2,115.6h-3.4l-30.2-0.1c-1.6,0-2.8-0.7-2.8-1.4l0,0c0-0.7,1.3-1.4,2.8-1.4l33.6,0.1c0.2,0,0.2,0,0.3,0
			H80c1.3,0,2.4,0.6,2.4,1.2l-0.1,1.6L76.2,115.6z"/>
		<path class="st11" d="M76.2,115.2h-3.4l-30.2-0.1c-1.6,0-2.8,0.7-2.8,1.6l0,0c0,0.8,1.2,1.6,2.8,1.6l30.2,0.1h3.4h6.2l0.1-3.2
			H76.2z"/>
		<path class="st12" d="M76,121.1h-1.3l-32.3-0.1c-1.6,0-2.8-0.7-2.8-1.7l0,0c0-0.9,1.3-1.6,2.8-1.6l30.2,0.1H76h6.2l-0.1,1.8
			c0,0.7-0.9,1.2-2.1,1.3L76,121.1z"/>
		<path class="st13" d="M88.7,114.9l-0.1,4.2c0,1.2-1,2.1-2.2,2.1H81c-1.2,0-2.1-0.9-2.1-2.1l0.1-4.2c0-1.2,1-2.1,2.2-2.1h5.5
			C87.8,112.9,88.7,113.8,88.7,114.9L88.7,114.9z"/>
		<path class="st14" d="M82.4,113.8l-0.2,6.6c0,0.5-0.4,0.9-0.9,0.9h-1.8c-0.5,0-0.9-0.4-0.8-0.9l0.2-6.6c0-0.5,0.4-0.9,0.9-0.9h1.8
			C82,112.9,82.4,113.3,82.4,113.8L82.4,113.8z"/>
	</g>
	<g>
		<path class="st2" d="M92.5,97.7h41.8c0.9,0,1.6,0.7,1.6,1.6V127c0,0.9-0.7,1.6-1.6,1.6H92.5c-0.9,0-1.7-0.7-1.7-1.6V99.2
			C90.9,98.4,91.7,97.7,92.5,97.7L92.5,97.7z"/>
		<path class="st15" d="M92.8,90.5h41.3c1,0,1.9,0.8,1.9,1.9v6.5c0,1-0.8,1.8-1.9,1.8H92.8c-1,0-1.9-0.8-1.9-1.8v-6.5
			C90.9,91.4,91.8,90.5,92.8,90.5L92.8,90.5z"/>
		<g>
			<path class="st16" d="M96.3,94.3c0.8,0,1.4-0.7,1.4-1.4c0-0.7-0.7-1.4-1.4-1.4c-0.8,0-1.5,0.7-1.5,1.4
				C94.8,93.6,95.4,94.3,96.3,94.3L96.3,94.3z"/>
			<path class="st16" d="M102,94.3c0.8,0,1.4-0.7,1.4-1.4c0-0.7-0.7-1.4-1.4-1.4c-0.8,0-1.4,0.7-1.4,1.4
				C100.6,93.6,101.2,94.3,102,94.3L102,94.3z"/>
			<path class="st16" d="M107.7,94.3c0.8,0,1.4-0.7,1.4-1.4c0-0.7-0.7-1.4-1.4-1.4c-0.8,0-1.4,0.7-1.4,1.4
				C106.3,93.6,107,94.3,107.7,94.3L107.7,94.3z"/>
			<path class="st16" d="M113.4,94.3c0.8,0,1.4-0.7,1.4-1.4c0-0.7-0.7-1.4-1.4-1.4c-0.8,0-1.4,0.7-1.4,1.4
				C112,93.6,112.7,94.3,113.4,94.3L113.4,94.3z"/>
			<path class="st16" d="M119.2,94.3c0.8,0,1.4-0.7,1.4-1.4c0-0.7-0.7-1.4-1.4-1.4c-0.8,0-1.4,0.7-1.4,1.4
				C117.7,93.6,118.4,94.3,119.2,94.3L119.2,94.3z"/>
			<path class="st16" d="M124.9,94.3c0.8,0,1.5-0.7,1.5-1.4c0-0.7-0.7-1.4-1.5-1.4s-1.4,0.7-1.4,1.4
				C123.5,93.6,124.1,94.3,124.9,94.3L124.9,94.3z"/>
			<path class="st16" d="M130.6,94.3c0.8,0,1.4-0.7,1.4-1.4c0-0.7-0.7-1.4-1.4-1.4c-0.8,0-1.5,0.7-1.5,1.4
				C129.1,93.6,129.9,94.3,130.6,94.3L130.6,94.3z"/>
		</g>
		<g>
			<path class="st2" d="M96.3,88L96.3,88c0.6,0,1.1,0.5,1.1,1.1v3c0,0.6-0.5,1.1-1.1,1.1l0,0c-0.6,0-1.1-0.5-1.1-1.1v-3
				C95.3,88.5,95.8,88,96.3,88L96.3,88z"/>
			<path class="st2" d="M102.1,88L102.1,88c0.6,0,1.1,0.5,1.1,1.1v3c0,0.6-0.5,1.1-1.1,1.1l0,0c-0.6,0-1.1-0.5-1.1-1.1v-3
				C101,88.5,101.5,88,102.1,88L102.1,88z"/>
			<path class="st2" d="M107.8,88L107.8,88c0.6,0,1.1,0.5,1.1,1.1v3c0,0.6-0.5,1.1-1.1,1.1l0,0c-0.6,0-1.1-0.5-1.1-1.1v-3
				C106.7,88.5,107.1,88,107.8,88L107.8,88z"/>
			<path class="st2" d="M113.5,88L113.5,88c0.6,0,1.1,0.5,1.1,1.1v3c0,0.6-0.5,1.1-1.1,1.1l0,0c-0.6,0-1.1-0.5-1.1-1.1v-3
				C112.4,88.5,112.9,88,113.5,88L113.5,88z"/>
			<path class="st2" d="M119.2,88L119.2,88c0.6,0,1.1,0.5,1.1,1.1v3c0,0.6-0.5,1.1-1.1,1.1l0,0c-0.6,0-1.1-0.5-1.1-1.1v-3
				C118.2,88.5,118.7,88,119.2,88L119.2,88z"/>
			<path class="st2" d="M125,88L125,88c0.6,0,1.1,0.5,1.1,1.1v3c0,0.6-0.5,1.1-1.1,1.1l0,0c-0.6,0-1.1-0.5-1.1-1.1v-3
				C123.9,88.5,124.4,88,125,88L125,88z"/>
			<path class="st2" d="M130.7,88L130.7,88c0.6,0,1.1,0.5,1.1,1.1v3c0,0.6-0.5,1.1-1.1,1.1l0,0c-0.6,0-1.1-0.5-1.1-1.1v-3
				C129.6,88.5,130.1,88,130.7,88L130.7,88z"/>
		</g>
		<g>
			<rect x="95" y="105.4" class="st17" width="4.5" height="4.5"/>
			<rect x="95" y="112.9" class="st17" width="4.5" height="4.5"/>
			<rect x="103.1" y="105.4" class="st18" width="4.5" height="4.5"/>
			<rect x="103.1" y="112.9" class="st18" width="4.5" height="4.5"/>
			<rect x="111.3" y="105.4" class="st18" width="4.5" height="4.5"/>
			<rect x="111.3" y="112.9" class="st18" width="4.5" height="4.5"/>
			<rect x="119.4" y="105.4" class="st18" width="4.5" height="4.5"/>
			<rect x="119.4" y="112.9" class="st18" width="4.5" height="4.5"/>
			<rect x="127.5" y="112.9" class="st18" width="4.5" height="4.5"/>
			<rect x="95" y="120.4" class="st17" width="4.5" height="4.5"/>
			<rect x="103.1" y="120.4" class="st18" width="4.5" height="4.5"/>
			<rect x="111.3" y="120.4" class="st18" width="4.5" height="4.5"/>
			<rect x="119.4" y="120.4" class="st18" width="4.5" height="4.5"/>
			<rect x="127.5" y="120.4" class="st18" width="4.5" height="4.5"/>
			<path class="st19" d="M130.1,111.2c2.4,0,4.3-2,4.3-4.3c0-2.4-1.9-4.3-4.3-4.3c-2.4,0-4.3,2-4.3,4.3
				C125.7,109.2,127.7,111.2,130.1,111.2L130.1,111.2z"/>
			<polygon class="st17" points="127.7,105.9 129.9,109.8 135.3,101 130.1,107 			"/>
		</g>
	</g>
</g>
</svg>
