<?xml version="1.0" encoding="utf-8"?>
<!-- Generator: Adobe Illustrator 23.1.1, SVG Export Plug-In . SVG Version: 6.00 Build 0)  -->
<svg version="1.1" id="Layer_1" xmlns="http://www.w3.org/2000/svg" xmlns:xlink="http://www.w3.org/1999/xlink" x="0px" y="0px"
	 width="140px" height="140px" viewBox="0 0 140 140" style="enable-background:new 0 0 140 140;" xml:space="preserve">
<style type="text/css">
	.st0{fill:#66240E;}
	.st1{fill:#00386F;}
	.st2{fill:#004A8E;}
	.st3{fill:#F5C185;}
	.st4{fill:#E2A971;}
	.st5{fill:#BEF4FF;}
	.st6{fill:#9EE2FF;}
	.st7{fill:#231F20;}
	.st8{fill:#2D2D2D;}
	.st9{fill:#5A3522;}
	.st10{fill:#FFC200;}
	.st11{fill:#FFFFFF;}
	.st12{fill:#D6D6D6;}
	.st13{fill:#F65338;}
	.st14{fill:#2D282D;}
	.st15{fill:#4C2A1B;}
	.st16{fill:#AA3229;}
	.st17{fill:#D22940;}
	.st18{fill:#E6E7E8;}
	.st19{fill:#D1D3D4;}
</style>
<title>Artboard 23 copy 4</title>
<g>
	<g>
		<path class="st0" d="M125.2,16.8c-0.1,0.2-0.1,0.4-0.1,0.6c0.3-0.7,1-1.2,1.8-1.3c0.8-0.1,1.6,0.1,2.2,0.5c1,0.6,1.8,1.6,1.9,2.8
			c-0.1-0.4-0.5-0.7-0.9-0.8c0.8,1.2,1.1,2.6,1,4.1c0,0.7-0.1,1.4-0.4,2.1c-0.5,1.3-1.4,2.3-2.1,3.5c-0.2,0.4-0.4,0.8-0.5,1.2
			c-0.1,0.4,0,0.9,0.3,1.2c0.3,0.4,0.8,0.5,1.3,0.4c0.5-0.1,0.9-0.3,1.3-0.7c-0.3,0.6-0.9,1.1-1.5,1.3c-0.8,0.3-1.7,0.2-2.4-0.2
			c-0.8-0.4-1.4-1.1-1.6-1.9c-0.1-0.3-0.2-0.7-0.2-1.1c0-0.4,0-0.8,0.1-1.2c0.1-0.4,0.4-0.8,0.6-1.1c0.5-0.7,1-1.4,1.4-2.1
			c0.4-0.7,0.7-1.6,0.7-2.4c0-0.4-0.1-0.7-0.3-1c-0.3-0.4-0.9-0.7-1.3-0.9C125.4,19.2,123.9,17.9,125.2,16.8z"/>
		<path class="st1" d="M115.9,117.6c1-1.3,3.9-0.8,5.3-0.6c0.5,0.1,1,0.1,1.6,0c0.2,0,1.3-0.1,1.3-0.4c0-0.4,0.3-0.6,0.6-0.7
			c-0.1-0.3,0-0.6,0.3-0.8c0,0,0.1,0,0.1-0.1c0.2-0.2-0.1-0.8,0.1-0.6c0.7,0.3,1.2,2.1,1.3,2.6c0.4,1.6-0.8,2.1-1.7,2.1
			c-3.1,0.1-6.3,0.3-8.5-0.4C115.7,118.7,115.6,118.1,115.9,117.6z"/>
		<path class="st2" d="M124.5,19.4c0.1-0.4,0.3-0.9,0.6-0.9c0.6-0.2,2.1,0.9,1.8,1.6c-0.3,0.6-0.9,0.4-1.3,0.2
			C125.1,20.1,124.4,20,124.5,19.4z"/>
		<path class="st3" d="M125.1,117.1c-1.5,0.8-3.9,0.4-5.4,0.3c-0.1,0-1.4-0.3-1.3-0.3c2.3-1.1,3.8-0.9,4.3-3.1
			c0.2-0.8,1.4-0.6,1.4,0.2c0-0.9,1.4-0.9,1.4,0c0,0.8,0.8,2,0.1,2.6C125.4,117,125.3,117.1,125.1,117.1z"/>
		<path class="st1" d="M130,114.1c0.1-0.4,0.3,0.9,0.6,0.8c0.5-0.1,1.1-0.1,1.6,0.1c0.1-0.4-0.1-1.7,0.3-1.4
			c1.1,0.9,1.6,3.7,1.6,5.1c0.1,1.6,0.2,3.3-1.1,4.2c-2,1.4-2.8-2.1-3-3.9C129.8,117.8,129.8,115.2,130,114.1z"/>
		<path class="st3" d="M130.5,114.3c0.2-0.4,0.5-0.6,0.9-0.4c-0.1-0.1,0.6-0.4,0.8-0.4c0.4,0.1,0.6,0.8,0.7,1.1
			c0.4,0.9,0.7,1.8,0.9,2.8c0.3,1.4-0.9,3.4-2.5,2.3c-0.9-0.7-1.2-1.9-1.2-3C130,116.2,130.1,115,130.5,114.3z"/>
		<path class="st1" d="M113.9,65.8c0.2-1,0.3-2,0.4-3c0.6-0.4,1.3-0.8,1.9-1c1.1-0.4,2.4-0.5,3.4,0.1c0.1,0.1,0.2,0.1,0.3,0.2
			c0.4-0.2,0.9-0.1,1.4,0.1c1.1,0.4,1.6,1.6,2,2.7c0.4,1.2,0.6,2.4,0.8,3.7c0.3,2.4,0.4,5,0.3,7.5c-0.1,2-0.4,3.9-0.6,5.9
			c-0.1,1.9,0,3.9,0.3,5.8c1.3,8.7,3,17.8,3,26.7c-2.4,1.4-3.7,0.1-4.9-0.1c-0.6-0.1-1.3-11.5-1.4-12.5c-1.4-8.7-3.6-16.1-5.9-23.9
			c-0.4-1.4-0.8-2.8-0.9-4.2C113.4,71.2,113.4,68.5,113.9,65.8z"/>
		<path class="st2" d="M127.8,102.9c-1.2-7.8-3.1-15.6-5.1-23.2c-0.4-1.4-0.8-2.9-1.1-4.4s-0.6-3.1-0.7-4.6
			c-0.1-0.4-0.1-0.9-0.1-1.3c-1-1.3-2-2.8-1.9-4.4c0-0.4,0.3-0.6,0.6-0.6c0,0,0,0,0.1,0c-0.1-0.6,0.8-1,1.2-0.4
			c0.1,0.1,0.1,0.1,0.1,0.2c0-0.1,0.1-0.1,0.1-0.2c0.6-1.1,1.7-1.6,2.8-2c1.1-0.4,2.4-0.5,3.4,0.1c0.1,0.1,0.2,0.1,0.3,0.2
			c0.1,0,0.1,0,0.1-0.1c0.4-0.1,0.9-0.1,1.3,0.1c1.1,0.4,2.6,5.1,2.8,6.3c0.3,2.4,0.4,5,0.3,7.5c-0.1,2-0.4,3.9-0.6,5.9
			c-0.1,1.9,0,3.9,0.3,5.8c0,0.1,0.1,0.3,0.1,0.4c1.3,8.5,3,16.8,3.1,25.4c0,0.6-1.6,1.4-2.3,1.6l0,0c-0.4,0.1-0.7,0.1-1.1,0.1
			c-0.4,0-1.4-0.3-2.3-0.6C128.9,110.7,128.5,106.8,127.8,102.9z"/>
		<path class="st0" d="M118.4,29.4c-1.9-2.8-2.6-6.1-0.1-8.7c0.9-0.9,2.1-1.6,3.5-1.8c1.3-0.2,2.5,0.2,3.5,0.8h0.1
			c3.2,0.9,3.7,4.6,2.8,7.4c-0.3,1.1-1,2-1.8,2.9c-0.7,0.9-1.4,1.7-1.9,2.7c-0.3,0.7-0.5,1.4-0.5,2.1c-0.7,0.1-1.4,0.1-2.1,0.1
			C121.4,32.8,119.7,31.2,118.4,29.4z"/>
		<path class="st3" d="M121.2,36.7c0.9,0.8,2.8,1.1,3.6,0c0.4,0,0.8-0.4,0.6-1c0-0.1,0-0.1-0.1-0.2c0-0.1,0-0.2-0.1-0.3
			c-0.1-0.4-0.1-0.8-0.1-1.1c0-0.1-0.1-0.3-0.1-0.4s0-0.2,0-0.3c0-0.3-0.1-0.4-0.1-0.5v-0.1c0-0.1-0.1-0.2-0.1-0.3
			c-0.2-0.9-1.1-0.7-1.2,0c-0.1,0.1-0.3,0.3-0.4,0.5c0,0.1,0,0.1-0.1,0.1c-0.1,0.2-0.1,0.4-0.1,0.6l0,0l0,0
			c-0.3-0.2-0.5-0.1-0.7,0.1c-0.1-0.1-0.2-0.1-0.3-0.1c0-0.1-0.1-0.1-0.1-0.1s-0.1-0.2-0.1-0.3c-0.3-0.6-1-0.4-1.1,0.3
			c-0.1,0.1-0.1,0.3,0,0.4c0.1,0.2,0.1,0.4,0.1,0.6c0,0.1,0,0.3-0.1,0.4l0,0c0,0.3-0.1,0.6-0.1,0.8C120.9,36,120.9,36.4,121.2,36.7z
			"/>
		<path class="st0" d="M118.2,20.7c0.3,1.1,0.8,2.1,1.9,2.4c1.1,0.4,2.4,0.1,3.3-0.5c1.1-0.6,1.8-1.8,1.9-3h-0.1
			c-1.1-0.6-2.3-1-3.5-0.8C120.4,19,119.2,19.7,118.2,20.7z"/>
		<path class="st4" d="M120.9,33.9c0.1,0.2,0.1,0.4,0.1,0.6c0,0.1,0,0.3-0.1,0.4l0,0c0,0,1.4,2.7,4.3,0.2c0-0.1-0.2-1.4-0.2-1.6
			c0-0.1,0-0.2,0-0.3c0-0.3-0.1-0.4-0.1-0.5v-0.1l-1.6,0.4l-1.3,0.3l-1.1,0.3C120.9,33.6,120.9,33.8,120.9,33.9z"/>
		<path class="st3" d="M118.2,23.3c0.2-0.2,0.4-0.4,0.8-0.5c0.6-0.3,1.6,0,2.3-0.1c1.1-0.2,2.7-0.6,3.6,0.3c0.8,0.8,0.6,2.1,0.8,3.3
			c0,0.3,0.1,0.4,0.1,0.7c0,0,0,0,0.1,0c0.3-0.3,0.6-0.3,0.9-0.3c0.3,0,0.6,0.2,0.6,0.4c0.1,0.9-0.3,1.7-1,2.3l0,0
			c0.1,0.4,0.1,0.8,0,1.2c-0.2,1.4-1.1,2.4-2.1,3.3c-0.9,0.9-1.9,1-3.1,0.7c-1.2-0.4-1.8-1.3-2.2-2.4c-0.5-1.2-0.9-2.4-1-3.7
			C117.9,26.8,117,24.6,118.2,23.3z"/>
		<path class="st3" d="M128.8,47.6c0-1.1-0.2-8.8,0.8-9.7c0.4-0.3,1.1,0.7,1.3,0.9c0.7,0.9,0.8,2.1,1.1,3.2c0.8,3,0.9,6,1,9.1
			c0.1,3.7,0.6,7.5,1,11.1c0.2,2.1,0.3,4.3,0.3,6.4c0,1.1,0,2.3,0,3.4c0,0.6,0,1.3-0.4,1.6c-0.8,0.5-1-0.7-1.1-1.4
			c-0.3-1.4-0.6-2.8-0.8-4.2c-0.6-3.2-1.3-6.4-1.5-9.7c-0.1-1.1-0.3-2.1-0.6-3.1c-0.5-2.1-0.9-4.5-1.1-6.7c0-0.3,0-0.6,0-0.9
			C128.8,47.6,128.8,47.6,128.8,47.6z"/>
		<path class="st3" d="M109.4,55.6c-0.3,0.2-0.5,0.4-0.8,0.6c-1.1,0.9-2.1,1.7-3.3,2.5c-0.6,0.4-2.7,2.5-3.1,1.3
			c-0.1-0.4-0.1-0.4,0.1-0.8c0.8-1.8,2.2-3.3,3.4-4.7c1.2-1.3,2.5-2.6,3.8-3.8c1.3-1.1,1.2-2.5,1.6-4c0.5-2,1.2-4,2.1-5.9
			c0.5-1.2,1.7-4.4,3.2-4.7c0.8-0.1,0.8,1.7,0.3,1.9c0.2,1.2,0.3,2.5,0.1,3.8c0.1,0.1,0.1,0.3,0.1,0.5c-0.4,2.2-1.3,4-2.3,5.9
			c-0.6,1.3-1.2,2.6-1.8,3.8C112,53.4,110.7,54.5,109.4,55.6z"/>
		<path class="st5" d="M112.9,40.2c-0.8,2.9-1.6,5.8-2.4,8.7c-0.1,0.4-0.2,0.8-0.4,1.1c-0.3,0.3-0.6,0.6-0.9,0.8
			c-1.8,1.3-5.4,5.9-5.5,6.3c-0.2,1,1.3,1.3,2.1,2c1.7-0.9,3.2-2.1,4.6-3.4c1-0.9,2-1.8,2.8-2.8c0.7-0.9,1.1-2,1.6-3.1
			c0.9-2.3,1.5-4.6,1.9-7c0.3-1.4,1.7-5.9-0.1-6.6C114.2,36.4,113.2,39.1,112.9,40.2z"/>
		<g>
			<path class="st1" d="M127.6,62.2c0.1,0.6,0.5,1.2,1,1.4c0.1,0.2,0.3,0.4,0.4,0.6c0.1,0.1,0.1,0.1,0.1,0.2
				c0.1,0.1,0.1,0.3,0.1,0.4c0.1,0.3,0.3,0.7,0.3,1c0.4,1.4,0.6,2.9,0.9,4.4c0.1,0.3,0.1,0.5,0.1,0.8c0,0.1,0,0.1,0,0.2
				c0,0.1,0,0.3,0.1,0.4c0.1,1.1,0.1,2.1,0,3.1c-0.1,2.1-0.5,4.1-0.6,6.1c-0.2,4.3,0.7,8.7,1.5,12.9c0.2,1,0.4,2.1,0.6,3.1
				c0.1,0.6,0.2,1.1,0.3,1.7c0.1,0.3,0.1,0.5,0.1,0.8c0,0.1,0.1,0.3,0.1,0.4c0.3,1.9,0.3,3.9,0.4,5.9c0.1,1.7,0.2,3.4,0.2,5.1
				c0,0.4,0,0.9,0,1.3c0,0.3-0.2,0.9-0.1,1.2c0-0.1,0.1-0.4,0-0.1v0.1l0,0l0,0c0,0.1,0,0.1-0.1,0.2c-0.1,0.2-0.1,0.3-0.1,0.5
				c-0.1,0.1-0.1,0.3-0.1,0.4c0,0.1-0.1,0.4-0.1,0.4s0.1-0.1,0.1-0.3c-0.1,0.3-0.2,0.6-0.3,0.8l0,0c0.7-0.1,2.3-0.9,2.3-1.6
				c-0.1-8.6-1.8-17-3.1-25.4c0-0.1-0.1-0.3-0.1-0.4c-0.3-1.9-0.4-3.9-0.3-5.8c0.1-2,0.4-3.9,0.6-5.9c0.2-2.4,0.1-5-0.3-7.5
				c-0.1-1.3-1.7-5.9-2.8-6.3C128.5,62.1,128,62,127.6,62.2z"/>
			<path class="st1" d="M132.9,113.1L132.9,113.1L132.9,113.1z"/>
		</g>
		<path class="st3" d="M114.6,60.3c0.3-1,0.8-1.9,1.1-2.9c0.4-1.1,0.5-2.3,0.4-3.4c-0.1-2.1-0.8-4.2-1.1-6.3v-0.1c0,0,0,0,0-0.1
			c0-0.1,0-0.3-0.1-0.4c0-0.3,0-0.4,0-0.7s0-0.5,0.1-0.8v-0.1c0-0.1,0-0.2,0.1-0.3c0.2-1,0.4-2,0.7-3c0.6-2.1,0.9-4.3,0.7-6.4
			c1.1-0.3,2.3-0.3,3.4-0.5c0.7-0.1,1.3-0.3,1.8,0.1c0.3,0.2,0.7,0.5,1.1,0.6c0.7,0.1,1.1-0.3,1.7-0.6c0.3-0.1,0.4-0.1,0.7-0.2
			c0.5,0,1.1,0.5,1.6,0.8c1.1,0.5,2.1,0.9,3.2,1.4c0.6,0.3,0.9,0.6,0.9,1.2c0.1,0.9-0.4,1.7-0.4,2.5c-0.1,1.1-0.3,2.3-0.6,3.4
			c-0.5,2.2-1.4,4.3-1.9,6.5c-0.4,1.9-0.3,3.3,0.3,5.1c0.4,1.1,0.8,2.3,1.3,3.4c0.2,0.6,0.7,1.2,0.7,1.8c0.1,1.3-2.6,1.7-3.6,1.9
			c-2.1,0.6-4.2,1.1-6.3,1.3c-1.3,0.1-2.6,0.1-3.9-0.2c-0.6-0.2-1.6-0.5-2.3-1C114.2,63,114.5,60.6,114.6,60.3z"/>
		<path class="st5" d="M114.9,50.3c-0.1-0.4-0.3-0.8-0.4-1.1l0,0c0,0,0-0.1-0.1-0.1c-0.3-0.5-0.7-0.8-0.9-1.4
			c-0.8-2.2,1-4.5,1.8-6.4c0.6-1.6,0.6-3.3,0.6-5c0.3-0.1,0.5-0.2,0.8-0.3c0-0.1,3.6-0.9,4.1-0.6c0.4,1.1,1.3,3.6,1.4,3.8
			c0.1-0.1,0.4-0.6,0.8-1.4c0.8-0.9,2.1-1.6,3-2.2c0.4,0.1,3.3,1.8,3.7,1.9c-0.8,1.1-1.1,2.7-1.3,4c-0.2,1-0.4,2.1-0.4,3.1
			c0,0.3,0,0.7,0.1,1l0,0c0.1,0.9,0.4,1.9,0.7,2.8c-0.3,0.9-0.6,1.9-0.8,2.9c-0.4,1.9-0.3,3.3,0.3,5.1c0.4,1.1,0.8,2.3,1.3,3.4
			c0.2,0.6,0.7,1.2,0.7,1.8c0.1,0.8-0.8,1.2-1.7,1.4c-0.7,0.3-1.4,0.4-1.8,0.5c-2.1,0.6-4.2,1.1-6.3,1.3c-1.3,0.1-2.6,0.1-3.9-0.2
			c-0.6-0.2-1.6-0.5-2.3-1c0.1-0.7,0.1-1.3,0.1-2c0.2-1.1,0.3-2.1,0.5-3.2c0-0.1,0.1-0.3,0.1-0.4c0,0,0-0.1,0-0.2
			c0.1-0.3,0.1-0.5,0.1-0.8c0.1-0.6,0.2-1.1,0.3-1.6c0.2-1.4,0.1-2.9-0.1-4.4C115.1,50.9,115,50.6,114.9,50.3z"/>
		<path class="st6" d="M114.5,49.1L114.5,49.1C114.6,49.2,114.6,49.2,114.5,49.1c0.3,0.4,0.4,0.8,0.5,1.2c0.6,0.1,1.3-0.1,2.1-0.5
			C116.1,50,115.1,49.6,114.5,49.1z"/>
		<path class="st6" d="M126.4,50.5c-0.4,2.1-0.6,5.6,0,7c0.4,1.1,1.6,4.3,2.1,5.8c0.9-0.3,1.8-0.8,1.7-1.4c0-0.6-0.5-1.3-0.7-1.8
			c-0.4-1.1-0.8-2.3-1.3-3.4c-0.6-1.8-0.8-3.3-0.3-5.1c0.2-1,0.5-1.9,0.8-2.9c-0.4-0.9-0.6-1.8-0.7-2.8c0,0.3-0.1,3.8-1.6,3.9
			c-1.5,0.2-2.5,0-2.5,0S125,50.8,126.4,50.5z"/>
		<path class="st3" d="M132.3,78.2c0.6,0.3,1.1,1.1,1.8,0.7c0.5-0.3,0.8-1.2,1.1-1.8c0.4-0.9,0.4-1.5,0.1-2.4
			c-0.2-0.6-0.4-1.3-0.6-1.9c-0.1-0.1-0.1-0.3-0.2-0.4c0-0.1,0-0.1-0.1-0.2c-0.1-0.1-0.1-0.1-0.1-0.2c-0.1-0.2-0.1-0.4-0.1-0.6
			c0-0.5-0.6-0.5-0.6,0c0,0.1,0,0.1,0,0.1c-0.2-0.1-0.4-0.1-0.5,0c-0.5,0.1-0.6,0.9-0.8,1.4c-0.2,0.9-0.5,1.8-0.2,2.6
			c0.1,0.4,0.3,0.8,0.6,1.1l0,0c-0.1,0.2,0,0.4,0.1,0.5c0.1,0.1,0.3,0.2,0.5,0.3c-0.1,0-0.1-0.1-0.2-0.1c-0.1-0.1-0.3-0.1-0.4-0.2
			c-0.3-0.2-0.4,0.1-0.4,0.4C132.1,77.5,132,78.1,132.3,78.2z M134,76.7c0,0.1,0,0.2-0.1,0.3c-0.1-0.1-0.2-0.3-0.4-0.3
			c0-0.1,0-0.1,0-0.2c-0.1-0.3-0.3-0.9,0-0.9C134,75.4,134,76.4,134,76.7z"/>
		<path class="st3" d="M99.4,59.8c-1.3,0.4-2.4,1.1-3.9,2.1c-0.3,0.1-0.4,0.3-0.2,0.6c0.1,0.1,1.5-0.5,2.1-0.9
			c-0.7,0.4-1.8,0.9-2.2,1.5c0.1,0.2,0.9,0.1,1.1-0.1c0.5-0.4,1.2-0.8,1.8-1.1c-0.6,0.4-1.3,0.9-1.7,1.5c-0.1,0.1,0.1,0.2,0.2,0.1
			c0.8-0.3,1.7-0.6,2.2-1.1c-0.5,0.4-1.2,0.6-1.5,1.1c0.6,0.1,3.8-0.9,4.5-1.3c0.8-0.3,1.4-0.8,1.8-1.4c0.3-0.4,0.1-1.1-0.4-1.4
			c-0.5-0.3-0.9-0.3-1.5,0C100.8,59.5,100,59.5,99.4,59.8z"/>
		<path class="st5" d="M131.8,39.8c0.8,1.6,0.9,3.5,1,5.3c0.5,6.2,0.9,12.4,1.4,18.6c0.1,1.9,0.3,3.8-0.1,5.6
			c-0.8,0.2-1.5,0.3-2.3,0.3c-1.8-7.8-2.3-13.4-3.6-20.9c-0.3-1.4-0.8-4.1-0.8-5.5c-0.1-1.9,0.5-2.9,1.2-4.7
			C129.6,36.5,131.2,38.4,131.8,39.8z"/>
		<path class="st3" d="M98.7,59c-0.2-0.1-0.4-0.2-0.6,0c-0.1,0.1-0.1,0.3,0,0.3c0.1,0.1,0.1,0.2,0.2,0.3c0.4,0.3,0.9,0.6,1.5,0.7
			c0.6,0.1,1.2,0,1.7-0.4c0.3-0.3,0.6-0.5,0.9-0.6c-0.4-0.6-0.9-0.4-1.6-0.2C100.1,59.3,99.3,59.3,98.7,59z"/>
		<polygon class="st6" points="123.9,39.5 122.9,37.9 125.3,34.9 126.2,35.9 		"/>
		<polygon class="st6" points="121.6,38 120.3,38.8 120.4,35.2 120.9,34.8 		"/>
		<path class="st6" d="M122.2,39.3c0,0-2,4.6-2.3,7.1c-0.4,4.5,0,18.7,0,18.7s-0.5,0.1-0.9,0c-0.3-0.1,0.3-18.3,0.4-19.2
			c0.1-2.1,2.6-7.1,2.6-7.1L122.2,39.3z"/>
		<polygon class="st6" points="106,59.1 103.6,60.1 102.2,58.5 103.6,56.8 		"/>
		<polygon class="st6" points="134.7,68.4 134.3,71.1 132.5,71.5 131.6,68.6 		"/>
	</g>
	<g>
		<path class="st5" d="M30.8,36.6c0,0,4.6,15.9,3.9,19.9c-0.7,4-6.4,14.2-6.4,14.2l-1.1-8.4c0,0,2.8-5.3,2.6-6.3
			c-0.2-1.1-1.3-8.3-1.3-8.3L30.8,36.6z"/>
		<path class="st7" d="M27.8,117.1l8.6,1.9c0.7,0.2,1.2,0.8,1.2,1.5l0,0c0,0.9-0.7,1.6-1.6,1.6H23.9c-1,0-1.7-0.9-1.5-1.8l0.4-1.9
			c0.1-0.8,0.8-1.3,1.5-1.3h3.3C27.6,117.1,27.7,117.1,27.8,117.1z"/>
		<path class="st8" d="M15.9,118.5l8,3.1c0.8,0.3,0.9,1.3,0.5,2.2l0,0c-0.6,1-1.7,1.7-2.6,1.5l-9.1-1.7c-0.6-0.1-0.9-0.9-0.8-1.8
			l0.3-2c0.1-0.8,0.6-1.5,1.1-1.5h2.5C15.7,118.5,15.8,118.5,15.9,118.5z"/>
		<path class="st1" d="M19.5,71.2c0.2,1,0.3,2,0.5,3C19.7,73.9,19.5,71.8,19.5,71.2C19.5,71,19.5,71,19.5,71.2
			C19.5,71.2,19.5,71.2,19.5,71.2z"/>
		<path class="st1" d="M31.3,86.8c0,0.9-0.4,30.1-1,30.6c-0.7,0.6-1.6,1-2.5,1.4c-1.8,0.8-3.1-0.2-5-0.3c-0.8-0.1,0.1-27.7,0-28.4
			c-0.1-0.9-1.3-7.1-2.4-13.6c-0.1-0.8-0.3-1.5-0.4-2.2c0.1,0.1,0.1,0.1,0.1,0c-0.1-0.8-0.1-1.9-0.2-3.1c-0.1-1.4-0.1-3.1-0.1-4.3
			c0-0.4,0-0.7,0.1-0.9c0-0.2,0.1-0.3,0.1-0.4c0.4-1,2.3-0.9,2.2,0.4c0,0.4-0.1,0.9-0.1,1.3l0,0c0.2-0.8,0.3-3.9,0.3-4.8
			c0-0.3,0.1-0.6,0.2-0.7c0.1-0.7,0.6-1.3,1.4-1.1c0.6,0.2,1.1,0.4,1.7,0.6c0.4-0.8,1.8-0.9,2.2,0.2c0,0.1,0,0.1,0.1,0.1
			c0.4,1.1,0.4,4.7,0.4,5.9C28.8,74.7,31.3,84.9,31.3,86.8z"/>
		<path class="st9" d="M29,17.7C29,17.6,29,17.6,29,17.7c-0.1-0.3-0.1-0.4-0.1-0.6c-0.1-0.6-0.4-0.9-0.9-1.1c0-0.1,0-0.2,0-0.3
			c-0.1-1.8-1.6-1.5-3-1.1c0,0,0,0,0-0.1c-0.8-1.4-2.3-0.9-3.4-0.5c-0.3,0.1-0.4,0.2-0.7,0.1c-0.3-0.1-0.6-0.3-1-0.3
			c-0.9,0-1.5,0.6-2.3,0.9c-1.1,0.4-2.1,1-2.7,2.1c-0.1,0.3-0.2,0.4-0.3,0.7c-0.6,0.9-0.8,2.1-0.9,3.1c-0.1,2.3,0.5,4.3,1.4,6.5
			c0.1,0.5-0.1,1.4,0.1,1.9c0,0.1,0.1,0.3,0.3,0.4c1.8,1.2,3.9,1.3,5.8,0.1c0.7-0.4,0.1-1.6-0.6-1.1c-0.4,0.3-0.8,0.4-1.1,0.6
			c-0.1-0.3-0.5-0.4-0.6-0.7c0-0.1-0.1-0.1-0.1-0.1c-0.4-0.8-0.9-1.6-1.1-2.4c-0.3-0.9,0.1-1.7,0-2.6c0-0.4-0.4-0.7-0.8-0.7
			c0.2-0.6,0.4-1.1,0.4-1.7c0-0.1,0-0.3-0.1-0.4c0.3-0.1,0.6-0.1,0.9-0.1c0.8,0.1,1.6,0.3,2.4,0.4c2.1,0.4,5,0.6,6.3-1.4
			c0,0.3,0,0.6-0.1,0.9c-0.4,1.2-1.4,2.1-1.7,3.4c-0.2,0.8,1.1,1.1,1.3,0.3c0.3-1.3,1.4-2.3,1.8-3.5c0.1-0.3,0.1-0.6,0.1-1
			C29,19.1,29.2,18.4,29,17.7z M18.9,19.2c0.1,0,0.1,0,0.1-0.1l0.1,0.1l0,0C19.1,19.3,19,19.3,18.9,19.2z M22.3,19.8
			c-0.3,0-0.6-0.1-0.9-0.1c0.9-0.1,1.8-0.3,2.4-0.6l0,0c0.1,0.1,0.2,0.2,0.3,0.3c0,0.1,0.1,0.1,0.1,0.2c0.1,0.1,0.4,0.2,0.6,0.2
			C24.1,19.9,23.1,19.8,22.3,19.8z M25,19.6c0.1,0,0.1-0.1,0.2-0.1c0.1-0.1,0.1-0.1,0.1-0.1s0.1,0,0.2,0h0.1
			C25.4,19.5,25.2,19.5,25,19.6z"/>
		<path class="st3" d="M17.2,33.8c0,0.8,0.3,1.5,0.9,1.9c0.8,0.4,1.7,0.8,2.6,0.9c1.4,0.1,3.8-0.3,3.7-1.9c0-0.2,0-0.9,0-1.8
			c0-0.8,0-1.6-0.1-2.3c-0.1-1-0.1-1.8-0.2-1.8c-0.5-0.3-1.3-0.1-1.6,0.3c-0.1,0-0.3,0.1-0.3,0.1c-0.2,0.1-0.4,0.2-0.5,0.4l0,0
			c-0.1-0.1-0.3-0.1-0.5-0.1c-0.3-0.3-0.8-0.4-1.1-0.4c-0.4-0.2-0.9-0.2-1.3,0c0.1-0.1,0-0.3-0.2-0.4c-0.1,0.7-0.3,1.4-0.5,2.1
			C17.9,31.7,17.6,32.7,17.2,33.8z"/>
		<path class="st4" d="M18.2,30.5c2.2,3.8,5.1,2.9,6.3,2.3c0-0.8,0-1.6-0.1-2.3c-0.3-0.2-1.1-0.8-2.2-1.4c-0.2,0.1-0.4,0.2-0.5,0.4
			l0,0c-0.1-0.1-0.3-0.1-0.5-0.1c-0.3-0.3-0.8-0.4-1.1-0.4c-0.4-0.2-0.9-0.2-1.3,0c0.1-0.1,0-0.3-0.2-0.4
			C18.5,29.2,18.3,29.9,18.2,30.5z"/>
		<path class="st3" d="M17.3,26.2c-0.2-0.5-0.6-0.4-0.9-0.8c-0.6-0.6-1-1.8-0.6-2.5c0.3-0.6,0.9-1.1,1.6-0.9c0.1,0,0.1,0,0.1,0
			c-0.1-0.3-0.1-0.6-0.2-1c0-0.4,0-0.8,0-1.1c0.1-0.2,0.2-0.3,0.3-0.5c0.5-0.8,1.8-1.1,2.8-1.2c2.3-0.1,4.8,1.1,6.9-0.1
			c0.1,0.1,0.1,0.3,0.1,0.3c0.3,1.9-0.3,4.1-0.6,6c-0.1,0.5-0.1,1-0.1,1.5c-0.1,0.5-0.1,0.9-0.2,1.4l0,0c-0.1,0.9-0.4,1.8-0.9,2.6
			c-0.1,0.4-0.3,0.8-0.4,1.1c-0.6,0.9-1.6,0.9-2.6,0.9c-0.9,0-1.8-0.1-2.5-0.7c-0.6-0.6-1.3-1.5-1.7-2.3
			C17.7,28.2,17.6,27.2,17.3,26.2z"/>
		<path class="st2" d="M21.8,69.9c0,0.3,0,0.6,0,1.1c0,1.3,0.1,3.3,0,3.9c-0.1,1.1-0.6,1.1-1.4,1.4c-0.1,0.1-0.2,0.1-0.3,0.1
			c-0.1,4.3-1.6,32.9-1.3,42.6c0,0.6-5.6,1.2-7.4,0.4c-0.9-0.4-0.8-1.6-0.8-2.6c0.1-2.6-0.1-36.3-0.9-42.1c-0.1-0.5-0.1-1-0.1-1.6
			c0.1-1.7,0.6-3.4,0.9-5.1c0.2-0.9,0.4-1.9,0.9-2.7l6.4,0.9c0,0,0.7,0.1,1.7,0.3c0-0.4,0-0.7,0.1-0.9c0-0.2,0.1-0.3,0.1-0.4
			c0.7-0.5,1.9-0.2,1.9,0.9c0,0.3,0,0.6,0,0.9C22,68.3,21.9,69.1,21.8,69.9z"/>
		<path class="st1" d="M26.1,69.9c-0.8,0.6-2.4,0.9-4.4,1.1c-0.6,0.1-1.2,0.1-1.8,0.1c-0.2,0-0.3,0-0.5,0c0,0,0,0-0.1,0
			c-2.8,0.1-5.4,0-6-0.4c-1.3,1.7-3.5,3.9-3.5,3.9l-0.1-1.4c0.1-1.7,0.6-3.4,0.9-5.1c0.2-0.9,0.4-1.9,0.9-2.7l6.4,0.9
			c0,0,0.7,0.1,1.7,0.3c0.6,0.1,1.3,0.3,2.1,0.5C24.6,68.1,27.3,69,26.1,69.9z"/>
		<path class="st5" d="M25.2,33.7c-0.1,0.1-0.3,0.1-0.3,0.1c-0.3,0.1-0.3,0.3-0.4,0.5c-0.4,0.6-1.3,1.2-3.1,1.3
			c-3.3,0.1-4.2-1.8-4.2-1.8l-0.1,0.1c-0.1-0.1-0.3-0.1-0.5-0.1c-1.4,0.4-3.1,0.6-4.6,1.1H12c-0.4,0.1-0.8,0.2-1.1,0.3
			c-0.8,0.3,0.7,11.7,0.6,12.3c-0.1,1.8,0.4,4.1,0.3,5.9c-0.3,2,0,4.1-0.3,6.1c-0.1,0.4-0.1,0.9-0.1,1.3c-0.2,0.8-0.3,5.3-0.1,6.1
			c0.2,0.8,6.8,2,9.1,2.3c2.3,0.2,4.7,0.6,6.4-1.1c0.9-0.9,1.4-1.1,1.8-2.4c0.4-1.6-0.3-14.2-0.2-15c0-1.5-0.1-3.2,0.2-4.7
			C28.5,42.2,31,33.7,25.2,33.7z"/>
		<path class="st3" d="M8.8,78.6c0.1-0.3,0-0.6-0.2-0.8c0.3-0.8,0.4-1.7,0.1-2.6c0.1-0.1,0.1-0.2,0.1-0.4c0-0.9-0.1-1.9-0.4-2.8
			c-0.1-0.3-0.3-0.6-0.6-0.8C7.5,71,7.2,71.2,6.9,71C6.8,71,6.7,71,6.7,71c-0.4-0.5-1.1-0.6-1.4,0.3c-0.4,1.3-0.4,2.9-0.4,4.3
			c0.1,0.9,0.3,1.6,0.6,2.2C5.7,78.4,6,79,6.4,79.3l0,0c0.1,0.1,0.1,0.1,0.1,0.1c0.6,0.9,1.7,0.5,2.4,0.3
			C9.6,79.7,9.4,78.4,8.8,78.6z M7.6,77.2c-0.1-0.2-0.3-0.4-0.4-0.6v-0.1c0,0.1,0-0.4,0-0.5v-0.1c0.1,0.1,0.2,0.1,0.3,0
			c0.1,0,0.1-0.1,0.1-0.1s0,0.1,0,0.1c0.1,0.2,0.1,0.4,0.2,0.6c0.1,0.3,0.1,0.5,0.1,0.8C7.7,77.4,7.6,77.3,7.6,77.2z"/>
		<polygon class="st5" points="4.8,70.1 4.7,71.9 8.4,71.9 8.4,69.1 		"/>
		<path class="st9" d="M16.3,21.3c0,0,0.5,3,1.2,3.1s-0.4-3.1,0.1-4.9C18.1,17.7,16.3,21.3,16.3,21.3z"/>
		<path class="st5" d="M15.3,34.1c0,0,5.9,13.5,5.9,14.7c0,1-9.7-1.1-9.7-1.1l-1.6,7.6l-1,15c0,0.3-0.3,0.6-0.6,0.6H4.5
			c0,0-0.1-12.5,0.4-15.5c0.4-3,1.2-19,4.4-20C12.5,34.4,15.3,34.1,15.3,34.1z"/>
		<path class="st5" d="M25.2,33.7c0,0,4.1,0.4,5.6,2.9c1.6,2.4-2.3,11.1-2.3,11.1l-5.3,1L25.2,33.7z"/>
		<polygon class="st6" points="22.6,35.6 23.6,69.4 22.6,69.4 21.8,35.6 		"/>
		<polygon class="st7" points="22.3,43.2 16.5,33.9 16.7,33.7 22.3,42.7 25.3,33.7 25.5,33.7 		"/>
		<polygon class="st6" points="22.3,35.6 17.6,32.5 16.6,33.8 20.8,37.7 		"/>
		<polygon class="st6" points="22.3,35.6 23.4,37.5 25.4,33.7 24.6,32.8 		"/>
		<g>
			<path class="st10" d="M22.2,42.4L22.2,42.4h0.1c0.1,0,0.2,0.1,0.2,0.2v1.1h-0.3h-0.3v-1.1C22,42.4,22.1,42.4,22.2,42.4z"/>
			<path class="st11" d="M20.6,46.4H24c0.4,0,0.7-0.3,0.7-0.7v-1.8c0-0.4-0.3-0.7-0.7-0.7h-3.4c-0.4,0-0.7,0.3-0.7,0.7v1.8
				C19.9,46.1,20.2,46.4,20.6,46.4z"/>
			<g>
				<path class="st12" d="M23.5,45c-0.3,0-0.6-0.3-0.6-0.6c0-0.3,0.3-0.6,0.6-0.6c0.3,0,0.6,0.3,0.6,0.6S23.8,45,23.5,45z"/>
				<path class="st12" d="M23.5,45c0.4,0,0.6,0.3,0.6,0.6h-0.6h-0.6C22.8,45.3,23.1,45,23.5,45z"/>
			</g>
			<rect x="20.9" y="43.9" class="st12" width="1.4" height="0.2"/>
			<rect x="20.5" y="44.3" class="st12" width="1.8" height="0.2"/>
			<rect x="20.5" y="45" class="st12" width="1.8" height="0.2"/>
			<rect x="20.5" y="45.4" class="st12" width="1.8" height="0.2"/>
		</g>
		<path class="st9" d="M26.5,17.8c0,0-0.1,0-0.1,0s-0.2,0-0.3,0c-0.4,0-0.8,0-1.1,0c-0.5,0-1.1,0-1.6,0c-0.2-0.1-0.4-0.1-0.5,0
			c-0.1,0-0.1,0-0.2,0c-0.2,0-0.4,0.1-0.6,0.1c-0.1,0-0.2,0-0.3,0c-0.3,0.1-1.4,0.4-1.6-0.1c-0.2-0.5-1-0.8-1.3-0.2
			c-0.3,0.5-0.7,0.2-0.9-0.2c-0.4-0.8-1.6-0.1-1.2,0.7c0.1,0.1,0.1,0.3,0.2,0.3c0,0.1,0.1,0.1,0.1,0.2c0.8,0.9,1.8,1.4,2.9,1.3
			c0.5-0.1,1-0.3,1.5-0.4c0.8,1.1,2.4,1.5,3.2,0.5c0.2-0.1,0.4-0.2,0.5-0.3c1,0.5,2.3,0,2.3-1.4C27.6,17.7,26.9,17.5,26.5,17.8z"/>
	</g>
	<g>
		<path class="st3" d="M68.3,60.7c0.1-0.1,0.3-0.3,0.4-0.3l-0.1-0.1c-0.3-0.3,0.1-0.6,0.4-0.4c0.1,0.1,0.3,0.2,0.4,0.3
			c0.1,0,0.1,0,0.1,0s0.1,0,0.2,0.1c0.1,0,0.1,0,0.1,0.1c0.1,0,0.1,0.1,0.1,0.1c0.1,0.1,0.3,0.1,0.4,0.1c0.6,0.3,1.2,0.4,1.8,0.7
			c0.2,0.1,0.4,0.2,0.6,0.3c0.1,0.1,0.3,0.1,0.3,0.2l0.1,0.1c0.6,0.3,1.3,0.5,1.8,0.8H75c0.6,0.3,1.1,0.7,1.7,1
			c0.4,0.2,0.1,0.6-0.3,0.5h-0.1c0.2,0.1,0.4,0.3,0.5,0.5c0.2,0.3-0.1,0.5-0.4,0.4c-0.2-0.1-0.3-0.1-0.5-0.2
			c-0.1-0.1-0.3-0.1-0.4-0.1c-0.1,0-0.1,0-0.3,0c-0.6-0.2-1.2-0.5-1.8-0.8c-0.4-0.2-0.8-0.4-1.1-0.6c-0.1,0-0.1-0.1-0.1-0.1
			c-0.1,0-0.3-0.1-0.4-0.1l0,0c0.1,0.2,0,0.4,0.2,0.6c0.2,0.3,0.8,0.5,1,0.7c0.3,0.2,0.1,0.5-0.3,0.5c-1.1-0.1-2-0.7-2.8-1.3
			c-0.4-0.3-0.8-0.6-1.1-1c-0.4-0.4-0.3-0.6-0.5-1.1C68.3,61.3,68.1,61,68.3,60.7z"/>
		<path class="st3" d="M54.6,118.1c0-1.1,0.1-2.3,0.4-3.3c0.2-0.6,0.5-0.9,0.9-0.5c-0.1-0.1,0.6-0.6,0.8-0.5
			c0.4,0.1,0.6,1.1,0.7,1.5c0.4,1.2,0.7,2.4,0.9,3.7c0.2,0.7,0.1,1.4,0.3,2.1c0.1,0.4,0.1,0.8-0.2,1.1c-0.1,0.1-0.2,0.2-0.3,0.2
			c-0.1,0.5-0.6,0.8-1.1,0.5c-0.1,0.1-0.3,0.3-0.6,0.2c-0.3-0.1-0.4-0.2-0.6-0.4c-0.1,0.1-0.3,0.1-0.4,0.1c-0.3-0.1-0.5-0.3-0.6-0.6
			c-0.3-0.6-0.2-1.3-0.2-2C54.6,119.6,54.6,118.8,54.6,118.1z"/>
		<path class="st3" d="M45.7,120.1c0-0.1,0-0.3,0-0.4c0.1-1.4,0.3-2.7,0.6-4c0.1-0.4,0.3-1.4,0.6-1.6c0.2-0.1,0.8,0.3,0.8,0.4
			c0.4-0.4,0.8-0.1,1,0.4c0.4,0.9,0.6,2.7,0.7,3.3c0,0.2,0,0.4,0,0.6c0,0.5,0,1-0.1,1.6c0,0.6,0,1.1,0,1.6c0,0.3-0.1,0.8-0.3,1
			c-0.3,0.2-0.4,0.1-0.7,0c-0.1,0.2-0.3,0.4-0.6,0.4c-0.2,0-0.4-0.1-0.5-0.1c-0.2,0-0.4-0.1-0.6-0.3c-0.2-0.1-0.4-0.3-0.6-0.6
			c-0.4-0.1-0.6-0.5-0.6-0.9C45.6,120.9,45.7,120.4,45.7,120.1z"/>
		<path class="st3" d="M43.6,63.7c0.9,0,1.8,0.5,2.5,1c0.8,0.5,1.7,0.9,2.4,1.5c0.8,0.6,1.2,1.4,1.4,2.4C50,68.7,50,68.9,50,69
			c0.1,0.3,0.1,0.6,0.1,0.8c0.4,2.6,0.3,5.3,0.1,7.8c0,0.3,0,0.4,0,0.7c-0.1,6.1-0.2,12.3-0.4,18.4c-0.1,3-0.3,6-0.3,9
			c0,1.1-0.1,2.1-0.3,3.1c-0.1,1.8-0.3,3.4-0.4,5.2c0,0.1,0,0.3,0,0.3c0,0.4-0.1,0.8-0.1,1.3c0,0.6-0.5,0.9-0.9,0.9
			c-0.4,0-0.8-0.4-0.9-1c0-0.2-0.1-0.4-0.1-0.6c-0.1-0.1-0.3-0.4-0.3-0.7c-0.5-4.4-1.3-8.7-1.6-13.1c-0.2-2.3-0.2-4.6-0.1-6.8
			c0.1-2.1,0.6-4.3,0.4-6.4c-0.1-0.6-0.1-1.3-0.2-1.9c-0.3-0.9-0.5-1.9-0.8-2.8c-0.6-1.8-0.9-3.6-1.3-5.4C42.8,76,42.5,74,42.2,72
			C41.8,69.3,41.6,65.8,43.6,63.7z"/>
		<path class="st3" d="M52.2,68.4L52.2,68.4c0.2-0.9,0.6-1.6,1.3-2.2c0.8-0.6,1.6-1,2.4-1.5c0.6-0.4,1.3-0.8,2-0.9
			c0.6,1.9,1.4,3.9,1.8,5.9c0.1,0.1,0.1,0.3,0.1,0.4c0,0.2,0,0.3,0,0.5c-0.1,2-0.3,4-0.5,5.9c-0.3,1.9-0.6,3.9-1.1,5.8
			c-0.4,1.9-0.8,3.8-0.9,5.8c-0.1,2.1,0.5,4.3,0.7,6.4c0.2,2.3,0.3,4.5,0.2,6.8c-0.2,4.4-0.8,8.8-1.1,13.1c0,0.3-0.1,0.5-0.3,0.7
			c0,0.2-0.1,0.4-0.1,0.6c-0.1,0.5-0.4,0.9-0.8,1c-0.4,0-0.9-0.3-0.9-0.8c-0.1-0.4-0.1-0.8-0.1-1.3c0-0.1-0.1-0.2-0.1-0.3
			c-0.2-1.8-0.4-3.5-0.6-5.2c-0.2-1.1-0.4-2.1-0.4-3.1c-0.1-3-0.4-6-0.6-9c-0.3-4.3-0.6-8.5-0.8-12.7C52.8,78.9,52.2,73.6,52.2,68.4
			z"/>
		<path class="st13" d="M57.1,22c-0.2-1.3-1.4-2.8-2.8-2.7c0,0,0,0-0.1,0c-0.4-0.9-2-1.3-2.8-1.5c-1.4-0.3-2.7-0.1-3.6,0.8
			c-0.1,0.1-0.1,0.1-0.1,0.1c-0.4,0-0.9,0.1-1.4,0.3c-0.8,0.3-1.5,0.9-2.1,1.6c-0.6,0.7-1,1.4-1.3,2.2c-0.4,0.9-0.4,1.9-0.3,2.9
			c0.1,1.1,0.2,2.1-0.1,3.2c-0.3,1.1-0.5,2.1-0.6,3.1C41.9,33,42.1,34,42.3,35c0.1,0.5,0.3,1,0.5,1.4c0.2,0.5,0.4,0.9,0.4,1.5
			c0,0.1,0.1,0.3,0.1,0.3c0,0.3,0.1,0.7,0.1,1c0.1,0.5,0.4,0.9,0.6,1.3c0.3,0.4,0.7,0.8,0.7,1.3c0,0.6,0.9,0.6,0.9,0
			c0-0.8-0.6-1.4-0.9-2c-0.6-0.9-0.4-1.8-0.5-2.7c0.1,0,0.1,0,0.1,0.1c1.8,0.6,4.1,0.5,6,0.6c1.2,0,2.3,0,3.5-0.1
			c0.1,0.1,0.1,0.3,0.3,0.3c2,0.6,1.8-3.4,1.8-4.4c0.1-2,0.3-4,0.7-6C57.1,25.8,57.5,23.8,57.1,22z"/>
		<path class="st3" d="M52.2,35.9c-0.9,0.8-2.8,1.2-3.6,0c-0.4,0-0.8-0.4-0.6-1c0-0.1,0-0.1,0.1-0.2c0-0.1,0-0.2,0.1-0.3
			c0.1-0.4,0.1-0.8,0.1-1.2c0-0.2,0.1-0.3,0.1-0.5c0-0.1,0-0.2,0-0.3c0-0.3,0.1-0.4,0.1-0.6c0-0.1,0-0.1,0-0.1
			c0-0.1,0.1-0.2,0.1-0.3c0.2-0.9,1.1-0.7,1.3,0c0.1,0.1,0.3,0.3,0.4,0.5c0,0.1,0,0.1,0.1,0.1c0.1,0.2,0.1,0.4,0.1,0.6l0,0l0,0
			c0.3-0.2,0.5-0.1,0.8,0.1c0.1-0.1,0.2-0.1,0.3-0.1c0-0.1,0.1-0.1,0.1-0.1c0-0.1,0.1-0.2,0.1-0.3c0.3-0.6,1-0.4,1.1,0.3
			c0.1,0.1,0.1,0.3,0,0.4c-0.1,0.2-0.1,0.4-0.1,0.6c0,0.1,0,0.3,0.1,0.4l0,0c0,0.3,0.1,0.6,0.1,0.8C52.5,35.3,52.4,35.7,52.2,35.9z"
			/>
		<path class="st4" d="M52.4,33.1c-0.1,0.2-0.1,0.4-0.1,0.6c0,0.1,0,0.3,0.1,0.4l0,0c0,0-1.4,2.8-4.4,0.2c0-0.2,0.2-1.5,0.2-1.6
			c0-0.1,0-0.2,0-0.3c0-0.3,0.1-0.4,0.1-0.6c0-0.1,0-0.1,0-0.1L50,32l1.3,0.3l1.1,0.3C52.4,32.8,52.4,33,52.4,33.1z"/>
		<path class="st3" d="M55.5,22.5c-0.2-0.2-0.4-0.4-0.8-0.6c-0.6-0.3-1.6-0.1-2.3-0.2c-1.1-0.3-2.7-0.8-3.7,0.1
			c-0.9,0.8-0.8,2.1-0.9,3.3c-0.1,0.3-0.1,0.5-0.1,0.7c0,0,0,0-0.1-0.1c-0.3-0.3-0.6-0.4-0.9-0.4c-0.3,0-0.6,0.2-0.6,0.4
			c-0.2,0.9,0.3,1.8,0.9,2.4l0,0c-0.1,0.4-0.1,0.8-0.1,1.2c0.1,1.4,1,2.4,1.9,3.4c0.9,0.9,1.9,1.1,3.1,0.8c1.3-0.3,1.8-1.2,2.4-2.3
			c0.6-1.2,1.1-2.4,1.2-3.7C55.6,26.1,56.7,23.8,55.5,22.5z"/>
		<path class="st2" d="M62.5,56.8c0.3,0.3,0.5,0.5,0.8,0.7c1,1,2.1,1.9,3.1,2.9c0.6,0.5,1.3,3.2,1.9,1.9c0.2-0.4,1.9-1.4,1.8-1.9
			c-0.6-1.8-2.6-2.9-3.8-4.4c-1.1-1.4-2.3-2.8-3.6-4.1c-1.2-1.2-0.9-2.7-1.2-4.3c-0.3-2.1-0.9-4.2-1.6-6.2c-0.4-1.3-1.3-4.6-2.8-5
			c-0.8-0.3-1,1.6-0.5,1.9c-0.3,1.2-0.4,2.5-0.4,3.8c-0.1,0.1-0.1,0.3-0.1,0.5c0.3,2.3,1,4.2,1.8,6.1c0.5,1.3,0.9,2.8,1.5,4.1
			C60.1,54.3,61.3,55.6,62.5,56.8z"/>
		<path class="st3" d="M56.9,39.6c-0.1-1.1,0.1-2.1,0.3-3.3c-0.4-0.2-0.9-0.3-1.3-0.4c-0.3-0.1-0.4-0.1-0.7-0.1
			c-0.5-0.1-0.9-0.2-1.4-0.3c-0.7-0.2-1.3-0.3-1.9,0c-0.4,0.2-0.8,0.4-1.1,0.4c-0.8,0.1-1.1-0.4-1.7-0.8c-0.3-0.1-0.4-0.2-0.7-0.3
			c-0.6-0.1-1.2,0.4-1.7,0.6c-0.6,0.3-1.3,0.4-1.9,0.7c0,0,0,0-0.1,0c-0.3,0.1-0.5,0.2-0.8,0.3c-0.3,0.1-0.5,0.1-0.7,0.3
			c-0.1,0.1-0.2,0.1-0.3,0.1c-0.4,0.2-0.7,0.5-0.8,1c-0.1,0.3-0.1,0.4,0,0.7c0.1,0.1,0.1,0.1,0.2,0.2c0.4,0.5,0.6,1.1,0.8,1.6
			c0,0.1,0,0.2,0,0.3c0.1,0.5,0.3,1.1,0.3,1.6c0.1,0.4,0.2,0.6,0.5,0.8c0.1,0.1,0.3,0.1,0.4,0.1c0.4,0,0.7,0,1.1,0
			c0.5-0.1,1-0.1,1.5-0.2c0.1,0,0.3-0.1,0.4-0.1c0.3,0,0.4-0.1,0.7-0.1c0,0.1,0.1,0.2,0.2,0.3c1.6,1.4,4,1.6,5.6,0
			c0.1-0.1,0.1-0.2,0.2-0.3c0.3,0,0.4,0,0.7-0.1c0.3,0.3,0.6,0.3,1,0.1c0.6-0.4,1.1-1.1,1.3-1.8c0.1-0.4,0.1-0.9,0-1.3
			C57,39.7,57,39.7,56.9,39.6z"/>
		<path class="st3" d="M37.8,76.1c0.1-0.3-0.1-0.6-0.4-0.4c-0.1,0.1-0.3,0.1-0.4,0.2c-0.1,0-0.1,0.1-0.2,0.1
			c0.2-0.1,0.4-0.1,0.5-0.2c0.1-0.1,0.2-0.3,0.1-0.5l0,0c0.3-0.3,0.5-0.7,0.6-1.1c0.4-0.9,0.2-1.7,0.1-2.6C38,71,38,70.2,37.5,70
			c-0.2-0.1-0.4-0.1-0.6,0c0-0.1,0-0.1,0-0.1c0.1-0.4-0.5-0.5-0.6-0.1c0,0.2-0.1,0.4-0.2,0.6c-0.1,0.1-0.1,0.1-0.1,0.2
			C36,70.7,36,70.7,36,70.8c-0.1,0.1-0.2,0.3-0.3,0.4c-0.3,0.6-0.5,1.2-0.8,1.8c-0.3,0.9-0.4,1.5-0.1,2.4c0.2,0.6,0.4,1.5,0.9,1.9
			c0.6,0.4,1.3-0.3,1.8-0.5C38,76.7,38,76.1,37.8,76.1z M36.7,74.1c0.3,0.1,0,0.6-0.1,0.9c0,0.1,0,0.1,0,0.2
			c-0.1,0.1-0.3,0.1-0.4,0.3c0-0.1,0-0.2,0-0.3C36.2,74.9,36.3,73.9,36.7,74.1z"/>
		<path class="st2" d="M43.4,46.8c-0.2-1.4,0.3-2.4,0.7-3.6c0.2-0.5,0.3-1,0.4-1.5c0.1-0.6,0.1-1.1,0.1-1.6
			c-0.1-1.1-0.3-2.3-0.5-3.4c-0.3,0.1-0.7,0.3-1.1,0.3c-0.1,0.1-0.3,0.3-0.3,0.4c-0.8,0.9-1.1,2-1.4,3.1c-1,2.9-1.4,6-1.8,9.1
			c-0.4,3.7-1.3,7.5-2.1,11.2c-0.4,2.1-1.7,8.1-1.8,9.3c-0.1,0.6,2.5,1.4,2.8,0.7c0.4-1.4,2.5-10.1,3.1-13.5
			c0.2-1.1,0.5-2.1,0.9-3.1c0.6-1.8,1.2-3.9,1.6-5.9C43.6,47.8,43.5,47.4,43.4,46.8z"/>
		<path class="st8" d="M59.5,76.7c0.5-3.5,1-7.1,0.2-10.6c-0.1-0.3-0.1-0.4-0.2-0.7c-0.3-1-0.6-2.1-1-3c-0.3-0.7-0.8-1.3-1-1.9
			c0-0.1-0.1-0.1-0.1-0.3c-0.3-0.9-1.3-0.8-1.7-0.3c-0.4-0.1-0.9-0.2-1.4-0.3c-2.1-0.3-4.1,0-6.2-0.3c-0.7-0.1-1.4-0.3-2.2-0.3
			c-0.1,0-0.1,0-0.3,0c-0.3,0-0.6,0.1-0.9,0.2c-0.3,0.1-0.7,1.6-0.8,1.9c0,0.1-0.1,0.1-0.1,0.2c-0.3,0.5-0.5,1-0.8,1.4
			c-0.6,1.3-1.1,2.6-1.4,4c0,0.1,0,0.1-0.1,0.2c-0.3,1.6-0.4,3.4-0.3,5.1c0.2,2.9,0.8,5.9,1.6,8.5c0.9,2.9,2.1,6.2,1.8,9.3
			c-0.1,1.5-0.4,3-0.3,4.4c0.2,1.8,0.8,2.1,2.4,2.2c3.3,0.2,6.8,0.1,10-0.9c0.8-0.3,1.3-0.3,1.4-1.1c0.2-0.9-0.1-2.1-0.2-3
			c-0.1-1.9-0.1-3.9,0.1-5.9C58.8,82.8,59.1,79.7,59.5,76.7z"/>
		<path class="st7" d="M51.6,69.4l0.4-7.1h1.2C53.3,62.3,52.6,67.8,51.6,69.4z"/>
		<path class="st7" d="M41.8,67.1c4.6,0.1,4.3-4.4,4.3-4.4l-2.2-1.3c-0.3,0.5-0.5,1-0.8,1.4c-0.6,1.3-1.1,2.6-1.4,4
			C41.9,67,41.9,67,41.8,67.1z"/>
		<path class="st7" d="M55.5,63.5c0.6,4.3,4.2,2.6,4.2,2.6c-0.1-0.3-0.1-0.4-0.2-0.7c-0.3-1-0.6-2.1-1-3c-0.3-0.7-0.8-1.3-1-1.9
			C56.3,60.8,55.2,61.6,55.5,63.5z"/>
		<path class="st2" d="M57.6,55.3c-0.4-1.3-0.9-2.6-0.9-3.9c0-1.3,0.9-2.1,1.4-3.3c0.9-2.1,0.1-4.4-1-6.3c-0.8-1.3-1.4-2.6-2.1-3.8
			c-0.5-1-1.1-2.1-2.1-2.8c-1.1-0.6,0.2,1.9,0.4,2.3c0.6,1.2,1.3,2.3,0.9,3.8c-0.6,2-2.8,3.3-4.8,2.2c-1.8-1-2-3.3-1.8-5.5
			c-0.1-0.9,0.2-1.9,0-2.8c-0.9,0.7-1,1.4-1.4,2.5c-0.6,1.8-1.5,3.4-2.3,5.1c-0.7,1.4-0.8,3.2-0.4,4.7c0.4,1.5,1.3,2.9,1.4,4.4
			c0.1,1.7-0.6,3.5-1.2,5.2c-0.1,0.4-0.3,0.7-0.3,1.1c-0.3,1.1-1.1,3.1-0.8,4.2c0.3,1.4,1.6,1.9,2.9,2.4C48.9,66,52.6,65,56,64.2
			c1.1-0.3,2.3-0.6,2.9-1.6c0.1-0.1,0.1-0.1,0.1-0.2c0.1-0.1,0.1-0.3,0.1-0.4C59.1,59.8,58.2,57.3,57.6,55.3z"/>
		<path class="st14" d="M49.6,123.4c0.6-1.3,0.4-3.1-0.1-4.3c-0.3,0.8-0.4,1.9-1.4,2.2c-0.9,0.3-1.7-0.2-2.1-1
			c-0.2-0.4-0.3-0.8-0.3-1.1c0-0.3,0-0.7,0.1-1c-0.5,0.8-0.6,1.9-0.6,2.9c0,0.9,0.1,2,0.4,2.8c0.6,1.3,2.2,1.3,3.2,0.4
			C49.3,124.1,49.4,123.8,49.6,123.4z"/>
		<path class="st14" d="M54.5,123.4c-0.6-1.3-0.4-3.1,0.1-4.3c0.3,0.8,0.4,1.9,1.4,2.2c0.9,0.3,1.7-0.2,2.1-1
			c0.2-0.4,0.3-0.8,0.3-1.1c0-0.3,0-0.7-0.1-1c0.5,0.8,0.6,1.9,0.6,2.9c0,0.9-0.1,2-0.4,2.8c-0.6,1.3-2.2,1.3-3.2,0.4
			C54.9,124.1,54.7,123.8,54.5,123.4z"/>
		<path class="st13" d="M55.3,20.8c-0.2-1.1-1.8-0.8-1.8,0.3c-0.3,0.3-0.5,0.4-0.8,0.6c0-0.4-0.4-0.8-0.8-0.6
			c-0.1,0.1-0.3,0.1-0.4,0.1c-0.1-0.3-0.3-0.4-0.6-0.4c-0.1,0-0.3,0-0.4,0c-0.1-0.2-0.4-0.3-0.6-0.2c-0.4,0.2-0.9,0.4-1.2,0.8
			c-0.3,0.3-0.6,0.5-0.8,0.8c-0.1,0.2-0.1,0.4-0.1,0.6c-0.1,0.1-0.2,0.1-0.3,0.2c-0.3,0.3-0.3,0.5-0.1,0.7c-0.2,0.1-0.4,0.1-0.6,0.2
			c-0.1,0.1-0.2,0.1-0.3,0.2c-0.1-0.1-0.2-0.1-0.3-0.2c-0.4-0.4-1.1,0.3-0.7,0.7c0.4,0.4,1.1,0.6,1.4,1c0.1,0.4,0.3,0.8,0.4,1.1
			c0.1,0.3,0.7,0.5,0.9,0.1c0.2-0.4,0.4-0.7,0.8-1c1.3-0.1,2.5-0.9,3.6-1.4C54.3,23.7,55.7,22.7,55.3,20.8z"/>
		<polygon class="st2" points="52.9,35.4 57.2,36.4 58.1,40.4 56.8,43.6 		"/>
		<polygon class="st7" points="51.4,45.3 45.6,35.9 45.7,35.7 51.3,44.8 54.3,35.7 54.6,35.7 		"/>
		<g>
			<path class="st10" d="M51.3,44.4L51.3,44.4h0.1c0.1,0,0.2,0.1,0.2,0.2v1.1h-0.3h-0.3v-1.1C51.1,44.5,51.1,44.4,51.3,44.4z"/>
			<path class="st11" d="M49.6,48.4h3.4c0.4,0,0.7-0.3,0.7-0.7v-1.8c0-0.4-0.3-0.7-0.7-0.7h-3.4c-0.4,0-0.7,0.3-0.7,0.7v1.8
				C48.9,48.1,49.3,48.4,49.6,48.4z"/>
			<g>
				<path class="st12" d="M52.5,47c-0.3,0-0.6-0.3-0.6-0.6c0-0.3,0.3-0.6,0.6-0.6c0.3,0,0.6,0.3,0.6,0.6C53.1,46.8,52.9,47,52.5,47z
					"/>
				<path class="st12" d="M52.5,47c0.4,0,0.6,0.3,0.6,0.6h-0.6h-0.6C51.9,47.3,52.2,47,52.5,47z"/>
			</g>
			<rect x="50" y="45.9" class="st12" width="1.4" height="0.2"/>
			<rect x="49.5" y="46.4" class="st12" width="1.8" height="0.2"/>
			<rect x="49.5" y="47" class="st12" width="1.8" height="0.2"/>
			<rect x="49.5" y="47.4" class="st12" width="1.8" height="0.2"/>
		</g>
		<path class="st13" d="M47.7,34.2c-0.2-0.3-0.8-0.4-1-0.1c-0.1,0.2-0.3,0.4-0.4,0.6c-0.3-0.3-0.8-0.3-0.9,0.1
			c-0.1,0.1-0.1,0.2-0.1,0.3c-0.1-0.1-0.3,0-0.4,0.1c-0.4-0.3-1.1-0.2-1.1,0.4c0,2.9,0.3,6.1,2.3,8.4c0.4,0.5,1.2-0.1,1.1-0.6
			c-0.2-0.9-0.3-1.9-0.2-2.9c0.3-0.1,0.4-0.2,0.5-0.4C47.8,38.2,48.6,36,47.7,34.2z"/>
	</g>
	<g>
		<path class="st15" d="M82.5,116.2c-0.1,0-0.1,0-0.1,0c-0.3-0.2-1.1-0.1-1.4,0.1c-0.4,0-0.9,0.1-1.3,0.3c-1.2,0.4-2,1.1-2.6,1.6
			c-0.9,0.9-1.6,2-2.6,3.3c-0.4,0.4-0.8,1.1-0.8,1.7c0,0.8,0.8,1.4,1.7,1.6c1.6,0.4,3.2-0.4,4.3-1.3c1.3-1.1,2.5-2.1,3.3-3.1
			c0.3-0.4,1.9-1.4,2.3-1.8C85.9,117.6,84.1,113.7,82.5,116.2z"/>
		<path class="st15" d="M90.8,116.6c0.1,0,0.1,0,0.1-0.1c0.3-0.3,1-0.1,1.4,0.3c0.4,0.1,0.9,0.2,1.2,0.4c1.1,0.6,1.7,1.6,2.1,2.3
			c0.6,1.2,1,2.5,1.6,3.9c0.2,0.5,0.4,1.2,0.3,1.8c-0.2,0.8-0.9,1.3-1.7,1.4c-1.3,0.3-2.4-0.5-3.2-1.4c-0.9-1.1-1.8-2.2-2.4-3.4
			c-0.3-0.4-1.6-1.7-1.8-2.1C87.7,118.4,89.4,112.7,90.8,116.6z"/>
		<path class="st3" d="M78.8,95c-0.4-1.4-0.8-2.9-0.9-4.4c0-0.9,1.1-1.1,1.5-0.5c0-0.7,0.8-0.9,1.3-0.6c0-0.1,0.1-0.1,0.1-0.1
			c0.3-0.4,0.9-0.6,1.3-0.2c0.1,0.1,0.1,0.2,0.2,0.3c0.3-0.3,0.6-0.4,0.9-0.2c0-0.3,0-0.6,0-0.8c-0.1-1.1,1.6-1.1,1.6-0.1
			c0.1,1.5,0,3.1-0.1,4.6c-0.1,0.6-0.1,2.1-0.6,3c0.3,0.7,0.4,1.4,0.6,2.1c0.3,1.4,0.5,2.8,0.6,4.3c0.2,1.9-0.2,3.9-0.6,5.8
			c-0.3,1.4-0.4,2.8-0.6,4.2c-0.2,1.2-0.3,2.5-0.8,3.6c-0.1,0.2-0.1,0.4-0.2,0.6c-0.3,0.8-1.3,0.8-1.6,0.3c-0.1-0.1-0.1-0.1-0.1-0.1
			c-0.1,0.1-0.4,0.3-0.5,0.3c-0.5,0-0.8-0.4-0.9-0.8c-0.6-3.8-1.7-7.6-2.1-11.4C77.4,101.3,78.2,98.2,78.8,95z"/>
		<path class="st3" d="M95.6,102.6c0.1-2.5-0.3-4.9-1.1-7.2c-0.1-0.2-0.1-0.4-0.2-0.5c0-0.1-0.1-0.1-0.1-0.1
			c0.6-0.8,0.8-1.9,0.8-2.9c0-1.2-0.2-2.4-0.8-3.6c-0.2-0.4-0.9-0.6-1.3-0.2c-0.4,0.5-0.7,1.1-0.9,1.7c-0.1,0-0.3,0-0.4,0l-0.1-0.1
			c-0.3-0.4-0.7-0.5-1-0.3c-0.3-0.3-0.9-0.2-1.2,0.2c0,0.1-0.1,0.1-0.1,0.1c-0.5-0.3-1.2,0-1.2,0.7c-0.1,1.6,0.1,3.6,1.3,4.9
			c-0.8,3.1-1.6,6.1-1.3,9.4c0.3,3.9,1.3,7.6,1.8,11.5c0.1,0.4,0.3,0.9,0.8,0.9c0.2,0,0.4-0.1,0.6-0.3c0,0.1,0.1,0.1,0.1,0.1
			c0.3,0.6,1.3,0.6,1.6-0.2c0.1-0.2,0.1-0.4,0.2-0.6C94.3,111.9,95.5,107.2,95.6,102.6z"/>
		<path class="st8" d="M95.3,86.9c0.4-4.6,0.7-9.3,0.5-14c-0.1-1,0-2.1,0-3.1c0-1.3,0-2.6-0.2-3.9c-0.8,0.2-1.6,0.3-2.3,0.4
			s-1.5,0.3-2.3,0.4c-1.6,0.3-3.3,0.4-4.8,0.6c-3.2,0.2-6.5-0.1-9.6-0.9c0,0,0,0-0.1,0c0,0.1-0.1,0.2-0.1,0.3c-0.3,1.2,0,2.5,0,3.7
			c-0.1,1.8-0.1,3.4-0.3,5.2c-0.1,2.4,0.1,4.9,0.1,7.4c0.1,4.2,0.9,7.1,1.4,11.2c0.4,3.8-0.1,8.9,0,12.7c0.1,2,0.1,3.9,0.3,5.9
			c0.1,1.5-0.3,3.3,1.1,4.3c0.8,0.6,1.9,0.8,2.9,0.6c1.3-0.1,3.2-0.6,3.6-1.9c0.2-0.5,0.2-1.1,0.2-1.7c0.4-6.5-0.4-13.2-0.7-19.8
			c0.8-8.6-0.1-12.8,0-19.7c0,0.1,1.3,0.1,1.4,0.1c0.7,2,0.3,4.9,0.4,7c0,4.2,0.8,8.1,1.1,12.3c0.1,1.4,0,2.7-0.3,4.1
			c-0.2,1.3-0.4,2.6-0.4,4c-0.1,1.4,0,2.7,0.1,4.1c0.1,2.3,0.3,4.6,0.3,6.9c0.1,2.8,1.3,6.2,4.8,5.3c2.3-0.6,2.6-2.7,2.6-4.7
			c0.2-6.5,1.1-13.5-0.5-19.9c0.1-0.5,0.1-0.9,0.1-1.4C95,90.5,95.1,88.8,95.3,86.9z"/>
		<path class="st7" d="M80.9,65.2c-0.8,1-1.7,2.3-1.7,2.3s-0.8,2.3-2.8,2.8c0.1-0.1,0.1-2.4,0-2.7c-0.1-0.8-0.1-1.7,0.7-2.1
			c0.6-0.4,1.5-0.4,2.8-0.3C80.2,65.2,80.6,65.2,80.9,65.2z"/>
		<path class="st7" d="M95.8,69.8c-2.1-0.6-2.9-2.8-2.9-2.8s-0.4-0.4-0.8-1.1c0.3,0,0.5-0.1,0.7-0.1c0-0.1,0-0.1,0-0.1
			c-0.1-0.5,0.4-0.9,0.8-0.9l0,0c0-0.1,0-0.1,0-0.2c0.6,0,0.9,0.1,1.3,0.3c0.3,0.1,0.4,0.3,0.6,0.6C95.8,66.9,95.8,68.4,95.8,69.8z"
			/>
		<polygon class="st7" points="83.8,68.3 85.1,72.3 85.1,67.3 		"/>
		<path class="st7" d="M78.1,67.2c0,0,6.6,2.3,15.9,0.2c-1.3-0.8-1.3-0.8-1.3-0.8s-6.9,0.8-14,0C78.5,67.1,78.1,67.2,78.1,67.2z"/>
		<path class="st9" d="M80.1,25.2c0.1,0,0.1,0.1,0.1,0.1c1.8,1.1,3.7,1.7,5.8,1.3c1.1-0.3,2.3-0.7,3.3-0.9c0-0.1,0.1-0.1,0.1-0.2
			c2.3-0.3,3-3,3.1-5c0.1-1.1,0-2.4-0.4-3.4c-0.6-1.6-1.9-2.6-3.4-3.1c-0.8-0.3-1.7-0.5-2.6-0.4c-0.9,0.1-1.7,0.2-2.6,0.2
			c-1.5,0.1-2.8,0.8-3.7,1.9c-1.1,1.4-0.8,2.9-0.7,4.6C79.3,21.9,79.5,23.6,80.1,25.2z"/>
		<path class="st3" d="M89.3,35.4c0-0.1,0-0.1,0-0.2c-0.3-0.7-0.5-1.3-0.6-2c0-0.1,0-0.1-0.1-0.2c-0.1-0.8-0.2-1.6-0.3-2.3
			c-0.1-0.1-0.4,0-0.4,0.2c0,0.1,0,0.3,0,0.3c-0.4-0.2-0.8-0.1-1.2,0c-0.4-0.1-0.8,0.1-1.1,0.3c-0.2,0-0.3,0.1-0.4,0.1l0,0
			c-0.2-0.3-0.5-0.4-0.8-0.4c-0.4-0.4-1.1-0.5-1.6-0.3c0,0.3-0.1,0.5-0.1,0.8c-0.1,0.4-0.1,0.7-0.2,1.1l0,0
			c-0.2,0.8-0.4,1.5-0.9,2.2c-0.1,0.2-0.1,0.4-0.1,0.6c0,0,0,0,0,0.1c-0.4,0.4-0.6,1.1,0,1.6c0.4,0.4,0.9,0.5,1.4,0.6
			c0.2,0.4,0.6,0.6,1.1,0.6c1.8,0.2,4.2,0.3,5.6-1.1C90.1,36.6,89.9,35.7,89.3,35.4z"/>
		<path class="st4" d="M88.7,33.1c-0.9,0.2-2,0.5-3.2,0.4c-1.4-0.1-2.4-0.6-3.1-0.9c0.1-0.4,0.1-0.7,0.2-1.1
			c0.1-0.3,0.1-0.5,0.1-0.8c0.5-0.3,1.3-0.2,1.6,0.3c0.3,0.1,0.6,0.2,0.8,0.4l0,0c0.1-0.1,0.3-0.1,0.4-0.1c0.3-0.3,0.7-0.4,1.1-0.3
			c0.4-0.2,0.8-0.2,1.2,0c0-0.1,0-0.3,0-0.3c0-0.2,0.3-0.3,0.4-0.2c0,0.8,0.1,1.6,0.3,2.3C88.6,33,88.7,33,88.7,33.1z"/>
		<path class="st3" d="M89.7,29c0.3-0.8,0.6-1.8,0.7-2.4c0.1-0.3,0.1-0.5,0.1-0.8c0.1-1.5,0.2-3,0.3-4.5c0-1.2,0-2.6-1.1-3.3
			c-0.8-0.4-1.8-0.5-2.8-0.4c-1.5,0.2-3.1-0.4-4.5,0.3c-1.5,0.7-1.9,2.1-1.8,3.7c0,0.8,0.1,1.5,0.3,2.3c0.1,0.8,0,1.6,0,2.4
			c0.1,0.6,1.1,4.1,1.8,5c0.9,1.2,2.5,1.3,3.9,1.3c1.3-0.1,2.1-1,2.7-2.1C89.3,30,89.5,29.5,89.7,29z"/>
		<path class="st3" d="M81.3,26.1c0.1-0.1,0.1-0.1,0.1-0.2c0-0.1,0-0.1,0-0.1c0.1-0.1,0.1-0.2,0.1-0.3c0-0.1,0-0.1-0.1-0.1
			c-0.1-0.4-0.1-0.8-0.3-1.2c0.2,0,0.4-0.2,0.3-0.4c-0.2-0.4-0.6-1-1.1-0.8c-0.5,0.3-0.4,1-0.4,1.4c0.1,0.8,0.3,2.3,1.4,2.1
			C81.6,26.6,81.5,26.2,81.3,26.1z"/>
		<path class="st3" d="M91,23.3c-0.1-0.1-0.2-0.1-0.3-0.2c-0.4,0-0.6,0.4-0.6,0.8c-0.1,0.2,0.1,0.4,0.2,0.4c-0.1,0.5-0.2,1-0.3,1.3
			C89.9,25.8,90,26,90.1,26c0,0,0,0.1,0.1,0.1c-0.1,0.1-0.1,0.2-0.2,0.3c-0.2,0.3,0.2,0.7,0.4,0.4c0.4-0.5,0.8-1.2,0.9-1.9
			c0-0.1,0-0.1,0.1-0.1C91.3,24.3,91.3,23.5,91,23.3z"/>
		<path class="st2" d="M94.1,47.1c0.2-0.1,0.3-0.3,0.4-0.4c0.3-0.8,0.6-1.4,0.5-2.2c-0.1-0.8-0.6-1.4-0.6-2.3
			c-0.1-0.4-0.3-0.6-0.5-0.7c0-1.6,0.3-3.3,0.8-4.8c0.5-1.4-3-1.9-5.5-2.2c-0.2,0.4-0.4,0.9-0.7,1.3c-0.9,0-1.9,0.2-2.9,0.3
			c-0.9,0.1-2.4,0.1-3-0.7c-0.2-0.3-0.5-0.3-0.8-0.3c-0.1-0.2-0.3-0.4-0.4-0.6c-2.9,0.3-5.9,0.8-5.8,2.4c0,0.2,0.1,0.4,0.3,0.7
			c-0.2,0.1-0.3,0.3-0.3,0.6c-0.1,1.4,0.2,2.9,0.4,4.4c0.2,1.4,0.3,2.9,0.3,4.4c0,0.1,0.1,0.3,0.1,0.4c-0.1,0.4-0.3,0.9-0.4,1.4
			c0.1,0.1,0.1,0.2,0.1,0.3c0.4,3.4,0.9,6.8,0.8,10.1c-0.1,2.4-0.4,4.9-0.4,7.3c0.1,0.1,0.3,0.1,0.4,0.2c0.1,0.1,0.2,0.1,0.3,0.1
			c4.1,1.6,8.5,2.3,12.8,1.9c1.6-0.1,3.3-0.5,4.5-1.6c0.1-0.1,0.1-0.1,0.2-0.2c0.1-0.1,0.9-0.9,0.9-0.9C94.6,59.5,94,53.6,94.1,47.1
			z"/>
		<path class="st16" d="M85.5,36l-1.1,1.1c0,0,0.6,1.8,1.1,1.8s1-1.7,1-1.7L85.5,36z"/>
		<path class="st17" d="M84.9,38.4L84,44.6v10.2l1.3,1.4c0,0,1.6-1.2,1.6-1.3c0-0.1,0-10.3,0-10.3L86,38.4L84.9,38.4z"/>
		<polygon class="st1" points="82.1,33.7 85.6,36 84.1,38.7 81.1,34.4 		"/>
		<polygon class="st1" points="88.9,33.7 85.5,36 86.9,38.7 89.9,34.4 		"/>
		<path class="st3" d="M73.3,79.6c0.1-0.3,0-0.6-0.2-0.8c0.3-0.9,0.4-1.8,0.2-2.7c0.1-0.1,0.1-0.2,0.1-0.4c0-1-0.1-1.9-0.6-2.8
			c-0.2-0.3-0.4-0.6-0.6-0.8c-0.3-0.3-0.7-0.1-1-0.3c-0.1-0.1-0.3-0.1-0.3,0c-0.4-0.6-1.2-0.6-1.6,0.3c-0.5,1.3-0.5,3-0.4,4.4
			c0.1,0.9,0.3,1.6,0.6,2.3c0.2,0.7,0.6,1.3,1.1,1.6l0,0c0.1,0.1,0.1,0.1,0.1,0.1c0.6,0.9,2,0.5,2.9,0.3
			C74.2,80.7,73.9,79.4,73.3,79.6z M71.7,78.2c-0.2-0.2-0.3-0.4-0.4-0.6v-0.1c0,0.1,0-0.4,0-0.6v-0.1c0.1,0.1,0.2,0.1,0.3,0
			c0.1,0,0.1-0.1,0.1-0.1s0,0.1,0,0.1c0.1,0.2,0.1,0.4,0.2,0.6c0.1,0.3,0.1,0.6,0.1,0.8C72,78.3,71.9,78.2,71.7,78.2z"/>
		<path class="st2" d="M76.4,35.4c-1.3,0.1-2.2,1.2-2.8,2.3c-1.1,1.8-1.6,4.6-2.1,5.9c-0.6,1.8-1.2,3.7-1.3,5.6
			c-0.1,0.8-0.1,1.6-0.1,2.4c-0.2,2.9-1.3,5.8-1.6,8.8c0,3.9-0.1,7.8-0.1,11.6c0.8,0.2,1.5,0.3,2.3,0.1c0.8-0.1,1.6-0.4,2.3-0.5
			c0.1-2.8,0.3-5.6,0.6-8.4c0.1-0.8,0.3-1.5,0.3-2.3c0.1-1.2,0.1-2.4,0.2-3.6c0.1-0.5,0.1-0.9,0.3-1.4c0.2-1,0.6-2,0.9-2.9
			c0.5-1.6,1.1-3.2,1.5-4.8C76.7,44,76.6,39.7,76.4,35.4z"/>
		<path class="st9" d="M90.9,17c-0.1,0-0.1,0-0.2,0c0.1-0.3,0.1-0.6-0.1-0.8v-0.1c-0.1-1.1-1.8-1.2-1.9-0.1c-0.1,0-0.1,0-0.2,0
			c-1.3,0-2.4,0.3-3.7,0.4c-1,0.1-2,0.2-2.9,0.4c-0.4-0.3-1.1-0.1-1.2,0.4c-0.1,0.2-0.1,0.4-0.1,0.5c-0.1,0.1-0.2,0.3-0.3,0.4
			c0,0.1-0.1,0.3-0.1,0.3c-0.1,0.1-0.2,0.2-0.3,0.3c0,0,0,0-0.1,0.1c-0.4,0.4,1.6,1.6,1.8,1.7c1.1,0.4,2.3,0.7,3.4,0.6
			c1.1-0.1,2.1-0.4,3-0.9c0.8-0.4,1.6-1.4,2.6-1.4C92.1,18.9,92.1,17,90.9,17z"/>
		<path class="st3" d="M101.8,71.9c-0.4-0.7-1.1-0.6-1.6-0.2c-0.1,0-0.2-0.1-0.3,0c-0.3,0.1-0.7,0-1,0.2c-0.3,0.1-0.4,0.4-0.6,0.6
			c-0.4,0.6-0.6,1.4-0.6,2.2c0,0.1,0,0.2,0.1,0.3c-0.3,0.6-0.2,1.3,0.1,1.8c0.1,0,0.3-0.1,0.4-0.1c0.5-0.1,0.6-0.6,0.9-0.9
			c0.2-0.3,0.4-0.2,0.6-0.1l0,0l0,0c0.3,0.2,0.4,0.6,0.1,0.8c-0.1,0.1-0.2,0.3-0.3,0.4c0,0.1,0,0.2-0.1,0.3
			c-0.4,0.8-1.5,0.9-2.3,1.3c0.1,0.1,0.1,0.1,0.3,0.2c0.9,0.2,2.2,0.5,2.9-0.2c0.1,0,0.1-0.1,0.1-0.1l0,0c0.6-0.3,0.9-0.8,1.1-1.3
			c0.3-0.5,0.6-1.1,0.6-1.8C102.3,74.2,102.3,72.9,101.8,71.9z"/>
		<path class="st2" d="M92.9,38.1c0.1-0.6,0.3-1.2,0.8-1.6c-0.2-0.4,0-1,0.6-1.1c1.6-0.1,2.6,1.1,3.2,2.4c1.1,1.8,1.6,4.6,2.1,5.9
			c0.6,1.8,1.2,3.7,1.3,5.6c0.1,0.8,0.1,1.6,0.1,2.4c0.2,2.9,1.3,5.8,1.6,8.8c0,3.9,0.1,7.8,0.1,11.6c-0.8,0.2-1.5,0.3-2.3,0.1
			c-0.8-0.1-1.6-0.4-2.3-0.5c-0.1-2.8-0.3-5.6-0.6-8.4c-0.1-0.8-0.3-1.5-0.3-2.3c-0.1-1.2-0.1-2.4-0.2-3.6c-0.1-0.5-0.1-0.9-0.3-1.4
			c-0.2-1-0.6-2-0.9-2.9c-0.7-2.1-1.4-4.2-1.9-6.3c-0.1-0.4,0.1-0.6,0.3-0.8c-0.1-0.4-0.1-0.8-0.1-1.3c-0.1-0.4-0.3-0.6-0.4-0.7
			c-0.1,0-0.1,0.1-0.1,0.1c-0.6,0.2-1.3-0.2-1.4-0.8C91.6,41.6,92.5,39.7,92.9,38.1z"/>
		<g>
			<polygon class="st18" points="89,84.9 106.3,86.3 107.7,75.1 90.6,73.5 			"/>
			<polygon class="st19" points="105.2,83.3 105.9,77.7 105.3,77.7 104.7,83.3 			"/>
			<polygon class="st19" points="103.5,84.9 104.7,76.1 104.2,76.1 103,84.8 			"/>
			<polygon class="st19" points="102.3,84.8 103.5,75.9 103,75.9 101.8,84.7 			"/>
			<polygon class="st19" points="101.2,84.6 102.3,75.8 101.8,75.8 100.6,84.6 			"/>
			<polygon class="st19" points="100,84.5 101.1,75.7 100.6,75.7 99.4,84.4 			"/>
			<polygon class="st19" points="98.8,84.4 99.9,75.6 99.4,75.6 98.2,84.3 			"/>
			<polygon class="st19" points="97.6,84.3 98.8,75.4 98.2,75.4 97,84.2 			"/>
			<polygon class="st19" points="96.4,84.1 97.6,75.2 97,75.2 95.8,84.1 			"/>
		</g>
		<path class="st3" d="M98.6,73.2c-0.5,0.4-0.9,0.8-1.1,1.4c-0.2,0.6-0.1,1.2-0.1,1.8c0,0.9,1.4,0.9,1.4,0c0-0.7-0.1-1.5,0.5-1.9
			C100,73.9,99.3,72.7,98.6,73.2z"/>
	</g>
</g>
</svg>
