<?xml version="1.0" encoding="utf-8"?>
<!-- Generator: Adobe Illustrator 23.1.1, SVG Export Plug-In . SVG Version: 6.00 Build 0)  -->
<svg version="1.1" id="Layer_1" xmlns:serif="http://www.serif.com/"
	 xmlns="http://www.w3.org/2000/svg" xmlns:xlink="http://www.w3.org/1999/xlink" x="0px" y="0px" width="1366px" height="768px"
	 viewBox="0 0 1366 768" style="enable-background:new 0 0 1366 768;" xml:space="preserve">
<style type="text/css">
	.st0{fill:#7963AB;}
	.st1{fill:none;stroke:#725DA0;stroke-width:3.928;stroke-miterlimit:10;}
	.st2{fill:#725DA0;}
	.st3{fill:#7963AB;stroke:#725DA0;stroke-width:3.928;stroke-miterlimit:10;}
</style>
<g>
	<g>
		<rect x="-5.1" y="-12.2" class="st0" width="1372.7" height="795.4"/>
	</g>
</g>
<g>
	<line class="st1" x1="1261.2" y1="250" x2="1375.1" y2="250"/>
	<g>
		<polygon class="st2" points="1196.7,297.8 879.5,297.8 879.5,109.3 698.3,109.3 698.3,219.4 409.6,219.4 409.6,47.1 647.2,47.1 
			647.2,51 413.6,51 413.6,215.4 694.4,215.4 694.4,105.4 883.5,105.4 883.5,293.8 1192.8,293.8 1192.8,97.6 948.1,97.6 948.1,93.7 
			1196.7,93.7 		"/>
	</g>
	<g>
		<polygon class="st2" points="1261.8,335.9 643.1,335.9 643.1,47.7 647.1,47.7 647.1,332 1257.9,332 1257.9,174.1 941.8,174.1 
			941.8,-6.8 945.7,-6.8 945.7,170.2 1261.8,170.2 		"/>
	</g>
	<g>
		<path class="st3" d="M491.6,20.6l29.9,27.2l-29.9,24.5L491.6,20.6L491.6,20.6z"/>
	</g>
	<g>
		<rect x="516.5" y="31.4" class="st2" width="3.9" height="32.4"/>
	</g>
	<g>
		<path class="st3" d="M1176.1,121.6l-29.9-27.2l29.9-24.5V121.6z"/>
	</g>
	<g>
		<rect x="1147.3" y="78.3" class="st2" width="3.9" height="32.4"/>
	</g>
	<g>
		<path class="st3" d="M425.9,167.3h-27.3v-65.6h27.3V167.3z"/>
	</g>
	<g>
		<path class="st3" d="M1274.4,285.2h-27.3v-65.6h27.3V285.2z"/>
	</g>
	<g>
		<rect x="696.4" y="215.4" class="st2" width="185.1" height="3.9"/>
	</g>
	<g>
		<path class="st3" d="M822.9,232.5h-82.3v-30.6h82.3V232.5z"/>
	</g>
	<g>
		<path class="st3" d="M954.4,115.4h-23.5V56.7h23.5V115.4z"/>
	</g>
	<line class="st1" x1="287.1" y1="134.1" x2="399.7" y2="134.1"/>
</g>
<g>
	<line class="st1" x1="195.4" y1="134.1" x2="309.3" y2="134.1"/>
	<g>
		<polygon class="st2" points="130.9,181.9 -186.3,181.9 -186.3,-6.6 -367.5,-6.6 -367.5,103.5 -656.2,103.5 -656.2,-68.8 
			-418.6,-68.8 -418.6,-64.9 -652.2,-64.9 -652.2,99.5 -371.4,99.5 -371.4,-10.5 -182.3,-10.5 -182.3,177.9 127,177.9 127,-18.3 
			-117.7,-18.3 -117.7,-22.2 130.9,-22.2 		"/>
	</g>
	<g>
		<polygon class="st2" points="196,220 -422.7,220 -422.7,-68.2 -418.7,-68.2 -418.7,216.1 192.1,216.1 192.1,58.2 -124,58.2 
			-124,-122.7 -120.1,-122.7 -120.1,54.3 196,54.3 		"/>
	</g>
	<g>
		<path class="st3" d="M110.3,5.7L80.4-21.5L110.3-46V5.7z"/>
	</g>
	<g>
		<rect x="81.5" y="-37.6" class="st2" width="3.9" height="32.4"/>
	</g>
	<g>
		<path class="st3" d="M208.6,169.3h-27.3v-65.6h27.3V169.3z"/>
	</g>
	<g>
		<rect x="-369.4" y="99.5" class="st2" width="185.1" height="3.9"/>
	</g>
</g>
<g>
	<g>
		<polygon class="st2" points="543.1,475.9 225.9,475.9 225.9,287.4 44.7,287.4 44.7,397.5 -244,397.5 -244,225.2 -6.5,225.2 
			-6.5,229.1 -240.1,229.1 -240.1,393.5 40.8,393.5 40.8,283.5 229.8,283.5 229.8,471.9 539.1,471.9 539.1,275.7 294.4,275.7 
			294.4,271.8 543.1,271.8 		"/>
	</g>
	<g>
		<polygon class="st2" points="608.2,514 -10.5,514 -10.5,225.8 -6.6,225.8 -6.6,510.1 604.2,510.1 604.2,352.2 288.1,352.2 
			288.1,135.3 292,135.3 292,348.3 608.2,348.3 		"/>
	</g>
	<g>
		<path class="st3" d="M-162.1,198.7l29.9,27.2l-29.9,24.5V198.7z"/>
	</g>
	<g>
		<rect x="-137.1" y="209.5" class="st2" width="3.9" height="32.4"/>
	</g>
	<g>
		<path class="st3" d="M522.5,299.7l-29.9-27.2l29.9-24.5V299.7z"/>
	</g>
	<g>
		<rect x="493.6" y="256.4" class="st2" width="3.9" height="32.4"/>
	</g>
	<g>
		<path class="st3" d="M-227.7,345.4H-255v-65.6h27.3L-227.7,345.4L-227.7,345.4z"/>
	</g>
	<g>
		<path class="st3" d="M620.7,463.3h-27.3v-65.6h27.3V463.3z"/>
	</g>
	<g>
		<rect x="42.7" y="393.5" class="st2" width="185.1" height="3.9"/>
	</g>
	<g>
		<path class="st3" d="M169.2,410.6H87V380h82.3v30.6H169.2z"/>
	</g>
	<g>
		<path class="st3" d="M300.8,293.5h-23.5v-58.6h23.5V293.5z"/>
	</g>
	<line class="st1" x1="-366.5" y1="312.2" x2="-253.9" y2="312.2"/>
</g>
<g>
	<line class="st1" x1="540.9" y1="627.9" x2="654.8" y2="627.9"/>
	<g>
		<polygon class="st2" points="719.3,471.6 967.9,471.6 967.9,475.6 723.2,475.6 723.2,671.8 1032.5,671.8 1032.5,483.3 
			1221.6,483.3 1221.6,593.4 1502.4,593.4 1502.4,428.9 1268.8,428.9 1268.8,425 1506.4,425 1506.4,597.3 1217.7,597.3 
			1217.7,487.2 1036.5,487.2 1036.5,675.7 719.3,675.7 		"/>
	</g>
	<g>
		<polygon class="st2" points="654.2,548.1 970.3,548.1 970.3,335.2 974.2,335.2 974.2,552.1 658.1,552.1 658.1,710 1268.9,710 
			1268.9,425.6 1272.9,425.6 1272.9,713.9 654.2,713.9 		"/>
	</g>
	<g>
		<path class="st3" d="M1424.4,450.2l-29.9-24.5l29.9-27.2V450.2z"/>
	</g>
	<g>
		<rect x="1395.6" y="409.4" class="st2" width="3.9" height="32.4"/>
	</g>
	<g>
		<path class="st3" d="M739.9,447.9l29.9,24.5l-29.9,27.2V447.9z"/>
	</g>
	<g>
		<rect x="764.8" y="456.2" class="st2" width="3.9" height="32.4"/>
	</g>
	<g>
		<path class="st3" d="M1490.1,479.7h27.3v65.6h-27.3V479.7z"/>
	</g>
	<g>
		<path class="st3" d="M641.6,597.5h27.3v65.6h-27.3V597.5z"/>
	</g>
	<g>
		<rect x="1034.5" y="593.4" class="st2" width="185.1" height="3.9"/>
	</g>
	<g>
		<path class="st3" d="M1093.1,579.9h82.3v30.6h-82.3V579.9z"/>
	</g>
	<g>
		<path class="st3" d="M961.5,493.3v-58.6H985v58.6H961.5L961.5,493.3z"/>
	</g>
	<line class="st1" x1="1516.3" y1="512" x2="1628.9" y2="512"/>
</g>
<g>
	<line class="st1" x1="-470.8" y1="743.9" x2="-356.9" y2="743.9"/>
	<g>
		<polygon class="st2" points="-292.4,587.6 -43.8,587.6 -43.8,591.6 -288.5,591.6 -288.5,787.8 20.8,787.8 20.8,599.3 209.9,599.3 
			209.9,709.4 490.7,709.4 490.7,544.9 257.1,544.9 257.1,541 494.7,541 494.7,713.3 206,713.3 206,603.2 24.8,603.2 24.8,791.7 
			-292.4,791.7 		"/>
	</g>
	<g>
		<polygon class="st2" points="-357.5,664.1 -41.4,664.1 -41.4,451.2 -37.5,451.2 -37.5,668.1 -353.6,668.1 -353.6,826 257.2,826 
			257.2,541.6 261.2,541.6 261.2,829.9 -357.5,829.9 		"/>
	</g>
	<g>
		<path class="st3" d="M412.7,566.2l-29.9-24.5l29.9-27.2V566.2z"/>
	</g>
	<g>
		<rect x="383.9" y="525.4" class="st2" width="3.9" height="32.4"/>
	</g>
	<g>
		<path class="st3" d="M-271.8,563.9l29.9,24.5l-29.9,27.2V563.9z"/>
	</g>
	<g>
		<rect x="-246.9" y="572.2" class="st2" width="3.9" height="32.4"/>
	</g>
	<g>
		<path class="st3" d="M478.4,595.7h27.3v65.6h-27.3V595.7z"/>
	</g>
	<g>
		<path class="st3" d="M-370.1,713.5h27.3v65.6h-27.3V713.5z"/>
	</g>
	<g>
		<rect x="22.8" y="709.4" class="st2" width="185.1" height="3.9"/>
	</g>
	<g>
		<path class="st3" d="M81.4,695.9h82.3v30.6H81.4V695.9z"/>
	</g>
	<g>
		<path class="st3" d="M-50.2,609.3v-58.6h23.5v58.6H-50.2L-50.2,609.3z"/>
	</g>
	<line class="st1" x1="504.6" y1="628" x2="617.2" y2="628"/>
</g>
</svg>
