<?xml version="1.0" encoding="utf-8"?>
<!-- Generator: Adobe Illustrator 23.1.1, SVG Export Plug-In . SVG Version: 6.00 Build 0)  -->
<svg version="1.1" id="Layer_1" xmlns="http://www.w3.org/2000/svg" xmlns:xlink="http://www.w3.org/1999/xlink" x="0px" y="0px"
	 width="140px" height="140px" viewBox="0 0 140 140" style="enable-background:new 0 0 140 140;" xml:space="preserve">
<style type="text/css">
	.st0{fill:#FCCA9B;}
	.st1{fill:#FDDDBA;}
	.st2{fill:#2E384C;}
	.st3{fill:#7AB6DE;}
	.st4{fill:#F7CC19;}
	.st5{fill:#FDD55F;}
	.st6{fill:#FED938;}
	.st7{fill:#FFE161;}
	.st8{fill:#FEF4D7;}
</style>
<title>Artboard 23 copy 4</title>
<g>
	<g>
		<g>
			<polygon class="st0" points="79.2,60.4 69.6,64.1 60.8,64.1 57.3,90.9 69.6,96.9 82,87.5 			"/>
			<g>
				<g>
					<path class="st1" d="M85.5,57.3L85.5,57.3c1.8,0,3.3-1.5,3.6-3.5l1.6-9.5c0.2-1.2-0.8-2.1-1.7-1.3l-2.8,2.3L85.5,57.3z"/>
				</g>
			</g>
			<path class="st1" d="M73,18.9h-3.4c-8.2,0-20.4,8.7-20.4,16l2.9,20.3c1.2,8.4,8.5,15.3,17.5,17.8c9-2.5,16.4-9.5,17.5-17.8L90,35
				C90,27.7,81.3,18.9,73,18.9z"/>
			<g>
				<g>
					<path class="st1" d="M53.9,57.3L53.9,57.3c-1.8,0-3.3-1.5-3.6-3.5l-1.6-9.5c-0.2-1.2,0.8-2.1,1.7-1.3l2.8,2.3L53.9,57.3z"/>
				</g>
			</g>
			<g>
				<g>
					<path class="st2" d="M55.4,34.6c-1,6.1-1.7,12.6-1.7,12.6S50.2,47,49,38.4c-1.1-8.6,2.7-14.4,4.5-16.4
						c1.9-1.9,7.6-4.5,16.1-4.7s12.6,2.5,17,6.7c4.5,4.1,4,8.1,3.5,12.3c-0.5,4-3.4,12.4-3.4,12.4L85.3,38c-0.6-4.5-4.4-7.9-9-8
						C76.3,30,56.4,28.4,55.4,34.6z"/>
				</g>
			</g>
		</g>
		<g>
			<path class="st3" d="M39.2,140l2.2-23.3V82h-0.1c-5.3,1.2-9.9,5-12,10.1c-1.8,4.2-3.4,26.3-4.7,47.9L39.2,140L39.2,140z"/>
		</g>
		<g>
			<path class="st3" d="M115.5,140c-1.2-21.6-2.9-43.7-4.7-47.9c-2.2-5.1-6.7-8.9-12-10.1h-0.1v34.7l2.2,23.3H115.5z"/>
		</g>
		<path class="st3" d="M92.9,81.5c0,0-4.9-1.1-12.1-3.8c0,6.2-5,14.9-11.2,14.9c-6.2,0-10.7-8.9-10.7-15l-11.9,3.9
			c-19.4-2.4-5.7,27-5.7,35.2l1.2,23.3h27l0,0h27.7l1.3-23.3C98.6,108.6,112.3,79.2,92.9,81.5z"/>
	</g>
	<g>
		<path class="st4" d="M91,28.3c0-7.4-3.8-13.8-9.3-17.7c0,0-4.5-1.9-4.4-2.2c-1.7-0.6-3.5-1.1-5.5-1.3c0,0,0,0,0,0.1h-4.7
			c0,0,0,0,0-0.1c-1.9,0.2-3.8,0.6-5.5,1.3c0.1,0.2-4.4,2.2-4.4,2.2c-5.6,3.9-9.3,10.3-9.3,17.7L46,32.8h23.4H91h1.9L91,28.3z"/>
		<path class="st5" d="M93.9,32.8H93h-1.9H45.7h-0.8c-0.7,0-1.5,0.6-1.5,1.5c0,0.7,0.6,1.5,1.5,1.5h3.5h41.8h3.5
			c0.7,0,1.5-0.6,1.5-1.5C95.2,33.5,94.6,32.8,93.9,32.8z"/>
		<path class="st6" d="M48.4,35.6c3,2.9,7,4.6,11.2,4.6L79,40.3c4.2,0,8.2-1.7,11.2-4.6L48.4,35.6z"/>
		<g>
			<path class="st7" d="M69.6,7.1c0.7,0,1.5,0,2.1,0.1C71.7,6,70.6,5,69.4,5l0,0v2.1C69.4,7.1,69.6,7.1,69.6,7.1z"/>
		</g>
		<g>
			<path class="st8" d="M69.4,7.1V5l0,0c-1.2,0-2.2,1-2.3,2.2c0.7-0.1,1.3-0.1,2.1-0.1C69.2,7.1,69.4,7.1,69.4,7.1z"/>
		</g>
		<g>
			<path class="st8" d="M67.1,22.7c0,1.3,1.1,2.3,2.3,2.3l0,0v-18h-0.2c-0.7,0-1.5,0-2.1,0.1c0,0,0,0,0,0.1V22.7z"/>
		</g>
		<g>
			<path class="st7" d="M69.4,7.1v18.1l0,0c1.3,0,2.3-1.1,2.3-2.3V7.2c0,0,0,0,0-0.1c-0.7-0.1-1.3-0.1-2.1-0.1L69.4,7.1L69.4,7.1z"
				/>
		</g>
	</g>
	<g>
		<g>
			<path class="st8" d="M59.4,7.1c-1.3,0-2.3,1.1-2.3,2.3v1.5v12c0,1.3,1.1,2.3,2.3,2.3l0,0V7.1L59.4,7.1z"/>
		</g>
		<g>
			<path class="st7" d="M61.6,8.4c-0.4-0.8-1.2-1.5-2.1-1.5l0,0V25l0,0c1.3,0,2.3-1.1,2.3-2.3V9.4C61.9,9,61.8,8.8,61.6,8.4z"/>
		</g>
	</g>
	<g>
		<g>
			<path class="st8" d="M79.3,7.1c-1,0-1.8,0.6-2.2,1.5c-0.1,0.2-0.2,0.6-0.2,0.8v13.3c0,1.3,1.1,2.3,2.3,2.3l0,0L79.3,7.1L79.3,7.1
				z"/>
		</g>
		<g>
			<path class="st6" d="M79.3,7.1L79.3,7.1v18.1l0,0c1.3,0,2.3-1.1,2.3-2.3v-12V9.4C81.6,8,80.6,7.1,79.3,7.1z"/>
		</g>
	</g>
</g>
</svg>
