<?xml version="1.0" encoding="UTF-8" standalone="no"?>
<!DOCTYPE svg PUBLIC "-//W3C//DTD SVG 1.1//EN" "http://www.w3.org/Graphics/SVG/1.1/DTD/svg11.dtd">
<svg width="100%" height="100%" viewBox="0 0 1193 300" version="1.1" xmlns="http://www.w3.org/2000/svg" xmlns:xlink="http://www.w3.org/1999/xlink" xml:space="preserve" xmlns:serif="http://www.serif.com/" style="fill-rule:evenodd;clip-rule:evenodd;stroke-miterlimit:10;">
    <g transform="matrix(1,0,0,1,0,-139)">
        <g>
            <g transform="matrix(1,0,0,1,0,34.8611)">
                <path d="M897.4,311.1L985.3,311.1" style="fill:none;fill-rule:nonzero;stroke:white;stroke-width:3.03px;"/>
            </g>
            <g transform="matrix(1,0,0,1,0,34.8611)">
                <path d="M847.6,348L602.7,348L602.7,202.6L462.9,202.6L462.9,287.5L240,287.5L240,154.5L423.4,154.5L423.4,157.5L243.1,157.5L243.1,284.5L459.9,284.5L459.9,199.5L605.8,199.5L605.8,345L844.5,345L844.5,193.5L655.7,193.5L655.7,190.5L847.6,190.5L847.6,348Z" style="fill:white;fill-rule:nonzero;"/>
            </g>
            <g transform="matrix(1,0,0,1,0,34.8611)">
                <path d="M897.8,377.5L420.3,377.5L420.3,112.978L423.3,112.978L423.3,374.5L894.8,374.5L894.8,252.6L650.8,252.6L650.8,113L653.8,113L653.8,249.6L897.8,249.6L897.8,377.5Z" style="fill:white;fill-rule:nonzero;"/>
            </g>
            <g transform="matrix(1,0,0,1,0,34.8611)">
                <path d="M303.3,134L326.4,155L303.3,173.9L303.3,134Z" style="fill:rgb(121,99,171);fill-rule:nonzero;stroke:white;stroke-width:3.03px;"/>
            </g>
            <g transform="matrix(1,0,0,1,0,34.8611)">
                <rect x="322.5" y="142.5" width="3" height="25" style="fill:white;"/>
            </g>
            <g transform="matrix(1,0,0,1,0,34.8611)">
                <path d="M831.7,212.1L808.6,191.1L831.7,172.2L831.7,212.1Z" style="fill:rgb(121,99,171);fill-rule:nonzero;stroke:white;stroke-width:3.03px;"/>
            </g>
            <g transform="matrix(1,0,0,1,0,34.8611)">
                <rect x="809.4" y="178.6" width="3" height="25" style="fill:white;"/>
            </g>
            <g transform="matrix(1,0,0,1,0,34.8611)">
                <rect x="231.5" y="196.7" width="21.1" height="50.6" style="fill:rgb(121,99,171);fill-rule:nonzero;stroke:white;stroke-width:3.03px;"/>
            </g>
            <g transform="matrix(1,0,0,1,0,34.8611)">
                <rect x="886.4" y="287.7" width="21.1" height="50.6" style="fill:rgb(121,99,171);fill-rule:nonzero;stroke:white;stroke-width:3.03px;"/>
            </g>
            <g transform="matrix(1,0,0,1,0,34.8611)">
                <rect x="461.4" y="284.5" width="142.9" height="3" style="fill:white;"/>
            </g>
            <g transform="matrix(1,0,0,1,0,34.8611)">
                <rect x="495.5" y="274.1" width="63.5" height="23.6" style="fill:rgb(121,99,171);fill-rule:nonzero;stroke:white;stroke-width:3.03px;"/>
            </g>
            <g transform="matrix(1,0,0,1,0,34.8611)">
                <rect x="642.5" y="162" width="18.1" height="45.2" style="fill:rgb(121,99,171);fill-rule:nonzero;stroke:white;stroke-width:3.03px;"/>
            </g>
            <g transform="matrix(1,0,0,1,0,34.8611)">
                <path d="M145.5,221.7L232.4,221.7" style="fill:none;fill-rule:nonzero;stroke:white;stroke-width:3.03px;"/>
            </g>
            <g transform="matrix(1,0,0,1,421.266,-72.2261)">
                <path d="M0.079,221.7L232.4,221.7" style="fill:none;fill-rule:nonzero;stroke:white;stroke-width:3.03px;"/>
            </g>
            <g transform="matrix(1,0,0,1,0,34.8611)">
                <path d="M1159.9,216C1159.8,216.3 1159.7,216.6 1159.8,216.9C1160.3,215.8 1161.4,215 1162.6,214.9C1163.8,214.7 1165.1,215.1 1166.1,215.7C1167.7,216.6 1169,218.3 1169.2,220.1C1169,219.5 1168.4,219 1167.8,218.8C1169,220.7 1169.5,223 1169.4,225.3C1169.4,226.4 1169.2,227.5 1168.8,228.6C1168,230.6 1166.5,232.3 1165.4,234.2C1165.1,234.8 1164.7,235.4 1164.6,236.1C1164.5,236.8 1164.6,237.5 1165,238C1165.5,238.6 1166.3,238.8 1167.1,238.7C1167.9,238.6 1168.6,238.2 1169.1,237.6C1168.7,238.6 1167.7,239.3 1166.7,239.6C1165.4,240 1164,239.9 1162.8,239.3C1161.6,238.7 1160.6,237.6 1160.2,236.3C1160,235.8 1159.9,235.2 1159.9,234.6C1159.9,234 1159.9,233.3 1160.1,232.7C1160.3,232.1 1160.7,231.5 1161.1,231C1161.9,229.9 1162.7,228.8 1163.3,227.7C1163.9,226.6 1164.4,225.2 1164.4,223.9C1164.4,223.3 1164.3,222.8 1164,222.3C1163.5,221.6 1162.6,221.2 1161.9,220.8C1160.2,219.8 1157.9,217.7 1159.9,216Z" style="fill:rgb(102,36,14);fill-rule:nonzero;"/>
                <path d="M1145.1,377C1146.7,375 1151.4,375.8 1153.6,376.1C1154.4,376.2 1155.2,376.2 1156.1,376.1C1156.4,376.1 1158.2,375.9 1158.2,375.4C1158.2,374.8 1158.7,374.4 1159.1,374.3C1159,373.9 1159.1,373.4 1159.5,373.1C1159.5,373.1 1159.6,373.1 1159.6,373C1159.9,372.7 1159.4,371.8 1159.8,372C1160.9,372.5 1161.7,375.3 1161.9,376.2C1162.5,378.7 1160.7,379.5 1159.2,379.5C1154.3,379.6 1149.2,379.9 1145.7,378.9C1144.7,378.7 1144.5,377.7 1145.1,377Z" style="fill:rgb(0,56,111);fill-rule:nonzero;"/>
                <path d="M1158.8,220.1C1158.9,219.4 1159.3,218.7 1159.8,218.6C1160.8,218.3 1163.1,220.1 1162.6,221.2C1162.2,222.1 1161.2,221.8 1160.5,221.5C1159.8,221.3 1158.7,221 1158.8,220.1Z" style="fill:rgb(0,74,142);fill-rule:nonzero;"/>
                <path d="M1159.7,376.2C1157.3,377.5 1153.5,376.9 1151,376.6C1150.9,376.6 1148.7,376.2 1149,376.1C1152.6,374.3 1155.1,374.7 1155.9,371.2C1156.2,370 1158.1,370.2 1158.1,371.5C1158.1,370.1 1160.3,370.1 1160.4,371.5C1160.4,372.8 1161.7,374.7 1160.5,375.7C1160.2,376 1160,376.1 1159.7,376.2Z" style="fill:rgb(245,193,133);fill-rule:nonzero;"/>
                <path d="M1167.5,371.3C1167.6,370.7 1168,372.7 1168.4,372.6C1169.2,372.5 1170.1,372.5 1170.9,372.7C1171.1,372 1170.7,370 1171.4,370.5C1173.1,372 1173.9,376.4 1174,378.7C1174.2,381.2 1174.3,384 1172.3,385.4C1169.1,387.6 1167.8,382 1167.5,379.1C1167.3,377.3 1167.2,373.1 1167.5,371.3Z" style="fill:rgb(0,56,111);fill-rule:nonzero;"/>
                <path d="M1168.3,371.7C1168.6,371.1 1169.1,370.7 1169.8,371.1C1169.7,371 1170.7,370.5 1171,370.5C1171.6,370.7 1171.9,371.7 1172.1,372.2C1172.7,373.6 1173.2,375.1 1173.5,376.6C1173.9,378.8 1172.1,382.1 1169.5,380.2C1168,379.1 1167.6,377.1 1167.6,375.4C1167.5,374.8 1167.7,372.8 1168.3,371.7Z" style="fill:rgb(245,193,133);fill-rule:nonzero;"/>
                <path d="M1141.8,294.3C1142.1,292.7 1142.3,291.1 1142.5,289.5C1143.4,288.8 1144.5,288.3 1145.5,287.9C1147.2,287.3 1149.3,287.1 1150.9,288.1C1151.1,288.2 1151.2,288.3 1151.4,288.4C1152.1,288.1 1152.9,288.2 1153.7,288.5C1155.4,289.2 1156.3,291.1 1156.9,292.8C1157.6,294.7 1157.8,296.7 1158.1,298.7C1158.5,302.6 1158.7,306.7 1158.5,310.6C1158.3,313.8 1157.8,316.9 1157.6,320.1C1157.4,323.2 1157.6,326.3 1158.1,329.4C1160.2,343.3 1162.9,357.9 1162.9,372.1C1159.1,374.4 1157,372.3 1155.1,371.9C1154.1,371.7 1153,353.5 1152.8,352C1150.5,338.1 1147,326.3 1143.3,313.9C1142.6,311.7 1142.1,309.5 1141.8,307.2C1141,302.9 1141,298.6 1141.8,294.3Z" style="fill:rgb(0,56,111);fill-rule:nonzero;"/>
                <path d="M1164.1,353.4C1162.2,340.9 1159.1,328.5 1156,316.4C1155.4,314.1 1154.7,311.8 1154.2,309.4C1153.7,307 1153.3,304.5 1153.1,302C1153,301.3 1153,300.6 1152.9,299.9C1151.3,297.9 1149.7,295.4 1149.9,292.8C1149.9,292.2 1150.4,291.9 1150.9,291.8L1151,291.8C1150.9,290.9 1152.3,290.2 1152.9,291.2C1153,291.3 1153,291.4 1153.1,291.5C1153.1,291.4 1153.2,291.3 1153.2,291.2C1154.1,289.5 1155.9,288.6 1157.7,288C1159.4,287.4 1161.5,287.2 1163.1,288.2C1163.3,288.3 1163.4,288.4 1163.6,288.5C1163.7,288.5 1163.7,288.5 1163.8,288.4C1164.4,288.2 1165.2,288.3 1165.8,288.6C1167.5,289.3 1170,296.8 1170.2,298.7C1170.6,302.6 1170.8,306.7 1170.6,310.6C1170.4,313.8 1169.9,316.9 1169.7,320.1C1169.5,323.2 1169.7,326.3 1170.2,329.4C1170.2,329.6 1170.3,329.8 1170.3,330C1172.4,343.5 1175.1,356.9 1175.2,370.6C1175.2,371.6 1172.6,372.9 1171.5,373.1C1170.9,373.2 1170.4,373.3 1169.8,373.3C1169.1,373.3 1167.5,372.9 1166.2,372.4C1165.8,366 1165.1,359.7 1164.1,353.4Z" style="fill:rgb(0,74,142);fill-rule:nonzero;"/>
                <path d="M1149,236.1C1145.9,231.7 1144.8,226.4 1148.8,222.2C1150.3,220.7 1152.2,219.6 1154.4,219.3C1156.5,219 1158.4,219.6 1160,220.6L1160.1,220.6C1165.2,222.1 1166,227.9 1164.6,232.4C1164.1,234.1 1163,235.6 1161.8,237C1160.7,238.4 1159.5,239.7 1158.8,241.3C1158.3,242.4 1158,243.5 1158,244.7C1156.9,244.8 1155.8,244.9 1154.6,244.9C1153.8,241.5 1151.1,239 1149,236.1Z" style="fill:rgb(102,36,14);fill-rule:nonzero;"/>
                <path d="M1153.5,247.7C1154.9,249 1157.9,249.5 1159.2,247.7C1159.8,247.7 1160.4,247.1 1160.2,246.1C1160.2,246 1160.2,245.9 1160.1,245.8C1160.1,245.6 1160.1,245.5 1160,245.3C1159.9,244.7 1159.8,244.1 1159.8,243.5C1159.8,243.3 1159.7,243 1159.7,242.8L1159.7,242.3C1159.7,241.9 1159.6,241.7 1159.5,241.5L1159.5,241.4C1159.5,241.3 1159.4,241.1 1159.4,241C1159.1,239.6 1157.7,239.9 1157.5,241C1157.3,241.1 1157.1,241.4 1156.9,241.8C1156.9,241.9 1156.9,241.9 1156.8,242C1156.7,242.3 1156.7,242.6 1156.7,242.9C1156.3,242.6 1155.9,242.7 1155.6,243C1155.5,242.9 1155.3,242.9 1155.1,242.9C1155.1,242.8 1155,242.8 1155,242.7C1155,242.6 1154.9,242.4 1154.9,242.3C1154.5,241.4 1153.3,241.7 1153.1,242.7C1153,242.9 1153,243.1 1153.1,243.4C1153.2,243.7 1153.2,244 1153.2,244.3C1153.2,244.5 1153.2,244.8 1153.1,245C1153.1,245.4 1153,245.9 1153,246.3C1153,246.7 1153.1,247.3 1153.5,247.7Z" style="fill:rgb(245,193,133);fill-rule:nonzero;"/>
                <path d="M1148.8,222.2C1149.2,224 1150.1,225.5 1151.9,226.1C1153.6,226.7 1155.7,226.2 1157.2,225.3C1158.9,224.3 1160,222.5 1160.2,220.5L1160.1,220.5C1158.4,219.5 1156.5,218.9 1154.5,219.2C1152.2,219.5 1150.3,220.6 1148.8,222.2Z" style="fill:rgb(102,36,14);fill-rule:nonzero;"/>
                <path d="M1153.1,243.3C1153.2,243.6 1153.2,243.9 1153.2,244.2C1153.2,244.4 1153.2,244.7 1153.1,244.9C1153.1,244.9 1155.4,249.2 1160,245.2C1160,245 1159.7,242.9 1159.7,242.6L1159.7,242.1C1159.7,241.7 1159.6,241.5 1159.5,241.3L1159.5,241.2L1156.9,241.8L1154.9,242.3L1153.1,242.7C1153.1,242.8 1153,243.1 1153.1,243.3Z" style="fill:rgb(226,169,113);fill-rule:nonzero;"/>
                <path d="M1148.8,226.4C1149.1,226.1 1149.5,225.8 1150,225.6C1151,225.2 1152.6,225.6 1153.6,225.5C1155.4,225.2 1157.9,224.5 1159.3,225.9C1160.6,227.2 1160.3,229.3 1160.5,231.1C1160.5,231.5 1160.6,231.8 1160.7,232.2L1160.8,232.2C1161.2,231.8 1161.7,231.7 1162.2,231.7C1162.6,231.7 1163.1,232 1163.2,232.4C1163.4,233.8 1162.7,235.1 1161.6,236C1161.7,236.6 1161.7,237.2 1161.6,237.9C1161.3,240.1 1159.8,241.7 1158.3,243.2C1156.9,244.6 1155.3,244.8 1153.4,244.3C1151.5,243.7 1150.6,242.3 1149.9,240.5C1149.1,238.6 1148.4,236.7 1148.3,234.6C1148.3,232 1146.8,228.4 1148.8,226.4Z" style="fill:rgb(245,193,133);fill-rule:nonzero;"/>
                <path d="M1165.6,265.1C1165.6,263.3 1165.3,251.1 1166.9,249.6C1167.5,249.1 1168.7,250.7 1169,251.1C1170.1,252.6 1170.3,254.4 1170.8,256.2C1172,261 1172.2,265.8 1172.4,270.8C1172.6,276.7 1173.4,282.7 1174,288.6C1174.3,292 1174.5,295.5 1174.5,298.9L1174.5,304.4C1174.5,305.4 1174.5,306.5 1173.8,307C1172.5,307.8 1172.2,305.9 1172,304.8C1171.5,302.6 1171.1,300.3 1170.7,298.1C1169.7,293 1168.7,287.8 1168.3,282.6C1168.2,280.9 1167.8,279.2 1167.4,277.6C1166.6,274.3 1165.9,270.4 1165.7,266.9L1165.7,265.4C1165.6,265.2 1165.6,265.1 1165.6,265.1Z" style="fill:rgb(245,193,133);fill-rule:nonzero;"/>
                <path d="M1134.7,277.9C1134.3,278.2 1133.9,278.6 1133.4,278.9C1131.7,280.3 1130,281.6 1128.2,282.9C1127.2,283.6 1123.9,286.9 1123.2,284.9C1123,284.2 1123.1,284.2 1123.4,283.6C1124.6,280.8 1126.9,278.3 1128.9,276.1C1130.8,274 1132.9,272 1135,270.1C1137,268.4 1136.9,266.1 1137.5,263.7C1138.3,260.5 1139.4,257.3 1140.8,254.2C1141.6,252.3 1143.5,247.2 1145.9,246.7C1147.1,246.5 1147.2,249.4 1146.4,249.8C1146.7,251.7 1146.8,253.8 1146.5,255.8C1146.6,256 1146.6,256.3 1146.6,256.6C1145.9,260.1 1144.5,263 1143,266C1142,268 1141.1,270.1 1140.1,272.1C1138.9,274.4 1136.7,276.2 1134.7,277.9Z" style="fill:rgb(245,193,133);fill-rule:nonzero;"/>
                <path d="M1140.2,253.4C1138.9,258 1137.6,262.6 1136.3,267.3C1136.1,267.9 1136,268.5 1135.6,269C1135.2,269.5 1134.7,269.9 1134.2,270.2C1131.4,272.2 1125.5,279.7 1125.4,280.3C1125.1,281.9 1127.5,282.4 1128.7,283.5C1131.4,282.1 1133.8,280.1 1136.1,278.1C1137.7,276.7 1139.3,275.3 1140.5,273.6C1141.6,272.1 1142.3,270.4 1143,268.6C1144.4,265 1145.4,261.2 1146.1,257.4C1146.5,255.2 1148.8,248 1146,246.9C1142.3,247.3 1140.7,251.5 1140.2,253.4Z" style="fill:rgb(190,244,255);fill-rule:nonzero;"/>
                <path d="M1163.7,288.4C1163.9,289.4 1164.5,290.3 1165.3,290.7C1165.5,291 1165.7,291.4 1165.9,291.7C1166,291.8 1166,291.9 1166.1,292C1166.2,292.2 1166.2,292.4 1166.3,292.6C1166.5,293.1 1166.7,293.7 1166.8,294.2C1167.4,296.5 1167.8,298.8 1168.2,301.2C1168.3,301.6 1168.3,302 1168.4,302.4L1168.4,302.7C1168.4,302.9 1168.4,303.2 1168.5,303.4C1168.6,305.1 1168.6,306.7 1168.5,308.4C1168.3,311.7 1167.7,314.9 1167.5,318.2C1167.2,325.1 1168.6,332.1 1169.9,338.8C1170.2,340.4 1170.5,342.1 1170.8,343.8C1171,344.7 1171.1,345.6 1171.2,346.5C1171.3,346.9 1171.3,347.3 1171.4,347.7C1171.4,347.9 1171.5,348.1 1171.5,348.3C1171.9,351.4 1172,354.6 1172.1,357.7C1172.2,360.4 1172.4,363.2 1172.4,365.9L1172.4,367.9C1172.4,368.4 1172.1,369.3 1172.2,369.8C1172.2,369.6 1172.3,369.2 1172.2,369.7L1172.2,369.8C1172.2,369.9 1172.2,370 1172.1,370.1C1172,370.4 1172,370.6 1171.9,370.9C1171.8,371.1 1171.8,371.4 1171.7,371.6C1171.7,371.7 1171.5,372.2 1171.5,372.2C1171.5,372.2 1171.6,372.1 1171.7,371.8C1171.5,372.2 1171.4,372.7 1171.3,373.1C1172.4,372.9 1175,371.7 1175,370.6C1174.9,356.9 1172.1,343.5 1170.1,330C1170.1,329.8 1170,329.6 1170,329.4C1169.5,326.3 1169.3,323.2 1169.5,320.1C1169.7,316.9 1170.2,313.8 1170.4,310.6C1170.7,306.7 1170.5,302.6 1170,298.7C1169.8,296.7 1167.3,289.3 1165.6,288.6C1165.1,288.3 1164.3,288.2 1163.7,288.4Z" style="fill:rgb(0,56,111);fill-rule:nonzero;"/>
                <path d="M1142.9,285.5C1143.4,283.9 1144.1,282.4 1144.7,280.9C1145.3,279.2 1145.5,277.3 1145.4,275.5C1145.2,272.1 1144.2,268.8 1143.6,265.4L1143.6,265.3L1143.6,265.2C1143.6,265 1143.6,264.8 1143.5,264.6L1143.5,263.5C1143.5,263.1 1143.5,262.7 1143.6,262.3L1143.6,262.2C1143.6,262.1 1143.6,261.9 1143.7,261.8C1144,260.2 1144.4,258.6 1144.8,257C1145.7,253.6 1146.3,250.2 1145.9,246.7C1147.6,246.2 1149.6,246.3 1151.3,245.9C1152.4,245.7 1153.3,245.5 1154.2,246.1C1154.7,246.4 1155.3,246.9 1155.9,247C1157,247.2 1157.7,246.5 1158.6,246.1C1159,245.9 1159.3,245.9 1159.7,245.8C1160.5,245.8 1161.5,246.6 1162.2,247C1163.9,247.8 1165.6,248.5 1167.3,249.3C1168.2,249.7 1168.7,250.2 1168.8,251.2C1168.9,252.6 1168.2,253.9 1168.1,255.2C1167.9,257 1167.6,258.9 1167.2,260.7C1166.4,264.2 1164.9,267.6 1164.2,271.1C1163.6,274.1 1163.7,276.4 1164.7,279.2C1165.4,281 1166,282.9 1166.7,284.7C1167,285.6 1167.8,286.6 1167.8,287.6C1167.9,289.7 1163.6,290.3 1162.1,290.7C1158.8,291.7 1155.4,292.5 1152,292.8C1149.9,293 1147.8,293 1145.7,292.5C1144.7,292.2 1143.2,291.7 1142.1,290.9C1142.4,289.7 1142.8,285.9 1142.9,285.5Z" style="fill:rgb(245,193,133);fill-rule:nonzero;"/>
                <path d="M1143.5,269.5C1143.3,268.9 1143.1,268.2 1142.8,267.7C1142.8,267.7 1142.8,267.6 1142.7,267.6C1142.3,266.8 1141.6,266.3 1141.3,265.4C1140.1,261.9 1142.9,258.2 1144.1,255.1C1145.1,252.5 1145,249.8 1145.1,247.1C1145.5,246.9 1145.9,246.8 1146.3,246.7C1146.3,246.5 1152.1,245.3 1152.9,245.8C1153.5,247.6 1154.9,251.5 1155.1,251.9C1155.2,251.8 1155.8,250.9 1156.3,249.7C1157.6,248.3 1159.7,247.2 1161.1,246.2C1161.7,246.4 1166.4,249 1167,249.3C1165.8,251.1 1165.2,253.6 1164.9,255.7C1164.6,257.3 1164.3,259 1164.3,260.6C1164.3,261.1 1164.3,261.7 1164.4,262.2C1164.6,263.7 1165,265.2 1165.5,266.6C1165,268.1 1164.5,269.7 1164.2,271.3C1163.6,274.3 1163.7,276.6 1164.7,279.4C1165.4,281.2 1166,283.1 1166.7,284.9C1167,285.8 1167.8,286.8 1167.8,287.8C1167.9,289 1166.5,289.7 1165.1,290.1C1164,290.5 1162.8,290.7 1162.2,290.9C1158.9,291.9 1155.5,292.7 1152.1,293C1150,293.2 1147.9,293.2 1145.8,292.7C1144.8,292.4 1143.3,291.9 1142.2,291.1C1142.3,290 1142.3,289 1142.4,287.9C1142.7,286.2 1142.9,284.5 1143.2,282.8C1143.2,282.6 1143.3,282.3 1143.3,282.1L1143.3,281.8C1143.4,281.4 1143.4,281 1143.5,280.6C1143.6,279.7 1143.8,278.8 1144,278C1144.3,275.7 1144.2,273.3 1143.8,271C1143.7,270.5 1143.6,270 1143.5,269.5Z" style="fill:rgb(190,244,255);fill-rule:nonzero;"/>
                <path d="M1142.8,267.6L1142.9,267.7C1143.2,268.2 1143.4,268.9 1143.6,269.5C1144.5,269.6 1145.6,269.4 1147,268.7C1145.3,269 1143.8,268.4 1142.8,267.6Z" style="fill:rgb(158,226,255);fill-rule:nonzero;"/>
                <path d="M1161.8,269.8C1161.1,273.2 1160.9,278.8 1161.8,281C1162.5,282.7 1164.3,287.8 1165.1,290.2C1166.5,289.7 1167.9,289 1167.8,287.9C1167.8,286.9 1167,285.9 1166.7,285C1166,283.2 1165.4,281.3 1164.7,279.5C1163.7,276.7 1163.5,274.3 1164.2,271.4C1164.5,269.8 1165,268.3 1165.5,266.7C1164.9,265.3 1164.5,263.8 1164.4,262.3C1164.4,262.8 1164.2,268.3 1161.8,268.6C1159.4,268.9 1157.8,268.6 1157.8,268.6C1157.8,268.6 1159.6,270.3 1161.8,269.8Z" style="fill:rgb(158,226,255);fill-rule:nonzero;"/>
                <path d="M1171.3,314.1C1172.2,314.6 1173.1,315.8 1174.1,315.2C1174.9,314.7 1175.4,313.3 1175.9,312.3C1176.5,310.9 1176.5,309.9 1176.1,308.4C1175.8,307.4 1175.5,306.3 1175.2,305.3C1175.1,305.1 1175,304.8 1174.9,304.6C1174.9,304.5 1174.9,304.4 1174.8,304.3C1174.7,304.2 1174.7,304.1 1174.6,304C1174.5,303.7 1174.4,303.4 1174.4,303.1C1174.4,302.3 1173.5,302.3 1173.5,303.1L1173.5,303.3C1173.2,303.2 1172.9,303.2 1172.7,303.3C1171.9,303.5 1171.7,304.7 1171.5,305.6C1171.2,307 1170.7,308.4 1171.2,309.8C1171.4,310.4 1171.7,311.1 1172.1,311.6C1172,311.9 1172.1,312.2 1172.3,312.4C1172.5,312.6 1172.8,312.7 1173.1,312.8C1173,312.8 1172.9,312.7 1172.8,312.7C1172.6,312.6 1172.4,312.5 1172.2,312.4C1171.8,312.1 1171.5,312.6 1171.5,313.1C1170.9,312.9 1170.8,313.8 1171.3,314.1ZM1173.9,311.6C1173.9,311.7 1173.9,311.9 1173.8,312C1173.6,311.8 1173.5,311.6 1173.2,311.5L1173.2,311.2C1173.1,310.8 1172.8,309.8 1173.2,309.7C1173.9,309.6 1174,311.1 1173.9,311.6Z" style="fill:rgb(245,193,133);fill-rule:nonzero;"/>
                <path d="M1118.7,284.6C1116.7,285.2 1114.9,286.3 1112.5,287.9C1112.1,288.1 1111.9,288.4 1112.2,288.8C1112.4,288.9 1114.6,288 1115.5,287.3C1114.4,287.9 1112.7,288.7 1112,289.7C1112.2,290 1113.4,289.8 1113.7,289.6C1114.5,289 1115.6,288.4 1116.5,287.8C1115.5,288.5 1114.4,289.2 1113.8,290.2C1113.7,290.3 1113.9,290.5 1114.1,290.4C1115.3,289.9 1116.8,289.5 1117.6,288.6C1116.8,289.2 1115.7,289.6 1115.2,290.3C1116.1,290.5 1121.3,288.8 1122.4,288.3C1123.6,287.8 1124.7,287.1 1125.2,286.1C1125.6,285.4 1125.3,284.4 1124.6,283.9C1123.8,283.4 1123.2,283.5 1122.2,283.9C1120.9,284.1 1119.7,284.2 1118.7,284.6Z" style="fill:rgb(245,193,133);fill-rule:nonzero;"/>
                <path d="M1170.5,252.7C1171.7,255.3 1171.9,258.3 1172.1,261.1C1172.9,271 1173.6,280.9 1174.4,290.8C1174.6,293.8 1174.9,296.8 1174.3,299.7C1173.1,300 1171.9,300.2 1170.6,300.2C1167.8,287.8 1167,278.8 1164.9,266.8C1164.5,264.6 1163.7,260.3 1163.6,258C1163.5,254.9 1164.4,253.4 1165.5,250.5C1166.9,247.5 1169.5,250.4 1170.5,252.7Z" style="fill:rgb(190,244,255);fill-rule:nonzero;"/>
                <path d="M1117.5,283.4C1117.2,283.3 1116.8,283.1 1116.6,283.4C1116.5,283.6 1116.5,283.8 1116.6,283.9C1116.7,284.1 1116.8,284.2 1116.9,284.3C1117.6,284.8 1118.4,285.3 1119.3,285.4C1120.2,285.6 1121.2,285.4 1122,284.8C1122.5,284.4 1122.9,284 1123.5,283.8C1122.9,282.9 1122,283.2 1121,283.5C1119.8,283.9 1118.6,283.9 1117.5,283.4Z" style="fill:rgb(245,193,133);fill-rule:nonzero;"/>
                <path d="M1157.8,252.2L1156.3,249.7L1160,244.9L1161.5,246.4L1157.8,252.2Z" style="fill:rgb(158,226,255);fill-rule:nonzero;"/>
                <path d="M1154.2,249.8L1152.1,251.1L1152.3,245.3L1153.1,244.7L1154.2,249.8Z" style="fill:rgb(158,226,255);fill-rule:nonzero;"/>
                <path d="M1155.1,251.9C1155.1,251.9 1151.9,259.3 1151.5,263.3C1150.8,270.5 1151.5,293.1 1151.5,293.1C1151.5,293.1 1150.7,293.3 1150.1,293.1C1149.6,292.9 1150.6,263.9 1150.7,262.5C1150.9,259.2 1154.8,251.1 1154.8,251.1L1155.1,251.9Z" style="fill:rgb(158,226,255);fill-rule:nonzero;"/>
                <path d="M1129.2,283.5L1125.4,285.1L1123.1,282.5L1125.4,279.8L1129.2,283.5Z" style="fill:rgb(158,226,255);fill-rule:nonzero;"/>
                <path d="M1175.1,298.4L1174.4,302.7L1171.6,303.3L1170.1,298.7L1175.1,298.4Z" style="fill:rgb(158,226,255);fill-rule:nonzero;"/>
            </g>
            <g transform="matrix(1,0,0,1,0,34.8611)">
                <path d="M1009.1,247.6C1009.1,247.6 1016.5,273 1015.4,279.4C1014.3,285.8 1005.1,302.1 1005.1,302.1L1003.4,288.7C1003.4,288.7 1007.9,280.3 1007.6,278.7C1007.3,277 1005.5,265.5 1005.5,265.5L1009.1,247.6Z" style="fill:rgb(190,244,255);fill-rule:nonzero;"/>
                <path d="M1004.4,376.2L1018.2,379.3C1019.3,379.6 1020.1,380.6 1020.1,381.7C1020.1,383.1 1019,384.2 1017.6,384.2L998.1,384.2C996.5,384.2 995.4,382.8 995.7,381.3L996.3,378.2C996.5,377 997.5,376.2 998.7,376.2L1003.9,376.2C1004,376.1 1004.2,376.1 1004.4,376.2Z" style="fill:rgb(35,31,32);fill-rule:nonzero;"/>
                <path d="M985.3,378.4L998.1,383.4C999.3,383.9 999.6,385.4 998.9,386.9C998,388.5 996.2,389.6 994.8,389.3L980.2,386.6C979.3,386.4 978.7,385.1 978.9,383.8L979.3,380.6C979.4,379.3 980.2,378.2 981,378.2L985,378.2C985,378.4 985.2,378.4 985.3,378.4Z" style="fill:rgb(45,45,45);fill-rule:nonzero;"/>
                <path d="M991.1,302.9C991.4,304.5 991.6,306.1 991.9,307.7C991.4,307.2 991.1,303.8 991.1,302.9C991,302.6 991,302.6 991.1,302.8L991.1,302.9Z" style="fill:rgb(0,56,111);fill-rule:nonzero;"/>
                <path d="M1009.9,327.8C1009.9,329.3 1009.3,375.8 1008.3,376.7C1007.2,377.7 1005.7,378.3 1004.3,378.9C1001.4,380.1 999.4,378.6 996.3,378.4C995.1,378.3 996.4,334.2 996.3,333C996.2,331.5 994.3,321.6 992.5,311.2C992.3,310 992.1,308.8 991.9,307.7C992,307.8 992.1,307.8 992.1,307.7C992,306.5 991.9,304.7 991.8,302.8C991.7,300.5 991.7,297.9 991.7,296C991.7,295.4 991.7,294.9 991.8,294.5C991.8,294.2 991.9,294 992,293.8C992.7,292.2 995.6,292.4 995.5,294.5C995.5,295.2 995.4,295.9 995.4,296.6C995.7,295.3 995.8,290.3 995.8,288.9C995.8,288.4 995.9,288 996.1,287.8C996.2,286.7 997,285.7 998.4,286.1C999.3,286.4 1000.2,286.7 1001.1,287.1C1001.7,285.8 1004,285.6 1004.6,287.4C1004.6,287.5 1004.6,287.5 1004.7,287.6C1005.3,289.4 1005.3,295.1 1005.4,297C1005.9,308.5 1009.9,324.7 1009.9,327.8Z" style="fill:rgb(0,56,111);fill-rule:nonzero;"/>
                <path d="M1006.3,217.4C1006.3,217.3 1006.3,217.3 1006.2,217.3C1006.2,217 1006.2,216.7 1006.1,216.4C1005.9,215.5 1005.4,214.9 1004.7,214.6L1004.7,214.1C1004.5,211.3 1002.1,211.7 999.9,212.3L999.9,212.2C998.7,209.9 996.3,210.8 994.4,211.4C993.9,211.6 993.7,211.7 993.3,211.5C992.8,211.3 992.3,211.1 991.7,211.1C990.2,211.1 989.3,212.1 988,212.6C986.3,213.3 984.6,214.2 983.7,215.9C983.5,216.3 983.4,216.6 983.3,217C982.4,218.5 982,220.3 981.9,222C981.7,225.6 982.7,228.9 984.2,232.4C984.3,233.2 984.1,234.7 984.4,235.5C984.4,235.7 984.6,236 984.8,236.2C987.7,238.1 991.1,238.3 994.1,236.4C995.2,235.7 994.2,233.9 993.1,234.7C992.5,235.1 991.9,235.4 991.3,235.6C991.1,235.2 990.5,234.9 990.4,234.5C990.4,234.4 990.3,234.4 990.3,234.3C989.6,233.1 988.9,231.8 988.5,230.4C988.1,229 988.6,227.7 988.5,226.3C988.5,225.6 987.9,225.2 987.3,225.2C987.6,224.3 987.9,223.4 988,222.5C988,222.3 988,222.1 987.9,221.9C988.4,221.8 988.9,221.8 989.3,221.8C990.6,221.9 991.8,222.2 993.1,222.4C996.5,223 1001.1,223.4 1003.2,220.1C1003.2,220.6 1003.2,221.1 1003,221.6C1002.3,223.5 1000.7,224.9 1000.3,227C1000,228.3 1002,228.8 1002.3,227.5C1002.8,225.4 1004.5,223.9 1005.1,221.9C1005.3,221.4 1005.3,220.9 1005.3,220.3C1006.3,219.7 1006.6,218.5 1006.3,217.4ZM990.1,219.8C990.2,219.8 990.2,219.8 990.3,219.7L990.4,219.8C990.4,219.9 990.2,219.9 990.1,219.8ZM995.6,220.7C995.1,220.7 994.6,220.6 994.1,220.5C995.5,220.4 996.9,220 998,219.5C998.1,219.7 998.3,219.8 998.5,219.9C998.5,220 998.6,220.1 998.7,220.2C998.9,220.4 999.3,220.5 999.7,220.5C998.4,220.9 996.9,220.8 995.6,220.7ZM999.9,220.4C1000,220.4 1000.1,220.3 1000.2,220.2C1000.3,220.1 1000.3,220 1000.4,220L1000.8,220C1000.5,220.2 1000.2,220.3 999.9,220.4Z" style="fill:rgb(90,53,34);fill-rule:nonzero;"/>
                <path d="M987.4,243.1C987.4,244.4 987.8,245.5 988.9,246.1C990.1,246.8 991.6,247.4 993,247.5C995.2,247.6 999,247.1 998.9,244.5L998.9,241.6C998.9,240.4 998.9,239.1 998.8,237.9C998.7,236.3 998.6,235.1 998.5,235C997.7,234.6 996.5,234.8 995.9,235.5C995.7,235.5 995.5,235.6 995.4,235.6C995.1,235.7 994.8,235.9 994.6,236.2C994.4,236.1 994.1,236 993.8,236C993.3,235.6 992.6,235.4 992,235.4C991.4,235.1 990.6,235.1 990,235.4C990.1,235.3 990,234.9 989.7,234.7C989.5,235.8 989.2,236.9 988.9,238C988.5,239.7 988,241.4 987.4,243.1Z" style="fill:rgb(245,193,133);fill-rule:nonzero;"/>
                <path d="M989,237.9C992.5,244 997.1,242.5 999,241.5C999,240.3 999,239 998.9,237.8C998.5,237.5 997.1,236.5 995.4,235.5C995.1,235.6 994.8,235.8 994.6,236.1C994.4,236 994.1,235.9 993.8,235.9C993.3,235.5 992.6,235.3 992,235.3C991.4,235 990.6,235 990,235.3C990.1,235.2 990,234.8 989.7,234.6C989.5,235.7 989.2,236.8 989,237.9Z" style="fill:rgb(226,169,113);fill-rule:nonzero;"/>
                <path d="M987.6,231C987.3,230.2 986.7,230.3 986.2,229.8C985.3,228.9 984.6,227 985.2,225.8C985.6,224.8 986.6,224.1 987.7,224.3L987.9,224.3C987.8,223.8 987.7,223.3 987.6,222.7L987.6,220.9C987.7,220.6 987.9,220.4 988,220.1C988.8,218.8 990.9,218.3 992.4,218.2C996.1,218 1000,219.9 1003.5,218C1003.6,218.2 1003.6,218.4 1003.6,218.5C1004,221.6 1003.1,225 1002.7,228.1C1002.6,228.9 1002.5,229.7 1002.5,230.5C1002.4,231.3 1002.3,232 1002.2,232.8C1002,234.3 1001.5,235.7 1000.7,237C1000.5,237.6 1000.3,238.2 1000,238.7C999.1,240.1 997.4,240.2 995.9,240.2C994.5,240.2 993,240.1 991.9,239.1C990.9,238.1 989.9,236.7 989.2,235.5C988.2,234.2 988.1,232.6 987.6,231Z" style="fill:rgb(245,193,133);fill-rule:nonzero;"/>
                <path d="M994.7,300.8L994.7,302.6C994.7,304.7 994.8,307.9 994.7,308.9C994.5,310.7 993.8,310.6 992.5,311.2C992.4,311.3 992.2,311.3 992.1,311.4C992,318.2 989.6,364 990.1,379.5C990.1,380.5 981.1,381.4 978.3,380.1C976.9,379.5 977.1,377.5 977.1,376C977.3,371.9 977,318 975.7,308.7C975.6,307.9 975.6,307.1 975.6,306.2C975.7,303.5 976.6,300.8 977.1,298.1C977.4,296.7 977.7,295 978.6,293.8L988.9,295.3C988.9,295.3 990,295.5 991.6,295.8C991.6,295.2 991.6,294.7 991.7,294.3C991.7,294 991.8,293.8 991.9,293.6C993,292.8 995,293.3 995,295.1L995,296.6C995.1,298.2 994.9,299.5 994.7,300.8Z" style="fill:rgb(0,74,142);fill-rule:nonzero;"/>
                <path d="M1001.6,300.8C1000.4,301.7 997.7,302.3 994.6,302.6C993.7,302.7 992.7,302.8 991.8,302.8L991,302.8L990.9,302.8C986.5,303 982.3,302.8 981.3,302.2C979.3,304.9 975.7,308.5 975.7,308.5L975.6,306.3C975.7,303.6 976.6,300.9 977.1,298.2C977.4,296.8 977.7,295.1 978.6,293.9L988.9,295.4C988.9,295.4 990,295.6 991.6,295.9C992.6,296.1 993.7,296.4 994.9,296.7C999.2,297.9 1003.6,299.4 1001.6,300.8Z" style="fill:rgb(0,56,111);fill-rule:nonzero;"/>
                <path d="M1000.1,243C999.9,243.1 999.7,243.1 999.6,243.2C999.2,243.4 999.1,243.7 999,244C998.4,244.9 997,245.9 994.1,246C988.9,246.1 987.4,243.1 987.4,243.1L987.3,243.2C987.1,243.1 986.8,243 986.5,243.1C984.2,243.8 981.6,244 979.2,244.9L979.1,244.9C978.5,245.1 977.9,245.2 977.3,245.4C976,245.8 978.4,264.1 978.3,265.1C978.1,267.9 979,271.6 978.7,274.5C978.3,277.7 978.7,281 978.3,284.2C978.2,284.9 978.1,285.6 978.1,286.3C977.8,287.6 977.6,294.7 978,296C978.3,297.2 988.9,299.2 992.6,299.6C996.3,299.9 1000.1,300.6 1002.8,297.9C1004.3,296.4 1005,296.2 1005.6,294.1C1006.3,291.5 1005.2,271.4 1005.3,270.1C1005.3,267.7 1005.2,265 1005.6,262.6C1005.5,256.5 1009.5,243 1000.1,243Z" style="fill:rgb(190,244,255);fill-rule:nonzero;"/>
                <path d="M974,314.6C974.1,314.2 974,313.6 973.7,313.3C974.1,312 974.3,310.6 973.9,309.2C974,309 974,308.9 974,308.6C974,307.1 973.8,305.6 973.3,304.2C973.1,303.7 972.8,303.2 972.4,302.9C971.9,302.5 971.5,302.8 971,302.6C970.8,302.5 970.7,302.5 970.6,302.6C970,301.8 968.9,301.6 968.4,303C967.7,305 967.7,307.6 967.8,309.8C967.9,311.2 968.2,312.3 968.7,313.3C969,314.4 969.5,315.3 970.2,315.8C970.3,315.9 970.3,315.9 970.4,316C971.3,317.4 973.1,316.8 974.3,316.4C975.3,316.4 974.9,314.4 974,314.6ZM972,312.5C971.8,312.2 971.6,311.9 971.4,311.6L971.4,311.5C971.4,311.7 971.4,310.9 971.4,310.7L971.4,310.6C971.5,310.7 971.7,310.7 971.8,310.6C971.9,310.6 971.9,310.5 971.9,310.5L971.9,310.7C972,311 972.1,311.3 972.2,311.6C972.3,312 972.3,312.4 972.4,312.9C972.2,312.7 972.1,312.6 972,312.5Z" style="fill:rgb(245,193,133);fill-rule:nonzero;"/>
                <path d="M967.6,301.1L967.5,304L973.3,304L973.3,299.5L967.6,301.1Z" style="fill:rgb(190,244,255);fill-rule:nonzero;"/>
                <path d="M986,223.2C986,223.2 986.8,228 987.9,228.2C989,228.4 987.2,223.2 988,220.3C988.8,217.4 986,223.2 986,223.2Z" style="fill:rgb(90,53,34);fill-rule:nonzero;"/>
                <path d="M984.3,243.6C984.3,243.6 993.8,265.2 993.8,267C993.8,268.6 978.3,265.2 978.3,265.2L975.7,277.3L974.1,301.2C974.1,301.7 973.7,302.1 973.2,302.1L967.1,302.1C967.1,302.1 967,282.1 967.7,277.4C968.4,272.6 969.6,247 974.8,245.5C979.9,244 984.3,243.6 984.3,243.6Z" style="fill:rgb(190,244,255);fill-rule:nonzero;"/>
                <path d="M1000.1,243C1000.1,243 1006.6,243.7 1009.1,247.6C1011.6,251.5 1005.5,265.3 1005.5,265.3L997,266.9L1000.1,243Z" style="fill:rgb(190,244,255);fill-rule:nonzero;"/>
                <path d="M996.1,246L997.6,300L996.1,300L994.7,246L996.1,246Z" style="fill:rgb(158,226,255);fill-rule:nonzero;"/>
                <path d="M995.6,258.2L986.3,243.2L986.6,243L995.5,257.4L1000.3,242.9L1000.7,243L995.6,258.2Z" style="fill:rgb(35,31,32);fill-rule:nonzero;"/>
                <path d="M995.5,246L988.1,241.1L986.4,243.1L993.2,249.3L995.5,246Z" style="fill:rgb(158,226,255);fill-rule:nonzero;"/>
                <path d="M995.5,246L997.3,249L1000.5,243L999.3,241.5L995.5,246Z" style="fill:rgb(158,226,255);fill-rule:nonzero;"/>
                <g>
                    <path d="M995.4,256.8L995.6,256.8C995.8,256.8 995.9,256.9 995.9,257.1L995.9,258.8L995.4,258.8L994.9,258.8L994.9,257.1C995.1,256.9 995.2,256.8 995.4,256.8Z" style="fill:rgb(255,194,0);fill-rule:nonzero;"/>
                    <path d="M992.8,263.2L998.3,263.2C998.9,263.2 999.4,262.7 999.4,262.1L999.4,259.2C999.4,258.6 998.9,258.1 998.3,258.1L992.8,258.1C992.2,258.1 991.7,258.6 991.7,259.2L991.7,262.1C991.7,262.7 992.2,263.2 992.8,263.2Z" style="fill:white;fill-rule:nonzero;"/>
                    <g>
                        <path d="M997.4,261C996.9,261 996.4,260.6 996.4,260C996.4,259.5 996.8,259 997.4,259C997.9,259 998.4,259.4 998.4,260C998.4,260.6 997.9,261 997.4,261Z" style="fill:rgb(214,214,214);fill-rule:nonzero;"/>
                        <path d="M997.4,261C998,261 998.4,261.4 998.4,262L997.4,262L996.4,262C996.4,261.5 996.8,261 997.4,261Z" style="fill:rgb(214,214,214);fill-rule:nonzero;"/>
                    </g>
                    <rect x="993.3" y="259.2" width="2.2" height="0.3" style="fill:rgb(214,214,214);"/>
                    <rect x="992.6" y="260" width="2.9" height="0.3" style="fill:rgb(214,214,214);"/>
                    <rect x="992.6" y="261" width="2.9" height="0.3" style="fill:rgb(214,214,214);"/>
                    <rect x="992.6" y="261.6" width="2.9" height="0.3" style="fill:rgb(214,214,214);"/>
                </g>
                <path d="M1002.2,217.6L1002,217.6L997.3,217.6C997,217.5 996.7,217.5 996.5,217.6L996.2,217.6C995.9,217.6 995.5,217.7 995.2,217.8L994.8,217.8C994.3,217.9 992.6,218.4 992.3,217.7C992,216.9 990.7,216.5 990.3,217.4C989.9,218.2 989.2,217.7 988.9,217.1C988.3,215.8 986.4,216.9 987,218.2C987.1,218.4 987.2,218.6 987.3,218.7C987.3,218.8 987.4,218.9 987.5,219C988.7,220.5 990.3,221.3 992.2,221C993,220.9 993.8,220.6 994.6,220.3C995.8,222 998.5,222.7 999.7,221.1C1000,221 1000.3,220.8 1000.5,220.6C1002.1,221.4 1004.2,220.6 1004.1,218.3C1004,217.4 1002.9,217.1 1002.2,217.6Z" style="fill:rgb(90,53,34);fill-rule:nonzero;"/>
            </g>
            <g transform="matrix(1,0,0,1,0,34.8611)">
                <path d="M1069.1,286.1C1069.3,285.9 1069.5,285.7 1069.8,285.6L1069.7,285.5C1069.2,285.1 1069.9,284.5 1070.4,284.9C1070.6,285.1 1070.8,285.2 1071.1,285.3L1071.3,285.3C1071.4,285.3 1071.5,285.3 1071.6,285.4C1071.7,285.4 1071.7,285.4 1071.8,285.5C1071.9,285.5 1071.9,285.6 1072,285.6C1072.2,285.7 1072.4,285.7 1072.6,285.8C1073.5,286.2 1074.5,286.5 1075.4,286.9C1075.7,287.1 1076,287.2 1076.3,287.4C1076.5,287.5 1076.7,287.6 1076.8,287.7L1076.9,287.8C1077.8,288.2 1078.9,288.6 1079.7,289.1L1079.8,289.1C1080.8,289.5 1081.5,290.2 1082.5,290.7C1083.1,291 1082.7,291.7 1082.1,291.5L1082,291.5C1082.3,291.7 1082.6,292 1082.8,292.3C1083.1,292.7 1082.7,293.1 1082.2,292.9C1081.9,292.8 1081.7,292.7 1081.4,292.6C1081.2,292.5 1081,292.5 1080.8,292.5L1080.4,292.5C1079.4,292.2 1078.5,291.7 1077.6,291.2C1077,290.9 1076.4,290.5 1075.8,290.2C1075.7,290.2 1075.6,290.1 1075.6,290.1C1075.4,290.1 1075.1,290 1074.9,290C1075.1,290.3 1074.9,290.7 1075.2,290.9C1075.5,291.3 1076.4,291.7 1076.8,292C1077.2,292.3 1076.9,292.8 1076.4,292.8C1074.7,292.7 1073.2,291.7 1071.9,290.8C1071.3,290.3 1070.7,289.8 1070.2,289.2C1069.6,288.6 1069.7,288.2 1069.4,287.5C1069,287 1068.7,286.6 1069.1,286.1Z" style="fill:rgb(245,193,133);fill-rule:nonzero;"/>
                <path d="M1047.2,377.7C1047.2,375.9 1047.4,374.1 1047.9,372.4C1048.2,371.5 1048.7,371 1049.4,371.6C1049.3,371.5 1050.3,370.7 1050.6,370.8C1051.2,371 1051.5,372.6 1051.7,373.2C1052.3,375.1 1052.8,377.1 1053.1,379.1C1053.4,380.2 1053.3,381.4 1053.5,382.4C1053.6,383 1053.6,383.7 1053.2,384.2C1053.1,384.4 1052.9,384.5 1052.8,384.5C1052.6,385.3 1051.9,385.7 1051.1,385.3C1050.9,385.5 1050.6,385.7 1050.2,385.6C1049.8,385.5 1049.6,385.3 1049.3,385C1049.1,385.1 1048.9,385.2 1048.6,385.2C1048.2,385.1 1047.8,384.7 1047.7,384.3C1047.3,383.3 1047.4,382.2 1047.4,381.1C1047.2,380.1 1047.2,378.9 1047.2,377.7Z" style="fill:rgb(245,193,133);fill-rule:nonzero;"/>
                <path d="M1033,380.9L1033,380.2C1033.1,378 1033.5,375.9 1034,373.8C1034.2,373.1 1034.4,371.6 1035,371.2C1035.3,371 1036.3,371.7 1036.3,371.8C1037,371.2 1037.5,371.6 1037.9,372.4C1038.6,373.9 1038.9,376.7 1039,377.6L1039,378.5C1039,379.3 1039,380.1 1038.9,381L1038.9,383.6C1038.9,384.1 1038.8,384.8 1038.4,385.2C1038,385.5 1037.7,385.4 1037.3,385.2C1037.1,385.5 1036.9,385.8 1036.4,385.8C1036.1,385.8 1035.8,385.7 1035.6,385.6C1035.3,385.6 1035,385.4 1034.7,385.2C1034.4,385 1034,384.7 1033.8,384.3C1033.2,384.2 1032.9,383.5 1032.9,382.8C1032.8,382.2 1032.9,381.5 1033,380.9Z" style="fill:rgb(245,193,133);fill-rule:nonzero;"/>
                <path d="M1029.5,290.8C1030.9,290.8 1032.3,291.6 1033.5,292.4C1034.8,293.2 1036.2,293.9 1037.4,294.8C1038.7,295.8 1039.3,297.1 1039.7,298.7C1039.8,298.9 1039.8,299.1 1039.8,299.4C1039.9,299.8 1039.9,300.3 1040,300.7C1040.6,304.9 1040.5,309.1 1040.2,313.2L1040.2,314.3C1040.1,324.1 1039.9,333.9 1039.6,343.7C1039.4,348.5 1039.2,353.3 1039.2,358.1C1039.2,359.8 1039,361.5 1038.8,363.1C1038.6,365.9 1038.3,368.6 1038.1,371.4L1038.1,371.9C1038.1,372.6 1038,373.2 1038,373.9C1038,374.8 1037.2,375.3 1036.6,375.3C1035.9,375.3 1035.4,374.6 1035.2,373.7C1035.2,373.4 1035.1,373.1 1035.1,372.8C1034.9,372.6 1034.7,372.2 1034.6,371.7C1033.8,364.7 1032.5,357.8 1032,350.8C1031.7,347.2 1031.7,343.5 1031.9,339.9C1032.1,336.5 1032.8,333.1 1032.6,329.7C1032.5,328.7 1032.4,327.7 1032.3,326.7C1031.8,325.2 1031.5,323.6 1031.1,322.2C1030.2,319.4 1029.6,316.5 1029,313.6C1028.3,310.5 1027.8,307.3 1027.3,304.1C1026.7,299.8 1026.4,294.3 1029.5,290.8Z" style="fill:rgb(245,193,133);fill-rule:nonzero;"/>
                <path d="M1043.3,298.3L1043.3,298.2C1043.6,296.8 1044.2,295.7 1045.3,294.8C1046.5,293.9 1047.9,293.2 1049.1,292.4C1050.1,291.8 1051.2,291.2 1052.3,290.9C1053.3,294 1054.5,297.1 1055.2,300.4C1055.3,300.6 1055.3,300.8 1055.4,301L1055.4,301.8C1055.2,305 1055,308.2 1054.6,311.3C1054.2,314.4 1053.6,317.5 1052.9,320.6C1052.3,323.6 1051.6,326.7 1051.5,329.8C1051.4,333.2 1052.3,336.6 1052.6,340C1052.9,343.6 1053,347.2 1052.9,350.9C1052.6,357.9 1051.6,364.9 1051.1,371.9C1051.1,372.4 1050.9,372.7 1050.7,373C1050.7,373.3 1050.6,373.6 1050.6,373.9C1050.5,374.7 1050,375.4 1049.3,375.5C1048.7,375.5 1047.9,375 1047.8,374.2C1047.7,373.5 1047.7,372.9 1047.6,372.2C1047.6,372 1047.5,371.9 1047.5,371.7C1047.2,368.9 1046.8,366.1 1046.5,363.4C1046.2,361.7 1045.9,360.1 1045.9,358.4C1045.7,353.6 1045.3,348.8 1045,344C1044.5,337.2 1044.1,330.5 1043.7,323.7C1044.2,315.1 1043.3,306.7 1043.3,298.3Z" style="fill:rgb(245,193,133);fill-rule:nonzero;"/>
                <path d="M1051.2,224.2C1050.9,222.2 1048.9,219.8 1046.7,219.9L1046.6,219.9C1046,218.4 1043.4,217.8 1042.1,217.5C1039.9,217 1037.8,217.4 1036.3,218.8C1036.2,218.9 1036.1,218.9 1036.1,219C1035.4,219 1034.6,219.2 1033.9,219.4C1032.6,219.9 1031.5,220.8 1030.6,221.9C1029.7,223 1029,224.2 1028.5,225.4C1027.9,226.9 1027.9,228.5 1028,230.1C1028.1,231.8 1028.3,233.5 1027.9,235.2C1027.5,236.9 1027.1,238.5 1027,240.2C1026.9,241.9 1027.1,243.5 1027.5,245.1C1027.7,245.9 1028,246.7 1028.3,247.4C1028.6,248.2 1029,248.9 1029,249.8C1029,250 1029.1,250.2 1029.2,250.3C1029.2,250.8 1029.3,251.4 1029.4,251.9C1029.6,252.7 1030,253.3 1030.4,254C1030.8,254.6 1031.5,255.3 1031.5,256.1C1031.5,257.1 1033,257.1 1033,256.1C1033,254.9 1032.1,253.9 1031.5,252.9C1030.6,251.5 1030.8,250.1 1030.7,248.6C1030.8,248.6 1030.8,248.6 1030.9,248.7C1033.8,249.7 1037.4,249.5 1040.5,249.6C1042.4,249.6 1044.2,249.6 1046.1,249.4C1046.2,249.6 1046.3,249.8 1046.6,249.9C1049.8,250.8 1049.4,244.5 1049.5,242.8C1049.7,239.6 1049.9,236.4 1050.6,233.2C1051.2,230.4 1051.7,227.2 1051.2,224.2Z" style="fill:rgb(246,83,56);fill-rule:nonzero;"/>
                <path d="M1043.3,246.5C1041.9,247.8 1038.8,248.4 1037.5,246.5C1036.9,246.5 1036.2,245.9 1036.5,244.9C1036.5,244.8 1036.5,244.7 1036.6,244.6C1036.6,244.4 1036.6,244.3 1036.7,244.1C1036.8,243.5 1036.9,242.9 1036.9,242.2C1036.9,241.9 1037,241.7 1037,241.4L1037,240.9C1037,240.5 1037.1,240.2 1037.2,240L1037.2,239.8C1037.2,239.7 1037.3,239.5 1037.3,239.4C1037.6,238 1039,238.3 1039.3,239.4C1039.5,239.5 1039.7,239.8 1039.9,240.2C1039.9,240.3 1039.9,240.3 1040,240.4C1040.1,240.7 1040.1,241 1040.1,241.3C1040.5,241 1040.9,241.1 1041.3,241.4C1041.4,241.3 1041.6,241.3 1041.8,241.3C1041.8,241.2 1041.9,241.2 1041.9,241.1C1041.9,241 1042,240.8 1042,240.7C1042.4,239.8 1043.6,240.1 1043.8,241.1C1043.9,241.3 1043.9,241.5 1043.8,241.8C1043.7,242.1 1043.7,242.4 1043.7,242.7C1043.7,242.9 1043.7,243.2 1043.8,243.4C1043.8,243.8 1043.9,244.3 1043.9,244.7C1043.8,245.5 1043.7,246.1 1043.3,246.5Z" style="fill:rgb(245,193,133);fill-rule:nonzero;"/>
                <path d="M1043.6,242C1043.5,242.3 1043.5,242.6 1043.5,242.9C1043.5,243.1 1043.5,243.4 1043.6,243.6C1043.6,243.6 1041.3,248 1036.6,243.9C1036.6,243.6 1036.9,241.5 1036.9,241.3L1036.9,240.8C1036.9,240.4 1037,240.1 1037.1,239.9L1037.1,239.7L1039.8,240.3L1041.8,240.8L1043.6,241.2C1043.7,241.5 1043.7,241.8 1043.6,242Z" style="fill:rgb(226,169,113);fill-rule:nonzero;"/>
                <path d="M1048.5,225C1048.2,224.7 1047.8,224.4 1047.3,224.1C1046.3,223.6 1044.7,224 1043.6,223.8C1041.8,223.4 1039.3,222.6 1037.7,224C1036.3,225.3 1036.5,227.4 1036.2,229.2C1036.1,229.6 1036.1,230 1036,230.3L1035.9,230.2C1035.5,229.8 1035,229.6 1034.5,229.6C1034.1,229.6 1033.6,229.9 1033.5,230.3C1033.2,231.8 1033.9,233.1 1034.9,234.1C1034.8,234.7 1034.8,235.3 1034.8,236C1035,238.3 1036.4,239.9 1037.9,241.5C1039.3,243 1040.9,243.3 1042.8,242.8C1044.8,242.3 1045.7,240.9 1046.6,239.1C1047.5,237.2 1048.3,235.3 1048.5,233.2C1048.8,230.8 1050.5,227.1 1048.5,225Z" style="fill:rgb(245,193,133);fill-rule:nonzero;"/>
                <path d="M1059.8,279.8C1060.2,280.2 1060.6,280.6 1061,280.9C1062.6,282.5 1064.3,284 1065.9,285.5C1066.8,286.3 1068,290.6 1068.9,288.6C1069.2,287.9 1072,286.3 1071.8,285.6C1070.9,282.7 1067.6,281 1065.8,278.5C1064.1,276.2 1062.1,274 1060.1,271.9C1058.2,270 1058.6,267.6 1058.2,265.1C1057.7,261.7 1056.8,258.4 1055.7,255.2C1055,253.2 1053.6,247.9 1051.2,247.2C1050,246.8 1049.6,249.8 1050.4,250.3C1049.9,252.2 1049.7,254.3 1049.8,256.3C1049.7,256.5 1049.6,256.8 1049.6,257.1C1050,260.7 1051.2,263.8 1052.4,266.9C1053.2,269 1053.9,271.3 1054.8,273.4C1055.9,275.9 1057.9,277.9 1059.8,279.8Z" style="fill:rgb(0,74,142);fill-rule:nonzero;"/>
                <path d="M1050.8,252.4C1050.7,250.7 1050.9,249 1051.2,247.2C1050.5,246.9 1049.8,246.8 1049.1,246.6C1048.7,246.5 1048.4,246.5 1048,246.4C1047.2,246.3 1046.5,246.1 1045.8,245.9C1044.7,245.6 1043.8,245.4 1042.8,245.9C1042.2,246.2 1041.6,246.6 1041,246.6C1039.8,246.7 1039.2,245.9 1038.3,245.4C1037.9,245.2 1037.6,245.1 1037.2,245C1036.3,244.9 1035.3,245.7 1034.5,246C1033.5,246.4 1032.5,246.7 1031.5,247.1L1031.4,247.1C1031,247.2 1030.6,247.4 1030.2,247.5C1029.8,247.6 1029.4,247.7 1029.1,247.9C1028.9,248 1028.8,248 1028.6,248.1C1027.9,248.4 1027.5,248.9 1027.4,249.7C1027.3,250.1 1027.3,250.4 1027.4,250.8C1027.5,250.9 1027.6,251 1027.7,251.1C1028.4,251.9 1028.7,252.8 1028.9,253.7L1028.9,254.2C1029.1,255 1029.3,255.9 1029.4,256.7C1029.5,257.3 1029.7,257.7 1030.2,258C1030.4,258.1 1030.6,258.1 1030.8,258.1L1032.5,258.1C1033.3,258 1034.1,257.9 1034.9,257.8C1035.1,257.8 1035.3,257.7 1035.5,257.7C1035.9,257.7 1036.2,257.6 1036.6,257.6C1036.6,257.8 1036.7,257.9 1036.9,258.1C1039.5,260.3 1043.3,260.7 1045.9,258.1C1046.1,257.9 1046.1,257.8 1046.2,257.6C1046.6,257.6 1046.9,257.6 1047.3,257.5C1047.7,257.9 1048.3,258 1048.9,257.6C1049.9,257 1050.7,255.9 1051,254.7C1051.2,254 1051.2,253.3 1051,252.6C1050.9,252.6 1050.9,252.5 1050.8,252.4Z" style="fill:rgb(245,193,133);fill-rule:nonzero;"/>
                <path d="M1020.3,310.6C1020.4,310.2 1020.1,309.6 1019.7,309.9C1019.5,310 1019.3,310.1 1019.1,310.2C1019,310.2 1018.9,310.3 1018.8,310.3C1019.1,310.2 1019.4,310.2 1019.6,310C1019.8,309.8 1019.9,309.5 1019.8,309.2C1020.2,308.7 1020.6,308.1 1020.8,307.5C1021.4,306.1 1021.1,304.8 1020.9,303.4C1020.7,302.5 1020.7,301.3 1019.8,301C1019.5,300.9 1019.2,300.9 1018.9,301L1018.9,300.8C1019,300.1 1018.1,300 1018,300.7C1018,301 1017.9,301.3 1017.7,301.6C1017.6,301.7 1017.5,301.8 1017.5,301.9C1017.4,302 1017.4,302.1 1017.4,302.2C1017.3,302.4 1017.1,302.7 1017,302.9C1016.6,303.8 1016.2,304.8 1015.8,305.8C1015.3,307.2 1015.2,308.2 1015.7,309.6C1016,310.6 1016.4,312 1017.2,312.6C1018.2,313.3 1019.2,312.2 1020.1,311.8C1020.7,311.6 1020.7,310.7 1020.3,310.6ZM1018.5,307.5C1018.9,307.7 1018.5,308.5 1018.4,308.9L1018.4,309.2C1018.2,309.3 1018,309.4 1017.8,309.6L1017.8,309.2C1017.7,308.7 1017.9,307.2 1018.5,307.5Z" style="fill:rgb(245,193,133);fill-rule:nonzero;"/>
                <path d="M1029.2,263.8C1028.9,261.6 1029.7,260 1030.3,258C1030.6,257.2 1030.8,256.4 1030.9,255.6C1031,254.7 1031,253.9 1031,253C1030.9,251.2 1030.5,249.3 1030.2,247.5C1029.7,247.7 1029.1,247.9 1028.5,248C1028.3,248.2 1028.1,248.4 1028,248.6C1026.8,250 1026.3,251.8 1025.7,253.6C1024.1,258.3 1023.4,263.2 1022.8,268.2C1022.1,274.1 1020.7,280.2 1019.5,286.1C1018.8,289.5 1016.8,299.1 1016.7,301C1016.6,302 1020.7,303.2 1021.1,302.1C1021.8,299.9 1025.1,285.9 1026,280.6C1026.3,278.9 1026.8,277.2 1027.4,275.6C1028.4,272.7 1029.3,269.3 1029.9,266.1C1029.6,265.5 1029.4,264.8 1029.2,263.8Z" style="fill:rgb(0,74,142);fill-rule:nonzero;"/>
                <path d="M1054.9,311.6C1055.7,306 1056.5,300.3 1055.2,294.7C1055.1,294.3 1055,294 1054.9,293.6C1054.5,292 1054,290.3 1053.3,288.8C1052.8,287.7 1052.1,286.8 1051.7,285.7C1051.7,285.6 1051.6,285.5 1051.6,285.3C1051.2,283.9 1049.5,284 1048.9,284.9C1048.2,284.7 1047.4,284.6 1046.7,284.5C1043.4,284.1 1040.1,284.5 1036.8,284.1C1035.7,284 1034.5,283.7 1033.3,283.7L1032.9,283.7C1032.4,283.7 1032,283.9 1031.5,284C1031.1,284.2 1030.4,286.5 1030.2,287C1030.2,287.1 1030.1,287.2 1030.1,287.3C1029.7,288.1 1029.3,288.9 1028.9,289.6C1027.9,291.6 1027.2,293.8 1026.7,296C1026.7,296.1 1026.7,296.2 1026.6,296.3C1026.1,298.9 1026,301.7 1026.1,304.5C1026.4,309.2 1027.4,313.9 1028.7,318.1C1030.2,322.8 1032,328 1031.6,333C1031.4,335.4 1030.9,337.8 1031.2,340.1C1031.5,342.9 1032.5,343.4 1035.1,343.6C1040.4,343.9 1046,343.8 1051.1,342.1C1052.3,341.7 1053.1,341.6 1053.4,340.4C1053.7,339 1053.2,337 1053.1,335.6C1052.9,332.5 1052.9,329.3 1053.2,326.2C1053.8,321.3 1054.3,316.4 1054.9,311.6Z" style="fill:rgb(45,45,45);fill-rule:nonzero;"/>
                <path d="M1042.4,300L1043.1,288.6L1045,288.6C1045,288.6 1044,297.4 1042.4,300Z" style="fill:rgb(35,31,32);fill-rule:nonzero;"/>
                <path d="M1026.7,296.3C1034.1,296.4 1033.6,289.3 1033.6,289.3L1030.1,287.2C1029.7,288 1029.3,288.8 1028.9,289.5C1027.9,291.5 1027.2,293.7 1026.7,295.9C1026.8,296.1 1026.8,296.2 1026.7,296.3Z" style="fill:rgb(35,31,32);fill-rule:nonzero;"/>
                <path d="M1048.5,290.5C1049.4,297.4 1055.2,294.7 1055.2,294.7C1055.1,294.3 1055,294 1054.9,293.6C1054.5,292 1054,290.3 1053.3,288.8C1052.8,287.7 1052.1,286.8 1051.7,285.7C1049.8,286.2 1048.1,287.5 1048.5,290.5Z" style="fill:rgb(35,31,32);fill-rule:nonzero;"/>
                <path d="M1052,277.5C1051.4,275.5 1050.5,273.4 1050.5,271.3C1050.5,269.2 1051.9,267.9 1052.7,266.1C1054.1,262.8 1052.8,259.1 1051.1,256.1C1049.9,254.1 1048.9,252 1047.8,250C1047,248.4 1046.1,246.6 1044.5,245.6C1042.8,244.6 1044.8,248.7 1045.1,249.2C1046.1,251.1 1047.1,252.9 1046.5,255.2C1045.6,258.4 1042.1,260.4 1038.9,258.7C1036,257.1 1035.7,253.4 1036,249.9C1035.9,248.5 1036.3,246.8 1036,245.5C1034.6,246.6 1034.4,247.8 1033.8,249.5C1032.8,252.4 1031.4,254.9 1030.1,257.7C1029,260 1028.8,262.8 1029.4,265.2C1030,267.6 1031.4,269.8 1031.6,272.3C1031.8,275 1030.6,277.9 1029.7,280.6C1029.5,281.2 1029.3,281.7 1029.2,282.3C1028.8,284.1 1027.5,287.2 1027.9,289C1028.4,291.2 1030.5,292.1 1032.5,292.8C1038,294.6 1044,293 1049.3,291.6C1051,291.1 1053,290.7 1054,289C1054.1,288.9 1054.1,288.8 1054.2,288.7C1054.3,288.6 1054.3,288.3 1054.3,288C1054.3,284.6 1052.9,280.7 1052,277.5Z" style="fill:rgb(0,74,142);fill-rule:nonzero;"/>
                <path d="M1039.2,386.3C1040.2,384.3 1039.8,381.4 1039,379.5C1038.5,380.8 1038.4,382.5 1036.8,383C1035.4,383.4 1034.1,382.7 1033.5,381.4C1033.2,380.8 1033.1,380.2 1033.1,379.6C1033.1,379.1 1033.1,378.5 1033.2,378C1032.4,379.3 1032.3,381 1032.3,382.6C1032.3,384 1032.4,385.8 1033,387C1034,389 1036.5,389 1038.1,387.7C1038.6,387.3 1038.9,386.8 1039.2,386.3Z" style="fill:rgb(45,40,45);fill-rule:nonzero;"/>
                <path d="M1047,386.3C1046,384.3 1046.4,381.4 1047.2,379.5C1047.7,380.8 1047.8,382.5 1049.4,383C1050.8,383.4 1052.1,382.7 1052.7,381.4C1053,380.8 1053.1,380.2 1053.1,379.6C1053.1,379.1 1053.1,378.5 1053,378C1053.8,379.3 1053.9,381 1053.9,382.6C1053.9,384 1053.8,385.8 1053.2,387C1052.2,389 1049.7,389 1048.1,387.7C1047.6,387.3 1047.3,386.8 1047,386.3Z" style="fill:rgb(45,40,45);fill-rule:nonzero;"/>
                <path d="M1048.3,222.3C1048,220.5 1045.4,221.1 1045.4,222.8C1045,223.2 1044.6,223.5 1044.2,223.8C1044.2,223.2 1043.6,222.5 1042.9,222.8C1042.7,222.9 1042.5,223 1042.2,223C1042.1,222.6 1041.7,222.4 1041.3,222.3L1040.7,222.3C1040.5,222 1040.1,221.8 1039.7,222C1039,222.3 1038.3,222.6 1037.8,223.2C1037.3,223.6 1036.9,224 1036.5,224.5C1036.3,224.8 1036.3,225.1 1036.4,225.4C1036.3,225.5 1036.1,225.6 1036,225.7C1035.6,226.1 1035.6,226.5 1035.8,226.8C1035.5,226.9 1035.2,227 1034.9,227.1C1034.7,227.2 1034.6,227.3 1034.4,227.4C1034.3,227.3 1034.1,227.2 1034,227.1C1033.3,226.4 1032.3,227.5 1032.9,228.2C1033.5,228.8 1034.6,229.2 1035.2,229.8C1035.3,230.4 1035.6,231 1035.8,231.6C1036,232.1 1036.9,232.4 1037.2,231.8C1037.5,231.2 1037.9,230.7 1038.4,230.2C1040.4,230 1042.4,228.8 1044.2,228C1046.7,226.9 1048.9,225.3 1048.3,222.3Z" style="fill:rgb(246,83,56);fill-rule:nonzero;"/>
                <path d="M1044.5,245.6L1051.3,247.2L1052.8,253.7L1050.6,258.7L1044.5,245.6Z" style="fill:rgb(0,74,142);fill-rule:nonzero;"/>
                <path d="M1042,261.5L1032.7,246.4L1033,246.2L1041.9,260.6L1046.7,246.1L1047.1,246.2L1042,261.5Z" style="fill:rgb(35,31,32);fill-rule:nonzero;"/>
                <g>
                    <path d="M1041.8,260L1042,260C1042.2,260 1042.3,260.1 1042.3,260.3L1042.3,262L1041.8,262L1041.3,262L1041.3,260.3C1041.5,260.2 1041.6,260 1041.8,260Z" style="fill:rgb(255,194,0);fill-rule:nonzero;"/>
                    <path d="M1039.2,266.4L1044.7,266.4C1045.3,266.4 1045.8,265.9 1045.8,265.3L1045.8,262.4C1045.8,261.8 1045.3,261.3 1044.7,261.3L1039.2,261.3C1038.6,261.3 1038.1,261.8 1038.1,262.4L1038.1,265.3C1038.1,265.9 1038.6,266.4 1039.2,266.4Z" style="fill:white;fill-rule:nonzero;"/>
                    <g>
                        <path d="M1043.8,264.2C1043.3,264.2 1042.8,263.8 1042.8,263.2C1042.8,262.7 1043.2,262.2 1043.8,262.2C1044.3,262.2 1044.8,262.6 1044.8,263.2C1044.8,263.8 1044.4,264.2 1043.8,264.2Z" style="fill:rgb(214,214,214);fill-rule:nonzero;"/>
                        <path d="M1043.8,264.2C1044.4,264.2 1044.8,264.6 1044.8,265.2L1043.8,265.2L1042.8,265.2C1042.8,264.7 1043.3,264.2 1043.8,264.2Z" style="fill:rgb(214,214,214);fill-rule:nonzero;"/>
                    </g>
                    <rect x="1039.8" y="262.5" width="2.2" height="0.3" style="fill:rgb(214,214,214);"/>
                    <rect x="1039" y="263.2" width="2.9" height="0.3" style="fill:rgb(214,214,214);"/>
                    <rect x="1039" y="264.2" width="2.9" height="0.3" style="fill:rgb(214,214,214);"/>
                    <rect x="1039" y="264.8" width="2.9" height="0.3" style="fill:rgb(214,214,214);"/>
                </g>
                <path d="M1036.1,243.8C1035.8,243.3 1034.9,243.1 1034.5,243.6C1034.3,243.9 1034.1,244.2 1033.9,244.5C1033.4,244.1 1032.6,244.1 1032.4,244.7C1032.3,244.9 1032.3,245 1032.2,245.2C1032,245.1 1031.7,245.2 1031.5,245.3C1030.9,244.8 1029.8,245 1029.8,246C1029.8,250.7 1030.2,255.8 1033.4,259.4C1034.1,260.2 1035.3,259.3 1035.1,258.4C1034.8,256.9 1034.7,255.4 1034.8,253.8C1035.2,253.7 1035.5,253.5 1035.6,253.1C1036.3,250.2 1037.5,246.7 1036.1,243.8Z" style="fill:rgb(246,83,56);fill-rule:nonzero;"/>
            </g>
            <g transform="matrix(1,0,0,1,0,34.8611)">
                <path d="M1091.7,374.7L1091.5,374.7C1091,374.4 1089.8,374.6 1089.2,374.9C1088.5,374.9 1087.7,375.1 1087.2,375.3C1085.3,375.9 1084,377.1 1083.1,377.9C1081.6,379.3 1080.5,381.1 1078.9,383.1C1078.3,383.8 1077.6,384.8 1077.6,385.8C1077.6,387.1 1078.8,388 1080.3,388.3C1082.9,388.9 1085.4,387.7 1087.2,386.3C1089.2,384.6 1091.2,383 1092.5,381.3C1093,380.7 1095.6,379.1 1096.1,378.4C1097.2,377 1094.2,370.7 1091.7,374.7Z" style="fill:rgb(76,42,27);fill-rule:nonzero;"/>
                <path d="M1104.9,375.3C1105,375.3 1105.1,375.3 1105.1,375.2C1105.5,374.8 1106.7,375.1 1107.3,375.6C1107.9,375.7 1108.7,375.9 1109.2,376.2C1110.9,377.1 1111.9,378.7 1112.5,379.9C1113.5,381.8 1114.1,383.9 1115,386.2C1115.3,387 1115.7,388.1 1115.4,389.1C1115.1,390.3 1113.9,391.1 1112.7,391.3C1110.6,391.7 1108.9,390.5 1107.6,389C1106.2,387.3 1104.7,385.5 1103.8,383.6C1103.4,382.9 1101.3,380.9 1100.9,380.2C1100,378.3 1102.8,369.2 1104.9,375.3Z" style="fill:rgb(76,42,27);fill-rule:nonzero;"/>
                <path d="M1085.8,340.9C1085.1,338.6 1084.5,336.3 1084.4,333.8C1084.4,332.4 1086.2,332.1 1086.8,333C1086.8,331.9 1088.1,331.6 1088.9,332.1C1088.9,332 1089,332 1089,331.9C1089.4,331.2 1090.4,330.9 1091,331.6C1091.1,331.7 1091.2,331.9 1091.3,332C1091.7,331.6 1092.3,331.4 1092.8,331.7L1092.8,330.4C1092.7,328.7 1095.3,328.6 1095.4,330.3C1095.5,332.7 1095.4,335.2 1095.2,337.6C1095.1,338.6 1095,341 1094.2,342.4C1094.6,343.5 1094.8,344.7 1095.1,345.8C1095.6,348 1095.9,350.3 1096.1,352.6C1096.4,355.7 1095.8,358.9 1095.1,361.9C1094.6,364.1 1094.4,366.3 1094.1,368.6C1093.8,370.5 1093.6,372.6 1092.8,374.3C1092.7,374.6 1092.6,375 1092.5,375.3C1092.1,376.6 1090.5,376.5 1090,375.7C1089.9,375.6 1089.9,375.6 1089.8,375.5C1089.6,375.7 1089.2,375.9 1089,375.9C1088.2,375.9 1087.8,375.3 1087.6,374.6C1086.6,368.5 1084.9,362.5 1084.2,356.4C1083.5,350.9 1084.8,346 1085.8,340.9Z" style="fill:rgb(245,193,133);fill-rule:nonzero;"/>
                <path d="M1112.6,353C1112.7,349 1112.2,345.1 1110.9,341.5C1110.8,341.2 1110.7,340.9 1110.6,340.7C1110.6,340.6 1110.5,340.6 1110.5,340.5C1111.5,339.2 1111.8,337.5 1111.8,335.9C1111.8,334 1111.5,332 1110.6,330.2C1110.3,329.5 1109.1,329.3 1108.6,329.9C1107.9,330.7 1107.5,331.6 1107.2,332.6L1106.6,332.6L1106.5,332.5C1106.1,331.9 1105.4,331.7 1104.9,332C1104.4,331.6 1103.5,331.7 1103,332.3C1103,332.4 1102.9,332.4 1102.9,332.5C1102.1,332.1 1101,332.5 1101,333.6C1100.9,336.2 1101.2,339.4 1103,341.5C1101.8,346.5 1100.5,351.3 1100.9,356.5C1101.4,362.7 1103,368.7 1103.7,374.8C1103.8,375.5 1104.2,376.2 1105,376.2C1105.3,376.2 1105.6,376.1 1105.9,375.8C1105.9,375.9 1106,375.9 1106,376C1106.5,376.9 1108,377 1108.5,375.7C1108.6,375.4 1108.7,375 1108.8,374.7C1110.5,367.9 1112.5,360.3 1112.6,353Z" style="fill:rgb(245,193,133);fill-rule:nonzero;"/>
                <path d="M1112.1,328C1112.7,320.6 1113.2,313.2 1112.9,305.6C1112.8,304 1112.9,302.3 1112.9,300.6C1112.9,298.5 1112.9,296.4 1112.6,294.4C1111.4,294.7 1110.1,294.8 1108.9,295C1107.7,295.2 1106.5,295.5 1105.3,295.7C1102.7,296.1 1100.1,296.4 1097.6,296.6C1092.5,296.9 1087.2,296.5 1082.3,295.1L1082.2,295.1C1082.2,295.2 1082.1,295.4 1082.1,295.5C1081.6,297.4 1082.1,299.5 1082.1,301.4C1082,304.2 1081.9,306.9 1081.7,309.7C1081.5,313.6 1081.9,317.5 1081.9,321.5C1082,328.2 1083.3,332.8 1084.1,339.4C1084.8,345.4 1083.9,353.6 1084.1,359.7C1084.2,362.9 1084.3,366 1084.5,369.2C1084.7,371.6 1084,374.4 1086.3,376.1C1087.6,377.1 1089.3,377.3 1090.9,377.1C1092.9,376.9 1096,376.2 1096.7,374C1097,373.2 1097,372.2 1097,371.3C1097.6,360.9 1096.3,350.2 1095.9,339.7C1097.2,325.9 1095.8,319.2 1095.9,308.2C1095.9,308.4 1098,308.4 1098.2,308.4C1099.3,311.6 1098.7,316.2 1098.9,319.6C1098.9,326.3 1100.1,332.6 1100.6,339.2C1100.8,341.4 1100.6,343.5 1100.2,345.7C1099.9,347.8 1099.5,349.9 1099.5,352.1C1099.4,354.3 1099.5,356.4 1099.6,358.6C1099.8,362.3 1100,366 1100.1,369.7C1100.2,374.1 1102.2,379.6 1107.8,378.2C1111.4,377.3 1111.9,373.9 1112,370.7C1112.3,360.3 1113.7,349.1 1111.2,338.9C1111.4,338.1 1111.4,337.4 1111.4,336.6C1111.7,333.7 1111.9,330.9 1112.1,328Z" style="fill:rgb(45,45,45);fill-rule:nonzero;"/>
                <path d="M1089.1,293.2C1087.9,294.8 1086.4,296.8 1086.4,296.8C1086.4,296.8 1085.2,300.4 1082,301.3C1082.2,301.2 1082.1,297.4 1082,297C1081.9,295.7 1081.9,294.3 1083.1,293.6C1084,293 1085.5,293 1087.6,293.2L1089.1,293.2Z" style="fill:rgb(35,31,32);fill-rule:nonzero;"/>
                <path d="M1112.9,300.6C1109.5,299.7 1108.3,296.1 1108.3,296.1C1108.3,296.1 1107.7,295.4 1107,294.4C1107.4,294.4 1107.8,294.3 1108.1,294.2L1108.1,294C1108,293.2 1108.8,292.6 1109.4,292.6L1109.4,292.3C1110.3,292.3 1110.9,292.5 1111.4,292.8C1111.8,293 1112,293.3 1112.3,293.8C1113,296 1113,298.3 1112.9,300.6Z" style="fill:rgb(35,31,32);fill-rule:nonzero;"/>
                <path d="M1093.8,298.2L1095.9,304.6L1095.9,296.6L1093.8,298.2Z" style="fill:rgb(35,31,32);fill-rule:nonzero;"/>
                <path d="M1084.6,296.5C1084.6,296.5 1095.2,300.2 1110,296.8L1107.9,295.5C1107.9,295.5 1096.8,296.7 1085.5,295.5C1085.3,296.3 1084.6,296.5 1084.6,296.5Z" style="fill:rgb(35,31,32);fill-rule:nonzero;"/>
                <path d="M1087.9,229.4C1088,229.4 1088,229.5 1088.1,229.5C1090.9,231.2 1094,232.2 1097.3,231.5C1099.1,231.1 1100.9,230.4 1102.6,230C1102.6,229.9 1102.7,229.8 1102.7,229.7C1106.4,229.3 1107.5,224.9 1107.6,221.7C1107.7,219.9 1107.6,217.9 1107,216.2C1106,213.6 1104,212.1 1101.5,211.2C1100.2,210.7 1098.8,210.4 1097.4,210.5C1096,210.6 1094.7,210.8 1093.3,210.8C1090.9,210.9 1088.9,212 1087.4,213.9C1085.6,216.2 1086.1,218.6 1086.3,221.3C1086.6,224.1 1086.9,226.8 1087.9,229.4Z" style="fill:rgb(90,53,34);fill-rule:nonzero;"/>
                <path d="M1102.6,245.6L1102.6,245.3C1102.2,244.2 1101.8,243.2 1101.6,242.1C1101.6,242 1101.6,241.9 1101.5,241.8C1101.3,240.6 1101.2,239.3 1101.1,238.1C1100.9,238 1100.5,238.1 1100.4,238.4L1100.4,238.9C1099.8,238.6 1099.1,238.7 1098.5,238.9C1097.9,238.8 1097.2,239 1096.8,239.4C1096.5,239.4 1096.3,239.5 1096.1,239.6C1095.8,239.2 1095.3,238.9 1094.8,238.9C1094.2,238.2 1093,238.1 1092.2,238.5C1092.2,238.9 1092.1,239.3 1092.1,239.7C1092,240.3 1091.9,240.8 1091.8,241.4C1091.5,242.6 1091.1,243.8 1090.3,244.9C1090.2,245.2 1090.2,245.5 1090.2,245.8L1090.2,245.9C1089.6,246.6 1089.3,247.6 1090.2,248.4C1090.8,249 1091.6,249.2 1092.5,249.3C1092.8,249.9 1093.4,250.3 1094.2,250.3C1097,250.6 1100.9,250.8 1103.1,248.6C1103.8,247.6 1103.5,246.2 1102.6,245.6Z" style="fill:rgb(245,193,133);fill-rule:nonzero;"/>
                <path d="M1101.6,242C1100.2,242.3 1098.4,242.8 1096.5,242.7C1094.3,242.6 1092.7,241.8 1091.6,241.3C1091.7,240.7 1091.8,240.2 1091.9,239.6C1092,239.2 1092,238.8 1092,238.4C1092.8,238 1094,238.1 1094.6,238.8C1095.1,238.9 1095.6,239.1 1095.9,239.5C1096.1,239.4 1096.4,239.3 1096.6,239.3C1097.1,238.9 1097.7,238.7 1098.3,238.8C1098.9,238.5 1099.6,238.5 1100.2,238.8L1100.2,238.3C1100.2,238 1100.6,237.9 1100.9,238C1100.9,239.2 1101,240.5 1101.3,241.7C1101.5,241.8 1101.6,241.9 1101.6,242Z" style="fill:rgb(226,169,113);fill-rule:nonzero;"/>
                <path d="M1103.2,235.5C1103.7,234.2 1104.1,232.7 1104.3,231.6C1104.4,231.2 1104.4,230.8 1104.4,230.4C1104.5,228 1104.7,225.6 1104.8,223.2C1104.8,221.3 1104.8,219.1 1103,218C1101.8,217.3 1100.2,217.2 1098.6,217.4C1096.2,217.7 1093.7,216.7 1091.4,217.8C1089,218.9 1088.4,221.2 1088.5,223.7C1088.5,224.9 1088.7,226.1 1088.9,227.3C1089.1,228.6 1088.9,229.9 1088.9,231.1C1089,232.1 1090.7,237.7 1091.8,239.1C1093.3,241 1095.8,241.2 1098.1,241.1C1100.2,241 1101.5,239.5 1102.4,237.7C1102.6,237.1 1102.9,236.3 1103.2,235.5Z" style="fill:rgb(245,193,133);fill-rule:nonzero;"/>
                <path d="M1089.8,230.8C1089.9,230.7 1089.9,230.7 1089.9,230.5L1089.9,230.3C1090,230.2 1090,230 1090,229.9C1090,229.8 1090,229.8 1089.9,229.7C1089.8,229.1 1089.7,228.4 1089.4,227.8C1089.7,227.8 1090,227.5 1089.8,227.1C1089.5,226.5 1088.8,225.5 1088,225.9C1087.2,226.3 1087.4,227.5 1087.4,228.2C1087.6,229.5 1087.9,231.8 1089.7,231.6C1090.2,231.6 1090.1,231 1089.8,230.8Z" style="fill:rgb(245,193,133);fill-rule:nonzero;"/>
                <path d="M1105.2,226.4C1105.1,226.3 1104.9,226.2 1104.7,226.1C1104.1,226.1 1103.8,226.7 1103.7,227.3C1103.6,227.6 1103.8,227.9 1104,228C1103.8,228.8 1103.7,229.6 1103.6,230C1103.5,230.3 1103.7,230.6 1103.9,230.7C1103.9,230.7 1103.9,230.8 1104,230.8C1103.9,231 1103.8,231.1 1103.7,231.3C1103.4,231.8 1104,232.4 1104.3,232C1104.9,231.2 1105.5,230.1 1105.8,229C1105.8,228.9 1105.8,228.9 1105.9,228.8C1105.8,228 1105.8,226.7 1105.2,226.4Z" style="fill:rgb(245,193,133);fill-rule:nonzero;"/>
                <path d="M1110.3,264.4C1110.6,264.3 1110.8,264 1110.9,263.7C1111.3,262.5 1111.8,261.5 1111.7,260.2C1111.6,259 1110.8,257.9 1110.7,256.6C1110.6,256 1110.3,255.7 1109.9,255.5C1109.9,252.9 1110.3,250.2 1111.2,247.8C1112,245.6 1106.4,244.7 1102.4,244.3C1102.1,245 1101.8,245.7 1101.3,246.3C1099.8,246.3 1098.2,246.6 1096.7,246.7C1095.2,246.8 1092.9,246.9 1091.9,245.6C1091.6,245.2 1091.1,245.1 1090.7,245.1C1090.5,244.8 1090.3,244.5 1090.1,244.2C1085.4,244.6 1080.6,245.5 1080.9,248C1080.9,248.3 1081.1,248.7 1081.3,249.1C1081,249.3 1080.9,249.6 1080.9,250C1080.8,252.3 1081.2,254.6 1081.5,257C1081.8,259.3 1082,261.7 1082,264.1C1082,264.3 1082.1,264.5 1082.1,264.7C1081.9,265.4 1081.7,266.2 1081.4,266.9C1081.5,267.1 1081.5,267.2 1081.5,267.4C1082.2,272.8 1082.9,278.2 1082.7,283.6C1082.5,287.5 1082.1,291.4 1082.1,295.3C1082.3,295.4 1082.6,295.5 1082.8,295.6C1082.9,295.7 1083.1,295.7 1083.2,295.8C1089.7,298.4 1096.7,299.5 1103.6,298.8C1106.2,298.6 1108.9,298 1110.8,296.3C1110.9,296.2 1111,296.1 1111.1,296C1111.3,295.9 1112.5,294.6 1112.6,294.5C1111.1,284.1 1110.1,274.7 1110.3,264.4Z" style="fill:rgb(0,74,142);fill-rule:nonzero;"/>
                <path d="M1096.5,246.7L1094.8,248.5C1094.8,248.5 1095.8,251.3 1096.5,251.3C1097.2,251.3 1098.1,248.6 1098.1,248.6L1096.5,246.7Z" style="fill:rgb(170,50,41);fill-rule:nonzero;"/>
                <path d="M1095.6,250.4L1094.1,260.3L1094.1,276.6L1096.2,278.9C1096.2,278.9 1098.7,277 1098.7,276.8L1098.7,260.4L1097.3,250.4L1095.6,250.4Z" style="fill:rgb(210,41,64);fill-rule:nonzero;"/>
                <path d="M1091.1,242.9L1096.6,246.7L1094.3,250.9L1089.5,244.1L1091.1,242.9Z" style="fill:rgb(0,56,111);fill-rule:nonzero;"/>
                <path d="M1102,242.9L1096.5,246.7L1098.8,250.9L1103.5,244.1L1102,242.9Z" style="fill:rgb(0,56,111);fill-rule:nonzero;"/>
                <path d="M1077,316.2C1077.1,315.7 1077,315.2 1076.7,314.9C1077.2,313.5 1077.4,312.1 1077,310.6C1077.1,310.4 1077.1,310.3 1077.1,310C1077.1,308.4 1076.9,306.9 1076.2,305.5C1075.9,305 1075.6,304.5 1075.2,304.2C1074.7,303.8 1074.1,304.1 1073.6,303.8C1073.4,303.7 1073.2,303.7 1073.1,303.8C1072.4,302.9 1071.2,302.8 1070.6,304.2C1069.8,306.3 1069.8,309 1069.9,311.3C1070,312.7 1070.4,313.9 1070.9,315C1071.2,316.1 1071.8,317 1072.7,317.6C1072.8,317.7 1072.8,317.7 1072.9,317.8C1073.9,319.3 1076.1,318.6 1077.5,318.2C1078.5,318 1078,315.9 1077,316.2ZM1074.5,314C1074.2,313.7 1074,313.4 1073.8,313.1L1073.8,313C1073.8,313.2 1073.8,312.4 1073.8,312.1L1073.8,312C1073.9,312.1 1074.1,312.1 1074.3,312C1074.4,312 1074.4,311.9 1074.4,311.9L1074.4,312.1C1074.5,312.4 1074.6,312.7 1074.7,313.1C1074.8,313.5 1074.9,314 1074.9,314.4C1074.9,314.2 1074.7,314.1 1074.5,314Z" style="fill:rgb(245,193,133);fill-rule:nonzero;"/>
                <path d="M1082,245.7C1079.9,245.9 1078.5,247.6 1077.6,249.4C1075.8,252.3 1075,256.8 1074.3,258.8C1073.3,261.7 1072.4,264.7 1072.2,267.8C1072.1,269.1 1072.1,270.4 1072,271.7C1071.7,276.4 1070,280.9 1069.5,285.7C1069.5,291.9 1069.4,298.1 1069.4,304.3C1070.6,304.6 1071.8,304.7 1073,304.4C1074.2,304.2 1075.5,303.8 1076.7,303.6C1076.9,299.1 1077.2,294.7 1077.6,290.2C1077.8,289 1078,287.8 1078.1,286.6C1078.2,284.7 1078.3,282.7 1078.4,280.8C1078.5,280 1078.6,279.3 1078.8,278.5C1079.1,276.9 1079.7,275.3 1080.2,273.8C1081,271.3 1081.9,268.7 1082.6,266.1C1082.5,259.4 1082.2,252.6 1082,245.7Z" style="fill:rgb(0,74,142);fill-rule:nonzero;"/>
                <path d="M1105.1,216.2L1104.8,216.2C1105,215.8 1104.9,215.3 1104.7,214.9L1104.7,214.8C1104.6,213 1101.9,212.9 1101.7,214.6L1101.4,214.6C1099.4,214.6 1097.5,215 1095.5,215.2C1093.9,215.4 1092.3,215.5 1090.8,215.9C1090.1,215.5 1089.1,215.7 1088.9,216.6C1088.8,216.9 1088.8,217.2 1088.8,217.4C1088.6,217.6 1088.5,217.8 1088.4,218.1C1088.4,218.3 1088.3,218.5 1088.3,218.6C1088.2,218.7 1088,218.9 1087.9,219.1L1087.8,219.2C1087.2,219.9 1090.3,221.7 1090.7,221.9C1092.4,222.6 1094.3,223 1096.2,222.8C1097.9,222.7 1099.5,222.2 1101,221.3C1102.3,220.6 1103.5,219 1105.1,219.1C1107,219.3 1107,216.3 1105.1,216.2Z" style="fill:rgb(90,53,34);fill-rule:nonzero;"/>
                <path d="M1122.6,304C1122,302.9 1120.8,303 1120.1,303.7C1120,303.7 1119.8,303.6 1119.6,303.7C1119.1,303.9 1118.5,303.7 1118,304C1117.6,304.2 1117.3,304.6 1117,305C1116.3,306 1116.1,307.2 1116.1,308.5C1116.1,308.7 1116.1,308.8 1116.2,308.9C1115.8,309.9 1115.9,310.9 1116.3,311.8C1116.5,311.8 1116.7,311.7 1116.9,311.7C1117.7,311.5 1117.8,310.8 1118.3,310.2C1118.6,309.8 1119,309.9 1119.3,310C1119.7,310.3 1119.9,310.9 1119.5,311.3C1119.3,311.5 1119.2,311.8 1119.1,312C1119.1,312.1 1119.1,312.3 1119,312.4C1118.3,313.6 1116.6,313.9 1115.3,314.5C1115.4,314.6 1115.5,314.7 1115.7,314.8C1117.1,315.1 1119.2,315.6 1120.3,314.5C1120.4,314.5 1120.4,314.4 1120.5,314.3C1121.4,313.8 1121.9,313.1 1122.3,312.3C1122.8,311.5 1123.2,310.6 1123.3,309.5C1123.4,307.7 1123.4,305.6 1122.6,304Z" style="fill:rgb(245,193,133);fill-rule:nonzero;"/>
                <path d="M1108.3,249.9C1108.5,248.9 1108.8,248 1109.5,247.3C1109.2,246.7 1109.5,245.7 1110.5,245.6C1113,245.5 1114.6,247.3 1115.6,249.4C1117.4,252.3 1118.2,256.8 1118.9,258.8C1119.9,261.7 1120.8,264.7 1121,267.8C1121.1,269.1 1121.1,270.4 1121.2,271.7C1121.5,276.4 1123.2,280.9 1123.7,285.7C1123.7,291.9 1123.8,298.1 1123.8,304.3C1122.6,304.6 1121.4,304.7 1120.2,304.4C1119,304.2 1117.7,303.8 1116.5,303.6C1116.3,299.1 1116,294.7 1115.6,290.2C1115.4,289 1115.2,287.8 1115.1,286.6C1115,284.7 1114.9,282.7 1114.8,280.8C1114.7,280 1114.6,279.3 1114.4,278.5C1114.1,276.9 1113.5,275.3 1113,273.8C1111.9,270.5 1110.8,267.1 1110,263.7C1109.9,263.1 1110.1,262.7 1110.5,262.5C1110.4,261.8 1110.3,261.2 1110.3,260.5C1110.1,259.9 1109.9,259.6 1109.7,259.4C1109.6,259.4 1109.6,259.5 1109.5,259.5C1108.5,259.8 1107.5,259.2 1107.2,258.2C1106.2,255.5 1107.7,252.6 1108.3,249.9Z" style="fill:rgb(0,74,142);fill-rule:nonzero;"/>
                <g>
                    <path d="M1102.1,324.8L1129.7,327L1132,309L1104.7,306.5L1102.1,324.8Z" style="fill:rgb(230,231,232);fill-rule:nonzero;"/>
                    <path d="M1128,322.2L1129.1,313.2L1128.2,313.2L1127.1,322.1L1128,322.2Z" style="fill:rgb(209,211,212);fill-rule:nonzero;"/>
                    <path d="M1125.3,324.7L1127.1,310.6L1126.3,310.6L1124.4,324.6L1125.3,324.7Z" style="fill:rgb(209,211,212);fill-rule:nonzero;"/>
                    <path d="M1123.4,324.5L1125.2,310.4L1124.4,310.4L1122.5,324.4L1123.4,324.5Z" style="fill:rgb(209,211,212);fill-rule:nonzero;"/>
                    <path d="M1121.5,324.3L1123.3,310.2L1122.5,310.2L1120.6,324.2L1121.5,324.3Z" style="fill:rgb(209,211,212);fill-rule:nonzero;"/>
                    <path d="M1119.6,324.1L1121.4,310L1120.6,310L1118.7,324L1119.6,324.1Z" style="fill:rgb(209,211,212);fill-rule:nonzero;"/>
                    <path d="M1117.7,323.9L1119.5,309.8L1118.7,309.8L1116.8,323.8L1117.7,323.9Z" style="fill:rgb(209,211,212);fill-rule:nonzero;"/>
                    <path d="M1115.8,323.7L1117.7,309.6L1116.8,309.6L1114.9,323.6L1115.8,323.7Z" style="fill:rgb(209,211,212);fill-rule:nonzero;"/>
                    <path d="M1113.9,323.4L1115.8,309.3L1114.9,309.3L1113,323.4L1113.9,323.4Z" style="fill:rgb(209,211,212);fill-rule:nonzero;"/>
                </g>
                <path d="M1117.4,306C1116.6,306.6 1116,307.3 1115.7,308.3C1115.4,309.2 1115.5,310.2 1115.5,311.1C1115.5,312.5 1117.7,312.5 1117.7,311.1C1117.7,310 1117.5,308.7 1118.5,308C1119.7,307.1 1118.6,305.2 1117.4,306Z" style="fill:rgb(245,193,133);fill-rule:nonzero;"/>
            </g>
            <g>
                <g transform="matrix(1,0,0,1,0,34.8611)">
                    <path d="M66.1,185.6L91.7,257.4L37.6,276.8L11.9,204.9L66.1,185.6Z" style="fill:rgb(229,230,231);"/>
                    <path d="M29.8,236.8L72,221.7L72.8,223.8L30.6,238.9L29.8,236.8ZM22.8,217.2L65,202.1L65.8,204.2L23.6,219.3L22.8,217.2ZM26.3,227L68.5,211.9L69.3,214L27.1,229.1L26.3,227ZM40.3,266.1L82.5,251L83.3,253.1L41.1,268.2L40.3,266.1ZM36.8,256.3L79,241.2L79.7,243.3L37.5,258.4L36.8,256.3ZM33.3,246.5L75.5,231.4L76.3,233.5L34.1,248.6L33.3,246.5Z" style="fill:rgb(204,204,204);"/>
                    <path d="M157.8,174.2L157.9,286.2L73.5,286.2L73.5,174.2L157.8,174.2Z" style="fill:rgb(254,254,254);"/>
                    <path d="M83,220.9L148.8,220.9L148.8,224.2L83,224.2L83,220.9ZM83,190.5L148.8,190.5L148.8,193.8L83,193.8L83,190.5ZM83,205.7L148.8,205.7L148.8,209L83,209L83,205.7ZM83.1,266.7L148.9,266.7L148.9,270L83.1,270L83.1,266.7ZM83.1,251.4L148.9,251.4L148.9,254.7L83.1,254.7L83.1,251.4ZM83.1,236.2L148.9,236.2L148.9,239.5L83.1,239.5L83.1,236.2Z" style="fill:rgb(204,204,204);"/>
                </g>
                <g transform="matrix(1,0,0,1,0,34.8611)">
                    <rect x="19.1" y="250.1" width="44.7" height="49.2" style="fill:rgb(254,254,254);"/>
                    <path d="M64,250.1L41.4,250.1L18.8,250.1C17.9,250.1 17.2,249.4 17.2,248.5L17.2,246C17.2,245.1 17.9,244.4 18.8,244.4L35.1,244.4L35.1,243.7C35.1,240.2 37.9,237.4 41.4,237.4C44.9,237.4 47.7,240.2 47.7,243.7L47.7,244.4L64,244.4C64.9,244.4 65.6,245.1 65.6,246L65.6,248.4C65.6,249.3 64.9,250.1 64,250.1ZM41.4,241.3C40.1,241.3 39,242.4 39,243.7C39,245 40.1,246.1 41.4,246.1C42.7,246.1 43.8,245 43.8,243.7C43.8,242.4 42.8,241.3 41.4,241.3Z" style="fill:rgb(241,104,88);"/>
                    <path d="M64,250.1L41.4,250.1L18.8,250.1C17.9,250.1 17.2,249.4 17.2,248.5L65.7,248.5C65.6,249.3 64.9,250.1 64,250.1Z" style="fill:rgb(192,39,41);"/>
                    <path d="M56.4,299.2L63.7,291.9L56.4,292L56.4,299.2Z" style="fill:rgb(208,210,212);"/>
                    <g>
                        <path d="M53.7,258.6L32.2,258.6C31.6,258.6 31.1,259.1 31.1,259.7C31.1,260.3 31.6,260.8 32.2,260.8L53.7,260.8C54.3,260.8 54.8,260.3 54.8,259.7C54.8,259.1 54.3,258.6 53.7,258.6Z" style="fill:rgb(124,124,124);"/>
                        <path d="M58.4,270.9L40,270.9C39.4,270.9 38.9,271.4 38.9,272C38.9,272.6 39.4,273.1 40,273.1L58.4,273.1C59,273.1 59.5,272.6 59.5,272C59.5,271.4 59,270.9 58.4,270.9Z" style="fill:rgb(124,124,124);"/>
                        <path d="M28.4,254.6C31.2,254.6 33.4,256.9 33.4,259.7C33.4,262.5 31.1,264.7 28.4,264.7C25.6,264.7 23.3,262.4 23.3,259.7C23.4,256.9 25.7,254.6 28.4,254.6Z" style="fill:rgb(8,198,162);"/>
                        <path d="M53.7,283.2L32.2,283.2C31.6,283.2 31.1,283.7 31.1,284.3C31.1,284.9 31.6,285.4 32.2,285.4L53.7,285.4C54.3,285.4 54.8,284.9 54.8,284.3C54.8,283.7 54.3,283.2 53.7,283.2Z" style="fill:rgb(124,124,124);"/>
                        <path d="M35.4,266.9C38.2,266.9 40.5,269.2 40.5,272C40.5,274.8 38.2,277 35.4,277C32.6,277 30.4,274.7 30.4,272C30.4,269.2 32.6,266.9 35.4,266.9Z" style="fill:rgb(8,198,162);"/>
                        <path d="M28.4,279.2C31.2,279.2 33.4,281.5 33.4,284.3C33.4,287.1 31.1,289.3 28.4,289.3C25.6,289.3 23.3,287 23.3,284.3C23.4,281.5 25.7,279.2 28.4,279.2Z" style="fill:rgb(8,198,162);"/>
                    </g>
                </g>
                <g transform="matrix(1,0,0,1,0,34.8611)">
                    <path d="M48.9,303.9L55.7,305.6C61,302.6 61.6,299.7 55.9,296.8L49,298.5C36.2,301.7 36.5,300.7 48.9,303.9Z" style="fill:rgb(251,192,129);"/>
                    <path d="M45.5,299.3C37.1,301.3 37.2,301.1 45.4,303.1C46.2,302.6 46.7,301.9 46.7,301.2C46.8,300.5 46.3,299.8 45.5,299.3Z" style="fill:rgb(77,77,77);"/>
                    <path d="M98.9,299.7L94.8,299.7L58.4,299.6C56.5,299.6 55,298.8 55,297.9C55,297 56.6,296.2 58.4,296.2L98.9,296.3L103.5,296.3C105.1,296.3 106.4,297 106.4,297.8L106.3,299.7L98.9,299.7Z" style="fill:rgb(185,111,45);"/>
                    <path d="M98.9,299.2L94.8,299.2L58.4,299.1C56.5,299.1 55,299.9 55,301C55,302 56.5,302.9 58.4,302.9L94.8,303L106.4,303L106.5,299.2L98.9,299.2Z" style="fill:rgb(228,136,58);"/>
                    <path d="M98.7,306.4L97.1,306.4L58.2,306.3C56.3,306.3 54.8,305.4 54.8,304.3C54.8,303.2 56.4,302.4 58.2,302.4L94.6,302.5L106.2,302.5L106.1,304.7C106.1,305.5 105,306.2 103.6,306.3L98.7,306.4Z" style="fill:rgb(249,158,63);"/>
                    <path d="M114,298.9L113.9,304C113.9,305.4 112.7,306.5 111.3,306.5L104.7,306.5C103.3,306.5 102.2,305.4 102.2,304L102.3,298.9C102.3,297.5 103.5,296.4 104.9,296.4L111.5,296.4C112.9,296.4 114,297.5 114,298.9Z" style="fill:rgb(241,105,141);"/>
                    <path d="M106.4,297.5L106.1,305.5C106.1,306.1 105.6,306.6 105,306.6L102.8,306.6C102.2,306.6 101.7,306.1 101.8,305.5L102,297.5C102,296.9 102.5,296.4 103.1,296.4L105.3,296.4C105.9,296.4 106.4,296.9 106.4,297.5Z" style="fill:rgb(216,94,127);"/>
                </g>
                <g transform="matrix(1,0,0,1,0,34.8611)">
                    <path d="M118.6,278.1L169,278.1C170.1,278.1 170.9,279 170.9,280L170.9,313.4C170.9,314.5 170,315.3 169,315.3L118.6,315.3C117.5,315.3 116.6,314.4 116.6,313.4L116.6,280C116.7,279 117.6,278.1 118.6,278.1Z" style="fill:rgb(254,254,254);"/>
                    <path d="M118.9,269.4L168.7,269.4C169.9,269.4 171,270.4 171,271.7L171,279.5C171,280.7 170,281.7 168.7,281.7L118.9,281.7C117.7,281.7 116.6,280.7 116.6,279.5L116.6,271.7C116.7,270.5 117.7,269.4 118.9,269.4Z" style="fill:rgb(250,185,67);"/>
                    <g>
                        <path d="M123.1,274C124.1,274 124.8,273.2 124.8,272.3C124.8,271.4 124,270.6 123.1,270.6C122.1,270.6 121.3,271.4 121.3,272.3C121.3,273.2 122.1,274 123.1,274Z" style="fill:rgb(104,104,104);"/>
                        <path d="M130,274C131,274 131.7,273.2 131.7,272.3C131.7,271.4 130.9,270.6 130,270.6C129,270.6 128.3,271.4 128.3,272.3C128.3,273.2 129.1,274 130,274Z" style="fill:rgb(104,104,104);"/>
                        <path d="M136.9,274C137.9,274 138.6,273.2 138.6,272.3C138.6,271.4 137.8,270.6 136.9,270.6C135.9,270.6 135.2,271.4 135.2,272.3C135.2,273.2 136,274 136.9,274Z" style="fill:rgb(104,104,104);"/>
                        <path d="M143.8,274C144.8,274 145.5,273.2 145.5,272.3C145.5,271.4 144.7,270.6 143.8,270.6C142.8,270.6 142.1,271.4 142.1,272.3C142.1,273.2 142.9,274 143.8,274Z" style="fill:rgb(104,104,104);"/>
                        <path d="M150.7,274C151.7,274 152.4,273.2 152.4,272.3C152.4,271.4 151.6,270.6 150.7,270.6C149.7,270.6 149,271.4 149,272.3C149,273.2 149.8,274 150.7,274Z" style="fill:rgb(104,104,104);"/>
                        <path d="M157.6,274C158.6,274 159.4,273.2 159.4,272.3C159.4,271.4 158.6,270.6 157.6,270.6C156.6,270.6 155.9,271.4 155.9,272.3C155.9,273.2 156.7,274 157.6,274Z" style="fill:rgb(104,104,104);"/>
                        <path d="M164.5,274C165.5,274 166.2,273.2 166.2,272.3C166.2,271.4 165.4,270.6 164.5,270.6C163.5,270.6 162.7,271.4 162.7,272.3C162.7,273.2 163.6,274 164.5,274Z" style="fill:rgb(104,104,104);"/>
                    </g>
                    <g>
                        <path d="M123.2,266.4C123.9,266.4 124.5,267 124.5,267.7L124.5,271.3C124.5,272 123.9,272.6 123.2,272.6C122.5,272.6 121.9,272 121.9,271.3L121.9,267.7C121.9,267 122.5,266.4 123.2,266.4Z" style="fill:rgb(254,254,254);"/>
                        <path d="M130.1,266.4C130.8,266.4 131.4,267 131.4,267.7L131.4,271.3C131.4,272 130.8,272.6 130.1,272.6C129.4,272.6 128.8,272 128.8,271.3L128.8,267.7C128.8,267 129.4,266.4 130.1,266.4Z" style="fill:rgb(254,254,254);"/>
                        <path d="M137,266.4C137.7,266.4 138.3,267 138.3,267.7L138.3,271.3C138.3,272 137.7,272.6 137,272.6C136.3,272.6 135.7,272 135.7,271.3L135.7,267.7C135.7,267 136.2,266.4 137,266.4Z" style="fill:rgb(254,254,254);"/>
                        <path d="M143.9,266.4C144.6,266.4 145.2,267 145.2,267.7L145.2,271.3C145.2,272 144.6,272.6 143.9,272.6C143.2,272.6 142.6,272 142.6,271.3L142.6,267.7C142.6,267 143.2,266.4 143.9,266.4Z" style="fill:rgb(254,254,254);"/>
                        <path d="M150.8,266.4C151.5,266.4 152.1,267 152.1,267.7L152.1,271.3C152.1,272 151.5,272.6 150.8,272.6C150.1,272.6 149.5,272 149.5,271.3L149.5,267.7C149.5,267 150.1,266.4 150.8,266.4Z" style="fill:rgb(254,254,254);"/>
                        <path d="M157.7,266.4C158.4,266.4 159,267 159,267.7L159,271.3C159,272 158.4,272.6 157.7,272.6C157,272.6 156.4,272 156.4,271.3L156.4,267.7C156.4,267 157,266.4 157.7,266.4Z" style="fill:rgb(254,254,254);"/>
                        <path d="M164.6,266.4C165.3,266.4 165.9,267 165.9,267.7L165.9,271.3C165.9,272 165.3,272.6 164.6,272.6C163.9,272.6 163.3,272 163.3,271.3L163.3,267.7C163.3,267 163.9,266.4 164.6,266.4Z" style="fill:rgb(254,254,254);"/>
                    </g>
                    <g>
                        <rect x="121.6" y="287.4" width="5.4" height="5.4" style="fill:rgb(242,109,110);"/>
                        <rect x="121.6" y="296.5" width="5.4" height="5.4" style="fill:rgb(242,109,110);"/>
                        <rect x="131.4" y="287.4" width="5.4" height="5.4" style="fill:rgb(128,129,132);"/>
                        <rect x="131.4" y="296.5" width="5.4" height="5.4" style="fill:rgb(128,129,132);"/>
                        <rect x="141.2" y="287.4" width="5.4" height="5.4" style="fill:rgb(128,129,132);"/>
                        <rect x="141.2" y="296.5" width="5.4" height="5.4" style="fill:rgb(128,129,132);"/>
                        <rect x="151" y="287.4" width="5.4" height="5.4" style="fill:rgb(128,129,132);"/>
                        <rect x="151" y="296.5" width="5.4" height="5.4" style="fill:rgb(128,129,132);"/>
                        <rect x="160.7" y="296.5" width="5.4" height="5.4" style="fill:rgb(128,129,132);"/>
                        <rect x="121.6" y="305.5" width="5.4" height="5.4" style="fill:rgb(242,109,110);"/>
                        <rect x="131.4" y="305.5" width="5.4" height="5.4" style="fill:rgb(128,129,132);"/>
                        <rect x="141.2" y="305.5" width="5.4" height="5.4" style="fill:rgb(128,129,132);"/>
                        <rect x="151" y="305.5" width="5.4" height="5.4" style="fill:rgb(128,129,132);"/>
                        <rect x="160.7" y="305.5" width="5.4" height="5.4" style="fill:rgb(128,129,132);"/>
                        <path d="M163.9,294.4C166.8,294.4 169.1,292 169.1,289.2C169.1,286.3 166.8,284 163.9,284C161,284 158.7,286.4 158.7,289.2C158.6,292 161,294.4 163.9,294.4Z" style="fill:rgb(173,236,247);"/>
                        <path d="M161,288L163.7,292.7L170.2,282.1L163.9,289.3L161,288Z" style="fill:rgb(242,109,110);"/>
                    </g>
                </g>
            </g>
        </g>
    </g>
    <g id="btn01" class="x-area" data-content="m1/m1_04a" cursor="pointer" fill-opacity="0" fill-color="#ffffff" transform="matrix(1,0,0,1,0,-100)">
        <path d="M98.761,308.261L97.092,308.261L58.167,308.161C56.507,308.147 54.867,307.8 53.36,307.078L53.295,307.044C50.744,306.407 48.195,305.765 45.644,305.125C44.481,304.835 43.982,304.791 43.982,304.791C40.79,304.015 37.327,303.741 35.033,301.433C34.946,301.346 34.865,301.252 34.781,301.161L19.1,301.161C15.895,301.004 13.261,298.428 13.1,295.161L13.1,249.401C12.892,249.165 12.807,249.049 12.807,249.049C8.93,243.958 11.315,235.519 17.49,234.373C17.49,234.373 6.25,202.781 6.25,202.781C6.25,202.781 5.458,196.936 9.887,195.109L64.087,175.809C66.142,175.189 66.4,175.409 67.5,175.63L67.5,170.061C67.658,166.847 70.233,164.222 73.5,164.061L157.8,164.061C157.996,164.071 158.192,164.08 158.388,164.09C161.359,164.53 163.647,166.995 163.8,170.056C163.8,170.056 164.214,256.271 164.214,256.271C166.765,256.169 168.873,257.016 170.626,259.452C170.626,259.452 176.781,261.88 176.998,267.342C177.038,270.461 177.329,273.704 176.903,276.618C176.903,276.618 176.898,309.466 176.898,309.466C176.742,313.508 173.325,317.005 169.197,317.159C152.32,317.372 135.44,317.161 118.562,317.161C114.41,317.108 110.66,313.598 110.6,309.303L110.6,308.361L106.188,308.361C105.947,308.405 105.439,308.455 105.043,308.461L102.73,308.461C102.16,308.448 101.547,308.371 100.956,308.216L98.761,308.261Z"/>
    </g>
    <g id="btn03" class="x-area" data-content="m1/m1_04c" cursor="pointer" fill-opacity="0" fill-color="#ffffff" transform="matrix(1,0,0,1,0,-100)">
        <path d="M963.09,311.328C962.868,310.589 961.832,307.022 961.769,304.942C961.735,303.566 961.785,301.689 961.785,301.689L961.255,299.318C961.141,298.657 961.141,298.657 961.1,297.987C961.063,289.54 960.616,281.147 961.718,272.715C963.007,262.856 962.777,252.614 966.397,242.986C967.736,239.428 970.24,236.357 974.426,235.234C976.291,234.734 979.05,234.183 979.05,234.183C979.05,234.183 978.217,231.614 978.226,229.552C978.226,229.552 976.813,226.009 976.271,223.053C975.507,218.879 975.77,214.441 977.673,210.647C977.673,210.647 980.478,205.109 985.518,202.995C987.859,202.013 990.585,200.512 993.659,201.182C993.659,201.182 998.459,199.74 1001.9,201.74C1002.7,201.705 1002.78,201.727 1003.17,201.757C1006.38,202.009 1009.3,204.222 1010.3,207.401C1010.3,207.401 1011.84,209.818 1012.12,211.759L1012.3,212.64C1012.46,213.668 1012.42,213.795 1012.41,214.288C1012.38,215.283 1012.19,216.274 1011.84,217.203C1011.58,217.854 1011.07,218.713 1011.07,218.713C1010.9,219.449 1011.1,218.75 1010.72,219.874C1009.92,222.199 1008.52,223.903 1008.5,226.407C1008.5,226.407 1008.4,230.772 1006.68,234.418C1006.85,234.487 1007.02,234.559 1007.19,234.632C1011.54,236.521 1015.16,240.141 1015.63,244.758C1015.63,244.758 1015.61,244.431 1015.61,244.431C1016.52,247.696 1017.37,250.959 1018.18,254.239C1018.18,254.239 1019.24,249.907 1020.1,247.299C1020.69,245.507 1021.9,243.224 1021.74,242.65C1020.64,238.382 1021.27,233.906 1022.08,229.585C1022.95,224.678 1021.06,219.002 1026.79,213.015C1028.7,211.022 1032.27,209.487 1032.27,209.487C1033.97,209.007 1033.6,209.066 1034.79,208.457C1039.48,206.054 1045.42,206.795 1049.69,210.206C1049.69,210.206 1052.87,211.417 1054.83,213.94C1055.72,215.087 1056.41,216.397 1056.83,217.791C1058.05,221.926 1057.22,226.617 1056.36,230.837C1056.08,232.256 1056.06,232.56 1055.95,233.397C1055.69,235.52 1055.52,238.618 1055.52,238.618C1056.54,239.383 1056.58,239.508 1056.97,239.942C1060.27,243.59 1061.44,248.793 1062.71,253.417C1063.62,256.698 1064.05,260.054 1064.49,263.465C1064.65,264.658 1066.1,265.394 1066.1,265.394C1066.32,259.758 1068.14,254.352 1069.68,248.961C1071.4,243.07 1074.44,236.722 1080.73,235.679C1082.48,235.39 1084.99,234.668 1084.99,234.668C1084.62,233.723 1084.74,234.016 1084.61,233.639C1084.02,231.983 1083.38,230.341 1083.38,230.341C1082.22,228.704 1081.67,226.733 1081.44,224.742C1081.44,224.742 1080.77,221.672 1080.43,218.664C1080.43,218.664 1078.67,207.962 1085.91,203.018C1088.95,200.936 1092.87,200.74 1096.36,200.425C1097.56,200.324 1097.62,200.336 1098.14,200.343C1098.95,200.355 1099.76,200.438 1100.56,200.583C1108.2,201.97 1113.99,208.786 1113.59,217.829C1113.48,220.426 1113,223.025 1111.87,225.297C1111.87,225.297 1111.95,225.995 1110.88,228.411C1110.5,229.289 1110.04,229.523 1109.62,231.029C1109.15,232.663 1108.26,234.966 1108.26,234.966C1109.38,235.2 1110.77,235.457 1110.77,235.457C1114.96,235.537 1118.71,238.254 1120.72,242.089C1124.12,248.589 1126.66,256.78 1127.05,264.313L1127.06,264.527C1127.24,264.331 1127.43,264.138 1127.62,263.945C1128.56,262.986 1129.52,262.057 1130.6,261.26C1131.01,260.963 1130.87,260.284 1131.01,259.796C1131.33,258.628 1131.66,257.46 1131.99,256.292C1132.81,253.358 1133.67,250.433 1134.46,247.487C1134.54,247.23 1134.54,247.23 1134.62,246.974C1135.83,243.081 1138.26,239.346 1142.16,237.64L1142.17,237.639L1142.21,237.618C1142.25,237.6 1142.3,237.582 1142.34,237.564L1142.21,237.637L1142.17,237.639L1142.21,237.637C1142.49,237.616 1143.85,237.459 1143.46,236.359C1142.99,234.976 1142.55,232.927 1142.55,232.927C1142.47,232.782 1142.4,232.636 1142.32,232.49C1137.75,223.471 1141.81,210.268 1154.4,209.033L1155.97,207.328C1156.3,207.071 1156.52,206.823 1157.7,206.277C1157.7,206.277 1161.06,204.611 1163.63,204.716C1169.24,204.945 1174.47,209.549 1175.16,215.239L1175.2,215.938C1175.16,216.611 1174.95,216.286 1175.18,217.633C1175.3,218.418 1175.38,219.21 1175.4,220.005C1175.5,223.147 1174.81,226.289 1173.18,229.078C1173.18,229.078 1176.2,232.795 1174.33,236.435C1173.55,237.948 1172.33,239.204 1170.87,240.11C1170.87,240.11 1176.19,244.637 1177.39,250.565C1178.15,254.322 1178.22,258.205 1178.52,262.065C1179.1,269.481 1179.64,276.895 1180.23,284.328L1180.38,286.217C1180.44,287.044 1180.5,287.87 1180.55,288.697C1180.63,290.018 1180.65,291.998 1180.65,291.998L1181.01,293.219C1181.06,293.631 1181.16,293.94 1181.02,295.225L1180.67,298.702L1181.88,302.651C1182.52,305.105 1182.51,307.73 1181.6,310.075C1181.09,311.381 1179.29,315.754 1175.66,316.897C1175.54,319.448 1175.61,322.013 1176.15,324.444C1176.15,324.444 1177.21,331.027 1178.07,336.277C1179.66,346.137 1181.1,356.018 1181.2,366.079C1181.21,367.653 1180.72,369.438 1179.6,370.849C1180.01,373.196 1179.99,373.624 1180.07,375.469C1180.38,382.069 1175.68,389.76 1168.51,387.37C1165.67,386.422 1163.69,383.78 1162.63,380.752C1162.63,380.752 1158.71,381.386 1155.17,381.459C1151.69,381.52 1148.18,381.521 1144.79,380.726C1144.71,380.705 1144.63,380.685 1144.55,380.664C1143.95,380.513 1144.65,380.684 1144.09,380.544C1137.28,378.648 1137.23,366.175 1148.34,365.569C1148.34,365.569 1148.27,364.572 1148.16,363.666C1147.59,358.704 1147.32,353.731 1146.86,348.745C1146.86,348.745 1146.15,344.583 1145.51,341.454C1143.43,331.328 1140.51,321.412 1137.56,311.521C1137.44,311.129 1137.31,310.679 1137.31,310.679L1135.65,323.622C1135.08,326.668 1132.43,328.909 1129.22,328.842L1117.82,327.933C1117.77,328.589 1117.7,329.515 1117.7,329.515C1117.7,329.515 1117.56,328.28 1117.7,329.603C1117.87,331.468 1117.84,333.363 1117.45,335.197C1117.29,335.881 1117.92,337.754 1118.12,339.317C1119.27,348.537 1118.35,357.963 1117.98,367.253C1117.9,368.801 1117.85,369.161 1117.7,370.078C1117.57,370.887 1117.28,371.99 1117.28,371.99C1117.6,372.548 1117.9,373.12 1118.18,373.701C1121.09,379.761 1123.61,386.609 1118.3,390.992C1114.11,394.451 1107.33,393.524 1103.25,389.004C1103.25,389.004 1100.18,385.394 1098.78,382.832L1097.22,381.044C1095.59,382.245 1095.62,382.716 1094.93,383.376C1093.52,384.727 1091.45,386.424 1091.45,386.424C1091.45,386.424 1084.54,391.728 1078.09,389.787C1073.4,388.375 1070.15,382.665 1072.54,377.746C1074.02,374.705 1076.36,372.036 1078.58,369.788C1078.58,369.788 1078.54,365.999 1078.41,363.584C1078.2,359.556 1078.01,355.526 1078.09,351.501C1078.09,351.501 1077.97,349.09 1078.04,347.52C1078.09,346.254 1078.32,344.302 1078.32,344.302C1078.33,343.793 1078.34,343.285 1078.35,342.777C1078.48,335.242 1076.52,327.767 1076.03,320.513C1071.19,321.064 1067.14,316.877 1065.38,313.217C1065.38,313.205 1065.35,313.154 1065.31,313.046L1065.25,312.922C1065.25,312.922 1063.94,308.663 1063.87,306.493C1063.83,304.95 1063.96,302.689 1063.96,302.689L1063.55,301.478C1063.44,300.821 1063.44,300.82 1063.4,300.155C1063.4,296.376 1063.44,292.605 1063.47,288.834C1063.47,288.834 1062.26,287.107 1061.38,285.388C1061.38,285.388 1060.63,283.24 1060.11,285.775C1060.11,285.775 1061.2,289.335 1061.58,292.134C1062.22,296.965 1061.73,301.868 1061.07,306.71L1060.85,308.252C1059.9,315.945 1058.66,323.7 1059.07,330.809C1059.25,333.61 1059.88,336.342 1058.82,338.942C1058.84,339.407 1058.86,339.872 1058.87,340.337C1058.94,342.427 1058.95,344.517 1058.91,346.607C1058.91,346.607 1058.77,349.593 1058.61,351.718C1058.22,356.649 1057.63,361.549 1057.21,366.503C1057.21,366.503 1058,368.971 1058.54,371.412C1058.54,371.412 1063.02,382.822 1056.3,388.419C1052.58,391.522 1046.37,390.845 1043.1,387.032C1042.57,387.645 1042.39,387.8 1041.99,388.133C1037.95,391.499 1030.9,391.02 1027.99,386.185C1025.41,381.915 1025.69,376.029 1027.4,372.043C1027.43,371.868 1027.46,371.694 1027.49,371.52C1027.83,369.569 1028.49,366.948 1028.49,366.948C1027.34,357.755 1025.62,348.589 1025.77,339.257C1024.1,334.181 1026.33,328.394 1025.07,322.866C1024.33,319.643 1023.14,316.541 1022.27,313.338C1019.11,315.291 1016.73,315.088 1014.37,313.762C1017.14,328.637 1015.66,344.443 1015.18,359.344C1015.08,362.29 1014.97,365.237 1014.81,368.181C1014.81,368.181 1019.95,369.421 1019.95,369.421C1025.45,371.11 1028.02,378.955 1023.76,383.43C1022.19,385.085 1019.94,386.034 1017.64,386.061L1003.92,386.061C1003.38,386.92 1003.32,386.951 1003.08,387.243C1000.87,389.982 997.236,391.759 993.673,391.054L978.946,388.331C974.929,387.356 972.489,383.133 972.917,379.151C972.917,379.151 971.307,376.566 971.132,374.175C971.056,373.14 971.1,371.718 971.1,371.718C971.871,354.325 971.058,336.433 970.498,318.618C970.498,318.618 967.69,317.854 966.049,316.036C966.049,316.036 963.919,313.769 963.131,311.465L963.106,311.384L963.1,311.37C963.072,311.283 963.08,311.304 963.09,311.328L963.106,311.384C963.151,311.478 963.402,312.01 963.1,311.354L963.09,311.328ZM1176.2,325.086C1176.18,324.537 1176.19,324.943 1176.2,325.086ZM1068.85,318.099L1069.17,318.315C1069.17,318.315 1068.63,317.882 1068.85,318.099ZM1068.26,317.506C1068.26,317.506 1068.52,317.862 1068,317.12C1068.08,317.249 1068.17,317.378 1068.26,317.506ZM966.274,316.221L966.493,316.382C966.493,316.382 966.057,316.004 966.274,316.221ZM1065.38,313.217C1065.43,313.274 1065.13,312.498 1065.24,312.896C1065.64,313.835 1065.09,312.38 1065.24,312.896L1065.31,313.046L1065.33,313.097L1065.38,313.217ZM1136.59,281.354C1135.23,282.394 1133.27,283.766 1133.27,283.766C1132.8,284.158 1132.69,284.279 1132.15,284.584C1131.53,284.936 1130.22,285.291 1129.97,285.665C1129.72,286.024 1129.71,286.02 1129.71,286.02C1129.74,289.976 1129.78,293.931 1129.8,297.889L1129.8,298.634L1132.55,298.886C1133.53,299.034 1134.5,299.306 1135.33,299.882C1135.01,295.79 1135.5,291.753 1136.13,287.682C1136.32,286.449 1135.94,287 1136.3,285.224C1136.3,285.224 1136.42,283.142 1136.44,282.986C1136.56,282.175 1137,281.031 1136.59,281.354ZM1058.95,288.268C1058.31,289.131 1059.01,288.173 1058.95,288.268ZM1024.17,239.665C1024.17,239.665 1023.77,240.111 1024.25,239.624C1024.25,239.624 1024.47,239.461 1024.17,239.665ZM1142.46,237.495C1142.04,237.724 1143.42,237.174 1142.46,237.495ZM1052.8,237.253C1053.15,237.378 1052.72,237.225 1052.8,237.253ZM1081.44,224.742L1081.55,225.125C1081.55,225.125 1081.42,224.582 1081.44,224.742ZM1005.63,219.138L1006.16,219.161C1006.16,219.161 1005.28,219.083 1005.63,219.138ZM1005.01,219.041L1005.32,219.09C1005.32,219.09 1004.79,218.979 1005.01,219.041ZM977.761,210.439C977.761,210.439 976.848,212.123 977.939,210.147C977.939,210.147 978.463,209.253 977.761,210.439ZM1161.88,204.802C1161.55,204.85 1162.08,204.784 1161.88,204.802Z" style="fill-rule:nonzero;"/>
    </g>
</svg>
