<?xml version="1.0" encoding="utf-8"?>
<!-- Generator: Adobe Illustrator 23.1.1, SVG Export Plug-In . SVG Version: 6.00 Build 0)  -->
<svg version="1.1" id="Layer_1" xmlns="http://www.w3.org/2000/svg" xmlns:xlink="http://www.w3.org/1999/xlink" x="0px" y="0px"
	 width="140px" height="140px" viewBox="0 0 140 140" style="enable-background:new 0 0 140 140;" xml:space="preserve">
<style type="text/css">
	.st0{fill:#A290C5;}
	.st1{clip-path:url(#SVGID_2_);}
	.st2{fill:#F2987A;}
	.st3{fill:#DA7B65;}
	.st4{fill:#FFFFFF;}
	.st5{fill:#F3F3F3;}
	.st6{fill:#FFC8A8;}
	.st7{opacity:0.4;fill:#FFC8A8;enable-background:new    ;}
	.st8{fill:#7963AB;}
</style>
<title>Artboard 23 copy 4</title>
<g>
	<ellipse transform="matrix(0.7071 -0.7071 0.7071 0.7071 -28.9214 70.1776)" class="st0" cx="70.3" cy="70" rx="65" ry="65"/>
	<g>
		<defs>
			<path id="SVGID_1_" d="M70.3,125.4c-30.6,0-55.4-24.9-55.4-55.4c0-30.6,24.9-55.4,55.4-55.4s55.4,24.9,55.4,55.4
				C125.7,100.6,100.8,125.4,70.3,125.4z"/>
		</defs>
		<clipPath id="SVGID_2_">
			<use xlink:href="#SVGID_1_"  style="overflow:visible;"/>
		</clipPath>
		<g class="st1">
			<g>
				<g>
					<path class="st2" d="M105.1,80.4c-0.6,2.6-2,4.4-6.2,3.8l0,0c0,0,0.3,0.8,0.4,1.5c0.1,0.5,0.1,1-0.1,1.4
						c-0.4,1-2.8,4.8-6.6,4.4l0,0c0,0,0,0.5,0,1.1c-0.1,1-0.6,2.4-2.1,3.3c-2.5,1.4-3.8,1.5-3.8,1.5l0,0c0,0,0,0.5-0.1,1.1
						c-0.1,0.5-0.5,1.3-1.3,1.6c-1.6,0.9-4.2,1.5-5.8,1l-2.9-1c0,0-0.5-0.3-1.5-0.6c-1.5-0.6-3.9-1.8-6.9-3
						c-0.1-0.1-0.4-0.1-0.5-0.3c-6.7-2.8-15.4-6.3-20-7.6c-0.6-0.1-1.1-0.3-1.5-0.4c-1.6-0.3-5.7,0.5-10.8,1.8
						c-1.8,0.4-3.5,0.9-5.4,1.5c-14.5,4-33.1,10.5-33.1,10.5V68c0,0,12.1-0.6,20.2-2.8c3.9-1,9.6-2.1,14.9-3.1
						c1.3-0.3,2.6-0.5,3.8-0.8c4-0.9,7.4-1.6,8.9-2.3c3.7-1.6,12.1-7.6,17.6-10.5c5.7-3,9.1-3.1,13.5-3.9c4.4-0.8,7.4,3.1,10.1,4.2
						L55.3,57l6.9,1.9l11.5,3c0,0,0.1,0,0.4,0.1l0,0c2,0.6,13.2,4.3,19.4,7.2C100.4,72.1,105.8,77.8,105.1,80.4z"/>
					<path class="st3" d="M74.2,61.7c0,0-4.9,1.5-7.3,2.4c-2.4,0.9-4.5,3.8-6.3,6c-1.9,2.3-6.3,4.4-9.4,3.8c-3-0.6-2.4-2.6-2.4-2.6
						s7.9-10,13.7-12.7l11.5,3C73.8,61.5,73.9,61.7,74.2,61.7L74.2,61.7L74.2,61.7z"/>
					<path class="st3" d="M76.7,98l-1.5,1.6c-1.5-0.6-3.9-1.8-6.9-3l0.1-0.1c-0.1,0-0.4,0-0.6-0.1c-6.7-2.8-15.4-6.3-20-7.6
						c0,0,2.3,0.1,2.9-0.8c0,0,2.3-4.2,6.8-3.8c4.5,0.4,4.5,2.9,4.5,2.9s1.8-3.4,6.4-2.5c3.5,0.6,3.8,5.3,3.8,5.3l-0.5,1.3
						c0.5,0,2.5,0,4,1.6C77.1,94.2,76.7,98,76.7,98z"/>
					<path class="st3" d="M99.3,85.7c-6.2-3.9-13.6-10.3-13.7-10.3c4.8,3.4,13.2,8.8,13.2,8.8l0,0C99,84.2,99.2,85,99.3,85.7z"/>
					<path class="st3" d="M92.7,91.5c0,0,0,0.5,0,1.1c-5.5-3.8-10.5-8.4-10.6-8.4C85.7,86.7,90.5,90,92.7,91.5L92.7,91.5z"/>
					<path class="st3" d="M86.6,98.6c-4.4-3.3-8.1-6.7-8.2-6.8c2.6,1.9,5.9,4,8.3,5.7C86.8,97.6,86.8,98,86.6,98.6z"/>
				</g>
				<g>
					<path class="st4" d="M21.8,94.3l-24.8,8.9V67l21.7-3.3c0,0-1.9,12.6,1,24.2C20.1,90,20.9,92.3,21.8,94.3z"/>
					<path class="st5" d="M21.8,94.3l-24.8,8.9V83.8c0.3,3.3,2,8.4,9.7,7.6c6-0.8,10.3-2.3,13-3.5C20.1,90,20.9,92.3,21.8,94.3z"/>
				</g>
			</g>
			<g>
				<g>
					<path class="st6" d="M79.1,101.1c0,0-1,1.9-2.8,2.5c-1.3,0.5-3.1,0.6-4.8,0.3l0,0c-0.6-0.1-1.1-0.4-1.6-0.6
						c-1.5-1-1.8-3.1-1.4-5.4c0.4-2.3,0.3-5.7,2.6-6c0.8-0.1,1.4,0,1.9,0.1c1.3,0.5,2.3,1.4,2.9,2.6c0.9,1.9,0.5,5.5,0.5,5.5
						l1.9,0.6L79.1,101.1z"/>
					<path class="st7" d="M78.6,100.9c-0.6,0.9-1.8,1.3-1.8,1.3c-0.6-0.3-0.1-2-0.1-2L78.6,100.9z"/>
					<path class="st7" d="M71.6,103.9c-0.6-0.1-1.1-0.4-1.6-0.6c-1.5-1-1.8-3.1-1.4-5.4c0.4-2.3,0.3-5.7,2.6-6
						c0.8-0.1,1.4,0,1.9,0.1c-0.4,1.1-1.5,4.9-3,6.3C68.5,100,69.4,103.2,71.6,103.9z"/>
				</g>
				<g>
					<path class="st6" d="M46.7,90.8c-0.5,2.5-2,4.8-4.3,4.4c-1.1-0.3-2-1-2.8-1.9c-1.3-1.6-2-3.5-2-3.5c6.2-2.9,9.2-1.1,9.2-1.1
						C46.8,89.3,46.8,90,46.7,90.8z"/>
					<path class="st7" d="M46.7,90.8c0,0-2.1-1.9-4.5-1.4c-2.3,0.5-2.6,3.9-2.6,3.9c-1.3-1.6-2-3.5-2-3.5c6.2-2.9,9.2-1.1,9.2-1.1
						C46.8,89.3,46.8,90,46.7,90.8z"/>
				</g>
				<g>
					<path class="st6" d="M61.6,91.8c-0.6,1.5-3.5,6-6.8,6.8c-3.3,0.8-6.3-2.3-6.9-3.9c-0.4-0.8-0.4-2.1-0.3-3.3
						c0.1-1.4,0.3-2.5,0.3-2.5l2.6,0.6l0,0c0.3-0.3,3.9-5,7.8-3.8C62.1,87,62.2,90.3,61.6,91.8z"/>
					<path class="st7" d="M50.3,89.5c0,0-1.8,2-1.8,3c0,0-0.8-0.1-1.1-1.1c0.1-1.4,0.3-2.5,0.3-2.5L50.3,89.5z"/>
				</g>
				<g>
					<path class="st6" d="M61.8,89.8c0,0,1.9-4.2,5.3-4c3.4,0,4.9,2.5,5,4c0.1,1.6-3,8.6-4,9.8c-1,1.3-2.9,2.3-4.5,2.3
						c-2.1-0.1-5.2-1.8-4.9-4.3C59,95.2,61.8,89.8,61.8,89.8z"/>
				</g>
				<g>
					<path class="st6" d="M144.3,34.1v29l-31.9,7.7l0,0l0,0l-8.9,5.5c0,0-7.8-7.2-15.2-9.4c0,0-2.8-0.9-6.9-2.4
						c-2.1-0.8-4.5-1.6-7.1-2.8c-0.1,0-0.3-0.1-0.4-0.1c0,0-2.5,0.3-5-0.5c0,0-3.1,2.3-5.4,2.5c0,0-4.2,8.4-10.1,9.1
						c-3.5,0.4-4.5-0.4-4.7-1.1c-0.1-0.5,0.1-0.9,0.1-0.9s3.4-6.4,4-9.4c0.6-3,0.1-7.7,7.2-8.8c7.1-1.3,13.4-3.3,19.5-3.8
						c6.2-0.5,13.7-0.1,18-2c3.4-1.5,30.6-8.6,41.8-11.5C142.4,34.6,144.3,34.1,144.3,34.1z"/>
					<path class="st7" d="M144.3,34.1v29l-31.9,7.7l0,0l0,0c0.4-2-0.8-3.9-1.6-5.5c0,0,2.5,1.1,5,1.8c2.5,0.6,17.8-1.4,22.5-9.1
						c4.2-6.7,2.3-17.5,1.1-22.5C142.4,34.6,144.3,34.1,144.3,34.1z"/>
					<path class="st7" d="M112.3,70.9l-8.9,5.5c0,0-7.8-7.2-15.2-9.4c0,0-2.8-0.9-6.9-2.4c-0.6-0.3-1.4-0.5-2-0.8
						c-0.1,0-0.3-0.1-0.4-0.1c-0.4-0.1-0.9-0.4-1.4-0.5c-0.1,0-0.3-0.1-0.5-0.1c-0.1,0-0.3-0.1-0.4-0.1h-0.1c-0.1,0-0.3-0.1-0.5-0.1
						c-0.6-0.3-1.3-0.5-1.9-0.8c-0.1,0-0.3-0.1-0.4-0.1c0,0-2.5,0.3-5-0.5c0,0-3.1,2.3-5.4,2.5c0,0-4.2,8.4-10.1,9.1
						c-3.5,0.4-4.5-0.4-4.7-1.1c0.5,0.1,4.3,1.4,7.4-0.9c3.3-2.4,6-7.4,6-7.4s-0.4-1.8-1-2.6c0,0,1.6,1.4,2,2.3c0,0,4.7-1.4,5.3-2.5
						c0,0,0.1-1.6-0.3-2.6c0,0,1,1.3,1.1,2.4c0,0,20.3,2.9,29-3.7c0,0-0.1,2.3-2,5c-1.9,2.9,7.1,5.4,10.2,8.3
						C109.3,72.5,111.9,71.1,112.3,70.9z"/>
				</g>
			</g>
		</g>
	</g>
	<g>
		<path class="st8" d="M70.3,125.4c-30.6,0-55.4-24.9-55.4-55.4c0-30.6,24.9-55.4,55.4-55.4s55.4,24.9,55.4,55.4
			C125.7,100.6,100.8,125.4,70.3,125.4z M70.3,18.9C42,18.9,19.1,41.8,19.1,70c0,28.2,22.9,51.1,51.1,51.1
			c28.2,0,51.1-22.9,51.1-51.1C121.4,41.8,98.5,18.9,70.3,18.9z"/>
	</g>
</g>
</svg>
