<?xml version="1.0" encoding="utf-8"?>
<!-- Generator: Adobe Illustrator 19.2.1, SVG Export Plug-In . SVG Version: 6.00 Build 0)  -->
<svg version="1.1" id="Capa_1" xmlns="http://www.w3.org/2000/svg" xmlns:xlink="http://www.w3.org/1999/xlink" x="0px" y="0px"
	 width="50px" height="50px" viewBox="0 0 50 50" style="enable-background:new 0 0 50 50;" xml:space="preserve">
<style type="text/css">
	.st0{fill:#002F3D;}
</style>
<path class="st0" d="M2.6,25.1c0-12.4,10.1-22.5,22.5-22.5l0,0c12.4,0,22.5,10.1,22.5,22.5l0,0c0,12.4-10.1,22.5-22.5,22.5l0,0
	C12.6,47.5,2.6,37.5,2.6,25.1L2.6,25.1z M4.3,25.1c0,11.5,9.2,20.7,20.7,20.7l0,0c11.5,0,20.7-9.2,20.7-20.7l0,0
	c0-11.5-9.2-20.7-20.7-20.7l0,0C13.6,4.3,4.3,13.6,4.3,25.1L4.3,25.1z"/>
<path class="st0" d="M15,35.1c-0.4-0.4-0.4-0.8,0-1.2l0,0l19-19c0.4-0.4,0.8-0.4,1.2,0l0,0c0.4,0.4,0.4,0.8,0,1.2l0,0l-19,19
	c-0.2,0.2-0.4,0.3-0.7,0.3l0,0C15.3,35.3,15.2,35.3,15,35.1L15,35.1z"/>
<path class="st0" d="M33.9,35.1l-19-19c-0.4-0.4-0.4-0.8,0-1.2l0,0c0.4-0.4,0.8-0.4,1.2,0l0,0l19,19c0.4,0.4,0.4,0.8,0,1.2l0,0
	c-0.2,0.2-0.4,0.3-0.7,0.3l0,0C34.3,35.3,34,35.3,33.9,35.1L33.9,35.1z"/>
</svg>
