<?xml version="1.0" encoding="utf-8"?>
<!-- Generator: Adobe Illustrator 23.0.1, SVG Export Plug-In . SVG Version: 6.00 Build 0)  -->
<svg version="1.1" id="Layer_1" xmlns="http://www.w3.org/2000/svg" xmlns:xlink="http://www.w3.org/1999/xlink" x="0px" y="0px"
	 width="199px" height="126px" viewBox="0 0 199 126" style="enable-background:new 0 0 199 126;" xml:space="preserve">
<style type="text/css">
	.st0{fill:#A6D2E3;}
	.st1{fill:#C0DFEB;}
	.st2{fill:#06638D;}
	.st3{fill:#1B87B3;}
	.st4{fill:#E3A76F;}
	.st5{fill:#F2BB88;}
	.st6{fill:#E3D000;}
	.st7{fill:#FFEA06;}
</style>
<g>
	<g>
		<g>
			<path class="st0" d="M133.7,47.9c0,1.8-0.1,3.5-0.4,5.3c-1.2,7.9-4.9,15-10.3,20.4c-6.6,6.6-15.6,10.7-25.6,10.7h-45L41,110.1
				c-3,6.7-13.1,4.6-13.1-2.8V79.8C16.5,73.7,8.8,61.6,8.8,47.9c0-10,4.1-19,10.7-25.6c2.3-2.3,5-4.4,7.9-6
				c5.2-2.9,11.3-4.6,17.7-4.6h52.4C117.3,11.6,133.7,27.9,133.7,47.9z"/>
			<path class="st1" d="M133.7,47.9c0,1.8-0.1,3.5-0.4,5.3C122,63,107.2,68.9,91,68.9c-31.6,0-57.9-22.6-63.6-52.6
				c5.2-2.9,11.3-4.6,17.7-4.6h52.4C117.3,11.6,133.7,27.9,133.7,47.9z"/>
			<path d="M25.8,91.8c0,1.2,0.9,2.1,2.1,2.1S30,93,30,91.8v-12c0-0.8-0.4-1.5-1.1-1.9c-11.1-6-18-17.5-18-30.1
				c0-18.8,15.3-34.2,34.2-34.2h52.4c26.3,0,42.7,28.7,29.5,51.2c-0.6,1-0.2,2.3,0.8,2.9c1,0.6,2.3,0.2,2.9-0.8
				c14.8-25.3-3.6-57.6-33.2-57.6H45C23.8,9.3,6.6,26.5,6.6,47.7c0,13.7,7.3,26.3,19.1,33.2v10.9H25.8z"/>
			<path d="M125.2,71.2c-0.8-0.8-2.2-0.8-3,0.1c-0.4,0.5-0.9,0.9-1.4,1.4c-0.1,0.1-0.1,0.1-0.2,0.2c-0.5,0.4-1,0.9-1.5,1.3l0,0
				c-6.1,5.1-13.8,7.9-21.8,7.9H82l0,0H52.4c-0.8,0-1.6,0.5-1.9,1.2l-11.4,25.8c-2.1,4.7-9,3.2-9-1.9v-6.9c0-1.2-0.9-2.1-2.1-2.1
				s-2.1,0.9-2.1,2.1v6.9c0,9.5,13.2,12.5,17.1,3.6l10.9-24.5h28.3l0,0h15.4c10,0,19.4-3.8,26.6-10.8l0,0c0.1-0.1,0.3-0.3,0.4-0.4
				l0.1-0.1c0.1-0.1,0.1-0.1,0.2-0.2c0.2-0.2,0.4-0.4,0.6-0.6C126,73.3,126,72,125.2,71.2z"/>
		</g>
		<g>
			<path class="st2" d="M59.1,43.2v28.5c0,2.4-2,4.4-4.4,4.4h-8.3c-2.1,0-3.7-1.7-3.7-3.7V42.5c0-2.1,1.7-3.7,3.7-3.7h8.3
				C57.1,38.8,59.1,40.7,59.1,43.2z"/>
			<path class="st3" d="M59.1,43.2v26.4h-4.5c-2.1,0-3.7-1.7-3.7-3.7V38.8h3.8C57.1,38.8,59.1,40.7,59.1,43.2z"/>
			<path class="st4" d="M102.5,48.7v16.1c0,2.8-0.9,5.5-2.5,7.6c-2.3,3.1-6,5-10.1,5H65c-3.3,0-5.9-2.7-5.9-5.9V44.2
				c0-3.3,2.7-5.9,5.9-5.9h5.4c0.5,0,1-0.2,1.4-0.6l12.7-15.5c2.2-2.7,6.1-3.3,8.9-1.3c3.2,2.2,3.7,6.6,1.3,9.5l-4.1,5
				c-0.9,1.1-0.1,2.8,1.4,2.8c2.9,0,5.5,1.2,7.4,3.1C101.3,43.2,102.5,45.8,102.5,48.7z"/>
			<path class="st5" d="M102.5,48.7v16.1c0,2.8-0.9,5.5-2.5,7.6C82.7,70,69.2,55.8,67.7,38.2h2.8c0.5,0,1-0.2,1.4-0.6l12.6-15.4
				c2.2-2.7,6.1-3.3,8.9-1.3c3.2,2.2,3.7,6.6,1.3,9.5l-4.1,5c-0.9,1.1-0.1,2.8,1.4,2.8c2.9,0,5.5,1.2,7.4,3.1
				C101.3,43.2,102.5,45.8,102.5,48.7z"/>
			<path d="M98.4,25.1c-1-7.6-10.7-10.3-15.6-4.3L70.2,36H65c-2.2,0-4.3,0.9-5.8,2.4c-1.2-1.1-2.8-1.8-4.6-1.8h-8.3
				c-3.3,0-6,2.7-6,6v29.8c0,3.3,2.7,6,6,6h8.3c1.6,0,3-0.6,4.2-1.5c1.5,1.7,3.7,2.8,6.2,2.8h24.9c8.2,0,14.9-6.7,14.9-14.9V48.7
				c0-6.7-5.2-12.2-11.7-12.7l3.4-4.2C98,30,98.7,27.5,98.4,25.1z M56.8,71.7c0,1.2-1,2.2-2.2,2.2h-8.3c-0.8,0-1.5-0.7-1.5-1.5V42.5
				c0-0.8,0.7-1.5,1.5-1.5h8.3c1.2,0,2.2,1,2.2,2.2C56.8,52.3,56.8,62.8,56.8,71.7z M93,29l-4.1,5c-0.8,0.8-1.3,2.7-0.5,4.3
				c0.7,1.4,2.1,2.3,3.6,2.3c4.5,0,8.2,3.7,8.2,8.2v16.1c0,5.7-4.7,10.4-10.4,10.4H65c-2,0-3.7-1.7-3.7-3.7V44.2
				c0-2,1.7-3.7,3.7-3.7h5.4c1.2,0,2.3-0.5,3.1-1.5l12.7-15.4c2.4-3,7.2-1.7,7.7,2C94.1,26.9,93.7,28.1,93,29z"/>
		</g>
	</g>
	<g>
		<path class="st6" d="M185.1,96.9c-4.3,7.1-11,12.7-19.4,15.6c-19.1,6.5-39.9-3.6-46.4-22.7c-5.6-16.2,1-33.7,14.8-42.6
			c2.4-1.5,5-2.8,7.9-3.8c19.1-6.5,39.9,3.6,46.4,22.7C192,76.8,190.5,88,185.1,96.9z"/>
		<path class="st7" d="M185.1,96.9c-2.4,1.5-5,2.8-7.9,3.8c-19.1,6.5-39.9-3.6-46.4-22.7c-3.7-10.7-2.1-21.9,3.3-30.8
			c2.4-1.5,5-2.8,7.9-3.8c19.1-6.5,39.9,3.6,46.4,22.7C192,76.8,190.5,88,185.1,96.9z"/>
		<circle cx="145.8" cy="62.7" r="3.5"/>
		<circle cx="161.8" cy="62.7" r="3.5"/>
		<path d="M137.1,70.3c0-1.2-0.9-2.1-2.1-2.1s-2.1,0.9-2.1,2.1c0,11.6,9.4,20.9,20.9,20.9s20.9-9.4,20.9-20.9c0-1.2-0.9-2.1-2.1-2.1
			s-2.1,0.9-2.1,2.1c0,9.2-7.5,16.7-16.7,16.7S137.1,79.6,137.1,70.3z"/>
		<path d="M190.3,65.3c-0.4-1.1-1.7-1.6-2.7-1.2s-1.6,1.6-1.2,2.6l0,0c6.2,18-3.4,37.5-21.4,43.7c-17.9,6.2-37.5-3.3-43.7-21.4
			c-3.7-10.7-1.8-21.3,3.5-29.6l0,0c2.6-4.1,6.1-7.7,10.4-10.4c2.3-1.5,4.8-2.7,7.4-3.6c3.7-1.3,7.5-1.9,11.3-1.9
			c5.1,0,10.2,1.2,15,3.5l0,0c1.2,0.6,2.4,1.3,3.5,2c0.2,0.1,0.3,0.2,0.5,0.3c0.4,0.2,0.7,0.5,1.1,0.8c0.2,0.1,0.4,0.3,0.5,0.4
			c0.5,0.3,0.9,0.7,1.4,1.1c2.8,2.3,5.2,5,7.1,8.1c0.6,1,1.9,1.3,2.9,0.7c1-0.6,1.3-1.9,0.7-2.9c-1.5-2.4-3.3-4.6-5.3-6.6
			c0,0,0,0,0.1,0c-3-3.1-6.6-5.6-10.6-7.6c-0.9-0.4-1.8-0.8-2.8-1.2h-0.1l0,0c-8.5-3.3-17.9-3.5-26.7-0.5c-2.9,1-5.7,2.4-8.3,4
			c-4.6,3-8.4,6.8-11.3,11.1l0,0c-6.5,9.8-8.3,22.3-4.3,33.9c5.4,15.6,20,26.1,36.5,26.1C180.8,116.6,199,89.7,190.3,65.3z"/>
	</g>
</g>
</svg>
