<?xml version="1.0" encoding="utf-8"?>
<!-- Generator: Adobe Illustrator 23.0.1, SVG Export Plug-In . SVG Version: 6.00 Build 0)  -->
<svg version="1.1" id="Layer_1" xmlns="http://www.w3.org/2000/svg" xmlns:xlink="http://www.w3.org/1999/xlink" x="0px" y="0px"
	 width="125px" height="125px" viewBox="0 0 125 125" style="enable-background:new 0 0 125 125;" xml:space="preserve">
<style type="text/css">
	.st0{fill:#FEC433;}
	.st1{fill:#F8963E;}
</style>
<g transform="translate(1 1)">
	<g>
		<path class="st0" d="M39.8,71.5L39.8,71.5c-2.2,0-4-1.8-4-4V55.6c0-2.2,1.8-4,4-4s4,1.8,4,4v11.9C43.8,69.7,42,71.5,39.8,71.5"/>
		<path class="st0" d="M23.8,71.5L23.8,71.5c-2.2,0-4-1.8-4-4V55.6c0-2.2,1.8-4,4-4s4,1.8,4,4v11.9C27.8,69.7,26,71.5,23.8,71.5"/>
		<polygon class="st0" points="51.7,71.5 51.7,71.5 75.4,71.5 75.4,93.3 111.1,61.6 75.4,29.8 75.4,51.6 51.7,51.6 		"/>
	</g>
	<polygon class="st1" points="75.4,93.3 119,61.6 75.4,29.8 111.1,61.6 	"/>
	<path class="st0" d="M8,71.5L8,71.5c-2.2,0-4-1.8-4-4V55.6c0-2.2,1.8-4,4-4s4,1.8,4,4v11.9C11.9,69.7,10.1,71.5,8,71.5"/>
	<path d="M39.8,73.5c-3.4,0-5.9-2.6-5.9-5.9v-12c0-3.4,2.6-5.9,5.9-5.9s5.9,2.6,5.9,5.9v11.9C45.7,70.9,43.2,73.5,39.8,73.5z
		 M39.8,53.6c-1.2,0-2,0.8-2,2v11.9c0,1.2,0.8,2,2,2s2-0.8,2-2V55.6C41.8,54.4,41,53.6,39.8,53.6z"/>
	<path d="M23.8,73.5c-3.4,0-5.9-2.6-5.9-5.9v-12c0-3.4,2.6-5.9,5.9-5.9s5.9,2.6,5.9,5.9v11.9C29.9,70.9,27.2,73.5,23.8,73.5z
		 M23.8,53.6c-1.2,0-2,0.8-2,2v11.9c0,1.2,0.8,2,2,2s2-0.8,2-2V55.6C25.8,54.4,25,53.6,23.8,53.6z"/>
	<path d="M8,73.5c-3.4,0-5.9-2.6-5.9-5.9v-12c0-3.4,2.6-5.9,5.9-5.9s5.9,2.6,5.9,5.9v11.9C13.9,70.9,11.3,73.5,8,73.5z M8,53.6
		c-1.2,0-2,0.8-2,2v11.9c0,1.2,0.8,2,2,2s2-0.8,2-2V55.6C9.9,54.4,9.1,53.6,8,53.6z"/>
	<path d="M75.4,95.3c-0.4,0-0.6,0-1-0.2c-0.6-0.4-1-1-1-1.8V73.5H51.7c-1.2,0-2-0.8-2-2V51.6c0-1.2,0.8-2,2-2h21.8V29.8
		c0-0.8,0.4-1.4,1-1.8s1.4-0.2,2,0.2L120,59.9c0.6,0.4,0.8,1,0.8,1.6s-0.4,1.2-0.8,1.6l-15.9,11.5c-0.8,0.6-2.2,0.4-2.8-0.4
		c-0.4-0.8-0.2-2.2,0.6-2.8l13.7-9.9L77.4,33.8v17.8c0,1.2-0.8,2-2,2H53.7v15.9h21.8c1.2,0,2,0.8,2,2v17.8l13.3-9.5
		c0.8-0.6,2.2-0.4,2.8,0.4c0.6,0.8,0.4,2.2-0.4,2.8L76.8,94.9C76.2,95.1,75.8,95.3,75.4,95.3z"/>
	<path d="M97.8,75.2c-1.2,0-2,0.8-2,2c0,1.2,0.8,2,2,2s2-0.8,2-2C99.8,76,99,75.2,97.8,75.2"/>
</g>
</svg>
