<?xml version="1.0" encoding="utf-8"?>
<!-- Generator: Adobe Illustrator 23.0.1, SVG Export Plug-In . SVG Version: 6.00 Build 0)  -->
<svg version="1.1" id="Layer_1" xmlns="http://www.w3.org/2000/svg" xmlns:xlink="http://www.w3.org/1999/xlink" x="0px" y="0px"
	 width="125px" height="125px" viewBox="0 0 125 125" style="enable-background:new 0 0 125 125;" xml:space="preserve">
<style type="text/css">
	.st0{fill:#FEC433;}
	.st1{fill:#F8963E;}
</style>
<g>
	<path class="st0" d="M88.4,76l-0.7-33.7c0-19.8-15.6-36.4-35.3-36.9C32,5,15.3,21.3,15.3,41.6v9h0.1v1.4c0,1.1,0.9,1.9,1.9,1.9H34
		c1.1,0,1.9-0.9,1.9-1.9v-1.3c0,0,0,0,0,0l0.1-9c0,0,0,0,0,0c0,0,1.7-15.8,14.6-16.6C62,24.3,68,34.1,68,41.6L68.5,76H46.7
		l31.7,35.7L110.2,76H88.4z"/>
	<polygon class="st1" points="46.7,76 78.5,119.6 110.2,76 78.5,111.7 	"/>
	<path class="st0" d="M15.6,95.9L15.6,95.9c0-2.2,1.8-4,4-4h11.9c2.2,0,4,1.8,4,4s-1.8,4-4,4H19.6C17.4,99.8,15.6,98,15.6,95.9"/>
	<path class="st0" d="M15.6,80L15.6,80c0-2.2,1.8-4,4-4h11.9c2.2,0,4,1.8,4,4s-1.8,4-4,4H19.6C17.4,84,15.6,82.2,15.6,80"/>
	<path class="st0" d="M15.6,64.1L15.6,64.1c0-2.2,1.8-4,4-4h11.9c2.2,0,4,1.8,4,4c0,2.2-1.8,4-4,4H19.6
		C17.4,68.1,15.6,66.3,15.6,64.1"/>
	<path d="M13.6,95.9c0-3.4,2.6-5.9,5.9-5.9h11.9c3.4,0,5.9,2.6,5.9,5.9c0,3.4-2.6,5.9-5.9,5.9H19.6C16.2,101.8,13.6,99.2,13.6,95.9z
		 M33.4,95.9c0-1.2-0.8-2-2-2H19.6c-1.2,0-2,0.8-2,2s0.8,2,2,2h11.9C32.7,97.8,33.4,97,33.4,95.9z"/>
	<path d="M13.6,80c0-3.4,2.6-5.9,5.9-5.9h11.9c3.4,0,5.9,2.6,5.9,5.9c0,3.4-2.6,5.9-5.9,5.9H19.6C16.2,85.9,13.6,83.4,13.6,80z
		 M33.4,80c0-1.2-0.8-2-2-2H19.6c-1.2,0-2,0.8-2,2c0,1.2,0.8,2,2,2h11.9C32.7,82,33.4,81.2,33.4,80z"/>
	<path d="M13.6,64.1c0-3.4,2.6-5.9,5.9-5.9h11.9c3.4,0,5.9,2.6,5.9,5.9c0,3.4-2.6,5.9-5.9,5.9H19.6C16.2,70.1,13.6,67.5,13.6,64.1z
		 M33.4,64.1c0-1.2-0.8-2-2-2H19.6c-1.2,0-2,0.8-2,2c0,1.2,0.8,2,2,2h11.9C32.7,66.1,33.4,65.3,33.4,64.1z"/>
	<path d="M64.8,96.4c0-1.2-0.8-2-2-2s-2,0.8-2,2c0,1.2,0.8,2,2,2S64.8,97.6,64.8,96.4"/>
	<path d="M111.2,75.2c-0.4-0.6-1-1-1.8-1H89.7v-13l-0.1,0V41.6c0-20.9-17-37.9-37.9-37.9c-20.9,0-37.9,17-37.9,37.9v9.9h0.1v1.5
		c0,1.2,0.8,2,2,2h19.7c1.2,0,2-0.8,2-2v-1.5h0v-9.9h0c0-7.8,6.4-14.2,14.2-14.2s14.2,6.4,14.2,14.2v32.6H46.3c-0.8,0-1.4,0.4-1.8,1
		c-0.2,0.4-0.2,0.6-0.2,1c0,0.4,0.2,0.8,0.4,1.4l11.8,16.2c0.6,0.8,2,1,2.8,0.4c0.8-0.6,1-2,0.4-2.8l-9.5-13.2l18.5,0
		c1.2,0,2-0.8,2-2l0-34.5c0-10.5-8.5-19-19-19s-19,8.5-19,19v9.5H18.5v-9.5c0-18.3,14.9-33.2,33.2-33.2c18.3,0,33.2,14.9,33.2,33.2
		l0,34.6c0,1.2,0.8,2,2,2l18.6,0l-27.6,38L68,102.6c-0.6-0.8-2-1-2.8-0.6c-0.8,0.6-1,2-0.4,2.8l11.4,15.8c0.4,0.4,1,0.8,1.6,0.8
		c0.6,0,1.2-0.2,1.6-0.8L111,77.2C111.4,76.6,111.6,75.8,111.2,75.2z"/>
</g>
</svg>
