<?xml version="1.0" encoding="utf-8"?>
<!-- Generator: Adobe Illustrator 23.0.1, SVG Export Plug-In . SVG Version: 6.00 Build 0)  -->
<svg version="1.1" id="Layer_1" xmlns="http://www.w3.org/2000/svg" xmlns:xlink="http://www.w3.org/1999/xlink" x="0px" y="0px"
	 width="199px" height="126px" viewBox="0 0 199 126" style="enable-background:new 0 0 199 126;" xml:space="preserve">
<style type="text/css">
	.st0{fill:#A6D2E3;}
	.st1{fill:#C0DFEB;}
	.st2{fill:#E3A76F;}
	.st3{fill:#F2BB88;}
	.st4{fill:#06638D;}
	.st5{fill:#1B87B3;}
	.st6{fill:#D63030;}
	.st7{fill:#F44545;}
</style>
<g>
	<g>
		<g>
			<path class="st0" d="M139,42.7c0,1.8-0.1,3.5-0.4,5.3c-1.2,7.9-4.9,15-10.3,20.4c-6.6,6.6-15.6,10.7-25.6,10.7h-45l-11.4,25.8
				c-3,6.7-13.1,4.6-13.1-2.8V74.7c-11.4-6.1-19.1-18.2-19.1-31.9c0-10,4.1-19,10.7-25.6c2.3-2.3,5-4.4,7.9-6
				c5.2-2.9,11.3-4.6,17.7-4.6h52.4C122.7,6.5,139,22.8,139,42.7z"/>
			<path class="st1" d="M139,42.7c0,1.8-0.1,3.5-0.4,5.3c-11.3,9.8-26.1,15.7-42.3,15.7c-31.6,0-57.9-22.6-63.6-52.6
				c5.2-2.9,11.3-4.6,17.7-4.6h52.4C122.7,6.5,139,22.8,139,42.7z"/>
			<path d="M31.1,86.6c0,1.2,0.9,2.1,2.1,2.1c1.2,0,2.1-0.9,2.1-2.1v-12c0-0.8-0.4-1.5-1.1-1.9c-11.1-6-18-17.5-18-30.1
				c0-18.8,15.3-34.2,34.2-34.2h52.4c26.3,0,42.7,28.7,29.5,51.2c-0.6,1-0.2,2.3,0.8,2.9c1,0.6,2.3,0.2,2.9-0.8
				c14.8-25.3-3.6-57.6-33.2-57.6H50.3C29.2,4.4,12,21.6,12,42.7c0,13.7,7.3,26.3,19.1,33.2V86.6z"/>
			<path d="M130.5,66.1c-0.8-0.8-2.2-0.8-3,0.1c-0.4,0.5-0.9,0.9-1.4,1.4c-0.1,0.1-0.1,0.1-0.2,0.2c-0.5,0.4-1,0.9-1.5,1.3l0,0
				c-6.1,5.1-13.8,7.9-21.8,7.9H87.3v0H57.7c-0.8,0-1.6,0.5-1.9,1.2l-11.4,25.8c-2.1,4.7-9,3.2-9-1.9v-6.9c0-1.2-0.9-2.1-2.1-2.1
				c-1.2,0-2.1,0.9-2.1,2.1v6.9c0,9.5,13.2,12.5,17.1,3.6l10.9-24.5h28.3v0h15.4c10,0,19.4-3.8,26.6-10.8l0,0
				c0.1-0.1,0.3-0.3,0.4-0.4c0,0,0.1-0.1,0.1-0.1c0.1-0.1,0.1-0.1,0.2-0.2c0.2-0.2,0.4-0.4,0.6-0.6
				C131.4,68.2,131.3,66.9,130.5,66.1z"/>
		</g>
		<g>
			<path class="st2" d="M105.2,42.9V26.8c0-2.8-0.9-5.5-2.5-7.6c-2.3-3.1-6-5-10.1-5H67.7c-3.3,0-5.9,2.7-5.9,5.9v27.4
				c0,3.3,2.7,5.9,5.9,5.9h5.4c0.5,0,1,0.2,1.4,0.6l12.7,15.4c2.2,2.7,6.1,3.3,8.9,1.3c3.2-2.2,3.7-6.6,1.3-9.5l-4.1-5
				c-0.9-1.1-0.1-2.8,1.4-2.8c2.9,0,5.5-1.2,7.4-3.1C104,48.4,105.2,45.8,105.2,42.9z"/>
			<path class="st3" d="M105.2,42.9V26.8c0-2.8-0.9-5.5-2.5-7.6c-17.3,2.4-30.9,16.6-32.3,34.2h2.8c0.5,0,1,0.2,1.4,0.6l12.7,15.4
				c2.2,2.7,6.1,3.3,8.9,1.3c3.2-2.2,3.7-6.6,1.3-9.5l-4.1-5c-0.9-1.1-0.1-2.8,1.4-2.8c2.9,0,5.5-1.2,7.4-3.1
				C104,48.4,105.2,45.8,105.2,42.9z"/>
			<path class="st4" d="M61.8,19.9v28.5c0,2.4-2,4.4-4.4,4.4H49c-2.1,0-3.7-1.7-3.7-3.7V19.2c0-2.1,1.7-3.7,3.7-3.7h8.3
				C59.8,15.5,61.8,17.5,61.8,19.9z"/>
			<path class="st5" d="M61.8,19.9v25.4h-5.2c-2.1,0-3.7-1.7-3.7-3.7V15.5h4.5C59.8,15.5,61.8,17.5,61.8,19.9z"/>
			<path d="M49,55.1h8.3c1.8,0,3.4-0.7,4.6-1.8c1.5,1.5,3.5,2.4,5.8,2.4h5.2l12.6,15.2c1.8,2.2,4.4,3.3,7,3.3
				c7.4,0,11.4-8.7,6.7-14.4l-3.4-4.2c6.5-0.5,11.7-6,11.7-12.7V26.8c0-8.2-6.7-14.9-14.9-14.9H67.7c-2.5,0-4.7,1.1-6.2,2.8
				c-1.1-0.9-2.6-1.5-4.2-1.5H49c-3.3,0-6,2.7-6,6v29.9C43,52.4,45.7,55.1,49,55.1z M64,20.1c0-2,1.7-3.7,3.7-3.7h24.9
				c5.7,0,10.4,4.7,10.4,10.4v16.1c0,4.5-3.7,8.2-8.2,8.2c-1.6,0-2.9,0.9-3.6,2.3c-0.8,1.6-0.3,3.4,0.5,4.3l4.1,5
				c0.8,0.9,1.1,2.1,0.9,3.3c-0.5,3.8-5.2,5-7.7,2L76.2,52.6c-0.8-0.9-1.9-1.5-3.1-1.5h-5.4c-2,0-3.7-1.7-3.7-3.7L64,20.1L64,20.1z
				 M47.5,19.2c0-0.8,0.7-1.5,1.5-1.5h8.3c1.2,0,2.2,1,2.2,2.2c0,9,0,19.4,0,28.5c0,1.2-1,2.2-2.2,2.2H49c-0.8,0-1.5-0.7-1.5-1.5
				V19.2L47.5,19.2z"/>
		</g>
	</g>
	<g>
		<path class="st6" d="M179.3,101.9c-4.3,7.1-11,12.7-19.4,15.6c-19.1,6.5-39.9-3.6-46.4-22.7c-5.6-16.2,1-33.7,14.8-42.6
			c2.4-1.5,5-2.8,7.9-3.8c19.1-6.5,39.9,3.6,46.4,22.7C186.3,81.8,184.7,93,179.3,101.9z"/>
		<path class="st7" d="M179.3,101.9c-2.4,1.5-5,2.8-7.9,3.8c-19.1,6.5-39.9-3.6-46.4-22.7c-3.7-10.7-2.1-21.9,3.3-30.8
			c2.4-1.5,5-2.8,7.9-3.8c19.1-6.5,39.9,3.6,46.4,22.7C186.3,81.8,184.7,93,179.3,101.9z"/>
		<circle cx="140.1" cy="67.7" r="3.5"/>
		<circle cx="156.1" cy="67.7" r="3.5"/>
		<path d="M184.8,70.3c-0.4-1.1-1.7-1.6-2.7-1.2c-1,0.4-1.6,1.6-1.2,2.6c0,0,0,0,0,0c6.2,18-3.4,37.5-21.4,43.7
			c-17.9,6.2-37.5-3.3-43.7-21.4c-3.7-10.7-1.8-21.3,3.5-29.6c0,0,0,0,0,0c2.6-4.1,6.1-7.7,10.4-10.4c2.3-1.5,4.8-2.7,7.4-3.6
			c3.7-1.3,7.5-1.9,11.3-1.9c5.1,0,10.2,1.2,15,3.5c0,0,0,0,0,0c1.2,0.6,2.4,1.3,3.5,2c0.2,0.1,0.3,0.2,0.5,0.3
			c0.4,0.2,0.7,0.5,1.1,0.8c0.2,0.1,0.4,0.3,0.5,0.4c0.5,0.3,0.9,0.7,1.4,1.1c2.8,2.3,5.2,5,7.1,8.1c0.6,1,1.9,1.3,2.9,0.7
			c1-0.6,1.3-1.9,0.7-2.9c-1.5-2.4-3.3-4.6-5.3-6.6c0,0,0,0,0.1,0c-3-3.1-6.6-5.6-10.6-7.6c-0.9-0.4-1.8-0.8-2.8-1.2
			c0,0-0.1,0-0.1,0l0,0c-8.5-3.3-17.9-3.5-26.7-0.5c-2.9,1-5.7,2.4-8.3,4c-4.6,3-8.4,6.8-11.3,11.1h0c-6.5,9.8-8.3,22.3-4.3,33.9
			c5.4,15.6,20,26.1,36.5,26.1C175.3,121.6,193.5,94.8,184.8,70.3z"/>
		<path d="M127.4,96c0,1.2,0.9,2.1,2.1,2.1s2.1-0.9,2.1-2.1c0-9.2,7.5-16.7,16.7-16.7c9.2,0,16.7,7.5,16.7,16.7
			c0,1.2,0.9,2.1,2.1,2.1s2.1-0.9,2.1-2.1c0-11.6-9.4-21-21-21S127.4,84.5,127.4,96z"/>
	</g>
</g>
</svg>
