<?xml version="1.0" encoding="UTF-8" standalone="no"?>
<!DOCTYPE svg PUBLIC "-//W3C//DTD SVG 1.1//EN" "http://www.w3.org/Graphics/SVG/1.1/DTD/svg11.dtd">
<svg width="100%" height="100%" viewBox="0 0 50 50" version="1.1" xmlns="http://www.w3.org/2000/svg" xmlns:xlink="http://www.w3.org/1999/xlink" xml:space="preserve" xmlns:serif="http://www.serif.com/" style="fill-rule:evenodd;clip-rule:evenodd;stroke-linejoin:round;stroke-miterlimit:2;">
    <circle cx="25" cy="25" r="23" style="fill:rgb(233,243,246);"/>
    <path d="M25,5C36,5 45,14 45,25C45,36 36,45 25,45C14,45 5,36 5,25C5,14 14,5 25,5M25,2C12.3,2 2,12.3 2,25C2,37.7 12.3,48 25,48C37.7,48 48,37.7 48,25C48,12.3 37.7,2 25,2Z" style="fill:rgb(65,150,176);fill-rule:nonzero;"/>
    <g transform="matrix(0.706761,0,0,0.706761,7.33098,7.33098)">
        <circle cx="25" cy="25" r="16" style="fill:rgb(65,150,176);"/>
    </g>
</svg>
