<?xml version="1.0" encoding="utf-8"?>
<!-- Generator: Adobe Illustrator 24.0.3, SVG Export Plug-In . SVG Version: 6.00 Build 0)  -->
<svg version="1.1" id="Layer_1" xmlns:serif="http://www.serif.com/"
	 xmlns="http://www.w3.org/2000/svg" xmlns:xlink="http://www.w3.org/1999/xlink" x="0px" y="0px" width="300.5px" height="598.2px"
	 viewBox="0 0 300.5 598.2" style="enable-background:new 0 0 300.5 598.2;" xml:space="preserve">
<style type="text/css">
	.st0{fill:#A46546;}
	.st1{fill:#1A1A1A;}
	.st2{fill:#270210;}
	.st3{fill:#333333;}
	.st4{fill:#9B6042;}
	.st5{fill:#4D4D4F;}
	.st6{fill:#AC6A4A;}
	.st7{opacity:0.28;fill:#7C2E2E;}
	.st8{opacity:0.59;fill:#BF8569;}
	.st9{fill:#D02721;}
	.st10{fill:#FFFFFF;}
	.st11{fill:#4D4D4D;}
	.st12{fill:#39170B;}
	.st13{fill:#390B1D;}
	.st14{opacity:0.29;fill:#823B3B;}
</style>
<g>
	<path class="st0" d="M222.7,325.4c3.8,1.3,16.6,16.6,16.6,16.6l-38.7,36.5l8.5-29.8L222.7,325.4z"/>
	<path class="st1" d="M304.1,806c0-24.7-8.6-88.8-12.7-106c-4.1-17.2-15.2-71.2-16.2-86.8c-1-15.6-1-23.7-15.7-81.7
		c-14.7-58-55.4-155.8-57.4-155.8c0.4-1.2-0.6-2-0.2-3.2l-71.1-13.1c-1.4,1.4-2.8,3-4.3,4.6c-15.2,16.7-40.6,54-44.7,85.8
		C77.8,481.5,89.9,596,89.9,596S68.6,611.2,70.2,643c1.5,31.8,22.3,85.8,25.4,107.5c3,21.7-2.5,31.3-2.5,31.3l-9.6-1l4.6,10.6
		l-20.3,16.1c0,0,8.1,11.6,8.1,18.2c0,6.6-2,38.9-2,38.9h6.1c0,0-0.5-37.8,3.6-39.4c4.1-1.5,10.1,11.1,11.2,18.2
		c1,7.1,3,22.7,3,22.7h28.9l1-7.1c0,0-7.6,0-11.2-3c-3.6-3,0-13.6,1-51c1-37.3-3-193.8-3-193.8l46-175.1c0,0,82.9,154,84.9,167.1
		c2,13.1-11.2,29.8-8.1,48.9c3,19.2,31,78.7,38.6,94.4c7.6,15.6,6.6,33.8,6.6,33.8l-9.6,1l5.6,11.1l-19.8,16.2c0,0,6.1,9.1,7.1,15.1
		c1,6.1,0,39.9,0,39.9h7.1c0,0-3.6-37.3,0-37.8c3.6-0.5,9.1,6.6,11.2,13.1c2,6.6,4.1,25.7,4.1,25.7h33.5v-5.6c0,0-12.7-0.5-18.3-6.6
		C297.5,846.3,304.1,830.7,304.1,806z"/>
	<path class="st2" d="M154.6,184.4c3.7,8.4,22.1,3.8,26.4,0.5v-3.1c2.6-4.8,4-8.7,8.2-12.5c1.9-1.7,4-3.2,6.1-4.6
		c1.5-0.7,2.8-1.2,3.8-1.7c5.4-2.5,12.3-5.4,14.9-11.6c2.8-2.5,4.7-5.2,4.2-7.5c-1,0.5-2.2,1.3-3.2,2.1c0-0.6-0.1-1.1-0.2-1.7
		c4.4-12.3-7.1-37.6-1.4-52c1.5-3.8-8.3,3.2-8.5-1.1c-0.3-5.7-4.8-11.4-9.3-13.2c0.1,1.2-0.3,2.5,0.3,3.5
		c3.3,5.8-42.7,62.5-51.5,66.9C133,154.2,153.7,182.3,154.6,184.4z M114.5,193.4c15.2-6.8,9.8-34.7,8.6-54.2
		c-5.9-7.6-9.8-1.1-11-4.4c-1.5,2.6-3.5,3.9-6.1,3.9c0,0,0,0,0,0c-4,6.8-7.4,14.8-10.7,21.4c-1.4,2.8-3.2,5.9-4.3,9.1l-5.4-7.7
		C72.2,179,98.5,195.4,114.5,193.4z"/>
	<path class="st1" d="M198.3,179.7c25.6,24.2,84.2,112.4,84.2,112.4l-43.3,50l-16.6-16.6l24-34.5l-60.5-81.4L198.3,179.7z"/>
	<path class="st1" d="M78.4,326.8l-26.7-35.3l44-61.6c10.1,13.4,49.9,67.2,52.7,87.2c2.9,20.7-6.4,28-20,42.2l74.8,13.9
		c14.3-42.4,8.8-107.9,8.8-107.9s19.8-3.2,25.1-33.1c-10.2-3.2-37.4-32.6-37.4-32.6s5.3-12.3-2.7-21.4c-8-9.1-90.7-6.4-114.2,3.6
		c-23.5,10-71.2,115.6-71.2,115.6l52.4,47L78.4,326.8z"/>
	<path class="st3" d="M212,265.3l-27.2-0.9c0,0-27.8,11.4-22.8,29.2c5,17.8,0,47.7,0,47.7l-15.2-5.1c2.1-5.2,2.8-11.1,1.7-19.1
		c-3.2-23-55-90.3-55-90.3s12.3,12.6,28,14.8c15.7,2.1,37.8-5.7,56.3,0c18.5,5.7,21.4-0.7,34.9-7.1c13.5-6.4,24.6-2.3,24.6-2.3
		C231.8,262.1,212,265.3,212,265.3z"/>
	<path class="st4" d="M149.5,150.4c0,0-6.3,15.4,6.5,28.2c5.2,11.6-35.9,1.4-35.9,1.4s6.4-9.9,2.7-46.8
		C124.4,138.1,149.5,150.4,149.5,150.4z"/>
	<path class="st5" d="M147.8,333.1c17.2,12.5,45.8,15.1,61.3,15.6c-1.6,9.7-3.9,19.2-7,27.6c-27.9-0.7-52.6-9-69.1-21.7
		C140.2,347.2,145.6,341.3,147.8,333.1z"/>
	<path class="st6" d="M193.3,103.6c0,0,7.8,5.1,4.6,22.4c-3.6,19.2-34.2,33.5-34.2,33.5s-40.6-10.3-54.8-48.8
		c-14.2-38.5,19.8-73.2,55.8-62.9C200.6,47.8,202.6,86.5,193.3,103.6z"/>
	<path class="st7" d="M108.9,110.7c-11.8-31.8,9.8-54.8,37.9-56c-8.8,5.4-16.4,14.9-18.6,31.6c-4.5,34.1,20.1,61.1,32.1,72.1
		C150,154.9,120.6,142.3,108.9,110.7z"/>
	<g>
		<path class="st8" d="M169.1,121.2c0-0.2,0.4-0.5,1.2-0.9c0.8-0.4,1.9-0.8,2.7-1.6c0.4-0.4,0.8-0.9,0.9-1.4
			c0.2-0.5,0.1-0.9-0.1-1.4c-0.4-1-1.8-2.3-3.1-4.1c-2.5-3.4-3.7-7.6-3.8-10.7c-0.1-3.2,0.8-5.2,1.7-5.1c1,0.1,1.3,2,2,4.6
			c0.7,2.6,1.8,5.9,3.7,8.9c0.8,1.4,2.4,2.8,3,5.5c0.3,1.3,0,2.8-0.7,3.8c-0.7,1-1.5,1.6-2.3,2.1c-1.7,0.8-3,0.8-3.9,0.7
			C169.6,121.6,169.1,121.4,169.1,121.2z"/>
	</g>
	<g>
		<path class="st9" d="M181.7,135.4c0,0,5.4-2.9,3.1-5c-2.3-2-22.1,4.1-31.2,0.1c3.7,9.3,8.8,15.8,17.2,16.3
			C179.1,147.1,181.7,135.4,181.7,135.4z"/>
		<path class="st10" d="M157.8,134c8.5,1.5,11.8,2.6,22.7,0.4c-1,3.6-4,9.4-8.6,9.1C164,143,157.8,134,157.8,134z"/>
	</g>
	<path class="st5" d="M177.8,263.7c0,0-25.1,6.9-36.9-4.3C150.6,276.6,168.7,273.9,177.8,263.7z"/>
	<path class="st0" d="M77.9,325.7l40.8,34.1l7.2-5.8l1.4,8.6c0,0-4.3,7.2-8.6,7.2c-10.2,0-54.6-26-54.6-26S71,330.5,77.9,325.7z"/>
	<g>
		<g>
			<path class="st0" d="M166.4,346.1L166.4,346.1l-22.6,1.9l15.8-6.2c1.8-0.9,1.6-2.5,1.4-3.1l-8.5,2.3l-2.6,0.8l0,0
				c-2.6,0.6-4.9,1.3-7,2l0,0l-3.6,0.9L122,357.1l0,0l0.6,2.9l2.5,3.1c0,0,7.3,0.8,14.4-1c8,1.4,15,1.1,15,1.1
				c4.1-0.8,1.3-2.6,1.3-2.6c-3.9,0.9-10-0.5-11-0.8c-0.7-0.2-1.4-0.4-1.9-0.5l0.2-0.6l21.7-1.6c3-0.6,0.7-3.2,0.7-3.2l-16.6,0
				l-3.7-0.4l0.5-1.1l-0.3-0.1l0.4,0l20.9-2l0,0c3.6-0.6,3-4.4,3-4.4L166.4,346.1z"/>
		</g>
	</g>
	<g>
		<path class="st11" d="M117.4,804.9c1-37.3-3-193.8-3-193.8l46-175.1l-53.1,174.1c0,0,3.4,202.5,2.7,219.3
			c-0.6,15.3-1.7,25.9-1.7,36.5h18.3l1-7.1c0,0-7.6,0-11.2-3C112.8,852.9,116.3,842.3,117.4,804.9z"/>
		<path class="st11" d="M321.4,858.9c-24.3,5.6-30.5-9.6-40.6-50c0.1-5.2,13.8-25.2,3.2-58.9c-14.3-45.4-47.2-95.2-37.7-115.7
			c6.8-14.7,9.2-30.3,3.8-43.7c-4.8-11.9-89.6-154.6-89.6-154.6c14,26.7,83.1,155.5,84.9,167.1c2,13.1-11.2,29.8-8.1,48.9
			c3,19.2,31,78.7,38.6,94.4c7.6,15.6,6.6,33.8,6.6,33.8l-9.6,1l5.6,11.1l-19.8,16.2c0,0,6.1,9.1,7.1,15.1c1,6.1,0,39.9,0,39.9h7.1
			c0,0-3.6-37.3,0-37.8c3.6-0.5,9.1,6.6,11.2,13.1c2,6.6,4.1,25.7,4.1,25.7h33.5C321.4,864.5,319.3,859.4,321.4,858.9z"/>
	</g>
	<path class="st1" d="M123,158.5c0,0,1.4,2.9,11.5,2.9s14.4-2.9,14.4-2.9l14.4,24.4c0,0-7.2,5.8-21.6,5.8s-24.4-8.6-24.4-8.6
		L123,158.5z"/>
	<g>
		<path class="st10" d="M154.5,106.4c1.7-2.1-1.4-9.4-8.5-11.5c-7.1-2.1-10.7,2.7-10.9,4.6c-0.2,1.9,0.8,5.3,4.9,6.9
			c4.1,1.7,7.5,1.1,9.4,1C151.9,107.2,153.6,107.6,154.5,106.4z"/>
		<circle class="st12" cx="146" cy="99.5" r="6.2"/>
		<circle class="st10" cx="143.7" cy="98.3" r="2.5"/>
		<path class="st12" d="M155,104.7c0,0,0.9-3.6-3.6-8.2c-4.4-4.6-10.1-3.5-11.7-3.7c-1.6-0.3-3.3,0.2-2.8,0.7
			c0.5,0.4-0.9,1.7-2.2,1.4s0,1.1,0,1.5c0,0.4-2.2,0.3-2.3,0.8c-0.2,0.5,1.3,1.5,0.9,1.6c-0.3,0.1-1.5,1.1-0.9,1.5
			c0.6,0.4,1.8,1.8,2.3,2.4c0.5,0.6,1.9,1.1,1.9,1.1s-1.6-2.9-0.7-5c0.9-2.1,3.3-4.3,7.4-3.9c4,0.4,6.6,2.3,8.4,3.9
			C153.4,100.3,155,104.7,155,104.7z"/>
		<path class="st12" d="M156.1,86.4c1.2,2.9-4.3,2.2-7.6,0.9c-3.3-1.3-7.7-1.8-11.4-1.7c-3.7,0.1-8.5,2.3-8.5,2.3s5.8-3.7,11.3-4.2
			c5.5-0.5,11.6,0.3,13.5,0.8C155.2,85,155.4,84.8,156.1,86.4z"/>
	</g>
	<g>
		<path class="st10" d="M177,103.9c-1.6-2,1.3-9,8-10.9c6.7-2,10.2,2.6,10.3,4.4c0.2,1.8-0.8,5-4.7,6.6s-7.1,1.1-8.9,0.9
			C179.5,104.7,177.9,105.1,177,103.9z"/>
		<circle class="st12" cx="185.1" cy="97.4" r="5.9"/>
		<path class="st10" d="M180.5,96.2c0,1.3,1,2.3,2.3,2.3c1.3,0,2.3-1,2.3-2.3c0-1.3-1-2.3-2.3-2.3C181.6,93.9,180.5,95,180.5,96.2z"
			/>
		<path class="st12" d="M176.6,102.3c0,0-0.8-3.4,3.4-7.8c4.2-4.4,9.6-3.3,11.1-3.5c1.5-0.3,3.1,0.2,2.6,0.6
			c-0.5,0.4,0.9,1.6,2.1,1.3c1.2-0.2,0,1,0,1.4c0,0.4,2.1,0.3,2.2,0.8c0.2,0.4-1.2,1.4-0.9,1.5c0.3,0.1,1.5,1,0.9,1.4
			c-0.6,0.4-1.7,1.7-2.2,2.3c-0.5,0.6-1.8,1-1.8,1s1.5-2.8,0.6-4.7c-0.9-2-3.2-4.1-7-3.7c-3.8,0.4-6.2,2.2-7.9,3.7
			C178.1,98.2,176.6,102.3,176.6,102.3z"/>
		<path class="st12" d="M173,85c-1.2,2.7,4,2.1,7.2,0.9c3.2-1.2,7.3-1.7,10.8-1.6c3.5,0.1,8.1,2.2,8.1,2.2s-5.5-3.5-10.7-3.9
			c-5.2-0.4-11,0.3-12.8,0.8C173.9,83.7,173.7,83.4,173,85z"/>
	</g>
	<g>
		<g>
			<path class="st13" d="M76.5,163.5c0.1,1-1.2,2.5-3.3,5c-1.8,2.1-5.7,7.4-4.1,11.6c1,2.8,4.1,4.4,9.2,4.8c0.6,0.7,2.7,2.9,6.1,4.8
				c1.9,1,3.2,2.6,3,3.6c-0.1,0.4-0.8,1.8-6.4,1.8c-0.7,0-1.5,0-2.3-0.1c-1.6-1.1-3-2.4-4.3-3.5l-0.1-0.1c-0.2-0.1-0.3-0.2-0.5-0.2
				c-0.3,0-0.7,0.2-0.8,0.6c-0.1,0.3-0.1,0.7,0.2,1c3.1,3.4,7,7.7,12,7.7c1.1,0,2.2-0.2,3.3-0.6c2.5-1,4.6-3,5.8-5.5
				c1.1-2.5,1.2-5.3,0.4-7.9c-0.3-0.8-0.6-1.6-1-2.3c-0.4-0.9-0.8-1.7-1-2.5c-0.4-1.8-0.1-3.3,0.8-4.8c1-1.5,2-3,3-4.4
				c1.2-1.7,2.4-3.4,3.5-5.2c0.5-0.7,0.9-1.5,1.4-2.2c2.7-3.2,5.3-6.7,8.1-10.9c1-1.3,1.9-2.6,2.7-3.8c-0.1,0.7-0.3,1.4-0.6,2
				c-0.7,1.4-1.5,2.6-2.3,3.9c-0.5,0.8-1.1,1.6-1.6,2.5c-2,3.4-3.8,7.7-1.3,13c1.2,2.7,4.8,4.9,8.7,7.2c5.6,3.4,11.3,6.8,10.4,11.9
				c-1.4,7.9-9,8.3-10.5,8.3c-0.1,0-0.2,0-0.2,0c0,0,0,0,0,0c-0.3,0-0.6,0.3-0.7,0.6c-0.1,0.4,0.2,0.7,0.5,0.8
				c0.1,0,1.5,0.5,3.5,0.5c3.5,0,9.5-1.4,11.2-10.8c0.4-2.1,0.5-3.9,0.5-5.5c0.4-4.4-0.3-8.2-2.1-11.5c-1.2-2.2-3-3.8-4.7-5.3
				c-0.4-0.3-0.8-0.7-1.1-1c-1.9-1.7-3.8-3.6-3.7-6.1c0.1-2.9,1.6-5.6,3-8.2c0.4-0.7,0.8-1.5,1.2-2.3c1.7-3.3,2.7-6.6,3-10.1
				c0.1-1.6,0.1-3.2,0-4.8c0.1-2.8-0.4-6-1.4-9.8c-0.7-2.5-1.5-5-2.2-7.3c-2.9-9.4-5.5-17.6-2.6-26.4c3.3-2,7.9-5.5,11.6-11.5
				c2-3.2,3.3-6.5,4.6-9.7c2.6-6.5,4.9-12.1,11.8-15.1c3.2,3.3,11.7,10.9,25.9,16.6c18.6,7.5,28.9,17.1,30.5,28.3
				c0.6,4,0.5,7.6,0.4,11c-0.2,6.3-0.3,12.2,3.8,19.6c3.8,7,4.8,14.6,2.6,20.4c-1.9,5-5.9,8.4-12,10.1
				c-16.1,4.5-23.7,11.3-23.3,20.8c0.4,7.8,10.7,11.3,17.9,11.3c1.3,0,2.4-0.1,3.3-0.3c5.5-1.4,10-8.9,10.2-9.2
				c0.2-0.3,0.1-0.7-0.1-1c-0.1-0.1-0.3-0.2-0.4-0.2c-0.2,0-0.3,0.1-0.5,0.2c0,0-4,4.1-8.4,5.8c-1.3-0.2-4.8-1.1-5.6-3.8
				c-0.8-2.5,0.2-5.3,0.9-6.7c2.4-5.3,6.6-8,11-10.9c0.4-0.3,0.8-0.5,1.3-0.8c5.2-3.5,10.6-7.3,14.2-12.8c1.9-3,3.1-6.3,3.3-9.9
				c1.1-7.2,0.4-14.1-2.1-19.8c-0.9-2.2-2.1-4.1-3.3-6c-0.5-0.8-1-1.6-1.4-2.4c-1.7-2.8-2.9-5.4-1.9-8.4c0.6-1.7,1.5-3.4,2.3-5
				c0.7-1.3,1.4-2.6,1.9-3.9c1.2-2.8,2.5-6.2,2.8-9.9c0.2-2.6,0-5.1-0.5-7.6c-0.5-7.2-4.2-16.7-9.7-25.7
				c-5.1-8.1-14.4-19.8-29.9-29.5c-10.4-6.5-20.2-9.8-28.9-9.8c-10.6,0-16.4,4.9-17.6,6.1c-0.8-0.1-2.8-0.4-5.5-0.4
				c-6.4,0-15.8,1.6-24,9.1C91.4,42.4,84.1,64.7,83.2,93.8c-0.1,1.7-0.1,3.3-0.1,4.9c-0.7,22.6-0.8,26.7-8.2,36.5
				c-5.4,7.1-8.3,11.8-7.8,16c0.3,2.5,1.6,4.7,4.3,6.9C74.6,160.8,76.4,162.4,76.5,163.5z M208.5,109.3c0,1.1,0.1,2.2,0.3,3.2
				c-1.3-2.7-1.8-5-0.6-7c1.2-1.9,2.3-3.5,3.4-4.9c-0.1,0.2-0.2,0.3-0.3,0.5l-0.1,0.1C210,103.5,208.5,106.3,208.5,109.3z"/>
			<path class="st14" d="M95.7,94.7v-1C95.7,94.4,95.7,94.7,95.7,94.7z M95.7,86.3v7.4c0.1-6.3,1.4-39.5,22.4-60.4
				C118.1,33.3,94.1,51.1,95.7,86.3z M208.1,103.2l2.1-1.9c2-2.8,3.6-4.9,5-7.2c-0.9,2.5-2,4.9-3.3,7.3c-0.5,1-1.1,2-1.5,3.1l5-4.8
				c0,0,0.3,0,0.7-0.1c0.2-0.4,0.4-0.8,0.5-1.2c1.3-3.1,2.4-6.3,2.7-9.7c0.2-2.6,0-5.1-0.5-7.4c-0.8-10.7-9.5-32-30.9-48.7
				c18.6,17,24,37.5,25.6,48.2c-0.5-1.2-1.2-2.5-1.9-3.8C200.9,49.6,166.2,32,166.2,32c19.4,11.4,30.8,24.1,37.4,33.7
				c-1.4-1.7-3-3.4-4.8-5.2c-25.6-26.3-56.2-36.1-56.2-36.1s39.1,17.8,57,41C217.4,88.5,208.1,103.2,208.1,103.2z M94.1,100.1
				l2.4-39.6c0,0,7.3-28,34.2-32.9c0,0-31.3-1.8-39.9,40.1C82.3,109.4,94.1,100.1,94.1,100.1z M121.1,89.6c2.8-2,6-5.1,8.8-9.6
				c6-9.7,6.1-20.7,17.2-25.2c3,3.2,11.4,10.9,26,16.8c18.7,7.6,29.3,17.4,30.9,28.9c0.2,1.3,0.3,2.6,0.4,3.8
				c0.9-4,0.9-7.9,0.1-11.9c-2.4-28.4-32.7-46.3-32.7-46.3c17.9,14.1,25.5,27.3,28.6,34.8c-14.5-28-58.3-50.8-58.3-50.8
				s19.5,12.9,39.9,31.2c13.5,12.1,17.3,21.7,18.4,26.7c-2.2-3.8-6.5-8.4-14.3-13.4c-20.8-13.4-36.6-17.8-50.1-49
				c0,0,4,13.7,8.2,24.2c-1.3,0.6-5.9,3.1-9,11C131.7,69.8,131.9,79.5,121.1,89.6z M134.4,34.6c0,0-22.4,27.6-20.4,58.3l1-5
				c-0.4,4.6,0.1,9.2,1.9,13.1c-0.1-2.4,0.1-4.9,0.7-7.4l0-0.8c0,0,0.4-11.6,6.5-23.6c6.1-12,12.2-25.4,12.2-25.4
				s-7.7,11.6-13.4,20.9c-2.1,3.5-4.2,7.9-5.7,12.7C119.5,67.7,125.1,47.2,134.4,34.6z"/>
		</g>
	</g>
	<g>
		<path class="st0" d="M123,101c0,0-2.9-6.4-6.5-7.9c-3.6-1.5-6.5,2.2-7.3,6.8c-0.8,4.6,2.6,11.6,4.3,13.7c1.8,2,7.4,3.7,9.4,3.6
			c2-0.1,2.8,0.3,2.9-1.7C126,113.4,123,101,123,101z"/>
		<path class="st7" d="M122.9,111.1c-0.5-6.6-2.6-12.1-4.7-14.2c-2.2-2.2-4.7-0.5-5.7,1.9c-0.9,2.4-0.1,6-0.1,6s2-6.1,3.9-5.3
			C118.1,100.2,122.9,111.1,122.9,111.1z"/>
	</g>
</g>
</svg>
