<?xml version="1.0" encoding="utf-8"?>
<!-- Generator: Adobe Illustrator 24.0.3, SVG Export Plug-In . SVG Version: 6.00 Build 0)  -->
<svg version="1.1" id="Layer_1" xmlns:serif="http://www.serif.com/"
	 xmlns="http://www.w3.org/2000/svg" xmlns:xlink="http://www.w3.org/1999/xlink" x="0px" y="0px" width="279.2px" height="598.2px"
	 viewBox="0 0 279.2 598.2" style="enable-background:new 0 0 279.2 598.2;" xml:space="preserve">
<style type="text/css">
	.st0{fill:#60433A;}
	.st1{fill:#422A22;}
	.st2{fill:#FFB882;}
	.st3{fill:#E3F4F9;}
	.st4{fill:#D4E4E8;}
	.st5{fill:#CEA895;}
	.st6{fill-rule:evenodd;clip-rule:evenodd;fill:#2176BC;}
	.st7{fill-rule:evenodd;clip-rule:evenodd;fill-opacity:0.11;}
	.st8{fill-rule:evenodd;clip-rule:evenodd;fill:#FFFFFF;}
	.st9{fill:#9A4F3E;}
	.st10{fill:#733022;}
	.st11{fill:#EF8F6F;}
	.st12{fill:#FFCD9C;}
	.st13{fill:#FFAE85;}
	.st14{fill:#FFC397;}
	.st15{fill:#542C23;}
	.st16{fill:#FFF5EB;}
	.st17{fill:#FFFFFF;}
	.st18{fill:#39170B;}
	.st19{fill:#231F20;}
	.st20{opacity:0.14;fill:#FFFFFF;}
</style>
<g>
	<path class="st0" d="M230.8,361c-8.2-16.8-41.1-65.3-41.1-65.3l-56.7,31.6c-10.7,21.8-23.6,274.6-49.3,388.8l30-2.1
		c16-48,17.1-129.3,21.2-144c4.9-17.4,22.6-145.7,36.3-148.3c13.7-2.6,19.4,134.4,19.4,148.6c0,14.2,4.5,145.1,4.5,145.1l28.6-1.6
		c1.4-20.7-1.2-143.5-1.2-143.5S239.1,377.8,230.8,361z"/>
	<g>
		<path class="st1" d="M167.9,419.8c-13.7,2.6-31.4,130.9-36.3,148.3c-4.1,14.7,4.5,26.3-21.2,144l-25.9,0.6
			c-0.3,1.1-0.5,2.3-0.8,3.4l30-2.1c34.4-108.8,17.1-129.3,21.2-144c4.9-17.4,22.6-145.7,36.3-148.3c0.3-0.1,0.6,0,0.9,0
			C170.7,420.3,169.3,419.5,167.9,419.8z"/>
		<path class="st1" d="M230.8,361c-8.2-16.8-41.1-65.3-41.1-65.3l-1.5,0.8c7.1,10.5,21.5,53.7,28.6,68.1
			c8.2,16.8,2.3,203.7,2.3,203.7s5.9,47.6,1.2,143.5l-25.6,0.7c0.2,1.8,0.4,2.8,0.4,2.8l28.6-1.6c8.5-119.5-1.2-143.5-1.2-143.5
			S239.1,377.8,230.8,361z"/>
	</g>
	<path class="st1" d="M156.3,416.2c0,0,14.9,6.2,29.7-1.5c0,0-6.5,7.6-14.9,7.6C162.8,422.3,156.3,416.2,156.3,416.2z"/>
	<g>
		<g>
			<path class="st2" d="M38.7,339.3l13,26c4.3-4.1,14.3-9,17.3-9.6l-6.8-23.5C62.2,332.1,48.8,339.6,38.7,339.3z"/>
			<path class="st2" d="M48.8,339.6c-2-0.4-7.5,0-11.8-0.4c-5-0.5-19.3-10.4-20.8-9.1c-2.2,1.9-2.4,5.8-1.6,7.1
				c0.9,1.3,15.7,9,14.6,11.1c-1.7,3.4-9.3,5.8-10,7.5c-1.6,3.8,11.4,14.1,15.2,16.4c3.8,2.3,15.9-3,21-11.8
				C57.4,357.1,48.8,339.6,48.8,339.6z"/>
			<path class="st2" d="M28.2,350.3c-4.4,2.5-10.2,6.2-11.9,6.5c-1.7,0.3-11.3,1.9-12,3c-0.7,1.1-2,5.3,0.3,5.7
				c2.2,0.3,12.8-1.6,15.2-2.8c2.3-1.2,10.1-4.4,10.6-5.2C30.8,356.6,30.7,348.9,28.2,350.3z"/>
			<path class="st2" d="M36.5,360.2c-4.1,3-9.5,7.4-11.1,8c-1.6,0.5-11,3.3-11.6,4.4c-0.6,1.1-1.4,5.5,0.8,5.6
				c2.2,0.1,12.6-3.2,14.8-4.6c2.2-1.5,9.6-5.7,9.9-6.5C39.7,366.1,38.8,358.5,36.5,360.2z"/>
			<path class="st2" d="M32.1,354.4c-4.1,3-9.5,7.4-11.1,8c-1.6,0.5-11,3.3-11.6,4.4c-0.6,1.1-1.4,5.5,0.8,5.6
				c2.2,0.1,12.6-3.2,14.8-4.6c2.2-1.5,9.6-5.7,9.9-6.5C35.3,360.4,34.4,352.7,32.1,354.4z"/>
			<path class="st2" d="M44.5,361.9c-3.8,3.4-8.8,8.4-10.4,9c-1.6,0.7-10.7,4.4-11.1,5.6c-0.5,1.2-0.9,5.7,1.3,5.5
				c2.2-0.2,12.2-4.4,14.3-6.1c2.1-1.7,9-6.6,9.3-7.5C48.2,367.6,46.7,360,44.5,361.9z"/>
		</g>
		<path class="st3" d="M126.5,173.7c-23,18.6-19.4,101.7-25.2,118.6c-8.5,24.9-49.9,40-49.9,40l11.3,31.3c0,0,47.3-20.8,63.8-52.9
			c15.6-30.2,23.3-73.6,18.5-106.2C141.7,181.3,126.5,173.7,126.5,173.7z"/>
		<path class="st4" d="M109.7,303.5c16.8-32.7,15.2-81.5,22.2-113.4c2.1,9,10,1.3,12.1,16.6c4.4,31.9-7,78.9-21.1,106.4
			c-16.5,32-60.2,50.5-60.2,50.5l-5.3-15.3C72.7,343,98.1,326,109.7,303.5z"/>
	</g>
	<path class="st5" d="M90.4,263.4"/>
	<path class="st3" d="M120.9,364.4c0.5,7.9,29.9,7.3,49.1,7.3c24.5,0,49.3,0.5,60.7-20.4c5.4-10,0.2-17.4,6.6-76.8
		c6.9-64.8,5.7-93.7-3.9-103.3c-6.8-6.8-31.2-18.2-57.7-15.6c-18.1,1.7-36.1,6-51.7,20.4c-6.7,6.2-7.2,31.3-5.3,79.1
		C119.5,271.3,119.3,339.9,120.9,364.4z"/>
	<path class="st4" d="M211.9,342c3.7-10.8,4.8-16.8,9.6-73.3c3.2-37.3-4.9-78.9,1.2-101c25.2,24.1,22.7,61.3,16.7,106.8
		c-9.5,72.3-3.2,67-8.6,76.9c-11.4,20.9-78.6,23.2-106.8,16.4c-0.3-0.1,1.3,0.2,1,0C187.5,369.9,208.2,352.8,211.9,342z"/>
	<g>
		<g>
			<path class="st2" d="M200.2,367.8l23.1,16.9c2.2-5.9,9.2-15.4,11.7-17.5l-16.3-17.9C218.7,349.3,209.7,362.9,200.2,367.8z"/>
			<path class="st2" d="M209.7,362.9c-2,0.6-6.9,3.8-11,5.6c-4.7,2.1-22.1,0.4-22.9,2.3c-1.2,2.8,0.3,6.5,1.6,7.2
				c1.4,0.7,18.2,0.2,18.2,2.6c-0.1,4-6,9.9-5.9,11.9c0.2,4.2,16.5,7,20.9,7.1c4.5,0.1,13.3-10.7,14.1-21.3
				C225,374.5,209.7,362.9,209.7,362.9z"/>
			<path class="st2" d="M195.5,383.1c-2.9,4.5-6.7,10.8-8.1,11.9c-1.4,1.1-9.5,7.5-9.7,8.8c-0.2,1.3,0.5,5.8,2.7,5
				c2.2-0.8,11.1-7.9,12.7-10.2c1.6-2.3,7.3-9.2,7.4-10.1C200.5,387.5,197.1,380.6,195.5,383.1z"/>
			<path class="st2" d="M200.9,385.3c-2.4,4.8-5.5,11.6-6.8,12.8c-1.3,1.3-8.7,8.6-8.7,9.9c0,1.3,1.1,5.7,3.2,4.7
				c2.1-1.1,10.1-9.2,11.5-11.7c1.4-2.4,6.3-10,6.3-11C206.3,389.1,202.2,382.6,200.9,385.3z"/>
			<path class="st2" d="M208.5,386.5c-2.4,4.8-5.5,11.6-6.8,12.8c-1.3,1.3-8.7,8.6-8.7,9.9c0,1.3,1.1,5.7,3.2,4.7
				c2.1-1.1,10.1-9.2,11.5-11.7c1.4-2.4,6.3-10,6.3-11C213.9,390.3,209.8,383.8,208.5,386.5z"/>
			<path class="st2" d="M215.4,385.3c-2,5-4.5,12-5.6,13.4c-1.1,1.4-7.9,9.4-7.8,10.7c0.1,1.3,1.6,5.6,3.6,4.3
				c2-1.3,9.3-10.2,10.5-12.7c1.2-2.6,5.4-10.6,5.3-11.5C221.2,388.6,216.5,382.5,215.4,385.3z"/>
		</g>
		<path class="st3" d="M213.4,168.5c-16.4,18.2,30,66.6,22.2,127.4c-2.3,18.2-25.1,59.4-25.1,59.4l20.2,21.7
			c0,0,34.4-43.6,37.5-81.1C275.6,204.9,226.9,153.5,213.4,168.5z"/>
		<path class="st4" d="M256.3,294.6c9.5-53.4-11.9-106.4-34.6-125.1c20.9,4.1,62.3,49.5,48.8,127.9c-6.6,38-39.8,79.7-39.8,79.7
			l-10.2-10.6C235.4,351.9,251.3,322.6,256.3,294.6z"/>
	</g>
	<g transform="matrix(1,0,0,1,-4319.62,0)">
		<path class="st6" d="M4492.2,180.3L4488,167l-4-1.4l-8.5,9.2l4,14L4492.2,180.3z"/>
	</g>
	<g transform="matrix(1,0,0,1,-4319.62,0)">
		<path class="st7" d="M4494.1,183.8L4488,167l-4-1.4l-11.4,12.4l1.7,2.6l11.2-11.6l5.6,16.1L4494.1,183.8z"/>
	</g>
	<g transform="matrix(1,0,0,1,-4319.62,0)">
		<path class="st6" d="M4485.4,184.2l2.9,107.3l-10.8,16.8l-10.8-16.8l12-109.5L4485.4,184.2z"/>
	</g>
	<g transform="matrix(1,0,0,1,-4319.62,0)">
		<path class="st8" d="M4518.5,150.1c4.2,1.4,9,4.3,10.6,7.9c-9.7,13.2-21.6,19.2-36,27l-7.1-18.7
			C4501.9,167.8,4515.2,154.8,4518.5,150.1z"/>
	</g>
	<g transform="matrix(-1,0,0,1,4701.85,0)">
		<path class="st8" d="M4543.2,152.5c3.8,2.6,9.6,4.5,11.7,6.8c-2.4,6-3.6,12-6.5,20.7l-13.1-13.5
			C4544,159.3,4543,156.2,4543.2,152.5z"/>
	</g>
	<path class="st9" d="M150,16.6c8.5-2.8,79.4-17.8,75.6,22.4c0,0-35.9,18.9-96.1,40.7c0,0-5.4-16.5-5.4-29.8c0-12,1.4-16.5,1.4-16.5
		C124.4,9.8,141.5,19.4,150,16.6z"/>
	<path class="st10" d="M161.6,28c39.5,14.9,52.4,10.2,53.9-10.6c6,3.6,10.8,9.6,10.2,21.5c0,0,17.9,24-5,41.5c0,0,8.9,5.9-1.5,22.2
		c-10.4,16.2-25,11.7-25,11.7s-20.6,20.5-55.8-12.7l2.2-57C147.7,47.7,148.8,23.2,161.6,28z"/>
	<path class="st11" d="M159,153.2v-30l30-8.1l9.7,35.8c0,0-13.2,16.8-31.3,15.6C162.2,166.1,159,160.5,159,153.2z"/>
	<path class="st12" d="M152.4,143.2c-4-3.7-12.8-9.5-17.8-22.6c-5-13.2-6.2-33.8-4.9-48.9c1.2-13.8,7-34.3,15.1-38.4
		c19.2-9.6,65.4,9.7,68.9,26.6C218.9,84.2,193.4,142.6,152.4,143.2z"/>
	<path class="st13" d="M213.8,59.9c-1.9-5.7-5.2-10.4-9.4-17.2c0.8,1.9,1.5-8.3,2.1-6.5c5,14.8-19.4,88.3-19.4,88.3
		S165,140.7,152.3,143c0,0.1,0.1,0.1,0.2,0.2C167,143,191,130.9,191,130.9S218.9,75,213.8,59.9z"/>
	<path class="st14" d="M217.8,99.3c-8.8,10.3-20.6,13.3-20.5,3.8c0.1-9.5,15.2-30.4,19.1-23.5C220.3,86.4,222.7,93.6,217.8,99.3z"/>
	<path class="st11" d="M215.2,98.6c-6.5,7.5-15.1,9.7-15,2.7c0.1-7,11.2-22.3,14-17.2C217.1,89.1,218.8,94.4,215.2,98.6z"/>
	<path class="st14" d="M207.3,101.6c-3.1,3.7-7.4,4.8-7.3,1.4c0-3.4,5.4-10.9,6.8-8.4C208.2,97,209.1,99.6,207.3,101.6z"/>
	<path class="st15" d="M148.1,112.7c-1,0-2,0.6-2.5,1.4c-0.6,0.9-0.7,1.9-0.3,2.9c2.1,5,4.8,9.7,9.9,8.7c4.5-0.9,7.8-4,8.7-8.3
		c0.2-1.2-0.1-2.5-0.9-3.5c-0.8-1-2-1.5-3.3-1.5L148.1,112.7z"/>
	<path class="st16" d="M148.8,113c-0.9,0-1.7,0.4-2.2,1c-0.5,0.6-0.5,1.5-0.2,2.2c1.9,3.8,3.9,4,8.2,4c4.4,0,7-0.1,7.7-3.3
		c0.2-0.9-0.1-1.9-0.8-2.6c-0.7-0.7-1.7-1.2-2.8-1.2L148.8,113z"/>
	<g>
		<path class="st10" d="M130.9,71.5l-0.5-1.1c3.8-6,12-8.2,15.9-7.9l0.3,5.5C143.6,67.4,135.2,66.6,130.9,71.5z"/>
	</g>
	<g>
		<path class="st10" d="M186.9,71.4c-6.8-5.1-18.6-3.6-21.5-3.4l-0.1-5.6c3.3-0.1,14.5,1.5,22.3,8L186.9,71.4z"/>
	</g>
	<path class="st9" d="M199.8,85.2c-4.7-13.2-9.3-35.4,0.5-41.5c9.8-6.1,17.5,10.9,17.5,16.8C217.9,71.9,205.1,100,199.8,85.2z"/>
	<path class="st9" d="M131.3,35.5c0,0-1.7,26.4-1.2,25.2c6-14.4,37.3-14.4,60.6-8.8c12.5,3,22.4-0.6,23.4-9.6
		c1.2-10.3-29.5-17.9-43.5-19.2C156.4,21.9,131.3,35.5,131.3,35.5z"/>
	<g>
		<path class="st17" d="M147.7,90.2c-0.1-4.8-1.1-10.5-8.5-12.1c-7.5-1.6-10.6,5.2-10.4,7.6c0.2,2.4,2.4,5.9,6.5,6.2
			c4.1,0.2,7.7-0.3,9.2-0.2C146,91.9,147.7,91.2,147.7,90.2z"/>
		<circle class="st18" cx="138.8" cy="84.8" r="6.1"/>
		<path class="st17" d="M143.9,82.4c0,1.5-1.2,2.8-2.7,2.8c-1.5,0-2.8-1.2-2.8-2.7s1.2-2.8,2.7-2.8
			C142.6,79.6,143.9,80.8,143.9,82.4z"/>
		<path class="st17" d="M166.7,89.9c0-4.8,0.7-10.5,8.1-12.4c7.4-1.9,10.8,4.8,10.6,7.3c-0.2,2.5-2.2,6-6.3,6.4
			c-4.1,0.4-7.7-0.1-9.2,0.2C168.5,91.5,166.7,90.9,166.7,89.9z"/>
		<path class="st18" d="M169.6,83.9c0.1,3.4,2.8,6.1,6.2,6c3.4-0.1,6.1-2.8,6-6.2s-2.8-6.1-6.2-6C172.2,77.7,169.6,80.5,169.6,83.9z
			"/>
		<path class="st17" d="M175.2,81.4c0,1.5,1.3,2.8,2.8,2.7c1.5,0,2.8-1.3,2.7-2.8c0-1.5-1.3-2.8-2.8-2.7
			C176.4,78.6,175.2,79.9,175.2,81.4z"/>
	</g>
	<path class="st11" d="M155.4,82.3c-2.9,10-9,21.9-8,23.3c0.8,1.2,6.8,0.2,10.2-0.3c0,0.6,0.1,2.2,0.1,2.2s-12.1,2.2-13.2,0.6
		c-1.1-1.6,8.6-19.1,9.8-28.2C154.3,78.9,155.1,79.5,155.4,82.3z"/>
	<g>
		<path class="st19" d="M193.9,77.5c-0.7-2.1-35.7-1.4-35.7-1.4c2.4,21.6,22.9,30.5,30,23.7C196.3,92,194.6,79.6,193.9,77.5z
			 M187.2,98.2c-6.2,5.9-24.1-1.9-26.2-20.7c0,0,30.6-0.6,31.2,1.2C192.8,80.6,194.3,91.4,187.2,98.2z"/>
		<path class="st19" d="M120,80.2c-0.6,2-2.1,13.9,5.8,21c6.9,6.2,26.9-3.7,28.9-24.3C154.7,76.9,120.6,78.2,120,80.2z M126.7,99.3
			c-6.5-5.9-5.3-15.8-4.8-17.5c0.5-1.7,28.9-2.8,28.9-2.8C149.1,96.3,132.4,104.5,126.7,99.3z"/>
		<polygon class="st19" points="150.6,77.1 160.7,76 160.9,79.8 150.8,80.9 		"/>
		<path class="st20" d="M137.9,81.6l-10.6,15.6c0,0-4.2-4.7-4.4-8.2l7.1-7.1L137.9,81.6z"/>
		<path class="st20" d="M184.2,78.4l-12.3,17.3c0,0-6.4-4.5-6.6-8.1l10.8-9.3H184.2z"/>
		<polygon class="st19" points="193.1,77.2 210.8,73.6 206.5,80 194.3,86.3 		"/>
	</g>
	<path class="st1" d="M223.5,710.6l3.3,24.4l-66.9-1.1c0,0-1.1-8.9,8.9-11.1c9.6-2.1,29.2-13.3,29.2-13.3L223.5,710.6z"/>
	<path class="st1" d="M112.9,714.2l3.3,24.4l-66.9-1.1c0,0-1.1-8.9,8.9-11.1c9.6-2.1,29.2-13.3,29.2-13.3L112.9,714.2z"/>
</g>
</svg>
