<?xml version="1.0" encoding="utf-8"?>
<!-- Generator: Adobe Illustrator 24.0.3, SVG Export Plug-In . SVG Version: 6.00 Build 0)  -->
<svg version="1.1" id="Layer_1" xmlns:serif="http://www.serif.com/"
	 xmlns="http://www.w3.org/2000/svg" xmlns:xlink="http://www.w3.org/1999/xlink" x="0px" y="0px" width="484.1px" height="598.2px"
	 viewBox="0 0 484.1 598.2" style="enable-background:new 0 0 484.1 598.2;" xml:space="preserve">
<style type="text/css">
	.st0{fill:#A46546;}
	.st1{fill:#390B1D;}
	.st2{fill:#1A1A1A;}
	.st3{fill:#4D4D4F;}
</style>
<g>
	<path class="st0" d="M366.5,539.6c6.4,2.2,28.1,28.1,28.1,28.1L329,629.6l14.5-50.6L366.5,539.6z"/>
	<path class="st1" d="M250.9,300.4c6.2,14.2,37.4,6.4,44.8,0.8v-5.3c4.4-8.1,6.8-14.8,14-21.1c3.3-2.9,6.8-5.4,10.4-7.7
		c2.5-1.1,4.8-2.1,6.5-2.8c9.2-4.2,20.9-9.1,25.3-19.7c4.7-4.3,8-8.8,7.2-12.7c-1.7,0.9-3.7,2.2-5.5,3.6c-0.1-1-0.2-1.9-0.4-2.8
		c7.5-20.9-12.1-63.8-2.3-88.2c2.6-6.5-14.1,5.4-14.5-1.9c-0.5-9.6-8.2-19.3-15.7-22.4c0.2,2.1-0.4,4.3,0.5,5.9
		c5.7,9.8-72.4,106-87.3,113.5C214.4,249.2,249.4,296.9,250.9,300.4z M183,315.6c25.7-11.5,16.6-58.8,14.6-92
		c-10.1-12.8-16.7-1.9-18.6-7.4c-2.6,4.4-5.9,6.5-10.3,6.5c0,0,0,0-0.1,0c-6.8,11.6-12.5,25.1-18.1,36.2c-2.4,4.8-5.5,9.9-7.3,15.4
		l-9.1-13.1C111.2,291.2,155.9,319,183,315.6z"/>
	<path class="st2" d="M325,292.4C368.5,333.5,467.9,483,467.9,483l-73.4,84.8l-28.1-28.1l40.7-58.5l-102.7-138L325,292.4z"/>
	<path class="st2" d="M121.8,541.9l-45.3-59.8l74.6-104.5c17.1,22.7,84.6,113.9,89.4,148c4.9,35.2-10.9,47.5-34,71.5l126.9,23.5
		c24.3-72,14.9-182.9,14.9-182.9s33.5-5.4,42.6-56.2c-17.2-5.4-63.4-55.3-63.4-55.3s9.1-20.8-4.5-36.2
		c-13.6-15.4-153.8-10.9-193.7,6C89.4,312.9,8.5,492,8.5,492l88.8,79.7L121.8,541.9z"/>
	<path class="st1" d="M242.3,242.8c0,0-10.6,26.2,11.1,47.9c8.8,19.6-61,2.4-61,2.4s10.9-16.8,4.6-79.3
		C199.7,221.9,242.3,242.8,242.3,242.8z"/>
	<path class="st3" d="M239.5,552.5c29.2,21.2,77.6,25.7,104,26.5c-2.8,16.5-6.6,32.5-11.9,46.7c-47.3-1.1-89.3-15.2-117.2-36.8
		C226.5,576.5,235.7,566.5,239.5,552.5z"/>
	<path class="st1" d="M316.6,163.3c0,0,13.3,8.7,7.9,38.1c-6,32.6-58,56.8-58,56.8s-68.9-17.5-93-82.8
		C149.3,110.2,207,51.3,268,68.8C329,68.8,332.3,134.3,316.6,163.3z"/>
	<path class="st0" d="M120.9,540.1l69.1,57.9l20.7-0.2l-6.1,5.1c0,0-7.3,12.2-14.6,12.2c-17.3,0-92.7-44.1-92.7-44.1
		S109.1,548.2,120.9,540.1z"/>
	<path class="st1" d="M197.3,256.5c0,0,2.4,4.9,19.5,4.9s24.4-4.9,24.4-4.9l24.4,41.5c0,0-12.2,9.8-36.6,9.8s-41.5-14.6-41.5-14.6
		L197.3,256.5z"/>
	<g>
		<g>
			<path class="st1" d="M118.5,265c0.1,1.8-2,4.3-5.5,8.5c-3,3.5-9.6,12.5-7,19.7c1.7,4.7,7,7.4,15.6,8.1c1.1,1.2,4.5,5,10.4,8.2
				c3.2,1.7,5.5,4.5,5.1,6.1c-0.2,0.7-1.4,3.1-10.8,3.1c-1.2,0-2.5,0-3.8-0.1c-2.6-1.9-5.2-4.1-7.4-6l-0.2-0.2
				c-0.3-0.2-0.6-0.4-0.9-0.4c-0.6,0-1.1,0.4-1.4,1c-0.2,0.6-0.1,1.3,0.3,1.7c5.3,5.8,11.9,13,20.3,13c1.9,0,3.7-0.4,5.6-1.1
				c4.3-1.6,7.9-5,9.8-9.4c1.9-4.2,2.1-9,0.7-13.4c-0.4-1.4-1.1-2.7-1.7-3.9c-0.7-1.5-1.4-2.9-1.8-4.3c-0.7-3-0.2-5.6,1.4-8.2
				c1.6-2.6,3.4-5.1,5.1-7.5c2-2.9,4.1-5.8,6-8.9c0.8-1.2,1.6-2.5,2.3-3.8c4.6-5.4,9.1-11.4,13.7-18.4c1.7-2.2,3.2-4.4,4.5-6.5
				c-0.2,1.2-0.5,2.4-1,3.5c-1.1,2.4-2.5,4.5-4,6.6c-0.9,1.4-1.9,2.8-2.8,4.3c-3.4,5.8-6.4,13-2.3,22c2.1,4.6,8.2,8.3,14.7,12.2
				c9.4,5.7,19.2,11.6,17.7,20.2c-2.3,13.4-15.3,14.1-17.8,14.1c-0.2,0-0.3,0-0.3,0c0,0,0,0,0,0c-0.6,0-1.1,0.5-1.2,1.1
				c-0.1,0.6,0.3,1.3,0.8,1.4c0.1,0,2.5,0.8,5.9,0.8c5.9,0,16.1-2.4,19.1-18.4c0.6-3.5,0.9-6.6,0.8-9.3c0.7-7.4-0.5-13.9-3.5-19.5
				c-2-3.8-5.1-6.4-8-9c-0.6-0.6-1.3-1.1-1.9-1.7c-3.2-2.9-6.4-6.2-6.2-10.3c0.2-4.9,2.7-9.5,5.2-13.9c0.7-1.3,1.4-2.6,2.1-3.8
				c2.9-5.6,4.5-11.2,5-17.1c0.2-2.7,0.2-5.4-0.1-8.1c0.2-4.8-0.6-10.2-2.4-16.6c-1.2-4.3-2.5-8.4-3.7-12.4c-5-16-9.3-29.8-4.3-44.8
				c5.6-3.3,13.3-9.4,19.6-19.5c3.4-5.4,5.6-11,7.8-16.4c4.5-11,8.4-20.6,20.1-25.6c5.5,5.6,19.8,18.5,43.9,28.2
				c31.6,12.8,49,29,51.7,48.1c1,6.8,0.8,12.8,0.7,18.6c-0.3,10.6-0.5,20.7,6.4,33.2c6.5,11.8,8.1,24.7,4.4,34.6
				c-3.2,8.5-10,14.2-20.3,17.1c-27.3,7.7-40.3,19.2-39.5,35.3c0.6,13.2,18.1,19.1,30.3,19.1c2.2,0,4.1-0.2,5.6-0.6
				c9.3-2.4,17-15.1,17.3-15.7c0.3-0.5,0.2-1.3-0.2-1.7c-0.2-0.2-0.5-0.3-0.8-0.3c-0.3,0-0.6,0.1-0.8,0.3c-0.1,0.1-6.8,7-14.3,9.8
				c-2.2-0.4-8.1-1.9-9.5-6.4c-1.3-4.2,0.4-8.9,1.5-11.3c4.1-8.9,11.2-13.5,18.7-18.5c0.7-0.5,1.4-0.9,2.1-1.4
				c8.9-5.9,18.1-12.4,24.1-21.7c3.3-5.1,5.2-10.7,5.6-16.7c1.9-12.2,0.6-23.9-3.6-33.7c-1.6-3.7-3.6-7-5.6-10.2
				c-0.8-1.3-1.6-2.6-2.4-4c-2.8-4.8-5-9.2-3.2-14.2c1-2.9,2.5-5.7,4-8.4c1.1-2.1,2.3-4.4,3.3-6.7c2-4.8,4.2-10.6,4.7-16.8
				c0.4-4.3,0.1-8.7-0.9-13c-0.9-12.2-7.1-28.4-16.5-43.5c-8.6-13.8-24.4-33.7-50.7-50c-17.7-11.1-34.2-16.7-49-16.7
				c-18,0-27.7,8.3-29.9,10.4c-1.3-0.2-4.7-0.7-9.4-0.7c-10.9,0-26.8,2.7-40.7,15.5c-21,19.4-33.4,57.3-34.9,106.6
				c-0.1,2.9-0.2,5.7-0.2,8.3c-1.1,38.4-1.3,45.3-14,61.9c-9.2,12-14,19.9-13.3,27.2c0.4,4.2,2.7,7.9,7.2,11.7
				C115.3,260.4,118.3,263,118.5,265z M342.3,172.9c-0.1,1.9,0.2,3.7,0.6,5.4c-2.3-4.6-3.1-8.5-0.9-11.9c2-3.3,3.9-6,5.7-8.4
				c-0.2,0.3-0.3,0.6-0.5,0.9l-0.1,0.2C344.9,163.2,342.5,167.9,342.3,172.9z"/>
		</g>
	</g>
</g>
</svg>
