<?xml version="1.0" encoding="utf-8"?>
<!-- Generator: Adobe Illustrator 24.0.3, SVG Export Plug-In . SVG Version: 6.00 Build 0)  -->
<svg version="1.1" id="Layer_1" xmlns:serif="http://www.serif.com/"
	 xmlns="http://www.w3.org/2000/svg" xmlns:xlink="http://www.w3.org/1999/xlink" x="0px" y="0px" width="324.4px" height="498.3px"
	 viewBox="0 0 324.4 498.3" style="enable-background:new 0 0 324.4 498.3;" xml:space="preserve">
<style type="text/css">
	.st0{fill:#FFB882;}
	.st1{fill:#E3F4F9;}
	.st2{fill:#D4E4E8;}
	.st3{fill:#CEA895;}
	.st4{fill-rule:evenodd;clip-rule:evenodd;fill:#2176BC;}
	.st5{fill-rule:evenodd;clip-rule:evenodd;fill-opacity:0.11;}
	.st6{fill-rule:evenodd;clip-rule:evenodd;fill:#FFFFFF;}
	.st7{fill:#9A4F3E;}
	.st8{fill:#733022;}
	.st9{fill:#EF8F6F;}
	.st10{fill:#FFCD9C;}
	.st11{fill:#FFAE85;}
	.st12{fill:#FFC397;}
	.st13{fill:#542C23;}
	.st14{fill:#FFF5EB;}
	.st15{fill:#FFFFFF;}
	.st16{fill:#39170B;}
	.st17{fill:#231F20;}
	.st18{opacity:0.14;fill:#FFFFFF;enable-background:new    ;}
</style>
<g>
	<g>
		<g>
			<path class="st0" d="M-81.2,547.9l21.3,42.5c7-6.7,23.4-14.7,28.3-15.7l-11.1-38.5C-42.8,536.1-64.7,548.4-81.2,547.9z"/>
			<path class="st0" d="M-64.7,548.4c-3.3-0.7-12.3,0-19.3-0.7c-8.2-0.8-31.6-17-34-14.9c-3.6,3.1-3.9,9.5-2.6,11.6
				c1.5,2.1,25.7,14.7,23.9,18.2c-2.8,5.6-15.2,9.5-16.4,12.3c-2.6,6.2,18.7,23.1,24.9,26.8c6.2,3.8,26-4.9,34.4-19.3
				C-50.6,577-64.7,548.4-64.7,548.4z"/>
			<path class="st0" d="M-98.4,565.9c-7.2,4.1-16.7,10.1-19.5,10.6c-2.8,0.5-18.5,3.1-19.6,4.9c-1.1,1.8-3.3,8.7,0.5,9.3
				c3.6,0.5,20.9-2.6,24.9-4.6c3.8-2,16.5-7.2,17.3-8.5C-94.2,576.2-94.3,563.6-98.4,565.9z"/>
			<path class="st0" d="M-84.8,582.1c-6.7,4.9-15.5,12.1-18.2,13.1c-2.6,0.8-18,5.4-19,7.2s-2.3,9,1.3,9.2
				c3.6,0.2,20.6-5.2,24.2-7.5c3.6-2.5,15.7-9.3,16.2-10.6C-79.6,591.7-81.1,579.3-84.8,582.1z"/>
			<path class="st0" d="M-92,572.6c-6.7,4.9-15.5,12.1-18.2,13.1c-2.6,0.8-18,5.4-19,7.2s-2.3,9,1.3,9.2s20.6-5.2,24.2-7.5
				c3.6-2.5,15.7-9.3,16.2-10.6C-86.8,582.4-88.3,569.8-92,572.6z"/>
			<path class="st0" d="M-71.8,584.9c-6.2,5.6-14.4,13.7-17,14.7c-2.6,1.1-17.5,7.2-18.2,9.2c-0.8,2-1.5,9.3,2.1,9s20-7.2,23.4-10
				s14.7-10.8,15.2-12.3C-65.7,594.2-68.2,581.8-71.8,584.9z"/>
		</g>
		<path class="st1" d="M62.4,276.9C24.8,307.3,30.7,443.3,21.2,471c-13.9,40.7-81.7,65.5-81.7,65.5l18.5,51.2
			c0,0,77.4-34,104.4-86.6c25.5-49.4,38.1-120.4,30.3-173.8C87.3,289.3,62.4,276.9,62.4,276.9z"/>
		<path class="st2" d="M34.9,489.3c27.5-53.5,24.9-133.4,36.3-185.6c3.4,14.7,16.4,2.1,19.8,27.2C98.3,383.1,79.6,460,56.5,505
			c-27,52.4-98.5,82.6-98.5,82.6l-8.7-25C-25.6,553.9,16,526.1,34.9,489.3z"/>
	</g>
	<path class="st3" d="M3.4,423.7"/>
	<path class="st1" d="M53.3,589c0.8,12.9,48.9,11.9,80.3,11.9c40.1,0,80.7,0.8,99.3-33.4c8.8-16.4,0.3-28.5,10.8-125.7
		c11.3-106,9.3-153.3-6.4-169c-11.1-11.1-51.1-29.8-94.4-25.5c-29.6,2.8-59.1,9.8-84.6,33.4c-11,10.1-11.8,51.2-8.7,129.4
		C51,436.6,50.6,548.9,53.3,589z"/>
	<path class="st2" d="M202.2,552.3c6.1-17.7,7.9-27.5,15.7-120c5.2-61-8-129.1,2-165.3c41.2,39.4,37.1,100.3,27.3,174.8
		c-15.5,118.3-5.2,109.6-14.1,125.8c-18.7,34.2-128.6,38-174.8,26.8c-0.5-0.2,2.1,0.3,1.6,0C162.3,598,196.1,570,202.2,552.3z"/>
	<g>
		<g>
			<path class="st0" d="M183,594.5l37.8,27.7c3.6-9.7,15.1-25.2,19.1-28.6l-26.7-29.3C213.3,564.3,198.6,586.5,183,594.5z"/>
			<path class="st0" d="M198.6,586.5c-3.3,1-11.3,6.2-18,9.2c-7.7,3.4-36.2,0.7-37.5,3.8c-2,4.6,0.5,10.6,2.6,11.8
				c2.3,1.1,29.8,0.3,29.8,4.3c-0.2,6.5-9.8,16.2-9.7,19.5c0.3,6.9,27,11.5,34.2,11.6c7.4,0.2,21.8-17.5,23.1-34.9
				C223.6,605.5,198.6,586.5,198.6,586.5z"/>
			<path class="st0" d="M175.3,619.6c-4.7,7.4-11,17.7-13.3,19.5s-15.5,12.3-15.9,14.4c-0.3,2.1,0.8,9.5,4.4,8.2
				c3.6-1.3,18.2-12.9,20.8-16.7s11.9-15.1,12.1-16.5C183.5,626.8,178,615.5,175.3,619.6z"/>
			<path class="st0" d="M184.2,623.2c-3.9,7.9-9,19-11.1,20.9c-2.1,2.1-14.2,14.1-14.2,16.2c0,2.1,1.8,9.3,5.2,7.7
				c3.4-1.8,16.5-15.1,18.8-19.1c2.3-3.9,10.3-16.4,10.3-18C193,629.4,186.3,618.7,184.2,623.2z"/>
			<path class="st0" d="M196.6,625.1c-3.9,7.9-9,19-11.1,20.9c-2.1,2.1-14.2,14.1-14.2,16.2s1.8,9.3,5.2,7.7
				c3.4-1.8,16.5-15.1,18.8-19.1c2.3-3.9,10.3-16.4,10.3-18C205.5,631.3,198.7,620.7,196.6,625.1z"/>
			<path class="st0" d="M207.9,623.2c-3.3,8.2-7.4,19.6-9.2,21.9c-1.8,2.3-12.9,15.4-12.8,17.5c0.2,2.1,2.6,9.2,5.9,7
				c3.3-2.1,15.2-16.7,17.2-20.8c2-4.3,8.8-17.3,8.7-18.8C217.4,628.6,209.7,618.6,207.9,623.2z"/>
		</g>
		<path class="st1" d="M204.6,268.4c-26.8,29.8,49.1,109,36.3,208.5c-3.8,29.8-41.1,97.2-41.1,97.2l33.1,35.5
			c0,0,56.3-71.3,61.4-132.7C306.4,328,226.7,243.8,204.6,268.4z"/>
		<path class="st2" d="M274.8,474.7c15.5-87.4-19.5-174.1-56.6-204.7c34.2,6.7,101.9,81,79.9,209.3C287.3,541.5,233,609.7,233,609.7
			l-16.7-17.3C240.6,568.5,266.7,520.6,274.8,474.7z"/>
	</g>
	<g transform="matrix(1,0,0,1,-4319.62,0)">
		<path class="st4" d="M4457.5,287.7l-6.9-21.8l-6.5-2.3l-13.9,15.1l6.5,22.9L4457.5,287.7z"/>
	</g>
	<g transform="matrix(1,0,0,1,-4319.62,0)">
		<path class="st5" d="M4460.6,293.4l-10-27.5l-6.5-2.3l-18.7,20.3l2.8,4.3l18.3-19l9.2,26.3L4460.6,293.4z"/>
	</g>
	<g transform="matrix(1,0,0,1,-4319.62,0)">
		<path class="st4" d="M4446.3,294.1l4.7,175.6l-17.7,27.5l-17.7-27.5l19.6-179.2L4446.3,294.1z"/>
	</g>
	<g transform="matrix(1,0,0,1,-4319.62,0)">
		<path class="st6" d="M4500.5,238.3c6.9,2.3,14.7,7,17.3,12.9c-15.9,21.6-35.3,31.4-58.9,44.2l-11.6-30.6
			C4473.3,267.2,4495.1,246,4500.5,238.3z"/>
	</g>
	<g transform="matrix(-1,0,0,1,4701.85,0)">
		<path class="st6" d="M4586.8,242.2c6.2,4.3,15.7,7.4,19.1,11.1c-3.9,9.8-5.9,19.6-10.6,33.9l-21.4-22.1
			C4588.1,253.3,4586.5,248.3,4586.8,242.2z"/>
	</g>
	<path class="st7" d="M100.9,19.8c13.9-4.6,129.9-29.1,123.7,36.7c0,0-58.7,30.9-157.3,66.6c0,0-8.8-27-8.8-48.8
		c0-19.6,2.3-27,2.3-27C59,8.7,87,24.4,100.9,19.8z"/>
	<path class="st8" d="M119.9,38.5c64.6,24.4,85.7,16.7,88.2-17.3c9.8,5.9,17.7,15.7,16.7,35.2c0,0,29.3,39.3-8.2,67.9
		c0,0,14.6,9.7-2.5,36.3c-17,26.5-40.9,19.1-40.9,19.1s-33.7,33.5-91.3-20.8l3.6-93.3C97.1,70.7,98.9,30.6,119.9,38.5z"/>
	<path class="st9" d="M115.6,243.4v-49.1l49.1-13.3l15.9,58.6c0,0-21.6,27.5-51.2,25.5C120.9,264.5,115.6,255.3,115.6,243.4z"/>
	<path class="st10" d="M104.8,227c-6.5-6.1-20.9-15.5-29.1-37c-8.2-21.6-10.1-55.3-8-80c2-22.6,11.5-56.1,24.7-62.8
		c31.4-15.7,107,15.9,112.7,43.5C213.6,130.4,171.9,226,104.8,227z"/>
	<path class="st11" d="M205.3,90.7c-3.1-9.3-8.5-17-15.4-28.1c1.3,3.1,2.5-13.6,3.4-10.6c8.2,24.2-31.7,144.5-31.7,144.5
		s-36.2,26.5-56.9,30.3c0,0.2,0.2,0.2,0.3,0.3c23.7-0.3,63-20.1,63-20.1S213.6,115.4,205.3,90.7z"/>
	<path class="st12" d="M211.8,155.1c-14.4,16.9-33.7,21.8-33.5,6.2s24.9-49.7,31.3-38.5C215.9,134,219.9,145.8,211.8,155.1z"/>
	<path class="st9" d="M207.6,154c-10.6,12.3-24.7,15.9-24.5,4.4s18.3-36.5,22.9-28.1C210.7,138.5,213.5,147.1,207.6,154z"/>
	<path class="st12" d="M194.7,158.9c-5.1,6.1-12.1,7.9-11.9,2.3c0-5.6,8.8-17.8,11.1-13.7C196.1,151.4,197.6,155.6,194.7,158.9z"/>
	<path class="st13" d="M97.8,177.1c-1.6,0-3.3,1-4.1,2.3c-1,1.5-1.1,3.1-0.5,4.7c3.4,8.2,7.9,15.9,16.2,14.2
		c7.4-1.5,12.8-6.5,14.2-13.6c0.3-2-0.2-4.1-1.5-5.7c-1.3-1.6-3.3-2.5-5.4-2.5L97.8,177.1z"/>
	<path class="st14" d="M98.9,177.6c-1.5,0-2.8,0.7-3.6,1.6s-0.8,2.5-0.3,3.6c3.1,6.2,6.4,6.5,13.4,6.5c7.2,0,11.5-0.2,12.6-5.4
		c0.3-1.5-0.2-3.1-1.3-4.3s-2.8-2-4.6-2L98.9,177.6z"/>
	<g>
		<path class="st8" d="M69.6,109.7l-0.8-1.8c6.2-9.8,19.6-13.4,26-12.9l0.5,9C90.4,102.9,76.7,101.6,69.6,109.7z"/>
	</g>
	<g>
		<path class="st8" d="M161.3,109.5c-11.1-8.3-30.4-5.9-35.2-5.6l-0.2-9.2c5.4-0.2,23.7,2.5,36.5,13.1L161.3,109.5z"/>
	</g>
	<path class="st7" d="M182.4,132.1c-7.7-21.6-15.2-57.9,0.8-67.9s28.6,17.8,28.6,27.5C212,110.3,191.1,156.3,182.4,132.1z"/>
	<path class="st7" d="M70.3,50.7c0,0-2.8,43.2-2,41.2c9.8-23.6,61-23.6,99.2-14.4c20.5,4.9,36.7-1,38.3-15.7
		c2-16.9-48.3-29.3-71.2-31.4C111.4,28.5,70.3,50.7,70.3,50.7z"/>
	<g>
		<path class="st15" d="M97.1,140.3c-0.2-7.9-1.8-17.2-13.9-19.8c-12.3-2.6-17.3,8.5-17,12.4s3.9,9.7,10.6,10.1
			c6.7,0.3,12.6-0.5,15.1-0.3C94.3,143,97.1,141.9,97.1,140.3z"/>
		<circle class="st16" cx="82.6" cy="131.4" r="10"/>
		<path class="st15" d="M90.9,127.5c0,2.5-2,4.6-4.4,4.6c-2.5,0-4.6-2-4.6-4.4c0-2.5,2-4.6,4.4-4.6
			C88.8,122.9,90.9,124.9,90.9,127.5z"/>
		<path class="st15" d="M128.2,139.8c0-7.9,1.1-17.2,13.3-20.3c12.1-3.1,17.7,7.9,17.3,11.9c-0.3,4.1-3.6,9.8-10.3,10.5
			s-12.6-0.2-15.1,0.3C131.2,142.4,128.2,141.4,128.2,139.8z"/>
		<path class="st16" d="M133,129.9c0.2,5.6,4.6,10,10.1,9.8s10-4.6,9.8-10.1c-0.2-5.6-4.6-10-10.1-9.8
			C137.2,119.8,133,124.4,133,129.9z"/>
		<path class="st15" d="M142.1,125.9c0,2.5,2.1,4.6,4.6,4.4c2.5,0,4.6-2.1,4.4-4.6c0-2.5-2.1-4.6-4.6-4.4
			C144.1,121.3,142.1,123.4,142.1,125.9z"/>
	</g>
	<path class="st9" d="M109.7,127.3c-4.7,16.4-14.7,35.8-13.1,38.1c1.3,2,11.1,0.3,16.7-0.5c0,1,0.2,3.6,0.2,3.6s-19.8,3.6-21.6,1
		c-1.8-2.6,14.1-31.3,16-46.1C107.9,121.8,109.2,122.7,109.7,127.3z"/>
	<g>
		<path class="st17" d="M172.7,119.5c-1.1-3.4-58.4-2.3-58.4-2.3c3.9,35.3,37.5,49.9,49.1,38.8C176.7,143.2,173.9,122.9,172.7,119.5
			z M161.8,153.3c-10.1,9.7-39.4-3.1-42.9-33.9c0,0,50.1-1,51.1,2C170.9,124.5,173.4,142.2,161.8,153.3z"/>
		<path class="st17" d="M51.8,123.9c-1,3.3-3.4,22.7,9.5,34.4c11.3,10.1,44-6.1,47.3-39.8C108.6,118.5,52.8,120.6,51.8,123.9z
			 M62.8,155.1c-10.6-9.7-8.7-25.9-7.9-28.6s47.3-4.6,47.3-4.6C99.4,150.2,72.1,163.7,62.8,155.1z"/>
		<polygon class="st17" points="101.9,118.8 118.4,117 118.7,123.2 102.2,125 		"/>
		<path class="st18" d="M81.1,126.2l-17.3,25.5c0,0-6.9-7.7-7.2-13.4l11.6-11.6L81.1,126.2z"/>
		<path class="st18" d="M156.9,120.9l-20.1,28.3c0,0-10.5-7.4-10.8-13.3l17.7-15.2H157L156.9,120.9L156.9,120.9z"/>
		<polygon class="st17" points="171.4,119 200.4,113.1 193.3,123.6 173.4,133.9 		"/>
	</g>
</g>
</svg>
