<?xml version="1.0" encoding="utf-8"?>
<!-- Generator: Adobe Illustrator 24.0.3, SVG Export Plug-In . SVG Version: 6.00 Build 0)  -->
<svg version="1.1" id="Layer_1" xmlns:serif="http://www.serif.com/"
	 xmlns="http://www.w3.org/2000/svg" xmlns:xlink="http://www.w3.org/1999/xlink" x="0px" y="0px" width="228.2px" height="191.2px"
	 viewBox="0 0 228.2 191.2" style="enable-background:new 0 0 228.2 191.2;" xml:space="preserve">
<style type="text/css">
	.st0{fill:#FFDF4F;}
	.st1{fill:#FFFFFF;}
	.st2{fill:#FFCC01;}
	.st3{fill:#FCBD11;}
	.st4{fill:#FFD715;}
</style>
<g>
	<path id="XMLID_3_" class="st0" d="M113.5,19.7v-2.9c0-4.7-3.8-8.5-8.5-8.5H16.5c-4.7,0-8.5,3.8-8.5,8.5v153.1H219V28.1
		c0-4.7-3.8-8.5-8.5-8.5H113.5z"/>
	<rect id="XMLID_2_" x="17.3" y="31.9" class="st1" width="194.3" height="139.6"/>
	<path id="XMLID_1_" class="st2" d="M110.5,49.3l-3.1,8.7H16.5C11.8,58,8,61.8,8,66.5v108.1c0,4.7,3.8,8.5,8.5,8.5h194.1
		c4.7,0,8.5-3.8,8.5-8.5V52.2c0-4.7-3.8-8.5-8.5-8.5h-92.1C114.9,43.7,111.7,46,110.5,49.3z"/>
	<path class="st3" d="M219,174.6v-70.5c-58.6,57-160.3,72.3-208.7,76.4c1.5,1.6,3.7,2.6,6.1,2.6h194.1
		C215.2,183.1,219,179.3,219,174.6z"/>
	<g>
		<path class="st4" d="M93.7,64.9H21.9c-3.8,0-6.9,3.1-6.9,6.9v15.2C27.1,78.6,54.4,68.2,93.7,64.9z"/>
	</g>
</g>
</svg>
