<?xml version="1.0" encoding="utf-8"?>
<!-- Generator: Adobe Illustrator 24.0.3, SVG Export Plug-In . SVG Version: 6.00 Build 0)  -->
<svg version="1.1" id="Layer_1" xmlns="http://www.w3.org/2000/svg" xmlns:xlink="http://www.w3.org/1999/xlink" x="0px" y="0px"
	 width="550.2px" height="768px" viewBox="0 0 550.2 768" style="enable-background:new 0 0 550.2 768;" xml:space="preserve">
<style type="text/css">
	.st0{fill:#FFFFFF;}
	.st1{fill-rule:evenodd;clip-rule:evenodd;fill:#F6F6F6;}
	.st2{fill-rule:evenodd;clip-rule:evenodd;fill:#4A250A;}
	.st3{fill-rule:evenodd;clip-rule:evenodd;fill:#B2D8DE;}
	.st4{fill-rule:evenodd;clip-rule:evenodd;fill:#E0AC7E;}
	.st5{fill-rule:evenodd;clip-rule:evenodd;fill:#EBB688;}
	.st6{fill-rule:evenodd;clip-rule:evenodd;fill:#FF3705;}
	.st7{fill-rule:evenodd;clip-rule:evenodd;fill:#FF5527;}
	.st8{fill-rule:evenodd;clip-rule:evenodd;fill:#F0FAFC;}
	.st9{fill-rule:evenodd;clip-rule:evenodd;fill:#096385;}
	.st10{fill-rule:evenodd;clip-rule:evenodd;fill:#08426A;}
	.st11{fill-rule:evenodd;clip-rule:evenodd;fill:#0174A3;}
	.st12{fill-rule:evenodd;clip-rule:evenodd;fill:#0B5975;}
	.st13{fill-rule:evenodd;clip-rule:evenodd;fill:#0A6D94;}
	.st14{fill-rule:evenodd;clip-rule:evenodd;fill:#A6CF32;}
	.st15{fill-rule:evenodd;clip-rule:evenodd;fill:#2176BC;}
	.st16{fill-rule:evenodd;clip-rule:evenodd;fill:#F8963E;}
</style>
<title>Artboard 23</title>
<rect x="-22.5" y="-24.6" class="st0" width="598" height="810.1"/>
<g>
	<circle class="st1" cx="198.9" cy="385.4" r="110"/>
	<circle class="st1" cx="411.6" cy="506.4" r="69.7"/>
	<circle class="st1" cx="410.4" cy="264.4" r="69.7"/>
	<g>
		<g>
			<path class="st2" d="M229.7,315.6c-0.2-0.6-0.5-1.1-0.9-1.7c-0.1-0.2-0.2-0.4-0.4-0.6c-0.2-0.4-0.5-0.7-0.7-1.1
				c-0.1-0.2-0.2-0.4-0.5-0.6c-0.2-0.4-0.5-0.6-0.7-1c-0.1-0.2-0.4-0.4-0.5-0.6c-0.2-0.4-0.6-0.6-0.9-1c-0.1-0.1-0.4-0.4-0.5-0.5
				c-0.4-0.4-0.9-0.9-1.3-1.2c-0.1-0.1-0.1-0.1-0.2-0.2c-0.5-0.5-1.1-0.9-1.7-1.3c-0.2-0.1-0.4-0.4-0.6-0.5
				c-0.4-0.2-0.7-0.6-1.2-0.9c-0.2-0.1-0.5-0.4-0.7-0.5c-0.4-0.2-0.7-0.5-1.2-0.7c-0.2-0.1-0.5-0.4-0.9-0.5
				c-0.4-0.2-0.9-0.5-1.2-0.7c-0.2-0.1-0.5-0.2-0.7-0.4c-0.5-0.2-1.1-0.6-1.6-0.9c-0.1-0.1-0.4-0.1-0.5-0.2c-0.7-0.4-1.5-0.6-2.2-1
				c-0.2-0.1-0.5-0.1-0.7-0.2c-0.5-0.2-1.1-0.5-1.6-0.6c-0.2-0.1-0.5-0.2-0.9-0.4c-0.5-0.2-1.1-0.4-1.6-0.6
				c-0.2-0.1-0.5-0.2-0.9-0.2c-0.6-0.2-1.1-0.4-1.7-0.6c-0.2-0.1-0.5-0.1-0.6-0.2c-0.7-0.2-1.6-0.5-2.3-0.7l0,0
				c-10.3-2.8-20.9-3.5-28.1-2.2c-10.3,17.2-6,38.5-4.2,58.2l59.8,1.5C228.5,340.8,232.8,327.5,229.7,315.6z"/>
			<path class="st3" d="M196.9,472.9c9,0.1,18-0.2,26.8-1.2v-80.8l-3.1-1.3c-6.6-2.9-14.8-6.2-23.8-7.5v90.8H196.9z"/>
			<path class="st3" d="M196.9,472.9c-9,0.1-18-0.2-26.8-1.2v-80.8l3.1-1.3c6.6-2.9,14.8-6.2,23.8-7.5v90.8H196.9z"/>
			<path class="st4" d="M177.9,366.2h38.3v23.1c-12.7,10.1-25.5,10.5-38.3,0V366.2z"/>
			<path class="st5" d="M227,344c-0.2,0-0.4,0-0.5,0l0,0c-0.1,0-0.2,0,0,0c-0.2-5.1-0.9-10.3-1.7-15.2c-1-5.4-6.1-11-11.6-9.9
				c-5.7,1.1-10.9,1.7-16,1.6c-5.1,0-10.3-0.5-16-1.6c-5.4-1.1-10.6,4.5-11.6,9.9c-0.9,5-1.5,10-1.7,15.2c0.2,0,0,0,0,0l0,0
				c-0.1,0-0.2,0-0.5,0c-1.1,0-4.6,0.9-4.5,5.5c0.1,3.5,3.2,13.8,7.2,12.2c5.9,15.8,13.8,24.6,26.8,27.7
				c13.2-3.1,21.3-11.9,27.3-27.7c4,1.7,7.1-8.7,7.2-12.2C231.7,344.8,228.1,344,227,344z"/>
			<polygon class="st6" points="196.9,397.1 203.5,397.1 200.7,407.5 196.9,407.5 196.9,407.5 193.2,407.5 190.5,397.1 			"/>
			<polygon class="st7" points="200.7,407.2 203.4,446.4 196.9,458.3 190.5,446.4 193.2,407.2 			"/>
			<path class="st8" d="M196.9,397.1L185.7,408l-12.6-18.3l4.6-2.6C182.5,392,189,395.2,196.9,397.1z"/>
			<path class="st9" d="M196.9,457.2l-27.5-65.9c-24.9,10.8-40.8,19.1-43.6,50.6c11.4,20.2,38.4,36.7,71.3,36.7v-21.4H196.9z"/>
			<path class="st10" d="M148.2,464.7c1,0.7,2.1,1.2,3.2,2l-0.1-13.1L148.2,464.7z"/>
			<polygon class="st11" points="196.9,457.2 196.9,473.8 171,427.3 178.7,418 167,414.1 161.7,394.7 174.5,389.1 			"/>
			<path class="st8" d="M196.9,397.1l11.2,10.9l12.6-18.3l-4.6-2.6C211.4,392,204.9,395.2,196.9,397.1z"/>
			<path class="st12" d="M196.9,457.2l27.5-65.9c24.9,10.8,40.8,19.1,43.6,50.6c-11.4,20.2-38.3,36.7-71.3,36.7v-21.4H196.9z"/>
			<path class="st10" d="M245.7,464.7c-1,0.7-2.1,1.2-3.2,2l0.1-13.1L245.7,464.7z"/>
			<polygon class="st13" points="196.9,457.2 196.9,473.8 222.9,427.3 215.2,418 226.9,414.1 232.3,394.7 219.8,389.1 			"/>
		</g>
		<path class="st14" d="M224,533.6c8.1-1.5,15.9-3.5,23.3-6.2c-5.9-12.6-1.2-27.9,11-35c12.2-7.1,27.7-3.5,35.7,7.8
			c6.1-5.3,11.9-11,17.1-17.1c-11.4-7.9-14.9-23.5-7.8-35.7c7.1-12.2,22.4-16.9,35-11c2.7-7.6,4.8-15.4,6.2-23.3
			c-13.8-1.2-24.7-12.8-24.7-27s10.9-25.8,24.7-27c-1.5-8.1-3.5-15.9-6.2-23.3c-12.6,5.9-27.9,1.2-35-11s-3.5-27.7,7.8-35.7
			c-5.3-6.1-11-11.9-17.1-17.1c-7.9,11.4-23.5,14.9-35.7,7.8c-12.2-7.1-16.9-22.2-11-35c-7.6-2.7-15.4-4.8-23.3-6.2
			c-1.2,13.8-12.8,24.7-27,24.7s-25.8-10.9-27-24.7c-8.1,1.5-15.9,3.5-23.3,6.2c5.9,12.6,1.2,27.9-11,35
			c-12.2,7.1-27.7,3.5-35.7-7.8c-6.1,5.3-11.9,11-17.1,17.1c11.4,7.9,14.9,23.5,7.8,35.7c-7.1,12.2-22.2,16.9-35,11
			c-2.7,7.6-4.8,15.4-6.2,23.3c13.8,1.2,24.7,12.8,24.7,27s-10.9,25.8-24.7,27c1.5,8.1,3.5,15.9,6.2,23.3c12.6-5.9,27.9-1.2,35,11
			s3.5,27.7-7.8,35.7c5.3,6.1,11,11.9,17.1,17.1c7.9-11.4,23.5-14.9,35.7-7.8c12.2,7.1,16.9,22.4,11,35c7.6,2.7,15.4,4.8,23.3,6.2
			c1.2-13.8,12.8-24.7,27-24.7C211.1,508.7,222.7,519.6,224,533.6L224,533.6z M196.9,279.7c58.6,0,106.1,47.5,106.1,106.1
			s-47.5,106.1-106.1,106.1S90.8,444.3,90.8,385.8C90.8,327.2,138.4,279.7,196.9,279.7z"/>
		<g>
			<g>
				<path class="st2" d="M428.9,461.7c-0.1-0.4-0.4-0.7-0.5-1.1c-0.1-0.1-0.1-0.2-0.2-0.4c-0.1-0.2-0.2-0.5-0.4-0.6
					c-0.1-0.1-0.1-0.2-0.2-0.4c-0.1-0.2-0.4-0.4-0.5-0.6c-0.1-0.1-0.2-0.2-0.4-0.4c-0.1-0.2-0.4-0.4-0.6-0.6
					c-0.1-0.1-0.2-0.2-0.4-0.4c-0.2-0.2-0.5-0.5-0.9-0.7l-0.1-0.1c-0.4-0.2-0.7-0.6-1.1-0.9c-0.1-0.1-0.2-0.1-0.4-0.2
					c-0.2-0.2-0.5-0.4-0.9-0.6c-0.1-0.1-0.2-0.1-0.4-0.2c-0.2-0.1-0.5-0.4-0.9-0.5c-0.1-0.1-0.2-0.1-0.4-0.2c-0.4-0.1-0.6-0.4-1-0.5
					c-0.1,0-0.2-0.1-0.4-0.1c-0.9-0.5-1.8-0.9-2.8-1.3h-0.1c-0.5-0.2-0.9-0.4-1.3-0.5c-0.1,0-0.2-0.1-0.2-0.1
					c-0.4-0.1-0.7-0.2-1.2-0.4c-0.1,0-0.2-0.1-0.4-0.1c-0.4-0.1-0.9-0.2-1.2-0.4c-0.1,0-0.2,0-0.2-0.1c-1-0.4-2.1-0.6-3.1-0.9l0,0
					l0,0c-5.7-1.3-11.6-1.7-15.6-1c-6.2,10.6-3.7,23.6-2.6,35.7l18.2,0.5l0,0l18.5,0.5C428.2,477.1,430.9,469,428.9,461.7z"/>
				<path class="st3" d="M408.9,558c5.5,0.1,11-0.1,16.4-0.7v-49.5l-1.8-0.9c-4-1.8-9-3.8-14.5-4.5V558z"/>
				<path class="st3" d="M408.9,558c-5.5,0.1-11-0.1-16.4-0.7v-49.5l1.8-0.9c4-1.8,9-3.8,14.5-4.5V558z"/>
				<path class="st4" d="M397.2,492.7h23.5v14.2c-7.8,6.2-15.6,6.5-23.5,0V492.7z"/>
				<path class="st5" d="M427.4,479c-0.1,0-0.2,0-0.2,0l0,0c0,0-0.1,0,0,0c-0.1-3.2-0.5-6.2-1.1-9.3c-0.6-3.3-3.8-6.7-7.1-6.1
					c-3.5,0.7-6.7,1-9.8,1c-3.2,0-6.4-0.4-9.8-1c-3.3-0.6-6.5,2.7-7.1,6.1c-0.5,3.1-1,6.1-1.1,9.3c0.1,0,0,0,0,0l0,0
					c0,0-0.1,0-0.2,0c-0.6,0-2.8,0.5-2.7,3.4c0.1,2.2,2,8.4,4.4,7.5c3.5,9.7,8.4,15,16.4,17c8.1-1.8,13.1-7.2,16.7-17
					c2.4,1,4.4-5.3,4.4-7.5C430.2,479.5,428,479,427.4,479z"/>
				<polygon class="st6" points="408.9,511.6 412.9,511.6 411.2,517.9 408.9,517.9 408.9,517.9 406.6,517.9 404.9,511.6 				"/>
				<polygon class="st7" points="411.2,517.8 412.8,541.9 408.9,549.1 405,541.9 406.6,517.8 				"/>
				<path class="st8" d="M408.9,511.6l-6.8,6.7l-7.7-11.2l2.8-1.6C400.1,508.5,404,510.5,408.9,511.6z"/>
				<path class="st9" d="M408.9,548.3L392,508c-15.3,6.6-25.1,11.6-26.8,30.9c7,12.3,23.5,22.5,43.6,22.5L408.9,548.3L408.9,548.3z"
					/>
				<path class="st10" d="M379.1,553.1c0.6,0.5,1.3,0.7,2,1.2v-7.9L379.1,553.1z"/>
				<polygon class="st11" points="408.9,548.3 408.9,558.6 393,530.1 397.8,524.4 390.6,522.1 387.3,510.1 395.2,506.7 				"/>
				<path class="st8" d="M408.9,511.6l6.8,6.7l7.7-11.2l-2.8-1.6C417.7,508.5,413.8,510.5,408.9,511.6z"/>
				<path class="st12" d="M408.9,548.3l16.9-40.3c15.3,6.6,25.1,11.6,26.8,30.9c-7,12.3-23.5,22.5-43.6,22.5L408.9,548.3
					L408.9,548.3z"/>
				<path class="st10" d="M438.7,553.1c-0.6,0.5-1.3,0.7-2,1.2v-7.9L438.7,553.1z"/>
				<polygon class="st13" points="408.9,548.3 408.9,558.6 424.8,530.1 420,524.4 427.2,522.1 430.5,510.1 423,506.8 				"/>
			</g>
			<path class="st15" d="M404.9,596.5c5,0.2,9.9,0,14.8-0.6c-1.8-8.3,3.1-16.7,11.4-19.3s17,1.7,20.3,9.5c4.4-2.3,8.6-4.9,12.6-7.9
				c-5.7-6.4-5.7-16,0.1-22.4c5.9-6.4,15.6-7.1,22.4-1.8c2.7-4.2,5-8.6,7-13.1c-8.1-2.6-13-11-11.1-19.6c2-8.4,10-13.9,18.5-12.7
				c0.2-5,0-9.9-0.6-14.8c-8.3,1.8-16.7-3.1-19.3-11.4c-2.6-8.3,1.7-17,9.5-20.3c-2.3-4.4-4.9-8.6-7.8-12.6
				c-6.4,5.7-16,5.7-22.4-0.1c-6.4-5.9-7.1-15.6-1.8-22.4c-4.2-2.7-8.6-5-13.1-7c-2.6,8.1-11,13-19.6,11c-8.4-2-13.9-10-12.7-18.5
				c-5-0.2-9.9,0-14.8,0.5c1.8,8.3-3.1,16.7-11.4,19.3c-8.3,2.6-17-1.7-20.3-9.5c-4.4,2.3-8.6,4.9-12.6,7.8c5.7,6.4,5.7,16-0.2,22.4
				c-5.9,6.4-15.6,7.1-22.4,1.8c-2.7,4.2-5,8.6-7,13.1c8.1,2.6,13,11,11.1,19.6c-2,8.4-10,13.9-18.5,12.7c-0.2,5,0,9.9,0.5,14.8
				c8.3-1.8,16.7,3.1,19.3,11.4c2.6,8.3-1.7,17-9.5,20.3c2.3,4.4,4.9,8.6,7.8,12.6c6.4-5.7,16-5.7,22.4,0.1
				c6.4,5.9,7.1,15.6,1.8,22.4c4.2,2.7,8.6,5,13.1,7c2.6-8.1,11-13,19.6-11.1C400.6,580,406.1,588.1,404.9,596.5L404.9,596.5z
				 M423.3,441.4c35,7.9,56.8,42.8,48.9,77.9c-7.9,35-42.8,56.8-77.9,48.9c-35-7.9-56.8-42.9-48.9-77.9
				C353.5,455.2,388.4,433.3,423.3,441.4z"/>
		</g>
		<g>
			<g>
				<path class="st2" d="M428.9,220.4c-0.1-0.4-0.4-0.7-0.5-1.1c-0.1-0.1-0.1-0.2-0.2-0.4c-0.1-0.2-0.2-0.5-0.4-0.6
					c-0.1-0.1-0.2-0.2-0.2-0.4c-0.1-0.2-0.2-0.4-0.5-0.6c-0.1-0.1-0.2-0.2-0.4-0.4c-0.1-0.2-0.4-0.4-0.6-0.6
					c-0.1-0.1-0.2-0.2-0.4-0.4c-0.2-0.2-0.5-0.5-0.9-0.7l-0.1-0.1c-0.4-0.2-0.7-0.6-1-0.9c-0.1-0.1-0.2-0.1-0.4-0.2
					c-0.2-0.2-0.5-0.4-0.7-0.5c-0.1-0.1-0.2-0.2-0.5-0.2c-0.2-0.1-0.5-0.4-0.7-0.5c-0.1-0.1-0.2-0.1-0.5-0.2
					c-0.2-0.1-0.6-0.4-0.9-0.5c-0.1-0.1-0.2-0.1-0.4-0.2c-0.4-0.2-0.7-0.4-1.2-0.6h-0.1c-0.5-0.2-1-0.4-1.5-0.6
					c-0.1,0-0.1-0.1-0.2-0.1c-0.4-0.1-0.7-0.4-1.2-0.5c-0.1,0-0.2-0.1-0.4-0.1c-0.4-0.1-0.7-0.2-1.1-0.4c-0.1,0-0.2-0.1-0.5-0.1
					c-0.4-0.1-0.7-0.2-1.1-0.4c-0.1,0-0.2-0.1-0.4-0.1c-0.5-0.1-0.9-0.2-1.3-0.4h-0.1c-0.5-0.1-1-0.2-1.6-0.4l0,0l0,0
					c-5.7-1.3-11.6-1.7-15.6-1c-6.2,10.5-3.7,23.6-2.6,35.7l36.5,0.9C428.2,235.8,430.9,227.6,428.9,220.4z"/>
				<path class="st3" d="M408.9,316.7c5.5,0.1,11-0.1,16.4-0.7v-49.5l-1.8-0.9c-4-1.8-9-3.8-14.5-4.5V316.7z"/>
				<path class="st3" d="M408.9,316.7c-5.5,0.1-11-0.1-16.4-0.7v-49.5l1.8-0.9c4-1.8,9-3.8,14.5-4.5V316.7z"/>
				<path class="st4" d="M397.2,251.4h23.5v14.1c-7.8,6.2-15.6,6.5-23.5,0V251.4z"/>
				<path class="st5" d="M427.4,237.7c-0.1,0-0.2,0-0.2,0l0,0c0,0-0.1,0,0,0c-0.1-3.2-0.5-6.2-1.1-9.3c-0.6-3.3-3.8-6.7-7.1-6.1
					c-3.5,0.7-6.7,1-9.8,1c-3.2,0-6.4-0.4-9.8-1c-3.3-0.6-6.5,2.7-7.1,6.1c-0.5,3.1-1,6.2-1.1,9.3c0.1,0,0,0,0,0l0,0
					c0,0-0.1,0-0.2,0c-0.6,0-2.8,0.5-2.7,3.4c0.1,2.2,2,8.4,4.4,7.5c3.5,9.7,8.4,15,16.4,17c8.1-1.8,13.1-7.2,16.7-17
					c2.4,1,4.4-5.3,4.4-7.5C430.2,238.2,428,237.7,427.4,237.7z"/>
				<polygon class="st6" points="408.9,270.3 412.9,270.3 411.2,276.6 408.9,276.6 408.9,276.6 406.6,276.6 404.9,270.3 				"/>
				<polygon class="st7" points="411.2,276.4 412.8,300.5 408.9,307.7 405,300.5 406.6,276.4 				"/>
				<path class="st8" d="M408.9,270.3l-6.8,6.7l-7.7-11.2l2.8-1.6C400.1,267.2,404,269,408.9,270.3z"/>
				<path class="st9" d="M408.9,307.1L392,266.7c-15.3,6.6-25.1,11.6-26.8,30.9c7,12.3,23.5,22.5,43.6,22.5L408.9,307.1L408.9,307.1
					z"/>
				<path class="st10" d="M379.1,311.7c0.6,0.4,1.3,0.7,2,1.2V305L379.1,311.7z"/>
				<polygon class="st11" points="408.9,307.1 408.9,317.2 393,288.8 397.8,283.1 390.6,280.7 387.3,268.8 395.2,265.4 				"/>
				<path class="st8" d="M408.9,270.3l6.8,6.7l7.7-11.2l-2.8-1.6C417.7,267.2,413.8,269,408.9,270.3z"/>
				<path class="st12" d="M408.9,307.1l16.9-40.3c15.3,6.6,25.1,11.6,26.8,30.9c-7,12.3-23.5,22.5-43.6,22.5L408.9,307.1
					L408.9,307.1z"/>
				<path class="st10" d="M438.7,311.7c-0.6,0.4-1.3,0.7-2,1.2V305L438.7,311.7z"/>
				<polygon class="st13" points="408.9,307.1 408.9,317.2 424.8,288.8 420,283.1 427.2,280.7 430.5,268.8 423,265.4 				"/>
			</g>
			<path class="st16" d="M404.9,355.2c5,0.2,9.9,0,14.8-0.6c-1.8-8.3,3.1-16.7,11.4-19.3c8.3-2.6,17,1.7,20.3,9.5
				c4.4-2.3,8.6-4.9,12.6-7.8c-5.7-6.4-5.7-16,0.1-22.4c5.9-6.4,15.6-7.1,22.4-1.8c2.7-4.2,5-8.6,7-13.1c-8.1-2.6-13-11-11.1-19.6
				c2-8.4,10-13.9,18.5-12.7c0.2-5,0-9.9-0.6-14.8c-8.3,1.8-16.7-3.1-19.3-11.4c-2.6-8.3,1.7-17,9.5-20.3c-2.3-4.4-4.9-8.6-7.8-12.6
				c-6.4,5.7-16,5.7-22.4-0.2c-6.4-5.9-7.1-15.6-1.8-22.4c-4.2-2.7-8.6-5-13.1-7c-2.6,8.1-11,13-19.6,11.1c-8.4-2-13.9-10-12.7-18.5
				c-5-0.2-9.9,0-14.8,0.5c1.8,8.3-3.1,16.7-11.4,19.3c-8.3,2.6-17-1.7-20.3-9.5c-4.4,2.3-8.6,4.9-12.6,7.8c5.7,6.4,5.7,16-0.2,22.4
				c-5.9,6.4-15.6,7.1-22.4,1.8c-2.7,4.2-5,8.6-7,13.1c8.1,2.6,13,11,11.1,19.6c-2,8.4-10,13.9-18.5,12.7c-0.2,5,0,9.9,0.5,14.8
				c8.3-1.8,16.7,3.1,19.3,11.4c2.6,8.3-1.7,17-9.5,20.3c2.3,4.4,4.9,8.6,7.8,12.6c6.4-5.7,16-5.7,22.4,0.1
				c6.4,5.9,7.1,15.6,1.8,22.4c4.2,2.7,8.6,5,13.1,7c2.6-8.1,11-13,19.6-11.1C400.6,338.7,406.1,346.8,404.9,355.2L404.9,355.2z
				 M423.3,200c35,7.9,56.8,42.8,48.9,77.9c-7.9,35-42.8,56.8-77.9,48.9c-35-7.9-56.8-42.8-48.9-77.9
				C353.5,213.9,388.4,192,423.3,200z"/>
		</g>
	</g>
</g>
</svg>
