<?xml version="1.0" encoding="utf-8"?>
<!-- Generator: Adobe Illustrator 24.0.3, SVG Export Plug-In . SVG Version: 6.00 Build 0)  -->
<svg version="1.1" id="Layer_1" xmlns="http://www.w3.org/2000/svg" xmlns:xlink="http://www.w3.org/1999/xlink" x="0px" y="0px"
	 width="550.2px" height="768px" viewBox="0 0 550.2 768" style="enable-background:new 0 0 550.2 768;" xml:space="preserve">
<style type="text/css">
	.st0{fill:#FFFFFF;}
	.st1{fill:#F1F2F2;}
	.st2{fill:none;stroke:#A3A5A8;stroke-width:2.8795;stroke-miterlimit:10;}
	.st3{fill:#A3A5A8;}
	.st4{fill:#FBAC31;}
	.st5{fill:#2BA6E0;}
	.st6{fill:#24293D;}
	.st7{fill:#D7DAFF;}
	.st8{fill:#2576A5;}
	.st9{fill:#CCEDFD;}
	.st10{fill:#67439A;}
	.st11{fill:#D23C69;}
	.st12{fill:#F13C7E;}
	.st13{fill:none;stroke:#679AF8;stroke-width:1.0586;stroke-miterlimit:10;}
	.st14{fill:none;stroke:#679AF8;stroke-width:1.0586;stroke-miterlimit:10;stroke-dasharray:4.5879,4.5879;}
	.st15{fill:none;stroke:#679AF8;stroke-width:1.0586;stroke-miterlimit:10;stroke-dasharray:4.603,4.603;}
	.st16{fill:none;stroke:#34DBBE;stroke-width:1.2068;stroke-miterlimit:10;}
	.st17{fill:none;stroke:#34DBBE;stroke-width:1.2068;stroke-miterlimit:10;stroke-dasharray:4.962,4.962;}
	.st18{fill:none;stroke:#34DBBE;stroke-width:1.2068;stroke-miterlimit:10;stroke-dasharray:4.8469,4.8469;}
	.st19{fill:none;stroke:#FEC200;stroke-width:1.4397;stroke-miterlimit:10;}
	.st20{fill:none;stroke:#FEC200;stroke-width:1.4397;stroke-miterlimit:10;stroke-dasharray:5.7807,5.7807;}
	.st21{fill:none;stroke:#FEC200;stroke-width:1.4397;stroke-miterlimit:10;stroke-dasharray:6.1117,6.1117;}
</style>
<title>Artboard 23</title>
<rect x="-22.5" y="-24.6" class="st0" width="598" height="810.1"/>
<g>
	<g>
		<g>
			<polygon class="st1" points="501.9,415.3 351.7,415.3 351.7,242.3 485.7,242.3 493.2,250 501.9,257.8 			"/>
			<g>
				<line class="st2" x1="363.1" y1="275.5" x2="489.6" y2="275.5"/>
				<line class="st2" x1="363.1" y1="288.6" x2="489.6" y2="288.6"/>
				<line class="st2" x1="363.1" y1="301.9" x2="489.6" y2="301.9"/>
			</g>
			<rect x="364.5" y="250" class="st3" width="22.6" height="15.5"/>
			<g>
				<line class="st2" x1="363.1" y1="337.1" x2="489.6" y2="337.1"/>
				<line class="st2" x1="363.1" y1="350.4" x2="489.6" y2="350.4"/>
				<line class="st2" x1="363.1" y1="363.6" x2="489.6" y2="363.6"/>
			</g>
			<rect x="364.5" y="311.7" class="st3" width="22.6" height="15.5"/>
		</g>
		<polygon class="st4" points="485.7,242.3 485.7,257.8 501.9,257.8 493.2,250 		"/>
	</g>
	<g>
		<g>
			<g>
				<g>
					<path class="st5" d="M238.3,216.1c9.6-13.5,28.5-16.6,41.9-6.9c13.5,9.6,16.6,28.5,6.9,41.9c-9.6,13.5-28.5,16.6-41.9,6.9
						C231.8,248.3,228.6,229.4,238.3,216.1z M284.5,249c8.5-11.9,5.8-28.7-6.2-37.1c-11.9-8.5-28.7-5.8-37.1,6.2
						c-8.5,11.9-5.8,28.7,6.2,37.1C259.1,263.7,275.8,261,284.5,249z"/>
				</g>
				<g>
					<g>
						<path class="st5" d="M291.8,233.6l12.7,19.3l-9.9,14l-22.3-5.8l4.6-4c5.5-4.9,9.9-11.1,12.8-17.9L291.8,233.6z M286.9,250.8
							c-2.2,3.2-4.8,5.9-7.6,8.5l13.8,3.6l7.2-10.1l-7.8-11.9C291.1,244.4,289.2,247.7,286.9,250.8z"/>
					</g>
					<g>
						<path class="st5" d="M221,214.2l9.9-14l22.3,5.8l-6,5.3c-4.6,4-8.2,9.2-10.7,14.8l-3,7.3L221,214.2z M232.4,204.1l-7.2,10.1
							l7.8,11.9l0.6-1.4c2.6-6.2,6.5-11.7,11.5-16.1l1.2-1L232.4,204.1z"/>
					</g>
				</g>
				<g>
					<g>
						<path class="st5" d="M277.4,208.3l23-1.3l7.1,15.5l-16.1,16.4l-1.6-7.8c-1.2-6-3.7-11.7-7.5-16.6L277.4,208.3z M298.3,210.6
							l-14.3,0.9l0.9,1.2c4,5.3,6.9,11.5,8.2,18l0.3,1.4l9.9-10.2L298.3,210.6z"/>
					</g>
					<g>
						<path class="st5" d="M218,244.4l16.1-16.4l1.6,7.8c1.2,6,3.7,11.7,7.5,16.6l4.9,6.3l-23,1.3L218,244.4z M232.1,234.9
							l-9.9,10.2l5.2,11.4l14.3-0.9l-0.9-1.2c-4-5.3-6.9-11.5-8.2-18L232.1,234.9z"/>
					</g>
				</g>
				<g>
					<g>
						<path class="st5" d="M258.7,187.7l17,1.7l6.2,22.2l-7.5-2.6c-5.8-2-12.1-2.6-18.1-1.7l-7.9,1L258.7,187.7z M273.1,192.4
							l-12.4-1.2l-6.5,12.7l1.4-0.1c6.6-0.9,13.4-0.1,19.7,1.9l1.4,0.4L273.1,192.4z"/>
					</g>
					<g>
						<path class="st5" d="M243.6,255.5l7.5,2.6c5.8,2,12.1,2.6,18.1,1.7l7.9-1l-10.4,20.6l-17-1.7L243.6,255.5z M271.2,263
							l-1.4,0.1c-6.6,0.9-13.4,0.1-19.7-1.9l-1.4-0.4l3.7,13.7l12.4,1.2L271.2,263z"/>
					</g>
				</g>
			</g>
			<g>
				<path class="st5" d="M250.9,225c4.8-6.6,13.8-8.1,20.4-3.3c6.6,4.8,8.1,13.8,3.3,20.4s-13.8,8.1-20.4,3.3
					C247.8,240.7,246.2,231.6,250.9,225z M271.8,240c3.6-5,2.4-11.9-2.6-15.5c-5-3.6-11.9-2.4-15.5,2.6c-3.6,5-2.4,11.9,2.6,15.5
					C261.3,246.1,268.2,245,271.8,240z"/>
			</g>
		</g>
		<g>
			<g>
				<g>
					<path class="st5" d="M267.8,299.4c3.3-11.7,15.4-18.6,27.1-15.3c11.7,3.3,18.6,15.4,15.3,27.1c-3.3,11.7-15.4,18.6-27.1,15.3
						C271.4,323.2,264.5,311.1,267.8,299.4z M307.7,310.5c2.9-10.4-3.2-21-13.5-23.9c-10.4-2.9-21,3.2-23.9,13.5
						c-2.9,10.4,3.2,21,13.5,23.9C294,326.9,304.8,320.9,307.7,310.5z"/>
				</g>
				<g>
					<g>
						<path class="st5" d="M308.9,298l13.5,10.1l-3.3,12.1l-16.8,1.6l2.2-3.9c2.6-4.8,4-10.1,4.3-15.4L308.9,298z M309.8,311.1
							c-0.7,2.7-1.7,5.3-3,7.8l10.4-1l2.4-8.8l-8.4-6.2C311.1,305.6,310.5,308.3,309.8,311.1z"/>
					</g>
					<g>
						<path class="st5" d="M255.4,302.4l3.3-12.1l16.8-1.6l-2.7,5.2c-2.2,3.9-3.3,8.4-3.6,12.8l-0.3,5.8L255.4,302.4z M260.7,292.6
							l-2.4,8.8l8.4,6.2v-1.2c0.1-4.9,1.6-9.6,3.9-14l0.6-1L260.7,292.6z"/>
					</g>
				</g>
				<g>
					<g>
						<path class="st5" d="M292.7,284.3l15.5-6.6l8.8,8.9l-6.9,15.4l-3-5c-2.3-3.7-5.6-7.1-9.4-9.5L292.7,284.3z M307.5,280.6
							l-9.5,4.2l0.9,0.6c4,2.6,7.6,6.2,10.1,10.4l0.6,0.9l4.3-9.5L307.5,280.6z"/>
					</g>
					<g>
						<path class="st5" d="M261,323.9l6.9-15.4l3,5c2.3,3.7,5.6,7.1,9.4,9.5l4.9,3.2l-15.5,6.6L261,323.9z M268.2,314l-4.3,9.5
							l6.3,6.5l9.5-4.2l-0.9-0.6c-4-2.6-7.6-6.2-10.1-10.4L268.2,314z"/>
					</g>
				</g>
				<g>
					<g>
						<path class="st5" d="M274.5,274.8l12.1-3.2l9.8,13.7l-5.8,0.1c-4.5,0.1-8.9,1.3-12.8,3.3l-5.2,2.7L274.5,274.8z M285.6,274.5
							l-8.8,2.3l-1.2,10.4l1-0.6c4.3-2.3,9.1-3.5,14-3.6h1.2L285.6,274.5z"/>
					</g>
					<g>
						<path class="st5" d="M281.3,325l5.8-0.1c4.5-0.1,8.9-1.3,12.8-3.3l5.2-2.7l-2,16.7l-12.1,3.2L281.3,325z M302.2,323.3l-1,0.6
							c-4.3,2.3-9.1,3.5-14,3.6h-1.2l6,8.5l8.8-2.3L302.2,323.3z"/>
					</g>
				</g>
			</g>
			<g>
				<path class="st5" d="M278.6,302.4c1.6-5.6,7.5-9.1,13.1-7.5c5.6,1.6,9.1,7.5,7.5,13.1c-1.6,5.6-7.5,9.1-13.1,7.5
					C280.4,314,277,308.1,278.6,302.4z M296.9,307.5c1.2-4.3-1.3-8.9-5.8-10.1c-4.3-1.2-8.9,1.3-10.1,5.8c-1.2,4.3,1.3,8.9,5.8,10.1
					C291.1,314.4,295.6,311.8,296.9,307.5z"/>
			</g>
		</g>
	</g>
	<g>
		<path class="st6" d="M456.1,547.8H158.2V370.4c0-10.8,8.8-19.6,19.6-19.6h258.9c10.8,0,19.6,8.8,19.6,19.6v177.4H456.1z"/>
		<rect x="122.4" y="547.3" class="st7" width="369.7" height="19.1"/>
		<path class="st8" d="M307.2,566.5H122.4l2.6,1.4c13.8,8.1,29.7,12.4,45.8,12.4h136.6H444c16.1,0,31.8-4.3,45.8-12.4l2.6-1.4
			L307.2,566.5L307.2,566.5z"/>
		<path class="st8" d="M314.1,547.3h-13.8h-29.5l0.1,0.3c1.9,4,6,6.6,10.5,6.6h18.9h13.8H333c4.5,0,8.5-2.6,10.5-6.6l0.1-0.3H314.1z
			"/>
		<path class="st9" d="M436.9,542.4H176.3c-4.2,0-7.5-3.3-7.5-7.5V374.3c0-4.2,3.3-7.5,7.5-7.5h260.6c4.2,0,7.5,3.3,7.5,7.5V535
			C444.6,539,441.1,542.4,436.9,542.4z"/>
	</g>
	<rect x="184.4" y="384.4" class="st0" width="245.5" height="157.9"/>
	<g>
		<g>
			<g>
				<rect x="375" y="424.5" class="st3" width="45.9" height="2.4"/>
			</g>
			<g>
				<rect x="375" y="432" class="st3" width="45.9" height="2.4"/>
			</g>
			<g>
				<rect x="375" y="439.5" class="st3" width="45.9" height="2.4"/>
			</g>
			<g>
				<rect x="375" y="447.1" class="st3" width="45.9" height="2.4"/>
			</g>
			<g>
				<rect x="375" y="454.6" class="st3" width="45.9" height="2.4"/>
			</g>
		</g>
		<rect x="375" y="392.9" class="st3" width="25.8" height="25.8"/>
	</g>
	<g>
		<g>
			<g>
				<rect x="375" y="502.1" class="st3" width="45.9" height="2.4"/>
			</g>
			<g>
				<rect x="375" y="509.8" class="st3" width="45.9" height="2.4"/>
			</g>
			<g>
				<rect x="375" y="517.2" class="st3" width="45.9" height="2.4"/>
			</g>
			<g>
				<rect x="375" y="524.7" class="st3" width="45.9" height="2.4"/>
			</g>
			<g>
				<rect x="375" y="532.2" class="st3" width="45.9" height="2.4"/>
			</g>
		</g>
		<rect x="375" y="470.5" class="st3" width="25.8" height="25.8"/>
	</g>
	<g>
		<path class="st5" d="M296.9,530.2c38.7,0,70.1-31.4,70.1-70.1h-70.1V530.2z"/>
		<path class="st4" d="M292.1,464.6v56.3c-31.1,0-56.3-25.2-56.3-56.3c0-15.5,6.3-29.7,16.6-39.9"/>
		<path class="st10" d="M293,458.7v-65.9c-18.1,0-34.7,7.3-46.6,19.3L293,458.7z"/>
		<path class="st11" d="M351.3,454.3c0-30.1-24.3-54.4-54.4-54.4v54.4H351.3z"/>
	</g>
	<g>
		<g>
			<g>
				<circle class="st11" cx="158.2" cy="396" r="86.7"/>
			</g>
		</g>
		<g>
			<g>
				
					<ellipse transform="matrix(0.7071 -0.7071 0.7071 0.7071 -233.7488 227.8565)" class="st11" cx="158.2" cy="396.1" rx="74.6" ry="74.6"/>
				<path class="st0" d="M158.2,474.3c-43.2,0-78.2-35.1-78.2-78.2c0-43.2,35.1-78.2,78.2-78.2c43.2,0,78.2,35.1,78.2,78.2
					C236.5,439.2,201.4,474.3,158.2,474.3z M158.2,325c-39.2,0-71,31.8-71,71c0,39.2,31.8,71,71,71s71-31.8,71-71
					C229.3,356.9,197.4,325,158.2,325z"/>
			</g>
			<g>
				
					<ellipse transform="matrix(0.7071 -0.7071 0.7071 0.7071 -233.7488 227.8565)" class="st11" cx="158.2" cy="396.1" rx="60.8" ry="60.8"/>
				<path class="st0" d="M158.2,460.4c-35.4,0-64.4-28.9-64.4-64.4s28.9-64.4,64.4-64.4s64.4,28.9,64.4,64.4
					S193.8,460.4,158.2,460.4z M158.2,339c-31.5,0-57.2,25.6-57.2,57.2s25.6,57.2,57.2,57.2s57.2-25.6,57.2-57.2
					C215.4,364.6,189.7,339,158.2,339z"/>
			</g>
			<g>
				<ellipse class="st11" cx="158.2" cy="396" rx="46.9" ry="46.9"/>
				<path class="st0" d="M158.2,446.6c-27.8,0-50.5-22.6-50.5-50.5c0-27.8,22.6-50.5,50.5-50.5c27.8,0,50.5,22.6,50.5,50.5
					C208.7,424,186.1,446.6,158.2,446.6z M158.2,352.8c-23.9,0-43.3,19.4-43.3,43.3s19.4,43.3,43.3,43.3s43.3-19.4,43.3-43.3
					S182.1,352.8,158.2,352.8z"/>
			</g>
			<g>
				<ellipse class="st11" cx="158.2" cy="396" rx="33" ry="33"/>
				<path class="st0" d="M158.2,432.7c-20.2,0-36.6-16.4-36.6-36.6s16.4-36.6,36.6-36.6s36.6,16.4,36.6,36.6
					C194.9,416.3,178.5,432.7,158.2,432.7z M158.2,366.7c-16.3,0-29.4,13.2-29.4,29.4c0,16.3,13.2,29.4,29.4,29.4
					c16.3,0,29.4-13.2,29.4-29.4C187.7,379.9,174.5,366.7,158.2,366.7z"/>
			</g>
			<g>
				<circle class="st11" cx="158.2" cy="396" r="19.1"/>
				<path class="st0" d="M158.2,418.9c-12.5,0-22.7-10.2-22.7-22.7c0-12.5,10.2-22.7,22.7-22.7c12.5,0,22.7,10.2,22.7,22.7
					C181.1,408.7,170.9,418.9,158.2,418.9z M158.2,380.5c-8.6,0-15.5,6.9-15.5,15.5s6.9,15.5,15.5,15.5c8.6,0,15.5-6.9,15.5-15.5
					S166.8,380.5,158.2,380.5z"/>
			</g>
			<g>
				<circle class="st12" cx="158.2" cy="396" r="5.3"/>
				<path class="st0" d="M158.2,404.9c-4.9,0-8.9-4-8.9-8.9c0-4.9,4-8.9,8.9-8.9c4.9,0,8.9,4,8.9,8.9
					C167.1,401.1,163.2,404.9,158.2,404.9z M158.2,394.4c-0.9,0-1.7,0.7-1.7,1.7c0,0.9,0.7,1.7,1.7,1.7c0.9,0,1.7-0.7,1.7-1.7
					C159.9,395.2,159.2,394.4,158.2,394.4z"/>
			</g>
		</g>
	</g>
	<g>
		<g>
			<path class="st10" d="M161.5,400.3c-0.6,0-1.2-0.1-1.6-0.4l-82.6-58.7c-1.2-0.9-1.4-2.6-0.6-3.7c0.9-1.2,2.6-1.4,3.7-0.6
				l82.6,58.7c1.2,0.9,1.4,2.6,0.6,3.7C163.2,399.9,162.4,400.3,161.5,400.3z"/>
		</g>
		<g>
			<path class="st10" d="M164.5,400.1c0-0.7-8.2-19.7-8.2-19.7l-12.5,17.3L164.5,400.1z"/>
		</g>
		<g>
			<path class="st10" d="M91.4,350.4c-0.6,0-1.2-0.1-1.6-0.6l-17.3-12.7c-0.4-0.3-0.7-0.7-0.9-1.2l-7.8-19.1
				c-0.4-1.2-0.1-2.4,0.9-3.2c1-0.7,2.3-0.7,3.3,0l23,16.8c0.6,0.4,1,1.2,1.2,1.9l2,15c0.1,1-0.4,2.2-1.3,2.7
				C92.3,350.2,91.8,350.4,91.4,350.4z"/>
		</g>
		<g>
			<path class="st10" d="M73.6,353.5c-0.4,0-1-0.1-1.4-0.4l-22.5-13.5c-1-0.6-1.4-1.7-1.3-2.9c0.3-1.2,1.2-2,2.3-2.2l23-2.3
				c0.7,0,1.3,0.1,1.9,0.6l17.3,12.7c0.9,0.6,1.3,1.7,1,2.7c-0.3,1-1.2,1.9-2.2,2l-17.9,3.2C73.8,353.5,73.7,353.5,73.6,353.5z"/>
		</g>
	</g>
	<g>
		<g>
			<line class="st13" x1="277.6" y1="427.1" x2="277.6" y2="425"/>
			<line class="st14" x1="277.6" y1="420.4" x2="277.6" y2="376.7"/>
			<polyline class="st13" points="277.6,374.4 277.6,372.4 275.4,372.4 			"/>
			<line class="st15" x1="270.8" y1="372.4" x2="227" y2="372.4"/>
			<line class="st13" x1="224.7" y1="372.4" x2="222.6" y2="372.4"/>
		</g>
	</g>
	<g>
		<g>
			<line class="st16" x1="328.8" y1="427.6" x2="328.8" y2="425.1"/>
			<line class="st17" x1="328.8" y1="420.1" x2="328.8" y2="303.6"/>
			<polyline class="st16" points="328.8,301 328.8,298.7 331.2,298.7 			"/>
			<line class="st18" x1="336.1" y1="298.7" x2="343.3" y2="298.7"/>
			<line class="st16" x1="345.8" y1="298.7" x2="348.2" y2="298.7"/>
		</g>
	</g>
	<g>
		<g>
			<line class="st19" x1="357.2" y1="472.6" x2="360.1" y2="472.6"/>
			<line class="st20" x1="365.8" y1="472.6" x2="490.2" y2="472.6"/>
			<polyline class="st19" points="493.1,472.6 496,472.6 496,469.7 			"/>
			<line class="st21" x1="496" y1="463.7" x2="496" y2="454.5"/>
			<line class="st19" x1="496" y1="451.5" x2="496" y2="448.6"/>
		</g>
	</g>
</g>
</svg>
