<?xml version="1.0" encoding="utf-8"?>
<!-- Generator: Adobe Illustrator 24.0.3, SVG Export Plug-In . SVG Version: 6.00 Build 0)  -->
<svg version="1.1" id="Layer_1" xmlns="http://www.w3.org/2000/svg" xmlns:xlink="http://www.w3.org/1999/xlink" x="0px" y="0px"
	 width="550.2px" height="768px" viewBox="0 0 550.2 768" style="enable-background:new 0 0 550.2 768;" xml:space="preserve">
<style type="text/css">
	.st0{fill:#FFFFFF;}
	.st1{fill-rule:evenodd;clip-rule:evenodd;fill:#4A250A;}
	.st2{fill-rule:evenodd;clip-rule:evenodd;fill:#592D0D;}
	.st3{fill-rule:evenodd;clip-rule:evenodd;fill:#B2D8DE;}
	.st4{fill-rule:evenodd;clip-rule:evenodd;fill:#E0AC7E;}
	.st5{fill-rule:evenodd;clip-rule:evenodd;fill:#EBB688;}
	.st6{fill-rule:evenodd;clip-rule:evenodd;fill:#E68C3B;}
	.st7{fill-rule:evenodd;clip-rule:evenodd;fill:#F8963E;}
	.st8{fill-rule:evenodd;clip-rule:evenodd;fill:#F0FAFC;}
	.st9{fill-rule:evenodd;clip-rule:evenodd;fill:#096385;}
	.st10{fill-rule:evenodd;clip-rule:evenodd;fill:#08426A;}
	.st11{fill-rule:evenodd;clip-rule:evenodd;fill:#0174A3;}
	.st12{fill-rule:evenodd;clip-rule:evenodd;fill:#0B5975;}
	.st13{fill-rule:evenodd;clip-rule:evenodd;fill:#0A6D94;}
	.st14{fill-rule:evenodd;clip-rule:evenodd;fill:#7A4104;}
	.st15{fill-rule:evenodd;clip-rule:evenodd;fill:#995503;}
	.st16{fill-rule:evenodd;clip-rule:evenodd;fill:#8B4801;}
	.st17{fill-rule:evenodd;clip-rule:evenodd;fill:#FF3705;}
	.st18{fill-rule:evenodd;clip-rule:evenodd;fill:#E6E6E6;}
	.st19{fill-rule:evenodd;clip-rule:evenodd;fill:#FF5527;}
</style>
<title>Artboard 23</title>
<rect x="-22.5" y="-24.6" class="st0" width="598" height="810.1"/>
<g>
	<g>
		<path class="st1" d="M181.2,265.7H369c13.8,0,25.7,11.2,25,25l-7.5,165.9c-0.6,13.8-11.2,25-25,25H188.6c-13.8,0-24.4-11.2-25-25
			L156,290.7C155.5,276.9,167.4,265.7,181.2,265.7z"/>
		<path class="st2" d="M227.4,318.4h95.2c10.6,0,15.8-9.2,19.2-19.3l7.5-21.6c3.5-10-8.7-19.2-19.2-19.2H220
			c-10.6,0-22.7,9.2-19.2,19.2l7.5,21.6C211.7,309.2,216.9,318.4,227.4,318.4z"/>
		<g>
			<path class="st2" d="M317.9,255.9c1.4-17.8,7.4-36.6,3.1-53c-10.2-23.7-58-34.8-81-30.7c-14.4,24.2-8.5,54.1-5.8,81.7
				L317.9,255.9z"/>
			<path class="st3" d="M275,423.2c12.7,0.2,25.2-0.3,37.5-1.7V308.3l-4.2-1.8c-9.2-4-20.8-8.7-33.3-10.4V423.2z"/>
			<path class="st3" d="M275,423.2c-12.7,0.2-25.2-0.3-37.5-1.7V308.3l4.2-1.8c9.3-4,20.8-8.7,33.3-10.4V423.2z"/>
			<path class="st4" d="M248.2,273.7h53.6v32.3c-17.8,14.2-35.7,14.7-53.6,0V273.7z"/>
			<path class="st5" d="M317.2,242.6c-0.3,0-0.5,0-0.6,0l0,0l0,0l0,0c-0.1,0-0.4,0,0,0c-0.3-7.2-1.2-14.3-2.4-21.3
				c-1.4-7.6-8.6-15.4-16.2-13.9c-8.1,1.6-15.3,2.3-22.5,2.3c-7.2,0-14.4-0.7-22.5-2.3c-7.6-1.5-14.8,6.3-16.2,13.9
				c-1.3,7-2.1,14.1-2.4,21.3c0.4,0,0.1,0,0,0l0,0l0,0l0,0c-0.1,0-0.3,0-0.6,0c-1.5,0-6.6,1.2-6.3,7.7c0.2,5,4.6,19.4,10.2,17.1
				c8.3,22.1,19.3,34.5,37.4,38.9c18.6-4.2,29.8-16.5,38.2-38.9c5.7,2.3,10-12.1,10.2-17.1C323.7,243.6,318.6,242.6,317.2,242.6z"/>
			<polygon class="st6" points="275,316.9 284.2,316.9 280.4,331.4 275,331.4 275,331.4 269.7,331.4 265.9,316.9 			"/>
			<polygon class="st7" points="280.4,331 284.1,386.1 275,402.6 266,386.1 269.7,331 			"/>
			<path class="st8" d="M275,316.9l-15.7,15.3l-17.6-25.8l6.6-3.5C254.8,309.8,263.8,314.3,275,316.9z"/>
			<path class="st9" d="M275,401.1l-38.6-92.4c-34.9,15.1-58.3,26.5-62.4,70.6l-6.9,44c-4.1,22.3,79,7.6,107.8,7.6v-29.9H275z"/>
			<path class="st10" d="M206.3,420.1c1.4,1,3.4-0.8,4.9,0.1l-0.1-24L206.3,420.1z"/>
			<polygon class="st11" points="275,401.1 275,424.5 238.7,359.3 249.5,346.3 233,340.8 225.6,313.5 243.7,305.7 			"/>
			<path class="st8" d="M275,316.9l15.7,15.3l17.6-25.8l-6.6-3.5C295.3,309.8,286.3,314.3,275,316.9z"/>
			<path class="st12" d="M275,401.1l38.6-92.4c34.9,15.1,56,22.6,62.4,70.7l7.3,45.1c3.4,21.1-73.4,6.5-108.2,6.4v-29.8H275z"/>
			<path class="st10" d="M345.5,420.2c-1.4,1-3.8-0.3-5.3,0.6l-1.2-24.6L345.5,420.2z"/>
			<polygon class="st13" points="275,401.1 275,424.5 311.4,359.3 300.6,346.3 317,340.8 324.5,313.5 307.2,305.8 			"/>
		</g>
		<g>
			<rect x="381.7" y="448.2" class="st14" width="72.8" height="148.4"/>
			<rect x="405.3" y="472.3" class="st15" width="25.3" height="98.8"/>
			<rect x="95.5" y="448.2" class="st14" width="72.8" height="148.4"/>
			<rect x="119" y="472.3" class="st15" width="25.3" height="98.8"/>
			<rect x="168.3" y="448.2" class="st16" width="213.5" height="148.4"/>
			<rect x="192.2" y="472.3" class="st15" width="165.6" height="98.8"/>
			<rect x="82.1" y="419.2" class="st15" width="386" height="30"/>
		</g>
	</g>
	<g>
		<path class="st17" d="M107,400.3H179c2.8,0,5,2.2,5,5v8.8c0,2.8-2.2,5-5,5H107V400.3z"/>
		<path class="st18" d="M107,402.1v15.3H179c1.8,0,3.3-1.5,3.3-3.3v-8.8c0-1.8-1.5-3.3-3.3-3.3H107V402.1z"/>
	</g>
	<g>
		<path class="st19" d="M107,381.5H179c2.8,0,5,2.2,5,5v8.8c0,2.8-2.2,5.1-5,5.1H107V381.5z"/>
		<path class="st18" d="M107,383.2v15.3H179c1.8,0,3.3-1.5,3.3-3.3v-8.8c0-1.8-1.5-3.3-3.3-3.3H107V383.2z"/>
	</g>
	<g>
		<path class="st17" d="M107,362.6H179c2.8,0,5,2.2,5,5v8.8c0,2.8-2.2,5.1-5,5.1H107V362.6z"/>
		<path class="st18" d="M107,364.3v15.4H179c1.8,0,3.3-1.5,3.3-3.3v-8.8c0-1.8-1.5-3.3-3.3-3.3H107z"/>
	</g>
</g>
</svg>
