<?xml version="1.0" encoding="utf-8"?>
<!-- Generator: Adobe Illustrator 24.0.3, SVG Export Plug-In . SVG Version: 6.00 Build 0)  -->
<svg version="1.1" id="Layer_1" xmlns="http://www.w3.org/2000/svg" xmlns:xlink="http://www.w3.org/1999/xlink" x="0px" y="0px"
	 width="550.2px" height="768px" viewBox="0 0 550.2 768" style="enable-background:new 0 0 550.2 768;" xml:space="preserve">
<style type="text/css">
	.st0{fill:#FFFFFF;}
	.st1{fill-rule:evenodd;clip-rule:evenodd;fill:#4A250A;}
	.st2{fill-rule:evenodd;clip-rule:evenodd;fill:#B2D8DE;}
	.st3{fill-rule:evenodd;clip-rule:evenodd;fill:#E0AC7E;}
	.st4{fill-rule:evenodd;clip-rule:evenodd;fill:#F4BE84;}
	.st5{fill-rule:evenodd;clip-rule:evenodd;fill:#FF3705;}
	.st6{fill-rule:evenodd;clip-rule:evenodd;fill:#FF5527;}
	.st7{fill-rule:evenodd;clip-rule:evenodd;fill:#F0FAFC;}
	.st8{fill-rule:evenodd;clip-rule:evenodd;fill:#096385;}
	.st9{fill-rule:evenodd;clip-rule:evenodd;fill:#08426A;}
	.st10{fill-rule:evenodd;clip-rule:evenodd;fill:#0174A3;}
	.st11{fill-rule:evenodd;clip-rule:evenodd;fill:#0B5975;}
	.st12{fill-rule:evenodd;clip-rule:evenodd;fill:#0A6D94;}
	.st13{fill-rule:evenodd;clip-rule:evenodd;fill:#666666;}
	.st14{fill-rule:evenodd;clip-rule:evenodd;fill:#F1F9FC;}
	.st15{fill-rule:evenodd;clip-rule:evenodd;fill:#808080;}
	.st16{fill-rule:evenodd;clip-rule:evenodd;fill:#D23C69;}
</style>
<title>Artboard 23</title>
<rect x="-22.5" y="-24.6" class="st0" width="598" height="810.1"/>
<g>
	<g>
		<g>
			<path class="st1" d="M302.6,221.1c-0.3-0.6-0.5-1.3-0.9-1.9c-0.1-0.2-0.2-0.4-0.3-0.6c-0.2-0.4-0.4-0.9-0.6-1.3
				c-0.1-0.2-0.2-0.4-0.4-0.6c-0.2-0.4-0.4-0.9-0.7-1.2c-0.1-0.2-0.3-0.4-0.4-0.6c-0.3-0.4-0.5-0.9-0.9-1.3
				c-0.1-0.2-0.2-0.3-0.4-0.5c-0.4-0.5-0.9-1.2-1.3-1.7c0,0,0,0-0.1-0.1c-0.4-0.5-1-1.2-1.4-1.7c-0.1-0.1-0.2-0.3-0.4-0.4
				c-0.3-0.4-0.7-0.9-1.1-1.3c-0.2-0.2-0.3-0.3-0.5-0.5c-0.3-0.4-0.7-0.7-1.1-1.2c-0.2-0.2-0.3-0.3-0.5-0.5
				c-0.4-0.4-0.7-0.7-1.2-1.2c-0.2-0.1-0.3-0.3-0.5-0.4c-0.5-0.5-1.1-1-1.6-1.5l-0.1-0.1c-0.6-0.5-1.3-1.1-1.9-1.6
				c-0.1-0.1-0.2-0.2-0.3-0.3c-0.5-0.4-1.1-0.9-1.6-1.2c-0.2-0.1-0.4-0.3-0.5-0.4c-0.4-0.3-1-0.7-1.4-1.1c-0.2-0.1-0.4-0.3-0.6-0.4
				c-0.5-0.3-1-0.7-1.5-1.1c-0.2-0.1-0.3-0.2-0.5-0.4c-0.6-0.4-1.3-0.9-1.9-1.3c-0.1,0-0.1-0.1-0.2-0.1c-0.7-0.4-1.5-1-2.2-1.4
				c-0.1,0-0.2-0.1-0.2-0.1c-0.6-0.4-1.3-0.7-2-1.2c-0.2-0.1-0.4-0.2-0.6-0.3c-0.5-0.3-1.2-0.6-1.7-1c-0.2-0.1-0.4-0.2-0.6-0.3
				c-0.6-0.3-1.2-0.6-1.8-1c-0.2-0.1-0.4-0.2-0.6-0.3c-0.7-0.3-1.5-0.7-2.2-1.1c-0.1,0-0.1-0.1-0.2-0.1c-1.7-0.7-3.3-1.5-5.1-2.2
				c-0.2-0.1-0.3-0.1-0.5-0.2c-0.6-0.3-1.4-0.5-2-0.9c-0.2-0.1-0.4-0.2-0.6-0.2c-0.6-0.3-1.4-0.5-2.1-0.9c-0.2-0.1-0.3-0.1-0.5-0.2
				c-0.9-0.3-1.7-0.6-2.6-1l0,0c-1.8-0.6-3.7-1.3-5.6-1.9c-0.1,0-0.1,0-0.2,0c-0.9-0.3-1.7-0.5-2.6-0.9c-0.1,0-0.2-0.1-0.3-0.1
				c-0.9-0.2-1.7-0.5-2.6-0.7h-0.1c-23.4-6.6-48.2-8.8-64.7-5.7c-22.6,37.9-13.3,84.7-9.1,127.8l65.2,1.6l0,0l65.9,1.6
				c0.1-1.7,0.3-3.5,0.5-5.2C301,272.7,308.9,245.5,302.6,221.1z"/>
			<path class="st2" d="M230.6,566.5c19.9,0.3,39.4-0.5,58.8-2.6V386.5l-6.6-2.9c-14.5-6.3-32.5-13.7-52.2-16.4L230.6,566.5
				L230.6,566.5z"/>
			<path class="st2" d="M230.6,566.5c-19.9,0.3-39.4-0.5-58.8-2.6V386.5l6.6-2.9c14.5-6.3,32.5-13.7,52.3-16.4v199.2H230.6z"/>
			<path class="st3" d="M188.6,332.3h84v50.7c-28,22.2-56,23.2-84,0V332.3z"/>
			<path class="st4" d="M296.6,283.3c-0.4,0-0.7,0-1,0l0,0c0,0,0.1,0,0,0l0,0c-0.1,0-0.6,0,0,0c-0.5-11.2-1.9-22.4-3.8-33.3
				c-2.1-12-13.6-24.2-25.4-21.8c-12.6,2.5-23.8,3.6-35.2,3.6c-11.3,0-22.6-1.2-35.2-3.6c-11.9-2.4-23.3,9.8-25.4,21.8
				c-1.9,10.9-3.3,22.1-3.8,33.3c0.6,0,0.1,0,0,0l0,0c-0.1,0,0,0,0,0l0,0c-0.2,0-0.5,0-1,0c-2.4,0-10.3,1.8-9.8,12.2
				c0.3,7.8,7.1,30.5,15.9,26.7c12.9,34.5,30.2,54.1,58.7,61c29.1-6.6,46.7-26,59.9-61c8.9,3.7,15.7-18.9,15.9-26.7
				C306.7,285.1,298.9,283.3,296.6,283.3z"/>
			<polygon class="st5" points="230.6,399.9 245,399.9 238.9,422.7 230.6,422.7 230.6,422.7 222.3,422.7 216.2,399.9 			"/>
			<polygon class="st6" points="238.9,422.1 244.7,508.2 230.6,534.1 216.4,508.2 222.3,422.1 			"/>
			<path class="st7" d="M230.6,399.9l-24.7,23.9l-27.6-40.4l10.3-5.6C198.9,388.8,213.1,395.8,230.6,399.9z"/>
			<path class="st8" d="M230.6,531.7l-60.5-144.6c-54.6,23.6-89.8,41.8-96,110.9c24.8,44.4,84.1,80.6,156.4,80.5v-46.8H230.6z"/>
			<path class="st9" d="M123.6,548.5c2.1,1.5,4.7,2.8,6.9,4.2l-0.2-28.6L123.6,548.5z"/>
			<polygon class="st10" points="230.6,531.7 230.6,568.4 173.7,466.4 190.6,445.9 164.8,437.2 153.1,394.5 181.4,382.2 			"/>
			<path class="st7" d="M230.6,399.9l24.7,23.9l27.6-40.4l-10.3-5.6C262.3,388.8,248.2,395.8,230.6,399.9z"/>
			<path class="st11" d="M230.6,531.7l60.5-144.6c54.6,23.6,89.8,41.8,95.9,110.9c-24.8,44.4-84.1,80.6-156.4,80.5L230.6,531.7
				L230.6,531.7z"/>
			<path class="st9" d="M337.6,548.5c-2.1,1.5-4.7,2.8-6.9,4.2l0.2-28.6L337.6,548.5z"/>
			<polygon class="st12" points="230.6,531.7 230.6,568.4 287.5,466.4 270.6,445.9 296.4,437.2 308,394.5 280.9,382.4 			"/>
		</g>
		<g>
			<path class="st13" d="M461.2,329.9H280.9c-8.1,0-14.9,6.6-14.9,14.9v237c0,8.1,6.6,14.9,14.9,14.9h180.3
				c8.1,0,14.9-6.6,14.9-14.9V344.7C476,336.5,469.3,329.9,461.2,329.9z"/>
			<path class="st14" d="M281.2,342.7h179.7c1.3,0,2.2,1.1,2.2,2.2v236.4c0,1.3-1.1,2.2-2.2,2.2H281.2c-1.3,0-2.2-1.1-2.2-2.2V345
				C278.9,343.7,279.9,342.7,281.2,342.7z"/>
			<path class="st15" d="M419.9,402.4H301.3c-0.7,0-1.5-0.6-1.5-1.5v-7.1c0-0.7,0.6-1.5,1.5-1.5h118.6c0.7,0,1.5,0.6,1.5,1.5v7.1
				C421.4,401.7,420.8,402.4,419.9,402.4z"/>
			<path class="st15" d="M419.9,421.6H301.3c-0.7,0-1.5-0.6-1.5-1.5v-7.1c0-0.7,0.6-1.4,1.5-1.4h118.6c0.7,0,1.5,0.6,1.5,1.4v7.1
				C421.4,421,420.8,421.6,419.9,421.6z"/>
			<path class="st15" d="M419.9,440.9H301.3c-0.7,0-1.5-0.6-1.5-1.4v-7.1c0-0.7,0.6-1.4,1.5-1.4h118.6c0.7,0,1.5,0.6,1.5,1.4v7.1
				C421.4,440.2,420.8,440.9,419.9,440.9z"/>
			<path class="st15" d="M419.9,460.1H301.3c-0.7,0-1.5-0.6-1.5-1.5v-7.1c0-0.7,0.6-1.4,1.5-1.4h118.6c0.7,0,1.5,0.6,1.5,1.4v7.1
				C421.4,459.5,420.8,460.1,419.9,460.1z"/>
			<path class="st15" d="M419.9,479.3H301.3c-0.7,0-1.5-0.6-1.5-1.4v-7.1c0-0.7,0.6-1.5,1.5-1.5h118.6c0.7,0,1.5,0.6,1.5,1.5v7.1
				C421.4,478.6,420.8,479.3,419.9,479.3z"/>
			<path class="st15" d="M440.8,402.4h-7.3c-0.7,0-1.5-0.6-1.5-1.5v-7.1c0-0.7,0.6-1.5,1.5-1.5h7.3c0.7,0,1.5,0.6,1.5,1.5v7.1
				C442.2,401.7,441.5,402.4,440.8,402.4z"/>
			<path class="st15" d="M440.8,421.6h-7.3c-0.7,0-1.5-0.6-1.5-1.5v-7.1c0-0.7,0.6-1.4,1.5-1.4h7.3c0.7,0,1.5,0.6,1.5,1.4v7.1
				C442.2,421,441.5,421.6,440.8,421.6z"/>
			<path class="st15" d="M440.8,440.9h-7.3c-0.7,0-1.5-0.6-1.5-1.4v-7.1c0-0.7,0.6-1.4,1.5-1.4h7.3c0.7,0,1.5,0.6,1.5,1.4v7.1
				C442.2,440.2,441.5,440.9,440.8,440.9z"/>
			<path class="st15" d="M440.8,460.1h-7.3c-0.7,0-1.5-0.6-1.5-1.5v-7.1c0-0.7,0.6-1.4,1.5-1.4h7.3c0.7,0,1.5,0.6,1.5,1.4v7.1
				C442.2,459.5,441.5,460.1,440.8,460.1z"/>
			<path class="st15" d="M440.8,479.3h-7.3c-0.7,0-1.5-0.6-1.5-1.4v-7.1c0-0.7,0.6-1.5,1.5-1.5h7.3c0.7,0,1.5,0.6,1.5,1.5v7.1
				C442.2,478.6,441.5,479.3,440.8,479.3z"/>
			<path class="st16" d="M371.9,525.5c-2.9-3.2-2.6-8.1,0.6-10.9c3.2-2.9,8.1-2.6,10.9,0.6l23.4,17.1l33.2-28.2
				c2.9-3.2,7.8-3.4,10.9-0.6c3.2,2.9,3.4,7.8,0.6,10.9c-12.9,14.5-26,29.2-38.9,43.7c-1.5,1.6-3.5,2.5-5.6,2.6l0,0H407l0,0h-0.2
				l0,0h-0.2l0,0c-2-0.1-4.1-1-5.6-2.6L371.9,525.5z"/>
			<path class="st4" d="M452.6,315.2c0.3,1.3,0.5,2.7,0.6,4.2v40.9c0,6.1-7.2,7.6-10.6,5.8v-15.7c0-3.2-3.2-2.6-3.2-0.1v19.2
				c-0.3,4.8-10.6,5.9-11.9,1.1l-0.3-19.6c-0.2-2.9-3.3-2.4-3.2,0v20.5c-0.3,4.5-12.2,5.3-13.5-0.1V350c-0.3-3.2-3.2-2.9-3.2,0.3
				v18.9c-3.2,2.9-12.2,1.9-13.5-8l-0.3-26c-8.8,4.3-15.5,4.5-23.9,1.3c-7.6-3.5-5.1-12.2,1.3-13.5c7.1-1.6,10.6,1.9,15.4-1.6
				c0.6-1.8,1.6-4.1,2.8-6.3C410,309.6,431.2,310.4,452.6,315.2z"/>
		</g>
	</g>
</g>
</svg>
