<?xml version="1.0" encoding="utf-8"?>
<!-- Generator: Adobe Illustrator 24.0.3, SVG Export Plug-In . SVG Version: 6.00 Build 0)  -->
<svg version="1.1" id="Layer_1" xmlns="http://www.w3.org/2000/svg" xmlns:xlink="http://www.w3.org/1999/xlink" x="0px" y="0px"
	 width="550.2px" height="768px" viewBox="0 0 550.2 768" style="enable-background:new 0 0 550.2 768;" xml:space="preserve">
<style type="text/css">
	.st0{fill:#FFFFFF;}
	.st1{fill:#2BA6E0;}
	.st2{fill:#FBAC31;}
	.st3{fill:#67439A;}
	.st4{fill:#D23C69;}
	.st5{fill:#A6CF32;}
	.st6{fill:#E9EDF1;}
	.st7{fill:#DAE2E8;}
	.st8{fill:#618AAA;}
	.st9{fill:#4F7693;}
	.st10{fill:#38627C;}
	.st11{fill:#83D9FF;}
	.st12{fill:#FF84A7;}
	.st13{fill:#2F5066;}
	.st14{fill:#A7C7D3;}
	.st15{fill:#69D998;}
	.st16{fill:#FDB659;}
	.st17{fill:#102F5B;}
	.st18{fill:#1C3E72;}
	.st19{fill:#ACDBF6;}
	.st20{fill:#EFF9FE;}
	.st21{fill:#1EA5B0;}
	.st22{fill:#347A91;}
	.st23{fill:#FF5D10;}
	.st24{fill-rule:evenodd;clip-rule:evenodd;fill:#592D0D;}
	.st25{fill-rule:evenodd;clip-rule:evenodd;fill:#B2D8DE;}
	.st26{fill-rule:evenodd;clip-rule:evenodd;fill:#E0AC7E;}
	.st27{fill-rule:evenodd;clip-rule:evenodd;fill:#EBB688;}
	.st28{fill-rule:evenodd;clip-rule:evenodd;fill:#FF3705;}
	.st29{fill-rule:evenodd;clip-rule:evenodd;fill:#FF5527;}
	.st30{fill-rule:evenodd;clip-rule:evenodd;fill:#F0FAFC;}
	.st31{fill-rule:evenodd;clip-rule:evenodd;fill:#096385;}
	.st32{fill-rule:evenodd;clip-rule:evenodd;fill:#08426A;}
	.st33{fill-rule:evenodd;clip-rule:evenodd;fill:#0174A3;}
	.st34{fill-rule:evenodd;clip-rule:evenodd;fill:#0B5975;}
	.st35{fill-rule:evenodd;clip-rule:evenodd;fill:#0A6D94;}
</style>
<title>Artboard 23</title>
<rect x="-22.5" y="-24.6" class="st0" width="598" height="810.1"/>
<g>
	<circle class="st0" cx="84.8" cy="243.5" r="41.8"/>
	
		<ellipse transform="matrix(0.1602 -0.9871 0.9871 0.1602 104.2302 717.2799)" class="st0" cx="473.6" cy="297.4" rx="36.4" ry="36.4"/>
	<circle class="st0" cx="416.9" cy="471.4" r="47.2"/>
	<circle class="st0" cx="121.7" cy="536.5" r="31"/>
	<path class="st1" d="M417.3,525.5c-29.5,0-53.4-24-53.4-53.4c0-29.5,24-53.4,53.4-53.4c29.5,0,53.4,24,53.4,53.4
		C470.8,501.5,446.8,525.5,417.3,525.5z M417.3,429.1c-23.7,0-43,19.3-43,43s19.3,43,43,43s43-19.3,43-43S441,429.1,417.3,429.1z"/>
	<path class="st2" d="M472.6,340.6c-23.4,0-42.5-19.1-42.5-42.5s19.1-42.5,42.5-42.5s42.5,19.1,42.5,42.5S496,340.6,472.6,340.6z
		 M472.6,266.1c-17.7,0-32,14.4-32,32c0,17.7,14.4,32,32,32c17.7,0,32-14.4,32-32S490.2,266.1,472.6,266.1z"/>
	<path class="st3" d="M65.9,290.4c-25.2-10.1-37.4-38.7-27.4-63.9c10.1-25.2,38.7-37.4,63.9-27.4c25.2,10.1,37.4,38.7,27.4,63.9
		C119.7,288.2,91,300.5,65.9,290.4z M98.5,208.9c-19.8-7.9-42.3,1.7-50.2,21.5s1.7,42.3,21.5,50.2s42.3-1.7,50.2-21.5
		S118.2,216.8,98.5,208.9z"/>
	<path class="st4" d="M130.4,571.4c-19.4,4.7-39-7.3-43.7-26.7s7.3-39,26.7-43.7s39,7.3,43.7,26.7S149.8,566.7,130.4,571.4z
		 M115.8,511.2c-13.8,3.3-22.3,17.3-18.9,31.1c3.3,13.8,17.3,22.3,31.1,18.9c13.8-3.3,22.3-17.3,18.9-31.1
		C143.5,516.4,129.6,507.9,115.8,511.2z"/>
	
		<rect x="340.6" y="392.8" transform="matrix(0.5051 -0.863 0.863 0.5051 -198.5837 510.5154)" class="st1" width="10.5" height="71.2"/>
	
		<rect x="289.8" y="331.9" transform="matrix(0.9495 -0.3138 0.3138 0.9495 -87.3904 131.4089)" class="st2" width="149.3" height="10.5"/>
	
		<rect x="160.6" y="248.2" transform="matrix(0.6225 -0.7826 0.7826 0.6225 -177.7553 245.7736)" class="st3" width="10.5" height="117.8"/>
	
		<rect x="132.4" y="478.4" transform="matrix(0.7372 -0.6756 0.6756 0.7372 -279.7455 248.0436)" class="st4" width="93.2" height="10.5"/>
	<g>
		<path class="st5" d="M447.7,466.9v-10h-5.8c-0.5-1.9-1.2-3.7-2.2-5.3l4.1-4.1l-7-7l-4.1,4.1c-1.6-1-3.4-1.7-5.3-2.2v-5.8h-10v5.8
			c-1.9,0.5-3.7,1.2-5.3,2.2l-4.1-4.1l-7,7l4.1,4.1c-1,1.6-1.7,3.4-2.2,5.3h-6v10h5.8c0.5,1.9,1.2,3.7,2.2,5.3l-4.1,4.1l7,7l4.1-4.1
			c1.6,1,3.4,1.7,5.3,2.2v5.8h10v-5.8c1.9-0.5,3.7-1.2,5.3-2.2l4.1,4.1l7-7l-4.1-4.1c1-1.6,1.7-3.4,2.2-5.3H447.7z M412.2,461.7
			c0.2-5.4,4.6-9.8,10.1-9.8c5.6,0,10.1,4.5,10.1,10.1c0,5.5-4.3,9.9-9.8,10.1C416.9,471.9,412.4,467.3,412.2,461.7z"/>
		<path class="st4" d="M416.5,490.8v-5.4h-3.1c-0.3-1-0.7-2-1.2-2.9l2.2-2.2l-3.8-3.8l-2.2,2.2c-0.9-0.5-1.9-0.9-2.9-1.2v-3.1h-5.6
			v3.1c-1,0.3-2,0.7-2.9,1.2l-2.2-2.2l-3.8,3.8l2.2,2.2c-0.5,0.9-0.9,1.9-1.2,2.9h-3.1v5.4h3.1c0.3,1,0.7,2,1.2,2.9l-2.2,2.2
			l3.8,3.8l2.2-2.2c0.9,0.5,1.9,0.9,2.9,1.2v3.1h5.4v-3.1c1-0.3,2-0.7,2.9-1.2l2.2,2.2l3.8-3.8l-2.2-2.2c0.5-0.9,0.9-1.9,1.2-2.9
			H416.5z M397.2,488c0.1-3,2.5-5.3,5.5-5.3s5.5,2.5,5.5,5.5s-2.4,5.4-5.3,5.5C399.7,493.5,397.3,491,397.2,488z"/>
	</g>
	<circle class="st0" cx="100.6" cy="427.6" r="11.5"/>
	<circle class="st0" cx="303" cy="522" r="11.5"/>
	<circle class="st0" cx="246.3" cy="381.7" r="104.5"/>
	<path class="st2" d="M100,444.4c-9.8,0-17.8-8-17.8-17.8s8-17.8,17.8-17.8s17.8,8,17.8,17.8C117.8,436.4,109.8,444.4,100,444.4z
		 M100,419.2c-4,0-7.3,3.3-7.3,7.3s3.3,7.3,7.3,7.3s7.3-3.3,7.3-7.3S104,419.2,100,419.2z"/>
	<path class="st5" d="M302.4,540.8c-9.8,0-17.8-8-17.8-17.8s8-17.8,17.8-17.8s17.8,8,17.8,17.8S312.2,540.8,302.4,540.8z
		 M302.4,515.6c-4,0-7.3,3.3-7.3,7.3s3.3,7.3,7.3,7.3s7.3-3.3,7.3-7.3S306.4,515.6,302.4,515.6z"/>
	
		<rect x="110.4" y="411.2" transform="matrix(0.9775 -0.2111 0.2111 0.9775 -85.0319 36.3482)" class="st2" width="34.6" height="10.5"/>
	
		<rect x="285.5" y="478.5" transform="matrix(0.9079 -0.4192 0.4192 0.9079 -180.803 167.5099)" class="st5" width="10.5" height="33.3"/>
	<path class="st2" d="M343.9,363.7l11.8-0.8c-5-29.4-21.5-54.9-44.8-71.7l-6.2,10.1C324.9,316,339.3,338.2,343.9,363.7z"/>
	<path class="st5" d="M245.8,281.9c22,0,42.4,7.2,59,19.3l6.2-10.1c-18.3-13.3-40.8-21.1-65.2-21.1c-24,0-46.2,7.6-64.4,20.5
		l7.6,9.1C205.2,288.4,224.8,281.9,245.8,281.9z"/>
	<path class="st3" d="M189.1,299.7l-7.6-9.1c-11.9,8.4-22,19.1-29.8,31.4l10.2,5.9C169,316.8,178.2,307.2,189.1,299.7z"/>
	<path class="st1" d="M355.8,362.9l-11.8,0.8c1.1,5.8,1.6,11.8,1.6,17.9c0,55-44.7,99.7-99.7,99.7s-99.8-44.7-99.8-99.7
		c0-19.7,5.8-38.2,15.7-53.7l-10.2-5.9c-10.9,17.2-17.3,37.7-17.3,59.6c0,61.5,50,111.5,111.5,111.5s111.5-50,111.5-111.5
		C357.3,375.2,356.8,369,355.8,362.9z"/>
	<g>
		<path class="st6" d="M107,263l-49,0.2c-2.2,0-4-1.8-4-4l-0.2-33.7c0-2.2,1.8-4,4-4l49-0.2c2.2,0,4,1.8,4,4L111,259
			C111,261.1,109.2,262.9,107,263z"/>
		<path class="st7" d="M110.8,225.2l0.2,33.7c0,2.2-1.8,4-4,4h-6.1c2.2,0,4-1.8,4-4v-5.7h2.9l-0.1-27.7c0-0.6-0.5-1.1-1.1-1.1h-1.8
			c-0.4-1.8-2-3.2-4-3.2h6.1C109,221.2,110.8,223,110.8,225.2z"/>
		<path class="st8" d="M90.7,272.6l-16.4,0.1l1.3-9.6l7.3-0.3l6.5,0.2L90.7,272.6z"/>
		<path class="st9" d="M107,263l-49,0.2c-2.2,0-4-1.8-4-4v-5.7l57-0.3v5.7C111,261.1,109.2,262.9,107,263z"/>
		<path class="st10" d="M87.8,272.7h2.9l-1.3-9.6l-13.8,0.1l-0.4,2.7h4.6C83.9,265.8,87.3,268.7,87.8,272.7z"/>
		<path class="st8" d="M74.7,225.7l0.1,27.7l-17.7,0.1L57,225.8c0-0.6,0.5-1.1,1.1-1.1l15.4-0.1C74.2,224.6,74.7,225.1,74.7,225.7z"
			/>
		<path class="st11" d="M84,258.2c0,0.8-0.7,1.5-1.5,1.5S81,259,81,258.2c0-0.8,0.7-1.5,1.5-1.5S84,257.4,84,258.2z"/>
		<path class="st0" d="M107.6,225.6l0.1,27.7h-2.9l-0.1-28c0-0.3,0-0.5-0.1-0.8h1.8C107.1,224.5,107.6,225,107.6,225.6z"/>
		<path class="st0" d="M104.8,225.3l0.1,28l-31.2,0.1l-0.2-28.8l31.1-0.1C104.7,224.7,104.8,225,104.8,225.3z"/>
		<path class="st12" d="M61.7,231.2c-0.9,0-1.6-0.7-1.6-1.6c0-0.9,0.7-1.6,1.6-1.6s1.6,0.7,1.6,1.6
			C63.3,230.5,62.6,231.2,61.7,231.2z"/>
		<path class="st13" d="M70.2,230.4h-4.1c-0.5,0-0.9-0.4-0.9-0.9s0.4-0.9,0.9-0.9h4.1c0.5,0,0.9,0.4,0.9,0.9
			C71.1,230,70.7,230.4,70.2,230.4z"/>
		<g>
			<path class="st14" d="M103.9,229.2l-26.6,0.1c-0.5,0-0.9-0.4-0.9-0.9s0.4-0.9,0.9-0.9l26.6-0.1c0.5,0,0.9,0.4,0.9,0.9
				C104.8,228.8,104.4,229.2,103.9,229.2z"/>
			<path class="st14" d="M87.2,232.6h-9.9c-0.5,0-0.9-0.4-0.9-0.9s0.4-0.9,0.9-0.9h9.9c0.5,0,0.9,0.4,0.9,0.9
				C88.1,232.3,87.7,232.6,87.2,232.6z"/>
			<path class="st14" d="M104,237.7l-26.6,0.1c-0.5,0-0.9-0.4-0.9-0.9s0.4-0.9,0.9-0.9l26.6-0.1c0.5,0,0.9,0.4,0.9,0.9
				C104.8,237.4,104.5,237.7,104,237.7z"/>
			<path class="st14" d="M93.2,241.2l-15.9,0.1c-0.5,0-0.9-0.4-0.9-0.9s0.4-0.9,0.9-0.9l15.9-0.1c0.5,0,0.9,0.4,0.9,0.9
				C94.1,240.8,93.7,241.2,93.2,241.2z"/>
			<path class="st14" d="M104,246.9L77.4,247c-0.5,0-0.9-0.4-0.9-0.9s0.4-0.9,0.9-0.9l26.6-0.1c0.5,0,0.9,0.4,0.9,0.9
				C104.9,246.5,104.5,246.9,104,246.9z"/>
			<path class="st14" d="M101.4,250.3l-24,0.1c-0.5,0-0.9-0.4-0.9-0.9s0.4-0.9,0.9-0.9l24-0.1c0.5,0,0.9,0.4,0.9,0.9
				C102.2,249.9,101.9,250.3,101.4,250.3z"/>
		</g>
		<path class="st11" d="M61.7,237.5c-0.9,0-1.6-0.7-1.6-1.6s0.7-1.6,1.6-1.6s1.6,0.7,1.6,1.6S62.6,237.5,61.7,237.5z"/>
		<path class="st13" d="M70.2,236.7h-4.1c-0.5,0-0.9-0.4-0.9-0.9s0.4-0.9,0.9-0.9h4.1c0.5,0,0.9,0.4,0.9,0.9
			C71.1,236.3,70.7,236.7,70.2,236.7z"/>
		<path class="st15" d="M61.8,243.9c-0.9,0-1.6-0.7-1.6-1.6c0-0.9,0.7-1.6,1.6-1.6c0.9,0,1.6,0.7,1.6,1.6
			C63.4,243.1,62.7,243.9,61.8,243.9z"/>
		<path class="st13" d="M70.3,243.1h-4.1c-0.5,0-0.9-0.4-0.9-0.9s0.4-0.9,0.9-0.9h4.1c0.5,0,0.9,0.4,0.9,0.9
			C71.1,242.7,70.7,243.1,70.3,243.1z"/>
		<path class="st16" d="M61.8,250.3c-0.9,0-1.6-0.7-1.6-1.6c0-0.9,0.7-1.6,1.6-1.6c0.9,0,1.6,0.7,1.6,1.6S62.7,250.3,61.8,250.3z"/>
		<path class="st13" d="M70.3,249.5h-4.1c-0.5,0-0.9-0.4-0.9-0.9s0.4-0.9,0.9-0.9h4.1c0.5,0,0.9,0.4,0.9,0.9S70.8,249.5,70.3,249.5z
			"/>
	</g>
	<g>
		<path class="st17" d="M274.6,408.2l-8.3,8.3l-6.8-6.8c3.1-2.4,5.9-5.3,8.3-8.3L274.6,408.2z"/>
		<circle class="st18" cx="227.3" cy="369.3" r="51.6"/>
		<circle class="st19" cx="227.3" cy="369.3" r="40.8"/>
		<path class="st18" d="M276.3,406.3l-11.9,11.9c-1.4,1.4-1.4,3.6,0,4.9l33.8,33.8c1.4,1.4,3.6,1.4,4.9,0L315,445
			c1.4-1.4,1.4-3.6,0-4.9l-33.8-33.8C279.8,405,277.6,405,276.3,406.3z"/>
		
			<ellipse transform="matrix(0.7071 -0.7071 0.7071 0.7071 -186.386 249.5413)" class="st20" cx="208" cy="349.8" rx="12.1" ry="5.9"/>
	</g>
	<g>
		<path class="st4" d="M228.1,374c-0.5,0.7-1.2,1.1-2,1.1s-1.6-0.3-2.1-0.9c-7.8-9.1-17.3-14.4-28.2-15.9c-1.2-0.2-2.4-0.3-3.6-0.4
			c-0.3,0-0.6,0.2-0.7,0.4c-0.1,0.3-0.1,0.6,0.2,0.8c7.8,7.5,22.2,23.5,31.7,47.1c0.1,0.3,0.3,0.4,0.6,0.5h0.1
			c0.2,0,0.5-0.1,0.6-0.3c16.4-24.6,38.4-55.5,62.7-76.6c0.3-0.2,0.3-0.6,0.1-0.9c-0.2-0.3-0.6-0.4-0.9-0.3
			C249.4,344.4,230.2,371,228.1,374z"/>
	</g>
	<g>
		<g>
			<path class="st21" d="M489.1,319.1c0,1.1-0.9,2-2,2h-30.6c-1.1,0-2-0.9-2-2v-37.8c0-1.1,0.9-2,2-2h30.6c1.1,0,2,0.9,2,2V319.1z"
				/>
			<path class="st21" d="M457.8,315.3H489c0.1-0.2,0.2-0.5,0.2-0.8v-37.7c0-1.1-0.9-2-2-2h-30.6c-1.1,0-2,0.9-2,2v37.8
				c0,1.1,0.9,2,2,2h1.3v-1.3H457.8z"/>
			<path class="st22" d="M458.2,274.9h-1.7c-1.1,0-2,0.9-2,2V319c0,1.1,0.9,2,2,2h1.7V274.9z"/>
			<path class="st0" d="M487.8,315.3h-30c-1.1,0-2.1,0.9-2.1,2.1c0,1.1,0.9,2.1,2.1,2.1h30V315.3z"/>
		</g>
		<rect x="462.1" y="280.9" class="st0" width="22.4" height="2.3"/>
		<polygon class="st23" points="459.6,317.6 459.6,325 461.2,323.7 462.4,325 462.4,317.6 		"/>
		<g>
			<circle class="st0" cx="473.4" cy="297.8" r="10.7"/>
		</g>
	</g>
	<g>
		<path class="st24" d="M130.3,528.7c0.2-3.2,1.3-6.6,0.6-9.6c-1.8-4.3-10.5-6.3-14.7-5.6c-2.6,4.4-1.5,9.8-1.1,14.8L130.3,528.7z"
			/>
		<path class="st25" d="M122.6,559.1c2.3,0,4.6-0.1,6.8-0.3v-20.6l-0.8-0.3c-1.7-0.7-3.8-1.6-6-1.9V559.1z"/>
		<path class="st25" d="M122.6,559.1c-2.3,0-4.6-0.1-6.8-0.3v-20.6l0.8-0.3c1.7-0.7,3.8-1.6,6.1-1.9L122.6,559.1L122.6,559.1z"/>
		<path class="st26" d="M117.7,532h9.7v5.9c-3.2,2.6-6.5,2.7-9.7,0V532z"/>
		<path class="st27" d="M130.2,526.3c-0.1,0-0.1,0-0.1,0l0,0l0,0l0,0c0,0-0.1,0,0,0c-0.1-1.3-0.2-2.6-0.4-3.9
			c-0.2-1.4-1.6-2.8-2.9-2.5c-1.5,0.3-2.8,0.4-4.1,0.4c-1.3,0-2.6-0.1-4.1-0.4c-1.4-0.3-2.7,1.1-2.9,2.5c-0.2,1.3-0.4,2.6-0.4,3.9
			c0.1,0,0,0,0,0l0,0l0,0l0,0h-0.1c-0.3,0-1.2,0.2-1.1,1.4c0,0.9,0.8,3.5,1.8,3.1c1.5,4,3.5,6.3,6.8,7.1c3.4-0.8,5.4-3,6.9-7.1
			c1,0.4,1.8-2.2,1.8-3.1C131.4,526.5,130.5,526.3,130.2,526.3z"/>
		<polygon class="st28" points="122.6,539.8 124.2,539.8 123.5,542.5 122.6,542.5 122.6,542.5 121.6,542.5 120.9,539.8 		"/>
		<polygon class="st29" points="123.5,542.4 124.2,552.4 122.6,555.4 120.9,552.4 121.6,542.4 		"/>
		<path class="st30" d="M122.6,539.8l-2.9,2.8l-3.2-4.7l1.2-0.6C118.9,538.5,120.5,539.3,122.6,539.8z"/>
		<path class="st31" d="M122.6,555.1l-7-16.8c-6.3,2.7-10.4,4.8-11.1,12.9c2.9,5.1,9.7,9.3,18.1,9.3V555.1z"/>
		<path class="st32" d="M110.2,557c0.3,0.2,0.5,0.3,0.8,0.5v-3.3L110.2,557z"/>
		<polygon class="st33" points="122.6,555.1 122.6,559.3 116,547.5 117.9,545.1 114.9,544.1 113.6,539.2 116.9,537.8 		"/>
		<path class="st30" d="M122.6,539.8l2.9,2.8l3.2-4.7l-1.2-0.6C126.2,538.5,124.6,539.3,122.6,539.8z"/>
		<path class="st34" d="M122.6,555.1l7-16.8c6.3,2.7,10.4,4.8,11.1,12.9c-2.9,5.1-9.7,9.3-18.1,9.3
			C122.6,560.5,122.6,555.1,122.6,555.1z"/>
		<path class="st32" d="M135,557c-0.3,0.2-0.5,0.3-0.8,0.5v-3.3L135,557z"/>
		<polygon class="st35" points="122.6,555.1 122.6,559.3 129.2,547.5 127.2,545.1 130.2,544.1 131.5,539.2 128.4,537.8 		"/>
	</g>
</g>
</svg>
