<?xml version="1.0" encoding="utf-8"?>
<!-- Generator: Adobe Illustrator 24.0.3, SVG Export Plug-In . SVG Version: 6.00 Build 0)  -->
<svg version="1.1" id="Layer_1" xmlns="http://www.w3.org/2000/svg" xmlns:xlink="http://www.w3.org/1999/xlink" x="0px" y="0px"
	 width="550.2px" height="768px" viewBox="0 0 550.2 768" style="enable-background:new 0 0 550.2 768;" xml:space="preserve">
<style type="text/css">
	.st0{fill:#FFFFFF;}
	.st1{fill:#1EA5B0;}
	.st2{fill:#347A91;}
	.st3{fill:#FF5D10;}
	.st4{fill:#F6F6F6;}
	.st5{fill:#FFCA4F;}
	.st6{fill:#C8CACC;}
	.st7{fill:#BE3660;}
	.st8{fill:#E6E6E6;}
	.st9{fill:#F2F2F2;}
	.st10{fill:#D13C69;}
</style>
<title>Artboard 23</title>
<rect x="-22.5" y="-24.6" class="st0" width="598" height="810.1"/>
<g>
	<g>
		<g>
			<path class="st1" d="M270.2,522.1c0,7-5.7,12.6-12.6,12.6H61.4c-7,0-12.6-5.7-12.6-12.6V280.3c0-7,5.7-12.6,12.6-12.6h196.2
				c7,0,12.6,5.7,12.6,12.6V522.1z"/>
			<path class="st1" d="M70,498h199.4c0.6-1.5,1-3.1,1-4.8V251.8c0-7-5.7-12.6-12.6-12.6H61.6c-7,0-12.6,5.7-12.6,12.6v241.4
				c0,7,5.7,12.6,12.6,12.6H70V498z"/>
			<path class="st2" d="M72.4,239.1H61.6c-7,0-12.6,5.7-12.6,12.6v269.5c0,7,5.7,12.6,12.6,12.6h10.8
				C72.4,533.8,72.4,239.1,72.4,239.1z"/>
			<path class="st0" d="M261.9,498H70c-7.3,0-13.3,5.9-13.3,13.3c0,7.3,5.9,13.3,13.3,13.3h191.8V498H261.9z"/>
		</g>
		<rect x="97.6" y="277.4" class="st0" width="143.3" height="14.7"/>
		<polygon class="st3" points="81.6,512.8 81.6,560 91.3,551.8 99.5,560 99.5,512.8 		"/>
		<g>
			<circle class="st0" cx="169.5" cy="385.8" r="68.4"/>
		</g>
	</g>
	<g>
		<path class="st4" d="M249.4,208h196v215.8l-40.5,39.6H249.4V208L249.4,208z"/>
		<path class="st5" d="M404.9,423.8h40.5l-40.5,39.6V423.8z"/>
		<path class="st6" d="M273.7,236.6h142.9v2.1H273.7V236.6z M273.7,356.1L273.7,356.1h65.4v2.1h-65.4V356.1L273.7,356.1z M273.7,345
			L273.7,345h142.9v2.1H273.7V345z M273.7,331.5L273.7,331.5h142.9v2.1H273.7V331.5z M273.7,317.9L273.7,317.9h142.9v2.1H273.7
			V317.9z M273.7,304.4L273.7,304.4h142.9v2.1H273.7V304.4z M273.7,290.8L273.7,290.8h142.9v2.1H273.7V290.8z M273.7,277.2
			L273.7,277.2h142.9v2.1H273.7V277.2z M273.7,263.8L273.7,263.8h142.9v2.1H273.7V263.8z M273.7,250.1L273.7,250.1h142.9v2.1H273.7
			V250.1z"/>
	</g>
	<g>
		<path class="st4" d="M305.4,273h196v215.8l-40.5,39.6H305.4V273L305.4,273z"/>
		<path class="st5" d="M460.9,488.8h40.5l-40.5,39.6V488.8z"/>
		<path class="st6" d="M329.7,301.6h142.9v2.1H329.7V301.6z M329.7,421.1L329.7,421.1h65.4v2.1h-65.4V421.1L329.7,421.1z M329.7,410
			L329.7,410h142.9v2.1H329.7V410z M329.7,396.5L329.7,396.5h142.9v2.1H329.7V396.5z M329.7,382.9L329.7,382.9h142.9v2.1H329.7
			V382.9z M329.7,369.4L329.7,369.4h142.9v2.1H329.7V369.4z M329.7,355.8L329.7,355.8h142.9v2.1H329.7V355.8z M329.7,342.2
			L329.7,342.2h142.9v2.1H329.7V342.2z M329.7,328.8L329.7,328.8h142.9v2.1H329.7V328.8z M329.7,315.1L329.7,315.1h142.9v2.1H329.7
			V315.1z"/>
	</g>
	<g>
		<path class="st7" d="M373.9,377.6c-0.1-2-1.7-3.6-3.8-3.6H255.4l-33.5-31.1c-0.7-0.6-1.6-1-2.6-1h-52.6c-1,0-2,0.4-2.7,1.2l-30,32
			c-0.7,0.7-1.1,1.7-1,2.7l7.5,171.3c0.1,2,1.7,3.6,3.8,3.6h233.4c1,0,2-0.4,2.7-1.2c0.7-0.7,1.1-1.7,1-2.8L373.9,377.6z"/>
		<path class="st8" d="M363.6,404.1l-218.7,7.3c-2.1,0.1-3.7,1.8-3.6,3.9l4.3,128.6c0.1,2.1,1.8,3.7,3.9,3.6l218.7-7.3
			c2.1-0.1,3.7-1.8,3.6-3.9l-4.3-128.6C367.4,405.6,365.6,404,363.6,404.1z"/>
		<path class="st9" d="M373.9,390.3L155.1,387c-2.1,0-3.8,1.6-3.8,3.7l-2,128.7c0,2.1,1.6,3.8,3.7,3.8l218.8,3.3
			c2.1,0,3.8-1.6,3.8-3.7l2-128.7C377.7,392,376,390.3,373.9,390.3z"/>
		<path class="st0" d="M385.3,397.8L168,371.5c-2.1-0.2-3.9,1.2-4.2,3.3l-15.4,127.7c-0.2,2.1,1.2,3.9,3.3,4.2L369,533
			c2.1,0.2,3.9-1.2,4.2-3.3L388.6,402C388.8,399.8,387.3,398,385.3,397.8z"/>
		<path class="st10" d="M410.5,361.9c-0.7-0.8-1.8-1.3-2.9-1.3H291.5c-0.9,0-1.9,0.4-2.6,1l-33.5,31.1h-81.2c-1.8,0-3.3,1.3-3.7,3
			l-30.1,152.8c-0.2,1.1,0.1,2.2,0.8,3.1c0.7,0.9,1.8,1.4,2.9,1.4h233.4c1.8,0,3.4-1.3,3.7-3.2L411.3,365
			C411.6,363.8,411.2,362.8,410.5,361.9z"/>
		<g>
			<path class="st7" d="M141.3,551.5c0.7,0.9,1.8,1.4,2.9,1.4h233.4c1.8,0,3.4-1.3,3.7-3.2L390,496l-249.5,52.3
				C140.3,549.5,140.6,550.6,141.3,551.5z"/>
		</g>
	</g>
</g>
</svg>
