<?xml version="1.0" encoding="utf-8"?>
<!-- Generator: Adobe Illustrator 24.0.3, SVG Export Plug-In . SVG Version: 6.00 Build 0)  -->
<svg version="1.1" id="Layer_1" xmlns="http://www.w3.org/2000/svg" xmlns:xlink="http://www.w3.org/1999/xlink" x="0px" y="0px"
	 width="550.2px" height="768px" viewBox="0 0 550.2 768" style="enable-background:new 0 0 550.2 768;" xml:space="preserve">
<style type="text/css">
	.st0{fill:#FFFFFF;}
	.st1{fill:#A6CF32;}
	.st2{fill:#D23C69;}
	.st3{fill:#FBAC31;}
	.st4{fill:#3B85C6;}
	.st5{fill:#EFEFF0;}
</style>
<title>Artboard 23</title>
<rect x="-22.5" y="-24.6" class="st0" width="598" height="810.1"/>
<g>
	<g id="XMLID_82_">
		<circle id="XMLID_83_" class="st1" cx="342.3" cy="475.7" r="120.9"/>
	</g>
	<g id="XMLID_1_">
		<path id="XMLID_6_" class="st2" d="M305.9,280.8c0-60.5-49-109.4-109.4-109.4S87,220.4,87,280.8s49,109.4,109.4,109.4
			C256.8,390.4,305.9,341.3,305.9,280.8z"/>
	</g>
	<g id="XMLID_326_">
		<path id="XMLID_331_" class="st3" d="M179.2,247.3h-54.5c-15.9,0-28.9,13-28.9,28.9v17.6c0,15.9,13,28.9,28.9,28.9h30.8
			c9.1,3.7,31.6,12.9,31.6,12.9l-5.5-13.1c14.7-1.3,26.3-13.7,26.3-28.6v-17.6C208.1,260.3,195.1,247.3,179.2,247.3z"/>
		<g id="XMLID_327_">
			<path id="XMLID_330_" class="st0" d="M132.6,284.9c0-4.1-3.3-7.4-7.4-7.4c-4.1,0-7.4,3.3-7.4,7.4c0,4.1,3.3,7.4,7.4,7.4
				C129.3,292.3,132.6,289,132.6,284.9z"/>
			<path id="XMLID_329_" class="st0" d="M159.4,284.9c0-4.1-3.3-7.4-7.4-7.4c-4.1,0-7.4,3.3-7.4,7.4c0,4.1,3.3,7.4,7.4,7.4
				C156.1,292.3,159.4,289,159.4,284.9z"/>
			<path id="XMLID_328_" class="st0" d="M186.2,284.9c0-4.1-3.3-7.4-7.4-7.4c-4.1,0-7.4,3.3-7.4,7.4c0,4.1,3.3,7.4,7.4,7.4
				C182.9,292.3,186.2,289,186.2,284.9z"/>
		</g>
	</g>
	<g>
		<path class="st4" d="M361.8,581.1L361.8,581.1c6.5-3.4,9-11.6,5.6-18.1l-21.3-40.3c-3.4-6.5-11.6-9-18.1-5.6l0,0
			c-6.5,3.4-9,11.6-5.6,18.1l21.3,40.3C347.2,582,355.3,584.5,361.8,581.1z"/>
		<path class="st4" d="M267.4,530.1c-9-17-4-37.7,10.8-48.9l0,0l71.8-62.5l28.1,53.1l28.1,53.1l-91.4,23.7
			C296.7,554.9,276.4,547.4,267.4,530.1z"/>
		
			<ellipse transform="matrix(0.8847 -0.4662 0.4662 0.8847 -176.347 230.6367)" class="st0" cx="378" cy="471.8" rx="28.1" ry="70.3"/>
		<path class="st5" d="M370.1,475.9c13.4,25.5,30.8,42.5,39,38.3s3.8-28.3-9.5-53.8s-30.8-42.5-39-38.3
			C352.6,426.4,356.8,450.5,370.1,475.9z"/>
		<path class="st3" d="M387.7,446.2c8.4-2.7,17.8,0.8,22.1,8.9c4.4,8.2,1.8,18.1-5.4,23.4l-21,18.3c-4.5-5.9-9-12.9-13.2-20.8
			c-4.2-7.9-7.5-15.7-9.8-22.8L387.7,446.2L387.7,446.2z"/>
		<g>
			<path class="st0" d="M352.3,402.2L352.3,402.2c3.3,0,6-2.7,6-6v-30.9c0-3.3-2.7-6-6-6l0,0c-3.3,0-6,2.7-6,6v30.9
				C346.3,399.4,349,402.2,352.3,402.2z"/>
			<path class="st0" d="M334.2,405.8L334.2,405.8c2.9-1.6,3.8-5.3,2.2-8.2L323.9,377c-1.6-2.9-5.3-3.8-8.2-2.2l0,0
				c-2.9,1.6-3.8,5.3-2.2,8.2l12.4,20.7C327.6,406.5,331.3,407.5,334.2,405.8z"/>
			<path class="st0" d="M371.8,405.8L371.8,405.8c-2.9-1.6-3.8-5.3-2.2-8.2l11.6-20.3c1.6-2.9,5.3-3.8,8.2-2.2l0,0
				c2.9,1.6,3.8,5.3,2.2,8.2l-11.6,20.3C378.3,406.5,374.6,407.5,371.8,405.8z"/>
		</g>
	</g>
	<g id="XMLID_364_">
		<path id="XMLID_369_" class="st1" d="M219.9,232.3H270c14.6,0,26.6,12,26.6,26.6v16.2c0,14.6-12,26.6-26.6,26.6h-28.4
			c-8.4,3.4-29.2,12-29.2,12l5.1-12.1c-13.6-1.1-24.3-12.6-24.3-26.4v-16.2C193.3,244.2,205.3,232.3,219.9,232.3z"/>
		<g id="XMLID_365_">
			<path id="XMLID_368_" class="st0" d="M209.3,254.7h71.3c1,0,2-0.8,2-2v-0.1c0-1-0.8-2-2-2h-71.3c-1,0-2,0.8-2,2v0.1
				C207.5,253.9,208.3,254.7,209.3,254.7z"/>
			<path id="XMLID_367_" class="st0" d="M209.3,266.8h71.3c1,0,2-0.8,2-2v-0.1c0-1-0.8-2-2-2h-71.3c-1,0-2,0.8-2,2v0.1
				C207.5,266,208.3,266.8,209.3,266.8z"/>
			<path id="XMLID_366_" class="st0" d="M238.2,278.9h42.5c1,0,2-0.8,2-2v-0.1c0-1-0.8-2-2-2h-42.5c-1,0-2,0.8-2,2v0.1
				C236.2,278,237.1,278.9,238.2,278.9z"/>
		</g>
	</g>
</g>
</svg>
