<?xml version="1.0" encoding="UTF-8" standalone="no"?>
<!DOCTYPE svg PUBLIC "-//W3C//DTD SVG 1.1//EN" "http://www.w3.org/Graphics/SVG/1.1/DTD/svg11.dtd">
<svg width="100%" height="100%" viewBox="0 0 276 168" version="1.1" xmlns="http://www.w3.org/2000/svg" xmlns:xlink="http://www.w3.org/1999/xlink" xml:space="preserve" xmlns:serif="http://www.serif.com/" style="fill-rule:evenodd;clip-rule:evenodd;stroke-linejoin:round;stroke-miterlimit:2;">
    <path id="path" d="M58.4,165.9C58.4,165.9 71.4,123.8 58.4,110.8C47,99.4 21.6,122.2 10.2,110.8C-1.1,99.5 -1.1,74 10.2,62.6C21.6,51.2 47,74 58.4,62.6C71.4,49.6 58.4,7.5 58.4,7.5C58.4,7.5 100.5,-5.5 113.5,7.5C124.9,18.9 102.1,44.3 113.5,55.7C124.9,67.1 150.3,67.1 161.7,55.7C173.1,44.3 150.3,18.9 161.7,7.5C174.7,-5.5 216.8,7.5 216.8,7.5C216.8,7.5 203.8,49.6 216.8,62.6C228.2,74 253.6,51.2 265,62.6C276.4,74 276.4,99.4 265,110.8C253.6,122.2 228.2,99.4 216.8,110.8C203.8,123.8 216.8,165.9 216.8,165.9L58.4,165.9Z" style="fill:rgb(77,150,209);fill-rule:nonzero;"/>
    <clipPath id="_clip1">
        <path id="path1" serif:id="path" d="M58.4,165.9C58.4,165.9 71.4,123.8 58.4,110.8C47,99.4 21.6,122.2 10.2,110.8C-1.1,99.5 -1.1,74 10.2,62.6C21.6,51.2 47,74 58.4,62.6C71.4,49.6 58.4,7.5 58.4,7.5C58.4,7.5 100.5,-5.5 113.5,7.5C124.9,18.9 102.1,44.3 113.5,55.7C124.9,67.1 150.3,67.1 161.7,55.7C173.1,44.3 150.3,18.9 161.7,7.5C174.7,-5.5 216.8,7.5 216.8,7.5C216.8,7.5 203.8,49.6 216.8,62.6C228.2,74 253.6,51.2 265,62.6C276.4,74 276.4,99.4 265,110.8C253.6,122.2 228.2,99.4 216.8,110.8C203.8,123.8 216.8,165.9 216.8,165.9L58.4,165.9Z" clip-rule="nonzero"/>
    </clipPath>
    <g clip-path="url(#_clip1)">
        <g>
            <g>
                <rect x="-108.7" y="-162" width="647.4" height="337.6" style="fill:rgb(249,240,202);"/>
                <path d="M-105.2,174.1L542.2,174.1L542.2,-165.7C433.3,-32.6 164.1,169.8 -105.2,126.9C-105.4,126.9 -105.2,174.1 -105.2,174.1Z" style="fill:rgb(247,232,181);fill-rule:nonzero;"/>
                <g>
                    <path d="M260.4,30.2L260.4,32.1L258.1,32.1L258.1,178.6L260.4,178.6L260.4,-162L258.1,-162L258.1,30.2L260.4,30.2Z" style="fill:rgb(224,212,160);fill-rule:nonzero;"/>
                    <path d="M541,30.2L-108.7,30.2L-108.7,32.1L541,32.1L541,30.2Z" style="fill:rgb(224,212,160);fill-rule:nonzero;"/>
                </g>
            </g>
        </g>
        <g>
            <path d="M7,56.9L90.6,32.1C90.6,32.1 132.8,-86.2 80.4,-102.7C67.3,-123.6 0.7,-124 -8.4,-73.2C-17.5,-22.3 7,56.9 7,56.9Z" style="fill:rgb(153,57,62);fill-rule:nonzero;"/>
            <path d="M47.9,-62.2C29.2,-75 18,-93.5 17.9,-109.2C5.2,-102.7 -5.2,-91.1 -8.4,-73.2C-17.5,-22.3 7.8,64.8 7.8,64.8L91.4,40C91.4,40 106.8,-15.8 106.8,-51.2C92,-44.8 67.4,-49 47.9,-62.2Z" style="fill:rgb(137,44,53);fill-rule:nonzero;"/>
            <path d="M57.2,-41C36.4,-41 27.6,19.8 8.5,65L83.2,44.6C80.9,14.4 76,-41 57.2,-41Z" style="fill:rgb(117,35,47);fill-rule:nonzero;"/>
            <g>
                <path d="M142.8,108.5C139.8,94.3 90.7,16.6 72.4,15.7C63.8,15.3 115.2,94.9 122.7,115.5C125.6,123.3 145.2,119.8 142.8,108.5Z" style="fill:rgb(242,238,221);fill-rule:nonzero;"/>
                <path d="M132.5,109.6C126.6,93.6 76,15.8 72.4,15.7C63.8,15.3 115.2,94.9 122.7,115.5C124.6,120.6 133.6,120.9 139,117.3C136.7,116.7 133.2,111.6 132.5,109.6Z" style="fill:rgb(221,210,191);fill-rule:nonzero;"/>
                <path d="M138.1,123.2C140.7,123.1 149.1,119.1 149.1,113.4C149.1,107.7 138.5,97.2 128.5,102.2C124.9,104 117.8,108.9 118.2,109.3C118.1,109.3 124.1,123.7 138.1,123.2Z" style="fill:rgb(77,77,77);fill-rule:nonzero;"/>
                <path d="M145.5,107.7C145.5,108.1 145.5,108.5 145.3,108.9C144.3,111.7 139.4,112.7 134.4,110.9C129.4,109.2 126.2,105.6 127,102.7C123.1,104.5 117.7,108.9 118.1,109.2C118.1,109.2 124.1,123.7 138.1,123.1C140.7,123 149.1,119 149.1,113.3C149.1,111.5 147.7,109.5 145.5,107.7Z" style="fill:rgb(51,51,51);fill-rule:nonzero;"/>
            </g>
            <path d="M96.9,192C94.7,177.9 91.8,166.8 87.8,161.8C69.8,138.6 53.5,125.3 47.7,145.3C44.4,156.7 30.2,158.2 20,193.1C12.4,219.5 104.8,242.5 96.9,192Z" style="fill:rgb(77,77,77);fill-rule:nonzero;"/>
            <path d="M51.7,193.3C58.2,169 66.7,152.5 76.2,148C72.6,126.2 53.5,126.1 47.8,146.1C44.5,157.6 30.2,158.7 20,194C12.4,220.2 44,222.4 51.7,193.3Z" style="fill:rgb(51,51,51);fill-rule:nonzero;"/>
            <path d="M36.8,159.4C44.3,128.2 15.5,34.5 22.6,21C22.6,21 89.6,48.4 89.4,66.6C89.1,102.2 85.5,144.7 88.6,162.5L36.8,159.4Z" style="fill:rgb(221,210,191);fill-rule:nonzero;"/>
            <path d="M22,22.3C21.2,35.7 30.4,91.7 35,95.7C46.2,105.2 89.4,102.1 95.7,90.3C100.8,80.7 77.9,19.2 74.8,16.4C71.7,13.6 22.4,15.6 22,22.3Z" style="fill:rgb(242,238,221);fill-rule:nonzero;"/>
            <path d="M47,88.5C42.2,84.7 22.1,20.5 22,22.3C21.2,35.7 29.7,87.9 35,94.9C43.2,105.6 99.6,102.8 95.7,86.3C79.4,92.5 56.2,95.8 47,88.5Z" style="fill:rgb(221,210,191);fill-rule:nonzero;"/>
            <path d="M31,17.9C34.5,33.7 40.5,72 66.5,71.6C92.5,71.2 67.3,14.9 67.3,14.9C52.8,13.7 40.4,14.1 31,17.9Z" style="fill:rgb(255,184,130);fill-rule:nonzero;"/>
            <path d="M67.3,14.9C67,14.9 66.7,14.9 66.4,14.8C71,25.1 88.8,69.7 65,70C59.1,70.1 53.8,67.3 49.1,62.9C54.2,68.3 60,71.7 66.6,71.6C92.6,71.2 67.3,14.9 67.3,14.9Z" style="fill:rgb(255,149,102);fill-rule:nonzero;"/>
            <path d="M33.8,-26.6L37,16.4L50.4,25.8L61,15.8L51.2,-24.6L33.8,-26.6Z" style="fill:rgb(255,184,130);fill-rule:nonzero;"/>
            <path d="M29.9,-24.9C32.5,-5.4 68.3,11.4 68.3,11.4C68.3,11.4 89.8,-13.5 90.2,-42.7C90.5,-64 86.8,-84 61.1,-83.2C40,-82.5 25.1,-60 29.9,-24.9Z" style="fill:rgb(255,184,130);fill-rule:nonzero;"/>
            <path d="M-23.8,106C-23.1,93.4 6.9,21 30.5,18.1C38.8,17.1 -0.4,91.8 -4.5,110.6C-6.2,117.7 -24.4,116.1 -23.8,106Z" style="fill:rgb(242,238,221);fill-rule:nonzero;"/>
            <path d="M-20.4,106.4C-18.2,66.8 31.7,17.7 31.7,17.7C8,18 -24.5,94.4 -25.2,107C-25.6,114.3 -15.6,116.6 -9.3,114.7C-14.9,114.6 -20.7,112 -20.4,106.4Z" style="fill:rgb(221,210,191);fill-rule:nonzero;"/>
            <g>
                <g>
                    <path d="M31.3,169.5C27.3,159.6 -2.4,109.7 -5.6,106.7C-8.8,103.7 -22.4,98.9 -24.4,106.9C-26.4,114.9 25.5,170.7 25.5,170.7L31.3,169.5Z" style="fill:rgb(255,184,130);fill-rule:nonzero;"/>
                    <path d="M-11.8,119.6C-10.6,114.7 -4.5,114.9 0.7,116.4C-2.6,111 -5,107.4 -5.6,106.7C-8.8,103.7 -23.5,98.4 -25.5,106.3C-27.5,114.3 25.5,170.7 25.5,170.7L27.5,170.5C9,149 -13.2,125.4 -11.8,119.6Z" style="fill:rgb(255,149,102);fill-rule:nonzero;"/>
                </g>
                <g>
                    <path d="M48.5,184L39,173.4L48.1,178.9C49.2,179.5 49.9,178.8 50.2,178.4L45.8,175L44.4,174C43.1,172.9 41.9,172 40.7,171.3L38.9,169.8L26.1,165.9L24.9,167.3L24.3,169.7C24.3,169.7 26.6,173.6 30.2,176.5C32.5,181 35.4,184.3 35.4,184.3C37.3,186 37.2,184 37.2,184C35.3,182.4 33.7,178.8 33.4,178.2C33.2,177.8 33.1,177.4 32.9,177L33.3,176.9L42.3,187.1C43.7,188.4 44.1,186.3 44.1,186.3L37.8,178L36.6,176L37.4,175.8L37.3,175.6L37.5,175.8L46.4,185.4C48.1,187 49.7,185.2 49.7,185.2L48.5,184Z" style="fill:rgb(255,184,130);fill-rule:nonzero;"/>
                </g>
            </g>
            <g>
                <path d="M91.7,174.6C94,166.8 121.4,114.4 124,112.1C126.6,109.8 138.5,106.2 141.7,112.7C144.8,119.2 95.3,174.4 95.3,174.4L91.7,174.6Z" style="fill:rgb(255,184,130);fill-rule:nonzero;"/>
                <path d="M125.5,111.1C129.2,110.7 132.8,111.4 134.3,114.5C136.9,119.8 106.2,159.3 94.2,174.4L95.3,174.3C95.3,174.3 146.3,119 143.1,112.5C140.4,106.8 129.9,109 125.5,111.1Z" style="fill:rgb(255,149,102);fill-rule:nonzero;"/>
            </g>
        </g>
        <g>
            <path d="M297.4,118.2C297.5,113.4 308,100 310.4,87C316.7,53.2 320,4.6 311.2,11.5C299.1,21 250.8,110.9 250.6,149.2L331.7,155.3L330.9,115.9L297.4,118.2Z" style="fill:rgb(81,59,62);fill-rule:nonzero;"/>
            <path d="M311.2,11.5C311.4,11.4 311.5,11.3 311.7,11.2C293.5,37.1 249.5,134.9 255.5,144.4C261.5,153.9 331.4,146.4 331.4,146.4L331.6,155.3C331.6,155.3 252.7,161.2 247.4,149.2C242.1,137.2 299.1,21 311.2,11.5Z" style="fill:rgb(66,46,49);fill-rule:nonzero;"/>
        </g>
    </g>
</svg>
