<?xml version="1.0" encoding="UTF-8" standalone="no"?>
<!DOCTYPE svg PUBLIC "-//W3C//DTD SVG 1.1//EN" "http://www.w3.org/Graphics/SVG/1.1/DTD/svg11.dtd">
<svg width="100%" height="100%" viewBox="0 0 218 168" version="1.1" xmlns="http://www.w3.org/2000/svg" xmlns:xlink="http://www.w3.org/1999/xlink" xml:space="preserve" xmlns:serif="http://www.serif.com/" style="fill-rule:evenodd;clip-rule:evenodd;stroke-linejoin:round;stroke-miterlimit:2;">
    <path id="path" d="M1.2,1.8L159.5,1.8C159.5,1.8 146.5,43.9 159.5,56.9C170.9,68.3 196.3,45.5 207.7,56.9C219.1,68.3 219.1,93.7 207.7,105.1C196.3,116.5 170.9,93.7 159.5,105.1C146.5,118.1 159.5,160.2 159.5,160.2C159.5,160.2 117.4,173.2 104.4,160.2C93,148.8 115.8,123.4 104.4,112C93,100.6 67.6,100.6 56.2,112C44.8,123.4 67.6,148.8 56.2,160.2C43.2,173.2 1.1,160.2 1.1,160.2C1.2,107.4 1.2,54.6 1.2,1.8Z" style="fill:rgb(49,149,210);fill-rule:nonzero;"/>
    <clipPath id="_clip1">
        <path id="path1" serif:id="path" d="M1.2,1.8L159.5,1.8C159.5,1.8 146.5,43.9 159.5,56.9C170.9,68.3 196.3,45.5 207.7,56.9C219.1,68.3 219.1,93.7 207.7,105.1C196.3,116.5 170.9,93.7 159.5,105.1C146.5,118.1 159.5,160.2 159.5,160.2C159.5,160.2 117.4,173.2 104.4,160.2C93,148.8 115.8,123.4 104.4,112C93,100.6 67.6,100.6 56.2,112C44.8,123.4 67.6,148.8 56.2,160.2C43.2,173.2 1.1,160.2 1.1,160.2C1.2,107.4 1.2,54.6 1.2,1.8Z" clip-rule="nonzero"/>
    </clipPath>
    <g clip-path="url(#_clip1)">
        <g>
            <rect x="-7.6" y="-9.5" width="232.6" height="181.7" style="fill:rgb(249,240,202);"/>
            <rect x="41.8" y="-22.3" width="2.3" height="233.5" style="fill:rgb(224,212,160);"/>
            <path d="M108.1,209.5L191.7,184.7C191.7,184.7 233.9,66.4 181.5,49.9C168.5,29 101.8,28.6 92.8,79.5C83.7,130.3 108.1,209.5 108.1,209.5Z" style="fill:rgb(153,57,62);fill-rule:nonzero;"/>
            <path d="M149.1,90.3C130.3,77.5 119.2,59.1 119,43.3C106.3,49.8 95.9,61.4 92.7,79.3C83.6,130.2 108.8,217.2 108.8,217.2L192.4,192.4C192.4,192.4 207.8,136.6 207.8,101.2C193.1,107.7 168.5,103.5 149.1,90.3Z" style="fill:rgb(137,44,53);fill-rule:nonzero;"/>
            <path d="M158.4,111.6C137.6,111.6 128.8,172.4 109.7,217.6L184.4,197.2C182,166.9 177.2,111.6 158.4,111.6Z" style="fill:rgb(117,35,47);fill-rule:nonzero;"/>
            <path d="M135,125.9L138.1,168.9L151.5,178.4L162.2,168.4L152.4,127.9L135,125.9Z" style="fill:rgb(255,184,130);fill-rule:nonzero;"/>
            <path d="M131,127.6C133.6,147.1 169.4,163.9 169.4,163.9C169.4,163.9 190.9,139 191.3,109.8C191.6,88.5 187.9,68.5 162.2,69.3C141.1,70 126.3,92.5 131,127.6Z" style="fill:rgb(255,184,130);fill-rule:nonzero;"/>
            <path d="M135,127.2C143.4,109.3 156.3,69.1 140.7,56.7C129.7,47.9 118.9,84.8 124.9,108.8C127.2,118.1 135,127.2 135,127.2Z" style="fill:rgb(137,44,53);fill-rule:nonzero;"/>
            <path d="M131.8,113.2C125.2,108.8 117.1,107.4 117.6,114.8C118.1,122.2 129.7,129.3 135.5,131.9C141.3,134.5 134.2,114.7 131.8,113.2Z" style="fill:rgb(255,184,130);fill-rule:nonzero;"/>
            <path d="M130.2,115.6C126.6,113.2 122.1,112.4 122.4,116.5C122.7,120.5 129,124.4 132.2,125.9C135.4,127.2 131.5,116.4 130.2,115.6Z" style="fill:rgb(234,123,89);fill-rule:nonzero;"/>
            <path d="M132.5,120.2C129.6,118.3 126,117.7 126.3,120.9C126.5,124.1 131.6,127.3 134.2,128.4C136.7,129.6 133.5,120.9 132.5,120.2Z" style="fill:rgb(255,184,130);fill-rule:nonzero;"/>
            <path d="M146.1,62.6C143.1,53.9 136.4,48.4 131.1,50.2C125.8,52 124,60.5 127,69.2C130,77.9 136.7,83.4 142,81.6C147.3,79.8 149.1,71.2 146.1,62.6Z" style="fill:rgb(153,57,62);fill-rule:nonzero;"/>
            <path d="M171.1,121.4C173.6,125.2 175.7,130.6 174.4,131.9C173.1,133.2 166.6,133.1 166.1,132.7C165.6,132.4 171.1,121.4 171.1,121.4Z" style="fill:rgb(234,123,89);fill-rule:nonzero;"/>
            <path d="M169.3,120.5C171.8,124.3 173.9,129.7 172.6,131C171.3,132.3 164.8,132.2 164.3,131.8C163.8,131.4 169.3,120.5 169.3,120.5Z" style="fill:rgb(255,184,130);fill-rule:nonzero;"/>
            <path d="M192.8,100.7L193.3,99.7C189.8,93.8 181.6,91.1 177.7,91.1L177.2,93.8C180.4,93.5 188.7,95.8 192.8,100.7Z" style="fill:rgb(153,57,62);fill-rule:nonzero;"/>
            <path d="M145.7,96.5C152.3,91.9 164.3,91.2 167.1,91.5L167,88.7C163.8,88.5 152.6,89.7 144.9,95.5L145.7,96.5Z" style="fill:rgb(153,57,62);fill-rule:nonzero;"/>
            <path d="M173.5,143.2L173.1,142.3C172.6,142.4 161.9,145.3 151.7,134L150.2,135.3C159.6,145.3 168.5,144.7 173.5,143.2Z" style="fill:rgb(234,123,89);fill-rule:nonzero;"/>
            <path d="M160.4,146.8C160.5,146.2 161.9,146.7 163.8,147.1C165.7,147.5 167.3,147.7 167.2,148.4C167.1,149 165.4,149.2 163.6,148.8C161.6,148.3 160.2,147.4 160.4,146.8Z" style="fill:rgb(234,123,89);fill-rule:nonzero;"/>
            <path d="M160.3,112.2C161.6,110.8 159.8,105.2 154.6,103.2C149.5,101.3 146.6,104.6 146.3,106C146.1,107.4 146.6,109.9 149.6,111.4C152.5,112.8 155,112.6 156.5,112.6C158.3,112.6 159.6,113 160.3,112.2Z" style="fill:white;fill-rule:nonzero;"/>
            <circle cx="154.4" cy="106.7" r="4.6" style="fill:rgb(57,23,11);"/>
            <circle cx="152.7" cy="105.7" r="1.8" style="fill:white;"/>
            <path d="M160.7,111C160.7,111 161.5,108.4 158.5,104.8C155.5,101.2 151.2,101.7 150.1,101.4C148.9,101.1 147.7,101.4 148,101.7C148.3,102 147.2,102.9 146.3,102.6C145.4,102.3 146.2,103.4 146.2,103.7C146.2,104 144.6,103.8 144.4,104.2C144.3,104.5 145.2,105.4 145,105.4C144.7,105.5 143.8,106.1 144.2,106.4C144.6,106.7 145.4,107.8 145.8,108.3C146.1,108.8 147.1,109.2 147.1,109.2C147.1,109.2 146.1,107 146.9,105.5C147.7,104 149.6,102.5 152.5,103C155.5,103.5 157.2,105 158.5,106.3C159.8,107.7 160.7,111 160.7,111Z" style="fill:rgb(57,23,11);fill-rule:nonzero;"/>
            <path d="M177,111.6C175.9,110.1 178.4,105.1 183.5,103.9C188.6,102.8 190.9,106.3 190.9,107.7C190.9,109 190.1,111.3 187.1,112.3C184.2,113.3 181.8,112.7 180.5,112.5C178.8,112.2 177.6,112.4 177,111.6Z" style="fill:white;fill-rule:nonzero;"/>
            <circle cx="183.3" cy="107.1" r="4.3" style="fill:rgb(57,23,11);"/>
            <path d="M180,106.1C179.9,107.1 180.7,107.9 181.6,107.9C182.6,108 183.4,107.2 183.4,106.3C183.5,105.3 182.7,104.5 181.8,104.5C180.9,104.4 180.1,105.1 180,106.1Z" style="fill:white;fill-rule:nonzero;"/>
            <path d="M176.8,110.4C176.8,110.4 176.4,107.8 179.7,104.8C183,101.8 186.9,102.9 188.1,102.8C189.2,102.7 190.4,103.1 190,103.4C189.6,103.7 190.6,104.6 191.5,104.5C192.4,104.4 191.4,105.3 191.4,105.5C191.4,105.8 192.9,105.8 193,106.2C193.1,106.5 192,107.2 192.3,107.3C192.5,107.4 193.3,108.1 192.9,108.4C192.5,108.7 191.6,109.6 191.2,110C190.8,110.4 189.9,110.7 189.9,110.7C189.9,110.7 191.2,108.7 190.6,107.3C190.1,105.8 188.5,104.1 185.6,104.2C182.7,104.3 180.9,105.5 179.6,106.5C178.1,107.4 176.8,110.4 176.8,110.4Z" style="fill:rgb(57,23,11);fill-rule:nonzero;"/>
        </g>
    </g>
</svg>
