<?xml version="1.0" encoding="UTF-8" standalone="no"?>
<!DOCTYPE svg PUBLIC "-//W3C//DTD SVG 1.1//EN" "http://www.w3.org/Graphics/SVG/1.1/DTD/svg11.dtd">
<svg width="100%" height="100%" viewBox="0 0 171 221" version="1.1" xmlns="http://www.w3.org/2000/svg" xmlns:xlink="http://www.w3.org/1999/xlink" xml:space="preserve" xmlns:serif="http://www.serif.com/" style="fill-rule:evenodd;clip-rule:evenodd;stroke-linejoin:round;stroke-miterlimit:2;">
    <path id="path" d="M167.1,2.7L167.1,161C167.1,161 125,148 112,161C100.6,172.4 123.4,197.8 112,209.2C100.6,220.6 75.2,220.6 63.8,209.2C52.4,197.8 75.2,172.4 63.8,161C50.8,148 8.7,161 8.7,161C8.7,161 -4.3,118.9 8.7,105.9C20.1,94.5 45.5,117.3 56.9,105.9C68.3,94.5 68.3,69.1 56.9,57.7C45.5,46.3 20.1,69.1 8.7,57.7C-4.3,44.7 8.7,2.6 8.7,2.6C61.6,2.7 114.4,2.7 167.1,2.7Z" style="fill:rgb(76,192,239);fill-rule:nonzero;"/>
    <clipPath id="_clip1">
        <path id="path1" serif:id="path" d="M167.1,2.7L167.1,161C167.1,161 125,148 112,161C100.6,172.4 123.4,197.8 112,209.2C100.6,220.6 75.2,220.6 63.8,209.2C52.4,197.8 75.2,172.4 63.8,161C50.8,148 8.7,161 8.7,161C8.7,161 -4.3,118.9 8.7,105.9C20.1,94.5 45.5,117.3 56.9,105.9C68.3,94.5 68.3,69.1 56.9,57.7C45.5,46.3 20.1,69.1 8.7,57.7C-4.3,44.7 8.7,2.6 8.7,2.6C61.6,2.7 114.4,2.7 167.1,2.7Z" clip-rule="nonzero"/>
    </clipPath>
    <g clip-path="url(#_clip1)">
        <g>
            <g>
                <rect x="-475" y="-8.5" width="647.4" height="337.6" style="fill:rgb(249,240,202);"/>
                <path d="M-471.4,327.6L176,327.6L176,-12.3C67,120.9 -202.1,323.3 -471.4,280.4C-471.6,280.4 -471.4,327.6 -471.4,327.6Z" style="fill:rgb(247,232,181);fill-rule:nonzero;"/>
                <g>
                    <path d="M174.8,183.6L-475,183.6L-475,185.5L174.8,185.5L174.8,183.6Z" style="fill:rgb(224,212,160);fill-rule:nonzero;"/>
                </g>
            </g>
        </g>
        <g>
            <path d="M30.7,124.3C59.3,98.6 76.3,67.8 72.3,60.4C68.4,52.9 61.3,51.7 61.3,51.7C61.3,51.7 70.8,45 56.2,34.3C41.6,23.7 -1.8,11 -19.2,26.4C-36.6,41.8 -22.7,105.7 -22.7,105.7L30.7,124.3Z" style="fill:rgb(153,57,62);fill-rule:nonzero;"/>
            <path d="M12.4,38.2C39.4,38.2 53.8,49.3 53.8,36.2C53.8,34.8 53.5,33.5 53,32.2C54.1,32.9 55.2,33.6 56.1,34.2C70.7,44.8 61.2,51.6 61.2,51.6C61.2,51.6 68.3,52.8 72.2,60.3C76.1,67.8 59.2,98.6 30.6,124.2L-22.8,105.6C-22.8,105.6 -28.9,77.2 -27.9,53.8C-19.1,57.6 -0.2,38.2 12.4,38.2Z" style="fill:rgb(132,42,51);fill-rule:nonzero;"/>
            <path d="M58,317.9C63.8,283.2 76,179.6 73.9,173.3C71.8,167 21.2,141.2 10.1,143.3C-0.9,145.4 -49.8,157.5 -56.2,166.4C-62.5,175.3 -56.7,319.9 -56.7,319.9L58,317.9Z" style="fill:rgb(81,59,62);fill-rule:nonzero;"/>
            <g>
                <path d="M-55.8,203.5C-52.3,253.7 -34.2,289.7 -2.2,292.4C52.7,297 50.6,237.2 70.9,191.3C69.1,220 73.8,349.9 69.9,360.9C66,371.9 -52.7,375.1 -55.1,362.5C-57.5,349.9 -59,260.4 -59.1,215.4C-59.1,190.2 -56.9,188.2 -55.8,203.5Z" style="fill:rgb(66,46,49);fill-rule:nonzero;"/>
            </g>
            <path d="M55.1,268.5C55.7,263.1 54.8,246.3 56.4,231.9C59.7,201.3 67,167 74.1,173.3C84.4,182.6 100.1,262.9 95.2,300.4L26.8,308.5L21.9,268L55.1,268.5Z" style="fill:rgb(81,59,62);fill-rule:nonzero;"/>
            <path d="M89.1,296C98.2,289.4 84.6,200.3 74.8,174.1C85.4,186.9 107.1,298.9 97.4,304.2C87.7,309.5 26.6,308.3 26.6,308.3L25.6,300.1C25.7,300.2 80,302.6 89.1,296Z" style="fill:rgb(66,46,49);fill-rule:nonzero;"/>
            <path d="M-28.8,153.6C-13.3,148.6 3.6,142.4 9.6,141.2C14.8,140.2 29.6,147.6 43.2,154.1L-1.9,260.5L-28.8,153.6Z" style="fill:rgb(242,238,221);fill-rule:nonzero;"/>
            <path d="M-1.7,165.1L-5.4,169.1L-20.2,150.7L-15.2,148.3L3.4,157.4L32.1,148.4L36.7,151.3L12.1,169.4L9.4,165.8L7.8,168L9,234.9L4.6,245.6L-7.3,239.6L-9,232.4L0,167.7L-1.7,165.1Z" style="fill:rgb(226,218,186);fill-rule:nonzero;"/>
            <path d="M30,118.7L31.3,148.7L6.7,155L-16,149.1L-11.9,114.8L30,118.7Z" style="fill:rgb(255,184,130);fill-rule:nonzero;"/>
            <path d="M-2.2,267L7.5,239.1L6.7,155L3.3,154.6L-8,238.5L-2.2,267Z" style="fill:rgb(232,77,96);fill-rule:nonzero;"/>
            <path d="M3.6,171L10.3,162L8.6,154.1L1.3,153.1L-1.9,162L3.6,171Z" style="fill:rgb(232,77,96);fill-rule:nonzero;"/>
            <path d="M12.1,169.1L6.1,153.7L31.6,143.9L34.7,149.3L12.1,169.1Z" style="fill:rgb(242,238,221);fill-rule:nonzero;"/>
            <path d="M-5.4,169.1L3.8,153L-15.9,145.9L-18.5,149.3L-5.4,169.1Z" style="fill:rgb(242,238,221);fill-rule:nonzero;"/>
            <path d="M43.8,58.5C37.1,99.9 30,128 26.6,133.7C16,151.4 -23.1,144.7 -23.1,144.7C-23.1,144.7 -46.4,70 -6.9,45C25.2,24.6 43.8,58.5 43.8,58.5Z" style="fill:rgb(255,184,130);fill-rule:nonzero;"/>
            <path d="M53.4,57.6C48.1,40.5 29.7,36.7 25.8,65.9C21.9,95.1 22.3,113.2 22.3,113.2L32.6,113.2C32.5,113.2 56.6,67.8 53.4,57.6Z" style="fill:rgb(132,42,51);fill-rule:nonzero;"/>
            <path d="M29.1,97.4C35.4,87.4 48,87 48.4,96.1C48.8,105.2 31.2,120.2 27.9,115.5C24.5,110.8 26.9,100.9 29.1,97.4Z" style="fill:rgb(255,184,130);fill-rule:nonzero;"/>
            <path d="M32.2,99.4C36.1,93.2 44,92.9 44.3,98.6C44.5,104.3 33.6,113.7 31.5,110.7C29.3,107.8 30.8,101.6 32.2,99.4Z" style="fill:rgb(234,123,89);fill-rule:nonzero;"/>
            <path d="M31.1,103.2C33.9,98.8 39.4,98.6 39.5,102.6C39.7,106.6 32,113.1 30.5,111.1C29.1,109 30.1,104.7 31.1,103.2Z" style="fill:rgb(255,184,130);fill-rule:nonzero;"/>
            <g>
                <path d="M-3.8,68.9C-7,85.1 -11.3,106.4 -11.3,109.5C-11.3,112.6 -1.8,116.3 -0.1,115.3C1.6,114.3 -2.1,68.9 -2.1,68.9L-3.8,68.9Z" style="fill:rgb(255,184,130);fill-rule:nonzero;"/>
                <g>
                    <path d="M14.1,119.3L15,121.2C10,126.6 -0.9,127.3 -19.3,123.6L-19.1,122.8C-1.4,126.4 9.6,124.1 14.1,119.3Z" style="fill:rgb(234,123,89);fill-rule:nonzero;"/>
                </g>
                <g>
                    <path d="M3.3,88.2C3.5,84 4.3,79 10.9,77.6C17.5,76.2 20.2,82.3 20,84.5C19.7,86.7 17.8,89.7 14.2,89.9C10.6,90.1 7.4,89.5 6.1,89.7C4.8,89.7 3.2,89.1 3.3,88.2Z" style="fill:white;fill-rule:nonzero;"/>
                    <path d="M6.1,83.1C6,86.1 8.3,88.6 11.3,88.7C14.3,88.8 16.8,86.5 16.9,83.5C17,80.5 14.7,78 11.7,77.9C8.6,77.7 6.2,80.1 6.1,83.1Z" style="fill:rgb(57,23,11);fill-rule:nonzero;"/>
                    <path d="M11.1,81.1C11,82.4 12.1,83.6 13.5,83.6C14.8,83.7 16,82.6 16,81.2C16.1,79.9 15,78.7 13.6,78.7C12.3,78.7 11.2,79.8 11.1,81.1Z" style="fill:white;fill-rule:nonzero;"/>
                </g>
                <path d="M23.4,66.2C24.5,67.5 24,78.1 23.1,79C22.2,79.9 -0.7,78.6 -2,77.7C-3.3,76.8 -3.1,65.9 -2.4,64.6C-1.7,63.2 22.2,64.8 23.4,66.2Z" style="fill:rgb(153,57,62);fill-rule:nonzero;"/>
            </g>
        </g>
    </g>
</svg>
