<?xml version="1.0" encoding="UTF-8" standalone="no"?>
<!DOCTYPE svg PUBLIC "-//W3C//DTD SVG 1.1//EN" "http://www.w3.org/Graphics/SVG/1.1/DTD/svg11.dtd">
<svg width="100%" height="100%" viewBox="0 0 275 168" version="1.1" xmlns="http://www.w3.org/2000/svg" xmlns:xlink="http://www.w3.org/1999/xlink" xml:space="preserve" xmlns:serif="http://www.serif.com/" style="fill-rule:evenodd;clip-rule:evenodd;stroke-linejoin:round;stroke-miterlimit:2;">
    <path id="path" d="M216.4,1.8C216.4,1.8 203.4,43.9 216.4,56.9C227.8,68.3 253.2,45.5 264.6,56.9C276,68.3 276,93.7 264.6,105.1C253.2,116.5 227.8,93.7 216.4,105.1C203.4,118.1 216.4,160.2 216.4,160.2C216.4,160.2 174.3,173.2 161.3,160.2C149.9,148.8 172.7,123.4 161.3,112C149.9,100.6 124.5,100.6 113.1,112C101.7,123.4 124.5,148.8 113.1,160.2C100.1,173.2 58,160.2 58,160.2C58,160.2 71,118.1 58,105.1C46.6,93.7 21.2,116.5 9.8,105.1C-1.6,93.7 -1.6,68.3 9.8,56.9C21.2,45.5 46.6,68.3 58,56.9C71,43.9 58,1.8 58,1.8L216.4,1.8Z" style="fill:rgb(95,165,218);fill-rule:nonzero;"/>
    <clipPath id="_clip1">
        <path id="path1" serif:id="path" d="M216.4,1.8C216.4,1.8 203.4,43.9 216.4,56.9C227.8,68.3 253.2,45.5 264.6,56.9C276,68.3 276,93.7 264.6,105.1C253.2,116.5 227.8,93.7 216.4,105.1C203.4,118.1 216.4,160.2 216.4,160.2C216.4,160.2 174.3,173.2 161.3,160.2C149.9,148.8 172.7,123.4 161.3,112C149.9,100.6 124.5,100.6 113.1,112C101.7,123.4 124.5,148.8 113.1,160.2C100.1,173.2 58,160.2 58,160.2C58,160.2 71,118.1 58,105.1C46.6,93.7 21.2,116.5 9.8,105.1C-1.6,93.7 -1.6,68.3 9.8,56.9C21.2,45.5 46.6,68.3 58,56.9C71,43.9 58,1.8 58,1.8L216.4,1.8Z" clip-rule="nonzero"/>
    </clipPath>
    <g clip-path="url(#_clip1)">
        <g>
            <g>
                <rect x="-267.4" y="-9.5" width="647.4" height="337.6" style="fill:rgb(249,240,202);"/>
                <path d="M-263.9,326.6L383.5,326.6L383.5,-13.2C274.6,119.9 5.4,322.4 -263.9,279.4C-264,279.4 -263.9,326.6 -263.9,326.6Z" style="fill:rgb(247,232,181);fill-rule:nonzero;"/>
                <g>
                    <path d="M101.8,182.7L101.8,184.6L99.4,184.6L99.4,331.1L101.8,331.1L101.8,-9.5L99.4,-9.5L99.4,182.7L101.8,182.7Z" style="fill:rgb(224,212,160);fill-rule:nonzero;"/>
                </g>
            </g>
        </g>
        <g>
            <path d="M238.3,123.3C266.9,97.6 283.9,66.8 279.9,59.4C276,51.9 268.9,50.7 268.9,50.7C268.9,50.7 278.4,44 263.8,33.3C249.2,22.7 205.8,10 188.5,25.4C171.1,40.8 185,104.7 185,104.7L238.3,123.3Z" style="fill:rgb(153,57,62);fill-rule:nonzero;"/>
            <path d="M220,37.3C247,37.3 261.4,48.4 261.4,35.3C261.4,33.9 261.1,32.6 260.6,31.3C261.7,32 262.8,32.7 263.7,33.3C278.3,43.9 268.8,50.7 268.8,50.7C268.8,50.7 275.9,51.9 279.8,59.4C283.7,66.9 266.8,97.7 238.2,123.3L184.8,104.7C184.8,104.7 178.7,76.3 179.7,52.9C188.5,56.7 207.4,37.3 220,37.3Z" style="fill:rgb(132,42,51);fill-rule:nonzero;"/>
            <path d="M265.6,316.9C271.4,282.2 283.6,178.6 281.5,172.3C279.4,166 228.8,140.2 217.7,142.3C206.7,144.4 157.8,156.5 151.4,165.4C145.2,174.4 151,319 151,319L265.6,316.9Z" style="fill:rgb(81,59,62);fill-rule:nonzero;"/>
            <path d="M138.7,270.8C138.8,266 149.3,252.6 151.7,239.6C158,205.8 161.3,157.2 152.5,164.1C140.4,173.6 92.1,263.5 91.9,301.8L173,307.9L172.2,268.5L138.7,270.8Z" style="fill:rgb(81,59,62);fill-rule:nonzero;"/>
            <path d="M152.6,164.1C152.8,164 152.9,163.9 153.1,163.8C134.9,189.7 90.9,287.5 96.9,297C103,306.5 172.8,299 172.8,299L173,307.9C173,307.9 94.1,313.8 88.8,301.8C83.5,289.8 140.4,173.6 152.6,164.1Z" style="fill:rgb(66,46,49);fill-rule:nonzero;"/>
            <path d="M178.8,152.6C194.3,147.6 211.2,141.4 217.2,140.2C222.4,139.2 237.2,146.6 250.8,153.1L205.6,259.5L178.8,152.6Z" style="fill:rgb(242,238,221);fill-rule:nonzero;"/>
            <path d="M205.9,164.2L202.2,168.1L187.4,149.8L192.4,147.3L211,156.4L239.7,147.5L244.3,150.4L219.7,168.4L217,164.8L215.4,167.1L216.6,233.9L212.2,244.6L200.3,238.7L198.6,231.5L207.6,166.8L205.9,164.2Z" style="fill:rgb(226,218,186);fill-rule:nonzero;"/>
            <path d="M237.5,117.8L238.9,147.7L214.3,154L191.6,148.1L195.7,113.8L237.5,117.8Z" style="fill:rgb(255,184,130);fill-rule:nonzero;"/>
            <path d="M205.4,266L215.1,238.2L214.3,154L210.9,153.6L199.6,237.5L205.4,266Z" style="fill:rgb(232,77,96);fill-rule:nonzero;"/>
            <path d="M211.2,170.1L217.9,161L216.2,153.1L208.9,152.2L205.6,161L211.2,170.1Z" style="fill:rgb(232,77,96);fill-rule:nonzero;"/>
            <path d="M219.7,168.1L213.7,152.8L239.2,143L242.3,148.4L219.7,168.1Z" style="fill:rgb(242,238,221);fill-rule:nonzero;"/>
            <path d="M202.2,168.1L211.4,152.1L191.7,145L189.1,148.4L202.2,168.1Z" style="fill:rgb(242,238,221);fill-rule:nonzero;"/>
            <path d="M251.4,57.5C244.7,98.9 237.6,127 234.2,132.7C223.6,150.4 184.5,143.7 184.5,143.7C184.5,143.7 161.1,69.1 200.7,44C232.8,23.6 251.4,57.5 251.4,57.5Z" style="fill:rgb(255,184,130);fill-rule:nonzero;"/>
            <path d="M261,56.6C255.7,39.5 237.3,35.7 233.4,64.9C229.5,94.1 229.9,112.2 229.9,112.2L240.2,112.2C240.1,112.2 264.1,66.9 261,56.6Z" style="fill:rgb(132,42,51);fill-rule:nonzero;"/>
            <path d="M236.7,96.5C243,86.5 255.6,86.1 256,95.2C256.4,104.3 238.8,119.3 235.5,114.6C232.1,109.8 234.5,100 236.7,96.5Z" style="fill:rgb(255,184,130);fill-rule:nonzero;"/>
            <path d="M239.8,98.5C243.7,92.3 251.6,92 251.9,97.7C252.1,103.4 241.2,112.8 239.1,109.8C236.9,106.8 238.4,100.7 239.8,98.5Z" style="fill:rgb(234,123,89);fill-rule:nonzero;"/>
            <path d="M238.7,102.3C241.5,97.9 247,97.7 247.1,101.7C247.3,105.7 239.6,112.2 238.1,110.2C236.7,108.1 237.7,103.8 238.7,102.3Z" style="fill:rgb(255,184,130);fill-rule:nonzero;"/>
            <g>
                <path d="M202.1,69.5C198.9,85.7 194.6,107 194.6,110.1C194.6,113.2 204.1,116.9 205.8,115.9C207.5,114.9 203.8,69.5 203.8,69.5L202.1,69.5Z" style="fill:rgb(234,123,89);fill-rule:nonzero;"/>
                <path d="M203.8,68C200.6,84.2 196.3,105.5 196.3,108.6C196.3,111.7 205.8,115.4 207.5,114.4C209.2,113.4 205.5,68 205.5,68L203.8,68Z" style="fill:rgb(255,184,130);fill-rule:nonzero;"/>
                <g>
                    <path d="M221.7,118.4L222.6,120.3C217.6,125.7 206.7,126.4 188.3,122.7L188.5,121.9C206.2,125.5 217.2,123.2 221.7,118.4Z" style="fill:rgb(234,123,89);fill-rule:nonzero;"/>
                </g>
                <path d="M197.6,127.4C197.5,127.9 199.2,129.1 201.7,129.2C204.1,129.3 206.4,128.3 206.5,127.8C206.6,127.3 204.2,127.8 201.8,127.7C199.3,127.6 197.7,126.9 197.6,127.4Z" style="fill:rgb(234,123,89);fill-rule:nonzero;"/>
                <g>
                    <path d="M194,86.8C194.1,82.6 193.5,77.5 187,75.7C180.4,74 177.4,79.8 177.5,82C177.6,84.1 179.4,87.3 183,87.8C186.6,88.2 189.8,87.9 191.1,88C192.5,88.2 194,87.6 194,86.8Z" style="fill:white;fill-rule:nonzero;"/>
                    <circle cx="186.4" cy="81.6" r="5.4" style="fill:rgb(57,23,11);"/>
                    <path d="M191,79.7C190.9,81 189.8,82.1 188.5,82.1C187.2,82 186.1,80.9 186.1,79.6C186.2,78.3 187.3,77.2 188.6,77.2C190,77.2 191.1,78.3 191,79.7Z" style="fill:white;fill-rule:nonzero;"/>
                    <path d="M210.8,87.3C211,83.1 211.9,78.1 218.5,76.7C225.1,75.3 227.8,81.4 227.6,83.6C227.3,85.8 225.4,88.8 221.8,89C218.2,89.2 215,88.6 213.7,88.8C212.4,88.8 210.8,88.2 210.8,87.3Z" style="fill:white;fill-rule:nonzero;"/>
                    <path d="M213.7,82.1C213.6,85.1 215.9,87.6 218.9,87.7C221.9,87.8 224.4,85.5 224.5,82.5C224.6,79.5 222.3,77 219.3,76.9C216.2,76.8 213.8,79.1 213.7,82.1Z" style="fill:rgb(57,23,11);fill-rule:nonzero;"/>
                    <path d="M218.7,80.1C218.6,81.4 219.7,82.6 221.1,82.6C222.4,82.7 223.6,81.6 223.6,80.2C223.7,78.9 222.6,77.7 221.2,77.7C219.9,77.7 218.8,78.8 218.7,80.1Z" style="fill:white;fill-rule:nonzero;"/>
                </g>
                <path d="M201.4,63.3C202.3,64.5 201.9,75.2 201.2,76.1C200.5,77.1 182.4,77 181.4,76.1C180.4,75.3 180.5,64.4 181.1,63C181.6,61.7 200.5,62 201.4,63.3Z" style="fill:rgb(153,57,62);fill-rule:nonzero;"/>
                <path d="M230.9,65.2C232,66.5 231.5,77.1 230.6,78C229.7,78.9 206.8,77.5 205.5,76.6C204.2,75.7 204.4,64.8 205.1,63.5C205.9,62.2 229.8,63.9 230.9,65.2Z" style="fill:rgb(153,57,62);fill-rule:nonzero;"/>
            </g>
        </g>
    </g>
</svg>
