<?xml version="1.0" encoding="UTF-8" standalone="no"?>
<!DOCTYPE svg PUBLIC "-//W3C//DTD SVG 1.1//EN" "http://www.w3.org/Graphics/SVG/1.1/DTD/svg11.dtd">
<svg width="100%" height="100%" viewBox="0 0 218 168" version="1.1" xmlns="http://www.w3.org/2000/svg" xmlns:xlink="http://www.w3.org/1999/xlink" xml:space="preserve" xmlns:serif="http://www.serif.com/" style="fill-rule:evenodd;clip-rule:evenodd;stroke-linejoin:round;stroke-miterlimit:2;">
    <path id="path" d="M216.3,165.9L57.9,165.9C57.9,165.9 70.9,123.8 57.9,110.8C46.5,99.4 21.1,122.2 9.7,110.8C-1.6,99.5 -1.6,74 9.8,62.6C21.2,51.2 46.6,74 58,62.6C71,49.6 58,7.5 58,7.5C58,7.5 100.1,-5.5 113.1,7.5C124.5,18.9 101.7,44.3 113.1,55.7C124.5,67.1 149.9,67.1 161.3,55.7C172.7,44.3 149.9,18.9 161.3,7.5C174.3,-5.5 216.4,7.5 216.4,7.5C216.3,60.4 216.3,113.1 216.3,165.9Z" style="fill:rgb(82,173,225);fill-rule:nonzero;"/>
    <clipPath id="_clip1">
        <path id="path1" serif:id="path" d="M216.3,165.9L57.9,165.9C57.9,165.9 70.9,123.8 57.9,110.8C46.5,99.4 21.1,122.2 9.7,110.8C-1.6,99.5 -1.6,74 9.8,62.6C21.2,51.2 46.6,74 58,62.6C71,49.6 58,7.5 58,7.5C58,7.5 100.1,-5.5 113.1,7.5C124.5,18.9 101.7,44.3 113.1,55.7C124.5,67.1 149.9,67.1 161.3,55.7C172.7,44.3 149.9,18.9 161.3,7.5C174.3,-5.5 216.4,7.5 216.4,7.5C216.3,60.4 216.3,113.1 216.3,165.9Z" clip-rule="nonzero"/>
    </clipPath>
    <g clip-path="url(#_clip1)">
        <g>
            <g>
                <rect x="-425.8" y="-162" width="647.4" height="337.6" style="fill:rgb(249,240,202);"/>
                <path d="M-422.3,174.1L225.1,174.1L225.1,-165.7C116.1,-32.6 -153,169.8 -422.3,126.9C-422.5,126.9 -422.3,174.1 -422.3,174.1Z" style="fill:rgb(247,232,181);fill-rule:nonzero;"/>
                <g>
                    <path d="M223.9,30.2L-425.8,30.2L-425.8,32.1L223.9,32.1L223.9,30.2Z" style="fill:rgb(224,212,160);fill-rule:nonzero;"/>
                </g>
            </g>
        </g>
        <g>
            <path d="M107.1,164.4C112.9,129.7 125.1,26.1 123,19.8C120.9,13.5 70.3,-12.3 59.2,-10.2C48.2,-8.1 -0.7,4 -7,12.9C-13.3,21.8 -7.5,166.4 -7.5,166.4L107.1,164.4Z" style="fill:rgb(81,59,62);fill-rule:nonzero;"/>
            <g>
                <path d="M-6.7,50C-3.2,100.2 14.9,136.2 46.9,138.9C101.8,143.5 99.7,83.7 120,37.8C118.2,66.5 122.9,196.4 119,207.4C115.1,218.4 -3.6,221.6 -6,209C-8.4,196.4 -9.9,106.9 -10,61.9C-9.9,36.7 -7.8,34.7 -6.7,50Z" style="fill:rgb(66,46,49);fill-rule:nonzero;"/>
            </g>
            <path d="M53.6,120.2C52.3,119.5 45.7,113.6 43.5,112.5C41.3,111.3 38.6,114.9 39.1,116.9C39.6,118.8 44.1,122.9 47,126.3C49.6,129.3 56.4,132.7 61.8,134.1L65.9,126.6C65.8,126.5 54.9,120.9 53.6,120.2Z" style="fill:rgb(255,149,102);fill-rule:nonzero;"/>
            <path d="M43.4,114.7C42.8,116.6 38.1,120.4 35,123.6C32.2,126.5 25.2,129.5 19.8,130.6L16.1,122.9C16.1,122.9 27.3,117.9 28.7,117.3C30.1,116.7 37,111.2 39.2,110.1C41.5,109.1 44.1,112.8 43.4,114.7Z" style="fill:rgb(255,184,130);fill-rule:nonzero;"/>
            <path d="M24.6,119.1C23.4,121.8 27.5,126.6 38.3,118.1C40.4,116.5 42.1,115.9 43.5,114.2C43.5,114.3 43.5,114.5 43.4,114.6C42.8,116.5 38.1,120.3 35,123.5C32.2,126.4 25.2,129.4 19.8,130.5L16.1,122.8C16.1,122.9 20.9,120.8 24.6,119.1Z" style="fill:rgb(255,149,102);fill-rule:nonzero;"/>
            <path d="M19.9,126.7C25.3,126.3 32.6,123.3 35,124.5C37.4,125.7 41.2,149 40.4,153.2C39.5,157.5 16,150 16,150L19.9,126.7Z" style="fill:rgb(255,149,102);fill-rule:nonzero;"/>
            <path d="M63.7,126.7C58.8,126.3 52.1,123.3 49.9,124.5C47.7,125.7 44.2,149 45,153.2C45.8,157.4 69.6,149.2 69.6,149.2L63.7,126.7Z" style="fill:rgb(255,184,130);fill-rule:nonzero;"/>
            <path d="M28.4,149C29.8,147.6 36.9,146.9 39,146.8C41.2,146.7 49.3,146.2 55,147L51.9,155.1C51.9,155.1 41.5,154.3 40,154.2C38.5,154.1 32.4,155.1 29.9,155C27.5,155 26.9,150.5 28.4,149Z" style="fill:rgb(255,184,130);fill-rule:nonzero;"/>
            <path d="M29,123.9C30.6,122.7 38.8,121.3 40.9,121C43.1,120.8 50.6,122.9 55.7,125L51.9,132.7C51.9,132.7 41.7,129 40.2,128.8C38.7,128.6 32.5,130.4 30.1,130C27.5,129.7 27.4,125.1 29,123.9Z" style="fill:rgb(255,184,130);fill-rule:nonzero;"/>
            <path d="M52.3,125.6C50.6,124.4 43.6,125.1 41.4,125.5C39.2,125.8 32.2,127.6 26.7,129.5L30.4,136.5C30.4,136.5 40.5,133.6 42,133.2C43.5,132.8 49.6,132.6 52,132C54.3,131.5 54,126.8 52.3,125.6Z" style="fill:rgb(255,149,102);fill-rule:nonzero;"/>
            <path d="M75.7,121.5L62.3,121.8L66.5,154.4L77.5,153.9L75.7,121.5Z" style="fill:rgb(242,238,221);fill-rule:nonzero;"/>
            <path d="M52.1,126C50.4,124.8 43.4,125.5 41.2,125.9C39,126.2 32,128 26.5,129.9L30.2,136.9C30.2,136.9 40.3,134 41.8,133.6C43.3,133.2 49.4,133 51.8,132.4C54.2,131.8 53.8,127.1 52.1,126Z" style="fill:rgb(255,184,130);fill-rule:nonzero;"/>
            <path d="M40,126.1C39.3,126.7 38.9,127.3 38.9,128C38.9,130.2 42.7,130.5 47.2,130.5C49.8,130.5 51.9,131.4 53.3,130.4C53.1,131.4 52.6,132.2 51.7,132.4C49.3,133 43.1,133.2 41.7,133.6C40.2,134 30.1,136.9 30.1,136.9L26.4,129.9C31.2,128.2 37.1,126.7 40,126.1Z" style="fill:rgb(255,149,102);fill-rule:nonzero;"/>
            <path d="M54.3,145.7C52.9,147.1 45.8,147.8 43.7,147.9C41.5,148 33.4,148.6 27.7,147.8L30.7,139.7C30.7,139.7 41.2,140.5 42.7,140.6C44.2,140.7 50.3,139.7 52.8,139.8C55.2,139.7 55.8,144.2 54.3,145.7Z" style="fill:rgb(255,149,102);fill-rule:nonzero;"/>
            <path d="M54.3,145.7C52.9,147.1 45.8,147.8 43.7,147.9C41.5,148 33.4,148.6 27.7,147.8L30.7,139.7C30.7,139.7 41.2,140.5 42.7,140.6C44.2,140.7 50.3,139.7 52.8,139.8C55.2,139.7 55.8,144.2 54.3,145.7Z" style="fill:rgb(255,149,102);fill-rule:nonzero;"/>
            <path d="M44.3,144.9C44.1,143.2 48,140.4 51.1,140C54.2,139.7 54.6,140.9 54.8,142.6C55,144.3 54.9,146 51.8,146.3C48.7,146.7 44.5,146.7 44.3,144.9Z" style="fill:rgb(255,184,130);fill-rule:nonzero;"/>
            <path d="M30.6,137.9C31.8,136.3 39.4,132.8 41.4,132C43.4,131.2 51.2,131.3 56.6,132L55,139.1C55,139.1 44.6,140.5 43.2,140.6C41.7,140.8 35.4,143.3 32.9,143.6C30.5,143.9 29.3,139.5 30.6,137.9Z" style="fill:rgb(255,184,130);fill-rule:nonzero;"/>
            <path d="M20.1,121.5L6.7,121.8L10.9,154.4L21.9,153.9L20.1,121.5Z" style="fill:rgb(242,238,221);fill-rule:nonzero;"/>
            <path d="M-19.7,118.2C-19.6,113.4 -9.1,100 -6.7,87C-0.4,53.2 2.9,4.6 -5.9,11.5C-18,21 -66.3,110.9 -66.5,149.2L14.6,155.3L13.8,115.9L-19.7,118.2Z" style="fill:rgb(81,59,62);fill-rule:nonzero;"/>
            <path d="M-5.9,11.5C-5.7,11.4 -5.6,11.3 -5.4,11.2C-23.6,37.1 -67.6,135 -61.6,144.4C-55.6,153.8 14.3,146.4 14.3,146.4L14.5,155.3C14.5,155.3 -64.4,161.2 -69.7,149.2C-75,137.2 -18,21 -5.9,11.5Z" style="fill:rgb(66,46,49);fill-rule:nonzero;"/>
            <path d="M104.2,115C104.8,109.6 103.9,92.8 105.5,78.4C108.8,47.8 116.1,13.5 123.2,19.8C133.5,29.1 149.2,109.4 144.3,146.9L75.9,155L71,114.5L104.2,115Z" style="fill:rgb(81,59,62);fill-rule:nonzero;"/>
            <path d="M138.2,142.5C147.3,135.9 133.7,46.8 123.9,20.6C134.5,33.4 156.2,145.4 146.5,150.7C136.8,156 75.7,154.8 75.7,154.8L74.7,146.6C74.8,146.7 129.1,149.1 138.2,142.5Z" style="fill:rgb(66,46,49);fill-rule:nonzero;"/>
            <path d="M20.3,0.1C35.8,-4.9 52.7,-11.1 58.7,-12.3C63.9,-13.3 78.7,-5.9 92.3,0.6L47.2,107.1L20.3,0.1Z" style="fill:rgb(242,238,221);fill-rule:nonzero;"/>
            <path d="M47.4,11.6L43.8,15.6L28.9,-2.8L33.9,-5.2L52.6,3.9L81.2,-5.1L85.8,-2.2L61.2,15.9L58.5,12.3L56.9,14.5L58.1,81.4L53.8,92.1L41.8,86.2L40.1,78.9L49.2,14.2L47.4,11.6Z" style="fill:rgb(226,218,186);fill-rule:nonzero;"/>
            <path d="M79.1,-34.8L80.4,-4.8L55.9,1.5L33.1,-4.4L37.2,-38.7L79.1,-34.8Z" style="fill:rgb(255,184,130);fill-rule:nonzero;"/>
            <path d="M46.9,113.5L56.6,85.6L55.9,1.5L52.4,1.1L41.1,85L46.9,113.5Z" style="fill:rgb(232,77,96);fill-rule:nonzero;"/>
            <path d="M52.7,17.5L59.4,8.5L57.7,0.6L50.5,-0.3L47.2,8.5L52.7,17.5Z" style="fill:rgb(232,77,96);fill-rule:nonzero;"/>
            <path d="M61.2,15.6L55.2,0.3L80.7,-9.5L83.9,-4.2L61.2,15.6Z" style="fill:rgb(242,238,221);fill-rule:nonzero;"/>
            <path d="M43.8,15.6L53,-0.5L33.2,-7.6L30.6,-4.2L43.8,15.6Z" style="fill:rgb(242,238,221);fill-rule:nonzero;"/>
        </g>
    </g>
</svg>
