<?xml version="1.0" encoding="UTF-8" standalone="no"?>
<!DOCTYPE svg PUBLIC "-//W3C//DTD SVG 1.1//EN" "http://www.w3.org/Graphics/SVG/1.1/DTD/svg11.dtd">
<svg width="100%" height="100%" viewBox="0 0 169 220" version="1.1" xmlns="http://www.w3.org/2000/svg" xmlns:xlink="http://www.w3.org/1999/xlink" xml:space="preserve" xmlns:serif="http://www.serif.com/" style="fill-rule:evenodd;clip-rule:evenodd;stroke-linejoin:round;stroke-miterlimit:2;">
    <path id="path" d="M2.3,59.2C2.3,59.2 44.4,72.2 57.4,59.2C68.7,47.8 46,22.4 57.4,11C68.8,-0.4 94.2,-0.4 105.6,11C117,22.4 94.2,47.8 105.6,59.2C118.6,72.2 160.7,59.2 160.7,59.2C160.7,59.2 173.7,101.3 160.7,114.3C149.3,125.7 123.9,102.9 112.5,114.3C101.1,125.7 101.1,151.1 112.5,162.5C123.9,173.9 149.3,151.1 160.7,162.5C173.7,175.5 160.7,217.6 160.7,217.6L2.3,217.6L2.3,59.2Z" style="fill:rgb(96,160,214);fill-rule:nonzero;"/>
    <clipPath id="_clip1">
        <path id="path1" serif:id="path" d="M2.3,59.2C2.3,59.2 44.4,72.2 57.4,59.2C68.7,47.8 46,22.4 57.4,11C68.8,-0.4 94.2,-0.4 105.6,11C117,22.4 94.2,47.8 105.6,59.2C118.6,72.2 160.7,59.2 160.7,59.2C160.7,59.2 173.7,101.3 160.7,114.3C149.3,125.7 123.9,102.9 112.5,114.3C101.1,125.7 101.1,151.1 112.5,162.5C123.9,173.9 149.3,151.1 160.7,162.5C173.7,175.5 160.7,217.6 160.7,217.6L2.3,217.6L2.3,59.2Z" clip-rule="nonzero"/>
    </clipPath>
    <g clip-path="url(#_clip1)">
        <g>
            <g>
                <rect x="-6.5" y="-110.4" width="647.4" height="337.6" style="fill:rgb(249,240,202);"/>
                <path d="M-3,225.7L644.4,225.7L644.4,-114.1C535.5,19 266.3,221.5 -3,178.5C-3.2,178.5 -3,225.7 -3,225.7Z" style="fill:rgb(247,232,181);fill-rule:nonzero;"/>
                <g>
                    <rect x="42.9" y="-3.3" width="2.3" height="233.5" style="fill:rgb(224,212,160);"/>
                    <path d="M643.2,81.8L-6.5,81.8L-6.5,83.7L643.2,83.7L643.2,81.8Z" style="fill:rgb(224,212,160);fill-rule:nonzero;"/>
                </g>
            </g>
        </g>
        <g>
            <path d="M109.2,108.5L192.8,83.7C192.8,83.7 235,-34.6 182.6,-51.1C169.6,-72 102.9,-72.4 93.9,-21.5C84.8,29.3 109.2,108.5 109.2,108.5Z" style="fill:rgb(153,57,62);fill-rule:nonzero;"/>
            <path d="M150.2,-10.6C131.4,-23.4 120.3,-41.8 120.1,-57.6C107.4,-51.1 97,-39.5 93.8,-21.6C84.8,29.3 110,116.4 110,116.4L193.6,91.6C193.6,91.6 209,35.8 209,0.4C194.2,6.8 169.6,2.6 150.2,-10.6Z" style="fill:rgb(137,44,53);fill-rule:nonzero;"/>
            <path d="M159.4,10.7C138.6,10.7 129.8,71.5 110.7,116.7L185.4,96.3C183.1,66 178.2,10.7 159.4,10.7Z" style="fill:rgb(117,35,47);fill-rule:nonzero;"/>
            <path d="M199.2,243.7C197,229.6 194.1,218.5 190.1,213.5C172.1,190.3 155.8,177 150,197C146.7,208.4 132.5,209.9 122.3,244.8C114.7,271.1 207,294.1 199.2,243.7Z" style="fill:rgb(77,77,77);fill-rule:nonzero;"/>
            <path d="M154,244.9C160.5,220.6 169,204.1 178.5,199.6C174.9,177.8 155.8,177.7 150.1,197.7C146.8,209.2 132.5,210.3 122.3,245.6C114.6,271.9 146.2,274 154,244.9Z" style="fill:rgb(51,51,51);fill-rule:nonzero;"/>
            <path d="M139,211.1C146.5,179.9 117.7,86.2 124.8,72.7C124.8,72.7 191.8,100.1 191.6,118.3C191.3,153.9 187.7,196.4 190.8,214.2L139,211.1Z" style="fill:rgb(221,210,191);fill-rule:nonzero;"/>
            <path d="M124.2,73.9C123.4,87.3 132.6,143.3 137.2,147.3C148.4,156.8 191.6,153.7 197.9,141.9C203,132.3 180.1,70.8 177,68C173.9,65.2 124.6,67.2 124.2,73.9Z" style="fill:rgb(242,238,221);fill-rule:nonzero;"/>
            <path d="M149.2,140.1C144.4,136.3 124.3,72.1 124.2,73.9C123.4,87.3 131.9,139.5 137.2,146.5C145.4,157.2 201.8,154.4 197.9,137.9C181.6,144.2 158.4,147.5 149.2,140.1Z" style="fill:rgb(221,210,191);fill-rule:nonzero;"/>
            <path d="M133.3,69.5C136.8,85.3 142.8,123.6 168.8,123.2C194.8,122.8 169.6,66.5 169.6,66.5C155,65.3 142.6,65.7 133.3,69.5Z" style="fill:rgb(255,184,130);fill-rule:nonzero;"/>
            <path d="M169.6,66.5C169.3,66.5 169,66.5 168.7,66.4C173.3,76.7 191.1,121.3 167.3,121.6C161.4,121.7 156.1,118.9 151.4,114.5C156.5,119.9 162.3,123.3 168.9,123.2C194.8,122.9 169.6,66.5 169.6,66.5Z" style="fill:rgb(255,149,102);fill-rule:nonzero;"/>
            <path d="M136,25L139.2,68L152.6,77.5L163.2,67.5L153.4,27L136,25Z" style="fill:rgb(255,184,130);fill-rule:nonzero;"/>
            <path d="M132.1,26.7C134.7,46.2 170.5,63 170.5,63C170.5,63 192,38.1 192.4,9C192.7,-12.3 189,-32.3 163.3,-31.5C142.2,-30.9 127.4,-8.4 132.1,26.7Z" style="fill:rgb(255,184,130);fill-rule:nonzero;"/>
            <path d="M136,26.3C144.4,8.4 157.3,-31.8 141.7,-44.2C130.7,-53 119.9,-16.1 125.9,7.9C128.3,17.2 136,26.3 136,26.3Z" style="fill:rgb(137,44,53);fill-rule:nonzero;"/>
            <path d="M132.9,12.2C126.3,7.8 118.2,6.4 118.7,13.8C119.2,21.2 130.8,28.3 136.6,30.9C142.4,33.5 135.3,13.8 132.9,12.2Z" style="fill:rgb(255,184,130);fill-rule:nonzero;"/>
            <path d="M131.3,14.6C127.7,12.2 123.2,11.4 123.5,15.5C123.8,19.5 130.1,23.4 133.3,24.9C136.5,26.3 132.6,15.5 131.3,14.6Z" style="fill:rgb(234,123,89);fill-rule:nonzero;"/>
            <path d="M133.6,19.3C130.7,17.4 127.1,16.8 127.4,20C127.6,23.2 132.7,26.4 135.3,27.5C137.7,28.7 134.6,20 133.6,19.3Z" style="fill:rgb(255,184,130);fill-rule:nonzero;"/>
            <g>
                <path d="M172.2,20.5C174.7,24.3 176.8,29.7 175.5,31C174.2,32.3 167.7,32.2 167.2,31.8C166.7,31.4 172.2,20.5 172.2,20.5Z" style="fill:rgb(234,123,89);fill-rule:nonzero;"/>
                <path d="M170.4,19.6C172.9,23.4 175,28.8 173.7,30.1C172.4,31.4 165.9,31.3 165.4,30.9C164.8,30.5 170.4,19.6 170.4,19.6Z" style="fill:rgb(255,184,130);fill-rule:nonzero;"/>
                <g>
                    <path d="M174.6,42.3L174.2,41.4C173.7,41.5 163,44.4 152.8,33.1L151.3,34.4C160.7,44.3 169.6,43.7 174.6,42.3Z" style="fill:rgb(234,123,89);fill-rule:nonzero;"/>
                </g>
                <path d="M161.4,45.9C161.5,45.3 162.9,45.8 164.8,46.2C166.7,46.6 168.3,46.8 168.2,47.5C168.1,48.1 166.4,48.3 164.6,47.9C162.7,47.4 161.3,46.5 161.4,45.9Z" style="fill:rgb(234,123,89);fill-rule:nonzero;"/>
                <g>
                    <path d="M161.4,11.3C162.7,9.9 160.9,4.3 155.7,2.3C150.5,0.3 147.7,3.7 147.4,5.1C147.2,6.5 147.7,9 150.7,10.5C153.6,11.9 156.1,11.7 157.6,11.7C159.4,11.7 160.6,12.1 161.4,11.3Z" style="fill:white;fill-rule:nonzero;"/>
                    <circle cx="155.5" cy="5.7" r="4.6" style="fill:rgb(57,23,11);"/>
                    <circle cx="153.8" cy="4.8" r="1.8" style="fill:white;"/>
                    <path d="M161.8,10.1C161.8,10.1 162.6,7.5 159.6,3.9C156.6,0.3 152.3,0.8 151.2,0.5C150,0.2 148.8,0.5 149.1,0.8C149.4,1.1 148.3,2 147.4,1.7C146.5,1.4 147.3,2.5 147.3,2.8C147.3,3.1 145.7,2.9 145.5,3.3C145.4,3.6 146.3,4.5 146.1,4.5C145.8,4.6 144.9,5.2 145.3,5.5C145.7,5.8 146.5,6.9 146.9,7.4C147.2,7.9 148.2,8.3 148.2,8.3C148.2,8.3 147.2,6.1 148,4.6C148.8,3.1 150.7,1.6 153.6,2.1C156.5,2.6 158.3,4.1 159.6,5.4C160.9,6.7 161.8,10.1 161.8,10.1Z" style="fill:rgb(57,23,11);fill-rule:nonzero;"/>
                </g>
            </g>
            <path d="M78.4,157.7C79.1,145.1 109.1,72.7 132.7,69.8C141,68.8 101.8,143.5 97.7,162.3C96.1,169.3 77.8,167.7 78.4,157.7Z" style="fill:rgb(242,238,221);fill-rule:nonzero;"/>
            <path d="M81.8,158C84,118.4 133.9,69.3 133.9,69.3C110.2,69.6 77.7,146 77,158.6C76.6,165.9 86.6,168.2 92.9,166.3C87.4,166.2 81.5,163.6 81.8,158Z" style="fill:rgb(221,210,191);fill-rule:nonzero;"/>
            <g>
                <g>
                    <path d="M133.5,221.1C129.5,211.2 99.8,161.3 96.6,158.3C93.4,155.3 79.8,150.5 77.8,158.5C75.8,166.5 127.7,222.3 127.7,222.3L133.5,221.1Z" style="fill:rgb(255,184,130);fill-rule:nonzero;"/>
                    <path d="M90.5,171.2C91.7,166.3 97.8,166.5 103,168C99.7,162.6 97.3,159 96.7,158.3C93.5,155.3 78.8,150 76.8,157.9C74.8,165.9 127.8,222.3 127.8,222.3L129.8,222.1C111.3,200.7 89,177 90.5,171.2Z" style="fill:rgb(255,149,102);fill-rule:nonzero;"/>
                </g>
                <path d="M80.7,166.2C78.3,167.4 74.1,153.5 78.1,149.4C82.1,145.3 98.4,153.6 99.4,156.5C100.5,159.4 98.4,164 98.4,164C98.4,164 89.9,161.5 80.7,166.2Z" style="fill:rgb(77,77,77);fill-rule:nonzero;"/>
                <path d="M99.4,156.5C99.2,156 98.5,155.2 97.4,154.4C97.4,155.3 97.2,156.2 96.6,157C94.7,159.8 89.9,160 86,157.3C82.4,154.9 80.7,151 81.8,148.2C80.2,148.2 78.8,148.4 78.1,149.3C73.5,155.1 78.3,167.3 80.7,166.1C89.9,161.4 98.4,163.9 98.4,163.9C98.4,163.9 100.5,159.4 99.4,156.5Z" style="fill:rgb(51,51,51);fill-rule:nonzero;"/>
                <g>
                    <path d="M150.8,235.6L141.3,225.1L150.4,230.6C151.5,231.2 152.2,230.5 152.5,230.1L148.1,226.7L146.7,225.7C145.4,224.6 144.2,223.7 143,223L141.2,221.5L128.4,217.6L127.2,219L126.6,221.4C126.6,221.4 128.9,225.3 132.5,228.2C134.8,232.7 137.7,236 137.7,236C139.6,237.7 139.5,235.7 139.5,235.7C137.6,234.1 136,230.5 135.7,229.9C135.5,229.5 135.4,229.1 135.2,228.7L135.6,228.6L144.6,238.8C146,240.1 146.4,238 146.4,238L140.1,229.7L138.9,227.7L139.7,227.5L139.6,227.3L139.8,227.5L148.7,237.1C150.4,238.7 152,236.9 152,236.9L150.8,235.6Z" style="fill:rgb(255,184,130);fill-rule:nonzero;"/>
                </g>
            </g>
        </g>
    </g>
</svg>
