<?xml version="1.0" encoding="UTF-8" standalone="no"?>
<!DOCTYPE svg PUBLIC "-//W3C//DTD SVG 1.1//EN" "http://www.w3.org/Graphics/SVG/1.1/DTD/svg11.dtd">
<svg width="100%" height="100%" viewBox="0 0 174 219" version="1.1" xmlns="http://www.w3.org/2000/svg" xmlns:xlink="http://www.w3.org/1999/xlink" xml:space="preserve" xmlns:serif="http://www.serif.com/" style="fill-rule:evenodd;clip-rule:evenodd;stroke-linejoin:round;stroke-miterlimit:2;">
    <path id="path" d="M166,216.6L7.6,216.6C7.6,216.6 -5.4,174.5 7.6,161.5C19,150.1 44.4,172.9 55.8,161.5C67.2,150.1 67.2,124.7 55.8,113.3C44.4,101.9 19,124.7 7.6,113.3C-5.4,100.3 7.6,58.2 7.6,58.2C7.6,58.2 49.7,71.2 62.7,58.2C74.1,46.8 51.3,21.4 62.7,10C74.1,-1.4 99.5,-1.4 110.9,10C122.3,21.4 99.5,46.8 110.9,58.2C123.9,71.2 166,58.2 166,58.2C166,58.2 179,100.3 166,113.3C154.6,124.7 129.2,101.9 117.8,113.3C106.4,124.7 106.4,150.1 117.8,161.5C129.2,172.9 154.6,150.1 166,161.5C178.9,174.5 166,216.6 166,216.6Z" style="fill:rgb(72,146,206);fill-rule:nonzero;"/>
    <clipPath id="_clip1">
        <path id="path1" serif:id="path" d="M166,216.6L7.6,216.6C7.6,216.6 -5.4,174.5 7.6,161.5C19,150.1 44.4,172.9 55.8,161.5C67.2,150.1 67.2,124.7 55.8,113.3C44.4,101.9 19,124.7 7.6,113.3C-5.4,100.3 7.6,58.2 7.6,58.2C7.6,58.2 49.7,71.2 62.7,58.2C74.1,46.8 51.3,21.4 62.7,10C74.1,-1.4 99.5,-1.4 110.9,10C122.3,21.4 99.5,46.8 110.9,58.2C123.9,71.2 166,58.2 166,58.2C166,58.2 179,100.3 166,113.3C154.6,124.7 129.2,101.9 117.8,113.3C106.4,124.7 106.4,150.1 117.8,161.5C129.2,172.9 154.6,150.1 166,161.5C178.9,174.5 166,216.6 166,216.6Z" clip-rule="nonzero"/>
    </clipPath>
    <g clip-path="url(#_clip1)">
        <g>
            <g>
                <rect x="-317.8" y="-111.3" width="647.4" height="337.6" style="fill:rgb(249,240,202);"/>
                <path d="M-314.3,224.8L333.1,224.8L333.1,-115C224.2,18.1 -45,220.6 -314.3,177.6C-314.5,177.6 -314.3,224.8 -314.3,224.8Z" style="fill:rgb(247,232,181);fill-rule:nonzero;"/>
                <g>
                    <path d="M51.3,80.9L51.3,82.8L49,82.8L49,229.3L51.3,229.3L51.3,-111.3L49,-111.3L49,80.9L51.3,80.9Z" style="fill:rgb(224,212,160);fill-rule:nonzero;"/>
                    <path d="M331.9,80.9L-317.8,80.9L-317.8,82.8L331.9,82.8L331.9,80.9Z" style="fill:rgb(224,212,160);fill-rule:nonzero;"/>
                </g>
            </g>
        </g>
        <g>
            <path d="M187.9,21.5C216.5,-4.2 233.5,-35 229.5,-42.4C225.6,-49.9 218.5,-51.1 218.5,-51.1C218.5,-51.1 228,-57.8 213.4,-68.5C198.8,-79.1 155.4,-91.8 138.1,-76.4C120.7,-61 134.6,2.9 134.6,2.9L187.9,21.5Z" style="fill:rgb(153,57,62);fill-rule:nonzero;"/>
            <path d="M169.5,-64.5C196.5,-64.5 210.9,-53.4 210.9,-66.5C210.9,-67.9 210.6,-69.2 210.1,-70.5C211.2,-69.8 212.3,-69.1 213.2,-68.5C227.8,-57.9 218.3,-51.1 218.3,-51.1C218.3,-51.1 225.4,-49.9 229.3,-42.4C233.2,-34.9 216.3,-4.1 187.7,21.5L134.4,2.9C134.4,2.9 128.3,-25.5 129.3,-48.9C138,-45.1 156.9,-64.5 169.5,-64.5Z" style="fill:rgb(132,42,51);fill-rule:nonzero;"/>
            <path d="M215.1,215.1C220.9,180.4 233.1,76.8 231,70.5C228.9,64.2 178.3,38.4 167.2,40.5C156.2,42.6 107.3,54.7 100.9,63.6C94.6,72.5 100.4,217.1 100.4,217.1L215.1,215.1Z" style="fill:rgb(81,59,62);fill-rule:nonzero;"/>
            <g>
                <path d="M101.3,100.7C104.8,150.9 122.9,186.9 154.9,189.6C209.8,194.2 207.7,134.4 228,88.5C226.2,117.2 230.9,247.1 227,258.1C223.1,269.1 104.4,272.3 102,259.7C99.6,247.1 98.1,157.6 98,112.6C98.1,87.5 100.2,85.5 101.3,100.7Z" style="fill:rgb(66,46,49);fill-rule:nonzero;"/>
            </g>
            <path d="M161.6,171C160.3,170.3 153.7,164.4 151.5,163.3C149.3,162.1 146.6,165.7 147.1,167.7C147.6,169.6 152.1,173.7 155,177.1C157.6,180.1 164.4,183.5 169.8,184.9L173.9,177.4C173.9,177.2 162.9,171.7 161.6,171Z" style="fill:rgb(255,149,102);fill-rule:nonzero;"/>
            <path d="M151.5,165.4C150.9,167.3 146.2,171.1 143.1,174.3C140.3,177.2 133.3,180.2 127.9,181.3L124.2,173.6C124.2,173.6 135.4,168.6 136.8,168C138.2,167.4 145.1,161.9 147.3,160.8C149.5,159.8 152.1,163.5 151.5,165.4Z" style="fill:rgb(255,184,130);fill-rule:nonzero;"/>
            <path d="M132.6,169.9C131.4,172.6 135.5,177.4 146.3,168.9C148.4,167.3 150.1,166.7 151.5,165C151.5,165.1 151.5,165.3 151.4,165.4C150.8,167.3 146.1,171.1 143,174.3C140.2,177.2 133.2,180.2 127.8,181.3L124.1,173.6C124.2,173.6 128.9,171.5 132.6,169.9Z" style="fill:rgb(255,149,102);fill-rule:nonzero;"/>
            <path d="M127.9,177.4C133.3,177 140.6,174 143,175.2C145.4,176.4 149.2,199.7 148.4,203.9C147.5,208.1 124.1,200.6 124.1,200.6L127.9,177.4Z" style="fill:rgb(255,149,102);fill-rule:nonzero;"/>
            <path d="M171.7,177.4C166.8,177 160.1,174 157.9,175.2C155.7,176.4 152.2,199.7 153,203.9C153.8,208.1 177.6,199.9 177.6,199.9L171.7,177.4Z" style="fill:rgb(255,184,130);fill-rule:nonzero;"/>
            <path d="M136.4,199.8C137.8,198.4 144.9,197.7 147,197.6C149.2,197.5 157.3,197 163,197.8L159.9,205.9C159.9,205.9 149.5,205.1 148,205C146.5,204.9 140.4,205.9 137.9,205.8C135.5,205.7 135,201.2 136.4,199.8Z" style="fill:rgb(255,184,130);fill-rule:nonzero;"/>
            <path d="M137,174.6C138.6,173.4 146.8,172 148.9,171.7C151.1,171.5 158.6,173.6 163.7,175.7L159.9,183.4C159.9,183.4 149.7,179.7 148.2,179.5C146.7,179.3 140.5,181.1 138.1,180.7C135.5,180.4 135.4,175.9 137,174.6Z" style="fill:rgb(255,184,130);fill-rule:nonzero;"/>
            <path d="M160.3,176.4C158.6,175.2 151.6,175.9 149.4,176.3C147.2,176.6 140.2,178.4 134.7,180.3L138.4,187.3C138.4,187.3 148.5,184.4 150,184C151.5,183.6 157.6,183.4 160,182.8C162.3,182.2 162,177.5 160.3,176.4Z" style="fill:rgb(255,149,102);fill-rule:nonzero;"/>
            <path d="M183.7,172.3L170.3,172.5L174.5,205.1L185.6,204.6L183.7,172.3Z" style="fill:rgb(242,238,221);fill-rule:nonzero;"/>
            <path d="M160.1,176.7C158.4,175.5 151.4,176.2 149.2,176.6C147,176.9 140,178.7 134.5,180.6L138.2,187.6C138.2,187.6 148.3,184.7 149.8,184.3C151.3,183.9 157.4,183.7 159.8,183.1C162.2,182.6 161.8,177.9 160.1,176.7Z" style="fill:rgb(255,184,130);fill-rule:nonzero;"/>
            <path d="M148,176.8C147.3,177.4 146.9,178 146.9,178.7C146.9,180.9 150.7,181.2 155.2,181.2C157.8,181.2 159.9,182.1 161.3,181.1C161.1,182.1 160.6,182.9 159.7,183.1C157.3,183.7 151.1,183.9 149.7,184.3C148.2,184.7 138.1,187.6 138.1,187.6L134.4,180.6C139.2,178.9 145.1,177.4 148,176.8Z" style="fill:rgb(255,149,102);fill-rule:nonzero;"/>
            <path d="M162.3,196.4C160.9,197.8 153.8,198.5 151.7,198.6C149.5,198.7 141.4,199.3 135.7,198.5L138.7,190.4C138.7,190.4 149.2,191.2 150.7,191.3C152.2,191.4 158.3,190.4 160.8,190.5C163.2,190.5 163.8,195 162.3,196.4Z" style="fill:rgb(255,149,102);fill-rule:nonzero;"/>
            <path d="M162.3,196.4C160.9,197.8 153.8,198.5 151.7,198.6C149.5,198.7 141.4,199.3 135.7,198.5L138.7,190.4C138.7,190.4 149.2,191.2 150.7,191.3C152.2,191.4 158.3,190.4 160.8,190.5C163.2,190.5 163.8,195 162.3,196.4Z" style="fill:rgb(255,149,102);fill-rule:nonzero;"/>
            <path d="M152.3,195.7C152.1,194 156,191.2 159.1,190.8C162.2,190.5 162.6,191.7 162.8,193.4C163,195.1 162.9,196.8 159.8,197.1C156.7,197.5 152.5,197.4 152.3,195.7Z" style="fill:rgb(255,184,130);fill-rule:nonzero;"/>
            <path d="M138.6,188.6C139.8,187 147.4,183.5 149.4,182.7C151.4,181.9 159.2,182 164.6,182.7L163,189.8C163,189.8 152.6,191.2 151.2,191.3C149.7,191.5 143.4,194 140.9,194.3C138.5,194.6 137.4,190.2 138.6,188.6Z" style="fill:rgb(255,184,130);fill-rule:nonzero;"/>
            <path d="M128.1,172.3L114.7,172.5L118.9,205.1L129.9,204.6L128.1,172.3Z" style="fill:rgb(242,238,221);fill-rule:nonzero;"/>
            <path d="M88.3,169C88.4,164.2 98.9,150.8 101.3,137.8C107.6,104 110.9,55.4 102.1,62.3C90,71.8 41.7,161.7 41.5,199.9L122.6,206L121.8,166.6L88.3,169Z" style="fill:rgb(81,59,62);fill-rule:nonzero;"/>
            <path d="M102.1,62.3C102.3,62.2 102.4,62.1 102.6,62C84.5,87.9 40.4,185.7 46.5,195.2C52.6,204.7 122.4,197.2 122.4,197.2L122.6,206.1C122.6,206.1 43.7,212 38.4,200C33.1,188 90,71.8 102.1,62.3Z" style="fill:rgb(66,46,49);fill-rule:nonzero;"/>
            <path d="M83.2,171.7C83.2,171.7 97.8,142.3 105.3,111.7C104.3,120.6 102.8,137.6 101.2,145.8C97.7,156.5 94,163.5 92.1,167.8L98.5,168.7L83.2,171.7Z" style="fill:rgb(66,46,49);fill-rule:nonzero;"/>
            <path d="M128.4,50.8C143.9,45.8 160.8,39.6 166.8,38.4C172,37.4 186.8,44.8 200.4,51.3L155.2,157.7L128.4,50.8Z" style="fill:rgb(242,238,221);fill-rule:nonzero;"/>
            <path d="M155.5,62.4L151.8,66.3L137,48L141.9,45.5L160.6,54.6L189.2,45.7L193.8,48.6L169.2,66.6L166.5,63L164.9,65.3L166.1,132.1L161.8,142.8L149.8,136.9L148.1,129.7L157.2,65L155.5,62.4Z" style="fill:rgb(226,218,186);fill-rule:nonzero;"/>
            <path d="M187.1,16L188.5,45.9L163.9,52.2L141.1,46.3L145.2,12L187.1,16Z" style="fill:rgb(255,184,130);fill-rule:nonzero;"/>
            <path d="M154.9,164.2L164.7,136.4L163.9,52.2L160.5,51.8L149.2,135.7L154.9,164.2Z" style="fill:rgb(232,77,96);fill-rule:nonzero;"/>
            <path d="M160.7,68.3L167.4,59.2L165.7,51.3L158.5,50.4L155.2,59.2L160.7,68.3Z" style="fill:rgb(232,77,96);fill-rule:nonzero;"/>
            <path d="M169.3,66.3L163.2,51L188.7,41.2L191.9,46.6L169.3,66.3Z" style="fill:rgb(242,238,221);fill-rule:nonzero;"/>
            <path d="M151.8,66.3L161,50.3L141.3,43.2L138.6,46.6L151.8,66.3Z" style="fill:rgb(242,238,221);fill-rule:nonzero;"/>
            <path d="M200.9,-44.3C194.2,-2.9 187.1,25.2 183.7,30.9C173.1,48.7 134,42 134,42C134,42 110.7,-32.7 150.2,-57.8C182.4,-78.2 200.9,-44.3 200.9,-44.3Z" style="fill:rgb(255,184,130);fill-rule:nonzero;"/>
            <g>
                <path d="M151.6,-32.3C148.4,-16.1 144.1,5.2 144.1,8.3C144.1,11.4 153.6,15.1 155.3,14.1C157,13.1 153.3,-32.3 153.3,-32.3L151.6,-32.3Z" style="fill:rgb(234,123,89);fill-rule:nonzero;"/>
                <path d="M153.3,-33.8C150.1,-17.6 145.8,3.7 145.8,6.8C145.8,9.9 155.3,13.6 157,12.6C158.7,11.6 155,-33.8 155,-33.8L153.3,-33.8Z" style="fill:rgb(255,184,130);fill-rule:nonzero;"/>
                <g>
                    <path d="M171.3,16.6L172.2,18.5C167.2,23.9 156.3,24.6 137.9,20.9L138.1,20.1C155.7,23.6 166.8,21.4 171.3,16.6Z" style="fill:rgb(234,123,89);fill-rule:nonzero;"/>
                </g>
                <path d="M147.2,25.6C147.1,26.1 148.8,27.3 151.3,27.4C153.7,27.5 156,26.5 156.1,26C156.2,25.5 153.8,26 151.4,25.9C148.8,25.7 147.2,25.1 147.2,25.6Z" style="fill:rgb(234,123,89);fill-rule:nonzero;"/>
            </g>
        </g>
    </g>
</svg>
