<?xml version="1.0" encoding="utf-8"?>
<!-- Generator: Adobe Illustrator 24.0.3, SVG Export Plug-In . SVG Version: 6.00 Build 0)  -->
<svg version="1.1" id="Layer_1" xmlns:serif="http://www.serif.com/"
	 xmlns="http://www.w3.org/2000/svg" xmlns:xlink="http://www.w3.org/1999/xlink" x="0px" y="0px" width="649.6px" height="336.7px"
	 viewBox="0 0 649.6 336.7" style="enable-background:new 0 0 649.6 336.7;" xml:space="preserve">
<style type="text/css">
	.st0{opacity:0.2;fill:#FFFFFF;enable-background:new    ;}
	.st1{fill:none;stroke:#FFFFFF;stroke-width:1.2669;}
</style>
<g>
	<rect x="10.1" y="11" class="st0" width="629.3" height="314.6"/>
	<g>
		<path id="path5043-4-6-5-1-0-2-7_2_" class="st1" d="M10.5,11.5c52.4,0,104.7,0,157.1,0c0,0-12.9,41.8,0,54.6
			c11.3,11.3,36.5-11.3,47.8,0s11.3,36.5,0,47.8s-36.5-11.3-47.8,0c-12.9,12.9,0,54.6,0,54.6s-41.8,12.9-54.6,0
			c-11.3-11.3,11.3-36.5,0-47.8s-36.5-11.3-47.8,0s11.3,36.5,0,47.8c-12.9,12.9-54.6,0-54.6,0C10.5,116.2,10.5,63.9,10.5,11.5z"/>
		<path id="path5043-37-6-7-7-2-9-4_2_" class="st1" d="M639,11.5c0,52.4,0,104.7,0,157.1c0,0-41.8-12.9-54.6,0
			c-11.3,11.3,11.3,36.5,0,47.8s-36.5,11.3-47.8,0s11.3-36.5,0-47.8c-12.9-12.9-54.6,0-54.6,0s-12.9-41.8,0-54.6
			c11.3-11.3,36.5,11.3,47.8,0s11.3-36.5,0-47.8s-36.5,11.3-47.8,0c-12.9-12.9,0-54.6,0-54.6C534.2,11.5,586.5,11.5,639,11.5
			L639,11.5z"/>
		<path id="path5043-3-8-7-6-7-6-2-2_2_" class="st1" d="M481.8,11.5c0,0-12.9,41.8,0,54.6c11.3,11.3,36.5-11.3,47.8,0
			c11.3,11.3,11.3,36.5,0,47.8s-36.5-11.3-47.8,0c-12.9,12.9,0,54.6,0,54.6s-41.8,12.9-54.6,0c-11.3-11.3,11.3-36.5,0-47.8
			s-36.5-11.3-47.8,0s11.3,36.5,0,47.8c-12.9,12.9-54.6,0-54.6,0s12.9-41.8,0-54.6c-11.3-11.3-36.5,11.3-47.8,0s-11.3-36.5,0-47.8
			s36.5,11.3,47.8,0c12.9-12.9,0-54.6,0-54.6C377.1,11.5,429.4,11.5,481.8,11.5L481.8,11.5z"/>
		<path id="path5043-5-82-0-1-4-0-2-2_2_" class="st1" d="M324.7,11.5c0,0,12.9,41.8,0,54.6c-11.3,11.3-36.5-11.3-47.8,0
			s-11.3,36.5,0,47.8s36.5-11.3,47.8,0c12.9,12.9,0,54.6,0,54.6s-41.8-12.9-54.6,0c-11.3,11.3,11.3,36.5,0,47.8s-36.5,11.3-47.8,0
			s11.3-36.5,0-47.8c-12.9-12.9-54.6,0-54.6,0s-12.9-41.8,0-54.6c11.3-11.3,36.5,11.3,47.8,0s11.3-36.5,0-47.8s-36.5,11.3-47.8,0
			c-12.9-12.9,0-54.6,0-54.6C220,11.5,272.3,11.5,324.7,11.5z"/>
		<path id="path5043-5-59-0-4-7-9-8-3_2_" class="st1" d="M639,325.7H481.8c0,0,12.9-41.8,0-54.6c-11.3-11.3-36.5,11.3-47.8,0
			s-11.3-36.5,0-47.8s36.5,11.3,47.8,0c12.9-12.9,0-54.6,0-54.6s41.8-12.9,54.6,0c11.3,11.3-11.3,36.5,0,47.8s36.5,11.3,47.8,0
			s-11.3-36.5,0-47.8c12.9-12.9,54.6,0,54.6,0C639,221,639,273.3,639,325.7L639,325.7z"/>
		<path id="path5043-0-33-7-8-3-3-1-9_2_" class="st1" d="M481.8,325.7H324.7c0,0-12.9-41.8,0-54.6c11.3-11.3,36.5,11.3,47.8,0
			s11.3-36.5,0-47.8s-36.5,11.3-47.8,0c-12.9-12.9,0-54.6,0-54.6s41.8,12.9,54.6,0c11.3-11.3-11.3-36.5,0-47.8s36.5-11.3,47.8,0
			s-11.3,36.5,0,47.8c12.9,12.9,54.6,0,54.6,0s12.9,41.8,0,54.6c-11.3,11.3-36.5-11.3-47.8,0s-11.3,36.5,0,47.8s36.5-11.3,47.8,0
			C494.7,283.9,481.8,325.7,481.8,325.7z"/>
		<path id="path5043-0-6-9-84-1-9-9-4-9-9_2_" class="st1" d="M167.6,325.7c0,0,12.9-41.8,0-54.6c-11.3-11.3-36.5,11.3-47.8,0
			s-11.3-36.5,0-47.8s36.5,11.3,47.8,0c12.9-12.9,0-54.6,0-54.6s41.8-12.9,54.6,0c11.3,11.3-11.3,36.5,0,47.8s36.5,11.3,47.8,0
			s-11.3-36.5,0-47.8c12.9-12.9,54.6,0,54.6,0s-12.9,41.8,0,54.6c11.3,11.3,36.5-11.3,47.8,0s11.3,36.5,0,47.8s-36.5-11.3-47.8,0
			c-12.9,12.9,0,54.6,0,54.6H167.6z"/>
		<path id="path5043-3-9-23-3-0-3-6-3-2_2_" class="st1" d="M10.5,168.6c0,0,41.8,12.9,54.6,0c11.3-11.3-11.3-36.5,0-47.8
			s36.5-11.3,47.8,0s-11.3,36.5,0,47.8c12.9,12.9,54.6,0,54.6,0s12.9,41.8,0,54.6c-11.3,11.3-36.5-11.3-47.8,0s-11.3,36.5,0,47.8
			s36.5-11.3,47.8,0c12.9,12.9,0,54.6,0,54.6h-157C10.5,273.3,10.5,221,10.5,168.6L10.5,168.6z"/>
	</g>
</g>
</svg>
