<?xml version="1.0" encoding="utf-8"?>
<!-- Generator: Adobe Illustrator 24.0.3, SVG Export Plug-In . SVG Version: 6.00 Build 0)  -->
<svg version="1.1" id="Layer_1" xmlns:serif="http://www.serif.com/"
	 xmlns="http://www.w3.org/2000/svg" xmlns:xlink="http://www.w3.org/1999/xlink" x="0px" y="0px" width="649.6px" height="336.7px"
	 viewBox="0 0 649.6 336.7" style="enable-background:new 0 0 649.6 336.7;" xml:space="preserve">
<style type="text/css">
	.st0{clip-path:url(#SVGID_2_);}
	.st1{fill:#F9F0CA;}
	.st2{fill:#F7E8B5;}
	.st3{fill:#E0D4A0;}
	.st4{fill:#99393E;}
	.st5{fill:#892C35;}
	.st6{fill:#75232F;}
	.st7{fill:#F2EEDD;}
	.st8{fill:#DDD2BF;}
	.st9{fill:#4D4D4D;}
	.st10{fill:#333333;}
	.st11{fill:#FFB882;}
	.st12{fill:#FF9566;}
	.st13{fill:#EA7B59;}
	.st14{fill:#FFFFFF;}
	.st15{fill:#39170B;}
	.st16{fill:#842A33;}
	.st17{fill:#513B3E;}
	.st18{fill:#422E31;}
	.st19{fill:#E2DABA;}
	.st20{fill:#E84D60;}
</style>
<g>
	<defs>
		<path id="SVGID_1_" d="M482.1,11c-52.4,0-104.9,0-157.3,0c-52.4,0-104.9,0-157.3,0C115,11,62.6,11,10.1,11c0,52.4,0,104.9,0,157.3
			c0,52.4,0,104.9,0,157.3h157.3h157.3h157.3h157.3c0-52.4,0-104.9,0-157.3c0-52.4,0-104.9,0-157.3C587,11,534.6,11,482.1,11z"/>
	</defs>
	<clipPath id="SVGID_2_">
		<use xlink:href="#SVGID_1_"  style="overflow:visible;"/>
	</clipPath>
	<g class="st0">
		<g>
			<g>
				<rect x="1.4" y="-0.2" class="st1" width="643.4" height="335.5"/>
				<path class="st2" d="M4.8,333.8h643.4V-3.9C540,128.4,272.5,329.6,4.8,286.9C4.7,286.9,4.8,333.8,4.8,333.8z"/>
				<g>
					<rect x="50.5" y="-0.2" class="st3" width="2.3" height="104.6"/>
					<rect x="50.5" y="106.3" class="st3" width="2.3" height="232"/>
					<rect x="368.2" y="340.2" class="st3" width="3.5" height="0"/>
					<polygon class="st3" points="368.2,190.8 368.2,192.7 365.9,192.7 365.9,338.3 368.2,338.3 368.2,-0.2 365.9,-0.2 365.9,190.8 
											"/>
					<polygon class="st3" points="647,190.8 644.7,190.8 1.4,190.8 1.4,192.7 644.7,192.7 647,192.7 					"/>
				</g>
			</g>
		</g>
		<g>
			<path class="st4" d="M116.4,217.4l83.1-24.7c0,0,42-117.5-10.2-134c-12.9-20.8-79.2-21.2-88.2,29.4
				C92.1,138.7,116.4,217.4,116.4,217.4z"/>
			<path class="st5" d="M157.1,99c-18.7-12.7-29.7-31-29.9-46.7c-12.6,6.5-22.9,18-26.1,35.8c-9,50.6,16,137.1,16,137.1l83.1-24.7
				c0,0,15.3-55.5,15.3-90.6C200.8,116.3,176.4,112.1,157.1,99z"/>
			<path class="st6" d="M166.3,120.1c-20.7,0-29.4,60.4-48.4,105.4l74.2-20.3C189.8,175.1,185,120.1,166.3,120.1z"/>
			<g>
				<path class="st7" d="M250,266.4c-2.9-14.1-51.7-91.4-70-92.2c-8.5-0.4,42.5,78.7,50,99.2C232.9,281.1,252.4,277.7,250,266.4z"/>
				<path class="st8" d="M239.8,267.5c-5.8-15.9-56.2-93.2-59.7-93.4c-8.5-0.4,42.5,78.7,50,99.2c1.9,5.1,10.8,5.3,16.2,1.7
					C243.9,274.6,240.5,269.5,239.8,267.5z"/>
				<path class="st9" d="M245.3,281c2.6-0.1,10.9-4.1,10.9-9.8c0-5.7-10.6-16.1-20.5-11.1c-3.6,1.8-10.6,6.6-10.3,7
					C225.5,267.2,231.5,281.6,245.3,281z"/>
				<path class="st10" d="M252.7,265.6c0,0.4,0,0.8-0.2,1.2c-1,2.8-5.8,3.7-10.8,2c-4.9-1.7-8.2-5.3-7.3-8.1
					c-3.9,1.8-9.2,6.1-8.9,6.5c0,0,6,14.4,19.9,13.8c2.6-0.1,10.9-4.1,10.9-9.8C256.3,269.5,254.9,267.5,252.7,265.6z"/>
			</g>
			<path class="st9" d="M205.8,351.7c-2.2-14-5.1-25-9-30.1c-17.9-23.1-34.1-36.3-39.8-16.4c-3.3,11.3-17.4,12.8-27.5,47.5
				C121.8,378.9,213.5,401.8,205.8,351.7z"/>
			<path class="st10" d="M160.8,352.9c6.4-24.1,14.9-40.5,24.3-45c-3.5-21.6-22.5-21.8-28.2-1.9c-3.3,11.4-17.5,12.5-27.6,47.6
				C121.7,379.7,153.1,381.8,160.8,352.9z"/>
			<path class="st8" d="M146,319.3c7.4-31-21.2-124.1-14.1-137.5c0,0,66.6,27.3,66.4,45.3c-0.3,35.3-3.9,77.6-0.8,95.3L146,319.3z"
				/>
			<path class="st7" d="M131.3,183c-0.8,13.4,8.3,69,13,72.9c11.1,9.4,54.1,6.3,60.3-5.4c5.1-9.6-17.6-70.7-20.8-73.4
				C180.6,174.3,131.7,176.3,131.3,183z"/>
			<path class="st8" d="M156.1,248.8c-4.8-3.8-24.8-67.6-24.9-65.8c-0.8,13.4,7.7,65.2,13,72.2c8.1,10.7,64.2,7.9,60.3-8.5
				C188.3,252.8,165.3,256.1,156.1,248.8z"/>
			<path class="st11" d="M140.3,178.6c3.5,15.7,9.5,53.8,35.3,53.4c25.9-0.4,0.8-56.4,0.8-56.4C161.9,174.4,149.6,174.8,140.3,178.6
				z"/>
			<path class="st12" d="M176.3,175.6c-0.3,0-0.6,0-0.9-0.1c4.5,10.2,22.2,54.5-1.4,54.9c-5.9,0.1-11.1-2.7-15.8-7.1
				c5,5.4,10.8,8.8,17.4,8.7C201.4,231.6,176.3,175.6,176.3,175.6z"/>
			<polygon class="st11" points="143,134.4 146.2,177.1 159.5,186.5 170.1,176.6 160.3,136.4 			"/>
			<path class="st11" d="M139.1,136.1c2.6,19.4,38.2,36.1,38.2,36.1s21.4-24.8,21.8-53.8c0.3-21.2-3.4-41-28.9-40.2
				C149.1,78.8,134.4,101.2,139.1,136.1z"/>
			<path class="st5" d="M143,135.7c8.4-17.8,21.2-57.7,5.6-70.1c-11-8.7-21.7,27.9-15.7,51.8C135.3,126.6,143,135.7,143,135.7z"/>
			<path class="st11" d="M139.9,121.7c-6.6-4.4-14.6-5.7-14.1,1.6c0.5,7.3,12,14.4,17.8,17C149.3,142.9,142.2,123.3,139.9,121.7z"/>
			<path class="st13" d="M138.3,124.1c-3.6-2.4-8-3.2-7.7,0.9c0.3,4,6.6,7.9,9.7,9.3C143.4,135.7,139.6,124.9,138.3,124.1z"/>
			<path class="st11" d="M140.6,128.7c-2.9-1.9-6.4-2.5-6.2,0.7c0.2,3.2,5.3,6.3,7.8,7.5C144.7,138,141.6,129.4,140.6,128.7z"/>
			<path class="st4" d="M154.1,71.4c-3-8.6-9.6-14.1-14.9-12.3c-5.2,1.8-7,10.3-4,18.9c3,8.6,9.6,14.1,14.9,12.3
				C155.2,88.5,157.1,80,154.1,71.4z"/>
			<g>
				<path class="st13" d="M178.9,129.9c2.5,3.8,4.6,9.1,3.3,10.5c-1.3,1.3-7.7,1.2-8.2,0.8C173.5,140.8,178.9,129.9,178.9,129.9z"/>
				<path class="st11" d="M177.1,129c2.5,3.8,4.6,9.1,3.3,10.5c-1.3,1.3-7.7,1.2-8.2,0.8C171.6,139.8,177.1,129,177.1,129z"/>
				<g>
					<path class="st4" d="M200.5,109.3l0.5-1c-3.5-5.8-11.6-8.5-15.5-8.6l-0.5,2.7C188.1,102.1,196.4,104.4,200.5,109.3z"/>
				</g>
				<g>
					<path class="st4" d="M153.7,105.2c6.6-4.6,18.4-5.2,21.3-5l-0.1-2.8c-3.2-0.2-14.3,1-21.9,6.8L153.7,105.2z"/>
				</g>
				<g>
					<path class="st13" d="M181.3,151.5l-0.3-0.9c-0.5,0.1-11.1,3-21.3-8.3l-1.5,1.3C167.5,153.6,176.3,153,181.3,151.5z"/>
				</g>
				<path class="st13" d="M168.3,155.1c0.1-0.6,1.5-0.1,3.3,0.3c1.9,0.4,3.5,0.6,3.4,1.3s-1.7,0.8-3.6,0.4
					C169.5,156.6,168.1,155.7,168.3,155.1z"/>
				<g>
					<path class="st14" d="M168.2,120.7c1.3-1.4-0.5-7-5.6-8.9c-5.1-1.9-8,1.4-8.2,2.8c-0.2,1.4,0.3,3.9,3.3,5.3
						c2.9,1.4,5.4,1.2,6.8,1.2C166.3,121.2,167.5,121.6,168.2,120.7z"/>
					<circle class="st15" cx="162.3" cy="115.2" r="4.5"/>
					<circle class="st14" cx="160.7" cy="114.2" r="1.8"/>
					<path class="st15" d="M168.6,119.5c0,0,0.8-2.6-2.2-6.2c-3-3.6-7.2-3.1-8.4-3.3c-1.2-0.3-2.4,0-2.1,0.3
						c0.3,0.3-0.8,1.2-1.7,0.9c-0.9-0.3-0.1,0.8-0.1,1.1c0,0.3-1.6,0.1-1.8,0.5c-0.1,0.3,0.8,1.2,0.6,1.2c-0.3,0.1-1.2,0.7-0.8,1
						c0.4,0.3,1.2,1.4,1.5,1.9c0.3,0.5,1.3,0.9,1.3,0.9s-1-2.2-0.2-3.7c0.8-1.5,2.7-3,5.6-2.5s4.7,2,5.9,3.3
						C167.7,116.2,168.6,119.5,168.6,119.5z"/>
				</g>
				<g>
					<path class="st14" d="M184.8,120.1c-1.1-1.5,1.4-6.5,6.5-7.6c5-1.1,7.3,2.4,7.3,3.7c0,1.3-0.8,3.6-3.8,4.6
						c-2.9,1-5.2,0.4-6.6,0.2C186.6,120.7,185.4,121,184.8,120.1z"/>
					<circle class="st15" cx="191.1" cy="115.7" r="4.3"/>
					<path class="st14" d="M187.8,114.6c-0.1,0.9,0.6,1.8,1.6,1.8c0.9,0.1,1.8-0.6,1.8-1.6c0.1-0.9-0.6-1.8-1.6-1.8
						C188.7,113,187.8,113.7,187.8,114.6z"/>
					<path class="st15" d="M184.6,118.9c0,0-0.4-2.5,2.9-5.5c3.3-3,7.2-1.9,8.3-2c1.1-0.1,2.3,0.3,1.9,0.6c-0.4,0.3,0.6,1.2,1.4,1.1
						c0.9-0.1-0.1,0.8-0.1,1c0,0.3,1.5,0.3,1.6,0.7c0.1,0.3-0.9,1-0.7,1.1c0.2,0.1,1,0.8,0.6,1.1c-0.4,0.3-1.3,1.2-1.7,1.6
						c-0.4,0.4-1.3,0.7-1.3,0.7s1.2-1.9,0.7-3.4c-0.5-1.5-2.1-3.2-4.9-3.1c-2.8,0.1-4.7,1.3-6,2.3
						C185.9,115.9,184.6,118.9,184.6,118.9z"/>
				</g>
			</g>
			<path class="st7" d="M85.7,266.2c0.7-12.5,30.5-84.4,54-87.3c8.3-1-30.7,73.3-34.8,91.9C103.3,277.8,85.2,276.2,85.7,266.2z"/>
			<path class="st8" d="M89.2,266.6c2.2-39.3,51.8-88.1,51.8-88.1c-23.5,0.3-55.9,76.3-56.5,88.8c-0.4,7.2,9.6,9.5,15.8,7.6
				C94.6,274.7,88.9,272.1,89.2,266.6z"/>
			<g>
				<g>
					<path class="st11" d="M140.5,329.3c-4-9.9-33.5-59.4-36.6-62.4c-3.1-3-16.7-7.7-18.7,0.2c-2,7.9,49.6,63.4,49.6,63.4
						L140.5,329.3z"/>
					<path class="st12" d="M97.7,279.7c1.2-4.9,7.2-4.7,12.4-3.2c-3.3-5.3-5.6-9-6.3-9.6c-3.1-3-17.8-8.3-19.8-0.4
						c-2,7.9,50.7,64,50.7,64l2-0.2C118.4,308.9,96.3,285.4,97.7,279.7z"/>
				</g>
				<path class="st9" d="M88,274.7c-2.3,1.2-6.5-12.6-2.6-16.7c4-4.1,20.1,4.2,21.2,7.1c1,2.9-1,7.4-1,7.4S97.1,270,88,274.7z"/>
				<path class="st10" d="M106.6,265c-0.2-0.5-0.9-1.3-2-2.1c0,0.9-0.2,1.8-0.8,2.6c-1.9,2.8-6.6,3-10.6,0.3c-3.6-2.4-5.3-6.2-4.2-9
					c-1.6,0-3,0.2-3.7,1.1c-4.5,5.7,0.2,17.9,2.6,16.7c9.1-4.7,17.6-2.2,17.6-2.2S107.7,267.9,106.6,265z"/>
				<g>
					<path class="st11" d="M157.7,343.6L157.7,343.6l-9.5-10.5l9,5.5c1.1,0.6,1.8-0.1,2-0.5l-4.3-3.3l-1.4-1l0,0
						c-1.3-1-2.5-2-3.6-2.7l0,0l-1.8-1.5l-12.7-3.9l0,0l-1.2,1.4l-0.6,2.4c0,0,2.3,3.9,5.9,6.7c2.3,4.5,5.1,7.8,5.1,7.8
						c1.9,1.7,1.8-0.3,1.8-0.3c-1.9-1.6-3.5-5.2-3.8-5.7c-0.2-0.4-0.3-0.8-0.5-1.2l0.4-0.1l9,10.1c1.4,1.3,1.8-0.8,1.8-0.8l-6.2-8.2
						l-1.2-2l0.7-0.2l-0.1-0.2l0.2,0.2l8.9,9.5l0,0c1.6,1.6,3.3-0.2,3.3-0.2L157.7,343.6z"/>
				</g>
			</g>
			<g>
				<path class="st11" d="M200.5,334.3c2.3-7.8,29.5-59.9,32.1-62.1c2.6-2.3,14.5-5.9,17.6,0.5c3.1,6.4-46.1,61.3-46.1,61.3
					L200.5,334.3z"/>
				<path class="st12" d="M234.2,271.2c3.7-0.4,7.3,0.3,8.8,3.3c2.6,5.3-27.9,44.5-39.9,59.5l1.1-0.1c0,0,50.6-55,47.5-61.4
					C249,267,238.5,269.1,234.2,271.2z"/>
				<g>
					<path class="st11" d="M181.3,347.7L181.3,347.7l9.1-10.1l-8.7,5.3c-1.1,0.5-1.7-0.1-2-0.4l4.2-3.2l1.3-1l0,0
						c1.2-1,2.4-1.9,3.5-2.6l0,0l1.7-1.4l12.2-3.7l0,0l1.1,1.3l0.6,2.3c0,0-2.2,3.8-5.7,6.5c-2.2,4.3-4.9,7.5-4.9,7.5
						c-1.8,1.7-1.7-0.3-1.7-0.3c1.8-1.6,3.4-5,3.6-5.5c0.2-0.4,0.3-0.8,0.5-1.1l-0.4-0.1l-8.6,9.8c-1.4,1.2-1.8-0.8-1.8-0.8l6-7.9
						l1.1-1.9l-0.7-0.2l0.1-0.2l-0.2,0.2l-8.5,9.2l0,0c-1.6,1.5-3.2-0.1-3.2-0.1L181.3,347.7z"/>
				</g>
			</g>
		</g>
		<g>
			<path class="st4" d="M503.9,131.8c28.4-25.5,45.3-56.1,41.4-63.5c-3.9-7.4-11-8.6-11-8.6s9.4-6.7-5.1-17.2
				c-14.5-10.6-57.6-23.1-74.9-7.8c-17.2,15.3-3.5,78.8-3.5,78.8L503.9,131.8z"/>
			<path class="st16" d="M485.7,46.3c26.8,0,41.2,11,41.2-2c0-1.4-0.3-2.7-0.8-4c1.1,0.7,2.2,1.4,3.1,2c14.5,10.6,5.1,17.2,5.1,17.2
				s7.1,1.2,11,8.6c3.9,7.4-12.9,38-41.4,63.5l-53.1-18.5c0,0-6.1-28.2-5-51.5C454.4,65.5,473.2,46.3,485.7,46.3z"/>
			<path class="st17" d="M531,324.2c5.7-34.5,17.9-137.4,15.8-143.7c-2.1-6.3-52.4-31.9-63.4-29.8c-11,2.1-59.6,14.1-65.8,23
				c-6.3,8.9-0.5,152.6-0.5,152.6L531,324.2z"/>
			<g>
				<path class="st18" d="M417.9,210.5c3.5,49.9,21.5,85.7,53.3,88.3c54.5,4.5,52.5-54.9,72.7-100.5c-1.8,28.5,2.9,157.6-1,168.6
					c-3.9,10.9-121.9,14.1-124.2,1.6s-3.9-101.4-3.9-146.2C414.7,197.3,416.8,195.3,417.9,210.5z"/>
			</g>
			<path class="st12" d="M477.8,280.3c-1.3-0.7-7.9-6.5-10.1-7.7c-2.2-1.2-4.9,2.4-4.4,4.3c0.5,1.9,4.9,6,7.9,9.3
				c2.6,3,9.4,6.4,14.7,7.8l4.1-7.5C490,286.5,479.1,281,477.8,280.3z"/>
			<path class="st11" d="M467.7,274.8c-0.6,1.9-5.2,5.7-8.3,8.9c-2.8,2.9-9.7,5.9-15.1,7l-3.7-7.7c0,0,11.2-5,12.5-5.6
				c1.4-0.6,8.2-6.1,10.5-7.1C465.8,269.2,468.4,272.9,467.7,274.8z"/>
			<path class="st12" d="M449,279.2c-1.2,2.7,2.9,7.5,13.6-1c2-1.6,3.8-2.2,5.1-3.9c0,0.1,0,0.3-0.1,0.4c-0.6,1.9-5.2,5.7-8.3,8.9
				c-2.8,2.9-9.7,5.9-15.1,7l-3.7-7.7C440.6,283,445.3,280.9,449,279.2z"/>
			<path class="st12" d="M444.4,286.7c5.3-0.4,12.6-3.3,15-2.2c2.4,1.2,6.2,24.3,5.3,28.5c-0.9,4.2-24.2-3.2-24.2-3.2L444.4,286.7z"
				/>
			<path class="st11" d="M487.8,286.7c-4.9-0.4-11.6-3.3-13.7-2.2c-2.2,1.2-5.7,24.3-4.9,28.5c0.8,4.2,24.4-4,24.4-4L487.8,286.7z"
				/>
			<path class="st11" d="M452.8,308.9c1.4-1.4,8.4-2.1,10.6-2.2c2.2-0.1,10.2-0.6,15.9,0.2l-3.1,8.1c0,0-10.4-0.8-11.9-0.9
				c-1.5-0.1-7.5,0.9-10,0.8C451.9,314.8,451.3,310.4,452.8,308.9z"/>
			<path class="st11" d="M453.4,283.9c1.6-1.2,9.7-2.6,11.8-2.8c2.2-0.2,9.6,1.9,14.7,4l-3.8,7.7c0,0-10.2-3.7-11.7-3.9
				c-1.5-0.2-7.6,1.6-10.1,1.2C451.9,289.7,451.8,285.2,453.4,283.9z"/>
			<path class="st12" d="M476.5,285.7c-1.7-1.2-8.7-0.5-10.8-0.1c-2.2,0.3-9.2,2.1-14.6,4l3.6,6.9c0,0,10-2.9,11.5-3.3
				s7.6-0.6,10-1.2C478.5,291.5,478.2,286.8,476.5,285.7z"/>
			<polygon class="st7" points="499.8,281.6 486.5,281.8 490.6,314.2 501.6,313.7 			"/>
			<path class="st11" d="M476.4,286c-1.7-1.2-8.7-0.5-10.8-0.1c-2.2,0.3-9.2,2.1-14.6,4l3.6,6.9c0,0,10-2.9,11.5-3.3
				c1.4-0.4,7.6-0.6,10-1.2C478.4,291.8,478,287.2,476.4,286z"/>
			<path class="st12" d="M464.3,286.1c-0.7,0.6-1.1,1.2-1.1,1.9c0,2.2,3.8,2.4,8.3,2.4c2.6,0,4.6,0.9,6.1-0.1c-0.2,1-0.7,1.8-1.6,2
				c-2.4,0.6-8.5,0.8-10,1.2c-1.4,0.4-11.5,3.3-11.5,3.3l-3.6-6.9C455.6,288.2,461.4,286.7,464.3,286.1z"/>
			<path class="st12" d="M478.5,305.6c-1.4,1.4-8.4,2.1-10.6,2.2c-2.2,0.1-10.2,0.7-15.9-0.1l3-8.1c0,0,10.4,0.8,11.9,0.9
				c1.5,0.1,7.5-0.9,10-0.8C479.4,299.7,480,304.2,478.5,305.6z"/>
			<path class="st12" d="M478.5,305.6c-1.4,1.4-8.4,2.1-10.6,2.2c-2.2,0.1-10.2,0.7-15.9-0.1l3-8.1c0,0,10.4,0.8,11.9,0.9
				c1.5,0.1,7.5-0.9,10-0.8C479.4,299.7,480,304.2,478.5,305.6z"/>
			<path class="st11" d="M468.6,304.9c-0.2-1.7,3.7-4.5,6.7-4.8c3.1-0.3,3.5,0.9,3.6,2.6c0.2,1.7,0.1,3.3-3,3.7
				C472.9,306.6,468.8,306.6,468.6,304.9z"/>
			<path class="st11" d="M454.9,297.8c1.2-1.6,8.8-5.1,10.8-5.9c2-0.8,9.7-0.7,15.1,0l-1.6,7c0,0-10.3,1.4-11.8,1.5
				c-1.5,0.2-7.8,2.7-10.2,3C454.9,303.8,453.7,299.4,454.9,297.8z"/>
			<polygon class="st7" points="444.5,281.6 431.2,281.8 435.4,314.2 446.3,313.7 			"/>
			<path class="st17" d="M404.9,278.3c0.1-4.8,10.5-18.1,12.9-31c6.3-33.6,9.5-81.9,0.8-75.1c-12.1,9.4-60.1,98.8-60.2,136.8
				l80.6,6.1l-0.8-39.1L404.9,278.3z"/>
			<path class="st18" d="M418.7,172.3c0.2-0.1,0.3-0.2,0.5-0.3c-18.1,25.7-61.8,122.9-55.8,132.4c6,9.4,75.5,2,75.5,2l0.2,8.8
				c0,0-78.4,5.9-83.7-6.1C350.1,297.2,406.6,181.7,418.7,172.3z"/>
			<path class="st18" d="M399.8,281.1c0,0,14.5-29.2,21.9-59.6c-1,8.8-2.5,25.8-4,33.9c-3.5,10.6-7.2,17.6-9,21.8l6.4,0.9
				L399.8,281.1z"/>
			<path class="st17" d="M528.1,275.1c0.6-5.4-0.3-22,1.2-36.4c3.3-30.4,10.6-64.5,17.5-58.3c10.3,9.2,25.8,89,20.9,126.3l-68,8
				l-4.7-40.2L528.1,275.1z"/>
			<path class="st18" d="M561.9,302.4c9.1-6.6-4.5-95.1-14.2-121.1c10.5,12.7,32.1,124.1,22.5,129.3c-9.7,5.3-70.3,4.1-70.3,4.1
				l-1-8.2C498.9,306.6,552.8,309,561.9,302.4z"/>
			<path class="st7" d="M444.8,160.9c15.4-4.9,32.2-11.2,38.2-12.3c5.2-1,19.8,6.4,33.4,12.8l-44.9,105.8L444.8,160.9z"/>
			<polygon class="st19" points="471.7,172.4 468,176.3 453.3,158.1 458.2,155.6 476.8,164.7 505.3,155.8 509.8,158.6 485.4,176.6 
				482.7,173 481.1,175.2 482.3,241.7 478,252.3 466.1,246.4 464.4,239.2 473.4,175 			"/>
			<polygon class="st11" points="503.1,126.3 504.5,156 480.1,162.3 457.5,156.4 461.5,122.3 			"/>
			<polygon class="st20" points="471.2,273.6 480.8,245.9 480.1,162.3 476.7,161.9 465.4,245.3 			"/>
			<polygon class="st20" points="476.9,178.2 483.6,169.2 481.9,161.4 474.7,160.5 471.4,169.2 			"/>
			<polygon class="st7" points="485.4,176.3 479.4,161.1 504.8,151.3 507.9,156.7 			"/>
			<polygon class="st7" points="468,176.3 477.2,160.3 457.6,153.3 455,156.7 			"/>
			<path class="st11" d="M516.9,66.4c-6.7,41.2-13.7,69-17.1,74.8c-10.6,17.6-49.4,11-49.4,11S427.2,77.8,466.5,53
				C498.4,32.7,516.9,66.4,516.9,66.4z"/>
			<path class="st16" d="M526.4,65.5c-5.2-17-23.5-20.8-27.4,8.2c-3.9,29-3.5,47-3.5,47h10.2C505.7,120.8,529.6,75.7,526.4,65.5z"/>
			<path class="st11" d="M502.3,105.1c6.3-9.9,18.8-10.3,19.2-1.3c0.4,9-17,24-20.4,19.3C497.7,118.4,500.1,108.6,502.3,105.1z"/>
			<path class="st13" d="M505.4,107.1c3.9-6.2,11.7-6.5,12-0.8c0.2,5.6-10.6,15-12.8,12C502.5,115.4,504,109.3,505.4,107.1z"/>
			<path class="st11" d="M504.3,110.9c2.7-4.3,8.2-4.5,8.4-0.6c0.2,4-7.5,10.5-8.9,8.4C502.3,116.7,503.3,112.4,504.3,110.9z"/>
			<g>
				<path class="st13" d="M467.9,78.3c-3.1,16.1-7.5,37.3-7.5,40.4c0,3.1,9.4,6.8,11.1,5.8c1.7-1-2-46.2-2-46.2H467.9z"/>
				<path class="st11" d="M469.6,76.8c-3.1,16.1-7.5,37.3-7.5,40.4c0,3.1,9.4,6.8,11.1,5.8c1.7-1-2-46.2-2-46.2H469.6z"/>
				<g>
					<path class="st13" d="M487.4,126.9l0.9,1.9c-4.9,5.3-15.8,6.1-34.1,2.4l0.2-0.8C472,133.9,482.9,131.7,487.4,126.9z"/>
				</g>
				<path class="st13" d="M463.5,135.9c-0.1,0.5,1.6,1.7,4.1,1.8c2.4,0.1,4.7-0.9,4.7-1.4c0.1-0.5-2.3,0-4.7-0.1
					C465.1,136,463.5,135.3,463.5,135.9z"/>
				<g>
					<path class="st14" d="M459.9,95.4c0.1-4.2-0.5-9.3-7-11c-6.5-1.7-9.5,4.1-9.5,6.2c0.1,2.1,1.9,5.3,5.4,5.7
						c3.6,0.3,6.8,0.1,8.1,0.2C458.3,96.9,459.9,96.3,459.9,95.4z"/>
					<circle class="st15" cx="452.3" cy="90.3" r="5.4"/>
					<path class="st14" d="M456.9,88.4c-0.1,1.3-1.2,2.4-2.5,2.3s-2.4-1.2-2.3-2.5s1.2-2.4,2.5-2.3C455.9,85.9,457,87,456.9,88.4z"
						/>
					<path class="st14" d="M476.6,96c0.2-4.2,1.1-9.2,7.6-10.5s9.3,4.7,9,6.9c-0.3,2.2-2.2,5.2-5.8,5.4c-3.6,0.2-6.8-0.4-8.1-0.2
						C478.1,97.5,476.6,96.9,476.6,96z"/>
					<path class="st15" d="M479.4,90.8c-0.1,3,2.2,5.5,5.2,5.5c3,0.1,5.5-2.2,5.5-5.2c0.1-3-2.2-5.5-5.2-5.5
						C481.9,85.5,479.5,87.8,479.4,90.8z"/>
					<path class="st14" d="M484.4,88.9c-0.1,1.3,1,2.5,2.3,2.5c1.3,0.1,2.5-1,2.5-2.3c0.1-1.3-1-2.5-2.3-2.5
						C485.6,86.5,484.5,87.6,484.4,88.9z"/>
				</g>
				<path class="st4" d="M467.2,72.1c0.9,1.2,0.4,11.8-0.2,12.8c-0.7,0.9-18.7,0.9-19.7,0c-1-0.8-0.9-11.6-0.3-13
					C447.5,70.5,466.3,70.8,467.2,72.1z"/>
				<path class="st4" d="M496.6,74.1c1.1,1.3,0.6,11.8-0.3,12.7c-0.9,0.9-23.7-0.5-24.9-1.3c-1.3-0.9-1.1-11.7-0.4-13
					C471.6,71.1,495.4,72.7,496.6,74.1z"/>
			</g>
		</g>
	</g>
</g>
</svg>
