<?xml version="1.0" encoding="UTF-8" standalone="no"?>
<!DOCTYPE svg PUBLIC "-//W3C//DTD SVG 1.1//EN" "http://www.w3.org/Graphics/SVG/1.1/DTD/svg11.dtd">
<svg width="100%" height="100%" viewBox="0 0 175 219" version="1.1" xmlns="http://www.w3.org/2000/svg" xmlns:xlink="http://www.w3.org/1999/xlink" xml:space="preserve" xmlns:serif="http://www.serif.com/" style="fill-rule:evenodd;clip-rule:evenodd;stroke-linejoin:round;stroke-miterlimit:2;">
    <path id="path" d="M166.4,1.9C166.4,1.9 179.4,44 166.4,57C155,68.4 129.6,45.6 118.2,57C106.8,68.4 106.8,93.8 118.2,105.2C129.6,116.6 155,93.8 166.4,105.2C179.4,118.2 166.4,160.3 166.4,160.3C166.4,160.3 124.3,147.3 111.3,160.3C99.9,171.7 122.7,197.1 111.3,208.5C99.9,219.9 74.5,219.9 63.1,208.5C51.7,197.1 74.5,171.7 63.1,160.3C50.1,147.3 8,160.3 8,160.3C8,160.3 -5,118.2 8,105.2C19.4,93.8 44.8,116.6 56.2,105.2C67.6,93.8 67.6,68.4 56.2,57C44.9,45.6 19.4,68.3 8,56.9C-5,43.9 8,1.8 8,1.8C60.8,1.9 113.6,1.9 166.4,1.9Z" style="fill:rgb(93,188,234);fill-rule:nonzero;"/>
    <clipPath id="_clip1">
        <path id="path1" serif:id="path" d="M166.4,1.9C166.4,1.9 179.4,44 166.4,57C155,68.4 129.6,45.6 118.2,57C106.8,68.4 106.8,93.8 118.2,105.2C129.6,116.6 155,93.8 166.4,105.2C179.4,118.2 166.4,160.3 166.4,160.3C166.4,160.3 124.3,147.3 111.3,160.3C99.9,171.7 122.7,197.1 111.3,208.5C99.9,219.9 74.5,219.9 63.1,208.5C51.7,197.1 74.5,171.7 63.1,160.3C50.1,147.3 8,160.3 8,160.3C8,160.3 -5,118.2 8,105.2C19.4,93.8 44.8,116.6 56.2,105.2C67.6,93.8 67.6,68.4 56.2,57C44.9,45.6 19.4,68.3 8,56.9C-5,43.9 8,1.8 8,1.8C60.8,1.9 113.6,1.9 166.4,1.9Z" clip-rule="nonzero"/>
    </clipPath>
    <g clip-path="url(#_clip1)">
        <g>
            <g>
                <rect x="-11.2" y="-10.4" width="198.5" height="236.8" style="fill:rgb(249,240,202);"/>
                <g>
                    <path d="M487.6,181.7L-162.1,181.7L-162.1,183.6L487.6,183.6L487.6,181.7Z" style="fill:rgb(224,212,160);fill-rule:nonzero;"/>
                </g>
            </g>
        </g>
        <g>
            <path d="M-46.4,208.5L37.2,183.7C37.2,183.7 79.4,65.4 27,48.9C14,27.9 -52.7,27.6 -61.7,78.4C-70.8,129.3 -46.4,208.5 -46.4,208.5Z" style="fill:rgb(153,57,62);fill-rule:nonzero;"/>
            <path d="M-5.4,89.4C-24.2,76.6 -35.3,58.2 -35.5,42.4C-48.2,48.9 -58.6,60.5 -61.8,78.4C-70.9,129.3 -45.7,216.3 -45.7,216.3L38,191.5C38,191.5 53.4,135.7 53.4,100.3C38.6,106.8 14,102.6 -5.4,89.4Z" style="fill:rgb(137,44,53);fill-rule:nonzero;"/>
            <path d="M3.9,110.6C-16.9,110.6 -25.7,171.4 -44.8,216.6L29.9,196.2C27.5,166 22.7,110.6 3.9,110.6Z" style="fill:rgb(117,35,47);fill-rule:nonzero;"/>
            <g>
                <path d="M88.1,257.8C85.1,243.6 36,165.9 17.7,165C9.1,164.6 60.5,244.2 68,264.8C70.9,272.7 90.5,269.2 88.1,257.8Z" style="fill:rgb(242,238,221);fill-rule:nonzero;"/>
                <path d="M77.8,259C71.9,243 21.3,165.2 17.7,165.1C9.1,164.7 60.5,244.3 68,264.9C69.9,270 78.9,270.3 84.3,266.7C82,266 78.5,261 77.8,259Z" style="fill:rgb(221,210,191);fill-rule:nonzero;"/>
            </g>
            <path d="M-16.6,311C-9.1,279.8 -37.9,186.1 -30.8,172.6C-30.8,172.6 36.2,200 36,218.2C35.7,253.8 32.1,296.3 35.2,314.1L-16.6,311Z" style="fill:rgb(221,210,191);fill-rule:nonzero;"/>
            <path d="M-31.4,173.9C-32.2,187.3 -23,243.3 -18.4,247.3C-7.2,256.8 36,253.7 42.3,241.9C47.4,232.3 24.5,170.8 21.4,168C18.3,165.2 -31,167.2 -31.4,173.9Z" style="fill:rgb(242,238,221);fill-rule:nonzero;"/>
            <path d="M-6.4,240.1C-11.2,236.3 -31.3,172.1 -31.4,173.9C-32.2,187.3 -23.7,239.5 -18.4,246.5C-10.2,257.2 46.2,254.4 42.3,237.9C26.1,244.1 2.8,247.4 -6.4,240.1Z" style="fill:rgb(221,210,191);fill-rule:nonzero;"/>
            <path d="M-22.3,169.5C-18.8,185.3 -12.8,223.6 13.2,223.2C39.2,222.8 14,166.5 14,166.5C-0.6,165.3 -12.9,165.7 -22.3,169.5Z" style="fill:rgb(255,184,130);fill-rule:nonzero;"/>
            <path d="M14,166.5C13.7,166.5 13.4,166.5 13.1,166.4C17.7,176.7 35.5,221.3 11.7,221.6C5.8,221.7 0.5,218.9 -4.2,214.5C0.9,219.9 6.7,223.3 13.3,223.2C39.2,222.8 14,166.5 14,166.5Z" style="fill:rgb(255,149,102);fill-rule:nonzero;"/>
            <path d="M-19.5,125L-16.4,168L-3,177.4L7.7,167.4L-2.1,127L-19.5,125Z" style="fill:rgb(255,184,130);fill-rule:nonzero;"/>
            <path d="M-23.5,126.7C-20.9,146.2 14.9,163 14.9,163C14.9,163 36.4,138.1 36.8,108.9C37.1,87.6 33.4,67.6 7.7,68.4C-13.4,69.1 -28.2,91.6 -23.5,126.7Z" style="fill:rgb(255,184,130);fill-rule:nonzero;"/>
            <g>
                <path d="M16.6,120.5C19.1,124.3 21.2,129.7 19.9,131C18.6,132.3 12.1,132.2 11.6,131.8C11.1,131.4 16.6,120.5 16.6,120.5Z" style="fill:rgb(234,123,89);fill-rule:nonzero;"/>
                <path d="M14.8,119.6C17.3,123.4 19.4,128.8 18.1,130.1C16.8,131.4 10.3,131.3 9.8,130.9C9.3,130.5 14.8,119.6 14.8,119.6Z" style="fill:rgb(255,184,130);fill-rule:nonzero;"/>
                <g>
                    <path d="M38.3,99.7L38.8,98.7C35.3,92.8 27.1,90.1 23.2,90.1L22.7,92.8C25.9,92.5 34.2,94.8 38.3,99.7Z" style="fill:rgb(153,57,62);fill-rule:nonzero;"/>
                </g>
                <g>
                    <path d="M-8.8,95.6C-2.2,91 9.8,90.3 12.6,90.6L12.5,87.8C9.3,87.6 -1.9,88.8 -9.6,94.6L-8.8,95.6Z" style="fill:rgb(153,57,62);fill-rule:nonzero;"/>
                </g>
                <g>
                    <path d="M19,142.2L18.6,141.3C18.1,141.4 7.4,144.3 -2.8,133L-4.3,134.3C5.1,144.3 14,143.7 19,142.2Z" style="fill:rgb(234,123,89);fill-rule:nonzero;"/>
                </g>
                <path d="M5.9,145.8C6,145.2 7.4,145.7 9.3,146.1C11.2,146.5 12.8,146.7 12.7,147.4C12.6,148 10.9,148.2 9.1,147.8C7.1,147.4 5.7,146.5 5.9,145.8Z" style="fill:rgb(234,123,89);fill-rule:nonzero;"/>
                <g>
                    <path d="M5.8,111.3C7.1,109.9 5.3,104.3 0.1,102.3C-5.1,100.3 -7.9,103.7 -8.2,105.1C-8.4,106.5 -7.9,109 -4.9,110.5C-2,111.9 0.5,111.7 2,111.7C3.8,111.7 5.1,112.1 5.8,111.3Z" style="fill:white;fill-rule:nonzero;"/>
                    <circle cx="-0.1" cy="105.7" r="4.6" style="fill:rgb(57,23,11);"/>
                    <circle cx="-1.8" cy="104.7" r="1.8" style="fill:white;"/>
                    <path d="M6.2,110.1C6.2,110.1 7,107.5 4,103.9C1,100.3 -3.3,100.8 -4.4,100.5C-5.6,100.2 -6.8,100.5 -6.5,100.8C-6.2,101.1 -7.3,102 -8.2,101.7C-9.1,101.4 -8.3,102.5 -8.3,102.8C-8.3,103.1 -9.9,102.9 -10.1,103.3C-10.2,103.6 -9.3,104.5 -9.5,104.5C-9.8,104.6 -10.7,105.2 -10.3,105.5C-9.9,105.8 -9.1,106.9 -8.7,107.4C-8.4,107.9 -7.4,108.3 -7.4,108.3C-7.4,108.3 -8.4,106.1 -7.6,104.6C-6.8,103.1 -4.9,101.6 -2,102.1C1,102.6 2.7,104.1 4,105.4C5.3,106.7 6.2,110.1 6.2,110.1Z" style="fill:rgb(57,23,11);fill-rule:nonzero;"/>
                </g>
                <g>
                    <path d="M22.5,110.6C21.4,109.1 23.9,104.1 29,102.9C34.1,101.8 36.4,105.3 36.4,106.7C36.4,108 35.6,110.3 32.6,111.3C29.6,112.3 27.3,111.7 26,111.5C24.3,111.3 23.1,111.5 22.5,110.6Z" style="fill:white;fill-rule:nonzero;"/>
                    <circle cx="28.8" cy="106.2" r="4.3" style="fill:rgb(57,23,11);"/>
                    <path d="M25.5,105.1C25.4,106.1 26.2,106.9 27.1,106.9C28.1,107 28.9,106.2 28.9,105.3C29,104.3 28.2,103.5 27.3,103.5C26.4,103.5 25.6,104.2 25.5,105.1Z" style="fill:white;fill-rule:nonzero;"/>
                    <path d="M22.3,109.4C22.3,109.4 21.9,106.8 25.2,103.8C28.5,100.8 32.4,101.9 33.6,101.8C34.7,101.7 35.9,102.1 35.5,102.4C35.1,102.7 36.1,103.6 37,103.5C37.9,103.4 36.9,104.3 36.9,104.5C36.9,104.8 38.4,104.8 38.5,105.2C38.6,105.5 37.5,106.2 37.8,106.3C38,106.4 38.8,107.1 38.4,107.4C38,107.7 37.1,108.6 36.7,109C36.3,109.4 35.4,109.7 35.4,109.7C35.4,109.7 36.7,107.7 36.1,106.3C35.6,104.8 34,103.1 31.1,103.2C28.2,103.3 26.4,104.5 25.1,105.5C23.6,106.4 22.3,109.4 22.3,109.4Z" style="fill:rgb(57,23,11);fill-rule:nonzero;"/>
                </g>
            </g>
        </g>
    </g>
</svg>
