<?xml version="1.0" encoding="UTF-8" standalone="no"?>
<!DOCTYPE svg PUBLIC "-//W3C//DTD SVG 1.1//EN" "http://www.w3.org/Graphics/SVG/1.1/DTD/svg11.dtd">
<svg width="100%" height="100%" viewBox="0 0 160 430" version="1.1" xmlns="http://www.w3.org/2000/svg" xmlns:xlink="http://www.w3.org/1999/xlink" xml:space="preserve" xmlns:serif="http://www.serif.com/" style="fill-rule:evenodd;clip-rule:evenodd;stroke-linejoin:round;stroke-miterlimit:2;">
    <g transform="matrix(1,0,0,1,19.45,7.6)">
        <g transform="matrix(0.906815,0,0,0.873306,5.72813,26.8969)">
            <path d="M26.3,116.5L80.8,100.3C80.8,100.3 108.3,23.3 74.1,12.5C65.6,-1.1 22.2,-1.4 16.3,31.8C10.4,64.9 26.3,116.5 26.3,116.5Z" style="fill:rgb(153,57,62);fill-rule:nonzero;"/>
        </g>
        <g transform="matrix(0.906815,0,0,0.873306,5.72813,26.8969)">
            <path d="M53,38.9C40.7,30.5 33.5,18.5 33.4,8.3C25.1,12.6 18.4,20.1 16.3,31.8C10.4,64.9 26.8,121.7 26.8,121.7L81.3,105.5C81.3,105.5 91.3,69.1 91.3,46.1C81.7,50.2 65.6,47.5 53,38.9Z" style="fill:rgb(137,44,53);fill-rule:nonzero;"/>
        </g>
        <g transform="matrix(0.906815,0,0,0.873306,5.72813,26.8969)">
            <path d="M59,52.7C45.4,52.7 39.7,92.3 27.2,121.8L75.9,108.5C74.4,88.8 71.3,52.7 59,52.7Z" style="fill:rgb(117,35,47);fill-rule:nonzero;"/>
        </g>
        <g transform="matrix(0.906815,0,0,0.873306,5.72813,26.8969)">
            <path d="M113.9,148.6C112,139.4 80,88.7 68,88.2C62.4,87.9 95.9,139.8 100.8,153.2C102.7,158.3 115.5,156 113.9,148.6Z" style="fill:rgb(242,238,221);fill-rule:nonzero;"/>
            <path d="M107.2,149.4C103.4,138.9 70.4,88.3 68.1,88.2C62.5,87.9 96,139.8 100.9,153.2C102.1,156.5 108,156.7 111.5,154.3C109.9,154 107.7,150.7 107.2,149.4Z" style="fill:rgb(221,210,191);fill-rule:nonzero;"/>
            <path d="M110.8,158.2C112.5,158.1 118,155.5 118,151.8C118,148.1 111.1,141.3 104.6,144.5C102.3,145.7 97.6,148.8 97.9,149.1C97.8,149.1 101.7,158.6 110.8,158.2Z" style="fill:rgb(77,77,77);fill-rule:nonzero;"/>
            <path d="M115.7,148.1C115.7,148.4 115.7,148.6 115.6,148.9C115,150.8 111.8,151.3 108.5,150.2C105.3,149.1 103.1,146.7 103.7,144.9C101.2,146.1 97.7,148.9 97.9,149.1C97.9,149.1 101.8,158.5 110.9,158.2C112.6,158.1 118.1,155.5 118.1,151.8C118,150.6 117.1,149.3 115.7,148.1Z" style="fill:rgb(51,51,51);fill-rule:nonzero;"/>
        </g>
        <g transform="matrix(0.906815,0,0,0.873306,5.72813,26.8969)">
            <path d="M51.1,193.4L37.5,221C37.5,221 33.8,322.5 41.3,400.4L48.8,400.4C66.2,199.7 51.1,193.4 51.1,193.4Z" style="fill:rgb(255,184,130);fill-rule:nonzero;"/>
        </g>
        <g transform="matrix(0.906815,0,0,0.873306,5.72813,26.8969)">
            <path d="M70.6,193.4L57,221.1C57,221.1 53.3,322.6 60.8,400.5L68.3,400.5C85.6,199.7 70.6,193.4 70.6,193.4Z" style="fill:rgb(255,184,130);fill-rule:nonzero;"/>
        </g>
        <g transform="matrix(0.906815,0,0,0.873306,5.72813,26.8969)">
            <path d="M57,282.5L38,299.3C38,299.3 34.2,289.5 38.1,355.8C39.8,347.4 47,334.5 54.4,325.5L57,282.5Z" style="fill:rgb(255,149,102);fill-rule:nonzero;"/>
            <path d="M67.5,270.7L55.5,282.9L56.3,323.4C60.9,318.5 70.2,315.4 74.1,316C78.5,275.5 67.5,270.7 67.5,270.7Z" style="fill:rgb(255,149,102);fill-rule:nonzero;"/>
        </g>
        <g transform="matrix(0.906815,0,0,0.873306,5.72813,26.8969)">
            <path d="M28.5,306.4L88.9,296.1C88.9,296.1 90.7,200 79,184.8C67.3,169.7 56.6,161 52.9,174C49.1,187.1 23.4,180.2 28.5,306.4Z" style="fill:rgb(77,77,77);fill-rule:nonzero;"/>
        </g>
        <g transform="matrix(0.906815,0,0,0.873306,5.72813,26.8969)">
            <path d="M47.3,279.7C47.3,226.3 57.8,182.3 71.4,175.8C69.1,161.6 56.6,161.5 52.9,174.6C49.2,187.6 23.4,180.2 28.6,306.4L48.8,302.9C47.8,292.4 47.3,291.4 47.3,279.7Z" style="fill:rgb(51,51,51);fill-rule:nonzero;"/>
        </g>
        <g transform="matrix(0.906815,0,0,0.873306,5.72813,26.8969)">
            <path d="M45.7,183.3C50.6,162.9 31.8,101.9 36.5,93.2C36.5,93.2 80.2,111.1 80,122.9C79.8,146.1 77.5,173.8 79.5,185.4L45.7,183.3Z" style="fill:rgb(221,210,191);fill-rule:nonzero;"/>
        </g>
        <g transform="matrix(0.906815,0,0,0.873306,5.72813,26.8969)">
            <path d="M36.1,93.9C35.6,102.7 41.5,139.1 44.6,141.7C51.9,147.9 80,145.8 84.1,138.2C87.4,131.9 72.5,91.9 70.5,90.1C68.4,88.3 36.3,89.6 36.1,93.9Z" style="fill:rgb(242,238,221);fill-rule:nonzero;"/>
        </g>
        <g transform="matrix(0.906815,0,0,0.873306,5.72813,26.8969)">
            <path d="M52.3,137.1C49.2,134.6 36.1,92.8 36,93.9C35.5,102.7 41,136.6 44.5,141.2C49.8,148.2 86.6,146.4 84,135.6C73.5,139.7 58.3,141.8 52.3,137.1Z" style="fill:rgb(221,210,191);fill-rule:nonzero;"/>
        </g>
        <g transform="matrix(0.906815,0,0,0.873306,5.72813,26.8969)">
            <path d="M41.9,91.1C44.2,101.4 48.1,126.4 65.1,126.1C82.1,125.8 65.6,89.1 65.6,89.1C56.1,88.3 48.1,88.6 41.9,91.1Z" style="fill:rgb(255,184,130);fill-rule:nonzero;"/>
        </g>
        <g transform="matrix(0.906815,0,0,0.873306,5.72813,26.8969)">
            <path d="M65.6,89.1L65,89.1C68,95.8 79.6,124.8 64.1,125.1C60.2,125.2 56.8,123.4 53.7,120.5C57,124 60.8,126.2 65.1,126.2C82.1,125.8 65.6,89.1 65.6,89.1Z" style="fill:rgb(255,149,102);fill-rule:nonzero;"/>
        </g>
        <g transform="matrix(0.906815,0,0,0.873306,5.72813,26.8969)">
            <path d="M43.8,62.1L45.8,90.1L54.6,96.2L61.5,89.7L55.1,63.4L43.8,62.1Z" style="fill:rgb(255,184,130);fill-rule:nonzero;"/>
        </g>
        <g transform="matrix(0.906815,0,0,0.873306,5.72813,26.8969)">
            <path d="M41.2,63.2C42.9,75.9 66.2,86.9 66.2,86.9C66.2,86.9 80.2,70.7 80.5,51.7C80.7,37.8 78.3,24.8 61.6,25.3C47.8,25.7 38.1,40.3 41.2,63.2Z" style="fill:rgb(255,184,130);fill-rule:nonzero;"/>
        </g>
        <g transform="matrix(0.906815,0,0,0.873306,5.72813,26.8969)">
            <path d="M43.8,62.9C49.3,51.2 57.7,25.1 47.5,17C40.3,11.3 33.3,35.3 37.2,50.9C38.7,57 43.8,62.9 43.8,62.9Z" style="fill:rgb(137,44,53);fill-rule:nonzero;"/>
        </g>
        <g transform="matrix(0.906815,0,0,0.873306,5.72813,26.8969)">
            <path d="M41.7,53.8C37.4,50.9 32.1,50 32.5,54.8C32.8,59.6 40.4,64.2 44.1,65.9C47.9,67.6 43.2,54.8 41.7,53.8Z" style="fill:rgb(255,184,130);fill-rule:nonzero;"/>
        </g>
        <g transform="matrix(0.906815,0,0,0.873306,5.72813,26.8969)">
            <path d="M40.7,55.3C38.3,53.7 35.4,53.2 35.6,55.9C35.8,58.5 39.9,61.1 42,62C44,62.9 41.5,55.9 40.7,55.3Z" style="fill:rgb(234,123,89);fill-rule:nonzero;"/>
        </g>
        <g transform="matrix(0.906815,0,0,0.873306,5.72813,26.8969)">
            <path d="M42.2,58.3C40.3,57 38,56.6 38.1,58.8C38.3,60.9 41.6,62.9 43.2,63.7C44.9,64.4 42.8,58.8 42.2,58.3Z" style="fill:rgb(255,184,130);fill-rule:nonzero;"/>
        </g>
        <g transform="matrix(0.906815,0,0,0.873306,5.72813,26.8969)">
            <path d="M51,20.8C49,15.1 44.7,11.5 41.3,12.7C37.9,13.9 36.7,19.4 38.6,25.1C40.6,30.8 44.9,34.4 48.3,33.2C51.8,32 53,26.4 51,20.8Z" style="fill:rgb(153,57,62);fill-rule:nonzero;"/>
        </g>
        <g transform="matrix(0.906815,0,0,0.873306,5.72813,26.8969)">
            <path d="M67.3,59.2C68.9,61.7 70.3,65.2 69.4,66.1C68.5,67 64.3,66.9 64,66.6C63.7,66.3 67.3,59.2 67.3,59.2Z" style="fill:rgb(234,123,89);fill-rule:nonzero;"/>
            <path d="M66.1,58.6C67.7,61.1 69.1,64.6 68.2,65.5C67.3,66.4 63.1,66.3 62.8,66C62.5,65.7 66.1,58.6 66.1,58.6Z" style="fill:rgb(255,184,130);fill-rule:nonzero;"/>
            <g>
                <path d="M81.4,45.6L81.7,45C79.4,41.2 74.1,39.4 71.5,39.4L71.2,41.2C73.3,40.9 78.8,42.4 81.4,45.6Z" style="fill:rgb(153,57,62);fill-rule:nonzero;"/>
            </g>
            <g>
                <path d="M50.8,42.9C55.1,39.9 62.9,39.5 64.8,39.6L64.7,37.8C62.6,37.7 55.3,38.5 50.3,42.2L50.8,42.9Z" style="fill:rgb(153,57,62);fill-rule:nonzero;"/>
            </g>
            <g>
                <path d="M68.9,73.3L68.7,72.7C68.4,72.8 61.4,74.6 54.7,67.3L53.7,68.2C59.8,74.7 65.6,74.3 68.9,73.3Z" style="fill:rgb(234,123,89);fill-rule:nonzero;"/>
            </g>
            <path d="M60.3,75.7C60.4,75.3 61.3,75.6 62.5,75.9C63.7,76.2 64.8,76.3 64.7,76.7C64.6,77.1 63.6,77.2 62.3,76.9C61.1,76.7 60.2,76.1 60.3,75.7Z" style="fill:rgb(234,123,89);fill-rule:nonzero;"/>
            <g>
                <path d="M60.3,53.1C61.2,52.2 60,48.5 56.6,47.3C53.3,46.1 51.4,48.2 51.2,49.1C51.1,50 51.4,51.7 53.3,52.6C55.2,53.5 56.8,53.4 57.8,53.4C59,53.4 59.8,53.7 60.3,53.1Z" style="fill:white;fill-rule:nonzero;"/>
                <circle cx="56.4" cy="49.5" r="3" style="fill:rgb(57,23,11);"/>
                <circle cx="55.3" cy="48.9" r="1.2" style="fill:white;"/>
                <path d="M60.6,52.4C60.6,52.4 61.1,50.7 59.2,48.3C57.2,45.9 54.5,46.3 53.7,46.1C52.9,45.9 52.1,46.1 52.4,46.3C52.6,46.5 51.9,47.1 51.3,46.9C50.7,46.7 51.3,47.4 51.2,47.6C51.2,47.8 50.1,47.7 50,47.9C49.9,48.1 50.6,48.7 50.4,48.7C50.2,48.7 49.6,49.2 49.9,49.4C50.2,49.6 50.7,50.3 50.9,50.6C51.1,50.9 51.8,51.2 51.8,51.2C51.8,51.2 51.1,49.7 51.6,48.8C52.1,47.8 53.3,46.8 55.3,47.2C57.2,47.5 58.4,48.5 59.2,49.3C59.9,50.2 60.6,52.4 60.6,52.4Z" style="fill:rgb(57,23,11);fill-rule:nonzero;"/>
            </g>
            <g>
                <path d="M71.2,52.7C70.5,51.7 72.1,48.4 75.4,47.7C78.7,47 80.2,49.3 80.2,50.1C80.2,51 79.6,52.5 77.7,53.1C75.8,53.7 74.3,53.4 73.4,53.2C72.3,53.1 71.6,53.3 71.2,52.7Z" style="fill:white;fill-rule:nonzero;"/>
                <circle cx="75.3" cy="49.8" r="2.8" style="fill:rgb(57,23,11);"/>
                <path d="M73.1,49.1C73.1,49.7 73.5,50.3 74.1,50.3C74.7,50.3 75.3,49.9 75.3,49.3C75.3,48.7 74.9,48.1 74.3,48.1C73.7,48.1 73.1,48.5 73.1,49.1Z" style="fill:white;fill-rule:nonzero;"/>
                <path d="M71,51.9C71,51.9 70.7,50.2 72.9,48.3C75.1,46.3 77.6,47 78.4,47C79.1,46.9 79.9,47.2 79.6,47.4C79.4,47.6 80,48.2 80.5,48.1C81.1,48 80.5,48.6 80.5,48.8C80.5,49 81.5,49 81.5,49.2C81.6,49.4 80.9,49.8 81,49.9C81.1,50 81.7,50.4 81.4,50.6C81.1,50.8 80.5,51.4 80.3,51.6C80.1,51.9 79.4,52 79.4,52C79.4,52 80.2,50.7 79.9,49.8C79.6,48.8 78.5,47.7 76.7,47.8C74.8,47.9 73.6,48.6 72.8,49.3C71.9,50 71,51.9 71,51.9Z" style="fill:rgb(57,23,11);fill-rule:nonzero;"/>
            </g>
        </g>
        <g transform="matrix(0.906815,0,0,0.873306,5.72813,26.8969)">
            <path d="M69.2,397.8C69.2,396.4 69.1,394.7 69,392.8L59.5,393L52.4,398.8C52.4,398.8 54.6,403.6 54.9,405.7C55.3,407.9 54.9,413.2 54.9,413.2L57.4,413.2C57.4,413.2 56.6,407.4 57.4,406.4C58.4,405.1 60.7,403.6 61.4,406C62.1,408.3 62.8,413.6 62.8,413.6L73.2,413.6L73.2,411.6C73.2,411.6 69.7,411.8 68.2,409.3C67.7,408.1 69.2,406.6 69.2,397.8Z" style="fill:rgb(26,26,26);fill-rule:nonzero;"/>
        </g>
        <g transform="matrix(0.906815,0,0,0.873306,5.72813,26.8969)">
            <path d="M49.8,397.8C49.8,396.4 49.7,394.7 49.6,392.8L40.1,393L33,398.8C33,398.8 35.2,403.6 35.5,405.7C35.9,407.9 35.5,413.2 35.5,413.2L38,413.2C38,413.2 37.2,407.4 38,406.4C39,405.1 41.3,403.6 42,406C42.7,408.3 43.4,413.6 43.4,413.6L53.8,413.6L53.8,411.6C53.8,411.6 50.3,411.8 48.8,409.3C48.3,408.1 49.8,406.6 49.8,397.8Z" style="fill:rgb(26,26,26);fill-rule:nonzero;"/>
        </g>
        <g transform="matrix(0.906815,0,0,0.873306,5.72813,26.8969)">
            <path d="M6.2,148.5C6.6,140.3 26.2,93.2 41.6,91.3C47,90.6 21.5,139.3 18.8,151.5C17.7,156.1 5.8,155.1 6.2,148.5Z" style="fill:rgb(242,238,221);fill-rule:nonzero;"/>
        </g>
        <g transform="matrix(0.906815,0,0,0.873306,5.72813,26.8969)">
            <path d="M8.5,148.7C9.9,123 42.4,90.9 42.4,90.9C27,91.1 5.8,140.9 5.3,149.1C5,153.8 11.6,155.3 15.6,154.1C12,154.1 8.3,152.4 8.5,148.7Z" style="fill:rgb(221,210,191);fill-rule:nonzero;"/>
        </g>
        <g transform="matrix(0.906815,0,0,0.873306,5.72813,26.8969)">
            <g>
                <path d="M42.1,189.8C39.5,183.3 20.1,150.8 18.1,148.9C16,147 7.1,143.8 5.8,149C4.5,154.2 38.3,190.6 38.3,190.6L42.1,189.8Z" style="fill:rgb(255,184,130);fill-rule:nonzero;"/>
                <path d="M14.1,157.3C14.9,154.1 18.8,154.2 22.2,155.2C20,151.7 18.5,149.3 18.1,148.9C16,146.9 6.4,143.5 5.1,148.6C3.8,153.8 38.3,190.5 38.3,190.5L39.6,190.4C27.6,176.5 13.1,161.1 14.1,157.3Z" style="fill:rgb(255,149,102);fill-rule:nonzero;"/>
            </g>
            <path d="M7.7,154C6.2,154.8 3.4,145.7 6,143.1C8.6,140.4 19.2,145.8 19.9,147.7C20.6,149.6 19.2,152.6 19.2,152.6C19.2,152.6 13.7,151 7.7,154Z" style="fill:rgb(77,77,77);fill-rule:nonzero;"/>
            <path d="M19.9,147.7C19.8,147.3 19.3,146.9 18.6,146.4C18.6,147 18.4,147.6 18.1,148.1C16.9,149.9 13.8,150 11.2,148.3C8.9,146.7 7.7,144.2 8.5,142.4C7.5,142.4 6.5,142.5 6.1,143.1C3.1,146.9 6.2,154.8 7.8,154C13.8,150.9 19.4,152.6 19.4,152.6C19.4,152.6 20.6,149.6 19.9,147.7Z" style="fill:rgb(51,51,51);fill-rule:nonzero;"/>
            <g>
                <path d="M53.4,199.3L47.2,192.4L53.1,196C53.8,196.4 54.3,195.9 54.4,195.7L51.6,193.5L50.7,192.8C49.9,192.1 49.1,191.5 48.3,191L47.1,190L38.8,187.5L38,188.4L37.6,190C37.6,190 39.1,192.6 41.5,194.4C43,197.3 44.9,199.5 44.9,199.5C46.2,200.6 46.1,199.3 46.1,199.3C44.9,198.2 43.8,195.9 43.6,195.5C43.5,195.2 43.4,195 43.3,194.7L43.5,194.6L49.4,201.2C50.3,202 50.6,200.7 50.6,200.7L46.5,195.3L45.7,194L46.2,193.9L46.2,193.8L46.3,193.9L52.1,200.2C53.2,201.2 54.3,200.1 54.3,200.1L53.4,199.3Z" style="fill:rgb(255,184,130);fill-rule:nonzero;"/>
            </g>
        </g>
        <g transform="matrix(0.906815,0,0,0.873306,5.72813,26.8969)">
            <path d="M81.5,193.1C83,188 100.9,153.9 102.5,152.4C104.1,150.9 112,148.6 114,152.8C116,157 83.8,193 83.8,193L81.5,193.1Z" style="fill:rgb(255,184,130);fill-rule:nonzero;"/>
            <path d="M103.5,151.8C105.9,151.5 108.3,152 109.3,154C111,157.5 91,183.2 83.1,193L83.8,192.9C83.8,192.9 117,156.9 115,152.6C113.2,149 106.4,150.4 103.5,151.8Z" style="fill:rgb(255,149,102);fill-rule:nonzero;"/>
            <g>
                <path d="M68.8,201.9L74.8,195.3L69.1,198.8C68.4,199.2 68,198.7 67.8,198.5L70.5,196.4L71.4,195.8C72.2,195.1 73,194.6 73.7,194.1L74.8,193.2L82.8,190.8L83.6,191.7L84,193.2C84,193.2 82.5,195.7 80.3,197.4C78.8,200.2 77.1,202.3 77.1,202.3C75.9,203.4 76,202.1 76,202.1C77.2,201.1 78.2,198.8 78.4,198.5C78.5,198.2 78.6,198 78.7,197.8L78.5,197.7L72.8,204.1C71.9,204.9 71.6,203.6 71.6,203.6L75.5,198.4L76.2,197.2L75.7,197.1L75.7,197L75.6,197.1L70,203.1C69,204.1 67.9,203 67.9,203L68.8,201.9Z" style="fill:rgb(255,184,130);fill-rule:nonzero;"/>
            </g>
        </g>
    </g>
</svg>
