<?xml version="1.0" encoding="UTF-8" standalone="no"?>
<!DOCTYPE svg PUBLIC "-//W3C//DTD SVG 1.1//EN" "http://www.w3.org/Graphics/SVG/1.1/DTD/svg11.dtd">
<svg width="100%" height="100%" viewBox="0 0 160 430" version="1.1" xmlns="http://www.w3.org/2000/svg" xmlns:xlink="http://www.w3.org/1999/xlink" xml:space="preserve" xmlns:serif="http://www.serif.com/" style="fill-rule:evenodd;clip-rule:evenodd;stroke-linejoin:round;stroke-miterlimit:2;">
    <g transform="matrix(1,0,0,1,1.45,0.1)">
        <g transform="matrix(0.915633,0,0,0.915633,6.69633,18.2546)">
            <path d="M105.9,204.3C92.1,179.5 51.3,173.9 35,194C16.7,230 30.7,319.1 31.9,326.8C33.1,334.5 28.1,335.7 28.7,352.2C29.3,368.7 37.9,387.3 44.3,415L59.9,415.7C52.2,368 48.8,247.6 65.9,254.4C74.8,257.9 91,319.7 92.2,326.8C93.4,333.9 89.5,338.6 91.9,352.2C94.3,365.8 116.8,415 116.8,415L131.9,415C104.9,313.7 100.3,206 105.9,204.3Z" style="fill:rgb(81,59,62);fill-rule:nonzero;"/>
            <g>
                <path d="M35.4,326.8C34.2,319.1 33.5,237.7 41.8,222C51.1,194.6 38.1,187.2 33.9,192.4C15.6,228.4 30.7,319.1 31.8,326.8C33,334.5 28,335.7 28.6,352.2C29.2,368.7 37.8,387.3 44.2,415L47.7,415C41.2,387.2 32.6,368.7 32.1,352.2C31.6,335.6 36.6,334.5 35.4,326.8Z" style="fill:rgb(66,46,49);fill-rule:nonzero;"/>
                <path d="M95.7,326.8C94.5,319.7 78.3,258 69.4,254.4C67.8,253.8 66.4,253.7 65,254.1C65.3,254.2 65.5,254.3 65.8,254.4C74.7,257.9 90.9,319.7 92.1,326.8C93.3,333.9 89.4,338.6 91.8,352.2C94.2,365.8 116.7,415 116.7,415L120.2,415C120.2,415 97.7,365.8 95.3,352.2C93,338.6 96.8,333.9 95.7,326.8Z" style="fill:rgb(66,46,49);fill-rule:nonzero;"/>
            </g>
            <path d="M53.7,245.1C56.7,248.2 70.4,254.7 82.2,251C82.2,251 75.7,257.9 65.1,254.3C54.5,250.9 53.7,245.1 53.7,245.1Z" style="fill:rgb(66,46,49);fill-rule:nonzero;"/>
            <path d="M43.6,411.7L41.6,426.4L82.1,425.7C82.1,425.7 82.8,420.3 76.7,419C70.9,417.7 59,411 59,411L43.6,411.7Z" style="fill:rgb(51,51,51);fill-rule:nonzero;"/>
            <path d="M115.5,413L113.5,427.7L154,427C154,427 154.7,421.6 148.6,420.3C142.8,419 130.9,412.3 130.9,412.3L115.5,413Z" style="fill:rgb(51,51,51);fill-rule:nonzero;"/>
        </g>
        <g transform="matrix(0.915633,0,0,0.915633,6.69633,18.2546)">
            <path d="M49.5,73.2C31,56.5 20,36.5 22.5,31.7C25.1,26.8 29.7,26.1 29.7,26.1C29.7,26.1 23.6,21.7 33,14.8C42.5,7.9 70.6,-0.3 81.9,9.7C93.2,19.7 84.2,61.1 84.2,61.1L49.5,73.2Z" style="fill:rgb(153,57,62);fill-rule:nonzero;"/>
        </g>
        <g transform="matrix(0.915633,0,0,0.915633,6.69633,18.2546)">
            <path d="M61.4,17.3C43.9,17.3 34.5,24.5 34.5,16C34.5,15.1 34.7,14.2 35,13.4C34.3,13.8 33.6,14.3 33,14.7C23.6,21.7 29.7,26 29.7,26C29.7,26 25.1,26.8 22.5,31.6C19.9,36.5 30.9,56.4 49.5,73.1L84.2,61C84.2,61 88.2,42.6 87.5,27.4C81.9,29.9 69.6,17.3 61.4,17.3Z" style="fill:rgb(132,42,51);fill-rule:nonzero;"/>
        </g>
        <g transform="matrix(0.915633,0,0,0.915633,6.69633,18.2546)">
            <path d="M31.8,198.8C28,176.3 20.1,109 21.5,105C22.9,100.9 55.7,84.2 62.9,85.5C70.1,86.9 101.8,94.7 105.9,100.5C110,106.3 106.2,200.2 106.2,200.2L31.8,198.8Z" style="fill:rgb(81,59,62);fill-rule:nonzero;"/>
        </g>
        <g transform="matrix(0.915633,0,0,0.915633,6.69633,18.2546)">
            <path d="M105.7,124.6C103.4,157.2 91.7,180.5 70.9,182.3C35.3,185.3 36.6,146.5 23.4,116.7C24.6,135.3 21.5,219.6 24,226.8C26.5,234 103.6,236 105.1,227.8C106.6,219.6 107.6,161.5 107.7,132.3C107.8,116 106.4,114.7 105.7,124.6Z" style="fill:rgb(66,46,49);fill-rule:nonzero;"/>
        </g>
        <g transform="matrix(0.915633,0,0,0.915633,6.69633,18.2546)">
            <path d="M66.6,170.2C67.5,169.8 71.8,165.9 73.2,165.2C74.6,164.4 76.4,166.8 76.1,168C75.8,169.3 72.9,171.9 71,174.1C69.3,176.1 64.9,178.3 61.4,179.2L58.7,174.3C58.6,174.2 65.7,170.6 66.6,170.2Z" style="fill:rgb(255,149,102);fill-rule:nonzero;"/>
        </g>
        <g transform="matrix(0.915633,0,0,0.915633,6.69633,18.2546)">
            <path d="M73.2,166.6C73.6,167.8 76.6,170.3 78.6,172.4C80.4,174.3 84.9,176.3 88.5,177L90.9,172C90.9,172 83.6,168.8 82.7,168.4C81.8,168 77.3,164.4 75.9,163.7C74.4,162.9 72.7,165.3 73.2,166.6Z" style="fill:rgb(255,184,130);fill-rule:nonzero;"/>
        </g>
        <g transform="matrix(0.915633,0,0,0.915633,6.69633,18.2546)">
            <path d="M85.4,169.5C86.2,171.2 83.5,174.4 76.5,168.8C75.2,167.7 74,167.4 73.2,166.3L73.2,166.6C73.6,167.8 76.6,170.3 78.6,172.4C80.4,174.3 84.9,176.3 88.5,177L90.9,172C90.9,171.9 87.8,170.5 85.4,169.5Z" style="fill:rgb(255,149,102);fill-rule:nonzero;"/>
        </g>
        <g transform="matrix(0.915633,0,0,0.915633,6.69633,18.2546)">
            <path d="M88.4,174.4C84.9,174.1 80.2,172.2 78.6,173C77.1,173.8 74.5,188.9 75.1,191.6C75.7,194.3 90.9,189.5 90.9,189.5L88.4,174.4Z" style="fill:rgb(255,149,102);fill-rule:nonzero;"/>
        </g>
        <g transform="matrix(0.915633,0,0,0.915633,6.69633,18.2546)">
            <path d="M60,174.4C63.2,174.1 67.6,172.2 69,173C70.4,173.8 72.7,188.9 72.2,191.6C71.7,194.3 56.3,189 56.3,189L60,174.4Z" style="fill:rgb(255,184,130);fill-rule:nonzero;"/>
        </g>
        <g transform="matrix(0.915633,0,0,0.915633,6.69633,18.2546)">
            <path d="M82.9,188.9C82,188 77.4,187.5 76,187.5C74.6,187.4 69.3,187.1 65.6,187.6L67.6,192.9C67.6,192.9 74.4,192.4 75.3,192.3C76.3,192.3 80.2,192.9 81.8,192.8C83.5,192.7 83.9,189.8 82.9,188.9Z" style="fill:rgb(255,184,130);fill-rule:nonzero;"/>
        </g>
        <g transform="matrix(0.915633,0,0,0.915633,6.69633,18.2546)">
            <path d="M82.5,172.5C81.5,171.7 76.2,170.8 74.8,170.6C73.4,170.4 68.5,171.8 65.2,173.2L67.7,178.2C67.7,178.2 74.4,175.8 75.3,175.6C76.3,175.4 80.3,176.6 81.9,176.4C83.5,176.3 83.6,173.4 82.5,172.5Z" style="fill:rgb(255,184,130);fill-rule:nonzero;"/>
        </g>
        <g transform="matrix(0.915633,0,0,0.915633,6.69633,18.2546)">
            <path d="M67.4,173.7C68.5,172.9 73.1,173.4 74.5,173.6C75.9,173.8 80.5,175 84.1,176.2L81.7,180.7C81.7,180.7 75.1,178.8 74.2,178.6C73.3,178.4 69.3,178.2 67.7,177.8C66.1,177.5 66.3,174.4 67.4,173.7Z" style="fill:rgb(255,149,102);fill-rule:nonzero;"/>
        </g>
        <g transform="matrix(0.915633,0,0,0.915633,6.69633,18.2546)">
            <path d="M52.2,171L60.9,171.2L58.2,192.3L51,192L52.2,171Z" style="fill:rgb(242,238,221);fill-rule:nonzero;"/>
        </g>
        <g transform="matrix(0.915633,0,0,0.915633,6.69633,18.2546)">
            <path d="M67.5,173.9C68.6,173.1 73.2,173.6 74.6,173.8C76,174 80.6,175.2 84.2,176.4L81.8,180.9C81.8,180.9 75.2,179 74.3,178.8C73.4,178.6 69.4,178.4 67.8,178C66.2,177.7 66.4,174.7 67.5,173.9Z" style="fill:rgb(255,184,130);fill-rule:nonzero;"/>
        </g>
        <g transform="matrix(0.915633,0,0,0.915633,6.69633,18.2546)">
            <path d="M75.4,174C75.8,174.4 76.1,174.8 76.1,175.3C76.1,176.7 73.6,176.9 70.7,176.9C69,176.9 67.7,177.5 66.7,176.9C66.8,177.5 67.2,178 67.8,178.2C69.4,178.6 73.4,178.7 74.3,179C75.2,179.2 81.8,181.1 81.8,181.1L84.2,176.6C81.1,175.3 77.3,174.4 75.4,174Z" style="fill:rgb(255,149,102);fill-rule:nonzero;"/>
        </g>
        <g transform="matrix(0.915633,0,0,0.915633,6.69633,18.2546)">
            <path d="M66.1,186.7C67,187.6 71.6,188.1 73,188.2C74.4,188.3 79.7,188.6 83.4,188.1L81.4,182.8C81.4,182.8 74.6,183.3 73.6,183.4C72.6,183.4 68.7,182.8 67.1,182.9C65.5,182.8 65.2,185.8 66.1,186.7Z" style="fill:rgb(255,149,102);fill-rule:nonzero;"/>
        </g>
        <g transform="matrix(0.915633,0,0,0.915633,6.69633,18.2546)">
            <path d="M66.1,186.7C67,187.6 71.6,188.1 73,188.2C74.4,188.3 79.7,188.6 83.4,188.1L81.4,182.8C81.4,182.8 74.6,183.3 73.6,183.4C72.6,183.4 68.7,182.8 67.1,182.9C65.5,182.8 65.2,185.8 66.1,186.7Z" style="fill:rgb(255,149,102);fill-rule:nonzero;"/>
        </g>
        <g transform="matrix(0.915633,0,0,0.915633,6.69633,18.2546)">
            <path d="M72.6,186.2C72.7,185.1 70.2,183.3 68.2,183C66.2,182.8 65.9,183.6 65.8,184.7C65.7,185.8 65.8,186.9 67.7,187.1C69.8,187.4 72.5,187.4 72.6,186.2Z" style="fill:rgb(255,184,130);fill-rule:nonzero;"/>
        </g>
        <g transform="matrix(0.915633,0,0,0.915633,6.69633,18.2546)">
            <path d="M81.5,181.6C80.7,180.5 75.8,178.3 74.5,177.8C73.2,177.3 68.1,177.4 64.6,177.8L65.6,182.4C65.6,182.4 72.3,183.3 73.3,183.4C74.3,183.5 78.4,185.1 80,185.3C81.6,185.5 82.3,182.7 81.5,181.6Z" style="fill:rgb(255,184,130);fill-rule:nonzero;"/>
        </g>
        <g transform="matrix(0.915633,0,0,0.915633,6.69633,18.2546)">
            <path d="M88.3,171L97,171.2L94.3,192.3L87.1,192L88.3,171Z" style="fill:rgb(242,238,221);fill-rule:nonzero;"/>
        </g>
        <g transform="matrix(0.915633,0,0,0.915633,6.69633,18.2546)">
            <path d="M114.2,168.9C114.1,165.8 107.3,157.1 105.8,148.7C101.7,126.8 99.6,95.2 105.3,99.7C113.2,105.8 144.5,164.2 144.6,189L92,193L92.5,167.4L114.2,168.9Z" style="fill:rgb(81,59,62);fill-rule:nonzero;"/>
        </g>
        <g transform="matrix(0.915633,0,0,0.915633,6.69633,18.2546)">
            <path d="M105.2,99.6C105.1,99.5 105,99.5 104.9,99.4C116.7,116.2 145.3,179.7 141.4,185.9C137.5,192.1 92.1,187.2 92.1,187.2L92,193C92,193 143.2,196.8 146.7,189C150,181.2 113.1,105.8 105.2,99.6Z" style="fill:rgb(66,46,49);fill-rule:nonzero;"/>
        </g>
        <g transform="matrix(0.915633,0,0,0.915633,6.69633,18.2546)">
            <path d="M117.5,170.7C117.5,170.7 108,151.6 103.2,131.8C103.9,137.6 104.8,148.6 105.8,153.9C108.1,160.8 110.5,165.4 111.7,168.1L107.5,168.7L117.5,170.7Z" style="fill:rgb(66,46,49);fill-rule:nonzero;"/>
        </g>
        <g transform="matrix(0.915633,0,0,0.915633,6.69633,18.2546)">
            <path d="M33.7,166.8C33.3,163.3 33.9,152.4 32.9,143C30.8,123.2 26,100.9 21.4,104.9C14.7,110.9 4.5,163 7.7,187.4L52.1,192.6L55.2,166.4L33.7,166.8Z" style="fill:rgb(81,59,62);fill-rule:nonzero;"/>
        </g>
        <g transform="matrix(0.915633,0,0,0.915633,6.69633,18.2546)">
            <path d="M11.7,184.6C5.8,180.3 14.6,122.5 21,105.5C14.1,113.8 0,186.5 6.3,190C12.6,193.5 52.2,192.7 52.2,192.7L52.8,187.4C52.8,187.3 17.6,188.9 11.7,184.6Z" style="fill:rgb(66,46,49);fill-rule:nonzero;"/>
        </g>
        <g transform="matrix(0.915633,0,0,0.915633,6.69633,18.2546)">
            <path d="M88.2,92.2C78.1,89 67.2,84.9 63.3,84.2C59.9,83.6 50.3,88.4 41.5,92.6L70.8,161.7L88.2,92.2Z" style="fill:rgb(242,238,221);fill-rule:nonzero;"/>
        </g>
        <g transform="matrix(0.915633,0,0,0.915633,6.69633,18.2546)">
            <path d="M70.6,99.7L73,102.2L82.6,90.3L79.4,88.8L67.2,94.6L48.6,88.8L45.7,90.7L61.6,102.5L63.4,100.1L64.4,101.6L63.7,145L66.5,151.9L74.2,148.1L75.3,143.4L69.5,101.4L70.6,99.7Z" style="fill:rgb(226,218,186);fill-rule:nonzero;"/>
        </g>
        <g transform="matrix(0.915633,0,0,0.915633,6.69633,18.2546)">
            <path d="M50,69.6L49.2,89L65.1,93.1L79.9,89.3L77.2,67L50,69.6Z" style="fill:rgb(255,184,130);fill-rule:nonzero;"/>
        </g>
        <g transform="matrix(0.915633,0,0,0.915633,6.69633,18.2546)">
            <path d="M70.9,165.8L64.6,147.7L65.1,93.1L67.3,92.9L74.7,147.3L70.9,165.8Z" style="fill:rgb(232,77,96);fill-rule:nonzero;"/>
        </g>
        <g transform="matrix(0.915633,0,0,0.915633,6.69633,18.2546)">
            <path d="M67.2,103.5L62.8,97.6L63.9,92.5L68.6,91.9L70.7,97.6L67.2,103.5Z" style="fill:rgb(232,77,96);fill-rule:nonzero;"/>
        </g>
        <g transform="matrix(0.915633,0,0,0.915633,6.69633,18.2546)">
            <path d="M61.6,102.2L65.5,92.3L49,85.9L46.9,89.4L61.6,102.2Z" style="fill:rgb(242,238,221);fill-rule:nonzero;"/>
        </g>
        <g transform="matrix(0.915633,0,0,0.915633,6.69633,18.2546)">
            <path d="M73,102.2L67,91.8L79.8,87.2L81.5,89.4L73,102.2Z" style="fill:rgb(242,238,221);fill-rule:nonzero;"/>
        </g>
        <g transform="matrix(0.915633,0,0,0.915633,6.69633,18.2546)">
            <path d="M41.1,30.5C45.5,57.4 50,75.6 52.3,79.3C59.2,90.8 84.6,86.5 84.6,86.5C84.6,86.5 99.6,37.9 74,21.7C53.1,8.5 41.1,30.5 41.1,30.5Z" style="fill:rgb(255,184,130);fill-rule:nonzero;"/>
        </g>
        <g transform="matrix(0.915633,0,0,0.915633,6.69633,18.2546)">
            <path d="M34.8,29.9C38.2,18.8 50.2,16.3 52.7,35.3C55.3,54.2 55,66 55,66L48.3,66C48.4,66 32.8,36.5 34.8,29.9Z" style="fill:rgb(132,42,51);fill-rule:nonzero;"/>
        </g>
        <g transform="matrix(0.915633,0,0,0.915633,6.69633,18.2546)">
            <path d="M50.6,55.8C46.5,49.3 38.3,49 38,54.9C37.7,60.8 49.1,70.5 51.3,67.5C53.6,64.4 52,58 50.6,55.8Z" style="fill:rgb(255,184,130);fill-rule:nonzero;"/>
        </g>
        <g transform="matrix(0.915633,0,0,0.915633,6.69633,18.2546)">
            <path d="M48.6,57.1C46,53 40.9,52.9 40.8,56.6C40.6,60.3 47.8,66.4 49.1,64.5C50.5,62.5 49.5,58.5 48.6,57.1Z" style="fill:rgb(234,123,89);fill-rule:nonzero;"/>
        </g>
        <g transform="matrix(0.915633,0,0,0.915633,6.69633,18.2546)">
            <path d="M49.3,59.5C47.5,56.7 43.9,56.5 43.8,59.1C43.7,61.7 48.7,65.9 49.6,64.6C50.6,63.3 49.9,60.5 49.3,59.5Z" style="fill:rgb(255,184,130);fill-rule:nonzero;"/>
        </g>
        <g transform="matrix(0.915633,0,0,0.915633,6.69633,18.2546)">
            <path d="M73,38.3C75.1,48.8 77.9,62.7 77.9,64.7C77.9,66.7 71.7,69.1 70.6,68.5C69.5,67.8 71.9,38.4 71.9,38.4L73,38.4L73,38.3Z" style="fill:rgb(234,123,89);fill-rule:nonzero;"/>
            <path d="M72,37.3C74.1,47.8 76.9,61.7 76.9,63.7C76.9,65.7 70.7,68.1 69.6,67.5C68.5,66.8 70.9,37.4 70.9,37.4L72,37.4L72,37.3Z" style="fill:rgb(255,184,130);fill-rule:nonzero;"/>
            <g>
                <path d="M60.3,70L59.7,71.2C62.9,74.7 70,75.2 82,72.8L81.9,72.3C70.4,74.6 63.2,73.1 60.3,70Z" style="fill:rgb(234,123,89);fill-rule:nonzero;"/>
            </g>
            <path d="M76,75.8C76,76.2 74.9,76.9 73.3,76.9C71.7,77 70.2,76.3 70.2,76C70.2,75.6 71.7,76 73.3,75.9C74.9,75.9 75.9,75.5 76,75.8Z" style="fill:rgb(234,123,89);fill-rule:nonzero;"/>
            <g>
                <path d="M78.3,49.4C78.2,46.6 78.6,43.3 82.8,42.2C87.1,41.1 89,44.9 89,46.3C89,47.7 87.8,49.7 85.4,50C83.1,50.2 81,50 80.1,50.1C79.3,50.4 78.3,50 78.3,49.4Z" style="fill:white;fill-rule:nonzero;"/>
                <circle cx="83.2" cy="46.1" r="3.5" style="fill:rgb(57,23,11);"/>
                <path d="M80.2,44.9C80.2,45.8 81,46.5 81.8,46.4C82.7,46.4 83.4,45.6 83.3,44.8C83.3,43.9 82.5,43.2 81.7,43.3C80.9,43.2 80.2,43.9 80.2,44.9Z" style="fill:white;fill-rule:nonzero;"/>
                <path d="M67.4,49.8C67.3,47 66.7,43.8 62.4,42.9C58.1,42 56.3,46 56.5,47.4C56.7,48.8 57.9,50.8 60.3,50.9C62.7,51 64.7,50.6 65.6,50.8C66.4,50.8 67.4,50.4 67.4,49.8Z" style="fill:white;fill-rule:nonzero;"/>
                <path d="M65.5,46.4C65.5,48.4 64.1,50 62.1,50C60.1,50 58.5,48.6 58.5,46.6C58.5,44.6 59.9,43 61.9,43C63.9,42.9 65.4,44.5 65.5,46.4Z" style="fill:rgb(57,23,11);fill-rule:nonzero;"/>
                <path d="M62.3,45.1C62.3,46 61.6,46.7 60.8,46.7C59.9,46.7 59.2,46 59.2,45.2C59.2,44.3 59.9,43.6 60.7,43.6C61.5,43.6 62.2,44.3 62.3,45.1Z" style="fill:white;fill-rule:nonzero;"/>
            </g>
            <path d="M73.5,34.2C72.9,35 73.2,41.9 73.6,42.5C74,43.1 85.8,43.1 86.5,42.5C87.2,42 87.1,34.9 86.7,34C86.4,33.2 74.1,33.4 73.5,34.2Z" style="fill:rgb(153,57,62);fill-rule:nonzero;"/>
            <path d="M54.3,35.5C53.6,36.3 53.9,43.2 54.5,43.8C55.1,44.4 69.9,43.5 70.8,42.9C71.6,42.3 71.5,35.3 71.1,34.4C70.6,33.5 55.1,34.6 54.3,35.5Z" style="fill:rgb(153,57,62);fill-rule:nonzero;"/>
        </g>
    </g>
</svg>
