<?xml version="1.0" encoding="UTF-8" standalone="no"?>
<!DOCTYPE svg PUBLIC "-//W3C//DTD SVG 1.1//EN" "http://www.w3.org/Graphics/SVG/1.1/DTD/svg11.dtd">
<svg class="m110new-compu" width="100%" height="100%" viewBox="0 0 620 550" version="1.1" xmlns="http://www.w3.org/2000/svg" xmlns:xlink="http://www.w3.org/1999/xlink" xml:space="preserve" xmlns:serif="http://www.serif.com/" style="fill-rule:evenodd;clip-rule:evenodd;stroke-miterlimit:10;">
    <g transform="matrix(1,0,0,1,-161,-109)">
        <g id="window">
            <g transform="matrix(1.04329,0,0,1.04329,-29.5315,-31.8474)">
                <path d="M765.9,183.8L765.9,158.6C765.9,148.8 757.9,140.8 748.1,140.8L212.6,140.8C202.8,140.8 194.8,148.8 194.8,158.6L194.8,183.8L765.9,183.8Z" style="fill:rgb(102,102,102);fill-rule:nonzero;"/>
            </g>
            <g transform="matrix(1.04329,0,0,1.04329,-29.5315,-31.8474)">
                <rect x="195.9" y="183.8" width="570" height="469" style="fill:white;"/>
            </g>
            <g transform="matrix(1.04329,0,0,1.04329,-29.5315,-31.8474)">
                <path d="M195.9,598.8L765.9,598.8" style="fill:none;fill-rule:nonzero;stroke:rgb(178,178,178);stroke-width:1px;"/>
            </g>
            <g transform="matrix(1.04329,0,0,1.04329,-29.5315,-31.8474)">
                <path d="M194.9,309.3L764.9,309.3" style="fill:none;fill-rule:nonzero;stroke:rgb(178,178,178);stroke-width:1px;"/>
            </g>
            <g transform="matrix(1.04329,0,0,1.04329,-29.5315,-31.8474)">
                <path d="M665.9,161.7L685.9,161.7" style="fill:none;fill-rule:nonzero;stroke:white;stroke-width:1px;"/>
                <path d="M704.4,168.2L717.4,155.2" style="fill:none;fill-rule:nonzero;stroke:white;stroke-width:1px;"/>
                <g>
                    <path d="M748.4,155.4L735.9,167.9" style="fill:none;fill-rule:nonzero;stroke:white;stroke-width:1px;"/>
                    <path d="M748.4,167.9L735.9,155.4" style="fill:none;fill-rule:nonzero;stroke:white;stroke-width:1px;"/>
                </g>
            </g>
            <g transform="matrix(1.04329,0,0,1.04329,-29.5315,-31.8474)">
                <path d="M225.7,155L229.3,155C229.6,155 229.8,155.2 229.8,155.5L229.8,169.9C229.8,170.2 229.6,170.4 229.3,170.4L227.3,170.4C227,170.4 226.8,170.2 226.8,169.9L226.8,158.5L226.7,158.5L224.3,166.5C224.2,166.8 224,167 223.7,167L221.7,167C221.4,167 221.2,166.8 221.1,166.5L218.6,158.4L218.5,158.4L218.5,169.8C218.5,170 218.5,170.1 218.4,170.2C218.3,170.3 218.2,170.3 218,170.3L216,170.3C215.7,170.3 215.5,170.1 215.5,169.8L215.5,155.4C215.5,155.1 215.7,154.9 216,154.9L219.6,154.9C219.8,154.9 220,155 220.1,155.2L222.6,163.7L222.7,163.7L225.3,155.2C225.3,155.1 225.4,155 225.7,155Z" style="fill:white;fill-rule:nonzero;"/>
                <path d="M241.7,170.4L236.4,170.4C235.1,170.4 234.2,170.1 233.5,169.4C232.8,168.7 232.5,167.8 232.5,166.5L232.5,162.1C232.5,160.8 232.8,159.9 233.5,159.2C234.2,158.5 235.2,158.2 236.4,158.2L238.3,158.2C239.6,158.2 240.5,158.5 241.2,159.2C241.9,159.9 242.2,160.8 242.2,162.1L242.2,165.1C242.2,165.4 242,165.6 241.7,165.6L235.7,165.6C235.5,165.6 235.4,165.7 235.4,165.9L235.4,166.4C235.4,166.9 235.5,167.3 235.7,167.5C235.9,167.7 236.3,167.8 236.8,167.8L241.6,167.8C241.9,167.8 242.1,168 242.1,168.3L242.1,169.9C242.1,170.1 242.1,170.2 242,170.3C242,170.4 241.9,170.4 241.7,170.4ZM235.7,163.6L239,163.6C239.2,163.6 239.3,163.5 239.3,163.3L239.3,162.1C239.3,161.6 239.2,161.2 239,161C238.8,160.8 238.4,160.7 237.9,160.7L236.9,160.7C236.4,160.7 236,160.8 235.8,161C235.6,161.2 235.5,161.6 235.5,162.1L235.5,163.3C235.4,163.5 235.5,163.6 235.7,163.6Z" style="fill:white;fill-rule:nonzero;"/>
                <path d="M247,170.4L245,170.4C244.7,170.4 244.5,170.2 244.5,169.9L244.5,158.7C244.5,158.4 244.7,158.2 245,158.2L247,158.2C247.3,158.2 247.5,158.4 247.5,158.7L247.5,159.5L247.6,159.5C248,158.6 248.7,158.2 250,158.2L250.8,158.2C253.3,158.2 254.6,159.5 254.6,162.1L254.6,169.9C254.6,170.2 254.4,170.4 254.1,170.4L252.1,170.4C251.8,170.4 251.6,170.2 251.6,169.9L251.6,162.2C251.6,161.7 251.5,161.3 251.3,161.1C251.1,160.9 250.7,160.8 250.2,160.8L249.3,160.8C248.2,160.8 247.6,161.4 247.6,162.6L247.6,169.9C247.5,170.3 247.4,170.4 247,170.4Z" style="fill:white;fill-rule:nonzero;"/>
                <path d="M261.7,170.4L257.1,170.4C256.8,170.4 256.6,170.2 256.6,169.9L256.6,168.4C256.6,168.2 256.6,168.1 256.7,168C256.8,167.9 256.9,167.9 257.1,167.9L261.1,167.9C261.9,167.9 262.3,167.7 262.3,167.2L262.3,167.1C262.3,166.7 262,166.3 261.3,166L258.9,164.7C258.1,164.3 257.5,163.8 257.1,163.4C256.7,162.9 256.5,162.3 256.5,161.6C256.5,160.5 256.8,159.7 257.4,159.1C258,158.6 258.9,158.3 260.2,158.3L264.2,158.3C264.5,158.3 264.7,158.5 264.7,158.8L264.7,160.4C264.7,160.6 264.7,160.7 264.6,160.8C264.5,160.9 264.4,160.9 264.2,160.9L260.9,160.9C260.1,160.9 259.7,161.1 259.7,161.5L259.7,161.6C259.7,162 260,162.3 260.7,162.7L263.1,164.1C263.9,164.5 264.5,165 264.9,165.5C265.2,166 265.4,166.6 265.4,167.4C265.4,169.4 264.2,170.4 261.7,170.4Z" style="fill:white;fill-rule:nonzero;"/>
                <path d="M271.9,170.4L271.3,170.4C270,170.4 269.1,170.1 268.4,169.4C267.7,168.7 267.4,167.8 267.4,166.5L267.4,162.1C267.4,160.8 267.7,159.9 268.4,159.2C269.1,158.5 270.1,158.2 271.3,158.2L276.8,158.2C277.2,158.2 277.3,158.4 277.3,158.7L277.3,169.9C277.3,170.2 277.1,170.4 276.8,170.4L274.8,170.4C274.5,170.4 274.3,170.2 274.3,169.9L274.3,169.1L274.2,169.1C274,169.5 273.7,169.9 273.3,170.1C272.8,170.3 272.3,170.4 271.9,170.4ZM274.3,166L274.3,161.1C274.3,160.9 274.2,160.8 274,160.8L271.7,160.8C271.2,160.8 270.8,160.9 270.6,161.1C270.4,161.3 270.3,161.7 270.3,162.2L270.3,166.3C270.3,166.8 270.4,167.2 270.6,167.4C270.8,167.6 271.2,167.7 271.7,167.7L272.6,167.7C273.7,167.8 274.3,167.2 274.3,166Z" style="fill:white;fill-rule:nonzero;"/>
                <path d="M279.2,174.4L277.6,174.4C277.3,174.4 277.1,174.2 277.1,173.9L277.1,172.3C277.1,172 277.3,171.8 277.6,171.8L278.3,171.8C279,171.8 279.5,171.7 279.8,171.4C280.1,171.1 280.2,170.7 280.2,169.9L280.2,158.7C280.2,158.4 280.4,158.2 280.7,158.2L282.7,158.2C283,158.2 283.2,158.4 283.2,158.7L283.2,170.5C283.2,171.7 282.8,172.7 282.1,173.4C281.4,174.1 280.4,174.4 279.2,174.4ZM280.1,156.1L280.1,154C280.1,153.7 280.3,153.5 280.6,153.5L282.7,153.5C283,153.5 283.2,153.7 283.2,154L283.2,156.1C283.2,156.4 283,156.6 282.7,156.6L280.6,156.6C280.3,156.6 280.1,156.4 280.1,156.1Z" style="fill:white;fill-rule:nonzero;"/>
                <path d="M294.9,170.4L289.6,170.4C288.3,170.4 287.4,170.1 286.7,169.4C286,168.7 285.7,167.8 285.7,166.5L285.7,162.1C285.7,160.8 286,159.9 286.7,159.2C287.4,158.5 288.4,158.2 289.6,158.2L291.5,158.2C292.8,158.2 293.7,158.5 294.4,159.2C295.1,159.9 295.4,160.8 295.4,162.1L295.4,165.1C295.4,165.4 295.2,165.6 294.9,165.6L288.9,165.6C288.7,165.6 288.6,165.7 288.6,165.9L288.6,166.4C288.6,166.9 288.7,167.3 288.9,167.5C289.1,167.7 289.5,167.8 290,167.8L294.8,167.8C295.1,167.8 295.3,168 295.3,168.3L295.3,169.9C295.3,170.1 295.3,170.2 295.2,170.3C295.3,170.4 295.1,170.4 294.9,170.4ZM289,163.6L292.3,163.6C292.5,163.6 292.6,163.5 292.6,163.3L292.6,162.1C292.6,161.6 292.5,161.2 292.3,161C292.1,160.8 291.7,160.7 291.2,160.7L290.2,160.7C289.7,160.7 289.3,160.8 289.1,161C288.9,161.2 288.8,161.6 288.8,162.1L288.8,163.3C288.7,163.5 288.8,163.6 289,163.6Z" style="fill:white;fill-rule:nonzero;"/>
            </g>
        </g>
    </g>
    <g id="buttons" transform="matrix(1,0,0,1,-373,-109)">
        <g id="btn01-bright" transform="matrix(1,0,0,1,212,0)">
            <g transform="matrix(1.04329,0,0,1.04329,-29.5315,-31.8474)">
                <path d="M751.8,241.8L210,241.8C206.1,241.8 202.9,238.6 202.9,234.7L202.9,204.9C202.9,201 206.1,197.8 210,197.8L751.8,197.8C755.7,197.8 758.9,201 758.9,204.9L758.9,234.7C758.9,238.6 755.7,241.8 751.8,241.8Z" style="fill:rgb(211,227,241);fill-rule:nonzero;"/>
                <path d="M751.8,245.634C757.806,245.634 762.734,240.706 762.734,234.7L762.734,204.9C762.734,198.894 757.806,193.966 751.8,193.966L210,193.966C203.994,193.966 199.066,198.894 199.066,204.9L199.066,234.7C199.066,240.706 203.994,245.634 210,245.634L751.8,245.634ZM751.8,241.8L210,241.8C206.1,241.8 202.9,238.6 202.9,234.7L202.9,204.9C202.9,201 206.1,197.8 210,197.8L751.8,197.8C755.7,197.8 758.9,201 758.9,204.9L758.9,234.7C758.9,238.6 755.7,241.8 751.8,241.8Z" style="fill:rgb(0,255,255);"/>
            </g>
            <g transform="matrix(1.04329,0,0,1.04329,-29.5315,-31.8474)">
                <path d="M217.7,219.1L215.8,219.1C215.5,219.1 215.3,218.9 215.3,218.6L215.3,205.4C215.3,205.1 215.5,204.9 215.8,204.9L221.2,204.9C222.3,204.9 223.2,205.2 223.9,205.8C224.6,206.4 224.8,207.3 224.8,208.5L224.8,210.6C224.8,211.7 224.5,212.6 223.9,213.3C223.3,214 222.4,214.2 221.2,214.2L218.4,214.2C218.2,214.2 218.1,214.3 218.1,214.4L218.1,218.6C218.1,219 218,219.1 217.7,219.1ZM218.4,211.8L220.7,211.8C221.2,211.8 221.5,211.7 221.7,211.5C221.9,211.3 222,211 222,210.5L222,208.7C222,208.2 221.9,207.9 221.7,207.7C221.5,207.5 221.2,207.4 220.7,207.4L218.4,207.4C218.2,207.4 218.2,207.5 218.2,207.6L218.2,211.5C218.1,211.7 218.2,211.8 218.4,211.8Z" style="fill:rgb(102,102,102);fill-rule:nonzero;"/>
                <path d="M230.7,219.1L230.2,219.1C229,219.1 228.1,218.8 227.5,218.2C226.9,217.6 226.6,216.7 226.6,215.5L226.6,211.5C226.6,210.3 226.9,209.5 227.5,208.8C228.1,208.2 229,207.9 230.2,207.9L235.3,207.9C235.6,207.9 235.8,208.1 235.8,208.4L235.8,218.7C235.8,219 235.6,219.2 235.3,219.2L233.5,219.2C233.2,219.2 233,219 233,218.7L233,218L232.9,218C232.7,218.4 232.5,218.7 232,218.9C231.6,219 231.2,219.1 230.7,219.1ZM232.9,215L232.9,210.5C232.9,210.3 232.8,210.3 232.6,210.3L230.5,210.3C230,210.3 229.7,210.4 229.5,210.6C229.3,210.8 229.2,211.1 229.2,211.6L229.2,215.4C229.2,215.9 229.3,216.2 229.5,216.4C229.7,216.6 230,216.7 230.5,216.7L231.3,216.7C232.4,216.7 232.9,216.1 232.9,215Z" style="fill:rgb(102,102,102);fill-rule:nonzero;"/>
                <path d="M240.5,219.1L238.6,219.1C238.3,219.1 238.1,218.9 238.1,218.6L238.1,208.3C238.1,208 238.3,207.8 238.6,207.8L240.5,207.8C240.8,207.8 241,208 241,208.3L241,209L241.1,209C241.3,208.6 241.5,208.3 242,208.1C242.4,207.9 242.8,207.8 243.3,207.8L244.1,207.8C244.4,207.8 244.5,208 244.5,208.3L244.5,209.8C244.5,210 244.5,210.1 244.4,210.2C244.3,210.3 244.2,210.3 244.1,210.3L242.6,210.3C241.6,210.3 241.1,210.9 241.1,212L241.1,218.6C241,219 240.8,219.1 240.5,219.1Z" style="fill:rgb(102,102,102);fill-rule:nonzero;"/>
                <path d="M249.8,219.1L249.3,219.1C248.1,219.1 247.2,218.8 246.6,218.2C246,217.6 245.7,216.7 245.7,215.5L245.7,211.5C245.7,210.3 246,209.5 246.6,208.8C247.2,208.2 248.1,207.9 249.3,207.9L254.4,207.9C254.7,207.9 254.9,208.1 254.9,208.4L254.9,218.7C254.9,219 254.7,219.2 254.4,219.2L252.6,219.2C252.3,219.2 252.1,219 252.1,218.7L252.1,218L252,218C251.8,218.4 251.6,218.7 251.1,218.9C250.7,219 250.2,219.1 249.8,219.1ZM252,215L252,210.5C252,210.3 251.9,210.3 251.7,210.3L249.6,210.3C249.1,210.3 248.8,210.4 248.6,210.6C248.4,210.8 248.3,211.1 248.3,211.6L248.3,215.4C248.3,215.9 248.4,216.2 248.6,216.4C248.8,216.6 249.1,216.7 249.6,216.7L250.4,216.7C251.5,216.7 252,216.1 252,215Z" style="fill:rgb(102,102,102);fill-rule:nonzero;"/>
            </g>
            <g transform="matrix(1.04329,0,0,1.04329,-29.5315,-31.8474)">
                <path d="M751.8,293.8L210,293.8C206.1,293.8 202.9,290.6 202.9,286.7L202.9,256.9C202.9,253 206.1,249.8 210,249.8L751.8,249.8C755.7,249.8 758.9,253 758.9,256.9L758.9,286.7C758.9,290.6 755.7,293.8 751.8,293.8Z" style="fill:rgb(211,227,241);fill-rule:nonzero;"/>
                <path d="M751.8,297.634C757.806,297.634 762.734,292.706 762.734,286.7L762.734,256.9C762.734,250.894 757.806,245.966 751.8,245.966L210,245.966C203.994,245.966 199.066,250.894 199.066,256.9L199.066,286.7C199.066,292.706 203.994,297.634 210,297.634L751.8,297.634ZM751.8,293.8L210,293.8C206.1,293.8 202.9,290.6 202.9,286.7L202.9,256.9C202.9,253 206.1,249.8 210,249.8L751.8,249.8C755.7,249.8 758.9,253 758.9,256.9L758.9,286.7C758.9,290.6 755.7,293.8 751.8,293.8Z" style="fill:rgb(0,255,255);"/>
            </g>
            <g transform="matrix(1.04329,0,0,1.04329,-29.5315,-31.8474)">
                <path d="M216.8,272.1L214.7,272.1C214.4,272.1 214.3,271.9 214.4,271.6L217.9,258.4C218,258.1 218.2,257.9 218.6,257.9L221.5,257.9C221.9,257.9 222.1,258.1 222.2,258.4L225.7,271.6C225.8,271.9 225.7,272.1 225.4,272.1L223.3,272.1C223.1,272.1 223,272.1 223,272C222.9,271.9 222.9,271.8 222.9,271.6L222.3,269.2L218,269.2L217.4,271.6C217.4,271.8 217.3,271.9 217.3,272C217,272.1 216.9,272.1 216.8,272.1ZM220,260.6L218.4,267L221.7,267L220,260.6Z" style="fill:rgb(102,102,102);fill-rule:nonzero;"/>
                <path d="M231.6,272.1L227.4,272.1C227.1,272.1 227,271.9 227,271.6L227,270.2C227,270 227,269.9 227.1,269.9C227.2,269.9 227.3,269.8 227.5,269.8L231.2,269.8C231.9,269.8 232.3,269.6 232.3,269.1L232.3,269C232.3,268.6 232,268.3 231.4,268L229.2,266.8C228.5,266.4 227.9,266 227.5,265.6C227.1,265.2 227,264.6 227,263.9C227,262.9 227.3,262.1 227.8,261.6C228.3,261.1 229.2,260.9 230.4,260.9L234.1,260.9C234.4,260.9 234.5,261.1 234.5,261.4L234.5,262.8C234.5,263 234.5,263.1 234.4,263.1C234.3,263.2 234.2,263.2 234,263.2L230.9,263.2C230.2,263.2 229.8,263.4 229.8,263.7L229.8,263.8C229.8,264.1 230.1,264.5 230.7,264.8L232.9,266.1C233.7,266.5 234.2,266.9 234.5,267.4C234.8,267.8 235,268.4 235,269.1C235.1,271.1 233.9,272.1 231.6,272.1Z" style="fill:rgb(102,102,102);fill-rule:nonzero;"/>
                <path d="M241,272.1L240.3,272.1C239.2,272.1 238.3,271.8 237.7,271.2C237.1,270.6 236.8,269.7 236.8,268.5L236.8,261.3C236.8,261 237,260.8 237.3,260.8L239.2,260.8C239.5,260.8 239.7,261 239.7,261.3L239.7,268.3C239.7,268.8 239.8,269.1 240,269.3C240.2,269.5 240.5,269.6 241,269.6L241.8,269.6C242.8,269.6 243.3,269 243.3,267.9L243.3,261.2C243.3,260.9 243.5,260.7 243.8,260.7L245.6,260.7C245.9,260.7 246.1,260.9 246.1,261.2L246.1,271.5C246.1,271.8 245.9,272 245.6,272L243.8,272C243.5,272 243.3,271.8 243.3,271.5L243.3,270.8L243.2,270.8C243,271.2 242.8,271.5 242.3,271.7C241.9,272 241.5,272.1 241,272.1Z" style="fill:rgb(102,102,102);fill-rule:nonzero;"/>
                <path d="M250.8,272.1L249,272.1C248.7,272.1 248.5,271.9 248.5,271.6L248.5,261.3C248.5,261 248.7,260.8 249,260.8L250.9,260.8C251.2,260.8 251.4,261 251.4,261.3L251.4,262L251.5,262C251.8,261.2 252.5,260.8 253.7,260.8L254.4,260.8C256.7,260.8 257.9,262 257.9,264.4L257.9,271.6C257.9,271.9 257.7,272.1 257.4,272.1L255.6,272.1C255.3,272.1 255.1,271.9 255.1,271.6L255.1,264.6C255.1,264.1 255,263.8 254.8,263.6C254.6,263.4 254.3,263.3 253.8,263.3L253,263.3C252,263.3 251.5,263.9 251.5,265L251.5,271.7C251.3,272 251.1,272.1 250.8,272.1Z" style="fill:rgb(102,102,102);fill-rule:nonzero;"/>
                <path d="M260.2,263.3L259.3,263.3C259.1,263.3 259,263.3 258.9,263.2C258.8,263.1 258.8,263 258.8,262.8L258.8,261.3C258.8,261 259,260.8 259.3,260.8L260.2,260.8C260.4,260.8 260.4,260.7 260.4,260.6L260.4,258.5C260.4,258.2 260.6,258 260.9,258L262.7,258C263,258 263.2,258.2 263.2,258.5L263.2,260.6C263.2,260.8 263.3,260.8 263.5,260.8L265.2,260.8C265.5,260.8 265.7,261 265.7,261.3L265.7,262.8C265.7,263 265.7,263.1 265.6,263.1C265.5,263.2 265.4,263.2 265.2,263.2L263.5,263.2C263.3,263.2 263.2,263.3 263.2,263.4L263.2,268.3C263.2,268.8 263.3,269.1 263.5,269.3C263.7,269.5 264,269.6 264.5,269.6L265.4,269.6C265.7,269.6 265.9,269.8 265.9,270.1L265.9,271.6C265.9,271.8 265.9,271.9 265.8,271.9C265.7,272 265.6,272 265.4,272L264.1,272C262.9,272 262,271.7 261.4,271.1C260.8,270.5 260.4,269.6 260.4,268.5L260.4,263.5C260.5,263.4 260.4,263.3 260.2,263.3Z" style="fill:rgb(102,102,102);fill-rule:nonzero;"/>
                <path d="M273.1,272.1L271.1,272.1C269.9,272.1 269,271.8 268.4,271.2C267.8,270.6 267.5,269.7 267.5,268.5L267.5,264.5C267.5,263.3 267.8,262.5 268.4,261.8C269,261.2 269.9,260.9 271.1,260.9L273.1,260.9C274.2,260.9 275.1,261.2 275.8,261.8C276.4,262.4 276.8,263.3 276.8,264.5L276.8,268.5C276.8,269.6 276.5,270.5 275.8,271.2C275.2,271.8 274.3,272.1 273.1,272.1ZM271.6,269.7L272.7,269.7C273.2,269.7 273.5,269.6 273.7,269.4C273.9,269.2 274,268.9 274,268.4L274,264.5C274,264 273.9,263.7 273.7,263.5C273.5,263.3 273.2,263.2 272.7,263.2L271.6,263.2C271.1,263.2 270.8,263.3 270.6,263.5C270.4,263.7 270.3,264 270.3,264.5L270.3,268.4C270.3,268.9 270.4,269.2 270.6,269.4C270.8,269.6 271.1,269.7 271.6,269.7Z" style="fill:rgb(102,102,102);fill-rule:nonzero;"/>
            </g>
        </g>
        <g id="btn02-bright" transform="matrix(1,0,0,1,252,-10)">
            <g transform="matrix(1.04329,0,0,1.04329,-68.2685,-20.9854)">
                <path d="M751.8,582.8L210,582.8C206.1,582.8 202.9,579.6 202.9,575.7L202.9,335.8C202.9,331.9 206.1,328.7 210,328.7L751.8,328.7C755.7,328.7 758.9,331.9 758.9,335.8L758.9,575.6C758.9,579.6 755.7,582.8 751.8,582.8Z" style="fill:rgb(211,227,241);fill-rule:nonzero;"/>
            </g>
            <g transform="matrix(1.04329,0,0,1.04329,-68.2685,-20.9854)">
                <path d="M751.8,586.634C757.791,586.634 762.734,581.745 762.734,575.6L762.734,335.8C762.734,329.794 757.806,324.866 751.8,324.866L210,324.866C203.994,324.866 199.066,329.794 199.066,335.8L199.066,575.7C199.066,581.706 203.994,586.634 210,586.634L751.8,586.634ZM751.8,582.8L210,582.8C206.1,582.8 202.9,579.6 202.9,575.7L202.9,335.8C202.9,331.9 206.1,328.7 210,328.7L751.8,328.7C755.7,328.7 758.9,331.9 758.9,335.8L758.9,575.6C758.9,579.6 755.7,582.8 751.8,582.8Z" style="fill:rgb(0,255,255);"/>
            </g>
            <g transform="matrix(1.04329,0,0,1.04329,-69.5315,-21.8474)">
                <path d="M224.7,342L228,342C228.3,342 228.5,342.2 228.5,342.5L228.5,355.7C228.5,356 228.3,356.2 228,356.2L226.2,356.2C225.9,356.2 225.7,356 225.7,355.7L225.7,345.3L225.6,345.3L223.4,352.7C223.3,353 223.1,353.1 222.8,353.1L221,353.1C220.7,353.1 220.5,353 220.5,352.7L218.2,345.3L218,345.3L218,355.8C218,356 218,356.1 217.9,356.2C217.8,356.3 217.7,356.3 217.5,356.3L215.7,356.3C215.4,356.3 215.2,356.1 215.2,355.8L215.2,342.6C215.2,342.3 215.4,342.1 215.7,342.1L219,342.1C219.2,342.1 219.3,342.2 219.4,342.4L221.7,350.2L221.8,350.2L224.2,342.4C224.3,342.1 224.5,342 224.7,342Z" style="fill:rgb(102,102,102);fill-rule:nonzero;"/>
                <path d="M239.3,356.1L234.4,356.1C233.2,356.1 232.3,355.8 231.7,355.2C231.1,354.6 230.8,353.7 230.8,352.5L230.8,348.5C230.8,347.3 231.1,346.5 231.7,345.8C232.3,345.2 233.2,344.9 234.4,344.9L236.1,344.9C237.3,344.9 238.2,345.2 238.8,345.8C239.4,346.4 239.7,347.3 239.7,348.5L239.7,351.3C239.7,351.6 239.5,351.8 239.2,351.8L233.7,351.8C233.5,351.8 233.4,351.9 233.4,352L233.4,352.5C233.4,353 233.5,353.3 233.7,353.5C233.9,353.7 234.2,353.8 234.7,353.8L239.1,353.8C239.4,353.8 239.6,354 239.6,354.3L239.6,355.8C239.6,356 239.6,356.1 239.5,356.1C239.6,356.1 239.5,356.1 239.3,356.1ZM233.9,349.9L236.9,349.9C237.1,349.9 237.1,349.8 237.1,349.7L237.1,348.6C237.1,348.1 237,347.8 236.8,347.6C236.6,347.4 236.3,347.3 235.8,347.3L234.9,347.3C234.4,347.3 234.1,347.4 233.9,347.6C233.7,347.8 233.6,348.1 233.6,348.6L233.6,349.7C233.6,349.8 233.7,349.9 233.9,349.9Z" style="fill:rgb(102,102,102);fill-rule:nonzero;"/>
                <path d="M244.3,356.1L242.4,356.1C242.1,356.1 241.9,355.9 241.9,355.6L241.9,345.3C241.9,345 242.1,344.8 242.4,344.8L244.3,344.8C244.6,344.8 244.8,345 244.8,345.3L244.8,346L244.9,346C245.2,345.2 245.9,344.8 247.1,344.8L247.8,344.8C250.1,344.8 251.3,346 251.3,348.4L251.3,355.6C251.3,355.9 251.1,356.1 250.8,356.1L249,356.1C248.7,356.1 248.5,355.9 248.5,355.6L248.5,348.6C248.5,348.1 248.4,347.8 248.2,347.6C248,347.4 247.7,347.3 247.2,347.3L246.4,347.3C245.4,347.3 244.9,347.9 244.9,349L244.9,355.7C244.7,356 244.6,356.1 244.3,356.1Z" style="fill:rgb(102,102,102);fill-rule:nonzero;"/>
                <path d="M257.7,356.1L253.5,356.1C253.2,356.1 253.1,355.9 253.1,355.6L253.1,354.2C253.1,354 253.1,353.9 253.2,353.9C253.3,353.9 253.4,353.8 253.6,353.8L257.3,353.8C258,353.8 258.4,353.6 258.4,353.1L258.4,353C258.4,352.6 258.1,352.3 257.5,352L255.3,350.8C254.6,350.4 254,350 253.6,349.6C253.2,349.2 253.1,348.6 253.1,347.9C253.1,346.9 253.4,346.1 253.9,345.6C254.4,345.1 255.3,344.9 256.5,344.9L260.2,344.9C260.5,344.9 260.6,345.1 260.6,345.4L260.6,346.8C260.6,347 260.6,347.1 260.5,347.1C260.4,347.2 260.3,347.2 260.1,347.2L257,347.2C256.3,347.2 255.9,347.4 255.9,347.7L255.9,347.8C255.9,348.1 256.2,348.5 256.8,348.8L259,350.1C259.8,350.5 260.3,350.9 260.6,351.4C260.9,351.8 261.1,352.4 261.1,353.1C261.1,355.1 260,356.1 257.7,356.1Z" style="fill:rgb(102,102,102);fill-rule:nonzero;"/>
                <path d="M267,356.1L266.5,356.1C265.3,356.1 264.4,355.8 263.8,355.2C263.2,354.6 262.9,353.7 262.9,352.5L262.9,348.5C262.9,347.3 263.2,346.5 263.8,345.8C264.4,345.2 265.3,344.9 266.5,344.9L271.6,344.9C271.9,344.9 272.1,345.1 272.1,345.4L272.1,355.7C272.1,356 271.9,356.2 271.6,356.2L269.8,356.2C269.5,356.2 269.3,356 269.3,355.7L269.3,355L269.2,355C269,355.4 268.8,355.7 268.3,355.9C267.9,356 267.5,356.1 267,356.1ZM269.3,352L269.3,347.5C269.3,347.3 269.2,347.3 269,347.3L266.9,347.3C266.4,347.3 266.1,347.4 265.9,347.6C265.7,347.8 265.6,348.1 265.6,348.6L265.6,352.4C265.6,352.9 265.7,353.2 265.9,353.4C266.1,353.6 266.4,353.7 266.9,353.7L267.7,353.7C268.8,353.7 269.3,353.1 269.3,352Z" style="fill:rgb(102,102,102);fill-rule:nonzero;"/>
                <path d="M273.7,359.8L272.2,359.8C271.9,359.8 271.7,359.6 271.7,359.3L271.7,357.8C271.7,357.5 271.9,357.3 272.2,357.3L272.8,357.3C273.5,357.3 273.9,357.2 274.2,356.9C274.5,356.6 274.6,356.2 274.6,355.6L274.6,345.3C274.6,345 274.8,344.8 275.1,344.8L277,344.8C277.3,344.8 277.5,345 277.5,345.3L277.5,356.1C277.5,357.2 277.2,358.1 276.5,358.8C275.8,359.4 274.9,359.8 273.7,359.8ZM274.6,343L274.6,341.1C274.6,340.8 274.7,340.7 275,340.7L276.9,340.7C277.2,340.7 277.3,340.8 277.3,341.1L277.3,343C277.3,343.3 277.2,343.4 276.9,343.4L275,343.4C274.7,343.4 274.6,343.3 274.6,343Z" style="fill:rgb(102,102,102);fill-rule:nonzero;"/>
                <path d="M288.2,356.1L283.3,356.1C282.1,356.1 281.2,355.8 280.6,355.2C280,354.6 279.7,353.7 279.7,352.5L279.7,348.5C279.7,347.3 280,346.5 280.6,345.8C281.2,345.2 282.1,344.9 283.3,344.9L285,344.9C286.2,344.9 287.1,345.2 287.7,345.8C288.3,346.4 288.6,347.3 288.6,348.5L288.6,351.3C288.6,351.6 288.4,351.8 288.1,351.8L282.6,351.8C282.4,351.8 282.3,351.9 282.3,352L282.3,352.5C282.3,353 282.4,353.3 282.6,353.5C282.8,353.7 283.1,353.8 283.6,353.8L288,353.8C288.3,353.8 288.5,354 288.5,354.3L288.5,355.8C288.5,356 288.5,356.1 288.4,356.1C288.5,356.1 288.4,356.1 288.2,356.1ZM282.7,349.9L285.7,349.9C285.9,349.9 285.9,349.8 285.9,349.7L285.9,348.6C285.9,348.1 285.8,347.8 285.6,347.6C285.4,347.4 285.1,347.3 284.6,347.3L283.7,347.3C283.2,347.3 282.9,347.4 282.7,347.6C282.5,347.8 282.4,348.1 282.4,348.6L282.4,349.7C282.5,349.8 282.5,349.9 282.7,349.9Z" style="fill:rgb(102,102,102);fill-rule:nonzero;"/>
            </g>
        </g>
        <g id="btn03-bright" transform="matrix(1,0,0,1,212,0)">
            <g transform="matrix(1.04329,0,0,1.04329,-29.5315,-31.8474)">
                <path d="M600.8,640.8L578,640.8C574.1,640.8 570.9,637.6 570.9,633.7L570.9,611.9C570.9,608 574.1,604.8 578,604.8L600.8,604.8C604.7,604.8 607.9,608 607.9,611.9L607.9,633.7C607.9,637.6 604.7,640.8 600.8,640.8Z" style="fill:rgb(211,227,241);fill-rule:nonzero;"/>
                <path d="M600.8,644.634C606.806,644.634 611.734,639.706 611.734,633.7L611.734,611.9C611.734,605.894 606.806,600.966 600.8,600.966L578,600.966C571.994,600.966 567.066,605.894 567.066,611.9L567.066,633.7C567.066,639.706 571.994,644.634 578,644.634L600.8,644.634ZM600.8,640.8L578,640.8C574.1,640.8 570.9,637.6 570.9,633.7L570.9,611.9C570.9,608 574.1,604.8 578,604.8L600.8,604.8C604.7,604.8 607.9,608 607.9,611.9L607.9,633.7C607.9,637.6 604.7,640.8 600.8,640.8Z" style="fill:rgb(0,255,255);"/>
            </g>
            <g transform="matrix(1.04329,0,0,1.04329,-29.5315,-31.8474)">
                <path d="M594.5,614.4C594.6,614.5 594.7,614.7 594.7,614.9L594.7,628.6C594.7,632 591.9,634.8 588.5,634.8C585,634.8 582.3,632 582.3,628.6L582.3,614.6C582.3,612.1 584.3,610.1 586.8,610.1C589.3,610.1 591.3,612.1 591.3,614.6L591.3,626.8C591.3,628.3 590.1,629.6 588.5,629.6C587,629.6 585.7,628.4 585.7,626.8L585.7,615.2C585.7,614.8 586,614.5 586.4,614.5C586.8,614.5 587.1,614.8 587.1,615.2L587.1,626.8C587.1,627.6 587.7,628.2 588.5,628.2C589.3,628.2 589.9,627.6 589.9,626.8L589.9,614.6C589.9,612.9 588.5,611.4 586.7,611.4C585,611.4 583.5,612.8 583.5,614.6L583.5,628.6C583.5,631.3 585.7,633.5 588.4,633.5C591.1,633.5 593.3,631.3 593.3,628.6L593.3,614.9C593.3,614.2 594.1,613.9 594.5,614.4Z" style="fill:rgb(102,102,102);fill-rule:nonzero;"/>
            </g>
        </g>
        <g id="btn04-bright" transform="matrix(1,0,0,1,212,0)">
            <g transform="matrix(1.04329,0,0,1.04329,-29.5315,-31.8474)">
                <path d="M744.8,640.8L619,640.8C615.1,640.8 611.9,637.6 611.9,633.7L611.9,611.9C611.9,608 615.1,604.8 619,604.8L744.8,604.8C748.7,604.8 751.9,608 751.9,611.9L751.9,633.7C751.9,637.6 748.7,640.8 744.8,640.8Z" style="fill:rgb(33,118,187);fill-rule:nonzero;"/>
                <path d="M744.8,644.634C750.806,644.634 755.734,639.706 755.734,633.7L755.734,611.9C755.734,605.894 750.806,600.966 744.8,600.966L619,600.966C612.994,600.966 608.066,605.894 608.066,611.9L608.066,633.7C608.066,639.706 612.994,644.634 619,644.634L744.8,644.634ZM744.8,640.8L619,640.8C615.1,640.8 611.9,637.6 611.9,633.7L611.9,611.9C611.9,608 615.1,604.8 619,604.8L744.8,604.8C748.7,604.8 751.9,608 751.9,611.9L751.9,633.7C751.9,637.6 748.7,640.8 744.8,640.8Z" style="fill:rgb(0,255,255);"/>
            </g>
            <g transform="matrix(1.04329,0,0,1.04329,-29.5315,-31.8474)">
                <path d="M662.2,630.1L654.4,630.1C654.1,630.1 653.9,629.9 653.9,629.6L653.9,615.2C653.9,614.9 654.1,614.7 654.4,614.7L662.2,614.7C662.5,614.7 662.7,614.9 662.7,615.2L662.7,616.8C662.7,617.1 662.5,617.3 662.2,617.3L657.2,617.3C657,617.3 656.9,617.4 656.9,617.6L656.9,620.7C656.9,620.9 657,621 657.2,621L661.3,621C661.6,621 661.8,621.2 661.8,621.5L661.8,623.1C661.8,623.4 661.6,623.6 661.3,623.6L657.2,623.6C657,623.6 656.9,623.7 656.9,623.9L656.9,627.2C656.9,627.4 657,627.5 657.2,627.5L662.2,627.5C662.5,627.5 662.7,627.7 662.7,628L662.7,629.6C662.7,629.9 662.5,630.1 662.2,630.1Z" style="fill:white;fill-rule:nonzero;"/>
                <path d="M667.6,630.1L665.6,630.1C665.3,630.1 665.1,629.9 665.1,629.6L665.1,618.4C665.1,618.1 665.3,617.9 665.6,617.9L667.6,617.9C667.9,617.9 668.1,618.1 668.1,618.4L668.1,619.2L668.2,619.2C668.6,618.3 669.3,617.9 670.6,617.9L671.4,617.9C673.9,617.9 675.2,619.2 675.2,621.8L675.2,629.6C675.2,629.9 675,630.1 674.7,630.1L672.7,630.1C672.4,630.1 672.2,629.9 672.2,629.6L672.2,621.9C672.2,621.4 672.1,621 671.9,620.8C671.7,620.6 671.3,620.5 670.8,620.5L669.9,620.5C668.8,620.5 668.2,621.1 668.2,622.3L668.2,629.6C668.1,629.9 668,630.1 667.6,630.1Z" style="fill:white;fill-rule:nonzero;"/>
                <path d="M677.1,617.9L679.2,617.9C679.5,617.9 679.7,618.1 679.8,618.4L681.9,627.4L682.1,627.4L684.1,618.4C684.2,618.1 684.4,617.9 684.7,617.9L686.8,617.9C687.1,617.9 687.3,618.1 687.2,618.4L684.2,629.6C684.1,630 683.9,630.1 683.6,630.1L680.6,630.1C680.3,630.1 680,629.9 680,629.6L677,618.4C676.6,618 676.8,617.9 677.1,617.9Z" style="fill:white;fill-rule:nonzero;"/>
                <path d="M689,615.8L689,613.7C689,613.4 689.2,613.2 689.5,613.2L691.6,613.2C691.9,613.2 692.1,613.4 692.1,613.7L692.1,615.8C692.1,616.1 691.9,616.3 691.6,616.3L689.5,616.3C689.1,616.3 689,616.1 689,615.8ZM689,629.6L689,618.4C689,618.1 689.2,617.9 689.5,617.9L691.6,617.9C691.9,617.9 692.1,618.1 692.1,618.4L692.1,629.6C692.1,629.8 692.1,629.9 692,630C691.9,630.1 691.8,630.1 691.6,630.1L689.5,630.1C689.2,630.1 689,629.9 689,629.6Z" style="fill:white;fill-rule:nonzero;"/>
                <path d="M699.1,630.1L698.5,630.1C697.2,630.1 696.3,629.8 695.6,629.1C694.9,628.4 694.6,627.5 694.6,626.2L694.6,621.8C694.6,620.5 694.9,619.6 695.6,618.9C696.3,618.2 697.3,617.9 698.5,617.9L704,617.9C704.4,617.9 704.5,618.1 704.5,618.4L704.5,629.6C704.5,629.9 704.3,630.1 704,630.1L702,630.1C701.7,630.1 701.5,629.9 701.5,629.6L701.5,628.8L701.4,628.8C701.2,629.2 700.9,629.6 700.5,629.8C700.1,630 699.6,630.1 699.1,630.1ZM701.5,625.6L701.5,620.7C701.5,620.5 701.4,620.4 701.2,620.4L699,620.4C698.5,620.4 698.1,620.5 697.9,620.7C697.7,620.9 697.6,621.3 697.6,621.8L697.6,625.9C697.6,626.4 697.7,626.8 697.9,627C698.1,627.2 698.5,627.3 699,627.3L699.9,627.3C701,627.5 701.5,626.9 701.5,625.6Z" style="fill:white;fill-rule:nonzero;"/>
                <path d="M709.8,630.1L707.8,630.1C707.5,630.1 707.3,629.9 707.3,629.6L707.3,618.4C707.3,618.1 707.5,617.9 707.8,617.9L709.8,617.9C710.1,617.9 710.3,618.1 710.3,618.4L710.3,619.2L710.4,619.2C710.6,618.8 710.9,618.4 711.3,618.2C711.7,618 712.2,617.9 712.7,617.9L713.6,617.9C713.9,617.9 714.1,618.1 714.1,618.4L714.1,620.1C714.1,620.3 714.1,620.4 714,620.5C713.9,620.6 713.8,620.6 713.6,620.6L711.9,620.6C710.8,620.6 710.2,621.2 710.2,622.5L710.2,629.7C710.3,629.9 710.1,630.1 709.8,630.1Z" style="fill:white;fill-rule:nonzero;"/>
            </g>
        </g>
        <g>
            <g transform="matrix(1,0,0,1,212,0)">
                <g transform="matrix(1.04329,0,0,1.04329,-29.5315,-31.8474)">
                    <path d="M744.8,640.8L619,640.8C615.1,640.8 611.9,637.6 611.9,633.7L611.9,611.9C611.9,608 615.1,604.8 619,604.8L744.8,604.8C748.7,604.8 751.9,608 751.9,611.9L751.9,633.7C751.9,637.6 748.7,640.8 744.8,640.8Z" style="fill:rgb(33,118,187);fill-opacity:0.3;fill-rule:nonzero;"/>
                </g>
                <g transform="matrix(1.04329,0,0,1.04329,-29.5315,-31.8474)">
                    <path d="M662.2,630.1L654.4,630.1C654.1,630.1 653.9,629.9 653.9,629.6L653.9,615.2C653.9,614.9 654.1,614.7 654.4,614.7L662.2,614.7C662.5,614.7 662.7,614.9 662.7,615.2L662.7,616.8C662.7,617.1 662.5,617.3 662.2,617.3L657.2,617.3C657,617.3 656.9,617.4 656.9,617.6L656.9,620.7C656.9,620.9 657,621 657.2,621L661.3,621C661.6,621 661.8,621.2 661.8,621.5L661.8,623.1C661.8,623.4 661.6,623.6 661.3,623.6L657.2,623.6C657,623.6 656.9,623.7 656.9,623.9L656.9,627.2C656.9,627.4 657,627.5 657.2,627.5L662.2,627.5C662.5,627.5 662.7,627.7 662.7,628L662.7,629.6C662.7,629.9 662.5,630.1 662.2,630.1Z" style="fill:white;fill-rule:nonzero;"/>
                    <path d="M667.6,630.1L665.6,630.1C665.3,630.1 665.1,629.9 665.1,629.6L665.1,618.4C665.1,618.1 665.3,617.9 665.6,617.9L667.6,617.9C667.9,617.9 668.1,618.1 668.1,618.4L668.1,619.2L668.2,619.2C668.6,618.3 669.3,617.9 670.6,617.9L671.4,617.9C673.9,617.9 675.2,619.2 675.2,621.8L675.2,629.6C675.2,629.9 675,630.1 674.7,630.1L672.7,630.1C672.4,630.1 672.2,629.9 672.2,629.6L672.2,621.9C672.2,621.4 672.1,621 671.9,620.8C671.7,620.6 671.3,620.5 670.8,620.5L669.9,620.5C668.8,620.5 668.2,621.1 668.2,622.3L668.2,629.6C668.1,629.9 668,630.1 667.6,630.1Z" style="fill:white;fill-rule:nonzero;"/>
                    <path d="M677.1,617.9L679.2,617.9C679.5,617.9 679.7,618.1 679.8,618.4L681.9,627.4L682.1,627.4L684.1,618.4C684.2,618.1 684.4,617.9 684.7,617.9L686.8,617.9C687.1,617.9 687.3,618.1 687.2,618.4L684.2,629.6C684.1,630 683.9,630.1 683.6,630.1L680.6,630.1C680.3,630.1 680,629.9 680,629.6L677,618.4C676.6,618 676.8,617.9 677.1,617.9Z" style="fill:white;fill-rule:nonzero;"/>
                    <path d="M689,615.8L689,613.7C689,613.4 689.2,613.2 689.5,613.2L691.6,613.2C691.9,613.2 692.1,613.4 692.1,613.7L692.1,615.8C692.1,616.1 691.9,616.3 691.6,616.3L689.5,616.3C689.1,616.3 689,616.1 689,615.8ZM689,629.6L689,618.4C689,618.1 689.2,617.9 689.5,617.9L691.6,617.9C691.9,617.9 692.1,618.1 692.1,618.4L692.1,629.6C692.1,629.8 692.1,629.9 692,630C691.9,630.1 691.8,630.1 691.6,630.1L689.5,630.1C689.2,630.1 689,629.9 689,629.6Z" style="fill:white;fill-rule:nonzero;"/>
                    <path d="M699.1,630.1L698.5,630.1C697.2,630.1 696.3,629.8 695.6,629.1C694.9,628.4 694.6,627.5 694.6,626.2L694.6,621.8C694.6,620.5 694.9,619.6 695.6,618.9C696.3,618.2 697.3,617.9 698.5,617.9L704,617.9C704.4,617.9 704.5,618.1 704.5,618.4L704.5,629.6C704.5,629.9 704.3,630.1 704,630.1L702,630.1C701.7,630.1 701.5,629.9 701.5,629.6L701.5,628.8L701.4,628.8C701.2,629.2 700.9,629.6 700.5,629.8C700.1,630 699.6,630.1 699.1,630.1ZM701.5,625.6L701.5,620.7C701.5,620.5 701.4,620.4 701.2,620.4L699,620.4C698.5,620.4 698.1,620.5 697.9,620.7C697.7,620.9 697.6,621.3 697.6,621.8L697.6,625.9C697.6,626.4 697.7,626.8 697.9,627C698.1,627.2 698.5,627.3 699,627.3L699.9,627.3C701,627.5 701.5,626.9 701.5,625.6Z" style="fill:white;fill-rule:nonzero;"/>
                    <path d="M709.8,630.1L707.8,630.1C707.5,630.1 707.3,629.9 707.3,629.6L707.3,618.4C707.3,618.1 707.5,617.9 707.8,617.9L709.8,617.9C710.1,617.9 710.3,618.1 710.3,618.4L710.3,619.2L710.4,619.2C710.6,618.8 710.9,618.4 711.3,618.2C711.7,618 712.2,617.9 712.7,617.9L713.6,617.9C713.9,617.9 714.1,618.1 714.1,618.4L714.1,620.1C714.1,620.3 714.1,620.4 714,620.5C713.9,620.6 713.8,620.6 713.6,620.6L711.9,620.6C710.8,620.6 710.2,621.2 710.2,622.5L710.2,629.7C710.3,629.9 710.1,630.1 709.8,630.1Z" style="fill:white;fill-rule:nonzero;"/>
                </g>
            </g>
            <g transform="matrix(1,0,0,1,212,0)">
                <g>
                    <g transform="matrix(1.04329,0,0,1.04329,-29.5315,-31.8474)">
                        <path d="M751.8,241.8L210,241.8C206.1,241.8 202.9,238.6 202.9,234.7L202.9,204.9C202.9,201 206.1,197.8 210,197.8L751.8,197.8C755.7,197.8 758.9,201 758.9,204.9L758.9,234.7C758.9,238.6 755.7,241.8 751.8,241.8Z" style="fill:rgb(211,227,241);fill-opacity:0.3;fill-rule:nonzero;"/>
                    </g>
                    <g transform="matrix(1.04329,0,0,1.04329,-29.5315,-31.8474)">
                        <path d="M217.7,219.1L215.8,219.1C215.5,219.1 215.3,218.9 215.3,218.6L215.3,205.4C215.3,205.1 215.5,204.9 215.8,204.9L221.2,204.9C222.3,204.9 223.2,205.2 223.9,205.8C224.6,206.4 224.8,207.3 224.8,208.5L224.8,210.6C224.8,211.7 224.5,212.6 223.9,213.3C223.3,214 222.4,214.2 221.2,214.2L218.4,214.2C218.2,214.2 218.1,214.3 218.1,214.4L218.1,218.6C218.1,219 218,219.1 217.7,219.1ZM218.4,211.8L220.7,211.8C221.2,211.8 221.5,211.7 221.7,211.5C221.9,211.3 222,211 222,210.5L222,208.7C222,208.2 221.9,207.9 221.7,207.7C221.5,207.5 221.2,207.4 220.7,207.4L218.4,207.4C218.2,207.4 218.2,207.5 218.2,207.6L218.2,211.5C218.1,211.7 218.2,211.8 218.4,211.8Z" style="fill:rgb(102,102,102);fill-rule:nonzero;"/>
                        <path d="M230.7,219.1L230.2,219.1C229,219.1 228.1,218.8 227.5,218.2C226.9,217.6 226.6,216.7 226.6,215.5L226.6,211.5C226.6,210.3 226.9,209.5 227.5,208.8C228.1,208.2 229,207.9 230.2,207.9L235.3,207.9C235.6,207.9 235.8,208.1 235.8,208.4L235.8,218.7C235.8,219 235.6,219.2 235.3,219.2L233.5,219.2C233.2,219.2 233,219 233,218.7L233,218L232.9,218C232.7,218.4 232.5,218.7 232,218.9C231.6,219 231.2,219.1 230.7,219.1ZM232.9,215L232.9,210.5C232.9,210.3 232.8,210.3 232.6,210.3L230.5,210.3C230,210.3 229.7,210.4 229.5,210.6C229.3,210.8 229.2,211.1 229.2,211.6L229.2,215.4C229.2,215.9 229.3,216.2 229.5,216.4C229.7,216.6 230,216.7 230.5,216.7L231.3,216.7C232.4,216.7 232.9,216.1 232.9,215Z" style="fill:rgb(102,102,102);fill-rule:nonzero;"/>
                        <path d="M240.5,219.1L238.6,219.1C238.3,219.1 238.1,218.9 238.1,218.6L238.1,208.3C238.1,208 238.3,207.8 238.6,207.8L240.5,207.8C240.8,207.8 241,208 241,208.3L241,209L241.1,209C241.3,208.6 241.5,208.3 242,208.1C242.4,207.9 242.8,207.8 243.3,207.8L244.1,207.8C244.4,207.8 244.5,208 244.5,208.3L244.5,209.8C244.5,210 244.5,210.1 244.4,210.2C244.3,210.3 244.2,210.3 244.1,210.3L242.6,210.3C241.6,210.3 241.1,210.9 241.1,212L241.1,218.6C241,219 240.8,219.1 240.5,219.1Z" style="fill:rgb(102,102,102);fill-rule:nonzero;"/>
                        <path d="M249.8,219.1L249.3,219.1C248.1,219.1 247.2,218.8 246.6,218.2C246,217.6 245.7,216.7 245.7,215.5L245.7,211.5C245.7,210.3 246,209.5 246.6,208.8C247.2,208.2 248.1,207.9 249.3,207.9L254.4,207.9C254.7,207.9 254.9,208.1 254.9,208.4L254.9,218.7C254.9,219 254.7,219.2 254.4,219.2L252.6,219.2C252.3,219.2 252.1,219 252.1,218.7L252.1,218L252,218C251.8,218.4 251.6,218.7 251.1,218.9C250.7,219 250.2,219.1 249.8,219.1ZM252,215L252,210.5C252,210.3 251.9,210.3 251.7,210.3L249.6,210.3C249.1,210.3 248.8,210.4 248.6,210.6C248.4,210.8 248.3,211.1 248.3,211.6L248.3,215.4C248.3,215.9 248.4,216.2 248.6,216.4C248.8,216.6 249.1,216.7 249.6,216.7L250.4,216.7C251.5,216.7 252,216.1 252,215Z" style="fill:rgb(102,102,102);fill-rule:nonzero;"/>
                    </g>
                    <g transform="matrix(1.04329,0,0,1.04329,-29.5315,-31.8474)">
                        <path d="M751.8,293.8L210,293.8C206.1,293.8 202.9,290.6 202.9,286.7L202.9,256.9C202.9,253 206.1,249.8 210,249.8L751.8,249.8C755.7,249.8 758.9,253 758.9,256.9L758.9,286.7C758.9,290.6 755.7,293.8 751.8,293.8Z" style="fill:rgb(211,227,241);fill-opacity:0.3;fill-rule:nonzero;"/>
                    </g>
                    <g transform="matrix(1.04329,0,0,1.04329,-29.5315,-31.8474)">
                        <path d="M216.8,272.1L214.7,272.1C214.4,272.1 214.3,271.9 214.4,271.6L217.9,258.4C218,258.1 218.2,257.9 218.6,257.9L221.5,257.9C221.9,257.9 222.1,258.1 222.2,258.4L225.7,271.6C225.8,271.9 225.7,272.1 225.4,272.1L223.3,272.1C223.1,272.1 223,272.1 223,272C222.9,271.9 222.9,271.8 222.9,271.6L222.3,269.2L218,269.2L217.4,271.6C217.4,271.8 217.3,271.9 217.3,272C217,272.1 216.9,272.1 216.8,272.1ZM220,260.6L218.4,267L221.7,267L220,260.6Z" style="fill:rgb(102,102,102);fill-rule:nonzero;"/>
                        <path d="M231.6,272.1L227.4,272.1C227.1,272.1 227,271.9 227,271.6L227,270.2C227,270 227,269.9 227.1,269.9C227.2,269.9 227.3,269.8 227.5,269.8L231.2,269.8C231.9,269.8 232.3,269.6 232.3,269.1L232.3,269C232.3,268.6 232,268.3 231.4,268L229.2,266.8C228.5,266.4 227.9,266 227.5,265.6C227.1,265.2 227,264.6 227,263.9C227,262.9 227.3,262.1 227.8,261.6C228.3,261.1 229.2,260.9 230.4,260.9L234.1,260.9C234.4,260.9 234.5,261.1 234.5,261.4L234.5,262.8C234.5,263 234.5,263.1 234.4,263.1C234.3,263.2 234.2,263.2 234,263.2L230.9,263.2C230.2,263.2 229.8,263.4 229.8,263.7L229.8,263.8C229.8,264.1 230.1,264.5 230.7,264.8L232.9,266.1C233.7,266.5 234.2,266.9 234.5,267.4C234.8,267.8 235,268.4 235,269.1C235.1,271.1 233.9,272.1 231.6,272.1Z" style="fill:rgb(102,102,102);fill-rule:nonzero;"/>
                        <path d="M241,272.1L240.3,272.1C239.2,272.1 238.3,271.8 237.7,271.2C237.1,270.6 236.8,269.7 236.8,268.5L236.8,261.3C236.8,261 237,260.8 237.3,260.8L239.2,260.8C239.5,260.8 239.7,261 239.7,261.3L239.7,268.3C239.7,268.8 239.8,269.1 240,269.3C240.2,269.5 240.5,269.6 241,269.6L241.8,269.6C242.8,269.6 243.3,269 243.3,267.9L243.3,261.2C243.3,260.9 243.5,260.7 243.8,260.7L245.6,260.7C245.9,260.7 246.1,260.9 246.1,261.2L246.1,271.5C246.1,271.8 245.9,272 245.6,272L243.8,272C243.5,272 243.3,271.8 243.3,271.5L243.3,270.8L243.2,270.8C243,271.2 242.8,271.5 242.3,271.7C241.9,272 241.5,272.1 241,272.1Z" style="fill:rgb(102,102,102);fill-rule:nonzero;"/>
                        <path d="M250.8,272.1L249,272.1C248.7,272.1 248.5,271.9 248.5,271.6L248.5,261.3C248.5,261 248.7,260.8 249,260.8L250.9,260.8C251.2,260.8 251.4,261 251.4,261.3L251.4,262L251.5,262C251.8,261.2 252.5,260.8 253.7,260.8L254.4,260.8C256.7,260.8 257.9,262 257.9,264.4L257.9,271.6C257.9,271.9 257.7,272.1 257.4,272.1L255.6,272.1C255.3,272.1 255.1,271.9 255.1,271.6L255.1,264.6C255.1,264.1 255,263.8 254.8,263.6C254.6,263.4 254.3,263.3 253.8,263.3L253,263.3C252,263.3 251.5,263.9 251.5,265L251.5,271.7C251.3,272 251.1,272.1 250.8,272.1Z" style="fill:rgb(102,102,102);fill-rule:nonzero;"/>
                        <path d="M260.2,263.3L259.3,263.3C259.1,263.3 259,263.3 258.9,263.2C258.8,263.1 258.8,263 258.8,262.8L258.8,261.3C258.8,261 259,260.8 259.3,260.8L260.2,260.8C260.4,260.8 260.4,260.7 260.4,260.6L260.4,258.5C260.4,258.2 260.6,258 260.9,258L262.7,258C263,258 263.2,258.2 263.2,258.5L263.2,260.6C263.2,260.8 263.3,260.8 263.5,260.8L265.2,260.8C265.5,260.8 265.7,261 265.7,261.3L265.7,262.8C265.7,263 265.7,263.1 265.6,263.1C265.5,263.2 265.4,263.2 265.2,263.2L263.5,263.2C263.3,263.2 263.2,263.3 263.2,263.4L263.2,268.3C263.2,268.8 263.3,269.1 263.5,269.3C263.7,269.5 264,269.6 264.5,269.6L265.4,269.6C265.7,269.6 265.9,269.8 265.9,270.1L265.9,271.6C265.9,271.8 265.9,271.9 265.8,271.9C265.7,272 265.6,272 265.4,272L264.1,272C262.9,272 262,271.7 261.4,271.1C260.8,270.5 260.4,269.6 260.4,268.5L260.4,263.5C260.5,263.4 260.4,263.3 260.2,263.3Z" style="fill:rgb(102,102,102);fill-rule:nonzero;"/>
                        <path d="M273.1,272.1L271.1,272.1C269.9,272.1 269,271.8 268.4,271.2C267.8,270.6 267.5,269.7 267.5,268.5L267.5,264.5C267.5,263.3 267.8,262.5 268.4,261.8C269,261.2 269.9,260.9 271.1,260.9L273.1,260.9C274.2,260.9 275.1,261.2 275.8,261.8C276.4,262.4 276.8,263.3 276.8,264.5L276.8,268.5C276.8,269.6 276.5,270.5 275.8,271.2C275.2,271.8 274.3,272.1 273.1,272.1ZM271.6,269.7L272.7,269.7C273.2,269.7 273.5,269.6 273.7,269.4C273.9,269.2 274,268.9 274,268.4L274,264.5C274,264 273.9,263.7 273.7,263.5C273.5,263.3 273.2,263.2 272.7,263.2L271.6,263.2C271.1,263.2 270.8,263.3 270.6,263.5C270.4,263.7 270.3,264 270.3,264.5L270.3,268.4C270.3,268.9 270.4,269.2 270.6,269.4C270.8,269.6 271.1,269.7 271.6,269.7Z" style="fill:rgb(102,102,102);fill-rule:nonzero;"/>
                    </g>
                </g>
            </g>
            <g transform="matrix(1,0,0,1,212,0)">
                <g>
                    <g transform="matrix(1.04329,0,0,1.04329,-29.5315,-31.8474)">
                        <path d="M751.8,582.8L210,582.8C206.1,582.8 202.9,579.6 202.9,575.7L202.9,335.8C202.9,331.9 206.1,328.7 210,328.7L751.8,328.7C755.7,328.7 758.9,331.9 758.9,335.8L758.9,575.6C758.9,579.6 755.7,582.8 751.8,582.8Z" style="fill:rgb(211,227,241);fill-opacity:0.3;fill-rule:nonzero;"/>
                    </g>
                    <g transform="matrix(1.04329,0,0,1.04329,-29.5315,-31.8474)">
                        <path d="M224.7,342L228,342C228.3,342 228.5,342.2 228.5,342.5L228.5,355.7C228.5,356 228.3,356.2 228,356.2L226.2,356.2C225.9,356.2 225.7,356 225.7,355.7L225.7,345.3L225.6,345.3L223.4,352.7C223.3,353 223.1,353.1 222.8,353.1L221,353.1C220.7,353.1 220.5,353 220.5,352.7L218.2,345.3L218,345.3L218,355.8C218,356 218,356.1 217.9,356.2C217.8,356.3 217.7,356.3 217.5,356.3L215.7,356.3C215.4,356.3 215.2,356.1 215.2,355.8L215.2,342.6C215.2,342.3 215.4,342.1 215.7,342.1L219,342.1C219.2,342.1 219.3,342.2 219.4,342.4L221.7,350.2L221.8,350.2L224.2,342.4C224.3,342.1 224.5,342 224.7,342Z" style="fill:rgb(102,102,102);fill-rule:nonzero;"/>
                        <path d="M239.3,356.1L234.4,356.1C233.2,356.1 232.3,355.8 231.7,355.2C231.1,354.6 230.8,353.7 230.8,352.5L230.8,348.5C230.8,347.3 231.1,346.5 231.7,345.8C232.3,345.2 233.2,344.9 234.4,344.9L236.1,344.9C237.3,344.9 238.2,345.2 238.8,345.8C239.4,346.4 239.7,347.3 239.7,348.5L239.7,351.3C239.7,351.6 239.5,351.8 239.2,351.8L233.7,351.8C233.5,351.8 233.4,351.9 233.4,352L233.4,352.5C233.4,353 233.5,353.3 233.7,353.5C233.9,353.7 234.2,353.8 234.7,353.8L239.1,353.8C239.4,353.8 239.6,354 239.6,354.3L239.6,355.8C239.6,356 239.6,356.1 239.5,356.1C239.6,356.1 239.5,356.1 239.3,356.1ZM233.9,349.9L236.9,349.9C237.1,349.9 237.1,349.8 237.1,349.7L237.1,348.6C237.1,348.1 237,347.8 236.8,347.6C236.6,347.4 236.3,347.3 235.8,347.3L234.9,347.3C234.4,347.3 234.1,347.4 233.9,347.6C233.7,347.8 233.6,348.1 233.6,348.6L233.6,349.7C233.6,349.8 233.7,349.9 233.9,349.9Z" style="fill:rgb(102,102,102);fill-rule:nonzero;"/>
                        <path d="M244.3,356.1L242.4,356.1C242.1,356.1 241.9,355.9 241.9,355.6L241.9,345.3C241.9,345 242.1,344.8 242.4,344.8L244.3,344.8C244.6,344.8 244.8,345 244.8,345.3L244.8,346L244.9,346C245.2,345.2 245.9,344.8 247.1,344.8L247.8,344.8C250.1,344.8 251.3,346 251.3,348.4L251.3,355.6C251.3,355.9 251.1,356.1 250.8,356.1L249,356.1C248.7,356.1 248.5,355.9 248.5,355.6L248.5,348.6C248.5,348.1 248.4,347.8 248.2,347.6C248,347.4 247.7,347.3 247.2,347.3L246.4,347.3C245.4,347.3 244.9,347.9 244.9,349L244.9,355.7C244.7,356 244.6,356.1 244.3,356.1Z" style="fill:rgb(102,102,102);fill-rule:nonzero;"/>
                        <path d="M257.7,356.1L253.5,356.1C253.2,356.1 253.1,355.9 253.1,355.6L253.1,354.2C253.1,354 253.1,353.9 253.2,353.9C253.3,353.9 253.4,353.8 253.6,353.8L257.3,353.8C258,353.8 258.4,353.6 258.4,353.1L258.4,353C258.4,352.6 258.1,352.3 257.5,352L255.3,350.8C254.6,350.4 254,350 253.6,349.6C253.2,349.2 253.1,348.6 253.1,347.9C253.1,346.9 253.4,346.1 253.9,345.6C254.4,345.1 255.3,344.9 256.5,344.9L260.2,344.9C260.5,344.9 260.6,345.1 260.6,345.4L260.6,346.8C260.6,347 260.6,347.1 260.5,347.1C260.4,347.2 260.3,347.2 260.1,347.2L257,347.2C256.3,347.2 255.9,347.4 255.9,347.7L255.9,347.8C255.9,348.1 256.2,348.5 256.8,348.8L259,350.1C259.8,350.5 260.3,350.9 260.6,351.4C260.9,351.8 261.1,352.4 261.1,353.1C261.1,355.1 260,356.1 257.7,356.1Z" style="fill:rgb(102,102,102);fill-rule:nonzero;"/>
                        <path d="M267,356.1L266.5,356.1C265.3,356.1 264.4,355.8 263.8,355.2C263.2,354.6 262.9,353.7 262.9,352.5L262.9,348.5C262.9,347.3 263.2,346.5 263.8,345.8C264.4,345.2 265.3,344.9 266.5,344.9L271.6,344.9C271.9,344.9 272.1,345.1 272.1,345.4L272.1,355.7C272.1,356 271.9,356.2 271.6,356.2L269.8,356.2C269.5,356.2 269.3,356 269.3,355.7L269.3,355L269.2,355C269,355.4 268.8,355.7 268.3,355.9C267.9,356 267.5,356.1 267,356.1ZM269.3,352L269.3,347.5C269.3,347.3 269.2,347.3 269,347.3L266.9,347.3C266.4,347.3 266.1,347.4 265.9,347.6C265.7,347.8 265.6,348.1 265.6,348.6L265.6,352.4C265.6,352.9 265.7,353.2 265.9,353.4C266.1,353.6 266.4,353.7 266.9,353.7L267.7,353.7C268.8,353.7 269.3,353.1 269.3,352Z" style="fill:rgb(102,102,102);fill-rule:nonzero;"/>
                        <path d="M273.7,359.8L272.2,359.8C271.9,359.8 271.7,359.6 271.7,359.3L271.7,357.8C271.7,357.5 271.9,357.3 272.2,357.3L272.8,357.3C273.5,357.3 273.9,357.2 274.2,356.9C274.5,356.6 274.6,356.2 274.6,355.6L274.6,345.3C274.6,345 274.8,344.8 275.1,344.8L277,344.8C277.3,344.8 277.5,345 277.5,345.3L277.5,356.1C277.5,357.2 277.2,358.1 276.5,358.8C275.8,359.4 274.9,359.8 273.7,359.8ZM274.6,343L274.6,341.1C274.6,340.8 274.7,340.7 275,340.7L276.9,340.7C277.2,340.7 277.3,340.8 277.3,341.1L277.3,343C277.3,343.3 277.2,343.4 276.9,343.4L275,343.4C274.7,343.4 274.6,343.3 274.6,343Z" style="fill:rgb(102,102,102);fill-rule:nonzero;"/>
                        <path d="M288.2,356.1L283.3,356.1C282.1,356.1 281.2,355.8 280.6,355.2C280,354.6 279.7,353.7 279.7,352.5L279.7,348.5C279.7,347.3 280,346.5 280.6,345.8C281.2,345.2 282.1,344.9 283.3,344.9L285,344.9C286.2,344.9 287.1,345.2 287.7,345.8C288.3,346.4 288.6,347.3 288.6,348.5L288.6,351.3C288.6,351.6 288.4,351.8 288.1,351.8L282.6,351.8C282.4,351.8 282.3,351.9 282.3,352L282.3,352.5C282.3,353 282.4,353.3 282.6,353.5C282.8,353.7 283.1,353.8 283.6,353.8L288,353.8C288.3,353.8 288.5,354 288.5,354.3L288.5,355.8C288.5,356 288.5,356.1 288.4,356.1C288.5,356.1 288.4,356.1 288.2,356.1ZM282.7,349.9L285.7,349.9C285.9,349.9 285.9,349.8 285.9,349.7L285.9,348.6C285.9,348.1 285.8,347.8 285.6,347.6C285.4,347.4 285.1,347.3 284.6,347.3L283.7,347.3C283.2,347.3 282.9,347.4 282.7,347.6C282.5,347.8 282.4,348.1 282.4,348.6L282.4,349.7C282.5,349.8 282.5,349.9 282.7,349.9Z" style="fill:rgb(102,102,102);fill-rule:nonzero;"/>
                    </g>
                </g>
            </g>
            <g transform="matrix(1,0,0,1,212,0)">
                <g>
                    <g transform="matrix(1.04329,0,0,1.04329,-29.5315,-31.8474)">
                        <path d="M600.8,640.8L578,640.8C574.1,640.8 570.9,637.6 570.9,633.7L570.9,611.9C570.9,608 574.1,604.8 578,604.8L600.8,604.8C604.7,604.8 607.9,608 607.9,611.9L607.9,633.7C607.9,637.6 604.7,640.8 600.8,640.8Z" style="fill:rgb(211,227,241);fill-opacity:0.3;fill-rule:nonzero;"/>
                    </g>
                    <g transform="matrix(1.04329,0,0,1.04329,-29.5315,-31.8474)">
                        <path d="M594.5,614.4C594.6,614.5 594.7,614.7 594.7,614.9L594.7,628.6C594.7,632 591.9,634.8 588.5,634.8C585,634.8 582.3,632 582.3,628.6L582.3,614.6C582.3,612.1 584.3,610.1 586.8,610.1C589.3,610.1 591.3,612.1 591.3,614.6L591.3,626.8C591.3,628.3 590.1,629.6 588.5,629.6C587,629.6 585.7,628.4 585.7,626.8L585.7,615.2C585.7,614.8 586,614.5 586.4,614.5C586.8,614.5 587.1,614.8 587.1,615.2L587.1,626.8C587.1,627.6 587.7,628.2 588.5,628.2C589.3,628.2 589.9,627.6 589.9,626.8L589.9,614.6C589.9,612.9 588.5,611.4 586.7,611.4C585,611.4 583.5,612.8 583.5,614.6L583.5,628.6C583.5,631.3 585.7,633.5 588.4,633.5C591.1,633.5 593.3,631.3 593.3,628.6L593.3,614.9C593.3,614.2 594.1,613.9 594.5,614.4Z" style="fill:rgb(102,102,102);fill-rule:nonzero;"/>
                    </g>
                </g>
            </g>
        </g>
        <g id="btn01" transform="matrix(1,0,0,1,373,109)" class="x-m110new" data-content="text01" data-btn="btn02" data-remove="btn01-bright" fill-opacity="0">
            <path d="M601.221,158.264C601.221,162.333 597.883,165.671 593.814,165.671L28.559,165.671C24.491,165.671 21.152,162.333 21.152,158.264L21.152,72.923C21.152,68.854 24.491,65.515 28.559,65.515L593.814,65.515C597.883,65.515 601.221,68.854 601.221,72.923L601.221,158.264Z" style="fill-rule:nonzero;"/>
        </g>
        <g id="btn02" transform="matrix(1.04329,0,0,1.04329,183.732,-30.9854)" class="x-m110new" data-content="text02" data-btn="btn03" data-remove="btn02-bright" fill-opacity="0">
            <path d="M751.8,582.8L210,582.8C206.1,582.8 202.9,579.6 202.9,575.7L202.9,335.8C202.9,331.9 206.1,328.7 210,328.7L751.8,328.7C755.7,328.7 758.9,331.9 758.9,335.8L758.9,575.6C758.9,579.6 755.7,582.8 751.8,582.8Z" style="fill-rule:nonzero;"/>
        </g>
        <g id="btn03" transform="matrix(1.04329,0,0,1.04329,182.469,-31.8474)" class="x-m110new" data-content="text03" data-btn="btn04" data-remove="btn03-bright" fill-opacity="0">
            <path d="M600.8,640.8L578,640.8C574.1,640.8 570.9,637.6 570.9,633.7L570.9,611.9C570.9,608 574.1,604.8 578,604.8L600.8,604.8C604.7,604.8 607.9,608 607.9,611.9L607.9,633.7C607.9,637.6 604.7,640.8 600.8,640.8Z" style="fill-rule:nonzero;"/>
        </g>
        <g id="btn04" transform="matrix(1.04329,0,0,1.04329,182.469,-31.8474)" class="x-jump" data-jump="m1_11" data-remove="btn04-bright" fill-opacity="0">
            <path d="M744.8,640.8L619,640.8C615.1,640.8 611.9,637.6 611.9,633.7L611.9,611.9C611.9,608 615.1,604.8 619,604.8L744.8,604.8C748.7,604.8 751.9,608 751.9,611.9L751.9,633.7C751.9,637.6 748.7,640.8 744.8,640.8Z" style="fill-rule:nonzero;"/>
        </g>
    </g>
</svg>
