<?xml version="1.0" encoding="UTF-8" standalone="no"?>
<!DOCTYPE svg PUBLIC "-//W3C//DTD SVG 1.1//EN" "http://www.w3.org/Graphics/SVG/1.1/DTD/svg11.dtd">
<svg class="m110-expertos" width="100%" height="100%" viewBox="0 0 400 440" version="1.1" xmlns="http://www.w3.org/2000/svg" xmlns:xlink="http://www.w3.org/1999/xlink" xml:space="preserve" xmlns:serif="http://www.serif.com/" style="fill-rule:evenodd;clip-rule:evenodd;stroke-linejoin:round;stroke-miterlimit:2;">
    <g transform="matrix(1,0,0,1,-50,25.2)">
        <g id="sebastian-shape" transform="matrix(1,0,0,1,223.216,-18)">
            <g>
                <path d="M110.1,278.8L110.9,239.2L117.8,231.7L117.5,285L110.1,278.8Z" style="fill:rgb(77,77,77);fill-rule:nonzero;"/>
                <path d="M107.8,292.2L108.5,274.4L119,270.1L119.3,293.9L107.8,292.2Z" style="fill:rgb(77,77,77);fill-rule:nonzero;"/>
                <rect x="45.1" y="314.7" width="14.7" height="106.7" style="fill:rgb(102,102,102);"/>
                <rect x="166.1" y="314.7" width="14.7" height="106.7" style="fill:rgb(102,102,102);"/>
                <rect x="121.1" y="320.7" width="14" height="85.7" style="fill:rgb(102,102,102);"/>
                <rect x="87.8" y="320.7" width="13.3" height="85.7" style="fill:rgb(77,77,77);"/>
                <path d="M176.3,311.1C176.3,299 165,298.4 114.3,298.4C63.7,298.4 52.3,298.9 52.3,311.1C52.3,323.2 63.6,323.8 114.3,323.8C165,323.8 176.3,323.3 176.3,311.1Z" style="fill:rgb(77,77,77);fill-rule:nonzero;"/>
                <path d="M112.5,251.1C52.2,251.1 40.6,256 48.2,168.6C52.8,115.2 62.6,100.1 122.8,100.1C183.1,100.1 187.2,129.2 187.1,168.6C186.8,256.3 172.8,251.1 112.5,251.1Z" style="fill:rgb(179,179,179);fill-rule:nonzero;"/>
                <path d="M33.7,304C33.7,292.7 42.2,291 111.1,291C180,291 188.5,292.7 188.5,304C188.5,315.3 180,317 111.1,317C42.2,317 33.7,315.3 33.7,304Z" style="fill:rgb(179,179,179);fill-rule:nonzero;"/>
                <path d="M176.1,304C176.1,299.2 174.5,296.2 167.5,294.2C169.2,293.7 171.3,293.3 173.7,293C186.1,294.8 188.5,298.1 188.5,304C188.5,310 186.1,313.2 173.7,315C171.3,314.6 169.2,314.2 167.5,313.8C174.6,311.8 176.1,308.8 176.1,304Z" style="fill:rgb(128,128,128);fill-rule:nonzero;"/>
                <path d="M48.4,293C50.8,293.3 52.7,293.7 54.4,294.2C47.2,296.1 45.6,299.2 45.6,304C45.6,308.8 47.2,311.9 54.4,313.8C52.7,314.3 50.7,314.6 48.4,315C36,313.2 33.6,309.9 33.6,304C33.7,298 36.1,294.7 48.4,293Z" style="fill:rgb(128,128,128);fill-rule:nonzero;"/>
                <path d="M49.3,167.1C52,135.1 57.8,113.3 84.5,105.6C165.4,114 182.8,164.1 179.4,216.1C170.8,246 153.1,251 112.5,251C52.2,251.1 41.9,254.5 49.3,167.1Z" style="fill:rgb(128,128,128);fill-rule:nonzero;"/>
                <g>
                    <path d="M85.5,291.1L88.7,291.1C88.1,294.8 87.9,299.1 87.9,304C87.9,308.9 88.1,313.2 88.7,316.9L85.5,316.9C84.9,313.2 84.7,308.9 84.7,304C84.8,299.1 85,294.8 85.5,291.1Z" style="fill:rgb(128,128,128);fill-rule:nonzero;"/>
                    <path d="M106,291L109.2,291C108.7,294.8 108.5,299.1 108.5,304C108.5,308.9 108.7,313.2 109.2,317L106,317C105.5,313.2 105.3,308.9 105.3,304C105.4,299.1 105.6,294.8 106,291Z" style="fill:rgb(128,128,128);fill-rule:nonzero;"/>
                    <path d="M130.8,291L134,291C133.6,294.8 133.4,299.1 133.4,303.9C133.4,308.8 133.6,313 134,316.8L130.8,316.8C130.4,313 130.2,308.7 130.2,303.9C130.2,299.1 130.3,294.8 130.8,291Z" style="fill:rgb(128,128,128);fill-rule:nonzero;"/>
                </g>
                <g transform="matrix(-1,-4.48549e-11,4.48549e-11,-1,230.194,533.996)">
                    <rect x="104.1" y="254.6" width="21.9" height="24.9" style="fill:rgb(77,77,77);"/>
                </g>
            </g>
            <g transform="matrix(-1.31812,0,0,1.31812,-28.4174,8.20974)">
                <g transform="matrix(1,0,0,1,-173.216,-7.2)">
                    <path d="M49.5,73.2C31,56.5 20,36.5 22.5,31.7C25.1,26.8 29.7,26.1 29.7,26.1C29.7,26.1 23.6,21.7 33,14.8C42.5,7.9 70.6,-0.3 81.9,9.7C93.2,19.7 84.2,61.1 84.2,61.1L49.5,73.2Z" style="fill:rgb(153,57,62);fill-rule:nonzero;"/>
                </g>
                <g transform="matrix(1,0,0,1,-173.216,-7.2)">
                    <path d="M61.4,17.3C43.9,17.3 34.5,24.5 34.5,16C34.5,15.1 34.7,14.2 35,13.4C34.3,13.8 33.6,14.3 33,14.7C23.6,21.7 29.7,26 29.7,26C29.7,26 25.1,26.8 22.5,31.6C19.9,36.5 30.9,56.4 49.5,73.1L84.2,61C84.2,61 88.2,42.6 87.5,27.4C81.9,29.9 69.6,17.3 61.4,17.3Z" style="fill:rgb(132,42,51);fill-rule:nonzero;"/>
                </g>
                <g transform="matrix(1,0,0,1,-173.216,-7.2)">
                    <path d="M31.8,198.8C28,176.3 20.1,109 21.5,105C22.9,100.9 55.7,84.2 62.9,85.5C70.1,86.9 101.8,94.7 105.9,100.5C110,106.3 106.2,200.2 106.2,200.2L31.8,198.8Z" style="fill:rgb(81,59,62);fill-rule:nonzero;"/>
                </g>
                <g transform="matrix(1,0,0,1,-173.216,-7.2)">
                    <path d="M105.7,124.6C103.4,157.2 91.7,180.5 70.9,182.3C35.3,185.3 36.6,146.5 23.4,116.7C24.6,135.3 21.5,219.6 24,226.8C26.5,234 103.6,236 105.1,227.8C106.6,219.6 107.6,161.5 107.7,132.3C107.8,116 106.4,114.7 105.7,124.6Z" style="fill:rgb(66,46,49);fill-rule:nonzero;"/>
                </g>
                <g transform="matrix(1,0,0,1,-173.216,-7.2)">
                    <path d="M66.6,170.2C67.5,169.8 71.8,165.9 73.2,165.2C74.6,164.4 76.4,166.8 76.1,168C75.8,169.3 72.9,171.9 71,174.1C69.3,176.1 64.9,178.3 61.4,179.2L58.7,174.3C58.6,174.2 65.7,170.6 66.6,170.2Z" style="fill:rgb(255,149,102);fill-rule:nonzero;"/>
                </g>
                <g transform="matrix(1,0,0,1,-173.216,-7.2)">
                    <path d="M73.2,166.6C73.6,167.8 76.6,170.3 78.6,172.4C80.4,174.3 84.9,176.3 88.5,177L90.9,172C90.9,172 83.6,168.8 82.7,168.4C81.8,168 77.3,164.4 75.9,163.7C74.4,162.9 72.7,165.3 73.2,166.6Z" style="fill:rgb(255,184,130);fill-rule:nonzero;"/>
                </g>
                <g transform="matrix(1,0,0,1,-173.216,-7.2)">
                    <path d="M85.4,169.5C86.2,171.2 83.5,174.4 76.5,168.8C75.2,167.7 74,167.4 73.2,166.3L73.2,166.6C73.6,167.8 76.6,170.3 78.6,172.4C80.4,174.3 84.9,176.3 88.5,177L90.9,172C90.9,171.9 87.8,170.5 85.4,169.5Z" style="fill:rgb(255,149,102);fill-rule:nonzero;"/>
                </g>
                <g transform="matrix(1,0,0,1,-173.216,-7.2)">
                    <path d="M88.4,174.4C84.9,174.1 80.2,172.2 78.6,173C77.1,173.8 74.5,188.9 75.1,191.6C75.7,194.3 90.9,189.5 90.9,189.5L88.4,174.4Z" style="fill:rgb(255,149,102);fill-rule:nonzero;"/>
                </g>
                <g transform="matrix(1,0,0,1,-173.216,-7.2)">
                    <path d="M60,174.4C63.2,174.1 67.6,172.2 69,173C70.4,173.8 72.7,188.9 72.2,191.6C71.7,194.3 56.3,189 56.3,189L60,174.4Z" style="fill:rgb(255,184,130);fill-rule:nonzero;"/>
                </g>
                <g transform="matrix(1,0,0,1,-173.216,-7.2)">
                    <path d="M82.9,188.9C82,188 77.4,187.5 76,187.5C74.6,187.4 69.3,187.1 65.6,187.6L67.6,192.9C67.6,192.9 74.4,192.4 75.3,192.3C76.3,192.3 80.2,192.9 81.8,192.8C83.5,192.7 83.9,189.8 82.9,188.9Z" style="fill:rgb(255,184,130);fill-rule:nonzero;"/>
                </g>
                <g transform="matrix(1,0,0,1,-173.216,-7.2)">
                    <path d="M82.5,172.5C81.5,171.7 76.2,170.8 74.8,170.6C73.4,170.4 68.5,171.8 65.2,173.2L67.7,178.2C67.7,178.2 74.4,175.8 75.3,175.6C76.3,175.4 80.3,176.6 81.9,176.4C83.5,176.3 83.6,173.4 82.5,172.5Z" style="fill:rgb(255,184,130);fill-rule:nonzero;"/>
                </g>
                <g transform="matrix(1,0,0,1,-173.216,-7.2)">
                    <path d="M67.4,173.7C68.5,172.9 73.1,173.4 74.5,173.6C75.9,173.8 80.5,175 84.1,176.2L81.7,180.7C81.7,180.7 75.1,178.8 74.2,178.6C73.3,178.4 69.3,178.2 67.7,177.8C66.1,177.5 66.3,174.4 67.4,173.7Z" style="fill:rgb(255,149,102);fill-rule:nonzero;"/>
                </g>
                <g transform="matrix(1,0,0,1,-173.216,-7.2)">
                    <path d="M52.2,171L60.9,171.2L58.2,192.3L51,192L52.2,171Z" style="fill:rgb(242,238,221);fill-rule:nonzero;"/>
                </g>
                <g transform="matrix(1,0,0,1,-173.216,-7.2)">
                    <path d="M67.5,173.9C68.6,173.1 73.2,173.6 74.6,173.8C76,174 80.6,175.2 84.2,176.4L81.8,180.9C81.8,180.9 75.2,179 74.3,178.8C73.4,178.6 69.4,178.4 67.8,178C66.2,177.7 66.4,174.7 67.5,173.9Z" style="fill:rgb(255,184,130);fill-rule:nonzero;"/>
                </g>
                <g transform="matrix(1,0,0,1,-173.216,-7.2)">
                    <path d="M75.4,174C75.8,174.4 76.1,174.8 76.1,175.3C76.1,176.7 73.6,176.9 70.7,176.9C69,176.9 67.7,177.5 66.7,176.9C66.8,177.5 67.2,178 67.8,178.2C69.4,178.6 73.4,178.7 74.3,179C75.2,179.2 81.8,181.1 81.8,181.1L84.2,176.6C81.1,175.3 77.3,174.4 75.4,174Z" style="fill:rgb(255,149,102);fill-rule:nonzero;"/>
                </g>
                <g transform="matrix(1,0,0,1,-173.216,-7.2)">
                    <path d="M66.1,186.7C67,187.6 71.6,188.1 73,188.2C74.4,188.3 79.7,188.6 83.4,188.1L81.4,182.8C81.4,182.8 74.6,183.3 73.6,183.4C72.6,183.4 68.7,182.8 67.1,182.9C65.5,182.8 65.2,185.8 66.1,186.7Z" style="fill:rgb(255,149,102);fill-rule:nonzero;"/>
                </g>
                <g transform="matrix(1,0,0,1,-173.216,-7.2)">
                    <path d="M66.1,186.7C67,187.6 71.6,188.1 73,188.2C74.4,188.3 79.7,188.6 83.4,188.1L81.4,182.8C81.4,182.8 74.6,183.3 73.6,183.4C72.6,183.4 68.7,182.8 67.1,182.9C65.5,182.8 65.2,185.8 66.1,186.7Z" style="fill:rgb(255,149,102);fill-rule:nonzero;"/>
                </g>
                <g transform="matrix(1,0,0,1,-173.216,-7.2)">
                    <path d="M72.6,186.2C72.7,185.1 70.2,183.3 68.2,183C66.2,182.8 65.9,183.6 65.8,184.7C65.7,185.8 65.8,186.9 67.7,187.1C69.8,187.4 72.5,187.4 72.6,186.2Z" style="fill:rgb(255,184,130);fill-rule:nonzero;"/>
                </g>
                <g transform="matrix(1,0,0,1,-173.216,-7.2)">
                    <path d="M81.5,181.6C80.7,180.5 75.8,178.3 74.5,177.8C73.2,177.3 68.1,177.4 64.6,177.8L65.6,182.4C65.6,182.4 72.3,183.3 73.3,183.4C74.3,183.5 78.4,185.1 80,185.3C81.6,185.5 82.3,182.7 81.5,181.6Z" style="fill:rgb(255,184,130);fill-rule:nonzero;"/>
                </g>
                <g transform="matrix(1,0,0,1,-173.216,-7.2)">
                    <path d="M88.3,171L97,171.2L94.3,192.3L87.1,192L88.3,171Z" style="fill:rgb(242,238,221);fill-rule:nonzero;"/>
                </g>
                <g transform="matrix(1,0,0,1,-173.216,-7.2)">
                    <path d="M114.2,168.9C114.1,165.8 107.3,157.1 105.8,148.7C101.7,126.8 99.6,95.2 105.3,99.7C113.2,105.8 144.5,164.2 144.6,189L92,193L92.5,167.4L114.2,168.9Z" style="fill:rgb(81,59,62);fill-rule:nonzero;"/>
                </g>
                <g transform="matrix(1,0,0,1,-173.216,-7.2)">
                    <path d="M105.2,99.6C105.1,99.5 105,99.5 104.9,99.4C116.7,116.2 145.3,179.7 141.4,185.9C137.5,192.1 92.1,187.2 92.1,187.2L92,193C92,193 143.2,196.8 146.7,189C150,181.2 113.1,105.8 105.2,99.6Z" style="fill:rgb(66,46,49);fill-rule:nonzero;"/>
                </g>
                <g transform="matrix(1,0,0,1,-173.216,-7.2)">
                    <path d="M117.5,170.7C117.5,170.7 108,151.6 103.2,131.8C103.9,137.6 104.8,148.6 105.8,153.9C108.1,160.8 110.5,165.4 111.7,168.1L107.5,168.7L117.5,170.7Z" style="fill:rgb(66,46,49);fill-rule:nonzero;"/>
                </g>
                <g transform="matrix(1,0,0,1,-173.216,-7.2)">
                    <path d="M33.7,166.8C33.3,163.3 33.9,152.4 32.9,143C30.8,123.2 26,100.9 21.4,104.9C14.7,110.9 4.5,163 7.7,187.4L52.1,192.6L55.2,166.4L33.7,166.8Z" style="fill:rgb(81,59,62);fill-rule:nonzero;"/>
                </g>
                <g transform="matrix(1,0,0,1,-173.216,-7.2)">
                    <path d="M11.7,184.6C5.8,180.3 14.6,122.5 21,105.5C14.1,113.8 0,186.5 6.3,190C12.6,193.5 52.2,192.7 52.2,192.7L52.8,187.4C52.8,187.3 17.6,188.9 11.7,184.6Z" style="fill:rgb(66,46,49);fill-rule:nonzero;"/>
                </g>
                <g transform="matrix(1,0,0,1,-173.216,-7.2)">
                    <path d="M88.2,92.2C78.1,89 67.2,84.9 63.3,84.2C59.9,83.6 50.3,88.4 41.5,92.6L70.8,161.7L88.2,92.2Z" style="fill:rgb(242,238,221);fill-rule:nonzero;"/>
                </g>
                <g transform="matrix(1,0,0,1,-173.216,-7.2)">
                    <path d="M70.6,99.7L73,102.2L82.6,90.3L79.4,88.8L67.2,94.6L48.6,88.8L45.7,90.7L61.6,102.5L63.4,100.1L64.4,101.6L63.7,145L66.5,151.9L74.2,148.1L75.3,143.4L69.5,101.4L70.6,99.7Z" style="fill:rgb(226,218,186);fill-rule:nonzero;"/>
                </g>
                <g transform="matrix(1,0,0,1,-173.216,-7.2)">
                    <path d="M50,69.6L49.2,89L65.1,93.1L79.9,89.3L77.2,67L50,69.6Z" style="fill:rgb(255,184,130);fill-rule:nonzero;"/>
                </g>
                <g transform="matrix(1,0,0,1,-173.216,-7.2)">
                    <path d="M70.9,165.8L64.6,147.7L65.1,93.1L67.3,92.9L74.7,147.3L70.9,165.8Z" style="fill:rgb(232,77,96);fill-rule:nonzero;"/>
                </g>
                <g transform="matrix(1,0,0,1,-173.216,-7.2)">
                    <path d="M67.2,103.5L62.8,97.6L63.9,92.5L68.6,91.9L70.7,97.6L67.2,103.5Z" style="fill:rgb(232,77,96);fill-rule:nonzero;"/>
                </g>
                <g transform="matrix(1,0,0,1,-173.216,-7.2)">
                    <path d="M61.6,102.2L65.5,92.3L49,85.9L46.9,89.4L61.6,102.2Z" style="fill:rgb(242,238,221);fill-rule:nonzero;"/>
                </g>
                <g transform="matrix(1,0,0,1,-173.216,-7.2)">
                    <path d="M73,102.2L67,91.8L79.8,87.2L81.5,89.4L73,102.2Z" style="fill:rgb(242,238,221);fill-rule:nonzero;"/>
                </g>
                <g transform="matrix(1,0,0,1,-173.216,-7.2)">
                    <path d="M41.1,30.5C45.5,57.4 50,75.6 52.3,79.3C59.2,90.8 84.6,86.5 84.6,86.5C84.6,86.5 99.6,37.9 74,21.7C53.1,8.5 41.1,30.5 41.1,30.5Z" style="fill:rgb(255,184,130);fill-rule:nonzero;"/>
                </g>
                <g transform="matrix(1,0,0,1,-173.216,-7.2)">
                    <path d="M34.8,29.9C38.2,18.8 50.2,16.3 52.7,35.3C55.3,54.2 55,66 55,66L48.3,66C48.4,66 32.8,36.5 34.8,29.9Z" style="fill:rgb(132,42,51);fill-rule:nonzero;"/>
                </g>
                <g transform="matrix(1,0,0,1,-173.216,-7.2)">
                    <path d="M50.6,55.8C46.5,49.3 38.3,49 38,54.9C37.7,60.8 49.1,70.5 51.3,67.5C53.6,64.4 52,58 50.6,55.8Z" style="fill:rgb(255,184,130);fill-rule:nonzero;"/>
                </g>
                <g transform="matrix(1,0,0,1,-173.216,-7.2)">
                    <path d="M48.6,57.1C46,53 40.9,52.9 40.8,56.6C40.6,60.3 47.8,66.4 49.1,64.5C50.5,62.5 49.5,58.5 48.6,57.1Z" style="fill:rgb(234,123,89);fill-rule:nonzero;"/>
                </g>
                <g transform="matrix(1,0,0,1,-173.216,-7.2)">
                    <path d="M49.3,59.5C47.5,56.7 43.9,56.5 43.8,59.1C43.7,61.7 48.7,65.9 49.6,64.6C50.6,63.3 49.9,60.5 49.3,59.5Z" style="fill:rgb(255,184,130);fill-rule:nonzero;"/>
                </g>
                <g transform="matrix(1,0,0,1,-173.216,-7.2)">
                    <path d="M73,38.3C75.1,48.8 77.9,62.7 77.9,64.7C77.9,66.7 71.7,69.1 70.6,68.5C69.5,67.8 71.9,38.4 71.9,38.4L73,38.4L73,38.3Z" style="fill:rgb(234,123,89);fill-rule:nonzero;"/>
                    <path d="M72,37.3C74.1,47.8 76.9,61.7 76.9,63.7C76.9,65.7 70.7,68.1 69.6,67.5C68.5,66.8 70.9,37.4 70.9,37.4L72,37.4L72,37.3Z" style="fill:rgb(255,184,130);fill-rule:nonzero;"/>
                    <g>
                        <path d="M60.3,70L59.7,71.2C62.9,74.7 70,75.2 82,72.8L81.9,72.3C70.4,74.6 63.2,73.1 60.3,70Z" style="fill:rgb(234,123,89);fill-rule:nonzero;"/>
                    </g>
                    <path d="M76,75.8C76,76.2 74.9,76.9 73.3,76.9C71.7,77 70.2,76.3 70.2,76C70.2,75.6 71.7,76 73.3,75.9C74.9,75.9 75.9,75.5 76,75.8Z" style="fill:rgb(234,123,89);fill-rule:nonzero;"/>
                    <g>
                        <path d="M78.3,49.4C78.2,46.6 78.6,43.3 82.8,42.2C87.1,41.1 89,44.9 89,46.3C89,47.7 87.8,49.7 85.4,50C83.1,50.2 81,50 80.1,50.1C79.3,50.4 78.3,50 78.3,49.4Z" style="fill:white;fill-rule:nonzero;"/>
                        <circle cx="83.2" cy="46.1" r="3.5" style="fill:rgb(57,23,11);"/>
                        <path d="M80.2,44.9C80.2,45.8 81,46.5 81.8,46.4C82.7,46.4 83.4,45.6 83.3,44.8C83.3,43.9 82.5,43.2 81.7,43.3C80.9,43.2 80.2,43.9 80.2,44.9Z" style="fill:white;fill-rule:nonzero;"/>
                        <path d="M67.4,49.8C67.3,47 66.7,43.8 62.4,42.9C58.1,42 56.3,46 56.5,47.4C56.7,48.8 57.9,50.8 60.3,50.9C62.7,51 64.7,50.6 65.6,50.8C66.4,50.8 67.4,50.4 67.4,49.8Z" style="fill:white;fill-rule:nonzero;"/>
                        <path d="M65.5,46.4C65.5,48.4 64.1,50 62.1,50C60.1,50 58.5,48.6 58.5,46.6C58.5,44.6 59.9,43 61.9,43C63.9,42.9 65.4,44.5 65.5,46.4Z" style="fill:rgb(57,23,11);fill-rule:nonzero;"/>
                        <path d="M62.3,45.1C62.3,46 61.6,46.7 60.8,46.7C59.9,46.7 59.2,46 59.2,45.2C59.2,44.3 59.9,43.6 60.7,43.6C61.5,43.6 62.2,44.3 62.3,45.1Z" style="fill:white;fill-rule:nonzero;"/>
                    </g>
                    <path d="M73.5,34.2C72.9,35 73.2,41.9 73.6,42.5C74,43.1 85.8,43.1 86.5,42.5C87.2,42 87.1,34.9 86.7,34C86.4,33.2 74.1,33.4 73.5,34.2Z" style="fill:rgb(153,57,62);fill-rule:nonzero;"/>
                    <path d="M54.3,35.5C53.6,36.3 53.9,43.2 54.5,43.8C55.1,44.4 69.9,43.5 70.8,42.9C71.6,42.3 71.5,35.3 71.1,34.4C70.6,33.5 55.1,34.6 54.3,35.5Z" style="fill:rgb(153,57,62);fill-rule:nonzero;"/>
                </g>
            </g>
            <g>
                <path d="M150.3,247.8L75.7,247.8C58.4,247.8 42.9,260.4 44.3,278L44.3,279.4C44.3,294.7 59.5,307.1 78.1,307.1L152.4,307.1C171.8,307.1 187.6,294.2 187.6,278.3C187.6,261.5 170.9,247.8 150.3,247.8Z" style="fill:rgb(66,45,49);fill-rule:nonzero;"/>
                <path d="M48.4,281.7C48.9,293.7 72.6,416.1 72.6,416.1L94.1,415.5C94.1,415.5 114,281 98.1,263.1C77.3,239.5 47,246.4 48.4,281.7Z" style="fill:rgb(81,59,62);fill-rule:nonzero;"/>
                <path d="M92.5,271.2C98.6,307.8 89.8,415.4 89.8,415.4L94,415.4C94,415.4 112.6,278.8 100.8,264.4C94.6,256.8 89.1,254.5 89.1,254.5C89.1,254.5 91.1,263 92.5,271.2Z" style="fill:rgb(66,45,49);fill-rule:nonzero;"/>
                <path d="M176.6,285C173.8,296.7 155.6,416 155.6,416L135.7,415.4C135.7,415.4 101.1,282.3 125.6,258.8C157.3,228.5 181.5,264.8 176.6,285Z" style="fill:rgb(81,59,62);fill-rule:nonzero;"/>
                <path d="M120.1,268.5C107.7,304.3 135.7,415.4 135.7,415.4L138.5,415.4C138.5,415.4 122.7,301.1 129.7,271.2C131.4,263.7 132.5,253.3 132.5,253.3C132.5,253.3 124.4,256.1 120.1,268.5Z" style="fill:rgb(66,45,49);fill-rule:nonzero;"/>
            </g>
            <path d="M134.1,406.8L131.1,428.4L190.5,427.4C190.5,427.4 191.5,419.5 182.6,417.5C174.1,415.6 156.7,405.7 156.7,405.7L134.1,406.8Z" style="fill:rgb(51,51,51);fill-rule:nonzero;"/>
            <path d="M94.5,406.8L97.5,428.4L38.1,427.4C38.1,427.4 37.1,419.5 46,417.5C54.5,415.6 71.9,405.7 71.9,405.7L94.5,406.8Z" style="fill:rgb(51,51,51);fill-rule:nonzero;"/>
            <path d="M67.7,404.9L160.1,404.7L160.5,406.3L66.3,406.4L67.7,404.9Z" style="fill:rgb(253,194,128);fill-rule:nonzero;"/>
            <path d="M67.7,402.1L160.1,401.9L160.5,403.6L66.3,403.6L67.7,402.1Z" style="fill:rgb(253,194,128);fill-rule:nonzero;"/>
        </g>
        <g id="emilia-shape" transform="matrix(1,0,0,1,51.2861,0)">
            <g>
                <path d="M89.3,269.1L90,230.5L96.7,223.2L96.5,275.1L89.3,269.1Z" style="fill:rgb(77,77,77);fill-rule:nonzero;"/>
                <path d="M87,282.2L87.7,264.9L97.9,260.6L98.2,283.8L87,282.2Z" style="fill:rgb(77,77,77);fill-rule:nonzero;"/>
                <rect x="25.9" y="304.1" width="14.4" height="104" style="fill:rgb(102,102,102);"/>
                <rect x="143.9" y="304.1" width="14.4" height="104" style="fill:rgb(102,102,102);"/>
                <rect x="100" y="309.9" width="13.6" height="83.5" style="fill:rgb(102,102,102);"/>
                <rect x="67.5" y="309.9" width="13" height="83.5" style="fill:rgb(102,102,102);"/>
                <path d="M153.8,300.6C153.8,288.8 142.8,288.3 93.4,288.3C44.1,288.3 33,288.8 33,300.6C33,312.4 44,312.9 93.4,312.9C142.7,313 153.8,312.5 153.8,300.6Z" style="fill:rgb(77,77,77);fill-rule:nonzero;"/>
                <path d="M90.9,242.1C32.7,242.1 21.6,246.9 28.9,161.7C33.4,109.6 42.7,94.9 100.9,94.9C159,94.9 163.1,123.3 162.9,161.7C162.5,247.2 149,242.1 90.9,242.1Z" style="fill:rgb(179,179,179);fill-rule:nonzero;"/>
                <path d="M14.7,293.7C14.7,282.7 23,281 90.2,281C157.4,281 165.7,282.7 165.7,293.7C165.7,304.7 157.4,306.4 90.2,306.4C23.1,306.3 14.7,304.7 14.7,293.7Z" style="fill:rgb(179,179,179);fill-rule:nonzero;"/>
                <path d="M153.6,293.7C153.6,289 152.1,286.1 145.3,284.2C147,283.7 149,283.3 151.4,283C163.4,284.7 165.8,287.9 165.8,293.7C165.8,299.5 163.4,302.7 151.4,304.4C149,304.1 147,303.7 145.3,303.2C152.1,301.3 153.6,298.3 153.6,293.7Z" style="fill:rgb(128,128,128);fill-rule:nonzero;"/>
                <path d="M29.1,282.9C31.4,283.2 33.3,283.6 35,284.1C28,286 26.5,289 26.5,293.7C26.5,298.4 28,301.4 35,303.3C33.4,303.7 31.4,304.1 29.1,304.5C17.1,302.8 14.7,299.6 14.7,293.8C14.7,287.8 17.1,284.6 29.1,282.9Z" style="fill:rgb(128,128,128);fill-rule:nonzero;"/>
                <path d="M29.9,160.3C32.5,129.1 38.1,107.9 63.9,100.4C142,108.6 158.7,157.4 155.4,208.1C147.1,237.3 130,242.1 90.9,242.1C32.7,242.1 22.8,245.5 29.9,160.3Z" style="fill:rgb(128,128,128);fill-rule:nonzero;"/>
                <g>
                    <path d="M65.3,281.1L68.4,281.1C67.9,284.7 67.7,288.9 67.7,293.7C67.7,298.5 67.9,302.7 68.4,306.3L65.3,306.3C64.8,302.7 64.6,298.5 64.6,293.7C64.6,288.9 64.8,284.7 65.3,281.1Z" style="fill:rgb(128,128,128);fill-rule:nonzero;"/>
                    <path d="M85.3,281L88.4,281C87.9,284.7 87.7,288.9 87.7,293.7C87.7,298.5 87.9,302.7 88.4,306.4L85.3,306.4C84.8,302.7 84.6,298.5 84.6,293.7C84.6,288.9 84.8,284.7 85.3,281Z" style="fill:rgb(128,128,128);fill-rule:nonzero;"/>
                    <path d="M109.4,281L112.5,281C112.1,284.7 111.9,288.9 111.9,293.6C111.9,298.3 112.1,302.5 112.5,306.2L109.4,306.2C109,302.5 108.8,298.3 108.8,293.6C108.8,288.9 109,284.7 109.4,281Z" style="fill:rgb(128,128,128);fill-rule:nonzero;"/>
                </g>
                <g transform="matrix(-1,-4.48327e-11,4.48327e-11,-1,188.232,515.217)">
                    <rect x="83.4" y="245.5" width="21.4" height="24.3" style="fill:rgb(77,77,77);"/>
                </g>
            </g>
            <g transform="matrix(1.33596,0,0,1.33596,15.9577,37.6588)">
                <g transform="matrix(1,0,0,1,-1.28614,-25.2)">
                    <path d="M26.3,116.5L80.8,100.3C80.8,100.3 108.3,23.3 74.1,12.5C65.6,-1.1 22.2,-1.4 16.3,31.8C10.4,64.9 26.3,116.5 26.3,116.5Z" style="fill:rgb(153,57,62);fill-rule:nonzero;"/>
                </g>
                <g transform="matrix(1,0,0,1,-1.28614,-25.2)">
                    <path d="M53,38.9C40.7,30.5 33.5,18.5 33.4,8.3C25.1,12.6 18.4,20.1 16.3,31.8C10.4,64.9 26.8,121.7 26.8,121.7L81.3,105.5C81.3,105.5 91.3,69.1 91.3,46.1C81.7,50.2 65.6,47.5 53,38.9Z" style="fill:rgb(137,44,53);fill-rule:nonzero;"/>
                </g>
                <g transform="matrix(1,0,0,1,-1.28614,-25.2)">
                    <path d="M59,52.7C45.4,52.7 39.7,92.3 27.2,121.8L75.9,108.5C74.4,88.8 71.3,52.7 59,52.7Z" style="fill:rgb(117,35,47);fill-rule:nonzero;"/>
                </g>
                <g transform="matrix(1,0,0,1,-1.28614,-25.2)">
                    <path d="M113.9,148.6C112,139.4 80,88.7 68,88.2C62.4,87.9 95.9,139.8 100.8,153.2C102.7,158.3 115.5,156 113.9,148.6Z" style="fill:rgb(242,238,221);fill-rule:nonzero;"/>
                    <path d="M107.2,149.4C103.4,138.9 70.4,88.3 68.1,88.2C62.5,87.9 96,139.8 100.9,153.2C102.1,156.5 108,156.7 111.5,154.3C109.9,154 107.7,150.7 107.2,149.4Z" style="fill:rgb(221,210,191);fill-rule:nonzero;"/>
                    <path d="M110.8,158.2C112.5,158.1 118,155.5 118,151.8C118,148.1 111.1,141.3 104.6,144.5C102.3,145.7 97.6,148.8 97.9,149.1C97.8,149.1 101.7,158.6 110.8,158.2Z" style="fill:rgb(77,77,77);fill-rule:nonzero;"/>
                    <path d="M115.7,148.1C115.7,148.4 115.7,148.6 115.6,148.9C115,150.8 111.8,151.3 108.5,150.2C105.3,149.1 103.1,146.7 103.7,144.9C101.2,146.1 97.7,148.9 97.9,149.1C97.9,149.1 101.8,158.5 110.9,158.2C112.6,158.1 118.1,155.5 118.1,151.8C118,150.6 117.1,149.3 115.7,148.1Z" style="fill:rgb(51,51,51);fill-rule:nonzero;"/>
                </g>
                <g transform="matrix(1,0,0,1,-1.28614,-25.2)">
                    <path d="M45.7,183.3C50.6,162.9 31.8,101.9 36.5,93.2C36.5,93.2 80.2,111.1 80,122.9C79.8,146.1 77.5,173.8 79.5,185.4L45.7,183.3Z" style="fill:rgb(221,210,191);fill-rule:nonzero;"/>
                </g>
                <g transform="matrix(1,0,0,1,-1.28614,-25.2)">
                    <path d="M36.1,93.9C35.6,102.7 41.5,139.1 44.6,141.7C51.9,147.9 80,145.8 84.1,138.2C87.4,131.9 72.5,91.9 70.5,90.1C68.4,88.3 36.3,89.6 36.1,93.9Z" style="fill:rgb(242,238,221);fill-rule:nonzero;"/>
                </g>
                <g transform="matrix(1,0,0,1,-1.28614,-25.2)">
                    <path d="M52.3,137.1C49.2,134.6 36.1,92.8 36,93.9C35.5,102.7 41,136.6 44.5,141.2C49.8,148.2 86.6,146.4 84,135.6C73.5,139.7 58.3,141.8 52.3,137.1Z" style="fill:rgb(221,210,191);fill-rule:nonzero;"/>
                </g>
                <g transform="matrix(1,0,0,1,-1.28614,-25.2)">
                    <path d="M41.9,91.1C44.2,101.4 48.1,126.4 65.1,126.1C82.1,125.8 65.6,89.1 65.6,89.1C56.1,88.3 48.1,88.6 41.9,91.1Z" style="fill:rgb(255,184,130);fill-rule:nonzero;"/>
                </g>
                <g transform="matrix(1,0,0,1,-1.28614,-25.2)">
                    <path d="M65.6,89.1L65,89.1C68,95.8 79.6,124.8 64.1,125.1C60.2,125.2 56.8,123.4 53.7,120.5C57,124 60.8,126.2 65.1,126.2C82.1,125.8 65.6,89.1 65.6,89.1Z" style="fill:rgb(255,149,102);fill-rule:nonzero;"/>
                </g>
                <g transform="matrix(1,0,0,1,-1.28614,-25.2)">
                    <path d="M43.8,62.1L45.8,90.1L54.6,96.2L61.5,89.7L55.1,63.4L43.8,62.1Z" style="fill:rgb(255,184,130);fill-rule:nonzero;"/>
                </g>
                <g transform="matrix(1,0,0,1,-1.28614,-25.2)">
                    <path d="M41.2,63.2C42.9,75.9 66.2,86.9 66.2,86.9C66.2,86.9 80.2,70.7 80.5,51.7C80.7,37.8 78.3,24.8 61.6,25.3C47.8,25.7 38.1,40.3 41.2,63.2Z" style="fill:rgb(255,184,130);fill-rule:nonzero;"/>
                </g>
                <g transform="matrix(1,0,0,1,-1.28614,-25.2)">
                    <path d="M43.8,62.9C49.3,51.2 57.7,25.1 47.5,17C40.3,11.3 33.3,35.3 37.2,50.9C38.7,57 43.8,62.9 43.8,62.9Z" style="fill:rgb(137,44,53);fill-rule:nonzero;"/>
                </g>
                <g transform="matrix(1,0,0,1,-1.28614,-25.2)">
                    <path d="M41.7,53.8C37.4,50.9 32.1,50 32.5,54.8C32.8,59.6 40.4,64.2 44.1,65.9C47.9,67.6 43.2,54.8 41.7,53.8Z" style="fill:rgb(255,184,130);fill-rule:nonzero;"/>
                </g>
                <g transform="matrix(1,0,0,1,-1.28614,-25.2)">
                    <path d="M40.7,55.3C38.3,53.7 35.4,53.2 35.6,55.9C35.8,58.5 39.9,61.1 42,62C44,62.9 41.5,55.9 40.7,55.3Z" style="fill:rgb(234,123,89);fill-rule:nonzero;"/>
                </g>
                <g transform="matrix(1,0,0,1,-1.28614,-25.2)">
                    <path d="M42.2,58.3C40.3,57 38,56.6 38.1,58.8C38.3,60.9 41.6,62.9 43.2,63.7C44.9,64.4 42.8,58.8 42.2,58.3Z" style="fill:rgb(255,184,130);fill-rule:nonzero;"/>
                </g>
                <g transform="matrix(1,0,0,1,-1.28614,-25.2)">
                    <path d="M51,20.8C49,15.1 44.7,11.5 41.3,12.7C37.9,13.9 36.7,19.4 38.6,25.1C40.6,30.8 44.9,34.4 48.3,33.2C51.8,32 53,26.4 51,20.8Z" style="fill:rgb(153,57,62);fill-rule:nonzero;"/>
                </g>
                <g transform="matrix(1,0,0,1,-1.28614,-25.2)">
                    <path d="M67.3,59.2C68.9,61.7 70.3,65.2 69.4,66.1C68.5,67 64.3,66.9 64,66.6C63.7,66.3 67.3,59.2 67.3,59.2Z" style="fill:rgb(234,123,89);fill-rule:nonzero;"/>
                    <path d="M66.1,58.6C67.7,61.1 69.1,64.6 68.2,65.5C67.3,66.4 63.1,66.3 62.8,66C62.5,65.7 66.1,58.6 66.1,58.6Z" style="fill:rgb(255,184,130);fill-rule:nonzero;"/>
                    <g>
                        <path d="M81.4,45.6L81.7,45C79.4,41.2 74.1,39.4 71.5,39.4L71.2,41.2C73.3,40.9 78.8,42.4 81.4,45.6Z" style="fill:rgb(153,57,62);fill-rule:nonzero;"/>
                    </g>
                    <g>
                        <path d="M50.8,42.9C55.1,39.9 62.9,39.5 64.8,39.6L64.7,37.8C62.6,37.7 55.3,38.5 50.3,42.2L50.8,42.9Z" style="fill:rgb(153,57,62);fill-rule:nonzero;"/>
                    </g>
                    <g>
                        <path d="M68.9,73.3L68.7,72.7C68.4,72.8 61.4,74.6 54.7,67.3L53.7,68.2C59.8,74.7 65.6,74.3 68.9,73.3Z" style="fill:rgb(234,123,89);fill-rule:nonzero;"/>
                    </g>
                    <path d="M60.3,75.7C60.4,75.3 61.3,75.6 62.5,75.9C63.7,76.2 64.8,76.3 64.7,76.7C64.6,77.1 63.6,77.2 62.3,76.9C61.1,76.7 60.2,76.1 60.3,75.7Z" style="fill:rgb(234,123,89);fill-rule:nonzero;"/>
                    <g>
                        <path d="M60.3,53.1C61.2,52.2 60,48.5 56.6,47.3C53.3,46.1 51.4,48.2 51.2,49.1C51.1,50 51.4,51.7 53.3,52.6C55.2,53.5 56.8,53.4 57.8,53.4C59,53.4 59.8,53.7 60.3,53.1Z" style="fill:white;fill-rule:nonzero;"/>
                        <circle cx="56.4" cy="49.5" r="3" style="fill:rgb(57,23,11);"/>
                        <circle cx="55.3" cy="48.9" r="1.2" style="fill:white;"/>
                        <path d="M60.6,52.4C60.6,52.4 61.1,50.7 59.2,48.3C57.2,45.9 54.5,46.3 53.7,46.1C52.9,45.9 52.1,46.1 52.4,46.3C52.6,46.5 51.9,47.1 51.3,46.9C50.7,46.7 51.3,47.4 51.2,47.6C51.2,47.8 50.1,47.7 50,47.9C49.9,48.1 50.6,48.7 50.4,48.7C50.2,48.7 49.6,49.2 49.9,49.4C50.2,49.6 50.7,50.3 50.9,50.6C51.1,50.9 51.8,51.2 51.8,51.2C51.8,51.2 51.1,49.7 51.6,48.8C52.1,47.8 53.3,46.8 55.3,47.2C57.2,47.5 58.4,48.5 59.2,49.3C59.9,50.2 60.6,52.4 60.6,52.4Z" style="fill:rgb(57,23,11);fill-rule:nonzero;"/>
                    </g>
                    <g>
                        <path d="M71.2,52.7C70.5,51.7 72.1,48.4 75.4,47.7C78.7,47 80.2,49.3 80.2,50.1C80.2,51 79.6,52.5 77.7,53.1C75.8,53.7 74.3,53.4 73.4,53.2C72.3,53.1 71.6,53.3 71.2,52.7Z" style="fill:white;fill-rule:nonzero;"/>
                        <circle cx="75.3" cy="49.8" r="2.8" style="fill:rgb(57,23,11);"/>
                        <path d="M73.1,49.1C73.1,49.7 73.5,50.3 74.1,50.3C74.7,50.3 75.3,49.9 75.3,49.3C75.3,48.7 74.9,48.1 74.3,48.1C73.7,48.1 73.1,48.5 73.1,49.1Z" style="fill:white;fill-rule:nonzero;"/>
                        <path d="M71,51.9C71,51.9 70.7,50.2 72.9,48.3C75.1,46.3 77.6,47 78.4,47C79.1,46.9 79.9,47.2 79.6,47.4C79.4,47.6 80,48.2 80.5,48.1C81.1,48 80.5,48.6 80.5,48.8C80.5,49 81.5,49 81.5,49.2C81.6,49.4 80.9,49.8 81,49.9C81.1,50 81.7,50.4 81.4,50.6C81.1,50.8 80.5,51.4 80.3,51.6C80.1,51.9 79.4,52 79.4,52C79.4,52 80.2,50.7 79.9,49.8C79.6,48.8 78.5,47.7 76.7,47.8C74.8,47.9 73.6,48.6 72.8,49.3C71.9,50 71,51.9 71,51.9Z" style="fill:rgb(57,23,11);fill-rule:nonzero;"/>
                    </g>
                </g>
                <g transform="matrix(1,0,0,1,-1.28614,-25.2)">
                    <path d="M6.2,148.5C6.6,140.3 26.2,93.2 41.6,91.3C47,90.6 21.5,139.3 18.8,151.5C17.7,156.1 5.8,155.1 6.2,148.5Z" style="fill:rgb(242,238,221);fill-rule:nonzero;"/>
                </g>
                <g transform="matrix(1,0,0,1,-1.28614,-25.2)">
                    <path d="M8.5,148.7C9.9,123 42.4,90.9 42.4,90.9C27,91.1 5.8,140.9 5.3,149.1C5,153.8 11.6,155.3 15.6,154.1C12,154.1 8.3,152.4 8.5,148.7Z" style="fill:rgb(221,210,191);fill-rule:nonzero;"/>
                </g>
                <g transform="matrix(0.953404,-0.301695,0.301695,0.953404,-44.3775,-11.8909)">
                    <g>
                        <path d="M42.1,189.8C39.5,183.3 20.1,150.8 18.1,148.9C16,147 7.1,143.8 5.8,149C4.5,154.2 38.3,190.6 38.3,190.6L42.1,189.8Z" style="fill:rgb(255,184,130);fill-rule:nonzero;"/>
                        <path d="M14.1,157.3C14.9,154.1 18.8,154.2 22.2,155.2C20,151.7 18.5,149.3 18.1,148.9C16,146.9 6.4,143.5 5.1,148.6C3.8,153.8 38.3,190.5 38.3,190.5L39.6,190.4C27.6,176.5 13.1,161.1 14.1,157.3Z" style="fill:rgb(255,149,102);fill-rule:nonzero;"/>
                    </g>
                    <path d="M7.7,154C6.2,154.8 3.4,145.7 6,143.1C8.6,140.4 19.2,145.8 19.9,147.7C20.6,149.6 19.2,152.6 19.2,152.6C19.2,152.6 13.7,151 7.7,154Z" style="fill:rgb(77,77,77);fill-rule:nonzero;"/>
                    <path d="M19.9,147.7C19.8,147.3 19.3,146.9 18.6,146.4C18.6,147 18.4,147.6 18.1,148.1C16.9,149.9 13.8,150 11.2,148.3C8.9,146.7 7.7,144.2 8.5,142.4C7.5,142.4 6.5,142.5 6.1,143.1C3.1,146.9 6.2,154.8 7.8,154C13.8,150.9 19.4,152.6 19.4,152.6C19.4,152.6 20.6,149.6 19.9,147.7Z" style="fill:rgb(51,51,51);fill-rule:nonzero;"/>
                    <g>
                        <path d="M53.4,199.3L47.2,192.4L53.1,196C53.8,196.4 54.3,195.9 54.4,195.7L51.6,193.5L50.7,192.8C49.9,192.1 49.1,191.5 48.3,191L47.1,190L38.8,187.5L38,188.4L37.6,190C37.6,190 39.1,192.6 41.5,194.4C43,197.3 44.9,199.5 44.9,199.5C46.2,200.6 46.1,199.3 46.1,199.3C44.9,198.2 43.8,195.9 43.6,195.5C43.5,195.2 43.4,195 43.3,194.7L43.5,194.6L49.4,201.2C50.3,202 50.6,200.7 50.6,200.7L46.5,195.3L45.7,194L46.2,193.9L46.2,193.8L46.3,193.9L52.1,200.2C53.2,201.2 54.3,200.1 54.3,200.1L53.4,199.3Z" style="fill:rgb(255,184,130);fill-rule:nonzero;"/>
                    </g>
                </g>
                <g transform="matrix(0.920144,0.391581,-0.391581,0.920144,69.4708,-56.5766)">
                    <path d="M81.5,193.1C83,188 100.9,153.9 102.5,152.4C104.1,150.9 112,148.6 114,152.8C116,157 83.8,193 83.8,193L81.5,193.1Z" style="fill:rgb(255,184,130);fill-rule:nonzero;"/>
                    <path d="M103.5,151.8C105.9,151.5 108.3,152 109.3,154C111,157.5 91,183.2 83.1,193L83.8,192.9C83.8,192.9 117,156.9 115,152.6C113.2,149 106.4,150.4 103.5,151.8Z" style="fill:rgb(255,149,102);fill-rule:nonzero;"/>
                    <g>
                        <path d="M68.8,201.9L74.8,195.3L69.1,198.8C68.4,199.2 68,198.7 67.8,198.5L70.5,196.4L71.4,195.8C72.2,195.1 73,194.6 73.7,194.1L74.8,193.2L82.8,190.8L83.6,191.7L84,193.2C84,193.2 82.5,195.7 80.3,197.4C78.8,200.2 77.1,202.3 77.1,202.3C75.9,203.4 76,202.1 76,202.1C77.2,201.1 78.2,198.8 78.4,198.5C78.5,198.2 78.6,198 78.7,197.8L78.5,197.7L72.8,204.1C71.9,204.9 71.6,203.6 71.6,203.6L75.5,198.4L76.2,197.2L75.7,197.1L75.7,197L75.6,197.1L70,203.1C69,204.1 67.9,203 67.9,203L68.8,201.9Z" style="fill:rgb(255,184,130);fill-rule:nonzero;"/>
                    </g>
                </g>
            </g>
            <path d="M74.3,245.3C59.1,260.5 54.5,274.4 63.3,288L136.2,287.4C158.4,252.2 159.8,224.6 74.3,245.3Z" style="fill:rgb(81,59,62);fill-rule:nonzero;"/>
            <path d="M141.9,253.8C145.1,261.6 141.5,273 136.1,287.5L70.1,287.5C72.8,271.1 78.8,246.3 108.9,244.6C121.2,243.9 135,243.9 141.9,253.8Z" style="fill:rgb(63,44,47);fill-rule:nonzero;"/>
            <g>
                <path d="M48.1,385.9L59.1,387.3C59.1,387.3 113.4,253.5 111.6,250.4C109.8,247.3 93.5,241.5 82.8,261.4C76.9,272.4 48.1,385.9 48.1,385.9Z" style="fill:rgb(255,184,130);fill-rule:nonzero;"/>
                <path d="M82.8,261.5C93.5,241.6 109.8,247.4 111.6,250.5C111.7,250.6 111.6,250.9 111.6,251.3C110.9,250.5 110.1,250 109.1,249.7C101.3,247.3 88.9,263.6 81.4,286.1C74.7,306.4 54.5,389.2 54.5,389.2L48.1,386C48.1,385.9 76.9,272.4 82.8,261.5Z" style="fill:rgb(255,149,102);fill-rule:nonzero;"/>
            </g>
            <path d="M117,387.3L129.4,387.3C129.4,387.3 137.5,253.5 134.7,250.4C131.9,247.3 113.7,241.5 109.4,261.4C107.1,272.4 117,387.3 117,387.3Z" style="fill:rgb(255,184,130);fill-rule:nonzero;"/>
            <path d="M109.5,261.5C112.6,247.1 123,246.1 129.6,247.9C122.3,250.2 115.9,262 115.8,284.8C115.7,306.6 122.4,389.1 122.4,389.1L117.1,387.3C117,387.3 107.1,272.4 109.5,261.5Z" style="fill:rgb(255,149,102);fill-rule:nonzero;"/>
            <path d="M130.1,386.1C130.1,384.1 130,381.6 129.8,378.7L115.9,379L105.6,387.4C105.6,387.4 108.8,394.4 109.3,397.5C109.8,400.7 109.3,408.5 109.3,408.5L113,408.5C113,408.5 111.9,400 113,398.5C114.5,396.6 117.8,394.4 118.8,397.8C119.9,401.2 120.9,409 120.9,409L136,409L136,406.1C136,406.1 130.9,406.4 128.7,402.7C127.8,401.2 130.1,399 130.1,386.1Z" style="fill:rgb(26,26,26);fill-rule:nonzero;"/>
            <path d="M47.2,387.5C47.2,385.5 47.3,383 47.5,380.1L61.4,380.4L71.7,388.8C71.7,388.8 68.5,395.8 68,398.9C67.5,402.1 68,409.9 68,409.9L64.3,409.9C64.3,409.9 65.4,401.4 64.3,399.9C62.8,398 59.5,395.8 58.5,399.2C57.4,402.6 56.4,410.4 56.4,410.4L41.2,410.4L41.2,407.5C41.2,407.5 46.3,407.8 48.5,404.1C49.4,402.6 47.2,400.4 47.2,387.5Z" style="fill:rgb(26,26,26);fill-rule:nonzero;"/>
            <path d="M49.3,378.4L131.8,378.2L132.2,379.7L48.1,379.8L49.3,378.4Z" style="fill:rgb(253,194,128);fill-rule:nonzero;"/>
            <path d="M49.3,375.7L131.8,375.6L132.2,377.1L48.1,377.2L49.3,375.7Z" style="fill:rgb(253,194,128);fill-rule:nonzero;"/>
        </g>
        <g id="sebastian-btn" class="x-m110" data-content="m1/m1_10b" transform="matrix(1,0,0,1,223.216,-18)">
            <g>
                <path d="M110.1,278.8L110.9,239.2L117.8,231.7L117.5,285L110.1,278.8Z" style="fill:rgb(77,77,77);fill-rule:nonzero;"/>
                <path d="M107.8,292.2L108.5,274.4L119,270.1L119.3,293.9L107.8,292.2Z" style="fill:rgb(77,77,77);fill-rule:nonzero;"/>
                <rect x="45.1" y="314.7" width="14.7" height="106.7" style="fill:rgb(102,102,102);"/>
                <rect x="166.1" y="314.7" width="14.7" height="106.7" style="fill:rgb(102,102,102);"/>
                <rect x="121.1" y="320.7" width="14" height="85.7" style="fill:rgb(102,102,102);"/>
                <rect x="87.8" y="320.7" width="13.3" height="85.7" style="fill:rgb(77,77,77);"/>
                <path d="M176.3,311.1C176.3,299 165,298.4 114.3,298.4C63.7,298.4 52.3,298.9 52.3,311.1C52.3,323.2 63.6,323.8 114.3,323.8C165,323.8 176.3,323.3 176.3,311.1Z" style="fill:rgb(77,77,77);fill-rule:nonzero;"/>
                <path d="M112.5,251.1C52.2,251.1 40.6,256 48.2,168.6C52.8,115.2 62.6,100.1 122.8,100.1C183.1,100.1 187.2,129.2 187.1,168.6C186.8,256.3 172.8,251.1 112.5,251.1Z" style="fill:rgb(179,179,179);fill-rule:nonzero;"/>
                <path d="M33.7,304C33.7,292.7 42.2,291 111.1,291C180,291 188.5,292.7 188.5,304C188.5,315.3 180,317 111.1,317C42.2,317 33.7,315.3 33.7,304Z" style="fill:rgb(179,179,179);fill-rule:nonzero;"/>
                <path d="M176.1,304C176.1,299.2 174.5,296.2 167.5,294.2C169.2,293.7 171.3,293.3 173.7,293C186.1,294.8 188.5,298.1 188.5,304C188.5,310 186.1,313.2 173.7,315C171.3,314.6 169.2,314.2 167.5,313.8C174.6,311.8 176.1,308.8 176.1,304Z" style="fill:rgb(128,128,128);fill-rule:nonzero;"/>
                <path d="M48.4,293C50.8,293.3 52.7,293.7 54.4,294.2C47.2,296.1 45.6,299.2 45.6,304C45.6,308.8 47.2,311.9 54.4,313.8C52.7,314.3 50.7,314.6 48.4,315C36,313.2 33.6,309.9 33.6,304C33.7,298 36.1,294.7 48.4,293Z" style="fill:rgb(128,128,128);fill-rule:nonzero;"/>
                <path d="M49.3,167.1C52,135.1 57.8,113.3 84.5,105.6C165.4,114 182.8,164.1 179.4,216.1C170.8,246 153.1,251 112.5,251C52.2,251.1 41.9,254.5 49.3,167.1Z" style="fill:rgb(128,128,128);fill-rule:nonzero;"/>
                <g>
                    <path d="M85.5,291.1L88.7,291.1C88.1,294.8 87.9,299.1 87.9,304C87.9,308.9 88.1,313.2 88.7,316.9L85.5,316.9C84.9,313.2 84.7,308.9 84.7,304C84.8,299.1 85,294.8 85.5,291.1Z" style="fill:rgb(128,128,128);fill-rule:nonzero;"/>
                    <path d="M106,291L109.2,291C108.7,294.8 108.5,299.1 108.5,304C108.5,308.9 108.7,313.2 109.2,317L106,317C105.5,313.2 105.3,308.9 105.3,304C105.4,299.1 105.6,294.8 106,291Z" style="fill:rgb(128,128,128);fill-rule:nonzero;"/>
                    <path d="M130.8,291L134,291C133.6,294.8 133.4,299.1 133.4,303.9C133.4,308.8 133.6,313 134,316.8L130.8,316.8C130.4,313 130.2,308.7 130.2,303.9C130.2,299.1 130.3,294.8 130.8,291Z" style="fill:rgb(128,128,128);fill-rule:nonzero;"/>
                </g>
                <g transform="matrix(-1,-4.48549e-11,4.48549e-11,-1,230.194,533.996)">
                    <rect x="104.1" y="254.6" width="21.9" height="24.9" style="fill:rgb(77,77,77);"/>
                </g>
            </g>
            <g>
                <g>
                    <path d="M47.1,224.2C47.2,220 56.3,208.4 58.4,197.2C63.9,167.9 66.7,125.7 59.1,131.6C48.6,139.8 6.6,217.9 6.5,251.1L76.9,256.4L76.2,222.2L47.1,224.2Z" style="fill:rgb(81,59,62);fill-rule:nonzero;"/>
                    <path d="M59.2,131.7C59.4,131.6 59.5,131.5 59.6,131.4C43.8,153.9 5.6,238.8 10.8,247C16.1,255.2 76.7,248.7 76.7,248.7L76.9,256.4C76.9,256.4 8.4,261.5 3.8,251.1C-0.8,240.7 48.6,139.9 59.2,131.7Z" style="fill:rgb(66,46,49);fill-rule:nonzero;"/>
                    <path d="M42.7,226.6C42.7,226.6 55.4,201.1 61.8,174.5C60.9,182.2 59.6,197 58.3,204.1C55.2,213.3 52,219.5 50.4,223.2L56,224L42.7,226.6Z" style="fill:rgb(66,46,49);fill-rule:nonzero;"/>
                </g>
                <g>
                    <path d="M169.7,224.4C170.2,219.7 160,205.1 155.8,189.7C148.7,164 165,133.3 171.1,138.8C180.1,146.8 211.6,211 207.3,243.6L130,256.1L126.9,231.3L169.7,224.4Z" style="fill:rgb(81,59,62);fill-rule:nonzero;"/>
                    <path d="M202.1,239.8C210,234 180.2,162.2 171.8,139.6C186.2,151.3 217.8,242.4 209.4,247C201,251.6 130,256.1 130,256.1L129.2,248.9C129.2,248.9 194.2,245.5 202.1,239.8Z" style="fill:rgb(66,46,49);fill-rule:nonzero;"/>
                </g>
                <path d="M133.5,96.3C158.3,74 173,47.3 169.6,40.8C166.2,34.3 160,33.3 160,33.3C160,33.3 168.2,27.5 155.6,18.2C143,8.9 105.3,-2 90.3,11.3C75.2,24.6 87.2,80.1 87.2,80.1L133.5,96.3Z" style="fill:rgb(153,57,62);fill-rule:nonzero;"/>
                <path d="M117.6,21.6C141,21.6 153.5,31.2 153.5,19.9C153.5,18.7 153.2,17.5 152.8,16.4C153.8,17 154.7,17.6 155.5,18.2C168.2,27.4 159.9,33.3 159.9,33.3C159.9,33.3 166.1,34.3 169.5,40.8C172.9,47.3 158.2,74 133.4,96.3L87.2,80.1C87.2,80.1 81.9,55.5 82.8,35.1C90.3,38.4 106.7,21.6 117.6,21.6Z" style="fill:rgb(132,42,51);fill-rule:nonzero;"/>
                <path d="M162.3,284.4C167.3,254.3 172.9,144.3 171.1,138.8C169.3,133.3 125.3,111 115.7,112.8C106.1,114.6 63.7,125.1 58.2,132.9C52.7,140.7 62.8,286.3 62.8,286.3L162.3,284.4Z" style="fill:rgb(81,59,62);fill-rule:nonzero;"/>
                <g>
                    <path d="M58.4,165C61.4,208.6 66.4,282.9 108.1,282.9C170.9,282.9 150.8,194.2 168.4,154.3C166.8,179.2 170.9,271.9 167.5,281.4C164.1,291 61.1,293.7 59,282.8C57,271.9 55.6,214.3 55.6,175.2C55.6,153.5 57.5,151.8 58.4,165Z" style="fill:rgb(66,46,49);fill-rule:nonzero;"/>
                </g>
                <path d="M81.9,121.7C95.4,117.4 110,112 115.2,111C119.8,110.1 132.5,116.6 144.4,122.2L105.2,214.6L81.9,121.7Z" style="fill:rgb(242,238,221);fill-rule:nonzero;"/>
                <path d="M105.4,131.7L102.2,135.1L89.4,119.2L93.7,117.1L109.9,125L134.8,117.2L138.8,119.7L117.4,135.4L115,132.3L113.7,134.2L114.7,192.2L110.9,201.5L100.5,196.4L99.1,190.1L106.9,134L105.4,131.7Z" style="fill:rgb(226,218,186);fill-rule:nonzero;"/>
                <path d="M132.9,91.4L134.1,117.4L112.7,122.9L93,117.8L96.6,88L132.9,91.4Z" style="fill:rgb(255,184,130);fill-rule:nonzero;"/>
                <path d="M105,220.1L113.4,195.9L112.7,122.9L109.8,122.6L100,195.4L105,220.1Z" style="fill:rgb(232,77,96);fill-rule:nonzero;"/>
                <path d="M110,136.8L115.8,129L114.3,122.1L108.1,121.3L105.2,129L110,136.8Z" style="fill:rgb(232,77,96);fill-rule:nonzero;"/>
                <path d="M117.4,135.1L112.2,121.8L134.3,113.3L137,118L117.4,135.1Z" style="fill:rgb(242,238,221);fill-rule:nonzero;"/>
                <path d="M102.2,135.1L110.2,121.2L93.1,115.1L90.8,118L102.2,135.1Z" style="fill:rgb(242,238,221);fill-rule:nonzero;"/>
                <path d="M144.9,39.2C139.1,75.1 132.9,99.5 130,104.5C120.8,119.9 86.9,114.1 86.9,114.1C86.9,114.1 66.6,49.2 100.9,27.5C128.8,9.7 144.9,39.2 144.9,39.2Z" style="fill:rgb(255,184,130);fill-rule:nonzero;"/>
                <path d="M153.2,38.4C148.6,23.6 132.7,20.3 129.2,45.6C125.8,70.9 126.1,86.7 126.1,86.7L135,86.7C135.1,86.6 156,47.3 153.2,38.4Z" style="fill:rgb(132,42,51);fill-rule:nonzero;"/>
                <g>
                    <path d="M102.1,49.6C99.4,63.6 95.6,82.2 95.6,84.9C95.6,87.6 103.8,90.8 105.3,89.9C106.8,89 103.6,49.6 103.6,49.6L102.1,49.6Z" style="fill:rgb(234,123,89);fill-rule:nonzero;"/>
                    <path d="M103.6,48.2C100.9,62.2 97.1,80.8 97.1,83.5C97.1,86.2 105.3,89.4 106.8,88.5C108.3,87.6 105.1,48.2 105.1,48.2L103.6,48.2Z" style="fill:rgb(255,184,130);fill-rule:nonzero;"/>
                    <g>
                        <path d="M92.2,103.4L91,102C93.9,96.4 102.9,93.2 119.2,92.1L119.2,92.8C103.6,93.9 94.9,98.3 92.2,103.4Z" style="fill:rgb(234,123,89);fill-rule:nonzero;"/>
                    </g>
                    <path d="M99.5,104.9C99.5,105.4 100.9,106.3 103,106.4C105.1,106.5 107.1,105.6 107.1,105.2C107.1,104.7 105.1,105.2 103,105.1C100.9,105 99.5,104.4 99.5,104.9Z" style="fill:rgb(234,123,89);fill-rule:nonzero;"/>
                    <g>
                        <path d="M95.1,64.5C95.2,60.8 94.6,56.4 89,54.9C83.3,53.4 80.7,58.5 80.7,60.3C80.8,62.1 82.3,64.9 85.5,65.3C88.6,65.6 91.4,65.4 92.6,65.5C93.8,65.8 95.1,65.3 95.1,64.5Z" style="fill:white;fill-rule:nonzero;"/>
                        <circle cx="88.5" cy="60.1" r="4.7" style="fill:rgb(57,23,11);"/>
                        <path d="M92.5,58.4C92.4,59.6 91.5,60.5 90.3,60.4C89.1,60.3 88.2,59.4 88.3,58.2C88.4,57 89.3,56.1 90.5,56.2C91.6,56.2 92.6,57.2 92.5,58.4Z" style="fill:white;fill-rule:nonzero;"/>
                        <path d="M109.7,65C109.9,61.3 110.6,57 116.4,55.8C122.1,54.6 124.5,59.9 124.3,61.8C124.1,63.7 122.4,66.3 119.2,66.5C116,66.7 113.3,66.1 112.1,66.3C111,66.3 109.7,65.8 109.7,65Z" style="fill:white;fill-rule:nonzero;"/>
                        <path d="M112.2,60.5C112.2,63.1 114.1,65.3 116.7,65.3C119.3,65.3 121.5,63.4 121.5,60.8C121.5,58.2 119.6,56 117,56C114.4,55.8 112.3,57.9 112.2,60.5Z" style="fill:rgb(57,23,11);fill-rule:nonzero;"/>
                        <path d="M116.5,58.8C116.4,60 117.4,61 118.5,61C119.7,61.1 120.7,60.1 120.7,59C120.8,57.8 119.8,56.8 118.7,56.8C117.6,56.7 116.6,57.6 116.5,58.8Z" style="fill:white;fill-rule:nonzero;"/>
                    </g>
                    <path d="M101.5,44.1C102.2,45.2 101.9,54.4 101.3,55.2C100.7,56 85,56 84.1,55.2C83.2,54.5 83.3,45 83.8,43.8C84.3,42.7 100.7,43 101.5,44.1Z" style="fill:rgb(153,57,62);fill-rule:nonzero;"/>
                    <path d="M127.2,45.9C128.1,47 127.7,56.2 127,57C126.3,57.8 106.3,56.6 105.2,55.8C104.1,55 104.2,45.6 104.8,44.4C105.4,43.2 126.2,44.7 127.2,45.9Z" style="fill:rgb(153,57,62);fill-rule:nonzero;"/>
                </g>
                <path d="M78.7,50.6C78.7,50.6 87.7,51.9 103.2,53.1C124.2,54.7 160.1,65.7 160.1,65.7L158.7,68.5C158.7,68.5 114.6,64.4 100.5,68.1C92.8,70.1 78.8,67.1 78.8,67.1L78.8,50.6L78.7,50.6Z" style="fill:white;fill-rule:nonzero;"/>
                <g>
                    <path d="M132.2,73C137.7,64.3 148.6,64 149,71.9C149.3,79.8 134.1,92.8 131.2,88.7C128.1,84.5 130.3,76 132.2,73Z" style="fill:rgb(255,184,130);fill-rule:nonzero;"/>
                    <path d="M134.8,74.7C138.2,69.3 145.1,69.1 145.3,74C145.5,78.9 136,87.1 134.2,84.5C132.3,81.9 133.6,76.6 134.8,74.7Z" style="fill:rgb(234,123,89);fill-rule:nonzero;"/>
                    <path d="M133.9,78C136.3,74.2 141.1,74 141.2,77.5C141.3,81 134.7,86.7 133.4,84.9C132.1,83.1 133,79.3 133.9,78Z" style="fill:rgb(255,184,130);fill-rule:nonzero;"/>
                </g>
            </g>
            <g>
                <path d="M150.3,247.8L75.7,247.8C58.4,247.8 42.9,260.4 44.3,278L44.3,279.4C44.3,294.7 59.5,307.1 78.1,307.1L152.4,307.1C171.8,307.1 187.6,294.2 187.6,278.3C187.6,261.5 170.9,247.8 150.3,247.8Z" style="fill:rgb(66,45,49);fill-rule:nonzero;"/>
                <path d="M48.4,281.7C48.9,293.7 72.6,416.1 72.6,416.1L94.1,415.5C94.1,415.5 114,281 98.1,263.1C77.3,239.5 47,246.4 48.4,281.7Z" style="fill:rgb(81,59,62);fill-rule:nonzero;"/>
                <path d="M92.5,271.2C98.6,307.8 89.8,415.4 89.8,415.4L94,415.4C94,415.4 112.6,278.8 100.8,264.4C94.6,256.8 89.1,254.5 89.1,254.5C89.1,254.5 91.1,263 92.5,271.2Z" style="fill:rgb(66,45,49);fill-rule:nonzero;"/>
                <path d="M176.6,285C173.8,296.7 155.6,416 155.6,416L135.7,415.4C135.7,415.4 101.1,282.3 125.6,258.8C157.3,228.5 181.5,264.8 176.6,285Z" style="fill:rgb(81,59,62);fill-rule:nonzero;"/>
                <path d="M120.1,268.5C107.7,304.3 135.7,415.4 135.7,415.4L138.5,415.4C138.5,415.4 122.7,301.1 129.7,271.2C131.4,263.7 132.5,253.3 132.5,253.3C132.5,253.3 124.4,256.1 120.1,268.5Z" style="fill:rgb(66,45,49);fill-rule:nonzero;"/>
            </g>
            <path d="M134.1,406.8L131.1,428.4L190.5,427.4C190.5,427.4 191.5,419.5 182.6,417.5C174.1,415.6 156.7,405.7 156.7,405.7L134.1,406.8Z" style="fill:rgb(51,51,51);fill-rule:nonzero;"/>
            <path d="M94.5,406.8L97.5,428.4L38.1,427.4C38.1,427.4 37.1,419.5 46,417.5C54.5,415.6 71.9,405.7 71.9,405.7L94.5,406.8Z" style="fill:rgb(51,51,51);fill-rule:nonzero;"/>
            <path d="M67.7,404.9L160.1,404.7L160.5,406.3L66.3,406.4L67.7,404.9Z" style="fill:rgb(253,194,128);fill-rule:nonzero;"/>
            <path d="M67.7,402.1L160.1,401.9L160.5,403.6L66.3,403.6L67.7,402.1Z" style="fill:rgb(253,194,128);fill-rule:nonzero;"/>
        </g>
        <g id="emilia-btn" class="x-m110" data-content="m1/m1_10a" transform="matrix(1,0,0,1,51.2861,0)">
            <g>
                <path d="M89.3,269.1L90,230.5L96.7,223.2L96.5,275.1L89.3,269.1Z" style="fill:rgb(77,77,77);fill-rule:nonzero;"/>
                <path d="M87,282.2L87.7,264.9L97.9,260.6L98.2,283.8L87,282.2Z" style="fill:rgb(77,77,77);fill-rule:nonzero;"/>
                <rect x="25.9" y="304.1" width="14.4" height="104" style="fill:rgb(102,102,102);"/>
                <rect x="143.9" y="304.1" width="14.4" height="104" style="fill:rgb(102,102,102);"/>
                <rect x="100" y="309.9" width="13.6" height="83.5" style="fill:rgb(102,102,102);"/>
                <rect x="67.5" y="309.9" width="13" height="83.5" style="fill:rgb(102,102,102);"/>
                <path d="M153.8,300.6C153.8,288.8 142.8,288.3 93.4,288.3C44.1,288.3 33,288.8 33,300.6C33,312.4 44,312.9 93.4,312.9C142.7,313 153.8,312.5 153.8,300.6Z" style="fill:rgb(77,77,77);fill-rule:nonzero;"/>
                <path d="M90.9,242.1C32.7,242.1 21.6,246.9 28.9,161.7C33.4,109.6 42.7,94.9 100.9,94.9C159,94.9 163.1,123.3 162.9,161.7C162.5,247.2 149,242.1 90.9,242.1Z" style="fill:rgb(179,179,179);fill-rule:nonzero;"/>
                <path d="M14.7,293.7C14.7,282.7 23,281 90.2,281C157.4,281 165.7,282.7 165.7,293.7C165.7,304.7 157.4,306.4 90.2,306.4C23.1,306.3 14.7,304.7 14.7,293.7Z" style="fill:rgb(179,179,179);fill-rule:nonzero;"/>
                <path d="M153.6,293.7C153.6,289 152.1,286.1 145.3,284.2C147,283.7 149,283.3 151.4,283C163.4,284.7 165.8,287.9 165.8,293.7C165.8,299.5 163.4,302.7 151.4,304.4C149,304.1 147,303.7 145.3,303.2C152.1,301.3 153.6,298.3 153.6,293.7Z" style="fill:rgb(128,128,128);fill-rule:nonzero;"/>
                <path d="M29.1,282.9C31.4,283.2 33.3,283.6 35,284.1C28,286 26.5,289 26.5,293.7C26.5,298.4 28,301.4 35,303.3C33.4,303.7 31.4,304.1 29.1,304.5C17.1,302.8 14.7,299.6 14.7,293.8C14.7,287.8 17.1,284.6 29.1,282.9Z" style="fill:rgb(128,128,128);fill-rule:nonzero;"/>
                <path d="M29.9,160.3C32.5,129.1 38.1,107.9 63.9,100.4C142,108.6 158.7,157.4 155.4,208.1C147.1,237.3 130,242.1 90.9,242.1C32.7,242.1 22.8,245.5 29.9,160.3Z" style="fill:rgb(128,128,128);fill-rule:nonzero;"/>
                <g>
                    <path d="M65.3,281.1L68.4,281.1C67.9,284.7 67.7,288.9 67.7,293.7C67.7,298.5 67.9,302.7 68.4,306.3L65.3,306.3C64.8,302.7 64.6,298.5 64.6,293.7C64.6,288.9 64.8,284.7 65.3,281.1Z" style="fill:rgb(128,128,128);fill-rule:nonzero;"/>
                    <path d="M85.3,281L88.4,281C87.9,284.7 87.7,288.9 87.7,293.7C87.7,298.5 87.9,302.7 88.4,306.4L85.3,306.4C84.8,302.7 84.6,298.5 84.6,293.7C84.6,288.9 84.8,284.7 85.3,281Z" style="fill:rgb(128,128,128);fill-rule:nonzero;"/>
                    <path d="M109.4,281L112.5,281C112.1,284.7 111.9,288.9 111.9,293.6C111.9,298.3 112.1,302.5 112.5,306.2L109.4,306.2C109,302.5 108.8,298.3 108.8,293.6C108.8,288.9 109,284.7 109.4,281Z" style="fill:rgb(128,128,128);fill-rule:nonzero;"/>
                </g>
                <g transform="matrix(-1,-4.48327e-11,4.48327e-11,-1,188.232,515.217)">
                    <rect x="83.4" y="245.5" width="21.4" height="24.3" style="fill:rgb(77,77,77);"/>
                </g>
            </g>
            <path d="M49.7,161.4L122.5,139.8C122.5,139.8 159.3,36.8 113.6,22.4C102.2,4.2 44.2,3.9 36.3,48.2C28.4,92.5 49.7,161.4 49.7,161.4Z" style="fill:rgb(153,57,62);fill-rule:nonzero;"/>
            <path d="M85.3,57.7C69,46.6 59.3,30.5 59.1,16.8C48.1,22.5 39,32.5 36.2,48.2C28.3,92.5 50.3,168.3 50.3,168.3L123.1,146.7C123.1,146.7 136.5,98.1 136.5,67.3C123.7,72.9 102.2,69.2 85.3,57.7Z" style="fill:rgb(137,44,53);fill-rule:nonzero;"/>
            <path d="M93.4,76.2C75.3,76.2 67.6,129.2 51,168.5L116,150.7C114,124.4 109.8,76.2 93.4,76.2Z" style="fill:rgb(117,35,47);fill-rule:nonzero;"/>
            <g>
                <path d="M166.8,204.4C164.2,192 122.5,125.7 106.5,125C99,124.6 142.7,192.6 149.3,210.6C151.7,217.3 168.8,214.3 166.8,204.4Z" style="fill:rgb(242,238,221);fill-rule:nonzero;"/>
                <path d="M157.8,205.4C152.7,191.4 109.6,125.1 106.5,125C99,124.6 142.7,192.6 149.3,210.6C150.9,215 158.8,215.3 163.5,212.1C161.4,211.5 158.4,207.1 157.8,205.4Z" style="fill:rgb(221,210,191);fill-rule:nonzero;"/>
                <path d="M162.6,217.2C164.9,217.1 172.2,213.7 172.2,208.7C172.2,203.7 162.9,194.6 154.2,199C151.1,200.6 144.9,204.8 145.2,205.1C145.3,205.1 150.5,217.7 162.6,217.2Z" style="fill:rgb(77,77,77);fill-rule:nonzero;"/>
                <path d="M169.5,203.1C169.5,203.5 169.4,204.2 169,204.7C167,206.8 163.9,208 159.5,206.5C155.2,205 152.4,201.8 153.2,199.3C149.8,200.8 145,204.8 145.3,205C145.3,205 150.6,217.6 162.7,217.1C165,217 172.3,213.6 172.3,208.6C172.2,207.1 171.4,204.7 169.5,203.1Z" style="fill:rgb(51,51,51);fill-rule:nonzero;"/>
            </g>
            <g>
                <path d="M107.7,243.5C112.1,237.9 151.2,204.5 154.1,203.5C156.9,202.5 167.8,203.4 168.2,209.7C168.6,215.9 110.8,244.5 110.8,244.5L107.7,243.5Z" style="fill:rgb(255,184,130);fill-rule:nonzero;"/>
                <path d="M155.6,203.2C158.7,204.1 161.4,205.8 161.6,208.8C162,213.9 124.4,235.9 109.7,244.2L110.6,244.5C110.6,244.5 169.7,216.3 169.3,210.1C169,204.6 159.8,202.9 155.6,203.2Z" style="fill:rgb(255,149,102);fill-rule:nonzero;"/>
                <g>
                    <path d="M87.6,248.1L98.3,242.9L89.5,244.4C88.4,244.5 88.1,243.7 88.1,243.4L92.5,242.1L93.9,241.8C95.2,241.4 96.5,241.1 97.6,240.8L99.5,240.2L110.6,241.2L111.1,242.6L110.8,244.7C110.8,244.7 107.8,247 104.1,248.1C100.9,250.9 97.7,252.6 97.7,252.6C95.7,253.3 96.4,251.8 96.4,251.8C98.4,251.1 100.8,248.9 101.1,248.5C101.4,248.2 101.6,248 101.8,247.7L101.5,247.5L91.3,252.6C89.8,253.1 90.1,251.4 90.1,251.4L97.6,246.9L99.1,245.7L98.6,245.3L98.7,245.2L98.5,245.3L88.6,250C86.8,250.7 86.1,248.8 86.1,248.8L87.6,248.1Z" style="fill:rgb(255,184,130);fill-rule:nonzero;"/>
                </g>
            </g>
            <g>
                <path d="M87.5,245.4C81.5,238.3 43.2,205.3 39.8,203.7C36.4,202.1 23.8,201.9 24.3,209C24.8,216.1 83.1,248 83.1,248L87.5,245.4Z" style="fill:rgb(255,184,130);fill-rule:nonzero;"/>
                <path d="M38.3,216C38,211.6 43,210.1 47.7,209.9C43.5,206.4 40.6,204 39.8,203.7C36.4,202.1 22.7,201.7 23.2,208.9C23.8,216 83.1,248 83.1,248L84.7,247.3C63.6,234.6 38.7,221.2 38.3,216Z" style="fill:rgb(255,149,102);fill-rule:nonzero;"/>
            </g>
            <path d="M75.6,250.7C82.1,223.5 57,142 63.3,130.2C63.3,130.2 121.6,154.1 121.5,169.9C121.2,200.9 118.1,237.9 120.8,253.4L75.6,250.7Z" style="fill:rgb(221,210,191);fill-rule:nonzero;"/>
            <path d="M62.7,131.3C62,143 70,191.7 74.1,195.2C83.8,203.5 121.5,200.7 127,190.5C131.5,182.1 111.5,128.6 108.8,126.2C106,123.7 63.1,125.4 62.7,131.3Z" style="fill:rgb(242,238,221);fill-rule:nonzero;"/>
            <path d="M84.5,189C80.3,185.7 62.8,129.8 62.7,131.3C62,143 69.4,188.4 74.1,194.5C81.2,203.9 130.4,201.4 127,187C112.7,192.5 92.5,195.3 84.5,189Z" style="fill:rgb(221,210,191);fill-rule:nonzero;"/>
            <path d="M70.6,127.5C73.7,141.2 78.9,174.6 101.5,174.3C124.2,174 102.2,124.9 102.2,124.9C89.5,123.8 78.8,124.2 70.6,127.5Z" style="fill:rgb(255,184,130);fill-rule:nonzero;"/>
            <path d="M102.2,124.9C101.9,124.9 101.7,124.9 101.4,124.8C105.4,133.7 120.9,172.6 100.1,172.9C94.9,173 90.3,170.6 86.3,166.7C90.7,171.4 95.8,174.4 101.5,174.3C124.2,173.9 102.2,124.9 102.2,124.9Z" style="fill:rgb(255,149,102);fill-rule:nonzero;"/>
            <path d="M73,88.7L75.8,126.1L87.4,134.4L96.7,125.7L88.2,90.5L73,88.7Z" style="fill:rgb(255,184,130);fill-rule:nonzero;"/>
            <path d="M69.6,90.2C71.9,107.2 103.1,121.8 103.1,121.8C103.1,121.8 121.8,100.1 122.2,74.7C122.5,56.2 119.2,38.8 96.9,39.4C78.4,40.1 65.5,59.6 69.6,90.2Z" style="fill:rgb(255,184,130);fill-rule:nonzero;"/>
            <path d="M73,89.9C80.3,74.3 91.6,39.3 77.9,28.5C68.3,20.9 58.9,53 64.2,73.8C66.3,81.9 73,89.9 73,89.9Z" style="fill:rgb(137,44,53);fill-rule:nonzero;"/>
            <path d="M82.7,33.6C80.1,26 74.3,21.2 69.7,22.8C65.1,24.4 63.5,31.8 66.2,39.3C68.8,46.9 74.6,51.7 79.2,50.1C83.7,48.5 85.3,41.1 82.7,33.6Z" style="fill:rgb(153,57,62);fill-rule:nonzero;"/>
            <g>
                <path d="M104.5,84.8C106.7,88.1 108.5,92.8 107.4,94C106.3,95.1 100.6,95 100.2,94.7C99.7,94.3 104.5,84.8 104.5,84.8Z" style="fill:rgb(234,123,89);fill-rule:nonzero;"/>
                <path d="M102.9,84C105.1,87.3 106.9,92 105.8,93.2C104.7,94.3 99,94.2 98.6,93.9C98.1,93.5 102.9,84 102.9,84Z" style="fill:rgb(255,184,130);fill-rule:nonzero;"/>
                <g>
                    <path d="M123.4,69.3L123.9,68.5C120.8,63.4 113.7,61 110.3,61L109.9,63.4C112.6,63 119.8,65 123.4,69.3Z" style="fill:rgb(153,57,62);fill-rule:nonzero;"/>
                </g>
                <g>
                    <path d="M79.3,69.8C84.2,64.8 94.4,62.4 96.9,62.1L96.3,59.7C93.5,60 84.1,62.9 78.5,69L79.3,69.8Z" style="fill:rgb(153,57,62);fill-rule:nonzero;"/>
                </g>
                <g>
                    <path d="M85.6,99.4L86,100.2C86.4,100 95.4,96.6 105.3,105.3L106.5,104C97.5,96.3 89.8,97.7 85.6,99.4Z" style="fill:rgb(234,123,89);fill-rule:nonzero;"/>
                </g>
                <path d="M95.1,106.9C95.2,106.3 96.4,106.8 98,107.2C99.6,107.6 101.1,107.8 100.9,108.3C100.8,108.9 99.4,109 97.7,108.6C96.2,108.2 95,107.4 95.1,106.9Z" style="fill:rgb(234,123,89);fill-rule:nonzero;"/>
                <g>
                    <path d="M95.1,76.8C96.3,75.5 94.6,70.7 90.2,69C85.7,67.3 83.2,70.2 83,71.5C82.8,72.7 83.3,74.9 85.9,76.2C88.5,77.5 90.6,77.3 91.9,77.2C93.4,77.1 94.4,77.5 95.1,76.8Z" style="fill:white;fill-rule:nonzero;"/>
                    <circle cx="89.9" cy="71.9" r="4" style="fill:rgb(57,23,11);"/>
                    <circle cx="88.5" cy="71.1" r="1.6" style="fill:white;"/>
                    <path d="M95.5,75.7C95.5,75.7 96.2,73.4 93.6,70.3C91,67.1 87.3,67.6 86.2,67.4C85.2,67.2 84.1,67.4 84.4,67.7C84.7,68 83.7,68.7 82.9,68.5C82.1,68.3 82.9,69.2 82.8,69.5C82.8,69.8 81.4,69.6 81.3,69.9C81.2,70.2 82,70.9 81.8,71C81.6,71.1 80.8,71.6 81.1,71.9C81.5,72.2 82.2,73.2 82.5,73.6C82.8,74 83.6,74.4 83.6,74.4C83.6,74.4 82.7,72.5 83.4,71.2C84.1,69.9 85.7,68.6 88.3,69C90.9,69.4 92.4,70.8 93.5,71.9C94.6,72.8 95.5,75.7 95.5,75.7Z" style="fill:rgb(57,23,11);fill-rule:nonzero;"/>
                </g>
                <g>
                    <path d="M109.6,76.2C108.7,74.9 110.8,70.5 115.3,69.5C119.7,68.5 121.7,71.6 121.7,72.8C121.7,74 121,76 118.4,76.8C115.8,77.6 113.8,77.2 112.7,77C111.2,76.8 110.2,77 109.6,76.2Z" style="fill:white;fill-rule:nonzero;"/>
                    <circle cx="115.1" cy="72.4" r="3.8" style="fill:rgb(57,23,11);"/>
                    <path d="M112.2,71.4C112.1,72.2 112.8,72.9 113.6,73C114.4,73.1 115.1,72.4 115.2,71.6C115.3,70.8 114.6,70.1 113.8,70C113,70 112.3,70.6 112.2,71.4Z" style="fill:white;fill-rule:nonzero;"/>
                    <path d="M109.4,75.2C109.4,75.2 109,73 111.9,70.4C114.8,67.8 118.2,68.7 119.2,68.6C120.2,68.5 121.2,68.9 120.9,69.1C120.6,69.3 121.4,70.2 122.2,70.1C123,70 122.2,70.8 122.1,71C122.1,71.3 123.4,71.3 123.5,71.6C123.6,71.9 122.7,72.5 122.9,72.5C123.1,72.6 123.8,73.2 123.4,73.4C123,73.6 122.2,74.4 121.9,74.8C121.6,75.1 120.7,75.4 120.7,75.4C120.7,75.4 121.8,73.7 121.3,72.4C120.8,71.1 119.5,69.6 117,69.7C114.5,69.8 112.9,70.8 111.7,71.7C110.6,72.5 109.4,75.2 109.4,75.2Z" style="fill:rgb(57,23,11);fill-rule:nonzero;"/>
                </g>
            </g>
            <path d="M22.8,204.2C23.4,193.2 49.5,130.2 70.1,127.7C77.3,126.8 44.5,189.3 40.9,205.6C40.1,209.4 33.3,205.6 27.5,210.9C25.3,213 22.6,207.5 22.8,204.2Z" style="fill:rgb(242,238,221);fill-rule:nonzero;"/>
            <path d="M25.8,204.5C27.7,170.1 71.2,127.3 71.2,127.3C50.6,127.6 22.6,193.4 22,204.4C21.8,207.4 23.4,210.2 26,211.3C28.9,212.5 29.6,210.9 27.7,209.2C26.5,208 25.7,206.5 25.8,204.5Z" style="fill:rgb(221,210,191);fill-rule:nonzero;"/>
            <g>
                <path d="M28.8,214.5C27.2,216.1 19.9,205.8 22.1,201.3C24.3,196.8 40,199.2 41.7,201.3C43.4,203.4 44.8,206.8 44.8,206.8C44.8,206.8 35.1,208.1 28.8,214.5Z" style="fill:rgb(77,77,77);fill-rule:nonzero;"/>
                <path d="M41.6,201.4C41.3,201 40.5,200.6 39.4,200.2C39.7,201 39.7,201.8 39.5,202.6C38.7,205.5 34.8,206.9 30.8,205.8C27.2,204.8 24.7,202.1 24.8,199.4C23.5,199.8 22.4,200.4 22,201.3C19.8,207.3 27.1,216.1 28.7,214.5C35,208.1 44.6,206.9 44.6,206.9C44.6,206.9 43.3,203.5 41.6,201.4Z" style="fill:rgb(51,51,51);fill-rule:nonzero;"/>
            </g>
            <path d="M74.3,245.3C59.1,260.5 54.5,274.4 63.3,288L136.2,287.4C158.4,252.2 159.8,224.6 74.3,245.3Z" style="fill:rgb(81,59,62);fill-rule:nonzero;"/>
            <path d="M141.9,253.8C145.1,261.6 141.5,273 136.1,287.5L70.1,287.5C72.8,271.1 78.8,246.3 108.9,244.6C121.2,243.9 135,243.9 141.9,253.8Z" style="fill:rgb(63,44,47);fill-rule:nonzero;"/>
            <g>
                <path d="M48.1,385.9L59.1,387.3C59.1,387.3 113.4,253.5 111.6,250.4C109.8,247.3 93.5,241.5 82.8,261.4C76.9,272.4 48.1,385.9 48.1,385.9Z" style="fill:rgb(255,184,130);fill-rule:nonzero;"/>
                <path d="M82.8,261.5C93.5,241.6 109.8,247.4 111.6,250.5C111.7,250.6 111.6,250.9 111.6,251.3C110.9,250.5 110.1,250 109.1,249.7C101.3,247.3 88.9,263.6 81.4,286.1C74.7,306.4 54.5,389.2 54.5,389.2L48.1,386C48.1,385.9 76.9,272.4 82.8,261.5Z" style="fill:rgb(255,149,102);fill-rule:nonzero;"/>
            </g>
            <path d="M117,387.3L129.4,387.3C129.4,387.3 137.5,253.5 134.7,250.4C131.9,247.3 113.7,241.5 109.4,261.4C107.1,272.4 117,387.3 117,387.3Z" style="fill:rgb(255,184,130);fill-rule:nonzero;"/>
            <path d="M109.5,261.5C112.6,247.1 123,246.1 129.6,247.9C122.3,250.2 115.9,262 115.8,284.8C115.7,306.6 122.4,389.1 122.4,389.1L117.1,387.3C117,387.3 107.1,272.4 109.5,261.5Z" style="fill:rgb(255,149,102);fill-rule:nonzero;"/>
            <path d="M130.1,386.1C130.1,384.1 130,381.6 129.8,378.7L115.9,379L105.6,387.4C105.6,387.4 108.8,394.4 109.3,397.5C109.8,400.7 109.3,408.5 109.3,408.5L113,408.5C113,408.5 111.9,400 113,398.5C114.5,396.6 117.8,394.4 118.8,397.8C119.9,401.2 120.9,409 120.9,409L136,409L136,406.1C136,406.1 130.9,406.4 128.7,402.7C127.8,401.2 130.1,399 130.1,386.1Z" style="fill:rgb(26,26,26);fill-rule:nonzero;"/>
            <path d="M47.2,387.5C47.2,385.5 47.3,383 47.5,380.1L61.4,380.4L71.7,388.8C71.7,388.8 68.5,395.8 68,398.9C67.5,402.1 68,409.9 68,409.9L64.3,409.9C64.3,409.9 65.4,401.4 64.3,399.9C62.8,398 59.5,395.8 58.5,399.2C57.4,402.6 56.4,410.4 56.4,410.4L41.2,410.4L41.2,407.5C41.2,407.5 46.3,407.8 48.5,404.1C49.4,402.6 47.2,400.4 47.2,387.5Z" style="fill:rgb(26,26,26);fill-rule:nonzero;"/>
            <path d="M136.3,71.5C136.3,71.5 122,65.9 119.8,66C115.8,66.2 99.4,67.3 89.5,67.4C68.4,67.5 34.3,74.3 34.3,74.3L34.3,78.4C34.3,78.4 41.2,75.6 67.4,77C71.3,77.2 75.7,79.8 81.2,79.8C87,79.8 115.3,81.6 119.8,81.2C121.6,81 136.3,77.1 136.3,77.1L136.3,71.5Z" style="fill:white;fill-rule:nonzero;"/>
            <g>
                <path d="M70.3,77.6C64.5,73.8 57.5,72.6 57.9,79C58.4,85.4 68.4,91.6 73.5,93.9C78.5,96.1 72.3,79 70.3,77.6Z" style="fill:rgb(255,184,130);fill-rule:nonzero;"/>
                <path d="M68.9,79.7C65.7,77.6 61.9,76.9 62.1,80.5C62.4,84 67.9,87.4 70.6,88.7C73.4,89.9 70,80.4 68.9,79.7Z" style="fill:rgb(234,123,89);fill-rule:nonzero;"/>
                <path d="M70.9,83.7C68.4,82 65.3,81.5 65.5,84.3C65.7,87.1 70.1,89.8 72.3,90.8C74.5,91.9 71.8,84.3 70.9,83.7Z" style="fill:rgb(255,184,130);fill-rule:nonzero;"/>
            </g>
            <path d="M49.3,378.4L131.8,378.2L132.2,379.7L48.1,379.8L49.3,378.4Z" style="fill:rgb(253,194,128);fill-rule:nonzero;"/>
            <path d="M49.3,375.7L131.8,375.6L132.2,377.1L48.1,377.2L49.3,375.7Z" style="fill:rgb(253,194,128);fill-rule:nonzero;"/>
        </g>
    </g>
</svg>
