<?xml version="1.0" encoding="utf-8"?>
<!-- Generator: Adobe Illustrator 24.0.3, SVG Export Plug-In . SVG Version: 6.00 Build 0)  -->
<svg version="1.1" id="Layer_1" xmlns="http://www.w3.org/2000/svg" xmlns:xlink="http://www.w3.org/1999/xlink" x="0px" y="0px"
	 width="480px" height="600px" viewBox="0 0 480 600" style="enable-background:new 0 0 480 600;" xml:space="preserve">
<style type="text/css">
	.st0{fill:#F9B058;}
	.st1{opacity:0.3;}
	.st2{fill:#FFFFFF;}
	.st3{fill:none;stroke:#CCCCCC;stroke-width:4.9511;stroke-miterlimit:10;}
	.st4{fill:none;stroke:#808080;stroke-width:4.432;stroke-miterlimit:10;}
	.st5{fill:#D13C69;}
</style>
<g>
	<rect id="table_3_" x="-33.5" y="-18.2" class="st0" width="548" height="632.3"/>
	<g id="XMLID_186_" class="st1">
	</g>
</g>
<g>
	<g>
		
			<rect x="67.5" y="46" transform="matrix(0.9834 -0.1817 0.1817 0.9834 -45.7225 48.2506)" class="st2" width="346" height="455.5"/>
		<line class="st3" x1="304.6" y1="421.9" x2="405.3" y2="403.3"/>
		<g>
			<line class="st4" x1="95.3" y1="196.9" x2="356.5" y2="148.6"/>
			<line class="st4" x1="91.8" y1="178.2" x2="353.1" y2="130"/>
			<line class="st4" x1="102.2" y1="234.2" x2="363.4" y2="185.9"/>
			<line class="st4" x1="98.4" y1="213.7" x2="359.6" y2="165.4"/>
			<line class="st4" x1="105.4" y1="250.7" x2="366.7" y2="202.4"/>
			<line class="st4" x1="108.5" y1="267.4" x2="369.8" y2="219.2"/>
			<line class="st4" x1="111.4" y1="284" x2="372.6" y2="235.7"/>
			<line class="st4" x1="114.6" y1="300.5" x2="375.9" y2="252.2"/>
			<line class="st4" x1="117.7" y1="317.2" x2="379" y2="269"/>
			<polygon class="st5" points="443.2,328.8 77,401.8 69.4,347.3 432.3,277.6 			"/>
			<g>
				<path class="st2" d="M196.1,362.2l-2.9-6.7l-7.2,1.3l-0.3,7.2l-5.1,0.9l1.7-28.9l7-1.3l12,26.4L196.1,362.2z M191.5,351.2
					l-2.7-6.1c-0.2-0.4-0.5-1.3-1.1-2.8c-0.6-1.5-1-2.5-1.1-3c0,1.1,0,2.3,0,3.7c0,1.3-0.1,4.4-0.3,9.3L191.5,351.2z"/>
				<path class="st2" d="M206.8,360.2l-9.4-20l5.2-1l4.9,11.7c0.2,0.5,0.5,1.3,0.9,2.4c0.4,1.1,0.6,1.8,0.7,2.3l0.1,0
					c-0.1-0.4-0.1-0.9-0.1-1.6c0-0.7-0.1-1.4-0.1-2c0-0.6,0.1-5.3,0.4-14l5.2-1l-1.6,22L206.8,360.2z"/>
				<path class="st2" d="M215.6,331.2c-0.2-0.8,0-1.5,0.4-2.1c0.4-0.6,1-0.9,1.9-1.1c0.8-0.2,1.5,0,2.1,0.4c0.6,0.4,0.9,1,1.1,1.8
					c0.2,0.9,0,1.6-0.4,2.1c-0.4,0.6-1,0.9-1.8,1.1c-0.8,0.2-1.5,0-2.1-0.3C216.1,332.7,215.7,332.1,215.6,331.2z M225.7,356.7
					l-5,0.9l-3.9-21l5-0.9L225.7,356.7z"/>
				<path class="st2" d="M240.1,347.7c0.4,2,0.1,3.8-0.9,5.1c-1,1.4-2.7,2.3-5,2.7c-2.1,0.4-3.9,0.3-5.4-0.3l-0.8-4.4
					c0.8,0.4,1.7,0.6,2.6,0.7c1,0.1,1.8,0.2,2.5,0c0.8-0.1,1.3-0.4,1.7-0.9c0.3-0.5,0.4-1,0.3-1.6c-0.1-0.6-0.4-1.2-1-1.6
					c-0.5-0.4-1.4-0.8-2.7-1.3c-1.7-0.6-3-1.4-3.8-2.3c-0.8-0.9-1.4-2.1-1.7-3.4c-0.3-1.8,0-3.3,1.1-4.6c1-1.3,2.6-2.1,4.8-2.5
					c1.9-0.3,3.7-0.2,5.5,0.5l-1,3.9c-1.5-0.5-2.7-0.6-3.7-0.4c-0.6,0.1-1.1,0.4-1.3,0.8c-0.3,0.4-0.3,0.8-0.3,1.3
					c0.1,0.6,0.4,1,0.9,1.4c0.5,0.4,1.3,0.8,2.5,1.2c1.5,0.6,2.5,1.1,3.1,1.5s1.2,1,1.6,1.7C239.6,346,239.9,346.8,240.1,347.7z"/>
				<path class="st2" d="M258,339.9c0.6,3.4,0.4,6.3-0.7,8.4c-1.1,2.2-2.9,3.5-5.5,4c-1.6,0.3-3.1,0.1-4.5-0.5s-2.6-1.7-3.5-3.3
					c-1-1.5-1.7-3.4-2.1-5.6c-0.6-3.4-0.4-6.2,0.7-8.4c1.1-2.2,2.9-3.5,5.5-4c2.5-0.5,4.6,0.2,6.5,1.8
					C256.2,334,257.4,336.5,258,339.9z M246.8,341.9c0.4,2.2,0.9,3.8,1.6,4.8s1.6,1.4,2.6,1.3c2-0.4,2.6-2.8,1.8-7.2
					c-0.4-2.2-1-3.8-1.6-4.8c-0.7-1-1.5-1.4-2.6-1.2c-1.1,0.2-1.7,0.9-2,2.1C246.4,338,246.4,339.7,246.8,341.9z"/>
				<path class="st2" d="M278,347.1l-5,0.9l-5.4-29.3l5-0.9L278,347.1z"/>
				<path class="st2" d="M290,345.2c-2.6,0.5-4.9-0.1-6.7-1.7c-1.9-1.6-3.1-4.1-3.7-7.5c-0.6-3.5-0.5-6.3,0.6-8.5s2.7-3.5,5.2-4
					c2.3-0.4,4.2,0.1,5.9,1.5c1.6,1.4,2.7,3.6,3.3,6.6l0.5,2.7l-10.1,1.9c0.4,1.9,1,3.2,1.9,4c0.9,0.8,2,1,3.3,0.8
					c1.6-0.3,3.2-1.1,4.7-2.5l0.8,4.1C294.1,344,292.3,344.8,290,345.2z M286,327.5c-0.7,0.1-1.2,0.6-1.6,1.5
					c-0.3,0.8-0.4,2.1-0.2,3.7l5.1-0.9c-0.3-1.5-0.8-2.6-1.3-3.4C287.4,327.6,286.8,327.3,286,327.5z"/>
				<path class="st2" d="M311.2,319.3l0.5,2.9l-2.4,1c0.7,0.8,1.1,1.9,1.3,3.2c0.4,2.2,0.1,4.1-0.8,5.6s-2.5,2.4-4.7,2.8
					c-0.6,0.1-1.1,0.2-1.4,0.1c-0.2,0.3-0.4,0.5-0.5,0.8c-0.2,0.3-0.2,0.6-0.1,1c0.2,0.9,1,1.2,2.5,0.9l3-0.6
					c1.8-0.3,3.2-0.1,4.4,0.7c1.1,0.8,1.9,2.1,2.2,4.1c0.5,2.4,0,4.5-1.4,6.1c-1.4,1.6-3.6,2.7-6.7,3.3c-2.3,0.4-4.2,0.3-5.7-0.5
					c-1.4-0.8-2.3-2.1-2.7-4c-0.2-1.2,0-2.3,0.5-3.3c0.6-1,1.4-1.8,2.6-2.5c-0.7-0.1-1.3-0.4-1.8-0.9c-0.5-0.5-0.8-1-1-1.7
					c-0.1-0.4-0.1-0.8,0-1.2c0.1-0.4,0.2-0.7,0.4-1.1c0.2-0.3,0.6-0.9,1.2-1.6c-1-0.4-1.8-1.1-2.5-2.1c-0.7-1-1.2-2.2-1.4-3.5
					c-0.4-2.3-0.2-4.2,0.8-5.7c1-1.5,2.6-2.4,4.8-2.8c0.4-0.1,0.9-0.1,1.5-0.1c0.6,0,1,0,1.3,0.1L311.2,319.3z M301.7,328.1
					c0.5,2.5,1.4,3.6,2.8,3.3c1.4-0.3,1.8-1.6,1.3-4.1c-0.5-2.6-1.4-3.7-2.7-3.5C301.7,324.1,301.2,325.5,301.7,328.1z M303.3,345.6
					c0.2,0.8,0.5,1.4,1.1,1.8c0.6,0.3,1.4,0.4,2.4,0.3c1.5-0.3,2.6-0.8,3.3-1.5c0.7-0.7,0.9-1.6,0.7-2.6c-0.1-0.8-0.5-1.3-0.9-1.6
					c-0.5-0.3-1.3-0.3-2.4-0.1l-2.4,0.4c-0.7,0.1-1.2,0.5-1.5,1.1C303.2,344,303.2,344.7,303.3,345.6z"/>
				<path class="st2" d="M327.9,337.9l-1.5-2.7l-0.1,0c-0.5,1.4-1.1,2.4-1.8,3c-0.7,0.6-1.7,1-2.9,1.3c-1.5,0.3-2.9-0.1-4-1.1
					c-1.1-1-1.8-2.5-2.2-4.6c-0.4-2.2-0.1-4,0.9-5.3c1-1.3,2.7-2.2,5.1-2.8l2.8-0.6l-0.3-1.5c-0.4-2-1.4-2.8-3.1-2.5
					c-1.3,0.2-2.6,1-4.1,2.3l-2.4-3.1c1.8-1.7,4-2.8,6.4-3.2c2.2-0.4,4-0.1,5.4,1c1.4,1.1,2.3,2.8,2.7,5.1l2.6,14.1L327.9,337.9z
					 M322.9,335.1c0.9-0.2,1.6-0.7,2-1.6c0.4-0.9,0.5-2.1,0.2-3.4l-0.3-1.8l-1.5,0.4c-1.1,0.3-1.9,0.8-2.3,1.4
					c-0.4,0.7-0.5,1.6-0.3,2.8C320.9,334.6,321.7,335.3,322.9,335.1z"/>
				<path class="st2" d="M340.7,335.5l-5,0.9l-5.4-29.3l5-0.9L340.7,335.5z"/>
			</g>
		</g>
	</g>
</g>
</svg>
