<?xml version="1.0" encoding="utf-8"?>
<!-- Generator: Adobe Illustrator 24.0.3, SVG Export Plug-In . SVG Version: 6.00 Build 0)  -->
<svg version="1.1" id="Layer_1" xmlns="http://www.w3.org/2000/svg" xmlns:xlink="http://www.w3.org/1999/xlink" x="0px" y="0px"
	 width="480px" height="600px" viewBox="0 0 480 600" style="enable-background:new 0 0 480 600;" xml:space="preserve">
<style type="text/css">
	.st0{fill:#D13C69;}
	.st1{fill:#733022;}
	.st2{fill:#FFCC9B;}
	.st3{fill-rule:evenodd;clip-rule:evenodd;fill:#ED9072;}
	.st4{fill-rule:evenodd;clip-rule:evenodd;fill:#3D3D5B;}
	.st5{fill-rule:evenodd;clip-rule:evenodd;fill:#323249;}
	.st6{fill-rule:evenodd;clip-rule:evenodd;fill:#3C2724;}
	.st7{fill-rule:evenodd;clip-rule:evenodd;fill:#250C07;}
	.st8{fill-rule:evenodd;clip-rule:evenodd;fill:#9ED8F5;}
	.st9{fill-rule:evenodd;clip-rule:evenodd;fill:#6EA6C2;}
	.st10{fill-rule:evenodd;clip-rule:evenodd;fill:#FFFFFF;}
	.st11{fill:#994F3E;}
	.st12{fill:#3D3D5B;}
	.st13{fill:#323249;}
	.st14{fill:#F4E4EC;}
	.st15{fill:#EE8E6F;}
	.st16{fill:#E5C3DA;}
	.st17{fill:#FFAD84;}
	.st18{fill:#E97B59;}
	.st19{fill:#FFC296;}
	.st20{fill:#FFFFFF;}
	.st21{fill:#39170B;}
</style>
<title>Artboard 23</title>
<rect x="-21.6" y="-22" class="st0" width="523" height="633"/>
<g>
	<path class="st1" d="M139.4,74c2.7,4.2,7,9.9,12.6,13.6l-0.4,5.9l46.8,9.7L213,246.8l-55,42.4L124.2,271
		c8.5-34.1,5.1-67.7,5.1-67.7c-4.2,36.8-11.7,64.1-11.7,64.1l-7.7-3.1c13.6-47,9.3-96.5,10.3-137.7c0.5-22-2.4-55.3,16-58
		c0,0,0.6,1.2,1.6,2.9C138.3,72.3,138.8,73.2,139.4,74z"/>
	<g>
		<path class="st2" d="M453.5,221.8c4.4-15,6.5-42.1,3.1-44.7c-3.4-2.7-7.8,1.2-7.8,1.2s-2.4-4.1-5.3-4.3c-3.2-0.2-5.1,4-5.1,4
			s-2.6-4.3-6-3.2c-3.4,1.1-4.2,4.6-4.2,4.6c-3.1-2.1-10.9-3.3-4.1,21.1c3.4,12.3,9.1,22,8.2,25.4
			C432.7,230.6,453.5,221.8,453.5,221.8z"/>
		<path class="st3" d="M101.1,198.7c0,0,7.9-3.9,8.7-13.1c0.8-9.2,19.8-7.4,20.8-4.9c1,2.5,3.6,5.7,3.8,10.4
			c0.2,4.7,2.8,5.8,2.8,5.8c-11.6,9.6-14.5,2.5-26.7,15.5C106.4,216.8,102.9,204.3,101.1,198.7z"/>
		<path class="st4" d="M181.1,271l-8.3-14.1c0,0-59.4,30.1-91.3,23.9c-31.9-6.2,30-63.8,34-69.9c4.1-6.1-5.6-7.7-8.7-11.4
			c-3-3.7-2.6-5.3-5.4-4.2c-2.8,1.1-68.7,57.7-64.6,103.3c4.1,45.6,119.2,34.7,129.5,27.1C176.6,318.1,181.1,271,181.1,271z"/>
		<path class="st5" d="M181.1,271l-8.3-14.1c0,0-18.8,9.5-40.8,16.7c4.2,27.3-17.8,50.4-53.1,47.9c-40.1-2.8-41.9-28.9-42-30.7
			c-0.2,2.6-0.2,5.2,0,7.8c4.1,45.6,119.2,34.7,129.5,27.1C176.6,318.1,181.1,271,181.1,271z"/>
		<path class="st6" d="M76.7,279.1c-19.7-11.3,35.1-62.5,38.9-68.2c4.1-6.1-5.6-7.7-8.7-11.4c-3-3.7-2.6-5.3-5.4-4.2
			c-0.3,0.1-1.2,0.8-2.7,2c3.4,4.1,5.6,11.3-2.1,23.2C83.1,241.7,58.6,270.3,76.7,279.1L76.7,279.1z"/>
		<path class="st7" d="M149.5,113.5c0,0-51.2,40.3-51.9,47.6c-0.7,7.3,14.9,35,18.4,37.3c3.5,2.3,9.6,9.6,37.2-15.2
			C180.8,158.4,149.5,113.5,149.5,113.5z"/>
		<path class="st8" d="M147.6,125.2c0,0-39.8,31.3-40.3,37c-0.6,5.7,11.6,27.2,14.3,29c2.7,1.8,7.5,7.5,28.9-11.8
			C172,160.1,147.6,125.2,147.6,125.2z"/>
		<path class="st9" d="M145.7,126.7c-2.9,2.3-8.8,7.1-15.1,12.4c2.4,15.2,4,38.5-4.4,54.3c3.9,0.5,10.8-1.8,24.3-14
			c18.4-16.5,3.2-44.4-1.5-52.2L145.7,126.7z"/>
		<path class="st3" d="M135.3,197c0,0,2.5-5.2,3.3-12.2c0.8-7,6.1-9.1,11.3-2C155,189.9,151.6,198.2,135.3,197z"/>
		<path class="st10" d="M117.5,179.4c1.3,0,2.3-1.1,2.2-2.4c0-1.3-1.1-2.3-2.4-2.2c-1.3,0-2.3,1.1-2.2,2.4
			C115.2,178.4,116.3,179.4,117.5,179.4z"/>
		<path class="st10" d="M123.8,189c1.3,0,2.3-1.1,2.2-2.4c0-1.3-1.1-2.3-2.4-2.2c-1.3,0-2.3,1.1-2.2,2.4
			C121.4,188.1,122.5,189.1,123.8,189z"/>
		<path class="st10" d="M112.7,168.9c1.3,0,2.3-1.1,2.2-2.4c0-1.3-1.1-2.3-2.4-2.2c-1.3,0-2.3,1.1-2.2,2.4
			C110.4,167.9,111.4,168.9,112.7,168.9z"/>
		<path class="st4" d="M276.2,265.6c13,1.2,22.9,5.3,35.4,11.6c21.4,10.7,55.3,26.3,84.3,38.7c31.1,13.3,30.6,20.6,33.2-11.6
			c2.6-33.9,1.1-60.5,1.2-74.4c0-2.1-0.4-12.3,4.1-11.3c2.1,0.4,5.5,1.6,9.7,1.6c4.2,0,6.6-3.4,9.9,1.1c5.6,10.7,14.4,54.6,3.4,131
			c-0.1,0.4,1.6-7.3-0.3,1.3c-2,8.6-14.5,16.9-22.3,14.3l-0.8-0.1c-27.5-8.4-91.3-17.8-129.4-35.9c-14.8-7-21.8-16.9-27.9-26
			C276.9,294.3,276.5,276.8,276.2,265.6z"/>
		<path class="st5" d="M430.2,229c0-3.2,0.1-11.3,4.1-10.4c2.1,0.4,5.5,1.6,9.7,1.6c4.2,0,6.6-3.4,9.9,1.1
			c5.6,10.7,14.4,54.6,3.4,131c-0.1,0.4,1.6-7.3-0.3,1.3c-2,8.6-14.5,16.9-22.3,14.3l-0.8-0.1c-27.5-8.4-91.3-17.8-129.4-35.9
			c-7.4-3.5-12.8-7.7-17.2-12.2c-1-7.3-1-13.1,0.6-16.1c6.9-12.6,91.2,45.4,141.6,49.2c0,0,24.5-1,25.4-33.9
			c0.9-32.9-0.6-62.6-3.7-72.4C448.9,239,444.8,228.1,430.2,229z"/>
	</g>
	<path class="st11" d="M290.1,269.5c14.1-49.8,17.5-121,5.4-170.3c-13.2-53.6-52.5-67.9-91.3-69.1c-27.5-0.9-69.2,20.8-67.9,38.4
		s94.5,211.1,94.5,211.1L290.1,269.5z"/>
	<path class="st1" d="M197.7,287.6c0,0-106.4-209.3-61.5-219.1c12.1,28.6,67.8,12.5,115.4,29.7c41.6,15,37.9-16.4,37.8-16.9
		c2.3,5.4,4.4,11.4,6,17.9c12.1,49.3,8.7,120.5-5.4,170.3L197.7,287.6z"/>
	<path class="st12" d="M304,533.3c0,0,23.3,72.8-81.9,281.1c-39.9,14.6-105.5-14.4-105.5-14.4c-36.5-193.5-1-287.5-1-287.5
		L304,533.3z"/>
	<path class="st13" d="M304,533.3c0,0,11,34.5-13.4,113.2l-98.3-3.1c0,0-31.5,127.1-39.3,168.8c-19.1-5.2-36.3-12.3-36.3-12.3
		c-36.5-193.5-1-287.5-1-287.5L304,533.3z"/>
	<path class="st14" d="M114.2,512.3c26.7-55.9,55.9-82.4,59.9-108.9c2.9-19.6-33-56.4-30.1-68.9c-0.3-13.3,15.4-40.5,15.4-40.5
		l7.7-37.9c64.6-17.9,94.4-8.7,145.7,21.9c0,0,3.9,23.2-16.1,64.4c-15.6,32.1-36.4,54.5-38.5,68c-3.5,22,30.2,61,44.4,122.7
		C240.6,546.3,177.7,536.4,114.2,512.3z"/>
	<path class="st15" d="M212.9,303.1c-39.3-8.4-28.1-51.4-28.1-51.4c39.6-8.6,65.8-5.1,95.9,8.9C269.8,287.8,242.8,309.5,212.9,303.1
		z"/>
	<path class="st15" d="M253.5,162c0,0-9.9,57.1,6.3,94.6l-38.7,10.3l-21.3-1.7c0,0,6.2-25,1.4-57.3C197.6,184.2,253.5,162,253.5,162
		z"/>
	<path class="st16" d="M174.2,403.4c2.9-19.6-33-56.4-30.1-68.9c0,0,52.8,35.7,145.5,21.4c-14.2,25-29.6,43-31.4,54.6
		c-3.5,22,30.2,61,44.4,122.7c-62,13.2-124.9,3.3-188.4-20.8C140.9,456.4,170.2,429.9,174.2,403.4z"/>
	<path class="st12" d="M233.1,342.5c9.2-31.8,38-72.1,44.9-84.3c24.1,10.6,34.9,19.7,34.9,19.7s3.9,23.2-16.1,64.4
		c-15.6,32.1-36.4,54.5-38.5,68c-3.4,21.4,28.3,58.8,43.1,117.5c-41.1,10.4-90-0.9-90-0.9s13.9-105.5,13.2-125.3
		C223.9,381.7,226.5,365.2,233.1,342.5z"/>
	<path class="st12" d="M158.9,293.8l7.8-37.8c5.6-2.5,14.6-4.6,22.4-5.8c-0.6,2.4-19.9,58.9-24.1,90.1c-2.8,21.4,19.5,53.2,19,66.1
		c-0.6,17.7-22.8,86.8-26.1,112c0,0-20-5.3-41.6-14.5c20.2-50.5,52.4-75.4,56.2-100.8c2.9-19.6-32.3-50.1-29.8-68.9
		C144.9,317.7,158.9,293.8,158.9,293.8z"/>
	<path class="st13" d="M164.7,344.2c-0.1,21.2,19.7,50.1,19.3,62.2c-0.6,17.7-22.8,86.9-26.1,112c0,0-20-5.3-41.6-14.5
		c20.2-50.5,52.4-75.4,56.2-100.8c2.9-19.6-32.3-50.1-29.8-68.9C142.7,334.3,150.6,338.9,164.7,344.2z"/>
	<path class="st13" d="M211.3,526.9c0,0,13.9-105.5,13.2-125.3c-0.5-15,0.9-28.1,4.4-43.3c18.2,1.5,38.6,1.1,60.8-2.6
		c-14.2,25.1-29.7,43.2-31.5,54.8c-3.4,21.4,28.3,58.8,43.1,117.5C260.3,538.2,211.3,526.9,211.3,526.9z"/>
	<path class="st2" d="M194,231.6c-5.9-0.1-15.8-9.9-22.1-14.9c-13.3-10.6-26-23.8-21.5-55.9c0,0-32.1-78.2,33.4-91.7
		c65.5-13.5,82.8,51.1,73.1,101.9C247.1,221.8,199.6,231.7,194,231.6z"/>
	<path class="st17" d="M200.5,67.4c47.3,3.6,68.1,144.5-7.3,164c0.2,0,0.5,0.1,0.7,0.1c5.6,0.1,53.1-9.8,62.8-60.6
		C265.6,124.8,252.1,67.5,200.5,67.4z"/>
	<path class="st15" d="M184,156.1c-0.4,16.2-13.4,21.9-13.4,21.9s4.8,11,15.2,9.6c10.4-1.4-9.6-9.6-9.6-9.6s12.9-10.6,12.8-22.3
		C188.8,139.1,184.4,139.9,184,156.1z"/>
	<path class="st1" d="M174.6,140.8c-0.8,1.6-5.4-2.2-15.9-6.6c-9.6-4-17.8-5.2-17.2-6.8c0.7-1.6,8.2-3.2,19.6,1.4
		C171.9,133.2,176,137.7,174.6,140.8z"/>
	<path class="st1" d="M230.5,123.2c0.4,1.8-1.9,0.2-11.2,2.5c-7.5,1.9-14.8,5.5-15.4,4.3c-1.7-3.5,6.6-7.4,13.6-8.7
		C227.2,119.7,230.2,122,230.5,123.2z"/>
	<path class="st11" d="M221.6,65.5c39.2,14.1,39.1,79.5,39.1,79.5s-6.3,6.4-9.4,6.2c-4.6-0.3-2.5-4.6-5.4-22.9
		C237.3,93.9,208,95,167.2,91.9c-20.2-1.6-24.8-14.2-24.8-14.2S163.6,45.4,221.6,65.5z"/>
	<g>
		<path class="st18" d="M208.9,199.3c0.2,0.9-8.5-2.7-20.6,0.6c-11.4,3.1-12.9,10-13.2,8.6c-0.4-1.4,1.3-9.3,12.1-12.1
			C199.5,192.8,208.7,197.9,208.9,199.3z"/>
		<path class="st18" d="M201.3,207c0.1,1.4-2.4,2.7-5.7,3s-5.9-0.7-6-2.1c-0.1-1.4,2.4-2.7,5.7-3S201.2,205.6,201.3,207z"/>
	</g>
	<path class="st1" d="M251.3,151.2c-4.6-0.3-2.5-4.6-5.4-22.9c-8.6-34.4-37.9-32.8-78.6-36.4c-25.9-2.3-32.3-21.4-31-23.4
		c20.9,24.2,57.7-5.8,115.4,29.7c9,22.3,9,46.9,9,46.9S254.3,151.4,251.3,151.2z"/>
	<g>
		<path class="st19" d="M272.4,163c-10.3,12-24,15.5-23.9,4.4c0.1-11.1,17.7-35.5,22.3-27.4C275.3,148,278.1,156.4,272.4,163z"/>
		<path class="st15" d="M269.4,162.2c-7.6,8.8-17.6,11.3-17.5,3.2c0.1-8.2,13.1-26,16.3-20.1C271.6,151.1,273.6,157.3,269.4,162.2z"
			/>
		<path class="st19" d="M260.1,165.7c-3.6,4.3-8.6,5.6-8.5,1.6c0-4,6.3-12.7,7.9-9.8C261.2,160.3,262.2,163.4,260.1,165.7z"/>
	</g>
	<path class="st1" d="M218.7,98.4c0,0,24.2,6.6,29.7,53c3.4,27.9-11.7,77.9-11.7,77.9s23.7-10.3,19.7-93.4
		C253.7,81,218.7,98.4,218.7,98.4z"/>
	<g>
		<path class="st20" d="M202,158.7c-2.2-2.4,0.9-11.8,9.5-15.1c8.6-3.2,13.5,2.4,13.9,4.8c0.4,2.4-0.6,6.6-5.5,9
			c-4.9,2.4-9.1,2.1-11.5,2C205.3,159.4,203.3,160.1,202,158.7z"/>
		<circle class="st21" cx="211.9" cy="152.1" r="7.7"/>
		<circle class="st20" cx="214.8" cy="156.1" r="3.1"/>
		<path class="st21" d="M201.3,156.7c0,0-1.4-4.4,3.7-10.5c5.1-6.1,12.3-5.2,14.2-5.7c1.9-0.5,4.1,0,3.5,0.6c-0.6,0.6,1.3,2,2.8,1.6
			s0.1,1.3,0.1,1.9c0,0.5,2.7,0.2,3,0.8c0.2,0.6-1.4,2-1,2.1c0.4,0.1,2,1.2,1.3,1.7c-0.7,0.6-2,2.4-2.6,3.2s-2.2,1.5-2.2,1.5
			s1.7-3.8,0.4-6.2c-1.3-2.5-4.5-5.1-9.5-4.2c-5,0.9-8,3.4-10.1,5.5C202.9,151,201.3,156.7,201.3,156.7z"/>
	</g>
	<g>
		<path class="st20" d="M173.9,157.6c1.8-2.6-2.4-11-10.9-12.9c-8.5-1.9-12.4,4.1-12.4,6.3c0,2.3,1.4,6.1,6.4,7.7
			c5,1.6,8.9,0.7,11.1,0.4C170.8,158.7,172.9,159.1,173.9,157.6z"/>
		<circle class="st21" cx="163.3" cy="152.9" r="7.3"/>
		<path class="st20" d="M168.9,156.8c0.1,1.6-1.1,3-2.7,3.1c-1.6,0.1-3-1.1-3.1-2.7c-0.1-1.6,1.1-3,2.7-3.1
			C167.4,154,168.7,155.2,168.9,156.8z"/>
		<path class="st21" d="M174.3,155.6c0,0,0.7-4.3-4.9-9.3c-5.6-5-12.2-3.2-14.1-3.4c-1.9-0.2-3.8,0.6-3.2,1c0.6,0.4-0.9,2-2.4,1.9
			c-1.5-0.2,0.1,1.3,0.1,1.8c0,0.5-2.5,0.6-2.7,1.1c-0.2,0.6,1.6,1.6,1.2,1.8c-0.4,0.2-1.7,1.4-1,1.8c0.7,0.4,2.2,2,2.9,2.7
			c0.6,0.6,2.3,1.1,2.3,1.1s-2.1-3.3-1.2-5.8c0.9-2.5,3.6-5.3,8.3-5.2s7.9,2.1,10.2,3.8C172,150.5,174.3,155.6,174.3,155.6z"/>
	</g>
</g>
</svg>
