<?xml version="1.0" encoding="utf-8"?>
<!-- Generator: Adobe Illustrator 24.0.3, SVG Export Plug-In . SVG Version: 6.00 Build 0)  -->
<svg version="1.1" id="Layer_1" xmlns="http://www.w3.org/2000/svg" xmlns:xlink="http://www.w3.org/1999/xlink" x="0px" y="0px"
	 width="480px" height="600px" viewBox="0 0 480 600" style="enable-background:new 0 0 480 600;" xml:space="preserve">
<style type="text/css">
	.st0{fill:#E1CCBE;}
	.st1{fill:#B5581E;}
	.st2{fill:#71350A;}
	.st3{fill:#4A5F65;}
	.st4{fill:#74919B;}
	.st5{fill:#94A7B0;}
	.st6{fill:#5F7880;}
	.st7{fill:#9A4C1E;}
	.st8{fill:#7F3D13;}
	.st9{fill:#994F3E;}
	.st10{fill:#733022;}
	.st11{fill:#D35326;}
	.st12{fill:#323249;}
	.st13{fill:#ED9558;}
	.st14{fill:#D87239;}
	.st15{fill:#FFB476;}
	.st16{fill:#3D3D5B;}
	.st17{fill:#F4E4EC;}
	.st18{fill:#EE8E6F;}
	.st19{fill:#E5C3DA;}
	.st20{fill:#FFCC9B;}
	.st21{fill:#FFAD84;}
	.st22{fill:#E97B59;}
	.st23{fill:#FFC296;}
	.st24{fill:#FFFFFF;}
	.st25{fill:#39170B;}
	.st26{fill:#5E3612;}
	.st27{fill:#592807;}
	.st28{fill:#713613;}
	.st29{fill:#E59239;}
	.st30{fill:#F9B058;}
	.st31{fill:#F7A147;}
	.st32{fill:#CE8431;}
	.st33{fill:#91B4BF;}
	.st34{fill:#A6C1CA;}
	.st35{fill:#F2F4F5;}
	.st36{fill:#E0E7EA;}
	.st37{fill:#C5D5DB;}
	.st38{fill:#5C7B84;}
	.st39{fill:#C9D8DD;}
	.st40{fill:#ADC5CE;}
	.st41{fill:#F1F1F1;}
	.st42{fill:#E5E5E5;}
	.st43{fill:#B5B9DE;}
	.st44{fill:#666666;}
	.st45{fill:#363B4C;}
</style>
<title>Artboard 23</title>
<rect x="-13.4" y="-11.9" class="st0" width="523" height="384.9"/>
<g id="XMLID_184_">
	<g>
		<path class="st1" d="M159.6,71.2c-17-2.5-47.4-2.2-63.2,4.5l0,0c-6.5,4-11.9,12.7-8.2,19.7c5.8,11.2,35,5.3,45.2,4.9
			c9.6-0.5,35.1,4.7,40.8-4.9C184.5,77.8,168.4,72.2,159.6,71.2z M71.7,108.6c-3.2-13-0.4-34.9,12.5-40.9c16-7.8,35.8-8.1,52.9-6.6
			c2.7,0.1,5.9,0.1,9.5,0.2c11.8,0.2,26.6,0.9,34.3,6.1c7.9,6,9.2,20.2,9.8,29.3c0.1,2.8-2.1,9.6-3.6,11.5
			c-2.7,3.6-10.3,3.1-16.2,2.3l0,0.1c-23.7-3.7-51.6-2.1-73.5,4C87.1,115.6,74.5,120.5,71.7,108.6z"/>
		<path class="st2" d="M84.3,67.7c-12.9,6.1-15.8,28-12.5,40.9c2.8,11.8,15.4,7,25.8,6c-5.5,1.5-10.6,3.3-15.1,5.4
			c-5.2,0.1-9.8,0.8-13.9,2c-17.2,0-29.3-7.7-20.3-33.7c6.7-19,49.2-32,98.4-27.1c-3.5,0-6.8-0.1-9.5-0.2
			C120,59.6,100.3,59.9,84.3,67.7z"/>
		<path class="st1" d="M82.4,120c1.2,0,2.5,0,3.8,0c-2.1,0.4-4.1,0.8-6.2,1.1c0.4-0.2,0.9-0.4,1.3-0.6C81.7,120.3,82,120.2,82.4,120
			z"/>
		<path class="st2" d="M82.4,120c-0.4,0.2-0.7,0.3-1,0.5c-0.4,0.2-0.9,0.4-1.3,0.6c-4,0.6-7.9,1-11.6,0.9
			C72.6,120.8,77.2,120.1,82.4,120z"/>
		<path class="st3" d="M92.9,518.9c6.4-0.5,13-1.1,19.7-1.7c-1,3.7-4,8.5-7.1,9.1c-6.4,1.6-12.1-1.7-13.1-7.4
			C92.5,519,92.7,518.9,92.9,518.9z"/>
		<path class="st3" d="M119.9,490.4c-2.2-1.6-5.4-7.2-1.5-8.4l0,0c4.1,2.4,8.2,4,12.6,5.8C129.3,491.7,123.1,492.8,119.9,490.4z"/>
		<path class="st4" d="M92.9,518.3c15.5-1.7,31.9-10.2,45.7-16.6c7.7-3.7,16.2-6.9,24.2-9.6c1-0.3,2.8-1.5,4.1-2.9
			c-0.1,7.1-0.1,14.3,0.1,21.4c0,0-0.1,0-0.1,0c-17.4,2.6-36.1,4.8-54.3,6.6c-6.7,0.6-13.2,1.2-19.7,1.7L92.9,518.3z"/>
		<path class="st4" d="M224.7,546.9l-8.1-4.5c-5.5-3.3-11.2-7.1-16.9-10.9c-1.5-1-3-2.1-4.5-3.1c-7.8-5.4-15.6-10.7-22.8-14.8
			c-0.1-0.4-0.2-2.1-0.2-2.5c-0.1-1.3-0.1-2.6,0-4c0.2-2.8,0.3-5.6,0.5-8.3c0.5-5.5,1.9-10.4,2.9-15.7c1.9-0.8,3.8-1,5.6-0.5
			c-0.3,1.8-0.5,3.6-0.7,5.4c3.9,3.8,7.6,7.8,11,12c12.2,14.5,22,30.8,33,46.6C224.6,546.7,224.6,546.8,224.7,546.9z"/>
		<path class="st5" d="M138.6,501.7c-13.8,6.5-30.3,15-45.7,16.6l0.1,0.6c-0.2,0-0.4,0-0.6,0.1c-3.9,0.3-7.7,0.5-11.5,0.8l-0.1-0.3
			c17.9-9.4,38.8-20,59.1-27.3c9.4-3.4,18.5-6.1,27.3-7.7c0,0,0,0,0.1,0c0,1.6-0.1,3.2-0.1,4.7c-1.3,1.4-3.1,2.5-4.1,2.9
			C154.8,494.8,146.3,498,138.6,501.7z"/>
		<path class="st6" d="M224.8,492.6c-3.1,0.9-6,1.6-8.9,2.3c-5.9,1.4-11.5,2.6-17.8,3.8c-3.8-5.1-8.9-12.7-14.7-15.4
			c14.4-0.6,51.7,1.4,63.9,2.2c0,0.1,0.1,0.3,0.1,0.4c-3.3,1.1-6.4,2-9.2,2.9C233.3,490.2,228.9,491.5,224.8,492.6z"/>
		<path class="st7" d="M262.5,321.6c-17.4-5.6-35.7-11-54.3-10.6c-0.1-0.8-0.2-1.5-0.4-2.3c7,0.1,13.9,0.3,20.6,0.7
			c2.2,0.1,4.3,0.3,6.5,0.4c19,1.8,34,5.9,51.3,12.5c9.7,3.3,40.8,19.7,42.8,35.1c0.3,2.2,0,4.4-1,6.5c-5.3,10.8-71,19.6-83.7,19.8
			c-23.7,0.7-34.5,4.6-57.2-0.4c-16.2-3.8-44.4-19.9-56.9-29.8c-8.2-5.8-28.7-20.6-27.2-30.2c0.2-0.3,0.4-0.6,0.6-0.9
			c-0.1-0.1-0.1-0.3-0.2-0.5c1.1-2.8,4.4-5,10.8-6.3c0,0,0,0,0.1,0c0.4-0.1,0.7-0.1,1.1-0.2c0.9-0.1,2.5-0.4,4.4-0.8
			c0.2-0.1,0.5-0.1,0.8-0.1l0,0.2c11.7,12.8,19.8,26.6,34.4,36.1c12,7.8,25.2,12.5,39.3,15.6c30.2,6.7,64.4,1.1,94.3-3
			c12.7-1.6,24.5-5.1,14.7-19.2C293.4,331.1,277.5,326,262.5,321.6z"/>
		<path class="st6" d="M172.4,513.6c-1.9-1.1-3.6-2-5.4-2.9c0,0,0,0,0-0.1c-0.2-7.2-0.2-14.3-0.1-21.4c1.7-1.7,2.6-3.8,0.1-4.7l0,0
			c0-0.9,0.1-1.8,0.1-2.7c0-1.5,0.1-3.1,0.1-4.6c0.5-17,1.4-34,1.2-50.9c7,1.8,14.5,3.1,22,3.9c-2.8,15.1-6.2,31.5-8.6,47.7
			c-0.2,1.6-0.5,3.2-0.6,4.8c-1.8-0.4-3.7-0.3-5.6,0.5c-1,5.2-2.4,10.2-2.9,15.7c-0.2,2.7-0.3,5.5-0.5,8.3c0,1.4-0.1,2.7,0,4
			C172.3,511.5,172.3,513.2,172.4,513.6z"/>
		<path class="st5" d="M183.4,483.3c5.9,2.7,11,10.3,14.7,15.4c-2.1,0.4-4.3,0.8-6.6,1.3c-3.5-4.2-7.1-8.2-11-12
			c0.2-1.8,0.4-3.6,0.7-5.4C181.9,482.7,182.6,483,183.4,483.3z"/>
		<path class="st6" d="M113.4,478.5c15.7,0.1,37.6,2.7,52.9,3.2l0.8,0c0,0.9,0,1.8-0.1,2.7c0,0,0,0-0.1,0
			c-8.7,1.6-17.9,4.3-27.3,7.7l-0.1-0.4c-2.9-1.6-5.8-2.9-8.7-4c-4.3-1.8-8.5-3.4-12.6-5.8C116.7,480.9,115,479.8,113.4,478.5z"/>
		<path class="st1" d="M86.2,120c-1.3,0-2.6-0.1-3.8,0c4.5-2.1,9.6-3.9,15.1-5.4c21.9-6.1,49.8-7.7,73.5-4
			c10.7,1.7,20.6,4.5,28.6,8.5c18.5,9.5,18,30.8,20.1,49.7c2.2,18.9,1.4,38.5,2.4,57.7c1.6,27.4,4.2,55.8,6.4,82.8
			c-6.7-0.4-13.6-0.6-20.6-0.7c-3.5-21.8-7.1-44.4-6.4-65.9c0.6-30.8,2.7-63.1-3.5-93.6c-6-29.5-68.2-27.8-94.6-12.4
			c-18.9,11.2-11,27.9-9.5,47.3c1.4,17.1,3.7,34.9,6.8,51.8c4.6,25,6,56.2,18.8,78.4c-1.8,0.4-3.6,0.9-5.2,1.4c0,0,0,0-0.1,0
			c-6.4,1.3-9.6,3.5-10.8,6.3c-6.6-13.4-12.1-41.2-15.5-53.1c-5.4-19.5-7.9-39.7-12.1-59.5c-4.3-21.8-20.2-74.9,4.2-88.2
			C82.1,120.8,84.1,120.5,86.2,120z"/>
		<path class="st8" d="M248.3,417.9c-39.5,2.7-80.8-0.4-114.2-16.4c-11.8-5.7-22.7-12.9-32.1-22.2c-7.1-16-7-42.9,1.1-56
			c-1.5,9.6,19,24.4,27.2,30.2c12.5,9.9,40.7,26,56.9,29.8c22.7,5,33.5,1.1,57.2,0.4c12.7-0.2,78.3-9,83.7-19.8c1-2.1,1.3-4.3,1-6.5
			l0.3,0c5.4,40.5-27,54.9-63.1,59C260.3,417,254.3,417.5,248.3,417.9z"/>
		<path class="st8" d="M208.2,310.9c18.6-0.4,36.9,5,54.3,10.6c14.9,4.4,30.8,9.6,40.8,22.6c9.8,14.2-2.1,17.6-14.7,19.2
			c-30,4.1-64.1,9.6-94.3,3c-14.1-3.1-27.2-7.8-39.3-15.6c-14.6-9.4-22.7-23.2-34.4-36.1l0-0.2c-0.2,0-0.5,0.1-0.8,0.1
			c-0.1-0.2-0.2-0.3-0.3-0.5c12.9-3.1,29.6-4.6,37.7-4.9c16.4-0.3,33.8-0.9,50.7-0.7C208,309.4,208.1,310.2,208.2,310.9z"/>
		<path class="st3" d="M238.2,488.8c2,9.7-15.9,11.5-13.4,3.8C228.9,491.5,233.3,490.2,238.2,488.8z"/>
		<path class="st5" d="M218.4,478.6c6,0.6,26.5-0.3,28.9,6.9c-12.2-0.8-49.5-2.8-63.9-2.2c-0.7-0.3-1.4-0.6-2.2-0.7
			c0.2-1.6,0.4-3.2,0.6-4.8C193.4,476,206.7,477.3,218.4,478.6z"/>
		<path class="st5" d="M225.9,535.6c1.7,3.1,6.2,11.6-1.5,11c-10.9-15.8-20.8-32.1-33-46.6c2.3-0.4,4.5-0.8,6.6-1.3
			c0.8,1,1.4,1.9,2.1,2.7c4.6,5.4,8.4,11.1,12.7,16.6C217.6,524.3,222.8,528.3,225.9,535.6z"/>
		<path class="st3" d="M216.6,542.4c-0.8,4.5-11.5,3.2-14.2,0.7c-3.2-3-3.6-7.5-2.7-11.6C205.4,535.4,211.1,539.2,216.6,542.4z"/>
		<path class="st4" d="M190.4,430.1c-7.5-0.8-15-2.1-22-3.9c-20.3-5.2-36-14-34.4-24.6c33.4,16,74.7,19,114.2,16.4
			C241.3,429.8,215.7,432.8,190.4,430.1z"/>
		<path class="st7" d="M207.9,308.6c-16.9-0.2-34.3,0.4-50.7,0.7c-8.1,0.2-24.8,1.8-37.7,4.9c-12.8-22.2-14.2-53.4-18.8-78.4
			c-3.1-16.9-5.5-34.7-6.8-51.8c-1.5-19.4-9.4-36.1,9.5-47.3c26.4-15.4,88.6-17.1,94.6,12.4c6.2,30.5,4.1,62.8,3.5,93.6
			C200.8,264.2,204.4,286.8,207.9,308.6z"/>
		<path class="st6" d="M167,484.5c2.5,0.9,1.6,3-0.1,4.7C167,487.6,167,486,167,484.5z"/>
		<path class="st4" d="M167,484.4L167,484.4C167,484.5,167,484.5,167,484.4C167,484.4,167,484.4,167,484.4z"/>
		<path class="st5" d="M167.2,477.1c0,1.5-0.1,3.1-0.1,4.6l-0.8,0c-15.3-0.5-37.2-3.1-52.9-3.2l-0.1-0.1c8-4.1,16.1-3.9,24.9-3.5
			C147.8,475.6,157.6,475.4,167.2,477.1z"/>
		<path class="st7" d="M159.6,71.2c8.8,1.1,24.9,6.7,14.5,24.2c-5.7,9.6-31.1,4.4-40.8,4.9c-10.2,0.4-39.4,6.3-45.2-4.9
			c-3.7-7,1.7-15.7,8.2-19.7l0,0C112.3,69,142.7,68.6,159.6,71.2z"/>
		<path class="st2" d="M103.5,322c-0.1,0.4-0.3,0.9-0.3,1.4c-8.1,13.1-8.3,40-1.1,56c-13.6-13.4-24.3-30.8-30.6-53.4
			C60.1,286,5,141.1,68.5,122.1c3.7,0,7.6-0.3,11.6-0.9c-24.4,13.3-8.5,66.4-4.2,88.2c4.2,19.8,6.7,40,12.1,59.5
			C91.4,280.8,96.9,308.5,103.5,322z"/>
	</g>
</g>
<g>
	<path class="st9" d="M106.4,174.7c-8.2-28.9-10.1-70.1-3.1-98.7C111,45,133.8,36.7,156.3,36c15.9-0.5,40.1,12,39.3,22.3
		s-54.8,122.3-54.8,122.3L106.4,174.7z"/>
	<path class="st10" d="M160,185.3c0,0,61.6-121.3,35.6-127c-7,16.6-39.3,7.2-66.9,17.2c-24.1,8.7-22-9.5-21.9-9.8
		c-1.4,3.1-2.5,6.6-3.5,10.4c-7,28.6-5.1,69.8,3.1,98.7L160,185.3z"/>
	<path class="st11" d="M202.7,69.4c5.8,27.5-2.4,65.8,8.1,102.3l-4.5,1.8c0,0-4.3-15.8-6.8-37.1c0,0-2,19.5,3,39.2L183,186.2
		l-31.8-24.6l8.4-83.2L202.7,69.4z"/>
	<path class="st10" d="M193.8,61.5c-1.6,2.5-4.1,5.8-7.3,7.9l0.2,3.4l-27.1,5.6l-8.4,83.2l31.8,24.6l19.6-10.6
		c-5-19.8-3-39.2-3-39.2c2.4,21.3,6.8,37.1,6.8,37.1l4.5-1.8c-7.9-27.2-5.4-55.9-6-79.8c-0.3-12.7,1.4-32-9.3-33.6
		c0,0-0.3,0.7-0.9,1.7C194.4,60.5,194.1,61,193.8,61.5z"/>
	<path class="st12" d="M177.6,166.8c6.3,1.5,21.3,25,33,48.6c12.6,25.2,20.8,47.1,11.6,51.6c-10.3,5.1-19-16.8-31.9-34.7
		c-16.2-22.4-24.6-36.2-24.6-36.2L177.6,166.8z"/>
	<path class="st13" d="M195.9,318.3c16.3,36.6,2.4,172.2,2.4,172.2s-27.4,101.3-29.5,168.9c0,0-7.2,8.9-7.1-2.3
		c2-14.7-13.5-59.9-9.7-94c3.8-34.1,20.8-60.4,22.9-73.5c1.4-9-43.2-111.2-36.6-165.2C148.5,323.1,195.9,318.3,195.9,318.3z"/>
	<path class="st14" d="M167.5,463.6c4.6,13.8,7.8,23.5,7.4,26c-1.2,7.5-5.7,15.1-11.4,30.4c2.1,16.1,3.4,40.9,10.2,59
		c1,2.7,2.2,5.4,3.4,8c8.8-50.6,21.2-96.5,21.2-96.5s1.2-11.8,2.5-29.3L167.5,463.6z"/>
	<path class="st15" d="M103.5,328.1c-14.4,59.2,53.3,157.9,58,168c4.7,10.2,4.8,49.3,16.8,81.5c12.6,33.8,46.1,56.5,52.3,70
		c6.2,13.5,6.6-0.9,6.6-0.9s-19.7-38.7-30.8-74.5c-11-35.8-18.8-74.4-21.4-87.3c-2.6-12.9-24.6-100.2-36.5-161.8L103.5,328.1z"/>
	<path class="st16" d="M98.4,327.6c0,0-13.5,42.2,47.4,162.9c23.1,8.4,61.1-8.4,61.1-8.4c21.1-112.1,0.6-166.6,0.6-166.6L98.4,327.6
		z"/>
	<path class="st12" d="M98.4,327.6c0,0-6.4,20,7.7,65.6l57-1.8c0,0,18.3,73.7,22.8,97.8c11-3,21-7.1,21-7.1
		c21.1-112.1,0.6-166.6,0.6-166.6L98.4,327.6z"/>
	<path class="st12" d="M159.7,492.8c-10.8-24.8-40.5-72-56.3-109.6c6.3,25.3,18.7,60.3,42.4,107.3
		C150.6,492.2,154.1,492.8,159.7,492.8z"/>
	<path class="st17" d="M208.3,315.4c-15.5-32.4-32.4-47.8-34.7-63.1c-1.7-11.3,19.1-32.7,17.4-39.9c0.2-7.7-9-23.5-9-23.5l-4.4-22
		c-37.4-10.4-54.7-5.1-84.4,12.7c0,0-2.3,13.4,9.3,37.3c9.1,18.6,21.1,31.6,22.3,39.4c2,12.8-17.5,35.4-25.7,71.1
		C135.1,335.1,171.6,329.4,208.3,315.4z"/>
	<path class="st18" d="M151.1,194.2c22.7-4.9,16.3-29.8,16.3-29.8c-22.9-5-38.1-3-55.6,5.2C118.2,185.4,133.9,197.9,151.1,194.2z"/>
	<path class="st18" d="M127.7,112.4c0,0,5.7,33.1-3.6,54.8l22.4,5.9l12.3-1c0,0-3.6-14.5-0.8-33.2
		C160,125.3,127.7,112.4,127.7,112.4z"/>
	<path class="st19" d="M173.6,252.3c-1.7-11.3,19.1-32.7,17.4-39.9c0,0-30.6,20.7-84.3,12.4c8.2,14.5,17.1,24.9,18.2,31.6
		c2,12.8-17.5,35.4-25.7,71.1c36,7.6,72.4,1.9,109.2-12.1C192.9,283.1,175.9,267.7,173.6,252.3z"/>
	<path class="st16" d="M139.5,217.1c-5.3-18.4-22-41.8-26-48.8c-14,6.1-20.2,11.4-20.2,11.4s-2.3,13.4,9.3,37.3
		c9.1,18.6,21.1,31.6,22.3,39.4c2,12.4-16.4,34.1-25,68.1c23.8,6,52.2-0.5,52.2-0.5s-8-61.1-7.7-72.6
		C144.8,239.8,143.3,230.2,139.5,217.1z"/>
	<path class="st16" d="M182.5,188.9L178,167c-3.2-1.4-8.5-2.6-13-3.4c0.3,1.4,11.6,34.2,14,52.2c1.6,12.4-11.3,30.8-11,38.3
		c0.3,10.3,13.2,50.3,15.1,64.9c0,0,11.6-3.1,24.1-8.4c-11.7-29.3-30.4-43.7-32.6-58.4c-1.7-11.3,18.7-29.1,17.3-39.9
		C190.6,202.7,182.5,188.9,182.5,188.9z"/>
	<path class="st12" d="M179.1,218c0.1,12.3-11.4,29.1-11.2,36.1c0.3,10.3,13.2,50.3,15.1,64.9c0,0,11.6-3.1,24.1-8.4
		c-11.7-29.3-30.4-43.7-32.6-58.4c-1.7-11.3,18.7-29.1,17.3-39.9C191.9,212.3,187.3,215,179.1,218z"/>
	<path class="st12" d="M152.1,323.9c0,0-8-61.1-7.7-72.6c0.3-8.7-0.5-16.3-2.5-25.1c-10.5,0.8-22.4,0.6-35.2-1.5
		c8.2,14.6,17.2,25,18.3,31.7c2,12.4-16.4,34.1-25,68.1C123.7,330.5,152.1,323.9,152.1,323.9z"/>
	<path class="st20" d="M162.1,152.8c3.4-0.1,9.2-5.7,12.8-8.6c7.7-6.1,15.1-13.8,12.5-32.4c0,0,18.6-45.3-19.4-53.2
		c-38-7.8-48,29.6-42.3,59.1C131.4,147.1,158.9,152.8,162.1,152.8z"/>
	<path class="st21" d="M158.4,57.7c-27.4,2.1-39.4,83.8,4.2,95c-0.1,0-0.3,0.1-0.4,0.1c-3.3,0.1-30.8-5.7-36.4-35.1
		C120.6,90.9,128.5,57.7,158.4,57.7z"/>
	<path class="st18" d="M167.9,109c0.2,9.4,7.8,12.7,7.8,12.7s-2.8,6.4-8.8,5.6c-6-0.8,5.6-5.5,5.6-5.5s-7.5-6.1-7.4-12.9
		C165.2,99.2,167.7,99.6,167.9,109z"/>
	<path class="st10" d="M173.2,96.3c0,1,3.4,0.2,10,0.6c6,0.3,10.6,1.8,10.7,0.8c0.1-1-3.5-3.7-10.6-4.2
		C176.5,93,173.2,94.4,173.2,96.3z"/>
	<path class="st10" d="M139.7,91.9c0,1.1,1.1-0.2,6.6-0.1c4.5,0,9.1,1.1,9.3,0.4c0.5-2.2-4.7-3.3-8.8-3
		C141.1,89.5,139.7,91.2,139.7,91.9z"/>
	<path class="st9" d="M146.1,56.5c-22.7,8.2-22.6,46.1-22.6,46.1s3.7,3.7,5.4,3.6c2.6-0.2,1.4-2.7,3.1-13.3
		c5-19.9,21.9-19.3,45.6-21.1c11.7-0.9,14.4-8.2,14.4-8.2S179.7,44.9,146.1,56.5z"/>
	<path class="st16" d="M94.8,178.7c-7.6,4-15.9,28.7-22.9,54.1c-7.4,27.2-11.1,50.2-1.2,52.9c11.1,2.9,15.3-20.2,24.5-40.3
		c11.5-25.1,17.1-40.3,17.1-40.3L94.8,178.7z"/>
	<g>
		<path class="st22" d="M174.1,133c0-0.5-4.5,2.5-11.8,1.9c-6.8-0.5-8.4-4.3-8.5-3.4c0,0.8,1.7,5.1,8.2,5.6
			C169.5,137.7,174.2,133.7,174.1,133z"/>
		<path class="st22" d="M160.4,140.4c-0.1,0.8,1.4,1.6,3.3,1.7c1.9,0.1,3.4-0.4,3.5-1.2c0.1-0.8-1.4-1.6-3.3-1.7
			C162,139,160.4,139.5,160.4,140.4z"/>
	</g>
	<path class="st10" d="M128.9,106.2c2.6-0.2,1.4-2.7,3.1-13.3c5-19.9,22-19,45.6-21.1c15-1.4,18.7-12.4,18-13.5
		c-12.1,14-33.5-3.4-66.9,17.2c-5.2,12.9-5.2,27.2-5.2,27.2S127.2,106.3,128.9,106.2z"/>
	<g>
		<path class="st23" d="M116.7,113c6,7,13.9,9,13.9,2.6c-0.1-6.4-10.3-20.6-12.9-15.9C115,104.3,113.4,109.2,116.7,113z"/>
		<path class="st18" d="M118.5,112.6c4.4,5.1,10.2,6.6,10.1,1.8c-0.1-4.7-7.6-15.1-9.5-11.6C117.2,106.1,116,109.7,118.5,112.6z"/>
		<path class="st23" d="M123.8,114.6c2.1,2.5,5,3.2,4.9,0.9c0-2.3-3.7-7.4-4.6-5.7C123.2,111.5,122.6,113.2,123.8,114.6z"/>
	</g>
	<path class="st10" d="M147.8,75.6c0,0-14,3.8-17.2,30.7c-1.9,16.1,6.8,45.1,6.8,45.1s-13.8-6-11.4-54.1
		C127.5,65.5,147.8,75.6,147.8,75.6z"/>
	<g>
		<path class="st24" d="M157.5,110.5c1.3-1.4-0.5-6.9-5.5-8.7c-5-1.9-7.8,1.4-8.1,2.8c-0.2,1.4,0.3,3.8,3.2,5.2
			c2.9,1.4,5.3,1.2,6.7,1.2C155.6,111,156.7,111.3,157.5,110.5z"/>
		<circle class="st25" cx="151.7" cy="107.3" r="4.5"/>
		<circle class="st24" cx="150.1" cy="109.7" r="1.8"/>
		<path class="st25" d="M157.9,109.4c0,0,0.8-2.5-2.2-6.1c-3-3.5-7.1-3-8.2-3.3c-1.1-0.3-2.4,0-2,0.3c0.3,0.3-0.7,1.2-1.6,0.9
			c-0.9-0.2-0.1,0.8-0.1,1.1c0,0.3-1.6,0.1-1.7,0.5c-0.1,0.3,0.8,1.1,0.6,1.2c-0.2,0.1-1.2,0.7-0.7,1c0.4,0.3,1.2,1.4,1.5,1.9
			c0.3,0.4,1.3,0.9,1.3,0.9s-1-2.2-0.2-3.6c0.8-1.4,2.6-2.9,5.5-2.4c2.9,0.5,4.6,2,5.8,3.2C157,106.1,157.9,109.4,157.9,109.4z"/>
	</g>
	<g>
		<path class="st24" d="M173.8,109.9c-1-1.5,1.4-6.4,6.3-7.5c5-1.1,7.2,2.4,7.2,3.7c0,1.3-0.8,3.5-3.7,4.5c-2.9,0.9-5.1,0.4-6.4,0.2
			C175.5,110.5,174.4,110.8,173.8,109.9z"/>
		<circle class="st25" cx="179.9" cy="107.8" r="4.2"/>
		<path class="st24" d="M176.7,110.1c-0.1,0.9,0.6,1.7,1.6,1.8c0.9,0.1,1.7-0.6,1.8-1.6c0.1-0.9-0.6-1.7-1.6-1.8
			C177.6,108.4,176.8,109.1,176.7,110.1z"/>
		<path class="st25" d="M173.6,108.7c0,0-0.4-2.5,2.8-5.4c3.2-2.9,7.1-1.9,8.2-2c1.1-0.1,2.2,0.3,1.9,0.6c-0.4,0.3,0.5,1.2,1.4,1.1
			c0.9-0.1-0.1,0.7-0.1,1c0,0.3,1.5,0.3,1.6,0.7c0.1,0.3-0.9,1-0.7,1c0.2,0.1,1,0.8,0.6,1c-0.4,0.2-1.3,1.2-1.7,1.5
			s-1.3,0.7-1.3,0.7s1.2-1.9,0.7-3.4c-0.5-1.5-2.1-3.1-4.8-3c-2.8,0.1-4.6,1.2-5.9,2.2C174.9,105.8,173.6,108.7,173.6,108.7z"/>
	</g>
</g>
<rect x="-40.7" y="358.8" class="st26" width="571.9" height="298.6"/>
<g>
	<path class="st27" d="M-99.9,604.3l0,1.2c5.5-0.6,10.5-0.5,15.6-2.7c6.7-2.9,9.6-8.8,17.2-10C-85.3,589.1-99.9,591.5-99.9,604.3z"
		/>
	<path class="st28" d="M481.7,526l-1.3-154.1l-95.1,19.3l1.1,96.6l0.3,26.5c2.9,4.1,8.7,6.4,13.2,9.4c0.1,0,0.1,0.1,0.2,0.1
		c0,0,0-0.1,0-0.1c1-7.1,5.5-9.9,11.7-9.9c4.2,0,9.2,1.3,14.5,3.6h0c8.4,3.6,17.4,9.4,24.8,15.9c9.6,8.4,16.6,17.8,16,24.5
		c4.9,1.4,10.3,3.9,14.9,6.2l-0.3-35V526z"/>
	<path class="st27" d="M400.1,523.7c5.4,0.3,10.8,0.4,14.6,0.1c1.3-4,6.6-6.2,11.6-6.5c-5.3-2.3-10.3-3.6-14.5-3.6
		C405.6,513.7,401.1,516.6,400.1,523.7z"/>
	<path class="st29" d="M662.3,271.7l0-0.2L503.1,302l-31.5,6L-3.6,398.8v27.5l9.1-1.8l14.1-2.7l16.3-3.1l1.1-0.2l434.6-83.1l31.5-6
		l107.7-20.6l21.3-4.1l10.2-2l21.7-4.1C664,298.2,665.8,284.8,662.3,271.7z"/>
	<path class="st30" d="M-4.4,398.9l0.8-0.2L471.6,308l31.5-6l159.2-30.4l1.3-0.2L573,252.5c-23,7.7-46.3,14.7-69.9,21.2
		c-5.4,1.5-10.8,2.9-16.3,4.3c-5.1,1.3-10.1,2.6-15.2,3.9c-111,28.4-222.1,55.2-336.2,65.7c-46.4,4.4-92.8,14.4-139.2,7.7
		c-12.8-1.7-54.5-15.8-59.7-32.9l-93.4,16.9l0.9,0.3l54.3,21.3L-4.4,398.9z"/>
	<path class="st1" d="M503.1,329.4l-31.5,6L37,418.5l-1.1,0.2l-16.3,3.1v43.5v153.4v37.8c4.9-1,10.3-1.2,15.7-2.6H37v-28.3V461.7
		l348.3-70.6l95.1-19.3l1.3,154.1v3l0.3,35c0.1,0.1,0.2,0.1,0.3,0.2c5.8-2.3,13.5-2.5,19.6-3.9c-0.1-0.7-0.1-1.4-0.1-2
		c0-26.6,47.8-35.4,66.4-40.2c8.1-2.4,15.6-4.3,22.4-5c16.7-1.8,28.5,3.7,31.5,27.1c0.1,0,0.2,0.1,0.3,0.1c2.9-1.2,6.2-2.3,9.6-3.2
		v-45.7V341.2v-36.4l-21.3,4.1L503.1,329.4z"/>
	<path class="st27" d="M590.6,513c8.2,3.1,16.3,14.4,14.1,22.4c4.1,0,7.9,1,11.5,2.4c2,0.7,3.9,1.5,5.9,2.4
		C619.1,516.7,607.3,511.2,590.6,513z"/>
	<path class="st31" d="M-3.9,355.3c46.4,6.6,92.8-3.3,139.2-7.7c114.1-10.5,225.2-37.3,336.2-65.7c5.1-1.3,10.1-2.6,15.2-3.9
		c5.4-1.4,10.9-2.8,16.3-4.3c23.7-6.4,46.9-13.5,69.9-21.2l-116.6-24.3l-520,94.2C-58.3,339.4-16.7,353.6-3.9,355.3z"/>
	<path class="st28" d="M19.6,465.3v-43.5l-14.1,2.7l-9.1,1.8l-98.6-40.3l-17.4-7.1v184.5V594c5.2,4.2,12.2,8.7,18.1,11.8
		c0.6-0.1,1.1-0.2,1.7-0.3l0-1.2c0-12.8,14.6-15.2,32.9-11.5c0,0,0,0,0,0c6.2,1.3,12.9,3.2,19.5,5.8c28.3,10.8,56.8,31.4,53,49.5
		c3.3,2,8.7,6.6,12,8.8c0.7-0.2,1.4-0.3,2.1-0.5v-37.8V465.3z"/>
	<path class="st32" d="M-3.6,426.3v-27.5l-0.8,0.2l-97.3-38.1l-54.3-21.3c1.6,16.4,2.5,25.4,2.5,25.4l19.9,8.1l14.1,5.8l17.4,7.1
		L-3.6,426.3z"/>
</g>
<g>
	<g id="XMLID_183_">
		<g>
			<path class="st4" d="M318.5,283.8c0,0.2,0,0.4-0.1,0.5c-14.4-7.3-27.1-14.9-41.8-21.7c0,0-2.1-4-1-5.8
				c15.4,3.3,28.4,10.3,43.1,17.5C318.4,274.4,318.4,280.9,318.5,283.8z"/>
			<path class="st33" d="M466.1,253.2c-24.8,4.5-135.6,29-147.1,31.4c-0.2-0.1-0.4-0.2-0.6-0.3c0-0.2-0.2-9.9-0.2-9.9
				c0.1,0,0.3-0.1,0.5-0.1c11.7-2.5,120.7-26.5,146.5-31.3C469.2,246.8,466.3,253.1,466.1,253.2z"/>
			<path class="st34" d="M464.2,242.2c0.4,0.2,0.7,0.5,1,0.8c-25.8,4.8-134.8,28.8-146.5,31.3c-14.7-7.3-27.7-14.2-43.1-17.5
				c0.3-0.6,1-1,2-1.2v-0.1c48.9-8.3,99.7-21,146.1-28.9C424,226.6,456.5,239,464.2,242.2z"/>
		</g>
	</g>
	<g id="XMLID_182_">
		<g>
			<polygon class="st35" points="299.9,254.7 304.1,256.3 304.2,256.3 298,257.8 293,256 			"/>
			<path class="st36" d="M304.2,256.3c0.6,1.2,0.2,2.5,0.2,2.5l-6.2,1.5c-0.2-0.7-0.4-1.7-0.1-2.5L304.2,256.3z"/>
			<path class="st37" d="M298,257.8c-0.2,0.8,0,1.8,0.1,2.5h0l-5-1.8c0,0-0.5-1.6-0.1-2.5L298,257.8z"/>
		</g>
	</g>
	<g id="XMLID_181_">
		<g>
			<polygon class="st35" points="311.5,252.8 315.7,254.3 315.7,254.4 309.6,255.9 304.6,254.1 			"/>
			<path class="st36" d="M315.7,254.4c0.6,1.2,0.2,2.5,0.2,2.5l-6.2,1.5c-0.2-0.7-0.4-1.7-0.1-2.5L315.7,254.4z"/>
			<path class="st37" d="M309.6,255.9c-0.2,0.8,0,1.8,0.1,2.5h0l-5-1.8c0,0-0.5-1.6-0.1-2.5L309.6,255.9z"/>
		</g>
	</g>
	<g id="XMLID_180_">
		<g>
			<polygon class="st35" points="323.7,250 327.9,251.6 328,251.6 321.8,253.1 316.8,251.3 			"/>
			<path class="st36" d="M328,251.6c0.6,1.2,0.2,2.5,0.2,2.5l-6.2,1.5c-0.2-0.7-0.4-1.7-0.1-2.5L328,251.6z"/>
			<path class="st37" d="M321.8,253.1c-0.2,0.8,0,1.8,0.1,2.5h0l-5-1.8c0,0-0.5-1.6-0.1-2.5L321.8,253.1z"/>
		</g>
	</g>
	<g id="XMLID_179_">
		<g>
			<polygon class="st35" points="335.3,248.1 339.5,249.6 339.5,249.7 333.4,251.2 328.4,249.4 			"/>
			<path class="st36" d="M339.5,249.7c0.6,1.2,0.2,2.5,0.2,2.5l-6.2,1.5c-0.2-0.7-0.4-1.7-0.1-2.5L339.5,249.7z"/>
			<path class="st37" d="M333.4,251.2c-0.2,0.8,0,1.8,0.1,2.5h0l-5-1.8c0,0-0.5-1.6-0.1-2.5L333.4,251.2z"/>
		</g>
	</g>
	<g id="XMLID_178_">
		<g>
			<polygon class="st35" points="347.5,244.7 351.7,246.3 351.8,246.3 345.6,247.8 340.6,246 			"/>
			<path class="st36" d="M351.8,246.3c0.6,1.2,0.2,2.5,0.2,2.5l-6.2,1.5c-0.2-0.7-0.4-1.7-0.1-2.5L351.8,246.3z"/>
			<path class="st37" d="M345.6,247.8c-0.2,0.8,0,1.8,0.1,2.5h0l-5-1.8c0,0-0.5-1.6-0.1-2.5L345.6,247.8z"/>
		</g>
	</g>
	<g id="XMLID_177_">
		<g>
			<polygon class="st35" points="359.1,242.8 363.3,244.3 363.3,244.4 357.2,245.9 352.2,244.1 			"/>
			<path class="st36" d="M363.3,244.4c0.6,1.2,0.2,2.5,0.2,2.5l-6.2,1.5c-0.2-0.7-0.4-1.7-0.1-2.5L363.3,244.4z"/>
			<path class="st37" d="M357.2,245.9c-0.2,0.8,0,1.8,0.1,2.5h0l-5-1.8c0,0-0.5-1.6-0.1-2.5L357.2,245.9z"/>
		</g>
	</g>
	<g id="XMLID_176_">
		<g>
			<polygon class="st35" points="371.3,240 375.5,241.6 375.6,241.6 369.4,243.1 364.4,241.3 			"/>
			<path class="st36" d="M375.6,241.6c0.6,1.2,0.2,2.5,0.2,2.5l-6.2,1.5c-0.2-0.7-0.4-1.7-0.1-2.5L375.6,241.6z"/>
			<path class="st37" d="M369.4,243.1c-0.2,0.8,0,1.8,0.1,2.5h0l-5-1.8c0,0-0.5-1.6-0.1-2.5L369.4,243.1z"/>
		</g>
	</g>
	<g id="XMLID_175_">
		<g>
			<polygon class="st35" points="382.9,238.1 387.1,239.6 387.1,239.7 381,241.2 376,239.4 			"/>
			<path class="st36" d="M387.1,239.7c0.6,1.2,0.2,2.5,0.2,2.5l-6.2,1.5c-0.2-0.7-0.4-1.7-0.1-2.5L387.1,239.7z"/>
			<path class="st37" d="M381,241.2c-0.2,0.8,0,1.8,0.1,2.5h0l-5-1.8c0,0-0.5-1.6-0.1-2.5L381,241.2z"/>
		</g>
	</g>
	<g id="XMLID_174_">
		<g>
			<polygon class="st35" points="393.5,235.5 397.7,237.1 397.7,237.1 391.5,238.6 386.6,236.9 			"/>
			<path class="st36" d="M397.7,237.1c0.6,1.2,0.2,2.5,0.2,2.5l-6.2,1.5c-0.2-0.7-0.4-1.7-0.1-2.5L397.7,237.1z"/>
			<path class="st37" d="M391.5,238.6c-0.2,0.8,0,1.8,0.1,2.5h0l-5-1.8c0,0-0.5-1.6-0.1-2.5L391.5,238.6z"/>
		</g>
	</g>
	<g id="XMLID_173_">
		<g>
			<polygon class="st35" points="405.1,233.6 409.3,235.2 409.3,235.2 403.1,236.7 398.2,234.9 			"/>
			<path class="st36" d="M409.3,235.2c0.6,1.2,0.2,2.5,0.2,2.5l-6.2,1.5c-0.2-0.7-0.4-1.7-0.1-2.5L409.3,235.2z"/>
			<path class="st37" d="M403.1,236.7c-0.2,0.8,0,1.8,0.1,2.5l0,0l-5-1.8c0,0-0.5-1.6-0.1-2.5L403.1,236.7z"/>
		</g>
	</g>
	<g id="XMLID_172_">
		<g>
			<polygon class="st35" points="417.3,230.8 421.5,232.4 421.5,232.4 415.3,233.9 410.4,232.2 			"/>
			<path class="st36" d="M421.5,232.4c0.6,1.2,0.2,2.5,0.2,2.5l-6.2,1.5c-0.2-0.7-0.4-1.7-0.1-2.5L421.5,232.4z"/>
			<path class="st37" d="M415.3,233.9c-0.2,0.8,0,1.8,0.1,2.5h0l-5-1.8c0,0-0.5-1.6-0.1-2.5L415.3,233.9z"/>
		</g>
	</g>
	<g id="XMLID_171_">
		<g>
			<polygon class="st35" points="428.9,228.9 433.1,230.5 433.1,230.5 426.9,232 422,230.2 			"/>
			<path class="st36" d="M433.1,230.5c0.6,1.2,0.2,2.5,0.2,2.5l-6.2,1.5c-0.2-0.7-0.4-1.7-0.1-2.5L433.1,230.5z"/>
			<path class="st37" d="M426.9,232c-0.2,0.8,0,1.8,0.1,2.5h0l-5-1.8c0,0-0.5-1.6-0.1-2.5L426.9,232z"/>
		</g>
	</g>
	<g id="XMLID_170_">
		<g>
			<polygon class="st35" points="310.5,259.9 314.7,261.4 314.7,261.5 308.5,263 303.6,261.2 			"/>
			<path class="st36" d="M314.7,261.5c0.6,1.2,0.2,2.5,0.2,2.5l-6.2,1.5c-0.2-0.7-0.4-1.7-0.1-2.5L314.7,261.5z"/>
			<path class="st37" d="M308.5,263c-0.2,0.8,0,1.8,0.1,2.5h0l-5-1.8c0,0-0.5-1.6-0.1-2.5L308.5,263z"/>
		</g>
	</g>
	<g id="XMLID_169_">
		<g>
			<polygon class="st35" points="322.1,257.9 326.3,259.5 326.3,259.5 320.1,261 315.2,259.3 			"/>
			<path class="st36" d="M326.3,259.5c0.6,1.2,0.2,2.5,0.2,2.5l-6.2,1.5c-0.2-0.7-0.4-1.7-0.1-2.5L326.3,259.5z"/>
			<path class="st37" d="M320.1,261c-0.2,0.8,0,1.8,0.1,2.5h0l-5-1.8c0,0-0.5-1.6-0.1-2.5L320.1,261z"/>
		</g>
	</g>
	<g id="XMLID_168_">
		<g>
			<polygon class="st35" points="334.3,255.2 338.5,256.7 338.5,256.8 332.3,258.3 327.4,256.5 			"/>
			<path class="st36" d="M338.5,256.8c0.6,1.2,0.2,2.5,0.2,2.5l-6.2,1.5c-0.2-0.7-0.4-1.7-0.1-2.5L338.5,256.8z"/>
			<path class="st37" d="M332.3,258.3c-0.2,0.8,0,1.8,0.1,2.5h0l-5-1.8c0,0-0.5-1.6-0.1-2.5L332.3,258.3z"/>
		</g>
	</g>
	<g id="XMLID_167_">
		<g>
			<polygon class="st35" points="345.9,253.3 350.1,254.8 350.1,254.9 343.9,256.3 339,254.6 			"/>
			<path class="st36" d="M350.1,254.9c0.6,1.2,0.2,2.5,0.2,2.5l-6.2,1.5c-0.2-0.7-0.4-1.7-0.1-2.5L350.1,254.9z"/>
			<path class="st37" d="M343.9,256.3c-0.2,0.8,0,1.8,0.1,2.5h0l-5-1.8c0,0-0.5-1.6-0.1-2.5L343.9,256.3z"/>
		</g>
	</g>
	<g id="XMLID_166_">
		<g>
			<polygon class="st35" points="358.1,249.9 362.3,251.4 362.3,251.5 356.1,253 351.2,251.2 			"/>
			<path class="st36" d="M362.3,251.5c0.6,1.2,0.2,2.5,0.2,2.5l-6.2,1.5c-0.2-0.7-0.4-1.7-0.1-2.5L362.3,251.5z"/>
			<path class="st37" d="M356.1,253c-0.2,0.8,0,1.8,0.1,2.5h0l-5-1.8c0,0-0.5-1.6-0.1-2.5L356.1,253z"/>
		</g>
	</g>
	<g id="XMLID_165_">
		<g>
			<polygon class="st35" points="369.7,247.9 373.9,249.5 373.9,249.5 367.7,251 362.8,249.3 			"/>
			<path class="st36" d="M373.9,249.5c0.6,1.2,0.2,2.5,0.2,2.5l-6.2,1.5c-0.2-0.7-0.4-1.7-0.1-2.5L373.9,249.5z"/>
			<path class="st37" d="M367.7,251c-0.2,0.8,0,1.8,0.1,2.5h0l-5-1.8c0,0-0.5-1.6-0.1-2.5L367.7,251z"/>
		</g>
	</g>
	<g id="XMLID_164_">
		<g>
			<polygon class="st35" points="381.9,245.2 386.1,246.8 386.1,246.8 379.9,248.3 375,246.5 			"/>
			<path class="st36" d="M386.1,246.8c0.6,1.2,0.2,2.5,0.2,2.5l-6.2,1.5c-0.2-0.7-0.4-1.7-0.1-2.5L386.1,246.8z"/>
			<path class="st37" d="M379.9,248.3c-0.2,0.8,0,1.8,0.1,2.5h0l-5-1.8c0,0-0.5-1.6-0.1-2.5L379.9,248.3z"/>
		</g>
	</g>
	<g id="XMLID_163_">
		<g>
			<polygon class="st35" points="393.5,243.3 397.7,244.8 397.7,244.9 391.5,246.3 386.6,244.6 			"/>
			<path class="st36" d="M397.7,244.9c0.6,1.2,0.2,2.5,0.2,2.5l-6.2,1.5c-0.2-0.7-0.4-1.7-0.1-2.5L397.7,244.9z"/>
			<path class="st37" d="M391.5,246.3c-0.2,0.8,0,1.8,0.1,2.5h0l-5-1.8c0,0-0.5-1.6-0.1-2.5L391.5,246.3z"/>
		</g>
	</g>
	<g id="XMLID_162_">
		<g>
			<polygon class="st35" points="404,240.7 408.2,242.3 408.3,242.3 402.1,243.8 397.1,242 			"/>
			<path class="st36" d="M408.3,242.3c0.6,1.2,0.2,2.5,0.2,2.5l-6.2,1.5c-0.2-0.7-0.4-1.7-0.1-2.5L408.3,242.3z"/>
			<path class="st37" d="M402.1,243.8c-0.2,0.8,0,1.8,0.1,2.5h0l-5-1.8c0,0-0.5-1.6-0.1-2.5L402.1,243.8z"/>
		</g>
	</g>
	<g id="XMLID_161_">
		<g>
			<polygon class="st35" points="415.6,238.8 419.8,240.3 419.9,240.4 413.7,241.9 408.7,240.1 			"/>
			<path class="st36" d="M419.9,240.4c0.6,1.2,0.2,2.5,0.2,2.5l-6.2,1.5c-0.2-0.7-0.4-1.7-0.1-2.5L419.9,240.4z"/>
			<path class="st37" d="M413.7,241.9c-0.2,0.8,0,1.8,0.1,2.5l0,0l-5-1.8c0,0-0.5-1.6-0.1-2.5L413.7,241.9z"/>
		</g>
	</g>
	<g id="XMLID_160_">
		<g>
			<polygon class="st35" points="427.9,236 432,237.6 432.1,237.6 425.9,239.1 420.9,237.4 			"/>
			<path class="st36" d="M432.1,237.6c0.6,1.2,0.2,2.5,0.2,2.5l-6.2,1.5c-0.2-0.7-0.4-1.7-0.1-2.5L432.1,237.6z"/>
			<path class="st37" d="M425.9,239.1c-0.2,0.8,0,1.8,0.1,2.5h0l-5-1.8c0,0-0.5-1.6-0.1-2.5L425.9,239.1z"/>
		</g>
	</g>
	<g id="XMLID_159_">
		<g>
			<polygon class="st35" points="439.4,234.1 443.6,235.7 443.7,235.7 437.5,237.2 432.5,235.4 			"/>
			<path class="st36" d="M443.7,235.7c0.6,1.2,0.2,2.5,0.2,2.5l-6.2,1.5c-0.2-0.7-0.4-1.7-0.1-2.5L443.7,235.7z"/>
			<path class="st37" d="M437.5,237.2c-0.2,0.8,0,1.8,0.1,2.5h0l-5-1.8c0,0-0.5-1.6-0.1-2.5L437.5,237.2z"/>
		</g>
	</g>
	<g id="XMLID_157_">
		<g>
			<polygon class="st35" points="321.5,264.6 325.7,266.2 325.7,266.2 319.5,267.7 314.6,266 			"/>
			<path class="st36" d="M325.7,266.2c0.6,1.2,0.2,2.5,0.2,2.5l-6.2,1.5c-0.2-0.7-0.4-1.7-0.1-2.5L325.7,266.2z"/>
			<path class="st37" d="M319.5,267.7c-0.2,0.8,0,1.8,0.1,2.5h0l-5-1.8c0,0-0.5-1.6-0.1-2.5L319.5,267.7z"/>
		</g>
	</g>
	<g id="XMLID_155_">
		<g>
			<polygon class="st35" points="333.1,262.7 337.3,264.3 337.3,264.3 331.1,265.8 326.2,264 			"/>
			<path class="st36" d="M337.3,264.3c0.6,1.2,0.2,2.5,0.2,2.5l-6.2,1.5c-0.2-0.7-0.4-1.7-0.1-2.5L337.3,264.3z"/>
			<path class="st37" d="M331.1,265.8c-0.2,0.8,0,1.8,0.1,2.5h0l-5-1.8c0,0-0.5-1.6-0.1-2.5L331.1,265.8z"/>
		</g>
	</g>
	<g id="XMLID_153_">
		<g>
			<polygon class="st35" points="345.3,259.9 349.5,261.5 349.5,261.5 343.3,263 338.4,261.3 			"/>
			<path class="st36" d="M349.5,261.5c0.6,1.2,0.2,2.5,0.2,2.5l-6.2,1.5c-0.2-0.7-0.4-1.7-0.1-2.5L349.5,261.5z"/>
			<path class="st37" d="M343.3,263c-0.2,0.8,0,1.8,0.1,2.5h0l-5-1.8c0,0-0.5-1.6-0.1-2.5L343.3,263z"/>
		</g>
	</g>
	<g id="XMLID_152_">
		<g>
			<polygon class="st35" points="356.9,258 361.1,259.6 361.1,259.6 354.9,261.1 350,259.3 			"/>
			<path class="st36" d="M361.1,259.6c0.6,1.2,0.2,2.5,0.2,2.5l-6.2,1.5c-0.2-0.7-0.4-1.7-0.1-2.5L361.1,259.6z"/>
			<path class="st37" d="M354.9,261.1c-0.2,0.8,0,1.8,0.1,2.5h0l-5-1.8c0,0-0.5-1.6-0.1-2.5L354.9,261.1z"/>
		</g>
	</g>
	<g id="XMLID_151_">
		<g>
			<polygon class="st35" points="369.1,254.6 373.3,256.2 373.3,256.2 367.1,257.7 362.2,256 			"/>
			<path class="st36" d="M373.3,256.2c0.6,1.2,0.2,2.5,0.2,2.5l-6.2,1.5c-0.2-0.7-0.4-1.7-0.1-2.5L373.3,256.2z"/>
			<path class="st37" d="M367.1,257.7c-0.2,0.8,0,1.8,0.1,2.5h0l-5-1.8c0,0-0.5-1.6-0.1-2.5L367.1,257.7z"/>
		</g>
	</g>
	<g id="XMLID_150_">
		<g>
			<polygon class="st35" points="380.7,252.7 384.9,254.3 384.9,254.3 378.7,255.8 373.8,254 			"/>
			<path class="st36" d="M384.9,254.3c0.6,1.2,0.2,2.5,0.2,2.5l-6.2,1.5c-0.2-0.7-0.4-1.7-0.1-2.5L384.9,254.3z"/>
			<path class="st37" d="M378.7,255.8c-0.2,0.8,0,1.8,0.1,2.5h0l-5-1.8c0,0-0.5-1.6-0.1-2.5L378.7,255.8z"/>
		</g>
	</g>
	<g id="XMLID_148_">
		<g>
			<polygon class="st35" points="392.9,249.9 397.1,251.5 397.1,251.5 390.9,253 386,251.3 			"/>
			<path class="st36" d="M397.1,251.5c0.6,1.2,0.2,2.5,0.2,2.5l-6.2,1.5c-0.2-0.7-0.4-1.7-0.1-2.5L397.1,251.5z"/>
			<path class="st37" d="M390.9,253c-0.2,0.8,0,1.8,0.1,2.5h0l-5-1.8c0,0-0.5-1.6-0.1-2.5L390.9,253z"/>
		</g>
	</g>
	<g id="XMLID_147_">
		<g>
			<polygon class="st35" points="404.5,248 408.7,249.6 408.7,249.6 402.5,251.1 397.6,249.3 			"/>
			<path class="st36" d="M408.7,249.6c0.6,1.2,0.2,2.5,0.2,2.5l-6.2,1.5c-0.2-0.7-0.4-1.7-0.1-2.5L408.7,249.6z"/>
			<path class="st37" d="M402.5,251.1c-0.2,0.8,0,1.8,0.1,2.5h0l-5-1.8c0,0-0.5-1.6-0.1-2.5L402.5,251.1z"/>
		</g>
	</g>
	<g id="XMLID_146_">
		<g>
			<polygon class="st35" points="415,245.5 419.2,247 419.2,247.1 413.1,248.6 408.1,246.8 			"/>
			<path class="st36" d="M419.2,247.1c0.6,1.2,0.2,2.5,0.2,2.5l-6.2,1.5c-0.2-0.7-0.4-1.7-0.1-2.5L419.2,247.1z"/>
			<path class="st37" d="M413.1,248.6c-0.2,0.8,0,1.8,0.1,2.5h0l-5-1.8c0,0-0.5-1.6-0.1-2.5L413.1,248.6z"/>
		</g>
	</g>
	<g id="XMLID_145_">
		<g>
			<polygon class="st35" points="426.6,243.5 430.8,245.1 430.8,245.1 424.7,246.6 419.7,244.9 			"/>
			<path class="st36" d="M430.8,245.1c0.6,1.2,0.2,2.5,0.2,2.5l-6.2,1.5c-0.2-0.7-0.4-1.7-0.1-2.5L430.8,245.1z"/>
			<path class="st37" d="M424.7,246.6c-0.2,0.8,0,1.8,0.1,2.5l0,0l-5-1.8c0,0-0.5-1.6-0.1-2.5L424.7,246.6z"/>
		</g>
	</g>
	<g id="XMLID_144_">
		<g>
			<polygon class="st35" points="438.8,240.8 443,242.4 443.1,242.4 436.9,243.9 431.9,242.1 			"/>
			<path class="st36" d="M443.1,242.4c0.6,1.2,0.2,2.5,0.2,2.5l-6.2,1.5c-0.2-0.7-0.4-1.7-0.1-2.5L443.1,242.4z"/>
			<path class="st37" d="M436.9,243.9c-0.2,0.8,0,1.8,0.1,2.5h0l-5-1.8c0,0-0.5-1.6-0.1-2.5L436.9,243.9z"/>
		</g>
	</g>
	<g id="XMLID_143_">
		<g>
			<polygon class="st35" points="450.4,238.9 454.6,240.4 454.6,240.5 448.5,242 443.5,240.2 			"/>
			<path class="st36" d="M454.6,240.5c0.6,1.2,0.2,2.5,0.2,2.5l-6.2,1.5c-0.2-0.7-0.4-1.7-0.1-2.5L454.6,240.5z"/>
			<path class="st37" d="M448.5,242c-0.2,0.8,0,1.8,0.1,2.5h0l-5-1.8c0,0-0.5-1.6-0.1-2.5L448.5,242z"/>
		</g>
	</g>
</g>
<g>
	<path class="st38" d="M433.4,250.5c-3.1,0.1-6.1,0.3-9.1,0.5c-0.1-0.6-0.2-1.2-0.3-1.8c-0.5-2.6-0.9-5.2-1.4-7.5
		c0-0.3-0.1-0.6-0.2-0.9c-0.1-0.7-0.3-1.4-0.4-2c-3.6-18.5-4.3-38.9,3.9-56.5c2.9-6.2,7.7-16.1,11.5-8.3l-2,0.3
		c-9.6,16.6-6.4,41.3-4.5,58.7c0.2,1.4,0.3,2.8,0.5,4.3c0.2,1.6,0.4,3.3,0.6,5c0.3,2.2,0.6,4.5,1,6.7
		C433.2,249.5,433.3,250,433.4,250.5z"/>
	<path class="st38" d="M424.2,251c3-0.2,6.1-0.4,9.1-0.5c1,5.7,2.3,11.3,4.1,16.6c1.9,5.4,4.3,10.4,7.5,14.6
		c0.1,1.1,1.1,3.9,2.2,6.3c-4.7-0.8-10-2.9-13.2-6c-2.2-3.1-3.9-6.9-5.2-11.1C428.8,270.8,425.2,256.6,424.2,251z"/>
	<path class="st4" d="M464.7,281.2c-5.6,1.8-12.3,4-17,6.9c-0.2,0-0.4-0.1-0.5-0.1c-1.1-2.4-2.2-5.2-2.2-6.3
		c-3.2-4.2-5.6-9.2-7.5-14.6c-1.8-5.3-3.1-10.9-4.1-16.6c5.3-0.2,10.7-0.2,15.8,0c1.8,5.2,4,10.2,6.4,15c0.9,1.8,1.8,3.5,2.7,5.3
		C460.3,274.4,462.4,277.9,464.7,281.2z"/>
	<path class="st4" d="M446.6,243c0.5,1.8,1.2,3.7,1.8,5.5c0.2,0.7,0.5,1.3,0.7,2c-5.2-0.2-10.5-0.2-15.8,0c-0.1-0.5-0.2-1-0.3-1.5
		c-0.4-2.3-0.7-4.5-1-6.7c-0.2-1.7-0.4-3.4-0.6-5c-0.2-1.5-0.3-2.9-0.5-4.3c-1.9-17.3-5.1-42.1,4.5-58.7l2-0.3
		c0.1,0.3,0.3,0.6,0.4,1c3.4,9.6,1.3,24.5,1.9,34.9c0.9,8.2,2.4,16.7,4.6,25.2C445,237.7,445.7,240.4,446.6,243z"/>
	<path class="st39" d="M383.8,284.4c-3.3,9.3,3,12.5,10.3,15.6c13.6,5.3,28.3,4.3,43,3.9c21.4-0.7,41.5-2.2,58.3-16.4
		c2.6,3.3,3.2,6.8,0.2,10.1c-0.7,0.7-1.6,1.5-2.7,2.3c-8.6,5.7-19.6,9.1-31.2,10.8c-17.5,2.6-36.5,1.6-50.9-0.4
		c-11.7-1.6-44.1-10.7-26.6-26.6C384.1,283.8,383.9,284.1,383.8,284.4z"/>
	<path class="st34" d="M334,99.7c-0.9,0.1-1.8,0.1-2.6,0.1c-0.7-7.2-1.2-14.2-1.6-21c60.5-6.9,184.3-19.4,212.9-23
		c-8.3,30.7-16.9,63.4-24.2,96.5c-1,4.7-2,9.3-3,13.9c-17.6-22.2-46.2-35.3-74.7-45.7C405.8,107.9,371.1,97.9,334,99.7z"/>
	<path class="st33" d="M515.4,166.2c-4.1,19.6-7.7,39.2-10.5,58.4c-16.4,2.9-38.1,6.6-60.6,10.4c-2.3-8.5-3.8-17-4.6-25.2
		c-0.6-10.4,1.5-25.2-1.9-34.9c-0.1-0.4-0.3-0.7-0.4-1c-3.8-7.8-8.6,2.1-11.5,8.3c-8.2,17.7-7.5,38.1-3.9,56.5
		c-4.3,0.7-8.6,1.4-12.8,2.2c-20.4,3.4-39.2,6.6-52.9,9c-0.4,0-0.8,0-1.1,0c-0.8-4-1.6-8-2.5-12.2c-8.1-41-16.9-91.5-21.2-135.6
		c0.8-0.8,1.6-1.6,2.5-2.4c37.1-1.8,71.8,8.2,106.7,20.8C469.1,130.9,497.8,144,515.4,166.2z"/>
	<path class="st40" d="M490.2,282.5c2.1,1.5,3.9,3.2,5.2,4.8c-16.8,14.3-36.9,15.7-58.3,16.4c-14.7,0.5-29.4,1.4-43-3.9
		c-7.3-3.1-13.6-6.2-10.3-15.6c0.1-0.3,0.2-0.6,0.4-0.8c0.4-0.4,0.9-0.8,1.4-1.2c0.5-0.4,1-0.7,1.5-1.1c5-3.4,11.7-5.7,18.7-7.2
		c-1.4,1.3-2.6,2.8-3.3,4.4c-7.4,16.4,12.3,19,24.3,19.3C442.8,298.8,477.7,297.4,490.2,282.5z"/>
	<path class="st34" d="M471.5,273.1c5.5,1.8,13.1,5.3,18.7,9.4c-12.5,14.9-47.4,16.3-63.3,15.2c-12-0.3-31.7-2.9-24.3-19.3
		c0.7-1.6,1.8-3.1,3.3-4.4c7.8-1.8,16-2.5,22.4-2.9l0.6-0.2c1.4,4.2,3,8,5.2,11.1c3.1,3.1,8.4,5.2,13.2,6c0.1,0.1,0.1,0.2,0.2,0.3
		c0.1-0.1,0.2-0.2,0.4-0.2c4.7-2.9,11.4-5.1,17-6.9c-2.3-3.3-4.4-6.8-6.4-10.5c3.1,0.5,6.2,0.7,8.9,1.2
		C468.4,272.2,469.9,272.6,471.5,273.1z"/>
	<path class="st4" d="M355.1,250c0,0.1,0,0.1,0,0.2c-5,0.9-9.3,1.6-12.6,2.3c-0.2-0.7-0.3-1.5-0.5-2.2c-1-4.3-2-8.7-3-13.2
		c-7.9-36-16.5-79.1-21.9-118.6c4.1-5.7,9.2-11.3,14.2-16.3c4.2,44.2,13.1,94.6,21.2,135.6C353.5,241.9,354.3,246,355.1,250z"/>
	<path class="st33" d="M331.4,99.8c0.9-0.1,1.8-0.1,2.6-0.1c-0.8,0.8-1.6,1.6-2.5,2.4C331.5,101.4,331.4,100.6,331.4,99.8z"/>
	<path class="st4" d="M331.4,99.8c0,0.7,0.1,1.5,0.2,2.3c-5.1,5-10.1,10.6-14.2,16.3c-1.8-13.1-3.2-25.7-4.1-37.6
		c4.7-0.6,10.3-1.2,16.6-1.9C330.1,85.6,330.7,92.6,331.4,99.8z"/>
</g>
<g>
	<path class="st41" d="M183,328c-0.7,0.1-1.5,0-2.2,0c-0.3,0-0.3-0.4,0.1-0.4c0.6,0,1.1-0.2,1.6-0.4c-3.1-4.8-8.6-9.3-13.9-12.3
		c-0.3,0-0.5-0.1-0.6-0.3c-5.1-2.6-10.2-4.5-15.4-6c-0.3,0.1-0.6,0-0.8-0.2c-11.8-3.2-23.9-3.8-36.9-3.8c-6.4,1.3-12.4,2.8-17.5,4.4
		c20.1,7.3,45.9,39.1,44.4,39.6c-1.1,0.4,28.8-6.8,41.7-9.2C185.9,335.9,185.3,331.9,183,328z M132.7,320.1c-0.4,0-0.7,0-1.1,0.1
		c-1.3,0.3-1.6-1.4-0.3-1.7c0.6-0.1,1.1-0.1,1.7-0.1C134.3,318.6,134,320.2,132.7,320.1z M136.8,312.4c-1.2,0.8-3,0.8-4.5,0.9
		c-0.7,0.1-1.1-0.8-0.3-1c1.5-0.5,3.2-1.1,4.7-0.6C137,311.8,137.1,312.2,136.8,312.4z M139.5,317.1c1.1-0.7,2.8-0.4,4.1-0.6
		c0.2,0,0.3,0.2,0.1,0.3c-1.1,0.5-2.7,1.2-4,1C139.4,317.7,139.2,317.3,139.5,317.1z M140,321.3c5-0.7,9.9-1.8,15-2.3
		c0.3,0,0.5,0.3,0.2,0.4c-4.9,1.4-9.9,1.8-15,2.4C139.7,321.8,139.6,321.3,140,321.3z M162.6,331.2c-2.6,1.2-5.8,1.4-8.7,2
		c-3,0.6-6.1,1.4-8.8,2.8c-0.3,0.1-0.5-0.2-0.3-0.4c2.3-1.7,4.9-2.6,7.9-3.2c3.1-0.7,6.4-1.5,9.6-1.8
		C162.8,330.5,163,331,162.6,331.2z M164.2,325.6c-7.8,0.9-15.3,2.6-22.9,4.3c-0.2,0-0.2-0.2,0-0.2c7.5-1.6,15.1-5.5,23-5.4
		C165.1,324.3,165.1,325.4,164.2,325.6z M174.2,329.5c-0.8,1.3-3.3,1.6-4.9,1.9c-0.9,0.1-1.3-0.8-0.7-1.2c1.1-0.8,3.5-1.7,5-1.4
		C174,328.8,174.4,329.1,174.2,329.5z M176.6,322.4c-1,0.8-2.4,0.6-3.7,0.7c-1.1,0.1-1.2-1-0.2-1.3c1.2-0.3,2.6-0.6,3.8-0.3
		C176.9,321.7,177,322.2,176.6,322.4z"/>
	<path class="st42" d="M168.9,295.9c-12.9,2.1-35.1,4.9-53.9,8.8c13,0,25,0.5,36.9,3.8c-0.2-0.3-0.2-0.6,0.3-0.8
		c1.4-0.6,3.8-1.4,5.2-0.8c0.2,0.1,0.3,0.3,0.1,0.5c-0.6,0.5-1,0.5-1.8,0.6c-1,0.2-2,0.4-2.9,0.7c0,0,0,0-0.1,0
		c5.1,1.4,10.2,3.4,15.4,6c-0.1-0.3,0-0.7,0.5-0.8c1.9-0.5,3.9-1,5.8-1.4c1.8-0.4,3.7-1.1,5.6-1c0.4,0,0.5,0.4,0.2,0.7
		c-1.5,1.1-3.7,1.4-5.6,1.7c-1.9,0.4-3.9,0.7-5.9,1.1c-0.1,0-0.1,0-0.1,0c5.3,2.9,10.8,7.5,13.9,12.3c0.4-0.1,0.9-0.3,1.4-0.2
		c0.4,0,0.5,0.4,0.2,0.7c-0.3,0.2-0.7,0.3-1.1,0.4c2.3,3.9,3,7.9,0.7,11.5c0.8-0.1,1.4-0.3,2.1-0.4c13.8-2.7,28.6-5.2,42.3-7.8
		C204.4,318.7,168.9,295.9,168.9,295.9z M189,319c-1.2,0.8-2.6,1.4-4,2c-0.6,0.3-1.1-0.5-0.4-0.8c1.4-0.5,2.7-1.1,4.1-1.5
		C189,318.6,189.2,318.9,189,319z M192.2,327.3c-0.8,0.4-1.7-0.5-0.9-0.9c0.8-0.4,1.6-0.5,2.4-0.1c0.3,0.2,0.2,0.5-0.1,0.7
		C193.3,327.1,192.5,327.2,192.2,327.3z"/>
	<path class="st43" d="M162.3,330.5c-3.2,0.3-6.5,1.2-9.6,1.8c-3,0.6-5.6,1.5-7.9,3.2c-0.2,0.2,0,0.5,0.3,0.4
		c2.7-1.4,5.8-2.1,8.8-2.8c2.9-0.6,6.1-0.8,8.7-2C163,331,162.8,330.5,162.3,330.5z"/>
	<path class="st43" d="M173.6,328.7c-1.5-0.3-3.9,0.7-5,1.4c-0.7,0.5-0.2,1.4,0.7,1.2c1.6-0.3,4.1-0.6,4.9-1.9
		C174.4,329.1,174,328.8,173.6,328.7z"/>
	<path class="st43" d="M180.8,328c0.7,0,1.5,0.1,2.2,0c0.4-0.1,0.8-0.2,1.1-0.4c0.3-0.2,0.2-0.6-0.2-0.7c-0.5,0-0.9,0.1-1.4,0.2
		c-0.5,0.2-1,0.4-1.6,0.4C180.5,327.6,180.4,328,180.8,328z"/>
	<path class="st43" d="M193.8,326.4c-0.8-0.5-1.6-0.3-2.4,0.1c-0.8,0.4,0.1,1.3,0.9,0.9c0.3-0.2,1.1-0.2,1.4-0.3
		C194,326.9,194,326.5,193.8,326.4z"/>
	<path class="st43" d="M164.2,324.3c-7.9-0.2-15.5,3.7-23,5.4c-0.2,0-0.1,0.3,0,0.2c7.7-1.7,15.1-3.4,22.9-4.3
		C165.1,325.4,165.1,324.3,164.2,324.3z"/>
	<path class="st43" d="M172.7,321.8c-1,0.2-0.8,1.4,0.2,1.3c1.3-0.1,2.6,0.1,3.7-0.7c0.3-0.3,0.3-0.7-0.1-0.8
		C175.3,321.2,173.9,321.5,172.7,321.8z"/>
	<path class="st43" d="M184.6,320.2c-0.6,0.3-0.2,1.1,0.4,0.8c1.3-0.6,2.7-1.2,4-2c0.2-0.2,0-0.4-0.3-0.3
		C187.3,319.1,185.9,319.7,184.6,320.2z"/>
	<path class="st43" d="M154.9,318.9c-5,0.5-10,1.6-15,2.3c-0.4,0.1-0.3,0.5,0.1,0.5c5.1-0.6,10.1-1,15-2.4
		C155.4,319.3,155.2,318.9,154.9,318.9z"/>
	<path class="st43" d="M168.6,314.9c0.1,0,0.1,0,0.1,0c2-0.4,3.9-0.7,5.9-1.1c1.9-0.4,4.1-0.7,5.6-1.7c0.3-0.2,0.2-0.6-0.2-0.7
		c-1.9-0.1-3.8,0.6-5.6,1c-1.9,0.4-3.9,0.9-5.8,1.4c-0.5,0.1-0.6,0.5-0.5,0.8C168.1,314.8,168.3,314.9,168.6,314.9z"/>
	<path class="st43" d="M143.6,316.5c-1.4,0.2-3-0.1-4.1,0.6c-0.4,0.2-0.1,0.6,0.2,0.7c1.3,0.2,2.9-0.5,4-1
		C144,316.7,143.9,316.5,143.6,316.5z"/>
	<path class="st43" d="M133,318.5c-0.6,0-1.1,0-1.7,0.1c-1.3,0.2-1,2,0.3,1.7c0.4-0.1,0.7-0.1,1.1-0.1
		C134,320.2,134.3,318.6,133,318.5z"/>
	<path class="st43" d="M131.9,312.3c-0.7,0.2-0.3,1,0.3,1c1.5-0.1,3.3-0.1,4.5-0.9c0.3-0.2,0.2-0.6-0.1-0.7
		C135.1,311.2,133.4,311.9,131.9,312.3z"/>
	<path class="st43" d="M152.7,308.6C152.7,308.6,152.7,308.6,152.7,308.6c1-0.4,2-0.6,3-0.7c0.8-0.1,1.2-0.1,1.8-0.6
		c0.2-0.2,0.2-0.4-0.1-0.5c-1.4-0.6-3.8,0.2-5.2,0.8c-0.4,0.2-0.5,0.5-0.3,0.8C152.1,308.6,152.3,308.7,152.7,308.6z"/>
</g>
<g>
	<path class="st24" d="M189.1,323c-0.7,0.1-1.5,0-2.2,0c-0.3,0-0.3-0.4,0.1-0.4c0.6,0,1.1-0.2,1.7-0.4c-3.1-4.8-8.6-9.3-13.9-12.3
		c-0.3,0-0.5-0.1-0.6-0.3c-5.1-2.6-10.2-4.5-15.4-6c-0.3,0.1-0.6,0-0.8-0.2c-11.8-3.2-23.9-3.8-36.9-3.8c-6.4,1.3-12.4,2.8-17.5,4.4
		c20.1,7.3,45.9,39.1,44.4,39.6c-1.1,0.4,28.8-6.8,41.7-9.2C192,331,191.4,326.9,189.1,323z M138.8,315.1c-0.4,0-0.7,0-1.1,0.1
		c-1.3,0.3-1.6-1.4-0.3-1.7c0.6-0.1,1.1-0.1,1.7-0.1C140.4,313.6,140.1,315.2,138.8,315.1z M142.9,307.4c-1.2,0.8-3,0.8-4.5,0.9
		c-0.7,0.1-1.1-0.8-0.3-1c1.5-0.5,3.2-1.1,4.7-0.6C143.1,306.8,143.2,307.2,142.9,307.4z M145.6,312.1c1.1-0.7,2.8-0.4,4.1-0.6
		c0.2,0,0.3,0.2,0.1,0.3c-1.1,0.5-2.7,1.2-4,1C145.5,312.7,145.3,312.4,145.6,312.1z M146.1,316.3c5-0.7,9.9-1.8,15-2.3
		c0.3,0,0.5,0.3,0.2,0.4c-4.9,1.4-9.9,1.8-15,2.4C145.8,316.8,145.7,316.3,146.1,316.3z M168.7,326.2c-2.6,1.2-5.8,1.4-8.7,2
		c-3,0.6-6.1,1.4-8.8,2.8c-0.3,0.1-0.5-0.2-0.3-0.4c2.3-1.7,4.9-2.6,7.9-3.2c3.1-0.7,6.4-1.5,9.6-1.8
		C168.9,325.5,169.1,326,168.7,326.2z M170.3,320.6c-7.8,0.9-15.3,2.6-22.9,4.3c-0.2,0-0.2-0.2,0-0.2c7.5-1.6,15.1-5.5,23-5.4
		C171.2,319.3,171.2,320.5,170.3,320.6z M180.3,324.5c-0.8,1.3-3.3,1.6-4.9,1.9c-0.9,0.1-1.3-0.8-0.7-1.2c1.1-0.8,3.5-1.7,5-1.4
		C180.1,323.8,180.5,324.1,180.3,324.5z M182.7,317.4c-1,0.8-2.4,0.6-3.7,0.7c-1.1,0.1-1.2-1-0.2-1.3c1.2-0.3,2.6-0.6,3.8-0.3
		C183,316.7,183.1,317.2,182.7,317.4z"/>
	<path class="st41" d="M175,290.9c-12.9,2.1-35.1,4.9-53.9,8.8c13,0,25,0.6,36.9,3.8c-0.2-0.3-0.2-0.6,0.3-0.8
		c1.4-0.6,3.8-1.4,5.2-0.8c0.2,0.1,0.3,0.3,0.1,0.5c-0.6,0.5-1,0.5-1.8,0.6c-1,0.2-2,0.4-2.9,0.7c0,0,0,0-0.1,0
		c5.1,1.4,10.2,3.4,15.4,6c-0.1-0.3,0-0.7,0.5-0.8c1.9-0.5,3.9-1,5.8-1.4c1.8-0.4,3.7-1.1,5.6-1c0.4,0,0.5,0.5,0.2,0.7
		c-1.5,1.1-3.7,1.4-5.6,1.7c-1.9,0.4-3.9,0.7-5.9,1.1c-0.1,0-0.1,0-0.1,0c5.3,2.9,10.8,7.5,13.9,12.3c0.4-0.1,0.9-0.3,1.4-0.2
		c0.4,0,0.5,0.4,0.2,0.7c-0.3,0.2-0.7,0.3-1.1,0.4c2.3,3.9,3,7.9,0.7,11.5c0.8-0.1,1.4-0.3,2.1-0.4c13.8-2.7,28.6-5.2,42.3-7.8
		C210.5,313.8,175,290.9,175,290.9z M195.1,314c-1.2,0.8-2.6,1.4-4,2c-0.6,0.3-1.1-0.5-0.4-0.8c1.4-0.5,2.7-1.1,4.1-1.5
		C195.1,313.6,195.3,313.9,195.1,314z M198.3,322.3c-0.8,0.4-1.7-0.5-0.9-0.9c0.8-0.4,1.6-0.5,2.4-0.1c0.3,0.2,0.2,0.5-0.1,0.7
		C199.4,322.2,198.6,322.2,198.3,322.3z"/>
	<path class="st44" d="M168.4,325.6c-3.2,0.3-6.5,1.2-9.6,1.8c-3,0.6-5.6,1.5-7.9,3.2c-0.2,0.2,0,0.5,0.3,0.4
		c2.7-1.4,5.8-2.1,8.8-2.8c2.9-0.6,6.1-0.8,8.7-2C169.1,326,168.9,325.5,168.4,325.6z"/>
	<path class="st44" d="M179.7,323.7c-1.5-0.3-3.9,0.7-5,1.4c-0.7,0.5-0.2,1.4,0.7,1.2c1.6-0.3,4.1-0.6,4.9-1.9
		C180.5,324.1,180.1,323.8,179.7,323.7z"/>
	<path class="st44" d="M186.9,323c0.7,0,1.5,0.1,2.2,0c0.4-0.1,0.8-0.2,1.1-0.4c0.3-0.2,0.2-0.6-0.2-0.7c-0.5,0-0.9,0.1-1.4,0.2
		c-0.5,0.2-1,0.4-1.7,0.4C186.6,322.6,186.5,323,186.9,323z"/>
	<path class="st44" d="M199.9,321.4c-0.8-0.5-1.6-0.3-2.4,0.1c-0.8,0.4,0.1,1.3,0.9,0.9c0.3-0.1,1.1-0.2,1.4-0.3
		C200.1,321.9,200.2,321.5,199.9,321.4z"/>
	<path class="st44" d="M170.3,319.3c-7.9-0.2-15.5,3.7-23,5.4c-0.2,0-0.1,0.3,0,0.2c7.7-1.7,15.1-3.4,22.9-4.3
		C171.2,320.5,171.2,319.3,170.3,319.3z"/>
	<path class="st44" d="M178.8,316.9c-1,0.2-0.8,1.4,0.2,1.3c1.3-0.1,2.6,0.1,3.7-0.7c0.3-0.3,0.3-0.7-0.1-0.8
		C181.4,316.2,180,316.6,178.8,316.9z"/>
	<path class="st44" d="M190.7,315.2c-0.6,0.3-0.2,1.1,0.4,0.8c1.3-0.6,2.7-1.2,4-2c0.2-0.2,0-0.4-0.3-0.3
		C193.4,314.1,192,314.7,190.7,315.2z"/>
	<path class="st44" d="M161,314c-5,0.5-10,1.6-15,2.3c-0.4,0.1-0.3,0.5,0.1,0.5c5.1-0.6,10.1-1,15-2.4
		C161.5,314.3,161.3,313.9,161,314z"/>
	<path class="st44" d="M174.7,309.9c0.1,0,0.1,0,0.1,0c2-0.4,3.9-0.7,5.9-1.1c1.9-0.4,4.1-0.7,5.6-1.7c0.3-0.2,0.2-0.6-0.2-0.7
		c-1.9-0.1-3.8,0.6-5.6,1c-1.9,0.4-3.9,0.9-5.8,1.4c-0.5,0.1-0.6,0.5-0.5,0.8C174.2,309.8,174.4,309.9,174.7,309.9z"/>
	<path class="st44" d="M149.8,311.5c-1.4,0.2-3-0.1-4.1,0.6c-0.4,0.2-0.1,0.6,0.2,0.7c1.3,0.2,2.9-0.5,4-1
		C150.1,311.8,150,311.5,149.8,311.5z"/>
	<path class="st44" d="M139.1,313.5c-0.6,0-1.1,0-1.7,0.1c-1.3,0.2-1,2,0.3,1.7c0.4-0.1,0.7-0.1,1.1-0.1
		C140.1,315.2,140.4,313.6,139.1,313.5z"/>
	<path class="st44" d="M138,307.3c-0.7,0.2-0.3,1.1,0.3,1c1.5-0.1,3.3-0.1,4.5-0.9c0.3-0.2,0.2-0.6-0.1-0.7
		C141.2,306.2,139.5,306.9,138,307.3z"/>
	<path class="st44" d="M158.8,303.7C158.8,303.7,158.8,303.7,158.8,303.7c1-0.4,2-0.6,3-0.7c0.8-0.1,1.2-0.1,1.8-0.6
		c0.2-0.2,0.2-0.4-0.1-0.5c-1.4-0.6-3.8,0.2-5.2,0.8c-0.4,0.2-0.5,0.5-0.3,0.8C158.2,303.6,158.5,303.8,158.8,303.7z"/>
</g>
<g>
	<g>
		<polygon class="st20" points="158.9,276.5 149.6,278 156.6,286 164.6,283.2 		"/>
		<path class="st20" d="M149.3,277.7c-7.8,2.3-20,9.1-20.2,11.3c-0.2,2.2,2.7,3,2.7,3s-1.1,2.2-0.3,3.5c0.8,1.4,3.2,1.1,3.2,1.1
			s-1.1,2.3,0.3,3.5c1.4,1.2,3.1,0.5,3.1,0.5c0,1.9,1.6,5.7,10.3-4.2c4.4-4.9,7-10.1,8.7-10.7C159,284.2,149.3,277.7,149.3,277.7z"
			/>
	</g>
	<path class="st16" d="M229.1,264.6c-4.8-24.2-74.9,11.9-74.9,11.9l5.5,8.8C159.8,285.3,234.3,290.5,229.1,264.6z"/>
</g>
<g>
	<path class="st16" d="M67.8,272.4c13.6-20.6,68.7,42.9,68.7,42.9l-8.5,6.1C128.1,321.3,53.3,294.4,67.8,272.4z"/>
	<path class="st12" d="M130.9,319.3c-4.5-1.6-73.9-27.5-59.8-48.8c0.5-0.7,1.1-1.1,1.7-1.6c-1.9,0.6-3.6,1.6-4.9,3.5
		c-14.5,22.1,60.3,49,60.3,49L130.9,319.3z"/>
</g>
<polygon class="st45" points="154.6,328.7 153.8,322.7 131,285 128.9,286.2 149.5,324 "/>
<path class="st20" d="M126.4,327c0,0-2.7-2.1-2.7-3.7s2-3,2-3s-2.5-1.6-2.4-4.3c0.2-3.2,3-3.2,3-3.2s-1.9-3.5-0.5-5.5
	c1.4-2,4.3-1.8,4.3-1.8s-0.6-2.8,1.5-4.1c4.7-3,23.9,11.9,21.1,14.9c-2.8,3.1-13.6-5.9-14-4.7c-0.3,1.2,16.4,7.2,14.9,11.2
	c-1.3,3.7-16.9-5-16.9-5s14.7,5.9,12.5,9.4c-2.1,3.4-15.2-2.8-15.2-2.8s6.8,2.5,6.5,4.5C140.5,330.9,131.5,329.2,126.4,327z"/>
</svg>
