<?xml version="1.0" encoding="utf-8"?>
<!-- Generator: Adobe Illustrator 24.0.3, SVG Export Plug-In . SVG Version: 6.00 Build 0)  -->
<svg version="1.1" id="Layer_1" xmlns="http://www.w3.org/2000/svg" xmlns:xlink="http://www.w3.org/1999/xlink" x="0px" y="0px"
	 width="480px" height="600px" viewBox="0 0 480 600" style="enable-background:new 0 0 480 600;" xml:space="preserve">
<style type="text/css">
	.st0{fill:#FFCC7B;}
	.st1{fill:#F7AE66;}
	.st2{fill:#B86851;}
	.st3{fill:#333333;}
	.st4{fill:#FFFFFF;}
	.st5{fill:#B2B2B2;}
	.st6{fill:url(#SVGID_1_);}
	.st7{opacity:0.5;fill:#808080;}
	.st8{fill:#B6B8BA;}
	.st9{fill:#069D48;}
	.st10{fill:#666666;}
	.st11{fill:#4D4D4D;}
	.st12{opacity:0.93;fill:url(#SVGID_2_);}
	.st13{fill:none;stroke:#808080;stroke-width:5.0674;stroke-miterlimit:10;}
	.st14{fill:#569C1D;}
	.st15{fill:url(#SVGID_3_);}
	.st16{fill:url(#SVGID_4_);}
	.st17{fill:url(#SVGID_5_);}
	.st18{fill:#D5C9C9;}
	.st19{opacity:0.5;fill:#AD8D94;}
	.st20{fill:#FFF392;}
	.st21{opacity:0.48;fill:url(#SVGID_6_);}
	.st22{opacity:0.48;fill:url(#SVGID_7_);}
	.st23{opacity:0.5;fill:#810000;}
	.st24{clip-path:url(#SVGID_9_);}
	.st25{fill:#ED9558;}
	.st26{fill:#303047;}
	.st27{fill:#CE6F09;}
	.st28{fill:#BA5604;}
	.st29{fill:#4C211E;}
	.st30{fill:#2D313D;}
	.st31{fill:#FFB476;}
	.st32{fill:#73859B;}
	.st33{fill:#F4E6E1;}
	.st34{fill:#EAD9D0;}
	.st35{fill:#D6B5A7;}
	.st36{fill:#D87239;}
	.st37{fill:#E08344;}
	.st38{fill:#93271C;}
	.st39{fill:#9A6335;}
	.st40{fill:#D5B698;}
	.st41{fill:#3D3D5B;}
	.st42{fill:#323249;}
	.st43{fill:#822D0F;}
	.st44{fill:#933914;}
	.st45{fill:#F4E4EC;}
	.st46{fill:#E5C3DA;}
	.st47{fill:#DBB4D1;}
	.st48{fill:#EDD9E4;}
	.st49{fill:#E0C3C1;}
	.st50{clip-path:url(#SVGID_11_);}
	.st51{fill:#E2C5B5;}
	.st52{fill:#CEA895;}
	.st53{fill:#FFC397;}
	.st54{fill:#F7A27C;}
	.st55{fill:#6D635A;}
	.st56{fill:#60554D;}
	.st57{fill:#4F453E;}
	.st58{fill:#FFF0E6;}
	.st59{fill:#FFE0CF;}
	.st60{fill:#FFCD9C;}
	.st61{fill:#F4AD7D;}
	.st62{fill:#A04B20;}
	.st63{fill:#CC5885;}
	.st64{fill:#B5632C;}
	.st65{fill:#E2B186;}
	.st66{fill:#D1986D;}
	.st67{fill:#75675A;}
	.st68{fill:#5B4D42;}
	.st69{fill:#EACEBB;}
	.st70{fill:#F2D5B8;}
	.st71{fill:#EDC5A4;}
	.st72{opacity:0.5;fill:#BC5642;}
	.st73{fill:#EF8F6F;}
	.st74{fill:#542C23;}
	.st75{fill:#FFF5EB;}
	.st76{fill:#C96953;}
	.st77{fill:#B55241;}
	.st78{fill:#FFAE85;}
	.st79{fill:#FFCD5C;}
	.st80{fill:#FFB255;}
	.st81{fill:#995B7A;}
	.st82{fill:#F99C48;}
	.st83{fill:#C48CA0;}
	.st84{fill:#AA6A87;}
	.st85{fill:#F9F0DE;}
	.st86{fill:#FFEAE6;}
	.st87{fill:#99432E;}
	.st88{fill:#966E7C;}
	.st89{fill:#8C6272;}
	.st90{fill:#845366;}
	.st91{fill:#9FCEFC;}
	.st92{fill:#D9EEFF;}
	.st93{fill:#85BBE8;}
	.st94{opacity:0.6;fill:#CAE7FF;}
	.st95{fill:#E2D0D7;}
	.st96{fill:#915943;}
	.st97{fill:#7F4432;}
	.st98{fill:#D8583A;}
	.st99{fill:#C14229;}
	.st100{fill:#FAB280;}
	.st101{fill:#FFB781;}
	.st102{fill:#FFB882;}
	.st103{fill:#EA7B59;}
	.st104{fill:#39170B;}
	.st105{fill:#FFF4EA;}
</style>
<title>Artboard 23</title>
<polygon class="st0" points="490,-12.9 -10.2,-11.8 -10.2,637.8 501.1,637.8 "/>
<g>
	<rect x="496.7" y="-19.3" class="st1" width="2.1" height="559.5"/>
	<rect x="332.6" y="-19.3" class="st1" width="2.1" height="559.5"/>
	<rect x="168.5" y="-19.3" class="st1" width="2.1" height="559.5"/>
	<rect x="4.4" y="-19.3" class="st1" width="2.1" height="559.5"/>
	<rect x="414.6" y="-19.3" class="st1" width="2.1" height="559.5"/>
	<rect x="250.5" y="-19.3" class="st1" width="2.1" height="559.5"/>
	<rect x="86.5" y="-19.3" class="st1" width="2.1" height="559.5"/>
</g>
<rect x="-16.7" y="468.6" class="st2" width="524" height="190"/>
<g>
	<g>
		<g>
			<polygon points="69.5,395.8 14.3,100.6 528.4,103.7 470.8,390.1 			"/>
			<polygon class="st3" points="64.4,368.8 474,373.9 470.8,390.1 69.5,395.8 			"/>
			<polygon class="st3" points="69.5,395.8 51.4,395.8 -8.4,109.5 14.3,100.6 			"/>
			<polygon class="st4" points="83.2,351.2 48.2,121.7 502.3,121.7 456.6,357.6 			"/>
			<polygon class="st5" points="75.8,373.7 466.4,378.4 472.3,382.5 79.2,388.6 			"/>
			<linearGradient id="SVGID_1_" gradientUnits="userSpaceOnUse" x1="20.4843" y1="223.9646" x2="303.2904" y2="223.9646">
				<stop  offset="0" style="stop-color:#8A7500"/>
				<stop  offset="1" style="stop-color:#000000"/>
			</linearGradient>
			<polygon class="st6" points="64.4,343.8 20.5,104.1 303.3,109.5 38.9,116.5 			"/>
			<polygon class="st7" points="295.5,388.6 333.4,373.7 464.1,376.7 449.7,386.7 			"/>
			<polygon class="st8" points="69.5,121.7 491.5,128.5 448.7,357.5 456.6,357.6 502.3,121.7 			"/>
			<g>
				<g>
					<path class="st9" d="M196.8,145.8c-1.4,0-2.6,0.8-3.4,2.5c-0.8,1.7-1.2,4-1.2,7c0,6.3,1.6,9.4,4.9,9.4c1.4,0,2.9-0.5,4.5-1.4
						v4.5c-1.3,0.9-3,1.3-5.1,1.3c-3,0-5.4-1.2-7-3.6c-1.6-2.4-2.5-5.8-2.5-10.2c0-4.4,0.8-7.8,2.5-10.3s4-3.7,7-3.7
						c1,0,1.9,0.1,2.8,0.4c0.9,0.3,1.9,0.7,2.9,1.4l-1.7,4.1c-0.6-0.4-1.1-0.7-1.8-1C198.2,146,197.5,145.8,196.8,145.8z"/>
					<path class="st9" d="M220.3,158.5c0,3.4-0.7,6-2.1,7.9c-1.4,1.9-3.4,2.8-5.9,2.8c-1.6,0-3-0.4-4.2-1.3s-2.1-2.1-2.8-3.7
						c-0.7-1.6-1-3.5-1-5.7c0-3.3,0.7-6,2.1-7.8c1.4-1.9,3.4-2.8,5.9-2.8c2.4,0,4.4,1,5.8,2.9S220.3,155.2,220.3,158.5z
						 M209.4,158.5c0,2.1,0.2,3.8,0.7,4.9s1.2,1.6,2.3,1.6c2,0,3-2.2,3-6.5c0-2.2-0.2-3.8-0.7-4.8c-0.5-1.1-1.2-1.6-2.2-1.6
						c-1,0-1.8,0.5-2.3,1.6C209.6,154.7,209.4,156.3,209.4,158.5z"/>
					<path class="st9" d="M244.2,168.8v-12.3c0-3-0.7-4.5-2.2-4.5c-1.1,0-1.9,0.5-2.3,1.6s-0.7,2.8-0.7,5.2v10h-5v-12.3
						c0-3-0.8-4.5-2.3-4.5c-1.1,0-1.8,0.5-2.3,1.6c-0.5,1.1-0.7,2.8-0.7,5.3v9.9h-4.9v-20.6h3.9l0.6,2.6h0.3c0.5-1,1.2-1.8,2-2.3
						c0.9-0.5,1.8-0.7,2.7-0.7c2.5,0,4.2,1.2,5,3.6h0.2c1-2.4,2.7-3.6,5.1-3.6c1.8,0,3.2,0.6,4.2,1.9c0.9,1.3,1.4,3.2,1.4,5.6v13.5
						H244.2z"/>
					<path class="st9" d="M264.3,168.8l-0.6-2.6h-0.3c-0.5,0.9-1.1,1.7-2,2.2c-0.8,0.5-1.8,0.8-2.9,0.8c-1.9,0-3.3-0.6-4.2-1.9
						c-1-1.3-1.4-3.1-1.4-5.6v-13.5h5v12.3c0,1.5,0.2,2.6,0.5,3.4s0.9,1.1,1.7,1.1c1.1,0,1.8-0.5,2.3-1.6c0.5-1.1,0.7-2.8,0.7-5.3
						v-9.9h5v20.6H264.3z"/>
					<path class="st9" d="M282.6,168.8v-12.3c0-1.5-0.2-2.6-0.5-3.4s-0.9-1.1-1.7-1.1c-1.1,0-1.8,0.5-2.3,1.6s-0.7,2.8-0.7,5.3v9.9
						h-4.9v-20.6h3.9l0.6,2.6h0.3c0.4-1,1.1-1.7,1.9-2.2c0.8-0.5,1.8-0.8,2.9-0.8c1.9,0,3.3,0.6,4.2,1.9c0.9,1.3,1.4,3.2,1.4,5.6
						v13.5H282.6z"/>
					<path class="st9" d="M291.4,142.8c0-0.8,0.2-1.5,0.7-1.9c0.5-0.5,1.1-0.7,2-0.7c0.8,0,1.4,0.2,1.9,0.7c0.5,0.5,0.7,1.1,0.7,1.9
						c0,0.8-0.2,1.5-0.7,2s-1.1,0.7-1.9,0.7c-0.8,0-1.5-0.2-2-0.7S291.4,143.7,291.4,142.8z M296.5,168.8h-4.9v-20.6h4.9V168.8z"/>
					<path class="st9" d="M307.6,169.2c-2.5,0-4.3-0.9-5.6-2.7c-1.3-1.8-1.9-4.4-1.9-7.9c0-3.6,0.6-6.3,1.8-8.1s3.1-2.7,5.6-2.7
						c0.8,0,1.6,0.1,2.4,0.3c0.8,0.2,1.6,0.5,2.3,1l-1.4,3.8c-1-0.6-1.9-0.9-2.7-0.9c-1,0-1.8,0.5-2.3,1.6s-0.7,2.7-0.7,4.9
						c0,2.1,0.2,3.7,0.7,4.8c0.5,1.1,1.2,1.6,2.2,1.6c1.2,0,2.5-0.4,3.9-1.3v4.3C310.6,168.8,309.1,169.2,307.6,169.2z"/>
					<path class="st9" d="M324.9,168.8l-1-2.8h-0.1c-0.7,1.2-1.5,2-2.3,2.5c-0.8,0.5-1.8,0.7-2.9,0.7c-1.5,0-2.7-0.6-3.6-1.7
						c-0.9-1.1-1.3-2.7-1.3-4.7c0-2.2,0.6-3.8,1.8-4.8c1.2-1.1,3-1.6,5.3-1.7l2.7-0.1v-1.5c0-1.9-0.8-2.9-2.5-2.9
						c-1.2,0-2.7,0.5-4.3,1.4l-1.7-3.4c2-1.3,4.3-1.9,6.7-1.9c2.2,0,3.8,0.6,5,1.9c1.1,1.3,1.7,3,1.7,5.3v13.8H324.9z M320.6,165.4
						c0.9,0,1.6-0.4,2.2-1.2c0.5-0.8,0.8-1.9,0.8-3.2v-1.7l-1.5,0.1c-1.1,0.1-1.9,0.4-2.5,1c-0.5,0.6-0.8,1.4-0.8,2.6
						C318.8,164.5,319.4,165.4,320.6,165.4z"/>
					<path class="st9" d="M337.9,169.2c-1.9,0-3.4-0.9-4.5-2.8s-1.6-4.5-1.6-7.8c0-3.4,0.5-6,1.6-7.9s2.6-2.8,4.4-2.8
						c0.9,0,1.7,0.2,2.4,0.7s1.3,1.2,1.9,2.3h0.3c-0.1-1.9-0.2-3.2-0.2-3.9V140h4.9v28.8h-3.7l-0.8-2.7h-0.2
						C341.4,168.2,339.9,169.2,337.9,169.2z M339.5,165c0.9,0,1.6-0.4,2-1.2c0.4-0.8,0.6-2.3,0.7-4.5v-0.6c0-2.4-0.2-4.1-0.6-5.1
						c-0.4-1-1.1-1.5-2.1-1.5c-0.9,0-1.6,0.6-2,1.7c-0.4,1.1-0.6,2.7-0.6,4.9s0.2,3.7,0.6,4.8C337.9,164.5,338.6,165,339.5,165z"/>
					<path class="st9" d="M366.6,158.5c0,3.4-0.7,6-2.1,7.9s-3.4,2.8-5.9,2.8c-1.6,0-3-0.4-4.2-1.3c-1.2-0.9-2.1-2.1-2.8-3.7
						c-0.7-1.6-1-3.5-1-5.7c0-3.3,0.7-6,2.1-7.8c1.4-1.9,3.4-2.8,5.9-2.8c2.4,0,4.4,1,5.8,2.9C365.8,152.6,366.6,155.2,366.6,158.5z
						 M355.6,158.5c0,2.1,0.2,3.8,0.7,4.9s1.2,1.6,2.3,1.6c2,0,3-2.2,3-6.5c0-2.2-0.2-3.8-0.7-4.8c-0.5-1.1-1.2-1.6-2.2-1.6
						c-1,0-1.8,0.5-2.3,1.6C355.8,154.7,355.6,156.3,355.6,158.5z"/>
				</g>
			</g>
		</g>
		<polygon class="st10" points="217.7,388.6 175.2,485.1 285.9,485.1 271.4,388.6 		"/>
		<polygon class="st3" points="205.5,416.3 225.9,427.6 219.6,485.1 175.2,485.1 		"/>
		<polygon class="st11" points="119.5,485.1 103.1,460.6 511.3,460.6 502.3,485.1 		"/>
		<polygon class="st3" points="20.5,485.1 14.3,465.6 103.1,460.6 119.5,485.1 		"/>
	</g>
	<g>
		
			<radialGradient id="SVGID_2_" cx="438.1852" cy="485.2894" r="35.228" gradientTransform="matrix(1 0 0 0.398 0 188.0191)" gradientUnits="userSpaceOnUse">
			<stop  offset="0" style="stop-color:#8A7500"/>
			<stop  offset="1" style="stop-color:#000000"/>
		</radialGradient>
		<ellipse class="st12" cx="438.2" cy="381.2" rx="35.2" ry="14"/>
		<polygon class="st4" points="425,383.9 424.5,378.4 448.9,378.4 447.7,383.9 		"/>
	</g>
	<line class="st13" x1="110.3" y1="215.4" x2="440.3" y2="212.6"/>
	<line class="st13" x1="110.2" y1="195.4" x2="440.1" y2="192.6"/>
	<rect x="128.8" y="242.1" class="st14" width="132.5" height="85.5"/>
	<rect x="282.8" y="242.1" class="st14" width="132.5" height="85.5"/>
</g>
<g>
	
		<linearGradient id="SVGID_3_" gradientUnits="userSpaceOnUse" x1="473.7323" y1="465.4686" x2="669.1928" y2="465.4686" gradientTransform="matrix(1 0 0 1 -656.8646 8.3494)">
		<stop  offset="0" style="stop-color:#970020"/>
		<stop  offset="1" style="stop-color:#F8003F"/>
	</linearGradient>
	<polygon class="st15" points="-183.1,457.9 -183.1,494 6.4,490.7 12.3,453.6 	"/>
	
		<linearGradient id="SVGID_4_" gradientUnits="userSpaceOnUse" x1="96.4034" y1="467.2025" x2="174.2289" y2="467.2025" gradientTransform="matrix(-1 0 0 1 184.9478 0)">
		<stop  offset="0" style="stop-color:#970020"/>
		<stop  offset="1" style="stop-color:#F8003F"/>
	</linearGradient>
	<polygon class="st16" points="88.5,477 12.3,453.6 10.7,462.1 86.6,480.8 	"/>
	
		<linearGradient id="SVGID_5_" gradientUnits="userSpaceOnUse" x1="96.4034" y1="488.3195" x2="178.7323" y2="488.3195" gradientTransform="matrix(-1 0 0 1 184.9478 0)">
		<stop  offset="0" style="stop-color:#970020"/>
		<stop  offset="1" style="stop-color:#F8003F"/>
	</linearGradient>
	<polygon class="st17" points="6.2,485.9 88.5,485.9 88.5,489.3 28.8,489.5 6.4,490.7 	"/>
	<polygon class="st18" points="83.2,480 83.2,485.9 6.2,485.9 10.7,462.1 	"/>
	<polygon class="st19" points="83.2,483.7 20.2,471.5 18.7,477.6 63.9,483.7 20.2,480.8 18.7,486.5 6.2,485.9 10.7,462.1 83.2,480 	
		"/>
	<polygon class="st20" points="-162.9,457.5 -162.9,493.7 -145.4,493.1 -147,457.1 	"/>
	<polygon class="st20" points="-21.1,454.3 -21.1,491.2 -34.7,491.4 -34.7,454.6 	"/>
	
		<linearGradient id="SVGID_6_" gradientUnits="userSpaceOnUse" x1="509.7945" y1="478.1346" x2="509.7945" y2="452.8524" gradientTransform="matrix(1 0 0 1 -656.8646 8.3494)">
		<stop  offset="0" style="stop-color:#000000"/>
		<stop  offset="1" style="stop-color:#FB6B6B"/>
	</linearGradient>
	<polygon class="st21" points="-178.1,462.1 -130.7,461.2 -116,486.5 -176.7,482.6 	"/>
	
		<linearGradient id="SVGID_7_" gradientUnits="userSpaceOnUse" x1="546.1602" y1="476.429" x2="546.1602" y2="453.4969" gradientTransform="matrix(1 0 0 1 -656.8646 8.3494)">
		<stop  offset="0" style="stop-color:#000000"/>
		<stop  offset="1" style="stop-color:#FB6B6B"/>
	</linearGradient>
	<polygon class="st22" points="-127.9,461.8 -106.9,461.8 -93.5,484.8 -113.2,484.4 	"/>
	<polygon class="st23" points="-183.1,484.8 -39.7,477.1 -13.1,454.2 12.3,453.6 6.4,490.7 -183.1,494 	"/>
</g>
<g>
	<defs>
		<rect id="SVGID_8_" x="128.8" y="242.1" width="132.5" height="85.5"/>
	</defs>
	<clipPath id="SVGID_9_">
		<use xlink:href="#SVGID_8_"  style="overflow:visible;"/>
	</clipPath>
	<g class="st24">
		<g>
			<g>
				<g id="wrist_left_8_">
					<path class="st25" d="M209.2,338c0,0,0.4,0.9,0.5,1.7c0.1,0.7,0.1,2,0.1,2.5c0,0.5,0,0.7,0,0.7c-0.1,0.1-0.5,0.1-0.5-0.7
						s-0.2-1.9-0.2-1.9L209.2,338z"/>
					<path class="st25" d="M207.8,337.8c0,0-1.1,2.6-1.3,4.7c-0.2,2.1-0.1,2.4,0.1,2.4c0.2,0,0.2-0.4,0.3-1.1c0,0,0.2-1.1,0.3-1.1
						c0.1,0,0,1.2-0.1,1.4c0,0.2-0.2,1.7,0.1,1.7c0.3,0,0.4-1,0.4-1.6c0,0,0.2-1.4,0.3-1.4c0.1,0-0.1,1.3-0.1,1.5
						c0,0.2-0.2,1.8,0.1,1.8c0.3,0,0.4-0.3,0.5-1.7c0,0,0.1-1.6,0.2-1.6c0.2,0-0.2,2.7,0.2,2.8c0.2,0,0.3-0.6,0.3-1.4
						c0.1-0.8,0.1-1.1,0.1-1.7c0-2.3,0-4.6,0-4.6S208.5,336.9,207.8,337.8z"/>
				</g>
			</g>
			<path class="st26" d="M203.4,290.6c4.7,2.4,8.5,37,6.8,48l-2.6-0.2c0,0-3.3-15.8-4.2-21.9C202.4,310.6,199.3,288.6,203.4,290.6z"
				/>
		</g>
		<path class="st27" d="M188.3,280.3c0,0-4.5-1.2-6.8-7.8c-2.2-6.6-1.1-13,1.8-13.3c0,0,1.4-6.7,11.4-4.4c8.6,1.9,10,7.5,10.2,9
			c0.3,2-2.1,5-2.1,5L188.3,280.3z"/>
		<path class="st28" d="M191.6,272.4l-6.9-6.5c-2.4,0-3.6-1.1-4.3-2.2c-0.3,2.4,0,5.5,1.1,8.7c2.2,6.6,6.8,7.8,6.8,7.8l2.8-2.3
			L191.6,272.4z"/>
		<path class="st28" d="M204.9,263.9c-0.6-0.7-1.8-1.7-3-1.9c0,0-1.3,6.7-0.2,7.7l1.2-1C202.8,268.7,205,265.9,204.9,263.9z"/>
		<path class="st28" d="M185.7,278.8c0,0,0.2,0.9-1.8,2c-2.1,1.2-3.8,1.1-4.3,2.4c-0.5,1.4,0.9,2.1,0.9,2.1s-2.4,1.8-2.5,3.5
			c-0.1,1.8,1.7,2.9,1.5,4.5c-0.2,1.6-2.3,0.8-2.3,0.8s1.4,2.6,5,0.6s8-5.4,7.2-15C188.3,275.9,185.7,278.8,185.7,278.8z"/>
		<polygon class="st29" points="185.1,278.5 184.6,280.1 188.8,281.5 189.3,279.9 		"/>
		<g>
			<path class="st30" d="M199,430.8c0,0,2.6,1.1,2.6,1.6c0,0.5-3.3,0.6-5.4,0.4c-1-0.1-0.8-3.2-1.5-4.9c-0.7-1.7-1.6-1.7,0.6-4.7
				l1.4,6.1L199,430.8z"/>
			<path class="st25" d="M197.1,423c0,0,0.5,2.4,0.9,4c0.4,1.9,0.6,3,1,3.9c0,0-1.3,0.6-2.3,0.2c-1-0.4-0.8-2.7-2.3-5.3
				c-0.5-0.9,1-2.7,1-2.7L197.1,423z"/>
			<path class="st30" d="M195.3,423.2c0,0-0.2,1.2,0,2.3c0.1,1.1,0.6,6.6,3.7,5.4c0,0-1.1,2.1-2.3,1.4c-1.2-0.7-1.3-3.3-1.8-4.6
				C194.4,426.3,193.1,426,195.3,423.2z"/>
			<path class="st30" d="M194,426.4c0,0,0.5,2.7,0.4,6.5l0.4,0c0,0,0-2.8,0.4-4.3L194,426.4z"/>
		</g>
		<g>
			<path class="st30" d="M190.4,430.8c0,0,2.6,1.1,2.6,1.6c0,0.5-3.3,0.6-5.4,0.4c-1-0.1-0.8-3.2-1.5-4.9c-0.7-1.7-1.6-1.7,0.6-4.7
				l1.4,6.1L190.4,430.8z"/>
			<path class="st31" d="M188.5,423c0,0,0.5,2.4,0.9,4c0.4,1.9,0.6,3,1,3.9c0,0-1.3,0.6-2.3,0.2c-1-0.4-0.8-2.7-2.3-5.3
				c-0.5-0.9,1-2.7,1-2.7L188.5,423z"/>
			<path class="st30" d="M186.8,423.2c0,0-0.2,1.2,0,2.3c0.1,1.1,0.6,6.6,3.7,5.4c0,0-1.1,2.1-2.3,1.4c-1.2-0.7-1.3-3.3-1.8-4.6
				C185.8,426.3,184.5,426.1,186.8,423.2z"/>
			<path class="st30" d="M185.4,426.4c0,0,0.5,2.7,0.4,6.5l0.4,0c0,0,0-2.8,0.4-4.3L185.4,426.4z"/>
		</g>
		<path class="st32" d="M199.6,315.3c-2.7-3.6,5.7-10,5.9-12.1c0.3-2-1.6-6.5-1.6-6.5l-0.5-5.9c-9.6-3.9-14.3-3-22.7,0.8
			c0,0-1,3.5,1.3,10.1c2.3,6.5,8.6,10.2,6.8,13.6C188.8,315.3,198.7,320.7,199.6,315.3z"/>
		<path class="st33" d="M199.6,315.3c3.9,6.1,6.3,12.1,7.8,16.9c-8.9,3.1-18.3,2.8-28.1,0.1c2.1-5.8,5.8-12.5,9.4-16.7
			c0,0,0.1-0.1,0.1-0.1c0,0,0.1-0.1,0.1-0.1c0,0,0.1-0.1,0.1-0.1c1.9-3.4-4.5-7.1-6.8-13.6c-2.3-6.7-1.3-10.1-1.3-10.1
			c8.4-3.8,13.1-4.7,22.7-0.8l0.5,5.9c0,0,1.9,4.4,1.6,6.5C205.3,305.2,196.9,311.7,199.6,315.3z"/>
		<path class="st34" d="M207.4,332.2c-1.4-4.8-3.8-10.8-7.8-16.9c-2.6-3.5,5.1-9.6,5.9-11.8c-1.5,0.6-8.3,3-21.6,2
			c2.7,4.3,6.4,7.2,5,9.9c0,0,0,0.1-0.1,0.1c0,0-0.1,0.1-0.1,0.1c0,0-0.1,0.1-0.1,0.1c-3.6,4.1-7.3,10.9-9.4,16.7
			C189,335,198.4,335.2,207.4,332.2z"/>
		<path class="st35" d="M194.3,291.4c0.2,0.5,2.9,11.1,3.1,13.2c0.3,2.3-1.8,8.3-1.8,9.9c0,0.5,0.4,2.2,1,4.3
			c1,3.9,2.5,9.5,3.2,15.1c-0.2,0-0.3,0-0.5,0.1c-0.7-5.6-2.2-11.2-3.2-15c-0.6-2.3-1-3.8-1-4.4c0-1.7,2.1-7.8,1.8-9.8
			c-0.2-2.1-3.1-13.1-3.1-13.2L194.3,291.4z"/>
		<path class="st36" d="M187.3,276.7c0,0,2.7,7,0.3,12.8c0,0,2.7,2.1,5.7,2.1c1.8,0,3.8-0.9,3.8-0.9s-2.4-5.3-1.7-10.2
			C195.9,276.8,187.3,276.7,187.3,276.7z"/>
		<path class="st31" d="M197.5,284c0.8-0.1,2-1.7,2.8-2.6c1.7-1.8,3.2-3.9,1.9-8.4c0,0,2.9-11.8-6.7-12.3c-9.6-0.5-10.7,9-8.2,16.1
			C189.7,283.7,196.7,284.1,197.5,284z"/>
		<path class="st25" d="M193.2,260.9c-6.7,1.5-6.6,22,4.5,23.2c0,0-0.1,0-0.1,0c-0.8,0.1-7.8-0.3-10.2-7.3
			C185.1,270.4,185.8,262,193.2,260.9z"/>
		<g>
			<path class="st25" d="M184.4,275.3c0,1.4,1.2,2,2.1,2c1.1,0,2-0.9,2-2.1c0-1.1-0.9-2-2.1-2C185.3,273.3,184.4,274.2,184.4,275.3z
				"/>
			<path class="st36" d="M186.5,274c0.3,0,0.6,0.1,0.8,0.3c-0.1,0-0.2-0.1-0.3-0.1c-0.6,0-1.1,0.5-1.1,1.1c0,0.6,0.5,1.1,1.1,1.1
				c0.1,0,0.2,0,0.3-0.1c-0.2,0.1-0.4,0.2-0.7,0.2c-0.7,0-1.3-0.6-1.3-1.3C185.2,274.6,185.7,274,186.5,274z"/>
		</g>
		<path class="st37" d="M198.7,269c0,0-1.8,1.8-1.4,4.1c0.4,2.3,2.4,2.8,2.4,2.8s-0.5,1.7-2,1.7s1.2-1.6,1.2-1.6s-2.1-1.2-2.3-2.9
			C196.3,270.7,198.7,269,198.7,269z"/>
		<path class="st28" d="M194.3,268.5c0,0.2-0.8,0.2-2.4,0.6c-1.5,0.3-2.5,0.9-2.6,0.6c-0.1-0.2,0.7-1,2.4-1.4
			C193.4,267.9,194.2,268,194.3,268.5z"/>
		<path class="st27" d="M189.3,260.5l0.8,0.5c15-5.4,12.7,7.7,12.7,7.7c-1.1-7.6-8.4-5.6-12-6.7c-0.8,0.4-2.4,1.6-2.8,4.4
			c-0.5,3.6,0.4,7.3-0.4,7.4c-0.4,0.1-1.5-0.7-1.5-0.7S182.5,261.7,189.3,260.5z"/>
		<path class="st28" d="M202.6,269.8c0,0.2-0.7-0.3-1.8-0.6c-1.1-0.3-1.9-0.5-1.8-0.7c0.1-0.6,1.8-0.2,2.4,0.1
			C202.5,269.1,202.6,269.7,202.6,269.8z"/>
		<g>
			<path class="st38" d="M194,279c0,0.1-0.3,0.1-0.3,0c-0.1,0-0.1-0.1-0.1-0.2c0-0.1,0.1-0.1,0.2-0.1
				C193.9,278.8,194.1,278.9,194,279z"/>
			<path class="st38" d="M199.9,278.8c0,0.1,0.3,0,0.3-0.1c0.1,0,0.1-0.1,0-0.2c0-0.1-0.1-0.1-0.2,0
				C200,278.6,199.9,278.8,199.9,278.8z"/>
			<path class="st39" d="M193.9,278.9l6.2-0.2c0,0-1,1.9-3,2C195.1,280.8,193.9,278.9,193.9,278.9z"/>
			<path class="st38" d="M193.9,278.9l6.2-0.2c0,0-1,1.9-3,2C195.1,280.8,193.9,278.9,193.9,278.9z"/>
			<path class="st33" d="M194.3,279.1l5-0.1c0,0-0.9,1.6-2.6,1.6C195.1,280.4,194.3,279.1,194.3,279.1z"/>
			<path class="st40" d="M194.3,279.1l5-0.1l-0.3,0.4c0,0-0.5-0.3-2.2-0.2c-1.7,0.1-2.3,0.3-2.3,0.3S194.4,279.2,194.3,279.1z"/>
		</g>
		<path class="st28" d="M193.7,261.6c3.4,0,6.2-0.2,8.7,0.5c2.3,2.6,0.5,6.6,0.5,6.6c-0.3-2.3-1.2-3.7-2.4-4.6
			c-2.7-2-10.1-0.4-12.2-3.8C188.2,260.3,190.3,261.6,193.7,261.6z"/>
		<path class="st28" d="M190.8,262c-0.8,0.4-2.3,1.7-2.8,4.3c-0.5,3.6,0.4,7.3-0.4,7.4c-0.4,0.1-1.5-0.7-1.5-0.7s-1.7-3.7-1.4-7.2
			c0.7,0,1.6-0.3,2.3-1.2C189.2,262.2,190.4,261.6,190.8,262z"/>
		<path class="st41" d="M199.6,314.6c-2.1-3.2,5.9-9.4,6.2-11.3c0.3-2-1.7-6.8-1.7-6.8c0-2.3-0.7-5.9-0.7-5.9
			c-1.3-0.5-2.5-1-3.6-1.3c0,0.1,1.9,9.8,1.3,14.2c-0.6,4.4-3.6,9.2-3.3,11.2c0.4,2,4.9,10.2,5.9,17.4c0,0,1.9-0.4,3.6-1
			C204.6,322.8,199.9,315.1,199.6,314.6z"/>
		<path class="st41" d="M182.1,301.7c2,5.7,6.6,10.7,6.7,12.4c0.1,1.7-5.7,7.5-9.2,17.1c1.4,0.6,5.6,1.9,13.5,2.2
			c0,0-0.9-12.7-0.5-18.9c0.2-3.4,0.9-5,0.4-9.3c-0.6-5.1-8.2-15.1-8.3-15.3c-1.6,0.6-2.3,0.7-4,1.6
			C180,294.6,181,298.7,182.1,301.7z"/>
		<path class="st42" d="M192.7,314.4c0.2-3.3,0.9-4.9,0.4-8.9c-2.8,0.1-6,0-9.5-0.4c2.2,4.2,5.1,7.6,5.2,8.9
			c0.1,1.7-5.7,7.5-9.2,17.1c1.4,0.6,5.6,1.9,13.5,2.2C193.1,333.4,192.2,320.6,192.7,314.4z"/>
		<path class="st42" d="M203.7,332.1c0,0,1.9-0.4,3.6-1c-2.6-8.2-7.3-15.9-7.6-16.4c-2-3.1,5.2-8.9,6.1-11c-0.7,0.2-2.4,0.7-4.9,1.2
			c-0.9,4.1-3.4,8.2-3,9.9C198.1,316.7,202.6,324.9,203.7,332.1z"/>
		<path class="st41" d="M180.7,291.4c4.6-1.6,2.5,7.7-0.2,15.8c-2.3,6.8-3.6,12.6-6.9,11.8C168.7,317.8,175.7,293.2,180.7,291.4z"/>
		<g>
			<path class="st31" d="M195.5,316.3c0.8-0.8,1.5-1,2.1-1.5c0.6-0.5,1-0.9,1.2-0.7c0.7,0.7-1.7,1.4-0.6,1.9c1.3,0.6,3,0.2,3.1,0.7
				c0.1,0.7-1.6,0.2-1.6,0.4c-0.1,0.2,1.6,0.1,1.7,0.5c0.1,0.7-1.8,0-1.8,0.2c0,0.1,1.6,0.1,1.5,0.7c-0.1,0.5-1.6,0-1.7,0
				c0,0.2,1,0.1,0.8,0.6c-0.2,0.5-3.9-0.5-4.6-1.2C194.8,317.1,195.5,316.3,195.5,316.3z"/>
		</g>
		<polygon class="st31" points="195.5,316.3 192.3,316.3 192.4,318.8 195.7,318.1 		"/>
		<path class="st41" d="M172.6,318.2c2.9,4.6,20.8,1,20.8,1l-0.2-3.3c0,0-11.2-0.8-14.9-2.2L172.6,318.2z"/>
		<path class="st31" d="M200.2,289.5c0.4-0.4,2.3-0.3,2.8,0c0.5,0.3,1.1,0.8,1,1.3c0,0.4-0.5,1-1,1.5c-0.5,0.6-0.8,1.1-1.1,1
			c-0.2-0.1,0.1-0.7,0.4-1.2c0.2-0.4,0.7-1.2,0.6-1.2c-0.1-0.1-0.8,0.9-1.1,1.5c-0.4,0.7-0.6,1.4-0.9,1.3c-0.2-0.1-0.1-0.9,0.2-1.6
			c0.2-0.6,0.8-1.4,0.7-1.5c-0.1-0.1-0.6,0.7-0.9,1.3c-0.3,0.7-0.5,1.5-0.7,1.4c-0.2-0.1-0.2-1,0-1.7c0.1-0.6,0.6-1.3,0.5-1.4
			c0-0.1-0.4,0.5-0.5,0.9c-0.2,0.5-0.3,1.3-0.5,1.2c-0.2-0.1-0.2-0.7-0.1-1.4C199.8,290.2,200.1,289.7,200.2,289.5z"/>
	</g>
	<g class="st24">
		<path class="st43" d="M217.9,285c0,0-3.5,3.8-0.4,6.9s4.2-6.6,4.2-6.6L217.9,285z"/>
		<polygon class="st31" points="245.9,302 247.8,298.6 248.9,299.3 248,303.3 		"/>
		<path class="st44" d="M212.9,273c0,0-6-8.4-0.3-12c0,0-1.1-3,2.5-5.1c5.9-3.5,14.5-0.6,16.8,3.4c3.6-1.8,6.6,4,4.2,6.7
			c2.9,1.5,5.8,6.7,0.8,10.7c3.9,4.3,2.5,10.2-2.2,11.8c0,0,3,3.5,0.8,5.7c-2.2,2.2-13-2-13-2l-0.5-12.5L212.9,273z"/>
		<path class="st43" d="M212.6,261c-5.7,3.5,0.3,12,0.3,12l0.2,0.1l1.6-9C213.3,263.1,212.6,261,212.6,261z"/>
		<path class="st43" d="M236.1,266.1c1.6-1.9,0.8-5.1-1.1-6.5c1.8,2.9-1.9,2.8-1.9,2.8s1,3.2-2.1,4.9c-3,1.7-4.2-0.9-4.2-0.9
			c-1.8-2.4-3.7-1.5-8.8-2.5c-5.1-1-5.4-4.8-5.4-4.8c-0.3,1.1,0.1,2,0.1,2c-0.8,0.5-1.4,1.1-1.7,1.7c-0.2,2.4,0.1,5.3,0.4,7.4
			c0.7,1.6,1.6,2.8,1.6,2.8l9.2,6.7l0.5,12.5c0,0,10.8,4.2,13,2c2.2-2.2-0.8-5.7-0.8-5.7c4.7-1.5,6.1-7.5,2.2-11.8
			C242,272.8,239,267.5,236.1,266.1z"/>
		<path class="st45" d="M227.6,312.9c0.1-1.1,4.1-4.7,6.1-9.7c2.5-6.5,1.6-9.9,1.6-9.9c-8.1-3.9-12.7-4.9-22.2-1.3l-0.6,5.8
			c0,0-2,4.3-1.8,6.3c0.7,2.8,6.6,7.7,6.6,10.7L227.6,312.9z"/>
		<path class="st46" d="M227.6,312.9c0.1-1,3.7-4.3,6.6-10c-17.2,3.2-23.6,1.2-23.6,1.2l0.2,0.8c1,2.4,6.4,7.2,6.4,9.8L227.6,312.9z
			"/>
		<path class="st41" d="M211.4,331.9c1.4-9.2,5.8-14.2,5.9-17.2l10.4-1.8c-0.2,1.6,8.1,7.3,11.6,15.7c0,0,6.9,12.9-4.7,46.2
			c-5.7,3-13.8,1.6-13.8,1.6C208.7,345.1,211.4,331.9,211.4,331.9z"/>
		<path class="st25" d="M228.6,277.1c0,0-2.5,8.4-0.7,14.3c0,0-3.6,1.2-5.6,1.2c-1.7,0-3.5-1-3.5-1s1.4-3.6,1.2-8.6
			C219.9,279.4,228.6,277.1,228.6,277.1z"/>
		<path class="st36" d="M219.6,288.2c0.2-1.2,0.4-2.8,0.4-4.5c2.3-2.5,7-4.7,8.3-5.2c-0.6,2.5-1.6,7.4-0.6,11.7
			c0.9,0.2-3.5,3.1-5.1,1.5C221.2,290.4,220.1,289.1,219.6,288.2z"/>
		<path class="st31" d="M218.5,286.5c-0.9-0.1-2.2-1.8-3.1-2.6c-1.8-1.8-3.5-4-2.3-8.7c0,0-3.5-12.3,6.6-13.2
			c10.1-0.9,11.5,9.1,9.2,16.5C226.6,285.9,219.3,286.6,218.5,286.5z"/>
		<path class="st25" d="M222.3,262c7,1.4,7.7,22.8-3.9,24.5c0,0,0.1,0,0.1,0c0.8,0.1,8.1-0.6,10.5-8
			C231.1,271.7,230,262.9,222.3,262z"/>
		<g>
			<path class="st25" d="M231.9,276.9c0,1.2-0.9,2.2-2.1,2.2c-1.2,0-2.2-0.9-2.2-2.1c0-1.2,0.9-2.2,2.1-2.2
				C230.9,274.8,231.8,275.8,231.9,276.9z"/>
			<path class="st36" d="M229.7,275.6c-0.3,0-0.6,0.1-0.8,0.3c0.1,0,0.2-0.1,0.4-0.1c0.7,0,1.2,0.5,1.2,1.2c0,0.7-0.5,1.2-1.2,1.2
				c-0.1,0-0.2,0-0.3-0.1c0.2,0.1,0.5,0.2,0.7,0.2c0.8,0,1.4-0.7,1.4-1.4C231.1,276.2,230.5,275.6,229.7,275.6z"/>
		</g>
		<path class="st37" d="M216.7,270.8c0,0,2,1.8,1.6,4.2c-0.3,2.4-2.4,3-2.4,3s0.5,1.7,2.1,1.7c1.6,0-1.3-1.6-1.3-1.6
			s2.1-1.4,2.3-3.1C219.3,272.5,216.7,270.8,216.7,270.8z"/>
		<path class="st43" d="M221.3,270.2c0,0.3,0.9,0.2,2.6,0.5c1.5,0.3,2.7,0.8,2.7,0.6c0.1-0.3-0.8-1.1-2.6-1.5
			C222.2,269.5,221.3,269.7,221.3,270.2z"/>
		<path class="st43" d="M212.5,271.7c0.1,0.3,0.3-0.1,1.6-0.6c1.1-0.4,2.3-0.5,2.3-0.7c-0.1-0.7-1.5-0.5-2.4-0.1
			C212.6,270.9,212.4,271.5,212.5,271.7z"/>
		<g>
			<path class="st38" d="M222,281.1c0,0.1,0.3,0,0.3,0c0.1,0,0.1-0.1,0.1-0.2c0-0.1-0.1-0.1-0.2-0.1
				C222.1,280.9,221.9,281.1,222,281.1z"/>
			<path class="st38" d="M215.8,281.2c0,0.1-0.3,0-0.3-0.1c-0.1,0-0.1-0.1,0-0.2c0-0.1,0.1-0.1,0.2,0
				C215.7,280.9,215.8,281.1,215.8,281.2z"/>
			<path class="st39" d="M222.1,281l-6.5,0c0,0,1.1,1.9,3.2,2C220.9,283.1,222.1,281,222.1,281z"/>
			<path class="st38" d="M222.1,281l-6.5,0c0,0,1.1,1.9,3.2,2C220.9,283.1,222.1,281,222.1,281z"/>
			<path class="st33" d="M221.7,281.2l-5.3,0c0,0,1,1.7,2.8,1.5C220.9,282.6,221.7,281.2,221.7,281.2z"/>
			<path class="st40" d="M221.7,281.2l-5.3,0l0.3,0.4c0,0,0.6-0.3,2.3-0.3c1.7,0,2.4,0.2,2.4,0.2S221.6,281.3,221.7,281.2z"/>
		</g>
		<path class="st44" d="M225.5,262.1c5.6,2.8,4.5,12.6,4.5,12.6s-1.1,0.9-1.5,0.8c-0.7-0.1-0.3-0.7-0.4-3.5
			c-0.7-5.3-5.1-5.6-11.2-6.8c-3-0.6-3.5-2.6-3.5-2.6S217.2,258.1,225.5,262.1z"/>
		<path class="st43" d="M218.3,263.2c-3.1,0.3-5.5-1.9-5.7-4.2c-0.2,1.3,0,2.5,0.8,3.5c0,0,0.5,2,3.5,2.6c6.1,1.2,10.5,1.5,11.2,6.8
			c0.1,2.8-0.3,3.4,0.4,3.5c0.5,0.1,1.5-0.8,1.5-0.8s1.9-4,1-7.3C226.9,268.8,226.9,262.4,218.3,263.2z"/>
		<path class="st44" d="M234.4,267.2c0,0,0,2.8-3.8,4c0,0,0.9,2.8,3.9,1.9C238,272.1,238,266.8,234.4,267.2z"/>
		<path class="st45" d="M235.3,293.2c4,2.4,10.1,28.4,5,29.5c-2.9,0.6-4.6-5.6-6.3-11.1c-1.9-6.2-2.8-12.5-2.8-12.5L235.3,293.2z"/>
		<path class="st45" d="M239.1,322.5c-5.6-3,7.3-22.2,7.3-22.2l2.5,2.2C248.8,302.4,245.2,325.8,239.1,322.5z"/>
		<path class="st42" d="M234.6,374.8c11.6-33.2,4.7-46.2,4.7-46.2c-3.2-7.5-10.1-12.8-11.4-15l-11,2.3c0,0,14.1,1.3,17.8,19.9
			c3.6,18-0.9,37.2-13.8,40.6C220.8,376.4,229.3,378.2,234.6,374.8z"/>
		<path class="st46" d="M240,321.1c-3.3-0.8-7.1-18-7.1-18l-1,0.2c0.4,2.5,1.3,5.9,2.1,8.4c1.6,5.3,3.3,11.3,6,11.1
			c1.4,0.2,2.6-1,3.7-2.8C243.7,319.9,241.9,321.5,240,321.1z"/>
		<g>
			<path class="st25" d="M252.8,297.8c0.8,0.1,0,1.8-0.5,1.6C252,299.2,252.3,297.8,252.8,297.8z"/>
			<path class="st25" d="M251.7,296.2c0.5,0.2,1.2,1.3,1.3,1.6c0.1,0.5-1.1,2.4-1.5,2.2c-0.4-0.2,0.1-1.1,0.1-1.1l-1.6-0.8
				C249.9,298.1,251,296,251.7,296.2z"/>
			<path class="st31" d="M248.6,300.6l-0.8-2c0,0,1.4-2.6,2.1-2.9c0.8-0.4,1.6-0.7,2.9-1.1c1.5-0.5,2.4-1,2.6-0.7
				c0.2,0.6-3.2,2.1-3.3,2.3C250,297.2,249,298.7,248.6,300.6z"/>
			<path class="st31" d="M252,296.2c-1,0.7-1.4,1.5-1.3,2c0.3,0.9,2.7-1.2,2.9-0.3c0.1,0.5-1.2,1.2-2.4,1.8
				c-1.4,0.7-2.6,0.9-2.6,0.9s-0.4-1.1,0.3-2.4C249.6,296.9,252,296.2,252,296.2z"/>
		</g>
		<path class="st47" d="M220.5,313.8c-0.1-0.3-2.2-6.3-2.3-9.2c-0.1-2.9,3.9-11.1,4.1-11.5l0.5,0.2c0,0.1-4.1,8.5-4.1,11.3
			c0.1,2.8,2.2,9,2.3,9L220.5,313.8z"/>
		<path class="st42" d="M228.6,311.7l0.4,3.2c-4.1,1.2-8.2,1.6-12.1,1l-0.3-3.2C220.5,312.9,224.7,312.5,228.6,311.7z"/>
	</g>
	<g class="st24">
		<g>
			<path class="st30" d="M151.9,430.7c0,0,2.8,1.2,2.8,1.7c0,0.6-3.5,0.6-5.8,0.4c-1-0.1-0.9-3.4-1.7-5.3c-0.8-1.9-1.8-1.8,0.5-5.1
				l1.6,6.6L151.9,430.7z"/>
			<path class="st48" d="M149.7,422.2c0,0,0.6,2.5,1,4.3c0.5,2.1,0.7,3.2,1.2,4.1c0,0-1.4,0.6-2.5,0.2c-1-0.4-1-2.9-2.6-5.7
				c-0.6-1,1-2.9,1-2.9L149.7,422.2z"/>
			<path class="st30" d="M147.8,422.4c0,0-0.1,1.3,0,2.5c0.2,1.1,0.8,7.1,4.1,5.8c0,0-1.1,2.2-2.4,1.5c-1.3-0.7-1.5-3.5-2.1-4.9
				C146.9,425.8,145.5,425.5,147.8,422.4z"/>
			<path class="st30" d="M146.4,425.9c0,0,0.6,2.9,0.7,7l0.5,0c0,0-0.1-3,0.3-4.6L146.4,425.9z"/>
		</g>
		<path class="st44" d="M149.1,292.7c0,0-1-12,1.4-21.5c1.8-7.2,5.8-11.2,8.9-11c0,0,2.8-6.6,12.7-2.3c7.6,3.3,9.8,9.3,9.4,11.9
			c-0.5,2.6-4.3,4.3-4.3,4.3s-5,18.7-10.8,22.6C160.5,300.6,149.1,292.7,149.1,292.7z"/>
		<path class="st43" d="M177.3,274.1l-3.2-2.2l-14.6-4.4c-5.1,0.4-6.3-2.8-6.3-2.8c-1.1,1.7-2,3.9-2.7,6.5
			c-2.4,9.5-1.4,21.5-1.4,21.5s11.4,7.9,17.2,4.1c5.9-3.9,10.8-22.6,10.8-22.6C177.3,274.2,177.3,274.1,177.3,274.1z"/>
		<g>
			<path class="st30" d="M139.5,430.7c0,0,2.7,1.2,2.7,1.7c0,0.6-3.6,0.6-5.8,0.4c-1-0.1-0.7-3.4-1.4-5.3c-0.7-1.9-1.6-1.8,0.9-5.1
				l1.2,6.6L139.5,430.7z"/>
			<path class="st45" d="M137.8,422.2c0,0,0.4,2.5,0.8,4.3c0.4,2.1,0.5,3.2,0.9,4.1c0,0-1.5,0.6-2.5,0.2c-1-0.4-0.8-2.9-2.2-5.7
				c-0.5-1,1.2-2.9,1.2-2.9L137.8,422.2z"/>
			<path class="st30" d="M135.9,422.5c0,0-0.2,1.3-0.1,2.5c0.1,1.1,0.3,7.1,3.7,5.8c0,0-1.3,2.2-2.5,1.5c-1.3-0.7-1.3-3.5-1.8-4.9
				C134.7,425.8,133.4,425.5,135.9,422.5z"/>
			<path class="st30" d="M134.3,425.9c0,0,0.4,2.9,0.2,7l0.5,0c0,0,0.1-3,0.6-4.6L134.3,425.9z"/>
		</g>
		<path class="st33" d="M158.1,318.2c-1,3.1,1.3,7.4,1.7,14.9c-9.6,3.3-18.5,1.9-27.7-3c3.6-10,9.6-11.5,12.6-17.5
			c0.9-3.5,0.4-5.8,0.9-13.2c0.5-7.6,3-10.6,3-10.6c5.3-0.1,9.2,0.2,12.9,1.6c2.4,1,4.7,2.4,7.3,4.7c0.9,0.8,0.8,12-0.7,14.4
			C166.8,312.4,159.2,314.7,158.1,318.2z"/>
		<path class="st34" d="M158.1,318.2c-1,3.1,1.3,7.4,1.7,14.9c-9.6,3.3-18.5,1.9-27.7-3c3.6-10,9.6-11.5,12.6-17.5
			c0.8-3.4,0.4-5.6,0.8-12.3c2,1.7,4.4,3.6,6.2,5.2c3.8,3.3,12,5.2,16.3,4C166.8,312.4,159.2,314.7,158.1,318.2z"/>
		<path class="st49" d="M160.6,309.3c-1.6,1.7-3.4,3.2-5.1,4.5c-0.5-2-1.1-4.2-1.7-6.5c0-0.2-0.1-0.3-0.1-0.5
			c-0.7-0.4-1.4-0.9-2-1.4c-1.8-1.5-4.1-3.5-6.2-5.2c-0.3,5.4-0.1,7.9-0.5,10.4c2.1,6.6,5.4,12.5,8.1,13.3c1.6,0.6,3.3,0,5.1-1.3
			c-0.1-0.5-0.2-1-0.2-1.4c-0.2-1.5-0.3-2.7,0.1-3.8c1-3.2,7.5-5.3,9.4-8C165.5,309.9,163.1,309.8,160.6,309.3z"/>
		<path class="st36" d="M160.6,280.1c0,0,0.6,5.1-3.9,10.2c0,0,1.6,2.3,3.6,3.3c2,1,4.9,0.7,4.9,0.7s0.3-4.3,2.7-9.1
			C169.7,281.7,160.6,280.1,160.6,280.1z"/>
		<path class="st31" d="M169.1,288.8c0.9,0,2.5-1.4,3.5-2.1c2.1-1.5,4.1-3.4,3.7-8.3c0,0,5.4-11.6-4.4-14.1
			c-9.8-2.5-12.9,7.2-11.8,14.9C161.1,287,168.3,288.8,169.1,288.8z"/>
		<path class="st25" d="M169.3,263.9c-7.2,0.2-11.3,21.4,0,24.9c0,0-0.1,0-0.1,0c-0.9,0-8-1.9-9.1-9.6
			C159,272.2,161.5,263.6,169.3,263.9z"/>
		<g>
			<path class="st25" d="M157.4,277.2c-0.3,1.4,0.9,2.3,1.7,2.5c1.2,0.2,2.3-0.6,2.5-1.7c0.2-1.2-0.6-2.3-1.7-2.5
				C158.7,275.3,157.6,276.1,157.4,277.2z"/>
			<path class="st36" d="M159.7,276.2c0.3,0.1,0.6,0.2,0.7,0.4c-0.1-0.1-0.2-0.1-0.3-0.1c-0.6-0.1-1.3,0.3-1.4,1
				c-0.1,0.6,0.3,1.3,1,1.4c0.1,0,0.2,0,0.3,0c-0.2,0.1-0.5,0.2-0.8,0.1c-0.8-0.1-1.3-0.9-1.1-1.6
				C158.3,276.6,159,276.1,159.7,276.2z"/>
		</g>
		<path class="st37" d="M173.4,273.5c0,0-2.2,1.5-2.3,3.9c-0.1,2.5,1.9,3.4,1.9,3.4s-0.8,1.6-2.4,1.3c-1.6-0.3,1.5-1.4,1.5-1.4
			s-1.9-1.7-1.8-3.5C170.6,274.9,173.4,273.5,173.4,273.5z"/>
		<path class="st43" d="M169,272.1c0,0.2-0.9,0-2.6,0.1c-1.6,0-2.8,0.4-2.8,0.1c0-0.2,0.9-0.9,2.8-0.9
			C168.1,271.3,169,271.7,169,272.1z"/>
		<path class="st44" d="M165.5,262.8l0.7,0.7c16.6-2.6,11.4,10.5,11.4,10.5c1.3-8.2-7.4-7.4-10.8-9.3c-0.9,0.3-2.8,1.2-3.8,3.9
			c-1.3,3.6-1.1,7.6-2,7.6c-0.5,0-1.4-1-1.4-1S158.1,262.8,165.5,262.8z"/>
		<path class="st43" d="M177.3,275.2c-0.1,0.2-0.7-0.5-1.7-1c-1-0.5-1.8-0.9-1.8-1.1c0.2-0.6,1.9,0.2,2.4,0.6
			C177.3,274.4,177.3,275.1,177.3,275.2z"/>
		<g>
			<path class="st38" d="M166.5,283c0,0.1-0.3,0-0.3,0c-0.1,0-0.1-0.1,0-0.2c0-0.1,0.1-0.1,0.2,0C166.4,282.7,166.6,282.9,166.5,283
				z"/>
			<path class="st38" d="M172.7,284c0,0.1,0.3,0,0.4,0c0.1,0,0.1-0.1,0.1-0.2c0-0.1-0.1-0.1-0.2-0.1
				C172.8,283.8,172.7,283.9,172.7,284z"/>
			<path class="st39" d="M166.4,282.9l6.5,1.1c0,0-1.4,1.8-3.5,1.5C167.3,285.1,166.4,282.9,166.4,282.9z"/>
			<path class="st38" d="M166.4,282.9l6.5,1.1c0,0-1.4,1.8-3.5,1.5C167.3,285.1,166.4,282.9,166.4,282.9z"/>
			<path class="st33" d="M166.8,283.1l5.2,0.9c0,0-1.3,1.5-3,1.1C167.3,284.6,166.8,283.1,166.8,283.1z"/>
			<path class="st40" d="M166.8,283.1l5.2,0.9l-0.4,0.3c0,0-0.5-0.4-2.2-0.7c-1.7-0.3-2.5-0.2-2.5-0.2S166.9,283.2,166.8,283.1z"/>
		</g>
		<path class="st43" d="M169.7,264.9c3.5,0.7,6.8,0.2,8.9,2.5c2.5,3.7-1.1,6.6-1.1,6.6c0.1-2.5-0.3-4.1-1.4-5.2
			c-2.4-2.7-10.3-2.4-11.8-6.4C164.3,262.4,166.2,264.2,169.7,264.9z"/>
		<path class="st43" d="M166.7,264.7c-0.9,0.3-2.8,1.2-3.7,3.9c-1.3,3.6-1.1,7.6-2,7.6c-0.5,0-1.4-1-1.4-1s-1-4.2,0-7.7
			c0.9-0.1,2.3-0.7,3.2-1.4C165.5,263.9,166.3,264.2,166.7,264.7z"/>
		<g>
			<polygon class="st31" points="172.3,294.4 170.9,296.9 172.5,299.1 173.7,295.8 			"/>
			<path class="st33" d="M148.2,288.7c-10.7,2.3,1.3,35.8,7.2,33.4c3.6-1.4,2-7.9-0.5-16.7C152.4,296.8,150.1,288.3,148.2,288.7z"/>
			<path class="st33" d="M152.7,321.2c7,6.6,19.4-17.2,20.3-22.6l-2.1-2.6c0,0-7.2,11-14.5,16.1
				C152.9,316.5,150.4,318.9,152.7,321.2z"/>
			<g>
				<g id="wrist_left_7_">
					<path class="st31" d="M172.3,295.2c0,0-0.1-0.7,0.1-1.4c0.2-0.7,0.6-2.3,0.7-2.8c0.1-0.5,0.1-0.7,0.2-0.7
						c0.1-0.1,0.5,0,0.3,0.8c-0.2,0.8-0.3,2-0.3,2L172.3,295.2z"/>
					<path class="st31" d="M173.6,295.9c0,0,2.1-1.9,3.2-3.8c1.1-1.9,1.1-2.2,0.9-2.3c-0.2-0.1-0.4,0.3-0.7,0.9c0,0-0.7,0.9-0.7,0.9
						c-0.1,0,0.5-1.1,0.6-1.2c0.1-0.2,0.9-1.5,0.6-1.6c-0.3-0.1-0.8,0.8-1.1,1.3c0,0-0.8,1.2-0.9,1.1c-0.1-0.1,0.6-1.2,0.7-1.3
						c0.1-0.2,0.9-1.6,0.7-1.7c-0.2-0.1-0.5,0.1-1.2,1.3c0,0-0.8,1.5-0.8,1.4c-0.2-0.1,1.4-2.4,1-2.7c-0.2-0.1-0.5,0.4-0.9,1.1
						c-0.4,0.7-0.5,1-0.8,1.5c-1,2.1-2,4.3-2,4.3S172.5,296.4,173.6,295.9z"/>
				</g>
			</g>
		</g>
	</g>
</g>
<g>
	<defs>
		<rect id="SVGID_10_" x="282.8" y="242.1" width="132.5" height="85.5"/>
	</defs>
	<clipPath id="SVGID_11_">
		<use xlink:href="#SVGID_10_"  style="overflow:visible;"/>
	</clipPath>
	<g class="st50">
		<path class="st51" d="M385.7,305.7c-4-1.1-17.7-20.4-10.1-26.7c7.6-6.3,16.6,22.2,16.6,22.2S389.3,306.7,385.7,305.7z"/>
		<path class="st52" d="M383.3,302.5c1-1.9,7.1-6,9.6-0.3C388.1,307,385.5,306.7,383.3,302.5z"/>
		<path class="st52" d="M380.9,280.3c-0.2-0.2-0.8-1.3-0.6-1.4c-1.5-1-3.1-1.1-4.6,0.1c-7.6,6.3,6.1,25.6,10.1,26.7
			c0.9,0.3,1.8,0.1,2.7-0.4C378.5,297.9,388.4,286.9,380.9,280.3z"/>
		<path class="st53" d="M393.1,320.1c-0.9-2.8-7.8-15.1-6-17.5c1.6-2.2,4.5-2.3,5.9-0.5c2.7,3.3,0.8,13.5,1.4,18.1
			C394.4,320.7,393.1,320.1,393.1,320.1z"/>
		<path class="st54" d="M388.3,303.7c1.3-1.6,3.4-1.8,5-1c-0.1-0.2-0.2-0.4-0.3-0.5c-1.5-1.8-4.8-2.1-6.5,0.1
			c-1.7,2.4,7,16.3,6.3,18.8C394.6,318.2,386.1,306.5,388.3,303.7z"/>
		<path class="st55" d="M373.3,312.5c-4.6-8.3-18.7-9.8-24.1-3.1c-6.1,12.1-1.4,38.5-1.1,41.1c0.4,2.6-1.3,3-1.1,8.5
			c0.2,5.5,3.1,9.5,5.2,18.8h2.1c-2.6-16-0.6-50.4,5.1-48.1c3,1.2,8.4,18.5,8.8,20.8c0.4,2.4-0.9,4-0.1,8.5c0.8,4.5,10,18.8,10,18.8
			h1.7C370.9,343.9,371.5,313.1,373.3,312.5z"/>
		<g>
			<path class="st56" d="M353.7,350.3c-1.8-0.4-4.2-1.1-5.8-1.7c0.1,0.9,0.3,1.6,0.3,1.9c0.4,2.6-1.3,3-1.1,8.5
				c0.2,5.5,3.1,9.5,5.2,18.8h2.1C353.3,370.8,353.4,360,353.7,350.3z"/>
			<path class="st56" d="M368.3,350c0,0.2,0.1,0.3,0.1,0.5c0.4,2.4-0.9,4-0.1,8.5c0.8,4.5,10,18.8,10,18.8h1.7
				c-2.8-10.5-4.6-20.7-5.8-29.7C372.2,348.8,370.3,349.5,368.3,350z"/>
		</g>
		<g>
			<path class="st57" d="M349.4,350.5c-0.4-2.6-0.6-26.4,2.1-31.7c1.4,1,13.6,5.6,21.4-5.4c-2.4-0.1-22.6-6.3-24-4.5
				c-6.1,12.1-1.1,39-0.7,41.6c0.4,2.6-1.3,3-1.1,8.5c0.2,5.5,3.1,9.5,5.2,18.8h1.2c-2.2-9.3-5-13.2-5.2-18.8
				C348.1,353.4,349.8,353.1,349.4,350.5z"/>
			<path class="st57" d="M369.5,350.5c-0.4-2.4-5.8-19.7-8.8-20.8c-0.5-0.2-1-0.2-1.5-0.1c0.1,0,0.2,0.1,0.3,0.1
				c3,1.2,8.4,18.5,8.8,20.8c0.4,2.4-0.9,4-0.1,8.5c0.8,4.5,10,18.8,10,18.8h1.2c0,0-9.2-14.2-10-18.8
				C368.6,354.4,369.9,352.9,369.5,350.5z"/>
		</g>
		<path class="st57" d="M355.5,326.5c1,1.1,5.6,3.2,9.6,2c0,0-2.2,2.3-5.7,1.1C355.8,328.4,355.5,326.5,355.5,326.5z"/>
		<path class="st58" d="M373.3,312.7c-0.7,1.5-3.7,5.8-11.4,6.7c-5.3,0.6-14.1-1.5-15-6.3c-0.4-2.3,4.2-10.1,5.1-18.6
			c1.5-13.3,3.4-18.4,9.8-20.6c12.3-4.2,30.4,5.8,16.3,24.8C376.2,301.4,375.4,308.2,373.3,312.7z"/>
		<path class="st59" d="M355.1,314.6c-0.7-2.2,4.7-10.5,4.6-19c-0.1-7.6,0.5-16.4,0.8-21c-6.8,2.7-7.8,10.5-8.8,19.8
			c-0.9,8.5-5.1,16.4-4.7,18.7c0.8,4.8,9.8,7.4,15,6.3c0.1,0,0.1,0,0.2-0.1C358.8,318.7,355.8,317.1,355.1,314.6z"/>
		<path class="st59" d="M358.2,297.7c0.7,1.8,2.9,8.1,7.9,8.1c0,0-7.7,3-9.2-2.6C355.5,297.6,358.2,297.7,358.2,297.7z"/>
		<path class="st59" d="M383,288.5c-2.4,6.6-7.6,10.5-13.2,11.5c0,0,5.4,2.5,10.3-3.8C382.9,292.5,383,288.5,383,288.5z"/>
		<g>
			<path class="st52" d="M351.9,318.1c-1.3-3.5,0.2-7.1,1.9-11.1c0.6-1.5,1.3-3,1.8-4.6c3-8.7,3.3-19.4,3.3-25l0.6,0
				c0,5.6-0.3,16.4-3.3,25.2c-0.5,1.6-1.2,3.1-1.8,4.6c-1.8,4.2-3.3,7.8-1.7,11.3C352.7,318.5,351.9,318.3,351.9,318.1z"/>
		</g>
		<path class="st51" d="M362.2,304.6c-3.8-2.2-12.4-25-3.1-29.3c9.3-4.3,10.8,26.6,10.8,26.6S365.6,306.5,362.2,304.6z"/>
		<path class="st52" d="M361.4,303.8c0.4-2.1,5.1-7.7,9.1-3C367.3,306.8,364.7,307.2,361.4,303.8z"/>
		<path class="st52" d="M361.6,275c-0.7-0.2-1.5-0.1-2.4,0.3c-9.3,4.3-0.7,27.1,3.1,29.3c0.5,0.3,1.1,0.4,1.6,0.4
			C360,299.4,354.5,279.8,361.6,275z"/>
		<polygon class="st57" points="359.5,321.6 359,327.9 359.3,327.9 360.3,321.7 		"/>
		<polygon class="st57" points="363.6,321.8 360.2,321.7 359.9,323.1 362.7,323.2 		"/>
		<polygon class="st59" points="362.4,321.8 360.5,321.8 360.2,322.8 362.1,322.8 		"/>
		<g>
			<path class="st54" d="M386,299c-0.1-0.2-0.5-0.1-1,0c-0.4,0.2-0.8,0.4-0.6,0.6c0.1,0.2,0.6,0.3,1,0.1
				C385.9,299.6,386.2,299.2,386,299z"/>
			<path class="st54" d="M385.8,298.3c-0.1-0.2-0.5-0.1-1,0c-0.5,0.2-0.8,0.4-0.6,0.6c0.1,0.2,0.6,0.3,1,0.1
				C385.7,298.8,385.9,298.5,385.8,298.3z"/>
			<path class="st54" d="M383.9,297.5c0.3,0,0.5,0.5,0.6,1c0.1,0.6,0.1,1-0.2,1c-0.3,0-0.7-0.4-0.8-1
				C383.4,298.1,383.6,297.6,383.9,297.5z"/>
			<path class="st54" d="M386.2,299.6c-0.1-0.2-0.5-0.1-0.8,0c-0.4,0.2-0.5,0.3-0.4,0.5c0.1,0.2,0.4,0.3,0.7,0.1
				C386,300,386.3,299.8,386.2,299.6z"/>
			<path class="st54" d="M385.2,297.5c-0.2,0,0,0.6,0.2,1.3c0.2,0.7,0.4,1.2,0.6,1.2c0.2,0,0.3-0.6,0.1-1.3
				C385.9,297.9,385.4,297.4,385.2,297.5z"/>
		</g>
		<g>
			<path class="st60" d="M393.1,319c0,1.4-2,4-1,4.5c0.9,0.5,3-0.2,2-4.4L393.1,319z"/>
			<path class="st61" d="M394.2,321.3c-1.6-0.9-2.6,1.1-2.7,1.9c-0.2,0.8,0.9,1.9,1.5,1.8C393.6,324.9,394.8,321.7,394.2,321.3z"/>
			<path class="st61" d="M393.9,321.9c-1.5-0.9-2.2,0.6-2.3,1.3c-0.2,0.7,0.8,1.7,1.4,1.7C393.5,324.8,394.5,322.2,393.9,321.9z"/>
		</g>
		<path class="st53" d="M383.5,299c-2.9,0.9-15.9,7.8-18.4,6c-2.3-1.7-2.1-4.5-0.3-6c3.4-2.8,14-0.8,18.8-1.4
			C384.2,297.6,383.5,299,383.5,299z"/>
		<path class="st54" d="M366.3,303.3c-1.4-1.2-1.6-3-1.2-4.5c-0.1,0.1-0.2,0.1-0.3,0.2c-1.8,1.5-2.3,5,0,6.7
			c2.4,1.8,16-5.8,18.9-6.7C380.7,299.1,369.1,305.6,366.3,303.3z"/>
		<path class="st53" d="M385.6,297.8c-0.6-1-5,0.3-6,0.6l0.6,0.5C386.4,300.7,386.1,298.6,385.6,297.8z"/>
		<path class="st60" d="M393.6,322.8c0.1,0.3,0.4,1.3,0.7,1.3c0.4,0,0.4-0.7,0.4-1c0-1,0.2-2.4-0.4-2.3
			C393.7,320.8,392.9,320.8,393.6,322.8z"/>
		<path class="st60" d="M393.9,323.3c-0.4-0.1-0.7,0-0.9,0.2c-0.1,0.2,0.1,0.2,0.5,0.3c0.4,0.1,0.8,0.4,0.9,0.2
			C394.5,323.8,394.3,323.4,393.9,323.3z"/>
		<path class="st60" d="M392.7,324.3c-0.1,0.4,0,0.7,0.2,0.9c0.2,0.2,0.2-0.1,0.4-0.5c0.1-0.4,0.5-0.7,0.3-0.9
			C393.3,323.7,392.9,323.9,392.7,324.3z"/>
		<path class="st60" d="M392.1,323.7c-0.2,0.3,0,0.9,0.2,1.1c0.2,0.2,0.2-0.3,0.4-0.6c0.2-0.3,0.3-0.6,0.1-0.7
			C392.5,323.3,392.3,323.4,392.1,323.7z"/>
		<path class="st60" d="M391.6,323.2c-0.2,0.3-0.1,0.7,0.1,0.9c0.2,0.2,0.2-0.1,0.4-0.5c0.2-0.3,0.3-0.6,0.1-0.8
			C392,322.6,391.7,322.9,391.6,323.2z"/>
		<g>
			<path class="st62" d="M346.9,268.6c2.5-1.1,7-1,6.4,5c-0.6,6-5.3,7.4-5,8c0.3,0.6,5.4-2.9,3.7,6.1c-0.3,1.4,0.2,4,0.8,4.5
				c0,0-4.4-1.9-3.7-5.7c0.7-3.8-3.9-2.4-1.6-5.9c2.5-3.9-4.8-2-3.5-7.4C344.3,271.8,344.4,269.7,346.9,268.6z"/>
			<path class="st63" d="M347.5,272.1c0.2-1.4-0.4-2.6-1.3-2.7c-0.9-0.1-1.8,0.9-2,2.2c-0.2,1.4,0.4,2.6,1.3,2.7
				C346.4,274.4,347.4,273.4,347.5,272.1z"/>
			<path class="st64" d="M326.8,274c-3.4-4-6.1-9.8-2.2-10.8c0,0-5-5.3,7.1-4c0,0,1.1-3.9,6.7-1.5c5.3,2.4,7.5,7.6,7.8,10.5
				C346.4,270.7,344.2,294.3,326.8,274z"/>
			<path class="st62" d="M346.5,268.4c-0.1-1.5-1.1-3.8-2.4-5.8c-0.5,5.1-4.7,3.4-11,3.4c-3.4,0-4.1,8.3-9.7,2.7
				c0.8,1.8,2,3.6,3.4,5.2C344.2,294.3,346.7,270.8,346.5,268.4z"/>
			<polygon class="st54" points="341.7,284.9 339.9,275.3 336.9,279.5 336.9,285.5 			"/>
			<path class="st60" d="M322.8,304.3c-0.3,2.7-14.4,10.3-14.6,9.2C310.5,311.4,323.2,300.3,322.8,304.3z"/>
			<path class="st54" d="M319.4,304.6c0.2,0.1,0.3,0.3,0.3,0.7c-0.2,1.9-7.1,6.1-11.3,8.2c1.4,0.3,14.2-6.7,14.4-9.3
				C323,302.9,321.5,303.4,319.4,304.6z"/>
			<path class="st60" d="M335.2,309.3c-0.8,2.5-17,7.7-16.8,6.5C322.7,314.1,336.2,305.7,335.2,309.3z"/>
			<path class="st54" d="M331.8,309.1c0.2,0.1,0.2,0.4,0.1,0.8c-0.6,1.8-8.5,4.8-13.4,6.1c1.4,0.6,16-4.2,16.7-6.6
				C335.6,308,334,308.2,331.8,309.1z"/>
			<path class="st65" d="M320.9,302.7c2.6-1.2,11-11.1,14.2-16.8c0.8-1.4,5.3-0.2,3.2,3.2c-2.1,3.5-8.7,13.2-16.6,16.8L320.9,302.7z
				"/>
			<path class="st66" d="M337.7,285.8c0.2,0.6,0.1,1.4-0.4,2.3c-2,3.4-8.3,12.7-16,16.5l0.3,1.4c8-3.6,14.6-13.4,16.6-16.8
				C339.3,287.5,338.7,286.3,337.7,285.8z"/>
			<path class="st67" d="M358.5,357.4c0-1.3-5-5.3-4.6-8.3c0.4-3,6.8-26-1.2-34.2c-1.3-1.3-12.9,0.8-15.2,7.7
				c-1.4,4.4-5.5,25.2-4.7,29c2.5,11.2,4.3,27.8,4,29.4h1.8c-1.2-5.1,1.3-20.5,1.3-21.4c0-0.9-3.2-6-3.3-9.1c-0.1-3,6.6-15.9,8.3-19
				c0.5-0.9,0.8-0.9,1.4-0.2c0.7,0.9,2,14.9,3.8,19.8c0,0,5.5,15.6,7.4,29.9h1.2C357.7,377.6,358.5,358.9,358.5,357.4z"/>
			<g>
				<path class="st68" d="M347.2,331c-0.1-0.3-3-0.6-3.3-0.1c-1.7,3-8.8,15.8-8.7,18.9c0.1,3,3.3,8.1,3.3,9.1
					c0,0.9-2.5,16.3-1.3,21.4h-0.4c0,0.3,0,0.6,0,0.7h1.8c-1.2-5.1,1.3-20.5,1.3-21.4c0-0.9-3.2-6-3.3-9.1c-0.1-3,6.6-15.9,8.3-19
					C345,331.3,347.1,331.1,347.2,331z"/>
				<path class="st68" d="M358.5,357.4c0-1.3-5-5.3-4.6-8.3c0.4-3,6.8-26-1.2-34.2c-0.1-0.1-15.8,7.2-15.8,9.8
					c0.3,2.2,12.8,0.9,16-0.9c2.8,3.9-0.1,21.7-0.5,24.6c-0.4,3,4.6,7,4.6,8.3c0,1.3-0.5,14.3-0.1,20.7c0.2,1.2,0.4,2.4,0.5,3.6h1.2
					C357.7,377.6,358.5,358.9,358.5,357.4z"/>
			</g>
			<path class="st69" d="M334.1,381.3h5.1c0,0-0.6-1.4-1.4-1.4C336.7,380,334.1,381.3,334.1,381.3z"/>
			<path class="st70" d="M349,307.9c-2.1-2.8-0.5-17.3-1.2-20.5c-0.7-3.2-10.7-3.2-13.9-1.3c-3.2,1.1-3.3,11.4-2.9,16.7
				c0.1,0.8,2.6,0.9,5.6,0.8c0.3,0.6,0.6,1.1,0.9,1.6c4.5,7.6,0.2,12-1.2,19.2c9.3,3.3,19.7-4.4,19.7-4.4
				C355.2,316.8,351.1,310.7,349,307.9z"/>
			<path class="st66" d="M334.1,286c-2.2,2.3-3.5,13.2,1.2,13c4.7-0.2,8.1-14,8.1-14S338.3,284,334.1,286z"/>
			<path class="st60" d="M334.3,285.9c-2,2.2-3.2,12.9,1.1,12.7c4.3-0.2,7.3-13.6,7.3-13.6S338.1,284,334.3,285.9z"/>
			<path class="st71" d="M337.5,305.3c4.5,7.6,0.2,12-1.2,19.2c0.2,0.1,0.4,0.1,0.6,0.2c4.4-10.9,2.4-13.7,3.4-16.5
				c1.2-3.3,9.7,8.1,11.2,14.5c2.7-1.3,4.5-2.6,4.5-2.6c-0.8-3.3-4.9-9.3-7-12.1c-2.1-2.8-0.5-17.3-1.2-20.5c-0.2-1-1.4-1.7-3-2.1
				c0.3,1,0.3,2.2,0.2,3.5c-0.9,8.2,1,14.5-13.1,14.5c-0.3,0-0.5,0-0.7-0.1c0.7,0.5,2.9,0.6,5.4,0.5
				C336.8,304.2,337.2,304.7,337.5,305.3z"/>
			<path class="st70" d="M320.7,307.5l-0.9-5.5c1.2-0.7,5,3.4,5,3.4S322.7,307.9,320.7,307.5z"/>
			<path class="st65" d="M333.6,307.1c2.3-1.9,8-14,9.6-20.4c0.4-1.6,5.4-1.8,4.3,2.1c-1.1,3.9-5,15.3-12.1,21.2L333.6,307.1z"/>
			<path class="st66" d="M345.7,285.6c0.4,0.5,0.6,1.3,0.3,2.4c-1.1,3.8-4.7,14.5-11.4,20.6l0.8,1.4c7.2-5.9,11-17.3,12.1-21.2
				C348.1,286.7,347,285.8,345.7,285.6z"/>
			<path class="st70" d="M335,311.7l-2.6-4.9c1-1.1,6.2,1.7,6.2,1.7S337.1,311.5,335,311.7z"/>
			<path class="st71" d="M323.2,303.8c-0.5,0.9-1.3,1.5-2.2,1.5c-0.2,0-0.4,0-0.6-0.1l0.4,2.3c1.9,0.4,4.1-2.1,4.1-2.1
				S324.1,304.7,323.2,303.8z"/>
			<path class="st71" d="M336.5,307.5c-0.3,1.1-1.3,2-2.6,2.3l1.1,2c2.1-0.2,3.6-3.3,3.6-3.3S337.6,307.9,336.5,307.5z"/>
			<path class="st54" d="M335.8,298.4c-4.5,0.2-2.8-11.8-0.7-12.8c-0.3,0.1-0.6,0.2-0.7,0.4c-2,2.2-3.2,12.9,1.1,12.7
				c0.3,0,0.6-0.1,0.9-0.3C336.2,298.4,336,298.4,335.8,298.4z"/>
			<polygon class="st54" points="335.4,298.5 336,295.7 336.2,298.4 			"/>
			<path class="st68" d="M342.4,330.3c0,0,3.6,1,6.1-0.5c0,0-1,1.7-2.8,1.7C343.9,331.5,342.4,330.3,342.4,330.3z"/>
			<path class="st69" d="M355.6,381.3h3.7c0,0-0.9-1.4-1.7-1.4C356.8,380,355.6,381.3,355.6,381.3z"/>
			<path class="st72" d="M342.1,288c1.6-0.9,3.1-1.6,4.4-2.1c-1-0.6-2.6-0.9-4.2-1.1c-0.2,0-0.4-0.1-0.6-0.1l-1.8-9.5l-3,4.3v5.5
				c-0.4,0.1-0.9,0.2-1.3,0.4c-0.7,0.2-1.2,0.4-1.7,0.7c-0.7,0.2-1.3,1-1.7,2C334.8,289.3,338.8,289.9,342.1,288z"/>
			<path class="st53" d="M334.7,283.7c-1.6-0.4-4.6-1.4-6.2-5.1c-0.5-1-0.4-2-0.7-3.2c-0.2-1.2-1-2.3-1.4-3.8
				c-0.6-2.8,2.1-4.1,2.5-7.6c1.3,2.4,7.8,3.2,9.7,5.9C341.1,273.2,341.1,281.7,334.7,283.7z"/>
			<path class="st54" d="M339.2,271.2c0.7,10-4.5,12.5-4.5,12.5c5.1-1.6,6.6-8.1,6-12.5C340.6,270.5,338.4,266.6,339.2,271.2z"/>
			<path class="st53" d="M342.5,275.4c-1.2,1.9-3,2.6-3.2,1.1c-0.2-1.5,1.8-5.3,2.6-4.3C342.6,273.2,343.2,274.3,342.5,275.4z"/>
			<path class="st73" d="M342.1,275.3c-0.9,1.4-2.2,1.9-2.4,0.8c-0.1-1.1,1.3-3.9,1.9-3.1C342.1,273.7,342.5,274.6,342.1,275.3z"/>
			<path class="st53" d="M340.8,276c-0.4,0.7-1.1,0.9-1.2,0.4c-0.1-0.6,0.6-1.9,0.9-1.5C340.9,275.2,341.1,275.6,340.8,276z"/>
			<path class="st74" d="M331.8,279.2c-0.2,0.1-0.3,0.2-0.3,0.3c0,0.2,0,0.3,0.1,0.5c0.6,0.7,1.6,1.7,2.3,1.3
				c0.7-0.4,0.7-1.4,0.6-2.1c0-0.2-0.1-0.4-0.3-0.5c-0.2-0.1-0.4-0.1-0.6-0.1L331.8,279.2z"/>
			<path class="st75" d="M331.9,279.2c-0.1,0-0.2,0.1-0.3,0.3c0,0.1,0,0.3,0.1,0.3c0.5,0.5,0.8,0.4,1.5,0.2c0.7-0.2,1.1-0.3,1-0.9
				c0-0.2-0.1-0.3-0.3-0.4c-0.1-0.1-0.3-0.1-0.5,0L331.9,279.2z"/>
			<g>
				<path class="st64" d="M326.9,273.2l-0.1-0.1c0.3-1.1,1.5-1.9,2.1-2l0.2,0.5C328.6,271.5,327.4,272.2,326.9,273.2z"/>
			</g>
			<g>
				<path class="st64" d="M335,271c-1.3-0.6-3.2-0.3-3.7-0.1l-0.1-0.5c0.5-0.1,2.4-0.3,3.9,0.4L335,271z"/>
			</g>
			<path class="st73" d="M332.8,276.2C332.8,276.2,332.8,276.2,332.8,276.2c0.3,0.4,0.2,1-0.3,1.3c-0.3,0.2-0.6,0.2-0.8,0.2
				c0.3,0.3,0.8,0.4,1.2,0.1c0.5-0.3,0.6-0.9,0.3-1.3C333.2,276.3,333,276.2,332.8,276.2z"/>
			<path class="st62" d="M339.2,276.7c0.2-1.7,0.7-4.1,3.1-5.4c0,0-0.7-2.2-4.2-4.7c0,0-0.6-0.3-0.7,1.5
				C337.3,270,337.4,274.9,339.2,276.7z"/>
			<polygon class="st66" points="353.7,319.4 352.8,320 353.5,321.7 354.5,321.1 			"/>
			<path class="st64" d="M328.8,263.4c1.6,1.5,3.2,4.9,12.4,3.7c0,0-7.5-0.7-9.5-4.2L328.8,263.4z"/>
			<path class="st60" d="M321.2,315.1c-0.2,0.4-1.2,0.7-2.5,1.7c-0.2,0.2-0.4,0.5-0.6,0.8c-0.4,0.6-1.1,0.9-1.3,0.7
				c-0.2-0.2,0.3-0.4,0.6-0.8c0.3-0.3,0.4-0.4,0.3-0.5c-0.1-0.1-0.5,0.3-1,0.7c-0.6,0.5-1.1,0.7-1.3,0.5c-0.2-0.2,0.3-0.4,0.8-0.9
				c0.4-0.4,0.7-0.6,0.5-0.8c-0.1-0.1-0.4,0.1-1,0.4c-0.7,0.3-1.2,0.4-1.3,0.1c-0.1-0.3,0.3-0.2,1-0.7c0.9-0.6,1.9-1,2.1-1.7
				c0.2-0.6-1.1-1.2-0.7-1.6c0.3-0.3,1.2,0.7,2.3,1.7C320.2,315.4,321.4,314.7,321.2,315.1z"/>
		</g>
		<g>
			<path class="st76" d="M390.8,282.9c2-0.7,20.9,0.7,17.8,10.5c0,0,6.7,6.7-1.2,11.4c0,0,3.5,1.3,1.1,5.6c-2.4,4.2-7.2,3.3-7.2,3.3
				s-4.8,5.3-13-3.3l-3-15.2C382.8,288.9,388.9,283.6,390.8,282.9z"/>
			<path class="st77" d="M393.8,288.6c9.2,3.9,12.1,3.3,12.5-2.2c2.2,1.6,3.4,3.9,2.4,7c0,0,6.7,6.7-1.2,11.4c0,0,3.5,1.3,1.1,5.6
				c-2.4,4.2-7.2,3.3-7.2,3.3s-4.8,5.3-13-3.3l0.5-15.4C390.5,295.7,390.8,287.3,393.8,288.6z"/>
			<path class="st60" d="M387.8,314.2c-2.1-0.3-6.5-2.4-7.5-3c-1.1-0.6-8.9-6-8.9-6l0.5-0.7c0,0,7.3,3.6,9.3,4.8c2,1.2,7.5,3,7.5,3
				L387.8,314.2z"/>
			<path class="st78" d="M382.7,311.4l0.7-1.1c2.4,1,5.3,2,5.3,2l-1,1.9c-2.1-0.3-6.5-2.4-7.5-3c-1.1-0.6-8.9-6-8.9-6l0.4-0.5
				C375.3,307.1,380.1,310.6,382.7,311.4z"/>
			<path class="st79" d="M392.2,318.4c1.2-0.4,2.1-3.8,1.1-4.8c-1-1-8.7-2.9-8.9-2.9c-0.3-0.1-2,3.9-1.7,4.7
				C382.9,316.3,391.2,318.7,392.2,318.4z"/>
			<path class="st80" d="M391,315.7c0.7-0.3,1.3-1.4,1.5-2.6c0.4,0.2,0.6,0.3,0.8,0.5c1,1,0.1,4.3-1.1,4.8c-0.9,0.3-9.4-2-9.7-2.9
				c-0.1-0.3,0.4-2.2,0.9-3.1C385.7,313.8,390.3,316,391,315.7z"/>
			<polygon class="st60" points="391.2,331.1 392.9,361.3 392.4,361.4 387.4,330.4 			"/>
			<path class="st78" d="M391,351.1c-0.1,0-0.2,0-0.3,0.1l-3.3-20.7l3.8,0.7l1.1,20.2C391.9,351.1,391.5,351,391,351.1z"/>
			<polygon class="st81" points="394.2,347.6 387.3,347.5 386.8,329.5 394.1,329.6 			"/>
			<polygon class="st82" points="394.4,347.7 394.5,346.6 388,346.4 388.2,347.4 			"/>
			<polygon class="st60" points="388.4,330.8 387.7,361.7 387.3,362.2 384.7,329.8 			"/>
			<path class="st78" d="M386.4,351.6l-1.7-21.8l3.7,1.1l-0.5,21.5C387.5,351.9,387,351.6,386.4,351.6z"/>
			<path class="st83" d="M391,347.2l-6.9,1.2c0,0-1-12.9-0.2-18.7c0.5-3.3,9.7,2.6,9.7,2.6L391,347.2z"/>
			<path class="st84" d="M390.9,339.2c0,0-4.1-1-7.3-3l-0.1-2.9l7.8,1.6L390.9,339.2z"/>
			<path class="st84" d="M390.6,333.6c0,0-3.9-2.5-6.8-3.3c0-0.2,0-0.4,0.1-0.6c0.5-3.3,9.7,2.6,9.7,2.6l-2.4,14.9l-3,0.4
				L390.6,333.6z"/>
			<path class="st79" d="M394.6,335.5c-2.6,1.3-7.2,1.5-11.7-0.4c0,0,1.8-21.9,4.9-22.8c3.1-0.8,7,1.4,6.6,5.1
				C394,320.9,394.5,330.2,394.6,335.5z"/>
			<path class="st80" d="M391.4,313.3c1.7-1.2,3.3,1.8,3,4.1c-0.4,3.6,0.1,12.9,0.2,18.2c-1.7,0.9-4.3,1.2-7.2,0.8
				C386.8,329.2,388.2,314.4,391.4,313.3z"/>
			<polygon class="st60" points="392.6,313.5 393.2,308.8 390.5,308.3 389.3,312.1 			"/>
			<path class="st60" d="M384.8,317.2c-2.1,0.4-7.5,0.3-8.6-0.1c-1.1-0.3-9.7-6.3-9.7-6.3l0.2-0.9c0,0,7.9,4.6,10.2,5
				c2.3,0.4,8.1,0.1,8.1,0.1L384.8,317.2z"/>
			<polygon class="st78" points="379.8,316.8 380,315.1 382.4,314.9 382.1,317.1 			"/>
			<path class="st78" d="M376.4,316.1c1.1,0.3,6.6,0.5,8.6,0.1l0.1-1.1c0.1,0,0.1,0,0.1,0l-0.2,2.2c-2.1,0.4-7.5,0.3-8.6-0.1
				c-1.1-0.3-9.9-6.2-9.9-6.2l0.2-0.5C368.3,311.4,375.5,315.8,376.4,316.1z"/>
			<path class="st79" d="M391.9,317.3c0.6-1.1-0.8-4.2-2.2-4.4c-1.4-0.1-8.4,1.3-8.6,1.4c-0.2,0.1,0.8,6.3,1.6,6.8
				C383.5,321.7,391.4,318.2,391.9,317.3z"/>
			<path class="st80" d="M391,316.1c0.3-0.6,0.1-1.7-0.4-2.7c1,0.9,1.8,3,1.3,3.9c-0.5,0.9-8.5,4.8-9.2,4.3c-0.2-0.1-0.4-1-0.6-1.6
				C383.8,319.9,390.6,316.9,391,316.1z"/>
			<path class="st85" d="M385.4,364.4h1.4l1.5-2.6c0,0-1-1-1.5-0.4c-0.5,0.7-0.3,2.3-0.3,2.3S385.4,364.2,385.4,364.4z"/>
			<path class="st85" d="M391.5,364.4h1.4l1.1-3c0,0-1.1-1.2-1.6-0.4c-0.4,0.8,0,2.7,0,2.7S391.5,364.2,391.5,364.4z"/>
			<path class="st60" d="M365.1,310.8c-0.4-0.1-0.9-0.4-0.9-0.6c0-0.2,0.4,0,0.7,0.1c0.3,0,0.4,0.1,0.4,0c0-0.1-0.4-0.2-0.7-0.3
				c-0.5-0.2-0.8-0.4-0.8-0.6c0-0.2,0.3,0,0.8,0.2c0.4,0.1,0.6,0.2,0.6,0c0-0.1-0.2-0.2-0.6-0.4c-0.4-0.3-0.7-0.5-0.6-0.7
				c0.1-0.2,0.2,0.1,0.8,0.3c0.7,0.3,0.8,0.5,1.3,0.4c0.4-0.1-0.8-1-0.5-1.2c0.4-0.2,2.1,2,2,2.6
				C367.4,311.3,366.5,311.2,365.1,310.8z"/>
			<path class="st60" d="M392.6,312.8c0.5,0.4,1.3,1.6,0.8,1.7c-0.6,0.1-4-2.4-4-2.4S391.7,312.1,392.6,312.8z"/>
			<path class="st72" d="M386.7,311.3c0.8,0.2,1.8,0.5,2.7,0.8l1.1-3.7l2.8,0.4l-0.5,4.1c0.1,0.1,0.2,0.2,0.3,0.3
				c0.7,0.5,1.3,1.7,1.4,2.9c0,0,0,0.1,0,0.1c-3.2-0.2-3.2-2.8-4.8-3.6C388.7,312.3,387.4,312.5,386.7,311.3z"/>
			<path class="st60" d="M395.4,309.7c-1.8,2-6.9,2.5-11.5-1.5c-3-2.6-2.3-9.6-0.5-11.4c1.8-1.8,5-8.5,6.4-8.7
				c3.6-0.5,8.3,1.5,11.2,9.1C402.8,302.1,397.1,307.9,395.4,309.7z"/>
			<path class="st77" d="M395,307.6c-0.5-1.9-0.1-4.6,2.8-5.7c1.8-0.7-2.7-11.4,2.7-10.2c5.4,1.2,4.4,12.9-0.8,15.7
				C397.4,306.5,397.3,305.8,395,307.6z"/>
			<path class="st60" d="M395.4,306.9c1.2-1.4,4.9-0.1,4.4,1.8c-0.5,1.8-3.3,1.8-4.3,1.2C394.4,309.4,394.6,307.8,395.4,306.9z"/>
			<path class="st73" d="M395.9,307.7c0.7-0.8,2.7,0,2.4,1c-0.3,1-1.8,1-2.4,0.7C395.3,309,395.4,308.1,395.9,307.7z"/>
			<path class="st60" d="M395.2,307.9c0.5-0.5,1.8,0,1.6,0.7c-0.2,0.7-1.2,0.7-1.6,0.5C394.8,308.8,394.9,308.2,395.2,307.9z"/>
			<path class="st76" d="M398.9,300.4c-1-2.8-2-8,0.1-9.3c2.1-1.3,4.3,2.6,4.4,3.9C403.6,296.2,400,303.5,398.9,300.4z"/>
			<path class="st79" d="M387.6,323.6c0.1,0.7,1.5,9.5,0.9,9.4c-0.6-0.1-2-2.8-2-2.8L387.6,323.6z"/>
			<polygon class="st79" points="391.2,347.7 391.4,346.6 383.7,347.8 383.8,348.8 			"/>
			<path class="st80" d="M388.1,347.3c0,0,0-0.1,0-0.1l3.3-0.5l-0.1,1.1l-3.2,0.5C388.1,347.9,388.1,347.6,388.1,347.3z"/>
			<g>
				<g>
					<path class="st74" d="M389.4,305.1c0.1-0.1,0.1-0.3,0-0.4c0-0.1-0.1-0.2-0.2-0.3l-4.3-1.2c-0.1,0-0.2,0-0.2,0.1
						c-0.1,0.1-0.1,0.2-0.1,0.3c-0.1,0.8,0,2.5,1.6,3.2C388,307.5,389,306,389.4,305.1z"/>
					<path class="st86" d="M388.9,304.9c0-0.1,0-0.1,0-0.2c0-0.1-0.1-0.1-0.2-0.1l-3.4-1c-0.1,0-0.1,0-0.2,0c0,0-0.1,0.1-0.1,0.1
						c0,0.4-0.5,1,1.5,1.7C388.9,306.2,388.7,305.2,388.9,304.9z"/>
				</g>
				<path class="st73" d="M386.5,301.7c0.6,0.3,1.2,0.2,1.4-0.2c0,0.1,0,0.2,0,0.3c-0.2,0.5-0.8,0.6-1.5,0.3c-0.6-0.3-1-0.9-0.9-1.4
					c0,0,0.1-0.1,0.1-0.1C385.6,301,386,301.4,386.5,301.7z"/>
				<g>
					<path class="st87" d="M386.3,292.8c1.3-1,2.6-0.5,2.9-0.2l0.5-0.8c-0.4-0.5-2-1-3.5,0.2L386.3,292.8z"/>
				</g>
				<g>
					<path class="st87" d="M394,293.2c1.9,0.6,2.7,2.5,2.7,3l0.9-0.2c0-0.9-1.2-3.1-3.3-3.7L394,293.2z"/>
				</g>
			</g>
		</g>
		<g>
			<path class="st60" d="M290.3,330.5c-0.3,0.3-0.5,0.8-0.4,0.9c0.1,0.1,0.3-0.2,0.5-0.4c0.2-0.2,0.3-0.2,0.3-0.2
				c0,0-0.2,0.3-0.4,0.6c-0.3,0.4-0.4,0.7-0.3,0.9c0.1,0.1,0.3-0.2,0.6-0.5c0.3-0.3,0.4-0.4,0.5-0.3c0.1,0.1-0.1,0.3-0.3,0.7
				c-0.2,0.4-0.3,0.8-0.1,0.8c0.2,0.1,0.1-0.2,0.5-0.6c0.4-0.6,0.4-0.8,0.8-0.9c0.4-0.1-0.1,1.2,0.2,1.2c0.4,0,0.7-2.7,0.4-3.1
				C291.8,329,291.2,329.4,290.3,330.5z"/>
			<path class="st78" d="M328.2,306.7c0.4-0.2,1.9-1,2.2-1c0.3,0,0.3,1.7,0.1,1.8c-0.2,0.1-2.2,0.2-2.4,0.3
				C328,307.9,327.6,307,328.2,306.7z"/>
			<path class="st88" d="M298.8,358.2c2.2-6.8,4-19.3,8.6-20.5c3.1-0.8,5.8,20.5,5.8,20.5h1l-0.1-28l-13.4,1.3l-2.9,26.7H298.8z"/>
			<g>
				<path class="st89" d="M299.2,345.5l-1.4,12.7h1c1-3.2,2-7.6,3.2-11.5C301,346.3,300,345.9,299.2,345.5z"/>
				<path class="st89" d="M311.5,347.6c1.1,5.2,1.7,10.6,1.7,10.6h1l-0.1-11.1C313.4,347.3,312.5,347.5,311.5,347.6z"/>
			</g>
			<g>
				<polygon class="st90" points="314.1,330.2 314.1,330.1 300.7,331.5 297.8,358.2 298.7,358.2 301.6,331.5 				"/>
				<path class="st90" d="M308.3,337.6c-0.1,0-0.2,0.1-0.3,0.1c2.9,1.6,5.2,20.4,5.2,20.4h0.8C314.1,358.2,311.4,336.8,308.3,337.6z
					"/>
			</g>
			<path class="st90" d="M305.1,337.3c1,0.3,1.5,0.7,2.7,0.7c1.2,0,3-1,3-1C308.7,337.5,307.3,337.5,305.1,337.3z"/>
			<path class="st90" d="M300.4,337.4c3.6,0.1,9.4-2,13.8-2.5l0.1-2.4l-13.5,2.8L300.4,337.4z"/>
			<path class="st91" d="M299.2,336.5c3.4,0.5,11.5-2.2,15.5-2.5c0,0,0.1-16.1-2.2-23.6c-0.4-1.4-10.9,0.6-11.4,3
				C300.7,315.1,299.2,336.5,299.2,336.5z"/>
			<path class="st92" d="M303.8,311.4c0.1,0.9,1.5,3.2,4.6,1.6c2-1.1,0.6-2.9,0.6-2.9C306.9,310.3,305.2,310.7,303.8,311.4z"/>
			<path class="st93" d="M312.5,310.4c0-0.2-0.2-0.3-0.5-0.3c2.1,7.5,2.1,22.2,2.1,24c0.2,0,0.4-0.1,0.6-0.1
				C314.7,334,314.9,317.9,312.5,310.4z"/>
			<path class="st93" d="M302.4,324.8c-2.1-2.9-1-6.8-0.7-11.2c-0.1,0.2-0.8-0.2-0.9-0.1c-0.4,1.7-1.7,23-1.7,23
				c0.2,0,0.4,0,0.7,0.1C300.3,333.1,300.5,328.7,302.4,324.8z"/>
			<path class="st94" d="M313.7,316.2l-13.4,4.1c-0.1,0.9-0.1,1.8-0.2,2.8l14.1-2.3C314.1,319.2,313.9,317.6,313.7,316.2z"/>
			<path class="st91" d="M290.9,328.5c-0.4,1.2,1.8,2.4,2.5,1.5c1.1-1.6,6.1-10.7,8-11.7l0.5-5.8
				C297.6,314.6,291.8,326.3,290.9,328.5z"/>
			<path class="st93" d="M292.1,330.2c0.5,0.2,1,0.1,1.3-0.2c1.1-1.6,6.5-10.9,8.4-12C299,318.4,293.7,329.6,292.1,330.2z"/>
			<path class="st95" d="M294.2,358.4h4.9c0,0,0.4-1.5-0.3-1.7C298.1,356.5,294.2,358,294.2,358.4z"/>
			<path class="st95" d="M317.5,358.4h-5c0,0,0.5-1.1,1.2-1.3C314.5,356.9,317.5,358,317.5,358.4z"/>
			<polygon class="st60" points="304.3,311.4 304.6,306.9 307.8,306.8 308.7,310.7 			"/>
			<path class="st60" d="M330.3,306.4c0.2-0.2,0.3-0.5,0.2-0.6c-0.1-0.1-0.4,0-0.7,0.3c-0.2,0.2-0.3,0.5-0.2,0.6
				C329.8,306.8,330.1,306.6,330.3,306.4z"/>
			<path class="st60" d="M329.8,306.5c-0.1-0.4-0.3-0.6-0.4-0.5c-0.1,0.1-0.2,0.4,0,0.8c0.1,0.4,0.3,0.6,0.4,0.5
				C329.9,307.2,329.9,306.9,329.8,306.5z"/>
			<path class="st60" d="M329,307.1c0.3-0.3,0.6-1,0.5-1.1c-0.1-0.1-0.6,0.2-0.8,0.4c-0.2,0.2-0.3,0.4-0.2,0.5
				C328.6,307,328.8,307.3,329,307.1z"/>
			<path class="st60" d="M330.4,307.1c0.2-0.2,0.3-0.4,0.3-0.6c0-0.1-0.2-0.1-0.4,0.1c-0.2,0.2-0.3,0.4-0.3,0.6
				C330,307.3,330.2,307.3,330.4,307.1z"/>
			<path class="st60" d="M330.6,307.5c0.1-0.1,0.1-0.3,0.1-0.3c-0.1-0.1-0.2-0.1-0.4,0c-0.2,0.2-0.2,0.4-0.1,0.5
				C330.3,307.8,330.5,307.7,330.6,307.5z"/>
			<path class="st91" d="M327.7,306.3c1.5-0.2,1.9,2.3,0.5,2.4c-2.8,0.1-13.8,3.8-14.7,6.4l-4.3-4.9
				C311.9,309.6,324.9,306.6,327.7,306.3z"/>
			<path class="st93" d="M313,314.7l0.5,0.6c0.9-2.5,11.9-6.4,14.6-6.5c0.5,0,0.8-0.4,0.9-0.9C325.9,308.2,314.3,312.2,313,314.7z"
				/>
			<path class="st60" d="M308.4,310.2l-4.1,1.2c0.3,1,1.3,1.7,2.8,1.3C308.7,312.4,309.1,311,308.4,310.2z"/>
			<path class="st72" d="M307.3,314.7c3.3-0.7,5.4-4,6.2-5.5c-1.6,0.4-3,0.7-3.9,0.8c-0.3,0-0.6,0.1-0.8,0.1c-0.1,0-0.2,0-0.2,0
				l-0.8-3.4l-3.2,0.1l-0.2,4.3c-0.2,0.1-0.4,0.2-0.5,0.3c0,0,0,0,0,0c-0.8,0.3-1.4,0.6-1.9,1l0,0c-0.5,0.2-1,0.6-1.5,1
				C301.5,314.6,303.3,315.6,307.3,314.7z"/>
			<path class="st96" d="M313.6,286c0,0-0.5-4.3-8.9-5.6c-8.5-1.3-9.4,1-9.6,2c0,0-7.3,2,1.3,5.5c0,0-5.4,2.4-2.5,6.9
				c0,0-2,1.7-0.1,5c0,0-6.7,2.5,2.6,6.1c0,0-4.6,4.7,9.1,2.8l11.1-14.6C319.4,290.4,316.7,286.3,313.6,286z"/>
			<path class="st97" d="M307.9,287c-3.4-0.9-12.3,0.3-14.9-0.9c0.6,0.6,1.7,1.2,3.4,1.9c0,0-5.4,2.4-2.5,6.9c0,0-2,1.7-0.1,5
				c0,0-6.7,2.5,2.6,6.1c0,0-4.6,4.7,9.1,2.8c0,0,7.6-2.9,11.7-8.2c2.7-3.6,0.6-8.3,0.6-9.3C314.3,291.7,314.3,288.8,307.9,287z"/>
			<path class="st60" d="M300.8,305.2c1.3,1.6,2.1,4.4,10.3,4c5.2-0.3,6-5,5.9-7.3c-0.1-2.8-0.1-7.1,0.1-8.2
				c0.2-1.1-0.3-4.8-3.9-5.7c-3.6-0.8-9.7,1.2-12,4.9C299.3,295.8,299.2,303.2,300.8,305.2z"/>
			<path class="st97" d="M301.4,304.7c2.9-0.6,3.6-3.9,2.4-5.8c-1.2-1.9,1.5-10.6,4.4-11.6c0,0-11.4,0.3-10.7,7.7
				c0.2,2.7,0.7,4.7,2.1,5.8C301.9,302.7,301.4,304.7,301.4,304.7z"/>
			<path class="st60" d="M302,303.2c-0.6-1.7-2.1-4.3-3.4-2.6c-1.3,1.7,0.7,4.1,1.8,4.4C301.4,305.4,302.4,304.4,302,303.2z"/>
			<path class="st73" d="M301.3,303.3c-0.4-1.1-1.3-2.6-2.1-1.6c-0.8,1,0.4,2.5,1.1,2.7C301,304.6,301.5,304,301.3,303.3z"/>
			<path class="st60" d="M301.3,304c-0.2-0.7-0.8-1.6-1.3-1c-0.5,0.6,0.3,1.6,0.7,1.7S301.5,304.4,301.3,304z"/>
			<path class="st96" d="M306.5,288.4l-1.4,2.1c0,0-4.3,0-5.7-1.9c0,0,2.6,0.2,3.9-0.2C304.5,288,306.5,288.4,306.5,288.4z"/>
			<g>
				<g>
					<path class="st74" d="M308,304.5c0-0.1,0.1-0.3,0.1-0.3c0.1-0.1,0.2-0.1,0.3-0.1l4.2,0.8c0.1,0,0.1,0.1,0.2,0.2
						c0,0.1,0,0.2,0,0.3c-0.3,0.7-1,2.2-2.7,2C308.3,307.2,308,305.4,308,304.5z"/>
					<path class="st86" d="M308.5,304.5c0-0.1,0-0.1,0.1-0.2c0.1,0,0.1-0.1,0.2,0l3.4,0.6c0.1,0,0.1,0,0.1,0.1c0,0,0,0.1,0,0.2
						c-0.2,0.3,0,1.1-2,0.8C308,305.6,308.6,304.9,308.5,304.5z"/>
				</g>
				<path class="st73" d="M310.6,303.2c-0.5-0.2-0.8-0.6-0.7-1c-0.1,0.1-0.1,0.1-0.2,0.2c-0.2,0.4,0.1,0.9,0.7,1.1
					c0.6,0.2,1.2,0.1,1.4-0.3c0,0,0-0.1,0-0.1C311.5,303.4,311,303.4,310.6,303.2z"/>
				<path class="st60" d="M316.7,298.7c0.1-0.8-0.7-2.9-1.9-3.1c-1.2-0.2-2.3,1.7-2.4,2.4c-0.1,0.8,0.8,0.2,2,0.3
					C315.6,298.6,316.5,299.5,316.7,298.7z"/>
				<path class="st60" d="M310,297.4c0.1-0.8-0.7-2.9-1.9-3.1c-1.2-0.2-2.3,1.7-2.4,2.4c-0.1,0.8,0.8,0.2,2,0.3
					C308.9,297.3,309.9,298.2,310,297.4z"/>
				<g>
					<path class="st96" d="M309.8,295.3c-1.7-0.8-3.8-0.1-4.2,0.3l-0.5-0.7c0.7-0.6,3.2-1.3,5.1-0.4L309.8,295.3z"/>
				</g>
				<g>
					<path class="st96" d="M316.5,297.6c-0.9-1.5-2.6-1.8-3-1.6l-0.1-0.9c0.7-0.2,2.7,0.2,3.7,1.9L316.5,297.6z"/>
				</g>
			</g>
			<path class="st96" d="M308.7,286.2c1.2,1.5,7.4,8.3,8.8,4.9C319.3,287,308.7,286.2,308.7,286.2z"/>
		</g>
		<g>
			<path class="st98" d="M368.6,247c1.4-1.8,8.7,3.1,8.7,3.1s-2.4-2.7-1-2.7c1.2,0.1,4.5,2.6,5.8,4.2c-0.4-0.7-0.7-1.7,0.2-1.8
				c1.4-0.2,8.3,4.3,1.8,16.9l-16.3,6.7c0.2-9,0.7-17.7,1.3-18.9c0.6-1.2,2.5-2.5,2.5-2.5S367.2,248.8,368.6,247z"/>
			<path class="st99" d="M368.4,247.7c1.7,2.2,5.5,3.3,8.9,5.5c3.8,2.4,6.6,5.4,9.4,5.8c-0.3,2.1-1.1,4.7-2.7,7.7l-16.3,6.7
				c0.2-9,0.7-17.7,1.3-18.9c0.6-1.2,2.5-2.5,2.5-2.5S368.2,249.5,368.4,247.7z"/>
			<path class="st100" d="M379.4,280.1l0.4-8l-9-7.8l-3.4,12.3c0,0,2.5,2.9,4.6,4.3C374.3,282.6,379.4,280.1,379.4,280.1z"/>
			<path class="st101" d="M383.4,257.2c2,6.5-1.2,20-1.4,20.2c-0.2,0.2-5.6,1.1-6.7,0.7c-1.1-0.4-4.9-2.6-5.7-3.7
				c-0.8-1.1,0.4-9.7,0.6-11c0.1-1.3,3.8-9.5,4.7-9.9C375.8,253.1,382.8,255.3,383.4,257.2z"/>
			<path class="st99" d="M370.2,265.8l1.2,1.2c0,0,5.7-10.9,4.1-13.8c-1.6-2.9-5.7,9.5-5.7,9.5L370.2,265.8z"/>
			<path class="st102" d="M370.3,267.8c-1-2-1.7-3.2-1-4.8c0.7-1.6,2.3-0.9,2.4,0.9C371.8,265.7,370.3,267.8,370.3,267.8z"/>
			<path class="st103" d="M370.2,266.7c-0.6-1.2-1-1.9-0.6-2.9c0.4-0.9,1.4-0.5,1.5,0.5C371.2,265.4,370.2,266.7,370.2,266.7z"/>
			<path class="st102" d="M370.3,266.8c-0.4-0.9-0.7-1.4-0.5-2.1c0.3-0.7,1-0.4,1,0.4C370.9,265.9,370.3,266.8,370.3,266.8z"/>
			<g>
				<path class="st103" d="M379.5,264.3c-0.1-0.2-0.2-0.3-0.3-0.2c0.7,2.4,0.1,7.8,0,8.1c-0.1,0.2-1.7-0.4-2.4-0.6
					c-0.1,0.3-0.1,0.5-0.1,0.5s2.7,1,2.8,0.8C379.6,272.6,380.2,266.8,379.5,264.3z"/>
				<g>
					<path class="st98" d="M379,263.1c-0.1,0.4-0.4,0.7-0.8,0.7c-1.6,0.1-4.1,0.4-4.2-0.1c-0.1-0.7,0.3-1.9,0.8-2.2
						c0.2-0.1,2,0.1,4,0.5c0.1,0,0.2,0.1,0.3,0.3c0.1,0.1,0.1,0.3,0,0.5L379,263.1z"/>
					<path class="st98" d="M383.4,264.9c-0.2,0.2-1.8-0.5-2.9-0.8c-0.2-0.1-0.3-0.3-0.3-0.5l0-0.7c0-0.2,0.1-0.3,0.2-0.4
						c0.1-0.1,0.2-0.2,0.4-0.2c1.4,0,2.5,0.1,2.7,0.4C383.7,262.9,383.7,264.6,383.4,264.9z"/>
				</g>
				<g>
					<path class="st4" d="M380.9,266.9c0.2-0.9,0.5-1.8,1.9-1.9c1.4-0.1,1.7,1.3,1.6,1.7c-0.1,0.4-0.6,1-1.4,0.9
						c-0.7-0.1-1.4-0.3-1.6-0.3C381.1,267.2,380.8,267,380.9,266.9z"/>
					<circle class="st104" cx="382.6" cy="266.2" r="1.1"/>
					<path class="st4" d="M381.8,265.6c0,0.3,0.1,0.5,0.4,0.6s0.5-0.1,0.6-0.4s-0.1-0.5-0.4-0.6
						C382.1,265.1,381.8,265.3,381.8,265.6z"/>
					<path class="st4" d="M377.5,266.2c0.1-0.9,0.2-1.9-1.1-2.5c-1.3-0.6-2.1,0.5-2.1,1c0,0.5,0.2,1.1,0.9,1.3
						c0.7,0.2,1.4,0.2,1.6,0.3C377.1,266.5,377.4,266.4,377.5,266.2z"/>
					<path class="st104" d="M377.1,265.1c-0.1,0.6-0.7,1-1.3,0.9s-1-0.7-0.9-1.3s0.7-1,1.3-0.9C376.9,263.9,377.2,264.4,377.1,265.1
						z"/>
					<path class="st4" d="M376.2,264.4c0,0.3-0.3,0.5-0.6,0.4c-0.3,0-0.5-0.3-0.4-0.6c0-0.3,0.3-0.5,0.6-0.4
						C376.1,263.9,376.3,264.2,376.2,264.4z"/>
				</g>
			</g>
			<path class="st74" d="M379.1,273.6c0.2,0.1,0.4,0.2,0.5,0.5c0.1,0.2,0.1,0.5-0.1,0.7c-0.8,1.1-1.6,2-2.8,1.5
				c-1-0.4-1.6-1.3-1.6-2.4c0-0.3,0.2-0.6,0.4-0.8c0.2-0.2,0.5-0.2,0.8-0.2L379.1,273.6z"/>
			<path class="st105" d="M378.9,273.6c0.2,0,0.4,0.2,0.5,0.3c0.1,0.2,0,0.4-0.1,0.5c-0.6,0.8-1.1,0.7-2.1,0.5
				c-1-0.2-1.6-0.4-1.6-1.2c0-0.2,0.1-0.4,0.3-0.6s0.5-0.2,0.7-0.1L378.9,273.6z"/>
		</g>
	</g>
</g>
</svg>
