<?xml version="1.0" encoding="utf-8"?>
<!-- Generator: Adobe Illustrator 24.0.3, SVG Export Plug-In . SVG Version: 6.00 Build 0)  -->
<svg version="1.1" id="Layer_1" xmlns="http://www.w3.org/2000/svg" xmlns:xlink="http://www.w3.org/1999/xlink" x="0px" y="0px"
	 width="480px" height="600px" viewBox="0 0 480 600" style="enable-background:new 0 0 480 600;" xml:space="preserve">
<style type="text/css">
	.st0{fill:#674399;}
	.st1{fill:#FFB781;}
	.st2{fill:#F1EDDC;}
	.st3{fill:#513B3E;}
	.st4{fill:#422E31;}
	.st5{fill:#F2EEDD;}
	.st6{fill:#D8C8AB;}
	.st7{fill:#D8583A;}
	.st8{fill:#C14229;}
	.st9{fill:#FAB280;}
	.st10{fill:#4892CE;}
	.st11{fill:#FFB882;}
	.st12{fill:#EA7B59;}
	.st13{fill:#FFFFFF;}
	.st14{fill:#39170B;}
	.st15{fill:#E97B59;}
	.st16{fill:#A5A7AA;}
	.st17{fill:#6E6F72;}
	.st18{fill:#392A38;}
	.st19{fill:#542C23;}
	.st20{fill:#FFF4EA;}
</style>
<rect x="-21" y="-21.2" class="st0" width="523" height="633"/>
<title>Artboard 23</title>
<g>
	<g>
		<path class="st1" d="M152.9,211.5l-44.7-23c-1.8,10.1-10.7,27.2-14.3,31.1l33.5,25.8C127.5,245.6,138.5,221.4,152.9,211.5z"/>
		<path class="st1" d="M138.5,221.4c3.2-1.5,10.5-7.7,16.9-11.5c7.5-4.4,37.6-5.2,38.3-8.6c1.1-4.9-2.6-10.5-5-11.5
			c-2.6-0.9-31.1,3.5-31.7-0.5c-1.1-6.5,7-17.6,6.3-20.7c-1.7-6.9-30.3-8-38-7.3c-7.7,0.7-19.1,20.5-17.2,38
			C108.6,205.8,138.5,221.4,138.5,221.4z"/>
		<path class="st1" d="M156.3,185.4c3.6-8,7.9-19.1,10-21.2s13.8-14.2,13.7-16.5c-0.1-2.3-2.6-9.4-6.3-7.6
			c-3.4,1.8-16.2,15.3-18.3,19.5c-2,4-9.6,16.5-9.5,18.1C146.3,179.3,154.3,189.9,156.3,185.4z"/>
		<path class="st1" d="M134.6,180.1c2.6-8.4,5.7-20,7.3-22.5c1.7-2.3,12-15.9,11.7-18c-0.3-2.1-3.7-9.1-6.8-7s-14.3,17.4-15.9,21.6
			c-1.5,4.3-7.6,17.8-7.2,19.2C124.1,175.1,133.2,184.8,134.6,180.1z"/>
		<path class="st1" d="M146.7,183.7c2.6-8.4,5.7-20,7.3-22.5c1.7-2.3,12-15.9,11.7-18c-0.3-2.1-3.7-9.1-6.8-7s-14.3,17.4-15.9,21.6
			c-1.5,4.3-7.6,17.8-7.2,19.2C136.1,178.6,145.2,188.4,146.7,183.7z"/>
		<path class="st1" d="M121.7,185.9c1.8-8.6,3.7-20.7,5.3-23.2c1.5-2.6,10.4-17.1,9.8-19.2c-0.5-2.2-4.6-8.9-7.4-6.3
			s-12.5,18.6-13.7,23.1c-1.2,4.5-5.8,18.4-5.3,20C110.7,181.7,120.6,190.8,121.7,185.9z"/>
	</g>
	<polygon class="st2" points="141,234.5 129.9,255.6 81.4,222.9 91,205.8 	"/>
	<path class="st3" d="M114.5,300.4c7.7,3.6,98.4,6.8,120.9,13.3c58.7,16.8,75.1,63.1,57.2,71.6C267.9,397,89,380.2,28.1,350.1
		l54.8-133.7l61.9,32.7L114.5,300.4z"/>
	<path class="st4" d="M298.3,386.9c0.4-0.2,1-6.6,1.2-6.8c-55.6,8.3-249.7-17-259.9-34.2s57.3-122.3,57.3-122.3l-14-7.4
		c0,0-72.1,120.7-57.3,138.7S273.6,398.7,298.3,386.9z"/>
	<path class="st4" d="M106,306.3c0,0,69.9,4.9,124.5,17.4c8.2-1.2,21.3-6.5,7.1-10.6c-19.8-2.9-110.1-17.4-118.2-17.8l3.8-10.9
		L106,306.3z"/>
</g>
<path class="st4" d="M216.2,605.3c-16.8-44.8-45.5-263.4,11.6-290.6c57.1-27.2,148.2-18.3,173.7-1.6
	c25.5,16.7,40.1,224.1,37.5,266.3C436.3,621.6,216.2,605.3,216.2,605.3z"/>
<path class="st5" d="M382.9,299.6c-19.8-4.5-46.4-5.5-71.8-4c-23.9,1.3-47.7,4.6-67.5,12.9l83.3,149L382.9,299.6z"/>
<path class="st6" d="M300.5,410.4c0.4-3.1,7.2-82.3,7.2-82.3l12.1,1.1l15,105.9l-7.9,22.4L300.5,410.4z"/>
<polygon class="st6" points="332.8,349.8 316.5,318.7 366,296.3 382.9,299.6 "/>
<polygon class="st6" points="295.6,349.8 311.1,318.2 261,300.9 248.5,306.6 "/>
<path class="st7" d="M401.1,63.8c-7.9-16.5-73.8,9.2-73.8,9.2s23.7-17.1,12.5-19.1c-9.2-1.6-39.9,12.4-52.6,22.5
	c4.2-5.1,8.3-12.2,1.9-14.6c-10.5-4-73.2,19.1-43.5,129.8l116.7,81.1c13.8-71.2,25.7-140.4,23.1-150.9
	c-2.6-10.5-15.2-23.7-15.2-23.7S409,80.3,401.1,63.8z"/>
<path class="st8" d="M402.1,69.7C385,84,353.3,86,322.3,97.2c-34.2,12.4-61.2,30.6-84.1,29.2c-1.5,17.3,0.3,38.7,7.4,65.3
	l116.7,81.1c13.8-71.2,25.7-140.4,23.1-150.9c-2.6-10.5-15.2-23.7-15.2-23.7S400.4,84.2,402.1,69.7z"/>
<polygon class="st9" points="258.8,305.1 270,241.8 354.3,196.2 368.2,300.3 316.1,324.8 "/>
<polygon class="st10" points="327.2,458 304.2,417 309.5,333.7 317.8,333.7 330.8,447.4 "/>
<polygon class="st10" points="315.1,341.5 297.3,322.1 307.4,309.6 320.9,309.2 330.2,320.6 "/>
<polygon class="st5" points="332.8,342.2 319.6,309.4 367.4,282.9 381.1,298.2 "/>
<polygon class="st5" points="295.6,342.2 309.1,309.5 260.3,291.8 250.4,304.8 "/>
<path class="st1" d="M267.3,117.9c-27,47.2-25.7,159.5-24.4,161.5c1.3,2,42,18.3,51.2,17c9.2-1.3,42.7-11.7,51.2-19
	c8.6-7.3,13.6-77.1,14.9-87.7c1.3-10.5-13.2-81.7-19.8-86.3C333.9,98.8,275.2,104,267.3,117.9z"/>
<path class="st8" d="M356.1,208.8l-11.4,7c0,0-25.9-95.8-8.3-115.6c17.6-19.8,28.1,84.4,28.1,84.4L356.1,208.8z"/>
<path class="st11" d="M351.7,224.6c11.4-14.1,19.3-22.4,16.7-36c-2.6-13.6-16.3-11-20.7,2.6C343.4,204.9,351.7,224.6,351.7,224.6z"
	/>
<path class="st12" d="M354.1,215.7c6.9-8.4,11.6-13.5,10-21.7c-1.6-8.2-9.8-6.6-12.4,1.6C349.1,203.8,354.1,215.7,354.1,215.7z"/>
<path class="st11" d="M353.5,216.8c4.9-6.1,8.3-9.6,7.2-15.5c-1.1-5.9-7-4.7-8.9,1.1C349.9,208.3,353.5,216.8,353.5,216.8z"/>
<g>
	<path class="st12" d="M285.1,180.8c1-1.7,1.8-2,2.6-1.1c-9.4,17.5-14.3,61.5-13.9,63.6c0.4,1.7,14.1-0.1,19.7-0.9
		c0.1,2.7,0.1,4.3,0.1,4.3s-22.8,3.5-23.2,1.3C269.9,245.9,275.1,199.1,285.1,180.8z"/>
	<g>
		<path class="st7" d="M291.4,179.5c1.4,2.9,4.3,4.8,7.1,4.5c12.9-1.3,33.1-2.5,33.1-6.4c0-5.3-5.2-14.3-9-16.1
			c-1.8-0.8-15.9,3.6-30.8,9.3c-1,0.4-1.8,1.3-2.1,2.4c-0.3,1.1-0.2,2.5,0.4,3.7L291.4,179.5z"/>
		<path class="st7" d="M251.7,173.9c0.8,2.4,14.2,4.3,23.4,6.2c1.4,0.3,3-0.6,3.9-2.1l2.9-5.1c0.7-1.2,0.9-2.5,0.7-3.8
			c-0.2-1.2-0.9-2.3-1.8-2.8c-9.4-5.5-17.5-9.3-20.1-8.3C258.4,158.8,250.6,170.6,251.7,173.9z"/>
	</g>
	<g>
		<path class="st13" d="M270.1,198.6c0.2-7-0.9-15.4-11.6-18.3c-10.9-2.9-15.9,6.9-15.7,10.4c0.1,3.5,3.1,8.8,9.1,9.5
			c6,0.6,11.3,0.1,13.5,0.4C267.5,200.9,270,200,270.1,198.6z"/>
		
			<ellipse transform="matrix(4.801719e-02 -0.9988 0.9988 4.801719e-02 55.307 438.0824)" class="st14" cx="257.5" cy="190" rx="8.9" ry="8.9"/>
		<path class="st13" d="M265.1,186.9c-0.1,2.2-2,4-4.1,3.9s-4-2-3.9-4.1s2-4,4.1-3.9C263.4,182.7,265.2,184.5,265.1,186.9z"/>
		<path class="st13" d="M297.9,199.4c0.3-7,1.8-15.3,12.7-17.6s15.5,7.8,15,11.4c-0.5,3.6-3.6,8.6-9.7,8.9c-6,0.3-11.3-0.7-13.5-0.4
			C300.5,201.9,297.9,200.9,297.9,199.4z"/>
		<path class="st14" d="M302.6,190.9c-0.1,5,3.7,9.1,8.6,9.2c5,0.1,9.1-3.7,9.2-8.6c0.1-5-3.7-9.1-8.6-9.2
			C306.8,182,302.8,185.9,302.6,190.9z"/>
		<path class="st13" d="M311,187.6c-0.1,2.2,1.7,4.2,3.9,4.1c2.2,0.1,4.2-1.7,4.1-3.9c0.1-2.2-1.7-4.2-3.9-4.1
			C312.9,183.6,311.1,185.4,311,187.6z"/>
	</g>
</g>
<g>
	<g>
		<path class="st15" d="M358,295.6c-2.1-6.5-7.6-4-7.3-15.3c0.2-11.3,1.3-27.1,1.3-27.1l26.5,9.2l-2.1,17.9L358,295.6z"/>
		<path class="st16" d="M383.4,159c-3.9-4.4-10.7-5.9-12.8-2.6c-2.1,3.3-33.2,96.8-34.3,100.2c-1.1,3.4,1.1,7.7,5.4,11.1
			C346,271.1,383.4,159,383.4,159z"/>
		<path class="st17" d="M365.2,286.1l-23.4-18.4c-1.3-1-1.8-2.8-1.3-4.4l36.3-103c1-2.8,4.7-3.5,6.7-1.3l25.1,28.6
			c1,1.1,1.2,2.7,0.7,4.1l-38,92.8C370.2,287,367.2,287.8,365.2,286.1z"/>
		<path class="st11" d="M366.2,276.6c2.7-4.1,1.9-12.3,1.3-14.7c-1.6-6.9-10.7,8.3-13.6,6c-5-3.9,5.7-17.2,9.1-18.6
			s10.1,3.5,10.1,3.5s-6.1-9.1-8.4-11.6c-2.3-2.5-7.6-2.4-12.3-3.6c-4.2-1-4.2-6.2,0.5-7.9c4.2-1.5,9-2.1,15.5,0.8
			c6.5,2.9,10.3,12.8,10.3,12.8l-2.5-15c-0.2-1.1-0.8-2.1-1.6-2.8c-2.5-2-7.8-6.1-12.2-8c-7.9-3.4-3.2-10.5,1.3-9.4
			c4.5,1.1,15.2,1.6,19.8,5.7c4.6,4.1,5,15.6,5,15.6s-0.9-27.2,0.3-30.6c1.2-3.4,9.5-9.7,10.6-3.3c1.1,6.3,2,19.5,1,28.9
			c-1,9.4-11.9,52.5-12.1,64.8c-0.6,36.4,5.4,28.3,12.8,53.5c7.4,25.2-42.6,23.2-40.5,3.9c2.4-22.1-7.1-49.5-3.2-56
			C358.4,288.4,363.5,280.7,366.2,276.6z"/>
		<path class="st18" d="M379.6,167.9c0.1,2.1,1.3,3.9,2.8,3.8s2.6-1.8,2.5-4c-0.1-2.1-1.3-3.9-2.8-3.8
			C380.7,164,379.5,165.7,379.6,167.9z"/>
	</g>
	<g>
		<g transform="matrix(-1.27969,0.349765,-0.419718,-1.06641,270.346,213.249)">
			<polygon class="st2" points="-60,-117.8 -64.3,-100.2 -34.5,-96.2 -31.6,-113.9 			"/>
			<path class="st3" d="M-16.1-292.8c3.3-1,54.1,14.7,31.4,58.4c-18.8,36.2-36.7,82.7-47.6,128l-29.7-5
				C-57.8-219-36.9-286.4-16.1-292.8z"/>
		</g>
	</g>
</g>
<path class="st19" d="M272.2,254.6c-1.9,0-3.9,1.2-4.8,2.7c-1.2,1.7-1.4,3.7-0.6,5.6c4.1,9.6,9.3,18.7,19.1,16.8
	c8.7-1.7,15-7.7,16.8-16c0.4-2.3-0.2-4.8-1.7-6.8c-1.5-1.9-3.9-2.9-6.4-2.9L272.2,254.6z"/>
<path class="st20" d="M273.6,255.1c-1.7,0-3.3,0.8-4.2,1.9c-1,1.2-1,2.9-0.4,4.2c3.7,7.3,7.5,7.7,15.8,7.7c8.5,0,13.5-0.2,14.9-6.4
	c0.4-1.7-0.2-3.7-1.5-5c-1.4-1.4-3.3-2.3-5.4-2.3L273.6,255.1z"/>
</svg>
