<?xml version="1.0" encoding="utf-8"?>
<!-- Generator: Adobe Illustrator 24.0.3, SVG Export Plug-In . SVG Version: 6.00 Build 0)  -->
<svg version="1.1" id="Layer_1" xmlns="http://www.w3.org/2000/svg" xmlns:xlink="http://www.w3.org/1999/xlink" x="0px" y="0px"
	 width="480px" height="600px" viewBox="0 0 480 600" style="enable-background:new 0 0 480 600;" xml:space="preserve">
<style type="text/css">
	.st0{fill:#81D7F7;}
	.st1{fill:#478012;}
	.st2{fill:#459135;}
	.st3{fill:#775131;}
	.st4{fill:#82BA3F;}
	.st5{fill:#3E6D0D;}
	.st6{fill:#4E7C18;}
	.st7{fill:#875B39;}
	.st8{opacity:0.8;fill:#538A19;}
	.st9{fill:#4F8F17;}
	.st10{fill:#569C1D;}
	.st11{fill:#96C141;}
	.st12{opacity:0.3;fill:#CCDE45;}
	.st13{opacity:0.3;fill:#7AB53D;}
	.st14{fill:#146D34;}
	.st15{fill:#6CA022;}
	.st16{fill:#159B15;}
	.st17{fill:#ACD34C;}
	.st18{fill:#95C13D;}
	.st19{fill:#0B820B;}
	.st20{fill:#A09A8B;}
	.st21{fill:#B7B09F;}
	.st22{fill:#D3CAB6;}
	.st23{fill:#74BC2E;}
	.st24{fill:none;}
	.st25{fill:#0F602A;}
	.st26{fill:#1B873F;}
	.st27{fill:#87E4F9;}
	.st28{fill:#EFA8EF;}
	.st29{fill:#FFF8DC;}
	.st30{fill:#FFCE00;}
	.st31{fill:#70484F;}
	.st32{fill:#563038;}
	.st33{fill:#EDB07C;}
	.st34{fill:#FFCC9B;}
	.st35{fill:#FB9F00;}
	.st36{opacity:0.1;fill:#2A2232;}
	.st37{fill:#FBC617;}
	.st38{fill:#733022;}
	.st39{fill:#291D27;}
	.st40{fill:#FFC296;}
	.st41{fill:#EE8E6F;}
	.st42{fill:#994F3E;}
	.st43{fill:#FFAD84;}
	.st44{fill:#2A2232;}
	.st45{fill:#423B49;}
	.st46{fill:#6C6771;}
	.st47{fill:url(#SVGID_1_);}
	.st48{fill:#38313F;}
	.st49{fill:#1E1626;}
	.st50{opacity:0.3;fill:#2A2232;}
	.st51{fill:#514E56;}
	.st52{fill:#002543;}
	.st53{fill:#00365D;}
	.st54{fill:#FFFFFF;}
	.st55{fill:#FB6D6D;}
	.st56{fill:#3FCDB8;}
	.st57{fill:#FBEBD2;}
	.st58{fill:#F6D5D5;}
	.st59{fill:#AFF7EB;}
	.st60{fill:#F2D040;}
	.st61{fill:#EDA830;}
</style>
<title>Artboard 23</title>
<g>
	<rect x="-23.3" y="-13.2" class="st0" width="518.3" height="349.4"/>
	<path class="st1" d="M128.9,242.7c-2.4-0.4-5.1-0.6-7.3,0.9c2.6-7,5.2-13.4,4.4-21.4c-2.4-0.9-4.2,1.3-6.3,2.1
		c1.2-4,5.2-20.6,1.4-23.8c-4.3-3.5-7.8,6.1-10.3,7c-0.8-5.3,2.4-19.7-2.1-22.6c-5.4-3.5-6.7,9.1-9.6,10.6c-0.5-3.3,0.6-14.8-3-15.7
		c-4.8-1.2-6.3,11.9-7.8,14.8c-1.9-2.1-4.5-17.6-9.5-13.3c-4.2,3.6-1.5,16.2-2.3,21.4c-4.3,0.2-3.2-6.3-8.4-3.2
		c-3.7,2.2-7.1,8.3-9.2,13.1c1.5-5,0.6-13.6,0.1-18.1c-4.6-1.2-8.1,9.1-11.4,11.5c2.4-3.8,3.3-15.7,0.7-19.9
		c-5.3,1.1-9.1,10-11.5,15.1c0.2-4.1,0.4-8.7-0.1-12.7c-4.3-1.5-8.7,12.3-8.8,16.6c-2.2-2.8-0.7-14.9-4.4-17.1
		c-4.7-2.8-8.1,13-8.3,17.1c-2.6-3.8-5.1-17.4-11.5-14.1c-6.2,3.2-1.3,17.2-2.1,23.4c-4.7-1.8-6.3-8.7-10.8-11.3
		c-3.2-1.9-6.9-1.7-10.3-1.3c-0.8,8.1,0.1,16.4,2.8,23.9c1.5,4.1,3.1,7.2,4.9,10.8c1,1.9,1.9,2.4,1.9,4.8L96,295.4
		c6,1.1,24.2-6.3,21.2-16.6c-0.8-0.1-1.8-0.3-2.6-0.3c4.3-2.4,9.1-8,8.5-12.9c-2.2-0.7-4.3,0.3-6.3,1.1
		C122.3,261.3,130.5,252.4,128.9,242.7z"/>
	<path class="st2" d="M251.3,289.8c-1.3-3.1,1.3-11.9,0.9-15.9c-3.1-0.6-5.7,3.1-9.2,2.1c1.3-5.9,3-10.2,2.4-16.5
		c-4.3-1.5-9,4-11.4,7.9c-0.4-3.6,0.8-15.4-3-16.7c-3.2-1.1-9.2,13.8-11.5,15.7c-0.7-3.9,0-12.4-5.1-12c-5.1,0.4-3.6,11.7-4,15.6
		c-3.5-0.6-4.5-9-8.9-4.8c-3.6,3.5-1.1,13.2-1.9,18c-1.5-1.4-2.2-7.1-3.9-8.2c-2.2-1.3-5.8,3.3-6.7,5.5c1.1-4.6,2.6-12.1-0.1-16.3
		c-4.3,1.4-6.6,7-10.3,8.2c-0.4-3.7-0.6-6.9-1.3-10.5c-5.9-2.9-6.8,10.5-10.4,11.7c0.1-3.4-1.5-14.7-5.1-14.2
		c-4.6,0.7-4.1,12.4-5.5,15.4c-1.7-4.7-6.1-18.4-11.7-15.3c-4.8,2.6-2.8,14.4-3.3,18.9c-3.7-2.3-12.5-20.9-17.4-16.6
		c-4.8,4.2,4.1,15,1.1,19.1l-11.7,67.3c-0.2,0.3-0.4,0.7-0.7,1c5.3,1,11.1,0,16.4-0.7c8.9-1.3,18.3-0.3,27.2-0.3c16.5,0,33,0,49.5,0
		c10.4,0,21-0.8,31.2,1.2c2.7,0.5,6.3,3.4,8.4,1c1.5-1.6,2.1-7.1,2.9-9.6c2.2-7,3.2-14.3,5.1-21.4c1.8-6.5,8.4-23.6,4.9-30
		C256.2,291.7,252.8,293.3,251.3,289.8z"/>
	<path class="st1" d="M489,168.4c0.2-3.4-0.9-7.6-3.4-7.7c-6.1-0.4-10.4,14.3-14.4,17.8c-0.7-5.7,3.8-17.5-5.3-10.5
		c-2.7,2.1-5.5,5.5-7.5,9.4c0.1-1,0-1.9-0.1-2.9c-4.4,1.8-6.5,8.6-9.4,12.5c-1-4.6,1.3-10.1,0.7-15.1c-5.6-2.4-7.2,9.7-11.4,10.6
		c-0.6-5.7,1.8-16.5-2-20.3c-3.7,3.4-6.9,9.1-8.9,14.1c0.4-3.4,0.1-17.2-2.8-18.8c-4.6-2.5-4.9,11.9-4.9,14.9
		c-0.5-3.9-3.6-20.1-7.8-18.8c-5.8,1.9,0.5,22.5-1.6,26.6c-2.1-3.3-8-20.6-11.8-15.7c-1.3,1.8,0.1,9.1,0.5,10.9
		c0.9,3.9,3.4,6.8,4.1,10.5c-3.6-3.1-7.9-16.4-13.4-14c-1.6,11.4,4.6,18.4,6.5,28.6c-3.6-2.9-8.5-11.3-13.3-9.3
		c-0.4,1.9-0.8,3.7-1.4,5.5c-1.1-3.2-2.7-13.1-6.6-13c-3.6,0.1-4.8,8.7-5,11.8c-2-3.1-2.6-11.1-6.6-10.6c-3.9,0.6-2.9,9.6-2.8,13
		c-1-3.6-6.5-19.9-10.8-16.3c-4.5,3.7,0.7,19.7,1.1,24.7c-0.4-5.5-6.4-18.3-11.8-11.4c-5.1,6.5,2.4,21.9,4.6,28.3
		c-2.6-3.4-10.3-15.2-13.3-8.2c-2.7,6.2,4.1,17.3,6.5,21.9c-1.6-2.7-7.7-1.6-10.1-1.2c-0.4,2.6-0.3,5.5,0.7,7.8
		c-2.1-2.4-9.2-5.9-11.5-1.8c-1.5,2.8,2.5,9.8,4.5,10.7c-4.2-1-8-1.6-12.3-1.2c0.6,6.3,4.9,12.4,7.4,17.8
		c-3.5,0.5-15.1-2.4-14.2,4.9c0.4,2.8,5.6,8.5,7.6,9.7c2.4,1.4,5,1.3,7.5,1.1c-2.1,0.2-10.8,3.4-11.2,6.3c-0.6,4.3,5.1,5,7.4,6
		c3.8,1.7,20.7,11.5,23.6,5.7l94.2,96.1c1.1,3.2,3.2,8.7,6.7,7c0.1-0.8,0.2-1.7,0.2-2.6c0.8,6.6,5.8,18.5,10.9,10
		c3.1,4.1-1.9,17.9,7.5,14.2c8.1-3.2,6.2-19.7,12.6-23.9c4,4.1,7.3,24.6,13.6,22.7c6.4-1.9,7.9-21,8.7-27c1.2,2.3,2.7,5.4,4.5,8
		V162.2C492.6,163.9,490.5,166,489,168.4z"/>
	<path class="st1" d="M-18,44c1.6,3.9,3.7,7.1,6.1,9.9c1.9,2.2,4,3.7,4.9,7.2l27.2-4.8c-3.1,7.4-2.6,17.3-0.8,25.1
		c8.4,1.9,8.6-9.7,12.2-15.4c0.4,4.9,0.5,16.7,6.1,17.7c4.8,0.9,6.2-10.7,5.8-15c3.2,4,6.2,12.9,12.5,10.2c0.5-4.1-0.2-8.6,0.3-12.6
		c5,7.9,9.9,11.5,18.1,10.2c0.7-5.7-0.1-9.9-3.4-14.1c3.1,3.5,10.1,5,14.2,4.7c3.2-0.2,3.7,0.3,5.1-3.6c1.3-3.5,0.5-6.5-1.9-9.2
		c2.6,2.4,9.8,4.2,13.1,3.3c5.1-1.4,5.3-7.3,0.5-9.8c5.2,0.2,14.2,0,18.3-5c4.6-5.6-0.7-10.1-3.9-13.7c4.9,3.4,8.3,6.8,14.3,6.7
		c3.6,0,13.8-6.7,7.3-11.6c7.2,6.1,24,3.4,13.6-8.9c5.4-0.3,10.2,4.2,14.3-2.3c5.1-8.2-1-10.3-5.3-14.5c3.8,0.1,6.3,0.8,9.1-2
		c2-1.9,3.9-5.9,4.6-9.7H-19.9c-1.1,4.9-1.7,10-1.7,15.2C-21.6,16.2-23.2,31-18,44z"/>
	<path class="st3" d="M1.1,260.6c3.7-8.3,1.1-15.8,0.9-25.8c-0.9-39.4-5.5-79.1,0.5-118.3C13.7,43.7,87,48.7,127.6,15.7
		c5.8-4.8,18.4-16.7,24.6-28.8h-14.9c-1.7,4.7-3.7,9.6-7.3,13.8c-6.6,7.6-21.5,17.2-17.6-2.1c0.7-3.8,1.8-7.7,2.8-11.7h-14.5
		C96-3.2,93,6.5,84.4,12.4c-10.2,7-23,7.8-33.8,13.2c-8.2,4.1-23.9,17.4-32,8c-8.1-9.3-2.8-31.3-1.5-46.7h-40.4v307.5
		C-14.3,283.8-4.2,272.6,1.1,260.6z"/>
	<rect x="-23.3" y="336.3" class="st4" width="518.3" height="291.6"/>
	<g>
		<path class="st5" d="M128,367.5L128,367.5c0,0-0.1,0-0.1,0C127.2,367.5,127.2,367.5,128,367.5z"/>
		<path class="st6" d="M205.9,354.8c11.5-16.9,9.2-42.2-10.3-23.6c11.7-25.2-6.5-25.7-19.7-10c0.2-5.9,4.7-15.4-0.7-18.5
			c-7.6-4.4-16.2,15.3-18.7,20.9c0.1-4.8,1.8-22.5-4.2-22.1c-5.4,0.3-7.4,20.9-8.5,25.8c-1.5-5.5-5.1-20.5-10.4-11.2
			c-3.6,6.2,3.5,18.4,1.4,26.2c0,0-6.8,25.2-6.8,25.2c2.8,0.2,4.6,2.7,7.4,3.4c2,0.6,4.4,0.2,6.5,0.2c6.4,0,13.1-0.8,19.4,0.2
			c9.3,1.6,18.8,3.2,27.9,4.6c0,0,0,0,0,0c6.5,1,17.2,0,22.1-6.2C216.8,362.8,215.7,350.8,205.9,354.8z"/>
	</g>
	<path class="st3" d="M480.7,235.4c-0.8-17.3,0-35.2,0-52.6c0-15-1-29-1-44.1c0-17.7,0-35.3,0-53c0-17,1.2-35.3-0.2-52.1
		c-7.6-1.3-6.6,3.4-7.7,13.7c-1.1,9.7-2.3,25.3-8.4,31c-13.1,12.1-12.5-32.1-12.2-42.8c-4.8,3.5-10.6,4.7-11.3,13.8
		c-2.2,29.1,11.9,57.3,8.2,87c-4,32.3-22.8,16.1-32.3-4c-7.9-16.6,0.1-39.9-1.4-58.8c-1.8,0.6-6.8,3.5-8.1,5.8
		c-1.6,3-0.9,7.9-1.2,12c-0.6,9-1.1,22.9-8.7,20.1c-9.3-3.5-20.2-24.1-19.7-39.5c-2.4,0.5-6.8,4.4-8.9,6.6c0.8,7.5,6.8,20,9.3,26.5
		c2.9,7.3,4.4,15.4,7.9,22.8c4.5,9.9,9.8,17.1,15.2,25.7c5.8,9.1,11.4,18.5,16.3,28.8c9.3,19.8,19.4,43.2,19.3,68.9
		c0,9.9-0.6,19.9-1.2,29.7c-0.9,12.6-0.4,25.3-1.5,37.9c-1.4,16.3-2.1,32.8-3.3,49c-0.6,8.5-2.6,17.4-2.1,26l67.1,86.2V321.1
		c-1.9-12.3-4.3-24.3-6.9-35.7C484.5,269.5,481.5,252.1,480.7,235.4z"/>
	<g>
		<path class="st7" d="M466.2,327.5c-1.4-21.7-2.5-43.4-5.1-65c-1.4-11.6-3-23.2-3.1-34.9c-0.1-8.9,3.6-25.1-4.8-29.4
			c-0.8,4.2-2.9,22.9-0.3,26.1c-4.1-5.3-6.8-14-9.5-20.2c-3.2-7.4-6.6-13.7-10.4-20.6c-4.3-7.8-14.4-34-26.6-41.8
			c-1.5,5.4,2.9,10,5,14.1c2.3,4.5,4.2,9.8,6.4,14.5c11.3,23.8,23.9,47.7,25,76.2c0.5,13.5-2,26.9-1.3,40.3
			c1.2,23.1,7.8,45,7.4,67.9c-0.1,6.2-2.2,12.9-1.1,18.9c3.5-0.1,8.2,1.7,11.5,3.1c3.7,1.5,6.2,5.9,10.2,6.6
			c1.4-14-0.6-28.8-2.2-43.1C466.9,335.9,466.4,331.7,466.2,327.5z"/>
		<g>
			<path class="st7" d="M472.7,336.7l-3.6,4.4C471.2,343.6,472.2,340.6,472.7,336.7z"/>
			<path class="st7" d="M477.9,297.9c-0.2-14.1-1-28.2-1-42.5c0-17.6,0.4-34.6-2.9-51.4c-1.2-6.2-3.6-12.1-4.8-18
				c-1.3-6.7-0.5-13.5-1.2-20.4c-2.4-23.6-4.4-48.5-9.5-71.9c-2.6,5.3-1.5,18.9-1,24.9c0.8,9.2,2.9,18.2,2.9,27.7
				c0,16.1,1,28.2,7.1,41.9c2.7,6,3.7,14.7,3.6,21.7c-0.1,10.5,1.6,20.8,2,31.4c0.6,17.1,0.9,34.3,0.9,51.6
				c0,11.3-0.1,22.5-0.8,33.7c-0.1,1,0,5.9-0.5,9.9l6.1-7.6c0.3-4.3-0.9-8.5-1-12.9C477.7,310.1,477.9,304,477.9,297.9z"/>
		</g>
		<g>
			<path class="st7" d="M446.7,194.5c0.3,0.3,0.6,0.5,0.9,0.8c-0.1-0.5-0.3-0.9-0.4-1.3L446.7,194.5z"/>
			<path class="st7" d="M444.8,177.6c-2,4.7-1.6,4.6,0,9.6c0.7,2.3,1.7,4.5,2.4,6.7l1.5-1.9c0.1-9.8,4-18.8,2.7-28.7
				C449.2,164.9,446.3,174.3,444.8,177.6z"/>
		</g>
	</g>
	<g>
		<path class="st1" d="M314.7,403.7c0.5-0.4,1-0.9,1.5-1.4C315.7,402.6,315.2,402.8,314.7,403.7z"/>
		<path class="st1" d="M316.3,402.3c0.2-0.1,0.4-0.2,0.5-0.3l-0.2,0C316.5,402,316.4,402.1,316.3,402.3z"/>
		<path class="st1" d="M329.6,331.6c-6.5-1.5-9.7,5.1-15.2,6.1c-0.6-6,4-13.2,4.8-19.5c0.7-6.2,0.9-14,0.1-20.2
			c-7.1-3-10.2,8.4-12.9,13.7c1-5.1,2.4-10.3,2.8-15.6c0.2-2.1,1-14.7-0.3-16.2c-6-7-14.7,16.4-19,17.8c-1.1-7.3,2.7-24.6-5.4-27.4
			c-7.8-2.7-9.5,10.9-11.3,17.1c-2.9-4.4-3.2-26.4-12-23.5c-5.8,2-1,18.2-1.2,23.7c-3.3-5.8-11.7-28.5-18-26.5
			c-1,7.3-0.3,15.5-0.2,22.9c-2-5-7.3-24.2-14-16.9c-5.7,6.2-3.3,27-4.4,35.3c-2.1-2.5-1.9-19.6-8.5-12.5c-2.6,2.8-2.9,12-3.9,15.8
			c-0.9,3.6-3.1,7.7-3,11.6c-0.5-5.6-2.9-18-8.1-13.4c-3.9,3.5-2.3,20-2.1,25c-1.7-3.3-4.5-19.1-8.9-13.8c-3.2,3.8,1.8,17.8,2.5,22
			c-5-1.9-8.2-10.8-14.2-8.8c-0.9,6,1.5,14.8,5,20.6c-3.2-3.5-6.7-5.6-11.4-4.5c-1.6,10.6,4.8,30,10.1,38
			c8.9,13.5,27.5,8.9,39.8,10.4c13.7,1.7,27.4,3.2,41.1,4.6c12.8,1.3,25.7,2.6,38.5,4.1c2.4,0.3,14.6,4,16.6,1.9
			c3.7-3.9,8.2-10.7,9.1-15.4c-1.9,1.1-3.9,1.5-5.9,0.8c2.9-4.3,8.6-12.8,7.2-18.5c-2.8,0.4-4,4.9-7.1,4.2
			C324.3,360.2,331.5,347.9,329.6,331.6z"/>
	</g>
	<path class="st8" d="M306.3,313.3c1-5.1,2.4-10.3,2.8-15.6c0.2-2.1,1-14.7-0.3-16.2c-6-7-14.7,16.4-19,17.8
		c-1.1-7.3,2.7-24.6-5.4-27.4c-7.8-2.7-9.5,10.9-11.3,17.1c-2.9-4.4-3.2-26.4-12-23.5c-5.8,2-1,18.2-1.2,23.7
		c-3.3-5.8-11.7-28.5-18-26.5c-1,7.3-0.3,15.5-0.2,22.9c-2-5-7.3-24.2-14-16.9c-5.7,6.2-3.3,27-4.4,35.3c-2.1-2.5-1.9-19.6-8.5-12.5
		c-2.6,2.8-2.9,12-3.9,15.8c-0.9,3.6-3.1,7.7-3,11.6c-0.5-5.6-2.9-18-8.1-13.4c-3.9,3.5-2.3,20-2.1,25c-1.7-3.3-4.5-19.1-8.9-13.8
		c-3.2,3.8,1.8,17.8,2.5,22c-5-1.9-8.2-10.8-14.2-8.8c-0.9,6,1.5,14.8,5,20.6c-3.2-3.5-6.7-5.6-11.4-4.5c-0.5,3.1,0.3,9,2,15.6
		c5,6.2,14.8,6.5,15.6-5.8c1.2,4.3,3.2,10.3,7.8,9.3c5.2-1.1,3.5-8.8,6-12.9c1.6,2.9,5.4,7.6,8.6,6.9c4.4-0.8,3-8.6,2.8-12.9
		c9.8,12.8,20.6-5.8,16-18c3.8,7.6,14.7-2.8,16-9.5c-0.1,3.8,2.3,9.2,4.9,10.4c5.9,2.7,7.1-5.7,10.5-8.4c0.7,5-1.7,13.9,3.1,16.6
		c4.9,2.7,6.7-2.5,9.7-5.4c1,2.8,2.1,7.2,4.8,8c3.9,1.2,7.8-6.4,10.1-9.6c2.3,0.5,1.5,3.9,2.6,6c1,1.7,3.1,3.1,4.9,3.9
		c6.3,2.6,6.8-3.3,7.9-9.8c4.9,2.6,8.2,3.8,12.4-1.5c0,0,0.1-0.1,0.1-0.1c1.1-3,2.2-6,2.5-8.9c0.7-6.2,0.9-14,0.1-20.2
		C312.1,296.6,309,308,306.3,313.3z"/>
	<path class="st9" d="M486.5,358.3c-5.6-2.9-11.2,10-14.5,13c-0.1-4.3-0.4-16.4-5-16.6c-2.3-0.1-6.6,6.3-7.8,8.2
		c-1.6,2.5-2.6,7.1-4.6,8.6c0-6.6-3.6-16.5-9.9-12.3c-4.8,3.2-6.8,16.6-6.9,22.8c-2.1-2.7-8.5-9-11.4-4.6c-2.8,4.3,1,18.2,1.7,22.9
		c-5.7-1.7-9.7-8.7-16.3-7c-1.6,6.5,6.4,22,11.5,23.9l-3.9,4.8c-2.2,2.1-6,4.1-4.7,8.2c1.8,0.3,3.6,0.2,5.4,0.1
		c-5.9,2.6,4.3,3.7,5.8,3.7c-1.8,0.2-4.1,2-3.5,4.7c3.1,0.5,6.4-0.2,9.5,0.4c-6.4,5.4,2.2,14.7,7.6,9.5c0.5,3.9-0.1,7.9,0.3,11.8
		c4.4,0.6,7.7-5.3,11.4-4.6c0.3,3,0,6.2,0.3,9.3c6.7,2.2,8.9-7.9,13.3-9.3c0.7,4.3,0.4,8.6,1.3,13c6.5,2.2,8.6-7.2,13.2-9.4
		c1.9,4.4,3.7,15.7,10,13.2c5-2.1,2.3-13.1,3-17.8c0.8,0.9,1.6,1.8,2.5,2.8v-88.9c-3.2,1.3-6.3,3.6-8.1,5.4
		C487.8,370.7,490.6,360.4,486.5,358.3z"/>
	<path class="st10" d="M450.6,328.9c-0.3-2.2-4.7-5.6-6-6.4c-2.9-1.9-6.1-2.5-9.1-3.9c3.2-2,15.2-4.6,12.2-12.6
		c-1.4-3.6-9.6-5.4-12.4-5.6c-2.9-0.2-6,1.8-8.9,0.9c3.7-5.5,8.2-13.5,2.2-19.1c-4.6-4.3-9.8,0.6-14,3.6c1.1-3.3,6-12.1,2.7-15.3
		c-3.1-3.2-10.6,4.3-12.4,6.9c1.5-4.3,6.2-14.1-0.4-15.3c-6.5-1.2-12.9,9.5-17.6,13.5c1.3-4.3,5.2-15.7-1.5-15.1
		c-6,0.5-8.5,9.1-13.3,10.7c-0.5-4.5-0.5-9-1-13.6c-3-0.5-7.2,5.5-9.4,7.9c-0.3-3.3,1.5-11.4-2.3-9.6c-1.6,0.7-4.4,4.8-5.3,6.4
		c-0.9,1.8-0.5,4.3-2,5.2c-0.3-3.3-0.9-6.6-0.9-10c-0.1-3.4,0.9-6.7-2.2-5.6c-4.5,1.6-5.7,12.5-8.7,15.6c0.2-6-5.9-16.1-11.3-11.7
		c-4.7,3.8-5.3,13.6-5.1,19.7c-2.6-3.7-8.8-13.4-13.1-8.7c-6.5,7-0.2,22.2-0.1,30.7c-2.6-2.8-9.1-7.2-11.8-2.5
		c-1.8,3.2,0.5,13.3,2.5,16.7c-2.7-3.8-10.6-2.8-12.9,1.3c-3.5,6.2,3,11.1,6.4,13.9c-2.8-1.4-6.3-0.8-9.3-0.8
		c-3.6,0.1-4.1,0.3-4,4.6c0.2,5.4,2.1,8.8,4.5,12.6c-6.1,1.5-12.4-1-9.4,9.3c2.1,7.1,8.5,14.6,15.1,13.8c-4.7,1.2-10.1,7.3-5.9,12.8
		c3,4,12.1,5.3,16.6,3.3c-4.7,2.5-6.7,11.8-1.6,15.3c5.1,3.4,11.2-2.2,16.3-1.2l70.9,30.8c-0.1,0.9,0,2.2,0.2,3
		c1.8,0.4,2.8-0.5,4.3-0.8c3-0.5,1.7-0.1,4.4,1.9c3.4,2.4,6.5-0.1,9.5-1.8c0.6,4.4,2.4,8.2,6.1,8.1c6.9-0.3,6.1-5.5,5.8-11.4
		c0.4,4.3,6.1,5.9,8.8,4.1c2.5-1.7,1.7-6.6,1.6-9.7c1.7,1.9,1.3,3.3,3.5,4.4c2.1,1,5.4,0,6.9-1.9c4.3-5.2-1.3-14.1-4.3-18.3
		c4.1,0,13.3,0.5,13.3-6.5c-0.1-8.6-8.8-10.4-11.2-16.2c3.8-0.7,13.5,1.1,12.6-6.8c-0.7-6-7.7-7-11-9.7c2.9-0.3,10.6,0,10.2-5.7
		c-0.3-5-9.8-6.3-13.9-6.4c4.6-0.3,14.1-2.9,13.2-9.1c-0.8-5.7-9.3-5.7-12.4-8.3C439.2,336.6,451.6,335.3,450.6,328.9z M388.7,427.5
		l0.5,0.2C389,427.7,388.9,427.6,388.7,427.5z"/>
	<path class="st10" d="M477,389.9c2.4-4.8,2.6-19.4-4.8-16.2c-5.3,2.3-9.7,16.2-10,22.6c-2.4-4-4.3-18.2-10.5-16.6
		c-5.6,1.5-5.8,18-0.3,19c-4-0.1-7.4,0-11.2,1.4c-0.6,4.4,5.3,13.1,8.6,14.3c2.5,0.9,6,0.3,8.9-0.5c-4.2,2.6-7.8,10.8-3.2,13.8
		c3.2,2.1,7.7-2.6,10.5-3.7c0.3-0.1,0.6-0.2,0.9-0.4c-2.1,4.1-1.5,13,1.2,14.6c3.3,2,6.4-4.3,8.6-5.8c0.7,3.6-0.3,10.6,4.3,7.5
		c3-2,2.7-8.6,2.6-11.9c2.3,4.7,5.2,12.7,9.8,6.8c0.7-0.9,1.2-2,1.5-3.2v-11c-0.5-2-1.2-3.7-2.2-4.9c0.7,0.5,1.4,0.9,2.2,1.2v-18.4
		c-2.2-1.4-4.3-2.3-5.9-2.2c2-0.4,4.3-1.6,5.9-3.2v-8.4c-0.2-0.1-0.4-0.3-0.6-0.4C488.7,381.3,479.8,383.8,477,389.9z M472.3,423.9
		l-1.4-1.2c0.7,0,1.3,0.1,2.1,0.2C472.7,423.3,472.5,423.6,472.3,423.9z"/>
	<path class="st9" d="M439,365.7c2.9-0.3,10.6,0,10.2-5.7c-0.2-3.2-4.2-4.9-8.2-5.8c-6.2,5.8-18.5-4-14.3-15.4
		c-4.1,3.9-8.8-2.8-9.9-7.3c-0.3-1.3-0.5-2.8-0.5-4.3c-0.5,1.4-1.2,2.5-2.5,3.1c-3.3,1.6-11.4-1.7-13.7-5.9c1.9,6-1,17.8-5.8,20.6
		c-5.9,3.5-10.7-1.8-13.7-7.2c0.4,7.7,1.8,23.5-6,26.2c-11,3.7-10.8-14.2-10.4-22.7c-1.2,5.1-3.8,10.8-7.8,13.1
		c-2.4,1.3-9.5,2.7-11.8,0.1c-2.3-2.8,0.2-13,1.3-16.1c0.2-0.5,0.4-1,0.6-1.5c-2.8,2.5-6,4-9.5,4.2c-4.5,0.2-9-0.7-7.7-8
		c-4.2,3.4-7.2,12.3-13.7,9.2c-4.3-2-2.5-7.7-3-12.8c-6.9,4.9-26.4,36.4-27.9,14.2c-5.4,0.8-10.4-0.4-7.6,9
		c2.1,7.1,8.5,14.6,15.1,13.8c-4.7,1.2-10.1,7.3-5.9,12.8c3,4,12.1,5.3,16.6,3.3c-4.7,2.5-6.7,11.8-1.6,15.3
		c5.1,3.4,11.2,9.8,16.3,10.8l70.9,18.7c-0.1,0.9,0,2.2,0.2,3c1.8,0.4,2.8-0.5,4.3-0.8c3-0.5,1.7-0.1,4.4,1.9
		c3.4,2.4,6.5-0.1,9.5-1.8c0.6,4.4,2.4,8.2,6.1,8.1c6.9-0.3,6.1-5.5,5.8-11.4c0.4,4.3,6.1,5.9,8.8,4.1c2.5-1.7,1.7-6.6,1.6-9.7
		c1.7,1.9,1.3,3.3,3.5,4.4c2.1,1,5.4,0,6.9-1.9c4.3-5.2-1.3-14.1-4.3-18.3c4.1,0,13.3,0.5,13.3-6.5c-0.1-8.6-8.8-10.4-11.2-16.2
		c3.8-0.7,13.5,1.1,12.6-6.8C449.3,369.4,442.3,368.4,439,365.7z M388.7,427.5l0.5,0.2C389,427.7,388.9,427.6,388.7,427.5z"/>
	<g>
		<path class="st2" d="M361.1,414.4c0,0,0-0.1,0-0.1l-0.8-0.7C360.5,413.8,360.8,414.1,361.1,414.4z"/>
		<path class="st4" d="M445.8,463c5.4-3.2,18.8-24.8,17.4-32.3c-10.6,1.3-21.3,15-29.9,22.3c3.4-12.7,14.3-19.5,17.6-32.3
			c0.8-3-15.5,5.4-15.8,5.7c-5.9,4.5-11.4,10.8-15.5,17.8c-0.3-8.7-0.7-16.7,0.8-25.3c1.3-7.4,3.8-14.9,4-22.3
			c-4.8,2.3-7.4,10.8-10.2,16.4c-1.5,3.2-3.5,6.8-5.2,10.6c1.5-6.7,2.6-13.4,3.1-20.3c0.2-2.6,1.8-25.5-0.8-26.3
			c-3.6-1.1-8.7,12.4-9.6,15.1c-1.6,5.1-2.7,10.8-3.5,16.5c0.5-6.2,5.2-47.7-3.4-45.6c-10.5,2.6-11,44.4-11.7,53.9
			c0.2-17.1,5.1-48-7.7-60c-7.1,9.3-5.4,25.9-4,40.2c0.7,4.3,0.9,8.7,1,13.5c-0.1-4-0.5-8.6-1-13.5c-0.7-4.7-1.9-9.3-3.8-14.1
			c-1.8-4.7-6.3-23-12.4-20.3c-6.4,2.9,1.6,36.2,2.6,41.8c1.1,5.9,5,15.1,3.8,21.3l75.5,62.6c0.7-0.7,1.4-1.4,2.2-2.1
			c0.6-0.7,1.3-1.4,2.1-2c4.5-4.3,9.1-8.6,13.8-12.5c3.7-4.9,11.5-11.9,10.3-19.8C457.7,449.8,452,459.3,445.8,463z"/>
		<path class="st4" d="M371.3,396.9c0.5,4.9,1,9.5,1,13.5C372.3,405.6,372,401.2,371.3,396.9z"/>
	</g>
	<path class="st11" d="M97.5,597.8c14.6-28-40.3-25.3-34.4-53.4c4-19.1,33.5-23.1,45.8-25.1c42.2-7,85.5-11.5,128-16.1
		c23.5-2.6,51.6,0.1,72.8-14.6c3-2,9.4-6.2,7.8-11.8c-1.3-4.8-11.2-8.9-14.6-10.5c-37.1-16.2-76.7-18.5-115.6-22
		c-20.4-1.8-40.6-5.7-60.9-7.6c-17.9-1.7-38.2-0.9-53.1-15.5c12.5,12.3,42-0.8,47.9-9.2c-3.5-1.6-5.8-8.4-9.1-10.9
		c-4.8-3.8-10.9-4.8-16.3-6.3c-16.3-4.5-36.5-10-53.2-9.4c2.3-0.3,4.5-0.7,6.7-1.3c2.8-0.8,10.7-1.5,11.6-5.4
		c-6.6-4.4-18.7-1.5-26-1.5c-7.3,0-42.1-3.7-58.3-4.7v227.3c18.4,6.4,37.5,8.7,57.4,9.1C50.5,609.2,86.4,619.3,97.5,597.8z"/>
	<g>
		<path class="st11" d="M363,551.4c-8.9,3.9-18.3,6.7-26.9,11.7c-3.7,2.2-10.6,5.2-12.9,9.9c-5.3,11,8.9,13.4,14.6,14.2
			c22.2,3.2,45,3.7,67.3,3.9c30,0.3,59.8-1.8,89.7-3.2v-69.8c-19,4.4-38.2,7-57.1,11.6C412.7,535.9,387.3,540.9,363,551.4z"/>
	</g>
	<path class="st12" d="M66.9,575.3c-2.2-9.6-17.6-9.9-24-12c-12.2-4.1-25.7-10.1-34-22.7c-16.7-25.5,13.8-27,27.4-27.9
		c38.7-2.6,77.5-6.1,116.1-10.8c24.4-3,49.1-2,73.4-5.8c8.8-1.4,38.4-7.1,42.2-17.6c1.5-4.2,0.4-7.4-2.5-9.8
		c-9.9-8.3-40.1-6.8-45.8-7c-65.4-2.7-129.4,9-193.9-12.1c0,0,0,0,0,0c-18.2-6,12.4-13.1,17.2-14.2c5.9-1.4,40.6-5.8,23.1-19.3
		c-12-9.3-28,0.4-40.3-7.3c6.9-6.9,23.5,3,23.6-8.6c-8.7-12.3-49.7-10.2-72.7-8.3v187.9C1.8,584.7,71.3,594.9,66.9,575.3z"/>
	<path class="st13" d="M488.8,513.2c0.8,3.3,3,6,6.1,8.1v-18C490.3,505.4,487.7,508.5,488.8,513.2z"/>
	<path class="st12" d="M397.5,562.8c7.4,15.3,41.4,14.2,54.3,14.9c14.4,0.9,28.8,0.2,43.2-0.6v-42.9c-18.4,2.2-36.8,4.8-55.1,5.2
		C430.3,539.6,386.3,539.8,397.5,562.8z"/>
	<path class="st13" d="M50.3,364.4c9-1.5,16.3-8.9,3.2-13.2c-8.8-2.9-19.4-3.2-28.5-4.4c-15.9-2.1-32.2-1.7-48.3-0.6v24.4
		c5.8-0.2,11.6-0.5,17.5-0.7C12.7,369.1,31.9,367.4,50.3,364.4z"/>
	<path class="st13" d="M41.7,491.5c9.3-2.2,14.8-8.7,12.4-15.4c-1-2.8-3.4-5.7-7.6-8.2c-11.9-7.4-27-5.9-39.9-7.3
		c-7.7-0.8-23.7-5.1-23.2-17.9c0.3-7.9,29.9-26.6,18.2-30.7c-7.6-2.6-16.5-2-25-1.2v89.9c4-0.4,7.9-0.9,11.9-1.3
		C6.2,497.3,24.3,495.6,41.7,491.5z"/>
	<path class="st14" d="M-12.2,439.8c0.7,7,12.2,0.3,14.3-2.3c-2.3,3.1,0.1,6.4,2.4,6.9c3,0.6,9.6-2.8,10.6-6.6
		c-0.1,8.4,4.1,10.2,9.8,8.2c4.6-1.6,9.5-3.9,13.3-7.5c2.1-2,4.5-7.7,6.8-8.1c0.6,9.1,4.5,12.4,11.8,9.3c4.1-1.7,8.5-4.6,11.5-8.5
		c1.9-2.4,2.7-5.8,4.9-7.8c0.8,6.8-1.1,14.1,6.7,13c5.2-0.8,10.4-4.8,11-11.7c-0.9,10.4,15.8,1.1,18.3-1.8
		c5.5-6.4,4.6-15.3,1.2-22.3c5.1-2.3,5.3-11.5,4.6-16.9c-2.6-0.7-5,0.4-7.3,0.8c2.6-2.5,6.3-11.1,4.6-15.5c-2.2-5.5-7.3,0.7-8.9,4.5
		c0.2-4,1.2-13.5-3.1-15.1c-2.1-0.8-6.3,1-9,3.5c2-3.6,4.1-7.9,3.2-10.7c-2.3-0.5-5-0.3-7.4-0.1c3.2-2.3,9.8-8.8,7.5-14.6
		c-1.4-3.8-6.5-2.4-9.4-2.2c2.6-3.8,6.1-13.3,1.6-16.7c-2.9-2.2-11,1.4-13.3,3.6c2.4-2.2,9.3-11.4,6.3-15.9
		c-2.9-4.5-13.1,4.2-15.3,6.9c1.6-6.8,4.4-11.1,3.6-18.7c-5.8-2.3-10.6,8.6-14.1,12.1c2.9-7.4,4.3-14.4,3.4-22.7
		c-6.5,2.7-12.4,11.3-15.7,18.6c1.7-4.5,3.3-18.9-1.7-17.7c-5.6,1.4-8.6,17.6-11.5,22.3c-0.5-4.6,1.6-17.4-2.3-20.2
		c-4.2-2.9-6.1,9.2-6.8,13c-2.2-4.7-0.3-20.3-6.8-18c-5.5,1.9-6,16.3-5.6,21.6c-0.3-4.4-5.7-21.7-10.8-18.7
		c-4.7,2.8-3.5,18.5-4,23.5c-3.2-2.3-6.5-18.9-12.6-11.7c-4,4.8,1.1,17.2-0.1,22.8c-1.3-0.4-2.3-1.5-3.1-2.9v58
		c0.8,0.1,1.5,0.2,2.3,0.2L-12.2,439.8z"/>
	<path class="st10" d="M5.2,439.6c-3.4,8.2,0.3,13.8,7.2,10.6C20.1,446.6,29.8,437,34,428c-2,4.8,0.1,10.3,5.3,8.7
		c5-1.6,10.1-8.7,12.8-14.7c-0.5,2.9,0.1,6.7,1.2,8.8c5.1-0.9,8.6-4.1,12.5-8c3.5-3.4,5.2-8.9,8.6-12c0.2,5.3-0.3,13.6,5.9,11.4
		c5.9-2,6.9-11.3,10.6-16.3c0.1,0.6,0.3,1.2,0.3,1.9c3,0.6,12.4,0.7,13.4-4.5c0.9,11.6,16.2-1.1,13-6.3c2.9,5.7,12.7,2.6,15.9-1
		c2.2-2.4,3.9-5.9,3.2-9.7c-0.4-2.1-3.1-4-2.4-6.3c0.5-1.7,5.6-3.2,6.9-4.2c2.1-1.6,5-3.9,5.1-7.5c0.3-7.2-6.7-3.9-9.5-7.2
		c4.6-5.3,18.4-10.1,18.2-19.3c-0.1-6.1-5.7-5.3-10.1-4.9c4.7-1.2,10-8.1,10.1-13.1c0.2-8.1-6.9-7.4-12.3-7.1
		c3-2.4,10.9-7.4,7.8-13.3c-2.4-4.5-12.6-2.5-16.5-2.3c2.5-3.6,9.7-14.3,5.8-19.4c-3.5-4.6-9.3,3.2-12.8,2.3
		c2.7-3.5,9.7-11,8.6-16.4c-5.7-2.1-15.5,4.3-19.2,9.1c-1.2-6.5,7.4-11.7,5.6-17.6c-6.1,0.3-12.5,4.2-17.2,9.1
		c1.5-3.5,1.1-8.9,0.7-12.7c-5.2,1-9.9,7.3-12.6,12.7c-0.1-5.3,6.4-17.6-0.2-17.4c-7.3,0.1-10.3,11.7-13.5,17.5
		c1.9-4.4,2.5-10.2,1.9-15.2c-8.2-1.6-11.6,18.1-18.5,18.1c0.9-2.6,2.7-6.9,2-9.7c-2.8-0.8-8.4,8.7-9.7,11.5
		c0-8.5,6.4-18.2,4.8-25.9c-3.6-1.5-10.1,4.9-12.2,8c2.5-7.9,4.7-16.6,2.4-24.8c-4-1.4-8.6,13.3-10.4,16.6c2-6.3,1.5-17.3,0.7-24
		c-7.3,3-7.1,17.1-12.3,21.5c-0.6-4.3,1.3-25.6-3.8-25c-2.8,0.4-5.3,13.1-5.9,15.7c-0.8,3.7-1,12.1-3.9,14.1
		c-0.7-4.3,0.4-24.5-5.1-22.6c-4,1.4-6.2,20.6-5.7,24.7c-2.1-4.3-3.9-20.3-9.6-18.7c-5.1,1.5-5.2,19.7-5,24.6
		c-2.6-3.1-4-17.7-8.8-17.8c-2,0-3.1,2.1-3.6,5.1v198c1.1,0.1,2.3,0.2,3.3,0.4c-0.7,2.7-2.2,4.8-3.3,7v7.3
		C-14.5,458.5,0.3,447.3,5.2,439.6z"/>
	<path class="st4" d="M459.1,476.9c-1.5,11.3,14.5,17.5,35.1,20.4v-39.4C476.7,460.7,460.4,467.8,459.1,476.9z"/>
	<path class="st15" d="M205.8,444.1c0.1-5.9,0.3-11.9,1.1-17.7c0.5-3.5,4.5-15.9-0.2-16.7c-4-0.7-8.8,13.1-9.5,16.3
		c-1.4,5.9-2.1,11.9-2.1,18c0-5.6-0.6-10.7-1.2-16.2c-0.4-3.7,0-13.5-3.5-14.6c-3.7,6.9-4.2,15.8-4.2,24.3c-0.2-7.7-1-15.6-4-22
		c-3.8-7.9-5,2.1-5.4,7.1c-0.5,6.3-1.2,12.6-1.2,18.9c0-9.8,0.7-22-3.2-30.8c-2.7,2.2-3.5,10.7-4.4,14.5c-1.3,5.9-1.3,11.9-2.4,17.6
		c-2.2-5.2-3-10.8-2.5-16.7c0.5-5.8,3.6-11.9,2.5-17.6c-8.6,7-11.6,17-13.4,29.6c0.1-8.3-0.4-16.8,0.9-24.9
		c1.4-8.5,4.8-16.3,3.8-25.1c-3.9-0.5-8.5,11.9-9.8,15.7c-1.9,5.6-2.9,11.5-3.3,17.5c0.1-4.4,0.2-8.8-0.3-12.9
		c-0.4-3.7-2.3-7.5-3.2-11.1c-0.9-3.4-1.7-9.9-4.6-11.8c-8.8-6-3.4,17-2.2,20.5c1.7,5.1,3.6,10.4,4.2,15.9c0.3,2.8-0.6,6.2,0.3,8.7
		c-0.1-0.2-0.2-0.4-0.3-0.6l4.9,21.6c1.2,4,6.3,4.7,8.8,7.1c2.5,2.4,3.4,5.5,6.7,7.1c2.6,1.2,5.8,2,8.6,2.7
		c10,2.5,21.1,2.1,30.4-3.1c6.2-3.5,11-6.2,14.3-13.8c4.6-10.8,10.2-24.4,8.9-36.9C212.1,418.2,206.4,433.7,205.8,444.1z"/>
	<path class="st15" d="M75.5,438.6c0-18.3,5.4-37.1,2.7-55.4c-2.7,0-3.5,4-4.5,6.8c1.1-2.9,1-6.1,0.7-9.2c-4.5,1.1-3.5,9.4-6.5,12.9
		c0.3-9.7,4.3-19.4,2.6-29.7c-4.3,2.1-7.6,15-9.6,20c-0.2-6.4,6-26.3,0.3-29.7c-2.2,6-5.1,10.6-7,16.9c-1,3.5-3.1,7.3-3.8,11.2
		c0.5-6,2.1-12.4,2.6-18.4c0.4-6.4,0.9-14,0.1-20.4c-4-1-10.1,24-10.5,28.4c0.1-7.6,1.2-14.8,1.8-22.4c0.4-4.6,2.3-21.1-0.7-24.4
		c-4.1,1.2-5.9,11.8-6.9,15.9c-1.4,5.5-2.5,10.4-3.4,15.6c0.1-5.3-0.5-10.8-0.5-15.3c0-7,2.4-22.7-0.9-28.7
		c-5.4,4.5-6.4,18.6-7.6,26.6c0.2-7.2,0.1-15.3-2.4-19.9c-6.2,2-7,22.5-7.4,28.5c-0.7,9.4-0.3,19.1-0.1,28.6
		c-2.1-3.4-1.4-11.3-1.8-15.3c-0.5-6.4-0.4-13-2.4-19c-4,0.7-5.5,16.7-5.9,20.4c-0.5,4.8-1,9.5-1.3,14.2c0.4-11.1,0.4-27-4.2-27.6
		c-4.2-0.6-6.5,20.4-6.7,23.2c-0.1,1.4-0.2,2.8-0.2,4.3c-0.5-13-2.1-25.7-6.7-24c-6.3,2.3-6.8,22.4-6.9,28.1c-0.1,4.9,0,9.8,0,14.7
		c-0.3-5.4-0.9-11-1.6-16.4v73.7l98.9-14.5C75.5,438.5,75.5,438.6,75.5,438.6z"/>
	<g>
		<path class="st16" d="M104.5,417.4c0-0.3,0.1-0.7,0.1-1l-0.9-0.8C104,416.2,104.3,416.8,104.5,417.4z"/>
		<path class="st17" d="M141.4,387.3c-4.2,9.2-9.1,20.6-8.5,31.4c-0.5-5.8,1-12.4,1-18.3c0-6.7,0.5-13.8-0.1-20.4
			c-5.1-3.1-8.2,12.4-9.6,24.7c0.1-4.2,0-8.4,0.1-12.7c0-8.6,1.3-21.3-2.2-29.1c-4.9,2-6.3,16.3-6.9,21.6
			c-0.7,6.2-0.8,12.5-0.8,18.8c-0.3-17.5-1.5-46-6.7-45.1c-7.4,1.3-2.9,30.1-2.9,34.8c0,7.4,0.9,16.2-0.1,23.5l36,30.5
			c0.5-7.9,1.9-16.3,3.6-24c1.9-8.9,4.3-17.6,6.2-26.5c1.1-5.1,2.7-10.2,1.7-15.5C150.1,369.4,143.8,382.1,141.4,387.3z"/>
	</g>
	<path class="st17" d="M35.2,384.6c0.3-6.2-0.1-12.5-1.6-16.8c-5.6,3.5-7.5,13.9-8.2,24.2c-0.2-9.2-1.1-18-4.2-17.2
		c-3.9,1-5.2,16-5.7,20.8c0-0.2,0-0.3,0-0.5c-0.3-6.3-1.5-12.4-2.2-18.7c-4.6,3.6-4.7,17.1-5.4,23.2c-0.8,6.9-1.2,13.4-1.2,20.4
		c0-6.7,0.1-13.4,0-20.1c-0.1-5.1,0.4-18.4-2.9-21.9c-3.9,2.9-4.5,15.5-5.1,20.6c-0.9,7.6-0.7,15.2-0.7,22.8
		c-0.1-10.1-0.8-20-3.1-29.8c-1.3-5.2-3.1-12.4-6.6-5.2c-2.6,5.4-1.2,16-0.7,21.9c0.5,6.4,1.1,12.8,1.5,19.2
		c0.3,4.8,1.6,14.7-0.8,19.1L43.5,418c0,0.7,0,1.3-0.1,2c3.4-5.5,2.7-19.2,3.2-26c0.8-10.4,1.5-20.9-0.5-31.2
		C41.9,366.8,37.7,375.8,35.2,384.6z"/>
	<g>
		<path class="st16" d="M229.1,460.1C229,460.1,229,460.2,229.1,460.1C229.1,461.1,229.1,461.1,229.1,460.1z"/>
		<path class="st17" d="M225.1,447.1c2.7-11.2,5.8-29.7,2-31.4c-3.7-1.7-8,13.2-8.8,15.7c-1.3,4.3-2.8,8.8-3.8,13.3
			c2-16.4,5.4-43.3-2.1-41c-3.3,1-5.3,11.4-5.9,14.4c-1.4,7.1-0.9,14.4-0.9,21.6c0,6.1,0.9,12.2,1,17.9l22.3,2.4c0,0,0,0,0,0
			c5.4-7.2,12-22.2,10.5-32.4C234.1,426.8,228.4,438.2,225.1,447.1z M213.5,455.8c0,0.1,0,0.2,0,0.4
			C213.5,456,213.5,455.9,213.5,455.8z"/>
	</g>
	<path class="st18" d="M228.1,461.3c20.5-7.6-4.9-12.4-12.5-14.1c-19.2-4.4-38-11.2-56.5-18.9c-23.3-9.7-45.9-23.7-70.2-29
		c-24.8-5.4-50.6-0.4-74.1,10.1c-14.2,6.4-26.3,15.6-38.1,25.3v41.2c0.7,0.2,1.5,0.3,2.2,0.4C58.8,489.6,150.4,490.2,228.1,461.3z"
		/>
	<path class="st17" d="M88.8,399.3c-24.8-5.4-50.6-0.4-74.1,10.1c-0.1,0.1-0.3,0.1-0.4,0.2c12.6,30.6,92,35.2,118.3,33.2
		c11.8-0.9,21.2-6.3,27.5-14c-0.4-0.1-0.7-0.3-1.1-0.4C135.8,418.6,113.2,404.6,88.8,399.3z"/>
	<g>
		<path class="st15" d="M139.9,457c-0.3,0.3-0.6,0.6-0.9,1c-2.8,3.8-1.2,9.9-4,13.8c-1-3.9-0.3-10.2-2.6-13.2
			c-1.2,1.2-2.2,3.5-2.7,5.3c-0.7,2.8-0.4,5.9-1.6,8.4c1.7-3.5,0.7-22.3-4.5-19.8c-4.8,2.3-1.4,17.5-1.7,22.3c-0.6-4-2.2-7.7-3-11.6
			c-0.6-3.2-1-9.1-3.7-10.8c-3.3-2.1-4,2.8-4,6.1c-0.1,9.9,4.6,29.6,14.4,30.7c3.9,0.4,9.7,1.5,13.2-1.4c3.5-2.9,3.2-8.8,3.8-13.3
			c0.6-4.1,1.3-8,1.4-12.2C144,458.4,142.5,454.6,139.9,457z"/>
		<path class="st16" d="M144.5,488.9C144.5,489,144.5,489,144.5,488.9C144.5,489.9,144.5,489.9,144.5,488.9z"/>
	</g>
	<path class="st15" d="M1.7,497.3c2.5-0.2,5.3,0.6,7.8,0c5.7-1.5,5.5-10.7,6-16.8c0.5-5.3,4.9-19.4-0.2-23c-2.1,2-4.2,5.3-5.9,8.8
		c0.9-3.9,1-7.7-0.8-10c-4.4,1.9-10.6,15-11.8,20.3c1.7-7.6,7.2-16.5,5.7-24.8c-3.9-0.7-8,6.4-10.5,9.4c-3.1,3.7-6.3,7.7-8.5,12.4
		c1.3-4,2.4-8.8,3.5-12.4c1.7-5.8,3.7-11.5,3-17.7c-5.1-1.5-9.8,4.9-13.2,11.5v41.5c4.4,0.7,8.7,2,13.4,2
		C-5.9,498.5-2.3,497.7,1.7,497.3z"/>
	<path class="st15" d="M138.7,497c-1.5-1.5-5.9-3.6-7.8-3.2l-31.1,2.4c0.2,0.3,0.4,0.7,0.6,1c-8.7,0.1-7.6,7.3-3.1,11.4
		c3.3,3,10.4,1.9,14.4,2.5C116,511.6,151,509.8,138.7,497z"/>
	<path class="st12" d="M14.1,481.7c-0.5-5-0.3-9.8-4.6-6.1c-3,2.6-7.7,13.3-7.8,17.7c0-4.1,0.2-8.5-0.1-12.5
		c-2.4,1.9-3.9,6.9-5,10.9c0.7-4.2,0.5-11.1-1.6-12.4c-3.6-2.2-7.3,10.8-7.8,15.9c0.2-5.5,0.9-18.6-2.9-19.7
		c-4.9-1.4-5.5,15.8-5.9,19.1c0.2-2.5-0.3-10.1-1.7-16.3v30.1l34.7,2C11.5,500.8,15.1,491.5,14.1,481.7z"/>
	<g>
		<path class="st19" d="M20,552.1c0.1-0.5,0.1-0.9,0.1-1.3l-0.9-0.5C19.5,550.8,19.7,551.5,20,552.1z"/>
		<path class="st15" d="M63.8,553.5c2.2-5,10.8-24,3.8-28.3c-6.3-3.9-11.7,15.4-13.5,20c2.4-6,2.8-17.9,1.4-24.1
			c-2.6-11.8-9.7,3.4-11.4,8.1c-1.8,4.8-2.3,9.8-3.5,14.8c1.5-6-0.4-16.1-1.5-22c-1.8-9.7-6.5-11.2-9.1-0.8c-1.5,6-1.1,12-1,18.1
			c-0.7-8.8-7.8-32.5-13.4-24.9c-3,4,1.3,17.8,2.5,22.3c1.3,5.1,2.6,8.9,2.2,14.1l45.7,24.7c-0.8-5.4,4.7-13.9,7-18.1
			c3.1-5.7,4.2-9.6,3.5-16.6C72.5,539.1,65.4,549.8,63.8,553.5z"/>
	</g>
	<path class="st15" d="M24.7,569.2c-5,0.5-23.1-0.8-24.6,7.5c-1.9,9.9,13.7,14.1,29.8,15.8c14.1,1.5,28.5,1.1,31.8,1
		c-7,0.2-11.6,8.3-7.1,15c4.9,7.3,23,5.5,29.1,1c5.2-3.8,5.9-11,3-17.1C74,566.4,45.6,567.2,24.7,569.2z"/>
	<path class="st15" d="M97,569.9c1.5-2.5,3.8-14.8,0.4-15.8c-4.2-1.2-7.9,9.7-9.4,13c1.1-2.4,3.4-16.9,1.1-18.1
		c-4.5-2.4-11,16.1-12.1,19.4c-0.8,2.4-1.7,5-2.1,7.5c-0.5,2.7,0.2,5.5-1.3,7.8c2.6,0.9,25.2,4.5,25.3,6.1
		c-0.3-4.3,3.2-8.5,4.9-11.8c2.6-5,6.1-13.7,3.2-19.5C103.4,560.9,99.4,565.8,97,569.9z"/>
	<path class="st20" d="M57.9,551.8c-8.7-5.8-19.3-6.9-29.1-6.7c-15.6,0.3-53,10-22.7,30c5.5,3.6,11.4,6.3,14.8,7.1
		c12.3,2.9,36.3,9.3,47.9,0.1C79.3,574,63.6,555.6,57.9,551.8z"/>
	<path class="st20" d="M63.3,598.3c0.9,9.6,12.2,12.1,23,10.4c12.4-2,24.2-9.6,19.4-18.5C98.6,577.2,61.2,577.2,63.3,598.3z"/>
	<g>
		<path class="st20" d="M115.6,477.7c-11.3-0.7-34.8,3.9-18.6,21.6c0,0,0,0,0,0c6.9,7.5,19.6,8.8,27.2,6.3
			c8.2-2.6,21.4-12.7,13.6-22C133.5,478.5,121.1,478.1,115.6,477.7z"/>
		<path class="st21" d="M104.2,482.1c-16.3,6.4-3.1,16.7,8.2,17.2c11.8,0.5,25.1-4.4,22.2-12.6C131.4,477.8,110.2,479.7,104.2,482.1
			z"/>
	</g>
	<path class="st21" d="M14.8,558.5c-6.3,13.5,39.5,26.3,47.2,16.6C77.4,555.6,25.3,536.2,14.8,558.5z"/>
	<path class="st21" d="M77,596c0.5,4.4,6,6.1,11.6,6c4.9-0.1,9.8-1.4,11.5-3.4C113.2,583.6,74.5,575.6,77,596z"/>
	<path class="st22" d="M56.7,556.5c-5.1-4.6-36-9.9-28.6,5.5c1.4,2.9,5.2,3.7,7.6,4.7c5.5,2.3,13.2,5.5,18.8,2.2
		C59.2,566.2,61.2,560.5,56.7,556.5z"/>
	<path class="st15" d="M466.2,568.2l-41.8,8.4c-6.2,5.5-64.1,17.4-53.1,27.8c15.2,14.3,58.2-2.4,65.5-2.5
		c19.2-0.2,39.4-0.6,58.2-6.7V566C485.3,565.2,475.7,566.1,466.2,568.2z"/>
	<path class="st19" d="M495,578.8v-0.3c-0.3,0.5-0.5,0.9-0.7,1.4C494.5,579.5,494.7,579.1,495,578.8z"/>
	<path class="st23" d="M485.8,510.1c3.1-15,5.6-34.2-0.1-34.6c-5.7-0.3-10.5,18.4-11.6,22.9c-0.7,3.1-1.3,6.2-1.7,9.3
		c0.9-17.8,1.3-38.9-3.2-37.9c-5.1,1.1-8,21.7-8.8,26c-2.1,11.9-2.8,22.7-2.9,34.8c0-11.4-0.5-22.7-1.1-34.1
		c-0.3-4.6-1.8-24.1-6.4-25.5c-5.3,17.6-6,36.3-6,55c-0.3-7.6-1.3-15.5-2.2-22.6c-0.7-5.3-3.6-29.9-9.5-31.1
		c-11.1-2.3-1.1,46.8,0.7,61.8c-0.6-2.6-1.9-5.2-2.6-7.6c-3.3-10.7-4.7-22.5-8.8-32.9c-1.4-3.5-10.3-27.4-14.7-17.8
		c-2.5,5.5,1,21.1,1.9,26.6c1.8,10.8,4.6,22.1,7.8,32.3c2.7,8.4,5.4,16.8,7.9,25.2c0.8,2.8,1.1,6.3,2.9,8.3l67.6,7.2v-94
		c-1.6,4.4-2.6,9.5-3.4,12C489.9,498.9,487.7,504.5,485.8,510.1z"/>
	<path class="st22" d="M82.6,585.2c-2.7,1.3-5.2,4.9-2.7,8c1.5,1.9,5.3,1.5,7.2,1.5c3.8,0,9.6,1.3,10.8-4.8
		C99.8,579.9,86.1,583.6,82.6,585.2z"/>
	<path class="st15" d="M485.4,495.1c-5.7,0.8-6.7,11-7.8,16.3c-1.6,7.8-3.5,13.9-3.7,21.8c0-7.2-1.7-34.7-6.9-32.2
		c-4.5,2.2-1.9,26.6-1.9,31.3c0,3.5-0.9,11.1,1.9,13.1L495,561v-58.2c-4.6,11.7-8.5,25.8-9.5,29.2
		C488.3,522.4,491.8,503.6,485.4,495.1z"/>
	<path class="st20" d="M415.6,550.9c-2.8,4.4-4.9,9.5-6.1,15.2c0,0,0,0,0,0c-5.2,26.8,36.1,24.1,47.6,23c10-1,26.4-3.8,37.9-11.6
		V531c-4.9-3.2-10.5-5.1-15.2-5.7C460.4,522.5,429.4,529.3,415.6,550.9z"/>
	<path class="st21" d="M436.9,547.3C436.9,547.4,436.9,547.4,436.9,547.3c-2.4,16.7,11.9,24.5,28,25.2c7.5,0.3,21.2-2.7,30.1-9.1
		v-29.7C479.9,520.5,441.1,521,436.9,547.3z"/>
	<g>
		<path class="st20" d="M395.4,575.3c-11.3-0.7-34.8,3.9-18.6,21.6c0,0,0,0,0,0c6.9,7.5,19.6,8.8,27.2,6.3
			c8.2-2.6,21.4-12.7,13.6-22C413.3,576.1,401,575.7,395.4,575.3z"/>
		<path class="st21" d="M384.4,576.1c-16.3,6.4-3.4,20.3,7.9,20.8c11.8,0.5,25.1-4.4,22.2-12.6C411.3,575.5,390.4,573.8,384.4,576.1
			z"/>
	</g>
	<g>
		<path class="st20" d="M212.3,383.2c-6.1-0.4-18.8,2.1-10,11.7c0,0,0,0,0,0c3.7,4.1,10.6,4.7,14.7,3.4c4.4-1.4,11.6-6.9,7.3-11.9
			C222,383.6,215.3,383.4,212.3,383.2z"/>
		<path class="st21" d="M206.3,383.6c-8.8,3.4-1.8,11,4.3,11.2c6.4,0.3,13.6-2.4,12-6.8C220.9,383.2,209.6,382.3,206.3,383.6z"/>
	</g>
	<path class="st4" d="M199.4,483.7c-0.2,0.2-0.3,0.4-0.5,0.6c-3,3.6-4.5,9.3-5,14.2c0-3,3.1-23.4-3.8-19.2c-4,2.4-5.1,14.7-5.8,19.7
		c0.7-6.3,1-17.3-3.8-21.5c-5.4-4.7-4.3,15.8-4,18.8c0.3,3.8,1.1,7.9,0.9,11.8c-0.4-7.6-3.5-16.8-6.5-23.4c-2.4-5.4-10.3-14.1-9.1-2
		c0.4,4,1.7,7.8,2.9,11.4c2.8,8.5,5.5,17.6,9.1,25.5c3.1,6.9,10.9,5.9,15.8,3.6c7.7-3.6,8.3-12.4,11.7-20.5
		c2.2-5.3,4.9-11.3,4.2-17.4C205,480.3,201.8,481,199.4,483.7z"/>
	<path class="st15" d="M326.4,410.9c1.7-4.9,3.4-14.1,1.6-16.2c-4.2-1.7-7.2,11.5-7.6,17.7c0-5.9,0-19.6-3-19.3
		c-4.7,0.5-2.9,18.8-2.9,22.6c-0.9-5.7-3.7-21.2-9.6-21.1c-5.2,4.4,0.8,16.2,3.2,20.3c5.2,9,20.2,12.4,25.1,1.5
		c1.3-3,4.9-12,2.5-14.9C332.8,397.9,328.5,406.2,326.4,410.9z"/>
	<path class="st24" d="M441.1,354.2c0.7-0.6,1.3-1.5,1.8-2.5c-2.6,1.1-5.5,1.7-7.5,1.8C436.8,353.6,438.9,353.8,441.1,354.2z"/>
	<path class="st25" d="M400,324.4c-0.1-0.5-0.3-0.9-0.5-1.3C399.6,323.6,399.8,324,400,324.4z"/>
	<path class="st25" d="M442.8,351.8c0.6-0.3,1.2-0.5,1.7-0.9c-0.3-0.3-0.6-0.6-1-1C443.3,350.6,443.1,351.2,442.8,351.8z"/>
	<path class="st1" d="M203.3-13.2c4.5,5.4,11.4,11.8,11.9,16.2c-5.1-0.4-13.1,1.5-10.1,9.9c2.2,6.1,9,10.3,13.6,12.8
		c-3.2,4.1-10.8,1.7-15,5.1c3.1,13.1,17.1,10.6,25.1,12.9c-3.2,3.3-26.6-0.6-18.6,12.5c4.6,7.5,21.5,6.3,28.2,6.4
		c5.8,0.1,11.7,0.1,17.6-0.1c-1.8,1.8-5.3,2-4.4,6.2c7.5,1.7,14.6,1.8,22.3,1.9c4.5,0,9.3-2.2,13.5-1.7c-3.8,4.6-17.8,10-14.9,19.1
		c10.3,1.8,20.2-2.6,30.5-3c-3.9,3.7-9.9,10.9-8.5,17.5c10.5,2.5,18-6.9,26.9-10.3c-3,3.2-6.4,6.1-4.9,11.9c6.5,1.1,12-1.2,17.9-4.5
		c2.6-1.5,7.1-4.1,10.7-7.3c-1.5,4-2,8.6-1.5,13.5c8.3,0.8,22.9-10.5,30-15.5c6.1-4.3,12.8-10.6,16.4-18.6
		c-1.2,3.7-1.7,7.6-1.1,11.7c4.4-0.1,10.6-7.6,12.3-12.3c-1.3,3.8-1.4,8.8,0.8,12.3c4.1-1.7,7.7-3.5,10.9-7.4
		c-2.1,5.5-1.3,15.8-0.6,21.8c9.8,1.8,9.8-19.5,16.6-19.1l-1.3,4.8c2.7,3.4-4,9,2.6,12.8c6.5,3.8,4.6-3.8,5.5-9.6
		c1.5,2.1,1.6,20.6,7.2,12.4c1.9-2.7,0.3-14.2,0.3-17.3c0-5.8,0-11.5,0-17.3c0,3.5,1.1,19.3,4.9,9.4c1.5-3.8-0.8-9-1.1-12.8
		c-0.5-5.5-0.3-12,0.3-17.4c4.1,3.8,7.3,23.7,13.9,20.3c0.7-6.3-2.1-19.1,1.1-23.8c1.7,4.6,11.1,16.4,15.8,14.2
		c0.5-4.4-0.7-9.2,1.3-13.2C486,46.7,489,61,495,68.9v-82H203.3z"/>
	<path class="st7" d="M-0.8,64.3c-7.6-1-4.3-4.8-8.8-10.4c-4.6-5.8-8.5-9.1-11.8-10.4v90.1c0.8,0.1,1.7,0.1,2.6,0
		c3-14.9,3.1-36.4,10.8-48.6c5.4-8.5,15.6-14.8,23.1-20C29.2,55,80.4,27.1,91.6,22c-11.2,5.1-30.7,5.5-44.8,17.3
		C31.4,52.1,16.2,66.6-0.8,64.3z"/>
	<path class="st10" d="M260.6,0.5c-4,0.8-16.6,4.3-13.9,12.9c2.9,8.8,21.3,0.7,27,1.5c-4.9-0.3-12.6,8.8-13.9,14.2
		c9.5,2,17.1-6.3,25.8-6c-1,6-6.9,10.9-6.3,17.2c8.5,2.7,13-9.5,20.5-10.9c1.2,5.4-3.9,11.5-3.6,17.3c8,2.9,12.7-9.1,18.1-13.7
		c-0.1,3.5-0.3,7,0.1,10.4c9.2,3.6,15.2-17,18-24.9c-0.1,5.7-1.8,13.1,3.8,10.9c4.1-1.6,8.4-14.1,10.1-17.7c0.2,2.6-0.5,11,2.9,11.4
		c2.7,0.3,2.9-7.5,2.9-9.4c2.8,7.6,8,18.1,16.9,13.7c5.8-2.9,8.5-14.8,9-21.7c5.9,17.3,13.6-2.2,20.2-8.4c0.9,7.2-0.2,14.8,0.5,22.1
		c7.5,3,9.5-7.9,12.5-12.5c0.8,5.3-1.1,17.1,4.1,20.5c7.4,4.8,8.3-12.1,9.4-17.2c5.8-0.4,6.3,12.9,14.1,11.1c5-1.1,6-10.9,0.3-13
		c4.8,0.3,10.2,0.7,14.9-0.1c0.2-7.6,6.5-7.3,10.7-10.6c3.6-2.8,5.5-6.5,6.5-10.8H237c3.1,3.5,9.6,6.4,12.1,7.7
		C252.8-3.7,257.5-2.6,260.6,0.5z"/>
	<path class="st10" d="M493,78.2c-2.9,2.5-5-2.5-7.5-5c-11.5-12-9.2,2.3-10.6,12.8c-3.7-2.2-8.5-2.1-12.6-1.3
		c-2.1,8,6.2,16.2,7.5,23.5c-4.2,0.7-10.3-1.6-13.7,2.2c1.6,6,7,9.4,9.8,13.8c-4.7,1-12.8-0.9-15.7,5.1c3.6,5.4,11.3,5.5,16.7,6.4
		c-4,0.3-11.8,4.5-9.8,11c8.3,1.5,16.3-5.1,24-4.4c-1.6,6.1-8.9,10.1-7.2,17.3c8.5,0.6,13.8-9.9,21-13.4V71.3
		C494.5,74.3,494,77.3,493,78.2z"/>
	<path class="st26" d="M489.7,172.4c2-0.5,3.8-1.5,5.3-2.9V148C490.6,154.5,485.2,165.7,489.7,172.4z"/>
	<path class="st10" d="M-19.9,10.6c0.6,3.4-1.8,16.2,3.1,15.5c3.3-0.4,5.8-11.9,6-15.2c1.4,3.2,4.9,9.6,8.4,7.9
		C-2.5,14.9-1.3,11-1.1,7.1c3.5-1,6,6.8,10.6,4.7c3.1-1.4,3.9-7.8,2.3-11.1c3.5,3.8,7.8,4.2,12.1,3.6c0.6-2,0-3.7-1.5-4.8
		c3.5,1.5,6.3,4.8,10.3,3.6c0.3-1.8-0.3-3.6-1.5-4.8c3.3,1.9,16.5,8.7,14.2-1.9c2.3,9.3,10.3,6.1,13.5,0c0.4,5.3,0.8,7.9,6,6.9
		c5.6-1,12.2-7.6,15.7-12.9c-1.7,3-1.3,8-0.9,11.4C87.1,3.3,89.9-1.4,95-7c1.9,4.2,3.7,6.2,7.8,5.6c5.4-0.7,5.6-4.9,6-10.5
		c1.2,3.8,7.3,7.8,10.5,7.8c4,0,5.1-4.3,5-9H-23.3v29.8C-22.1,13.9-21,11.6-19.9,10.6z"/>
	<path class="st10" d="M-23,164.8c0.1,0.7,0.1,1.8,0,3.1c0.7,8.5,7.7,17.3,14.4,15.5c0.5-4.6,0.2-9.1-0.4-13.5
		c-0.3-1-0.4-1.9-0.4-2.8c0.2,0.9,0.3,1.9,0.4,2.8c2.1,6.7,11.2,14.7,15.9,13.7c5.1-1.1,5.1-6.8,2.7-11.5c-1.2-1-2.1-2.2-2.6-3.7
		c1,1,1.9,2.3,2.6,3.7c4.6,3.9,12.8,4.1,16.9,1.9c7.1-3.8,6.7-9.3-0.6-10.9c9.8,2.1,13.4-14.2-0.2-13.2c9.6-0.7,6.8-20.9-3.4-15.4
		c2.5-2.8,7.7-17.1,6.4-21.2c-2.8-8.5-11.1,0.3-12,7c0.7-5.8,3.6-19.6-2.8-22.2c-5.3-2.1-9.5,10.3-9.8,15.3c0.1-5.4,2-14.7-2.9-16.5
		c-6-2.3-9.9,11.8-13.4,15.6c-0.7-5.2,2.1-15.9-5.1-15.7c-2.6,0.1-4.6,2.6-6.1,6v68.2c0.1-1.2,0.2-2.3,0.3-3.3
		C-23.1,166.9-23.1,165.8-23,164.8z"/>
	<path class="st14" d="M-23,167.9c0.1-1.3,0.1-2.4,0-3.1C-23.1,165.8-23.1,166.9-23,167.9z"/>
	<path class="st14" d="M-9,170c-0.1-0.9-0.3-1.9-0.4-2.8C-9.5,168.1-9.3,169-9,170z"/>
	<path class="st14" d="M7,168.4c0.5,1.5,1.5,2.7,2.6,3.7C8.9,170.8,8,169.5,7,168.4z"/>
	<path class="st27" d="M300.6,548.8c0.4-0.1,0.8-0.2,1.2-0.3C301.8,548.5,301.4,548.6,300.6,548.8z"/>
	<g>
		<path class="st28" d="M281.2,392.6c-0.4-0.3-0.8-0.4-1.2-0.5c-0.2,0.1-0.4,0.2-0.6,0.2c-0.3,0.1-0.6,0-0.9,0
			c-0.1,0-0.2,0.1-0.4,0.1c0.1,0,0.3-0.1,0.4-0.1c0.5-0.2,1-0.3,1.6-0.2c0.3-0.1,0.6-0.3,0.9-0.4c0.7-0.3,1.7-0.5,1.8-1.4
			c0.4-2.9-3.5-4.2-5-2.5c-0.1,0.2-0.2,0.4-0.4,0.6c0.1-0.2,0.2-0.4,0.4-0.6c0.5-1.2,0.2-3.1-1.1-3.1c-1.9,0-4.2,2.3-4.3,4.7
			c-1.4-1-4.1-3.1-5.4-0.8c-1.1,2,0.7,3.8,2,4.6c-1.9-0.3-5.7,0.9-5.4,3.9c0.4,4.4,5.1,1.2,6.6,0c-1,1.8-2.8,3.6-2,6.1
			c0.7,2.2,1.9,1.7,2.8,0c0.3-0.6,2.2-4.1,2.1-4.7c0.4,2.9,1.7,8,5,6.1c2.2-1.3,2.2-5.5,0.1-6.8c1.1,0.7,3.7,2,4.9,1.1
			C284.9,397.4,282.6,393.5,281.2,392.6z"/>
		<path class="st29" d="M277.7,387.7c-0.2,0.2-0.3,0.4-0.4,0.6C277.4,388.2,277.6,388,277.7,387.7z"/>
		<path class="st29" d="M278.4,392.3c0.3,0,0.6,0,0.9,0c0.2,0,0.4-0.1,0.6-0.2C279.5,392,279,392.2,278.4,392.3z"/>
		<path class="st30" d="M272.8,391.7c-1.6,0.2-2.9,1.1-2.8,2.8c0.2,3.8,6.8,3.6,7.5,0.2C278,392.4,275.1,391.3,272.8,391.7z"/>
	</g>
	<g>
		<path class="st29" d="M366.7,412c1.6-1.5,3.8-4.6,1.8-7c-2.2-2.7-5.6,1-7.3,2.9c-0.6-3.3-4.2-5.8-6.8-5.1
			c-1.7,0.4-1.8,3.1-0.9,4.6c0.2,0.2,0.5,0.4,0.7,0.7c-0.3-0.2-0.5-0.4-0.7-0.7c-2.5-1.9-7.6,1.2-6.4,5c0.4,1.2,1.8,1.2,2.8,1.4
			c0.4,0.1,0.8,0.2,1.3,0.3c0.7-0.2,1.4-0.2,2.2-0.2c0.2,0,0.4,0,0.5,0c-0.2,0-0.4,0-0.5,0c-0.4,0-0.9,0.2-1.3,0.2
			c-0.3,0-0.6,0-0.9-0.1c-0.5,0.2-1.1,0.5-1.6,1c-1.7,1.7-4,7.8-1.1,9.3c1.8,0.9,5.2-1.8,6.5-3.1c-2.6,2.5-1.9,8.3,1.5,9.4
			c4.9,1.5,5.6-5.9,5.6-10c0,0.9,3.2,5.1,3.8,5.8c1.6,2.1,3.4,2.4,3.9-0.9c0.6-3.7-2.3-5.6-4-7.8c2.4,1.1,9.5,4.1,9.1-2.1
			C374.7,411.4,369.2,411,366.7,412z"/>
		<path class="st29" d="M353.5,407.3c0.2,0.3,0.4,0.5,0.7,0.7C353.9,407.7,353.7,407.5,353.5,407.3z"/>
		<path class="st29" d="M351.2,414c0.3,0.1,0.6,0.1,0.9,0.1c0.4,0,0.9-0.2,1.3-0.2C352.6,413.8,351.9,413.8,351.2,414z"/>
		<path class="st30" d="M360.9,411.2c-3.3,0.3-6.9,2.6-5.8,5.6c1.6,4.5,10.8,2.7,10.3-2.7C365.2,411.9,363.1,411.1,360.9,411.2z"/>
	</g>
	<g>
		<path class="st29" d="M240.9,383.9c-1.2-0.4-2.4-0.2-3.6,0.1c1.3-0.3,1.5-3.1,0.6-4.1c-0.9-1-2.5-0.6-3.4,0
			c-0.8,0.6-3,2.7-2.5,4.1c-1.4-4.5-6.7,1-4.9,4.2c-4.1-1.4-6.3,5.5-1.5,4.4c-5.9,2.2,1,10.2,3.7,3.5c-0.4,1.8-0.3,5.1,1.7,5.2
			c1.8,0.1,2.8-3,3.4-5.1c-0.3,2.8,3.6,3.1,5.2,2.4c2.2-1.1,4.1-6.6,0.6-7.4C245.5,392.3,245.6,385.5,240.9,383.9z"/>
		<path class="st30" d="M231.1,387.6c-1.5,0.9-2.6,2.4-2,4c1.3,3.7,7.9,0.6,7.6-3.1C236.5,386,233.4,386.2,231.1,387.6z"/>
	</g>
	<g>
		<path class="st27" d="M432,427.3c-1.6-0.9-3.5-0.9-5.2-0.8c1.9-0.1,2.8-4,1.7-5.7c-1.1-1.6-3.5-1.6-4.9-0.9
			c-1.2,0.6-4.8,3-4.4,5.2c-1.2-7-9.9-0.5-7.9,4.7c-5.7-3.2-10.1,6.1-3,5.9c-8.9,1.5-0.5,15,4.7,6.1c-1,2.5-1.4,7.3,1.6,8.1
			c2.6,0.7,4.6-3.6,5.8-6.5c-0.9,3.9,4.6,5.5,7,4.9c3.4-0.9,7.1-8.4,2.2-10.5C437.1,440.8,438.5,430.9,432,427.3z"/>
		<path class="st30" d="M417.3,429.9c-2.3,0.9-4.2,2.8-3.6,5.3c1.2,5.8,11.3,3,11.5-2.4C425.3,429.2,420.7,428.5,417.3,429.9z"/>
	</g>
	<g>
		<path class="st27" d="M492.2,442.2c-0.3-7.1-9.7-2.5-8.4,3.1c-5.2-4.3-10.8,4.1-3.7,5.2c-9-0.2-2.4,14.7,3.9,6.9
			c-1.3,2.3-2.4,7,0.5,8.3c2.5,1.2,5-2.6,6.6-5.2c-1,2.7,1.5,4.8,3.9,5.7V439C493.6,439.7,492.2,440.9,492.2,442.2z"/>
		<path class="st30" d="M489.8,446.7c-2.4,0.5-4.5,1.9-4.3,4.5c0.3,4.4,6.2,5.2,9.5,3v-6.9C493.5,446.5,491.5,446.3,489.8,446.7z"/>
	</g>
</g>
<g>
	<polygon class="st31" points="350,714.8 334,477.8 169.1,482.8 181,714.8 241,712.8 257,626.8 288,712.8 	"/>
	<polygon class="st32" points="193,710.8 187,480.8 159.2,481.7 171,710.8 	"/>
	<g>
		<g>
			<path class="st33" d="M150,325.9c1.2-0.6,1.9-0.9,1.9-0.9s0.9-0.7,2.3-2.2c-0.3-0.7-0.6-1.3-0.9-2
				C152.3,322.8,151.1,324.5,150,325.9z"/>
			<path class="st34" d="M117,233.8c-3.7,2-96,51.2-91.3,85.6c2.3,17.1,18.7,24.3,39,26.5c0.5,0.1,0.9,0.1,1.4,0.1
				c4.7,0.4,9.6,0.4,14.6,0c0-0.1,0-0.2,0-0.2c24.4-20.5,12.2-45.1,12.2-45.1c15.9-17.3,29-41,29-41
				C114.8,248.8,122.3,252.6,117,233.8z"/>
			<path class="st35" d="M134.7,277c-0.9-0.1-1.8-0.1-2.7-0.1c0,0-23.2,8.2-39.1,25.5c0,0,12.1,23.1-12.3,43.6c0,0,0,0.1,0,0.2
				c-5,0.4-9.9,0.4-14.6,0c13.1,12.4,21.2,8.7,21.2,8.7c20.7,0.1,57.2-25.7,58.2-25.7c1.2,0,2.8-1.2,4.5-3.2
				c1.1-1.3,19.9-16,20.9-18C164.3,293.4,154,280.8,134.7,277z"/>
		</g>
		<path class="st36" d="M134.2,275.4l-0.3-0.3l-9.2,4.9c0,0-22.7,10.5-31.7,22.4c0,0-6.9,4.6-10.4,15.8c0,0,47.5-39.7,57.5-16.7
			l2.9-4.1C139.9,290,137,282.7,134.2,275.4z"/>
	</g>
	<path class="st35" d="M233.8,308.6c28.8,0,58.8-28.7,75.5-58c-41.6-27.1-123.3-12.1-155.3,19.8
		C175.1,292.9,206.8,307.4,233.8,308.6z"/>
	<path class="st35" d="M328.6,347.2c-12.3,14-35.1,10.5-43.9,24.6c-15.8,29.8,26.3,79,29.8,86c7.6,10.6,20.3,17.3,23.7,30.2
		c3.4-3.3-11-98.9,4.7-149.8c0,0,6.9-7.6,3.3-26.3c-7.4,8.7-12.8,20.7-19.8,28.6C326.8,343.2,330,345.8,328.6,347.2z"/>
	<path class="st37" d="M309.3,250.6c-16.7,29.3-46.8,58-75.5,58c-27-1.2-58.6-15.7-79.8-38.2c-4.5,4.4-1,210.5,5,216.5
		s178.2,2.1,179.3,1.1c-3.4-12.9-16.1-19.6-23.7-30.2c-3.5-7-45.6-56.2-29.8-86c8.8-14,31.6-10.5,43.9-24.6c1.4-1.4-1.8-4-2.1-6.8
		c-0.5,0.5-0.9,1-1.4,1.5c0.5-0.5,1-1,1.4-1.5c-0.1-0.7,0-1.3,0.3-2c-0.3,0.7-0.4,1.3-0.3,2c7-7.8,12.4-19.8,19.8-28.6
		c-2.1-11.1-7.9-26.1-21-45.7C321.1,259.9,315.7,254.8,309.3,250.6z"/>
	<g>
		<g>
			<path class="st33" d="M178.3,213.1c0,0-19.5-0.8-20.2,20.2c-0.7,21,15,31.5,31.5,25.5L178.3,213.1z"/>
		</g>
		<g>
			<path class="st38" d="M166.1,191.5c0,0,0.6,56.5,11.9,56.7c11.3,0.2,4.1-53.1,4.1-53.1S174.1,176.1,166.1,191.5z"/>
		</g>
		<g>
			<path class="st33" d="M184.3,204.8c12.7-3,16.5-16.5,26.2-24c1.5,2.2,3,6,5.2,5.2c10.5-0.7,21.7,3,30-6
				c17.2,13.6,33.9,1.9,48-10.6c0.3-19-14.9-54.3-64.4-52.3c-41.4,1.7-58.8,41.1-56.4,88.1C176.5,205.7,180.3,205.6,184.3,204.8z"/>
		</g>
		<g>
			<path class="st33" d="M243.9,304.1c-10.8-4.8-23.7-4.1-36.2-5.2C219.3,308.2,232,308.6,243.9,304.1z"/>
		</g>
		<g>
			<path class="st34" d="M293.6,170.4c0-0.3,0-0.6,0-0.9c-14,12.5-30.8,24.3-48,10.6c-8.2,9-19.5,5.2-30,6c-2.2,0.7-3.7-3-5.2-5.2
				c-9.7,7.5-13.5,21-26.2,24c-4,0.8-7.8,0.8-11.5,0.5c0.9,16.8,4.2,34.6,10,52c6.9,21,15.5,34.1,24.9,41.6
				c12.6,1.1,25.4,0.5,36.2,5.2c14.9-5.6,28.3-18.9,36.3-31.9C299.6,240.8,293.6,170.4,293.6,170.4z"/>
		</g>
		<g>
			<path class="st39" d="M209.1,233.9c6.2,0.4,11.4-16.8,4-25.5C205.8,199.7,198.4,233.3,209.1,233.9z"/>
		</g>
		<g>
			<path class="st38" d="M282.3,209.1c-7.3-6.8-24.1-9.7-29.4,1.1c-0.8,1.6,0.9,3.7,2.6,2.5c7.4-5.1,16.3-2.3,24,0.5
				c1.1,0.4,1.9-0.3,2.2-1.1C282.8,211.6,283.5,210.2,282.3,209.1z"/>
		</g>
		<g>
			<path class="st38" d="M187.8,200c5.9-8.1,21.8-14.3,29-4.7c1.1,1.4-0.2,3.8-2,3c-8.2-3.5-16.4,0.9-23.5,5.2
				c-1,0.6-1.9,0.1-2.3-0.7C187.8,202.6,186.9,201.3,187.8,200z"/>
		</g>
		<path class="st39" d="M254.8,221.4c0,0,14.7,4.5,24.9-2.8c0,0-1.4,9-14,9C254.7,227.6,254.8,221.4,254.8,221.4z"/>
		<g>
			<path class="st40" d="M312.6,225.7c-10.7,15.6-25,20.1-24.9,5.7c0.1-14.4,18.4-46,23.2-35.5C315.7,206.2,318.6,217.1,312.6,225.7
				z"/>
			<path class="st41" d="M309.5,224.7c-7.9,11.3-18.3,14.7-18.2,4.1c0.1-10.6,13.6-33.7,17-26C311.8,210.3,313.8,218.3,309.5,224.7z
				"/>
			<path class="st40" d="M299.9,229.2c-3.8,5.6-9,7.3-8.9,2.1c0-5.1,6.6-16.5,8.2-12.7C301,222.2,302.1,226.2,299.9,229.2z"/>
		</g>
		<g>
			<path class="st38" d="M223.2,145.7c25.3-6.2,59.8-3.7,77.9,15.9c-0.2-2.3-0.5-4.6-0.7-6.9c-3-30-40-42.1-42.7-43.4
				c-2.7-1.4-5.7-2.6-11.2-3s-29.6-2.4-51,6.7c0.3,0,0.5,0,0.8,0C192.5,132.2,203.7,150.9,223.2,145.7z"/>
		</g>
		<path class="st42" d="M301.1,161.5c-18-19.5-52.5-22-77.9-15.9c-19.5,5.2-30.7-13.5-27-30.7c-0.3,0-0.5,0-0.8,0
			c-7.1,3-13.3,7.4-17.2,13.5c-1.1,1.6-2,3.2-3,4.8c0,0,0,0,0,0c-10.5,12.7-21.3,5.1-21.3,5.1c0.7,10.5,10.9,13,10.9,13c0,0,0,0,0,0
			c-0.5,1-1,2-1.5,2.9c-11.7,21.3-28.9,13-28.9,13c7.7,12.9,19.7,14,26.8,13.2c2.8,0.2,5.8-1.1,5.8-1.1c-9,12.7-2.2,26.2,12.7,16.5
			c15-9.7,21.7-27,21.7-27s1.5,20.2,13.5,18c12-2.2,22.5-18,22.5-18s-9,19.8,13.5,21c7,0.4,12.7-3.6,17-8.1
			c-1.4,5.8-2,12.4-0.1,17.4c0,0,2.1-9,5.8-17c-0.6,5.1-0.2,10.2,2.8,12.2c6.7,4.5,14.2-1.5,14.2-1.5s-6.7,23.2,5.2,21
			C306.9,211.7,303.9,188.6,301.1,161.5z"/>
	</g>
	<g>
		<g>
			<path class="st43" d="M127.9,202.3c-7.8,5.7-9.4,15.9,0,20c2.4,1.2,5,1.8,7.7,1.9c3.2-1.7,8-4.8,11-9.2
				C136.9,214.2,133,212.8,127.9,202.3z"/>
			<path class="st34" d="M127.9,222.3c-9.4-4.2-7.8-14.3,0-20c5,13.5,6,8.3,13.4,11.5c3.1,0,5,0,5.2-3c1-13.7-10.3-13.7-16.7-13.2
				c-6.4,0.5-20,2.8-20.9,32.1c-1,35.9,23.7,36.2,23.7,36.2l-0.5-40.1c0,0,1.4-0.5,3.5-1.6C132.9,224.1,130.3,223.5,127.9,222.3z"/>
		</g>
		<path class="st44" d="M158.2,207.5c0,1.8,1.5,3.3,3.3,3.3c1.8,0,3.3-1.5,3.3-3.3c0-1.8-1.5-3.3-3.3-3.3
			C159.6,204.2,158.2,205.7,158.2,207.5z"/>
		<path class="st45" d="M241.1,203.3c-1.6,0-2.9,1.3-2.9,2.9v9.6c0,1.6,1.3,2.9,2.9,2.9l0,0c1.6,0,2.9-1.3,2.9-2.9v-9.6
			C244,204.6,242.7,203.3,241.1,203.3L241.1,203.3z"/>
		<path class="st44" d="M229.8,209.7c0,2.5,2,4.5,4.5,4.5h15.1c2.5,0,4.5-2,4.5-4.5l0,0c0-2.5-2-4.5-4.5-4.5h-15.1
			C231.8,205.2,229.8,207.2,229.8,209.7L229.8,209.7z"/>
		<path class="st45" d="M138.6,207.5H169c15-0.5,19.4-13.7,19.4-13.7c0.9-3.6,4.5-5.9,8.2-5.3h27.3c3.7-0.5,7.3,1.7,8.2,5.3
			c1.5,6.8,3,13.6,4.6,20.4v0h10.9c8.2,0,14.8,6.6,14.8,14.8v45.8c0,8.2-6.6,14.8-14.8,14.8H138.6c-8.2,0-14.8-6.6-14.8-14.8v-52.4
			C123.8,214.1,130.4,207.5,138.6,207.5z"/>
		<path class="st44" d="M138.6,290.9c0,0.8,0.7,1.5,1.5,1.5h105.9c0.8,0,1.5-0.7,1.5-1.5l0,0c0-0.8-0.7-1.5-1.5-1.5H140.1
			C139.2,289.4,138.6,290.1,138.6,290.9L138.6,290.9z"/>
		<path class="st46" d="M198.1,188.4c0,0.9,0.7,1.6,1.6,1.6h21c0.9,0,1.6-0.7,1.6-1.6l0,0c0-0.9-0.7-1.6-1.6-1.6h-21
			C198.8,186.8,198.1,187.5,198.1,188.4L198.1,188.4z"/>
		<path class="st44" d="M161.4,273.1c0,7.8-6.3,14-14,14H140c-7.8,0-14-6.3-14-14V223c0-7.8,6.3-14,14-14h7.4c7.8,0,14,6.3,14,14
			V273.1z"/>
		<g>
			<g>
				<path class="st34" d="M146.5,227.4l-22.1,3.9c-4.4,0-8-3.6-8-8l0,0c0-4.4,3.6-8,8-8H143c4.4,0,12.9-0.3,12.9,4.9
					S151.8,226.4,146.5,227.4z"/>
				<path class="st43" d="M153.9,235.8c0-4.2-10.9-4.6-13.9-4.6h-17.3c-0.4,0-0.8,0-1.2,0.1C128.6,235.9,145.4,236.8,153.9,235.8z"
					/>
				<path class="st34" d="M121.5,231.3c-3.6,0.6-6.4,3.7-6.4,7.5c0,4.2,3.4,7.6,7.6,7.6l19.7-4.3c5.2-1,11.5-2.1,11.5-6.3
					C145.4,236.8,128.6,235.9,121.5,231.3z"/>
				<path class="st43" d="M146.5,250.5c-1-2.6-6-4.1-9-4.1h-15.9c-0.8,0-1.6,0.2-2.4,0.4C126.8,250.7,138.2,251.7,146.5,250.5z"/>
				<path class="st34" d="M119.3,246.8c-2.7,1-4.7,3.6-4.7,6.6c0,3.9,3.2,7.1,7.1,7.1c0,0,10.2-2.7,17.5-3.7c7.3-1,7.7-5.5,7.3-6.3
					C138.2,251.7,126.8,250.7,119.3,246.8z"/>
			</g>
		</g>
		<linearGradient id="SVGID_1_" gradientUnits="userSpaceOnUse" x1="209.996" y1="224.9588" x2="209.996" y2="201.662">
			<stop  offset="0.2796" style="stop-color:#2A2232;stop-opacity:0"/>
			<stop  offset="1" style="stop-color:#2A2232"/>
		</linearGradient>
		<path class="st47" d="M233.4,206.7c-0.8-3.4-4.2-5.5-7.6-5h-14.6h-2.5h-14.6c-3.4-0.5-6.8,1.6-7.6,5c-1.4,6.1-2.7,12.2-4.1,18.2
			h26.3h2.5h26.3C236.2,218.9,234.8,212.8,233.4,206.7z"/>
		<path class="st48" d="M188.5,193.3c0,0,0,0.1,0,0.2c-0.3,1-2.1,6.3-9.1,11.1c-5.7,4-22.2,2.9-22.2,2.9c0,0,10.5,2.9,18.1,3.7
			c5.6,0.6,9-1.8,9.5-2.7C185.5,207,186.3,203.8,188.5,193.3z"/>
		<g>
			<path class="st44" d="M253.1,248c0,4.4-3.6,8-8,8s-8-3.6-8-8c0-4.4,3.6-8,8-8S253.1,243.6,253.1,248z"/>
			<path class="st49" d="M251.2,248c0,3.4-2.8,6.1-6.1,6.1c-3.4,0-6.1-2.8-6.1-6.1c0-3.4,2.7-6.1,6.1-6.1
				C248.5,241.9,251.2,244.6,251.2,248z"/>
			<path class="st45" d="M249.7,248c0,2.5-2.1,4.6-4.6,4.6c-2.5,0-4.6-2.1-4.6-4.6s2.1-4.6,4.6-4.6
				C247.6,243.4,249.7,245.5,249.7,248z"/>
		</g>
		<path class="st50" d="M210.2,213.9c-19.3,0-34.9,16.9-34.9,37.8c0,20.9,15.6,37.8,34.9,37.8c19.3,0,34.9-16.9,34.9-37.8
			C245.1,230.8,229.5,213.9,210.2,213.9z"/>
	</g>
	<path class="st37" d="M388.7,344.2c-11.4-81.9-77.4-92.2-77.4-92.2c-6.5,26.1-3.6,48,2.3,65c8.7,14,22.1,25.1,37.7,28.4
		c-5.9,2-11.3,5.6-14.2,10.3c0.1,0.1,0.2,0.3,0.4,0.4c16.6,14.5,35,28.4,49.8,44.9C391.2,387.8,392.1,369.1,388.7,344.2z"/>
	<path class="st35" d="M351.4,345.5c-15.6-3.3-29.1-14.5-37.7-28.4c7.1,20.4,18.6,33.7,23.5,38.7
		C340.1,351.1,345.5,347.5,351.4,345.5z"/>
	<path class="st43" d="M341.9,359.9c13.9,17,23.5,37,16.5,59.3c-1.3,3.2-3.3,6.1-5.8,8.6c15.6,1.3,28.7-6.6,34.7-26.8
		C373.7,386,357.3,373.1,341.9,359.9z"/>
	<g>
		<path class="st43" d="M242.5,270c0.7-1.7,9.5-11.2,3.6-24.6c-1.5-0.3-3.1-0.1-4.8,0.7c-7.6,3.3-0.4,20.7-13.4,27.3
			c-13,6.7-30,10-35,3.5c-4.9-6.5-15-10-15.4-6.9C189.9,294.6,234,291.8,242.5,270z"/>
		<path class="st34" d="M341.9,359.9c-1.5-1.3-2.9-2.5-4.4-3.8c1.2,1.2,1.9,1.9,1.9,1.9c-25.6-13.2-52.1-40.4-73.6-61.4
			c-1.2-1.2-2.4-2.3-3.6-3.4c0,0,0,0,0,0c0,0-4.5-6.2-3.7-13.9c0.9-7.7-8.4-12.6-8.4-12.6s4.8-2,2.8-13.8c-1-6-5-8-8-8
			c3,8,3,16-2.4,25.1c-14.8,25-48.6,13.9-65,0c-7.6,9.9,18,26.6,18,26.6s-5.2,5,3,14.4c5.4,6.2,30,3.3,40.4,4.8
			c25.6,39.1,81.5,103.9,104.8,110.4c3,0.8,5.9,1.4,8.8,1.6c2.5-2.5,4.5-5.4,5.8-8.6C365.4,397,355.8,376.9,341.9,359.9z"/>
	</g>
	<g>
		<g>
			<path class="st49" d="M245.1,248.8c0,19.3-15.6,34.9-34.9,34.9c-19.3,0-34.9-15.6-34.9-34.9c0-19.3,15.6-34.9,34.9-34.9
				C229.5,213.9,245.1,229.5,245.1,248.8z"/>
		</g>
		<g>
			<path class="st44" d="M240.5,248.8c0,16.7-13.6,30.3-30.3,30.3c-16.7,0-30.3-13.6-30.3-30.3c0-16.7,13.6-30.3,30.3-30.3
				C226.9,218.5,240.5,232.1,240.5,248.8z"/>
		</g>
		<g>
			<path class="st49" d="M237.9,248.8c0,15.3-12.4,27.7-27.7,27.7c-15.3,0-27.7-12.4-27.7-27.7s12.4-27.7,27.7-27.7
				C225.5,221.1,237.9,233.5,237.9,248.8z"/>
		</g>
		<g>
			<path class="st46" d="M235.2,248.8c0,13.8-11.2,25-25,25c-13.8,0-25-11.2-25-25c0-13.8,11.2-25,25-25
				C224,223.8,235.2,235,235.2,248.8z"/>
		</g>
		<g>
			<path class="st51" d="M233.6,248.8c0,12.9-10.5,23.4-23.4,23.4c-12.9,0-23.4-10.5-23.4-23.4c0-12.9,10.5-23.4,23.4-23.4
				C223.1,225.4,233.6,235.9,233.6,248.8z"/>
		</g>
		<g>
			<path class="st49" d="M231.3,248.8c0,11.7-9.5,21.1-21.1,21.1c-11.7,0-21.1-9.5-21.1-21.1c0-11.7,9.5-21.1,21.1-21.1
				C221.8,227.7,231.3,237.2,231.3,248.8z"/>
		</g>
		<g>
			<g>
				<path class="st52" d="M195.5,260.8c3.5,4.2,8.7,6.9,14.6,6.9c10.4,0,18.9-8.5,18.9-18.9c0-3.6-1-6.9-2.7-9.8
					C220.6,250.3,208.7,257.4,195.5,260.8z"/>
			</g>
			<g>
				<path class="st53" d="M226.4,239c-3.3-5.5-9.3-9.1-16.2-9.1c-10.4,0-18.9,8.5-18.9,18.9c0,4.6,1.6,8.7,4.3,12
					C208.7,257.4,220.6,250.3,226.4,239z"/>
			</g>
			<g>
				<path class="st54" d="M210.9,242.8c0,4.3-3.5,7.7-7.7,7.7c-4.3,0-7.7-3.5-7.7-7.7c0-4.3,3.5-7.7,7.7-7.7
					C207.4,235,210.9,238.5,210.9,242.8z"/>
			</g>
			<g>
				<path class="st54" d="M221.7,260.7c0,1.3-1.1,2.4-2.4,2.4c-1.3,0-2.4-1.1-2.4-2.4c0-1.3,1.1-2.4,2.4-2.4
					C220.6,258.4,221.7,259.4,221.7,260.7z"/>
			</g>
		</g>
		<g>
			<g>
				<path class="st44" d="M212.5,283c-0.2,0-0.3-0.1-0.3-0.3l-0.2-2.3c0-0.2,0.1-0.4,0.3-0.4c0.2,0,0.4,0.1,0.4,0.3l0.2,2.3
					C212.9,282.8,212.7,283,212.5,283C212.5,283,212.5,283,212.5,283z"/>
			</g>
			<g>
				<path class="st44" d="M208,217.7c-0.2,0-0.3-0.1-0.3-0.3l-0.2-2.3c0-0.2,0.1-0.4,0.3-0.4c0.2,0,0.4,0.1,0.4,0.3l0.2,2.3
					C208.3,217.5,208.2,217.7,208,217.7C208,217.7,208,217.7,208,217.7z"/>
			</g>
		</g>
		<g>
			<g>
				<path class="st44" d="M214.9,282.7c-0.2,0-0.3-0.1-0.3-0.3l-0.3-2.3c0-0.2,0.1-0.4,0.3-0.4c0.2,0,0.4,0.1,0.4,0.3l0.3,2.3
					C215.2,282.5,215.1,282.7,214.9,282.7C214.9,282.7,214.9,282.7,214.9,282.7z"/>
			</g>
			<g>
				<path class="st44" d="M205.8,217.9c-0.2,0-0.3-0.1-0.3-0.3l-0.3-2.3c0-0.2,0.1-0.4,0.3-0.4c0.2,0,0.4,0.1,0.4,0.3l0.3,2.3
					C206.2,217.7,206,217.9,205.8,217.9C205.8,217.9,205.8,217.9,205.8,217.9z"/>
			</g>
		</g>
		<g>
			<g>
				<path class="st44" d="M217.6,282.2c-0.2,0-0.3-0.1-0.3-0.3l-0.5-2.3c0-0.2,0.1-0.4,0.3-0.4c0.2,0,0.4,0.1,0.4,0.3l0.5,2.3
					C218,282,217.9,282.2,217.6,282.2C217.7,282.2,217.7,282.2,217.6,282.2z"/>
			</g>
			<g>
				<path class="st44" d="M203.2,218.4c-0.2,0-0.3-0.1-0.3-0.3l-0.5-2.3c0-0.2,0.1-0.4,0.3-0.4c0.2,0,0.4,0.1,0.4,0.3l0.5,2.3
					C203.6,218.2,203.5,218.4,203.2,218.4C203.3,218.4,203.2,218.4,203.2,218.4z"/>
			</g>
		</g>
		<g>
			<g>
				<path class="st44" d="M220.4,281.5c-0.1,0-0.3-0.1-0.3-0.2l-0.7-2.2c-0.1-0.2,0-0.4,0.2-0.4c0.2-0.1,0.4,0,0.4,0.2l0.7,2.2
					c0.1,0.2,0,0.4-0.2,0.4C220.4,281.5,220.4,281.5,220.4,281.5z"/>
			</g>
			<g>
				<path class="st44" d="M200.7,219.1c-0.1,0-0.3-0.1-0.3-0.2l-0.7-2.2c-0.1-0.2,0-0.4,0.2-0.4c0.2-0.1,0.4,0,0.4,0.2l0.7,2.2
					c0.1,0.2,0,0.4-0.2,0.4C200.7,219.1,200.7,219.1,200.7,219.1z"/>
			</g>
		</g>
		<g>
			<g>
				<path class="st44" d="M223,280.5c-0.1,0-0.3-0.1-0.3-0.2l-0.9-2.2c-0.1-0.2,0-0.4,0.2-0.5c0.2-0.1,0.4,0,0.5,0.2l0.9,2.2
					c0.1,0.2,0,0.4-0.2,0.5C223.1,280.5,223.1,280.5,223,280.5z"/>
			</g>
			<g>
				<path class="st44" d="M198.2,220c-0.1,0-0.3-0.1-0.3-0.2l-0.9-2.2c-0.1-0.2,0-0.4,0.2-0.5c0.2-0.1,0.4,0,0.5,0.2l0.9,2.2
					c0.1,0.2,0,0.4-0.2,0.5C198.3,220,198.2,220,198.2,220z"/>
			</g>
		</g>
		<g>
			<g>
				<path class="st44" d="M225.6,279.4c-0.1,0-0.3-0.1-0.3-0.2l-1.1-2.1c-0.1-0.2,0-0.4,0.2-0.5c0.2-0.1,0.4,0,0.5,0.2l1.1,2.1
					c0.1,0.2,0,0.4-0.2,0.5C225.7,279.3,225.6,279.4,225.6,279.4z"/>
			</g>
			<g>
				<path class="st44" d="M195.8,221.1c-0.1,0-0.3-0.1-0.3-0.2l-1.1-2.1c-0.1-0.2,0-0.4,0.2-0.5c0.2-0.1,0.4,0,0.5,0.2l1.1,2.1
					c0.1,0.2,0,0.4-0.2,0.5C195.9,221.1,195.9,221.1,195.8,221.1z"/>
			</g>
		</g>
		<g>
			<g>
				<path class="st44" d="M228,278c-0.1,0-0.2-0.1-0.3-0.2l-1.2-2c-0.1-0.2,0-0.4,0.1-0.5c0.2-0.1,0.4-0.1,0.5,0.1l1.2,2
					c0.1,0.2,0.1,0.4-0.1,0.5C228.2,277.9,228.1,278,228,278z"/>
			</g>
			<g>
				<path class="st44" d="M193.5,222.4c-0.1,0-0.2-0.1-0.3-0.2l-1.2-2c-0.1-0.2-0.1-0.4,0.1-0.5c0.2-0.1,0.4-0.1,0.5,0.1l1.2,2
					c0.1,0.2,0.1,0.4-0.1,0.5C193.6,222.4,193.6,222.4,193.5,222.4z"/>
			</g>
		</g>
		<g>
			<g>
				<path class="st44" d="M230.4,276.4c-0.1,0-0.2,0-0.3-0.1l-1.4-1.9c-0.1-0.2-0.1-0.4,0.1-0.5c0.2-0.1,0.4-0.1,0.5,0.1l1.4,1.9
					c0.1,0.2,0.1,0.4-0.1,0.5C230.5,276.4,230.5,276.4,230.4,276.4z"/>
			</g>
			<g>
				<path class="st44" d="M191.3,223.9c-0.1,0-0.2,0-0.3-0.1l-1.4-1.9c-0.1-0.2-0.1-0.4,0.1-0.5c0.2-0.1,0.4-0.1,0.5,0.1l1.4,1.9
					c0.1,0.2,0.1,0.4-0.1,0.5C191.5,223.8,191.4,223.9,191.3,223.9z"/>
			</g>
		</g>
		<g>
			<g>
				<path class="st44" d="M232.6,274.6c-0.1,0-0.2,0-0.3-0.1l-1.5-1.8c-0.1-0.1-0.1-0.4,0-0.5c0.1-0.1,0.4-0.1,0.5,0l1.5,1.8
					c0.1,0.1,0.1,0.4,0,0.5C232.7,274.6,232.7,274.6,232.6,274.6z"/>
			</g>
			<g>
				<path class="st44" d="M189.3,225.5c-0.1,0-0.2,0-0.3-0.1l-1.5-1.8c-0.1-0.1-0.1-0.4,0-0.5c0.1-0.1,0.4-0.1,0.5,0l1.5,1.8
					c0.1,0.1,0.1,0.4,0,0.5C189.5,225.5,189.4,225.5,189.3,225.5z"/>
			</g>
		</g>
		<g>
			<g>
				<path class="st44" d="M234.6,272.6c-0.1,0-0.2,0-0.2-0.1l-1.7-1.6c-0.1-0.1-0.1-0.4,0-0.5c0.1-0.1,0.4-0.1,0.5,0l1.7,1.6
					c0.1,0.1,0.1,0.4,0,0.5C234.8,272.6,234.7,272.6,234.6,272.6z"/>
			</g>
			<g>
				<path class="st44" d="M187.4,227.3c-0.1,0-0.2,0-0.2-0.1l-1.7-1.6c-0.1-0.1-0.1-0.4,0-0.5c0.1-0.1,0.4-0.1,0.5,0l1.7,1.6
					c0.1,0.1,0.1,0.4,0,0.5C187.6,227.3,187.5,227.3,187.4,227.3z"/>
			</g>
		</g>
		<g>
			<g>
				<path class="st44" d="M236.5,270.5c-0.1,0-0.2,0-0.2-0.1l-1.8-1.5c-0.1-0.1-0.2-0.3-0.1-0.5c0.1-0.2,0.3-0.2,0.5-0.1l1.8,1.5
					c0.2,0.1,0.2,0.3,0.1,0.5C236.7,270.5,236.6,270.5,236.5,270.5z"/>
			</g>
			<g>
				<path class="st44" d="M185.7,229.3c-0.1,0-0.2,0-0.2-0.1l-1.8-1.5c-0.2-0.1-0.2-0.3-0.1-0.5c0.1-0.1,0.3-0.2,0.5-0.1l1.8,1.5
					c0.2,0.1,0.2,0.3,0.1,0.5C185.9,229.3,185.8,229.3,185.7,229.3z"/>
			</g>
		</g>
		<g>
			<g>
				<path class="st44" d="M238.2,268.3c-0.1,0-0.1,0-0.2-0.1l-1.9-1.3c-0.2-0.1-0.2-0.3-0.1-0.5c0.1-0.2,0.3-0.2,0.5-0.1l1.9,1.3
					c0.2,0.1,0.2,0.3,0.1,0.5C238.4,268.2,238.3,268.3,238.2,268.3z"/>
			</g>
			<g>
				<path class="st44" d="M184.1,231.4c-0.1,0-0.1,0-0.2-0.1l-1.9-1.3c-0.2-0.1-0.2-0.3-0.1-0.5c0.1-0.2,0.3-0.2,0.5-0.1l1.9,1.3
					c0.2,0.1,0.2,0.3,0.1,0.5C184.3,231.4,184.2,231.4,184.1,231.4z"/>
			</g>
		</g>
		<g>
			<g>
				<path class="st44" d="M239.7,265.9c-0.1,0-0.1,0-0.2,0l-2-1.2c-0.2-0.1-0.2-0.3-0.1-0.5c0.1-0.2,0.3-0.2,0.5-0.1l2,1.2
					c0.2,0.1,0.2,0.3,0.1,0.5C239.9,265.8,239.8,265.9,239.7,265.9z"/>
			</g>
			<g>
				<path class="st44" d="M182.7,233.7c-0.1,0-0.1,0-0.2,0l-2-1.2c-0.2-0.1-0.2-0.3-0.1-0.5c0.1-0.2,0.3-0.2,0.5-0.1l2,1.1
					c0.2,0.1,0.2,0.3,0.1,0.5C182.9,233.6,182.8,233.7,182.7,233.7z"/>
			</g>
		</g>
		<g>
			<g>
				<path class="st44" d="M240.9,263.3c0,0-0.1,0-0.1,0l-2.1-1c-0.2-0.1-0.3-0.3-0.2-0.5c0.1-0.2,0.3-0.3,0.5-0.2l2.1,1
					c0.2,0.1,0.3,0.3,0.2,0.5C241.2,263.3,241.1,263.3,240.9,263.3z"/>
			</g>
			<g>
				<path class="st44" d="M181.5,236c-0.1,0-0.1,0-0.1,0l-2.1-1c-0.2-0.1-0.3-0.3-0.2-0.5c0.1-0.2,0.3-0.3,0.5-0.2l2.1,1
					c0.2,0.1,0.3,0.3,0.2,0.5C181.8,235.9,181.6,236,181.5,236z"/>
			</g>
		</g>
		<g>
			<g>
				<path class="st44" d="M242,260.7c0,0-0.1,0-0.1,0l-2.2-0.8c-0.2-0.1-0.3-0.3-0.2-0.4c0.1-0.2,0.3-0.3,0.4-0.2l2.2,0.8
					c0.2,0.1,0.3,0.3,0.2,0.5C242.3,260.6,242.2,260.7,242,260.7z"/>
			</g>
			<g>
				<path class="st44" d="M180.5,238.4c0,0-0.1,0-0.1,0l-2.2-0.8c-0.2-0.1-0.3-0.3-0.2-0.5c0.1-0.2,0.3-0.3,0.5-0.2l2.2,0.8
					c0.2,0.1,0.3,0.3,0.2,0.5C180.8,238.4,180.6,238.4,180.5,238.4z"/>
			</g>
		</g>
		<g>
			<g>
				<path class="st44" d="M242.9,258C242.8,258,242.8,258,242.9,258l-2.3-0.6c-0.2-0.1-0.3-0.2-0.2-0.4c0.1-0.2,0.2-0.3,0.4-0.2
					l2.3,0.6c0.2,0.1,0.3,0.2,0.2,0.4C243.2,257.9,243,258,242.9,258z"/>
			</g>
			<g>
				<path class="st44" d="M179.7,240.9C179.7,240.9,179.6,240.9,179.7,240.9l-2.3-0.6c-0.2-0.1-0.3-0.2-0.2-0.4
					c0.1-0.2,0.2-0.3,0.4-0.2l2.3,0.6c0.2,0.1,0.3,0.2,0.2,0.4C180,240.8,179.9,240.9,179.7,240.9z"/>
			</g>
		</g>
		<g>
			<g>
				<path class="st44" d="M243.5,255.3C243.5,255.3,243.5,255.3,243.5,255.3l-2.4-0.4c-0.2,0-0.3-0.2-0.3-0.4c0-0.2,0.2-0.3,0.4-0.3
					l2.3,0.4c0.2,0,0.3,0.2,0.3,0.4C243.8,255.2,243.7,255.3,243.5,255.3z"/>
			</g>
			<g>
				<path class="st44" d="M179.1,243.5C179.1,243.5,179.1,243.5,179.1,243.5l-2.4-0.4c-0.2,0-0.3-0.2-0.3-0.4c0-0.2,0.2-0.3,0.4-0.3
					l2.3,0.4c0.2,0,0.3,0.2,0.3,0.4C179.4,243.4,179.3,243.5,179.1,243.5z"/>
			</g>
		</g>
		<g>
			<g>
				<path class="st44" d="M243.9,252.5C243.9,252.5,243.9,252.5,243.9,252.5l-2.4-0.2c-0.2,0-0.3-0.2-0.3-0.4c0-0.2,0.2-0.3,0.4-0.3
					l2.3,0.2c0.2,0,0.3,0.2,0.3,0.4C244.2,252.3,244.1,252.5,243.9,252.5z"/>
			</g>
			<g>
				<path class="st44" d="M178.8,246.1C178.8,246.1,178.7,246.1,178.8,246.1l-2.4-0.2c-0.2,0-0.3-0.2-0.3-0.4c0-0.2,0.2-0.3,0.4-0.3
					l2.3,0.2c0.2,0,0.3,0.2,0.3,0.4C179.1,246,178.9,246.1,178.8,246.1z"/>
			</g>
		</g>
		<g>
			<g>
				<path class="st44" d="M244.1,249.7C244,249.7,244,249.7,244.1,249.7l-2.3,0c-0.2,0-0.3-0.2-0.3-0.4c0-0.2,0.1-0.4,0.4-0.3l2.3,0
					c0.2,0,0.3,0.2,0.3,0.4C244.4,249.5,244.2,249.7,244.1,249.7z"/>
			</g>
			<g>
				<path class="st44" d="M178.6,248.7C178.6,248.7,178.6,248.7,178.6,248.7l-2.3,0c-0.2,0-0.3-0.2-0.3-0.4c0-0.2,0.1-0.4,0.4-0.3
					l2.3,0c0.2,0,0.3,0.2,0.3,0.4C179,248.6,178.8,248.7,178.6,248.7z"/>
			</g>
		</g>
		<g>
			<g>
				<path class="st44" d="M241.6,247c-0.2,0-0.3-0.1-0.3-0.3c0-0.2,0.1-0.4,0.3-0.4l2.3-0.2c0.2,0,0.4,0.1,0.4,0.3
					c0,0.2-0.1,0.4-0.3,0.4L241.6,247C241.7,247,241.6,247,241.6,247z"/>
			</g>
			<g>
				<path class="st44" d="M176.4,251.5c-0.2,0-0.3-0.1-0.3-0.3c0-0.2,0.1-0.4,0.3-0.4l2.3-0.2c0.2,0,0.4,0.1,0.4,0.3
					c0,0.2-0.1,0.4-0.3,0.4L176.4,251.5C176.4,251.5,176.4,251.5,176.4,251.5z"/>
			</g>
		</g>
		<g>
			<g>
				<path class="st44" d="M241.3,244.4c-0.2,0-0.3-0.1-0.3-0.3c0-0.2,0.1-0.4,0.3-0.4l2.3-0.4c0.2,0,0.4,0.1,0.4,0.3
					c0,0.2-0.1,0.4-0.3,0.4L241.3,244.4C241.4,244.4,241.4,244.4,241.3,244.4z"/>
			</g>
			<g>
				<path class="st44" d="M176.7,254.3c-0.2,0-0.3-0.1-0.3-0.3c0-0.2,0.1-0.4,0.3-0.4l2.3-0.4c0.2,0,0.4,0.1,0.4,0.3
					c0,0.2-0.1,0.4-0.3,0.4L176.7,254.3C176.7,254.3,176.7,254.3,176.7,254.3z"/>
			</g>
		</g>
		<g>
			<g>
				<path class="st44" d="M240.8,241.8c-0.2,0-0.3-0.1-0.3-0.3c0-0.2,0.1-0.4,0.3-0.4l2.3-0.5c0.2,0,0.4,0.1,0.4,0.3
					c0,0.2-0.1,0.4-0.3,0.4L240.8,241.8C240.9,241.8,240.9,241.8,240.8,241.8z"/>
			</g>
			<g>
				<path class="st44" d="M177.2,257.1c-0.2,0-0.3-0.1-0.3-0.3c0-0.2,0.1-0.4,0.3-0.4l2.3-0.5c0.2,0,0.4,0.1,0.4,0.3
					c0,0.2-0.1,0.4-0.3,0.4L177.2,257.1C177.3,257.1,177.2,257.1,177.2,257.1z"/>
			</g>
		</g>
		<g>
			<g>
				<path class="st44" d="M240.1,239.3c-0.1,0-0.3-0.1-0.3-0.2c-0.1-0.2,0-0.4,0.2-0.4l2.2-0.7c0.2-0.1,0.4,0,0.4,0.2
					c0.1,0.2,0,0.4-0.2,0.4l-2.2,0.7C240.2,239.3,240.2,239.3,240.1,239.3z"/>
			</g>
			<g>
				<path class="st44" d="M178,259.8c-0.1,0-0.3-0.1-0.3-0.2c-0.1-0.2,0-0.4,0.2-0.4l2.2-0.7c0.2-0.1,0.4,0,0.4,0.2
					c0.1,0.2,0,0.4-0.2,0.4l-2.2,0.7C178.1,259.8,178,259.8,178,259.8z"/>
			</g>
		</g>
		<g>
			<g>
				<path class="st44" d="M239.2,236.8c-0.1,0-0.3-0.1-0.3-0.2c-0.1-0.2,0-0.4,0.2-0.5l2.2-0.9c0.2-0.1,0.4,0,0.5,0.2
					c0.1,0.2,0,0.4-0.2,0.5l-2.1,0.9C239.3,236.8,239.2,236.8,239.2,236.8z"/>
			</g>
			<g>
				<path class="st44" d="M179,262.5c-0.1,0-0.3-0.1-0.3-0.2c-0.1-0.2,0-0.4,0.2-0.5l2.2-0.9c0.2-0.1,0.4,0,0.5,0.2
					c0.1,0.2,0,0.4-0.2,0.5l-2.2,0.9C179.1,262.5,179,262.5,179,262.5z"/>
			</g>
		</g>
		<g>
			<g>
				<path class="st44" d="M238.1,234.4c-0.1,0-0.2-0.1-0.3-0.2c-0.1-0.2,0-0.4,0.1-0.5l2.1-1.1c0.2-0.1,0.4,0,0.5,0.1
					c0.1,0.2,0,0.4-0.1,0.5l-2.1,1.1C238.2,234.4,238.1,234.4,238.1,234.4z"/>
			</g>
			<g>
				<path class="st44" d="M180.2,265c-0.1,0-0.2-0.1-0.3-0.2c-0.1-0.2,0-0.4,0.1-0.5l2.1-1.1c0.2-0.1,0.4,0,0.5,0.1
					c0.1,0.2,0,0.4-0.1,0.5l-2.1,1.1C180.3,265,180.3,265,180.2,265z"/>
			</g>
		</g>
		<g>
			<g>
				<path class="st44" d="M236.7,232.2c-0.1,0-0.2-0.1-0.3-0.2c-0.1-0.2-0.1-0.4,0.1-0.5l2-1.3c0.2-0.1,0.4-0.1,0.5,0.1
					c0.1,0.2,0.1,0.4-0.1,0.5l-2,1.3C236.9,232.1,236.8,232.2,236.7,232.2z"/>
			</g>
			<g>
				<path class="st44" d="M181.6,267.5c-0.1,0-0.2-0.1-0.3-0.2c-0.1-0.2-0.1-0.4,0.1-0.5l2-1.3c0.2-0.1,0.4-0.1,0.5,0.1
					c0.1,0.2,0.1,0.4-0.1,0.5l-2,1.3C181.8,267.5,181.7,267.5,181.6,267.5z"/>
			</g>
		</g>
		<g>
			<g>
				<path class="st44" d="M235.2,230c-0.1,0-0.2,0-0.3-0.1c-0.1-0.2-0.1-0.4,0.1-0.5l1.9-1.4c0.2-0.1,0.4-0.1,0.5,0.1
					c0.1,0.2,0.1,0.4-0.1,0.5l-1.9,1.4C235.4,230,235.3,230,235.2,230z"/>
			</g>
			<g>
				<path class="st44" d="M183.3,269.8c-0.1,0-0.2,0-0.3-0.1c-0.1-0.2-0.1-0.4,0.1-0.5l1.9-1.4c0.2-0.1,0.4-0.1,0.5,0.1
					c0.1,0.2,0.1,0.4-0.1,0.5l-1.9,1.4C183.4,269.8,183.3,269.8,183.3,269.8z"/>
			</g>
		</g>
		<g>
			<g>
				<path class="st44" d="M233.5,228c-0.1,0-0.2,0-0.3-0.1c-0.1-0.1-0.1-0.4,0-0.5l1.7-1.6c0.1-0.1,0.4-0.1,0.5,0
					c0.1,0.1,0.1,0.4,0,0.5l-1.7,1.6C233.7,228,233.6,228,233.5,228z"/>
			</g>
			<g>
				<path class="st44" d="M185.1,272c-0.1,0-0.2,0-0.3-0.1c-0.1-0.1-0.1-0.4,0-0.5l1.7-1.6c0.1-0.1,0.4-0.1,0.5,0
					c0.1,0.1,0.1,0.4,0,0.5l-1.7,1.6C185.2,271.9,185.1,272,185.1,272z"/>
			</g>
		</g>
		<g>
			<g>
				<path class="st44" d="M231.7,226.1c-0.1,0-0.2,0-0.2-0.1c-0.1-0.1-0.2-0.4,0-0.5l1.6-1.7c0.1-0.1,0.4-0.1,0.5,0
					c0.1,0.1,0.2,0.4,0,0.5l-1.6,1.7C231.9,226.1,231.8,226.1,231.7,226.1z"/>
			</g>
			<g>
				<path class="st44" d="M187,274c-0.1,0-0.2,0-0.2-0.1c-0.1-0.1-0.1-0.4,0-0.5l1.6-1.7c0.1-0.1,0.4-0.1,0.5,0
					c0.1,0.1,0.2,0.4,0,0.5l-1.6,1.7C187.2,273.9,187.1,274,187,274z"/>
			</g>
		</g>
		<g>
			<g>
				<path class="st44" d="M229.7,224.4c-0.1,0-0.2,0-0.2-0.1c-0.2-0.1-0.2-0.3-0.1-0.5l1.4-1.8c0.1-0.2,0.3-0.2,0.5-0.1
					c0.2,0.1,0.2,0.3,0.1,0.5l-1.5,1.8C229.9,224.4,229.8,224.4,229.7,224.4z"/>
			</g>
			<g>
				<path class="st44" d="M189.2,275.8c-0.1,0-0.2,0-0.2-0.1c-0.2-0.1-0.2-0.3-0.1-0.5l1.4-1.8c0.1-0.2,0.3-0.2,0.5-0.1
					c0.2,0.1,0.2,0.3,0.1,0.5l-1.4,1.8C189.4,275.8,189.3,275.8,189.2,275.8z"/>
			</g>
		</g>
		<g>
			<g>
				<path class="st44" d="M227.6,222.9c-0.1,0-0.1,0-0.2-0.1c-0.2-0.1-0.2-0.3-0.1-0.5l1.3-2c0.1-0.2,0.3-0.2,0.5-0.1
					c0.2,0.1,0.2,0.3,0.1,0.5l-1.3,2C227.8,222.8,227.7,222.9,227.6,222.9z"/>
			</g>
			<g>
				<path class="st44" d="M191.5,277.5c-0.1,0-0.1,0-0.2-0.1c-0.2-0.1-0.2-0.3-0.1-0.5l1.3-2c0.1-0.2,0.3-0.2,0.5-0.1
					c0.2,0.1,0.2,0.3,0.1,0.5l-1.3,2C191.7,277.4,191.6,277.5,191.5,277.5z"/>
			</g>
		</g>
		<g>
			<g>
				<path class="st44" d="M225.3,221.5c-0.1,0-0.1,0-0.2,0c-0.2-0.1-0.2-0.3-0.1-0.5l1.1-2.1c0.1-0.2,0.3-0.2,0.5-0.1
					c0.2,0.1,0.2,0.3,0.1,0.5l-1.1,2.1C225.5,221.4,225.4,221.5,225.3,221.5z"/>
			</g>
			<g>
				<path class="st44" d="M193.9,278.9c-0.1,0-0.1,0-0.2,0c-0.2-0.1-0.2-0.3-0.1-0.5l1.1-2.1c0.1-0.2,0.3-0.2,0.5-0.1
					c0.2,0.1,0.2,0.3,0.1,0.5l-1.1,2.1C194.1,278.8,194,278.9,193.9,278.9z"/>
			</g>
		</g>
		<g>
			<g>
				<path class="st44" d="M222.9,220.3c0,0-0.1,0-0.1,0c-0.2-0.1-0.3-0.3-0.2-0.5l0.9-2.1c0.1-0.2,0.3-0.3,0.5-0.2
					c0.2,0.1,0.3,0.3,0.2,0.5l-0.9,2.1C223.2,220.3,223.1,220.3,222.9,220.3z"/>
			</g>
			<g>
				<path class="st44" d="M196.4,280.2c0,0-0.1,0-0.1,0c-0.2-0.1-0.3-0.3-0.2-0.5l0.9-2.1c0.1-0.2,0.3-0.3,0.5-0.2
					c0.2,0.1,0.3,0.3,0.2,0.5l-0.9,2.1C196.7,280.1,196.6,280.2,196.4,280.2z"/>
			</g>
		</g>
		<g>
			<g>
				<path class="st44" d="M220.5,219.4c0,0-0.1,0-0.1,0c-0.2-0.1-0.3-0.3-0.2-0.4l0.8-2.2c0.1-0.2,0.3-0.3,0.4-0.2
					c0.2,0.1,0.3,0.3,0.2,0.4l-0.8,2.2C220.8,219.3,220.6,219.4,220.5,219.4z"/>
			</g>
			<g>
				<path class="st44" d="M199.1,281.2c0,0-0.1,0-0.1,0c-0.2-0.1-0.3-0.3-0.2-0.4l0.8-2.2c0.1-0.2,0.3-0.3,0.4-0.2
					c0.2,0.1,0.3,0.3,0.2,0.4l-0.8,2.2C199.3,281.1,199.2,281.2,199.1,281.2z"/>
			</g>
		</g>
		<g>
			<g>
				<path class="st44" d="M218,218.6C217.9,218.6,217.9,218.6,218,218.6c-0.3-0.1-0.4-0.2-0.3-0.4l0.6-2.3c0-0.2,0.2-0.3,0.4-0.3
					c0.2,0,0.3,0.2,0.3,0.4l-0.6,2.3C218.3,218.5,218.1,218.6,218,218.6z"/>
			</g>
			<g>
				<path class="st44" d="M201.8,282C201.7,282,201.7,282,201.8,282c-0.3-0.1-0.4-0.2-0.3-0.4l0.6-2.3c0-0.2,0.2-0.3,0.4-0.3
					c0.2,0,0.3,0.2,0.3,0.4l-0.6,2.3C202.1,281.9,201.9,282,201.8,282z"/>
			</g>
		</g>
		<g>
			<g>
				<path class="st44" d="M215.4,218.1C215.4,218.1,215.4,218.1,215.4,218.1c-0.3,0-0.4-0.2-0.3-0.4l0.4-2.3c0-0.2,0.2-0.3,0.4-0.3
					c0.2,0,0.3,0.2,0.3,0.4l-0.4,2.3C215.7,218,215.6,218.1,215.4,218.1z"/>
			</g>
			<g>
				<path class="st44" d="M204.5,282.6C204.5,282.6,204.5,282.6,204.5,282.6c-0.3,0-0.4-0.2-0.3-0.4l0.4-2.3c0-0.2,0.2-0.3,0.4-0.3
					c0.2,0,0.3,0.2,0.3,0.4l-0.4,2.3C204.9,282.5,204.7,282.6,204.5,282.6z"/>
			</g>
		</g>
		<g>
			<g>
				<path class="st44" d="M212.8,217.7C212.8,217.7,212.8,217.7,212.8,217.7c-0.2,0-0.4-0.2-0.4-0.4l0.2-2.3c0-0.2,0.2-0.3,0.4-0.3
					c0.2,0,0.3,0.2,0.3,0.4l-0.2,2.3C213.1,217.6,213,217.7,212.8,217.7z"/>
			</g>
			<g>
				<path class="st44" d="M207.3,283C207.3,283,207.3,283,207.3,283c-0.2,0-0.4-0.2-0.3-0.4l0.2-2.3c0-0.2,0.2-0.3,0.4-0.3
					c0.2,0,0.3,0.2,0.3,0.4l-0.2,2.3C207.7,282.8,207.5,283,207.3,283z"/>
			</g>
		</g>
		<g>
			<g>
				<path class="st44" d="M210.2,217.6c-0.2,0-0.4-0.2-0.4-0.4v-2.3c0-0.2,0.2-0.4,0.4-0.4c0.2,0,0.4,0.2,0.4,0.4v2.3
					C210.5,217.5,210.4,217.6,210.2,217.6z"/>
			</g>
			<g>
				<path class="st44" d="M210.2,283.1c-0.2,0-0.4-0.2-0.4-0.4v-2.3c0-0.2,0.2-0.4,0.4-0.4c0.2,0,0.4,0.2,0.4,0.4v2.3
					C210.5,282.9,210.4,283.1,210.2,283.1z"/>
			</g>
		</g>
	</g>
	<path class="st35" d="M335.3,355.8c0,0,41,26.4,47.1,56.6c0,0-2.2,3.7-4.1,5.7c0,0,2.9,3.5,8.9,0s3.6-11.8,3.6-11.8s9.9-3.3,6-13.8
		C392.9,381.9,341.4,336.5,335.3,355.8z"/>
</g>
<g>
	<g>
		<path class="st55" d="M570.1,137.5c8.5,0.3,17,0.4,25.6,0.2c-8.2,19.6-17.4,38.9-27.7,58c-8.9-19.7-16.7-39.7-23.3-59.8
			C553.1,136.7,561.6,137.2,570.1,137.5z"/>
		<path class="st56" d="M517,132.5c8.3,1.3,16.7,2.3,25.1,3.2c-10.3,18.5-21.6,36.6-34,54.4c-6.4-20.6-11.7-41.3-15.8-62.1
			C500.4,129.7,508.7,131.2,517,132.5z"/>
		<path class="st57" d="M465.7,121.5c8,2.2,16.1,4.2,24.3,6c-12.3,17.2-25.6,33.9-39.8,50.1c-3.9-21.2-6.7-42.4-8.4-63.4
			C449.7,116.8,457.6,119.3,465.7,121.5z"/>
		<g>
			<path class="st58" d="M577.6,137.7c-5.7,12.4-11.9,24.8-18.6,37c-0.8-2-1.6-3.9-2.4-5.9c5.6-10.3,10.9-20.7,15.9-31.1
				C574.2,137.7,575.9,137.7,577.6,137.7z"/>
			<path class="st58" d="M564.6,187.9c-0.9-2-1.7-3.9-2.5-5.9c7.9-14.6,15.2-29.3,21.8-44.2c1.7,0,3.4,0,5.1,0
				C581.6,154.7,573.5,171.4,564.6,187.9z"/>
			<path class="st58" d="M555,136.8c-2,3.8-4,7.6-6.1,11.4c-0.7-2-1.4-4-2.1-6c1.1-1.9,2.1-3.8,3.1-5.8
				C551.6,136.5,553.3,136.6,555,136.8z"/>
			<path class="st58" d="M566.2,137.4c-4,8.1-8.1,16.1-12.5,24c-0.8-2-1.5-4-2.2-6c3.3-6.1,6.5-12.2,9.6-18.3
				C562.9,137.2,564.6,137.3,566.2,137.4z"/>
		</g>
		<g>
			<path class="st59" d="M507.7,174.4c-0.2,1.5-1.8,2.6-3.5,2.5c-0.6-2-1.1-4-1.7-5.9c0.6-0.3,1.4-0.4,2.2-0.2
				C506.6,171.1,508,172.7,507.7,174.4z"/>
			<path class="st59" d="M513.2,175.3c0.3-1.7,2-2.8,4-2.6c0.8,0.1,1.5,0.4,2,0.9c-1.1,1.7-2.3,3.4-3.4,5.2
				C514.1,178.3,512.9,176.8,513.2,175.3z"/>
			<path class="st59" d="M507.2,187.3c-0.5-1.5-0.9-3-1.4-4.5c0.8-0.9,2.1-1.5,3.5-1.2c1.4,0.2,2.6,1.1,3,2.2
				c-0.9,1.3-1.8,2.6-2.7,3.9c-0.4,0.1-0.8,0.1-1.3,0C508,187.6,507.6,187.5,507.2,187.3z"/>
			<path class="st59" d="M499.1,151.5c-0.1,0.7-0.6,1.4-1.2,1.8c-0.4-1.8-0.9-3.6-1.3-5.4C498.3,148.4,499.4,150,499.1,151.5z"/>
			<path class="st59" d="M507.1,156.1c-1.9-0.3-3.2-2-2.9-3.7c0.3-1.7,2-2.8,3.9-2.5c1.9,0.3,3.2,1.9,2.9,3.6
				C510.8,155.3,509,156.5,507.1,156.1z"/>
			<path class="st59" d="M520.1,151.8c1.9,0.3,3.2,1.9,3,3.6c-0.2,1.7-2,2.9-3.9,2.6c-1.9-0.3-3.2-1.9-3-3.6
				C516.5,152.7,518.2,151.6,520.1,151.8z"/>
			<path class="st59" d="M531.8,153.4c-1,1.6-1.9,3.2-2.9,4.8c-0.4-0.6-0.7-1.3-0.6-2.1C528.6,154.5,530.1,153.3,531.8,153.4z"/>
			<path class="st59" d="M503.4,162.4c-0.2,1.2-1.2,2.2-2.5,2.4c-0.5-2-1.1-4.1-1.6-6.1c0.4-0.1,0.8-0.1,1.2,0
				C502.3,159,503.7,160.7,503.4,162.4z"/>
			<path class="st59" d="M511.7,166.9c-1.9-0.3-3.3-1.9-3-3.6c0.3-1.7,2-2.8,4-2.5c1.9,0.3,3.3,1.9,3,3.6
				C515.4,166,513.6,167.2,511.7,166.9z"/>
			<path class="st59" d="M521,165.1c0.2-1.7,2-2.9,3.9-2.6c0.4,0.1,0.8,0.2,1.2,0.4c-1.1,1.8-2.2,3.6-3.4,5.4
				C521.5,167.5,520.8,166.3,521,165.1z"/>
			<path class="st59" d="M499.1,133.3c-1.8-0.3-3-2-2.6-3.7c0-0.2,0.1-0.5,0.2-0.7c2.1,0.4,4.2,0.8,6.3,1.2c0,0.2,0,0.5,0,0.7
				C502.6,132.5,500.9,133.6,499.1,133.3z"/>
			<path class="st59" d="M510.6,135.4c-1.8-0.3-3-1.9-2.7-3.6c0-0.2,0.1-0.5,0.2-0.7c2.1,0.4,4.2,0.7,6.3,1.1c0,0.2,0,0.5,0,0.7
				C514.1,134.5,512.4,135.7,510.6,135.4z"/>
			<path class="st59" d="M522.2,137.2c-1.8-0.3-3.1-1.9-2.8-3.6c0-0.2,0.1-0.5,0.2-0.7c2.1,0.3,4.2,0.6,6.3,0.9c0,0.2,0,0.5,0,0.7
				C525.7,136.2,524,137.4,522.2,137.2z"/>
			<path class="st59" d="M533.9,138.7c-1.8-0.2-3.1-1.8-2.9-3.5c0-0.2,0.1-0.5,0.2-0.7c2.1,0.3,4.2,0.5,6.4,0.7c0,0.2,0,0.5,0,0.7
				C537.3,137.6,535.7,138.9,533.9,138.7z"/>
			<path class="st59" d="M495.3,139.4c-0.1,0.4-0.2,0.7-0.4,1c-0.3-1.4-0.6-2.7-0.9-4.1C495,137,495.5,138.2,495.3,139.4z"/>
			<path class="st59" d="M503.1,144.1c-1.8-0.3-3.1-2-2.8-3.7c0.3-1.7,2-2.8,3.9-2.5c1.8,0.3,3,2,2.8,3.7
				C506.7,143.3,504.9,144.4,503.1,144.1z"/>
			<path class="st59" d="M514.9,146.1c-1.9-0.3-3.1-1.9-2.9-3.6c0.3-1.7,2-2.8,3.8-2.5c1.8,0.3,3.1,1.9,2.9,3.6
				C518.5,145.2,516.7,146.4,514.9,146.1z"/>
			<path class="st59" d="M527.6,141.6c1.8,0.2,3.2,1.8,3,3.5c-0.2,1.7-1.9,2.9-3.7,2.7c-1.9-0.2-3.2-1.8-2.9-3.5
				C524,142.5,525.7,141.3,527.6,141.6z"/>
			<path class="st59" d="M537.9,143.1c-0.7,1.2-1.4,2.4-2.1,3.7c-0.1-0.3-0.1-0.7-0.1-1.1C535.8,144.4,536.7,143.5,537.9,143.1z"/>
		</g>
		<g>
			<path class="st60" d="M443.5,131.8c-0.2-1.5-0.3-3-0.5-4.5c12.9,4.2,26,7.8,39.3,10.9c-0.9,1.2-1.8,2.4-2.7,3.6
				C467.3,138.9,455.3,135.6,443.5,131.8z"/>
			<path class="st60" d="M485.2,134.1c-14.5-3.3-28.7-7.2-42.7-11.8c-0.1-1.5-0.3-3-0.4-4.5c15,5,30.3,9.2,45.8,12.7
				C487,131.6,486.1,132.9,485.2,134.1z"/>
			<path class="st60" d="M444.6,141.3c-0.2-1.5-0.4-3-0.5-4.5c10.7,3.4,21.5,6.4,32.4,9c-0.9,1.2-1.9,2.4-2.8,3.6
				C463.9,146.9,454.2,144.3,444.6,141.3z"/>
			<path class="st60" d="M448.8,169.9c-0.3-1.5-0.5-3-0.8-4.6c3.4,1,6.8,1.9,10.3,2.8c-1,1.2-2,2.4-3,3.5
				C453.1,171.1,451,170.5,448.8,169.9z"/>
			<path class="st60" d="M447.2,160.3c-0.2-1.5-0.5-3-0.7-4.6c5.9,1.8,11.9,3.4,17.9,5c-1,1.2-2,2.4-2.9,3.6
				C456.8,163,452,161.7,447.2,160.3z"/>
			<path class="st60" d="M445.8,150.8c-0.2-1.5-0.4-3-0.6-4.6c8.4,2.6,16.8,4.9,25.3,7c-1,1.2-1.9,2.4-2.9,3.6
				C460.3,155,453.1,153,445.8,150.8z"/>
		</g>
		<path class="st55" d="M415.8,104.5c7.7,3.1,15.5,6,23.3,8.7c-14.2,15.6-29.3,30.7-45.3,45.2c-1.4-21.5-1.6-42.8-0.9-63.9
			C400.5,98.1,408.1,101.4,415.8,104.5z"/>
		<path class="st56" d="M368.6,82c7.3,4,14.6,7.8,22.1,11.4c-15.9,13.9-32.6,27.2-50.1,39.7c1.1-21.5,3.3-42.7,6.5-63.6
			C354.2,73.9,361.3,78,368.6,82z"/>
		<path class="st57" d="M324.5,54.4c6.8,4.8,13.7,9.4,20.7,13.8c-17.4,12-35.5,23.2-54.4,33.7c3.6-21.2,8.2-42.1,13.8-62.4
			C311.1,44.6,317.7,49.6,324.5,54.4z"/>
		<g>
			<path class="st58" d="M422.6,107.2c-9.5,9.8-19.5,19.3-29.7,28.5c-0.1-2.1-0.1-4.2-0.1-6.4c8.7-7.8,17.1-15.8,25.3-23.9
				C419.5,106,421.1,106.6,422.6,107.2z"/>
			<path class="st58" d="M393.4,149.9c-0.1-2.1-0.2-4.3-0.3-6.4c12.3-11,24-22.4,35.2-34.2c1.5,0.6,3.1,1.1,4.6,1.7
				C420.5,124.5,407.3,137.5,393.4,149.9z"/>
			<path class="st58" d="M402.2,98.7c-3.1,2.9-6.3,5.8-9.5,8.6c0-2.1,0.1-4.2,0.1-6.3c1.6-1.5,3.3-2.9,4.9-4.4
				C399.2,97.4,400.7,98,402.2,98.7z"/>
			<path class="st58" d="M412.3,103.1c-6.4,6.2-13,12.4-19.7,18.4c0-2.1,0-4.2,0-6.3c5.2-4.6,10.2-9.3,15.2-14
				C409.3,101.8,410.8,102.4,412.3,103.1z"/>
		</g>
		<g>
			<path class="st59" d="M345.6,118.3c-0.8,1.4-2.5,1.8-4.2,1.2c0.2-2,0.3-4.1,0.5-6.1c0.7,0,1.4,0.1,2.1,0.5
				C345.7,114.8,346.4,116.8,345.6,118.3z"/>
			<path class="st59" d="M350.4,120.9c0.8-1.5,2.9-2,4.6-1.1c0.7,0.4,1.2,0.9,1.6,1.5c-1.6,1.2-3.3,2.5-4.9,3.7
				C350.2,124,349.6,122.3,350.4,120.9z"/>
			<path class="st59" d="M340.7,130.2c0.1-1.6,0.2-3.1,0.3-4.7c1-0.6,2.4-0.7,3.7,0c1.3,0.7,2,1.9,2,3.1c-1.3,0.9-2.5,1.9-3.8,2.8
				c-0.4-0.1-0.8-0.2-1.2-0.4C341.3,130.8,341,130.5,340.7,130.2z"/>
			<path class="st59" d="M345.4,93.9c-0.4,0.7-1,1.1-1.7,1.3c0.2-1.8,0.4-3.7,0.6-5.5C345.7,90.7,346.2,92.5,345.4,93.9z"/>
			<path class="st59" d="M351.3,100.9c-1.6-0.9-2.3-2.9-1.4-4.4c0.9-1.5,2.9-1.9,4.5-1c1.6,0.9,2.3,2.9,1.4,4.4
				C355,101.4,353,101.8,351.3,100.9z"/>
			<path class="st59" d="M364.8,101.2c1.6,0.9,2.3,2.8,1.5,4.3c-0.8,1.5-2.8,2-4.5,1.2c-1.7-0.9-2.4-2.8-1.5-4.4
				C361.2,100.9,363.2,100.4,364.8,101.2z"/>
			<path class="st59" d="M375.1,106.6c-1.4,1.2-2.9,2.3-4.3,3.5c-0.2-0.7-0.2-1.5,0.2-2.1C371.8,106.5,373.5,106,375.1,106.6z"/>
			<path class="st59" d="M345.7,105.5c-0.6,1.1-1.9,1.6-3.2,1.4c0.2-2.1,0.4-4.2,0.6-6.3c0.4,0.1,0.8,0.2,1.1,0.4
				C345.9,102,346.5,104,345.7,105.5z"/>
			<path class="st59" d="M351.8,112.5c-1.7-0.9-2.4-2.9-1.5-4.4c0.8-1.5,2.9-2,4.5-1c1.7,0.9,2.4,2.9,1.6,4.4
				C355.6,113,353.5,113.4,351.8,112.5z"/>
			<path class="st59" d="M361.1,113.9c0.8-1.5,2.8-2,4.5-1.2c0.4,0.2,0.7,0.4,1,0.7c-1.6,1.3-3.3,2.6-5,3.9
				C360.7,116.4,360.5,115.1,361.1,113.9z"/>
			<path class="st59" d="M351.7,76.8c-1.6-0.9-2.1-2.9-1.2-4.4c0.1-0.2,0.3-0.4,0.5-0.6c1.8,1.1,3.6,2.2,5.4,3.2
				c-0.1,0.2-0.2,0.5-0.3,0.7C355.2,77.2,353.2,77.7,351.7,76.8z"/>
			<path class="st59" d="M361.7,82.6c-1.6-0.9-2.2-2.8-1.3-4.3c0.1-0.2,0.3-0.4,0.4-0.6c1.8,1,3.6,2.1,5.5,3.1
				c-0.1,0.2-0.1,0.5-0.3,0.7C365.2,83,363.3,83.5,361.7,82.6z"/>
			<path class="st59" d="M371.8,88.1c-1.6-0.9-2.2-2.8-1.4-4.3c0.1-0.2,0.3-0.4,0.4-0.6c1.8,1,3.7,2,5.6,3c-0.1,0.2-0.1,0.5-0.2,0.7
				C375.4,88.4,373.4,89,371.8,88.1z"/>
			<path class="st59" d="M382.1,93.4c-1.6-0.8-2.3-2.7-1.5-4.2c0.1-0.2,0.3-0.4,0.4-0.6c1.9,1,3.7,1.9,5.6,2.8
				c-0.1,0.2-0.1,0.5-0.2,0.7C385.6,93.6,383.7,94.3,382.1,93.4z"/>
			<path class="st59" d="M346,81.3c-0.2,0.3-0.4,0.6-0.7,0.8c0.2-1.4,0.4-2.8,0.6-4.2C346.6,78.9,346.7,80.2,346,81.3z"/>
			<path class="st59" d="M351.7,88.2c-1.6-0.9-2.2-2.9-1.3-4.4c0.9-1.5,2.9-1.9,4.4-1c1.6,0.9,2.2,2.9,1.3,4.4
				C355.3,88.7,353.3,89.2,351.7,88.2z"/>
			<path class="st59" d="M362,94.1c-1.6-0.9-2.2-2.8-1.4-4.3c0.8-1.5,2.8-2,4.4-1.1c1.6,0.9,2.2,2.8,1.4,4.3
				C365.6,94.4,363.6,94.9,362,94.1z"/>
			<path class="st59" d="M375.3,94.1c1.6,0.8,2.3,2.7,1.5,4.3c-0.8,1.5-2.7,2.1-4.4,1.3c-1.6-0.8-2.3-2.8-1.5-4.3
				C371.7,93.8,373.6,93.2,375.3,94.1z"/>
			<path class="st59" d="M384.3,99c-1.1,0.9-2.1,1.8-3.2,2.7c0-0.4,0.1-0.7,0.3-1C381.9,99.5,383,98.9,384.3,99z"/>
		</g>
		<g>
			<path class="st60" d="M300.2,56.6c0.4-1.5,0.7-3,1.1-4.4c10.7,8.3,21.7,16.1,33.1,23.4c-1.3,0.8-2.5,1.7-3.8,2.5
				C320.1,71.4,310,64.2,300.2,56.6z"/>
			<path class="st60" d="M338.5,72.9c-12.4-7.9-24.4-16.4-36-25.5c0.4-1.5,0.8-2.9,1.2-4.4c12.4,9.8,25.3,18.9,38.6,27.4
				C341,71.2,339.7,72,338.5,72.9z"/>
			<path class="st60" d="M298,65.9c0.3-1.5,0.7-3,1-4.5c8.9,6.8,18,13.2,27.3,19.4c-1.3,0.8-2.6,1.6-3.9,2.5
				C314.1,77.7,305.9,72,298,65.9z"/>
			<path class="st60" d="M292.2,94.2c0.3-1.5,0.6-3,0.8-4.5c2.9,2.1,5.8,4.1,8.7,6.1c-1.3,0.8-2.7,1.5-4,2.3
				C295.8,96.8,294,95.5,292.2,94.2z"/>
			<path class="st60" d="M294,84.7c0.3-1.5,0.6-3,0.9-4.5c5,3.7,10,7.2,15.1,10.7c-1.3,0.8-2.6,1.6-4,2.3
				C302,90.5,297.9,87.6,294,84.7z"/>
			<path class="st60" d="M295.9,75.3c0.3-1.5,0.6-3,1-4.5c7,5.2,14.1,10.3,21.3,15.1c-1.3,0.8-2.6,1.6-3.9,2.4
				C308.1,84.1,301.9,79.8,295.9,75.3z"/>
		</g>
		<path class="st55" d="M283.4,21.5c6.2,5.6,12.5,11,19,16.2c-18.7,9.9-38,18.9-58,27.1c6-20.7,13-40.9,20.8-60.5
			C271.1,10.2,277.2,15.9,283.4,21.5z"/>
		<path class="st56" d="M246.3-16.1c5.5,6.3,11.3,12.5,17.1,18.4c-19.7,7.6-40,14.3-60.9,20c8.3-19.9,17.5-39.2,27.6-57.9
			C235.4-28.9,240.7-22.4,246.3-16.1z"/>
		<path class="st57" d="M213.7-57.9c4.8,7,9.8,13.8,15,20.5c-20.5,5.2-41.5,9.4-62.9,12.5c10.5-18.9,21.9-37.1,34-54.5
			C204.2-72,208.9-64.9,213.7-57.9z"/>
		<g>
			<path class="st58" d="M288.9,26.4C276.6,32.3,264,37.8,251.1,43c0.7-2,1.3-4,2-6c10.8-4.3,21.5-9,32-13.9
				C286.4,24.2,287.6,25.3,288.9,26.4z"/>
			<path class="st58" d="M246.8,56.6c0.6-2,1.3-4.1,1.9-6.1c15.3-6.2,30.2-12.9,44.8-20.1c1.3,1.1,2.5,2.1,3.8,3.2
				C281,41.9,264.2,49.6,246.8,56.6z"/>
			<path class="st58" d="M272.5,11.4c-3.9,1.7-7.9,3.3-11.9,4.9c0.7-2,1.5-3.9,2.3-5.9c2-0.8,4.1-1.6,6.1-2.4
				C270.1,9.1,271.3,10.2,272.5,11.4z"/>
			<path class="st58" d="M280.6,19c-8.2,3.7-16.5,7.2-24.9,10.5c0.7-2,1.4-4,2.1-6c6.4-2.6,12.8-5.2,19.1-8
				C278.2,16.7,279.4,17.9,280.6,19z"/>
		</g>
		<g>
			<path class="st59" d="M212.3,10.1c-1.2,1-3,0.9-4.3-0.3c0.8-1.9,1.7-3.8,2.5-5.6c0.7,0.2,1.3,0.6,1.8,1.2
				C213.6,6.9,213.6,9,212.3,10.1z"/>
			<path class="st59" d="M215.9,14.3c1.3-1.1,3.4-0.9,4.7,0.6c0.5,0.6,0.8,1.3,1,2c-2,0.6-3.9,1.2-5.9,1.8
				C214.7,17.2,214.7,15.3,215.9,14.3z"/>
			<path class="st59" d="M203.6,19.7c0.6-1.5,1.2-2.9,1.9-4.4c1.2-0.2,2.5,0.2,3.5,1.3c1,1.1,1.2,2.5,0.9,3.6
				c-1.5,0.4-3,0.9-4.6,1.3c-0.3-0.2-0.7-0.5-1-0.8C204,20.5,203.8,20.1,203.6,19.7z"/>
			<path class="st59" d="M220.3-13c-0.6,0.5-1.3,0.7-2.1,0.6c0.8-1.7,1.6-3.3,2.5-5C221.7-15.9,221.5-14,220.3-13z"/>
			<path class="st59" d="M223.6-4.3c-1.3-1.5-1.2-3.6,0.1-4.7c1.3-1.1,3.4-0.8,4.6,0.6c1.2,1.4,1.2,3.5-0.1,4.6
				C226.9-2.5,224.8-2.8,223.6-4.3z"/>
			<path class="st59" d="M236.3,0.8c1.3,1.4,1.3,3.5,0,4.6c-1.3,1.2-3.3,1-4.6-0.5c-1.3-1.4-1.3-3.5,0-4.7
				C232.9-0.8,235-0.6,236.3,0.8z"/>
			<path class="st59" d="M244.2,9.4c-1.7,0.6-3.5,1.2-5.3,1.8c0.1-0.7,0.3-1.4,0.9-2C241,8.2,242.9,8.3,244.2,9.4z"/>
			<path class="st59" d="M216.7-1.9c-1,0.8-2.3,0.9-3.5,0.2c0.9-1.9,1.8-3.8,2.7-5.7c0.3,0.2,0.7,0.5,0.9,0.8
				C218-5.1,218-3,216.7-1.9z"/>
			<path class="st59" d="M220.1,6.9c-1.3-1.5-1.3-3.6,0-4.7c1.3-1.1,3.4-0.8,4.7,0.6c1.3,1.5,1.3,3.5,0,4.7
				C223.5,8.6,221.4,8.4,220.1,6.9z"/>
			<path class="st59" d="M228.4,11.5c1.3-1.2,3.4-0.9,4.7,0.5c0.3,0.3,0.5,0.7,0.7,1c-2,0.7-4,1.3-6,1.9
				C227.3,13.7,227.5,12.3,228.4,11.5z"/>
			<path class="st59" d="M232-27c-1.2-1.4-1-3.5,0.3-4.5c0.2-0.2,0.4-0.3,0.6-0.4c1.3,1.7,2.7,3.3,4,5c-0.1,0.2-0.3,0.4-0.5,0.5
				C235.2-25.3,233.2-25.5,232-27z"/>
			<path class="st59" d="M239.6-18c-1.2-1.4-1.1-3.4,0.2-4.5c0.2-0.2,0.4-0.3,0.6-0.4c1.4,1.6,2.8,3.3,4.2,4.9
				c-0.1,0.2-0.3,0.4-0.5,0.5C242.8-16.3,240.8-16.6,239.6-18z"/>
			<path class="st59" d="M247.3-9.1c-1.2-1.4-1.2-3.4,0.1-4.5c0.2-0.2,0.4-0.3,0.6-0.4c1.4,1.6,2.8,3.2,4.3,4.7
				c-0.1,0.2-0.3,0.4-0.5,0.6C250.5-7.6,248.5-7.8,247.3-9.1z"/>
			<path class="st59" d="M255.2-0.6c-1.3-1.3-1.3-3.4,0-4.5c0.2-0.2,0.4-0.3,0.6-0.4c1.5,1.6,2.9,3.1,4.4,4.6
				c-0.1,0.2-0.3,0.4-0.5,0.6C258.5,0.9,256.5,0.8,255.2-0.6z"/>
			<path class="st59" d="M225.2-24.7c-0.3,0.2-0.6,0.4-1,0.5c0.6-1.3,1.3-2.5,1.9-3.7C226.5-26.8,226.1-25.5,225.2-24.7z"/>
			<path class="st59" d="M228.2-16.1c-1.2-1.4-1.1-3.5,0.2-4.6c1.3-1.1,3.4-0.8,4.5,0.6c1.2,1.4,1.1,3.5-0.2,4.6
				C231.4-14.4,229.4-14.7,228.2-16.1z"/>
			<path class="st59" d="M236-7c-1.2-1.4-1.2-3.5,0.1-4.6c1.3-1.1,3.3-0.9,4.6,0.5c1.2,1.4,1.2,3.4-0.1,4.6
				C239.3-5.4,237.2-5.6,236-7z"/>
			<path class="st59" d="M248.5-2.3c1.3,1.4,1.3,3.4,0,4.6c-1.3,1.2-3.3,1-4.6-0.3c-1.3-1.4-1.3-3.4,0-4.6
				C245.3-3.9,247.3-3.7,248.5-2.3z"/>
			<path class="st59" d="M255.4,5.4c-1.3,0.5-2.6,1-4,1.5c0.1-0.3,0.3-0.6,0.6-0.9C253,5.1,254.3,4.9,255.4,5.4z"/>
		</g>
		<g>
			<path class="st60" d="M189.8-64.6c0.8-1.3,1.7-2.6,2.5-3.8c7.4,11.8,15.2,23.2,23.6,34.2c-1.5,0.3-3,0.7-4.5,1
				C203.9-43.3,196.6-53.8,189.8-64.6z"/>
			<path class="st60" d="M220.8-35.4c-9.1-11.9-17.7-24.3-25.6-37.2c0.9-1.3,1.7-2.5,2.6-3.8c8.5,13.9,17.7,27.2,27.5,39.9
				C223.7-36.1,222.3-35.7,220.8-35.4z"/>
			<path class="st60" d="M184.6-56.5c0.8-1.3,1.6-2.6,2.5-3.9c6.2,9.7,12.7,19.1,19.5,28.3c-1.5,0.3-3,0.6-4.5,0.9
				C196-39.4,190.2-47.9,184.6-56.5z"/>
			<path class="st60" d="M169.6-31.7c0.8-1.3,1.5-2.7,2.3-4c2,3,4.1,6,6.2,9c-1.5,0.3-3.1,0.5-4.6,0.7
				C172.2-27.9,170.9-29.8,169.6-31.7z"/>
			<path class="st60" d="M174.5-40.1c0.8-1.3,1.6-2.7,2.4-4c3.5,5.3,7.1,10.5,10.8,15.6c-1.5,0.3-3,0.5-4.6,0.8
				C180.2-31.7,177.3-35.9,174.5-40.1z"/>
			<path class="st60" d="M179.5-48.4c0.8-1.3,1.6-2.6,2.4-3.9c4.9,7.5,10,14.9,15.2,22.1c-1.5,0.3-3,0.6-4.5,0.9
				C188.1-35.6,183.8-41.9,179.5-48.4z"/>
		</g>
	</g>
	<path class="st61" d="M189.4-95.9C274.2,57.9,440,148.8,615.2,137.6c0-0.4,0-0.7-0.1-1.1C440.4,147.7,274.9,56.9,190.4-96.4
		C190.1-96.2,189.8-96,189.4-95.9z"/>
</g>
</svg>
