<?xml version="1.0" encoding="utf-8"?>
<!-- Generator: Adobe Illustrator 24.0.3, SVG Export Plug-In . SVG Version: 6.00 Build 0)  -->
<svg version="1.1" id="Layer_1" xmlns="http://www.w3.org/2000/svg" xmlns:xlink="http://www.w3.org/1999/xlink" x="0px" y="0px"
	 width="480px" height="600px" viewBox="0 0 480 600" style="enable-background:new 0 0 480 600;" xml:space="preserve">
<style type="text/css">
	.st0{fill:#FFCC7B;}
	.st1{fill:#F7AE66;}
	.st2{fill:#B5581E;}
	.st3{fill:#71350A;}
	.st4{fill:#4A5F65;}
	.st5{fill:#74919B;}
	.st6{fill:#94A7B0;}
	.st7{fill:#5F7880;}
	.st8{fill:#9A4C1E;}
	.st9{fill:#7F3D13;}
	.st10{fill:#2E475E;}
	.st11{fill:#F4BE84;}
	.st12{fill:#7F3419;}
	.st13{fill:#FF9292;}
	.st14{fill:#FFFFFF;}
	.st15{fill:#EE8E6F;}
	.st16{fill:#F7E8C4;}
	.st17{fill:#FFCC9B;}
	.st18{fill:#E57C7C;}
	.st19{fill:#DBC6A1;}
	.st20{fill:#FFC296;}
	.st21{fill:#893D1F;}
	.st22{fill:#E97B59;}
	.st23{fill:#39170B;}
	.st24{fill-rule:evenodd;clip-rule:evenodd;fill:#B86851;}
	.st25{fill-rule:evenodd;clip-rule:evenodd;fill:#A15647;}
	.st26{fill-rule:evenodd;clip-rule:evenodd;fill:#8F483A;}
	.st27{fill-rule:evenodd;clip-rule:evenodd;fill:#7F3B2E;}
	.st28{fill:#666666;}
	.st29{fill:#333333;}
	.st30{fill:#4D4D4D;}
</style>
<title>Artboard 23</title>
<polygon class="st0" points="494.7,-13.1 -5.4,-12 -5.4,637.6 505.8,637.6 "/>
<g>
	<rect x="501.4" y="-19.5" class="st1" width="2.1" height="559.5"/>
	<rect x="337.4" y="-19.5" class="st1" width="2.1" height="559.5"/>
	<rect x="173.3" y="-19.5" class="st1" width="2.1" height="559.5"/>
	<rect x="9.2" y="-19.5" class="st1" width="2.1" height="559.5"/>
	<rect x="419.4" y="-19.5" class="st1" width="2.1" height="559.5"/>
	<rect x="255.3" y="-19.5" class="st1" width="2.1" height="559.5"/>
	<rect x="91.3" y="-19.5" class="st1" width="2.1" height="559.5"/>
</g>
<g id="XMLID_185_">
	<g>
		<path class="st2" d="M180.2,129.8c-19.6-5.5-55.6-9.5-75.2-4l0,0c-8.3,3.8-15.9,13.2-12.6,22.1c5.2,14,40.5,11.4,52.6,12.4
			c11.4,0.8,40.7,10.7,48.8,0.2C208.6,141.3,190.4,132.4,180.2,129.8z M71,161.1c-1.9-15.8,4.7-41.2,20.8-46.5
			c20.1-6.8,43.4-4.3,63.4,0c3.2,0.5,7,1,11.2,1.6c13.8,2,31.3,4.9,39.6,12.3c8.5,8.2,7.9,25.2,7.3,36.1c-0.3,3.3-3.9,11-5.9,13.1
			c-3.7,3.8-12.6,2.2-19.4,0.3l0,0.1c-27.4-7.9-60.6-10.1-87.3-6.1C88.1,171.6,72.6,175.5,71,161.1z"/>
		<path class="st3" d="M91.8,114.6c-16.1,5.3-22.7,30.7-20.8,46.5c1.6,14.4,17.1,10.5,29.5,10.9c-6.7,1-13,2.4-18.6,4.1
			c-6.1-0.6-11.7-0.5-16.7,0.4c-20.2-2.5-33.4-13.4-18.9-42.8c10.7-21.5,62.8-30.5,120.2-17.5c-4.2-0.6-8-1.1-11.2-1.6
			C135.2,110.3,111.9,107.8,91.8,114.6z"/>
		<path class="st2" d="M81.9,176.1c1.4,0.1,2.9,0.4,4.5,0.6c-2.5,0.2-5,0.3-7.4,0.4c0.5-0.2,1.1-0.4,1.7-0.6
			C81,176.3,81.4,176.2,81.9,176.1z"/>
		<path class="st3" d="M81.9,176.1c-0.5,0.1-0.9,0.3-1.3,0.4c-0.6,0.2-1.1,0.4-1.7,0.6c-4.8,0.1-9.5,0-13.8-0.6
			C70.2,175.6,75.8,175.4,81.9,176.1z"/>
		<path class="st4" d="M35.6,648.5c7.7,0.3,15.5,0.6,23.5,0.9c-1.7,4.3-6,9.4-9.8,9.7c-7.8,1-14.1-3.8-14.4-10.6
			C35.1,648.5,35.4,648.5,35.6,648.5z"/>
		<path class="st4" d="M71.6,618.8c-2.4-2.2-5.3-9.3-0.6-10.2l0,0c4.4,3.4,9.1,5.9,14,8.7C82.5,621.7,75,622,71.6,618.8z"/>
		<path class="st5" d="M35.7,647.8c18.5,0.3,39.2-7.3,56.4-12.9c9.6-3.2,20.1-5.8,30-7.8c1.3-0.3,3.5-1.4,5.3-2.8
			c-1.2,8.4-2.2,16.8-3,25.3c0,0-0.1,0-0.1,0c-20.9,0.5-43.3,0.4-65.1-0.2c-7.9-0.2-15.8-0.5-23.5-0.9L35.7,647.8z"/>
		<path class="st5" d="M187.1,700.9l-8.9-6.5c-6-4.7-12.2-10-18.3-15.4c-1.6-1.5-3.2-2.9-4.8-4.3c-8.5-7.5-16.8-15-24.7-20.8
			c0-0.5,0.1-2.5,0.2-3c0.1-1.5,0.3-3.1,0.6-4.7c0.7-3.3,1.2-6.6,1.8-9.8c1.4-6.4,3.8-12,5.7-18.1c2.4-0.7,4.6-0.6,6.6,0.2
			c-0.6,2.1-1.1,4.2-1.6,6.3c4.1,5.1,7.8,10.3,11.2,15.8c12.2,18.9,21.5,39.6,32.1,59.9C186.9,700.6,187,700.8,187.1,700.9z"/>
		<path class="st6" d="M92.1,634.9c-17.3,5.6-37.9,13.2-56.4,12.9l0,0.7c-0.2,0-0.5,0-0.7,0c-4.6-0.3-9.2-0.5-13.7-0.8l-0.1-0.4
			c22.5-8.5,48.7-17.9,73.7-23.6c11.5-2.7,22.8-4.5,33.3-5.1c0,0,0,0,0.1,0c-0.3,1.9-0.5,3.7-0.8,5.6c-1.7,1.4-4,2.5-5.3,2.8
			C112.2,629.1,101.7,631.7,92.1,634.9z"/>
		<path class="st7" d="M195.2,636.8c-3.8,0.5-7.3,1-10.9,1.4c-7.1,0.8-14,1.4-21.6,1.9c-3.7-6.5-8.6-16.3-15.1-20.3
			c17.1,1.4,60.8,9.2,75.1,12c0,0.2,0.1,0.3,0.1,0.5c-4,0.8-7.8,1.4-11.3,2C205.5,635.3,200.2,636.1,195.2,636.8z"/>
		<path class="st8" d="M264.9,440.5c-19.7-9.2-40.5-18.3-62.5-20.5c0-0.9,0-1.8-0.1-2.8c8.2,1.1,16.3,2.4,24.2,3.9
			c2.5,0.5,5.1,0.9,7.6,1.5c22.2,4.9,39.3,12,58.8,22.3c11,5.3,45.2,29.2,45.4,47.8c0,2.6-0.6,5.2-2.1,7.5
			c-7.9,12-86.7,12.7-101.7,11.1c-28.1-2.6-41.5,0.4-67.5-8.8c-18.5-6.9-49.5-30-62.8-43.5c-8.8-8.1-30.8-28.5-27.6-39.7
			c0.3-0.3,0.5-0.7,0.8-0.9c-0.1-0.2-0.1-0.4-0.2-0.6c1.7-3.1,5.9-5.2,13.6-5.8c0,0,0.1,0,0.1,0c0.4,0,0.8-0.1,1.3-0.1
			c1.1,0,3.1-0.1,5.3-0.3c0.3,0,0.6,0,0.9,0l0,0.2c11.9,16.9,19.5,34.4,35.3,47.6c13.1,11,27.9,18.5,44.1,24.2
			c34.7,12.3,75.8,10.8,111.8,10.4c15.2,0,29.7-2.4,20.2-20.5C299.9,456.3,281.8,447.9,264.9,440.5z"/>
		<path class="st7" d="M130.3,653.9c-2-1.5-4-3-5.9-4.2c0,0,0,0,0-0.1c0.8-8.5,1.8-16.9,3-25.3c2.2-1.8,3.6-4.1,0.8-5.6l0,0
			c0.2-1.1,0.3-2.1,0.5-3.2c0.3-1.8,0.6-3.6,0.8-5.4c3.1-20,6.6-39.9,8.9-60c7.9,3.1,16.6,5.8,25.4,7.8c-5.6,17.4-12,36.3-17.2,55
			c-0.5,1.9-1,3.7-1.5,5.6c-2-0.8-4.3-0.9-6.6-0.2c-1.9,6.1-4.3,11.7-5.7,18.1c-0.6,3.2-1.1,6.5-1.8,9.8c-0.3,1.6-0.5,3.2-0.6,4.7
			C130.4,651.4,130.2,653.4,130.3,653.9z"/>
		<path class="st6" d="M147.6,619.7c6.5,4,11.4,13.8,15.1,20.3c-2.6,0.2-5.2,0.4-8,0.5c-3.5-5.4-7.2-10.7-11.2-15.8
			c0.5-2.1,1-4.2,1.6-6.3C146,618.8,146.8,619.2,147.6,619.7z"/>
		<path class="st7" d="M65.7,603.8c18.5,2.4,43.9,8.7,62,11.6l1,0.1c-0.1,1.1-0.3,2.1-0.5,3.2c0,0,0,0-0.1,0
			c-10.5,0.6-21.8,2.4-33.3,5.1l-0.1-0.5c-3.2-2.3-6.4-4.2-9.6-6.1c-4.8-2.8-9.5-5.3-14-8.7C69.2,607.2,67.4,605.6,65.7,603.8z"/>
		<path class="st2" d="M86.4,176.7c-1.5-0.2-3-0.5-4.5-0.6c5.6-1.8,11.9-3.1,18.6-4.1c26.7-4,59.9-1.8,87.3,6.1
			c12.4,3.6,23.7,8.4,32.5,14.2c20.4,14,16.7,39,16.4,61.6c-0.2,22.7-4,45.6-5.7,68.5c-2.1,32.6-3.3,66.5-4.6,98.7
			c-7.9-1.5-16-2.7-24.2-3.9c-0.9-26.3-1.9-53.5,2.2-78.7c5.2-36.3,12.4-74.1,9.6-111c-2.7-35.7-76.4-42.9-109.9-28.6
			c-23.9,10.4-17.1,31.3-18.2,54.4c-0.9,20.4-0.7,41.8,0.4,62.1c1.7,30.2-1.2,67.2,10.7,95.3c-2.2,0.2-4.4,0.6-6.4,0.9
			c0,0,0,0-0.1,0c-7.7,0.6-11.9,2.7-13.6,5.8c-5.8-16.8-8.2-50.4-10.5-64.9c-3.5-23.8-3.5-48-5.6-72c-1.9-26.3-12.8-91.4,18-103.5
			C81.4,177,83.9,176.9,86.4,176.7z"/>
		<path class="st9" d="M233.8,552.1c-47-2.7-95.3-12.3-132.4-36.1c-13.1-8.4-24.9-18.6-34.6-30.9c-6.1-19.9-1.9-51.6,9.6-65.9
			c-3.1,11.2,18.9,31.6,27.6,39.7c13.3,13.5,44.3,36.7,62.8,43.5c26,9.2,39.4,6.2,67.5,8.8c15,1.6,93.8,0.9,101.7-11.1
			c1.5-2.3,2.2-4.9,2.1-7.5l0.4,0c0.5,48.6-39.9,60.8-83.2,60.3C248.2,552.8,241,552.5,233.8,552.1z"/>
		<path class="st9" d="M202.3,420c22.1,2.2,42.9,11.3,62.5,20.5c17,7.4,35,15.8,44.8,32.7c9.5,18.1-5,20.5-20.2,20.5
			c-36,0.4-77.1,2-111.8-10.4c-16.1-5.7-31-13.2-44.1-24.2c-15.8-13.3-23.4-30.8-35.3-47.6l0-0.2c-0.3,0-0.6,0-0.9,0
			c-0.1-0.2-0.2-0.4-0.2-0.6c15.6-1.7,35.6-1.1,45.2-0.2c19.4,2.1,40,3.9,59.9,6.6C202.3,418.1,202.3,419.1,202.3,420z"/>
		<path class="st4" d="M211.5,634.3c0.9,11.7-20.4,11.2-16.3,2.5C200.2,636.1,205.5,635.3,211.5,634.3z"/>
		<path class="st6" d="M189.6,619.4c7,1.5,31.3,3.5,33.1,12.3c-14.3-2.8-58-10.6-75.1-12c-0.8-0.5-1.6-0.9-2.5-1.2
			c0.5-1.9,1-3.7,1.5-5.6C160.5,612.6,176,616.1,189.6,619.4z"/>
		<path class="st6" d="M190.2,687.7c1.5,3.9,5.6,14.6-3.3,12.7c-10.6-20.3-19.8-40.9-32.1-59.9c2.8-0.2,5.4-0.3,8-0.5
			c0.7,1.3,1.4,2.5,2,3.5c4.7,7,8.2,14.3,12.5,21.5C182,673.2,187.5,678.6,190.2,687.7z"/>
		<path class="st4" d="M178.1,694.4c-1.6,5.2-14,2-16.9-1.3c-3.3-4-3.1-9.3-1.5-14.1C166,684.4,172.1,689.8,178.1,694.4z"/>
		<path class="st5" d="M163.8,558c-8.8-2-17.5-4.7-25.4-7.8C115.2,541,98,528.3,101.5,516c37.1,23.8,85.3,33.4,132.4,36.1
			C223.8,565.1,193.2,564.9,163.8,558z"/>
		<path class="st8" d="M202.3,417.2c-20-2.7-40.5-4.5-59.9-6.6c-9.6-0.9-29.6-1.5-45.2,0.2c-11.9-28.1-8.9-65.1-10.7-95.3
			c-1.2-20.4-1.3-41.8-0.4-62.1c1.1-23.1-5.8-44,18.2-54.4c33.4-14.3,107.1-7.1,109.9,28.6c2.8,36.9-4.4,74.7-9.6,111
			C200.4,363.7,201.4,390.9,202.3,417.2z"/>
		<path class="st7" d="M128.2,618.7c2.8,1.5,1.4,3.8-0.8,5.6C127.6,622.4,127.9,620.6,128.2,618.7z"/>
		<path class="st5" d="M128.2,618.7L128.2,618.7C128.1,618.7,128.1,618.7,128.2,618.7C128.1,618.7,128.1,618.7,128.2,618.7z"/>
		<path class="st6" d="M129.5,610.1c-0.3,1.8-0.6,3.6-0.8,5.4l-1-0.1c-18-2.9-43.4-9.2-62-11.6l-0.1-0.2c10-3.6,19.5-2.3,29.9-0.4
			C106.8,605.4,118.4,606.6,129.5,610.1z"/>
		<path class="st8" d="M180.2,129.8c10.2,2.5,28.4,11.5,13.6,30.7c-8.2,10.5-37.4,0.6-48.8-0.2c-12.1-1.1-47.4,1.6-52.6-12.4
			c-3.3-8.9,4.3-18.3,12.6-22.1l0,0C124.7,120.3,160.6,124.3,180.2,129.8z"/>
		<path class="st3" d="M77,417.5c-0.2,0.5-0.4,1-0.6,1.5c-11.5,14.3-15.6,46-9.6,65.9c-14.1-17.8-24.1-40-28.3-67.5
			c-7.4-48.8-51.1-228,26.6-241.1c4.3,0.6,9,0.8,13.8,0.6c-30.8,12.1-19.9,77.2-18,103.5c2.1,24,2.1,48.2,5.6,72
			C68.9,367.2,71.3,400.7,77,417.5z"/>
	</g>
</g>
<g>
	<g>
		<path class="st10" d="M164.3,805.4c0,0-1.6,29.3,5,29.6c6.6,0.2,4-18.8,0.5-28.9L164.3,805.4z"/>
		<path class="st10" d="M104,809.8c0,0-3.3,27.4,5.5,27.8c8.8,0.4,0.4-29.2,0.4-29.2L104,809.8z"/>
		<path class="st11" d="M103.9,806.7c0,0-0.5,20.6,4,20.1c4.5-0.5,2-20.1,2-20.1S108,802.7,103.9,806.7z"/>
		<path class="st11" d="M164.2,804.7c0,0,0.1,17.9,4.7,17.9c4.5,0,0.6-17.9,0.6-17.9H164.2z"/>
		<path class="st12" d="M111.1,49.8C81.6,63.7,66,165.3,99.9,178.5c25.4,8.9,16.8-0.4,74.2-2.7c47.3-1.9,0.7-102.1,0.7-102.1
			S137.5,37.3,111.1,49.8z"/>
		<path class="st13" d="M184.8,182.6c0,0,73.7-34.4,83.5-60.3c0,0-13.9-4.4-27.9-11c-8.1-3.8-42.1-27.8-47.9-32l4.2-9.2
			c0,0,86.9,23.3,100.9,41.3c10.4,13.5-96.7,106.3-96.7,106.3L184.8,182.6z"/>
		<path class="st13" d="M104.4,204.1c0,0,44.7-21.7,90.8-26.1c0,0,15.5,52.7,22.6,66c0,0-15.1,63.3-20.4,86.3l-74.9-6.6
			C122.5,323.7,111.4,266.1,104.4,204.1z"/>
		<path class="st14" d="M169.2,218.7c18.5-5.4,9.4-30.9,6.5-38c-18.1,3.4-35,8.7-48.2,13.5C132,200.4,150.5,224.2,169.2,218.7z"/>
		<path class="st11" d="M190.3,568.8c0,0-2.4,16.2-5.4,42.2c-2,17.4,0.9,37.6-1.2,61.7c-3.4,39.8-14.3,87.7-14.3,132h-5.3
			c-7-63.3-19.3-110.4-15.8-140.3c2-17.1,12.8-55.7,12.8-55.7l-6-40.9L190.3,568.8z"/>
		<path class="st11" d="M168.2,571.8c0,0-5.5,29.6-8.5,36.7c-3,7-38.6,68.8-49.7,198.3c0,0,1,0-6,0c1.5-54.7-9.8-105.6-3-154.6
			c7-18.1,32.1-49.2,32.1-49.2l-4-39.2L168.2,571.8z"/>
		<path class="st13" d="M104.4,204.1c0,0-54.7,84.9-50.5,119.6c0,0,8.7,7.4,15.4-1.6c7.3-9.7,12-31.7,45.4-77.5
			C114.7,244.6,117.2,215.3,104.4,204.1z"/>
		<path class="st15" d="M120.5,124.1c0,0,21.7,41.9,21.6,68.2L165,191c0,0,2.4-20.5,9.2-28L120.5,124.1z"/>
		<path class="st16" d="M122.5,323.7c0,0-13.7,31.9-35,74.4c0,0-0.4,95.7,44.3,193l54.8,5.8l40-181.9c0,0-4.5-39.9-27.5-91.3H122.5z
			"/>
		<path class="st15" d="M133,191.8c0,0,24.6-9.5,41-11.7c0,0,13.3,28.5-4.8,33.7C150.9,219.1,133,191.8,133,191.8z"/>
		<path class="st17" d="M192.4,112.6c0.6,34.8-9.6,66.2-27.6,66.4c-19.6,0.2-50.1-20-50.5-68.9c-0.3-34.8,19-50.6,42.6-50.3
			c15.6,0.2,25.5,3.9,31.8,17.5C191.9,84.3,192.2,99.9,192.4,112.6z"/>
		<path class="st12" d="M155.9,103.8c0,0-10.1,1.2-18.9,10c0,0,1.8-9.9,18.3-13.6L155.9,103.8z"/>
		<path class="st12" d="M177.4,102.8c0,0,7.1-1.4,16.3,4.5c0,0-0.9-7.4-16.3-8.3L177.4,102.8z"/>
		<path class="st15" d="M170.4,123.6c1.6,4.7,6.5,10.4,12,13.7c0,0-6.7,6.8-12.2,8.5l7.4-8.6c0,0-8.9-9.8-9.7-14.6
			C167.2,117.8,168.8,118.9,170.4,123.6z"/>
		<path class="st18" d="M217.8,243.9c0,0-18.7,18.5-75.3,21.3c0,0,25.3,14.4,61.7,12.6L217.8,243.9z"/>
		<polygon class="st19" points="132,406.9 165.4,421.7 197.7,410.7 		"/>
		<path class="st13" d="M96.5,378.8l125.9,7.1l-25.5-71.7l-74.3,9.6C122.5,323.7,105.3,349.2,96.5,378.8z"/>
		<path class="st20" d="M105.7,138.4c8.8,10.3,20.6,13.3,20.5,3.8c-0.1-9.5-15.2-30.4-19.1-23.5
			C103.1,125.6,100.8,132.7,105.7,138.4z"/>
		<path class="st15" d="M108.2,137.7c6.5,7.5,15.1,9.7,15,2.7c-0.1-7-11.2-22.3-14-17.2C106.4,128.3,104.7,133.6,108.2,137.7z"/>
		<path class="st20" d="M116.1,140.8c3.1,3.7,7.4,4.8,7.3,1.4c0-3.4-5.4-10.9-6.8-8.4C115.2,136.2,114.4,138.7,116.1,140.8z"/>
		<path class="st12" d="M112.3,129.3c0,0-18.4-43-9.7-59.5c8.6-16.5,30-24.5,37.3-25.5c23.7-3.2,58.8,20.3,62.5,27.3
			c3.7,6.9-10.6,25.2-10.6,25.2s0-10.8-2.6-18.1c0,0-7.2,6.9-22.3,9.3c-10.2,1.6-29.6,2.5-33.7,8.8c-3.8,5.9-4.5,16.5-5.5,25.3
			c-1.1,9.7-1.9,14.1-4.2,14C119.2,135.9,120,129.4,112.3,129.3z"/>
		<path class="st21" d="M103.2,74c0,0,7.1-22.3,38-28.4c0,0,15.7-1.1,34.8,8.9C202.6,68.4,96.7,101.8,103.2,74z"/>
		<g>
			<path class="st22" d="M146.9,154.1l-0.2-1.8c5.6-2.9,14.8-0.3,28.7,8.2L175,161C161.6,152.9,152,151.5,146.9,154.1z"/>
		</g>
		<path class="st22" d="M152,159.5c-0.3,0.4,0.3,2,2,3.3c1.7,1.3,3.8,1.7,4.1,1.4c0.3-0.4-1.6-1.2-3.3-2.5
			C153.1,160.4,152.3,159.1,152,159.5z"/>
	</g>
	<g>
		<path class="st14" d="M156.1,122.6c1.6-1.7-0.6-8.2-6.6-10.5c-6-2.2-9.4,1.7-9.7,3.3c-0.3,1.6,0.4,4.6,3.8,6.3
			c3.4,1.7,6.4,1.4,8,1.4C153.8,123.1,155.2,123.5,156.1,122.6z"/>
		<circle class="st23" cx="149.2" cy="116.1" r="5.3"/>
		<circle class="st14" cx="147.2" cy="114.9" r="2.1"/>
		<path class="st23" d="M156.6,121.2c0,0,1-3-2.6-7.3c-3.5-4.2-8.5-3.6-9.9-3.9c-1.4-0.3-2.8,0-2.4,0.4c0.4,0.4-0.9,1.4-2,1.1
			c-1.1-0.3-0.1,0.9-0.1,1.3c0,0.4-1.9,0.2-2.1,0.5c-0.2,0.4,1,1.4,0.7,1.4c-0.3,0.1-1.4,0.8-0.9,1.2c0.5,0.4,1.4,1.7,1.8,2.2
			c0.4,0.5,1.5,1.1,1.5,1.1s-1.2-2.6-0.3-4.3c0.9-1.7,3.1-3.5,6.6-2.9c3.5,0.6,5.5,2.4,7,3.8C155.5,117.3,156.6,121.2,156.6,121.2z"
			/>
	</g>
	<g>
		<path class="st14" d="M175.6,121.8c-1.2-1.8,1.7-7.6,7.6-8.9c5.9-1.3,8.6,2.8,8.6,4.4c0,1.6-1,4.2-4.4,5.4
			c-3.4,1.1-6.2,0.5-7.7,0.2C177.7,122.6,176.3,122.8,175.6,121.8z"/>
		<circle class="st23" cx="183" cy="116.6" r="5.1"/>
		<path class="st14" d="M179.1,115.4c-0.1,1.1,0.8,2.1,1.9,2.2c1.1,0.1,2.1-0.8,2.2-1.9c0.1-1.1-0.8-2.1-1.9-2.2
			C180.1,113.4,179.2,114.3,179.1,115.4z"/>
		<path class="st23" d="M175.4,120.4c0,0-0.5-3,3.4-6.5c3.9-3.5,8.5-2.2,9.8-2.4c1.3-0.1,2.7,0.4,2.2,0.7c-0.4,0.3,0.7,1.4,1.7,1.3
			c1-0.1-0.1,0.9-0.1,1.2c0,0.3,1.8,0.4,1.9,0.8c0.1,0.4-1.1,1.1-0.8,1.3c0.3,0.1,1.2,1,0.7,1.3c-0.5,0.3-1.6,1.4-2,1.8
			c-0.4,0.4-1.6,0.8-1.6,0.8s1.5-2.3,0.8-4c-0.6-1.7-2.5-3.7-5.8-3.6c-3.3,0.1-5.5,1.5-7.1,2.7C176.9,116.9,175.4,120.4,175.4,120.4
			z"/>
	</g>
	<path class="st13" d="M53.5,322.1c0,0-0.5,30.1,78.7,98c0,0,0.3-0.6,3-3.6c-17.6-24.8-39.5-66.3-48.1-76.3
		C80.9,333.2,65.4,309.9,53.5,322.1z"/>
</g>
<g>
	<rect x="55.2" y="396.6" class="st24" width="428.7" height="305"/>
	<polygon class="st25" points="467.4,396.6 62.8,396.6 62.8,431.6 158.5,429.4 467.4,416.4 	"/>
	<rect x="-4.5" y="396.6" class="st26" width="69.7" height="305"/>
	<polygon class="st27" points="-4.5,396.6 65.5,396.6 65.5,429.4 -4.5,472.5 	"/>
	<path class="st25" d="M-16,367.7h185.4c6,0,10.9,4.6,10.9,10.2v15.8c0,5.6-4.9,10.2-10.9,10.2H-16c-6,0-10.9-4.6-10.9-10.2v-15.8
		C-26.8,372.3-22,367.7-16,367.7z"/>
	<path class="st24" d="M43.3,367.7H491c6,0,10.9,4.6,10.9,10.2v15.8c0,5.6-4.9,10.2-10.9,10.2H43.3c-6,0-10.9-4.6-10.9-10.2v-15.8
		C32.5,372.3,37.4,367.7,43.3,367.7z"/>
</g>
<g>
	<g>
		<polygon class="st28" points="334.2,321.6 313.9,367.9 367,367.9 360,321.6 		"/>
		<polygon class="st29" points="328.4,334.9 338.2,340.3 335.2,367.9 313.9,367.9 		"/>
		<polygon class="st30" points="287.2,367.9 279.3,356.1 475.1,356.1 470.7,367.9 		"/>
		<polygon class="st29" points="239.7,367.9 236.7,358.5 279.3,356.1 287.2,367.9 		"/>
		<g>
			<polygon class="st30" points="263.2,325.1 236.7,183.5 483.3,185 455.6,322.3 			"/>
			<polygon class="st28" points="260.8,312.1 457.2,314.6 455.6,322.3 263.2,325.1 			"/>
			<polygon class="st28" points="263.2,325.1 254.5,325.1 225.8,187.8 236.7,183.5 			"/>
		</g>
	</g>
</g>
</svg>
