<?xml version="1.0" encoding="utf-8"?>
<!-- Generator: Adobe Illustrator 24.0.3, SVG Export Plug-In . SVG Version: 6.00 Build 0)  -->
<svg version="1.1" id="Layer_1" xmlns="http://www.w3.org/2000/svg" xmlns:xlink="http://www.w3.org/1999/xlink" x="0px" y="0px"
	 width="480px" height="600px" viewBox="0 0 480 600" style="enable-background:new 0 0 480 600;" xml:space="preserve">
<style type="text/css">
	.st0{fill:#329394;}
	.st1{fill:#227A78;}
	.st2{opacity:0.5;}
	.st3{opacity:0.2;}
	.st4{opacity:0.1;}
	.st5{opacity:0.2;fill:#329394;}
	.st6{fill:#FFFFFF;}
	.st7{fill:#363B4C;}
	.st8{fill:#E5AB76;}
	.st9{fill:#F4BE84;}
	.st10{fill:#AF5F23;}
	.st11{fill:#3A3133;}
	.st12{fill:#324C6B;}
	.st13{fill:#EE8E6F;}
	.st14{fill:#F1F2F2;}
	.st15{fill:#FFCC9B;}
	.st16{opacity:0.2;fill:#324C6B;}
	.st17{fill:#E4E5E6;}
	.st18{fill:#565F77;}
	.st19{opacity:0.2;fill:#363B4C;}
	.st20{fill:#FFB781;}
	.st21{fill:#39170B;}
	.st22{fill:#FFC296;}
	.st23{fill:#DA3300;}
	.st24{fill:#542C23;}
	.st25{fill:#78909C;}
	.st26{fill:#607D8B;}
	.st27{fill:#546E7A;}
	.st28{fill:#FFD740;}
	.st29{fill:#FFC400;}
</style>
<title>Artboard 23</title>
<rect x="-80.3" y="-16.3" class="st0" width="681.1" height="634.2"/>
<g>
	<g>
		<path class="st1" d="M390.3,601.8v3.5h3v-3.5c19.8,0.2,39.5,0.3,59,0.3c31.3,0.1,63.2,0.3,95.2,0.8c0,0.2,0,0.4,0,0.6h3
			c0-0.2,0-0.4,0-0.5c8.8,0.2,17.6,0.3,26.4,0.6c-0.1,0.6-0.1,1.2-0.2,1.7h3c0.1-0.6,0.1-1.1,0.2-1.7c7,0.2,14,0.4,21.1,0.7v-1.7
			c-16.8-0.6-33.6-1-50.4-1.3c0.1-4.4,0.4-8.9,0.7-13.3c0.4-5.2,0.8-10.5,0.8-15.7c0-1.3,0-2.5-0.1-3.8c15.9,0.2,32.2,0.5,48.9,0.8
			v-1.7c-9.8-0.2-19.4-0.3-28.9-0.5c0.4-6.3,0.5-12.9,0.5-19.2c10.1,0,19.5,0.1,28.5,0.2v-1.7c-15.8-0.2-33-0.3-52.7-0.3
			c-6.7,0-13.5,0-20.2,0c-0.1-2.6-0.2-5.1-0.2-7.7c0-9.9,0.7-19.3,2.1-28.2c23.6,0.5,47.3,1.1,71,1.8v-1.7c-9-0.3-17.9-0.5-26.9-0.8
			c0.2-3.7,0.3-7.4,0.5-11c0.4-7.9,0.9-16.2,0.9-24.3c8.9,0.2,17.3,0.4,25.5,0.6v-1.7c-17.4-0.5-36-0.8-57-0.9
			c-0.4-9.3-0.4-18.3-0.4-27.8h-3c0,9.5,0,18.5,0.4,27.8c-4.4,0-8.9,0-13.5,0c-19.8,0-39.9,0.1-59.4,0.3c-7.7,0.1-15.5,0.1-23.4,0.2
			l-0.2-1.6c-1.4-11.9-2.8-23.1-3.7-34.7c14.1,1,28.4,2.2,43,3.4c38.5,3.2,78.2,6.5,117.1,6.5v-1.7c-3.7,0-7.4,0-11.1-0.1
			c-0.2-3.1-0.4-6.1-0.5-9.2c-0.4-6.8-0.9-13.8-0.9-20.6c4.2,0.2,8.3,0.4,12.5,0.6v-1.7c-9.4-0.4-18.9-0.9-28.3-1.3
			c-20.4-0.9-40.9-1.9-61.5-2.8c0.1-4.9,0.7-9.8,1.3-14.6c0.5-4,1-8.2,1.2-12.3c17.6,0.4,35.2,0.7,52.6,1.2
			c11.6,0.3,23.2,0.6,34.8,0.9v-1.7c-11.5-0.3-23.1-0.6-34.6-0.9c-39.2-1-79-1.7-118.9-2.6c0.2-3.5,0.6-7.1,1-10.5
			c0.6-5.5,1.3-11.1,1.3-16.8h-3c0,5.6-0.7,11.2-1.3,16.6c-0.4,3.5-0.8,7-1,10.6c-25.8-0.6-51.7-1.4-77.5-2.5
			c-0.5-9-0.9-17.5-0.9-26.3c10.7,0.3,21.3,0.5,31.9,0.7c0,0,0,0,0,0.1l2.2,0c20.5,0.4,40.9,0.6,61.2,0.6c29,0,58.3-0.4,87.6-1.1
			l1.2,0.1c0,0,0-0.1,0-0.2c12.5-0.3,24.9-0.7,37.4-1.1c0,1,0.1,2.1,0.1,3.1c0,4.3-0.3,8.7-0.6,12.9c-0.3,4.3-0.6,8.7-0.6,13
			c0,1.3,0,2.5,0.1,3.8l3,0c-0.1-1.2-0.1-2.5-0.1-3.7c0-4.3,0.3-8.7,0.6-12.9c0.3-4.3,0.6-8.7,0.6-13c0-1.1,0-2.2-0.1-3.3
			c3.5-0.1,7-0.3,10.5-0.4V347c-16.8,0.7-33.6,1.2-50.5,1.6c1.2-4.7,2-9.5,2.8-14.1c0.9-5.3,1.7-10.7,3.2-15.9l-3-0.3
			c-1.5,5.3-2.4,10.7-3.3,16c-0.8,4.7-1.6,9.6-2.8,14.4c-23.3,0.6-46.5,0.9-69.6,1c0.9-11.1,1.4-22.2,1.4-33.3
			c40.2,0.9,81.2,1.9,121.8,3.1v-1.7c-3.5-0.1-7-0.2-10.5-0.3c0-9.4,0.8-17.5,1.6-26.9l0.3-3.7l-3-0.1l-0.3,3.7
			c-0.9,9.4-1.6,17.5-1.6,26.9c-24.8-0.7-49.6-1.4-74.3-1.9c0.5-4.9,0.8-9.9,1.2-14.8c0.4-5.3,0.7-10.6,1.2-15.8l-0.9,0
			c28.7,0.5,57.6,1.2,86.3,2.2v-1.7c-12.8-0.4-25.6-0.8-38.5-1.1c0-1.1-0.1-2.2-0.1-3.3c0-3,0.2-6.2,0.3-9.2c0.2-3,0.3-6.1,0.3-9.1
			h-3c0,3-0.2,6.1-0.3,9.1c-0.2,3-0.3,6.2-0.3,9.3c0,1.1,0.1,2.1,0.1,3.2c-33.1-0.8-66.2-1.3-98.8-1.8c0-0.2,0-0.3,0-0.5
			c0-4.6,0.8-9.4,1.6-14c0.4-2.1,0.7-4.2,1-6.2c24,0.6,48.4,1.1,72.6,1.1c23.6,0,45.2-0.5,65.2-1.5v-1.7c-7.5,0.4-15.3,0.7-23.3,0.9
			c0.8-4.9,1.1-9.9,1.5-14.8c0.2-3.3,0.5-6.6,0.8-9.9c7,0.2,14,0.4,21.1,0.7v-1.7c-16.8-0.6-33.6-1-50.4-1.3
			c0.1-4.4,0.4-8.9,0.7-13.3c0.4-5.2,0.8-10.5,0.8-15.7c0-1.3,0-2.5-0.1-3.8c15.9,0.2,32.2,0.5,48.9,0.8v-1.7
			c-9.8-0.2-19.4-0.3-28.9-0.5c0.4-6.3,0.5-12.9,0.5-19.2c10.1,0,19.5,0.1,28.5,0.2v-1.7c-15.8-0.2-33-0.3-52.7-0.3
			c-6.7,0-13.5,0-20.2,0c-0.1-2.6-0.2-5.1-0.2-7.7c0-9.9,0.7-19.3,2.1-28.2c23.6,0.5,47.3,1.1,71,1.8v-1.7c-9-0.3-17.9-0.5-26.9-0.8
			c0.2-3.7,0.3-7.4,0.5-11c0.4-7.9,0.9-16.2,0.9-24.3c8.9,0.2,17.3,0.4,25.5,0.6v-1.7c-17.4-0.5-36-0.8-57-0.9
			c-0.4-9.3-0.4-18.3-0.4-27.8h-3c0,9.5,0,18.5,0.4,27.8c-4.4,0-8.9,0-13.5,0c-19.8,0-39.9,0.1-59.4,0.3c-7.7,0.1-15.5,0.1-23.4,0.2
			l-0.2-1.6c-1.4-11.9-2.8-23.1-3.7-34.7c14.1,1,28.4,2.2,43,3.4c38.5,3.2,78.2,6.5,117.1,6.5v-1.7c-3.7,0-7.4-0.1-11.1-0.1
			c-0.2-3.1-0.4-6.1-0.5-9.2c-0.4-6.8-0.9-13.8-0.9-20.6c4.2,0.2,8.3,0.4,12.5,0.6v-1.7c-9.4-0.4-18.9-0.9-28.3-1.3
			c-20.4-0.9-40.9-1.9-61.5-2.8c0.1-4.9,0.7-9.8,1.3-14.6c0.5-4,1-8.2,1.2-12.3l-3-0.1c-0.2,4.1-0.7,8.2-1.2,12.3
			c-0.6,4.8-1.1,9.7-1.3,14.6c-32.8-1.5-65.9-2.8-99.1-3.9c1.4-8.6,2.8-17.5,3.7-26.3c51.4,2,102.9,3.4,153.3,4.6
			c11.6,0.3,23.2,0.6,34.8,0.9v-1.7c-11.5-0.3-23.1-0.6-34.6-0.9c-10.1-0.3-20.3-0.5-30.6-0.8c0.7-4.8,1-9.5,1.3-14.1
			c0.3-5,0.6-10,1.4-15.2h-3c-0.8,5.1-1.1,10.2-1.4,15.1c-0.3,4.6-0.6,9.3-1.3,14.1c-47.5-1.2-95.7-2.6-143.7-4.8
			c0.3-2.9,0.7-5.8,1.1-8.7c0.7-5.2,1.4-10.5,1.7-15.7h-3c-0.3,5.1-1,10.4-1.7,15.5c-0.4,2.9-0.8,5.8-1.1,8.7
			c-7.3-0.3-43.2-0.7-81-1c0.7-5.9,1-10.8,1-15.4c0-2.7-0.1-5.3-0.4-7.8h-2.8c0.2,2.5,0.4,5.1,0.4,7.8c0,4.6-0.3,9.4-1,15.4
			c-27.5-0.3-55.6-0.5-74.5-0.8c-0.9,0-4.2,0-9.2,0c-0.8-5-1.2-9.9-1.5-14.7c-0.2-2.5-0.4-5.1-0.6-7.6h-2.8c0.3,2.6,0.5,5.2,0.6,7.7
			c0.3,4.7,0.7,9.6,1.5,14.6c-18.6,0-56.2-0.1-98.7-0.1c0.4-7.3,0.7-14.8,0.8-22.1h-2.8c-0.1,7.4-0.5,14.8-0.8,22l1.9,0.1
			c-29.8,0-62-0.1-91.7-0.1c-0.2-3.3-0.2-6.6-0.3-9.8c0-4-0.2-8.1-0.5-12.2h-2.8C20.9-12.1,21-8,21-4c0,3.2,0.1,6.5,0.3,9.8
			c-4.5,0-8.9,0-13.2,0C8.3,2.1,8.8-1.9,9.2-5.7c0.4-3.5,0.8-7.1,1.1-10.6H7.5C7.2-12.9,6.8-9.4,6.4-5.9C5.9-2,5.5,2,5.2,5.8
			c-19.8,0-37.8,0-52.5-0.1c0-0.2,0-0.4,0-0.6L-50.1,5c0,0.2,0,0.4,0,0.6c-13.9,0-24.4,0-30.1-0.1v1.8c5.7,0,16.2,0.1,30.1,0.1
			c-0.3,6-0.6,12.6-0.6,19.1c0,3,0.1,5.9,0.2,8.8c-13.7,0-24,0-29.7,0v1.7c11.2,0,40.8,0,77.5,0c0.3,3.8,0.4,7.7,0.4,11.4
			c0.1,5.2,0.1,10.5,0.9,15.9c-37.3,0-67.5,0.1-78.8,0.1v1.7c5.5,0,15.5,0,28.7,0c0,0.5,0,1.1,0,1.6c0,9.2,1.5,18.3,2.9,27.2
			c0.5,2.9,0.9,5.9,1.4,8.9c-15.3,0-26.9-0.1-33-0.1v1.7c4.1,0,10.7,0,19.4,0c0.2,3.9,0.7,7.9,1.1,11.7c0.6,5.2,1.2,10.5,1.2,15.7
			c0,0.8,0,1.7-0.1,2.5c-9.7,0-17.2,0-21.7-0.1v1.8c7,0.1,20.9,0.1,39.6,0.1c-0.4,12.7-0.9,25.8-2.3,39.1c-17.4,0-30.6-0.1-37.3-0.1
			v1.8c8.9,0.1,29,0.1,55.3,0.2c0,0.6,0,1.1,0,1.7c0,1.9-0.1,3.8-0.1,5.7c-0.1,1.9-0.1,3.9-0.1,5.8c0,3.1,0.2,5.6,0.6,8
			c-26.4,0-46.8,0-55.7,0v1.7c5.9,0,16.9,0,31.3-0.1c0.5,5.1,1.6,10,2.7,14.8c1.1,4.9,2.3,10,2.8,15.2c-17.1,0-30.1,0-36.7,0v1.8
			c5.3,0,14.6,0,26.8,0c-0.1,1-0.3,2.1-0.3,3.2c0,4.6,1.1,9.3,2.1,13.8c0.6,2.4,1.1,4.8,1.5,7.1l2.8-0.3c-0.4-2.4-1-4.9-1.5-7.3
			c-1-4.4-2.1-8.9-2.1-13.3c0-1.1,0.1-2.2,0.3-3.2c13.6,0,30.4,0,49,0c0.8,4.1,1.4,8.2,1.9,12.2c0.5,4,1.1,8.2,1.9,12.4
			c-9.8,0-19.1,0-27.7,0c0,0,0,0,0,0l-0.2,0c-25.9,0-45.8,0-54.6,0v1.7c8.4,0,27.5,0,52.2,0c0.7,3.4,0.8,6.7,0.8,9.6l0,3.7
			c0,2.3,0,4.9,0.4,7.5c-25.3,0-44.8,0-53.3,0v1.7c13,0,50.7,0,95.8,0c-0.2,2.8-0.4,5.6-0.6,8.4c-0.4,5.3-0.8,10.8-0.8,16.2
			c0,1.4,0,2.8,0.1,4.2l2.8-0.1c-0.1-1.4-0.1-2.8-0.1-4.1c0-5.3,0.4-10.8,0.8-16.1c0.2-2.9,0.4-5.8,0.6-8.6c20.8,0,43.1,0,65.2,0
			c-0.3,4-0.4,8.3-0.4,13.7c0,2.6,0,5.2,0.1,7.8c0,2.6,0.1,5.2,0.1,7.8H86c0-2.6,0-5.2-0.1-7.8c0-2.6-0.1-5.2-0.1-7.8
			c0-5.5,0.1-9.8,0.5-13.7c27.4,0,54.4,0,77.6,0c0,1-0.1,2-0.1,3c0,2.9,0.1,5.7,0.2,8.5c0.1,2.8,0.2,5.6,0.2,8.4
			c0,3.6-0.2,6.6-0.5,9.5c-97.7-0.1-218.6-0.2-244-0.2v1.8c6.8,0.1,19.9,0.1,37.3,0.2l0,6.4c0,9.3-0.1,18.9,0.3,28.2
			c-17.6,0-30.9-0.1-37.6-0.1v1.7c9.9,0,34.4,0,66,0.1c1.1,4.1,1.3,8,1.3,11.1c0,1.9-0.1,3.9-0.1,5.8c-0.1,1.9-0.1,3.9-0.1,5.8
			c0,1.1,0,2.1,0.1,3.1c-32,0-57-0.1-67-0.1v1.8c3.9,0,10.1,0.1,18.1,0.1c0.9,3.9,1.3,7.9,1.7,11.8c0.4,4.7,0.9,9.7,2.3,14.5
			c-9.9,0-17.5,0-22.1,0v1.7c9,0,29.8,0,56.9,0.1c0.5,3,0.9,6,1.3,9c0.7,6,1.5,12.1,3.6,18.2c-29.5,0-52.3,0.1-61.8,0.1v1.7
			c11,0,39.8-0.1,76.4-0.1c-0.9,12.4-0.9,25.2-0.9,37.5h2.8c0-12.4,0-25.1,0.9-37.5c17.1,0,35.7,0,54.9-0.1c0,1.8-0.1,3.6-0.1,5.4
			c0,9.5,0.6,19.6,2,32.6C-6.8,472-63.6,472-80.3,471.9v1.7c5.7,0,16.3,0,30.2,0.1c0,0.8,0.1,1.6,0.1,2.5c0,3.4-0.2,6.9-0.4,10.2
			c-0.2,3.4-0.4,6.8-0.4,10.3c0,2.4,0.1,4.6,0.3,6.6l2.8-0.2c-0.2-2-0.3-4.1-0.3-6.4c0-3.4,0.2-6.9,0.4-10.2
			c0.2-3.4,0.4-6.9,0.4-10.4c0-0.8,0-1.6-0.1-2.5c16.9,0,38.2,0,61.9,0.1c-0.1,1.9-0.1,3.7-0.1,5.6c0,4.3,0.2,8.6,0.3,12.9
			c0.1,3.8,0.2,7.6,0.3,11.5c-45.4-0.1-82.5-0.1-95.4-0.2v1.8c4.5,0.1,11.6,0.1,20.9,0.1c0.5,3.3,1,6.7,1.5,10
			c1.3,9.6,2.6,19.6,6.6,29.1c-13.3,0-23.4-0.1-29-0.1v1.8c7.1,0.1,21.3,0.1,40,0.2c-0.2,2.4-0.4,4.8-0.4,7.4
			c0,4.1,0.3,8.6,0.9,13.7c-17.7,0-32.3,0-40.5,0v1.7c11.6,0,35.9-0.1,65.1-0.1c-0.1,3.1-0.3,6.2-0.5,9.3c-0.3,3.6-0.5,7.3-0.5,11
			c0,3.6,0.3,6.9,0.9,9.9c-29.3,0-53.5,0-65,0v1.8c47.3,0.1,314,0.2,336.4,0.3C306.9,601.6,378.8,601.7,390.3,601.8z M431.7,584.5
			c-0.5,5.2-0.9,10.3-1.4,15.8c-24.9-0.1-50.2-0.3-75.4-0.8c-0.5-5.2-1-10.1-1.5-15c-0.5-5-1-9.9-1.5-15.3l-3,0.1
			c0.5,5.4,1,10.4,1.5,15.3c0.5,4.8,1,9.6,1.5,14.8c-2.2,0-37.9-0.1-73.4-0.1c0.2-2.6,0.4-5.3,0.6-7.9c0.5-7.5,1-15.3,2.8-22.8
			c58.5-0.3,130.9-0.5,151.3-0.6C432.7,573.8,432.2,579.2,431.7,584.5z M200.9,567.4C200.9,567.4,200.9,567.4,200.9,567.4
			c-27.5,0-61.7,0.1-96.9,0.1c0.1-1.1,0.1-2.2,0.1-3.3c0-2.1-0.1-4.3-0.2-6.4c-0.1-2.1-0.2-4.2-0.2-6.3c0-1.7,0.1-3.3,0.3-4.7
			c22.6,0,44.8,0.1,65.2,0.1c-0.3,3.1-0.5,6.2-0.6,9.3c-0.1,3.5-0.2,7.1-0.7,10.7l2.8,0.3c0.5-3.6,0.6-7.3,0.7-10.9
			c0.1-3.1,0.2-6.2,0.6-9.3c23.1,0,43.8,0.1,59.6,0.1c-0.1,6.3-0.4,12.6-0.8,18.8l-0.1,1.5c-7.8,0-16.9,0-26.9,0c0,0,0,0,0,0H200.9z
			 M74.3,506c23,0.1,46.4,0.1,68.5,0.2c0.3,2.1,0.5,4.2,0.5,6.4c0,6-1.1,12.2-2.2,18.1c-0.9,4.6-1.7,9.5-2.1,14.3
			c-19,0-38.9-0.1-58.6-0.1c0-0.3,0.1-0.7,0.1-1C80.4,543.4,75.9,521.4,74.3,506z M81.3,472.1c-8.3,0-16.6,0-24.9,0l2.2-0.2
			c-1.4-12.9-2-22.9-2-32.4c0-1.8,0-3.6,0.1-5.5c22.2,0,45.1,0,67.2-0.1c0.1,3.7,0.2,7.4,0.2,11.1c0.1,8.9,0.2,18,1.4,27
			c-13.6,0-27.5,0-41.4,0c0,0,0,0,0-0.1L81.3,472.1C81.3,472.1,81.3,472.1,81.3,472.1z M12.7,399.6c0-3.9,0.3-7.9,0.5-11.7
			c0.2-3.4,0.4-7,0.5-10.5c24.3,0,50.9,0.1,77.2,0.1c0.5,3.8,0.6,7.5,0.6,11.3l0,2.5c0,4.1,0.1,8.2,0.7,12.4c-28,0-56.3,0-81.8-0.1
			l2.4-0.1C12.7,402.1,12.7,400.8,12.7,399.6z M64.8,422.1c0.5-3.6,1-7.3,1-11.1c0-2.1-0.2-3.9-0.5-5.8c23.4,0,47.4,0,70,0
			c0.5,3.6,0.8,7.5,0.8,11.9c0,3.7-0.3,8.5-0.5,12.7l-0.1,2.4c-23.2,0-47.7,0-71.6,0.1C63.9,429,64.3,425.6,64.8,422.1z M94.3,391.2
			l0-2.5c0-3.8-0.1-7.5-0.6-11.3c29.3,0.1,57.9,0.1,82.1,0.2c0,8.5,0,17.3-0.5,25.9l2.8,0.1c0.4-8.6,0.5-17.4,0.5-26
			c34.3,0.1,59.3,0.1,63.8,0.2c1.8,0,3.7,0.1,5.7,0.1c0,0,0,0,0,0.1h0.3c0.3,2.2,0.7,8.3,0.7,12c0,4.2-0.2,9.8-0.4,13.9
			c-6,0-15.2,0-27-0.1c0,0,0,0,0,0l-0.3,0c-31.2,0-79.6-0.1-128.8-0.1l2.4-0.3C94.3,399.2,94.3,395.2,94.3,391.2z M159.3,349.6
			c26.4,0,49.4,0,65.3,0c0.3,3.9,0.4,7.8,0.4,11.4l0,7.1c0,2.5,0,5,0.2,7.5c-15.4,0-39.3-0.1-67.2-0.1c0.2-2.9,0.4-5.7,0.6-8.6
			c0.4-4.8,0.8-9.7,0.8-14.6C159.4,351.4,159.4,350.5,159.3,349.6z M167,293.6c-0.1-2.8-0.2-5.6-0.2-8.4c0-1,0-2,0.1-3
			c27.8,0,49.9,0,60.5,0c0,3.8-0.1,7.5-0.3,11.3c-0.2,4.2-0.3,8.3-0.3,12.5c0,1.9,0,3.8,0.1,5.6c-18,0-38.5,0-60.2-0.1
			c0.3-2.9,0.5-5.9,0.5-9.5C167.1,299.2,167,296.4,167,293.6z M165.1,231.3c-22.3,0-48.7,0-75.8,0v-30.2c28.1,0,55.8,0,79.6-0.1
			c-1.4,4.9-1.6,9.9-1.9,14.8c-0.2,5.1-0.5,10.4-2.1,15.5L165.1,231.3z M-22.4,191.5c0-1.9,0.1-3.8,0.1-5.7c0.1-1.9,0.1-3.8,0.1-5.7
			c0-0.6,0-1.1,0-1.7c17.1,0,36.6,0.1,57.1,0.1c0,1-0.1,2-0.1,3c0,3,0.1,5.9,0.3,8.9c0.1,2.9,0.3,5.9,0.3,8.9h2.8
			c0-3.1-0.2-6.1-0.3-9c-0.1-2.9-0.3-5.8-0.3-8.8c0-1,0-2,0.1-3c23.4,0,48.1,0.1,71.8,0.1c-0.1,3.8-0.5,7.8-1,11.7
			c-0.4,3-0.8,6.1-1,9.1l2,0.1c-45.4,0-94.1,0-131.4,0.1l0.1,0C-22.2,197.2-22.4,194.7-22.4,191.5z M62,135.7
			c-26.2,0-51.6-0.1-73.8-0.1c-0.6-4.7-1.5-9.3-2.4-13.8c-1-5.3-2-10.7-2.6-16.2c23.8,0,51.8,0,80.5,0.1c-0.1,1.4-0.3,3.5-0.4,7.1
			C63,120.7,62.4,132.6,62,135.7L62,135.7z M12.4,104l1.8-0.1c-0.2-3-0.3-6.2-0.3-9.8c0-4.9,0.2-9.9,0.4-14.8
			c0.2-4.3,0.3-8.8,0.4-13.2c20.5,0,42.5,0,64.3,0c-0.2,5.5-0.3,10.6-0.3,15.3c0,7.9,0.3,15.3,0.8,22.6c-4.3,0-8.7,0-13,0
			c-0.2-0.3-0.5-0.6-1.2-0.6c-0.6-0.1-0.9,0-1.2,0.6C46.3,104.1,28.8,104,12.4,104z M153.2,66.1c0,12.3,0,25.1,1.4,38l2.8-0.2
			C156,91.1,156,78.4,156,66.1c39.3,0,68.5-0.1,71.8-0.1c9.6-0.1,21.7-0.1,34.7-0.2c-1.2,7.4-1.6,15-2,22.3
			c-0.3,5.3-0.5,10.7-1.1,16.1l0.7,0.1c-2.4,0-4.8,0-7.1,0c-10.8-0.1-91.2-0.1-170.9-0.2c-0.5-7.3-0.8-14.7-0.8-22.6
			c0-4.7,0.1-9.8,0.3-15.3C106.8,66.1,131.4,66.1,153.2,66.1z M103.1,64.4c0-7.2,0.8-14.7,1.6-22c0.2-1.7,0.4-3.5,0.5-5.2
			c48.1,0,91.6,0,110.7,0c-0.2,2.8-0.3,5.7-0.5,8.5c-0.4,6.1-0.8,12.4-0.9,18.6C192.9,64.3,149.9,64.4,103.1,64.4z M307.7,37.6
			c33.5,0.1,63.7,0.3,69.1,0.4c0.6,5.2,0.6,10.5,0.7,15.5c0,3.4,0.1,6.8,0.3,10.3c-1.5,0-3.1,0-4.6,0c-5,0-34.5,0.1-67.3,0.2
			c0.2-3.2,0.5-6.5,0.9-9.6c0.5-4.8,1-9.8,1-14.6C307.8,38.9,307.7,38.2,307.7,37.6z M352.5,65.5c-0.5,6.5-1.4,12.9-2.2,19.2
			c-0.9,6.5-1.8,13.2-2.3,19.9c-27.2-0.1-58.8-0.1-85.6-0.3c0.6-5.4,0.8-10.8,1.1-16.1c0.4-7.4,0.8-15.1,2-22.5
			C295.7,65.7,330.6,65.6,352.5,65.5z M377.7,136.9c-6.8-0.2-50.5-0.5-92.2-0.7c0.2-4.4,0.7-8.9,1.1-13.2c0.6-5.5,1.1-11.3,1.2-17
			c40.8,0.1,82.8,0.2,89,0.3c0.4,2.8,0.6,5.9,0.6,9.6c0,2,0,4-0.1,6c0,2-0.1,4-0.1,6C377.2,131.4,377.4,134.3,377.7,136.9z
			 M414.7,159.2c0.5,6.2,1,12.4,1.5,18.9c-9.8-0.1-39.9-0.2-74.4-0.4c0.6-4.5,1.2-9.1,1.8-13.6c1.1-8.4,2.2-17.1,3.6-25.6
			c24.1,0.5,46.7,0.9,67.4,1.3l-1.3,0C413.7,146.6,414.2,152.9,414.7,159.2z M525,178.1c-7.8,0-15.7,0-23.5,0.1
			c-15.6,0.1-31.2,0.1-46.8,0.1c-11.6,0-23.5,0-35.4-0.1c-0.5-6.6-1-12.8-1.5-19c-0.5-6.3-1-12.6-1.5-19.3c30,0.6,55.8,1.1,75.5,1.5
			c11.6,0.2,23.4,0.5,35.1,0.7c-1.4,8.9-2.1,18.4-2.1,28.3C524.8,173,524.9,175.6,525,178.1z M454.6,180c5.6,0,11.3,0,16.9,0
			c-0.1,1.8-0.2,3.8-0.2,6c0,2.2,0.1,4.5,0.1,6.7c0,1.9,0.1,3.7,0.1,5.6c-2.9,0-5.8,0-8.7,0c-32,0-62.6,0.2-92.6,0.7
			c-0.2-3.1-0.3-6.1-0.3-9.2c0-3.3,0.1-6.6,0.4-9.9C408,180,440.8,180,454.6,180z M548.9,200.5c0.1,1.3,0.1,2.5,0.1,3.8
			c0,5.2-0.4,10.5-0.8,15.6c-0.3,4.4-0.6,8.9-0.7,13.3c-32-0.6-63.9-0.7-95.2-0.8c-6.3,0-12.6,0-19-0.1c0.5-5.5,0.9-10.6,1.4-15.8
			c0.5-5.4,1-10.8,1.5-16.6c8.8,0,17.7-0.1,26.7-0.1C490.7,200,519.2,200.2,548.9,200.5z M457.6,282.3c-0.9,0-1.9,0-2.8,0
			c0.5-6.8,1.1-13.8,3.3-20.4l-2.9-0.3c-2.3,6.7-2.9,13.8-3.4,20.7c-2,0-4-0.1-5.9-0.1c-28.1-0.4-56.8-0.8-85.4-1.4
			c0.1-1.7,0.2-3.3,0.2-5c0.2-5.4,0.3-10.9,1.7-16.2c26.7,0.2,53.8,0.9,80,1.6c5.9,0.2,11.8,0.3,17.8,0.5c-0.3,2-0.6,4.1-1,6.1
			c-0.8,4.7-1.6,9.5-1.6,14.2C457.5,282,457.6,282.1,457.6,282.3z M364.8,312c-3-0.1-21.4-0.2-44.8-0.2v-29.4
			c23.4,0.1,41.9,0.1,44.8,0.2c-0.3,5.3-0.4,10.4-0.4,15.5C364.5,302.7,364.6,307.3,364.8,312z M297.7,280.5c0-0.3,0-0.6,0-0.8
			c0-2.9,0.4-5.9,0.8-8.9c0.4-3,0.8-6.1,0.8-9.2c0-0.7-0.1-1.5-0.1-2.2c26.5,0,48.7,0,50.1,0c3.3,0,6.7,0,10,0.1
			c-1.4,5.4-1.5,10.9-1.7,16.2c0,1.7-0.1,3.3-0.2,5C354.8,280.6,328,280.6,297.7,280.5z M317.2,282.4v29.4c-8.4,0-17.4-0.1-26.5-0.1
			c-8.5,0-31-0.1-61-0.1c-0.1-1.9-0.1-3.8-0.1-5.6c0-4.1,0.2-8.3,0.3-12.4c0.1-3.8,0.3-7.6,0.3-11.4c1.7,0,2.9,0,3.6,0
			C256.7,282.2,289.8,282.3,317.2,282.4z M390.3,258.1c-13.7-0.3-27.4-0.4-41-0.4c-1.1,0-13.8,0-31.3,0c2.8-8,3.8-16.3,4.2-24.1
			c32.7,0.1,61.2,0.2,68.1,0.2V258.1z M254.3,199.4c-4.3,0-8.4,0-12.3,0c-4.3,0-23.6,0-50.9,0c1.7-6.9,2.6-13.9,3.5-20.7
			c26.2,0.1,44.4,0.1,48,0.2c9.6,0.1,20.4,0.3,31.8,0.4c0.2,1.6,0.4,3.2,0.4,5.1c0,2.7-0.3,5.5-0.5,8.2c-0.2,2.2-0.4,4.5-0.4,6.8
			c-5.7,0-11.2,0-16.6,0c0,0,0-0.1,0-0.1L254.3,199.4C254.3,199.3,254.3,199.3,254.3,199.4z M129.9,119.1c-0.1-2.5-0.2-5.1-0.2-7.6
			c0-2.1,0.1-4,0.2-5.7c23.9,0,46.5,0,65.6,0c-0.3,2.5-0.4,5.3-0.4,8.5c0,2,0,4,0.1,6c0,2,0.1,4,0.1,6c0,2.7-0.2,6.9-0.4,8.8h-0.2
			c0,0.4,0,0.6,0,0.8c-19,0-41.5,0-65.2-0.1c0.4-2.7,0.5-5.6,0.5-9C130.1,124.2,130,121.7,129.9,119.1z M244.1,137.7
			c-1.4,7.3-1.8,14.9-2.1,22.2c-0.3,5.6-0.6,11.4-1.3,17.2c-6.3,0-23.9-0.1-48.1-0.1l-0.7-0.1l0,0.1c-10.6,0-22.4,0-35-0.1
			c0-3.5,0-7,0.1-10.4c0-3.5,0.1-6.9,0.1-10.4c0-6.1-0.1-11.7-0.5-18.4C188.4,137.6,218.8,137.7,244.1,137.7z M198.1,120.3
			c0-2-0.1-4-0.1-6c0-3.3,0.2-6,0.4-8.5c28.3,0,48.7,0,54,0.1c10.2,0,21.3,0.1,32.6,0.1c-0.1,5.7-0.6,11.3-1.2,16.8
			c-0.4,4.4-0.9,8.9-1.1,13.4c-11-0.1-21.8-0.1-31.7-0.2c-5.2,0-25.3-0.1-53.3-0.1c0.3-1.4,0.4-4.2,0.4-9.6
			C198.1,124.3,198.1,122.3,198.1,120.3z M367.3,199c-5.2,0.1-49.7,0.2-90.7,0.3c0.1-2.2,0.2-4.4,0.4-6.6c0.2-2.7,0.5-5.5,0.5-8.3
			c0-1.8-0.1-3.5-0.4-5.1c28.4,0.3,60.6,0.4,90.2,0.5c-0.2,3.3-0.4,6.6-0.4,9.9C367,192.8,367.1,195.9,367.3,199z M338.9,177.7
			c-32.5-0.2-68.6-0.4-95.4-0.7c0.7-5.7,1-11.5,1.3-17.1c0.4-7.4,0.8-14.9,2.2-22.3c35.4,0,60.4,0.1,65,0.2
			c11,0.2,21.8,0.4,32.4,0.6c-1.4,8.4-2.5,17-3.6,25.4C340.2,168.5,339.6,173.2,338.9,177.7z M191.7,178.8
			c-0.9,6.8-1.8,13.8-3.5,20.7c-22.2,0-49.3,0-77.7,0c0.2-2.9,0.6-6,1-8.9c0.5-3.9,1-8,1.1-11.9
			C141.6,178.7,169.3,178.7,191.7,178.8z M257.2,204.8c0-1.3,0-2.6-0.1-4c5.3,0,10.8-0.1,16.5-0.1c0,0.1,0,0.1,0,0.2h2.8
			c0-0.1,0-0.1,0-0.2c22.9-0.1,48.2-0.2,72-0.3c0.5,5.4,1.4,11.5,1.9,16.4c0.5,4.8,1,9.6,1.5,14.8c-2.7,0-56.1-0.1-97.4-0.2
			C256.3,222.6,257.2,213.6,257.2,204.8z M354.8,231.6c-0.5-5.2-1-10.1-1.5-15c-0.5-4.9-1.4-11-1.9-16.3c36.7-0.1,69.1-0.2,81.7-0.3
			c-0.5,5.7-1,11.1-1.5,16.5c-0.5,5.2-0.9,10.3-1.4,15.8C405.3,232.2,380.1,232,354.8,231.6z M303.9,54c-0.3,3.3-0.7,6.6-0.9,9.9
			c-13,0-26.5,0.1-39.1,0.2l-1.1-0.1c0,0,0,0.1,0,0.1c-5,0-9.9,0-14.5,0.1c0.5-4.6,1.3-9.3,2-13.9c0.7-4.2,1.4-8.6,1.9-12.9
			c16.2,0.1,34.8,0.1,52.7,0.2c0,0.7,0.1,1.4,0.1,2.1C304.9,44.4,304.4,49.3,303.9,54z M247.5,49.9c-0.8,4.7-1.6,9.5-2.1,14.2
			c-6,0-11.6,0.1-16.6,0.1c-1.2,0-5.2,0-11.5,0c0-6.1,0.4-12.4,0.9-18.4c0.2-2.9,0.4-5.8,0.5-8.7c3.9,0,6.4,0,7.2,0
			c6.7,0,14.7,0.1,23.4,0.1C248.9,41.5,248.2,45.8,247.5,49.9z M101.9,42.2c-0.8,7.3-1.6,14.9-1.6,22.2c-33.3,0-68.3,0-98.8,0.1
			c-0.7-5.4-0.8-10.7-0.9-16c0-3.7-0.1-7.5-0.4-11.4c31.5,0,68,0,102.3,0C102.2,38.8,102,40.5,101.9,42.2z M66.2,112.9
			c0.1-3,0.3-5.8,0.4-7.2c20.2,0,40.8,0,60.5,0c-0.1,1.8-0.2,3.6-0.2,5.7c0,2.6,0.1,5.1,0.2,7.7c0.1,2.5,0.2,5.1,0.2,7.6
			c0,3.4-0.2,6.3-0.5,8.9l0.8,0.1c-20.4,0-41.7,0-62.7-0.1C65.2,132.2,65.8,121.1,66.2,112.9z M81.8,156.9
			c0.3-6.5,0.7-12.9,0.9-19.3c23.5,0,47.7,0,71,0c0.4,6.7,0.5,12.3,0.5,18.4c0,3.4,0,6.9-0.1,10.4c0,3.5-0.1,6.9-0.1,10.4
			c-22.8,0-48-0.1-73.3-0.1C81.1,170.2,81.4,163.5,81.8,156.9z M169.9,215.9c0.2-4.9,0.5-10,1.9-14.9c36.7,0,63.6-0.1,67.8-0.1
			c4.6,0,9.5-0.1,14.7-0.1c0,1.3,0.1,2.6,0.1,3.9c0,8.9-1,17.8-2.9,26.6c-8.9,0-17.2,0-24.2,0c-3.1,0-26.6,0-59.5,0
			C169.4,226.2,169.7,221,169.9,215.9z M240.6,245.4c0.3-4,0.7-8,0.9-12.1c22.2,0.1,51.2,0.2,77.9,0.3c-0.5,7.9-1.4,16.1-4.3,24.1
			c-22.9,0-52.7,0-75.4,0C239.9,253.5,240.3,249.5,240.6,245.4z M296.4,259.4c0.1,0.7,0.1,1.5,0.1,2.2c0,2.9-0.4,6-0.8,8.9
			c-0.4,3-0.8,6.1-0.8,9.1c0,0.3,0,0.6,0,0.8c-21.4,0-44.2-0.1-61.3-0.1c-2.3,0-11.1,0-24.5,0c0.1-0.6,1-11.2,2.5-20.9
			c10.4,0,17.2,0,19,0C248.6,259.4,273.8,259.4,296.4,259.4z M252.1,314.1c0.9,4.1,1.4,8.5,1.4,13.9c0,3.6-0.2,7.2-0.4,10.7
			c-0.2,3.1-0.3,6.4-0.3,9.6c-2.4,0-4.7,0-6.9-0.1c-2.3,0-8.8,0-18.4-0.1c0-0.1,0-0.1,0-0.2l-2.8,0.2c-9.7,0-22.1,0-36.5-0.1
			c-0.9-12-1.8-22.9-3.1-34.2C210.5,314,233.7,314,252.1,314.1z M295,349.9c33.4,0.1,64.2,0.2,67.8,0.3c0,8.9,0.5,17.3,0.9,26.3
			c-3.9-0.2-36.1-0.3-70.5-0.5c1.1-5.7,2.2-12.2,2.2-18.9C295.5,354.5,295.3,352.2,295,349.9z M377.7,505
			c-4.8-0.2-27.8-0.3-55.5-0.5c0-0.9-0.1-1.8-0.1-2.7c0-5.3,0.6-10.9,1.1-16.3c0.4-3.7,0.8-7.6,1-11.3c26.6,0.1,48.3,0.1,52.7,0.2
			c0.4,2.8,0.6,5.9,0.6,9.6c0,2,0,4-0.1,6c0,2-0.1,4-0.1,6C377.2,499.4,377.4,502.3,377.7,505z M525,546.2c-7.8,0-15.7,0-23.5,0.1
			c-15.6,0.1-31.2,0.1-46.8,0.1c-11.6,0-23.5,0-35.4-0.1c-0.5-6.6-1-12.8-1.5-19c-0.5-6.1-1-12.2-1.5-18.7c32.5,0.3,60.2,0.7,75.5,1
			c11.6,0.2,23.4,0.5,35.1,0.7c-1.4,8.9-2.1,18.4-2.1,28.3C524.8,541,524.9,543.6,525,546.2z M454.6,548.1c5.6,0,11.3,0,16.9,0
			c-0.1,1.8-0.2,3.8-0.2,6c0,2.2,0.1,4.5,0.1,6.7c0,1.9,0.1,3.7,0.1,5.6c-2.9,0-5.8,0-8.7,0c-32,0-62.6,0.2-92.6,0.7
			c-0.2-3.1-0.3-6.1-0.3-9.2c0-3.3,0.1-6.6,0.4-9.9C408,548,440.8,548.1,454.6,548.1z M272,545.3c0.6-4.1,1.4-8.3,2.1-12.3
			c1.6-8.5,3.2-17.3,3.3-26.1c22.5,0.3,47.4,0.6,72.4,0.9c0,0.6,0,1.2,0,1.8c0,9.5-1.4,18.8-2.9,28.6c-0.4,2.4-0.7,4.8-1.1,7.3
			l2.8,0.3c0.3-2.4,0.7-4.8,1.1-7.3c1.4-9.4,2.9-19.2,2.9-28.9c0-0.6,0-1.2,0-1.8c20.8,0.2,41.5,0.4,60.6,0.7
			c0.5,6.5,1,12.7,1.5,18.8c0.5,6.2,1,12.4,1.5,18.9C399.9,546,327.9,545.8,272,545.3z M367.3,567c-3.7,0.1-27,0.1-54.8,0.2
			c0.2-2.2,0.6-4.5,1-6.9c0.6-3.1,1.2-6.4,1.2-9.6c0-1.1-0.2-2.1-0.3-3.1c17.7,0.1,35.8,0.2,52.9,0.3c-0.2,3.3-0.4,6.6-0.4,9.9
			C367,560.9,367.1,564,367.3,567z M236.7,504c-18.4,0-45.2-0.1-75.6-0.1c-0.4-2.9-0.5-6-0.5-9.6c0-3.5,0.2-7.1,0.3-10.6
			c0.1-3.3,0.3-6.6,0.3-9.9c32.5,0,60.7,0,78.9,0.1c-0.4,3.5-0.9,7-1.5,10.4c-0.9,5.3-1.9,10.8-1.9,16.3
			C236.6,501.7,236.6,502.9,236.7,504z M196.6,545.1c-16.6,0-35.1-0.1-54.7-0.1c0.4-4.7,1.2-9.4,2-13.9c1.1-6,2.3-12.3,2.3-18.5
			c0-2.3-0.2-4.4-0.5-6.4c18.5,0.1,36,0.1,51.5,0.2c-0.1,0.9-0.1,2-0.1,3.5c0,4.6-0.2,9.3-0.4,13.8c-0.2,4.5-0.4,9.2-0.4,13.9
			C196.4,540.2,196.4,542.7,196.6,545.1z M221.8,405.3c16.8,0,28.5,0,32.5,0c16.6,0.1,35.4,0.1,53.3,0.2c0,0.8-0.1,1.7-0.1,2.5
			c0,2.3,0.1,4.6,0.1,7c0.1,2.3,0.1,4.7,0.1,7c0,3.3-0.1,6.9-0.4,9.9c-16.9,0.1-34.8,0.1-50.8,0.2c-4.6,0-18.6,0-38.3,0.1
			c0-0.9-0.1-2-0.1-2.5c0-3.6,1-7.3,1.9-10.8c1-3.6,1.9-7.4,1.9-11.2C222,406.9,221.9,406.1,221.8,405.3z M279.8,433.8
			c0,12.6,0,25.6-1.8,38.7c-6.6,0-13-0.1-19.1-0.1c-5.4,0-24.8-0.1-51.8-0.1c0.1-2.1,0.1-4.2,0.2-6.3c0.3-10.8,0.7-21.9,2.4-32
			c24.2,0,41.4-0.1,46.6-0.1C263.8,433.8,271.7,433.8,279.8,433.8z M217.3,418.4c-1,3.7-2,7.4-2,11.3c0,0.5,0,1.6,0.1,2.5
			c-21,0-48,0.1-77.2,0.1l0.1-2.3c0.2-4.3,0.5-9.1,0.5-12.9c0-4.4-0.3-8.3-0.8-11.9c31.1,0,59.6,0,80.8,0.1c0.1,0.8,0.2,1.5,0.2,2.3
			C219.2,411.3,218.3,414.7,217.3,418.4z M206.8,434c-1.7,10.2-2.1,21.2-2.4,32c-0.1,2.1-0.1,4.2-0.2,6.3c-21.7,0-48-0.1-75.9-0.1
			c-1.3-9-1.4-18.2-1.4-27.1c0-3.7-0.1-7.4-0.2-11.1C156.4,434,184.4,434,206.8,434z M241.3,484.6c0.6-3.5,1.2-7.1,1.6-10.7
			c8.1,0,13.9,0,16.6,0c19.7,0.1,42,0.1,61.8,0.2c-0.2,3.7-0.6,7.5-0.9,11.1c-0.6,5.4-1.1,11-1.1,16.5c0,0.9,0,1.8,0.1,2.7
			c-18.9-0.1-39.8-0.2-58.4-0.4c-3.3,0-10.8,0-21.3-0.1c-0.1-1.2-0.2-2.3-0.2-3.5C239.4,495.3,240.4,489.9,241.3,484.6z
			 M359.8,455.8c-0.6,4.7-1.2,9.6-1.2,14.4c0,0.8,0,1.6,0.1,2.5c-23.6,0-51.9-0.1-77.9-0.2c1.8-13.1,1.8-26.1,1.8-38.7
			c29.6-0.1,60.5-0.2,77.6-0.2c0.5,2.5,0.7,5.1,0.7,8C361,446.2,360.4,451.1,359.8,455.8z M310.3,431.9c0.4-3,0.4-6.6,0.4-9.9
			c0-2.3-0.1-4.7-0.1-7c-0.1-2.3-0.1-4.6-0.1-6.9c0-0.8,0-1.7,0.1-2.5c32.4,0.1,61,0.3,66.3,0.4c0.6,5.2,0.6,10.5,0.7,15.5
			c0,3.4,0.1,6.8,0.3,10.3c-1.5,0-3.1,0-4.6,0C368.4,431.8,341.4,431.8,310.3,431.9z M341.4,388.8c-0.5,4.3-1.1,10.1-1.1,15.6
			c-3.7,0-7.5-0.1-11.3-0.1c0.3-2.7,0.9-5.5,1.5-8.2c0.9-4,1.8-8.1,1.8-12.3c0-1.8-0.2-3.4-0.6-5c3.4,0,6.7,0.1,10,0.1
			c0,0.5,0,1,0,1.5c0,1,0.1,2,0.1,3.1C341.8,384.5,341.6,386.4,341.4,388.8z M328.8,378.8c0.4,1.6,0.6,3.2,0.6,5
			c0,3.9-0.9,7.9-1.7,11.8c-0.6,2.8-1.2,5.7-1.5,8.6c-5.2,0-10.4-0.1-15.7-0.1c0-0.1,0-0.2,0-0.2l-2.8-0.1c0,0.1,0,0.2,0,0.3
			c-18.4-0.1-36.8-0.2-52.9-0.3c-0.8,0-1.9,0-3.2,0c0.2-4,0.4-9.6,0.4-13.9c0-6.5-0.3-10-0.7-12
			C274.2,378.3,302.4,378.6,328.8,378.8z M290.4,375.9c-13.8-0.1-27.9-0.2-40.4-0.2c-0.1,0-0.2,0-0.4,0c-0.1,0-0.2,0-0.4,0
			c-2.3,0-4.6,0-6.8,0c-2,0-7,0-14.5,0c-0.1-2.5-0.2-5-0.2-7.5l0-7.1c0-3.6-0.1-7.4-0.4-11.4c9.6,0,16.2,0,18.7,0
			c14,0.1,30.2,0.1,46,0.2c0.3,2.3,0.5,4.6,0.5,7.1C292.7,363.7,291.6,370.2,290.4,375.9z M158.3,473.8c0,3.2-0.1,6.5-0.3,9.8
			c-0.2,3.5-0.3,7.1-0.3,10.7c0,3.6,0.2,6.7,0.5,9.6c-22.5,0-46.8-0.1-71.1-0.1c-1.3-9.6-2.7-20.4-2.9-30
			C109.5,473.8,135,473.8,158.3,473.8z M101.1,546.8c-0.1,1.5-0.2,3-0.2,4.7c0,2.1,0.1,4.3,0.2,6.4c0.1,2.1,0.2,4.2,0.2,6.3
			c0,1.1,0,2.1-0.1,3.2l2.8,0.1l0,0l0,0l0,0c-26.1,0-52.7,0-77.4,0c0.5-3.6,1.3-7.2,2-10.6c0.7-3.3,1.5-6.8,2-10.2
			C53.2,546.7,77.3,546.7,101.1,546.8z M199.4,545.1c-0.1-2.4-0.2-4.8-0.2-7.6c0-4.6,0.2-9.3,0.4-13.8c0.2-4.5,0.4-9.2,0.4-13.9
			c0-1.9,0-2.9,0.1-3.5c32.3,0.1,55.9,0.2,61.7,0.3c4.1,0.1,8.4,0.1,12.7,0.2c-0.1,8.7-1.7,17.4-3.3,25.8c-0.8,4.2-1.6,8.4-2.2,12.7
			c-2,0-3.9,0-5.8,0C256.7,545.2,232.4,545.1,199.4,545.1z M233.6,566c0.4-6.2,0.8-12.6,0.8-18.9c14.5,0,24.7,0.1,28.4,0.1
			c15,0.2,31.7,0.3,48.8,0.4c0.2,1,0.3,2,0.3,3.1c0,3-0.6,6.2-1.2,9.2c-0.4,2.4-0.9,4.9-1.1,7.3c-8.9,0-18.2,0-27.5,0.1
			c0,0,0,0,0-0.1l-2.8-0.5c-0.1,0.2-0.1,0.4-0.1,0.6c-6.9,0-13.7,0-20.2,0.1c-3.7,0-12.7,0-25.5,0L233.6,566z M548.2,588
			c-0.3,4.4-0.6,8.9-0.7,13.3c-32-0.6-63.9-0.7-95.2-0.8c-6.3,0-12.6,0-19-0.1c0.5-5.5,0.9-10.6,1.4-15.8c0.5-5.4,1-10.8,1.5-16.6
			c8.8,0,17.7-0.1,26.7-0.1c27.8,0,56.3,0.2,86,0.6c0.1,1.3,0.1,2.5,0.1,3.8C549,577.6,548.6,582.9,548.2,588z M548.1,547.8
			c7.4,0,14.5,0,21.2,0c0,6.3,0,12.9-0.5,19.2c-32.8-0.5-64-0.8-94.4-0.8c0-1.9,0-3.7-0.1-5.6c-0.1-2.2-0.1-4.4-0.1-6.7
			c0-2.2,0.1-4.2,0.2-6c9,0,17.9,0,26.9-0.1C517,547.9,532.6,547.8,548.1,547.8z M468,474.2c19.4-0.1,39.6-0.3,59.3-0.3
			c16.3,0,31.1,0.1,45,0.3c0,8.2-0.4,16.4-0.9,24.3c-0.2,3.6-0.4,7.3-0.5,11c-26.6-0.7-53.1-1.2-79.1-1.8
			c-5.6-0.1-11.2-0.2-16.8-0.3c-0.1-3.1-0.2-6.5-0.2-10.3c0-3.8,0.1-7.7,0.1-11.5c0.1-3.8,0.1-7.6,0.1-11.4h-3
			c0,3.8-0.1,7.5-0.1,11.3c-0.1,3.8-0.1,7.7-0.1,11.5c0,3.8,0.1,7.2,0.2,10.2c-30.2-0.6-60.8-1.3-91.3-2.3c-0.3-2.7-0.5-5.6-0.5-9.1
			c0-2,0-4,0.1-6c0-2,0.1-4,0.1-6c0-3.7-0.2-6.8-0.5-9.6c10.2,0.1,19.8,0.1,28.8,0.1C428.4,474.5,448.5,474.3,468,474.2z
			 M441.4,471.1l0.2,1.5c-11,0.1-22,0.1-32.9,0.1c-6,0-24.1,0-47.1,0c0-0.8-0.1-1.6-0.1-2.5c0-4.7,0.6-9.5,1.2-14.2
			c0.6-4.7,1.2-9.7,1.2-14.5c0-2.9-0.3-5.5-0.7-8c5.1,0,8.6,0,10,0c21.7,0,43.8,1.1,66.5,2.7l-2.1,0.1
			C438.6,448,440,459.2,441.4,471.1z M380.8,431.8c-0.2-3.5-0.2-6.9-0.3-10.3c-0.1-5-0.1-10.2-0.7-15.4c33.2,0.9,66.3,2.2,99.2,3.5
			c0.2,4,0.6,8,0.9,11.9c0.5,5.3,0.9,10.8,1,16.2C446.2,434.8,413.1,432.2,380.8,431.8z M511,411c20.6,0.9,41,1.9,61.3,2.8
			c5.1,0.2,10.1,0.5,15.2,0.7h-2.2c0,6.8,0.5,13.9,0.9,20.7c0.2,3.1,0.4,6.1,0.5,9.1c-34.2-0.7-68.9-3.6-102.7-6.4c0,0-0.1,0-0.1,0
			c-0.1-5.6-0.6-11.2-1-16.6c-0.3-3.8-0.7-7.7-0.9-11.6c8.7,0.4,17.3,0.7,25.9,1.1c0,0.1,0,0.1,0,0.2L511,411
			C511,411,511,411,511,411z M444.2,380.8c0,0.1,0,0.2,0,0.3l3,0.1c0-0.1,0-0.2,0-0.3c21.2,0.5,42.3,1,63.3,1.4
			c-0.2,4.1-0.7,8.2-1.2,12.2c-0.6,4.8-1.1,9.7-1.3,14.6c-32.8-1.5-65.9-2.8-99.1-3.9c1.3-8.3,2.7-16.8,3.6-25.3
			C423.1,380.3,433.7,380.6,444.2,380.8z M409.6,379.9c-0.9,8.4-2.3,17-3.6,25.3c-8-0.3-33-0.5-62.8-0.7c0-5.4,0.6-11.2,1.1-15.4
			c0.3-2.5,0.5-4.4,0.5-5.5c0-1,0-2.1-0.1-3.1c0-0.5,0-0.9,0-1.4C375.2,379.3,401.1,379.6,409.6,379.9z M397.7,349.2
			c-13.5-0.2-89.6-0.6-142.1-0.9c0-3.2,0.2-6.4,0.3-9.5c0.2-3.5,0.4-7.2,0.4-10.8c0-5.3-0.4-9.8-1.3-13.9
			c17.6,0.1,30.4,0.1,36.2,0.2c13.4,0.1,27.5,0.3,41.6,0.4c0,1.1-0.1,2.2-0.1,3.3c0,4.2,0.2,8.3,0.3,12.5c0.2,4.1,0.3,8.3,0.3,12.4
			c0,1.8,0,3.6-0.1,5.4l2.8,0.1c0.1-1.8,0.1-3.7,0.1-5.5c0-4.2-0.2-8.3-0.3-12.5c-0.2-4.1-0.3-8.3-0.3-12.4c0-1.1,0-2.2,0.1-3.3
			c21.4,0.2,42.8,0.4,62.2,0.6c-0.4,4.6-0.6,9.4-0.6,14.9C397.2,336.7,397.4,343,397.7,349.2z M367.8,312.1c-0.2-4.7-0.3-9.4-0.3-14
			c0-5.1,0.1-10.2,0.4-15.5c20.4,0.4,40.7,0.7,60.9,1v30C408.5,313.1,388.1,312.6,367.8,312.1z M476.1,316.5c0,11-0.5,22.2-1.4,33.3
			c-4.5,0-9.1,0.1-13.6,0.1c-20,0-40.2-0.2-60.4-0.6c-0.3-6.2-0.5-12.6-0.5-19c0-5.5,0.2-10.3,0.6-14.9c28.9,0.3,52.9,0.6,65.3,0.9
			c4.2,0.1,8.5,0.2,12.8,0.3H476.1z M460.6,284.3c0-0.1,0-0.1,0-0.2c17.2,0.2,34.5,0.5,51.9,0.8c-0.5,5.2-0.9,10.5-1.2,15.8
			c-0.3,5-0.7,9.9-1.2,14.8c-14.7-0.3-29.4-0.7-43.9-1c-11.4-0.3-22.9-0.5-34.5-0.8v-30c4.7,0.1,9.4,0.1,14.1,0.2
			c2,0,3.9,0.1,5.9,0.1c0,0,0,0,0,0l3,0.1c0,0,0,0,0-0.1c1,0,2,0,3,0c0,0.1,0,0.2,0,0.3L460.6,284.3z M576.8,235.6
			c-0.4,3.3-0.6,6.7-0.8,9.9c-0.3,4.9-0.7,10-1.5,14.9c-12.3,0.3-25.2,0.5-38.9,0.5c-16.4,0-33-0.2-49.4-0.6
			c0.4-5.5,1.6-11.2,2.7-16.7c0.6-3,1.2-6,1.7-8.9l-3-0.2c-0.5,2.9-1.1,5.9-1.7,8.9c-1.1,5.5-2.2,11.3-2.7,16.9
			c-13.7-0.3-27.3-0.6-40.7-1c-16.2-0.4-32.7-0.9-49.2-1.2v-24.3c19.8,0.2,39.5,0.3,59,0.3c31.3,0.1,63.2,0.3,95.2,0.8
			c0,0.2,0,0.4,0,0.6h3c0-0.2,0-0.4,0-0.5C559.2,235.2,568,235.4,576.8,235.6z M548.1,179.8c7.4,0,14.5,0,21.2,0
			c0,6.3,0,12.9-0.5,19.2c-32.8-0.5-64-0.8-94.4-0.8c0-1.9,0-3.7-0.1-5.6c-0.1-2.2-0.1-4.4-0.1-6.7c0-2.2,0.1-4.2,0.2-6
			c9,0,17.9,0,26.9-0.1C517,179.9,532.6,179.8,548.1,179.8z M468,106.1c19.4-0.1,39.6-0.3,59.3-0.3c16.3,0,31.1,0.1,45,0.3
			c0,8.2-0.4,16.4-0.9,24.3c-0.2,3.6-0.4,7.3-0.5,11c-26.6-0.7-53.1-1.2-79.1-1.8c-5.6-0.1-11.2-0.2-16.8-0.3
			c-0.1-3.1-0.2-6.5-0.2-10.3c0-3.8,0.1-7.7,0.1-11.5c0.1-3.8,0.1-7.6,0.1-11.4h-3c0,3.8-0.1,7.5-0.1,11.3
			c-0.1,3.8-0.1,7.7-0.1,11.5c0,3.8,0.1,7.2,0.2,10.2c-30.2-0.6-60.8-1.3-91.3-2.3c-0.3-2.7-0.5-5.6-0.5-9.1c0-2,0-4,0.1-6
			c0-2,0.1-4,0.1-6c0-3.7-0.2-6.8-0.5-9.6c10.2,0.1,19.8,0.1,28.8,0.1C428.4,106.4,448.5,106.3,468,106.1z M441.4,103.1l0.2,1.5
			c-11,0.1-22,0.1-32.9,0.1c-7,0-29.8,0-57.8-0.1c0.5-6.6,1.4-13.2,2.3-19.6c0.9-6.3,1.7-12.9,2.2-19.5c9.3,0,15.8,0,17.9,0
			c21.7,0,43.8,1.1,66.5,2.7l-2.1,0.1C438.6,80,440,91.2,441.4,103.1z M508,42.8c0,0.1,0,0.1,0,0.2h3c0,0,0,0,0,0
			c20.6,0.9,41,1.9,61.3,2.8c5.1,0.2,10.1,0.5,15.2,0.7h-2.2c0,6.8,0.5,13.9,0.9,20.7c0.2,3.1,0.4,6.1,0.5,9.1
			c-34.2-0.7-68.9-3.6-102.7-6.4c0,0-0.1,0-0.1,0c-0.1-5.6-0.6-11.2-1-16.6c-0.3-3.8-0.7-7.7-0.9-11.6
			C490.8,42.1,499.4,42.5,508,42.8z M479.1,41.6c0.2,4,0.6,8,0.9,11.9c0.5,5.3,0.9,10.8,1,16.2c-34.9-2.9-68-5.5-100.3-5.9
			c-0.2-3.5-0.2-6.9-0.3-10.3c-0.1-5-0.1-10.2-0.7-15.4C413,39,446.2,40.2,479.1,41.6z M327.8,9.4c37.7,0.5,71.8,0.9,81.9,1.3
			c-0.9,8.8-2.4,17.7-3.8,26.3c-9.4-0.3-42-0.6-78.4-0.8c0.1-1.5,0.1-3.5,0.1-4.9c0-2.3-0.1-4.6-0.1-7c-0.1-2.3-0.1-4.6-0.1-6.9
			C327.4,14.5,327.5,11.9,327.8,9.4z M237.7,8.2C261.4,8.6,294.2,9,325,9.4c-0.3,2.5-0.4,5.1-0.4,8.1c0,2.3,0.1,4.6,0.1,6.9
			c0.1,2.3,0.1,4.6,0.1,6.9c0,1.4,0,3.4-0.1,4.9c-25.4-0.2-52.4-0.3-74.4-0.5l-0.8-0.1c0,0,0,0,0,0c-4.7,0-9.1-0.1-13.2-0.1
			C236.3,26.5,236.8,17.3,237.7,8.2z M145.2,7.8c44.6,0.1,78.6,0.1,81.7,0.2c2.5,0.1,5.2,0.1,7.9,0.2c-0.9,9.1-1.3,18.4-1.3,27.5
			c-2.6,0-5.2,0-7.6-0.1c-3,0-38.3,0-84.1-0.1c0.3-3.2,0.9-6.5,1.5-9.7c0.9-5,1.9-10.2,1.9-15.5C145.3,9.5,145.2,8.6,145.2,7.8z
			 M47.3,7.6c32.2,0,65.7,0.1,95,0.1c0.1,0.9,0.1,1.7,0.1,2.6c0,5.1-0.9,10.2-1.9,15.1c-0.6,3.3-1.2,6.7-1.6,10
			c-10.8,0-22.2,0-33.9,0l-2.6-0.2c0,0.1,0,0.1,0,0.2c-18.2,0-36.9,0-55.3,0V7.6z M-1.8,35.4c-17.9,0-34.1,0-47.4,0l1.5,0
			c-0.1-2.9-0.2-5.8-0.2-8.8c0-6.5,0.3-13,0.6-19.1c24,0,57,0.1,91.8,0.1v27.8c-15.4,0-30.4,0-44.4,0c0,0,0-0.1,0-0.1L-1.8,35.4z
			 M-48.7,67.9c0-0.5,0-1.1,0-1.6c16.5,0,37.5,0,60.5,0c0,4.4-0.2,8.8-0.4,13.1c-0.2,4.9-0.4,9.9-0.4,14.9c0,3.6,0.1,6.8,0.3,9.9
			c-9.9,0-19.4,0-28.3,0c0,0,0-0.1,0-0.1l-1.4,0.1c-9.9,0-19,0-27.2,0l1.1-0.1c-0.4-3-0.9-6.1-1.4-9.1
			C-47.3,85.5-48.7,76.9-48.7,67.9z M-55.7,135.6c0-0.8,0.1-1.7,0.1-2.5c0-5.3-0.6-10.7-1.3-16c-0.4-3.8-0.9-7.7-1.1-11.5
			c10.5,0,23.6,0,38.4,0c0.6,5.6,1.6,11.2,2.6,16.6c0.8,4.4,1.7,8.9,2.3,13.4C-30.5,135.6-44.5,135.6-55.7,135.6z M-40.1,176.6
			c1.4-13.3,1.9-26.4,2.3-39.1c14.7,0,32.2,0,51.3,0.1c-0.6,3-0.8,5.7-0.8,8.9c0,5.5,0.6,11.1,1.3,16.5c0.5,4.4,1,9.1,1.2,13.5
			l2.8-0.1c-0.2-4.5-0.7-9.2-1.2-13.7c-0.6-5.4-1.3-10.9-1.3-16.3c0-3.3,0.3-5.9,0.8-8.9c19.8,0,41.4,0,63.5,0.1
			c-0.2,6.4-0.6,12.8-0.9,19.2c-0.4,6.7-0.7,13.4-0.9,20c-35.7,0-71.4-0.1-100.2-0.1c0,0,0-0.1,0-0.1l-1.8,0.1
			C-29.7,176.6-35.1,176.6-40.1,176.6z M-40.7,231.3c-0.5-5.4-1.7-10.6-2.8-15.7c-1.1-4.7-2.1-9.5-2.6-14.4c16.8,0,37.8,0,60.8-0.1
			v30h2.8v-30c22,0,45.6,0,69-0.1v30.2C40.5,231.3-7.2,231.3-40.7,231.3z M1.2,233.1c24.1,0,51,0,77.6,0c-0.3,2.5-0.6,5-0.9,7.5
			c-0.7,5.5-1.5,11.2-1.8,16.9l2.8,0.1c0.3-5.6,1.1-11.2,1.8-16.7c0.3-2.6,0.7-5.2,1-7.7c25.6,0,50.8,0,72.9,0l0,0.2
			c0.5,8,0.9,16.4,1.8,24.3l2.8-0.2c-0.9-7.9-1.4-16.2-1.8-24.2l0,0c38.9,0,67.7,0,70.9,0.1c3.2,0,6.6,0,10.2,0.1
			c-0.2,4.1-0.5,8-0.9,12c-0.3,4.1-0.7,8.2-0.9,12.4c-1.9,0-3.9,0-5.7,0c-9,0-135.8,0-226.1,0c-0.8-4.3-1.4-8.5-2-12.7
			C2.6,241.1,2,237.1,1.2,233.1z M45,272.7c-0.2,1.4-0.3,2.4-0.3,2.7c0,0.9,0.1,1.9,0.1,2.8c0,0.7,0.1,1.4,0.1,2.1
			c-25.7,0-50.4,0-71.2,0l2.2-0.2c-0.3-2.6-0.4-5-0.4-7.3l0-3.7c0-2.9-0.1-6.2-0.7-9.6c21,0,45.7,0,71.5,0
			C46.2,264.4,45.5,269.7,45,272.7z M131,280.3c-14.4,0-29.5,0-44.7,0l-2.6-0.2c0,0.1,0,0.1,0,0.2c-12,0-24.1,0-35.9,0
			c0-0.7,0-1.4-0.1-2.2c0-0.9-0.1-1.8-0.1-2.7c0-0.3,0.1-1.2,0.3-2.4c0.4-3.1,1.2-8.5,1.3-13.6c27.1,0,55.1,0,80.9,0
			c0.1,1.7,0.2,3.3,0.4,5c0.3,4.1,0.7,8.3,0.7,12.4C131.1,278.1,131,279.2,131,280.3z M133.8,280.3c0.1-1.1,0.1-2.3,0.1-3.4
			c0-4.2-0.3-8.5-0.7-12.6c-0.1-1.6-0.3-3.3-0.4-4.9c30.8,0,58,0,76,0c-1.5,9.9-2.5,20.7-2.5,20.8l1.4,0.1
			C189.5,280.4,163.2,280.4,133.8,280.3z M106.7,313.7c25.8,0.1,51.6,0.1,75.4,0.2c1.3,11.3,2.2,22.3,3.1,34.2
			c-22.9,0-50.4-0.1-78.8-0.1c0.1-1,0.1-2.6,0.1-5.1c0-2.9-0.1-5.9-0.1-8.8c-0.1-2.9-0.1-5.8-0.1-8.8
			C106.2,320.8,106.4,317.1,106.7,313.7z M105,349.6c0.3,0,0.5,0,0.7-0.1c17.6,0,34.8,0,50.9,0c0,0.9,0.1,1.8,0.1,2.7
			c0,4.8-0.4,9.7-0.8,14.4c-0.3,2.9-0.5,5.8-0.7,8.8c-51.7,0-116.3-0.1-165.5-0.1c-0.1-1-0.1-2.1-0.1-3.1c0-1.9,0.1-3.8,0.1-5.8
			c0.1-1.9,0.1-3.9,0.1-5.8c0-3.1-0.2-7-1.2-11.1c24.5,0,53,0,82,0c1.5,6,1.7,12.2,1.7,18.3c0,2.5,0.1,5,0.2,7.5l2.8-0.1
			c-0.1-2.5-0.2-4.9-0.2-7.4c-0.1-6-0.2-12.2-1.7-18.2C84,349.6,94.5,349.6,105,349.6L105,349.6z M31.6,313.5
			c23,0.1,47.6,0.1,72.3,0.2c-0.4,3.4-0.5,7.2-0.5,11.6c0,2.9,0.1,5.9,0.1,8.8c0.1,2.9,0.1,5.8,0.1,8.8c0,1.5,0,3.3,0,4.4h-0.1
			l0,0.7c-23.4,0-47.3,0-70-0.1c-0.2-4.4-0.6-8.8-1-13.1c-0.5-5.6-1.1-11.3-1.1-17C31.5,316.4,31.5,314.9,31.6,313.5z M-41.2,347.8
			l1.4,0c-0.4-9.2-0.3-18.8-0.3-28.1l0-6.4c19.1,0.1,42.9,0.1,68.9,0.2c-0.1,1.4-0.2,2.9-0.2,4.3c0,5.8,0.6,11.6,1.1,17.2
			c0.4,4.2,0.8,8.6,1,12.9c-15,0-29.3,0-42.5-0.1c0,0,0-0.1,0-0.1l-0.5,0.1C-22.8,347.8-32.5,347.8-41.2,347.8z M-20.8,403.3
			l-1.4,0.2c-13,0-24.7,0-34.2,0l1.1-0.3c-1.5-4.8-1.9-9.7-2.3-14.5c-0.3-3.8-0.8-7.7-1.6-11.6c17.4,0.1,42.1,0.1,70.2,0.2
			c0,3.5-0.3,7-0.5,10.4c-0.3,3.9-0.5,7.9-0.5,11.9c0,1.3,0,2.6,0.1,4c-10.8,0-21.1,0-30.7,0C-20.8,403.4-20.8,403.4-20.8,403.3z
			 M-17.8,432.4l2-0.5c-2.1-5.9-2.8-12.1-3.5-18c-0.3-2.9-0.7-5.8-1.2-8.8c24.2,0,53.1,0,83,0c0.3,1.8,0.5,3.7,0.5,5.8
			c0,3.6-0.5,7.3-1,10.8c-0.5,3.5-1,7-1,10.6C32.7,432.4,5.5,432.4-17.8,432.4z M17.5,473.7c20.2,0,42,0,63.9,0
			c0.2,9.7,1.6,20.4,2.9,30c-22.7,0-45.3-0.1-66.3-0.1c0-3.8-0.1-7.7-0.3-11.5c-0.2-4.3-0.3-8.6-0.3-12.9
			C17.4,477.5,17.4,475.6,17.5,473.7z M7.6,505.8c20,0.1,41.7,0.1,63.9,0.2c1.5,15.5,6.1,37.9,6.2,38.1c0,0.2,0,0.5-0.1,0.8
			c-25.5,0-50.6-0.1-73.2-0.1c0.3-4.7,0.9-9.4,1.4-14c0.9-7.6,1.8-15.4,1.8-23.1C7.6,507,7.6,506.4,7.6,505.8z M-49.6,544.6l1.1-0.3
			c-4-9.4-5.3-19.4-6.6-29c-0.4-3.2-0.9-6.5-1.4-9.7c15.8,0.1,37.1,0.2,61.2,0.2c0,0.6,0,1.2,0,1.9c0,7.6-0.9,15.4-1.8,22.9
			c-0.5,4.7-1.1,9.5-1.4,14.2C-17.9,544.7-35.4,544.6-49.6,544.6z M-15.1,567.5c-7.7,0-15,0-21.8,0c-0.6-5.1-0.9-9.6-0.9-13.7
			c0-2.6,0.2-5.1,0.4-7.4c18.4,0.1,40.8,0.1,65.1,0.2c-0.5,3.3-1.2,6.6-1.9,9.8c-0.8,3.6-1.6,7.3-2.1,11.1c-12.6,0-24.7,0-36,0
			c0,0,0-0.1,0-0.1h-2.8C-15.1,567.4-15.1,567.5-15.1,567.5z M-12.4,599.3c-0.6-3-0.9-6.2-0.9-9.9c0-3.6,0.3-7.3,0.5-10.9
			c0.2-3.1,0.4-6.2,0.5-9.4c20.8,0,44.5-0.1,69-0.1c-0.1,1.8-0.1,3.7-0.1,5.5c0,3,0.1,6.1,0.2,9.2c0.1,3,0.2,6.1,0.2,9.1
			c0,2,0,4-0.1,6l2.8,0.1c0.1-2,0.1-4,0.1-6c0-3-0.1-6.1-0.2-9.2c-0.1-3-0.2-6.1-0.2-9.1c0-1.8,0-3.7,0.1-5.5
			c25.4,0,51.6-0.1,76.5-0.1c-1.1,7.5-2.1,16.3-2.1,24.9c0,1.6,0,3.2,0.1,4.8l2.8-0.1c-0.1-1.6-0.1-3.1-0.1-4.7
			c0-8.6,1.1-17.4,2.1-24.9c22.4,0,43.6,0,61.9-0.1c-0.1,4.7-0.3,9.4-0.7,14c-0.3,5.1-0.7,10.4-0.7,15.6h2.8
			c0-5.1,0.4-10.4,0.7-15.5c0.3-4.6,0.6-9.4,0.7-14.1c30.2,0,52.2-0.1,58.2-0.1c5.5,0,11.2-0.1,17.1-0.1c-1.7,7.5-2.3,15.2-2.8,22.7
			c-0.2,2.7-0.4,5.4-0.6,8.1c-6.7,0-13.4,0-19.9,0C237.7,599.4,82.2,599.4-12.4,599.3z"/>
	</g>
	<g class="st2">
		<g class="st3">
			<path class="st0" d="M598.6,510.4c-8.9-0.3-17.9-0.5-26.8-0.8c0.2-3.7,0.3-7.4,0.5-11c0.4-7.9,0.9-16.2,0.9-24.3
				c8.8,0.2,17.2,0.4,25.4,0.6V510.4z"/>
			<path class="st0" d="M469.8,180c-0.1,1.8-0.2,3.8-0.2,6c0,2.2,0.1,4.5,0.1,6.7c0,1.9,0.1,3.7,0.1,5.6c-2.9,0-5.8,0-8.6,0
				c-31.9,0-62.4,0.2-92.3,0.7c-0.2-3.1-0.3-6.1-0.3-9.2c0-3.5,0.1-7,0.4-10.4l-3-0.1c-0.2,3.5-0.4,7-0.4,10.5
				c0,3.1,0.1,6.2,0.3,9.3c-9.5,0.2-441.1,0.4-450.5,0.6v-21.4c18.5,0.7,129.5,0.3,245.9,0.6C293.8,179,433.4,180,453,180
				C458.6,180,464.2,180,469.8,180z"/>
			<path class="st0" d="M376.2,421.5c0,3.4,0.1,6.8,0.3,10.3c-1.5,0-3.1,0-4.6,0c-11.5,0-445,0.3-456.4,0.8v-27.5
				c12.6,0.2,447.4,0.5,460,0.9C376,411.2,376.1,416.5,376.2,421.5z"/>
			<path class="st0" d="M431.7,232.4c0.5-5.5,0.9-10.6,1.4-15.8c0.5-5.4,1-10.8,1.5-16.6c8.8,0,17.6-0.1,26.6-0.1
				c27.7,0,56.1,0.2,85.7,0.6c0.1,1.3,0.1,2.5,0.1,3.8c0,5.2-0.4,10.5-0.8,15.6c-0.3,4.4-0.6,8.9-0.7,13.3
				c-31.9-0.6-63.7-0.7-94.8-0.8C444.3,232.4,438,232.4,431.7,232.4z"/>
			<path class="st0" d="M363.2,298.1c0,4.6,0.1,9.2,0.3,13.9c-8.6-0.2-439.4-0.5-448-0.7V282c8.6,0.2,439.4,0.4,448,0.6
				C363.3,287.9,363.2,292.9,363.2,298.1z"/>
			<path class="st0" d="M548.3,348.7c1.2-4.7,2-9.5,2.8-14.1c0.9-5.3,1.7-10.7,3.2-15.9l-2.9-0.3c-1.5,5.3-2.4,10.7-3.2,16
				c-0.8,4.7-1.6,9.6-2.8,14.4c-23.2,0.6-46.3,0.9-69.4,1c0.9-11.1,1.4-22.2,1.4-33.3c40,0.9,80.8,1.9,121.3,3.1V347
				C581.8,347.7,565.1,348.2,548.3,348.7z"/>
			<path class="st0" d="M510.6,284.9c-0.5,5.2-0.9,10.5-1.2,15.8c-0.3,5-0.7,9.9-1.2,14.8c-14.7-0.3-29.3-0.7-43.7-1
				c-11.4-0.3-22.8-0.5-34.3-0.8v-30c4.7,0.1,9.4,0.1,14,0.2c1.9,0,3.9,0.1,5.9,0.1c0,0,0,0,0,0l3,0.1c0,0,0,0,0-0.1c1,0,2,0,3,0
				c0,0.1,0,0.2,0,0.3l3-0.1c0-0.1,0-0.1,0-0.2C476,284.3,493.3,284.6,510.6,284.9z"/>
			<path class="st0" d="M598.6,285.3c-12.7-0.4-25.5-0.8-38.3-1.1c0-1.1-0.1-2.2-0.1-3.3c0-3,0.2-6.2,0.3-9.2c0.2-3,0.3-6.1,0.3-9.1
				h-3c0,3-0.2,6.1-0.3,9.1c-0.2,3-0.3,6.2-0.3,9.3c0,1.1,0.1,2.1,0.1,3.2c-33-0.8-65.9-1.3-98.4-1.8c0-0.2,0-0.3,0-0.5
				c0-4.6,0.8-9.4,1.6-14c0.4-2.1,0.7-4.2,1-6.2c23.9,0.6,48.2,1.1,72.3,1.1c23.5,0,45-0.5,64.9-1.5V285.3z"/>
			<path class="st0" d="M546.1,547.8c7.4,0,14.4,0,21.2,0c0,6.3,0,12.9-0.4,19.2c-32.6-0.5-63.8-0.8-94-0.8c0-1.9,0-3.7-0.1-5.6
				c-0.1-2.2-0.1-4.4-0.1-6.7c0-2.2,0.1-4.2,0.2-6c8.9,0,17.8,0,26.8-0.1C515.1,547.9,530.6,547.8,546.1,547.8z"/>
			<path class="st0" d="M450.6,602.2c31.2,0.1,62.9,0.3,94.8,0.8c0,0.2,0,0.4,0,0.6h3c0-0.2,0-0.4,0-0.5c8.8,0.2,17.5,0.3,26.3,0.6
				c-0.1,0.6-0.1,1.2-0.2,1.7h-86.2c0.2-0.9,0.3-1.7,0.5-2.6l-3-0.2c-0.1,0.9-0.3,1.8-0.5,2.7h-93.4v-3.5
				C411.6,602.1,431.2,602.1,450.6,602.2z"/>
			<path class="st0" d="M524.9,510.2c-1.4,8.9-2.1,18.4-2.1,28.3c0,2.6,0.1,5.1,0.2,7.7c-7.8,0-15.6,0-23.4,0.1
				c-15.5,0.1-31.1,0.1-46.6,0.1c-11.6,0-23.4,0-35.3-0.1c-0.5-6.6-1-12.8-1.5-19c-0.5-6.3-1-12.6-1.5-19.3l-3,0.1
				c0.5,6.7,1,13,1.5,19.3c0.5,6.2,1,12.4,1.5,18.9c-25.1-0.2-473.1-0.7-499.2-1.8v-39.1c27.2,1.1,176,0.4,315.8,1.1
				c121,0.6,235.4,2.6,258.6,3.1C501.5,509.7,513.2,510,524.9,510.2z"/>
			<path class="st0" d="M598.6,142.3c-8.9-0.3-17.9-0.5-26.8-0.8c0.2-3.7,0.3-7.4,0.5-11c0.4-7.9,0.9-16.2,0.9-24.3
				c8.8,0.2,17.2,0.4,25.4,0.6V142.3z"/>
			<path class="st0" d="M407.1,106.4c19.7,0,39.8-0.1,59.1-0.3c19.4-0.1,39.4-0.3,59.1-0.3c16.2,0,31,0.1,44.8,0.3
				c0,8.2-0.4,16.4-0.9,24.3c-0.2,3.6-0.4,7.3-0.5,11c-26.5-0.7-52.9-1.2-78.8-1.8c-5.6-0.1-11.1-0.2-16.7-0.3
				c-0.1-3.1-0.2-6.5-0.2-10.3c0-3.8,0.1-7.7,0.1-11.5c0.1-3.8,0.1-7.6,0.1-11.4h-3c0,3.8-0.1,7.5-0.1,11.3
				c-0.1,3.8-0.1,7.7-0.1,11.5c0,3.8,0.1,7.2,0.2,10.2c-30.1-0.6-60.5-1.3-91-2.3c-0.3-2.7-0.5-5.6-0.5-9.1c0-2,0-4,0.1-6
				c0-2,0.1-4,0.1-6c0-3.7-0.2-6.8-0.5-9.6C388.6,106.4,398.2,106.4,407.1,106.4z"/>
			<path class="st0" d="M407.1,474.5c19.7,0,39.8-0.1,59.1-0.3c19.4-0.1,39.4-0.3,59.1-0.3c16.2,0,31,0.1,44.8,0.3
				c0,8.2-0.4,16.4-0.9,24.3c-0.2,3.6-0.4,7.3-0.5,11c-26.5-0.7-52.9-1.2-78.8-1.8c-5.6-0.1-11.1-0.2-16.7-0.3
				c-0.1-3.1-0.2-6.5-0.2-10.3c0-3.8,0.1-7.7,0.1-11.5c0.1-3.8,0.1-7.6,0.1-11.4h-3c0,3.8-0.1,7.5-0.1,11.3
				c-0.1,3.8-0.1,7.7-0.1,11.5c0,3.8,0.1,7.2,0.2,10.2c-30.1-0.6-60.5-1.3-91-2.3c-0.3-2.7-0.5-5.6-0.5-9.1c0-2,0-4,0.1-6
				c0-2,0.1-4,0.1-6c0-3.7-0.2-6.8-0.5-9.6C388.6,474.4,398.2,474.5,407.1,474.5z"/>
			<path class="st0" d="M430.1,584.5c-0.5,5.2-0.9,10.3-1.4,15.8c-24.8-0.1-50-0.3-75.1-0.7c-0.5-5.2-1-10.1-1.5-15
				c-0.5-5-1-9.9-1.5-15.3l-3,0.1c0.5,5.4,1,10.4,1.5,15.3c0.5,4.8,1,9.6,1.4,14.8c-4.3-0.1-430.8-0.2-435.1-0.3v-30
				c30.6-0.7,483.9-1.1,516.1-1.3C431.1,573.8,430.6,579.2,430.1,584.5z"/>
			<path class="st0" d="M376.2,53.5c0,3.4,0.1,6.8,0.3,10.3c-1.5,0-3.1,0-4.6,0c-11.5,0-445,0.3-456.4,0.8V37.1
				c12.6,0.2,447.4,0.5,460,0.9C376,43.2,376.1,48.4,376.2,53.5z"/>
			<path class="st0" d="M585.3,46.5h-2.2c0,6.8,0.5,13.9,0.9,20.7c0.2,3.1,0.4,6.1,0.5,9.1c-34.1-0.7-68.6-3.6-102.2-6.4
				c0,0-0.1,0-0.1,0c-0.1-5.6-0.6-11.2-1-16.6c-0.3-3.8-0.7-7.7-0.9-11.6c8.6,0.4,17.2,0.7,25.8,1.1c0,0.1,0,0.1,0,0.2h3
				c0,0,0,0,0,0c20.5,0.9,40.9,1.9,61.1,2.8C575.2,46,580.3,46.2,585.3,46.5z"/>
			<path class="st0" d="M546.9,568.6c0.1,1.3,0.1,2.5,0.1,3.8c0,5.2-0.4,10.5-0.8,15.6c-0.3,4.4-0.6,8.9-0.7,13.3
				c-31.9-0.6-63.7-0.7-94.8-0.8c-6.3,0-12.6,0-18.9-0.1c0.5-5.5,0.9-10.6,1.4-15.8c0.5-5.4,1-10.8,1.5-16.6
				c8.8,0,17.6-0.1,26.6-0.1C488.9,568,517.3,568.2,546.9,568.6z"/>
			<path class="st0" d="M506.1,410.9c0,0.1,0,0.1,0,0.2h3c0,0,0,0,0,0c20.5,0.9,40.9,1.9,61.1,2.8c5,0.2,10.1,0.5,15.2,0.7h-2.2
				c0,6.8,0.5,13.9,0.9,20.7c0.2,3.1,0.4,6.1,0.5,9.1c-34.1-0.7-68.6-3.6-102.2-6.4c0,0-0.1,0-0.1,0c-0.1-5.6-0.6-11.2-1-16.6
				c-0.3-3.8-0.7-7.7-0.9-11.6C488.9,410.1,497.5,410.5,506.1,410.9z"/>
			<path class="st0" d="M570.2,179.9c10.1,0,19.4,0.1,28.4,0.2v19.5c-9.7-0.2-19.3-0.3-28.8-0.5
				C570.2,192.8,570.2,186.2,570.2,179.9z"/>
			<path class="st0" d="M570.2,547.9c10.1,0,19.4,0.1,28.4,0.2v19.5c-9.7-0.2-19.3-0.3-28.8-0.5
				C570.2,560.8,570.2,554.3,570.2,547.9z"/>
			<path class="st0" d="M598.6,16.4v28.9c-9.4-0.4-18.8-0.9-28.1-1.3c-20.3-0.9-40.7-1.9-61.3-2.8c0.1-4.9,0.7-9.8,1.2-14.6
				c0.5-4,1-8.2,1.2-12.3l-3-0.1c-0.2,4.1-0.7,8.2-1.2,12.3c-0.6,4.8-1.1,9.7-1.2,14.6c-32.7-1.5-65.6-2.8-98.7-3.9
				c1.4-8.6,2.8-17.5,3.7-26.3c51.2,2,102.5,3.4,152.7,4.6C575.5,15.8,587,16.1,598.6,16.4z"/>
			<path class="st0" d="M524.9,142.2c-1.4,8.9-2.1,18.4-2.1,28.3c0,2.6,0.1,5.1,0.2,7.7c-7.8,0-15.6,0-23.4,0.1
				c-15.5,0.1-31.1,0.1-46.6,0.1c-11.6,0-23.4,0-35.3-0.1c-0.5-6.6-1-12.8-1.5-19c-0.5-6.3-1-12.6-1.5-19.3l-3,0.1
				c0.5,6.7,1,13,1.5,19.3c0.5,6.2,1,12.4,1.5,18.9c-25.1-0.2-473.1-0.7-499.2-1.8v-39.1c65.4-1,262.3-0.7,409,0.9
				c80.2,0.8,147.7,3,165.4,3.3C501.5,141.7,513.2,141.9,524.9,142.2z"/>
			<path class="st0" d="M-84.5,434.3c11.4-0.5,444.9-0.8,456.4-0.8c21.6,0,43.6,1.1,66.3,2.7l-2,0.1c0.9,11.7,2.3,23,3.7,34.8
				l0.2,1.5c-10.9,0.1-21.9,0.1-32.8,0.1c-20.3,0-466.3-0.1-491.7-0.9V434.3z"/>
			<path class="st0" d="M385.6-0.7c-0.4,2.9-0.7,5.8-1.1,8.7c-15.6-0.7-453.5-1.5-469-2.4v-21.8h471.7
				C386.9-11.1,386.2-5.9,385.6-0.7z"/>
			<path class="st0" d="M564.1,13.8c-10.1-0.3-20.3-0.5-30.4-0.8c0.7-4.8,1-9.5,1.3-14.1c0.3-5,0.6-10,1.4-15.2h62.2v30.9
				C587.1,14.4,575.6,14.1,564.1,13.8z"/>
			<path class="st0" d="M577.4,605.4c0.1-0.6,0.1-1.1,0.2-1.7c7,0.2,14,0.4,21,0.7v1H577.4z"/>
			<path class="st0" d="M-84.5,66.3c11.4-0.5,444.9-0.8,456.4-0.8c21.6,0,43.6,1.1,66.3,2.7l-2,0.1c0.9,11.7,2.3,23,3.7,34.8
				l0.2,1.5c-10.9,0.1-21.9,0.1-32.8,0.1c-20.3,0-466.3-0.1-491.7-0.9V66.3z"/>
			<path class="st0" d="M-84.5,349.4c7.9,0.3,438.1,0.5,446.1,0.7c0,8.9,0.5,17.3,0.9,26.3c-8.3-0.4-438.7-0.8-447-1.2V349.4z"/>
			<path class="st0" d="M365.5,376.6c25.7,1.1,51.5,1.9,77.2,2.5c0.3-3.6,0.6-7.1,1-10.6c0.6-5.4,1.3-11,1.3-16.6h3
				c0,5.7-0.7,11.3-1.3,16.8c-0.4,3.4-0.8,7-1,10.5c39.7,1,79.4,1.7,118.4,2.6c11.5,0.3,23,0.6,34.5,0.9v-33.9
				c-3.5,0.1-7,0.3-10.5,0.4c0,1.1,0.1,2.2,0.1,3.3c0,4.3-0.3,8.7-0.6,13c-0.3,4.2-0.6,8.6-0.6,12.9c0,1.2,0,2.5,0.1,3.7l-3,0
				c-0.1-1.2-0.1-2.5-0.1-3.8c0-4.3,0.3-8.7,0.6-13c0.3-4.2,0.6-8.6,0.6-12.9c0-1,0-2.1-0.1-3.1c-12.4,0.4-24.8,0.8-37.3,1.1
				c0,0,0,0.1,0,0.1l-1.2-0.1c-29.2,0.7-58.3,1.1-87.2,1.1c-20.2,0-40.6-0.2-61-0.6l-2.1,0c0,0,0,0,0-0.1
				c-10.6-0.2-21.2-0.4-31.8-0.7C364.5,359.1,365,367.6,365.5,376.6z M513.6,380.2l0.2-1.2c1.4-9.2,2.9-18.7,5.3-27.9l2.9,0.3
				c-2.4,9.1-3.8,18.6-5.3,27.8l-0.2,1.2L513.6,380.2z"/>
			<path class="st0" d="M358,259.5c-1.4,5.4-1.5,10.9-1.7,16.2c0,1.7-0.1,3.3-0.2,5c-6.2-0.1-434.5-0.3-440.7-0.4v-20.8
				c3.4,0,429.1,0,432.6,0C351.4,259.4,354.7,259.5,358,259.5z"/>
			<path class="st0" d="M587.6,444.4c-0.2-3.1-0.3-6.1-0.5-9.2c-0.4-6.8-0.9-13.8-0.9-20.6c4.2,0.2,8.3,0.4,12.5,0.6v29.4
				C594.9,444.5,591.2,444.4,587.6,444.4z"/>
			<path class="st0" d="M411.1,380c10.5,0.3,21,0.6,31.5,0.9c0,0.1,0,0.2,0,0.3l3,0.1c0-0.1,0-0.2,0-0.3c21.1,0.5,42.1,1,63.1,1.4
				c-0.2,4.1-0.7,8.2-1.2,12.2c-0.6,4.8-1.1,9.7-1.2,14.6c-32.7-1.5-65.6-2.8-98.7-3.9C408.8,396.9,410.2,388.4,411.1,380z"/>
			<path class="st0" d="M598.6,234.6c-16.7-0.6-33.4-1-50.1-1.3c0.1-4.4,0.4-8.9,0.7-13.3c0.4-5.2,0.8-10.5,0.8-15.7
				c0-1.3,0-2.5-0.1-3.8c15.9,0.2,32.1,0.5,48.7,0.8V234.6z"/>
			<path class="st0" d="M388.9,258.1c-13.6-0.3-27.3-0.4-40.8-0.4c-3.5,0-429.2,0-432.6,0V233c17.1,0.4,456.4,0.6,473.4,0.8V258.1z"
				/>
			<path class="st0" d="M598.6,259.5c-7.5,0.4-15.3,0.7-23.2,0.9c0.8-4.9,1.1-9.9,1.5-14.8c0.2-3.3,0.5-6.6,0.8-9.9
				c7,0.2,14,0.4,21,0.7V259.5z"/>
		</g>
		<g class="st4">
			<path class="st0" d="M262.5,88.3c0.4-7.4,0.8-15.1,2-22.5c30.2-0.1,64.9-0.2,86.7-0.3c-0.5,6.5-1.3,12.9-2.2,19.2
				c-0.9,6.5-1.8,13.2-2.3,19.9c-27.1-0.1-58.6-0.1-85.3-0.3C262,99,262.3,93.5,262.5,88.3z"/>
			<path class="st0" d="M197.1,135.9c0.3-1.4,0.4-4.2,0.4-9.6c0-2,0-4-0.1-6c0-2-0.1-4-0.1-6c0-3.3,0.2-6,0.4-8.5
				c28.2,0,48.5,0,53.8,0.1c10.1,0,21.2,0.1,32.4,0.1c-0.1,5.7-0.6,11.3-1.2,16.8c-0.4,4.4-0.9,8.9-1.1,13.4
				c-11-0.1-21.7-0.1-31.6-0.2C245,136,225,135.9,197.1,135.9z"/>
			<path class="st0" d="M141.9,7.8c0.1,0.9,0.1,1.7,0.1,2.6c0,5.1-0.9,10.2-1.9,15.1c-0.6,3.3-1.2,6.7-1.6,10c-10.8,0-22.1,0-33.7,0
				l-2.6-0.2c0,0.1,0,0.1,0,0.2c-18.1,0-36.8,0-55.1,0V7.6C79.3,7.7,112.8,7.7,141.9,7.8z"/>
			<path class="st0" d="M248.7,35.7C248.7,35.7,248.7,35.7,248.7,35.7c-4.6,0-9.1,0-13.2,0c0-9.1,0.5-18.3,1.3-27.5
				c23.6,0.4,56.3,0.8,87,1.2c-0.3,2.5-0.4,5.1-0.4,8.1c0,2.3,0.1,4.6,0.1,6.9c0.1,2.3,0.1,4.6,0.1,6.9c0,1.4,0,3.4-0.1,4.9
				c-25.3-0.2-52.1-0.3-74.1-0.5L248.7,35.7z"/>
			<path class="st0" d="M261.9,63.9c0,0,0,0.1,0,0.1c-5,0-9.9,0-14.5,0.1c0.5-4.6,1.3-9.3,2-13.9c0.7-4.2,1.4-8.6,1.9-12.9
				c16.2,0.1,34.7,0.1,52.5,0.2c0,0.7,0.1,1.4,0.1,2.1c0,4.7-0.5,9.7-1,14.4c-0.3,3.3-0.7,6.6-0.9,9.9c-13,0-26.4,0.1-38.9,0.2
				L261.9,63.9z"/>
			<path class="st0" d="M289.7,311.7c-8.5,0-30.9-0.1-60.7-0.1c-0.1-1.9-0.1-3.8-0.1-5.6c0-4.1,0.2-8.3,0.3-12.4
				c0.1-3.8,0.3-7.6,0.3-11.4c1.7,0,2.9,0,3.5,0c22.8,0.1,55.9,0.1,83.1,0.2v29.4C307.7,311.7,298.7,311.7,289.7,311.7z"/>
			<path class="st0" d="M239.8,245.4c0.3-4,0.7-8,0.9-12.1c22.1,0.1,51,0.2,77.6,0.3c-0.5,7.9-1.4,16.1-4.3,24.1
				c-22.8,0-52.5,0-75.1,0C239.1,253.5,239.5,249.5,239.8,245.4z"/>
			<path class="st0" d="M226.6,348.1c0-0.1,0-0.1,0-0.2l-2.8,0.2c-9.7,0-22.1,0-36.3-0.1c-0.9-12-1.8-22.9-3-34.2
				c25.4,0.1,48.5,0.1,66.8,0.2c0.9,4.1,1.4,8.5,1.4,13.9c0,3.6-0.2,7.2-0.4,10.7c-0.2,3.1-0.3,6.4-0.3,9.6c-2.4,0-4.7,0-6.9-0.1
				C242.7,348.2,236.2,348.2,226.6,348.1z"/>
			<path class="st0" d="M241.2,199.4c-4.3,0-23.5,0-50.7,0c1.7-6.9,2.6-13.9,3.5-20.7c26.1,0.1,44.2,0.1,47.8,0.2
				c9.6,0.1,20.3,0.3,31.7,0.4c0.2,1.6,0.4,3.2,0.4,5.1c0,2.7-0.3,5.5-0.5,8.2c-0.2,2.2-0.4,4.5-0.4,6.8c-5.6,0-11.2,0-16.5,0
				c0,0,0-0.1,0-0.1l-2.8,0.1c0,0,0,0,0,0C249.2,199.4,245.1,199.4,241.2,199.4z"/>
			<path class="st0" d="M216.7,64.3c0-6.1,0.4-12.4,0.9-18.4c0.2-2.9,0.4-5.8,0.5-8.7c3.9,0,6.4,0,7.1,0c6.6,0,14.6,0.1,23.3,0.1
				c-0.5,4.2-1.2,8.5-1.9,12.6c-0.8,4.7-1.6,9.5-2.1,14.2c-6,0-11.6,0.1-16.5,0.1C226.9,64.3,222.9,64.3,216.7,64.3z"/>
			<path class="st0" d="M154.1,104.1l2.8-0.2c-1.4-12.8-1.4-25.5-1.4-37.8c39.2,0,68.2-0.1,71.5-0.1c9.6-0.1,21.6-0.1,34.6-0.2
				c-1.2,7.4-1.6,15-1.9,22.3c-0.3,5.3-0.5,10.7-1.1,16.1l0.7,0.1c-2.4,0-4.7,0-7,0c-10.7-0.1-90.8-0.1-170.2-0.2
				c-0.5-7.3-0.8-14.7-0.8-22.6c0-4.7,0.1-9.8,0.3-15.3c24.9,0,49.4,0,71.1,0C152.7,78.4,152.7,91.2,154.1,104.1z"/>
			<path class="st0" d="M213.3-8.5c0.3,4.7,0.7,9.6,1.5,14.6c-18.5,0-56-0.1-98.3-0.1c0.4-7.3,0.7-14.8,0.8-22.1h95.4
				C212.9-13.7,213.1-11.1,213.3-8.5z"/>
			<path class="st0" d="M63.7,105.7c-0.1,1.4-0.3,3.5-0.4,7.1c-0.4,7.9-1,19.7-1.4,22.9l0,0c-26.1,0-51.4-0.1-73.5-0.1
				c-0.6-4.7-1.5-9.3-2.4-13.8c-1-5.3-2-10.7-2.6-16.2C7.2,105.7,35,105.7,63.7,105.7z"/>
			<path class="st0" d="M156.5,166.4c0-3.5,0.1-6.9,0.1-10.4c0-6.1-0.1-11.7-0.5-18.4c31.8,0,62,0,87.2,0.1
				c-1.4,7.3-1.8,14.9-2.1,22.2c-0.3,5.6-0.6,11.4-1.3,17.2c-6.2,0-23.8-0.1-47.9-0.1l-0.7-0.1l0,0.1c-10.5,0-22.3,0-34.8-0.1
				C156.5,173.3,156.5,169.9,156.5,166.4z"/>
			<path class="st0" d="M187.6,199.4c-22.1,0-49.1,0-77.4,0c0.2-2.9,0.6-6,0.9-8.9c0.5-3.9,1-8,1-11.9c29.1,0,56.7,0.1,78.9,0.1
				C190.2,185.6,189.3,192.6,187.6,199.4z"/>
			<path class="st0" d="M168.5,201c-1.4,4.9-1.6,9.9-1.9,14.8c-0.2,5.1-0.5,10.4-2.1,15.5l0.1,0c-22.2,0-48.5,0-75.5,0v-30.2
				C117.2,201.1,144.7,201,168.5,201z"/>
			<path class="st0" d="M217.6,432.2c0-0.9-0.1-2-0.1-2.5c0-3.6,1-7.3,1.9-10.8c0.9-3.6,1.9-7.4,1.9-11.2c0-0.8-0.1-1.6-0.2-2.3
				c16.7,0,28.4,0,32.4,0c16.5,0.1,35.3,0.1,53.1,0.2c0,0.8-0.1,1.7-0.1,2.5c0,2.3,0.1,4.6,0.1,7c0.1,2.3,0.1,4.7,0.1,7
				c0,3.3-0.1,6.9-0.4,9.9c-16.8,0.1-34.7,0.1-50.6,0.2C251.2,432.2,237.3,432.2,217.6,432.2z"/>
			<path class="st0" d="M47.6,278.2c0-0.9-0.1-1.8-0.1-2.7c0-0.3,0.1-1.2,0.3-2.4c0.4-3.1,1.2-8.5,1.3-13.6c27,0,54.9,0,80.5,0
				c0.1,1.7,0.2,3.3,0.4,5c0.3,4.1,0.7,8.3,0.7,12.4c0,1.2,0,2.3-0.1,3.4c-14.3,0-29.3,0-44.5,0l-2.6-0.2c0,0.1,0,0.1,0,0.2
				c-12,0-24,0-35.8,0C47.7,279.6,47.7,278.9,47.6,278.2z"/>
			<path class="st0" d="M46.3,259.4c-0.1,4.9-0.8,10.3-1.3,13.3c-0.2,1.4-0.3,2.4-0.3,2.7c0,0.9,0.1,1.9,0.1,2.8
				c0,0.7,0.1,1.4,0.1,2.1c-25.6,0-50.2,0-70.9,0l2.2-0.2c-0.3-2.6-0.4-5-0.4-7.3l0-3.7c0-2.9-0.1-6.2-0.7-9.6
				C-4,259.4,20.6,259.4,46.3,259.4z"/>
			<path class="st0" d="M28.7,317.8c0,5.8,0.6,11.6,1.1,17.2c0.4,4.2,0.8,8.6,1,12.9c-14.9,0-29.2,0-42.4-0.1c0,0,0-0.1,0-0.1
				l-0.5,0.1c-10.4,0-20.1,0-28.7,0l1.4,0c-0.4-9.2-0.3-18.8-0.3-28.1l0-6.4c19,0.1,42.7,0.1,68.7,0.2
				C28.8,314.9,28.7,316.4,28.7,317.8z"/>
			<path class="st0" d="M-58.9,377.1c17.3,0.1,42,0.1,69.9,0.2c0,3.5-0.3,7-0.5,10.4c-0.3,3.9-0.5,7.9-0.5,11.9c0,1.3,0,2.6,0.1,4
				c-10.8,0-21.1,0-30.6,0c0-0.1,0-0.1,0-0.2l-1.4,0.2c-13,0-24.6,0-34.1,0l1.1-0.3c-1.5-4.8-1.9-9.7-2.3-14.5
				C-57.6,384.9-58,381-58.9,377.1z"/>
			<path class="st0" d="M14.8,201.2v30h2.8v-30c21.9,0,45.4,0,68.7-0.1v30.2c-45.8,0-93.4,0-126.6,0c-0.5-5.4-1.7-10.6-2.8-15.7
				c-1.1-4.7-2.1-9.5-2.6-14.4C-29.1,201.2-8.1,201.2,14.8,201.2z"/>
			<path class="st0" d="M248.8,375.6c-0.1,0-0.2,0-0.4,0c-2.3,0-4.6,0-6.8,0c-2,0-7,0-14.4,0c-0.1-2.5-0.2-5-0.2-7.5l0-7.1
				c0-3.6-0.1-7.4-0.4-11.4c9.6,0,16.2,0,18.7,0c14,0.1,30.1,0.1,45.8,0.2c0.3,2.3,0.5,4.6,0.5,7.1c0,6.7-1.1,13.3-2.2,18.9
				c-13.8-0.1-27.8-0.2-40.3-0.2C249,375.6,248.9,375.6,248.8,375.6z"/>
			<path class="st0" d="M11.6,79.3c-0.2,4.9-0.4,9.9-0.4,14.9c0,3.6,0.1,6.8,0.3,9.9c-9.9,0-19.3,0-28.2,0c0,0,0-0.1,0-0.1l-1.4,0.1
				c-9.9,0-18.9,0-27.1,0l1.1-0.1c-0.4-3-0.9-6.1-1.4-9.1c-1.5-9.2-2.9-17.9-2.9-26.9c0-0.5,0-1.1,0-1.6c16.4,0,37.3,0,60.2,0
				C11.9,70.6,11.8,75,11.6,79.3z"/>
			<path class="st0" d="M21.1-4c0,3.2,0.1,6.5,0.3,9.8c-4.5,0-8.8,0-13.2,0C8.5,2.1,8.9-1.9,9.4-5.7c0.4-3.5,0.8-7.1,1.1-10.6h10.2
				C21-12.1,21.1-8,21.1-4z"/>
			<path class="st0" d="M-37.5,137.5c14.7,0,32,0,51.1,0.1c-0.6,3-0.8,5.7-0.8,8.9c0,5.5,0.6,11.1,1.3,16.5c0.5,4.4,1,9.1,1.2,13.5
				l2.8-0.1c-0.2-4.5-0.7-9.2-1.2-13.7c-0.6-5.4-1.3-10.9-1.3-16.3c0-3.3,0.3-5.9,0.8-8.9c19.7,0,41.2,0,63.2,0.1
				c-0.2,6.4-0.6,12.8-0.9,19.2c-0.4,6.7-0.7,13.4-0.9,20c-35.6,0-71.1-0.1-99.8-0.1c0,0,0-0.1,0-0.1l-1.8,0.1c-5.6,0-11,0-16,0
				C-38.4,163.2-37.9,150.1-37.5,137.5z"/>
			<path class="st0" d="M260,504.1c-3.3,0-10.7,0-21.3-0.1c-0.1-1.2-0.2-2.3-0.2-3.5c0-5.3,0.9-10.7,1.9-15.9
				c0.6-3.5,1.2-7.1,1.6-10.7c8.1,0,13.8,0,16.5,0c19.6,0.1,41.8,0.1,61.6,0.2c-0.2,3.7-0.6,7.5-0.9,11.1c-0.6,5.4-1.1,11-1.1,16.5
				c0,0.9,0,1.8,0.1,2.7C299.3,504.3,278.6,504.2,260,504.1z"/>
			<path class="st0" d="M223.9,349.7c0.3,3.9,0.4,7.8,0.4,11.4l0,7.1c0,2.5,0,5,0.2,7.5c-15.3,0-39.1-0.1-67-0.1
				c0.2-2.9,0.4-5.7,0.6-8.6c0.4-4.8,0.8-9.7,0.8-14.6c0-0.9,0-1.8-0.1-2.7C185.2,349.6,208.1,349.6,223.9,349.7z"/>
			<path class="st0" d="M-15.5,431.9c-2-5.9-2.8-12.1-3.5-18c-0.3-2.9-0.7-5.8-1.2-8.8c24.1,0,52.9,0,82.6,0
				c0.3,1.8,0.5,3.7,0.5,5.8c0,3.6-0.5,7.3-1,10.8c-0.5,3.5-1,7-1,10.6c-28.1,0-55.3,0.1-78.4,0.1L-15.5,431.9z"/>
			<path class="st0" d="M329.4,396.1c0.9-4,1.8-8.1,1.8-12.3c0-1.8-0.2-3.4-0.6-5c3.4,0,6.7,0.1,10,0.1c0,0.5,0,1,0,1.5
				c0,1,0.1,2,0.1,3.1c0,1-0.2,2.9-0.5,5.3c-0.4,4.3-1.1,10.1-1.1,15.6c-3.7,0-7.4-0.1-11.2-0.1
				C328.2,401.6,328.8,398.8,329.4,396.1z"/>
			<path class="st0" d="M232.7,567.4l0.1-1.4c0.4-6.2,0.8-12.6,0.8-18.9c14.5,0,24.6,0.1,28.3,0.1c15,0.2,31.6,0.3,48.6,0.4
				c0.2,1,0.3,2,0.3,3.1c0,3-0.6,6.2-1.2,9.2c-0.4,2.4-0.9,4.9-1.1,7.3c-8.9,0-18.2,0-27.4,0.1c0,0,0,0,0-0.1l-2.8-0.5
				c-0.1,0.2-0.1,0.4-0.1,0.6c-6.9,0-13.6,0-20.1,0.1C254.5,567.4,245.5,567.4,232.7,567.4z"/>
			<path class="st0" d="M-40.3,553.9c0,4.1,0.3,8.6,0.9,13.7c-26.8,0-44.3,0-45.1,0.1v-21.4c2.4,0.1,19.3,0.2,44.6,0.3
				C-40.2,548.8-40.3,551.3-40.3,553.9z"/>
			<path class="st0" d="M-49.6,476.1c0,3.4-0.2,6.9-0.4,10.2c-0.2,3.4-0.4,6.8-0.4,10.3c0,2.4,0.1,4.6,0.3,6.6l2.8-0.2
				c-0.2-2-0.3-4.1-0.3-6.4c0-3.4,0.2-6.9,0.4-10.2c0.2-3.4,0.4-6.9,0.4-10.4c0-0.8,0-1.6-0.1-2.5c16.8,0,38.1,0,61.6,0.1
				c-0.1,1.9-0.1,3.7-0.1,5.6c0,4.3,0.2,8.6,0.3,12.9c0.1,3.8,0.2,7.6,0.3,11.5c-55.1-0.1-98-0.1-99.8-0.2v-29.9
				c0.9,0,14.1,0.1,34.9,0.1C-49.6,474.5-49.6,475.3-49.6,476.1z"/>
			<path class="st0" d="M-12.8,360.6c0,1.9-0.1,3.9-0.1,5.8c-0.1,1.9-0.1,3.9-0.1,5.8c0,1.1,0,2.1,0.1,3.1
				c-41.1,0-70.8-0.1-71.5-0.1v-25.8c0.8,0,29.9,0.1,70.5,0.1C-13,353.6-12.8,357.5-12.8,360.6z"/>
			<path class="st0" d="M-15.4,578.4c-0.3,3.6-0.5,7.3-0.5,11c0,3.6,0.3,6.9,0.9,9.9c-40.4,0-69,0-69.5,0v-30
				c2.6-0.1,30.6-0.1,69.6-0.2C-15,572.3-15.2,575.4-15.4,578.4z"/>
			<path class="st0" d="M-60.1,388.9c0.4,4.7,0.9,9.7,2.3,14.5c-15.7,0-25.7,0-26.8-0.1V377c0.9,0,9.3,0.1,22.8,0.1
				C-60.8,381-60.4,385-60.1,388.9z"/>
			<path class="st0" d="M-4.5,471.7h2.8c0-12.4,0-25.1,0.9-37.5c17,0,35.5,0,54.6-0.1c0,1.8-0.1,3.6-0.1,5.4c0,9.5,0.6,19.6,2,32.6
				c-72.3-0.1-136.8-0.2-140.3-0.3v-37.5c1.3-0.1,35.1-0.1,80.9-0.2C-4.5,446.6-4.5,459.3-4.5,471.7z"/>
			<path class="st0" d="M-57.4,515.5c1.3,9.6,2.6,19.6,6.6,29.1c-19.5-0.1-32.1-0.1-33.6-0.2v-39.1c1.9,0.1,11.2,0.2,25.6,0.2
				C-58.3,508.8-57.9,512.2-57.4,515.5z"/>
			<path class="st0" d="M-2.1,48.5C-2,53.7-2,59-1.2,64.4c-46.9,0-82.5,0.1-83.3,0.1V37.1c0.8,0,35.8,0,82,0
				C-2.2,41-2.1,44.8-2.1,48.5z"/>
			<path class="st0" d="M-59.3,117.4c0.6,5.2,1.2,10.5,1.2,15.7c0,0.8,0,1.7-0.1,2.5c-15.8,0-25.7-0.1-26.4-0.1v-29.9
				c0.7,0,9.6,0,24.1,0.1C-60.2,109.6-59.8,113.5-59.3,117.4z"/>
			<path class="st0" d="M-50.3,26.6c0,3,0.1,5.9,0.2,8.8c-20.5,0-33.6,0-34.4,0v-28c0.8,0,14.1,0.1,34.7,0.1
				C-50.1,13.5-50.3,20.1-50.3,26.6z"/>
			<path class="st0" d="M-24.6,180.1c0,1.9-0.1,3.8-0.1,5.7c-0.1,1.9-0.1,3.9-0.1,5.8c0,3.1,0.2,5.6,0.6,8c-35.1,0-59.4,0-60.2,0.1
				v-21.4c2.1,0.1,25.9,0.2,59.8,0.2C-24.7,178.9-24.6,179.5-24.6,180.1z"/>
			<path class="st0" d="M15.1,290.5c-0.4,5.3-0.8,10.8-0.8,16.2c0,1.4,0,2.8,0.1,4.2l2.8-0.1c-0.1-1.4-0.1-2.8-0.1-4.2
				c0-5.3,0.4-10.8,0.8-16.1c0.2-2.9,0.4-5.8,0.6-8.6c20.7,0,42.9,0,64.9,0c-0.3,4-0.4,8.3-0.4,13.7c0,2.6,0,5.2,0.1,7.8
				c0,2.6,0.1,5.2,0.1,7.8h2.8c0-2.6,0-5.2-0.1-7.8c0-2.6-0.1-5.2-0.1-7.8c0-5.5,0.1-9.8,0.4-13.7c27.3,0,54.2,0,77.3,0
				c0,1-0.1,2-0.1,3c0,2.9,0.1,5.7,0.2,8.5c0.1,2.8,0.2,5.6,0.2,8.4c0,3.6-0.2,6.6-0.5,9.5c-108.2-0.1-245-0.2-247.8-0.3V282
				c0.8,0,45,0,100.2,0.1C15.5,284.9,15.3,287.7,15.1,290.5z"/>
			<path class="st0" d="M-53.3,236.3c0,4.6,1.1,9.3,2.1,13.8c0.6,2.4,1.1,4.8,1.5,7.1l2.8-0.3c-0.4-2.4-1-4.9-1.5-7.3
				c-1-4.4-2.1-8.9-2.1-13.3c0-1.1,0.1-2.2,0.3-3.2c13.5,0,30.3,0,48.8,0c0.8,4.1,1.4,8.2,1.9,12.2c0.5,4,1.1,8.2,1.9,12.4
				c-9.7,0-19,0-27.6,0c0,0,0,0,0,0l-0.2,0c-34.8,0-58.9,0-59.1,0V233c0.6,0,12.6,0,31.5,0C-53.2,234.1-53.3,235.1-53.3,236.3z"/>
			<path class="st0" d="M137.9,432.3l0.1-2.3c0.2-4.3,0.5-9.1,0.5-12.9c0-4.4-0.3-8.3-0.8-11.9c31,0,59.4,0,80.5,0.1
				c0.1,0.8,0.2,1.5,0.2,2.3c0,3.6-0.9,7-1.9,10.7c-1,3.7-1.9,7.4-1.9,11.3c0,0.5,0,1.6,0.1,2.5C193.9,432.2,167,432.3,137.9,432.3z
				"/>
			<path class="st0" d="M157.9,473.8c0,3.2-0.1,6.5-0.3,9.8c-0.2,3.5-0.3,7.1-0.3,10.7c0,3.6,0.2,6.7,0.5,9.6
				c-22.4,0-46.6-0.1-70.9-0.1c-1.3-9.6-2.7-20.4-2.9-30C109.3,473.8,134.6,473.8,157.9,473.8z"/>
			<path class="st0" d="M91.3,388.7l0,2.5c0,4.1,0.1,8.2,0.7,12.4c-27.9,0-56.1,0-81.5-0.1l2.4-0.1c-0.1-1.3-0.1-2.6-0.1-3.9
				c0-3.9,0.3-7.9,0.5-11.7c0.2-3.4,0.4-7,0.5-10.5c24.2,0,50.7,0.1,76.9,0.1C91.2,381.2,91.3,384.9,91.3,388.7z"/>
			<path class="st0" d="M71.4,505.9c1.5,15.5,6.1,37.9,6.2,38.1c0,0.2,0,0.5-0.1,0.8c-25.4,0-50.4-0.1-72.9-0.1
				c0.3-4.7,0.9-9.4,1.4-14c0.9-7.6,1.8-15.4,1.8-23.1c0-0.6,0-1.2,0-1.9C27.6,505.8,49.3,505.9,71.4,505.9z"/>
			<path class="st0" d="M-48.1,544.3c-4-9.4-5.3-19.4-6.6-29c-0.4-3.2-0.9-6.5-1.4-9.7c15.8,0.1,37,0.2,61,0.2c0,0.6,0,1.2,0,1.9
				c0,7.6-0.9,15.4-1.8,22.9c-0.5,4.7-1.1,9.5-1.4,14.2c-19.4,0-36.9-0.1-51-0.1L-48.1,544.3z"/>
			<path class="st0" d="M100.6,551.5c0,2.1,0.1,4.3,0.2,6.4c0.1,2.1,0.2,4.2,0.2,6.3c0,1.1,0,2.1-0.1,3.2l2.8,0.1
				c-26,0-52.5,0-77.1,0c0.5-3.6,1.3-7.2,2-10.6c0.7-3.3,1.5-6.8,2-10.2c22.5,0.1,46.5,0.1,70.2,0.2
				C100.7,548.2,100.6,549.8,100.6,551.5z"/>
			<path class="st0" d="M206.4,472.3c0.1-2.1,0.1-4.2,0.2-6.3c0.3-10.8,0.7-21.9,2.4-32c24.1,0,41.3-0.1,46.4-0.1
				c7.5,0,15.4-0.1,23.4-0.1c0,12.6,0,25.6-1.8,38.7c-6.5,0-12.9-0.1-19-0.1C252.6,472.3,233.3,472.3,206.4,472.3z"/>
			<path class="st0" d="M141.5,545c0.4-4.7,1.2-9.4,2-13.9c1.1-6,2.3-12.3,2.3-18.5c0-2.3-0.2-4.4-0.5-6.4
				c18.4,0.1,35.8,0.1,51.3,0.2c-0.1,0.9-0.1,2-0.1,3.5c0,4.6-0.2,9.3-0.4,13.8c-0.2,4.5-0.4,9.2-0.4,13.9c0,2.7,0.1,5.2,0.2,7.6
				C179.5,545,161,545,141.5,545z"/>
			<path class="st0" d="M184.7,348.1c-22.9,0-50.2-0.1-78.5-0.1c0.1-1,0.1-2.6,0.1-5.1c0-2.9-0.1-5.9-0.1-8.8
				c-0.1-2.9-0.1-5.8-0.1-8.8c0-4.5,0.2-8.2,0.5-11.6c25.7,0.1,51.4,0.1,75.1,0.2C182.9,325.2,183.7,336.1,184.7,348.1z"/>
			<path class="st0" d="M133.5,276.9c0-4.2-0.3-8.5-0.7-12.6c-0.1-1.6-0.3-3.3-0.4-4.9c30.7,0,57.8,0,75.6,0
				c-1.5,9.9-2.5,20.7-2.5,20.8l1.4,0.1c-18.2,0-44.4,0-73.7,0C133.5,279.2,133.5,278.1,133.5,276.9z"/>
			<path class="st0" d="M102.2,37.2c-0.2,1.7-0.3,3.3-0.5,5c-0.8,7.3-1.6,14.9-1.6,22.2c-33.1,0-68,0-98.4,0.1
				c-0.7-5.4-0.8-10.7-0.9-16c0-3.7-0.1-7.5-0.4-11.4C31.7,37.2,68,37.2,102.2,37.2z"/>
		</g>
	</g>
	<path class="st1" d="M513.8,380.2l3,0.2l0.2-1.2c1.4-9.1,2.9-18.6,5.2-27.8l-2.9-0.3c-2.4,9.2-3.8,18.7-5.3,27.9L513.8,380.2z"/>
</g>
<path class="st5" d="M600.8,576.7H-80.3V103.4c0,0,21.4,330.3,340.5,330.3s340.6-330.3,340.6-330.3V576.7z"/>
<g>
	<path class="st6" d="M219.8,239.3c0,0-31.1,14.4-59.1,127.7l-68.3-12.4l-5.5,11.6c0,0,37.2,57.3,97.9,48.5
		C184.8,414.7,278.1,301,219.8,239.3z"/>
	<polygon class="st7" points="104.5,368.9 103.8,363.3 82.5,328.2 80.5,329.3 99.7,364.6 	"/>
	<path class="st8" d="M78.2,367.3c0,0-2.5-1.9-2.5-3.5c0-1.6,1.9-2.8,1.9-2.8s-2.3-1.5-2.2-4c0.2-2.9,2.8-2.9,2.8-2.9
		s-1.8-3.3-0.5-5.1c1.3-1.8,4-1.7,4-1.7s-0.6-2.6,1.4-3.9c4.3-2.8,22.3,11.1,19.7,13.9c-2.6,2.9-12.7-5.5-13-4.4
		c-0.3,1.1,15.3,6.7,13.9,10.4c-1.2,3.4-15.8-4.7-15.8-4.7s13.7,5.5,11.7,8.8c-2,3.2-14.2-2.6-14.2-2.6s6.4,2.3,6.1,4.2
		C91.4,370.9,83,369.4,78.2,367.3z"/>
	<path class="st9" d="M209.4,443.7c0,0-3.5-2.7-12.9-7.3l5.3,10.7L209.4,443.7z"/>
	<path class="st10" d="M323.5,204.6c0,0,16.3-8.9,24-17.2c7.7-8.2,27.9-80.6,23.1-91c-4.8-10.4-16-16-16-16l16.8-4l-22.4-4.8
		c0,0-7.2-26.7-28.7-30.3l4.8,10.4c0,0-31.1-14.4-55.1-7.2l5.6,4.8c0,0-39.8-0.3-27.9,30.3c11.9,30.6,13.3,10.6,10.3,47.5
		C261.3,139.5,323.5,204.6,323.5,204.6z"/>
	<path class="st11" d="M250.6,883.2l-0.9,14.3H209c16.8-13.5,31.9-6.9,31.9-6.9l1.6-7.4H250.6z"/>
	<path class="st11" d="M314.9,883.2l-2.6,14.3h31.1c-9.2-13.5-18.5-6.9-18.5-6.9l-2-7.4H314.9z"/>
	<polygon class="st12" points="236.8,884.6 226.5,473.4 339.8,478 329.2,884.5 307.2,884.5 290.9,545.6 273.4,544.5 258.9,884.6 	
		"/>
	<path class="st6" d="M226.5,473.4c-5.8-96.8-16.9-116-21.8-142.3c-4.9-26.3-7.2-71.8,15.2-91.8c32.5-16.9,142.5-1.1,158.7,19.7
		c0,0-3.3,45-16.3,91c-23.6,83.2-22.4,128-22.4,128S245.5,473.4,226.5,473.4z"/>
	<path class="st12" d="M378.5,259c-3.3-4.2-10.4-8.2-20-11.8c-35.2,20.3-41.7,84.9-41.7,84.9l-94.6-10.3c-7.7-33.3-10-67.8,17.3-88
		c-7.9,1.2-14.7,3-19.7,5.5c-23.1,20.8-20.1,65.5-15.2,91.8c4.9,26.3,16,45.5,21.8,142.3c8.4,0,32.7,16.1,55.9,17.1
		c29.2,1.3,57.5-12.5,57.5-12.5s-1.2-44.8,22.4-128C375.2,304,378.5,259,378.5,259z"/>
	<path class="st13" d="M332.6,241.2l-59.3,35.4c0,0-18.8-41-21.3-45.2c0,0,4.2-1.1,39.5,2.1C326.9,236.7,332.6,241.2,332.6,241.2z"
		/>
	<polygon class="st13" points="331.2,180.7 325.2,244.5 257.7,238.3 267.6,180.6 	"/>
	<path class="st6" d="M255.2,233.3c0,0,2.1,23.4,24.7,25.5c22.7,2.1,46.3-19.2,46.3-19.2S248.2,327.6,255.2,233.3z"/>
	<polygon class="st14" points="273.3,276.6 287.7,292.5 332.6,241.2 326.8,227 	"/>
	<polygon class="st14" points="252,231.3 259.6,223.3 273.3,276.6 257.1,287.7 	"/>
	<path class="st15" d="M240.3,201.5c0.5,5.7,9.1,18.1,15.3,21.8c4.3,2.5,14,5.3,18.9,6c10.6,1.6,29.7-2.4,39-9
		c9.4-6.6,30.9-61.5,28.9-104.2c-0.7-14.7-60.5-43.8-76.7-21.5c-4.4,6.1-7.9,37.7-11.2,51.5C251.2,160.6,239.8,195.9,240.3,201.5z"
		/>
	<path class="st16" d="M224.2,442.2c0.8,9.4,1.6,19.8,2.3,31.2l0,1.5c18.5,4.6,50.2,10.5,92.3,10.7l1.5,398.8l8.8,0L339.8,478
		c0,0-0.5-19.4,5.8-56.1L224.2,442.2z"/>
	<path class="st6" d="M378.5,259c0,0-39.7-15.4-54.6,131.5l-114.3,53.4l3.6,10.5c0,0,94.6,22.2,149-22.4
		C362.2,431.9,429.2,296.8,378.5,259z"/>
	<g>
		<path class="st17" d="M60.7,356.4l99.6,1.1c0,0,39.3,96.6,57.2,109.3c-30.2,11.1-96.2,5.1-96.2,5.1L60.7,356.4z"/>
		<polygon class="st7" points="58.3,358.8 157.9,359.9 210.1,474.3 119,474.3 		"/>
		<rect x="81.5" y="355.1" class="st18" width="47.9" height="4.5"/>
		<path class="st19" d="M58.3,358.8c0,0,87.5,1.1,99.6,1.1C109,390.6,119,474.3,119,474.3L58.3,358.8z"/>
	</g>
	<path class="st20" d="M209.4,443.7c0,0-12.5,3.7-20.3,4.3c-7.8,0.6-18.9-0.3-18.2,2.8c0.7,3.1,17.4,0.5,17.9,2.3
		c0.5,1.8-19.7,1.1-19.3,4.2c0.4,3.1,19.6,0.8,20.1,2.4c0.5,1.5-17.5,1.1-16.5,3.8c1,2.7,18.5-0.9,18.6,0.6
		c0.2,1.6-11.8,1.2-11.3,3.2c0.6,2,28.9,3.6,32.1-14.9L209.4,443.7z"/>
	<polygon class="st10" points="299.5,126.1 296.4,133.6 320.3,146.5 322.8,139.7 	"/>
	<polygon class="st10" points="271.9,122.1 273.5,130 255.8,134.4 254.5,127.3 	"/>
	<polygon class="st16" points="256.6,533.9 249.9,884.6 258.9,884.6 273.4,544.5 290.9,545.6 298.9,535.5 	"/>
	<g>
		<path class="st6" d="M273.4,153.2c0.1-4.9-0.6-10.8-8.1-12.8c-7.6-2-11.1,4.8-11,7.2c0.1,2.5,2.2,6.1,6.3,6.6
			c4.2,0.4,7.9,0.1,9.4,0.2C271.6,154.8,273.3,154.2,273.4,153.2z"/>
		
			<ellipse transform="matrix(4.801709e-02 -0.9988 0.9988 4.801709e-02 104.8279 404.42)" class="st21" cx="264.6" cy="147.2" rx="6.2" ry="6.2"/>
		<path class="st6" d="M267.4,151.2c-0.1,1.5-1.4,2.8-2.9,2.7s-2.8-1.4-2.7-2.9c0.1-1.5,1.4-2.8,2.9-2.7
			C266.2,148.3,267.5,149.6,267.4,151.2z"/>
		<path class="st6" d="M292.8,153.8c0.2-4.9,1.2-10.7,8.9-12.2c7.6-1.6,10.8,5.4,10.5,8c-0.3,2.5-2.5,6-6.7,6.2
			c-4.2,0.2-7.8-0.5-9.4-0.2C294.5,155.5,292.7,154.8,292.8,153.8z"/>
		<path class="st21" d="M296,147.8c-0.1,3.5,2.6,6.4,6,6.4c3.5,0.1,6.4-2.6,6.4-6s-2.6-6.4-6-6.4C299,141.6,296.2,144.3,296,147.8z"
			/>
		<path class="st6" d="M299.4,151.8c-0.1,1.5,1.2,2.9,2.7,2.9c1.5,0.1,2.9-1.2,2.9-2.7c0.1-1.5-1.2-2.9-2.7-2.9
			C300.7,149,299.4,150.2,299.4,151.8z"/>
	</g>
	<path class="st13" d="M279.7,144c-3.7,12.4-11.2,27.3-10,29.1c1,1.5,8.5,0.3,12.7-0.4c0,0.8,0.1,2.7,0.1,2.7s-15.1,2.8-16.5,0.8
		c-1.4-2,10.7-23.8,12.2-35.2C278.4,139.8,279.4,140.5,279.7,144z"/>
	<path class="st22" d="M349.4,179.1c-10.9,12.8-25.6,16.6-25.5,4.8c0.1-11.8,18.9-37.9,23.8-29.3C352.6,163.1,355.5,172,349.4,179.1
		z"/>
	<path class="st13" d="M346.2,178.2c-8,9.4-18.8,12.1-18.7,3.4c0.1-8.7,13.9-27.8,17.5-21.5C348.5,166.5,350.7,173,346.2,178.2z"/>
	<path class="st22" d="M336.4,182c-3.9,4.6-9.2,5.9-9.1,1.7c0.1-4.2,6.8-13.6,8.5-10.5C337.5,176.3,338.6,179.5,336.4,182z"/>
	<path class="st10" d="M314.8,93.5c0,0,19.5,1.6,21.8,38.3c1.5,23.6-9.3,44.1-9.3,44.1l4,0.1l4.5-6.6
		C335.8,169.4,371.5,82.9,314.8,93.5z"/>
	<circle class="st23" cx="269.7" cy="373.8" r="29.3"/>
	<g>
		<path class="st24" d="M261,190l35.3,3.8c0,0-7,19.3-19.6,17.9C261.1,209.9,261,190,261,190z"/>
		<path class="st6" d="M266.1,192.8l1.8,4.5c0,0,1.5,5.1,9,5.1c7.5,0,13.9-4.1,13.9-4.1l1.3-2.8L266.1,192.8z"/>
	</g>
	<g>
		<path class="st25" d="M311.2,204.5c-0.3,1.5,0.7,2.9,2.2,3.2l20.6,3.2c3.5,0.6,6.9-1.7,7.5-5.3l3.7-19.1c0.3-1.5-0.7-2.9-2.2-3.2
			s-2.9,0.7-3.2,2.2l-1.2,6.7c-0.1,0.6-3.1,13.4-3.7,13.3l-20.6-3.2C312.9,202,311.4,203,311.2,204.5z"/>
		<path class="st26" d="M291.2,204l1-5.9c0.3-1.6,1.9-2.7,3.5-2.4l16.3,2.9c1.6,0.3,2.7,1.9,2.4,3.5l-1,5.9
			c-0.3,1.6-1.9,2.7-3.5,2.4l-16.3-2.9C292,207.2,290.9,205.6,291.2,204z"/>
		<path class="st27" d="M292.2,198.1l-1,5.9c-0.3,1.6,0.8,3.2,2.4,3.5l11.1,2c-1.6-0.3-2.7-1.9-2.4-3.5l1-5.9
			c0.3-1.6,1.9-2.7,3.5-2.4l-11.1-2C294.1,195.3,292.5,196.4,292.2,198.1z"/>
		<g>
			<path class="st28" d="M332.4,192.9c-2.2-0.4-3.7-2.5-3.3-4.7l4.8-27c0.4-2.2,2.5-3.7,4.7-3.3l10,1.8c4.5,0.8,7.5,5.1,6.7,9.6
				L352,188c-0.8,4.5-5.1,7.5-9.6,6.7L332.4,192.9L332.4,192.9z"/>
			<path class="st29" d="M333.9,161.2l-4.8,27c-0.4,2.2,1.1,4.3,3.3,4.7l8.8,1.6c-2.2-0.4-3.7-2.5-3.3-4.7l4.8-27
				c0.4-2.2,2.5-3.7,4.7-3.3l-8.8-1.6C336.4,157.5,334.3,159,333.9,161.2z"/>
		</g>
	</g>
</g>
</svg>
