<?xml version="1.0" encoding="utf-8"?>
<!-- Generator: Adobe Illustrator 24.0.3, SVG Export Plug-In . SVG Version: 6.00 Build 0)  -->
<svg version="1.1" id="Layer_1" xmlns="http://www.w3.org/2000/svg" xmlns:xlink="http://www.w3.org/1999/xlink" x="0px" y="0px"
	 width="480px" height="600px" viewBox="0 0 480 600" style="enable-background:new 0 0 480 600;" xml:space="preserve">
<style type="text/css">
	.st0{clip-path:url(#SVGID_2_);fill:#2176BB;}
	.st1{clip-path:url(#SVGID_2_);}
	.st2{fill:#404041;}
	.st3{fill:#CEECFB;}
	.st4{fill:#F8B5A4;}
	.st5{fill:#FAC4AB;}
	.st6{fill:#FFCC9B;}
	.st7{fill:#929497;}
	.st8{fill:#FAB888;}
	.st9{fill:#F7BE2B;}
	.st10{clip-path:url(#SVGID_4_);fill:#D13C69;}
	.st11{clip-path:url(#SVGID_4_);}
	.st12{fill:#994F3E;}
	.st13{fill:#FFF388;}
	.st14{fill:#FCDD64;}
	.st15{clip-path:url(#SVGID_6_);fill:#558A3D;}
	.st16{clip-path:url(#SVGID_6_);}
	.st17{fill:#1D4177;}
	.st18{fill:#FFFFFF;}
	.st19{fill:#AA7452;}
	.st20{fill:#BA7F5A;}
	.st21{fill:#754C28;}
	.st22{fill:#62C9E4;}
	.st23{fill:#3B2314;}
	.st24{clip-path:url(#SVGID_8_);fill:#674399;}
	.st25{clip-path:url(#SVGID_8_);}
	.st26{fill:#D0D2D3;}
	.st27{fill:#F05D6C;}
	.st28{fill:#AE7754;}
	.st29{clip-path:url(#SVGID_10_);fill:#FAAB31;}
	.st30{clip-path:url(#SVGID_10_);}
	.st31{fill:#21B5C4;}
	.st32{fill:#363B4C;}
	.st33{fill:#E5AB76;}
	.st34{fill:#F4BE84;}
	.st35{fill:#AF5F23;}
	.st36{fill:#29BDCC;}
	.st37{fill:#324C6B;}
	.st38{fill:#3E5D7C;}
	.st39{fill:#EE8E6F;}
	.st40{fill:#4EDDDD;}
	.st41{fill:#31C5D4;}
	.st42{fill:#FFB781;}
	.st43{fill:#542C23;}
	.st44{fill:#39170B;}
	.st45{fill:#FFC296;}
	.st46{fill:#78909C;}
	.st47{fill:#607D8B;}
	.st48{fill:#546E7A;}
	.st49{fill:#FFD740;}
	.st50{fill:#FFC400;}
	.st51{clip-path:url(#SVGID_12_);fill:#2176BB;}
	.st52{clip-path:url(#SVGID_12_);}
	.st53{clip-path:url(#SVGID_14_);fill:#D13C69;}
	.st54{clip-path:url(#SVGID_14_);}
	.st55{fill:#808184;}
	.st56{fill:#F9A93F;}
	.st57{fill:#FFAD84;}
	.st58{clip-path:url(#SVGID_16_);fill:#558A3D;}
	.st59{clip-path:url(#SVGID_16_);}
	.st60{fill:#0D3747;}
	.st61{fill:#926446;}
	.st62{fill:#F9F1B5;}
	.st63{clip-path:url(#SVGID_18_);fill:#674399;}
	.st64{clip-path:url(#SVGID_18_);}
	.st65{fill:#E5E5E5;}
	.st66{fill:#D13C69;}
</style>
<title>Artboard 23</title>
<g>
	<g>
		<g>
			<defs>
				<rect id="SVGID_1_" x="-0.2" y="-1.9" width="160.5" height="163.3"/>
			</defs>
			<clipPath id="SVGID_2_">
				<use xlink:href="#SVGID_1_"  style="overflow:visible;"/>
			</clipPath>
			<rect x="-3.2" y="-4.9" class="st0" width="172" height="172"/>
			<g class="st1">
				<path class="st2" d="M118.8,239.3c22.1-9.7-2.1-75.6,0.7-112.4c-2.5-17.7-5.3-29.7-39.9-29.7c-40.8,0-41.6,14.5-42,35.2
					c4.4,35.9-16.2,94.1,4.8,106.9c3.8,2.3,11.6,10.6,38.3,10.6C106.6,249.9,114.9,241.1,118.8,239.3z"/>
				<path class="st3" d="M99.9,249.2c11.2-9.7-1.1-85.4,0.4-122.3c-1.3-17.7-2.7-29.7-20.2-29.7c-20.7,0-16.9,11.9-18,34.6
					c2.2,35.9-11.6,104.5-0.9,117.4C63.1,251.5,97.9,250.9,99.9,249.2z"/>
				<path class="st4" d="M90.2,103.6c0,0-1.7,7.7-9.5,7.7c-8.4,0-9.5-7.7-9.5-7.7V80.9h19.1V103.6z"/>
				<g>
					<g>
						<g>
							<path class="st5" d="M63.2,56.6c0,4-3.3,7.3-7.3,7.3c-4,0-7.3-3.3-7.3-7.3c0-4,3.3-7.3,7.3-7.3
								C59.9,49.2,63.2,52.5,63.2,56.6z"/>
						</g>
						<g>
							<path class="st5" d="M111.7,56.2c0,4-3.3,7.3-7.3,7.3c-4,0-7.3-3.3-7.3-7.3c0-4,3.3-7.3,7.3-7.3
								C108.4,48.9,111.7,52.2,111.7,56.2z"/>
						</g>
					</g>
					<g>
						<g>
							<path class="st6" d="M54,59.9C54,39,55.5,13.6,80.4,13.6c24.9,0.1,26.2,25.5,26.2,46.4c-0.1,20.9-5.3,30.8-26.4,30.8
								C59.1,90.7,53.9,80.8,54,59.9z"/>
						</g>
					</g>
					<g>
						<path class="st7" d="M106.6,47c0,0-2.6,26.1-11.7,29.1c0.2-3.4-1.4-9.4-6.5-10.8c-4.5-1.3-7.2,1-8.2,2.1
							c-1-1.1-3.7-3.3-8.2-2.1c-5.1,1.4-6.7,7.4-6.5,10.8c-9.1-3-11.6-29-11.6-29c-2.6,6.7-1.9,30.1,2.8,35.8
							c3.7,4.6,21.3,11.2,23.5,11.2c2.2,0,18.6-4.7,22.3-9.3C107.3,79,109.2,53.6,106.6,47z M88.1,78.8c-1.7-0.3-5-0.9-7-1.9
							l-0.9,0.9l-0.9-0.9c-2,1-5.3,1.6-7,1.9c-0.6-3.4-0.7-9.4,0.1-10.7c1-1.6,6.2-0.6,7.7-0.2c1.6-0.4,6.7-1.4,7.7,0.2
							C88.8,69.4,88.7,75.4,88.1,78.8z"/>
					</g>
					<g>
						<path class="st8" d="M78,62.4c0,0,0.4-0.1,0.9-0.1c0.2,0,0.5-0.1,0.7-0.1c0.1,0,0.2,0,0.4,0c0.1,0,0.3,0,0.3,0.1
							c0.3,0,0.6,0,0.8,0c0.2,0,0.4,0.1,0.7,0c0.5,0,0.8,0.1,0.8,0.1s-0.2,0.4-0.5,0.7c-0.2,0.2-0.5,0.4-0.8,0.5
							c-0.3,0.2-0.6,0.2-0.9,0.2c-0.4,0-0.4-0.1-0.6-0.1c-0.2,0-0.3-0.1-0.5-0.2c-0.3-0.1-0.6-0.3-0.7-0.5
							C78.2,62.8,78,62.4,78,62.4z"/>
					</g>
				</g>
				<g>
					<path class="st5" d="M32,122.6c0,0-19.4,35.5-15.8,68.6c0,0,1.8,19.3,14,0.6c12.2-18.7,13.8-55.7,12.2-62.9
						C40.8,121.8,41.4,118,32,122.6z"/>
					<path class="st5" d="M31.5,189.5c4.5,11.2,6.6,33.1,11.9,53.8l-10.1,1.4c0,0-18.4-47.4-17.2-53.5"/>
				</g>
				<path class="st7" d="M55.4,56c0.7-0.6,3-7,3.2-8.3c0.5-2.6,1.5-4.9,1.1-7.4c-0.4-2.6-1.4-9-3.8-7.5c-6.6,4.1-4.6,11.7-3.4,16
					c0.2,0.8,1,3.8,1.5,4.6C54.5,54.3,54.6,55.4,55.4,56z"/>
				<path class="st7" d="M105.4,56c-0.7-0.6-3-7-3.2-8.3c-0.5-2.6-1.5-4.9-1.1-7.4c0.4-2.6,1.4-9,3.8-7.5c6.6,4.1,4.6,11.7,3.4,16
					c-0.2,0.8-1,3.8-1.5,4.6C106.4,54.3,106.2,55.4,105.4,56z"/>
				<path class="st2" d="M53.1,100.7C28.9,107,5,169.1,7.6,178.7c2.9,11,15,21.3,27,6.5c3.9-4.7,24.3-47.2,26.2-52.8"/>
				<path class="st2" d="M7.7,180.8c0.2,4.2,16.4,43.6,21.1,57.3c1.6,4.8-1.5,6.5,3.5,8.3c3.6,1.3,8.6,0.5,12.3-0.7
					c1.6-0.5,4-1.6,5.1-2.9c1.5-2.1-2-5.5-2.2-7.9c-0.6-9.4-13-59.2-19.9-61.7c-3.5-1.3-10.1-0.4-13.6,0.1
					C8.6,173.9,7.5,176,7.7,180.8z"/>
				<g>
					<path class="st5" d="M130.4,125.2c0,0,19.4,35.5,15.8,68.6c0,0-1.8,19.3-14,0.6c-12.2-18.7-13.8-55.7-12.2-62.9
						C121.6,124.4,120.9,120.6,130.4,125.2z"/>
					<path class="st5" d="M130.9,192.1c-4.5,11.2-6.6,33.1-11.9,53.8l10.1,1.4c0,0,18.4-47.4,17.2-53.5"/>
				</g>
				<path class="st2" d="M109.2,103.3c24.2,6.3,48.1,68.4,45.5,78c-2.9,11-15,21.3-27,6.5c-3.9-4.7-24.3-47.2-26.2-52.8"/>
				<path class="st2" d="M154.6,183.3c-0.2,4.2-16.4,43.6-21.1,57.3c-1.7,4.8,1.5,6.5-3.5,8.3c-3.6,1.3-8.6,0.5-12.3-0.7
					c-1.6-0.5-4-1.6-5.1-2.9c-1.5-2.1,2-5.5,2.2-7.9c0.6-9.4,13-59.2,19.9-61.7c3.5-1.3,10.1-0.4,13.6,0.1
					C153.7,176.5,154.9,178.5,154.6,183.3z"/>
				<g>
					<polygon class="st9" points="83.4,123.7 78.1,123.7 74.4,111.4 87.1,111.4 					"/>
					<polygon class="st9" points="78.1,123.7 83.4,123.7 87.1,207.8 80.8,220.7 74.4,207.8 					"/>
				</g>
				<path class="st3" d="M71.2,96.8l9.5,14.6l-7.6,6l-7.4-14.3C65.8,103.1,69.2,95.7,71.2,96.8z"/>
				<path class="st3" d="M90.3,96.2l-9.5,15.2l7.7,6l7.4-14.3C95.8,103.1,92.3,95.1,90.3,96.2z"/>
			</g>
		</g>
		<g>
			<defs>
				<rect id="SVGID_3_" x="160" y="-1.9" width="160.5" height="163.3"/>
			</defs>
			<clipPath id="SVGID_4_">
				<use xlink:href="#SVGID_3_"  style="overflow:visible;"/>
			</clipPath>
			<rect x="154.8" y="-4.9" class="st10" width="172" height="172"/>
			<g class="st11">
				<path class="st12" d="M230.3,13.6c-8.4,3.5-14.2,7.2-20.6,14.7c-5.3,6.2-7.8,15.3-6.4,24c1.3,7.4,4.3,12.8,3.8,20.9
					c-0.5,7.8-5.6,11.3-7.2,18.5c-1.8,7.9,1.1,14.4,3.1,21c2.1,6.8,0.7,9.1-1.6,15.5c-5.6,15.5,0.8,21.4,12.2,26.2
					c6.7,2.9,10.2,5.3,13.6,12.4c2.8,5.9,5.6,12.7,13,10.8c6.2-1.5,8.4-8.9,15.1-10.1c4.9-0.9,9.1,2.5,13.8,2.7
					c4.4,0.1,8.8-2.9,10.7-6.8c2-4.1,1.5-8,1.4-12.4c-0.1-5.5,2.6-10.2,2.9-15.6c0.4-7.4-2.2-14.3-1.2-21.8c1-7.7,3.4-15.4,2.4-23.3
					c-0.7-5.5-3.2-10.2-4.7-15.4c-2.2-7.4-0.6-15,0.1-22.4c0.7-7.4-0.2-14.2-3.3-21c-3.4-7.4-9.7-13.9-18.4-13.6
					C258.9,17.8,246.5,6.8,230.3,13.6z"/>
				<path class="st13" d="M283.2,252.4c0-11.3-10-25.4-9.8-40.3c0.3-27.8,8.9-57.8,8.4-75.5c-0.5-18.5,2.9-31.7-37.9-31.7
					c-42.1,0-38.7,15.3-39.1,36.6c-0.4,16.9,7.7,45.1,8.5,70.8c0.4,14.8-8.8,29-8.8,40.1C204.4,261.1,283.2,261.1,283.2,252.4z"/>
				<g>
					<path class="st5" d="M202.8,116.8c0,0-32.9,24.6-43.5,56.7c0,0-3.8,22,12.6,6.4c16.6-15.8,36.2-45.6,37.8-52.9
						C211.3,119.8,213.5,116.5,202.8,116.8z"/>
					<path class="st5" d="M170.2,169.1c7.4,10,20.2,28,33.1,45.5l-7.3,4.7c0,0-36.7-31.1-36.7-37.3"/>
					<path class="st5" d="M229.6,228.9c-2.1-0.9-7.1-3.5-9.8-4.8c0-0.1-1.9-0.9-2.7-1.9c0.1-0.1-3-2.5-4.2-4.1
						c-1.5,0.1-3.9,1.4-4.5,2.1l-7.8-9.3l-6.9,6.4l10.8,9.5c0.1,1,0.6,1.8,2.2,3.3c1,0.9,3.7,3.2,5.2,4c1.6,1.9,4.9,5.9,6.2,7.5
						c0.5,0.6,1.4,1.2,1.9,0.8c0.3-0.3,0.6-1.1,0-1.8c-1.4-1.9-3.2-4.6-5.1-7c0.1-0.1,0.2-0.2,0.4-0.3c2.6,2.3,6.1,5,7.9,6.5
						c0.8,0.7,1.8,0.5,2.1,0.1c0.4-0.6-0.1-1.6-0.8-2.3c-1.5-1.3-4.8-4.5-7-6.7c0.1-0.2,0.3-0.4,0.4-0.6c2.9,1.9,7.4,4.4,9.6,5.8
						c0.9,0.6,1.8,0.2,2.1-0.2c0.4-0.6-0.3-1.6-1.1-2.1c-2-1.2-6.6-4.6-9-6.3c0-0.1,0.1-0.2,0.1-0.3c2,0.9,5.7,2.3,9.4,3.9
						c1,0.5,1.8,0,2-0.5C231.3,230.2,230.5,229.3,229.6,228.9z"/>
				</g>
				<path class="st13" d="M217.3,110.4c-25.4-3.3-53.6,46.3-56,56.2c3.4,5.9,7.7,9.5,14.8,10.1c3.5-3.4,32.8-37,36-40.6"/>
				<g>
					<path class="st5" d="M283.7,116.8c0,0,32.9,24.6,43.5,56.7c0,0,3.8,22-12.6,6.4c-16.6-15.8-36.2-45.6-37.8-52.9
						C275.2,119.8,273,116.5,283.7,116.8z"/>
					<path class="st5" d="M316.3,169.1c-7.4,10-20.2,28-33.1,45.5l7.3,4.7c0,0,36.7-31.1,36.7-37.3"/>
					<path class="st5" d="M256.9,228.9c2.1-0.9,7.1-3.5,9.8-4.8c0-0.1,1.9-0.9,2.7-1.9c-0.1-0.1,3-2.5,4.2-4.1
						c1.5,0.1,3.9,1.4,4.5,2.1l7.8-9.3l6.9,6.4l-10.8,9.5c-0.1,1-0.6,1.8-2.2,3.3c-1,0.9-3.7,3.2-5.2,4c-1.6,1.9-4.9,5.9-6.2,7.5
						c-0.5,0.6-1.4,1.2-1.9,0.8c-0.3-0.3-0.6-1.1,0-1.8c1.5-1.9,3.2-4.6,5.1-7c-0.1-0.1-0.2-0.2-0.4-0.3c-2.6,2.3-6.1,5-7.9,6.5
						c-0.8,0.7-1.8,0.5-2.1,0.1c-0.4-0.6,0.1-1.6,0.8-2.3c1.5-1.3,4.8-4.5,7-6.7c-0.1-0.2-0.3-0.4-0.4-0.6c-2.9,1.9-7.4,4.4-9.6,5.8
						c-0.9,0.6-1.8,0.2-2.1-0.2c-0.4-0.6,0.3-1.6,1.1-2.1c2-1.2,6.6-4.6,9-6.3c0-0.1-0.1-0.2-0.1-0.3c-2,0.9-5.7,2.3-9.4,3.9
						c-1,0.5-1.8,0-2.1-0.5C255.2,230.2,256,229.3,256.9,228.9z"/>
				</g>
				<path class="st13" d="M269.2,110.4c25.4-3.3,53.6,46.3,56,56.2c-3.4,5.9-7.7,9.5-14.8,10.1c-3.5-3.4-32.8-37-36-40.6"/>
				<path class="st8" d="M261.7,113.2c0,5.4-14.1,25.5-18.2,25.5c-4.1,0-18.1-20.1-18.1-25.5c0-5.4,8.1-9.8,18.2-9.8
					C253.6,103.4,261.7,107.7,261.7,113.2z"/>
				<path class="st8" d="M254.1,111.4c0,0-1.8,8.2-10.1,8.2c-8.9,0-10.2-8.2-10.2-8.2V87.2h20.3V111.4z"/>
				<g>
					<g>
						<g>
							<path class="st6" d="M226.6,63.7c0,3.4-2.7,6.1-6.1,6.1c-3.4,0-6.1-2.7-6.1-6.1c0-3.4,2.7-6.1,6.1-6.1
								C223.8,57.6,226.6,60.3,226.6,63.7z"/>
						</g>
					</g>
					<g>
						<g>
							<path class="st6" d="M273.6,63.7c0,3.4-2.7,6.1-6.1,6.1c-3.4,0-6.1-2.7-6.1-6.1c0-3.4,2.7-6.1,6.1-6.1
								C270.9,57.6,273.6,60.3,273.6,63.7z"/>
						</g>
					</g>
					<g>
						<g>
							<path class="st6" d="M219.6,67c0.1-20.8-0.8-46.1,24-46c24.8,0.1,23.9,25.4,23.8,46.2c-0.1,20.8-21.8,30.5-24,30.5
								C241.2,97.7,219.6,87.8,219.6,67z"/>
						</g>
					</g>
					<g>
						<path class="st8" d="M241.3,69.5c0,0,0.4-0.1,0.8-0.1c0.2,0,0.5-0.1,0.7-0.1c0.1,0,0.2,0,0.4,0c0.1,0,0.3,0,0.3,0.1
							c0.3,0,0.6,0,0.8,0c0.2,0,0.4,0.1,0.7,0c0.5,0,0.8,0.1,0.8,0.1s-0.2,0.4-0.5,0.7c-0.2,0.2-0.5,0.4-0.8,0.5
							c-0.3,0.2-0.6,0.2-0.9,0.2c-0.4,0-0.4-0.1-0.6-0.1c-0.2,0-0.3-0.1-0.5-0.2c-0.3-0.1-0.6-0.3-0.7-0.5
							C241.5,69.9,241.3,69.5,241.3,69.5z"/>
					</g>
				</g>
				<g>
					<path class="st12" d="M253,36.9c0.4,0.3-7.8,12.7-18.7,11.4c2-0.2,6-2.4,7.9-5c-5,3.6-11.2,4.9-14.7,4.3c1.5-1.2,3.8-2.9,4-5.1
						c-1.7,2.3-9.1,8.6-10.2,11.4c-1,2.6-1.5,6.3-2.8,8.7c-2.1-1.6-2.4-5.9-3.2-8.4c-2.6-7.5-0.2-16.1,4.3-22.3c1.9-2.6,4-5,6.5-7
						c2-1.6,4.2-3,6.4-4.2c5.7-3,19-7.9,23.3,0c0.4,0.7,6.5,6.1,8.7,8.6c3.4,3.8,5.7,9,5.9,14.2c0.1,3.5-2.7,15.3-5,19.3
						c0.1-1.7-0.8-9.8-3.4-15.5c-0.4-0.9-0.9-1.8-1.4-2.7c-0.3-0.5-1.3-1.7-1.3-2.1c0,1.3,0.1,2.9-0.2,4.1c-0.4-1.8-1.2-3.2-2.1-4.8
						c-0.1,1.1-0.5,3-1.1,4c0-1.7-0.1-3.5-0.7-5.1C254.9,39.4,254.1,37.7,253,36.9z"/>
				</g>
				<path class="st14" d="M219.6,69.4c0,1.9-0.5,3.4-1.2,3.4c-0.7,0-1.2-1.5-1.2-3.4c0-1.9,0.5-3.4,1.2-3.4
					C219.1,65.9,219.6,67.5,219.6,69.4z"/>
				<path class="st14" d="M270.6,69.4c0,1.9-0.5,3.4-1.2,3.4c-0.7,0-1.2-1.5-1.2-3.4c0-1.9,0.5-3.4,1.2-3.4
					C270.1,65.9,270.6,67.5,270.6,69.4z"/>
			</g>
		</g>
		<g>
			<defs>
				<rect id="SVGID_5_" x="319.3" y="-1.9" width="160.5" height="163.3"/>
			</defs>
			<clipPath id="SVGID_6_">
				<use xlink:href="#SVGID_5_"  style="overflow:visible;"/>
			</clipPath>
			<rect x="312.8" y="-4.9" class="st15" width="172" height="172"/>
			<g class="st16">
				<path class="st17" d="M361.7,247.4c0-31.7-8.7-86.9-4.8-113.2c2.7-17.9,9.2-29.9,42.3-29.9c39.1,0,44,14.6,44.5,35.5
					c0.6,26-8.9,78.2-8.9,107.7C434.9,255.8,361.7,255.8,361.7,247.4z"/>
				<path class="st18" d="M384.7,253.3c0,0-3.5-92.9-1.9-119.2c1.1-17.9,3.6-29.9,16.8-29.9c15.5,0,17.5,14.6,17.7,35.5
					c0.2,26-3.5,113.5-3.5,113.5s-6.4,0.6-14.6,0.5C393.1,253.7,384.7,253.3,384.7,253.3z"/>
				<path class="st19" d="M390.1,110.4c0,0,1.6,7.4,9.1,7.4c8,0,9.1-7.4,9.1-7.4V88.6h-18.2V110.4z"/>
				<g>
					<g>
						<g>
							<path class="st20" d="M416,65.3c0,3.9,3.1,7,7,7c3.9,0,7-3.1,7-7c0-3.9-3.1-7-7-7C419.1,58.3,416,61.5,416,65.3z"/>
						</g>
						<g>
							<path class="st20" d="M369.6,65c0,3.9,3.1,7,7,7c3.9,0,7-3.1,7-7c0-3.9-3.1-7-7-7C372.7,58,369.6,61.1,369.6,65z"/>
						</g>
					</g>
					<g>
						<g>
							<path class="st20" d="M422.6,68.5c-0.1-20,0.7-44.4-23.1-44.3c-23.9,0.1-22.9,24.4-22.9,44.4c0.1,20,17.6,29.5,23.1,29.4
								C405.1,98.1,422.7,88.5,422.6,68.5z"/>
						</g>
					</g>
					<g>
						<path class="st21" d="M401.7,71c0,0-0.2,0.3-0.5,0.6c-0.2,0.1-0.4,0.3-0.7,0.4c-0.1,0.1-0.3,0.1-0.5,0.2
							c-0.2,0-0.2,0.1-0.6,0.1c-0.3-0.1-0.5-0.1-0.8-0.2c-0.3-0.1-0.6-0.3-0.7-0.5c-0.4-0.3-0.5-0.7-0.5-0.7s0.4-0.1,0.8-0.1
							c0.2,0,0.4-0.1,0.6,0c0.2,0,0.5,0,0.8,0c-0.1,0,0.2,0,0.2-0.1c0.1,0,0.2,0,0.3,0c0.2,0,0.5,0.1,0.7,0.1
							C401.4,70.8,401.7,71,401.7,71z"/>
					</g>
				</g>
				<g>
					<polygon class="st22" points="396.7,129.5 401.8,129.5 405.3,117.7 393.1,117.7 					"/>
					<polygon class="st22" points="401.8,129.5 396.7,129.5 393.1,210 399.2,222.3 405.3,210 					"/>
				</g>
				<path class="st18" d="M408.3,103.7l-9.1,14l7.3,5.8l7-13.7C413.6,109.8,410.3,102.7,408.3,103.7z"/>
				<path class="st18" d="M390.1,103.2l9.1,14.6l-7.4,5.8l-7-13.7C384.8,109.8,388.2,102.2,390.1,103.2z"/>
				<path class="st23" d="M421.1,61.7c2.4,0.6,5.6-10.1,5.9-11.4c1-3.7,1.9-7.7,1.9-11.6c0.1-4.7-2.6-8-3.5-12.3
					c-0.4-1.9-0.2-3.1-1.2-4.9c-1.8-2.8-3-5.5-6.4-6.5c-3.6-1.1-6-3.9-9.8-4.6c-3.9-0.7-7.9-0.4-11.8-0.2c-2.2,0.1-4.3,1.8-6.5,2.4
					c-2.8,0.7-5.6,0.9-8.3,2.1c-5.8,2.7-4.9,8.1-8,12.7c-3.8,5.7-1.2,15.4-0.1,21.6c0.7,3.8,1.7,8.1,3.8,11.4c0,0.1,1,1.6,1.1,1.5
					c0.8-0.7,0.6-3.3,0.9-4.4c0.3-1.1,0.5-1.7,0.6-2.9c0-1.1-0.1-2.3,0-3.4c0.4-5.4,1.1-11.4,5.8-15.3c0.3-0.3,1.5-0.5,2-0.9
					c0.8-0.6,1.1-1.5,2-2c1.6-0.8,3.7-1.5,5.3-2.2c0.3,0.5,0.4,1,0.6,1.5c0.4,1,0.6,1.5,1.6,1.8c0.7,0.2,0.9,0,1.6,0.5
					c0.8,0.7,1,1.7,2.1,1.1c0.3-0.2,0.4-0.9,0.8-1c0.9-0.3,2.2,0.3,3.3-0.4c0.8-0.5,1.2-1.9,1.9-2.2c1.9-0.8,4.8,2.2,6.4,3.1
					c0.8,0.5,1.5,0.2,2,0.8c0.4,0.4,0.8,2,1.1,2.6c1.3,2.5,1.9,4.5,2.5,7.2c0.2,0.7,0.1,0.5,0.1,1.3c0,1.8,0.8,2.8,1,4.3
					c0.2,1.5,0,2.6,0,4.1c0.1,1.7-0.1,3.7,0.4,5.2C420.5,61.3,420.8,61.6,421.1,61.7z"/>
				<g>
					<path class="st20" d="M447.4,131.4c0,0,18.6,32.6,14,64.1c0,0-2.4,18.4-13.4,0.1c-11-18.3-11.2-53.8-9.5-60.6
						C440.2,128.2,438.5,126.7,447.4,131.4z"/>
					<path class="st20" d="M446.7,193.4c-4.7,10.6-7.4,31.4-13.3,51l9.6,1.7c0,0,19.3-44.7,18.3-50.5"/>
				</g>
				<path class="st17" d="M431.4,110.6c18.9,9.2,40.8,69.3,37.9,78.4c-3.3,10.4-15.2,19.7-26.1,5.1c-3.5-4.7-21.2-46.1-22.8-51.6"/>
				<path class="st17" d="M469.2,191c-0.4,4-17.5,41-22.6,53.9c-1.8,4.5,1.2,6.2-3.7,7.8c-3.5,1.1-8.2,0.1-11.7-1.2
					c-1.5-0.6-3.8-1.7-4.7-3c-1.4-2,2.2-5.2,2.4-7.4c1-8.9,15-56,21.6-58.2c3.4-1.1,9.7,0.1,13,0.7
					C468.6,184.3,469.6,186.4,469.2,191z"/>
				<g>
					<path class="st20" d="M353.2,131.4c0,0-18.6,32.6-14,64.1c0,0,2.4,18.4,13.4,0.1c11-18.3,11.2-53.8,9.5-60.6
						C360.3,128.2,362.1,126.7,353.2,131.4z"/>
					<path class="st20" d="M353.9,193.4c4.7,10.6,7.4,31.4,13.3,51l-9.6,1.7c0,0-19.3-44.7-18.3-50.5"/>
				</g>
				<path class="st17" d="M369.1,110.6c-18.9,9.2-40.8,69.3-37.9,78.4c3.3,10.4,15.2,19.7,26.1,5.1c3.5-4.7,21.2-46.1,22.8-51.6"/>
				<path class="st17" d="M331.4,191c0.4,4,17.5,41,22.6,53.9c1.8,4.5-1.2,6.2,3.7,7.8c3.5,1.1,8.2,0.1,11.7-1.2
					c1.5-0.6,3.8-1.7,4.7-3c1.4-2-2.2-5.2-2.4-7.4c-1-8.9-15-56-21.6-58.2c-3.4-1.1-9.7,0.1-13,0.7C332,184.3,330.9,186.4,331.4,191
					z"/>
			</g>
		</g>
	</g>
	<g>
		<g>
			<defs>
				<rect id="SVGID_7_" x="-0.2" y="151.4" width="160.5" height="163.3"/>
			</defs>
			<clipPath id="SVGID_8_">
				<use xlink:href="#SVGID_7_"  style="overflow:visible;"/>
			</clipPath>
			<rect x="-3.2" y="144.1" class="st24" width="172" height="172"/>
			<g class="st25">
				<g>
					<path class="st26" d="M47.3,214.8c-1,1-2.4,0.8-3.4,1.6c-2.5,1.9-2,5.5-4.4,7.5c-1.3,1.1-2.2,1.2-2.7,2.9
						c-0.5,1.6,0.1,3.5-0.4,5c-0.3,1.1-0.9,1.3-1,2.6c-0.1,1.4,0.7,3,0.1,4.3c-0.7,1.4-1.9,1.5-2.3,2.9c-0.3,1.2,0,3.7,0.2,5
						c0.4,2.1,0.8,4.8,1.5,6.7c2.3,0.3,4.3,5.8,5.4,7.4c1.2,1.8,0.1,3.7,0.9,5.6c0.8,1.8,3.3,2.8,4.5,4.5c1.1,1.6,0.6,3.6,1.9,5.2
						c1.5,1.7,4.3,2.7,6.1,4.2c2,1.6,2,3.8,4.6,4.8c3.8,1.4,6.1,0.1,9.3,2.6c1.7,1.3,3.3,2.4,5.6,1.7c1.8-0.5,2.5-1.5,4.6-1.6
						c3.7-0.2,6.9,1.7,10.6,0.9c3.5-0.8,4.8-4.3,8.5-4.9c2.9-0.5,5.7,0.3,7.1-2.9c1.3-2.9,0.5-3.3,4-4.4c6.2-2,5.4-7.4,9.6-10.7
						c3.4-2.6,3.4-3.5,3-7.3c-0.2-2.2-1.4-7-0.5-9c0.6-1.4,1.8-1,2-2.9c0.3-3.1-1.6-4.2-0.5-7.8c0.4-1.3,1.3-2.8,0.9-4.3
						c-0.4-1.5-1.8-2.4-2.2-4.1c-0.5-2.7,0.9-6.3-0.7-8.4c-1-1.3-3.2-1.6-4.3-2.9c-1.2-1.4-1.1-3.4-1.6-5.1c-1.2-4.3-5-2.2-8-4.6
						c-1.9-1.5-2.3-4.2-3.9-6c-2.1-2.4-2.5-1.6-4.9-1.2c-3.3,0.5-3.8-1.4-6.6-2.6c-2.3-1-2.9,0.1-4.9,0.7c-3.1,1-2.7-0.8-5.3-1.5
						c-1.6-0.4-2.3,0.6-3.9,1c-2.7,0.7-4.7-1.4-7.1-1.3c-1.9,0.1-2.2,1.5-3.8,2.5c-3.3,2.1-6.7-0.2-8.9,3.2c-1.1,1.8-1.1,2.3-3,3.1
						c-1.8,0.8-2.9,0.6-4,2.4c-0.8,1.3-0.8,3.3-1.7,4.6C47.5,214.6,47.4,214.7,47.3,214.8z"/>
				</g>
				<path class="st27" d="M39.9,402.5c-2.6-2.1-4.5-5-5.2-8.6c-0.9-4.4,0.2-10.1,1.1-14.2c1.5-7.3,8.8-35.4,9.9-52.7
					c0.3-5.3-5.1-24.5-4.9-31.4c0.5-17.2-3-29.4,38.8-29.4c43.2,0,39.7,14.2,40.1,34c0.2,10.1-2.1,20-4,29.9
					c-1.8,9.4,8.5,41.9,10.6,49.7c2.6,9.7-0.3,26.2-14,27.4c-6.4,0.6-12.7,1.3-19.1,1.6c-13.1,0.6-26.2,0.5-39.3-0.9
					C48.9,407.2,43.7,405.6,39.9,402.5z"/>
				<path class="st18" d="M55.5,408c0,0,6.2-28.5,6.1-42.3c-0.2-25.8-5.5-53.7-5.2-70.1c0.3-17.2-1.8-29.4,23.3-29.4
					c25.9,0,23.8,14.2,24.1,34c0.2,15.7-4.8,41.9-5.2,65.7c-0.3,13.8,5.4,42.1,5.4,42.1s-12,1.1-24.1,1.1
					C67.8,409.1,55.5,408,55.5,408z"/>
				<path class="st27" d="M108,270c25.5,6.2,37.1,62.9,35.8,72.3c-5.4,3.9-10.8,5.4-17.8,3.5c-2.2-4.2-19.7-48.4-21.6-52.5"/>
				<path class="st28" d="M62.2,274.9c0,5.6,13.8,23.3,17.8,23.3c4,0,17.7-17.8,17.7-23.3c0-5.6-8-10.1-17.8-10.1
					C70.2,264.8,62.2,269.3,62.2,274.9z"/>
				<path class="st28" d="M69.2,273c0,0,1.8,8.4,10.4,8.4c9.1,0,10.4-8.4,10.4-8.4v-24.8H69.2V273z"/>
				<g>
					<g>
						<g>
							<path class="st20" d="M97.4,229.9c0,3.5,2.8,6.3,6.3,6.3c3.5,0,6.3-2.8,6.3-6.3c0-3.5-2.8-6.3-6.3-6.3
								C100.2,223.7,97.4,226.5,97.4,229.9z"/>
						</g>
					</g>
					<g>
						<g>
							<path class="st20" d="M49.2,229.9c0,3.5,2.8,6.3,6.3,6.3c3.5,0,6.3-2.8,6.3-6.3c0-3.5-2.8-6.3-6.3-6.3
								C52,223.7,49.2,226.5,49.2,229.9z"/>
						</g>
					</g>
					<g>
						<g>
							<path class="st20" d="M105.5,233.3c-0.1-21.3-0.2-47.3-25.7-47.2c-25.5,0.1-25.5,26.1-25.4,47.4c0.1,21.3,21,31.3,25.6,31.3
								C84.7,264.8,105.6,254.6,105.5,233.3z"/>
						</g>
					</g>
					<g>
						<path class="st28" d="M82.4,235.9c0,0-0.2,0.3-0.5,0.7c-0.2,0.2-0.5,0.3-0.8,0.5c-0.2,0.1-0.3,0.1-0.5,0.2
							c-0.2,0-0.2,0.1-0.6,0.1c-0.3-0.1-0.6-0.1-0.9-0.2c-0.3-0.1-0.6-0.4-0.8-0.5c-0.4-0.4-0.5-0.7-0.5-0.7s0.4-0.1,0.9-0.1
							c0.2,0,0.5-0.1,0.7,0c0.2,0,0.6,0,0.9,0c-0.1,0,0.2,0,0.3-0.1c0.1,0,0.2,0,0.4,0c0.2,0,0.5,0.1,0.7,0.1
							C82,235.8,82.4,235.9,82.4,235.9z"/>
					</g>
				</g>
				<path class="st27" d="M143.7,340.2c0.8,0.8,1.2,54.9-0.9,60c0,0-10.5,3.8-12-2.5c0,0-2.8-47-5.8-54.7
					C125,343.1,136.3,332.4,143.7,340.2z"/>
				<path class="st27" d="M47.7,274c-25.5,6.2-37.1,62.9-35.8,72.3c5.4,3.9,10.8,5.4,17.8,3.5c2.2-4.2,19.7-48.4,21.6-52.5"/>
				<path class="st27" d="M12.1,344.2c-0.8,0.8-1.2,54.9,0.9,60c0,0,10.5,3.8,12-2.5c0,0,2.8-47,5.8-54.7
					C30.8,347.1,19.5,336.4,12.1,344.2z"/>
				<path class="st14" d="M105,236.6c0,1.9,0.5,3.5,1.2,3.5c0.7,0,1.2-1.6,1.2-3.5c0-2-0.5-3.5-1.2-3.5
					C105.5,233.1,105,234.7,105,236.6z"/>
				<path class="st14" d="M52.7,236.6c0,1.9,0.6,3.5,1.2,3.5c0.7,0,1.2-1.6,1.2-3.5c0-2-0.5-3.5-1.2-3.5
					C53.3,233.1,52.7,234.7,52.7,236.6z"/>
				<path class="st26" d="M74.6,204.5c4.5,0.6,4.6-3,5.3-2.3c1,1,0.5,1.9,1.9,2.7c1.2,0.8,2.1,0.3,3.3,0.4c1.7,0.2,1.1,1.1,2.4,2.2
					c1.9,1.6,6.3-1.1,6.8,3.2c0.9,0.3,2-0.1,2.8,0.2c1,0.5,1.1,1.9,1.7,2.8c1,1.6,2,3.2,2.8,5c0.7,1.3,2.9,8.2,1.4,8.8
					c0,0,0,0.5,0,0.5c1.5,0.4,2.6-2.2,3.3-3.3c0.5-0.7,1.1-1.3,1.6-2.1c1.2-1.9,1.3-2.3,0.8-4.1c-0.2-0.9-0.8-1.4-0.3-2.4
					c0.4-1.1,1.2-0.8,1.3-2.2c0.2-2.4-1.1-3.3-0.3-6c0.3-1,0.9-2.2,0.6-3.3c-0.3-1.2-1.3-1.9-1.5-3.2c-0.3-2.1,0.6-4.9-0.5-6.5
					c-0.7-1-2.2-1.3-3-2.2c-0.8-1.1-0.7-2.6-1.1-3.9c-0.8-3.3-3.4-1.7-5.5-3.5c-1.3-1.1-1.6-3.3-2.7-4.7c-1.4-1.9-1.7-1.3-3.4-1
					c-2.2,0.4-2.6-1.1-4.5-2c-1.6-0.8-2,0.1-3.3,0.6c-2.1,0.8-1.8-0.6-3.7-1.1c-1.1-0.3-1.6,0.5-2.7,0.8c-1.8,0.5-3.2-1.1-4.8-1
					c-1.3,0.1-1.5,1.2-2.6,1.9c-2.2,1.6-4.6-0.2-6.1,2.5c-0.8,1.4-0.7,1.8-2.1,2.4c-1.3,0.6-2,0.4-2.8,1.9c-0.6,1-0.6,2.6-1.2,3.5
					c-0.7,1.1-1.8,0.8-2.6,1.5c-1.7,1.4-1.4,4.2-3,5.8c-0.9,0.8-1.5,0.9-1.9,2.3c-0.3,1.2,0,2.7-0.3,3.9c-0.2,0.8-0.6,1-0.7,2
					c-0.1,1.1,0.5,2.3,0.1,3.3c-0.5,1.1-1.3,1.2-1.5,2.3c-0.2,0.9,0,2.9,0.2,3.8c0.2,1.6,0.5,3.7,1,5.2c1.2,0.2,1.5,1.9,2.1,2.9
					c0.8,1.3,2.1,1.8,2.2,3.5c0.1,0,0.4,0,0.4,0c0.2-0.7,0-1.6,0.2-2.2c0.2-0.6,0.8-0.8,1-1.3c0.4-1.2,0.2-3.2,0.4-4.5
					c0.3-1.5,0.1-3,1-4.2c0.5-0.7,1-0.6,1.4-1.4c0.4-0.7,0.3-1.8,0.9-2.4c0.5-0.6,1.3-0.3,1.8-0.8c0.7-0.5,0.9-1.7,1.5-2.2
					c0.6-0.5,1.1-0.2,1.5-0.5c1.3-0.8,0.7-2.3,1.6-3.3c1.9-2.1,1.1-4.1,1.1-4.1S68.2,203.5,74.6,204.5z"/>
			</g>
		</g>
		<g>
			<defs>
				<rect id="SVGID_9_" x="160" y="151.4" width="160.5" height="163.3"/>
			</defs>
			<clipPath id="SVGID_10_">
				<use xlink:href="#SVGID_9_"  style="overflow:visible;"/>
			</clipPath>
			<rect x="152.8" y="143.1" class="st29" width="172" height="172"/>
			<g class="st30">
				<path class="st31" d="M201.3,266.7c0,0-16,7.4-30.4,65.7l-35.1-6.4l-2.8,6c0,0,19.1,29.4,50.3,24.9
					C183.3,356.8,231.3,298.4,201.3,266.7z"/>
				<polygon class="st32" points="142.1,333.3 141.7,330.4 130.7,312.4 129.7,312.9 139.6,331.1 				"/>
				<path class="st33" d="M128.5,332.5c0,0-1.3-1-1.3-1.8c0-0.8,1-1.4,1-1.4s-1.2-0.8-1.1-2.1c0.1-1.5,1.4-1.5,1.4-1.5
					s-0.9-1.7-0.2-2.6c0.7-0.9,2.1-0.9,2.1-0.9s-0.3-1.3,0.7-2c2.2-1.4,11.4,5.7,10.1,7.2s-6.5-2.8-6.7-2.2
					c-0.2,0.6,7.9,3.4,7.2,5.3c-0.6,1.8-8.1-2.4-8.1-2.4s7,2.8,6,4.5c-1,1.6-7.3-1.3-7.3-1.3s3.3,1.2,3.1,2.2
					C135.3,334.3,131,333.6,128.5,332.5z"/>
				<path class="st34" d="M196,371.7c0,0-1.8-1.4-6.6-3.7l2.7,5.5L196,371.7z"/>
				<path class="st35" d="M254.6,248.8c0,0,8.4-4.6,12.3-8.8c4-4.2,14.4-41.4,11.9-46.8c-2.5-5.3-8.2-8.2-8.2-8.2l8.6-2.1l-11.5-2.5
					c0,0-3.7-13.7-14.8-15.6l2.5,5.3c0,0-16-7.4-28.3-3.7l2.9,2.5c0,0-20.5-0.2-14.4,15.6s6.8,5.5,5.3,24.4
					C222.7,215.4,254.6,248.8,254.6,248.8z"/>
				<path class="st36" d="M204.7,387c-3-49.8-8.7-59.6-11.2-73.2c-2.5-13.5-3.7-36.9,7.8-47.2c16.7-8.7,73.3-0.6,81.6,10.1
					c0,0-1.7,23.2-8.4,46.8c-12.1,42.8-11.5,65.8-11.5,65.8S214.5,387,204.7,387z"/>
				<path class="st37" d="M282.9,276.8c-1.7-2.2-5.4-4.2-10.3-6.1c-18.1,10.4-21.4,43.6-21.4,43.6l-48.6-5.3
					c-4-17.1-5.1-34.9,8.9-45.2c-4.1,0.6-7.6,1.5-10.1,2.8c-11.9,10.7-10.3,33.7-7.8,47.2c2.5,13.5,8.2,23.4,11.2,73.2
					c4.3,0,16.8,8.3,28.7,8.8c15,0.6,29.5-6.4,29.5-6.4s-0.6-23,11.5-65.8C281.2,299.9,282.9,276.8,282.9,276.8z"/>
				<path class="st38" d="M202.8,318.1l47.9,4.9l-1.4,32.3l-41.3-3C208,352.3,206.7,330.4,202.8,318.1z"/>
				<path class="st39" d="M259.3,267.6l-30.5,18.2c0,0-9.7-21.1-10.9-23.3c0,0,2.2-0.6,20.3,1.1
					C256.4,265.3,259.3,267.6,259.3,267.6z"/>
				<polygon class="st39" points="258.6,236.5 255.5,269.3 220.8,266.1 225.9,236.5 				"/>
				<path class="st18" d="M219.5,263.6c0,0,1.1,12.1,12.7,13.1c11.7,1.1,23.8-9.8,23.8-9.8S215.9,312,219.5,263.6z"/>
				<polygon class="st40" points="228.8,285.8 236.2,294 259.3,267.6 256.3,260.4 				"/>
				<polygon class="st40" points="217.9,262.6 221.8,258.5 228.8,285.8 220.5,291.5 				"/>
				<path class="st6" d="M211.8,247.3c0.2,2.9,4.7,9.3,7.9,11.2c2.2,1.3,7.2,2.7,9.7,3.1c5.5,0.8,15.3-1.3,20.1-4.6
					c4.8-3.4,15.9-31.6,14.9-53.5c-0.4-7.6-31.1-22.5-39.4-11c-2.3,3.1-4.1,19.4-5.7,26.5C217.5,226.2,211.6,244.4,211.8,247.3z"/>
				<path class="st41" d="M282.9,276.8c0,0-20.4-7.9-28.1,67.6l-58.7,27.4l1.8,5.4c0,0,48.6,11.4,76.6-11.5
					C274.5,365.7,309,296.2,282.9,276.8z"/>
				<path class="st42" d="M196,371.7c0,0-6.4,1.9-10.4,2.2c-4,0.3-9.7-0.1-9.4,1.4c0.3,1.6,8.9,0.2,9.2,1.2
					c0.3,0.9-10.1,0.5-9.9,2.1c0.2,1.6,10.1,0.4,10.3,1.2c0.3,0.8-9,0.6-8.5,2c0.5,1.4,9.5-0.5,9.6,0.3c0.1,0.8-6.1,0.6-5.8,1.7
					c0.3,1,14.9,1.9,16.5-7.7L196,371.7z"/>
				<polygon class="st35" points="242.3,208.5 240.7,212.3 253,219 254.2,215.5 				"/>
				<polygon class="st35" points="228.1,206.4 228.9,210.5 219.8,212.8 219.2,209.1 				"/>
				<g>
					<path class="st43" d="M219.8,239.4l18.1,1.9c0,0-3.6,9.9-10.1,9.2C219.8,249.6,219.8,239.4,219.8,239.4z"/>
					<path class="st18" d="M222.4,240.9l0.9,2.3c0,0,0.8,2.6,4.6,2.6c3.8,0,7.2-2.1,7.2-2.1l0.6-1.4L222.4,240.9z"/>
				</g>
				<g>
					<path class="st18" d="M228.9,222.4c0.1-2.5-0.3-5.5-4.2-6.6c-3.9-1-5.7,2.5-5.6,3.7c0,1.3,1.1,3.2,3.3,3.4c2.1,0.2,4,0,4.8,0.1
						C227.9,223.2,228.8,222.9,228.9,222.4z"/>
					<circle class="st44" cx="224.3" cy="219.3" r="3.2"/>
					<path class="st18" d="M225.8,221.4c0,0.8-0.7,1.4-1.5,1.4c-0.8,0-1.4-0.7-1.4-1.5c0-0.8,0.7-1.4,1.5-1.4
						C225.2,219.9,225.8,220.6,225.8,221.4z"/>
					<path class="st18" d="M238.8,222.7c0.1-2.5,0.6-5.5,4.6-6.3c3.9-0.8,5.5,2.8,5.4,4.1c-0.2,1.3-1.3,3.1-3.5,3.2
						c-2.2,0.1-4-0.2-4.8-0.1C239.7,223.6,238.8,223.2,238.8,222.7z"/>
					<path class="st44" d="M240.5,219.6c0,1.8,1.3,3.3,3.1,3.3c1.8,0,3.3-1.3,3.3-3.1c0-1.8-1.3-3.3-3.1-3.3
						C242,216.5,240.6,217.9,240.5,219.6z"/>
					<path class="st18" d="M242.2,221.7c0,0.8,0.6,1.5,1.4,1.5c0.8,0,1.5-0.6,1.5-1.4c0-0.8-0.6-1.5-1.4-1.5
						C242.9,220.2,242.3,220.9,242.2,221.7z"/>
				</g>
				<path class="st39" d="M232.1,217.7c-1.9,6.4-5.7,14.1-5.1,14.9c0.5,0.8,4.4,0.1,6.5-0.2c0,0.4,0,1.4,0,1.4s-7.8,1.4-8.5,0.4
					c-0.7-1,5.5-12.2,6.2-18.1C231.4,215.5,231.9,215.9,232.1,217.7z"/>
				<path class="st45" d="M267.9,235.7c-5.6,6.6-13.2,8.5-13.1,2.5c0.1-6.1,9.7-19.5,12.2-15.1C269.6,227.5,271.1,232.1,267.9,235.7
					z"/>
				<path class="st39" d="M266.3,235.3c-4.1,4.8-9.7,6.2-9.6,1.8c0.1-4.5,7.1-14.3,9-11C267.5,229.2,268.6,232.6,266.3,235.3z"/>
				<path class="st45" d="M261.2,237.2c-2,2.4-4.7,3.1-4.7,0.9c0-2.2,3.5-7,4.4-5.4C261.8,234.3,262.4,235.9,261.2,237.2z"/>
				<path class="st35" d="M250.2,191.7c0,0,10,0.8,11.2,19.7c0.7,12.1-4.8,22.7-4.8,22.7l2,0l2.3-3.4
					C260.9,230.7,279.3,186.3,250.2,191.7z"/>
				<g>
					<path class="st46" d="M246.2,246.9c-0.1,0.8,0.4,1.5,1.2,1.7l10.7,1.7c1.8,0.3,3.6-0.9,3.9-2.7l1.9-10c0.1-0.8-0.4-1.5-1.2-1.7
						c-0.8-0.1-1.5,0.4-1.7,1.2l-0.6,3.5c-0.1,0.3-1.6,7-1.9,6.9l-10.7-1.7C247.1,245.6,246.3,246.1,246.2,246.9z"/>
					<path class="st47" d="M235.8,246.6l0.5-3.1c0.2-0.9,1-1.4,1.8-1.3l8.5,1.5c0.9,0.2,1.4,1,1.3,1.8l-0.5,3.1
						c-0.2,0.9-1,1.4-1.8,1.3l-8.5-1.5C236.2,248.3,235.6,247.5,235.8,246.6z"/>
					<path class="st48" d="M236.3,243.5l-0.5,3.1c-0.2,0.9,0.4,1.7,1.3,1.8l5.8,1c-0.9-0.2-1.4-1-1.3-1.8l0.5-3.1
						c0.2-0.9,1-1.4,1.8-1.3l-5.8-1C237.3,242.1,236.5,242.7,236.3,243.5z"/>
					<g>
						<path class="st49" d="M257.3,240.9c-1.1-0.2-1.9-1.3-1.7-2.5l2.5-14.1c0.2-1.1,1.3-1.9,2.5-1.7l5.2,0.9c2.3,0.4,3.9,2.7,3.5,5
							l-1.7,9.7c-0.4,2.3-2.7,3.9-5,3.5L257.3,240.9L257.3,240.9z"/>
						<path class="st50" d="M258,224.3l-2.5,14.1c-0.2,1.1,0.6,2.3,1.7,2.5l4.6,0.8c-1.1-0.2-1.9-1.3-1.7-2.5l2.5-14.1
							c0.2-1.1,1.3-1.9,2.5-1.7l-4.6-0.8C259.4,222.4,258.2,223.2,258,224.3z"/>
					</g>
				</g>
			</g>
		</g>
		<g>
			<defs>
				<rect id="SVGID_11_" x="319.3" y="151.4" width="160.5" height="163.3"/>
			</defs>
			<clipPath id="SVGID_12_">
				<use xlink:href="#SVGID_11_"  style="overflow:visible;"/>
			</clipPath>
			<rect x="311.8" y="148.3" class="st51" width="172" height="172"/>
			<g class="st52">
				<path class="st17" d="M393.3,306.2c-11.9,2.2-46.3-3-58.3-12.3c0,0,16.5-60.5,19.8-84.4c0,0,37.8-33.7,39.2-6.4
					c1.2,23.2,16.1,95.5,16.1,95.5S397.7,305.4,393.3,306.2z"/>
				<path class="st17" d="M395.6,177.5c0,0,16.2,6.4,15.3,38c0,0-0.7,6.8,4.7,11.2c0,0-14.2,8.1-26.3-8.6
					C389.3,218.1,378.4,176.5,395.6,177.5z"/>
				<path class="st18" d="M339.8,415.4c0-11.5,10.2-26,10.1-41.1c-0.3-28.4-5.9-60.6-5.4-78.7c0.5-18.9-6.2-30.7,35.5-30.7
					c43,0,39.5,15.6,40,37.4c0.4,17.2-7.9,46.1-8.6,72.3c-0.4,15.1,9,29.6,9,40.9C420.3,424.3,339.8,424.3,339.8,415.4z"/>
				<path class="st8" d="M360.6,270.2c0,5.5,26.6,27.5,30.1,27.5c3.2-1.3,9.8-21.9,9.8-27.5c0-5.5-11.9-5.3-20.6-5.3
					C371.2,264.9,360.6,264.6,360.6,270.2z"/>
				<path class="st8" d="M369.5,271.4c0,0,1.8,8.4,10.4,8.4c9.1,0,10.4-8.4,10.4-8.4v-24.7h-20.7V271.4z"/>
				<g>
					<g>
						<g>
							<path class="st6" d="M353.8,223.5c0,3.7,3,6.8,6.8,6.8c3.7,0,6.8-3,6.8-6.8c0-3.7-3-6.8-6.8-6.8
								C356.8,216.7,353.8,219.7,353.8,223.5z"/>
						</g>
					</g>
					<g>
						<g>
							<path class="st6" d="M409.5,230.3c0-3.9-2.6-11-2.2-15c2.2-20.2-2.9-36.2-23.7-36.1c-25.6,0.1-26.3,23.3-24.5,47.6
								c0.1,21.4,18.3,30.4,29.3,30.4C390.7,257.1,409.5,245.7,409.5,230.3z"/>
						</g>
					</g>
					<g>
						<g>
							<path class="st8" d="M386,229.2c0.9,0.1,1.7,0.2,2.3,0.1c-0.1,0,0.1-0.1,0.2-0.1l0.3-0.1l0.6-0.2c0.4-0.1,0.6-0.3,1-0.4
								l-0.5,0.9c-0.2-0.9-0.4-1.9-0.5-2.8c-0.1-1-0.2-1.9,0-3c0.6,0.9,0.9,1.8,1.3,2.7c0.3,0.9,0.6,1.8,0.8,2.8l0,0.1
								c0.1,0.4-0.1,0.7-0.5,0.8c-0.4,0.1-1,0.4-1.3,0.4l-0.6,0.1l-0.7,0C387.4,230.2,386.7,229.7,386,229.2z"/>
						</g>
					</g>
				</g>
				<path class="st14" d="M357.3,230.3c0,1.9,0.5,3.5,1.2,3.5c0.7,0,1.2-1.6,1.2-3.5c0-1.9-0.5-3.5-1.2-3.5
					C357.8,226.7,357.3,228.3,357.3,230.3z"/>
				<path class="st17" d="M361.9,209.8c0,0,2.6,8.2-2.4,15.4c0,0-1.2-5.1-0.7-12.7C359.2,205,360.3,209.7,361.9,209.8z"/>
				<path class="st17" d="M396.3,177.8c0,0,1.4,1.2,1.7,3.5c0.6,0.4,1.3,0.9,2.1,1.6c6.3,5.7,8.4,16,8.4,16c2.6,5.3-1,14.3-1,14.3
					s-4.4-11.4-5.9-15.2c-0.9-2.2-3.7-6.4-5.9-9.6c-0.3,0.4-0.6,0.8-0.9,1.2c0,0-21.4,28.3-42.5,30.7
					C352.2,220.3,350.9,157,396.3,177.8z"/>
				<g>
					<path class="st5" d="M339.5,279.6c0,0-22.6,37.4-20.3,73.3c0,0,5.1,23.2,15,1.3c10.1-22.2,17.5-59.5,16.1-67.3
						C349,279.1,349.9,275,339.5,279.6z"/>
					<path class="st5" d="M334.1,351.7c2.8,13,7.3,36,12.1,58.6l-9.2,1.4c0,0-19.4-52.3-17.9-58.8"/>
					<path class="st5" d="M356.7,423.6c-1-1.4-3.4-4.8-4.7-6c-1.2-1.1-3-1.3-4.2-1.3l0,0h0c-0.1,0-2.4-10.1-2.4-10.1l-9.8,0.2
						l3.6,12.5c0.4,3.8,3.8,10.6,4.7,11.7c0.8,1,1.5,1.7,2.1,2.2c3.8,3.7,5.7,5.2,9.3,7.6c1.7,1.1,3,0.8,3.7,0
						c0.7-0.9-1.2-2.5-1.8-3.1c-2.1-1.9-0.9-0.3-4-3.9c-0.9-1.1-1.8-2.2-2.3-2.9c-0.7-1-0.8-3.3-0.7-4.6c0.1-1.2,0.1-2.4,0.1-3.4
						c1.4,0.8,3.6,3.1,5.7,2.8C357,425.2,357,424.1,356.7,423.6z"/>
				</g>
				<path class="st18" d="M352.2,268.7c-23.2,13.5-27.4,41-29.9,52.7c5.4,4.3,13.2,11.7,20.2,9.6c2-4.6,11.5-32.3,13.2-36.9"/>
				<g>
					<path class="st6" d="M427.4,294.9c0,0,38.4-31.8,46.8-56c1.6-4.7,2.6-21.8-12.6-7.1c-16.8,16.2-38.9,45.1-40.8,52.4
						C418.9,291.5,416.5,294.7,427.4,294.9z"/>
					<path class="st6" d="M465,242.9c-9.1-8.9-25-24.9-40.8-40.4l6.6-6c0,0,41.1,26.1,43.3,32.1"/>
					<path class="st6" d="M408.8,197.5c1.5,0.6,5.3,2,6.9,2.3c1.5,0.2,3.1-0.6,4.1-1.1l0,0l0,0c0.1,0,7.3,6.7,7.3,6.7l7.7-5.3
						l-9.6-8.1c-2.4-2.8-8.7-6.5-9.9-6.8c-1.2-0.3-2.1-0.5-2.9-0.6c-5-1-7.3-1.1-11.5-1.1c-1.9,0-2.9,1-3,1.9
						c-0.1,1.1,2.2,1.4,3.1,1.5c2.7,0.4,0.9-0.3,5.3,1c1.3,0.4,2.6,0.8,3.4,1.1c1.1,0.4,2.4,2.2,3,3.3c0.6,1,1.2,1.9,1.8,2.7
						c-1.6,0.1-4.6-0.6-6,0.8C407.7,196.4,408.3,197.3,408.8,197.5z"/>
				</g>
				<path class="st18" d="M412.7,300.1c26.7-2.7,40.6-26.7,47.7-36.4c-3.2-6.2-7.6-14.5-14.9-15.5c-3.8,3.3-17.5,20.5-31.4,25"/>
			</g>
		</g>
	</g>
	<g>
		<g>
			<defs>
				<rect id="SVGID_13_" x="-0.2" y="304.7" width="160.5" height="163.3"/>
			</defs>
			<clipPath id="SVGID_14_">
				<use xlink:href="#SVGID_13_"  style="overflow:visible;"/>
			</clipPath>
			<rect x="-2.2" y="299.1" class="st53" width="172" height="172"/>
			<g class="st54">
				<path class="st55" d="M47,385.8c-0.4,8.2-0.1,19.1,5.8,22.6c5.1,3,10.5,0.3,15.6,0.1c3.6-0.1,15.3,7.1,18.5,5.3
					c5.1-2.7,9.7-2.7,15.1-2.2c4.7,0.4,9.1,0.1,12.5-5c2.7-3.9,7.2-3.7,9.5-8c2.7-5.1,0.9-13.5,0-19.1c-1.7-9.9-4.7-23.5-4.9-29.3
					c-0.5-11.4-5.3-20.9-17.2-26.4c-8.6-4-19.4-4.4-28.6-1.7c-3.4,1-7.5,2.7-10.3,4.8c-11.1,8.4-10.6,14-12.3,31.6
					C50.2,365.8,47.8,369.1,47,385.8z"/>
				<path class="st56" d="M127.1,571.3c0-11.9-10.6-26.9-10.4-42.6c0.3-29.4,9.4-61.1,8.9-79.8c-0.6-19.6,3.1-33.5-40-33.5
					c-44.6,0-40.9,16.1-41.4,38.7c-0.4,17.8,8.2,47.7,8.9,74.8c0.4,15.7-9.4,30.7-9.4,42.4C43.8,580.4,127.1,580.4,127.1,571.3z"/>
				<g>
					<path class="st5" d="M131,431.7c0,0,27.7,33.5,30.6,69.1c0,0-1.6,23.6-14.6,3.5c-13.1-20.3-25.9-55.9-25.7-63.8
						C121.6,432.6,120.1,428.7,131,431.7z"/>
					<path class="st5" d="M146.8,501.8c-0.8,13.2-1.9,36.5-3.4,59.4h9.2c0,0,11.5-54.2,9-60.4"/>
					<path class="st5" d="M135.1,575.7c0.8-1.5,2.7-5.2,3.7-6.5c1-1.2,2.8-1.7,3.9-1.9l0,0h0c0.1,0,0.9-10.2,0.9-10.2l9.6-1.3
						l-1.7,12.8c0.1,3.8-2.2,11-2.9,12.1c-0.7,1.1-1.2,1.9-1.8,2.5c-3.2,4.2-4.9,6-8,8.8c-1.5,1.3-2.9,1.2-3.6,0.6
						c-0.9-0.8,0.8-2.6,1.3-3.3c1.8-2.2,0.9-0.4,3.4-4.4c0.7-1.2,1.4-2.4,1.8-3.2c0.5-1.1,0.3-3.4,0-4.6c-0.3-1.2-0.5-2.3-0.5-3.3
						c-1.3,1-3.1,3.6-5.2,3.6C135.1,577.3,134.8,576.3,135.1,575.7z"/>
				</g>
				<path class="st56" d="M117.7,421.5c25.7,9.2,43.6,60.9,43.6,71.7c-4.9,5.2-10.3,7.8-17.7,6.7c-2.8-4.4-22.7-40.8-31.4-46.1"/>
				<path class="st57" d="M106.5,424c0,5.7-20,25.3-23.7,25.3c-3.3-1.3-18.9-19.5-18.9-25.3c0-5.7,12.3-10.4,21.3-10.4
					C94.2,413.7,106.5,418.3,106.5,424z"/>
				<path class="st57" d="M96.4,422.1c0,0-1.9,8.7-10.7,8.7c-9.4,0-10.7-8.7-10.7-8.7v-25.6h21.5V422.1z"/>
				<g>
					<g>
						<g>
							<path class="st6" d="M67.2,371.7c0,3.6-2.9,6.5-6.5,6.5c-3.6,0-6.5-2.9-6.5-6.5c0-3.6,2.9-6.5,6.5-6.5
								C64.3,365.2,67.2,368.1,67.2,371.7z"/>
						</g>
					</g>
					<g>
						<g>
							<path class="st6" d="M117,371.7c0,3.6-2.9,6.5-6.5,6.5c-3.6,0-6.5-2.9-6.5-6.5c0-3.6,2.9-6.5,6.5-6.5
								C114.1,365.2,117,368.1,117,371.7z"/>
						</g>
					</g>
					<g>
						<g>
							<path class="st6" d="M59.9,375.2c0.1-22-0.8-48.7,25.4-48.7c26.2,0.1,25.2,26.9,25.2,48.8c-0.1,22-23,32.3-25.4,32.3
								C82.7,407.6,59.8,397.2,59.9,375.2z"/>
						</g>
					</g>
					<g>
						<path class="st8" d="M82.8,377.9c0,0,0.4-0.1,0.9-0.2c0.3,0,0.5-0.1,0.8-0.1c0.1,0,0.3,0,0.4,0c0.1,0,0.4,0,0.3,0.1
							c0.3,0,0.7,0,0.9,0c0.2,0,0.5,0.1,0.7,0c0.5,0,0.9,0.1,0.9,0.1s-0.2,0.4-0.6,0.7c-0.2,0.2-0.5,0.4-0.8,0.5
							c-0.3,0.2-0.6,0.2-0.9,0.2c-0.4,0-0.4-0.1-0.6-0.1c-0.2,0-0.3-0.1-0.5-0.2c-0.3-0.1-0.6-0.3-0.8-0.5
							C83,378.2,82.8,377.9,82.8,377.9z"/>
					</g>
				</g>
				<path class="st14" d="M59.9,377.7c0,2-0.6,3.6-1.3,3.6c-0.7,0-1.3-1.6-1.3-3.6c0-2,0.6-3.6,1.3-3.6
					C59.3,374.1,59.9,375.7,59.9,377.7z"/>
				<path class="st14" d="M113.8,377.7c0,2-0.6,3.6-1.3,3.6c-0.7,0-1.3-1.6-1.3-3.6c0-2,0.6-3.6,1.3-3.6
					C113.2,374.1,113.8,375.7,113.8,377.7z"/>
				<path class="st55" d="M110.5,337.2c0-10.3-16.7-14.5-26.1-14.5c-9.4,0-25.7,4.2-25.7,14.5c0,4.6-1.2,19-0.3,26.3
					c0,0,1,4.1,2.4,5.6c1.1,1.1,1.3-9.9,1.9-16.5c3.6,2,10.8,2.2,22.6,2.2c14.1,0,20.1-0.6,23.2-3.4c0.6,6.3,0.8,19,2,17.8
					c1.4-1.4,2.4-5.6,2.4-5.6C114,353.6,110.5,340.9,110.5,337.2z"/>
				<g>
					<path class="st5" d="M43.9,426c0,0-35.3,25.3-47.3,59c0,0-4.5,23.2,13.2,7.1C27.8,475.8,49.2,444.6,51,437
						C52.8,429.3,55.3,426,43.9,426z"/>
					<path class="st5" d="M8.3,480.5c7.6,10.8,20.7,30.1,34,48.8l-7.9,4.8c0,0-38.1-33.7-37.9-40.3"/>
					<path class="st5" d="M69.7,545.1c-2.2-1-7.5-3.8-10.3-5.3c0-0.1-2-1-2.8-2.1c0.1-0.1-3.1-2.7-4.3-4.4c-1.6,0.1-4.1,1.4-4.8,2.2
						l-8-10l-7.5,6.6l11.2,10.3c0.1,1,0.6,1.9,2.2,3.5c1,1,3.9,3.4,5.4,4.3c1.6,2.1,5.1,6.3,6.3,8.1c0.5,0.7,1.4,1.3,1.9,0.9
						c0.4-0.3,0.6-1.1,0-1.9c-1.5-2.1-3.3-5-5.2-7.5c0.1-0.1,0.3-0.2,0.4-0.3c2.7,2.4,6.3,5.5,8.2,7.1c0.9,0.8,1.9,0.6,2.2,0.2
						c0.5-0.6,0-1.7-0.8-2.4c-1.6-1.4-4.9-4.9-7.2-7.2c0.1-0.2,0.3-0.4,0.4-0.6c3.1,2.1,7.7,4.9,10,6.3c1,0.7,1.9,0.3,2.2-0.2
						c0.4-0.6-0.3-1.7-1.1-2.3c-2-1.4-6.8-5-9.3-6.9c0-0.1,0.1-0.2,0.1-0.3c2.1,1,6,2.6,9.9,4.4c1.1,0.5,2,0,2.2-0.5
						C71.5,546.5,70.6,545.5,69.7,545.1z"/>
				</g>
				<path class="st56" d="M59.4,419.6c-26.8-4-57.7,47.7-60.5,58.1c3.4,6.3,7.9,10.2,15.4,11.1c3.8-3.5,35.5-38.4,39-42.1"/>
			</g>
		</g>
		<g>
			<defs>
				<rect id="SVGID_15_" x="160" y="304.7" width="160.5" height="163.3"/>
			</defs>
			<clipPath id="SVGID_16_">
				<use xlink:href="#SVGID_15_"  style="overflow:visible;"/>
			</clipPath>
			<rect x="150.8" y="299.1" class="st58" width="172" height="172"/>
			<g class="st59">
				<path class="st7" d="M283.2,557.1c0-33.7,9.3-92.5,5.1-120.5c-2.9-19-9.7-31.8-45-31.8c-41.6,0-46.9,15.5-47.4,37.7
					c-0.7,27.7,9.4,83.2,9.4,114.6C205.3,566.2,283.2,566.2,283.2,557.1z"/>
				<path class="st60" d="M255,564.7c0,0,4.6-99.4,3.8-127.4c-0.7-26.5,0.1-31.3-19.6-31.3c-16.5,0-18.6,15.5-18.8,37.7
					c-0.3,27.7,3.7,120.8,3.7,120.8s6.8,0.6,15.5,0.6C246,565.1,255,564.7,255,564.7z"/>
				<g>
					<path class="st20" d="M190.8,434.9c0,0-19.8,34.7-14.9,68.2c0,0,2.5,19.5,14.2,0.1c11.7-19.5,12-57.2,10.1-64.5
						C198.4,431.6,200.3,429.9,190.8,434.9z"/>
					<path class="st20" d="M191.5,500.8c5,11.2,7.9,33.4,14.2,54.3l-10.2,1.8c0,0-20.5-47.6-19.5-53.8"/>
				</g>
				<path class="st7" d="M209,411.5c-20.1,9.8-43.4,73.8-40.4,83.4c3.5,11,16.2,20.9,27.8,5.4c3.7-5,20.3-49.3,22-55"/>
				<path class="st7" d="M168.8,497.1c0.4,4.3,18.6,43.6,24.1,57.4c1.9,4.8-1.2,6.6,3.9,8.3c3.7,1.2,8.7,0.1,12.5-1.3
					c1.6-0.6,4-1.8,5-3.2c1.5-2.2-2.3-5.5-2.6-7.9c-1-9.5-15.9-59.6-23-61.9c-3.6-1.2-10.3,0.1-13.8,0.7
					C169.4,490.1,168.3,492.2,168.8,497.1z"/>
				<g>
					<path class="st20" d="M284.9,429.9c0,0,25,31.1,25.4,65c0,0,0.6,19.7-14,2.3c-14.6-17.4-20.8-54.6-20.1-62.1
						C276.9,427.7,274.8,426.4,284.9,429.9z"/>
					<path class="st20" d="M294.6,495.1c-3.1,11.9-2.6,34.3-5.5,55.8l10.4,0.2c0,0,12.8-50.2,10.8-56.2"/>
				</g>
				<path class="st7" d="M276.3,412.3c16.9,14.2,44.1,65.5,42.6,75.5c-1.7,11.5-12.7,23.2-26.6,9.7c-4.4-4.3-30-44.9-32.6-50.4"/>
				<path class="st7" d="M319,490c0.3,4.3-11.6,46-14.8,60.5c-1.1,5,2.3,6.4-2.6,8.8c-3.5,1.8-8.6,1.5-12.5,0.7
					c-1.7-0.4-4.3-1.1-5.5-2.4c-1.8-1.9,1.4-5.8,1.3-8.2c-0.5-9.5,6.4-61.4,13-64.8c3.4-1.7,10.2-1.5,13.8-1.5
					C317.3,483.2,318.7,485.1,319,490z"/>
				<g>
					<path class="st20" d="M252.1,411c0,0-7.2,11.5-15.2,11.5c-8.5,0-4.2-11.5-4.2-11.5v-23.2h19.4V411z"/>
					<g>
						<g>
							<g>
								<path class="st20" d="M273.1,362.8c0,4.1-3.3,7.5-7.5,7.5c-4.1,0-7.5-3.3-7.5-7.5c0-4.1,3.3-7.5,7.5-7.5
									C269.8,355.3,273.1,358.6,273.1,362.8z"/>
							</g>
						</g>
						<g>
							<g>
								<path class="st20" d="M216.3,370.2c0-3.9,2.6-10.9,2.2-14.9c-2.2-20.1,2.8-36,23.6-35.9c25.4,0.1,26.1,23.1,24.4,47.3
									c-0.1,21.3-12.8,30.2-29.1,30.2C231.5,396.8,216.3,385.6,216.3,370.2z"/>
							</g>
						</g>
						<g>
							<g>
								<path class="st61" d="M239.6,369.1c-0.6,0.6-1.3,1.1-2.3,1.2l-0.7,0l-0.6-0.1c-0.4,0-0.9-0.2-1.3-0.4
									c-0.3-0.1-0.5-0.5-0.5-0.8l0-0.1c0.2-0.9,0.5-1.9,0.8-2.8c0.4-0.9,0.7-1.8,1.3-2.6c0.1,1,0.1,2,0,2.9
									c-0.1,1-0.3,1.9-0.5,2.8l-0.5-0.9c0.3,0.1,0.5,0.3,1,0.4l0.6,0.2l0.3,0.1c0.1,0,0.3,0.1,0.2,0.1
									C237.9,369.3,238.8,369.2,239.6,369.1z"/>
							</g>
						</g>
					</g>
					<path class="st2" d="M265.7,367.3c-0.2-1.4-0.2-3.2,0-4.5c0.2-1.2,3.5-10.1,0.9-7.5c-1,1-3.3,7.6-3.7,8.9
						c-0.5,2-1.5,5.1-2.9,6.6c-3.3,3.5-10.6,2.5-15.1,2c-2.5-0.3-3.2-0.6-5.8,0.2c-1.8,0.6-1.9,1.1-3.7,0c-1.1-0.6-3.1-1.7-4.4-1.7
						c-1.6,0-3,0.3-4.2,0.8c0,0,0,0,0,0c-9.5,4.4-9.9-6-9.9-6c-6.9,13.5,5.3,32.1,18.2,32.4c10.9,0.3,30.7-3.4,32.7-22.2
						C268,373.5,266.2,370.7,265.7,367.3z M246.6,381.7c-1.2,3.5-6.3,4.6-9.2,4.1c-9.4-1.3-11.9-9.8-7.9-11.4c2-0.8,5.7,2.3,7.7,2.6
						c0.6,0.1,6.1-3.4,8.4-1.2C246.7,376.9,247.1,380.2,246.6,381.7z"/>
				</g>
				<g>
					<polygon class="st62" points="242.2,434.2 236.7,434.2 233,421.7 245.9,421.7 					"/>
					<polygon class="st62" points="236.7,434.2 242.2,434.2 245.9,519.9 239.5,533 233,519.9 					"/>
				</g>
				<path class="st60" d="M232.4,405.5l6.5,16.6l-7.5,2.8l-4.6-12.9C226.8,411.9,230.3,404.4,232.4,405.5z"/>
				<path class="st60" d="M251.8,404.8L238.9,422l11,4.5l7.5-14.5C257.4,411.9,253.8,403.8,251.8,404.8z"/>
			</g>
		</g>
		<g>
			<defs>
				<rect id="SVGID_17_" x="319.3" y="304.7" width="160.5" height="163.3"/>
			</defs>
			<clipPath id="SVGID_18_">
				<use xlink:href="#SVGID_17_"  style="overflow:visible;"/>
			</clipPath>
			<rect x="313.8" y="297.1" class="st63" width="172" height="172"/>
			<g class="st64">
				<path class="st60" d="M373.2,561.2c0-33.2-9.1-91-5-118.5c2.8-18.7,9.6-31.3,44.2-31.3c40.9,0,46.1,15.3,46.6,37.1
					c0.6,27.3-9.3,81.8-9.3,112.7C449.7,570.1,373.2,570.1,373.2,561.2z"/>
				<path class="st20" d="M344.5,395.3c10.8-5.4,27.1-20.2,44.9-32l-6.6-7.8c0,0-45.5,23-48.7,28.3"/>
				<path class="st5" d="M408.9,360.3c-1.9,0.3-6.5,1.1-8.4,1.1c-1.8,0-3.4-1.3-4.4-2.2l0,0l0,0c-0.1-0.1-9.8,6.1-9.8,6.1l-7.7-7.8
					l12.7-7.2c3.3-2.7,11.3-5.5,12.8-5.6c1.4-0.1,2.5-0.2,3.4-0.1c5.9,0,8.6,0.3,13.3,1.2c2.2,0.4,3.1,1.7,3,2.8
					c-0.1,1.3-2.8,1.1-3.8,1c-3.2-0.1-1-0.5-6.3,0c-1.6,0.2-3.1,0.3-4.1,0.5c-1.3,0.3-3.2,2-4.1,3.1c-0.9,1-1.7,2-2.6,2.7
					c1.8,0.4,5.3,0.3,6.7,2.2C410.4,359.3,409.6,360.2,408.9,360.3z"/>
				<path class="st18" d="M399.7,567.4c0,0-4.5-97.7-3.7-125.3c0.7-26-0.1-30.8,19.3-30.8c16.3,0,18.3,15.3,18.5,37.1
					c0.3,27.3-3.7,118.8-3.7,118.8s-6.7,0.6-15.2,0.6C408.5,567.8,399.7,567.4,399.7,567.4z"/>
				<path class="st60" d="M375.4,457.9c-21.4-4.9-53.5-61.7-52.7-71.6c0.9-11.4,10.9-23.7,25.4-11.4c4.6,3.9,24.7,38.9,36.3,41.2"/>
				<path class="st60" d="M331,371.6c3-2.9,34.3-12,47.1-19c4.4-2.4,3.3-5.8,8.2-3.8c3.6,1.5,6.7,5.4,8.6,8.8
					c0.8,1.5,1.9,3.9,1.8,5.6c-0.3,2.5-5.2,2.7-6.9,4.3c-6.8,6.5-49.6,35-56.4,32.2c-3.4-1.4-8.4-8.5-9.3-11.9
					C322,380.1,327.5,374.9,331,371.6z"/>
				<g>
					<path class="st20" d="M462.8,439.8c0,0,19.4,34.1,14.6,67.1c0,0-2.5,19.2-14,0.1c-11.5-19.1-11.8-56.3-9.9-63.4
						C455.3,436.5,453.5,434.8,462.8,439.8z"/>
					<path class="st20" d="M462.1,504.7c-4.9,11.1-7.8,32.9-13.9,53.4l10.1,1.8c0,0,20.2-46.8,19.2-52.9"/>
				</g>
				<path class="st60" d="M446.1,418c19.7,9.6,42.7,72.5,39.7,82c-3.4,10.9-15.9,20.6-27.3,5.3c-3.6-4.9-22.2-48.3-23.9-54"/>
				<path class="st60" d="M485.6,502.1c-0.4,4.2-18.3,42.9-23.7,56.4c-1.9,4.7,1.2,6.5-3.9,8.2c-3.7,1.2-8.6,0.1-12.2-1.3
					c-1.6-0.6-4-1.7-4.9-3.2c-1.4-2.1,2.3-5.4,2.5-7.8c1-9.3,15.7-58.6,22.7-60.9c3.5-1.1,10.1,0.1,13.6,0.7
					C485,495.2,486.1,497.4,485.6,502.1z"/>
				<g>
					<path class="st57" d="M402.8,417.1c0,0,7.1,11.3,15,11.3c8.4,0,4.1-11.3,4.1-11.3v-22.8h-19.1V417.1z"/>
					<g>
						<g>
							<g>
								<path class="st6" d="M382,369.6c0,4,3.3,7.3,7.3,7.3c4.1,0,7.3-3.3,7.3-7.3c0-4.1-3.3-7.3-7.3-7.3
									C385.3,362.2,382,365.5,382,369.6z"/>
							</g>
						</g>
						<g>
							<g>
								<path class="st6" d="M437.9,376.9c0-3.8-2.5-10.7-2.1-14.7c2.1-19.8-2.8-35.4-23.2-35.3c-25,0.1-25.7,22.7-24,46.5
									c0.1,20.9,12.6,29.7,28.6,29.7C423,403.1,437.9,392,437.9,376.9z"/>
							</g>
						</g>
						<g>
							<g>
								<path class="st8" d="M415,375.8c0.8,0.1,1.7,0.2,2.3,0.1c-0.1,0,0.1-0.1,0.2-0.1l0.3-0.1l0.6-0.2c0.4-0.1,0.6-0.3,0.9-0.4
									l-0.4,0.9c-0.2-0.9-0.4-1.8-0.5-2.8c-0.1-0.9-0.2-1.9,0-2.9c0.6,0.8,0.9,1.7,1.3,2.6c0.3,0.9,0.6,1.8,0.8,2.7l0,0.1
									c0.1,0.4-0.1,0.7-0.5,0.8c-0.4,0.1-0.9,0.4-1.3,0.4L418,377l-0.7,0C416.3,376.9,415.6,376.4,415,375.8z"/>
							</g>
						</g>
						<path class="st12" d="M387.4,383c2,18.5,21.4,22.2,32.1,21.9c12.7-0.4,24.6-18.6,17.9-31.9c0,0-0.4,10.2-9.7,5.9c0,0,0,0,0,0
							c-1.2-0.5-2.6-0.8-4.1-0.8c-1.3,0-3.2,1-4.3,1.7c-1.8,1.1-1.9,0.6-3.7,0c-2.6-0.8-3.2-0.5-5.8-0.2c-4.4,0.5-11.5,1.5-14.8-2
							c-1.4-1.5-2.3-4.5-2.8-6.5c-0.3-1.3-1.4-6.7-2.3-7.6c-2.6-2.6-0.6,5.1-0.4,6.2c0.2,1.3,0.2,3,0,4.5
							C388.8,377.4,387.1,380.2,387.4,383z M409.1,382.4c2.3-2.2,7.7,1.2,8.3,1.1c1.9-0.3,5.6-3.3,7.6-2.5c3.9,1.6,1.6,9.9-7.7,11.2
							c-2.9,0.4-7.8-0.6-9-4.1C407.7,386.8,408,383.5,409.1,382.4z"/>
					</g>
					<path class="st12" d="M398.9,339.4c-0.4,0.4,10.8,11.8,22.6,8.5c-2.2,0.1-7-1.5-9.6-3.8c6.2,2.8,13.2,3.1,16.9,1.8
						c-1.9-1-4.7-2.3-5.2-4.6c2.9,2.6,6.6,4.5,9.7,6.8c1.5,1.1,2.8,2.6,2.9,7.7c6-10.8,7.7-22.4-1.2-30.6c-6.3-5.8-14.4-9.7-23-10.8
						c-4.3-0.5-9.8-1-13.8,1c-1.9,0.9-4,3.3-4.6,4.9c-1,2.3-2,9.6-1.1,9.9c-3.7-1.1-5.4,0.6-7.8,3.4c-7.8,9.1-3.3,33.7,6.2,32.2
						C391.9,363.9,399.5,359.1,398.9,339.4z"/>
				</g>
				<g>
					<polygon class="st22" points="412.3,439.1 417.6,439.1 421.3,426.8 408.6,426.8 					"/>
					<polygon class="st22" points="417.6,439.1 412.3,439.1 408.6,523.4 415,536.3 421.3,523.4 					"/>
				</g>
				<path class="st18" d="M422,410.8l-6.4,16.3l7.4,2.8l4.5-12.7C427.4,417.2,424,409.8,422,410.8z"/>
				<path class="st18" d="M402.9,410.2l12.7,16.9l-10.9,4.4l-7.4-14.3C397.3,417.2,400.8,409.2,402.9,410.2z"/>
			</g>
		</g>
	</g>
	<rect x="-5.2" y="458.1" class="st65" width="490" height="42"/>
	<g>
		<circle class="st66" cx="242" cy="478.6" r="15.5"/>
		<g>
			<g>
				<path class="st18" d="M233.8,482.4c0.9-0.8,1.9-1.4,3-1.9c0.5-0.2,0.9-0.8,0.9-1.3l0.5-2.7c2.8-0.7,5.1-0.6,7.8,0.4l0.2,2.7
					c0,0.6,0.3,1.2,0.8,1.5c1,0.6,2,1.3,2.8,2.2c0.6,0.6,1.6,0.7,2.2,0.1l2.7-2.4c0.6-0.6,0.7-1.6,0.1-2.2
					c-6.6-7.4-18.1-8.1-25.5-1.4c-0.6,0.6-0.7,1.6-0.1,2.2l2.4,2.7C232.2,482.9,233.2,483,233.8,482.4z"/>
			</g>
		</g>
	</g>
</g>
</svg>
