<?xml version="1.0" encoding="utf-8"?>
<!-- Generator: Adobe Illustrator 24.0.3, SVG Export Plug-In . SVG Version: 6.00 Build 0)  -->
<svg version="1.1" id="Layer_1" xmlns="http://www.w3.org/2000/svg" xmlns:xlink="http://www.w3.org/1999/xlink" x="0px" y="0px"
	 width="359.8px" height="503.6px" viewBox="0 0 359.8 503.6" style="enable-background:new 0 0 359.8 503.6;" xml:space="preserve"
	>
<style type="text/css">
	.st0{fill:#270210;}
	.st1{fill:#A46546;}
	.st2{fill:#1A1A1A;}
	.st3{fill:#9B6042;}
	.st4{fill:#AC6A4A;}
	.st5{opacity:0.28;fill:#7C2E2E;}
	.st6{fill:#D02721;}
	.st7{fill:#333333;}
	.st8{fill:#4D4D4F;}
	.st9{fill:#4D4D4D;}
	.st10{opacity:0.59;fill:#BF8569;}
	.st11{fill:#FFFFFF;}
	.st12{fill:#39170B;}
	.st13{fill:#390B1D;}
	.st14{opacity:0.29;fill:#823B3B;}
</style>
<title>Artboard 23</title>
<g>
	<path class="st0" d="M196.1,196.8c4,9.1,24,4.1,28.7,0.5v-3.4c2.8-5.2,4.4-9.5,9-13.6c2.1-1.9,4.4-3.4,6.7-5
		c1.6-0.7,3.1-1.3,4.2-1.8c5.9-2.7,13.4-5.8,16.2-12.6c3-2.7,5.1-5.6,4.6-8.1c-1.1,0.6-2.4,1.4-3.5,2.3c0-0.6-0.1-1.2-0.2-1.8
		c4.8-13.4-10.5-53.1-10.8-57.8c-0.3-6.2-16.1-12.2-15.6-11.2c3.6,6.3-40.7,68.7-50.2,73.4C172.6,164,195.1,194.5,196.1,196.8z
		 M146.2,214.1c16.5-7.4,20.1-46,18.8-67.2c-6.5-8.2-13.8-0.5-15-4c-1.7,2.8-33.4,36.9-33.4,36.9c-7.4,9.6-2.6,19.8,4.7,26.6
		c0.9,0.8-8.8,5.5-7.8,6.3c1,0.7,11.3-3,12.4-2.4C132.4,214.1,140.3,215.9,146.2,214.1z"/>
	<path class="st1" d="M47.9,415.5L72.7,393l-12.5-16.3c0,0-44,55.8-44.8,61.2c-0.8,5.4,10.8,12.4,10.8,12.4l3.9,20.1l12.4-0.8
		c0,0,3.1-15.9,7-19.8c-6.2,1.5-11.6,12.8-11.6,12.8l0.8-20.1l6.2-3.9l0.8,18.6c0,0,8.5-13.2,8.5-25.6
		C54.1,422.5,47.9,415.5,47.9,415.5z"/>
	<path class="st1" d="M313.6,400.2l18.9-0.2l2.9,43.4c0,0,0.8,28.7-3.1,33.3c-3.9,4.7-11.6,3.9-11.6,3.9l-10.8,7.7l-5.2-3.5l1.4-8.1
		c0,0-2.3-3.1-4.6-7.7c-2.3-4.6-1.5-17,2.3-21.7c3.9-4.6,12-8.3,12-8.3L313.6,400.2z"/>
	<polygon class="st2" points="123.1,269 111.5,313.2 56.5,378.5 68.9,396.1 116.9,358.9 152.5,301.6 	"/>
	<path class="st2" d="M113.8,264.4c1.6,11.6,26.3,20.1,31,38c4.6,17.8,0.8,43.4,0.8,45.7c0,0.2-0.3,0.8-0.7,1.8l57.1,7.5
		c0.4-14.5,10.5-41,15.7-60.4c6.2-23.2,10.1-53.5,10.1-53.5l68.2,52.7c0,0-4.6,36.4,4.7,63.5c9.3,27.1,13.4,47.3,13.4,47.3l19.2-3.1
		l-0.8-108.5l-93-110c-11.6-6.2-113.1,16.3-117.8,22.5c-4.6,6.2,2.3,22.5,2.3,22.5S112.2,252.8,113.8,264.4z"/>
	<path class="st2" d="M442.2,909.3c-2.2-8.8-17.6-27.1-17.6-27.1s2.9-11.7,0.7-17.6c-2.2-5.9-57.8-156.7-65.2-172.8
		c-7.3-16.1-52-63.7-52-63.7s-12.4-54.9-34.4-107.6c-22-52.7-65.9-142-70.3-152.3c-0.7-1.7-5.7-6-5.6-8.7H140
		c-5.7,11.8-37.1,77.2-59.5,129.1c-16.1,37.4-25.6,140.9-26.4,154.9c-0.7,13.9-11,86.4-14.6,117.1c-3.7,30.7-19,82-23.4,96.6
		c-3,10.1-10.2,36.6-19,46.1c-8.8,9.5-24.9,11-24.9,11l4.4,7.3c0,0,28.6,2.9,35.1-2.9c6.6-5.9,13.9-35.1,16.1-33.7
		c2.2,1.5,0.7,32.2,0.7,32.2l6.6-0.7c0,0,6.6-32.9,5.1-43.9c-1.5-11-10.2-15.4-10.2-15.4l12.4-5.1l-6.6-12.4
		c0,0,49.8-99.6,54.2-116.4c4.4-16.8-0.7-71.8-1.5-74.7c-0.7-2.9,81.1-193.7,81.1-193.7s17.7,87.6,53.6,124.9s58.9,61.5,62.6,72.5
		c3.7,11,27.1,74,50.5,105.4c23.4,31.5,62.6,71,62.6,78.3c0,7.3-3.7,15.4-3.7,15.4l8.8,3.7c0,0-5.9,12.4-5.1,22
		c0.7,9.5,8.1,4.4,8.1,13.9c0,9.5-2.2,26.4,4.4,32.9c6.6,6.6,25.6,20.5,25.6,20.5l6.6-2.9C443.6,941.5,444.4,918.1,442.2,909.3z"/>
	<polygon class="st3" points="161.6,152 162.8,198.6 192.1,189.2 190.7,162.4 	"/>
	<path class="st4" d="M232.9,106c0,0,9.6,5,7.6,24.9c-2.2,22.1-36.3,41.4-36.3,41.4s-48.1-7.5-68.5-49.6
		c-20.4-42.1,17.1-74.7,59.8-66.7C237.3,52.4,241.9,85.7,232.9,106z"/>
	<path class="st5" d="M135.8,122.8c-16.8-34.8,5.8-63,38.2-67.3c-9.6,7-17.6,18.6-18.4,37.7c-1.7,39.1,29.4,67.1,44.4,78.3
		C187.9,168.6,152.5,157.4,135.8,122.8z"/>
	<path class="st6" d="M191.6,147.2c0,0,7.6-6.7,16.8-7.1c9.2-0.4,11.3,5.9,11.3,5.9l-5,0.8c0,0,1.7,2.5-2.9,4.2
		C207.1,152.7,195.8,150.6,191.6,147.2z"/>
	<path class="st7" d="M201.4,348.8l2.2-3.1c3.1-14.6,10-33.8,14-48.8c6.2-23.2,10.1-53.5,10.1-53.5s-22.5,3.9-34.1,6.2
		c-11.6,2.3-15.5,9.3-34.1,15.5c-18.6,6.2-17.8-1.5-31.8-3.9c-13.9-2.3-13.9,3.1-13.9,3.1c1.3,10.1,20.2,17.8,28.2,31.4
		c4.9-3.7,13.8-8.2,20.6-7.3c29.4,3.9,36.4-10.8,38.7,3.1c2.3,13.9-18.6,56.6-18.6,56.6L201.4,348.8z"/>
	<path class="st8" d="M206.9,372.9c-2-4.2-3.4-7.1-4-8.6c-2.3-5.4-0.2-16.2,3.2-28.6c-15.8-3.9-38.9-6.9-59.5,0.8
		c-0.4,6.2-1,10.7-1,11.6c0,0.7-4,8-10.2,19.5C152.9,365.4,183.6,363.6,206.9,372.9z"/>
	<path class="st8" d="M172.7,280.7c0,0,22.5,2.3,40.3-12.4C204.5,291.5,185.1,288.4,172.7,280.7z"/>
	<path class="st9" d="M88.5,648.6c-0.5-1.8,81.1-193.7,81.1-193.7L79.8,647.2c0,0,11.7,38.8-2.2,83.5
		c-13.9,44.7-46.9,106.9-46.9,106.9s-8.1,11-6.6,22c1.5,11-3.7,30-11.7,44.7c-6.1,11-27.8,12.9-37.9,14.1l2.1,3.5
		c0,0,28.6,2.9,35.1-2.9c6.6-5.9,13.9-35.1,16.1-33.7c2.2,1.5,0.7,32.2,0.7,32.2l6.6-0.7c0,0,6.6-32.9,5.1-43.9
		c-1.5-11-10.2-15.4-10.2-15.4l12.4-5.1l-6.6-12.4c0,0,49.8-99.6,54.2-116.4C94.4,706.5,89.3,651.6,88.5,648.6z"/>
	<g>
		<path class="st7" d="M443.6,941.5c0,0,0.2-7.6,0-15.7c-11,13.5-20.5,4.7-27.9-6.3c-4.1-6.1-8.5-13.5-9.1-19.4
			c-0.3,8.8-0.1,19,4.7,23.8c6.6,6.6,25.6,20.5,25.6,20.5L443.6,941.5z"/>
		<path class="st9" d="M404.1,855.1c0,0-5.9,12.4-5.1,22c0.7,9.2,7.5,4.8,8,13c0.6-5.8,1.5-10.5,0-12.3c-3.7-4.4-2.9-22.7-2.2-32.2
			c0.7-9.5-2.9-23.4-44.7-71.8c-41.7-48.3-63.7-100.3-67.4-122.3c-3.7-22-4.1-15.7-38.1-50.5c-63.2-64.8-83.3-146.5-85.1-144.6
			c7.9,17.1,13.2,78.7,53.6,123.3c35.6,39.3,58.9,61.5,62.6,72.5c3.7,11,27.1,74,50.5,105.4c23.4,31.5,62.6,71,62.6,78.3
			c0,7.3-3.7,15.4-3.7,15.4L404.1,855.1z"/>
	</g>
	<path class="st2" d="M161.9,175c0,0,1.9,3.8,12.8,3.8s17.2-4.7,17.2-4.7l7.5,24.3c0,0-7.8,6.3-23.5,6.3s-20-8.7-20-8.7L161.9,175z"
		/>
	<g>
		<path class="st10" d="M205.5,127.8c0-0.3,0.5-0.6,1.3-1c0.8-0.4,2-0.9,3-1.7c0.5-0.4,0.8-1,1-1.5c0.2-0.5,0.1-1-0.1-1.5
			c-0.4-1.1-1.9-2.5-3.3-4.4c-2.7-3.7-4.1-8.3-4.2-11.7c-0.1-3.4,0.8-5.6,1.8-5.5c1,0.1,1.4,2.2,2.2,5c0.7,2.8,2,6.5,4,9.7
			c0.8,1.6,2.6,3.1,3.3,5.9c0.3,1.4,0,3.1-0.7,4.1c-0.7,1.1-1.6,1.8-2.5,2.2c-1.8,0.9-3.3,0.8-4.3,0.8
			C206.1,128.3,205.6,128.1,205.5,127.8z"/>
	</g>
	<g>
		<path class="st11" d="M189.7,111.8c1.8-2.3-1.5-10.3-9.2-12.6c-7.7-2.3-11.7,2.9-11.8,5c-0.2,2.1,0.9,5.7,5.4,7.5
			c4.5,1.8,8.1,1.2,10.2,1C186.9,112.6,188.7,113.1,189.7,111.8z"/>
		<circle class="st12" cx="180.4" cy="104.2" r="6.7"/>
		<circle class="st11" cx="177.9" cy="103" r="2.7"/>
		<path class="st12" d="M190.2,110c0,0,0.9-3.9-3.9-8.9c-4.8-5-11-3.8-12.8-4.1c-1.7-0.3-3.6,0.3-3,0.7c0.5,0.4-1,1.8-2.4,1.5
			c-1.4-0.3,0,1.2,0,1.6c0,0.5-2.4,0.4-2.6,0.9c-0.2,0.5,1.4,1.6,1,1.7c-0.4,0.1-1.7,1.2-1,1.6c0.7,0.4,1.9,2,2.5,2.6s2,1.2,2,1.2
			s-1.7-3.2-0.7-5.4c1-2.3,3.6-4.7,8-4.2c4.4,0.5,7.2,2.5,9.1,4.2C188.4,105.1,190.2,110,190.2,110z"/>
		<path class="st12" d="M191.4,90c1.3,3.1-4.6,2.4-8.3,1c-3.6-1.4-8.4-2-12.4-1.9c-4,0.1-9.3,2.5-9.3,2.5s6.3-4,12.3-4.5
			c6-0.5,12.7,0.4,14.7,0.9C190.4,88.5,190.7,88.3,191.4,90z"/>
	</g>
	<g>
		<path class="st11" d="M214.2,109.1c-1.7-2.1,1.4-9.7,8.8-11.9c7.3-2.2,11.1,2.8,11.2,4.8c0.2,2-0.9,5.4-5.1,7.2s-7.7,1.2-9.7,1
			C216.9,109.9,215.2,110.3,214.2,109.1z"/>
		<circle class="st12" cx="223" cy="101.9" r="6.4"/>
		<path class="st11" d="M218,100.7c0,1.4,1.1,2.5,2.5,2.5c1.4,0,2.5-1.1,2.5-2.5c0-1.4-1.1-2.5-2.5-2.5
			C219.1,98.2,218,99.3,218,100.7z"/>
		<path class="st12" d="M213.7,107.3c0,0-0.9-3.7,3.7-8.5c4.6-4.7,10.4-3.6,12.1-3.9c1.6-0.3,3.4,0.3,2.8,0.7
			c-0.5,0.4,0.9,1.7,2.2,1.5c1.3-0.3,0,1.1,0,1.5c0,0.4,2.2,0.3,2.4,0.8c0.2,0.5-1.3,1.5-0.9,1.7c0.3,0.1,1.6,1.1,1,1.5
			c-0.6,0.4-1.8,1.9-2.3,2.5s-1.9,1.1-1.9,1.1s1.6-3,0.7-5.1c-0.9-2.1-3.4-4.4-7.6-4c-4.2,0.4-6.8,2.3-8.6,4
			C215.4,102.8,213.7,107.3,213.7,107.3z"/>
		<path class="st12" d="M209.8,88.4c-1.3,3,4.4,2.3,7.8,1c3.4-1.3,8-1.9,11.8-1.8c3.8,0.1,8.8,2.4,8.8,2.4s-5.9-3.8-11.7-4.3
			c-5.7-0.5-12,0.4-13.9,0.8C210.8,87,210.5,86.8,209.8,88.4z"/>
	</g>
	<g>
		<g>
			<path class="st13" d="M107.3,174c0.1,1.1-1.3,2.8-3.5,5.4c-1.9,2.3-6.2,8-4.5,12.6c1.1,3,4.5,4.8,10,5.2c0.7,0.8,2.9,3.2,6.7,5.3
				c2,1.1,3.5,2.9,3.3,3.9c-0.1,0.5-0.9,2-7,2c-0.8,0-1.6,0-2.5-0.1c-1.7-1.2-3.3-2.6-4.7-3.9l-0.1-0.1c-0.2-0.1-0.4-0.2-0.6-0.2
				c-0.4,0-0.7,0.3-0.9,0.6c-0.1,0.4-0.1,0.8,0.2,1.1c3.4,3.7,7.6,8.3,13,8.3c1.2,0,2.4-0.2,3.6-0.7c2.8-1,5-3.2,6.3-6
				c1.2-2.7,1.4-5.8,0.4-8.6c-0.3-0.9-0.7-1.7-1.1-2.5c-0.5-0.9-0.9-1.8-1.1-2.8c-0.4-1.9-0.2-3.6,0.9-5.3c1-1.6,2.2-3.3,3.3-4.8
				c1.3-1.8,2.6-3.7,3.8-5.7c0.5-0.8,1-1.6,1.5-2.4c2.9-3.4,5.8-7.3,8.8-11.8c1.1-1.4,2.1-2.8,2.9-4.2c-0.1,0.8-0.3,1.5-0.6,2.2
				c-0.7,1.5-1.6,2.9-2.6,4.3c-0.6,0.9-1.2,1.8-1.8,2.8c-2.2,3.8-4.1,8.4-1.5,14.1c1.3,2.9,5.3,5.3,9.4,7.8c6,3.7,12.3,7.4,11.3,13
				c-1.5,8.6-9.8,9-11.4,9c-0.1,0-0.2,0-0.2,0c0,0,0,0,0,0c-0.4,0-0.7,0.3-0.7,0.7c-0.1,0.4,0.2,0.8,0.5,0.9c0.1,0,1.6,0.5,3.8,0.5
				c3.8,0,10.3-1.5,12.2-11.8c0.4-2.3,0.6-4.2,0.5-6c0.4-4.7-0.3-8.9-2.3-12.5c-1.3-2.4-3.3-4.1-5.1-5.8c-0.4-0.4-0.8-0.7-1.2-1.1
				c-2.1-1.9-4.1-4-4-6.6c0.1-3.2,1.7-6.1,3.3-8.9c0.5-0.8,0.9-1.6,1.3-2.5c1.8-3.6,2.9-7.2,3.2-11c0.1-1.7,0.1-3.4,0-5.2
				c0.1-3.1-0.4-6.6-1.5-10.7c-0.7-2.7-1.6-5.4-2.4-8c-3.2-10.3-6-19.1-2.8-28.7c3.6-2.1,8.6-6,12.6-12.5c2.2-3.5,3.6-7.1,5-10.5
				c2.9-7.1,5.4-13.2,12.9-16.4c3.5,3.6,12.7,11.8,28.1,18.1c20.3,8.2,31.4,18.6,33.2,30.8c0.6,4.4,0.5,8.2,0.4,11.9
				c-0.2,6.8-0.3,13.3,4.1,21.3c4.1,7.6,5.2,15.9,2.8,22.2c-2,5.4-6.4,9.1-13,11c-17.5,4.9-25.8,12.3-25.4,22.6
				c0.4,8.5,11.6,12.3,19.5,12.3c1.4,0,2.6-0.1,3.6-0.4c6-1.5,10.9-9.7,11.1-10c0.2-0.4,0.1-0.8-0.2-1.1c-0.1-0.1-0.3-0.2-0.5-0.2
				c-0.2,0-0.4,0.1-0.5,0.2c0,0-4.3,4.5-9.2,6.3c-1.4-0.3-5.2-1.2-6.1-4.1c-0.8-2.7,0.2-5.7,1-7.3c2.6-5.7,7.2-8.7,12-11.8
				c0.5-0.3,0.9-0.6,1.4-0.9c5.7-3.8,11.6-7.9,15.4-13.9c2.1-3.2,3.3-6.9,3.6-10.7c1.2-7.8,0.4-15.3-2.3-21.6
				c-1-2.4-2.3-4.5-3.6-6.5c-0.5-0.8-1.1-1.7-1.6-2.6c-1.8-3.1-3.2-5.9-2.1-9.1c0.7-1.9,1.6-3.7,2.5-5.4c0.7-1.4,1.5-2.8,2.1-4.3
				c1.3-3.1,2.7-6.8,3-10.8c0.2-2.8,0-5.6-0.6-8.3c-0.6-7.8-4.5-18.2-10.6-27.9c-5.5-8.8-15.7-21.6-32.5-32.1
				c-11.4-7.1-21.9-10.7-31.5-10.7c-11.6,0-17.8,5.3-19.2,6.7c-0.8-0.2-3-0.5-6-0.5c-7,0-17.2,1.7-26.1,9.9
				c-13.5,12.4-21.4,36.7-22.4,68.4c-0.1,1.9-0.1,3.6-0.2,5.3c-0.7,24.6-0.8,29.1-9,39.7c-5.9,7.7-9,12.8-8.5,17.4
				c0.3,2.7,1.8,5.1,4.6,7.5C105.2,171.1,107.2,172.8,107.3,174z M250.8,115c0,1.2,0.1,2.4,0.4,3.4c-1.5-2.9-2-5.5-0.6-7.6
				c1.3-2.1,2.5-3.8,3.6-5.4c-0.1,0.2-0.2,0.4-0.3,0.6l-0.1,0.2C252.5,108.8,250.9,111.7,250.8,115z"/>
			<path class="st14" d="M128.2,99.2V98C128.2,98.8,128.2,99.2,128.2,99.2z M128.2,90V98c0.1-6.8,1.6-43,24.4-65.7
				C152.6,32.4,126.5,51.7,128.2,90z M250.4,108.4l2.2-2.1c2.1-3,4-5.3,5.5-7.8c-1,2.7-2.2,5.3-3.6,7.9c-0.6,1.1-1.1,2.2-1.7,3.3
				l5.4-5.2c0,0,0.3,0,0.8-0.1c0.2-0.4,0.4-0.9,0.6-1.3c1.4-3.3,2.6-6.8,3-10.5c0.3-2.8,0-5.5-0.6-8.1c-0.8-11.6-10.3-34.8-33.6-53
				C248.9,50,254.7,72.3,256.4,84c-0.6-1.3-1.3-2.7-2.1-4.2c-11.7-29.7-49.5-48.9-49.5-48.9c21.1,12.4,33.5,26.3,40.6,36.7
				c-1.6-1.8-3.3-3.7-5.2-5.7c-27.9-28.6-61.1-39.2-61.1-39.2s42.5,19.4,62,44.5C260.6,92.4,250.4,108.4,250.4,108.4z M126.5,105
				l2.7-43.1c0,0,8-30.5,37.2-35.8c0,0-34.1-1.9-43.4,43.6C113.6,115.2,126.5,105,126.5,105z M155.8,93.6c3-2.2,6.6-5.5,9.6-10.4
				c6.6-10.6,6.7-22.5,18.7-27.5c3.3,3.5,12.4,11.9,28.2,18.3c20.4,8.2,31.9,18.9,33.7,31.5c0.2,1.4,0.3,2.8,0.4,4.2
				c0.9-4.3,0.9-8.6,0.1-12.9C243.9,65.9,211,46.4,211,46.4c19.5,15.3,27.7,29.7,31.1,37.8C226.3,53.8,178.7,29,178.7,29
				s21.3,14,43.4,33.9C236.8,76,241,86.5,242.1,92c-2.4-4.1-7.1-9.1-15.6-14.6c-22.6-14.5-39.9-19.4-54.5-53.3
				c0,0,4.3,14.9,8.9,26.3c-1.5,0.6-6.4,3.4-9.8,11.9C167.4,72.1,167.6,82.6,155.8,93.6z M170.3,33.8c0,0-24.4,30-22.1,63.4l1.1-5.4
				c-0.4,5.1,0.1,10,2,14.3c-0.1-2.7,0.1-5.3,0.8-8l0-0.8c0,0,0.4-12.6,7.1-25.7c6.6-13.1,13.3-27.6,13.3-27.6s-8.4,12.6-14.6,22.8
				c-2.3,3.8-4.6,8.6-6.3,13.8C154.1,69.8,160.1,47.4,170.3,33.8z"/>
		</g>
	</g>
	<g>
		<path class="st1" d="M154.7,110.7c0,0-3.2-6.9-7.1-8.6c-3.9-1.7-7.1,2.4-7.9,7.4c-0.8,5,2.8,12.6,4.7,14.8c1.9,2.2,8,4,10.2,3.9
			c2.2-0.1,3.1,0.4,3.2-1.9C158,124.2,154.7,110.7,154.7,110.7z"/>
		<path class="st5" d="M154.6,121.7c-0.6-7.2-2.8-13.1-5.2-15.5c-2.4-2.4-5.2-0.6-6.2,2.1c-1,2.7-0.1,6.5-0.1,6.5s2.2-6.6,4.3-5.7
			C149.5,109.9,154.6,121.7,154.6,121.7z"/>
	</g>
</g>
</svg>
