<?xml version="1.0" encoding="utf-8"?>
<!-- Generator: Adobe Illustrator 24.0.3, SVG Export Plug-In . SVG Version: 6.00 Build 0)  -->
<svg version="1.1" id="Layer_1" xmlns="http://www.w3.org/2000/svg" xmlns:xlink="http://www.w3.org/1999/xlink" x="0px" y="0px"
	 width="216.1px" height="625.3px" viewBox="0 0 216.1 625.3" style="enable-background:new 0 0 216.1 625.3;" xml:space="preserve"
	>
<style type="text/css">
	.st0{fill:#4D4D4D;}
	.st1{fill:#333333;}
	.st2{fill-rule:evenodd;clip-rule:evenodd;fill:#F1F2F2;}
	.st3{fill:#EF8F6F;}
	.st4{fill-rule:evenodd;clip-rule:evenodd;fill:#B92500;}
	.st5{fill-rule:evenodd;clip-rule:evenodd;fill-opacity:0.11;}
	.st6{fill-rule:evenodd;clip-rule:evenodd;fill:#FFFFFF;}
	.st7{fill-rule:evenodd;clip-rule:evenodd;fill:#333333;}
	.st8{fill:#B92500;}
	.st9{fill:#8B1600;}
	.st10{fill:#FFC397;}
	.st11{fill:#F7A27C;}
	.st12{fill:#C46951;}
	.st13{fill:#FFFFFF;}
	.st14{fill:#0072B1;}
	.st15{fill:#CEA895;}
	.st16{fill:#FFB882;}
	.st17{fill:url(#SVGID_1_);}
	.st18{fill:#B7B5B7;}
	.st19{fill:#DAD9DA;}
</style>
<title>Artboard 23</title>
<g>
	<path class="st0" d="M58.5,341.5c20.2-36.1,79.5-44.2,103.2-15c26.6,52.4,2.7,174.9,1,186.1c-1.7,11.2,9.1,20,8.3,44.1
		c-0.9,24.1-1.4,51-10.9,91.4l-22.7,1c4.8-29.8-9.1-84.2-14.9-129.7c-7.1-55.8,8.5-110.6-5.6-105c-12.9,5.2-36.5,87.9-38.2,98.2
		c-1.7,10.3,9.8,30.2,6.4,50c-3.4,19.8-11.2,85.5-11.2,85.5h-22c11.1-41.8-9.4-84.7-11.2-129.9C37,425.7,64.4,343.4,58.5,341.5z"/>
	<g>
		<path class="st1" d="M157.5,512.6c1.7-11.2,6.4-122.5-5.8-145.3c-13.5-39.9,5.4-50.6,11.5-43.1c26.6,52.4,1.2,177.2-0.6,188.4
			c-1.7,11.2,9.1,20,8.3,44.1c-0.9,24.1-1.4,51-10.9,91.4h-5.2c9.4-40.4,10-67.3,10.9-91.4C166.7,532.7,155.8,523.8,157.5,512.6z"/>
		<path class="st1" d="M73.5,512.6c1.7-10.3,25.3-93,38.2-98.2c2.3-0.9,4.4-1,6.3-0.4c-0.4,0.1-0.8,0.2-1.2,0.4
			c-12.9,5.2-36.5,87.9-38.2,98.2c-1.7,10.3,9.8,30.2,6.4,50c-3.4,19.8-11.2,85.5-11.2,85.5h-5.1c0,0,7.8-65.7,11.2-85.5
			C83.3,542.9,71.8,523,73.5,512.6z"/>
	</g>
	<path class="st1" d="M134.5,401c-4.3,4.6-24.3,14-41.5,8.6c0,0,9.4,10,24.9,4.9C133.3,409.3,134.5,401,134.5,401z"/>
	<path class="st0" d="M58.1,346c0.5,7,28.2,6.4,46.3,6.4c23.1,0,46.4,0.5,57.2-17.9c5.1-8.8-10.5-33.5,7.3-83.4
		c19.5-54.6,14.2-80-8.8-98.7c-43.9-35.7-132.8-22.7-103.9,76.4C60.1,242.4,56.5,324.4,58.1,346z"/>
	<path class="st1" d="M126,328.1c3.4-9.5-3.1-50,10.2-84.5c11.9-31,22.9-67.4,28.7-86.8c23.7,21.2,20.2,56.1,5.8,94.1
		c-19.7,51.9-4.1,74.7-9.2,83.5c-10.7,18.4-74,20.4-100.5,14.4c-0.3-0.1,1.2,0.2,1,0C120.7,350.8,122.5,337.6,126,328.1z"/>
	<polygon class="st2" points="128.5,160.2 82.5,154.3 93.3,201.2 	"/>
	<path class="st3" d="M90.7,114.3l31.1-22.5l8.7,46c-3.6,15-28.9,20.5-39.4,7.7L90.7,114.3z"/>
	<path class="st1" d="M161.1,643.3l2.9,21.5l-58.9-1c0,0-1-7.8,7.8-9.8c8.5-1.9,25.7-11.7,25.7-11.7L161.1,643.3z"/>
	<path class="st1" d="M75.4,645.2l2.9,21.5l-58.9-1c0,0-1-7.8,7.8-9.8c8.5-1.9,25.7-11.7,25.7-11.7L75.4,645.2z"/>
	<g transform="matrix(1,0,0,1,-4319.62,0)">
		<path class="st4" d="M4426.3,162.9l-4-11.7l-3.7-1.3l-8,8.1l3.8,12.3L4426.3,162.9z"/>
	</g>
	<g transform="matrix(1,0,0,1,-4319.62,0)">
		<path class="st5" d="M4428.1,166l-5.8-14.7l-3.7-1.3l-10.8,10.9l1.6,2.3l10.6-10.2l5.3,14.1L4428.1,166z"/>
	</g>
	<g transform="matrix(1,0,0,1,-4319.62,0)">
		<path class="st4" d="M4419.8,166.3l3.9,27.6l-10.8,6.5l-7.2-13.1l7.8-23L4419.8,166.3z"/>
	</g>
	<g transform="matrix(1,0,0,1,-4319.62,0)">
		<path class="st6" d="M4451,136.4c4,1.3,6.3,3.8,7.8,7c-2.9,10.8-16.6,20.8-31.7,23.7l-6.7-16.5
			C4435.5,151.9,4447.9,140.5,4451,136.4z"/>
	</g>
	<g transform="matrix(-1,0,0,1,4701.85,0)">
		<path class="st6" d="M4608.3,138.5c3.5,2.3,6.4,5,8.4,7c0.1,4.4,0.6,11.2-3.5,17.2l-12.3-11.9
			C4609,144.5,4608.1,141.7,4608.3,138.5z"/>
	</g>
	<g transform="matrix(1,0,0,1,-4319.62,0)">
		<path class="st7" d="M4458.6,139.5l17,11.6l-18,8l1.6,9.6c-15.2,11.5-29.6,24.4-46.6,32.5L4458.6,139.5z"/>
	</g>
	<g transform="matrix(-1,0,0,1,4710.4,0)">
		<path class="st7" d="M4625.4,145.7l20.1,12l-9.8,5.5l1.6,9.6c-5.6,10.3-12.1,20-20.6,28.2C4619.5,181.1,4624,160.5,4625.4,145.7z"
			/>
	</g>
	<path class="st8" d="M128.5,53.5c16.1-26.3-26.7-47.8-42.7-46.9C69.9,7.6,73.6,22.2,73.6,22.2S63,13.3,54.9,17.7
		c-8.1,4.4,2.2,27.6,2.2,27.6s-4-3.9-5.4,3.1C50.3,55.3,56.3,65,56.3,65s1.3,16,13.3,22.1c15.8,8,2.1,37.2,2.1,37.2L128.5,53.5z"/>
	<path class="st9" d="M69.6,87.1c-3.1-1.6-5.5-3.8-7.3-6.3c18.2,4.8,38.9-8.9,47.1-31.8c4.5-12.4,4.4-25,0.7-35.2
		c15.2,8.3,28.6,23,18.4,39.7l-56.8,70.8C71.7,124.3,85.4,95.1,69.6,87.1z"/>
	<path class="st10" d="M125.8,90c0,0,1,30-4.9,35c-5.9,5-21.1,15.9-40.2,20.1c0,0-15.5-31.3-13.2-44c3.1-17.1-7.9-13.4-7.1-23.4
		c0.2-2.3,8.5-33.6,18.1-34.9C99,40.2,131.5,53.2,125.8,90z"/>
	<path class="st11" d="M114.8,125c5.9-5,4.9-35,4.9-35c2.3-14.8-0.5-27.3-6-36.9c9,7.6,14.8,19.6,12.1,37c0,0,1,30-4.9,35
		c-4.7,4-15.4,11.7-29.2,16.8C102.6,136.1,110.6,128.5,114.8,125z"/>
	<path class="st9" d="M126,104.2c11.4-21,31.9-52.5-7-66.3C97.7,30.4,126,104.2,126,104.2z"/>
	<path class="st10" d="M135.9,86.7c-0.6-8.8-15.2-7.6-15.9,0.8c-0.7,8.3-0.6,20,3.4,18C127.5,103.5,136.5,96.4,135.9,86.7z"/>
	<path class="st3" d="M133.8,88.4c-0.4-5.7-9.8-4.9-10.3,0.5c-0.4,5.4-0.4,12.9,2.2,11.6C128.3,99.2,134.2,94.6,133.8,88.4z"/>
	<path class="st10" d="M129.4,94.6c-0.2-3.1-5.5-2.7-5.7,0.3c-0.3,3-0.2,7.2,1.2,6.5C126.4,100.6,129.6,98,129.4,94.6z"/>
	<path class="st9" d="M121.9,104.4c0,0-1.8-20.2,1.7-21.7c0,0,12.6-34.7-8.4-39.1c0,0-15.8-9.8,1.6,61.8L121.9,104.4z"/>
	<path class="st10" d="M76.1,82.1c1.4,10.7-4.4,36.8-2.7,38.3c1.7,1.5,14.9-4.7,14.9-4.7S75.5,77.4,76.1,82.1z"/>
	<path class="st9" d="M85.2,82.2c-1.9,1.2-6.5-1.4-4.5-3.7c2-2.2,11.4-5.7,12.8-5.3c0.9,0.2,4.2,1.3,2.7,3.7
		C95.3,78.5,91.8,78.2,85.2,82.2z"/>
	<g>
		<g>
			<path class="st12" d="M96.8,106.4l-1.2,0.3c3.7,9.6-4.8,17.6-13.1,19.4l0.3,0.7C89.4,125.7,102.1,120,96.8,106.4z"/>
		</g>
		<path class="st3" d="M98,122c0,0-2.5,4.3-8.3,6C95.2,129.1,97.6,126.8,98,122z"/>
		<path class="st12" d="M100,104.7c0,0-2.8,1.9-7.4,1.1C96.3,108.3,98.5,107.6,100,104.7z"/>
	</g>
	<path class="st9" d="M76.1,39.7c1.9-7.2,1.8-13.6-3.3-18.4c-5.1-4.8-12.9-6.7-16.4-3.7C68.3,22.7,73.1,27.5,76.1,39.7z"/>
	<g>
		<path class="st13" d="M86,90.1c-1.1-1.4,0.9-6.4,5.8-7.9s7.3,1.8,7.4,3.1c0.1,1.3-0.6,3.6-3.4,4.7c-2.8,1.1-5.1,0.8-6.4,0.7
			C87.8,90.6,86.6,90.9,86,90.1z"/>
		<path class="st14" d="M87.6,85.4c0,2.3,1.9,4.2,4.2,4.2s4.2-1.9,4.2-4.2c0-1.7-1.1-3.2-2.6-3.9c-0.5-0.2-1.6,0.1-2.1,0.4
			C88.4,83.9,87.6,83.1,87.6,85.4z"/>
		<circle class="st13" cx="93.4" cy="84.6" r="1.7"/>
		<path class="st10" d="M85.7,89c0,0-0.6-2.4,2.4-5.6c3-3.1,6.9-2.4,8-2.5c1.1-0.2,2.2,0.2,1.9,0.4c-0.3,0.3,0.6,1.1,1.5,1
			c0.9-0.2,0,0.7,0,1c0,0.3,1.5,0.2,1.6,0.5c0.1,0.3-0.9,1-0.6,1.1c0.2,0.1,1,0.7,0.6,1c-0.4,0.3-1.2,1.2-1.5,1.6s-1.3,0.7-1.3,0.7
			s1.1-2,0.5-3.4c-0.6-1.4-2.3-2.9-5-2.7c-2.7,0.3-4.5,1.5-5.7,2.6C86.8,86,85.7,89,85.7,89z"/>
	</g>
	<g>
		<path class="st13" d="M77.2,90.9c0.8-1.5-2-5.8-6.8-6.3c-4.8-0.4-6.4,3-6.3,4.3c0.1,1.2,1.2,3.2,4,3.8s4.9-0.2,6.1-0.6
			C75.6,91.7,76.7,91.8,77.2,90.9z"/>
		<path class="st14" d="M74.9,86.8c0.4,2.2-1,4.3-3.1,4.7c-2.2,0.4-4.3-1-4.7-3.1c-0.3-1.5,0.3-3,1.5-3.9c0.5-0.4,0.6,0.4,1.6,0.2
			C72.2,84.3,74.4,84.7,74.9,86.8z"/>
		<path class="st13" d="M73.9,86.3c0.2,0.9-0.4,1.7-1.3,1.9c-0.9,0.2-1.7-0.4-1.9-1.3C70.6,86,71.1,85.2,72,85
			C72.9,84.8,73.7,85.4,73.9,86.3z"/>
		<path class="st10" d="M77.3,89.8c0,0,0.1-2.4-3.3-4.7c-3.4-2.4-9.4-0.6-9.5-0.2c-1.5,4.8,1,6.6,1,6.6s-1.4-1.6-1-3.1
			c0.3-1.4,1.6-3.1,4.2-3.4s4.4,0.6,5.8,1.4C75.7,87.2,77.3,89.8,77.3,89.8z"/>
	</g>
	<path class="st9" d="M70.8,85.2c1.5,0.1,2.3-3.8,0.2-4.8c-2.2-1-8.7,0.1-9.2,1c-0.3,0.5-1.4,2.8,0.8,4.2
		C63.8,86.4,65.4,84.7,70.8,85.2z"/>
	<path class="st3" d="M77.9,85.7c-0.3,12.3-4.4,31.4-2.9,32.7c1.3,1.1,9.2-2.2,12.9-3.8c0.2,0.7,0.4,1.1,0.4,1.1s-13.1,6.2-14.9,4.7
		c-1.7-1.5,4.1-27.6,2.7-38.3C75.9,80.9,76.7,82.5,77.9,85.7z"/>
	<g>
		<path class="st15" d="M25.7,229.5"/>
		<path class="st15" d="M130.9,275.9"/>
		<path class="st16" d="M81.6,356.4c0,0-7.1,20.1-9.3,21.7c-2.2,1.6-7.1,9.5-7.1,9.5l-4.2,2.8l-3.4,1.7l-0.7-0.1l-3.8-0.4
			c0,0-2.9-0.8-3.4-1.5c-0.5-0.7-3.3-2.6-3.3-2.6l-4.3-1.6l-1-1.1c0,0-2.4-3.7-1.9-4.9c0.5-1.2,3.8-9.5,4.5-10.5
			c0.7-1,6-9.7,7.3-11.3c1.3-1.7,7.6-6.2,8.2-6.8c0.6-0.6,2.2-4.1,2.3-6.8c0.1-2.7-14-51.5-15.6-64c-1.6-12.5-1.5-24.4-0.7-34.6
			c0.8-10.2-0.7-35.8-0.7-35.8l5.1,3.1l10.9,4.4l2.5,10.3l2.6,12.3l0.6,4.8l3.6,26.1c0,0,9.3,44.3,10.9,52.4c1.6,8,1,12.7,1,12.7
			L81.6,356.4z"/>
		<path class="st11" d="M81.6,356.4c0,0-7.1,20.1-9.3,21.7c-2.2,1.6-7.1,9.5-7.1,9.5l-4.2,2.8l-3.4,1.7l-0.7-0.1
			c0.1-0.2,0.1-0.3,0.1-0.3l2-4.9l-2.9-3.5l-2.8,3.9l-3.5-0.7l2.7-6.2l-3.8,5.5l-3.2,0.6l-3.8-3.7l1.5-3.6l4.6-9.5l-2.6,9.6
			c0,0-1.3,3.8-1.1,5.3c0.1,1.6,1.6,0.3,2.1,0.1c0.5-0.3,2.1-1.5,2.1-1.5l3.2-5.8c0,0,1.4-3.9,3-5.6c1.6-1.7,3,0.1,3,0.1l4.8-2.1
			c0,0,2.3-4.7,4-6c1.7-1.3,7.8-15.2,7.8-15.2l4.7-4.6c0,0,0.6-11.4,0.3-12.6c-0.3-1.2-5.3-27.6-5.3-27.6s-7.3-25.9-8-29.1
			c-0.7-3.2-6.8-18-6.8-18l6.1,4.7l1.4-16.2l3.6,26.1c0,0,9.3,44.3,10.9,52.4c1.6,8,1,12.7,1,12.7L81.6,356.4z"/>
		
			<linearGradient id="SVGID_1_" gradientUnits="userSpaceOnUse" x1="75.1872" y1="414.4786" x2="75.7584" y2="414.4786" gradientTransform="matrix(0.9997 2.440000e-02 -2.440000e-02 0.9997 9.3641 -36.2094)">
			<stop  offset="4.947920e-02" style="stop-color:#FEB9B8"/>
			<stop  offset="0.9922" style="stop-color:#FEA5A4"/>
		</linearGradient>
		<path class="st17" d="M74.6,375.6c0,0,0.4,3.9,0.4,4.9c0,0.4-0.3,2-0.7,3.9C74.4,383.3,74.6,375.6,74.6,375.6z"/>
		<path class="st16" d="M183.3,238c0,0-2.1,6.2-4.9,11.6c-0.4,0.7-0.8,1.6-1.3,2.7c-2.9,6.7-7.3,19.4-12.5,33.5
			c-4.4,8.2-17.5,22.1-30.2,34.7l-0.1,0.1c-14.4,14.2-28.1,26.6-28.1,26.6s-7.7,8-9,12c-0.6,1.7-0.1,4.4,0.7,7.2
			c1,3.8,2.6,7.9,2.9,9.9c0.5,3.6-1.6,12-2.2,13.1c-0.6,1.1-2.3,1.7-2.3,1.7l-0.6,0.5l-0.6,1.1c0,0,0,0-0.1,0.1c0,0-0.3,1.5-1.5,2.5
			c-1.2,1-2.6,1.1-2.6,1.1l-0.5,0.3l-2.7,1.7l-0.1,0.1l-2.6,0.4l-1.8,0.3l-0.1,0c0,0-4.2,2.2-5.8,2.4c-1.6,0.2-3.7,0.5-5.6-0.8
			c-2.2-1.6,0.5-3.3,0.5-3.3s1.5-0.3,3-1.2c1.5-0.9,2.2-3.7,2.2-3.7s1.1-2.7,1.4-3.6c0.3-0.8-0.3-5.1-0.3-5.1l-3.7-8.3
			c0,0,0.4,3.9,0.4,4.9c0,0.4-0.3,2-0.7,3.9l0,0.1c-0.6,3.1-1.4,6.8-1.4,6.8s-3.2,2-4.1,2.1c-0.8,0.1-2.6,0.3-2.8-1.1
			c-0.2-1.4,0.7-6,0.3-7.3c-0.4-1.3-0.5-7.4-0.6-9.8c-0.1-2.4,1.9-10.9,3.2-14.2c1.3-3.2,10.3-15.6,15.3-19c0,0,0,0,0,0s0,0,0,0
			c2.9-2,8.8-10.5,15.4-20.6c0,0,0-0.1,0.1-0.1c4.7-7.2,9.8-15.2,14.4-22.3c11.2-17.2,20-27.9,20.9-30.9c0.8-2.6,2.1-20.1,2.5-25.5
			c0,0,0,0,0,0c0.1-1,0.1-1.5,0.1-1.5l3.1-9.2c0,0,36.2-11.7,40.9-10.1C186.3,223,183.3,238,183.3,238z"/>
		<path class="st11" d="M79.7,379.5c0,0,1.2,7.3,1.2,8.1c0,0.7-3,6.8-4.4,8.5c-1.4,1.7-4.4,1.4-4.4,1.4s1.5-1.7,3-2.6
			c1.5-0.9,2.2-2.3,2.2-2.3s1.1-2.7,1.4-3.6c0.3-0.8-0.3-5.1-0.3-5.1l-3.7-8.3c0,0-0.1-9.3,0.1-9.7c0.2-0.4,2.3,3,2.3,3L79.7,379.5z
			"/>
		<path class="st11" d="M88.5,386.4l-3.1,10.7l-0.6,1.7l-1.8,0.3c0.8-1.6,1.4-3.3,1.4-3.3l3.5-16.1L88.5,386.4z"/>
		<path class="st11" d="M88.3,396l4.1-9.8c-0.2,1-1.9,8.2-2.2,10.3l-2.7,1.7C88,397,88.3,396,88.3,396z"/>
		<polygon class="st11" points="94.9,392.6 97.1,382.4 96.1,391.1 95.5,391.6 		"/>
		<path class="st11" d="M99.1,351.9l35.1-31.4c-14.4,14.2-28.1,26.6-28.1,26.6s-7.7,8-9,12c-0.6,1.7-0.1,4.4,0.7,7.2l-5-4.7
			l-0.8-5.2l-1.4-1.8L99.1,351.9z"/>
		<path class="st11" d="M137.5,242.4c0.1,1.1,2.5,21,0.8,25.4c-1.1,2.9-23,32.5-38.7,53.4c4.7-7.2,9.8-15.2,14.4-22.3
			c11.2-17.2,20-27.9,20.9-30.9C135.9,265.3,137.1,247.8,137.5,242.4z"/>
		<g>
			<path class="st18" d="M92.6,332.5c-2.9-5.1-12.4-8.8-12.4-8.8l-14.3,5c0,0-1.9,1.8-2.8,2.2c1.2-1.5,1.5,3.3,3.1,2.2
				c2.3-1.7,4.5,0.7,4.2,2.9c2.2-1.2,5.9-3.1,7.4-3.5c2.2-0.5,7.4,6.5,7.4,6.5l1.2,1.5C86.5,340.4,95.4,337.6,92.6,332.5z"/>
			<path class="st19" d="M82.5,341.1c0,0-5.2-6.9-7.4-6.5c-2.2,0.5-9.2,4.4-9.2,4.4l-5.8,9c0,0-0.1-5.2-0.7-7.8
				c-0.6-2.6,3.7-9.4,3.7-9.4l14.3-5c0,0,9.5,3.7,12.4,8.8c2.9,5.1-6.1,7.9-6.1,7.9L82.5,341.1z"/>
			<path class="st18" d="M103.7,344.9c-3-3.3-5.2-4.6-9.4-6.2c-4.2-1.7-7.8-4-7.8-4s-5.3,1.6-6.6,2.3c-1.3,0.7-2.9,1.9-2.9,1.9
				s0.1,3-1,4.7c1-0.4,2-0.7,3-1c1.8-0.5,3.1,0.6,3.5,2c1.2-0.5,2.3-0.9,2.9-0.9c1.7-0.1,13.1,6.9,14.8,9.4c0.9,1.4-2.2,9.3-2.2,9.3
				c0.3,1,0.3,3.1,0.5,3.5c0.5,0.6,7.3-5.4,7.3-5.4l2.1-6.6C107.9,353.9,106.7,348.2,103.7,344.9z"/>
			<path class="st19" d="M105,355.8c0,0-1.2-5.7-4.2-9.1c-3-3.3-5.2-4.6-9.4-6.2c-4.2-1.7-7.8-4-7.8-4s-5.3,1.6-6.6,2.3
				c-1.3,0.7-1.6,3.5-1.6,3.5s-4.1,4.7-4.1,7.5c0,2.9,0,6.8,0,6.8l5.8-8c0,0,3.7-3.2,5.4-3.3c1.7-0.1,13.1,6.9,14.8,9.4
				c1.7,2.5,0.7,7.4,0.7,7.4L105,355.8z"/>
		</g>
	</g>
	<g>
		<path class="st0" d="M162.9,157.4c-27.1,12.9-23.5,92-32,105.6c-8.6,13.7-36.8,61.7-36.8,61.7l20.2,20.2c0,0,51.6-38.5,61.7-70
			C200.5,198.5,174.9,151.6,162.9,157.4z"/>
		<path class="st1" d="M161.7,272.5c17.4-51.3,21.9-92.8,4.7-114c18.3,8.2,33.3,46.2,11.9,112.8c-10.1,31.5-62.9,76-62.9,76
			l-13.1-14.2C118.8,323.9,153.7,296.2,161.7,272.5z"/>
	</g>
	<g>
		<path class="st0" d="M64,155.8c20.7,17.6,5.5,86.2,9.8,100.1c4.3,14,10.7,64.1,10.7,64.1l-27.3,8.3c0,0-20.7-46.6-22.3-76.5
			C31.2,179.5,54.8,148,64,155.8z"/>
		<path class="st1" d="M46.5,258.3c-3.3-48.9-5.7-87.8,14.1-102.3c-17.9,2.9-28.8,36.2-25.5,99.3c1.6,29.9,22,75.4,22,75.4l18.4-8.2
			C63.3,310.8,48.1,280.8,46.5,258.3z"/>
	</g>
</g>
</svg>
