<?xml version="1.0" encoding="utf-8"?>
<!-- Generator: Adobe Illustrator 24.3.0, SVG Export Plug-In . SVG Version: 6.00 Build 0)  -->
<svg version="1.1" id="Layer_1" xmlns="http://www.w3.org/2000/svg" xmlns:xlink="http://www.w3.org/1999/xlink" x="0px" y="0px"
	 viewBox="0 0 287 608" style="enable-background:new 0 0 287 608;" xml:space="preserve">
<style type="text/css">
	.st0{fill:#AB6A4A;}
	.st1{fill:#A36546;}
	.st2{fill:#526F0D;}
	.st3{fill:#709D0D;}
	.st4{fill:#FF2E38;}
	.st5{fill:#590800;}
	.st6{fill:#9A6042;}
	.st7{fill:#FFFFFF;}
	.st8{fill:#AB1535;}
	.st9{fill:#E16736;}
	.st10{fill:#C4552D;}
	.st11{fill:#4A1F00;}
	.st12{fill:#D90017;}
	.st13{fill:#FFB654;}
	.st14{fill:#630E41;}
	.st15{opacity:0.59;fill:#BE8469;}
	.st16{fill:#401D06;}
	.st17{fill:#39170B;}
	.st18{fill:#8DB13E;}
	.st19{opacity:0.59;fill:#8DB13E;}
</style>
<g>
	
		<rect x="110.6" y="262.1" transform="matrix(-0.9897 -0.1433 0.1433 -0.9897 207.2141 574.1421)" class="st0" width="27.3" height="35"/>
	<g>
		<g>
			<path class="st1" d="M34.3,272.3c0,0,89.2,34.6,97.6,28.6c8.4-6-3.7-19.7-8.6-22.1c-4.8-2.2-76.8-13.8-90.3-13.8L34.3,272.3z"/>
			<path class="st0" d="M33.7,269.8l0.7,2.4c0,0,90.2,35.6,98.6,29.6c8.2-6-4.7-20.7-9.8-23c-1-0.4-6.4-1.4-14.2-2.9
				c4.2,5.4,7.2,12.3,2,16C105,296.4,67.1,281.4,33.7,269.8z"/>
		</g>
		<g>
			<path class="st1" d="M5.9,250.4c0,0-1.2,2.8,1.4,4l0,0l15.4,5.9l0.3,0.1l-0.2,0.1l0.2,1L20,261l-12.6-3.5c0,0-2.1,1.5,0,2.5
				l16,5.9l0,0.4c-0.6,0-1,0-1.6,0c-0.9-0.1-5.8-0.4-8.6-1.8c0,0-2.4,0.7,0.5,2.3c0,0,5.3,1.8,11.5,2.5c4.9,3,10.6,3.8,10.6,3.8
				l2.6-1.9l1-2.1l0,0l-10.4-13.1l-2.6-1.4l0,0c-1.5-1.1-3.1-2.1-4.9-3l0,0l-1.9-1.1l-5.9-3.4c-0.3,0.3-0.8,1.6,0.4,2.5l10.6,8
				L8,251.5l0,0L5.9,250.4z"/>
		</g>
	</g>
	<path class="st2" d="M204.8,244.8c0,0-0.8,21.5,4.2,47.7s16.1,41.6,30.2,55.7c14.1,14.1,30.9,13.1,30.9,13.1s-16.4-27.6-13.4-39.2
		c3-11.6,6.5-62.3,0-77.3c-6.5-15-37.5-24.4-37.5-24.4L204.8,244.8z"/>
	<path class="st2" d="M127.7,113.5c1.3,17.9,14.3,48.2,19.1,53c4.8,4.8,60.6-1.3,71.3-8.7c10.7-7.4,12.6-39.3,14-47
		s-38.5-90.1-59.7-86.9s-41.6,41-44.7,50.3C124.6,83.4,127.7,113.5,127.7,113.5z"/>
	<path class="st3" d="M252.2,157.7c0,0,15.5,37.6,15.5,72.5c0,34.9,0,103.4,0,115.9c0,12.6,13.5,19.4,13.5,19.4s-28.3-8.9-32.3-20
		c-4-11.1,9.8-92.9,6.3-109.9c-3.5-16.9-23.1-62.2-23.1-62.2L252.2,157.7z"/>
	<path class="st4" d="M267.8,391.2c0,22.7-9,106.2-9,133.6c0,25.8-5.4,128.4-6,140.1c0,0.7-0.1,1.1-0.1,1.1s-1.4-0.2-3.9-0.5
		c-14.8-1.8-66.4-8.5-69.2-11.3c-3.3-3.3,5.1-8.5-6.9-8.5c-12.1,0-18.7,10.2-34.9,10.2c-15.6,0-31.4-8.2-32.5-8.8h0l0,0
		c0,0,5.2-12.5,5.2-20.7c0-8.3-20.3-82.2-16.2-134.9c3.2-41.5,36.8-142.7,51.1-184.1l0.5-1.6l1.6-4.7l0.7-2.1l0.7-1.9l0.6-1.7
		l0.5-1.5l0.5-1.3l0.4-1.1l0.8-2.1l67.7-3.2C219.2,286.2,267.8,325.8,267.8,391.2z"/>
	<path class="st5" d="M201.4,134.3c0,0,4.2,8.6,6.7,11.3c2.5,2.7,9.1,0.9,9.1,0.9s-14.4,7.3-18.6-2c-2.3-5.2,0-8.9,0-8.9
		L201.4,134.3z"/>
	<path class="st5" d="M242.4,123.3c0,0,0,12.8-4.8,19c-4.8,6.1-14.5,6.1-21.8,5.1c-7.3-1-14.4-11.8-14.4-11.8l11.8-21.9l18.2,6.4
		L242.4,123.3z"/>
	<path class="st6" d="M163.6,160.8c0,0,7.5,5.6,19,5.6s21-6.5,21-6.5s-0.9-0.5-2.3-1.3c-3.7-2.1-6.6-8.7-7-10.8
		c-0.5-2.9,0.4-10.6,0.4-10.6l-17.2,3.8l-4.4,0.5c0,0,0,0.1,0,0.2c0.1,1.1,0.4,6.3,0,8.7C172.8,153.1,163.6,160.8,163.6,160.8z"/>
	<path class="st0" d="M135.9,102c0.1,2-2.4,5.4-2.4,10.4c0,5.6,2.5,21.3,17.8,29.9c2.3,1.3,4.9,2.4,7.8,3.1
		c15.6,4.3,37.2,0.4,48.3-9.7c13.3-12.1,24.1-40.7,24.1-40.7s-14.8-2.9-33.1-16.9C179.9,64.4,163,48.6,163,48.6s-23.1,7-27.9,21.1
		c-1,3-1.6,6.2-1.8,9.3C132.4,90.1,135.8,100.4,135.9,102z"/>
	<g>
		<path class="st5" d="M178.6,124.6c0,0-6,1.2-16.5,1.2c-9.5,0-13.5-1.6-13.3-1.2c0,0,7.3,9.8,15.4,10.3c5.4,0.3,14.4-9.1,14.4-9.1
			V124.6z"/>
		<path class="st7" d="M153.1,126.1c0,0,3.6,0.7,10.9,0.7c7.7,0,13.9-1.2,13.9-1.2s-0.5,0.7-1.8,1.6c-2.2,1.9-6,4.8-10.2,5.5
			c-4.1,0.8-8.3-1.8-8.3-1.8l-0.9-1.7L153.1,126.1z"/>
		<path class="st8" d="M177.1,124.9c0,0-4.6,0.2-10.9-1.3c-5.3-1.2-14.9,1.3-14.9,1.3s3.2,1.3,10.6,1.2
			C169.2,126,177.1,124.9,177.1,124.9z"/>
		<path class="st8" d="M177.1,127.4c0,0-5.8,10.4-12.9,10.9c-7.1,0.5-11.6-9.5-11.6-9.5s6.2,6.2,12.3,5.6
			C171.2,133.7,177.1,127.4,177.1,127.4z"/>
	</g>
	<path class="st9" d="M225.5,106.4c0,0,19.2-12,27.8-5.6c8.6,6.4-12.7,31.7-27.6,25.6c-10.2-4.1-7.2-11.6-7.2-11.6L225.5,106.4z"/>
	<path class="st10" d="M225.4,114.8c0,0,7.6-5.8,15.7-7.1c8.1-1.3,8.7-0.9,8.7-0.9s-6.8,2.9-12.2,6.8
		C232.2,117.6,225.4,114.8,225.4,114.8z"/>
	<path class="st10" d="M229.9,113.7c0,0-1.6,6.9,1.4,8.4c3,1.5,8.3,0,8.3,0s-5.5,0.8-5.8-2.9s1.8-6,1.8-6L229.9,113.7z"/>
	<path class="st11" d="M133.2,80.9c0,0,0-1,1.2-8.6c1.1-7.4,26.9-22.7,28.5-23.7c0.1,0,0.1,0,0.1,0s0,0,0-0.1l9.4-24.7
		c0,0-2.4-0.7-8.1,0c-4,0.5-16.2,6.5-24.2,14.6c-3.5,3.5-6.2,7.4-7.1,11.5C130.2,63.2,133.2,80.9,133.2,80.9z"/>
	<path class="st11" d="M163,48.6c0,0,0,0,0.1,0.1c2,2,24,24,40.5,37.8c17.3,14.5,21.9,19.9,21.9,19.9l14.1-6.3
		c0,0,11.8-25,10.1-35.9c0-0.2-0.1-0.3-0.1-0.5c-1.2-7.2-4.7-16.1-10.3-23.7c-2.8-3.9-6.1-7.6-9.9-10.5c-16.4-12.8-45-8.9-53.5-7.7
		c-1.3,0.2-2.5,0.9-3.6,2C166.5,29.9,163.3,47.2,163,48.6C163,48.6,163,48.6,163,48.6z"/>
	<path class="st12" d="M110.9,273.5c0,0,3.5,4.2,13.4,5.7c9.8,1.5,14,0,14,0l6.6-22.1c0,0,0-0.2-0.1-0.7c-1-6.3-8.4-52.1-4.6-64.1
		c1-3.1,2.6-6.4,4.4-9.8c0.2-0.4,0.5-0.8,0.7-1.3c1.3-2.2,2.7-4.5,4-6.6c5-7.6,9.9-13.7,9.9-13.7s-1.4,0.2-3.7,0.9
		c-1.1,0.3-2.3,0.7-3.7,1.3h0c-3.6,1.4-8.1,3.7-12.9,7.5c-3.3,2.5-6.7,5.7-10,9.7C114.3,197.7,110.9,273.5,110.9,273.5z"/>
	<path class="st4" d="M122.1,220.4c0.6,2.5,2.1,5.1,3.8,7.7c4.2,6.1,10.2,11.5,10.2,11.5s0.3,1.1,1.1,2.9c1,2.6,2.9,6.5,5.6,10.7
		c0.7,1.1,1.3,2.1,2,3.2c3.8,6.1,7,11.5,7,11.5s11.9,6,29.7,5.6c4.3-0.1,8.1-0.6,11.5-1.2c4.5-0.9,8.2-2.1,11-3.2l0.1,0
		c3.8-1.5,5.8-2.9,5.8-2.9s0,0,4.4-7.8c3.6-6.5,10.8-14,13.1-16.3c0.4-0.4,0.7-0.7,0.7-0.7s-1.2-40.1-4.3-61.7
		c-0.2-1.2-0.4-2.4-0.6-3.5c-0.9-5.3-1.9-8.9-3.1-9.8c0,0,0,0,0,0c-5.8-3.8-19.3-8.2-19.3-8.2s-1.9,1.2-5.2,2.3
		c-3.5,1.2-8.5,2.5-14.6,2.5c-11.1,0-13.8-5.4-13.8-5.4l-11.6,4.1l-3.7,1.3h0c0,0-1.4,5.4-3.4,11c-0.9,2.5-1.9,5-3,7.1
		c-0.2,0.5-0.5,0.9-0.7,1.3c-3.8,6.4-18.9,20.8-19.9,22.2C123.7,206.1,120.1,212,122.1,220.4z"/>
	<path class="st12" d="M138.8,170.6c2.9,0.7,6.2,1.8,9.6,3.5c0.3,0.2,0.7,0.3,1,0.5c1.7,0.9,3.4,1.9,5,3
		c12.7,8.9,34.9,13.6,54.9,8.2c2.2-0.6,4.3-1.3,6.1-2c3.2-1.2,6-2.6,8.3-4c3.8-2.2,6.6-4.5,8.5-6.4c-7.1-5.8-11.7-6.8-12.2-6.9
		c0,0,0,0,0,0c-5.8-3.8-19.3-8.2-19.3-8.2s-7.8,4.8-19.8,4.8c-11.1,0-13.8-5.4-13.8-5.4l-11.6,4.1c-1.1,0.3-2.3,0.7-3.7,1.3h0
		C148.2,164.5,143.6,166.9,138.8,170.6z"/>
	<path class="st12" d="M125.6,227.6l0.3,0.5l9.1,14c0,0,0.8,0.1,2.1,0.4c8.3,1.7,37.9,7.9,45.1,12.9c8.4,5.9,10.6,16.9,10.6,16.9
		l11-3.2l0.1,0c3.8-1.5,5.8-2.9,5.8-2.9s0,0,4.4-7.8c3.6-6.5,10.8-14,13.1-16.3l-5.5-6.1c0,0-8.1,4-41.2,3
		C147.5,238.1,125.6,227.6,125.6,227.6z"/>
	<path class="st13" d="M140,273.5c0,0-3.2,1.1-11.9,0c-8.7-1.1-16.9-5-16.9-5l-0.3,4.9c0,0,3.4,5,13.6,6.8
		c10.2,1.8,13.6,0.8,13.6,0.8L140,273.5z"/>
	<path class="st12" d="M267.8,391.2c0,22.7-9,106.2-9,133.6c0,25.8-5.4,128.4-6,140.1l-4,0.6c-14.8-1.8-66.4-8.5-69.2-11.3
		c-3.3-3.3,5.1-8.5-6.9-8.5c-12.1,0-18.7,10.2-34.9,10.2c-15.6,0-31.4-8.2-32.5-8.8c1.4,0.3,23.6,4.4,30.3,5.5
		c7,1.2,29.6-10,34.5-14.9c4.8-4.8,21.5-130.2,21.5-130.2l-10.9,138.1c0,0,2.1,6.5,9.4,6.5c7.2,0,37.1-8.7,43.9-26.4
		c6.8-17.7,2.8-134.3,2.8-134.3c-13.8,22.7-24.2,82.9-24.2,82.9s2.6-78.2,12.9-126.8c10.2-48.5-11.8-120.6-20.2-129
		c-8.4-8.4-60-11.3-60-11.3l0.5-1.6l1.6-4.7l0.7-2.1l0.7-1.9l0.6-1.7l0.5-1.5l0.5-1.3l0.4-1.1l0.8-2.1l67.7-3.2
		C219.2,286.2,267.8,325.8,267.8,391.2z"/>
	<path class="st14" d="M151.6,289.4c-0.5-0.6-1.5-7.9-2-14.2c-0.5-6.3,1.4-8.7,1.4-8.7s22.1,7.6,39.3,4.9
		c17.1-2.7,20.3-5.7,22.6-4.9c2.3,0.7-0.3,7.4,1.4,10.6s4.2,6.8,5,9.1s-12.9,9.8-34.1,9.8C163.9,296,151.6,289.4,151.6,289.4z"/>
	<path class="st12" d="M157.6,292.5c0,0-24.1,89.9-24.1,119.1c0,0,12.6-52.3,24.1-75.5c11.5-23.2,27.1-17.9,31-14
		c3.9,3.9,0,108,0,108s11.5-109,16.7-114.2c5.2-5.2,3.7-23.4,3.7-23.4S182.1,303.5,157.6,292.5z"/>
	<g>
		<path class="st15" d="M167.5,114.7c-0.6,0.6-9.3,0.8-11.2-1s1-9.1,4.3-14.3C160.7,99.3,168.1,114.1,167.5,114.7z"/>
		<path class="st0" d="M170,113.4c-0.6,0.6-9.3,0.8-11.2-1s1-9.1,4.3-14.3C163.2,98.1,170.6,112.8,170,113.4z"/>
		<g>
			<path class="st16" d="M152.6,70l-0.6-3.7c-5.4,0-16.4,3.7-21.1,11.6l0.6,1.2C136.8,72.5,148.2,69.4,152.6,70z"/>
		</g>
		<g>
			<path class="st16" d="M200.7,76.9c-10.4-7.7-25.5-9.3-29.8-9.1l-0.2,3.7c3.9-0.2,20.1,0.6,29,6.8L200.7,76.9z"/>
		</g>
		<g>
			<path class="st7" d="M180.4,95.3c2.1,0,5.4,0.2,9.3-1.7c3.9-1.9,4.6-5.4,4.3-7.2c-0.4-1.9-4.3-6.2-11.2-3.7
				c-7,2.5-9.5,10.1-7.7,12C176.2,95.9,177.9,95.3,180.4,95.3z"/>
			<circle class="st17" cx="183.2" cy="87.2" r="6.2"/>
			<circle class="st7" cx="185.5" cy="86" r="2.5"/>
			<path class="st17" d="M177.5,86.8c1.7-1.7,4.1-3.7,8.1-4.3c4.1-0.8,6.6,1.2,7.7,3.3c1,1.9-0.4,5-0.4,5s1.4-0.6,1.9-1.2
				c0.4-0.6,1.4-2.1,2.1-2.5s-0.6-1.4-1-1.4c-0.4,0,1-1.2,0.8-1.7c-0.2-0.4-2.5-0.2-2.5-0.6c-0.2-0.4,1-1.9-0.2-1.4
				s-2.7-0.8-2.3-1.2c0.6-0.4-1-0.8-2.7-0.4c-1.7,0.4-7.2-0.4-11.4,4.6c-3.9,5-2.9,8.5-2.9,8.5S176,88.7,177.5,86.8z"/>
		</g>
		<g>
			<path class="st7" d="M148.1,94.9c-1.9,0.4-5,1-8.9-0.2c-3.9-1.2-5.2-4.3-5.2-6.2c0-1.7,3.1-6.4,9.9-5c6.8,1.4,10.1,8.3,8.7,10.4
				C151.8,95.1,150.3,94.7,148.1,94.9z"/>
			<circle class="st17" cx="144.1" cy="87.8" r="5.8"/>
			<path class="st7" d="M146.2,84.3c-1.2,0-2.1,1.2-2.1,2.5s1.2,2.1,2.5,2.1s2.1-1.2,2.1-2.5S147.4,84.3,146.2,84.3z"/>
			<path class="st17" d="M149.3,86.8c-1.7-1.4-4.1-2.9-8.1-3.1c-3.7-0.2-6,2.1-6.6,4.1c-0.6,1.9,1,4.6,1,4.6s-1.4-0.2-1.9-0.8
				c-0.4-0.4-1.7-1.7-2.3-2.1c-0.6-0.4,0.6-1.2,0.8-1.4c0.2-0.2-1.2-1-1-1.4c0-0.4,2.1-0.4,2.1-0.8s-1.2-1.7,0-1.4
				c1,0.2,2.3-1,1.9-1.4c-0.6-0.4,1-1,2.5-0.8c1.7,0,6.8-1.4,11.4,2.7c4.6,3.9,3.9,7.5,3.9,7.5S151.2,88.2,149.3,86.8z"/>
		</g>
	</g>
	<g>
		<g>
			<path class="st1" d="M212.9,355.5c0,0,65.1-70.1,62.6-80.1c-2.5-10-19.6-3.9-23.7-0.2c-3.9,3.7-41.2,66.2-46.2,78.8L212.9,355.5z
				"/>
			<path class="st0" d="M210.4,355.1l2.5,0.2c0,0,66.4-70.7,63.9-80.7c-2.5-9.8-21-3.3-25,0.6c-0.8,0.8-3.7,5.4-7.9,12.1
				c6.5-1.9,14.1-2.1,15.6,4C261.4,298.7,233.5,328.4,210.4,355.1z"/>
		</g>
		<g>
			<path class="st1" d="M182.1,373.8c0,0,2.1,2.1,4.2,0.2l0,0l11.2-12.1l0.2-0.2v0.2l1,0.2l-1.5,2.5l-7.9,10.4c0,0,0.6,2.5,2.3,1
				l11.4-12.7l0.4,0.2c-0.2,0.6-0.4,1-0.6,1.5c-0.4,0.8-2.5,5.2-4.8,7.3c0,0-0.2,2.5,2.3,0.4c0,0,3.7-4.2,6.5-9.8
				c4.6-3.5,7.5-8.5,7.5-8.5l-0.8-3.1l-1.5-1.7l0,0l-16,4.8l-2.3,1.9l0,0c-1.5,1-3.1,2.1-4.6,3.5l0,0l-1.7,1.3l-5.4,4.2
				c0.2,0.4,1.2,1.3,2.5,0.6l11.4-6.9l-11.9,13.3l0,0L182.1,373.8z"/>
		</g>
	</g>
	<path class="st4" d="M218.6,232.8c0,0,4.2,4,8.8,9.3c2,2.4,4.1,5,5.8,7.7c2.8,4.2,6.3,11.1,9.2,17.3c3.1,6.6,5.5,12.2,5.5,12.2
		c20.3,3.9,30.2-4.4,30.2-4.4s-6.9-46.4-21-70.4c-9.6-16.4-18.3-25.8-24.8-31.1c-7.1-5.8-11.7-6.8-12.2-6.9c0,0,0,0,0,0
		s-1,2.4-2.2,6.4c-0.8,2.9-1.7,6.6-2.4,10.9c-0.5,3.1-0.9,6.6-1,10.3C213.6,210.1,218.6,232.8,218.6,232.8z"/>
	<path class="st12" d="M195.5,160.9c0,0,11.2,5.2,22.3,12c1.8,1.1,3.6,2.2,5.4,3.4c3.3,2.2,6.4,4.5,9.1,6.7
		c12.6,10.9,33,52.8,33.4,66.9s-23.3,17.2-23.3,17.2c3.1,6.6,5.5,12.2,5.5,12.2c20.3,3.9,30.2-4.4,30.2-4.4s-6.9-46.4-21-70.4
		c-9.6-16.4-18.3-25.8-24.8-31.1c-7.1-5.8-11.7-6.8-12.2-6.9c0,0,0,0,0,0c-5.8-3.8-19.3-8.2-19.3-8.2s-1.9,1.2-5.2,2.3L195.5,160.9z
		"/>
	<path class="st18" d="M265.3,121.2l0,0.1l0,0.2l-1.3,8.9L264,131c-4.1,25.1-12.2,48.8-18.6,55.2c-11.5,11.5-50.1,29.9-83.5,29.5
		c-29.4-0.3-27-41.7-27-41.7s-1-11.3,4-16.3c5-5,11.8,2.5,11.8,2.5s3.2-4.3,6-7.1c2.8-2.8,5.3,5.6,5.3,5.6s34,0.3,41.8-9.4
		c13.5-16.7,1.6-109.3-36.6-120.2c-7.4-2.1-33.5,35.9-37.1,51.8c-3.1,13.7-2.5,28.1-2.3,31.8c-0.4-4.7-2.1-26.9-0.2-43
		c0.4-3.3,1.1-7.2,2.4-11.3c3.2-10.9,9.6-23.7,20.7-33.8c0,0,0,0,0,0c7.6-6.9,17.5-12.4,30.1-15.1C210.4,3,237.4,28.1,253,54.3v0
		c4.3,7.3,7.8,14.6,10.1,21.4C267.2,87.4,267.4,104.2,265.3,121.2z"/>
	<path class="st19" d="M265.3,121.3l0,0.2l-1.3,8.9L264,131c-4.1,25.1-12.2,48.8-18.6,55.2c-11.5,11.5-50.1,29.9-83.5,29.5
		c-29.4-0.3-27-41.7-27-41.7s-1-11.3,4-16.3c5-5,11.8,2.5,11.8,2.5s3.2-4.3,6-7.1c2.8-2.8,5.3,5.6,5.3,5.6s34,0.3,41.8-9.4
		c13.5-16.7,1.6-109.3-36.6-120.2c-7.4-2.1-33.5,35.9-37.1,51.8c-3.1,13.7-2.5,28.1-2.3,31.8c-0.4-4.7-2.1-26.9-0.2-43
		c0.4-3.3,1.1-7.2,2.4-11.3c11.4-12.6,31-33.6,37.3-34.8c9-1.8,48.9,56.8,53.5,68.1c4.6,11.3-15.8,63.8-15.8,63.8
		s26.1-8.1,34.9-16.9c8.3-8.3,12.3-41.9,12.7-45c-0.2,3-2.7,35.5-5.6,48.2c-3,13.3-37.1,33.6-37.1,33.6s32.5,1.3,39.4-4.8
		C255.7,164.6,264.8,123.9,265.3,121.3z"/>
	<path class="st13" d="M277,268.6c0,0-7.2,3.8-18.3,4.9c-11,1.1-13.4,0-13.4,0l2.6,5.8c0,0,4.7,3.6,16.7,1.9
		c12-1.7,13.5-6.3,13.5-6.3L277,268.6z"/>
</g>
</svg>
