<?xml version="1.0" encoding="utf-8"?>
<!-- Generator: Adobe Illustrator 24.3.0, SVG Export Plug-In . SVG Version: 6.00 Build 0)  -->
<svg version="1.1" id="Layer_1" xmlns="http://www.w3.org/2000/svg" xmlns:xlink="http://www.w3.org/1999/xlink" x="0px" y="0px"
	 viewBox="0 0 312.8 641" style="enable-background:new 0 0 312.8 641;" xml:space="preserve">
<style type="text/css">
	.st0{fill:#1A1A1A;}
	.st1{fill:#4D4D4D;}
	.st2{fill:#A36546;}
	.st3{fill:#270210;}
	.st4{fill:#9A6042;}
	.st5{fill:#AB6A4A;}
	.st6{opacity:0.28;fill:#7C2E2E;}
	.st7{opacity:0.59;fill:#BE8469;}
	.st8{fill:#CF2721;}
	.st9{fill:#FFFFFF;}
	.st10{fill:#333333;}
	.st11{fill:#4D4D4F;}
	.st12{fill:none;stroke:#F5D1BE;stroke-width:1.0817;stroke-miterlimit:10;}
	.st13{fill:#39170B;}
	.st14{fill:#390B1D;}
	.st15{opacity:0.29;fill:#813B3B;}
</style>
<g>
	<path class="st0" d="M278.8,676.9c0-20.5-7.1-73.5-10.5-87.7c-3.4-14.2-12.6-58.9-13.4-71.8c-0.8-12.9-13-67.6-13-67.6
		S196,320.8,194.3,320.8c0.4-1-0.5-1.7-0.1-2.7l-58.8-10.8c-1.2,1.2-2.3,2.4-3.6,3.8c-12.6,13.8-33.6,44.7-37,71
		c-3.4,26.3,6.7,121.1,6.7,121.1S83.9,515.7,85.2,542c1.3,26.3,18.5,71,21,88.9c2.5,18-2.1,25.9-2.1,25.9l-8-0.8l3.8,8.8l-16.8,13.4
		c0,0,6.7,9.6,6.7,15c0,5.4-1.7,32.2-1.7,32.2h5c0,0-0.4-31.3,2.9-32.6c3.4-1.3,8.4,9.2,9.2,15c0.8,5.8,2.5,18.8,2.5,18.8h23.9
		l0.8-5.8c0,0-6.3,0-9.2-2.5c-2.9-2.5,0-11.3,0.8-42.2c0.8-30.9-2.5-160.3-2.5-160.3l38.1-144.9c0,0,68.6,127.4,70.3,138.2
		c1.7,10.9-9.2,24.6-6.7,40.5c2.5,15.9,25.6,65.1,31.9,78.1c6.3,12.9,5.5,28,5.5,28l-8,0.8l4.6,9.2L241,679c0,0,5,7.5,5.9,12.5
		c0.8,5,0,33,0,33h5.9c0,0-2.9-30.9,0-31.3c2.9-0.4,7.6,5.4,9.2,10.9c1.7,5.4,3.4,21.3,3.4,21.3h27.7v-4.6c0,0-10.5-0.4-15.1-5.4
		C273.3,710.3,278.8,697.3,278.8,676.9z"/>
	<g>
		<path class="st1" d="M124.3,676c0.8-30.9-2.5-160.3-2.5-160.3l38.1-144.9l-44,144.1c0,0,2.8,167.6,2.2,181.5
			c-0.5,12.7-1.4,21.4-1.4,30.2h15.1l0.8-5.8c0,0-6.3,0-9.2-2.5C120.5,715.7,123.4,706.9,124.3,676z"/>
		<path class="st1" d="M293.1,720.7c-20.1,4.6-25.2-7.9-33.6-41.3c0.1-4.3,11.4-20.9,2.7-48.7c-11.8-37.6-39.1-78.8-31.2-95.7
			c5.6-12.1,7.6-25.1,3.1-36.2c-4-9.9-74.2-127.9-74.2-127.9c11.5,22.1,68.8,128.6,70.3,138.2c1.7,10.9-9.2,24.6-6.7,40.5
			c2.5,15.9,25.6,65.1,31.9,78.1c6.3,12.9,5.5,28,5.5,28l-8,0.8l4.6,9.2L241,679c0,0,5,7.5,5.9,12.5c0.8,5,0,33,0,33h5.9
			c0,0-2.9-30.9,0-31.3c2.9-0.4,7.6,5.4,9.2,10.9c1.7,5.4,3.4,21.3,3.4,21.3h27.7C293.1,725.3,291.4,721.1,293.1,720.7z"/>
	</g>
	<path class="st2" d="M52.8,265.1L38.6,277l30.6,30.1c0,0,19.4,18.3,25,18.5c5.6,0.2,9.9-5.7,9.9-5.7l12.1-2.7l0.8-5.8l-6.5-4.1
		c0,0-0.7-3.5-2.5-8c-1.8-4.5-10.9-11.7-16.5-11.9c-5.6-0.2-13.2,3.2-13.2,3.2L52.8,265.1z"/>
	<polygon class="st2" points="273.9,234.6 297.5,176.7 282.6,171.1 257.7,228 	"/>
	<path class="st2" d="M298.8,175.4c-5,3.7-3.9,6.9-10.8,5.7c-6.1-1-7.6-1.5-9.1-6.9c-1-3.7-1.7-21.6,1.1-24.4
		c1.5-1.6,2.9-2.1,4.1-3.9c0.9-1.5,1.8-3.4,1.9-5.1c0.1-1.8,1.2-3.9,3-3.7c0.7,0.1,4,1.9,1.9,10.9c-0.4,1.9,5.6-11.9,8.8-25.2
		c0.5-2.2,2.6-3.3,3.9,2c0.3,5.7-3.3,15.4-4.7,21c2.7,0.9,6.1,3.1,7.5,5.5c1.7,2.9,2.3,9.9,0.8,13.1
		C306.1,166.7,301.1,173.7,298.8,175.4z"/>
	<polygon class="st0" points="187.1,178.8 247.8,237.3 267,204.4 284.9,212.6 258.8,277.1 173.7,219.5 	"/>
	<path class="st3" d="M136.1,126.8c-8.9-4.5-23.4-55.3-20-61.1c0.5-0.9-14.2,4.7-14.5,10.5c-0.2,4.4-12,58.4-9.2,60.9
		c2.6,6.3,33.5,33.8,33.5,33.8c4.4,3.4,23,8,26.7-0.5C153.6,168.2,147.8,132.6,136.1,126.8z M204.2,157.4c0,0,1.8-75.7-12.8-91.7
		c-2,3-14,34.7-21.8,40.8c-6.3,19.3-13.5,65.1-0.4,75.8C174.1,185.3,208.5,168,204.2,157.4z"/>
	<path class="st0" d="M195.7,181c5.8,8,18.6,25.1,24.1,30.1c-4.7,22.2-28.4,28.2-28.4,28.2s2.1,57.7-0.6,77.1
		c0.1,0.2,1.5,1.3,3.8,3.2l-63.4-11.1c0.1-0.1,0.1-0.1,0.1-0.1s5.6-18.6,2.7-35.5c-2.9-16.9-28.6-61.1-28.6-61.1l-62.2,37.9
		l19.2,24.7l-11,16.5L6.2,244.2c0,0,83.6-83.6,92.2-87.7c8.6-4.1,63.8-2.2,63.8-2.2l3.1,1L195.7,181z"/>
	<path class="st4" d="M165.3,124.8l-2.3,29.6c0,0,8.6,8.6-8.1,10.7c-22.2,2.9-18.8-8.3-18.8-8.3l0.1-31.1L165.3,124.8z"/>
	<path class="st5" d="M109.1,79.4c-10.9-18.7,1.2-54.3,38-55.4c36.8-1.1,51.1,33.6,41.4,52.9c0,0,8.9,5.4,5.9,24.7
		c-3.3,21.5-36.8,38.3-36.8,38.3s0,0,0,0c-2.1,1.8-4.4,2.8-6.8,2.9c-2.4,0.1-4.7-0.8-7-2.5c-0.8-0.4-34.5-15-39.1-36
		C100.6,85.4,109.1,79.4,109.1,79.4z"/>
	<path class="st6" d="M109.1,79.4c-10.9-18.7,1.2-54.3,38-55.4c36.8-1.1,51.1,33.6,41.4,52.9c0,0,8.9,5.4,5.9,24.7
		c-0.8,5.5-3.7,10.8-7.5,15.5c1.2-22.8-1.5-66.2-36.5-67.5c-35-1.2-37.4,46.3-36.3,70.8c-4.5-4.7-8.1-10.1-9.4-16
		C100.6,85.4,109.1,79.4,109.1,79.4z"/>
	<g>
		<path class="st7" d="M151.6,103c0.1-0.2,0.5-0.2,1-0.5c0.5-0.3,1.1-0.8,1.4-1.6c0.3-0.7,0.2-1.7-0.3-2.8c-0.4-1.1-1.3-2.1-2.2-3.4
			c-0.9-1.2-1.9-3-2.2-4.6c-0.4-1.6-0.4-3.2-0.1-4.5c0.5-2.6,1.9-4,2.6-3.6c0.8,0.4,0.5,1.9,0.7,3.9c0.1,1,0.2,2.1,0.5,3.3
			c0.3,1.2,0.9,2.2,1.7,3.5c0.8,1.2,1.8,2.8,2.2,4.5c0.4,1.7,0.2,3.7-0.9,5c-1,1.2-2.4,1.6-3.3,1.5
			C151.8,103.7,151.5,103.2,151.6,103z"/>
	</g>
	<g>
		<path class="st7" d="M147.1,103.5c-0.1,0.6-1.9,0.7-3.2-0.5c-1.3-1.1-1.5-3-0.2-3.2c1.2-0.2,1.8,0.6,2.4,1.4
			C146.5,102,147.3,102.9,147.1,103.5z"/>
	</g>
	<g>
		<path class="st8" d="M166.7,115.4c-7,1.3-10.6-2.5-16.4-2.3c-5.7,0.2-11.6,4.5-15.8,2.8c3.1,4.8,8.3,12.3,16.4,11.8
			C159.2,127,163.8,117.9,166.7,115.4z"/>
		<path class="st9" d="M162.2,117.2c-5,0.9-7.6-0.7-11.7-0.6c-4.1,0.1-8.3,2.2-11.2,0.9c2.2,3.4,5.9,8.6,11.7,8.2
			C156.8,125.3,160.1,118.9,162.2,117.2z"/>
	</g>
	<path class="st10" d="M219.8,211.1c-4.7,22.2-28.4,28.2-28.4,28.2s-17.2,9.3-35.2,3.6c-18-5.8-13,23.1-6.5,35.3
		c6.5,12.3,2.2,31.7,2.2,31.7l-19.6-5.3c1.5-6.3,3.8-19.4,1.8-31.7c-2.9-16.9-23.8-53.2-28.6-61.1c17.6,13.8,30.5-7.9,57.2,2.2
		c16.9,6.4,20.2,0,38.2-6.5C206.6,205.4,218.5,209.9,219.8,211.1z"/>
	<path class="st11" d="M134.4,292.6c20.1,7.6,42.9,4.6,58.2,0.9c1,9.9,2.2,24.9,2.2,26c-27.4,6.8-49.6,6.1-69.1-1.9
		C130.7,308.4,134.4,301.2,134.4,292.6z"/>
	<path class="st11" d="M132.9,234.7c0,0,17.9,8.8,37.6-0.3C158.9,250.6,140.9,245.9,132.9,234.7z"/>
	<g>
		<path class="st12" d="M84.5,85.8"/>
	</g>
	<path class="st0" d="M165.2,139.9c0,0-3.6,5.3-13.7,5.3c-10.2,0-16-4.4-16-4.4l-7,22.6c0,0,7.3,5.8,21.8,5.8s18.6-8.1,18.6-8.1
		L165.2,139.9z"/>
	<g>
		<path class="st9" d="M161.3,88.5c-1.7-2.1,1.4-9.6,8.6-11.7s10.8,2.7,11,4.7c0.2,1.9-0.8,5.3-5,7c-4.2,1.7-7.5,1.1-9.5,1
			C163.9,89.3,162.2,89.7,161.3,88.5z"/>
		<circle class="st13" cx="169.9" cy="81.5" r="6.3"/>
		<circle class="st9" cx="172.3" cy="80.3" r="2.5"/>
		<path class="st13" d="M160.8,86.8c0,0-0.9-3.6,3.6-8.3c4.5-4.7,10.3-3.5,11.9-3.8c1.6-0.3,3.3,0.2,2.8,0.7
			c-0.5,0.4,0.9,1.7,2.2,1.4s0,1.1,0,1.5c0,0.4,2.2,0.3,2.4,0.8s-1.3,1.5-0.9,1.6c0.3,0.1,1.6,1.1,0.9,1.5c-0.6,0.4-1.8,1.9-2.3,2.4
			c-0.5,0.6-1.9,1.1-1.9,1.1s1.6-2.9,0.7-5c-0.9-2.1-3.4-4.4-7.5-3.9c-4.1,0.4-6.7,2.3-8.5,3.9C162.5,82.3,160.8,86.8,160.8,86.8z"
			/>
		<path class="st13" d="M159.7,68.3c-1.2,2.9,4.3,2.2,7.7,0.9c3.4-1.3,7.8-1.9,11.6-1.8c3.7,0.1,8.6,2.3,8.6,2.3s-5.8-3.7-11.4-4.2
			c-5.6-0.5-11.8,0.4-13.7,0.8C160.6,66.9,160.4,66.6,159.7,68.3z"/>
	</g>
	<g>
		<path class="st9" d="M138.5,86c1.6-2-1.3-9.1-8.1-11.1c-6.8-2-10.3,2.6-10.4,4.4c-0.2,1.8,0.8,5,4.7,6.7s7.2,1.1,9,0.9
			C136,86.7,137.6,87.2,138.5,86z"/>
		<circle class="st13" cx="130.3" cy="79.4" r="5.9"/>
		<path class="st9" d="M135,78.2c0,1.3-1.1,2.4-2.4,2.4c-1.3,0-2.4-1.1-2.4-2.4c0-1.3,1.1-2.4,2.4-2.4C133.9,75.9,135,76.9,135,78.2
			z"/>
		<path class="st13" d="M138.9,84.4c0,0,0.8-3.5-3.4-7.9c-4.3-4.4-9.7-3.3-11.3-3.6c-1.5-0.3-3.1,0.2-2.7,0.6
			c0.5,0.4-0.9,1.6-2.1,1.4c-1.2-0.2,0,1,0,1.4c0,0.4-2.1,0.3-2.3,0.8c-0.2,0.4,1.2,1.4,0.9,1.5c-0.3,0.1-1.5,1-0.9,1.4
			c0.6,0.4,1.7,1.8,2.2,2.3s1.8,1.1,1.8,1.1s-1.5-2.8-0.7-4.8c0.9-2,3.2-4.1,7.1-3.7c3.9,0.4,6.3,2.2,8,3.7
			C137.4,80.2,138.9,84.4,138.9,84.4z"/>
		<path class="st13" d="M142.6,66.8c1.2,2.8-4.1,2.1-7.3,0.9c-3.2-1.2-7.4-1.8-11-1.7c-3.5,0.1-8.2,2.2-8.2,2.2s5.5-3.5,10.8-4
			c5.3-0.4,11.2,0.3,12.9,0.8C141.7,65.5,141.9,65.3,142.6,66.8z"/>
	</g>
	<g>
		<g>
			<path class="st14" d="M221.6,139.5c2.7-2.3,4.1-4.5,4.3-7c0.4-4.3-1.7-9.6-7.9-16.2c-13.5-14.3-9.1-20.5-9.1-43.4
				c0-14.6,0-29.1-10.2-45.1c-13-20.4-26.4-17.6-27.2-17.5c-1.3-1.3-9.6-5.3-20.4-4.4c-17.5,1.5-29.3,7.7-41.2,17.5
				c-10.7,8.7-29.1,23.3-22.8,52.4c2.8,13.1,11.2,20.4-3.3,37.3c-5.9,6.9-8.4,11.9-7.9,16.2c0.3,2.5,1.6,4.7,4.3,7
				c3.3,2.8,5.2,4.3,5.3,5.5c0.1,1.1-1.2,2.6-3.3,5.1c-1.8,2.1-5.7,7.5-4.2,11.7c1,2.8,4.2,4.4,9.3,4.8c0.6,0.7,2.7,3,6.2,4.9
				c1.9,1,3.3,2.7,3,3.6c-0.1,0.4-0.8,1.9-6.5,1.9c-0.7,0-1.5,0-2.3-0.1c-1.6-1.1-3.1-2.4-4.4-3.6l-0.1-0.1
				c-0.2-0.1-0.4-0.2-0.6-0.2c-0.4,0-0.7,0.2-0.8,0.6c-0.1,0.4-0.1,0.8,0.2,1c3.2,3.5,7.1,7.8,12.1,7.8c1.1,0,2.2-0.2,3.4-0.6
				c2.6-1,4.7-3,5.8-5.6c1.1-2.5,1.3-5.4,0.4-8c-0.3-0.8-0.7-1.6-1-2.4c-0.4-0.9-0.9-1.7-1.1-2.6c-0.4-1.8-0.1-3.3,0.9-4.9
				c1-1.5,1.7-1.7,5.6,0.6c5.6,3.4,11.4,6.9,10.5,12.1c-1.4,8-9.1,8.4-10.6,8.4c-0.1,0-0.2,0-0.2,0c0,0,0,0,0,0
				c-0.3,0-0.6,0.3-0.7,0.6c-0.1,0.4,0.2,0.8,0.5,0.9c0.1,0,1.5,0.5,3.5,0.5c3.5,0,9.6-1.4,11.4-11c0.4-2.1,0.5-3.9,0.5-5.6
				c0.4-4.4-0.3-8.3-2.1-11.6c-1.2-2.2-3-3.8-4.8-5.4c-0.4-0.3-0.8-0.7-1.1-1c-1.9-1.8-3.8-3.7-3.7-6.1c0.1-2.9,3-12.5,3-18.3
				c0-8.7-3.3-16.6-4.4-20.4c-0.6-2.2-2.9-9.9,1.5-23s10.5-19.4,23.5-24.6c14.4-5.8,24.4-8.4,27.7-11.7c4.6,0,15,21.1,23.1,29.1
				c7.3,7.3,7.3,26.2,4.8,33.5c-2,5.8-4.4,13.1-4.4,21.8c0,5.8,4.3,13.9,4.4,16.9c0.1,2.5-1.8,4.4-3.7,6.1c-0.4,0.3-0.8,0.7-1.1,1
				c-1.8,1.5-3.6,3.1-4.8,5.4c-1.8,3.3-2.5,7.2-2.1,11.6c-0.1,1.6,0.1,3.5,0.5,5.6c1.7,9.5,7.9,11,11.4,11c2,0,3.5-0.4,3.5-0.5
				c0.3-0.1,0.6-0.5,0.5-0.9c-0.1-0.4-0.3-0.6-0.7-0.6c0,0,0,0,0,0c0,0-0.1,0-0.2,0c-1.5,0-9.2-0.4-10.6-8.4
				c-0.9-5.2,4.9-8.7,10.5-12.1c3.9-2.3,4.6-2.1,5.6-0.6c1,1.6,1.3,3.1,0.9,4.9c-0.2,0.9-0.6,1.7-1.1,2.6c-0.4,0.7-0.8,1.5-1,2.4
				c-0.8,2.7-0.7,5.5,0.4,8c1.2,2.6,3.3,4.6,5.8,5.6c1.1,0.4,2.2,0.6,3.4,0.6c5,0,9-4.3,12.1-7.8c0.2-0.3,0.3-0.7,0.2-1
				c-0.1-0.4-0.5-0.6-0.8-0.6c-0.2,0-0.4,0.1-0.6,0.2l-0.1,0.1c-1.3,1.2-2.8,2.5-4.4,3.6c-0.8,0-1.6,0.1-2.3,0.1
				c-5.6,0-6.4-1.4-6.5-1.9c-0.2-1,1.2-2.6,3-3.6c3.5-1.9,5.6-4.2,6.2-4.9c5.1-0.4,8.3-2,9.3-4.8c1.6-4.3-2.4-9.6-4.2-11.7
				c-2.1-2.5-3.4-4-3.3-5.1C216.5,143.8,218.3,142.3,221.6,139.5z"/>
			<path class="st15" d="M212.9,67.9v0.9C212.9,68.8,212.9,68.5,212.9,67.9z M180.4,16.6c21.2,18.2,22.6,47.2,22.7,52.7v-6.5
				C204.7,32.2,180.4,16.6,180.4,16.6z M107.8,43.2C126,23,165.5,7.4,165.5,7.4s-30.9,8.6-56.9,31.5c-1.8,1.6-3.4,3.1-4.9,4.5
				C110.4,35.1,122,24,141.6,14c0,0-35.2,15.4-46,39.2c-4.1,8-2.7,17.2-3.6,15c1.4,2,3.1,3.8,5.1,6.3l2.1,1.7
				C99.2,76.2,89.7,63.4,107.8,43.2z M172.9,39.3c-3.1-6.9-7.7-9.1-9.1-9.6c4.2-9.1,6.2-16.5,6.2-16.5
				c-13.6,27.2-27.6,26.4-48.6,38.1c-7.9,4.4-12.2,8.4-14.5,11.7c1.1-4.4,4.9-12.8,18.6-23.4c20.6-15.9,40.4-27.2,40.4-27.2
				s-44.3,20-59,44.4c3.1-6.5,10.7-18.1,28.9-30.4c0,0-30.6,15.7-33.1,40.4c-0.7,3.4-0.8,6.9,0.1,10.3c0.1-1.1,0.2-2.2,0.4-3.3
				c1.6-10.1,12.4-18.7,31.3-25.3c14.7-5.1,23.2-11.9,26.3-14.7c11.2,4,11.3,13.6,17.4,22c2.8,3.9,6.2,6.6,8.9,8.4
				C176.3,55.5,176.5,47.1,172.9,39.3z M191.1,53.8c-1.6-4.2-3.7-8-5.8-11.1c-5.8-8.2-13.6-18.3-13.6-18.3s6.2,11.7,12.4,22.2
				c6.2,10.5,6.6,20.6,6.6,20.6l0,0.7c0.6,2.2,0.8,4.3,0.7,6.5c1.8-3.4,2.3-7.4,1.9-11.5l1,4.3c2.1-26.8-20.6-50.9-20.6-50.9
				C183.2,27.3,188.8,45.3,191.1,53.8z"/>
		</g>
	</g>
</g>
</svg>
