<?xml version="1.0" encoding="utf-8"?>
<!-- Generator: Adobe Illustrator 24.3.0, SVG Export Plug-In . SVG Version: 6.00 Build 0)  -->
<svg version="1.1" id="Layer_1" xmlns="http://www.w3.org/2000/svg" xmlns:xlink="http://www.w3.org/1999/xlink" x="0px" y="0px"
	 viewBox="0 0 381 608" style="enable-background:new 0 0 381 608;" xml:space="preserve">
<style type="text/css">
	.st0{fill:#AB6A4A;}
	.st1{fill:#A36546;}
	.st2{fill:#526F0D;}
	.st3{fill:#709D0D;}
	.st4{fill:#FF2E38;}
	.st5{fill:#590800;}
	.st6{fill:#9A6042;}
	.st7{fill:#FFFFFF;}
	.st8{fill:#AB1535;}
	.st9{fill:#E16736;}
	.st10{fill:#C4552D;}
	.st11{fill:#4A1F00;}
	.st12{fill:#D90017;}
	.st13{fill:#FFB654;}
	.st14{fill:#630E41;}
	.st15{opacity:0.59;fill:#BE8469;}
	.st16{fill:#401D06;}
	.st17{fill:#39170B;}
	.st18{fill:#8DB13E;}
	.st19{opacity:0.59;fill:#8DB13E;}
</style>
<g>
	
		<rect x="143.6" y="339.5" transform="matrix(-0.9897 -0.1433 0.1433 -0.9897 269.7192 744.7546)" class="st0" width="36.1" height="46.3"/>
	<g>
		<g>
			<path class="st1" d="M42.6,353c0,0,118.1,45.8,129.2,37.8c11.1-8-4.9-26-11.3-29.2c-6.4-2.9-101.6-18.3-119.5-18.3L42.6,353z"/>
			<path class="st0" d="M41.8,349.7l1,3.2c0,0,119.4,47.1,130.5,39.2c10.9-7.9-6.2-27.4-13-30.5c-1.3-0.6-8.4-1.9-18.8-3.8
				c5.6,7.1,9.5,16.3,2.7,21.2C136.2,384.9,86,365.1,41.8,349.7z"/>
		</g>
		<g>
			<path class="st1" d="M5,324.1c0,0-1.6,3.6,1.8,5.3l0,0l20.4,7.8l0.3,0.1l-0.2,0.1l0.2,1.3l-3.8-0.7L7,333.4c0,0-2.8,1.9-0.1,3.3
				l21.2,7.8l0,0.6c-0.8,0-1.4,0-2.2,0c-1.1-0.1-7.6-0.5-11.4-2.3c0,0-3.2,1,0.7,3c0,0,7,2.4,15.3,3.2c6.5,4,14.1,5.1,14.1,5.1
				l3.4-2.5l1.4-2.7l0,0l-13.7-17.3l-3.5-1.9l0,0c-1.9-1.4-4.1-2.8-6.5-4l0,0l-2.5-1.5l-7.8-4.6c-0.4,0.4-1.1,2.1,0.5,3.4l14.1,10.6
				l-22.2-8.2l0,0L5,324.1z"/>
		</g>
	</g>
	<path class="st2" d="M268.2,316.6c0,0-1.1,28.4,5.6,63.1s21.3,55.1,39.9,73.8c18.6,18.6,41,17.3,41,17.3s-21.7-36.6-17.7-51.9
		c4-15.3,8.6-82.5,0-102.3c-8.6-19.8-49.6-32.2-49.6-32.2L268.2,316.6z"/>
	<path class="st2" d="M166.3,142.7c1.7,23.8,18.9,63.8,25.3,70.1c6.3,6.3,80.2-1.7,94.4-11.6c14.2-9.9,16.7-52,18.6-62.2
		c1.9-10.2-51-119.2-79.1-115.1s-55.1,54.3-59.2,66.6C162.1,103,166.3,142.7,166.3,142.7z"/>
	<path class="st3" d="M331.1,201.3c0,0,20.6,49.8,20.6,95.9c0,46.2,0,136.9,0,153.5c0,16.6,17.9,25.7,17.9,25.7
		s-37.5-11.8-42.8-26.4c-5.3-14.7,13-123,8.4-145.4c-4.7-22.4-30.5-82.4-30.5-82.4L331.1,201.3z"/>
	<path class="st4" d="M351.6,510.4c0,30.1-11.9,140.5-11.9,176.8c0,34.2-7.1,170-8,185.5c-0.1,0.9-0.1,1.5-0.1,1.5s-1.9-0.2-5.2-0.6
		c-19.6-2.4-87.9-11.2-91.6-14.9c-4.4-4.4,6.8-11.2-9.2-11.2c-16,0-24.8,13.5-46.2,13.5c-20.6,0-41.5-10.8-43-11.6h0l-0.1,0
		c0,0,6.9-16.5,6.9-27.5c0-10.9-26.8-108.8-21.5-178.6c4.2-54.9,48.8-189,67.6-243.7l0.7-2.1l2.1-6.2l1-2.8l0.9-2.5l0.8-2.3l0.7-2
		l0.6-1.7l0.5-1.5l1-2.8l89.6-4.3C287.4,371.4,351.6,423.8,351.6,510.4z"/>
	<path class="st5" d="M263.7,170.3c0,0,5.6,11.4,8.8,15c3.3,3.6,12.1,1.1,12.1,1.1s-19.1,9.7-24.6-2.7c-3.1-6.9,0-11.8,0-11.8
		L263.7,170.3z"/>
	<path class="st5" d="M318,155.7c0,0,0,17-6.3,25.1c-6.3,8.1-19.1,8.1-28.8,6.8c-9.7-1.4-19.1-15.6-19.1-15.6l15.6-29l24.1,8.4
		L318,155.7z"/>
	<path class="st6" d="M213.7,205.4c0,0,9.9,7.4,25.2,7.4s27.8-8.6,27.8-8.6s-1.2-0.6-3-1.7c-4.9-2.8-8.8-11.5-9.2-14.3
		c-0.7-3.8,0.6-14.1,0.6-14.1l-22.8,5.1l-5.8,0.6c0,0,0,0.1,0,0.3c0.1,1.5,0.5,8.3,0,11.5C225.9,195.1,213.7,205.4,213.7,205.4z"/>
	<path class="st0" d="M177.1,127.6c0.2,2.7-3.2,7.1-3.2,13.8c0,7.5,3.4,28.1,23.5,39.6c3.1,1.8,6.6,3.1,10.3,4.2
		c20.6,5.7,49.2,0.6,63.9-12.8c17.6-16,31.9-53.8,31.9-53.8s-19.6-3.9-43.9-22.3C235.3,77.8,213,56.8,213,56.8s-30.6,9.3-37,27.9
		c-1.4,4-2.1,8.2-2.4,12.3C172.5,111.8,177,125.5,177.1,127.6z"/>
	<g>
		<path class="st5" d="M233.6,157.5c0,0-8,1.6-21.8,1.6c-12.5,0-17.9-2.2-17.6-1.6c0,0,9.7,13,20.3,13.6c7.2,0.4,19-12.1,19-12.1
			V157.5z"/>
		<path class="st7" d="M199.8,159.5c0,0,4.7,0.9,14.5,0.9c10.2,0,18.4-1.5,18.4-1.5s-0.7,1-2.3,2.2c-2.9,2.5-8,6.3-13.5,7.3
			c-5.4,1-11-2.3-11-2.3l-1.2-2.2L199.8,159.5z"/>
		<path class="st8" d="M231.6,157.8c0,0-6.1,0.3-14.5-1.7c-7-1.6-19.7,1.8-19.7,1.8s4.2,1.8,14,1.6
			C221.2,159.3,231.6,157.8,231.6,157.8z"/>
		<path class="st8" d="M231.6,161.1c0,0-7.7,13.8-17.1,14.4c-9.4,0.6-15.4-12.6-15.4-12.6s8.2,8.2,16.2,7.4
			C223.7,169.5,231.6,161.1,231.6,161.1z"/>
	</g>
	<path class="st9" d="M295.7,133.4c0,0,25.4-15.9,36.8-7.4c11.3,8.5-16.9,41.9-36.5,33.9c-13.5-5.5-9.5-15.4-9.5-15.4L295.7,133.4z"
		/>
	<path class="st10" d="M295.5,144.5c0,0,10.1-7.6,20.8-9.4c10.7-1.7,11.5-1.2,11.5-1.2s-9,3.9-16.2,9
		C304.5,148.2,295.5,144.5,295.5,144.5z"/>
	<path class="st10" d="M301.5,143c0,0-2.1,9.1,1.9,11.1c4,2,11,0,11,0s-7.3,1-7.7-3.8c-0.3-4.9,2.4-8,2.4-8L301.5,143z"/>
	<path class="st11" d="M173.5,99.6c0,0,0-1.3,1.6-11.3c1.5-9.8,35.6-30.1,37.8-31.3c0.1,0,0.1-0.1,0.1-0.1s0,0,0-0.1L225.5,24
		c0,0-3.1-0.9-10.7,0c-5.3,0.6-21.4,8.6-32.1,19.4c-4.6,4.7-8.2,9.8-9.3,15.2C169.6,76.2,173.5,99.6,173.5,99.6z"/>
	<path class="st11" d="M213,56.8c0,0,0.1,0.1,0.2,0.2c2.6,2.6,31.8,31.8,53.6,50.1c22.8,19.1,29,26.3,29,26.3l18.7-8.4
		c0,0,15.6-33.1,13.4-47.5c0-0.2-0.1-0.4-0.1-0.7c-1.5-9.5-6.3-21.3-13.6-31.4c-3.7-5.2-8.1-10-13.1-13.9
		c-21.7-16.9-59.5-11.7-70.8-10.2c-1.7,0.2-3.3,1.2-4.7,2.7c-7.9,8.1-12.2,31-12.5,32.7C213,56.8,213,56.8,213,56.8z"/>
	<path class="st12" d="M143.9,354.6c0,0,4.7,5.5,17.7,7.6c13,2,18.6,0,18.6,0l8.7-29.3c0,0-0.1-0.3-0.2-0.9c-1.4-8.3-11.1-69-6-84.9
		c1.3-4.1,3.4-8.5,5.8-13c0.3-0.5,0.6-1.1,1-1.7c1.7-3,3.5-5.9,5.3-8.7c6.6-10.1,13.1-18.1,13.1-18.1s-1.8,0.2-5,1.2
		c-1.4,0.4-3.1,1-5,1.8h0c-4.7,1.9-10.7,5-17.1,9.9c-4.3,3.4-8.9,7.6-13.3,12.9C148.5,254.2,143.9,354.6,143.9,354.6z"/>
	<path class="st4" d="M158.8,284.3c0.8,3.2,2.7,6.8,5,10.2c5.6,8.1,13.5,15.3,13.5,15.3s0.5,1.5,1.4,3.9c1.4,3.4,3.8,8.6,7.4,14.2
		c0.9,1.4,1.8,2.8,2.7,4.2c5,8,9.3,15.2,9.3,15.2s15.8,7.9,39.3,7.4c5.6-0.1,10.7-0.7,15.2-1.6c6-1.2,10.9-2.8,14.6-4.3l0.1-0.1
		c5-2,7.7-3.8,7.7-3.8s0,0,5.8-10.3c4.8-8.6,14.3-18.5,17.3-21.5c0.6-0.6,0.9-0.9,0.9-0.9s-1.6-53-5.7-81.6
		c-0.2-1.6-0.5-3.2-0.7-4.6c-1.2-7-2.5-11.8-4.1-12.9c0,0-0.1,0-0.1,0c-7.7-5-25.5-10.9-25.5-10.9s-2.5,1.5-6.9,3.1
		c-4.6,1.7-11.2,3.3-19.4,3.3c-14.6,0-18.3-7.2-18.3-7.2l-15.3,5.4l-5,1.8h0c0,0-1.8,7.1-4.5,14.5c-1.2,3.3-2.5,6.6-4,9.4
		c-0.3,0.6-0.6,1.2-1,1.7c-5.1,8.5-25,27.6-26.4,29.4C160.9,265.3,156.1,273.2,158.8,284.3z"/>
	<path class="st12" d="M180.9,218.4c3.9,1,8.2,2.4,12.6,4.6c0.5,0.2,0.9,0.4,1.4,0.7c2.2,1.1,4.4,2.5,6.6,4
		c16.9,11.7,46.3,18,72.6,10.8c2.9-0.8,5.6-1.7,8.1-2.7c4.3-1.6,7.9-3.4,11-5.3c5-2.9,8.7-5.9,11.3-8.4c-9.4-7.7-15.5-9-16.1-9.1
		c0,0-0.1,0-0.1,0c-7.7-5-25.5-10.9-25.5-10.9s-10.3,6.4-26.2,6.4c-14.6,0-18.3-7.2-18.3-7.2l-15.3,5.4c-1.4,0.4-3.1,1-5,1.8h0
		C193.3,210.3,187.3,213.4,180.9,218.4z"/>
	<path class="st12" d="M163.4,293.8l0.4,0.7l12.1,18.6c0,0,1,0.2,2.8,0.5c11,2.2,50.2,10.4,59.7,17.1c11.1,7.8,14,22.3,14,22.3
		l14.6-4.3l0.1-0.1c5-2,7.7-3.8,7.7-3.8s0,0,5.8-10.3c4.8-8.6,14.3-18.5,17.3-21.5l-7.3-8c0,0-10.7,5.4-54.5,4
		C192.5,307.7,163.4,293.8,163.4,293.8z"/>
	<path class="st13" d="M182.5,354.6c0,0-4.3,1.4-15.8,0c-11.5-1.4-22.4-6.6-22.4-6.6l-0.4,6.5c0,0,4.5,6.6,18.1,9
		c13.5,2.4,18,1.1,18,1.1L182.5,354.6z"/>
	<path class="st12" d="M351.6,510.4c0,30.1-11.9,140.5-11.9,176.8c0,34.2-7.1,170-8,185.5l-5.3,0.8c-19.6-2.4-87.9-11.2-91.6-14.9
		c-4.4-4.4,6.8-11.2-9.2-11.2c-16,0-24.8,13.5-46.2,13.5c-20.6,0-41.5-10.8-43-11.6c1.8,0.3,31.2,5.8,40.1,7.3
		c9.3,1.6,39.2-13.3,45.7-19.7c6.4-6.4,28.5-172.3,28.5-172.3l-14.4,182.8c0,0,2.8,8.6,12.4,8.6s49.1-11.6,58.1-35
		c8.9-23.4,3.7-177.8,3.7-177.8c-18.3,30-32.1,109.8-32.1,109.8s3.5-103.5,17.1-167.8c13.5-64.2-15.6-159.7-26.7-170.8
		c-11.1-11.1-79.4-14.9-79.4-14.9l0.7-2.1l2.1-6.2l1-2.8l0.9-2.5l0.8-2.3l0.7-2l0.6-1.7l0.5-1.5l1-2.8l89.6-4.3
		C287.4,371.4,351.6,423.8,351.6,510.4z"/>
	<path class="st14" d="M197.8,375.7c-0.7-0.7-2-10.4-2.6-18.8c-0.7-8.3,1.8-11.6,1.8-11.6s29.3,10.1,52,6.5
		c22.7-3.6,26.9-7.5,29.9-6.5c3,1-0.5,9.8,1.9,14c2.3,4.2,5.6,8.9,6.6,12.1c1,3.1-17.1,13-45.2,13
		C214.1,384.4,197.8,375.7,197.8,375.7z"/>
	<path class="st12" d="M205.8,379.7c0,0-31.9,119-31.9,157.6c0,0,16.7-69.2,31.9-100c15.3-30.7,35.8-23.7,41-18.5
		c5.2,5.2,0,142.9,0,142.9s15.2-144.3,22.1-151.2c6.8-6.8,5-30.9,5-30.9S238.2,394.3,205.8,379.7z"/>
	<g>
		<path class="st15" d="M218.9,144.3c-0.8,0.8-12.3,1.1-14.8-1.4c-2.5-2.5,1.4-12.1,5.8-18.9C209.8,124,219.7,143.5,218.9,144.3z"/>
		<path class="st0" d="M222.2,142.7c-0.8,0.8-12.3,1.1-14.8-1.4c-2.5-2.5,1.4-12.1,5.8-18.9C213.1,122.4,223,141.9,222.2,142.7z"/>
		<g>
			<path class="st16" d="M199.2,85.2l-0.8-4.9c-7.1,0-21.7,4.9-28,15.4l0.8,1.6C178.3,88.5,193.4,84.4,199.2,85.2z"/>
		</g>
		<g>
			<path class="st16" d="M262.8,94.3c-13.7-10.1-33.7-12.3-39.5-12.1l-0.3,4.9c5.2-0.3,26.6,0.8,38.4,9L262.8,94.3z"/>
		</g>
		<g>
			<path class="st7" d="M235.9,118.7c2.7,0,7.1,0.3,12.3-2.2c5.2-2.5,6-7.1,5.8-9.6c-0.5-2.5-5.8-8.2-14.8-4.9
				c-9.3,3.3-12.6,13.4-10.1,15.9C230.4,119.5,232.6,118.7,235.9,118.7z"/>
			<circle class="st17" cx="239.7" cy="108" r="8.2"/>
			<circle class="st7" cx="242.8" cy="106.3" r="3.3"/>
			<path class="st17" d="M232.1,107.4c2.2-2.2,5.5-4.9,10.7-5.8c5.5-1.1,8.8,1.6,10.1,4.4c1.4,2.5-0.5,6.6-0.5,6.6s1.9-0.8,2.5-1.6
				c0.5-0.8,1.9-2.7,2.7-3.3c0.8-0.5-0.8-1.9-1.4-1.9c-0.5,0,1.4-1.6,1.1-2.2c-0.3-0.5-3.3-0.3-3.3-0.8c-0.3-0.5,1.4-2.5-0.3-1.9
				c-1.6,0.5-3.6-1.1-3-1.6c0.8-0.5-1.4-1.1-3.6-0.5c-2.2,0.5-9.6-0.5-15.1,6c-5.2,6.6-3.8,11.2-3.8,11.2S230.1,109.9,232.1,107.4z"
				/>
		</g>
		<g>
			<path class="st7" d="M193.1,118.1c-2.5,0.5-6.6,1.4-11.8-0.3c-5.2-1.6-6.9-5.8-6.9-8.2c0-2.2,4.1-8.5,13.2-6.6
				c9,1.9,13.4,11,11.5,13.7C198.1,118.4,196.2,117.8,193.1,118.1z"/>
			<circle class="st17" cx="187.9" cy="108.8" r="7.7"/>
			<path class="st7" d="M190.7,104.1c-1.6,0-2.7,1.6-2.7,3.3c0,1.6,1.6,2.7,3.3,2.7s2.7-1.6,2.7-3.3
				C194,105.2,192.3,104.1,190.7,104.1z"/>
			<path class="st17" d="M194.8,107.4c-2.2-1.9-5.5-3.8-10.7-4.1c-4.9-0.3-7.9,2.7-8.8,5.5c-0.8,2.5,1.4,6,1.4,6s-1.9-0.3-2.5-1.1
				c-0.5-0.5-2.2-2.2-3-2.7c-0.8-0.5,0.8-1.6,1.1-1.9c0.3-0.3-1.6-1.4-1.4-1.9c0-0.5,2.7-0.5,2.7-1.1c0-0.5-1.6-2.2,0-1.9
				c1.4,0.3,3-1.4,2.5-1.9c-0.8-0.5,1.4-1.4,3.3-1.1c2.2,0,9-1.9,15.1,3.6c6,5.2,5.2,9.9,5.2,9.9S197.3,109.3,194.8,107.4z"/>
		</g>
	</g>
	<g>
		<g>
			<path class="st1" d="M279,463.2c0,0,86.2-92.8,82.8-106c-3.3-13.3-26-5.1-31.4-0.3c-5.1,4.8-54.6,87.7-61.2,104.3L279,463.2z"/>
			<path class="st0" d="M275.7,462.7l3.3,0.3c0,0,87.9-93.6,84.6-106.8c-3.3-13-27.8-4.3-33.1,0.8c-1,1-4.8,7.1-10.5,16.1
				c8.7-2.5,18.6-2.8,20.6,5.4C343.2,388,306.2,427.2,275.7,462.7z"/>
		</g>
		<g>
			<path class="st1" d="M238.2,487.4c0,0,2.8,2.8,5.6,0.3l0,0l14.8-16.1l0.3-0.3v0.3l1.3,0.3l-2,3.3l-10.5,13.8c0,0,0.8,3.3,3.1,1.3
				l15-16.8l0.5,0.3c-0.3,0.8-0.5,1.3-0.8,2c-0.5,1-3.3,6.9-6.4,9.7c0,0-0.3,3.3,3.1,0.5c0,0,4.8-5.6,8.7-13
				c6.1-4.6,9.9-11.2,9.9-11.2l-1-4.1l-2-2.3l0,0l-21.2,6.4l-3.1,2.5l0,0c-2,1.3-4.1,2.8-6.1,4.6l0,0l-2.3,1.8l-7.1,5.6
				c0.3,0.5,1.5,1.8,3.3,0.8l15-9.2l-15.8,17.6l0,0L238.2,487.4z"/>
		</g>
	</g>
	<path class="st4" d="M286.5,300.7c0,0,5.6,5.3,11.6,12.3c2.7,3.2,5.4,6.7,7.7,10.2c3.7,5.5,8.3,14.8,12.1,22.8
		c4.1,8.7,7.3,16.1,7.3,16.1c26.9,5.2,40-5.8,40-5.8s-9.2-61.4-27.8-93.2c-12.8-21.8-24.3-34.2-32.9-41.2c-9.4-7.7-15.5-9-16.1-9.1
		c0,0-0.1,0-0.1,0s-1.3,3.1-2.9,8.4c-1.1,3.8-2.3,8.7-3.2,14.4c-0.6,4.2-1.2,8.8-1.4,13.7C280,270.7,286.5,300.7,286.5,300.7z"/>
	<path class="st12" d="M256,205.5c0,0,14.8,6.9,29.5,15.9c2.4,1.4,4.8,3,7.1,4.5c4.4,2.9,8.5,5.9,12,8.9
		c16.7,14.5,43.7,70,44.2,88.6S318,346.1,318,346.1c4.1,8.7,7.3,16.1,7.3,16.1c26.9,5.2,40-5.8,40-5.8s-9.2-61.4-27.8-93.2
		c-12.8-21.8-24.3-34.2-32.9-41.2c-9.4-7.7-15.5-9-16.1-9.1c0,0-0.1,0-0.1,0c-7.7-5-25.5-10.9-25.5-10.9s-2.5,1.5-6.9,3.1L256,205.5
		z"/>
	<path class="st18" d="M348.4,153l0,0.2l0,0.3l-1.7,11.8l-0.1,0.7c-5.4,33.3-16.2,64.6-24.6,73c-15.2,15.2-66.4,39.5-110.6,39.1
		c-38.9-0.4-35.8-55.1-35.8-55.1s-1.4-14.9,5.3-21.6c6.7-6.7,15.6,3.3,15.6,3.3s4.2-5.7,7.9-9.5c3.7-3.7,7,7.4,7,7.4
		s45,0.4,55.4-12.5c17.9-22.2,2.1-144.7-48.4-159.1c-9.7-2.8-44.4,47.6-49.2,68.5c-4.1,18.1-3.3,37.2-3,42.1
		c-0.5-6.3-2.8-35.6-0.3-56.9c0.5-4.4,1.5-9.5,3.1-14.9c4.2-14.4,12.7-31.4,27.5-44.7c0,0,0,0,0.1,0c10.1-9.1,23.1-16.4,39.8-20
		c39.3-8.5,75.2,24.8,95.8,59.4v0c5.7,9.6,10.3,19.4,13.4,28.4C350.9,108.2,351.1,130.4,348.4,153z"/>
	<path class="st19" d="M348.4,153.1l0,0.3l-1.7,11.8l-0.1,0.7c-5.4,33.3-16.2,64.6-24.6,73c-15.2,15.2-66.4,39.5-110.6,39.1
		c-38.9-0.4-35.8-55.1-35.8-55.1s-1.4-14.9,5.3-21.6c6.7-6.7,15.6,3.3,15.6,3.3s4.2-5.7,7.9-9.5c3.7-3.7,7,7.4,7,7.4
		s45,0.4,55.4-12.5c17.9-22.2,2.1-144.7-48.4-159.1c-9.7-2.8-44.4,47.6-49.2,68.5c-4.1,18.1-3.3,37.2-3,42.1
		c-0.5-6.3-2.8-35.6-0.3-56.9c0.5-4.4,1.5-9.5,3.1-14.9c15-16.7,41.1-44.4,49.3-46c11.9-2.3,64.8,75.1,70.8,90.1
		c6.1,15-21,84.5-21,84.5s34.6-10.8,46.2-22.3c11-11,16.3-55.4,16.7-59.6c-0.3,4-3.6,47-7.4,63.9c-3.9,17.7-49.2,44.5-49.2,44.5
		s43,1.7,52.1-6.4C335.6,210.4,347.6,156.5,348.4,153.1z"/>
	<path class="st13" d="M363.9,348.1c0,0-9.5,5.1-24.2,6.5c-14.6,1.5-17.8,0-17.8,0l3.4,7.6c0,0,6.2,4.7,22.1,2.5
		c15.9-2.2,17.9-8.3,17.9-8.3L363.9,348.1z"/>
</g>
</svg>
