<?xml version="1.0" encoding="utf-8"?>
<!-- Generator: Adobe Illustrator 24.0.3, SVG Export Plug-In . SVG Version: 6.00 Build 0)  -->
<svg version="1.1" id="Layer_1" xmlns:serif="http://www.serif.com/"
	 xmlns="http://www.w3.org/2000/svg" xmlns:xlink="http://www.w3.org/1999/xlink" x="0px" y="0px" width="526.7px" height="662.1px"
	 viewBox="0 0 526.7 662.1" style="enable-background:new 0 0 526.7 662.1;" xml:space="preserve">
<style type="text/css">
	.st0{fill:#A36546;}
	.st1{fill:#270210;}
	.st2{fill:#1A1A1A;}
	.st3{fill:#333333;}
	.st4{fill:#9A6042;}
	.st5{fill:#4D4D4F;}
	.st6{fill:#AB6A4A;}
	.st7{opacity:0.28;fill:#7C2E2E;}
	.st8{opacity:0.59;fill:#BE8469;}
	.st9{fill:#CF2721;}
	.st10{fill:#FFFFFF;}
	.st11{fill:#39170B;}
	.st12{fill:#390B1D;}
	.st13{opacity:0.29;fill:#813B3B;}
</style>
<g>
	<path class="st0" d="M406.3,596.9c7.1,2.5,31.1,31.1,31.1,31.1l-69.8,63l13.3-50.6L406.3,596.9z"/>
	<path class="st1" d="M278.5,332.2c6.9,15.7,41.4,7.1,49.6,0.9v-5.8c4.8-9,7.6-16.4,15.4-23.4c3.6-3.2,7.6-5.9,11.5-8.6
		c2.8-1.2,5.3-2.3,7.2-3.1c10.2-4.6,23.1-10.1,28-21.8c5.2-4.7,8.8-9.7,8-14c-1.9,1-4.1,2.4-6.1,3.9c-0.1-1.1-0.2-2.1-0.4-3.1
		c8.2-23.1-13.4-70.6-2.6-97.6c2.9-7.1-15.6,6-16-2.1c-0.6-10.6-9.1-21.4-17.4-24.7c0.2,2.3-0.5,4.8,0.5,6.5
		c6.3,10.9-80.1,117.3-96.6,125.5C238,275.6,276.8,328.3,278.5,332.2z M203.3,349c28.4-12.7,18.4-65.1,16.2-101.8
		c-11.1-14.2-18.4-2.1-20.6-8.2c-2.8,4.9-6.6,7.2-11.4,7.2c0,0,0,0-0.1,0c-7.5,12.8-13.8,27.8-20.1,40.1c-2.7,5.3-6.1,11-8.1,17
		l-10.1-14.5C123.9,322,173.3,352.8,203.3,349z"/>
	<path class="st2" d="M360.5,323.3c48.1,45.4,158.1,210.9,158.1,210.9L437.4,628l-31.1-31.1l45.1-64.7L337.7,379.5L360.5,323.3z"/>
	<path class="st2" d="M135.6,599.3l-50.1-66.2L168,417.6c18.9,25.1,93.7,126.1,98.9,163.7c5.4,38.9-12,52.5-37.6,79.1l140.4,26
		c26.9-79.6,16.5-202.4,16.5-202.4s37.1-6,47.1-62.2c-19-6-70.2-61.2-70.2-61.2s10-23.1-5-40.1c-15-17-170.2-12-214.3,6.7
		C99.8,346.1,10.3,544.2,10.3,544.2l98.2,88.2L135.6,599.3z"/>
	<path class="st3" d="M386.2,484.1l-51.1-1.7c0,0-52.1,21.4-42.8,54.8c9.4,33.4,0,89.6,0,89.6l-28.5-9.6c3.9-9.7,5.2-20.9,3.1-35.8
		c-6-43.1-103.3-169.4-103.3-169.4s23.1,23.7,52.5,27.7c29.4,4,70.8-10.7,105.6,0c34.8,10.7,40.1-1.3,65.5-13.4
		c25.4-12,46.1-4.3,46.1-4.3C423.3,478,386.2,484.1,386.2,484.1z"/>
	<path class="st4" d="M268.9,268.4c0,0-11.8,28.9,12.3,53c9.7,21.7-67.4,2.7-67.4,2.7s12.1-18.6,5-87.8
		C221.8,245.4,268.9,268.4,268.9,268.4z"/>
	<path class="st5" d="M265.8,611.2c32.3,23.4,85.9,28.4,115.1,29.3c-3.1,18.3-7.3,35.9-13.2,51.7c-52.3-1.3-98.7-16.8-129.6-40.7
		C251.4,637.6,261.6,626.6,265.8,611.2z"/>
	<path class="st6" d="M351.1,180.5c0,0,14.7,9.6,8.7,42.1c-6.7,36.1-64.2,62.8-64.2,62.8s-76.2-19.4-102.9-91.6
		c-26.7-72.2,37.2-137.4,104.7-118C364.9,75.9,368.5,148.5,351.1,180.5z"/>
	<path class="st7" d="M192.7,193.9C170.6,134.3,211,91.1,263.8,88.8c-16.5,10.1-30.9,27.9-35,59.3c-8.4,64,37.6,114.6,60.2,135.3
		C269.9,276.8,214.7,253.2,192.7,193.9z"/>
	<g>
		<path class="st8" d="M305.7,213.5c-0.1-0.4,0.8-1,2.3-1.7c1.4-0.7,3.5-1.5,5.1-3c0.8-0.7,1.5-1.7,1.8-2.6c0.3-0.9,0.2-1.7-0.1-2.6
			c-0.7-1.9-3.4-4.2-5.7-7.6c-4.7-6.4-7-14.3-7.2-20.2c-0.2-5.9,1.4-9.7,3.1-9.5c1.8,0.2,2.5,3.7,3.8,8.6c1.3,4.9,3.4,11.2,6.9,16.7
			c1.5,2.7,4.5,5.3,5.7,10.3c0.6,2.4,0,5.3-1.2,7.1c-1.2,1.9-2.8,3.1-4.3,3.9c-3.1,1.5-5.7,1.4-7.4,1.4
			C306.7,214.3,305.8,214,305.7,213.5z"/>
	</g>
	<g>
		<path class="st9" d="M329.3,240.2c0,0,10.1-5.5,5.9-9.3c-4.2-3.8-41.5,7.7-58.6,0.1c6.9,17.4,16.5,29.7,32.2,30.5
			C324.5,262.3,329.3,240.2,329.3,240.2z"/>
		<path class="st10" d="M284.4,237.6c15.9,2.9,22.1,4.8,42.6,0.8c-1.9,6.7-7.5,17.6-16.2,17C296.1,254.4,284.4,237.6,284.4,237.6z"
			/>
	</g>
	<path class="st5" d="M322,481.1c0,0-47.1,13-69.2-8C270.9,505.1,305,500.1,322,481.1z"/>
	<path class="st0" d="M134.6,597.3l76.5,64l13.5-10.8l2.7,16.2c0,0-8.1,13.5-16.2,13.5c-19.1,0-102.5-48.8-102.5-48.8
		S121.5,606.4,134.6,597.3z"/>
	<g>
		<g>
			<path class="st0" d="M300.7,635.6L300.7,635.6l-42.4,3.5l29.7-11.6c3.4-1.7,3-4.6,2.6-5.7l-16,4.3l-4.9,1.5l0,0
				c-4.9,1.2-9.3,2.4-13.2,3.7l0,0l-6.8,1.6l-32.5,23.4l0,0l1.1,5.4l4.6,5.9c0,0,13.6,1.6,26.9-1.9c15.1,2.6,28.1,2,28.1,2
				c7.7-1.5,2.5-4.9,2.5-4.9c-7.4,1.6-18.8-1-20.6-1.5c-1.3-0.3-2.6-0.7-3.6-1l0.5-1.1l40.8-3c5.6-1.2,1.3-5.9,1.3-5.9l-31.1-0.1
				l-6.9-0.8l0.9-2.1l-0.6-0.2l0.8-0.1l39.1-3.8l0,0c6.8-1.1,5.7-8.2,5.7-8.2L300.7,635.6z"/>
		</g>
	</g>
	<path class="st2" d="M219.1,283.7c0,0,2.7,5.4,21.6,5.4s27-5.4,27-5.4l27,45.9c0,0-13.5,10.8-40.5,10.8s-45.9-16.2-45.9-16.2
		L219.1,283.7z"/>
	<g>
		<path class="st10" d="M278.4,185.9c3.1-3.9-2.6-17.7-15.9-21.7c-13.4-3.9-20.1,5.1-20.4,8.7c-0.3,3.6,1.6,9.9,9.3,13
			c7.7,3.1,14,2.1,17.6,1.8C273.5,187.3,276.6,188.1,278.4,185.9z"/>
		<circle class="st11" cx="262.4" cy="172.8" r="11.6"/>
		<circle class="st10" cx="258" cy="170.6" r="4.6"/>
		<path class="st11" d="M279.2,182.7c0,0,1.6-6.7-6.7-15.4c-8.3-8.6-19-6.5-22-7c-3-0.5-6.1,0.5-5.2,1.2c0.9,0.8-1.7,3.1-4.1,2.7
			c-2.4-0.5,0,2,0,2.8c0,0.8-4.1,0.6-4.4,1.5c-0.3,0.9,2.4,2.8,1.7,3c-0.6,0.2-2.9,2-1.8,2.8c1.1,0.8,3.3,3.4,4.3,4.5
			s3.5,2.1,3.5,2.1s-3-5.5-1.3-9.4c1.7-3.9,6.3-8.1,13.8-7.3s12.4,4.3,15.7,7.2C276.2,174.4,279.2,182.7,279.2,182.7z"/>
		<path class="st11" d="M281.3,148.3c2.3,5.4-8,4.1-14.3,1.7c-6.3-2.4-14.5-3.5-21.4-3.2c-6.9,0.2-16,4.3-16,4.3s10.8-6.9,21.2-7.8
			c10.4-0.9,21.9,0.6,25.3,1.5C279.6,145.7,280,145.3,281.3,148.3z"/>
	</g>
	<g>
		<path class="st10" d="M320.6,181.2c-3-3.7,2.4-16.8,15.1-20.5c12.7-3.7,19.1,4.8,19.4,8.2c0.3,3.4-1.5,9.4-8.8,12.3
			c-7.3,3-13.3,2-16.7,1.7C325.3,182.5,322.3,183.3,320.6,181.2z"/>
		<circle class="st11" cx="335.7" cy="168.9" r="11"/>
		<path class="st10" d="M327.2,166.8c0,2.4,2,4.4,4.4,4.4c2.4,0,4.4-2,4.4-4.4c0-2.4-2-4.4-4.4-4.4
			C329.1,162.4,327.2,164.3,327.2,166.8z"/>
		<path class="st11" d="M319.8,178.2c0,0-1.5-6.4,6.4-14.6c7.9-8.2,18-6.2,20.9-6.7c2.8-0.5,5.8,0.4,4.9,1.2c-0.9,0.7,1.6,3,3.9,2.5
			c2.2-0.5,0,1.9,0,2.7c0,0.7,3.9,0.6,4.2,1.4c0.3,0.8-2.2,2.6-1.6,2.9c0.6,0.2,2.7,1.9,1.7,2.6c-1.1,0.7-3.2,3.3-4,4.3
			c-0.9,1-3.3,2-3.3,2s2.8-5.2,1.2-8.9c-1.6-3.7-5.9-7.7-13.1-6.9c-7.2,0.7-11.7,4-14.9,6.9C322.7,170.3,319.8,178.2,319.8,178.2z"
			/>
		<path class="st11" d="M313.1,145.6c-2.2,5.1,7.6,3.9,13.5,1.6c5.9-2.3,13.7-3.3,20.3-3.1c6.6,0.2,15.2,4.1,15.2,4.1
			s-10.2-6.6-20.1-7.4c-9.9-0.8-20.7,0.6-24,1.4S314.3,142.7,313.1,145.6z"/>
	</g>
	<g>
		<g>
			<path class="st12" d="M131.9,293.1c0.2,2-2.2,4.8-6.1,9.4c-3.3,3.9-10.6,13.8-7.7,21.8c1.9,5.2,7.7,8.2,17.2,9
				c1.2,1.4,5,5.5,11.5,9.1c3.5,1.9,6,4.9,5.6,6.8c-0.2,0.8-1.6,3.4-12,3.4c-1.3,0-2.7,0-4.2-0.1c-2.9-2.1-5.7-4.5-8.2-6.6l-0.2-0.2
				c-0.3-0.3-0.7-0.4-1-0.4c-0.7,0-1.3,0.5-1.5,1.1c-0.2,0.7-0.1,1.4,0.4,1.9c5.9,6.4,13.2,14.4,22.5,14.4c2.1,0,4.1-0.4,6.2-1.2
				c4.8-1.8,8.7-5.6,10.8-10.4c2.1-4.6,2.3-9.9,0.8-14.9c-0.5-1.5-1.2-3-1.9-4.4c-0.8-1.6-1.6-3.2-2-4.8c-0.8-3.3-0.3-6.2,1.6-9.1
				c1.8-2.8,3.8-5.6,5.7-8.3c2.2-3.2,4.5-6.4,6.6-9.8c0.9-1.4,1.7-2.8,2.6-4.2c5.1-5.9,10-12.6,15.1-20.4c1.9-2.4,3.5-4.8,5-7.2
				c-0.2,1.4-0.6,2.7-1.1,3.8c-1.2,2.7-2.8,4.9-4.4,7.3c-1,1.5-2.1,3.1-3.1,4.8c-3.8,6.5-7.1,14.4-2.5,24.4
				c2.3,5.1,9.1,9.1,16.2,13.5c10.4,6.3,21.2,12.8,19.5,22.4c-2.6,14.8-16.9,15.6-19.7,15.6c-0.2,0-0.3,0-0.3,0c0,0,0,0-0.1,0
				c-0.6,0-1.2,0.5-1.3,1.2c-0.1,0.7,0.3,1.4,0.9,1.6c0.1,0,2.8,0.9,6.5,0.9c6.5,0,17.9-2.6,21.1-20.3c0.7-3.9,1-7.3,0.9-10.3
				c0.7-8.2-0.6-15.4-3.9-21.6c-2.3-4.2-5.6-7.1-8.9-10c-0.7-0.6-1.4-1.2-2.1-1.9c-3.6-3.3-7-6.8-6.9-11.4c0.2-5.4,3-10.5,5.7-15.3
				c0.8-1.4,1.6-2.8,2.3-4.3c3.2-6.2,5-12.4,5.5-18.9c0.3-2.9,0.2-5.9-0.1-8.9c0.2-5.3-0.7-11.3-2.6-18.4c-1.3-4.7-2.7-9.3-4.1-13.8
				c-5.5-17.7-10.3-33-4.8-49.5c6.1-3.7,14.8-10.3,21.7-21.5c3.7-6,6.2-12.2,8.7-18.1c5-12.2,9.2-22.7,22.2-28.4
				c6.1,6.2,21.9,20.4,48.5,31.2c35,14.1,54.2,32,57.2,53.2c1.1,7.6,0.9,14.2,0.8,20.6c-0.3,11.8-0.5,22.9,7.1,36.7
				c7.2,13.1,9,27.4,4.9,38.3c-3.5,9.4-11.1,15.8-22.4,18.9c-30.3,8.5-44.6,21.3-43.7,39c0.7,14.6,20,21.2,33.6,21.2
				c2.4,0,4.5-0.2,6.2-0.6c10.3-2.6,18.8-16.7,19.1-17.3c0.4-0.6,0.2-1.4-0.3-1.9c-0.2-0.2-0.5-0.3-0.8-0.3c-0.3,0-0.6,0.1-0.9,0.4
				c-0.1,0.1-7.5,7.7-15.8,10.9c-2.4-0.4-9-2.1-10.5-7.1c-1.4-4.7,0.4-9.9,1.7-12.5c4.5-9.9,12.4-15,20.7-20.4
				c0.8-0.5,1.6-1,2.4-1.6c9.8-6.5,20-13.7,26.6-24c3.6-5.6,5.7-11.8,6.2-18.5c2.1-13.5,0.7-26.4-4-37.2c-1.8-4.1-4-7.7-6.2-11.3
				c-0.9-1.4-1.8-2.9-2.7-4.4c-3.1-5.3-5.5-10.1-3.6-15.7c1.1-3.2,2.8-6.3,4.4-9.3c1.3-2.4,2.6-4.8,3.6-7.4
				c2.2-5.3,4.6-11.7,5.2-18.6c0.4-4.8,0.1-9.6-1-14.4c-1-13.5-7.8-31.4-18.3-48.1C372.5,75,355,53,326,34.9
				c-19.6-12.2-37.9-18.5-54.3-18.5c-20,0-30.7,9.2-33.1,11.5c-1.5-0.3-5.2-0.8-10.4-0.8c-12.1,0-29.7,3-45,17.1
				c-23.3,21.5-37,63.4-38.7,118c-0.1,3.2-0.2,6.3-0.3,9.2c-1.2,42.5-1.5,50.1-15.5,68.5c-10.2,13.3-15.5,22.1-14.7,30.1
				c0.5,4.6,3,8.7,8,12.9C128.4,288,131.8,290.8,131.9,293.1z M379.6,191.2c-0.1,2.1,0.2,4.1,0.6,5.9c-2.5-5.1-3.4-9.4-1-13.2
				c2.3-3.6,4.4-6.6,6.3-9.3c-0.2,0.3-0.3,0.6-0.5,1l-0.1,0.3C382.4,180.4,379.7,185.6,379.6,191.2z"/>
			<path class="st13" d="M168,163.9v-2C168,163.2,168,163.9,168,163.9z M168,148v13.9c0.1-11.8,2.7-74.1,42-113.3
				C210,48.6,165,82,168,148z M378.9,179.8l3.9-3.6c3.7-5.2,6.8-9.1,9.5-13.4c-1.7,4.7-3.8,9.2-6.1,13.6c-1,1.8-2,3.8-2.9,5.8l9.4-9
				c0,0,0.5,0,1.4-0.1c0.4-0.7,0.7-1.5,1-2.2c2.4-5.8,4.5-11.8,5.1-18.2c0.4-4.8,0-9.5-1-14c-1.4-20-17.8-60.1-57.9-91.5
				c35,31.8,45.1,70.4,48,90.5c-1-2.3-2.2-4.7-3.6-7.2c-20.1-51.2-85.3-84.3-85.3-84.3c36.3,21.4,57.8,45.3,70.1,63.2
				c-2.7-3.1-5.7-6.4-9-9.8c-48.1-49.3-105.4-67.7-105.4-67.7s73.3,33.4,106.9,76.8C396.4,152.2,378.9,179.8,378.9,179.8z
				 M165,173.9l4.6-74.3c0,0,13.8-52.6,64.2-61.8c0,0-58.8-3.3-74.9,75.2C142.8,191.5,165,173.9,165,173.9z M215.6,154.3
				c5.2-3.8,11.3-9.6,16.6-18c11.3-18.2,11.5-38.9,32.3-47.4c5.7,6,21.5,20.5,48.7,31.5c35.1,14.2,55,32.6,58.1,54.3
				c0.3,2.5,0.6,4.9,0.7,7.2c1.6-7.4,1.6-14.9,0.2-22.2c-4.6-53.2-61.3-86.9-61.3-86.9c33.7,26.4,47.8,51.3,53.6,65.3
				c-27.3-52.4-109.3-95.3-109.3-95.3S291.8,67,330,101.3c25.4,22.7,32.5,40.7,34.5,50.2c-4.2-7.1-12.2-15.7-26.9-25.1
				c-39-25.1-68.7-33.4-94-91.9c0,0,7.5,25.7,15.3,45.4c-2.5,1.1-11,5.8-16.8,20.6C235.6,117.1,235.9,135.3,215.6,154.3z
				 M240.6,51.1c0,0-42,51.8-38.2,109.4l1.9-9.3c-0.8,8.7,0.1,17.3,3.5,24.7c-0.2-4.6,0.2-9.2,1.4-13.9l0.1-1.5
				c0,0,0.8-21.7,12.2-44.3c11.5-22.6,22.9-47.6,22.9-47.6s-14.5,21.7-25.2,39.3c-4,6.5-7.9,14.8-10.8,23.8
				C212.7,113.2,223.1,74.6,240.6,51.1z"/>
		</g>
	</g>
	<g>
		<path class="st0" d="M219.1,175.7c0,0-5.5-12-12.2-14.8c-6.7-2.9-12.2,4.1-13.6,12.7c-1.4,8.6,4.8,21.8,8.1,25.6
			c3.4,3.8,13.9,6.9,17.6,6.7c3.7-0.2,5.3,0.6,5.5-3.2C224.8,198.9,219.1,175.7,219.1,175.7z"/>
		<path class="st7" d="M218.9,194.6c-1-12.4-4.8-22.6-8.9-26.7c-4.1-4.1-8.9-1-10.7,3.6c-1.8,4.6-0.3,11.2-0.3,11.2
			s3.8-11.4,7.4-9.9C210,174.3,218.9,194.6,218.9,194.6z"/>
	</g>
</g>
</svg>
