<?xml version="1.0" encoding="utf-8"?>
<!-- Generator: Adobe Illustrator 24.3.0, SVG Export Plug-In . SVG Version: 6.00 Build 0)  -->
<svg version="1.1" id="Layer_1" xmlns="http://www.w3.org/2000/svg" xmlns:xlink="http://www.w3.org/1999/xlink" x="0px" y="0px"
	 viewBox="0 0 260 499.1" style="enable-background:new 0 0 260 499.1;" xml:space="preserve">
<style type="text/css">
	.st0{fill:#4D4D4D;}
	.st1{fill:#666666;}
	.st2{fill:#B2B2B2;}
	.st3{fill:#808080;}
	.st4{fill:#E4CA9B;}
	.st5{fill:#D5B582;}
	.st6{fill:#2BA5DF;}
	.st7{fill:#AE907D;}
	.st8{fill:#C5A996;}
	.st9{fill:#FFB781;}
	.st10{fill:#FFFFFF;}
	.st11{fill:#39170B;}
	.st12{fill:#E78F61;}
	.st13{fill:#542A29;}
	.st14{fill:#422D31;}
	.st15{fill:#513B3E;}
	.st16{fill:#333333;}
	.st17{fill:#FDC280;}
</style>
<g>
	<g>
		<polygon class="st0" points="126.3,319 125.4,271.5 117.1,262.5 117.4,326.3 		"/>
		<polygon class="st0" points="129,335 128.2,313.7 115.6,308.5 115.2,337 		"/>
		
			<rect x="186.4" y="361.9" transform="matrix(-1 -2.988599e-11 2.988599e-11 -1 390.4591 851.5038)" class="st1" width="17.7" height="127.7"/>
		
			<rect x="41.6" y="361.9" transform="matrix(-1 -2.998902e-11 2.998902e-11 -1 100.7728 851.5038)" class="st1" width="17.7" height="127.7"/>
		
			<rect x="96.3" y="369.1" transform="matrix(-1 -2.843738e-11 2.843738e-11 -1 209.3994 840.7303)" class="st1" width="16.8" height="102.6"/>
		
			<rect x="137" y="369.1" transform="matrix(-1 -2.841872e-11 2.841872e-11 -1 289.9779 840.7303)" class="st0" width="15.9" height="102.6"/>
		<path class="st0" d="M47,357.6c0-14.5,13.6-15.2,74.2-15.2c60.6,0,74.2,0.6,74.2,15.2c0,14.5-13.6,15.2-74.2,15.2
			C60.6,372.8,47,372.2,47,357.6z"/>
		<path class="st2" d="M123.4,285.7c72.2,0,86,5.8,77-98.8c-5.6-63.9-17.2-82-89.3-82c-72.2,0-77.1,34.8-77,82
			C34.5,292.1,51.3,285.7,123.4,285.7z"/>
		<path class="st2" d="M217.8,349.1c0-13.5-10.2-15.6-92.7-15.6c-82.5,0-92.7,2.1-92.7,15.6c0,13.5,10.2,15.6,92.7,15.6
			C207.6,364.7,217.8,362.6,217.8,349.1z"/>
		<path class="st3" d="M47.3,349.1c0-5.7,1.9-9.4,10.2-11.7c-2.1-0.6-4.5-1.1-7.4-1.5c-14.8,2.1-17.7,6.1-17.7,13.2
			c0,7.1,2.9,11.1,17.7,13.2c2.9-0.4,5.4-0.9,7.4-1.5C49.1,358.5,47.3,354.8,47.3,349.1z"/>
		<path class="st3" d="M200.1,335.9c-2.8,0.4-5.2,0.9-7.2,1.4c8.6,2.3,10.5,6,10.5,11.8c0,5.8-1.9,9.5-10.5,11.8
			c2,0.5,4.4,1,7.2,1.4c14.8-2.1,17.7-6.1,17.7-13.2C217.8,342,214.9,338,200.1,335.9z"/>
		<path class="st3" d="M199.1,185.3c-3.2-38.3-10.2-64.4-42.2-73.6C60.1,121.7,39.3,181.7,43.4,244c10.3,35.8,31.5,41.7,80,41.7
			C195.6,285.7,207.9,289.9,199.1,185.3z"/>
		<g>
			<path class="st3" d="M155.7,333.7c-1.3,0-2.5,0-3.8,0c0.7,4.5,0.9,9.6,0.9,15.5c0,5.9-0.2,11-0.9,15.5c1.3,0,2.6,0,3.8,0
				c0.7-4.5,0.9-9.6,0.9-15.4C156.6,343.2,156.4,338.1,155.7,333.7z"/>
			<path class="st3" d="M131.1,333.5c-1.3,0-2.5,0-3.8,0c0.6,4.5,0.8,9.7,0.8,15.6c0,5.9-0.2,11-0.8,15.6c1.3,0,2.6,0,3.8,0
				c0.6-4.5,0.8-9.7,0.8-15.6C132,343.2,131.7,338.1,131.1,333.5z"/>
			<path class="st3" d="M101.5,333.6c-1.3,0-2.6,0-3.8,0c0.5,4.5,0.7,9.7,0.7,15.5c0,5.8-0.2,10.9-0.7,15.5c1.2,0,2.5,0,3.8,0
				c0.5-4.6,0.7-9.7,0.7-15.5C102.3,343.3,102.1,338.1,101.5,333.6z"/>
		</g>
		<rect x="107.2" y="289.9" class="st0" width="26.3" height="29.8"/>
	</g>
	<g>
		<g>
			<path class="st4" d="M201.7,253.6c-0.1-5-11-18.9-13.5-32.4c-6.6-35.1-10-85.6-0.9-78.5c12.6,9.8,62.8,103.3,63,143l-84.2,6.3
				l0.9-40.9L201.7,253.6z"/>
			<path class="st5" d="M187.3,142.8c-0.2-0.1-0.4-0.2-0.5-0.3c18.9,26.9,64.7,128.5,58.4,138.4s-78.9,2.1-78.9,2.1l-0.2,9.2
				c0,0,82,6.1,87.5-6.3C259.1,273.4,199.9,152.6,187.3,142.8z"/>
			<path class="st5" d="M207,256.5c0,0-15.2-30.5-22.9-62.3c1.1,9.2,2.6,26.9,4.2,35.4c3.7,11.1,7.5,18.4,9.4,22.8l-6.7,0.9
				L207,256.5z"/>
		</g>
		<g>
			<path class="st4" d="M54.9,253.8c-0.6-5.7,11.6-23.1,16.6-41.5c8.5-30.8-11.1-67.5-18.3-60.9C42.5,161,4.8,237.8,9.9,276.8
				l92.5,15l3.7-29.7L54.9,253.8z"/>
			<path class="st5" d="M16.1,272.2c-9.5-6.9,26.2-92.9,36.3-120c-17.3,14.1-55,123.1-45,128.6c10.1,5.5,95,10.9,95,10.9l1-8.6
				C103.4,283.2,25.6,279.1,16.1,272.2z"/>
		</g>
		<path class="st4" d="M63.8,325.6c-6-36.1-12.7-167.8-10.5-174.3c2.2-6.6,54.8-33.3,66.3-31.1c11.5,2.2,62.3,14.8,68.8,24
			c6.6,9.3-5.5,183.6-5.5,183.6L63.8,325.6z"/>
		<g>
			<path class="st5" d="M188.1,182.7c-3.6,52.1-9.6,141.2-59.5,141.2c-75.2,0-51.1-106.2-72.2-153.9c1.9,29.8-3,140.7,1,152.2
				s127.4,14.7,129.9,1.6c2.5-13.1,4.1-82,4.1-128.8C191.5,168.9,189.3,166.9,188.1,182.7z"/>
		</g>
		<path class="st6" d="M160,130.9c-16.1-5.2-33.6-11.7-39.9-12.9c-5.5-1-20.7,6.7-35,13.4c0,0,17.3,60.8,18.4,85.8c2,45-3,114-3,114
			h59c0,0-7.6-83-11-118C144.3,169,160,130.9,160,130.9z"/>
		<g>
			<path class="st7" d="M96,69.1C82.4,69.8,71.3,50,79.8,38.2c5.1-7,28.3,1,28.3,1S115,68.1,96,69.1z"/>
			<path class="st7" d="M83,50c-9.8-8.8-0.1-29.9,8.6-33.2c48.8-18.7,24,22.9,24,22.9S96.7,62.3,83,50z"/>
			<path class="st8" d="M95.8,31C96,16.3,130.5,0.2,138,5.8c37.3,28.1,0.7,40.4,0.7,40.4S95.4,51.5,95.8,31z"/>
			<path class="st8" d="M142.5,13c23-24.1,43.1,9.7,43.4,18.3c1.3,42.8-29.3,11.1-29.3,11.1S129.7,26.5,142.5,13z"/>
			<path class="st9" d="M93.9,128.8c0,0-2.1-27.1,5.2-59.3l42.4-1.7l7.6,48.9c0,0-3.5,18.3-19,21.7C118.5,141,93.9,128.8,93.9,128.8
				z"/>
			<path class="st8" d="M114.2,34.5C91.9,62.8,95.6,61.3,95.6,61.3s-11.5,15.1-2.3,31.6c0,0-3.4,14.6,9.1,24.6
				c12.5,10,22,9.8,22,9.8s-3.8,10.5,33.6,10.5c12.8,0,19.3-4.3,21.4-15c1.8-9-3.3-15.6-4.4-29.7c-1.2-14,0.7-41-6.5-50
				C161.2,34.2,114.2,34.5,114.2,34.5z"/>
			<path class="st7" d="M107.1,108.9c-0.1-7.3,1.3-13.8,7.3-19.7c-15.5-23.9-0.5-41.6-9.1-47.8c-9,15.2-12.9,18-12.9,18
				s-8.3,17.1,0.9,33.5c0,0-3.4,14.6,9.1,24.6c3.7,2.9,7.1,5,10.1,6.4C109.1,119.3,107.2,114.2,107.1,108.9z"/>
			<path class="st9" d="M174.9,26.6c7.8,17.7-5.6,33-4.5,50.4c1.1,17.4-37.9,10.7-45.8,6.9c-7.9-3.8-8.9-27.3-15.1-37.4
				C86.3,8.5,169.7,14.8,174.9,26.6z"/>
			<g>
				<path class="st10" d="M139.3,64.6c-0.1-4.3-0.8-9.4-7.5-11c-6.7-1.6-9.6,4.5-9.4,6.7s2,5.4,5.7,5.6c3.7,0.3,6.9-0.2,8.3,0
					C137.7,66.1,139.3,65.5,139.3,64.6z"/>
				<circle class="st11" cx="131.4" cy="59.6" r="5.5"/>
				<path class="st10" d="M136,57.5c0,1.4-1.1,2.5-2.5,2.5c-1.4,0-2.5-1.1-2.5-2.5c0-1.4,1.1-2.5,2.5-2.5
					C134.9,55,136,56.1,136,57.5z"/>
				<path class="st10" d="M156.4,64.6c0.1-4.3,0.8-9.4,7.5-11c6.7-1.6,9.6,4.5,9.4,6.7s-2,5.4-5.7,5.6c-3.7,0.3-6.9-0.2-8.3,0
					C157.9,66.1,156.3,65.5,156.4,64.6z"/>
				<path class="st11" d="M159,59.2c0,3,2.4,5.5,5.5,5.5c3,0,5.5-2.4,5.5-5.5s-2.4-5.5-5.5-5.5C161.5,53.8,159,56.2,159,59.2z"/>
				<path class="st10" d="M164.1,57.1c0,1.4,1.1,2.5,2.5,2.5c1.4,0,2.5-1.1,2.5-2.5c0-1.4-1.1-2.5-2.5-2.5
					C165.2,54.6,164.1,55.7,164.1,57.1z"/>
			</g>
			<path class="st12" d="M149.3,54.7c3.5,7.1,9.6,28,8.4,30.8c-0.5,1.2-8.5,1.4-11.7,1.4c0,0.5-0.1,0.8-0.1,0.8s13.4,0.7,14-0.9
				C161.2,83.6,152.8,55,149.3,54.7z"/>
			<path class="st7" d="M140.6,49.5c-1.9,3.4-19,5.1-21.5,3.7c-2.4-1.4-4.2-3-1.3-4.4c2.9-1.4,17-6.1,20-5.1
				C140.9,44.6,141.5,47.9,140.6,49.5z"/>
			<path class="st7" d="M155.6,50.8c3.8,3.7,18.9,4.1,20,2.4c1.1-1.8,1.5-3.7-1.8-5c-3.3-1.4-17.8-5.4-19.8-4.1
				C152.2,45.3,153.9,49.1,155.6,50.8z"/>
			<path class="st12" d="M149.7,35.5c-10-0.1-23.6,4.4-23.6,4.4c27.6-5.8,41.1,0,41.1,0S159.7,35.6,149.7,35.5z"/>
			<path class="st12" d="M148.6,32.2c-8.2-0.1-19.3,3.6-19.3,3.6c22.6-4.8,33.6,0,33.6,0S156.8,32.3,148.6,32.2z"/>
			<path class="st12" d="M148.4,28.4c-8.2-0.1-19.3,3.6-19.3,3.6c22.6-4.8,33.6,0,33.6,0S156.6,28.5,148.4,28.4z"/>
			<g>
				<path class="st9" d="M107.5,65.3c0,0-2.8-6.1-6.3-7.6c-3.4-1.5-6.3,2.1-7,6.5c-0.7,4.4,2.5,11.2,4.2,13.1c1.7,2,7.1,3.6,9,3.4
					c1.9-0.1,2.7,0.3,2.8-1.6C110.4,77.2,107.5,65.3,107.5,65.3z"/>
				<path class="st12" d="M107.4,75c-0.5-6.4-2.5-11.6-4.6-13.7c-2.1-2.1-4.6-0.5-5.5,1.8c-0.9,2.3-0.1,5.7-0.1,5.7s2-5.9,3.8-5.1
					C102.9,64.6,107.4,75,107.4,75z"/>
			</g>
		</g>
		<g>
			<path class="st13" d="M167.9,110.1l1.1-1.9c-4.6-6-15.8-7.9-35.3-5.8l0.1,0.9C152.5,101.3,163.7,104.7,167.9,110.1z"/>
		</g>
		<path class="st13" d="M155.2,115.6c0.1,0.6-1.7,1.7-4.2,1.8c-2.5,0.1-4.9-0.9-4.9-1.5c-0.1-0.6,2.4,0,4.9-0.1
			C153.5,115.7,155.2,115.1,155.2,115.6z"/>
		<path class="st10" d="M178.6,53.2c0,0-12.8-4.8-31.3-3.4C122.1,51.8,86.2,66,86.2,66l1.7,3.3c0,0,45.8-5,62.7-0.5
			c9.3,2.4,26-1.1,26-1.1L178.6,53.2z"/>
	</g>
	<g>
		<path class="st14" d="M78.2,281.8h89.3c20.7,0,39.2,15.1,37.6,36.2v1.7c0,18.3-18.1,33.1-40.5,33.1H75.6
			c-23.3,0-42.1-15.4-42.1-34.4v0C33.5,298.2,53.5,281.8,78.2,281.8z"/>
		<path class="st15" d="M200.2,322.4c-0.6,14.3-28.9,160.8-28.9,160.8l-25.7-0.7c0,0-23.8-160.9-4.8-182.5
			C165.5,271.9,201.8,280.2,200.2,322.4z"/>
		<path class="st14" d="M147.4,309.9c-7.3,43.8,3.3,172.6,3.3,172.6h-5.1c0,0-22.3-163.5-8.1-180.8c7.4-9.1,14-11.9,14-11.9
			S149,300,147.4,309.9z"/>
		<path class="st15" d="M46.7,326.4c3.4,14,25.2,156.8,25.2,156.8l23.8-0.7c0,0,41.4-159.3,12.1-187.4
			C69.8,258.7,40.8,302.2,46.7,326.4z"/>
		<path class="st14" d="M114.4,306.6c14.9,42.9-18.7,175.9-18.7,175.9h-3.4c0,0,18.9-136.8,10.5-172.6c-2.1-8.9-3.3-21.5-3.3-21.5
			S109.2,291.7,114.4,306.6z"/>
	</g>
	<path class="st16" d="M97.5,472.1l3.5,25.9L30,496.9c0,0-1.2-9.4,9.4-11.8c10.2-2.3,31-14.1,31-14.1L97.5,472.1z"/>
	<path class="st16" d="M144.9,472.1l-3.5,25.9l71.1-1.2c0,0,1.2-9.4-9.4-11.8c-10.2-2.3-31-14.1-31-14.1L144.9,472.1z"/>
	<polygon class="st17" points="177.1,469.9 66.5,469.7 65.9,471.6 178.7,471.6 	"/>
	<polygon class="st17" points="177.1,466.6 66.5,466.4 65.9,468.3 178.7,468.3 	"/>
</g>
</svg>
