<?xml version="1.0" encoding="utf-8"?>
<!-- Generator: Adobe Illustrator 25.0.0, SVG Export Plug-In . SVG Version: 6.00 Build 0)  -->
<svg version="1.1" id="Layer_1" xmlns="http://www.w3.org/2000/svg" xmlns:xlink="http://www.w3.org/1999/xlink" x="0px" y="0px"
	 viewBox="0 0 480 600" style="enable-background:new 0 0 480 600;" xml:space="preserve">
<style type="text/css">
	.st0{fill:#D13C69;}
	.st1{fill:#FFCEB1;}
	.st2{fill:#EB9368;}
	.st3{fill:#E8BCA5;}
	.st4{fill:#8E6537;}
	.st5{fill:#FFFFFF;}
	.st6{fill:#39170B;}
	.st7{fill:#EEEEEC;}
	.st8{fill:#353F48;}
	.st9{fill:#242A32;}
	.st10{fill:none;}
	.st11{fill:#FFD366;}
	.st12{font-family:'OpenSans-Extrabold';}
	.st13{font-size:138px;}
</style>
<g transform="matrix(-1.05e-05,240.621,240.621,1.05e-05,404.965,-15.8972)">
	<path class="st0" d="M0-1.7h2.7l0,2.1H0L0-1.7z"/>
</g>
<g>
	<g>
		<g>
			<path class="st1" d="M271.4,176.6c2.9,12.4,15.5,19.9,28,16.8c12.5-3.1,20.3-15.7,17.4-28.1c-2.9-12.4-15.5-19.9-28-16.8
				C276.3,151.6,268.5,164.2,271.4,176.6z"/>
			<path class="st2" d="M291.5,182.9c5.8-1.8,9.2-7.8,7.5-13.6c-1.6-5.6-7.5-8.7-13.1-7.3c1.3-1.2,2.9-2.1,4.7-2.6
				c6.9-2.1,14,1.7,16,8.5c2,6.8-2,14-8.9,16.1c-3.3,1-6.6,0.6-9.4-0.8C289.4,183.2,290.5,183.3,291.5,182.9z"/>
		</g>
		<polygon class="st3" points="215.5,288.3 218.1,381 279.5,355.5 277.5,260 		"/>
		<path class="st1" d="M222.3,56.6c54.4,2.9,59.2,39.1,59.2,39.1s18.1,142.7,16.8,147.3c-4.8,17.3-34.1,47.3-63.1,56.2
			s-69.6-4.4-75.6-39.4c-6-34.9-28.8-164.3-28.8-164.3S132.2,51.8,222.3,56.6z"/>
		<path class="st4" d="M112.3,108.9c0,0,40,44.6,136-12.6c5.2,18.8,23.2,29.6,23.2,29.6l5.9,34.1l-0.1-0.1c0.2,0.7,0.3,1.5,0.4,2.2
			l2.2,12.8c7,50.4-11.9,67.7-26.8,49.9c-19.1-22.8-35.3-8.8-48.4-4.8c-43.1,2.6-30.4,26.5-38.8,30.4c-8.4,4-10.7-15.8-10.7-15.8
			c-0.2,74.8,55.2,88.5,107.4,57.3c52.2-31.2,40-73.1,34.8-81.6c-3.5-5.7-5.9-17.2-7.1-24.1l-1.1-25.8c0,0,2.8-10.4,9.6-12.6
			c3.9-20,6.8-36.2,4.2-51c-6.7-39-29.3-32.6-29.3-32.6s-0.4-1.3-1.5-3.3c-26.9-59-73.4-46.7-104.2-28c-4.3,2.3-8.4,5.2-12.4,8.4
			c-2.9,2.2-5.6,4.4-7.9,6.4c-25.9,22.7-39.5,17.4-39.5,17.4c3,5.6,13.5,7.8,13.5,7.8c-17.2,3-21.3-9-21.3-9
			c-4,23.9,19.9,42.1,30.9,41.7C120,110,112.3,108.9,112.3,108.9z M241,272.2c-20.5,5.6-20.3-15.2-20.3-15.2l-9.1,3.1
			c0,0,10.4,25-14.7,20.2c-25.1-4.8-22-28-20.1-31.4c0,0,17-2.1,28.1-14.3c0,0,17.7,6.2,38.5-4.3C243.4,230.3,271,264,241,272.2z"/>
		<path class="st5" d="M181.4,266.1c0,0,23.6-31.5,64.7-11.7L181.4,266.1"/>
		<path class="st4" d="M254.3,147.6c-2.2,3.6-11.7-4.4-26.1-8.8s-26.1-2.6-25.1-8.7c1.2-7.1,14.9-8.5,29.3-4.1
			C251,131.8,256.8,143.4,254.3,147.6z"/>
		<path class="st4" d="M144.9,164c3.4,2.3,6.4-4.2,14-12.4c7.6-8.2,16.3-12.6,12.4-17.4c-4.5-5.6-13.4-1.3-20.9,7
			C140.7,151.8,141,161.3,144.9,164z"/>
		<g>
			<path class="st2" d="M198.5,152.7c-2.5,23.2-6.1,53.9-5.4,58.2c0.7,4.3,20.5,6.1,23.7,4.1c3.2-2-14.9-62.8-14.9-62.8L198.5,152.7
				z"/>
			<path class="st1" d="M201.5,150c-2.5,23.2-6.1,53.9-5.4,58.2c0.7,4.3,20.5,6.1,23.7,4.1c3.2-2-14.9-62.8-14.9-62.8L201.5,150z"/>
		</g>
		<g>
			<path class="st5" d="M185.8,175.1c-1.2-8.5-4.2-18.3-17.8-19.5c-13.7-1.2-17.8,11.5-16.9,15.7c0.9,4.2,5.6,9.9,13,9.5
				c7.4-0.6,13.7-2.2,16.4-2.4C183.1,178.5,186,176.8,185.8,175.1z"/>
			<ellipse transform="matrix(0.9855 -0.17 0.17 0.9855 -26.0165 31.1128)" class="st6" cx="168.7" cy="167.5" rx="11" ry="10.9"/>
			<path class="st5" d="M169.9,170.5c0.3,2.6-1.5,5.2-4.2,5.5c-2.7,0.3-5.3-1.5-5.6-4.1s1.5-5.2,4.2-5.5
				C166.9,165.9,169.5,167.7,169.9,170.5z"/>
			<path class="st5" d="M219.7,170.3c-1-8.5-1-18.7,11.8-23.7c12.8-5,20.3,6.1,20.5,10.5c0.2,4.5-2.6,11.1-9.9,12.7
				s-13.8,1.5-16.4,2.4C223.2,172.8,219.9,172.1,219.7,170.3z"/>
			<path class="st6" d="M223.6,159.1c0.9,6,6.3,10.2,12.4,9.2s10.3-6.3,9.4-12.3c-0.9-6-6.3-10.2-12.4-9.2
				C226.9,147.6,222.8,153.1,223.6,159.1z"/>
			<path class="st5" d="M225.6,161.8c0.3,2.6,2.9,4.7,5.6,4.1c2.7-0.3,4.7-2.9,4.2-5.5c-0.3-2.6-2.9-4.7-5.6-4.1
				C227.1,156.6,225.3,159.2,225.6,161.8z"/>
		</g>
	</g>
	<path class="st5" d="M136.4,353.2c0,0-1.6,165.8,9.1,250c0,0,41.1,18.4,106.5,15.7c46.2-1.9,59.5-11.8,59.5-11.8l66.3-272.7
		c0,0-33.3-16.2-103.7-16.1c0,0,0.1-2.3-15.8,6.2c-12.2,6.5-16.4,50.8-16.4,50.8s-2.4-44.5-9.3-48.2c-10.6-5.6-8.7-4.4-17.5-6.8
		c-26.5,1.8-47.1,9.9-78.1,15L136.4,353.2z"/>
	<polygon class="st7" points="295.6,317.6 272.5,354.8 256.4,324.7 290,302.8 	"/>
	<path class="st8" d="M352.4,444.7L324,669.3l-88.4,10c0,0-1.1-173.6,60-361.7c0,0,64,2.7,83.5,16.3L352.4,444.7z"/>
	<path class="st8" d="M199.8,320.6c0,0,3.2,230.4,0,358.7l-73.1-14.7l1.2-250.8c0,0-4-48-3-78.3
		C125.4,323.4,199.8,320.6,199.8,320.6z"/>
	<path class="st9" d="M295.6,317.6l15.7,0.9l17.9,61l-38.9,15.8l5.3,25.2l-44.2,78.9C251.4,499.4,282,335.7,295.6,317.6z"/>
	<polygon class="st9" points="199.8,320.6 200.9,501.5 168.3,417.4 185.1,399.5 159.9,386.9 183,322.7 	"/>
	<polygon class="st7" points="196,318.6 213.1,356.5 232.5,327.2 202,306.9 	"/>
	<g>
		<path class="st1" d="M459.9,543c0,0-50,103.2-121,128l-3.1-34c0,0,38.5-32.5,71.5-90.4C440.4,488.8,459.9,543,459.9,543z"/>
		<path class="st1" d="M353.4,664.4c0,0-39.1,33.3-29.6-35.8c0,0-51.4-10.7-5.3-14.6c0,0-50.6-20,3.6-10.2c0,0-40.2-45.7,19.2-0.6
			c0,0,11.9,10.4,9.2,40.7L353.4,664.4z"/>
		<path class="st8" d="M379.1,333.9l96.7,204.4c0,0-53.7,91.1-94.9,113.2l-26.3-39.2c0,0,46.5-59.9,57-84.2l-62.2-92.6L379.1,333.9z
			"/>
		<polyline class="st5" points="355.7,613.9 350.5,619.2 369.8,660 381,651.5 355.7,613.9 		"/>
	</g>
	<g>
		<path class="st1" d="M47,541c0,0,50,103.2,121,128l3.1-34c0,0-38.5-32.5-71.5-90.4C66.5,486.8,47,541,47,541z"/>
		<path class="st8" d="M127.8,331.9L31.1,536.3c0,0,53.7,91.1,94.9,113.2l26.3-39.2c0,0-46.5-59.9-57-84.2l62.2-92.6L127.8,331.9z"
			/>
		<polyline class="st5" points="151.2,611.9 156.4,617.2 137.1,658 126,649.5 151.2,611.9 		"/>
	</g>
</g>
<rect x="343.1" y="35.9" class="st10" width="69.8" height="117.8"/>
<text transform="matrix(1 0 0 1 343.0913 140.8241)" class="st11 st12 st13">?</text>
</svg>
