<?xml version="1.0" encoding="UTF-8" standalone="no"?>
<!DOCTYPE svg PUBLIC "-//W3C//DTD SVG 1.1//EN" "http://www.w3.org/Graphics/SVG/1.1/DTD/svg11.dtd">
<svg width="100%" height="100%" viewBox="0 0 600 500" version="1.1" xmlns="http://www.w3.org/2000/svg" xmlns:xlink="http://www.w3.org/1999/xlink" xml:space="preserve" xmlns:serif="http://www.serif.com/" style="fill-rule:evenodd;clip-rule:evenodd;stroke-linejoin:round;stroke-miterlimit:2;">
    <g transform="matrix(1,0,0,1,140.7,-29.5)">
        <g transform="matrix(0.907479,0,0,0.907479,-136.16,54.7733)">
            <g>
                <path d="M200.6,605.7C200.6,605.7 312.7,484.9 308.4,467.7C304.1,450.4 274.6,461.1 267.6,467.4C261,473.7 196.6,581.5 188,603.1L200.6,605.7Z" style="fill:rgb(163,101,70);fill-rule:nonzero;"/>
                <path d="M196.3,605.1L200.6,605.4C200.6,605.4 315.1,483.6 310.8,466.4C306.5,449.5 274.6,460.8 267.7,467.4C266.4,468.7 261.4,476.7 254.1,488.3C265.4,485 278.3,484.7 281,495.3C284.2,507.8 236.1,558.9 196.3,605.1Z" style="fill:rgb(171,106,74);fill-rule:nonzero;"/>
            </g>
        </g>
        <g transform="matrix(0.907479,0,0,0.907479,-136.16,54.7733)">
            <g>
                <path d="M109.7,601.4C109.7,601.4 66.2,442.4 49.2,437C32.3,431.6 25.7,462.3 27.4,471.5C29.3,480.5 87,592 100.8,610.7L109.7,601.4Z" style="fill:rgb(163,101,70);fill-rule:nonzero;"/>
                <path d="M106.9,604.7L109.5,601.2C109.5,601.2 66.4,439.7 49.4,434.3C32.7,429 25.5,462 27.4,471.5C27.8,473.3 32,481.8 38,494.1C41.1,482.8 47.7,471.6 58.1,474.9C70.6,478.7 88.7,546.5 106.9,604.7Z" style="fill:rgb(171,106,74);fill-rule:nonzero;"/>
            </g>
        </g>
        <g transform="matrix(0.907479,0,0,0.907479,-136.16,54.7733)">
            <path d="M295.1,667.2C295.1,706.4 279.6,850.1 279.6,897.3C279.6,941.8 270.3,1118.5 269.2,1138.8C269.1,1140 269.1,1140.7 269.1,1140.7C269.1,1140.7 266.6,1140.4 262.3,1139.9C236.8,1136.7 147.8,1125.3 143,1120.5C137.3,1114.8 151.8,1105.9 131.1,1105.9C110.3,1105.9 98.8,1123.5 71,1123.5C44.2,1123.5 17,1109.5 15,1108.4L14.9,1108.4C14.9,1108.4 23.9,1086.9 23.9,1072.7C23.9,1058.5 -11,931 -4.1,840.2C1.3,768.8 59.4,594.3 83.9,523L84.8,520.3L87.6,512.2L88.9,508.6L91,502.3L91.9,499.7L92.7,497.5L93.4,495.6L94.7,491.9L211.3,486.4C211.5,486.3 295.1,554.5 295.1,667.2Z" style="fill:rgb(255,46,56);fill-rule:nonzero;"/>
        </g>
        <g transform="matrix(0.907479,0,0,0.907479,-136.16,54.7733)">
            <path d="M222.4,176.5C222.4,176.5 255.5,155.8 270.3,166.9C285.1,177.9 248.4,221.5 222.8,211.1C205.3,204 210.5,191.1 210.5,191.1L222.4,176.5Z" style="fill:rgb(225,103,54);fill-rule:nonzero;"/>
        </g>
        <g transform="matrix(0.907479,0,0,0.907479,-136.16,54.7733)">
            <path d="M222.1,191C222.1,191 235.2,181.1 249.2,178.8C263.1,176.5 264.2,177.3 264.2,177.3C264.2,177.3 252.5,182.3 243.2,189.1C233.8,195.8 222.1,191 222.1,191Z" style="fill:rgb(196,85,45);fill-rule:nonzero;"/>
        </g>
        <g transform="matrix(0.907479,0,0,0.907479,-136.16,54.7733)">
            <path d="M230,189C230,189 227.3,200.8 232.5,203.4C237.7,206 246.8,203.4 246.8,203.4C246.8,203.4 237.3,204.7 236.8,198.4C236.4,192.1 239.9,188 239.9,188L230,189Z" style="fill:rgb(196,85,45);fill-rule:nonzero;"/>
        </g>
        <g transform="matrix(0.907479,0,0,0.907479,-136.16,54.7733)">
            <path d="M24.8,464.5C24.8,464.5 30.9,471.7 47.9,474.3C64.8,476.9 72.1,474.3 72.1,474.3L83.4,436.2C83.4,436.2 83.3,435.8 83.2,435C81.4,424.2 68.8,345.2 75.3,324.5C77,319.2 79.7,313.4 82.9,307.6C83.3,306.9 83.7,306.2 84.2,305.3C86.4,301.4 88.8,297.6 91.1,294C99.7,280.9 108.1,270.4 108.1,270.4C108.1,270.4 105.7,270.7 101.7,271.9C99.9,272.5 97.7,273.2 95.3,274.2C89.2,276.7 81.3,280.6 73,287.1C67.4,291.5 61.5,296.9 55.7,303.8C30.7,333.8 24.8,464.5 24.8,464.5Z" style="fill:rgb(217,0,23);fill-rule:nonzero;"/>
        </g>
        <g transform="matrix(0.907479,0,0,0.907479,-136.16,54.7733)">
            <path d="M44.2,372.9C45.2,377.1 47.8,381.7 50.8,386.1C58.1,396.7 68.3,406 68.3,406C68.3,406 68.9,407.9 70.2,411C72,415.4 75.1,422.2 79.8,429.4C81,431.2 82.1,433.1 83.3,434.9C89.9,445.3 95.4,454.7 95.4,454.7C95.4,454.7 116,465 146.5,464.4C153.8,464.3 160.5,463.4 166.3,462.3C174.1,460.8 180.5,458.7 185.3,456.8L185.4,456.7C192,454.1 195.5,451.8 195.5,451.8L203,438.4C209.3,427.2 221.6,414.3 225.5,410.4C226.3,409.6 226.7,409.2 226.7,409.2C226.7,409.2 224.6,340.2 219.3,303C219,300.9 218.7,298.9 218.3,297C216.7,287.9 215,281.6 212.9,280.2L212.8,280.2C202.7,273.6 179.6,266 179.6,266C179.6,266 176.4,268 170.6,270C164.6,272.1 156,274.3 145.4,274.3C126.3,274.3 121.6,265 121.6,265L101.6,272L95.2,274.3C95.2,274.3 92.8,283.6 89.4,293.2C87.8,297.5 86.1,301.8 84.2,305.4C83.8,306.2 83.4,307 82.9,307.7C76.3,318.8 50.3,343.6 48.6,346C46.8,348.2 40.7,358.5 44.2,372.9Z" style="fill:rgb(255,46,56);fill-rule:nonzero;"/>
        </g>
        <g transform="matrix(0.907479,0,0,0.907479,-136.16,54.7733)">
            <path d="M72.9,287.1C77.9,288.4 83.6,290.3 89.4,293.1C90,293.4 90.6,293.7 91.2,294C94.1,295.5 97,297.2 99.8,299.2C121.8,314.5 160,322.7 194.3,313.3C198.1,312.3 201.6,311.1 204.9,309.8C210.4,307.7 215.2,305.4 219.3,302.9C225.8,299.1 230.6,295.2 234,291.9C221.7,281.9 213.9,280.2 213,280.1L212.9,280.1C202.8,273.5 179.7,265.9 179.7,265.9C179.7,265.9 166.3,274.2 145.6,274.2C126.5,274.2 121.8,264.9 121.8,264.9L101.8,271.9C100,272.5 97.8,273.2 95.4,274.2C89.1,276.6 81.3,280.6 72.9,287.1Z" style="fill:rgb(217,0,23);fill-rule:nonzero;"/>
        </g>
        <g transform="matrix(0.907479,0,0,0.907479,-136.16,54.7733)">
            <path d="M50.2,385.3L50.8,386.2L66.5,410.4C66.5,410.4 67.8,410.6 70.2,411.1C84.5,414 135.5,424.7 148,433.4C162.5,443.5 166.3,462.4 166.3,462.4L185.3,456.9L185.4,456.8C192,454.2 195.5,451.9 195.5,451.9L203,438.5C209.3,427.3 221.6,414.4 225.5,410.5L216.1,400.1C216.1,400.1 202.2,407.1 145.1,405.3C88,403.4 50.2,385.3 50.2,385.3Z" style="fill:rgb(217,0,23);fill-rule:nonzero;"/>
        </g>
        <g transform="matrix(0.907479,0,0,0.907479,-136.16,54.7733)">
            <path d="M75,464.5C75,464.5 69.4,466.4 54.5,464.5C39.5,462.7 25.3,456 25.3,456L24.8,464.5C24.8,464.5 30.7,473.1 48.3,476.2C65.9,479.4 71.7,477.7 71.7,477.7L75,464.5Z" style="fill:rgb(255,182,84);fill-rule:nonzero;"/>
        </g>
        <g transform="matrix(0.907479,0,0,0.907479,-136.16,54.7733)">
            <path d="M94.9,491.8C94.1,490.8 92.3,478.2 91.5,467.4C90.6,456.5 93.9,452.4 93.9,452.4C93.9,452.4 132,465.5 161.6,460.9C191.1,456.3 196.6,451.1 200.6,452.4C204.6,453.6 200,465.1 203.1,470.6C206.2,476.1 210.3,482.2 211.7,486.3C213,490.4 189.4,503.2 152.9,503.2C116.2,503.2 94.9,491.8 94.9,491.8Z" style="fill:rgb(99,14,65);fill-rule:nonzero;"/>
        </g>
        <g transform="matrix(0.907479,0,0,0.907479,-136.16,54.7733)">
            <path d="M210.4,394.3C210.4,394.3 217.7,401.2 225.5,410.4C229,414.5 232.5,419.1 235.6,423.7C240.4,430.9 246.4,442.9 251.4,453.4C256.8,464.8 260.9,474.4 260.9,474.4C295.9,481.1 312.9,466.9 312.9,466.9C312.9,466.9 301,386.9 276.7,345.6C260.1,317.3 245.1,301.1 233.9,292C221.6,282 213.8,280.3 212.9,280.2L212.8,280.2C212.8,280.2 211.1,284.3 209,291.2C207.6,296.1 206,302.5 204.8,309.9C204,315.3 203.2,321.3 203,327.7C201.9,355.2 210.4,394.3 210.4,394.3Z" style="fill:rgb(255,46,56);fill-rule:nonzero;"/>
        </g>
        <g transform="matrix(0.907479,0,0,0.907479,-136.16,54.7733)">
            <path d="M170.6,270.4C170.6,270.4 189.9,279.4 209,291.1C212.1,293 215.2,294.9 218.2,296.9C223.9,300.7 229.3,304.6 233.8,308.5C255.5,327.3 290.7,399.6 291.3,423.8C291.9,448 251.2,453.4 251.2,453.4C256.6,464.8 260.7,474.4 260.7,474.4C295.7,481.1 312.7,466.9 312.7,466.9C312.7,466.9 300.8,386.9 276.5,345.6C259.9,317.3 244.9,301.1 233.7,292C221.4,282 213.6,280.3 212.7,280.2L212.6,280.2C202.5,273.6 179.4,266 179.4,266C179.4,266 176.2,268 170.4,270L170.6,270.4Z" style="fill:rgb(217,0,23);fill-rule:nonzero;"/>
        </g>
        <g transform="matrix(0.907479,0,0,0.907479,-136.16,54.7733)">
            <path d="M311.1,455.9C311.1,455.9 298.7,462.5 279.7,464.4C260.7,466.3 256.5,464.4 256.5,464.4L260.9,474.3C260.9,474.3 269,480.5 289.7,477.6C310.4,474.7 313,466.8 313,466.8L311.1,455.9Z" style="fill:rgb(255,182,84);fill-rule:nonzero;"/>
        </g>
        <g transform="matrix(0.907479,0,0,0.907479,-136.16,54.7733)">
            <path d="M73,333.8C73,333.8 82,503.8 108,542.8C133.5,581.1 178.7,579.5 203,603.8C227.3,628.1 287,618.8 287,618.8C287,618.8 251.9,568.9 257,549C262.2,529.1 259.4,443.9 257,415.9C243,254.8 175,319.8 175,319.8L73,333.8Z" style="fill:rgb(82,111,13);fill-rule:nonzero;"/>
        </g>
        <g transform="matrix(0.907479,0,0,0.907479,-136.16,54.7733)">
            <path d="M249.3,265.8C249.3,265.8 276.1,330.6 276.1,390.6L276.1,590.4C276.1,612 299.4,623.8 299.4,623.8C299.4,623.8 250.6,608.5 243.7,589.4C236.8,570.3 260.7,429.2 254.6,400.1C248.5,371 214.9,292.8 214.9,292.8L249.3,265.8Z" style="fill:rgb(112,157,13);fill-rule:nonzero;"/>
        </g>
        <g transform="matrix(0.907479,0,0,0.907479,-136.16,54.7733)">
            <path d="M53.9,188.6C56.1,219.5 78.6,271.6 86.8,279.9C95.1,288.2 191.3,277.7 209.7,264.8C228.2,252 231.4,197.1 233.9,183.9C236.4,170.6 167.5,28.7 130.9,34.1C94.3,39.5 59.2,104.7 53.8,120.8C48.5,136.9 53.9,188.6 53.9,188.6Z" style="fill:rgb(141,177,62);fill-rule:nonzero;"/>
        </g>
        <g transform="matrix(0.907479,0,0,0.907479,-136.16,54.7733)">
            <path d="M291,202L291,202.6L288.8,217.9L288.6,218.8C281.5,262.1 267.5,302.9 256.5,313.8C236.7,333.6 170.1,365.3 112.6,364.7C62,364.1 66,292.9 66,292.9C66,292.9 64.2,273.5 72.9,264.8C81.6,256.1 93.2,269 93.2,269C93.2,269 98.6,261.6 103.5,256.7C108.4,251.8 133.5,248.7 133.5,248.7C133.5,248.7 171.1,266.9 184.6,250.1C207.9,221.3 187.3,61.8 121.6,43C108.9,39.3 63.8,104.9 57.6,132.2C52.2,155.7 53.3,180.6 53.7,187C53,178.9 50.1,140.6 53.3,112.9C54,107.2 55.3,100.5 57.4,93.5C63,74.8 74,52.7 93.2,35.4L93.3,35.4C106.4,23.6 123.4,14.1 145.1,9.4C196.3,-1.6 242.9,41.6 269.8,86.7C277.3,99.2 283.2,111.9 287.3,123.6C294.2,143.7 294.5,172.6 291,202Z" style="fill:rgb(141,177,62);fill-rule:nonzero;"/>
        </g>
    </g>
    <g transform="matrix(1,0,0,1,328.969,-72.25)">
        <g transform="matrix(0.907479,0,0,0.907479,-153.578,58.7286)">
            <path d="M132.9,579L147.4,629.6L81.8,567.7C81.8,567.7 103.5,541.8 109.9,539.6L132.9,579Z" style="fill:rgb(164,101,70);fill-rule:nonzero;"/>
        </g>
        <g transform="matrix(0.907479,0,0,0.907479,-153.578,58.7286)">
            <path d="M242.5,239.6C227.6,232.1 149.5,135.9 155.2,126.1C156.1,124.5 155.5,122.3 155.7,120.2C148.2,123.3 140.5,133 140,142.6C139.6,149.9 122.9,138 125.5,144.5C135.3,168.9 115.7,211.8 123.2,232.7C123,233.6 122.9,234.5 122.8,235.5C121,234.1 119,232.8 117.3,231.9C116.5,235.8 119.8,240.3 124.5,244.6C128.9,255.2 140.6,260.1 149.8,264.3C151.5,265 153.8,266 156.3,267.1C159.9,269.4 163.4,271.9 166.7,274.8C173.9,281.1 176.3,287.8 180.7,295.9L180.7,301.2C188.1,306.8 219.3,314.6 225.5,300.4C227,296.9 262,249.2 242.5,239.6ZM342.3,261.2L333.2,274.3C331.4,268.8 328.3,263.7 325.9,258.9C320.3,247.8 314.6,234.3 307.8,222.7L307.7,222.7C303.3,222.7 300,220.6 297.4,216.2C295.5,221.7 288.9,210.8 278.8,223.6C276.8,256.8 267.7,304.1 293.4,315.6C320.5,319 365.2,291.2 342.3,261.2Z" style="fill:rgb(57,11,29);fill-rule:nonzero;"/>
        </g>
        <g transform="matrix(0.907479,0,0,0.907479,-153.578,58.7286)">
            <path d="M172,343.2L69.3,481.2L110,539.7L81.9,567.8L8.5,483C8.5,483 107.9,333.5 151.4,292.4L172,343.2Z" style="fill:rgb(26,26,26);fill-rule:nonzero;"/>
        </g>
        <g transform="matrix(0.907479,0,0,0.907479,-153.578,58.7286)">
            <path d="M379.1,571.7L467.9,492C467.9,492 387,312.9 347.1,296C307.2,279.1 167,274.6 153.4,290C139.8,305.4 148.9,326.2 148.9,326.2C148.9,326.2 102.7,376.1 85.5,381.5C94.6,432.3 128.1,437.7 128.1,437.7C128.1,437.7 118.7,548.6 143,620.6L269.9,597.1C246.8,573.1 231,560.8 235.9,525.6C240.7,491.5 308.2,400.3 325.3,377.6L399.9,482.1L354.6,541.9L379.1,571.7Z" style="fill:rgb(26,26,26);fill-rule:nonzero;"/>
        </g>
        <g transform="matrix(0.907479,0,0,0.907479,-153.578,58.7286)">
            <path d="M279.4,213.8C273.1,276.3 284,293.1 284,293.1C284,293.1 214.2,310.3 223,290.7C244.7,269 234.1,242.8 234.1,242.8C234.1,242.8 276.7,221.9 279.4,213.8Z" style="fill:rgb(57,11,29);fill-rule:nonzero;"/>
        </g>
        <g transform="matrix(0.907479,0,0,0.907479,-153.578,58.7286)">
            <path d="M262,588.9C234.1,610.5 192.1,624.6 144.8,625.7C139.5,611.5 135.7,595.5 132.9,579C159.3,578.2 207.7,573.7 236.9,552.5C240.7,566.5 249.9,576.5 262,588.9Z" style="fill:rgb(77,77,79);fill-rule:nonzero;"/>
        </g>
        <g transform="matrix(0.907479,0,0,0.907479,-153.578,58.7286)">
            <path d="M208.4,68.8C269.4,51.3 327.1,110.2 302.9,175.4C278.8,240.7 209.9,258.2 209.9,258.2C209.9,258.2 157.9,234 151.9,201.4C146.5,172 159.8,163.3 159.8,163.3C144.1,134.3 147.4,68.8 208.4,68.8Z" style="fill:rgb(57,11,29);fill-rule:nonzero;"/>
        </g>
        <g transform="matrix(0.907479,0,0,0.907479,-153.578,58.7286)">
            <path d="M379.1,571C379.1,571 303.7,615.1 286.4,615.1C279.1,615.1 271.8,602.9 271.8,602.9L265.7,597.8L286.4,598L355.5,540.1C367.3,548.2 379.1,571 379.1,571Z" style="fill:rgb(164,101,70);fill-rule:nonzero;"/>
        </g>
        <g transform="matrix(0.907479,0,0,0.907479,-153.578,58.7286)">
            <path d="M288.9,293.2C288.9,293.2 271.8,307.8 247.4,307.8C223,307.8 210.8,298 210.8,298L235.2,256.5C235.2,256.5 242.5,261.4 259.6,261.4C276.7,261.4 279.1,256.5 279.1,256.5L288.9,293.2Z" style="fill:rgb(57,11,29);fill-rule:nonzero;"/>
        </g>
        <g transform="matrix(0.907479,0,0,0.907479,-153.578,58.7286)">
            <g>
                <path d="M366.5,255.8C371,252 373.3,248.3 373.7,244.1C374.4,236.8 369.6,228.9 360.4,216.9C347.7,200.3 347.5,193.4 346.4,155C346.4,152.4 346.3,149.6 346.2,146.7C344.7,97.4 332.3,59.5 311.3,40.1C297.4,27.3 281.5,24.6 270.6,24.6C265.9,24.6 262.5,25.1 261.2,25.3C259,23.2 249.3,14.9 231.3,14.9C216.5,14.9 200,20.5 182.3,31.6C156,47.9 140.2,67.8 131.6,81.6C122.2,96.7 116,112.9 115.1,125.1C114.1,129.4 113.8,133.8 114.2,138.1C114.7,144.3 116.9,150.1 118.9,154.9C119.9,157.2 121.1,159.5 122.2,161.6C123.7,164.3 125.2,167.1 126.2,170C128,175 125.8,179.4 123,184.2C122.2,185.6 121.4,186.9 120.6,188.2C118.6,191.4 116.6,194.7 115,198.4C110.8,208.2 109.5,219.9 111.4,232.1C111.8,238.1 113.7,243.7 117,248.8C123,258.1 132.2,264.6 141.1,270.5C141.8,271 142.5,271.4 143.2,271.9C150.7,276.9 157.8,281.5 161.9,290.4C163,292.8 164.7,297.5 163.4,301.7C162,306.2 156.1,307.7 153.9,308.1C146.4,305.3 139.7,298.4 139.6,298.3C139.4,298.1 139.1,298 138.8,298C138.5,298 138.2,298.1 138,298.3C137.6,298.7 137.5,299.5 137.8,300C138.1,300.6 145.8,313.3 155.1,315.7C156.6,316.1 158.5,316.3 160.7,316.3C172.9,316.3 190.4,310.4 191,297.2C191.8,281.1 178.8,269.6 151.5,261.9C141.2,259 134.4,253.3 131.2,244.8C127.5,234.9 129.1,222 135.6,210.2C142.5,197.7 142.3,187.6 142,177C141.9,171.2 141.7,165.2 142.7,158.4C145.4,139.3 162.8,123.1 194.4,110.3C218.5,100.6 232.8,87.7 238.3,82.1C250,87.1 253.9,96.7 258.4,107.7C260.6,113.1 262.8,118.7 266.2,124.1C272.5,134.2 280.2,140.3 285.8,143.6C290.8,158.6 286.5,172.4 281.5,188.4C280.3,192.4 279,196.5 277.8,200.8C276,207.2 275.2,212.6 275.4,217.4C275.1,220.1 275.1,222.8 275.3,225.5C275.8,231.4 277.4,237 280.3,242.6C281,243.8 281.7,245.1 282.4,246.4C284.9,250.8 287.4,255.4 287.6,260.3C287.8,264.4 284.6,267.7 281.4,270.6C280.8,271.2 280.1,271.7 279.5,272.3C276.6,274.9 273.5,277.5 271.5,281.3C268.5,286.9 267.3,293.4 268,300.8C267.9,303.5 268.2,306.6 268.8,310.1C271.8,326.1 282,328.5 287.9,328.5C291.3,328.5 293.7,327.7 293.8,327.7C294.3,327.6 294.7,326.9 294.6,326.3C294.5,325.7 294,325.2 293.4,325.2L293.1,325.2C290.6,325.2 277.6,324.5 275.3,311.1C273.8,302.5 283.6,296.6 293,290.9C299.5,287 305.6,283.3 307.7,278.7C311.8,269.7 308.8,262.5 305.4,256.7C304.5,255.2 303.5,253.8 302.6,252.4C301.1,250.3 299.7,248.2 298.6,245.8C298.1,244.7 297.8,243.5 297.6,242.3C298.9,244.4 300.4,246.6 302.1,248.8C306.7,255.8 311.2,261.8 315.8,267.2C316.5,268.5 317.3,269.8 318.1,271C320,274.1 322.1,277 324.1,279.9C325.8,282.3 327.6,284.8 329.2,287.4C330.8,290 331.3,292.6 330.6,295.6C330.2,297 329.5,298.4 328.8,299.9C328.2,301.1 327.5,302.4 327.1,303.8C325.7,308.2 325.9,313 327.8,317.2C329.7,321.6 333.3,325 337.6,326.6C339.5,327.3 341.3,327.7 343.2,327.7C351.6,327.7 358.2,320.5 363.5,314.7C363.9,314.3 364,313.6 363.8,313C363.5,312.4 363,312 362.4,312C362.1,312 361.8,312.2 361.5,312.4L361.3,312.6C359.1,314.5 356.5,316.7 353.9,318.6C352.6,318.7 351.3,318.7 350.1,318.7C340.7,318.7 339.5,316.3 339.3,315.6C338.9,314 341.2,311.2 344.4,309.5C350.3,306.3 353.7,302.5 354.8,301.3C363.4,300.6 368.7,297.9 370.4,293.2C373,286 366.4,277 363.4,273.5C359.9,269.3 357.8,266.8 357.9,265C358.1,263 361.1,260.4 366.5,255.8ZM129.3,159.1L129.2,158.9C129,158.6 128.9,158.3 128.7,158C130.5,160.4 132.4,163.1 134.4,166.4C136.6,169.8 135.8,173.7 133.5,178.3C133.9,176.6 134.2,174.8 134.1,172.9C133.9,167.9 131.5,163.2 129.3,159.1Z" style="fill:rgb(57,11,29);fill-rule:nonzero;"/>
            </g>
        </g>
    </g>
</svg>
