<?xml version="1.0" encoding="utf-8"?>
<!-- Generator: Adobe Illustrator 24.3.0, SVG Export Plug-In . SVG Version: 6.00 Build 0)  -->
<svg version="1.1" id="Layer_1" xmlns="http://www.w3.org/2000/svg" xmlns:xlink="http://www.w3.org/1999/xlink" x="0px" y="0px"
	 viewBox="0 0 486.6 591.4" style="enable-background:new 0 0 486.6 591.4;" xml:space="preserve">
<style type="text/css">
	.st0{fill:#FFB781;}
	.st1{fill:#E4CA9B;}
	.st2{fill:#D5B582;}
	.st3{fill:#AE907D;}
	.st4{fill:#C5A996;}
	.st5{fill:#CBA871;}
	.st6{fill:#70484F;}
	.st7{fill:#563038;}
	.st8{fill:#2BA5DF;}
	.st9{fill:#2176BB;}
	.st10{fill:#DCBE91;}
	.st11{fill:#FFE4BA;}
	.st12{fill:#542A29;}
	.st13{fill:#FFFFFF;}
	.st14{fill:#39170B;}
	.st15{fill:#E78F61;}
</style>
<g>
	<g>
		<path class="st0" d="M411,341.7l1.8,44.9c-9.2-1.8-27,0.1-31.8,1.7l-8.7-36.5C372.4,351.9,397,350.6,411,341.7z"/>
		<path class="st0" d="M397,350.6c2.5-2.2,10.6-6.3,16.3-10.4c6.6-4.7,19.1-29.6,22.2-29.2c4.5,0.6,7.9,5.6,7.7,8
			c-0.2,2.4-15,24.8-11.9,26.7c5,3.1,17.5-0.1,19.9,1.6c5.1,3.6-5,27.9-8.6,34.1c-3.6,6.2-24.6,9.3-38.7,2
			C398.7,380.7,397,350.6,397,350.6z"/>
		<path class="st0" d="M434.3,347.5c8.1-0.4,19.2-0.4,21.8-1.4c2.6-1,17.4-6.9,19.2-6.1c1.8,0.8,6.9,5.4,4,7.6
			c-2.8,2.3-19.3,8.6-23.5,9c-4.2,0.4-17.7,2.6-18.9,1.9C435.6,357.9,429.7,347.7,434.3,347.5z"/>
		<path class="st0" d="M430.3,367.4c8.1,0.6,19.2,1.8,21.8,1.2c2.7-0.7,18-4.8,19.7-3.8c1.7,1,6.3,6.1,3.2,8
			c-3.1,1.9-20.1,6.3-24.3,6.2c-4.2-0.1-17.9,0.5-19-0.3C430.5,377.9,425.7,367,430.3,367.4z"/>
		<path class="st0" d="M431.9,356.1c8.1,0.6,19.2,1.8,21.8,1.2c2.7-0.7,18-4.8,19.7-3.8c1.7,1,6.3,6.1,3.2,8
			c-3.1,1.9-20.1,6.3-24.3,6.2c-4.2-0.1-17.9,0.5-19-0.3C432.1,366.6,427.4,355.8,431.9,356.1z"/>
		<path class="st0" d="M420.4,376.3c8,1.3,18.9,3.6,21.6,3.2c2.7-0.4,18.4-3.1,20-2c1.6,1.2,5.7,6.7,2.4,8.3
			c-3.2,1.6-20.6,4.4-24.8,3.9c-4.2-0.5-17.8-1.2-18.9-2.1C419.6,386.8,415.9,375.6,420.4,376.3z"/>
	</g>
	<path class="st1" d="M195.2,217c42.5,4.8,110.5,104.2,134.1,112.4c23.5,8.2,76.6-0.1,76.6-0.1l6.5,69.8c0,0-68.2,20.1-111.8-5.6
		C230.1,352,195.2,217,195.2,217z"/>
	<path class="st2" d="M322.7,362.5c-44.5-26.2-79.2-106.3-122.9-128.8c11.2,38,43.4,130.3,98.8,162.9c43.6,25.7,113.8,2.6,113.8,2.6
		l-2.5-26.7C386.6,377.7,353.4,380.6,322.7,362.5z"/>
	<path class="st1" d="M192.3,612.5l83.2,10.5c0,0-31.8-191.1-31-194.2c0.7-3,7-6.3,7-6.3l-6.2-9.5c0,0-3.2-192.1-35.4-204.4
		C177.6,196.3,161.4,403.2,192.3,612.5z"/>
	<path class="st3" d="M118.7,107.8C97.4,108.9,80,77.9,93.4,59.4c8-11,44.2,1.5,44.2,1.5S148.4,106.2,118.7,107.8z"/>
	<path class="st3" d="M98.4,77.9C83.2,64.1,98.3,31.2,111.8,26c76.4-29.3,37.5,35.8,37.5,35.8S119.8,97.1,98.4,77.9z"/>
	<path class="st4" d="M118.3,48.2c0.4-22.9,54.3-48.2,66-39.3c58.3,44,1,63.1,1,63.1S117.8,80.2,118.3,48.2z"/>
	<path class="st4" d="M191.4,20.1c35.9-37.7,67.4,15.2,67.8,28.6c2,67-45.8,17.4-45.8,17.4S171.4,41.1,191.4,20.1z"/>
	<path class="st5" d="M180.2,612.5l89.9,9.9c0,0-38.5-190.5-37.8-193.5c0.7-3,4.6-7.4,4.6-7.4L233,413c0,0,2.5-192.3-29.7-204.6
		C171.2,196.2,149.3,403.2,180.2,612.5z"/>
	<polygon class="st6" points="212.2,454.4 115.7,494.7 223.4,722.3 236.9,910.7 272.5,909.7 269.2,718.9 	"/>
	<polygon class="st7" points="231.4,717.9 170.8,547.8 139.1,538 217.6,725.3 236.9,910.7 239.8,910.7 	"/>
	<polygon class="st6" points="211.5,451.2 69.5,492.3 113.3,727.3 103.1,907.1 138.6,908 163.7,723.9 167.9,563.3 211.3,530.8 	"/>
	<path class="st7" d="M103.1,907.1h1.6c5-39.8,18.7-179.8,18.7-179.8L115.4,525l103-43.7l-3.9-31.6L61.2,491.5l45.3,231.7
		L103.1,907.1z"/>
	<path class="st7" d="M139.6,557l20.2,7.3l4,54.3l5.9-56.4l40.4-25.4C183.3,549.6,163.7,558,139.6,557z"/>
	<polygon class="st7" points="111.3,666 146.6,649.1 133.7,572.8 104.7,593 	"/>
	<polygon class="st7" points="233.3,633.9 251.3,625.3 217.1,470.9 203.1,485.8 	"/>
	<path class="st8" d="M103,196.7c23.1-3.9,95-2,103,13.4c8.1,15.4,17,51.6,10.4,77.3c-10.3,40.4,6.6,149.8,9.5,174.8
		c1.1,9.5-104.3,30.1-113.1,22.8C104.1,477.6,103,196.7,103,196.7z"/>
	<path class="st9" d="M216.5,287.4c5.2-20.3,0.7-46.9-5.3-64.9c2.1,23.5-2.7,51.3-10.1,78.5c-11.6,43,5.5,159.2,0.6,162
		c-5,2.8-55.6,11.6-55.6,11.6s25.5-201.4-34.9-278.8c-3.1,0.3-5.8,0.6-8.1,1c0,0,1.1,280.9,9.9,288.3c8.8,7.3,114.2-13.3,113.1-22.8
		C223.1,437.2,206.2,327.8,216.5,287.4z"/>
	<path class="st0" d="M115.4,201.2c0,0-3.4-42.3,8.1-92.7l66.3-2.6l11.9,76.5c0,0-5.5,28.6-29.7,33.9
		C153.9,220.2,115.4,201.2,115.4,201.2z"/>
	<path class="st1" d="M70.4,663.4l77.1-33.8c0,0-19.8-174.8-8.1-243.1c11.8-68.3-1.8-160.7-27.5-193.7c0,0-39.7-4.6-50.8,21.1
		c-11,25.7-30.2,228.8-30.2,228.8s11.8,2.2,14,9.5c2.2,7.3-8.1,20.9-6.6,28.3C39.7,487.9,70.4,663.4,70.4,663.4z"/>
	<path class="st2" d="M108,448.1c0-252-45.2-241.1-49.9-233C44,239.2,28.5,446.2,28.5,446.2s11-0.2,13.2,7.2
		c2.2,7.3-8.8,18.4-7.3,25.7c1.5,7.3,36,184.4,36,184.4l8.6-3.8c-2.1-13.7-3.7-28.2-4.6-43.4C68.8,529.3,108,465.4,108,448.1z"/>
	<g>
		<path class="st0" d="M170.9,449.8L142,484.3c-5.6-7.6-20-18.1-24.7-20.1l18.1-32.8C135.4,431.3,154.5,446.9,170.9,449.8z"/>
		<path class="st0" d="M154.5,446.9c3.3,0.1,12,2.5,19.1,3.3c8.1,0.9,34.1-9.1,36.1-6.7c2.9,3.5,2.1,9.5,0.3,11.2
			c-1.8,1.7-27.8,8.3-26.8,11.7c1.6,5.7,13,11.7,13.6,14.5c1.3,6.1-22.5,17.3-29.3,19.4c-6.8,2.1-24.5-9.7-29.9-24.5
			C135.5,470.3,154.5,446.9,154.5,446.9z"/>
		<path class="st0" d="M184.1,469.7c6.2,5.2,14.4,12.6,17,13.6c2.6,1,17.5,6.6,18.3,8.4c0.8,1.8,1.5,8.6-2.2,8.4
			c-3.6-0.2-20-6.6-23.4-9.1c-3.4-2.5-14.8-10-15.3-11.3C178.1,478.3,180.6,466.8,184.1,469.7z"/>
		<path class="st0" d="M176.7,475.3c5.6,5.9,12.9,14.3,15.4,15.6c2.4,1.3,16.6,8.6,17.2,10.4c0.6,1.9,0.5,8.7-3,8.1
			c-3.6-0.6-19.1-8.9-22.2-11.8c-3.1-2.9-13.6-11.7-13.9-13C169.8,483.1,173.5,472,176.7,475.3z"/>
		<path class="st0" d="M165.5,480.3c5.6,5.9,12.9,14.3,15.4,15.6c2.4,1.3,16.6,8.6,17.2,10.4c0.6,1.9,0.5,8.7-3,8.1
			c-3.6-0.6-19.1-8.9-22.2-11.8c-3.1-2.9-13.6-11.7-13.9-13C158.6,488.2,162.4,477,165.5,480.3z"/>
		<path class="st0" d="M154.5,481.7c5,6.4,11.5,15.4,13.8,16.9c2.3,1.5,15.7,10.1,16.1,12c0.4,1.9-0.3,8.7-3.8,7.8
			c-3.5-1-18.2-10.6-21-13.8c-2.8-3.2-12.4-12.9-12.6-14.3C146.8,488.9,151.7,478.1,154.5,481.7z"/>
	</g>
	<path class="st1" d="M77.9,201.3c43.5,18.7-5.5,150,8.7,171c14.3,21.1,76.8,55.9,76.8,55.9l-37.2,61.3c0,0-84.5-42.2-102.3-91.1
		C-19.4,279.6,58.6,193,77.9,201.3z"/>
	<path class="st2" d="M50.4,382.9c-30.5-79.7-8.4-145.7,17.3-180c-28.3,14-85.8,96.5-48.1,199.9c17.9,48.9,106.6,86.6,106.6,86.6
		l17.8-29.4C117.6,446.7,64.4,419.6,50.4,382.9z"/>
	<path class="st10" d="M20.3,397.2c-26.6-72.9-3-136.3,23.2-172.3c-26.5,33.8-52.3,99.9-23.9,178c17.9,48.9,106.6,86.6,106.6,86.6
		l1.3-2.2C113.2,480.3,36.4,441.5,20.3,397.2z"/>
	<polygon class="st2" points="93.1,379.8 87.3,373.3 64.9,373 83.2,369.5 71.1,365.3 83.1,365.8 84.9,349.5 88.4,368 	"/>
	<path class="st4" d="M147.2,53.6c-34.9,44.3-29.1,41.9-29.1,41.9s-18,23.7-3.6,49.4c0,0-5.3,22.8,14.2,38.4
		c19.5,15.6,34.4,15.3,34.4,15.3s-5.9,16.5,52.5,16.5c20.1,0,30.1-6.7,33.5-23.4c2.8-14-5.1-24.4-6.9-46.4
		c-1.8-21.9,1.1-64.2-10.2-78.1C220.6,53.3,147.2,53.6,147.2,53.6z"/>
	<path class="st3" d="M136.1,170c-0.2-11.4,2.1-21.6,11.4-30.8c-24.2-37.4-0.7-65.1-14.2-74.8c-14,23.8-20.2,28.1-20.2,28.1
		s-13,26.7,1.4,52.4c0,0-5.3,22.8,14.2,38.4c5.8,4.6,11.1,7.8,15.8,10C139.2,186.2,136.2,178.3,136.1,170z"/>
	<path class="st0" d="M242,41.3c12.2,27.7-8.8,51.7-7,78.9c1.7,27.2-59.3,16.8-71.7,10.8c-12.4-6-14-42.7-23.6-58.4
		C103.5,13,233.9,22.8,242,41.3z"/>
	<path class="st11" d="M383,379.1c1.5,2.9,5.1,4,8,2.4c2.9-1.5,4-5.1,2.4-8s-5.1-4-8-2.4C382.6,372.7,381.5,376.3,383,379.1z"/>
	<path class="st11" d="M362.9,380.2c1.5,2.9,5.1,4,8,2.4c2.9-1.5,4-5.1,2.4-8c-1.5-2.9-5.1-4-8-2.4
		C362.4,373.8,361.4,377.3,362.9,380.2z"/>
	<path class="st11" d="M118.2,448.6c-0.3,3.2,2.1,6.1,5.3,6.4c3.2,0.3,6.1-2.1,6.4-5.3c0.3-3.2-2.1-6.1-5.3-6.4
		C121.3,443,118.5,445.4,118.2,448.6z"/>
	<path class="st11" d="M100.7,438.5c-0.3,3.2,2.1,6.1,5.3,6.4c3.2,0.3,6.1-2.1,6.4-5.3c0.3-3.2-2.1-6.1-5.3-6.4
		C103.9,432.8,101,435.2,100.7,438.5z"/>
	<path class="st12" d="M226.6,154.4l-43.3-0.3c0,0,2.8,22.9,10.2,24.3c7.4,1.4,24.4-0.3,27.6-4.2
		C224.4,170.3,226.6,154.4,226.6,154.4z"/>
	<path class="st13" d="M222,167.7c1.6-5.5,2.6-12.7,2.6-12.7l-39.4-0.3c0,0,0.9,7.2,3,13.4L222,167.7z"/>
	<g>
		<path class="st13" d="M186.4,100.8c-0.1-6.7-1.2-14.7-11.7-17.2c-10.4-2.5-15,7-14.7,10.4c0.3,3.4,3.2,8.4,8.9,8.8
			c5.8,0.4,10.8-0.3,12.9,0C184,103.1,186.4,102.1,186.4,100.8z"/>
		<circle class="st14" cx="174.1" cy="93" r="8.5"/>
		<path class="st13" d="M181.3,89.7c0,2.2-1.8,3.9-3.9,3.9s-3.9-1.8-3.9-3.9s1.8-3.9,3.9-3.9S181.3,87.5,181.3,89.7z"/>
		<path class="st13" d="M213.1,100.8c0.1-6.7,1.2-14.7,11.7-17.2c10.4-2.5,15,7,14.7,10.4c-0.3,3.4-3.2,8.4-8.9,8.8
			c-5.8,0.4-10.8-0.3-12.9,0C215.6,103.1,213.1,102.1,213.1,100.8z"/>
		<path class="st14" d="M217.3,92.4c0,4.7,3.8,8.5,8.5,8.5c4.7,0,8.5-3.8,8.5-8.5s-3.8-8.5-8.5-8.5
			C221.1,83.8,217.3,87.6,217.3,92.4z"/>
		<path class="st13" d="M225.2,89.1c0,2.2,1.8,3.9,3.9,3.9c2.2,0,3.9-1.8,3.9-3.9c0-2.2-1.8-3.9-3.9-3.9
			C226.9,85.2,225.2,86.9,225.2,89.1z"/>
	</g>
	<path class="st15" d="M202.1,85.2c5.4,11.1,15,43.8,13.1,48.1c-0.8,1.9-13.3,2.2-18.3,2.1c0,0.8-0.1,1.2-0.1,1.2s20.9,1.1,21.9-1.3
		C220.7,130.5,207.5,85.7,202.1,85.2z"/>
	<path class="st3" d="M188.5,77.2c-3,5.4-29.8,8-33.6,5.8c-3.8-2.2-6.6-4.7-2-6.9c4.5-2.2,26.5-9.5,31.3-8
		C189,69.5,189.8,74.7,188.5,77.2z"/>
	<path class="st3" d="M211.9,79.1c5.9,5.7,29.6,6.5,31.3,3.7c1.7-2.8,2.4-5.7-2.8-7.8c-5.2-2.1-27.9-8.4-30.9-6.4
		C206.6,70.6,209.2,76.5,211.9,79.1z"/>
	<path class="st15" d="M202.7,55.2c-15.7-0.2-36.9,6.9-36.9,6.9c43.1-9.1,64.2,0.1,64.2,0.1S218.3,55.4,202.7,55.2z"/>
	<path class="st15" d="M201,50.1c-12.8-0.2-30.2,5.6-30.2,5.6c35.3-7.5,52.6,0,52.6,0S213.8,50.2,201,50.1z"/>
	<path class="st15" d="M200.7,44.1c-12.8-0.2-30.2,5.6-30.2,5.6c35.3-7.5,52.6,0,52.6,0S213.5,44.3,200.7,44.1z"/>
	<path class="st7" d="M101.8,903l-5,36.8h77c0,0,2.1-12.1-5.5-19.7c-10.5-10.5-28-18.8-28-18.8L101.8,903z"/>
	<path class="st7" d="M234,903l-5,36.8h77c0,0,4.4-9.1-4.6-18.1s-28.8-20.3-28.8-20.3L234,903z"/>
	<g>
		<path class="st0" d="M136.7,101.9c0,0-4.4-9.6-9.8-11.9s-9.8,3.3-10.9,10.2c-1.2,6.9,3.8,17.5,6.5,20.5c2.7,3.1,11.1,5.6,14.1,5.4
			c3-0.2,4.2,0.5,4.4-2.6C141.2,120.5,136.7,101.9,136.7,101.9z"/>
		<path class="st15" d="M136.6,117c-0.8-10-3.9-18.1-7.1-21.4c-3.3-3.3-7.1-0.8-8.6,2.9c-1.4,3.7-0.2,9-0.2,9s3.1-9.2,5.9-7.9
			C129.4,100.7,136.6,117,136.6,117z"/>
	</g>
</g>
</svg>
