<?xml version="1.0" encoding="utf-8"?>
<!-- Generator: Adobe Illustrator 24.3.0, SVG Export Plug-In . SVG Version: 6.00 Build 0)  -->
<svg version="1.1" id="Layer_1" xmlns="http://www.w3.org/2000/svg" xmlns:xlink="http://www.w3.org/1999/xlink" x="0px" y="0px"
	 viewBox="0 0 331 641" style="enable-background:new 0 0 331 641;" xml:space="preserve">
<style type="text/css">
	.st0{fill:#270210;}
	.st1{fill:#A36546;}
	.st2{fill:#1A1A1A;}
	.st3{fill:#9A6042;}
	.st4{fill:#AB6A4A;}
	.st5{opacity:0.28;fill:#7C2E2E;}
	.st6{fill:#CF2721;}
	.st7{fill:#333333;}
	.st8{fill:#4D4D4F;}
	.st9{fill:#4D4D4D;}
	.st10{opacity:0.59;fill:#BE8469;}
	.st11{fill:#FFFFFF;}
	.st12{fill:#39170B;}
	.st13{fill:#390B1D;}
	.st14{opacity:0.29;fill:#813B3B;}
</style>
<g>
	<path class="st0" d="M186,187.8c3.9,9,23.7,4.1,28.4,0.5v-3.3c2.8-5.2,4.3-9.4,8.8-13.4c2.1-1.8,4.3-3.4,6.6-4.9
		c1.6-0.7,3-1.3,4.1-1.8c5.8-2.7,13.2-5.8,16-12.5c3-2.7,5.1-5.6,4.6-8c-1.1,0.6-2.3,1.4-3.5,2.2c0-0.6-0.1-1.2-0.2-1.8
		c4.7-13.2-10.4-52.4-10.6-57.1c-0.3-6.1-15.9-12.1-15.4-11.1c3.6,6.2-40.2,67.8-49.6,72.5C162.8,155.4,185,185.5,186,187.8z
		 M136.8,204.8c16.3-7.3,19.8-45.4,18.5-66.4c-6.4-8.1-13.6-0.5-14.9-4c-1.6,2.8-33,36.4-33,36.4c-7.3,9.5-2.6,19.6,4.6,26.3
		c0.9,0.8-8.7,5.5-7.7,6.2s11.2-3,12.2-2.3C123.1,204.8,130.9,206.6,136.8,204.8z"/>
	<path class="st1" d="M39.7,403.7l24.5-22.2l-12.4-16.1c0,0-43.5,55.1-44.3,60.4c-0.8,5.4,10.7,12.2,10.7,12.2l3.8,19.9l12.2-0.8
		c0,0,3.1-15.7,6.9-19.5c-6.1,1.5-11.5,12.6-11.5,12.6l0.8-19.9l6.1-3.8l0.8,18.4c0,0,8.4-13,8.4-25.2
		C45.8,410.6,39.7,403.7,39.7,403.7z"/>
	<path class="st1" d="M302,388.6l18.7-0.2l2.9,42.8c0,0,0.8,28.3-3.1,32.9c-3.8,4.6-11.5,3.8-11.5,3.8l-10.7,7.7l-5.2-3.4l1.3-8
		c0,0-2.3-3.1-4.6-7.6c-2.3-4.6-1.5-16.8,2.3-21.4c3.8-4.6,11.9-8.2,11.9-8.2L302,388.6z"/>
	<polygon class="st2" points="113.9,259.1 102.4,302.7 48.1,367.2 60.4,384.6 107.8,347.9 143,291.2 	"/>
	<path class="st2" d="M104.7,254.5c1.5,11.5,26,19.9,30.6,37.5c4.6,17.6,0.8,42.8,0.8,45.1c0,0.2-0.3,0.8-0.7,1.7l56.4,7.4
		c0.4-14.3,10.4-40.5,15.5-59.7c6.1-23,9.9-52.8,9.9-52.8l67.3,52c0,0-4.6,36,4.6,62.7c9.2,26.8,13.2,46.7,13.2,46.7l18.9-3.1
		l-0.8-107.1l-91.8-108.7c-11.5-6.1-111.7,16.1-116.3,22.2c-4.6,6.1,2.3,22.2,2.3,22.2S103.2,243,104.7,254.5z"/>
	<path class="st2" d="M429,891.3c-2.2-8.7-17.4-26.8-17.4-26.8s2.9-11.6,0.7-17.3c-2.2-5.8-57.1-154.7-64.3-170.6
		c-7.2-15.9-51.3-62.9-51.3-62.9s-12.3-54.2-34-106.3c-21.7-52.1-65.1-140.3-69.4-150.4c-0.7-1.7-5.7-5.9-5.6-8.6h-57.1
		C124.9,360.1,94,424.7,71.8,476c-15.9,37-25.3,139.2-26,152.9c-0.7,13.7-10.8,85.3-14.5,115.7c-3.6,30.4-18.8,81-23.1,95.4
		c-3,10-10.1,36.1-18.8,45.5c-8.7,9.4-24.6,10.8-24.6,10.8l4.3,7.2c0,0,28.2,2.9,34.7-2.9c6.5-5.8,13.7-34.7,15.9-33.3
		c2.2,1.4,0.7,31.8,0.7,31.8l6.5-0.7c0,0,6.5-32.5,5.1-43.4C30.6,844.3,22,840,22,840l12.3-5.1l-6.5-12.3c0,0,49.2-98.3,53.5-115
		c4.3-16.6-0.7-70.9-1.4-73.7c-0.7-2.9,80.1-191.3,80.1-191.3s17.5,86.5,52.9,123.3c35.4,36.9,58.2,60.7,61.8,71.6
		c3.6,10.8,26.8,73,49.9,104.1c23.1,31.1,61.8,70.1,61.8,77.4c0,7.2-3.6,15.2-3.6,15.2l8.7,3.6c0,0-5.8,12.3-5.1,21.7
		c0.7,9.4,8,4.3,8,13.7c0,9.4-2.2,26,4.3,32.5c6.5,6.5,25.3,20.2,25.3,20.2l6.5-2.9C430.4,923.2,431.2,900,429,891.3z"/>
	<polygon class="st3" points="152,143.5 153.1,189.5 182,180.3 180.7,153.8 	"/>
	<path class="st4" d="M222.3,98.1c0,0,9.5,5,7.5,24.6c-2.2,21.9-35.8,40.9-35.8,40.9s-47.5-7.4-67.6-49
		c-20.1-41.6,16.9-73.8,59.1-65.9C226.6,45.2,231.2,78.1,222.3,98.1z"/>
	<path class="st5" d="M126.4,114.7c-16.6-34.3,5.7-62.2,37.8-66.5c-9.5,6.9-17.3,18.3-18.2,37.2c-1.7,38.6,29,66.3,43.9,77.4
		C177.9,159.9,143,148.8,126.4,114.7z"/>
	<path class="st6" d="M181.5,138.8c0,0,7.5-6.6,16.6-7.1c9.1-0.4,11.2,5.8,11.2,5.8l-5,0.8c0,0,1.7,2.5-2.9,4.1
		C196.9,144.2,185.7,142.2,181.5,138.8z"/>
	<path class="st7" d="M191.2,337.9l2.2-3.1c3.1-14.5,9.9-33.4,13.8-48.2c6.1-23,9.9-52.8,9.9-52.8s-22.2,3.8-33.7,6.1
		c-11.5,2.3-15.3,9.2-33.7,15.3c-18.4,6.1-17.6-1.5-31.4-3.8c-13.8-2.3-13.8,3.1-13.8,3.1c1.3,10,19.9,17.6,27.8,31
		c4.8-3.6,13.6-8.1,20.4-7.3c29.1,3.8,36-10.7,38.3,3.1c2.3,13.8-18.4,55.9-18.4,55.9L191.2,337.9z"/>
	<path class="st8" d="M196.7,361.7c-1.9-4.1-3.3-7.1-3.9-8.5c-2.3-5.3-0.2-16,3.1-28.3c-15.6-3.8-38.4-6.8-58.7,0.8
		c-0.4,6.1-1,10.6-1,11.5c0,0.7-3.9,7.9-10,19.3C143.4,354.3,173.6,352.5,196.7,361.7z"/>
	<path class="st8" d="M162.9,270.6c0,0,22.2,2.3,39.8-12.2C194.3,281.3,175.1,278.2,162.9,270.6z"/>
	<path class="st9" d="M79.8,634c-0.4-1.8,80.1-191.3,80.1-191.3L71.1,632.5c0,0,11.6,38.3-2.2,82.4C55.2,759,22.7,820.5,22.7,820.5
		s-8,10.8-6.5,21.7c1.4,10.8-3.6,29.6-11.6,44.1c-6,10.9-27.5,12.7-37.5,13.9l2,3.4c0,0,28.2,2.9,34.7-2.9
		c6.5-5.8,13.7-34.7,15.9-33.3c2.2,1.4,0.7,31.8,0.7,31.8l6.5-0.7c0,0,6.5-32.5,5.1-43.4C30.6,844.3,22,840,22,840l12.3-5.1
		l-6.5-12.3c0,0,49.2-98.3,53.5-115C85.6,691.1,80.5,636.9,79.8,634z"/>
	<g>
		<path class="st7" d="M430.4,923.2c0,0,0.2-7.5,0-15.5c-10.9,13.3-20.3,4.7-27.5-6.2c-4-6-8.4-13.3-8.9-19.1
			c-0.3,8.7-0.1,18.7,4.6,23.5c6.5,6.5,25.3,20.2,25.3,20.2L430.4,923.2z"/>
		<path class="st9" d="M391.4,837.8c0,0-5.8,12.3-5.1,21.7c0.7,9.1,7.4,4.7,7.9,12.9c0.6-5.7,1.5-10.4,0-12.1
			c-3.6-4.3-2.9-22.4-2.2-31.8c0.7-9.4-2.9-23.1-44.1-70.9c-41.2-47.7-62.9-99-66.5-120.7c-3.6-21.7-4-15.5-37.6-49.9
			c-62.4-64-82.3-144.7-84-142.8c7.8,16.9,13,77.7,52.9,121.8c35.1,38.8,58.2,60.7,61.8,71.6c3.6,10.8,26.8,73,49.9,104.1
			c23.1,31.1,61.8,70.1,61.8,77.4c0,7.2-3.6,15.2-3.6,15.2L391.4,837.8z"/>
	</g>
	<path class="st2" d="M152.2,166.2c0,0,1.8,3.8,12.7,3.8c10.8,0,17-4.6,17-4.6l7.4,24c0,0-7.7,6.2-23.2,6.2s-19.8-8.6-19.8-8.6
		L152.2,166.2z"/>
	<g>
		<path class="st10" d="M195.3,119.7c0-0.3,0.5-0.6,1.3-0.9c0.8-0.4,2-0.9,2.9-1.7c0.4-0.4,0.8-0.9,1-1.5c0.2-0.5,0.1-1-0.1-1.5
			c-0.4-1.1-1.9-2.4-3.3-4.4c-2.7-3.7-4-8.2-4.1-11.5c-0.1-3.4,0.8-5.5,1.8-5.4c1,0.1,1.4,2.1,2.2,4.9c0.7,2.8,1.9,6.4,4,9.6
			c0.8,1.5,2.6,3.1,3.3,5.9c0.3,1.4,0,3-0.7,4.1c-0.7,1.1-1.6,1.8-2.5,2.2c-1.8,0.9-3.3,0.8-4.2,0.8
			C195.9,120.1,195.4,119.9,195.3,119.7z"/>
	</g>
	<g>
		<path class="st11" d="M179.7,103.8c1.8-2.2-1.5-10.2-9.1-12.4c-7.6-2.3-11.5,2.9-11.7,5c-0.2,2.1,0.9,5.6,5.3,7.4
			c4.4,1.8,8,1.2,10.1,1C176.9,104.6,178.7,105.1,179.7,103.8z"/>
		<circle class="st12" cx="170.6" cy="96.4" r="6.6"/>
		<circle class="st11" cx="168" cy="95.1" r="2.6"/>
		<path class="st12" d="M180.2,102c0,0,0.9-3.9-3.8-8.8c-4.8-4.9-10.9-3.7-12.6-4c-1.7-0.3-3.5,0.3-3,0.7c0.5,0.4-1,1.8-2.3,1.5
			s0,1.2,0,1.6c0,0.4-2.3,0.4-2.5,0.9c-0.2,0.5,1.3,1.6,1,1.7c-0.4,0.1-1.6,1.1-1,1.6c0.6,0.4,1.9,2,2.4,2.6c0.5,0.6,2,1.2,2,1.2
			s-1.7-3.1-0.7-5.4c1-2.2,3.6-4.6,7.9-4.2s7.1,2.4,9,4.1C178.4,97.3,180.2,102,180.2,102z"/>
		<path class="st12" d="M181.4,82.3c1.3,3.1-4.6,2.4-8.2,1c-3.6-1.4-8.3-2-12.3-1.9c-4,0.1-9.2,2.5-9.2,2.5s6.2-4,12.1-4.5
			c5.9-0.5,12.5,0.4,14.5,0.9C180.4,80.8,180.6,80.6,181.4,82.3z"/>
	</g>
	<g>
		<path class="st11" d="M203.9,101.2c-1.7-2.1,1.4-9.6,8.6-11.8c7.2-2.1,10.9,2.8,11.1,4.7c0.2,1.9-0.9,5.4-5,7.1
			c-4.2,1.7-7.6,1.1-9.6,1C206.5,101.9,204.8,102.4,203.9,101.2z"/>
		<circle class="st12" cx="212.5" cy="94.1" r="6.3"/>
		<path class="st11" d="M207.6,92.9c0,1.4,1.1,2.5,2.5,2.5c1.4,0,2.5-1.1,2.5-2.5c0-1.4-1.1-2.5-2.5-2.5
			C208.7,90.4,207.6,91.5,207.6,92.9z"/>
		<path class="st12" d="M203.4,99.4c0,0-0.9-3.7,3.6-8.4c4.5-4.7,10.3-3.5,11.9-3.8c1.6-0.3,3.3,0.2,2.8,0.7
			c-0.5,0.4,0.9,1.7,2.2,1.4c1.3-0.3,0,1.1,0,1.5c0,0.4,2.2,0.3,2.4,0.8c0.2,0.5-1.3,1.5-0.9,1.6c0.3,0.1,1.6,1.1,1,1.5
			c-0.6,0.4-1.8,1.9-2.3,2.5c-0.5,0.6-1.9,1.1-1.9,1.1s1.6-3,0.7-5.1c-0.9-2.1-3.4-4.4-7.5-4s-6.7,2.3-8.5,3.9
			C205,94.9,203.4,99.4,203.4,99.4z"/>
		<path class="st12" d="M199.6,80.8c-1.3,2.9,4.3,2.2,7.8,0.9c3.4-1.3,7.9-1.9,11.6-1.8c3.8,0.1,8.7,2.3,8.7,2.3s-5.9-3.8-11.5-4.2
			c-5.6-0.5-11.9,0.4-13.7,0.8S200.3,79.1,199.6,80.8z"/>
	</g>
	<g>
		<g>
			<path class="st13" d="M98.3,165.3c0.1,1.1-1.3,2.7-3.5,5.4c-1.9,2.2-6.1,7.9-4.4,12.5c1.1,3,4.4,4.7,9.9,5.1
				c0.7,0.8,2.8,3.2,6.6,5.2c2,1.1,3.5,2.8,3.2,3.9c-0.1,0.5-0.9,2-6.9,2c-0.8,0-1.6,0-2.4-0.1c-1.7-1.2-3.3-2.6-4.7-3.8l-0.1-0.1
				c-0.2-0.1-0.4-0.2-0.6-0.2c-0.4,0-0.7,0.3-0.9,0.6c-0.1,0.4-0.1,0.8,0.2,1.1c3.4,3.7,7.5,8.2,12.9,8.2c1.2,0,2.4-0.2,3.6-0.7
				c2.7-1,5-3.2,6.2-5.9c1.2-2.7,1.3-5.7,0.4-8.5c-0.3-0.9-0.7-1.7-1.1-2.5c-0.5-0.9-0.9-1.8-1.1-2.7c-0.4-1.9-0.2-3.5,0.9-5.2
				c1-1.6,2.2-3.2,3.2-4.8c1.3-1.8,2.6-3.7,3.8-5.6c0.5-0.8,1-1.6,1.5-2.4c2.9-3.4,5.7-7.2,8.7-11.7c1.1-1.4,2-2.8,2.8-4.1
				c-0.1,0.8-0.3,1.5-0.6,2.2c-0.7,1.5-1.6,2.8-2.5,4.2c-0.6,0.9-1.2,1.8-1.8,2.7c-2.2,3.7-4,8.3-1.4,13.9c1.3,2.9,5.2,5.2,9.3,7.7
				c6,3.6,12.1,7.3,11.2,12.8c-1.5,8.5-9.7,8.9-11.3,8.9c-0.1,0-0.2,0-0.2,0c0,0,0,0,0,0c-0.4,0-0.7,0.3-0.7,0.7
				c-0.1,0.4,0.2,0.8,0.5,0.9c0.1,0,1.6,0.5,3.7,0.5c3.7,0,10.2-1.5,12.1-11.6c0.4-2.2,0.6-4.2,0.5-5.9c0.4-4.7-0.3-8.8-2.2-12.4
				c-1.3-2.4-3.2-4.1-5.1-5.7c-0.4-0.4-0.8-0.7-1.2-1.1c-2-1.9-4-3.9-3.9-6.5c0.1-3.1,1.7-6,3.3-8.8c0.4-0.8,0.9-1.6,1.3-2.4
				c1.8-3.6,2.9-7.1,3.2-10.8c0.1-1.7,0.1-3.4,0-5.1c0.1-3-0.4-6.5-1.5-10.5c-0.7-2.7-1.6-5.3-2.4-7.9c-3.2-10.1-5.9-18.9-2.7-28.4
				c3.5-2.1,8.4-5.9,12.4-12.3c2.1-3.4,3.6-7,5-10.4c2.8-7,5.3-13,12.7-16.2c3.5,3.6,12.5,11.7,27.8,17.8c20,8.1,31,18.3,32.8,30.4
				c0.6,4.3,0.5,8.1,0.4,11.8c-0.2,6.7-0.3,13.1,4,21c4.1,7.5,5.1,15.7,2.8,21.9c-2,5.4-6.3,9-12.8,10.8
				c-17.3,4.9-25.5,12.2-25,22.3c0.4,8.4,11.5,12.1,19.2,12.1c1.4,0,2.6-0.1,3.6-0.4c5.9-1.5,10.7-9.6,11-9.9
				c0.2-0.3,0.1-0.8-0.1-1.1c-0.1-0.1-0.3-0.2-0.5-0.2c-0.2,0-0.4,0.1-0.5,0.2c0,0-4.3,4.4-9.1,6.2c-1.4-0.3-5.1-1.2-6-4.1
				c-0.8-2.7,0.2-5.6,0.9-7.2c2.6-5.6,7.1-8.6,11.8-11.7c0.5-0.3,0.9-0.6,1.4-0.9c5.6-3.7,11.4-7.8,15.3-13.7
				c2.1-3.2,3.3-6.8,3.6-10.6c1.2-7.7,0.4-15.1-2.3-21.3c-1-2.3-2.3-4.4-3.6-6.5c-0.5-0.8-1-1.7-1.5-2.5c-1.8-3-3.2-5.8-2-9
				c0.7-1.9,1.6-3.6,2.5-5.3c0.7-1.4,1.5-2.8,2.1-4.2c1.3-3,2.6-6.7,3-10.7c0.2-2.8,0-5.5-0.6-8.2c-0.6-7.7-4.5-18-10.5-27.6
				c-5.5-8.7-15.5-21.3-32.1-31.7C198.2,10.5,187.8,7,178.4,7c-11.4,0-17.6,5.2-18.9,6.6c-0.8-0.2-3-0.5-5.9-0.5
				c-6.9,0-17,1.7-25.8,9.8c-13.3,12.3-21.2,36.3-22.1,67.5c-0.1,1.8-0.1,3.6-0.2,5.2c-0.7,24.3-0.8,28.7-8.9,39.2
				c-5.8,7.6-8.9,12.6-8.4,17.2c0.3,2.6,1.7,5,4.6,7.4C96.3,162.4,98.2,164,98.3,165.3z M240.1,107c0,1.2,0.1,2.3,0.4,3.4
				c-1.4-2.9-1.9-5.4-0.6-7.5c1.3-2.1,2.5-3.8,3.6-5.3c-0.1,0.2-0.2,0.4-0.3,0.5l-0.1,0.1C241.7,100.8,240.2,103.8,240.1,107z"/>
			<path class="st14" d="M119,91.4v-1.1C119,91,119,91.4,119,91.4z M119,82.3v8c0.1-6.7,1.6-42.4,24-64.9
				C143,25.4,117.2,44.5,119,82.3z M239.7,100.5l2.2-2.1c2.1-3,3.9-5.2,5.4-7.7c-1,2.7-2.2,5.3-3.5,7.8c-0.5,1-1.1,2.1-1.6,3.3
				l5.4-5.1c0,0,0.3,0,0.8-0.1c0.2-0.4,0.4-0.8,0.6-1.3c1.4-3.3,2.6-6.8,2.9-10.4c0.2-2.8,0-5.5-0.6-8
				c-0.8-11.5-10.2-34.4-33.2-52.4c20,18.2,25.8,40.3,27.5,51.8c-0.6-1.3-1.3-2.7-2.1-4.1C232,42.9,194.6,24,194.6,24
				c20.8,12.2,33.1,25.9,40.1,36.2c-1.5-1.8-3.3-3.7-5.1-5.6c-27.5-28.2-60.3-38.7-60.3-38.7s42,19.1,61.2,44
				C249.7,84.7,239.7,100.5,239.7,100.5z M117.2,97.1l2.6-42.6c0,0,7.9-30.1,36.7-35.4c0,0-33.7-1.9-42.8,43
				C104.6,107.2,117.2,97.1,117.2,97.1z M146.2,85.9c3-2.2,6.5-5.5,9.5-10.3c6.5-10.4,6.6-22.2,18.5-27.1c3.3,3.4,12.3,11.7,27.9,18
				c20.1,8.1,31.5,18.6,33.2,31.1c0.2,1.4,0.3,2.8,0.4,4.1c0.9-4.3,0.9-8.5,0.1-12.7c-2.6-30.5-35.1-49.7-35.1-49.7
				c19.3,15.1,27.4,29.4,30.7,37.4c-15.6-30-62.6-54.6-62.6-54.6s21,13.9,42.8,33.5c14.5,13,18.6,23.3,19.7,28.7
				c-2.4-4-7-9-15.4-14.4c-22.3-14.3-39.4-19.1-53.8-52.6c0,0,4.3,14.7,8.8,26c-1.4,0.6-6.3,3.3-9.6,11.8
				C157.7,64.6,157.9,75,146.2,85.9z M160.5,26.8c0,0-24,29.6-21.9,62.6l1.1-5.3c-0.4,5,0.1,9.9,2,14.1c-0.1-2.6,0.1-5.3,0.8-7.9
				l0-0.8c0,0,0.4-12.4,7-25.3c6.6-12.9,13.1-27.3,13.1-27.3s-8.3,12.4-14.4,22.5c-2.3,3.7-4.5,8.5-6.2,13.6
				C144.5,62.4,150.5,40.3,160.5,26.8z"/>
		</g>
	</g>
	<g>
		<path class="st1" d="M145.1,102.8c0,0-3.2-6.8-7-8.5c-3.8-1.6-7,2.3-7.8,7.3c-0.8,4.9,2.7,12.5,4.7,14.7c1.9,2.2,7.9,4,10.1,3.8
			c2.1-0.1,3,0.4,3.2-1.8C148.4,116,145.1,102.8,145.1,102.8z"/>
		<path class="st5" d="M145,113.6c-0.6-7.1-2.8-12.9-5.1-15.3c-2.3-2.3-5.1-0.6-6.1,2c-1,2.6-0.1,6.4-0.1,6.4s2.2-6.5,4.2-5.7
			C139.9,101.9,145,113.6,145,113.6z"/>
	</g>
</g>
</svg>
