<?xml version="1.0" encoding="utf-8"?>
<!-- Generator: Adobe Illustrator 25.0.0, SVG Export Plug-In . SVG Version: 6.00 Build 0)  -->
<svg version="1.1" id="Layer_1" xmlns="http://www.w3.org/2000/svg" xmlns:xlink="http://www.w3.org/1999/xlink" x="0px" y="0px"
	 viewBox="0 0 480 480" style="enable-background:new 0 0 480 480;" xml:space="preserve">
<style type="text/css">
	.st0{fill:#BFDDEE;}
	.st1{fill:#4CA09D;}
	.st2{fill:none;stroke:#FFFFFF;stroke-width:1.2783;stroke-miterlimit:10;}
	.st3{fill:#FFFFFF;}
</style>
<rect x="-11.3" y="-11.3" class="st0" width="502.6" height="502.6"/>
<g>
	<g id="viewedBTNS_6_" transform="matrix(1,0,0,1,-58,-29.15)">
		<path class="st1" d="M88.3,266.2c0,0,24.1-37.9,38-73.5c11.8-30.2,21.6-71.5,21.6-71.5l145.7,145.7L88.3,266.2z"/>
		<path id="view01_12_" class="st2" d="M445,118.3c0,0-43.8-9.7-78.8-25c-29.7-13-65.9-35.2-65.9-35.2v205.9L445,118.3z"/>
		<path id="view02_12_" class="st2" d="M508.2,266.4c0,0-24.1-37.8-38-73.5c-11.8-30.1-21.6-71.5-21.6-71.5L303,267.1L508.2,266.4z"
			/>
		<path id="view03_12_" class="st2" d="M508.2,271.9c0,0-24.1,37.8-38,73.5c-11.8,30.1-21.6,71.5-21.6,71.5L303,271.2L508.2,271.9z"
			/>
		<path id="view04_12_" class="st2" d="M445,420c0,0-43.8,9.7-78.8,25c-29.7,13-65.9,35.2-65.9,35.2V274.4L445,420z"/>
		<path id="view05_12_" class="st2" d="M151,420c0,0,43.8,9.7,78.8,25c29.7,13,65.9,35.2,65.9,35.2V274.4L151,420z"/>
		<path id="view06_12_" class="st2" d="M87.8,271.9c0,0,24.1,37.8,38,73.5c11.8,30.1,21.6,71.5,21.6,71.5l145.6-145.6L87.8,271.9z"
			/>
		<path id="view07_12_" class="st2" d="M87.8,266.4c0,0,24.1-37.8,38-73.5c11.8-30.1,21.6-71.5,21.6-71.5l145.6,145.6L87.8,266.4z"
			/>
		<path id="view08_12_" class="st2" d="M151,118.3c0,0,43.8-9.7,78.8-25c29.7-13,65.9-35.2,65.9-35.2v205.9L151,118.3z"/>
	</g>
	<path class="st3" d="M246.9,31.6V21.4c0-1-0.8-1.9-1.9-1.9c-1,0-1.9,0.8-1.9,1.9v8C244,29.9,245.3,30.6,246.9,31.6z"/>
	<path class="st3" d="M391.9,97.4l7.2-7.2c0.7-0.7,0.7-1.9,0-2.6c-0.7-0.7-1.9-0.7-2.6,0l-5.6,5.6C391,94.1,391.4,95.5,391.9,97.4z"
		/>
	<path class="st3" d="M459.4,243.4h-9.6c-0.4,0.7-1.2,1.9-2.2,3.6c0.2,0.1,0.4,0.1,0.7,0.1h11.1c1,0,1.9-0.8,1.9-1.9
		S460.5,243.4,459.4,243.4z"/>
	<path class="st3" d="M393,397.8l-6.8-6.8c-0.8,0.2-2.2,0.5-4.1,1c0.1,0.2,0.2,0.4,0.4,0.5l7.9,7.9c0.6,0.7,1.9,0.7,2.6,0
		C393.8,399.8,393.8,398.6,393,397.8z"/>
	<path class="st3" d="M233.1,448.4v10.2c0,1,0.8,1.9,1.9,1.9c1,0,1.9-0.8,1.9-1.9v-8C236,450.1,234.7,449.4,233.1,448.4z"/>
	<path class="st3" d="M88.2,382.4l-7.2,7.2c-0.7,0.7-0.7,1.9,0,2.6c0.7,0.7,1.9,0.7,2.6,0l5.7-5.7C89,385.7,88.7,384.3,88.2,382.4z"
		/>
	<path class="st3" d="M32.5,233c-0.2-0.1-0.5-0.2-0.8-0.2H20.6c-1,0-1.9,0.8-1.9,1.9c0,1,0.8,1.9,1.9,1.9h9.7
		C30.8,235.8,31.5,234.6,32.5,233z"/>
	<path class="st3" d="M146.7,210.9c0,3.3-0.6,5.8-1.7,7.4c-1.1,1.6-2.8,2.4-5.1,2.4c-2.2,0-3.9-0.8-5-2.5c-1.1-1.7-1.7-4.1-1.7-7.3
		c0-3.4,0.6-5.8,1.7-7.5c1.1-1.6,2.8-2.4,5.1-2.4c2.2,0,3.9,0.8,5,2.5C146.2,205.2,146.7,207.7,146.7,210.9z M137.4,210.9
		c0,2.3,0.2,4.1,0.6,5.1c0.4,1,1.1,1.5,2,1.5s1.7-0.6,2-1.6c0.4-1,0.6-2.7,0.6-5c0-2.3-0.2-4.1-0.6-5.1c-0.5-1-1.1-1.6-2-1.6
		s-1.7,0.6-2,1.6C137.5,206.9,137.4,208.6,137.4,210.9z"/>
	<path class="st3" d="M150.7,220.6l7.2-15.8h-9.5v-3.4h13.8v2.5l-7.2,16.6L150.7,220.6L150.7,220.6z"/>
	<path class="st3" d="M97.9,88c-0.1-0.2-0.2-0.4-0.4-0.6l-7.9-7.9c-0.6-0.7-1.9-0.7-2.6,0c-0.7,0.6-0.7,1.9,0,2.6l6.8,6.8
		C94.7,88.7,96.1,88.4,97.9,88z"/>
	<path class="st3" d="M236.8,29.4v-8c0-1-0.8-1.9-1.9-1.9c-1,0-1.9,0.8-1.9,1.9v10.2C234.7,30.6,236,29.9,236.8,29.4z"/>
	<path class="st3" d="M393,79.5c-0.7-0.7-1.9-0.7-2.6,0l-7.9,7.9c-0.2,0.2-0.3,0.4-0.4,0.6c1.9,0.5,3.2,0.8,4,1l6.9-6.9
		C393.8,81.3,393.8,80.1,393,79.5z"/>
	<path class="st3" d="M459.4,232.8h-11.1c-0.3,0-0.5,0.1-0.7,0.1c1,1.6,1.8,2.9,2.2,3.6h9.7c1,0,1.9-0.8,1.9-1.9
		C461.3,233.6,460.5,232.8,459.4,232.8z"/>
	<path class="st3" d="M391.9,382.5c-0.5,1.9-0.8,3.3-1,4.2l5.6,5.6c0.6,0.7,1.9,0.7,2.6,0c0.7-0.6,0.7-1.9,0-2.6L391.9,382.5z"/>
	<path class="st3" d="M243.2,450.6v8c0,1,0.8,1.9,1.9,1.9c1,0,1.9-0.8,1.9-1.9v-10.2C245.3,449.4,244,450.1,243.2,450.6z"/>
	<path class="st3" d="M93.8,391.1l-6.8,6.8c-0.7,0.7-0.7,1.9,0,2.6c0.7,0.7,1.9,0.7,2.6,0l7.9-7.9c0.1-0.1,0.3-0.3,0.3-0.5
		C96,391.6,94.7,391.3,93.8,391.1z"/>
	<path class="st3" d="M30.3,243.4h-9.7c-1,0-1.9,0.8-1.9,1.9s0.8,1.9,1.9,1.9h11.1c0.3,0,0.5-0.1,0.7-0.2
		C31.4,245.3,30.7,244.1,30.3,243.4z"/>
	<path class="st3" d="M88.2,97.5c0.5-1.9,0.8-3.3,1-4.2l-5.7-5.7c-0.6-0.7-1.9-0.7-2.6,0c-0.7,0.6-0.7,1.9,0,2.6L88.2,97.5z"/>
</g>
</svg>
