<?xml version="1.0" encoding="utf-8"?>
<!-- Generator: Adobe Illustrator 24.0.3, SVG Export Plug-In . SVG Version: 6.00 Build 0)  -->
<svg version="1.1" id="Layer_1" xmlns:serif="http://www.serif.com/"
	 xmlns="http://www.w3.org/2000/svg" xmlns:xlink="http://www.w3.org/1999/xlink" x="0px" y="0px" width="417px" height="662.1px"
	 viewBox="0 0 417 662.1" style="enable-background:new 0 0 417 662.1;" xml:space="preserve">
<style type="text/css">
	.st0{fill:#98393E;}
	.st1{fill:#882C35;}
	.st2{fill:#75232F;}
	.st3{fill:#F1EDDC;}
	.st4{fill:#DCD1BE;}
	.st5{fill:#4D4D4D;}
	.st6{fill:#333333;}
	.st7{fill:#FFB781;}
	.st8{fill:#FF9466;}
	.st9{fill:#E97B59;}
	.st10{fill:#FFFFFF;}
	.st11{fill:#39170B;}
</style>
<g>
	<path class="st0" d="M331.2,423.6l-190.5-56.6c0,0-96.2-269.4,23.3-307.2c29.7-47.6,181.5-48.5,202.2,67.4
		C386.8,243.1,331.2,423.6,331.2,423.6z"/>
	<path class="st1" d="M237.8,152.1c42.8-29.1,68.1-71.1,68.5-107c28.9,14.9,52.5,41.2,59.8,82.1c20.7,115.9-36.8,314.3-36.8,314.3
		l-190.5-56.6c0,0-35-127.2-35-207.8C137.4,191.8,193.6,182.2,237.8,152.1z"/>
	<path class="st2" d="M216.7,200.5c47.5,0,67.5,138.6,111.1,241.6l-170.2-46.6C162.8,326.6,173.8,200.5,216.7,200.5z"/>
	<g>
		<path class="st3" d="M24.7,535.9c6.8-32.4,118.6-209.5,160.4-211.4c19.5-0.9-97.4,180.4-114.6,227.5
			C64,569.7,19.3,561.9,24.7,535.9z"/>
		<path class="st4" d="M48.2,538.6C61.5,502,177,324.9,185.1,324.5c19.5-0.9-97.4,180.4-114.6,227.5c-4.2,11.6-24.8,12.2-37.1,4
			C38.6,554.6,46.6,543.1,48.2,538.6z"/>
		<path class="st5" d="M35.4,569.5c-6-0.2-25-9.3-25.1-22.4c0-13.1,24.2-36.8,47-25.5c8.2,4.1,24.4,15.2,23.6,16.1
			C81,537.7,67.2,570.7,35.4,569.5z"/>
		<path class="st6" d="M18.5,534.2c0,0.9,0.1,1.8,0.4,2.7c2.2,6.5,13.4,8.6,24.9,4.6c11.3-3.9,18.7-12.1,16.8-18.6
			c8.9,4,21.1,14.1,20.4,14.8c0,0-13.7,33-45.5,31.8c-6-0.2-25-9.3-25.1-22.4C10.3,542.9,13.6,538.4,18.5,534.2z"/>
	</g>
	<path class="st5" d="M323.3,1087.7l-211.2-36c0,0-6.2-336.2,34.8-389.2c40.9-53,78.3-83.2,91.4-37.6
		C251.3,670.5,341.3,646.3,323.3,1087.7z"/>
	<path class="st6" d="M257.8,994.3c0-186.6-36.8-340.5-84.3-363.4c8.1-49.6,51.7-49.9,64.8-4.3c13.1,45.6,103.1,19.6,85.1,461
		l-70.6-12.1C256,1038.8,257.8,1035.3,257.8,994.3z"/>
	<path class="st4" d="M263.3,657.1c-17.1-71.2,48.6-284.6,32.3-315.2c0,0-152.7,62.5-152.3,103.9c0.8,81,8.9,178,1.8,218.5
		L263.3,657.1z"/>
	<path class="st3" d="M297,344.6c1.8,30.6-19,158.2-29.7,167.2c-25.5,21.7-124,14.5-138.3-12.4c-11.7-22,40.4-162.1,47.6-168.3
		C183.7,324.9,296.1,329.3,297,344.6z"/>
	<path class="st4" d="M240,495.5c11-8.7,56.8-154.9,57-150.9c1.8,30.6-17.6,149.5-29.7,165.5c-18.6,24.5-147.3,18.1-138.3-19.5
		C166.1,504.7,219,512.2,240,495.5z"/>
	<path class="st7" d="M276.3,334.7c-8.1,35.9-21.7,123.3-81,122.4c-59.3-0.9-1.7-129.3-1.7-129.3C226.8,325,255,326,276.3,334.7z"/>
	<path class="st8" d="M193.6,327.8c0.7-0.1,1.4-0.1,2-0.1c-10.4,23.4-51,125,3.3,125.8c13.5,0.2,25.6-6.1,36.2-16.3
		c-11.5,12.3-24.8,20.1-39.8,19.8C136.1,456.2,193.6,327.8,193.6,327.8z"/>
	<polygon class="st7" points="270,233.2 262.8,331.1 232.3,352.7 208,330 230.4,237.8 	"/>
	<path class="st7" d="M279,237.1c-6,44.5-87.6,82.8-87.6,82.8s-49-56.8-49.9-123.3c-0.7-48.5,7.8-94.1,66.2-92.3
		C256,105.9,289.8,157.1,279,237.1z"/>
	<path class="st1" d="M270,236.2c-19.2-40.9-48.6-132.4-12.9-160.7c25.2-19.9,49.8,64,35.9,118.7C287.6,215.4,270,236.2,270,236.2z"
		/>
	<path class="st7" d="M277.2,204.1c15.1-10,33.5-13.2,32.3,3.6c-1.2,16.8-27.6,32.9-40.7,38.9C255.6,252.7,271.8,207.7,277.2,204.1z
		"/>
	<path class="st9" d="M280.9,209.6c8.3-5.5,18.4-7.2,17.7,2c-0.7,9.2-15.1,18.1-22.3,21.4C269,236.2,277.9,211.6,280.9,209.6z"/>
	<path class="st7" d="M275.6,220.2c6.6-4.4,14.7-5.8,14.2,1.6c-0.5,7.4-12.1,14.5-17.9,17.1C266.1,241.5,273.2,221.8,275.6,220.2z"
		/>
	<path class="st0" d="M244.7,88.9c6.9-19.8,22.1-32.4,34.1-28.3c12,4.1,16.1,23.5,9.3,43.3c-6.9,19.8-22.1,32.4-34.1,28.3
		C242,128,237.8,108.6,244.7,88.9z"/>
	<g>
		<path class="st9" d="M187.6,223c-5.7,8.7-10.5,21-7.5,24c3,3,17.7,2.7,18.9,1.8C200.2,247.9,187.6,223,187.6,223z"/>
		<path class="st7" d="M191.8,220.9c-5.7,8.7-10.5,21-7.5,24c3,3,17.7,2.7,18.9,1.8C204.4,245.8,191.8,220.9,191.8,220.9z"/>
		<g>
			<path class="st0" d="M138.2,175.7l-1.2-2.2c8.1-13.4,26.6-19.6,35.6-19.7l1,6.2C166.5,159.3,147.5,164.6,138.2,175.7z"/>
		</g>
		<g>
			<path class="st0" d="M245.5,166.3c-15.1-10.5-42.3-12-48.8-11.4l0.3-6.4c7.4-0.5,32.9,2.4,50.3,15.5L245.5,166.3z"/>
		</g>
		<g>
			<path class="st9" d="M182.1,272.5l0.8-2.1c1.1,0.3,25.4,6.8,48.8-19l3.4,3C213.9,277.3,193.6,275.9,182.1,272.5z"/>
		</g>
		<path class="st9" d="M212.1,280.8c-0.3-1.5-3.4-0.3-7.7,0.7c-4.2,1-8,1.5-7.7,2.9c0.3,1.5,4,1.8,8.2,0.8
			C209.3,284.2,212.4,282.2,212.1,280.8z"/>
		<g>
			<path class="st10" d="M212.2,202c-3-3.3,1.2-16,12.9-20.4c11.7-4.4,18.3,3.3,18.8,6.5c0.5,3.2-0.8,8.9-7.5,12.2
				c-6.7,3.3-12.4,2.8-15.6,2.7C216.7,202.9,214,203.9,212.2,202z"/>
			<circle class="st11" cx="225.7" cy="189.3" r="10.4"/>
			<circle class="st10" cx="229.5" cy="187.1" r="4.2"/>
			<path class="st11" d="M211.3,199.2c0,0-1.9-5.9,5-14.2c6.9-8.3,16.6-7,19.2-7.7c2.6-0.7,5.5,0,4.7,0.8c-0.8,0.7,1.7,2.7,3.8,2.1
				c2.1-0.6,0.1,1.8,0.2,2.5c0,0.7,3.7,0.3,4,1.1c0.3,0.8-1.9,2.6-1.4,2.8c0.6,0.2,2.7,1.6,1.7,2.4c-1,0.8-2.8,3.3-3.5,4.3
				c-0.8,1-3,2.1-3,2.1s2.3-5.1,0.5-8.5c-1.8-3.4-6.1-6.8-12.8-5.7c-6.7,1.2-10.8,4.6-13.6,7.5C213.5,191.6,211.3,199.2,211.3,199.2
				z"/>
		</g>
		<g>
			<path class="st10" d="M174.2,200.5c2.4-3.5-3.2-14.9-14.8-17.4c-11.6-2.5-16.8,5.5-16.8,8.6c-0.1,3.1,1.9,8.3,8.6,10.5
				c6.7,2.2,12,1,15,0.5C170.1,202,172.8,202.5,174.2,200.5z"/>
			<circle class="st11" cx="159.8" cy="190.4" r="9.9"/>
			<path class="st10" d="M167.4,188c0.2,2.2-1.5,4.1-3.7,4.2c-2.2,0.2-4.1-1.5-4.2-3.7c-0.2-2.2,1.5-4.1,3.6-4.2
				C165.3,184.2,167.2,185.8,167.4,188z"/>
			<path class="st11" d="M174.7,197.8c0,0,1-5.8-6.6-12.7c-7.6-6.8-16.5-4.4-19.1-4.6c-2.6-0.3-5.2,0.8-4.3,1.4
				c0.8,0.6-1.3,2.8-3.3,2.5c-2-0.3,0.1,1.7,0.2,2.4c0,0.7-3.4,0.8-3.6,1.5c-0.2,0.8,2.2,2.2,1.6,2.4c-0.5,0.2-2.3,1.9-1.3,2.4
				c1,0.6,3,2.7,3.9,3.6c0.9,0.9,3.1,1.5,3.1,1.5s-2.9-4.5-1.6-7.9c1.2-3.4,4.8-7.2,11.3-7s10.7,2.9,13.8,5.2
				C171.6,190.9,174.7,197.8,174.7,197.8z"/>
		</g>
	</g>
	<path class="st3" d="M401.4,535.5c-1.6-28.7-70-193.6-123.7-200.2c-19-2.3,70.4,168,79.8,210.7
		C361.1,562.1,402.6,558.5,401.4,535.5z"/>
	<path class="st4" d="M393.5,536.3c-4.9-90.1-118.7-202.1-118.7-202.1c54,0.7,128.1,174.8,129.6,203.6c0.9,16.6-21.9,21.8-36.1,17.5
		C380.9,555,394.2,549,393.5,536.3z"/>
	<g>
		<g>
			<path class="st7" d="M275.8,680.1c9.1-22.7,76.8-136.2,84-143.1c7.2-6.8,38.3-17.8,42.9,0.4C407.3,555.5,289,682.8,289,682.8
				L275.8,680.1z"/>
			<path class="st8" d="M373.9,566.4c-2.8-11.1-16.6-10.8-28.4-7.3c7.5-12.3,12.9-20.5,14.4-22c7.2-6.8,40.9-19,45.4-0.9
				C409.8,554.3,289,682.8,289,682.8l-4.7-0.5C326.5,633.5,377.2,579.6,373.9,566.4z"/>
		</g>
		<path class="st5" d="M396.2,554.9c5.4,2.8,15-28.9,5.9-38.3c-9.1-9.4-46.2,9.6-48.6,16.3c-2.4,6.6,2.3,17,2.3,17
			S375.2,544.1,396.2,554.9z"/>
		<path class="st6" d="M353.5,532.8c0.4-1.2,2.1-2.9,4.5-4.7c0,2.1,0.5,4.2,1.7,5.9c4.3,6.5,15.2,6.8,24.3,0.7
			c8.2-5.5,12.1-14.3,9.6-20.7c3.6-0.1,6.9,0.4,8.5,2.5c10.4,13.2-0.5,41-5.9,38.3c-20.9-10.7-40.4-5-40.4-5
			S351.1,539.5,353.5,532.8z"/>
		<g>
			<path class="st7" d="M236.5,713L236.5,713l21.7-24l-20.7,12.6c-2.6,1.3-4.1-0.3-4.7-1.1l9.9-7.7l3.2-2.3l0,0
				c2.9-2.4,5.7-4.5,8.3-6.3l0,0l4.1-3.3l29.1-8.8l0,0l2.7,3.1l1.4,5.5c0,0-5.3,9-13.5,15.4c-5.4,10.3-11.7,17.9-11.7,17.9
				c-4.4,3.9-4.1-0.8-4.1-0.8c4.4-3.7,8-11.8,8.6-13.1c0.4-1,0.8-1.9,1.1-2.6l-0.9-0.2l-20.6,23.3c-3.3,2.9-4.2-1.9-4.2-1.9
				l14.3-18.8l2.7-4.5l-1.7-0.4l0.2-0.5l-0.4,0.4L241,716.8l0,0c-3.8,3.6-7.6-0.4-7.6-0.4L236.5,713z"/>
		</g>
	</g>
	<g>
		<path class="st7" d="M138.1,691.6c-5.4-17.9-67.7-137.2-73.6-142.5s-33.1-13.5-40.3,1.3c-7.2,14.7,105.6,140.5,105.6,140.5
			L138.1,691.6z"/>
		<path class="st8" d="M61.1,547c-8.4-0.9-16.7,0.6-20.1,7.6c-5.9,12.1,64,102,91.5,136.5l-2.6-0.2c0,0-116.1-126.1-109-140.8
			C27.1,537.3,51.1,542.1,61.1,547z"/>
		<g>
			<path class="st7" d="M182.3,722.4L182.3,722.4l-20.8-23.1l19.9,12.1c2.5,1.2,4-0.3,4.5-1l-9.5-7.4l-3-2.2l0,0
				c-2.8-2.3-5.5-4.3-8-6l0,0l-3.9-3.2l-28-8.5l0,0l-2.6,3l-1.4,5.3c0,0,5.1,8.6,13,14.8c5.1,9.9,11.3,17.2,11.3,17.2
				c4.2,3.8,4-0.7,4-0.7c-4.2-3.6-7.7-11.4-8.3-12.6c-0.4-0.9-0.8-1.8-1.1-2.5l0.8-0.2l19.8,22.4c3.2,2.8,4-1.8,4-1.8l-13.7-18.1
				l-2.6-4.3l1.6-0.4l-0.2-0.5l0.4,0.4L178,726l0,0c3.6,3.4,7.3-0.3,7.3-0.3L182.3,722.4z"/>
		</g>
	</g>
</g>
</svg>
