<?xml version="1.0" encoding="utf-8"?>
<!-- Generator: Adobe Illustrator 24.0.3, SVG Export Plug-In . SVG Version: 6.00 Build 0)  -->
<svg version="1.1" id="Layer_1" xmlns:serif="http://www.serif.com/"
	 xmlns="http://www.w3.org/2000/svg" xmlns:xlink="http://www.w3.org/1999/xlink" x="0px" y="0px" width="90px" height="155.6px"
	 viewBox="0 0 90 155.6" style="enable-background:new 0 0 90 155.6;" xml:space="preserve">
<style type="text/css">
	.st0{fill:#2CACE3;}
	.st1{clip-path:url(#SVGID_2_);fill:none;stroke:#00FFFF;stroke-width:0.4316;stroke-miterlimit:10;}
	.st2{clip-path:url(#SVGID_2_);}
	.st3{fill:none;stroke:#00FFFF;stroke-width:0.4316;stroke-miterlimit:10;}
	.st4{fill:#00FFFF;}
</style>
<g>
	<path class="st0" d="M3.2,143.1V11.5C3.2,6.2,7.4,2,12.7,2h64.6c5.3,0,9.5,4.3,9.5,9.5v131.6c0,5.3-4.3,9.5-9.5,9.5H12.7
		C7.4,152.6,3.2,148.4,3.2,143.1z"/>
	<g>
		<defs>
			<path id="SVGID_1_" d="M3.2,144.1V12.5C3.2,7.2,7.4,3,12.7,3h64.6c5.3,0,9.5,4.3,9.5,9.5v131.6c0,5.3-4.3,9.5-9.5,9.5H12.7
				C7.4,153.6,3.2,149.4,3.2,144.1z"/>
		</defs>
		<clipPath id="SVGID_2_">
			<use xlink:href="#SVGID_1_"  style="overflow:visible;"/>
		</clipPath>
		<circle class="st1" cx="22.2" cy="103.1" r="1.1"/>
		<g class="st2">
			<circle class="st3" cx="79.7" cy="57.5" r="1.1"/>
		</g>
		<circle class="st1" cx="29.1" cy="110.6" r="1.1"/>
		<g class="st2">
			<g>
				<polyline class="st3" points="6.6,-17.2 27,3.2 27,42.1 				"/>
				<circle class="st3" cx="27" cy="43.2" r="1.1"/>
			</g>
			<circle class="st3" cx="20.8" cy="51.8" r="1.1"/>
			<circle class="st3" cx="12.7" cy="60.1" r="1.1"/>
			<circle class="st3" cx="40.2" cy="7.8" r="1.1"/>
			<polyline class="st3" points="6.1,-13.1 24.2,5 24.2,39.3 20.7,42.8 20.7,50.7 			"/>
			<circle class="st3" cx="21.1" cy="32.3" r="1.1"/>
			<circle class="st3" cx="43.5" cy="37.1" r="1.1"/>
			<polyline class="st3" points="6.6,-7.9 21.1,6.6 21.1,31.2 			"/>
			<polyline class="st3" points="27,12.5 43.5,29 43.5,36 			"/>
			<polyline class="st3" points="32.6,18.2 32.6,11.7 27,6 			"/>
			<polyline class="st3" points="-0.1,-2.1 9.4,7.5 9.4,27.4 5.5,31.3 5.5,52.9 12,59.4 			"/>
			<polyline class="st3" points="5.5,40 13.2,32.3 13.2,2.2 4.5,-6.5 			"/>
			<line class="st3" x1="25.8" y1="-6.5" x2="39.3" y2="6.9"/>
		</g>
		<g class="st2">
			<g>
				<polyline class="st3" points="83.3,172.7 63,152.4 63,113.4 				"/>
				<circle class="st3" cx="63" cy="112.3" r="1.1"/>
			</g>
			<circle class="st3" cx="69.1" cy="103.7" r="1.1"/>
			<circle class="st3" cx="77.2" cy="95.4" r="1.1"/>
			<circle class="st3" cx="49.7" cy="147.7" r="1.1"/>
			<polyline class="st3" points="83.8,168.7 65.7,150.6 65.7,116.2 69.2,112.8 69.2,104.8 			"/>
			<circle class="st3" cx="68.8" cy="123.2" r="1.1"/>
			<circle class="st3" cx="46.4" cy="118.4" r="1.1"/>
			<polyline class="st3" points="83.3,163.5 68.8,149 68.8,124.3 			"/>
			<polyline class="st3" points="63,143.1 46.4,126.6 46.4,119.5 			"/>
			<polyline class="st3" points="57.3,137.4 57.3,143.9 62.9,149.5 			"/>
			<polyline class="st3" points="90,157.7 80.5,148.1 80.5,128.2 84.4,124.3 84.4,102.6 77.9,96.1 			"/>
			<polyline class="st3" points="84.4,115.5 76.7,123.2 76.7,153.3 85.4,162.1 			"/>
			<line class="st3" x1="64.1" y1="162.1" x2="50.6" y2="148.6"/>
		</g>
		<polyline class="st1" points="24.3,155.7 24.3,125.9 29.1,121.1 29.1,111.7 		"/>
		<polyline class="st1" points="18.4,155 18.4,123 22.2,119.2 22.2,104.2 		"/>
		<g class="st2">
			<circle class="st3" cx="17.3" cy="112.8" r="1.1"/>
			<polyline class="st3" points="2,146 9.7,138.3 9.7,120.4 16.4,113.7 			"/>
		</g>
		<g class="st2">
			<circle class="st3" cx="67.7" cy="57.5" r="1.1"/>
			<polyline class="st3" points="87.6,11.4 78.7,20.4 78.7,46.5 68.5,56.7 			"/>
		</g>
		<polyline class="st1" points="78.7,36 72.8,30.2 72.8,1.8 		"/>
		<g class="st2">
			<circle class="st3" cx="63.4" cy="39.4" r="1.1"/>
			<polyline class="st3" points="67.5,1.1 67.5,35.3 64.2,38.6 			"/>
		</g>
		<line class="st1" x1="88.8" y1="48.3" x2="80.5" y2="56.6"/>
	</g>
	<g>
		<g transform="matrix(0.66491,0.66491,-0.66491,0.66491,299.774,-106.885)">
			<path class="st4" d="M-40.4,312.5c0.3-0.3,0.3-0.8,0-1.1l-3.8-3.8c-0.3-0.3-0.8-0.3-1.1,0l-3.1,3.1c-0.5,0.5-0.6,1.3-0.3,1.9
				l-8,8.1l0,0c-2.3,0.8-4.2,2.4-5.5,4.4l-3.7,5.6l-2.1,2.1c-0.6-0.6-1.7-0.6-2.3,0l-3.1,3.1c-0.3,0.3-0.3,0.8,0,1.1l3.8,3.7
				c0.3,0.3,0.8,0.3,1.1,0c0.3-0.3,0.3-0.8,0-1.1l-3.2-3.1l2.5-2.5l11,10.9l-2.5,2.5l-3.1-3.1c-0.3-0.3-0.8-0.3-1.1,0
				c-0.3,0.3-0.3,0.8,0,1.1l3.7,3.7c0.3,0.3,0.8,0.3,1.1,0l3.1-3.1c0.6-0.6,0.6-1.7,0-2.3c0.3-0.2,0.7-0.3,1.1-0.4l0.5-0.1
				c0.5,0.4,1.2,0.6,1.9,0.5c0.6-0.1,1.2-0.3,1.6-0.8c0.1,0,0.1-0.1,0.1-0.1c0.5,0.4,1.2,0.6,1.8,0.5c0.6-0.1,1.2-0.3,1.6-0.8
				c0.1,0,0.1-0.1,0.1-0.1c0.5,0.4,1.2,0.6,1.8,0.5c0.6-0.1,1.2-0.3,1.6-0.8c0.1,0,0.1-0.1,0.1-0.1c0.5,0.4,1.2,0.6,1.8,0.5
				c0.6-0.1,1.2-0.3,1.6-0.8c0.1,0,0.1-0.1,0.2-0.2c0.4-0.5,0.6-1.2,0.5-1.9l-0.1-1c0-0.3-0.1-0.6-0.3-0.9c0.4-0.1,0.8-0.3,1.1-0.7
				l0,0c0.5-0.5,0.8-1.2,0.7-1.9c0-0.4-0.1-0.7-0.3-1.1l0.4,0c0.7,0,1.4-0.3,1.9-0.8c0.5-0.5,0.8-1.2,0.8-1.9c0-0.4-0.1-0.8-0.3-1.2
				c0.4-0.1,0.7-0.3,1-0.6c0.5-0.5,0.8-1.2,0.8-1.9c0-0.7-0.3-1.4-0.8-1.9c-0.5-0.5-1.2-0.8-1.9-0.8l-0.8,0l0.5-1.8l0.5,0.5
				c0.6,0.6,1.7,0.6,2.3,0l3.1-3.1c0.3-0.3,0.3-0.8,0-1.1l-3.9-3.8c-0.3-0.3-0.8-0.3-1.1,0c-0.3,0.3-0.3,0.8,0,1.1l3.3,3.2l-2.5,2.5
				l-1.5-1.5l-9.6-9.4l2.5-2.5l3.3,3.2C-41.3,312.8-40.8,312.8-40.4,312.5z M-52.9,340.1l0.1,1c0.1,0.5-0.3,1-0.8,1
				c-0.5,0-1-0.3-1.1-0.9l-0.1-1c0-0.2,0-0.5,0.2-0.7l0.1-0.1c0.1-0.2,0.4-0.3,0.6-0.3C-53.5,339.1-53,339.5-52.9,340.1z
				 M-49.4,339.7l0.1,1c0.1,0.5-0.3,1-0.8,1c-0.2,0-0.5-0.1-0.7-0.2c-0.2-0.2-0.3-0.4-0.4-0.6l-0.1-1c0-0.2,0-0.5,0.2-0.7l0.1-0.1
				c0.1-0.2,0.4-0.3,0.6-0.3c0.2,0,0.5,0.1,0.7,0.2C-49.6,339.2-49.5,339.5-49.4,339.7z M-45.9,339.4l0.1,1c0,0.2,0,0.5-0.2,0.7
				c-0.2,0.2-0.4,0.3-0.6,0.4c-0.2,0-0.5-0.1-0.7-0.2c-0.2-0.2-0.3-0.4-0.4-0.6l-0.1-1c0-0.3,0.1-0.6,0.3-0.8
				c0.1-0.2,0.4-0.3,0.6-0.3C-46.4,338.5-46,338.8-45.9,339.4z M-42.4,339l0.1,1c0,0.2,0,0.5-0.2,0.7c-0.2,0.2-0.4,0.3-0.6,0.4
				c-0.5,0-1-0.3-1.1-0.9l-0.1-1c0-0.2,0-0.5,0.2-0.7l0.1-0.1c0.1-0.2,0.4-0.3,0.6-0.3c0.2,0,0.5,0.1,0.7,0.2
				C-42.5,338.6-42.4,338.8-42.4,339z M-36.5,327.8c0,0.6-0.4,1.1-1,1.1l-3.7,0.1L-45,329c-0.4,0-0.8,0.4-0.8,0.8s0.4,0.8,0.8,0.8
				l5.9-0.1c0.6,0,1.1,0.4,1.1,1.1c0,0.6-0.4,1.1-1,1.1l-5.9,0.1c0,0,0,0,0,0l-2.8,0c-0.4,0-0.8,0.4-0.8,0.8s0.4,0.8,0.8,0.8
				l5.9-0.1c0.6,0,1.1,0.4,1.1,1.1c0,0.3-0.1,0.6-0.3,0.8c-0.2,0.2-0.4,0.3-0.8,0.3l-1.6,0c0,0-0.1,0-0.1,0l0,0
				c-0.7,0.1-1.3,0.4-1.7,0.9c-0.5-0.4-1.2-0.6-1.8-0.5c-0.7,0.1-1.3,0.4-1.7,0.9c-0.5-0.4-1.2-0.6-1.8-0.5
				c-0.7,0.1-1.3,0.4-1.7,0.9c-0.5-0.4-1.2-0.6-1.8-0.5c-0.7,0.1-1.3,0.4-1.7,0.9c-0.4,0.5-0.6,1.2-0.5,1.9l0.1,1c0,0.1,0,0.2,0,0.3
				c-0.6,0.1-1.3,0.4-1.8,0.8l-8.7-8.6l2.1-2.2c0.1,0,0.1-0.1,0.1-0.1l3.7-5.6c0.6-1,1.4-1.8,2.3-2.4c-0.3,0.9-0.5,1.8-0.5,2.7
				l0.1,8.7c0,1.6,1.3,2.9,2.9,2.9c0.8,0,1.5-0.3,2.1-0.9c0.3-0.3,0.6-0.8,0.7-1.3l1.9-7.1l1.5-1.6l12.3-0.1c0.3,0,0.6,0.1,0.8,0.3
				C-36.6,327.3-36.5,327.6-36.5,327.8z M-39.2,322.1l-0.9,3.1l-8.1,0.1l0.4-0.4c0.3-0.3,0.3-0.8,0-1.1c-0.3-0.3-0.8-0.3-1.1,0
				l-3.7,3.8c-0.1,0.1-0.2,0.2-0.2,0.3l-1.9,7.3c-0.1,0.5-0.7,0.9-1.2,0.9c-0.7,0-1.2-0.6-1.2-1.2l-0.1-8.7c0-1.6,0.6-3.2,1.7-4.3
				l8-8.1L-39.2,322.1z"/>
		</g>
		<g transform="matrix(0.66491,0.66491,-0.66491,0.66491,299.774,-106.885)">
			<path class="st4" d="M-38.8,313.3c-0.2,0-0.4,0.1-0.6,0.2s-0.2,0.4-0.2,0.6c0,0.2,0.1,0.4,0.2,0.6c0.2,0.1,0.4,0.2,0.6,0.2
				c0.2,0,0.4-0.1,0.6-0.2c0.1-0.2,0.2-0.4,0.2-0.6c0-0.2-0.1-0.4-0.2-0.6C-38.4,313.5-38.6,313.4-38.8,313.3z"/>
		</g>
		<g transform="matrix(0.66491,0.66491,-0.66491,0.66491,299.774,-106.885)">
			<path class="st4" d="M-66.7,341.6c-0.2,0-0.4,0.1-0.6,0.2c-0.1,0.2-0.2,0.4-0.2,0.6c0,0.2,0.1,0.4,0.2,0.6
				c0.2,0.1,0.4,0.2,0.6,0.2s0.4-0.1,0.6-0.2c0.1-0.2,0.2-0.4,0.2-0.6c0-0.2-0.1-0.4-0.2-0.6C-66.2,341.7-66.4,341.6-66.7,341.6z"/>
		</g>
	</g>
</g>
</svg>
