<?xml version="1.0" encoding="utf-8"?>
<!-- Generator: Adobe Illustrator 24.0.3, SVG Export Plug-In . SVG Version: 6.00 Build 0)  -->
<svg version="1.1" id="Layer_1" xmlns:serif="http://www.serif.com/"
	 xmlns="http://www.w3.org/2000/svg" xmlns:xlink="http://www.w3.org/1999/xlink" x="0px" y="0px" width="90px" height="155.6px"
	 viewBox="0 0 90 155.6" style="enable-background:new 0 0 90 155.6;" xml:space="preserve">
<style type="text/css">
	.st0{fill:#A6CE39;}
	.st1{clip-path:url(#SVGID_2_);fill:none;stroke:#00FFFF;stroke-width:0.4316;stroke-miterlimit:10;}
	.st2{clip-path:url(#SVGID_2_);}
	.st3{fill:none;stroke:#00FFFF;stroke-width:0.4316;stroke-miterlimit:10;}
	.st4{fill:#00FFFF;}
</style>
<g>
	<path class="st0" d="M3.2,143.6V12c0-5.3,4.3-9.5,9.5-9.5h64.6c5.3,0,9.5,4.3,9.5,9.5v131.6c0,5.3-4.3,9.5-9.5,9.5H12.7
		C7.4,153.1,3.2,148.9,3.2,143.6z"/>
	<g>
		<defs>
			<path id="SVGID_1_" d="M3.2,143.6V12c0-5.3,4.3-9.5,9.5-9.5h64.6c5.3,0,9.5,4.3,9.5,9.5v131.6c0,5.3-4.3,9.5-9.5,9.5H12.7
				C7.4,153.1,3.2,148.9,3.2,143.6z"/>
		</defs>
		<clipPath id="SVGID_2_">
			<use xlink:href="#SVGID_1_"  style="overflow:visible;"/>
		</clipPath>
		<circle class="st1" cx="22.2" cy="102.6" r="1.1"/>
		<g class="st2">
			<circle class="st3" cx="79.7" cy="57" r="1.1"/>
		</g>
		<circle class="st1" cx="29.1" cy="110.1" r="1.1"/>
		<g class="st2">
			<g>
				<polyline class="st3" points="6.6,-17.7 27,2.7 27,41.6 				"/>
				<circle class="st3" cx="27" cy="42.7" r="1.1"/>
			</g>
			<circle class="st3" cx="20.8" cy="51.3" r="1.1"/>
			<circle class="st3" cx="12.7" cy="59.6" r="1.1"/>
			<circle class="st3" cx="40.2" cy="7.3" r="1.1"/>
			<polyline class="st3" points="6.1,-13.6 24.2,4.5 24.2,38.8 20.7,42.3 20.7,50.2 			"/>
			<circle class="st3" cx="21.1" cy="31.8" r="1.1"/>
			<circle class="st3" cx="43.5" cy="36.6" r="1.1"/>
			<polyline class="st3" points="6.6,-8.4 21.1,6.1 21.1,30.7 			"/>
			<polyline class="st3" points="27,12 43.5,28.5 43.5,35.5 			"/>
			<polyline class="st3" points="32.6,17.7 32.6,11.2 27,5.5 			"/>
			<polyline class="st3" points="-0.1,-2.6 9.4,7 9.4,26.9 5.5,30.8 5.5,52.4 12,58.9 			"/>
			<polyline class="st3" points="5.5,39.5 13.2,31.8 13.2,1.7 4.5,-7 			"/>
			<line class="st3" x1="25.8" y1="-7" x2="39.3" y2="6.4"/>
		</g>
		<g class="st2">
			<g>
				<polyline class="st3" points="83.3,172.2 63,151.9 63,112.9 				"/>
				<circle class="st3" cx="63" cy="111.8" r="1.1"/>
			</g>
			<circle class="st3" cx="69.1" cy="103.2" r="1.1"/>
			<circle class="st3" cx="77.2" cy="94.9" r="1.1"/>
			<circle class="st3" cx="49.7" cy="147.2" r="1.1"/>
			<polyline class="st3" points="83.8,168.2 65.7,150.1 65.7,115.7 69.2,112.3 69.2,104.3 			"/>
			<circle class="st3" cx="68.8" cy="122.7" r="1.1"/>
			<circle class="st3" cx="46.4" cy="117.9" r="1.1"/>
			<polyline class="st3" points="83.3,163 68.8,148.5 68.8,123.8 			"/>
			<polyline class="st3" points="63,142.6 46.4,126.1 46.4,119 			"/>
			<polyline class="st3" points="57.3,136.9 57.3,143.4 62.9,149 			"/>
			<polyline class="st3" points="90,157.2 80.5,147.6 80.5,127.7 84.4,123.8 84.4,102.1 77.9,95.6 			"/>
			<polyline class="st3" points="84.4,115 76.7,122.7 76.7,152.8 85.4,161.6 			"/>
			<line class="st3" x1="64.1" y1="161.6" x2="50.6" y2="148.1"/>
		</g>
		<polyline class="st1" points="24.3,155.2 24.3,125.4 29.1,120.6 29.1,111.2 		"/>
		<polyline class="st1" points="18.4,154.5 18.4,122.5 22.2,118.7 22.2,103.7 		"/>
		<g class="st2">
			<circle class="st3" cx="17.3" cy="112.3" r="1.1"/>
			<polyline class="st3" points="2,145.5 9.7,137.8 9.7,119.9 16.4,113.2 			"/>
		</g>
		<g class="st2">
			<circle class="st3" cx="67.7" cy="57" r="1.1"/>
			<polyline class="st3" points="87.6,10.9 78.7,19.9 78.7,46 68.5,56.2 			"/>
		</g>
		<polyline class="st1" points="78.7,35.5 72.8,29.7 72.8,1.3 		"/>
		<g class="st2">
			<circle class="st3" cx="63.4" cy="38.9" r="1.1"/>
			<polyline class="st3" points="67.5,0.6 67.5,34.8 64.2,38.1 			"/>
		</g>
		<line class="st1" x1="88.8" y1="47.8" x2="80.5" y2="56.1"/>
	</g>
	<g transform="matrix(0.66491,0.66491,-0.66491,0.66491,299.774,-106.885)">
		<path class="st4" d="M-28.4,336.9l-0.1-12.8c0-0.2-0.1-0.4-0.2-0.5c-0.1-0.1-0.3-0.2-0.5-0.2l-4.1,0.2c-0.4,0-0.7,0.3-0.7,0.7v0.3
			h-1.6l-1-1.6c-0.8-1.4-2.4-2.2-4-2.2l-4.9,0.4l0-5.3c0-1.5-0.8-2.9-2.2-3.6c-0.1,0-0.2-0.1-0.3-0.1l-0.3,0v-0.7h1.4
			c0.4,0,0.7-0.3,0.7-0.7l0-4.3c0-0.4-0.3-0.7-0.7-0.7l-13.9,0.1c-0.4,0-0.7,0.3-0.7,0.7l0,4.3c0,0.4,0.3,0.7,0.7,0.7h0.5v2.5
			l-1.6,1c-1.4,0.8-2.2,2.3-2.2,3.9l-0.1,9.2l-4.1,4.2c-1,1-1.3,2.4-0.8,3.7c0.2,0.7,0,1.5-0.5,2l-0.1,0.1l-0.5-0.5
			c-0.3-0.3-0.8-0.3-1.1,0l-2.7,2.7c-0.3,0.3-0.3,0.8,0,1.1l10.2,10.1c0.3,0.3,0.8,0.3,1.1,0l2.7-2.7c0.3-0.3,0.3-0.8,0-1.1
			l-0.5-0.5l0.5-0.5l1.6,0.1c1.4,0.2,2.9-0.3,3.9-1.3l6.2-6.3c0.7,0.5,1.6,0.8,2.5,0.8l5.9-0.3c1.3,0,2.5-0.7,3.1-1.9
			c0.2-0.3,1.5-0.7,2.7-0.8c0,0.2,0.1,0.4,0.2,0.5c0.1,0.1,0.3,0.2,0.5,0.2h4.3C-28.7,337.6-28.4,337.3-28.4,336.9z M-60.1,310.1
			v-2.8l12.4-0.1v2.8L-60.1,310.1z M-62.7,326.7l0.1-7.8c0-1.1,0.5-2.1,1.5-2.7l1.9-1.2c0.2-0.1,0.4-0.4,0.4-0.6v-3l9,0v1.4
			c0,0.4,0.3,0.7,0.7,0.7l0.8,0.1c0.8,0.4,1.3,1.3,1.3,2.1l0,5.9c-0.4,0-0.9,0.1-1.3,0.3c-0.2-0.5-0.4-1-0.9-1.3
			c-1.1-0.8-2.7-0.7-3.6,0.3l-5.6,5.6C-59.7,325.8-61.4,325.9-62.7,326.7z M-63.3,349.9l-9.1-9l1.6-1.6l9.1,9L-63.3,349.9z
			 M-55.7,344.3c-0.7,0.7-1.7,1-2.7,0.9l-2-0.1c-0.2,0-0.4,0.1-0.6,0.2l-0.8,0.8l-7-6.9l0.1-0.1c0.9-0.9,1.2-2.2,0.8-3.5
			c-0.2-0.7-0.1-1.6,0.5-2.2l5.1-5.2c0.7-0.7,1.7-0.8,2.6-0.4l-3.3,3.4l1.1,1.1l10-10.1c0.4-0.4,1.1-0.5,1.6-0.2
			c0.2,0.2,0.4,0.5,0.4,0.8c0,0.3-0.1,0.6-0.3,0.8l-8,8l1.1,1.1l9-9.1c0.4-0.4,1.2-0.4,1.6,0c0,0,0,0,0.1,0.1
			c0.4,0.5,0.3,1.2-0.2,1.6l-8.9,9l1.1,1.1l7.4-7.5c0.4-0.4,1.2-0.4,1.6,0c0,0,0,0,0.1,0.1c0.4,0.5,0.3,1.2-0.2,1.6l-7.2,7.4
			l1.1,1.1l4.4-4.5c0.4,0.8,0.2,1.9-0.4,2.6L-55.7,344.3z M-38.3,337c-0.3,0.7-1,1.1-1.8,1.1l-5.9,0.3c-0.5,0-1-0.1-1.4-0.4l0.7-0.7
			c1.3-1.3,1.5-3.3,0.4-4.8l1.8-1.8c1-1,1.1-2.5,0.2-3.7c-0.3-0.4-0.7-0.6-1.2-0.8c0.8-1,0.9-2.4,0.1-3.5c0,0,0,0-0.1-0.1l4.7-0.4
			c1.1,0,2.1,0.5,2.7,1.5l1.2,1.9c0.1,0.2,0.4,0.4,0.6,0.4h2l-0.1,9.3C-35.3,335.4-37.6,335.8-38.3,337z M-32.7,336.1l0.1-11.2
			l2.6-0.1l0.1,11.3H-32.7z"/>
	</g>
</g>
</svg>
