<?xml version="1.0" encoding="utf-8"?>
<!-- Generator: Adobe Illustrator 24.0.3, SVG Export Plug-In . SVG Version: 6.00 Build 0)  -->
<svg version="1.1" id="Layer_1" xmlns:serif="http://www.serif.com/"
	 xmlns="http://www.w3.org/2000/svg" xmlns:xlink="http://www.w3.org/1999/xlink" x="0px" y="0px" width="90px" height="155.6px"
	 viewBox="0 0 90 155.6" style="enable-background:new 0 0 90 155.6;" xml:space="preserve">
<style type="text/css">
	.st0{fill:#00A34B;}
	.st1{clip-path:url(#SVGID_2_);fill:none;stroke:#00FFFF;stroke-width:0.4316;stroke-miterlimit:10;}
	.st2{clip-path:url(#SVGID_2_);}
	.st3{fill:none;stroke:#00FFFF;stroke-width:0.4316;stroke-miterlimit:10;}
	.st4{fill:#00FFFF;}
</style>
<g>
	<path class="st0" d="M3.2,143.6V12c0-5.3,4.3-9.5,9.5-9.5h64.6c5.3,0,9.5,4.3,9.5,9.5v131.6c0,5.3-4.3,9.5-9.5,9.5H12.7
		C7.4,153.1,3.2,148.9,3.2,143.6z"/>
	<g>
		<defs>
			<path id="SVGID_1_" d="M3.2,143.6V12c0-5.3,4.3-9.5,9.5-9.5h64.6c5.3,0,9.5,4.3,9.5,9.5v131.6c0,5.3-4.3,9.5-9.5,9.5H12.7
				C7.4,153.1,3.2,148.9,3.2,143.6z"/>
		</defs>
		<clipPath id="SVGID_2_">
			<use xlink:href="#SVGID_1_"  style="overflow:visible;"/>
		</clipPath>
		<circle class="st1" cx="22.2" cy="102.6" r="1.1"/>
		<g class="st2">
			<circle class="st3" cx="79.7" cy="57" r="1.1"/>
		</g>
		<circle class="st1" cx="29.1" cy="110.1" r="1.1"/>
		<g class="st2">
			<g>
				<polyline class="st3" points="6.6,-17.7 27,2.7 27,41.6 				"/>
				<circle class="st3" cx="27" cy="42.7" r="1.1"/>
			</g>
			<circle class="st3" cx="20.8" cy="51.3" r="1.1"/>
			<circle class="st3" cx="12.7" cy="59.6" r="1.1"/>
			<circle class="st3" cx="40.2" cy="7.3" r="1.1"/>
			<polyline class="st3" points="6.1,-13.6 24.2,4.5 24.2,38.8 20.7,42.3 20.7,50.2 			"/>
			<circle class="st3" cx="21.1" cy="31.8" r="1.1"/>
			<circle class="st3" cx="43.5" cy="36.6" r="1.1"/>
			<polyline class="st3" points="6.6,-8.4 21.1,6.1 21.1,30.7 			"/>
			<polyline class="st3" points="27,12 43.5,28.5 43.5,35.5 			"/>
			<polyline class="st3" points="32.6,17.7 32.6,11.2 27,5.5 			"/>
			<polyline class="st3" points="-0.1,-2.6 9.4,7 9.4,26.9 5.5,30.8 5.5,52.4 12,58.9 			"/>
			<polyline class="st3" points="5.5,39.5 13.2,31.8 13.2,1.7 4.5,-7 			"/>
			<line class="st3" x1="25.8" y1="-7" x2="39.3" y2="6.4"/>
		</g>
		<g class="st2">
			<g>
				<polyline class="st3" points="83.3,172.2 63,151.9 63,112.9 				"/>
				<circle class="st3" cx="63" cy="111.8" r="1.1"/>
			</g>
			<circle class="st3" cx="69.1" cy="103.2" r="1.1"/>
			<circle class="st3" cx="77.2" cy="94.9" r="1.1"/>
			<circle class="st3" cx="49.7" cy="147.2" r="1.1"/>
			<polyline class="st3" points="83.8,168.2 65.7,150.1 65.7,115.7 69.2,112.3 69.2,104.3 			"/>
			<circle class="st3" cx="68.8" cy="122.7" r="1.1"/>
			<circle class="st3" cx="46.4" cy="117.9" r="1.1"/>
			<polyline class="st3" points="83.3,163 68.8,148.5 68.8,123.8 			"/>
			<polyline class="st3" points="63,142.6 46.4,126.1 46.4,119 			"/>
			<polyline class="st3" points="57.3,136.9 57.3,143.4 62.9,149 			"/>
			<polyline class="st3" points="90,157.2 80.5,147.6 80.5,127.7 84.4,123.8 84.4,102.1 77.9,95.6 			"/>
			<polyline class="st3" points="84.4,115 76.7,122.7 76.7,152.8 85.4,161.6 			"/>
			<line class="st3" x1="64.1" y1="161.6" x2="50.6" y2="148.1"/>
		</g>
		<polyline class="st1" points="24.3,155.2 24.3,125.4 29.1,120.6 29.1,111.2 		"/>
		<polyline class="st1" points="18.4,154.5 18.4,122.5 22.2,118.7 22.2,103.7 		"/>
		<g class="st2">
			<circle class="st3" cx="17.3" cy="112.3" r="1.1"/>
			<polyline class="st3" points="2,145.5 9.7,137.8 9.7,119.9 16.4,113.2 			"/>
		</g>
		<g class="st2">
			<circle class="st3" cx="67.7" cy="57" r="1.1"/>
			<polyline class="st3" points="87.6,10.9 78.7,19.9 78.7,46 68.5,56.2 			"/>
		</g>
		<polyline class="st1" points="78.7,35.5 72.8,29.7 72.8,1.3 		"/>
		<g class="st2">
			<circle class="st3" cx="63.4" cy="38.9" r="1.1"/>
			<polyline class="st3" points="67.5,0.6 67.5,34.8 64.2,38.1 			"/>
		</g>
		<line class="st1" x1="88.8" y1="47.8" x2="80.5" y2="56.1"/>
	</g>
	<g transform="matrix(0.66491,0.66491,-0.66491,0.66491,299.774,-106.885)">
		<path class="st4" d="M-59.4,312c-5.6,5-6.1,13.5-1.1,19.1c2.1,2.3,4.7,3.8,7.5,4.3l-0.2,3.9l0,0.1c-0.2,0.1-0.4,0.3-0.6,0.4
			c-0.7,0.6-1.1,1.4-1.1,2.3l-0.6,11.5c-0.1,0.9,0.2,1.8,0.8,2.4c0.6,0.7,1.4,1.1,2.3,1.1c0.9,0.1,1.8-0.2,2.4-0.8
			c0.7-0.6,1.1-1.4,1.1-2.3l0.6-11.5c0.1-0.9-0.2-1.8-0.8-2.4c-0.2-0.2-0.3-0.3-0.5-0.5l0-0.1l0.2-3.9c2.9-0.2,5.7-1.3,8-3.4
			c5.6-5,6.1-13.5,1.1-19.1C-45.3,307.5-53.9,307-59.4,312z M-50.1,353.9c0,0.6-0.3,1.1-0.7,1.4c-0.4,0.4-1,0.6-1.5,0.5
			c-0.6,0-1.1-0.3-1.4-0.7c-0.4-0.4-0.6-1-0.5-1.5l0.6-10.4l4.1,0.2L-50.1,353.9z M-49.5,342.2l-4.1-0.2c0.1-0.5,0.3-1,0.7-1.3
			c0.4-0.4,0.9-0.6,1.5-0.5s1.1,0.3,1.4,0.7C-49.7,341.3-49.5,341.7-49.5,342.2z M-50.8,339c-0.2,0-0.4-0.1-0.6-0.1l-0.6,0l0.2-3.4
			c0.4,0,0.8,0.1,1.1,0.1L-50.8,339z M-42.2,331.3c-5.1,4.5-12.8,4-17.3-1.1c-4.5-5.1-4.1-12.8,1-17.3c5.1-4.5,12.8-4,17.3,1.1
			C-36.8,319-37.2,326.8-42.2,331.3z"/>
	</g>
</g>
</svg>
