<?xml version="1.0" encoding="utf-8"?>
<!-- Generator: Adobe Illustrator 24.0.3, SVG Export Plug-In . SVG Version: 6.00 Build 0)  -->
<svg version="1.1" id="Layer_1" xmlns:serif="http://www.serif.com/"
	 xmlns="http://www.w3.org/2000/svg" xmlns:xlink="http://www.w3.org/1999/xlink" x="0px" y="0px" width="42.5px" height="42.5px"
	 viewBox="0 0 42.5 42.5" style="enable-background:new 0 0 42.5 42.5;" xml:space="preserve">
<style type="text/css">
	.st0{fill:#00FFFF;}
</style>
<g transform="matrix(0.66491,0.66491,-0.66491,0.66491,299.774,-106.885)">
	<path class="st0" d="M-89.6,311.9l-0.1-11.9c0-0.2-0.1-0.4-0.2-0.5c-0.1-0.1-0.3-0.2-0.5-0.2l-3.8,0.2c-0.4,0-0.7,0.3-0.7,0.7v0.3
		h-1.5l-0.9-1.5c-0.7-1.3-2.2-2.1-3.7-2.1l-4.6,0.4v-4.9c0-1.4-0.7-2.7-2.1-3.4c-0.1,0-0.2-0.1-0.3-0.1h-0.3v-0.7h1.3
		c0.4,0,0.7-0.3,0.7-0.7v-4c0-0.4-0.3-0.7-0.7-0.7l-13,0.1c-0.4,0-0.7,0.3-0.7,0.7v4c0,0.4,0.3,0.7,0.7,0.7h0.5v2.3l-1.5,0.9
		c-1.3,0.7-2.1,2.1-2.1,3.6l-0.1,8.6l-3.8,3.9c-0.9,0.9-1.2,2.2-0.7,3.4c0.2,0.7,0,1.4-0.5,1.9l-0.1,0.1l-0.5-0.5
		c-0.3-0.3-0.7-0.3-1,0l-2.5,2.5c-0.3,0.3-0.3,0.7,0,1l9.5,9.4c0.3,0.3,0.7,0.3,1,0l2.5-2.5c0.3-0.3,0.3-0.7,0-1l-0.5-0.5l0.5-0.5
		l1.5,0.1c1.3,0.2,2.7-0.3,3.6-1.2l5.8-5.9c0.7,0.5,1.5,0.7,2.3,0.7l5.5-0.3c1.2,0,2.3-0.7,2.9-1.8c0.2-0.3,1.4-0.7,2.5-0.7
		c0,0.2,0.1,0.4,0.2,0.5c0.1,0.1,0.3,0.2,0.5,0.2h4C-89.9,312.6-89.6,312.3-89.6,311.9z M-119.2,286.9v-2.6l11.6-0.1v2.6
		L-119.2,286.9z M-121.6,302.4l0.1-7.3c0-1,0.5-2,1.4-2.5l1.8-1.1c0.2-0.1,0.4-0.4,0.4-0.6v-2.8h8.4v1.3c0,0.4,0.3,0.7,0.7,0.7
		l0.7,0.1c0.7,0.4,1.2,1.2,1.2,2v5.5c-0.4,0-0.8,0.1-1.2,0.3c-0.2-0.5-0.4-0.9-0.8-1.2c-1-0.7-2.5-0.7-3.4,0.3l-5.2,5.2
		C-118.8,301.6-120.4,301.6-121.6,302.4z M-122.2,324l-8.5-8.4l1.5-1.5l8.5,8.4L-122.2,324z M-115.1,318.8c-0.7,0.7-1.6,0.9-2.5,0.8
		l-1.9-0.1c-0.2,0-0.4,0.1-0.6,0.2l-0.7,0.7l-6.5-6.4l0.1-0.1c0.8-0.8,1.1-2.1,0.7-3.3c-0.2-0.7-0.1-1.5,0.5-2.1l4.8-4.8
		c0.7-0.7,1.6-0.7,2.4-0.4l-3.1,3.2l1,1l9.3-9.4c0.4-0.4,1-0.5,1.5-0.2c0.2,0.2,0.4,0.5,0.4,0.7s-0.1,0.6-0.3,0.7l-7.5,7.5l1,1
		l8.4-8.5c0.4-0.4,1.1-0.4,1.5,0c0,0,0,0,0.1,0.1c0.4,0.5,0.3,1.1-0.2,1.5l-8.3,8.4l1,1l6.9-7c0.4-0.4,1.1-0.4,1.5,0
		c0,0,0,0,0.1,0.1c0.4,0.5,0.3,1.1-0.2,1.5l-6.7,6.9l1,1l4.1-4.2c0.4,0.7,0.2,1.8-0.4,2.4L-115.1,318.8z M-98.9,312
		c-0.3,0.7-0.9,1-1.7,1l-5.5,0.3c-0.5,0-0.9-0.1-1.3-0.4l0.7-0.7c1.2-1.2,1.4-3.1,0.4-4.5l1.7-1.7c0.9-0.9,1-2.3,0.2-3.4
		c-0.3-0.4-0.7-0.6-1.1-0.7c0.7-0.9,0.8-2.2,0.1-3.3c0,0,0,0-0.1-0.1l4.4-0.4c1,0,2,0.5,2.5,1.4l1.1,1.8c0.1,0.2,0.4,0.4,0.6,0.4
		h1.9l-0.1,8.7C-96.1,310.5-98.2,310.9-98.9,312z M-93.6,311.2l0.1-10.4l2.4-0.1l0.1,10.5L-93.6,311.2L-93.6,311.2z"/>
</g>
</svg>
