<?xml version="1.0" encoding="utf-8"?>
<!-- Generator: Adobe Illustrator 24.0.3, SVG Export Plug-In . SVG Version: 6.00 Build 0)  -->
<svg version="1.1" id="Layer_1" xmlns:serif="http://www.serif.com/"
	 xmlns="http://www.w3.org/2000/svg" xmlns:xlink="http://www.w3.org/1999/xlink" x="0px" y="0px" width="417px" height="662.1px"
	 viewBox="0 0 417 662.1" style="enable-background:new 0 0 417 662.1;" xml:space="preserve">
<style type="text/css">
	.st0{fill:#98393E;}
	.st1{fill:#882C35;}
	.st2{fill:#75232F;}
	.st3{fill:#F1EDDC;}
	.st4{fill:#DCD1BE;}
	.st5{fill:#4D4D4D;}
	.st6{fill:#333333;}
	.st7{fill:#FFB781;}
	.st8{fill:#FF9466;}
	.st9{fill:#E97B59;}
	.st10{fill:#FFFFFF;}
	.st11{fill:#39170B;}
	.st12{fill:#542C23;}
	.st13{fill:#FFF4EA;}
</style>
<g>
	<path class="st0" d="M109.3,429.7l172-99.5c0,0,30.6-284.5-94.4-293.2C146.9-2.4-0.9,32.2,6,149.7
		C13,267.3,109.3,429.7,109.3,429.7z"/>
	<path class="st1" d="M136.6,143.9C88.2,125.6,53.8,90.7,45,55.9C20.5,77.1,3.6,108.2,6,149.7c7,117.5,109.2,297,109.2,297l172-99.5
		c0,0,4.3-131.9-14.5-210.2C243.5,159.1,186.7,162.9,136.6,143.9z"/>
	<path class="st2" d="M168.5,186.2C122.3,197.3,135.3,336.7,117,447l154.6-85C250.3,296.2,210.2,176.2,168.5,186.2z"/>
	<g>
		<path class="st3" d="M392.1,512.6c-8.3-32-128.7-203.4-170.6-203.3c-19.5,0,106.2,175.4,125.6,221.6
			C354.4,548.3,398.8,538.3,392.1,512.6z"/>
		<path class="st4" d="M368.7,516.4c-15.1-35.9-139.1-207.1-147.2-207.1c-19.5,0,106.2,175.4,125.6,221.6c4.8,11.4,25.4,11,37.2,2.2
			C379.1,532,370.6,520.9,368.7,516.4z"/>
		<path class="st5" d="M383,546.7c6-0.5,24.6-10.5,24-23.6c-0.6-13.1-26-35.6-48.2-23.1c-8,4.5-23.6,16.4-22.8,17.2
			C336,517.2,351.3,549.5,383,546.7z"/>
		<path class="st6" d="M398.1,510.6c0.1,0.9,0,1.8-0.2,2.7c-1.9,6.6-12.9,9.2-24.6,5.8c-11.5-3.3-19.3-11.2-17.7-17.7
			c-8.7,4.5-20.4,15.1-19.6,15.8c0,0,15.3,32.3,47,29.5c6-0.5,24.6-10.5,24-23.6C406.7,518.9,403.2,514.5,398.1,510.6z"/>
	</g>
	<path class="st5" d="M120.9,1078.4l209.2-46.3c0,0-10.3-336.1-53.8-387c-43.5-50.9-82.2-79.3-93.1-33.1
		C172.3,658.1,81.3,638.4,120.9,1078.4z"/>
	<path class="st6" d="M181.7,981.9c-9.2-186.4,20-341.9,66.4-367.1c-10.5-49.1-54-47.3-64.9-1.1c-10.8,46.2-102,24.6-62.4,464.7
		l69.9-15.5C185.7,1026.3,183.7,1022.8,181.7,981.9z"/>
	<path class="st4" d="M159.7,645.4c13.6-71.9-62.5-281.9-47.7-313.3c0,0,155.6,54.9,157.2,96.3c3.2,81-0.1,178.2,8.9,218.4
		L159.7,645.4z"/>
	<path class="st3" d="M110.7,334.9c-0.3,30.7,26.8,157,37.9,165.6c26.5,20.4,124.5,8.4,137.5-19.1c10.6-22.5-48.3-159.9-55.8-165.8
		C222.9,309.6,110.9,319.6,110.7,334.9z"/>
	<path class="st4" d="M175.1,482.9c-11.4-8.2-64.3-152-64.3-147.9c-0.3,30.7,24.9,148.5,37.8,163.8c19.8,23.5,148,10.8,137.2-26.3
		C249.3,488.4,196.8,498.5,175.1,482.9z"/>
	<path class="st7" d="M130.8,323.9c9.8,35.5,27.7,122.1,86.9,118.3c59.2-3.8-4.6-129.2-4.6-129.2
		C179.9,311.9,151.8,314.3,130.8,323.9z"/>
	<path class="st8" d="M213.1,313c-0.7,0-1.4,0-2.1,0c11.5,22.9,57.1,122.3,2.9,125.8c-13.5,0.9-25.8-4.8-37-14.5
		c12.1,11.7,25.7,18.8,40.8,17.9C276.9,438.4,213.1,313,213.1,313z"/>
	<polygon class="st7" points="132.2,222.3 144.2,319.8 175.8,339.8 198.9,315.9 172,224.9 	"/>
	<path class="st7" d="M116.5,236.3c16.2,41.9,104.5,60.1,104.5,60.1s34.4-66.6,19.8-131.5c-10.7-47.3-29.5-89.6-85.9-74.2
		C108.2,103.3,87.3,161,116.5,236.3z"/>
	<path class="st1" d="M125,233.3c9.1-44.2,16.4-140.1-25-159.3c-29.1-13.5-33.4,73.9-7.2,123.8C103,217.2,125,233.3,125,233.3z"/>
	<path class="st7" d="M110.5,203.8c-17-6.2-35.7-5-30.6,11.1c5.1,16,34.5,25.6,48.7,28.3C142.8,245.9,116.6,206,110.5,203.8z"/>
	<path class="st9" d="M108.2,210c-9.3-3.4-19.6-2.7-16.8,6.1c2.8,8.8,18.9,14,26.7,15.5C125.9,233.1,111.6,211.2,108.2,210z"/>
	<path class="st7" d="M115.8,219c-7.5-2.7-15.7-2.2-13.5,4.9c2.2,7,15.2,11.3,21.4,12.5C130,237.6,118.5,220,115.8,219z"/>
	<path class="st0" d="M115.2,84.1c-11.3-17.6-29.1-26.4-39.7-19.5c-10.7,6.8-10.2,26.6,1.1,44.3c11.3,17.6,29.1,26.4,39.7,19.5
		C127,121.5,126.5,101.7,115.2,84.1z"/>
	<g>
		<path class="st9" d="M202,201.2c7.6,7.1,15.1,17.9,12.9,21.6c-2.2,3.6-16.6,6.7-17.9,6.2C195.6,228.3,202,201.2,202,201.2z"/>
		<path class="st7" d="M197.4,200.2c7.6,7.1,15.1,17.9,12.9,21.6c-2.2,3.6-16.6,6.7-17.9,6.2C191,227.3,197.4,200.2,197.4,200.2z"/>
		<g>
			<path class="st0" d="M240.9,148.7l1.1-2.2c-8.6-13-27.4-18.5-36.3-18.2l-0.8,6.3C211.9,133.4,231.1,137.9,240.9,148.7z"/>
		</g>
		<g>
			<path class="st0" d="M126.1,164.8c11.3-14.4,36.8-24,43.3-25.3l-2.2-6c-7.2,1.7-30.7,12-43.4,29.7L126.1,164.8z"/>
		</g>
		<g>
			<path class="st10" d="M173.2,186.5c2.2-3.9-4.9-15.3-17.3-16.8c-12.4-1.5-17,7.5-16.8,10.7c0.3,3.2,2.8,8.5,10.1,10.1
				c7.3,1.6,12.7-0.2,15.8-1C169,188.5,171.9,188.8,173.2,186.5z"/>
			<circle class="st11" cx="157.1" cy="177.4" r="10.4"/>
			<circle class="st10" cx="163.7" cy="179" r="4.2"/>
			<path class="st11" d="M173.5,183.6c0,0,0.4-6.2-8.2-12.6c-8.6-6.4-17.8-2.9-20.5-3c-2.7,0-5.4,1.3-4.4,1.9c0.9,0.5-1.1,3-3.2,3
				c-2.2-0.1,0.3,1.8,0.4,2.5c0.1,0.7-3.5,1.2-3.7,2c-0.1,0.8,2.5,2.1,2,2.4c-0.5,0.3-2.3,2.2-1.1,2.7c1.1,0.5,3.4,2.5,4.4,3.4
				c1,0.8,3.4,1.3,3.4,1.3s-3.4-4.4-2.5-8.1c0.9-3.7,4.3-8.1,11.2-8.5s11.6,2,15,4.1C169.5,176.7,173.5,183.6,173.5,183.6z"/>
		</g>
		<g>
			<path class="st10" d="M209.8,176.2c-3.2-2.8-0.3-15.2,10.3-20.4c10.7-5.2,17.6,1.4,18.3,4.4c0.8,3,0.1,8.5-6,12.2
				c-6,3.7-11.4,3.7-14.5,4C214.2,176.7,211.7,177.8,209.8,176.2z"/>
			<circle class="st11" cx="221.4" cy="163" r="9.9"/>
			<path class="st10" d="M223.3,165.6c0.4,2.1,2.4,3.6,4.5,3.2c2.1-0.4,3.6-2.4,3.2-4.5c-0.4-2.1-2.4-3.6-4.5-3.2
				C224.4,161.4,222.9,163.4,223.3,165.6z"/>
			<path class="st11" d="M208.7,173.6c0,0-2.3-5.4,3.5-13.8c5.8-8.4,15-8.1,17.5-9c2.4-0.9,5.2-0.5,4.5,0.3
				c-0.7,0.8,1.9,2.4,3.8,1.7c1.9-0.7,0.3,1.7,0.4,2.4c0.1,0.7,3.5-0.1,3.9,0.6c0.4,0.7-1.6,2.7-1,2.8c0.6,0.1,2.7,1.3,1.9,2.1
				c-0.8,0.8-2.3,3.3-2.9,4.4c-0.6,1.1-2.6,2.2-2.6,2.2s1.7-5-0.2-8c-2-3-6.4-5.9-12.6-4.2c-6.2,1.7-9.8,5.3-12.2,8.3
				C210.1,166.3,208.7,173.6,208.7,173.6z"/>
		</g>
		<path class="st12" d="M188.5,245.4c-1.8,0.2-3.3,1.2-4.2,2.7c-0.8,1.5-0.9,3.4-0.1,5c4.1,8.3,9.3,16.1,17.8,13.8
			c7.7-2.1,13-7.6,14-15.1c0.3-2.1-0.4-4.3-1.9-5.8c-1.5-1.6-3.6-2.4-5.7-2.2L188.5,245.4z"/>
		<path class="st13" d="M208.8,243.9c1.3-0.1,2.6,0.4,3.4,1.3c0.8,0.9,1,2.1,0.5,3.3c-2.4,5.9-5.4,6.5-12,6.9
			c-6.7,0.4-10.5,0.7-11.9-4.2c-0.4-1.4-0.1-2.9,0.9-4c1-1.2,2.5-2,4.1-2.1L208.8,243.9z"/>
	</g>
	<path class="st3" d="M15.8,530.7c0.2-28.8,60.4-196.8,113.7-206c18.8-3.3-62.1,171.3-69.4,214.3C57.4,555.2,15.7,553.7,15.8,530.7z
		"/>
	<path class="st4" d="M23.7,531.1c0.5-90.3,108.6-207.7,108.6-207.7C78.5,326.8,13,504.3,12.9,533.1c-0.1,16.6,23,20.7,37,15.7
		C37.2,549.2,23.7,543.8,23.7,531.1z"/>
	<g>
		<g>
			<path class="st7" d="M148.3,669C138,646.8,64.9,536.7,57.4,530.2c-7.5-6.5-39.2-15.9-42.8,2.5C10.9,551,135.2,672.3,135.2,672.3
				L148.3,669z"/>
			<path class="st8" d="M44.8,560.2c2.3-11.2,16-11.6,28.1-8.7c-8.1-11.9-13.9-19.9-15.5-21.3c-7.5-6.5-41.7-17-45.4,1.3
				c-3.7,18.3,123.3,140.8,123.3,140.8l4.6-0.7C95.4,624.9,42.1,573.5,44.8,560.2z"/>
		</g>
		<path class="st5" d="M21.9,549.7c-5.2,3-16.4-28.1-7.7-37.9c8.7-9.8,46.6,7.3,49.3,13.9c2.7,6.5-1.5,17.1-1.5,17.1
			S42.3,538,21.9,549.7z"/>
		<path class="st6" d="M63.5,525.7c-0.5-1.2-2.2-2.8-4.7-4.5c0.1,2.1-0.3,4.2-1.4,6c-4,6.7-14.8,7.5-24.2,1.9
			c-8.5-5.1-12.8-13.7-10.6-20.2c-3.6,0.1-6.8,0.8-8.4,2.9c-9.7,13.6,2.5,41,7.7,38c20.4-11.7,40.1-7,40.1-7S66.3,532.2,63.5,525.7z
			"/>
		<g>
			<path class="st7" d="M189.2,699.9L189.2,699.9L166.4,677l21.2,11.6c2.7,1.2,4.1-0.5,4.6-1.3l-10.3-7.2l-3.3-2.1l0,0
				c-3-2.3-5.9-4.2-8.6-5.8l0,0l-4.3-3.1l-29.5-7.4l0,0l-2.6,3.3l-1.1,5.6c0,0,5.8,8.7,14.3,14.7c5.9,10,12.6,17.3,12.6,17.3
				c4.6,3.7,4.1-1,4.1-1c-4.5-3.5-8.6-11.4-9.2-12.7c-0.5-0.9-0.9-1.8-1.2-2.6l0.9-0.3l21.7,22.2c3.4,2.7,4.1-2.1,4.1-2.1
				l-15.2-18.1l-2.9-4.4l1.7-0.5l-0.2-0.5l0.4,0.4l21.4,20.9l0,0c3.9,3.4,7.5-0.7,7.5-0.7L189.2,699.9z"/>
		</g>
	</g>
	<g>
		<path class="st7" d="M286.4,673.7c4.5-18.1,60.9-140.4,66.5-145.9s32.4-15.1,40.3-0.7c7.9,14.4-98.6,145.5-98.6,145.5L286.4,673.7
			z"/>
		<path class="st8" d="M356.3,525.5c8.4-1.3,16.7-0.2,20.5,6.6c6.5,11.8-59,105-84.7,140.8l2.5-0.3c0,0,109.8-131.6,101.9-146
			C389.7,514.1,366,520.1,356.3,525.5z"/>
		<g>
			<path class="st7" d="M243.7,706.6L243.7,706.6l19.7-24.1l-19.2,13.1c-2.4,1.4-4-0.1-4.5-0.8l9.2-7.8l2.9-2.3l0,0
				c2.7-2.4,5.3-4.6,7.7-6.4l0,0l3.8-3.4l27.5-9.9l0,0l2.8,2.9l1.6,5.2c0,0-4.7,8.9-12.3,15.4c-4.6,10.2-10.4,17.7-10.4,17.7
				c-4,4-4-0.5-4-0.5c4-3.8,7.2-11.8,7.6-13c0.4-1,0.7-1.8,0.9-2.6l-0.8-0.2l-18.6,23.3c-3,2.9-4.1-1.6-4.1-1.6l12.8-18.8l2.4-4.5
				L267,688l0.1-0.5l-0.4,0.4l-18.5,22l0,0c-3.5,3.6-7.3,0-7.3,0L243.7,706.6z"/>
		</g>
	</g>
</g>
</svg>
