<?xml version="1.0" encoding="utf-8"?>
<!-- Generator: Adobe Illustrator 24.0.3, SVG Export Plug-In . SVG Version: 6.00 Build 0)  -->
<svg version="1.1" id="Layer_1" xmlns:serif="http://www.serif.com/"
	 xmlns="http://www.w3.org/2000/svg" xmlns:xlink="http://www.w3.org/1999/xlink" x="0px" y="0px" width="42.5px" height="42.5px"
	 viewBox="0 0 42.5 42.5" style="enable-background:new 0 0 42.5 42.5;" xml:space="preserve">
<style type="text/css">
	.st0{fill:#00FFFF;}
</style>
<g>
	<g transform="matrix(0.66491,0.66491,-0.66491,0.66491,299.774,-106.885)">
		<path class="st0" d="M-103.5,286.9c0.3-0.3,0.3-0.8,0-1.1l-3.9-3.9c-0.3-0.3-0.8-0.3-1.1,0l-3.1,3.1c-0.5,0.5-0.6,1.3-0.3,1.9
			l-8.1,8.2l0,0c-2.3,0.8-4.3,2.4-5.6,4.5l-3.7,5.7l-2.1,2.1c-0.6-0.6-1.7-0.6-2.3,0l-3.1,3.1c-0.3,0.3-0.3,0.8,0,1.1l3.9,3.7
			c0.3,0.3,0.8,0.3,1.1,0s0.3-0.8,0-1.1l-3.2-3.1l2.5-2.5l11.1,11l-2.5,2.5l-3.1-3.1c-0.3-0.3-0.8-0.3-1.1,0c-0.3,0.3-0.3,0.8,0,1.1
			l3.7,3.7c0.3,0.3,0.8,0.3,1.1,0l3.1-3.1c0.6-0.6,0.6-1.7,0-2.3c0.3-0.2,0.7-0.3,1.1-0.4l0.5-0.1c0.5,0.4,1.2,0.6,1.9,0.5
			c0.6-0.1,1.2-0.3,1.6-0.8c0.1,0,0.1-0.1,0.1-0.1c0.5,0.4,1.2,0.6,1.8,0.5s1.2-0.3,1.6-0.8c0.1,0,0.1-0.1,0.1-0.1
			c0.5,0.4,1.2,0.6,1.8,0.5c0.6-0.1,1.2-0.3,1.6-0.8c0.1,0,0.1-0.1,0.1-0.1c0.5,0.4,1.2,0.6,1.8,0.5c0.6-0.1,1.2-0.3,1.6-0.8
			c0.1,0,0.1-0.1,0.2-0.2c0.4-0.5,0.6-1.2,0.5-1.9l-0.1-1c0-0.3-0.1-0.6-0.3-0.9c0.4-0.1,0.8-0.3,1.1-0.7l0,0
			c0.5-0.5,0.8-1.2,0.7-1.9c0-0.4-0.1-0.7-0.3-1.1h0.4c0.7,0,1.4-0.3,1.9-0.8c0.5-0.5,0.8-1.2,0.8-1.9c0-0.4-0.1-0.8-0.3-1.2
			c0.4-0.1,0.7-0.3,1-0.6c0.5-0.5,0.8-1.2,0.8-1.9c0-0.7-0.3-1.4-0.8-1.9c-0.5-0.5-1.2-0.8-1.9-0.8h-0.8l0.5-1.8l0.5,0.5
			c0.6,0.6,1.7,0.6,2.3,0l3.1-3.1c0.3-0.3,0.3-0.8,0-1.1l-4-3.9c-0.3-0.3-0.8-0.3-1.1,0c-0.3,0.3-0.3,0.8,0,1.1l3.3,3.2l-2.5,2.5
			l-1.5-1.5l-9.7-9.5l2.5-2.5l3.3,3.2C-104.4,287.2-103.9,287.2-103.5,286.9z M-116.2,314.9l0.1,1c0.1,0.5-0.3,1-0.8,1
			c-0.5,0-1-0.3-1.1-0.9l-0.1-1c0-0.2,0-0.5,0.2-0.7l0.1-0.1c0.1-0.2,0.4-0.3,0.6-0.3C-116.8,313.9-116.3,314.3-116.2,314.9z
			 M-112.7,314.5l0.1,1c0.1,0.5-0.3,1-0.8,1c-0.2,0-0.5-0.1-0.7-0.2c-0.2-0.2-0.3-0.4-0.4-0.6l-0.1-1c0-0.2,0-0.5,0.2-0.7l0.1-0.1
			c0.1-0.2,0.4-0.3,0.6-0.3c0.2,0,0.5,0.1,0.7,0.2C-112.9,314-112.8,314.3-112.7,314.5z M-109.1,314.2l0.1,1c0,0.2,0,0.5-0.2,0.7
			c-0.2,0.2-0.4,0.3-0.6,0.4c-0.2,0-0.5-0.1-0.7-0.2c-0.2-0.2-0.3-0.4-0.4-0.6l-0.1-1c0-0.3,0.1-0.6,0.3-0.8
			c0.1-0.2,0.4-0.3,0.6-0.3C-109.6,313.3-109.2,313.6-109.1,314.2z M-105.6,313.8l0.1,1c0,0.2,0,0.5-0.2,0.7
			c-0.2,0.2-0.4,0.3-0.6,0.4c-0.5,0-1-0.3-1.1-0.9l-0.1-1c0-0.2,0-0.5,0.2-0.7l0.1-0.1c0.1-0.2,0.4-0.3,0.6-0.3
			c0.2,0,0.5,0.1,0.7,0.2C-105.7,313.4-105.6,313.6-105.6,313.8z M-99.6,302.4c0,0.6-0.4,1.1-1,1.1l-3.7,0.1h-3.9
			c-0.4,0-0.8,0.4-0.8,0.8c0,0.4,0.4,0.8,0.8,0.8l6-0.1c0.6,0,1.1,0.4,1.1,1.1c0,0.6-0.4,1.1-1,1.1l-6,0.1l0,0h-2.8
			c-0.4,0-0.8,0.4-0.8,0.8c0,0.4,0.4,0.8,0.8,0.8l6-0.1c0.6,0,1.1,0.4,1.1,1.1c0,0.3-0.1,0.6-0.3,0.8s-0.4,0.3-0.8,0.3h-1.6h-0.1
			l0,0c-0.7,0.1-1.3,0.4-1.7,0.9c-0.5-0.4-1.2-0.6-1.8-0.5c-0.7,0.1-1.3,0.4-1.7,0.9c-0.5-0.4-1.2-0.6-1.8-0.5
			c-0.7,0.1-1.3,0.4-1.7,0.9c-0.5-0.4-1.2-0.6-1.8-0.5c-0.7,0.1-1.3,0.4-1.7,0.9c-0.4,0.5-0.6,1.2-0.5,1.9l0.1,1c0,0.1,0,0.2,0,0.3
			c-0.6,0.1-1.3,0.4-1.8,0.8l-8.8-8.7l2.1-2.2c0.1,0,0.1-0.1,0.1-0.1l3.7-5.7c0.6-1,1.4-1.8,2.3-2.4c-0.3,0.9-0.5,1.8-0.5,2.7
			l0.1,8.8c0,1.6,1.3,2.9,2.9,2.9c0.8,0,1.5-0.3,2.1-0.9c0.3-0.3,0.6-0.8,0.7-1.3l1.9-7.2l1.5-1.6l12.5-0.1c0.3,0,0.6,0.1,0.8,0.3
			C-99.7,301.9-99.6,302.2-99.6,302.4z M-102.3,296.6l-0.9,3.1l-8.2,0.1l0.4-0.4c0.3-0.3,0.3-0.8,0-1.1c-0.3-0.3-0.8-0.3-1.1,0
			l-3.7,3.9c-0.1,0.1-0.2,0.2-0.2,0.3l-1.9,7.4c-0.1,0.5-0.7,0.9-1.2,0.9c-0.7,0-1.2-0.6-1.2-1.2l-0.1-8.8c0-1.6,0.6-3.2,1.7-4.4
			l8.1-8.2L-102.3,296.6z"/>
	</g>
	<g transform="matrix(0.66491,0.66491,-0.66491,0.66491,299.774,-106.885)">
		<path class="st0" d="M-101.9,287.7c-0.2,0-0.4,0.1-0.6,0.2c-0.2,0.1-0.2,0.4-0.2,0.6c0,0.2,0.1,0.4,0.2,0.6
			c0.2,0.1,0.4,0.2,0.6,0.2c0.2,0,0.4-0.1,0.6-0.2c0.1-0.2,0.2-0.4,0.2-0.6c0-0.2-0.1-0.4-0.2-0.6
			C-101.5,287.9-101.7,287.8-101.9,287.7z"/>
	</g>
	<g transform="matrix(0.66491,0.66491,-0.66491,0.66491,299.774,-106.885)">
		<path class="st0" d="M-130.2,316.4c-0.2,0-0.4,0.1-0.6,0.2c-0.1,0.2-0.2,0.4-0.2,0.6s0.1,0.4,0.2,0.6c0.2,0.1,0.4,0.2,0.6,0.2
			c0.2,0,0.4-0.1,0.6-0.2c0.1-0.2,0.2-0.4,0.2-0.6s-0.1-0.4-0.2-0.6C-129.7,316.5-129.9,316.4-130.2,316.4z"/>
	</g>
</g>
</svg>
