<?xml version="1.0" encoding="utf-8"?>
<!-- Generator: Adobe Illustrator 24.0.3, SVG Export Plug-In . SVG Version: 6.00 Build 0)  -->
<svg version="1.1" id="Layer_1" xmlns:serif="http://www.serif.com/"
	 xmlns="http://www.w3.org/2000/svg" xmlns:xlink="http://www.w3.org/1999/xlink" x="0px" y="0px" width="42.5px" height="42.5px"
	 viewBox="0 0 42.5 42.5" style="enable-background:new 0 0 42.5 42.5;" xml:space="preserve">
<style type="text/css">
	.st0{fill:#00FFFF;}
</style>
<g>
	<g transform="matrix(0.66491,0.66491,-0.66491,0.66491,299.774,-106.885)">
		<path class="st0" d="M-109.9,316.6c0.2-0.2,0.2-0.4,0.1-0.6l-0.4-1.3c-0.1-0.3-0.5-0.5-0.7-0.4c-0.3,0.1-0.5,0.5-0.4,0.7l0.4,1.3
			c0.1,0.3,0.4,0.5,0.7,0.4C-110,316.7-110,316.7-109.9,316.6z"/>
	</g>
	<g transform="matrix(0.66491,0.66491,-0.66491,0.66491,299.774,-106.885)">
		<path class="st0" d="M-100,291.9l-3.5,3.5l-3.4-3.5c-0.2-0.2-0.6-0.2-0.8,0s-0.2,0.6,0,0.8l3.5,3.5l-0.8,0.8l-3.5-3.5
			c-0.2-0.2-0.6-0.2-0.8,0c-0.2,0.2-0.2,0.6,0,0.8l3.5,3.5l-7.4,7.4l-7.8,7.8l-0.8-0.8l2.1-2.1c0.2-0.2,0.2-0.6,0-0.8
			c0,0-0.1-0.1-0.2-0.1l-8.8-5.6l1.7-1.7c0.2-0.2,0.2-0.6,0-0.8l-2.1-2.1c-0.2-0.2-0.6-0.2-0.8,0c-0.2,0.2-0.2,0.6,0,0.8l1.7,1.7
			l-1.7,1.7l-3.5,3.5c-0.2,0.2-0.2,0.5-0.1,0.7l6.4,9.1c0.1,0.1,0.2,0.2,0.4,0.3c0.2,0,0.4,0,0.5-0.2l1.7-1.7l0.8,0.8l-3.1,3.1
			c-0.2,0.2-0.2,0.6,0,0.8c0.2,0.2,0.6,0.2,0.8,0l12.7-12.7l1.5,5.9c0.1,0.3,0.4,0.5,0.7,0.5c0.3-0.1,0.5-0.4,0.5-0.7l-1.5-5.9
			l14,3.4l-7.4,7.4c-0.2,0.2-0.2,0.6,0,0.8c0.2,0.2,0.6,0.2,0.8,0l10.6-10.6l3.9,1.3l-19.3,19.3l-1.3-3.9l4.5-4.5
			c0.2-0.2,0.2-0.6,0-0.8c-0.2-0.2-0.6-0.2-0.8,0l-1.5,1.5l-0.6-2.4c-0.1-0.3-0.4-0.5-0.7-0.5c-0.3,0.1-0.5,0.4-0.5,0.7l0.7,3.2
			l-2.3,2.3c-0.2,0.2-0.2,0.4-0.1,0.6l1.7,5.2c0,0.2,0.2,0.3,0.4,0.4c0.2,0.1,0.4-0.1,0.5-0.2l20.7-20.7c0.1-0.1,0.2-0.4,0.2-0.6
			c0-0.2-0.2-0.4-0.4-0.4l-5.2-1.7c-0.2,0-0.4,0-0.6,0.2l-2.3,2.3l-14.6-3.5l12.6-12.6c0.2-0.2,0.2-0.6,0-0.8
			C-99.4,291.6-99.7,291.6-100,291.9z M-126.7,315.2l-5.8-8l2.7-2.7l8.5,5.4L-126.7,315.2z M-122.1,313.9l-0.8,0.8l-0.8-0.8l0.8-0.8
			L-122.1,313.9z"/>
	</g>
	<g transform="matrix(0.66491,0.66491,-0.66491,0.66491,299.774,-106.885)">
		<path class="st0" d="M-132.5,304.4c1-1,1-2.5,0-3.5s-2.5-1-3.5,0s-1,2.5,0,3.5C-134.9,305.4-133.4,305.4-132.5,304.4z M-135,301.9
			c0.5-0.5,1.3-0.5,1.8,0c0.5,0.5,0.5,1.3,0,1.8c-0.5,0.5-1.3,0.5-1.8,0S-135.5,302.3-135,301.9z"/>
	</g>
	<g transform="matrix(0.66491,0.66491,-0.66491,0.66491,299.774,-106.885)">
		<path class="st0" d="M-114.7,286.6c1-1,1-2.5,0-3.5c-1-1-2.5-1-3.5,0c-1,1-1,2.5,0,3.5C-117.2,287.6-115.6,287.6-114.7,286.6z
			 M-117.3,284.1c0.5-0.5,1.3-0.5,1.8,0c0.5,0.5,0.5,1.3,0,1.8c-0.5,0.5-1.3,0.5-1.8,0C-117.8,285.4-117.8,284.5-117.3,284.1z"/>
	</g>
	<g transform="matrix(0.66491,0.66491,-0.66491,0.66491,299.774,-106.885)">
		<path class="st0" d="M-117.2,291.9l1.7-1.7l3.9,3.9c0.2,0.2,0.6,0.2,0.8,0l3.5-3.5c0.2-0.2,0.2-0.6,0-0.8l-4.3-4.3
			c-0.2-0.2-0.6-0.2-0.8,0l-3.5,3.5l-1.7,1.7l-1.7-1.7c-0.2-0.2-0.6-0.2-0.8,0s-0.2,0.6,0,0.8l2.1,2.1
			C-117.9,292.1-117.5,292.1-117.2,291.9z M-114.7,289.3l2.6-2.6l3.5,3.5l-2.6,2.6L-114.7,289.3z"/>
	</g>
	<g transform="matrix(0.66491,0.66491,-0.66491,0.66491,299.774,-106.885)">
		<path class="st0" d="M-103.9,310.5c-1.2-1.2-3.1-1.2-4.3,0c-1.2,1.2-1.2,3.1,0,4.3c1.2,1.2,3.1,1.2,4.3,0
			C-102.6,313.6-102.6,311.7-103.9,310.5z M-106.4,313.1l1.2,1.2c-0.7,0.3-1.5,0.2-2.1-0.3c-0.7-0.7-0.7-1.9,0-2.6
			c0.7-0.7,1.9-0.7,2.6,0c0.5,0.5,0.6,1.4,0.3,2.1l-1.2-1.2c-0.2-0.2-0.6-0.2-0.8,0C-106.7,312.4-106.7,312.9-106.4,313.1z"/>
	</g>
	<g transform="matrix(0.66491,0.66491,-0.66491,0.66491,299.774,-106.885)">
		<path class="st0" d="M-96.1,312.2c0.2-0.2,0.2-0.6,0-0.8c-0.2-0.2-0.6-0.2-0.8,0l-0.4,0.4c-0.2,0.2-0.2,0.6,0,0.8
			c0.2,0.2,0.6,0.2,0.8,0L-96.1,312.2z"/>
	</g>
	<g transform="matrix(0.66491,0.66491,-0.66491,0.66491,299.774,-106.885)">
		<path class="st0" d="M-94.4,310.5c0.2-0.2,0.2-0.6,0-0.8c-0.2-0.2-0.6-0.2-0.8,0l-0.4,0.4c-0.2,0.2-0.2,0.6,0,0.8
			c0.2,0.2,0.6,0.2,0.8,0L-94.4,310.5z"/>
	</g>
	<g transform="matrix(0.66491,0.66491,-0.66491,0.66491,299.774,-106.885)">
		<path class="st0" d="M-97.8,313.9c0.2-0.2,0.2-0.6,0-0.8s-0.6-0.2-0.8,0l-0.4,0.4c-0.2,0.2-0.2,0.6,0,0.8c0.2,0.2,0.6,0.2,0.8,0
			L-97.8,313.9z"/>
	</g>
</g>
</svg>
