<?xml version="1.0" encoding="utf-8"?>
<!-- Generator: Adobe Illustrator 24.0.3, SVG Export Plug-In . SVG Version: 6.00 Build 0)  -->
<svg version="1.1" id="Layer_1" xmlns:serif="http://www.serif.com/"
	 xmlns="http://www.w3.org/2000/svg" xmlns:xlink="http://www.w3.org/1999/xlink" x="0px" y="0px" width="90px" height="155.6px"
	 viewBox="0 0 90 155.6" style="enable-background:new 0 0 90 155.6;" xml:space="preserve">
<style type="text/css">
	.st0{fill:#2376BC;}
	.st1{clip-path:url(#SVGID_2_);fill:none;stroke:#00FFFF;stroke-width:0.4316;stroke-miterlimit:10;}
	.st2{clip-path:url(#SVGID_2_);}
	.st3{fill:none;stroke:#00FFFF;stroke-width:0.4316;stroke-miterlimit:10;}
	.st4{fill:#00FFFF;}
</style>
<g>
	<path class="st0" d="M3.2,143.6V12c0-5.3,4.3-9.5,9.5-9.5h64.6c5.3,0,9.5,4.3,9.5,9.5v131.6c0,5.3-4.3,9.5-9.5,9.5H12.7
		C7.4,153.1,3.2,148.9,3.2,143.6z"/>
	<g>
		<defs>
			<path id="SVGID_1_" d="M3.2,143.6V12c0-5.3,4.3-9.5,9.5-9.5h64.6c5.3,0,9.5,4.3,9.5,9.5v131.6c0,5.3-4.3,9.5-9.5,9.5H12.7
				C7.4,153.1,3.2,148.9,3.2,143.6z"/>
		</defs>
		<clipPath id="SVGID_2_">
			<use xlink:href="#SVGID_1_"  style="overflow:visible;"/>
		</clipPath>
		<circle class="st1" cx="22.2" cy="102.6" r="1.1"/>
		<g class="st2">
			<circle class="st3" cx="79.7" cy="57" r="1.1"/>
		</g>
		<circle class="st1" cx="29.1" cy="110.1" r="1.1"/>
		<g class="st2">
			<g>
				<polyline class="st3" points="6.6,-17.7 27,2.7 27,41.6 				"/>
				<circle class="st3" cx="27" cy="42.7" r="1.1"/>
			</g>
			<circle class="st3" cx="20.8" cy="51.3" r="1.1"/>
			<circle class="st3" cx="12.7" cy="59.6" r="1.1"/>
			<circle class="st3" cx="40.2" cy="7.3" r="1.1"/>
			<polyline class="st3" points="6.1,-13.6 24.2,4.5 24.2,38.8 20.7,42.3 20.7,50.2 			"/>
			<circle class="st3" cx="21.1" cy="31.8" r="1.1"/>
			<circle class="st3" cx="43.5" cy="36.6" r="1.1"/>
			<polyline class="st3" points="6.6,-8.4 21.1,6.1 21.1,30.7 			"/>
			<polyline class="st3" points="27,12 43.5,28.5 43.5,35.5 			"/>
			<polyline class="st3" points="32.6,17.7 32.6,11.2 27,5.5 			"/>
			<polyline class="st3" points="-0.1,-2.6 9.4,7 9.4,26.9 5.5,30.8 5.5,52.4 12,58.9 			"/>
			<polyline class="st3" points="5.5,39.5 13.2,31.8 13.2,1.7 4.5,-7 			"/>
			<line class="st3" x1="25.8" y1="-7" x2="39.3" y2="6.4"/>
		</g>
		<g class="st2">
			<g>
				<polyline class="st3" points="83.3,172.2 63,151.9 63,112.9 				"/>
				<circle class="st3" cx="63" cy="111.8" r="1.1"/>
			</g>
			<circle class="st3" cx="69.1" cy="103.2" r="1.1"/>
			<circle class="st3" cx="77.2" cy="94.9" r="1.1"/>
			<circle class="st3" cx="49.7" cy="147.2" r="1.1"/>
			<polyline class="st3" points="83.8,168.2 65.7,150.1 65.7,115.7 69.2,112.3 69.2,104.3 			"/>
			<circle class="st3" cx="68.8" cy="122.7" r="1.1"/>
			<circle class="st3" cx="46.4" cy="117.9" r="1.1"/>
			<polyline class="st3" points="83.3,163 68.8,148.5 68.8,123.8 			"/>
			<polyline class="st3" points="63,142.6 46.4,126.1 46.4,119 			"/>
			<polyline class="st3" points="57.3,136.9 57.3,143.4 62.9,149 			"/>
			<polyline class="st3" points="90,157.2 80.5,147.6 80.5,127.7 84.4,123.8 84.4,102.1 77.9,95.6 			"/>
			<polyline class="st3" points="84.4,115 76.7,122.7 76.7,152.8 85.4,161.6 			"/>
			<line class="st3" x1="64.1" y1="161.6" x2="50.6" y2="148.1"/>
		</g>
		<polyline class="st1" points="24.3,155.2 24.3,125.4 29.1,120.6 29.1,111.2 		"/>
		<polyline class="st1" points="18.4,154.5 18.4,122.5 22.2,118.7 22.2,103.7 		"/>
		<g class="st2">
			<circle class="st3" cx="17.3" cy="112.3" r="1.1"/>
			<polyline class="st3" points="2,145.5 9.7,137.8 9.7,119.9 16.4,113.2 			"/>
		</g>
		<g class="st2">
			<circle class="st3" cx="67.7" cy="57" r="1.1"/>
			<polyline class="st3" points="87.6,10.9 78.7,19.9 78.7,46 68.5,56.2 			"/>
		</g>
		<polyline class="st1" points="78.7,35.5 72.8,29.7 72.8,1.3 		"/>
		<g class="st2">
			<circle class="st3" cx="63.4" cy="38.9" r="1.1"/>
			<polyline class="st3" points="67.5,0.6 67.5,34.8 64.2,38.1 			"/>
		</g>
		<line class="st1" x1="88.8" y1="47.8" x2="80.5" y2="56.1"/>
	</g>
	<g>
		<g transform="matrix(0.66491,0.66491,-0.66491,0.66491,299.774,-106.885)">
			<path class="st4" d="M-48.9,341.3c0.2-0.2,0.2-0.4,0.1-0.6l-0.4-1.2c-0.1-0.3-0.5-0.5-0.7-0.4c-0.3,0.1-0.5,0.5-0.4,0.7l0.4,1.2
				c0.1,0.3,0.4,0.5,0.7,0.4C-49,341.4-49,341.4-48.9,341.3z"/>
		</g>
		<g transform="matrix(0.66491,0.66491,-0.66491,0.66491,299.774,-106.885)">
			<path class="st4" d="M-39.5,318l-3.3,3.3L-46,318c-0.2-0.2-0.6-0.2-0.8,0c-0.2,0.2-0.2,0.6,0,0.8l3.3,3.3l-0.8,0.8l-3.3-3.3
				c-0.2-0.2-0.6-0.2-0.8,0c-0.2,0.2-0.2,0.6,0,0.8l3.3,3.3l-7,7l-7.4,7.4l-0.8-0.8l2-2c0.2-0.2,0.2-0.6,0-0.8c0,0-0.1-0.1-0.2-0.1
				l-8.3-5.3l1.6-1.6c0.2-0.2,0.2-0.6,0-0.8l-2-2c-0.2-0.2-0.6-0.2-0.8,0c-0.2,0.2-0.2,0.6,0,0.8l1.6,1.6l-1.6,1.6l-3.3,3.3
				c-0.2,0.2-0.2,0.5-0.1,0.7l6.1,8.6c0.1,0.1,0.2,0.2,0.4,0.3c0.2,0,0.4,0,0.5-0.2l1.6-1.6l0.8,0.8l-2.9,2.9
				c-0.2,0.2-0.2,0.6,0,0.8c0.2,0.2,0.6,0.2,0.8,0l12-12l1.4,5.6c0.1,0.3,0.4,0.5,0.7,0.5c0.3-0.1,0.5-0.4,0.5-0.7l-1.4-5.6
				l13.2,3.2l-7,7c-0.2,0.2-0.2,0.6,0,0.8c0.2,0.2,0.6,0.2,0.8,0l10-10l3.7,1.2l-18.3,18.3l-1.2-3.7l4.3-4.3c0.2-0.2,0.2-0.6,0-0.8
				c-0.2-0.2-0.6-0.2-0.8,0l-1.4,1.4l-0.6-2.3c-0.1-0.3-0.4-0.5-0.7-0.5c-0.3,0.1-0.5,0.4-0.5,0.7l0.7,3l-2.2,2.2
				c-0.2,0.2-0.2,0.4-0.1,0.6l1.6,4.9c0,0.2,0.2,0.3,0.4,0.4c0.2,0.1,0.4-0.1,0.5-0.2l19.6-19.6c0.1-0.1,0.2-0.4,0.2-0.6
				c0-0.2-0.2-0.4-0.4-0.4l-4.9-1.6c-0.2,0-0.4,0-0.6,0.2l-2.2,2.2l-13.8-3.3l11.9-11.9c0.2-0.2,0.2-0.6,0-0.8
				C-38.9,317.7-39.2,317.7-39.5,318z M-64.8,340l-5.5-7.6l2.6-2.6l8,5.1L-64.8,340z M-60.4,338.8l-0.8,0.8l-0.8-0.8l0.8-0.8
				L-60.4,338.8z"/>
		</g>
		<g transform="matrix(0.66491,0.66491,-0.66491,0.66491,299.774,-106.885)">
			<path class="st4" d="M-70.2,329.8c0.9-0.9,0.9-2.4,0-3.3c-0.9-0.9-2.4-0.9-3.3,0c-0.9,0.9-0.9,2.4,0,3.3
				C-72.5,330.7-71.1,330.7-70.2,329.8z M-72.6,327.4c0.5-0.5,1.2-0.5,1.7,0s0.5,1.2,0,1.7s-1.2,0.5-1.7,0S-73.1,327.8-72.6,327.4z"
				/>
		</g>
		<g transform="matrix(0.66491,0.66491,-0.66491,0.66491,299.774,-106.885)">
			<path class="st4" d="M-53.4,313c0.9-0.9,0.9-2.4,0-3.3c-0.9-0.9-2.4-0.9-3.3,0c-0.9,0.9-0.9,2.4,0,3.3
				C-55.8,313.9-54.3,313.9-53.4,313z M-55.9,310.6c0.5-0.5,1.2-0.5,1.7,0s0.5,1.2,0,1.7s-1.2,0.5-1.7,0
				C-56.3,311.8-56.3,311-55.9,310.6z"/>
		</g>
		<g transform="matrix(0.66491,0.66491,-0.66491,0.66491,299.774,-106.885)">
			<path class="st4" d="M-55.8,318l1.6-1.6l3.7,3.7c0.2,0.2,0.6,0.2,0.8,0l3.3-3.3c0.2-0.2,0.2-0.6,0-0.8l-4.1-4.1
				c-0.2-0.2-0.6-0.2-0.8,0l-3.3,3.3l-1.6,1.6l-1.6-1.6c-0.2-0.2-0.6-0.2-0.8,0c-0.2,0.2-0.2,0.6,0,0.8l2,2
				C-56.4,318.2-56.1,318.2-55.8,318z M-53.4,315.5l2.5-2.5l3.3,3.3l-2.5,2.5L-53.4,315.5z"/>
		</g>
		<g transform="matrix(0.66491,0.66491,-0.66491,0.66491,299.774,-106.885)">
			<path class="st4" d="M-43.2,335.6c-1.1-1.1-2.9-1.1-4.1,0c-1.1,1.1-1.1,2.9,0,4.1c1.1,1.1,2.9,1.1,4.1,0
				C-42,338.5-42,336.7-43.2,335.6z M-45.6,338l1.1,1.1c-0.7,0.3-1.4,0.2-2-0.3c-0.7-0.7-0.7-1.8,0-2.5c0.7-0.7,1.8-0.7,2.5,0
				c0.5,0.5,0.6,1.3,0.3,2l-1.1-1.1c-0.2-0.2-0.6-0.2-0.8,0C-45.8,337.4-45.8,337.8-45.6,338z"/>
		</g>
		<g transform="matrix(0.66491,0.66491,-0.66491,0.66491,299.774,-106.885)">
			<path class="st4" d="M-35.8,337.2c0.2-0.2,0.2-0.6,0-0.8c-0.2-0.2-0.6-0.2-0.8,0l-0.4,0.4c-0.2,0.2-0.2,0.6,0,0.8
				c0.2,0.2,0.6,0.2,0.8,0L-35.8,337.2z"/>
		</g>
		<g transform="matrix(0.66491,0.66491,-0.66491,0.66491,299.774,-106.885)">
			<path class="st4" d="M-34.2,335.6c0.2-0.2,0.2-0.6,0-0.8c-0.2-0.2-0.6-0.2-0.8,0l-0.4,0.4c-0.2,0.2-0.2,0.6,0,0.8
				c0.2,0.2,0.6,0.2,0.8,0L-34.2,335.6z"/>
		</g>
		<g transform="matrix(0.66491,0.66491,-0.66491,0.66491,299.774,-106.885)">
			<path class="st4" d="M-37.4,338.8c0.2-0.2,0.2-0.6,0-0.8c-0.2-0.2-0.6-0.2-0.8,0l-0.4,0.4c-0.2,0.2-0.2,0.6,0,0.8
				c0.2,0.2,0.6,0.2,0.8,0L-37.4,338.8z"/>
		</g>
	</g>
</g>
</svg>
