<?xml version="1.0" encoding="utf-8"?>
<!-- Generator: Adobe Illustrator 24.0.3, SVG Export Plug-In . SVG Version: 6.00 Build 0)  -->
<svg version="1.1" id="Layer_1" xmlns:serif="http://www.serif.com/"
	 xmlns="http://www.w3.org/2000/svg" xmlns:xlink="http://www.w3.org/1999/xlink" x="0px" y="0px" width="42.5px" height="42.5px"
	 viewBox="0 0 42.5 42.5" style="enable-background:new 0 0 42.5 42.5;" xml:space="preserve">
<style type="text/css">
	.st0{fill:#00FFFF;}
</style>
<g transform="matrix(0.66491,0.66491,-0.66491,0.66491,299.774,-106.885)">
	<path class="st0" d="M-121.2,287.1c-5.6,5-6.1,13.5-1.1,19.1c2.1,2.3,4.7,3.8,7.5,4.3l-0.2,3.9v0.1c-0.2,0.1-0.4,0.3-0.6,0.4
		c-0.7,0.6-1.1,1.4-1.1,2.3l-0.6,11.5c-0.1,0.9,0.2,1.8,0.8,2.4c0.6,0.7,1.4,1.1,2.3,1.1c0.9,0.1,1.8-0.2,2.4-0.8
		c0.7-0.6,1.1-1.4,1.1-2.3l0.6-11.5c0.1-0.9-0.2-1.8-0.8-2.4c-0.2-0.2-0.3-0.3-0.5-0.5v-0.1l0.2-3.9c2.9-0.2,5.7-1.3,8-3.4
		c5.6-5,6.1-13.5,1.1-19.1S-115.7,282.1-121.2,287.1z M-111.9,329c0,0.6-0.3,1.1-0.7,1.4c-0.4,0.4-1,0.6-1.5,0.5
		c-0.6,0-1.1-0.3-1.4-0.7c-0.4-0.4-0.6-1-0.5-1.5l0.6-10.4l4.1,0.2L-111.9,329z M-111.3,317.3l-4.1-0.2c0.1-0.5,0.3-1,0.7-1.3
		c0.4-0.4,0.9-0.6,1.5-0.5s1.1,0.3,1.4,0.7C-111.5,316.4-111.3,316.8-111.3,317.3z M-112.6,314.1c-0.2,0-0.4-0.1-0.6-0.1h-0.6
		l0.2-3.4c0.4,0,0.8,0.1,1.1,0.1L-112.6,314.1z M-104,306.4c-5.1,4.5-12.8,4-17.3-1.1s-4.1-12.8,1-17.3s12.8-4,17.3,1.1
		C-98.6,294.1-99,301.9-104,306.4z"/>
</g>
</svg>
