<?xml version="1.0" encoding="utf-8"?>
<!-- Generator: Adobe Illustrator 24.0.3, SVG Export Plug-In . SVG Version: 6.00 Build 0)  -->
<svg class="m204-compu" version="1.1" id="Layer_1" xmlns:serif="http://www.serif.com/"
	 xmlns="http://www.w3.org/2000/svg" xmlns:xlink="http://www.w3.org/1999/xlink" x="0px" y="0px" width="578px" height="356px"
	 viewBox="0 0 578 356" style="enable-background:new 0 0 578 356;" xml:space="preserve">
<style type="text/css">
	.st0{fill:none;stroke:#D81F27;stroke-width:5.397;stroke-miterlimit:10.5882;}
	.st1{fill:none;stroke:#4BB447;stroke-width:5.397;stroke-miterlimit:10.5882;}
	.st2{fill:none;stroke:#FAAB31;stroke-width:5.397;stroke-miterlimit:10.5882;}
	.st3{fill:#8B1600;}
	.st4{fill:#AC2721;}
	.st5{fill:#C25A24;}
	.st6{fill:#B65421;}
	.st7{fill:#D81F27;}
	.st8{fill:#3C9442;}
	.st9{fill:#145B23;}
	.st10{fill:#4BB447;}
	.st11{fill:#CB8E27;}
	.st12{fill:#765005;}
	.st13{fill:#FAAB31;}
	.st14{fill:#120C26;}
	.st15{fill-rule:evenodd;clip-rule:evenodd;fill:#35276D;}
	.st16{fill:#D9D9D9;}
	.st17{fill:#C0C1C2;}
	.st18{fill:#FFFFFF;fill-opacity:0.14;}
	.st19{fill-rule:evenodd;clip-rule:evenodd;fill:#94A8B2;}
	.st20{fill:#35276D;}
	.st21{fill:url(#SVGID_1_);}
	.st22{fill:url(#SVGID_2_);}
	.st23{fill:url(#SVGID_3_);}
	.st24{fill:url(#SVGID_4_);}
	.st25{fill:#1977AC;}
	.st26{fill-rule:evenodd;clip-rule:evenodd;fill:#1977AC;}
	.st27{fill:#44F7FF;}
	.st28{fill:url(#SVGID_5_);}
	.st29{opacity:0.5;fill-rule:evenodd;clip-rule:evenodd;fill:#ACADB1;}
	.st30{fill:url(#SVGID_6_);}
	.st31{fill:url(#SVGID_7_);}
	.st32{fill:url(#SVGID_8_);}
	.st33{fill:url(#SVGID_9_);}
	.st34{fill:url(#SVGID_10_);}
	.st35{fill:url(#SVGID_11_);}
	.st36{fill:url(#SVGID_12_);}
	.st37{fill:url(#SVGID_13_);}
	.st38{fill:url(#SVGID_14_);}
	.st39{fill:url(#SVGID_15_);}
	.st40{fill:url(#SVGID_16_);}
	.st41{fill:url(#SVGID_17_);}
	.st42{fill:url(#SVGID_18_);}
	.st43{fill:url(#SVGID_19_);}
	.st44{fill:url(#SVGID_20_);}
	.st45{fill:url(#SVGID_21_);}
	.st46{opacity:0.2;fill:#894065;}
	.st47{fill:url(#SVGID_22_);}
	.st48{fill:url(#SVGID_23_);}
</style>
<g id="good" transform="matrix(1,0,0,1,0.2,0.4)">
	<path id="cable01" class="st0" d="M409.8,149.8c0,0-34.8-17.3-30.5,32.8c2.6,29.4-34.1,26.1-51.8,64.7
		c-18.5,40.5-45,20.5-56.8,31.8c-17.9,16.9-46.2,16.9-57,10.4c-5.9-3.6-44.3-14.2-57.6-23.2s-40.7,7.5-60.3-27.3
		c-18.7-33.3-72.7-29.1-66.5-54s37.4-12.4,37.4-12.4"/>
	<path id="cable02" class="st1" d="M422.9,145.4c0,0-39.3-8.7-34.9,32.8c3.1,29.3-25.3,78.7-60.5,73.9c-37.4-5.1-40.2,36.1-53,46.3
		c-10.9,8.6-15.4,10-19.1,11.1c-20,6.1-28.7-0.4-44-4.7s-36-10.1-38.2-10.9c-4.3-1.6-12.4-4.9-21.4-11c-13.3-9-16.5-44.2-56.1-39.9
		c-37.4,4.1-80.9-35.3-74.7-60.2s45.7-10.4,45.7-10.4"/>
	<path id="cable03" class="st2" d="M412,141.1c0,0-39.3-18.6-41.4,24c-2,38.6-17.7,43.6-31.3,103.8c-10.1,44.2-52.9,44.6-64.7,55.8
		c-10.9,10.4-17.4,12.5-21.7,12.5c-8.7,0-20.8-0.5-41.4-6.5c-10.8-3.2-39-15.2-39-15.2s-7.3-1.1-20.6-10
		c-13.3-9-57.9-10.1-68.6-48.1c-14.5-51.8-68.5-28.9-70.5-62.2c-2.3-36.7,60.2-22.8,60.2-22.8"/>
</g>
<g id="buttons" transform="matrix(1,0,0,1,0.2,0.4)">
	<g id="btn01" class="x-m204" data-content="m2/m2_04a" data-img="1">
		<g>
			<g>
				<path class="st3" d="M187.9,279.9c0.4-1.4,0.5-2.6,0.2-2.7c-0.3-0.1-0.8,1-1.2,2.4s-0.5,2.6-0.2,2.7
					C187,282.4,187.5,281.3,187.9,279.9z"/>
				<path class="st4" d="M188,277.5c-0.2-0.1-0.7,0.8-1,2.1c-0.4,1.3-0.4,2.3-0.2,2.4c0.2,0.1,0.7-0.8,1-2.1
					C188.2,278.6,188.2,277.5,188,277.5z"/>
			</g>
			<g>
				<path class="st5" d="M181.6,280.2v0.4c2.5,0.5,3.9,0.3,5-0.1c0.6-0.2,1.2-0.4,2-0.4c1.5-0.2,3.2,0.1,4.5,0.4
					c0.8,0.1,1.5,0.3,1.9,0.3c0.8,0.1,2,0.1,3.1,0.1h2.3c0.8,0,2,0.3,3.1,0.4c1.1,0.1,2.1,0.2,2.7,0.2c1.4-0.1,2.7-0.5,3.8-1
					c1.2-0.5,2.4-1.1,3.3-1.5v-0.3c-1,0.5-2.2,1.1-3.4,1.6c-1.2,0.5-2.5,0.9-3.7,1c-0.6,0.1-1.5,0-2.6-0.2c-1.2-0.2-2.4-0.4-3.2-0.4
					H198c-1.1,0-2.3,0-3-0.1c-0.4-0.1-1.1-0.2-1.9-0.3c-1.4-0.3-3.2-0.5-4.6-0.4c-0.8,0.1-1.4,0.3-2.1,0.5
					C185.3,280.7,182.8,280.8,181.6,280.2L181.6,280.2z"/>
				<path class="st5" d="M183.2,276.5L183.2,276.5c0-0.1,0-0.2,0.1-0.2c2.2,2,3.1,2.8,3.9,3.6c0.5,0.4,0.9,0.8,1.6,1.2
					c1.3,0.8,2.9,1.3,4.2,1.7c0.8,0.2,1.4,0.4,1.9,0.6c0.7,0.3,1.8,0.8,2.8,1.3c0.7,0.4,1.4,0.7,1.9,1c0.1,0,0.1,0.1,0.2,0.1
					c0.7,0.3,1.9,0.6,3,1c1,0.3,1.9,0.7,2.5,1c1.2,0.7,2.2,1.6,3.1,2.5c0.9,0.9,1.7,1.9,2.4,2.7c0,0,0,0.1-0.1,0.1
					c0,0,0,0.1-0.1,0.1c-0.8-0.8-1.6-1.8-2.5-2.7s-1.9-1.8-3.1-2.5c-0.5-0.3-1.4-0.6-2.4-1c-1.1-0.4-2.3-0.7-3.1-1.1
					c0,0-0.1,0-0.1-0.1c-0.6-0.3-1.2-0.6-2-1c-1-0.5-2-1.1-2.7-1.3c-0.4-0.1-1.1-0.3-1.8-0.5c-1.4-0.4-3.1-1-4.3-1.8
					c-0.7-0.4-1.2-0.8-1.7-1.3C186.1,279.2,185.2,278.5,183.2,276.5L183.2,276.5z"/>
				<path class="st5" d="M185.1,279.3V279c2.6,1.5,3.7,1.9,4.8,2.5c0.6,0.3,1.1,0.5,1.9,0.7c1.4,0.3,3.2,0.3,4.5,0.1
					c0.8-0.1,1.5-0.1,2-0.2c0.8,0,2,0.1,3.1,0.2c0.8,0.1,1.5,0.2,2.1,0.2h0.2c0.8,0,2-0.1,3.2-0.1c1.1,0,2.1,0,2.7,0.1
					c1.3,0.3,2.6,0.8,3.7,1.5c0.5,0.3,0.7,0.4,1.1,0.6v0.3c-0.8-0.4,0,0-1.2-0.7c-1.2-0.6-2.4-1.2-3.7-1.4c-0.6-0.1-1.5-0.2-2.6-0.1
					c-1.2,0-2.5,0.1-3.3,0.1h-0.2c-0.6,0-1.4-0.1-2.2-0.2c-1.1-0.1-2.3-0.3-3-0.2c-0.5,0-1.1,0.1-1.9,0.1c-1.5,0.1-3.3,0.2-4.6-0.2
					c-0.8-0.2-1.4-0.4-2-0.7C188.8,281.1,187.6,280.7,185.1,279.3L185.1,279.3z"/>
				<path class="st5" d="M182.9,277.6v-0.3c2.8,0.3,3.9,0.7,5,1.1c0.6,0.2,1.2,0.4,1.9,0.6c1.4,0.3,3.2,0.4,4.5,0.5
					c0.8,0.1,1.4,0.1,1.9,0.2c0.8,0.1,1.9,0.5,3,0.8c0.8,0.2,1.5,0.5,2.1,0.6h0.2c0.7,0.2,1.9,0.3,3.1,0.3c1,0.1,2,0.1,2.6,0.3
					c1.3,0.3,2.6,0.7,3.7,1.1c1.2,0.4,2.3,0.8,3.3,0.9v0.3c-1-0.2-2.2-0.5-3.4-1c-1.2-0.4-2.4-0.8-3.7-1.1c-0.6-0.1-1.5-0.2-2.6-0.3
					c-1.2-0.1-2.4-0.2-3.2-0.4h-0.1c-0.6-0.1-1.4-0.4-2.1-0.6c-1.1-0.3-2.2-0.7-2.9-0.8c-0.4-0.1-1.1-0.1-1.9-0.2
					c-1.4-0.1-3.2-0.2-4.6-0.5c-0.8-0.2-1.4-0.4-2-0.6C186.7,278.4,185.5,277.9,182.9,277.6L182.9,277.6z"/>
				<path class="st5" d="M181.5,276.8C181.5,276.8,181.5,276.9,181.5,276.8c-0.1,0.1-0.1,0.2-0.2,0.2c2.7,1.2,3.9,1.5,5.2,1.8
					c0.7,0.1,1.3,0.3,2.1,0.5c1.5,0.5,3.1,1.3,4.3,2c0.7,0.4,1.4,0.7,1.8,0.9c0.7,0.3,2,0.6,3.2,0.9c0.8,0.2,1.6,0.4,2.2,0.6
					c0.1,0,0.1,0,0.2,0.1c0.8,0.3,1.9,0.8,3,1.4c1,0.5,1.9,1,2.6,1.2c1.4,0.5,2.7,0.8,4,1.1c1.3,0.3,2.5,0.6,3.5,1
					c0,0,0-0.1,0.1-0.1v-0.1c-1-0.4-2.3-0.7-3.6-1c-1.3-0.3-2.7-0.6-3.9-1.1c-0.6-0.2-1.5-0.7-2.5-1.2c-1.1-0.6-2.3-1.1-3.1-1.4
					h-0.2c-0.6-0.2-1.4-0.4-2.3-0.6c-1.2-0.3-2.4-0.6-3.1-0.9c-0.4-0.2-1.1-0.5-1.8-0.9c-1.3-0.7-3-1.5-4.4-2.1
					c-0.8-0.3-1.5-0.4-2.1-0.6C185.3,278.3,184.2,278,181.5,276.8L181.5,276.8z"/>
				<path class="st5" d="M180.8,277.3L180.8,277.3c0,0.1,0,0.2-0.1,0.2c2.9,0.8,4.1,0.9,5.4,1c0.7,0,1.3,0.1,2.1,0.2
					c1.5,0.3,3.3,0.8,4.6,1.3c0.8,0.3,1.5,0.5,1.9,0.6c0.8,0.2,2.1,0.3,3.3,0.4c0.8,0.1,1.6,0.2,2.2,0.2h0.2c0.8,0.1,2,0.5,3.2,0.9
					c1.1,0.3,2.1,0.7,2.7,0.8c1.4,0.3,2.8,0.4,4.1,0.5c1.3,0.1,2.6,0.2,3.6,0.4v-0.3c-1.1-0.3-2.4-0.3-3.7-0.4
					c-1.3-0.1-2.7-0.2-4-0.4c-0.6-0.1-1.6-0.4-2.6-0.8c-1.2-0.4-2.4-0.8-3.3-0.9h-0.2c-0.6-0.1-1.5-0.2-2.3-0.3
					c-1.2-0.1-2.4-0.2-3.2-0.4c-0.5-0.1-1.1-0.3-1.9-0.6c-1.4-0.5-3.2-1.1-4.7-1.3c-0.9-0.2-1.5-0.2-2.2-0.2
					C184.8,278.1,183.6,278,180.8,277.3L180.8,277.3z"/>
				<path class="st5" d="M180.7,279.6v-0.3c3,0.3,4.1,0.8,5.3,1.2c0.6,0.2,1.2,0.4,2,0.6c1.5,0.3,3.4,0.5,4.7,0.6
					c0.8,0.1,1.5,0.1,2,0.2c0.8,0.1,2,0.5,3.2,0.8c0.8,0.2,1.6,0.5,2.2,0.6h0.2c0.8,0.2,2,0.3,3.3,0.4c1.1,0.1,2.2,0.2,2.8,0.3
					c1.4,0.3,2.8,0.7,3.9,1.2c1.3,0.4,2.5,0.8,3.5,1v0.3c-1.1-0.2-2.3-0.6-3.6-1s-2.6-0.9-3.9-1.1c-0.6-0.1-1.6-0.2-2.7-0.3
					c-1.2-0.1-2.5-0.2-3.4-0.4h-0.2c-0.6-0.2-1.4-0.4-2.3-0.6c-1.2-0.4-2.4-0.7-3.1-0.8c-0.5-0.1-1.2-0.1-2-0.2
					c-1.5-0.1-3.4-0.2-4.8-0.6c-0.9-0.2-1.5-0.4-2.1-0.6C184.8,280.3,183.6,279.9,180.7,279.6L180.7,279.6z"/>
				<path class="st5" d="M181,277.8v-0.3c2.9,0.8,3.9,1.4,5.1,2c0.6,0.3,1.1,0.6,1.9,0.9c1.5,0.6,3.3,1,4.6,1.3
					c0.8,0.2,1.5,0.3,2,0.5c0.8,0.2,1.9,0.8,3,1.3c0.8,0.4,1.5,0.7,2.1,1c0.1,0,2.2,0.7,3.4,1c1.1,0.3,2.1,0.5,2.7,0.7
					c1.4,0.5,2.6,1.2,3.7,1.8c1.2,0.6,2.3,1.2,3.3,1.5v0.3c-1-0.3-2.2-0.9-3.4-1.5c-1.2-0.6-2.4-1.2-3.7-1.7
					c-0.6-0.2-1.6-0.5-2.6-0.7c-1.2-0.3-3.4-0.9-3.4-1c-0.6-0.2-1.4-0.6-2.1-1c-1.1-0.5-2.2-1.1-2.9-1.3c-0.4-0.1-1.1-0.3-1.9-0.5
					c-1.5-0.3-3.3-0.8-4.7-1.3c-0.8-0.3-1.4-0.6-2-0.9C184.9,279.2,183.8,278.6,181,277.8L181,277.8z"/>
			</g>
		</g>
		<g>
			<g>
				<path class="st3" d="M241.3,291.5c0.2,1.4,0.6,2.6,0.9,2.6c0.3,0,0.4-1.2,0.2-2.7c-0.2-1.4-0.6-2.6-0.9-2.6
					C241.3,289,241.2,290.2,241.3,291.5z"/>
				<path class="st4" d="M242.2,293.8c0.2,0,0.3-1,0.1-2.4c-0.2-1.3-0.5-2.3-0.7-2.3s-0.3,1-0.1,2.4
					C241.6,292.8,242,293.8,242.2,293.8z"/>
			</g>
			<g>
				<g>
					<g>
						<path class="st6" d="M252.5,288.8L252.5,288.8c0-0.1,0-0.2-0.1-0.3c-2.2,2-9.9,3.9-11.2,4.1c-0.8,0.2-1.5,0.3-1.9,0.4
							c-0.7,0.2-1.8,0.7-2.9,1.1c-0.7,0.3-1.4,0.6-2,0.8c-0.1,0-0.1,0-0.2,0.1c-0.7,0.2-1.9,0.5-3.1,0.8c-1,0.3-2,0.6-2.5,0.9
							c-1.2,0.6-2.3,1.5-3.2,2.4c-0.9,0.9-1.8,1.9-2.5,2.7c0,0.1,0,0.1,0.1,0.1v0.1c0.8-0.8,1.6-1.8,2.6-2.7c1-0.9,2-1.7,3.2-2.3
							c0.5-0.3,1.4-0.6,2.5-0.8c1.2-0.3,2.4-0.6,3.1-0.8c0,0,0.1,0,0.1-0.1c0.6-0.2,1.3-0.5,2.1-0.8c1-0.4,2.1-0.9,2.8-1.1
							c0.4-0.1,1.1-0.2,1.9-0.4C242.7,292.6,250.5,290.7,252.5,288.8L252.5,288.8z"/>
					</g>
					<g>
						<path class="st6" d="M249,292.6v0.3c-2.8-0.8-3.9-1.1-5.1-1.4c-0.6-0.2-1.2-0.3-2-0.4c-1.5-0.1-3.2,0.2-4.5,0.4
							c-0.8,0.1-1.4,0.3-1.9,0.3c-0.8,0.1-2,0.1-3.1,0.1h-2.3c-0.7,0-1.9,0.3-3.1,0.4c-1.1,0.2-2,0.3-2.7,0.2
							c-1.4-0.1-2.7-0.4-3.8-0.8c-1.2-0.4-2.4-0.9-3.4-1.3v-0.3c1,0.4,2.2,0.9,3.5,1.3c1.2,0.4,2.5,0.7,3.8,0.8
							c0.6,0,1.5-0.1,2.6-0.2c1.2-0.2,2.4-0.4,3.2-0.4h2.3c1.1,0,2.3,0,3-0.1c0.4-0.1,1.1-0.2,1.9-0.3c1.4-0.3,3.2-0.5,4.6-0.4
							c0.8,0.1,1.4,0.2,2.1,0.4C245.1,291.6,246.3,291.8,249,292.6z"/>
					</g>
					<g>
						<path class="st6" d="M249.1,290.7L249.1,290.7c0,0.2,0,0.2,0.1,0.3c-3-0.4-4.1-0.3-5.4-0.4c-0.6,0-1.2,0-2,0.1
							c-1.5,0.2-3.1,1-4.3,1.6c-0.7,0.4-1.3,0.7-1.8,0.9c-0.7,0.3-1.9,0.6-3,1c-0.8,0.2-1.5,0.4-2,0.6c-0.1,0-0.1,0-0.2,0.1
							c-0.7,0.2-1.8,0.8-2.9,1.3c-1,0.4-1.9,0.8-2.5,0.9c-1.3,0.2-2.7,0.2-3.9,0c-1.3-0.2-2.6-0.5-3.6-0.7V296
							c1.1,0.2,2.4,0.5,3.7,0.7c1.3,0.2,2.6,0.2,3.9-0.1c0.6-0.1,1.5-0.4,2.4-0.9c1.1-0.5,2.2-1,3-1.3h0.1c0.6-0.2,1.3-0.4,2.1-0.6
							c1.1-0.3,2.2-0.6,2.9-0.9c0.4-0.2,1-0.5,1.7-0.9c1.3-0.7,2.9-1.4,4.3-1.7c0.8-0.1,1.4-0.1,2.1-0.1
							C245,290.4,246.2,290.4,249.1,290.7L249.1,290.7z"/>
					</g>
					<g>
						<path class="st6" d="M251.8,291.3L251.8,291.3c0,0.1,0,0.2,0.1,0.2c-2.7,0.8-6.3,0.9-7.1,1.1c-1.5,0.2-3.1,0.8-4.3,1.2
							c-0.7,0.2-1.4,0.5-1.8,0.6c-0.7,0.2-1.9,0.3-3.1,0.4c-0.8,0.1-1.5,0.1-2.1,0.2h-0.2c-0.7,0.1-1.9,0.5-3,0.9
							c-1,0.3-1.9,0.6-2.6,0.7c-1.3,0.2-2.7,0.3-3.9,0.4s-2.5,0.2-3.4,0.4v-0.3c1-0.2,2.2-0.3,3.5-0.4c1.3-0.1,2.6-0.2,3.8-0.4
							c0.6-0.1,1.5-0.4,2.5-0.7c1.1-0.4,2.3-0.7,3.1-0.9h0.1c0.6-0.1,1.4-0.2,2.2-0.2c1.1-0.1,2.3-0.2,3-0.4
							c0.4-0.1,1.1-0.3,1.8-0.6c1.3-0.5,3-1,4.4-1.3C245.6,292.2,249.2,292.1,251.8,291.3L251.8,291.3z"/>
					</g>
					<g>
						<path class="st6" d="M253.4,291.6v-0.3c-3-0.1-11,0.5-12.3,0.4c-0.8-0.1-1.5-0.1-2-0.1c-0.8,0-2.1,0.2-3.3,0.3
							c-0.8,0.1-1.6,0.2-2.2,0.3h-0.2c-0.8,0.1-2.1,0-3.3-0.1c-1.1-0.1-2.2-0.2-2.8-0.1c-1.4,0.1-2.8,0.3-4.1,0.5
							c-1.3,0.2-2.6,0.4-3.6,0.4v0.3c1.1,0,2.4-0.2,3.7-0.4c1.3-0.2,2.7-0.4,4-0.5c0.6,0,1.6,0,2.7,0.1c1.2,0.1,2.5,0.2,3.4,0.1h0.2
							c0.7-0.1,1.5-0.2,2.3-0.3c1.2-0.2,2.4-0.3,3.2-0.3c0.5,0,1.2,0.1,2,0.1C242.5,292.1,250.5,291.5,253.4,291.6L253.4,291.6z"/>
					</g>
					<g>
						<path class="st6" d="M253.8,291.1v-0.3c-3,0.3-10.7,2.2-12.1,2.4c-0.8,0.1-1.5,0.1-2,0.2c-0.8,0.1-2,0.5-3.2,0.8
							c-0.8,0.2-1.6,0.5-2.2,0.6h-0.2c-0.8,0.2-2,0.3-3.3,0.4c-1.1,0.1-2.2,0.2-2.8,0.3c-1.4,0.3-2.8,0.7-4,1.2
							c-1.3,0.4-2.5,0.8-3.5,1v0.3c1.1-0.2,2.3-0.6,3.6-1c1.3-0.4,2.6-0.9,3.9-1.1c0.6-0.1,1.6-0.2,2.7-0.3c1.2-0.1,2.5-0.2,3.4-0.4
							h0.2c0.6-0.2,1.4-0.4,2.3-0.6c1.2-0.4,2.4-0.7,3.1-0.8c0.5-0.1,1.2-0.1,2-0.2C243.2,293.3,251,291.4,253.8,291.1z"/>
					</g>
					<g>
						<path class="st6" d="M251.4,289L251.4,289c0,0.1,0,0.2,0.1,0.2c-2.9,0.8-6.7,1-7.5,1.2c-1.5,0.3-3.3,0.8-4.6,1.3
							c-0.8,0.3-1.5,0.5-1.9,0.6c-0.8,0.2-2.1,0.3-3.3,0.4c-0.8,0.1-1.6,0.2-2.2,0.2h-0.2c-0.8,0.1-2,0.5-3.2,0.9
							c-1.1,0.3-2.1,0.7-2.7,0.8c-1.4,0.3-2.8,0.4-4.1,0.5c-1.3,0.1-2.6,0.2-3.6,0.4v-0.3c1.1-0.3,2.4-0.3,3.7-0.4s2.7-0.2,4-0.4
							c0.6-0.1,1.6-0.4,2.6-0.8c1.2-0.4,2.4-0.8,3.3-0.9h0.2c0.6-0.1,1.5-0.2,2.3-0.3c1.2-0.1,2.4-0.2,3.2-0.4
							c0.5-0.1,1.1-0.3,1.9-0.6c1.4-0.5,3.2-1.1,4.7-1.3C244.7,290,248.6,289.8,251.4,289L251.4,289z"/>
					</g>
					<g>
						<path class="st6" d="M249.4,292.4v0.3c-3-0.2-4.1-0.6-5.4-1c-0.6-0.2-1.2-0.4-2.1-0.5c-1.5-0.3-3.4-0.4-4.8-0.4
							c-0.8,0-1.5-0.1-2-0.1c-0.8-0.1-2-0.4-3.2-0.7c-0.8-0.2-1.6-0.4-2.2-0.6h-0.2c-0.8-0.1-2-0.2-3.3-0.3
							c-1.1-0.1-2.2-0.1-2.8-0.2c-1.4-0.3-2.8-0.6-4-1s-2.5-0.7-3.5-0.9v-0.3c1.1,0.1,2.3,0.5,3.6,0.9s2.6,0.8,3.9,1
							c0.6,0.1,1.6,0.2,2.7,0.2c1.3,0.1,2.5,0.1,3.4,0.3h0.2c0.6,0.1,1.4,0.3,2.3,0.6c1.2,0.3,2.4,0.6,3.1,0.7
							c0.5,0.1,1.2,0.1,2,0.1c1.5,0.1,3.4,0.1,4.9,0.4c0.9,0.2,1.5,0.3,2.1,0.6C245.3,291.7,246.5,292.1,249.4,292.4z"/>
					</g>
				</g>
			</g>
		</g>
		<path class="st7" d="M188,277.2l-11.1-3.6c0,0-7-1.4-19.4-9.7c-5.1-3.5-11.6-3.6-18.6-3.7c-13.3-0.4-28.5-0.8-40.8-22.7
			c-9.6-17.2-28-24.9-42.9-31c-16.5-6.8-25.7-11.1-23.1-21.1c1.4-5.5,4-9.3,8.3-11.3c10.2-5.2,25.3,0.7,25.5,0.8l2-5
			c-0.7-0.3-17.6-6.9-29.9-0.6c-5.6,2.9-9.4,7.9-11.1,14.9c-3.7,14.9,10.9,21,26.3,27.3c14.8,6.1,31.7,13.1,40.4,28.5
			c13.8,24.6,32.1,25.1,45.4,25.4c6.4,0.2,12,0.3,15.8,2.9c6.3,4.2,11.3,6.8,15,8.3l1.4,0.5c2.2,0.9,15.9,5,15.9,5s-0.2-0.7,0.3-2.7
			C187.5,277.7,188,277.2,188,277.2z"/>
		<path class="st7" d="M386.3,147.4c-8,5.4-11.2,17.4-9.7,35.3c1.2,13.7-7.1,19.5-18.5,27.4c-10.8,7.5-24.3,16.8-33,35.9
			c-11.5,25.3-25.7,25.7-38.1,26.1c-6.8,0.2-13.1,0.6-18.1,4.7c-9.5,8-11.4,8.6-14.3,9.3c-3.8,1-12.9,2.7-12.9,2.7s0.5,0.6,0.7,2.6
			c0.3,2-0.1,2.7-0.1,2.7s11.3-1.8,13.3-2.4c6.1-1.8,8.5-3.3,16.9-10.7c3.4-3.1,8.6-3.3,14.7-3.5c12.6-0.4,30-1,42.8-29.3
			c8.1-17.8,20.3-26.2,31.2-33.7c11.9-8.3,22.3-15.5,20.9-32.4c-1.4-15.7,1.2-26.2,7.4-30.4c7.7-5.2,19.1,0.3,19.3,0.4l2.4-4.8
			C410.5,147.1,396.7,140.4,386.3,147.4L386.3,147.4z"/>
		<path class="st3" d="M186.7,282c-0.2-0.1-0.1-1.1,0.2-2.4c0.3-1.2,0.8-2,1-2.1l0.1-0.3c-0.3,0-0.8,1.1-1.2,2.4
			c-0.4,1.4-0.5,2.6-0.2,2.7L186.7,282L186.7,282z"/>
		<path class="st3" d="M241.6,289.2c0.2,0,0.5,1,0.7,2.3c0.1,1.2,0.1,2.2-0.1,2.3v0.3c0.3-0.2,0.3-1.3,0.2-2.7
			c-0.2-1.4-0.5-2.6-0.8-2.6L241.6,289.2L241.6,289.2z"/>
	</g>
	<g id="btn02" class="x-m204" data-content="m2/m2_04b" data-img="2">
		<g>
			<g>
				<path class="st8" d="M245.6,311.2c0.2,1.4,0.6,2.6,0.9,2.6s0.4-1.2,0.2-2.7c-0.2-1.4-0.6-2.6-0.9-2.6
					C245.5,308.5,245.4,309.7,245.6,311.2z"/>
				<path class="st9" d="M246.4,313.4c0.2,0,0.3-1,0.1-2.4c-0.2-1.3-0.5-2.3-0.7-2.3s-0.3,1-0.1,2.4
					C245.9,312.5,246.2,313.4,246.4,313.4z"/>
			</g>
			<g>
				<path class="st5" d="M256.6,307l-0.1-0.4c-2.5,0.6-3.7,1.4-4.5,2.3c-0.5,0.4-0.9,0.8-1.6,1.3c-1.3,0.8-2.9,1.3-4.2,1.7
					c-0.8,0.2-1.4,0.4-1.9,0.5c-0.7,0.2-1.8,0.8-2.8,1.3c-0.7,0.4-1.4,0.7-1.9,0.9c-0.1,0-0.1,0.1-0.2,0.1c-0.7,0.3-1.9,0.6-3,1
					c-1,0.3-1.9,0.7-2.5,1c-1.2,0.7-2.2,1.6-3.1,2.6c-0.9,1-1.7,2-2.3,2.8c0,0,0,0.1,0.1,0.1c0,0,0,0.1,0.1,0.1
					c0.7-0.9,1.5-1.9,2.4-2.9c0.9-1,1.9-1.9,3-2.6c0.5-0.3,1.4-0.7,2.4-1c1.1-0.4,2.3-0.7,3.1-1c0,0,0.1,0,0.1-0.1
					c0.6-0.3,1.3-0.6,2-1c1-0.5,2.1-1,2.7-1.3c0.4-0.1,1.1-0.3,1.8-0.5c1.4-0.4,3.1-0.9,4.3-1.7c0.7-0.4,1.2-0.9,1.6-1.3
					C253,308.3,255.3,307,256.6,307z"/>
				<path class="st5" d="M256.8,311v0.3c-2.8-0.8-3.9-1.1-5.1-1.5c-0.6-0.2-1.2-0.3-2-0.4c-1.5-0.1-3.2,0.1-4.5,0.4
					c-0.8,0.1-1.4,0.3-1.9,0.3c-0.8,0.1-2,0.1-3.1,0h-2.3c-0.7,0-2,0.2-3.1,0.4c-1.1,0.1-2,0.2-2.7,0.2c-1.4-0.1-2.7-0.5-3.8-0.9
					c-1.2-0.4-2.4-1-3.4-1.3v-0.3c1,0.4,2.2,0.9,3.5,1.3c1.2,0.4,2.5,0.8,3.7,0.9c0.6,0,1.5,0,2.6-0.2c1.2-0.2,2.4-0.4,3.2-0.4h2.3
					c1.1,0,2.3,0.1,3,0c0.4-0.1,1.1-0.2,1.9-0.3c1.4-0.3,3.2-0.5,4.6-0.4c0.8,0.1,1.4,0.2,2.1,0.4
					C252.9,309.9,254.1,310.2,256.8,311z"/>
				<path class="st5" d="M253.8,309.4C253.8,309.4,253.8,309.5,253.8,309.4c0.1,0.1,0.1,0.2,0.2,0.3c-3-0.2-4.1,0-5.4-0.1
					c-0.6,0-1.2,0.1-2,0.2c-1.4,0.3-3,1.2-4.1,1.9c-0.7,0.4-1.3,0.8-1.7,1c-0.7,0.4-1.8,0.8-2.9,1.2c-0.7,0.3-1.4,0.5-2,0.7
					c-0.1,0-0.1,0.1-0.2,0.1c-0.7,0.3-1.8,0.9-2.8,1.5c-0.9,0.5-1.9,0.9-2.5,1.1c-1.3,0.3-2.7,0.4-3.9,0.3c-0.5,0-0.7,0-1.2-0.1
					c0-0.1-0.1-0.2-0.1-0.3c0.9,0.1,0,0,1.4,0.1c1.3,0.1,2.7,0,3.8-0.3c0.6-0.1,1.5-0.5,2.4-1c1.1-0.6,2.1-1.2,2.9-1.5
					c0,0,0.1,0,0.1-0.1c0.6-0.2,1.3-0.5,2.1-0.8c1.1-0.4,2.2-0.8,2.8-1.1c0.4-0.2,1-0.6,1.6-1c1.3-0.8,2.8-1.6,4.2-2
					c0.8-0.2,1.4-0.2,2.1-0.2C249.8,309.4,251,309.3,253.8,309.4L253.8,309.4z"/>
				<path class="st5" d="M256.6,309.9C256.6,309.9,256.6,310,256.6,309.9c0.1,0.1,0.1,0.2,0.2,0.2c-2.7,1-3.8,1.1-5,1.2
					c-0.6,0.1-1.2,0.1-2,0.3c-1.4,0.3-3,1-4.2,1.5c-0.7,0.3-1.3,0.6-1.8,0.7c-0.7,0.2-1.9,0.4-3.1,0.6c-0.8,0.1-1.5,0.2-2.1,0.4
					h-0.2c-0.7,0.2-1.8,0.6-2.9,1.1c-1,0.4-1.9,0.8-2.5,0.9c-1.3,0.3-2.7,0.5-3.8,0.7c-1.3,0.2-2.4,0.3-3.4,0.6c0,0,0-0.1-0.1-0.2
					v-0.1c1-0.3,2.2-0.5,3.5-0.6c1.3-0.2,2.6-0.3,3.8-0.7c0.6-0.1,1.5-0.5,2.4-0.9c1.1-0.4,2.2-0.9,3-1.1h0.1
					c0.6-0.1,1.4-0.3,2.2-0.4c1.1-0.2,2.3-0.4,3-0.6c0.4-0.1,1-0.4,1.7-0.7c1.3-0.5,3-1.2,4.3-1.6c0.8-0.2,1.4-0.3,2.1-0.3
					C252.8,311,254,310.8,256.6,309.9z"/>
				<path class="st5" d="M258.2,310.1v-0.3c-3,0.1-4.2,0.4-5.4,0.7c-0.6,0.2-1.3,0.3-2.1,0.4c-1.6,0.2-3.4,0.2-4.8,0.1h-2
					c-0.8,0-2.1,0.3-3.3,0.6c-0.8,0.2-1.6,0.3-2.2,0.4h-0.2c-0.8,0.1-2.1,0.1-3.3,0.1c-1.1,0-2.2,0-2.8,0.1c-1.4,0.2-2.8,0.5-4,0.8
					c-1.3,0.3-2.5,0.6-3.6,0.7v0.3c1.1-0.1,2.3-0.4,3.7-0.7c1.3-0.3,2.7-0.6,4-0.8c0.6-0.1,1.6-0.1,2.7-0.1c1.3,0,2.5,0,3.4-0.1h0.2
					c0.6-0.1,1.5-0.3,2.3-0.4c1.2-0.2,2.4-0.5,3.2-0.6h2c1.5,0,3.4,0.1,4.9-0.1c0.9-0.1,1.5-0.3,2.2-0.4
					C254.1,310.5,255.3,310.2,258.2,310.1L258.2,310.1z"/>
				<path class="st5" d="M258.7,309.3V309c-2.9,0.5-4.1,1.1-5.2,1.6c-0.6,0.3-1.2,0.5-2,0.7c-1.5,0.4-3.3,0.7-4.7,0.9
					c-0.8,0.1-1.5,0.2-2,0.3c-0.8,0.2-2,0.6-3.1,1.1c-0.8,0.3-1.5,0.6-2.1,0.8c-0.1,0-0.1,0-0.2,0.1c-0.8,0.2-2,0.4-3.2,0.6
					c-1.1,0.2-2.1,0.3-2.8,0.5c-1.4,0.4-2.7,0.9-3.9,1.4c-1.2,0.5-2.4,1-3.4,1.2v0.3c1.1-0.2,2.3-0.7,3.5-1.2c1.2-0.5,2.5-1,3.8-1.4
					c0.6-0.2,1.6-0.3,2.7-0.5c1.2-0.2,2.5-0.4,3.3-0.6h0.2c0.6-0.2,1.4-0.5,2.2-0.8c1.1-0.4,2.3-0.9,3-1c0.5-0.1,1.1-0.2,1.9-0.3
					c1.5-0.2,3.3-0.5,4.8-0.9c0.8-0.2,1.4-0.5,2.1-0.8C254.6,310.3,255.8,309.8,258.7,309.3L258.7,309.3z"/>
				<path class="st5" d="M257.8,307.2C257.8,307.2,257.8,307.3,257.8,307.2c0.1,0.1,0.1,0.2,0.2,0.2c-2.8,1-4,1.2-5.3,1.3
					c-0.7,0.1-1.3,0.2-2.1,0.4c-1.5,0.4-3.2,1.1-4.5,1.6c-0.8,0.3-1.4,0.6-1.9,0.7c-0.8,0.2-2,0.4-3.2,0.6c-0.8,0.1-1.6,0.3-2.2,0.4
					h-0.2c-0.8,0.2-2,0.7-3.1,1.1c-1,0.4-2,0.8-2.6,1c-1.4,0.4-2.8,0.6-4,0.7c-1.3,0.2-2.6,0.4-3.6,0.7c0,0,0-0.1-0.1-0.2v-0.1
					c1-0.3,2.3-0.5,3.7-0.7c1.3-0.2,2.7-0.4,4-0.7c0.6-0.2,1.5-0.5,2.6-0.9c1.2-0.5,2.4-0.9,3.2-1.1h0.2c0.6-0.1,1.5-0.3,2.3-0.4
					c1.2-0.2,2.4-0.4,3.1-0.6c0.4-0.1,1.1-0.4,1.8-0.7c1.4-0.6,3.1-1.3,4.6-1.7c0.9-0.2,1.5-0.3,2.2-0.4
					C253.7,308.3,255,308.2,257.8,307.2L257.8,307.2z"/>
				<path class="st5" d="M258.2,308.9v0.3c-2.9,0.5-4.2,0.5-5.4,0.5h-2.1c-1.6,0.1-3.4,0.6-4.7,0.9c-0.8,0.2-1.5,0.3-2,0.4
					c-0.8,0.1-2.1,0.1-3.3,0.1h-2.3c-0.1,0-2.2,0.4-3.4,0.6c-1.1,0.2-2.1,0.5-2.8,0.5c-1.4,0.1-2.9,0.1-4.1,0.1
					c-1.3,0-2.6,0-3.6,0.1v-0.3c1.1-0.2,2.4-0.1,3.7-0.1s2.7,0,4-0.1c0.6-0.1,1.6-0.3,2.7-0.5c1.2-0.3,3.4-0.6,3.5-0.6
					c0.7,0,1.5,0,2.4-0.1c1.2,0,2.5,0,3.2-0.1c0.5-0.1,1.1-0.2,1.9-0.4c1.5-0.3,3.3-0.8,4.8-0.9c0.9-0.1,1.5-0.1,2.2,0
					C254.1,309.4,255.3,309.5,258.2,308.9L258.2,308.9z"/>
			</g>
		</g>
		<g>
			<g>
				<path class="st8" d="M183.4,297c0.4-1.4,0.5-2.6,0.2-2.7c-0.3-0.1-0.8,1-1.2,2.4c-0.4,1.4-0.5,2.6-0.2,2.7
					C182.4,299.4,183,298.4,183.4,297z"/>
				<path class="st9" d="M183.5,294.6c-0.2-0.1-0.7,0.8-1,2.1c-0.4,1.3-0.4,2.3-0.2,2.4s0.7-0.8,1-2.1
					C183.6,295.7,183.7,294.6,183.5,294.6z"/>
			</g>
			<g>
				<g>
					<g>
						<path class="st6" d="M174.5,296.3v0.3c2.8-1,10.6,0.2,11.9,0.4c0.8,0.1,1.5,0.3,1.9,0.4c0.8,0.1,2,0.1,3.1,0.1h2.3
							c0.8,0,2,0.3,3.1,0.4c1.1,0.2,2,0.2,2.7,0.2c1.4-0.1,2.7-0.5,3.8-1c1.2-0.5,2.4-1.1,3.3-1.5v-0.3c-1,0.4-2.2,1.1-3.4,1.5
							c-1.2,0.5-2.5,0.8-3.7,0.9c-0.6,0-1.5,0-2.6-0.2c-1.2-0.2-2.4-0.4-3.2-0.4h-2.4c-1.1,0-2.3,0-3-0.1c-0.4-0.1-1.1-0.2-1.9-0.4
							C185,296.5,177.2,295.3,174.5,296.3L174.5,296.3z"/>
					</g>
					<g>
						<path class="st6" d="M179.2,294v-0.3c2.3,1.8,3.3,2.5,4.2,3.3c0.5,0.4,1,0.7,1.7,1.1c1.3,0.7,3,1.1,4.3,1.4
							c0.8,0.2,1.4,0.3,1.9,0.4c0.7,0.2,1.8,0.7,2.9,1.1c0.7,0.3,1.4,0.6,2,0.8c0.1,0,0.1,0,0.2,0.1c0.7,0.3,1.9,0.5,3,0.8
							c1,0.3,2,0.5,2.5,0.8c1.2,0.6,2.3,1.4,3.3,2.3c1,0.9,1.9,1.8,2.6,2.5c0,0.1,0,0.1-0.1,0.1v0.1c-0.8-0.7-1.7-1.7-2.7-2.5
							c-1-0.9-2.1-1.6-3.3-2.2c-0.5-0.3-1.5-0.5-2.5-0.8c-1.2-0.3-2.4-0.6-3.1-0.8c0,0-0.1,0-0.1-0.1c-0.6-0.2-1.3-0.5-2-0.9
							c-1-0.4-2.1-0.9-2.8-1.1c-0.4-0.1-1.1-0.2-1.9-0.4c-1.4-0.3-3.2-0.7-4.4-1.4c-0.7-0.4-1.2-0.7-1.8-1.2
							C182.4,296.5,181.4,295.8,179.2,294L179.2,294z"/>
					</g>
					<g>
						<path class="st6" d="M178.4,295.8v-0.3c2.6,1.5,3.7,1.9,4.8,2.5c0.6,0.3,1.1,0.5,1.9,0.7c1.4,0.3,3.2,0.3,4.5,0.2
							c0.8-0.1,1.5-0.1,2-0.1c0.8,0,2,0.1,3.1,0.2c0.8,0.1,1.5,0.2,2.1,0.2h0.2c0.8,0,2-0.1,3.2-0.1c1.1,0,2.1,0,2.7,0.1
							c1.3,0.3,2.6,0.8,3.7,1.5c1.2,0.7,2.2,1.4,3.1,2v0.3c-0.9-0.6-2-1.4-3.2-2.1c-1.2-0.7-2.4-1.2-3.7-1.5
							c-0.6-0.1-1.5-0.2-2.6-0.1c-1.2,0-2.5,0.1-3.3,0.1h-0.2c-0.6,0-1.4-0.1-2.2-0.2c-1.1-0.1-2.3-0.3-3-0.2
							c-0.5,0-1.1,0.1-1.9,0.1c-1.5,0.1-3.3,0.2-4.6-0.2c-0.8-0.2-1.4-0.4-2-0.7C182,297.7,180.9,297.3,178.4,295.8L178.4,295.8z"/>
					</g>
					<g>
						<path class="st6" d="M176.2,294.2v-0.3c2.8,0.3,6.2,1.6,6.9,1.8c1.4,0.3,3.2,0.4,4.5,0.5c0.8,0.1,1.4,0.1,1.9,0.2
							c0.8,0.1,1.9,0.5,3,0.8c0.8,0.2,1.5,0.5,2,0.6h0.2c0.7,0.2,1.9,0.3,3.1,0.4c1,0.1,2,0.2,2.6,0.3c1.3,0.3,2.6,0.7,3.7,1.1
							s2.3,0.8,3.3,1v0.3c-1-0.2-2.2-0.6-3.4-1c-1.2-0.4-2.4-0.8-3.7-1.1c-0.6-0.1-1.5-0.2-2.6-0.3c-1.2-0.1-2.4-0.2-3.2-0.4h-0.1
							c-0.6-0.1-1.4-0.4-2.1-0.6c-1.1-0.3-2.2-0.7-2.9-0.8c-0.4-0.1-1.1-0.1-1.9-0.2c-1.4-0.1-3.2-0.2-4.6-0.6
							C182.2,295.7,178.8,294.5,176.2,294.2L176.2,294.2z"/>
					</g>
					<g>
						<path class="st6" d="M174.8,293.3C174.8,293.3,174.8,293.4,174.8,293.3c-0.1,0.1-0.1,0.2-0.2,0.2c2.7,1.3,10.3,3.7,11.5,4.3
							c0.7,0.4,1.4,0.7,1.8,0.9c0.7,0.3,2,0.6,3.2,0.9c0.8,0.2,1.6,0.4,2.2,0.6c0.1,0,0.1,0,0.2,0.1c0.8,0.3,1.9,0.8,3,1.4
							c1,0.5,1.9,1,2.5,1.2c1.4,0.5,2.7,0.8,4,1.1c1.3,0.3,2.5,0.6,3.5,1c0,0,0-0.1,0.1-0.1v-0.1c-1-0.4-2.3-0.7-3.6-1
							s-2.7-0.6-3.9-1.1c-0.6-0.2-1.5-0.7-2.5-1.2c-1.1-0.6-2.3-1.2-3.1-1.4c0,0-0.1,0-0.2-0.1c-0.6-0.2-1.4-0.4-2.3-0.6
							c-1.2-0.3-2.4-0.6-3.1-0.9c-0.4-0.2-1-0.5-1.8-0.9C185,297,177.5,294.5,174.8,293.3L174.8,293.3z"/>
					</g>
					<g>
						<path class="st6" d="M174.1,293.6L174.1,293.6c0,0.1,0,0.2-0.1,0.2c2.9,0.8,10.8,2.1,12.1,2.5c0.8,0.3,1.4,0.5,1.9,0.6
							c0.8,0.2,2.1,0.3,3.3,0.4c0.8,0.1,1.6,0.2,2.2,0.3h0.2c0.8,0.1,2,0.5,3.2,0.9c1.1,0.3,2.1,0.7,2.7,0.8
							c1.4,0.3,2.8,0.4,4.1,0.5c1.3,0.1,2.6,0.2,3.6,0.4v-0.3c-1.1-0.3-2.3-0.4-3.7-0.5c-1.3-0.1-2.7-0.2-4-0.5
							c-0.6-0.1-1.6-0.4-2.6-0.8c-1.2-0.4-2.4-0.8-3.3-0.9h-0.2c-0.6-0.1-1.5-0.2-2.3-0.3c-1.2-0.1-2.4-0.2-3.2-0.4
							c-0.5-0.1-1.1-0.3-1.9-0.6C184.9,295.7,176.9,294.4,174.1,293.6L174.1,293.6z"/>
					</g>
					<g>
						<path class="st6" d="M175.7,296.6v-0.3c3,0.4,6.5,1.6,7.4,1.8c1.5,0.3,3.4,0.5,4.7,0.6c0.8,0.1,1.5,0.1,2,0.2
							c0.8,0.1,2,0.5,3.2,0.9c0.8,0.2,1.6,0.5,2.2,0.6h0.2c0.8,0.2,2,0.3,3.3,0.4c1.1,0.1,2.2,0.2,2.8,0.3c1.4,0.3,2.8,0.8,3.9,1.2
							c1.3,0.4,2.5,0.8,3.5,1v0.3c-1.1-0.2-2.3-0.6-3.6-1c-1.3-0.4-2.6-0.9-3.9-1.2c-0.6-0.1-1.6-0.2-2.7-0.3
							c-1.2-0.1-2.5-0.2-3.4-0.4H195c-0.6-0.2-1.4-0.4-2.3-0.7c-1.2-0.4-2.3-0.7-3.1-0.8c-0.5-0.1-1.2-0.1-2-0.2
							c-1.5-0.1-3.4-0.3-4.8-0.6C182.1,298.2,178.5,296.9,175.7,296.6z"/>
					</g>
					<g>
						<path class="st6" d="M178.7,294.1L178.7,294.1c0-0.1,0-0.2,0.1-0.2c2.7,1.4,3.7,2.2,4.6,3c0.5,0.4,1,0.8,1.7,1.3
							c1.3,0.8,3,1.6,4.2,2.2c0.7,0.3,1.4,0.6,1.8,0.9c0.7,0.4,1.7,1.2,2.7,1.9c0.7,0.5,1.3,1,1.8,1.3c0.1,0,0.1,0.1,0.2,0.1
							c0.7,0.4,1.8,1,2.9,1.5c1,0.5,2,0.9,2.5,1.3c1.2,0.8,2.3,1.7,3.4,2.5c1,0.8,2,1.6,2.9,2.1c0,0,0,0.1-0.1,0.1
							c0,0,0,0.1-0.1,0.1c-1-0.5-2-1.3-3-2.2c-1-0.8-2.1-1.7-3.3-2.5c-0.5-0.3-1.4-0.8-2.4-1.2c-1.1-0.5-2.3-1.1-3-1.5l-0.1-0.1
							c-0.5-0.4-1.2-0.9-1.9-1.4c-1-0.7-2-1.5-2.6-1.9c-0.4-0.2-1-0.5-1.8-0.9c-1.4-0.6-3.1-1.4-4.3-2.3c-0.7-0.5-1.2-0.9-1.8-1.3
							C182.3,296.3,181.3,295.5,178.7,294.1L178.7,294.1z"/>
					</g>
				</g>
			</g>
		</g>
		<path class="st10" d="M183.5,294.3l-12-4.1c-4.4-1.8-11.1-4.8-18.1-9.6c-3.6-2.4-6.4-7.1-9.8-12.6c-7.9-13-18.7-30.9-48.1-27.6
			c-23,2.6-47.5-12.2-60.4-27.1c-9.3-10.7-13.4-21.4-11.3-29.7c1.2-4.6,3.7-7.9,7.5-10c12.4-6.5,34.3,1.4,34.5,1.5l1.9-5
			c-1-0.4-24.5-8.9-39-1.2c-5.2,2.8-8.7,7.3-10.3,13.4c-2.5,10,2.1,22.6,12.5,34.5c14.3,16.4,40.1,31.8,65.1,28.9
			c25.9-2.9,35,11.9,43,25.1c3.6,5.8,6.8,11.2,11.3,14.3c13.6,9.1,25.1,12.3,25.6,12.4l6.2,1.9c0,0-0.2-0.7,0.3-2.7
			C182.9,294.8,183.5,294.3,183.5,294.3L183.5,294.3z"/>
		<path class="st10" d="M393.7,148.9c-7,6.2-9.8,16.2-8.4,29.5c1.9,18-8.4,42.7-23.9,57.7c-7.3,7.1-19.1,15.2-33.6,13.2
			c-29.1-3.9-39.5,17.6-47.2,33.3c-2.8,5.6-5.1,11-8.1,13.8c-11.1,10.5-26.7,12.1-26.7,12.1s0.5,0.6,0.7,2.6c0.3,2-0.1,2.7-0.1,2.7
			s4.7-0.6,8.8-1.6c4-1,10.7-3.2,21.2-11.9c3.7-3.2,6.1-9,9.1-15.2c7.7-15.8,16.4-33.7,41.5-30.3c13.1,1.8,26.3-3.3,38.1-14.6
			c16.6-16.1,27.5-42.8,25.5-62.2c-1.2-11.5,1-19.9,6.6-25c9.2-8.2,24.9-4.9,25.1-4.8l1.2-5.2C422.7,142.7,405,138.8,393.7,148.9z"
			/>
		<path class="st8" d="M182.2,299c-0.2-0.1-0.1-1.1,0.2-2.4c0.3-1.2,0.8-2,1-2.1l0.1-0.3c-0.3,0.1-0.8,1.1-1.2,2.4
			c-0.4,1.4-0.5,2.6-0.2,2.7L182.2,299L182.2,299z"/>
		<path class="st8" d="M245.9,308.8c0.2,0,0.5,1,0.7,2.3c0.1,1.2,0.1,2.2-0.1,2.3v0.3c0.3-0.2,0.3-1.3,0.2-2.7
			c-0.2-1.4-0.5-2.6-0.8-2.6L245.9,308.8L245.9,308.8z"/>
	</g>
	<g id="btn03" class="x-m204" data-content="m2/m2_04c" data-img="3">
		<g>
			<g>
				<path class="st11" d="M177.9,316.9c0.4-1.4,0.5-2.6,0.2-2.7c-0.3-0.1-0.8,1-1.2,2.4c-0.4,1.4-0.5,2.6-0.2,2.7
					C177.1,319.4,177.5,318.3,177.9,316.9z"/>
				<path class="st12" d="M178,314.5c-0.2-0.1-0.7,0.8-1,2.1c-0.4,1.3-0.4,2.3-0.2,2.4c0.2,0.1,0.7-0.8,1-2.1
					C178.2,315.6,178.2,314.6,178,314.5z"/>
			</g>
			<g>
				<path class="st5" d="M167.9,316.4v0.4c2.5,0.5,3.9,0.3,5-0.1c0.6-0.2,1.2-0.4,2-0.4c1.5-0.2,3.2,0.1,4.5,0.4
					c0.8,0.1,1.5,0.3,1.9,0.3c0.8,0.1,2,0.1,3.1,0.1h2.3c0.8,0,2,0.3,3.1,0.4c1.1,0.1,2.1,0.2,2.7,0.2c1.4-0.1,2.7-0.5,3.8-1
					c1.2-0.5,2.4-1.1,3.3-1.5v-0.3c-1,0.5-2.2,1.1-3.4,1.6c-1.2,0.5-2.5,0.9-3.7,1c-0.6,0.1-1.5,0-2.6-0.2c-1.2-0.2-2.4-0.4-3.2-0.4
					h-2.4c-1.1,0-2.3,0-3-0.1c-0.4-0.1-1.1-0.2-1.9-0.3c-1.4-0.3-3.2-0.5-4.6-0.4c-0.8,0.1-1.4,0.3-2.1,0.5
					C171.6,316.8,169,317,167.9,316.4L167.9,316.4z"/>
				<path class="st5" d="M169.4,312.8L169.4,312.8c0-0.1,0-0.2,0.1-0.2c2.2,2,3.1,2.8,3.9,3.6c0.5,0.4,0.9,0.8,1.6,1.2
					c1.3,0.8,2.9,1.3,4.2,1.7c0.8,0.2,1.4,0.4,1.9,0.6c0.7,0.3,1.8,0.8,2.8,1.3c0.7,0.4,1.4,0.7,1.9,1c0.1,0,0.1,0.1,0.2,0.1
					c0.7,0.3,1.9,0.6,3,1c1,0.3,1.9,0.7,2.5,1c1.2,0.7,2.2,1.6,3.1,2.5c0.9,0.9,1.7,1.9,2.4,2.7c0,0,0,0.1-0.1,0.1
					c0,0,0,0.1-0.1,0.1c-0.8-0.8-1.6-1.8-2.5-2.7c-0.9-0.9-1.9-1.8-3.1-2.5c-0.5-0.3-1.4-0.6-2.4-1c-1.1-0.4-2.3-0.7-3.1-1.1
					c0,0-0.1,0-0.1-0.1c-0.6-0.3-1.2-0.6-2-1c-1-0.5-2-1.1-2.7-1.3c-0.4-0.1-1.1-0.3-1.8-0.5c-1.4-0.4-3.1-1-4.3-1.8
					c-0.7-0.4-1.2-0.8-1.7-1.3C172.3,315.4,171.4,314.6,169.4,312.8L169.4,312.8z"/>
				<path class="st5" d="M171.3,315.4v-0.3c2.6,1.5,3.7,1.9,4.8,2.5c0.6,0.3,1.1,0.5,1.9,0.7c1.4,0.3,3.2,0.3,4.5,0.1
					c0.8-0.1,1.5-0.1,2-0.2c0.8,0,2,0.1,3.1,0.2c0.8,0.1,1.5,0.2,2.1,0.2h0.2c0.8,0,2-0.1,3.2-0.1c1.1,0,2.1,0,2.7,0.1
					c1.3,0.3,2.6,0.8,3.7,1.5c0.5,0.3,0.7,0.4,1.1,0.6v0.3c-0.8-0.4,0,0-1.2-0.7c-1.2-0.6-2.4-1.2-3.7-1.4c-0.6-0.1-1.5-0.2-2.6-0.1
					c-1.2,0-2.5,0.1-3.3,0.1h-0.2c-0.6,0-1.4-0.1-2.2-0.2c-1.1-0.1-2.3-0.3-3-0.2c-0.5,0-1.1,0.1-1.9,0.1c-1.5,0.1-3.3,0.2-4.6-0.2
					c-0.8-0.2-1.4-0.4-2-0.7C175,317.3,173.9,316.9,171.3,315.4L171.3,315.4z"/>
				<path class="st5" d="M169.1,313.8v-0.3c2.8,0.3,3.9,0.7,5,1.1c0.6,0.2,1.2,0.4,1.9,0.6c1.4,0.3,3.2,0.4,4.5,0.5
					c0.8,0.1,1.4,0.1,1.9,0.2c0.8,0.1,1.9,0.5,3,0.8c0.8,0.2,1.5,0.5,2.1,0.6h0.2c0.7,0.2,1.9,0.3,3.1,0.3c1,0.1,2,0.1,2.6,0.3
					c1.3,0.3,2.6,0.7,3.7,1.1s2.3,0.8,3.3,0.9v0.3c-1-0.2-2.2-0.5-3.4-1c-1.2-0.4-2.4-0.8-3.7-1.1c-0.6-0.1-1.5-0.2-2.6-0.3
					c-1.2-0.1-2.4-0.2-3.2-0.4h-0.1c-0.6-0.1-1.4-0.4-2.1-0.6c-1.1-0.3-2.2-0.7-2.9-0.8c-0.4-0.1-1.1-0.1-1.9-0.2
					c-1.4-0.1-3.2-0.2-4.6-0.5c-0.8-0.2-1.4-0.4-2-0.6C172.9,314.5,171.8,314.1,169.1,313.8L169.1,313.8z"/>
				<path class="st5" d="M167.8,313C167.8,313,167.8,313.1,167.8,313c-0.1,0.1-0.1,0.2-0.2,0.2c2.7,1.2,3.9,1.5,5.2,1.8
					c0.7,0.1,1.3,0.3,2.1,0.5c1.5,0.5,3.1,1.3,4.3,2c0.7,0.4,1.4,0.7,1.8,0.9c0.7,0.3,2,0.6,3.2,0.9c0.8,0.2,1.6,0.4,2.2,0.6
					c0.1,0,0.1,0,0.2,0.1c0.8,0.3,1.9,0.8,3,1.4c1,0.5,1.9,1,2.6,1.2c1.4,0.5,2.7,0.8,4,1.1c1.3,0.3,2.5,0.6,3.5,1
					c0,0,0-0.1,0.1-0.1v-0.1c-1-0.4-2.3-0.7-3.6-1c-1.3-0.3-2.7-0.6-3.9-1.1c-0.6-0.2-1.5-0.7-2.5-1.2c-1.1-0.6-2.3-1.1-3.1-1.4
					h-0.2c-0.6-0.2-1.4-0.4-2.3-0.6c-1.2-0.3-2.4-0.6-3.1-0.9c-0.4-0.2-1.1-0.5-1.8-0.9c-1.3-0.7-3-1.5-4.4-2.1
					c-0.8-0.3-1.5-0.4-2.1-0.6C171.6,314.4,170.3,314.1,167.8,313L167.8,313z"/>
				<path class="st5" d="M167,313.4L167,313.4c0,0.1,0,0.2-0.1,0.2c2.9,0.8,4.1,0.9,5.4,1c0.7,0,1.3,0.1,2.1,0.2
					c1.5,0.3,3.3,0.8,4.6,1.3c0.8,0.3,1.5,0.5,1.9,0.6c0.8,0.2,2.1,0.3,3.3,0.4c0.8,0.1,1.6,0.2,2.2,0.2h0.2c0.8,0.1,2,0.5,3.2,0.9
					c1.1,0.3,2.1,0.7,2.7,0.8c1.4,0.3,2.8,0.4,4.1,0.5c1.3,0.1,2.6,0.2,3.6,0.4v-0.3c-1.1-0.3-2.4-0.3-3.7-0.4s-2.7-0.2-4-0.4
					c-0.6-0.1-1.6-0.4-2.6-0.8c-1.2-0.4-2.4-0.8-3.3-0.9h-0.2c-0.6-0.1-1.5-0.2-2.3-0.3c-1.2-0.1-2.4-0.2-3.2-0.4
					c-0.5-0.1-1.1-0.3-1.9-0.6c-1.4-0.5-3.2-1.1-4.7-1.3c-0.9-0.2-1.5-0.2-2.2-0.2C171,314.3,169.8,314.2,167,313.4L167,313.4z"/>
				<path class="st5" d="M166.9,315.7v-0.3c3,0.3,4.1,0.8,5.3,1.2c0.6,0.2,1.2,0.4,2,0.6c1.5,0.3,3.4,0.5,4.7,0.6
					c0.8,0.1,1.5,0.1,2,0.2c0.8,0.1,2,0.5,3.2,0.8c0.8,0.2,1.6,0.5,2.2,0.6h0.2c0.8,0.2,2,0.3,3.3,0.4c1.1,0.1,2.2,0.2,2.8,0.3
					c1.4,0.3,2.8,0.7,3.9,1.2c1.3,0.4,2.5,0.8,3.5,1v0.3c-1.1-0.2-2.3-0.6-3.6-1c-1.3-0.4-2.6-0.9-3.9-1.1c-0.6-0.1-1.6-0.2-2.7-0.3
					c-1.2-0.1-2.5-0.2-3.4-0.4h-0.2c-0.6-0.2-1.4-0.4-2.3-0.6c-1.2-0.4-2.4-0.7-3.1-0.8c-0.5-0.1-1.2-0.1-2-0.2
					c-1.5-0.1-3.4-0.2-4.8-0.6c-0.9-0.2-1.5-0.4-2.1-0.6C170.9,316.5,169.8,316,166.9,315.7L166.9,315.7z"/>
				<path class="st5" d="M167.3,314v-0.3c2.9,0.8,3.9,1.4,5.1,2c0.6,0.3,1.1,0.6,1.9,0.9c1.5,0.6,3.3,1,4.6,1.3
					c0.8,0.2,1.5,0.3,2,0.5c0.8,0.2,1.9,0.8,3,1.3c0.8,0.4,1.5,0.7,2.1,1c0.1,0,2.2,0.7,3.4,1c1.1,0.3,2.1,0.5,2.7,0.7
					c1.4,0.5,2.6,1.2,3.7,1.8s2.3,1.2,3.3,1.5v0.3c-1-0.3-2.2-0.9-3.4-1.5c-1.2-0.6-2.4-1.2-3.7-1.7c-0.6-0.2-1.6-0.5-2.6-0.7
					c-1.2-0.3-3.4-0.9-3.4-1c-0.6-0.2-1.4-0.6-2.1-1c-1.1-0.5-2.2-1.1-2.9-1.3c-0.4-0.1-1.1-0.3-1.9-0.5c-1.5-0.3-3.3-0.8-4.7-1.3
					c-0.8-0.3-1.4-0.6-2-0.9C171.1,315.3,170.1,314.7,167.3,314L167.3,314z"/>
			</g>
		</g>
		<g>
			<g>
				<path class="st11" d="M246.1,337.9c0.2,1.4,0.6,2.6,0.9,2.6c0.3,0,0.4-1.2,0.2-2.7c-0.2-1.4-0.6-2.6-0.9-2.6
					S245.9,336.4,246.1,337.9z"/>
				<path class="st12" d="M246.9,340.1c0.2,0,0.3-1,0.1-2.4c-0.2-1.3-0.5-2.3-0.7-2.3c-0.2,0-0.3,1-0.1,2.4S246.7,340.2,246.9,340.1
					z"/>
			</g>
			<g>
				<g>
					<g>
						<path class="st6" d="M258.8,334L258.8,334c0-0.1,0-0.2-0.1-0.3c-2.1,2.1-9.7,4.1-11.1,4.4c-0.8,0.2-1.4,0.3-1.9,0.5
							c-0.7,0.2-1.8,0.7-2.9,1.2c-0.7,0.3-1.4,0.6-1.9,0.9c-0.1,0-0.1,0-0.2,0.1c-0.7,0.3-1.9,0.5-3,0.9c-1,0.3-2,0.6-2.5,0.9
							c-1.2,0.7-2.2,1.5-3.2,2.5c-0.9,0.9-1.7,2-2.4,2.7c0,0,0,0.1,0.1,0.1c0,0,0,0.1,0.1,0.1c0.7-0.8,1.6-1.9,2.5-2.8
							c0.9-0.9,2-1.8,3.1-2.4c0.5-0.3,1.4-0.6,2.4-0.9c1.2-0.3,2.4-0.6,3.1-0.9c0,0,0.1,0,0.1-0.1c0.6-0.2,1.3-0.6,2-0.9
							c1-0.5,2.1-0.9,2.8-1.1c0.4-0.1,1.1-0.3,1.9-0.4C249.1,338.1,256.8,336,258.8,334L258.8,334z"/>
					</g>
					<g>
						<path class="st6" d="M255.3,338v0.3c-2.8-0.7-4-0.9-5.2-1.3c-0.6-0.2-1.2-0.3-2-0.3c-1.5-0.1-3.2,0.2-4.5,0.5
							c-0.8,0.2-1.4,0.3-1.9,0.4c-0.8,0.1-1.9,0.1-3.1,0.1h-2.3c-0.7,0.1-1.9,0.3-3.1,0.5c-1,0.2-2,0.3-2.7,0.3
							c-1.4-0.1-2.7-0.3-3.9-0.7c-1.2-0.4-2.4-0.9-3.4-1.2v-0.3c1,0.3,2.2,0.8,3.5,1.2c1.3,0.4,2.5,0.7,3.8,0.7
							c0.6,0,1.5-0.1,2.6-0.3c1.2-0.2,2.4-0.5,3.2-0.5h2.3c1.1,0,2.3,0,3-0.1c0.4-0.1,1.1-0.2,1.9-0.4c1.4-0.3,3.2-0.6,4.6-0.5
							c0.8,0,1.4,0.2,2.1,0.3C251.4,337,252.6,337.3,255.3,338L255.3,338z"/>
					</g>
					<g>
						<path class="st6" d="M255.4,336L255.4,336c0,0.2,0,0.2,0.1,0.3c-3-0.3-4.1-0.2-5.4-0.3c-0.6,0-1.2,0-2,0.2
							c-1.4,0.3-3,1-4.2,1.7c-0.7,0.4-1.3,0.7-1.7,0.9c-0.7,0.3-1.8,0.7-2.9,1c-0.7,0.2-1.5,0.5-2,0.7c-0.1,0-0.1,0-0.2,0.1
							c-0.7,0.3-1.8,0.9-2.9,1.4c-1,0.5-1.9,0.8-2.5,1c-1.3,0.3-2.7,0.3-3.9,0.2c-1.3-0.1-2.6-0.4-3.7-0.6v-0.3
							c1.1,0.2,2.4,0.5,3.7,0.6c1.3,0.1,2.7,0.1,3.9-0.2c0.6-0.1,1.5-0.5,2.4-0.9c1.1-0.5,2.2-1.1,2.9-1.4c0,0,0.1,0,0.1-0.1
							c0.6-0.2,1.3-0.4,2.1-0.7c1.1-0.3,2.2-0.7,2.8-1c0.4-0.2,1-0.5,1.7-0.9c1.3-0.7,2.9-1.5,4.3-1.8c0.8-0.2,1.4-0.2,2.1-0.2
							C251.4,335.8,252.5,335.7,255.4,336L255.4,336z"/>
					</g>
					<g>
						<path class="st6" d="M258.2,336.6L258.2,336.6c0,0.1,0,0.2,0.1,0.2c-2.7,0.8-6.3,1.1-7.1,1.3c-1.4,0.3-3.1,0.9-4.3,1.4
							c-0.7,0.3-1.4,0.5-1.8,0.6c-0.7,0.2-1.9,0.3-3.1,0.5c-0.8,0.1-1.5,0.2-2.1,0.3h-0.2c-0.7,0.1-1.9,0.5-3,0.9
							c-1,0.4-1.9,0.7-2.5,0.8c-1.3,0.3-2.7,0.4-3.9,0.5c-1.3,0.1-2.5,0.2-3.4,0.5v-0.3c1-0.3,2.2-0.4,3.5-0.5
							c1.3-0.1,2.6-0.2,3.8-0.5c0.6-0.1,1.5-0.4,2.5-0.8c1.1-0.4,2.3-0.8,3.1-1h0.1c0.6-0.1,1.4-0.2,2.2-0.3c1.1-0.1,2.3-0.3,3-0.4
							c0.4-0.1,1-0.3,1.8-0.6c1.3-0.5,3-1.1,4.4-1.4C251.9,337.7,255.5,337.4,258.2,336.6L258.2,336.6z"/>
					</g>
					<g>
						<path class="st6" d="M259.7,336.8v-0.3c-3,0-10.9,0.8-12.3,0.8c-0.8,0-1.5-0.1-2-0.1c-0.8,0-2.1,0.2-3.3,0.4
							c-0.8,0.1-1.6,0.3-2.2,0.3h-0.2c-0.8,0.1-2.1,0-3.3-0.1c-1.1-0.1-2.2-0.1-2.8-0.1c-1.4,0.1-2.8,0.4-4.1,0.6
							c-1.3,0.3-2.6,0.5-3.6,0.5v0.3c1.1,0,2.4-0.3,3.7-0.5c1.3-0.3,2.7-0.5,4-0.6c0.6,0,1.6,0,2.7,0.1c1.3,0.1,2.5,0.1,3.4,0.1h0.2
							c0.7-0.1,1.5-0.2,2.3-0.4c1.2-0.2,2.4-0.4,3.2-0.4c0.5,0,1.2,0,2,0.1C248.8,337.7,256.8,336.8,259.7,336.8L259.7,336.8z"/>
					</g>
					<g>
						<path class="st6" d="M260.1,336.2v-0.3c-3,0.4-10.7,2.5-12.1,2.7c-0.8,0.1-1.5,0.1-2,0.2c-0.8,0.1-2,0.5-3.2,0.9
							c-0.8,0.3-1.6,0.5-2.2,0.7c-0.1,0-0.1,0-0.2,0.1c-0.8,0.2-2,0.3-3.3,0.5c-1.1,0.1-2.2,0.2-2.8,0.4c-1.4,0.3-2.7,0.8-3.9,1.3
							c-1.3,0.5-2.5,0.9-3.5,1.1v0.3c1.1-0.2,2.3-0.6,3.6-1.1s2.6-0.9,3.8-1.2c0.6-0.1,1.6-0.2,2.7-0.4c1.2-0.1,2.5-0.3,3.4-0.5h0.2
							c0.6-0.2,1.4-0.4,2.3-0.7c1.1-0.4,2.3-0.8,3.1-0.9c0.5-0.1,1.2-0.1,2-0.2C249.5,338.8,257.3,336.7,260.1,336.2z"/>
					</g>
					<g>
						<path class="st6" d="M257.6,334.3L257.6,334.3c0,0.1,0,0.2,0.1,0.2c-2.9,0.9-6.6,1.2-7.5,1.4c-1.5,0.3-3.3,0.9-4.6,1.4
							c-0.8,0.3-1.4,0.5-1.9,0.6c-0.8,0.2-2,0.4-3.3,0.5c-0.8,0.1-1.6,0.2-2.2,0.3H238c-0.8,0.2-2,0.6-3.1,1c-1,0.4-2,0.7-2.7,0.8
							c-1.4,0.3-2.8,0.4-4.1,0.6c-1.3,0.1-2.6,0.2-3.6,0.5v-0.3c1.1-0.3,2.3-0.4,3.7-0.5c1.3-0.1,2.7-0.3,4-0.6
							c0.6-0.1,1.6-0.5,2.6-0.8c1.2-0.4,2.4-0.8,3.2-1h0.2c0.6-0.1,1.5-0.2,2.3-0.3c1.2-0.1,2.4-0.3,3.2-0.5
							c0.5-0.1,1.1-0.4,1.9-0.6c1.4-0.5,3.2-1.1,4.7-1.5C251.1,335.5,254.8,335.2,257.6,334.3z"/>
					</g>
					<g>
						<path class="st6" d="M255.8,337.7v0.3c-3-0.2-4.2-0.5-5.4-0.9c-0.6-0.2-1.2-0.3-2.1-0.5c-1.5-0.2-3.4-0.3-4.8-0.3
							c-0.8,0-1.5,0-2-0.1c-0.8-0.1-2-0.4-3.2-0.7c-0.8-0.2-1.6-0.4-2.2-0.5H236c-0.8-0.1-2.1-0.2-3.3-0.2c-1.1,0-2.2,0-2.8-0.1
							c-1.4-0.2-2.8-0.6-4-0.9s-2.5-0.7-3.5-0.8v-0.3c1.1,0.1,2.3,0.4,3.7,0.8c1.3,0.3,2.6,0.7,3.9,0.9c0.6,0.1,1.6,0.1,2.7,0.1
							c1.3,0,2.5,0,3.4,0.2h0.2c0.6,0.1,1.5,0.3,2.3,0.5c1.2,0.3,2.4,0.6,3.1,0.6c0.5,0,1.2,0,2,0.1c1.5,0,3.4,0,4.9,0.3
							c0.9,0.1,1.5,0.3,2.2,0.5C251.6,337.2,252.8,337.5,255.8,337.7L255.8,337.7z"/>
					</g>
				</g>
			</g>
		</g>
		<path class="st13" d="M178.1,314.2l-13.4-4.3c-3-1.4-6.8-3.6-11.3-6.5c-3.9-2.7-10.1-4.5-17.1-6.8c-18.2-5.7-43-13.5-50.4-39.9
			c-8.4-29.8-29.3-36.2-46.1-41.3c-13.7-4.1-23.6-7.2-24.4-20.3c-0.4-6.7,1.5-11.8,5.8-15.5c14.5-12.4,50.7-4.6,51.1-4.5l1.2-5.2
			c-1.6-0.4-39.2-8.5-55.7,5.7c-5.6,4.8-8.2,11.5-7.7,19.9c1.1,16.9,14.2,20.9,28.2,25.2c16.4,5,34.9,10.7,42.4,37.6
			c8.2,29.1,35.7,37.8,54,43.5c6.6,2.1,12.4,3.8,15.7,6.1c13.7,9.2,21.8,10.2,21.8,10.2l4.6,1.3c0,0-0.2-0.7,0.3-2.7
			C177.6,314.6,178.1,314.2,178.1,314.2L178.1,314.2z"/>
		<path class="st13" d="M380.7,137.7c-7.8,4.6-12.1,13.8-12.8,27.2c-1,19.6-5.5,30.1-11.8,44.6c-5.7,13.2-12.8,29.7-19.4,58.7
			c-6.7,29.4-28.4,38-45.9,44.9c-7.7,3.1-14.3,5.7-18.2,9.7c-9.4,9.8-17.5,10.9-17.5,10.9l-8.8,1.5c0,0,0.5,0.6,0.7,2.6
			c0.3,2-0.1,2.7-0.1,2.7l8.1-1.5c0,0,3.7-0.6,5.5-1.1c2.9-0.8,9.7-4.5,15.9-11.2c3-3.2,9.1-5.6,16.2-8.4
			c17.7-7,41.8-16.6,49.2-48.7c6.5-28.6,13.5-44.8,19.1-57.8c6.2-14.5,11.2-25.9,12.2-46.5c0.6-11.4,4-19.1,10.2-22.9
			c10.9-6.5,27.2,1.1,27.4,1.2l2.3-4.8C412.4,138.2,394,129.7,380.7,137.7L380.7,137.7z"/>
		<path class="st11" d="M246.4,335.5c0.2,0,0.5,1,0.7,2.3c0.1,1.2,0.1,2.2-0.1,2.3v0.3c0.3-0.2,0.3-1.3,0.2-2.7
			c-0.2-1.4-0.5-2.6-0.8-2.6L246.4,335.5L246.4,335.5z"/>
		<path class="st11" d="M176.9,319c-0.2-0.1-0.1-1.1,0.2-2.4c0.3-1.2,0.8-2,1-2.1l0.1-0.3c-0.3,0-0.8,1.1-1.2,2.4
			c-0.4,1.4-0.5,2.6-0.2,2.7L176.9,319L176.9,319z"/>
	</g>
</g>
<g id="compu" transform="matrix(1,0,0,1,0.2,0.4)">
	<g>
		<path class="st14" d="M324.2,156.4c0,4.2-3.5,7.7-7.7,7.7H98.7c-4.2,0-7.7-3.5-7.7-7.7V14.6c0-4.2,3.5-7.7,7.7-7.7h217.8
			c4.2,0,7.7,3.5,7.7,7.7V156.4z"/>
		<rect x="98.5" y="15.4" class="st15" width="218" height="140.2"/>
		<path class="st16" d="M68.5,177.6c-4.2-0.6-5.5-2.9-5.5-2.9l-5-7.2c-1.1-2.9,1.7-3.5,1.7-3.5h295.8c0,0,2.8,0.6,1.7,3.5l-5,7.2
			c0,0-1.3,2.3-5.5,2.9H68.5L68.5,177.6z"/>
		<path class="st17" d="M59,169l4,5.7c0,0,1.3,2.3,5.5,2.9h278c4.2-0.6,5.5-2.9,5.5-2.9l4-5.7H59z"/>
		<path class="st18" d="M174.1,6.9H98.7c-4.2,0-7.7,3.5-7.7,7.7v141.8c0,4.2,3.5,7.7,7.7,7.7h217.8c2.4,0,4.5-1.1,5.9-2.8
			C322.4,161.3,174.1,6.9,174.1,6.9z"/>
		<rect x="179.8" y="164.1" class="st19" width="55.5" height="7"/>
		<path class="st20" d="M210.3,11.6c0,1.6-1.3,2.8-2.8,2.8s-2.8-1.3-2.8-2.8s1.3-2.8,2.8-2.8S210.3,10.2,210.3,11.6z"/>
	</g>
</g>
<g id="medidor" transform="matrix(1,0,0,1,0.2,0.4)">
	
		<linearGradient id="SVGID_1_" gradientUnits="userSpaceOnUse" x1="-17.2015" y1="573.6854" x2="-16.2695" y2="573.6854" gradientTransform="matrix(9.343409e-15 -152.5892 -152.5892 -9.343409e-15 88003.4453 -2450.5371)">
		<stop  offset="0" style="stop-color:#7D7997"/>
		<stop  offset="1.000000e-02" style="stop-color:#7D7997"/>
		<stop  offset="0.97" style="stop-color:#DAC0C2"/>
		<stop  offset="1" style="stop-color:#DAC0C2"/>
	</linearGradient>
	<path class="st21" d="M525.3,174.2l9.3-138.4c0,0-69.2-10.7-121,3.7l-17.8,134.7H525.3z"/>
	
		<linearGradient id="SVGID_2_" gradientUnits="userSpaceOnUse" x1="-17.201" y1="573.7261" x2="-16.2693" y2="573.7261" gradientTransform="matrix(9.123015e-15 -148.9902 -148.9902 -9.123015e-15 86023.7891 -2388.1609)">
		<stop  offset="0" style="stop-color:#474A6A"/>
		<stop  offset="1.000000e-02" style="stop-color:#474A6A"/>
		<stop  offset="0.97" style="stop-color:#A28CA2"/>
		<stop  offset="1" style="stop-color:#A28CA2"/>
	</linearGradient>
	<path class="st22" d="M534.6,35.8l28.4,5v133.8l-37.7-0.4C525.3,174.2,534.6,35.8,534.6,35.8z"/>
	
		<linearGradient id="SVGID_3_" gradientUnits="userSpaceOnUse" x1="-17.2733" y1="573.7853" x2="-16.3422" y2="573.7853" gradientTransform="matrix(4.414913e-15 -72.101 -72.101 -4.414913e-15 41839.3086 -1140.1609)">
		<stop  offset="0" style="stop-color:#474A6A"/>
		<stop  offset="1.000000e-02" style="stop-color:#474A6A"/>
		<stop  offset="0.97" style="stop-color:#A28CA2"/>
		<stop  offset="1" style="stop-color:#A28CA2"/>
	</linearGradient>
	<path class="st23" d="M519.1,105.3H413.6l7.6-62c0,0,40.7-11.6,102.9,0L519.1,105.3z"/>
	
		<linearGradient id="SVGID_4_" gradientUnits="userSpaceOnUse" x1="-17.2764" y1="573.7963" x2="-16.3447" y2="573.7963" gradientTransform="matrix(4.237094e-15 -69.197 -69.197 -4.237094e-15 40176.8711 -1090.2114)">
		<stop  offset="0" style="stop-color:#00608B"/>
		<stop  offset="4.000000e-02" style="stop-color:#00608B"/>
		<stop  offset="0.99" style="stop-color:#002E4F"/>
		<stop  offset="1" style="stop-color:#002E4F"/>
	</linearGradient>
	<path class="st24" d="M523.9,46c0,0-48.6-11.6-97.2,0c0,0-9.2,27-6.1,59.3H519C519,105.3,523.9,46,523.9,46z"/>
	<path class="st25" d="M522.9,55.7c-0.6-0.1-59.1-8.1-98.6,0l-0.2-0.9c39.6-8.1,98.3-0.1,98.9,0L522.9,55.7z"/>
	<path class="st25" d="M522,69.3c-0.5-0.1-51.9-5.7-100-2l-0.1-1c48.2-3.7,99.7,1.9,100.1,2V69.3z"/>
	<path class="st25" d="M520.9,83.2c-0.6,0-63.7-3.9-100.4-2.6v-1c36.8-1.4,99.9,2.6,100.5,2.6L520.9,83.2L520.9,83.2z"/>
	<g transform="matrix(0.0198798,-0.9998,0.9998,0.0198798,367.087,566.837)">
		
			<rect x="471.1" y="44" transform="matrix(-1 2.736332e-06 -2.736332e-06 -1 943.152 187.2277)" class="st26" width="1" height="99.3"/>
	</g>
	<path class="st25" d="M501.7,105.3h-1c1.1-22.8,4.2-62.1,4.3-62.5l1,0.1C505.9,43.3,502.8,82.5,501.7,105.3z"/>
	<path class="st25" d="M443.8,105.3l-1-0.1c2.6-33.5,7.9-63.1,7.9-63.4l0.9,0.2C451.7,42.2,446.4,71.8,443.8,105.3z"/>
	<path class="st27" d="M512.7,98.3l-4.7-1l2.4-31.8l-8.6-1.5l-1,15.9h-3.2L496,94l-5.2,0.3V78.5l-7-0.4v16.2h-4.7V68.8h-10.3
		l-3.7,25.6l-3.8,0.2v-3.2h-2.8v3l-3,0.4l-10.1-0.4v-4.7l-9.9,0.4v4.3h-5.2c0,0,0.1-18.8,2.2-33.3l-7.4,0.9c0,0-3.5,14.7-3.3,34.4
		L512.7,98.3L512.7,98.3z"/>
	
		<linearGradient id="SVGID_5_" gradientUnits="userSpaceOnUse" x1="-17.201" y1="573.6859" x2="-16.2683" y2="573.6859" gradientTransform="matrix(9.330767e-15 -152.3827 -152.3827 -9.330767e-15 87885.4922 -2446.408)">
		<stop  offset="0" style="stop-color:#474A6A"/>
		<stop  offset="1.000000e-02" style="stop-color:#474A6A"/>
		<stop  offset="0.97" style="stop-color:#A28CA2"/>
		<stop  offset="1" style="stop-color:#A28CA2"/>
	</linearGradient>
	<path class="st28" d="M520.6,174.7l-1.9-0.2c5.2-52,12.6-130.4,11.7-136c-5.1-2.6-84.8-8.8-113.9,3.4c-2.8,4.6-11,81.5-15.7,132.3
		l-1.9-0.2c3.7-39.7,12.9-132.2,16.7-133.9c29.7-12.5,113.9-6.5,116.3-2.8C534,40.5,523.8,143.3,520.6,174.7L520.6,174.7z"/>
	<path class="st29" d="M512.7,122c0,0,6.9,7.7,1.8,16.9c0,0-6.6,1-11-6.9C500,125.4,512.7,122,512.7,122z"/>
	
		<linearGradient id="SVGID_6_" gradientUnits="userSpaceOnUse" x1="-17.3831" y1="574.5502" x2="-16.4513" y2="574.5502" gradientTransform="matrix(1.041575e-15 -17.0102 -17.0102 -1.041575e-15 10281.1924 -160.8831)">
		<stop  offset="0" style="stop-color:#313458"/>
		<stop  offset="1.000000e-02" style="stop-color:#313458"/>
		<stop  offset="0.97" style="stop-color:#7A7388"/>
		<stop  offset="1" style="stop-color:#7A7388"/>
	</linearGradient>
	<path class="st30" d="M503.8,121.1c0,0,2-2.1,4.8-2.1c0,0,5.5,1.4,5.2,7.9c-0.4,7.9-5.9,7.9-5.9,7.9s-4.7-1-5.8-5.7
		C501.5,126.2,503.8,121.1,503.8,121.1z"/>
	
		<linearGradient id="SVGID_7_" gradientUnits="userSpaceOnUse" x1="-17.4237" y1="574.7169" x2="-16.4924" y2="574.7169" gradientTransform="matrix(8.822584e-16 -14.4084 -14.4084 -8.822584e-16 8787.0342 -117.7322)">
		<stop  offset="0" style="stop-color:#5E617D"/>
		<stop  offset="1.000000e-02" style="stop-color:#5E617D"/>
		<stop  offset="0.97" style="stop-color:#82718C"/>
		<stop  offset="1" style="stop-color:#82718C"/>
	</linearGradient>
	<path class="st31" d="M501.8,126.6c0,3.7,2.1,6.7,4.5,6.7c2.5,0,4.5-3,4.5-6.7c0-3.7-2.1-6.7-4.5-6.7
		C503.8,119.9,501.8,122.9,501.8,126.6z"/>
	<path class="st29" d="M482.9,122c0,0,6.9,7.7,1.8,16.9c0,0-6.6,1-11-6.9C470.2,125.4,482.9,122,482.9,122L482.9,122z"/>
	
		<linearGradient id="SVGID_8_" gradientUnits="userSpaceOnUse" x1="-17.3831" y1="574.423" x2="-16.4513" y2="574.423" gradientTransform="matrix(1.041575e-15 -17.0102 -17.0102 -1.041575e-15 10249.2334 -160.8831)">
		<stop  offset="0" style="stop-color:#313458"/>
		<stop  offset="1.000000e-02" style="stop-color:#313458"/>
		<stop  offset="0.97" style="stop-color:#7A7388"/>
		<stop  offset="1" style="stop-color:#7A7388"/>
	</linearGradient>
	<path class="st32" d="M474,121.1c0,0,2-2.1,4.8-2.1c0,0,5.5,1.4,5.2,7.9c-0.4,7.9-5.9,7.9-5.9,7.9s-4.7-1-5.8-5.7
		C471.7,126.2,474,121.1,474,121.1z"/>
	
		<linearGradient id="SVGID_9_" gradientUnits="userSpaceOnUse" x1="-17.4237" y1="574.5668" x2="-16.4924" y2="574.5668" gradientTransform="matrix(8.822584e-16 -14.4084 -14.4084 -8.822584e-16 8755.0742 -117.7322)">
		<stop  offset="0" style="stop-color:#5E617D"/>
		<stop  offset="1.000000e-02" style="stop-color:#5E617D"/>
		<stop  offset="0.97" style="stop-color:#82718C"/>
		<stop  offset="1" style="stop-color:#82718C"/>
	</linearGradient>
	<path class="st33" d="M472,126.6c0,3.7,2.1,6.7,4.5,6.7c2.5,0,4.5-3,4.5-6.7c0-3.7-2.1-6.7-4.5-6.7C474,119.9,472,122.9,472,126.6z
		"/>
	<path class="st29" d="M453.2,122c0,0,6.9,7.7,1.8,16.9c0,0-6.6,1-11-6.9C440.4,125.4,453.2,122,453.2,122L453.2,122z"/>
	
		<linearGradient id="SVGID_10_" gradientUnits="userSpaceOnUse" x1="-17.3831" y1="574.2958" x2="-16.4513" y2="574.2958" gradientTransform="matrix(1.041575e-15 -17.0102 -17.0102 -1.041575e-15 10217.2725 -160.8831)">
		<stop  offset="0" style="stop-color:#313458"/>
		<stop  offset="1.000000e-02" style="stop-color:#313458"/>
		<stop  offset="0.97" style="stop-color:#7A7388"/>
		<stop  offset="1" style="stop-color:#7A7388"/>
	</linearGradient>
	<path class="st34" d="M444.2,121.1c0,0,2-2.1,4.8-2.1c0,0,5.5,1.4,5.2,7.9c-0.4,7.9-5.9,7.9-5.9,7.9s-4.7-1-5.8-5.7
		C441.9,126.2,444.2,121.1,444.2,121.1z"/>
	
		<linearGradient id="SVGID_11_" gradientUnits="userSpaceOnUse" x1="-17.4237" y1="574.4167" x2="-16.4924" y2="574.4167" gradientTransform="matrix(8.822584e-16 -14.4084 -14.4084 -8.822584e-16 8723.1133 -117.7322)">
		<stop  offset="0" style="stop-color:#5E617D"/>
		<stop  offset="1.000000e-02" style="stop-color:#5E617D"/>
		<stop  offset="0.97" style="stop-color:#82718C"/>
		<stop  offset="1" style="stop-color:#82718C"/>
	</linearGradient>
	<path class="st35" d="M442.2,126.6c0,3.7,2.1,6.7,4.5,6.7c2.5,0,4.5-3,4.5-6.7c0-3.7-2.1-6.7-4.5-6.7
		C444.2,119.9,442.2,122.9,442.2,126.6z"/>
	<path class="st29" d="M423.4,122c0,0,6.9,7.7,1.8,16.9c0,0-6.6,1-11-6.9C410.6,125.4,423.4,122,423.4,122L423.4,122z"/>
	
		<linearGradient id="SVGID_12_" gradientUnits="userSpaceOnUse" x1="-17.3831" y1="574.1687" x2="-16.4513" y2="574.1687" gradientTransform="matrix(1.041575e-15 -17.0102 -17.0102 -1.041575e-15 10185.3125 -160.8831)">
		<stop  offset="0" style="stop-color:#313458"/>
		<stop  offset="1.000000e-02" style="stop-color:#313458"/>
		<stop  offset="0.97" style="stop-color:#7A7388"/>
		<stop  offset="1" style="stop-color:#7A7388"/>
	</linearGradient>
	<path class="st36" d="M414.4,121.1c0,0,2-2.1,4.8-2.1c0,0,5.5,1.4,5.2,7.9c-0.4,7.9-5.9,7.9-5.9,7.9s-4.7-1-5.8-5.7
		C412.1,126.2,414.4,121.1,414.4,121.1z"/>
	
		<linearGradient id="SVGID_13_" gradientUnits="userSpaceOnUse" x1="-17.4237" y1="574.2596" x2="-16.4924" y2="574.2596" gradientTransform="matrix(8.822584e-16 -14.4084 -14.4084 -8.822584e-16 8691.1533 -117.7322)">
		<stop  offset="0" style="stop-color:#5E617D"/>
		<stop  offset="1.000000e-02" style="stop-color:#5E617D"/>
		<stop  offset="0.97" style="stop-color:#82718C"/>
		<stop  offset="1" style="stop-color:#82718C"/>
	</linearGradient>
	<path class="st37" d="M412.5,126.6c0,3.7,2.1,6.7,4.5,6.7s4.5-3,4.5-6.7c0-3.7-2.1-6.7-4.5-6.7S412.5,122.9,412.5,126.6z"/>
	<path class="st29" d="M511.1,155.7c0,0,6.7,8,1.3,17c0,0-6.6,0.8-10.7-7.2C498.3,158.6,511.1,155.7,511.1,155.7z"/>
	
		<linearGradient id="SVGID_14_" gradientUnits="userSpaceOnUse" x1="-17.2691" y1="574.5428" x2="-16.3372" y2="574.5428" gradientTransform="matrix(0.5307 -17.002 -17.002 -0.5307 10283.4697 179.6287)">
		<stop  offset="0" style="stop-color:#313458"/>
		<stop  offset="1.000000e-02" style="stop-color:#313458"/>
		<stop  offset="0.97" style="stop-color:#7A7388"/>
		<stop  offset="1" style="stop-color:#7A7388"/>
	</linearGradient>
	<path class="st38" d="M502.3,154.4c0,0,2.1-2,4.9-1.9c0,0,5.5,1.5,4.9,8.1c-0.7,7.9-6.2,7.7-6.2,7.7s-4.7-1.2-5.6-5.9
		C499.8,159.5,502.3,154.4,502.3,154.4z"/>
	
		<linearGradient id="SVGID_15_" gradientUnits="userSpaceOnUse" x1="-17.2884" y1="574.7025" x2="-16.3565" y2="574.7025" gradientTransform="matrix(0.4496 -14.4015 -14.4015 -0.4496 8788.7559 176.1406)">
		<stop  offset="0" style="stop-color:#5E617D"/>
		<stop  offset="1.000000e-02" style="stop-color:#5E617D"/>
		<stop  offset="0.97" style="stop-color:#82718C"/>
		<stop  offset="1" style="stop-color:#82718C"/>
	</linearGradient>
	<path class="st39" d="M500.1,159.9c-0.1,3.7,1.8,6.8,4.3,6.8c2.5,0.1,4.6-2.9,4.7-6.6c0.1-3.7-1.8-6.8-4.3-6.8
		C502.4,153.2,500.2,156.2,500.1,159.9z"/>
	<path class="st29" d="M481.4,154.7c0,0,6.7,8,1.3,17c0,0-6.6,0.8-10.7-7.2C468.5,157.7,481.4,154.7,481.4,154.7z"/>
	
		<linearGradient id="SVGID_16_" gradientUnits="userSpaceOnUse" x1="-17.2685" y1="574.4167" x2="-16.3367" y2="574.4167" gradientTransform="matrix(0.5307 -17.0018 -17.0018 -0.5307 10251.4658 178.6291)">
		<stop  offset="0" style="stop-color:#313458"/>
		<stop  offset="1.000000e-02" style="stop-color:#313458"/>
		<stop  offset="0.97" style="stop-color:#7A7388"/>
		<stop  offset="1" style="stop-color:#7A7388"/>
	</linearGradient>
	<path class="st40" d="M472.5,153.4c0,0,2.1-2,4.9-1.9c0,0,5.5,1.5,4.9,8.1c-0.7,7.9-6.2,7.7-6.2,7.7s-4.7-1.2-5.6-5.9
		C470,158.5,472.5,153.4,472.5,153.4z"/>
	
		<linearGradient id="SVGID_17_" gradientUnits="userSpaceOnUse" x1="-17.2884" y1="574.5535" x2="-16.3565" y2="574.5535" gradientTransform="matrix(0.4495 -14.4014 -14.4014 -0.4495 8756.751 175.1422)">
		<stop  offset="0" style="stop-color:#5E617D"/>
		<stop  offset="1.000000e-02" style="stop-color:#5E617D"/>
		<stop  offset="0.97" style="stop-color:#82718C"/>
		<stop  offset="1" style="stop-color:#82718C"/>
	</linearGradient>
	<path class="st41" d="M470.3,158.9c-0.1,3.7,1.8,6.8,4.3,6.8c2.5,0.1,4.6-2.9,4.7-6.6c0.1-3.7-1.8-6.8-4.3-6.8
		C472.6,152.3,470.4,155.3,470.3,158.9z"/>
	<path class="st29" d="M451.6,153.8c0,0,6.7,8,1.3,17c0,0-6.6,0.8-10.7-7.2C438.7,156.8,451.6,153.8,451.6,153.8z"/>
	
		<linearGradient id="SVGID_18_" gradientUnits="userSpaceOnUse" x1="-17.2682" y1="574.2853" x2="-16.3364" y2="574.2853" gradientTransform="matrix(0.5307 -17.0018 -17.0018 -0.5307 10219.5215 177.6317)">
		<stop  offset="0" style="stop-color:#313458"/>
		<stop  offset="1.000000e-02" style="stop-color:#313458"/>
		<stop  offset="0.97" style="stop-color:#7A7388"/>
		<stop  offset="1" style="stop-color:#7A7388"/>
	</linearGradient>
	<path class="st42" d="M442.8,152.5c0,0,2.1-2,4.9-1.9c0,0,5.5,1.5,4.9,8.1c-0.7,7.9-6.2,7.7-6.2,7.7s-4.7-1.2-5.6-5.9
		C440.2,157.7,442.8,152.5,442.8,152.5z"/>
	
		<linearGradient id="SVGID_19_" gradientUnits="userSpaceOnUse" x1="-17.2884" y1="574.4043" x2="-16.3565" y2="574.4043" gradientTransform="matrix(0.4495 -14.4014 -14.4014 -0.4495 8724.8057 174.1437)">
		<stop  offset="0" style="stop-color:#5E617D"/>
		<stop  offset="1.000000e-02" style="stop-color:#5E617D"/>
		<stop  offset="0.97" style="stop-color:#82718C"/>
		<stop  offset="1" style="stop-color:#82718C"/>
	</linearGradient>
	<path class="st43" d="M440.5,158c-0.1,3.7,1.8,6.8,4.3,6.8c2.5,0.1,4.6-2.9,4.7-6.6s-1.8-6.8-4.3-6.8
		C442.8,151.4,440.7,154.3,440.5,158z"/>
	<path class="st29" d="M421.8,152.9c0,0,6.7,8,1.3,17c0,0-6.6,0.8-10.7-7.2C409,155.8,421.8,152.9,421.8,152.9z"/>
	
		<linearGradient id="SVGID_20_" gradientUnits="userSpaceOnUse" x1="-17.2685" y1="574.1581" x2="-16.3367" y2="574.1581" gradientTransform="matrix(0.5307 -17.0018 -17.0018 -0.5307 10187.5762 176.6333)">
		<stop  offset="0" style="stop-color:#313458"/>
		<stop  offset="1.000000e-02" style="stop-color:#313458"/>
		<stop  offset="0.97" style="stop-color:#7A7388"/>
		<stop  offset="1" style="stop-color:#7A7388"/>
	</linearGradient>
	<path class="st44" d="M413,151.6c0,0,2.1-2,4.9-1.9c0,0,5.5,1.5,4.9,8.1c-0.7,7.9-6.2,7.7-6.2,7.7s-4.7-1.2-5.6-5.9
		C410.5,156.7,413,151.6,413,151.6z"/>
	
		<linearGradient id="SVGID_21_" gradientUnits="userSpaceOnUse" x1="-17.2885" y1="574.2482" x2="-16.3566" y2="574.2482" gradientTransform="matrix(0.4495 -14.4014 -14.4014 -0.4495 8692.8613 173.1452)">
		<stop  offset="0" style="stop-color:#5E617D"/>
		<stop  offset="1.000000e-02" style="stop-color:#5E617D"/>
		<stop  offset="0.97" style="stop-color:#82718C"/>
		<stop  offset="1" style="stop-color:#82718C"/>
	</linearGradient>
	<path class="st45" d="M410.8,157.2c-0.1,3.7,1.8,6.8,4.3,6.8c2.5,0.1,4.6-2.9,4.7-6.6c0.1-3.7-1.8-6.8-4.3-6.8
		C413,150.5,410.9,153.4,410.8,157.2z"/>
	<polygon class="st46" points="563,119 530,104.3 525.3,174.2 563,174.6 	"/>
	
		<linearGradient id="SVGID_22_" gradientUnits="userSpaceOnUse" x1="-18.0466" y1="575.8662" x2="-17.1148" y2="575.8662" gradientTransform="matrix(3.426819e-16 -5.5964 -5.5964 -3.426819e-16 3682.3198 11.615)">
		<stop  offset="0" style="stop-color:#313458"/>
		<stop  offset="1.000000e-02" style="stop-color:#313458"/>
		<stop  offset="0.97" style="stop-color:#7A7388"/>
		<stop  offset="1" style="stop-color:#7A7388"/>
	</linearGradient>
	<path class="st47" d="M451.7,110c0,1.5,3.5,2.6,7.8,2.6s7.8-1.2,7.8-2.6c0-1.5-3.5-2.6-7.8-2.6S451.7,108.5,451.7,110z"/>
	
		<linearGradient id="SVGID_23_" gradientUnits="userSpaceOnUse" x1="-17.2743" y1="573.7857" x2="-16.3429" y2="573.7857" gradientTransform="matrix(4.268954e-15 -69.7173 -69.7173 -4.268954e-15 40465.6953 -1098.1686)">
		<stop  offset="0" style="stop-color:#00BDF2;stop-opacity:0.15"/>
		<stop  offset="1" style="stop-color:#FFFFFF;stop-opacity:0.15"/>
		<stop  offset="1" style="stop-color:#FFFFFF;stop-opacity:0.15"/>
	</linearGradient>
	<path class="st48" d="M505.4,42.8c0,0-37.1,12.9-62.9,63.3l-21.9-0.9c0,0-1.7-33.5,6.1-59.3C426.7,46,458.7,37.9,505.4,42.8z"/>
</g>
</svg>
