<?xml version="1.0" encoding="UTF-8" standalone="no"?>
<!DOCTYPE svg PUBLIC "-//W3C//DTD SVG 1.1//EN" "http://www.w3.org/Graphics/SVG/1.1/DTD/svg11.dtd">
<svg width="100%" height="100%" viewBox="0 0 218 430" version="1.1" xmlns="http://www.w3.org/2000/svg" xmlns:xlink="http://www.w3.org/1999/xlink" xml:space="preserve" xmlns:serif="http://www.serif.com/" style="fill-rule:evenodd;clip-rule:evenodd;stroke-linejoin:round;stroke-miterlimit:2;">
    <g>
        <g>
            <path d="M65.7,288c19.8,-35.4 78.1,-43.4 101.3,-14.7c26.2,51.5 6.2,178.8 4.5,189.8c-1.7,11 5.5,12.7 4.6,36.3c-0.8,23.6 -13.1,50.1 -22.4,89.8l-22.3,1c11,-68.1 15.9,-240.2 -8.5,-230.4c-12.7,5.1 -35.9,93.3 -37.5,103.4c-1.7,10.1 3.8,16.9 0.4,36.3c-3.4,19.4 -35.5,89.8 -35.5,89.8l-21.5,0c38.4,-144.9 45,-298.8 36.9,-301.3Z" style="fill:#513b3e;fill-rule:nonzero;"/>
            <g>
                <path d="M166.5,463c1.7,-11 2.8,-127.3 -9.2,-149.7c-13.3,-39.2 5.3,-49.7 11.3,-42.3c26.2,51.5 4.6,181 3,192c-1.7,11 5.5,12.7 4.6,36.3c-0.8,23.6 -13.1,50.1 -22.4,89.8l-5.1,0c9.3,-39.7 21.5,-66.1 22.4,-89.8c0.9,-23.6 -6.3,-25.3 -4.6,-36.3Z" style="fill:#422e31;fill-rule:nonzero;"/>
                <path d="M80.4,463c1.7,-10.1 24.9,-98.4 37.5,-103.4c2.2,-0.9 4.3,-1 6.2,-0.4c-0.4,0.1 -0.8,0.2 -1.2,0.4c-12.7,5.1 -35.9,93.3 -37.5,103.4c-1.7,10.1 3.8,16.9 0.4,36.3c-3.4,19.4 -35.5,89.8 -35.5,89.8l-5.1,0c0,0 32.1,-70.4 35.5,-89.8c3.5,-19.4 -2,-26.1 -0.3,-36.3Z" style="fill:#422e31;fill-rule:nonzero;"/>
            </g>
            <path d="M140.3,346.4c-4.2,4.5 -23.9,13.8 -40.8,8.4c0,0 9.3,9.8 24.5,4.8c15.2,-5 16.3,-13.2 16.3,-13.2Z" style="fill:#422e31;fill-rule:nonzero;"/>
        </g>
        <path d="M146.3,100.7c26.5,-23.8 42.3,-52.3 38.6,-59.3c-3.7,-6.9 -10.2,-8 -10.2,-8c0,0 8.8,-6.2 -4.8,-16.1c-13.5,-9.9 -53.8,-21.6 -69.9,-7.3c-16.1,14.3 -3.3,73.5 -3.3,73.5l49.6,17.2Z" style="fill:#98393e;fill-rule:nonzero;"/>
        <path d="M129.3,20.9c25,0 38.4,10.3 38.4,-1.8c0,-1.3 -0.3,-2.5 -0.7,-3.7c1.1,0.6 2,1.3 2.9,1.9c13.5,9.9 4.8,16.1 4.8,16.1c0,0 6.6,1.1 10.2,8c3.7,6.9 -12.1,35.5 -38.6,59.3l-49.5,-17.2c0,0 -5.7,-26.3 -4.7,-48.1c8,3.5 25.6,-14.5 37.2,-14.5Z" style="fill:#832a33;fill-rule:nonzero;"/>
        <path d="M171.6,280.2c5.4,-32.2 16.7,-128.2 14.8,-134.1c-2,-5.9 -48.9,-29.7 -59.1,-27.8c-10.2,2 -55.6,13.2 -61.4,21.5c-5.9,8.3 -0.5,142.4 -0.5,142.4l106.2,-2Z" style="fill:#513b3e;fill-rule:nonzero;"/>
        <g>
            <path d="M66,174.2c3.2,46.5 20,79.9 49.7,82.4c50.9,4.2 49,-51.2 67.8,-93.8c-1.7,26.6 2.7,147.1 -0.9,157.3c-3.6,10.2 -113.7,13.1 -115.9,1.5c-2.2,-11.7 -3.6,-94.7 -3.7,-136.4c0.1,-23.3 2.1,-25.2 3,-11Z" style="fill:#422e31;fill-rule:nonzero;"/>
        </g>
        <path d="M122,239.3c-1.2,-0.6 -7.4,-6.1 -9.4,-7.2c-2,-1.1 -4.6,2.2 -4.1,4c0.5,1.8 4.6,5.6 7.3,8.7c2.5,2.8 8.8,6 13.7,7.2l3.8,-7c0,0.1 -10.1,-5.1 -11.3,-5.7Z" style="fill:#ff9466;fill-rule:nonzero;"/>
        <path d="M112.6,234.2c-0.6,1.8 -4.9,5.3 -7.8,8.3c-2.6,2.7 -9.1,5.5 -14.1,6.5l-3.4,-7.2c0,0 10.4,-4.6 11.7,-5.2c1.3,-0.6 7.7,-5.7 9.8,-6.7c2,-1 4.4,2.5 3.8,4.3Z" style="fill:#ffb781;fill-rule:nonzero;"/>
        <path d="M95.1,238.3c-1.2,2.5 2.7,7 12.7,-0.9c1.9,-1.5 3.6,-2 4.8,-3.6l0,0.4c-0.6,1.8 -4.9,5.3 -7.8,8.3c-2.6,2.7 -9.1,5.5 -14.1,6.5l-3.4,-7.2c-0.1,0 4.4,-2 7.8,-3.5Z" style="fill:#ff9466;fill-rule:nonzero;"/>
        <path d="M90.8,245.3c5,-0.4 11.8,-3.1 14,-2c2.2,1.1 5.8,22.7 5,26.6c-0.8,3.9 -22.6,-3 -22.6,-3l3.6,-21.6Z" style="fill:#ff9466;fill-rule:nonzero;"/>
        <path d="M131.3,245.3c-4.6,-0.4 -10.8,-3.1 -12.8,-2c-2,1.1 -5.3,22.7 -4.6,26.6c0.7,3.9 22.8,-3.7 22.8,-3.7l-5.4,-20.9Z" style="fill:#ffb781;fill-rule:nonzero;"/>
        <path d="M98.6,266c1.3,-1.3 7.9,-2 9.9,-2.1c2,-0.1 9.5,-0.6 14.8,0.1l-2.9,7.5c0,0 -9.7,-0.8 -11.1,-0.8c-1.4,-0.1 -7,0.8 -9.3,0.8c-2.2,0 -2.7,-4.2 -1.4,-5.5Z" style="fill:#ffb781;fill-rule:nonzero;"/>
        <path d="M99.2,242.7c1.5,-1.2 9,-2.4 11.1,-2.7c2,-0.2 9,1.8 13.7,3.7l-3.6,7.1c0,0 -9.5,-3.4 -10.9,-3.6c-1.4,-0.2 -7.1,1.5 -9.4,1.1c-2.3,-0.2 -2.4,-4.5 -0.9,-5.6Z" style="fill:#ffb781;fill-rule:nonzero;"/>
        <path d="M120.7,244.3c-1.6,-1.1 -8.1,-0.4 -10.1,-0.1c-2,0.3 -8.6,1.9 -13.7,3.7l3.4,6.4c0,0 9.4,-2.7 10.7,-3c1.3,-0.3 7.1,-0.6 9.3,-1.1c2.4,-0.5 2,-4.8 0.4,-5.9Z" style="fill:#ff9466;fill-rule:nonzero;"/>
        <path d="M142.5,240.5l-12.5,0.2l3.9,30.3l10.3,-0.5l-1.7,-30Z" style="fill:#f1eddc;fill-rule:nonzero;"/>
        <path d="M120.6,244.6c-1.6,-1.1 -8.1,-0.4 -10.1,-0.1c-2,0.3 -8.6,1.9 -13.7,3.7l3.4,6.4c0,0 9.4,-2.7 10.7,-3c1.3,-0.3 7.1,-0.6 9.3,-1.1c2.3,-0.5 2,-4.8 0.4,-5.9Z" style="fill:#ffb781;fill-rule:nonzero;"/>
        <path d="M109.4,244.7c-0.6,0.5 -1,1.1 -1,1.8c0,2 3.6,2.3 7.7,2.3c2.4,0 4.3,0.8 5.7,-0.1c-0.2,0.9 -0.7,1.6 -1.5,1.8c-2.3,0.5 -8,0.8 -9.3,1.1c-1.3,0.3 -10.7,3 -10.7,3l-3.4,-6.4c4.3,-1.5 9.7,-2.9 12.5,-3.5Z" style="fill:#ff9466;fill-rule:nonzero;"/>
        <path d="M122.7,262.9c-1.3,1.3 -7.9,2 -9.9,2.1c-2,0.1 -9.5,0.6 -14.9,-0.1l2.8,-7.6c0,0 9.7,0.8 11.1,0.8c1.4,0 7,-0.8 9.3,-0.8c2.4,0.1 2.9,4.3 1.6,5.6Z" style="fill:#ff9466;fill-rule:nonzero;"/>
        <path d="M122.7,262.9c-1.3,1.3 -7.9,2 -9.9,2.1c-2,0.1 -9.5,0.6 -14.9,-0.1l2.8,-7.6c0,0 9.7,0.8 11.1,0.8c1.4,0 7,-0.8 9.3,-0.8c2.4,0.1 2.9,4.3 1.6,5.6Z" style="fill:#ff9466;fill-rule:nonzero;"/>
        <path d="M113.4,262.2c-0.2,-1.6 3.4,-4.2 6.3,-4.5c2.8,-0.3 3.2,0.8 3.4,2.5c0.2,1.6 0.1,3.1 -2.8,3.4c-2.9,0.3 -6.8,0.2 -6.9,-1.4Z" style="fill:#ffb781;fill-rule:nonzero;"/>
        <path d="M100.6,255.7c1.1,-1.5 8.2,-4.7 10.1,-5.5c1.9,-0.7 9.1,-0.6 14.1,0l-1.5,6.5c0,0 -9.6,1.3 -11,1.4c-1.4,0.1 -7.2,2.5 -9.5,2.8c-2.2,0.3 -3.3,-3.7 -2.2,-5.2Z" style="fill:#ffb781;fill-rule:nonzero;"/>
        <path d="M90.9,240.5l-12.4,0.2l3.9,30.3l10.2,-0.5l-1.7,-30Z" style="fill:#f1eddc;fill-rule:nonzero;"/>
        <path d="M54,237.4c0.1,-4.5 9.8,-16.9 12.1,-28.9c5.9,-31.3 8.9,-76.4 0.8,-70c-11.3,8.8 -56,92.2 -56.2,127.6l75.2,5.7l-0.8,-36.5l-31.1,2.1Z" style="fill:#513b3e;fill-rule:nonzero;"/>
        <path d="M66.8,138.5c0.2,-0.1 0.3,-0.2 0.5,-0.3c-16.9,24 -57.7,114.8 -52.1,123.5c5.6,8.8 70.4,1.8 70.4,1.8l0.2,8.2c0,0 -73.2,5.5 -78.1,-5.7c-4.9,-11 47.9,-118.7 59.1,-127.5Z" style="fill:#422e31;fill-rule:nonzero;"/>
        <path d="M49.2,240c0,0 13.5,-27.2 20.5,-55.6c-1,8.2 -2.3,24.1 -3.8,31.6c-3.3,9.9 -6.7,16.5 -8.4,20.4l6,0.8l-14.3,2.8Z" style="fill:#422e31;fill-rule:nonzero;"/>
        <path d="M168.9,234.5c0.6,-5.1 -0.3,-20.6 1.2,-33.9c3.1,-28.4 9.9,-60.2 16.4,-54.4c9.6,8.6 24.1,83.1 19.5,117.8l-63.4,7.5l-4.4,-37.5l30.7,0.5Z" style="fill:#513b3e;fill-rule:nonzero;"/>
        <path d="M200.4,259.9c8.5,-6.2 -4.2,-88.8 -13.2,-113c9.8,11.8 30,115.8 21,120.7c-9,4.9 -65.6,3.8 -65.6,3.8l-0.9,-7.6c-0.1,0 50.3,2.3 58.7,-3.9Z" style="fill:#422e31;fill-rule:nonzero;"/>
        <path d="M91.1,127.9c14.4,-4.6 30,-10.4 35.6,-11.5c4.9,-0.9 18.5,5.9 31.2,12l-41.9,98.7l-24.9,-99.2Z" style="fill:#f1eddc;fill-rule:nonzero;"/>
        <path d="M116.3,138.6l-3.4,3.6l-13.8,-16.9l4.6,-2.3l17.3,8.4l26.6,-8.3l4.3,2.7l-22.9,16.7l-2.5,-3.3l-1.4,2.1l1,62l-4,9.9l-11.1,-5.5l-1.5,-6.7l8.4,-60l-1.6,-2.4Z" style="fill:#e1d9b9;fill-rule:nonzero;"/>
        <path d="M145.6,95.6l1.3,27.7l-22.8,5.9l-21.1,-5.5l3.8,-31.8l38.8,3.7Z" style="fill:#ffb781;fill-rule:nonzero;"/>
        <path d="M115.8,233.1l9,-25.9l-0.7,-78l-3.2,-0.4l-10.5,77.8l5.4,26.5Z" style="fill:#e74d60;fill-rule:nonzero;"/>
        <path d="M121.1,144.1l6.3,-8.4l-1.6,-7.4l-6.7,-0.8l-3.1,8.2l5.1,8.4Z" style="fill:#e74d60;fill-rule:nonzero;"/>
        <path d="M129.1,142.2l-5.6,-14.2l23.6,-9l2.9,5l-20.9,18.2Z" style="fill:#f1eddc;fill-rule:nonzero;"/>
        <path d="M112.9,142.2l8.5,-14.8l-18.3,-6.6l-2.4,3.2l12.2,18.2Z" style="fill:#f1eddc;fill-rule:nonzero;"/>
        <path d="M158.4,39.7c-6.2,38.4 -12.8,64.4 -16,69.8c-9.9,16.5 -46.1,10.2 -46.1,10.2c0,0 -21.6,-69.3 15,-92.5c29.9,-18.9 47.1,12.5 47.1,12.5Z" style="fill:#ffb781;fill-rule:nonzero;"/>
        <path d="M167.4,38.9c-4.9,-15.8 -21.9,-19.4 -25.6,7.7c-3.7,27.1 -3.3,43.9 -3.3,43.9l9.5,0c0,-0.1 22.3,-42.1 19.4,-51.6Z" style="fill:#832a33;fill-rule:nonzero;"/>
        <path d="M144.8,75.8c5.8,-9.3 17.6,-9.7 17.9,-1.2c0.4,8.4 -15.9,22.3 -19.1,18c-3.1,-4.4 -0.8,-13.5 1.2,-16.8Z" style="fill:#ffb781;fill-rule:nonzero;"/>
        <path d="M147.7,77.7c3.6,-5.8 11,-6 11.2,-0.8c0.2,5.3 -9.9,14 -11.9,11.2c-2,-2.7 -0.6,-8.4 0.7,-10.4Z" style="fill:#e97b59;fill-rule:nonzero;"/>
        <path d="M146.7,81.2c2.6,-4.1 7.7,-4.2 7.8,-0.5c0.2,3.7 -7,9.8 -8.3,7.9c-1.4,-2 -0.4,-6 0.5,-7.4Z" style="fill:#ffb781;fill-rule:nonzero;"/>
        <g>
            <path d="M112.7,50.8c-2.9,15 -7,34.8 -7,37.7c0,2.9 8.8,6.3 10.4,5.4c1.6,-1 -1.8,-43.1 -1.8,-43.1l-1.6,0Z" style="fill:#e97b59;fill-rule:nonzero;"/>
            <path d="M114.3,49.4c-2.9,15 -7,34.8 -7,37.7c0,2.9 8.8,6.3 10.4,5.4c1.6,-1 -1.8,-43.1 -1.8,-43.1l-1.6,0Z" style="fill:#ffb781;fill-rule:nonzero;"/>
            <g>
                <path d="M105.3,66.8c0.1,-3.9 -0.5,-8.6 -6.5,-10.2c-6.1,-1.6 -8.9,3.8 -8.8,5.8c0.1,2 1.7,4.9 5.1,5.3c3.4,0.3 6.3,0.1 7.5,0.2c1.2,0.2 2.6,-0.3 2.7,-1.1Z" style="fill:#fff;fill-rule:nonzero;"/>
                <circle cx="95.594" cy="62.971" r="5" style="fill:#39170b;"/>
                <path d="M99.894,61.271c-0.1,1.2 -1.1,2.2 -2.3,2.2c-1.2,-0.1 -2.2,-1.1 -2.2,-2.3c0.1,-1.2 1.1,-2.2 2.3,-2.2c1.2,-0.1 2.2,0.9 2.2,2.3Z" style="fill:#fff;fill-rule:nonzero;"/>
                <path d="M120.8,67.3c0.2,-3.9 1,-8.6 7.1,-9.8c6.1,-1.3 8.7,4.4 8.4,6.4c-0.3,2 -2,4.8 -5.4,5c-3.4,0.2 -6.3,-0.4 -7.5,-0.2c-1.1,0 -2.6,-0.6 -2.6,-1.4Z" style="fill:#fff;fill-rule:nonzero;"/>
                <path d="M121.341,63.622c-0.1,2.8 2.1,5.1 4.8,5.2c2.8,0.1 5.1,-2.1 5.2,-4.8c0.1,-2.8 -2.1,-5.1 -4.8,-5.2c-2.9,-0.2 -5.1,2 -5.2,4.8Z" style="fill:#39170b;fill-rule:nonzero;"/>
                <path d="M125.941,61.822c-0.1,1.2 1,2.3 2.2,2.3c1.2,0.1 2.3,-1 2.3,-2.2c0.1,-1.2 -1,-2.3 -2.2,-2.3c-1.2,-0.1 -2.2,0.9 -2.3,2.2Z" style="fill:#fff;fill-rule:nonzero;"/>
            </g>
            <path d="M112.067,46.193c0.713,1.159 -0.448,10.999 -1.115,11.85c-0.668,0.851 -17.41,-0.541 -18.346,-1.416c-0.836,-0.867 0.041,-10.929 0.64,-12.187c0.591,-1.158 18.016,0.488 18.821,1.753Z" style="fill:#98393e;fill-rule:nonzero;"/>
            <path d="M138.355,45.944c1.138,1.071 1.835,10.959 1.138,11.849c-0.698,0.891 -21.987,2.269 -23.287,1.52c-1.288,-0.649 -2.407,-10.688 -1.868,-12.063c0.55,-1.275 22.769,-2.464 24.017,-1.306Z" style="fill:#98393e;fill-rule:nonzero;"/>
            <g>
                <path d="M101.8,98.7l24.2,-2.4c0,0 -2,14 -10.6,14.8c-10.7,0.9 -13.6,-12.4 -13.6,-12.4Z" style="fill:#542c23;fill-rule:nonzero;"/>
                <path d="M105.7,98.8l1.8,2.8c0,0 1.8,3.2 6.8,2.2c5,-1.1 8.8,-4.7 8.8,-4.7l0.5,-2l-17.9,1.7Z" style="fill:#fff;fill-rule:nonzero;"/>
            </g>
        </g>
    </g>
</svg>
