<?xml version="1.0" encoding="utf-8"?>
<!-- Generator: Adobe Illustrator 24.0.3, SVG Export Plug-In . SVG Version: 6.00 Build 0)  -->
<svg version="1.1" id="Layer_1" xmlns="http://www.w3.org/2000/svg" xmlns:xlink="http://www.w3.org/1999/xlink" x="0px" y="0px"
	 width="480px" height="600px" viewBox="0 0 480 600" style="enable-background:new 0 0 480 600;" xml:space="preserve">
<g transform="matrix(-1.05e-05,240.621,240.621,1.05e-05,404.965,-15.8972)">
	<path style="fill:#DAE79E;" d="M0-1.7l2.7,0l0,2.1L0,0.4L0-1.7z"/>
</g>
<g>
	<g>
		<path style="fill:#AEBA82;" d="M368.6,611v3.5h3v-3.5c19.8,0.2,39.5,0.3,59,0.3c31.3,0.1,63.2,0.3,95.2,0.8c0,0.2,0,0.4,0,0.6h3
			c0-0.2,0-0.4,0-0.5c8.8,0.2,17.6,0.3,26.4,0.6c-0.1,0.6-0.1,1.2-0.2,1.7h3c0.1-0.6,0.1-1.1,0.2-1.7c7,0.2,14,0.4,21.1,0.7v-1.7
			c-16.8-0.6-33.6-1-50.4-1.3c0.1-4.4,0.4-8.9,0.7-13.3c0.4-5.2,0.8-10.5,0.8-15.7c0-1.3,0-2.5-0.1-3.8c15.9,0.2,32.2,0.5,48.9,0.8
			v-1.7c-9.8-0.2-19.4-0.3-28.9-0.5c0.4-6.3,0.5-12.9,0.5-19.2c10.1,0,19.5,0.1,28.5,0.2v-1.7c-15.8-0.2-33-0.3-52.7-0.3
			c-6.7,0-13.5,0-20.2,0c-0.1-2.6-0.2-5.1-0.2-7.7c0-9.9,0.7-19.3,2.1-28.2c23.6,0.5,47.3,1.1,71,1.8v-1.7c-9-0.3-17.9-0.5-26.9-0.8
			c0.2-3.7,0.3-7.4,0.5-11c0.4-7.9,0.9-16.2,0.9-24.3c8.9,0.2,17.3,0.4,25.5,0.6v-1.7c-17.4-0.5-36-0.8-57-0.9
			c-0.4-9.3-0.4-18.3-0.4-27.8h-3c0,9.5,0,18.5,0.4,27.8c-4.4,0-8.9,0-13.5,0c-19.8,0-39.9,0.1-59.4,0.3c-7.7,0.1-15.5,0.1-23.4,0.2
			l-0.2-1.6c-1.4-11.9-2.8-23.1-3.7-34.7c14.1,1,28.4,2.2,43,3.4c38.5,3.2,78.2,6.5,117.1,6.5v-1.7c-3.7,0-7.4,0-11.1-0.1
			c-0.2-3.1-0.4-6.1-0.5-9.2c-0.4-6.8-0.9-13.8-0.9-20.6c4.2,0.2,8.3,0.4,12.5,0.6v-1.7c-9.4-0.4-18.9-0.9-28.3-1.3
			c-20.4-0.9-40.9-1.9-61.5-2.8c0.1-4.9,0.7-9.8,1.3-14.6c0.5-4,1-8.2,1.2-12.3c17.6,0.4,35.2,0.7,52.6,1.2
			c11.6,0.3,23.2,0.6,34.8,0.9v-1.7c-11.5-0.3-23.1-0.6-34.6-0.9c-39.2-1-79-1.7-118.9-2.6c0.2-3.5,0.6-7.1,1-10.5
			c0.6-5.5,1.3-11.1,1.3-16.8h-3c0,5.6-0.7,11.2-1.3,16.6c-0.4,3.5-0.8,7-1,10.6c-25.8-0.6-51.7-1.4-77.5-2.5
			c-0.5-9-0.9-17.5-0.9-26.3c10.7,0.3,21.3,0.5,31.9,0.7c0,0,0,0,0,0.1l2.2,0c20.5,0.4,40.9,0.6,61.2,0.6c29,0,58.3-0.4,87.6-1.1
			l1.2,0.1c0,0,0-0.1,0-0.2c12.5-0.3,24.9-0.7,37.4-1.1c0,1,0.1,2.1,0.1,3.1c0,4.3-0.3,8.7-0.6,12.9c-0.3,4.3-0.6,8.7-0.6,13
			c0,1.3,0,2.5,0.1,3.8l3,0c-0.1-1.2-0.1-2.5-0.1-3.7c0-4.3,0.3-8.7,0.6-12.9c0.3-4.3,0.6-8.7,0.6-13c0-1.1,0-2.2-0.1-3.3
			c3.5-0.1,7-0.3,10.5-0.4v-1.7c-16.8,0.7-33.6,1.2-50.5,1.6c1.2-4.7,2-9.5,2.8-14.1c0.9-5.3,1.7-10.7,3.2-15.9l-3-0.3
			c-1.5,5.3-2.4,10.7-3.3,16c-0.8,4.7-1.6,9.6-2.8,14.4c-23.3,0.6-46.5,0.9-69.6,1c0.9-11.1,1.4-22.2,1.4-33.3
			c40.2,0.9,81.2,1.9,121.8,3.1v-1.7c-3.5-0.1-7-0.2-10.5-0.3c0-9.4,0.8-17.5,1.6-26.9l0.3-3.7l-3-0.1l-0.3,3.7
			c-0.9,9.4-1.6,17.5-1.6,26.9c-24.8-0.7-49.6-1.4-74.3-1.9c0.5-4.9,0.8-9.9,1.2-14.8c0.4-5.3,0.7-10.6,1.2-15.8l-0.9,0
			c28.7,0.5,57.6,1.2,86.3,2.2v-1.7c-12.8-0.4-25.6-0.8-38.5-1.1c0-1.1-0.1-2.2-0.1-3.3c0-3,0.2-6.2,0.3-9.2c0.2-3,0.3-6.1,0.3-9.1
			h-3c0,3-0.2,6.1-0.3,9.1c-0.2,3-0.3,6.2-0.3,9.3c0,1.1,0.1,2.1,0.1,3.2c-33.1-0.8-66.2-1.3-98.8-1.8c0-0.2,0-0.3,0-0.5
			c0-4.6,0.8-9.4,1.6-14c0.4-2.1,0.7-4.2,1-6.2c24,0.6,48.4,1.1,72.6,1.1c23.6,0,45.2-0.5,65.2-1.5v-1.7c-7.5,0.4-15.3,0.7-23.3,0.9
			c0.8-4.9,1.1-9.9,1.5-14.8c0.2-3.3,0.5-6.6,0.8-9.9c7,0.2,14,0.4,21.1,0.7v-1.7c-16.8-0.6-33.6-1-50.4-1.3
			c0.1-4.4,0.4-8.9,0.7-13.3c0.4-5.2,0.8-10.5,0.8-15.7c0-1.3,0-2.5-0.1-3.8c15.9,0.2,32.2,0.5,48.9,0.8v-1.7
			c-9.8-0.2-19.4-0.3-28.9-0.5c0.4-6.3,0.5-12.9,0.5-19.2c10.1,0,19.5,0.1,28.5,0.2v-1.7c-15.8-0.2-33-0.3-52.7-0.3
			c-6.7,0-13.5,0-20.2,0c-0.1-2.6-0.2-5.1-0.2-7.7c0-9.9,0.7-19.3,2.1-28.2c23.6,0.5,47.3,1.1,71,1.8v-1.7c-9-0.3-17.9-0.5-26.9-0.8
			c0.2-3.7,0.3-7.4,0.5-11c0.4-7.9,0.9-16.2,0.9-24.3c8.9,0.2,17.3,0.4,25.5,0.6v-1.7c-17.4-0.5-36-0.8-57-0.9
			c-0.4-9.3-0.4-18.3-0.4-27.8h-3c0,9.5,0,18.5,0.4,27.8c-4.4,0-8.9,0-13.5,0c-19.8,0-39.9,0.1-59.4,0.3c-7.7,0.1-15.5,0.1-23.4,0.2
			l-0.2-1.6c-1.4-11.9-2.8-23.1-3.7-34.7c14.1,1,28.4,2.2,43,3.4c38.5,3.2,78.2,6.5,117.1,6.5v-1.7c-3.7,0-7.4-0.1-11.1-0.1
			c-0.2-3.1-0.4-6.1-0.5-9.2c-0.4-6.8-0.9-13.8-0.9-20.6c4.2,0.2,8.3,0.4,12.5,0.6v-1.7c-9.4-0.4-18.9-0.9-28.3-1.3
			c-20.4-0.9-40.9-1.9-61.5-2.8c0.1-4.9,0.7-9.8,1.3-14.6c0.5-4,1-8.2,1.2-12.3l-3-0.1c-0.2,4.1-0.7,8.2-1.2,12.3
			c-0.6,4.8-1.1,9.7-1.3,14.6c-32.8-1.5-65.9-2.8-99.1-3.9c1.4-8.6,2.8-17.5,3.7-26.3c51.4,2,102.9,3.4,153.3,4.6
			c11.6,0.3,23.2,0.6,34.8,0.9v-1.7c-11.5-0.3-23.1-0.6-34.6-0.9c-10.1-0.3-20.3-0.5-30.6-0.8c0.7-4.8,1-9.5,1.3-14.1
			c0.3-5,0.6-10,1.4-15.2h-3C512.9-2,512.5,3.1,512.2,8c-0.3,4.6-0.6,9.3-1.3,14.1c-47.5-1.2-95.7-2.6-143.7-4.8
			c0.3-2.9,0.7-5.8,1.1-8.7c0.7-5.2,1.4-10.5,1.7-15.7h-3c-0.3,5.1-1,10.4-1.7,15.5c-0.4,2.9-0.8,5.8-1.1,8.7
			c-7.3-0.3-43.2-0.7-81-1c0.7-5.9,1-10.8,1-15.4c0-2.7-0.1-5.3-0.4-7.8H281c0.2,2.5,0.4,5.1,0.4,7.8c0,4.6-0.3,9.4-1,15.4
			c-27.5-0.3-55.6-0.5-74.5-0.8c-0.9,0-4.2,0-9.2,0c-0.8-5-1.2-9.9-1.5-14.7c-0.2-2.5-0.4-5.1-0.6-7.6h-2.8c0.3,2.6,0.5,5.2,0.6,7.7
			c0.3,4.7,0.7,9.6,1.5,14.6c-18.6,0-56.2-0.1-98.7-0.1c0.4-7.3,0.7-14.8,0.8-22.1h-2.8c-0.1,7.4-0.5,14.8-0.8,22l1.9,0.1
			C64.3,15,32.1,15,2.4,15c-0.2-3.3-0.2-6.6-0.3-9.8c0-4-0.2-8.1-0.5-12.2h-2.8c0.3,4.1,0.5,8.2,0.5,12.2c0,3.2,0.1,6.5,0.3,9.8
			c-4.5,0-8.9,0-13.2,0c0.2-3.7,0.7-7.6,1.2-11.5C-12,0-11.6-3.6-11.4-7.1h-2.8c-0.3,3.4-0.6,6.9-1.1,10.3
			c-0.5,3.9-0.9,7.9-1.2,11.7c-19.8,0-37.8,0-52.5-0.1c0-0.2,0-0.4,0-0.6l-2.8-0.1c0,0.2,0,0.4,0,0.6c-13.9,0-24.4,0-30.1-0.1v1.8
			c5.7,0,16.2,0.1,30.1,0.1c-0.3,6-0.6,12.6-0.6,19.1c0,3,0.1,5.9,0.2,8.8c-13.7,0-24,0-29.7,0v1.7c11.2,0,40.8,0,77.5,0
			c0.3,3.8,0.4,7.7,0.4,11.4c0.1,5.2,0.1,10.5,0.9,15.9c-37.3,0-67.5,0.1-78.8,0.1v1.7c5.5,0,15.5,0,28.7,0c0,0.5,0,1.1,0,1.6
			c0,9.2,1.5,18.3,2.9,27.2c0.5,2.9,0.9,5.9,1.4,8.9c-15.3,0-26.9-0.1-33-0.1v1.7c4.1,0,10.7,0,19.4,0c0.2,3.9,0.7,7.9,1.1,11.7
			c0.6,5.2,1.2,10.5,1.2,15.7c0,0.8,0,1.7-0.1,2.5c-9.7,0-17.2,0-21.7-0.1v1.8c7,0.1,20.9,0.1,39.6,0.1c-0.4,12.7-0.9,25.8-2.3,39.1
			c-17.4,0-30.6-0.1-37.3-0.1v1.8c8.9,0.1,29,0.1,55.3,0.2c0,0.6,0,1.1,0,1.7c0,1.9-0.1,3.8-0.1,5.7c-0.1,1.9-0.1,3.9-0.1,5.8
			c0,3.1,0.2,5.6,0.6,8c-26.4,0-46.8,0-55.7,0v1.7c5.9,0,16.9,0,31.3-0.1c0.5,5.1,1.6,10,2.7,14.8c1.1,4.9,2.3,10,2.8,15.2
			c-17.1,0-30.1,0-36.7,0v1.8c5.3,0,14.6,0,26.8,0c-0.1,1-0.3,2.1-0.3,3.2c0,4.6,1.1,9.3,2.1,13.8c0.6,2.4,1.1,4.8,1.5,7.1l2.8-0.3
			c-0.4-2.4-1-4.9-1.5-7.3c-1-4.4-2.1-8.9-2.1-13.3c0-1.1,0.1-2.2,0.3-3.2c13.6,0,30.4,0,49,0c0.8,4.1,1.4,8.2,1.9,12.2
			c0.5,4,1.1,8.2,1.9,12.4c-9.8,0-19.1,0-27.7,0c0,0,0,0,0,0l-0.2,0c-25.9,0-45.8,0-54.6,0v1.7c8.4,0,27.5,0,52.2,0
			c0.7,3.4,0.8,6.7,0.8,9.6l0,3.7c0,2.3,0,4.9,0.4,7.5c-25.3,0-44.8,0-53.3,0v1.7c13,0,50.7,0,95.8,0c-0.2,2.8-0.4,5.6-0.6,8.4
			c-0.4,5.3-0.8,10.8-0.8,16.2c0,1.4,0,2.8,0.1,4.2l2.8-0.1c-0.1-1.4-0.1-2.8-0.1-4.1c0-5.3,0.4-10.8,0.8-16.1
			c0.2-2.9,0.4-5.8,0.6-8.6c20.8,0,43.1,0,65.2,0c-0.3,4-0.4,8.3-0.4,13.7c0,2.6,0,5.2,0.1,7.8c0,2.6,0.1,5.2,0.1,7.8h2.8
			c0-2.6,0-5.2-0.1-7.8c0-2.6-0.1-5.2-0.1-7.8c0-5.5,0.1-9.8,0.5-13.7c27.4,0,54.4,0,77.6,0c0,1-0.1,2-0.1,3c0,2.9,0.1,5.7,0.2,8.5
			c0.1,2.8,0.2,5.6,0.2,8.4c0,3.6-0.2,6.6-0.5,9.5c-97.7-0.1-218.6-0.2-244-0.2v1.8c6.8,0.1,19.9,0.1,37.3,0.2l0,6.4
			c0,9.3-0.1,18.9,0.3,28.2c-17.6,0-30.9-0.1-37.6-0.1v1.7c9.9,0,34.4,0,66,0.1c1.1,4.1,1.3,8,1.3,11.1c0,1.9-0.1,3.9-0.1,5.8
			c-0.1,1.9-0.1,3.9-0.1,5.8c0,1.1,0,2.1,0.1,3.1c-32,0-57-0.1-67-0.1v1.8c3.9,0,10.1,0.1,18.1,0.1c0.9,3.9,1.3,7.9,1.7,11.8
			c0.4,4.7,0.9,9.7,2.3,14.5c-9.9,0-17.5,0-22.1,0v1.7c9,0,29.8,0,56.9,0.1c0.5,3,0.9,6,1.3,9c0.7,6,1.5,12.1,3.6,18.2
			c-29.5,0-52.3,0.1-61.8,0.1v1.7c11,0,39.8-0.1,76.4-0.1c-0.9,12.4-0.9,25.2-0.9,37.5h2.8c0-12.4,0-25.1,0.9-37.5
			c17.1,0,35.7,0,54.9-0.1c0,1.8-0.1,3.6-0.1,5.4c0,9.5,0.6,19.6,2,32.6c-62.6-0.1-119.4-0.1-136.1-0.2v1.7c5.7,0,16.3,0,30.2,0.1
			c0,0.8,0.1,1.6,0.1,2.5c0,3.4-0.2,6.9-0.4,10.2c-0.2,3.4-0.4,6.8-0.4,10.3c0,2.4,0.1,4.6,0.3,6.6l2.8-0.2c-0.2-2-0.3-4.1-0.3-6.4
			c0-3.4,0.2-6.9,0.4-10.2c0.2-3.4,0.4-6.9,0.4-10.4c0-0.8,0-1.6-0.1-2.5c16.9,0,38.2,0,61.9,0.1c-0.1,1.9-0.1,3.7-0.1,5.6
			c0,4.3,0.2,8.6,0.3,12.9c0.1,3.8,0.2,7.6,0.3,11.5c-45.4-0.1-82.5-0.1-95.4-0.2v1.8c4.5,0.1,11.6,0.1,20.9,0.1
			c0.5,3.3,1,6.7,1.5,10c1.3,9.6,2.6,19.6,6.6,29.1c-13.3,0-23.4-0.1-29-0.1v1.8c7.1,0.1,21.3,0.1,40,0.2c-0.2,2.4-0.4,4.8-0.4,7.4
			c0,4.1,0.3,8.6,0.9,13.7c-17.7,0-32.3,0-40.5,0v1.7c11.6,0,35.9-0.1,65.1-0.1c-0.1,3.1-0.3,6.2-0.5,9.3c-0.3,3.6-0.5,7.3-0.5,11
			c0,3.6,0.3,6.9,0.9,9.9c-29.3,0-53.5,0-65,0v1.8c47.3,0.1,314,0.2,336.4,0.3C285.3,610.8,357.1,610.9,368.6,611z M410,593.7
			c-0.5,5.2-0.9,10.3-1.4,15.8c-24.9-0.1-50.2-0.3-75.4-0.8c-0.5-5.2-1-10.1-1.5-15c-0.5-5-1-9.9-1.5-15.3l-3,0.1
			c0.5,5.4,1,10.4,1.5,15.3c0.5,4.8,1,9.6,1.5,14.8c-2.2,0-37.9-0.1-73.4-0.1c0.2-2.6,0.4-5.3,0.6-7.9c0.5-7.5,1-15.3,2.8-22.8
			c58.5-0.3,130.9-0.5,151.3-0.6C411,583,410.5,588.4,410,593.7z M179.2,576.6C179.2,576.6,179.2,576.6,179.2,576.6
			c-27.5,0-61.7,0.1-96.9,0.1c0.1-1.1,0.1-2.2,0.1-3.3c0-2.1-0.1-4.3-0.2-6.4c-0.1-2.1-0.2-4.2-0.2-6.3c0-1.7,0.1-3.3,0.3-4.7
			c22.6,0,44.8,0.1,65.2,0.1c-0.3,3.1-0.5,6.2-0.6,9.3c-0.1,3.5-0.2,7.1-0.7,10.7l2.8,0.3c0.5-3.6,0.6-7.3,0.7-10.9
			c0.1-3.1,0.2-6.2,0.6-9.3c23.1,0,43.8,0.1,59.6,0.1c-0.1,6.3-0.4,12.6-0.8,18.8l-0.1,1.5c-7.8,0-16.9,0-26.9,0c0,0,0,0,0,0H179.2z
			 M52.7,515.1c23,0.1,46.4,0.1,68.5,0.2c0.3,2.1,0.5,4.2,0.5,6.4c0,6-1.1,12.2-2.2,18.1c-0.9,4.6-1.7,9.5-2.1,14.3
			c-19,0-38.9-0.1-58.6-0.1c0-0.3,0.1-0.7,0.1-1C58.7,552.6,54.2,530.5,52.7,515.1z M59.6,481.3c-8.3,0-16.6,0-24.9,0l2.2-0.2
			c-1.4-12.9-2-22.9-2-32.4c0-1.8,0-3.6,0.1-5.5c22.2,0,45.1,0,67.2-0.1c0.1,3.7,0.2,7.4,0.2,11.1c0.1,8.9,0.2,18,1.4,27
			c-13.6,0-27.5,0-41.4,0c0,0,0,0,0-0.1L59.6,481.3C59.6,481.3,59.6,481.3,59.6,481.3z M-9,408.7c0-3.9,0.3-7.9,0.5-11.7
			c0.2-3.4,0.4-7,0.5-10.5c24.3,0,50.9,0.1,77.2,0.1c0.5,3.8,0.6,7.5,0.6,11.3l0,2.5c0,4.1,0.1,8.2,0.7,12.4c-28,0-56.3,0-81.8-0.1
			l2.4-0.1C-9,411.3-9,410-9,408.7z M43.1,431.3c0.5-3.6,1-7.3,1-11.1c0-2.1-0.2-3.9-0.5-5.8c23.4,0,47.4,0,70,0
			c0.5,3.6,0.8,7.5,0.8,11.9c0,3.7-0.3,8.5-0.5,12.7l-0.1,2.4c-23.2,0-47.7,0-71.6,0.1C42.2,438.1,42.6,434.8,43.1,431.3z
			 M72.6,400.3l0-2.5c0-3.8-0.1-7.5-0.6-11.3c29.3,0.1,57.9,0.1,82.1,0.2c0,8.5,0,17.3-0.5,25.9l2.8,0.1c0.4-8.6,0.5-17.4,0.5-26
			c34.3,0.1,59.3,0.1,63.8,0.2c1.8,0,3.7,0.1,5.7,0.1c0,0,0,0,0,0.1h0.3c0.3,2.2,0.7,8.3,0.7,12c0,4.2-0.2,9.8-0.4,13.9
			c-6,0-15.2,0-27-0.1c0,0,0,0,0,0l-0.3,0c-31.2,0-79.6-0.1-128.8-0.1l2.4-0.3C72.7,408.4,72.6,404.4,72.6,400.3z M137.6,358.8
			c26.4,0,49.4,0,65.3,0c0.3,3.9,0.4,7.8,0.4,11.4l0,7.1c0,2.5,0,5,0.2,7.5c-15.4,0-39.3-0.1-67.2-0.1c0.2-2.9,0.4-5.7,0.6-8.6
			c0.4-4.8,0.8-9.7,0.8-14.6C137.7,360.6,137.7,359.7,137.6,358.8z M145.3,302.8c-0.1-2.8-0.2-5.6-0.2-8.4c0-1,0-2,0.1-3
			c27.8,0,49.9,0,60.5,0c0,3.8-0.1,7.5-0.3,11.3c-0.2,4.2-0.3,8.3-0.3,12.5c0,1.9,0,3.8,0.1,5.6c-18,0-38.5,0-60.2-0.1
			c0.3-2.9,0.5-5.9,0.5-9.5C145.5,308.4,145.4,305.6,145.3,302.8z M143.5,240.5c-22.3,0-48.7,0-75.8,0v-30.2c28.1,0,55.8,0,79.6-0.1
			c-1.4,4.9-1.6,9.9-1.9,14.8c-0.2,5.1-0.5,10.4-2.1,15.5L143.5,240.5z M-44.1,200.7c0-1.9,0.1-3.8,0.1-5.7c0.1-1.9,0.1-3.8,0.1-5.7
			c0-0.6,0-1.1,0-1.7c17.1,0,36.6,0.1,57.1,0.1c0,1-0.1,2-0.1,3c0,3,0.1,5.9,0.3,8.9c0.1,2.9,0.3,5.9,0.3,8.9h2.8
			c0-3.1-0.2-6.1-0.3-9c-0.1-2.9-0.3-5.8-0.3-8.8c0-1,0-2,0.1-3c23.4,0,48.1,0.1,71.8,0.1c-0.1,3.8-0.5,7.8-1,11.7
			c-0.4,3-0.8,6.1-1,9.1l2,0.1c-45.4,0-94.1,0-131.4,0.1l0.1,0C-43.9,206.4-44.1,203.9-44.1,200.7z M40.3,144.9
			c-26.2,0-51.6-0.1-73.8-0.1c-0.6-4.7-1.5-9.3-2.4-13.8c-1-5.3-2-10.7-2.6-16.2c23.8,0,51.8,0,80.5,0.1c-0.1,1.4-0.3,3.5-0.4,7.1
			C41.3,129.9,40.7,141.7,40.3,144.9L40.3,144.9z M-9.3,113.2l1.8-0.1c-0.2-3-0.3-6.2-0.3-9.8c0-4.9,0.2-9.9,0.4-14.8
			c0.2-4.3,0.3-8.8,0.4-13.2c20.5,0,42.5,0,64.3,0C57.1,80.8,57,85.9,57,90.6c0,7.9,0.3,15.3,0.8,22.6c-4.3,0-8.7,0-13,0
			c-0.2-0.3-0.5-0.6-1.2-0.6c-0.6-0.1-0.9,0-1.2,0.6C24.6,113.2,7.1,113.2-9.3,113.2z M131.5,75.3c0,12.3,0,25.1,1.4,38l2.8-0.2
			c-1.4-12.8-1.4-25.5-1.4-37.8c39.3,0,68.5-0.1,71.8-0.1c9.6-0.1,21.7-0.1,34.7-0.2c-1.2,7.4-1.6,15-2,22.3
			c-0.3,5.3-0.5,10.7-1.1,16.1l0.7,0.1c-2.4,0-4.8,0-7.1,0c-10.8-0.1-91.2-0.1-170.9-0.2c-0.5-7.3-0.8-14.7-0.8-22.6
			c0-4.7,0.1-9.8,0.3-15.3C85.1,75.3,109.7,75.3,131.5,75.3z M81.4,73.6c0-7.2,0.8-14.7,1.6-22c0.2-1.7,0.4-3.5,0.5-5.2
			c48.1,0,91.6,0,110.7,0c-0.2,2.8-0.3,5.7-0.5,8.5c-0.4,6.1-0.8,12.4-0.9,18.6C171.2,73.5,128.2,73.5,81.4,73.6z M286,46.7
			c33.5,0.1,63.7,0.3,69.1,0.4c0.6,5.2,0.6,10.5,0.7,15.5c0,3.4,0.1,6.8,0.3,10.3c-1.5,0-3.1,0-4.6,0c-5,0-34.5,0.1-67.3,0.2
			c0.2-3.2,0.5-6.5,0.9-9.6c0.5-4.8,1-9.8,1-14.6C286.1,48.1,286.1,47.4,286,46.7z M330.8,74.7c-0.5,6.5-1.4,12.9-2.2,19.2
			c-0.9,6.5-1.8,13.2-2.3,19.9c-27.2-0.1-58.8-0.1-85.6-0.3c0.6-5.4,0.8-10.8,1.1-16.1c0.4-7.4,0.8-15.1,2-22.5
			C274,74.8,308.9,74.7,330.8,74.7z M356,146.1c-6.8-0.2-50.5-0.5-92.2-0.7c0.2-4.4,0.7-8.9,1.1-13.2c0.6-5.5,1.1-11.3,1.2-17
			c40.8,0.1,82.8,0.2,89,0.3c0.4,2.8,0.6,5.9,0.6,9.6c0,2,0,4-0.1,6c0,2-0.1,4-0.1,6C355.5,140.6,355.7,143.5,356,146.1z
			 M393.1,168.4c0.5,6.2,1,12.4,1.5,18.9c-9.8-0.1-39.9-0.2-74.4-0.4c0.6-4.5,1.2-9.1,1.8-13.6c1.1-8.4,2.2-17.1,3.6-25.6
			c24.1,0.5,46.7,0.9,67.4,1.3l-1.3,0C392.1,155.8,392.6,162.1,393.1,168.4z M503.3,187.3c-7.8,0-15.7,0-23.5,0.1
			c-15.6,0.1-31.2,0.1-46.8,0.1c-11.6,0-23.5,0-35.4-0.1c-0.5-6.6-1-12.8-1.5-19c-0.5-6.3-1-12.6-1.5-19.3c30,0.6,55.8,1.1,75.5,1.5
			c11.6,0.2,23.4,0.5,35.1,0.7c-1.4,8.9-2.1,18.4-2.1,28.3C503.1,182.2,503.2,184.8,503.3,187.3z M433,189.2c5.6,0,11.3,0,16.9,0
			c-0.1,1.8-0.2,3.8-0.2,6c0,2.2,0.1,4.5,0.1,6.7c0,1.9,0.1,3.7,0.1,5.6c-2.9,0-5.8,0-8.7,0c-32,0-62.6,0.2-92.6,0.7
			c-0.2-3.1-0.3-6.1-0.3-9.2c0-3.3,0.1-6.6,0.4-9.9C386.3,189.2,419.1,189.2,433,189.2z M527.2,209.7c0.1,1.3,0.1,2.5,0.1,3.8
			c0,5.2-0.4,10.5-0.8,15.6c-0.3,4.4-0.6,8.9-0.7,13.3c-32-0.6-63.9-0.7-95.2-0.8c-6.3,0-12.6,0-19-0.1c0.5-5.5,0.9-10.6,1.4-15.8
			c0.5-5.4,1-10.8,1.5-16.6c8.8,0,17.7-0.1,26.7-0.1C469,209.2,497.6,209.3,527.2,209.7z M435.9,291.5c-0.9,0-1.9,0-2.8,0
			c0.5-6.8,1.1-13.8,3.3-20.4l-2.9-0.3c-2.3,6.7-2.9,13.8-3.4,20.7c-2,0-4-0.1-5.9-0.1c-28.1-0.4-56.8-0.8-85.4-1.4
			c0.1-1.7,0.2-3.3,0.2-5c0.2-5.4,0.3-10.9,1.7-16.2c26.7,0.2,53.8,0.9,80,1.6c5.9,0.2,11.8,0.3,17.8,0.5c-0.3,2-0.6,4.1-1,6.1
			c-0.8,4.7-1.6,9.5-1.6,14.2C435.9,291.2,435.9,291.3,435.9,291.5z M343.1,321.2c-3-0.1-21.4-0.2-44.8-0.2v-29.4
			c23.4,0.1,41.9,0.1,44.8,0.2c-0.3,5.3-0.4,10.4-0.4,15.5C342.8,311.9,342.9,316.5,343.1,321.2z M276.1,289.7c0-0.3,0-0.6,0-0.8
			c0-2.9,0.4-5.9,0.8-8.9c0.4-3,0.8-6.1,0.8-9.2c0-0.7-0.1-1.5-0.1-2.2c26.5,0,48.7,0,50.1,0c3.3,0,6.7,0,10,0.1
			c-1.4,5.4-1.5,10.9-1.7,16.2c0,1.7-0.1,3.3-0.2,5C333.1,289.8,306.3,289.8,276.1,289.7z M295.5,291.6v29.4
			c-8.4,0-17.4-0.1-26.5-0.1c-8.5,0-31-0.1-61-0.1c-0.1-1.9-0.1-3.8-0.1-5.6c0-4.1,0.2-8.3,0.3-12.4c0.1-3.8,0.3-7.6,0.3-11.4
			c1.7,0,2.9,0,3.6,0C235,291.4,268.2,291.5,295.5,291.6z M368.6,267.3c-13.7-0.3-27.4-0.4-41-0.4c-1.1,0-13.8,0-31.3,0
			c2.8-8,3.8-16.3,4.2-24.1c32.7,0.1,61.2,0.2,68.1,0.2V267.3z M232.6,208.5c-4.3,0-8.4,0-12.3,0c-4.3,0-23.6,0-50.9,0
			c1.7-6.9,2.6-13.9,3.5-20.7c26.2,0.1,44.4,0.1,48,0.2c9.6,0.1,20.4,0.3,31.8,0.4c0.2,1.6,0.4,3.2,0.4,5.1c0,2.7-0.3,5.5-0.5,8.2
			c-0.2,2.2-0.4,4.5-0.4,6.8c-5.7,0-11.2,0-16.6,0c0,0,0-0.1,0-0.1L232.6,208.5C232.6,208.5,232.6,208.5,232.6,208.5z M108.2,128.3
			c-0.1-2.5-0.2-5.1-0.2-7.6c0-2.1,0.1-4,0.2-5.7c23.9,0,46.5,0,65.6,0c-0.3,2.5-0.4,5.3-0.4,8.5c0,2,0,4,0.1,6c0,2,0.1,4,0.1,6
			c0,2.7-0.2,6.9-0.4,8.8h-0.2c0,0.4,0,0.6,0,0.8c-19,0-41.5,0-65.2-0.1c0.4-2.7,0.5-5.6,0.5-9C108.4,133.4,108.3,130.9,108.2,128.3
			z M222.4,146.9c-1.4,7.3-1.8,14.9-2.1,22.2c-0.3,5.6-0.6,11.4-1.3,17.2c-6.3,0-23.9-0.1-48.1-0.1l-0.7-0.1l0,0.1
			c-10.6,0-22.4,0-35-0.1c0-3.5,0-7,0.1-10.4c0-3.5,0.1-6.9,0.1-10.4c0-6.1-0.1-11.7-0.5-18.4C166.7,146.8,197.1,146.9,222.4,146.9z
			 M176.4,129.5c0-2-0.1-4-0.1-6c0-3.3,0.2-6,0.4-8.5c28.3,0,48.7,0,54,0.1c10.2,0,21.3,0.1,32.6,0.1c-0.1,5.7-0.6,11.3-1.2,16.8
			c-0.4,4.4-0.9,8.9-1.1,13.4c-11-0.1-21.8-0.1-31.7-0.2c-5.2,0-25.3-0.1-53.3-0.1c0.3-1.4,0.4-4.2,0.4-9.6
			C176.5,133.5,176.4,131.5,176.4,129.5z M345.6,208.2c-5.2,0.1-49.7,0.2-90.7,0.3c0.1-2.2,0.2-4.4,0.4-6.6c0.2-2.7,0.5-5.5,0.5-8.3
			c0-1.8-0.1-3.5-0.4-5.1c28.4,0.3,60.6,0.4,90.2,0.5c-0.2,3.3-0.4,6.6-0.4,9.9C345.3,202,345.4,205.1,345.6,208.2z M317.3,186.9
			c-32.5-0.2-68.6-0.4-95.4-0.7c0.7-5.7,1-11.5,1.3-17.1c0.4-7.4,0.8-14.9,2.2-22.3c35.4,0,60.4,0.1,65,0.2
			c11,0.2,21.8,0.4,32.4,0.6c-1.4,8.4-2.5,17-3.6,25.4C318.5,177.7,317.9,182.3,317.3,186.9z M170,187.9c-0.9,6.8-1.8,13.8-3.5,20.7
			c-22.2,0-49.3,0-77.7,0c0.2-2.9,0.6-6,1-8.9c0.5-3.9,1-8,1.1-11.9C120,187.9,147.7,187.9,170,187.9z M235.6,213.9
			c0-1.3,0-2.6-0.1-4c5.3,0,10.8-0.1,16.5-0.1c0,0.1,0,0.1,0,0.2h2.8c0-0.1,0-0.1,0-0.2c22.9-0.1,48.2-0.2,72-0.3
			c0.5,5.4,1.4,11.5,1.9,16.4c0.5,4.8,1,9.6,1.5,14.8c-2.7,0-56.1-0.1-97.4-0.2C234.6,231.8,235.6,222.8,235.6,213.9z M333.2,240.8
			c-0.5-5.2-1-10.1-1.5-15c-0.5-4.9-1.4-11-1.9-16.3c36.7-0.1,69.1-0.2,81.7-0.3c-0.5,5.7-1,11.1-1.5,16.5
			c-0.5,5.2-0.9,10.3-1.4,15.8C383.7,241.4,358.4,241.2,333.2,240.8z M282.2,63.2c-0.3,3.3-0.7,6.6-0.9,9.9c-13,0-26.5,0.1-39.1,0.2
			l-1.1-0.1c0,0,0,0.1,0,0.1c-5,0-9.9,0-14.5,0.1c0.5-4.6,1.3-9.3,2-13.9c0.7-4.2,1.4-8.6,1.9-12.9c16.2,0.1,34.8,0.1,52.7,0.2
			c0,0.7,0.1,1.4,0.1,2.1C283.3,53.5,282.7,58.5,282.2,63.2z M225.8,59.1c-0.8,4.7-1.6,9.5-2.1,14.2c-6,0-11.6,0.1-16.6,0.1
			c-1.2,0-5.2,0-11.5,0c0-6.1,0.4-12.4,0.9-18.4c0.2-2.9,0.4-5.8,0.5-8.7c3.9,0,6.4,0,7.2,0c6.7,0,14.7,0.1,23.4,0.1
			C227.2,50.7,226.5,55,225.8,59.1z M80.2,51.3c-0.8,7.3-1.6,14.9-1.6,22.2c-33.3,0-68.3,0-98.8,0.1c-0.7-5.4-0.8-10.7-0.9-16
			c0-3.7-0.1-7.5-0.4-11.4c31.5,0,68,0,102.3,0C80.5,48,80.4,49.7,80.2,51.3z M44.5,122.1c0.1-3,0.3-5.8,0.4-7.2
			c20.2,0,40.8,0,60.5,0c-0.1,1.8-0.2,3.6-0.2,5.7c0,2.6,0.1,5.1,0.2,7.7c0.1,2.5,0.2,5.1,0.2,7.6c0,3.4-0.2,6.3-0.5,8.9l0.8,0.1
			c-20.4,0-41.7,0-62.7-0.1C43.6,141.4,44.1,130.3,44.5,122.1z M60.1,166.1c0.3-6.5,0.7-12.9,0.9-19.3c23.5,0,47.7,0,71,0
			c0.4,6.7,0.5,12.3,0.5,18.4c0,3.4,0,6.9-0.1,10.4c0,3.5-0.1,6.9-0.1,10.4c-22.8,0-48-0.1-73.3-0.1
			C59.4,179.4,59.7,172.7,60.1,166.1z M148.3,225.1c0.2-4.9,0.5-10,1.9-14.9c36.7,0,63.6-0.1,67.8-0.1c4.6,0,9.5-0.1,14.7-0.1
			c0,1.3,0.1,2.6,0.1,3.9c0,8.9-1,17.8-2.9,26.6c-8.9,0-17.2,0-24.2,0c-3.1,0-26.6,0-59.5,0C147.8,235.4,148,230.1,148.3,225.1z
			 M218.9,254.6c0.3-4,0.7-8,0.9-12.1c22.2,0.1,51.2,0.2,77.9,0.3c-0.5,7.9-1.4,16.1-4.3,24.1c-22.9,0-52.7,0-75.4,0
			C218.2,262.7,218.6,258.7,218.9,254.6z M274.7,268.6c0.1,0.7,0.1,1.5,0.1,2.2c0,2.9-0.4,6-0.8,8.9c-0.4,3-0.8,6.1-0.8,9.1
			c0,0.3,0,0.6,0,0.8c-21.4,0-44.2-0.1-61.3-0.1c-2.3,0-11.1,0-24.5,0c0.1-0.6,1-11.2,2.5-20.9c10.4,0,17.2,0,19,0
			C227,268.6,252.2,268.6,274.7,268.6z M230.4,323.3c0.9,4.1,1.4,8.5,1.4,13.9c0,3.6-0.2,7.2-0.4,10.7c-0.2,3.1-0.3,6.4-0.3,9.6
			c-2.4,0-4.7,0-6.9-0.1c-2.3,0-8.8,0-18.4-0.1c0-0.1,0-0.1,0-0.2l-2.8,0.2c-9.7,0-22.1,0-36.5-0.1c-0.9-12-1.8-22.9-3.1-34.2
			C188.9,323.1,212,323.2,230.4,323.3z M273.3,359c33.4,0.1,64.2,0.2,67.8,0.3c0,8.9,0.5,17.3,0.9,26.3c-3.9-0.2-36.1-0.3-70.5-0.5
			c1.1-5.7,2.2-12.2,2.2-18.9C273.8,363.7,273.6,361.3,273.3,359z M356,514.1c-4.8-0.2-27.8-0.3-55.5-0.5c0-0.9-0.1-1.8-0.1-2.7
			c0-5.3,0.6-10.9,1.1-16.3c0.4-3.7,0.8-7.6,1-11.3c26.6,0.1,48.3,0.1,52.7,0.2c0.4,2.8,0.6,5.9,0.6,9.6c0,2,0,4-0.1,6
			c0,2-0.1,4-0.1,6C355.5,508.6,355.7,511.5,356,514.1z M503.3,555.3c-7.8,0-15.7,0-23.5,0.1c-15.6,0.1-31.2,0.1-46.8,0.1
			c-11.6,0-23.5,0-35.4-0.1c-0.5-6.6-1-12.8-1.5-19c-0.5-6.1-1-12.2-1.5-18.7c32.5,0.3,60.2,0.7,75.5,1c11.6,0.2,23.4,0.5,35.1,0.7
			c-1.4,8.9-2.1,18.4-2.1,28.3C503.1,550.2,503.2,552.8,503.3,555.3z M433,557.2c5.6,0,11.3,0,16.9,0c-0.1,1.8-0.2,3.8-0.2,6
			c0,2.2,0.1,4.5,0.1,6.7c0,1.9,0.1,3.7,0.1,5.6c-2.9,0-5.8,0-8.7,0c-32,0-62.6,0.2-92.6,0.7c-0.2-3.1-0.3-6.1-0.3-9.2
			c0-3.3,0.1-6.6,0.4-9.9C386.3,557.2,419.1,557.2,433,557.2z M250.3,554.5c0.6-4.1,1.4-8.3,2.1-12.3c1.6-8.5,3.2-17.3,3.3-26.1
			c22.5,0.3,47.4,0.6,72.4,0.9c0,0.6,0,1.2,0,1.8c0,9.5-1.4,18.8-2.9,28.6c-0.4,2.4-0.7,4.8-1.1,7.3l2.8,0.3
			c0.3-2.4,0.7-4.8,1.1-7.3c1.4-9.4,2.9-19.2,2.9-28.9c0-0.6,0-1.2,0-1.8c20.8,0.2,41.5,0.4,60.6,0.7c0.5,6.5,1,12.7,1.5,18.8
			c0.5,6.2,1,12.4,1.5,18.9C378.2,555.2,306.2,555,250.3,554.5z M345.6,576.2c-3.7,0.1-27,0.1-54.8,0.2c0.2-2.2,0.6-4.5,1-6.9
			c0.6-3.1,1.2-6.4,1.2-9.6c0-1.1-0.2-2.1-0.3-3.1c17.7,0.1,35.8,0.2,52.9,0.3c-0.2,3.3-0.4,6.6-0.4,9.9
			C345.3,570,345.4,573.1,345.6,576.2z M215.1,513.2c-18.4,0-45.2-0.1-75.6-0.1c-0.4-2.9-0.5-6-0.5-9.6c0-3.5,0.2-7.1,0.3-10.6
			c0.1-3.3,0.3-6.6,0.3-9.9c32.5,0,60.7,0,78.9,0.1c-0.4,3.5-0.9,7-1.5,10.4c-0.9,5.3-1.9,10.8-1.9,16.3
			C214.9,510.9,215,512.1,215.1,513.2z M174.9,554.3c-16.6,0-35.1-0.1-54.7-0.1c0.4-4.7,1.2-9.4,2-13.9c1.1-6,2.3-12.3,2.3-18.5
			c0-2.3-0.2-4.4-0.5-6.4c18.5,0.1,36,0.1,51.5,0.2c-0.1,0.9-0.1,2-0.1,3.5c0,4.6-0.2,9.3-0.4,13.8c-0.2,4.5-0.4,9.2-0.4,13.9
			C174.7,549.4,174.8,551.9,174.9,554.3z M200.1,414.5c16.8,0,28.5,0,32.5,0c16.6,0.1,35.4,0.1,53.3,0.2c0,0.8-0.1,1.7-0.1,2.5
			c0,2.3,0.1,4.6,0.1,7c0.1,2.3,0.1,4.7,0.1,7c0,3.3-0.1,6.9-0.4,9.9c-16.9,0.1-34.8,0.1-50.8,0.2c-4.6,0-18.6,0-38.3,0.1
			c0-0.9-0.1-2-0.1-2.5c0-3.6,1-7.3,1.9-10.8c1-3.6,1.9-7.4,1.9-11.2C200.4,416.1,200.2,415.3,200.1,414.5z M258.1,443
			c0,12.6,0,25.6-1.8,38.7c-6.6,0-13-0.1-19.1-0.1c-5.4,0-24.8-0.1-51.8-0.1c0.1-2.1,0.1-4.2,0.2-6.3c0.3-10.8,0.7-21.9,2.4-32
			c24.2,0,41.4-0.1,46.6-0.1C242.1,443,250.1,443,258.1,443z M195.7,427.6c-1,3.7-2,7.4-2,11.3c0,0.5,0,1.6,0.1,2.5
			c-21,0-48,0.1-77.2,0.1l0.1-2.3c0.2-4.3,0.5-9.1,0.5-12.9c0-4.4-0.3-8.3-0.8-11.9c31.1,0,59.6,0,80.8,0.1c0.1,0.8,0.2,1.5,0.2,2.3
			C197.5,420.4,196.6,423.9,195.7,427.6z M185.1,443.1c-1.7,10.2-2.1,21.2-2.4,32c-0.1,2.1-0.1,4.2-0.2,6.3c-21.7,0-48-0.1-75.9-0.1
			c-1.3-9-1.4-18.2-1.4-27.1c0-3.7-0.1-7.4-0.2-11.1C134.7,443.2,162.7,443.2,185.1,443.1z M219.6,493.8c0.6-3.5,1.2-7.1,1.6-10.7
			c8.1,0,13.9,0,16.6,0c19.7,0.1,42,0.1,61.8,0.2c-0.2,3.7-0.6,7.5-0.9,11.1c-0.6,5.4-1.1,11-1.1,16.5c0,0.9,0,1.8,0.1,2.7
			c-18.9-0.1-39.8-0.2-58.4-0.4c-3.3,0-10.8,0-21.3-0.1c-0.1-1.2-0.2-2.3-0.2-3.5C217.7,504.5,218.7,499.1,219.6,493.8z M338.2,465
			c-0.6,4.7-1.2,9.6-1.2,14.4c0,0.8,0,1.6,0.1,2.5c-23.6,0-51.9-0.1-77.9-0.2c1.8-13.1,1.8-26.1,1.8-38.7
			c29.6-0.1,60.5-0.2,77.6-0.2c0.5,2.5,0.7,5.1,0.7,8C339.3,455.4,338.7,460.3,338.2,465z M288.6,441.1c0.4-3,0.4-6.6,0.4-9.9
			c0-2.3-0.1-4.7-0.1-7c-0.1-2.3-0.1-4.6-0.1-6.9c0-0.8,0-1.7,0.1-2.5c32.4,0.1,61,0.3,66.3,0.4c0.6,5.2,0.6,10.5,0.7,15.5
			c0,3.4,0.1,6.8,0.3,10.3c-1.5,0-3.1,0-4.6,0C346.8,440.9,319.7,441,288.6,441.1z M319.7,398c-0.5,4.3-1.1,10.1-1.1,15.6
			c-3.7,0-7.5-0.1-11.3-0.1c0.3-2.7,0.9-5.5,1.5-8.2c0.9-4,1.8-8.1,1.8-12.3c0-1.8-0.2-3.4-0.6-5c3.4,0,6.7,0.1,10,0.1
			c0,0.5,0,1,0,1.5c0,1,0.1,2,0.1,3.1C320.2,393.7,320,395.6,319.7,398z M307.2,388c0.4,1.6,0.6,3.2,0.6,5c0,3.9-0.9,7.9-1.7,11.8
			c-0.6,2.8-1.2,5.7-1.5,8.6c-5.2,0-10.4-0.1-15.7-0.1c0-0.1,0-0.2,0-0.2L286,413c0,0.1,0,0.2,0,0.3c-18.4-0.1-36.8-0.2-52.9-0.3
			c-0.8,0-1.9,0-3.2,0c0.2-4,0.4-9.6,0.4-13.9c0-6.5-0.3-10-0.7-12C252.5,387.4,280.8,387.7,307.2,388z M268.8,385.1
			c-13.8-0.1-27.9-0.2-40.4-0.2c-0.1,0-0.2,0-0.4,0c-0.1,0-0.2,0-0.4,0c-2.3,0-4.6,0-6.8,0c-2,0-7,0-14.5,0c-0.1-2.5-0.2-5-0.2-7.5
			l0-7.1c0-3.6-0.1-7.4-0.4-11.4c9.6,0,16.2,0,18.7,0c14,0.1,30.2,0.1,46,0.2c0.3,2.3,0.5,4.6,0.5,7.1
			C271,372.9,269.9,379.4,268.8,385.1z M136.7,483c0,3.2-0.1,6.5-0.3,9.8c-0.2,3.5-0.3,7.1-0.3,10.7c0,3.6,0.2,6.7,0.5,9.6
			c-22.5,0-46.8-0.1-71.1-0.1c-1.3-9.6-2.7-20.4-2.9-30C87.9,483,113.3,483,136.7,483z M79.4,556c-0.1,1.5-0.2,3-0.2,4.7
			c0,2.1,0.1,4.3,0.2,6.4c0.1,2.1,0.2,4.2,0.2,6.3c0,1.1,0,2.1-0.1,3.2l2.8,0.1l0,0l0,0l0,0c-26.1,0-52.7,0-77.4,0
			c0.5-3.6,1.3-7.2,2-10.6c0.7-3.3,1.5-6.8,2-10.2C31.5,555.9,55.6,555.9,79.4,556z M177.8,554.3c-0.1-2.4-0.2-4.8-0.2-7.6
			c0-4.6,0.2-9.3,0.4-13.8c0.2-4.5,0.4-9.2,0.4-13.9c0-1.9,0-2.9,0.1-3.5c32.3,0.1,55.9,0.2,61.7,0.3c4.1,0.1,8.4,0.1,12.7,0.2
			c-0.1,8.7-1.7,17.4-3.3,25.8c-0.8,4.2-1.6,8.4-2.2,12.7c-2,0-3.9,0-5.8,0C235,554.4,210.7,554.3,177.8,554.3z M211.9,575.2
			c0.4-6.2,0.8-12.6,0.8-18.9c14.5,0,24.7,0.1,28.4,0.1c15,0.2,31.7,0.3,48.8,0.4c0.2,1,0.3,2,0.3,3.1c0,3-0.6,6.2-1.2,9.2
			c-0.4,2.4-0.9,4.9-1.1,7.3c-8.9,0-18.2,0-27.5,0.1c0,0,0,0,0-0.1l-2.8-0.5c-0.1,0.2-0.1,0.4-0.1,0.6c-6.9,0-13.7,0-20.2,0.1
			c-3.7,0-12.7,0-25.5,0L211.9,575.2z M526.5,597.2c-0.3,4.4-0.6,8.9-0.7,13.3c-32-0.6-63.9-0.7-95.2-0.8c-6.3,0-12.6,0-19-0.1
			c0.5-5.5,0.9-10.6,1.4-15.8c0.5-5.4,1-10.8,1.5-16.6c8.8,0,17.7-0.1,26.7-0.1c27.8,0,56.3,0.2,86,0.6c0.1,1.3,0.1,2.5,0.1,3.8
			C527.3,586.7,526.9,592,526.5,597.2z M526.5,557c7.4,0,14.5,0,21.2,0c0,6.3,0,12.9-0.5,19.2c-32.8-0.5-64-0.8-94.4-0.8
			c0-1.9,0-3.7-0.1-5.6c-0.1-2.2-0.1-4.4-0.1-6.7c0-2.2,0.1-4.2,0.2-6c9,0,17.9,0,26.9-0.1C495.3,557.1,510.9,557,526.5,557z
			 M446.3,483.3c19.4-0.1,39.6-0.3,59.3-0.3c16.3,0,31.1,0.1,45,0.3c0,8.2-0.4,16.4-0.9,24.3c-0.2,3.6-0.4,7.3-0.5,11
			c-26.6-0.7-53.1-1.2-79.1-1.8c-5.6-0.1-11.2-0.2-16.8-0.3c-0.1-3.1-0.2-6.5-0.2-10.3c0-3.8,0.1-7.7,0.1-11.5
			c0.1-3.8,0.1-7.6,0.1-11.4h-3c0,3.8-0.1,7.5-0.1,11.3c-0.1,3.8-0.1,7.7-0.1,11.5c0,3.8,0.1,7.2,0.2,10.2
			c-30.2-0.6-60.8-1.3-91.3-2.3c-0.3-2.7-0.5-5.6-0.5-9.1c0-2,0-4,0.1-6c0-2,0.1-4,0.1-6c0-3.7-0.2-6.8-0.5-9.6
			c10.2,0.1,19.8,0.1,28.8,0.1C406.8,483.6,426.9,483.5,446.3,483.3z M419.7,480.3l0.2,1.5c-11,0.1-22,0.1-32.9,0.1
			c-6,0-24.1,0-47.1,0c0-0.8-0.1-1.6-0.1-2.5c0-4.7,0.6-9.5,1.2-14.2c0.6-4.7,1.2-9.7,1.2-14.5c0-2.9-0.3-5.5-0.7-8
			c5.1,0,8.6,0,10,0c21.7,0,43.8,1.1,66.5,2.7l-2.1,0.1C416.9,457.2,418.3,468.4,419.7,480.3z M359.1,441c-0.2-3.5-0.2-6.9-0.3-10.3
			c-0.1-5-0.1-10.2-0.7-15.4c33.2,0.9,66.3,2.2,99.2,3.5c0.2,4,0.6,8,0.9,11.9c0.5,5.3,0.9,10.8,1,16.2
			C424.5,444,391.4,441.4,359.1,441z M489.3,420.2c20.6,0.9,41,1.9,61.3,2.8c5.1,0.2,10.1,0.5,15.2,0.7h-2.2
			c0,6.8,0.5,13.9,0.9,20.7c0.2,3.1,0.4,6.1,0.5,9.1c-34.2-0.7-68.9-3.6-102.7-6.4c0,0-0.1,0-0.1,0c-0.1-5.6-0.6-11.2-1-16.6
			c-0.3-3.8-0.7-7.7-0.9-11.6c8.7,0.4,17.3,0.7,25.9,1.1c0,0.1,0,0.1,0,0.2L489.3,420.2C489.3,420.2,489.3,420.2,489.3,420.2z
			 M422.5,390c0,0.1,0,0.2,0,0.3l3,0.1c0-0.1,0-0.2,0-0.3c21.2,0.5,42.3,1,63.3,1.4c-0.2,4.1-0.7,8.2-1.2,12.2
			c-0.6,4.8-1.1,9.7-1.3,14.6c-32.8-1.5-65.9-2.8-99.1-3.9c1.3-8.3,2.7-16.8,3.6-25.3C401.5,389.5,412,389.8,422.5,390z M387.9,389
			c-0.9,8.4-2.3,17-3.6,25.3c-8-0.3-33-0.5-62.8-0.7c0-5.4,0.6-11.2,1.1-15.4c0.3-2.5,0.5-4.4,0.5-5.5c0-1,0-2.1-0.1-3.1
			c0-0.5,0-0.9,0-1.4C353.5,388.5,379.4,388.8,387.9,389z M376,358.4c-13.5-0.2-89.6-0.6-142.1-0.9c0-3.2,0.2-6.4,0.3-9.5
			c0.2-3.5,0.4-7.2,0.4-10.8c0-5.3-0.4-9.8-1.3-13.9c17.6,0.1,30.4,0.1,36.2,0.2c13.4,0.1,27.5,0.3,41.6,0.4c0,1.1-0.1,2.2-0.1,3.3
			c0,4.2,0.2,8.3,0.3,12.5c0.2,4.1,0.3,8.3,0.3,12.4c0,1.8,0,3.6-0.1,5.4l2.8,0.1c0.1-1.8,0.1-3.7,0.1-5.5c0-4.2-0.2-8.3-0.3-12.5
			c-0.2-4.1-0.3-8.3-0.3-12.4c0-1.1,0-2.2,0.1-3.3c21.4,0.2,42.8,0.4,62.2,0.6c-0.4,4.6-0.6,9.4-0.6,14.9
			C375.5,345.9,375.8,352.2,376,358.4z M346.1,321.3c-0.2-4.7-0.3-9.4-0.3-14c0-5.1,0.1-10.2,0.4-15.5c20.4,0.4,40.7,0.7,60.9,1v30
			C386.8,322.3,366.4,321.8,346.1,321.3z M454.4,325.7c0,11-0.5,22.2-1.4,33.3c-4.5,0-9.1,0.1-13.6,0.1c-20,0-40.2-0.2-60.4-0.6
			c-0.3-6.2-0.5-12.6-0.5-19c0-5.5,0.2-10.3,0.6-14.9c28.9,0.3,52.9,0.6,65.3,0.9c4.2,0.1,8.5,0.2,12.8,0.3H454.4z M438.9,293.5
			c0-0.1,0-0.1,0-0.2c17.2,0.2,34.5,0.5,51.9,0.8c-0.5,5.2-0.9,10.5-1.2,15.8c-0.3,5-0.7,9.9-1.2,14.8c-14.7-0.3-29.4-0.7-43.9-1
			c-11.4-0.3-22.9-0.5-34.5-0.8v-30c4.7,0.1,9.4,0.1,14.1,0.2c2,0,3.9,0.1,5.9,0.1c0,0,0,0,0,0l3,0.1c0,0,0,0,0-0.1c1,0,2,0,3,0
			c0,0.1,0,0.2,0,0.3L438.9,293.5z M555.1,244.8c-0.4,3.3-0.6,6.7-0.8,9.9c-0.3,4.9-0.7,10-1.5,14.9c-12.3,0.3-25.2,0.5-38.9,0.5
			c-16.4,0-33-0.2-49.4-0.6c0.4-5.5,1.6-11.2,2.7-16.7c0.6-3,1.2-6,1.7-8.9l-3-0.2c-0.5,2.9-1.1,5.9-1.7,8.9
			c-1.1,5.5-2.2,11.3-2.7,16.9c-13.7-0.3-27.3-0.6-40.7-1c-16.2-0.4-32.7-0.9-49.2-1.2V243c19.8,0.2,39.5,0.3,59,0.3
			c31.3,0.1,63.2,0.3,95.2,0.8c0,0.2,0,0.4,0,0.6h3c0-0.2,0-0.4,0-0.5C537.5,244.4,546.3,244.6,555.1,244.8z M526.5,189
			c7.4,0,14.5,0,21.2,0c0,6.3,0,12.9-0.5,19.2c-32.8-0.5-64-0.8-94.4-0.8c0-1.9,0-3.7-0.1-5.6c-0.1-2.2-0.1-4.4-0.1-6.7
			c0-2.2,0.1-4.2,0.2-6c9,0,17.9,0,26.9-0.1C495.3,189.1,510.9,189,526.5,189z M446.3,115.3c19.4-0.1,39.6-0.3,59.3-0.3
			c16.3,0,31.1,0.1,45,0.3c0,8.2-0.4,16.4-0.9,24.3c-0.2,3.6-0.4,7.3-0.5,11c-26.6-0.7-53.1-1.2-79.1-1.8
			c-5.6-0.1-11.2-0.2-16.8-0.3c-0.1-3.1-0.2-6.5-0.2-10.3c0-3.8,0.1-7.7,0.1-11.5c0.1-3.8,0.1-7.6,0.1-11.4h-3
			c0,3.8-0.1,7.5-0.1,11.3c-0.1,3.8-0.1,7.7-0.1,11.5c0,3.8,0.1,7.2,0.2,10.2c-30.2-0.6-60.8-1.3-91.3-2.3c-0.3-2.7-0.5-5.6-0.5-9.1
			c0-2,0-4,0.1-6c0-2,0.1-4,0.1-6c0-3.7-0.2-6.8-0.5-9.6c10.2,0.1,19.8,0.1,28.8,0.1C406.8,115.6,426.9,115.5,446.3,115.3z
			 M419.7,112.3l0.2,1.5c-11,0.1-22,0.1-32.9,0.1c-7,0-29.8,0-57.8-0.1c0.5-6.6,1.4-13.2,2.3-19.6c0.9-6.3,1.7-12.9,2.2-19.5
			c9.3,0,15.8,0,17.9,0c21.7,0,43.8,1.1,66.5,2.7l-2.1,0.1C416.9,89.2,418.3,100.4,419.7,112.3z M486.3,52c0,0.1,0,0.1,0,0.2h3
			c0,0,0,0,0,0c20.6,0.9,41,1.9,61.3,2.8c5.1,0.2,10.1,0.5,15.2,0.7h-2.2c0,6.8,0.5,13.9,0.9,20.7c0.2,3.1,0.4,6.1,0.5,9.1
			c-34.2-0.7-68.9-3.6-102.7-6.4c0,0-0.1,0-0.1,0c-0.1-5.6-0.6-11.2-1-16.6c-0.3-3.8-0.7-7.7-0.9-11.6
			C469.1,51.3,477.7,51.6,486.3,52z M457.4,50.8c0.2,4,0.6,8,0.9,11.9c0.5,5.3,0.9,10.8,1,16.2c-34.9-2.9-68-5.5-100.3-5.9
			c-0.2-3.5-0.2-6.9-0.3-10.3c-0.1-5-0.1-10.2-0.7-15.4C391.3,48.2,424.5,49.4,457.4,50.8z M306.1,18.6c37.7,0.5,71.8,0.9,81.9,1.3
			c-0.9,8.8-2.4,17.7-3.8,26.3c-9.4-0.3-42-0.6-78.4-0.8c0.1-1.5,0.1-3.5,0.1-4.9c0-2.3-0.1-4.6-0.1-7c-0.1-2.3-0.1-4.6-0.1-6.9
			C305.7,23.7,305.9,21.1,306.1,18.6z M216,17.4c23.7,0.4,56.5,0.8,87.3,1.2c-0.3,2.5-0.4,5.1-0.4,8.1c0,2.3,0.1,4.6,0.1,6.9
			c0.1,2.3,0.1,4.6,0.1,6.9c0,1.4,0,3.4-0.1,4.9c-25.4-0.2-52.4-0.3-74.4-0.5l-0.8-0.1c0,0,0,0,0,0c-4.7,0-9.1-0.1-13.2-0.1
			C214.7,35.7,215.1,26.5,216,17.4z M123.5,16.9c44.6,0.1,78.6,0.1,81.7,0.2c2.5,0.1,5.2,0.1,7.9,0.2c-0.9,9.1-1.3,18.4-1.3,27.5
			c-2.6,0-5.2,0-7.6-0.1c-3,0-38.3,0-84.1-0.1c0.3-3.2,0.9-6.5,1.5-9.7c0.9-5,1.9-10.2,1.9-15.5C123.6,18.7,123.5,17.8,123.5,16.9z
			 M25.6,16.8c32.2,0,65.7,0.1,95,0.1c0.1,0.9,0.1,1.7,0.1,2.6c0,5.1-0.9,10.2-1.9,15.1c-0.6,3.3-1.2,6.7-1.6,10
			c-10.8,0-22.2,0-33.9,0l-2.6-0.2c0,0.1,0,0.1,0,0.2c-18.2,0-36.9,0-55.3,0V16.8z M-23.5,44.6c-17.9,0-34.1,0-47.4,0l1.5,0
			c-0.1-2.9-0.2-5.8-0.2-8.8c0-6.5,0.3-13,0.6-19.1c24,0,57,0.1,91.8,0.1v27.8c-15.4,0-30.4,0-44.4,0c0,0,0-0.1,0-0.1L-23.5,44.6z
			 M-70.4,77c0-0.5,0-1.1,0-1.6c16.5,0,37.5,0,60.5,0c0,4.4-0.2,8.8-0.4,13.1c-0.2,4.9-0.4,9.9-0.4,14.9c0,3.6,0.1,6.8,0.3,9.9
			c-9.9,0-19.4,0-28.3,0c0,0,0-0.1,0-0.1l-1.4,0.1c-9.9,0-19,0-27.2,0l1.1-0.1c-0.4-3-0.9-6.1-1.4-9.1C-69,94.7-70.4,86.1-70.4,77z
			 M-77.4,144.8c0-0.8,0.1-1.7,0.1-2.5c0-5.3-0.6-10.7-1.3-16c-0.4-3.8-0.9-7.7-1.1-11.5c10.5,0,23.6,0,38.4,0
			c0.6,5.6,1.6,11.2,2.6,16.6c0.8,4.4,1.7,8.9,2.3,13.4C-52.1,144.8-66.1,144.8-77.4,144.8z M-61.8,185.7
			c1.4-13.3,1.9-26.4,2.3-39.1c14.7,0,32.2,0,51.3,0.1c-0.6,3-0.8,5.7-0.8,8.9c0,5.5,0.6,11.1,1.3,16.5c0.5,4.4,1,9.1,1.2,13.5
			l2.8-0.1c-0.2-4.5-0.7-9.2-1.2-13.7c-0.6-5.4-1.3-10.9-1.3-16.3c0-3.3,0.3-5.9,0.8-8.9c19.8,0,41.4,0,63.5,0.1
			c-0.2,6.4-0.6,12.8-0.9,19.2c-0.4,6.7-0.7,13.4-0.9,20c-35.7,0-71.4-0.1-100.2-0.1c0,0,0-0.1,0-0.1l-1.8,0.1
			C-51.4,185.8-56.7,185.7-61.8,185.7z M-62.3,240.5c-0.5-5.4-1.7-10.6-2.8-15.7c-1.1-4.7-2.1-9.5-2.6-14.4c16.8,0,37.8,0,60.8-0.1
			v30h2.8v-30c22,0,45.6,0,69-0.1v30.2C18.8,240.5-28.9,240.5-62.3,240.5z M-20.4,242.3c24.1,0,51,0,77.6,0c-0.3,2.5-0.6,5-0.9,7.5
			c-0.7,5.5-1.5,11.2-1.8,16.9l2.8,0.1c0.3-5.6,1.1-11.2,1.8-16.7c0.3-2.6,0.7-5.2,1-7.7c25.6,0,50.8,0,72.9,0l0,0.2
			c0.5,8,0.9,16.4,1.8,24.3l2.8-0.2c-0.9-7.9-1.4-16.2-1.8-24.2l0,0c38.9,0,67.7,0,70.9,0.1c3.2,0,6.6,0,10.2,0.1
			c-0.2,4.1-0.6,8-0.9,12c-0.3,4.1-0.7,8.2-0.9,12.4c-1.9,0-3.9,0-5.7,0c-9,0-135.8,0-226.1,0c-0.8-4.3-1.4-8.5-2-12.7
			C-19.1,250.3-19.7,246.3-20.4,242.3z M23.4,281.9c-0.2,1.4-0.3,2.4-0.3,2.7c0,0.9,0.1,1.9,0.1,2.8c0,0.7,0.1,1.4,0.1,2.1
			c-25.7,0-50.4,0-71.2,0l2.2-0.2c-0.3-2.6-0.4-5-0.4-7.3l0-3.7c0-2.9-0.1-6.2-0.7-9.6c21,0,45.7,0,71.5,0
			C24.5,273.5,23.8,278.9,23.4,281.9z M109.3,289.5c-14.4,0-29.5,0-44.7,0l-2.6-0.2c0,0.1,0,0.1,0,0.2c-12,0-24.1,0-35.9,0
			c0-0.7,0-1.4-0.1-2.2c0-0.9-0.1-1.8-0.1-2.7c0-0.3,0.1-1.2,0.3-2.4c0.4-3.1,1.2-8.5,1.3-13.6c27.1,0,55.1,0,80.9,0
			c0.1,1.7,0.2,3.3,0.4,5c0.3,4.1,0.7,8.3,0.7,12.4C109.4,287.2,109.3,288.4,109.3,289.5z M112.1,289.5c0.1-1.1,0.1-2.3,0.1-3.4
			c0-4.2-0.3-8.5-0.7-12.6c-0.1-1.6-0.3-3.3-0.4-4.9c30.8,0,58,0,76,0c-1.5,9.9-2.5,20.7-2.5,20.8l1.4,0.1
			C167.8,289.5,141.5,289.5,112.1,289.5z M85,322.9c25.8,0.1,51.6,0.1,75.4,0.2c1.3,11.3,2.2,22.3,3.1,34.2
			c-22.9,0-50.4-0.1-78.8-0.1c0.1-1,0.1-2.6,0.1-5.1c0-2.9-0.1-5.9-0.1-8.8c-0.1-2.9-0.1-5.8-0.1-8.8C84.5,330,84.7,326.3,85,322.9z
			 M83.3,358.8c0.3,0,0.5,0,0.7-0.1c17.6,0,34.8,0,50.9,0c0,0.9,0.1,1.8,0.1,2.7c0,4.8-0.4,9.7-0.8,14.4c-0.3,2.9-0.5,5.8-0.7,8.8
			c-51.7,0-116.3-0.1-165.5-0.1c-0.1-1-0.1-2.1-0.1-3.1c0-1.9,0.1-3.8,0.1-5.8c0.1-1.9,0.1-3.9,0.1-5.8c0-3.1-0.2-7-1.2-11.1
			c24.5,0,53,0,82,0c1.5,6,1.7,12.2,1.7,18.3c0,2.5,0.1,5,0.2,7.5l2.8-0.1c-0.1-2.5-0.2-4.9-0.2-7.4c-0.1-6-0.2-12.2-1.7-18.2
			C62.3,358.8,72.8,358.8,83.3,358.8L83.3,358.8z M9.9,322.7c23,0.1,47.6,0.1,72.3,0.2c-0.4,3.4-0.5,7.2-0.5,11.6
			c0,2.9,0.1,5.9,0.1,8.8c0.1,2.9,0.1,5.8,0.1,8.8c0,1.5,0,3.3,0,4.4h-0.1l0,0.7c-23.4,0-47.3,0-70-0.1c-0.2-4.4-0.6-8.8-1-13.1
			c-0.5-5.6-1.1-11.3-1.1-17C9.8,325.5,9.9,324.1,9.9,322.7z M-62.9,357l1.4,0c-0.4-9.2-0.3-18.8-0.3-28.1l0-6.4
			c19.1,0.1,42.9,0.1,68.9,0.2C7,324.1,7,325.6,7,327c0,5.8,0.6,11.6,1.1,17.2c0.4,4.2,0.8,8.6,1,12.9c-15,0-29.3,0-42.5-0.1
			c0,0,0-0.1,0-0.1l-0.5,0.1C-44.5,357-54.2,357-62.9,357z M-42.5,412.5l-1.4,0.2c-13,0-24.7,0-34.2,0l1.1-0.3
			c-1.5-4.8-1.9-9.7-2.3-14.5c-0.3-3.8-0.8-7.7-1.6-11.6c17.4,0.1,42.1,0.1,70.2,0.2c0,3.5-0.3,7-0.5,10.4
			c-0.3,3.9-0.5,7.9-0.5,11.9c0,1.3,0,2.6,0.1,4c-10.8,0-21.1,0-30.7,0C-42.5,412.6-42.5,412.5-42.5,412.5z M-39.4,441.6l2-0.5
			c-2.1-5.9-2.8-12.1-3.5-18c-0.3-2.9-0.7-5.8-1.2-8.8c24.2,0,53.1,0,83,0c0.3,1.8,0.5,3.7,0.5,5.8c0,3.6-0.5,7.3-1,10.8
			c-0.5,3.5-1,7-1,10.6C11.1,441.6-16.2,441.6-39.4,441.6z M-4.2,482.9c20.2,0,42,0,63.9,0c0.2,9.7,1.6,20.4,2.9,30
			c-22.7,0-45.3-0.1-66.3-0.1c0-3.8-0.1-7.7-0.3-11.5c-0.2-4.3-0.3-8.6-0.3-12.9C-4.3,486.6-4.3,484.8-4.2,482.9z M-14.1,514.9
			c20,0.1,41.7,0.1,63.9,0.2c1.5,15.5,6.1,37.9,6.2,38.1c0,0.2,0,0.5-0.1,0.8c-25.5,0-50.6-0.1-73.2-0.1c0.3-4.7,0.9-9.4,1.4-14
			c0.9-7.6,1.8-15.4,1.8-23.1C-14,516.2-14.1,515.6-14.1,514.9z M-71.2,553.8l1.1-0.3c-4-9.4-5.3-19.4-6.6-29
			c-0.4-3.2-0.9-6.5-1.4-9.7c15.8,0.1,37.1,0.2,61.2,0.2c0,0.6,0,1.2,0,1.9c0,7.6-0.9,15.4-1.8,22.9c-0.5,4.7-1.1,9.5-1.4,14.2
			C-39.6,553.9-57.1,553.8-71.2,553.8z M-36.8,576.7c-7.7,0-15,0-21.8,0c-0.6-5.1-0.9-9.6-0.9-13.7c0-2.6,0.2-5.1,0.4-7.4
			c18.4,0.1,40.8,0.1,65.1,0.2c-0.5,3.3-1.2,6.6-1.9,9.8c-0.8,3.6-1.6,7.3-2.1,11.1c-12.6,0-24.7,0-36,0c0,0,0-0.1,0-0.1h-2.8
			C-36.8,576.6-36.8,576.7-36.8,576.7z M-34.1,608.5c-0.6-3-0.9-6.2-0.9-9.9c0-3.6,0.3-7.3,0.5-10.9c0.2-3.1,0.4-6.2,0.5-9.4
			c20.8,0,44.5-0.1,69-0.1c-0.1,1.8-0.1,3.7-0.1,5.5c0,3,0.1,6.1,0.2,9.2c0.1,3,0.2,6.1,0.2,9.1c0,2,0,4-0.1,6l2.8,0.1
			c0.1-2,0.1-4,0.1-6c0-3-0.1-6.1-0.2-9.2c-0.1-3-0.2-6.1-0.2-9.1c0-1.8,0-3.7,0.1-5.5c25.4,0,51.6-0.1,76.5-0.1
			c-1.1,7.5-2.1,16.3-2.1,24.9c0,1.6,0,3.2,0.1,4.8l2.8-0.1c-0.1-1.6-0.1-3.1-0.1-4.7c0-8.6,1.1-17.4,2.1-24.9
			c22.4,0,43.6,0,61.9-0.1c-0.1,4.7-0.3,9.4-0.7,14c-0.3,5.1-0.7,10.4-0.7,15.6h2.8c0-5.1,0.4-10.4,0.7-15.5
			c0.3-4.6,0.6-9.4,0.7-14.1c30.2,0,52.2-0.1,58.2-0.1c5.5,0,11.2-0.1,17.1-0.1c-1.7,7.5-2.3,15.2-2.8,22.7
			c-0.2,2.7-0.4,5.4-0.6,8.1c-6.7,0-13.4,0-19.9,0C216.1,608.6,60.5,608.5-34.1,608.5z"/>
	</g>
	<g style="opacity:0.5;">
		<g style="opacity:0.2;">
			<path style="fill:#AEBA82;" d="M576.9,519.6c-8.9-0.3-17.9-0.5-26.8-0.8c0.2-3.7,0.3-7.4,0.5-11c0.4-7.9,0.9-16.2,0.9-24.3
				c8.8,0.2,17.2,0.4,25.4,0.6V519.6z"/>
			<path style="fill:#AEBA82;" d="M448.1,189.2c-0.1,1.8-0.2,3.8-0.2,6c0,2.2,0.1,4.5,0.1,6.7c0,1.9,0.1,3.7,0.1,5.6
				c-2.9,0-5.8,0-8.6,0c-31.9,0-62.4,0.2-92.3,0.7c-0.2-3.1-0.3-6.1-0.3-9.2c0-3.5,0.1-7,0.4-10.4l-3-0.1c-0.2,3.5-0.4,7-0.4,10.5
				c0,3.1,0.1,6.2,0.3,9.3c-9.5,0.2-441.1,0.4-450.5,0.6v-21.4c18.5,0.7,129.5,0.3,245.9,0.6c132.4,0.3,271.9,1.3,291.5,1.3
				C436.9,189.2,442.5,189.2,448.1,189.2z"/>
			<path style="fill:#AEBA82;" d="M354.5,430.7c0,3.4,0.1,6.8,0.3,10.3c-1.5,0-3.1,0-4.6,0c-11.5,0-445,0.3-456.4,0.8v-27.5
				c12.6,0.2,447.4,0.5,460,0.9C354.4,420.4,354.4,425.6,354.5,430.7z"/>
			<path style="fill:#AEBA82;" d="M410,241.5c0.5-5.5,0.9-10.6,1.4-15.8c0.5-5.4,1-10.8,1.5-16.6c8.8,0,17.6-0.1,26.6-0.1
				c27.7,0,56.1,0.2,85.7,0.6c0.1,1.3,0.1,2.5,0.1,3.8c0,5.2-0.4,10.5-0.8,15.6c-0.3,4.4-0.6,8.9-0.7,13.3
				c-31.9-0.6-63.7-0.7-94.8-0.8C422.6,241.6,416.3,241.6,410,241.5z"/>
			<path style="fill:#AEBA82;" d="M341.5,307.3c0,4.6,0.1,9.2,0.3,13.9c-8.6-0.2-439.4-0.5-448-0.7v-29.2c8.6,0.2,439.4,0.4,448,0.6
				C341.6,297,341.5,302.1,341.5,307.3z"/>
			<path style="fill:#AEBA82;" d="M526.6,357.9c1.2-4.7,2-9.5,2.8-14.1c0.9-5.3,1.7-10.7,3.2-15.9l-2.9-0.3
				c-1.5,5.3-2.4,10.7-3.2,16c-0.8,4.7-1.6,9.6-2.8,14.4c-23.2,0.6-46.3,0.9-69.4,1c0.9-11.1,1.4-22.2,1.4-33.3
				c40,0.9,80.8,1.9,121.3,3.1v27.4C560.2,356.9,543.4,357.4,526.6,357.9z"/>
			<path style="fill:#AEBA82;" d="M488.9,294c-0.5,5.2-0.9,10.5-1.2,15.8c-0.3,5-0.7,9.9-1.2,14.8c-14.7-0.3-29.3-0.7-43.7-1
				c-11.4-0.3-22.8-0.5-34.3-0.8v-30c4.7,0.1,9.4,0.1,14,0.2c2,0,3.9,0.1,5.9,0.1c0,0,0,0,0,0l3,0.1c0,0,0,0,0-0.1c1,0,2,0,3,0
				c0,0.1,0,0.2,0,0.3l3-0.1c0-0.1,0-0.1,0-0.2C454.3,293.5,471.6,293.7,488.9,294z"/>
			<path style="fill:#AEBA82;" d="M576.9,294.5c-12.7-0.4-25.5-0.8-38.3-1.1c0-1.1-0.1-2.2-0.1-3.3c0-3,0.2-6.2,0.3-9.2
				c0.2-3,0.3-6.1,0.3-9.1h-3c0,3-0.2,6.1-0.3,9.1c-0.2,3-0.3,6.2-0.3,9.3c0,1.1,0.1,2.1,0.1,3.2c-33-0.8-65.9-1.3-98.4-1.8
				c0-0.2,0-0.3,0-0.5c0-4.6,0.8-9.4,1.6-14c0.4-2.1,0.7-4.2,1-6.2c23.9,0.6,48.2,1.1,72.3,1.1c23.5,0,45-0.5,64.9-1.5V294.5z"/>
			<path style="fill:#AEBA82;" d="M524.4,557c7.4,0,14.4,0,21.2,0c0,6.3,0,12.9-0.4,19.2c-32.6-0.5-63.8-0.8-94-0.8
				c0-1.9,0-3.7-0.1-5.6c-0.1-2.2-0.1-4.4-0.1-6.7c0-2.2,0.1-4.2,0.2-6c8.9,0,17.8,0,26.8-0.1C493.4,557.1,508.9,557,524.4,557z"/>
			<path style="fill:#AEBA82;" d="M428.9,611.4c31.2,0.1,62.9,0.3,94.8,0.8c0,0.2,0,0.4,0,0.6h3c0-0.2,0-0.4,0-0.5
				c8.8,0.2,17.5,0.3,26.3,0.6c-0.1,0.6-0.1,1.2-0.2,1.7h-86.2c0.2-0.9,0.3-1.7,0.5-2.6l-3-0.2c-0.1,0.9-0.3,1.8-0.5,2.7h-93.4v-3.5
				C389.9,611.2,409.5,611.3,428.9,611.4z"/>
			<path style="fill:#AEBA82;" d="M503.2,519.4c-1.4,8.9-2.1,18.4-2.1,28.3c0,2.6,0.1,5.1,0.2,7.7c-7.8,0-15.6,0-23.4,0.1
				c-15.5,0.1-31.1,0.1-46.6,0.1c-11.6,0-23.4,0-35.3-0.1c-0.5-6.6-1-12.8-1.5-19c-0.5-6.3-1-12.6-1.5-19.3l-3,0.1
				c0.5,6.7,1,13,1.5,19.3c0.5,6.2,1,12.4,1.5,18.9c-25.1-0.2-473.1-0.7-499.2-1.8v-39.1c27.2,1.1,176,0.4,315.8,1.1
				c121,0.6,235.4,2.6,258.6,3.1C479.8,518.9,491.5,519.1,503.2,519.4z"/>
			<path style="fill:#AEBA82;" d="M576.9,151.5c-8.9-0.3-17.9-0.5-26.8-0.8c0.2-3.7,0.3-7.4,0.5-11c0.4-7.9,0.9-16.2,0.9-24.3
				c8.8,0.2,17.2,0.4,25.4,0.6V151.5z"/>
			<path style="fill:#AEBA82;" d="M385.5,115.6c19.7,0,39.8-0.1,59.1-0.3c19.4-0.1,39.4-0.3,59.1-0.3c16.2,0,31,0.1,44.8,0.3
				c0,8.2-0.4,16.4-0.9,24.3c-0.2,3.6-0.4,7.3-0.5,11c-26.5-0.7-52.9-1.2-78.8-1.8c-5.6-0.1-11.1-0.2-16.7-0.3
				c-0.1-3.1-0.2-6.5-0.2-10.3c0-3.8,0.1-7.7,0.1-11.5c0.1-3.8,0.1-7.6,0.1-11.4h-3c0,3.8-0.1,7.5-0.1,11.3
				c-0.1,3.8-0.1,7.7-0.1,11.5c0,3.8,0.1,7.2,0.2,10.2c-30.1-0.6-60.5-1.3-91-2.3c-0.3-2.7-0.5-5.6-0.5-9.1c0-2,0-4,0.1-6
				c0-2,0.1-4,0.1-6c0-3.7-0.2-6.8-0.5-9.6C366.9,115.6,376.5,115.6,385.5,115.6z"/>
			<path style="fill:#AEBA82;" d="M385.5,483.6c19.7,0,39.8-0.1,59.1-0.3c19.4-0.1,39.4-0.3,59.1-0.3c16.2,0,31,0.1,44.8,0.3
				c0,8.2-0.4,16.4-0.9,24.3c-0.2,3.6-0.4,7.3-0.5,11c-26.5-0.7-52.9-1.2-78.8-1.8c-5.6-0.1-11.1-0.2-16.7-0.3
				c-0.1-3.1-0.2-6.5-0.2-10.3c0-3.8,0.1-7.7,0.1-11.5c0.1-3.8,0.1-7.6,0.1-11.4h-3c0,3.8-0.1,7.5-0.1,11.3
				c-0.1,3.8-0.1,7.7-0.1,11.5c0,3.8,0.1,7.2,0.2,10.2c-30.1-0.6-60.5-1.3-91-2.3c-0.3-2.7-0.5-5.6-0.5-9.1c0-2,0-4,0.1-6
				c0-2,0.1-4,0.1-6c0-3.7-0.2-6.8-0.5-9.6C366.9,483.6,376.5,483.6,385.5,483.6z"/>
			<path style="fill:#AEBA82;" d="M408.4,593.7c-0.5,5.2-0.9,10.3-1.4,15.8c-24.8-0.1-50-0.3-75.1-0.7c-0.5-5.2-1-10.1-1.5-15
				c-0.5-5-1-9.9-1.5-15.3l-3,0.1c0.5,5.4,1,10.4,1.5,15.3c0.5,4.8,1,9.6,1.4,14.8c-4.3-0.1-430.8-0.2-435.1-0.3v-30
				c30.6-0.7,483.9-1.1,516.1-1.3C409.4,583,408.9,588.4,408.4,593.7z"/>
			<path style="fill:#AEBA82;" d="M354.5,62.7c0,3.4,0.1,6.8,0.3,10.3c-1.5,0-3.1,0-4.6,0c-11.5,0-445,0.3-456.4,0.8V46.3
				c12.6,0.2,447.4,0.5,460,0.9C354.4,52.4,354.4,57.6,354.5,62.7z"/>
			<path style="fill:#AEBA82;" d="M563.7,55.7h-2.2c0,6.8,0.5,13.9,0.9,20.7c0.2,3.1,0.4,6.1,0.5,9.1c-34.1-0.7-68.6-3.6-102.2-6.4
				c0,0-0.1,0-0.1,0c-0.1-5.6-0.6-11.2-1-16.6c-0.3-3.8-0.7-7.7-0.9-11.6c8.6,0.4,17.2,0.7,25.8,1.1c0,0.1,0,0.1,0,0.2h3
				c0,0,0,0,0,0c20.5,0.9,40.9,1.9,61.1,2.8C553.6,55.2,558.6,55.4,563.7,55.7z"/>
			<path style="fill:#AEBA82;" d="M525.2,577.7c0.1,1.3,0.1,2.5,0.1,3.8c0,5.2-0.4,10.5-0.8,15.6c-0.3,4.4-0.6,8.9-0.7,13.3
				c-31.9-0.6-63.7-0.7-94.8-0.8c-6.3,0-12.6,0-18.9-0.1c0.5-5.5,0.9-10.6,1.4-15.8c0.5-5.4,1-10.8,1.5-16.6
				c8.8,0,17.6-0.1,26.6-0.1C467.2,577.2,495.6,577.4,525.2,577.7z"/>
			<path style="fill:#AEBA82;" d="M484.4,420c0,0.1,0,0.1,0,0.2h3c0,0,0,0,0,0c20.5,0.9,40.9,1.9,61.1,2.8c5,0.2,10.1,0.5,15.2,0.7
				h-2.2c0,6.8,0.5,13.9,0.9,20.7c0.2,3.1,0.4,6.1,0.5,9.1c-34.1-0.7-68.6-3.6-102.2-6.4c0,0-0.1,0-0.1,0c-0.1-5.6-0.6-11.2-1-16.6
				c-0.3-3.8-0.7-7.7-0.9-11.6C467.3,419.3,475.9,419.7,484.4,420z"/>
			<path style="fill:#AEBA82;" d="M548.5,189.1c10.1,0,19.4,0.1,28.4,0.2v19.5c-9.7-0.2-19.3-0.3-28.8-0.5
				C548.5,202,548.5,195.4,548.5,189.1z"/>
			<path style="fill:#AEBA82;" d="M548.5,557.1c10.1,0,19.4,0.1,28.4,0.2v19.5c-9.7-0.2-19.3-0.3-28.8-0.5
				C548.5,570,548.5,563.4,548.5,557.1z"/>
			<path style="fill:#AEBA82;" d="M576.9,25.6v28.9c-9.4-0.4-18.8-0.9-28.1-1.3c-20.3-0.9-40.7-1.9-61.3-2.8
				c0.1-4.9,0.7-9.8,1.2-14.6c0.5-4,1-8.2,1.2-12.3l-3-0.1c-0.2,4.1-0.7,8.2-1.2,12.3c-0.6,4.8-1.1,9.7-1.2,14.6
				c-32.7-1.5-65.6-2.8-98.7-3.9c1.4-8.6,2.8-17.5,3.7-26.3c51.2,2,102.5,3.4,152.7,4.6C553.8,25,565.4,25.3,576.9,25.6z"/>
			<path style="fill:#AEBA82;" d="M503.2,151.4c-1.4,8.9-2.1,18.4-2.1,28.3c0,2.6,0.1,5.1,0.2,7.7c-7.8,0-15.6,0-23.4,0.1
				c-15.5,0.1-31.1,0.1-46.6,0.1c-11.6,0-23.4,0-35.3-0.1c-0.5-6.6-1-12.8-1.5-19c-0.5-6.3-1-12.6-1.5-19.3l-3,0.1
				c0.5,6.7,1,13,1.5,19.3c0.5,6.2,1,12.4,1.5,18.9c-25.1-0.2-473.1-0.7-499.2-1.8v-39.1c65.4-1,262.3-0.7,409,0.9
				c80.2,0.8,147.7,3,165.4,3.3C479.8,150.9,491.5,151.1,503.2,151.4z"/>
			<path style="fill:#AEBA82;" d="M-106.2,443.5c11.4-0.5,444.9-0.8,456.4-0.8c21.6,0,43.6,1.1,66.3,2.7l-2,0.1
				c0.9,11.7,2.3,23,3.7,34.8l0.2,1.5c-10.9,0.1-21.9,0.1-32.8,0.1c-20.3,0-466.3-0.1-491.7-0.9V443.5z"/>
			<path style="fill:#AEBA82;" d="M363.9,8.4c-0.4,2.9-0.7,5.8-1.1,8.7c-15.6-0.7-453.5-1.5-469-2.4V-7.1h471.7
				C365.3-1.9,364.6,3.3,363.9,8.4z"/>
			<path style="fill:#AEBA82;" d="M542.4,23c-10.1-0.3-20.3-0.5-30.4-0.8c0.7-4.8,1-9.5,1.3-14.1c0.3-5,0.6-10,1.4-15.2h62.2v30.9
				C565.4,23.6,553.9,23.3,542.4,23z"/>
			<path style="fill:#AEBA82;" d="M555.8,614.6c0.1-0.6,0.1-1.1,0.2-1.7c7,0.2,14,0.4,21,0.7v1H555.8z"/>
			<path style="fill:#AEBA82;" d="M-106.2,75.5c11.4-0.5,444.9-0.8,456.4-0.8c21.6,0,43.6,1.1,66.3,2.7l-2,0.1
				c0.9,11.7,2.3,23,3.7,34.8l0.2,1.5c-10.9,0.1-21.9,0.1-32.8,0.1c-20.3,0-466.3-0.1-491.7-0.9V75.5z"/>
			<path style="fill:#AEBA82;" d="M-106.2,358.6c7.9,0.3,438.1,0.5,446.1,0.7c0,8.9,0.5,17.3,0.9,26.3c-8.3-0.4-438.7-0.8-447-1.2
				V358.6z"/>
			<path style="fill:#AEBA82;" d="M343.8,385.8c25.7,1.1,51.5,1.9,77.2,2.5c0.3-3.6,0.6-7.1,1-10.6c0.6-5.4,1.3-11,1.3-16.6h3
				c0,5.7-0.7,11.3-1.3,16.8c-0.4,3.4-0.8,7-1,10.5c39.7,1,79.4,1.7,118.4,2.6c11.5,0.3,23,0.6,34.5,0.9V358
				c-3.5,0.1-7,0.3-10.5,0.4c0,1.1,0.1,2.2,0.1,3.3c0,4.3-0.3,8.7-0.6,13c-0.3,4.2-0.6,8.6-0.6,12.9c0,1.2,0,2.5,0.1,3.7l-3,0
				c-0.1-1.2-0.1-2.5-0.1-3.8c0-4.3,0.3-8.7,0.6-13c0.3-4.2,0.6-8.6,0.6-12.9c0-1,0-2.1-0.1-3.1c-12.4,0.4-24.8,0.8-37.3,1.1
				c0,0,0,0.1,0,0.1l-1.2-0.1c-29.2,0.7-58.3,1.1-87.2,1.1c-20.2,0-40.6-0.2-61-0.6l-2.1,0c0,0,0,0,0-0.1
				c-10.6-0.2-21.2-0.4-31.8-0.7C342.9,368.3,343.3,376.8,343.8,385.8z M491.9,389.4l0.2-1.2c1.4-9.2,2.9-18.7,5.3-27.9l2.9,0.3
				c-2.4,9.1-3.8,18.6-5.3,27.8l-0.2,1.2L491.9,389.4z"/>
			<path style="fill:#AEBA82;" d="M336.4,268.7c-1.4,5.4-1.5,10.9-1.7,16.2c0,1.7-0.1,3.3-0.2,5c-6.2-0.1-434.5-0.3-440.7-0.4v-20.8
				c3.4,0,429.1,0,432.6,0C329.7,268.6,333,268.6,336.4,268.7z"/>
			<path style="fill:#AEBA82;" d="M565.9,453.6c-0.2-3.1-0.3-6.1-0.5-9.2c-0.4-6.8-0.9-13.8-0.9-20.6c4.2,0.2,8.3,0.4,12.5,0.6v29.4
				C573.2,453.7,569.6,453.6,565.9,453.6z"/>
			<path style="fill:#AEBA82;" d="M389.4,389.1c10.5,0.3,21,0.6,31.5,0.9c0,0.1,0,0.2,0,0.3l3,0.1c0-0.1,0-0.2,0-0.3
				c21.1,0.5,42.1,1,63.1,1.4c-0.2,4.1-0.7,8.2-1.2,12.2c-0.6,4.8-1.1,9.7-1.2,14.6c-32.7-1.5-65.6-2.8-98.7-3.9
				C387.1,406.1,388.5,397.6,389.4,389.1z"/>
			<path style="fill:#AEBA82;" d="M576.9,243.8c-16.7-0.6-33.4-1-50.1-1.3c0.1-4.4,0.4-8.9,0.7-13.3c0.4-5.2,0.8-10.5,0.8-15.7
				c0-1.3,0-2.5-0.1-3.8c15.9,0.2,32.1,0.5,48.7,0.8V243.8z"/>
			<path style="fill:#AEBA82;" d="M367.2,267.3c-13.6-0.3-27.3-0.4-40.8-0.4c-3.5,0-429.2,0-432.6,0v-24.7
				c17.1,0.4,456.4,0.6,473.4,0.8V267.3z"/>
			<path style="fill:#AEBA82;" d="M576.9,268.7c-7.5,0.4-15.3,0.7-23.2,0.9c0.8-4.9,1.1-9.9,1.5-14.8c0.2-3.3,0.5-6.6,0.8-9.9
				c7,0.2,14,0.4,21,0.7V268.7z"/>
		</g>
		<g style="opacity:0.1;">
			<path style="fill:#AEBA82;" d="M240.9,97.4c0.4-7.4,0.8-15.1,2-22.5c30.2-0.1,64.9-0.2,86.7-0.3c-0.5,6.5-1.3,12.9-2.2,19.2
				c-0.9,6.5-1.8,13.2-2.3,19.9c-27.1-0.1-58.6-0.1-85.3-0.3C240.3,108.2,240.6,102.7,240.9,97.4z"/>
			<path style="fill:#AEBA82;" d="M175.4,145.1c0.3-1.4,0.4-4.2,0.4-9.6c0-2,0-4-0.1-6c0-2-0.1-4-0.1-6c0-3.3,0.2-6,0.4-8.5
				c28.2,0,48.5,0,53.8,0.1c10.1,0,21.2,0.1,32.4,0.1c-0.1,5.7-0.6,11.3-1.2,16.8c-0.4,4.4-0.9,8.9-1.1,13.4
				c-11-0.1-21.7-0.1-31.6-0.2C223.3,145.1,203.3,145.1,175.4,145.1z"/>
			<path style="fill:#AEBA82;" d="M120.3,16.9c0.1,0.9,0.1,1.7,0.1,2.6c0,5.1-0.9,10.2-1.9,15.1c-0.6,3.3-1.2,6.7-1.6,10
				c-10.8,0-22.1,0-33.7,0l-2.6-0.2c0,0.1,0,0.1,0,0.2c-18.1,0-36.8,0-55.1,0V16.8C57.7,16.9,91.1,16.9,120.3,16.9z"/>
			<path style="fill:#AEBA82;" d="M227.1,44.9C227.1,44.9,227.1,44.9,227.1,44.9c-4.6,0-9.1,0-13.2,0c0-9.1,0.5-18.3,1.3-27.5
				c23.6,0.4,56.3,0.8,87,1.2c-0.3,2.5-0.4,5.1-0.4,8.1c0,2.3,0.1,4.6,0.1,6.9c0.1,2.3,0.1,4.6,0.1,6.9c0,1.4,0,3.4-0.1,4.9
				c-25.3-0.2-52.1-0.3-74.1-0.5L227.1,44.9z"/>
			<path style="fill:#AEBA82;" d="M240.3,73.1c0,0,0,0.1,0,0.1c-5,0-9.9,0-14.5,0.1c0.5-4.6,1.3-9.3,2-13.9
				c0.7-4.2,1.4-8.6,1.9-12.9c16.2,0.1,34.7,0.1,52.5,0.2c0,0.7,0.1,1.4,0.1,2.1c0,4.7-0.5,9.7-1,14.4c-0.3,3.3-0.7,6.6-0.9,9.9
				c-13,0-26.4,0.1-38.9,0.2L240.3,73.1z"/>
			<path style="fill:#AEBA82;" d="M268,320.8c-8.5,0-30.9-0.1-60.7-0.1c-0.1-1.9-0.1-3.8-0.1-5.6c0-4.1,0.2-8.3,0.3-12.4
				c0.1-3.8,0.3-7.6,0.3-11.4c1.7,0,2.9,0,3.5,0c22.8,0.1,55.9,0.1,83.1,0.2v29.4C286,320.9,277,320.9,268,320.8z"/>
			<path style="fill:#AEBA82;" d="M218.1,254.6c0.3-4,0.7-8,0.9-12.1c22.1,0.1,51,0.2,77.6,0.3c-0.5,7.9-1.4,16.1-4.3,24.1
				c-22.8,0-52.5,0-75.1,0C217.5,262.7,217.8,258.7,218.1,254.6z"/>
			<path style="fill:#AEBA82;" d="M204.9,357.3c0-0.1,0-0.1,0-0.2l-2.8,0.2c-9.7,0-22.1,0-36.3-0.1c-0.9-12-1.8-22.9-3-34.2
				c25.4,0.1,48.5,0.1,66.8,0.2c0.9,4.1,1.4,8.5,1.4,13.9c0,3.6-0.2,7.2-0.4,10.7c-0.2,3.1-0.3,6.4-0.3,9.6c-2.4,0-4.7,0-6.9-0.1
				C221,357.4,214.5,357.4,204.9,357.3z"/>
			<path style="fill:#AEBA82;" d="M219.5,208.6c-4.3,0-23.5,0-50.7,0c1.7-6.9,2.6-13.9,3.5-20.7c26.1,0.1,44.2,0.1,47.8,0.2
				c9.6,0.1,20.3,0.3,31.7,0.4c0.2,1.6,0.4,3.2,0.4,5.1c0,2.7-0.3,5.5-0.5,8.2c-0.2,2.2-0.4,4.5-0.4,6.8c-5.6,0-11.2,0-16.5,0
				c0,0,0-0.1,0-0.1l-2.8,0.1c0,0,0,0,0,0C227.5,208.6,223.4,208.6,219.5,208.6z"/>
			<path style="fill:#AEBA82;" d="M195,73.5c0-6.1,0.4-12.4,0.9-18.4c0.2-2.9,0.4-5.8,0.5-8.7c3.9,0,6.4,0,7.1,0
				c6.6,0,14.6,0.1,23.3,0.1c-0.5,4.2-1.2,8.5-1.9,12.6c-0.8,4.7-1.6,9.5-2.1,14.2c-6,0-11.6,0.1-16.5,0.1
				C205.2,73.5,201.2,73.5,195,73.5z"/>
			<path style="fill:#AEBA82;" d="M132.4,113.3l2.8-0.2c-1.4-12.8-1.4-25.5-1.4-37.8c39.2,0,68.2-0.1,71.5-0.1
				C215,75.1,227,75.1,240,75c-1.2,7.4-1.6,15-1.9,22.3c-0.3,5.3-0.5,10.7-1.1,16.1l0.7,0.1c-2.4,0-4.7,0-7,0
				c-10.7-0.1-90.8-0.1-170.2-0.2c-0.5-7.3-0.8-14.7-0.8-22.6c0-4.7,0.1-9.8,0.3-15.3c24.9,0,49.4,0,71.1,0
				C131,87.6,131,100.4,132.4,113.3z"/>
			<path style="fill:#AEBA82;" d="M191.6,0.7c0.3,4.7,0.7,9.6,1.5,14.6c-18.5,0-56-0.1-98.3-0.1c0.4-7.3,0.7-14.8,0.8-22.1H191
				C191.2-4.5,191.5-1.9,191.6,0.7z"/>
			<path style="fill:#AEBA82;" d="M42,114.9c-0.1,1.4-0.3,3.5-0.4,7.1c-0.4,7.9-1,19.7-1.4,22.9l0,0c-26.1,0-51.4-0.1-73.5-0.1
				c-0.6-4.7-1.5-9.3-2.4-13.8c-1-5.3-2-10.7-2.6-16.2C-14.5,114.9,13.4,114.9,42,114.9z"/>
			<path style="fill:#AEBA82;" d="M134.9,175.6c0-3.5,0.1-6.9,0.1-10.4c0-6.1-0.1-11.7-0.5-18.4c31.8,0,62,0,87.2,0.1
				c-1.4,7.3-1.8,14.9-2.1,22.2c-0.3,5.6-0.6,11.4-1.3,17.2c-6.2,0-23.8-0.1-47.9-0.1l-0.7-0.1l0,0.1c-10.5,0-22.3,0-34.8-0.1
				C134.8,182.5,134.8,179.1,134.9,175.6z"/>
			<path style="fill:#AEBA82;" d="M165.9,208.6c-22.1,0-49.1,0-77.4,0c0.2-2.9,0.6-6,0.9-8.9c0.5-3.9,1-8,1-11.9
				c29.1,0,56.7,0.1,78.9,0.1C168.5,194.8,167.6,201.8,165.9,208.6z"/>
			<path style="fill:#AEBA82;" d="M146.8,210.2c-1.4,4.9-1.6,9.9-1.9,14.8c-0.2,5.1-0.5,10.4-2.1,15.5l0.1,0c-22.2,0-48.5,0-75.5,0
				v-30.2C95.5,210.3,123.1,210.2,146.8,210.2z"/>
			<path style="fill:#AEBA82;" d="M195.9,441.4c0-0.9-0.1-2-0.1-2.5c0-3.6,1-7.3,1.9-10.8c0.9-3.6,1.9-7.4,1.9-11.2
				c0-0.8-0.1-1.6-0.2-2.3c16.7,0,28.4,0,32.4,0c16.5,0.1,35.3,0.1,53.1,0.2c0,0.8-0.1,1.7-0.1,2.5c0,2.3,0.1,4.6,0.1,7
				c0.1,2.3,0.1,4.7,0.1,7c0,3.3-0.1,6.9-0.4,9.9c-16.8,0.1-34.7,0.1-50.6,0.2C229.5,441.3,215.6,441.4,195.9,441.4z"/>
			<path style="fill:#AEBA82;" d="M26,287.3c0-0.9-0.1-1.8-0.1-2.7c0-0.3,0.1-1.2,0.3-2.4c0.4-3.1,1.2-8.5,1.3-13.6
				c27,0,54.9,0,80.5,0c0.1,1.7,0.2,3.3,0.4,5c0.3,4.1,0.7,8.3,0.7,12.4c0,1.2,0,2.3-0.1,3.4c-14.3,0-29.3,0-44.5,0l-2.6-0.2
				c0,0.1,0,0.1,0,0.2c-12,0-24,0-35.8,0C26,288.8,26,288.1,26,287.3z"/>
			<path style="fill:#AEBA82;" d="M24.6,268.6c-0.1,4.9-0.8,10.3-1.3,13.3c-0.2,1.4-0.3,2.4-0.3,2.7c0,0.9,0.1,1.9,0.1,2.8
				c0,0.7,0.1,1.4,0.1,2.1c-25.6,0-50.2,0-70.9,0l2.2-0.2c-0.3-2.6-0.4-5-0.4-7.3l0-3.7c0-2.9-0.1-6.2-0.7-9.6
				C-25.7,268.6-1,268.6,24.6,268.6z"/>
			<path style="fill:#AEBA82;" d="M7,327c0,5.8,0.6,11.6,1.1,17.2c0.4,4.2,0.8,8.6,1,12.9c-14.9,0-29.2,0-42.4-0.1c0,0,0-0.1,0-0.1
				l-0.5,0.1c-10.4,0-20.1,0-28.7,0l1.4,0c-0.4-9.2-0.3-18.8-0.3-28.1l0-6.4c19,0.1,42.7,0.1,68.7,0.2C7.1,324.1,7,325.6,7,327z"/>
			<path style="fill:#AEBA82;" d="M-80.5,386.3c17.3,0.1,42,0.1,69.9,0.2c0,3.5-0.3,7-0.5,10.4c-0.3,3.9-0.5,7.9-0.5,11.9
				c0,1.3,0,2.6,0.1,4c-10.8,0-21.1,0-30.6,0c0-0.1,0-0.1,0-0.2l-1.4,0.2c-13,0-24.6,0-34.1,0l1.1-0.3c-1.5-4.8-1.9-9.7-2.3-14.5
				C-79.3,394.1-79.7,390.2-80.5,386.3z"/>
			<path style="fill:#AEBA82;" d="M-6.9,210.3v30h2.8v-30c21.9,0,45.4,0,68.7-0.1v30.2c-45.8,0-93.4,0-126.6,0
				c-0.5-5.4-1.7-10.6-2.8-15.7c-1.1-4.7-2.1-9.5-2.6-14.4C-50.7,210.4-29.8,210.4-6.9,210.3z"/>
			<path style="fill:#AEBA82;" d="M227.1,384.8c-0.1,0-0.2,0-0.4,0c-2.3,0-4.6,0-6.8,0c-2,0-7,0-14.4,0c-0.1-2.5-0.2-5-0.2-7.5
				l0-7.1c0-3.6-0.1-7.4-0.4-11.4c9.6,0,16.2,0,18.7,0c14,0.1,30.1,0.1,45.8,0.2c0.3,2.3,0.5,4.6,0.5,7.1c0,6.7-1.1,13.3-2.2,18.9
				c-13.8-0.1-27.8-0.2-40.3-0.2C227.4,384.8,227.2,384.8,227.1,384.8z"/>
			<path style="fill:#AEBA82;" d="M-10.1,88.5c-0.2,4.9-0.4,9.9-0.4,14.9c0,3.6,0.1,6.8,0.3,9.9c-9.9,0-19.3,0-28.2,0
				c0,0,0-0.1,0-0.1l-1.4,0.1c-9.9,0-18.9,0-27.1,0l1.1-0.1c-0.4-3-0.9-6.1-1.4-9.1C-68.6,94.7-70,86.1-70,77c0-0.5,0-1.1,0-1.6
				c16.4,0,37.3,0,60.2,0C-9.8,79.7-9.9,84.2-10.1,88.5z"/>
			<path style="fill:#AEBA82;" d="M-0.6,5.2c0,3.2,0.1,6.5,0.3,9.8c-4.5,0-8.8,0-13.2,0c0.2-3.7,0.7-7.6,1.1-11.5
				c0.4-3.5,0.8-7.1,1.1-10.6H-1C-0.7-2.9-0.6,1.2-0.6,5.2z"/>
			<path style="fill:#AEBA82;" d="M-59.1,146.6c14.7,0,32,0,51.1,0.1c-0.6,3-0.8,5.7-0.8,8.9c0,5.5,0.6,11.1,1.3,16.5
				c0.5,4.4,1,9.1,1.2,13.5l2.8-0.1c-0.2-4.5-0.7-9.2-1.2-13.7C-5.4,166.6-6,161-6,155.6c0-3.3,0.3-5.9,0.8-8.9
				c19.7,0,41.2,0,63.2,0.1c-0.2,6.4-0.6,12.8-0.9,19.2c-0.4,6.7-0.7,13.4-0.9,20c-35.6,0-71.1-0.1-99.8-0.1c0,0,0-0.1,0-0.1
				l-1.8,0.1c-5.6,0-11,0-16,0C-60.1,172.4-59.6,159.3-59.1,146.6z"/>
			<path style="fill:#AEBA82;" d="M238.3,513.3c-3.3,0-10.7,0-21.3-0.1c-0.1-1.2-0.2-2.3-0.2-3.5c0-5.3,0.9-10.7,1.9-15.9
				c0.6-3.5,1.2-7.1,1.6-10.7c8.1,0,13.8,0,16.5,0c19.6,0.1,41.8,0.1,61.6,0.2c-0.2,3.7-0.6,7.5-0.9,11.1c-0.6,5.4-1.1,11-1.1,16.5
				c0,0.9,0,1.8,0.1,2.7C277.7,513.5,256.9,513.4,238.3,513.3z"/>
			<path style="fill:#AEBA82;" d="M202.2,358.8c0.3,3.9,0.4,7.8,0.4,11.4l0,7.1c0,2.5,0,5,0.2,7.5c-15.3,0-39.1-0.1-67-0.1
				c0.2-2.9,0.4-5.7,0.6-8.6c0.4-4.8,0.8-9.7,0.8-14.6c0-0.9,0-1.8-0.1-2.7C163.5,358.8,186.4,358.8,202.2,358.8z"/>
			<path style="fill:#AEBA82;" d="M-37.1,441.1c-2-5.9-2.8-12.1-3.5-18c-0.3-2.9-0.7-5.8-1.2-8.8c24.1,0,52.9,0,82.6,0
				c0.3,1.8,0.5,3.7,0.5,5.8c0,3.6-0.5,7.3-1,10.8c-0.5,3.5-1,7-1,10.6c-28.1,0-55.3,0.1-78.4,0.1L-37.1,441.1z"/>
			<path style="fill:#AEBA82;" d="M307.7,405.3c0.9-4,1.8-8.1,1.8-12.3c0-1.8-0.2-3.4-0.6-5c3.4,0,6.7,0.1,10,0.1c0,0.5,0,1,0,1.5
				c0,1,0.1,2,0.1,3.1c0,1-0.2,2.9-0.5,5.3c-0.4,4.3-1.1,10.1-1.1,15.6c-3.7,0-7.4-0.1-11.2-0.1C306.5,410.8,307.1,408,307.7,405.3z
				"/>
			<path style="fill:#AEBA82;" d="M211.1,576.6l0.1-1.4c0.4-6.2,0.8-12.6,0.8-18.9c14.5,0,24.6,0.1,28.3,0.1
				c15,0.2,31.6,0.3,48.6,0.4c0.2,1,0.3,2,0.3,3.1c0,3-0.6,6.2-1.2,9.2c-0.4,2.4-0.9,4.9-1.1,7.3c-8.9,0-18.2,0-27.4,0.1
				c0,0,0,0,0-0.1l-2.8-0.5c-0.1,0.2-0.1,0.4-0.1,0.6c-6.9,0-13.6,0-20.1,0.1C232.8,576.6,223.8,576.6,211.1,576.6z"/>
			<path style="fill:#AEBA82;" d="M-62,563.1c0,4.1,0.3,8.6,0.9,13.7c-26.8,0-44.3,0-45.1,0.1v-21.4c2.4,0.1,19.3,0.2,44.6,0.3
				C-61.8,558-62,560.5-62,563.1z"/>
			<path style="fill:#AEBA82;" d="M-71.3,485.3c0,3.4-0.2,6.9-0.4,10.2c-0.2,3.4-0.4,6.8-0.4,10.3c0,2.4,0.1,4.6,0.3,6.6l2.8-0.2
				c-0.2-2-0.3-4.1-0.3-6.4c0-3.4,0.2-6.9,0.4-10.2c0.2-3.4,0.4-6.9,0.4-10.4c0-0.8,0-1.6-0.1-2.5c16.8,0,38.1,0,61.6,0.1
				c-0.1,1.9-0.1,3.7-0.1,5.6c0,4.3,0.2,8.6,0.3,12.9c0.1,3.8,0.2,7.6,0.3,11.5c-55.1-0.1-98-0.1-99.8-0.2v-29.9
				c0.9,0,14.1,0.1,34.9,0.1C-71.3,483.7-71.3,484.5-71.3,485.3z"/>
			<path style="fill:#AEBA82;" d="M-34.5,369.8c0,1.9-0.1,3.9-0.1,5.8c-0.1,1.9-0.1,3.9-0.1,5.8c0,1.1,0,2.1,0.1,3.1
				c-41.1,0-70.8-0.1-71.5-0.1v-25.8c0.8,0,29.9,0.1,70.5,0.1C-34.7,362.8-34.5,366.7-34.5,369.8z"/>
			<path style="fill:#AEBA82;" d="M-37.1,587.6c-0.3,3.6-0.5,7.3-0.5,11c0,3.6,0.3,6.9,0.9,9.9c-40.4,0-69,0-69.5,0v-30
				c2.6-0.1,30.6-0.1,69.6-0.2C-36.6,581.5-36.8,584.6-37.1,587.6z"/>
			<path style="fill:#AEBA82;" d="M-81.7,398.1c0.4,4.7,0.9,9.7,2.3,14.5c-15.7,0-25.7,0-26.8-0.1v-26.4c0.9,0,9.3,0.1,22.8,0.1
				C-82.5,390.2-82.1,394.2-81.7,398.1z"/>
			<path style="fill:#AEBA82;" d="M-26.2,480.8h2.8c0-12.4,0-25.1,0.9-37.5c17,0,35.5,0,54.6-0.1c0,1.8-0.1,3.6-0.1,5.4
				c0,9.5,0.6,19.6,2,32.6c-72.3-0.1-136.8-0.2-140.3-0.3v-37.5c1.3-0.1,35.1-0.1,80.9-0.2C-26.2,455.8-26.2,468.5-26.2,480.8z"/>
			<path style="fill:#AEBA82;" d="M-79.1,524.7c1.3,9.6,2.6,19.6,6.6,29.1c-19.5-0.1-32.1-0.1-33.6-0.2v-39.1
				c1.9,0.1,11.2,0.2,25.6,0.2C-80,518-79.5,521.4-79.1,524.7z"/>
			<path style="fill:#AEBA82;" d="M-23.8,57.7c0.1,5.2,0.1,10.5,0.9,15.9c-46.9,0-82.5,0.1-83.3,0.1V46.3c0.8,0,35.8,0,82,0
				C-23.9,50.2-23.8,54-23.8,57.7z"/>
			<path style="fill:#AEBA82;" d="M-81,126.5c0.6,5.2,1.2,10.5,1.2,15.7c0,0.8,0,1.7-0.1,2.5c-15.8,0-25.7-0.1-26.4-0.1v-29.9
				c0.7,0,9.6,0,24.1,0.1C-81.9,118.7-81.5,122.7-81,126.5z"/>
			<path style="fill:#AEBA82;" d="M-72,35.7c0,3,0.1,5.9,0.2,8.8c-20.5,0-33.6,0-34.4,0v-28c0.8,0,14.1,0.1,34.7,0.1
				C-71.8,22.7-72,29.3-72,35.7z"/>
			<path style="fill:#AEBA82;" d="M-46.3,189.3c0,1.9-0.1,3.8-0.1,5.7c-0.1,1.9-0.1,3.9-0.1,5.8c0,3.1,0.2,5.6,0.6,8
				c-35.1,0-59.4,0-60.2,0.1v-21.4c2.1,0.1,25.9,0.2,59.8,0.2C-46.3,188.1-46.3,188.7-46.3,189.3z"/>
			<path style="fill:#AEBA82;" d="M-6.6,299.7c-0.4,5.3-0.8,10.8-0.8,16.2c0,1.4,0,2.8,0.1,4.2l2.8-0.1c-0.1-1.4-0.1-2.8-0.1-4.2
				c0-5.3,0.4-10.8,0.8-16.1c0.2-2.9,0.4-5.8,0.6-8.6c20.7,0,42.9,0,64.9,0c-0.3,4-0.4,8.3-0.4,13.7c0,2.6,0,5.2,0.1,7.8
				c0,2.6,0.1,5.2,0.1,7.8h2.8c0-2.6,0-5.2-0.1-7.8c0-2.6-0.1-5.2-0.1-7.8c0-5.5,0.1-9.8,0.4-13.7c27.3,0,54.2,0,77.3,0
				c0,1-0.1,2-0.1,3c0,2.9,0.1,5.7,0.2,8.5c0.1,2.8,0.2,5.6,0.2,8.4c0,3.6-0.2,6.6-0.5,9.5c-108.2-0.1-245-0.2-247.8-0.3v-29.2
				c0.8,0,45,0,100.2,0.1C-6.2,294.1-6.4,296.9-6.6,299.7z"/>
			<path style="fill:#AEBA82;" d="M-75,245.5c0,4.6,1.1,9.3,2.1,13.8c0.6,2.4,1.1,4.8,1.5,7.1l2.8-0.3c-0.4-2.4-1-4.9-1.5-7.3
				c-1-4.4-2.1-8.9-2.1-13.3c0-1.1,0.1-2.2,0.3-3.2c13.5,0,30.3,0,48.8,0c0.8,4.1,1.4,8.2,1.9,12.2c0.5,4,1.1,8.2,1.9,12.4
				c-9.7,0-19,0-27.6,0c0,0,0,0,0,0l-0.2,0c-34.8,0-58.9,0-59.1,0v-24.7c0.6,0,12.6,0,31.5,0C-74.9,243.3-75,244.3-75,245.5z"/>
			<path style="fill:#AEBA82;" d="M116.3,441.5l0.1-2.3c0.2-4.3,0.5-9.1,0.5-12.9c0-4.4-0.3-8.3-0.8-11.9c31,0,59.4,0,80.5,0.1
				c0.1,0.8,0.2,1.5,0.2,2.3c0,3.6-0.9,7-1.9,10.7c-1,3.7-1.9,7.4-1.9,11.3c0,0.5,0,1.6,0.1,2.5
				C172.2,441.4,145.3,441.4,116.3,441.5z"/>
			<path style="fill:#AEBA82;" d="M136.2,483c0,3.2-0.1,6.5-0.3,9.8c-0.2,3.5-0.3,7.1-0.3,10.7c0,3.6,0.2,6.7,0.5,9.6
				c-22.4,0-46.6-0.1-70.9-0.1c-1.3-9.6-2.7-20.4-2.9-30C87.6,483,112.9,483,136.2,483z"/>
			<path style="fill:#AEBA82;" d="M69.6,397.9l0,2.5c0,4.1,0.1,8.2,0.7,12.4c-27.9,0-56.1,0-81.5-0.1l2.4-0.1
				c-0.1-1.3-0.1-2.6-0.1-3.9c0-3.9,0.3-7.9,0.5-11.7c0.2-3.4,0.4-7,0.5-10.5c24.2,0,50.7,0.1,76.9,0.1
				C69.5,390.4,69.6,394.1,69.6,397.9z"/>
			<path style="fill:#AEBA82;" d="M49.7,515.1c1.5,15.5,6.1,37.9,6.2,38.1c0,0.2,0,0.5-0.1,0.8c-25.4,0-50.4-0.1-72.9-0.1
				c0.3-4.7,0.9-9.4,1.4-14c0.9-7.6,1.8-15.4,1.8-23.1c0-0.6,0-1.2,0-1.9C6,515,27.6,515.1,49.7,515.1z"/>
			<path style="fill:#AEBA82;" d="M-69.7,553.5c-4-9.4-5.3-19.4-6.6-29c-0.4-3.2-0.9-6.5-1.4-9.7c15.8,0.1,37,0.2,61,0.2
				c0,0.6,0,1.2,0,1.9c0,7.6-0.9,15.4-1.8,22.9c-0.5,4.7-1.1,9.5-1.4,14.2c-19.4,0-36.9-0.1-51-0.1L-69.7,553.5z"/>
			<path style="fill:#AEBA82;" d="M78.9,560.7c0,2.1,0.1,4.3,0.2,6.4c0.1,2.1,0.2,4.2,0.2,6.3c0,1.1,0,2.1-0.1,3.2l2.8,0.1
				c-26,0-52.5,0-77.1,0c0.5-3.6,1.3-7.2,2-10.6c0.7-3.3,1.5-6.8,2-10.2c22.5,0.1,46.5,0.1,70.2,0.2C79,557.4,78.9,558.9,78.9,560.7
				z"/>
			<path style="fill:#AEBA82;" d="M184.7,481.5c0.1-2.1,0.1-4.2,0.2-6.3c0.3-10.8,0.7-21.9,2.4-32c24.1,0,41.3-0.1,46.4-0.1
				c7.5,0,15.4-0.1,23.4-0.1c0,12.6,0,25.6-1.8,38.7c-6.5,0-12.9-0.1-19-0.1C230.9,481.5,211.6,481.5,184.7,481.5z"/>
			<path style="fill:#AEBA82;" d="M119.8,554.2c0.4-4.7,1.2-9.4,2-13.9c1.1-6,2.3-12.3,2.3-18.5c0-2.3-0.2-4.4-0.5-6.4
				c18.4,0.1,35.8,0.1,51.3,0.2c-0.1,0.9-0.1,2-0.1,3.5c0,4.6-0.2,9.3-0.4,13.8c-0.2,4.5-0.4,9.2-0.4,13.9c0,2.7,0.1,5.2,0.2,7.6
				C157.8,554.2,139.3,554.2,119.8,554.2z"/>
			<path style="fill:#AEBA82;" d="M163,357.3c-22.9,0-50.2-0.1-78.5-0.1c0.1-1,0.1-2.6,0.1-5.1c0-2.9-0.1-5.9-0.1-8.8
				c-0.1-2.9-0.1-5.8-0.1-8.8c0-4.5,0.2-8.2,0.5-11.6c25.7,0.1,51.4,0.1,75.1,0.2C161.2,334.4,162.1,345.3,163,357.3z"/>
			<path style="fill:#AEBA82;" d="M111.9,286.1c0-4.2-0.3-8.5-0.7-12.6c-0.1-1.6-0.3-3.3-0.4-4.9c30.7,0,57.8,0,75.6,0
				c-1.5,9.9-2.5,20.7-2.5,20.8l1.4,0.1c-18.2,0-44.4,0-73.7,0C111.8,288.4,111.9,287.2,111.9,286.1z"/>
			<path style="fill:#AEBA82;" d="M80.5,46.4c-0.2,1.7-0.3,3.3-0.5,5c-0.8,7.3-1.6,14.9-1.6,22.2c-33.1,0-68,0-98.4,0.1
				c-0.7-5.4-0.8-10.7-0.9-16c0-3.7-0.1-7.5-0.4-11.4C10.1,46.3,46.3,46.3,80.5,46.4z"/>
		</g>
	</g>
	<path style="fill:#AEBA82;" d="M492.2,389.4l3,0.2l0.2-1.2c1.4-9.1,2.9-18.6,5.2-27.8l-2.9-0.3c-2.4,9.2-3.8,18.7-5.3,27.9
		L492.2,389.4z"/>
</g>
<path style="opacity:0.1;fill:#231F20;" d="M615,565.4H-66.1V92.2c0,0,21.4,330.3,340.5,330.3S615,92.2,615,92.2V565.4z"/>
<g transform="matrix(0.757685,-0.0665591,0.0665591,0.757685,-203.106,67.691)">
	<g transform="matrix(-1.04678,-0.0727416,-0.074048,1.09165,524.57,465.309)">
		<path style="fill:#F0B78E;" d="M0.9,0.8c0,0,4.7,6.9,4.8,7.3c0,0.5-1.3,16-4.8,15.9C-2.6,24-3.5,5.6-2,4.4C-0.5,3.1,0.4,1,0.9,0.8
			"/>
	</g>
	<g transform="matrix(1.04804,0.0512109,-0.0534014,1.09287,545.566,471.075)">
		<path style="fill:#FFC196;" d="M-0.8-7.4c2.2,5.5-0.1,26.4-1,30.7C-2.4,25.7-4.5,26-6.1,26c-5.4,0.1-10.1,4.2-12.8,2.4
			c-0.7-0.5-4-1.1-3.7-4.2c0.8-6.9,1.4-16.5,1.3-27.7C-18-13.4-3.1-11.2-0.8-7.4"/>
	</g>
	<g transform="matrix(1.04804,0.0512109,-0.0534014,1.09287,535.73,443.501)">
		<path style="fill:#FFC196;" d="M-1.4-87.6c0,0,1.3,6.8,2.2,9.6c1,2.7,4,15.6,4.5,19.3C5.8-55,12,15.6,8.6,21.2S-6.8,25-8.3,21.7
			c-1.5-3.3-9.6-60-10-63.7c-0.5-3.8-4.3-34-6-37.3C-26-82.6-2.5-91.3-1.4-87.6"/>
	</g>
	<g transform="matrix(-1.04625,0.0891274,0.0812157,1.09043,552.156,362.532)">
		<path style="fill:#27213F;" d="M35-94.3C4.3-92.9,3.1,32.4,8.5,80.5C8.8,83.4,37,87.1,37.4,81c1.5-20.6-2.5-129.3,1.3-144.7
			C40.3-69.9,38.6-94.5,35-94.3"/>
	</g>
	<g transform="matrix(1.04929,0,0,1.09417,512.485,436.364)">
		<path style="fill:#312B4B;" d="M-3.6-160c5,3.9,12.5,131.8,13.8,174.7c0,1.3-0.6,2.4-1.2,3.1c-0.4,0.5-1,0.8-1.5,1.1
			c-4.7,2.3-21.3,8.4-44.4,9.3c-44.9,1.7-48.3-17.9-48.4-23.8c-0.7-34.9-3-90.9-1.1-132.4c0.7-15,4.5-29.4,13.4-33.4
			C-64.1-165.3-12.9-167.3-3.6-160"/>
	</g>
	<g transform="matrix(1.40406,-0.0498889,0.0498889,1.40406,199.207,-161.935)">
		<g transform="matrix(-3.31521,0,0,3.31521,865.585,-277.539)">
			<path style="fill:#FFC196;" d="M219,176.8c0,0,1.9-2.6,5.2-5.6c0.3-1.8-0.3-14.9-0.3-14.9s1.8-1.5,5.1-2.1
				c0.3,0.8,2.5,15.4,2.5,18.3c0,1-1,2.5-3.3,5.3c-4,4.8-4.7,4.8-4.7,4.8L219,176.8z"/>
		</g>
		<g transform="matrix(-3.31521,0,0,3.31521,865.585,-277.539)">
			<path style="fill:#FFC196;" d="M223.9,156.4c0,0-1-2.3-2.7-2.9c-1.4-0.5-1.8-2.7,0.9-4.7c2.6-2.1,3.9-2.2,5.3-1.1
				c1.4,1.1,1.6,6.6,1.6,6.6L223.9,156.4z"/>
		</g>
		<g transform="matrix(-3.31521,0,0,3.31521,865.585,-277.539)">
			<path style="fill:#27213F;" d="M214.4,176.7c0,0,6.9-3.7,9.5-5.7c0.6-0.4-1-14.2-0.1-14.5c0.3-1.8,5.4-2.7,6.6-2
				c1.2,0.7,2.1,18.8,1.6,19.7c-1.4,2.4-12.5,13-13.5,13.8c-1,0.8-1.6,3.8-1.6,3.8L214.4,176.7z"/>
		</g>
	</g>
	<g transform="matrix(0.00918143,1.09413,1.04925,-0.00957416,543.649,346.354)">
		<path style="fill:#27213F;" d="M-49.4-72.4c32.6,2.5,95.6,1.2,138.6,0"/>
	</g>
	<g transform="matrix(1.04929,0,0,1.09417,443.343,175.804)">
		<path style="fill:#FFC196;" d="M-6.9,30.5C-7.2,30.8-7.7,31-8.2,31c-3.7,0.2-9.6-1.1-10.2-10.3c-0.6-9.1,4.3-10.7,7.5-9.2h0
			c1.6,0.8,2.8,2.3,2.6,4c0,0-0.1,7.5,1.9,12.6C-6,29-6.3,29.9-6.9,30.5"/>
	</g>
	<g transform="matrix(1.04929,0,0,1.09417,443.342,175.803)">
		<path style="fill:#4D0B00;fill-opacity:0.17;" d="M-6.9,30.5C-7.2,30.8-7.7,31-8.2,31c-3.7,0.2-9.6-1.1-10.2-10.3
			c-0.6-9.1,4.3-10.7,7.5-9.2c-0.4,0.1-5.1,1.6-3.7,9.9C-13.4,28.6-10.2,30.9-6.9,30.5"/>
	</g>
	<g transform="matrix(1.04929,0,0,1.09417,490.568,255.125)">
		<path style="fill:#FFC196;" d="M-4.7,5.6c0,0-2,7.2-5.4,12.9c-3.6,6-12.4,15.9-12.4,15.9s-6.9-7.9-11.1-16.1
			c-3.7-7.2-4.9-14.7-4-15.6c1.8-1.8,8.5-1.5,6.4-17.1c0,0,8,3.8,25.2,1.1c0,0-0.9,2.6-1.3,6.1C-7.8-3.2-7.7,2.1-4.7,5.6"/>
	</g>
	<g transform="matrix(1.04929,0,0,1.09417,463.96,280.781)">
		<path style="fill:#27213F;" d="M-5.9-27.1c0,0-14.6-1.5-17.7,13.9C-25.8-2.7-20.4,7.5-14.2,17c0,0,1.7-10.5,13.7-11.2
			c0,0-5.1-8.3-7.8-14.5c-3.3-7.5-4.4-11.7-4.4-11.7S-7.1-22.7-5.9-27.1"/>
	</g>
	<g transform="matrix(1.04929,0,0,1.09417,493.783,235.943)">
		<path style="fill:#27213F;" d="M-4.5,57.3c0,0-11.4-14.8-16-11.9c4.3-5.4,6.9-8.4,8.9-11.9c3.4-6.1,4-10.4,4-10.4
			c-3.7-3.5-3.7-9.5-3.7-9.5s0.1,0,0.1,0C2.7,14.6,5,22.2,5,22.2C8.9,36.8-4.5,57.3-4.5,57.3"/>
	</g>
	<g transform="matrix(1.04929,0,0,1.09417,487.961,268.673)">
		<path style="fill:#4D0B00;fill-opacity:0.2;" d="M-4.8-19.6c0,0-10,0.8-15.9,2.7c0,0,0.6,3.9-3.8,10.1c-4.2,6-1.5,20.9,12.8,17.1
			c-3.6,6-8.1,11.9-8.1,11.9s-5.6-7.9-9.9-16.2c-3.7-7.1-6.2-14.7-5.4-15.6c1.8-1.8,8.5-1.5,6.4-17.1c0,0,8,3.8,25.2,1.1
			C-3.5-25.7-4.4-23.1-4.8-19.6"/>
	</g>
	<g transform="matrix(1.04929,0,0,1.09417,512.457,180.305)">
		<path style="fill:#FFC196;" d="M-3.6,16.6C0,46.2-6.5,51.1-14.4,58.8c-10.1,9.6-40,9.7-49.1,0c-14-14.9-11.8-20.8-11.5-38.8
			C-75,7.6-88.5-29.7-45.4-34.5C11.5-41-4.4,10.3-3.6,16.6"/>
	</g>
	<g transform="matrix(1.04929,0,0,1.09417,516.928,163.283)">
		<path style="fill:#4D0B00;" d="M-3.4-0.6C-4.2-11.6-2.3-21.7-27-27.8c-5.8-1.4-10.7-1.6-14.7-1c-5.1-1.6-12-1.6-21.1,1.6
			C-87.2-18.4-84-8.6-83.5,2.5c0.5,11.1,2.1,20.2,2.1,20.2s3.5,0.3,2.4,10.1c-0.7,6.3,5.3,0.7,3.9-11.2c-1.7-15,5.1-27.2,12-24.4
			c3.5,1.4,6.1-1.2,8.2-3.6c6.5,4.8,18.3,3,21.6-0.7c2.5,2.3,5.7,5.5,9.3,3.5c6.4-3.5,12.6,8.1,12.8,23.2
			c0.2,15.1,4.2,20.5,4.3,12.2c1.1-6.4,1.5-10,1.5-10S-2.6,10.6-3.4-0.6"/>
	</g>
	<g transform="matrix(1.3097,0.115051,-0.115051,1.3097,-473.505,-130.935)">
		<path style="fill-rule:evenodd;clip-rule:evenodd;fill:#27213F;" d="M722.3,379.9l0.5,181.8l37.2-2.4l4.3-115.8l34.4,113.1l29.2-4
			L792.7,367L722.3,379.9z"/>
	</g>
	<g>
		<g>
			<path style="fill:#3B0800;" d="M503.2,177.7l0.1-1.2c-5.7-4.6-14.5-3.9-18.2-2.3l1.5,5.5C489.5,178,497.4,174.3,503.2,177.7z"/>
		</g>
		<g>
			<path style="fill:#3B0800;" d="M443.5,171.9c8.6-1.8,19,4.8,21.6,6.3l2.6-5.1c-3-1.6-14.2-5-24.4-2.5L443.5,171.9z"/>
		</g>
		<g>
			<path style="fill:#FFFFFF;" d="M483.2,198.4c0.3-5,1.4-10.8,9.1-12.3c7.8-1.5,10.8,5.6,10.5,8.1c-0.3,2.5-2.6,6.1-6.8,6.2
				c-4.3,0.1-8-0.5-9.5-0.4C484.9,200.2,483.1,199.4,483.2,198.4z"/>
			<circle style="fill:#39170B;" cx="492.5" cy="193.1" r="4.8"/>
			<path style="fill:#FFFFFF;" d="M492.4,194.5c-0.1,1.6,1.2,2.9,2.8,3s2.9-1.2,3-2.8c0.1-1.6-1.2-2.9-2.8-3
				C493.9,191.7,492.5,192.9,492.4,194.5z"/>
			<path style="fill:#FFFFFF;" d="M463.5,197.6c0.1-5-0.5-10.9-8.1-13c-7.6-2.1-11.2,4.7-11.1,7.2c0.1,2.5,2.1,6.3,6.3,6.7
				c4.2,0.5,8,0.1,9.5,0.4C461.7,199.2,463.5,198.6,463.5,197.6z"/>
			<path style="fill:#39170B;" d="M460.7,191.3c-0.1,3.5-3.1,6.2-6.6,6c-3.5-0.1-6.2-3.1-6-6.6c0.1-3.5,3.1-6.2,6.6-6
				C458.2,184.9,460.9,187.8,460.7,191.3z"/>
			<path style="fill:#FFFFFF;" d="M460.1,192.7c-0.1,1.6-1.4,2.8-3,2.8s-2.8-1.4-2.8-3c0.1-1.6,1.4-2.8,3-2.8
				C459,189.8,460.2,191.1,460.1,192.7z"/>
		</g>
		<path style="fill:#EE8E6F;" d="M475.6,190.2c2.1,10.5,7.2,23.4,6.2,24.7c-1,1.2-7-0.4-10.5-1.2c-0.1,0.6-0.3,2.2-0.3,2.2
			s12.3,3.4,13.5,1.8c1.3-1.6-7.1-20.4-7.5-29.9C477,186.8,476.2,187.3,475.6,190.2z"/>
	</g>
	<g transform="matrix(1.23476,0.123663,-0.156476,1.56239,-509.08,-239.143)">
		
			<ellipse transform="matrix(-0.5706 0.8212 -0.8212 -0.5706 1495.3777 -304.9969)" style="fill-rule:evenodd;clip-rule:evenodd;fill:#482B27;" cx="827.4" cy="238.4" rx="5.4" ry="4"/>
	</g>
</g>
<g transform="matrix(1,0,0,1,10.3145,-33.7266)">
	<g transform="matrix(0.80435,0.0489774,-0.0489774,0.80435,-129.513,78.6692)">
		<g transform="matrix(-0.980326,0.197385,0.197385,0.980326,255.454,472.74)">
			<path style="fill:#FFCEAC;" d="M15.1,3c0,0-4.7,6.8-4.8,7.3c0,0.5,1.3,16,4.8,15.9c3.5,0,4.4-18.4,2.9-19.7
				C16.5,5.3,15.6,3.2,15.1,3"/>
		</g>
		<g transform="matrix(0.988045,-0.154167,0.154167,0.988045,235.422,479.885)">
			<path style="fill:#FFD5B7;" d="M-14.5-3.6c-2,5.6,0.8,26.4,1.8,30.7c0.6,2.4,2.7,2.6,4.3,2.6c5.4-0.1,10.2,4,12.9,2
				c0.7-0.5,4-1.2,3.6-4.3c-1-6.9-1.8-16.5-2-27.7C2.5-10.1-12.3-7.5-14.5-3.6"/>
		</g>
		<g transform="matrix(0.988045,-0.154167,0.154167,0.988045,239.838,454.844)">
			<path style="fill:#FFD5B7;" d="M-14.1-84.8c0,0-1.1,6.9-2,9.6c-0.9,2.8-3.7,15.7-4,19.4c-0.4,3.8-4.9,74.5-1.3,79.9
				c3.6,5.4,15.5,3.4,16.9,0.1c1.4-3.3,8.1-60.2,8.5-64C4.3-43.4,7.4-73.8,9-77.1C10.7-80.4-13.1-88.5-14.1-84.8"/>
		</g>
		<g transform="matrix(0.988045,-0.154167,0.154167,0.988045,221.15,386.226)">
			<path style="fill:#FFA05F;fill-opacity:0.2;" d="M-14.5,90.6c-1.7-16.5,1.9-72.3,2.3-75.7c0.4-3.8,3.1-16.7,4-19.4
				c0.9-2.8,2-9.6,2-9.6c0.3-1.1,2.5-1.2,5.4-0.7c-0.2,1-0.5,1.9-0.7,2.6c-0.9,2.8-3.7,15.7-4,19.4c-0.3,3.3-3.9,59.2-2.3,75.7
				c-0.1,0.2-0.3,0.3-0.4,0.5c-2,5.6,0.8,26.4,1.8,30.7c0.6,2.4,2.7,2.6,4.3,2.6c3.5,0,6.7,1.6,9.3,2.3c0.1,1.1,0.3,2.1,0.4,3.1
				c0.4,3.1-2.8,3.8-3.6,4.3c-2.7,1.9-7.5-2.1-12.9-2c-1.6,0-3.7-0.2-4.3-2.6c-1-4.3-3.8-25.1-1.8-30.7
				C-14.7,91-14.6,90.8-14.5,90.6"/>
		</g>
		<g transform="matrix(-0.990745,-0.108726,-0.135738,0.793582,213.062,366.88)">
			<path style="fill:#27213F;" d="M-26.5-90.3c5.3,0,21.1,15.4,23.4,20.6c15.9,37.6-8.4,153.6-13,191.2c-0.4,2.9-29.3-1.6-29-7.6
				C-44,87.5-25.4-41.4-28.7-56.9c-1.3-6.3-4.5-19.7-0.9-19.6"/>
		</g>
		<g transform="matrix(0.990745,-0.108726,0.135738,0.793582,372.557,366.88)">
			<path style="fill:#27213F;" d="M-40.9-92.2c5.3,0,21.1,15.4,23.4,20.6C-9.9-55-1.2-38.3-7.7-1c-0.7,3.8-35.2,3.9-34.7,0.4
				c3.8-26.1,2.5-42.8-0.8-58.3c-1.3-6.3-4.5-19.7-0.9-19.6"/>
		</g>
		<g transform="matrix(1,0,0,1,329.353,452.309)">
			<path style="fill:#312B4B;" d="M-3.8-152.9c2.8,3,8.5,20.3,8.9,34.1C6.3-77.5,5.4-4,5.7,10.5C6,20.8-21.5,26.4-44.6,26.9
				c-46.2,0.9-46.6-15.4-46.7-21.3C-92-29.4-95.9-75.1-94-116.5c0.7-15,3.3-29.4,11-35.5C-69.6-162.6-13.1-160.1-3.8-152.9z"/>
		</g>
		<g transform="matrix(0.00874249,0.999962,0.999962,-0.00874249,359.054,370.047)">
			<path style="fill:#27213F;" d="M-44.3-74.2c32.6,2.5,95.6,1.2,138.6,0"/>
		</g>
		<g transform="matrix(1,0,0,1,308.466,286.668)">
			<path style="fill:#FFD5B7;" d="M-6.8,6.2c0,0,0.5,9.2-1.9,15.3c-2.9,7.6-15.5,17.9-15.5,17.9s-9.2-7.9-13.4-16.1
				c-3.7-7.2-4.5-15.3-3.7-16.1c1.8-1.8,4.9-1.8,4.1-16.1c0,0,10-1.5,27.4-1C-9.8-9.8-11.4,3.9-6.8,6.2z"/>
		</g>
		<g transform="matrix(1,0,0,1,311.438,264.521)">
			<path style="fill:#27213F;" d="M-6.4,62.1c0,0-6.6-12.8-11.2-10c4.3-5.4,7.5-23.2,7.5-23.2c-3.1-3.7-2.6-6.2-2.6-6.2s0.1,0,0.1,0
				c13.9,1.1,12.9,6.1,12.9,6.1C4.4,43.4-6.4,62.1-6.4,62.1"/>
		</g>
		<g transform="matrix(-1,0,0,1,273.105,264.521)">
			<path style="fill:#27213F;" d="M8.3,62.1c0,0-6.3-12.2-10.9-9.4c4.3-5.4,7.2-23.8,7.2-23.8C1.6,25.2,2,22.7,2,22.7s0.1,0,0.1,0
				c13.9,1.1,12.9,6.1,12.9,6.1C19,43.4,8.3,62.1,8.3,62.1"/>
		</g>
		<g transform="matrix(1,0,0,1,305.693,299.059)">
			<path style="fill:#4D0B00;fill-opacity:0.2;" d="M-3-2.8c0,0-15.3,7-24,2.9c0,0,1.7,19.5,16.1,15.7c-3.6,6-10.8,11.4-10.8,11.4
				s-7.9-6-12.2-14.3c-3.7-7.1-5.3-17.5-4.5-18.4c1.8-1.8,5.7-1.4,3.5-17c0,0,12.3,4.7,29.5,1.9C-5.3-20.6-2.5-6.2-3-2.8z"/>
		</g>
		<g>
			<g transform="matrix(2.93606,0,0,3.18601,-327.415,75.4933)">
				<path style="fill:#AD1C1C;" d="M195.4,61.7l-2.3-11.3c-1.1-5.9,5.8-9,9.7-9l13.6,0c4.2,0,8.3,3.1,6.2,9.8l-2.1,10.1L195.4,61.7z
					"/>
			</g>
			<g transform="matrix(1,0,0,1,262.262,237.21)">
				<path style="fill:#FFD5B7;" d="M-8.8,36.7c-0.3,0.3-0.8,0.5-1.3,0.5c-3.7,0.2-9.6-1.1-10.2-10.3c-0.6-9.1,4.3-10.6,7.5-9.2h0
					c1.6,0.8,2.8,2.3,2.6,4c0,0-0.1,7.5,1.9,12.6C-7.9,35.2-8.2,36.2-8.8,36.7"/>
			</g>
			<g transform="matrix(1,0,0,1,262.262,237.209)">
				<path style="fill:#F58E45;fill-opacity:0.17;" d="M-8.8,36.7c-0.3,0.3-0.8,0.5-1.3,0.5c-3.7,0.2-9.6-1.1-10.2-10.3
					c-0.6-9.1,4.3-10.6,7.5-9.2c-0.4,0.1-5.1,1.6-3.7,9.9C-15.3,34.9-12.1,37.1-8.8,36.7"/>
			</g>
			<g transform="matrix(1,0,0,1,326.724,235.729)">
				<path style="fill:#FFD5B7;" d="M-5.6,22.5c0.4,12.9-0.8,16.2-3.6,27.2c-6.8,26.6-56.6,26.6-63,2.1c-2.1-7.9-4.9-13.5-4.9-25.9
					c0-12.3-13.4-49.6,29.7-54.5C9.5-35-6.4,16.3-5.6,22.5"/>
			</g>
			<g transform="matrix(1.23476,0.123663,-0.156476,1.56239,-509.08,-239.143)">
				
					<ellipse transform="matrix(-0.5045 0.8634 -0.8634 -0.5045 1269.9758 -155.4809)" style="fill-rule:evenodd;clip-rule:evenodd;fill:#482B27;" cx="679.6" cy="286.6" rx="5.3" ry="3.7"/>
			</g>
			<g transform="matrix(2.99887,0,0,3.18601,-343.943,81.2297)">
				<path style="fill:#CF3322;" d="M222.9,36.3c-4.4-3.1-13.1-0.9-17.9,1.2c0.1-1.4-0.8-1.3-0.8-1.3c-8.4,2.2-6.6,7.9-6.6,7.9
					l-0.7,0.5c-0.9,1.9-0.8,6.4,0.2,13.7c0,0,2.2-7.9,2.3-12.6c3.7,1.6,13.9,5.6,20.5,3.4c0.7,4,2,9.3,2,9.3
					c0.7-4.7,0.8-8.1,0.3-10.4c0.4-0.3,0.8-0.6,1.1-1C223.5,47,229.2,40.7,222.9,36.3z"/>
			</g>
			<g>
				<g>
					<path style="fill:#AD1C1C;" d="M310.9,246.4l0.1-1c-4.8-3.9-12.3-3.4-15.5-2l1.3,4.7C299.2,246.6,306,243.6,310.9,246.4z"/>
				</g>
				<g>
					<path style="fill:#AD1C1C;" d="M260,241.5c7.2-1.8,16.3,3.4,18.6,4.5l2-4.5c-2.6-1.2-12.3-3.7-20.8-1.2L260,241.5z"/>
				</g>
				<g>
					<path style="fill:#FFFFFF;" d="M293.9,263.5c0.4-4.2,1.5-9.1,8.2-10.1c6.6-1,9,5.1,8.6,7.3s-2.4,5.1-6,5
						c-3.6,0-6.8-0.7-8.1-0.7C295.3,265.1,293.8,264.4,293.9,263.5z"/>
					<circle style="fill:#39170B;" cx="302" cy="259.3" r="4.3"/>
					<path style="fill:#FFFFFF;" d="M302.8,259c-0.1,1.3,0.9,2.5,2.2,2.6c1.3,0.1,2.5-0.9,2.6-2.2c0.1-1.3-0.9-2.5-2.2-2.6
						C304.1,256.7,302.9,257.7,302.8,259z"/>
					<path style="fill:#FFFFFF;" d="M277.3,262.1c0.3-4.2,0-9.2-6.4-11.3c-6.4-2.1-9.7,3.6-9.7,5.8c0,2.2,1.5,5.4,5.1,5.9
						c3.6,0.6,6.8,0.4,8.1,0.7C275.6,263.5,277.2,263,277.3,262.1z"/>
					<path style="fill:#39170B;" d="M275.1,256.7c-0.2,2.9-2.8,5.1-5.8,4.9c-2.9-0.2-5.1-2.8-4.9-5.8s2.8-5.1,5.8-4.9
						C273.1,251.1,275.3,253.7,275.1,256.7z"/>
					<path style="fill:#FFFFFF;" d="M275.4,256.4c-0.1,1.3-1.3,2.4-2.6,2.2c-1.3-0.1-2.4-1.3-2.2-2.6c0.1-1.3,1.3-2.4,2.6-2.2
						S275.5,255,275.4,256.4z"/>
				</g>
				<path style="fill:#EE8E6F;" d="M287.6,256.2c2,8.9,6.6,19.8,5.7,20.9c-0.8,1-6-0.2-8.9-0.9c-0.1,0.5-0.2,1.9-0.2,1.9
					s10.5,2.7,11.5,1.3c1-1.4-6.4-17.2-6.9-25.3C288.8,253.2,288.1,253.7,287.6,256.2z"/>
			</g>
		</g>
		<g transform="matrix(1.16545,0.173761,-0.182993,1.22737,-523.085,-129.572)">
			<path style="fill-rule:evenodd;clip-rule:evenodd;fill:#27213F;" d="M715.1,382.2l7.8,183.3l37.2-2.4l4.3-115.8l34.4,113.1
				l29.2-4l-35.2-185.6L715.1,382.2z"/>
		</g>
	</g>
	<g transform="matrix(4.6696,1.58242,-1.58242,4.6696,-1287.43,-1118)">
		<path style="fill:#DBAD92;" d="M360.4,184c-1.4,1-0.9,3.7-1.2,4.4c-0.3,0.6,2.2,3.7,2.7-1.3C362.1,185,362.3,182.6,360.4,184z"/>
	</g>
	<g transform="matrix(4.6696,1.58242,-1.58242,4.6696,-1291.52,-1103.77)">
		<path style="fill:#FFD5B7;" d="M365.1,193.4c0.2,0.1-3.6-7-3.6-7s-2.1-0.2-2,0.4c0,3.6,0.9,2.6,1.4,5.9
			C361.8,199.7,365.1,193.4,365.1,193.4z"/>
	</g>
	<g transform="matrix(4.6696,1.58242,-1.58242,4.6696,-1283.31,-1117.18)">
		<path style="fill:#FFD5B7;" d="M359.9,184.3c-1.4,1-1.3,3.9-1.4,4.6c-0.1,0.6,2.4,5.3,3.5-1.7C362.2,185,361.8,182.9,359.9,184.3z
			"/>
	</g>
	<g transform="matrix(4.6696,1.58242,-1.58242,4.6696,-1291.52,-1103.77)">
		<path style="fill:#27213F;" d="M368.9,195.1c-0.8,0.9-1.5,4-3.6,5.5c-1.4,1-0.5,3.2,0.6,4.7c1.1,1.4,2.3,0.6,3.4-0.6
			c2.1-2.4,4.1-10.9,4.1-10.9S370.1,193.7,368.9,195.1z"/>
	</g>
	<g transform="matrix(4.6696,1.58242,-1.58242,4.6696,-1291.52,-1103.77)">
		<path style="fill:#27213F;" d="M369.2,200.6c0.2,0.1-6.2-12.3-6.2-12.3s-3.1,0.9-3.1,1.5c0,3.6,1.4,4.3,1.9,7.6
			c1,7,5.4,8.7,5.4,8.7L369.2,200.6z"/>
	</g>
</g>
<g transform="matrix(0.842577,0,0,0.821634,67.4071,3.54476)">
	<g transform="matrix(-4.54899,-0.683977,-0.370867,2.46656,375.97,378.131)">
		<path style="fill:#27213F;" d="M-2.5-32.3c0,0-7.5,2.1-7.2,12.7C-9.4-8.9-14,6.1-17.2,17.6c0,0,5.1,6,9.3,2.9
			C-3.8,17.4-0.7-21.2-2.5-32.3"/>
	</g>
	<g transform="matrix(2.56259,0.606869,-0.633666,2.67574,136.869,-148.767)">
		<path style="fill:#2E333C;" d="M62.5,82.2c0,0-8.8,0.7-7.7,12.9c0.9,10.3-10.3,4.2-4,24.2c3.8,12.2,7.3,9.1,14.3,12.9
			c4.4,2.4,3.9,18.7,22.1,16.3c18.2-2.4,18.6-1.1,29.8-1.4c16.4-0.3,15.7-11.4,21.6-20.1c3.1-4.5,17.2-21.7,7.8-36.3
			c-10.1-15.7-3-47.4-42.9-40.1C63.7,58.1,62.5,82.2,62.5,82.2z"/>
	</g>
	<g transform="matrix(-2.72313,0.00517851,0.00474331,2.49428,246.331,374.743)">
		<path style="fill:#312B4B;" d="M5.6,109.7c-0.7,2.4-13.8,6.4-25.3,7.7c-21,2.4-45.8,0.3-45.7-5.1c0.2-8.5-0.7-22.6,3.2-44.1
			c0.8-4.3,1.1-14.8,1.2-23.8c0.1-8.2-0.8-15.3-0.8-15.3C-62,29-65,16.3-63.4,11.6c1.6-4.7,5.3-24.5,7.2-31.1
			c0.4-1.2-2.3-5.7,0.1-10.7c0.3-0.7,12.2-8.9,16-9.5c3.7-0.6,27.1-4.5,32.6,5.1C4-27.3,4.4-23.2,4.4-23.2c2.7,13.8-0.7,27.9-2.6,40
			c-1.6,10.9-2.5,18-2.9,21.8c-0.8,7.1,0,19.4,2.3,30.9C3.5,81,6.2,107.7,5.6,109.7z"/>
	</g>
	<g transform="matrix(-2.49428,0.00474331,0.00474331,2.49428,278.362,272.217)">
		<path style="fill:#CE714C;" d="M-1.5,2.8c0,0-16.8,6.9-23.9,32.6c0,0-6.4-26.8-5.8-33.9c0,0,3-3.7,2.6-12.7
			c0,0,12.5-0.2,20.8-13.1c-0.2,0.4,4.6,2,3.8,7.4c-0.6,3.9-0.7,8.4,0.2,13h0C-3.3-1.6-2.6,0.6-1.5,2.8"/>
	</g>
	<g transform="matrix(-2.49428,0.00474331,0.00474331,2.49428,278.364,272.217)">
		<path style="fill:#4D0B00;fill-opacity:0.2;" d="M-1.5,2.8c0,0-20.7,19.4-23.9,32.6C-26.1,22.2-19,9.1-30.3,7.3
			c0,0-1.2-2.6-0.9-5.8l26.3-11.7C-4.5-8-2.6,0.6-1.5,2.8"/>
	</g>
	<g transform="matrix(2.0609,-1.40505,1.40505,2.0609,354.285,313.737)">
		<path style="fill:#3B3B3B;fill-opacity:0.2;" d="M-14.6-33.1c3,10,1.3,21.3-0.3,28.1c2.4,5.6,0.5,16.9,0.3,17.7
			C-8.1-2.8-7.5-30.1-10.5-32C-11.3-32.5-12.8-32.9-14.6-33.1"/>
	</g>
	<g transform="matrix(-2.49428,0.00474331,0.00474331,2.49428,344.987,329.91)">
		<path style="fill:#27213F;" d="M-2.8-25.6C-3.7-20.7-4-15.9-3-7.4c-4.5-5.7-13.1-3.5-16.8,1.7c-0.4-1.2,1.8-10.8,6-14.9
			C-11.1-23.2-2.8-25.6-2.8-25.6"/>
	</g>
	<g transform="matrix(-2.49428,0.00474331,0.00474331,2.49428,250.92,310.701)">
		<path style="fill:#27213F;" d="M-11.4,11.9c0.2-0.4-2.1-5.3-8.7-9.3c-1.6-1-9.7,1.8-10,2.6c3.2-16.4,11.7-24.5,15.3-24.3
			c1,0.1,2.4,0.5,4.1,1.3"/>
	</g>
	<g transform="matrix(-2.42715,-0.574795,-0.574795,2.42715,253.358,165.382)">
		<path style="fill:#E0835E;" d="M-11.8-3.9L-11.8-3.9C-3.8-38-55.1-58.8-65.8-22.7c0,0-3.8,17.8-1,34.5c2.1,9.5,7.4,16.3,9.3,18.7
			c11.6,15.1,20.3,11.2,33.7,3.6c3.8-2.1,7.4-7.3,9.5-11.1c0.6-1,1-2.1,1.4-3.2c0.1-0.3,0.2-0.6,0.3-0.9c0.2-0.7,0.4-1.5,0.6-2.3
			c0.1-0.5,0.2-1.1,0.3-1.7c0.2-1.1,0.3-2.2,0.3-3.4C-11.5,11.7-11.2-5.7-11.8-3.9z"/>
	</g>
	<g transform="matrix(1.47936,0.276607,0.184346,-0.985925,369.383,235.001)">
		<path style="fill:#C0704F;" d="M5.7-34.1c0,0-0.5,1.6-1.5,3.6c-1,2-2.5,4.6-4.6,6.6c-2.2,2.1-5,3.6-8.5,3.6
			c-3.6-0.1-6.4-1.2-8.6-2.8c-4.1-3.1-5.8-8.1-6.1-11c4.3,5.5,8.7,10.6,14.1,10.8C-5.2-23.1-0.3-26,5.7-34.1z"/>
	</g>
	<g transform="matrix(-2.42715,-0.574795,-0.574795,2.42715,273.163,151.99)">
		<path style="fill:#4D0B00;fill-opacity:0.2;" d="M-5.4,3.1"/>
	</g>
	<g transform="matrix(-2.42715,-0.574795,-0.574795,2.42715,270.682,197.762)">
		<path style="fill:#FBEEC7;fill-opacity:0.2;" d="M-2.3,5.7C-2.3,5.2-2.2,4.6-2,4C-2.1,4.6-2.2,5.2-2.3,5.7"/>
	</g>
	<g transform="matrix(2.35603,1.45777,-1.31241,2.1211,220.032,-179.611)">
		<path style="fill:#2E333C;" d="M117.2,51.3c0,0-1.4,34.6-39.8,42.3c0,0-7.8,2-15.1-0.7c-2.7-8.6-3.2-30.8,9.1-42.1
			C83.7,39.5,112.9,28.8,117.2,51.3z"/>
	</g>
	<g transform="matrix(-1.56719,1.94046,1.94046,1.56719,260.884,468.113)">
		<path style="fill:#E0835E;" d="M6.9,16.9c-6,8.9-26.3,31.1-28.4,31c-0.7,0-12,2.1-14.5,0.2c-1.3-1-5.4,0.2-5.5-2
			c-0.3-3.6,4.1-10.7,5.6-10.5c3.1,0.3,9,2,9,2S-15,29.7-9,18.4C-4.1,9.4,0.3,3.2,1.6,1.3c0,0-8.1-8.7-9.9-11.6
			c-1.8-2.8,8-11.2,10.5-9.2C3-18.8,8.1-12.1,9-10.8c2.2,3.2,5.2,7.5,6.2,9.8C16.7,2.1,13,8.1,6.9,16.9"/>
	</g>
	<g transform="matrix(-1.9439,1.56292,1.56292,1.9439,179.091,341.25)">
		<path style="fill:#27213F;" d="M-26.8,90.8C-28.4,89.2,5.5,64,4.5,60.6c-3.4-11-19.8-22-22.9-27.5C-23,25.3-25,10-24.9,5.9
			C-24.9,5.7-13.5,4.2-4,18c3.8,5.5,25.6,31.3,28.7,45.8c0.7,3.5-41.4,34.8-40.4,36.3C-12.8,104.7-24,93.6-26.8,90.8z"/>
	</g>
	<g transform="matrix(1.29853,0,0,1.36944,-95.3897,-131.607)">
		<g transform="matrix(1.47431,1.06953,-1.06953,1.47431,383.591,436.622)">
			<path style="fill:#E0835E;" d="M9.1,15.4c-6,8.9-26.3,31.1-28.4,31c-3.8-0.1-3.8-8.1-3.8-8.1s10.2-10.2,16.2-21.4
				C-1.9,7.8,2.5,1.7,3.8-0.3c0,0-4.6-13.3-6.4-16.1c-1.8-2.8,6.1-7.9,8.6-5.8c0.7,0.6,4.2,8.5,5.1,9.8c2.2,3.2,5.2,7.5,6.2,9.8
				C18.9,0.5,15.2,6.5,9.1,15.4"/>
		</g>
	</g>
	<g>
		<path style="fill:#E0835E;" d="M239.5,508.5L239.5,508.5l36,0l-25.8-7.9c-3-1.2-2.8-3.8-2.6-4.8l13.8,2.5l4.3,0.9l0,0
			c4.2,0.6,8,1.4,11.4,2.3l0,0l5.8,0.9l23.8,8.2l0,0l4.7,14.5l-3.5,5.4c0,0-11.4,2.3-22.9,0.3c-12.5,3.4-23.6,3.7-23.6,3.7
			c-6.6-0.7-2.4-4.1-2.4-4.1c6.3,0.9,15.8-2.2,17.3-2.7c1.1-0.4,2.1-0.8,3-1.1l-0.5-0.9l-34.6,0.4c-4.8-0.6-1.5-5-1.5-5l26.3-2.3
			l5.8-1.2l-0.9-1.8l0.5-0.2l-0.7,0l-33.3-0.5l0,0c-5.8-0.5-5.4-6.7-5.4-6.7L239.5,508.5z"/>
	</g>
	<g transform="matrix(-1.9439,1.56292,1.56292,1.9439,179.091,341.25)">
		<path style="fill:#27213F;" d="M3.6,83.8C2.4,82-35.8,99.8-38.8,97.9c-9.7-6-13.7-11.7-18.3-16c-6.7-6.1-12.9-8.4-3.8,14.3
			c3.3,8.6,8,16.1,15.9,19.8c3.3,1.5,52.6-22.4,53.9-21.2C9.4,94.8,5.7,87.2,3.6,83.8z"/>
	</g>
	<g>
		<g>
			<path style="fill:#2E333C;" d="M421.5,183.1l1.4-2.1c-6.6-14.7-24.5-23.1-33.4-24.3l-1.7,6.3C395,163,413.5,170.6,421.5,183.1z"
				/>
		</g>
		<g>
			<path style="fill:#2E333C;" d="M299.3,158.8c16.3-9,43.7-7.4,50.2-6l0.4-6.6c-7.4-1.4-33.2-1.4-52.1,10L299.3,158.8z"/>
		</g>
		<g>
			<path style="fill:#FFFFFF;" d="M339.4,189.1c3.3-3.1,0-16.6-11.4-22c-11.4-5.4-18.6,2-19.4,5.2c-0.7,3.2,0.1,9.3,6.6,13.2
				c6.5,3.9,12.2,3.8,15.5,4C334.8,189.7,337.5,190.9,339.4,189.1z"/>
			<circle style="fill:#39170B;" cx="326.8" cy="175" r="8.8"/>
			<circle style="fill:#FFFFFF;" cx="332.5" cy="178.7" r="3.5"/>
			<path style="fill:#39170B;" d="M340.5,186.3c0,0,2.3-6-4-15c-6.3-9-16.2-8.5-18.8-9.4c-2.6-0.9-5.5-0.4-4.8,0.4
				c0.7,0.8-2,2.7-4,1.9c-2-0.8-0.3,1.9-0.4,2.6c-0.1,0.7-3.7,0-4.1,0.8c-0.4,0.8,1.7,2.9,1.2,3c-0.6,0.1-2.8,1.4-1.9,2.3
				c0.9,0.8,2.5,3.6,3.2,4.7c0.7,1.1,2.8,2.4,2.8,2.4s-2-5.4,0.1-8.8c2-3.3,6.6-6.6,13.3-4.9s10.5,5.6,13.1,8.7
				C338.9,178.3,340.5,186.3,340.5,186.3z"/>
		</g>
		<g>
			<path style="fill:#FFFFFF;" d="M378.2,196.8c-1.8-4,5.8-14.6,17.7-15.1c11.9-0.5,15.7,8.6,15.2,11.7c-0.5,3.1-3.3,8.1-10.4,9.1
				c-7.1,1.1-12.1-1.1-15-2.2C382,199,379.2,199,378.2,196.8z"/>
			<circle style="fill:#39170B;" cx="394.1" cy="189" r="8.4"/>
			<path style="fill:#FFFFFF;" d="M394.8,192.3c-0.5,2.2,0.8,4.4,2.9,4.9c2.1,0.5,4.3-0.8,4.8-3c0.5-2.2-0.8-4.4-2.9-4.9
				C397.5,188.7,395.4,190.1,394.8,192.3z"/>
			<path style="fill:#39170B;" d="M378.1,193.9c0,0,0-6.1,8.7-11.7c8.7-5.6,17.2-1.5,19.7-1.3c2.6,0.2,5,1.7,4.1,2.1
				c-0.9,0.5,0.8,3,2.8,3.1c2.1,0.1-0.4,1.7-0.6,2.4c-0.2,0.7,3.3,1.4,3.4,2.2c0.1,0.8-2.5,1.9-2.1,2.2c0.5,0.3,2,2.3,0.9,2.7
				c-1.1,0.4-3.5,2.2-4.5,3c-1,0.7-3.3,1-3.3,1s3.6-4,3-7.7c-0.6-3.7-3.5-8.2-10-9.2c-6.5-0.9-11.2,1-14.6,2.9
				C382.4,187.5,378.1,193.9,378.1,193.9z"/>
		</g>
		<path style="fill:#C77553;" d="M362.1,201.2c-1,8.6,2.2,21,8.1,30.1c0,0-15.1,5.6-24.6,4.1l17.4-7.7c0,0-6.3-21.8-3.9-29.9
			C361.5,189.8,363.1,192.7,362.1,201.2z"/>
	</g>
	<g>
		<path style="fill:#E0835E;" d="M289,166.9c-7.8-15.4-21.4-26.5-28-11.9c-6.6,14.6,7.6,40.3,15.7,51.4S291.8,172.4,289,166.9z"/>
		<path style="fill:#C77553;" d="M283.5,169.7c-4.3-8.4-11.8-14.5-15.4-6.5c-3.6,8,4.2,22.1,8.6,28.2
			C281.2,197.5,285.1,172.8,283.5,169.7z"/>
		<path style="fill:#E0835E;" d="M283.1,181c-3.4-6.8-9.4-11.7-12.3-5.2c-2.9,6.4,3.4,17.7,6.9,22.6
			C281.2,203.3,284.3,183.4,283.1,181z"/>
	</g>
</g>
<g transform="matrix(1,0,0,1,10.2646,0)">
	<g transform="matrix(0.549457,-0.340962,0.266619,0.429655,-264.861,319.82)">
		<path style="fill-rule:evenodd;clip-rule:evenodd;fill:#FFFFFF;" d="M649.7,47.9c0-2-1.2-3.6-2.8-3.6c-1.5,0-2.8,1.6-2.8,3.6V86
			c0,2,1.2,3.6,2.8,3.6c1.5,0,2.8-1.6,2.8-3.6V47.9z"/>
	</g>
	<g transform="matrix(0.622486,0.175127,-0.136943,0.48676,-212.483,-32.4285)">
		<path style="fill-rule:evenodd;clip-rule:evenodd;fill:#FFFFFF;" d="M662.7,55.6c0-2-1.2-3.6-2.8-3.6s-2.8,1.6-2.8,3.6v38.1
			c0,2,1.2,3.6,2.8,3.6s2.8-1.6,2.8-3.6V55.6z"/>
	</g>
	<g transform="matrix(0.630694,-0.142771,0.111642,0.493179,-285.497,169.814)">
		<path style="fill-rule:evenodd;clip-rule:evenodd;fill:#FFFFFF;" d="M653.9,52.1c0-2-1.2-3.6-2.8-3.6c-1.5,0-2.8,1.6-2.8,3.6v38.1
			c0,2,1.2,3.6,2.8,3.6c1.5,0,2.8-1.6,2.8-3.6V52.1z"/>
	</g>
	<g transform="matrix(0.637354,0.109261,-0.0854378,0.498387,-250.519,0.131989)">
		<path style="fill-rule:evenodd;clip-rule:evenodd;fill:#FFFFFF;" d="M659.6,55c0-2-1.2-3.6-2.8-3.6c-1.5,0-2.8,1.6-2.8,3.6l0,38.1
			c0,2,1.2,3.6,2.8,3.6c1.5,0,2.8-1.6,2.8-3.6V55z"/>
	</g>
</g>
</svg>
