<?xml version="1.0" encoding="utf-8"?>
<!-- Generator: Adobe Illustrator 24.0.3, SVG Export Plug-In . SVG Version: 6.00 Build 0)  -->
<svg version="1.1" id="Layer_1" xmlns="http://www.w3.org/2000/svg" xmlns:xlink="http://www.w3.org/1999/xlink" x="0px" y="0px"
	 width="480px" height="600px" viewBox="0 0 480 600" style="enable-background:new 0 0 480 600;" xml:space="preserve">
<g transform="matrix(-1.05e-05,240.621,240.621,1.05e-05,408.5,-8.71826)">
	<path style="fill:#2BA5DF;" d="M0-1.8l2.6,0l0,2.1L0,0.3L0-1.8z"/>
</g>
<g>
	<path style="fill:#FFFFFF;" d="M129.9,92.9H-57.6c-6,0-10.8-4.9-10.8-10.8l0,0c0-6,4.9-10.8,10.8-10.8h187.5
		c6,0,10.8,4.9,10.8,10.8l0,0C140.8,88,135.9,92.9,129.9,92.9z"/>
	<path style="fill:#FFFFFF;" d="M87.2,86.2H-38.7c-10.5,0-19.1-8.6-19.1-19.1l0,0c0-10.5,8.6-19.1,19.1-19.1H87.2
		c10.5,0,19.1,8.6,19.1,19.1l0,0C106.3,77.6,97.7,86.2,87.2,86.2z"/>
	<path style="fill:#FFFFFF;" d="M-7.7,67.1h39.9c9.9,0,18-8.1,18-18l0,0c0-9.9-8.1-18-18-18H-7.7c-9.9,0-18,8.1-18,18l0,0
		C-25.7,59-17.6,67.1-7.7,67.1z"/>
</g>
<g>
	<path style="fill:#FFFFFF;" d="M562.3,69.6H268.5c-5,0-9.1-4.1-9.1-9.1l0,0c0-5,4.1-9.1,9.1-9.1h293.8c5,0,9.1,4.1,9.1,9.1l0,0
		C571.4,65.5,567.3,69.6,562.3,69.6z"/>
	<path style="fill:#FFFFFF;" d="M509.9,65.4H309.3c-9.9,0-18-8.1-18-18l0,0c0-9.9,8.1-18,18-18h200.7c9.9,0,18,8.1,18,18l0,0
		C527.9,57.3,519.8,65.4,509.9,65.4z"/>
	<path style="fill:#FFFFFF;" d="M485.5,51.3h-79.7c-8.2,0-15-6.7-15-15l0,0c0-8.2,6.7-15,15-15h79.7c8.2,0,15,6.7,15,15l0,0
		C500.5,44.6,493.8,51.3,485.5,51.3z"/>
	<path style="fill:#FFFFFF;" d="M429.8,29.6h24.8c5.8,0,10.5-4.7,10.5-10.5v0c0-5.8-4.7-10.5-10.5-10.5h-24.8
		c-5.8,0-10.5,4.7-10.5,10.5v0C419.3,24.9,424,29.6,429.8,29.6z"/>
</g>
<path style="fill:#196B92;" d="M472,206.9V197h-11.1v-25.2h-1.5c0-0.3,0-0.6-0.1-0.9c-0.3-1.2-1.5-2.2-3.1-2.2h-62.4v-46.1L429.3,87
	v17.8h-11.4v9.8h11.4v7.1h-11.4v9.8h28.9v-9.8h-11.4v-7.1h11.4v-9.8h-11.4v-25c0-0.5-0.1-1-0.3-1.5c-0.3-1.2-1.5-1.8-2.8-1.8h-39.3
	l-18.2-46.7c0.3-0.6,0.3-1.2,0-1.8c-0.3-0.9-0.9-1.5-1.5-1.8l-24.6-63.3c-0.6-1.2-1.8-2.2-3.1-2.2c-1.5,0-2.5,0.9-3.1,2.2l-24.3,63
	c-0.9,0.3-1.8,1.2-2.2,2.2s-0.3,1.8,0.3,2.8l-17.6,45.8h-41.1c-1.2,0-2.2,0.6-2.8,1.8c-0.2,0.5-0.3,1-0.3,1.5v25H243v9.8h11.7v7.1
	H243v9.8h28.9v-9.8h-11.1v-7.1h11.1v-9.8h-11.1V86.9l36.9,36.1v45.8h-64.6c-1.5,0-2.8,0.9-3.1,2.2c-0.2,0.9,0,1.7,0.3,2.4v22.8H219
	v9.8h11.4v7.1H219v9.8h28.9V213h-11.4v-7.1h11.4v-9.8h-11.4v-18.5l60.2,36.7L219,364.8c-0.6,1.2-0.3,2.8,0.6,3.7
	c0.6,0.6,1.2,0.9,2.2,0.9c0.6,0,0.9,0,1.5-0.3l119.6-61.5l113.4,61.5c1.2,0.9,2.8,0.6,3.7-0.3s1.2-2.5,0.6-3.7l-66-151l60.2-37.5
	V197h-11.7v9.8h11.7v7.1h-11.7v9.8H472v-9.8h-11.1v-7.1H472z M268,283.9l30.6-59.2l4.4,61.9L268,283.9z M299.3,292.4l-66.9,60.3
	l32.5-62.9L299.3,292.4z M299.5,300.5l-7.9,26.4l-49.8,25.5L299.5,300.5z M308.8,283.9l-4.3-62.7l35.4,34.6L308.8,283.9z
	 M387.5,209.6l-35-16.6l35-16V209.6z M373.6,209.9h-58l29.5-13.5L373.6,209.9z M304.2,208.1v-31l33.5,15.7L304.2,208.1z
	 M308.5,216.4h75.2l-39.2,35.3L308.5,216.4z M386.7,222l-5.6,65.3L349,256L386.7,222z M390.1,296.2l31.3-4.6l26.9,61.5L390.1,296.2z
	 M439.5,353l-39.4-21.4l-9.2-26.2L439.5,353z M387.2,290.4l5.5-64.5l26.2,59.8L387.2,290.4z M345.1,189.6l-30.8-14.8h62.6
	L345.1,189.6z M345.7,104.2l30.6,14.4H315L345.7,104.2z M304.2,116.5v-32l34.1,16L304.2,116.5z M387.2,116.8l-34.1-16l34.1-16V116.8
	z M346,97.1L315.8,83h60.4L346,97.1z M304.2,126.9l35.3,20l-35.3,19.7V126.9z M312.8,124.8h65.8l-32.9,18.4L312.8,124.8z
	 M387.5,126.9v39.7l-35.3-19.7L387.5,126.9z M393.9,114V83h30.7L393.9,114z M383.8,71l-32.9-23.4l18.4-13.5L383.8,71z M345.4,43.6
	l-16.6-11.7h32.9L345.4,43.6z M345.4-27.4L366,25.5h-40.9L345.4-27.4z M321.7,34.4l18.1,12.9l-32.3,23.4L321.7,34.4z M346,51.3
	l35.3,25.2h-70.6L346,51.3z M297.7,83v31.2L265.4,83H297.7z M345.7,150.6l32.3,18.1h-64.7L345.7,150.6z M297.7,174.9v32.6
	l-53.2-32.6H297.7z M299.2,323.1l8.7-29.3l27.3,10.8L299.2,323.1z M312.4,289l32.1-28.9l32.9,32.2l-34.4,8.7L312.4,289z
	 M381.5,297.6l10.4,29.6l-40.5-22L381.5,297.6z M393.9,207.2v-32.3h51.6L393.9,207.2z"/>
<g>
	<g>
		<g>
			<rect x="228.8" y="239.8" style="fill:#196B92;" width="6.1" height="42.1"/>
		</g>
	</g>
	<g>
		<path style="fill:#196B92;" d="M168.6,282.2l63.6-39.6c0.9-0.9,1.5-2.5,1.2-3.7c-0.3-1.2-1.5-2.2-3.1-2.2h-62.4v-46.1l35.3-35.6
			v17.8h-11.4v9.8h11.4v7.1h-11.4v9.8h28.9v-9.8h-11.4v-7.1h11.4v-9.8h-11.4v-25c0-0.5-0.1-1-0.3-1.5c-0.3-1.2-1.5-1.8-2.8-1.8
			h-39.3l-18.2-46.7c0.3-0.6,0.3-1.2,0-1.8c-0.3-0.9-0.9-1.5-1.5-1.8l-24.6-63.3c-0.6-1.2-1.8-2.2-3.1-2.2c-1.5,0-2.5,0.9-3.1,2.2
			l-24.3,63c-0.9,0.3-1.8,1.2-2.2,2.2s-0.3,1.8,0.3,2.8l-17.6,45.8H31.8c-1.2,0-2.2,0.6-2.8,1.8c-0.2,0.5-0.3,1-0.3,1.5v25H17v9.8
			h11.7v7.1H17v9.8h28.9v-9.8H34.8v-7.1h11.1v-9.8H34.8v-17.9L71.7,191v45.8H7.2c-1.5,0-2.8,0.9-3.1,2.2c-0.2,0.9,0,1.7,0.3,2.4
			v22.8H-7v9.8H4.4v7.1H-7v9.8h28.9V281H10.6v-7.1h11.4v-9.8H10.6v-18.5l60.2,36.7L-7,432.8c-0.6,1.2-0.3,2.8,0.6,3.7
			c0.6,0.6,1.2,0.9,2.2,0.9c0.6,0,0.9,0,1.5-0.3l119.6-61.5l113.4,61.5c1.2,0.9,2.8,0.6,3.7-0.3s1.2-2.5,0.6-3.7L168.6,282.2z
			 M42,351.9l30.6-59.2l4.4,61.9L42,351.9z M73.3,360.4L6.4,420.7L39,357.8L73.3,360.4z M73.5,368.5L65.7,395l-49.8,25.5L73.5,368.5
			z M82.8,351.9l-4.3-62.7l35.4,34.6L82.8,351.9z M119.1,264.4l28.5,13.5h-58L119.1,264.4z M78.2,276.1v-31l33.5,15.7L78.2,276.1z
			 M161.5,277.6l-35-16.6l35-16V277.6z M119.1,257.6l-30.8-14.8h62.6L119.1,257.6z M82.5,284.4h75.2l-39.2,35.3L82.5,284.4z
			 M160.7,290l-5.6,65.3L123,324L160.7,290z M166.7,293.9l26.2,59.8l-31.7,4.6L166.7,293.9z M164.1,364.2l31.3-4.6l26.9,61.5
			L164.1,364.2z M213.5,421l-39.4-21.4l-9.2-26.2L213.5,421z M219.6,242.9l-51.6,32.3v-32.3H219.6z M119.7,172.2l30.6,14.4H89
			L119.7,172.2z M78.2,184.5v-32l34.1,16L78.2,184.5z M161.2,184.8l-34.1-16l34.1-16V184.8z M120,165.1L89.8,151h60.4L120,165.1z
			 M78.2,194.9l35.3,20l-35.3,19.7V194.9z M86.8,192.8h65.8l-32.9,18.4L86.8,192.8z M161.5,194.9v39.7l-35.3-19.7L161.5,194.9z
			 M167.9,182v-31h30.7L167.9,182z M157.8,139l-32.9-23.4l18.4-13.5L157.8,139z M119.4,111.6l-16.6-11.7h32.9L119.4,111.6z
			 M119.4,40.6L140,93.5H99.1L119.4,40.6z M95.7,102.4l18.1,12.9l-32.3,23.4L95.7,102.4z M120,119.3l35.3,25.2H84.7L120,119.3z
			 M71.7,151v31.2L39.4,151H71.7z M119.7,218.6l32.3,18.1H87.3L119.7,218.6z M71.7,242.9v32.6l-53.2-32.6H71.7z M73.2,391.1
			l8.7-29.3l27.3,10.8L73.2,391.1z M86.4,357l32.1-28.9l32.9,32.2l-34.4,8.7L86.4,357z M155.5,365.6l10.4,29.6l-40.5-22L155.5,365.6
			z"/>
		<rect x="217.1" y="265" style="fill:#196B92;" width="28.9" height="9.8"/>
		<rect x="217.1" y="281.9" style="fill:#196B92;" width="28.9" height="9.8"/>
	</g>
</g>
<g transform="matrix(0.975021,0.0346443,-0.0346443,0.975021,-68.4638,2.02733)">
	<rect x="442.9" y="468.8" style="fill:#27213F;" width="101" height="124"/>
	<g transform="matrix(-1.04678,-0.0727416,-0.074048,1.09165,524.57,465.309)">
		<path style="fill:#F0B78E;" d="M-21.7,20.5c0,0,5.3,7.6,5.3,8.2c0,0.5-1.4,17.8-5.3,17.8s-4.9-20.6-3.3-21.9
			C-23.3,23.1-22.3,20.7-21.7,20.5"/>
	</g>
	<g transform="matrix(1.04804,0.0512109,-0.0534014,1.09287,545.566,471.075)">
		<path style="fill:#FFC196;" d="M23.8,12.4c2.4,6.2-0.2,29.5-1.2,34.2c-0.6,2.6-2.9,3-4.7,3c-6,0.1-11.3,4.7-14.3,2.7
			c-0.8-0.6-4.5-1.2-4.1-4.7c0.9-7.7,1.6-18.4,1.4-30.9C4.6,5.7,21.2,8.1,23.8,12.4"/>
	</g>
	<g transform="matrix(1.04804,0.0512109,-0.0534014,1.09287,535.73,443.501)">
		<path style="fill:#FFC196;" d="M21.9-80c0,0,1.4,7.6,2.5,10.7c1.1,3,4.5,17.4,5,21.6c0.5,4.2,7.5,82.9,3.6,89.1
			c-3.8,6.2-17.2,4.2-18.8,0.6C12.6,38.2,3.6-25,3.1-29.2c-0.5-4.2-4.8-37.9-6.7-41.6C-5.5-74.4,20.7-84,21.9-80"/>
	</g>
	<g transform="matrix(-1.04625,0.0891274,0.0812157,1.09043,552.156,362.532)">
		<path style="fill:#312B4B;" d="M15.5-92.9c-34.2,1.6-35,149.4-28.9,203c0.3,2.3,31.7,5.8,32.3,0.6c1.6-22.9-3.4-152.4,0.8-169.5
			C21.4-65.7,19.5-93.1,15.5-92.9"/>
	</g>
	<g transform="matrix(-1.03955,0.143281,0.145403,1.08438,436.855,470.857)">
		<path style="fill:#F0B78E;" d="M3.6,22.6c0,0-5.3,7.6-5.3,8.2c0,0.5,1.4,17.8,5.3,17.8c3.9,0,4.9-20.5,3.3-21.9
			C5.2,25.2,4.3,22.9,3.6,22.6"/>
	</g>
	<g transform="matrix(1.04493,-0.0955483,0.0996353,1.08963,415.417,477.18)">
		<path style="fill:#FFC196;" d="M-4.5,15.1c-2.3,6.2,0.9,29.4,2,34.2c0.6,2.6,3,2.9,4.8,2.9c6-0.1,11.4,4.4,14.4,2.3
			c0.8-0.6,4.5-1.3,4-4.8c-1.1-7.7-2-18.4-2.2-30.8C14.5,7.9-2.1,10.8-4.5,15.1"/>
	</g>
	<g transform="matrix(1.04493,-0.0955483,0.0996353,1.08963,421.613,450.177)">
		<path style="fill:#FFC196;" d="M-3.1-78.1c0,0-1.2,7.6-2.2,10.7c-1,3.1-4.1,17.5-4.5,21.7c-0.4,4.2-5.5,83.1-1.5,89.1
			c4,6.1,17.3,3.8,18.8,0.1c1.6-3.7,9.1-67.1,9.5-71.3c0.4-4.2,3.9-38.1,5.7-41.8C24.4-73.3-2-82.3-3.1-78.1"/>
	</g>
	<g transform="matrix(1.04493,-0.0955483,0.0996353,1.08963,406.331,373.919)">
		<path style="fill:#4D0B00;fill-opacity:0.2;" d="M-4.5,109.3C-6.3,90.9-2.3,28.7-2,24.9c0.4-4.2,3.5-18.6,4.5-21.7
			S4.8-7.5,4.8-7.5c0.3-1.2,2.8-1.3,6.1-0.7c-0.2,1.1-0.5,2.1-0.8,2.9C9.1-2.3,6,12.1,5.6,16.3c-0.4,3.7-4.4,66-2.5,84.4
			c-0.2,0.2-0.3,0.4-0.4,0.5c-2.3,6.2,0.9,29.4,2,34.2c0.6,2.6,3,2.9,4.8,2.9c3.9-0.1,7.5,1.8,10.3,2.5c0.1,1.2,0.3,2.4,0.5,3.5
			c0.5,3.5-3.2,4.2-4,4.8c-3,2.2-8.3-2.4-14.4-2.3c-1.8,0-4.2-0.2-4.8-2.9c-1.1-4.7-4.2-28-2-34.2C-4.8,109.7-4.6,109.5-4.5,109.3"
			/>
	</g>
	<g transform="matrix(-1.04879,-0.05324,-0.0431239,1.09251,402.485,368.167)">
		<path style="fill:#312B4B;" d="M-35.8-96.6C-1.5-96.5-0.4,54.9-6.6,105.6c-0.4,3.3-32.5,6.3-32.3-0.4
			c1.3-29.4,3.1-152.6-0.6-169.9C-40.9-71.8-39.8-96.6-35.8-96.6"/>
	</g>
	<g transform="matrix(1.04929,0,0,1.09417,512.485,436.364)">
		<path style="fill:#312B4B;" d="M15.9-160.4C21.5-156,29.9-13.5,31.3,34.4c0,1.4-0.7,2.6-1.3,3.5c-0.5,0.6-1.1,0.9-1.7,1.2
			C23,41.6,4.6,48.5-21.2,49.5C-71.3,51.3-75,29.5-75.1,23c-0.7-38.9-3.4-101.4-1.3-147.6c0.8-16.7,5-32.7,15-37.2
			C-51.4-166.3,5.6-168.5,15.9-160.4"/>
	</g>
	<g transform="matrix(1.04929,0,0,1.09417,429.249,387.038)">
		<path style="fill:#27213F;" d="M2.4-71.3C3-91.1,6-118.7,25.1-117.9l-1.3,7.1C12.3-99.9,13-85.8,15.5-40.1c3.7,68-6,80-5.2,118.9
			c0,1.1,0.1,2.5,0.5,4.2c-5.8-5.7-6.6-11.9-6.6-14.9C3.5,29.1,1.2-25.4,2.4-71.3"/>
	</g>
	<g transform="matrix(1.04929,0,0,1.09417,519.489,388.742)">
		<path style="fill:#27213F;" d="M17.1-72.5c0-28.2-0.7-48.8-19.9-48l1.7,9.6c8.7,0.5,11.9,49.8,9.4,71.9
			C1,28.8,20.4,34.8,18.5,73.7c-0.2,5-1.5,9.2-1.9,10.9c4.7-1.5,7.9-3.5,8-6.5C25.3,39.2,17.1-32.1,17.1-72.5"/>
	</g>
	<g transform="matrix(0.00918143,1.09413,1.04925,-0.00957416,543.649,346.354)">
		<path style="fill:#27213F;" d="M-46.3-57.4c36.3,2.8,106.6,1.4,154.5,0"/>
	</g>
	<g transform="matrix(1.04929,0,0,1.09417,522.903,184.582)">
		<path style="fill:#FFC196;" d="M17.6,5.8c-0.3,4-1.4,6.7-2.9,8.4c-0.1,0.1-0.2,0.2-0.3,0.3c0,0,0,0.1-0.1,0.1
			c-0.9,0.9-1.9,1.5-2.9,1.9c-1.8,0.7-3.6,0.9-5.2,0.8c-1.6-0.1-2.6-1.7-2-3.2c2.3-5.6,2.2-14,2.2-14c-0.5-4.3,6.6-7.6,9.8-2.4h0
			C17.3-0.6,17.9,2,17.6,5.8"/>
	</g>
	<g transform="matrix(1.04929,0,0,1.09417,521.675,194.176)">
		<path style="fill:#4D0B00;fill-opacity:0.17;" d="M17.4-11.1L17.4-11.1c-1.5-2.5-3.9-3-6-2.4c1.1,0.3,2.2,1.1,3,2.4h0
			c1,1.7,1.6,4.3,1.4,8.1c-0.3,4-1.4,6.7-2.9,8.4c-0.1,0.1-0.2,0.2-0.3,0.3c0,0,0,0.1-0.1,0.1c-0.9,0.9-1.9,1.5-2.9,1.9
			C8.7,8.1,7.8,8.3,6.9,8.4c0.2,0,0.4,0.1,0.5,0.1c1.5,0.1,3.4-0.1,5.2-0.8c1-0.4,2-1,2.9-1.9c0,0,0-0.1,0.1-0.1
			c0.1-0.1,0.2-0.2,0.3-0.3C17.4,3.6,18.5,1,18.8-3C19-6.8,18.4-9.4,17.4-11.1"/>
	</g>
	<g transform="matrix(1.04929,0,0,1.09417,490.568,255.125)">
		<path style="fill:#FFC196;" d="M12.4,5.3c0,0-2.3,8-6,14.3c-4,6.7-13.8,17.7-13.8,17.7s-7.7-8.8-12.3-18c-4.1-8-5.4-16.4-4.5-17.3
			c2-2,9.5-1.7,7.1-19c0,0,8.9,4.3,28.1,1.2c0,0-1,2.9-1.5,6.8C8.9-4.5,9,1.4,12.4,5.3"/>
	</g>
	<g transform="matrix(1.04929,0,0,1.09417,463.96,280.781)">
		<path style="fill:#27213F;" d="M8.1-28.5c0,0-16.3-1.6-19.8,15.5C-14.1-1.2-8.1,10.1-1.2,20.7c0,0,1.9-11.7,15.3-12.5
			c0,0-5.7-9.3-8.7-16.2c-3.6-8.3-4.9-13.1-4.9-13.1S6.8-23.6,8.1-28.5"/>
	</g>
	<g transform="matrix(1.04929,0,0,1.09417,493.783,235.943)">
		<path style="fill:#27213F;" d="M12.9,60.9c0,0-12.7-16.5-17.8-13.3c4.8-6,7.7-9.4,9.9-13.3c3.8-6.8,4.4-11.6,4.4-11.6
			c-4.1-3.9-4.1-10.6-4.1-10.6s0.1,0,0.1,0c15.5,1.2,18,9.7,18,9.7C27.9,38.1,12.9,60.9,12.9,60.9"/>
	</g>
	<g transform="matrix(1.04929,0,0,1.09417,487.961,268.673)">
		<path style="fill:#4D0B00;fill-opacity:0.2;" d="M12-21.5c0,0-11.1,0.9-17.8,3c0,0,0.6,4.4-4.2,11.3c-4.7,6.6-1.7,23.3,14.3,19
			c-4,6.7-9.1,13.3-9.1,13.3s-6.3-8.9-11-18.1c-4.1-7.9-6.9-16.4-6-17.3c2-2,9.5-1.7,7.1-19c0,0,8.9,4.3,28.1,1.2
			C13.4-28.2,12.4-25.3,12-21.5"/>
	</g>
	<g transform="matrix(1.04929,0,0,1.09417,512.457,180.305)">
		<path style="fill:#FFC196;" d="M15.9,9.6c4.1,33-3.1,38.5-12.1,47c-11.2,10.7-44.6,10.9-54.8,0C-66.5,40-64,33.5-63.8,13.4
			c0.2-13.8-14.9-55.3,33.2-60.7C32.8-54.5,15.1,2.7,15.9,9.6"/>
	</g>
	<g transform="matrix(1.04929,0,0,1.09417,516.928,163.283)">
		<path style="fill:#4D0B00;" d="M16.7-11.2C15.8-23.6,18-34.9-9.7-41.7c-6.5-1.6-11.9-1.8-16.4-1.1c-5.7-1.7-13.4-1.8-23.5,1.8
			c-27.2,9.9-23.6,20.8-23.1,33.2c0.6,12.4,2.4,22.5,2.4,22.5s0.4,5,1.7,11.3c-0.8,7,4.9,0.8,3.4-12.5c-1.9-16.8,7.6-30.4,15.3-27.3
			c3.9,1.5,6.8-1.4,9.2-4c7.3,5.4,20.4,3.3,24.1-0.8c2.8,2.5,6.4,6.1,10.4,3.9C1-18.6,7.9-5.6,8.1,11.3c0.2,16.9,4.7,22.9,4.8,13.6
			c0.1-9.3,3.5-10.6,3.5-10.6S17.5,1.2,16.7-11.2"/>
	</g>
	<g>
		<g>
			<path style="fill:#3B0800;" d="M454.7,173.5l-0.2-1.3c5.9-5.1,15.2-4.8,19.2-3.3l-1.4,6C469.4,173.2,460.8,169.7,454.7,173.5z"/>
		</g>
		<g>
			<path style="fill:#3B0800;" d="M518.3,170.8c-8.8-3.1-20.7,2.5-23.7,3.6l-2-5.8c3.4-1.2,15.7-3.3,26.1,0.8L518.3,170.8z"/>
		</g>
		<g>
			<path style="fill:#FFFFFF;" d="M475.1,195.4c-0.4-5.3-1.6-11.5-9.9-13c-8.3-1.5-11.4,6.1-11.1,8.8c0.4,2.7,2.8,6.4,7.4,6.5
				c4.5,0.1,8.5-0.7,10.1-0.5C473.3,197.3,475.2,196.4,475.1,195.4z"/>
			<circle style="fill:#39170B;" cx="465.1" cy="189.8" r="6.5"/>
			<path style="fill:#FFFFFF;" d="M470.6,186.9c0.1,1.7-1.2,3.1-2.9,3.2c-1.7,0.1-3.1-1.2-3.2-2.9s1.2-3.1,2.9-3.2
				C469.1,183.9,470.5,185.2,470.6,186.9z"/>
			<path style="fill:#FFFFFF;" d="M496,194.3c-0.2-5.3,0.4-11.6,8.4-13.9c8.1-2.4,12,4.9,11.9,7.6s-2.1,6.7-6.6,7.3
				c-4.5,0.6-8.5,0.2-10.1,0.5C498,196,496,195.4,496,194.3z"/>
			<path style="fill:#39170B;" d="M498.9,187.5c0.2,3.7,3.3,6.5,7.1,6.4c3.7-0.2,6.5-3.3,6.4-7.1s-3.3-6.5-7.1-6.4
				C501.6,180.7,498.8,183.8,498.9,187.5z"/>
			<path style="fill:#FFFFFF;" d="M505,184.6c0.1,1.7,1.5,3,3.2,2.9c1.7-0.1,3-1.5,2.9-3.2s-1.5-3-3.2-2.9
				C506.2,181.5,504.9,182.9,505,184.6z"/>
		</g>
		<path style="fill:#EE8E6F;" d="M483.2,186.4c-2.8,11.1-9,24.5-7.9,26c1,1.3,7.5,0,11.2-0.7c0.1,0.7,0.2,2.4,0.2,2.4
			s-13.2,2.9-14.5,1.2c-1.3-1.7,8.7-21.4,9.6-31.4C481.9,182.7,482.8,183.3,483.2,186.4z"/>
	</g>
	<g>
		<g>
			<path style="fill:#C36951;" d="M500.7,222.3l-1.1-0.5c-2.9,9.5-14.3,10.4-21.7,6.9l-0.2,0.7C483.5,232.5,496.6,235.8,500.7,222.3
				z"/>
		</g>
		<path style="fill:#EE8E6F;" d="M492.2,234.9c0,0-4.5,1.8-9.9-0.4C485.8,238.6,489,238.2,492.2,234.9z"/>
		<path style="fill:#C36951;" d="M504.2,222.9c0,0-3.3-0.3-6.3-3.6C499.2,223.4,501.3,224.2,504.2,222.9z"/>
	</g>
</g>
<g transform="matrix(0.975252,-0.0273569,0.0273569,0.975252,-22.7695,16.0528)">
	<rect x="230.7" y="477.7" style="fill:#27213F;" width="103" height="126"/>
	<g transform="matrix(-0.980326,0.197385,0.197385,0.980326,255.454,472.74)">
		<path style="fill:#FFCEAC;" d="M27.7,21.3c0,0-5.3,7.6-5.3,8.2c0,0.5,1.4,17.8,5.3,17.8c3.9,0,4.9-20.5,3.3-21.9
			C29.3,23.9,28.3,21.5,27.7,21.3"/>
	</g>
	<g transform="matrix(0.988045,-0.154167,0.154167,0.988045,235.422,479.885)">
		<path style="fill:#FFD5B7;" d="M-28.6,14.9c-2.3,6.2,0.9,29.4,2,34.2c0.6,2.6,3,2.9,4.8,2.9c6-0.1,11.4,4.4,14.4,2.3
			c0.8-0.6,4.5-1.3,4-4.8c-1.1-7.7-2-18.4-2.2-30.8C-9.6,7.7-26.2,10.5-28.6,14.9"/>
	</g>
	<g transform="matrix(0.988045,-0.154167,0.154167,0.988045,239.838,454.844)">
		<path style="fill:#FFD5B7;" d="M-27.2-78.4c0,0-1.2,7.6-2.2,10.7c-1,3.1-4.1,17.5-4.5,21.7c-0.4,4.2-5.5,83.1-1.5,89.1
			c4,6.1,17.3,3.8,18.8,0.1c1.6-3.7,9.1-67.1,9.5-71.3c0.4-4.2,3.9-38.1,5.7-41.8C0.4-73.6-26.1-82.5-27.2-78.4"/>
	</g>
	<g transform="matrix(0.988045,-0.154167,0.154167,0.988045,221.15,386.226)">
		<path style="fill:#FFA05F;fill-opacity:0.2;" d="M-28.6,109.1c-1.8-18.4,2.2-80.7,2.5-84.4c0.4-4.2,3.5-18.6,4.5-21.7
			c1-3.1,2.2-10.7,2.2-10.7c0.3-1.2,2.8-1.3,6.1-0.7c-0.2,1.1-0.5,2.1-0.8,2.9c-1,3.1-4.1,17.5-4.5,21.7c-0.4,3.7-4.4,66-2.5,84.4
			c-0.2,0.2-0.3,0.4-0.4,0.5c-2.2,6.2,0.9,29.4,2,34.2c0.6,2.6,3,2.9,4.8,2.9c3.9-0.1,7.5,1.8,10.3,2.5c0.1,1.2,0.3,2.4,0.5,3.5
			c0.5,3.5-3.2,4.2-4,4.8c-3,2.2-8.3-2.4-14.4-2.3c-1.8,0-4.2-0.2-4.8-2.9c-1.1-4.7-4.2-28-2-34.2
			C-28.9,109.4-28.7,109.2-28.6,109.1"/>
	</g>
	<g transform="matrix(-0.990745,-0.108726,-0.135738,0.793582,213.062,366.88)">
		<path style="fill:#312B4B;" d="M-19-89.6c5.9,0,23.5,17.2,26.1,23c8.5,18.6,8.6,148.8-25.6,231.4c-0.4,3.3-24.9-3.4-24.6-10.2
			c20.2-59.7,25.3-189.7,21.7-207c-1.5-7-5-21.9-1-21.9"/>
	</g>
	<g transform="matrix(0.980326,0.197385,-0.197385,0.980326,330.165,472.74)">
		<path style="fill:#FFCEAC;" d="M6.2,25.6c0,0-5.3,7.6-5.3,8.2c0,0.5,1.4,17.8,5.3,17.8c3.9,0,4.9-20.5,3.3-21.9
			C7.8,28.2,6.9,25.9,6.2,25.6"/>
	</g>
	<g transform="matrix(-0.988045,-0.154167,-0.154167,0.988045,350.197,479.885)">
		<path style="fill:#FFD5B7;" d="M-7,18.2c-2.3,6.2,0.9,29.4,2,34.2c0.6,2.6,3,2.9,4.8,2.9c6-0.1,11.4,4.4,14.4,2.3
			c0.8-0.6,4.5-1.3,4-4.8c-1.1-7.7-2-18.4-2.2-30.8C12,11-4.6,13.9-7,18.2"/>
	</g>
	<g transform="matrix(-0.988045,-0.154167,-0.154167,0.988045,345.781,454.844)">
		<path style="fill:#FFD5B7;" d="M-5.6-75c0,0-1.2,7.6-2.2,10.7c-1,3.1-4.1,17.5-4.5,21.7c-0.4,4.2-5.5,83.1-1.5,89.1
			c4,6.1,17.3,3.8,18.8,0.1c1.6-3.7,9.1-67.1,9.5-71.3c0.4-4.2,3.9-38.1,5.7-41.8C22-70.2-4.5-79.2-5.6-75"/>
	</g>
	<g transform="matrix(-0.988045,-0.154167,-0.154167,0.988045,364.469,386.226)">
		<path style="fill:#FFA05F;fill-opacity:0.2;" d="M-7,112.4C-8.8,94-4.8,31.8-4.5,28C-4,23.9-1,9.4,0,6.4C1,3.3,2.3-4.4,2.3-4.4
			c0.3-1.2,2.8-1.3,6.1-0.7C8.1-4,7.8-3,7.6-2.2c-1,3.1-4.1,17.5-4.5,21.7c-0.4,3.7-4.4,66-2.5,84.4c-0.2,0.2-0.3,0.4-0.4,0.5
			c-2.2,6.2,0.9,29.4,2,34.2c0.6,2.6,3,2.9,4.8,2.9c3.9-0.1,7.5,1.8,10.3,2.5c0.1,1.2,0.3,2.4,0.5,3.5c0.5,3.5-3.2,4.2-4,4.8
			c-3,2.2-8.3-2.4-14.4-2.3c-1.8,0-4.2-0.2-4.8-2.9c-1.1-4.7-4.2-28-2-34.2C-7.3,112.8-7.1,112.6-7,112.4"/>
	</g>
	<g transform="matrix(0.990745,-0.108726,0.135738,0.793582,372.557,366.88)">
		<path style="fill:#312B4B;" d="M-40.6-92.6c5.9,0,23.5,17.2,26.1,23C-6-51-1.1,40-35.4,144.4c-0.4,3.3-19.9-0.5-19.6-7.3
			c17.6-109.9,24.5-178.8,12-192.5c-1.5-7-5-21.9-1-21.9"/>
	</g>
	<g transform="matrix(1,0,0,1,329.353,452.309)">
		<path style="fill:#312B4B;" d="M-2.9-153c3.1,3.4,9.5,22.6,10,38C8.4-69,7.4,13,7.8,29.2C8,40.6-22.6,46.9-48.4,47.4
			c-51.5,1-52-17.2-52.1-23.8c-0.7-38.9-5-89.9-2.9-136.1c0.8-16.7,3.7-32.8,12.3-39.6C-76.2-163.9-13.2-161.1-2.9-153z"/>
	</g>
	<g transform="matrix(0.00874249,0.999962,0.999962,-0.00874249,359.054,370.047)">
		<path style="fill:#27213F;" d="M-41.4-78c36.3,2.8,106.6,1.4,154.5,0"/>
	</g>
	<g transform="matrix(1,0,0,1,308.466,286.668)">
		<path style="fill:#FFD5B7;" d="M-8.6,5.3c0,0,0.5,10.2-2.1,17c-3.3,8.5-17.3,20-17.3,20s-10.3-8.8-15-17.9c-4.1-8-5-17-4.1-18
			c2-2,5.5-2,4.6-17.9c0,0,11.1-1.6,30.6-1.1C-12-12.6-13.7,2.7-8.6,5.3z"/>
	</g>
	<g transform="matrix(1,0,0,1,311.438,264.521)">
		<path style="fill:#27213F;" d="M-7.8,65.1c0,0-7.3-14.3-12.4-11.1c4.8-6,8.4-25.9,8.4-25.9c-3.4-4.1-2.9-7-2.9-7s0.1,0,0.1,0
			c15.5,1.2,14.4,6.8,14.4,6.8C4.2,44.2-7.8,65.1-7.8,65.1"/>
	</g>
	<g transform="matrix(-1,0,0,1,273.105,264.521)">
		<path style="fill:#27213F;" d="M14.3,65.1c0,0-7-13.6-12.1-10.5c4.8-6,8.1-26.5,8.1-26.5c-3.4-4.1-2.9-7-2.9-7s0.1,0,0.1,0
			c15.5,1.2,14.4,6.8,14.4,6.8C26.2,44.2,14.3,65.1,14.3,65.1"/>
	</g>
	<g transform="matrix(1,0,0,1,305.693,299.059)">
		<path style="fill:#4D0B00;fill-opacity:0.2;" d="M-4.6-3.3c0,0-17.1,7.8-26.7,3.2c0,0,1.9,21.8,17.9,17.5
			c-4,6.7-12.1,12.7-12.1,12.7s-8.8-6.7-13.6-15.9c-4.1-7.9-5.9-19.5-5-20.5c2-2,6.4-1.6,3.9-19c0,0,13.7,5.2,32.9,2.1
			C-7.3-23.2-4.2-7.1-4.6-3.3z"/>
	</g>
	<g transform="matrix(2.93606,0,0,3.18601,-327.993,66.0038)">
		<path style="fill:#AD1C1C;" d="M194.3,60.2l-2.5-12.7c-1.3-6.6,6-10,10.4-10l15.2,0c4.7,0,10.2,3.4,7.8,10.8l-1.7,11.2L194.3,60.2
			z"/>
	</g>
	<g transform="matrix(1,0,0,1,333.481,237.148)">
		<path style="fill:#FFD5B7;" d="M-4,13.3c-0.3,4-1.4,6.7-2.9,8.4C-7,21.8-7.1,21.9-7.2,22c0,0,0,0.1-0.1,0.1
			c-0.9,0.9-1.9,1.5-2.9,1.9c-1.8,0.7-3.6,0.9-5.2,0.8c-1.6-0.1-2.6-1.7-2-3.2c2.3-5.6,2.2-14,2.2-14c-0.5-4.3,6.6-7.6,9.8-2.4h0
			C-4.4,7-3.8,9.6-4,13.3"/>
	</g>
	<g transform="matrix(1,0,0,1,332.311,245.918)">
		<path style="fill:#F58E45;fill-opacity:0.17;" d="M-4.2-3.5L-4.2-3.5c-1.5-2.5-3.9-3-6-2.4c1.1,0.3,2.2,1.1,3,2.4h0
			c1,1.7,1.6,4.3,1.4,8.1c-0.3,4-1.4,6.7-2.9,8.4c-0.1,0.1-0.2,0.2-0.3,0.3c0,0,0,0.1-0.1,0.1c-0.9,0.9-1.9,1.5-2.9,1.9
			c-0.9,0.4-1.8,0.6-2.7,0.7c0.2,0.1,0.4,0.1,0.5,0.1c1.5,0.1,3.4-0.1,5.2-0.8c1-0.4,2-1,2.9-1.9c0,0,0-0.1,0.1-0.1
			c0.1-0.1,0.2-0.2,0.3-0.3c1.5-1.7,2.7-4.4,2.9-8.4C-2.6,0.8-3.2-1.8-4.2-3.5"/>
	</g>
	<g transform="matrix(1,0,0,1,326.146,226.239)">
		<path style="fill:#FFD5B7;" d="M-5.3,16c0.5,14.4-0.9,18.1-4,30.3C-16.8,76-72.4,76-79.5,48.7c-2.3-8.8-5.5-15.1-5.5-28.9
			c0-13.8-14.9-55.3,33.2-60.7C11.6-48.1-6.1,9.1-5.3,16"/>
	</g>
	<g transform="matrix(2.99887,0,0,3.18601,-344.521,71.7402)">
		<path style="fill:#CF3322;" d="M195.4,32c5.1-3.2,14.7-0.3,19.8,2.4c0-1.6,0.9-1.4,0.9-1.4c9.2,3,6.8,9.2,6.8,9.2l0.7,0.6
			c0.8,2.2,0.5,7.2-1.2,15.3c0,0-1.9-8.9-1.7-14.2c-4.2,1.6-15.8,5.4-23.1,2.6c-1,4.4-2.6,10.2-2.6,10.2c-0.5-5.3-1.3-9.1-0.6-11.6
			c-0.4-0.3-0.2-0.7-0.5-1.1C194,43.9,188.1,36.5,195.4,32z"/>
	</g>
	<g>
		<g>
			<path style="fill:#AD1C1C;" d="M252.6,228.4l-0.2-1.2c5.1-5.1,13.8-5.3,17.7-4.1l-1,5.6C266.2,227.3,258,224.5,252.6,228.4z"/>
		</g>
		<g>
			<path style="fill:#AD1C1C;" d="M311.5,228.2c-8.1-3.1-19.3,1.6-22.1,2.6l-1.7-5.4c3.2-1,14.7-2.6,24.2,1.6L311.5,228.2z"/>
		</g>
		<g>
			<path style="fill:#FFFFFF;" d="M270,247.7c0-4.9-0.8-10.7-8.4-12.6c-7.6-1.9-11,5-10.8,7.5c0.2,2.5,2.2,6.1,6.4,6.5
				c4.2,0.3,7.9-0.1,9.4,0.1C268.1,249.3,270,248.6,270,247.7z"/>
			<circle style="fill:#39170B;" cx="261" cy="241.9" r="6.1"/>
			<path style="fill:#FFFFFF;" d="M266.3,239.5c0,1.6-1.3,2.8-2.9,2.8s-2.8-1.3-2.8-2.9c0-1.6,1.3-2.8,2.9-2.8
				S266.3,238,266.3,239.5z"/>
			<path style="fill:#FFFFFF;" d="M289.4,247.9c0.1-4.9,1-10.7,8.6-12.4c7.6-1.7,10.8,5.2,10.6,7.7c-0.2,2.5-2.4,6.1-6.6,6.3
				c-4.2,0.3-7.9-0.3-9.4-0.1C291.2,249.6,289.3,248.9,289.4,247.9z"/>
			<path style="fill:#39170B;" d="M292.5,241.8c0,3.4,2.7,6.3,6.2,6.3c3.4,0,6.3-2.7,6.3-6.2c0-3.4-2.7-6.3-6.2-6.3
				C295.3,235.6,292.5,238.4,292.5,241.8z"/>
			<path style="fill:#FFFFFF;" d="M298.3,239.5c0,1.6,1.2,2.9,2.8,2.9s2.9-1.2,2.9-2.8c0-1.6-1.2-2.9-2.8-2.9
				S298.3,237.9,298.3,239.5z"/>
		</g>
		<path style="fill:#EE8E6F;" d="M278,239.8c-3.3,10.1-9.8,22.1-8.9,23.6c0.8,1.3,6.9,0.4,10.4,0c0,0.6,0,2.2,0,2.2
			s-12.4,1.9-13.5,0.3c-1.1-1.7,9.3-19.3,10.8-28.5C277,236.3,277.8,236.9,278,239.8z"/>
	</g>
	<g>
		<g>
			<path style="fill:#C36951;" d="M293.4,274l-1-0.5c-3.5,9.3-14.9,9.5-22.1,5.5l-0.2,0.7C275.5,283.1,288.4,287.2,293.4,274z"/>
		</g>
		<path style="fill:#EE8E6F;" d="M284.1,286c0,0-4.6,1.5-9.9-1C277.5,289.3,280.7,289.2,284.1,286z"/>
		<path style="fill:#C36951;" d="M296.8,274.9c0,0-3.3-0.5-6-4C291.8,275,293.9,275.9,296.8,274.9z"/>
	</g>
</g>
<path style="fill-rule:evenodd;clip-rule:evenodd;fill:#E0835E;" d="M210.6,424.4c0,0,6.5,36.5,6.4,49.8c0,13.2,14.3,46.8,10.8,88.4
	c-3.4,41.6,0.2,52.3-0.1,54.8c-0.3,2.5-17.4,7.6-17.4,7.6l-30.9-193L210.6,424.4z"/>
<path style="fill:#27213F;" d="M175.9,325.8c0,0,27.8,6.5,24.8,28c-1.4,10.1,17.2,59.5,23,108.9c6.5,55.3,10,108,6,124
	c0,0-8,17.5-23,10C191.7,589.1,167.3,347.7,175.9,325.8"/>
<path style="fill:#2E333C;" d="M22.9,168.8c0,0-18.7,2.8-14.5,30c3.6,22.9-21.3,11-4.9,54.5c10.1,26.8,17,19.2,32.6,26.8
	c9.8,4.7,11.3,41.2,49.8,33.1c38.5-8.1,39.7-5.2,63.6-7.4c35.1-3.2,31.8-27.8,43.2-48c6-10.6,33.4-50.9,11.1-82.2
	c-24-33.7-13.7-105.4-97.9-83.2C21.8,114.7,22.9,168.8,22.9,168.8z"/>
<path style="fill:#E0835E;" d="M0.3,511.2c15.2,15.6,63.3,50.3,67.4,49.4c7.5-1.6,1-15,1-15s-20-16.6-36-37
	c-12.9-16.4-23.9-27.2-27.2-30.5c0,0,13.1-20.3,15.7-26.6c2.6-6.2-19.9-19.7-24.2-14.7c-1.3,1.5-9.2,16.6-10.5,19.6
	c-3.2,7.2-7.7,16.8-9,21.7C-24.4,484.9-14.9,495.6,0.3,511.2"/>
<path style="fill:#312B4B;" d="M58.5,617.8c1.8,4.7,31.4,10.8,57.1,11.7c46.7,1.6,101.4-6.3,100.4-17.3
	c-1.6-17.1-1.6-45.8-13.2-88.9c-2.3-8.5-4.4-29.8-6-48.1c-1.4-16.7-2.2-30.9-2.2-31c0.2-0.2,7-26.5,2.8-35.7
	c-4.2-9.2-15-48.8-20.2-61.9c-1-2.5,4.2-11.8-1.8-21.7c-0.8-1.4-28.2-16.2-36.8-16.9c-8.2-0.6-60.5-5-71.4,15.4
	c-24.4,16.3-24.7,24.8-24.7,24.8c-4,28.3,5.5,56.5,11.2,80.7c5.1,21.9,8,36.1,9.5,43.7c2.8,14.2,2.7,39.2-0.8,62.9
	C59.2,559.2,57,613.8,58.5,617.8z"/>
<path style="fill:#E0835E;" d="M68.1,232.6c0.2,2.4,0.5,4.6,1,6.8c0.2,1.2,0.5,2.3,0.8,3.4c0.5,1.6,1,9.1,1.5,10.5
	c0.2,0.6,0.5,1.1,0.7,1.7c0.9,2.2,2,4.3,3.3,6.3c4.7,7.5,11.5,13.5,19.6,17.4c28.2,13.5,56,18.3,77.3-13.8c3.5-5.2,3.1-10.8,5-16.5
	c2.1-6.2,3.3-18.7,3.9-25.1c3.3-34.2-11.1-67.9-11.1-67.9C143.6,83.8,45.4,133,66.6,200.9l0,0"/>
<path style="fill:#CE714C;" d="M79.5,315c0,0,35,11.6,53,62.8c0,0,9.3-55.3,7-69.6c0,0-6.5-1.2-7.1-19.4c0,0-38.4-2.6-57.1-27.6
	c0.4,0.8,4.1,2.6,6.5,13.6c1.7,7.7,2.7,17,1.3,26.4l0,0C82.6,305.9,81.4,310.5,79.5,315"/>
<path style="fill:#4D0B00;fill-opacity:0.2;" d="M79.5,315c0,0,44.7,36.5,53,62.8c0,0,9.3-55.3,7-69.6c0,0-6.5-0.2-7.1-18.4
	c0,0-38.4-2.6-57.1-27.6c0.4,0.8,4.1,8.6,6.5,19.6c7,4.5,19.8,12,31.5,15.9c17.3,5.7,19.8,45.4,9.2,40.8
	c-10.7-4.5-16.5-38.8-39.3-37.2l0,0C82.6,305.9,81.4,310.5,79.5,315"/>
<g transform="matrix(-0.806193,0,0,0.832084,158.218,281.37)">
	<path style="fill:#640B00;" d="M53.4-30.9c0,0-0.8,2.2-2.4,5c-1.6,2.8-4,6.1-7.1,8.8c-3.2,2.7-7.4,4.6-12.3,4.2
		c-5-0.4-8.8-2.2-11.7-4.7c-5.4-4.7-7.3-11.8-7.4-15.9L53.4-30.9z"/>
</g>
<g transform="matrix(0.105696,-0.824902,0.799234,0.10909,172.557,261.611)">
	<path style="fill:#FFFFFF;" d="M-2.2-71.5c0,0-2,1.1-4.6,3.1c1.5,7.1,6.6,36.9,8.2,37.2c1.9,0.4,4.5,0.1,4.5,0.1L-2.2-71.5z"/>
</g>
<g transform="matrix(-0.806193,0,0,0.832084,162.904,279.19)">
	<path style="fill:#FF6363;" d="M49.6-14.6C49.6-14.6,49.6-14.6,49.6-14.6c-3.3,2.8-7.4,4.7-12.3,4.3c-5-0.4-8.8-2.2-11.7-4.7
		c0,0,5.7-2.2,9.5,0.6C35.1-14.4,43.5-18.9,49.6-14.6"/>
</g>
<path style="fill:#312B4B;" d="M55.7,528.6c2.3,6.8-3,28-5,32c2-4-87.9-63-80-80c15.1-32.5,47.6-89.8,51.4-102
	c10.2-32.3,22.3-36.3,22.7-36.1c10.6,4.6,25.6,44.3,15.6,64.8c-8.4,17.1-42.3,62.2-48.7,74.3L55.7,528.6z"/>
<path style="fill:#FBEEC7;fill-opacity:0.2;" d="M69.9,242.8c-0.1-1-0.4-2.1-0.8-3.4C69.3,240.6,69.6,241.7,69.9,242.8"/>
<path style="fill:#3B3B3B;fill-opacity:0.2;" d="M75.2,304.6c17.4,12.3,28.8,32.5,34.6,45.3c10.9,5.9,21.9,26.4,22.7,27.9
	c-8.9-32.8-42.1-77.3-49.3-76.4C81.3,301.6,78.4,302.7,75.2,304.6"/>
<path style="fill:#2E333C;" d="M158.4,111.1c0,0-20.6,67.2-108.5,60.7c0,0-12.7,6.2-27.2-3.2c-1.6-18.4,3.3-69.1,35.9-84.3
	C91.1,69.1,160.3,64.4,158.4,111.1z"/>
<path style="fill:#27213F;" d="M135.5,300.6c2.5,9.9,3.8,19.5,3,37c8.3-12.1,26-9,34.3,1.2c0.6-2.4-5.1-21.7-14.2-29.4
	C152.7,304.3,135.5,300.6,135.5,300.6"/>
<path style="fill:#27213F;" d="M80.6,364.8c-0.5-0.9,3.5-11,16.2-20.1c3.1-2.2,19.9,2.3,20.7,3.8c-8.9-32.8-27.1-48.1-34.3-47.2
	c-1.9,0.2-4.8,1.4-8.1,3.3"/>
<g>
	<path style="fill:#2E333C;" d="M177.9,173.7l0.2-2.2c-11.4-7.8-28.5-6-35.8-2.8l1.4,5.4C149.1,170.8,166.4,168.1,177.9,173.7z"/>
</g>
<g>
	<path style="fill:#2E333C;" d="M70.6,185c14.1-7.9,38.2-7,43.9-5.9l0.3-5.6c-6.5-1.1-29.1-0.7-45.4,9.4L70.6,185z"/>
</g>
<path style="fill:#FFFFFF;" d="M112.8,203.9c1.8-3.5-5-13.3-16-14.1s-14.7,7.3-14.3,10.1c0.4,2.8,2.9,7.4,9.4,8.5
	c6.5,1.1,11.2-0.7,13.9-1.6C109.3,205.8,111.8,205.9,112.8,203.9z"/>
<circle style="fill:#39170B;" cx="98.3" cy="196.3" r="9.2"/>
<circle style="fill:#FFFFFF;" cx="104.1" cy="197.7" r="3.7"/>
<path style="fill:#39170B;" d="M113,201.3c0,0,0.1-5.5-7.8-10.8c-7.9-5.3-15.8-1.8-18.2-1.7c-2.4,0.1-4.7,1.4-3.8,1.8
	c0.9,0.4-0.8,2.7-2.7,2.8c-1.9,0,0.3,1.6,0.5,2.2c0.1,0.6-3.1,1.2-3.1,1.9s2.3,1.8,1.8,2c-0.4,0.3-1.9,2-0.9,2.4
	c1,0.4,3.2,2.1,4.1,2.8c0.9,0.7,3,1,3,1s-3.2-3.7-2.6-7c0.7-3.3,3.5-7.3,9.5-8c6-0.7,10.3,1.2,13.4,2.9
	C109.2,195.4,113,201.3,113,201.3z"/>
<path style="fill:#FFFFFF;" d="M147,198.1c-2.7-2.6,0.4-13.4,10-17.5c9.6-4.1,15.4,2,16,4.7c0.5,2.6-0.3,7.5-5.8,10.5
	c-5.5,3-10.2,2.8-13,2.9C150.7,198.7,148.5,199.6,147,198.1z"/>
<circle style="fill:#39170B;" cx="157.8" cy="187.2" r="8.7"/>
<path style="fill:#FFFFFF;" d="M159.3,189.3c0.2,1.9,1.9,3.3,3.9,3c1.9-0.2,3.3-1.9,3-3.9c-0.2-1.9-1.9-3.3-3.9-3
	C160.4,185.7,159,187.4,159.3,189.3z"/>
<path style="fill:#39170B;" d="M146.1,195.8c0,0-1.8-4.9,3.7-12.1c5.5-7.2,13.6-6.5,15.8-7.1c2.2-0.6,4.6-0.2,4,0.5
	c-0.6,0.7,1.6,2.2,3.3,1.6c1.7-0.6,0.2,1.5,0.2,2.1c0.1,0.6,3.1,0.1,3.4,0.7c0.3,0.6-1.5,2.3-1,2.4c0.5,0.1,2.3,1.2,1.5,1.9
	c-0.8,0.7-2.2,2.8-2.8,3.7s-2.4,1.8-2.4,1.8s1.7-4.3,0.1-7.1c-1.6-2.8-5.4-5.5-10.9-4.2c-5.6,1.2-8.8,4.3-11.1,6.8
	C147.6,189.3,146.1,195.8,146.1,195.8z"/>
<path style="fill:#C77553;" d="M137.6,211.1c1.8,6.8,8.1,15.3,15.6,20.4c0,0-10.1,9-18,10.8l11.3-11.4c0,0-11.6-14.6-12.2-21.5
	C133.6,202.6,135.7,204.3,137.6,211.1z"/>
<path style="fill:#E0835E;" d="M66.7,206.5c-11-9.9-25.5-14.6-26.5-0.9c-1,13.7,18.4,29.9,28.3,36.3S70.7,210,66.7,206.5z"/>
<path style="fill:#C77553;" d="M63.1,210.5c-6-5.4-14-8-14.6-0.5c-0.6,7.5,10.1,16.4,15.5,19.9C69.5,233.3,65.3,212.4,63.1,210.5z"
	/>
<path style="fill:#E0835E;" d="M66.1,219.6c-4.8-4.4-11.2-6.4-11.7-0.4c-0.4,6,8.1,13.1,12.4,15.9C71.2,238,67.8,221.2,66.1,219.6z"
	/>
<path style="fill:#E0835E;" d="M115.5,534.2L115.5,534.2l-30.2,2.5l21.2-8.3c2.4-1.2,2.1-3.3,1.9-4.1l-11.4,3l-3.5,1.1l0,0
	c-3.5,0.8-6.6,1.7-9.4,2.7l0,0l-4.8,1.2l-19.4,8.4l0,0l-3,12.2L60,557c0,0,9.7,1.1,19.2-1.4c10.8,1.9,20,1.4,20,1.4
	c5.5-1,1.8-3.5,1.8-3.5c-5.3,1.1-13.4-0.7-14.7-1c-1-0.2-1.8-0.5-2.6-0.7l0.3-0.8l29.1-2.1c4-0.8,1-4.2,1-4.2l-22.2,0l-4.9-0.5
	l0.7-1.5l-0.5-0.2l0.5,0l27.9-2.7l0,0c4.8-0.8,4-5.9,4-5.9L115.5,534.2z"/>
</svg>
