<?xml version="1.0" encoding="utf-8"?>
<!-- Generator: Adobe Illustrator 24.0.3, SVG Export Plug-In . SVG Version: 6.00 Build 0)  -->
<svg version="1.1" id="Layer_1" xmlns="http://www.w3.org/2000/svg" xmlns:xlink="http://www.w3.org/1999/xlink" x="0px" y="0px"
	 width="480px" height="600px" viewBox="0 0 480 600" style="enable-background:new 0 0 480 600;" xml:space="preserve">
<title>Artboard 23</title>
<g transform="matrix(0.926302,0,0,0.88715,-0.838567,-1.63109)">
	<rect x="-17.3" y="-14" style="fill-rule:evenodd;clip-rule:evenodd;fill:#674399;" width="555.7" height="728.5"/>
</g>
<g transform="matrix(0.866722,0.0763467,-0.0763467,0.866722,-2.90301,-15.3411)">
	<g transform="matrix(-2.7798,0.220109,0.220109,2.7798,9424.17,-1227.28)">
		<path style="fill-rule:evenodd;clip-rule:evenodd;fill:#E0835E;" d="M3294.1,363c0,0-2,18.2-1.5,24.7c0.5,6.5-5.4,23.5-2.4,43.8
			c3.1,20.3,1.7,25.7,1.9,26.9c0.2,1.2,8.8,3.1,8.8,3.1l8.7-95.9L3294.1,363z"/>
	</g>
	<g transform="matrix(-2.7798,0.220109,0.220109,2.7798,9230.77,-1204.04)">
		<path style="fill-rule:evenodd;clip-rule:evenodd;fill:#E0835E;" d="M3297.6,363.2c0,0-2,18.2-1.5,24.7c0.5,6.5-5.4,23.5-2.4,43.8
			c3.1,20.3,1.7,25.7,1.9,26.9c0.2,1.2,8.8,3.1,8.8,3.1l8.7-95.9L3297.6,363.2z"/>
	</g>
	<g transform="matrix(-5.12936,-0.370596,-0.200945,2.78125,289.652,465.779)">
		<path style="fill:#27213F;" d="M-0.3-33.8c0,0-7.5,2.1-7.2,12.7C-12.3-2.9-20.1,76-23.3,87.5c0,0,5.1,6,9.3,2.9
			C-9.9,87.4,1.5-22.7-0.3-33.8"/>
	</g>
	<g transform="matrix(2.93491,-0.232391,0.242653,3.0645,-104.05,-74.005)">
		<path style="fill:#2E333C;" d="M58,80.3c0,0-8.8,0.7-7.7,12.9c0.9,10.3-10.3,4.2-4,24.2c3.8,12.2,7.3,9.1,14.3,12.9
			c4.4,2.4,3.9,18.7,22.1,16.3c18.2-2.4,18.6-1.1,29.8-1.4c16.4-0.3,15.7-11.4,21.6-20.1c3.1-4.5,17.2-21.7,7.8-36.3
			c-10.1-15.7-3-47.4-42.9-40.1C59.2,56.2,58,80.3,58,80.3z"/>
	</g>
	<g transform="matrix(-3.03484,0.240304,0.220109,2.7798,144.859,473.169)">
		<path style="fill:#312B4B;" d="M9,107.7c-0.7,2.4-13.8,6.4-25.3,7.7c-21,2.4-45.8,0.3-45.7-5.1c0.2-8.5-0.7-22.6,3.2-44.1
			c0.8-4.3,1.1-14.8,1.2-23.8c0.1-8.2,0.1-15.3,0-15.3c-0.1-0.1-4-12.8-2.4-17.5c1.6-4.7,5.3-24.5,7.2-31.1
			c0.4-1.2-2.3-5.7,0.1-10.7c0.3-0.7,12.2-8.9,16-9.5c3.7-0.6,27.1-4.5,32.6,5.1C7.4-29.4,7.8-25.3,7.8-25.3
			c2.7,13.8-0.7,27.9-2.6,40c-1.6,10.9-2.5,18-2.9,21.8c-0.8,7.1,0,19.4,2.3,30.9C6.9,78.9,9.6,105.6,9,107.7z"/>
	</g>
	<g transform="matrix(-2.7798,0.220109,0.220109,2.7798,127.567,220.371)">
		<path style="fill:#E0835E;" d="M-6.8,9.6c0,1.2-0.1,2.3-0.3,3.4c-0.1,0.6-0.2,1.1-0.3,1.7c-0.2,0.8-0.4,1.5-0.6,2.3
			c-0.1,0.3-0.2,0.6-0.3,0.9C-8.7,18.9-9.1,20-9.7,21c-2.1,3.8-5.2,7-9,9.2C-32.2,37.7-44,41-55.6,26c-1.9-2.4-5.6-11.8-6.6-20.4
			c-1.5-13,1.1-30.4,1.1-30.4c10.7-36,62-15.3,53.9,18.8l0,0"/>
	</g>
	<g transform="matrix(-2.7798,0.220109,0.220109,2.7798,171.732,356.131)">
		<path style="fill:#CE714C;" d="M2.2,0.7c0,0-16.8,6.9-23.9,32.6c0,0-6.4-26.8-5.8-33.9c0,0,3-3.7,2.6-12.7c0,0,18.8-2.6,27.1-15.5
			c-0.2,0.4-1.7,4.4-2.5,9.8C-0.8-15.1-1-10.5,0-5.9h0C0.4-3.7,1.2-1.5,2.2,0.7"/>
	</g>
	<g transform="matrix(-2.7798,0.220109,0.220109,2.7798,171.735,356.131)">
		<path style="fill:#4D0B00;fill-opacity:0.2;" d="M2.2,0.7c0,0-20.7,19.4-23.9,32.6c0,0-6.4-26.8-5.8-33.9c0,0,3-3.7,2.6-12.7
			c0,0,18.8-2.6,27.1-15.5c-0.2,0.4-1.7,4.4-2.5,9.8c-3.3,2.4-9.3,6.5-14.9,8.9c-8.3,3.4-8,26.4-2.9,23.8C-13,11.1-11.3-5.9,0-5.9h0
			C0.4-3.7,1.2-1.5,2.2,0.7"/>
	</g>
	<g transform="matrix(-1.5598,0.123508,0.127474,1.60989,225.064,279.185)">
		<path style="fill:#9D5B3E;" d="M-5.2-3.4c-0.2,6.8-4.7,9.5-8.2,9.5C-17,6-22.3-0.5-21.6-5C-19.7-16.8-4.9-10.2-5.2-3.4z"/>
	</g>
	<g transform="matrix(-1.89158,2.04881,2.04881,1.89158,61.6795,448.085)">
		<path style="fill:#27213F;" d="M42.8,95.3C38,90.5-7.9,37.9-14.4,31.1C-22,22.9-28.1,6.7-23.8,3c0.2-0.2,12.1-3.1,21.6,10.6
			C3.3,21.5,58.3,81,62.1,85.2c2.5,2.8-16.3,13-19.2,10.2"/>
	</g>
	<g transform="matrix(-2.7798,0.220109,0.220109,2.7798,157.098,248.891)">
		<path style="fill:#FBEEC7;fill-opacity:0.2;" d="M2.4,3.6c0-0.5,0.1-1.1,0.3-1.7C2.6,2.5,2.5,3.1,2.4,3.6"/>
	</g>
	<g transform="matrix(2.17613,-1.74361,1.74361,2.17613,259.934,395.872)">
		<path style="fill:#3B3B3B;fill-opacity:0.2;" d="M-16.5-36.9c3,10,1.3,21.3-0.3,28.1c2.4,5.6,0.5,16.9,0.3,17.7
			c6.5-15.4,7.2-42.7,4.1-44.6C-13.2-36.3-14.7-36.7-16.5-36.9"/>
	</g>
	<g transform="matrix(3.0067,0.74387,-0.669696,2.70688,-33.3541,-148.875)">
		<path style="fill:#2E333C;" d="M112.5,50.6c0,0-1.4,34.6-39.8,42.3c0,0-4.1,6.3-11.4,3.6c-2.7-8.6-6.9-35.1,5.4-46.4
			C79,38.8,108.1,28.1,112.5,50.6z"/>
	</g>
	<g transform="matrix(-2.7798,0.220109,0.220109,2.7798,250.963,414.7)">
		<path style="fill:#27213F;" d="M0.9-27.7C0-22.7-0.3-18,0.7-9.4c-4.5-5.7-13.1-3.5-16.8,1.7c-0.4-1.2,1.8-10.8,6-14.9
			C-7.4-25.3,0.9-27.7,0.9-27.7"/>
	</g>
	<g transform="matrix(-2.7798,0.220109,0.220109,2.7798,144.46,401.39)">
		<path style="fill:#27213F;" d="M-7.7,9.8c0.2-0.4-2.1-5.3-8.7-9.3c-1.6-1-9.7,1.8-10,2.6c3.2-16.4,11.7-24.5,15.3-24.3
			c1,0.1,2.4,0.5,4.1,1.3"/>
	</g>
	<g>
		<g>
			<path style="fill:#2E333C;" d="M292.2,150.1l0.5-2.9c-14.2-11.7-37.2-11.4-47.2-8l1.3,7.3C254.4,142.8,277.6,141.3,292.2,150.1z"
				/>
		</g>
		<g>
			<path style="fill:#2E333C;" d="M153.3,175.9c15.3-15.2,46.6-22.5,54.3-23.2l-1.6-7.4c-8.7,0.9-37.7,9.4-55.1,28.2L153.3,175.9z"
				/>
		</g>
		<g>
			<path style="fill:#FFFFFF;" d="M209.8,194.6c1.9-4.9-8.2-17.1-22.9-16.8s-18.7,11.5-17.9,15.2c0.8,3.7,4.7,9.5,13.4,10.2
				c8.7,0.7,14.8-2.3,18.3-3.7C205.3,197.6,208.7,197.4,209.8,194.6z"/>
			<circle style="fill:#39170B;" cx="189.6" cy="186.5" r="10.7"/>
			<circle style="fill:#FFFFFF;" cx="197.5" cy="187.3" r="4.3"/>
			<path style="fill:#39170B;" d="M209.6,191.1c0,0-0.5-7.3-11.6-13.4c-11.1-6.1-21.2-0.6-24.4-0.1c-3.2,0.4-6,2.4-4.8,2.9
				c1.2,0.5-0.7,3.7-3.3,4c-2.5,0.3,0.6,2,0.9,2.8c0.2,0.8-3.9,1.9-4,2.9c0,1,3.3,2.1,2.7,2.5c-0.6,0.4-2.3,2.9-0.9,3.3
				c1.4,0.4,4.4,2.4,5.7,3.2c1.3,0.8,4.2,1,4.2,1s-4.7-4.6-4.2-9c0.5-4.5,3.7-10.1,11.6-11.7c7.9-1.6,13.8,0.4,18.1,2.3
				C204,183.7,209.6,191.1,209.6,191.1z"/>
		</g>
		<g>
			<path style="fill:#FFFFFF;" d="M254.4,182.9c-3.9-3.2-1.1-17.9,11.2-24.5c12.3-6.6,20.7,0.9,21.8,4.3c1,3.5,0.5,10-6.4,14.6
				c-6.9,4.6-13.3,4.9-16.9,5.3C259.6,183.3,256.6,184.7,254.4,182.9z"/>
			<circle style="fill:#39170B;" cx="267.5" cy="166.9" r="10.1"/>
			<path style="fill:#FFFFFF;" d="M269.8,169.8c0.5,2.5,3,4.1,5.5,3.6c2.5-0.5,4.1-3,3.6-5.5c-0.5-2.5-3-4.1-5.5-3.6
				C270.9,164.8,269.3,167.3,269.8,169.8z"/>
			<path style="fill:#39170B;" d="M253,180c0,0-3-6.3,3.4-16.4c6.4-10.2,17.3-10.2,20.1-11.3c2.8-1.1,6.1-0.8,5.3,0.1
				c-0.8,0.9,2.3,2.7,4.5,1.8c2.2-1,0.4,2,0.6,2.8c0.2,0.8,4.1-0.2,4.6,0.6c0.5,0.8-1.7,3.2-1.1,3.3c0.7,0.1,3.2,1.4,2.3,2.3
				c-0.9,1-2.6,4-3.3,5.3c-0.7,1.3-3,2.7-3,2.7s1.8-6-0.6-9.4c-2.5-3.5-7.8-6.7-15-4.4c-7.3,2.3-11.2,6.7-13.9,10.3
				C254.3,171.2,253,180,253,180z"/>
		</g>
		<path style="fill:#C77553;" d="M242.2,198.2c3.8,8.5,13.6,18.1,24.3,23.2c0,0-11.1,13.7-21,17.7l12.2-17c0,0-18-16.5-20.2-25.3
			C235.3,187.9,238.4,189.7,242.2,198.2z"/>
	</g>
	<g>
		<path style="fill:#E0835E;" d="M148.8,203.5c-15.8-11.9-35.7-16.4-35.4,1.9c0.3,18.3,27.9,37.5,41.9,44.9
			C169.2,257.5,154.4,207.7,148.8,203.5z"/>
		<path style="fill:#C77553;" d="M144.5,209.2c-8.6-6.5-19.5-9-19.4,1c0.1,10,15.3,20.6,23,24.6
			C155.7,238.8,147.5,211.5,144.5,209.2z"/>
		<path style="fill:#E0835E;" d="M149.5,221c-6.9-5.2-15.7-7.2-15.6,0.8c0.1,8.1,12.3,16.5,18.4,19.7
			C158.5,244.8,152,222.9,149.5,221z"/>
	</g>
</g>
<g transform="matrix(0.722921,-0.299492,0.299492,0.722921,-0.400043,141.362)">
	<path style="fill:#FFFA1D;" d="M468.2,263.8c-4.7-1.5-9.3-3.2-9.8-3.4h0c-13.6-6.4-23-14.8-23-14.8h0
		c-14.1-11.7-24.4-27.8-28.7-46.2h0c-1.5-4-5.3-1.5-5.3-1.5c-5.1,4.6-8.2,6.5-8.2,6.5c-14,9.8-31,15.5-49.4,15.4
		c-22.3-0.1-42.6-8.8-57.8-22.9l0,0c-5.4-2.3-6.4,2.8-6.4,2.8h0c-7.3,32.2-32.9,57.5-65.2,64.5l0,0c-4.2,3.3-0.6,7-0.6,7l0,0
		c13.8,15.3,22.3,35.6,22.2,57.8c-0.1,18.4-6,35.4-16,49.3l0,0c0,0-1.9,3-6.7,8.2l0,0c0,0-2.2,4.4,2.2,6.6l0,0
		c27.4,6.1,49.8,25.3,60.3,50.7c1.1,2.9,2.1,5.9,2.8,8.9l0,0c0,0,1.7,4.7,6.8,2.8c0.3-0.3,0.6-0.6,1-0.9c0,0,0,0,0-0.1
		c0.2-0.2,0.4-0.3,0.6-0.4c1.3-1.1,2.6-2.2,3.8-3v0c2.8-2.1,4.8-3.3,4.8-3.3h0c2.4-1.5,5.5-0.6,6.7,1.9l18,36.4h41.1l18.7-36.7
		c1.3-2.5,4.5-3.4,6.9-1.9c3,1.9,5.8,3.9,8.5,6.1l0,0c0,0,9.2,5.9,12.9-3.6c8.2-26.1,28.5-46.7,54.3-55.4l0,0
		c10-4.1,3.3-14.7,3.3-14.7c-10.2-14.2-16.2-31.6-16.2-50.4c0.1-21.3,8-40.8,21-55.7C473.7,270.3,472.4,265.1,468.2,263.8z"/>
</g>
<g transform="matrix(0.722921,-0.299492,0.299492,0.722921,-0.400043,141.362)">
	<path style="fill:#FFC196;" d="M429.4,300.1c-7.7-1-14.9,4.4-16.8,12l-8.8,35.4c-0.6,2.2-2.6,3.8-4.9,3.8c-3.1,0-5.4-2.7-5-5.8
		l10.7-73.7c1.3-9-5.5-17.2-14.8-17.5c-7.8-0.2-14.4,5.9-15.5,13.6l-11.5,79c-0.4,2.5-2.5,4.4-5.1,4.4c-2.8,0-5.1-2.3-5.1-5.1v-92.7
		c0-9.1-7.9-16.3-17.2-15.1c-7.7,0.9-13.4,7.9-13.4,15.7v92.2c0,2.8-2.2,5-5,5c-2.5,0-4.6-1.8-5-4.3l-10.7-73.2
		c-1.3-9.1-10.4-15.1-19.5-12.4c-7.3,2.2-11.7,9.7-10.6,17.3l10.6,73.1v25.9c0,2.5-2.9,3.8-4.8,2.1l-19.7-18.1
		c-8.4-10.7-23.8-12.3-34.3-3.6c-2.9,2.4-3.2,6.8-0.9,9.8l12.8,16.3l54.3,81.5c0.2,0.4,0.5,0.7,0.7,1.1l0.1,0.1l0,0
		c3.5,5,8,9.3,13.2,12.6l-6.3,126.3l91.4-3.6l4.7-121.3c12.9-7.2,21.9-20.3,23.5-35.7h0l17.5-93.9l8-32.1
		C444.6,310.1,438.7,301.2,429.4,300.1z"/>
</g>
<circle style="fill-rule:evenodd;clip-rule:evenodd;fill:#FFFFFF;" cx="387.4" cy="108.9" r="57.1"/>
<path style="fill:#B50007;" d="M387.3,151.6c-20.7,0-39-15.2-42.2-36.3c-3.6-23.3,12.5-45.1,35.8-48.7l0,0
	c23.3-3.6,45.1,12.5,48.7,35.8c3.6,23.3-12.5,45.1-35.8,48.7C391.7,151.5,389.5,151.6,387.3,151.6z M381.7,71.8
	c-20.4,3.1-34.5,22.3-31.4,42.7c2.8,18.5,18.9,31.8,37,31.8c1.9,0,3.8-0.1,5.7-0.4c20.4-3.1,34.5-22.3,31.4-42.7
	C421.3,82.8,402.1,68.7,381.7,71.8L381.7,71.8z"/>
<path style="fill:#313131;" d="M405.1,121.8l-13-23.8c-0.1-0.1-0.2-0.2-0.2-0.3c-0.1-0.5,0.1-0.8,0.6-0.9c0.3,0,0.5,0.1,0.7,0.5
	l8.7,15.3c0.7,1,1.9,1.4,3.6,1.2c0.6-0.1,1-0.6,1.1-1.6c0.1-0.9,0.1-1.6,0.1-1.9L398,95.7c-0.5-1.9-1.7-3.4-3.5-4.4
	c-1.8-1.1-3.8-1.4-5.9-1.1l-8,1.2c-2.1,0.3-3.9,1.3-5.4,2.9c-1.5,1.6-2.2,3.4-2.2,5.2l-3.5,16.7c-0.2,0.3,0,0.9,0.4,1.7
	c0.4,0.8,1,1.2,1.6,1.1c1.9-0.3,3-1,3.1-2l3.6-17.3c0.1-0.3,0.2-0.5,0.5-0.5c0.4-0.1,0.6,0.1,0.7,0.5l0,0.2l-5.1,26.7l0.3,2
	c0,0.2,0.3,0.5,0.9,0.9c0.6,0.4,1,0.6,1.2,0.6l5.8-0.9l1.5,9.6c0.1,0.8,0.6,1.5,1.3,2c0.8,0.5,1.5,0.7,2.3,0.6
	c0.8-0.1,1.5-0.5,2-1.2s0.7-1.5,0.6-2.3l-1.6-10.3c0-0.1,0.3-0.2,0.8-0.4c0.5-0.1,1.1-0.2,1.6-0.2c0.5,0,0.8,0,0.8,0.1l1.6,10.2
	c0.1,0.8,0.5,1.5,1.2,2.1c0.7,0.6,1.5,0.8,2.3,0.6c0.9-0.1,1.5-0.6,2-1.3c0.5-0.7,0.7-1.5,0.6-2.3l-1.4-9.4l5.9-0.9
	c0.3,0,0.6-0.4,0.9-0.9c0.3-0.6,0.5-1,0.4-1.2l-0.1-0.5l-0.1-0.6l-0.1-0.6L405.1,121.8z"/>
<path style="fill:#313131;" d="M376.9,84.7c0.3,1.8,1.1,3.2,2.6,4.3c1.5,1.1,3.1,1.5,4.8,1.2c1.8-0.3,3.2-1.1,4.3-2.6
	s1.5-3.1,1.2-4.8s-1.1-3.2-2.6-4.3c-1.5-1.1-3.1-1.5-4.8-1.2s-3.2,1.1-4.3,2.6C377,81.3,376.6,82.9,376.9,84.7z"/>
<rect x="346" y="106.4" transform="matrix(-0.6382 0.7699 -0.7699 -0.6382 716.6322 -119.5229)" style="fill-rule:evenodd;clip-rule:evenodd;fill:#B50007;" width="80.7" height="4.5"/>
<path style="fill-rule:evenodd;clip-rule:evenodd;fill:#FFFFFF;" d="M369.5,154.1l7.7,41.6l14.1-33.8L369.5,154.1z"/>
<polygon style="fill:#27213F;" points="355.2,416.7 439.2,387.7 535.2,589.7 426.2,648.7 "/>
</svg>
