<?xml version="1.0" encoding="utf-8"?>
<!-- Generator: Adobe Illustrator 24.0.3, SVG Export Plug-In . SVG Version: 6.00 Build 0)  -->
<svg version="1.1" id="Layer_1" xmlns:serif="http://www.serif.com/"
	 xmlns="http://www.w3.org/2000/svg" xmlns:xlink="http://www.w3.org/1999/xlink" x="0px" y="0px" width="414.2px" height="650.4px"
	 viewBox="0 0 414.2 650.4" style="enable-background:new 0 0 414.2 650.4;" xml:space="preserve">
<g>
	<g>
		<path style="fill:#513B3E;" d="M288.9,560.8c-38.3-68.5-151.1-83.9-195.9-28.5c-50.6,99.5-12,345.8-8.7,367
			c3.3,21.2-10.6,24.5-9,70.2c1.6,45.7,25.3,96.9,43.2,173.6l43.1,1.9c-21.2-131.8-30.7-464.5,16.5-445.6
			c24.5,9.8,69.4,180.4,72.6,200c3.3,19.6-7.4,32.6-0.8,70.2c6.5,37.5,68.7,173.6,68.7,173.6h41.8
			C286.1,863.3,273.4,565.7,288.9,560.8z"/>
		<g>
			<path style="fill:#422E31;" d="M94,899.4c-3.3-21.2-5.3-246.2,17.7-289.6C137.5,534,101.6,513.6,90,528
				c-50.6,99.5-9,350.1-5.7,371.4c3.3,21.2-10.6,24.5-9,70.2c1.6,45.7,25.3,96.9,43.2,173.6h9.8c-17.9-76.7-41.6-127.9-43.2-173.6
				C83.4,923.9,97.3,920.6,94,899.4z"/>
			<path style="fill:#422E31;" d="M260.5,899.4c-3.3-19.6-48.1-190.2-72.6-200c-4.3-1.7-8.3-1.9-12.1-0.7c0.8,0.2,1.5,0.4,2.3,0.7
				c24.5,9.8,69.4,180.4,72.6,200c3.3,19.6-7.4,32.6-0.8,70.2c6.5,37.5,68.7,173.6,68.7,173.6h9.8c0,0-62.1-136.1-68.7-173.6
				C253.1,932,263.7,919,260.5,899.4z"/>
		</g>
		<path style="fill:#422E31;" d="M144.6,673.8c8.2,8.7,46.2,26.6,78.9,16.3c0,0-17.9,19-47.3,9.2
			C146.8,689.6,144.6,673.8,144.6,673.8z"/>
		<path style="fill:#333333;" d="M116.7,1134l-5.6,40.8l111.8-1.9c0,0,1.9-14.9-14.9-18.6c-16.1-3.6-48.8-22.2-48.8-22.2L116.7,1134
			z"/>
		<path style="fill:#333333;" d="M315.4,1137.7l-5.6,40.8l111.8-1.9c0,0,1.9-14.9-14.9-18.6c-16.1-3.6-48.8-22.2-48.8-22.2
			L315.4,1137.7z"/>
	</g>
	<path style="fill:#98393E;" d="M133.1,198.7C81.8,152.6,51.3,97.4,58.4,84c7.1-13.4,19.8-15.6,19.8-15.6s-17-12,9.2-31.1
		c26.2-19.1,104-41.7,135.1-14.1c31.1,27.6,6.4,142.2,6.4,142.2L133.1,198.7z"/>
	<path style="fill:#832A33;" d="M165.9,44.4c-48.4,0-74.3,19.9-74.3-3.5c0-2.5,0.5-4.9,1.4-7.2c-2.1,1.2-3.9,2.5-5.6,3.7
		c-26.2,19.1-9.2,31.1-9.2,31.1S65.5,70.5,58.4,84c-7.1,13.4,23.3,68.6,74.6,114.7l95.8-33.3c0,0,11-50.9,9.1-93
		C222.4,79.1,188.5,44.4,165.9,44.4z"/>
	<path style="fill:#513B3E;" d="M84.1,545.8c-10.4-62.2-32.3-248-28.6-259.3c3.8-11.3,94.6-57.5,114.4-53.8
		c19.8,3.8,107.5,25.5,118.8,41.5c11.3,16,0.9,275.4,0.9,275.4L84.1,545.8z"/>
	<g>
		<path style="fill:#422E31;" d="M288.3,340.7c-6.3,90-38.8,154.6-96.2,159.4c-98.4,8.2-94.7-99-131.1-181.3
			c3.2,51.5-5.3,284.5,1.8,304.2s219.9,25.4,224.2,2.8s7-183.1,7.1-263.8C294.1,316.9,290.2,313.3,288.3,340.7z"/>
	</g>
	<path style="fill:#FF9466;" d="M180.1,466.7c2.4-1.2,14.2-11.8,18.2-13.9c3.9-2.1,8.9,4.3,7.9,7.8c-1,3.5-8.9,10.8-14.2,16.8
		c-4.7,5.4-16.9,11.6-26.5,14l-7.4-13.5C158.1,477.9,177.8,467.9,180.1,466.7z"/>
	<path style="fill:#FFB781;" d="M198.3,456.7c1.1,3.4,9.5,10.3,15.1,16c5,5.1,17.5,10.7,27.3,12.6l6.6-13.9c0,0-20.1-8.9-22.6-10
		c-2.4-1.1-14.9-11-18.9-12.9C201.8,446.6,197.2,453.3,198.3,456.7z"/>
	<path style="fill:#FF9466;" d="M232.1,464.7c2.2,4.8-5.3,13.5-24.6-1.8c-3.7-2.9-6.9-3.9-9.3-7c0,0.3,0,0.6,0.1,0.8
		c1.1,3.4,9.5,10.3,15.1,16c5,5.1,17.5,10.7,27.3,12.6l6.6-13.9C247.3,471.5,238.7,467.7,232.1,464.7z"/>
	<path style="fill:#FF9466;" d="M240.5,478.3c-9.7-0.7-22.8-6-27-3.9c-4.2,2.1-11.2,43.9-9.7,51.5c1.5,7.6,43.6-5.8,43.6-5.8
		L240.5,478.3z"/>
	<path style="fill:#FFB781;" d="M162,478.3c8.8-0.7,20.9-6,24.8-3.9c3.9,2.1,10.3,43.9,8.8,51.5c-1.4,7.6-44-7.2-44-7.2L162,478.3z"
		/>
	<path style="fill:#FFB781;" d="M225.3,518.3c-2.6-2.6-15.2-3.8-19.1-4c-3.9-0.2-18.4-1.1-28.7,0.3l5.5,14.6c0,0,18.7-1.5,21.4-1.6
		c2.7-0.1,13.6,1.6,18,1.5C227,529,227.9,520.9,225.3,518.3z"/>
	<path style="fill:#FFB781;" d="M224.2,473.2c-2.8-2.2-17.5-4.7-21.4-5.1c-3.9-0.4-17.3,3.4-26.5,7.2l6.9,13.8c0,0,18.4-6.6,21-7.1
		c2.7-0.4,13.8,2.8,18.2,2.2C226.9,483.6,227.1,475.5,224.2,473.2z"/>
	<path style="fill:#FF9466;" d="M182.5,476.4c3.1-2.1,15.7-0.8,19.5-0.3c3.9,0.6,16.6,3.7,26.4,7.2l-6.6,12.5c0,0-18.1-5.2-20.7-5.9
		c-2.6-0.6-13.7-1.1-18-2.1C178.8,486.8,179.5,478.5,182.5,476.4z"/>
	<polygon style="fill:#F1EDDC;" points="140.5,469 164.5,469.4 157,527.9 137.2,527 	"/>
	<path style="fill:#FFB781;" d="M182.8,477c3.1-2.1,15.7-0.8,19.5-0.3c3.9,0.6,16.6,3.7,26.4,7.2l-6.6,12.5c0,0-18.1-5.2-20.7-5.9
		c-2.6-0.6-13.7-1.1-18-2.1C179.1,487.4,179.7,479,182.8,477z"/>
	<path style="fill:#FF9466;" d="M204.5,477.1c1.2,1,1.9,2.2,1.9,3.5c0,3.9-6.9,4.4-14.9,4.4c-4.7,0-8.4,1.6-11-0.1
		c0.4,1.7,1.3,3.2,2.9,3.6c4.4,1,15.4,1.5,18,2.1c2.6,0.6,20.7,5.9,20.7,5.9l6.6-12.5C220.2,480.9,209.8,478.2,204.5,477.1z"/>
	<path style="fill:#FF9466;" d="M178.8,512.3c2.6,2.6,15.2,3.8,19.1,4c3.9,0.2,18.4,1.2,28.8-0.2l-5.5-14.6c0,0-18.8,1.5-21.5,1.5
		c-2.7,0.1-13.6-1.6-18.1-1.5C177.2,501.6,176.2,509.7,178.8,512.3z"/>
	<path style="fill:#FF9466;" d="M178.8,512.3c2.6,2.6,15.2,3.8,19.1,4c3.9,0.2,18.4,1.2,28.8-0.2l-5.5-14.6c0,0-18.8,1.5-21.5,1.5
		c-2.7,0.1-13.6-1.6-18.1-1.5C177.2,501.6,176.2,509.7,178.8,512.3z"/>
	<path style="fill:#FFB781;" d="M196.8,511c0.3-3.1-6.7-8.1-12.2-8.7c-5.5-0.6-6.2,1.6-6.6,4.7c-0.3,3.1-0.1,6,5.4,6.6
		C188.9,514.2,196.5,514.1,196.8,511z"/>
	<path style="fill:#FFB781;" d="M221.4,498.3c-2.2-2.9-15.8-9.1-19.4-10.6c-3.7-1.4-17.5-1.2-27.3,0.1l2.8,12.7
		c0,0,18.6,2.5,21.2,2.7c2.7,0.3,14,4.8,18.4,5.3C221.5,509.1,223.6,501.2,221.4,498.3z"/>
	<polygon style="fill:#F1EDDC;" points="240.2,469 264.3,469.4 256.7,527.9 236.9,527 	"/>
	<path style="fill:#513B3E;" d="M311.6,463.1c-0.2-8.6-19-32.6-23.3-55.9c-11.3-60.6-17.2-147.7-1.5-135.4
		c21.8,17,108.4,178.2,108.7,246.9l-145.4,10.9l1.5-70.6L311.6,463.1z"/>
	<path style="fill:#422E31;" d="M286.8,271.8c-0.3-0.2-0.6-0.4-0.9-0.6c32.6,46.4,111.6,221.9,100.7,238.9s-136.2,3.6-136.2,3.6
		l-0.3,15.9c0,0,141.5,10.6,151-10.9C410.7,497.1,308.6,288.7,286.8,271.8z"/>
	<path style="fill:#422E31;" d="M320.8,468c0,0-26.2-52.7-39.6-107.6c1.9,16,4.5,46.5,7.3,61.1c6.3,19.1,13,31.8,16.3,39.4
		l-11.6,1.5L320.8,468z"/>
	<path style="fill:#513B3E;" d="M89.3,457.3c-1.1-9.8,0.5-39.7-2.2-65.6C81.2,336.8,68,275.2,55.4,286.5
		C36.9,303.1,8.8,447.1,17.6,514.4l122.7,14.5l8.5-72.5L89.3,457.3z"/>
	<path style="fill:#422E31;" d="M28.4,506.6C12,494.7,36.5,334.9,54,288C35,310.9-4,511.9,13.4,521.4c17.4,9.5,126.9,7.4,126.9,7.4
		l1.7-14.8C142.1,514.1,44.7,518.5,28.4,506.6z"/>
	<path style="fill:#F1EDDC;" d="M239.8,251.2c-27.8-8.9-58-20.1-68.9-22.2c-9.4-1.8-35.8,11.5-60.3,23.2L191.6,443L239.8,251.2z"/>
	<polygon style="fill:#E1D9B9;" points="191.2,271.9 197.8,279 224.3,246.1 215.4,241.7 182,258 130.6,241.9 122.3,247.1 
		166.5,279.5 171.3,273.1 174.2,277.1 172.1,397 179.8,416.2 201.3,405.6 204.3,392.6 188.1,276.6 	"/>
	<polygon style="fill:#FFB781;" points="134.4,188.7 132,242.4 176,253.7 216.8,243.1 209.5,181.6 	"/>
	<polygon style="fill:#E74D60;" points="192.1,454.6 174.6,404.6 176,253.7 182.2,253 202.5,403.4 	"/>
	<polygon style="fill:#E74D60;" points="181.7,282.5 169.7,266.2 172.8,252.1 185.7,250.4 191.6,266.2 	"/>
	<polygon style="fill:#F1EDDC;" points="166.4,279 177.3,251.5 131.5,233.9 125.8,243.6 	"/>
	<polygon style="fill:#F1EDDC;" points="197.8,279 181.3,250.2 216.6,237.5 221.3,243.6 	"/>
	<path style="fill:#FFB781;" d="M109.6,80.6c12,74.3,24.7,124.6,30.9,134.9c19.1,31.8,89.1,19.8,89.1,19.8s41.8-134-29-178.9
		C142.9,19.8,109.6,80.6,109.6,80.6z"/>
	<path style="fill:#832A33;" d="M92.4,79c9.4-30.6,42.4-37.5,49.5,14.9c7.1,52.3,6.4,84.9,6.4,84.9h-18.4
		C129.9,178.8,86.7,97.4,92.4,79z"/>
	<path style="fill:#FFB781;" d="M135.9,150.5c-11.3-17.9-33.9-18.7-34.6-2.4c-0.7,16.3,30.8,43.2,36.9,34.7
		C144.2,174.4,139.9,156.8,135.9,150.5z"/>
	<path style="fill:#E97B59;" d="M130.4,154.1c-7.1-11.2-21.2-11.7-21.6-1.5c-0.4,10.2,19.2,27,23,21.7
		C135.6,169,132.9,158,130.4,154.1z"/>
	<path style="fill:#FFB781;" d="M132.4,160.9c-4.9-7.8-14.8-8.2-15.2-1c-0.3,7.1,13.5,18.9,16.1,15.2
		C136,171.3,134.1,163.6,132.4,160.9z"/>
	<g>
		<path style="fill:#E97B59;" d="M198,102.2c5.7,29,13.5,67.3,13.5,72.9c0,5.6-17,12.3-20.1,10.4c-3.1-1.9,3.6-83.3,3.6-83.3H198z"
			/>
		<path style="fill:#FFB781;" d="M195,99.4c5.7,29,13.5,67.3,13.5,72.9c0,5.6-17,12.3-20.1,10.4c-3.1-1.9,3.6-83.3,3.6-83.3H195z"/>
		<g>
			<path style="fill:#E97B59;" d="M162.8,189.7l-1.7,3.4c8.9,9.6,28.5,11,61.5,4.3l-0.3-1.5C190.6,202.4,170.9,198.4,162.8,189.7z"
				/>
		</g>
		<path style="fill:#E97B59;" d="M206,206c0.1,1-3,3-7.3,3.2c-4.4,0.2-8.4-1.6-8.5-2.5c-0.1-1,4.1-0.1,8.5-0.2
			C203.1,206.2,205.9,205,206,206z"/>
		<g>
			<path style="fill:#FFFFFF;" d="M212.4,133c-0.2-7.6,0.9-16.7,12.5-19.8c11.8-3.1,17.2,7.4,17.1,11.3c-0.1,3.8-3.4,9.5-9.8,10.3
				c-6.5,0.6-12.2,0.1-14.6,0.4C215.3,135.6,212.5,134.6,212.4,133z"/>
			
				<ellipse transform="matrix(0.9988 -4.801732e-02 4.801732e-02 0.9988 -5.6843 11.0013)" style="fill:#39170B;" cx="226.1" cy="123.8" rx="9.7" ry="9.7"/>
			<path style="fill:#FFFFFF;" d="M217.9,120.4c0.1,2.4,2.1,4.3,4.5,4.2c2.4-0.1,4.3-2.1,4.2-4.5c-0.1-2.4-2.1-4.3-4.5-4.2
				C219.7,115.9,217.7,117.9,217.9,120.4z"/>
			<path style="fill:#FFFFFF;" d="M182.3,134c-0.4-7.6-1.9-16.6-13.8-19c-11.9-2.4-16.7,8.4-16.2,12.4c0.5,3.9,3.9,9.3,10.5,9.7
				c6.5,0.3,12.2-0.7,14.6-0.4C179.6,136.7,182.4,135.6,182.3,134z"/>
			<path style="fill:#39170B;" d="M177.3,124.7c0.1,5.4-4,9.9-9.4,10s-9.9-4-10-9.4s4-9.9,9.4-10C172.7,115.1,177,119.3,177.3,124.7
				z"/>
			<path style="fill:#FFFFFF;" d="M168.2,121.2c0.1,2.4-1.8,4.5-4.2,4.5c-2.4,0.1-4.5-1.8-4.5-4.2c-0.1-2.4,1.8-4.5,4.2-4.5
				C166.1,116.9,168.1,118.8,168.2,121.2z"/>
		</g>
		<path style="fill:#98393E;" d="M199.3,91c-1.5,2.2-0.8,21.3,0.4,23c1.2,1.7,33.7,1.6,35.5,0.1c1.8-1.5,1.6-21,0.6-23.5
			C234.8,88.1,200.9,88.6,199.3,91z"/>
		<path style="fill:#98393E;" d="M146.3,94.5c-1.9,2.3-1,21.4,0.5,23c1.5,1.6,42.7-0.8,45-2.4c2.3-1.6,2.1-21.1,0.8-23.5
			C191.3,89.1,148.3,92,146.3,94.5z"/>
	</g>
</g>
</svg>
