<?xml version="1.0" encoding="UTF-8" standalone="no"?>
<!DOCTYPE svg PUBLIC "-//W3C//DTD SVG 1.1//EN" "http://www.w3.org/Graphics/SVG/1.1/DTD/svg11.dtd">
<svg width="100%" height="100%" viewBox="0 0 175 500" version="1.1" xmlns="http://www.w3.org/2000/svg" xmlns:xlink="http://www.w3.org/1999/xlink" xml:space="preserve" xmlns:serif="http://www.serif.com/" style="fill-rule:evenodd;clip-rule:evenodd;stroke-linejoin:round;stroke-miterlimit:2;">
    <g transform="matrix(1,0,0,1,1.98243,0)">
        <g>
            <path d="M137.5,176.3L56.8,152.3C56.8,152.3 16,38.1 66.7,22.1C79.3,2 143.6,1.6 152.4,50.7C161.1,99.8 137.5,176.3 137.5,176.3Z" style="fill:rgb(152,57,62);fill-rule:nonzero;"/>
            <path d="M98,61.3C116.1,49 126.9,31.2 127,16C139.2,22.3 149.3,33.5 152.4,50.8C161.2,99.9 136.8,184 136.8,184L56.1,160C56.1,160 41.3,106.1 41.3,72C55.5,78.1 79.2,74 98,61.3Z" style="fill:rgb(136,44,53);fill-rule:nonzero;"/>
            <path d="M89,81.8C109.1,81.8 117.6,140.5 136.1,184.2L64,164.5C66.2,135.2 70.9,81.8 89,81.8Z" style="fill:rgb(117,35,47);fill-rule:nonzero;"/>
            <g>
                <path d="M7.7,223.9C10.6,210.2 58,135.1 75.7,134.3C84,133.9 34.4,210.7 27.1,230.7C24.3,238.2 5.4,234.9 7.7,223.9Z" style="fill:rgb(241,237,220);fill-rule:nonzero;"/>
                <path d="M17.6,225C23.2,209.5 72.2,134.5 75.6,134.3C83.9,133.9 34.3,210.7 27,230.7C25.2,235.6 16.5,235.9 11.3,232.4C13.6,231.8 16.9,227 17.6,225Z" style="fill:rgb(220,209,190);fill-rule:nonzero;"/>
                <path d="M12.2,238.1C9.7,238 1.6,234.2 1.6,228.6C1.6,223.1 11.9,213 21.5,217.8C25,219.5 31.8,224.2 31.5,224.6C31.5,224.7 25.7,238.7 12.2,238.1Z" style="fill:rgb(77,77,77);fill-rule:nonzero;"/>
                <path d="M5.1,223.2C5.1,223.6 5.1,224 5.3,224.3C6.2,227.1 11,227.9 15.8,226.3C20.6,224.7 23.7,221.2 22.9,218.4C26.7,220.1 31.8,224.4 31.5,224.7C31.5,224.7 25.7,238.7 12.2,238.2C9.7,238.1 1.6,234.3 1.6,228.7C1.6,226.9 3,224.9 5.1,223.2Z" style="fill:rgb(51,51,51);fill-rule:nonzero;"/>
            </g>
            <g>
                <path d="M58.4,285.5C56.1,277.9 27.1,231.8 24.6,229.5C22.1,227.3 10.6,223.8 7.5,230C4.5,236.2 55.4,289.4 55.4,289.4L58.4,285.5Z" style="fill:rgb(255,183,129);fill-rule:nonzero;"/>
                <path d="M23.1,228.6C19.5,228.2 16,228.9 14.6,231.8C12.1,236.9 44.8,273.8 56.4,288.4L55.4,289.4C55.4,289.4 3,236.1 6.1,229.9C8.7,224.5 18.9,226.5 23.1,228.6Z" style="fill:rgb(255,148,102);fill-rule:nonzero;"/>
            </g>
            <path d="M100.7,290.3L120.9,331.2C120.9,331.2 126.4,481.7 115.3,597L104.2,597C78.4,299.6 100.7,290.3 100.7,290.3Z" style="fill:rgb(255,183,129);fill-rule:nonzero;"/>
            <path d="M71.9,290.3L92.1,331.2C92.1,331.2 97.6,481.7 86.5,597L75.4,597C49.6,299.6 71.9,290.3 71.9,290.3Z" style="fill:rgb(255,183,129);fill-rule:nonzero;"/>
            <g>
                <path d="M92.1,422.3L120.2,447.3C120.2,447.3 125.8,432.7 120.1,531.1C117.6,518.6 107,499.5 95.9,486.2L92.1,422.3Z" style="fill:rgb(255,148,102);fill-rule:nonzero;"/>
                <path d="M76.4,404.8L94.2,422.9L93,482.9C86.2,475.7 72.4,471.1 66.6,472C60.2,411.9 76.4,404.8 76.4,404.8Z" style="fill:rgb(255,148,102);fill-rule:nonzero;"/>
            </g>
            <path d="M134.2,457.7L44.7,442.4C44.7,442.4 42.1,299.9 59.4,277.5C76.7,255.1 92.6,242.2 98.1,261.6C103.7,280.9 141.8,270.7 134.2,457.7Z" style="fill:rgb(77,77,77);fill-rule:nonzero;"/>
            <path d="M106.4,418.1C106.4,339 90.8,273.8 70.7,264.1C74.1,243.1 92.6,243 98.1,262.3C103.6,281.6 141.8,270.6 134.1,457.7L104.2,452.6C105.7,437 106.4,435.5 106.4,418.1Z" style="fill:rgb(51,51,51);fill-rule:nonzero;"/>
            <path d="M108.8,275.3C101.6,245.1 129.4,154.7 122.5,141.7C122.5,141.7 57.8,168.2 58,185.7C58.3,220 61.8,261.1 58.8,278.3L108.8,275.3Z" style="fill:rgb(220,209,190);fill-rule:nonzero;"/>
            <path d="M123,142.9C123.8,155.9 114.9,209.9 110.4,213.8C99.6,223 57.9,219.9 51.8,208.6C46.8,199.3 68.9,139.9 72,137.3C75.1,134.5 122.7,136.4 123,142.9Z" style="fill:rgb(241,237,220);fill-rule:nonzero;"/>
            <path d="M98.9,206.8C103.6,203.1 122.9,141.1 123,142.9C123.8,155.9 115.6,206.2 110.4,213C102.5,223.4 48,220.7 51.8,204.7C67.6,210.7 90,213.9 98.9,206.8Z" style="fill:rgb(220,209,190);fill-rule:nonzero;"/>
            <path d="M114.3,138.6C110.9,153.8 105.1,190.8 80,190.5C54.9,190.1 79.3,135.7 79.3,135.7C93.3,134.6 105.3,135 114.3,138.6Z" style="fill:rgb(255,183,129);fill-rule:nonzero;"/>
            <path d="M79.3,135.7C79.6,135.7 79.9,135.7 80.2,135.6C75.8,145.5 58.6,188.6 81.6,188.9C87.3,189 92.4,186.3 97,182C92.1,187.2 86.5,190.5 80.1,190.4C54.9,190.1 79.3,135.7 79.3,135.7Z" style="fill:rgb(255,148,102);fill-rule:nonzero;"/>
            <path d="M111.6,95.6L108.6,137.1L95.6,146.3L85.4,136.6L94.8,97.6L111.6,95.6Z" style="fill:rgb(255,183,129);fill-rule:nonzero;"/>
            <path d="M115.4,97.3C112.9,116.2 78.3,132.4 78.3,132.4C78.3,132.4 57.5,108.3 57.1,80.2C56.8,59.6 60.4,40.3 85.1,41.1C105.7,41.7 120,63.4 115.4,97.3Z" style="fill:rgb(255,183,129);fill-rule:nonzero;"/>
            <path d="M111.6,96.9C103.5,79.6 91,40.8 106.1,28.8C116.8,20.4 127.2,55.9 121.3,79.1C119.1,88.1 111.6,96.9 111.6,96.9Z" style="fill:rgb(136,44,53);fill-rule:nonzero;"/>
            <g>
                <path d="M114.7,83.3C121.1,79 128.9,77.7 128.4,84.8C127.9,91.9 116.7,98.8 111.1,101.3C105.5,103.9 112.4,84.9 114.7,83.3Z" style="fill:rgb(255,183,129);fill-rule:nonzero;"/>
                <path d="M116.2,85.6C119.7,83.3 124,82.5 123.7,86.4C123.4,90.3 117.3,94.1 114.2,95.4C111.2,96.9 115,86.5 116.2,85.6Z" style="fill:rgb(233,123,89);fill-rule:nonzero;"/>
                <path d="M114,90.1C116.8,88.2 120.2,87.6 120,90.8C119.8,93.9 114.9,96.9 112.4,98.1C110,99.2 113,90.8 114,90.1Z" style="fill:rgb(255,183,129);fill-rule:nonzero;"/>
            </g>
            <path d="M100.9,34.5C103.8,26.1 110.3,20.8 115.3,22.5C120.4,24.3 122.1,32.5 119.2,40.8C116.3,49.2 109.8,54.5 104.8,52.8C99.8,51.1 98,42.9 100.9,34.5Z" style="fill:rgb(152,57,62);fill-rule:nonzero;"/>
            <g>
                <path d="M76.7,91.3C74.3,95 72.3,100.2 73.5,101.5C74.8,102.8 81,102.6 81.5,102.3C82.1,101.9 76.7,91.3 76.7,91.3Z" style="fill:rgb(233,123,89);fill-rule:nonzero;"/>
                <path d="M78.5,90.4C76.1,94.1 74.1,99.3 75.3,100.6C76.6,101.9 82.8,101.7 83.3,101.4C83.8,101 78.5,90.4 78.5,90.4Z" style="fill:rgb(255,183,129);fill-rule:nonzero;"/>
                <g>
                    <path d="M55.8,71.3L55.3,70.4C58.7,64.7 66.6,62.1 70.4,62.1L70.8,64.7C67.8,64.3 59.7,66.6 55.8,71.3Z" style="fill:rgb(152,57,62);fill-rule:nonzero;"/>
                </g>
                <g>
                    <path d="M101.2,67.3C94.8,62.9 83.3,62.2 80.5,62.5L80.6,59.8C83.7,59.6 94.5,60.8 101.9,66.4L101.2,67.3Z" style="fill:rgb(152,57,62);fill-rule:nonzero;"/>
                </g>
                <g>
                    <path d="M87.1,82.4C85.8,81 87.6,75.6 92.6,73.8C97.6,71.9 100.4,75.2 100.6,76.5C100.8,77.9 100.3,80.3 97.4,81.7C94.6,83.1 92.2,82.9 90.8,82.9C89,82.8 87.9,83.2 87.1,82.4Z" style="fill:white;fill-rule:nonzero;"/>
                    <circle cx="92.8" cy="77.1" r="4.4" style="fill:rgb(57,23,11);"/>
                    <circle cx="94.5" cy="76.1" r="1.8" style="fill:white;"/>
                    <path d="M86.7,81.2C86.7,81.2 85.9,78.7 88.8,75.2C91.7,71.7 95.8,72.2 97,71.9C98.1,71.6 99.3,71.9 99,72.2C98.7,72.5 99.7,73.3 100.6,73.1C101.5,72.9 100.7,73.9 100.7,74.2C100.7,74.5 102.3,74.3 102.4,74.6C102.5,74.9 101.6,75.7 101.8,75.8C102,75.9 102.9,76.5 102.5,76.8C102.1,77.1 101.3,78.2 101,78.6C100.7,79 99.7,79.5 99.7,79.5C99.7,79.5 100.7,77.3 99.9,75.9C99.1,74.5 97.3,73 94.5,73.5C91.6,74 89.9,75.4 88.7,76.7C87.7,78 86.7,81.2 86.7,81.2Z" style="fill:rgb(57,23,11);fill-rule:nonzero;"/>
                </g>
                <g>
                    <path d="M71,81.8C72,80.3 69.6,75.5 64.7,74.4C59.8,73.3 57.6,76.7 57.6,78C57.6,79.3 58.4,81.5 61.3,82.4C64.1,83.3 66.4,82.8 67.7,82.6C69.3,82.4 70.4,82.6 71,81.8Z" style="fill:white;fill-rule:nonzero;"/>
                    <circle cx="64.9" cy="77.5" r="4.2" style="fill:rgb(57,23,11);"/>
                    <path d="M68.1,76.5C68.2,77.4 67.5,78.2 66.6,78.3C65.7,78.4 64.9,77.7 64.8,76.8C64.7,75.9 65.4,75.1 66.3,75C67.3,74.9 68.1,75.6 68.1,76.5Z" style="fill:white;fill-rule:nonzero;"/>
                    <path d="M71.2,80.6C71.2,80.6 71.6,78.1 68.4,75.2C65.2,72.3 61.4,73.3 60.3,73.2C59.2,73.1 58.1,73.5 58.5,73.8C58.9,74.1 58,75 57.1,74.9C56.2,74.8 57.2,75.6 57.2,75.9C57.2,76.2 55.7,76.2 55.7,76.5C55.6,76.8 56.6,77.4 56.4,77.5C56.2,77.6 55.4,78.3 55.8,78.5C56.2,78.7 57.1,79.6 57.4,80C57.7,80.4 58.7,80.7 58.7,80.7C58.7,80.7 57.5,79 58,77.5C58.5,76.1 60,74.4 62.8,74.5C65.6,74.6 67.3,75.7 68.6,76.7C69.9,77.7 71.2,80.6 71.2,80.6Z" style="fill:rgb(57,23,11);fill-rule:nonzero;"/>
                </g>
                <g>
                    <path d="M73.7,114C73.7,114 70.1,112.1 71.6,110.7C73.1,109.4 86.2,113.4 92.2,110.7C89.8,116.8 86.4,121.2 80.9,121.5C75.4,121.8 73.7,114 73.7,114Z" style="fill:rgb(229,142,142);fill-rule:nonzero;"/>
                    <path d="M89.5,113.1C83.9,114.1 81.7,114.8 74.5,113.4C75.2,115.8 77.2,119.6 80.2,119.4C85.4,119.1 89.5,113.1 89.5,113.1Z" style="fill:white;fill-rule:nonzero;"/>
                </g>
            </g>
            <path d="M167.3,223.7C166.6,211.5 137.6,141.7 114.9,138.9C106.9,137.9 144.7,210.1 148.7,228.2C150.2,235 167.8,233.5 167.3,223.7Z" style="fill:rgb(241,237,220);fill-rule:nonzero;"/>
            <path d="M163.9,224.1C161.8,185.9 113.6,138.5 113.6,138.5C136.5,138.8 167.9,212.6 168.5,224.8C168.9,231.8 159.2,234 153.2,232.2C158.6,232 164.2,229.4 163.9,224.1Z" style="fill:rgb(220,209,190);fill-rule:nonzero;"/>
            <g>
                <g>
                    <path d="M114.1,285C118,275.4 146.6,227.3 149.7,224.4C152.8,221.5 165.9,216.9 167.9,224.5C169.8,232.2 119.7,286.1 119.7,286.1L114.1,285Z" style="fill:rgb(255,183,129);fill-rule:nonzero;"/>
                    <path d="M155.6,236.8C154.4,232.1 148.6,232.2 143.5,233.7C146.7,228.5 149,225 149.6,224.4C152.7,221.5 166.9,216.3 168.8,224C170.7,231.7 119.6,286.1 119.6,286.1L117.6,285.9C135.6,265.2 157,242.4 155.6,236.8Z" style="fill:rgb(255,148,102);fill-rule:nonzero;"/>
                </g>
                <path d="M165.1,231.9C167.4,233.1 171.5,219.7 167.6,215.7C163.7,211.7 148,219.8 147,222.6C146,225.4 148,229.8 148,229.8C148,229.8 156.2,227.4 165.1,231.9Z" style="fill:rgb(77,77,77);fill-rule:nonzero;"/>
                <path d="M147,222.6C147.2,222.1 147.9,221.4 148.9,220.6C148.9,221.5 149.1,222.4 149.6,223.1C151.4,225.8 156,226 159.9,223.4C163.4,221.1 165,217.3 164,214.6C165.5,214.6 166.9,214.8 167.6,215.7C172,221.3 167.4,233.1 165.1,231.9C156.2,227.4 148,229.8 148,229.8C148,229.8 146,225.4 147,222.6Z" style="fill:rgb(51,51,51);fill-rule:nonzero;"/>
                <g>
                    <path d="M97.4,299L106.6,288.8L97.8,294.1C96.7,294.6 96,294 95.8,293.7L100,290.4L101.3,289.4C102.5,288.4 103.7,287.5 104.8,286.8L106.5,285.4L118.8,281.7L120,283L120.6,285.3C120.6,285.3 118.3,289.1 114.9,291.8C112.6,296.2 109.9,299.4 109.9,299.4C108,301.1 108.2,299.1 108.2,299.1C110,297.5 111.6,294.1 111.8,293.5C112,293.1 112.1,292.7 112.3,292.4L111.9,292.3L103.2,302.2C101.8,303.4 101.4,301.4 101.4,301.4L107.5,293.4L108.6,291.5L107.9,291.3L108,291.1L107.8,291.3L99.2,300.6C97.6,302.1 96,300.4 96,300.4L97.4,299Z" style="fill:rgb(255,183,129);fill-rule:nonzero;"/>
                </g>
            </g>
        </g>
    </g>
</svg>
