<?xml version="1.0" encoding="utf-8"?>
<!-- Generator: Adobe Illustrator 24.0.3, SVG Export Plug-In . SVG Version: 6.00 Build 0)  -->
<svg version="1.1" id="Layer_1" xmlns="http://www.w3.org/2000/svg" xmlns:xlink="http://www.w3.org/1999/xlink" x="0px" y="0px"
	 width="480px" height="600px" viewBox="0 0 480 600" style="enable-background:new 0 0 480 600;" xml:space="preserve">
<title>Artboard 23</title>
<g transform="matrix(0.948172,0,0,1.88724,-3.09674,-964.778)">
	<rect x="-10.8" y="504.6" style="fill-rule:evenodd;clip-rule:evenodd;fill:#FFECB4;" width="529.6" height="328.5"/>
</g>
<g>
	<g>
		<path style="fill:#EDDBA8;" d="M354.6,575.6v3.5h3v-3.5c19.8,0.2,39.5,0.3,59,0.3c31.3,0.1,63.2,0.3,95.2,0.8c0,0.2,0,0.4,0,0.6h3
			c0-0.2,0-0.4,0-0.5c8.8,0.2,17.6,0.3,26.4,0.6c-0.1,0.6-0.1,1.2-0.2,1.7h3c0.1-0.6,0.1-1.1,0.2-1.7c7,0.2,14,0.4,21.1,0.7v-1.7
			c-16.8-0.6-33.6-1-50.4-1.3c0.1-4.4,0.4-8.9,0.7-13.3c0.4-5.2,0.8-10.5,0.8-15.7c0-1.3,0-2.5-0.1-3.8c15.9,0.2,32.2,0.5,48.9,0.8
			v-1.7c-9.8-0.2-19.4-0.3-28.9-0.5c0.4-6.3,0.5-12.9,0.5-19.2c10.1,0,19.5,0.1,28.5,0.2v-1.7c-15.8-0.2-33-0.3-52.7-0.3
			c-6.7,0-13.5,0-20.2,0c-0.1-2.6-0.2-5.1-0.2-7.7c0-9.9,0.7-19.3,2.1-28.2c23.6,0.5,47.3,1.1,71,1.8v-1.7c-9-0.3-17.9-0.5-26.9-0.8
			c0.2-3.7,0.3-7.4,0.5-11c0.4-7.9,0.9-16.2,0.9-24.3c8.9,0.2,17.3,0.4,25.5,0.6v-1.7c-17.4-0.5-36-0.8-57-0.9
			c-0.4-9.3-0.4-18.3-0.4-27.8h-3c0,9.5,0,18.5,0.4,27.8c-4.4,0-8.9,0-13.5,0c-19.8,0-39.9,0.1-59.4,0.3c-7.7,0.1-15.5,0.1-23.4,0.2
			l-0.2-1.6c-1.4-11.9-2.8-23.1-3.7-34.7c14.1,1,28.4,2.2,43,3.4c38.5,3.2,78.2,6.5,117.1,6.5v-1.7c-3.7,0-7.4,0-11.1-0.1
			c-0.2-3.1-0.4-6.1-0.5-9.2c-0.4-6.8-0.9-13.8-0.9-20.6c4.2,0.2,8.3,0.4,12.5,0.6v-1.7c-9.4-0.4-18.9-0.9-28.3-1.3
			c-20.4-0.9-40.9-1.9-61.5-2.8c0.1-4.9,0.7-9.8,1.3-14.6c0.5-4,1-8.2,1.2-12.3c17.6,0.4,35.2,0.7,52.6,1.2
			c11.6,0.3,23.2,0.6,34.8,0.9v-1.7c-11.5-0.3-23.1-0.6-34.6-0.9c-39.2-1-79-1.7-118.9-2.6c0.2-3.5,0.6-7.1,1-10.5
			c0.6-5.5,1.3-11.1,1.3-16.8h-3c0,5.6-0.7,11.2-1.3,16.6c-0.4,3.5-0.8,7-1,10.6c-25.8-0.6-51.7-1.4-77.5-2.5
			c-0.5-9-0.9-17.5-0.9-26.3c10.7,0.3,21.3,0.5,31.9,0.7c0,0,0,0,0,0.1l2.2,0c20.5,0.4,40.9,0.6,61.2,0.6c29,0,58.3-0.4,87.6-1.1
			l1.2,0.1c0,0,0-0.1,0-0.2c12.5-0.3,24.9-0.7,37.4-1.1c0,1,0.1,2.1,0.1,3.1c0,4.3-0.3,8.7-0.6,12.9c-0.3,4.3-0.6,8.7-0.6,13
			c0,1.3,0,2.5,0.1,3.8l3,0c-0.1-1.2-0.1-2.5-0.1-3.7c0-4.3,0.3-8.7,0.6-12.9c0.3-4.3,0.6-8.7,0.6-13c0-1.1,0-2.2-0.1-3.3
			c3.5-0.1,7-0.3,10.5-0.4v-1.7c-16.8,0.7-33.6,1.2-50.5,1.6c1.2-4.7,2-9.5,2.8-14.1c0.9-5.3,1.7-10.7,3.2-15.9l-3-0.3
			c-1.5,5.3-2.4,10.7-3.3,16c-0.8,4.7-1.6,9.6-2.8,14.4c-23.3,0.6-46.5,0.9-69.6,1c0.9-11.1,1.4-22.2,1.4-33.3
			c40.2,0.9,81.2,1.9,121.8,3.1v-1.7c-3.5-0.1-7-0.2-10.5-0.3c0-9.4,0.8-17.5,1.6-26.9l0.3-3.7l-3-0.1l-0.3,3.7
			c-0.9,9.4-1.6,17.5-1.6,26.9c-24.8-0.7-49.6-1.4-74.3-1.9c0.5-4.9,0.8-9.9,1.2-14.8c0.4-5.3,0.7-10.6,1.2-15.8l-0.9,0
			c28.7,0.5,57.6,1.2,86.3,2.2v-1.7c-12.8-0.4-25.6-0.8-38.5-1.1c0-1.1-0.1-2.2-0.1-3.3c0-3,0.2-6.2,0.3-9.2c0.2-3,0.3-6.1,0.3-9.1
			h-3c0,3-0.2,6.1-0.3,9.1c-0.2,3-0.3,6.2-0.3,9.3c0,1.1,0.1,2.1,0.1,3.2c-33.1-0.8-66.2-1.3-98.8-1.8c0-0.2,0-0.3,0-0.5
			c0-4.6,0.8-9.4,1.6-14c0.4-2.1,0.7-4.2,1-6.2c24,0.6,48.4,1.1,72.6,1.1c23.6,0,45.2-0.5,65.2-1.5v-1.7c-7.5,0.4-15.3,0.7-23.3,0.9
			c0.8-4.9,1.1-9.9,1.5-14.8c0.2-3.3,0.5-6.6,0.8-9.9c7,0.2,14,0.4,21.1,0.7v-1.7c-16.8-0.6-33.6-1-50.4-1.3
			c0.1-4.4,0.4-8.9,0.7-13.3c0.4-5.2,0.8-10.5,0.8-15.7c0-1.3,0-2.5-0.1-3.8c15.9,0.2,32.2,0.5,48.9,0.8v-1.7
			c-9.8-0.2-19.4-0.3-28.9-0.5c0.4-6.3,0.5-12.9,0.5-19.2c10.1,0,19.5,0.1,28.5,0.2v-1.7c-15.8-0.2-33-0.3-52.7-0.3
			c-6.7,0-13.5,0-20.2,0c-0.1-2.6-0.2-5.1-0.2-7.7c0-9.9,0.7-19.3,2.1-28.2c23.6,0.5,47.3,1.1,71,1.8v-1.7c-9-0.3-17.9-0.5-26.9-0.8
			c0.2-3.7,0.3-7.4,0.5-11c0.4-7.9,0.9-16.2,0.9-24.3c8.9,0.2,17.3,0.4,25.5,0.6v-1.7c-17.4-0.5-36-0.8-57-0.9
			c-0.4-9.3-0.4-18.3-0.4-27.8h-3c0,9.5,0,18.5,0.4,27.8c-4.4,0-8.9,0-13.5,0c-19.8,0-39.9,0.1-59.4,0.3c-7.7,0.1-15.5,0.1-23.4,0.2
			l-0.2-1.6c-1.4-11.9-2.8-23.1-3.7-34.7c14.1,1,28.4,2.2,43,3.4c38.5,3.2,78.2,6.5,117.1,6.5v-1.7c-3.7,0-7.4-0.1-11.1-0.1
			c-0.2-3.1-0.4-6.1-0.5-9.2c-0.4-6.8-0.9-13.8-0.9-20.6c4.2,0.2,8.3,0.4,12.5,0.6v-1.7c-9.4-0.4-18.9-0.9-28.3-1.3
			c-20.4-0.9-40.9-1.9-61.5-2.8c0.1-4.9,0.7-9.8,1.3-14.6c0.5-4,1-8.2,1.2-12.3l-3-0.1c-0.2,4.1-0.7,8.2-1.2,12.3
			c-0.6,4.8-1.1,9.7-1.3,14.6c-32.8-1.5-65.9-2.8-99.1-3.9c1.4-8.6,2.8-17.5,3.7-26.3c51.4,2,102.9,3.4,153.3,4.6
			c11.6,0.3,23.2,0.6,34.8,0.9v-1.7c-11.5-0.3-23.1-0.6-34.6-0.9c-10.1-0.3-20.3-0.5-30.6-0.8c0.7-4.8,1-9.5,1.3-14.1
			c0.3-5,0.6-10,1.4-15.2h-3c-0.8,5.1-1.1,10.2-1.4,15.1c-0.3,4.6-0.6,9.3-1.3,14.1c-47.5-1.2-95.7-2.6-143.7-4.8
			c0.3-2.9,0.7-5.8,1.1-8.7c0.7-5.2,1.4-10.5,1.7-15.7h-3c-0.3,5.1-1,10.4-1.7,15.5c-0.4,2.9-0.8,5.8-1.1,8.7
			c-7.3-0.3-43.2-0.7-81-1c0.7-5.9,1-10.8,1-15.4c0-2.7-0.1-5.3-0.4-7.8H267c0.2,2.5,0.4,5.1,0.4,7.8c0,4.6-0.3,9.4-1,15.4
			c-27.5-0.3-55.6-0.5-74.5-0.8c-0.9,0-4.2,0-9.2,0c-0.8-5-1.2-9.9-1.5-14.7c-0.2-2.5-0.4-5.1-0.6-7.6h-2.8c0.3,2.6,0.5,5.2,0.6,7.7
			c0.3,4.7,0.7,9.6,1.5,14.6c-18.6,0-56.2-0.1-98.7-0.1c0.4-7.3,0.7-14.8,0.8-22.1h-2.8c-0.1,7.4-0.5,14.8-0.8,22l1.9,0.1
			c-29.8,0-62-0.1-91.7-0.1c-0.2-3.3-0.2-6.6-0.3-9.8c0-4-0.2-8.1-0.5-12.2h-2.8c0.3,4.1,0.5,8.2,0.5,12.2c0,3.2,0.1,6.5,0.3,9.8
			c-4.5,0-8.9,0-13.2,0c0.2-3.7,0.7-7.6,1.2-11.5c0.4-3.5,0.8-7.1,1.1-10.6h-2.8c-0.3,3.4-0.6,6.9-1.1,10.3
			c-0.5,3.9-0.9,7.9-1.2,11.7c-19.8,0-37.8,0-52.5-0.1c0-0.2,0-0.4,0-0.6l-2.8-0.1c0,0.2,0,0.4,0,0.6c-13.9,0-24.4,0-30.1-0.1v1.8
			c5.7,0,16.2,0.1,30.1,0.1c-0.3,6-0.6,12.6-0.6,19.1c0,3,0.1,5.9,0.2,8.8c-13.7,0-24,0-29.7,0v1.7c11.2,0,40.8,0,77.5,0
			c0.3,3.8,0.4,7.7,0.4,11.4c0.1,5.2,0.1,10.5,0.9,15.9c-37.3,0-67.5,0.1-78.8,0.1v1.7c5.5,0,15.5,0,28.7,0c0,0.5,0,1.1,0,1.6
			c0,9.2,1.5,18.3,2.9,27.2c0.5,2.9,0.9,5.9,1.4,8.9c-15.3,0-26.9-0.1-33-0.1v1.7c4.1,0,10.7,0,19.4,0c0.2,3.9,0.7,7.9,1.1,11.7
			c0.6,5.2,1.2,10.5,1.2,15.7c0,0.8,0,1.7-0.1,2.5c-9.7,0-17.2,0-21.7-0.1v1.8c7,0.1,20.9,0.1,39.6,0.1c-0.4,12.7-0.9,25.8-2.3,39.1
			c-17.4,0-30.6-0.1-37.3-0.1v1.8c8.9,0.1,29,0.1,55.3,0.2c0,0.6,0,1.1,0,1.7c0,1.9-0.1,3.8-0.1,5.7c-0.1,1.9-0.1,3.9-0.1,5.8
			c0,3.1,0.2,5.6,0.6,8c-26.4,0-46.8,0-55.7,0v1.7c5.9,0,16.9,0,31.3-0.1c0.5,5.1,1.6,10,2.7,14.8c1.1,4.9,2.3,10,2.8,15.2
			c-17.1,0-30.1,0-36.7,0v1.8c5.3,0,14.6,0,26.8,0c-0.1,1-0.3,2.1-0.3,3.2c0,4.6,1.1,9.3,2.1,13.8c0.6,2.4,1.1,4.8,1.5,7.1l2.8-0.3
			c-0.4-2.4-1-4.9-1.5-7.3c-1-4.4-2.1-8.9-2.1-13.3c0-1.1,0.1-2.2,0.3-3.2c13.6,0,30.4,0,49,0c0.8,4.1,1.4,8.2,1.9,12.2
			c0.5,4,1.1,8.2,1.9,12.4c-9.8,0-19.1,0-27.7,0c0,0,0,0,0,0l-0.2,0c-25.9,0-45.8,0-54.6,0v1.7c8.4,0,27.5,0,52.2,0
			c0.7,3.4,0.8,6.7,0.8,9.6l0,3.7c0,2.3,0,4.9,0.4,7.5c-25.3,0-44.8,0-53.3,0v1.7c13,0,50.7,0,95.8,0c-0.2,2.8-0.4,5.6-0.6,8.4
			c-0.4,5.3-0.8,10.8-0.8,16.2c0,1.4,0,2.8,0.1,4.2l2.8-0.1c-0.1-1.4-0.1-2.8-0.1-4.1c0-5.3,0.4-10.8,0.8-16.1
			c0.2-2.9,0.4-5.8,0.6-8.6c20.8,0,43.1,0,65.2,0c-0.3,4-0.4,8.3-0.4,13.7c0,2.6,0,5.2,0.1,7.8c0,2.6,0.1,5.2,0.1,7.8h2.8
			c0-2.6,0-5.2-0.1-7.8c0-2.6-0.1-5.2-0.1-7.8c0-5.5,0.1-9.8,0.5-13.7c27.4,0,54.4,0,77.6,0c0,1-0.1,2-0.1,3c0,2.9,0.1,5.7,0.2,8.5
			c0.1,2.8,0.2,5.6,0.2,8.4c0,3.6-0.2,6.6-0.5,9.5c-97.7-0.1-218.6-0.2-244-0.2v1.8c6.8,0.1,19.9,0.1,37.3,0.2l0,6.4
			c0,9.3-0.1,18.9,0.3,28.2c-17.6,0-30.9-0.1-37.6-0.1v1.7c9.9,0,34.4,0,66,0.1c1.1,4.1,1.3,8,1.3,11.1c0,1.9-0.1,3.9-0.1,5.8
			c-0.1,1.9-0.1,3.9-0.1,5.8c0,1.1,0,2.1,0.1,3.1c-32,0-57-0.1-67-0.1v1.8c3.9,0,10.1,0.1,18.1,0.1c0.9,3.9,1.3,7.9,1.7,11.8
			c0.4,4.7,0.9,9.7,2.3,14.5c-9.9,0-17.5,0-22.1,0v1.7c9,0,29.8,0,56.9,0.1c0.5,3,0.9,6,1.3,9c0.7,6,1.5,12.1,3.6,18.2
			c-29.5,0-52.3,0.1-61.8,0.1v1.7c11,0,39.8-0.1,76.4-0.1c-0.9,12.4-0.9,25.2-0.9,37.5h2.8c0-12.4,0-25.1,0.9-37.5
			c17.1,0,35.7,0,54.9-0.1c0,1.8-0.1,3.6-0.1,5.4c0,9.5,0.6,19.6,2,32.6c-62.6-0.1-119.4-0.1-136.1-0.2v1.7c5.7,0,16.3,0,30.2,0.1
			c0,0.8,0.1,1.6,0.1,2.5c0,3.4-0.2,6.9-0.4,10.2c-0.2,3.4-0.4,6.8-0.4,10.3c0,2.4,0.1,4.6,0.3,6.6l2.8-0.2c-0.2-2-0.3-4.1-0.3-6.4
			c0-3.4,0.2-6.9,0.4-10.2c0.2-3.4,0.4-6.9,0.4-10.4c0-0.8,0-1.6-0.1-2.5c16.9,0,38.2,0,61.9,0.1c-0.1,1.9-0.1,3.7-0.1,5.6
			c0,4.3,0.2,8.6,0.3,12.9c0.1,3.8,0.2,7.6,0.3,11.5c-45.4-0.1-82.5-0.1-95.4-0.2v1.8c4.5,0.1,11.6,0.1,20.9,0.1
			c0.5,3.3,1,6.7,1.5,10c1.3,9.6,2.6,19.6,6.6,29.1c-13.3,0-23.4-0.1-29-0.1v1.8c7.1,0.1,21.3,0.1,40,0.2c-0.2,2.4-0.4,4.8-0.4,7.4
			c0,4.1,0.3,8.6,0.9,13.7c-17.7,0-32.3,0-40.5,0v1.7c11.6,0,35.9-0.1,65.1-0.1c-0.1,3.1-0.3,6.2-0.5,9.3c-0.3,3.6-0.5,7.3-0.5,11
			c0,3.6,0.3,6.9,0.9,9.9c-29.3,0-53.5,0-65,0v1.8c47.3,0.1,314,0.2,336.4,0.3C271.3,575.4,343.1,575.5,354.6,575.6z M396,558.3
			c-0.5,5.2-0.9,10.3-1.4,15.8c-24.9-0.1-50.2-0.3-75.4-0.8c-0.5-5.2-1-10.1-1.5-15c-0.5-5-1-9.9-1.5-15.3l-3,0.1
			c0.5,5.4,1,10.4,1.5,15.3c0.5,4.8,1,9.6,1.5,14.8c-2.2,0-37.9-0.1-73.4-0.1c0.2-2.6,0.4-5.3,0.6-7.9c0.5-7.5,1-15.3,2.8-22.8
			c58.5-0.3,130.9-0.5,151.3-0.6C397,547.6,396.5,553,396,558.3z M165.2,541.2C165.2,541.2,165.2,541.2,165.2,541.2
			c-27.5,0-61.7,0.1-96.9,0.1c0.1-1.1,0.1-2.2,0.1-3.3c0-2.1-0.1-4.3-0.2-6.4c-0.1-2.1-0.2-4.2-0.2-6.3c0-1.7,0.1-3.3,0.3-4.7
			c22.6,0,44.8,0.1,65.2,0.1c-0.3,3.1-0.5,6.2-0.6,9.3c-0.1,3.5-0.2,7.1-0.7,10.7l2.8,0.3c0.5-3.6,0.6-7.3,0.7-10.9
			c0.1-3.1,0.2-6.2,0.6-9.3c23.1,0,43.8,0.1,59.6,0.1c-0.1,6.3-0.4,12.6-0.8,18.8l-0.1,1.5c-7.8,0-16.9,0-26.9,0c0,0,0,0,0,0H165.2z
			 M38.7,479.8c23,0.1,46.4,0.1,68.5,0.2c0.3,2.1,0.5,4.2,0.5,6.4c0,6-1.1,12.2-2.2,18.1c-0.9,4.6-1.7,9.5-2.1,14.3
			c-19,0-38.9-0.1-58.6-0.1c0-0.3,0.1-0.7,0.1-1C44.8,517.2,40.2,495.2,38.7,479.8z M45.7,445.9c-8.3,0-16.6,0-24.9,0l2.2-0.2
			c-1.4-12.9-2-22.9-2-32.4c0-1.8,0-3.6,0.1-5.5c22.2,0,45.1,0,67.2-0.1c0.1,3.7,0.2,7.4,0.2,11.1c0.1,8.9,0.2,18,1.4,27
			c-13.6,0-27.5,0-41.4,0c0,0,0,0,0-0.1L45.7,445.9C45.6,445.9,45.7,445.9,45.7,445.9z M-23,373.4c0-3.9,0.3-7.9,0.5-11.7
			c0.2-3.4,0.4-7,0.5-10.5c24.3,0,50.9,0.1,77.2,0.1c0.5,3.8,0.6,7.5,0.6,11.3l0,2.5c0,4.1,0.1,8.2,0.7,12.4c-28,0-56.3,0-81.8-0.1
			l2.4-0.1C-23,375.9-23,374.6-23,373.4z M29.1,395.9c0.5-3.6,1-7.3,1-11.1c0-2.1-0.2-3.9-0.5-5.8c23.4,0,47.4,0,70,0
			c0.5,3.6,0.8,7.5,0.8,11.9c0,3.7-0.3,8.5-0.5,12.7l-0.1,2.4c-23.2,0-47.7,0-71.6,0.1C28.2,402.8,28.6,399.4,29.1,395.9z M58.6,365
			l0-2.5c0-3.8-0.1-7.5-0.6-11.3c29.3,0.1,57.9,0.1,82.1,0.2c0,8.5,0,17.3-0.5,25.9l2.8,0.1c0.4-8.6,0.5-17.4,0.5-26
			c34.3,0.1,59.3,0.1,63.8,0.2c1.8,0,3.7,0.1,5.7,0.1c0,0,0,0,0,0.1h0.3c0.3,2.2,0.7,8.3,0.7,12c0,4.2-0.2,9.8-0.4,13.9
			c-6,0-15.2,0-27-0.1c0,0,0,0,0,0l-0.3,0c-31.2,0-79.6-0.1-128.8-0.1l2.4-0.3C58.7,373,58.6,369,58.6,365z M123.7,323.4
			c26.4,0,49.4,0,65.3,0c0.3,3.9,0.4,7.8,0.4,11.4l0,7.1c0,2.5,0,5,0.2,7.5c-15.4,0-39.3-0.1-67.2-0.1c0.2-2.9,0.4-5.7,0.6-8.6
			c0.4-4.8,0.8-9.7,0.8-14.6C123.7,325.2,123.7,324.3,123.7,323.4z M131.3,267.4c-0.1-2.8-0.2-5.6-0.2-8.4c0-1,0-2,0.1-3
			c27.8,0,49.9,0,60.5,0c0,3.8-0.1,7.5-0.3,11.3c-0.2,4.2-0.3,8.3-0.3,12.5c0,1.9,0,3.8,0.1,5.6c-18,0-38.5,0-60.2-0.1
			c0.3-2.9,0.5-5.9,0.5-9.5C131.5,273,131.4,270.2,131.3,267.4z M129.5,205.1c-22.3,0-48.7,0-75.8,0v-30.2c28.1,0,55.8,0,79.6-0.1
			c-1.4,4.9-1.6,9.9-1.9,14.8c-0.2,5.1-0.5,10.4-2.1,15.5L129.5,205.1z M-58,165.3c0-1.9,0.1-3.8,0.1-5.7c0.1-1.9,0.1-3.8,0.1-5.7
			c0-0.6,0-1.1,0-1.7c17.1,0,36.6,0.1,57.1,0.1c0,1-0.1,2-0.1,3c0,3,0.1,5.9,0.3,8.9c0.1,2.9,0.3,5.9,0.3,8.9h2.8
			c0-3.1-0.2-6.1-0.3-9c-0.1-2.9-0.3-5.8-0.3-8.8c0-1,0-2,0.1-3c23.4,0,48.1,0.1,71.8,0.1c-0.1,3.8-0.5,7.8-1,11.7
			c-0.4,3-0.8,6.1-1,9.1l2,0.1c-45.4,0-94.1,0-131.4,0.1l0.1,0C-57.8,171-58,168.5-58,165.3z M26.3,109.5c-26.2,0-51.6-0.1-73.8-0.1
			c-0.6-4.7-1.5-9.3-2.4-13.8c-1-5.3-2-10.7-2.6-16.2c23.8,0,51.8,0,80.5,0.1c-0.1,1.4-0.3,3.5-0.4,7.1
			C27.3,94.5,26.7,106.4,26.3,109.5L26.3,109.5z M-23.3,77.8l1.8-0.1c-0.2-3-0.3-6.2-0.3-9.8c0-4.9,0.2-9.9,0.4-14.8
			c0.2-4.3,0.3-8.8,0.4-13.2c20.5,0,42.5,0,64.3,0C43.1,45.5,43,50.5,43,55.3c0,7.9,0.3,15.3,0.8,22.6c-4.3,0-8.7,0-13,0
			c-0.2-0.3-0.5-0.6-1.2-0.6c-0.6-0.1-0.9,0-1.2,0.6C10.6,77.9-6.9,77.8-23.3,77.8z M117.5,39.9c0,12.3,0,25.1,1.4,38l2.8-0.2
			c-1.4-12.8-1.4-25.5-1.4-37.8c39.3,0,68.5-0.1,71.8-0.1c9.6-0.1,21.7-0.1,34.7-0.2c-1.2,7.4-1.6,15-2,22.3
			c-0.3,5.3-0.5,10.7-1.1,16.1l0.7,0.1c-2.4,0-4.8,0-7.1,0C206.7,78,126.3,78,46.6,77.9c-0.5-7.3-0.8-14.7-0.8-22.6
			c0-4.7,0.1-9.8,0.3-15.3C71.1,39.9,95.7,39.9,117.5,39.9z M67.4,38.2c0-7.2,0.8-14.7,1.6-22c0.2-1.7,0.4-3.5,0.5-5.2
			c48.1,0,91.6,0,110.7,0c-0.2,2.8-0.3,5.7-0.5,8.5c-0.4,6.1-0.8,12.4-0.9,18.6C157.2,38.1,114.3,38.2,67.4,38.2z M272.1,11.4
			c33.5,0.1,63.7,0.3,69.1,0.4c0.6,5.2,0.6,10.5,0.7,15.5c0,3.4,0.1,6.8,0.3,10.3c-1.5,0-3.1,0-4.6,0c-5,0-34.5,0.1-67.3,0.2
			c0.2-3.2,0.5-6.5,0.9-9.6c0.5-4.8,1-9.8,1-14.6C272.1,12.7,272.1,12,272.1,11.4z M316.8,39.3c-0.5,6.5-1.4,12.9-2.2,19.2
			c-0.9,6.5-1.8,13.2-2.3,19.9c-27.2-0.1-58.8-0.1-85.6-0.3c0.6-5.4,0.8-10.8,1.1-16.1c0.4-7.4,0.8-15.1,2-22.5
			C260,39.5,294.9,39.4,316.8,39.3z M342,110.7c-6.8-0.2-50.5-0.5-92.2-0.7c0.2-4.4,0.7-8.9,1.1-13.2c0.6-5.5,1.1-11.3,1.2-17
			c40.8,0.1,82.8,0.2,89,0.3c0.4,2.8,0.6,5.9,0.6,9.6c0,2,0,4-0.1,6c0,2-0.1,4-0.1,6C341.5,105.2,341.7,108.1,342,110.7z M379.1,133
			c0.5,6.2,1,12.4,1.5,18.9c-9.8-0.1-39.9-0.2-74.4-0.4c0.6-4.5,1.2-9.1,1.8-13.6c1.1-8.4,2.2-17.1,3.6-25.6
			c24.1,0.5,46.7,0.9,67.4,1.3l-1.3,0C378.1,120.4,378.6,126.7,379.1,133z M489.3,151.9c-7.8,0-15.7,0-23.5,0.1
			c-15.6,0.1-31.2,0.1-46.8,0.1c-11.6,0-23.5,0-35.4-0.1c-0.5-6.6-1-12.8-1.5-19c-0.5-6.3-1-12.6-1.5-19.3c30,0.6,55.8,1.1,75.5,1.5
			c11.6,0.2,23.4,0.5,35.1,0.7c-1.4,8.9-2.1,18.4-2.1,28.3C489.1,146.8,489.2,149.4,489.3,151.9z M419,153.8c5.6,0,11.3,0,16.9,0
			c-0.1,1.8-0.2,3.8-0.2,6c0,2.2,0.1,4.5,0.1,6.7c0,1.9,0.1,3.7,0.1,5.6c-2.9,0-5.8,0-8.7,0c-32,0-62.6,0.2-92.6,0.7
			c-0.2-3.1-0.3-6.1-0.3-9.2c0-3.3,0.1-6.6,0.4-9.9C372.3,153.8,405.1,153.8,419,153.8z M513.3,174.3c0.1,1.3,0.1,2.5,0.1,3.8
			c0,5.2-0.4,10.5-0.8,15.6c-0.3,4.4-0.6,8.9-0.7,13.3c-32-0.6-63.9-0.7-95.2-0.8c-6.3,0-12.6,0-19-0.1c0.5-5.5,0.9-10.6,1.4-15.8
			c0.5-5.4,1-10.8,1.5-16.6c8.8,0,17.7-0.1,26.7-0.1C455,173.8,483.6,174,513.3,174.3z M421.9,256.1c-0.9,0-1.9,0-2.8,0
			c0.5-6.8,1.1-13.8,3.3-20.4l-2.9-0.3c-2.3,6.7-2.9,13.8-3.4,20.7c-2,0-4-0.1-5.9-0.1c-28.1-0.4-56.8-0.8-85.4-1.4
			c0.1-1.7,0.2-3.3,0.2-5c0.2-5.4,0.3-10.9,1.7-16.2c26.7,0.2,53.8,0.9,80,1.6c5.9,0.2,11.8,0.3,17.8,0.5c-0.3,2-0.6,4.1-1,6.1
			c-0.8,4.7-1.6,9.5-1.6,14.2C421.9,255.8,421.9,255.9,421.9,256.1z M329.1,285.8c-3-0.1-21.4-0.2-44.8-0.2v-29.4
			c23.4,0.1,41.9,0.1,44.8,0.2c-0.3,5.3-0.4,10.4-0.4,15.5C328.8,276.5,328.9,281.1,329.1,285.8z M262.1,254.3c0-0.3,0-0.6,0-0.8
			c0-2.9,0.4-5.9,0.8-8.9c0.4-3,0.8-6.1,0.8-9.2c0-0.7-0.1-1.5-0.1-2.2c26.5,0,48.7,0,50.1,0c3.3,0,6.7,0,10,0.1
			c-1.4,5.4-1.5,10.9-1.7,16.2c0,1.7-0.1,3.3-0.2,5C319.1,254.4,292.4,254.4,262.1,254.3z M281.5,256.2v29.4
			c-8.4,0-17.4-0.1-26.5-0.1c-8.5,0-31-0.1-61-0.1c-0.1-1.9-0.1-3.8-0.1-5.6c0-4.1,0.2-8.3,0.3-12.4c0.1-3.8,0.3-7.6,0.3-11.4
			c1.7,0,2.9,0,3.6,0C221,256,254.2,256.1,281.5,256.2z M354.6,231.9c-13.7-0.3-27.4-0.4-41-0.4c-1.1,0-13.8,0-31.3,0
			c2.8-8,3.8-16.3,4.2-24.1c32.7,0.1,61.2,0.2,68.1,0.2V231.9z M218.6,173.2c-4.3,0-8.4,0-12.3,0c-4.3,0-23.6,0-50.9,0
			c1.7-6.9,2.6-13.9,3.5-20.7c26.2,0.1,44.4,0.1,48,0.2c9.6,0.1,20.4,0.3,31.8,0.4c0.2,1.6,0.4,3.2,0.4,5.1c0,2.7-0.3,5.5-0.5,8.2
			c-0.2,2.2-0.4,4.5-0.4,6.8c-5.7,0-11.2,0-16.6,0c0,0,0-0.1,0-0.1L218.6,173.2C218.6,173.1,218.6,173.2,218.6,173.2z M94.2,92.9
			c-0.1-2.5-0.2-5.1-0.2-7.6c0-2.1,0.1-4,0.2-5.7c23.9,0,46.5,0,65.6,0c-0.3,2.5-0.4,5.3-0.4,8.5c0,2,0,4,0.1,6c0,2,0.1,4,0.1,6
			c0,2.7-0.2,6.9-0.4,8.8h-0.2c0,0.4,0,0.6,0,0.8c-19,0-41.5,0-65.2-0.1c0.4-2.7,0.5-5.6,0.5-9C94.4,98,94.3,95.5,94.2,92.9z
			 M208.5,111.5c-1.4,7.3-1.8,14.9-2.1,22.2c-0.3,5.6-0.6,11.4-1.3,17.2c-6.3,0-23.9-0.1-48.1-0.1l-0.7-0.1l0,0.1
			c-10.6,0-22.4,0-35-0.1c0-3.5,0-7,0.1-10.4c0-3.5,0.1-6.9,0.1-10.4c0-6.1-0.1-11.7-0.5-18.4C152.8,111.4,183.1,111.5,208.5,111.5z
			 M162.4,94.1c0-2-0.1-4-0.1-6c0-3.3,0.2-6,0.4-8.5c28.3,0,48.7,0,54,0.1c10.2,0,21.3,0.1,32.6,0.1c-0.1,5.7-0.6,11.3-1.2,16.8
			c-0.4,4.4-0.9,8.9-1.1,13.4c-11-0.1-21.8-0.1-31.7-0.2c-5.2,0-25.3-0.1-53.3-0.1c0.3-1.4,0.4-4.2,0.4-9.6
			C162.5,98.1,162.4,96.1,162.4,94.1z M331.6,172.8c-5.2,0.1-49.7,0.2-90.7,0.3c0.1-2.2,0.2-4.4,0.4-6.6c0.2-2.7,0.5-5.5,0.5-8.3
			c0-1.8-0.1-3.5-0.4-5.1c28.4,0.3,60.6,0.4,90.2,0.5c-0.2,3.3-0.4,6.6-0.4,9.9C331.3,166.6,331.4,169.7,331.6,172.8z M303.3,151.5
			c-32.5-0.2-68.6-0.4-95.4-0.7c0.7-5.7,1-11.5,1.3-17.1c0.4-7.4,0.8-14.9,2.2-22.3c35.4,0,60.4,0.1,65,0.2
			c11,0.2,21.8,0.4,32.4,0.6c-1.4,8.4-2.5,17-3.6,25.4C304.5,142.3,303.9,147,303.3,151.5z M156,152.6c-0.9,6.8-1.8,13.8-3.5,20.7
			c-22.2,0-49.3,0-77.7,0c0.2-2.9,0.6-6,1-8.9c0.5-3.9,1-8,1.1-11.9C106,152.5,133.7,152.5,156,152.6z M221.6,178.6
			c0-1.3,0-2.6-0.1-4c5.3,0,10.8-0.1,16.5-0.1c0,0.1,0,0.1,0,0.2h2.8c0-0.1,0-0.1,0-0.2c22.9-0.1,48.2-0.2,72-0.3
			c0.5,5.4,1.4,11.5,1.9,16.4c0.5,4.8,1,9.6,1.5,14.8c-2.7,0-56.1-0.1-97.4-0.2C220.6,196.4,221.6,187.4,221.6,178.6z M319.2,205.4
			c-0.5-5.2-1-10.1-1.5-15c-0.5-4.9-1.4-11-1.9-16.3c36.7-0.1,69.1-0.2,81.7-0.3c-0.5,5.7-1,11.1-1.5,16.5
			c-0.5,5.2-0.9,10.3-1.4,15.8C369.7,206,344.4,205.8,319.2,205.4z M268.2,27.8c-0.3,3.3-0.7,6.6-0.9,9.9c-13,0-26.5,0.1-39.1,0.2
			l-1.1-0.1c0,0,0,0.1,0,0.1c-5,0-9.9,0-14.5,0.1c0.5-4.6,1.3-9.3,2-13.9c0.7-4.2,1.4-8.6,1.9-12.9c16.2,0.1,34.8,0.1,52.7,0.2
			c0,0.7,0.1,1.4,0.1,2.1C269.3,18.2,268.7,23.1,268.2,27.8z M211.8,23.7c-0.8,4.7-1.6,9.5-2.1,14.2c-6,0-11.6,0.1-16.6,0.1
			c-1.2,0-5.2,0-11.5,0c0-6.1,0.4-12.4,0.9-18.4c0.2-2.9,0.4-5.8,0.5-8.7c3.9,0,6.4,0,7.2,0c6.7,0,14.7,0.1,23.4,0.1
			C213.2,15.4,212.5,19.6,211.8,23.7z M66.2,16c-0.8,7.3-1.6,14.9-1.6,22.2c-33.3,0-68.3,0-98.8,0.1c-0.7-5.4-0.8-10.7-0.9-16
			c0-3.7-0.1-7.5-0.4-11.4c31.5,0,68,0,102.3,0C66.6,12.6,66.4,14.3,66.2,16z M30.5,86.7c0.1-3,0.3-5.8,0.4-7.2
			c20.2,0,40.8,0,60.5,0c-0.1,1.8-0.2,3.6-0.2,5.7c0,2.6,0.1,5.1,0.2,7.7c0.1,2.5,0.2,5.1,0.2,7.6c0,3.4-0.2,6.3-0.5,8.9l0.8,0.1
			c-20.4,0-41.7,0-62.7-0.1C29.6,106,30.1,94.9,30.5,86.7z M46.1,130.7c0.3-6.5,0.7-12.9,0.9-19.3c23.5,0,47.7,0,71,0
			c0.4,6.7,0.5,12.3,0.5,18.4c0,3.4,0,6.9-0.1,10.4c0,3.5-0.1,6.9-0.1,10.4c-22.8,0-48-0.1-73.3-0.1C45.4,144,45.7,137.3,46.1,130.7
			z M134.3,189.7c0.2-4.9,0.5-10,1.9-14.9c36.7,0,63.6-0.1,67.8-0.1c4.6,0,9.5-0.1,14.7-0.1c0,1.3,0.1,2.6,0.1,3.9
			c0,8.9-1,17.8-2.9,26.6c-8.9,0-17.2,0-24.2,0c-3.1,0-26.6,0-59.5,0C133.8,200,134,194.8,134.3,189.7z M204.9,219.2
			c0.3-4,0.7-8,0.9-12.1c22.2,0.1,51.2,0.2,77.9,0.3c-0.5,7.9-1.4,16.1-4.3,24.1c-22.9,0-52.7,0-75.4,0
			C204.3,227.3,204.6,223.3,204.9,219.2z M260.8,233.2c0.1,0.7,0.1,1.5,0.1,2.2c0,2.9-0.4,6-0.8,8.9c-0.4,3-0.8,6.1-0.8,9.1
			c0,0.3,0,0.6,0,0.8c-21.4,0-44.2-0.1-61.3-0.1c-2.3,0-11.1,0-24.5,0c0.1-0.6,1-11.2,2.5-20.9c10.4,0,17.2,0,19,0
			C213,233.2,238.2,233.2,260.8,233.2z M216.4,287.9c0.9,4.1,1.4,8.5,1.4,13.9c0,3.6-0.2,7.2-0.4,10.7c-0.2,3.1-0.3,6.4-0.3,9.6
			c-2.4,0-4.7,0-6.9-0.1c-2.3,0-8.8,0-18.4-0.1c0-0.1,0-0.1,0-0.2l-2.8,0.2c-9.7,0-22.1,0-36.5-0.1c-0.9-12-1.8-22.9-3.1-34.2
			C174.9,287.8,198,287.8,216.4,287.9z M259.3,323.7c33.4,0.1,64.2,0.2,67.8,0.3c0,8.9,0.5,17.3,0.9,26.3
			c-3.9-0.2-36.1-0.3-70.5-0.5c1.1-5.7,2.2-12.2,2.2-18.9C259.9,328.3,259.6,326,259.3,323.7z M342,478.8
			c-4.8-0.2-27.8-0.3-55.5-0.5c0-0.9-0.1-1.8-0.1-2.7c0-5.3,0.6-10.9,1.1-16.3c0.4-3.7,0.8-7.6,1-11.3c26.6,0.1,48.3,0.1,52.7,0.2
			c0.4,2.8,0.6,5.9,0.6,9.6c0,2,0,4-0.1,6c0,2-0.1,4-0.1,6C341.5,473.2,341.7,476.1,342,478.8z M489.3,520c-7.8,0-15.7,0-23.5,0.1
			c-15.6,0.1-31.2,0.1-46.8,0.1c-11.6,0-23.5,0-35.4-0.1c-0.5-6.6-1-12.8-1.5-19c-0.5-6.1-1-12.2-1.5-18.7c32.5,0.3,60.2,0.7,75.5,1
			c11.6,0.2,23.4,0.5,35.1,0.7c-1.4,8.9-2.1,18.4-2.1,28.3C489.1,514.8,489.2,517.4,489.3,520z M419,521.9c5.6,0,11.3,0,16.9,0
			c-0.1,1.8-0.2,3.8-0.2,6c0,2.2,0.1,4.5,0.1,6.7c0,1.9,0.1,3.7,0.1,5.6c-2.9,0-5.8,0-8.7,0c-32,0-62.6,0.2-92.6,0.7
			c-0.2-3.1-0.3-6.1-0.3-9.2c0-3.3,0.1-6.6,0.4-9.9C372.3,521.8,405.1,521.9,419,521.9z M236.3,519.1c0.6-4.1,1.4-8.3,2.1-12.3
			c1.6-8.5,3.2-17.3,3.3-26.1c22.5,0.3,47.4,0.6,72.4,0.9c0,0.6,0,1.2,0,1.8c0,9.5-1.4,18.8-2.9,28.6c-0.4,2.4-0.7,4.8-1.1,7.3
			l2.8,0.3c0.3-2.4,0.7-4.8,1.1-7.3c1.4-9.4,2.9-19.2,2.9-28.9c0-0.6,0-1.2,0-1.8c20.8,0.2,41.5,0.4,60.6,0.7
			c0.5,6.5,1,12.7,1.5,18.8c0.5,6.2,1,12.4,1.5,18.9C364.2,519.8,292.2,519.6,236.3,519.1z M331.6,540.8c-3.7,0.1-27,0.1-54.8,0.2
			c0.2-2.2,0.6-4.5,1-6.9c0.6-3.1,1.2-6.4,1.2-9.6c0-1.1-0.2-2.1-0.3-3.1c17.7,0.1,35.8,0.2,52.9,0.3c-0.2,3.3-0.4,6.6-0.4,9.9
			C331.3,534.7,331.4,537.8,331.6,540.8z M201.1,477.8c-18.4,0-45.2-0.1-75.6-0.1c-0.4-2.9-0.5-6-0.5-9.6c0-3.5,0.2-7.1,0.3-10.6
			c0.1-3.3,0.3-6.6,0.3-9.9c32.5,0,60.7,0,78.9,0.1c-0.4,3.5-0.9,7-1.5,10.4c-0.9,5.3-1.9,10.8-1.9,16.3
			C200.9,475.5,201,476.7,201.1,477.8z M160.9,518.9c-16.6,0-35.1-0.1-54.7-0.1c0.4-4.7,1.2-9.4,2-13.9c1.1-6,2.3-12.3,2.3-18.5
			c0-2.3-0.2-4.4-0.5-6.4c18.5,0.1,36,0.1,51.5,0.2c-0.1,0.9-0.1,2-0.1,3.5c0,4.6-0.2,9.3-0.4,13.8c-0.2,4.5-0.4,9.2-0.4,13.9
			C160.7,514,160.8,516.5,160.9,518.9z M186.2,379.1c16.8,0,28.5,0,32.5,0c16.6,0.1,35.4,0.1,53.3,0.2c0,0.8-0.1,1.7-0.1,2.5
			c0,2.3,0.1,4.6,0.1,7c0.1,2.3,0.1,4.7,0.1,7c0,3.3-0.1,6.9-0.4,9.9c-16.9,0.1-34.8,0.1-50.8,0.2c-4.6,0-18.6,0-38.3,0.1
			c0-0.9-0.1-2-0.1-2.5c0-3.6,1-7.3,1.9-10.8c1-3.6,1.9-7.4,1.9-11.2C186.4,380.7,186.2,379.9,186.2,379.1z M244.2,407.6
			c0,12.6,0,25.6-1.8,38.7c-6.6,0-13-0.1-19.1-0.1c-5.4,0-24.8-0.1-51.8-0.1c0.1-2.1,0.1-4.2,0.2-6.3c0.3-10.8,0.7-21.9,2.4-32
			c24.2,0,41.4-0.1,46.6-0.1C228.1,407.6,236.1,407.6,244.2,407.6z M181.7,392.2c-1,3.7-2,7.4-2,11.3c0,0.5,0,1.6,0.1,2.5
			c-21,0-48,0.1-77.2,0.1l0.1-2.3c0.2-4.3,0.5-9.1,0.5-12.9c0-4.4-0.3-8.3-0.8-11.9c31.1,0,59.6,0,80.8,0.1c0.1,0.8,0.2,1.5,0.2,2.3
			C183.5,385.1,182.6,388.5,181.7,392.2z M171.2,407.8c-1.7,10.2-2.1,21.2-2.4,32c-0.1,2.1-0.1,4.2-0.2,6.3c-21.7,0-48-0.1-75.9-0.1
			c-1.3-9-1.4-18.2-1.4-27.1c0-3.7-0.1-7.4-0.2-11.1C120.7,407.8,148.7,407.8,171.2,407.8z M205.6,458.4c0.6-3.5,1.2-7.1,1.6-10.7
			c8.1,0,13.9,0,16.6,0c19.7,0.1,42,0.1,61.8,0.2c-0.2,3.7-0.6,7.5-0.9,11.1c-0.6,5.4-1.1,11-1.1,16.5c0,0.9,0,1.8,0.1,2.7
			c-18.9-0.1-39.8-0.2-58.4-0.4c-3.3,0-10.8,0-21.3-0.1c-0.1-1.2-0.2-2.3-0.2-3.5C203.8,469.1,204.7,463.7,205.6,458.4z
			 M324.2,429.6c-0.6,4.7-1.2,9.6-1.2,14.4c0,0.8,0,1.6,0.1,2.5c-23.6,0-51.9-0.1-77.9-0.2c1.8-13.1,1.8-26.1,1.8-38.7
			c29.6-0.1,60.5-0.2,77.6-0.2c0.5,2.5,0.7,5.1,0.7,8C325.4,420,324.8,424.9,324.2,429.6z M274.6,405.7c0.4-3,0.4-6.6,0.4-9.9
			c0-2.3-0.1-4.7-0.1-7c-0.1-2.3-0.1-4.6-0.1-6.9c0-0.8,0-1.7,0.1-2.5c32.4,0.1,61,0.3,66.3,0.4c0.6,5.2,0.6,10.5,0.7,15.5
			c0,3.4,0.1,6.8,0.3,10.3c-1.5,0-3.1,0-4.6,0C332.8,405.6,305.7,405.6,274.6,405.7z M305.7,362.6c-0.5,4.3-1.1,10.1-1.1,15.6
			c-3.7,0-7.5-0.1-11.3-0.1c0.3-2.7,0.9-5.5,1.5-8.2c0.9-4,1.8-8.1,1.8-12.3c0-1.8-0.2-3.4-0.6-5c3.4,0,6.7,0.1,10,0.1
			c0,0.5,0,1,0,1.5c0,1,0.1,2,0.1,3.1C306.2,358.3,306,360.2,305.7,362.6z M293.2,352.6c0.4,1.6,0.6,3.2,0.6,5
			c0,3.9-0.9,7.9-1.7,11.8c-0.6,2.8-1.2,5.7-1.5,8.6c-5.2,0-10.4-0.1-15.7-0.1c0-0.1,0-0.2,0-0.2l-2.8-0.1c0,0.1,0,0.2,0,0.3
			c-18.4-0.1-36.8-0.2-52.9-0.3c-0.8,0-1.9,0-3.2,0c0.2-4,0.4-9.6,0.4-13.9c0-6.5-0.3-10-0.7-12
			C238.5,352.1,266.8,352.4,293.2,352.6z M254.8,349.7c-13.8-0.1-27.9-0.2-40.4-0.2c-0.1,0-0.2,0-0.4,0c-0.1,0-0.2,0-0.4,0
			c-2.3,0-4.6,0-6.8,0c-2,0-7,0-14.5,0c-0.1-2.5-0.2-5-0.2-7.5l0-7.1c0-3.6-0.1-7.4-0.4-11.4c9.6,0,16.2,0,18.7,0
			c14,0.1,30.2,0.1,46,0.2c0.3,2.3,0.5,4.6,0.5,7.1C257,337.5,255.9,344,254.8,349.7z M122.7,447.6c0,3.2-0.1,6.5-0.3,9.8
			c-0.2,3.5-0.3,7.1-0.3,10.7c0,3.6,0.2,6.7,0.5,9.6c-22.5,0-46.8-0.1-71.1-0.1c-1.3-9.6-2.7-20.4-2.9-30
			C73.9,447.6,99.3,447.6,122.7,447.6z M65.4,520.6c-0.1,1.5-0.2,3-0.2,4.7c0,2.1,0.1,4.3,0.2,6.4c0.1,2.1,0.2,4.2,0.2,6.3
			c0,1.1,0,2.1-0.1,3.2l2.8,0.1l0,0l0,0l0,0c-26.1,0-52.7,0-77.4,0c0.5-3.6,1.3-7.2,2-10.6c0.7-3.3,1.5-6.8,2-10.2
			C17.5,520.5,41.6,520.5,65.4,520.6z M163.8,518.9c-0.1-2.4-0.2-4.8-0.2-7.6c0-4.6,0.2-9.3,0.4-13.8c0.2-4.5,0.4-9.2,0.4-13.9
			c0-1.9,0-2.9,0.1-3.5c32.3,0.1,55.9,0.2,61.7,0.3c4.1,0.1,8.4,0.1,12.7,0.2c-0.1,8.7-1.7,17.4-3.3,25.8c-0.8,4.2-1.6,8.4-2.2,12.7
			c-2,0-3.9,0-5.8,0C221,519,196.7,518.9,163.8,518.9z M197.9,539.8c0.4-6.2,0.8-12.6,0.8-18.9c14.5,0,24.7,0.1,28.4,0.1
			c15,0.2,31.7,0.3,48.8,0.4c0.2,1,0.3,2,0.3,3.1c0,3-0.6,6.2-1.2,9.2c-0.4,2.4-0.9,4.9-1.1,7.3c-8.9,0-18.2,0-27.5,0.1
			c0,0,0,0,0-0.1l-2.8-0.5c-0.1,0.2-0.1,0.4-0.1,0.6c-6.9,0-13.7,0-20.2,0.1c-3.7,0-12.7,0-25.5,0L197.9,539.8z M512.5,561.8
			c-0.3,4.4-0.6,8.9-0.7,13.3c-32-0.6-63.9-0.7-95.2-0.8c-6.3,0-12.6,0-19-0.1c0.5-5.5,0.9-10.6,1.4-15.8c0.5-5.4,1-10.8,1.5-16.6
			c8.8,0,17.7-0.1,26.7-0.1c27.8,0,56.3,0.2,86,0.6c0.1,1.3,0.1,2.5,0.1,3.8C513.3,551.4,512.9,556.7,512.5,561.8z M512.5,521.6
			c7.4,0,14.5,0,21.2,0c0,6.3,0,12.9-0.5,19.2c-32.8-0.5-64-0.8-94.4-0.8c0-1.9,0-3.7-0.1-5.6c-0.1-2.2-0.1-4.4-0.1-6.7
			c0-2.2,0.1-4.2,0.2-6c9,0,17.9,0,26.9-0.1C481.3,521.7,496.9,521.6,512.5,521.6z M432.3,448c19.4-0.1,39.6-0.3,59.3-0.3
			c16.3,0,31.1,0.1,45,0.3c0,8.2-0.4,16.4-0.9,24.3c-0.2,3.6-0.4,7.3-0.5,11c-26.6-0.7-53.1-1.2-79.1-1.8
			c-5.6-0.1-11.2-0.2-16.8-0.3c-0.1-3.1-0.2-6.5-0.2-10.3c0-3.8,0.1-7.7,0.1-11.5c0.1-3.8,0.1-7.6,0.1-11.4h-3
			c0,3.8-0.1,7.5-0.1,11.3c-0.1,3.8-0.1,7.7-0.1,11.5c0,3.8,0.1,7.2,0.2,10.2c-30.2-0.6-60.8-1.3-91.3-2.3c-0.3-2.7-0.5-5.6-0.5-9.1
			c0-2,0-4,0.1-6c0-2,0.1-4,0.1-6c0-3.7-0.2-6.8-0.5-9.6c10.2,0.1,19.8,0.1,28.8,0.1C392.8,448.3,412.9,448.1,432.3,448z
			 M405.7,444.9l0.2,1.5c-11,0.1-22,0.1-32.9,0.1c-6,0-24.1,0-47.1,0c0-0.8-0.1-1.6-0.1-2.5c0-4.7,0.6-9.5,1.2-14.2
			c0.6-4.7,1.2-9.7,1.2-14.5c0-2.9-0.3-5.5-0.7-8c5.1,0,8.6,0,10,0c21.7,0,43.8,1.1,66.5,2.7l-2.1,0.1
			C402.9,421.8,404.3,433.1,405.7,444.9z M345.1,405.6c-0.2-3.5-0.2-6.9-0.3-10.3c-0.1-5-0.1-10.2-0.7-15.4
			c33.2,0.9,66.3,2.2,99.2,3.5c0.2,4,0.6,8,0.9,11.9c0.5,5.3,0.9,10.8,1,16.2C410.5,408.6,377.4,406,345.1,405.6z M475.3,384.8
			c20.6,0.9,41,1.9,61.3,2.8c5.1,0.2,10.1,0.5,15.2,0.7h-2.2c0,6.8,0.5,13.9,0.9,20.7c0.2,3.1,0.4,6.1,0.5,9.1
			c-34.2-0.7-68.9-3.6-102.7-6.4c0,0-0.1,0-0.1,0c-0.1-5.6-0.6-11.2-1-16.6c-0.3-3.8-0.7-7.7-0.9-11.6c8.7,0.4,17.3,0.7,25.9,1.1
			c0,0.1,0,0.1,0,0.2L475.3,384.8C475.3,384.8,475.3,384.8,475.3,384.8z M408.5,354.6c0,0.1,0,0.2,0,0.3l3,0.1c0-0.1,0-0.2,0-0.3
			c21.2,0.5,42.3,1,63.3,1.4c-0.2,4.1-0.7,8.2-1.2,12.2c-0.6,4.8-1.1,9.7-1.3,14.6c-32.8-1.5-65.9-2.8-99.1-3.9
			c1.3-8.3,2.7-16.8,3.6-25.3C387.5,354.1,398,354.4,408.5,354.6z M373.9,353.7c-0.9,8.4-2.3,17-3.6,25.3c-8-0.3-33-0.5-62.8-0.7
			c0-5.4,0.6-11.2,1.1-15.4c0.3-2.5,0.5-4.4,0.5-5.5c0-1,0-2.1-0.1-3.1c0-0.5,0-0.9,0-1.4C339.6,353.1,365.4,353.4,373.9,353.7z
			 M362,323c-13.5-0.2-89.6-0.6-142.1-0.9c0-3.2,0.2-6.4,0.3-9.5c0.2-3.5,0.4-7.2,0.4-10.8c0-5.3-0.4-9.8-1.3-13.9
			c17.6,0.1,30.4,0.1,36.2,0.2c13.4,0.1,27.5,0.3,41.6,0.4c0,1.1-0.1,2.2-0.1,3.3c0,4.2,0.2,8.3,0.3,12.5c0.2,4.1,0.3,8.3,0.3,12.4
			c0,1.8,0,3.6-0.1,5.4l2.8,0.1c0.1-1.8,0.1-3.7,0.1-5.5c0-4.2-0.2-8.3-0.3-12.5c-0.2-4.1-0.3-8.3-0.3-12.4c0-1.1,0-2.2,0.1-3.3
			c21.4,0.2,42.8,0.4,62.2,0.6c-0.4,4.6-0.6,9.4-0.6,14.9C361.5,310.5,361.8,316.8,362,323z M332.1,285.9c-0.2-4.7-0.3-9.4-0.3-14
			c0-5.1,0.1-10.2,0.4-15.5c20.4,0.4,40.7,0.7,60.9,1v30C372.8,286.9,352.5,286.4,332.1,285.9z M440.4,290.3c0,11-0.5,22.2-1.4,33.3
			c-4.5,0-9.1,0.1-13.6,0.1c-20,0-40.2-0.2-60.4-0.6c-0.3-6.2-0.5-12.6-0.5-19c0-5.5,0.2-10.3,0.6-14.9c28.9,0.3,52.9,0.6,65.3,0.9
			c4.2,0.1,8.5,0.2,12.8,0.3H440.4z M425,258.1c0-0.1,0-0.1,0-0.2c17.2,0.2,34.5,0.5,51.9,0.8c-0.5,5.2-0.9,10.5-1.2,15.8
			c-0.3,5-0.7,9.9-1.2,14.8c-14.7-0.3-29.4-0.7-43.9-1c-11.4-0.3-22.9-0.5-34.5-0.8v-30c4.7,0.1,9.4,0.1,14.1,0.2
			c2,0,3.9,0.1,5.9,0.1c0,0,0,0,0,0l3,0.1c0,0,0,0,0-0.1c1,0,2,0,3,0c0,0.1,0,0.2,0,0.3L425,258.1z M541.1,209.4
			c-0.4,3.3-0.6,6.7-0.8,9.9c-0.3,4.9-0.7,10-1.5,14.9c-12.3,0.3-25.2,0.5-38.9,0.5c-16.4,0-33-0.2-49.4-0.6
			c0.4-5.5,1.6-11.2,2.7-16.7c0.6-3,1.2-6,1.7-8.9l-3-0.2c-0.5,2.9-1.1,5.9-1.7,8.9c-1.1,5.5-2.2,11.3-2.7,16.9
			c-13.7-0.3-27.3-0.6-40.7-1c-16.2-0.4-32.7-0.9-49.2-1.2v-24.3c19.8,0.2,39.5,0.3,59,0.3c31.3,0.1,63.2,0.3,95.2,0.8
			c0,0.2,0,0.4,0,0.6h3c0-0.2,0-0.4,0-0.5C523.6,209,532.3,209.2,541.1,209.4z M512.5,153.6c7.4,0,14.5,0,21.2,0
			c0,6.3,0,12.9-0.5,19.2c-32.8-0.5-64-0.8-94.4-0.8c0-1.9,0-3.7-0.1-5.6c-0.1-2.2-0.1-4.4-0.1-6.7c0-2.2,0.1-4.2,0.2-6
			c9,0,17.9,0,26.9-0.1C481.3,153.7,496.9,153.6,512.5,153.6z M432.3,79.9c19.4-0.1,39.6-0.3,59.3-0.3c16.3,0,31.1,0.1,45,0.3
			c0,8.2-0.4,16.4-0.9,24.3c-0.2,3.6-0.4,7.3-0.5,11c-26.6-0.7-53.1-1.2-79.1-1.8c-5.6-0.1-11.2-0.2-16.8-0.3
			c-0.1-3.1-0.2-6.5-0.2-10.3c0-3.8,0.1-7.7,0.1-11.5c0.1-3.8,0.1-7.6,0.1-11.4h-3c0,3.8-0.1,7.5-0.1,11.3
			c-0.1,3.8-0.1,7.7-0.1,11.5c0,3.8,0.1,7.2,0.2,10.2c-30.2-0.6-60.8-1.3-91.3-2.3c-0.3-2.7-0.5-5.6-0.5-9.1c0-2,0-4,0.1-6
			c0-2,0.1-4,0.1-6c0-3.7-0.2-6.8-0.5-9.6c10.2,0.1,19.8,0.1,28.8,0.1C392.8,80.2,412.9,80.1,432.3,79.9z M405.7,76.9l0.2,1.5
			c-11,0.1-22,0.1-32.9,0.1c-7,0-29.8,0-57.8-0.1c0.5-6.6,1.4-13.2,2.3-19.6c0.9-6.3,1.7-12.9,2.2-19.5c9.3,0,15.8,0,17.9,0
			c21.7,0,43.8,1.1,66.5,2.7l-2.1,0.1C402.9,53.8,404.3,65,405.7,76.9z M472.4,16.6c0,0.1,0,0.1,0,0.2h3c0,0,0,0,0,0
			c20.6,0.9,41,1.9,61.3,2.8c5.1,0.2,10.1,0.5,15.2,0.7h-2.2c0,6.8,0.5,13.9,0.9,20.7c0.2,3.1,0.4,6.1,0.5,9.1
			c-34.2-0.7-68.9-3.6-102.7-6.4c0,0-0.1,0-0.1,0c-0.1-5.6-0.6-11.2-1-16.6c-0.3-3.8-0.7-7.7-0.9-11.6
			C455.1,15.9,463.7,16.3,472.4,16.6z M443.4,15.4c0.2,4,0.6,8,0.9,11.9c0.5,5.3,0.9,10.8,1,16.2c-34.9-2.9-68-5.5-100.3-5.9
			c-0.2-3.5-0.2-6.9-0.3-10.3c-0.1-5-0.1-10.2-0.7-15.4C377.4,12.8,410.5,14,443.4,15.4z M292.2-16.8c37.7,0.5,71.8,0.9,81.9,1.3
			c-0.9,8.8-2.4,17.7-3.8,26.3c-9.4-0.3-42-0.6-78.4-0.8c0.1-1.5,0.1-3.5,0.1-4.9c0-2.3-0.1-4.6-0.1-7c-0.1-2.3-0.1-4.6-0.1-6.9
			C291.7-11.7,291.9-14.3,292.2-16.8z M202-18c23.7,0.4,56.5,0.8,87.3,1.2c-0.3,2.5-0.4,5.1-0.4,8.1c0,2.3,0.1,4.6,0.1,6.9
			c0.1,2.3,0.1,4.6,0.1,6.9c0,1.4,0,3.4-0.1,4.9c-25.4-0.2-52.4-0.3-74.4-0.5l-0.8-0.1c0,0,0,0,0,0c-4.7,0-9.1-0.1-13.2-0.1
			C200.7,0.3,201.1-8.9,202-18z M109.5-18.4c44.6,0.1,78.6,0.1,81.7,0.2c2.5,0.1,5.2,0.1,7.9,0.2c-0.9,9.1-1.3,18.4-1.3,27.5
			c-2.6,0-5.2,0-7.6-0.1c-3,0-38.3,0-84.1-0.1c0.3-3.2,0.9-6.5,1.5-9.7c0.9-5,1.9-10.2,1.9-15.5C109.6-16.7,109.6-17.6,109.5-18.4z
			 M11.6-18.6c32.2,0,65.7,0.1,95,0.1c0.1,0.9,0.1,1.7,0.1,2.6c0,5.1-0.9,10.2-1.9,15.1c-0.6,3.3-1.2,6.7-1.6,10
			c-10.8,0-22.2,0-33.9,0l-2.6-0.2c0,0.1,0,0.1,0,0.2c-18.2,0-36.9,0-55.3,0V-18.6z M-37.5,9.2c-17.9,0-34.1,0-47.4,0l1.5,0
			c-0.1-2.9-0.2-5.8-0.2-8.8c0-6.5,0.3-13,0.6-19.1c24,0,57,0.1,91.8,0.1V9.2c-15.4,0-30.4,0-44.4,0c0,0,0-0.1,0-0.1L-37.5,9.2z
			 M-84.4,41.7c0-0.5,0-1.1,0-1.6c16.5,0,37.5,0,60.5,0c0,4.4-0.2,8.8-0.4,13.1c-0.2,4.9-0.4,9.9-0.4,14.9c0,3.6,0.1,6.8,0.3,9.9
			c-9.9,0-19.4,0-28.3,0c0,0,0-0.1,0-0.1l-1.4,0.1c-9.9,0-19,0-27.2,0l1.1-0.1c-0.4-3-0.9-6.1-1.4-9.1C-83,59.3-84.4,50.7-84.4,41.7
			z M-91.4,109.4c0-0.8,0.1-1.7,0.1-2.5c0-5.3-0.6-10.7-1.3-16c-0.4-3.8-0.9-7.7-1.1-11.5c10.5,0,23.6,0,38.4,0
			c0.6,5.6,1.6,11.2,2.6,16.6c0.8,4.4,1.7,8.9,2.3,13.4C-66.1,109.4-80.1,109.4-91.4,109.4z M-75.8,150.4
			c1.4-13.3,1.9-26.4,2.3-39.1c14.7,0,32.2,0,51.3,0.1c-0.6,3-0.8,5.7-0.8,8.9c0,5.5,0.6,11.1,1.3,16.5c0.5,4.4,1,9.1,1.2,13.5
			l2.8-0.1c-0.2-4.5-0.7-9.2-1.2-13.7c-0.6-5.4-1.3-10.9-1.3-16.3c0-3.3,0.3-5.9,0.8-8.9c19.8,0,41.4,0,63.5,0.1
			c-0.2,6.4-0.6,12.8-0.9,19.2c-0.4,6.7-0.7,13.4-0.9,20c-35.7,0-71.4-0.1-100.2-0.1c0,0,0-0.1,0-0.1l-1.8,0.1
			C-65.3,150.4-70.7,150.4-75.8,150.4z M-76.3,205.1c-0.5-5.4-1.7-10.6-2.8-15.7c-1.1-4.7-2.1-9.5-2.6-14.4C-65,175-44,175-21,175
			v30h2.8v-30c22,0,45.6,0,69-0.1v30.2C4.8,205.1-42.9,205.1-76.3,205.1z M-34.4,206.9c24.1,0,51,0,77.6,0c-0.3,2.5-0.6,5-0.9,7.5
			c-0.7,5.5-1.5,11.2-1.8,16.9l2.8,0.1c0.3-5.6,1.1-11.2,1.8-16.7c0.3-2.6,0.7-5.2,1-7.7c25.6,0,50.8,0,72.9,0l0,0.2
			c0.5,8,0.9,16.4,1.8,24.3l2.8-0.2c-0.9-7.9-1.4-16.2-1.8-24.2l0,0c38.9,0,67.7,0,70.9,0.1c3.2,0,6.6,0,10.2,0.1
			c-0.2,4.1-0.6,8-0.9,12c-0.3,4.1-0.7,8.2-0.9,12.4c-1.9,0-3.9,0-5.7,0c-9,0-135.8,0-226.1,0c-0.8-4.3-1.4-8.5-2-12.7
			C-33.1,214.9-33.7,210.9-34.4,206.9z M9.4,246.5c-0.2,1.4-0.3,2.4-0.3,2.7c0,0.9,0.1,1.9,0.1,2.8c0,0.7,0.1,1.4,0.1,2.1
			c-25.7,0-50.4,0-71.2,0l2.2-0.2c-0.3-2.6-0.4-5-0.4-7.3l0-3.7c0-2.9-0.1-6.2-0.7-9.6c21,0,45.7,0,71.5,0
			C10.5,238.2,9.8,243.5,9.4,246.5z M95.3,254.1c-14.4,0-29.5,0-44.7,0L48,254c0,0.1,0,0.1,0,0.2c-12,0-24.1,0-35.9,0
			c0-0.7,0-1.4-0.1-2.2c0-0.9-0.1-1.8-0.1-2.7c0-0.3,0.1-1.2,0.3-2.4c0.4-3.1,1.2-8.5,1.3-13.6c27.1,0,55.1,0,80.9,0
			c0.1,1.7,0.2,3.3,0.4,5c0.3,4.1,0.7,8.3,0.7,12.4C95.4,251.9,95.4,253,95.3,254.1z M98.1,254.1c0.1-1.1,0.1-2.3,0.1-3.4
			c0-4.2-0.3-8.5-0.7-12.6c-0.1-1.6-0.3-3.3-0.4-4.9c30.8,0,58,0,76,0c-1.5,9.9-2.5,20.7-2.5,20.8l1.4,0.1
			C153.8,254.2,127.5,254.2,98.1,254.1z M71.1,287.5c25.8,0.1,51.6,0.1,75.4,0.2c1.3,11.3,2.2,22.3,3.1,34.2
			c-22.9,0-50.4-0.1-78.8-0.1c0.1-1,0.1-2.6,0.1-5.1c0-2.9-0.1-5.9-0.1-8.8c-0.1-2.9-0.1-5.8-0.1-8.8
			C70.5,294.6,70.7,290.9,71.1,287.5z M69.3,323.4c0.3,0,0.5,0,0.7-0.1c17.6,0,34.8,0,50.9,0c0,0.9,0.1,1.8,0.1,2.7
			c0,4.8-0.4,9.7-0.8,14.4c-0.3,2.9-0.5,5.8-0.7,8.8c-51.7,0-116.3-0.1-165.5-0.1c-0.1-1-0.1-2.1-0.1-3.1c0-1.9,0.1-3.8,0.1-5.8
			c0.1-1.9,0.1-3.9,0.1-5.8c0-3.1-0.2-7-1.2-11.1c24.5,0,53,0,82,0c1.5,6,1.7,12.2,1.7,18.3c0,2.5,0.1,5,0.2,7.5l2.8-0.1
			c-0.1-2.5-0.2-4.9-0.2-7.4c-0.1-6-0.2-12.2-1.7-18.2C48.3,323.4,58.8,323.4,69.3,323.4L69.3,323.4z M-4,287.3
			c23,0.1,47.6,0.1,72.3,0.2c-0.4,3.4-0.5,7.2-0.5,11.6c0,2.9,0.1,5.9,0.1,8.8c0.1,2.9,0.1,5.8,0.1,8.8c0,1.5,0,3.3,0,4.4h-0.1
			l0,0.7c-23.4,0-47.3,0-70-0.1c-0.2-4.4-0.6-8.8-1-13.1c-0.5-5.6-1.1-11.3-1.1-17C-4.2,290.2-4.1,288.7-4,287.3z M-76.9,321.6
			l1.4,0c-0.4-9.2-0.3-18.8-0.3-28.1l0-6.4c19.1,0.1,42.9,0.1,68.9,0.2c-0.1,1.4-0.2,2.9-0.2,4.3c0,5.8,0.6,11.6,1.1,17.2
			c0.4,4.2,0.8,8.6,1,12.9c-15,0-29.3,0-42.5-0.1c0,0,0-0.1,0-0.1l-0.5,0.1C-58.5,321.7-68.2,321.6-76.9,321.6z M-56.5,377.1
			l-1.4,0.2c-13,0-24.7,0-34.2,0l1.1-0.3c-1.5-4.8-1.9-9.7-2.3-14.5c-0.3-3.8-0.8-7.7-1.6-11.6c17.4,0.1,42.1,0.1,70.2,0.2
			c0,3.5-0.3,7-0.5,10.4c-0.3,3.9-0.5,7.9-0.5,11.9c0,1.3,0,2.6,0.1,4c-10.8,0-21.1,0-30.7,0C-56.4,377.2-56.4,377.2-56.5,377.1z
			 M-53.4,406.2l2-0.5c-2.1-5.9-2.8-12.1-3.5-18c-0.3-2.9-0.7-5.8-1.2-8.8c24.2,0,53.1,0,83,0c0.3,1.8,0.5,3.7,0.5,5.8
			c0,3.6-0.5,7.3-1,10.8c-0.5,3.5-1,7-1,10.6C-2.9,406.2-30.2,406.2-53.4,406.2z M-18.2,447.5c20.2,0,42,0,63.9,0
			c0.2,9.7,1.6,20.4,2.9,30c-22.7,0-45.3-0.1-66.3-0.1c0-3.8-0.1-7.7-0.3-11.5c-0.2-4.3-0.3-8.6-0.3-12.9
			C-18.3,451.3-18.2,449.4-18.2,447.5z M-28.1,479.6c20,0.1,41.7,0.1,63.9,0.2c1.5,15.5,6.1,37.9,6.2,38.1c0,0.2,0,0.5-0.1,0.8
			c-25.5,0-50.6-0.1-73.2-0.1c0.3-4.7,0.9-9.4,1.4-14c0.9-7.6,1.8-15.4,1.8-23.1C-28,480.8-28,480.2-28.1,479.6z M-85.2,518.4
			l1.1-0.3c-4-9.4-5.3-19.4-6.6-29c-0.4-3.2-0.9-6.5-1.4-9.7c15.8,0.1,37.1,0.2,61.2,0.2c0,0.6,0,1.2,0,1.9c0,7.6-0.9,15.4-1.8,22.9
			c-0.5,4.7-1.1,9.5-1.4,14.2C-53.6,518.5-71.1,518.5-85.2,518.4z M-50.8,541.3c-7.7,0-15,0-21.8,0c-0.6-5.1-0.9-9.6-0.9-13.7
			c0-2.6,0.2-5.1,0.4-7.4c18.4,0.1,40.8,0.1,65.1,0.2c-0.5,3.3-1.2,6.6-1.9,9.8c-0.8,3.6-1.6,7.3-2.1,11.1c-12.6,0-24.7,0-36,0
			c0,0,0-0.1,0-0.1h-2.8C-50.8,541.2-50.8,541.3-50.8,541.3z M-48.1,573.1c-0.6-3-0.9-6.2-0.9-9.9c0-3.6,0.3-7.3,0.5-10.9
			c0.2-3.1,0.4-6.2,0.5-9.4c20.8,0,44.5-0.1,69-0.1c-0.1,1.8-0.1,3.7-0.1,5.5c0,3,0.1,6.1,0.2,9.2c0.1,3,0.2,6.1,0.2,9.1
			c0,2,0,4-0.1,6l2.8,0.1c0.1-2,0.1-4,0.1-6c0-3-0.1-6.1-0.2-9.2c-0.1-3-0.2-6.1-0.2-9.1c0-1.8,0-3.7,0.1-5.5
			c25.4,0,51.6-0.1,76.5-0.1c-1.1,7.5-2.1,16.3-2.1,24.9c0,1.6,0,3.2,0.1,4.8l2.8-0.1c-0.1-1.6-0.1-3.1-0.1-4.7
			c0-8.6,1.1-17.4,2.1-24.9c22.4,0,43.6,0,61.9-0.1c-0.1,4.7-0.3,9.4-0.7,14c-0.3,5.1-0.7,10.4-0.7,15.6h2.8
			c0-5.1,0.4-10.4,0.7-15.5c0.3-4.6,0.6-9.4,0.7-14.1c30.2,0,52.2-0.1,58.2-0.1c5.5,0,11.2-0.1,17.1-0.1c-1.7,7.5-2.3,15.2-2.8,22.7
			c-0.2,2.7-0.4,5.4-0.6,8.1c-6.7,0-13.4,0-19.9,0C202.1,573.2,46.5,573.2-48.1,573.1z"/>
	</g>
	<g style="opacity:0.5;">
		<g style="opacity:0.2;">
			<path style="fill:#EDDBA8;" d="M562.9,484.2c-8.9-0.3-17.9-0.5-26.8-0.8c0.2-3.7,0.3-7.4,0.5-11c0.4-7.9,0.9-16.2,0.9-24.3
				c8.8,0.2,17.2,0.4,25.4,0.6V484.2z"/>
			<path style="fill:#EDDBA8;" d="M434.2,153.8c-0.1,1.8-0.2,3.8-0.2,6c0,2.2,0.1,4.5,0.1,6.7c0,1.9,0.1,3.7,0.1,5.6
				c-2.9,0-5.8,0-8.6,0c-31.9,0-62.4,0.2-92.3,0.7c-0.2-3.1-0.3-6.1-0.3-9.2c0-3.5,0.1-7,0.4-10.4l-3-0.1c-0.2,3.5-0.4,7-0.4,10.5
				c0,3.1,0.1,6.2,0.3,9.3c-9.5,0.2-441.1,0.4-450.5,0.6v-21.4c18.5,0.7,129.5,0.3,245.9,0.6c132.4,0.3,271.9,1.3,291.5,1.3
				C422.9,153.8,428.5,153.8,434.2,153.8z"/>
			<path style="fill:#EDDBA8;" d="M340.5,395.3c0,3.4,0.1,6.8,0.3,10.3c-1.5,0-3.1,0-4.6,0c-11.5,0-445,0.3-456.4,0.8v-27.5
				c12.6,0.2,447.4,0.5,460,0.9C340.4,385,340.4,390.3,340.5,395.3z"/>
			<path style="fill:#EDDBA8;" d="M396,206.2c0.5-5.5,0.9-10.6,1.4-15.8c0.5-5.4,1-10.8,1.5-16.6c8.8,0,17.6-0.1,26.6-0.1
				c27.7,0,56.1,0.2,85.7,0.6c0.1,1.3,0.1,2.5,0.1,3.8c0,5.2-0.4,10.5-0.8,15.6c-0.3,4.4-0.6,8.9-0.7,13.3
				c-31.9-0.6-63.7-0.7-94.8-0.8C408.7,206.2,402.3,206.2,396,206.2z"/>
			<path style="fill:#EDDBA8;" d="M327.5,271.9c0,4.6,0.1,9.2,0.3,13.9c-8.6-0.2-439.4-0.5-448-0.7v-29.2c8.6,0.2,439.4,0.4,448,0.6
				C327.6,261.7,327.5,266.7,327.5,271.9z"/>
			<path style="fill:#EDDBA8;" d="M512.7,322.5c1.2-4.7,2-9.5,2.8-14.1c0.9-5.3,1.7-10.7,3.2-15.9l-2.9-0.3
				c-1.5,5.3-2.4,10.7-3.2,16c-0.8,4.7-1.6,9.6-2.8,14.4c-23.2,0.6-46.3,0.9-69.4,1c0.9-11.1,1.4-22.2,1.4-33.3
				c40,0.9,80.8,1.9,121.3,3.1v27.4C546.2,321.5,529.4,322,512.7,322.5z"/>
			<path style="fill:#EDDBA8;" d="M474.9,258.7c-0.5,5.2-0.9,10.5-1.2,15.8c-0.3,5-0.7,9.9-1.2,14.8c-14.7-0.3-29.3-0.7-43.7-1
				c-11.4-0.3-22.8-0.5-34.3-0.8v-30c4.7,0.1,9.4,0.1,14,0.2c2,0,3.9,0.1,5.9,0.1c0,0,0,0,0,0l3,0.1c0,0,0,0,0-0.1c1,0,2,0,3,0
				c0,0.1,0,0.2,0,0.3l3-0.1c0-0.1,0-0.1,0-0.2C440.4,258.1,457.6,258.4,474.9,258.7z"/>
			<path style="fill:#EDDBA8;" d="M562.9,259.1c-12.7-0.4-25.5-0.8-38.3-1.1c0-1.1-0.1-2.2-0.1-3.3c0-3,0.2-6.2,0.3-9.2
				c0.2-3,0.3-6.1,0.3-9.1h-3c0,3-0.2,6.1-0.3,9.1c-0.2,3-0.3,6.2-0.3,9.3c0,1.1,0.1,2.1,0.1,3.2c-33-0.8-65.9-1.3-98.4-1.8
				c0-0.2,0-0.3,0-0.5c0-4.6,0.8-9.4,1.6-14c0.4-2.1,0.7-4.2,1-6.2c23.9,0.6,48.2,1.1,72.3,1.1c23.5,0,45-0.5,64.9-1.5V259.1z"/>
			<path style="fill:#EDDBA8;" d="M510.4,521.6c7.4,0,14.4,0,21.2,0c0,6.3,0,12.9-0.4,19.2c-32.6-0.5-63.8-0.8-94-0.8
				c0-1.9,0-3.7-0.1-5.6c-0.1-2.2-0.1-4.4-0.1-6.7c0-2.2,0.1-4.2,0.2-6c8.9,0,17.8,0,26.8-0.1C479.4,521.7,494.9,521.6,510.4,521.6z
				"/>
			<path style="fill:#EDDBA8;" d="M414.9,576c31.2,0.1,62.9,0.3,94.8,0.8c0,0.2,0,0.4,0,0.6h3c0-0.2,0-0.4,0-0.5
				c8.8,0.2,17.5,0.3,26.3,0.6c-0.1,0.6-0.1,1.2-0.2,1.7h-86.2c0.2-0.9,0.3-1.7,0.5-2.6l-3-0.2c-0.1,0.9-0.3,1.8-0.5,2.7h-93.4v-3.5
				C375.9,575.9,395.5,575.9,414.9,576z"/>
			<path style="fill:#EDDBA8;" d="M489.3,484c-1.4,8.9-2.1,18.4-2.1,28.3c0,2.6,0.1,5.1,0.2,7.7c-7.8,0-15.6,0-23.4,0.1
				c-15.5,0.1-31.1,0.1-46.6,0.1c-11.6,0-23.4,0-35.3-0.1c-0.5-6.6-1-12.8-1.5-19c-0.5-6.3-1-12.6-1.5-19.3l-3,0.1
				c0.5,6.7,1,13,1.5,19.3c0.5,6.2,1,12.4,1.5,18.9c-25.1-0.2-473.1-0.7-499.2-1.8v-39.1c27.2,1.1,176,0.4,315.8,1.1
				c121,0.6,235.4,2.6,258.6,3.1C465.8,483.5,477.5,483.8,489.3,484z"/>
			<path style="fill:#EDDBA8;" d="M562.9,116.1c-8.9-0.3-17.9-0.5-26.8-0.8c0.2-3.7,0.3-7.4,0.5-11c0.4-7.9,0.9-16.2,0.9-24.3
				c8.8,0.2,17.2,0.4,25.4,0.6V116.1z"/>
			<path style="fill:#EDDBA8;" d="M371.5,80.2c19.7,0,39.8-0.1,59.1-0.3c19.4-0.1,39.4-0.3,59.1-0.3c16.2,0,31,0.1,44.8,0.3
				c0,8.2-0.4,16.4-0.9,24.3c-0.2,3.6-0.4,7.3-0.5,11c-26.5-0.7-52.9-1.2-78.8-1.8c-5.6-0.1-11.1-0.2-16.7-0.3
				c-0.1-3.1-0.2-6.5-0.2-10.3c0-3.8,0.1-7.7,0.1-11.5c0.1-3.8,0.1-7.6,0.1-11.4h-3c0,3.8-0.1,7.5-0.1,11.3
				c-0.1,3.8-0.1,7.7-0.1,11.5c0,3.8,0.1,7.2,0.2,10.2c-30.1-0.6-60.5-1.3-91-2.3c-0.3-2.7-0.5-5.6-0.5-9.1c0-2,0-4,0.1-6
				c0-2,0.1-4,0.1-6c0-3.7-0.2-6.8-0.5-9.6C352.9,80.2,362.6,80.2,371.5,80.2z"/>
			<path style="fill:#EDDBA8;" d="M371.5,448.3c19.7,0,39.8-0.1,59.1-0.3c19.4-0.1,39.4-0.3,59.1-0.3c16.2,0,31,0.1,44.8,0.3
				c0,8.2-0.4,16.4-0.9,24.3c-0.2,3.6-0.4,7.3-0.5,11c-26.5-0.7-52.9-1.2-78.8-1.8c-5.6-0.1-11.1-0.2-16.7-0.3
				c-0.1-3.1-0.2-6.5-0.2-10.3c0-3.8,0.1-7.7,0.1-11.5c0.1-3.8,0.1-7.6,0.1-11.4h-3c0,3.8-0.1,7.5-0.1,11.3
				c-0.1,3.8-0.1,7.7-0.1,11.5c0,3.8,0.1,7.2,0.2,10.2c-30.1-0.6-60.5-1.3-91-2.3c-0.3-2.7-0.5-5.6-0.5-9.1c0-2,0-4,0.1-6
				c0-2,0.1-4,0.1-6c0-3.7-0.2-6.8-0.5-9.6C352.9,448.2,362.6,448.3,371.5,448.3z"/>
			<path style="fill:#EDDBA8;" d="M394.4,558.3c-0.5,5.2-0.9,10.3-1.4,15.8c-24.8-0.1-50-0.3-75.1-0.7c-0.5-5.2-1-10.1-1.5-15
				c-0.5-5-1-9.9-1.5-15.3l-3,0.1c0.5,5.4,1,10.4,1.5,15.3c0.5,4.8,1,9.6,1.4,14.8c-4.3-0.1-430.8-0.2-435.1-0.3v-30
				c30.6-0.7,483.9-1.1,516.1-1.3C395.4,547.6,394.9,553,394.4,558.3z"/>
			<path style="fill:#EDDBA8;" d="M340.5,27.3c0,3.4,0.1,6.8,0.3,10.3c-1.5,0-3.1,0-4.6,0c-11.5,0-445,0.3-456.4,0.8V10.9
				c12.6,0.2,447.4,0.5,460,0.9C340.4,17,340.4,22.2,340.5,27.3z"/>
			<path style="fill:#EDDBA8;" d="M549.7,20.3h-2.2c0,6.8,0.5,13.9,0.9,20.7c0.2,3.1,0.4,6.1,0.5,9.1c-34.1-0.7-68.6-3.6-102.2-6.4
				c0,0-0.1,0-0.1,0c-0.1-5.6-0.6-11.2-1-16.6c-0.3-3.8-0.7-7.7-0.9-11.6c8.6,0.4,17.2,0.7,25.8,1.1c0,0.1,0,0.1,0,0.2h3
				c0,0,0,0,0,0c20.5,0.9,40.9,1.9,61.1,2.8C539.6,19.8,544.6,20,549.7,20.3z"/>
			<path style="fill:#EDDBA8;" d="M511.2,542.4c0.1,1.3,0.1,2.5,0.1,3.8c0,5.2-0.4,10.5-0.8,15.6c-0.3,4.4-0.6,8.9-0.7,13.3
				c-31.9-0.6-63.7-0.7-94.8-0.8c-6.3,0-12.6,0-18.9-0.1c0.5-5.5,0.9-10.6,1.4-15.8c0.5-5.4,1-10.8,1.5-16.6
				c8.8,0,17.6-0.1,26.6-0.1C453.2,541.8,481.6,542,511.2,542.4z"/>
			<path style="fill:#EDDBA8;" d="M470.5,384.7c0,0.1,0,0.1,0,0.2h3c0,0,0,0,0,0c20.5,0.9,40.9,1.9,61.1,2.8
				c5,0.2,10.1,0.5,15.2,0.7h-2.2c0,6.8,0.5,13.9,0.9,20.7c0.2,3.1,0.4,6.1,0.5,9.1c-34.1-0.7-68.6-3.6-102.2-6.4c0,0-0.1,0-0.1,0
				c-0.1-5.6-0.6-11.2-1-16.6c-0.3-3.8-0.7-7.7-0.9-11.6C453.3,383.9,461.9,384.3,470.5,384.7z"/>
			<path style="fill:#EDDBA8;" d="M534.5,153.7c10.1,0,19.4,0.1,28.4,0.2v19.5c-9.7-0.2-19.3-0.3-28.8-0.5
				C534.5,166.6,534.5,160,534.5,153.7z"/>
			<path style="fill:#EDDBA8;" d="M534.5,521.7c10.1,0,19.4,0.1,28.4,0.2v19.5c-9.7-0.2-19.3-0.3-28.8-0.5
				C534.5,534.6,534.5,528.1,534.5,521.7z"/>
			<path style="fill:#EDDBA8;" d="M562.9-9.8v28.9c-9.4-0.4-18.8-0.9-28.1-1.3c-20.3-0.9-40.7-1.9-61.3-2.8
				c0.1-4.9,0.7-9.8,1.2-14.6c0.5-4,1-8.2,1.2-12.3l-3-0.1c-0.2,4.1-0.7,8.2-1.2,12.3c-0.6,4.8-1.1,9.7-1.2,14.6
				c-32.7-1.5-65.6-2.8-98.7-3.9c1.4-8.6,2.8-17.5,3.7-26.3c51.2,2,102.5,3.4,152.7,4.6C539.8-10.4,551.4-10.1,562.9-9.8z"/>
			<path style="fill:#EDDBA8;" d="M489.3,116c-1.4,8.9-2.1,18.4-2.1,28.3c0,2.6,0.1,5.1,0.2,7.7c-7.8,0-15.6,0-23.4,0.1
				c-15.5,0.1-31.1,0.1-46.6,0.1c-11.6,0-23.4,0-35.3-0.1c-0.5-6.6-1-12.8-1.5-19c-0.5-6.3-1-12.6-1.5-19.3l-3,0.1
				c0.5,6.7,1,13,1.5,19.3c0.5,6.2,1,12.4,1.5,18.9c-25.1-0.2-473.1-0.7-499.2-1.8V111c65.4-1,262.3-0.7,409,0.9
				c80.2,0.8,147.7,3,165.4,3.3C465.8,115.5,477.5,115.7,489.3,116z"/>
			<path style="fill:#EDDBA8;" d="M-120.2,408.1c11.4-0.5,444.9-0.8,456.4-0.8c21.6,0,43.6,1.1,66.3,2.7l-2,0.1
				c0.9,11.7,2.3,23,3.7,34.8l0.2,1.5c-10.9,0.1-21.9,0.1-32.8,0.1c-20.3,0-466.3-0.1-491.7-0.9V408.1z"/>
			<path style="fill:#EDDBA8;" d="M349.9-26.9c-0.4,2.9-0.7,5.8-1.1,8.7c-15.6-0.7-453.5-1.5-469-2.4v-21.8h471.7
				C351.3-37.3,350.6-32.1,349.9-26.9z"/>
			<path style="fill:#EDDBA8;" d="M528.4-12.4c-10.1-0.3-20.3-0.5-30.4-0.8c0.7-4.8,1-9.5,1.3-14.1c0.3-5,0.6-10,1.4-15.2h62.2v30.9
				C551.4-11.8,539.9-12.1,528.4-12.4z"/>
			<path style="fill:#EDDBA8;" d="M541.8,579.2c0.1-0.6,0.1-1.1,0.2-1.7c7,0.2,14,0.4,21,0.7v1H541.8z"/>
			<path style="fill:#EDDBA8;" d="M-120.2,40.1c11.4-0.5,444.9-0.8,456.4-0.8c21.6,0,43.6,1.1,66.3,2.7l-2,0.1
				c0.9,11.7,2.3,23,3.7,34.8l0.2,1.5c-10.9,0.1-21.9,0.1-32.8,0.1c-20.3,0-466.3-0.1-491.7-0.9V40.1z"/>
			<path style="fill:#EDDBA8;" d="M-120.2,323.2c7.9,0.3,438.1,0.5,446.1,0.7c0,8.9,0.5,17.3,0.9,26.3c-8.3-0.4-438.7-0.8-447-1.2
				V323.2z"/>
			<path style="fill:#EDDBA8;" d="M329.8,350.4c25.7,1.1,51.5,1.9,77.2,2.5c0.3-3.6,0.6-7.1,1-10.6c0.6-5.4,1.3-11,1.3-16.6h3
				c0,5.7-0.7,11.3-1.3,16.8c-0.4,3.4-0.8,7-1,10.5c39.7,1,79.4,1.7,118.4,2.6c11.5,0.3,23,0.6,34.5,0.9v-33.9
				c-3.5,0.1-7,0.3-10.5,0.4c0,1.1,0.1,2.2,0.1,3.3c0,4.3-0.3,8.7-0.6,13c-0.3,4.2-0.6,8.6-0.6,12.9c0,1.2,0,2.5,0.1,3.7l-3,0
				c-0.1-1.2-0.1-2.5-0.1-3.8c0-4.3,0.3-8.7,0.6-13c0.3-4.2,0.6-8.6,0.6-12.9c0-1,0-2.1-0.1-3.1c-12.4,0.4-24.8,0.8-37.3,1.1
				c0,0,0,0.1,0,0.1l-1.2-0.1c-29.2,0.7-58.3,1.1-87.2,1.1c-20.2,0-40.6-0.2-61-0.6l-2.1,0c0,0,0,0,0-0.1
				c-10.6-0.2-21.2-0.4-31.8-0.7C328.9,332.9,329.3,341.4,329.8,350.4z M477.9,354l0.2-1.2c1.4-9.2,2.9-18.7,5.3-27.9l2.9,0.3
				c-2.4,9.1-3.8,18.6-5.3,27.8l-0.2,1.2L477.9,354z"/>
			<path style="fill:#EDDBA8;" d="M322.4,233.3c-1.4,5.4-1.5,10.9-1.7,16.2c0,1.7-0.1,3.3-0.2,5c-6.2-0.1-434.5-0.3-440.7-0.4v-20.8
				c3.4,0,429.1,0,432.6,0C315.7,233.2,319,233.3,322.4,233.3z"/>
			<path style="fill:#EDDBA8;" d="M551.9,418.2c-0.2-3.1-0.3-6.1-0.5-9.2c-0.4-6.8-0.9-13.8-0.9-20.6c4.2,0.2,8.3,0.4,12.5,0.6v29.4
				C559.2,418.3,555.6,418.2,551.9,418.2z"/>
			<path style="fill:#EDDBA8;" d="M375.4,353.8c10.5,0.3,21,0.6,31.5,0.9c0,0.1,0,0.2,0,0.3l3,0.1c0-0.1,0-0.2,0-0.3
				c21.1,0.5,42.1,1,63.1,1.4c-0.2,4.1-0.7,8.2-1.2,12.2c-0.6,4.8-1.1,9.7-1.2,14.6c-32.7-1.5-65.6-2.8-98.7-3.9
				C373.2,370.7,374.5,362.2,375.4,353.8z"/>
			<path style="fill:#EDDBA8;" d="M562.9,208.4c-16.7-0.6-33.4-1-50.1-1.3c0.1-4.4,0.4-8.9,0.7-13.3c0.4-5.2,0.8-10.5,0.8-15.7
				c0-1.3,0-2.5-0.1-3.8c15.9,0.2,32.1,0.5,48.7,0.8V208.4z"/>
			<path style="fill:#EDDBA8;" d="M353.2,231.9c-13.6-0.3-27.3-0.4-40.8-0.4c-3.5,0-429.2,0-432.6,0v-24.7
				c17.1,0.4,456.4,0.6,473.4,0.8V231.9z"/>
			<path style="fill:#EDDBA8;" d="M562.9,233.3c-7.5,0.4-15.3,0.7-23.2,0.9c0.8-4.9,1.1-9.9,1.5-14.8c0.2-3.3,0.5-6.6,0.8-9.9
				c7,0.2,14,0.4,21,0.7V233.3z"/>
		</g>
		<g style="opacity:0.1;">
			<path style="fill:#EDDBA8;" d="M226.9,62.1c0.4-7.4,0.8-15.1,2-22.5c30.2-0.1,64.9-0.2,86.7-0.3c-0.5,6.5-1.3,12.9-2.2,19.2
				c-0.9,6.5-1.8,13.2-2.3,19.9c-27.1-0.1-58.6-0.1-85.3-0.3C226.3,72.8,226.6,67.3,226.9,62.1z"/>
			<path style="fill:#EDDBA8;" d="M161.4,109.7c0.3-1.4,0.4-4.2,0.4-9.6c0-2,0-4-0.1-6c0-2-0.1-4-0.1-6c0-3.3,0.2-6,0.4-8.5
				c28.2,0,48.5,0,53.8,0.1c10.1,0,21.2,0.1,32.4,0.1c-0.1,5.7-0.6,11.3-1.2,16.8c-0.4,4.4-0.9,8.9-1.1,13.4
				c-11-0.1-21.7-0.1-31.6-0.2C209.3,109.8,189.3,109.7,161.4,109.7z"/>
			<path style="fill:#EDDBA8;" d="M106.3-18.4c0.1,0.9,0.1,1.7,0.1,2.6c0,5.1-0.9,10.2-1.9,15.1c-0.6,3.3-1.2,6.7-1.6,10
				c-10.8,0-22.1,0-33.7,0l-2.6-0.2c0,0.1,0,0.1,0,0.2c-18.1,0-36.8,0-55.1,0v-27.8C43.7-18.5,77.1-18.5,106.3-18.4z"/>
			<path style="fill:#EDDBA8;" d="M213.1,9.5C213.1,9.5,213.1,9.5,213.1,9.5c-4.6,0-9.1,0-13.2,0c0-9.1,0.5-18.3,1.3-27.5
				c23.6,0.4,56.3,0.8,87,1.2c-0.3,2.5-0.4,5.1-0.4,8.1c0,2.3,0.1,4.6,0.1,6.9c0.1,2.3,0.1,4.6,0.1,6.9c0,1.4,0,3.4-0.1,4.9
				c-25.3-0.2-52.1-0.3-74.1-0.5L213.1,9.5z"/>
			<path style="fill:#EDDBA8;" d="M226.3,37.7c0,0,0,0.1,0,0.1c-5,0-9.9,0-14.5,0.1c0.5-4.6,1.3-9.3,2-13.9
				c0.7-4.2,1.4-8.6,1.9-12.9c16.2,0.1,34.7,0.1,52.5,0.2c0,0.7,0.1,1.4,0.1,2.1c0,4.7-0.5,9.7-1,14.4c-0.3,3.3-0.7,6.6-0.9,9.9
				c-13,0-26.4,0.1-38.9,0.2L226.3,37.7z"/>
			<path style="fill:#EDDBA8;" d="M254,285.5c-8.5,0-30.9-0.1-60.7-0.1c-0.1-1.9-0.1-3.8-0.1-5.6c0-4.1,0.2-8.3,0.3-12.4
				c0.1-3.8,0.3-7.6,0.3-11.4c1.7,0,2.9,0,3.5,0c22.8,0.1,55.9,0.1,83.1,0.2v29.4C272,285.5,263.1,285.5,254,285.5z"/>
			<path style="fill:#EDDBA8;" d="M204.1,219.2c0.3-4,0.7-8,0.9-12.1c22.1,0.1,51,0.2,77.6,0.3c-0.5,7.9-1.4,16.1-4.3,24.1
				c-22.8,0-52.5,0-75.1,0C203.5,227.3,203.8,223.3,204.1,219.2z"/>
			<path style="fill:#EDDBA8;" d="M191,322c0-0.1,0-0.1,0-0.2l-2.8,0.2c-9.7,0-22.1,0-36.3-0.1c-0.9-12-1.8-22.9-3-34.2
				c25.4,0.1,48.5,0.1,66.8,0.2c0.9,4.1,1.4,8.5,1.4,13.9c0,3.6-0.2,7.2-0.4,10.7c-0.2,3.1-0.3,6.4-0.3,9.6c-2.4,0-4.7,0-6.9-0.1
				C207,322,200.5,322,191,322z"/>
			<path style="fill:#EDDBA8;" d="M205.5,173.2c-4.3,0-23.5,0-50.7,0c1.7-6.9,2.6-13.9,3.5-20.7c26.1,0.1,44.2,0.1,47.8,0.2
				c9.6,0.1,20.3,0.3,31.7,0.4c0.2,1.6,0.4,3.2,0.4,5.1c0,2.7-0.3,5.5-0.5,8.2c-0.2,2.2-0.4,4.5-0.4,6.8c-5.6,0-11.2,0-16.5,0
				c0,0,0-0.1,0-0.1l-2.8,0.1c0,0,0,0,0,0C213.5,173.2,209.4,173.2,205.5,173.2z"/>
			<path style="fill:#EDDBA8;" d="M181,38.1c0-6.1,0.4-12.4,0.9-18.4c0.2-2.9,0.4-5.8,0.5-8.7c3.9,0,6.4,0,7.1,0
				c6.6,0,14.6,0.1,23.3,0.1c-0.5,4.2-1.2,8.5-1.9,12.6c-0.8,4.7-1.6,9.5-2.1,14.2c-6,0-11.6,0.1-16.5,0.1
				C191.3,38.1,187.2,38.1,181,38.1z"/>
			<path style="fill:#EDDBA8;" d="M118.4,77.9l2.8-0.2c-1.4-12.8-1.4-25.5-1.4-37.8c39.2,0,68.2-0.1,71.5-0.1
				c9.6-0.1,21.6-0.1,34.6-0.2c-1.2,7.4-1.6,15-1.9,22.3c-0.3,5.3-0.5,10.7-1.1,16.1l0.7,0.1c-2.4,0-4.7,0-7,0
				C205.9,78,125.8,78,46.4,77.9c-0.5-7.3-0.8-14.7-0.8-22.6c0-4.7,0.1-9.8,0.3-15.3c24.9,0,49.4,0,71.1,0
				C117.1,52.2,117.1,65,118.4,77.9z"/>
			<path style="fill:#EDDBA8;" d="M177.7-34.7c0.3,4.7,0.7,9.6,1.5,14.6c-18.5,0-56-0.1-98.3-0.1c0.4-7.3,0.7-14.8,0.8-22.1H177
				C177.3-39.9,177.5-37.3,177.7-34.7z"/>
			<path style="fill:#EDDBA8;" d="M28,79.5c-0.1,1.4-0.3,3.5-0.4,7.1c-0.4,7.9-1,19.7-1.4,22.9l0,0c-26.1,0-51.4-0.1-73.5-0.1
				c-0.6-4.7-1.5-9.3-2.4-13.8c-1-5.3-2-10.7-2.6-16.2C-28.5,79.5-0.6,79.5,28,79.5z"/>
			<path style="fill:#EDDBA8;" d="M120.9,140.2c0-3.5,0.1-6.9,0.1-10.4c0-6.1-0.1-11.7-0.5-18.4c31.8,0,62,0,87.2,0.1
				c-1.4,7.3-1.8,14.9-2.1,22.2c-0.3,5.6-0.6,11.4-1.3,17.2c-6.2,0-23.8-0.1-47.9-0.1l-0.7-0.1l0,0.1c-10.5,0-22.3,0-34.8-0.1
				C120.8,147.1,120.8,143.7,120.9,140.2z"/>
			<path style="fill:#EDDBA8;" d="M151.9,173.2c-22.1,0-49.1,0-77.4,0c0.2-2.9,0.6-6,0.9-8.9c0.5-3.9,1-8,1-11.9
				c29.1,0,56.7,0.1,78.9,0.1C154.6,159.4,153.6,166.4,151.9,173.2z"/>
			<path style="fill:#EDDBA8;" d="M132.8,174.8c-1.4,4.9-1.6,9.9-1.9,14.8c-0.2,5.1-0.5,10.4-2.1,15.5l0.1,0c-22.2,0-48.5,0-75.5,0
				v-30.2C81.5,174.9,109.1,174.8,132.8,174.8z"/>
			<path style="fill:#EDDBA8;" d="M181.9,406c0-0.9-0.1-2-0.1-2.5c0-3.6,1-7.3,1.9-10.8c0.9-3.6,1.9-7.4,1.9-11.2
				c0-0.8-0.1-1.6-0.2-2.3c16.7,0,28.4,0,32.4,0c16.5,0.1,35.3,0.1,53.1,0.2c0,0.8-0.1,1.7-0.1,2.5c0,2.3,0.1,4.6,0.1,7
				c0.1,2.3,0.1,4.7,0.1,7c0,3.3-0.1,6.9-0.4,9.9c-16.8,0.1-34.7,0.1-50.6,0.2C215.6,406,201.6,406,181.9,406z"/>
			<path style="fill:#EDDBA8;" d="M12,252c0-0.9-0.1-1.8-0.1-2.7c0-0.3,0.1-1.2,0.3-2.4c0.4-3.1,1.2-8.5,1.3-13.6
				c27,0,54.9,0,80.5,0c0.1,1.7,0.2,3.3,0.4,5c0.3,4.1,0.7,8.3,0.7,12.4c0,1.2,0,2.3-0.1,3.4c-14.3,0-29.3,0-44.5,0l-2.6-0.2
				c0,0.1,0,0.1,0,0.2c-12,0-24,0-35.8,0C12,253.4,12,252.7,12,252z"/>
			<path style="fill:#EDDBA8;" d="M10.6,233.2c-0.1,4.9-0.8,10.3-1.3,13.3c-0.2,1.4-0.3,2.4-0.3,2.7c0,0.9,0.1,1.9,0.1,2.8
				c0,0.7,0.1,1.4,0.1,2.1c-25.6,0-50.2,0-70.9,0l2.2-0.2c-0.3-2.6-0.4-5-0.4-7.3l0-3.7c0-2.9-0.1-6.2-0.7-9.6
				C-39.7,233.2-15,233.2,10.6,233.2z"/>
			<path style="fill:#EDDBA8;" d="M-7,291.6c0,5.8,0.6,11.6,1.1,17.2c0.4,4.2,0.8,8.6,1,12.9c-14.9,0-29.2,0-42.4-0.1
				c0,0,0-0.1,0-0.1l-0.5,0.1c-10.4,0-20.1,0-28.7,0l1.4,0c-0.4-9.2-0.3-18.8-0.3-28.1l0-6.4c19,0.1,42.7,0.1,68.7,0.2
				C-6.9,288.7-7,290.2-7,291.6z"/>
			<path style="fill:#EDDBA8;" d="M-94.5,350.9c17.3,0.1,42,0.1,69.9,0.2c0,3.5-0.3,7-0.5,10.4c-0.3,3.9-0.5,7.9-0.5,11.9
				c0,1.3,0,2.6,0.1,4c-10.8,0-21.1,0-30.6,0c0-0.1,0-0.1,0-0.2l-1.4,0.2c-13,0-24.6,0-34.1,0l1.1-0.3c-1.5-4.8-1.9-9.7-2.3-14.5
				C-93.2,358.7-93.7,354.8-94.5,350.9z"/>
			<path style="fill:#EDDBA8;" d="M-20.9,175v30h2.8v-30c21.9,0,45.4,0,68.7-0.1v30.2c-45.8,0-93.4,0-126.6,0
				c-0.5-5.4-1.7-10.6-2.8-15.7c-1.1-4.7-2.1-9.5-2.6-14.4C-64.7,175-43.8,175-20.9,175z"/>
			<path style="fill:#EDDBA8;" d="M213.1,349.4c-0.1,0-0.2,0-0.4,0c-2.3,0-4.6,0-6.8,0c-2,0-7,0-14.4,0c-0.1-2.5-0.2-5-0.2-7.5
				l0-7.1c0-3.6-0.1-7.4-0.4-11.4c9.6,0,16.2,0,18.7,0c14,0.1,30.1,0.1,45.8,0.2c0.3,2.3,0.5,4.6,0.5,7.1c0,6.7-1.1,13.3-2.2,18.9
				c-13.8-0.1-27.8-0.2-40.3-0.2C213.4,349.4,213.3,349.4,213.1,349.4z"/>
			<path style="fill:#EDDBA8;" d="M-24.1,53.1c-0.2,4.9-0.4,9.9-0.4,14.9c0,3.6,0.1,6.8,0.3,9.9c-9.9,0-19.3,0-28.2,0
				c0,0,0-0.1,0-0.1l-1.4,0.1c-9.9,0-18.9,0-27.1,0l1.1-0.1c-0.4-3-0.9-6.1-1.4-9.1c-1.5-9.2-2.9-17.9-2.9-26.9c0-0.5,0-1.1,0-1.6
				c16.4,0,37.3,0,60.2,0C-23.8,44.4-23.9,48.8-24.1,53.1z"/>
			<path style="fill:#EDDBA8;" d="M-14.5-30.2c0,3.2,0.1,6.5,0.3,9.8c-4.5,0-8.8,0-13.2,0c0.2-3.7,0.7-7.6,1.1-11.5
				c0.4-3.5,0.8-7.1,1.1-10.6H-15C-14.7-38.3-14.6-34.2-14.5-30.2z"/>
			<path style="fill:#EDDBA8;" d="M-73.1,111.3c14.7,0,32,0,51.1,0.1c-0.6,3-0.8,5.7-0.8,8.9c0,5.5,0.6,11.1,1.3,16.5
				c0.5,4.4,1,9.1,1.2,13.5l2.8-0.1c-0.2-4.5-0.7-9.2-1.2-13.7c-0.6-5.4-1.3-10.9-1.3-16.3c0-3.3,0.3-5.9,0.8-8.9
				c19.7,0,41.2,0,63.2,0.1c-0.2,6.4-0.6,12.8-0.9,19.2c-0.4,6.7-0.7,13.4-0.9,20c-35.6,0-71.1-0.1-99.8-0.1c0,0,0-0.1,0-0.1
				l-1.8,0.1c-5.6,0-11,0-16,0C-74.1,137-73.6,123.9-73.1,111.3z"/>
			<path style="fill:#EDDBA8;" d="M224.4,477.9c-3.3,0-10.7,0-21.3-0.1c-0.1-1.2-0.2-2.3-0.2-3.5c0-5.3,0.9-10.7,1.9-15.9
				c0.6-3.5,1.2-7.1,1.6-10.7c8.1,0,13.8,0,16.5,0c19.6,0.1,41.8,0.1,61.6,0.2c-0.2,3.7-0.6,7.5-0.9,11.1c-0.6,5.4-1.1,11-1.1,16.5
				c0,0.9,0,1.8,0.1,2.7C263.7,478.1,242.9,478,224.4,477.9z"/>
			<path style="fill:#EDDBA8;" d="M188.2,323.5c0.3,3.9,0.4,7.8,0.4,11.4l0,7.1c0,2.5,0,5,0.2,7.5c-15.3,0-39.1-0.1-67-0.1
				c0.2-2.9,0.4-5.7,0.6-8.6c0.4-4.8,0.8-9.7,0.8-14.6c0-0.9,0-1.8-0.1-2.7C149.5,323.4,172.4,323.4,188.2,323.5z"/>
			<path style="fill:#EDDBA8;" d="M-51.1,405.7c-2-5.9-2.8-12.1-3.5-18c-0.3-2.9-0.7-5.8-1.2-8.8c24.1,0,52.9,0,82.6,0
				c0.3,1.8,0.5,3.7,0.5,5.8c0,3.6-0.5,7.3-1,10.8c-0.5,3.5-1,7-1,10.6c-28.1,0-55.3,0.1-78.4,0.1L-51.1,405.7z"/>
			<path style="fill:#EDDBA8;" d="M293.7,369.9c0.9-4,1.8-8.1,1.8-12.3c0-1.8-0.2-3.4-0.6-5c3.4,0,6.7,0.1,10,0.1c0,0.5,0,1,0,1.5
				c0,1,0.1,2,0.1,3.1c0,1-0.2,2.9-0.5,5.3c-0.4,4.3-1.1,10.1-1.1,15.6c-3.7,0-7.4-0.1-11.2-0.1
				C292.5,375.4,293.1,372.6,293.7,369.9z"/>
			<path style="fill:#EDDBA8;" d="M197.1,541.2l0.1-1.4c0.4-6.2,0.8-12.6,0.8-18.9c14.5,0,24.6,0.1,28.3,0.1
				c15,0.2,31.6,0.3,48.6,0.4c0.2,1,0.3,2,0.3,3.1c0,3-0.6,6.2-1.2,9.2c-0.4,2.4-0.9,4.9-1.1,7.3c-8.9,0-18.2,0-27.4,0.1
				c0,0,0,0,0-0.1l-2.8-0.5c-0.1,0.2-0.1,0.4-0.1,0.6c-6.9,0-13.6,0-20.1,0.1C218.8,541.2,209.8,541.2,197.1,541.2z"/>
			<path style="fill:#EDDBA8;" d="M-76,527.7c0,4.1,0.3,8.6,0.9,13.7c-26.8,0-44.3,0-45.1,0.1V520c2.4,0.1,19.3,0.2,44.6,0.3
				C-75.8,522.6-76,525.1-76,527.7z"/>
			<path style="fill:#EDDBA8;" d="M-85.3,449.9c0,3.4-0.2,6.9-0.4,10.2c-0.2,3.4-0.4,6.8-0.4,10.3c0,2.4,0.1,4.6,0.3,6.6l2.8-0.2
				c-0.2-2-0.3-4.1-0.3-6.4c0-3.4,0.2-6.9,0.4-10.2c0.2-3.4,0.4-6.9,0.4-10.4c0-0.8,0-1.6-0.1-2.5c16.8,0,38.1,0,61.6,0.1
				c-0.1,1.9-0.1,3.7-0.1,5.6c0,4.3,0.2,8.6,0.3,12.9c0.1,3.8,0.2,7.6,0.3,11.5c-55.1-0.1-98-0.1-99.8-0.2v-29.9
				c0.9,0,14.1,0.1,34.9,0.1C-85.3,448.3-85.3,449.1-85.3,449.9z"/>
			<path style="fill:#EDDBA8;" d="M-48.5,334.4c0,1.9-0.1,3.9-0.1,5.8c-0.1,1.9-0.1,3.9-0.1,5.8c0,1.1,0,2.1,0.1,3.1
				c-41.1,0-70.8-0.1-71.5-0.1v-25.8c0.8,0,29.9,0.1,70.5,0.1C-48.6,327.4-48.5,331.3-48.5,334.4z"/>
			<path style="fill:#EDDBA8;" d="M-51,552.2c-0.3,3.6-0.5,7.3-0.5,11c0,3.6,0.3,6.9,0.9,9.9c-40.4,0-69,0-69.5,0v-30
				c2.6-0.1,30.6-0.1,69.6-0.2C-50.6,546.1-50.8,549.2-51,552.2z"/>
			<path style="fill:#EDDBA8;" d="M-95.7,362.7c0.4,4.7,0.9,9.7,2.3,14.5c-15.7,0-25.7,0-26.8-0.1v-26.4c0.9,0,9.3,0.1,22.8,0.1
				C-96.5,354.8-96.1,358.8-95.7,362.7z"/>
			<path style="fill:#EDDBA8;" d="M-40.2,445.5h2.8c0-12.4,0-25.1,0.9-37.5c17,0,35.5,0,54.6-0.1c0,1.8-0.1,3.6-0.1,5.4
				c0,9.5,0.6,19.6,2,32.6c-72.3-0.1-136.8-0.2-140.3-0.3v-37.5c1.3-0.1,35.1-0.1,80.9-0.2C-40.1,420.4-40.2,433.1-40.2,445.5z"/>
			<path style="fill:#EDDBA8;" d="M-93.1,489.3c1.3,9.6,2.6,19.6,6.6,29.1c-19.5-0.1-32.1-0.1-33.6-0.2v-39.1
				c1.9,0.1,11.2,0.2,25.6,0.2C-94,482.6-93.5,486-93.1,489.3z"/>
			<path style="fill:#EDDBA8;" d="M-37.8,22.3c0.1,5.2,0.1,10.5,0.9,15.9c-46.9,0-82.5,0.1-83.3,0.1V10.9c0.8,0,35.8,0,82,0
				C-37.9,14.8-37.8,18.6-37.8,22.3z"/>
			<path style="fill:#EDDBA8;" d="M-95,91.2c0.6,5.2,1.2,10.5,1.2,15.7c0,0.8,0,1.7-0.1,2.5c-15.8,0-25.7-0.1-26.4-0.1V79.4
				c0.7,0,9.6,0,24.1,0.1C-95.9,83.4-95.5,87.3-95,91.2z"/>
			<path style="fill:#EDDBA8;" d="M-86,0.4c0,3,0.1,5.9,0.2,8.8c-20.5,0-33.6,0-34.4,0v-28c0.8,0,14.1,0.1,34.7,0.1
				C-85.7-12.7-86-6.1-86,0.4z"/>
			<path style="fill:#EDDBA8;" d="M-60.3,153.9c0,1.9-0.1,3.8-0.1,5.7c-0.1,1.9-0.1,3.9-0.1,5.8c0,3.1,0.2,5.6,0.6,8
				c-35.1,0-59.4,0-60.2,0.1v-21.4c2.1,0.1,25.9,0.2,59.8,0.2C-60.3,152.7-60.3,153.3-60.3,153.9z"/>
			<path style="fill:#EDDBA8;" d="M-20.6,264.3c-0.4,5.3-0.8,10.8-0.8,16.2c0,1.4,0,2.8,0.1,4.2l2.8-0.1c-0.1-1.4-0.1-2.8-0.1-4.2
				c0-5.3,0.4-10.8,0.8-16.1c0.2-2.9,0.4-5.8,0.6-8.6c20.7,0,42.9,0,64.9,0c-0.3,4-0.4,8.3-0.4,13.7c0,2.6,0,5.2,0.1,7.8
				c0,2.6,0.1,5.2,0.1,7.8h2.8c0-2.6,0-5.2-0.1-7.8c0-2.6-0.1-5.2-0.1-7.8c0-5.5,0.1-9.8,0.4-13.7c27.3,0,54.2,0,77.3,0
				c0,1-0.1,2-0.1,3c0,2.9,0.1,5.7,0.2,8.5c0.1,2.8,0.2,5.6,0.2,8.4c0,3.6-0.2,6.6-0.5,9.5c-108.2-0.1-245-0.2-247.8-0.3v-29.2
				c0.8,0,45,0,100.2,0.1C-20.2,258.7-20.4,261.5-20.6,264.3z"/>
			<path style="fill:#EDDBA8;" d="M-89,210.1c0,4.6,1.1,9.3,2.1,13.8c0.6,2.4,1.1,4.8,1.5,7.1l2.8-0.3c-0.4-2.4-1-4.9-1.5-7.3
				c-1-4.4-2.1-8.9-2.1-13.3c0-1.1,0.1-2.2,0.3-3.2c13.5,0,30.3,0,48.8,0c0.8,4.1,1.4,8.2,1.9,12.2c0.5,4,1.1,8.2,1.9,12.4
				c-9.7,0-19,0-27.6,0c0,0,0,0,0,0l-0.2,0c-34.8,0-58.9,0-59.1,0v-24.7c0.6,0,12.6,0,31.5,0C-88.9,207.9-89,208.9-89,210.1z"/>
			<path style="fill:#EDDBA8;" d="M102.3,406.1l0.1-2.3c0.2-4.3,0.5-9.1,0.5-12.9c0-4.4-0.3-8.3-0.8-11.9c31,0,59.4,0,80.5,0.1
				c0.1,0.8,0.2,1.5,0.2,2.3c0,3.6-0.9,7-1.9,10.7c-1,3.7-1.9,7.4-1.9,11.3c0,0.5,0,1.6,0.1,2.5C158.2,406,131.4,406.1,102.3,406.1z
				"/>
			<path style="fill:#EDDBA8;" d="M122.2,447.6c0,3.2-0.1,6.5-0.3,9.8c-0.2,3.5-0.3,7.1-0.3,10.7c0,3.6,0.2,6.7,0.5,9.6
				c-22.4,0-46.6-0.1-70.9-0.1c-1.3-9.6-2.7-20.4-2.9-30C73.6,447.6,98.9,447.6,122.2,447.6z"/>
			<path style="fill:#EDDBA8;" d="M55.6,362.5l0,2.5c0,4.1,0.1,8.2,0.7,12.4c-27.9,0-56.1,0-81.5-0.1l2.4-0.1
				c-0.1-1.3-0.1-2.6-0.1-3.9c0-3.9,0.3-7.9,0.5-11.7c0.2-3.4,0.4-7,0.5-10.5c24.2,0,50.7,0.1,76.9,0.1
				C55.5,355,55.6,358.7,55.6,362.5z"/>
			<path style="fill:#EDDBA8;" d="M35.7,479.8c1.5,15.5,6.1,37.9,6.2,38.1c0,0.2,0,0.5-0.1,0.8c-25.4,0-50.4-0.1-72.9-0.1
				c0.3-4.7,0.9-9.4,1.4-14c0.9-7.6,1.8-15.4,1.8-23.1c0-0.6,0-1.2,0-1.9C-8,479.6,13.7,479.7,35.7,479.8z"/>
			<path style="fill:#EDDBA8;" d="M-83.7,518.1c-4-9.4-5.3-19.4-6.6-29c-0.4-3.2-0.9-6.5-1.4-9.7c15.8,0.1,37,0.2,61,0.2
				c0,0.6,0,1.2,0,1.9c0,7.6-0.9,15.4-1.8,22.9c-0.5,4.7-1.1,9.5-1.4,14.2c-19.4,0-36.9-0.1-51-0.1L-83.7,518.1z"/>
			<path style="fill:#EDDBA8;" d="M64.9,525.3c0,2.1,0.1,4.3,0.2,6.4c0.1,2.1,0.2,4.2,0.2,6.3c0,1.1,0,2.1-0.1,3.2l2.8,0.1
				c-26,0-52.5,0-77.1,0c0.5-3.6,1.3-7.2,2-10.6c0.7-3.3,1.5-6.8,2-10.2c22.5,0.1,46.5,0.1,70.2,0.2C65,522,64.9,523.6,64.9,525.3z"
				/>
			<path style="fill:#EDDBA8;" d="M170.7,446.1c0.1-2.1,0.1-4.2,0.2-6.3c0.3-10.8,0.7-21.9,2.4-32c24.1,0,41.3-0.1,46.4-0.1
				c7.5,0,15.4-0.1,23.4-0.1c0,12.6,0,25.6-1.8,38.7c-6.5,0-12.9-0.1-19-0.1C216.9,446.1,197.6,446.1,170.7,446.1z"/>
			<path style="fill:#EDDBA8;" d="M105.8,518.8c0.4-4.7,1.2-9.4,2-13.9c1.1-6,2.3-12.3,2.3-18.5c0-2.3-0.2-4.4-0.5-6.4
				c18.4,0.1,35.8,0.1,51.3,0.2c-0.1,0.9-0.1,2-0.1,3.5c0,4.6-0.2,9.3-0.4,13.8c-0.2,4.5-0.4,9.2-0.4,13.9c0,2.7,0.1,5.2,0.2,7.6
				C143.8,518.8,125.3,518.8,105.8,518.8z"/>
			<path style="fill:#EDDBA8;" d="M149,321.9c-22.9,0-50.2-0.1-78.5-0.1c0.1-1,0.1-2.6,0.1-5.1c0-2.9-0.1-5.9-0.1-8.8
				c-0.1-2.9-0.1-5.8-0.1-8.8c0-4.5,0.2-8.2,0.5-11.6c25.7,0.1,51.4,0.1,75.1,0.2C147.2,299,148.1,309.9,149,321.9z"/>
			<path style="fill:#EDDBA8;" d="M97.9,250.7c0-4.2-0.3-8.5-0.7-12.6c-0.1-1.6-0.3-3.3-0.4-4.9c30.7,0,57.8,0,75.6,0
				c-1.5,9.9-2.5,20.7-2.5,20.8l1.4,0.1c-18.2,0-44.4,0-73.7,0C97.8,253,97.9,251.9,97.9,250.7z"/>
			<path style="fill:#EDDBA8;" d="M66.5,11c-0.2,1.7-0.3,3.3-0.5,5c-0.8,7.3-1.6,14.9-1.6,22.2c-33.1,0-68,0-98.4,0.1
				c-0.7-5.4-0.8-10.7-0.9-16c0-3.7-0.1-7.5-0.4-11.4C-3.9,11,32.3,11,66.5,11z"/>
		</g>
	</g>
	<path style="fill:#EDDBA8;" d="M478.2,354l3,0.2l0.2-1.2c1.4-9.1,2.9-18.6,5.2-27.8l-2.9-0.3c-2.4,9.2-3.8,18.7-5.3,27.9L478.2,354
		z"/>
</g>
<path style="opacity:0.2;fill:#F6BD83;" d="M655,619H-26.1V145.8c0,0,21.4,330.3,340.5,330.3S655,145.8,655,145.8V619z"/>
<g>
	<g>
		<path style="fill:#37373F;" d="M136.2,151.5c0,0-21.2,1.7-17.9,30.4c3.3,28.7-29.3,7.5-14.7,54.2c9,28.7,33.5,19.7,49.8,28.7
			c10.2,5.6,13.1,36.1,55.6,30.4c42.5-5.7,41.6-6.8,67.7-7.4c38.4-0.8,18.6-18.4,32.5-38.6c7.3-10.7,49-31.2,18.8-70.7
			c-25.4-33.2-6.2-101.4-99.9-88C127.4,104.9,136.2,151.5,136.2,151.5z"/>
		<path style="fill:#67CFC6;" d="M271.1,346.8c0,0,53.3,83.9,67.8,141.7c5.3,21.2,27.7,19.2,25.7-19.3
			c-6.4-123.6-56.1-171.3-56.1-171.3L271.1,346.8z"/>
		<path style="fill:#67CFC6;" d="M162.3,331.7c0,0,65.9-37.4,146.1-35.8c0,0,23,82.1,25.7,101.1s-14,100.2-22.5,137.2l-120.2-10.6
			C191.4,523.6,173.7,431.2,162.3,331.7z"/>
		<path style="fill:#67CFC6;" d="M161.7,332.7c0,0-39.1,161.8-26,196.2c1.4,3.6,16.1,8.7,23.7-7.6c8.2-17.6,6.2-39.2,22.2-145.1
			C181.6,376.1,185.7,346.1,161.7,332.7z"/>
		<path style="fill:#EE8E6F;" d="M188.2,203.4c0,0,34.8,67.2,34.7,109.4l36.8-2.1c0,0,3.9-32.9,14.7-45L188.2,203.4z"/>
		<path style="fill:#EE8E6F;" d="M173.6,326.4c0,0,44.9-27.3,126.8-30.5c0,0-6.4,50.1-35.3,59.4
			C230.3,366.5,173.6,326.4,173.6,326.4z"/>
		<path style="fill:#F1A982;" d="M308.5,185c0.9,55.8-20.2,106.3-49.1,106.5c-31.4,0.3-80.4-32.1-81-110.6
			c-0.4-55.8,30.5-81.2,68.4-80.7c25,0.3,41,6.2,51,28.1C302.8,139.6,308.1,164.5,308.5,185z"/>
		<path style="fill:#37373F;" d="M245.8,175.9c0,0-16-3.2-33.8,5.9c0,0,7.6-14.2,34.6-11.9L245.8,175.9z"/>
		<path style="fill:#37373F;" d="M279.7,172.5c0,0,10.4-5.1,27.1,0.4c0,0-4.4-11.1-28.7-6.2L279.7,172.5z"/>
		<path style="fill:#EE8E6F;" d="M268.3,202.6c2.6,7.6,10.4,16.7,19.3,21.9c0,0-10.7,11-19.6,13.7l11.9-13.8
			c0,0-14.3-15.7-15.6-23.5C263.1,193.2,265.7,195,268.3,202.6z"/>
		<path style="fill:#60B1AC;" d="M330.9,411.5c0,0-16.6,13.9-107.5,18.5c0,0,40.5,23,99,20.2C322.4,450.1,337.3,422.7,330.9,411.5z"
			/>
		<path style="fill:#67CFC6;" d="M149.6,612l202,11.3l-41-115.1l-119.3,15.3C191.4,523.6,163.8,564.6,149.6,612z"/>
		<path style="fill:#F1A982;" d="M164.6,227.3c13.5,15.8,31.6,20.5,31.4,5.9c-0.2-14.5-23.3-46.7-29.3-36.1
			C160.7,207.6,157.1,218.6,164.6,227.3z"/>
		<path style="fill:#EE8E6F;" d="M168.5,226.2c9.9,11.5,23.2,14.9,23.1,4.2c-0.1-10.7-17.1-34.3-21.5-26.5
			C165.7,211.7,163.1,219.8,168.5,226.2z"/>
		<path style="fill:#F1A982;" d="M180.7,230.9c4.8,5.7,11.3,7.3,11.3,2.1c-0.1-5.2-8.4-16.8-10.5-13
			C179.3,223.8,178,227.8,180.7,230.9z"/>
		<path style="fill:#37373F;" d="M175.1,211.8c0,0-29.5-69-15.6-95.5c13.9-26.6,48.1-40,59.9-40.9c84.2-5.8,83.3,66.9,79.2,55.2
			c0,0-27.1,38.5-83.2,38.5c-11.3,0-13.8,17-15.4,31c-1.8,15.5-3.1,22.6-6.8,22.5C186.2,222.4,187.5,211.9,175.1,211.8z"/>
		<g>
			<path style="fill:#E97B59;" d="M275.4,254.8l1,2.8c-7.6,6.8-22.8,6.6-47.9-0.9l0.3-1.1C253,262.7,268.6,260.9,275.4,254.8z"/>
		</g>
		<path style="fill:#E97B59;" d="M240.9,263.5c-0.3,0.7,1.6,2.8,4.9,3.9c3.3,1,6.6,0.5,6.9-0.2c0.3-0.7-3.1-0.9-6.3-1.9
			C243.1,264.3,241.1,262.8,240.9,263.5z"/>
		<g>
			<path style="fill:#FFFFFF;" d="M215.1,311.8c0.6,2.6,3.2,4.1,5.7,3.6c2.6-0.6,4.1-3.2,3.6-5.7c-0.6-2.6-3.2-4.1-5.7-3.6
				C216.1,306.7,214.5,309.2,215.1,311.8z"/>
			<path style="fill:#FFFFFF;" d="M222.7,318.7c0.6,2.6,3.2,4.1,5.7,3.6c2.6-0.6,4.1-3.2,3.6-5.7c-0.6-2.6-3.2-4.1-5.7-3.6
				C223.7,313.5,222.2,316.1,222.7,318.7z"/>
			<path style="fill:#FFFFFF;" d="M232.4,323.2c0.6,2.6,3.2,4.1,5.7,3.6c2.6-0.6,4.1-3.2,3.6-5.7c-0.6-2.6-3.2-4.1-5.7-3.6
				C233.4,318.1,231.7,320.7,232.4,323.2z"/>
			<path style="fill:#FFFFFF;" d="M242.2,323.4c0.6,2.6,3.2,4.1,5.7,3.6c2.6-0.6,4.1-3.2,3.6-5.7c-0.6-2.6-3.2-4.1-5.7-3.6
				C243.3,318.4,241.6,320.9,242.2,323.4z"/>
			<path style="fill:#FFFFFF;" d="M251.1,319.6c0.6,2.6,3.2,4.1,5.7,3.6c2.6-0.6,4.1-3.2,3.6-5.7c-0.6-2.6-3.2-4.1-5.7-3.6
				C252.2,314.4,250.5,317,251.1,319.6z"/>
			<path style="fill:#FFFFFF;" d="M259.3,312.3c0.6,2.6,3.2,4.1,5.7,3.6c2.6-0.6,4.1-3.2,3.6-5.7s-3.2-4.1-5.7-3.6
				C260.3,307.2,258.6,309.7,259.3,312.3z"/>
			<path style="fill:#FFFFFF;" d="M263.1,302.2c0.6,2.6,3.2,4.1,5.7,3.6c2.6-0.6,4.1-3.2,3.6-5.7c-0.6-2.6-3.2-4.1-5.7-3.6
				C264.1,297,262.5,299.7,263.1,302.2z"/>
		</g>
	</g>
	<g>
		<path style="fill:#FFFFFF;" d="M245.3,200.9c2.5-2.7-1-13.2-10.6-16.8c-9.6-3.6-15.1,2.7-15.5,5.3c-0.4,2.6,0.6,7.4,6.2,10.1
			c5.5,2.7,10.2,2.3,12.9,2.2C241.6,201.7,243.9,202.5,245.3,200.9z"/>
		<circle style="fill:#39170B;" cx="234.3" cy="190.5" r="8.6"/>
		<circle style="fill:#FFFFFF;" cx="231.1" cy="188.7" r="3.4"/>
		<path style="fill:#39170B;" d="M246.1,198.7c0,0,1.5-4.9-4.1-11.7c-5.7-6.8-13.7-5.8-15.8-6.3c-2.2-0.5-4.5,0-3.9,0.6
			c0.7,0.6-1.4,2.2-3.1,1.7c-1.7-0.5-0.1,1.5-0.1,2.1c0,0.6-3,0.2-3.3,0.9s1.6,2.2,1.1,2.3c-0.5,0.1-2.2,1.3-1.4,1.9
			c0.8,0.6,2.3,2.7,2.9,3.6c0.6,0.9,2.5,1.7,2.5,1.7s-1.9-4.2-0.5-7c1.5-2.8,5-5.6,10.6-4.7s8.9,3.8,11.2,6.2
			C244.3,192.4,246.1,198.7,246.1,198.7z"/>
	</g>
	<g>
		<path style="fill:#FFFFFF;" d="M276.7,199.7c-2-2.9,2.7-12.3,12.2-14.4c9.5-2.1,13.8,4.5,13.8,7.1c0,2.5-1.6,6.8-7.1,8.6
			c-5.5,1.8-9.9,0.8-12.4,0.4C280.1,200.9,277.8,201.3,276.7,199.7z"/>
		<circle style="fill:#39170B;" cx="288.5" cy="191.4" r="8.1"/>
		<path style="fill:#FFFFFF;" d="M282.3,189.4c-0.1,1.8,1.2,3.3,3,3.5c1.8,0.1,3.3-1.2,3.5-3c0.1-1.8-1.2-3.3-3-3.5
			C284,186.3,282.4,187.6,282.3,189.4z"/>
		<path style="fill:#39170B;" d="M276.3,197.5c0,0-0.8-4.8,5.4-10.4c6.2-5.6,13.6-3.6,15.7-3.8c2.1-0.2,4.3,0.6,3.6,1.1
			c-0.7,0.5,1.1,2.3,2.7,2.1c1.7-0.2-0.1,1.4-0.1,2c0,0.5,2.8,0.6,3,1.3c0.2,0.6-1.8,1.8-1.4,2c0.4,0.2,1.9,1.5,1.1,2
			c-0.8,0.5-2.5,2.2-3.2,3c-0.7,0.7-2.5,1.3-2.5,1.3s2.4-3.7,1.4-6.5c-1-2.8-4-6-9.3-5.8c-5.3,0.2-8.8,2.4-11.3,4.3
			C278.8,191.8,276.3,197.5,276.3,197.5z"/>
	</g>
	<path style="fill:#FFFFFF;" d="M181.5,237.1c0,3.5,2.9,6.4,6.4,6.4s6.4-2.9,6.4-6.4c0-3.5-2.9-6.4-6.4-6.4S181.5,233.6,181.5,237.1
		z"/>
	<g>
		<path style="fill:#CCB7A3;" d="M320.6,540.5l-148.8-13.3l17.4-194.7l148.8,13.3L320.6,540.5z"/>
		<path style="fill:#D4E2E6;" d="M337.6,352.5C337.6,352.5,337.5,352.4,337.6,352.5l0.1-2.9L337.6,352.5z"/>
		<path style="fill:#DDE6E8;" d="M337.2,355.8l0.2-3.4c0,0,0,0,0.1,0.1v0.8C337.5,354.2,337.3,354.9,337.2,355.8z"/>
	</g>
	<path style="fill:#67CFC6;" d="M363.2,481.9c0,0-34.8-33.5-201.2-14.8c0,0-3.5,11.1-2.8,17.5c48.3,6.5,124.8,16.1,146,16.8
		C320.1,502,364.4,509.2,363.2,481.9z"/>
	<g>
		<g>
			<g>
				<path style="fill:#A99989;" d="M292,397.2c-3.9-18.8-22.4-30.9-41.2-27c-18.8,3.9-30.9,22.4-27,41.2l2.3-0.5
					c-3.6-17.5,7.7-34.7,25.2-38.4c8.5-1.8,17.2-0.1,24.4,4.7c7.2,4.8,12.2,12.1,14,20.6c1.8,8.5,0.1,17.2-4.7,24.4
					c-4.8,7.2-12.1,12.2-20.5,14c-14.2,2.9-28.8-4-35.4-16.9l-2.1,1.1c5.5,10.7,16,17.5,27.6,18.7c3.4,0.3,6.9,0.2,10.4-0.5
					c9.1-1.9,16.9-7.2,22-15C292.1,415.6,293.9,406.3,292,397.2z"/>
			</g>
		</g>
		<g>
			<g>
				<path style="fill:#A99989;" d="M252.9,385.4l0.9-2.2l-11.4-4.7c-0.4-0.2-0.9-0.1-1.2,0.2l-2.6,2.1c-0.3,0.2-0.5,0.6-0.4,1
					c0,0.4,0.3,0.7,0.6,0.9l10.1,5.7l1.2-2.1l-8.6-4.9l0.7-0.6L252.9,385.4z"/>
			</g>
		</g>
		<g>
			<g>
				<path style="fill:#A99989;" d="M264.5,379.5c0.1-0.6-0.4-1.2-1.1-1.3c0,0,0,0,0,0c-2.6-0.3-5.1,0.5-7.1,2.2l-10.9,9l-4-1.4
					c-0.4-0.1-0.8-0.1-1.1,0.2l-2.6,2.1c-0.3,0.2-0.4,0.6-0.4,0.9c0,0.4,0.2,0.7,0.5,0.9l5.3,3.9l2.8,6c0.2,0.3,0.5,0.6,0.8,0.6
					c0,0,0.1,0,0.1,0c0.3,0,0.6-0.1,0.9-0.3l2.6-2.1c0.3-0.3,0.5-0.7,0.4-1.1l-0.6-4.1l11.1-9C263.1,384.4,264.3,382.1,264.5,379.5z
					 M248.1,393.6c-0.3,0.3-0.5,0.7-0.4,1.1l0.6,4.2l-0.9,0.7l-2.3-4.9c-0.1-0.2-0.2-0.3-0.4-0.4l-4.3-3.2l0.9-0.7l4,1.4
					c0.4,0.1,0.8,0.1,1.1-0.2l11.5-9.4c1.2-1,2.6-1.5,4.1-1.6c-0.4,1.4-1.2,2.7-2.3,3.7L248.1,393.6z"/>
			</g>
		</g>
		<g>
			<g>
				<path style="fill:#A99989;" d="M260,400.2l-2.3-12.2l-2.3,0.4l2.2,11.5l-0.8,0.6l-3-9.5l-2.2,0.7l3.5,11
					c0.1,0.4,0.4,0.6,0.8,0.8c0.1,0,0.2,0,0.3,0.1c0.3,0,0.6,0,0.8-0.2l2.7-1.9C259.9,401.1,260.1,400.7,260,400.2z"/>
			</g>
		</g>
		<g>
			<g>
				<path style="fill:#A99989;" d="M242.6,433.1c-8.8,3.1-15.4,3-18.1-0.4c-4.8-5.9,2.5-20.7,17-34.6l-1.6-1.7
					c-15.9,15.2-23,30.8-17.2,37.8c1.6,2,4,3.1,7.2,3.4c3.7,0.4,8.2-0.4,13.6-2.3L242.6,433.1z"/>
			</g>
		</g>
		<g>
			<g>
				<path style="fill:#A99989;" d="M284.8,413c-0.2-0.4-0.5-0.7-1-0.7l-4-0.4l-2.6-6.7c-0.2-0.4-0.5-0.7-1-0.8l-11.7-1.2
					c-0.6-0.1-1.2,0.4-1.3,1.1l-0.9,9.4c-0.1,0.6,0.4,1.2,1.1,1.3l3.5,0.4l-1.3,12.9c-0.1,0.6,0.4,1.2,1.1,1.3l5.9,0.6
					c0.3,0,0.6-0.1,0.9-0.3l5.2-4.2c0.2-0.2,0.4-0.5,0.4-0.8l0.4-4.3l5.2-6.3C284.9,413.8,284.9,413.4,284.8,413z M277.4,419.2
					c-0.1,0.2-0.2,0.4-0.3,0.6l-0.4,4.2l-4.4,3.6l-4.2-0.4l0,0l1.3-12.9c0.1-0.6-0.4-1.2-1.1-1.3l-3.5-0.4l0.7-7l9.8,1l2.6,6.7
					c0.2,0.4,0.5,0.7,1,0.8l2.5,0.2L277.4,419.2z"/>
			</g>
		</g>
		<g>
			<g>
				<path style="fill:#A99989;" d="M286.6,403L283,395c-0.2-0.4-0.5-0.7-1-0.7l-7-0.7c-0.4,0-0.8,0.1-1,0.4l-2.3,2.8l-2.9-0.3
					l0.6-5.9l5.9,0.6c0.3,0,0.6-0.1,0.9-0.3l4.8-3.9l5.4,0.5l0.2-2.3l-5.9-0.6c-0.3,0-0.6,0.1-0.9,0.3l-4.8,3.9l-6.6-0.7
					c-0.6-0.1-1.2,0.4-1.3,1.1l-0.8,8.2c-0.1,0.6,0.4,1.2,1.1,1.3l4.7,0.5c0.4,0,0.8-0.1,1-0.4l2.3-2.8l5.7,0.6l3.6,8.1
					c0.2,0.4,0.5,0.7,1,0.7l4.7,0.5l0.2-2.3L286.6,403L286.6,403z"/>
			</g>
		</g>
		<g>
			<g>
				<path style="fill:#A99989;" d="M256.6,411.9l-6.6-0.7l-2.9-3.5c-0.2-0.2-0.5-0.4-0.8-0.4l-5.9-0.6c-0.6-0.1-1.2,0.4-1.3,1.1
					l-0.8,8.2c-0.1,0.6,0.4,1.2,1.1,1.3l4.7,0.5l-1.2,11.7c0,0.4,0.2,0.9,0.5,1.1c0.2,0.1,0.3,0.2,0.5,0.2c0.2,0,0.5,0,0.7-0.2
					l5-3.1c0.3-0.2,0.5-0.5,0.6-0.9l0.3-3l5.9-3.8c0.3-0.2,0.5-0.5,0.5-0.9l0.6-5.9C257.7,412.5,257.2,412,256.6,411.9z
					 M254.7,418.3l-5.9,3.8c-0.3,0.2-0.5,0.5-0.5,0.9l-0.3,2.9l-2.5,1.5l1.1-10.6c0.1-0.6-0.4-1.2-1.1-1.3l-4.7-0.5l0.6-5.9l4.2,0.4
					l2.9,3.5c0.2,0.2,0.5,0.4,0.8,0.4l5.9,0.6L254.7,418.3L254.7,418.3z"/>
			</g>
		</g>
		<g>
			<g>
				<path style="fill:#A99989;" d="M234.6,392.5l-2.9-6.2c-0.2-0.4-0.5-0.6-0.9-0.7l-1.2-0.1l-0.2,2.3l0.5,0.1l2.3,4.8l-3.2,2.6
					c-0.2,0.2-0.4,0.5-0.4,0.8l-0.4,3.5l-3.5-0.4l-0.2,2.3l4.7,0.5c0.6,0.1,1.2-0.4,1.3-1.1l0.4-4.2l3.5-2.9
					C234.7,393.6,234.8,393,234.6,392.5z"/>
			</g>
		</g>
		<g>
			<g>
				<path style="fill:#A99989;" d="M263,371l-0.1,1.4l-3.9,0.6c-0.1,0-0.3,0.1-0.4,0.1l-3.2,1.7l-6.1-3.9l-1.3,2l6.7,4.2
					c0.2,0.1,0.3,0.2,0.5,0.2c0.2,0,0.5,0,0.7-0.1l3.6-1.9l4.6-0.7c0.5-0.1,0.9-0.5,1-1.1l0.2-2.3L263,371z"/>
			</g>
		</g>
	</g>
	<path style="fill:#67CFC6;" d="M139.7,528.3c0,0,43.6,20.8,195.6-49.5c0,0-0.2-11.6-2.9-17.5c-47.9,9.1-123.5,24.2-143.9,30.2
		C174.2,495.6,129.9,502.8,139.7,528.3z"/>
</g>
</svg>
