<?xml version="1.0" encoding="utf-8"?>
<!-- Generator: Adobe Illustrator 24.0.3, SVG Export Plug-In . SVG Version: 6.00 Build 0)  -->
<svg version="1.1" id="Layer_1" xmlns="http://www.w3.org/2000/svg" xmlns:xlink="http://www.w3.org/1999/xlink" x="0px" y="0px"
	 width="480px" height="600px" viewBox="0 0 480 600" style="enable-background:new 0 0 480 600;" xml:space="preserve">
<title>Artboard 23</title>
<g transform="matrix(0.948172,0,0,1.88724,-3.09674,-964.778)">
	<rect x="-6.6" y="504" style="fill-rule:evenodd;clip-rule:evenodd;fill:#9BD2F2;" width="529.6" height="328.5"/>
</g>
<g>
	<g>
		<path style="fill:#2BA5DF;" d="M358.6,574.5v3.5h3v-3.5c19.8,0.2,39.5,0.3,59,0.3c31.3,0.1,63.2,0.3,95.2,0.8c0,0.2,0,0.4,0,0.6h3
			c0-0.2,0-0.4,0-0.5c8.8,0.2,17.6,0.3,26.4,0.6c-0.1,0.6-0.1,1.2-0.2,1.7h3c0.1-0.6,0.1-1.1,0.2-1.7c7,0.2,14,0.4,21.1,0.7v-1.7
			c-16.8-0.6-33.6-1-50.4-1.3c0.1-4.4,0.4-8.9,0.7-13.3c0.4-5.2,0.8-10.5,0.8-15.7c0-1.3,0-2.5-0.1-3.8c15.9,0.2,32.2,0.5,48.9,0.8
			v-1.7c-9.8-0.2-19.4-0.3-28.9-0.5c0.4-6.3,0.5-12.9,0.5-19.2c10.1,0,19.5,0.1,28.5,0.2V519c-15.8-0.2-33-0.3-52.7-0.3
			c-6.7,0-13.5,0-20.2,0c-0.1-2.6-0.2-5.1-0.2-7.7c0-9.9,0.7-19.3,2.1-28.2c23.6,0.5,47.3,1.1,71,1.8V483c-9-0.3-17.9-0.5-26.9-0.8
			c0.2-3.7,0.3-7.4,0.5-11c0.4-7.9,0.9-16.2,0.9-24.3c8.9,0.2,17.3,0.4,25.5,0.6v-1.7c-17.4-0.5-36-0.8-57-0.9
			c-0.4-9.3-0.4-18.3-0.4-27.8h-3c0,9.5,0,18.5,0.4,27.8c-4.4,0-8.9,0-13.5,0c-19.8,0-39.9,0.1-59.4,0.3c-7.7,0.1-15.5,0.1-23.4,0.2
			l-0.2-1.6c-1.4-11.9-2.8-23.1-3.7-34.7c14.1,1,28.4,2.2,43,3.4c38.5,3.2,78.2,6.5,117.1,6.5v-1.7c-3.7,0-7.4,0-11.1-0.1
			c-0.2-3.1-0.4-6.1-0.6-9.2c-0.4-6.8-0.9-13.8-0.9-20.6c4.2,0.2,8.3,0.4,12.5,0.6V386c-9.4-0.4-18.9-0.9-28.3-1.3
			c-20.4-0.9-40.9-1.9-61.5-2.8c0.1-4.9,0.7-9.8,1.3-14.6c0.5-4,1-8.2,1.2-12.3c17.6,0.4,35.2,0.7,52.6,1.2
			c11.6,0.3,23.2,0.6,34.8,0.9v-1.7c-11.5-0.3-23.1-0.6-34.6-0.9c-39.2-1-79-1.7-118.9-2.6c0.2-3.5,0.6-7.1,1-10.5
			c0.6-5.5,1.3-11.1,1.3-16.8h-3c0,5.6-0.7,11.2-1.3,16.6c-0.4,3.5-0.8,7-1,10.6c-25.8-0.6-51.7-1.4-77.5-2.5
			c-0.5-9-0.9-17.5-0.9-26.3c10.7,0.3,21.3,0.5,31.9,0.7c0,0,0,0,0,0.1l2.2,0c20.5,0.4,40.9,0.6,61.2,0.6c29,0,58.3-0.4,87.6-1.1
			l1.2,0.1c0,0,0-0.1,0-0.2c12.5-0.3,24.9-0.7,37.4-1.1c0,1,0.1,2.1,0.1,3.1c0,4.3-0.3,8.7-0.6,12.9c-0.3,4.3-0.6,8.7-0.6,13
			c0,1.3,0,2.5,0.1,3.8l3,0c-0.1-1.2-0.1-2.5-0.1-3.7c0-4.3,0.3-8.7,0.6-12.9c0.3-4.3,0.6-8.7,0.6-13c0-1.1,0-2.2-0.1-3.3
			c3.5-0.1,7-0.3,10.5-0.4v-1.7c-16.8,0.7-33.6,1.2-50.5,1.6c1.2-4.7,2-9.5,2.8-14.1c0.9-5.3,1.7-10.7,3.2-15.9l-3-0.3
			c-1.5,5.3-2.4,10.7-3.3,16c-0.8,4.7-1.6,9.6-2.8,14.4c-23.3,0.6-46.5,0.9-69.6,1c0.9-11.1,1.4-22.2,1.4-33.3
			c40.2,0.9,81.2,1.9,121.8,3.1v-1.7c-3.5-0.1-7-0.2-10.5-0.3c0-9.4,0.8-17.5,1.6-26.9l0.3-3.7l-3-0.1l-0.3,3.7
			c-0.9,9.4-1.6,17.5-1.6,26.9c-24.8-0.7-49.6-1.4-74.3-1.9c0.5-4.9,0.8-9.9,1.2-14.8c0.4-5.3,0.7-10.6,1.2-15.8l-0.9,0
			c28.7,0.5,57.6,1.2,86.3,2.2v-1.7c-12.8-0.4-25.6-0.8-38.5-1.1c0-1.1-0.1-2.2-0.1-3.3c0-3,0.2-6.2,0.3-9.2c0.2-3,0.3-6.1,0.3-9.1
			h-3c0,3-0.2,6.1-0.3,9.1c-0.2,3-0.3,6.2-0.3,9.3c0,1.1,0.1,2.1,0.1,3.2c-33.1-0.8-66.2-1.3-98.8-1.8c0-0.2,0-0.3,0-0.5
			c0-4.6,0.8-9.4,1.6-14c0.4-2.1,0.7-4.2,1-6.2c24,0.6,48.4,1.1,72.6,1.1c23.6,0,45.2-0.5,65.2-1.5v-1.7c-7.5,0.4-15.3,0.7-23.3,0.9
			c0.8-4.9,1.1-9.9,1.5-14.8c0.2-3.3,0.5-6.6,0.8-9.9c7,0.2,14,0.4,21.1,0.7v-1.7c-16.8-0.6-33.6-1-50.4-1.3
			c0.1-4.4,0.4-8.9,0.7-13.3c0.4-5.2,0.8-10.5,0.8-15.7c0-1.3,0-2.5-0.1-3.8c15.9,0.2,32.2,0.5,48.9,0.8v-1.7
			c-9.8-0.2-19.4-0.3-28.9-0.5c0.4-6.3,0.5-12.9,0.5-19.2c10.1,0,19.5,0.1,28.5,0.2V151c-15.8-0.2-33-0.3-52.7-0.3
			c-6.7,0-13.5,0-20.2,0c-0.1-2.6-0.2-5.1-0.2-7.7c0-9.9,0.7-19.3,2.1-28.2c23.6,0.5,47.3,1.1,71,1.8V115c-9-0.3-17.9-0.5-26.9-0.8
			c0.2-3.7,0.3-7.4,0.5-11c0.4-7.9,0.9-16.2,0.9-24.3c8.9,0.2,17.3,0.4,25.5,0.6v-1.7c-17.4-0.5-36-0.8-57-0.9
			c-0.4-9.3-0.4-18.3-0.4-27.8h-3c0,9.5,0,18.5,0.4,27.8c-4.4,0-8.9,0-13.5,0c-19.8,0-39.9,0.1-59.4,0.3c-7.7,0.1-15.5,0.1-23.4,0.2
			l-0.2-1.6c-1.4-11.9-2.8-23.1-3.7-34.7c14.1,1,28.4,2.2,43,3.4c38.5,3.2,78.2,6.5,117.1,6.5v-1.7c-3.7,0-7.4-0.1-11.1-0.1
			c-0.2-3.1-0.4-6.1-0.6-9.2c-0.4-6.8-0.9-13.8-0.9-20.6c4.2,0.2,8.3,0.4,12.5,0.6V18c-9.4-0.4-18.9-0.9-28.3-1.3
			c-20.4-0.9-40.9-1.9-61.5-2.8c0.1-4.9,0.7-9.8,1.3-14.6c0.5-4,1-8.2,1.2-12.3l-3-0.1c-0.2,4.1-0.7,8.2-1.2,12.3
			c-0.6,4.8-1.1,9.7-1.3,14.6c-32.8-1.5-65.9-2.8-99.1-3.9c1.4-8.6,2.8-17.5,3.7-26.3c51.4,2,102.9,3.4,153.3,4.6
			c11.6,0.3,23.2,0.6,34.8,0.9v-1.7c-11.5-0.3-23.1-0.6-34.6-0.9c-10.1-0.3-20.3-0.5-30.6-0.8c0.7-4.8,1-9.5,1.3-14.1
			c0.3-5,0.6-10,1.4-15.2h-3c-0.8,5.1-1.1,10.2-1.4,15.1c-0.3,4.6-0.6,9.3-1.3,14.1c-47.5-1.2-95.7-2.6-143.7-4.8
			c0.3-2.9,0.7-5.8,1.1-8.7c0.7-5.2,1.4-10.5,1.7-15.7h-3c-0.3,5.1-1,10.4-1.7,15.5c-0.4,2.9-0.8,5.8-1.1,8.7
			c-7.3-0.3-43.2-0.7-81-1c0.7-5.9,1-10.8,1-15.4c0-2.7-0.1-5.3-0.4-7.8h-2.8c0.2,2.5,0.4,5.1,0.4,7.8c0,4.6-0.3,9.4-1,15.4
			c-27.5-0.3-55.6-0.5-74.5-0.8c-0.9,0-4.2,0-9.2,0c-0.8-5-1.2-9.9-1.5-14.7c-0.2-2.5-0.4-5.1-0.6-7.6h-2.8c0.3,2.6,0.5,5.2,0.6,7.7
			c0.3,4.7,0.7,9.6,1.5,14.6c-18.6,0-56.2-0.1-98.7-0.1c0.4-7.3,0.7-14.8,0.8-22.1h-2.8c-0.1,7.4-0.5,14.8-0.8,22l1.9,0.1
			c-29.8,0-62-0.1-91.7-0.1c-0.2-3.3-0.2-6.6-0.3-9.8c0-4-0.2-8.1-0.5-12.2h-2.8c0.3,4.1,0.5,8.2,0.5,12.2c0,3.2,0.1,6.5,0.3,9.8
			c-4.5,0-8.9,0-13.2,0c0.2-3.7,0.7-7.6,1.2-11.5c0.4-3.5,0.8-7.1,1.1-10.6h-2.8c-0.3,3.4-0.6,6.9-1.1,10.3
			c-0.5,3.9-0.9,7.9-1.2,11.7c-19.8,0-37.8,0-52.5-0.1c0-0.2,0-0.4,0-0.6l-2.8-0.1c0,0.2,0,0.4,0,0.6c-13.9,0-24.4,0-30.1-0.1v1.8
			c5.7,0,16.2,0.1,30.1,0.1c-0.3,6-0.6,12.6-0.6,19.1c0,3,0.1,5.9,0.2,8.8c-13.7,0-24,0-29.7,0v1.7c11.2,0,40.8,0,77.5,0
			c0.3,3.8,0.4,7.7,0.4,11.4c0.1,5.2,0.1,10.5,0.9,15.9c-37.3,0-67.5,0.1-78.8,0.1v1.7c5.5,0,15.5,0,28.7,0c0,0.5,0,1.1,0,1.6
			c0,9.2,1.5,18.3,2.9,27.2c0.5,2.9,0.9,5.9,1.4,8.9c-15.3,0-26.9-0.1-33-0.1v1.7c4.1,0,10.7,0,19.4,0c0.2,3.9,0.7,7.9,1.1,11.7
			c0.6,5.2,1.2,10.5,1.2,15.7c0,0.8,0,1.7-0.1,2.5c-9.7,0-17.2,0-21.7-0.1v1.8c7,0.1,20.9,0.1,39.6,0.1c-0.4,12.7-0.9,25.8-2.3,39.1
			c-17.4,0-30.6-0.1-37.3-0.1v1.8c8.9,0.1,29,0.1,55.3,0.2c0,0.6,0,1.1,0,1.7c0,1.9-0.1,3.8-0.1,5.7c-0.1,1.9-0.1,3.9-0.1,5.8
			c0,3.1,0.2,5.6,0.6,8c-26.4,0-46.8,0-55.7,0v1.7c5.9,0,16.9,0,31.3-0.1c0.5,5.1,1.6,10,2.7,14.8c1.1,4.9,2.3,10,2.8,15.2
			c-17.1,0-30.1,0-36.7,0v1.8c5.3,0,14.6,0,26.8,0c-0.1,1-0.3,2.1-0.3,3.2c0,4.6,1.1,9.3,2.1,13.8c0.6,2.4,1.1,4.8,1.5,7.1l2.8-0.3
			c-0.4-2.4-1-4.9-1.5-7.3c-1-4.4-2.1-8.9-2.1-13.3c0-1.1,0.1-2.2,0.3-3.2c13.6,0,30.4,0,49,0c0.8,4.1,1.4,8.2,1.9,12.2
			c0.5,4,1.1,8.2,1.9,12.4c-9.8,0-19.1,0-27.7,0c0,0,0,0,0,0l-0.2,0c-25.9,0-45.8,0-54.6,0v1.7c8.4,0,27.5,0,52.2,0
			c0.7,3.4,0.8,6.7,0.8,9.6l0,3.7c0,2.3,0,4.9,0.4,7.5c-25.3,0-44.8,0-53.3,0v1.7c13,0,50.7,0,95.8,0c-0.2,2.8-0.4,5.6-0.6,8.4
			c-0.4,5.3-0.8,10.8-0.8,16.2c0,1.4,0,2.8,0.1,4.2l2.8-0.1c-0.1-1.4-0.1-2.8-0.1-4.1c0-5.3,0.4-10.8,0.8-16.1
			c0.2-2.9,0.4-5.8,0.6-8.6c20.8,0,43.1,0,65.2,0c-0.3,4-0.4,8.3-0.4,13.7c0,2.6,0,5.2,0.1,7.8c0,2.6,0.1,5.2,0.1,7.8h2.8
			c0-2.6,0-5.2-0.1-7.8c0-2.6-0.1-5.2-0.1-7.8c0-5.5,0.1-9.8,0.5-13.7c27.4,0,54.4,0,77.6,0c0,1-0.1,2-0.1,3c0,2.9,0.1,5.7,0.2,8.5
			c0.1,2.8,0.2,5.6,0.2,8.4c0,3.6-0.2,6.6-0.5,9.5c-97.7-0.1-218.6-0.2-244-0.2v1.8c6.8,0.1,19.9,0.1,37.3,0.2l0,6.4
			c0,9.3-0.1,18.9,0.3,28.2c-17.6,0-30.9-0.1-37.6-0.1v1.7c9.9,0,34.4,0,66,0.1c1.1,4.1,1.3,8,1.3,11.1c0,1.9-0.1,3.9-0.1,5.8
			c-0.1,1.9-0.1,3.9-0.1,5.8c0,1.1,0,2.1,0.1,3.1c-32,0-57-0.1-67-0.1v1.8c3.9,0,10.1,0.1,18.1,0.1c0.9,3.9,1.3,7.9,1.7,11.8
			c0.4,4.7,0.9,9.7,2.3,14.5c-9.9,0-17.5,0-22.1,0v1.7c9,0,29.8,0,56.9,0.1c0.5,3,0.9,6,1.3,9c0.7,6,1.5,12.1,3.6,18.2
			c-29.5,0-52.3,0.1-61.8,0.1v1.7c11,0,39.8-0.1,76.4-0.1c-0.9,12.4-0.9,25.2-0.9,37.5h2.8c0-12.4,0-25.1,0.9-37.5
			c17.1,0,35.7,0,54.9-0.1c0,1.8-0.1,3.6-0.1,5.4c0,9.5,0.6,19.6,2,32.6c-62.6-0.1-119.4-0.1-136.1-0.2v1.7c5.7,0,16.3,0,30.2,0.1
			c0,0.8,0.1,1.6,0.1,2.5c0,3.4-0.2,6.9-0.4,10.2c-0.2,3.4-0.4,6.8-0.4,10.3c0,2.4,0.1,4.6,0.3,6.6l2.8-0.2c-0.2-2-0.3-4.1-0.3-6.4
			c0-3.4,0.2-6.9,0.4-10.2c0.2-3.4,0.4-6.9,0.4-10.4c0-0.8,0-1.6-0.1-2.5c16.9,0,38.2,0,61.9,0.1c-0.1,1.9-0.1,3.7-0.1,5.6
			c0,4.3,0.2,8.6,0.3,12.9c0.1,3.8,0.2,7.6,0.3,11.5c-45.4-0.1-82.5-0.1-95.4-0.2v1.8c4.5,0.1,11.6,0.1,20.9,0.1
			c0.5,3.3,1,6.7,1.5,10c1.3,9.6,2.6,19.6,6.6,29.1c-13.3,0-23.4-0.1-29-0.1v1.8c7.1,0.1,21.3,0.1,40,0.2c-0.2,2.4-0.4,4.8-0.4,7.4
			c0,4.1,0.3,8.6,0.9,13.7c-17.7,0-32.3,0-40.5,0v1.7c11.6,0,35.9-0.1,65.1-0.1c-0.1,3.1-0.3,6.2-0.5,9.3c-0.3,3.6-0.5,7.3-0.5,11
			c0,3.6,0.3,6.9,0.9,9.9c-29.3,0-53.5,0-65,0v1.8c47.3,0.1,314,0.2,336.4,0.3C275.2,574.2,347,574.4,358.6,574.5z M400,557.2
			c-0.5,5.2-0.9,10.3-1.4,15.8c-24.9-0.1-50.2-0.3-75.4-0.8c-0.5-5.2-1-10.1-1.5-15c-0.5-5-1-9.9-1.5-15.3l-3,0.1
			c0.5,5.4,1,10.4,1.5,15.3c0.5,4.8,1,9.6,1.5,14.8c-2.2,0-37.9-0.1-73.4-0.1c0.2-2.6,0.4-5.3,0.6-7.9c0.5-7.5,1-15.3,2.8-22.8
			c58.5-0.3,130.9-0.5,151.3-0.6C401,546.4,400.5,551.8,400,557.2z M169.2,540C169.2,540,169.2,540,169.2,540
			c-27.5,0-61.7,0.1-96.9,0.1c0.1-1.1,0.1-2.2,0.1-3.3c0-2.1-0.1-4.3-0.2-6.4c-0.1-2.1-0.2-4.2-0.2-6.3c0-1.7,0.1-3.3,0.3-4.7
			c22.6,0,44.8,0.1,65.2,0.1c-0.3,3.1-0.5,6.2-0.6,9.3c-0.1,3.5-0.2,7.1-0.7,10.7l2.8,0.3c0.5-3.6,0.6-7.3,0.7-10.9
			c0.1-3.1,0.2-6.2,0.6-9.3c23.1,0,43.8,0.1,59.6,0.1c-0.1,6.3-0.4,12.6-0.8,18.8l-0.1,1.5c-7.8,0-16.9,0-26.9,0c0,0,0,0,0,0H169.2z
			 M42.6,478.6c23,0.1,46.4,0.1,68.5,0.2c0.3,2.1,0.5,4.2,0.5,6.4c0,6-1.1,12.2-2.2,18.1c-0.9,4.6-1.7,9.5-2.1,14.3
			c-19,0-38.9-0.1-58.6-0.1c0-0.3,0.1-0.7,0.1-1C48.7,516.1,44.2,494,42.6,478.6z M49.6,444.8c-8.3,0-16.6,0-24.9,0l2.2-0.2
			c-1.4-12.9-2-22.9-2-32.4c0-1.8,0-3.6,0.1-5.5c22.2,0,45.1,0,67.2-0.1c0.1,3.7,0.2,7.4,0.2,11.1c0.1,8.9,0.2,18,1.4,27
			c-13.6,0-27.5,0-41.4,0c0,0,0,0,0-0.1L49.6,444.8C49.6,444.7,49.6,444.7,49.6,444.8z M-19,372.2c0-3.9,0.3-7.9,0.5-11.7
			c0.2-3.4,0.4-7,0.5-10.5c24.3,0,50.9,0.1,77.2,0.1c0.5,3.8,0.6,7.5,0.6,11.3l0,2.5c0,4.1,0.1,8.2,0.7,12.4c-28,0-56.3,0-81.8-0.1
			l2.4-0.1C-19,374.8-19,373.5-19,372.2z M33.1,394.7c0.5-3.6,1-7.3,1-11.1c0-2.1-0.2-3.9-0.5-5.8c23.4,0,47.4,0,70,0
			c0.5,3.6,0.8,7.5,0.8,11.9c0,3.7-0.3,8.5-0.5,12.7l-0.1,2.4c-23.2,0-47.7,0-71.6,0.1C32.1,401.6,32.6,398.2,33.1,394.7z
			 M62.6,363.8l0-2.5c0-3.8-0.1-7.5-0.6-11.3c29.3,0.1,57.9,0.1,82.1,0.2c0,8.5,0,17.3-0.5,25.9l2.8,0.1c0.4-8.6,0.5-17.4,0.5-26
			c34.3,0.1,59.3,0.1,63.8,0.2c1.8,0,3.7,0.1,5.7,0.1c0,0,0,0,0,0.1h0.3c0.3,2.2,0.7,8.3,0.7,12c0,4.2-0.2,9.8-0.4,13.9
			c-6,0-15.2,0-27-0.1c0,0,0,0,0,0l-0.3,0c-31.2,0-79.6-0.1-128.8-0.1l2.4-0.3C62.6,371.9,62.6,367.9,62.6,363.8z M127.6,322.3
			c26.4,0,49.4,0,65.3,0c0.3,3.9,0.4,7.8,0.4,11.4l0,7.1c0,2.5,0,5,0.2,7.5c-15.4,0-39.3-0.1-67.2-0.1c0.2-2.9,0.4-5.7,0.6-8.6
			c0.4-4.8,0.8-9.7,0.8-14.6C127.7,324,127.6,323.1,127.6,322.3z M135.2,266.2c-0.1-2.8-0.2-5.6-0.2-8.4c0-1,0-2,0.1-3
			c27.8,0,49.9,0,60.5,0c0,3.8-0.1,7.5-0.3,11.3c-0.2,4.2-0.3,8.3-0.3,12.5c0,1.9,0,3.8,0.1,5.6c-18,0-38.5,0-60.2-0.1
			c0.3-2.9,0.5-5.9,0.5-9.5C135.4,271.9,135.3,269.1,135.2,266.2z M133.4,203.9c-22.3,0-48.7,0-75.8,0v-30.2c28.1,0,55.8,0,79.6-0.1
			c-1.4,4.9-1.6,9.9-1.9,14.8c-0.2,5.1-0.5,10.4-2.1,15.5L133.4,203.9z M-54.1,164.2c0-1.9,0.1-3.8,0.1-5.7c0.1-1.9,0.1-3.8,0.1-5.7
			c0-0.6,0-1.1,0-1.7c17.1,0,36.6,0.1,57.1,0.1c0,1-0.1,2-0.1,3c0,3,0.1,5.9,0.3,8.9c0.1,2.9,0.3,5.9,0.3,8.9h2.8
			c0-3.1-0.2-6.1-0.3-9C6.1,160,6,157,6,154.1c0-1,0-2,0.1-3c23.4,0,48.1,0.1,71.8,0.1c-0.1,3.8-0.5,7.8-1,11.7
			c-0.4,3-0.8,6.1-1,9.1l2,0.1c-45.4,0-94.1,0-131.4,0.1l0.1,0C-53.9,169.8-54.1,167.3-54.1,164.2z M30.3,108.4
			c-26.2,0-51.6-0.1-73.8-0.1c-0.6-4.7-1.5-9.3-2.4-13.8c-1-5.3-2-10.7-2.6-16.2c23.8,0,51.8,0,80.5,0.1c-0.1,1.4-0.3,3.5-0.4,7.1
			C31.2,93.3,30.7,105.2,30.3,108.4L30.3,108.4z M-19.3,76.7l1.8-0.1c-0.2-3-0.3-6.2-0.3-9.8c0-4.9,0.2-9.9,0.4-14.8
			c0.2-4.3,0.3-8.8,0.4-13.2c20.5,0,42.5,0,64.3,0c-0.2,5.5-0.3,10.6-0.3,15.3c0,7.9,0.3,15.3,0.8,22.6c-4.3,0-8.7,0-13,0
			c-0.2-0.3-0.5-0.6-1.2-0.6c-0.6-0.1-0.9,0-1.2,0.6C14.6,76.7-2.9,76.7-19.3,76.7z M121.4,38.7c0,12.3,0,25.1,1.4,38l2.8-0.2
			c-1.4-12.8-1.4-25.5-1.4-37.8c39.3,0,68.5-0.1,71.8-0.1c9.6-0.1,21.7-0.1,34.7-0.2c-1.2,7.4-1.6,15-2,22.3
			c-0.3,5.3-0.5,10.7-1.1,16.1l0.7,0.1c-2.4,0-4.8,0-7.1,0c-10.8-0.1-91.2-0.1-170.9-0.2C50,69.4,49.8,62,49.8,54.1
			c0-4.7,0.1-9.8,0.3-15.3C75.1,38.8,99.7,38.7,121.4,38.7z M71.3,37c0-7.2,0.8-14.7,1.6-22c0.2-1.7,0.4-3.5,0.5-5.2
			c48.1,0,91.6,0,110.7,0c-0.2,2.8-0.3,5.7-0.5,8.5c-0.4,6.1-0.8,12.4-0.9,18.6C161.2,37,118.2,37,71.3,37z M276,10.2
			c33.5,0.1,63.7,0.3,69.1,0.4c0.6,5.2,0.6,10.5,0.7,15.5c0,3.4,0.1,6.8,0.3,10.3c-1.5,0-3.1,0-4.6,0c-5,0-34.5,0.1-67.3,0.2
			c0.2-3.2,0.5-6.5,0.9-9.6c0.5-4.8,1-9.8,1-14.6C276.1,11.6,276,10.9,276,10.2z M320.7,38.1c-0.5,6.5-1.4,12.9-2.2,19.2
			c-0.9,6.5-1.8,13.2-2.3,19.9c-27.2-0.1-58.8-0.1-85.6-0.3c0.6-5.4,0.8-10.8,1.1-16.1c0.4-7.4,0.8-15.1,2-22.5
			C264,38.3,298.9,38.2,320.7,38.1z M346,109.6c-6.8-0.2-50.5-0.5-92.2-0.7c0.2-4.4,0.7-8.9,1.1-13.2c0.6-5.5,1.1-11.3,1.2-17
			c40.8,0.1,82.8,0.2,89,0.3c0.4,2.8,0.6,5.9,0.6,9.6c0,2,0,4-0.1,6c0,2-0.1,4-0.1,6C345.5,104,345.7,106.9,346,109.6z M383,131.9
			c0.5,6.2,1,12.4,1.5,18.9c-9.8-0.1-39.9-0.2-74.4-0.4c0.6-4.5,1.2-9.1,1.8-13.6c1.1-8.4,2.2-17.1,3.6-25.6
			c24.1,0.5,46.7,0.9,67.4,1.3l-1.3,0C382,119.2,382.5,125.6,383,131.9z M493.2,150.8c-7.8,0-15.7,0-23.5,0.1
			c-15.6,0.1-31.2,0.1-46.8,0.1c-11.6,0-23.5,0-35.4-0.1c-0.5-6.6-1-12.8-1.5-19c-0.5-6.3-1-12.6-1.5-19.3c30,0.6,55.8,1.1,75.5,1.5
			c11.6,0.2,23.4,0.5,35.1,0.7c-1.4,8.9-2.1,18.4-2.1,28.3C493.1,145.6,493.1,148.2,493.2,150.8z M422.9,152.7c5.6,0,11.3,0,16.9,0
			c-0.1,1.8-0.2,3.8-0.2,6c0,2.2,0.1,4.5,0.1,6.7c0,1.9,0.1,3.7,0.1,5.6c-2.9,0-5.8,0-8.7,0c-32,0-62.6,0.2-92.6,0.7
			c-0.2-3.1-0.3-6.1-0.3-9.2c0-3.3,0.1-6.6,0.4-9.9C376.2,152.6,409,152.7,422.9,152.7z M517.2,173.2c0.1,1.3,0.1,2.5,0.1,3.8
			c0,5.2-0.4,10.5-0.8,15.6c-0.3,4.4-0.6,8.9-0.7,13.3c-32-0.6-63.9-0.7-95.2-0.8c-6.3,0-12.6,0-19-0.1c0.5-5.5,0.9-10.6,1.4-15.8
			c0.5-5.4,1-10.8,1.5-16.6c8.8,0,17.7-0.1,26.7-0.1C459,172.6,487.5,172.8,517.2,173.2z M425.8,254.9c-0.9,0-1.9,0-2.8,0
			c0.5-6.8,1.1-13.8,3.3-20.4l-2.9-0.3c-2.3,6.7-2.9,13.8-3.4,20.7c-2,0-4-0.1-5.9-0.1c-28.1-0.4-56.8-0.8-85.4-1.4
			c0.1-1.7,0.2-3.3,0.2-5c0.2-5.4,0.3-10.9,1.7-16.2c26.7,0.2,53.8,0.9,80,1.6c5.9,0.2,11.8,0.3,17.8,0.5c-0.3,2-0.6,4.1-1,6.1
			c-0.8,4.7-1.6,9.5-1.6,14.2C425.8,254.6,425.8,254.8,425.8,254.9z M333.1,284.6c-3-0.1-21.4-0.2-44.8-0.2V255
			c23.4,0.1,41.9,0.1,44.8,0.2c-0.3,5.3-0.4,10.4-0.4,15.5C332.7,275.3,332.9,279.9,333.1,284.6z M266,253.1c0-0.3,0-0.6,0-0.8
			c0-2.9,0.4-5.9,0.8-8.9c0.4-3,0.8-6.1,0.8-9.2c0-0.7-0.1-1.5-0.1-2.2c26.5,0,48.7,0,50.1,0c3.3,0,6.7,0,10,0.1
			c-1.4,5.4-1.5,10.9-1.7,16.2c0,1.7-0.1,3.3-0.2,5C323.1,253.3,296.3,253.2,266,253.1z M285.4,255v29.4c-8.4,0-17.4-0.1-26.5-0.1
			c-8.5,0-31-0.1-61-0.1c-0.1-1.9-0.1-3.8-0.1-5.6c0-4.1,0.2-8.3,0.3-12.4c0.1-3.8,0.3-7.6,0.3-11.4c1.7,0,2.9,0,3.6,0
			C224.9,254.9,258.1,254.9,285.4,255z M358.6,230.7c-13.7-0.3-27.4-0.4-41-0.4c-1.1,0-13.8,0-31.3,0c2.8-8,3.8-16.3,4.2-24.1
			c32.7,0.1,61.2,0.2,68.1,0.2V230.7z M222.6,172c-4.3,0-8.4,0-12.3,0c-4.3,0-23.6,0-50.9,0c1.7-6.9,2.6-13.9,3.5-20.7
			c26.2,0.1,44.4,0.1,48,0.2c9.6,0.1,20.4,0.3,31.8,0.4c0.2,1.6,0.4,3.2,0.4,5.1c0,2.7-0.3,5.5-0.5,8.2c-0.2,2.2-0.4,4.5-0.4,6.8
			c-5.7,0-11.2,0-16.6,0c0,0,0-0.1,0-0.1L222.6,172C222.6,172,222.6,172,222.6,172z M98.2,91.7c-0.1-2.5-0.2-5.1-0.2-7.6
			c0-2.1,0.1-4,0.2-5.7c23.9,0,46.5,0,65.6,0c-0.3,2.5-0.4,5.3-0.4,8.5c0,2,0,4,0.1,6c0,2,0.1,4,0.1,6c0,2.7-0.2,6.9-0.4,8.8H163
			c0,0.4,0,0.6,0,0.8c-19,0-41.5,0-65.2-0.1c0.4-2.7,0.5-5.6,0.5-9C98.4,96.9,98.3,94.3,98.2,91.7z M212.4,110.3
			c-1.4,7.3-1.8,14.9-2.1,22.2c-0.3,5.6-0.6,11.4-1.3,17.2c-6.3,0-23.9-0.1-48.1-0.1l-0.7-0.1l0,0.1c-10.6,0-22.4,0-35-0.1
			c0-3.5,0-7,0.1-10.4c0-3.5,0.1-6.9,0.1-10.4c0-6.1-0.1-11.7-0.5-18.4C156.7,110.3,187.1,110.3,212.4,110.3z M166.3,92.9
			c0-2-0.1-4-0.1-6c0-3.3,0.2-6,0.4-8.5c28.3,0,48.7,0,54,0.1c10.2,0,21.3,0.1,32.6,0.1c-0.1,5.7-0.6,11.3-1.2,16.8
			c-0.4,4.4-0.9,8.9-1.1,13.4c-11-0.1-21.8-0.1-31.7-0.2c-5.2,0-25.3-0.1-53.3-0.1c0.3-1.4,0.4-4.2,0.4-9.6
			C166.4,97,166.4,94.9,166.3,92.9z M335.5,171.6c-5.2,0.1-49.7,0.2-90.7,0.3c0.1-2.2,0.2-4.4,0.4-6.6c0.2-2.7,0.5-5.5,0.5-8.3
			c0-1.8-0.1-3.5-0.4-5.1c28.4,0.3,60.6,0.4,90.2,0.5c-0.2,3.3-0.4,6.6-0.4,9.9C335.2,165.5,335.4,168.6,335.5,171.6z M307.2,150.4
			c-32.5-0.2-68.6-0.4-95.4-0.7c0.7-5.7,1-11.5,1.3-17.1c0.4-7.4,0.8-14.9,2.2-22.3c35.4,0,60.4,0.1,65,0.2
			c11,0.2,21.8,0.4,32.4,0.6c-1.4,8.4-2.5,17-3.6,25.4C308.4,141.2,307.9,145.8,307.2,150.4z M160,151.4c-0.9,6.8-1.8,13.8-3.5,20.7
			c-22.2,0-49.3,0-77.7,0c0.2-2.9,0.6-6,1-8.9c0.5-3.9,1-8,1.1-11.9C109.9,151.3,137.6,151.3,160,151.4z M225.5,177.4
			c0-1.3,0-2.6-0.1-4c5.3,0,10.8-0.1,16.5-0.1c0,0.1,0,0.1,0,0.2h2.8c0-0.1,0-0.1,0-0.2c22.9-0.1,48.2-0.2,72-0.3
			c0.5,5.4,1.4,11.5,1.9,16.4c0.5,4.8,1,9.6,1.5,14.8c-2.7,0-56.1-0.1-97.4-0.2C224.6,195.2,225.5,186.3,225.5,177.4z M323.1,204.2
			c-0.5-5.2-1-10.1-1.5-15c-0.5-4.9-1.4-11-1.9-16.3c36.7-0.1,69.1-0.2,81.7-0.3c-0.5,5.7-1,11.1-1.5,16.5
			c-0.5,5.2-0.9,10.3-1.4,15.8C373.6,204.9,348.4,204.7,323.1,204.2z M272.2,26.7c-0.3,3.3-0.7,6.6-0.9,9.9c-13,0-26.5,0.1-39.1,0.2
			l-1.1-0.1c0,0,0,0.1,0,0.1c-5,0-9.9,0-14.5,0.1c0.5-4.6,1.3-9.3,2-13.9c0.7-4.2,1.4-8.6,1.9-12.9c16.2,0.1,34.8,0.1,52.7,0.2
			c0,0.7,0.1,1.4,0.1,2.1C273.2,17,272.7,21.9,272.2,26.7z M215.8,22.6c-0.8,4.7-1.6,9.5-2.1,14.2c-6,0-11.6,0.1-16.6,0.1
			c-1.2,0-5.2,0-11.5,0c0-6.1,0.4-12.4,0.9-18.4c0.2-2.9,0.4-5.8,0.5-8.7c3.9,0,6.4,0,7.2,0c6.7,0,14.7,0.1,23.4,0.1
			C217.2,14.2,216.5,18.4,215.8,22.6z M70.1,14.8c-0.8,7.3-1.6,14.9-1.6,22.2c-33.3,0-68.3,0-98.8,0.1c-0.7-5.4-0.8-10.7-0.9-16
			c0-3.7-0.1-7.5-0.4-11.4c31.5,0,68,0,102.3,0C70.5,11.5,70.3,13.1,70.1,14.8z M34.5,85.6c0.1-3,0.3-5.8,0.4-7.2
			c20.2,0,40.8,0,60.5,0c-0.1,1.8-0.2,3.6-0.2,5.7c0,2.6,0.1,5.1,0.2,7.7c0.1,2.5,0.2,5.1,0.2,7.6c0,3.4-0.2,6.3-0.5,8.9l0.8,0.1
			c-20.4,0-41.7,0-62.7-0.1C33.5,104.9,34.1,93.7,34.5,85.6z M50,129.5c0.3-6.5,0.7-12.9,0.9-19.3c23.5,0,47.7,0,71,0
			c0.4,6.7,0.5,12.3,0.5,18.4c0,3.4,0,6.9-0.1,10.4c0,3.5-0.1,6.9-0.1,10.4c-22.8,0-48-0.1-73.3-0.1C49.3,142.8,49.7,136.2,50,129.5
			z M138.2,188.5c0.2-4.9,0.5-10,1.9-14.9c36.7,0,63.6-0.1,67.8-0.1c4.6,0,9.5-0.1,14.7-0.1c0,1.3,0.1,2.6,0.1,3.9
			c0,8.9-1,17.8-2.9,26.6c-8.9,0-17.2,0-24.2,0c-3.1,0-26.6,0-59.5,0C137.7,198.8,138,193.6,138.2,188.5z M208.9,218.1
			c0.3-4,0.7-8,0.9-12.1c22.2,0.1,51.2,0.2,77.9,0.3c-0.5,7.9-1.4,16.1-4.3,24.1c-22.9,0-52.7,0-75.4,0
			C208.2,226.2,208.5,222.1,208.9,218.1z M264.7,232.1c0.1,0.7,0.1,1.5,0.1,2.2c0,2.9-0.4,6-0.8,8.9c-0.4,3-0.8,6.1-0.8,9.1
			c0,0.3,0,0.6,0,0.8c-21.4,0-44.2-0.1-61.3-0.1c-2.3,0-11.1,0-24.5,0c0.1-0.6,1-11.2,2.5-20.9c10.4,0,17.2,0,19,0
			C216.9,232.1,242.1,232.1,264.7,232.1z M220.3,286.7c0.9,4.1,1.4,8.5,1.4,13.9c0,3.6-0.2,7.2-0.4,10.7c-0.2,3.1-0.3,6.4-0.3,9.6
			c-2.4,0-4.7,0-6.9-0.1c-2.3,0-8.8,0-18.4-0.1c0-0.1,0-0.1,0-0.2l-2.8,0.2c-9.7,0-22.1,0-36.5-0.1c-0.9-12-1.8-22.9-3.1-34.2
			C178.8,286.6,202,286.6,220.3,286.7z M263.3,322.5c33.4,0.1,64.2,0.2,67.8,0.3c0,8.9,0.5,17.3,0.9,26.3
			c-3.9-0.2-36.1-0.3-70.5-0.5c1.1-5.7,2.2-12.2,2.2-18.9C263.8,327.2,263.6,324.8,263.3,322.5z M346,477.6
			c-4.8-0.2-27.8-0.3-55.5-0.5c0-0.9-0.1-1.8-0.1-2.7c0-5.3,0.6-10.9,1.1-16.3c0.4-3.7,0.8-7.6,1-11.3c26.6,0.1,48.3,0.1,52.7,0.2
			c0.4,2.8,0.6,5.9,0.6,9.6c0,2,0,4-0.1,6c0,2-0.1,4-0.1,6C345.5,472,345.7,474.9,346,477.6z M493.2,518.8c-7.8,0-15.7,0-23.5,0.1
			c-15.6,0.1-31.2,0.1-46.8,0.1c-11.6,0-23.5,0-35.4-0.1c-0.5-6.6-1-12.8-1.5-19c-0.5-6.1-1-12.2-1.5-18.7c32.5,0.3,60.2,0.7,75.5,1
			c11.6,0.2,23.4,0.5,35.1,0.7c-1.4,8.9-2.1,18.4-2.1,28.3C493.1,513.7,493.1,516.2,493.2,518.8z M422.9,520.7c5.6,0,11.3,0,16.9,0
			c-0.1,1.8-0.2,3.8-0.2,6c0,2.2,0.1,4.5,0.1,6.7c0,1.9,0.1,3.7,0.1,5.6c-2.9,0-5.8,0-8.7,0c-32,0-62.6,0.2-92.6,0.7
			c-0.2-3.1-0.3-6.1-0.3-9.2c0-3.3,0.1-6.6,0.4-9.9C376.2,520.7,409,520.7,422.9,520.7z M240.2,518c0.6-4.1,1.4-8.3,2.1-12.3
			c1.6-8.5,3.2-17.3,3.3-26.1c22.5,0.3,47.4,0.6,72.4,0.9c0,0.6,0,1.2,0,1.8c0,9.5-1.4,18.8-2.9,28.6c-0.4,2.4-0.7,4.8-1.1,7.3
			l2.8,0.3c0.3-2.4,0.7-4.8,1.1-7.3c1.4-9.4,2.9-19.2,2.9-28.9c0-0.6,0-1.2,0-1.8c20.8,0.2,41.5,0.4,60.6,0.7
			c0.5,6.5,1,12.7,1.5,18.8c0.5,6.2,1,12.4,1.5,18.9C368.2,518.7,296.2,518.4,240.2,518z M335.5,539.7c-3.7,0.1-27,0.1-54.8,0.2
			c0.2-2.2,0.6-4.5,1-6.9c0.6-3.1,1.2-6.4,1.2-9.6c0-1.1-0.2-2.1-0.3-3.1c17.7,0.1,35.8,0.2,52.9,0.3c-0.2,3.3-0.4,6.6-0.4,9.9
			C335.2,533.5,335.4,536.6,335.5,539.7z M205,476.7c-18.4,0-45.2-0.1-75.6-0.1c-0.4-2.9-0.5-6-0.5-9.6c0-3.5,0.2-7.1,0.3-10.6
			c0.1-3.3,0.3-6.6,0.3-9.9c32.5,0,60.7,0,78.9,0.1c-0.4,3.5-0.9,7-1.5,10.4c-0.9,5.3-1.9,10.8-1.9,16.3
			C204.9,474.3,204.9,475.5,205,476.7z M164.9,517.7c-16.6,0-35.1-0.1-54.7-0.1c0.4-4.7,1.2-9.4,2-13.9c1.1-6,2.3-12.3,2.3-18.5
			c0-2.3-0.2-4.4-0.5-6.4c18.5,0.1,36,0.1,51.5,0.2c-0.1,0.9-0.1,2-0.1,3.5c0,4.6-0.2,9.3-0.4,13.8c-0.2,4.5-0.4,9.2-0.4,13.9
			C164.6,512.9,164.7,515.3,164.9,517.7z M190.1,378c16.8,0,28.5,0,32.5,0c16.6,0.1,35.4,0.1,53.3,0.2c0,0.8-0.1,1.7-0.1,2.5
			c0,2.3,0.1,4.6,0.1,7c0.1,2.3,0.1,4.7,0.1,7c0,3.3-0.1,6.9-0.4,9.9c-16.9,0.1-34.8,0.1-50.8,0.2c-4.6,0-18.6,0-38.3,0.1
			c0-0.9-0.1-2-0.1-2.5c0-3.6,1-7.3,1.9-10.8c1-3.6,1.9-7.4,1.9-11.2C190.3,379.5,190.2,378.7,190.1,378z M248.1,406.4
			c0,12.6,0,25.6-1.8,38.7c-6.6,0-13-0.1-19.1-0.1c-5.4,0-24.8-0.1-51.8-0.1c0.1-2.1,0.1-4.2,0.2-6.3c0.3-10.8,0.7-21.9,2.4-32
			c24.2,0,41.4-0.1,46.6-0.1C232.1,406.5,240,406.4,248.1,406.4z M185.6,391c-1,3.7-2,7.4-2,11.3c0,0.5,0,1.6,0.1,2.5
			c-21,0-48,0.1-77.2,0.1l0.1-2.3c0.2-4.3,0.5-9.1,0.5-12.9c0-4.4-0.3-8.3-0.8-11.9c31.1,0,59.6,0,80.8,0.1c0.1,0.8,0.2,1.5,0.2,2.3
			C187.5,383.9,186.6,387.3,185.6,391z M175.1,406.6c-1.7,10.2-2.1,21.2-2.4,32c-0.1,2.1-0.1,4.2-0.2,6.3c-21.7,0-48-0.1-75.9-0.1
			c-1.3-9-1.4-18.2-1.4-27.1c0-3.7-0.1-7.4-0.2-11.1C124.7,406.6,152.7,406.6,175.1,406.6z M209.6,457.3c0.6-3.5,1.2-7.1,1.6-10.7
			c8.1,0,13.9,0,16.6,0c19.7,0.1,42,0.1,61.8,0.2c-0.2,3.7-0.6,7.5-0.9,11.1c-0.6,5.4-1.1,11-1.1,16.5c0,0.9,0,1.8,0.1,2.7
			c-18.9-0.1-39.8-0.2-58.4-0.4c-3.3,0-10.8,0-21.3-0.1c-0.1-1.2-0.2-2.3-0.2-3.5C207.7,467.9,208.6,462.5,209.6,457.3z
			 M328.1,428.4c-0.6,4.7-1.2,9.6-1.2,14.4c0,0.8,0,1.6,0.1,2.5c-23.6,0-51.9-0.1-77.9-0.2c1.8-13.1,1.8-26.1,1.8-38.7
			c29.6-0.1,60.5-0.2,77.6-0.2c0.5,2.5,0.7,5.1,0.7,8C329.3,418.9,328.7,423.7,328.1,428.4z M278.6,404.5c0.4-3,0.4-6.6,0.4-9.9
			c0-2.3-0.1-4.7-0.1-7c-0.1-2.3-0.1-4.6-0.1-6.9c0-0.8,0-1.7,0.1-2.5c32.4,0.1,61,0.3,66.3,0.4c0.6,5.2,0.6,10.5,0.7,15.5
			c0,3.4,0.1,6.8,0.3,10.3c-1.5,0-3.1,0-4.6,0C336.7,404.4,309.6,404.4,278.6,404.5z M309.7,361.4c-0.5,4.3-1.1,10.1-1.1,15.6
			c-3.7,0-7.5-0.1-11.3-0.1c0.3-2.7,0.9-5.5,1.5-8.2c0.9-4,1.8-8.1,1.8-12.3c0-1.8-0.2-3.4-0.6-5c3.4,0,6.7,0.1,10,0.1
			c0,0.5,0,1,0,1.5c0,1,0.1,2,0.1,3.1C310.1,357.1,309.9,359,309.7,361.4z M297.1,351.5c0.4,1.6,0.6,3.2,0.6,5
			c0,3.9-0.9,7.9-1.7,11.8c-0.6,2.8-1.2,5.7-1.5,8.6c-5.2,0-10.4-0.1-15.7-0.1c0-0.1,0-0.2,0-0.2l-2.8-0.1c0,0.1,0,0.2,0,0.3
			c-18.4-0.1-36.8-0.2-52.9-0.3c-0.8,0-1.9,0-3.2,0c0.2-4,0.4-9.6,0.4-13.9c0-6.5-0.3-10-0.7-12
			C242.5,350.9,270.7,351.2,297.1,351.5z M258.7,348.5c-13.8-0.1-27.9-0.2-40.4-0.2c-0.1,0-0.2,0-0.4,0c-0.1,0-0.2,0-0.4,0
			c-2.3,0-4.6,0-6.8,0c-2,0-7,0-14.5,0c-0.1-2.5-0.2-5-0.2-7.5l0-7.1c0-3.6-0.1-7.4-0.4-11.4c9.6,0,16.2,0,18.7,0
			c14,0.1,30.2,0.1,46,0.2c0.3,2.3,0.5,4.6,0.5,7.1C261,336.3,259.9,342.9,258.7,348.5z M126.6,446.5c0,3.2-0.1,6.5-0.3,9.8
			c-0.2,3.5-0.3,7.1-0.3,10.7c0,3.6,0.2,6.7,0.5,9.6c-22.5,0-46.8-0.1-71.1-0.1c-1.3-9.6-2.7-20.4-2.9-30
			C77.8,446.4,103.2,446.4,126.6,446.5z M69.4,519.4c-0.1,1.5-0.2,3-0.2,4.7c0,2.1,0.1,4.3,0.2,6.4c0.1,2.1,0.2,4.2,0.2,6.3
			c0,1.1,0,2.1-0.1,3.2l2.8,0.1l0,0l0,0l0,0c-26.1,0-52.7,0-77.4,0c0.5-3.6,1.3-7.2,2-10.6c0.7-3.3,1.5-6.8,2-10.2
			C21.4,519.3,45.5,519.4,69.4,519.4z M167.7,517.7c-0.1-2.4-0.2-4.8-0.2-7.6c0-4.6,0.2-9.3,0.4-13.8c0.2-4.5,0.4-9.2,0.4-13.9
			c0-1.9,0-2.9,0.1-3.5c32.3,0.1,55.9,0.2,61.7,0.3c4.1,0.1,8.4,0.1,12.7,0.2c-0.1,8.7-1.7,17.4-3.3,25.8c-0.8,4.2-1.6,8.4-2.2,12.7
			c-2,0-3.9,0-5.8,0C224.9,517.8,200.6,517.8,167.7,517.7z M201.9,538.6c0.4-6.2,0.8-12.6,0.8-18.9c14.5,0,24.7,0.1,28.4,0.1
			c15,0.2,31.7,0.3,48.8,0.4c0.2,1,0.3,2,0.3,3.1c0,3-0.6,6.2-1.2,9.2c-0.4,2.4-0.9,4.9-1.1,7.3c-8.9,0-18.2,0-27.5,0.1
			c0,0,0,0,0-0.1l-2.8-0.5c-0.1,0.2-0.1,0.4-0.1,0.6c-6.9,0-13.7,0-20.2,0.1c-3.7,0-12.7,0-25.5,0L201.9,538.6z M516.5,560.6
			c-0.3,4.4-0.6,8.9-0.7,13.3c-32-0.6-63.9-0.7-95.2-0.8c-6.3,0-12.6,0-19-0.1c0.5-5.5,0.9-10.6,1.4-15.8c0.5-5.4,1-10.8,1.5-16.6
			c8.8,0,17.7-0.1,26.7-0.1c27.8,0,56.3,0.2,86,0.6c0.1,1.3,0.1,2.5,0.1,3.8C517.3,550.2,516.9,555.5,516.5,560.6z M516.4,520.5
			c7.4,0,14.5,0,21.2,0c0,6.3,0,12.9-0.5,19.2c-32.8-0.5-64-0.8-94.4-0.8c0-1.9,0-3.7-0.1-5.6c-0.1-2.2-0.1-4.4-0.1-6.7
			c0-2.2,0.1-4.2,0.2-6c9,0,17.9,0,26.9-0.1C485.3,520.5,500.9,520.5,516.4,520.5z M436.3,446.8c19.4-0.1,39.6-0.3,59.3-0.3
			c16.3,0,31.1,0.1,45,0.3c0,8.2-0.4,16.4-0.9,24.3c-0.2,3.6-0.4,7.3-0.5,11c-26.6-0.7-53.1-1.2-79.1-1.8
			c-5.6-0.1-11.2-0.2-16.8-0.3c-0.1-3.1-0.2-6.5-0.2-10.3c0-3.8,0.1-7.7,0.1-11.5c0.1-3.8,0.1-7.6,0.1-11.4h-3
			c0,3.8-0.1,7.5-0.1,11.3c-0.1,3.8-0.1,7.7-0.1,11.5c0,3.8,0.1,7.2,0.2,10.2c-30.2-0.6-60.8-1.3-91.3-2.3c-0.3-2.7-0.5-5.6-0.5-9.1
			c0-2,0-4,0.1-6c0-2,0.1-4,0.1-6c0-3.7-0.2-6.8-0.5-9.6c10.2,0.1,19.8,0.1,28.8,0.1C396.7,447.1,416.8,446.9,436.3,446.8z
			 M409.7,443.8l0.2,1.5c-11,0.1-22,0.1-32.9,0.1c-6,0-24.1,0-47.1,0c0-0.8-0.1-1.6-0.1-2.5c0-4.7,0.6-9.5,1.2-14.2
			c0.6-4.7,1.2-9.7,1.2-14.5c0-2.9-0.3-5.5-0.7-8c5.1,0,8.6,0,10,0c21.7,0,43.8,1.1,66.5,2.7l-2.1,0.1
			C406.9,420.6,408.2,431.9,409.7,443.8z M349.1,404.5c-0.2-3.5-0.2-6.9-0.3-10.3c-0.1-5-0.1-10.2-0.7-15.4
			c33.2,0.9,66.3,2.2,99.2,3.5c0.2,4,0.6,8,0.9,11.9c0.5,5.3,0.9,10.8,1,16.2C414.5,407.5,381.3,404.8,349.1,404.5z M479.3,383.6
			c20.6,0.9,41,1.9,61.3,2.8c5.1,0.2,10.1,0.5,15.2,0.7h-2.2c0,6.8,0.5,13.9,0.9,20.7c0.2,3.1,0.4,6.1,0.5,9.1
			c-34.2-0.7-68.9-3.6-102.7-6.4c0,0-0.1,0-0.1,0c-0.1-5.6-0.6-11.2-1-16.6c-0.3-3.8-0.7-7.7-0.9-11.6c8.7,0.4,17.3,0.7,25.9,1.1
			c0,0.1,0,0.1,0,0.2L479.3,383.6C479.3,383.6,479.3,383.6,479.3,383.6z M412.5,353.5c0,0.1,0,0.2,0,0.3l3,0.1c0-0.1,0-0.2,0-0.3
			c21.2,0.5,42.3,1,63.3,1.4c-0.2,4.1-0.7,8.2-1.2,12.2c-0.6,4.8-1.1,9.7-1.3,14.6c-32.8-1.5-65.9-2.8-99.1-3.9
			c1.3-8.3,2.7-16.8,3.6-25.3C391.4,352.9,401.9,353.2,412.5,353.5z M377.9,352.5c-0.9,8.4-2.3,17-3.6,25.3c-8-0.3-33-0.5-62.8-0.7
			c0-5.4,0.6-11.2,1.1-15.4c0.3-2.5,0.5-4.4,0.5-5.5c0-1,0-2.1-0.1-3.1c0-0.5,0-0.9,0-1.4C343.5,351.9,369.4,352.2,377.9,352.5z
			 M366,321.9c-13.5-0.2-89.6-0.6-142.1-0.9c0-3.2,0.2-6.4,0.3-9.5c0.2-3.5,0.4-7.2,0.4-10.8c0-5.3-0.4-9.8-1.3-13.9
			c17.6,0.1,30.4,0.1,36.2,0.2c13.4,0.1,27.5,0.3,41.6,0.4c0,1.1-0.1,2.2-0.1,3.3c0,4.2,0.2,8.3,0.3,12.5c0.2,4.1,0.3,8.3,0.3,12.4
			c0,1.8,0,3.6-0.1,5.4l2.8,0.1c0.1-1.8,0.1-3.7,0.1-5.5c0-4.2-0.2-8.3-0.3-12.5c-0.2-4.1-0.3-8.3-0.3-12.4c0-1.1,0-2.2,0.1-3.3
			c21.4,0.2,42.8,0.4,62.2,0.6c-0.4,4.6-0.6,9.4-0.6,14.9C365.5,309.3,365.7,315.7,366,321.9z M336.1,284.7c-0.2-4.7-0.3-9.4-0.3-14
			c0-5.1,0.1-10.2,0.4-15.5c20.4,0.4,40.7,0.7,60.9,1v30C376.8,285.8,356.4,285.3,336.1,284.7z M444.4,289.1c0,11-0.5,22.2-1.4,33.3
			c-4.5,0-9.1,0.1-13.6,0.1c-20,0-40.2-0.2-60.4-0.6c-0.3-6.2-0.5-12.6-0.5-19c0-5.5,0.2-10.3,0.6-14.9c28.9,0.3,52.9,0.6,65.3,0.9
			c4.2,0.1,8.5,0.2,12.8,0.3H444.4z M428.9,256.9c0-0.1,0-0.1,0-0.2c17.2,0.2,34.5,0.5,51.9,0.8c-0.5,5.2-0.9,10.5-1.2,15.8
			c-0.3,5-0.7,9.9-1.2,14.8c-14.7-0.3-29.4-0.7-43.9-1c-11.4-0.3-22.9-0.5-34.5-0.8v-30c4.7,0.1,9.4,0.1,14.1,0.2
			c2,0,3.9,0.1,5.9,0.1c0,0,0,0,0,0l3,0.1c0,0,0,0,0-0.1c1,0,2,0,3,0c0,0.1,0,0.2,0,0.3L428.9,256.9z M545.1,208.3
			c-0.4,3.3-0.6,6.7-0.8,9.9c-0.3,4.9-0.7,10-1.5,14.9c-12.3,0.3-25.2,0.5-38.9,0.5c-16.4,0-33-0.2-49.4-0.6
			c0.4-5.5,1.6-11.2,2.7-16.7c0.6-3,1.2-6,1.7-8.9l-3-0.2c-0.5,2.9-1.1,5.9-1.7,8.9c-1.1,5.5-2.2,11.3-2.7,16.9
			c-13.7-0.3-27.3-0.6-40.7-1c-16.2-0.4-32.7-0.9-49.2-1.2v-24.3c19.8,0.2,39.5,0.3,59,0.3c31.3,0.1,63.2,0.3,95.2,0.8
			c0,0.2,0,0.4,0,0.6h3c0-0.2,0-0.4,0-0.5C527.5,207.8,536.3,208,545.1,208.3z M516.4,152.4c7.4,0,14.5,0,21.2,0
			c0,6.3,0,12.9-0.5,19.2c-32.8-0.5-64-0.8-94.4-0.8c0-1.9,0-3.7-0.1-5.6c-0.1-2.2-0.1-4.4-0.1-6.7c0-2.2,0.1-4.2,0.2-6
			c9,0,17.9,0,26.9-0.1C485.3,152.5,500.9,152.4,516.4,152.4z M436.3,78.8c19.4-0.1,39.6-0.3,59.3-0.3c16.3,0,31.1,0.1,45,0.3
			c0,8.2-0.4,16.4-0.9,24.3c-0.2,3.6-0.4,7.3-0.5,11c-26.6-0.7-53.1-1.2-79.1-1.8c-5.6-0.1-11.2-0.2-16.8-0.3
			c-0.1-3.1-0.2-6.5-0.2-10.3c0-3.8,0.1-7.7,0.1-11.5c0.1-3.8,0.1-7.6,0.1-11.4h-3c0,3.8-0.1,7.5-0.1,11.3
			c-0.1,3.8-0.1,7.7-0.1,11.5c0,3.8,0.1,7.2,0.2,10.2c-30.2-0.6-60.8-1.3-91.3-2.3c-0.3-2.7-0.5-5.6-0.5-9.1c0-2,0-4,0.1-6
			c0-2,0.1-4,0.1-6c0-3.7-0.2-6.8-0.5-9.6c10.2,0.1,19.8,0.1,28.8,0.1C396.7,79.1,416.8,78.9,436.3,78.8z M409.7,75.7l0.2,1.5
			c-11,0.1-22,0.1-32.9,0.1c-7,0-29.8,0-57.8-0.1c0.5-6.6,1.4-13.2,2.3-19.6c0.9-6.3,1.7-12.9,2.2-19.5c9.3,0,15.8,0,17.9,0
			c21.7,0,43.8,1.1,66.5,2.7l-2.1,0.1C406.9,52.6,408.2,63.9,409.7,75.7z M476.3,15.5c0,0.1,0,0.1,0,0.2h3c0,0,0,0,0,0
			c20.6,0.9,41,1.9,61.3,2.8c5.1,0.2,10.1,0.5,15.2,0.7h-2.2c0,6.8,0.5,13.9,0.9,20.7c0.2,3.1,0.4,6.1,0.5,9.1
			c-34.2-0.7-68.9-3.6-102.7-6.4c0,0-0.1,0-0.1,0c-0.1-5.6-0.6-11.2-1-16.6c-0.3-3.8-0.7-7.7-0.9-11.6
			C459,14.7,467.7,15.1,476.3,15.5z M447.4,14.2c0.2,4,0.6,8,0.9,11.9c0.5,5.3,0.9,10.8,1,16.2c-34.9-2.9-68-5.5-100.3-5.9
			c-0.2-3.5-0.2-6.9-0.3-10.3c-0.1-5-0.1-10.2-0.7-15.4C381.3,11.6,414.4,12.8,447.4,14.2z M296.1-17.9c37.7,0.5,71.8,0.9,81.9,1.3
			c-0.9,8.8-2.4,17.7-3.8,26.3c-9.4-0.3-42-0.6-78.4-0.8c0.1-1.5,0.1-3.5,0.1-4.9c0-2.3-0.1-4.6-0.1-7c-0.1-2.3-0.1-4.6-0.1-6.9
			C295.7-12.9,295.8-15.5,296.1-17.9z M206-19.2c23.7,0.4,56.5,0.8,87.3,1.2c-0.3,2.5-0.4,5.1-0.4,8.1c0,2.3,0.1,4.6,0.1,6.9
			c0.1,2.3,0.1,4.6,0.1,6.9c0,1.4,0,3.4-0.1,4.9c-25.4-0.2-52.4-0.3-74.4-0.5l-0.8-0.1c0,0,0,0,0,0c-4.7,0-9.1-0.1-13.2-0.1
			C204.6-0.8,205.1-10.1,206-19.2z M113.4-19.6c44.6,0.1,78.6,0.1,81.7,0.2c2.5,0.1,5.2,0.1,7.9,0.2c-0.9,9.1-1.3,18.4-1.3,27.5
			c-2.6,0-5.2,0-7.6-0.1c-3,0-38.3,0-84.1-0.1c0.3-3.2,0.9-6.5,1.5-9.7c0.9-5,1.9-10.2,1.9-15.5C113.6-17.9,113.5-18.7,113.4-19.6z
			 M15.6-19.7c32.2,0,65.7,0.1,95,0.1c0.1,0.9,0.1,1.7,0.1,2.6c0,5.1-0.9,10.2-1.9,15.1c-0.6,3.3-1.2,6.7-1.6,10
			c-10.8,0-22.2,0-33.9,0l-2.6-0.2c0,0.1,0,0.1,0,0.2c-18.2,0-36.9,0-55.3,0V-19.7z M-33.6,8.1c-17.9,0-34.1,0-47.4,0l1.5,0
			c-0.1-2.9-0.2-5.8-0.2-8.8c0-6.5,0.3-13,0.6-19.1c24,0,57,0.1,91.8,0.1V8.1c-15.4,0-30.4,0-44.4,0c0,0,0-0.1,0-0.1L-33.6,8.1z
			 M-80.4,40.5c0-0.5,0-1.1,0-1.6c16.5,0,37.5,0,60.5,0c0,4.4-0.2,8.8-0.4,13.1c-0.2,4.9-0.4,9.9-0.4,14.9c0,3.6,0.1,6.8,0.3,9.9
			c-9.9,0-19.4,0-28.3,0c0,0,0-0.1,0-0.1l-1.4,0.1c-9.9,0-19,0-27.2,0l1.1-0.1c-0.4-3-0.9-6.1-1.4-9.1C-79,58.2-80.4,49.5-80.4,40.5
			z M-87.5,108.2c0-0.8,0.1-1.7,0.1-2.5c0-5.3-0.6-10.7-1.3-16c-0.4-3.8-0.9-7.7-1.1-11.5c10.5,0,23.6,0,38.4,0
			c0.6,5.6,1.6,11.2,2.6,16.6c0.8,4.4,1.7,8.9,2.3,13.4C-62.2,108.3-76.2,108.2-87.5,108.2z M-71.8,149.2
			c1.4-13.3,1.9-26.4,2.3-39.1c14.7,0,32.2,0,51.3,0.1c-0.6,3-0.8,5.7-0.8,8.9c0,5.5,0.6,11.1,1.3,16.5c0.5,4.4,1,9.1,1.2,13.5
			l2.8-0.1c-0.2-4.5-0.7-9.2-1.2-13.7c-0.6-5.4-1.3-10.9-1.3-16.3c0-3.3,0.3-5.9,0.8-8.9c19.8,0,41.4,0,63.5,0.1
			c-0.2,6.4-0.6,12.8-0.9,19.2c-0.4,6.7-0.7,13.4-0.9,20c-35.7,0-71.4-0.1-100.2-0.1c0,0,0-0.1,0-0.1l-1.8,0.1
			C-61.4,149.2-66.8,149.2-71.8,149.2z M-72.4,203.9c-0.5-5.4-1.7-10.6-2.8-15.7c-1.1-4.7-2.1-9.5-2.6-14.4c16.8,0,37.8,0,60.8-0.1
			v30h2.8v-30c22,0,45.6,0,69-0.1v30.2C8.8,203.9-39,203.9-72.4,203.9z M-30.5,205.7c24.1,0,51,0,77.6,0c-0.3,2.5-0.6,5-0.9,7.5
			c-0.7,5.5-1.5,11.2-1.8,16.9l2.8,0.1c0.3-5.6,1.1-11.2,1.8-16.7c0.3-2.6,0.7-5.2,1-7.7c25.6,0,50.8,0,72.9,0l0,0.2
			c0.5,8,0.9,16.4,1.8,24.3l2.8-0.2c-0.9-7.9-1.4-16.2-1.8-24.2l0,0c38.9,0,67.7,0,70.9,0.1c3.2,0,6.6,0,10.2,0.1
			c-0.2,4.1-0.6,8-0.9,12c-0.3,4.1-0.7,8.2-0.9,12.4c-1.9,0-3.9,0-5.7,0c-9,0-135.8,0-226.1,0c-0.8-4.3-1.4-8.5-2-12.7
			C-29.1,213.8-29.7,209.8-30.5,205.7z M13.3,245.4c-0.2,1.4-0.3,2.4-0.3,2.7c0,0.9,0.1,1.9,0.1,2.8c0,0.7,0.1,1.4,0.1,2.1
			c-25.7,0-50.4,0-71.2,0l2.2-0.2c-0.3-2.6-0.4-5-0.4-7.3l0-3.7c0-2.9-0.1-6.2-0.7-9.6c21,0,45.7,0,71.5,0
			C14.5,237,13.7,242.4,13.3,245.4z M99.2,253c-14.4,0-29.5,0-44.7,0l-2.6-0.2c0,0.1,0,0.1,0,0.2c-12,0-24.1,0-35.9,0
			c0-0.7,0-1.4-0.1-2.2c0-0.9-0.1-1.8-0.1-2.7c0-0.3,0.1-1.2,0.3-2.4c0.4-3.1,1.2-8.5,1.3-13.6c27.1,0,55.1,0,80.9,0
			c0.1,1.7,0.2,3.3,0.4,5c0.3,4.1,0.7,8.3,0.7,12.4C99.3,250.7,99.3,251.8,99.2,253z M102.1,253c0.1-1.1,0.1-2.3,0.1-3.4
			c0-4.2-0.3-8.5-0.7-12.6c-0.1-1.6-0.3-3.3-0.4-4.9c30.8,0,58,0,76,0c-1.5,9.9-2.5,20.7-2.5,20.8l1.4,0.1
			C157.7,253,131.5,253,102.1,253z M75,286.3c25.8,0.1,51.6,0.1,75.4,0.2c1.3,11.3,2.2,22.3,3.1,34.2c-22.9,0-50.4-0.1-78.8-0.1
			c0.1-1,0.1-2.6,0.1-5.1c0-2.9-0.1-5.9-0.1-8.8c-0.1-2.9-0.1-5.8-0.1-8.8C74.5,293.5,74.6,289.8,75,286.3z M73.2,322.3
			c0.3,0,0.5,0,0.7-0.1c17.6,0,34.8,0,50.9,0c0,0.9,0.1,1.8,0.1,2.7c0,4.8-0.4,9.7-0.8,14.4c-0.3,2.9-0.5,5.8-0.7,8.8
			c-51.7,0-116.3-0.1-165.5-0.1c-0.1-1-0.1-2.1-0.1-3.1c0-1.9,0.1-3.8,0.1-5.8c0.1-1.9,0.1-3.9,0.1-5.8c0-3.1-0.2-7-1.2-11.1
			c24.5,0,53,0,82,0c1.5,6,1.7,12.2,1.7,18.3c0,2.5,0.1,5,0.2,7.5l2.8-0.1c-0.1-2.5-0.2-4.9-0.2-7.4c-0.1-6-0.2-12.2-1.7-18.2
			C52.2,322.2,62.8,322.2,73.2,322.3L73.2,322.3z M-0.1,286.1c23,0.1,47.6,0.1,72.3,0.2c-0.4,3.4-0.5,7.2-0.5,11.6
			c0,2.9,0.1,5.9,0.1,8.8c0.1,2.9,0.1,5.8,0.1,8.8c0,1.5,0,3.3,0,4.4h-0.1l0,0.7c-23.4,0-47.3,0-70-0.1c-0.2-4.4-0.6-8.8-1-13.1
			c-0.5-5.6-1.1-11.3-1.1-17C-0.3,289-0.2,287.6-0.1,286.1z M-73,320.5l1.4,0c-0.4-9.2-0.3-18.8-0.3-28.1l0-6.4
			c19.1,0.1,42.9,0.1,68.9,0.2c-0.1,1.4-0.2,2.9-0.2,4.3c0,5.8,0.6,11.6,1.1,17.2c0.4,4.2,0.8,8.6,1,12.9c-15,0-29.3,0-42.5-0.1
			c0,0,0-0.1,0-0.1l-0.5,0.1C-54.5,320.5-64.3,320.5-73,320.5z M-52.5,375.9l-1.4,0.2c-13,0-24.7,0-34.2,0l1.1-0.3
			c-1.5-4.8-1.9-9.7-2.3-14.5c-0.3-3.8-0.8-7.7-1.6-11.6c17.4,0.1,42.1,0.1,70.2,0.2c0,3.5-0.3,7-0.5,10.4
			c-0.3,3.9-0.5,7.9-0.5,11.9c0,1.3,0,2.6,0.1,4c-10.8,0-21.1,0-30.7,0C-52.5,376.1-52.5,376-52.5,375.9z M-49.5,405.1l2-0.5
			c-2.1-5.9-2.8-12.1-3.5-18c-0.3-2.9-0.7-5.8-1.2-8.8c24.2,0,53.1,0,83,0c0.3,1.8,0.5,3.7,0.5,5.8c0,3.6-0.5,7.3-1,10.8
			c-0.5,3.5-1,7-1,10.6C1,405-26.3,405-49.5,405.1z M-14.2,446.4c20.2,0,42,0,63.9,0c0.2,9.7,1.6,20.4,2.9,30
			c-22.7,0-45.3-0.1-66.3-0.1c0-3.8-0.1-7.7-0.3-11.5c-0.2-4.3-0.3-8.6-0.3-12.9C-14.3,450.1-14.3,448.2-14.2,446.4z M-24.1,478.4
			c20,0.1,41.7,0.1,63.9,0.2c1.5,15.5,6.1,37.9,6.2,38.1c0,0.2,0,0.5-0.1,0.8c-25.5,0-50.6-0.1-73.2-0.1c0.3-4.7,0.9-9.4,1.4-14
			c0.9-7.6,1.8-15.4,1.8-23.1C-24.1,479.6-24.1,479-24.1,478.4z M-81.3,517.2l1.1-0.3c-4-9.4-5.3-19.4-6.6-29
			c-0.4-3.2-0.9-6.5-1.4-9.7c15.8,0.1,37.1,0.2,61.2,0.2c0,0.6,0,1.2,0,1.9c0,7.6-0.9,15.4-1.8,22.9c-0.5,4.7-1.1,9.5-1.4,14.2
			C-49.6,517.3-67.2,517.3-81.3,517.2z M-46.8,540.2c-7.7,0-15,0-21.8,0c-0.6-5.1-0.9-9.6-0.9-13.7c0-2.6,0.2-5.1,0.4-7.4
			c18.4,0.1,40.8,0.1,65.1,0.2c-0.5,3.3-1.2,6.6-1.9,9.8c-0.8,3.6-1.6,7.3-2.1,11.1c-12.6,0-24.7,0-36,0c0,0,0-0.1,0-0.1h-2.8
			C-46.8,540.1-46.8,540.1-46.8,540.2z M-44.2,572c-0.6-3-0.9-6.2-0.9-9.9c0-3.6,0.3-7.3,0.5-10.9c0.2-3.1,0.4-6.2,0.5-9.4
			c20.8,0,44.5-0.1,69-0.1c-0.1,1.8-0.1,3.7-0.1,5.5c0,3,0.1,6.1,0.2,9.2c0.1,3,0.2,6.1,0.2,9.1c0,2,0,4-0.1,6l2.8,0.1
			c0.1-2,0.1-4,0.1-6c0-3-0.1-6.1-0.2-9.2c-0.1-3-0.2-6.1-0.2-9.1c0-1.8,0-3.7,0.1-5.5c25.4,0,51.6-0.1,76.5-0.1
			c-1.1,7.5-2.1,16.3-2.1,24.9c0,1.6,0,3.2,0.1,4.8l2.8-0.1c-0.1-1.6-0.1-3.1-0.1-4.7c0-8.6,1.1-17.4,2.1-24.9
			c22.4,0,43.6,0,61.9-0.1c-0.1,4.7-0.3,9.4-0.7,14c-0.3,5.1-0.7,10.4-0.7,15.6h2.8c0-5.1,0.4-10.4,0.7-15.5
			c0.3-4.6,0.6-9.4,0.7-14.1c30.2,0,52.2-0.1,58.2-0.1c5.5,0,11.2-0.1,17.1-0.1c-1.7,7.5-2.3,15.2-2.8,22.7
			c-0.2,2.7-0.4,5.4-0.6,8.1c-6.7,0-13.4,0-19.9,0C206,572,50.5,572-44.2,572z"/>
	</g>
	<g style="opacity:0.5;">
		<g style="opacity:0.2;">
			<path style="fill:#2BA5DF;" d="M566.9,483c-8.9-0.3-17.9-0.5-26.8-0.8c0.2-3.7,0.3-7.4,0.5-11c0.4-7.9,0.9-16.2,0.9-24.3
				c8.8,0.2,17.2,0.4,25.4,0.6V483z"/>
			<path style="fill:#2BA5DF;" d="M438.1,152.6c-0.1,1.8-0.2,3.8-0.2,6c0,2.2,0.1,4.5,0.1,6.7c0,1.9,0.1,3.7,0.1,5.6
				c-2.9,0-5.8,0-8.6,0c-31.9,0-62.4,0.2-92.3,0.7c-0.2-3.1-0.3-6.1-0.3-9.2c0-3.5,0.1-7,0.4-10.4l-3-0.1c-0.2,3.5-0.4,7-0.4,10.5
				c0,3.1,0.1,6.2,0.3,9.3c-9.5,0.2-441.1,0.4-450.5,0.6v-21.4c18.5,0.7,129.5,0.3,245.9,0.6c132.4,0.3,271.9,1.3,291.5,1.3
				C426.9,152.7,432.5,152.6,438.1,152.6z"/>
			<path style="fill:#2BA5DF;" d="M344.5,394.2c0,3.4,0.1,6.8,0.3,10.3c-1.5,0-3.1,0-4.6,0c-11.5,0-445,0.3-456.4,0.8v-27.5
				c12.6,0.2,447.4,0.5,460,0.9C344.3,383.9,344.4,389.1,344.5,394.2z"/>
			<path style="fill:#2BA5DF;" d="M400,205c0.5-5.5,0.9-10.6,1.4-15.8c0.5-5.4,1-10.8,1.5-16.6c8.8,0,17.6-0.1,26.6-0.1
				c27.7,0,56.1,0.2,85.7,0.6c0.1,1.3,0.1,2.5,0.1,3.8c0,5.2-0.4,10.5-0.8,15.6c-0.3,4.4-0.6,8.9-0.7,13.3
				c-31.9-0.6-63.7-0.7-94.8-0.8C412.6,205,406.3,205,400,205z"/>
			<path style="fill:#2BA5DF;" d="M331.4,270.7c0,4.6,0.1,9.2,0.3,13.9c-8.6-0.2-439.4-0.5-448-0.7v-29.2c8.6,0.2,439.4,0.4,448,0.6
				C331.6,260.5,331.4,265.6,331.4,270.7z"/>
			<path style="fill:#2BA5DF;" d="M516.6,321.3c1.2-4.7,2-9.5,2.8-14.1c0.9-5.3,1.7-10.7,3.2-15.9l-2.9-0.3
				c-1.5,5.3-2.4,10.7-3.2,16c-0.8,4.7-1.6,9.6-2.8,14.4c-23.2,0.6-46.3,0.9-69.4,1c0.9-11.1,1.4-22.2,1.4-33.3
				c40,0.9,80.8,1.9,121.3,3.1v27.4C550.1,320.3,533.4,320.9,516.6,321.3z"/>
			<path style="fill:#2BA5DF;" d="M478.9,257.5c-0.5,5.2-0.9,10.5-1.2,15.8c-0.3,5-0.7,9.9-1.2,14.8c-14.7-0.3-29.3-0.7-43.7-1
				c-11.4-0.3-22.8-0.5-34.3-0.8v-30c4.7,0.1,9.4,0.1,14,0.2c1.9,0,3.9,0.1,5.9,0.1c0,0,0,0,0,0l3,0.1c0,0,0,0,0-0.1c1,0,2,0,3,0
				c0,0.1,0,0.2,0,0.3l3-0.1c0-0.1,0-0.1,0-0.2C444.3,256.9,461.6,257.2,478.9,257.5z"/>
			<path style="fill:#2BA5DF;" d="M566.9,257.9c-12.7-0.4-25.5-0.8-38.3-1.1c0-1.1-0.1-2.2-0.1-3.3c0-3,0.2-6.2,0.3-9.2
				c0.2-3,0.3-6.1,0.3-9.1h-3c0,3-0.2,6.1-0.3,9.1c-0.2,3-0.3,6.2-0.3,9.3c0,1.1,0.1,2.1,0.1,3.2c-33-0.8-65.9-1.3-98.4-1.8
				c0-0.2,0-0.3,0-0.5c0-4.6,0.8-9.4,1.6-14c0.4-2.1,0.7-4.2,1-6.2c23.9,0.6,48.2,1.1,72.3,1.1c23.5,0,45-0.5,64.9-1.5V257.9z"/>
			<path style="fill:#2BA5DF;" d="M514.4,520.5c7.4,0,14.4,0,21.2,0c0,6.3,0,12.9-0.4,19.2c-32.6-0.5-63.8-0.8-94-0.8
				c0-1.9,0-3.7-0.1-5.6c-0.1-2.2-0.1-4.4-0.1-6.7c0-2.2,0.1-4.2,0.2-6c8.9,0,17.8,0,26.8-0.1C483.4,520.5,498.9,520.5,514.4,520.5z
				"/>
			<path style="fill:#2BA5DF;" d="M418.9,574.8c31.2,0.1,62.9,0.3,94.8,0.8c0,0.2,0,0.4,0,0.6h3c0-0.2,0-0.4,0-0.5
				c8.8,0.2,17.5,0.3,26.3,0.6c-0.1,0.6-0.1,1.2-0.2,1.7h-86.2c0.2-0.9,0.3-1.7,0.5-2.6l-3-0.2c-0.1,0.9-0.3,1.8-0.5,2.7h-93.4v-3.5
				C379.9,574.7,399.5,574.8,418.9,574.8z"/>
			<path style="fill:#2BA5DF;" d="M493.2,482.8c-1.4,8.9-2.1,18.4-2.1,28.3c0,2.6,0.1,5.1,0.2,7.7c-7.8,0-15.6,0-23.4,0.1
				c-15.5,0.1-31.1,0.1-46.6,0.1c-11.6,0-23.4,0-35.3-0.1c-0.5-6.6-1-12.8-1.5-19c-0.5-6.3-1-12.6-1.5-19.3l-3,0.1
				c0.5,6.7,1,13,1.5,19.3c0.5,6.2,1,12.4,1.5,18.9c-25.1-0.2-473.1-0.7-499.2-1.8v-39.1c27.2,1.1,176,0.4,315.8,1.1
				c121,0.6,235.4,2.6,258.6,3.1C469.8,482.3,481.5,482.6,493.2,482.8z"/>
			<path style="fill:#2BA5DF;" d="M566.9,115c-8.9-0.3-17.9-0.5-26.8-0.8c0.2-3.7,0.3-7.4,0.5-11c0.4-7.9,0.9-16.2,0.9-24.3
				c8.8,0.2,17.2,0.4,25.4,0.6V115z"/>
			<path style="fill:#2BA5DF;" d="M375.4,79.1c19.7,0,39.8-0.1,59.1-0.3c19.4-0.1,39.4-0.3,59.1-0.3c16.2,0,31,0.1,44.8,0.3
				c0,8.2-0.4,16.4-0.9,24.3c-0.2,3.6-0.4,7.3-0.5,11c-26.5-0.7-52.9-1.2-78.8-1.8c-5.6-0.1-11.1-0.2-16.7-0.3
				c-0.1-3.1-0.2-6.5-0.2-10.3c0-3.8,0.1-7.7,0.1-11.5c0.1-3.8,0.1-7.6,0.1-11.4h-3c0,3.8-0.1,7.5-0.1,11.3
				c-0.1,3.8-0.1,7.7-0.1,11.5c0,3.8,0.1,7.2,0.2,10.2c-30.1-0.6-60.5-1.3-91-2.3c-0.3-2.7-0.5-5.6-0.5-9.1c0-2,0-4,0.1-6
				c0-2,0.1-4,0.1-6c0-3.7-0.2-6.8-0.5-9.6C356.9,79,366.5,79.1,375.4,79.1z"/>
			<path style="fill:#2BA5DF;" d="M375.4,447.1c19.7,0,39.8-0.1,59.1-0.3c19.4-0.1,39.4-0.3,59.1-0.3c16.2,0,31,0.1,44.8,0.3
				c0,8.2-0.4,16.4-0.9,24.3c-0.2,3.6-0.4,7.3-0.5,11c-26.5-0.7-52.9-1.2-78.8-1.8c-5.6-0.1-11.1-0.2-16.7-0.3
				c-0.1-3.1-0.2-6.5-0.2-10.3c0-3.8,0.1-7.7,0.1-11.5c0.1-3.8,0.1-7.6,0.1-11.4h-3c0,3.8-0.1,7.5-0.1,11.3
				c-0.1,3.8-0.1,7.7-0.1,11.5c0,3.8,0.1,7.2,0.2,10.2c-30.1-0.6-60.5-1.3-91-2.3c-0.3-2.7-0.5-5.6-0.5-9.1c0-2,0-4,0.1-6
				c0-2,0.1-4,0.1-6c0-3.7-0.2-6.8-0.5-9.6C356.9,447.1,366.5,447.1,375.4,447.1z"/>
			<path style="fill:#2BA5DF;" d="M398.4,557.2c-0.5,5.2-0.9,10.3-1.4,15.8c-24.8-0.1-50-0.3-75.1-0.7c-0.5-5.2-1-10.1-1.5-15
				c-0.5-5-1-9.9-1.5-15.3l-3,0.1c0.5,5.4,1,10.4,1.5,15.3c0.5,4.8,1,9.6,1.4,14.8c-4.3-0.1-430.8-0.2-435.1-0.3v-30
				c30.6-0.7,483.9-1.1,516.1-1.3C399.4,546.4,398.9,551.8,398.4,557.2z"/>
			<path style="fill:#2BA5DF;" d="M344.5,26.1c0,3.4,0.1,6.8,0.3,10.3c-1.5,0-3.1,0-4.6,0c-11.5,0-445,0.3-456.4,0.8V9.7
				c12.6,0.2,447.4,0.5,460,0.9C344.3,15.8,344.4,21.1,344.5,26.1z"/>
			<path style="fill:#2BA5DF;" d="M553.6,19.1h-2.2c0,6.8,0.5,13.9,0.9,20.7c0.2,3.1,0.4,6.1,0.5,9.1c-34.1-0.7-68.6-3.6-102.2-6.4
				c0,0-0.1,0-0.1,0c-0.1-5.6-0.6-11.2-1-16.6c-0.3-3.8-0.7-7.7-0.9-11.6c8.6,0.4,17.2,0.7,25.8,1.1c0,0.1,0,0.1,0,0.2h3
				c0,0,0,0,0,0c20.5,0.9,40.9,1.9,61.1,2.8C543.5,18.6,548.6,18.9,553.6,19.1z"/>
			<path style="fill:#2BA5DF;" d="M515.1,541.2c0.1,1.3,0.1,2.5,0.1,3.8c0,5.2-0.4,10.5-0.8,15.6c-0.3,4.4-0.6,8.9-0.7,13.3
				c-31.9-0.6-63.7-0.7-94.8-0.8c-6.3,0-12.6,0-18.9-0.1c0.5-5.5,0.9-10.6,1.4-15.8c0.5-5.4,1-10.8,1.5-16.6
				c8.8,0,17.6-0.1,26.6-0.1C457.2,540.6,485.6,540.8,515.1,541.2z"/>
			<path style="fill:#2BA5DF;" d="M474.4,383.5c0,0.1,0,0.1,0,0.2h3c0,0,0,0,0,0c20.5,0.9,40.9,1.9,61.1,2.8
				c5,0.2,10.1,0.5,15.2,0.7h-2.2c0,6.8,0.5,13.9,0.9,20.7c0.2,3.1,0.4,6.1,0.5,9.1c-34.1-0.7-68.6-3.6-102.2-6.4c0,0-0.1,0-0.1,0
				c-0.1-5.6-0.6-11.2-1-16.6c-0.3-3.8-0.7-7.7-0.9-11.6C457.2,382.7,465.8,383.1,474.4,383.5z"/>
			<path style="fill:#2BA5DF;" d="M538.5,152.5c10.1,0,19.4,0.1,28.4,0.2v19.5c-9.7-0.2-19.3-0.3-28.8-0.5
				C538.5,165.4,538.5,158.9,538.5,152.5z"/>
			<path style="fill:#2BA5DF;" d="M538.5,520.5c10.1,0,19.4,0.1,28.4,0.2v19.5c-9.7-0.2-19.3-0.3-28.8-0.5
				C538.5,533.4,538.5,526.9,538.5,520.5z"/>
			<path style="fill:#2BA5DF;" d="M566.9-11V18c-9.4-0.4-18.8-0.9-28.1-1.3c-20.3-0.9-40.7-1.9-61.3-2.8c0.1-4.9,0.7-9.8,1.2-14.6
				c0.5-4,1-8.2,1.2-12.3l-3-0.1c-0.2,4.1-0.7,8.2-1.2,12.3c-0.6,4.8-1.1,9.7-1.2,14.6c-32.7-1.5-65.6-2.8-98.7-3.9
				c1.4-8.6,2.8-17.5,3.7-26.3c51.2,2,102.5,3.4,152.7,4.6C543.8-11.6,555.3-11.3,566.9-11z"/>
			<path style="fill:#2BA5DF;" d="M493.2,114.8c-1.4,8.9-2.1,18.4-2.1,28.3c0,2.6,0.1,5.1,0.2,7.7c-7.8,0-15.6,0-23.4,0.1
				c-15.5,0.1-31.1,0.1-46.6,0.1c-11.6,0-23.4,0-35.3-0.1c-0.5-6.6-1-12.8-1.5-19c-0.5-6.3-1-12.6-1.5-19.3l-3,0.1
				c0.5,6.7,1,13,1.5,19.3c0.5,6.2,1,12.4,1.5,18.9c-25.1-0.2-473.1-0.7-499.2-1.8v-39.1c65.4-1,262.3-0.7,409,0.9
				c80.2,0.8,147.7,3,165.4,3.3C469.8,114.3,481.5,114.6,493.2,114.8z"/>
			<path style="fill:#2BA5DF;" d="M-116.2,407c11.4-0.5,444.9-0.8,456.4-0.8c21.6,0,43.6,1.1,66.3,2.7l-2,0.1
				c0.9,11.7,2.3,23,3.7,34.8l0.2,1.5c-10.9,0.1-21.9,0.1-32.8,0.1c-20.3,0-466.3-0.1-491.7-0.9V407z"/>
			<path style="fill:#2BA5DF;" d="M353.9-28.1c-0.4,2.9-0.7,5.8-1.1,8.7c-15.6-0.7-453.5-1.5-469-2.4v-21.8h471.7
				C355.2-38.5,354.5-33.2,353.9-28.1z"/>
			<path style="fill:#2BA5DF;" d="M532.3-13.6c-10.1-0.3-20.3-0.5-30.4-0.8c0.7-4.8,1-9.5,1.3-14.1c0.3-5,0.6-10,1.4-15.2h62.2v30.9
				C555.4-13,543.8-13.3,532.3-13.6z"/>
			<path style="fill:#2BA5DF;" d="M545.7,578c0.1-0.6,0.1-1.1,0.2-1.7c7,0.2,14,0.4,21,0.7v1H545.7z"/>
			<path style="fill:#2BA5DF;" d="M-116.2,38.9c11.4-0.5,444.9-0.8,456.4-0.8c21.6,0,43.6,1.1,66.3,2.7l-2,0.1
				c0.9,11.7,2.3,23,3.7,34.8l0.2,1.5c-10.9,0.1-21.9,0.1-32.8,0.1c-20.3,0-466.3-0.1-491.7-0.9V38.9z"/>
			<path style="fill:#2BA5DF;" d="M-116.2,322.1c7.9,0.3,438.1,0.5,446.1,0.7c0,8.9,0.5,17.3,0.9,26.3c-8.3-0.4-438.7-0.8-447-1.2
				V322.1z"/>
			<path style="fill:#2BA5DF;" d="M333.8,349.2c25.7,1.1,51.5,1.9,77.2,2.5c0.3-3.6,0.6-7.1,1-10.6c0.6-5.4,1.3-11,1.3-16.6h3
				c0,5.7-0.7,11.3-1.3,16.8c-0.4,3.4-0.8,7-1,10.5c39.7,1,79.4,1.7,118.4,2.6c11.5,0.3,23,0.6,34.5,0.9v-33.9
				c-3.5,0.1-7,0.3-10.5,0.4c0,1.1,0.1,2.2,0.1,3.3c0,4.3-0.3,8.7-0.6,13c-0.3,4.2-0.6,8.6-0.6,12.9c0,1.2,0,2.5,0.1,3.7l-3,0
				c-0.1-1.2-0.1-2.5-0.1-3.8c0-4.3,0.3-8.7,0.6-13c0.3-4.2,0.6-8.6,0.6-12.9c0-1,0-2.1-0.1-3.1c-12.4,0.4-24.8,0.8-37.3,1.1
				c0,0,0,0.1,0,0.1l-1.2-0.1c-29.2,0.7-58.3,1.1-87.2,1.1c-20.2,0-40.6-0.2-61-0.6l-2.1,0c0,0,0,0,0-0.1
				c-10.6-0.2-21.2-0.4-31.8-0.7C332.8,331.7,333.3,340.2,333.8,349.2z M481.9,352.9l0.2-1.2c1.4-9.2,2.9-18.7,5.3-27.9l2.9,0.3
				c-2.4,9.1-3.8,18.6-5.3,27.8l-0.2,1.2L481.9,352.9z"/>
			<path style="fill:#2BA5DF;" d="M326.3,232.1c-1.4,5.4-1.5,10.9-1.7,16.2c0,1.7-0.1,3.3-0.2,5c-6.2-0.1-434.5-0.3-440.7-0.4v-20.8
				c3.4,0,429.1,0,432.6,0C319.7,232,323,232.1,326.3,232.1z"/>
			<path style="fill:#2BA5DF;" d="M555.8,417c-0.2-3.1-0.3-6.1-0.5-9.2c-0.4-6.8-0.9-13.8-0.9-20.6c4.2,0.2,8.3,0.4,12.5,0.6v29.4
				C563.2,417.1,559.5,417.1,555.8,417z"/>
			<path style="fill:#2BA5DF;" d="M379.4,352.6c10.5,0.3,21,0.6,31.5,0.9c0,0.1,0,0.2,0,0.3l3,0.1c0-0.1,0-0.2,0-0.3
				c21.1,0.5,42.1,1,63.1,1.4c-0.2,4.1-0.7,8.2-1.2,12.2c-0.6,4.8-1.1,9.7-1.2,14.6c-32.7-1.5-65.6-2.8-98.7-3.9
				C377.1,369.5,378.4,361,379.4,352.6z"/>
			<path style="fill:#2BA5DF;" d="M566.9,207.3c-16.7-0.6-33.4-1-50.1-1.3c0.1-4.4,0.4-8.9,0.7-13.3c0.4-5.2,0.8-10.5,0.8-15.7
				c0-1.3,0-2.5-0.1-3.8c15.9,0.2,32.1,0.5,48.7,0.8V207.3z"/>
			<path style="fill:#2BA5DF;" d="M357.1,230.7c-13.6-0.3-27.3-0.4-40.8-0.4c-3.5,0-429.2,0-432.6,0v-24.7
				c17.1,0.4,456.4,0.6,473.4,0.8V230.7z"/>
			<path style="fill:#2BA5DF;" d="M566.9,232.1c-7.5,0.4-15.3,0.7-23.2,0.9c0.8-4.9,1.1-9.9,1.5-14.8c0.2-3.3,0.5-6.6,0.8-9.9
				c7,0.2,14,0.4,21,0.7V232.1z"/>
		</g>
		<g style="opacity:0.1;">
			<path style="fill:#2BA5DF;" d="M230.8,60.9c0.4-7.4,0.8-15.1,2-22.5c30.2-0.1,64.9-0.2,86.7-0.3c-0.5,6.5-1.3,12.9-2.2,19.2
				c-0.9,6.5-1.8,13.2-2.3,19.9c-27.1-0.1-58.6-0.1-85.3-0.3C230.3,71.6,230.6,66.2,230.8,60.9z"/>
			<path style="fill:#2BA5DF;" d="M165.4,108.5c0.3-1.4,0.4-4.2,0.4-9.6c0-2,0-4-0.1-6c0-2-0.1-4-0.1-6c0-3.3,0.2-6,0.4-8.5
				c28.2,0,48.5,0,53.8,0.1c10.1,0,21.2,0.1,32.4,0.1c-0.1,5.7-0.6,11.3-1.2,16.8c-0.4,4.4-0.9,8.9-1.1,13.4
				c-11-0.1-21.7-0.1-31.6-0.2C213.3,108.6,193.3,108.6,165.4,108.5z"/>
			<path style="fill:#2BA5DF;" d="M110.2-19.6c0.1,0.9,0.1,1.7,0.1,2.6c0,5.1-0.9,10.2-1.9,15.1c-0.6,3.3-1.2,6.7-1.6,10
				c-10.8,0-22.1,0-33.7,0l-2.6-0.2c0,0.1,0,0.1,0,0.2c-18.1,0-36.8,0-55.1,0v-27.8C47.6-19.7,81-19.7,110.2-19.6z"/>
			<path style="fill:#2BA5DF;" d="M217,8.3C217,8.3,217,8.4,217,8.3c-4.6,0-9.1,0-13.2,0c0-9.1,0.5-18.3,1.3-27.5
				c23.6,0.4,56.3,0.8,87,1.2c-0.3,2.5-0.4,5.1-0.4,8.1c0,2.3,0.1,4.6,0.1,6.9c0.1,2.3,0.1,4.6,0.1,6.9c0,1.4,0,3.4-0.1,4.9
				c-25.3-0.2-52.1-0.3-74.1-0.5L217,8.3z"/>
			<path style="fill:#2BA5DF;" d="M230.2,36.6c0,0,0,0.1,0,0.1c-5,0-9.9,0-14.5,0.1c0.5-4.6,1.3-9.3,2-13.9
				c0.7-4.2,1.4-8.6,1.9-12.9c16.2,0.1,34.7,0.1,52.5,0.2c0,0.7,0.1,1.4,0.1,2.1c0,4.7-0.5,9.7-1,14.4c-0.3,3.3-0.7,6.6-0.9,9.9
				c-13,0-26.4,0.1-38.9,0.2L230.2,36.6z"/>
			<path style="fill:#2BA5DF;" d="M258,284.3c-8.5,0-30.9-0.1-60.7-0.1c-0.1-1.9-0.1-3.8-0.1-5.6c0-4.1,0.2-8.3,0.3-12.4
				c0.1-3.8,0.3-7.6,0.3-11.4c1.7,0,2.9,0,3.5,0c22.8,0.1,55.9,0.1,83.1,0.2v29.4C275.9,284.4,267,284.3,258,284.3z"/>
			<path style="fill:#2BA5DF;" d="M208.1,218.1c0.3-4,0.7-8,0.9-12.1c22.1,0.1,51,0.2,77.6,0.3c-0.5,7.9-1.4,16.1-4.3,24.1
				c-22.8,0-52.5,0-75.1,0C207.4,226.2,207.7,222.1,208.1,218.1z"/>
			<path style="fill:#2BA5DF;" d="M194.9,320.8c0-0.1,0-0.1,0-0.2l-2.8,0.2c-9.7,0-22.1,0-36.3-0.1c-0.9-12-1.8-22.9-3-34.2
				c25.4,0.1,48.5,0.1,66.8,0.2c0.9,4.1,1.4,8.5,1.4,13.9c0,3.6-0.2,7.2-0.4,10.7c-0.2,3.1-0.3,6.4-0.3,9.6c-2.4,0-4.7,0-6.9-0.1
				C210.9,320.8,204.5,320.8,194.9,320.8z"/>
			<path style="fill:#2BA5DF;" d="M209.5,172c-4.3,0-23.5,0-50.7,0c1.7-6.9,2.6-13.9,3.5-20.7c26.1,0.1,44.2,0.1,47.8,0.2
				c9.6,0.1,20.3,0.3,31.7,0.4c0.2,1.6,0.4,3.2,0.4,5.1c0,2.7-0.3,5.5-0.5,8.2c-0.2,2.2-0.4,4.5-0.4,6.8c-5.6,0-11.2,0-16.5,0
				c0,0,0-0.1,0-0.1l-2.8,0.1c0,0,0,0,0,0C217.5,172,213.4,172,209.5,172z"/>
			<path style="fill:#2BA5DF;" d="M184.9,36.9c0-6.1,0.4-12.4,0.9-18.4c0.2-2.9,0.4-5.8,0.5-8.7c3.9,0,6.4,0,7.1,0
				c6.6,0,14.6,0.1,23.3,0.1c-0.5,4.2-1.2,8.5-1.9,12.6c-0.8,4.7-1.6,9.5-2.1,14.2c-6,0-11.6,0.1-16.5,0.1
				C195.2,36.9,191.2,36.9,184.9,36.9z"/>
			<path style="fill:#2BA5DF;" d="M122.4,76.7l2.8-0.2c-1.4-12.8-1.4-25.5-1.4-37.8c39.2,0,68.2-0.1,71.5-0.1
				c9.6-0.1,21.6-0.1,34.6-0.2c-1.2,7.4-1.6,15-1.9,22.3c-0.3,5.3-0.5,10.7-1.1,16.1l0.7,0.1c-2.4,0-4.7,0-7,0
				c-10.7-0.1-90.8-0.1-170.2-0.2c-0.5-7.3-0.8-14.7-0.8-22.6c0-4.7,0.1-9.8,0.3-15.3c24.9,0,49.4,0,71.1,0
				C121,51.1,121,63.8,122.4,76.7z"/>
			<path style="fill:#2BA5DF;" d="M181.6-35.9c0.3,4.7,0.7,9.6,1.5,14.6c-18.5,0-56-0.1-98.3-0.1c0.4-7.3,0.7-14.8,0.8-22.1H181
				C181.2-41,181.4-38.4,181.6-35.9z"/>
			<path style="fill:#2BA5DF;" d="M32,78.4c-0.1,1.4-0.3,3.5-0.4,7.1c-0.4,7.9-1,19.7-1.4,22.9l0,0c-26.1,0-51.4-0.1-73.5-0.1
				c-0.6-4.7-1.5-9.3-2.4-13.8c-1-5.3-2-10.7-2.6-16.2C-24.5,78.3,3.3,78.3,32,78.4z"/>
			<path style="fill:#2BA5DF;" d="M124.8,139.1c0-3.5,0.1-6.9,0.1-10.4c0-6.1-0.1-11.7-0.5-18.4c31.8,0,62,0,87.2,0.1
				c-1.4,7.3-1.8,14.9-2.1,22.2c-0.3,5.6-0.6,11.4-1.3,17.2c-6.2,0-23.8-0.1-47.9-0.1l-0.7-0.1l0,0.1c-10.5,0-22.3,0-34.8-0.1
				C124.8,146,124.8,142.5,124.8,139.1z"/>
			<path style="fill:#2BA5DF;" d="M155.9,172.1c-22.1,0-49.1,0-77.4,0c0.2-2.9,0.6-6,0.9-8.9c0.5-3.9,1-8,1-11.9
				c29.1,0,56.7,0.1,78.9,0.1C158.5,158.2,157.6,165.2,155.9,172.1z"/>
			<path style="fill:#2BA5DF;" d="M136.7,173.7c-1.4,4.9-1.6,9.9-1.9,14.8c-0.2,5.1-0.5,10.4-2.1,15.5l0.1,0c-22.2,0-48.5,0-75.5,0
				v-30.2C85.5,173.7,113,173.7,136.7,173.7z"/>
			<path style="fill:#2BA5DF;" d="M185.9,404.8c0-0.9-0.1-2-0.1-2.5c0-3.6,1-7.3,1.9-10.8c0.9-3.6,1.9-7.4,1.9-11.2
				c0-0.8-0.1-1.6-0.2-2.3c16.7,0,28.4,0,32.4,0c16.5,0.1,35.3,0.1,53.1,0.2c0,0.8-0.1,1.7-0.1,2.5c0,2.3,0.1,4.6,0.1,7
				c0.1,2.3,0.1,4.7,0.1,7c0,3.3-0.1,6.9-0.4,9.9c-16.8,0.1-34.7,0.1-50.6,0.2C219.5,404.8,205.6,404.8,185.9,404.8z"/>
			<path style="fill:#2BA5DF;" d="M15.9,250.8c0-0.9-0.1-1.8-0.1-2.7c0-0.3,0.1-1.2,0.3-2.4c0.4-3.1,1.2-8.5,1.3-13.6
				c27,0,54.9,0,80.5,0c0.1,1.7,0.2,3.3,0.4,5c0.3,4.1,0.7,8.3,0.7,12.4c0,1.2,0,2.3-0.1,3.4c-14.3,0-29.3,0-44.5,0l-2.6-0.2
				c0,0.1,0,0.1,0,0.2c-12,0-24,0-35.8,0C16,252.2,16,251.5,15.9,250.8z"/>
			<path style="fill:#2BA5DF;" d="M14.6,232.1c-0.1,4.9-0.8,10.3-1.3,13.3c-0.2,1.4-0.3,2.4-0.3,2.7c0,0.9,0.1,1.9,0.1,2.8
				c0,0.7,0.1,1.4,0.1,2.1c-25.6,0-50.2,0-70.9,0l2.2-0.2c-0.3-2.6-0.4-5-0.4-7.3l0-3.7c0-2.9-0.1-6.2-0.7-9.6
				C-35.7,232.1-11.1,232.1,14.6,232.1z"/>
			<path style="fill:#2BA5DF;" d="M-3,290.4c0,5.8,0.6,11.6,1.1,17.2c0.4,4.2,0.8,8.6,1,12.9c-14.9,0-29.2,0-42.4-0.1
				c0,0,0-0.1,0-0.1l-0.5,0.1c-10.4,0-20.1,0-28.7,0l1.4,0c-0.4-9.2-0.3-18.8-0.3-28.1l0-6.4c19,0.1,42.7,0.1,68.7,0.2
				C-2.9,287.6-3,289-3,290.4z"/>
			<path style="fill:#2BA5DF;" d="M-90.6,349.8c17.3,0.1,42,0.1,69.9,0.2c0,3.5-0.3,7-0.5,10.4c-0.3,3.9-0.5,7.9-0.5,11.9
				c0,1.3,0,2.6,0.1,4c-10.8,0-21.1,0-30.6,0c0-0.1,0-0.1,0-0.2l-1.4,0.2c-13,0-24.6,0-34.1,0l1.1-0.3c-1.5-4.8-1.9-9.7-2.3-14.5
				C-89.3,357.6-89.7,353.7-90.6,349.8z"/>
			<path style="fill:#2BA5DF;" d="M-16.9,173.8v30h2.8v-30c21.9,0,45.4,0,68.7-0.1v30.2c-45.8,0-93.4,0-126.6,0
				c-0.5-5.4-1.7-10.6-2.8-15.7c-1.1-4.7-2.1-9.5-2.6-14.4C-60.8,173.8-39.8,173.8-16.9,173.8z"/>
			<path style="fill:#2BA5DF;" d="M217.1,348.3c-0.1,0-0.2,0-0.4,0c-2.3,0-4.6,0-6.8,0c-2,0-7,0-14.4,0c-0.1-2.5-0.2-5-0.2-7.5
				l0-7.1c0-3.6-0.1-7.4-0.4-11.4c9.6,0,16.2,0,18.7,0c14,0.1,30.1,0.1,45.8,0.2c0.3,2.3,0.5,4.6,0.5,7.1c0,6.7-1.1,13.3-2.2,18.9
				c-13.8-0.1-27.8-0.2-40.3-0.2C217.3,348.3,217.2,348.3,217.1,348.3z"/>
			<path style="fill:#2BA5DF;" d="M-20.1,51.9c-0.2,4.9-0.4,9.9-0.4,14.9c0,3.6,0.1,6.8,0.3,9.9c-9.9,0-19.3,0-28.2,0
				c0,0,0-0.1,0-0.1l-1.4,0.1c-9.9,0-18.9,0-27.1,0l1.1-0.1c-0.4-3-0.9-6.1-1.4-9.1c-1.5-9.2-2.9-17.9-2.9-26.9c0-0.5,0-1.1,0-1.6
				c16.4,0,37.3,0,60.2,0C-19.8,43.2-20,47.6-20.1,51.9z"/>
			<path style="fill:#2BA5DF;" d="M-10.6-31.4c0,3.2,0.1,6.5,0.3,9.8c-4.5,0-8.8,0-13.2,0c0.2-3.7,0.7-7.6,1.1-11.5
				c0.4-3.5,0.8-7.1,1.1-10.6h10.2C-10.7-39.5-10.6-35.4-10.6-31.4z"/>
			<path style="fill:#2BA5DF;" d="M-69.2,110.1c14.7,0,32,0,51.1,0.1c-0.6,3-0.8,5.7-0.8,8.9c0,5.5,0.6,11.1,1.3,16.5
				c0.5,4.4,1,9.1,1.2,13.5l2.8-0.1c-0.2-4.5-0.7-9.2-1.2-13.7c-0.6-5.4-1.3-10.9-1.3-16.3c0-3.3,0.3-5.9,0.8-8.9
				c19.7,0,41.2,0,63.2,0.1c-0.2,6.4-0.6,12.8-0.9,19.2c-0.4,6.7-0.7,13.4-0.9,20c-35.6,0-71.1-0.1-99.8-0.1c0,0,0-0.1,0-0.1
				l-1.8,0.1c-5.6,0-11,0-16,0C-70.1,135.8-69.6,122.8-69.2,110.1z"/>
			<path style="fill:#2BA5DF;" d="M228.3,476.7c-3.3,0-10.7,0-21.3-0.1c-0.1-1.2-0.2-2.3-0.2-3.5c0-5.3,0.9-10.7,1.9-15.9
				c0.6-3.5,1.2-7.1,1.6-10.7c8.1,0,13.8,0,16.5,0c19.6,0.1,41.8,0.1,61.6,0.2c-0.2,3.7-0.6,7.5-0.9,11.1c-0.6,5.4-1.1,11-1.1,16.5
				c0,0.9,0,1.8,0.1,2.7C267.6,477,246.9,476.9,228.3,476.7z"/>
			<path style="fill:#2BA5DF;" d="M192.2,322.3c0.3,3.9,0.4,7.8,0.4,11.4l0,7.1c0,2.5,0,5,0.2,7.5c-15.3,0-39.1-0.1-67-0.1
				c0.2-2.9,0.4-5.7,0.6-8.6c0.4-4.8,0.8-9.7,0.8-14.6c0-0.9,0-1.8-0.1-2.7C153.5,322.3,176.4,322.3,192.2,322.3z"/>
			<path style="fill:#2BA5DF;" d="M-47.2,404.6c-2-5.9-2.8-12.1-3.5-18c-0.3-2.9-0.7-5.8-1.2-8.8c24.1,0,52.9,0,82.6,0
				c0.3,1.8,0.5,3.7,0.5,5.8c0,3.6-0.5,7.3-1,10.8c-0.5,3.5-1,7-1,10.6c-28.1,0-55.3,0.1-78.4,0.1L-47.2,404.6z"/>
			<path style="fill:#2BA5DF;" d="M297.6,368.8c0.9-4,1.8-8.1,1.8-12.3c0-1.8-0.2-3.4-0.6-5c3.4,0,6.7,0.1,10,0.1c0,0.5,0,1,0,1.5
				c0,1,0.1,2,0.1,3.1c0,1-0.2,2.9-0.5,5.3c-0.4,4.3-1.1,10.1-1.1,15.6c-3.7,0-7.4-0.1-11.2-0.1
				C296.5,374.2,297.1,371.5,297.6,368.8z"/>
			<path style="fill:#2BA5DF;" d="M201,540l0.1-1.4c0.4-6.2,0.8-12.6,0.8-18.9c14.5,0,24.6,0.1,28.3,0.1c15,0.2,31.6,0.3,48.6,0.4
				c0.2,1,0.3,2,0.3,3.1c0,3-0.6,6.2-1.2,9.2c-0.4,2.4-0.9,4.9-1.1,7.3c-8.9,0-18.2,0-27.4,0.1c0,0,0,0,0-0.1l-2.8-0.5
				c-0.1,0.2-0.1,0.4-0.1,0.6c-6.9,0-13.6,0-20.1,0.1C222.8,540,213.8,540,201,540z"/>
			<path style="fill:#2BA5DF;" d="M-72,526.5c0,4.1,0.3,8.6,0.9,13.7c-26.8,0-44.3,0-45.1,0.1v-21.4c2.4,0.1,19.3,0.2,44.6,0.3
				C-71.9,521.4-72,523.9-72,526.5z"/>
			<path style="fill:#2BA5DF;" d="M-81.3,448.8c0,3.4-0.2,6.9-0.4,10.2c-0.2,3.4-0.4,6.8-0.4,10.3c0,2.4,0.1,4.6,0.3,6.6l2.8-0.2
				c-0.2-2-0.3-4.1-0.3-6.4c0-3.4,0.2-6.9,0.4-10.2c0.2-3.4,0.4-6.9,0.4-10.4c0-0.8,0-1.6-0.1-2.5c16.8,0,38.1,0,61.6,0.1
				c-0.1,1.9-0.1,3.7-0.1,5.6c0,4.3,0.2,8.6,0.3,12.9c0.1,3.8,0.2,7.6,0.3,11.5c-55.1-0.1-98-0.1-99.8-0.2v-29.9
				c0.9,0,14.1,0.1,34.9,0.1C-81.4,447.1-81.3,447.9-81.3,448.8z"/>
			<path style="fill:#2BA5DF;" d="M-44.5,333.2c0,1.9-0.1,3.9-0.1,5.8c-0.1,1.9-0.1,3.9-0.1,5.8c0,1.1,0,2.1,0.1,3.1
				c-41.1,0-70.8-0.1-71.5-0.1v-25.8c0.8,0,29.9,0.1,70.5,0.1C-44.7,326.2-44.5,330.2-44.5,333.2z"/>
			<path style="fill:#2BA5DF;" d="M-47.1,551.1c-0.3,3.6-0.5,7.3-0.5,11c0,3.6,0.3,6.9,0.9,9.9c-40.4,0-69,0-69.5,0v-30
				c2.6-0.1,30.6-0.1,69.6-0.2C-46.7,544.9-46.9,548-47.1,551.1z"/>
			<path style="fill:#2BA5DF;" d="M-91.8,361.5c0.4,4.7,0.9,9.7,2.3,14.5c-15.7,0-25.7,0-26.8-0.1v-26.4c0.9,0,9.3,0.1,22.8,0.1
				C-92.5,353.7-92.1,357.7-91.8,361.5z"/>
			<path style="fill:#2BA5DF;" d="M-36.2,444.3h2.8c0-12.4,0-25.1,0.9-37.5c17,0,35.5,0,54.6-0.1c0,1.8-0.1,3.6-0.1,5.4
				c0,9.5,0.6,19.6,2,32.6c-72.3-0.1-136.8-0.2-140.3-0.3V407c1.3-0.1,35.1-0.1,80.9-0.2C-36.2,419.2-36.2,431.9-36.2,444.3z"/>
			<path style="fill:#2BA5DF;" d="M-89.2,488.1c1.3,9.6,2.6,19.6,6.6,29.1c-19.5-0.1-32.1-0.1-33.6-0.2v-39.1
				c1.9,0.1,11.2,0.2,25.6,0.2C-90.1,481.5-89.6,484.9-89.2,488.1z"/>
			<path style="fill:#2BA5DF;" d="M-33.8,21.1c0.1,5.2,0.1,10.5,0.9,15.9c-46.9,0-82.5,0.1-83.3,0.1V9.7c0.8,0,35.8,0,82,0
				C-33.9,13.6-33.9,17.4-33.8,21.1z"/>
			<path style="fill:#2BA5DF;" d="M-91.1,90c0.6,5.2,1.2,10.5,1.2,15.7c0,0.8,0,1.7-0.1,2.5c-15.8,0-25.7-0.1-26.4-0.1V78.2
				c0.7,0,9.6,0,24.1,0.1C-92,82.2-91.5,86.1-91.1,90z"/>
			<path style="fill:#2BA5DF;" d="M-82.1-0.8c0,3,0.1,5.9,0.2,8.8c-20.5,0-33.6,0-34.4,0v-28c0.8,0,14.1,0.1,34.7,0.1
				C-81.8-13.9-82.1-7.3-82.1-0.8z"/>
			<path style="fill:#2BA5DF;" d="M-56.4,152.7c0,1.9-0.1,3.8-0.1,5.7c-0.1,1.9-0.1,3.9-0.1,5.8c0,3.1,0.2,5.6,0.6,8
				c-35.1,0-59.4,0-60.2,0.1v-21.4c2.1,0.1,25.9,0.2,59.8,0.2C-56.4,151.6-56.4,152.1-56.4,152.7z"/>
			<path style="fill:#2BA5DF;" d="M-16.6,263.2c-0.4,5.3-0.8,10.8-0.8,16.2c0,1.4,0,2.8,0.1,4.2l2.8-0.1c-0.1-1.4-0.1-2.8-0.1-4.2
				c0-5.3,0.4-10.8,0.8-16.1c0.2-2.9,0.4-5.8,0.6-8.6c20.7,0,42.9,0,64.9,0c-0.3,4-0.4,8.3-0.4,13.7c0,2.6,0,5.2,0.1,7.8
				c0,2.6,0.1,5.2,0.1,7.8h2.8c0-2.6,0-5.2-0.1-7.8c0-2.6-0.1-5.2-0.1-7.8c0-5.5,0.1-9.8,0.4-13.7c27.3,0,54.2,0,77.3,0
				c0,1-0.1,2-0.1,3c0,2.9,0.1,5.7,0.2,8.5c0.1,2.8,0.2,5.6,0.2,8.4c0,3.6-0.2,6.6-0.5,9.5c-108.2-0.1-245-0.2-247.8-0.3v-29.2
				c0.8,0,45,0,100.2,0.1C-16.2,257.5-16.4,260.3-16.6,263.2z"/>
			<path style="fill:#2BA5DF;" d="M-85,208.9c0,4.6,1.1,9.3,2.1,13.8c0.6,2.4,1.1,4.8,1.5,7.1l2.8-0.3c-0.4-2.4-1-4.9-1.5-7.3
				c-1-4.4-2.1-8.9-2.1-13.3c0-1.1,0.1-2.2,0.3-3.2c13.5,0,30.3,0,48.8,0c0.8,4.1,1.4,8.2,1.9,12.2c0.5,4,1.1,8.2,1.9,12.4
				c-9.7,0-19,0-27.6,0c0,0,0,0,0,0l-0.2,0c-34.8,0-58.9,0-59.1,0v-24.7c0.6,0,12.6,0,31.5,0C-84.9,206.7-85,207.8-85,208.9z"/>
			<path style="fill:#2BA5DF;" d="M106.2,404.9l0.1-2.3c0.2-4.3,0.5-9.1,0.5-12.9c0-4.4-0.3-8.3-0.8-11.9c31,0,59.4,0,80.5,0.1
				c0.1,0.8,0.2,1.5,0.2,2.3c0,3.6-0.9,7-1.9,10.7c-1,3.7-1.9,7.4-1.9,11.3c0,0.5,0,1.6,0.1,2.5
				C162.2,404.9,135.3,404.9,106.2,404.9z"/>
			<path style="fill:#2BA5DF;" d="M126.2,446.5c0,3.2-0.1,6.5-0.3,9.8c-0.2,3.5-0.3,7.1-0.3,10.7c0,3.6,0.2,6.7,0.5,9.6
				c-22.4,0-46.6-0.1-70.9-0.1c-1.3-9.6-2.7-20.4-2.9-30C77.6,446.4,102.9,446.4,126.2,446.5z"/>
			<path style="fill:#2BA5DF;" d="M59.6,361.3l0,2.5c0,4.1,0.1,8.2,0.7,12.4c-27.9,0-56.1,0-81.5-0.1l2.4-0.1
				c-0.1-1.3-0.1-2.6-0.1-3.9c0-3.9,0.3-7.9,0.5-11.7c0.2-3.4,0.4-7,0.5-10.5c24.2,0,50.7,0.1,76.9,0.1
				C59.5,353.8,59.6,357.6,59.6,361.3z"/>
			<path style="fill:#2BA5DF;" d="M39.7,478.6c1.5,15.5,6.1,37.9,6.2,38.1c0,0.2,0,0.5-0.1,0.8c-25.4,0-50.4-0.1-72.9-0.1
				c0.3-4.7,0.9-9.4,1.4-14c0.9-7.6,1.8-15.4,1.8-23.1c0-0.6,0-1.2,0-1.9C-4.1,478.5,17.6,478.5,39.7,478.6z"/>
			<path style="fill:#2BA5DF;" d="M-79.8,516.9c-4-9.4-5.3-19.4-6.6-29c-0.4-3.2-0.9-6.5-1.4-9.7c15.8,0.1,37,0.2,61,0.2
				c0,0.6,0,1.2,0,1.9c0,7.6-0.9,15.4-1.8,22.9c-0.5,4.7-1.1,9.5-1.4,14.2c-19.4,0-36.9-0.1-51-0.1L-79.8,516.9z"/>
			<path style="fill:#2BA5DF;" d="M68.9,524.1c0,2.1,0.1,4.3,0.2,6.4c0.1,2.1,0.2,4.2,0.2,6.3c0,1.1,0,2.1-0.1,3.2l2.8,0.1
				c-26,0-52.5,0-77.1,0c0.5-3.6,1.3-7.2,2-10.6c0.7-3.3,1.5-6.8,2-10.2c22.5,0.1,46.5,0.1,70.2,0.2C69,520.9,68.9,522.4,68.9,524.1
				z"/>
			<path style="fill:#2BA5DF;" d="M174.7,444.9c0.1-2.1,0.1-4.2,0.2-6.3c0.3-10.8,0.7-21.9,2.4-32c24.1,0,41.3-0.1,46.4-0.1
				c7.5,0,15.4-0.1,23.4-0.1c0,12.6,0,25.6-1.8,38.7c-6.5,0-12.9-0.1-19-0.1C220.9,445,201.6,444.9,174.7,444.9z"/>
			<path style="fill:#2BA5DF;" d="M109.8,517.6c0.4-4.7,1.2-9.4,2-13.9c1.1-6,2.3-12.3,2.3-18.5c0-2.3-0.2-4.4-0.5-6.4
				c18.4,0.1,35.8,0.1,51.3,0.2c-0.1,0.9-0.1,2-0.1,3.5c0,4.6-0.2,9.3-0.4,13.8c-0.2,4.5-0.4,9.2-0.4,13.9c0,2.7,0.1,5.2,0.2,7.6
				C147.8,517.7,129.3,517.6,109.8,517.6z"/>
			<path style="fill:#2BA5DF;" d="M152.9,320.7c-22.9,0-50.2-0.1-78.5-0.1c0.1-1,0.1-2.6,0.1-5.1c0-2.9-0.1-5.9-0.1-8.8
				c-0.1-2.9-0.1-5.8-0.1-8.8c0-4.5,0.2-8.2,0.5-11.6c25.7,0.1,51.4,0.1,75.1,0.2C151.1,297.8,152,308.8,152.9,320.7z"/>
			<path style="fill:#2BA5DF;" d="M101.8,249.5c0-4.2-0.3-8.5-0.7-12.6c-0.1-1.6-0.3-3.3-0.4-4.9c30.7,0,57.8,0,75.6,0
				c-1.5,9.9-2.5,20.7-2.5,20.8l1.4,0.1c-18.2,0-44.4,0-73.7,0C101.8,251.8,101.8,250.7,101.8,249.5z"/>
			<path style="fill:#2BA5DF;" d="M70.4,9.8c-0.2,1.7-0.3,3.3-0.5,5c-0.8,7.3-1.6,14.9-1.6,22.2c-33.1,0-68,0-98.4,0.1
				c-0.7-5.4-0.8-10.7-0.9-16c0-3.7-0.1-7.5-0.4-11.4C0,9.8,36.3,9.8,70.4,9.8z"/>
		</g>
	</g>
	<path style="fill:#2BA5DF;" d="M482.1,352.9l3,0.2l0.2-1.2c1.4-9.1,2.9-18.6,5.2-27.8l-2.9-0.3c-2.4,9.2-3.8,18.7-5.3,27.9
		L482.1,352.9z"/>
</g>
<g>
	<g transform="matrix(0.581707,0,0,0.581707,116.968,458.442)">
		<path style="fill:#075993;" d="M625.4-680.6l-420.5-61.3l-70,551.6l413.6,56.5L625.4-680.6z"/>
	</g>
	<g transform="matrix(0.581707,0,0,0.581707,130.352,500)">
		<path style="fill:#FFFFFF;" d="M589.5-768.3l-420.4-61.4l-70,551.7l413.6,56.5L589.5-768.3z"/>
	</g>
	<g>
		
			<line style="fill:none;stroke:#808080;stroke-width:3.1937;stroke-linecap:round;stroke-linejoin:round;stroke-miterlimit:10;" x1="241.3" y1="128.5" x2="431" y2="154.3"/>
		
			<line style="fill:none;stroke:#808080;stroke-width:3.1937;stroke-linecap:round;stroke-linejoin:round;stroke-miterlimit:10;" x1="243.2" y1="114.9" x2="432.8" y2="140.7"/>
		
			<line style="fill:none;stroke:#808080;stroke-width:3.1937;stroke-linecap:round;stroke-linejoin:round;stroke-miterlimit:10;" x1="239.6" y1="140.6" x2="429.4" y2="166.4"/>
		
			<line style="fill:none;stroke:#808080;stroke-width:3.1937;stroke-linecap:round;stroke-linejoin:round;stroke-miterlimit:10;" x1="236.5" y1="168.2" x2="426.2" y2="194.1"/>
		
			<line style="fill:none;stroke:#808080;stroke-width:3.1937;stroke-linecap:round;stroke-linejoin:round;stroke-miterlimit:10;" x1="238.4" y1="154.7" x2="428" y2="180.5"/>
		
			<line style="fill:none;stroke:#808080;stroke-width:3.1937;stroke-linecap:round;stroke-linejoin:round;stroke-miterlimit:10;" x1="234.8" y1="180.4" x2="424.6" y2="206.2"/>
	</g>
	<g>
		<g>
			<g>
				<path style="fill:#075993;" d="M446.4,81.6c-4.8-15.3-21.1-23.8-36.3-19c-15.3,4.8-23.8,21.1-19,36.3l1.9-0.6
					c-4.5-14.2,3.5-29.4,17.7-33.9c6.9-2.2,14.2-1.5,20.6,1.8c6.4,3.3,11.1,9,13.3,15.9c2.2,6.9,1.5,14.2-1.8,20.6
					c-3.3,6.4-9,11.1-15.9,13.3c-11.5,3.6-24.2-0.9-30.8-11.1l-1.6,1.1c5.4,8.4,14.7,13.2,24.4,13.2c2.9,0,5.8-0.4,8.6-1.3
					c7.4-2.3,13.4-7.4,17-14.2C448,96.9,448.7,89,446.4,81.6z"/>
			</g>
		</g>
		<g>
			<g>
				<path style="fill:#075993;" d="M413,75.1l0.6-1.9l-9.8-2.9c-0.3-0.1-0.7,0-1,0.2l-2,2c-0.2,0.2-0.3,0.6-0.3,0.9
					c0.1,0.3,0.3,0.6,0.6,0.7L410,78l0.8-1.8l-7.5-3.3l0.5-0.5L413,75.1z"/>
			</g>
		</g>
		<g>
			<g>
				<path style="fill:#075993;" d="M422.2,69.2c0-0.5-0.4-1-1-1c0,0,0,0,0,0c-2.2,0-4.2,0.8-5.7,2.4l-8.3,8.3l-3.4-0.8
					c-0.3-0.1-0.7,0-0.9,0.3l-2,2c-0.2,0.2-0.3,0.5-0.3,0.8c0,0.3,0.2,0.6,0.5,0.7l4.7,2.8l2.8,4.7c0.2,0.3,0.4,0.4,0.7,0.5
					c0,0,0.1,0,0.1,0c0.3,0,0.5-0.1,0.7-0.3l2-2c0.2-0.2,0.3-0.6,0.3-0.9l-0.8-3.4l8.5-8.4C421.4,73.4,422.2,71.4,422.2,69.2z
					 M409.7,82.3c-0.2,0.2-0.3,0.6-0.3,0.9l0.8,3.4l-0.7,0.7l-2.3-3.8c-0.1-0.1-0.2-0.3-0.3-0.3l-3.8-2.3l0.7-0.7l3.4,0.8
					c0.3,0.1,0.7,0,0.9-0.3l8.7-8.7c0.9-0.9,2-1.5,3.3-1.7c-0.2,1.2-0.7,2.3-1.6,3.2L409.7,82.3z"/>
			</g>
		</g>
		<g>
			<g>
				<path style="fill:#075993;" d="M420.2,86.7l-2.9-10l-1.9,0.6l2.8,9.3l-0.6,0.5l-3.3-7.6l-1.8,0.8l3.8,8.8
					c0.1,0.3,0.4,0.5,0.7,0.6c0.1,0,0.1,0,0.2,0c0.2,0,0.5-0.1,0.6-0.2l2.1-1.8C420.2,87.5,420.3,87.1,420.2,86.7z"/>
			</g>
		</g>
		<g>
			<g>
				<path style="fill:#075993;" d="M408.4,115.5c-7,3.3-12.5,3.7-15.1,1.2c-4.5-4.5,0.4-17.4,11.2-30.1l-1.5-1.3
					c-11.9,13.9-16.5,27.4-11.1,32.8c1.5,1.5,3.6,2.2,6.2,2.2c3.1,0,6.8-1,11.1-3L408.4,115.5z"/>
			</g>
		</g>
		<g>
			<g>
				<path style="fill:#075993;" d="M441.7,95.3c-0.2-0.3-0.5-0.5-0.9-0.5h-3.3l-2.7-5.4c-0.2-0.3-0.5-0.5-0.9-0.5h-9.8
					c-0.5,0-1,0.4-1,1v7.9c0,0.5,0.4,1,1,1h2.9v10.8c0,0.5,0.4,1,1,1h4.9c0.3,0,0.5-0.1,0.7-0.3l3.9-3.9c0.2-0.2,0.3-0.4,0.3-0.7
					v-3.6l3.8-5.6C441.8,96,441.9,95.6,441.7,95.3z M436.1,101.1c-0.1,0.2-0.2,0.4-0.2,0.5v3.5l-3.4,3.4H429h0V97.7c0-0.5-0.4-1-1-1
					h-2.9v-5.9h8.2l2.7,5.4c0.2,0.3,0.5,0.5,0.9,0.5h2.1L436.1,101.1z"/>
			</g>
		</g>
		<g>
			<g>
				<path style="fill:#075993;" d="M442.4,86.9l-3.6-6.4c-0.2-0.3-0.5-0.5-0.9-0.5H432c-0.3,0-0.6,0.2-0.8,0.4l-1.7,2.5h-2.4v-4.9
					h4.9c0.3,0,0.5-0.1,0.7-0.3l3.6-3.6h4.5v-2h-4.9c-0.3,0-0.5,0.1-0.7,0.3l-3.6,3.6h-5.5c-0.5,0-1,0.4-1,1v6.9c0,0.5,0.4,1,1,1
					h3.9c0.3,0,0.6-0.2,0.8-0.4l1.7-2.5h4.8l3.6,6.4c0.2,0.3,0.5,0.5,0.9,0.5h3.9v-2H442.4L442.4,86.9z"/>
			</g>
		</g>
		<g>
			<g>
				<path style="fill:#075993;" d="M418.2,96.7h-5.5l-2.7-2.7c-0.2-0.2-0.4-0.3-0.7-0.3h-4.9c-0.5,0-1,0.4-1,1v6.9c0,0.5,0.4,1,1,1
					h3.9v9.8c0,0.4,0.2,0.7,0.5,0.9c0.1,0.1,0.3,0.1,0.4,0.1c0.2,0,0.4-0.1,0.6-0.2l3.9-2.9c0.2-0.2,0.4-0.5,0.4-0.8V107l4.5-3.6
					c0.2-0.2,0.4-0.5,0.4-0.8v-4.9C419.2,97.2,418.8,96.7,418.2,96.7z M417.3,102.1l-4.5,3.6c-0.2,0.2-0.4,0.5-0.4,0.8v2.5l-2,1.5
					v-8.8c0-0.5-0.4-1-1-1h-3.9v-4.9h3.5l2.7,2.7c0.2,0.2,0.4,0.3,0.7,0.3h4.9V102.1L417.3,102.1z"/>
			</g>
		</g>
		<g>
			<g>
				<path style="fill:#075993;" d="M398.5,82.5l-2.9-4.9c-0.2-0.3-0.5-0.5-0.8-0.5h-1v2h0.4l2.3,3.8l-2.4,2.4
					c-0.2,0.2-0.3,0.4-0.3,0.7v2.9h-2.9v2h3.9c0.5,0,1-0.4,1-1v-3.5l2.7-2.7C398.6,83.3,398.7,82.8,398.5,82.5z"/>
			</g>
		</g>
		<g>
			<g>
				<path style="fill:#075993;" d="M420.2,62.3v1.2l-3.2,0.8c-0.1,0-0.2,0.1-0.3,0.1l-2.5,1.6l-5.4-2.7l-0.9,1.8l5.9,2.9
					c0.1,0.1,0.3,0.1,0.4,0.1c0.2,0,0.4-0.1,0.5-0.2l2.8-1.9l3.8-0.9c0.4-0.1,0.7-0.5,0.7-1v-2H420.2z"/>
			</g>
		</g>
	</g>
</g>
<g id="XMLID_185_">
	<g>
		<path style="fill:#B5581E;" d="M186.6,124.9c-19.6-5.5-55.6-9.5-75.2-4l0,0c-8.3,3.8-15.9,13.2-12.6,22.1
			c5.2,14,40.5,11.4,52.6,12.4c11.4,0.8,40.7,10.7,48.8,0.2C215,136.5,196.8,127.5,186.6,124.9z M77.3,156.2
			c-1.9-15.8,4.7-41.2,20.8-46.5c20.1-6.8,43.4-4.3,63.4,0c3.2,0.5,7,1,11.2,1.6c13.8,2,31.3,4.9,39.6,12.3
			c8.5,8.2,7.9,25.2,7.3,36.1c-0.3,3.3-3.9,11-5.9,13.1c-3.7,3.8-12.6,2.2-19.4,0.3l0,0.1c-27.4-7.9-60.6-10.1-87.3-6.1
			C94.4,166.7,78.9,170.6,77.3,156.2z"/>
		<path style="fill:#71350A;" d="M98.2,109.7C82,115,75.4,140.4,77.3,156.2c1.6,14.4,17.1,10.5,29.5,10.9c-6.7,1-13,2.4-18.6,4.1
			c-6.1-0.6-11.7-0.5-16.7,0.4c-20.2-2.5-33.4-13.4-18.9-42.8c10.7-21.5,62.8-30.5,120.2-17.5c-4.2-0.6-8-1.1-11.2-1.6
			C141.5,105.4,118.2,102.9,98.2,109.7z"/>
		<path style="fill:#B5581E;" d="M88.2,171.2c1.4,0.1,2.9,0.4,4.5,0.6c-2.5,0.2-5,0.3-7.4,0.4c0.5-0.2,1.1-0.4,1.7-0.6
			C87.4,171.5,87.8,171.4,88.2,171.2z"/>
		<path style="fill:#71350A;" d="M88.2,171.2c-0.5,0.1-0.9,0.3-1.3,0.4c-0.6,0.2-1.1,0.4-1.7,0.6c-4.8,0.1-9.5,0-13.8-0.6
			C76.5,170.7,82.1,170.6,88.2,171.2z"/>
		<path style="fill:#4A5F65;" d="M42,643.6c7.7,0.3,15.5,0.6,23.5,0.9c-1.7,4.3-6,9.4-9.8,9.7c-7.8,1-14.1-3.8-14.4-10.6
			C41.5,643.6,41.7,643.6,42,643.6z"/>
		<path style="fill:#4A5F65;" d="M78,613.9c-2.4-2.2-5.3-9.3-0.6-10.2l0,0c4.4,3.4,9.1,5.9,14,8.7C88.9,616.8,81.4,617.2,78,613.9z"
			/>
		<path style="fill:#74919B;" d="M42,642.9c18.5,0.3,39.2-7.3,56.4-12.9c9.6-3.2,20.1-5.8,30-7.8c1.3-0.3,3.5-1.4,5.3-2.8
			c-1.2,8.4-2.2,16.8-3,25.3c0,0-0.1,0-0.1,0c-20.9,0.5-43.3,0.4-65.1-0.2c-7.9-0.2-15.8-0.5-23.5-0.9L42,642.9z"/>
		<path style="fill:#74919B;" d="M193.4,696l-8.9-6.5c-6-4.7-12.2-10-18.3-15.4c-1.6-1.5-3.2-2.9-4.8-4.3
			c-8.5-7.5-16.8-15-24.7-20.8c0-0.5,0.1-2.5,0.2-3c0.1-1.5,0.3-3.1,0.6-4.7c0.7-3.3,1.2-6.6,1.8-9.8c1.4-6.4,3.8-12,5.7-18.1
			c2.4-0.7,4.6-0.6,6.6,0.2c-0.6,2.1-1.1,4.2-1.6,6.3c4.1,5.1,7.8,10.3,11.2,15.8c12.2,18.9,21.5,39.6,32.1,59.9
			C193.3,695.7,193.3,695.9,193.4,696z"/>
		<path style="fill:#94A7B0;" d="M98.4,630c-17.3,5.6-37.9,13.2-56.4,12.9l0,0.7c-0.2,0-0.5,0-0.7,0c-4.6-0.3-9.2-0.5-13.7-0.8
			l-0.1-0.4c22.5-8.5,48.7-17.9,73.7-23.6c11.5-2.7,22.8-4.5,33.3-5.1c0,0,0,0,0.1,0c-0.3,1.9-0.5,3.7-0.8,5.6
			c-1.7,1.4-4,2.5-5.3,2.8C118.5,624.2,108,626.8,98.4,630z"/>
		<path style="fill:#5F7880;" d="M201.5,632c-3.8,0.5-7.3,1-10.9,1.4c-7.1,0.8-14,1.4-21.6,1.9c-3.7-6.5-8.6-16.3-15.1-20.3
			c17.1,1.4,60.8,9.2,75.1,12c0,0.2,0.1,0.3,0.1,0.5c-4,0.8-7.8,1.4-11.3,2C211.9,630.4,206.5,631.3,201.5,632z"/>
		<path style="fill:#9A4C1E;" d="M271.2,435.6c-19.7-9.2-40.5-18.3-62.5-20.5c0-0.9,0-1.8-0.1-2.8c8.2,1.1,16.3,2.4,24.2,3.9
			c2.5,0.5,5.1,0.9,7.6,1.5c22.2,4.9,39.3,12,58.8,22.3c11,5.3,45.2,29.2,45.4,47.8c0,2.6-0.6,5.2-2.1,7.5
			c-7.9,12-86.7,12.7-101.7,11.1c-28.1-2.6-41.5,0.4-67.5-8.8c-18.5-6.9-49.5-30-62.8-43.5c-8.8-8.1-30.8-28.5-27.6-39.7
			c0.3-0.3,0.5-0.7,0.8-0.9c-0.1-0.2-0.1-0.4-0.2-0.6c1.7-3.1,5.9-5.2,13.6-5.8c0,0,0.1,0,0.1,0c0.4,0,0.8-0.1,1.3-0.1
			c1.1,0,3.1-0.1,5.3-0.3c0.3,0,0.6,0,0.9,0l0,0.2c11.9,16.9,19.5,34.4,35.3,47.6c13.1,11,27.9,18.5,44.1,24.2
			c34.7,12.3,75.8,10.8,111.8,10.4c15.2,0,29.7-2.4,20.2-20.5C306.2,451.5,288.2,443,271.2,435.6z"/>
		<path style="fill:#5F7880;" d="M136.6,649c-2-1.5-4-3-5.9-4.2c0,0,0,0,0-0.1c0.8-8.5,1.8-16.9,3-25.3c2.2-1.8,3.6-4.1,0.8-5.6l0,0
			c0.2-1.1,0.3-2.1,0.5-3.2c0.3-1.8,0.6-3.6,0.8-5.4c3.1-20,6.6-39.9,8.9-60c7.9,3.1,16.6,5.8,25.4,7.8c-5.6,17.4-12,36.3-17.2,55
			c-0.5,1.9-1,3.7-1.5,5.6c-2-0.8-4.3-0.9-6.6-0.2c-1.9,6.1-4.3,11.7-5.7,18.1c-0.6,3.2-1.1,6.5-1.8,9.8c-0.3,1.6-0.5,3.2-0.6,4.7
			C136.7,646.5,136.6,648.5,136.6,649z"/>
		<path style="fill:#94A7B0;" d="M154,614.9c6.5,4,11.4,13.8,15.1,20.3c-2.6,0.2-5.2,0.4-8,0.5c-3.5-5.4-7.2-10.7-11.2-15.8
			c0.5-2.1,1-4.2,1.6-6.3C152.3,614,153.2,614.4,154,614.9z"/>
		<path style="fill:#5F7880;" d="M72,598.9c18.5,2.4,43.9,8.7,62,11.6l1,0.1c-0.1,1.1-0.3,2.1-0.5,3.2c0,0,0,0-0.1,0
			c-10.5,0.6-21.8,2.4-33.3,5.1l-0.1-0.5c-3.2-2.3-6.4-4.2-9.6-6.1c-4.8-2.8-9.5-5.3-14-8.7C75.6,602.3,73.8,600.7,72,598.9z"/>
		<path style="fill:#B5581E;" d="M92.7,171.8c-1.5-0.2-3-0.5-4.5-0.6c5.6-1.8,11.9-3.1,18.6-4.1c26.7-4,59.9-1.8,87.3,6.1
			c12.4,3.6,23.7,8.4,32.5,14.2c20.4,14,16.7,39,16.4,61.6c-0.2,22.7-4,45.6-5.7,68.5c-2.1,32.6-3.3,66.5-4.6,98.7
			c-7.9-1.5-16-2.7-24.2-3.9c-0.9-26.3-1.9-53.5,2.2-78.7c5.2-36.3,12.4-74.1,9.6-111c-2.7-35.7-76.4-42.9-109.9-28.6
			c-23.9,10.4-17.1,31.3-18.2,54.4c-0.9,20.4-0.7,41.8,0.4,62.1c1.7,30.2-1.2,67.2,10.7,95.3c-2.2,0.2-4.4,0.6-6.4,0.9
			c0,0,0,0-0.1,0c-7.7,0.6-11.9,2.7-13.6,5.8c-5.8-16.8-8.2-50.4-10.5-64.9c-3.5-23.8-3.5-48-5.6-72c-1.9-26.3-12.8-91.4,18-103.5
			C87.7,172.1,90.2,172,92.7,171.8z"/>
		<path style="fill:#7F3D13;" d="M240.2,547.2c-47-2.7-95.3-12.3-132.4-36.1c-13.1-8.4-24.9-18.6-34.6-30.9
			c-6.1-19.9-1.9-51.6,9.6-65.9c-3.1,11.2,18.9,31.6,27.6,39.7c13.3,13.5,44.3,36.7,62.8,43.5c26,9.2,39.4,6.2,67.5,8.8
			c15,1.6,93.8,0.9,101.7-11.1c1.5-2.3,2.2-4.9,2.1-7.5l0.4,0c0.5,48.6-39.9,60.8-83.2,60.3C254.6,547.9,247.4,547.7,240.2,547.2z"
			/>
		<path style="fill:#7F3D13;" d="M208.7,415.1c22.1,2.2,42.9,11.3,62.5,20.5c17,7.4,35,15.8,44.8,32.7c9.5,18.1-5,20.5-20.2,20.5
			c-36,0.4-77.1,2-111.8-10.4c-16.1-5.7-31-13.2-44.1-24.2c-15.8-13.3-23.4-30.8-35.3-47.6l0-0.2c-0.3,0-0.6,0-0.9,0
			c-0.1-0.2-0.2-0.4-0.2-0.6c15.6-1.7,35.6-1.1,45.2-0.2c19.4,2.1,40,3.9,59.9,6.6C208.6,413.3,208.6,414.2,208.7,415.1z"/>
		<path style="fill:#4A5F65;" d="M217.8,629.4c0.9,11.7-20.4,11.2-16.3,2.5C206.5,631.3,211.9,630.4,217.8,629.4z"/>
		<path style="fill:#94A7B0;" d="M196,614.5c7,1.5,31.3,3.5,33.1,12.3c-14.3-2.8-58-10.6-75.1-12c-0.8-0.5-1.6-0.9-2.5-1.2
			c0.5-1.9,1-3.7,1.5-5.6C166.9,607.7,182.4,611.2,196,614.5z"/>
		<path style="fill:#94A7B0;" d="M196.5,682.9c1.5,3.9,5.6,14.6-3.3,12.7c-10.6-20.3-19.8-40.9-32.1-59.9c2.8-0.2,5.4-0.3,8-0.5
			c0.7,1.3,1.4,2.5,2,3.5c4.7,7,8.2,14.3,12.5,21.5C188.4,668.3,193.9,673.8,196.5,682.9z"/>
		<path style="fill:#4A5F65;" d="M184.5,689.6c-1.6,5.2-14,2-16.9-1.3c-3.3-4-3.1-9.3-1.5-14.1C172.3,679.6,178.5,684.9,184.5,689.6
			z"/>
		<path style="fill:#74919B;" d="M170.1,553.1c-8.8-2-17.5-4.7-25.4-7.8c-23.2-9.1-40.4-21.9-36.9-34.1
			c37.1,23.8,85.3,33.4,132.4,36.1C230.2,560.2,199.5,560,170.1,553.1z"/>
		<path style="fill:#9A4C1E;" d="M208.6,412.3c-20-2.7-40.5-4.5-59.9-6.6c-9.6-0.9-29.6-1.5-45.2,0.2c-11.9-28.1-8.9-65.1-10.7-95.3
			c-1.2-20.4-1.3-41.8-0.4-62.1c1.1-23.1-5.8-44,18.2-54.4c33.4-14.3,107.1-7.1,109.9,28.6c2.8,36.9-4.4,74.7-9.6,111
			C206.7,358.9,207.7,386,208.6,412.3z"/>
		<path style="fill:#5F7880;" d="M134.5,613.9c2.8,1.5,1.4,3.8-0.8,5.6C134,617.6,134.3,615.7,134.5,613.9z"/>
		<path style="fill:#74919B;" d="M134.5,613.8L134.5,613.8C134.5,613.8,134.5,613.8,134.5,613.8
			C134.5,613.8,134.5,613.8,134.5,613.8z"/>
		<path style="fill:#94A7B0;" d="M135.8,605.2c-0.3,1.8-0.6,3.6-0.8,5.4l-1-0.1c-18-2.9-43.4-9.2-62-11.6l-0.1-0.2
			c10-3.6,19.5-2.3,29.9-0.4C113.1,600.6,124.7,601.7,135.8,605.2z"/>
		<path style="fill:#9A4C1E;" d="M186.6,124.9c10.2,2.5,28.4,11.5,13.6,30.7c-8.2,10.5-37.4,0.6-48.8-0.2
			c-12.1-1.1-47.4,1.6-52.6-12.4c-3.3-8.9,4.3-18.3,12.6-22.1l0,0C131,115.4,166.9,119.5,186.6,124.9z"/>
		<path style="fill:#71350A;" d="M83.4,412.7c-0.2,0.5-0.4,1-0.6,1.5c-11.5,14.3-15.6,46-9.6,65.9c-14.1-17.8-24.1-40-28.3-67.5
			c-7.4-48.8-51.1-228,26.6-241.1c4.3,0.6,9,0.8,13.8,0.6c-30.8,12.1-19.9,77.2-18,103.5c2.1,24,2.1,48.2,5.6,72
			C75.2,362.3,77.6,395.9,83.4,412.7z"/>
	</g>
</g>
<g>
	<g>
		<path style="fill:#37373F;" d="M94.4,86.9c0,0-13.2,1-11.2,18.9s-18.3,4.7-9.1,33.8c5.6,17.9,20.9,12.3,31,17.9
			c6.4,3.5,8.1,22.5,34.6,18.9c26.5-3.6,25.9-4.2,42.2-4.6c23.9-0.5,11.6-11.5,20.3-24.1c4.6-6.6,30.5-19.4,11.7-44
			c-15.8-20.7-3.9-63.2-62.2-54.8C88.9,57.9,94.4,86.9,94.4,86.9z"/>
		<path style="fill:#67CFC6;" d="M178.5,208.6c0,0,30.2,61.3,42.2,88.3s48,51,55,58l12-4c0,0-12.4-25.2-27-43c-9.3-11.3-24-23-24-23
			c-14-114-35-106.8-35-106.8L178.5,208.6z"/>
		<path style="fill:#67CFC6;" d="M110.7,199.2c0,0,41-23.3,91-22.3c0,0,14.4,51.2,16,63c1.6,11.8-8.7,62.5-14,85.5l-74.9-6.6
			C128.8,318.8,117.8,261.2,110.7,199.2z"/>
		<path style="fill:#67CFC6;" d="M110.7,199.2c0,0-54.7,84.9-50.5,119.6c0,0,8.7,7.4,15.4-1.6c7.3-9.7,12-31.7,45.4-77.5
			C121.1,239.7,123.6,210.5,110.7,199.2z"/>
		<path style="fill:#EE8E6F;" d="M126.9,119.2c0,0,21.7,41.9,21.6,68.2l22.9-1.3c0,0,2.4-20.5,9.2-28L126.9,119.2z"/>
		<path style="fill:#F7E8C4;" d="M128.8,318.8c0,0-13.7,31.9-35,74.4c0,0-0.4,95.7,44.3,193L193,592l40-181.9
			c0,0-4.5-39.9-27.5-91.3H128.8z"/>
		<path style="fill:#EE8E6F;" d="M117.7,195.9c0,0,28-17,79-19c0,0-4,31.2-22,37C153,220.9,117.7,195.9,117.7,195.9z"/>
		<path style="fill:#F1A982;" d="M201.8,107.8c0.6,34.8-12.6,66.2-30.6,66.4c-19.6,0.2-50.1-20-50.5-68.9
			c-0.3-34.8,19-50.6,42.6-50.3c15.6,0.2,25.5,3.9,31.8,17.5C198.3,79.5,201.6,95,201.8,107.8z"/>
		<path style="fill:#37373F;" d="M162.7,102.1c0,0-10-2-21.1,3.7c0,0,4.8-8.8,21.6-7.4L162.7,102.1z"/>
		<path style="fill:#37373F;" d="M183.9,100c0,0,6.5-3.2,16.9,0.2c0,0-2.7-6.9-17.9-3.9L183.9,100z"/>
		<path style="fill:#EE8E6F;" d="M176.7,118.8c1.6,4.7,6.5,10.4,12,13.7c0,0-6.7,6.8-12.2,8.5l7.4-8.6c0,0-8.9-9.8-9.7-14.6
			C173.5,112.9,175.1,114,176.7,118.8z"/>
		<path style="fill:#60B1AC;" d="M215.7,248.9c0,0-10.4,8.6-67,11.5c0,0,25.3,14.4,61.7,12.6C210.4,273,219.7,255.9,215.7,248.9z"/>
		<polygon style="fill:#DBC6A1;" points="138.4,402.1 171.7,416.8 204,405.9 		"/>
		<path style="fill:#67CFC6;" d="M102.8,373.9l125.9,7.1l-25.5-71.7l-74.3,9.6C128.8,318.8,111.7,344.3,102.8,373.9z"/>
		<path style="fill:#F1A982;" d="M112.1,134.1c8.4,9.8,19.7,12.7,19.6,3.7c-0.1-9-14.5-29.1-18.3-22.5
			C109.7,121.9,107.5,128.7,112.1,134.1z"/>
		<path style="fill:#EE8E6F;" d="M114.6,133.5c6.2,7.2,14.5,9.3,14.4,2.6c-0.1-6.7-10.7-21.4-13.4-16.5
			C112.8,124.4,111.2,129.5,114.6,133.5z"/>
		<path style="fill:#F1A982;" d="M122.1,136.4c3,3.5,7.1,4.6,7,1.3c0-3.3-5.2-10.5-6.6-8.1C121.3,132,120.5,134.4,122.1,136.4z"/>
		<path style="fill:#37373F;" d="M118.7,124.5c0,0-18.4-43-9.7-59.5c8.6-16.5,29.9-25,37.3-25.5c52.5-3.6,51.9,41.7,49.3,34.4
			c0,0-16.9,24-51.9,24c-7,0-8.6,10.6-9.6,19.3c-1.1,9.7-1.9,14.1-4.2,14C125.6,131.1,126.4,124.5,118.7,124.5z"/>
		<g>
			<path style="fill:#E97B59;" d="M181.2,151.3l0.7,1.7c-4.7,4.3-14.2,4.1-29.8-0.5l0.2-0.7C167.2,156.2,176.9,155.1,181.2,151.3z"
				/>
		</g>
		<path style="fill:#E97B59;" d="M159.7,156.7c-0.2,0.4,1,1.8,3,2.4c2,0.6,4.1,0.3,4.3-0.1c0.2-0.4-1.9-0.6-3.9-1.2
			C161,157.2,159.8,156.3,159.7,156.7z"/>
		<g>
			<path style="fill:#FFFFFF;" d="M143.6,186.8c0.3,1.6,2,2.6,3.5,2.2c1.6-0.3,2.6-2,2.2-3.5c-0.3-1.6-2-2.6-3.5-2.2
				C144.2,183.6,143.2,185.2,143.6,186.8z"/>
			<path style="fill:#FFFFFF;" d="M148.4,191.1c0.3,1.6,2,2.6,3.5,2.2c1.6-0.3,2.6-2,2.2-3.5c-0.3-1.6-2-2.6-3.5-2.2
				C149,187.9,148,189.5,148.4,191.1z"/>
			<path style="fill:#FFFFFF;" d="M154.4,193.9c0.3,1.6,2,2.6,3.5,2.2c1.6-0.3,2.6-2,2.2-3.5c-0.3-1.6-2-2.6-3.5-2.2
				C155,190.7,154,192.3,154.4,193.9z"/>
			<path style="fill:#FFFFFF;" d="M160.5,194c0.3,1.6,2,2.6,3.5,2.2c1.6-0.3,2.6-2,2.2-3.5c-0.3-1.6-2-2.6-3.5-2.2
				C161.1,190.9,160.1,192.5,160.5,194z"/>
			<path style="fill:#FFFFFF;" d="M166,191.7c0.3,1.6,2,2.6,3.5,2.2c1.6-0.3,2.6-2,2.2-3.5c-0.3-1.6-2-2.6-3.5-2.2
				C166.7,188.4,165.7,190,166,191.7z"/>
			<path style="fill:#FFFFFF;" d="M171.1,187.1c0.3,1.6,2,2.6,3.5,2.2c1.6-0.3,2.6-2,2.2-3.5s-2-2.6-3.5-2.2
				C171.7,183.9,170.7,185.5,171.1,187.1z"/>
			<path style="fill:#FFFFFF;" d="M173.5,180.8c0.3,1.6,2,2.6,3.5,2.2c1.6-0.3,2.6-2,2.2-3.5c-0.3-1.6-2-2.6-3.5-2.2
				C174.1,177.6,173.1,179.2,173.5,180.8z"/>
		</g>
	</g>
	<g>
		<path style="fill:#FFFFFF;" d="M162.4,117.7c1.6-1.7-0.6-8.2-6.6-10.5c-6-2.2-9.4,1.7-9.7,3.3c-0.3,1.6,0.4,4.6,3.8,6.3
			c3.4,1.7,6.4,1.4,8,1.4C160.1,118.2,161.6,118.7,162.4,117.7z"/>
		<circle style="fill:#39170B;" cx="155.5" cy="111.2" r="5.3"/>
		<circle style="fill:#FFFFFF;" cx="153.6" cy="110.1" r="2.1"/>
		<path style="fill:#39170B;" d="M162.9,116.3c0,0,1-3-2.6-7.3c-3.5-4.2-8.5-3.6-9.9-3.9c-1.4-0.3-2.8,0-2.4,0.4
			c0.4,0.4-0.9,1.4-2,1.1c-1.1-0.3-0.1,0.9-0.1,1.3c0,0.4-1.9,0.2-2.1,0.5c-0.2,0.4,1,1.4,0.7,1.4c-0.3,0.1-1.4,0.8-0.9,1.2
			c0.5,0.4,1.4,1.7,1.8,2.2c0.4,0.5,1.5,1.1,1.5,1.1s-1.2-2.6-0.3-4.3c0.9-1.7,3.1-3.5,6.6-2.9s5.5,2.4,7,3.8
			C161.8,112.4,162.9,116.3,162.9,116.3z"/>
	</g>
	<g>
		<path style="fill:#FFFFFF;" d="M182,116.9c-1.2-1.8,1.7-7.6,7.6-8.9c5.9-1.3,8.6,2.8,8.6,4.4c0,1.6-1,4.2-4.4,5.4
			s-6.2,0.5-7.7,0.2C184.1,117.7,182.7,118,182,116.9z"/>
		<circle style="fill:#39170B;" cx="189.3" cy="111.8" r="5.1"/>
		<path style="fill:#FFFFFF;" d="M185.5,110.5c-0.1,1.1,0.8,2.1,1.9,2.2c1.1,0.1,2.1-0.8,2.2-1.9c0.1-1.1-0.8-2.1-1.9-2.2
			C186.5,108.6,185.5,109.4,185.5,110.5z"/>
		<path style="fill:#39170B;" d="M181.7,115.5c0,0-0.5-3,3.4-6.5c3.9-3.5,8.5-2.2,9.8-2.4c1.3-0.1,2.7,0.4,2.2,0.7
			c-0.4,0.3,0.7,1.4,1.7,1.3c1-0.1-0.1,0.9-0.1,1.2c0,0.3,1.8,0.4,1.9,0.8c0.1,0.4-1.1,1.1-0.8,1.3c0.3,0.1,1.2,1,0.7,1.3
			c-0.5,0.3-1.6,1.4-2,1.8c-0.4,0.4-1.6,0.8-1.6,0.8s1.5-2.3,0.8-4c-0.6-1.7-2.5-3.7-5.8-3.6c-3.3,0.1-5.5,1.5-7.1,2.7
			C183.3,112,181.7,115.5,181.7,115.5z"/>
	</g>
	<path style="fill:#67CFC6;" d="M59.9,317.2c0,0-0.5,30.1,78.7,98c0,0,0.3-0.6,3-3.6c-17.6-24.8-39.5-66.3-48.1-76.3
		C87.3,328.3,71.8,305,59.9,317.2z"/>
	<path style="fill:#FFFFFF;" d="M125.1,141.8c0,2.2,1.8,4,4,4c2.2,0,4-1.8,4-4s-1.8-4-4-4C126.9,137.8,125.1,139.6,125.1,141.8z"/>
</g>
<g>
	<rect x="61.5" y="391.7" style="fill-rule:evenodd;clip-rule:evenodd;fill:#B86851;" width="428.7" height="305"/>
	<polygon style="fill-rule:evenodd;clip-rule:evenodd;fill:#A15647;" points="473.8,391.7 69.2,391.7 69.2,426.7 164.9,424.5 
		473.8,411.6 	"/>
	<rect x="1.8" y="391.7" style="fill-rule:evenodd;clip-rule:evenodd;fill:#8F483A;" width="69.7" height="305"/>
	<polygon style="fill-rule:evenodd;clip-rule:evenodd;fill:#7F3B2E;" points="1.8,391.7 71.9,391.7 71.9,424.5 1.8,467.7 	"/>
	<path style="fill-rule:evenodd;clip-rule:evenodd;fill:#A15647;" d="M-9.6,362.9h185.4c6,0,10.9,4.6,10.9,10.2v15.8
		c0,5.6-4.9,10.2-10.9,10.2H-9.6c-6,0-10.9-4.6-10.9-10.2v-15.8C-20.5,367.5-15.6,362.9-9.6,362.9z"/>
	<path style="fill-rule:evenodd;clip-rule:evenodd;fill:#B86851;" d="M49.7,362.9h447.7c6,0,10.9,4.6,10.9,10.2v15.8
		c0,5.6-4.9,10.2-10.9,10.2H49.7c-6,0-10.9-4.6-10.9-10.2v-15.8C38.8,367.5,43.7,362.9,49.7,362.9z"/>
</g>
<g>
	<g>
		<polygon style="fill:#666666;" points="340.6,316.8 320.2,363 373.3,363 366.3,316.8 		"/>
		<polygon style="fill:#333333;" points="334.8,330 344.5,335.5 341.5,363 320.2,363 		"/>
		<polygon style="fill:#4D4D4D;" points="293.5,363 285.7,351.3 481.4,351.3 477.1,363 		"/>
		<polygon style="fill:#333333;" points="246,363 243.1,353.7 285.7,351.3 293.5,363 		"/>
		<g>
			<polygon style="fill:#4D4D4D;" points="269.5,320.2 243.1,178.6 489.6,180.1 462,317.5 			"/>
			<polygon style="fill:#666666;" points="267.1,307.3 463.5,309.7 462,317.5 269.5,320.2 			"/>
			<polygon style="fill:#666666;" points="269.5,320.2 260.8,320.2 232.2,182.9 243.1,178.6 			"/>
		</g>
	</g>
</g>
</svg>
