<?xml version="1.0" encoding="utf-8"?>
<!-- Generator: Adobe Illustrator 24.0.3, SVG Export Plug-In . SVG Version: 6.00 Build 0)  -->
<svg version="1.1" id="Layer_1" xmlns="http://www.w3.org/2000/svg" xmlns:xlink="http://www.w3.org/1999/xlink" x="0px" y="0px"
	 width="480px" height="600px" viewBox="0 0 480 600" style="enable-background:new 0 0 480 600;" xml:space="preserve">
<g transform="matrix(1,0,0,1,10.2646,0)">
	<g transform="matrix(0.549457,-0.340962,0.266619,0.429655,-264.861,319.82)">
		<path style="fill-rule:evenodd;clip-rule:evenodd;fill:#FFFFFF;" d="M662.7,22.8c0-2-1.2-3.6-2.8-3.6c-1.5,0-2.8,1.6-2.8,3.6v38.1
			c0,2,1.2,3.6,2.8,3.6c1.5,0,2.8-1.6,2.8-3.6V22.8z"/>
	</g>
	<g transform="matrix(0.622486,0.175127,-0.136943,0.48676,-212.483,-32.4285)">
		<path style="fill-rule:evenodd;clip-rule:evenodd;fill:#FFFFFF;" d="M657,26.4c0-2-1.2-3.6-2.8-3.6s-2.8,1.6-2.8,3.6v38.1
			c0,2,1.2,3.6,2.8,3.6s2.8-1.6,2.8-3.6V26.4z"/>
	</g>
	<g transform="matrix(0.630694,-0.142771,0.111642,0.493179,-285.497,169.814)">
		<path style="fill-rule:evenodd;clip-rule:evenodd;fill:#FFFFFF;" d="M659.8,22.9c0-2-1.2-3.6-2.8-3.6c-1.5,0-2.8,1.6-2.8,3.6V61
			c0,2,1.2,3.6,2.8,3.6c1.5,0,2.8-1.6,2.8-3.6V22.9z"/>
	</g>
	<g transform="matrix(0.637354,0.109261,-0.0854378,0.498387,-250.519,0.131989)">
		<path style="fill-rule:evenodd;clip-rule:evenodd;fill:#FFFFFF;" d="M656.3,25.2c0-2-1.2-3.6-2.8-3.6s-2.8,1.6-2.8,3.6l0,38.1
			c0,2,1.2,3.6,2.8,3.6c1.5,0,2.8-1.6,2.8-3.6L656.3,25.2z"/>
	</g>
</g>
<g transform="matrix(0.948172,0,0,1.88724,-3.09674,-964.778)">
	<rect x="-11.8" y="507" style="fill-rule:evenodd;clip-rule:evenodd;fill:#674399;" width="529.6" height="328.5"/>
</g>
<g transform="matrix(0.483082,-0.671703,-0.671703,-0.483082,261.047,120.072)">
	<path style="fill:#FFFFFF;" d="M-46.8-19.4c-8.4,0-15.3,6.8-15.3,15.3s6.9,15.3,15.3,15.3s15.3-6.8,15.3-15.3S-38.4-19.4-46.8-19.4
		"/>
</g>
<g transform="matrix(0.483082,-0.671703,-0.671703,-0.483082,247.207,105.213)">
	<path style="fill:#FFFFFF;" d="M-91.7-31.8c-5.9,0-10.7,4.8-10.7,10.7s4.8,10.7,10.7,10.7c5.9,0,10.7-4.8,10.7-10.7
		S-85.8-31.8-91.7-31.8"/>
</g>
<g transform="matrix(0.799783,0.575197,-0.649856,0.903594,399.836,155.371)">
	<path style="fill:#FFFFFF;" d="M47.4-18.7c0-17.5-14.2-31.6-31.6-31.6c-0.4,0-0.9,0-1.3,0c0.8-2.6,1.3-5.3,1.3-8.2
		c0-14.4-11.7-26.1-26.1-26.1c-7.2,0-13.7,2.9-18.4,7.6c-1.1-6.8-6.9-12.1-14.1-12.1c-6.6,0-12.2,4.5-13.8,10.7
		c-4.8-6.5-12.4-10.7-21.1-10.7c-11.3,0-20.9,7.2-24.6,17.2c-2.9-0.9-6-1.4-9.3-1.4c-17.4,0-31.6,14.1-31.6,31.6
		c0,5.8,1.6,11.2,4.3,15.9c-6.9,1-12.1,6.9-12.1,14.1c0,5.7,3.3,10.6,8.2,12.9c-5.1,5.6-8.2,13-8.2,21.2c0,17.4,14.1,31.6,31.6,31.6
		c1.1,0,2.2-0.1,3.3-0.2c-0.2,1.4-0.4,2.9-0.4,4.4c0,14.4,11.7,26.1,26.1,26.1c7.5,0,14.3-3.2,19-8.3c0,0.3,0,0.6,0,0.8
		c0,7.9,6.4,14.3,14.3,14.3s14.3-6.4,14.3-14.3c0-0.2,0-0.4,0-0.6h0.1c0.4,7.5,6.6,13.4,14.2,13.4c7.9,0,14.3-6.4,14.3-14.3
		c0-2.2-0.5-4.3-1.4-6.2c4.4,3.4,9.9,5.4,15.8,5.4c14.4,0,26.1-11.7,26.1-26.1c0-4.8-1.3-9.3-3.5-13.1c0.3,0,0.7,0.1,1,0.1
		c7.9,0,14.3-6.4,14.3-14.3c0-5.2-2.8-9.7-7-12.2C40.8,3.5,47.4-6.8,47.4-18.7"/>
</g>
<g>
	<defs>
		<path id="SVGID_1_" d="M449.9,165.8c11.4-15.8,9.2-36.7-4.7-46.7c-0.3-0.2-0.7-0.5-1-0.7c2.3-1.9,4.5-4,6.4-6.7
			c9.4-13,7.6-30.3-3.9-38.6c-5.8-4.1-12.8-5.3-19.7-3.7c3.5-6.8,2.3-14.9-3.4-19c-5.3-3.8-12.7-3-18,1.7c0.4-8.6-3-16.8-9.9-21.8
			c-9-6.5-21.4-5.5-30.9,1.4c-1.7-2.5-3.9-4.7-6.5-6.6c-13.9-10-34.4-5.4-45.8,10.4c-3.8,5.2-6,11-6.9,16.8
			c-6.2-3.1-14.2-0.7-18.8,5.8c-3.7,5.2-4.2,11.5-1.8,16.4c-7.7,2.1-15,7-20.3,14.4c-11.3,15.7-9.3,36.7,4.7,46.7
			c0.9,0.6,1.8,1.2,2.8,1.7c-1.1,1.1-2.2,2.4-3.2,3.7c-9.4,13-7.6,30.3,3.9,38.6c6,4.3,13.5,5.3,20.6,3.4c-0.2,0.3-0.4,0.5-0.5,0.7
			c-5.1,7.1-4.2,16.6,2.1,21.1c6.3,4.5,15.6,2.4,20.7-4.7c0.1-0.2,0.3-0.4,0.4-0.5l0.1,0.1c-4.6,7-3.4,15.9,2.6,20.3
			c6.3,4.5,15.6,2.4,20.7-4.7c1.4-2,2.4-4.2,2.9-6.4c1.3,5.6,4.4,10.6,9.1,14c11.5,8.3,28.5,4.4,37.8-8.6c3.1-4.3,5-9.2,5.7-13.9
			c0.2,0.2,0.5,0.5,0.7,0.7c6.3,4.5,15.6,2.4,20.7-4.7c3.4-4.7,4.1-10.4,2.3-15.1C430.2,182.1,442.2,176.5,449.9,165.8"/>
	</defs>
	<clipPath id="SVGID_2_">
		<use xlink:href="#SVGID_1_"  style="overflow:visible;"/>
	</clipPath>
	<g style="clip-path:url(#SVGID_2_);">
		<rect x="251.7" y="10.5" style="fill:#8ED8F8;" width="261.2" height="247.6"/>
		<g>
			<rect x="250.9" y="129.7" style="fill:#4BDDFD;" width="261.2" height="127.8"/>
			<rect x="250.8" y="129.5" style="opacity:0.6;fill:#13BDE5;enable-background:new    ;" width="261.2" height="6.9"/>
			<path style="fill:#FFFFFF;" d="M312.5,152h-24.6c0.5-0.1,1-0.4,1.4-0.8c2,0.2,4.1-0.2,5.9-1.2c0.6,0.6,1.5,0.8,2.3,1
				c2.3,0.4,4.6,0.5,6.8,0c0.3,0.7,1.2,0.8,2,0.8c0.8,0,1.5-0.1,2.3-0.2C310,151.3,311,152,312.5,152z"/>
			<path style="fill:#FFFFFF;" d="M386.6,152.5H362c0.5-0.1,1-0.4,1.4-0.8c2,0.2,4.1-0.2,5.9-1.2c0.6,0.6,1.5,0.8,2.3,1
				c2.3,0.4,4.6,0.5,6.8,0c0.3,0.7,1.2,0.8,2,0.8c0.8,0,1.5-0.1,2.3-0.2C384.2,151.8,385.1,152.5,386.6,152.5z"/>
			<path style="fill:#FFFFFF;" d="M268,168.7h24.6c-0.5-0.1-1-0.4-1.4-0.8c-2,0.2-4.1-0.2-5.9-1.2c-0.6,0.6-1.5,0.8-2.3,1
				c-2.3,0.4-4.6,0.5-6.8,0c-0.3,0.7-1.2,0.8-2,0.8c-0.8,0-1.5-0.1-2.3-0.2C270.5,168,269.5,168.7,268,168.7z"/>
			<path style="fill:#FFFFFF;" d="M267.5,142h17c-0.3,0-0.7-0.3-0.9-0.6c-1.4,0.2-2.8-0.1-4-0.8c-0.4,0.4-1,0.6-1.6,0.7
				c-1.5,0.3-3.1,0.3-4.7,0c-0.2,0.5-0.8,0.6-1.4,0.6c-0.6,0-1.1,0-1.6-0.1C269.2,141.5,268.6,142,267.5,142z"/>
			<path style="fill:#FFFFFF;" d="M355.3,141.7h17c-0.3,0-0.7-0.3-0.9-0.6c-1.4,0.2-2.8-0.1-4-0.8c-0.4,0.4-1,0.6-1.6,0.7
				c-1.5,0.3-3.1,0.3-4.7,0c-0.2,0.5-0.8,0.6-1.4,0.6c-0.6,0-1.1,0-1.6-0.1C357,141.3,356.4,141.7,355.3,141.7z"/>
		</g>
		<rect x="250.9" y="198" style="fill:#D8BF4C;" width="261.2" height="59.5"/>
		<path style="opacity:0.5;fill:#FFEAC1;enable-background:new    ;" d="M496.1,152.2c-0.3-5.7,1-12.5-5.2-14.6
			c-5.4-1.9-14.3,0-19.9,0.5c-13.2,1.1-28.1,3.4-39.4,10.9c-5.9,3.5-11.1,8-17.1,11.5c-23.8,13.7-53.7,7.7-80.7,12.6
			c-21.7,4-41.7,15.2-63.7,17.4c-6.4,0.6-13,0.5-19.2,1.7v65.4H452c8.5-5.5,15.9-12.3,21.3-21c4.5-7.2,7.3-15.3,9.9-23.5
			c2.9-8.6,5.6-17.3,8.4-25.9c1.9-5.9,3.8-11.9,4.5-18C496.7,163.5,496.4,157.8,496.1,152.2z"/>
		<path style="opacity:0.7;fill:#FFEAC1;enable-background:new    ;" d="M463.7,137.1c-4.8,1.2-9.7,2.8-14,5.3
			c-6.8,4-12,10.3-18.2,15.2c-31,24.5-80.4,9.9-112.1,33.4c-6.3,4.7-11.6,10.7-18.4,14.6c-14.8,8.6-33,5.5-50.2,7.2v44.6h86.6
			c22-4.2,43.8-10,65.2-16.6c14.2-4.3,28.5-9.1,40.7-17.4c12.2-8.3,21.7-19.9,31.1-31.3c7.6-9.2,15.2-18.4,22.8-27.6
			c3.7-4.4,7.4-9,8.8-14.6C512.8,124.8,476,134,463.7,137.1z"/>
		<path style="fill:#FAFFDE;" d="M497.3,131.8c-12.5,1.6-25.2,4.7-35.5,12.3c-5.9,4.3-10.8,9.7-16.4,14.3
			c-17,13.8-39.4,18.6-61.2,20.7c-14.5,1.4-29.6,1.8-42.4,8.7c-8.4,4.6-15.2,11.6-22.5,17.7c-8.3,6.8-17.4,12.5-27.2,16.8
			c-13.2,5.9-27.6,9.3-41.2,14.2v21.1H512V130.3C507.7,129.7,500.1,131.5,497.3,131.8z"/>
		<g>
			<path style="fill:#FFFFFF;" d="M357,83.1c-0.3-1.5-1.5-2.8-3-2.8c-0.2,0-0.5,0-0.7,0.1c-0.5-2.9-2.9-5.1-5.7-5.1
				c-2.3,0-4.2,1.4-5.2,3.5c-0.3-0.1-0.7-0.1-1-0.1c-1.5,0-2.9,0.8-3.8,2.1c-0.5-0.3-0.9-0.4-1.5-0.4c-1.5,0-2.8,1.2-3,2.8L357,83.1
				L357,83.1z"/>
			<path style="fill:#FFFFFF;" d="M480.8,56.6H406c2.2-2.9,6.5-3.7,9.6-1.8c1.5-2.1,4.6-2.7,6.8-1.3c1.1-2.3,4.3-3.3,6.5-2.1
				c1-2.4,3.4-4,5.7-5.5c0.8-0.5,1.7-1.1,2.6-1.3c1.9-0.5,3.9,0.2,5.4,1.5c3.1-2.3,8.2-0.6,9.2,3.1c4.6-0.9,9.5,1.4,11.8,5.4
				c2.7,1.1,6.2-0.7,8.6,0.9C475.2,54.3,478.3,54.6,480.8,56.6z"/>
			<path style="fill:#FFFFFF;" d="M428.1,107.9h-60.2c1.9-2.3,5.4-3.6,8-2.1c0.2-1,1.4-1.7,2.4-1.6c1.1,0,1.9,0.5,2.8,1
				c1.4-3.2,6-4.4,8.8-2.3c0.8-1.4,2.4-2.4,4.1-2.5c1.6-0.1,3.8,0.6,4.9,1.8c2.1-3,6-4.6,9.5-4c3.6,0.7,6.7,3.5,7.5,7.1
				C420.9,104.5,423.6,105.7,428.1,107.9z"/>
			<path style="fill:#FFFFFF;" d="M293.9,88.8h-37.1c1.2-1.4,3.3-2.2,4.9-1.3c0.1-0.7,0.8-1,1.5-1c0.7,0,1.2,0.3,1.7,0.6
				c0.8-2,3.7-2.7,5.4-1.4c0.5-0.9,1.5-1.5,2.5-1.5c1-0.1,2.3,0.3,3,1.1c1.3-1.8,3.7-2.9,5.9-2.4c2.2,0.4,4.1,2.2,4.6,4.4
				C289.4,86.6,291.1,87.4,293.9,88.8z"/>
			<path style="fill:#FFFFFF;" d="M314.6,50.6c-0.3-0.7-0.4-1.4-1-1.7c-0.5-0.2-1-0.2-1.5-0.2c-1.3,0.1-1.9,0.3-3.1,0.8
				c-0.6-1.1-1.5-2.1-2.7-2.7c-0.9-0.5-2.1-0.6-2.7,0.2c-1.5-0.8-3.3-1.2-5-1c-0.8,0.1-1.9,0.6-1.8,1.5c0,0-0.1,0-0.1,0
				c-0.7-3.4-3.4-5.9-6.7-5.9c-2.7,0-5,1.7-6.1,4.1c-0.4-0.1-0.8-0.1-1.2-0.1c-1.8,0-3.5,0.9-4.5,2.4c-0.5-0.3-1.1-0.5-1.8-0.5
				c-1.8,0-3.3,1.4-3.6,3.3h28.4c0,0,0,0,0,0L314.6,50.6L314.6,50.6z"/>
		</g>
		<g style="opacity:0.2;">
			<g>
				<path style="fill:#BF9D62;" d="M366.8,222.2c1.7,0,1.7-2.6,0-2.6C365.2,219.7,365.2,222.2,366.8,222.2L366.8,222.2z"/>
			</g>
			<g>
				<path style="fill:#BF9D62;" d="M377.8,223.8c1.7,0,1.7-2.6,0-2.6C376.1,221.2,376.1,223.8,377.8,223.8L377.8,223.8z"/>
			</g>
			<g>
				<path style="fill:#BF9D62;" d="M386.6,221.2c1.7,0,1.7-2.6,0-2.6C385,218.6,385,221.2,386.6,221.2L386.6,221.2z"/>
			</g>
			<g>
				<path style="fill:#BF9D62;" d="M404.4,210.7c1.7,0,1.7-2.6,0-2.6C402.7,208.2,402.7,210.7,404.4,210.7L404.4,210.7z"/>
			</g>
			<g>
				<path style="fill:#BF9D62;" d="M428,179.2c1.7,0,1.7-2.6,0-2.6C426.3,176.5,426.3,179.2,428,179.2L428,179.2z"/>
			</g>
			<g>
				<path style="fill:#BF9D62;" d="M393.5,234.3c1.7,0,1.7-2.6,0-2.6C391.8,231.7,391.8,234.3,393.5,234.3L393.5,234.3z"/>
			</g>
			<g>
				<path style="fill:#BF9D62;" d="M349.6,234.3c1.7,0,1.7-2.6,0-2.6C347.9,231.7,347.9,234.3,349.6,234.3L349.6,234.3z"/>
			</g>
			<g>
				<path style="fill:#BF9D62;" d="M349.1,218.1c1.7,0,1.7-2.6,0-2.6C347.4,215.5,347.4,218.1,349.1,218.1L349.1,218.1z"/>
			</g>
			<g>
				<path style="fill:#BF9D62;" d="M320.3,236.4c1.7,0,1.7-2.6,0-2.6C318.6,233.7,318.6,236.4,320.3,236.4L320.3,236.4z"/>
			</g>
			<g>
				<path style="fill:#BF9D62;" d="M299.4,240.6c1.7,0,1.7-2.6,0-2.6C297.7,237.9,297.7,240.6,299.4,240.6L299.4,240.6z"/>
			</g>
			<g>
				<path style="fill:#BF9D62;" d="M360,206.1c1.7,0,1.7-2.6,0-2.6C358.3,203.5,358.3,206.1,360,206.1L360,206.1z"/>
			</g>
			<g>
				<path style="fill:#BF9D62;" d="M434.7,211.3c1.7,0,1.7-2.6,0-2.6C433,208.7,433,211.3,434.7,211.3L434.7,211.3z"/>
			</g>
			<g>
				<path style="fill:#BF9D62;" d="M453,228.5c1.7,0,1.7-2.6,0-2.6C451.3,225.9,451.3,228.5,453,228.5L453,228.5z"/>
			</g>
			<g>
				<path style="fill:#BF9D62;" d="M427.4,227.5c1.7,0,1.7-2.6,0-2.6C425.7,224.9,425.7,227.5,427.4,227.5L427.4,227.5z"/>
			</g>
			<g>
				<path style="fill:#BF9D62;" d="M417.5,206.1c1.7,0,1.7-2.6,0-2.6C415.8,203.5,415.8,206.1,417.5,206.1L417.5,206.1z"/>
			</g>
			<g>
				<path style="fill:#BF9D62;" d="M466.6,199c1.3,0,1.3-2,0-2S465.3,199,466.6,199L466.6,199z"/>
			</g>
			<g>
				<path style="fill:#BF9D62;" d="M482.3,199c1.3,0,1.3-2,0-2S481,199,482.3,199L482.3,199z"/>
			</g>
			<g>
				<path style="fill:#BF9D62;" d="M392.4,195.5c0.8,0,0.8-1.3,0-1.3C391.6,194.2,391.6,195.5,392.4,195.5L392.4,195.5z"/>
			</g>
			<g>
				<path style="fill:#BF9D62;" d="M465,168.5c0.8,0,0.8-1.3,0-1.3C464.2,167.1,464.2,168.5,465,168.5L465,168.5z"/>
			</g>
			<g>
				<path style="fill:#BF9D62;" d="M395,203.3c0.8,0,0.8-1.3,0-1.3C394.2,202,394.2,203.3,395,203.3L395,203.3z"/>
			</g>
			<g>
				<path style="fill:#BF9D62;" d="M385.6,204.4c0.8,0,0.8-1.3,0-1.3C384.8,203,384.8,204.4,385.6,204.4L385.6,204.4z"/>
			</g>
			<g>
				<path style="fill:#BF9D62;" d="M399.7,184.1c0.8,0,0.8-1.3,0-1.3C398.9,182.8,398.9,184.1,399.7,184.1L399.7,184.1z"/>
			</g>
			<g>
				<path style="fill:#BF9D62;" d="M383,190.3c0.8,0,0.8-1.3,0-1.3C382.2,189,382.2,190.3,383,190.3L383,190.3z"/>
			</g>
			<g>
				<path style="fill:#BF9D62;" d="M502.1,142.1c0.8,0,0.8-1.3,0-1.3C501.3,140.8,501.3,142.1,502.1,142.1L502.1,142.1z"/>
			</g>
			<g>
				<path style="fill:#BF9D62;" d="M485.4,165.8c0.8,0,0.8-1.3,0-1.3C484.6,164.6,484.6,165.8,485.4,165.8L485.4,165.8z"/>
			</g>
			<g>
				<path style="fill:#BF9D62;" d="M365.2,191.3c0.8,0,0.8-1.3,0-1.3S364.4,191.3,365.2,191.3L365.2,191.3z"/>
			</g>
			<g>
				<path style="fill:#BF9D62;" d="M344.9,200.2c0.8,0,0.8-1.3,0-1.3C344,198.9,344,200.2,344.9,200.2L344.9,200.2z"/>
			</g>
			<g>
				<path style="fill:#BF9D62;" d="M464,157c0.8,0,0.8-1.3,0-1.3C463.2,155.6,463.2,157,464,157L464,157z"/>
			</g>
			<g>
				<path style="fill:#BF9D62;" d="M432.6,172.1c0.8,0,0.8-1.3,0-1.3S431.8,172.1,432.6,172.1L432.6,172.1z"/>
			</g>
			<g>
				<path style="fill:#BF9D62;" d="M336,215.9c0.8,0,0.8-1.3,0-1.3C335.2,214.5,335.2,215.9,336,215.9L336,215.9z"/>
			</g>
			<g>
				<path style="fill:#BF9D62;" d="M331.8,224.7c0.8,0,0.8-1.3,0-1.3S331,224.7,331.8,224.7L331.8,224.7z"/>
			</g>
			<g>
				<path style="fill:#BF9D62;" d="M323.5,220.6c0.8,0,0.8-1.3,0-1.3C322.6,219.2,322.6,220.6,323.5,220.6L323.5,220.6z"/>
			</g>
			<g>
				<path style="fill:#BF9D62;" d="M306.2,228.4c0.8,0,0.8-1.3,0-1.3S305.4,228.4,306.2,228.4L306.2,228.4z"/>
			</g>
			<g>
				<path style="fill:#BF9D62;" d="M293.7,236.2c0.8,0,0.8-1.3,0-1.3C292.9,234.9,292.9,236.2,293.7,236.2L293.7,236.2z"/>
			</g>
			<g>
				<path style="fill:#BF9D62;" d="M282.7,238.3c0.8,0,0.8-1.3,0-1.3C281.9,237,281.9,238.3,282.7,238.3L282.7,238.3z"/>
			</g>
			<g>
				<path style="fill:#BF9D62;" d="M278.5,243.6c0.8,0,0.8-1.3,0-1.3C277.7,242.2,277.7,243.6,278.5,243.6L278.5,243.6z"/>
			</g>
			<g>
				<path style="fill:#BF9D62;" d="M263.4,244.1c0.8,0,0.8-1.3,0-1.3C262.5,242.8,262.5,244.1,263.4,244.1L263.4,244.1z"/>
			</g>
			<g>
				<path style="fill:#BF9D62;" d="M425.8,189.2c0.8,0,0.8-1.3,0-1.3C425,187.9,425,189.2,425.8,189.2L425.8,189.2z"/>
			</g>
			<g>
				<path style="fill:#BF9D62;" d="M441,195c0.8,0,0.8-1.3,0-1.3C440.2,193.7,440.2,195,441,195L441,195z"/>
			</g>
			<g>
				<path style="fill:#BF9D62;" d="M473.9,219.5c0.8,0,0.8-1.3,0-1.3C473.1,218.2,473.1,219.5,473.9,219.5L473.9,219.5z"/>
			</g>
			<g>
				<path style="fill:#BF9D62;" d="M477.1,238.3c0.8,0,0.8-1.3,0-1.3C476.2,237,476.2,238.3,477.1,238.3L477.1,238.3z"/>
			</g>
			<g>
				<path style="fill:#BF9D62;" d="M438.9,244.1c0.8,0,0.8-1.3,0-1.3C438,242.8,438,244.1,438.9,244.1L438.9,244.1z"/>
			</g>
			<g>
				<path style="fill:#BF9D62;" d="M405.5,229.9c0.8,0,0.8-1.3,0-1.3C404.6,228.7,404.6,229.9,405.5,229.9L405.5,229.9z"/>
			</g>
			<g>
				<path style="fill:#BF9D62;" d="M455.1,213.7c0.8,0,0.8-1.3,0-1.3C454.2,212.5,454.2,213.7,455.1,213.7L455.1,213.7z"/>
			</g>
			<g>
				<path style="fill:#BF9D62;" d="M450.9,201.7c0.8,0,0.8-1.3,0-1.3C450.1,200.5,450.1,201.7,450.9,201.7L450.9,201.7z"/>
			</g>
			<g>
				<path style="fill:#BF9D62;" d="M451.9,183c0.8,0,0.8-1.3,0-1.3C451.1,181.6,451.1,183,451.9,183L451.9,183z"/>
			</g>
			<g>
				<path style="fill:#BF9D62;" d="M483.8,186.1c0.8,0,0.8-1.3,0-1.3C483,184.8,483,186.1,483.8,186.1L483.8,186.1z"/>
			</g>
			<g>
				<path style="fill:#BF9D62;" d="M500.5,190.8c0.8,0,0.8-1.3,0-1.3C499.7,189.5,499.7,190.8,500.5,190.8L500.5,190.8z"/>
			</g>
			<g>
				<path style="fill:#BF9D62;" d="M501.1,208.5c0.8,0,0.8-1.3,0-1.3S500.2,208.5,501.1,208.5L501.1,208.5z"/>
			</g>
			<g>
				<path style="fill:#BF9D62;" d="M489.6,210.1c0.8,0,0.8-1.3,0-1.3C488.7,208.8,488.7,210.1,489.6,210.1L489.6,210.1z"/>
			</g>
			<g>
				<path style="fill:#BF9D62;" d="M500.5,226.8c0.8,0,0.8-1.3,0-1.3C499.7,225.5,499.7,226.8,500.5,226.8L500.5,226.8z"/>
			</g>
			<g>
				<path style="fill:#BF9D62;" d="M504.2,238.3c0.8,0,0.8-1.3,0-1.3C503.3,237,503.3,238.3,504.2,238.3L504.2,238.3z"/>
			</g>
			<g>
				<path style="fill:#BF9D62;" d="M490.6,240.9c0.8,0,0.8-1.3,0-1.3C489.8,239.6,489.8,240.9,490.6,240.9L490.6,240.9z"/>
			</g>
		</g>
		<g>
			<g>
				<g>
					<path style="fill:#418421;" d="M446.7,98.7l1.9,5.6l-3.1,1.9l-3.1-4.6l1.6,5.5l-3.8,2.3l-8.4-9.1c0,0,4.9,7,6.7,10.2l-9.8,6
						c-2.4-2.6-6.4-6.9-6.1-6.6c0.3,0.4,2.1,5.8,3,8.4l-0.6,0.4l-3.6,2.2l-5.5-4.6c0,0,2.4,3.3,3.8,5.5l-1.6,1
						c-2.4-1-5.5-2.3-5.5-2.3s2,2.1,3.4,3.6l-1.5,0.9c-1.7-0.5-3.6-1-3.6-1s0.1,1.3,0.3,3l-5.5,3.3c0,0,2.6-13.6,14.3-26.8
						c11.6-13.2,34.5-5.9,34.5-5.9l0.2,2.8l-4.3,2.6L446.7,98.7z"/>
					<path style="fill:#2D660E;" d="M454.4,98c0,0-19.4-6.2-31.5,3.1l3.3,1.3l3.4-3c0,0,0.1,6.4,0.5,5.6c0.2-0.4,1.3-1.9,2.4-3.5
						c-0.5-0.7-0.8-1.1-0.8-1.1l0.8,0.9c1.2-1.6,2.3-3.2,2.3-3.2l2.1,5l3.3-0.4c0,0,3.1-5.3,3.1-4.6s1.7,5.9,1.7,5.9l2.8-0.5
						l0.2-0.3l-1.5-4.4l2.3,3l1.8-3l1,3.6l2.8-1.7L454.4,98z"/>
				</g>
				<g>
					<path style="fill:#84D84E;" d="M454.5,102.5l-0.6-0.2l-1.6-3.7l-1.5,2.4l-7.8-3.1l1.1-6.2l-2.9,5.5l-2.1-0.8l1.8-8.6l-3.8,7.8
						l-0.8-0.3l3.3-8.3l-4.2,7.9l-10.8-4.4c0.5-3.2,1.3-9.2,1.2-8.9c-0.1,0.2-2.3,5.1-3.7,7.9l-2.7-1.1l0.9-6.6l-3.6,5.5l-2.7-1.1
						l1.2-3.5l-1.8,3.2l-0.2-0.1l1.1-5l-2.6,4.4l-7-2.9c0,0,16.8-7.9,23.1-6.4c5.1,1.3,17.5,9.9,22.2,13.2c1.2,0.8,2.2,1.9,2.9,3.1
						l7.4,12.5l-5.7-5.2L454.5,102.5z"/>
					<path style="opacity:0.4;fill:#2D660E;enable-background:new    ;" d="M456.3,100.8c-0.1-0.5-0.4-2-0.8-3.8l-2.8-4.7
						c-0.7-1.2-1.7-2.3-2.9-3.1c-2.3-1.7-6.7-4.7-11.1-7.5l5.4,10.1l0,0v0l4.6,8.5l2.2,0.9l1.5-2.4l1.6,3.7l0.6,0.2l-0.2-2.9
						l1.9,1.7C456.3,101.1,456.3,101,456.3,100.8z"/>
				</g>
				<path style="fill:#418421;" d="M499.6,100.5v-8.6l-1.5-0.8c-1.4-0.8-2.8-1.2-4.4-1.4c-6.1-0.6-22.2-1.9-27.6-0.3
					c-6.7,2-18,18.4-18,18.4l8-1.1l0-5.5l1.7,5.3l0.3,0l0-4l0.8,3.9l3.1-0.4l0.3-7l2.7,6.6l3.1-0.4c-0.3-3.4-0.8-9.1-0.8-9.3
					c0-0.3,2.4,5.7,3.7,8.9l12.4-1.7l-0.3-9.6l1.4,9.5l0.9-0.1l-0.6-9.3l3,9l2.4-0.3l-0.3-6.7l2.3,6.4L499.6,100.5z"/>
				<path style="fill:#2D660E;" d="M461.5,104.7l1.9-2.4c2.6-0.4,5.4-0.7,8.2-0.7l-4,4.7l6.5-4.6c1.4,0.1,2.6,0.3,3.8,0.6l-5.2,5.5
					l8.2-4.4c0.8,0.4,1.6,0.8,2.3,1.2l-5.8,2.8l6.6-2.4c0.7,0.4,1.4,0.8,2.1,1.2c-1.8,1.4-3.8,3.1-3.8,3.1l5.4-2.1
					c0.1,0.1,0.3,0.2,0.4,0.3l-3.2,2.8c0,0,2.1-1.2,3.8-2.3c0.2,0.1,0.5,0.3,0.7,0.5c-1.6,1.1-3.4,2.4-3.4,2.4s2.5-0.8,4.8-1.5
					c0.8,0.5,1.4,1,2,1.5c-2.2,0.3-4.5,0.8-4.5,0.8l6,0.4c1.4,1.1,2.3,1.9,2.3,1.9s-0.8,0.3-2.1,0.7l-5.8-2.2l4.9,2.4
					c-0.4,0.1-0.8,0.2-1.2,0.3c-1.9-1-4.2-2.2-4.2-2.2l3.4,2.3c-0.9,0.2-2,0.3-3.1,0.5c-1.5-1.8-3.1-3.8-3.1-3.8l1.3,4
					c-0.8,0-1.7,0.1-2.7,0.1l-3-4.8c0,0,0.4,3.2,0.5,4.8c-0.6,0-1.2,0-1.8,0c-1.9-0.1-3.7-0.4-5.4-0.8l-1.7-6l0.9,5.8
					c-0.4-0.1-0.8-0.2-1.2-0.4l-0.8-5.1l-0.4,4.6c-2.1-0.8-3.9-1.6-5.5-2.4l-2-1.1c-2.3-1.4-3.7-2.4-3.7-2.4l-5.7-3.8
					c0,0,3.4-1,8-1.8L461.5,104.7z"/>
				<g>
					<path style="fill:#EDC174;" d="M499.6,145.1c-4.1,0.1-8.1,0-12.1-0.6c-2.7-0.4-5.4-0.9-8-1.7c-1.3-0.3-2.6-0.8-3.8-1.3
						c-0.6-0.2-1.2-0.6-1.9-0.8c-0.3-0.1-0.6-0.3-0.9-0.4l-0.9-0.5c-2.4-1.3-4.6-2.8-6.7-4.6c-2-1.8-3.8-3.9-5.2-6.3
						c-1.5-2.3-2.6-4.9-3.4-7.6c-0.4-1.4-0.8-2.7-1-4.1c-0.1-0.7-0.2-1.4-0.3-2.1c-0.1-0.7-0.1-1.4-0.1-2.1l-1.8-0.1
						c-0.1,0.8-0.1,1.5-0.1,2.3c0,0.8,0,1.5,0,2.3c0.1,1.5,0.3,3,0.6,4.5c0.6,3,1.5,6,2.8,8.7c1.3,2.8,3.1,5.4,5.1,7.8
						c2.1,2.4,4.5,4.5,7,6.2l1,0.7c0.3,0.2,0.7,0.4,1,0.6c0.7,0.4,1.4,0.8,2,1.2c1.4,0.7,2.8,1.5,4.2,2c2.9,1.3,5.9,2.2,8.9,3
						c4.5,1.1,9.1,1.8,13.6,2.2L499.6,145.1L499.6,145.1z"/>
					<g>
						<path style="fill:#D8A34E;" d="M460.6,137.1c0.8-1.5,1.5-3,2.1-4.5c-0.3-0.4-0.7-0.8-1-1.2c-0.8,0.8-1.5,1.6-2.4,2.3
							c0.7-1,1.3-2.2,1.6-3.3c-0.4-0.5-0.7-1-1-1.5c-0.8,1-1.8,1.9-3,2.6c0.1,0.2,0.2,0.5,0.4,0.7c1.1-0.7,2.2-1.6,3.1-2.6
							c-0.4,1.5-1.1,3-2.1,4.3c0.2,0.4,0.5,0.8,0.8,1.2c1-0.8,2-1.6,2.9-2.6c-0.5,1.4-1.2,2.7-1.9,4
							C460.3,136.7,460.4,136.9,460.6,137.1z"/>
						<path style="fill:#D8A34E;" d="M456.6,121.5c-0.9,0.3-1.8,0.6-2.7,0.8l2.6-1.4c-0.1-0.2-0.1-0.5-0.2-0.8l-2.5,1.3
							c0,0.1,0,0.2,0,0.4c0.1,0.4,0.1,0.8,0.2,1.2c0.9-0.3,1.9-0.6,2.8-0.9C456.8,122,456.7,121.7,456.6,121.5z"/>
						<path style="fill:#D8A34E;" d="M457.5,124c-0.5,0.2-1,0.4-1.5,0.6c0.5-0.3,0.9-0.6,1.4-0.9c-0.1-0.2-0.2-0.5-0.3-0.8
							c-0.9,0.6-1.8,1.2-2.7,1.7c0.1,0.4,0.2,0.8,0.4,1.3c1-0.4,2-0.8,3.1-1.2C457.7,124.5,457.6,124.2,457.5,124z"/>
						<path style="fill:#D8A34E;" d="M494.7,145.1c-0.3,0-0.6,0-0.8,0c0.7,2.9,1.4,5.9,1.6,8.8c0.3,0,0.5,0,0.8,0.1
							C496,151,495.4,148,494.7,145.1z"/>
						<path style="fill:#D8A34E;" d="M453.3,117.4c0,0,0,0.1,0,0.2c0.8-0.2,1.5-0.4,2.3-0.6c0-0.3-0.1-0.5-0.1-0.8
							c-0.8,0.1-1.5,0.3-2.2,0.5C453.3,117,453.3,117.2,453.3,117.4z"/>
						<path style="fill:#D8A34E;" d="M488.9,146.4c-0.1-0.6-0.2-1.1-0.3-1.7c-0.4,0-0.8-0.1-1.1-0.1c-0.1,0-0.2,0-0.4,0
							c-0.5,2.5-1.5,4.9-2.7,7.2c0.3,0.1,0.5,0.1,0.8,0.2c1.2-2.3,2.2-4.6,2.7-7.1c0.1,0.6,0.2,1.1,0.3,1.7c0.4,2.2,0.8,4.3,0.8,6.3
							c0.3,0,0.5,0.1,0.8,0.1C489.7,150.8,489.3,148.6,488.9,146.4z"/>
						<path style="fill:#D8A34E;" d="M483.2,151.4c0.2-2.5,0.3-5,0.3-7.6c-0.5-0.1-0.9-0.2-1.4-0.3c-0.6,2.3-1.5,4.6-2.7,6.6
							c0.2,0.1,0.5,0.2,0.8,0.3c1.1-1.8,1.9-3.8,2.5-5.9c0,2.2-0.1,4.4-0.3,6.6C482.7,151.2,483,151.3,483.2,151.4z"/>
						<path style="fill:#D8A34E;" d="M469.8,145.4c0.2,0.1,0.4,0.2,0.6,0.4c1-1.7,2-3.5,2.8-5.3c-0.1,0-0.3-0.1-0.5-0.2l-0.2-0.1
							c-0.5,1-1,2-1.5,2.9l0.8-3.3c-0.6-0.3-1.2-0.7-1.7-1l-2.3,4.7c0.4-1.9,0.7-3.8,0.8-5.7c-0.3-0.2-0.5-0.4-0.8-0.6
							c-0.5,1.5-1.5,2.9-2.7,4.1c0.8-1.6,1.3-3.4,1.3-5.2c-0.4-0.3-0.7-0.6-1-0.9c0,0-0.1-0.1-0.1-0.1c-1,1.2-2.3,2.3-3.7,3
							c0.1,0.2,0.3,0.3,0.4,0.5c0,0,0,0,0.1,0.1c1.4-0.8,2.6-1.7,3.6-2.9c0.1,1.8-0.4,3.7-1.3,5.3c0.4,0.3,0.8,0.7,1.1,1
							c0.9-0.8,1.7-1.7,2.3-2.7c-0.1,1.4-0.3,2.7-0.6,4.1c0.4,0.3,0.8,0.6,1.3,0.9l2.5-5l-1.5,5.7L469.8,145.4z"/>
						<path style="fill:#D8A34E;" d="M456.2,119.7c0-0.2-0.1-0.5-0.2-0.8c-0.4,0.1-0.7,0.1-1.1,0.2c0.3-0.2,0.7-0.4,1-0.6
							c0-0.3-0.1-0.5-0.2-0.8c-0.8,0.4-1.5,0.8-2.3,1.3c0,0.4,0.1,0.8,0.1,1.3C454.4,120.2,455.3,119.9,456.2,119.7z"/>
						<path style="fill:#D8A34E;" d="M459.1,127.3c-0.1-0.2-0.2-0.5-0.4-0.7c-0.4,0.2-0.8,0.4-1.2,0.6c0.4-0.2,0.8-0.4,1.1-0.7
							c-0.1-0.2-0.2-0.5-0.3-0.7c-0.6,0.3-1.2,0.7-1.8,1l-1.2,0.6c0.1,0.4,0.3,0.8,0.5,1.2C456.9,128.4,458,127.9,459.1,127.3z"/>
						<path style="fill:#D8A34E;" d="M499.6,150.8v-4.6c0-0.4-0.1-0.8-0.1-1.1c-0.3,0-0.6,0-0.8,0c0.2,1.4,0.3,2.8,0.2,4.3l0-0.6
							c0-1.2-0.1-2.4-0.2-3.7c-0.3,0-0.5,0-0.8,0c0.1,1.3,0.2,2.5,0.2,3.7l0.2,4.7c0,0.2-0.1,0.4-0.2,0.7c0.3,0,0.7,0,1,0.1l0-0.6
							C499.3,152.8,499.4,151.8,499.6,150.8z"/>
						<path style="fill:#D8A34E;" d="M479.1,150c0.4-2.3,0.6-4.7,0.7-7.1c-0.1,0-0.2,0-0.4-0.1c-0.1,0-0.3-0.1-0.4-0.1
							c-0.1,2.3-0.3,4.7-0.7,7C478.6,149.8,478.8,149.9,479.1,150z"/>
						<path style="fill:#D8A34E;" d="M493,145c-0.2,2.8-1,5.6-2.2,8.2c0.3,0,0.5,0.1,0.8,0.1c1.2-2.6,1.9-5.4,2.2-8.3
							C493.5,145.1,493.2,145.1,493,145z"/>
						<path style="fill:#D8A34E;" d="M476.4,141.8c-1,1.9-2.2,3.7-3.4,5.4c0.2,0.1,0.5,0.2,0.7,0.4c1.3-1.8,2.4-3.6,3.5-5.5
							C476.9,142,476.7,141.9,476.4,141.8z"/>
						<path style="fill:#D8A34E;" d="M456.9,131.3c0.9-1,1.8-2,2.7-3.1c-0.1-0.2-0.3-0.5-0.4-0.8c-0.8,1-1.7,2.1-2.6,3.1
							c0,0,0,0.1,0,0.1C456.7,130.9,456.8,131.1,456.9,131.3z"/>
						<path style="fill:#D8A34E;" d="M472.7,147.1c0.5-2.1,0.9-4.1,1.5-6.2c-0.2-0.1-0.3-0.1-0.5-0.2c-0.1,0-0.1,0-0.2-0.1
							c-0.5,2-1,4.1-1.5,6.1C472.2,146.9,472.5,147,472.7,147.1z"/>
					</g>
					<g>
						<path style="fill:#C18733;" d="M453.3,112.8c-0.1,0.8-0.1,1.5-0.1,2.3c0,0.2,0,0.3,0,0.5l2.1-0.2c0-0.1,0-0.2,0-0.3
							c0-0.3,0-0.6-0.1-0.9c-0.5-0.4-1-0.8-1.5-1.3L453.3,112.8z"/>
						<path style="fill:#C18733;" d="M464.2,136.1c0,0,0-0.8-0.2-2.1c-0.9-0.9-1.7-1.9-2.5-2.9l-0.8-0.8c0,0,0.1,0.1,0.3,0.2
							c-0.4-0.5-0.8-1-1.1-1.6c-1.4-2.2-2.4-4.5-3.2-7l0,0h0c0-0.2-0.1-0.4-0.2-0.6c-0.1-0.4-0.2-0.8-0.3-1.1l-2.5-0.7l2.3-0.1
							c-0.2-0.8-0.3-1.5-0.5-2.2c0-0.3-0.1-0.5-0.1-0.8l-2.3-0.3c0,0.5,0,0.9,0,1.4c0.1,1.5,0.3,3,0.6,4.5c0.4,1.9,0.8,3.8,1.5,5.6
							c0.7-0.8,1.2-1.6,1.2-1.6l-0.7,3.1c0.2,0.6,0.5,1.1,0.8,1.6c0.1,0.3,0.3,0.6,0.5,0.9c0,0,0.1,0.1,0.2,0.1l1.4-3.1
							c0,0-0.1,2.1-0.2,3.9c0.8,0.6,1.5,1,2.1,1.5l-0.7-3.2c0,0,0.7,1.9,1.3,3.6c0.3,0.2,0.6,0.3,0.8,0.5l-1.5-4.1l2.2,4.5
							C463.7,135.8,464.2,136.1,464.2,136.1z"/>
					</g>
				</g>
				<g>
					<path style="fill:#418421;" d="M456.2,101.4l0,0.6l-3,2.7l2.8,0.7l-0.5,8.4l-6.2,1l6.1,0.9l-0.1,2.3l-8.7,1.1l8.6,1.1l0,0.8
						l-8.9-0.4l8.9,1.4l-0.6,11.6c-3.2,0.6-9.1,1.8-8.8,1.8c0.2,0,5.5,0.6,8.7,0.9l-0.1,2.9l-6.5,1.3l6.4,1.5l-0.1,2.9h-3.7l3.7,0.7
						v0.2l-5.1,0.7l5,1l-0.4,7.6c0,0-13-13.3-13.6-19.8c-0.5-5.3,3.6-19.8,5.3-25.2c0.4-1.4,1.1-2.6,2-3.8l9.5-11l-3,7L456.2,101.4z
						"/>
					<path style="opacity:0.4;fill:#1B3D04;enable-background:new    ;" d="M455.9,105.4l-2.8-0.7l3-2.7l0-0.6l-2.7,1.1l3-7l-9.5,11
						c-0.9,1.1-1.6,2.3-2,3.8c-0.8,2.6-2.1,7.3-3.3,12.1c3.5,0.3,7.5,0.7,7.7,0.7c0.2,0-1.2-1.1-2.6-2.2l-0.7-0.1l0.6,0
						c-1.4-1-2.8-2.1-2.8-2.1s8.1-0.6,8.4-0.6s-5.4-2.8-5.7-3.1c-0.3-0.3,3.7-2.9,3.7-2.9s3.2-0.4,3.7-0.4c0.4,0-1.5-1.1-1.5-1.1
						l3.3-3.4L455.9,105.4z"/>
				</g>
				<path style="fill:#6AC634;" d="M443.2,64.5l-8.5,3l0,0.8l1.2,2.4l5-1.5l-4.2,3.2l2.2,4.5l9.7-3.7l-8.9,5.3l0.5,1.1l4.8-1
					c0,0-2.1,1.3-4.1,2.4l4,8.4c2.5-0.8,5.5-1.7,5.8-1.8c0.4,0-2.7,1.8-5.1,3.2l1.7,3.5c2.1-0.8,4.6-1.9,5-2.1
					c0.4-0.2-2.2,1.8-4.3,3.5l0.6,1.1l4.5-1.4l-3.9,2.5l1.2,2.4l0.7,0.8l3.8-2.4l-2.4,4l5,5.5c0,0-0.5-26.9-3.6-34.1
					c-3.1-7.2-19.8-22.9-19.8-22.9l0.6,13L443.2,64.5z"/>
				<path style="fill:#245109;" d="M456.7,107l3.1-0.5c2.2,1.5,4.4,3.2,6.4,5.1l-6.1,0.7l7.9,1.1c0.9,1,1.7,2,2.3,3.1l-7.6,0.5
					l8.9,2.4c0.3,0.8,0.6,1.6,0.9,2.5l-6.1-1.9l6.4,2.8c0.2,0.8,0.5,1.5,0.7,2.3c-2.2-0.2-4.9-0.4-4.9-0.4l5.4,2.2
					c0,0.1,0.1,0.3,0.1,0.5l-4.2-0.2c0,0,2.3,0.5,4.4,0.9c0,0.3,0.1,0.6,0.2,0.8c-1.9-0.3-4.2-0.6-4.2-0.6s2.3,1.2,4.5,2.2
					c0.2,0.9,0.3,1.7,0.4,2.5c-1.8-1.3-3.8-2.5-3.8-2.5l4,4.4c0.2,1.8,0.3,2.9,0.3,2.9s-0.8-0.3-2-0.9l-2.7-5.6l1.9,5.1
					c-0.3-0.2-0.7-0.4-1-0.6c-0.8-2.1-1.6-4.5-1.6-4.5l0.9,4c-0.8-0.5-1.7-1.1-2.6-1.8c0.1-2.3,0.3-4.9,0.3-4.9l-1.8,3.8
					c-0.7-0.5-1.4-1.1-2.1-1.7l1.1-5.6c0,0-1.9,2.6-3,3.9c-0.4-0.4-0.8-0.8-1.3-1.3c-1.3-1.4-2.4-2.8-3.4-4.3l2.9-5.5l-3.3,4.8
					c-0.2-0.4-0.4-0.8-0.7-1.1l2.9-4.2l-3.5,3.1c-1-1.9-1.7-3.8-2.3-5.6l-0.7-2.2c-0.8-2.6-1-4.3-1-4.3l-1.5-6.7
					c0,0,3.2,1.6,7.1,4.1L456.7,107z"/>
				<g>
					<path style="fill:#D6854D;" d="M461.8,114.5c-1.7,1.7-4.4,1.7-6.1,0c-1.7-1.7-1.7-4.4,0-6.1c1.7-1.7,4.4-1.7,6.1,0
						C463.5,110,463.5,112.8,461.8,114.5z"/>
					<path style="fill:#BC6428;" d="M455.7,114.5c1.7,1.7,4.5,1.6,6.1,0c1.6-1.6,1.6-4.2,0.2-5.9c0,1.3-0.4,2.5-1.5,3.5
						c-0.3,0.3-0.8,0.5-0.9,0.1c-0.6,1-1.7,1.6-2.9,1.4c-0.6-0.1-1.1-0.4-1.7-0.5c-0.1,0-0.2,0-0.3,0
						C455,113.7,455.3,114.1,455.7,114.5z"/>
					<path style="fill:#492004;" d="M462.3,109.6c-0.1,0.1-0.3,0-0.5-0.2c-0.2-0.2-0.3-0.4-0.2-0.5c0.1-0.1,0.3,0,0.5,0.2
						C462.3,109.3,462.4,109.5,462.3,109.6z"/>
					<path style="fill:#492004;" d="M461.1,109.1c-0.1,0.1-0.3,0-0.5-0.2c-0.2-0.2-0.3-0.4-0.2-0.5c0.1-0.1,0.3,0,0.5,0.2
						S461.2,109,461.1,109.1z"/>
					<path style="fill:#492004;" d="M462.4,110.7c-0.1,0.1-0.3,0-0.5-0.2c-0.2-0.2-0.3-0.4-0.2-0.5c0.1-0.1,0.3,0,0.5,0.2
						S462.5,110.6,462.4,110.7z"/>
				</g>
				<g>
					<ellipse style="fill:#D6854D;" cx="449.5" cy="103.6" rx="4.3" ry="4.3"/>
					<path style="fill:#BC6428;" d="M453.1,106.1c1.4-2,0.9-4.6-1-6.1c-1.9-1.3-4.4-0.9-5.8,0.8c1.3-0.2,2.5,0,3.7,0.8
						c0.3,0.2,0.6,0.8,0.2,0.9c1.1,0.4,1.8,1.5,1.9,2.6c0,0.6-0.2,1.2-0.2,1.7c0,0.1,0,0.2,0,0.3
						C452.4,106.9,452.7,106.5,453.1,106.1z"/>
					<path style="fill:#492004;" d="M447.2,100.4c0.1,0.1,0,0.3-0.1,0.6c-0.1,0.2-0.4,0.4-0.5,0.3c-0.1-0.1,0-0.3,0.1-0.6
						C446.8,100.4,447,100.3,447.2,100.4z"/>
					<path style="fill:#492004;" d="M446.8,101.6c0.1,0.1,0,0.3-0.1,0.6c-0.1,0.2-0.4,0.4-0.5,0.3c-0.1-0.1,0-0.3,0.1-0.6
						C446.5,101.7,446.7,101.6,446.8,101.6z"/>
					<path style="fill:#492004;" d="M448.2,100.1c0.1,0.1,0,0.3-0.1,0.6c-0.1,0.2-0.4,0.4-0.5,0.3c-0.1-0.1,0-0.3,0.1-0.6
						C447.9,100.1,448.1,100,448.2,100.1z"/>
				</g>
				<g>
					<circle style="fill:#D6854D;" cx="450.3" cy="113" r="4.3"/>
					<path style="fill:#BC6428;" d="M450.3,117.3c2.4,0,4.3-1.9,4.3-4.3c0-2.3-1.7-4.1-4-4.3c0.9,0.9,1.5,2.1,1.5,3.5
						c0,0.4-0.3,0.9-0.6,0.8c0.3,1.1-0.1,2.3-1,3c-0.5,0.3-1,0.5-1.5,0.8c-0.1,0-0.1,0.1-0.2,0.2
						C449.2,117.2,449.7,117.3,450.3,117.3z"/>
					<g style="opacity:0.4;">
						<g>
							<defs>
								<circle id="SVGID_3_" cx="450.3" cy="113" r="4.3"/>
							</defs>
							<clipPath id="SVGID_4_">
								<use xlink:href="#SVGID_3_"  style="overflow:visible;"/>
							</clipPath>
							<path style="clip-path:url(#SVGID_4_);fill:#A54B0E;" d="M454.8,110.9c0.2,0,0.6,0,0.7-0.2c0.1-0.1,0.1-0.4,0.1-0.6
								c-0.2-1.5-1.5-2.7-3-3.3c-2.5-1-5.4-0.8-7.9,0c-0.7,0.2-1.3,0.5-1.8,1c-0.4,0.4-0.6,0.8-0.8,1.4c-0.5,1.3-0.8,2.7-0.2,4
								c0.4,1.1,1.6,1.9,2.8,1.9c1.1,0,1.8-0.9,2.7-1.5C449.5,112,452.1,111,454.8,110.9z"/>
						</g>
					</g>
					<path style="fill:#492004;" d="M451.5,109.2c0,0.1-0.2,0.2-0.5,0.2s-0.5-0.1-0.5-0.2c0-0.1,0.2-0.2,0.5-0.2
						S451.5,109.1,451.5,109.2z"/>
					<path style="fill:#492004;" d="M450.3,109.7c0,0.1-0.2,0.2-0.5,0.2c-0.3,0-0.5-0.1-0.5-0.2c0-0.1,0.2-0.2,0.5-0.2
						C450.1,109.5,450.3,109.5,450.3,109.7z"/>
					<path style="fill:#492004;" d="M452.4,109.9c0,0.1-0.2,0.2-0.5,0.2c-0.3,0-0.5-0.1-0.5-0.2c0-0.1,0.2-0.2,0.5-0.2
						C452.2,109.6,452.4,109.8,452.4,109.9z"/>
				</g>
				<path style="fill:#66BC2E;" d="M442.1,109.2l6.7,4.4l-0.2,0.7l-1.5,1.9l-3.9-2.4l3,3.6l-2.8,3.4l-7.6-5.3l6.5,6.5l-0.7,0.8
					l-3.9-1.9c0,0,1.5,1.5,3.1,3l-5.3,6.3c-2-1.2-4.4-2.6-4.6-2.8c-0.3-0.1,1.9,2.1,3.7,3.9l-2.2,2.6c-1.6-1.2-3.6-2.6-3.8-2.9
					c-0.3-0.2,1.5,2,3,3.9l-0.7,0.8l-3.6-2.2l2.9,3l-1.5,1.9l-0.8,0.5l-2.8-2.9l1.3,4l-5.5,3.7c0,0,6.1-23,10.3-28.6
					c4.2-5.5,24.1-17.6,24.1-17.6l0.7,2.5l-6.2,10.7L442.1,109.2z"/>
				<g>
					<circle style="fill:#D6854D;" cx="454.5" cy="103.6" r="4.3"/>
					<path style="fill:#BC6428;" d="M454.5,108c2.4,0,4.3-1.9,4.3-4.3c0-2.3-1.7-4.1-4-4.3c0.9,0.9,1.5,2.1,1.5,3.5
						c0,0.4-0.3,0.9-0.6,0.8c0.3,1.1-0.1,2.3-1,3c-0.5,0.3-1,0.5-1.5,0.8c-0.1,0-0.1,0.1-0.2,0.2C453.4,107.9,454,108,454.5,108z"/>
					<path style="fill:#492004;" d="M455.7,99.9c0,0.1-0.2,0.2-0.5,0.2s-0.5-0.1-0.5-0.2c0-0.1,0.2-0.2,0.5-0.2
						S455.7,99.7,455.7,99.9z"/>
					<path style="fill:#492004;" d="M454.6,100.3c0,0.1-0.2,0.2-0.5,0.2c-0.3,0-0.5-0.1-0.5-0.2c0-0.1,0.2-0.2,0.5-0.2
						C454.3,100.1,454.6,100.2,454.6,100.3z"/>
					<path style="fill:#492004;" d="M456.6,100.5c0,0.1-0.2,0.2-0.5,0.2c-0.3,0-0.5-0.1-0.5-0.2c0-0.1,0.2-0.2,0.5-0.2
						C456.4,100.3,456.6,100.4,456.6,100.5z"/>
				</g>
			</g>
			<path style="opacity:0.5;fill:#BF9D62;enable-background:new    ;" d="M499.6,182.2l-0.2,0.3l0.2-0.4v-4.5l-4.7-0.7l-3-2.2
				l7.2,2.7c0.2,0,0.4,0,0.6-0.1v-1l-3.2-1.1l3.2,0.8v-4.9c-1.7,0-3.5,0-5.2,0l-2.7,2.8l1.8-2.8c-0.4,0-0.8,0-1.3,0.1l-1.6,2.4
				l0.4-2.3c-1.9,0.2-3.7,0.5-5.3,0.8l-5.6-0.7l7.8,0c1-0.4,2-0.9,2.8-1.4l-7.3-0.7l9.1-0.6c0.4-0.4,0.8-0.8,1.3-1.2l-6.2,0.6l6.7-1
				c0.4-0.4,0.7-0.8,1-1.1c-2.2,0-4.8-0.1-4.8-0.1l5.5-0.7c0-0.1,0.1-0.1,0.2-0.2l-4.1-0.1c0,0,2.3-0.1,4.4-0.2
				c0.1-0.1,0.2-0.3,0.3-0.4c-1.9,0-4.1,0-4.1,0s2.5-0.4,4.7-0.8c0,0,0.1-0.1,0.1-0.2c0.8,0,1.5-0.1,2.3-0.2v-3.1
				c-0.1,0-0.2,0-0.3,0c0,0,0-0.1,0-0.1s-0.6,0-1.6,0.2c-8.4,0.9-15.5,1.8-17,2.3c-1.1,0.4-2.3,1.5-3.5,2.9l1.2-5.3
				c-3-0.5-8.5-1.5-8.3-1.5c0.2,0,5.4,0.1,8.5,0.2l0.3-1.4l-6.1-1.1l6.4-0.3l0.3-1.4l-3.6-0.2l3.7-0.1l0-0.1l-4.8-0.7l5-0.2l0.8-3.7
				c0,0-14.7,5.6-16.4,8.7c-0.8,1.4-0.6,4.4-0.1,7.2l-0.3-0.2l-4.1,0.7c0,0,1.7-0.7,3.4-1.3l-4-3.4c-2.2,0.5-4.7,1-5,1
				c-0.3,0,2.3-0.9,4.2-1.6l-1.7-1.4c-1.7,0.5-3.9,1-4.2,1.1c-0.3,0.1,1.7-0.9,3.5-1.7l-0.6-0.5l-3.8,0.8l3.3-1.3l-1.2-1l-0.7-0.3
				l-3.2,1.2l1.9-1.8l-4.7-2.2c0,0,2.2,11.6,5.4,14.6c0,0,0,0,0,0l-2.1-0.9c-2.8,1.1-7.4,2.9-7,2.8c0.4-0.1,3-2.7,4.3-3.9l-0.5-0.2
				l-3.1-1.3l-6.1,1.8c0,0,2.9-1.5,4.6-2.4l-1.4-0.6c-2.5,0.3-5.7,0.8-5.7,0.8s2.3-0.8,3.9-1.5l-1.3-0.6c-1.7,0.1-3.6,0.3-3.6,0.3
				s0.3-0.6,0.8-1.4l-4.8-2c0,0,0.3,6.8,9.5,13.9c4,3.2,10.9,4.6,17.3,5.1l0.3,4.2l-2.5-4l-0.8,0.1l1.8,4.3l-2.8-4.1l-11.2,1.4
				c-0.1,1.6-0.3,4.6-0.3,4.4c-0.1-0.1-1.5-2.6-2.3-4.1l-2.8,0.3l-0.2,3.3l-2.5-2.9l-2.8,0.3l0.6,1.8l-1.3-1.7l-0.2,0l0.2,2.5
				l-1.8-2.3l-7.3,0.9c0,0,15,5,21.4,4.7c3.8-0.2,12.1-2.1,18.2-3.6l-5.2,3.7c1.8,0.7,3.6,1.5,3.6,1.5l-4.5-0.8l-0.7,0.5l7.7,3.2
				l-8.8-2.4l-2.8,2l3.5,1.8l-4.6-1.1L448,193l-0.2,0.4l7.7,1.9l-8.4-0.5l-2.7,6.3c0,0,18.7-6.5,22.9-9.8c2.7-2.1,5.7-8.3,7.5-12.4
				c2.4,1.8,5.2,3.5,7.7,4.1c3.1,0.7,10.6,1.2,17.2,1.4V182.2z M491.2,163.9c0,0.1,0,0.2,0,0.2l-0.1-0.2
				C491,163.9,491.1,163.9,491.2,163.9z M487.8,164.2l0.1,1.5c0,0-0.8-0.7-1.5-1.4C486.9,164.3,487.4,164.2,487.8,164.2z
				 M476.9,165.8c-0.1,0.1-0.2,0.3-0.4,0.5l-8.2-0.4L476.9,165.8z M468,175.9l-2.1,1l-0.5,0l1.5-1.5
				C467.3,175.6,467.7,175.8,468,175.9z M465.7,171.7l-3.4,0.1l3.1-0.7C465.5,171.4,465.6,171.6,465.7,171.7z M464,174.2l-2.5,1.3
				l1.6-1.7C463.3,173.9,463.7,174.1,464,174.2z M465,169.3c0,0.1,0,0.1,0,0.2l-1,0.2L465,169.3z M464.3,165.8
				c0,0.3,0.1,0.5,0.1,0.8l-7.3,1.8L464.3,165.8z M450.9,175.4c0,0,4.6-2.4,7.2-3.9c0.4,0.2,0.8,0.4,1.2,0.6L450.9,175.4z
				 M459.9,178.3c0.5,0,1,0,1.5,0l0,2.2L459.9,178.3z M466.5,184.7c-0.3,0-3-0.7-5.3-1.2c0.6-0.1,1.1-0.3,1.6-0.4
				C464.8,183.9,466.8,184.7,466.5,184.7z M468.7,182.6c-0.1,0-0.8-0.3-1.7-0.5c0.2,0,0.3-0.1,0.5-0.2
				C468.4,182.3,468.9,182.6,468.7,182.6z M469.6,180.9C469.6,180.9,469.6,180.9,469.6,180.9l0.4,0.1L469.6,180.9z M472,179.4
				L472,179.4l0.2,0.1L472,179.4z M474.1,169.6l-3.8-0.6l4.2,0C474.4,169.2,474.2,169.4,474.1,169.6z M475,175.6L475,175.6
				c0.1-0.1,0.1-0.1,0.2,0L475,175.6z M468.3,166.7l7.8,0c-0.2,0.3-0.5,0.6-0.7,0.9L468.3,166.7z M476.9,175.9L476.9,175.9
				C477,175.9,477,175.9,476.9,175.9L476.9,175.9z M476.7,174.2l-0.6-0.3l1.2,0.2L476.7,174.2z M482.3,164.8c0,0,0.3-0.1,0.8-0.1
				c-0.4,0.2-0.8,0.4-1.2,0.6C482.1,165,482.3,164.8,482.3,164.8z M480.8,166.7l1.5,2.3l-1.8-1.9C480.6,167,480.7,166.8,480.8,166.7
				z M479.9,167.8l1.3,1.3l-1.6-0.9C479.7,168.1,479.8,167.9,479.9,167.8z M480.3,178.3l0.6-2.5l1,0.9c0.1,0,0.2,0,0.3,0
				L480.3,178.3z M484.5,180.2c0-0.1,0.8-1.5,1.5-2.9c0.6,0,1.3,0.1,1.9,0.2C486.3,178.8,484.5,180.3,484.5,180.2z M488.7,176.8
				l-2.1-1.8l2.7,1.3C489.1,176.5,488.9,176.6,488.7,176.8z"/>
		</g>
		<ellipse style="fill:#FDBC20;" cx="295.6" cy="61.3" rx="16" ry="16"/>
		<g>
			<path style="fill:#FFFFFF;" d="M325.8,118.4c0,0-15.1,7.3-15.3,19.3l15.8,3.3l0,0c-3.1-6.8-3.4-14.4-0.9-21.4L325.8,118.4z"/>
			<path style="fill:#FFFFFF;" d="M326.1,118.7l0.6,1.8c2.3,6.6,2.1,13.7-0.4,20.1l0,0l12-3.5C338.3,137.1,335.3,125.7,326.1,118.7z
				"/>
			<g>
				<rect x="325.9" y="114.4" style="fill:#316DB5;" width="0.5" height="31.4"/>
			</g>
			<path style="fill:#3D76C9;" d="M311.3,141.8c0,0,2,5.2,5.5,6.8h21.6v-5L311.3,141.8z"/>
			<path style="fill:#FFD797;" d="M320,146.9c2.1,0,3.9,1.5,6,1.3c1.7-0.1,3.3-1.5,5-1.3c1.1,0.2,1.9,0.9,3,1.2
				c1.3,0.3,2.6-0.3,4-0.4c1.4-0.1,3,0.7,3,2c0,1.2-1.4,1.8-2.5,2c-3.8,0.8-7.7,0.2-11.5-0.2c-3.5-0.3-7.1-0.4-10.6-0.3
				c-1.4,0-5.4-0.8-3.2-2.5c0.6-0.5,2.3-0.4,3-0.6C317.3,147.7,318.5,146.9,320,146.9z"/>
			<path style="fill:#4BDDFD;" d="M320,146.9c2.1,0,3.9,1.5,6,1.3c1.7-0.1,3.3-1.5,5-1.3c1.1,0.2,1.9,0.9,3,1.2
				c1.3,0.3,2.6-0.3,4-0.4c1.4-0.1,3,0.7,3,2c0,1.2-1.4,1.8-2.5,2c-3.8,0.8-7.7,0.2-11.5-0.2c-3.5-0.3-7.1-0.4-10.6-0.3
				c-1.4,0-5.4-0.8-3.2-2.5c0.6-0.5,2.3-0.4,3-0.6C317.3,147.7,318.5,146.9,320,146.9z"/>
			<path style="opacity:0.3;fill:#80F0FF;enable-background:new    ;" d="M325.3,119.6l0.2-0.6c-1,0.1-2.1,0.6-3,1.5
				c-4,3.8-6,10-5.2,15.3c0.2,1.3,0.5,2.5,1.3,3.6l7.5,1.6l0,0C323.2,134.2,322.9,126.6,325.3,119.6z"/>
			<path style="fill:#FFA4BC;" d="M314.3,127.7l6.3,1.1l0.4-1.3l-5.7-1.1C314.9,126.8,314.6,127.2,314.3,127.7z"/>
			<path style="fill:#FFE471;" d="M313,129.4l7.2,1.5l0.3-1.3l-6.7-1.3C313.5,128.7,313.2,129.1,313,129.4z"/>
			<path style="opacity:0.3;fill:#80F0FF;enable-background:new    ;" d="M338.3,137.1c0,0-3.1-11.5-12.1-18.4l0.3,0.9
				c2.1,2.3,3.9,4.8,5.3,7.7c0.9,2,1.6,4.2,1.9,6.4c0.2,1.6,0.1,3.2,0,4.8L338.3,137.1z"/>
		</g>
		<g>
			<path style="opacity:0.4;fill:#13BDE5;enable-background:new    ;" d="M311.2,188.9c-0.8-0.4-1.5-0.8-2.4-1l0,0l0,0
				c-0.3-0.1-0.6-0.2-0.9-0.3h0c-0.3-0.1-0.6-0.2-0.9-0.2c0,0,0,0-0.1,0c-0.3-0.1-0.6-0.1-0.9-0.2c0,0-0.1,0-0.1,0
				c-0.3,0-0.7-0.1-1-0.2c0,0-0.1,0-0.1,0c-0.3,0-0.7-0.1-1-0.2c0,0,0,0-0.1,0c-0.3,0-0.7-0.1-1.1-0.1c0,0,0,0,0,0
				c-0.4,0-0.8-0.1-1.1-0.1l0,0c-0.4,0-0.8-0.1-1.1-0.1c0,0,0,0-0.1,0c-0.4,0-0.7,0-1.1-0.1c0,0-0.1,0-0.1,0c-0.3,0-0.7,0-1,0
				c0,0-0.1,0-0.1,0c-0.3,0-0.7,0-1,0c0,0-0.1,0-0.1,0c-0.4,0-0.7,0-1.1,0h0c-0.2,0-0.5,0-0.8,0l-0.9-3.1l2.9,2.9l0.8-0.1l-2.3-3.1
				l3.2,3l10-1.7c-0.1-1.2-0.5-3.5-0.4-3.4c0.1,0.1,1.7,1.9,2.7,3l2.5-0.4l-0.3-2.5l2.8,2.1l2.5-0.4l-0.8-1.3l1.4,1.2l0.2,0
				l-0.6-1.9l2,1.6l6.5-1.1c0,0-14.4-2.9-20.2-2.3c-2.3,0.2-6.3,1.2-10.3,2.2l0,0c-1.1,0.3-2.3,0.6-3.4,0.9l1.5-1.1
				c-1.7-0.4-3.5-0.9-3.5-0.9l4.2,0.4l0.6-0.4l-7.6-2l8.4,1.4l2.3-1.7L295,176l4.4,0.6l1.2-0.9l0.1-0.3l-7.4-1.1l7.7-0.1l1.5-4.9
				c0,0-16.1,6-19.4,8.7c-1.9,1.5-3.5,5.4-4.5,8.5c-2.6-1.3-5.4-2.4-7.7-2.7c-3.7-0.5-13.4-0.2-20,0v4.6l3.1-3.2l-1.2,3.5l0.8,0
				l2-3.6l-1,3.7l6.1,0.3l3.1,1.5l-6.9-1.6c-0.8,0.1-1.5,0.3-2.2,0.5l5,1l-5.7-0.8c-0.7,0.1-1.4,0.3-2,0.5c1.5,0.5,3.2,1.1,3.2,1.1
				l-4-0.7v0.4l1.7,0.7c0,0-0.8-0.2-1.7-0.4v0.5c0.4,0.1,0.6,0.2,0.6,0.2s-0.2,0-0.6-0.1v1.1c0.8-0.4,1.3-0.6,1.3-0.6l-1.3,1.4v0.1
				c0.7,0,1.5,0,2.3,0l3-1.8c0,0-0.6,1.2-0.8,1.8c0.5,0,1,0,1.6,0c1.7,0,3.3-0.2,4.9-0.3l2-2.3l-1.2,2.2c0.4,0,0.8-0.1,1.1-0.1
				l1.1-1.9v1.8c1.9-0.3,3.6-0.6,5.1-0.9l2.2,0.1l0,0c0,0,0,0,0,0.1c0,0,0,0,0,0c0,0,0,0,0,0.1l0,0l-4.6,0.3
				c-0.9,0.4-1.7,0.8-2.3,1.2l6.7,0.1l-8.2,0.9c-0.4,0.3-0.7,0.6-1,0.9l5.6-0.8l-6,1.1c-0.3,0.3-0.6,0.6-0.8,0.9
				c2-0.1,4.4-0.1,4.4-0.1L261,198c0,0-0.1,0.1-0.1,0.2l3.8-0.1c0,0-2.2,0.2-4,0.4c-0.1,0.1-0.1,0.2-0.2,0.3
				c1.8-0.1,3.8-0.2,3.8-0.2s-2.2,0.5-4.2,0.8c-0.2,0.3-0.4,0.7-0.6,0.9c1.7-0.5,3.6-1,3.6-1l-3.9,1.7c-0.4,0.7-0.5,1.1-0.5,1.1
				s0.7-0.1,1.9-0.4l2.9-2.1l-2.1,1.9c0.3,0,0.6-0.1,1-0.2c0.8-0.8,1.8-1.7,1.8-1.7l-1.1,1.5c0.6-0.1,1.3-0.3,2-0.5
				c-1.5,0.8-3,1.5-4.6,2.3l0,0c-0.1,0-0.3,0.1-0.4,0.2l0,0c-2.1,0.9-4.3,1.8-6.7,2.7c-0.1,0-0.3,0.1-0.5,0.2
				c-0.5,0.2-1.1,0.4-1.6,0.6c0,0-0.1,0-0.1,0v2.5c1-0.3,2-0.7,3-1c2.2-0.8,4.2-1.6,6.2-2.5c0,0,0.1,0,0.1,0
				c0.2-0.1,0.4-0.2,0.6-0.3c0.1,0,0.3-0.1,0.4-0.2c0.7-0.3,1.3-0.6,1.9-0.9l0,0c0.3-0.1,0.5-0.3,0.8-0.4l0,0c0.1,0,0.2-0.1,0.3-0.2
				c2.2-1.1,4.3-2.3,6.2-3.6c0.3-0.2,0.7-0.5,1-0.7c0.1,0,0.2-0.1,0.3-0.2l0,0c0,0,0.1-0.1,0.2-0.1l0,0c0.1-0.1,0.2-0.1,0.3-0.2l0,0
				c0.7-0.5,1.3-0.9,1.9-1.5l0,0c0.1-0.1,0.2-0.1,0.3-0.2c0,0,0.1,0,0.1-0.1c0.1-0.1,0.3-0.2,0.5-0.3l0,0c0,0,0,0,0,0l0,0l0,0
				c0.1-0.1,0.2-0.2,0.3-0.2l0,0l0,0l0,0l0.1,0.1c0.2-0.1,0.5-0.3,0.7-0.4l-0.2-0.1c0.1-0.1,0.3-0.3,0.5-0.4l0.4,0.1
				c0.7-0.5,1.3-0.9,1.8-1.4l0,0.5l7.7,0.4l-7.8,0.5l0,0.3l8-0.2l-0.6,0l0,0l-7.5,0.5l-0.3,4.4c2.8,0.2,8,0.6,7.7,0.7
				c-0.2,0-5,0.2-7.8,0.4l-0.1,1.1l5.8,0.5l-5.8,0.6l-0.1,1.1h3.3l-3.3,0.3v0.1l4.5,0.2l-4.6,0.4l-0.2,2.9c0,0,12.6-5.1,13.6-7.5
				c0.4-1,0-2.9-0.8-4.8l0,0l3.7-0.8c0,0-1.5,0.6-3,1.1l4.2,2.4c1.9-0.5,4.1-1,4.4-1.1c0.3,0-1.9,0.8-3.6,1.5l1.7,1
				c1.5-0.5,3.4-1,3.7-1.1c0.3-0.1-1.5,0.8-2.9,1.5l0.6,0.3l3.3-0.8l-2.8,1.1l1.2,0.7l0.7,0.2l2.7-1.1l-1.4,1.5l4.6,1.4
				c0,0-3.8-8.7-7.1-10.7h0l2,0.6c2.3-1,6.2-2.6,6-2.5c-0.3,0.1-2.3,2.2-3.3,3.2l0.5,0.1l3.1,0.8l5.3-1.7c0,0-2.4,1.3-3.8,2.1
				l1.4,0.4c2.2-0.4,5.1-0.9,5.1-0.9s-2,0.8-3.3,1.4l1.3,0.3c1.5-0.2,3.3-0.4,3.3-0.4s-0.2,0.5-0.5,1.1l4.7,1.2
				C322,199,320.6,193.8,311.2,188.9z M265.6,189.2c0.1-0.1,0.3-0.2,0.4-0.4l2.2,1.2L265.6,189.2z M268.5,188.4c-0.6,0-1.2,0-1.7,0
				c1.3-1.1,2.7-2.3,2.7-2.3C269.4,186.1,268.9,187.2,268.5,188.4z M265.4,200.2c0-0.8,0.1-1.7,0.1-1.7l1,1.1
				C266.1,199.8,265.7,200,265.4,200.2z M268.9,198.1L268.9,198.1c-0.1,0-0.2,0.1-0.3,0.2c0,0,0,0-0.1,0l-0.4-1.2
				c0,0,0.6,0.4,1.2,0.8C269.2,198,269,198.1,268.9,198.1z M272.1,188.5l1.5-1.3l-0.2,1.9l-1.1-0.6
				C272.3,188.5,272.2,188.5,272.1,188.5z M273.5,194.9l-0.6-0.6l0.7,0.5C273.6,194.9,273.5,194.9,273.5,194.9z M274.2,194.4
				l-0.3-0.2L274.2,194.4C274.2,194.4,274.2,194.4,274.2,194.4z M277.1,190.2l0.2,0c0,0,0.1,0,0.2,0H277.1z M278.9,193.6
				c0.1-0.1,0.2-0.2,0.3-0.3l0.2-0.2c0.1,0.2,0.2,0.3,0.5,0.5L278.9,193.6z M286.5,183.2c-0.1,0-0.2,0-0.3,0.1
				c-0.9-0.2-1.5-0.4-1.3-0.4s0.9,0.1,1.9,0.2C286.7,183.1,286.6,183.2,286.5,183.2z M287.1,187.6c-0.1,0-0.2,0-0.3-0.1c0,0,0,0,0,0
				l0,0l0.1,0l0.4-0.1L287.1,187.6z M292.2,186.1c0,0-0.1,0-0.1,0s-0.1,0-0.1,0c-0.3,0-0.7,0-1,0c0,0-0.1,0-0.1,0l-0.4-1.6l0,0
				L292.2,186.1z M291.2,188.2l-1.2,1.3c-0.3-0.1-0.5-0.1-0.8-0.2L291.2,188.2z M290.9,191L290.9,191
				C290.9,191.1,290.9,191,290.9,191L290.9,191z M290.2,195.7c0-0.1-0.1-0.2-0.1-0.3s0-0.2-0.1-0.2l0,0l6.2-1.7L290.2,195.7z
				 M300.1,188.1C300.1,188.1,300.1,188.1,300.1,188.1c-1.3,0.7-3.7,2-5.2,3c-0.4-0.1-0.8-0.2-1.2-0.4l7.1-3
				C300.8,187.7,300.6,187.8,300.1,188.1z"/>
			<path style="fill:#EDC174;" d="M286.9,116.5c-0.1-1.9-0.2-3.7-0.5-5.6l-2.2,0.3c0.2,1.7,0.2,3.6,0.2,5.4s-0.1,3.6-0.3,5.4
				c-0.3,3.6-0.8,7.1-1.6,10.6c-1.6,7-4.2,13.7-7.7,19.8c-3.6,6.1-8.1,11.6-13.4,16.2c-3.2,2.8-6.8,5.3-10.5,7.6v7.3
				c5.1-3.1,9.9-6.7,14.1-10.8c5.4-5.4,10.1-11.5,13.6-18.2c3.5-6.7,5.9-13.9,7.1-21.3c0.7-3.7,1-7.4,1.2-11.1
				C286.9,120.2,286.9,118.3,286.9,116.5z"/>
			<g>
				<g>
					<path style="fill:#C18733;" d="M283.8,141.4c0-0.2,0.1-0.3,0.1-0.5c-1.1-0.5-2.2-1-3.4-1.5c0,0.2-0.1,0.3-0.1,0.5
						C281.6,140.4,282.7,140.9,283.8,141.4z"/>
					<path style="fill:#C18733;" d="M264.9,165.1c-0.1,0.1-0.2,0.2-0.4,0.4l4.1,3.3c0.1-0.1,0.2-0.2,0.3-0.4L264.9,165.1z"/>
					<path style="fill:#C18733;" d="M275.6,150.7c1,1.3,2,2.5,2.9,3.7l0,0c0.1-0.2,0.2-0.3,0.2-0.5c-0.9-1.2-1.9-2.4-2.9-3.7
						C275.8,150.3,275.7,150.5,275.6,150.7z"/>
					<path style="fill:#C18733;" d="M282.9,130.3c0,0.2-0.1,0.3-0.1,0.5l3.1,0.6c0-0.2,0-0.3,0.1-0.5L282.9,130.3z"/>
					<path style="fill:#C18733;" d="M262.6,167.3l1.8,5.8c0.1-0.1,0.3-0.3,0.4-0.4l-1.8-5.8C262.9,167,262.8,167.1,262.6,167.3z"/>
					<path style="fill:#C18733;" d="M266.6,163.3c0.9,1.4,2,3,3,4.4c0.1-0.1,0.2-0.3,0.3-0.4c-0.9-1.4-2-3-3-4.3
						C266.8,163.1,266.7,163.2,266.6,163.3z"/>
					<path style="fill:#C18733;" d="M284.1,140.1c-0.8-0.6-1.9-1.3-3.1-2.1c0,0.2-0.1,0.3-0.2,0.5c1.1,0.8,2.2,1.5,3.1,2.2
						C284,140.4,284.1,140.3,284.1,140.1z"/>
					<path style="fill:#C18733;" d="M260.8,169c-0.1,0.1-0.3,0.2-0.4,0.3l3,4.7c0.1-0.1,0.3-0.2,0.4-0.4L260.8,169z"/>
					<path style="fill:#C18733;" d="M285.1,136.2l-3.5-0.1c0,0.2-0.1,0.3-0.1,0.5l3.6,0.1C285,136.5,285.1,136.3,285.1,136.2z"/>
					<path style="fill:#C18733;" d="M254,174c-0.1,0.1-0.3,0.2-0.4,0.3l2.3,5.6c0.1-0.1,0.3-0.2,0.4-0.3L254,174z"/>
					<path style="fill:#C18733;" d="M257.9,171.2c-0.2,0.1-0.3,0.2-0.5,0.4l0.3,7c0.2-0.1,0.3-0.2,0.5-0.4L257.9,171.2z"/>
					<path style="fill:#C18733;" d="M286.2,130.1l-2.8-2c0,0.2,0,0.4-0.1,0.6l2.9,2C286.1,130.4,286.2,130.2,286.2,130.1z"/>
					<path style="fill:#C18733;" d="M285.4,134.8l-3-2.1c0,0.2-0.1,0.4-0.1,0.6l3,2.1C285.3,135.2,285.3,135,285.4,134.8z"/>
					<path style="fill:#C18733;" d="M269.3,160.1c1.2,1.5,2.3,2.8,3.2,3.8c0.1-0.1,0.2-0.3,0.3-0.4c-0.8-0.9-1.8-2.2-3.2-3.8
						C269.5,159.8,269.4,160,269.3,160.1z"/>
					<path style="fill:#C18733;" d="M284.3,119.9c0,0.2,0,0.3,0,0.5c0.9,0.1,1.8,0.2,2.7,0.3c0-0.2,0-0.3,0-0.5
						C286,120.1,285.1,120,284.3,119.9z"/>
					<path style="fill:#C18733;" d="M284.4,117.5c0.8,0.4,1.7,0.7,2.5,1.1c0-0.2,0-0.4,0-0.6c-0.8-0.3-1.6-0.7-2.5-1
						C284.4,117.1,284.4,117.3,284.4,117.5z"/>
					<path style="fill:#C18733;" d="M283.8,125.4c0,0.2,0,0.3-0.1,0.5l2.9,0.7c0-0.2,0-0.3,0-0.5L283.8,125.4z"/>
					<path style="fill:#C18733;" d="M284,123.3l2.7,1.7c0-0.2,0-0.4,0-0.6l-2.7-1.7C284,123,284,123.2,284,123.3z"/>
					<path style="fill:#C18733;" d="M284.4,115.1c0,0.2,0,0.3,0,0.5l2.4,0c0-0.2,0-0.3,0-0.5L284.4,115.1z"/>
					<path style="fill:#C18733;" d="M268,161.7c-0.1,0.1-0.2,0.3-0.3,0.4c1.1,0.7,2.4,1.6,4.2,2.8c0.1-0.1,0.2-0.3,0.3-0.4
						C270.4,163.3,269.1,162.4,268,161.7z"/>
					<path style="fill:#C18733;" d="M284.4,113.8l2.3,0.5c0-0.2,0-0.4,0-0.6l-2.3-0.5C284.3,113.4,284.3,113.6,284.4,113.8z"/>
					<path style="fill:#C18733;" d="M273,155.1c-0.1,0.1-0.2,0.3-0.3,0.4l4.2,1.8c0.1-0.1,0.2-0.3,0.3-0.5L273,155.1z"/>
					<path style="fill:#C18733;" d="M281.6,147.2c-1.3-0.6-2.4-1.1-3.5-1.6c-0.1,0.1-0.1,0.3-0.2,0.5c1.3,0.6,2.4,1.1,3.5,1.6
						c0,0,0.1,0,0.1,0C281.6,147.6,281.6,147.4,281.6,147.2C281.7,147.3,281.6,147.2,281.6,147.2z"/>
					<path style="fill:#C18733;" d="M278.7,144.2c1.2,0.8,2.3,1.6,3.3,2.3c0-0.2,0.1-0.3,0.2-0.5c-0.9-0.7-2-1.4-3.3-2.3
						C278.9,143.9,278.8,144,278.7,144.2z"/>
					<path style="fill:#C18733;" d="M279.5,142.3c0,0.1-0.1,0.3-0.2,0.5c1.2,0.4,2.4,0.9,3.6,1.4c0-0.2,0.1-0.3,0.1-0.5
						C281.8,143.2,280.6,142.8,279.5,142.3z"/>
					<path style="fill:#C18733;" d="M280.3,140.2c0,0.2-0.1,0.3-0.2,0.5c1.1,0.7,2.3,1.3,3.3,1.9c0-0.2,0.1-0.3,0.1-0.5
						c-0.5-0.3-1-0.6-1.6-0.9C281.4,140.9,280.8,140.5,280.3,140.2z"/>
				</g>
				<g>
					<g>
						<path style="fill:#418421;" d="M289.3,102.7l0.1,4.9l2.9,0.6l1.2-4.4l0.3,4.7l3.6,0.8l4.1-9.5c0,0-1.9,6.8-2.4,9.8l9.3,2
							c1.2-2.7,3.1-7.2,3-6.8s0,5.1,0,7.4l0.6,0.1l3.4,0.7l3.1-5.1c0,0-1,3.2-1.5,5.4l1.5,0.3c1.6-1.4,3.7-3.3,3.7-3.3
							s-1,2.2-1.7,3.8l1.4,0.3c1.2-0.8,2.5-1.8,2.5-1.8s0.2,1,0.6,2.4l5.3,1.1c0,0-5.8-9.9-18.6-16.9s-28.5,5-28.5,5l0.6,2.2
							l4.1,0.8L289.3,102.7z"/>
						<path style="fill:#2D660E;" d="M283.1,104.2c0,0,13.4-10.2,25.5-6.3l-2.2,1.9l-3.5-1.4c0,0,1.7,5.1,1.2,4.6
							c-0.2-0.2-1.5-1.1-2.8-2c0.2-0.7,0.3-1.1,0.3-1.1l-0.4,1c-1.4-0.9-2.7-1.9-2.7-1.9l-0.2,4.5l-2.7,0.6c0,0-3.9-3.2-3.8-2.7
							c0.2,0.5,0.3,5.1,0.3,5.1l-2.3,0.4l-0.3-0.2l-0.1-3.8l-1,3l-2.2-1.8l0.2,3.1l-2.6-0.6L283.1,104.2z"/>
					</g>
					<g>
						<path style="fill:#84D84E;" d="M284.3,107.8l0.4-0.3l0.2-3.3l1.9,1.5l5.2-4.6l-2.6-4.6l3.8,3.5l1.4-1.3l-3.8-6.2l5.2,5
							l0.5-0.5l-4.9-5.5l5.5,5l7.2-6.4c-1.2-2.4-3.5-6.8-3.4-6.7c0.1,0.1,3.2,3.3,5,5.2l1.8-1.6l-2.5-4.9l4.3,3.3l1.8-1.6l-1.9-2.4
							l2.3,2l0.1-0.1l-2.2-3.7l3.3,2.7l4.7-4.2c0,0-15.3-1.5-19.8,1.4c-3.7,2.4-10.9,12.6-13.6,16.4c-0.7,1-1.1,2.1-1.4,3.2
							l-2.3,11.8l3-5.6L284.3,107.8z"/>
						<path style="opacity:0.4;fill:#2D660E;enable-background:new    ;" d="M282.4,106.9c-0.1-0.4-0.2-1.6-0.4-3.2l0.8-4.5
							c0.2-1.2,0.7-2.3,1.4-3.2c1.4-2,3.9-5.5,6.6-8.9l-1.4,9.3l0,0v0l-1.2,7.9l-1.5,1.3l-1.9-1.5l-0.2,3.3l-0.4,0.3l-0.7-2.3
							l-1,1.9C282.5,107.2,282.5,107.1,282.4,106.9z"/>
					</g>
					<path style="fill:#418421;" d="M290.8,110.1c0,0-13.4-9.6-19.2-9.3c-4.4,0.2-15.7,5.3-20.7,7.6v9.9l3.8-0.8l0-5.6l1.6,5.3
						l2-0.4l-0.2-7.8l2.1,7.4l0.8-0.1l-1.5-7.8l2.4,7.6l10.1-2.1c0.1-2.9,0.4-8.2,0.4-8c0,0.2,1.2,4.8,1.9,7.5l2.5-0.5l0.3-5.9
						l2.2,5.4l2.5-0.5l-0.5-3.3l1.1,3.1l0.2,0l-0.1-4.6l1.6,4.3L290.8,110.1z"/>
					<path style="fill:#2D660E;" d="M279.4,111.4l-2.2-1.4c-2.1,0.4-4.4,1-6.6,1.7l4.4,2.6l-6.3-1.8c-1,0.5-2,1-2.8,1.5l5.6,2.9
						l-7.6-1.2c-0.5,0.5-1,1-1.5,1.6l5.3,0.6l-5.8,0c-0.5,0.5-0.9,1-1.3,1.5c1.7,0.6,3.8,1.3,3.8,1.3l-4.7-0.1
						c-0.1,0.1-0.2,0.2-0.2,0.3l3.3,1.3c0,0-2-0.4-3.7-0.8c-0.1,0.2-0.3,0.4-0.4,0.6c1.6,0.4,3.3,0.9,3.3,0.9s-2.2,0.1-4.1,0.2
						c-0.4,0.6-0.8,1.2-1.2,1.7c1.8-0.3,3.7-0.7,3.7-0.7l-4.5,2c-0.8,1.3-1.2,2.1-1.2,2.1s0.7,0,1.8,0l3.9-3.3l-3.1,3.2
						c0.3,0,0.7,0,1-0.1c1.2-1.3,2.7-2.9,2.7-2.9l-2,2.8c0.8-0.1,1.6-0.3,2.6-0.5c0.7-1.8,1.4-3.8,1.4-3.8l0.1,3.5
						c0.7-0.2,1.4-0.4,2.2-0.7l1-4.6c0,0,0.6,2.6,0.9,3.9c0.5-0.2,0.9-0.3,1.4-0.5c1.4-0.6,2.8-1.3,4-2.2l-0.3-5.2l0.9,4.7
						c0.3-0.2,0.6-0.4,0.8-0.7l-0.8-4.2l1.6,3.5c1.4-1.1,2.6-2.3,3.6-3.4l1.3-1.5c1.4-1.7,2.2-3,2.2-3l3.4-4.6c0,0-3,0.1-6.8,0.8
						L279.4,111.4z"/>
					<g>
						<path style="fill:#418421;" d="M282.7,107.4l0.2,0.5l3.1,1.3l-2,1.3l2.7,6.4l5.2-1l-4.6,2.4l0.8,1.8l7.1-1.5l-6.4,3.3l0.3,0.7
							l6.9-2.8l-6.5,3.6l3.7,8.9c2.7-0.4,7.6-1.1,7.4-1c-0.2,0.1-4.2,2-6.5,3.1l0.9,2.2l5.4-0.8l-4.6,3l0.9,2.3l2.9-1l-2.7,1.5
							l0.1,0.2l4.2-0.9l-3.6,2.2l2.4,5.8c0,0,6.4-13.9,5.1-19.2c-1.1-4.2-8.3-14.4-11.1-18.2c-0.7-0.9-1.6-1.8-2.6-2.3l-10.5-6
							l4.3,4.7L282.7,107.4z"/>
						<path style="opacity:0.4;fill:#1B3D04;enable-background:new    ;" d="M284,110.4l2-1.3l-3.1-1.3l-0.2-0.5l2.4,0.1l-4.3-4.7
							l10.5,6c1,0.6,1.9,1.4,2.6,2.3c1.3,1.8,3.7,5.1,5.9,8.5c-2.6,1.2-5.7,2.6-5.8,2.6c-0.1,0,0.6-1.2,1.4-2.4l0.5-0.3l-0.4,0.2
							c0.8-1.2,1.5-2.4,1.5-2.4s-6.5,1.8-6.8,1.9c-0.3,0.1,3.5-3.7,3.6-3.9c0.1-0.3-3.6-1.2-3.6-1.2s-2.6,0.6-3,0.7
							c-0.3,0.1,0.8-1.3,0.8-1.3l-3.5-1.7L284,110.4z"/>
					</g>
					<path style="fill:#6AC634;" d="M282.6,75l7.5,0l0.2,0.7l-0.2,2.3l-4.3,0.2l4.2,1.3l-0.4,4.1l-8.6-0.2l8.4,1.7l-0.1,1l-4,0.6
						c0,0,2,0.4,3.9,0.8l-0.8,7.7c-2.2,0.1-4.8,0.2-5,0.2c-0.3,0,2.6,0.7,4.9,1.1l-0.3,3.1c-1.9-0.1-4.1-0.2-4.5-0.2
						c-0.3,0,2.2,0.8,4.3,1.5l-0.1,1l-3.9,0.1l3.8,0.8l-0.2,2.3l-0.3,0.8l-3.7-0.8l3,2.4l-2.4,5.7c0,0-7.1-21.1-6.7-27.6
						c0.4-6.5,9.1-23.3,9.1-23.3l3.1,10.3L282.6,75z"/>
					<path style="fill:#245109;" d="M283.9,111.9l-2.5,0.5c-1.3,1.7-2.5,3.7-3.6,5.8l5-1.1l-5.9,3c-0.4,1-0.8,2.1-1,3.1l6-1.7
						l-6.3,4.3c0,0.8,0,1.5,0,2.2l4.3-3.2l-4.2,3.9c0,0.7,0,1.4,0.1,2c1.6-0.8,3.7-1.6,3.7-1.6l-3.6,3.1c0,0.1,0,0.3,0,0.4l3.2-1.3
						c0,0-1.7,1.1-3.2,2c0,0.2,0,0.5,0.1,0.7c1.4-0.8,3.1-1.6,3.1-1.6s-1.5,1.5-2.9,3c0.1,0.8,0.2,1.4,0.3,2.1c1.1-1.5,2.3-3,2.3-3
						l-2,4.6c0.3,1.5,0.6,2.3,0.6,2.3s0.5-0.4,1.3-1.3l0.6-5.1l0,4.6c0.2-0.2,0.4-0.5,0.7-0.8c0-1.8,0-3.9,0-3.9l0.4,3.4
						c0.5-0.6,1-1.3,1.5-2.2c-0.8-1.8-1.6-3.8-1.6-3.8l2.4,2.5c0.4-0.6,0.8-1.3,1.1-1.9l-2.4-4c0,0,2.2,1.5,3.4,2.2
						c0.2-0.4,0.4-0.8,0.6-1.3c0.7-1.4,1.1-2.9,1.5-4.3l-3.8-3.6l3.9,2.8c0.1-0.4,0.1-0.7,0.2-1l-3.4-2.5l3.6,1.5
						c0.2-1.8,0.3-3.5,0.3-5l0-1.9c-0.1-2.2-0.4-3.7-0.4-3.7l-0.7-5.7c0,0-2.1,2.1-4.4,5.2L283.9,111.9z"/>
					<g>
						<path style="fill:#D6854D;" d="M281.9,119.2c1.8,0.8,3.9,0.1,4.8-1.6c0.8-1.8,0.1-3.9-1.6-4.8s-3.9-0.1-4.8,1.6
							C279.3,116.1,280.1,118.3,281.9,119.2z"/>
						<path style="fill:#BC6428;" d="M286.7,117.5c-0.8,1.8-3,2.5-4.8,1.6c-1.7-0.8-2.4-2.8-1.8-4.5c0.4,1,1,1.8,2.1,2.3
							c0.3,0.1,0.8,0.1,0.8-0.2c0.7,0.6,1.8,0.8,2.6,0.3c0.4-0.2,0.8-0.6,1.2-0.8c0.1,0,0.1-0.1,0.2-0.1
							C287,116.6,286.9,117.1,286.7,117.5z"/>
						<path style="fill:#492004;" d="M280.2,115.5c0.1,0,0.3-0.1,0.4-0.3c0.1-0.2,0.1-0.4,0-0.5c-0.1,0-0.3,0.1-0.4,0.3
							C280.1,115.2,280.1,115.4,280.2,115.5z"/>
						<path style="fill:#492004;" d="M280.9,114.8c0.1,0,0.3-0.1,0.4-0.3s0.1-0.4,0-0.5c-0.1,0-0.3,0.1-0.4,0.3
							C280.8,114.5,280.8,114.7,280.9,114.8z"/>
						<path style="fill:#492004;" d="M280.4,116.4c0.1,0,0.3-0.1,0.4-0.3s0.1-0.4,0-0.5s-0.3,0.1-0.4,0.3
							C280.3,116.1,280.3,116.3,280.4,116.4z"/>
					</g>
					<g>
						<ellipse style="fill:#D6854D;" cx="288.5" cy="107.2" rx="3.6" ry="3.6"/>
						<path style="fill:#BC6428;" d="M286.4,110.2c-1.6-1.1-2-3.4-0.8-5c1.1-1.5,3.1-2,4.7-1c-1,0.2-2,0.7-2.7,1.7
							c-0.2,0.3-0.2,0.8,0,0.8c-0.8,0.6-1,1.6-0.8,2.5c0.1,0.5,0.5,0.8,0.6,1.3c0,0.1,0,0.1,0,0.2
							C287.2,110.6,286.8,110.4,286.4,110.2z"/>
						<path style="fill:#492004;" d="M289.4,104.1c0,0.1,0,0.3,0.2,0.4c0.2,0.1,0.4,0.2,0.5,0.1s0-0.3-0.2-0.4
							C289.7,104.1,289.5,104,289.4,104.1z"/>
						<path style="fill:#492004;" d="M290,104.9c0,0.1,0,0.3,0.2,0.4c0.2,0.1,0.4,0.2,0.5,0.1c0-0.1,0-0.3-0.2-0.4
							C290.3,104.9,290.1,104.9,290,104.9z"/>
						<path style="fill:#492004;" d="M288.5,104.1c0,0.1,0,0.3,0.2,0.4c0.2,0.1,0.4,0.2,0.5,0.1s0-0.3-0.2-0.4
							C288.8,104.1,288.6,104,288.5,104.1z"/>
					</g>
					<g>
						<ellipse style="fill:#D6854D;" cx="290.5" cy="114.8" rx="3.6" ry="3.6"/>
						<path style="fill:#BC6428;" d="M291.6,118.2c-1.9,0.7-3.9-0.3-4.6-2.2c-0.6-1.8,0.2-3.7,1.9-4.5c-0.4,1-0.6,2-0.1,3.1
							c0.1,0.3,0.5,0.6,0.7,0.4c0,0.9,0.8,1.8,1.6,2.1c0.5,0.1,1,0.1,1.4,0.2c0.1,0,0.1,0,0.2,0.1
							C292.5,117.8,292.1,118,291.6,118.2z"/>
						<g style="opacity:0.4;">
							<g>
								<defs>
									<circle id="SVGID_5_" cx="290.5" cy="114.8" r="3.6"/>
								</defs>
								<clipPath id="SVGID_6_">
									<use xlink:href="#SVGID_5_"  style="overflow:visible;"/>
								</clipPath>
								<path style="clip-path:url(#SVGID_6_);fill:#A54B0E;" d="M286.4,114.4c-0.2,0-0.4,0.1-0.6,0c-0.1-0.1-0.2-0.2-0.2-0.4
									c-0.3-1.3,0.5-2.5,1.4-3.4c1.6-1.5,3.9-2.2,6.2-2.2c0.6,0,1.2,0,1.6,0.3c0.4,0.2,0.7,0.5,1,0.8c0.8,0.8,1.4,1.9,1.3,3.1
									c0,0.9-0.7,2-1.6,2.3c-0.8,0.3-1.7-0.2-2.5-0.5C290.8,113.8,288.5,113.8,286.4,114.4z"/>
							</g>
						</g>
						<path style="fill:#492004;" d="M288.5,112.2c0,0.1,0.2,0.1,0.5,0c0.2-0.1,0.4-0.2,0.3-0.3c0-0.1-0.2-0.1-0.5,0
							C288.6,111.9,288.4,112.1,288.5,112.2z"/>
						<path style="fill:#492004;" d="M289.5,112.2c0,0.1,0.2,0.1,0.5,0c0.2-0.1,0.4-0.2,0.3-0.3c0-0.1-0.2-0.1-0.5,0
							C289.6,112,289.5,112.1,289.5,112.2z"/>
						<path style="fill:#492004;" d="M287.9,113c0,0.1,0.2,0.1,0.5,0c0.2-0.1,0.4-0.2,0.3-0.3c0-0.1-0.2-0.1-0.5,0
							C288.1,112.7,287.9,112.9,287.9,113z"/>
					</g>
					<path style="fill:#66BC2E;" d="M295.8,109.5l-4,5.3l0.4,0.5l1.7,1l2.4-3l-1.3,3.7l3.1,1.9l4.5-6.2l-3.3,6.9l0.8,0.5l2.5-2.6
						c0,0-0.8,1.6-1.5,3.2l5.9,3.5c1.2-1.5,2.7-3.3,2.9-3.4c0.2-0.2-0.9,2.2-1.8,4.1l2.4,1.5c0.9-1.4,2.1-3,2.2-3.3
						c0.1-0.3-0.6,2-1.2,3.9l0.8,0.5l2.2-2.7l-1.4,3.1l1.7,1l0.8,0.2l1.4-3.1l0.1,3.4l5.3,1.4c0,0-11.2-16.3-16-19.5
						c-4.8-3.1-23.7-7-23.7-7l0.1,2.2l7.8,6.6L295.8,109.5z"/>
					<g>
						<path style="fill:#D6854D;" d="M281.2,109.9c0.7,1.9,2.7,2.9,4.6,2.2c1.9-0.7,2.9-2.7,2.2-4.6c-0.7-1.9-2.7-2.9-4.6-2.2
							C281.5,106,280.5,108,281.2,109.9z"/>
						<path style="fill:#BC6428;" d="M285.8,112.1c-1.9,0.7-3.9-0.3-4.6-2.2c-0.6-1.8,0.2-3.7,1.9-4.5c-0.4,1-0.6,2-0.1,3.1
							c0.1,0.3,0.5,0.6,0.7,0.4c0,0.9,0.8,1.8,1.6,2.1c0.5,0.1,1,0.1,1.4,0.2c0.1,0,0.1,0,0.2,0.1
							C286.6,111.7,286.2,111.9,285.8,112.1z"/>
						<path style="fill:#492004;" d="M282.6,106.1c0,0.1,0.2,0.1,0.5,0c0.2-0.1,0.4-0.2,0.3-0.3s-0.2-0.1-0.5,0
							C282.7,105.8,282.5,105.9,282.6,106.1z"/>
						<path style="fill:#492004;" d="M283.6,106.1c0,0.1,0.2,0.1,0.5,0c0.2-0.1,0.4-0.2,0.3-0.3s-0.2-0.1-0.5,0
							C283.7,105.8,283.6,106,283.6,106.1z"/>
						<path style="fill:#492004;" d="M282.1,106.8c0,0.1,0.2,0.1,0.5,0c0.2-0.1,0.4-0.2,0.3-0.3c0-0.1-0.2-0.1-0.5,0
							C282.2,106.6,282,106.7,282.1,106.8z"/>
					</g>
				</g>
			</g>
		</g>
	</g>
</g>
<g>
	<g>
		<path style="fill:#67CFC6;" d="M229.8,485.8c0,0-28.4,28.5-15.4,167.3c0,0,9.2,3.1,14.6,2.6c6.1-40.1,15.3-103.6,16.2-121.3
			C245.9,521.9,252.6,485.1,229.8,485.8z"/>
		<path style="fill:#37373F;" d="M51.2,201.5c0,0-17.6,1.4-14.9,25.3S11.8,233,24,271.9c7.5,23.9,27.9,16.4,41.5,23.9
			c8.5,4.7,10.9,30.1,46.3,25.3s34.6-5.7,56.4-6.2c32-0.7,15.4-15.3,27.1-32.2c6.1-8.9,40.8-26,15.7-58.8
			c-21.1-27.6-5.2-84.4-83.2-73.3C43.8,162.7,51.2,201.5,51.2,201.5z"/>
		<path style="fill:#67CFC6;" d="M163.6,364.1c0,0,45.4,88.9,57.4,137c4.4,17.6,25.3,16,23.4-16c-7.5-124.6-49.7-161.7-49.7-161.7
			L163.6,364.1z"/>
		<path style="fill:#67CFC6;" d="M72.9,351.5c0,0,54.9-31.1,121.7-29.8c0,0,19.2,68.4,21.4,84.2c2.2,15.8-11.6,83.5-18.7,114.3
			l-100.1-8.8C97.1,511.4,82.4,434.4,72.9,351.5z"/>
		<path style="fill:#60B1AC;" d="M72.4,352.4c0,0-43.6,141.7-32.7,170.4c1.2,3,13.4,7.3,19.7-6.4c6.8-14.7,16.1-39.7,29.5-127.8
			C89,388.6,92.4,363.6,72.4,352.4z"/>
		<path style="fill:#EE8E6F;" d="M94.5,244.7c0,0,29,56,28.9,91.1l30.6-1.8c0,0,3.2-27.4,12.3-37.5L94.5,244.7z"/>
		<path style="fill:#F7E8C4;" d="M97.1,511.4c0,0-18.3,42.6-46.7,99.5c0,0-0.5,127.9,59.3,257.9l73.2,7.7l53.5-243.1
			c0,0-6-53.3-36.8-122H97.1z"/>
		<path style="fill:#EE8E6F;" d="M82.3,347.1c0,0,37.4-22.7,105.6-25.4c0,0-5.3,41.7-29.4,49.4C129.5,380.5,82.3,347.1,82.3,347.1z"
			/>
		<path style="fill:#F1A982;" d="M194.6,229.4c0.7,46.5-16.9,88.5-40.9,88.7c-26.2,0.2-66.9-26.7-67.5-92.1
			c-0.4-46.5,25.4-67.6,56.9-67.2c20.9,0.3,34.1,5.2,42.5,23.4C189.9,191.6,194.4,212.3,194.6,229.4z"/>
		<path style="fill:#37373F;" d="M142.5,221.8c0,0-13.3-2.7-28.2,4.9c0,0,6.4-11.8,28.8-9.9L142.5,221.8z"/>
		<path style="fill:#37373F;" d="M170.7,219c0,0,8.7-4.3,22.6,0.3c0,0-3.6-9.3-23.9-5.2L170.7,219z"/>
		<path style="fill:#EE8E6F;" d="M161.2,244.1c2.2,6.3,8.7,13.9,16.1,18.3c0,0-8.9,9.1-16.3,11.4l9.9-11.5c0,0-11.9-13-13-19.5
			C156.9,236.2,159,237.7,161.2,244.1z"/>
		<path style="fill:#60B1AC;" d="M213.3,418c0,0-13.9,11.5-89.5,15.4c0,0,33.8,19.2,82.4,16.8C206.2,450.1,218.6,427.3,213.3,418z"
			/>
		<polygon style="fill:#DBC6A1;" points="109.9,622.6 154.5,642.4 197.6,627.7 		"/>
		<path style="fill:#67CFC6;" d="M62.4,585l168.2,9.4l-34.1-95.8l-99.3,12.8C97.1,511.4,74.2,545.5,62.4,585z"/>
		<path style="fill:#F1A982;" d="M74.8,264.6c11.2,13.1,26.3,17,26.2,4.9c-0.1-12.1-19.4-38.9-24.4-30.1
			C71.6,248.2,68.6,257.3,74.8,264.6z"/>
		<path style="fill:#EE8E6F;" d="M78.1,263.7c8.3,9.6,19.3,12.4,19.2,3.5c-0.1-8.9-14.3-28.5-17.9-22.1
			C75.7,251.6,73.5,258.4,78.1,263.7z"/>
		<path style="fill:#F1A982;" d="M88.2,267.6c4,4.7,9.4,6.1,9.4,1.7c-0.1-4.4-7-14-8.8-10.8C87,261.7,86,265,88.2,267.6z"/>
		<path style="fill:#37373F;" d="M83.6,251.7c0,0-24.6-57.4-13-79.5c11.5-22.1,40-33.3,49.9-34c70.1-4.8,69.4,55.7,65.9,46
			c0,0-22.5,32.1-69.3,32.1c-9.4,0-11.5,14.2-12.8,25.8c-1.5,12.9-2.6,18.8-5.6,18.7C92.8,260.5,93.9,251.8,83.6,251.7z"/>
		<g>
			<path style="fill:#E97B59;" d="M167.1,287.5l0.9,2.3c-6.3,5.7-19,5.5-39.9-0.7l0.3-0.9C148.5,294.1,161.4,292.6,167.1,287.5z"/>
		</g>
		<path style="fill:#E97B59;" d="M138.3,294.8c-0.2,0.6,1.3,2.4,4,3.2c2.7,0.8,5.5,0.4,5.8-0.2c0.2-0.6-2.6-0.7-5.3-1.6
			C140.2,295.4,138.6,294.2,138.3,294.8z"/>
		<g>
			<path style="fill:#FFFFFF;" d="M116.9,335c0.5,2.2,2.6,3.5,4.7,3c2.2-0.5,3.5-2.6,3-4.7c-0.5-2.2-2.6-3.5-4.7-3
				C117.7,330.7,116.4,332.8,116.9,335z"/>
			<path style="fill:#FFFFFF;" d="M123.2,340.7c0.5,2.2,2.6,3.5,4.7,3c2.2-0.5,3.5-2.6,3-4.7c-0.5-2.2-2.6-3.5-4.7-3
				C124.1,336.4,122.8,338.6,123.2,340.7z"/>
			<path style="fill:#FFFFFF;" d="M131.3,344.5c0.5,2.2,2.6,3.5,4.7,3c2.2-0.5,3.5-2.6,3-4.7c-0.5-2.2-2.6-3.5-4.7-3
				C132.1,340.2,130.7,342.3,131.3,344.5z"/>
			<path style="fill:#FFFFFF;" d="M139.4,344.7c0.5,2.2,2.6,3.5,4.7,3c2.2-0.5,3.5-2.6,3-4.7c-0.5-2.2-2.6-3.5-4.7-3
				C140.3,340.4,139,342.6,139.4,344.7z"/>
			<path style="fill:#FFFFFF;" d="M146.8,341.5c0.5,2.2,2.6,3.5,4.7,3c2.2-0.5,3.5-2.6,3-4.7c-0.5-2.2-2.6-3.5-4.7-3
				C147.7,337.2,146.4,339.3,146.8,341.5z"/>
			<path style="fill:#FFFFFF;" d="M153.7,335.4c0.5,2.2,2.6,3.5,4.7,3c2.2-0.5,3.5-2.6,3-4.7c-0.5-2.1-2.6-3.5-4.7-3
				C154.5,331.1,153.1,333.2,153.7,335.4z"/>
			<path style="fill:#FFFFFF;" d="M156.9,327c0.5,2.2,2.6,3.5,4.7,3c2.2-0.5,3.5-2.6,3-4.7c-0.5-2.2-2.6-3.5-4.7-3
				C157.7,322.7,156.3,324.9,156.9,327z"/>
		</g>
	</g>
	<g>
		<path style="fill:#FFFFFF;" d="M142.1,242.7c2.1-2.2-0.8-11-8.8-14s-12.6,2.2-12.9,4.4c-0.3,2.2,0.5,6.1,5.1,8.4
			c4.6,2.3,8.5,1.9,10.7,1.9C139,243.3,140.9,243.9,142.1,242.7z"/>
		<circle style="fill:#39170B;" cx="132.8" cy="234" r="7.1"/>
		<circle style="fill:#FFFFFF;" cx="130.2" cy="232.4" r="2.8"/>
		<path style="fill:#39170B;" d="M142.7,240.8c0,0,1.3-4.1-3.4-9.7c-4.7-5.7-11.4-4.8-13.2-5.3c-1.8-0.4-3.8,0-3.2,0.5
			c0.5,0.5-1.2,1.9-2.6,1.5s-0.1,1.2-0.1,1.7c0,0.5-2.5,0.2-2.8,0.7c-0.2,0.5,1.3,1.8,0.9,1.9c-0.4,0.1-1.9,1.1-1.2,1.6
			c0.7,0.5,1.9,2.2,2.4,3c0.5,0.7,2,1.4,2,1.4s-1.6-3.5-0.4-5.8c1.2-2.3,4.2-4.7,8.8-3.9c4.6,0.8,7.4,3.2,9.3,5.1
			C141.2,235.5,142.7,240.8,142.7,240.8z"/>
	</g>
	<g>
		<path style="fill:#FFFFFF;" d="M168.2,241.6c-1.7-2.4,2.2-10.2,10.2-12c7.9-1.7,11.5,3.8,11.5,5.9c0,2.1-1.3,5.7-5.9,7.2
			c-4.6,1.5-8.2,0.7-10.3,0.3C171,242.7,169.1,243,168.2,241.6z"/>
		<circle style="fill:#39170B;" cx="178" cy="234.7" r="6.8"/>
		<path style="fill:#FFFFFF;" d="M172.8,233.1c-0.1,1.5,1,2.8,2.5,2.9c1.5,0.1,2.8-1,2.9-2.5c0.1-1.5-1-2.8-2.5-2.9
			C174.2,230.5,172.9,231.6,172.8,233.1z"/>
		<path style="fill:#39170B;" d="M167.8,239.8c0,0-0.7-4,4.5-8.7c5.2-4.7,11.3-3,13.1-3.2c1.8-0.2,3.5,0.5,3,0.9
			c-0.6,0.4,0.9,1.9,2.3,1.7c1.4-0.2-0.1,1.2-0.1,1.6c0,0.5,2.4,0.5,2.5,1c0.1,0.5-1.5,1.5-1.1,1.7c0.4,0.2,1.6,1.3,0.9,1.7
			c-0.7,0.4-2.1,1.9-2.7,2.5c-0.6,0.6-2.1,1.1-2.1,1.1s2-3.1,1.1-5.4c-0.8-2.3-3.3-5-7.7-4.8c-4.4,0.1-7.4,2-9.4,3.6
			C169.9,235.1,167.8,239.8,167.8,239.8z"/>
	</g>
	<path style="fill:#67CFC6;" d="M54.2,523.1c0,0,32.2-24,39.5-163.3c0,0-8.6-4.4-14-4.7C67.8,393.9,49.5,455.5,46,472.8
		C43.5,485,31.6,520.4,54.2,523.1z"/>
	<g>
		<g transform="matrix(-0.687898,0.0427622,0.0513146,0.573248,232.407,259.405)">
			<path style="fill:#E6A478;" d="M220.8,121c0,0-23-57.2-34.9-64.5c-11.9-7.4-38.1,0.5-41.1,1.6c-3,1.1-2,12.7,3,11.5
				s37.7-16.5,42,16.1c0,0-20.2-8.2-29.9,2.3c-10.1,10.9-10.6,24.5-10.7,29.6c-0.2,5.2,9.3,8.5,10.8,3.9c1.5-4.5-2-29.6,22.6-27.8
				c0,0-16.9,1.6-18,33.2c-0.2,4.8,9.3,8.5,9.5,4.3c0.3-4.2-0.9-33.1,15.9-30c0,0-10.3-0.1-10.5,31.2c0,7.1,10,3.1,9.1,0.2
				c-0.9-2.9-6.1-20.4,4-22.6c0,0-0.5,43.1,21.4,50.6c3.3,10.5,11.6,13.1,16.5,6.7C225.1,151.1,226.5,134,220.8,121"/>
		</g>
		<g transform="matrix(-0.687898,0.0427622,0.0513146,0.573248,231.232,258.58)">
			<g>
				<g>
					<path style="fill:#FFB382;" d="M221.6,120.3c0,0-23-57.2-34.9-64.5c-11.9-7.4-37.3-0.2-41.1,1.6c-3.8,1.7-2.2,11.8,3,11.5
						c5.2-0.3,37.7-16.5,42,16.1c0,0-20.2-8.2-29.9,2.3c-10.1,10.9-10.1,23.8-10.7,29.6c-0.6,5.8,11.1,8.9,10.8,3.9
						c-0.3-5-2-29.6,22.6-27.8c0,0-18.4,7.6-18,33.2c0.1,3.8,9.4,9.5,9.5,4.3c0.1-5.1-0.9-33.1,15.9-30c0,0-12.5,1-10.5,31.2
						c0.3,5,10,6,9.1,0.2c-0.9-5.8-6.1-20.4,4-22.6c0,0-3.3,30.6,14.2,51c12.9,54.3,24.1,44.4,23.8,5.8
						C224.6,153.7,225.7,129.9,221.6,120.3"/>
				</g>
			</g>
		</g>
	</g>
	<path style="fill:#FFFFFF;" d="M88.9,272.8c0,2.9,2.4,5.3,5.3,5.3s5.3-2.4,5.3-5.3s-2.4-5.3-5.3-5.3S88.9,269.9,88.9,272.8z"/>
</g>
</svg>
