<?xml version="1.0" encoding="utf-8"?>
<!-- Generator: Adobe Illustrator 24.0.3, SVG Export Plug-In . SVG Version: 6.00 Build 0)  -->
<svg version="1.1" id="Layer_1" xmlns:serif="http://www.serif.com/"
	 xmlns="http://www.w3.org/2000/svg" xmlns:xlink="http://www.w3.org/1999/xlink" x="0px" y="0px" width="347.6px" height="581.5px"
	 viewBox="0 0 347.6 581.5" style="enable-background:new 0 0 347.6 581.5;" xml:space="preserve">
<g>
	<path style="fill:#98393E;" d="M49.3,94.4C65.8,2.2,186.7,2.9,210.3,40.7C305.6,70.8,229,285.4,229,285.4L77.3,330.5
		C77.3,330.5,32.9,186.7,49.3,94.4z"/>
	<path style="fill:#882C35;" d="M258.1,134.5c0,64.1-27.8,165.4-27.8,165.4L78.6,345c0,0-45.9-158.1-29.3-250.3
		C55.1,62.1,74.1,41.1,97,29.2c0.2,28.6,20.5,62,54.5,85.1C186.9,138.2,231.4,145.9,258.1,134.5z"/>
	<path style="fill:#75232F;" d="M215.4,308.3l-135.5,37c34.8-82.1,50.7-192.5,88.5-192.5C202.5,152.9,211.3,253.3,215.4,308.3z"/>
	<g>
		<path style="fill:#F1EDDC;" d="M284.8,432.7c-13.7-37.6-106.9-181.9-91.3-181.2c33.3,1.5,122.3,142.6,127.8,168.4
			C325.6,440.6,290,446.8,284.8,432.7z"/>
		<path style="fill:#DCD1BE;" d="M314.5,435.9c-9.8,6.6-26.1,6-29.5-3.2c-13.7-37.6-106.9-181.9-91.3-181.2
			c6.4,0.4,98.5,141.3,109,170.5C303.9,425.8,310.1,434.8,314.5,435.9z"/>
		<path style="fill:#4D4D4D;" d="M276.5,421.3c-0.6-0.8,12.2-9.6,18.8-12.8c18-9,37.4,10,37.4,20.3c0,10.5-15.2,17.7-19.9,17.9
			C287.4,447.8,276.5,421.5,276.5,421.3z"/>
		<path style="fill:#333333;" d="M332.7,429c0,10.5-15.2,17.7-19.9,17.9c-25.4,0.9-36.3-25.4-36.3-25.4c-0.6-0.6,9-8.6,16.2-11.8
			c-1.5,5.3,4.3,11.8,13.3,14.8c9,3,18,1.5,19.7-3.8c0.4-0.6,0.4-1.3,0.4-2.1C330.1,421.8,332.7,425.6,332.7,429z"/>
	</g>
	<g>
		<path style="fill:#FFB781;" d="M231.6,543.1c0,0,95.7-100,90-111.6c-5.8-11.7-27.4-5.1-32.1-0.9c-4.7,4.3-59.2,91-63.5,105.2
			L231.6,543.1z"/>
		<path style="fill:#FF9466;" d="M324.2,431.2c5.8,11.7-92.7,111.8-92.7,111.8l-1.9-1.9c21.8-27.4,83.3-96.8,78.6-106.4
			c-2.6-5.5-9.2-6.8-16-6C300.2,424.8,319.4,421.1,324.2,431.2z"/>
	</g>
	<path style="fill:#FFB781;" d="M139.9,1121.2H119c-20.9-216.7-10.5-499.5-10.5-499.5l38-76.9C146.4,544.8,188.4,562.2,139.9,1121.2
		z"/>
	<path style="fill:#FFB781;" d="M194,1121.2h-20.9c-20.9-216.7-10.5-499.5-10.5-499.5l38-76.9C200.6,544.8,242.5,562.2,194,1121.2z"
		/>
	<g>
		<path style="fill:#FF9466;" d="M155.5,912.9c-20.9,25-40.8,60.9-45.5,84.4c-10.7-184.9-0.2-157.5-0.2-157.5l52.8-47L155.5,912.9z"
			/>
		<path style="fill:#FF9466;" d="M210.5,886.2c-10.9-1.7-36.8,7-49.6,20.5L158.7,794l33.5-34C192.1,759.9,222.6,773.3,210.5,886.2z"
			/>
	</g>
	<path style="fill:#4D4D4D;" d="M151.3,490.8c10.3-36.5,40.2-12.2,72.7,29.9c32.5,42.1,27.6,309.9,27.6,309.9L83.5,859.4
		C69.2,507.9,140.8,527.1,151.3,490.8z"/>
	<path style="fill:#333333;" d="M139.9,849.8l-56.2,9.6c-14.5-351.6,57.3-331,67.7-367.2c10.3-36.3,45.1-36.1,51.5,3.4
		c-37.8,18.2-67.1,140.8-67.1,289.4C135.7,817.6,137.1,820.5,139.9,849.8z"/>
	<path style="fill:#DCD1BE;" d="M225.2,522.2c-5.6-32.3,0.9-109.6,1.5-174c0.4-32.9-121.2-82.7-121.2-82.7
		c-13,24.4,39.3,194.3,25.7,251.1L225.2,522.2z"/>
	<path style="fill:#F1EDDC;" d="M200.4,257.2c5.8,4.9,47.4,116.5,38,134c-11.5,21.2-89.8,27.1-110.1,9.8
		c-8.5-7.3-25.2-108.8-23.7-133.2C105.1,255.5,194.6,251.9,200.4,257.2z"/>
	<path style="fill:#DCD1BE;" d="M238.4,383.9c7.1,30.1-95.3,35.1-110.1,15.6c-9.8-12.8-25.2-107.3-23.7-131.7
		c0.2-3.4,36.5,113.1,45.3,120.1C166.6,401.2,208.7,395.2,238.4,383.9z"/>
	<path style="fill:#FFB781;" d="M186.7,254.2c0,0,45.9,102.2-1.3,103c-47.2,0.6-58.1-69-64.5-97.5
		C137.8,252.9,160.4,252.1,186.7,254.2z"/>
	<path style="fill:#FF9466;" d="M185.2,357c-12,0.2-22.6-6-31.8-15.8c8.6,8.1,18.2,13.2,28.9,13c43.2-0.6,10.9-81.6,2.6-100.2
		c0.6,0.2,1.1,0.2,1.7,0.2C186.7,254.2,232.5,356.4,185.2,357z"/>
	<polygon style="fill:#FFB781;" points="157.5,182.6 175.2,255.9 156,274.1 131.6,256.8 126,178.8 	"/>
	<path style="fill:#FFB781;" d="M175.8,76.4c46.4-1.5,53.2,34.8,52.6,73.5c-0.8,52.8-39.8,98.1-39.8,98.1s-65-30.4-69.7-66
		C110.2,118.3,137.1,77.5,175.8,76.4z"/>
	<path style="fill:#882C35;" d="M107.7,147.8c-11.1-43.6,8.5-110.3,28.6-94.5c28.4,22.6,4.9,95.5-10.3,128
		C126,181.3,111.9,164.7,107.7,147.8z"/>
	<g>
		<path style="fill:#FFB781;" d="M126.9,189.5c-10.5-4.7-31.6-17.7-32.5-31c-0.9-13.3,13.7-10.9,25.7-2.8
			C124.5,158.7,137.4,194.4,126.9,189.5z"/>
		<path style="fill:#E97B59;" d="M121.1,178.5c-5.8-2.4-17.3-9.6-17.9-16.9c-0.6-7.3,7.5-5.8,14.1-1.5
			C119.6,161.7,126.7,181.3,121.1,178.5z"/>
		<path style="fill:#FFB781;" d="M124.5,183.5c-4.7-2.3-13.9-7.9-14.3-13.7c-0.4-6,6-4.9,11.3-1.3
			C123.3,169.8,129,185.6,124.5,183.5z"/>
	</g>
	<path style="fill:#98393E;" d="M138.7,98.4c-9.4,3.2-21.6-6.8-27.1-22.6c-5.5-15.6-2.3-31,7.3-34.4c9.4-3.2,21.6,6.8,27.1,22.6
		C151.5,79.8,148.1,95.2,138.7,98.4z"/>
	<g>
		<path style="fill:#E97B59;" d="M182.5,191.4c0.9,0.6,12.6,0.9,15-1.5c2.3-2.4-1.5-12.2-6-19.2
			C191.6,170.8,181.4,190.7,182.5,191.4z"/>
		<path style="fill:#FFB781;" d="M179.2,189.7c0.9,0.6,12.6,0.9,15-1.5c2.3-2.4-1.5-12.2-6-19.2C188.2,169.1,178.2,189,179.2,189.7z
			"/>
		<g>
			<path style="fill:#98393E;" d="M202.6,120.8l0.8-4.9c7.1,0,22,4.9,28.4,15.6l-0.9,1.7C223.5,124.3,208.3,120,202.6,120.8z"/>
		</g>
		<g>
			<path style="fill:#98393E;" d="M144.2,124c13.9-10.5,34.2-12.8,40-12.4l0.2,5.1c-5.3-0.6-26.9,0.8-38.9,9L144.2,124z"/>
		</g>
		<g>
			<path style="fill:#FFFFFF;" d="M165.1,155c-2.6,0-7.1,0.4-12.4-2.3c-5.5-2.6-6.4-7.1-6-9.8c0.4-2.4,5.6-8.6,15-5.1
				c9.4,3.4,12.8,13.5,10.3,16.2C170.5,155.5,168.4,154.8,165.1,155z"/>
			<circle style="fill:#39170B;" cx="161.3" cy="144.1" r="8.3"/>
			<circle style="fill:#FFFFFF;" cx="158.1" cy="142.2" r="3.4"/>
			<path style="fill:#39170B;" d="M169,143.3c-2.3-2.4-5.5-5.1-10.9-6c-5.3-0.9-8.6,1.9-10.1,4.5s0.4,6.8,0.4,6.8s-1.9-0.9-2.4-1.7
				c-0.6-0.8-2.1-2.8-2.8-3.4s0.9-1.7,1.3-1.9c0.4-0.2-1.3-1.7-1.1-2.3c0.2-0.6,3.2-0.2,3.2-0.8c0-0.6-1.5-2.4,0.2-2.1
				c1.7,0.4,3.6-1.1,3-1.7s1.7-1.1,3.8-0.6c2.3,0.6,10-0.4,15.4,6.2c5.5,6.6,3.9,11.3,3.9,11.3S170.9,145.8,169,143.3z"/>
		</g>
		<g>
			<path style="fill:#FFFFFF;" d="M208.5,154.4c2.4,0.4,6.8,1.3,12-0.4c5.5-1.7,7-5.8,7-8.3s-4.1-8.8-13.3-6.8s-13.7,11.1-11.8,13.9
				C203.4,154.4,205.5,154,208.5,154.4z"/>
			<circle style="fill:#39170B;" cx="213.7" cy="144.8" r="7.9"/>
			<path style="fill:#FFFFFF;" d="M211.1,140.1c1.7,0.2,3,1.7,2.8,3.4s-1.7,3-3.4,2.8c-1.7-0.2-3-1.7-2.8-3.4
				C207.7,141.2,209.2,139.9,211.1,140.1z"/>
			<path style="fill:#39170B;" d="M206.8,143.3c2.4-1.9,5.6-3.9,10.9-4.1c5.3-0.2,8.1,3,9,5.6c0.9,2.8-1.3,6-1.3,6s1.9-0.6,2.4-1.3
				c0.6-0.8,2.3-2.4,3-2.8c0.8-0.4-0.8-1.7-1.1-1.9c-0.4-0.2,1.5-1.3,1.3-1.9c0-0.6-2.8-0.6-2.8-1.1s1.9-2.1,0.2-1.9
				c-1.7,0.2-3.4-1.5-2.6-2.1c0.8-0.6-1.3-1.3-3.4-1.1c-2.1,0.2-9.2-1.7-15.2,3.8c-6,5.5-5.3,10.1-5.3,10.1S204.3,145.2,206.8,143.3
				z"/>
		</g>
		<g>
			<path style="fill:#E58E8E;" d="M183.7,227.5c-10.3-0.6-16.7-8.8-21.2-20.3c11.3,5.1,35.9-2.4,38.7,0c2.8,2.6-3.9,6.2-3.9,6.2
				S194,228.1,183.7,227.5z"/>
			<path style="fill:#FFFFFF;" d="M185,223.6c5.6,0.4,9.4-6.8,10.7-11.3c-13.5,2.6-17.7,1.3-28.2-0.6
				C167.5,211.7,175.2,223,185,223.6z"/>
		</g>
	</g>
	<path style="fill:#1A1A1A;" d="M194.4,1145.8c4.1,7.1,13.9,6.6,13.9,6.6v5.5h-28.8c0,0-1.9-14.7-3.9-21.2
		c-2.1-6.4-8.3-2.3-11.1,1.3c-2.1,2.8,0,19,0,19h-7.1c0,0,0.9-15,0-21c-1.1-6-7.1-19.4-7.1-19.4l19.5-16l26.5-0.6
		c0.4,5.5,0.6,10.3,0.6,14.1C196.8,1138.5,192.7,1142.8,194.4,1145.8z"/>
	<path style="fill:#1A1A1A;" d="M140.1,1145.8c4.1,7.1,13.9,6.6,13.9,6.6v5.5h-28.6c0,0-1.9-14.7-3.9-21.2
		c-2.1-6.4-8.3-2.3-11.1,1.3c-2.1,2.8,0,19,0,19h-7.1c0,0,0.9-15,0-21c-1.1-6-7.1-19.4-7.1-19.4l19.5-16l26.5-0.6
		c0.4,5.5,0.6,10.3,0.6,14.1C142.7,1138.5,138.4,1142.8,140.1,1145.8z"/>
	<path style="fill:#F1EDDC;" d="M56.2,428c7.5-34,78.6-169.7,63.5-167.8c-42.7,5.3-97.2,136.4-98.5,159.4
		C20.3,438,53.4,440.8,56.2,428z"/>
	<path style="fill:#DCD1BE;" d="M47.8,435.6c-11.3,3.4-29.5-0.8-28.8-13.9c1.1-22.9,60.1-161.6,103.2-162.2
		c0,0-90.6,89.1-94.5,160.9C27.1,430.3,37.6,435.2,47.8,435.6z"/>
	<g>
		<g>
			<path style="fill:#FFB781;" d="M110.7,536.9c0,0-94.2-101.3-90.6-115.8c3.8-14.3,28.4-5.6,34.2-0.2c5.8,5.5,59.6,95.8,66.9,113.9
				L110.7,536.9z"/>
			<path style="fill:#FF9466;" d="M114.7,536.5l-3.8,0.4c0,0-96-102.2-92.5-116.7s30.3-4.7,36.1,0.8c1.1,1.1,5.5,7.7,11.5,17.5
				c-9.6-2.8-20.5-3-22.7,5.8C40.6,454.7,80.9,497.6,114.7,536.5z"/>
		</g>
		<path style="fill:#4D4D4D;" d="M57.6,431c0,0,3.8-8.3,1.9-13.5c-1.9-5.3-31.4-20.5-38.7-13s0.4,32.7,4.7,30.4
			C42.1,426.5,57.6,431,57.6,431z"/>
		<path style="fill:#333333;" d="M57.6,431c0,0-15.4-4.5-32.1,3.9c-4.3,2.3-13-19.9-4.7-30.4c1.3-1.7,3.9-2.1,6.8-2.1
			c-1.9,5.1,1.1,12.2,7.7,16.5c7.3,4.9,16,4.5,19.4-0.6c0.9-1.3,1.3-3,1.3-4.7c1.9,1.5,3.2,2.8,3.6,3.8
			C61.3,422.8,57.6,431,57.6,431z"/>
		<g>
			<path style="fill:#FFB781;" d="M155.3,563.7c0,0-3,3.2-6,0.4l0,0l-16.2-17.5l-0.4-0.4l0.2,0.4l-1.3,0.4l2.1,3.6l11.5,15
				c0,0-0.8,3.8-3.4,1.5l-16.4-18.6l-0.8,0.2c0.4,0.6,0.6,1.3,0.9,2.1c0.4,1.1,3.4,7.5,6.8,10.5c0,0,0.4,3.8-3.2,0.6
				c0,0-5.1-6-9.4-14.3c-6.4-5.1-10.7-12.2-10.7-12.2l1.1-4.3l2.3-2.4l0,0l23.1,7l3.2,2.6l0,0c2.1,1.3,4.3,3,6.6,4.9l0,0l2.4,1.9
				l7.9,6.2c-0.4,0.6-1.7,1.7-3.8,0.8l-16.5-10l17.3,19.2l0,0L155.3,563.7z"/>
		</g>
	</g>
</g>
</svg>
