<?xml version="1.0" encoding="utf-8"?>
<!-- Generator: Adobe Illustrator 24.0.3, SVG Export Plug-In . SVG Version: 6.00 Build 0)  -->
<svg version="1.1" id="Layer_1" xmlns="http://www.w3.org/2000/svg" xmlns:xlink="http://www.w3.org/1999/xlink" x="0px" y="0px"
	 width="480px" height="600px" viewBox="0 0 480 600" style="enable-background:new 0 0 480 600;" xml:space="preserve">
<style type="text/css">
	.st0{fill:#DAE79E;}
	.st1{fill:#AEBA82;}
	.st2{opacity:0.5;}
	.st3{opacity:0.2;}
	.st4{opacity:0.1;}
	.st5{opacity:0.1;fill:#231F20;}
	.st6{fill:#A5CE32;}
	.st7{fill:#FFFFFF;}
	.st8{fill:#0B606E;}
	.st9{fill:#084853;}
	.st10{fill:#0E8092;}
	.st11{fill:#12AAC2;}
	.st12{fill:#41BBCE;}
	.st13{fill:#67C9D8;}
	.st14{fill:#85D4E0;}
	.st15{fill:#B6E5EC;}
	.st16{fill:#1C3E72;}
	.st17{fill:#A04BA0;}
	.st18{fill:#DDC6B8;}
	.st19{fill:#EADACE;}
	.st20{fill:#FF9334;}
	.st21{fill:#FF852F;}
	.st22{opacity:0.4;fill:#E2711E;}
	.st23{fill:#FFB476;}
	.st24{fill:#AA4805;}
	.st25{fill:#323249;}
	.st26{fill:#3D3D5B;}
	.st27{fill:#BA5604;}
	.st28{fill:#F4E4EC;}
	.st29{fill:#833A87;}
	.st30{fill:#DBB4D1;}
	.st31{fill:#ED9558;}
	.st32{fill:#D87239;}
	.st33{fill:#CE6F09;}
	.st34{fill:#39170B;}
	.st35{fill:#E97B59;}
</style>
<g transform="matrix(-1.05e-05,240.621,240.621,1.05e-05,404.965,-15.8972)">
	<path class="st0" d="M0-1.7h2.7l0,2.1H0L0-1.7z"/>
</g>
<g>
	<g>
		<path class="st1" d="M378.8,593.3v3.5h3v-3.5c19.8,0.2,39.5,0.3,59,0.3c31.3,0.1,63.2,0.3,95.2,0.8c0,0.2,0,0.4,0,0.6h3
			c0-0.2,0-0.4,0-0.5c8.8,0.2,17.6,0.3,26.4,0.6c-0.1,0.6-0.1,1.2-0.2,1.7h3c0.1-0.6,0.1-1.1,0.2-1.7c7,0.2,14,0.4,21.1,0.7v-1.7
			c-16.8-0.6-33.6-1-50.4-1.3c0.1-4.4,0.4-8.9,0.7-13.3c0.4-5.2,0.8-10.5,0.8-15.7c0-1.3,0-2.5-0.1-3.8c15.9,0.2,32.2,0.5,48.9,0.8
			v-1.7c-9.8-0.2-19.4-0.3-28.9-0.5c0.4-6.3,0.5-12.9,0.5-19.2c10.1,0,19.5,0.1,28.5,0.2v-1.7c-15.8-0.2-33-0.3-52.7-0.3
			c-6.7,0-13.5,0-20.2,0c-0.1-2.6-0.2-5.1-0.2-7.7c0-9.9,0.7-19.3,2.1-28.2c23.6,0.5,47.3,1.1,71,1.8v-1.7c-9-0.3-17.9-0.5-26.9-0.8
			c0.2-3.7,0.3-7.4,0.5-11c0.4-7.9,0.9-16.2,0.9-24.3c8.9,0.2,17.3,0.4,25.5,0.6v-1.7c-17.4-0.5-36-0.8-57-0.9
			c-0.4-9.3-0.4-18.3-0.4-27.8h-3c0,9.5,0,18.5,0.4,27.8c-4.4,0-8.9,0-13.5,0c-19.8,0-39.9,0.1-59.4,0.3c-7.7,0.1-15.5,0.1-23.4,0.2
			l-0.2-1.6c-1.4-11.9-2.8-23.1-3.7-34.7c14.1,1,28.4,2.2,43,3.4c38.5,3.2,78.2,6.5,117.1,6.5V436c-3.7,0-7.4,0-11.1-0.1
			c-0.2-3.1-0.4-6.1-0.5-9.2c-0.4-6.8-0.9-13.8-0.9-20.6c4.2,0.2,8.3,0.4,12.5,0.6v-1.7c-9.4-0.4-18.9-0.9-28.3-1.3
			c-20.4-0.9-40.9-1.9-61.5-2.8c0.1-4.9,0.7-9.8,1.3-14.6c0.5-4,1-8.2,1.2-12.3c17.6,0.4,35.2,0.7,52.6,1.2
			c11.6,0.3,23.2,0.6,34.8,0.9v-1.7c-11.5-0.3-23.1-0.6-34.6-0.9c-39.2-1-79-1.7-118.9-2.6c0.2-3.5,0.6-7.1,1-10.5
			c0.6-5.5,1.3-11.1,1.3-16.8h-3c0,5.6-0.7,11.2-1.3,16.6c-0.4,3.5-0.8,7-1,10.6c-25.8-0.6-51.7-1.4-77.5-2.5
			c-0.5-9-0.9-17.5-0.9-26.3c10.7,0.3,21.3,0.5,31.9,0.7c0,0,0,0,0,0.1l2.2,0c20.5,0.4,40.9,0.6,61.2,0.6c29,0,58.3-0.4,87.6-1.1
			l1.2,0.1c0,0,0-0.1,0-0.2c12.5-0.3,24.9-0.7,37.4-1.1c0,1,0.1,2.1,0.1,3.1c0,4.3-0.3,8.7-0.6,12.9c-0.3,4.3-0.6,8.7-0.6,13
			c0,1.3,0,2.5,0.1,3.8l3,0c-0.1-1.2-0.1-2.5-0.1-3.7c0-4.3,0.3-8.7,0.6-12.9c0.3-4.3,0.6-8.7,0.6-13c0-1.1,0-2.2-0.1-3.3
			c3.5-0.1,7-0.3,10.5-0.4v-1.7c-16.8,0.7-33.6,1.2-50.5,1.6c1.2-4.7,2-9.5,2.8-14.1c0.9-5.3,1.7-10.7,3.2-15.9l-3-0.3
			c-1.5,5.3-2.4,10.7-3.3,16c-0.8,4.7-1.6,9.6-2.8,14.4c-23.3,0.6-46.5,0.9-69.6,1c0.9-11.1,1.4-22.2,1.4-33.3
			c40.2,0.9,81.2,1.9,121.8,3.1v-1.7c-3.5-0.1-7-0.2-10.5-0.3c0-9.4,0.8-17.5,1.6-26.9l0.3-3.7l-3-0.1l-0.3,3.7
			c-0.9,9.4-1.6,17.5-1.6,26.9c-24.8-0.7-49.6-1.4-74.3-1.9c0.5-4.9,0.8-9.9,1.2-14.8c0.4-5.3,0.7-10.6,1.2-15.8l-0.9,0
			c28.7,0.5,57.6,1.2,86.3,2.2v-1.7c-12.8-0.4-25.6-0.8-38.5-1.1c0-1.1-0.1-2.2-0.1-3.3c0-3,0.2-6.2,0.3-9.2c0.2-3,0.3-6.1,0.3-9.1
			h-3c0,3-0.2,6.1-0.3,9.1c-0.2,3-0.3,6.2-0.3,9.3c0,1.1,0.1,2.1,0.1,3.2c-33.1-0.8-66.2-1.3-98.8-1.8c0-0.2,0-0.3,0-0.5
			c0-4.6,0.8-9.4,1.6-14c0.4-2.1,0.7-4.2,1-6.2c24,0.6,48.4,1.1,72.6,1.1c23.6,0,45.2-0.5,65.2-1.5V251c-7.5,0.4-15.3,0.7-23.3,0.9
			c0.8-4.9,1.1-9.9,1.5-14.8c0.2-3.3,0.5-6.6,0.8-9.9c7,0.2,14,0.4,21.1,0.7v-1.7c-16.8-0.6-33.6-1-50.4-1.3
			c0.1-4.4,0.4-8.9,0.7-13.3c0.4-5.2,0.8-10.5,0.8-15.7c0-1.3,0-2.5-0.1-3.8c15.9,0.2,32.2,0.5,48.9,0.8v-1.7
			c-9.8-0.2-19.4-0.3-28.9-0.5c0.4-6.3,0.5-12.9,0.5-19.2c10.1,0,19.5,0.1,28.5,0.2v-1.7c-15.8-0.2-33-0.3-52.7-0.3
			c-6.7,0-13.5,0-20.2,0c-0.1-2.6-0.2-5.1-0.2-7.7c0-9.9,0.7-19.3,2.1-28.2c23.6,0.5,47.3,1.1,71,1.8v-1.7c-9-0.3-17.9-0.5-26.9-0.8
			c0.2-3.7,0.3-7.4,0.5-11c0.4-7.9,0.9-16.2,0.9-24.3c8.9,0.2,17.3,0.4,25.5,0.6v-1.7c-17.4-0.5-36-0.8-57-0.9
			c-0.4-9.3-0.4-18.3-0.4-27.8h-3c0,9.5,0,18.5,0.4,27.8c-4.4,0-8.9,0-13.5,0c-19.8,0-39.9,0.1-59.4,0.3c-7.7,0.1-15.5,0.1-23.4,0.2
			l-0.2-1.6c-1.4-11.9-2.8-23.1-3.7-34.7c14.1,1,28.4,2.2,43,3.4c38.5,3.2,78.2,6.5,117.1,6.5V68c-3.7,0-7.4-0.1-11.1-0.1
			c-0.2-3.1-0.4-6.1-0.5-9.2c-0.4-6.8-0.9-13.8-0.9-20.6c4.2,0.2,8.3,0.4,12.5,0.6v-1.7c-9.4-0.4-18.9-0.9-28.3-1.3
			c-20.4-0.9-40.9-1.9-61.5-2.8c0.1-4.9,0.7-9.8,1.3-14.6c0.5-4,1-8.2,1.2-12.3l-3-0.1c-0.2,4.1-0.7,8.2-1.2,12.3
			c-0.6,4.8-1.1,9.7-1.3,14.6c-32.8-1.5-65.9-2.8-99.1-3.9c1.4-8.6,2.8-17.5,3.7-26.3c51.4,2,102.9,3.4,153.3,4.6
			c11.6,0.3,23.2,0.6,34.8,0.9V6.2c-11.5-0.3-23.1-0.6-34.6-0.9c-10.1-0.3-20.3-0.5-30.6-0.8c0.7-4.8,1-9.5,1.3-14.1
			c0.3-5,0.6-10,1.4-15.2h-3c-0.8,5.1-1.1,10.2-1.4,15.1c-0.3,4.6-0.6,9.3-1.3,14.1c-47.5-1.2-95.7-2.6-143.7-4.8
			c0.3-2.9,0.7-5.8,1.1-8.7c0.7-5.2,1.4-10.5,1.7-15.7h-3c-0.3,5.1-1,10.4-1.7,15.5c-0.4,2.9-0.8,5.8-1.1,8.7
			c-7.3-0.3-43.2-0.7-81-1c0.7-5.9,1-10.8,1-15.4c0-2.7-0.1-5.3-0.4-7.8h-2.8c0.2,2.5,0.4,5.1,0.4,7.8c0,4.6-0.3,9.4-1,15.4
			c-27.5-0.3-55.6-0.5-74.5-0.8c-0.9,0-4.2,0-9.2,0c-0.8-5-1.2-9.9-1.5-14.7c-0.2-2.5-0.4-5.1-0.6-7.6h-2.8c0.3,2.6,0.5,5.2,0.6,7.7
			c0.3,4.7,0.7,9.6,1.5,14.6c-18.6,0-56.2-0.1-98.7-0.1c0.4-7.3,0.7-14.8,0.8-22.1h-2.8c-0.1,7.4-0.5,14.8-0.8,22l1.9,0.1
			c-29.8,0-62-0.1-91.7-0.1c-0.2-3.3-0.2-6.6-0.3-9.8c0-4-0.2-8.1-0.5-12.2H9.1c0.3,4.1,0.5,8.2,0.5,12.2c0,3.2,0.1,6.5,0.3,9.8
			c-4.5,0-8.9,0-13.2,0c0.2-3.7,0.7-7.6,1.2-11.5c0.4-3.5,0.8-7.1,1.1-10.6H-4c-0.3,3.4-0.6,6.9-1.1,10.3C-5.5-10.5-6-6.5-6.2-2.7
			c-19.8,0-37.8,0-52.5-0.1c0-0.2,0-0.4,0-0.6l-2.8-0.1c0,0.2,0,0.4,0,0.6c-13.9,0-24.4,0-30.1-0.1v1.8c5.7,0,16.2,0.1,30.1,0.1
			c-0.3,6-0.6,12.6-0.6,19.1c0,3,0.1,5.9,0.2,8.8c-13.7,0-24,0-29.7,0v1.7c11.2,0,40.8,0,77.5,0c0.3,3.8,0.4,7.7,0.4,11.4
			c0.1,5.2,0.1,10.5,0.9,15.9C-50.3,56-80.4,56-91.7,56v1.7c5.5,0,15.5,0,28.7,0c0,0.5,0,1.1,0,1.6c0,9.2,1.5,18.3,2.9,27.2
			c0.5,2.9,0.9,5.9,1.4,8.9c-15.3,0-26.9-0.1-33-0.1v1.7c4.1,0,10.7,0,19.4,0c0.2,3.9,0.7,7.9,1.1,11.7c0.6,5.2,1.2,10.5,1.2,15.7
			c0,0.8,0,1.7-0.1,2.5c-9.7,0-17.2,0-21.7-0.1v1.8c7,0.1,20.9,0.1,39.6,0.1c-0.4,12.7-0.9,25.8-2.3,39.1c-17.4,0-30.6-0.1-37.3-0.1
			v1.8c8.9,0.1,29,0.1,55.3,0.2c0,0.6,0,1.1,0,1.7c0,1.9-0.1,3.8-0.1,5.7c-0.1,1.9-0.1,3.9-0.1,5.8c0,3.1,0.2,5.6,0.6,8
			c-26.4,0-46.8,0-55.7,0v1.7c5.9,0,16.9,0,31.3-0.1c0.5,5.1,1.6,10,2.7,14.8c1.1,4.9,2.3,10,2.8,15.2c-17.1,0-30.1,0-36.7,0v1.8
			c5.3,0,14.6,0,26.8,0c-0.1,1-0.3,2.1-0.3,3.2c0,4.6,1.1,9.3,2.1,13.8c0.6,2.4,1.1,4.8,1.5,7.1l2.8-0.3c-0.4-2.4-1-4.9-1.5-7.3
			c-1-4.4-2.1-8.9-2.1-13.3c0-1.1,0.1-2.2,0.3-3.2c13.6,0,30.4,0,49,0c0.8,4.1,1.4,8.2,1.9,12.2c0.5,4,1.1,8.2,1.9,12.4
			c-9.8,0-19.1,0-27.7,0c0,0,0,0,0,0l-0.2,0c-25.9,0-45.8,0-54.6,0v1.7c8.4,0,27.5,0,52.2,0c0.7,3.4,0.8,6.7,0.8,9.6l0,3.7
			c0,2.3,0,4.9,0.4,7.5c-25.3,0-44.8,0-53.3,0v1.7c13,0,50.7,0,95.8,0c-0.2,2.8-0.4,5.6-0.6,8.4c-0.4,5.3-0.8,10.8-0.8,16.2
			c0,1.4,0,2.8,0.1,4.2l2.8-0.1c-0.1-1.4-0.1-2.8-0.1-4.1c0-5.3,0.4-10.8,0.8-16.1c0.2-2.9,0.4-5.8,0.6-8.6c20.8,0,43.1,0,65.2,0
			c-0.3,4-0.4,8.3-0.4,13.7c0,2.6,0,5.2,0.1,7.8c0,2.6,0.1,5.2,0.1,7.8h2.8c0-2.6,0-5.2-0.1-7.8c0-2.6-0.1-5.2-0.1-7.8
			c0-5.5,0.1-9.8,0.5-13.7c27.4,0,54.4,0,77.6,0c0,1-0.1,2-0.1,3c0,2.9,0.1,5.7,0.2,8.5c0.1,2.8,0.2,5.6,0.2,8.4
			c0,3.6-0.2,6.6-0.5,9.5c-97.7-0.1-218.6-0.2-244-0.2v1.8c6.8,0.1,19.9,0.1,37.3,0.2l0,6.4c0,9.3-0.1,18.9,0.3,28.2
			c-17.6,0-30.9-0.1-37.6-0.1v1.7c9.9,0,34.4,0,66,0.1c1.1,4.1,1.3,8,1.3,11.1c0,1.9-0.1,3.9-0.1,5.8c-0.1,1.9-0.1,3.9-0.1,5.8
			c0,1.1,0,2.1,0.1,3.1c-32,0-57-0.1-67-0.1v1.8c3.9,0,10.1,0.1,18.1,0.1c0.9,3.9,1.3,7.9,1.7,11.8c0.4,4.7,0.9,9.7,2.3,14.5
			c-9.9,0-17.5,0-22.1,0v1.7c9,0,29.8,0,56.9,0.1c0.5,3,0.9,6,1.3,9c0.7,6,1.5,12.1,3.6,18.2c-29.5,0-52.3,0.1-61.8,0.1v1.7
			c11,0,39.8-0.1,76.4-0.1c-0.9,12.4-0.9,25.2-0.9,37.5h2.8c0-12.4,0-25.1,0.9-37.5c17.1,0,35.7,0,54.9-0.1c0,1.8-0.1,3.6-0.1,5.4
			c0,9.5,0.6,19.6,2,32.6c-62.6-0.1-119.4-0.1-136.1-0.2v1.7c5.7,0,16.3,0,30.2,0.1c0,0.8,0.1,1.6,0.1,2.5c0,3.4-0.2,6.9-0.4,10.2
			c-0.2,3.4-0.4,6.8-0.4,10.3c0,2.4,0.1,4.6,0.3,6.6l2.8-0.2c-0.2-2-0.3-4.1-0.3-6.4c0-3.4,0.2-6.9,0.4-10.2
			c0.2-3.4,0.4-6.9,0.4-10.4c0-0.8,0-1.6-0.1-2.5c16.9,0,38.2,0,61.9,0.1c-0.1,1.9-0.1,3.7-0.1,5.6c0,4.3,0.2,8.6,0.3,12.9
			c0.1,3.8,0.2,7.6,0.3,11.5c-45.4-0.1-82.5-0.1-95.4-0.2v1.8c4.5,0.1,11.6,0.1,20.9,0.1c0.5,3.3,1,6.7,1.5,10
			c1.3,9.6,2.6,19.6,6.6,29.1c-13.3,0-23.4-0.1-29-0.1v1.8c7.1,0.1,21.3,0.1,40,0.2c-0.2,2.4-0.4,4.8-0.4,7.4
			c0,4.1,0.3,8.6,0.9,13.7c-17.7,0-32.3,0-40.5,0v1.7c11.6,0,35.9-0.1,65.1-0.1c-0.1,3.1-0.3,6.2-0.5,9.3c-0.3,3.6-0.5,7.3-0.5,11
			c0,3.6,0.3,6.9,0.9,9.9c-29.3,0-53.5,0-65,0v1.8c47.3,0.1,314,0.2,336.4,0.3C295.5,593.1,367.3,593.2,378.8,593.3z M420.2,576
			c-0.5,5.2-0.9,10.3-1.4,15.8c-24.9-0.1-50.2-0.3-75.4-0.8c-0.5-5.2-1-10.1-1.5-15c-0.5-5-1-9.9-1.5-15.3l-3,0.1
			c0.5,5.4,1,10.4,1.5,15.3c0.5,4.8,1,9.6,1.5,14.8c-2.2,0-37.9-0.1-73.4-0.1c0.2-2.6,0.4-5.3,0.6-7.9c0.5-7.5,1-15.3,2.8-22.8
			c58.5-0.3,130.9-0.5,151.3-0.6C421.2,565.3,420.7,570.7,420.2,576z M189.4,558.9C189.4,558.9,189.4,558.9,189.4,558.9
			c-27.5,0-61.7,0.1-96.9,0.1c0.1-1.1,0.1-2.2,0.1-3.3c0-2.1-0.1-4.3-0.2-6.4c-0.1-2.1-0.2-4.2-0.2-6.3c0-1.7,0.1-3.3,0.3-4.7
			c22.6,0,44.8,0.1,65.2,0.1c-0.3,3.1-0.5,6.2-0.6,9.3c-0.1,3.5-0.2,7.1-0.7,10.7l2.8,0.3c0.5-3.6,0.6-7.3,0.7-10.9
			c0.1-3.1,0.2-6.2,0.6-9.3c23.1,0,43.8,0.1,59.6,0.1c-0.1,6.3-0.4,12.6-0.8,18.8l-0.1,1.5c-7.8,0-16.9,0-26.9,0c0,0,0,0,0,0H189.4z
			 M62.9,497.5c23,0.1,46.4,0.1,68.5,0.2c0.3,2.1,0.5,4.2,0.5,6.4c0,6-1.1,12.2-2.2,18.1c-0.9,4.6-1.7,9.5-2.1,14.3
			c-19,0-38.9-0.1-58.6-0.1c0-0.3,0.1-0.7,0.1-1C69,534.9,64.4,512.9,62.9,497.5z M69.8,463.6c-8.3,0-16.6,0-24.9,0l2.2-0.2
			c-1.4-12.9-2-22.9-2-32.4c0-1.8,0-3.6,0.1-5.5c22.2,0,45.1,0,67.2-0.1c0.1,3.7,0.2,7.4,0.2,11.1c0.1,8.9,0.2,18,1.4,27
			c-13.6,0-27.5,0-41.4,0c0,0,0,0,0-0.1L69.8,463.6C69.8,463.6,69.8,463.6,69.8,463.6z M1.2,391c0-3.9,0.3-7.9,0.5-11.7
			c0.2-3.4,0.4-7,0.5-10.5c24.3,0,50.9,0.1,77.2,0.1c0.5,3.8,0.6,7.5,0.6,11.3l0,2.5c0,4.1,0.1,8.2,0.7,12.4c-28,0-56.3,0-81.8-0.1
			l2.4-0.1C1.2,393.6,1.2,392.3,1.2,391z M53.3,413.6c0.5-3.6,1-7.3,1-11.1c0-2.1-0.2-3.9-0.5-5.8c23.4,0,47.4,0,70,0
			c0.5,3.6,0.8,7.5,0.8,11.9c0,3.7-0.3,8.5-0.5,12.7l-0.1,2.4c-23.2,0-47.7,0-71.6,0.1C52.4,420.4,52.8,417.1,53.3,413.6z
			 M82.8,382.6l0-2.5c0-3.8-0.1-7.5-0.6-11.3c29.3,0.1,57.9,0.1,82.1,0.2c0,8.5,0,17.3-0.5,25.9l2.8,0.1c0.4-8.6,0.5-17.4,0.5-26
			c34.3,0.1,59.3,0.1,63.8,0.2c1.8,0,3.7,0.1,5.7,0.1c0,0,0,0,0,0.1h0.3c0.3,2.2,0.7,8.3,0.7,12c0,4.2-0.2,9.8-0.4,13.9
			c-6,0-15.2,0-27-0.1c0,0,0,0,0,0l-0.3,0c-31.2,0-79.6-0.1-128.8-0.1l2.4-0.3C82.9,390.7,82.8,386.7,82.8,382.6z M147.9,341.1
			c26.4,0,49.4,0,65.3,0c0.3,3.9,0.4,7.8,0.4,11.4l0,7.1c0,2.5,0,5,0.2,7.5c-15.4,0-39.3-0.1-67.2-0.1c0.2-2.9,0.4-5.7,0.6-8.6
			c0.4-4.8,0.8-9.7,0.8-14.6C147.9,342.9,147.9,342,147.9,341.1z M155.5,285.1c-0.1-2.8-0.2-5.6-0.2-8.4c0-1,0-2,0.1-3
			c27.8,0,49.9,0,60.5,0c0,3.8-0.1,7.5-0.3,11.3c-0.2,4.2-0.3,8.3-0.3,12.5c0,1.9,0,3.8,0.1,5.6c-18,0-38.5,0-60.2-0.1
			c0.3-2.9,0.5-5.9,0.5-9.5C155.7,290.7,155.6,287.9,155.5,285.1z M153.7,222.8c-22.3,0-48.7,0-75.8,0v-30.2c28.1,0,55.8,0,79.6-0.1
			c-1.4,4.9-1.6,9.9-1.9,14.8c-0.2,5.1-0.5,10.4-2.1,15.5L153.7,222.8z M-33.8,183c0-1.9,0.1-3.8,0.1-5.7c0.1-1.9,0.1-3.8,0.1-5.7
			c0-0.6,0-1.1,0-1.7c17.1,0,36.6,0.1,57.1,0.1c0,1-0.1,2-0.1,3c0,3,0.1,5.9,0.3,8.9c0.1,2.9,0.3,5.9,0.3,8.9h2.8
			c0-3.1-0.2-6.1-0.3-9c-0.1-2.9-0.3-5.8-0.3-8.8c0-1,0-2,0.1-3c23.4,0,48.1,0.1,71.8,0.1c-0.1,3.8-0.5,7.8-1,11.7
			c-0.4,3-0.8,6.1-1,9.1l2,0.1C52.6,191,4,191-33.3,191l0.1,0C-33.6,188.7-33.8,186.2-33.8,183z M50.5,127.2
			c-26.2,0-51.6-0.1-73.8-0.1c-0.6-4.7-1.5-9.3-2.4-13.8c-1-5.3-2-10.7-2.6-16.2c23.8,0,51.8,0,80.5,0.1c-0.1,1.4-0.3,3.5-0.4,7.1
			C51.5,112.2,50.9,124.1,50.5,127.2L50.5,127.2z M0.9,95.5l1.8-0.1c-0.2-3-0.3-6.2-0.3-9.8c0-4.9,0.2-9.9,0.4-14.8
			c0.2-4.3,0.3-8.8,0.4-13.2c20.5,0,42.5,0,64.3,0c-0.2,5.5-0.3,10.6-0.3,15.3c0,7.9,0.3,15.3,0.8,22.6c-4.3,0-8.7,0-13,0
			c-0.2-0.3-0.5-0.6-1.2-0.6c-0.6-0.1-0.9,0-1.2,0.6C34.8,95.6,17.3,95.5,0.9,95.5z M141.7,57.6c0,12.3,0,25.1,1.4,38l2.8-0.2
			c-1.4-12.8-1.4-25.5-1.4-37.8c39.3,0,68.5-0.1,71.8-0.1c9.6-0.1,21.7-0.1,34.7-0.2c-1.2,7.4-1.6,15-2,22.3
			c-0.3,5.3-0.5,10.7-1.1,16.1l0.7,0.1c-2.4,0-4.8,0-7.1,0c-10.8-0.1-91.2-0.1-170.9-0.2C70.3,88.3,70,80.9,70,72.9
			c0-4.7,0.1-9.8,0.3-15.3C95.3,57.6,119.9,57.6,141.7,57.6z M91.6,55.9c0-7.2,0.8-14.7,1.6-22c0.2-1.7,0.4-3.5,0.5-5.2
			c48.1,0,91.6,0,110.7,0c-0.2,2.8-0.3,5.7-0.5,8.5c-0.4,6.1-0.8,12.4-0.9,18.6C181.4,55.8,138.4,55.8,91.6,55.9z M296.3,29
			c33.5,0.1,63.7,0.3,69.1,0.4c0.6,5.2,0.6,10.5,0.7,15.5c0,3.4,0.1,6.8,0.3,10.3c-1.5,0-3.1,0-4.6,0c-5,0-34.5,0.1-67.3,0.2
			c0.2-3.2,0.5-6.5,0.9-9.6c0.5-4.8,1-9.8,1-14.6C296.3,30.4,296.3,29.7,296.3,29z M341,57c-0.5,6.5-1.4,12.9-2.2,19.2
			c-0.9,6.5-1.8,13.2-2.3,19.9c-27.2-0.1-58.8-0.1-85.6-0.3c0.6-5.4,0.8-10.8,1.1-16.1c0.4-7.4,0.8-15.1,2-22.5
			C284.2,57.2,319.1,57.1,341,57z M366.2,128.4c-6.8-0.2-50.5-0.5-92.2-0.7c0.2-4.4,0.7-8.9,1.1-13.2c0.6-5.5,1.1-11.3,1.2-17
			c40.8,0.1,82.8,0.2,89,0.3c0.4,2.8,0.6,5.9,0.6,9.6c0,2,0,4-0.1,6c0,2-0.1,4-0.1,6C365.7,122.9,365.9,125.8,366.2,128.4z
			 M403.3,150.7c0.5,6.2,1,12.4,1.5,18.9c-9.8-0.1-39.9-0.2-74.4-0.4c0.6-4.5,1.2-9.1,1.8-13.6c1.1-8.4,2.2-17.1,3.6-25.6
			c24.1,0.5,46.7,0.9,67.4,1.3l-1.3,0C402.3,138.1,402.8,144.4,403.3,150.7z M513.5,169.6c-7.8,0-15.7,0-23.5,0.1
			c-15.6,0.1-31.2,0.1-46.8,0.1c-11.6,0-23.5,0-35.4-0.1c-0.5-6.6-1-12.8-1.5-19c-0.5-6.3-1-12.6-1.5-19.3c30,0.6,55.8,1.1,75.5,1.5
			c11.6,0.2,23.4,0.5,35.1,0.7c-1.4,8.9-2.1,18.4-2.1,28.3C513.3,164.5,513.4,167.1,513.5,169.6z M443.2,171.5c5.6,0,11.3,0,16.9,0
			c-0.1,1.8-0.2,3.8-0.2,6c0,2.2,0.1,4.5,0.1,6.7c0,1.9,0.1,3.7,0.1,5.6c-2.9,0-5.8,0-8.7,0c-32,0-62.6,0.2-92.6,0.7
			c-0.2-3.1-0.3-6.1-0.3-9.2c0-3.3,0.1-6.6,0.4-9.9C396.5,171.5,429.3,171.5,443.2,171.5z M537.5,192c0.1,1.3,0.1,2.5,0.1,3.8
			c0,5.2-0.4,10.5-0.8,15.6c-0.3,4.4-0.6,8.9-0.7,13.3c-32-0.6-63.9-0.7-95.2-0.8c-6.3,0-12.6,0-19-0.1c0.5-5.5,0.9-10.6,1.4-15.8
			c0.5-5.4,1-10.8,1.5-16.6c8.8,0,17.7-0.1,26.7-0.1C479.2,191.5,507.8,191.7,537.5,192z M446.1,273.8c-0.9,0-1.9,0-2.8,0
			c0.5-6.8,1.1-13.8,3.3-20.4l-2.9-0.3c-2.3,6.7-2.9,13.8-3.4,20.7c-2,0-4-0.1-5.9-0.1c-28.1-0.4-56.8-0.8-85.4-1.4
			c0.1-1.7,0.2-3.3,0.2-5c0.2-5.4,0.3-10.9,1.7-16.2c26.7,0.2,53.8,0.9,80,1.6c5.9,0.2,11.8,0.3,17.8,0.5c-0.3,2-0.6,4.1-1,6.1
			c-0.8,4.7-1.6,9.5-1.6,14.2C446.1,273.5,446.1,273.6,446.1,273.8z M353.3,303.5c-3-0.1-21.4-0.2-44.8-0.2v-29.4
			c23.4,0.1,41.9,0.1,44.8,0.2c-0.3,5.3-0.4,10.4-0.4,15.5C353,294.2,353.1,298.8,353.3,303.5z M286.3,272c0-0.3,0-0.6,0-0.8
			c0-2.9,0.4-5.9,0.8-8.9c0.4-3,0.8-6.1,0.8-9.2c0-0.7-0.1-1.5-0.1-2.2c26.5,0,48.7,0,50.1,0c3.3,0,6.7,0,10,0.1
			c-1.4,5.4-1.5,10.9-1.7,16.2c0,1.7-0.1,3.3-0.2,5C343.3,272.1,316.6,272.1,286.3,272z M305.7,273.9v29.4c-8.4,0-17.4-0.1-26.5-0.1
			c-8.5,0-31-0.1-61-0.1c-0.1-1.9-0.1-3.8-0.1-5.6c0-4.1,0.2-8.3,0.3-12.4c0.1-3.8,0.3-7.6,0.3-11.4c1.7,0,2.9,0,3.6,0
			C245.2,273.7,278.4,273.8,305.7,273.9z M378.8,249.6c-13.7-0.3-27.4-0.4-41-0.4c-1.1,0-13.8,0-31.3,0c2.8-8,3.8-16.3,4.2-24.1
			c32.7,0.1,61.2,0.2,68.1,0.2V249.6z M242.8,190.8c-4.3,0-8.4,0-12.3,0c-4.3,0-23.6,0-50.9,0c1.7-6.9,2.6-13.9,3.5-20.7
			c26.2,0.1,44.4,0.1,48,0.2c9.6,0.1,20.4,0.3,31.8,0.4c0.2,1.6,0.4,3.2,0.4,5.1c0,2.7-0.3,5.5-0.5,8.2c-0.2,2.2-0.4,4.5-0.4,6.8
			c-5.7,0-11.2,0-16.6,0c0,0,0-0.1,0-0.1L242.8,190.8C242.8,190.8,242.8,190.8,242.8,190.8z M118.4,110.6c-0.1-2.5-0.2-5.1-0.2-7.6
			c0-2.1,0.1-4,0.2-5.7c23.9,0,46.5,0,65.6,0c-0.3,2.5-0.4,5.3-0.4,8.5c0,2,0,4,0.1,6c0,2,0.1,4,0.1,6c0,2.7-0.2,6.9-0.4,8.8h-0.2
			c0,0.4,0,0.6,0,0.8c-19,0-41.5,0-65.2-0.1c0.4-2.7,0.5-5.6,0.5-9C118.6,115.7,118.5,113.2,118.4,110.6z M232.6,129.2
			c-1.4,7.3-1.8,14.9-2.1,22.2c-0.3,5.6-0.6,11.4-1.3,17.2c-6.3,0-23.9-0.1-48.1-0.1l-0.7-0.1l0,0.1c-10.6,0-22.4,0-35-0.1
			c0-3.5,0-7,0.1-10.4c0-3.5,0.1-6.9,0.1-10.4c0-6.1-0.1-11.7-0.5-18.4C177,129.1,207.3,129.2,232.6,129.2z M186.6,111.8
			c0-2-0.1-4-0.1-6c0-3.3,0.2-6,0.4-8.5c28.3,0,48.7,0,54,0.1c10.2,0,21.3,0.1,32.6,0.1c-0.1,5.7-0.6,11.3-1.2,16.8
			c-0.4,4.4-0.9,8.9-1.1,13.4c-11-0.1-21.8-0.1-31.7-0.2c-5.2,0-25.3-0.1-53.3-0.1c0.3-1.4,0.4-4.2,0.4-9.6
			C186.7,115.8,186.6,113.8,186.6,111.8z M355.8,190.5c-5.2,0.1-49.7,0.2-90.7,0.3c0.1-2.2,0.2-4.4,0.4-6.6c0.2-2.7,0.5-5.5,0.5-8.3
			c0-1.8-0.1-3.5-0.4-5.1c28.4,0.3,60.6,0.4,90.2,0.5c-0.2,3.3-0.4,6.6-0.4,9.9C355.5,184.3,355.6,187.4,355.8,190.5z M327.5,169.2
			c-32.5-0.2-68.6-0.4-95.4-0.7c0.7-5.7,1-11.5,1.3-17.1c0.4-7.4,0.8-14.9,2.2-22.3c35.4,0,60.4,0.1,65,0.2
			c11,0.2,21.8,0.4,32.4,0.6c-1.4,8.4-2.5,17-3.6,25.4C328.7,160,328.1,164.7,327.5,169.2z M180.2,170.3c-0.9,6.8-1.8,13.8-3.5,20.7
			c-22.2,0-49.3,0-77.7,0c0.2-2.9,0.6-6,1-8.9c0.5-3.9,1-8,1.1-11.9C130.2,170.2,157.9,170.2,180.2,170.3z M245.8,196.3
			c0-1.3,0-2.6-0.1-4c5.3,0,10.8-0.1,16.5-0.1c0,0.1,0,0.1,0,0.2h2.8c0-0.1,0-0.1,0-0.2c22.9-0.1,48.2-0.2,72-0.3
			c0.5,5.4,1.4,11.5,1.9,16.4c0.5,4.8,1,9.6,1.5,14.8c-2.7,0-56.1-0.1-97.4-0.2C244.8,214.1,245.8,205.1,245.8,196.3z M343.4,223.1
			c-0.5-5.2-1-10.1-1.5-15c-0.5-4.9-1.4-11-1.9-16.3c36.7-0.1,69.1-0.2,81.7-0.3c-0.5,5.7-1,11.1-1.5,16.5
			c-0.5,5.2-0.9,10.3-1.4,15.8C393.9,223.7,368.6,223.5,343.4,223.1z M292.4,45.5c-0.3,3.3-0.7,6.6-0.9,9.9c-13,0-26.5,0.1-39.1,0.2
			l-1.1-0.1c0,0,0,0.1,0,0.1c-5,0-9.9,0-14.5,0.1c0.5-4.6,1.3-9.3,2-13.9c0.7-4.2,1.4-8.6,1.9-12.9c16.2,0.1,34.8,0.1,52.7,0.2
			c0,0.7,0.1,1.4,0.1,2.1C293.5,35.9,292.9,40.8,292.4,45.5z M236,41.4c-0.8,4.7-1.6,9.5-2.1,14.2c-6,0-11.6,0.1-16.6,0.1
			c-1.2,0-5.2,0-11.5,0c0-6.1,0.4-12.4,0.9-18.4c0.2-2.9,0.4-5.8,0.5-8.7c3.9,0,6.4,0,7.2,0c6.7,0,14.7,0.1,23.4,0.1
			C237.4,33,236.7,37.3,236,41.4z M90.4,33.6c-0.8,7.3-1.6,14.9-1.6,22.2c-33.3,0-68.3,0-98.8,0.1c-0.7-5.4-0.8-10.7-0.9-16
			c0-3.7-0.1-7.5-0.4-11.4c31.5,0,68,0,102.3,0C90.7,30.3,90.6,32,90.4,33.6z M54.7,104.4c0.1-3,0.3-5.8,0.4-7.2
			c20.2,0,40.8,0,60.5,0c-0.1,1.8-0.2,3.6-0.2,5.7c0,2.6,0.1,5.1,0.2,7.7c0.1,2.5,0.2,5.1,0.2,7.6c0,3.4-0.2,6.3-0.5,8.9l0.8,0.1
			c-20.4,0-41.7,0-62.7-0.1C53.8,123.7,54.3,112.6,54.7,104.4z M70.3,148.4c0.3-6.5,0.7-12.9,0.9-19.3c23.5,0,47.7,0,71,0
			c0.4,6.7,0.5,12.3,0.5,18.4c0,3.4,0,6.9-0.1,10.4c0,3.5-0.1,6.9-0.1,10.4c-22.8,0-48-0.1-73.3-0.1C69.6,161.7,69.9,155,70.3,148.4
			z M158.5,207.4c0.2-4.9,0.5-10,1.9-14.9c36.7,0,63.6-0.1,67.8-0.1c4.6,0,9.5-0.1,14.7-0.1c0,1.3,0.1,2.6,0.1,3.9
			c0,8.9-1,17.8-2.9,26.6c-8.9,0-17.2,0-24.2,0c-3.1,0-26.6,0-59.5,0C158,217.7,158.2,212.5,158.5,207.4z M229.1,236.9
			c0.3-4,0.7-8,0.9-12.1c22.2,0.1,51.2,0.2,77.9,0.3c-0.5,7.9-1.4,16.1-4.3,24.1c-22.9,0-52.7,0-75.4,0
			C228.5,245,228.8,241,229.1,236.9z M285,250.9c0.1,0.7,0.1,1.5,0.1,2.2c0,2.9-0.4,6-0.8,8.9c-0.4,3-0.8,6.1-0.8,9.1
			c0,0.3,0,0.6,0,0.8c-21.4,0-44.2-0.1-61.3-0.1c-2.3,0-11.1,0-24.5,0c0.1-0.6,1-11.2,2.5-20.9c10.4,0,17.2,0,19,0
			C237.2,250.9,262.4,250.9,285,250.9z M240.6,305.6c0.9,4.1,1.4,8.5,1.4,13.9c0,3.6-0.2,7.2-0.4,10.7c-0.2,3.1-0.3,6.4-0.3,9.6
			c-2.4,0-4.7,0-6.9-0.1c-2.3,0-8.8,0-18.4-0.1c0-0.1,0-0.1,0-0.2l-2.8,0.2c-9.7,0-22.1,0-36.5-0.1c-0.9-12-1.8-22.9-3.1-34.2
			C199.1,305.4,222.2,305.5,240.6,305.6z M283.5,341.3c33.4,0.1,64.2,0.2,67.8,0.3c0,8.9,0.5,17.3,0.9,26.3
			c-3.9-0.2-36.1-0.3-70.5-0.5c1.1-5.7,2.2-12.2,2.2-18.9C284,346,283.8,343.7,283.5,341.3z M366.2,496.5
			c-4.8-0.2-27.8-0.3-55.5-0.5c0-0.9-0.1-1.8-0.1-2.7c0-5.3,0.6-10.9,1.1-16.3c0.4-3.7,0.8-7.6,1-11.3c26.6,0.1,48.3,0.1,52.7,0.2
			c0.4,2.8,0.6,5.9,0.6,9.6c0,2,0,4-0.1,6c0,2-0.1,4-0.1,6C365.7,490.9,365.9,493.8,366.2,496.5z M513.5,537.6
			c-7.8,0-15.7,0-23.5,0.1c-15.6,0.1-31.2,0.1-46.8,0.1c-11.6,0-23.5,0-35.4-0.1c-0.5-6.6-1-12.8-1.5-19c-0.5-6.1-1-12.2-1.5-18.7
			c32.5,0.3,60.2,0.7,75.5,1c11.6,0.2,23.4,0.5,35.1,0.7c-1.4,8.9-2.1,18.4-2.1,28.3C513.3,532.5,513.4,535.1,513.5,537.6z
			 M443.2,539.6c5.6,0,11.3,0,16.9,0c-0.1,1.8-0.2,3.8-0.2,6c0,2.2,0.1,4.5,0.1,6.7c0,1.9,0.1,3.7,0.1,5.6c-2.9,0-5.8,0-8.7,0
			c-32,0-62.6,0.2-92.6,0.7c-0.2-3.1-0.3-6.1-0.3-9.2c0-3.3,0.1-6.6,0.4-9.9C396.5,539.5,429.3,539.6,443.2,539.6z M260.5,536.8
			c0.6-4.1,1.4-8.3,2.1-12.3c1.6-8.5,3.2-17.3,3.3-26.1c22.5,0.3,47.4,0.6,72.4,0.9c0,0.6,0,1.2,0,1.8c0,9.5-1.4,18.8-2.9,28.6
			c-0.4,2.4-0.7,4.8-1.1,7.3l2.8,0.3c0.3-2.4,0.7-4.8,1.1-7.3c1.4-9.4,2.9-19.2,2.9-28.9c0-0.6,0-1.2,0-1.8
			c20.8,0.2,41.5,0.4,60.6,0.7c0.5,6.5,1,12.7,1.5,18.8c0.5,6.2,1,12.4,1.5,18.9C388.4,537.5,316.4,537.3,260.5,536.8z M355.8,558.5
			c-3.7,0.1-27,0.1-54.8,0.2c0.2-2.2,0.6-4.5,1-6.9c0.6-3.1,1.2-6.4,1.2-9.6c0-1.1-0.2-2.1-0.3-3.1c17.7,0.1,35.8,0.2,52.9,0.3
			c-0.2,3.3-0.4,6.6-0.4,9.9C355.5,552.4,355.6,555.5,355.8,558.5z M225.3,495.5c-18.4,0-45.2-0.1-75.6-0.1c-0.4-2.9-0.5-6-0.5-9.6
			c0-3.5,0.2-7.1,0.3-10.6c0.1-3.3,0.3-6.6,0.3-9.9c32.5,0,60.7,0,78.9,0.1c-0.4,3.5-0.9,7-1.5,10.4c-0.9,5.3-1.9,10.8-1.9,16.3
			C225.1,493.2,225.2,494.4,225.3,495.5z M185.1,536.6c-16.6,0-35.1-0.1-54.7-0.1c0.4-4.7,1.2-9.4,2-13.9c1.1-6,2.3-12.3,2.3-18.5
			c0-2.3-0.2-4.4-0.5-6.4c18.5,0.1,36,0.1,51.5,0.2c-0.1,0.9-0.1,2-0.1,3.5c0,4.6-0.2,9.3-0.4,13.8c-0.2,4.5-0.4,9.2-0.4,13.9
			C184.9,531.7,185,534.2,185.1,536.6z M210.4,396.8c16.8,0,28.5,0,32.5,0c16.6,0.1,35.4,0.1,53.3,0.2c0,0.8-0.1,1.7-0.1,2.5
			c0,2.3,0.1,4.6,0.1,7c0.1,2.3,0.1,4.7,0.1,7c0,3.3-0.1,6.9-0.4,9.9c-16.9,0.1-34.8,0.1-50.8,0.2c-4.6,0-18.6,0-38.3,0.1
			c0-0.9-0.1-2-0.1-2.5c0-3.6,1-7.3,1.9-10.8c1-3.6,1.9-7.4,1.9-11.2C210.6,398.4,210.4,397.6,210.4,396.8z M268.3,425.3
			c0,12.6,0,25.6-1.8,38.7c-6.6,0-13-0.1-19.1-0.1c-5.4,0-24.8-0.1-51.8-0.1c0.1-2.1,0.1-4.2,0.2-6.3c0.3-10.8,0.7-21.9,2.4-32
			c24.2,0,41.4-0.1,46.6-0.1C252.3,425.3,260.3,425.3,268.3,425.3z M205.9,409.9c-1,3.7-2,7.4-2,11.3c0,0.5,0,1.6,0.1,2.5
			c-21,0-48,0.1-77.2,0.1l0.1-2.3c0.2-4.3,0.5-9.1,0.5-12.9c0-4.4-0.3-8.3-0.8-11.9c31.1,0,59.6,0,80.8,0.1c0.1,0.8,0.2,1.5,0.2,2.3
			C207.7,402.8,206.8,406.2,205.9,409.9z M195.4,425.5c-1.7,10.2-2.1,21.2-2.4,32c-0.1,2.1-0.1,4.2-0.2,6.3c-21.7,0-48-0.1-75.9-0.1
			c-1.3-9-1.4-18.2-1.4-27.1c0-3.7-0.1-7.4-0.2-11.1C144.9,425.5,172.9,425.5,195.4,425.5z M229.8,476.1c0.6-3.5,1.2-7.1,1.6-10.7
			c8.1,0,13.9,0,16.6,0c19.7,0.1,42,0.1,61.8,0.2c-0.2,3.7-0.6,7.5-0.9,11.1c-0.6,5.4-1.1,11-1.1,16.5c0,0.9,0,1.8,0.1,2.7
			c-18.9-0.1-39.8-0.2-58.4-0.4c-3.3,0-10.8,0-21.3-0.1c-0.1-1.2-0.2-2.3-0.2-3.5C227.9,486.8,228.9,481.4,229.8,476.1z
			 M348.4,447.3c-0.6,4.7-1.2,9.6-1.2,14.4c0,0.8,0,1.6,0.1,2.5c-23.6,0-51.9-0.1-77.9-0.2c1.8-13.1,1.8-26.1,1.8-38.7
			c29.6-0.1,60.5-0.2,77.6-0.2c0.5,2.5,0.7,5.1,0.7,8C349.5,437.7,348.9,442.6,348.4,447.3z M298.8,423.4c0.4-3,0.4-6.6,0.4-9.9
			c0-2.3-0.1-4.7-0.1-7c-0.1-2.3-0.1-4.6-0.1-6.9c0-0.8,0-1.7,0.1-2.5c32.4,0.1,61,0.3,66.3,0.4c0.6,5.2,0.6,10.5,0.7,15.5
			c0,3.4,0.1,6.8,0.3,10.3c-1.5,0-3.1,0-4.6,0C357,423.2,329.9,423.3,298.8,423.4z M329.9,380.3c-0.5,4.3-1.1,10.1-1.1,15.6
			c-3.7,0-7.5-0.1-11.3-0.1c0.3-2.7,0.9-5.5,1.5-8.2c0.9-4,1.8-8.1,1.8-12.3c0-1.8-0.2-3.4-0.6-5c3.4,0,6.7,0.1,10,0.1
			c0,0.5,0,1,0,1.5c0,1,0.1,2,0.1,3.1C330.4,376,330.2,377.9,329.9,380.3z M317.4,370.3c0.4,1.6,0.6,3.2,0.6,5
			c0,3.9-0.9,7.9-1.7,11.8c-0.6,2.8-1.2,5.7-1.5,8.6c-5.2,0-10.4-0.1-15.7-0.1c0-0.1,0-0.2,0-0.2l-2.8-0.1c0,0.1,0,0.2,0,0.3
			c-18.4-0.1-36.8-0.2-52.9-0.3c-0.8,0-1.9,0-3.2,0c0.2-4,0.4-9.6,0.4-13.9c0-6.5-0.3-10-0.7-12C262.7,369.7,291,370,317.4,370.3z
			 M279,367.4c-13.8-0.1-27.9-0.2-40.4-0.2c-0.1,0-0.2,0-0.4,0c-0.1,0-0.2,0-0.4,0c-2.3,0-4.6,0-6.8,0c-2,0-7,0-14.5,0
			c-0.1-2.5-0.2-5-0.2-7.5l0-7.1c0-3.6-0.1-7.4-0.4-11.4c9.6,0,16.2,0,18.7,0c14,0.1,30.2,0.1,46,0.2c0.3,2.3,0.5,4.6,0.5,7.1
			C281.2,355.2,280.1,361.7,279,367.4z M146.9,465.3c0,3.2-0.1,6.5-0.3,9.8c-0.2,3.5-0.3,7.1-0.3,10.7c0,3.6,0.2,6.7,0.5,9.6
			c-22.5,0-46.8-0.1-71.1-0.1c-1.3-9.6-2.7-20.4-2.9-30C98.1,465.3,123.5,465.3,146.9,465.3z M89.6,538.3c-0.1,1.5-0.2,3-0.2,4.7
			c0,2.1,0.1,4.3,0.2,6.4c0.1,2.1,0.2,4.2,0.2,6.3c0,1.1,0,2.1-0.1,3.2l2.8,0.1l0,0l0,0l0,0c-26.1,0-52.7,0-77.4,0
			c0.5-3.6,1.3-7.2,2-10.6c0.7-3.3,1.5-6.8,2-10.2C41.7,538.2,65.8,538.2,89.6,538.3z M188,536.6c-0.1-2.4-0.2-4.8-0.2-7.6
			c0-4.6,0.2-9.3,0.4-13.8c0.2-4.5,0.4-9.2,0.4-13.9c0-1.9,0-2.9,0.1-3.5c32.3,0.1,55.9,0.2,61.7,0.3c4.1,0.1,8.4,0.1,12.7,0.2
			c-0.1,8.7-1.7,17.4-3.3,25.8c-0.8,4.2-1.6,8.4-2.2,12.7c-2,0-3.9,0-5.8,0C245.2,536.7,220.9,536.6,188,536.6z M222.1,557.5
			c0.4-6.2,0.8-12.6,0.8-18.9c14.5,0,24.7,0.1,28.4,0.1c15,0.2,31.7,0.3,48.8,0.4c0.2,1,0.3,2,0.3,3.1c0,3-0.6,6.2-1.2,9.2
			c-0.4,2.4-0.9,4.9-1.1,7.3c-8.9,0-18.2,0-27.5,0.1c0,0,0,0,0-0.1l-2.8-0.5c-0.1,0.2-0.1,0.4-0.1,0.6c-6.9,0-13.7,0-20.2,0.1
			c-3.7,0-12.7,0-25.5,0L222.1,557.5z M536.7,579.5c-0.3,4.4-0.6,8.9-0.7,13.3c-32-0.6-63.9-0.7-95.2-0.8c-6.3,0-12.6,0-19-0.1
			c0.5-5.5,0.9-10.6,1.4-15.8c0.5-5.4,1-10.8,1.5-16.6c8.8,0,17.7-0.1,26.7-0.1c27.8,0,56.3,0.2,86,0.6c0.1,1.3,0.1,2.5,0.1,3.8
			C537.5,569.1,537.1,574.4,536.7,579.5z M536.7,539.3c7.4,0,14.5,0,21.2,0c0,6.3,0,12.9-0.5,19.2c-32.8-0.5-64-0.8-94.4-0.8
			c0-1.9,0-3.7-0.1-5.6c-0.1-2.2-0.1-4.4-0.1-6.7c0-2.2,0.1-4.2,0.2-6c9,0,17.9,0,26.9-0.1C505.5,539.4,521.1,539.3,536.7,539.3z
			 M456.5,465.6c19.4-0.1,39.6-0.3,59.3-0.3c16.3,0,31.1,0.1,45,0.3c0,8.2-0.4,16.4-0.9,24.3c-0.2,3.6-0.4,7.3-0.5,11
			c-26.6-0.7-53.1-1.2-79.1-1.8c-5.6-0.1-11.2-0.2-16.8-0.3c-0.1-3.1-0.2-6.5-0.2-10.3c0-3.8,0.1-7.7,0.1-11.5
			c0.1-3.8,0.1-7.6,0.1-11.4h-3c0,3.8-0.1,7.5-0.1,11.3c-0.1,3.8-0.1,7.7-0.1,11.5c0,3.8,0.1,7.2,0.2,10.2
			c-30.2-0.6-60.8-1.3-91.3-2.3c-0.3-2.7-0.5-5.6-0.5-9.1c0-2,0-4,0.1-6c0-2,0.1-4,0.1-6c0-3.7-0.2-6.8-0.5-9.6
			c10.2,0.1,19.8,0.1,28.8,0.1C417,465.9,437.1,465.8,456.5,465.6z M429.9,462.6l0.2,1.5c-11,0.1-22,0.1-32.9,0.1
			c-6,0-24.1,0-47.1,0c0-0.8-0.1-1.6-0.1-2.5c0-4.7,0.6-9.5,1.2-14.2c0.6-4.7,1.2-9.7,1.2-14.5c0-2.9-0.3-5.5-0.7-8
			c5.1,0,8.6,0,10,0c21.7,0,43.8,1.1,66.5,2.7l-2.1,0.1C427.1,439.5,428.5,450.7,429.9,462.6z M369.3,423.3
			c-0.2-3.5-0.2-6.9-0.3-10.3c-0.1-5-0.1-10.2-0.7-15.4c33.2,0.9,66.3,2.2,99.2,3.5c0.2,4,0.6,8,0.9,11.9c0.5,5.3,0.9,10.8,1,16.2
			C434.7,426.3,401.6,423.7,369.3,423.3z M499.5,402.5c20.6,0.9,41,1.9,61.3,2.8c5.1,0.2,10.1,0.5,15.2,0.7h-2.2
			c0,6.8,0.5,13.9,0.9,20.7c0.2,3.1,0.4,6.1,0.5,9.1c-34.2-0.7-68.9-3.6-102.7-6.4c0,0-0.1,0-0.1,0c-0.1-5.6-0.6-11.2-1-16.6
			c-0.3-3.8-0.7-7.7-0.9-11.6c8.7,0.4,17.3,0.7,25.9,1.1c0,0.1,0,0.1,0,0.2L499.5,402.5C499.5,402.5,499.5,402.5,499.5,402.5z
			 M432.7,372.3c0,0.1,0,0.2,0,0.3l3,0.1c0-0.1,0-0.2,0-0.3c21.2,0.5,42.3,1,63.3,1.4c-0.2,4.1-0.7,8.2-1.2,12.2
			c-0.6,4.8-1.1,9.7-1.3,14.6c-32.8-1.5-65.9-2.8-99.1-3.9c1.3-8.3,2.7-16.8,3.6-25.3C411.7,371.8,422.2,372.1,432.7,372.3z
			 M398.1,371.4c-0.9,8.4-2.3,17-3.6,25.3c-8-0.3-33-0.5-62.8-0.7c0-5.4,0.6-11.2,1.1-15.4c0.3-2.5,0.5-4.4,0.5-5.5
			c0-1,0-2.1-0.1-3.1c0-0.5,0-0.9,0-1.4C363.8,370.8,389.6,371.1,398.1,371.4z M386.2,340.7c-13.5-0.2-89.6-0.6-142.1-0.9
			c0-3.2,0.2-6.4,0.3-9.5c0.2-3.5,0.4-7.2,0.4-10.8c0-5.3-0.4-9.8-1.3-13.9c17.6,0.1,30.4,0.1,36.2,0.2c13.4,0.1,27.5,0.3,41.6,0.4
			c0,1.1-0.1,2.2-0.1,3.3c0,4.2,0.2,8.3,0.3,12.5c0.2,4.1,0.3,8.3,0.3,12.4c0,1.8,0,3.6-0.1,5.4l2.8,0.1c0.1-1.8,0.1-3.7,0.1-5.5
			c0-4.2-0.2-8.3-0.3-12.5c-0.2-4.1-0.3-8.3-0.3-12.4c0-1.1,0-2.2,0.1-3.3c21.4,0.2,42.8,0.4,62.2,0.6c-0.4,4.6-0.6,9.4-0.6,14.9
			C385.7,328.2,386,334.5,386.2,340.7z M356.3,303.6c-0.2-4.7-0.3-9.4-0.3-14c0-5.1,0.1-10.2,0.4-15.5c20.4,0.4,40.7,0.7,60.9,1v30
			C397,304.6,376.7,304.1,356.3,303.6z M464.6,308c0,11-0.5,22.2-1.4,33.3c-4.5,0-9.1,0.1-13.6,0.1c-20,0-40.2-0.2-60.4-0.6
			c-0.3-6.2-0.5-12.6-0.5-19c0-5.5,0.2-10.3,0.6-14.9c28.9,0.3,52.9,0.6,65.3,0.9c4.2,0.1,8.5,0.2,12.8,0.3H464.6z M449.1,275.8
			c0-0.1,0-0.1,0-0.2c17.2,0.2,34.5,0.5,51.9,0.8c-0.5,5.2-0.9,10.5-1.2,15.8c-0.3,5-0.7,9.9-1.2,14.8c-14.7-0.3-29.4-0.7-43.9-1
			c-11.4-0.3-22.9-0.5-34.5-0.8v-30c4.7,0.1,9.4,0.1,14.1,0.2c2,0,3.9,0.1,5.9,0.1c0,0,0,0,0,0l3,0.1c0,0,0,0,0-0.1c1,0,2,0,3,0
			c0,0.1,0,0.2,0,0.3L449.1,275.8z M565.3,227.1c-0.4,3.3-0.6,6.7-0.8,9.9c-0.3,4.9-0.7,10-1.5,14.9c-12.3,0.3-25.2,0.5-38.9,0.5
			c-16.4,0-33-0.2-49.4-0.6c0.4-5.5,1.6-11.2,2.7-16.7c0.6-3,1.2-6,1.7-8.9l-3-0.2c-0.5,2.9-1.1,5.9-1.7,8.9
			c-1.1,5.5-2.2,11.3-2.7,16.9c-13.7-0.3-27.3-0.6-40.7-1c-16.2-0.4-32.7-0.9-49.2-1.2v-24.3c19.8,0.2,39.5,0.3,59,0.3
			c31.3,0.1,63.2,0.3,95.2,0.8c0,0.2,0,0.4,0,0.6h3c0-0.2,0-0.4,0-0.5C547.8,226.7,556.5,226.9,565.3,227.1z M536.7,171.3
			c7.4,0,14.5,0,21.2,0c0,6.3,0,12.9-0.5,19.2c-32.8-0.5-64-0.8-94.4-0.8c0-1.9,0-3.7-0.1-5.6c-0.1-2.2-0.1-4.4-0.1-6.7
			c0-2.2,0.1-4.2,0.2-6c9,0,17.9,0,26.9-0.1C505.5,171.4,521.1,171.3,536.7,171.3z M456.5,97.6c19.4-0.1,39.6-0.3,59.3-0.3
			c16.3,0,31.1,0.1,45,0.3c0,8.2-0.4,16.4-0.9,24.3c-0.2,3.6-0.4,7.3-0.5,11c-26.6-0.7-53.1-1.2-79.1-1.8
			c-5.6-0.1-11.2-0.2-16.8-0.3c-0.1-3.1-0.2-6.5-0.2-10.3c0-3.8,0.1-7.7,0.1-11.5c0.1-3.8,0.1-7.6,0.1-11.4h-3
			c0,3.8-0.1,7.5-0.1,11.3c-0.1,3.8-0.1,7.7-0.1,11.5c0,3.8,0.1,7.2,0.2,10.2c-30.2-0.6-60.8-1.3-91.3-2.3c-0.3-2.7-0.5-5.6-0.5-9.1
			c0-2,0-4,0.1-6c0-2,0.1-4,0.1-6c0-3.7-0.2-6.8-0.5-9.6c10.2,0.1,19.8,0.1,28.8,0.1C417,97.9,437.1,97.8,456.5,97.6z M429.9,94.6
			l0.2,1.5c-11,0.1-22,0.1-32.9,0.1c-7,0-29.8,0-57.8-0.1c0.5-6.6,1.4-13.2,2.3-19.6c0.9-6.3,1.7-12.9,2.2-19.5c9.3,0,15.8,0,17.9,0
			c21.7,0,43.8,1.1,66.5,2.7l-2.1,0.1C427.1,71.5,428.5,82.7,429.9,94.6z M496.5,34.3c0,0.1,0,0.1,0,0.2h3c0,0,0,0,0,0
			c20.6,0.9,41,1.9,61.3,2.8c5.1,0.2,10.1,0.5,15.2,0.7h-2.2c0,6.8,0.5,13.9,0.9,20.7c0.2,3.1,0.4,6.1,0.5,9.1
			c-34.2-0.7-68.9-3.6-102.7-6.4c0,0-0.1,0-0.1,0c-0.1-5.6-0.6-11.2-1-16.6c-0.3-3.8-0.7-7.7-0.9-11.6
			C479.3,33.6,487.9,33.9,496.5,34.3z M467.6,33.1c0.2,4,0.6,8,0.9,11.9c0.5,5.3,0.9,10.8,1,16.2c-34.9-2.9-68-5.5-100.3-5.9
			c-0.2-3.5-0.2-6.9-0.3-10.3c-0.1-5-0.1-10.2-0.7-15.4C401.5,30.5,434.7,31.7,467.6,33.1z M316.4,0.9c37.7,0.5,71.8,0.9,81.9,1.3
			c-0.9,8.8-2.4,17.7-3.8,26.3c-9.4-0.3-42-0.6-78.4-0.8c0.1-1.5,0.1-3.5,0.1-4.9c0-2.3-0.1-4.6-0.1-7c-0.1-2.3-0.1-4.6-0.1-6.9
			C315.9,6,316.1,3.4,316.4,0.9z M226.2-0.3c23.7,0.4,56.5,0.8,87.3,1.2c-0.3,2.5-0.4,5.1-0.4,8.1c0,2.3,0.1,4.6,0.1,6.9
			c0.1,2.3,0.1,4.6,0.1,6.9c0,1.4,0,3.4-0.1,4.9c-25.4-0.2-52.4-0.3-74.4-0.5l-0.8-0.1c0,0,0,0,0,0c-4.7,0-9.1-0.1-13.2-0.1
			C224.9,18,225.3,8.8,226.2-0.3z M133.7-0.7c44.6,0.1,78.6,0.1,81.7,0.2c2.5,0.1,5.2,0.1,7.9,0.2C222.5,8.8,222,18,222,27.1
			c-2.6,0-5.2,0-7.6-0.1c-3,0-38.3,0-84.1-0.1c0.3-3.2,0.9-6.5,1.5-9.7c0.9-5,1.9-10.2,1.9-15.5C133.8,1,133.7,0.1,133.7-0.7z
			 M35.8-0.9c32.2,0,65.7,0.1,95,0.1c0.1,0.9,0.1,1.7,0.1,2.6c0,5.1-0.9,10.2-1.9,15.1c-0.6,3.3-1.2,6.7-1.6,10
			c-10.8,0-22.2,0-33.9,0l-2.6-0.2c0,0.1,0,0.1,0,0.2c-18.2,0-36.9,0-55.3,0V-0.9z M-13.3,26.9c-17.9,0-34.1,0-47.4,0l1.5,0
			c-0.1-2.9-0.2-5.8-0.2-8.8c0-6.5,0.3-13,0.6-19.1c24,0,57,0.1,91.8,0.1v27.8c-15.4,0-30.4,0-44.4,0c0,0,0-0.1,0-0.1L-13.3,26.9z
			 M-60.2,59.4c0-0.5,0-1.1,0-1.6c16.5,0,37.5,0,60.5,0c0,4.4-0.2,8.8-0.4,13.1c-0.2,4.9-0.4,9.9-0.4,14.9c0,3.6,0.1,6.8,0.3,9.9
			c-9.9,0-19.4,0-28.3,0c0,0,0-0.1,0-0.1l-1.4,0.1c-9.9,0-19,0-27.2,0l1.1-0.1c-0.4-3-0.9-6.1-1.4-9.1C-58.8,77-60.2,68.4-60.2,59.4
			z M-67.2,127.1c0-0.8,0.1-1.7,0.1-2.5c0-5.3-0.6-10.7-1.3-16c-0.4-3.8-0.9-7.7-1.1-11.5c10.5,0,23.6,0,38.4,0
			c0.6,5.6,1.6,11.2,2.6,16.6c0.8,4.4,1.7,8.9,2.3,13.4C-41.9,127.1-55.9,127.1-67.2,127.1z M-51.6,168c1.4-13.3,1.9-26.4,2.3-39.1
			c14.7,0,32.2,0,51.3,0.1c-0.6,3-0.8,5.7-0.8,8.9c0,5.5,0.6,11.1,1.3,16.5c0.5,4.4,1,9.1,1.2,13.5l2.8-0.1
			c-0.2-4.5-0.7-9.2-1.2-13.7C4.7,148.9,4,143.3,4,137.9c0-3.3,0.3-5.9,0.8-8.9c19.8,0,41.4,0,63.5,0.1c-0.2,6.4-0.6,12.8-0.9,19.2
			c-0.4,6.7-0.7,13.4-0.9,20c-35.7,0-71.4-0.1-100.2-0.1c0,0,0-0.1,0-0.1l-1.8,0.1C-41.1,168.1-46.5,168.1-51.6,168z M-52.1,222.8
			c-0.5-5.4-1.7-10.6-2.8-15.7c-1.1-4.7-2.1-9.5-2.6-14.4c16.8,0,37.8,0,60.8-0.1v30H6v-30c22,0,45.6,0,69-0.1v30.2
			C29,222.8-18.7,222.8-52.1,222.8z M-10.2,224.6c24.1,0,51,0,77.6,0c-0.3,2.5-0.6,5-0.9,7.5c-0.7,5.5-1.5,11.2-1.8,16.9l2.8,0.1
			c0.3-5.6,1.1-11.2,1.8-16.7c0.3-2.6,0.7-5.2,1-7.7c25.6,0,50.8,0,72.9,0l0,0.2c0.5,8,0.9,16.4,1.8,24.3l2.8-0.2
			c-0.9-7.9-1.4-16.2-1.8-24.2l0,0c38.9,0,67.7,0,70.9,0.1c3.2,0,6.6,0,10.2,0.1c-0.2,4.1-0.6,8-0.9,12c-0.3,4.1-0.7,8.2-0.9,12.4
			c-1.9,0-3.9,0-5.7,0c-9,0-135.8,0-226.1,0c-0.8-4.3-1.4-8.5-2-12.7C-8.9,232.6-9.5,228.6-10.2,224.6z M33.6,264.2
			c-0.2,1.4-0.3,2.4-0.3,2.7c0,0.9,0.1,1.9,0.1,2.8c0,0.7,0.1,1.4,0.1,2.1c-25.7,0-50.4,0-71.2,0l2.2-0.2c-0.3-2.6-0.4-5-0.4-7.3
			l0-3.7c0-2.9-0.1-6.2-0.7-9.6c21,0,45.7,0,71.5,0C34.7,255.8,34,261.2,33.6,264.2z M119.5,271.8c-14.4,0-29.5,0-44.7,0l-2.6-0.2
			c0,0.1,0,0.1,0,0.2c-12,0-24.1,0-35.9,0c0-0.7,0-1.4-0.1-2.2c0-0.9-0.1-1.8-0.1-2.7c0-0.3,0.1-1.2,0.3-2.4
			c0.4-3.1,1.2-8.5,1.3-13.6c27.1,0,55.1,0,80.9,0c0.1,1.7,0.2,3.3,0.4,5c0.3,4.1,0.7,8.3,0.7,12.4
			C119.6,269.6,119.6,270.7,119.5,271.8z M122.3,271.8c0.1-1.1,0.1-2.3,0.1-3.4c0-4.2-0.3-8.5-0.7-12.6c-0.1-1.6-0.3-3.3-0.4-4.9
			c30.8,0,58,0,76,0c-1.5,9.9-2.5,20.7-2.5,20.8l1.4,0.1C178,271.9,151.7,271.8,122.3,271.8z M95.3,305.2
			c25.8,0.1,51.6,0.1,75.4,0.2c1.3,11.3,2.2,22.3,3.1,34.2c-22.9,0-50.4-0.1-78.8-0.1c0.1-1,0.1-2.6,0.1-5.1c0-2.9-0.1-5.9-0.1-8.8
			c-0.1-2.9-0.1-5.8-0.1-8.8C94.7,312.3,94.9,308.6,95.3,305.2z M93.5,341.1c0.3,0,0.5,0,0.7-0.1c17.6,0,34.8,0,50.9,0
			c0,0.9,0.1,1.8,0.1,2.7c0,4.8-0.4,9.7-0.8,14.4c-0.3,2.9-0.5,5.8-0.7,8.8c-51.7,0-116.3-0.1-165.5-0.1c-0.1-1-0.1-2.1-0.1-3.1
			c0-1.9,0.1-3.8,0.1-5.8c0.1-1.9,0.1-3.9,0.1-5.8c0-3.1-0.2-7-1.2-11.1c24.5,0,53,0,82,0c1.5,6,1.7,12.2,1.7,18.3
			c0,2.5,0.1,5,0.2,7.5l2.8-0.1c-0.1-2.5-0.2-4.9-0.2-7.4c-0.1-6-0.2-12.2-1.7-18.2C72.5,341.1,83,341.1,93.5,341.1L93.5,341.1z
			 M20.2,305c23,0.1,47.6,0.1,72.3,0.2c-0.4,3.4-0.5,7.2-0.5,11.6c0,2.9,0.1,5.9,0.1,8.8c0.1,2.9,0.1,5.8,0.1,8.8c0,1.5,0,3.3,0,4.4
			h-0.1l0,0.7c-23.4,0-47.3,0-70-0.1c-0.2-4.4-0.6-8.8-1-13.1c-0.5-5.6-1.1-11.3-1.1-17C20,307.9,20.1,306.4,20.2,305z M-52.7,339.3
			l1.4,0c-0.4-9.2-0.3-18.8-0.3-28.1l0-6.4c19.1,0.1,42.9,0.1,68.9,0.2c-0.1,1.4-0.2,2.9-0.2,4.3c0,5.8,0.6,11.6,1.1,17.2
			c0.4,4.2,0.8,8.6,1,12.9c-15,0-29.3,0-42.5-0.1c0,0,0-0.1,0-0.1l-0.5,0.1C-34.3,339.3-44,339.3-52.7,339.3z M-32.3,394.8l-1.4,0.2
			c-13,0-24.7,0-34.2,0l1.1-0.3c-1.5-4.8-1.9-9.7-2.3-14.5c-0.3-3.8-0.8-7.7-1.6-11.6c17.4,0.1,42.1,0.1,70.2,0.2
			c0,3.5-0.3,7-0.5,10.4c-0.3,3.9-0.5,7.9-0.5,11.9c0,1.3,0,2.6,0.1,4c-10.8,0-21.1,0-30.7,0C-32.2,394.9-32.3,394.8-32.3,394.8z
			 M-29.2,423.9l2-0.5c-2.1-5.9-2.8-12.1-3.5-18c-0.3-2.9-0.7-5.8-1.2-8.8c24.2,0,53.1,0,83,0c0.3,1.8,0.5,3.7,0.5,5.8
			c0,3.6-0.5,7.3-1,10.8c-0.5,3.5-1,7-1,10.6C21.3,423.9-6,423.9-29.2,423.9z M6,465.2c20.2,0,42,0,63.9,0c0.2,9.7,1.6,20.4,2.9,30
			c-22.7,0-45.3-0.1-66.3-0.1c0-3.8-0.1-7.7-0.3-11.5c-0.2-4.3-0.3-8.6-0.3-12.9C5.9,469,5.9,467.1,6,465.2z M-3.9,497.3
			c20,0.1,41.7,0.1,63.9,0.2c1.5,15.5,6.1,37.9,6.2,38.1c0,0.2,0,0.5-0.1,0.8c-25.5,0-50.6-0.1-73.2-0.1c0.3-4.7,0.9-9.4,1.4-14
			c0.9-7.6,1.8-15.4,1.8-23.1C-3.8,498.5-3.9,497.9-3.9,497.3z M-61,536.1l1.1-0.3c-4-9.4-5.3-19.4-6.6-29c-0.4-3.2-0.9-6.5-1.4-9.7
			c15.8,0.1,37.1,0.2,61.2,0.2c0,0.6,0,1.2,0,1.9c0,7.6-0.9,15.4-1.8,22.9c-0.5,4.7-1.1,9.5-1.4,14.2
			C-29.4,536.2-46.9,536.1-61,536.1z M-26.6,559c-7.7,0-15,0-21.8,0c-0.6-5.1-0.9-9.6-0.9-13.7c0-2.6,0.2-5.1,0.4-7.4
			c18.4,0.1,40.8,0.1,65.1,0.2c-0.5,3.3-1.2,6.6-1.9,9.8c-0.8,3.6-1.6,7.3-2.1,11.1c-12.6,0-24.7,0-36,0c0,0,0-0.1,0-0.1h-2.8
			C-26.6,558.9-26.6,559-26.6,559z M-23.9,590.8c-0.6-3-0.9-6.2-0.9-9.9c0-3.6,0.3-7.3,0.5-10.9c0.2-3.1,0.4-6.2,0.5-9.4
			c20.8,0,44.5-0.1,69-0.1c-0.1,1.8-0.1,3.7-0.1,5.5c0,3,0.1,6.1,0.2,9.2c0.1,3,0.2,6.1,0.2,9.1c0,2,0,4-0.1,6l2.8,0.1
			c0.1-2,0.1-4,0.1-6c0-3-0.1-6.1-0.2-9.2c-0.1-3-0.2-6.1-0.2-9.1c0-1.8,0-3.7,0.1-5.5c25.4,0,51.6-0.1,76.5-0.1
			c-1.1,7.5-2.1,16.3-2.1,24.9c0,1.6,0,3.2,0.1,4.8l2.8-0.1c-0.1-1.6-0.1-3.1-0.1-4.7c0-8.6,1.1-17.4,2.1-24.9
			c22.4,0,43.6,0,61.9-0.1c-0.1,4.7-0.3,9.4-0.7,14c-0.3,5.1-0.7,10.4-0.7,15.6h2.8c0-5.1,0.4-10.4,0.7-15.5
			c0.3-4.6,0.6-9.4,0.7-14.1c30.2,0,52.2-0.1,58.2-0.1c5.5,0,11.2-0.1,17.1-0.1c-1.7,7.5-2.3,15.2-2.8,22.7
			c-0.2,2.7-0.4,5.4-0.6,8.1c-6.7,0-13.4,0-19.9,0C226.3,590.9,70.7,590.8-23.9,590.8z"/>
	</g>
	<g class="st2">
		<g class="st3">
			<path class="st1" d="M587.1,501.9c-8.9-0.3-17.9-0.5-26.8-0.8c0.2-3.7,0.3-7.4,0.5-11c0.4-7.9,0.9-16.2,0.9-24.3
				c8.8,0.2,17.2,0.4,25.4,0.6V501.9z"/>
			<path class="st1" d="M458.3,171.5c-0.1,1.8-0.2,3.8-0.2,6c0,2.2,0.1,4.5,0.1,6.7c0,1.9,0.1,3.7,0.1,5.6c-2.9,0-5.8,0-8.6,0
				c-31.9,0-62.4,0.2-92.3,0.7c-0.2-3.1-0.3-6.1-0.3-9.2c0-3.5,0.1-7,0.4-10.4l-3-0.1c-0.2,3.5-0.4,7-0.4,10.5
				c0,3.1,0.1,6.2,0.3,9.3c-9.5,0.2-441.1,0.4-450.5,0.6v-21.4c18.5,0.7,129.5,0.3,245.9,0.6c132.4,0.3,271.9,1.3,291.5,1.3
				C447.1,171.5,452.7,171.5,458.3,171.5z"/>
			<path class="st1" d="M364.7,413c0,3.4,0.1,6.8,0.3,10.3c-1.5,0-3.1,0-4.6,0c-11.5,0-445,0.3-456.4,0.8v-27.5
				c12.6,0.2,447.4,0.5,460,0.9C364.6,402.7,364.6,408,364.7,413z"/>
			<path class="st1" d="M420.2,223.9c0.5-5.5,0.9-10.6,1.4-15.8c0.5-5.4,1-10.8,1.5-16.6c8.8,0,17.6-0.1,26.6-0.1
				c27.7,0,56.1,0.2,85.7,0.6c0.1,1.3,0.1,2.5,0.1,3.8c0,5.2-0.4,10.5-0.8,15.6c-0.3,4.4-0.6,8.9-0.7,13.3
				c-31.9-0.6-63.7-0.7-94.8-0.8C432.8,223.9,426.5,223.9,420.2,223.9z"/>
			<path class="st1" d="M351.7,289.6c0,4.6,0.1,9.2,0.3,13.9c-8.6-0.2-439.4-0.5-448-0.7v-29.2c8.6,0.2,439.4,0.4,448,0.6
				C351.8,279.3,351.7,284.4,351.7,289.6z"/>
			<path class="st1" d="M536.9,340.2c1.2-4.7,2-9.5,2.8-14.1c0.9-5.3,1.7-10.7,3.2-15.9l-2.9-0.3c-1.5,5.3-2.4,10.7-3.2,16
				c-0.8,4.7-1.6,9.6-2.8,14.4c-23.2,0.6-46.3,0.9-69.4,1c0.9-11.1,1.4-22.2,1.4-33.3c40,0.9,80.8,1.9,121.3,3.1v27.4
				C570.4,339.2,553.6,339.7,536.9,340.2z"/>
			<path class="st1" d="M499.1,276.4c-0.5,5.2-0.9,10.5-1.2,15.8c-0.3,5-0.7,9.9-1.2,14.8c-14.7-0.3-29.3-0.7-43.7-1
				c-11.4-0.3-22.8-0.5-34.3-0.8v-30c4.7,0.1,9.4,0.1,14,0.2c2,0,3.9,0.1,5.9,0.1c0,0,0,0,0,0l3,0.1c0,0,0,0,0-0.1c1,0,2,0,3,0
				c0,0.1,0,0.2,0,0.3l3-0.1c0-0.1,0-0.1,0-0.2C464.6,275.8,481.8,276,499.1,276.4z"/>
			<path class="st1" d="M587.1,276.8c-12.7-0.4-25.5-0.8-38.3-1.1c0-1.1-0.1-2.2-0.1-3.3c0-3,0.2-6.2,0.3-9.2c0.2-3,0.3-6.1,0.3-9.1
				h-3c0,3-0.2,6.1-0.3,9.1c-0.2,3-0.3,6.2-0.3,9.3c0,1.1,0.1,2.1,0.1,3.2c-33-0.8-65.9-1.3-98.4-1.8c0-0.2,0-0.3,0-0.5
				c0-4.6,0.8-9.4,1.6-14c0.4-2.1,0.7-4.2,1-6.2c23.9,0.6,48.2,1.1,72.3,1.1c23.5,0,45-0.5,64.9-1.5V276.8z"/>
			<path class="st1" d="M534.6,539.3c7.4,0,14.4,0,21.2,0c0,6.3,0,12.9-0.4,19.2c-32.6-0.5-63.8-0.8-94-0.8c0-1.9,0-3.7-0.1-5.6
				c-0.1-2.2-0.1-4.4-0.1-6.7c0-2.2,0.1-4.2,0.2-6c8.9,0,17.8,0,26.8-0.1C503.6,539.4,519.1,539.3,534.6,539.3z"/>
			<path class="st1" d="M439.1,593.7c31.2,0.1,62.9,0.3,94.8,0.8c0,0.2,0,0.4,0,0.6h3c0-0.2,0-0.4,0-0.5c8.8,0.2,17.5,0.3,26.3,0.6
				c-0.1,0.6-0.1,1.2-0.2,1.7h-86.2c0.2-0.9,0.3-1.7,0.5-2.6l-3-0.2c-0.1,0.9-0.3,1.8-0.5,2.7h-93.4v-3.5
				C400.1,593.5,419.7,593.6,439.1,593.7z"/>
			<path class="st1" d="M513.4,501.7c-1.4,8.9-2.1,18.4-2.1,28.3c0,2.6,0.1,5.1,0.2,7.7c-7.8,0-15.6,0-23.4,0.1
				c-15.5,0.1-31.1,0.1-46.6,0.1c-11.6,0-23.4,0-35.3-0.1c-0.5-6.6-1-12.8-1.5-19c-0.5-6.3-1-12.6-1.5-19.3l-3,0.1
				c0.5,6.7,1,13,1.5,19.3c0.5,6.2,1,12.4,1.5,18.9c-25.1-0.2-473.1-0.7-499.2-1.8v-39.1c27.2,1.1,176,0.4,315.8,1.1
				c121,0.6,235.4,2.6,258.6,3.1C490,501.2,501.7,501.5,513.4,501.7z"/>
			<path class="st1" d="M587.1,133.8c-8.9-0.3-17.9-0.5-26.8-0.8c0.2-3.7,0.3-7.4,0.5-11c0.4-7.9,0.9-16.2,0.9-24.3
				c8.8,0.2,17.2,0.4,25.4,0.6V133.8z"/>
			<path class="st1" d="M395.7,97.9c19.7,0,39.8-0.1,59.1-0.3c19.4-0.1,39.4-0.3,59.1-0.3c16.2,0,31,0.1,44.8,0.3
				c0,8.2-0.4,16.4-0.9,24.3c-0.2,3.6-0.4,7.3-0.5,11c-26.5-0.7-52.9-1.2-78.8-1.8c-5.6-0.1-11.1-0.2-16.7-0.3
				c-0.1-3.1-0.2-6.5-0.2-10.3c0-3.8,0.1-7.7,0.1-11.5c0.1-3.8,0.1-7.6,0.1-11.4h-3c0,3.8-0.1,7.5-0.1,11.3
				c-0.1,3.8-0.1,7.7-0.1,11.5c0,3.8,0.1,7.2,0.2,10.2c-30.1-0.6-60.5-1.3-91-2.3c-0.3-2.7-0.5-5.6-0.5-9.1c0-2,0-4,0.1-6
				c0-2,0.1-4,0.1-6c0-3.7-0.2-6.8-0.5-9.6C377.1,97.9,386.7,97.9,395.7,97.9z"/>
			<path class="st1" d="M395.7,465.9c19.7,0,39.8-0.1,59.1-0.3c19.4-0.1,39.4-0.3,59.1-0.3c16.2,0,31,0.1,44.8,0.3
				c0,8.2-0.4,16.4-0.9,24.3c-0.2,3.6-0.4,7.3-0.5,11c-26.5-0.7-52.9-1.2-78.8-1.8c-5.6-0.1-11.1-0.2-16.7-0.3
				c-0.1-3.1-0.2-6.5-0.2-10.3c0-3.8,0.1-7.7,0.1-11.5c0.1-3.8,0.1-7.6,0.1-11.4h-3c0,3.8-0.1,7.5-0.1,11.3
				c-0.1,3.8-0.1,7.7-0.1,11.5c0,3.8,0.1,7.2,0.2,10.2c-30.1-0.6-60.5-1.3-91-2.3c-0.3-2.7-0.5-5.6-0.5-9.1c0-2,0-4,0.1-6
				c0-2,0.1-4,0.1-6c0-3.7-0.2-6.8-0.5-9.6C377.1,465.9,386.7,465.9,395.7,465.9z"/>
			<path class="st1" d="M418.6,576c-0.5,5.2-0.9,10.3-1.4,15.8c-24.8-0.1-50-0.3-75.1-0.7c-0.5-5.2-1-10.1-1.5-15
				c-0.5-5-1-9.9-1.5-15.3l-3,0.1c0.5,5.4,1,10.4,1.5,15.3c0.5,4.8,1,9.6,1.4,14.8c-4.3-0.1-430.8-0.2-435.1-0.3v-30
				c30.6-0.7,483.9-1.1,516.1-1.3C419.6,565.3,419.1,570.7,418.6,576z"/>
			<path class="st1" d="M364.7,45c0,3.4,0.1,6.8,0.3,10.3c-1.5,0-3.1,0-4.6,0c-11.5,0-445,0.3-456.4,0.8V28.6
				c12.6,0.2,447.4,0.5,460,0.9C364.6,34.7,364.6,39.9,364.7,45z"/>
			<path class="st1" d="M573.9,38h-2.2c0,6.8,0.5,13.9,0.9,20.7c0.2,3.1,0.4,6.1,0.5,9.1c-34.1-0.7-68.6-3.6-102.2-6.4
				c0,0-0.1,0-0.1,0c-0.1-5.6-0.6-11.2-1-16.6c-0.3-3.8-0.7-7.7-0.9-11.6c8.6,0.4,17.2,0.7,25.8,1.1c0,0.1,0,0.1,0,0.2h3
				c0,0,0,0,0,0c20.5,0.9,40.9,1.9,61.1,2.8C563.8,37.5,568.8,37.7,573.9,38z"/>
			<path class="st1" d="M535.4,560.1c0.1,1.3,0.1,2.5,0.1,3.8c0,5.2-0.4,10.5-0.8,15.6c-0.3,4.4-0.6,8.9-0.7,13.3
				c-31.9-0.6-63.7-0.7-94.8-0.8c-6.3,0-12.6,0-18.9-0.1c0.5-5.5,0.9-10.6,1.4-15.8c0.5-5.4,1-10.8,1.5-16.6
				c8.8,0,17.6-0.1,26.6-0.1C477.4,559.5,505.8,559.7,535.4,560.1z"/>
			<path class="st1" d="M494.7,402.4c0,0.1,0,0.1,0,0.2h3c0,0,0,0,0,0c20.5,0.9,40.9,1.9,61.1,2.8c5,0.2,10.1,0.5,15.2,0.7h-2.2
				c0,6.8,0.5,13.9,0.9,20.7c0.2,3.1,0.4,6.1,0.5,9.1c-34.1-0.7-68.6-3.6-102.2-6.4c0,0-0.1,0-0.1,0c-0.1-5.6-0.6-11.2-1-16.6
				c-0.3-3.8-0.7-7.7-0.9-11.6C477.5,401.6,486.1,402,494.7,402.4z"/>
			<path class="st1" d="M558.7,171.4c10.1,0,19.4,0.1,28.4,0.2v19.5c-9.7-0.2-19.3-0.3-28.8-0.5
				C558.7,184.3,558.7,177.7,558.7,171.4z"/>
			<path class="st1" d="M558.7,539.4c10.1,0,19.4,0.1,28.4,0.2v19.5c-9.7-0.2-19.3-0.3-28.8-0.5
				C558.7,552.3,558.7,545.7,558.7,539.4z"/>
			<path class="st1" d="M587.1,7.9v28.9c-9.4-0.4-18.8-0.9-28.1-1.3c-20.3-0.9-40.7-1.9-61.3-2.8c0.1-4.9,0.7-9.8,1.2-14.6
				c0.5-4,1-8.2,1.2-12.3l-3-0.1c-0.2,4.1-0.7,8.2-1.2,12.3c-0.6,4.8-1.1,9.7-1.2,14.6c-32.7-1.5-65.6-2.8-98.7-3.9
				c1.4-8.6,2.8-17.5,3.7-26.3C451,4.4,502.2,5.7,552.5,7C564,7.3,575.6,7.6,587.1,7.9z"/>
			<path class="st1" d="M513.4,133.7c-1.4,8.9-2.1,18.4-2.1,28.3c0,2.6,0.1,5.1,0.2,7.7c-7.8,0-15.6,0-23.4,0.1
				c-15.5,0.1-31.1,0.1-46.6,0.1c-11.6,0-23.4,0-35.3-0.1c-0.5-6.6-1-12.8-1.5-19c-0.5-6.3-1-12.6-1.5-19.3l-3,0.1
				c0.5,6.7,1,13,1.5,19.3c0.5,6.2,1,12.4,1.5,18.9c-25.1-0.2-473.1-0.7-499.2-1.8v-39.1c65.4-1,262.3-0.7,409,0.9
				c80.2,0.8,147.7,3,165.4,3.3C490,133.2,501.7,133.4,513.4,133.7z"/>
			<path class="st1" d="M-96,425.8c11.4-0.5,444.9-0.8,456.4-0.8c21.6,0,43.6,1.1,66.3,2.7l-2,0.1c0.9,11.7,2.3,23,3.7,34.8l0.2,1.5
				c-10.9,0.1-21.9,0.1-32.8,0.1c-20.3,0-466.3-0.1-491.7-0.9V425.8z"/>
			<path class="st1" d="M374.1-9.2c-0.4,2.9-0.7,5.8-1.1,8.7C357.4-1.2-80.4-2-96-2.9v-21.8h471.7C375.5-19.6,374.8-14.4,374.1-9.2z
				"/>
			<path class="st1" d="M552.6,5.3c-10.1-0.3-20.3-0.5-30.4-0.8c0.7-4.8,1-9.5,1.3-14.1c0.3-5,0.6-10,1.4-15.2h62.2V6.2
				C575.6,5.9,564.1,5.6,552.6,5.3z"/>
			<path class="st1" d="M566,596.9c0.1-0.6,0.1-1.1,0.2-1.7c7,0.2,14,0.4,21,0.7v1H566z"/>
			<path class="st1" d="M-96,57.8c11.4-0.5,444.9-0.8,456.4-0.8c21.6,0,43.6,1.1,66.3,2.7l-2,0.1c0.9,11.7,2.3,23,3.7,34.8l0.2,1.5
				c-10.9,0.1-21.9,0.1-32.8,0.1C375.4,96.2-70.6,96-96,95.3V57.8z"/>
			<path class="st1" d="M-96,340.9c7.9,0.3,438.1,0.5,446.1,0.7c0,8.9,0.5,17.3,0.9,26.3c-8.3-0.4-438.7-0.8-447-1.2V340.9z"/>
			<path class="st1" d="M354,368.1c25.7,1.1,51.5,1.9,77.2,2.5c0.3-3.6,0.6-7.1,1-10.6c0.6-5.4,1.3-11,1.3-16.6h3
				c0,5.7-0.7,11.3-1.3,16.8c-0.4,3.4-0.8,7-1,10.5c39.7,1,79.4,1.7,118.4,2.6c11.5,0.3,23,0.6,34.5,0.9v-33.9
				c-3.5,0.1-7,0.3-10.5,0.4c0,1.1,0.1,2.2,0.1,3.3c0,4.3-0.3,8.7-0.6,13c-0.3,4.2-0.6,8.6-0.6,12.9c0,1.2,0,2.5,0.1,3.7l-3,0
				c-0.1-1.2-0.1-2.5-0.1-3.8c0-4.3,0.3-8.7,0.6-13c0.3-4.2,0.6-8.6,0.6-12.9c0-1,0-2.1-0.1-3.1c-12.4,0.4-24.8,0.8-37.3,1.1
				c0,0,0,0.1,0,0.1l-1.2-0.1c-29.2,0.7-58.3,1.1-87.2,1.1c-20.2,0-40.6-0.2-61-0.6l-2.1,0c0,0,0,0,0-0.1
				c-10.6-0.2-21.2-0.4-31.8-0.7C353.1,350.6,353.5,359.1,354,368.1z M502.1,371.7l0.2-1.2c1.4-9.2,2.9-18.7,5.3-27.9l2.9,0.3
				c-2.4,9.1-3.8,18.6-5.3,27.8l-0.2,1.2L502.1,371.7z"/>
			<path class="st1" d="M346.6,251c-1.4,5.4-1.5,10.9-1.7,16.2c0,1.7-0.1,3.3-0.2,5c-6.2-0.1-434.5-0.3-440.7-0.4v-20.8
				c3.4,0,429.1,0,432.6,0C339.9,250.9,343.2,251,346.6,251z"/>
			<path class="st1" d="M576.1,435.9c-0.2-3.1-0.3-6.1-0.5-9.2c-0.4-6.8-0.9-13.8-0.9-20.6c4.2,0.2,8.3,0.4,12.5,0.6V436
				C583.4,436,579.8,435.9,576.1,435.9z"/>
			<path class="st1" d="M399.6,371.4c10.5,0.3,21,0.6,31.5,0.9c0,0.1,0,0.2,0,0.3l3,0.1c0-0.1,0-0.2,0-0.3c21.1,0.5,42.1,1,63.1,1.4
				c-0.2,4.1-0.7,8.2-1.2,12.2c-0.6,4.8-1.1,9.7-1.2,14.6c-32.7-1.5-65.6-2.8-98.7-3.9C397.4,388.4,398.7,379.9,399.6,371.4z"/>
			<path class="st1" d="M587.1,226.1c-16.7-0.6-33.4-1-50.1-1.3c0.1-4.4,0.4-8.9,0.7-13.3c0.4-5.2,0.8-10.5,0.8-15.7
				c0-1.3,0-2.5-0.1-3.8c15.9,0.2,32.1,0.5,48.7,0.8V226.1z"/>
			<path class="st1" d="M377.4,249.6c-13.6-0.3-27.3-0.4-40.8-0.4c-3.5,0-429.2,0-432.6,0v-24.7c17.1,0.4,456.4,0.6,473.4,0.8V249.6
				z"/>
			<path class="st1" d="M587.1,251c-7.5,0.4-15.3,0.7-23.2,0.9c0.8-4.9,1.1-9.9,1.5-14.8c0.2-3.3,0.5-6.6,0.8-9.9
				c7,0.2,14,0.4,21,0.7V251z"/>
		</g>
		<g class="st4">
			<path class="st1" d="M251.1,79.8c0.4-7.4,0.8-15.1,2-22.5c30.2-0.1,64.9-0.2,86.7-0.3c-0.5,6.5-1.3,12.9-2.2,19.2
				c-0.9,6.5-1.8,13.2-2.3,19.9c-27.1-0.1-58.6-0.1-85.3-0.3C250.5,90.5,250.8,85,251.1,79.8z"/>
			<path class="st1" d="M185.6,127.4c0.3-1.4,0.4-4.2,0.4-9.6c0-2,0-4-0.1-6c0-2-0.1-4-0.1-6c0-3.3,0.2-6,0.4-8.5
				c28.2,0,48.5,0,53.8,0.1c10.1,0,21.2,0.1,32.4,0.1c-0.1,5.7-0.6,11.3-1.2,16.8c-0.4,4.4-0.9,8.9-1.1,13.4
				c-11-0.1-21.7-0.1-31.6-0.2C233.5,127.5,213.5,127.4,185.6,127.4z"/>
			<path class="st1" d="M130.5-0.8c0.1,0.9,0.1,1.7,0.1,2.6c0,5.1-0.9,10.2-1.9,15.1c-0.6,3.3-1.2,6.7-1.6,10c-10.8,0-22.1,0-33.7,0
				l-2.6-0.2c0,0.1,0,0.1,0,0.2c-18.1,0-36.8,0-55.1,0V-0.9C67.9-0.8,101.3-0.8,130.5-0.8z"/>
			<path class="st1" d="M237.3,27.2C237.3,27.2,237.3,27.2,237.3,27.2c-4.6,0-9.1,0-13.2,0c0-9.1,0.5-18.3,1.3-27.5
				c23.6,0.4,56.3,0.8,87,1.2c-0.3,2.5-0.4,5.1-0.4,8.1c0,2.3,0.1,4.6,0.1,6.9c0.1,2.3,0.1,4.6,0.1,6.9c0,1.4,0,3.4-0.1,4.9
				c-25.3-0.2-52.1-0.3-74.1-0.5L237.3,27.2z"/>
			<path class="st1" d="M250.5,55.4c0,0,0,0.1,0,0.1c-5,0-9.9,0-14.5,0.1c0.5-4.6,1.3-9.3,2-13.9c0.7-4.2,1.4-8.6,1.9-12.9
				c16.2,0.1,34.7,0.1,52.5,0.2c0,0.7,0.1,1.4,0.1,2.1c0,4.7-0.5,9.7-1,14.4c-0.3,3.3-0.7,6.6-0.9,9.9c-13,0-26.4,0.1-38.9,0.2
				L250.5,55.4z"/>
			<path class="st1" d="M278.2,303.2c-8.5,0-30.9-0.1-60.7-0.1c-0.1-1.9-0.1-3.8-0.1-5.6c0-4.1,0.2-8.3,0.3-12.4
				c0.1-3.8,0.3-7.6,0.3-11.4c1.7,0,2.9,0,3.5,0c22.8,0.1,55.9,0.1,83.1,0.2v29.4C296.2,303.2,287.2,303.2,278.2,303.2z"/>
			<path class="st1" d="M228.3,236.9c0.3-4,0.7-8,0.9-12.1c22.1,0.1,51,0.2,77.6,0.3c-0.5,7.9-1.4,16.1-4.3,24.1
				c-22.8,0-52.5,0-75.1,0C227.7,245,228,241,228.3,236.9z"/>
			<path class="st1" d="M215.1,339.6c0-0.1,0-0.1,0-0.2l-2.8,0.2c-9.7,0-22.1,0-36.3-0.1c-0.9-12-1.8-22.9-3-34.2
				c25.4,0.1,48.5,0.1,66.8,0.2c0.9,4.1,1.4,8.5,1.4,13.9c0,3.6-0.2,7.2-0.4,10.7c-0.2,3.1-0.3,6.4-0.3,9.6c-2.4,0-4.7,0-6.9-0.1
				C231.2,339.7,224.7,339.7,215.1,339.6z"/>
			<path class="st1" d="M229.7,190.9c-4.3,0-23.5,0-50.7,0c1.7-6.9,2.6-13.9,3.5-20.7c26.1,0.1,44.2,0.1,47.8,0.2
				c9.6,0.1,20.3,0.3,31.7,0.4c0.2,1.6,0.4,3.2,0.4,5.1c0,2.7-0.3,5.5-0.5,8.2c-0.2,2.2-0.4,4.5-0.4,6.8c-5.6,0-11.2,0-16.5,0
				c0,0,0-0.1,0-0.1l-2.8,0.1c0,0,0,0,0,0C237.7,190.9,233.6,190.9,229.7,190.9z"/>
			<path class="st1" d="M205.2,55.8c0-6.1,0.4-12.4,0.9-18.4c0.2-2.9,0.4-5.8,0.5-8.7c3.9,0,6.4,0,7.1,0c6.6,0,14.6,0.1,23.3,0.1
				c-0.5,4.2-1.2,8.5-1.9,12.6c-0.8,4.7-1.6,9.5-2.1,14.2c-6,0-11.6,0.1-16.5,0.1C215.4,55.8,211.4,55.8,205.2,55.8z"/>
			<path class="st1" d="M142.6,95.6l2.8-0.2c-1.4-12.8-1.4-25.5-1.4-37.8c39.2,0,68.2-0.1,71.5-0.1c9.6-0.1,21.6-0.1,34.6-0.2
				c-1.2,7.4-1.6,15-1.9,22.3c-0.3,5.3-0.5,10.7-1.1,16.1l0.7,0.1c-2.4,0-4.7,0-7,0c-10.7-0.1-90.8-0.1-170.2-0.2
				c-0.5-7.3-0.8-14.7-0.8-22.6c0-4.7,0.1-9.8,0.3-15.3c24.9,0,49.4,0,71.1,0C141.2,69.9,141.3,82.7,142.6,95.6z"/>
			<path class="st1" d="M201.8-17c0.3,4.7,0.7,9.6,1.5,14.6c-18.5,0-56-0.1-98.3-0.1c0.4-7.3,0.7-14.8,0.8-22.1h95.4
				C201.4-22.2,201.7-19.6,201.8-17z"/>
			<path class="st1" d="M52.2,97.2c-0.1,1.4-0.3,3.5-0.4,7.1c-0.4,7.9-1,19.7-1.4,22.9l0,0c-26.1,0-51.4-0.1-73.5-0.1
				c-0.6-4.7-1.5-9.3-2.4-13.8c-1-5.3-2-10.7-2.6-16.2C-4.3,97.2,23.6,97.2,52.2,97.2z"/>
			<path class="st1" d="M145.1,157.9c0-3.5,0.1-6.9,0.1-10.4c0-6.1-0.1-11.7-0.5-18.4c31.8,0,62,0,87.2,0.1
				c-1.4,7.3-1.8,14.9-2.1,22.2c-0.3,5.6-0.6,11.4-1.3,17.2c-6.2,0-23.8-0.1-47.9-0.1l-0.7-0.1l0,0.1c-10.5,0-22.3,0-34.8-0.1
				C145,164.8,145,161.4,145.1,157.9z"/>
			<path class="st1" d="M176.1,190.9c-22.1,0-49.1,0-77.4,0c0.2-2.9,0.6-6,0.9-8.9c0.5-3.9,1-8,1-11.9c29.1,0,56.7,0.1,78.9,0.1
				C178.8,177.1,177.8,184.1,176.1,190.9z"/>
			<path class="st1" d="M157,192.5c-1.4,4.9-1.6,9.9-1.9,14.8c-0.2,5.1-0.5,10.4-2.1,15.5l0.1,0c-22.2,0-48.5,0-75.5,0v-30.2
				C105.7,192.6,133.3,192.5,157,192.5z"/>
			<path class="st1" d="M206.1,423.7c0-0.9-0.1-2-0.1-2.5c0-3.6,1-7.3,1.9-10.8c0.9-3.6,1.9-7.4,1.9-11.2c0-0.8-0.1-1.6-0.2-2.3
				c16.7,0,28.4,0,32.4,0c16.5,0.1,35.3,0.1,53.1,0.2c0,0.8-0.1,1.7-0.1,2.5c0,2.3,0.1,4.6,0.1,7c0.1,2.3,0.1,4.7,0.1,7
				c0,3.3-0.1,6.9-0.4,9.9c-16.8,0.1-34.7,0.1-50.6,0.2C239.7,423.6,225.8,423.7,206.1,423.7z"/>
			<path class="st1" d="M36.2,269.7c0-0.9-0.1-1.8-0.1-2.7c0-0.3,0.1-1.2,0.3-2.4c0.4-3.1,1.2-8.5,1.3-13.6c27,0,54.9,0,80.5,0
				c0.1,1.7,0.2,3.3,0.4,5c0.3,4.1,0.7,8.3,0.7,12.4c0,1.2,0,2.3-0.1,3.4c-14.3,0-29.3,0-44.5,0l-2.6-0.2c0,0.1,0,0.1,0,0.2
				c-12,0-24,0-35.8,0C36.2,271.1,36.2,270.4,36.2,269.7z"/>
			<path class="st1" d="M34.8,250.9c-0.1,4.9-0.8,10.3-1.3,13.3c-0.2,1.4-0.3,2.4-0.3,2.7c0,0.9,0.1,1.9,0.1,2.8
				c0,0.7,0.1,1.4,0.1,2.1c-25.6,0-50.2,0-70.9,0l2.2-0.2c-0.3-2.6-0.4-5-0.4-7.3l0-3.7c0-2.9-0.1-6.2-0.7-9.6
				C-15.5,250.9,9.2,250.9,34.8,250.9z"/>
			<path class="st1" d="M17.2,309.3c0,5.8,0.6,11.6,1.1,17.2c0.4,4.2,0.8,8.6,1,12.9c-14.9,0-29.2,0-42.4-0.1c0,0,0-0.1,0-0.1
				l-0.5,0.1c-10.4,0-20.1,0-28.7,0l1.4,0c-0.4-9.2-0.3-18.8-0.3-28.1l0-6.4c19,0.1,42.7,0.1,68.7,0.2
				C17.3,306.4,17.2,307.9,17.2,309.3z"/>
			<path class="st1" d="M-70.3,368.6c17.3,0.1,42,0.1,69.9,0.2c0,3.5-0.3,7-0.5,10.4c-0.3,3.9-0.5,7.9-0.5,11.9c0,1.3,0,2.6,0.1,4
				c-10.8,0-21.1,0-30.6,0c0-0.1,0-0.1,0-0.2l-1.4,0.2c-13,0-24.6,0-34.1,0l1.1-0.3c-1.5-4.8-1.9-9.7-2.3-14.5
				C-69.1,376.4-69.5,372.5-70.3,368.6z"/>
			<path class="st1" d="M3.3,192.7v30h2.8v-30c21.9,0,45.4,0,68.7-0.1v30.2c-45.8,0-93.4,0-126.6,0c-0.5-5.4-1.7-10.6-2.8-15.7
				c-1.1-4.7-2.1-9.5-2.6-14.4C-40.5,192.7-19.6,192.7,3.3,192.7z"/>
			<path class="st1" d="M237.3,367.1c-0.1,0-0.2,0-0.4,0c-2.3,0-4.6,0-6.8,0c-2,0-7,0-14.4,0c-0.1-2.5-0.2-5-0.2-7.5l0-7.1
				c0-3.6-0.1-7.4-0.4-11.4c9.6,0,16.2,0,18.7,0c14,0.1,30.1,0.1,45.8,0.2c0.3,2.3,0.5,4.6,0.5,7.1c0,6.7-1.1,13.3-2.2,18.9
				c-13.8-0.1-27.8-0.2-40.3-0.2C237.6,367.1,237.4,367.1,237.3,367.1z"/>
			<path class="st1" d="M0.1,70.8c-0.2,4.9-0.4,9.9-0.4,14.9c0,3.6,0.1,6.8,0.3,9.9c-9.9,0-19.3,0-28.2,0c0,0,0-0.1,0-0.1l-1.4,0.1
				c-9.9,0-18.9,0-27.1,0l1.1-0.1c-0.4-3-0.9-6.1-1.4-9.1c-1.5-9.2-2.9-17.9-2.9-26.9c0-0.5,0-1.1,0-1.6c16.4,0,37.3,0,60.2,0
				C0.4,62.1,0.3,66.5,0.1,70.8z"/>
			<path class="st1" d="M9.7-12.5c0,3.2,0.1,6.5,0.3,9.8c-4.5,0-8.8,0-13.2,0c0.2-3.7,0.7-7.6,1.1-11.5c0.4-3.5,0.8-7.1,1.1-10.6
				H9.2C9.5-20.6,9.6-16.5,9.7-12.5z"/>
			<path class="st1" d="M-48.9,128.9c14.7,0,32,0,51.1,0.1c-0.6,3-0.8,5.7-0.8,8.9c0,5.5,0.6,11.1,1.3,16.5c0.5,4.4,1,9.1,1.2,13.5
				l2.8-0.1c-0.2-4.5-0.7-9.2-1.2-13.7c-0.6-5.4-1.3-10.9-1.3-16.3c0-3.3,0.3-5.9,0.8-8.9c19.7,0,41.2,0,63.2,0.1
				c-0.2,6.4-0.6,12.8-0.9,19.2c-0.4,6.7-0.7,13.4-0.9,20c-35.6,0-71.1-0.1-99.8-0.1c0,0,0-0.1,0-0.1l-1.8,0.1c-5.6,0-11,0-16,0
				C-49.9,154.7-49.4,141.6-48.9,128.9z"/>
			<path class="st1" d="M248.6,495.6c-3.3,0-10.7,0-21.3-0.1c-0.1-1.2-0.2-2.3-0.2-3.5c0-5.3,0.9-10.7,1.9-15.9
				c0.6-3.5,1.2-7.1,1.6-10.7c8.1,0,13.8,0,16.5,0c19.6,0.1,41.8,0.1,61.6,0.2c-0.2,3.7-0.6,7.5-0.9,11.1c-0.6,5.4-1.1,11-1.1,16.5
				c0,0.9,0,1.8,0.1,2.7C287.9,495.8,267.1,495.7,248.6,495.6z"/>
			<path class="st1" d="M212.4,341.2c0.3,3.9,0.4,7.8,0.4,11.4l0,7.1c0,2.5,0,5,0.2,7.5c-15.3,0-39.1-0.1-67-0.1
				c0.2-2.9,0.4-5.7,0.6-8.6c0.4-4.8,0.8-9.7,0.8-14.6c0-0.9,0-1.8-0.1-2.7C173.7,341.1,196.6,341.1,212.4,341.2z"/>
			<path class="st1" d="M-26.9,423.4c-2-5.9-2.8-12.1-3.5-18c-0.3-2.9-0.7-5.8-1.2-8.8c24.1,0,52.9,0,82.6,0
				c0.3,1.8,0.5,3.7,0.5,5.8c0,3.6-0.5,7.3-1,10.8c-0.5,3.5-1,7-1,10.6c-28.1,0-55.3,0.1-78.4,0.1L-26.9,423.4z"/>
			<path class="st1" d="M317.9,387.6c0.9-4,1.8-8.1,1.8-12.3c0-1.8-0.2-3.4-0.6-5c3.4,0,6.7,0.1,10,0.1c0,0.5,0,1,0,1.5
				c0,1,0.1,2,0.1,3.1c0,1-0.2,2.9-0.5,5.3c-0.4,4.3-1.1,10.1-1.1,15.6c-3.7,0-7.4-0.1-11.2-0.1
				C316.7,393.1,317.3,390.3,317.9,387.6z"/>
			<path class="st1" d="M221.3,558.9l0.1-1.4c0.4-6.2,0.8-12.6,0.8-18.9c14.5,0,24.6,0.1,28.3,0.1c15,0.2,31.6,0.3,48.6,0.4
				c0.2,1,0.3,2,0.3,3.1c0,3-0.6,6.2-1.2,9.2c-0.4,2.4-0.9,4.9-1.1,7.3c-8.9,0-18.2,0-27.4,0.1c0,0,0,0,0-0.1l-2.8-0.5
				c-0.1,0.2-0.1,0.4-0.1,0.6c-6.9,0-13.6,0-20.1,0.1C243,558.9,234,558.9,221.3,558.9z"/>
			<path class="st1" d="M-51.8,545.4c0,4.1,0.3,8.6,0.9,13.7c-26.8,0-44.3,0-45.1,0.1v-21.4c2.4,0.1,19.3,0.2,44.6,0.3
				C-51.6,540.3-51.8,542.8-51.8,545.4z"/>
			<path class="st1" d="M-61.1,467.6c0,3.4-0.2,6.9-0.4,10.2c-0.2,3.4-0.4,6.8-0.4,10.3c0,2.4,0.1,4.6,0.3,6.6l2.8-0.2
				c-0.2-2-0.3-4.1-0.3-6.4c0-3.4,0.2-6.9,0.4-10.2c0.2-3.4,0.4-6.9,0.4-10.4c0-0.8,0-1.6-0.1-2.5c16.8,0,38.1,0,61.6,0.1
				c-0.1,1.9-0.1,3.7-0.1,5.6c0,4.3,0.2,8.6,0.3,12.9c0.1,3.8,0.2,7.6,0.3,11.5c-55.1-0.1-98-0.1-99.8-0.2v-29.9
				c0.9,0,14.1,0.1,34.9,0.1C-61.1,466-61.1,466.8-61.1,467.6z"/>
			<path class="st1" d="M-24.3,352.1c0,1.9-0.1,3.9-0.1,5.8c-0.1,1.9-0.1,3.9-0.1,5.8c0,1.1,0,2.1,0.1,3.1
				c-41.1,0-70.8-0.1-71.5-0.1v-25.8c0.8,0,29.9,0.1,70.5,0.1C-24.4,345.1-24.3,349-24.3,352.1z"/>
			<path class="st1" d="M-26.8,569.9c-0.3,3.6-0.5,7.3-0.5,11c0,3.6,0.3,6.9,0.9,9.9c-40.4,0-69,0-69.5,0v-30
				c2.6-0.1,30.6-0.1,69.6-0.2C-26.4,563.8-26.6,566.9-26.8,569.9z"/>
			<path class="st1" d="M-71.5,380.4c0.4,4.7,0.9,9.7,2.3,14.5c-15.7,0-25.7,0-26.8-0.1v-26.4c0.9,0,9.3,0.1,22.8,0.1
				C-72.3,372.5-71.9,376.5-71.5,380.4z"/>
			<path class="st1" d="M-16,463.2h2.8c0-12.4,0-25.1,0.9-37.5c17,0,35.5,0,54.6-0.1c0,1.8-0.1,3.6-0.1,5.4c0,9.5,0.6,19.6,2,32.6
				c-72.3-0.1-136.8-0.2-140.3-0.3v-37.5c1.3-0.1,35.1-0.1,80.9-0.2C-16,438.1-16,450.8-16,463.2z"/>
			<path class="st1" d="M-68.9,507c1.3,9.6,2.6,19.6,6.6,29.1c-19.5-0.1-32.1-0.1-33.6-0.2v-39.1c1.9,0.1,11.2,0.2,25.6,0.2
				C-69.8,500.3-69.3,503.7-68.9,507z"/>
			<path class="st1" d="M-13.6,40c0.1,5.2,0.1,10.5,0.9,15.9C-59.6,56-95.2,56-96,56V28.6c0.8,0,35.8,0,82,0
				C-13.7,32.5-13.6,36.3-13.6,40z"/>
			<path class="st1" d="M-70.8,108.8c0.6,5.2,1.2,10.5,1.2,15.7c0,0.8,0,1.7-0.1,2.5c-15.8,0-25.7-0.1-26.4-0.1V97.1
				c0.7,0,9.6,0,24.1,0.1C-71.7,101-71.3,105-70.8,108.8z"/>
			<path class="st1" d="M-61.8,18c0,3,0.1,5.9,0.2,8.8c-20.5,0-33.6,0-34.4,0v-28c0.8,0,14.1,0.1,34.7,0.1
				C-61.5,5-61.8,11.6-61.8,18z"/>
			<path class="st1" d="M-36.1,171.6c0,1.9-0.1,3.8-0.1,5.7c-0.1,1.9-0.1,3.9-0.1,5.8c0,3.1,0.2,5.6,0.6,8c-35.1,0-59.4,0-60.2,0.1
				v-21.4c2.1,0.1,25.9,0.2,59.8,0.2C-36.1,170.4-36.1,171-36.1,171.6z"/>
			<path class="st1" d="M3.6,282c-0.4,5.3-0.8,10.8-0.8,16.2c0,1.4,0,2.8,0.1,4.2l2.8-0.1c-0.1-1.4-0.1-2.8-0.1-4.2
				c0-5.3,0.4-10.8,0.8-16.1c0.2-2.9,0.4-5.8,0.6-8.6c20.7,0,42.9,0,64.9,0c-0.3,4-0.4,8.3-0.4,13.7c0,2.6,0,5.2,0.1,7.8
				c0,2.6,0.1,5.2,0.1,7.8h2.8c0-2.6,0-5.2-0.1-7.8c0-2.6-0.1-5.2-0.1-7.8c0-5.5,0.1-9.8,0.4-13.7c27.3,0,54.2,0,77.3,0
				c0,1-0.1,2-0.1,3c0,2.9,0.1,5.7,0.2,8.5c0.1,2.8,0.2,5.6,0.2,8.4c0,3.6-0.2,6.6-0.5,9.5c-108.2-0.1-245-0.2-247.8-0.3v-29.2
				c0.8,0,45,0,100.2,0.1C4,276.4,3.8,279.2,3.6,282z"/>
			<path class="st1" d="M-64.8,227.8c0,4.6,1.1,9.3,2.1,13.8c0.6,2.4,1.1,4.8,1.5,7.1l2.8-0.3c-0.4-2.4-1-4.9-1.5-7.3
				c-1-4.4-2.1-8.9-2.1-13.3c0-1.1,0.1-2.2,0.3-3.2c13.5,0,30.3,0,48.8,0c0.8,4.1,1.4,8.2,1.9,12.2c0.5,4,1.1,8.2,1.9,12.4
				c-9.7,0-19,0-27.6,0c0,0,0,0,0,0l-0.2,0c-34.8,0-58.9,0-59.1,0v-24.7c0.6,0,12.6,0,31.5,0C-64.7,225.6-64.8,226.6-64.8,227.8z"/>
			<path class="st1" d="M126.5,423.8l0.1-2.3c0.2-4.3,0.5-9.1,0.5-12.9c0-4.4-0.3-8.3-0.8-11.9c31,0,59.4,0,80.5,0.1
				c0.1,0.8,0.2,1.5,0.2,2.3c0,3.6-0.9,7-1.9,10.7c-1,3.7-1.9,7.4-1.9,11.3c0,0.5,0,1.6,0.1,2.5
				C182.4,423.7,155.6,423.7,126.5,423.8z"/>
			<path class="st1" d="M146.4,465.3c0,3.2-0.1,6.5-0.3,9.8c-0.2,3.5-0.3,7.1-0.3,10.7c0,3.6,0.2,6.7,0.5,9.6
				c-22.4,0-46.6-0.1-70.9-0.1c-1.3-9.6-2.7-20.4-2.9-30C97.8,465.3,123.1,465.3,146.4,465.3z"/>
			<path class="st1" d="M79.8,380.2l0,2.5c0,4.1,0.1,8.2,0.7,12.4c-27.9,0-56.1,0-81.5-0.1l2.4-0.1c-0.1-1.3-0.1-2.6-0.1-3.9
				c0-3.9,0.3-7.9,0.5-11.7c0.2-3.4,0.4-7,0.5-10.5c24.2,0,50.7,0.1,76.9,0.1C79.7,372.7,79.8,376.4,79.8,380.2z"/>
			<path class="st1" d="M59.9,497.4c1.5,15.5,6.1,37.9,6.2,38.1c0,0.2,0,0.5-0.1,0.8c-25.4,0-50.4-0.1-72.9-0.1
				c0.3-4.7,0.9-9.4,1.4-14c0.9-7.6,1.8-15.4,1.8-23.1c0-0.6,0-1.2,0-1.9C16.2,497.3,37.9,497.4,59.9,497.4z"/>
			<path class="st1" d="M-59.5,535.8c-4-9.4-5.3-19.4-6.6-29c-0.4-3.2-0.9-6.5-1.4-9.7c15.8,0.1,37,0.2,61,0.2c0,0.6,0,1.2,0,1.9
				c0,7.6-0.9,15.4-1.8,22.9c-0.5,4.7-1.1,9.5-1.4,14.2c-19.4,0-36.9-0.1-51-0.1L-59.5,535.8z"/>
			<path class="st1" d="M89.1,543c0,2.1,0.1,4.3,0.2,6.4c0.1,2.1,0.2,4.2,0.2,6.3c0,1.1,0,2.1-0.1,3.2l2.8,0.1c-26,0-52.5,0-77.1,0
				c0.5-3.6,1.3-7.2,2-10.6c0.7-3.3,1.5-6.8,2-10.2c22.5,0.1,46.5,0.1,70.2,0.2C89.2,539.7,89.1,541.3,89.1,543z"/>
			<path class="st1" d="M194.9,463.8c0.1-2.1,0.1-4.2,0.2-6.3c0.3-10.8,0.7-21.9,2.4-32c24.1,0,41.3-0.1,46.4-0.1
				c7.5,0,15.4-0.1,23.4-0.1c0,12.6,0,25.6-1.8,38.7c-6.5,0-12.9-0.1-19-0.1C241.1,463.8,221.8,463.8,194.9,463.8z"/>
			<path class="st1" d="M130,536.5c0.4-4.7,1.2-9.4,2-13.9c1.1-6,2.3-12.3,2.3-18.5c0-2.3-0.2-4.4-0.5-6.4
				c18.4,0.1,35.8,0.1,51.3,0.2c-0.1,0.9-0.1,2-0.1,3.5c0,4.6-0.2,9.3-0.4,13.8c-0.2,4.5-0.4,9.2-0.4,13.9c0,2.7,0.1,5.2,0.2,7.6
				C168,536.5,149.5,536.5,130,536.5z"/>
			<path class="st1" d="M173.2,339.6c-22.9,0-50.2-0.1-78.5-0.1c0.1-1,0.1-2.6,0.1-5.1c0-2.9-0.1-5.9-0.1-8.8
				c-0.1-2.9-0.1-5.8-0.1-8.8c0-4.5,0.2-8.2,0.5-11.6c25.7,0.1,51.4,0.1,75.1,0.2C171.4,316.7,172.3,327.6,173.2,339.6z"/>
			<path class="st1" d="M122.1,268.4c0-4.2-0.3-8.5-0.7-12.6c-0.1-1.6-0.3-3.3-0.4-4.9c30.7,0,57.8,0,75.6,0
				c-1.5,9.9-2.5,20.7-2.5,20.8l1.4,0.1c-18.2,0-44.4,0-73.7,0C122,270.7,122.1,269.6,122.1,268.4z"/>
			<path class="st1" d="M90.7,28.7c-0.2,1.7-0.3,3.3-0.5,5c-0.8,7.3-1.6,14.9-1.6,22.2c-33.1,0-68,0-98.4,0.1
				c-0.7-5.4-0.8-10.7-0.9-16c0-3.7-0.1-7.5-0.4-11.4C20.3,28.6,56.5,28.7,90.7,28.7z"/>
		</g>
	</g>
	<path class="st1" d="M502.4,371.7l3,0.2l0.2-1.2c1.4-9.1,2.9-18.6,5.2-27.8l-2.9-0.3c-2.4,9.2-3.8,18.7-5.3,27.9L502.4,371.7z"/>
</g>
<path class="st5" d="M621.2,606.7H-59.9V133.5c0,0,21.4,330.3,340.5,330.3s340.6-330.3,340.6-330.3V606.7z"/>
<circle class="st6" cx="239.5" cy="203.3" r="183.5"/>
<g>
	<g>
		<path class="st7" d="M223.6-13.5c-1,0-1.9-0.4-2.6-1c-0.7-0.7-1-1.6-1-2.6c0-0.9,0.4-1.9,1-2.6c1.3-1.3,3.8-1.3,5.1,0
			c0.6,0.7,1,1.6,1,2.6c0,0.9-0.4,1.9-1,2.6C225.5-13.9,224.6-13.5,223.6-13.5z"/>
	</g>
	<g>
		<path class="st7" d="M220,104.1c0-2,1.6-3.6,3.6-3.6l0,0c2,0,3.6,1.6,3.6,3.6l0,0c0,2-1.6,3.6-3.6,3.6l0,0
			C221.7,107.7,220,106.1,220,104.1z M220,83.9c0-2,1.6-3.6,3.6-3.6l0,0c2,0,3.6,1.6,3.6,3.6l0,0c0,2-1.6,3.6-3.6,3.6l0,0
			C221.7,87.6,220,85.9,220,83.9z M220,63.7c0-2,1.6-3.6,3.6-3.6l0,0c2,0,3.6,1.6,3.6,3.6l0,0c0,2-1.6,3.6-3.6,3.6l0,0
			C221.7,67.4,220,65.7,220,63.7z M220,43.5c0-2,1.6-3.6,3.6-3.6l0,0c2,0,3.6,1.6,3.6,3.6l0,0c0,2-1.6,3.6-3.6,3.6l0,0
			C221.6,47.1,220,45.5,220,43.5z M220,23.3c0-2,1.6-3.6,3.6-3.6l0,0c2,0,3.6,1.6,3.6,3.6l0,0c0,2-1.6,3.6-3.6,3.6l0,0
			C221.6,26.9,220,25.3,220,23.3z M220,3.1c0-2,1.6-3.6,3.6-3.6l0,0c2,0,3.6,1.6,3.6,3.6l0,0c0,2-1.6,3.6-3.6,3.6l0,0
			C221.6,6.7,220,5.1,220,3.1z"/>
	</g>
	<g>
		<path class="st7" d="M223.6,127.9c-0.9,0-1.9-0.4-2.6-1c-0.7-0.7-1-1.6-1-2.6c0-0.9,0.4-1.9,1-2.5c1.3-1.4,3.8-1.4,5.1,0
			c0.6,0.7,1,1.6,1,2.5c0,1-0.4,1.9-1,2.6C225.5,127.6,224.6,127.9,223.6,127.9z"/>
	</g>
	<g>
		<g>
			<polygon class="st7" points="212.8,121.2 223.6,139.9 234.5,121.2 			"/>
		</g>
	</g>
</g>
<g>
	<g>
		<path class="st7" d="M350.4,7.3c-1,0-1.9-0.4-2.6-1c-0.7-0.7-1-1.6-1-2.6c0-0.9,0.4-1.9,1-2.5c1.3-1.3,3.8-1.4,5.1,0
			c0.7,0.7,1.1,1.6,1.1,2.5c0,1-0.4,1.9-1.1,2.6C352.3,7,351.3,7.3,350.4,7.3z"/>
	</g>
	<g>
		<path class="st7" d="M297.3,92.8c-1.7-1-2.3-3.3-1.3-5l0,0c1-1.7,3.3-2.2,5-1.2l0,0c1.7,1,2.3,3.3,1.3,5l0,0
			c-0.7,1.1-1.9,1.8-3.1,1.8l0,0C298.5,93.3,297.9,93.2,297.3,92.8z M307.5,75.6c-1.7-1-2.3-3.3-1.3-5l0,0c1-1.7,3.3-2.3,5-1.3l0,0
			c1.7,1,2.3,3.3,1.2,5l0,0c-0.6,1.2-1.9,1.8-3.1,1.8l0,0C308.7,76.1,308.1,76,307.5,75.6z M317.8,58.4c-1.7-1-2.3-3.2-1.3-5l0,0
			c1-1.7,3.3-2.3,5-1.2l0,0c1.7,1,2.3,3.2,1.3,4.9l0,0c-0.7,1.2-1.9,1.8-3.1,1.8l0,0C319,58.9,318.4,58.8,317.8,58.4z M328,41.2
			c-1.7-1-2.2-3.3-1.2-5l0,0c1-1.7,3.2-2.2,5-1.2l0,0c1.7,1,2.3,3.3,1.3,5l0,0c-0.7,1.1-1.9,1.8-3.1,1.8l0,0
			C329.2,41.8,328.6,41.6,328,41.2z M338.3,24c-1.7-1-2.3-3.3-1.3-5l0,0c1-1.7,3.3-2.3,5-1.3l0,0c1.7,1,2.3,3.3,1.3,5l0,0
			c-0.7,1.2-1.9,1.8-3.1,1.8l0,0C339.5,24.5,338.9,24.4,338.3,24z"/>
	</g>
	<g>
		<path class="st7" d="M288.9,110.5c-0.9,0-1.9-0.4-2.6-1c-0.6-0.7-1-1.6-1-2.5c0-1,0.4-1.9,1-2.6c1.4-1.3,3.8-1.3,5.1,0
			c0.7,0.7,1,1.6,1,2.6c0,0.9-0.4,1.9-1,2.5C290.7,110.2,289.8,110.5,288.9,110.5z"/>
	</g>
	<g>
		<g>
			<polygon class="st7" points="281.2,98.7 280.9,120.3 299.8,109.7 			"/>
		</g>
	</g>
</g>
<g>
	<g>
		<path class="st7" d="M160.8,3.6c-0.9,0-1.9-0.4-2.6-1.1c-0.6-0.6-1-1.6-1-2.5c0-1,0.4-1.9,1-2.6c1.4-1.3,3.8-1.4,5.1,0
			c0.6,0.6,1,1.6,1,2.6c0,0.9-0.4,1.9-1,2.5C162.7,3.2,161.8,3.6,160.8,3.6z"/>
	</g>
	<g>
		<path class="st7" d="M165.7,62.1c-0.3-2,1.1-3.8,3.1-4.1l0,0c2-0.3,3.8,1.1,4,3.1l0,0c0.3,2-1.1,3.8-3.1,4l0,0c-0.2,0-0.3,0-0.5,0
			l0,0C167.5,65.2,166,63.9,165.7,62.1z M162.9,41.5c-0.3-2,1.1-3.8,3.1-4.1l0,0c2-0.3,3.8,1.1,4.1,3.1l0,0c0.3,2-1.1,3.8-3.1,4.1
			l0,0c-0.2,0-0.4,0-0.5,0l0,0C164.7,44.7,163.2,43.3,162.9,41.5z M160.1,21c-0.3-2,1.1-3.8,3.1-4.1l0,0c2-0.3,3.8,1.1,4.1,3.1l0,0
			c0.3,2-1.1,3.8-3.1,4.1l0,0c-0.2,0-0.3,0-0.5,0l0,0C161.9,24.1,160.3,22.8,160.1,21z"/>
	</g>
	<g>
		<path class="st7" d="M172.2,85.8c-0.9,0-1.9-0.4-2.6-1c-0.6-0.7-1-1.6-1-2.6c0-0.9,0.4-1.9,1-2.6c1.3-1.3,3.8-1.3,5.1,0
			c0.7,0.7,1.1,1.6,1.1,2.6c0,0.9-0.4,1.9-1,2.6C174,85.4,173.1,85.8,172.2,85.8z"/>
	</g>
	<g>
		<g>
			<polygon class="st7" points="161,80.5 174.3,97.6 182.4,77.6 			"/>
		</g>
	</g>
</g>
<g>
	<path class="st7" d="M20.3,226.2c-0.1-2,1.4-3.7,3.4-3.9l0,0c2-0.1,3.7,1.3,3.9,3.3v0c0.1,2-1.4,3.7-3.4,3.8l0,0
		c-0.1,0-0.2,0-0.3,0l0,0C22.1,229.6,20.5,228.1,20.3,226.2z M23.3,207.9c-2,0-3.6-1.7-3.5-3.7l0,0l0,0l0,0c0-2,1.7-3.6,3.7-3.5l0,0
		c2,0,3.6,1.7,3.5,3.7l0,0C27,206.3,25.3,207.9,23.3,207.9L23.3,207.9C23.4,207.9,23.4,207.9,23.3,207.9z M24.5,186.3
		c-2-0.2-3.4-2-3.2-4l0,0c0.2-2,2-3.4,4-3.1l0,0c2,0.2,3.4,2,3.2,4l0,0c-0.2,1.8-1.8,3.2-3.6,3.2l0,0
		C24.7,186.3,24.6,186.3,24.5,186.3z M27.7,164.8c-2-0.4-3.2-2.4-2.8-4.3l0,0l0,0l0,0c0.4-2,2.3-3.2,4.3-2.7l0,0
		c2,0.4,3.2,2.3,2.7,4.3h0c-0.4,1.7-1.9,2.9-3.5,2.9l0,0C28.2,164.9,27.9,164.9,27.7,164.8z M32.9,143.8c-1.9-0.6-3-2.6-2.3-4.6l0,0
		c0,0,0,0,0,0l0,0c0.6-1.9,2.6-3,4.6-2.4l0,0c1.9,0.6,2.9,2.6,2.3,4.6l0,0c-0.5,1.6-1.9,2.5-3.5,2.5l0,0
		C33.6,144,33.2,143.9,32.9,143.8z M40.1,123.3c-1.8-0.8-2.7-2.9-1.9-4.7l0,0c0.8-1.8,2.9-2.7,4.7-1.9l0,0c1.8,0.8,2.7,2.9,1.9,4.8
		l0,0c-0.6,1.4-2,2.2-3.3,2.2l0,0C41,123.6,40.5,123.5,40.1,123.3z M452.9,110.1c-0.9-1.8-0.1-4,1.7-4.8l0,0
		c1.8-0.9,3.9-0.1,4.8,1.6l0,0l0,0l0,0c0.9,1.8,0.1,4-1.7,4.8l0,0c-0.5,0.3-1,0.4-1.6,0.4l0,0C454.8,112.1,453.5,111.4,452.9,110.1z
		 M49.2,103.6c-1.7-0.9-2.4-3.1-1.4-4.9l0,0c0.9-1.8,3.1-2.4,4.9-1.4l0,0c1.7,0.9,2.4,3.1,1.4,4.9l0,0c-0.7,1.2-1.9,1.9-3.2,1.9l0,0
		C50.4,104.1,49.7,104,49.2,103.6z M442.6,91.5c-1-1.7-0.5-3.9,1.2-5l0,0c1.7-1,3.9-0.5,5,1.2l0,0c1,1.7,0.5,3.9-1.2,5l0,0
		c-0.6,0.4-1.3,0.5-1.9,0.5l0,0C444.4,93.2,443.2,92.6,442.6,91.5z M60.2,85c-1.7-1.1-2.1-3.4-1-5l0,0c1.1-1.7,3.4-2.1,5-1l0,0
		c1.7,1.1,2.1,3.4,1,5l0,0c-0.7,1-1.8,1.6-3,1.6l0,0C61.5,85.6,60.8,85.4,60.2,85z M430.5,73.9c-1.2-1.6-0.9-3.9,0.7-5.1l0,0
		c1.6-1.2,3.8-0.9,5.1,0.7l0,0c1.2,1.6,0.9,3.9-0.7,5.1l0,0c-0.6,0.5-1.4,0.8-2.2,0.8l0,0C432.3,75.3,431.2,74.8,430.5,73.9z
		 M72.9,67.4c-1.6-1.3-1.8-3.5-0.5-5.1l0,0l0,0l0,0c1.3-1.6,3.5-1.8,5.1-0.5l0,0c1.6,1.3,1.8,3.5,0.5,5.1l0,0
		c-0.7,0.9-1.8,1.3-2.8,1.3l0,0C74.3,68.2,73.5,67.9,72.9,67.4z M416.8,57.5c-1.3-1.5-1.3-3.8,0.2-5.1l0,0c1.5-1.4,3.8-1.3,5.1,0.2
		l0,0c1.4,1.4,1.3,3.8-0.2,5.1l0,0c-0.7,0.7-1.6,0.9-2.4,0.9l0,0C418.5,58.6,417.5,58.3,416.8,57.5z M87.1,51
		c-1.4-1.4-1.4-3.7,0-5.1l0,0c1.4-1.4,3.7-1.4,5.1,0l0,0c1.4,1.4,1.4,3.7,0,5.1l0,0c-0.7,0.7-1.7,1.1-2.6,1.1l0,0
		C88.8,52.1,87.9,51.8,87.1,51z M401.7,42.5c-1.5-1.3-1.6-3.6-0.3-5.1l0,0c1.3-1.5,3.6-1.6,5.1-0.3l0,0c0,0,0,0,0,0l0,0
		c1.5,1.3,1.6,3.6,0.3,5.1l0,0c-0.7,0.8-1.7,1.2-2.7,1.2l0,0C403.2,43.4,402.4,43.1,401.7,42.5z M102.9,36.2
		c-1.3-1.6-1.1-3.8,0.4-5.1l0,0c1.6-1.3,3.8-1.1,5.1,0.5l0,0c1.3,1.5,1.1,3.8-0.5,5.1l0,0c-0.6,0.5-1.5,0.8-2.3,0.8l0,0
		C104.7,37.5,103.6,37,102.9,36.2z M385.1,29c-1.6-1.2-2-3.5-0.8-5.1l0,0c1.2-1.6,3.4-2,5.1-0.8l0,0l0,0l0,0c1.6,1.2,2,3.5,0.8,5.1
		l0,0c-0.7,1-1.8,1.5-2.9,1.5l0,0C386.5,29.7,385.8,29.4,385.1,29z M120,22.8c-1.2-1.7-0.7-3.9,0.9-5l0,0c1.6-1.1,3.9-0.7,5,0.9l0,0
		c1.1,1.7,0.7,3.9-0.9,5h0c-0.6,0.4-1.3,0.6-2,0.6l0,0C121.8,24.4,120.7,23.9,120,22.8z M367.4,17.1L367.4,17.1
		c-1.7-1-2.3-3.3-1.2-5l0,0c1-1.7,3.3-2.3,5-1.2l0,0c1.7,1,2.2,3.3,1.2,5l0,0c-0.7,1.1-1.9,1.7-3.1,1.7l0,0
		C368.7,17.6,368,17.4,367.4,17.1z M138.3,11.2c-0.9-1.8-0.3-4,1.4-4.9l0,0c1.8-1,4-0.3,4.9,1.4l0,0c1,1.7,0.3,3.9-1.4,4.9l0,0
		c-0.5,0.3-1.2,0.4-1.7,0.4l0,0C140.2,13.1,139,12.4,138.3,11.2z M348.6,6.9c-1.8-0.9-2.5-3-1.7-4.8l0,0c0.8-1.8,3-2.6,4.8-1.7l0,0
		c1.8,0.9,2.6,3,1.7,4.8l0,0c-0.6,1.3-1.9,2.1-3.3,2.1l0,0C349.7,7.3,349.1,7.2,348.6,6.9z M157.6,1.3c-0.8-1.8,0.1-4,1.9-4.8l0,0
		c1.8-0.8,4,0.1,4.8,1.9l0,0c0.8,1.8-0.1,4-1.9,4.8l0,0c-0.5,0.2-1,0.3-1.4,0.3l0,0C159.5,3.5,158.2,2.7,157.6,1.3z M329-1.4
		L329-1.4c-1.9-0.7-2.9-2.8-2.2-4.7l0,0c0.7-1.8,2.8-2.8,4.7-2.1l0,0c1.9,0.7,2.8,2.8,2.1,4.7l0,0c-0.5,1.4-1.9,2.3-3.4,2.3l0,0
		C329.8-1.2,329.4-1.3,329-1.4z M177.8-6.7c-0.6-1.9,0.4-3.9,2.3-4.6l0,0c1.9-0.6,3.9,0.4,4.6,2.4l0,0c0.6,1.9-0.4,3.9-2.3,4.6l0,0
		c-0.4,0.1-0.8,0.2-1.1,0.2l0,0C179.7-4.1,178.2-5.1,177.8-6.7z M308.6-7.8c-2-0.5-3.1-2.5-2.6-4.4l0,0c0.5-2,2.5-3.1,4.4-2.6l0,0
		c2,0.5,3.1,2.5,2.6,4.4l0,0c-0.4,1.6-1.9,2.7-3.5,2.7l0,0C309.3-7.7,308.9-7.7,308.6-7.8z M198.6-12.7c-0.4-2,0.8-3.9,2.7-4.3l0,0
		c2-0.4,3.9,0.8,4.3,2.7l0,0c0.4,2-0.8,3.9-2.7,4.3l0,0c-0.3,0.1-0.5,0.1-0.8,0.1l0,0C200.5-9.8,199-11,198.6-12.7z M287.7-12.3
		L287.7-12.3c-2-0.3-3.3-2.2-3-4.1l0,0c0.3-2,2.2-3.3,4.2-3l0,0c2,0.3,3.3,2.2,3,4.2l0,0c-0.3,1.8-1.8,3-3.5,3l0,0
		C288.1-12.2,287.9-12.2,287.7-12.3z M219.9-16.6c-0.2-2,1.2-3.8,3.1-4l0,0c2-0.2,3.8,1.2,4,3.1l0,0c0.3,2-1.2,3.8-3.1,4l0,0
		c-0.1,0-0.3,0-0.4,0l0,0C221.7-13.4,220.1-14.8,219.9-16.6z M266.5-14.6L266.5-14.6c-2-0.1-3.5-1.9-3.4-3.9l0,0
		c0.1-2,1.9-3.5,3.9-3.4l0,0c2,0.1,3.5,1.8,3.4,3.8l0,0c-0.1,1.9-1.7,3.4-3.6,3.4l0,0C266.7-14.6,266.6-14.6,266.5-14.6z
		 M241.5-18.6c0-2,1.5-3.7,3.5-3.7l0,0c2,0,3.7,1.5,3.7,3.5l0,0c0.1,2-1.5,3.7-3.5,3.7l0,0c0,0-0.1,0-0.1,0l0,0
		C243.1-15.1,241.5-16.6,241.5-18.6z"/>
</g>
<g>
	<polygon class="st8" points="343.9,236.5 343.9,312.1 312.3,312.1 312.3,220 	"/>
	<g>
		<g>
			<polygon class="st9" points="383.8,312.1 352.3,312.1 352.3,240.8 383.8,257.2 			"/>
		</g>
		<g>
			<polygon class="st10" points="303.9,215.7 303.9,312.1 272.3,312.1 272.3,216.4 286.1,206.5 			"/>
		</g>
		<g>
			<polygon class="st11" points="244,236.7 263.9,222.4 263.9,312.1 232.3,312.1 232.3,237 237.9,241.4 			"/>
		</g>
		<g>
			<polygon class="st12" points="224.5,231.6 224.5,312.1 192.9,312.1 192.9,217.8 198.7,213.8 			"/>
		</g>
		<g>
			<polygon class="st13" points="170.4,233.1 176,229.7 184.5,223.7 184.5,312.1 152.9,312.1 152.9,221.5 164.5,229.6 			"/>
		</g>
		<g>
			<polygon class="st14" points="144.5,312.1 112.9,312.1 112.9,193.8 144.5,215.7 			"/>
		</g>
		<g>
			<polygon class="st15" points="104.5,187.9 104.5,312.1 72.9,312.1 72.9,166 			"/>
		</g>
	</g>
	<g>
		<polygon class="st16" points="425.1,267.2 391.9,261.8 398.3,253.8 287.2,193.6 244,220.3 240.4,222.5 237,219.8 204.2,197.9 
			173.8,217.3 170.8,219.3 167.4,217.3 79.2,161.7 80.3,147.7 170.7,204.7 201.6,185 205.3,182.4 208.6,185.5 241.5,207.4 
			284.7,180.7 288.3,178.8 291.7,181.2 406.1,244.2 413.1,235.4 		"/>
	</g>
</g>
<g>
	<g>
		<g>
			<path class="st17" d="M285.3,359.5c30.9-8.3,17.9,43.5,3.4,97.9c-13.5,50.5-22.6,86.3-44.4,80.8C211.9,530,261,366,285.3,359.5z"
				/>
			<path class="st17" d="M239.3,534.3c24.3,26,136.1-19.9,136.1-19.9l-5.4-21.1c0,0-73.4,8.9-99,4.6L239.3,534.3z"/>
		</g>
		<g>
			<polygon class="st18" points="361.1,581.5 250.4,554 280.1,388.7 390.8,416.2 			"/>
			<polygon class="st19" points="362.5,583.9 251.8,556.4 281.5,391.1 392.2,418.6 			"/>
			<polygon class="st20" points="363.4,592.7 247.1,563.8 277.6,394.2 393.9,423.1 			"/>
			<polygon class="st21" points="247.1,563.8 277.6,394.2 393.9,423.1 			"/>
		</g>
		<path class="st22" d="M363.1,492.4c-1.5,0.6-2,3.1,2.3,4.2c0,0-6.1-0.5-6.2,1.9c-0.2,2.3,5.1,4.5,5.1,4.5s-4.3-0.8-4.9,0.9
			c-0.5,1.7,3.8,4.2,7.3,5.1c0,0-2.5-0.1-2.9,1.3c-0.7,2.3,6.7,6.9,12.6,9.6l4-25.8L363.1,492.4z"/>
		<path class="st23" d="M383.3,493.4c-3-2.5-19.8-2.8-20.2-1c-0.7,3,16.3,3.4,16,4.8c-0.3,1.5-18.4-2.5-18.9,0.5
			c-0.7,3.7,18.1,4.6,17.5,6.5c-0.5,1.7-16.9-3-17.5-0.9c-1,3.8,16.3,5.8,16.1,7.1c-0.1,1.2-10.9-2.1-11.7,0
			c-0.8,2,14.2,5.5,15.9,3.8c1.8-1.8,5.8-9.6,5.8-12.3C386.5,499.1,383.3,493.4,383.3,493.4z"/>
	</g>
	<path class="st24" d="M159.9,216.8c0,0-17.5-7-15,34.8c3.3,55.5,54.3,75.6,70.8,63.2C238,298.1,159.9,216.8,159.9,216.8z"/>
	<g>
		<path class="st25" d="M209.8,580.9c-10.1,28.5,20.9,101.3,20.9,101.3s82.2,72,89,15.6c5.9-49.3,6.8-78.7,1.5-112
			C300.5,497.1,209.8,580.9,209.8,580.9z"/>
		<path class="st26" d="M157.8,580.9c-10.2,31.9-8.1,73.6-1.4,114.8c11.4,70.2,94.1-29.5,94.1-29.5h14.3l3.9-90.5L157.8,580.9z"/>
	</g>
	<path class="st27" d="M271.6,173.1c0,0,16.6-2.5,21.9,17.2c5.3,19.7-9,39.3-9,39.3L262.1,193L271.6,173.1z"/>
	<path class="st25" d="M154,595.8l3.8-14.9l163.6,6.9c0,0,1.6,11.8,2.2,16.6C323.5,604.4,241.7,618.3,154,595.8z"/>
	<path class="st27" d="M286.1,245.4c0,0-12.2-41.5-8.9-59.4c-4.9-39.5-101.2-50.4-120.4,12.3c-20.4,66.7,32.4,107.4,53,111.1
		C221.2,311.5,286.1,245.4,286.1,245.4z"/>
	<path class="st17" d="M220.1,488.3c-1.2-6.4-26.5-25.5-40.1-54.1c-17.4-36.6-13.8-57.2-13.8-57.2c45.7-26.8,72.2-34.7,129.3-18.4
		l6.5,33.6c0,0,13.8,24.3,13.4,36c-2.6,17-35.1,48.1-33.3,65.5L220.1,488.3z"/>
	<path class="st28" d="M186.6,365.9c0.3,0.4,32.2,37.1,74.4,45c0,0,15.9-26.6,15.6-57C239.5,346.1,216.7,350.4,186.6,365.9z"/>
	<path class="st29" d="M157.8,580.9c18.8-54.3,37.9-78.6,36.2-88.1c-1.1-5.9-0.9-29.9-14.5-60.1c98.2,15.2,135.9-4.4,135.9-4.4
		l-0.6,4.8c-5,14.5-21.4,45.3-19.8,60.7c1.8,17.4,17.7,42.3,26.4,94C278.1,593.5,212.3,590.8,157.8,580.9z"/>
	<g>
		<path class="st30" d="M159.9,575.5c-0.7,1.8-1.4,3.5-2.1,5.3c54.5,9.9,120.3,12.6,163.6,6.9c-0.3-2-0.9-3.6-1.3-5.5
			C277.4,587.7,213.5,585.1,159.9,575.5z"/>
	</g>
	<path class="st31" d="M197.3,279.2c0,0,18.5,47.9,10.9,83.3l35.4,2.2l18.2-5.2c0,0-9.7-20.7-11.1-49.6
		C249.7,288.9,197.3,279.2,197.3,279.2z"/>
	<path class="st32" d="M255.3,340.3c-1.8-7.2-3.5-16-4.3-26c-14.8-13.7-44.5-25.4-52.1-27.8c4.6,14.3,13.6,42.3,9.8,67.8
		c-4.9,1.9,22.7,17.6,31.1,7.9C247.2,353.8,252.7,345.8,255.3,340.3z"/>
	<path class="st23" d="M261.1,329.5c5.2-1.1,12.1-11.3,16.7-16.8c9.8-11.5,18.5-25.2,9.1-52.3c0,0,14.5-73.5-44.9-74
		s-63.2,58.7-46,101.2C213.2,330.1,256.2,330.5,261.1,329.5z"/>
	<path class="st31" d="M256.7,262.1c3.1,14,15.4,16.7,15.4,16.7s-2.3,10.4-11.6,11c-9.3,0.6,6.7-10,6.7-10s-13.1-6.9-15-17.2
		C249.7,248.1,253.6,248.1,256.7,262.1z"/>
	<path class="st27" d="M236.5,242.2c-0.3,1.6-5.2-0.7-15.1-2.2c-9.1-1.4-16.4-0.6-16.2-2.1c0.2-1.6,6.4-4.7,17.1-3.2
		C232.6,236.1,237.1,239.2,236.5,242.2z"/>
	<path class="st27" d="M287.7,232.5c0.7,1.7-1.7,0.3-9.6,3.4c-6.4,2.5-12.4,6.6-13,5.5c-2-3.3,4.7-7.7,10.8-9.6
		C284.2,229.4,287.3,231.4,287.7,232.5z"/>
	<path class="st27" d="M208.4,189.8c-39.8,24.2-20.2,75.9-20.2,75.9s6.6,4.5,9.2,3.8c3.9-1,1.4-4.4,0.8-20.9
		c1.5-31.4,27.6-34.1,62.1-45.2c19.7-6.4,17.4-23.4,17.4-23.4S255.3,162.3,208.4,189.8z"/>
	<path class="st30" d="M271.4,352.9l-6.4,33.2l-20.2-20l-12,25.6L194.3,362c9-4.3,5.9-2.9,15.1-6c9.1-3.1,21.1,1,30.7,0.4
		c6.1-0.4,9.5-6.3,16.2-5.7C262.8,351.3,271.4,352.9,271.4,352.9z"/>
	<polygon class="st28" points="207.9,337.5 197.5,358.9 230.4,382.3 242.9,355.7 	"/>
	<polygon class="st28" points="269.1,349 262.9,376.6 242.9,355.7 257,334.7 	"/>
	<g>
		<path class="st23" d="M178.2,279.9c0.4,6.9,6.3,12.2,13.2,11.8c6.9-0.4,12.2-6.3,11.8-13.2c-0.4-6.9-6.3-12.2-13.2-11.8
			C183.1,267.1,177.8,273,178.2,279.9z"/>
		<path class="st32" d="M190.3,271.1c1.8-0.1,3.4,0.5,4.8,1.4c-0.7-0.2-1.4-0.4-2.2-0.3c-3.8,0.2-6.8,3.5-6.6,7.4
			c0.2,3.8,3.5,6.8,7.4,6.6c0.6,0,1.1-0.3,1.7-0.4c-1.2,0.9-2.6,1.5-4.2,1.6c-4.5,0.3-8.3-3.2-8.6-7.7
			C182.4,275.2,185.8,271.3,190.3,271.1z"/>
	</g>
	<g>
		<g>
			<g id="wrist_left_2_">
				<path class="st23" d="M162,651.3c0,0,3.5,2.8,6,7.7c2,3.9,3.7,9.3,6,14.3c1.4,2.9,2.5,5,2.3,5.4c-0.4,0.7-3.4,0.5-5.8-3.7
					c-2.4-4.3-6.1-8.6-6.1-8.6L162,651.3z"/>
				<path class="st23" d="M151.7,651.1c0,0-3.3,14.1-1.7,26.4c1.5,12.2,4.1,15.3,5.4,15.1c1.3-0.2,0.3-2.4-0.4-6.5
					c-0.6-3.4-1.6-6.8-1-6.8c0.6,0,2.3,6.9,2.5,8.1c0.2,1.2,2,9.4,4.1,9.3c2-0.1,0.7-6-0.1-9.2c0,0-1.4-8-0.8-7.9
					c0.6,0,1.5,7.3,1.7,8.5c0.2,1.2,1.3,10.1,3.3,10.2c1.9,0.1,2.2-2,1-9.6c0,0-1.7-9.2-1.1-9.1c1.7-0.1,1.6,15.8,4.6,16
					c1.5,0.1,1.3-3.5,0.7-8.1c-0.6-4.7-2-12.6-2-16.7c0-13.3-5.8-19.3-5.8-19.3S155.9,645.9,151.7,651.1z"/>
			</g>
		</g>
		<polygon class="st23" points="151.7,651.1 149.7,638.3 163.6,639 162,651.3 		"/>
	</g>
	<path class="st33" d="M267.4,176.5c8.4,17.2-75.4,50.5-97.2,23.4c-11.5-14.3,11.1-34.5,38-40.4C232.3,154.2,260,161.4,267.4,176.5z
		"/>
	<path class="st33" d="M278.7,180c12.1-5.4,14.9,23.6,9.5,26.3C282.7,209,270.4,183.7,278.7,180z"/>
	<path class="st17" d="M168.4,376c-19,9.3-28.5,75.8-32.2,149.5c-2.6,50.2,9.2,122.2,9.2,122.2l21.2-1.1c0,0,2.3-53.7,10.4-125
		C185.8,443,192.5,385.4,168.4,376z"/>
	<g>
		<path class="st7" d="M239.2,263.3c1.8-2.5-2.2-10.7-10.4-12.6c-8.2-1.9-12,3.8-12.1,5.9c-0.1,2.2,1.3,5.9,6.1,7.6
			c4.8,1.6,8.6,0.8,10.7,0.5C236.3,264.3,238.2,264.7,239.2,263.3z"/>
		<circle class="st34" cx="229.1" cy="255.9" r="7"/>
		<circle class="st7" cx="228.1" cy="260.2" r="2.8"/>
		<path class="st34" d="M239.6,261.3c0,0,0.8-4.1-4.6-9.1c-5.3-5-11.8-3.3-13.6-3.5c-1.8-0.2-3.7,0.5-3.1,0.9c0.6,0.4-0.9,2-2.4,1.8
			c-1.4-0.2,0.1,1.2,0.1,1.7c0,0.5-2.5,0.5-2.6,1.1c-0.2,0.5,1.5,1.6,1.1,1.8c-0.4,0.2-1.7,1.3-1,1.7c0.7,0.4,2.1,2,2.7,2.6
			s2.2,1.1,2.2,1.1s-2-3.2-1.1-5.6c0.9-2.4,3.5-5.1,8.1-4.9c4.6,0.2,7.6,2.2,9.8,3.9C237.5,256.4,239.6,261.3,239.6,261.3z"/>
	</g>
	<g>
		<path class="st7" d="M264.5,260.1c-2.3-1.9-0.6-10.9,6.9-14.8s12.6,0.6,13.2,2.7c0.6,2.1,0.2,6.1-4,8.9c-4.2,2.8-8.1,2.9-10.3,3.2
			C267.6,260.4,265.8,261.2,264.5,260.1z"/>
		<circle class="st34" cx="272.4" cy="250.4" r="7"/>
		<circle class="st7" cx="274.4" cy="254.3" r="2.8"/>
		<path class="st34" d="M263.6,258.3c0,0-1.8-3.8,2.2-10c3.9-6.1,10.6-6.1,12.3-6.8c1.7-0.7,3.7-0.5,3.2,0.1
			c-0.5,0.6,1.4,1.7,2.7,1.1c1.3-0.6,0.2,1.2,0.3,1.7c0.1,0.5,2.5-0.1,2.8,0.4c0.3,0.5-1.1,1.9-0.7,2c0.4,0.1,2,0.8,1.4,1.4
			c-0.6,0.6-1.6,2.4-2,3.2c-0.4,0.8-1.8,1.6-1.8,1.6s1.1-3.6-0.3-5.7c-1.5-2.1-4.7-4.1-9.1-2.7c-4.4,1.4-6.9,4-8.5,6.2
			C264.4,253,263.6,258.3,263.6,258.3z"/>
	</g>
	<g>
		<g>
			<path class="st35" d="M240.8,308.7l-1-2.1c4.4-6.4,14.6-8.2,32.1-5.7l-0.1,0.9C255.1,299.4,244.8,302.9,240.8,308.7z"/>
		</g>
		<path class="st35" d="M248.6,312.7c0,0.8,2.7,2.2,6.3,2c3.6-0.2,6.9-2,6.9-2.8c0-0.8-3.4,0.3-7.1,0.5
			C251.1,312.6,248.6,311.9,248.6,312.7z"/>
	</g>
</g>
</svg>
