<?xml version="1.0" encoding="utf-8"?>
<!-- Generator: Adobe Illustrator 24.0.3, SVG Export Plug-In . SVG Version: 6.00 Build 0)  -->
<svg version="1.1" id="Layer_1" xmlns="http://www.w3.org/2000/svg" xmlns:xlink="http://www.w3.org/1999/xlink" x="0px" y="0px"
	 width="480px" height="600px" viewBox="0 0 480 600" style="enable-background:new 0 0 480 600;" xml:space="preserve">
<style type="text/css">
	.st0{fill-rule:evenodd;clip-rule:evenodd;fill:#E1346B;}
	.st1{fill-rule:evenodd;clip-rule:evenodd;fill:#FFFFFF;}
	.st2{fill:#419B19;}
	.st3{fill:#3A7F1C;}
	.st4{fill:#8BCB0A;}
	.st5{fill:#FFFFFF;}
	.st6{fill:#A04BA0;}
	.st7{fill:#DDC6B8;}
	.st8{fill:#EADACE;}
	.st9{fill:#FF9334;}
	.st10{fill:#FF852F;}
	.st11{opacity:0.4;fill:#E2711E;}
	.st12{fill:#FFB476;}
	.st13{fill:#AA4805;}
	.st14{fill:#323249;}
	.st15{fill:#3D3D5B;}
	.st16{fill:#BA5604;}
	.st17{fill:#F4E4EC;}
	.st18{fill:#833A87;}
	.st19{fill:#DBB4D1;}
	.st20{fill:#ED9558;}
	.st21{fill:#D87239;}
	.st22{fill:#CE6F09;}
	.st23{fill:#39170B;}
	.st24{fill:#E97B59;}
	.st25{fill:#3C2F28;}
	.st26{fill:#473A3A;}
	.st27{fill:#32251C;}
	.st28{fill:#9CBEE0;}
	.st29{fill:#EBDDE5;}
	.st30{fill:#2D313D;}
	.st31{fill:#822D0F;}
	.st32{fill:#F7E8F0;}
	.st33{fill:#E08344;}
	.st34{fill:#E9A76F;}
	.st35{fill:#D1652F;}
	.st36{fill:#933914;}
	.st37{fill:#723C1E;}
	.st38{fill:#9EA8DD;}
	.st39{fill:#EDDFE7;}
	.st40{fill:#E5C3DA;}
	.st41{fill:#28283D;}
	.st42{fill:#FFB781;}
	.st43{fill:#542C23;}
</style>
<g transform="matrix(0.948172,0,0,1.88724,-3.09674,-964.778)">
	<rect x="-5.6" y="504.1" class="st0" width="529.6" height="328.5"/>
</g>
<g>
	<g>
		<g>
			<g transform="matrix(1,0,0,1,-593.365,-904.259)">
				
					<ellipse transform="matrix(0.7071 -0.7071 0.7071 0.7071 -472.235 877.1536)" class="st1" cx="822.7" cy="1008.6" rx="80.3" ry="80.3"/>
			</g>
			<g transform="matrix(1,0,0,1,-569.688,-910)">
				<path class="st1" d="M857.6,1058.6l43.8,11.5l-26.3-36.7L857.6,1058.6z"/>
			</g>
		</g>
	</g>
	<g>
		<g>
			<polygon class="st2" points="164.8,108.4 240,161.2 274.5,141.6 274.5,121.7 164.8,98.4 			"/>
		</g>
		<g>
			<polygon class="st3" points="164.8,118.4 240,161.2 239.6,135.9 164.8,98.4 			"/>
		</g>
		<g>
			<g>
				<path class="st4" d="M164.9,98.4c24.7,15,49.9,29.2,75,43.5c11.6-6.6,23.2-13.3,34.8-19.9c-24.9-14.7-49.9-29.2-75-43.5
					C188.1,85.1,176.5,91.7,164.9,98.4z"/>
				<path class="st2" d="M201,82.3c-9.4,5.3-18.8,10.7-28.2,16c22.5,13.4,45.3,26.4,68,39.4c9.3-5.4,18.6-10.7,27.9-16.1
					C246.3,108.4,223.7,95.3,201,82.3z M235.2,130.5c-6.4-3.7-12.8-7.4-19.3-11.1c5.2,0.6,11.1-0.5,15.5-3c4.6-2.7,6.3-6.3,5.1-9.5
					c6.5,3.8,13.1,7.6,19.6,11.4c-2.8,1.6-3.6,5.3-0.7,6.9c-4.1,2.4-6.1,3.5-10.2,5.9C242.3,129.5,238,128.9,235.2,130.5z
					 M194.7,90.1c2.9,1.7,9.1,1.2,12-0.4c6.4,3.7,12.7,7.3,19.1,11c-5.5-0.7-11.9,0.2-16.6,2.9c-4.4,2.5-6.3,5.9-5.4,8.9
					c-6.2-3.6-12.3-7.2-18.5-10.8c2.8-1.6,1.8-4-1-5.7C188.5,93.6,190.6,92.4,194.7,90.1z"/>
				<g>
					<path class="st5" d="M227.7,110.2c0-0.1,0-0.3-0.1-0.5c-0.1-0.2-0.2-0.4-0.4-0.6c-0.2-0.2-0.4-0.5-0.6-0.7
						c-0.2-0.2-0.5-0.5-0.9-0.7c-1.4,0.8-2.1,1.2-3.5,2c0.1,0.1,0.2,0.1,0.3,0.2c0.5,0.5,0.9,0.9,1.3,1.3c0.3,0.4,0.6,0.8,0.7,1.2
						c0.1,0.4,0.1,0.7-0.1,1c-0.2,0.3-0.5,0.7-1.1,1c-0.6,0.3-1.2,0.6-1.9,0.7c-0.7,0.1-1.3,0.1-2,0.1c-0.7-0.1-1.4-0.2-2.1-0.5
						c-0.7-0.2-1.3-0.5-2-0.9c-0.7,0.4-1.1,0.6-1.8,1c-0.4-0.2-0.6-0.3-1-0.5c0.7-0.4,1.1-0.6,1.8-1c-0.8-0.5-1.5-1.1-2-1.7
						c-0.5-0.6-0.9-1.2-1-1.9c1-0.2,1.5-0.2,2.6-0.4c0,0.2,0,0.4,0.1,0.6c0.1,0.2,0.2,0.5,0.4,0.8c0.2,0.3,0.4,0.6,0.7,0.9
						c0.3,0.3,0.6,0.6,1,0.9c1.4-0.8,2.1-1.2,3.5-2c0-0.1-0.1-0.1-0.2-0.2c-0.1-0.1-0.1-0.1-0.2-0.2c-0.5-0.5-0.9-0.9-1.2-1.3
						c-0.3-0.4-0.5-0.7-0.5-1.1c-0.1-0.3,0-0.6,0.2-0.9c0.2-0.3,0.5-0.6,1-0.8c0.6-0.3,1.2-0.5,1.8-0.7c0.6-0.1,1.3-0.2,2-0.1
						c0.7,0,1.4,0.2,2.1,0.3c0.7,0.2,1.3,0.4,2,0.8c0.7-0.4,1-0.6,1.7-1c0.4,0.2,0.6,0.3,0.9,0.5c-0.7,0.4-1,0.6-1.7,1
						c0.7,0.5,1.3,1,1.7,1.5c0.4,0.5,0.7,1,0.9,1.5C229.2,110,228.7,110,227.7,110.2z M221.3,107c-0.5,0.3-0.7,0.6-0.5,0.9
						c0.1,0.3,0.4,0.8,1,1.3c1.4-0.8,2-1.2,3.4-1.9c-0.8-0.4-1.5-0.6-2.1-0.7C222.3,106.6,221.7,106.7,221.3,107z M220.8,113.3
						c0.5-0.3,0.7-0.6,0.5-1c-0.2-0.4-0.5-0.9-1.1-1.4c-1.4,0.8-2,1.2-3.4,1.9c0.8,0.4,1.5,0.7,2.2,0.8
						C219.7,113.7,220.3,113.6,220.8,113.3z"/>
				</g>
				<path class="st5" d="M237.9,120.7c-1.5,0.9-1.4,2.3,0.2,3.3c1.6,0.9,4.1,0.9,5.6,0.1c1.5-0.9,1.4-2.3-0.1-3.2
					C241.9,119.8,239.4,119.8,237.9,120.7z"/>
				<path class="st5" d="M201.8,99.8c-1.5,0.9-4.1,0.8-5.7-0.1c-1.6-0.9-1.6-2.4-0.1-3.2c1.5-0.9,4.1-0.8,5.7,0.1
					C203.3,97.5,203.3,98.9,201.8,99.8z"/>
			</g>
		</g>
	</g>
	<g>
		<g>
			<polygon class="st2" points="177.7,70.4 252.9,123.2 287.5,103.6 287.5,83.7 177.7,60.4 			"/>
		</g>
		<g>
			<polygon class="st3" points="177.7,80.4 252.9,123.2 252.5,97.8 177.7,60.4 			"/>
		</g>
		<g>
			<g>
				<path class="st4" d="M177.9,60.4c24.7,15,49.9,29.2,75,43.5c11.6-6.6,23.2-13.3,34.8-19.9c-24.9-14.7-49.9-29.2-75-43.5
					C201,47.1,189.4,53.7,177.9,60.4z"/>
				<path class="st2" d="M214,44.3c-9.4,5.3-18.8,10.7-28.2,16c22.5,13.4,45.3,26.4,68,39.4c9.3-5.4,18.6-10.7,27.9-16.1
					C259.2,70.4,236.6,57.3,214,44.3z M248.2,92.5c-6.4-3.7-12.8-7.4-19.3-11.1c5.2,0.6,11.1-0.5,15.5-3c4.6-2.7,6.3-6.3,5.1-9.5
					c6.5,3.8,13.1,7.6,19.6,11.4c-2.8,1.6-3.6,5.3-0.7,6.9c-4.1,2.4-6.1,3.5-10.2,5.9C255.3,91.5,250.9,90.9,248.2,92.5z
					 M207.7,52.1c2.9,1.7,9.1,1.2,12-0.4c6.4,3.7,12.7,7.3,19.1,11c-5.5-0.7-11.9,0.2-16.6,2.9c-4.4,2.5-6.3,5.9-5.4,8.9
					c-6.2-3.6-12.3-7.2-18.5-10.8c2.8-1.6,1.8-4-1-5.7C201.4,55.6,203.5,54.4,207.7,52.1z"/>
				<g>
					<path class="st5" d="M240.6,72.2c0-0.1,0-0.3-0.1-0.5c-0.1-0.2-0.2-0.4-0.4-0.6c-0.2-0.2-0.4-0.5-0.6-0.7
						c-0.2-0.2-0.5-0.5-0.9-0.7c-1.4,0.8-2.1,1.2-3.5,2c0.1,0.1,0.2,0.1,0.3,0.2c0.5,0.5,0.9,0.9,1.3,1.3c0.3,0.4,0.6,0.8,0.7,1.2
						c0.1,0.4,0.1,0.7-0.1,1c-0.2,0.3-0.5,0.7-1.1,1c-0.6,0.3-1.2,0.6-1.9,0.7c-0.7,0.1-1.3,0.1-2,0.1c-0.7-0.1-1.4-0.2-2.1-0.5
						c-0.7-0.2-1.3-0.5-2-0.9c-0.7,0.4-1.1,0.6-1.8,1c-0.4-0.2-0.6-0.3-1-0.5c0.7-0.4,1.1-0.6,1.8-1c-0.8-0.5-1.5-1.1-2-1.7
						c-0.5-0.6-0.9-1.2-1-1.9c1-0.2,1.5-0.2,2.6-0.4c0,0.2,0,0.4,0.1,0.6c0.1,0.2,0.2,0.5,0.4,0.8c0.2,0.3,0.4,0.6,0.7,0.9
						c0.3,0.3,0.6,0.6,1,0.9c1.4-0.8,2.1-1.2,3.5-2c0-0.1-0.1-0.1-0.2-0.2c-0.1-0.1-0.1-0.1-0.2-0.2c-0.5-0.5-0.9-0.9-1.2-1.3
						c-0.3-0.4-0.5-0.7-0.5-1.1c-0.1-0.3,0-0.6,0.2-0.9c0.2-0.3,0.5-0.6,1-0.8c0.6-0.3,1.2-0.5,1.8-0.7c0.6-0.1,1.3-0.2,2-0.1
						c0.7,0,1.4,0.2,2.1,0.3c0.7,0.2,1.3,0.4,2,0.8c0.7-0.4,1-0.6,1.7-1c0.4,0.2,0.6,0.3,0.9,0.5c-0.7,0.4-1,0.6-1.7,1
						c0.7,0.5,1.3,1,1.7,1.5c0.4,0.5,0.7,1,0.9,1.5C242.1,72,241.6,72,240.6,72.2z M234.2,69c-0.5,0.3-0.7,0.6-0.5,0.9
						c0.1,0.3,0.4,0.8,1,1.3c1.4-0.8,2-1.2,3.4-1.9c-0.8-0.4-1.5-0.6-2.1-0.7C235.2,68.6,234.7,68.7,234.2,69z M233.8,75.3
						c0.5-0.3,0.7-0.6,0.5-1c-0.2-0.4-0.5-0.9-1.1-1.4c-1.4,0.8-2,1.2-3.4,1.9c0.8,0.4,1.5,0.7,2.2,0.8
						C232.7,75.7,233.3,75.6,233.8,75.3z"/>
				</g>
				<path class="st5" d="M250.8,82.7c-1.5,0.9-1.4,2.3,0.2,3.3c1.6,0.9,4.1,0.9,5.6,0.1c1.5-0.9,1.4-2.3-0.1-3.2
					C254.8,81.8,252.3,81.8,250.8,82.7z"/>
				<path class="st5" d="M214.7,61.8c-1.5,0.9-4.1,0.8-5.7-0.1c-1.6-0.9-1.6-2.4-0.1-3.2c1.5-0.9,4.1-0.8,5.7,0.1
					C216.2,59.5,216.3,60.9,214.7,61.8z"/>
			</g>
		</g>
	</g>
</g>
<g>
	<g>
		<g>
			<path class="st6" d="M163.2,341.1c28-7.5,16.3,39.5,3.1,88.8c-12.2,45.8-20.5,78.3-40.3,73.3C96.6,495.9,141.1,347.1,163.2,341.1
				z"/>
			<path class="st6" d="M121.4,499.8c22.1,23.6,123.5-18.1,123.5-18.1l-4.9-19.1c0,0-66.6,8.1-89.9,4.2L121.4,499.8z"/>
		</g>
		<g>
			<polygon class="st7" points="232,542.6 131.5,517.7 158.5,367.7 258.9,392.6 			"/>
			<polygon class="st8" points="233.2,544.8 132.7,519.9 159.7,369.8 260.2,394.8 			"/>
			<polygon class="st9" points="234,552.8 128.5,526.6 156.2,372.6 261.7,398.9 			"/>
			<polygon class="st10" points="128.5,526.6 156.2,372.6 261.7,398.9 			"/>
		</g>
		<path class="st11" d="M233.8,461.7c-1.3,0.5-1.8,2.8,2.1,3.8c0,0-5.5-0.4-5.7,1.7c-0.1,2.1,4.6,4.1,4.6,4.1s-3.9-0.7-4.4,0.8
			c-0.5,1.6,3.5,3.8,6.6,4.7c0,0-2.2-0.1-2.6,1.2c-0.6,2.1,6.1,6.3,11.5,8.7l3.7-23.4L233.8,461.7z"/>
		<path class="st12" d="M252.1,462.7c-2.7-2.3-17.9-2.5-18.3-0.9c-0.7,2.7,14.8,3.1,14.5,4.4c-0.3,1.3-16.7-2.3-17.2,0.4
			c-0.6,3.3,16.4,4.2,15.9,5.9c-0.4,1.5-15.4-2.7-15.8-0.8c-0.9,3.5,14.8,5.2,14.6,6.4c-0.1,1-9.9-1.9-10.6,0
			c-0.7,1.8,12.9,5,14.5,3.4c1.7-1.7,5.2-8.7,5.3-11.2C255,467.8,252.1,462.7,252.1,462.7z"/>
	</g>
	<path class="st13" d="M49.4,211.7c0,0-15.9-6.3-13.6,31.5c3,50.3,49.3,68.6,64.3,57.3C120.2,285.4,49.4,211.7,49.4,211.7z"/>
	<g>
		<path class="st14" d="M94.6,542.1c-9.1,25.9,22.1,152.4,22.1,152.4s71.5,4.8,77.6-46.4c5.4-44.7,6.2-71.4,1.4-101.7
			C176.9,466.1,94.6,542.1,94.6,542.1z"/>
		<path class="st15" d="M47.5,542.1c-9.3,29-7.3,66.8-1.3,104.2c10.3,63.7,86.5,47.3,86.5,47.3l11.9-74.1l3.6-82.1L47.5,542.1z"/>
	</g>
	<path class="st16" d="M150.7,172c0,0,15-2.3,19.9,15.6c4.8,17.8-8.2,35.7-8.2,35.7L142.1,190L150.7,172z"/>
	<path class="st14" d="M44,555.6l3.4-13.5l148.4,6.3c0,0,1.4,10.7,2,15C197.8,563.4,123.6,576,44,555.6z"/>
	<path class="st16" d="M163.9,237.6c0,0-11.1-37.6-8.1-53.9c-4.5-35.8-91.9-45.8-109.2,11.1C28.1,255.4,76,292.3,94.8,295.7
		C105,297.6,163.9,237.6,163.9,237.6z"/>
	<path class="st6" d="M104,458c-1.1-5.8-24-23.1-36.4-49.1C51.8,375.7,55.1,357,55.1,357c41.4-24.3,65.5-31.5,117.3-16.7l5.9,30.5
		c0,0,12.5,22,12.2,32.7c-2.4,15.4-31.8,43.6-30.2,59.4L104,458z"/>
	<path class="st17" d="M73.6,346.9c0.3,0.3,29.2,33.7,67.5,40.9c0,0,14.5-24.1,14.1-51.7C121.6,329,100.9,332.9,73.6,346.9z"/>
	<path class="st18" d="M47.5,542.1c17.1-49.3,34.4-71.3,32.8-79.9c-1-5.3-0.8-27.1-13.2-54.6c89.1,13.8,123.4-4,123.4-4l-0.5,4.3
		c-4.5,13.2-19.4,41.1-18,55.1c1.6,15.8,16.1,38.4,23.9,85.3C156.7,553.5,96.9,551.1,47.5,542.1z"/>
	<g>
		<path class="st19" d="M49.3,537.2c-0.6,1.6-1.3,3.2-1.9,4.8c49.5,9,109.2,11.5,148.4,6.3c-0.3-1.8-0.8-3.3-1.1-5
			C156,548.2,98,545.9,49.3,537.2z"/>
	</g>
	<path class="st20" d="M83.3,268.3c0,0,16.7,43.5,9.9,75.6l32.1,2l16.5-4.7c0,0-8.8-18.8-10.1-45C130.9,277.1,83.3,268.3,83.3,268.3
		z"/>
	<path class="st21" d="M135.9,323.7c-1.7-6.5-3.2-14.5-3.9-23.6c-13.4-12.5-40.4-23-47.3-25.3c4.1,13,12.3,38.4,8.9,61.6
		c-4.4,1.7,20.6,16,28.2,7.2C128.6,336,133.6,328.7,135.9,323.7z"/>
	<path class="st12" d="M141.2,313.9c4.7-1,10.9-10.3,15.1-15.2c8.9-10.4,16.8-22.9,8.2-47.5c0,0,13.1-66.7-40.7-67.2
		c-53.8-0.4-57.3,53.3-41.7,91.8C97.7,314.5,136.7,314.8,141.2,313.9z"/>
	<path class="st20" d="M137.2,252.8c2.9,12.8,14,15.1,14,15.1s-2.1,9.4-10.5,10c-8.4,0.6,6.1-9,6.1-9s-11.9-6.3-13.6-15.6
		C130.8,240.1,134.4,240,137.2,252.8z"/>
	<path class="st16" d="M119.4,229.6c0.2,1.4-4.6,1-13.6,2.9c-8.2,1.7-14.2,4.7-14.5,3.3c-0.3-1.4,4-6,13.6-8.1
		C114.2,225.6,119,226.9,119.4,229.6z"/>
	<path class="st16" d="M165.2,231.8c-0.3,1.7-1.5-0.5-9.1-1.7c-6.1-1-12.7-0.5-12.7-1.7c-0.1-3.5,7.2-3.9,12.8-2.5
		C163.8,227.8,165.4,230.7,165.2,231.8z"/>
	<path class="st16" d="M93.4,187.2C57.3,209.1,75,256,75,256s6,4.1,8.4,3.4c3.5-0.9,1.2-4,0.7-18.9c1.4-28.5,25-31,56.3-41.1
		c17.9-5.8,15.8-21.2,15.8-21.2S136,162.2,93.4,187.2z"/>
	<path class="st19" d="M150.5,335.2l-5.8,30.1l-18.3-18.2l-10.9,23.2l-34.9-26.9c8.2-3.9,5.3-2.6,13.7-5.5
		c8.3-2.8,19.2,0.9,27.9,0.4c5.5-0.4,8.6-5.7,14.7-5.2C142.7,333.7,150.5,335.2,150.5,335.2z"/>
	<polygon class="st17" points="92.9,321.2 83.5,340.6 113.4,361.9 124.7,337.7 	"/>
	<polygon class="st17" points="148.5,331.6 142.8,356.7 124.7,337.7 137.5,318.7 	"/>
	<g>
		<path class="st12" d="M66,268.9c0.4,6.3,5.7,11.1,12,10.7c6.3-0.4,11.1-5.7,10.7-12c-0.4-6.3-5.7-11.1-12-10.7
			C70.4,257.3,65.6,262.7,66,268.9z"/>
		<path class="st21" d="M76.9,260.9c1.6-0.1,3.1,0.5,4.4,1.3c-0.6-0.2-1.3-0.3-2-0.3c-3.5,0.2-6.2,3.2-5.9,6.7
			c0.2,3.5,3.2,6.1,6.7,5.9c0.5,0,1-0.2,1.5-0.4c-1.1,0.8-2.4,1.4-3.8,1.5c-4.1,0.2-7.6-2.9-7.8-6.9
			C69.7,264.6,72.9,261.1,76.9,260.9z"/>
	</g>
	<g>
		<g>
			<g id="wrist_left_1_">
				<path class="st12" d="M51.3,606c0,0,3.1,2.6,5.4,7c1.8,3.5,3.4,8.4,5.5,13c1.2,2.6,2.3,4.5,2.1,4.9c-0.3,0.6-3.1,0.5-5.2-3.4
					c-2.2-3.9-5.5-7.8-5.5-7.8L51.3,606z"/>
				<path class="st12" d="M41.9,605.8c0,0-3,12.8-1.6,23.9c1.4,11.1,3.7,13.9,4.9,13.7c1.2-0.2,0.3-2.2-0.4-5.9
					c-0.6-3.1-1.5-6.2-0.9-6.2s2.1,6.2,2.3,7.3c0.2,1.1,1.8,8.6,3.7,8.4c1.8-0.1,0.6-5.5-0.1-8.4c0,0-1.3-7.2-0.7-7.2
					c0.6,0,1.4,6.6,1.5,7.7c0.2,1.1,1.2,9.2,3,9.2c1.8,0,2-1.9,0.9-8.7c0,0-1.6-8.3-1-8.2c1.6,0,1.4,14.4,4.2,14.5
					c1.4,0.1,1.2-3.1,0.7-7.4c-0.5-4.3-1.8-11.5-1.8-15.2c0-12.1-5.3-17.5-5.3-17.5S45.7,601.1,41.9,605.8z"/>
			</g>
		</g>
		<polygon class="st12" points="41.9,605.8 40.1,594.2 52.8,594.8 51.3,606 		"/>
	</g>
	<path class="st22" d="M146.9,175.1c7.6,15.6-68.4,45.8-88.2,21.2c-10.4-13,10-31.3,34.5-36.7C115,154.8,140.2,161.4,146.9,175.1z"
		/>
	<path class="st22" d="M157.2,178.3c11-4.9,13.5,21.4,8.6,23.8C160.8,204.5,149.7,181.6,157.2,178.3z"/>
	<path class="st6" d="M57.1,356.1c-17.2,8.4-25.8,68.8-29.3,135.7c-2.3,45.5,8.3,110.9,8.3,110.9l19.2-1c0,0,2.1-48.7,9.4-113.5
		C72.8,416.9,79,364.6,57.1,356.1z"/>
	<g>
		<path class="st5" d="M121.3,253.8c1.6-2.2-2-9.7-9.4-11.4s-10.9,3.4-11,5.4c-0.1,2,1.2,5.4,5.5,6.9c4.3,1.5,7.8,0.7,9.7,0.5
			C118.7,254.8,120.4,255.1,121.3,253.8z"/>
		<circle class="st23" cx="112.1" cy="247.2" r="6.4"/>
		<circle class="st5" cx="114.3" cy="250" r="2.6"/>
		<path class="st23" d="M121.7,252.1c0,0,0.7-3.8-4.2-8.3c-4.8-4.5-10.7-3-12.3-3.2c-1.7-0.2-3.4,0.4-2.8,0.8
			c0.5,0.4-0.9,1.8-2.2,1.6c-1.3-0.2,0.1,1.1,0.1,1.6c0,0.4-2.2,0.5-2.4,1c-0.1,0.5,1.4,1.5,1,1.6c-0.3,0.1-1.5,1.2-0.9,1.6
			c0.6,0.4,1.9,1.8,2.5,2.4s2,1,2,1s-1.8-2.9-1-5.1c0.8-2.2,3.2-4.6,7.4-4.4c4.2,0.2,6.9,2,8.9,3.5
			C119.8,247.6,121.7,252.1,121.7,252.1z"/>
	</g>
	<g>
		<path class="st5" d="M144.3,250.9c-2.1-1.8-0.5-9.9,6.3-13.4c6.8-3.6,11.4,0.6,12,2.5c0.6,1.9,0.2,5.5-3.6,8
			c-3.8,2.5-7.3,2.6-9.3,2.9C147.1,251.2,145.5,251.9,144.3,250.9z"/>
		<circle class="st23" cx="151.5" cy="242.2" r="6.4"/>
		<circle class="st5" cx="155.3" cy="243.7" r="2.6"/>
		<path class="st23" d="M143.5,249.3c0,0-1.6-3.5,2-9c3.6-5.6,9.6-5.6,11.1-6.2c1.6-0.6,3.4-0.4,2.9,0.1c-0.4,0.5,1.3,1.5,2.5,1
			c1.2-0.5,0.2,1.1,0.3,1.5c0.1,0.4,2.3-0.1,2.5,0.3c0.3,0.4-1,1.8-0.6,1.8c0.4,0,1.8,0.8,1.2,1.3c-0.5,0.5-1.4,2.2-1.8,2.9
			c-0.4,0.7-1.7,1.5-1.7,1.5s1-3.3-0.3-5.2c-1.3-1.9-4.3-3.7-8.3-2.5c-4,1.2-6.2,3.6-7.7,5.6C144.2,244.5,143.5,249.3,143.5,249.3z"
			/>
	</g>
	<g>
		<g>
			<path class="st24" d="M151.2,290.4l0.2,2.7c-10.8,2.4-14.8,1.4-30.5-1.6l0.4-1.1C136.7,292.5,139.7,292.5,151.2,290.4z"/>
		</g>
		<path class="st24" d="M129.9,298.7c0,0.7,2.4,2,5.8,1.8c3.3-0.2,6.2-1.8,6.2-2.6c0-0.7-3.1,0.3-6.4,0.5
			C132.1,298.6,129.9,297.9,129.9,298.7z"/>
	</g>
</g>
<g>
	<g>
		<path class="st20" d="M298.6,562.1c3.6,9.8,2.6,26.4,0.8,28.1c-1.8,1.8-3.3-0.1-3.3-0.1s-0.8,2.6-2.8,2.8c-1.8,0.1-2.5-2-2.5-2
			s-1.2,2.3-3.1,1.8c-1.9-0.5-2-2.5-2-2.5c-2.4,1-6.3,2.3-3-13c1.7-7.6,4.7-13.8,4.2-15.8C287.1,558.4,298.6,562.1,298.6,562.1z"/>
		<g id="case_2_">
			<g>
				<path class="st25" d="M342,695.1H232.3c-3.8,0-6.8-3-6.8-6.7l0-82.1c0-3.7,3-6.7,6.8-6.7h109.6c3.7,0,6.8,3,6.8,6.7l0.1,82.1
					C348.8,692.1,345.7,695.1,342,695.1z"/>
				<path class="st26" d="M342.6,695.1h-92.4c-3.4,0-6.2-2.7-6.2-6.1v-83.3c0-3.4,2.8-6.1,6.2-6.1h92.3c3.4,0,6.2,2.7,6.2,6.1
					l0.1,83.3C348.8,692.3,346,695.1,342.6,695.1z"/>
				<g>
					<path class="st27" d="M274.6,598.1l-5.5-1.1c1.4-6.8,7.9-19.7,23-19.7c15.2,0,20.8,13.1,21.7,20l-5.6,0.7
						c-0.1-0.6-2.1-15.1-16.1-15.1C277.9,582.8,274.8,597.4,274.6,598.1z"/>
					<polygon class="st28" points="277,599.6 266.8,599.6 266.8,595.4 277,595.4 					"/>
					<polygon class="st28" points="316.1,599.6 305.9,599.6 305.9,595.4 316.1,595.4 					"/>
				</g>
			</g>
		</g>
		<path class="st12" d="M287.8,592.6c-2.1-0.3-1.3-3.1-0.9-6.1c0.4-3.4,0.6-5.4,2.1-5.2c1.7,0.1,1.7,3.6,1.5,6.3
			C290.3,590.1,290.4,593,287.8,592.6z"/>
		<path class="st12" d="M292.9,592.9c-2.1-0.1-1.5-3-1.4-6c0.1-3.4,0.1-5.4,1.7-5.4c1.7,0,2,3.4,2,6.2
			C295.1,590.2,295.5,593.1,292.9,592.9z"/>
		<path class="st12" d="M297.9,591c-1.7,0-1.4-2.3-1.5-4.8c-0.1-2.8-0.2-4.4,1-4.5c1.4-0.1,1.8,2.7,2,4.9
			C299.6,588.7,300,591,297.9,591z"/>
		<path class="st12" d="M283,590.6c-1.5-0.4-1.7-2.5-1.3-5.2c0.4-2.5,1.4-5,3-4.8c1.7,0.2,1.9,3.3,1.5,6
			C285.9,589,285,591.1,283,590.6z"/>
		<path class="st20" d="M286.5,584.3c-0.2-0.7-0.4-1.4-0.4-2.2c-0.1-0.4-0.3-0.7-0.5-1c-0.1-0.1-0.3-0.2-0.4-0.2
			c-0.1-0.1-0.2-0.2-0.4-0.2c0,0,0,0,0,0c-0.6,0-1,0.3-1.5,0.8c-0.1,0.1-0.3,0.3-0.4,0.5c-0.2,0.3-0.3,0.6-0.5,0.9
			c-0.2,0.4-0.3,0.8-0.4,1.3c0.7,2,1.8,3.7,3.8,3c0.2-0.1,0.3-0.2,0.5-0.3c0-0.1,0-0.1,0-0.2C286.4,585.8,286.5,585.1,286.5,584.3z"
			/>
		<path class="st12" d="M295.5,562.5c0,0,3.6,7.5-5.8,13.7c-7.4,4.9-0.4,8.4-3.8,9.7c-3.5,1.3-4.8-5-4.4-7.2
			c0.3-2.2,5-11.5,5.4-17.3L295.5,562.5z"/>
	</g>
	<path class="st29" d="M309.3,297c-27.3,15.1-27,74.3-28.2,149.1c-1.2,74.7,2.1,114.9,2.1,114.9l19.1,1.6c0,0,13.5-31.9,20.7-103.2
		C330.2,388.1,309.3,297,309.3,297z"/>
	<path class="st30" d="M428.6,966.5c0,0,0.9,10.1-13.6,16.1c-14.4,6-15.5,4.7-14.7,8.7c0.8,4,41.6,2,41.4-2.7
		c-0.2-4.7-2.9-11.4-2.7-22.1C439.3,955.8,428.6,966.5,428.6,966.5z"/>
	<g>
		<path class="st30" d="M324.7,969.8c0,0-5.5,8.7-18.5,13.9c-13,5.2-21.3,4.1-20.4,7.5c1,3.5,51.3,1.7,50.9-2.3
			c-0.4-4.1-3.4-9.9-3.8-19.2C332.5,960.5,324.7,969.8,324.7,969.8z"/>
	</g>
	<path class="st31" d="M428.6,141.5c26.9,14.4-5.5,106.3-27.6,98.6C377.5,231.8,370.2,124.7,428.6,141.5z"/>
	<path class="st15" d="M451.3,487.4l-142.8,21.5c0,0,3.1,173.6,4.1,229.9c0.5,29,5,231.4,5,231.4h21.4c0,0,26.1-123.5,24.2-147.6
		c-1.9-24.1,4.8-83.8,4.8-83.8l8-132.8c0,0,13.5,54.2,24.2,143.3c7.2,59.9,15,135.5,20.9,221h24.4c0,0,19.8-118.6,18.7-145.1
		c-1.1-26.5-10.7-79.6-10.7-79.6l5.5-215.2L451.3,487.4z"/>
	<path class="st14" d="M368.9,825.1c-1.8,54.4-29.8,145.1-29.8,145.1l-21.4,0c0,0-4.5-202.4-5-231.4c-0.8-49-4.9-177.6-4.4-213.3
		l52.6,4.5l0,64.7l15.1,11.3l-8,132.8C368.1,738.8,369.6,804.5,368.9,825.1z"/>
	<path class="st14" d="M308.3,542c0,0,0.1-20.6-0.2-37.4l152.4,12.2l-2.1,24.2C452.3,550.8,346.5,561.9,308.3,542z"/>
	<path class="st32" d="M460.2,520.6c4.9-6.5,8.7-132-1.8-224c0,0-26.2-16.1-82.6-14.8c-41.6,0.9-66.6,15.2-66.6,15.2
		c-14,37.5-4.8,81-2.7,136.2c1.4,36.8-1.9,84.3,1.7,88.8c1.8,2.2,35.6,8.1,70.9,8.1C417.6,530.2,457.7,524,460.2,520.6z"/>
	<path class="st33" d="M408.2,201.1c0,0-12.9,55.1-2,84.4c-17.3,6.3-51,14.8-56.6-1.1c0,0,2.8-9.1,1-33.8L408.2,201.1z"/>
	<path class="st19" d="M358.1,314l-10.5,16.9L336.1,287c10.7-2.6,24.2-4.8,39.7-5.2c18-0.4,32.7,1,44.7,3.1l-37,46.5l-7.3-15.3
		l-8.7,13.4L358.1,314z"/>
	<path class="st34" d="M340.4,284.9c0,0,2,20.3,30.6,21.1c28.6,0.8,43.5-21.7,43.5-21.7S382.3,276.7,340.4,284.9z"/>
	<path class="st34" d="M405.5,215.4l-9.7-6.4l-42.4,5.3c0.9,12.6-2.1,57.3-2.6,62.6c5.5,6.2,17.9,17.1,42.2,25.4
		c15.6-6.5,22.7-18.2,22.7-18.2s-2.9-0.9-10.5-1.7C397.7,259.3,405.5,215.4,405.5,215.4z"/>
	<path class="st31" d="M325.4,194.7c0.8-31.7-14.9-33.7-11-50.7c9.1-40,118.6-49.1,118.7-0.3C433.3,172.2,325.4,194.7,325.4,194.7z"
		/>
	<path class="st12" d="M400.6,218.2c-4.2,28.1-6,27.4-31.3,45.1c-5.4,3.8-21.6,3.4-25.8,0.8c-4.2-2.6-4.2-6.9-9.6-16.6
		c-6.1-11.1-9-22.3-9.2-28.5c-0.3-8.3,0.8-13.9,0.8-19.7c0-11.3-1.9-21.4-1.1-34.3c0.8-12.7,16.5-20.5,35.9-19.6
		C404.8,147.3,404,165.7,400.6,218.2z"/>
	<path class="st31" d="M403,155.1c0,0,9.4,19.8-11,10.6c0,0-6.5-19.1-39.1-19.4c-25.2-0.2-28.2,17-28.2,17S335.6,107.1,403,155.1z"
		/>
	<path class="st31" d="M406.1,197.6l-4.8,7.6l-7,0.5c0,0,5.2-36.2-13-51.9C381.3,153.8,413.8,144.1,406.1,197.6z"/>
	<g>
		<path class="st12" d="M398.6,209.4c0.4,6.3,5.9,11.1,12.3,10.6c6.4-0.5,11.3-6,10.9-12.3c-0.4-6.3-5.9-11.1-12.3-10.6
			C403.1,197.6,398.2,203.1,398.6,209.4z"/>
		<path class="st35" d="M407.9,214.2c3-0.4,5.2-3.1,4.8-6c-0.3-2.9-2.9-4.9-5.8-4.7c0.8-0.5,1.6-0.8,2.5-0.9c3.5-0.4,6.7,2,7.1,5.5
			c0.4,3.5-2.2,6.7-5.7,7.1c-1.7,0.2-3.3-0.3-4.5-1.2C406.9,214.2,407.4,214.3,407.9,214.2z"/>
	</g>
	<path class="st31" d="M390,189.5c-1.3,2.1-6.7-2.5-14.9-5.1s-14.9-1.5-14.3-5c0.7-4.1,8.5-4.9,16.7-2.3
		C388.1,180.5,391.4,187.2,390,189.5z"/>
	<path class="st31" d="M323.2,187.9c1.2,2,4.3-0.6,10.3-2.9c5.9-2.3,11.5-2.5,10.7-5.9c-1-4-6.6-4-12.5-1.6
		C324,180.6,321.9,185.6,323.2,187.9z"/>
	<path class="st36" d="M403,168.5c-7.5-13.7,24.6-25.7,29.4-16.3C437.9,162.9,410.8,182.7,403,168.5z"/>
	<path class="st36" d="M427.2,138.5c0.5-28.5-68.1-30.1-72.1-16.3C348.1,146.9,427,153.7,427.2,138.5z"/>
	<g>
		<g>
			<g id="wrist_left_23_">
				<path class="st12" d="M261.9,486.5c0,0-5.1-3.7-12.7-5.5c-6-1.4-14-1.9-21.6-3.3c-4.5-0.9-7.7-1.7-8.1-1.3
					c-0.8,0.7,0.4,4.8,7.1,6.5c6.7,1.8,13.9,5.3,13.9,5.3L261.9,486.5z"/>
				<path class="st12" d="M265.7,500.5c0,0-18.3,9.2-35.5,11.3c-17.2,2.1-22.4-0.3-22.5-2.2c-0.1-1.8,3.1-1.3,9-1.6
					c4.8-0.3,9.8-0.1,9.7-0.9c-0.2-0.8-10.2-0.7-11.9-0.6c-1.7,0.1-13.6,0.5-14.2-2.4c-0.5-2.7,8-2.9,12.7-3c0,0,11.4-0.8,11.2-1.6
					c-0.3-0.8-10.4,0.4-12.2,0.6c-1.7,0.2-14.3,1.6-15.1-1c-0.7-2.6,2-3.7,12.8-4.7c0,0,13.1-0.8,12.8-1.6
					c-0.5-2.4-22.2,3.2-23.5-0.8c-0.6-2,4.3-2.9,10.8-3.7c6.7-0.8,18-1.6,23.6-2.9c18.2-4.5,28.4,1.3,28.4,1.3
					S271.4,493,265.7,500.5z"/>
			</g>
		</g>
		<polygon class="st12" points="265.7,500.5 283.9,498.8 278.2,480.2 261.9,486.5 		"/>
	</g>
	<g>
		<path class="st37" d="M308,526l0,11.6c63.6,18,139.6,2.3,152.1-0.6l-0.2-11C363.2,544.7,308,526,308,526z"/>
		<polygon class="st14" points="314.1,525.7 323.7,527.5 323.7,544.7 314.1,544.7 		"/>
		<polygon class="st14" points="343.8,530.2 353.4,532 353.4,549.2 343.8,549.2 		"/>
		<polygon class="st14" points="397.6,531.1 407.2,531.4 407.2,550 397.6,550 		"/>
		<polygon class="st14" points="438.1,526.6 447.7,526.9 447.7,542.9 438.1,542.9 		"/>
		<rect x="361.8" y="532.2" class="st38" width="28.2" height="16.6"/>
		<rect x="364.9" y="535.2" class="st37" width="22.2" height="10.7"/>
	</g>
	<path class="st39" d="M458.9,296.8c-19.5-11-37.1,37.1-53.7,81.8C389.4,421.2,373,461.2,391,471
		C432.5,493.5,490.4,314.6,458.9,296.8z"/>
	<polygon class="st40" points="361.6,292.4 367.7,306 372.8,292.4 378.7,306.4 367.5,316.6 355.2,306.4 	"/>
	<g>
		<path class="st41" d="M371.4,326c0,0,12.7,72.4,12.1,142.4l-17.9,29.4L347.7,469c5.6-55.2,15.8-143,15.8-143H371.4z"/>
		<polygon class="st41" points="362.9,308.3 353.3,300.6 348.8,308.3 358.5,318.2 361.8,313.9 		"/>
		<polygon class="st41" points="372.8,308.3 382.2,301.5 385.9,308.1 377.1,318.2 372,314.8 		"/>
		<path class="st14" d="M372.8,308.3c0,0-9.8,0-9.9,0c0,0-4.4,10-4.4,10l3.9,12.1l8.6,0.2l6-12.4L372.8,308.3z"/>
	</g>
	<polygon class="st32" points="361.7,292.4 348.8,321.5 339.9,284.8 349.9,272.4 	"/>
	<polygon class="st32" points="372.8,292.4 385.2,321.5 417.4,283.9 404.6,266.7 	"/>
	<path class="st39" d="M416.2,463.9c-38.8,38.6-144.7,37.8-144.7,37.8l-4.7-18.6c0,0,78.3-19.7,122.8-60.8L416.2,463.9z"/>
	<g>
		<path class="st24" d="M356.6,189.3c-3.7,12.8-8.7,29.8-8.7,32.2c0,2.5,11,5.4,13,4.6c2-0.8-2.3-36.8-2.3-36.8H356.6z"/>
		<path class="st42" d="M358.5,188c-3.7,12.8-8.7,29.8-8.7,32.2c0,2.5,11,5.4,13,4.6c2-0.8-2.3-36.8-2.3-36.8H358.5z"/>
	</g>
	<g>
		<path class="st5" d="M347.3,200.6c0.1-4.9-0.6-10.7-8.1-12.7c-7.6-2-11.1,4.8-11.1,7.2c0.1,2.4,2.2,6.1,6.4,6.6
			c4.2,0.4,7.9,0.1,9.5,0.2C345.4,202.2,347.2,201.6,347.3,200.6z"/>
		<ellipse class="st23" cx="338.4" cy="194.7" rx="6.3" ry="6.2"/>
		<path class="st5" d="M338.7,196.5c-0.1,1.5-1.4,2.8-2.9,2.7c-1.5-0.1-2.8-1.4-2.7-2.9c0.1-1.5,1.4-2.8,2.9-2.7
			C337.5,193.6,338.8,194.9,338.7,196.5z"/>
		<path class="st5" d="M366.8,201.2c0.2-4.9,1.2-10.6,8.9-12.2c7.7-1.6,10.9,5.4,10.5,7.9s-2.6,6-6.8,6.2c-4.2,0.2-7.9-0.5-9.5-0.2
			C368.6,202.9,366.8,202.2,366.8,201.2z"/>
		<path class="st23" d="M370.1,195.3c-0.1,3.5,2.6,6.3,6.1,6.4c3.5,0.1,6.4-2.5,6.5-6c0.1-3.5-2.6-6.3-6.1-6.4
			C373.1,189.1,370.2,191.8,370.1,195.3z"/>
		<path class="st5" d="M371,197c-0.1,1.5,1.2,2.9,2.7,2.9c1.5,0.1,2.9-1.2,2.9-2.7c0.1-1.5-1.2-2.9-2.7-2.9
			C372.3,194.2,371,195.5,371,197z"/>
	</g>
	<g>
		<path class="st43" d="M343,240.1l30.4-3c0,0-2.5,17.3-13.3,18.3C346.6,256.6,343,240.1,343,240.1z"/>
		<path class="st5" d="M347.8,240.2l2.3,3.4c0,0,2.2,4,8.5,2.7c6.3-1.3,11-5.8,11-5.8l0.6-2.5L347.8,240.2z"/>
	</g>
</g>
</svg>
