<?xml version="1.0" encoding="utf-8"?>
<!-- Generator: Adobe Illustrator 24.0.3, SVG Export Plug-In . SVG Version: 6.00 Build 0)  -->
<svg version="1.1" id="Layer_1" xmlns="http://www.w3.org/2000/svg" xmlns:xlink="http://www.w3.org/1999/xlink" x="0px" y="0px"
	 width="480px" height="600px" viewBox="0 0 480 600" style="enable-background:new 0 0 480 600;" xml:space="preserve">
<style type="text/css">
	.st0{fill:#F9B058;}
	.st1{opacity:0.3;}
	.st2{fill:#FFFFFF;}
	.st3{fill:none;stroke:#CCCCCC;stroke-width:4.7792;stroke-miterlimit:10;}
	.st4{fill:none;stroke:#808080;stroke-width:4.2781;stroke-miterlimit:10;}
	.st5{fill:#D13C69;}
	.st6{fill:none;}
	.st7{enable-background:new    ;}
</style>
<g>
	<rect id="table_3_" x="-33.5" y="-26.4" class="st0" width="548" height="632.3"/>
	<g id="XMLID_186_" class="st1">
	</g>
</g>
<g>
	<g>
		
			<rect x="67.6" y="33.7" transform="matrix(0.9834 -0.1817 0.1817 0.9834 -42.1612 46.8483)" class="st2" width="334" height="439.7"/>
		<line class="st3" x1="296.4" y1="396.6" x2="393.6" y2="378.7"/>
		<g>
			<line class="st4" x1="94.3" y1="179.4" x2="346.5" y2="132.8"/>
			<line class="st4" x1="91" y1="161.4" x2="343.2" y2="114.8"/>
			<line class="st4" x1="101" y1="215.4" x2="353.2" y2="168.8"/>
			<line class="st4" x1="97.3" y1="195.6" x2="349.5" y2="149"/>
			<line class="st4" x1="104.1" y1="231.3" x2="356.3" y2="184.7"/>
			<line class="st4" x1="107.1" y1="247.5" x2="359.3" y2="200.9"/>
			<line class="st4" x1="109.9" y1="263.5" x2="362.1" y2="216.9"/>
			<line class="st4" x1="113" y1="279.4" x2="365.2" y2="232.8"/>
			<line class="st4" x1="116" y1="295.6" x2="368.2" y2="249"/>
			<polygon class="st5" points="430.2,306.7 76.7,377.2 69.3,324.6 419.6,257.3 			"/>
			
				<rect x="174.5" y="295.3" transform="matrix(0.9834 -0.1817 0.1817 0.9834 -53.7041 54.7594)" class="st6" width="195" height="50.4"/>
			<g class="st7">
				<path class="st2" d="M191.8,336.7l-12.2,2.2c-0.5,0.1-0.8-0.1-0.9-0.6l-4.1-22.4c-0.1-0.5,0.1-0.8,0.6-0.9l12.2-2.2
					c0.5-0.1,0.8,0.1,0.9,0.6l0.5,2.5c0.1,0.5-0.1,0.8-0.6,0.9l-7.8,1.4c-0.3,0.1-0.4,0.2-0.4,0.5l0.9,4.8c0.1,0.3,0.2,0.4,0.5,0.3
					l6.4-1.2c0.5-0.1,0.8,0.1,0.9,0.6l0.5,2.5c0.1,0.5-0.1,0.8-0.6,0.9l-6.4,1.2c-0.3,0.1-0.4,0.2-0.4,0.5l1,5.2
					c0,0.3,0.2,0.4,0.5,0.3l7.8-1.4c0.5-0.1,0.8,0.1,0.9,0.6l0.5,2.5C192.4,336.3,192.2,336.6,191.8,336.7z"/>
				<path class="st2" d="M200.2,335.2l-3.2,0.6c-0.5,0.1-0.8-0.1-0.9-0.6l-3.2-17.4c-0.1-0.5,0.1-0.8,0.6-0.9l3.2-0.6
					c0.5-0.1,0.8,0.1,0.9,0.6l0.2,1.2l0.1,0c0.3-1.4,1.4-2.3,3.3-2.7l1.2-0.2c3.9-0.7,6.2,0.9,7,5l2.2,12.1c0.1,0.5-0.1,0.8-0.7,0.9
					l-3.1,0.6c-0.5,0.1-0.8-0.1-0.9-0.6l-2.2-11.9c-0.1-0.8-0.4-1.3-0.8-1.6c-0.4-0.3-1-0.3-1.8-0.2l-1.3,0.2
					c-1.7,0.3-2.4,1.4-2,3.3l2.1,11.3C200.9,334.8,200.7,335.1,200.2,335.2z"/>
				<path class="st2" d="M228.3,330l-3.2,0.6c-0.5,0.1-0.8-0.1-0.9-0.6l-4.1-22.4c-0.1-0.5,0.1-0.8,0.6-0.9l9.1-1.7
					c1.9-0.4,3.5-0.1,4.8,0.8c1.3,0.9,2.1,2.3,2.4,4.2l0.7,3.6c0.4,1.9,0.1,3.5-0.8,4.8c-0.9,1.3-2.3,2.1-4.2,2.4l-4.7,0.9
					c-0.3,0.1-0.4,0.2-0.4,0.5l1.3,7C229,329.6,228.8,329.9,228.3,330z M227.2,317.4l4-0.7c0.8-0.1,1.3-0.4,1.6-0.8
					c0.3-0.4,0.3-1,0.2-1.7l-0.6-3.1c-0.1-0.8-0.4-1.3-0.8-1.6s-1-0.3-1.8-0.2l-4,0.7c-0.3,0-0.4,0.2-0.3,0.5l1.2,6.7
					C226.7,317.3,226.9,317.5,227.2,317.4z"/>
				<path class="st2" d="M247.6,326.4l-3.2,0.6c-0.5,0.1-0.8-0.1-0.9-0.6l-3.2-17.4c-0.1-0.5,0.1-0.8,0.6-0.9l3.2-0.6
					c0.5-0.1,0.8,0.1,0.9,0.6l0.2,1.3l0.1,0c0.1-0.7,0.5-1.3,1.2-1.8c0.6-0.5,1.3-0.8,2.1-0.9l1.3-0.2c0.5-0.1,0.8,0.1,0.9,0.6
					l0.5,2.6c0.1,0.3,0,0.5-0.1,0.6c-0.1,0.1-0.3,0.2-0.6,0.2l-2.6,0.5c-1.7,0.3-2.4,1.4-2,3.4l2.1,11.2
					C248.4,326,248.2,326.3,247.6,326.4z"/>
				<path class="st2" d="M265.8,323.1l-3.3,0.6c-2,0.4-3.6,0.1-4.8-0.7c-1.3-0.8-2.1-2.2-2.4-4.2l-1.3-6.9c-0.4-2-0.1-3.6,0.8-4.8
					c0.9-1.2,2.3-2,4.3-2.4l3.3-0.6c1.9-0.4,3.5-0.1,4.8,0.7s2.1,2.3,2.5,4.2l1.3,6.9c0.4,1.9,0.1,3.5-0.8,4.8
					C269.1,321.9,267.7,322.7,265.8,323.1z M262.4,319.5l1.9-0.4c0.8-0.1,1.3-0.4,1.6-0.8c0.3-0.4,0.3-1,0.2-1.8l-1.2-6.6
					c-0.1-0.8-0.4-1.3-0.8-1.6c-0.4-0.3-1-0.3-1.8-0.2l-1.9,0.4c-0.8,0.1-1.3,0.4-1.6,0.8c-0.3,0.4-0.3,1-0.2,1.8l1.2,6.6
					c0.1,0.8,0.4,1.3,0.8,1.6C261,319.6,261.6,319.6,262.4,319.5z"/>
				<path class="st2" d="M287.2,315.7l0.5,2.6c0.1,0.3,0,0.5-0.1,0.6s-0.3,0.2-0.6,0.3l-5.6,1c-2,0.4-3.6,0.1-4.8-0.7
					c-1.3-0.8-2.1-2.2-2.4-4.2l-1.3-6.9c-0.4-2-0.1-3.6,0.8-4.8c0.9-1.2,2.3-2,4.3-2.4l5.6-1c0.5-0.1,0.8,0.1,0.9,0.6l0.5,2.6
					c0.1,0.3,0,0.5-0.1,0.6c-0.1,0.1-0.3,0.2-0.6,0.3l-4.8,0.9c-0.8,0.1-1.3,0.4-1.6,0.8c-0.3,0.4-0.3,1-0.2,1.8l1.2,6.4
					c0.1,0.8,0.4,1.3,0.8,1.6s1,0.3,1.8,0.2l4.8-0.9C286.8,315,287.1,315.2,287.2,315.7z"/>
				<path class="st2" d="M305,315.8l-8.2,1.5c-2,0.4-3.6,0.1-4.8-0.7c-1.3-0.8-2.1-2.2-2.4-4.2l-1.3-6.9c-0.4-2-0.1-3.6,0.8-4.8
					c0.9-1.2,2.3-2,4.3-2.4l2.9-0.5c2-0.4,3.6-0.1,4.8,0.7c1.3,0.8,2.1,2.3,2.4,4.2l0.9,4.7c0.1,0.5-0.1,0.8-0.6,0.9l-9.4,1.7
					c-0.3,0.1-0.4,0.2-0.4,0.5l0.2,0.8c0.1,0.8,0.4,1.3,0.8,1.6s1,0.3,1.8,0.2l7.5-1.4c0.5-0.1,0.8,0.1,0.9,0.7l0.5,2.5
					c0.1,0.3,0,0.5-0.1,0.6S305.3,315.8,305,315.8z M293.8,307l5.1-0.9c0.3,0,0.4-0.2,0.3-0.5l-0.3-1.8c-0.1-0.8-0.4-1.3-0.8-1.6
					s-1-0.3-1.8-0.2l-1.6,0.3c-0.8,0.1-1.3,0.4-1.6,0.8s-0.3,1-0.2,1.8l0.3,1.8C293.3,306.9,293.5,307,293.8,307z"/>
				<path class="st2" d="M316.6,313.7l-7.1,1.3c-0.5,0.1-0.8-0.1-0.9-0.6l-0.4-2.4c0-0.3,0-0.5,0-0.6c0.1-0.1,0.3-0.2,0.6-0.3
					l6.2-1.1c1.2-0.2,1.8-0.7,1.6-1.5l0-0.2c-0.1-0.6-0.7-1.1-1.8-1.4l-4.1-1.4c-1.4-0.4-2.4-0.9-3.2-1.6c-0.7-0.6-1.2-1.5-1.4-2.7
					c-0.3-1.7-0.1-3.1,0.7-4.1c0.8-1,2.1-1.7,4.1-2l6.2-1.1c0.5-0.1,0.8,0.1,0.9,0.6l0.4,2.4c0,0.3,0,0.5,0,0.6
					c-0.1,0.1-0.3,0.2-0.6,0.3l-5.2,1c-1.2,0.2-1.8,0.6-1.7,1.3l0,0.2c0.1,0.5,0.7,1,1.9,1.4l4.2,1.5c1.4,0.5,2.5,1,3.1,1.6
					c0.7,0.6,1.1,1.6,1.3,2.7C322.1,310.9,320.5,313,316.6,313.7z"/>
				<path class="st2" d="M334.8,310.3l-3.3,0.6c-2,0.4-3.6,0.1-4.8-0.7s-2.1-2.2-2.4-4.2l-1.3-6.9c-0.4-2-0.1-3.6,0.8-4.8
					c0.9-1.2,2.3-2,4.3-2.4l3.3-0.6c1.9-0.4,3.5-0.1,4.8,0.7c1.3,0.9,2.1,2.3,2.5,4.2l1.3,6.9c0.4,1.9,0.1,3.5-0.8,4.8
					C338.1,309.2,336.7,310,334.8,310.3z M331.4,306.7l1.9-0.4c0.8-0.1,1.3-0.4,1.6-0.8c0.3-0.4,0.3-1,0.2-1.8l-1.2-6.6
					c-0.1-0.8-0.4-1.3-0.8-1.6c-0.4-0.3-1-0.3-1.8-0.2l-1.9,0.4c-0.8,0.1-1.3,0.4-1.6,0.8c-0.3,0.4-0.3,1-0.2,1.8l1.2,6.6
					c0.1,0.8,0.4,1.3,0.8,1.6C330.1,306.8,330.6,306.9,331.4,306.7z"/>
			</g>
		</g>
	</g>
</g>
</svg>
