<?xml version="1.0" encoding="utf-8"?>
<!-- Generator: Adobe Illustrator 24.0.3, SVG Export Plug-In . SVG Version: 6.00 Build 0)  -->
<svg version="1.1" id="Layer_1" xmlns="http://www.w3.org/2000/svg" xmlns:xlink="http://www.w3.org/1999/xlink" x="0px" y="0px"
	 width="480px" height="600px" viewBox="0 0 480 600" style="enable-background:new 0 0 480 600;" xml:space="preserve">
<style type="text/css">
	.st0{fill-rule:evenodd;clip-rule:evenodd;fill:#674399;}
	.st1{fill-rule:evenodd;clip-rule:evenodd;fill:#FFFFFF;}
	.st2{fill:#A9D9EA;}
	.st3{fill:#E99865;}
	.st4{opacity:0.2;fill:#4A150F;enable-background:new    ;}
	.st5{fill:#9DC8D7;}
	.st6{fill:#F3AE7F;}
	.st7{fill:#D7D7D7;}
	.st8{fill:#865823;}
	.st9{fill:#FFB781;}
	.st10{opacity:0.34;fill:#4A150F;enable-background:new    ;}
	.st11{fill:#634217;}
	.st12{fill:#E97B59;}
	.st13{fill:#FFFFFF;}
	.st14{fill:#39170B;}
	.st15{fill:#FAB282;}
	.st16{fill:#513B3E;}
	.st17{fill:#463235;}
	.st18{opacity:0.2;fill:#FBEFC8;enable-background:new    ;}
	.st19{fill:#383535;}
	.st20{fill:#FFB476;}
	.st21{fill:#D1652F;}
	.st22{fill:#F79762;}
	.st23{fill:#F1EDDC;}
	.st24{fill:#E1D9B9;}
	.st25{fill:#E19A2C;}
	.st26{fill:#419B19;}
	.st27{fill:#3A7F1C;}
	.st28{fill:#8BCB0A;}
</style>
<g transform="matrix(0.948172,0,0,1.88724,-3.09674,-964.778)">
	<rect x="-3.2" y="509.6" class="st0" width="529.6" height="328.5"/>
</g>
<g>
	<g>
		<g transform="matrix(1,0,0,1,-593.365,-904.259)">
			
				<ellipse transform="matrix(0.7071 -0.7071 0.7071 0.7071 -476.9447 909.5738)" class="st1" cx="859.5" cy="1030.5" rx="92.9" ry="92.9"/>
		</g>
		<g transform="matrix(1,0,0,1,-569.688,-910)">
			<path class="st1" d="M868.4,1115.7l46.3,24.5l-20-48.3L868.4,1115.7z"/>
		</g>
	</g>
</g>
<g>
	<path class="st2" d="M358.2,477.6c14.2-4.9,26.7-11.7,37.2-19.1c31.4-22.1,46.6-49.9,46.6-49.9c-1.6-1.4-3.2-2.6-4.6-3.7
		c-10.3-8.1-14.9-9.6-14.9-9.6c-75.2-22.5-84.8,18.6-84.2,17.6l0,0l0,0c0,0,0,0.1,0,0.2c-0.7,1.9-1.3,3.7-1.8,5.5
		C326.9,453.7,358.2,477.6,358.2,477.6z"/>
	<path class="st3" d="M251.7,750.9c-0.4,1-6.3,16.2-9.8,24.3c-0.3,0.6-0.5,1.1-0.7,1.6c0,0,2.3,1.5,5.5-1.9c0,0,3.2,1,5.8-2
		c0,0,0.7,1.2,4.6-2c3.9-3.2,8-8.5,12.8-12.7c4.9-4.2,11.5-17.4,13-27.3c1.5-9.9,4.4-19.7,8.1-23.8s32.6-42.5,37.7-77.8
		c0,0,1-11.6-30.1-18.2c0,0-0.9,11-3.6,25.7c-2.2,12.2-5.6,27.1-10.8,40.4c-11.4,29.5-13.6,35.1-18.8,39.4
		c-5.3,4.4-14.5,6.1-16.8,7.8c-2.3,1.6-8.1,9.5-11.9,11.3c-3.8,1.8,1.9,4.8,6.2,3s10-3.8,10-3.8s-5.9,5.9-7.7,8.5
		c-1.7,2.6-8.4,18.9-15.2,24.9C226.3,771.6,237.2,771.7,251.7,750.9z"/>
	<path class="st4" d="M241.2,776.8c0,0,2.3,1.5,5.5-1.9c0,0,3.2,1,5.8-2c0,0,0.7,1.2,4.6-2c3.9-3.2,8-8.5,12.8-12.7
		c4.9-4.2,11.5-17.4,13-27.3c1.5-9.9,4.4-19.7,8.1-23.8s32.6-42.5,37.7-77.8c0,0,1-11.6-30.1-18.2c0,0-0.9,11-3.6,25.7l6.9,11.3
		c0,0,3.8,26.6-3.4,34.6c-7.2,8.1-22.5,43.9-26.9,53.3c-3.8,8.2-15.8,29.1-29.7,39.1C241.7,775.8,241.5,776.3,241.2,776.8z"/>
	<path class="st5" d="M267,698.1c0,0,49.2-167.1,54.8-243.1l22.3,142L296,719.8L267,698.1z"/>
	<path class="st2" d="M313.1,679.3c60.2,41.2,120.7-9.4,120.7-9.4s0-48.6-1.9-97.8s32-111.4,24.9-133.4s-14.9-30.1-14.9-30.1
		l-4.6-3.7c-11,19.9-25.7,34.5-39.4,44.9c-21,16-39.8,22-39.8,22c-22.2-21.6-22.6-42.8-21.2-52.8c0.5-3.1,1.1-5.2,1.3-5.8
		c0-0.1,0-0.1,0-0.2c-0.2,0.2-0.8,1-3.4,4.5c-1.6,2.2-4,5.4-7.6,10.2c-11,14.8-16.4,92.2-19.4,130.9
		C303.2,620.7,313.1,679.3,313.1,679.3z"/>
	<path class="st6" d="M362.7,402.5c12.1,9.1,21.7,6.7,28.6,3.2c6.3-2.6,9.7-11.9,9.3-14.3c0,0-2-8.3-4.7-12.3
		c-1.7-2.5-30.4,8.7-30.4,8.7s1-4.8-0.1,1.1c-0.5,2.7-1.1,5.6-1.8,8.4C363.6,397.3,363,399.4,362.7,402.5z"/>
	<g>
		<path class="st3" d="M363.4,724c0,0,1.4,2.9,3.1,7.3c1.6,4.5,9.3,5.5,15.3,7.3c0,0,1.3,4.4,8.6,1.8c0,0,1.5,2.9,7.7,0.1
			c0,0-0.7,1.4,4.4-3.2c5-4.6,1.1-25.5,4.5-32s59.9-92.2,53-120.7c-6.9-28.6-43.1-8.3-39.4,10.9c0,0,0.2,4.5-1.5,15.3
			c-2.4,14.9-8.6,41.7-24.3,84.7c0,0-4,2.8-13,4.5c-9.1,1.7-10.4,8.1-10.4,8.1s6.4,0.8,8.4,1.7s0.7,13.5-3,14.3s-5.8-1.2-5.8-1.2
			S367,721.6,363.4,724z"/>
		<path class="st4" d="M381.8,738.6c0,0,1.3,4.4,8.6,1.8c0,0,1.5,2.9,7.7,0.1c0,0-0.7,1.4,4.4-3.2c5-4.6,1.1-25.5,4.5-32
			s59.9-92.2,53-120.7c-6.9-28.6-43.1-8.3-39.4,10.9c0,0,0.2,4.5-1.5,15.3c0,0,17.3-5.7,17.7-2.8c0.4,2.9-1.8,39.4-23.1,69.5
			C392.5,707.7,397.8,738.2,381.8,738.6z"/>
		<path class="st5" d="M404.5,471.9c24.7,27.1,20.7,71.9,18,94.3c-1,8.4-31.2,123-31.2,123l26.6,17c97.2-147.8,50.7-288,26.2-297.4
			c-3.1-1.2-11.9,1.2-24,20.8C408,449.2,404.5,471.9,404.5,471.9z"/>
	</g>
	<path class="st7" d="M379,396.7"/>
	<g>
		<path class="st8" d="M305.1,248.7c0,7.8,9,8.4,9,8.4s2.8,0.2,7,0.2c11.5,0.3,40.6-8.2,41.4-8.2c16.9,0.3,28.3-2.9,36.9,4.2
			c15.2,12.7,19.1,20.6,15,48c-4.1,27.3,15.7,35.8,18.5,20.8s12.9-25.1,12.9-25.1s5-13.5,6.3-33.5c1.2-20-8.7-47.3-62.2-53.2
			c-27.1-3-47.5,1.5-61.4,8.4C314.7,225.6,305.1,234.6,305.1,248.7z"/>
		<path class="st9" d="M319.3,357.9c4.7,11.2,11.6,21.1,21.5,28.4c4.2,3.1,8.3,5.5,12.5,7.3c42.1,18.7,79.5-23.9,76.5-52.1
			c0,0,16.5,5.7,23.5-21.8s-17.8-29.6-24.4-6.8c0,0-8.3,3.8-8-0.9c0.4-4.7,11.4-48.4-11.4-61.9c-19.8-11.7-37.5-14.2-50-8.2
			c-37.8,18-45.1,15.4-45.1,15.4s-0.7,3.1-1.5,8.3l0,0c-0.4,2.3-0.7,4.9-1.1,7.9c-0.7,5.6-1.3,12.4-1.6,19.9
			c-0.1,2.7-0.2,5.6-0.2,8.5C309.9,312.9,316.4,351.1,319.3,357.9z"/>
		<path class="st8" d="M405.9,232.7c2.1,6.1,1.3,11.5-2,13.7l0,0c-0.9,0.6-1.9,0.9-3.2,1c-1.1,0.1-2.4,0-3.9-0.5c0,0,0,0-0.1-0.1
			c-0.4-0.2-3.2-0.8-22.6,0c-23.3,1-35.5,21.3-62.3,16.3s-25-34.7-12.2-43.6s9.2,1.5,21.4-0.9c8.2-1.6,27.5-8.6,45.4-9.2
			c0,0,0,0,0.1,0c8.7-0.3,17.1,0.8,23.8,4.8c5.1,3.1,9,6.9,11.7,10.9C403.8,227.7,405.1,230.2,405.9,232.7z"/>
		<path class="st10" d="M403.8,246.5c-1.7,1.1-4.1,1.4-7.1,0.5c0,0,0.7-1.1-22.7-0.1c-23.3,1-35.5,21.3-62.3,16.3
			s-25-34.7-12.2-43.6s9.2,1.5,21.4-0.9c8.2-1.6,27.5-8.6,45.4-9.2c0,0-40.2,7.1-44.8,22.1c-4.6,15,12.5,22.2,44.7,11.4
			C381.1,238,394.1,241.3,403.8,246.5z"/>
		<path class="st11" d="M382.4,274l23.7,13.3c0,0,7.9-2.7,3-7.6L386.3,267c0,0-1.6-1.3-2.9-0.2l-2.9,5.1
			C380.6,271.9,380.3,273.1,382.4,274z"/>
		<path class="st11" d="M349.2,275.7l-23.3,9.9c0,0-10.8-4.5-2.5-7.9l22.7-9.5c0,0,1.5-1.1,2.6,0.2l2.2,5.4
			C351,273.9,351.2,275.2,349.2,275.7z"/>
		<path class="st12" d="M362.8,296.5c-5.3,16.4-12.5,38.1-12.5,41.2c0,3.2,15.8,6.9,18.7,5.9c2.9-1.1-3.3-47.1-3.3-47.1H362.8z"/>
		<path class="st9" d="M365.6,294.9c-5.3,16.4-12.5,38.1-12.5,41.2c0,3.2,15.8,6.9,18.7,5.9c2.9-1.1-3.3-47.1-3.3-47.1H365.6z"/>
		<g>
			<path class="st13" d="M350.6,301.9c0.2-7.1-0.9-15.5-11.7-18.4c-10.9-2.9-16,6.9-15.8,10.5c0.1,3.5,3.1,8.9,9.1,9.6
				c6,0.6,11.4,0.1,13.6,0.4C348,304.3,350.6,303.4,350.6,301.9z"/>
			
				<ellipse transform="matrix(4.801688e-02 -0.9988 0.9988 4.801688e-02 28.6755 616.813)" class="st14" cx="337.9" cy="293.4" rx="9" ry="9"/>
			<path class="st13" d="M345.6,290.2c-0.1,2.2-2,4-4.2,3.9c-2.2-0.1-4-2-3.9-4.2c0.1-2.2,2-4,4.2-3.9
				C343.9,286,345.7,287.8,345.6,290.2z"/>
			<path class="st13" d="M378.6,302.8c0.3-7.1,1.8-15.4,12.8-17.7c11-2.3,15.6,7.8,15.1,11.5s-3.7,8.7-9.7,9
				c-6.1,0.3-11.3-0.7-13.6-0.4C381.2,305.3,378.6,304.3,378.6,302.8z"/>
			<path class="st14" d="M383.3,294.2c-0.1,5,3.7,9.2,8.7,9.3c5,0.1,9.2-3.7,9.3-8.7c0.1-5-3.7-9.2-8.7-9.3
				C387.6,285.3,383.6,289.2,383.3,294.2z"/>
			<path class="st13" d="M391.8,290.9c-0.1,2.2,1.7,4.2,3.9,4.2c2.2,0.1,4.2-1.7,4.2-3.9c0.1-2.2-1.7-4.2-3.9-4.2
				C393.7,286.9,391.9,288.7,391.8,290.9z"/>
		</g>
	</g>
	<g>
		<path class="st12" d="M350.8,369.6l-1.4-2.9c6.3-9.1,20.8-11.7,45.7-8.1l-0.2,1.3C371.1,356.5,356.5,361.4,350.8,369.6z"/>
	</g>
	<path class="st12" d="M361.9,375.3c0,1.2,3.8,3.2,9,2.8c5.2-0.3,9.8-2.9,9.7-4c0-1.2-4.9,0.4-10.1,0.7
		C365.4,375.2,361.9,374.2,361.9,375.3z"/>
	<g>
		<path class="st12" d="M430,320.2c5.8-9.3,17.6-9.7,17.9-1.2c0.4,8.4-15.9,22.4-19.1,18C425.7,332.6,428,323.5,430,320.2z"/>
		<path class="st9" d="M428.4,325.8c4.1-6.5,12.3-6.8,12.6-0.9c0.3,5.9-11.1,15.7-13.4,12.6C425.4,334.5,426.9,328.1,428.4,325.8z"
			/>
	</g>
</g>
<g>
	<g>
		<path class="st15" d="M262.5,574.6c21.6,33.8,19.9,85.1,19,90.9c-0.8,5.2,2.6,13.9,7.7,22.5c2.2,1.9,9.1,8.5,11.7,18.6
			c3.1,12.1-1,17.5-3.3,22.5c-2.3,5-14.7,13.5-18,16.2c-3.1,2.7-9.2,2.1-12.7,2.5c-1,0.1-1.9-0.3-2.3-1.1c-0.9-1.9,0.4-5.4,6.3-6.5
			c8.5-1.5,10.9-13.6,9.3-19.1c-1.6-5.6-8.5-12.3-8.5-12.3s-7.1,5.9-6.7,14.2c0.3,8.2-7.5,8.5-7.5,8.5l0.8-29.4l2.7-12.1
			c0-0.1,0-0.3,0.1-0.4c0-0.1,0.1-0.2,0.1-0.3l0.5-2.1l0,0c1.1-6.3-1.5-14.6-10.5-43.5c-4.6-14.9-12.3-29.9-19.4-41.9
			c-8.4-14.5-16-24.6-16-24.6C254.6,563.8,262.5,574.6,262.5,574.6z"/>
		<path class="st4" d="M265.5,747.6c0,0,8.4,0.9,12.3-1.4c20.6-12.2,22.4-22.8,23.5-26.3c2.1-6.7-0.6-19.1-9.9-29.3
			c-7.9-8.6-10.9-19.1-10-24.9s2.6-57.1-19-90.9c0,0-7.9-10.7-46.5,2.8c0,0,7.5,10.1,16,24.6l16.2,5.6c0,0,24.5,20.7,22.9,32.2
			c-1.6,11.5,9.4,52.2,11.8,63c2.1,9.4,5.5,34.4-13.7,38C265.3,741.6,262.8,745.5,265.5,747.6z"/>
		<path class="st16" d="M286.7,654.5c0,0-9.3-103-76.5-249.5l-45.7,36.7c0,0,29.7,73.8,44.2,112.8s41.1,110.1,41.1,110.1
			L286.7,654.5z"/>
	</g>
	<path class="st17" d="M225.6,573.9c-3.9-41.4-1.2-152.6-15.7-168.4c-3.7-4-26.4-12.1-37-16.4c-15.9,1.4-26.4-10.4-83.9,3.4
		c0,0-21.5,8.8-35.2,17.4c-1.9,1.2-3.9,2.5-6.1,4c0,0,0,0,0,0.1c-0.9,0.8-10.7,9.7-19.7,32c-9.4,23.5,35.7,89.9,33.1,142.4
		c-2.5,52.5-2.5,104.4-2.5,104.4s80.3,54.1,160.2,10.1C218.8,702.9,231.8,640.3,225.6,573.9z"/>
	<g>
		<path class="st15" d="M280.8,700.6c0,0-0.2,3.4,0,8.5s-8.6,9.3-14.9,13.5c0,0,0.6,4.9-9.6,5.3c0,0-0.2,3.4-9.3,3.3
			c0,0,1.5,1.1-7-1.4s-14.5-24.6-22.1-29.6c-7.6-5-120.8-65.8-127.1-96.7c-6.3-31,48.3-26,53.8-5.6c0,0,2.1,4.6,9.8,14.5
			c10.6,13.6,32.1,37.4,73.4,73.2c0,0,6.3,1.1,18.3-1c11.9-2.1,16.9,3.7,16.9,3.7s-7.5,3.5-9.3,5.2c-1.9,1.7,6.1,13.6,11.1,12.8
			s6.5-3.6,6.5-3.6S275.2,699.8,280.8,700.6z"/>
		<path class="st4" d="M265.9,722.6c0,0,0.6,4.9-9.6,5.3c0,0-0.2,3.4-9.3,3.3c0,0,1.5,1.1-7-1.4s-14.5-24.6-22.1-29.6
			c-7.6-5-120.8-65.8-127.1-96.7c-6.3-31,48.3-26,53.8-5.6c0,0,2.1,4.6,9.8,14.5c0,0-24.1,1.6-23.1,4.6c1,3,22.6,38,64.1,58.8
			C236.9,696.7,246.1,728.8,265.9,722.6z"/>
		<path class="st16" d="M79,451.4c5.2,22.6,24.4,88.3,46.1,118.9c25.6,35.9,90.3,98.9,90.3,98.9l-31.2,25.2
			C15.9,591.3,4,455.4,40,421.4C48,413.8,70.2,413.4,79,451.4z"/>
	</g>
	<path class="st15" d="M90.3,388.6c0,0,3.8,9.9,10,19.8c6.7,10.4,16.3,20.8,27.5,19.3c21.7-3,27.4-41,24.1-44.2
		c-3.3-3.2-16-2.6-11.9-29.7c0,0-15,6.7-47.3,1.8c0,0,1.7,4.5,2.5,10.5C96.2,373.3,95.9,382.5,90.3,388.6z"/>
	<path class="st18" d="M54.9,400.1L54.9,400.1L54.9,400.1L54.9,400.1z"/>
	<g>
		<path class="st19" d="M65.3,196.3c20.4-13,44.6-14,52.2-13.7c10.2,0.4,37.3,2.8,55.8,21.9c13.9,14.4,19.8,42.2,12.8,58.7
			c-6.9,16.5-9.1,27.2-9.1,27.2l-1.9,3.9c-3.9-12.6,3.2-20,3.4-47.6c0.2-24.7-6.4-50.2-59.6-60.6c-22.8,0.3-36.5,9.4-38.5,10.3
			c-4,1.8-10.2,6.3-15.7,17.5c-8.8,18.2-7.1,27.2-6.3,50.6c0.9,23.4,1.4,41.4,9.7,49.3c6.5,6.1,11.4,8.2,13.3,8.9
			c0.6,0.2,1,0.3,1,0.3c9-0.7,8.8-6.6,26.8-8.5c18-2,37.4-0.3,51.6,2.5c14.2,2.9,19.1,7.9,20.4,16.8s0.3,24.3-17,38.5
			s-51.4,14.9-75.7,6.9c-24.2-8.1-36.1-30.1-43.1-48c-6.2-15.6-5.1-30.3-5.3-49c0-2.7-0.1-5.6-0.2-8.5
			C39.1,250.8,42.2,211,65.3,196.3z"/>
		<path class="st9" d="M54.8,251.9c-0.4,12.7-1,31.2,2.6,46.6c1.4,6,3.4,11.5,6.4,16c4.1,6.5,10.1,11,18.7,11.9
			c0,0,5.8-4.4,17.7-7.5c0.2-0.1,0.4-0.2,0.6-0.2c15.4-3.9,41-5.5,77.5,7.1c0,0-0.8-2.6-1.5-7.1c-1-5.2-1.9-13-1.7-21.8
			c0.1-8.1,1.3-17,4.1-25.9c9-26.9-2-54-10.7-63.9c-15.8-18.2-50.5-28.9-83.1-15.4C59.3,202.4,55.4,227.3,54.8,251.9z"/>
		<g>
			<path class="st20" d="M55.4,285.2c-0.5,8.8-8.2,15.4-17.1,14.7c-8.9-0.6-15.7-8.3-15.2-17.1c0.5-8.8,8.2-15.4,17.1-14.7
				C49.1,268.7,55.9,276.4,55.4,285.2z"/>
			<path class="st21" d="M42.5,291.9c-4.2-0.5-7.2-4.3-6.7-8.4c0.5-4,4.1-6.8,8.1-6.5c-1.1-0.6-2.2-1.1-3.5-1.2
				c-4.9-0.6-9.4,2.8-9.9,7.7c-0.6,4.9,3,9.3,7.9,9.9c2.3,0.3,4.5-0.4,6.3-1.6C43.9,291.8,43.2,291.9,42.5,291.9z"/>
		</g>
	</g>
	<ellipse class="st22" cx="133.3" cy="341.7" rx="18.9" ry="9"/>
	<g>
		<path class="st19" d="M106.6,250.5l-28.4-7.2c0,0-4.1-8,3.3-8.2l27.3,7c0,0,2.2,0.1,2.4,2l-1.5,6.1
			C109.5,250.2,108.9,251.4,106.6,250.5z"/>
		<path class="st19" d="M146.1,250.2l26.6-6.1c0,0,6.7-10.7-2.8-8.5l-25.8,6.1c0,0-2,0-2.2,1.9l1.4,6.1
			C143.4,249.8,144,251,146.1,250.2z"/>
		<g>
			<path class="st12" d="M129.9,261.5c5.7,18,13.5,41.9,13.5,45.3c0,3.5-17.1,7.6-20.2,6.5c-3.1-1.2,3.6-51.8,3.6-51.8H129.9z"/>
			<path class="st9" d="M126.9,259.7c5.7,18,13.5,41.9,13.5,45.3c0,3.5-17.1,7.6-20.2,6.5c-3.1-1.2,3.6-51.8,3.6-51.8H126.9z"/>
		</g>
		<g>
			<path class="st13" d="M142.6,269.6c-0.2-7.6,0.9-16.8,12.6-19.9c11.8-3.1,17.2,7.5,17.1,11.3c-0.1,3.8-3.4,9.6-9.9,10.3
				c-6.5,0.6-12.3,0.1-14.6,0.4C145.4,272.1,142.7,271.1,142.6,269.6z"/>
			
				<ellipse transform="matrix(0.9988 -4.801676e-02 4.801676e-02 0.9988 -12.3184 7.806)" class="st14" cx="156.3" cy="260.3" rx="9.7" ry="9.7"/>
			<path class="st13" d="M155.4,265.1c0.1,2.4,2.1,4.4,4.5,4.2s4.4-2.1,4.2-4.5s-2.1-4.4-4.5-4.2
				C157.2,260.6,155.2,262.6,155.4,265.1z"/>
			<path class="st13" d="M112.4,270.5c-0.4-7.6-1.9-16.6-13.8-19.1c-11.9-2.5-16.8,8.5-16.3,12.4c0.5,4,4,9.4,10.5,9.7
				s12.2-0.7,14.6-0.4C109.6,273.2,112.4,272.1,112.4,270.5z"/>
			<path class="st14" d="M107.3,261.2c0.1,5.4-4,9.9-9.4,10c-5.4,0.1-9.9-4-10-9.4c-0.1-5.4,4-9.9,9.4-10
				C102.7,251.6,107,255.8,107.3,261.2z"/>
			<path class="st13" d="M105.6,265.9c0.1,2.4-1.9,4.5-4.2,4.5c-2.4,0.1-4.5-1.9-4.5-4.2c-0.1-2.4,1.9-4.5,4.2-4.5
				C103.4,261.6,105.4,263.6,105.6,265.9z"/>
		</g>
	</g>
	<g>
		<path class="st18" d="M51.5,400.4L51.5,400.4C51.6,400.4,51.6,400.4,51.5,400.4C51.6,400.4,51.6,400.4,51.5,400.4z"/>
		<path class="st23" d="M172.6,388.4c-21.7-4.9-35.6,9.5-43.9,8.6c-7.2-0.7-36.1-9.9-53.9,0.6l73.9,139.2L172.6,388.4z"/>
		<polygon class="st24" points="137.2,407.3 142.7,412.2 160.6,385.6 153.6,382.9 129.3,397.4 89.3,388.6 83.4,393.1 119,414.8 
			122.3,409.5 124.7,412.4 130.9,503.3 138.1,517.3 153.6,507.9 155.1,497.9 135.2,411.1 		"/>
		<polygon class="st25" points="149.9,545.6 133.4,508.9 124.6,394.6 129.2,393.6 154.4,506.2 		"/>
		<polygon class="st25" points="130.7,416 120.6,404.4 122,393.5 131.7,391.4 137.2,403 		"/>
		<polygon class="st23" points="118.9,414.3 125.3,392.8 89.5,382.5 85.9,390.2 		"/>
		<polygon class="st23" points="142.7,412.2 128.3,391.6 154.2,379.6 158.2,383.9 		"/>
	</g>
</g>
<g>
	<g>
		<polygon class="st26" points="191.5,130.9 278.5,192.1 318.4,169.4 318.4,146.3 191.5,119.4 		"/>
	</g>
	<g>
		<polygon class="st27" points="191.5,142.5 278.5,192.1 278,162.7 191.5,119.4 		"/>
	</g>
	<g>
		<g>
			<path class="st28" d="M191.6,119.3c28.6,17.3,57.7,33.8,86.8,50.3c13.4-7.7,26.8-15.3,40.2-23c-28.8-17-57.7-33.8-86.8-50.3
				C218.4,104,205,111.7,191.6,119.3z"/>
			<path class="st26" d="M233.4,100.8c-10.9,6.2-21.7,12.3-32.6,18.5c26,15.5,52.4,30.5,78.7,45.6c10.8-6.2,21.5-12.4,32.3-18.6
				C285.7,131,259.6,115.8,233.4,100.8z M272.9,156.5c-7.4-4.3-14.9-8.5-22.3-12.8c6,0.6,12.9-0.6,17.9-3.5c5.3-3.1,7.3-7.3,5.9-11
				c7.6,4.4,15.1,8.8,22.7,13.2c-3.2,1.9-4.2,6.1-0.8,8c-4.7,2.7-7.1,4.1-11.8,6.8C281.1,155.3,276.2,154.6,272.9,156.5z
				 M226.1,109.7c3.4,1.9,10.6,1.4,13.9-0.5c7.4,4.2,14.7,8.5,22.1,12.7c-6.4-0.9-13.7,0.3-19.2,3.3c-5.1,2.9-7.3,6.8-6.2,10.3
				c-7.1-4.1-14.3-8.3-21.4-12.5c3.3-1.9,2.1-4.7-1.2-6.6C218.9,113.8,221.3,112.4,226.1,109.7z"/>
			<g>
				<path class="st13" d="M264.2,133c0-0.1,0-0.3-0.1-0.6c-0.1-0.2-0.2-0.5-0.4-0.7c-0.2-0.3-0.4-0.5-0.7-0.8
					c-0.3-0.3-0.6-0.5-1-0.8c-1.6,0.9-2.5,1.4-4.1,2.3c0.1,0.1,0.2,0.2,0.3,0.3c0.6,0.5,1.1,1,1.5,1.5c0.4,0.5,0.7,0.9,0.8,1.3
					c0.1,0.4,0.1,0.8-0.1,1.2c-0.2,0.4-0.6,0.8-1.3,1.1c-0.7,0.4-1.4,0.7-2.2,0.8c-0.8,0.1-1.5,0.2-2.3,0.1
					c-0.8-0.1-1.6-0.3-2.4-0.5c-0.8-0.3-1.6-0.6-2.3-1c-0.8,0.5-1.2,0.7-2.1,1.2c-0.4-0.3-0.7-0.4-1.1-0.6c0.8-0.5,1.3-0.7,2.1-1.2
					c-0.9-0.6-1.7-1.3-2.3-2c-0.6-0.7-1-1.4-1.2-2.2c1.2-0.2,1.8-0.3,3-0.5c0,0.2,0,0.4,0.2,0.7c0.1,0.3,0.3,0.6,0.5,0.9
					c0.2,0.3,0.5,0.7,0.8,1c0.3,0.3,0.7,0.7,1.2,1c1.6-0.9,2.5-1.4,4.1-2.3c-0.1-0.1-0.1-0.1-0.2-0.2c-0.1-0.1-0.1-0.1-0.2-0.2
					c-0.6-0.5-1-1-1.4-1.5c-0.3-0.4-0.6-0.8-0.6-1.2c-0.1-0.4,0-0.7,0.2-1.1c0.2-0.3,0.6-0.7,1.1-1c0.6-0.4,1.3-0.6,2.1-0.8
					c0.7-0.1,1.5-0.2,2.3-0.2c0.8,0,1.6,0.2,2.4,0.4c0.8,0.2,1.6,0.5,2.3,0.9c0.8-0.5,1.2-0.7,2-1.1c0.4,0.3,0.7,0.4,1.1,0.6
					c-0.8,0.5-1.2,0.7-2,1.1c0.9,0.6,1.5,1.1,2,1.8c0.5,0.6,0.8,1.2,1,1.8C265.9,132.7,265.4,132.8,264.2,133z M256.8,129.3
					c-0.6,0.3-0.8,0.7-0.6,1.1c0.1,0.4,0.5,0.9,1.1,1.5c1.6-0.9,2.3-1.3,3.9-2.2c-0.9-0.5-1.7-0.7-2.5-0.8
					C258,128.8,257.3,129,256.8,129.3z M256.3,136.6c0.6-0.3,0.8-0.7,0.6-1.2c-0.2-0.5-0.6-1-1.3-1.7c-1.6,0.9-2.4,1.3-3.9,2.2
					c0.9,0.5,1.8,0.8,2.6,0.9C255,137,255.7,136.9,256.3,136.6z"/>
			</g>
			<path class="st13" d="M276,145.1c-1.7,1-1.7,2.7,0.2,3.8c1.8,1.1,4.7,1.1,6.5,0.1c1.7-1,1.7-2.7-0.2-3.8
				C280.6,144.2,277.7,144.1,276,145.1z"/>
			<path class="st13" d="M234.3,121c-1.8,1-4.7,0.9-6.6-0.1c-1.8-1.1-1.9-2.7-0.1-3.7c1.8-1,4.7-0.9,6.5,0.1
				C236,118.3,236,120,234.3,121z"/>
		</g>
	</g>
</g>
<g>
	<g>
		<polygon class="st26" points="206.4,86.9 293.4,148.1 333.4,125.4 333.4,102.4 206.4,75.4 		"/>
	</g>
	<g>
		<polygon class="st27" points="206.4,98.5 293.4,148.1 292.9,118.7 206.4,75.4 		"/>
	</g>
	<g>
		<g>
			<path class="st28" d="M206.6,75.4c28.6,17.3,57.7,33.8,86.8,50.3c13.4-7.7,26.8-15.3,40.2-23c-28.8-17-57.7-33.8-86.8-50.3
				C233.4,60,220,67.7,206.6,75.4z"/>
			<path class="st26" d="M248.3,56.8c-10.9,6.2-21.7,12.3-32.6,18.5c26,15.5,52.4,30.5,78.7,45.6c10.8-6.2,21.5-12.4,32.3-18.6
				C300.7,87,274.5,71.9,248.3,56.8z M287.9,112.5c-7.4-4.3-14.9-8.5-22.3-12.8c6,0.6,12.9-0.6,17.9-3.5c5.3-3.1,7.3-7.3,5.9-11
				c7.6,4.4,15.1,8.8,22.7,13.2c-3.2,1.9-4.2,6.1-0.8,8c-4.7,2.7-7.1,4.1-11.8,6.8C296.1,111.4,291.1,110.6,287.9,112.5z M241,65.8
				c3.4,1.9,10.6,1.4,13.9-0.5c7.4,4.2,14.7,8.5,22.1,12.7c-6.4-0.9-13.7,0.3-19.2,3.3c-5.1,2.9-7.3,6.8-6.2,10.3
				c-7.1-4.1-14.3-8.3-21.4-12.5c3.3-1.9,2.1-4.7-1.2-6.6C233.8,69.8,236.2,68.5,241,65.8z"/>
			<g>
				<path class="st13" d="M279.2,89c0-0.1,0-0.3-0.1-0.6c-0.1-0.2-0.2-0.5-0.4-0.7c-0.2-0.3-0.4-0.5-0.7-0.8c-0.3-0.3-0.6-0.5-1-0.8
					c-1.6,0.9-2.5,1.4-4.1,2.3c0.1,0.1,0.2,0.2,0.3,0.3c0.6,0.5,1.1,1,1.5,1.5c0.4,0.5,0.7,0.9,0.8,1.3c0.1,0.4,0.1,0.8-0.1,1.2
					c-0.2,0.4-0.6,0.8-1.3,1.1c-0.7,0.4-1.4,0.7-2.2,0.8c-0.8,0.1-1.5,0.2-2.3,0.1c-0.8-0.1-1.6-0.3-2.4-0.5c-0.8-0.3-1.6-0.6-2.3-1
					c-0.8,0.5-1.2,0.7-2.1,1.2c-0.4-0.3-0.7-0.4-1.1-0.6c0.8-0.5,1.3-0.7,2.1-1.2c-0.9-0.6-1.7-1.3-2.3-2c-0.6-0.7-1-1.4-1.2-2.2
					c1.2-0.2,1.8-0.3,3-0.5c0,0.2,0,0.4,0.2,0.7c0.1,0.3,0.3,0.6,0.5,0.9c0.2,0.3,0.5,0.7,0.8,1c0.3,0.3,0.7,0.7,1.2,1
					c1.6-0.9,2.5-1.4,4.1-2.3c-0.1-0.1-0.1-0.1-0.2-0.2c-0.1-0.1-0.1-0.1-0.2-0.2c-0.6-0.5-1-1-1.4-1.5c-0.3-0.4-0.6-0.8-0.6-1.2
					c-0.1-0.4,0-0.7,0.2-1.1c0.2-0.3,0.6-0.7,1.1-1c0.6-0.4,1.3-0.6,2.1-0.8c0.7-0.1,1.5-0.2,2.3-0.2c0.8,0,1.6,0.2,2.4,0.4
					c0.8,0.2,1.6,0.5,2.3,0.9c0.8-0.5,1.2-0.7,2-1.1c0.4,0.3,0.7,0.4,1.1,0.6c-0.8,0.5-1.2,0.7-2,1.1c0.9,0.6,1.5,1.1,2,1.8
					c0.5,0.6,0.8,1.2,1,1.8C280.9,88.8,280.3,88.9,279.2,89z M271.7,85.3c-0.6,0.3-0.8,0.7-0.6,1.1c0.1,0.4,0.5,0.9,1.1,1.5
					c1.6-0.9,2.3-1.3,3.9-2.2c-0.9-0.5-1.7-0.7-2.5-0.8C273,84.9,272.3,85,271.7,85.3z M271.2,92.6c0.6-0.3,0.8-0.7,0.6-1.2
					c-0.2-0.5-0.6-1-1.3-1.7c-1.6,0.9-2.4,1.3-3.9,2.2c0.9,0.5,1.8,0.8,2.6,0.9C270,93.1,270.6,92.9,271.2,92.6z"/>
			</g>
			<path class="st13" d="M290.9,101.2c-1.7,1-1.7,2.7,0.2,3.8c1.8,1.1,4.7,1.1,6.5,0.1c1.7-1,1.7-2.7-0.2-3.8
				C295.6,100.2,292.7,100.2,290.9,101.2z"/>
			<path class="st13" d="M249.2,77c-1.8,1-4.7,0.9-6.6-0.1c-1.8-1.1-1.9-2.7-0.1-3.7c1.8-1,4.7-0.9,6.5,0.1
				C250.9,74.4,251,76,249.2,77z"/>
		</g>
	</g>
</g>
</svg>
