<?xml version="1.0" encoding="utf-8"?>
<!-- Generator: Adobe Illustrator 24.0.3, SVG Export Plug-In . SVG Version: 6.00 Build 0)  -->
<svg version="1.1" id="Layer_1" xmlns="http://www.w3.org/2000/svg" xmlns:xlink="http://www.w3.org/1999/xlink" x="0px" y="0px"
	 width="480px" height="600px" viewBox="0 0 480 600" style="enable-background:new 0 0 480 600;" xml:space="preserve">
<style type="text/css">
	.st0{fill:#329394;}
	.st1{fill:#227A78;}
	.st2{opacity:0.5;}
	.st3{opacity:0.2;}
	.st4{opacity:0.1;}
	.st5{opacity:0.2;fill:#329394;}
	.st6{opacity:0.2;fill:#156677;enable-background:new    ;}
	.st7{fill:#252625;}
	.st8{fill:#CE5241;}
	.st9{fill:none;stroke:#C0C0C0;stroke-width:2.2882;stroke-miterlimit:10;}
	.st10{fill:#F6F6F6;}
	.st11{fill:#39AFE4;}
	.st12{fill:#378AC6;}
	.st13{fill:#3569AD;}
	.st14{fill:#324898;}
	.st15{fill:#FFD75F;}
	.st16{fill:none;stroke:#F7FBFC;stroke-width:16.0173;stroke-miterlimit:10;}
	.st17{fill:#F7FBFC;}
	.st18{fill:#B4664E;}
	.st19{fill:none;stroke:#252625;stroke-width:2.2205;stroke-miterlimit:10;}
	.st20{fill:#FAB282;}
	.st21{fill:#513B3E;}
	.st22{fill:#463235;}
	.st23{fill:#383535;}
	.st24{fill:#FFB781;}
	.st25{fill:#FFB476;}
	.st26{fill:#D1652F;}
	.st27{fill:#E97B59;}
	.st28{fill:#FFFFFF;}
	.st29{fill:#39170B;}
	.st30{opacity:0.2;fill:#FBEFC8;enable-background:new    ;}
	.st31{fill:#F1EDDC;}
	.st32{fill:#E1D9B9;}
	.st33{fill:#E19A2C;}
	.st34{fill:none;stroke:#CCCCCC;stroke-width:2.2802;stroke-miterlimit:10;}
	.st35{fill:none;stroke:#CCCCCC;stroke-width:7;stroke-miterlimit:10;}
	.st36{fill:none;stroke:#818181;stroke-width:1.6641;stroke-miterlimit:10;}
	.st37{fill:#02AE4D;}
	.st38{fill:#4993C2;}
	.st39{opacity:0.4;}
	.st40{fill:none;stroke:#156677;stroke-width:6.2257;stroke-miterlimit:10;}
	.st41{fill:#156677;}
	.st42{fill:none;stroke:#FFFFFF;stroke-width:6.2257;stroke-miterlimit:10;}
	.st43{fill:#363A45;}
</style>
<rect x="-143" y="-10.8" class="st0" width="681.1" height="634.2"/>
<g>
	<g>
		<path class="st1" d="M327.6,607.3v3.5h3v-3.5c19.8,0.2,39.5,0.3,59,0.3c31.3,0.1,63.2,0.3,95.2,0.8c0,0.2,0,0.4,0,0.6h3
			c0-0.2,0-0.4,0-0.5c8.8,0.2,17.6,0.3,26.4,0.6c-0.1,0.6-0.1,1.2-0.2,1.7h3c0.1-0.6,0.1-1.1,0.2-1.7c7,0.2,14,0.4,21.1,0.7v-1.7
			c-16.8-0.6-33.6-1-50.4-1.3c0.1-4.4,0.4-8.9,0.7-13.3c0.4-5.2,0.8-10.5,0.8-15.7c0-1.3,0-2.5-0.1-3.8c15.9,0.2,32.2,0.5,48.9,0.8
			v-1.7c-9.8-0.2-19.4-0.3-28.9-0.5c0.4-6.3,0.5-12.9,0.5-19.2c10.1,0,19.5,0.1,28.5,0.2v-1.7c-15.8-0.2-33-0.3-52.7-0.3
			c-6.7,0-13.5,0-20.2,0c-0.1-2.6-0.2-5.1-0.2-7.7c0-9.9,0.7-19.3,2.1-28.2c23.6,0.5,47.3,1.1,71,1.8v-1.7c-9-0.3-17.9-0.5-26.9-0.8
			c0.2-3.7,0.3-7.4,0.5-11c0.4-7.9,0.9-16.2,0.9-24.3c8.9,0.2,17.3,0.4,25.5,0.6v-1.7c-17.4-0.5-36-0.8-57-0.9
			c-0.4-9.3-0.4-18.3-0.4-27.8h-3c0,9.5,0,18.5,0.4,27.8c-4.4,0-8.9,0-13.5,0c-19.8,0-39.9,0.1-59.4,0.3c-7.7,0.1-15.5,0.1-23.4,0.2
			l-0.2-1.6c-1.4-11.9-2.8-23.1-3.7-34.7c14.1,1,28.4,2.2,43,3.4c38.5,3.2,78.2,6.5,117.1,6.5v-1.7c-3.7,0-7.4,0-11.1-0.1
			c-0.2-3.1-0.4-6.1-0.5-9.2c-0.4-6.8-0.9-13.8-0.9-20.6c4.2,0.2,8.3,0.4,12.5,0.6v-1.7c-9.4-0.4-18.9-0.9-28.3-1.3
			c-20.4-0.9-40.9-1.9-61.5-2.8c0.1-4.9,0.7-9.8,1.3-14.6c0.5-4,1-8.2,1.2-12.3c17.6,0.4,35.2,0.7,52.6,1.2
			c11.6,0.3,23.2,0.6,34.8,0.9v-1.7c-11.5-0.3-23.1-0.6-34.6-0.9c-39.2-1-79-1.7-118.9-2.6c0.2-3.5,0.6-7.1,1-10.5
			c0.6-5.5,1.3-11.1,1.3-16.8h-3c0,5.6-0.7,11.2-1.3,16.6c-0.4,3.5-0.8,7-1,10.6c-25.8-0.6-51.7-1.4-77.5-2.5
			c-0.5-9-0.9-17.5-0.9-26.3c10.7,0.3,21.3,0.5,31.9,0.7c0,0,0,0,0,0.1l2.2,0c20.5,0.4,40.9,0.6,61.2,0.6c29,0,58.3-0.4,87.6-1.1
			l1.2,0.1c0,0,0-0.1,0-0.2c12.5-0.3,24.9-0.7,37.4-1.1c0,1,0.1,2.1,0.1,3.1c0,4.3-0.3,8.7-0.6,12.9c-0.3,4.3-0.6,8.7-0.6,13
			c0,1.3,0,2.5,0.1,3.8l3,0c-0.1-1.2-0.1-2.5-0.1-3.7c0-4.3,0.3-8.7,0.6-12.9c0.3-4.3,0.6-8.7,0.6-13c0-1.1,0-2.2-0.1-3.3
			c3.5-0.1,7-0.3,10.5-0.4v-1.7c-16.8,0.7-33.6,1.2-50.5,1.6c1.2-4.7,2-9.5,2.8-14.1c0.9-5.3,1.7-10.7,3.2-15.9l-3-0.3
			c-1.5,5.3-2.4,10.7-3.3,16c-0.8,4.7-1.6,9.6-2.8,14.4c-23.3,0.6-46.5,0.9-69.6,1c0.9-11.1,1.4-22.2,1.4-33.3
			c40.2,0.9,81.2,1.9,121.8,3.1v-1.7c-3.5-0.1-7-0.2-10.5-0.3c0-9.4,0.8-17.5,1.6-26.9l0.3-3.7l-3-0.1l-0.3,3.7
			c-0.9,9.4-1.6,17.5-1.6,26.9c-24.8-0.7-49.6-1.4-74.3-1.9c0.5-4.9,0.8-9.9,1.2-14.8c0.4-5.3,0.7-10.6,1.2-15.8l-0.9,0
			c28.7,0.5,57.6,1.2,86.3,2.2v-1.7c-12.8-0.4-25.6-0.8-38.5-1.1c0-1.1-0.1-2.2-0.1-3.3c0-3,0.2-6.2,0.3-9.2c0.2-3,0.3-6.1,0.3-9.1
			h-3c0,3-0.2,6.1-0.3,9.1c-0.2,3-0.3,6.2-0.3,9.3c0,1.1,0.1,2.1,0.1,3.2c-33.1-0.8-66.2-1.3-98.8-1.8c0-0.2,0-0.3,0-0.5
			c0-4.6,0.8-9.4,1.6-14c0.4-2.1,0.7-4.2,1-6.2c24,0.6,48.4,1.1,72.6,1.1c23.6,0,45.2-0.5,65.2-1.5v-1.7c-7.5,0.4-15.3,0.7-23.3,0.9
			c0.8-4.9,1.1-9.9,1.5-14.8c0.2-3.3,0.5-6.6,0.8-9.9c7,0.2,14,0.4,21.1,0.7v-1.7c-16.8-0.6-33.6-1-50.4-1.3
			c0.1-4.4,0.4-8.9,0.7-13.3c0.4-5.2,0.8-10.5,0.8-15.7c0-1.3,0-2.5-0.1-3.8c15.9,0.2,32.2,0.5,48.9,0.8v-1.7
			c-9.8-0.2-19.4-0.3-28.9-0.5c0.4-6.3,0.5-12.9,0.5-19.2c10.1,0,19.5,0.1,28.5,0.2v-1.7c-15.8-0.2-33-0.3-52.7-0.3
			c-6.7,0-13.5,0-20.2,0c-0.1-2.6-0.2-5.1-0.2-7.7c0-9.9,0.7-19.3,2.1-28.2c23.6,0.5,47.3,1.1,71,1.8v-1.7c-9-0.3-17.9-0.5-26.9-0.8
			c0.2-3.7,0.3-7.4,0.5-11c0.4-7.9,0.9-16.2,0.9-24.3c8.9,0.2,17.3,0.4,25.5,0.6v-1.7c-17.4-0.5-36-0.8-57-0.9
			c-0.4-9.3-0.4-18.3-0.4-27.8h-3c0,9.5,0,18.5,0.4,27.8c-4.4,0-8.9,0-13.5,0c-19.8,0-39.9,0.1-59.4,0.3c-7.7,0.1-15.5,0.1-23.4,0.2
			l-0.2-1.6c-1.4-11.9-2.8-23.1-3.7-34.7c14.1,1,28.4,2.2,43,3.4c38.5,3.2,78.2,6.5,117.1,6.5v-1.7c-3.7,0-7.4-0.1-11.1-0.1
			c-0.2-3.1-0.4-6.1-0.5-9.2c-0.4-6.8-0.9-13.8-0.9-20.6c4.2,0.2,8.3,0.4,12.5,0.6v-1.7c-9.4-0.4-18.9-0.9-28.3-1.3
			c-20.4-0.9-40.9-1.9-61.5-2.8c0.1-4.9,0.7-9.8,1.3-14.6c0.5-4,1-8.2,1.2-12.3l-3-0.1c-0.2,4.1-0.7,8.2-1.2,12.3
			c-0.6,4.8-1.1,9.7-1.3,14.6c-32.8-1.5-65.9-2.8-99.1-3.9c1.4-8.6,2.8-17.5,3.7-26.3c51.4,2,102.9,3.4,153.3,4.6
			c11.6,0.3,23.2,0.6,34.8,0.9v-1.7c-11.5-0.3-23.1-0.6-34.6-0.9c-10.1-0.3-20.3-0.5-30.6-0.8c0.7-4.8,1-9.5,1.3-14.1
			c0.3-5,0.6-10,1.4-15.2h-3c-0.8,5.1-1.1,10.2-1.4,15.1c-0.3,4.6-0.6,9.3-1.3,14.1c-47.5-1.2-95.7-2.6-143.7-4.8
			c0.3-2.9,0.7-5.8,1.1-8.7c0.7-5.2,1.4-10.5,1.7-15.7h-3c-0.3,5.1-1,10.4-1.7,15.5c-0.4,2.9-0.8,5.8-1.1,8.7
			c-7.3-0.3-43.2-0.7-81-1c0.7-5.9,1-10.8,1-15.4c0-2.7-0.1-5.3-0.4-7.8H240c0.2,2.5,0.4,5.1,0.4,7.8c0,4.6-0.3,9.4-1,15.4
			c-27.5-0.3-55.6-0.5-74.5-0.8c-0.9,0-4.2,0-9.2,0c-0.8-5-1.2-9.9-1.5-14.7c-0.2-2.5-0.4-5.1-0.6-7.6h-2.8c0.3,2.6,0.5,5.2,0.6,7.7
			c0.3,4.7,0.7,9.6,1.5,14.6c-18.6,0-56.2-0.1-98.7-0.1c0.4-7.3,0.7-14.8,0.8-22.1h-2.8C52-3.5,51.6,4,51.2,11.2l1.9,0.1
			c-29.8,0-62-0.1-91.7-0.1c-0.2-3.3-0.2-6.6-0.3-9.8c0-4-0.2-8.1-0.5-12.2h-2.8c0.3,4.1,0.5,8.2,0.5,12.2c0,3.2,0.1,6.5,0.3,9.8
			c-4.5,0-8.9,0-13.2,0c0.2-3.7,0.7-7.6,1.2-11.5c0.4-3.5,0.8-7.1,1.1-10.6h-2.8c-0.3,3.4-0.6,6.9-1.1,10.3
			c-0.5,3.9-0.9,7.9-1.2,11.7c-19.8,0-37.8,0-52.5-0.1c0-0.2,0-0.4,0-0.6l-2.8-0.1c0,0.2,0,0.4,0,0.6c-13.9,0-24.4,0-30.1-0.1v1.8
			c5.7,0,16.2,0.1,30.1,0.1c-0.3,6-0.6,12.6-0.6,19.1c0,3,0.1,5.9,0.2,8.8c-13.7,0-24,0-29.7,0v1.7c11.2,0,40.8,0,77.5,0
			c0.3,3.8,0.4,7.7,0.4,11.4c0.1,5.2,0.1,10.5,0.9,15.9c-37.3,0-67.5,0.1-78.8,0.1v1.7c5.5,0,15.5,0,28.7,0c0,0.5,0,1.1,0,1.6
			c0,9.2,1.5,18.3,2.9,27.2c0.5,2.9,0.9,5.9,1.4,8.9c-15.3,0-26.9-0.1-33-0.1v1.7c4.1,0,10.7,0,19.4,0c0.2,3.9,0.7,7.9,1.1,11.7
			c0.6,5.2,1.2,10.5,1.2,15.7c0,0.8,0,1.7-0.1,2.5c-9.7,0-17.2,0-21.7-0.1v1.8c7,0.1,20.9,0.1,39.6,0.1c-0.4,12.7-0.9,25.8-2.3,39.1
			c-17.4,0-30.6-0.1-37.3-0.1v1.8c8.9,0.1,29,0.1,55.3,0.2c0,0.6,0,1.1,0,1.7c0,1.9-0.1,3.8-0.1,5.7c-0.1,1.9-0.1,3.9-0.1,5.8
			c0,3.1,0.2,5.6,0.6,8c-26.4,0-46.8,0-55.7,0v1.7c5.9,0,16.9,0,31.3-0.1c0.5,5.1,1.6,10,2.7,14.8c1.1,4.9,2.3,10,2.8,15.2
			c-17.1,0-30.1,0-36.7,0v1.8c5.3,0,14.6,0,26.8,0c-0.1,1-0.3,2.1-0.3,3.2c0,4.6,1.1,9.3,2.1,13.8c0.6,2.4,1.1,4.8,1.5,7.1l2.8-0.3
			c-0.4-2.4-1-4.9-1.5-7.3c-1-4.4-2.1-8.9-2.1-13.3c0-1.1,0.1-2.2,0.3-3.2c13.6,0,30.4,0,49,0c0.8,4.1,1.4,8.2,1.9,12.2
			c0.5,4,1.1,8.2,1.9,12.4c-9.8,0-19.1,0-27.7,0c0,0,0,0,0,0l-0.2,0c-25.9,0-45.8,0-54.6,0v1.7c8.4,0,27.5,0,52.2,0
			c0.7,3.4,0.8,6.7,0.8,9.6l0,3.7c0,2.3,0,4.9,0.4,7.5c-25.3,0-44.8,0-53.3,0v1.7c13,0,50.7,0,95.8,0c-0.2,2.8-0.4,5.6-0.6,8.4
			c-0.4,5.3-0.8,10.8-0.8,16.2c0,1.4,0,2.8,0.1,4.2l2.8-0.1c-0.1-1.4-0.1-2.8-0.1-4.1c0-5.3,0.4-10.8,0.8-16.1
			c0.2-2.9,0.4-5.8,0.6-8.6c20.8,0,43.1,0,65.2,0c-0.3,4-0.4,8.3-0.4,13.7c0,2.6,0,5.2,0.1,7.8c0,2.6,0.1,5.2,0.1,7.8h2.8
			c0-2.6,0-5.2-0.1-7.8c0-2.6-0.1-5.2-0.1-7.8c0-5.5,0.1-9.8,0.5-13.7c27.4,0,54.4,0,77.6,0c0,1-0.1,2-0.1,3c0,2.9,0.1,5.7,0.2,8.5
			c0.1,2.8,0.2,5.6,0.2,8.4c0,3.6-0.2,6.6-0.5,9.5c-97.7-0.1-218.6-0.2-244-0.2v1.8c6.8,0.1,19.9,0.1,37.3,0.2l0,6.4
			c0,9.3-0.1,18.9,0.3,28.2c-17.6,0-30.9-0.1-37.6-0.1v1.7c9.9,0,34.4,0,66,0.1c1.1,4.1,1.3,8,1.3,11.1c0,1.9-0.1,3.9-0.1,5.8
			c-0.1,1.9-0.1,3.9-0.1,5.8c0,1.1,0,2.1,0.1,3.1c-32,0-57-0.1-67-0.1v1.8c3.9,0,10.1,0.1,18.1,0.1c0.9,3.9,1.3,7.9,1.7,11.8
			c0.4,4.7,0.9,9.7,2.3,14.5c-9.9,0-17.5,0-22.1,0v1.7c9,0,29.8,0,56.9,0.1c0.5,3,0.9,6,1.3,9c0.7,6,1.5,12.1,3.6,18.2
			c-29.5,0-52.3,0.1-61.8,0.1v1.7c11,0,39.8-0.1,76.4-0.1c-0.9,12.4-0.9,25.2-0.9,37.5h2.8c0-12.4,0-25.1,0.9-37.5
			c17.1,0,35.7,0,54.9-0.1c0,1.8-0.1,3.6-0.1,5.4c0,9.5,0.6,19.6,2,32.6c-62.6-0.1-119.4-0.1-136.1-0.2v1.7c5.7,0,16.3,0,30.2,0.1
			c0,0.8,0.1,1.6,0.1,2.5c0,3.4-0.2,6.9-0.4,10.2c-0.2,3.4-0.4,6.8-0.4,10.3c0,2.4,0.1,4.6,0.3,6.6l2.8-0.2c-0.2-2-0.3-4.1-0.3-6.4
			c0-3.4,0.2-6.9,0.4-10.2c0.2-3.4,0.4-6.9,0.4-10.4c0-0.8,0-1.6-0.1-2.5c16.9,0,38.2,0,61.9,0.1c-0.1,1.9-0.1,3.7-0.1,5.6
			c0,4.3,0.2,8.6,0.3,12.9c0.1,3.8,0.2,7.6,0.3,11.5c-45.4-0.1-82.5-0.1-95.4-0.2v1.8c4.5,0.1,11.6,0.1,20.9,0.1
			c0.5,3.3,1,6.7,1.5,10c1.3,9.6,2.6,19.6,6.6,29.1c-13.3,0-23.4-0.1-29-0.1v1.8c7.1,0.1,21.3,0.1,40,0.2c-0.2,2.4-0.4,4.8-0.4,7.4
			c0,4.1,0.3,8.6,0.9,13.7c-17.7,0-32.3,0-40.5,0v1.7c11.6,0,35.9-0.1,65.1-0.1c-0.1,3.1-0.3,6.2-0.5,9.3c-0.3,3.6-0.5,7.3-0.5,11
			c0,3.6,0.3,6.9,0.9,9.9c-29.3,0-53.5,0-65,0v1.8c47.3,0.1,314,0.2,336.4,0.3C244.2,607,316.1,607.2,327.6,607.3z M369,590
			c-0.5,5.2-0.9,10.3-1.4,15.8c-24.9-0.1-50.2-0.3-75.4-0.8c-0.5-5.2-1-10.1-1.5-15c-0.5-5-1-9.9-1.5-15.3l-3,0.1
			c0.5,5.4,1,10.4,1.5,15.3c0.5,4.8,1,9.6,1.5,14.8c-2.2,0-37.9-0.1-73.4-0.1c0.2-2.6,0.4-5.3,0.6-7.9c0.5-7.5,1-15.3,2.8-22.8
			c58.5-0.3,130.9-0.5,151.3-0.6C370,579.2,369.5,584.6,369,590z M138.2,572.8C138.2,572.8,138.2,572.9,138.2,572.8
			c-27.5,0-61.7,0.1-96.9,0.1c0.1-1.1,0.1-2.2,0.1-3.3c0-2.1-0.1-4.3-0.2-6.4c-0.1-2.1-0.2-4.2-0.2-6.3c0-1.7,0.1-3.3,0.3-4.7
			c22.6,0,44.8,0.1,65.2,0.1c-0.3,3.1-0.5,6.2-0.6,9.3c-0.1,3.5-0.2,7.1-0.7,10.7l2.8,0.3c0.5-3.6,0.6-7.3,0.7-10.9
			c0.1-3.1,0.2-6.2,0.6-9.3c23.1,0,43.8,0.1,59.6,0.1c-0.1,6.3-0.4,12.6-0.8,18.8l-0.1,1.5c-7.8,0-16.9,0-26.9,0c0,0,0,0,0,0H138.2z
			 M11.7,511.4c23,0.1,46.4,0.1,68.5,0.2c0.3,2.1,0.5,4.2,0.5,6.4c0,6-1.1,12.2-2.2,18.1c-0.9,4.6-1.7,9.5-2.1,14.3
			c-19,0-38.9-0.1-58.6-0.1c0-0.3,0.1-0.7,0.1-1C17.7,548.9,13.2,526.8,11.7,511.4z M18.6,477.6c-8.3,0-16.6,0-24.9,0l2.2-0.2
			c-1.4-12.9-2-22.9-2-32.4c0-1.8,0-3.6,0.1-5.5c22.2,0,45.1,0,67.2-0.1c0.1,3.7,0.2,7.4,0.2,11.1c0.1,8.9,0.2,18,1.4,27
			c-13.6,0-27.5,0-41.4,0c0,0,0,0,0-0.1L18.6,477.6C18.6,477.5,18.6,477.6,18.6,477.6z M-50,405c0-3.9,0.3-7.9,0.5-11.7
			c0.2-3.4,0.4-7,0.5-10.5c24.3,0,50.9,0.1,77.2,0.1c0.5,3.8,0.6,7.5,0.6,11.3l0,2.5c0,4.1,0.1,8.2,0.7,12.4c-28,0-56.3,0-81.8-0.1
			l2.4-0.1C-50,407.6-50,406.3-50,405z M2.1,427.5c0.5-3.6,1-7.3,1-11.1c0-2.1-0.2-3.9-0.5-5.8c23.4,0,47.4,0,70,0
			c0.5,3.6,0.8,7.5,0.8,11.9c0,3.7-0.3,8.5-0.5,12.7l-0.1,2.4c-23.2,0-47.7,0-71.6,0.1C1.2,434.4,1.6,431,2.1,427.5z M31.6,396.6
			l0-2.5c0-3.8-0.1-7.5-0.6-11.3c29.3,0.1,57.9,0.1,82.1,0.2c0,8.5,0,17.3-0.5,25.9l2.8,0.1c0.4-8.6,0.5-17.4,0.5-26
			c34.3,0.1,59.3,0.1,63.8,0.2c1.8,0,3.7,0.1,5.7,0.1c0,0,0,0,0,0.1h0.3c0.3,2.2,0.7,8.3,0.7,12c0,4.2-0.2,9.8-0.4,13.9
			c-6,0-15.2,0-27-0.1c0,0,0,0,0,0l-0.3,0c-31.2,0-79.6-0.1-128.8-0.1l2.4-0.3C31.7,404.7,31.6,400.7,31.6,396.6z M96.6,355.1
			c26.4,0,49.4,0,65.3,0c0.3,3.9,0.4,7.8,0.4,11.4l0,7.1c0,2.5,0,5,0.2,7.5c-15.4,0-39.3-0.1-67.2-0.1c0.2-2.9,0.4-5.7,0.6-8.6
			c0.4-4.8,0.8-9.7,0.8-14.6C96.7,356.8,96.7,356,96.6,355.1z M104.3,299c-0.1-2.8-0.2-5.6-0.2-8.4c0-1,0-2,0.1-3
			c27.8,0,49.9,0,60.5,0c0,3.8-0.1,7.5-0.3,11.3c-0.2,4.2-0.3,8.3-0.3,12.5c0,1.9,0,3.8,0.1,5.6c-18,0-38.5,0-60.2-0.1
			c0.3-2.9,0.5-5.9,0.5-9.5C104.4,304.7,104.4,301.9,104.3,299z M102.4,236.8c-22.3,0-48.7,0-75.8,0v-30.2c28.1,0,55.8,0,79.6-0.1
			c-1.4,4.9-1.6,9.9-1.9,14.8c-0.2,5.1-0.5,10.4-2.1,15.5L102.4,236.8z M-85.1,197c0-1.9,0.1-3.8,0.1-5.7c0.1-1.9,0.1-3.8,0.1-5.7
			c0-0.6,0-1.1,0-1.7c17.1,0,36.6,0.1,57.1,0.1c0,1-0.1,2-0.1,3c0,3,0.1,5.9,0.3,8.9c0.1,2.9,0.3,5.9,0.3,8.9h2.8
			c0-3.1-0.2-6.1-0.3-9c-0.1-2.9-0.3-5.8-0.3-8.8c0-1,0-2,0.1-3c23.4,0,48.1,0.1,71.8,0.1c-0.1,3.8-0.5,7.8-1,11.7
			c-0.4,3-0.8,6.1-1,9.1l2,0.1c-45.4,0-94.1,0-131.4,0.1l0.1,0C-84.9,202.7-85.1,200.1-85.1,197z M-0.7,141.2
			c-26.2,0-51.6-0.1-73.8-0.1c-0.6-4.7-1.5-9.3-2.4-13.8c-1-5.3-2-10.7-2.6-16.2c23.8,0,51.8,0,80.5,0.1c-0.1,1.4-0.3,3.5-0.4,7.1
			C0.3,126.1-0.3,138-0.7,141.2L-0.7,141.2z M-50.3,109.5l1.8-0.1c-0.2-3-0.3-6.2-0.3-9.8c0-4.9,0.2-9.9,0.4-14.8
			c0.2-4.3,0.3-8.8,0.4-13.2c20.5,0,42.5,0,64.3,0c-0.2,5.5-0.3,10.6-0.3,15.3c0,7.9,0.3,15.3,0.8,22.6c-4.3,0-8.7,0-13,0
			c-0.2-0.3-0.5-0.6-1.2-0.6c-0.6-0.1-0.9,0-1.2,0.6C-16.4,109.5-33.9,109.5-50.3,109.5z M90.5,71.5c0,12.3,0,25.1,1.4,38l2.8-0.2
			c-1.4-12.8-1.4-25.5-1.4-37.8c39.3,0,68.5-0.1,71.8-0.1c9.6-0.1,21.7-0.1,34.7-0.2c-1.2,7.4-1.6,15-2,22.3
			c-0.3,5.3-0.5,10.7-1.1,16.1l0.7,0.1c-2.4,0-4.8,0-7.1,0c-10.8-0.1-91.2-0.1-170.9-0.2c-0.5-7.3-0.8-14.7-0.8-22.6
			c0-4.7,0.1-9.8,0.3-15.3C44.1,71.6,68.7,71.6,90.5,71.5z M40.4,69.8c0-7.2,0.8-14.7,1.6-22c0.2-1.7,0.4-3.5,0.5-5.2
			c48.1,0,91.6,0,110.7,0c-0.2,2.8-0.3,5.7-0.5,8.5c-0.4,6.1-0.8,12.4-0.9,18.6C130.2,69.8,87.2,69.8,40.4,69.8z M245,43
			c33.5,0.1,63.7,0.3,69.1,0.4c0.6,5.2,0.6,10.5,0.7,15.5c0,3.4,0.1,6.8,0.3,10.3c-1.5,0-3.1,0-4.6,0c-5,0-34.5,0.1-67.3,0.2
			c0.2-3.2,0.5-6.5,0.9-9.6c0.5-4.8,1-9.8,1-14.6C245.1,44.4,245.1,43.7,245,43z M289.8,70.9c-0.5,6.5-1.4,12.9-2.2,19.2
			c-0.9,6.5-1.8,13.2-2.3,19.9c-27.2-0.1-58.8-0.1-85.6-0.3c0.6-5.4,0.8-10.8,1.1-16.1c0.4-7.4,0.8-15.1,2-22.5
			C233,71.1,267.9,71,289.8,70.9z M315,142.4c-6.8-0.2-50.5-0.5-92.2-0.7c0.2-4.4,0.7-8.9,1.1-13.2c0.6-5.5,1.1-11.3,1.2-17
			c40.8,0.1,82.8,0.2,89,0.3c0.4,2.8,0.6,5.9,0.6,9.6c0,2,0,4-0.1,6c0,2-0.1,4-0.1,6C314.5,136.8,314.7,139.7,315,142.4z M352,164.7
			c0.5,6.2,1,12.4,1.5,18.9c-9.8-0.1-39.9-0.2-74.4-0.4c0.6-4.5,1.2-9.1,1.8-13.6c1.1-8.4,2.2-17.1,3.6-25.6
			c24.1,0.5,46.7,0.9,67.4,1.3l-1.3,0C351,152.1,351.5,158.4,352,164.7z M462.3,183.6c-7.8,0-15.7,0-23.5,0.1
			c-15.6,0.1-31.2,0.1-46.8,0.1c-11.6,0-23.5,0-35.4-0.1c-0.5-6.6-1-12.8-1.5-19c-0.5-6.3-1-12.6-1.5-19.3c30,0.6,55.8,1.1,75.5,1.5
			c11.6,0.2,23.4,0.5,35.1,0.7c-1.4,8.9-2.1,18.4-2.1,28.3C462.1,178.5,462.2,181,462.3,183.6z M391.9,185.5c5.6,0,11.3,0,16.9,0
			c-0.1,1.8-0.2,3.8-0.2,6c0,2.2,0.1,4.5,0.1,6.7c0,1.9,0.1,3.7,0.1,5.6c-2.9,0-5.8,0-8.7,0c-32,0-62.6,0.2-92.6,0.7
			c-0.2-3.1-0.3-6.1-0.3-9.2c0-3.3,0.1-6.6,0.4-9.9C345.3,185.4,378.1,185.5,391.9,185.5z M486.2,206c0.1,1.3,0.1,2.5,0.1,3.8
			c0,5.2-0.4,10.5-0.8,15.6c-0.3,4.4-0.6,8.9-0.7,13.3c-32-0.6-63.9-0.7-95.2-0.8c-6.3,0-12.6,0-19-0.1c0.5-5.5,0.9-10.6,1.4-15.8
			c0.5-5.4,1-10.8,1.5-16.6c8.8,0,17.7-0.1,26.7-0.1C428,205.4,456.5,205.6,486.2,206z M394.9,287.7c-0.9,0-1.9,0-2.8,0
			c0.5-6.8,1.1-13.8,3.3-20.4l-2.9-0.3c-2.3,6.7-2.9,13.8-3.4,20.7c-2,0-4-0.1-5.9-0.1c-28.1-0.4-56.8-0.8-85.4-1.4
			c0.1-1.7,0.2-3.3,0.2-5c0.2-5.4,0.3-10.9,1.7-16.2c26.7,0.2,53.8,0.9,80,1.6c5.9,0.2,11.8,0.3,17.8,0.5c-0.3,2-0.6,4.1-1,6.1
			c-0.8,4.7-1.6,9.5-1.6,14.2C394.9,287.4,394.9,287.6,394.9,287.7z M302.1,317.4c-3-0.1-21.4-0.2-44.8-0.2v-29.4
			c23.4,0.1,41.9,0.1,44.8,0.2c-0.3,5.3-0.4,10.4-0.4,15.5C301.8,308.1,301.9,312.7,302.1,317.4z M235.1,286c0-0.3,0-0.6,0-0.8
			c0-2.9,0.4-5.9,0.8-8.9c0.4-3,0.8-6.1,0.8-9.2c0-0.7-0.1-1.5-0.1-2.2c26.5,0,48.7,0,50.1,0c3.3,0,6.7,0,10,0.1
			c-1.4,5.4-1.5,10.9-1.7,16.2c0,1.7-0.1,3.3-0.2,5C292.1,286.1,265.3,286,235.1,286z M254.5,287.8v29.4c-8.4,0-17.4-0.1-26.5-0.1
			c-8.5,0-31-0.1-61-0.1c-0.1-1.9-0.1-3.8-0.1-5.6c0-4.1,0.2-8.3,0.3-12.4c0.1-3.8,0.3-7.6,0.3-11.4c1.7,0,2.9,0,3.6,0
			C194,287.7,227.2,287.8,254.5,287.8z M327.6,263.5c-13.7-0.3-27.4-0.4-41-0.4c-1.1,0-13.8,0-31.3,0c2.8-8,3.8-16.3,4.2-24.1
			c32.7,0.1,61.2,0.2,68.1,0.2V263.5z M191.6,204.8c-4.3,0-8.4,0-12.3,0c-4.3,0-23.6,0-50.9,0c1.7-6.9,2.6-13.9,3.5-20.7
			c26.2,0.1,44.4,0.1,48,0.2c9.6,0.1,20.4,0.3,31.8,0.4c0.2,1.6,0.4,3.2,0.4,5.1c0,2.7-0.3,5.5-0.5,8.2c-0.2,2.2-0.4,4.5-0.4,6.8
			c-5.7,0-11.2,0-16.6,0c0,0,0-0.1,0-0.1L191.6,204.8C191.6,204.8,191.6,204.8,191.6,204.8z M67.2,124.5c-0.1-2.5-0.2-5.1-0.2-7.6
			c0-2.1,0.1-4,0.2-5.7c23.9,0,46.5,0,65.6,0c-0.3,2.5-0.4,5.3-0.4,8.5c0,2,0,4,0.1,6c0,2,0.1,4,0.1,6c0,2.7-0.2,6.9-0.4,8.8H132
			c0,0.4,0,0.6,0,0.8c-19,0-41.5,0-65.2-0.1c0.4-2.7,0.5-5.6,0.5-9C67.4,129.7,67.3,127.1,67.2,124.5z M181.4,143.1
			c-1.4,7.3-1.8,14.9-2.1,22.2c-0.3,5.6-0.6,11.4-1.3,17.2c-6.3,0-23.9-0.1-48.1-0.1l-0.7-0.1l0,0.1c-10.6,0-22.4,0-35-0.1
			c0-3.5,0-7,0.1-10.4c0-3.5,0.1-6.9,0.1-10.4c0-6.1-0.1-11.7-0.5-18.4C125.7,143.1,156.1,143.1,181.4,143.1z M135.4,125.8
			c0-2-0.1-4-0.1-6c0-3.3,0.2-6,0.4-8.5c28.3,0,48.7,0,54,0.1c10.2,0,21.3,0.1,32.6,0.1c-0.1,5.7-0.6,11.3-1.2,16.8
			c-0.4,4.4-0.9,8.9-1.1,13.4c-11-0.1-21.8-0.1-31.7-0.2c-5.2,0-25.3-0.1-53.3-0.1c0.3-1.4,0.4-4.2,0.4-9.6
			C135.4,129.8,135.4,127.8,135.4,125.8z M304.6,204.4c-5.2,0.1-49.7,0.2-90.7,0.3c0.1-2.2,0.2-4.4,0.4-6.6c0.2-2.7,0.5-5.5,0.5-8.3
			c0-1.8-0.1-3.5-0.4-5.1c28.4,0.3,60.6,0.4,90.2,0.5c-0.2,3.3-0.4,6.6-0.4,9.9C304.3,198.3,304.4,201.4,304.6,204.4z M276.2,183.2
			c-32.5-0.2-68.6-0.4-95.4-0.7c0.7-5.7,1-11.5,1.3-17.1c0.4-7.4,0.8-14.9,2.2-22.3c35.4,0,60.4,0.1,65,0.2
			c11,0.2,21.8,0.4,32.4,0.6c-1.4,8.4-2.5,17-3.6,25.4C277.5,174,276.9,178.6,276.2,183.2z M129,184.2c-0.9,6.8-1.8,13.8-3.5,20.7
			c-22.2,0-49.3,0-77.7,0c0.2-2.9,0.6-6,1-8.9c0.5-3.9,1-8,1.1-11.9C78.9,184.1,106.6,184.2,129,184.2z M194.6,210.2
			c0-1.3,0-2.6-0.1-4c5.3,0,10.8-0.1,16.5-0.1c0,0.1,0,0.1,0,0.2h2.8c0-0.1,0-0.1,0-0.2c22.9-0.1,48.2-0.2,72-0.3
			c0.5,5.4,1.4,11.5,1.9,16.4c0.5,4.8,1,9.6,1.5,14.8c-2.7,0-56.1-0.1-97.4-0.2C193.6,228,194.6,219.1,194.6,210.2z M292.1,237
			c-0.5-5.2-1-10.1-1.5-15c-0.5-4.9-1.4-11-1.9-16.3c36.7-0.1,69.1-0.2,81.7-0.3c-0.5,5.7-1,11.1-1.5,16.5
			c-0.5,5.2-0.9,10.3-1.4,15.8C342.6,237.7,317.4,237.5,292.1,237z M241.2,59.5c-0.3,3.3-0.7,6.6-0.9,9.9c-13,0-26.5,0.1-39.1,0.2
			l-1.1-0.1c0,0,0,0.1,0,0.1c-5,0-9.9,0-14.5,0.1c0.5-4.6,1.3-9.3,2-13.9c0.7-4.2,1.4-8.6,1.9-12.9c16.2,0.1,34.8,0.1,52.7,0.2
			c0,0.7,0.1,1.4,0.1,2.1C242.2,49.8,241.7,54.7,241.2,59.5z M184.8,55.4c-0.8,4.7-1.6,9.5-2.1,14.2c-6,0-11.6,0.1-16.6,0.1
			c-1.2,0-5.2,0-11.5,0c0-6.1,0.4-12.4,0.9-18.4c0.2-2.9,0.4-5.8,0.5-8.7c3.9,0,6.4,0,7.2,0c6.7,0,14.7,0.1,23.4,0.1
			C186.2,47,185.5,51.2,184.8,55.4z M39.2,47.6c-0.8,7.3-1.6,14.9-1.6,22.2c-33.3,0-68.3,0-98.8,0.1c-0.7-5.4-0.8-10.7-0.9-16
			c0-3.7-0.1-7.5-0.4-11.4c31.5,0,68,0,102.3,0C39.5,44.3,39.3,45.9,39.2,47.6z M3.5,118.4c0.1-3,0.3-5.8,0.4-7.2
			c20.2,0,40.8,0,60.5,0c-0.1,1.8-0.2,3.6-0.2,5.7c0,2.6,0.1,5.1,0.2,7.7c0.1,2.5,0.2,5.1,0.2,7.6c0,3.4-0.2,6.3-0.5,8.9l0.8,0.1
			c-20.4,0-41.7,0-62.7-0.1C2.5,137.7,3.1,126.6,3.5,118.4z M19.1,162.3c0.3-6.5,0.7-12.9,0.9-19.3c23.5,0,47.7,0,71,0
			c0.4,6.7,0.5,12.3,0.5,18.4c0,3.4,0,6.9-0.1,10.4c0,3.5-0.1,6.9-0.1,10.4c-22.8,0-48-0.1-73.3-0.1C18.4,175.6,18.7,169,19.1,162.3
			z M107.2,221.3c0.2-4.9,0.5-10,1.9-14.9c36.7,0,63.6-0.1,67.8-0.1c4.6,0,9.5-0.1,14.7-0.1c0,1.3,0.1,2.6,0.1,3.9
			c0,8.9-1,17.8-2.9,26.6c-8.9,0-17.2,0-24.2,0c-3.1,0-26.6,0-59.5,0C106.7,231.6,107,226.4,107.2,221.3z M177.9,250.9
			c0.3-4,0.7-8,0.9-12.1c22.2,0.1,51.2,0.2,77.9,0.3c-0.5,7.9-1.4,16.1-4.3,24.1c-22.9,0-52.7,0-75.4,0
			C177.2,259,177.6,254.9,177.9,250.9z M233.7,264.9c0.1,0.7,0.1,1.5,0.1,2.2c0,2.9-0.4,6-0.8,8.9c-0.4,3-0.8,6.1-0.8,9.1
			c0,0.3,0,0.6,0,0.8c-21.4,0-44.2-0.1-61.3-0.1c-2.3,0-11.1,0-24.5,0c0.1-0.6,1-11.2,2.5-20.9c10.4,0,17.2,0,19,0
			C185.9,264.9,211.2,264.9,233.7,264.9z M189.4,319.5c0.9,4.1,1.4,8.5,1.4,13.9c0,3.6-0.2,7.2-0.4,10.7c-0.2,3.1-0.3,6.4-0.3,9.6
			c-2.4,0-4.7,0-6.9-0.1c-2.3,0-8.8,0-18.4-0.1c0-0.1,0-0.1,0-0.2l-2.8,0.2c-9.7,0-22.1,0-36.5-0.1c-0.9-12-1.8-22.9-3.1-34.2
			C147.8,319.4,171,319.5,189.4,319.5z M232.3,355.3c33.4,0.1,64.2,0.2,67.8,0.3c0,8.9,0.5,17.3,0.9,26.3
			c-3.9-0.2-36.1-0.3-70.5-0.5c1.1-5.7,2.2-12.2,2.2-18.9C232.8,360,232.6,357.6,232.3,355.3z M315,510.4
			c-4.8-0.2-27.8-0.3-55.5-0.5c0-0.9-0.1-1.8-0.1-2.7c0-5.3,0.6-10.9,1.1-16.3c0.4-3.7,0.8-7.6,1-11.3c26.6,0.1,48.3,0.1,52.7,0.2
			c0.4,2.8,0.6,5.9,0.6,9.6c0,2,0,4-0.1,6c0,2-0.1,4-0.1,6C314.5,504.8,314.7,507.7,315,510.4z M462.3,551.6c-7.8,0-15.7,0-23.5,0.1
			c-15.6,0.1-31.2,0.1-46.8,0.1c-11.6,0-23.5,0-35.4-0.1c-0.5-6.6-1-12.8-1.5-19c-0.5-6.1-1-12.2-1.5-18.7c32.5,0.3,60.2,0.7,75.5,1
			c11.6,0.2,23.4,0.5,35.1,0.7c-1.4,8.9-2.1,18.4-2.1,28.3C462.1,546.5,462.2,549,462.3,551.6z M391.9,553.5c5.6,0,11.3,0,16.9,0
			c-0.1,1.8-0.2,3.8-0.2,6c0,2.2,0.1,4.5,0.1,6.7c0,1.9,0.1,3.7,0.1,5.6c-2.9,0-5.8,0-8.7,0c-32,0-62.6,0.2-92.6,0.7
			c-0.2-3.1-0.3-6.1-0.3-9.2c0-3.3,0.1-6.6,0.4-9.9C345.3,553.5,378.1,553.5,391.9,553.5z M209.3,550.8c0.6-4.1,1.4-8.3,2.1-12.3
			c1.6-8.5,3.2-17.3,3.3-26.1c22.5,0.3,47.4,0.6,72.4,0.9c0,0.6,0,1.2,0,1.8c0,9.5-1.4,18.8-2.9,28.6c-0.4,2.4-0.7,4.8-1.1,7.3
			l2.8,0.3c0.3-2.4,0.7-4.8,1.1-7.3c1.4-9.4,2.9-19.2,2.9-28.9c0-0.6,0-1.2,0-1.8c20.8,0.2,41.5,0.4,60.6,0.7
			c0.5,6.5,1,12.7,1.5,18.8c0.5,6.2,1,12.4,1.5,18.9C337.2,551.5,265.2,551.2,209.3,550.8z M304.6,572.5c-3.7,0.1-27,0.1-54.8,0.2
			c0.2-2.2,0.6-4.5,1-6.9c0.6-3.1,1.2-6.4,1.2-9.6c0-1.1-0.2-2.1-0.3-3.1c17.7,0.1,35.8,0.2,52.9,0.3c-0.2,3.3-0.4,6.6-0.4,9.9
			C304.3,566.3,304.4,569.4,304.6,572.5z M174,509.5c-18.4,0-45.2-0.1-75.6-0.1c-0.4-2.9-0.5-6-0.5-9.6c0-3.5,0.2-7.1,0.3-10.6
			c0.1-3.3,0.3-6.6,0.3-9.9c32.5,0,60.7,0,78.9,0.1c-0.4,3.5-0.9,7-1.5,10.4c-0.9,5.3-1.9,10.8-1.9,16.3
			C173.9,507.2,173.9,508.3,174,509.5z M133.9,550.5c-16.6,0-35.1-0.1-54.7-0.1c0.4-4.7,1.2-9.4,2-13.9c1.1-6,2.3-12.3,2.3-18.5
			c0-2.3-0.2-4.4-0.5-6.4c18.5,0.1,36,0.1,51.5,0.2c-0.1,0.9-0.1,2-0.1,3.5c0,4.6-0.2,9.3-0.4,13.8c-0.2,4.5-0.4,9.2-0.4,13.9
			C133.7,545.7,133.8,548.1,133.9,550.5z M159.1,410.8c16.8,0,28.5,0,32.5,0c16.6,0.1,35.4,0.1,53.3,0.2c0,0.8-0.1,1.7-0.1,2.5
			c0,2.3,0.1,4.6,0.1,7c0.1,2.3,0.1,4.7,0.1,7c0,3.3-0.1,6.9-0.4,9.9c-16.9,0.1-34.8,0.1-50.8,0.2c-4.6,0-18.6,0-38.3,0.1
			c0-0.9-0.1-2-0.1-2.5c0-3.6,1-7.3,1.9-10.8c1-3.6,1.9-7.4,1.9-11.2C159.3,412.3,159.2,411.6,159.1,410.8z M217.1,439.2
			c0,12.6,0,25.6-1.8,38.7c-6.6,0-13-0.1-19.1-0.1c-5.4,0-24.8-0.1-51.8-0.1c0.1-2.1,0.1-4.2,0.2-6.3c0.3-10.8,0.7-21.9,2.4-32
			c24.2,0,41.4-0.1,46.6-0.1C201.1,439.3,209.1,439.2,217.1,439.2z M154.6,423.8c-1,3.7-2,7.4-2,11.3c0,0.5,0,1.6,0.1,2.5
			c-21,0-48,0.1-77.2,0.1l0.1-2.3c0.2-4.3,0.5-9.1,0.5-12.9c0-4.4-0.3-8.3-0.8-11.9c31.1,0,59.6,0,80.8,0.1c0.1,0.8,0.2,1.5,0.2,2.3
			C156.5,416.7,155.6,420.2,154.6,423.8z M144.1,439.4c-1.7,10.2-2.1,21.2-2.4,32c-0.1,2.1-0.1,4.2-0.2,6.3c-21.7,0-48-0.1-75.9-0.1
			c-1.3-9-1.4-18.2-1.4-27.1c0-3.7-0.1-7.4-0.2-11.1C93.7,439.5,121.7,439.4,144.1,439.4z M178.6,490.1c0.6-3.5,1.2-7.1,1.6-10.7
			c8.1,0,13.9,0,16.6,0c19.7,0.1,42,0.1,61.8,0.2c-0.2,3.7-0.6,7.5-0.9,11.1c-0.6,5.4-1.1,11-1.1,16.5c0,0.9,0,1.8,0.1,2.7
			c-18.9-0.1-39.8-0.2-58.4-0.4c-3.3,0-10.8,0-21.3-0.1c-0.1-1.2-0.2-2.3-0.2-3.5C176.7,500.7,177.7,495.3,178.6,490.1z
			 M297.1,461.2c-0.6,4.7-1.2,9.6-1.2,14.4c0,0.8,0,1.6,0.1,2.5c-23.6,0-51.9-0.1-77.9-0.2c1.8-13.1,1.8-26.1,1.8-38.7
			c29.6-0.1,60.5-0.2,77.6-0.2c0.5,2.5,0.7,5.1,0.7,8C298.3,451.7,297.7,456.5,297.1,461.2z M247.6,437.4c0.4-3,0.4-6.6,0.4-9.9
			c0-2.3-0.1-4.7-0.1-7c-0.1-2.3-0.1-4.6-0.1-6.9c0-0.8,0-1.7,0.1-2.5c32.4,0.1,61,0.3,66.3,0.4c0.6,5.2,0.6,10.5,0.7,15.5
			c0,3.4,0.1,6.8,0.3,10.3c-1.5,0-3.1,0-4.6,0C305.7,437.2,278.7,437.3,247.6,437.4z M278.7,394.2c-0.5,4.3-1.1,10.1-1.1,15.6
			c-3.7,0-7.5-0.1-11.3-0.1c0.3-2.7,0.9-5.5,1.5-8.2c0.9-4,1.8-8.1,1.8-12.3c0-1.8-0.2-3.4-0.6-5c3.4,0,6.7,0.1,10,0.1
			c0,0.5,0,1,0,1.5c0,1,0.1,2,0.1,3.1C279.2,389.9,278.9,391.8,278.7,394.2z M266.2,384.3c0.4,1.6,0.6,3.2,0.6,5
			c0,3.9-0.9,7.9-1.7,11.8c-0.6,2.8-1.2,5.7-1.5,8.6c-5.2,0-10.4-0.1-15.7-0.1c0-0.1,0-0.2,0-0.2l-2.8-0.1c0,0.1,0,0.2,0,0.3
			c-18.4-0.1-36.8-0.2-52.9-0.3c-0.8,0-1.9,0-3.2,0c0.2-4,0.4-9.6,0.4-13.9c0-6.5-0.3-10-0.7-12C211.5,383.7,239.7,384,266.2,384.3z
			 M227.7,381.3c-13.8-0.1-27.9-0.2-40.4-0.2c-0.1,0-0.2,0-0.4,0c-0.1,0-0.2,0-0.4,0c-2.3,0-4.6,0-6.8,0c-2,0-7,0-14.5,0
			c-0.1-2.5-0.2-5-0.2-7.5l0-7.1c0-3.6-0.1-7.4-0.4-11.4c9.6,0,16.2,0,18.7,0c14,0.1,30.2,0.1,46,0.2c0.3,2.3,0.5,4.6,0.5,7.1
			C230,369.1,228.9,375.7,227.7,381.3z M95.6,479.3c0,3.2-0.1,6.5-0.3,9.8c-0.2,3.5-0.3,7.1-0.3,10.7c0,3.6,0.2,6.7,0.5,9.6
			c-22.5,0-46.8-0.1-71.1-0.1c-1.3-9.6-2.7-20.4-2.9-30C46.8,479.2,72.3,479.3,95.6,479.3z M38.4,552.2c-0.1,1.5-0.2,3-0.2,4.7
			c0,2.1,0.1,4.3,0.2,6.4c0.1,2.1,0.2,4.2,0.2,6.3c0,1.1,0,2.1-0.1,3.2l2.8,0.1l0,0l0,0l0,0c-26.1,0-52.7,0-77.4,0
			c0.5-3.6,1.3-7.2,2-10.6c0.7-3.3,1.5-6.8,2-10.2C-9.5,552.1,14.6,552.2,38.4,552.2z M136.7,550.5c-0.1-2.4-0.2-4.8-0.2-7.6
			c0-4.6,0.2-9.3,0.4-13.8c0.2-4.5,0.4-9.2,0.4-13.9c0-1.9,0-2.9,0.1-3.5c32.3,0.1,55.9,0.2,61.7,0.3c4.1,0.1,8.4,0.1,12.7,0.2
			c-0.1,8.7-1.7,17.4-3.3,25.8c-0.8,4.2-1.6,8.4-2.2,12.7c-2,0-3.9,0-5.8,0C194,550.6,169.7,550.6,136.7,550.5z M170.9,571.4
			c0.4-6.2,0.8-12.6,0.8-18.9c14.5,0,24.7,0.1,28.4,0.1c15,0.2,31.7,0.3,48.8,0.4c0.2,1,0.3,2,0.3,3.1c0,3-0.6,6.2-1.2,9.2
			c-0.4,2.4-0.9,4.9-1.1,7.3c-8.9,0-18.2,0-27.5,0.1c0,0,0,0,0-0.1l-2.8-0.5c-0.1,0.2-0.1,0.4-0.1,0.6c-6.9,0-13.7,0-20.2,0.1
			c-3.7,0-12.7,0-25.5,0L170.9,571.4z M485.5,593.4c-0.3,4.4-0.6,8.9-0.7,13.3c-32-0.6-63.9-0.7-95.2-0.8c-6.3,0-12.6,0-19-0.1
			c0.5-5.5,0.9-10.6,1.4-15.8c0.5-5.4,1-10.8,1.5-16.6c8.8,0,17.7-0.1,26.7-0.1c27.8,0,56.3,0.2,86,0.6c0.1,1.3,0.1,2.5,0.1,3.8
			C486.3,583,485.9,588.3,485.5,593.4z M485.4,553.3c7.4,0,14.5,0,21.2,0c0,6.3,0,12.9-0.5,19.2c-32.8-0.5-64-0.8-94.4-0.8
			c0-1.9,0-3.7-0.1-5.6c-0.1-2.2-0.1-4.4-0.1-6.7c0-2.2,0.1-4.2,0.2-6c9,0,17.9,0,26.9-0.1C454.3,553.3,469.9,553.3,485.4,553.3z
			 M405.3,479.6c19.4-0.1,39.6-0.3,59.3-0.3c16.3,0,31.1,0.1,45,0.3c0,8.2-0.4,16.4-0.9,24.3c-0.2,3.6-0.4,7.3-0.5,11
			c-26.6-0.7-53.1-1.2-79.1-1.8c-5.6-0.1-11.2-0.2-16.8-0.3c-0.1-3.1-0.2-6.5-0.2-10.3c0-3.8,0.1-7.7,0.1-11.5
			c0.1-3.8,0.1-7.6,0.1-11.4h-3c0,3.8-0.1,7.5-0.1,11.3c-0.1,3.8-0.1,7.7-0.1,11.5c0,3.8,0.1,7.2,0.2,10.2
			c-30.2-0.6-60.8-1.3-91.3-2.3c-0.3-2.7-0.5-5.6-0.5-9.1c0-2,0-4,0.1-6c0-2,0.1-4,0.1-6c0-3.7-0.2-6.8-0.5-9.6
			c10.2,0.1,19.8,0.1,28.8,0.1C365.7,479.9,385.9,479.7,405.3,479.6z M378.7,476.6l0.2,1.5c-11,0.1-22,0.1-32.9,0.1
			c-6,0-24.1,0-47.1,0c0-0.8-0.1-1.6-0.1-2.5c0-4.7,0.6-9.5,1.2-14.2c0.6-4.7,1.2-9.7,1.2-14.5c0-2.9-0.3-5.5-0.7-8
			c5.1,0,8.6,0,10,0c21.7,0,43.8,1.1,66.5,2.7l-2.1,0.1C375.9,453.5,377.3,464.7,378.7,476.6z M318.1,437.3
			c-0.2-3.5-0.2-6.9-0.3-10.3c-0.1-5-0.1-10.2-0.7-15.4c33.2,0.9,66.3,2.2,99.2,3.5c0.2,4,0.6,8,0.9,11.9c0.5,5.3,0.9,10.8,1,16.2
			C383.5,440.3,350.4,437.6,318.1,437.3z M448.3,416.4c20.6,0.9,41,1.9,61.3,2.8c5.1,0.2,10.1,0.5,15.2,0.7h-2.2
			c0,6.8,0.5,13.9,0.9,20.7c0.2,3.1,0.4,6.1,0.5,9.1c-34.2-0.7-68.9-3.6-102.7-6.4c0,0-0.1,0-0.1,0c-0.1-5.6-0.6-11.2-1-16.6
			c-0.3-3.8-0.7-7.7-0.9-11.6c8.7,0.4,17.3,0.7,25.9,1.1c0,0.1,0,0.1,0,0.2L448.3,416.4C448.3,416.5,448.3,416.4,448.3,416.4z
			 M381.5,386.3c0,0.1,0,0.2,0,0.3l3,0.1c0-0.1,0-0.2,0-0.3c21.2,0.5,42.3,1,63.3,1.4c-0.2,4.1-0.7,8.2-1.2,12.2
			c-0.6,4.8-1.1,9.7-1.3,14.6c-32.8-1.5-65.9-2.8-99.1-3.9c1.3-8.3,2.7-16.8,3.6-25.3C360.4,385.7,371,386,381.5,386.3z
			 M346.9,385.3c-0.9,8.4-2.3,17-3.6,25.3c-8-0.3-33-0.5-62.8-0.7c0-5.4,0.6-11.2,1.1-15.4c0.3-2.5,0.5-4.4,0.5-5.5
			c0-1,0-2.1-0.1-3.1c0-0.5,0-0.9,0-1.4C312.5,384.8,338.4,385,346.9,385.3z M335,354.7c-13.5-0.2-89.6-0.6-142.1-0.9
			c0-3.2,0.2-6.4,0.3-9.5c0.2-3.5,0.4-7.2,0.4-10.8c0-5.3-0.4-9.8-1.3-13.9c17.6,0.1,30.4,0.1,36.2,0.2c13.4,0.1,27.5,0.3,41.6,0.4
			c0,1.1-0.1,2.2-0.1,3.3c0,4.2,0.2,8.3,0.3,12.5c0.2,4.1,0.3,8.3,0.3,12.4c0,1.8,0,3.6-0.1,5.4l2.8,0.1c0.1-1.8,0.1-3.7,0.1-5.5
			c0-4.2-0.2-8.3-0.3-12.5c-0.2-4.1-0.3-8.3-0.3-12.4c0-1.1,0-2.2,0.1-3.3c21.4,0.2,42.8,0.4,62.2,0.6c-0.4,4.6-0.6,9.4-0.6,14.9
			C334.5,342.1,334.7,348.5,335,354.7z M305.1,317.5c-0.2-4.7-0.3-9.4-0.3-14c0-5.1,0.1-10.2,0.4-15.5c20.4,0.4,40.7,0.7,60.9,1v30
			C345.8,318.6,325.4,318.1,305.1,317.5z M413.4,321.9c0,11-0.5,22.2-1.4,33.3c-4.5,0-9.1,0.1-13.6,0.1c-20,0-40.2-0.2-60.4-0.6
			c-0.3-6.2-0.5-12.6-0.5-19c0-5.5,0.2-10.3,0.6-14.9c28.9,0.3,52.9,0.6,65.3,0.9c4.2,0.1,8.5,0.2,12.8,0.3H413.4z M397.9,289.7
			c0-0.1,0-0.1,0-0.2c17.2,0.2,34.5,0.5,51.9,0.8c-0.5,5.2-0.9,10.5-1.2,15.8c-0.3,5-0.7,9.9-1.2,14.8c-14.7-0.3-29.4-0.7-43.9-1
			c-11.4-0.3-22.9-0.5-34.5-0.8v-30c4.7,0.1,9.4,0.1,14.1,0.2c2,0,3.9,0.1,5.9,0.1c0,0,0,0,0,0l3,0.1c0,0,0,0,0-0.1c1,0,2,0,3,0
			c0,0.1,0,0.2,0,0.3L397.9,289.7z M514.1,241.1c-0.4,3.3-0.6,6.7-0.8,9.9c-0.3,4.9-0.7,10-1.5,14.9c-12.3,0.3-25.2,0.5-38.9,0.5
			c-16.4,0-33-0.2-49.4-0.6c0.4-5.5,1.6-11.2,2.7-16.7c0.6-3,1.2-6,1.7-8.9l-3-0.2c-0.5,2.9-1.1,5.9-1.7,8.9
			c-1.1,5.5-2.2,11.3-2.7,16.9c-13.7-0.3-27.3-0.6-40.7-1c-16.2-0.4-32.7-0.9-49.2-1.2v-24.3c19.8,0.2,39.5,0.3,59,0.3
			c31.3,0.1,63.2,0.3,95.2,0.8c0,0.2,0,0.4,0,0.6h3c0-0.2,0-0.4,0-0.5C496.5,240.6,505.3,240.8,514.1,241.1z M485.4,185.3
			c7.4,0,14.5,0,21.2,0c0,6.3,0,12.9-0.5,19.2c-32.8-0.5-64-0.8-94.4-0.8c0-1.9,0-3.7-0.1-5.6c-0.1-2.2-0.1-4.4-0.1-6.7
			c0-2.2,0.1-4.2,0.2-6c9,0,17.9,0,26.9-0.1C454.3,185.3,469.9,185.3,485.4,185.3z M405.3,111.6c19.4-0.1,39.6-0.3,59.3-0.3
			c16.3,0,31.1,0.1,45,0.3c0,8.2-0.4,16.4-0.9,24.3c-0.2,3.6-0.4,7.3-0.5,11c-26.6-0.7-53.1-1.2-79.1-1.8
			c-5.6-0.1-11.2-0.2-16.8-0.3c-0.1-3.1-0.2-6.5-0.2-10.3c0-3.8,0.1-7.7,0.1-11.5c0.1-3.8,0.1-7.6,0.1-11.4h-3
			c0,3.8-0.1,7.5-0.1,11.3c-0.1,3.8-0.1,7.7-0.1,11.5c0,3.8,0.1,7.2,0.2,10.2c-30.2-0.6-60.8-1.3-91.3-2.3c-0.3-2.7-0.5-5.6-0.5-9.1
			c0-2,0-4,0.1-6c0-2,0.1-4,0.1-6c0-3.7-0.2-6.8-0.5-9.6c10.2,0.1,19.8,0.1,28.8,0.1C365.7,111.9,385.9,111.7,405.3,111.6z
			 M378.7,108.6l0.2,1.5c-11,0.1-22,0.1-32.9,0.1c-7,0-29.8,0-57.8-0.1c0.5-6.6,1.4-13.2,2.3-19.6c0.9-6.3,1.7-12.9,2.2-19.5
			c9.3,0,15.8,0,17.9,0c21.7,0,43.8,1.1,66.5,2.7l-2.1,0.1C375.9,85.4,377.3,96.7,378.7,108.6z M445.3,48.3c0,0.1,0,0.1,0,0.2h3
			c0,0,0,0,0,0c20.6,0.9,41,1.9,61.3,2.8c5.1,0.2,10.1,0.5,15.2,0.7h-2.2c0,6.8,0.5,13.9,0.9,20.7c0.2,3.1,0.4,6.1,0.5,9.1
			c-34.2-0.7-68.9-3.6-102.7-6.4c0,0-0.1,0-0.1,0c-0.1-5.6-0.6-11.2-1-16.6c-0.3-3.8-0.7-7.7-0.9-11.6
			C428.1,47.5,436.7,47.9,445.3,48.3z M416.4,47c0.2,4,0.6,8,0.9,11.9c0.5,5.3,0.9,10.8,1,16.2c-34.9-2.9-68-5.5-100.3-5.9
			c-0.2-3.5-0.2-6.9-0.3-10.3c-0.1-5-0.1-10.2-0.7-15.4C350.3,44.4,383.5,45.7,416.4,47z M265.1,14.9c37.7,0.5,71.8,0.9,81.9,1.3
			c-0.9,8.8-2.4,17.7-3.8,26.3c-9.4-0.3-42-0.6-78.4-0.8c0.1-1.5,0.1-3.5,0.1-4.9c0-2.3-0.1-4.6-0.1-7c-0.1-2.3-0.1-4.6-0.1-6.9
			C264.7,19.9,264.9,17.3,265.1,14.9z M175,13.6c23.7,0.4,56.5,0.8,87.3,1.2c-0.3,2.5-0.4,5.1-0.4,8.1c0,2.3,0.1,4.6,0.1,6.9
			c0.1,2.3,0.1,4.6,0.1,6.9c0,1.4,0,3.4-0.1,4.9c-25.4-0.2-52.4-0.3-74.4-0.5l-0.8-0.1c0,0,0,0,0,0c-4.7,0-9.1-0.1-13.2-0.1
			C173.6,32,174.1,22.8,175,13.6z M82.5,13.2c44.6,0.1,78.6,0.1,81.7,0.2c2.5,0.1,5.2,0.1,7.9,0.2c-0.9,9.1-1.3,18.4-1.3,27.5
			c-2.6,0-5.2,0-7.6-0.1c-3,0-38.3,0-84.1-0.1c0.3-3.2,0.9-6.5,1.5-9.7c0.9-5,1.9-10.2,1.9-15.5C82.6,14.9,82.5,14.1,82.5,13.2z
			 M-15.4,13.1c32.2,0,65.7,0.1,95,0.1c0.1,0.9,0.1,1.7,0.1,2.6c0,5.1-0.9,10.2-1.9,15.1c-0.6,3.3-1.2,6.7-1.6,10
			c-10.8,0-22.2,0-33.9,0l-2.6-0.2c0,0.1,0,0.1,0,0.2c-18.2,0-36.9,0-55.3,0V13.1z M-64.5,40.9c-17.9,0-34.1,0-47.4,0l1.5,0
			c-0.1-2.9-0.2-5.8-0.2-8.8c0-6.5,0.3-13,0.6-19.1c24,0,57,0.1,91.8,0.1v27.8c-15.4,0-30.4,0-44.4,0c0,0,0-0.1,0-0.1L-64.5,40.9z
			 M-111.4,73.3c0-0.5,0-1.1,0-1.6c16.5,0,37.5,0,60.5,0c0,4.4-0.2,8.8-0.4,13.1c-0.2,4.9-0.4,9.9-0.4,14.9c0,3.6,0.1,6.8,0.3,9.9
			c-9.9,0-19.4,0-28.3,0c0,0,0-0.1,0-0.1l-1.4,0.1c-9.9,0-19,0-27.2,0l1.1-0.1c-0.4-3-0.9-6.1-1.4-9.1
			C-110,91-111.4,82.3-111.4,73.3z M-118.4,141c0-0.8,0.1-1.7,0.1-2.5c0-5.3-0.6-10.7-1.3-16c-0.4-3.8-0.9-7.7-1.1-11.5
			c10.5,0,23.6,0,38.4,0c0.6,5.6,1.6,11.2,2.6,16.6c0.8,4.4,1.7,8.9,2.3,13.4C-93.1,141.1-107.1,141.1-118.4,141z M-102.8,182
			c1.4-13.3,1.9-26.4,2.3-39.1c14.7,0,32.2,0,51.3,0.1c-0.6,3-0.8,5.7-0.8,8.9c0,5.5,0.6,11.1,1.3,16.5c0.5,4.4,1,9.1,1.2,13.5
			l2.8-0.1c-0.2-4.5-0.7-9.2-1.2-13.7c-0.6-5.4-1.3-10.9-1.3-16.3c0-3.3,0.3-5.9,0.8-8.9c19.8,0,41.4,0,63.5,0.1
			c-0.2,6.4-0.6,12.8-0.9,19.2c-0.4,6.7-0.7,13.4-0.9,20c-35.7,0-71.4-0.1-100.2-0.1c0,0,0-0.1,0-0.1l-1.8,0.1
			C-92.4,182-97.8,182-102.8,182z M-103.4,236.7c-0.5-5.4-1.7-10.6-2.8-15.7c-1.1-4.7-2.1-9.5-2.6-14.4c16.8,0,37.8,0,60.8-0.1v30
			h2.8v-30c22,0,45.6,0,69-0.1v30.2C-22.2,236.7-69.9,236.7-103.4,236.7z M-61.5,238.5c24.1,0,51,0,77.6,0c-0.3,2.5-0.6,5-0.9,7.5
			c-0.7,5.5-1.5,11.2-1.8,16.9l2.8,0.1c0.3-5.6,1.1-11.2,1.8-16.7c0.3-2.6,0.7-5.2,1-7.7c25.6,0,50.8,0,72.9,0l0,0.2
			c0.5,8,0.9,16.4,1.8,24.3l2.8-0.2c-0.9-7.9-1.4-16.2-1.8-24.2l0,0c38.9,0,67.7,0,70.9,0.1c3.2,0,6.6,0,10.2,0.1
			c-0.2,4.1-0.5,8-0.9,12c-0.3,4.1-0.7,8.2-0.9,12.4c-1.9,0-3.9,0-5.7,0c-9,0-135.8,0-226.1,0c-0.8-4.3-1.4-8.5-2-12.7
			C-60.1,246.6-60.7,242.6-61.5,238.5z M-17.7,278.2c-0.2,1.4-0.3,2.4-0.3,2.7c0,0.9,0.1,1.9,0.1,2.8c0,0.7,0.1,1.4,0.1,2.1
			c-25.7,0-50.4,0-71.2,0l2.2-0.2c-0.3-2.6-0.4-5-0.4-7.3l0-3.7c0-2.9-0.1-6.2-0.7-9.6c21,0,45.7,0,71.5,0
			C-16.5,269.8-17.2,275.2-17.7,278.2z M68.3,285.8c-14.4,0-29.5,0-44.7,0l-2.6-0.2c0,0.1,0,0.1,0,0.2c-12,0-24.1,0-35.9,0
			c0-0.7,0-1.4-0.1-2.2c0-0.9-0.1-1.8-0.1-2.7c0-0.3,0.1-1.2,0.3-2.4c0.4-3.1,1.2-8.5,1.3-13.6c27.1,0,55.1,0,80.9,0
			c0.1,1.7,0.2,3.3,0.4,5c0.3,4.1,0.7,8.3,0.7,12.4C68.4,283.5,68.3,284.6,68.3,285.8z M71.1,285.8c0.1-1.1,0.1-2.3,0.1-3.4
			c0-4.2-0.3-8.5-0.7-12.6c-0.1-1.6-0.3-3.3-0.4-4.9c30.8,0,58,0,76,0c-1.5,9.9-2.5,20.7-2.5,20.8l1.4,0.1
			C126.8,285.8,100.5,285.8,71.1,285.8z M44,319.1c25.8,0.1,51.6,0.1,75.4,0.2c1.3,11.3,2.2,22.3,3.1,34.2
			c-22.9,0-50.4-0.1-78.8-0.1c0.1-1,0.1-2.6,0.1-5.1c0-2.9-0.1-5.9-0.1-8.8c-0.1-2.9-0.1-5.8-0.1-8.8
			C43.5,326.3,43.7,322.6,44,319.1z M42.3,355.1c0.3,0,0.5,0,0.7-0.1c17.6,0,34.8,0,50.9,0c0,0.9,0.1,1.8,0.1,2.7
			c0,4.8-0.4,9.7-0.8,14.4c-0.3,2.9-0.5,5.8-0.7,8.8c-51.7,0-116.3-0.1-165.5-0.1c-0.1-1-0.1-2.1-0.1-3.1c0-1.9,0.1-3.8,0.1-5.8
			c0.1-1.9,0.1-3.9,0.1-5.8c0-3.1-0.2-7-1.2-11.1c24.5,0,53,0,82,0c1.5,6,1.7,12.2,1.7,18.3c0,2.5,0.1,5,0.2,7.5l2.8-0.1
			c-0.1-2.5-0.2-4.9-0.2-7.4c-0.1-6-0.2-12.2-1.7-18.2C21.3,355,31.8,355,42.3,355.1L42.3,355.1z M-31.1,318.9
			c23,0.1,47.6,0.1,72.3,0.2c-0.4,3.4-0.5,7.2-0.5,11.6c0,2.9,0.1,5.9,0.1,8.8c0.1,2.9,0.1,5.8,0.1,8.8c0,1.5,0,3.3,0,4.4h-0.1
			l0,0.7c-23.4,0-47.3,0-70-0.1c-0.2-4.4-0.6-8.8-1-13.1c-0.5-5.6-1.1-11.3-1.1-17C-31.2,321.8-31.2,320.4-31.1,318.9z
			 M-103.9,353.3l1.4,0c-0.4-9.2-0.3-18.8-0.3-28.1l0-6.4c19.1,0.1,42.9,0.1,68.9,0.2c-0.1,1.4-0.2,2.9-0.2,4.3
			c0,5.8,0.6,11.6,1.1,17.2c0.4,4.2,0.8,8.6,1,12.9c-15,0-29.3,0-42.5-0.1c0,0,0-0.1,0-0.1l-0.5,0.1
			C-85.5,353.3-95.2,353.3-103.9,353.3z M-83.5,408.7l-1.4,0.2c-13,0-24.7,0-34.2,0l1.1-0.3c-1.5-4.8-1.9-9.7-2.3-14.5
			c-0.3-3.8-0.8-7.7-1.6-11.6c17.4,0.1,42.1,0.1,70.2,0.2c0,3.5-0.3,7-0.5,10.4c-0.3,3.9-0.5,7.9-0.5,11.9c0,1.3,0,2.6,0.1,4
			c-10.8,0-21.1,0-30.7,0C-83.5,408.9-83.5,408.8-83.5,408.7z M-80.4,437.9l2-0.5c-2.1-5.9-2.8-12.1-3.5-18
			c-0.3-2.9-0.7-5.8-1.2-8.8c24.2,0,53.1,0,83,0c0.3,1.8,0.5,3.7,0.5,5.8c0,3.6-0.5,7.3-1,10.8c-0.5,3.5-1,7-1,10.6
			C-29.9,437.8-57.2,437.8-80.4,437.9z M-45.2,479.2c20.2,0,42,0,63.9,0c0.2,9.7,1.6,20.4,2.9,30c-22.7,0-45.3-0.1-66.3-0.1
			c0-3.8-0.1-7.7-0.3-11.5c-0.2-4.3-0.3-8.6-0.3-12.9C-45.3,482.9-45.3,481-45.2,479.2z M-55.1,511.2c20,0.1,41.7,0.1,63.9,0.2
			c1.5,15.5,6.1,37.9,6.2,38.1c0,0.2,0,0.5-0.1,0.8c-25.5,0-50.6-0.1-73.2-0.1c0.3-4.7,0.9-9.4,1.4-14c0.9-7.6,1.8-15.4,1.8-23.1
			C-55.1,512.4-55.1,511.8-55.1,511.2z M-112.3,550l1.1-0.3c-4-9.4-5.3-19.4-6.6-29c-0.4-3.2-0.9-6.5-1.4-9.7
			c15.8,0.1,37.1,0.2,61.2,0.2c0,0.6,0,1.2,0,1.9c0,7.6-0.9,15.4-1.8,22.9c-0.5,4.7-1.1,9.5-1.4,14.2
			C-80.6,550.1-98.1,550.1-112.3,550z M-77.8,573c-7.7,0-15,0-21.8,0c-0.6-5.1-0.9-9.6-0.9-13.7c0-2.6,0.2-5.1,0.4-7.4
			c18.4,0.1,40.8,0.1,65.1,0.2c-0.5,3.3-1.2,6.6-1.9,9.8c-0.8,3.6-1.6,7.3-2.1,11.1c-12.6,0-24.7,0-36,0c0,0,0-0.1,0-0.1h-2.8
			C-77.8,572.9-77.8,572.9-77.8,573z M-75.1,604.8c-0.6-3-0.9-6.2-0.9-9.9c0-3.6,0.3-7.3,0.5-10.9c0.2-3.1,0.4-6.2,0.5-9.4
			c20.8,0,44.5-0.1,69-0.1c-0.1,1.8-0.1,3.7-0.1,5.5c0,3,0.1,6.1,0.2,9.2c0.1,3,0.2,6.1,0.2,9.1c0,2,0,4-0.1,6l2.8,0.1
			c0.1-2,0.1-4,0.1-6c0-3-0.1-6.1-0.2-9.2c-0.1-3-0.2-6.1-0.2-9.1c0-1.8,0-3.7,0.1-5.5c25.4,0,51.6-0.1,76.5-0.1
			c-1.1,7.5-2.1,16.3-2.1,24.9c0,1.6,0,3.2,0.1,4.8l2.8-0.1c-0.1-1.6-0.1-3.1-0.1-4.7c0-8.6,1.1-17.4,2.1-24.9
			c22.4,0,43.6,0,61.9-0.1c-0.1,4.7-0.3,9.4-0.7,14c-0.3,5.1-0.7,10.4-0.7,15.6h2.8c0-5.1,0.4-10.4,0.7-15.5
			c0.3-4.6,0.6-9.4,0.7-14.1c30.2,0,52.2-0.1,58.2-0.1c5.5,0,11.2-0.1,17.1-0.1c-1.7,7.5-2.3,15.2-2.8,22.7
			c-0.2,2.7-0.4,5.4-0.6,8.1c-6.7,0-13.4,0-19.9,0C175,604.8,19.5,604.8-75.1,604.8z"/>
	</g>
	<g class="st2">
		<g class="st3">
			<path class="st0" d="M535.9,515.8c-8.9-0.3-17.9-0.5-26.8-0.8c0.2-3.7,0.3-7.4,0.5-11c0.4-7.9,0.9-16.2,0.9-24.3
				c8.8,0.2,17.2,0.4,25.4,0.6V515.8z"/>
			<path class="st0" d="M407.1,185.4c-0.1,1.8-0.2,3.8-0.2,6c0,2.2,0.1,4.5,0.1,6.7c0,1.9,0.1,3.7,0.1,5.6c-2.9,0-5.8,0-8.6,0
				c-31.9,0-62.4,0.2-92.3,0.7c-0.2-3.1-0.3-6.1-0.3-9.2c0-3.5,0.1-7,0.4-10.4l-3-0.1c-0.2,3.5-0.4,7-0.4,10.5
				c0,3.1,0.1,6.2,0.3,9.3c-9.5,0.2-441.1,0.4-450.5,0.6v-21.4c18.5,0.7,129.5,0.3,245.9,0.6c132.4,0.3,271.9,1.3,291.5,1.3
				C395.9,185.5,401.5,185.4,407.1,185.4z"/>
			<path class="st0" d="M313.5,427c0,3.4,0.1,6.8,0.3,10.3c-1.5,0-3.1,0-4.6,0c-11.5,0-445,0.3-456.4,0.8v-27.5
				c12.6,0.2,447.4,0.5,460,0.9C313.3,416.7,313.4,421.9,313.5,427z"/>
			<path class="st0" d="M369,237.8c0.5-5.5,0.9-10.6,1.4-15.8c0.5-5.4,1-10.8,1.5-16.6c8.8,0,17.6-0.1,26.6-0.1
				c27.7,0,56.1,0.2,85.7,0.6c0.1,1.3,0.1,2.5,0.1,3.8c0,5.2-0.4,10.5-0.8,15.6c-0.3,4.4-0.6,8.9-0.7,13.3
				c-31.9-0.6-63.7-0.7-94.8-0.8C381.6,237.9,375.3,237.8,369,237.8z"/>
			<path class="st0" d="M300.5,303.5c0,4.6,0.1,9.2,0.3,13.9c-8.6-0.2-439.4-0.5-448-0.7v-29.2c8.6,0.2,439.4,0.4,448,0.6
				C300.6,293.3,300.5,298.4,300.5,303.5z"/>
			<path class="st0" d="M485.6,354.1c1.2-4.7,2-9.5,2.8-14.1c0.9-5.3,1.7-10.7,3.2-15.9l-2.9-0.3c-1.5,5.3-2.4,10.7-3.2,16
				c-0.8,4.7-1.6,9.6-2.8,14.4c-23.2,0.6-46.3,0.9-69.4,1c0.9-11.1,1.4-22.2,1.4-33.3c40,0.9,80.8,1.9,121.3,3.1v27.4
				C519.1,353.1,502.4,353.7,485.6,354.1z"/>
			<path class="st0" d="M447.9,290.3c-0.5,5.2-0.9,10.5-1.2,15.8c-0.3,5-0.7,9.9-1.2,14.8c-14.7-0.3-29.3-0.7-43.7-1
				c-11.4-0.3-22.8-0.5-34.3-0.8v-30c4.7,0.1,9.4,0.1,14,0.2c1.9,0,3.9,0.1,5.9,0.1c0,0,0,0,0,0l3,0.1c0,0,0,0,0-0.1c1,0,2,0,3,0
				c0,0.1,0,0.2,0,0.3l3-0.1c0-0.1,0-0.1,0-0.2C413.3,289.7,430.6,290,447.9,290.3z"/>
			<path class="st0" d="M535.9,290.8c-12.7-0.4-25.5-0.8-38.3-1.1c0-1.1-0.1-2.2-0.1-3.3c0-3,0.2-6.2,0.3-9.2c0.2-3,0.3-6.1,0.3-9.1
				h-3c0,3-0.2,6.1-0.3,9.1c-0.2,3-0.3,6.2-0.3,9.3c0,1.1,0.1,2.1,0.1,3.2c-33-0.8-65.9-1.3-98.4-1.8c0-0.2,0-0.3,0-0.5
				c0-4.6,0.8-9.4,1.6-14c0.4-2.1,0.7-4.2,1-6.2c23.9,0.6,48.2,1.1,72.3,1.1c23.5,0,45-0.5,64.9-1.5V290.8z"/>
			<path class="st0" d="M483.4,553.3c7.4,0,14.4,0,21.2,0c0,6.3,0,12.9-0.4,19.2c-32.6-0.5-63.8-0.8-94-0.8c0-1.9,0-3.7-0.1-5.6
				c-0.1-2.2-0.1-4.4-0.1-6.7c0-2.2,0.1-4.2,0.2-6c8.9,0,17.8,0,26.8-0.1C452.4,553.3,467.9,553.3,483.4,553.3z"/>
			<path class="st0" d="M387.9,607.6c31.2,0.1,62.9,0.3,94.8,0.8c0,0.2,0,0.4,0,0.6h3c0-0.2,0-0.4,0-0.5c8.8,0.2,17.5,0.3,26.3,0.6
				c-0.1,0.6-0.1,1.2-0.2,1.7h-86.2c0.2-0.9,0.3-1.7,0.5-2.6l-3-0.2c-0.1,0.9-0.3,1.8-0.5,2.7h-93.4v-3.5
				C348.9,607.5,368.5,607.6,387.9,607.6z"/>
			<path class="st0" d="M462.2,515.7c-1.4,8.9-2.1,18.4-2.1,28.3c0,2.6,0.1,5.1,0.2,7.7c-7.8,0-15.6,0-23.4,0.1
				c-15.5,0.1-31.1,0.1-46.6,0.1c-11.6,0-23.4,0-35.3-0.1c-0.5-6.6-1-12.8-1.5-19c-0.5-6.3-1-12.6-1.5-19.3l-3,0.1
				c0.5,6.7,1,13,1.5,19.3c0.5,6.2,1,12.4,1.5,18.9c-25.1-0.2-473.1-0.7-499.2-1.8v-39.1c27.2,1.1,176,0.4,315.8,1.1
				c121,0.6,235.4,2.6,258.6,3.1C438.8,515.2,450.5,515.4,462.2,515.7z"/>
			<path class="st0" d="M535.9,147.8c-8.9-0.3-17.9-0.5-26.8-0.8c0.2-3.7,0.3-7.4,0.5-11c0.4-7.9,0.9-16.2,0.9-24.3
				c8.8,0.2,17.2,0.4,25.4,0.6V147.8z"/>
			<path class="st0" d="M344.5,111.9c19.7,0,39.8-0.1,59.1-0.3c19.4-0.1,39.4-0.3,59.1-0.3c16.2,0,31,0.1,44.8,0.3
				c0,8.2-0.4,16.4-0.9,24.3c-0.2,3.6-0.4,7.3-0.5,11c-26.5-0.7-52.9-1.2-78.8-1.8c-5.6-0.1-11.1-0.2-16.7-0.3
				c-0.1-3.1-0.2-6.5-0.2-10.3c0-3.8,0.1-7.7,0.1-11.5c0.1-3.8,0.1-7.6,0.1-11.4h-3c0,3.8-0.1,7.5-0.1,11.3
				c-0.1,3.8-0.1,7.7-0.1,11.5c0,3.8,0.1,7.2,0.2,10.2c-30.1-0.6-60.5-1.3-91-2.3c-0.3-2.7-0.5-5.6-0.5-9.1c0-2,0-4,0.1-6
				c0-2,0.1-4,0.1-6c0-3.7-0.2-6.8-0.5-9.6C325.9,111.8,335.5,111.9,344.5,111.9z"/>
			<path class="st0" d="M344.5,479.9c19.7,0,39.8-0.1,59.1-0.3c19.4-0.1,39.4-0.3,59.1-0.3c16.2,0,31,0.1,44.8,0.3
				c0,8.2-0.4,16.4-0.9,24.3c-0.2,3.6-0.4,7.3-0.5,11c-26.5-0.7-52.9-1.2-78.8-1.8c-5.6-0.1-11.1-0.2-16.7-0.3
				c-0.1-3.1-0.2-6.5-0.2-10.3c0-3.8,0.1-7.7,0.1-11.5c0.1-3.8,0.1-7.6,0.1-11.4h-3c0,3.8-0.1,7.5-0.1,11.3
				c-0.1,3.8-0.1,7.7-0.1,11.5c0,3.8,0.1,7.2,0.2,10.2c-30.1-0.6-60.5-1.3-91-2.3c-0.3-2.7-0.5-5.6-0.5-9.1c0-2,0-4,0.1-6
				c0-2,0.1-4,0.1-6c0-3.7-0.2-6.8-0.5-9.6C325.9,479.9,335.5,479.9,344.5,479.9z"/>
			<path class="st0" d="M367.4,590c-0.5,5.2-0.9,10.3-1.4,15.8c-24.8-0.1-50-0.3-75.1-0.7c-0.5-5.2-1-10.1-1.5-15
				c-0.5-5-1-9.9-1.5-15.3l-3,0.1c0.5,5.4,1,10.4,1.5,15.3c0.5,4.8,1,9.6,1.4,14.8c-4.3-0.1-430.8-0.2-435.1-0.3v-30
				c30.6-0.7,483.9-1.1,516.1-1.3C368.4,579.2,367.9,584.6,367.4,590z"/>
			<path class="st0" d="M313.5,58.9c0,3.4,0.1,6.8,0.3,10.3c-1.5,0-3.1,0-4.6,0c-11.5,0-445,0.3-456.4,0.8V42.5
				c12.6,0.2,447.4,0.5,460,0.9C313.3,48.6,313.4,53.9,313.5,58.9z"/>
			<path class="st0" d="M522.6,51.9h-2.2c0,6.8,0.5,13.9,0.9,20.7c0.2,3.1,0.4,6.1,0.5,9.1c-34.1-0.7-68.6-3.6-102.2-6.4
				c0,0-0.1,0-0.1,0c-0.1-5.6-0.6-11.2-1-16.6c-0.3-3.8-0.7-7.7-0.9-11.6c8.6,0.4,17.2,0.7,25.8,1.1c0,0.1,0,0.1,0,0.2h3
				c0,0,0,0,0,0c20.5,0.9,40.9,1.9,61.1,2.8C512.5,51.5,517.6,51.7,522.6,51.9z"/>
			<path class="st0" d="M484.2,574c0.1,1.3,0.1,2.5,0.1,3.8c0,5.2-0.4,10.5-0.8,15.6c-0.3,4.4-0.6,8.9-0.7,13.3
				c-31.9-0.6-63.7-0.7-94.8-0.8c-6.3,0-12.6,0-18.9-0.1c0.5-5.5,0.9-10.6,1.4-15.8c0.5-5.4,1-10.8,1.5-16.6
				c8.8,0,17.6-0.1,26.6-0.1C426.2,573.4,454.6,573.6,484.2,574z"/>
			<path class="st0" d="M443.4,416.3c0,0.1,0,0.1,0,0.2h3c0,0,0,0,0,0c20.5,0.9,40.9,1.9,61.1,2.8c5,0.2,10.1,0.5,15.2,0.7h-2.2
				c0,6.8,0.5,13.9,0.9,20.7c0.2,3.1,0.4,6.1,0.5,9.1c-34.1-0.7-68.6-3.6-102.2-6.4c0,0-0.1,0-0.1,0c-0.1-5.6-0.6-11.2-1-16.6
				c-0.3-3.8-0.7-7.7-0.9-11.6C426.2,415.6,434.8,415.9,443.4,416.3z"/>
			<path class="st0" d="M507.5,185.3c10.1,0,19.4,0.1,28.4,0.2v19.5c-9.7-0.2-19.3-0.3-28.8-0.5
				C507.5,198.2,507.5,191.7,507.5,185.3z"/>
			<path class="st0" d="M507.5,553.3c10.1,0,19.4,0.1,28.4,0.2v19.5c-9.7-0.2-19.3-0.3-28.8-0.5
				C507.5,566.2,507.5,559.7,507.5,553.3z"/>
			<path class="st0" d="M535.9,21.8v28.9c-9.4-0.4-18.8-0.9-28.1-1.3c-20.3-0.9-40.7-1.9-61.3-2.8c0.1-4.9,0.7-9.8,1.2-14.6
				c0.5-4,1-8.2,1.2-12.3l-3-0.1c-0.2,4.1-0.7,8.2-1.2,12.3c-0.6,4.8-1.1,9.7-1.2,14.6c-32.7-1.5-65.6-2.8-98.7-3.9
				c1.4-8.6,2.8-17.5,3.7-26.3c51.2,2,102.5,3.4,152.7,4.6C512.8,21.2,524.3,21.5,535.9,21.8z"/>
			<path class="st0" d="M462.2,147.6c-1.4,8.9-2.1,18.4-2.1,28.3c0,2.6,0.1,5.1,0.2,7.7c-7.8,0-15.6,0-23.4,0.1
				c-15.5,0.1-31.1,0.1-46.6,0.1c-11.6,0-23.4,0-35.3-0.1c-0.5-6.6-1-12.8-1.5-19c-0.5-6.3-1-12.6-1.5-19.3l-3,0.1
				c0.5,6.7,1,13,1.5,19.3c0.5,6.2,1,12.4,1.5,18.9c-25.1-0.2-473.1-0.7-499.2-1.8v-39.1c65.4-1,262.3-0.7,409,0.9
				c80.2,0.8,147.7,3,165.4,3.3C438.8,147.1,450.5,147.4,462.2,147.6z"/>
			<path class="st0" d="M-147.2,439.8c11.4-0.5,444.9-0.8,456.4-0.8c21.6,0,43.6,1.1,66.3,2.7l-2,0.1c0.9,11.7,2.3,23,3.7,34.8
				l0.2,1.5c-10.9,0.1-21.9,0.1-32.8,0.1c-20.3,0-466.3-0.1-491.7-0.9V439.8z"/>
			<path class="st0" d="M322.9,4.7c-0.4,2.9-0.7,5.8-1.1,8.7c-15.6-0.7-453.5-1.5-469-2.4v-21.8h471.7
				C324.2-5.7,323.6-0.4,322.9,4.7z"/>
			<path class="st0" d="M501.4,19.2c-10.1-0.3-20.3-0.5-30.4-0.8c0.7-4.8,1-9.5,1.3-14.1c0.3-5,0.6-10,1.4-15.2h62.2v30.9
				C524.4,19.8,512.9,19.5,501.4,19.2z"/>
			<path class="st0" d="M514.7,610.8c0.1-0.6,0.1-1.1,0.2-1.7c7,0.2,14,0.4,21,0.7v1H514.7z"/>
			<path class="st0" d="M-147.2,71.7c11.4-0.5,444.9-0.8,456.4-0.8c21.6,0,43.6,1.1,66.3,2.7l-2,0.1c0.9,11.7,2.3,23,3.7,34.8
				l0.2,1.5c-10.9,0.1-21.9,0.1-32.8,0.1c-20.3,0-466.3-0.1-491.7-0.9V71.7z"/>
			<path class="st0" d="M-147.2,354.9c7.9,0.3,438.1,0.5,446.1,0.7c0,8.9,0.5,17.3,0.9,26.3c-8.3-0.4-438.7-0.8-447-1.2V354.9z"/>
			<path class="st0" d="M302.8,382c25.7,1.1,51.5,1.9,77.2,2.5c0.3-3.6,0.6-7.1,1-10.6c0.6-5.4,1.3-11,1.3-16.6h3
				c0,5.7-0.7,11.3-1.3,16.8c-0.4,3.4-0.8,7-1,10.5c39.7,1,79.4,1.7,118.4,2.6c11.5,0.3,23,0.6,34.5,0.9v-33.9
				c-3.5,0.1-7,0.3-10.5,0.4c0,1.1,0.1,2.2,0.1,3.3c0,4.3-0.3,8.7-0.6,13c-0.3,4.2-0.6,8.6-0.6,12.9c0,1.2,0,2.5,0.1,3.7l-3,0
				c-0.1-1.2-0.1-2.5-0.1-3.8c0-4.3,0.3-8.7,0.6-13c0.3-4.2,0.6-8.6,0.6-12.9c0-1,0-2.1-0.1-3.1c-12.4,0.4-24.8,0.8-37.3,1.1
				c0,0,0,0.1,0,0.1l-1.2-0.1c-29.2,0.7-58.3,1.1-87.2,1.1c-20.2,0-40.6-0.2-61-0.6l-2.1,0c0,0,0,0,0-0.1
				c-10.6-0.2-21.2-0.4-31.8-0.7C301.8,364.5,302.3,373,302.8,382z M450.9,385.7l0.2-1.2c1.4-9.2,2.9-18.7,5.3-27.9l2.9,0.3
				c-2.4,9.1-3.8,18.6-5.3,27.8l-0.2,1.2L450.9,385.7z"/>
			<path class="st0" d="M295.3,264.9c-1.4,5.4-1.5,10.9-1.7,16.2c0,1.7-0.1,3.3-0.2,5c-6.2-0.1-434.5-0.3-440.7-0.4v-20.8
				c3.4,0,429.1,0,432.6,0C288.7,264.9,292,264.9,295.3,264.9z"/>
			<path class="st0" d="M524.9,449.8c-0.2-3.1-0.3-6.1-0.5-9.2c-0.4-6.8-0.9-13.8-0.9-20.6c4.2,0.2,8.3,0.4,12.5,0.6v29.4
				C532.2,449.9,528.5,449.9,524.9,449.8z"/>
			<path class="st0" d="M348.4,385.4c10.5,0.3,21,0.6,31.5,0.9c0,0.1,0,0.2,0,0.3l3,0.1c0-0.1,0-0.2,0-0.3c21.1,0.5,42.1,1,63.1,1.4
				c-0.2,4.1-0.7,8.2-1.2,12.2c-0.6,4.8-1.1,9.7-1.2,14.6c-32.7-1.5-65.6-2.8-98.7-3.9C346.1,402.4,347.5,393.8,348.4,385.4z"/>
			<path class="st0" d="M535.9,240.1c-16.7-0.6-33.4-1-50.1-1.3c0.1-4.4,0.4-8.9,0.7-13.3c0.4-5.2,0.8-10.5,0.8-15.7
				c0-1.3,0-2.5-0.1-3.8c15.9,0.2,32.1,0.5,48.7,0.8V240.1z"/>
			<path class="st0" d="M326.2,263.5c-13.6-0.3-27.3-0.4-40.8-0.4c-3.5,0-429.2,0-432.6,0v-24.7c17.1,0.4,456.4,0.6,473.4,0.8V263.5
				z"/>
			<path class="st0" d="M535.9,264.9c-7.5,0.4-15.3,0.7-23.2,0.9c0.8-4.9,1.1-9.9,1.5-14.8c0.2-3.3,0.5-6.6,0.8-9.9
				c7,0.2,14,0.4,21,0.7V264.9z"/>
		</g>
		<g class="st4">
			<path class="st0" d="M199.8,93.7c0.4-7.4,0.8-15.1,2-22.5c30.2-0.1,64.9-0.2,86.7-0.3c-0.5,6.5-1.3,12.9-2.2,19.2
				c-0.9,6.5-1.8,13.2-2.3,19.9c-27.1-0.1-58.6-0.1-85.3-0.3C199.3,104.4,199.6,99,199.8,93.7z"/>
			<path class="st0" d="M134.4,141.3c0.3-1.4,0.4-4.2,0.4-9.6c0-2,0-4-0.1-6c0-2-0.1-4-0.1-6c0-3.3,0.2-6,0.4-8.5
				c28.2,0,48.5,0,53.8,0.1c10.1,0,21.2,0.1,32.4,0.1c-0.1,5.7-0.6,11.3-1.2,16.8c-0.4,4.4-0.9,8.9-1.1,13.4
				c-11-0.1-21.7-0.1-31.6-0.2C182.3,141.4,162.3,141.4,134.4,141.3z"/>
			<path class="st0" d="M79.2,13.2c0.1,0.9,0.1,1.7,0.1,2.6c0,5.1-0.9,10.2-1.9,15.1c-0.6,3.3-1.2,6.7-1.6,10c-10.8,0-22.1,0-33.7,0
				l-2.6-0.2c0,0.1,0,0.1,0,0.2c-18.1,0-36.8,0-55.1,0V13.1C16.6,13.1,50.1,13.2,79.2,13.2z"/>
			<path class="st0" d="M186,41.1C186,41.2,186,41.2,186,41.1c-4.6,0-9.1,0-13.2,0c0-9.1,0.5-18.3,1.3-27.5
				c23.6,0.4,56.3,0.8,87,1.2c-0.3,2.5-0.4,5.1-0.4,8.1c0,2.3,0.1,4.6,0.1,6.9c0.1,2.3,0.1,4.6,0.1,6.9c0,1.4,0,3.4-0.1,4.9
				c-25.3-0.2-52.1-0.3-74.1-0.5L186,41.1z"/>
			<path class="st0" d="M199.2,69.4c0,0,0,0.1,0,0.1c-5,0-9.9,0-14.5,0.1c0.5-4.6,1.3-9.3,2-13.9c0.7-4.2,1.4-8.6,1.9-12.9
				c16.2,0.1,34.7,0.1,52.5,0.2c0,0.7,0.1,1.4,0.1,2.1c0,4.7-0.5,9.7-1,14.4c-0.3,3.3-0.7,6.6-0.9,9.9c-13,0-26.4,0.1-38.9,0.2
				L199.2,69.4z"/>
			<path class="st0" d="M227,317.1c-8.5,0-30.9-0.1-60.7-0.1c-0.1-1.9-0.1-3.8-0.1-5.6c0-4.1,0.2-8.3,0.3-12.4
				c0.1-3.8,0.3-7.6,0.3-11.4c1.7,0,2.9,0,3.5,0c22.8,0.1,55.9,0.1,83.1,0.2v29.4C245,317.2,236,317.1,227,317.1z"/>
			<path class="st0" d="M177.1,250.9c0.3-4,0.7-8,0.9-12.1c22.1,0.1,51,0.2,77.6,0.3c-0.5,7.9-1.4,16.1-4.3,24.1
				c-22.8,0-52.5,0-75.1,0C176.4,259,176.8,254.9,177.1,250.9z"/>
			<path class="st0" d="M163.9,353.6c0-0.1,0-0.1,0-0.2l-2.8,0.2c-9.7,0-22.1,0-36.3-0.1c-0.9-12-1.8-22.9-3-34.2
				c25.4,0.1,48.5,0.1,66.8,0.2c0.9,4.1,1.4,8.5,1.4,13.9c0,3.6-0.2,7.2-0.4,10.7c-0.2,3.1-0.3,6.4-0.3,9.6c-2.4,0-4.7,0-6.9-0.1
				C180,353.6,173.5,353.6,163.9,353.6z"/>
			<path class="st0" d="M178.5,204.8c-4.3,0-23.5,0-50.7,0c1.7-6.9,2.6-13.9,3.5-20.7c26.1,0.1,44.2,0.1,47.8,0.2
				c9.6,0.1,20.3,0.3,31.7,0.4c0.2,1.6,0.4,3.2,0.4,5.1c0,2.7-0.3,5.5-0.5,8.2c-0.2,2.2-0.4,4.5-0.4,6.8c-5.6,0-11.2,0-16.5,0
				c0,0,0-0.1,0-0.1l-2.8,0.1c0,0,0,0,0,0C186.5,204.8,182.4,204.8,178.5,204.8z"/>
			<path class="st0" d="M154,69.7c0-6.1,0.4-12.4,0.9-18.4c0.2-2.9,0.4-5.8,0.5-8.7c3.9,0,6.4,0,7.1,0c6.6,0,14.6,0.1,23.3,0.1
				c-0.5,4.2-1.2,8.5-1.9,12.6c-0.8,4.7-1.6,9.5-2.1,14.2c-6,0-11.6,0.1-16.5,0.1C164.2,69.7,160.2,69.7,154,69.7z"/>
			<path class="st0" d="M91.4,109.5l2.8-0.2c-1.4-12.8-1.4-25.5-1.4-37.8c39.2,0,68.2-0.1,71.5-0.1c9.6-0.1,21.6-0.1,34.6-0.2
				c-1.2,7.4-1.6,15-1.9,22.3c-0.3,5.3-0.5,10.7-1.1,16.1l0.7,0.1c-2.4,0-4.7,0-7,0c-10.7-0.1-90.8-0.1-170.2-0.2
				c-0.5-7.3-0.8-14.7-0.8-22.6c0-4.7,0.1-9.8,0.3-15.3c24.9,0,49.4,0,71.1,0C90,83.9,90,96.6,91.4,109.5z"/>
			<path class="st0" d="M150.6-3.1c0.3,4.7,0.7,9.6,1.5,14.6c-18.5,0-56-0.1-98.3-0.1c0.4-7.3,0.7-14.8,0.8-22.1H150
				C150.2-8.2,150.4-5.6,150.6-3.1z"/>
			<path class="st0" d="M1,111.2c-0.1,1.4-0.3,3.5-0.4,7.1c-0.4,7.9-1,19.7-1.4,22.9l0,0c-26.1,0-51.4-0.1-73.5-0.1
				c-0.6-4.7-1.5-9.3-2.4-13.8c-1-5.3-2-10.7-2.6-16.2C-55.5,111.1-27.7,111.1,1,111.2z"/>
			<path class="st0" d="M93.8,171.9c0-3.5,0.1-6.9,0.1-10.4c0-6.1-0.1-11.7-0.5-18.4c31.8,0,62,0,87.2,0.1
				c-1.4,7.3-1.8,14.9-2.1,22.2c-0.3,5.6-0.6,11.4-1.3,17.2c-6.2,0-23.8-0.1-47.9-0.1l-0.7-0.1l0,0.1c-10.5,0-22.3,0-34.8-0.1
				C93.8,178.8,93.8,175.3,93.8,171.9z"/>
			<path class="st0" d="M124.9,204.9c-22.1,0-49.1,0-77.4,0c0.2-2.9,0.6-6,0.9-8.9c0.5-3.9,1-8,1-11.9c29.1,0,56.7,0.1,78.9,0.1
				C127.5,191,126.6,198,124.9,204.9z"/>
			<path class="st0" d="M105.8,206.5c-1.4,4.9-1.6,9.9-1.9,14.8c-0.2,5.1-0.5,10.4-2.1,15.5l0.1,0c-22.2,0-48.5,0-75.5,0v-30.2
				C54.5,206.5,82,206.5,105.8,206.5z"/>
			<path class="st0" d="M154.9,437.6c0-0.9-0.1-2-0.1-2.5c0-3.6,1-7.3,1.9-10.8c0.9-3.6,1.9-7.4,1.9-11.2c0-0.8-0.1-1.6-0.2-2.3
				c16.7,0,28.4,0,32.4,0c16.5,0.1,35.3,0.1,53.1,0.2c0,0.8-0.1,1.7-0.1,2.5c0,2.3,0.1,4.6,0.1,7c0.1,2.3,0.1,4.7,0.1,7
				c0,3.3-0.1,6.9-0.4,9.9c-16.8,0.1-34.7,0.1-50.6,0.2C188.5,437.6,174.6,437.6,154.9,437.6z"/>
			<path class="st0" d="M-15.1,283.6c0-0.9-0.1-1.8-0.1-2.7c0-0.3,0.1-1.2,0.3-2.4c0.4-3.1,1.2-8.5,1.3-13.6c27,0,54.9,0,80.5,0
				c0.1,1.7,0.2,3.3,0.4,5c0.3,4.1,0.7,8.3,0.7,12.4c0,1.2,0,2.3-0.1,3.4c-14.3,0-29.3,0-44.5,0l-2.6-0.2c0,0.1,0,0.1,0,0.2
				c-12,0-24,0-35.8,0C-15,285-15,284.3-15.1,283.6z"/>
			<path class="st0" d="M-16.4,264.9c-0.1,4.9-0.8,10.3-1.3,13.3c-0.2,1.4-0.3,2.4-0.3,2.7c0,0.9,0.1,1.9,0.1,2.8
				c0,0.7,0.1,1.4,0.1,2.1c-25.6,0-50.2,0-70.9,0l2.2-0.2c-0.3-2.6-0.4-5-0.4-7.3l0-3.7c0-2.9-0.1-6.2-0.7-9.6
				C-66.7,264.9-42,264.9-16.4,264.9z"/>
			<path class="st0" d="M-34,323.2c0,5.8,0.6,11.6,1.1,17.2c0.4,4.2,0.8,8.6,1,12.9c-14.9,0-29.2,0-42.4-0.1c0,0,0-0.1,0-0.1
				l-0.5,0.1c-10.4,0-20.1,0-28.7,0l1.4,0c-0.4-9.2-0.3-18.8-0.3-28.1l0-6.4c19,0.1,42.7,0.1,68.7,0.2
				C-33.9,320.4-34,321.8-34,323.2z"/>
			<path class="st0" d="M-121.6,382.6c17.3,0.1,42,0.1,69.9,0.2c0,3.5-0.3,7-0.5,10.4c-0.3,3.9-0.5,7.9-0.5,11.9c0,1.3,0,2.6,0.1,4
				c-10.8,0-21.1,0-30.6,0c0-0.1,0-0.1,0-0.2l-1.4,0.2c-13,0-24.6,0-34.1,0l1.1-0.3c-1.5-4.8-1.9-9.7-2.3-14.5
				C-120.3,390.4-120.7,386.5-121.6,382.6z"/>
			<path class="st0" d="M-47.9,206.6v30h2.8v-30c21.9,0,45.4,0,68.7-0.1v30.2c-45.8,0-93.4,0-126.6,0c-0.5-5.4-1.7-10.6-2.8-15.7
				c-1.1-4.7-2.1-9.5-2.6-14.4C-91.7,206.6-70.8,206.6-47.9,206.6z"/>
			<path class="st0" d="M186.1,381.1c-0.1,0-0.2,0-0.4,0c-2.3,0-4.6,0-6.8,0c-2,0-7,0-14.4,0c-0.1-2.5-0.2-5-0.2-7.5l0-7.1
				c0-3.6-0.1-7.4-0.4-11.4c9.6,0,16.2,0,18.7,0c14,0.1,30.1,0.1,45.8,0.2c0.3,2.3,0.5,4.6,0.5,7.1c0,6.7-1.1,13.3-2.2,18.9
				c-13.8-0.1-27.8-0.2-40.3-0.2C186.3,381.1,186.2,381.1,186.1,381.1z"/>
			<path class="st0" d="M-51.1,84.7c-0.2,4.9-0.4,9.9-0.4,14.9c0,3.6,0.1,6.8,0.3,9.9c-9.9,0-19.3,0-28.2,0c0,0,0-0.1,0-0.1
				l-1.4,0.1c-9.9,0-18.9,0-27.1,0l1.1-0.1c-0.4-3-0.9-6.1-1.4-9.1c-1.5-9.2-2.9-17.9-2.9-26.9c0-0.5,0-1.1,0-1.6
				c16.4,0,37.3,0,60.2,0C-50.8,76-50.9,80.4-51.1,84.7z"/>
			<path class="st0" d="M-41.6,1.4c0,3.2,0.1,6.5,0.3,9.8c-4.5,0-8.8,0-13.2,0c0.2-3.7,0.7-7.6,1.1-11.5c0.4-3.5,0.8-7.1,1.1-10.6
				h10.2C-41.7-6.7-41.6-2.6-41.6,1.4z"/>
			<path class="st0" d="M-100.2,142.9c14.7,0,32,0,51.1,0.1c-0.6,3-0.8,5.7-0.8,8.9c0,5.5,0.6,11.1,1.3,16.5c0.5,4.4,1,9.1,1.2,13.5
				l2.8-0.1c-0.2-4.5-0.7-9.2-1.2-13.7c-0.6-5.4-1.3-10.9-1.3-16.3c0-3.3,0.3-5.9,0.8-8.9c19.7,0,41.2,0,63.2,0.1
				c-0.2,6.4-0.6,12.8-0.9,19.2c-0.4,6.7-0.7,13.4-0.9,20c-35.6,0-71.1-0.1-99.8-0.1c0,0,0-0.1,0-0.1l-1.8,0.1c-5.6,0-11,0-16,0
				C-101.1,168.7-100.6,155.6-100.2,142.9z"/>
			<path class="st0" d="M197.3,509.5c-3.3,0-10.7,0-21.3-0.1c-0.1-1.2-0.2-2.3-0.2-3.5c0-5.3,0.9-10.7,1.9-15.9
				c0.6-3.5,1.2-7.1,1.6-10.7c8.1,0,13.8,0,16.5,0c19.6,0.1,41.8,0.1,61.6,0.2c-0.2,3.7-0.6,7.5-0.9,11.1c-0.6,5.4-1.1,11-1.1,16.5
				c0,0.9,0,1.8,0.1,2.7C236.6,509.8,215.9,509.7,197.3,509.5z"/>
			<path class="st0" d="M161.2,355.1c0.3,3.9,0.4,7.8,0.4,11.4l0,7.1c0,2.5,0,5,0.2,7.5c-15.3,0-39.1-0.1-67-0.1
				c0.2-2.9,0.4-5.7,0.6-8.6c0.4-4.8,0.8-9.7,0.8-14.6c0-0.9,0-1.8-0.1-2.7C122.5,355.1,145.4,355.1,161.2,355.1z"/>
			<path class="st0" d="M-78.2,437.4c-2-5.9-2.8-12.1-3.5-18c-0.3-2.9-0.7-5.8-1.2-8.8c24.1,0,52.9,0,82.6,0
				c0.3,1.8,0.5,3.7,0.5,5.8c0,3.6-0.5,7.3-1,10.8c-0.5,3.5-1,7-1,10.6c-28.1,0-55.3,0.1-78.4,0.1L-78.2,437.4z"/>
			<path class="st0" d="M266.7,401.6c0.9-4,1.8-8.1,1.8-12.3c0-1.8-0.2-3.4-0.6-5c3.4,0,6.7,0.1,10,0.1c0,0.5,0,1,0,1.5
				c0,1,0.1,2,0.1,3.1c0,1-0.2,2.9-0.5,5.3c-0.4,4.3-1.1,10.1-1.1,15.6c-3.7,0-7.4-0.1-11.2-0.1C265.5,407,266.1,404.3,266.7,401.6z
				"/>
			<path class="st0" d="M170,572.8l0.1-1.4c0.4-6.2,0.8-12.6,0.8-18.9c14.5,0,24.6,0.1,28.3,0.1c15,0.2,31.6,0.3,48.6,0.4
				c0.2,1,0.3,2,0.3,3.1c0,3-0.6,6.2-1.2,9.2c-0.4,2.4-0.9,4.9-1.1,7.3c-8.9,0-18.2,0-27.4,0.1c0,0,0,0,0-0.1l-2.8-0.5
				c-0.1,0.2-0.1,0.4-0.1,0.6c-6.9,0-13.6,0-20.1,0.1C191.8,572.8,182.8,572.8,170,572.8z"/>
			<path class="st0" d="M-103,559.3c0,4.1,0.3,8.6,0.9,13.7c-26.8,0-44.3,0-45.1,0.1v-21.4c2.4,0.1,19.3,0.2,44.6,0.3
				C-102.9,554.2-103,556.7-103,559.3z"/>
			<path class="st0" d="M-112.3,481.6c0,3.4-0.2,6.9-0.4,10.2c-0.2,3.4-0.4,6.8-0.4,10.3c0,2.4,0.1,4.6,0.3,6.6l2.8-0.2
				c-0.2-2-0.3-4.1-0.3-6.4c0-3.4,0.2-6.9,0.4-10.2c0.2-3.4,0.4-6.9,0.4-10.4c0-0.8,0-1.6-0.1-2.5c16.8,0,38.1,0,61.6,0.1
				c-0.1,1.9-0.1,3.7-0.1,5.6c0,4.3,0.2,8.6,0.3,12.9c0.1,3.8,0.2,7.6,0.3,11.5c-55.1-0.1-98-0.1-99.8-0.2V479
				c0.9,0,14.1,0.1,34.9,0.1C-112.3,479.9-112.3,480.8-112.3,481.6z"/>
			<path class="st0" d="M-75.5,366c0,1.9-0.1,3.9-0.1,5.8c-0.1,1.9-0.1,3.9-0.1,5.8c0,1.1,0,2.1,0.1,3.1c-41.1,0-70.8-0.1-71.5-0.1
				v-25.8c0.8,0,29.9,0.1,70.5,0.1C-75.7,359-75.5,363-75.5,366z"/>
			<path class="st0" d="M-78.1,583.9c-0.3,3.6-0.5,7.3-0.5,11c0,3.6,0.3,6.9,0.9,9.9c-40.4,0-69,0-69.5,0v-30
				c2.6-0.1,30.6-0.1,69.6-0.2C-77.7,577.7-77.9,580.8-78.1,583.9z"/>
			<path class="st0" d="M-122.8,394.3c0.4,4.7,0.9,9.7,2.3,14.5c-15.7,0-25.7,0-26.8-0.1v-26.4c0.9,0,9.3,0.1,22.8,0.1
				C-123.5,386.5-123.1,390.5-122.8,394.3z"/>
			<path class="st0" d="M-67.2,477.1h2.8c0-12.4,0-25.1,0.9-37.5c17,0,35.5,0,54.6-0.1c0,1.8-0.1,3.6-0.1,5.4c0,9.5,0.6,19.6,2,32.6
				c-72.3-0.1-136.8-0.2-140.3-0.3v-37.5c1.3-0.1,35.1-0.1,80.9-0.2C-67.2,452-67.2,464.8-67.2,477.1z"/>
			<path class="st0" d="M-120.1,521c1.3,9.6,2.6,19.6,6.6,29.1c-19.5-0.1-32.1-0.1-33.6-0.2v-39.1c1.9,0.1,11.2,0.2,25.6,0.2
				C-121,514.3-120.6,517.7-120.1,521z"/>
			<path class="st0" d="M-64.8,54c0.1,5.2,0.1,10.5,0.9,15.9c-46.9,0-82.5,0.1-83.3,0.1V42.5c0.8,0,35.8,0,82,0
				C-64.9,46.4-64.8,50.2-64.8,54z"/>
			<path class="st0" d="M-122,122.8c0.6,5.2,1.2,10.5,1.2,15.7c0,0.8,0,1.7-0.1,2.5c-15.8,0-25.7-0.1-26.4-0.1V111
				c0.7,0,9.6,0,24.1,0.1C-122.9,115-122.5,119-122,122.8z"/>
			<path class="st0" d="M-113,32c0,3,0.1,5.9,0.2,8.8c-20.5,0-33.6,0-34.4,0v-28c0.8,0,14.1,0.1,34.7,0.1
				C-112.8,18.9-113,25.5-113,32z"/>
			<path class="st0" d="M-87.3,185.5c0,1.9-0.1,3.8-0.1,5.7c-0.1,1.9-0.1,3.9-0.1,5.8c0,3.1,0.2,5.6,0.6,8c-35.1,0-59.4,0-60.2,0.1
				v-21.4c2.1,0.1,25.9,0.2,59.8,0.2C-87.4,184.4-87.3,185-87.3,185.5z"/>
			<path class="st0" d="M-47.6,296c-0.4,5.3-0.8,10.8-0.8,16.2c0,1.4,0,2.8,0.1,4.2l2.8-0.1c-0.1-1.4-0.1-2.8-0.1-4.2
				c0-5.3,0.4-10.8,0.8-16.1c0.2-2.9,0.4-5.8,0.6-8.6c20.7,0,42.9,0,64.9,0c-0.3,4-0.4,8.3-0.4,13.7c0,2.6,0,5.2,0.1,7.8
				c0,2.6,0.1,5.2,0.1,7.8h2.8c0-2.6,0-5.2-0.1-7.8c0-2.6-0.1-5.2-0.1-7.8c0-5.5,0.1-9.8,0.4-13.7c27.3,0,54.2,0,77.3,0
				c0,1-0.1,2-0.1,3c0,2.9,0.1,5.7,0.2,8.5c0.1,2.8,0.2,5.6,0.2,8.4c0,3.6-0.2,6.6-0.5,9.5c-108.2-0.1-245-0.2-247.8-0.3v-29.2
				c0.8,0,45,0,100.2,0.1C-47.2,290.3-47.4,293.1-47.6,296z"/>
			<path class="st0" d="M-116,241.7c0,4.6,1.1,9.3,2.1,13.8c0.6,2.4,1.1,4.8,1.5,7.1l2.8-0.3c-0.4-2.4-1-4.9-1.5-7.3
				c-1-4.4-2.1-8.9-2.1-13.3c0-1.1,0.1-2.2,0.3-3.2c13.5,0,30.3,0,48.8,0c0.8,4.1,1.4,8.2,1.9,12.2c0.5,4,1.1,8.2,1.9,12.4
				c-9.7,0-19,0-27.6,0c0,0,0,0,0,0l-0.2,0c-34.8,0-58.9,0-59.1,0v-24.7c0.6,0,12.6,0,31.5,0C-115.9,239.5-116,240.6-116,241.7z"/>
			<path class="st0" d="M75.2,437.7l0.1-2.3c0.2-4.3,0.5-9.1,0.5-12.9c0-4.4-0.3-8.3-0.8-11.9c31,0,59.4,0,80.5,0.1
				c0.1,0.8,0.2,1.5,0.2,2.3c0,3.6-0.9,7-1.9,10.7c-1,3.7-1.9,7.4-1.9,11.3c0,0.5,0,1.6,0.1,2.5C131.2,437.7,104.3,437.7,75.2,437.7
				z"/>
			<path class="st0" d="M95.2,479.3c0,3.2-0.1,6.5-0.3,9.8c-0.2,3.5-0.3,7.1-0.3,10.7c0,3.6,0.2,6.7,0.5,9.6
				c-22.4,0-46.6-0.1-70.9-0.1c-1.3-9.6-2.7-20.4-2.9-30C46.6,479.2,71.9,479.3,95.2,479.3z"/>
			<path class="st0" d="M28.6,394.1l0,2.5c0,4.1,0.1,8.2,0.7,12.4c-27.9,0-56.1,0-81.5-0.1l2.4-0.1c-0.1-1.3-0.1-2.6-0.1-3.9
				c0-3.9,0.3-7.9,0.5-11.7c0.2-3.4,0.4-7,0.5-10.5c24.2,0,50.7,0.1,76.9,0.1C28.5,386.6,28.6,390.4,28.6,394.1z"/>
			<path class="st0" d="M8.7,511.4c1.5,15.5,6.1,37.9,6.2,38.1c0,0.2,0,0.5-0.1,0.8c-25.4,0-50.4-0.1-72.9-0.1
				c0.3-4.7,0.9-9.4,1.4-14c0.9-7.6,1.8-15.4,1.8-23.1c0-0.6,0-1.2,0-1.9C-35.1,511.3-13.4,511.3,8.7,511.4z"/>
			<path class="st0" d="M-110.8,549.7c-4-9.4-5.3-19.4-6.6-29c-0.4-3.2-0.9-6.5-1.4-9.7c15.8,0.1,37,0.2,61,0.2c0,0.6,0,1.2,0,1.9
				c0,7.6-0.9,15.4-1.8,22.9c-0.5,4.7-1.1,9.5-1.4,14.2c-19.4,0-36.9-0.1-51-0.1L-110.8,549.7z"/>
			<path class="st0" d="M37.9,556.9c0,2.1,0.1,4.3,0.2,6.4c0.1,2.1,0.2,4.2,0.2,6.3c0,1.1,0,2.1-0.1,3.2l2.8,0.1
				c-26,0-52.5,0-77.1,0c0.5-3.6,1.3-7.2,2-10.6c0.7-3.3,1.5-6.8,2-10.2c22.5,0.1,46.5,0.1,70.2,0.2C38,553.7,37.9,555.2,37.9,556.9
				z"/>
			<path class="st0" d="M143.7,477.7c0.1-2.1,0.1-4.2,0.2-6.3c0.3-10.8,0.7-21.9,2.4-32c24.1,0,41.3-0.1,46.4-0.1
				c7.5,0,15.4-0.1,23.4-0.1c0,12.6,0,25.6-1.8,38.7c-6.5,0-12.9-0.1-19-0.1C189.9,477.8,170.6,477.7,143.7,477.7z"/>
			<path class="st0" d="M78.8,550.4c0.4-4.7,1.2-9.4,2-13.9c1.1-6,2.3-12.3,2.3-18.5c0-2.3-0.2-4.4-0.5-6.4
				c18.4,0.1,35.8,0.1,51.3,0.2c-0.1,0.9-0.1,2-0.1,3.5c0,4.6-0.2,9.3-0.4,13.8c-0.2,4.5-0.4,9.2-0.4,13.9c0,2.7,0.1,5.2,0.2,7.6
				C116.8,550.5,98.3,550.5,78.8,550.4z"/>
			<path class="st0" d="M122,353.5c-22.9,0-50.2-0.1-78.5-0.1c0.1-1,0.1-2.6,0.1-5.1c0-2.9-0.1-5.9-0.1-8.8
				c-0.1-2.9-0.1-5.8-0.1-8.8c0-4.5,0.2-8.2,0.5-11.6c25.7,0.1,51.4,0.1,75.1,0.2C120.2,330.6,121.1,341.6,122,353.5z"/>
			<path class="st0" d="M70.8,282.3c0-4.2-0.3-8.5-0.7-12.6c-0.1-1.6-0.3-3.3-0.4-4.9c30.7,0,57.8,0,75.6,0
				c-1.5,9.9-2.5,20.7-2.5,20.8l1.4,0.1c-18.2,0-44.4,0-73.7,0C70.8,284.6,70.8,283.5,70.8,282.3z"/>
			<path class="st0" d="M39.5,42.6c-0.2,1.7-0.3,3.3-0.5,5c-0.8,7.3-1.6,14.9-1.6,22.2c-33.1,0-68,0-98.4,0.1
				c-0.7-5.4-0.8-10.7-0.9-16c0-3.7-0.1-7.5-0.4-11.4C-31,42.6,5.3,42.6,39.5,42.6z"/>
		</g>
	</g>
	<path class="st1" d="M451.1,385.7l3,0.2l0.2-1.2c1.4-9.1,2.9-18.6,5.2-27.8l-2.9-0.3c-2.4,9.2-3.8,18.7-5.3,27.9L451.1,385.7z"/>
</g>
<path class="st5" d="M538.2,582.1H-143V108.9c0,0,21.4,330.3,340.5,330.3s340.6-330.3,340.6-330.3V582.1z"/>
<g>
	<polyline class="st6" points="4.2,840.1 -2.8,311.7 -55.2,370 -57.1,840.1 	"/>
	<g>
		<rect x="4.4" y="317.9" class="st7" width="241.3" height="522.3"/>
		<g>
			<rect x="188.8" y="324.7" class="st8" width="44.6" height="125.9"/>
			<path class="st7" d="M201.5,419.6c0,5.7,4.6,10.3,10.3,10.3s10.3-4.6,10.3-10.3c0-5.7-4.6-10.3-10.3-10.3
				C206.1,409.3,201.5,413.9,201.5,419.6z"/>
			<path class="st9" d="M201.5,419.6c0,5.7,4.6,10.3,10.3,10.3s10.3-4.6,10.3-10.3c0-5.7-4.6-10.3-10.3-10.3
				C206.1,409.3,201.5,413.9,201.5,419.6z"/>
			<rect x="201.5" y="343" class="st10" width="20.6" height="56.1"/>
			<g>
				<rect x="206.1" y="352.7" class="st7" width="12.6" height="1.1"/>
				<rect x="206.1" y="359.6" class="st7" width="12.6" height="1.1"/>
				<rect x="206.1" y="366.4" class="st7" width="12.6" height="1.1"/>
				<rect x="206.1" y="373.3" class="st7" width="12.6" height="1.1"/>
				<rect x="206.1" y="380.1" class="st7" width="12.6" height="1.1"/>
				<rect x="206.1" y="387" class="st7" width="12.6" height="1.1"/>
			</g>
		</g>
		<g>
			<g>
				<rect x="173.3" y="475.6" class="st11" width="44.6" height="125.8"/>
				<path class="st7" d="M186,570.6c0,5.7,4.6,10.3,10.3,10.3s10.3-4.6,10.3-10.3s-4.6-10.3-10.3-10.3
					C190.6,560.3,186,564.9,186,570.6z"/>
				<path class="st9" d="M186,570.6c0,5.7,4.6,10.3,10.3,10.3s10.3-4.6,10.3-10.3s-4.6-10.3-10.3-10.3
					C190.6,560.3,186,564.9,186,570.6z"/>
				<rect x="186.1" y="493.9" class="st10" width="20.6" height="56.1"/>
				<g>
					<rect x="190.6" y="503.6" class="st7" width="12.6" height="1.1"/>
					<rect x="190.6" y="515.1" class="st7" width="12.6" height="1.1"/>
					<rect x="190.6" y="526.5" class="st7" width="12.6" height="1.1"/>
					<rect x="190.6" y="538" class="st7" width="12.6" height="1.1"/>
				</g>
			</g>
			<g>
				<rect x="125" y="475.6" class="st11" width="44.6" height="125.8"/>
				<path class="st7" d="M137.7,570.5c0,5.7,4.6,10.3,10.3,10.3s10.3-4.6,10.3-10.3s-4.6-10.3-10.3-10.3
					C142.3,560.2,137.7,564.8,137.7,570.5z"/>
				<path class="st9" d="M137.7,570.5c0,5.7,4.6,10.3,10.3,10.3s10.3-4.6,10.3-10.3s-4.6-10.3-10.3-10.3
					C142.3,560.2,137.7,564.8,137.7,570.5z"/>
				<rect x="137.7" y="493.9" class="st10" width="20.6" height="56.1"/>
				<g>
					<rect x="142.3" y="503.6" class="st7" width="12.6" height="1.1"/>
					<rect x="142.3" y="515" class="st7" width="12.6" height="1.1"/>
					<rect x="142.3" y="526.5" class="st7" width="12.6" height="1.1"/>
					<rect x="142.3" y="537.9" class="st7" width="12.6" height="1.1"/>
				</g>
			</g>
			<g>
				<rect x="76.6" y="475.5" class="st11" width="44.6" height="125.8"/>
				<path class="st7" d="M89.3,570.5c0,5.7,4.6,10.3,10.3,10.3c5.7,0,10.3-4.6,10.3-10.3s-4.6-10.3-10.3-10.3
					C93.9,560.2,89.3,564.8,89.3,570.5z"/>
				<path class="st9" d="M89.3,570.5c0,5.7,4.6,10.3,10.3,10.3c5.7,0,10.3-4.6,10.3-10.3s-4.6-10.3-10.3-10.3
					C93.9,560.2,89.3,564.8,89.3,570.5z"/>
				<rect x="89.3" y="493.9" class="st10" width="20.6" height="56.1"/>
				<g>
					<rect x="93.9" y="503.6" class="st7" width="12.6" height="1.1"/>
					<rect x="93.9" y="515" class="st7" width="12.6" height="1.1"/>
					<rect x="93.9" y="526.5" class="st7" width="12.6" height="1.1"/>
					<rect x="93.9" y="537.9" class="st7" width="12.6" height="1.1"/>
				</g>
			</g>
			<g>
				<rect x="28.2" y="475.5" class="st11" width="44.6" height="125.8"/>
				<path class="st7" d="M40.9,570.5c0,5.7,4.6,10.3,10.3,10.3s10.3-4.6,10.3-10.3s-4.6-10.3-10.3-10.3
					C45.5,560.2,40.9,564.8,40.9,570.5z"/>
				<path class="st9" d="M40.9,570.5c0,5.7,4.6,10.3,10.3,10.3s10.3-4.6,10.3-10.3s-4.6-10.3-10.3-10.3
					C45.5,560.2,40.9,564.8,40.9,570.5z"/>
				<rect x="40.9" y="493.8" class="st10" width="20.6" height="56.1"/>
				<g>
					<rect x="45.5" y="503.6" class="st7" width="12.6" height="1.1"/>
					<rect x="45.5" y="515" class="st7" width="12.6" height="1.1"/>
					<rect x="45.5" y="526.4" class="st7" width="12.6" height="1.1"/>
					<rect x="45.5" y="537.9" class="st7" width="12.6" height="1.1"/>
				</g>
			</g>
		</g>
		<g>
			<g>
				<rect x="183.3" y="618.8" class="st11" width="44.6" height="125.9"/>
				<path class="st7" d="M196,713.8c0,5.7,4.6,10.3,10.3,10.3s10.3-4.6,10.3-10.3s-4.6-10.3-10.3-10.3
					C200.6,703.5,196,708.1,196,713.8z"/>
				<path class="st9" d="M196,713.8c0,5.7,4.6,10.3,10.3,10.3s10.3-4.6,10.3-10.3s-4.6-10.3-10.3-10.3
					C200.6,703.5,196,708.1,196,713.8z"/>
				<rect x="196" y="637.1" class="st10" width="20.6" height="56.1"/>
				<g>
					<rect x="200.6" y="646.8" class="st7" width="12.6" height="1.1"/>
					<rect x="200.6" y="658.3" class="st7" width="12.6" height="1.1"/>
					<rect x="200.6" y="669.7" class="st7" width="12.6" height="1.1"/>
					<rect x="200.6" y="681.2" class="st7" width="12.6" height="1.1"/>
				</g>
			</g>
			<g>
				<rect x="134.9" y="618.8" class="st12" width="44.6" height="125.9"/>
				<path class="st7" d="M147.6,713.7c0,5.7,4.6,10.3,10.3,10.3s10.3-4.6,10.3-10.3s-4.6-10.3-10.3-10.3
					C152.3,703.4,147.6,708,147.6,713.7z"/>
				<path class="st9" d="M147.6,713.7c0,5.7,4.6,10.3,10.3,10.3s10.3-4.6,10.3-10.3s-4.6-10.3-10.3-10.3
					C152.3,703.4,147.6,708,147.6,713.7z"/>
				<rect x="147.7" y="637.1" class="st10" width="20.6" height="56.1"/>
				<g>
					<rect x="152.3" y="646.8" class="st7" width="12.6" height="1.1"/>
					<rect x="152.2" y="658.3" class="st7" width="12.6" height="1.1"/>
					<rect x="152.2" y="669.7" class="st7" width="12.6" height="1.1"/>
					<rect x="152.2" y="681.1" class="st7" width="12.6" height="1.1"/>
				</g>
			</g>
			<g>
				<rect x="86.6" y="618.8" class="st13" width="44.6" height="125.9"/>
				<path class="st7" d="M99.3,713.7c0,5.7,4.6,10.3,10.3,10.3c5.7,0,10.3-4.6,10.3-10.3s-4.6-10.3-10.3-10.3S99.3,708,99.3,713.7z"
					/>
				<path class="st9" d="M99.3,713.7c0,5.7,4.6,10.3,10.3,10.3c5.7,0,10.3-4.6,10.3-10.3s-4.6-10.3-10.3-10.3S99.3,708,99.3,713.7z"
					/>
				<rect x="99.3" y="637.1" class="st10" width="20.6" height="56.1"/>
				<g>
					<rect x="103.9" y="646.8" class="st7" width="12.6" height="1.1"/>
					<rect x="103.9" y="658.2" class="st7" width="12.6" height="1.1"/>
					<rect x="103.9" y="669.7" class="st7" width="12.6" height="1.1"/>
					<rect x="103.9" y="681.1" class="st7" width="12.6" height="1.1"/>
				</g>
			</g>
			<g>
				<rect x="38.2" y="618.7" class="st14" width="44.6" height="125.9"/>
				<path class="st7" d="M50.9,713.7c0,5.7,4.6,10.3,10.3,10.3s10.3-4.6,10.3-10.3s-4.6-10.3-10.3-10.3S50.9,708,50.9,713.7z"/>
				<path class="st9" d="M50.9,713.7c0,5.7,4.6,10.3,10.3,10.3s10.3-4.6,10.3-10.3s-4.6-10.3-10.3-10.3S50.9,708,50.9,713.7z"/>
				<rect x="50.9" y="637" class="st10" width="20.6" height="56.1"/>
				<g>
					<rect x="55.5" y="646.8" class="st7" width="12.6" height="1.1"/>
					<rect x="55.5" y="658.2" class="st7" width="12.6" height="1.1"/>
					<rect x="55.5" y="669.6" class="st7" width="12.6" height="1.1"/>
					<rect x="55.5" y="681.1" class="st7" width="12.6" height="1.1"/>
				</g>
			</g>
		</g>
		<g>
			<rect x="139.6" y="324.6" class="st8" width="44.6" height="125.9"/>
			<path class="st7" d="M152.3,419.6c0,5.7,4.6,10.3,10.3,10.3s10.3-4.6,10.3-10.3c0-5.7-4.6-10.3-10.3-10.3
				S152.3,413.9,152.3,419.6z"/>
			<path class="st9" d="M152.3,419.6c0,5.7,4.6,10.3,10.3,10.3s10.3-4.6,10.3-10.3c0-5.7-4.6-10.3-10.3-10.3
				S152.3,413.9,152.3,419.6z"/>
			<rect x="152.4" y="342.9" class="st10" width="20.6" height="56.1"/>
			<g>
				<rect x="156.9" y="352.7" class="st7" width="12.6" height="1.1"/>
				<rect x="156.9" y="359.5" class="st7" width="12.6" height="1.1"/>
				<rect x="156.9" y="366.4" class="st7" width="12.6" height="1.1"/>
				<rect x="156.9" y="373.3" class="st7" width="12.6" height="1.1"/>
				<rect x="156.9" y="380.1" class="st7" width="12.6" height="1.1"/>
				<rect x="156.9" y="387" class="st7" width="12.6" height="1.1"/>
			</g>
		</g>
		<g>
			<rect x="91.3" y="324.6" class="st8" width="44.6" height="125.9"/>
			<path class="st7" d="M104,419.6c0,5.7,4.6,10.3,10.3,10.3c5.7,0,10.3-4.6,10.3-10.3c0-5.7-4.6-10.3-10.3-10.3
				C108.7,409.3,104,413.9,104,419.6z"/>
			<path class="st9" d="M104,419.6c0,5.7,4.6,10.3,10.3,10.3c5.7,0,10.3-4.6,10.3-10.3c0-5.7-4.6-10.3-10.3-10.3
				C108.7,409.3,104,413.9,104,419.6z"/>
			<rect x="104.1" y="342.9" class="st10" width="20.6" height="56.1"/>
			<g>
				<rect x="108.7" y="352.6" class="st7" width="12.6" height="1.1"/>
				<rect x="108.6" y="359.5" class="st7" width="12.6" height="1.1"/>
				<rect x="108.6" y="366.4" class="st7" width="12.6" height="1.1"/>
				<rect x="108.6" y="373.2" class="st7" width="12.6" height="1.1"/>
				<rect x="108.6" y="380.1" class="st7" width="12.6" height="1.1"/>
				<rect x="108.6" y="387" class="st7" width="12.6" height="1.1"/>
			</g>
		</g>
		<g>
			
				<rect x="-2.9" y="365.8" transform="matrix(0.1538 -0.9881 0.9881 0.1538 -332.7053 387.6501)" class="st15" width="125.8" height="44.6"/>
			<path class="st7" d="M45.5,418.2c-0.9,5.6,3,10.9,8.6,11.8s10.9-3,11.8-8.6c0.9-5.6-3-10.9-8.6-11.8
				C51.7,408.8,46.4,412.6,45.5,418.2z"/>
			<path class="st9" d="M45.5,418.2c-0.9,5.6,3,10.9,8.6,11.8s10.9-3,11.8-8.6c0.9-5.6-3-10.9-8.6-11.8
				C51.7,408.8,46.4,412.6,45.5,418.2z"/>
			
				<rect x="35.2" y="361.5" transform="matrix(0.1538 -0.9881 0.9881 0.1538 -313.8991 377.0705)" class="st10" width="56.1" height="20.6"/>
			<g>
				
					<rect x="66" y="348.1" transform="matrix(0.1538 -0.9881 0.9881 0.1538 -293.8539 365.605)" class="st7" width="1.1" height="12.6"/>
				
					<rect x="64.8" y="354.9" transform="matrix(0.1538 -0.9881 0.9881 0.1538 -301.5526 370.2377)" class="st7" width="1.1" height="12.6"/>
				
					<rect x="63.8" y="361.6" transform="matrix(0.1538 -0.9881 0.9881 0.1538 -309.0721 374.9124)" class="st7" width="1.1" height="12.6"/>
				
					<rect x="62.8" y="368.4" transform="matrix(0.1538 -0.9881 0.9881 0.1538 -316.7021 379.6556)" class="st7" width="1.1" height="12.6"/>
				
					<rect x="61.7" y="375.2" transform="matrix(0.1538 -0.9881 0.9881 0.1538 -324.2215 384.3304)" class="st7" width="1.1" height="12.6"/>
				
					<rect x="60.7" y="382" transform="matrix(0.1538 -0.9881 0.9881 0.1538 -331.8513 389.0734)" class="st7" width="1.1" height="12.6"/>
			</g>
		</g>
		<rect x="4.4" y="317.9" class="st16" width="241.3" height="514.5"/>
		<rect x="4.7" y="447" class="st17" width="241.3" height="20.7"/>
		<rect x="4.6" y="589.4" class="st17" width="241.3" height="20.7"/>
		<rect x="4.3" y="730.8" class="st17" width="241.3" height="101.6"/>
		<g>
			<rect x="134.8" y="758.8" class="st18" width="6.5" height="18.8"/>
			<rect x="107.6" y="758.8" class="st18" width="6.5" height="18.8"/>
		</g>
		<rect x="12.4" y="739.9" class="st19" width="224.9" height="90.2"/>
		<line class="st19" x1="124.9" y1="739.9" x2="124.9" y2="830.1"/>
	</g>
</g>
<g>
	<g>
		<path class="st20" d="M314.9,484.4c24.8,35.5,24.8,90,24.2,96.3c-0.6,5.6,3.5,14.7,9.2,23.7c2.4,2,10.2,8.8,13.4,19.5
			c3.8,12.8-0.5,18.7-2.7,23.9c-2.3,5.3-15.6,14.7-19.1,17.6c-3.3,2.9-10.1,2.4-13.8,3c-1.2,0.2-2-0.3-2.6-1.2c-1-2,0.3-5.7,6.7-7
			c9.2-1.8,11.4-14.7,9.5-20.5c-1.9-5.8-9.7-12.8-9.7-12.8s-7.6,6.5-6.9,15.2s-7.8,9.2-7.8,9.2L315,620l2.6-12.9c0-0.1,0-0.3,0-0.4
			c0-0.1,0.1-0.2,0.1-0.4l0.5-2.2l0,0c1-6.8-2.2-15.4-13.2-46c-5.6-15.7-14.6-31.4-22.8-44.1c-9.7-15.2-18.3-25.8-18.3-25.8
			C305.8,473.2,314.9,484.4,314.9,484.4z"/>
		<path class="st21" d="M349.6,578.9c0,0-23.1-122.3-102.1-276.4l-44.7,43c0,0,35.3,77.8,52.5,118.9s54.1,126.1,54.1,126.1
			L349.6,578.9z"/>
	</g>
	<path class="st22" d="M277,492.7c-4.2-44-13.5-173.4-29.5-190.2c-4.2-4.5-24.1-8-31.2-10c-13,2-36.4-4.3-98,10
		c0,0-9.3,6.6-24.3,15.8c-2,1.3-4.2,2.6-6.7,4.2c0,0,0,0,0,0.1l0,0c0,0-11.3,9.2-21.6,34.2c-10.4,25,28,95.5,25.2,151.4
		c-2.8,55.9,8.2,111,8.2,111s87.9,57.5,175.5,10.7C274.6,629.9,283.9,563.3,277,492.7z"/>
	<path class="st20" d="M132.7,292.7c0,0,4,10.5,10.7,21c7.2,11.1,17.3,22.1,29.2,20.5c23-3.2,29.2-43.6,25.7-47s-17-2.7-12.7-31.6
		c0,0-16,7.1-50.3,2c0,0,1.8,4.8,2.6,11.2C139,276.4,138.7,286.2,132.7,292.7z"/>
	<g>
		<path class="st23" d="M110.5,95.6c20.6-13.3,44.9-14.3,52.6-14.1c10.3,0.4,37.6,2.9,56.2,22.4c14,14.7,19.9,43.1,13,60.1
			c-7,16.9-9.1,27.8-9.1,27.8l-2,3.9c-3.9-12.9,3.2-20.5,3.5-48.7c0.3-25.3-6.5-51.3-60.2-62c-23,0.4-36.8,9.6-38.8,10.6
			c-3.9,1.8-10.2,6.4-15.8,18c-8.9,18.7-7.1,27.8-6.3,51.8c0.8,23.9,1.4,42.4,9.9,50.5c6.5,6.2,11.5,8.5,13.4,9.1
			c0.6,0.2,0.9,0.3,0.9,0.3c9.1-0.8,8.9-6.7,27.1-8.8c18.2-2,37.8-0.3,52,2.6c14.3,3,19.3,8.1,20.5,17.2c1.3,9.1,0.3,24.8-17.1,39.4
			c-17.4,14.5-51.9,15.3-76.3,7s-36.3-30.8-43.5-49.1c-6.3-16-5.1-31-5.3-50.2c0-2.8-0.1-5.7-0.2-8.7
			C84,151.4,87.3,110.6,110.5,95.6z"/>
		<path class="st24" d="M99.9,152.5c-0.4,13-1,31.9,2.7,47.7c1.4,6.2,3.5,11.7,6.4,16.4c4.2,6.6,10.2,11.3,18.9,12.1
			c0,0,5.9-4.5,17.9-7.7c0.2-0.1,0.4-0.2,0.5-0.2c15.6-3.9,41.3-5.6,78.1,7.3c0,0-0.7-2.7-1.6-7.2c-0.9-5.4-1.9-13.3-1.7-22.3
			c0.1-8.3,1.3-17.4,4.2-26.6c9.1-27.5-2.1-55.3-10.8-65.5c-15.9-18.6-50.9-29.6-83.8-15.8C104.5,101.9,100.6,127.3,99.9,152.5z"/>
		<g>
			<path class="st25" d="M99.7,189.7c-0.5,8.1-7.5,14.1-15.7,13.5c-8.2-0.6-14.4-7.6-13.9-15.6c0.5-8.1,7.5-14.1,15.7-13.5
				C93.9,174.6,100.2,181.6,99.7,189.7z"/>
			<path class="st26" d="M87.8,195.8c-3.8-0.5-6.6-3.9-6.1-7.7c0.4-3.7,3.7-6.3,7.4-5.9c-1-0.6-2-1-3.2-1.1c-4.5-0.6-8.6,2.6-9.1,7
				c-0.5,4.4,2.7,8.5,7.3,9.1c2.1,0.3,4.2-0.4,5.8-1.5C89.1,195.8,88.5,195.9,87.8,195.8z"/>
		</g>
	</g>
	<g>
		<path class="st23" d="M152,151l-28.6-7.3c0,0-4.2-8.1,3.3-8.2l27.5,7c0,0,2.2,0.1,2.4,2l-1.6,6.1C155,150.7,154.3,151.9,152,151z"
			/>
		<path class="st23" d="M191.8,150.8l26.8-6.1c0,0,6.7-10.8-2.8-8.5l-26,6.1c0,0-2,0-2.2,1.9l1.4,6.2
			C189.1,150.3,189.7,151.5,191.8,150.8z"/>
		<g>
			<path class="st27" d="M175.6,162.1c5.7,18.1,13.6,42.1,13.6,45.6c0,3.5-17.2,7.7-20.3,6.5c-3.1-1.2,3.6-52.1,3.6-52.1H175.6z"/>
			<path class="st24" d="M172.5,160.3c5.7,18.1,13.6,42.1,13.6,45.6c0,3.5-17.2,7.7-20.3,6.5c-3.1-1.2,3.6-52.1,3.6-52.1H172.5z"/>
		</g>
		<g>
			<path class="st28" d="M188.3,170.2c-0.2-7.7,1-16.9,12.7-20c11.9-3.1,17.3,7.5,17.2,11.4c-0.1,3.9-3.4,9.6-9.9,10.4
				c-6.5,0.6-12.3,0.1-14.7,0.4C191.1,172.8,188.4,171.8,188.3,170.2z"/>
			
				<ellipse transform="matrix(0.9988 -4.801689e-02 4.801689e-02 0.9988 -7.4924 9.8897)" class="st29" cx="202.1" cy="160.9" rx="9.8" ry="9.8"/>
			<path class="st28" d="M201.1,165.8c0.1,2.4,2.1,4.4,4.5,4.3c2.4-0.1,4.4-2.1,4.3-4.5c-0.1-2.4-2.1-4.4-4.5-4.3
				C203,161.2,201,163.2,201.1,165.8z"/>
			<path class="st28" d="M157.9,171.2c-0.4-7.7-1.9-16.7-13.9-19.2c-12-2.5-16.9,8.5-16.4,12.5c0.5,4,4,9.4,10.6,9.7
				c6.6,0.3,12.3-0.8,14.7-0.4C155.1,173.9,158,172.8,157.9,171.2z"/>
			<path class="st29" d="M152.8,161.8c0.1,5.4-4,10-9.5,10.1s-10-4-10.1-9.5c-0.1-5.4,4-10,9.5-10.1
				C148.1,152.1,152.5,156.4,152.8,161.8z"/>
			<path class="st28" d="M151,166.6c0.1,2.4-1.9,4.6-4.3,4.5c-2.4,0.1-4.6-1.9-4.5-4.3c-0.1-2.4,1.9-4.6,4.3-4.5
				C148.9,162.2,150.9,164.2,151,166.6z"/>
		</g>
	</g>
	<g>
		<path class="st27" d="M194,242.9l-0.4-3.8c-9.9-8.8-23.4-7.5-42.4,4.3l0.8,1.5C170.3,233.5,185.1,234.9,194,242.9z"/>
	</g>
	<g>
		<path class="st30" d="M95,304.9L95,304.9C95.1,304.9,95.1,304.9,95,304.9C95.1,304.9,95.1,304.9,95,304.9z"/>
		<path class="st31" d="M216.2,292.9c-21.7-4.9-35.6,9.5-43.9,8.6c-7.2-0.7-36.1-9.9-53.9,0.6l73.9,139.2L216.2,292.9z"/>
		<polygon class="st32" points="180.7,311.8 186.2,316.7 204.2,290.1 197.1,287.3 172.8,301.8 132.9,293.1 127,297.5 162.5,319.2 
			165.8,314 168.2,316.8 174.5,407.8 181.6,421.8 197.2,412.3 198.6,402.3 178.7,315.5 		"/>
		<polygon class="st33" points="193.4,450.1 176.9,413.4 168.1,299 172.7,298.1 197.9,410.7 		"/>
		<polygon class="st33" points="174.3,320.4 164.1,308.9 165.5,298 175.2,295.9 180.7,307.5 		"/>
		<polygon class="st31" points="162.4,318.7 168.9,297.2 133.1,286.9 129.4,294.6 		"/>
		<polygon class="st31" points="186.2,316.7 171.8,296 197.7,284 201.7,288.4 		"/>
	</g>
</g>
<g>
	
		<rect x="243.1" y="271.5" transform="matrix(0.2465 -0.9691 0.9691 0.2465 -78.1292 601.9261)" class="st28" width="209.8" height="159.4"/>
	<line class="st34" x1="347.2" y1="413.9" x2="392.9" y2="425.5"/>
	<line class="st35" x1="325.8" y1="270" x2="409.8" y2="291"/>
	<g>
		<line class="st36" x1="305.8" y1="290.9" x2="384.6" y2="310.9"/>
		<line class="st36" x1="301.5" y1="307.8" x2="380.3" y2="327.8"/>
		<line class="st36" x1="303.8" y1="298.5" x2="382.7" y2="318.5"/>
		<line class="st36" x1="299.6" y1="315.3" x2="378.4" y2="335.4"/>
		<line class="st36" x1="297.7" y1="322.9" x2="376.5" y2="343"/>
		<line class="st36" x1="295.7" y1="330.4" x2="374.5" y2="350.4"/>
		<line class="st36" x1="293.9" y1="337.9" x2="372.7" y2="358"/>
		<line class="st36" x1="291.9" y1="345.5" x2="370.7" y2="365.6"/>
		<g>
			<g>
				<path class="st37" d="M414.7,354.8c0.5-3.8-0.9-7.6-3.9-10.1l-11.3-9.5c-0.5-0.4-0.6-1.2-0.2-1.7c0.3-0.3,0.7-0.5,1.2-0.4
					l18.3,4.5l2.4-9.7l-9.7-2.4l1.2-4.9l-9.7-2.4l-1.2,5c-6.1-0.8-11.7,3.4-12.6,9.5c-0.5,3.8,0.9,7.6,3.9,10.1l11.3,9.5
					c0.5,0.4,0.6,1.2,0.2,1.7c-0.3,0.3-0.7,0.5-1.2,0.4l-18.3-4.5l-2.4,9.7l9.7,2.4l-1.2,4.9l9.7,2.4l1.2-5
					C408.3,365.2,413.9,360.9,414.7,354.8z"/>
			</g>
		</g>
	</g>
	<g>
		<g>
			<path class="st38" d="M304.5,402.7c-1.5,2.4-3.7,4.2-6.3,5.3l-0.3-0.7c2.5-1,4.5-2.8,6-5c1.5-2.3,2.3-5.1,2.1-7.8h0.8
				C306.9,397.4,306.1,400.2,304.5,402.7z"/>
		</g>
		<g>
			<g>
				<path class="st38" d="M306.4,403.9c-4.9,7.6-15.1,9.7-22.6,4.8c-7.6-4.9-9.7-15.1-4.8-22.6c4.9-7.6,15.1-9.7,22.6-4.8
					S311.3,396.4,306.4,403.9z M279.5,386.5c-4.7,7.2-2.6,17,4.6,21.7s17,2.6,21.7-4.6s2.6-17-4.6-21.7
					C293.9,377.2,284.2,379.3,279.5,386.5z"/>
			</g>
			<g>
				<path class="st38" d="M279.3,395.6h-0.8c-0.1-2.9,0.7-5.8,2.3-8.3c1.5-2.4,3.7-4.2,6.3-5.3l0.3,0.7c-2.5,1-4.5,2.8-6,5
					C279.9,390.1,279.2,392.8,279.3,395.6z"/>
			</g>
			<g>
				<path class="st38" d="M302.8,401.4c-3.5,5.5-10.9,7-16.3,3.5c-5.5-3.5-7-10.9-3.5-16.3c3.5-5.5,10.9-7,16.3-3.5
					C304.8,388.6,306.3,396,302.8,401.4z M283.6,389c-3.3,5.1-1.9,11.9,3.3,15.3c5.1,3.3,11.9,1.9,15.3-3.3
					c3.3-5.1,1.9-11.9-3.3-15.3C293.8,382.4,286.9,383.9,283.6,389z"/>
			</g>
			<circle class="st38" cx="292.7" cy="395" r="9.2"/>
			<g>
				<path class="st28" d="M288.5,399.7c-1.1-1-1.8-2.2-2.1-3.6c-0.2-1-1.7-0.5-1.5,0.4c0.4,1.7,1.2,3.1,2.5,4.3
					C288.2,401.5,289.3,400.4,288.5,399.7L288.5,399.7z"/>
			</g>
			<g>
				<path class="st28" d="M293.1,401.2c-0.7,0-1.3,0-2-0.2c-1-0.2-1.4,1.3-0.4,1.5c0.8,0.2,1.6,0.3,2.4,0.2
					C294.1,402.7,294.1,401.2,293.1,401.2L293.1,401.2z"/>
			</g>
			<g>
				<path class="st28" d="M297.1,390.5c1.8,1.9,2.3,4.7,1.2,7.1c-0.4,0.9,0.9,1.7,1.4,0.8c1.4-3.1,0.9-6.5-1.5-9
					C297.6,388.7,296.5,389.8,297.1,390.5L297.1,390.5z"/>
			</g>
			<g>
				<path class="st28" d="M291.6,388.7c0.9-0.1,1.7-0.1,2.6,0.1c1,0.2,1.4-1.3,0.4-1.5s-2-0.3-3-0.2c-0.4,0.1-0.8,0.3-0.8,0.8
					C290.8,388.3,291.2,388.8,291.6,388.7L291.6,388.7z"/>
			</g>
			<g>
				<path class="st28" d="M286.8,392.8c0.4-1.2,1.2-2.1,2.1-2.9c0.8-0.6-0.3-1.7-1.1-1.1c-1.2,0.9-2,2.2-2.5,3.6
					C284.9,393.3,286.4,393.7,286.8,392.8L286.8,392.8z"/>
			</g>
		</g>
	</g>
</g>
<g>
	<path class="st20" d="M424.3,378.4c0,0,2.8,2.3,7.3,5.3s3.6,11.7,4,18.8c0,0,4.5,2.6-0.3,9.9c0,0,2.8,2.4-2,8.5c0,0,1.7-0.4-4.7,4
		c-6.4,4.3-28.5-5.5-36.5-3.5c-8.1,2.1-117.7,41.6-147.3,26.4c-29.7-15.2,2.3-49.7,22.5-40.5c0,0,5,1.5,17.3,2.4
		c17.1,1.3,48.3,1.6,100-4.3c0,0,4.1-3.7,8.4-13.2c4.3-9.6,11.7-9.3,11.7-9.3s-0.8,7.3-0.3,9.7c0.5,2.4,14.7,4.4,16.6,0.5
		c1.8-3.9,0.2-6.7,0.2-6.7S420.8,381.7,424.3,378.4z"/>
	<path class="st21" d="M110.5,352.3c23.3,34.4,86.1,46.7,123.3,51c43.7,5.1,130.6,0.2,130.6,0.2l5.7,37.4
		c-173.8,50.8-284.2-20.1-294.8-62c-0.9-3.6-6.1-9.4-1.1-25.4C80,335.1,110.5,352.3,110.5,352.3z"/>
</g>
<g>
	<g class="st39">
		<path class="st40" d="M458.4,94.6c0,39.5-32,71.6-71.6,71.6s-71.6-32-71.6-71.6c0-39.5,32-71.6,71.6-71.6S458.4,55.1,458.4,94.6z"
			/>
		<path class="st41" d="M434.4,94.6c0,26.3-21.3,47.6-47.6,47.6c-26.3,0-47.6-21.3-47.6-47.6S360.5,47,386.8,47
			C413.1,46.9,434.4,68.3,434.4,94.6z"/>
		<polyline class="st40" points="407.1,77.2 390.4,99.8 420,121.6 		"/>
	</g>
	<g>
		<g>
			<path class="st42" d="M450.1,86.3c0,39.5-32,71.6-71.6,71.6s-71.6-32-71.6-71.6c0-39.5,32-71.6,71.6-71.6S450.1,46.8,450.1,86.3z
				"/>
			<path class="st43" d="M426.1,86.3c0,26.3-21.3,47.6-47.6,47.6c-26.3,0-47.6-21.3-47.6-47.6s21.3-47.6,47.6-47.6
				C404.8,38.6,426.1,60,426.1,86.3z"/>
			<polyline class="st42" points="398.8,68.9 382.1,91.5 411.7,113.3 			"/>
		</g>
	</g>
</g>
</svg>
