<?xml version="1.0" encoding="utf-8"?>
<!-- Generator: Adobe Illustrator 24.0.3, SVG Export Plug-In . SVG Version: 6.00 Build 0)  -->
<svg version="1.1" id="Layer_1" xmlns="http://www.w3.org/2000/svg" xmlns:xlink="http://www.w3.org/1999/xlink" x="0px" y="0px"
	 width="480px" height="600px" viewBox="0 0 480 600" style="enable-background:new 0 0 480 600;" xml:space="preserve">
<style type="text/css">
	.st0{fill:#329394;}
	.st1{fill:#227A78;}
	.st2{opacity:0.5;}
	.st3{opacity:0.2;}
	.st4{opacity:0.1;}
	.st5{opacity:0.2;fill:#156677;enable-background:new    ;}
	.st6{fill:#252625;}
	.st7{fill:#CE5241;}
	.st8{fill:none;stroke:#C0C0C0;stroke-width:1.6406;stroke-miterlimit:10;}
	.st9{fill:#F6F6F6;}
	.st10{fill:#39AFE4;}
	.st11{fill:none;stroke:#C0C0C0;stroke-width:1.7199;stroke-miterlimit:10;}
	.st12{fill:none;stroke:#C0C0C0;stroke-width:1.7516;stroke-miterlimit:10;}
	.st13{fill:#378AC6;}
	.st14{fill:#3569AD;}
	.st15{fill:#324898;}
	.st16{fill:#FFD75F;}
	.st17{fill:none;stroke:#F7FBFC;stroke-width:11.4845;stroke-miterlimit:10;}
	.st18{fill:#F7FBFC;}
	.st19{fill:#B4664E;}
	.st20{fill:none;stroke:#252625;stroke-width:1.5921;stroke-miterlimit:10;}
	.st21{opacity:0.4;}
	.st22{fill:none;stroke:#156677;stroke-width:4.2607;stroke-miterlimit:10;}
	.st23{fill:#156677;}
	.st24{fill:none;stroke:#FFFFFF;stroke-width:4.2607;stroke-miterlimit:10;}
	.st25{fill:#363A45;}
	.st26{fill:#FFB781;}
	.st27{fill:#513B3E;}
	.st28{fill:#59463D;}
	.st29{opacity:0.14;fill:#F8F1DF;enable-background:new    ;}
	.st30{fill:#45352F;}
	.st31{opacity:0.33;fill:#221413;enable-background:new    ;}
	.st32{fill:#463235;}
	.st33{fill:#FAB282;}
	.st34{opacity:0.2;fill:#FBEFC8;enable-background:new    ;}
	.st35{fill:#383535;}
	.st36{fill:#F79762;}
	.st37{fill:#FFB476;}
	.st38{fill:#D1652F;}
	.st39{fill:#E97B59;}
	.st40{fill:#FFFFFF;}
	.st41{fill:#39170B;}
	.st42{fill:#F1EDDC;}
	.st43{fill:#E1D9B9;}
	.st44{fill:#E19A2C;}
	.st45{fill:#3F393A;}
	.st46{opacity:0.5;fill:#150B0C;enable-background:new    ;}
	.st47{fill:#150B0C;}
	.st48{fill:#1D202A;}
	.st49{fill:#A9D9EA;}
	.st50{fill:#9DC8D7;}
	.st51{fill:#F3AE7F;}
	.st52{fill:#865823;}
	.st53{fill:#D7D7D7;}
	.st54{opacity:0.34;fill:#4A150F;enable-background:new    ;}
	.st55{fill:#634217;}
	.st56{fill:#542C23;}
	.st57{fill:none;stroke:#CCCCCC;stroke-width:1.7328;stroke-miterlimit:10;}
	.st58{fill:none;stroke:#CCCCCC;stroke-width:5.3197;stroke-miterlimit:10;}
	.st59{fill:none;stroke:#818181;stroke-width:1.2646;stroke-miterlimit:10;}
	.st60{fill:#02AE4D;}
	.st61{fill:#4993C2;}
	.st62{fill:#E99865;}
</style>
<rect x="-45.3" y="-10.2" class="st0" width="681.1" height="634.2"/>
<g>
	<g>
		<path class="st1" d="M425.3,607.9v3.5h3v-3.5c19.8,0.2,39.5,0.3,59,0.3c31.3,0.1,63.2,0.3,95.2,0.8c0,0.2,0,0.4,0,0.6h3
			c0-0.2,0-0.4,0-0.5c8.8,0.2,17.6,0.3,26.4,0.6c-0.1,0.6-0.1,1.2-0.2,1.7h3c0.1-0.6,0.1-1.1,0.2-1.7c7,0.2,14,0.4,21.1,0.7v-1.7
			c-16.8-0.6-33.6-1-50.4-1.3c0.1-4.4,0.4-8.9,0.7-13.3c0.4-5.2,0.8-10.5,0.8-15.7c0-1.3,0-2.5-0.1-3.8c15.9,0.2,32.2,0.5,48.9,0.8
			v-1.7c-9.8-0.2-19.4-0.3-28.9-0.5c0.4-6.3,0.5-12.9,0.5-19.2c10.1,0,19.5,0.1,28.5,0.2v-1.7c-15.8-0.2-33-0.3-52.7-0.3
			c-6.7,0-13.5,0-20.2,0c-0.1-2.6-0.2-5.1-0.2-7.7c0-9.9,0.7-19.3,2.1-28.2c23.6,0.5,47.3,1.1,71,1.8v-1.7c-9-0.3-17.9-0.5-26.9-0.8
			c0.2-3.7,0.3-7.4,0.5-11c0.4-7.9,0.9-16.2,0.9-24.3c8.9,0.2,17.3,0.4,25.5,0.6v-1.7c-17.4-0.5-36-0.8-57-0.9
			c-0.4-9.3-0.4-18.3-0.4-27.8h-3c0,9.5,0,18.5,0.4,27.8c-4.4,0-8.9,0-13.5,0c-19.8,0-39.9,0.1-59.4,0.3c-7.7,0.1-15.5,0.1-23.4,0.2
			l-0.2-1.6c-1.4-11.9-2.8-23.1-3.7-34.7c14.1,1,28.4,2.2,43,3.4c38.5,3.2,78.2,6.5,117.1,6.5v-1.7c-3.7,0-7.4,0-11.1-0.1
			c-0.2-3.1-0.4-6.1-0.5-9.2c-0.4-6.8-0.9-13.8-0.9-20.6c4.2,0.2,8.3,0.4,12.5,0.6v-1.7c-9.4-0.4-18.9-0.9-28.3-1.3
			c-20.4-0.9-40.9-1.9-61.5-2.8c0.1-4.9,0.7-9.8,1.3-14.6c0.5-4,1-8.2,1.2-12.3c17.6,0.4,35.2,0.7,52.6,1.2
			c11.6,0.3,23.2,0.6,34.8,0.9v-1.7c-11.5-0.3-23.1-0.6-34.6-0.9c-39.2-1-79-1.7-118.9-2.6c0.2-3.5,0.6-7.1,1-10.5
			c0.6-5.5,1.3-11.1,1.3-16.8h-3c0,5.6-0.7,11.2-1.3,16.6c-0.4,3.5-0.8,7-1,10.6c-25.8-0.6-51.7-1.4-77.5-2.5
			c-0.5-9-0.9-17.5-0.9-26.3c10.7,0.3,21.3,0.5,31.9,0.7c0,0,0,0,0,0.1l2.2,0c20.5,0.4,40.9,0.6,61.2,0.6c29,0,58.3-0.4,87.6-1.1
			l1.2,0.1c0,0,0-0.1,0-0.2c12.5-0.3,24.9-0.7,37.4-1.1c0,1,0.1,2.1,0.1,3.1c0,4.3-0.3,8.7-0.6,12.9c-0.3,4.3-0.6,8.7-0.6,13
			c0,1.3,0,2.5,0.1,3.8l3,0c-0.1-1.2-0.1-2.5-0.1-3.7c0-4.3,0.3-8.7,0.6-12.9c0.3-4.3,0.6-8.7,0.6-13c0-1.1,0-2.2-0.1-3.3
			c3.5-0.1,7-0.3,10.5-0.4v-1.7c-16.8,0.7-33.6,1.2-50.5,1.6c1.2-4.7,2-9.5,2.8-14.1c0.9-5.3,1.7-10.7,3.2-15.9l-3-0.3
			c-1.5,5.3-2.4,10.7-3.3,16c-0.8,4.7-1.6,9.6-2.8,14.4c-23.3,0.6-46.5,0.9-69.6,1c0.9-11.1,1.4-22.2,1.4-33.3
			c40.2,0.9,81.2,1.9,121.8,3.1v-1.7c-3.5-0.1-7-0.2-10.5-0.3c0-9.4,0.8-17.5,1.6-26.9l0.3-3.7l-3-0.1l-0.3,3.7
			c-0.9,9.4-1.6,17.5-1.6,26.9c-24.8-0.7-49.6-1.4-74.3-1.9c0.5-4.9,0.8-9.9,1.2-14.8c0.4-5.3,0.7-10.6,1.2-15.8l-0.9,0
			c28.7,0.5,57.6,1.2,86.3,2.2v-1.7c-12.8-0.4-25.6-0.8-38.5-1.1c0-1.1-0.1-2.2-0.1-3.3c0-3,0.2-6.2,0.3-9.2c0.2-3,0.3-6.1,0.3-9.1
			h-3c0,3-0.2,6.1-0.3,9.1c-0.2,3-0.3,6.2-0.3,9.3c0,1.1,0.1,2.1,0.1,3.2c-33.1-0.8-66.2-1.3-98.8-1.8c0-0.2,0-0.3,0-0.5
			c0-4.6,0.8-9.4,1.6-14c0.4-2.1,0.7-4.2,1-6.2c24,0.6,48.4,1.1,72.6,1.1c23.6,0,45.2-0.5,65.2-1.5v-1.7c-7.5,0.4-15.3,0.7-23.3,0.9
			c0.8-4.9,1.1-9.9,1.5-14.8c0.2-3.3,0.5-6.6,0.8-9.9c7,0.2,14,0.4,21.1,0.7v-1.7c-16.8-0.6-33.6-1-50.4-1.3
			c0.1-4.4,0.4-8.9,0.7-13.3c0.4-5.2,0.8-10.5,0.8-15.7c0-1.3,0-2.5-0.1-3.8c15.9,0.2,32.2,0.5,48.9,0.8v-1.7
			c-9.8-0.2-19.4-0.3-28.9-0.5c0.4-6.3,0.5-12.9,0.5-19.2c10.1,0,19.5,0.1,28.5,0.2v-1.7c-15.8-0.2-33-0.3-52.7-0.3
			c-6.7,0-13.5,0-20.2,0c-0.1-2.6-0.2-5.1-0.2-7.7c0-9.9,0.7-19.3,2.1-28.2c23.6,0.5,47.3,1.1,71,1.8v-1.7c-9-0.3-17.9-0.5-26.9-0.8
			c0.2-3.7,0.3-7.4,0.5-11c0.4-7.9,0.9-16.2,0.9-24.3c8.9,0.2,17.3,0.4,25.5,0.6v-1.7c-17.4-0.5-36-0.8-57-0.9
			c-0.4-9.3-0.4-18.3-0.4-27.8h-3c0,9.5,0,18.5,0.4,27.8c-4.4,0-8.9,0-13.5,0c-19.8,0-39.9,0.1-59.4,0.3c-7.7,0.1-15.5,0.1-23.4,0.2
			l-0.2-1.6c-1.4-11.9-2.8-23.1-3.7-34.7c14.1,1,28.4,2.2,43,3.4c38.5,3.2,78.2,6.5,117.1,6.5v-1.7c-3.7,0-7.4-0.1-11.1-0.1
			c-0.2-3.1-0.4-6.1-0.5-9.2c-0.4-6.8-0.9-13.8-0.9-20.6c4.2,0.2,8.3,0.4,12.5,0.6v-1.7c-9.4-0.4-18.9-0.9-28.3-1.3
			c-20.4-0.9-40.9-1.9-61.5-2.8c0.1-4.9,0.7-9.8,1.3-14.6c0.5-4,1-8.2,1.2-12.3l-3-0.1c-0.2,4.1-0.7,8.2-1.2,12.3
			c-0.6,4.8-1.1,9.7-1.3,14.6c-32.8-1.5-65.9-2.8-99.1-3.9c1.4-8.6,2.8-17.5,3.7-26.3c51.4,2,102.9,3.4,153.3,4.6
			c11.6,0.3,23.2,0.6,34.8,0.9v-1.7c-11.5-0.3-23.1-0.6-34.6-0.9c-10.1-0.3-20.3-0.5-30.6-0.8c0.7-4.8,1-9.5,1.3-14.1
			c0.3-5,0.6-10,1.4-15.2h-3c-0.8,5.1-1.1,10.2-1.4,15.1c-0.3,4.6-0.6,9.3-1.3,14.1c-47.5-1.2-95.7-2.6-143.7-4.8
			c0.3-2.9,0.7-5.8,1.1-8.7c0.7-5.2,1.4-10.5,1.7-15.7h-3c-0.3,5.1-1,10.4-1.7,15.5c-0.4,2.9-0.8,5.8-1.1,8.7
			c-7.3-0.3-43.2-0.7-81-1c0.7-5.9,1-10.8,1-15.4c0-2.7-0.1-5.3-0.4-7.8h-2.8c0.2,2.5,0.4,5.1,0.4,7.8c0,4.6-0.3,9.4-1,15.4
			c-27.5-0.3-55.6-0.5-74.5-0.8c-0.9,0-4.2,0-9.2,0c-0.8-5-1.2-9.9-1.5-14.7c-0.2-2.5-0.4-5.1-0.6-7.6h-2.8c0.3,2.6,0.5,5.2,0.6,7.7
			c0.3,4.7,0.7,9.6,1.5,14.6c-18.6,0-56.2-0.1-98.7-0.1c0.4-7.3,0.7-14.8,0.8-22.1h-2.8c-0.1,7.4-0.5,14.8-0.8,22l1.9,0.1
			c-29.8,0-62-0.1-91.7-0.1c-0.2-3.3-0.2-6.6-0.3-9.8c0-4-0.2-8.1-0.5-12.2h-2.8C55.8-6.1,56-2,56,2c0,3.2,0.1,6.5,0.3,9.8
			c-4.5,0-8.9,0-13.2,0c0.2-3.7,0.7-7.6,1.2-11.5c0.4-3.5,0.8-7.1,1.1-10.6h-2.8c-0.3,3.4-0.6,6.9-1.1,10.3C40.9,4,40.5,8,40.2,11.8
			c-19.8,0-37.8,0-52.5-0.1c0-0.2,0-0.4,0-0.6l-2.8-0.1c0,0.2,0,0.4,0,0.6c-13.9,0-24.4,0-30.1-0.1v1.8c5.7,0,16.2,0.1,30.1,0.1
			c-0.3,6-0.6,12.6-0.6,19.1c0,3,0.1,5.9,0.2,8.8c-13.7,0-24,0-29.7,0v1.7c11.2,0,40.8,0,77.5,0c0.3,3.8,0.4,7.7,0.4,11.4
			c0.1,5.2,0.1,10.5,0.9,15.9c-37.3,0-67.5,0.1-78.8,0.1v1.7c5.5,0,15.5,0,28.7,0c0,0.5,0,1.1,0,1.6c0,9.2,1.5,18.3,2.9,27.2
			c0.5,2.9,0.9,5.9,1.4,8.9c-15.3,0-26.9-0.1-33-0.1v1.7c4.1,0,10.7,0,19.4,0c0.2,3.9,0.7,7.9,1.1,11.7c0.6,5.2,1.2,10.5,1.2,15.7
			c0,0.8,0,1.7-0.1,2.5c-9.7,0-17.2,0-21.7-0.1v1.8c7,0.1,20.9,0.1,39.6,0.1c-0.4,12.7-0.9,25.8-2.3,39.1c-17.4,0-30.6-0.1-37.3-0.1
			v1.8c8.9,0.1,29,0.1,55.3,0.2c0,0.6,0,1.1,0,1.7c0,1.9-0.1,3.8-0.1,5.7c-0.1,1.9-0.1,3.9-0.1,5.8c0,3.1,0.2,5.6,0.6,8
			c-26.4,0-46.8,0-55.7,0v1.7c5.9,0,16.9,0,31.3-0.1c0.5,5.1,1.6,10,2.7,14.8c1.1,4.9,2.3,10,2.8,15.2c-17.1,0-30.1,0-36.7,0v1.8
			c5.3,0,14.6,0,26.8,0c-0.1,1-0.3,2.1-0.3,3.2c0,4.6,1.1,9.3,2.1,13.8c0.6,2.4,1.1,4.8,1.5,7.1l2.8-0.3c-0.4-2.4-1-4.9-1.5-7.3
			c-1-4.4-2.1-8.9-2.1-13.3c0-1.1,0.1-2.2,0.3-3.2c13.6,0,30.4,0,49,0c0.8,4.1,1.4,8.2,1.9,12.2c0.5,4,1.1,8.2,1.9,12.4
			c-9.8,0-19.1,0-27.7,0c0,0,0,0,0,0l-0.2,0c-25.9,0-45.8,0-54.6,0v1.7c8.4,0,27.5,0,52.2,0c0.7,3.4,0.8,6.7,0.8,9.6l0,3.7
			c0,2.3,0,4.9,0.4,7.5c-25.3,0-44.8,0-53.3,0v1.7c13,0,50.7,0,95.8,0c-0.2,2.8-0.4,5.6-0.6,8.4c-0.4,5.3-0.8,10.8-0.8,16.2
			c0,1.4,0,2.8,0.1,4.2l2.8-0.1c-0.1-1.4-0.1-2.8-0.1-4.1c0-5.3,0.4-10.8,0.8-16.1c0.2-2.9,0.4-5.8,0.6-8.6c20.8,0,43.1,0,65.2,0
			c-0.3,4-0.4,8.3-0.4,13.7c0,2.6,0,5.2,0.1,7.8c0,2.6,0.1,5.2,0.1,7.8h2.8c0-2.6,0-5.2-0.1-7.8c0-2.6-0.1-5.2-0.1-7.8
			c0-5.5,0.1-9.8,0.5-13.7c27.4,0,54.4,0,77.6,0c0,1-0.1,2-0.1,3c0,2.9,0.1,5.7,0.2,8.5c0.1,2.8,0.2,5.6,0.2,8.4
			c0,3.6-0.2,6.6-0.5,9.5c-97.7-0.1-218.6-0.2-244-0.2v1.8c6.8,0.1,19.9,0.1,37.3,0.2l0,6.4c0,9.3-0.1,18.9,0.3,28.2
			c-17.6,0-30.9-0.1-37.6-0.1v1.7c9.9,0,34.4,0,66,0.1c1.1,4.1,1.3,8,1.3,11.1c0,1.9-0.1,3.9-0.1,5.8c-0.1,1.9-0.1,3.9-0.1,5.8
			c0,1.1,0,2.1,0.1,3.1c-32,0-57-0.1-67-0.1v1.8c3.9,0,10.1,0.1,18.1,0.1c0.9,3.9,1.3,7.9,1.7,11.8c0.4,4.7,0.9,9.7,2.3,14.5
			c-9.9,0-17.5,0-22.1,0v1.7c9,0,29.8,0,56.9,0.1c0.5,3,0.9,6,1.3,9c0.7,6,1.5,12.1,3.6,18.2c-29.5,0-52.3,0.1-61.8,0.1v1.7
			c11,0,39.8-0.1,76.4-0.1c-0.9,12.4-0.9,25.2-0.9,37.5h2.8c0-12.4,0-25.1,0.9-37.5c17.1,0,35.7,0,54.9-0.1c0,1.8-0.1,3.6-0.1,5.4
			c0,9.5,0.6,19.6,2,32.6c-62.6-0.1-119.4-0.1-136.1-0.2v1.7c5.7,0,16.3,0,30.2,0.1c0,0.8,0.1,1.6,0.1,2.5c0,3.4-0.2,6.9-0.4,10.2
			c-0.2,3.4-0.4,6.8-0.4,10.3c0,2.4,0.1,4.6,0.3,6.6l2.8-0.2c-0.2-2-0.3-4.1-0.3-6.4c0-3.4,0.2-6.9,0.4-10.2
			c0.2-3.4,0.4-6.9,0.4-10.4c0-0.8,0-1.6-0.1-2.5c16.9,0,38.2,0,61.9,0.1c-0.1,1.9-0.1,3.7-0.1,5.6c0,4.3,0.2,8.6,0.3,12.9
			c0.1,3.8,0.2,7.6,0.3,11.5c-45.4-0.1-82.5-0.1-95.4-0.2v1.8c4.5,0.1,11.6,0.1,20.9,0.1c0.5,3.3,1,6.7,1.5,10
			c1.3,9.6,2.6,19.6,6.6,29.1c-13.3,0-23.4-0.1-29-0.1v1.8c7.1,0.1,21.3,0.1,40,0.2c-0.2,2.4-0.4,4.8-0.4,7.4
			c0,4.1,0.3,8.6,0.9,13.7c-17.7,0-32.3,0-40.5,0v1.7c11.6,0,35.9-0.1,65.1-0.1c-0.1,3.1-0.3,6.2-0.5,9.3c-0.3,3.6-0.5,7.3-0.5,11
			c0,3.6,0.3,6.9,0.9,9.9c-29.3,0-53.5,0-65,0v1.8c47.3,0.1,314,0.2,336.4,0.3C341.9,607.6,413.7,607.8,425.3,607.9z M466.7,590.6
			c-0.5,5.2-0.9,10.3-1.4,15.8c-24.9-0.1-50.2-0.3-75.4-0.8c-0.5-5.2-1-10.1-1.5-15c-0.5-5-1-9.9-1.5-15.3l-3,0.1
			c0.5,5.4,1,10.4,1.5,15.3c0.5,4.8,1,9.6,1.5,14.8c-2.2,0-37.9-0.1-73.4-0.1c0.2-2.6,0.4-5.3,0.6-7.9c0.5-7.5,1-15.3,2.8-22.8
			c58.5-0.3,130.9-0.5,151.3-0.6C467.7,579.8,467.2,585.2,466.7,590.6z M235.9,573.4C235.9,573.4,235.9,573.4,235.9,573.4
			c-27.5,0-61.7,0.1-96.9,0.1c0.1-1.1,0.1-2.2,0.1-3.3c0-2.1-0.1-4.3-0.2-6.4c-0.1-2.1-0.2-4.2-0.2-6.3c0-1.7,0.1-3.3,0.3-4.7
			c22.6,0,44.8,0.1,65.2,0.1c-0.3,3.1-0.5,6.2-0.6,9.3c-0.1,3.5-0.2,7.1-0.7,10.7l2.8,0.3c0.5-3.6,0.6-7.3,0.7-10.9
			c0.1-3.1,0.2-6.2,0.6-9.3c23.1,0,43.8,0.1,59.6,0.1c-0.1,6.3-0.4,12.6-0.8,18.8l-0.1,1.5c-7.8,0-16.9,0-26.9,0c0,0,0,0,0,0H235.9z
			 M109.3,512c23,0.1,46.4,0.1,68.5,0.2c0.3,2.1,0.5,4.2,0.5,6.4c0,6-1.1,12.2-2.2,18.1c-0.9,4.6-1.7,9.5-2.1,14.3
			c-19,0-38.9-0.1-58.6-0.1c0-0.3,0.1-0.7,0.1-1C115.4,549.5,110.9,527.4,109.3,512z M116.3,478.2c-8.3,0-16.6,0-24.9,0l2.2-0.2
			c-1.4-12.9-2-22.9-2-32.4c0-1.8,0-3.6,0.1-5.5c22.2,0,45.1,0,67.2-0.1c0.1,3.7,0.2,7.4,0.2,11.1c0.1,8.9,0.2,18,1.4,27
			c-13.6,0-27.5,0-41.4,0c0,0,0,0,0-0.1L116.3,478.2C116.3,478.1,116.3,478.1,116.3,478.2z M47.7,405.6c0-3.9,0.3-7.9,0.5-11.7
			c0.2-3.4,0.4-7,0.5-10.5c24.3,0,50.9,0.1,77.2,0.1c0.5,3.8,0.6,7.5,0.6,11.3l0,2.5c0,4.1,0.1,8.2,0.7,12.4c-28,0-56.3,0-81.8-0.1
			l2.4-0.1C47.7,408.2,47.7,406.9,47.7,405.6z M99.8,428.1c0.5-3.6,1-7.3,1-11.1c0-2.1-0.2-3.9-0.5-5.8c23.4,0,47.4,0,70,0
			c0.5,3.6,0.8,7.5,0.8,11.9c0,3.7-0.3,8.5-0.5,12.7l-0.1,2.4c-23.2,0-47.7,0-71.6,0.1C98.8,435,99.3,431.6,99.8,428.1z
			 M129.3,397.2l0-2.5c0-3.8-0.1-7.5-0.6-11.3c29.3,0.1,57.9,0.1,82.1,0.2c0,8.5,0,17.3-0.5,25.9l2.8,0.1c0.4-8.6,0.5-17.4,0.5-26
			c34.3,0.1,59.3,0.1,63.8,0.2c1.8,0,3.7,0.1,5.7,0.1c0,0,0,0,0,0.1h0.3c0.3,2.2,0.7,8.3,0.7,12c0,4.2-0.2,9.8-0.4,13.9
			c-6,0-15.2,0-27-0.1c0,0,0,0,0,0l-0.3,0c-31.2,0-79.6-0.1-128.8-0.1l2.4-0.3C129.3,405.3,129.3,401.3,129.3,397.2z M194.3,355.6
			c26.4,0,49.4,0,65.3,0c0.3,3.9,0.4,7.8,0.4,11.4l0,7.1c0,2.5,0,5,0.2,7.5c-15.4,0-39.3-0.1-67.2-0.1c0.2-2.9,0.4-5.7,0.6-8.6
			c0.4-4.8,0.8-9.7,0.8-14.6C194.4,357.4,194.3,356.5,194.3,355.6z M201.9,299.6c-0.1-2.8-0.2-5.6-0.2-8.4c0-1,0-2,0.1-3
			c27.8,0,49.9,0,60.5,0c0,3.8-0.1,7.5-0.3,11.3c-0.2,4.2-0.3,8.3-0.3,12.5c0,1.9,0,3.8,0.1,5.6c-18,0-38.5,0-60.2-0.1
			c0.3-2.9,0.5-5.9,0.5-9.5C202.1,305.3,202,302.5,201.9,299.6z M200.1,237.3c-22.3,0-48.7,0-75.8,0v-30.2c28.1,0,55.8,0,79.6-0.1
			c-1.4,4.9-1.6,9.9-1.9,14.8c-0.2,5.1-0.5,10.4-2.1,15.5L200.1,237.3z M12.6,197.6c0-1.9,0.1-3.8,0.1-5.7c0.1-1.9,0.1-3.8,0.1-5.7
			c0-0.6,0-1.1,0-1.7c17.1,0,36.6,0.1,57.1,0.1c0,1-0.1,2-0.1,3c0,3,0.1,5.9,0.3,8.9c0.1,2.9,0.3,5.9,0.3,8.9h2.8
			c0-3.1-0.2-6.1-0.3-9c-0.1-2.9-0.3-5.8-0.3-8.8c0-1,0-2,0.1-3c23.4,0,48.1,0.1,71.8,0.1c-0.1,3.8-0.5,7.8-1,11.7
			c-0.4,3-0.8,6.1-1,9.1l2,0.1c-45.4,0-94.1,0-131.4,0.1l0.1,0C12.8,203.2,12.6,200.7,12.6,197.6z M97,141.8
			c-26.2,0-51.6-0.1-73.8-0.1c-0.6-4.7-1.5-9.3-2.4-13.8c-1-5.3-2-10.7-2.6-16.2c23.8,0,51.8,0,80.5,0.1c-0.1,1.4-0.3,3.5-0.4,7.1
			C97.9,126.7,97.4,138.6,97,141.8L97,141.8z M47.4,110.1l1.8-0.1c-0.2-3-0.3-6.2-0.3-9.8c0-4.9,0.2-9.9,0.4-14.8
			c0.2-4.3,0.3-8.8,0.4-13.2c20.5,0,42.5,0,64.3,0c-0.2,5.5-0.3,10.6-0.3,15.3c0,7.9,0.3,15.3,0.8,22.6c-4.3,0-8.7,0-13,0
			c-0.2-0.3-0.5-0.6-1.2-0.6c-0.6-0.1-0.9,0-1.2,0.6C81.3,110.1,63.8,110.1,47.4,110.1z M188.1,72.1c0,12.3,0,25.1,1.4,38l2.8-0.2
			C191,97.1,191,84.4,191,72.1c39.3,0,68.5-0.1,71.8-0.1c9.6-0.1,21.7-0.1,34.7-0.2c-1.2,7.4-1.6,15-2,22.3
			c-0.3,5.3-0.5,10.7-1.1,16.1l0.7,0.1c-2.4,0-4.8,0-7.1,0c-10.8-0.1-91.2-0.1-170.9-0.2c-0.5-7.3-0.8-14.7-0.8-22.6
			c0-4.7,0.1-9.8,0.3-15.3C141.7,72.2,166.4,72.1,188.1,72.1z M138,70.4c0-7.2,0.8-14.7,1.6-22c0.2-1.7,0.4-3.5,0.6-5.2
			c48.1,0,91.6,0,110.7,0c-0.2,2.8-0.3,5.7-0.5,8.5c-0.4,6.1-0.8,12.4-0.9,18.6C227.9,70.4,184.9,70.4,138,70.4z M342.7,43.6
			c33.5,0.1,63.7,0.3,69.1,0.4c0.6,5.2,0.6,10.5,0.7,15.5c0,3.4,0.1,6.8,0.3,10.3c-1.5,0-3.1,0-4.6,0c-5,0-34.5,0.1-67.3,0.2
			c0.2-3.2,0.5-6.5,0.9-9.6c0.5-4.8,1-9.8,1-14.6C342.8,45,342.7,44.3,342.7,43.6z M387.4,71.5c-0.5,6.5-1.4,12.9-2.2,19.2
			c-0.9,6.5-1.8,13.2-2.3,19.9c-27.2-0.1-58.8-0.1-85.6-0.3c0.6-5.4,0.8-10.8,1.1-16.1c0.4-7.4,0.8-15.1,2-22.5
			C330.7,71.7,365.6,71.6,387.4,71.5z M412.7,143c-6.8-0.2-50.5-0.5-92.2-0.7c0.2-4.4,0.7-8.9,1.1-13.2c0.6-5.5,1.1-11.3,1.2-17
			c40.8,0.1,82.8,0.2,89,0.3c0.4,2.8,0.6,5.9,0.6,9.6c0,2,0,4-0.1,6c0,2-0.1,4-0.1,6C412.2,137.4,412.4,140.3,412.7,143z
			 M449.7,165.3c0.5,6.2,1,12.4,1.5,18.9c-9.8-0.1-39.9-0.2-74.4-0.4c0.6-4.5,1.2-9.1,1.8-13.6c1.1-8.4,2.2-17.1,3.6-25.6
			c24.1,0.5,46.7,0.9,67.4,1.3l-1.3,0C448.7,152.6,449.2,159,449.7,165.3z M559.9,184.2c-7.8,0-15.7,0-23.5,0.1
			c-15.6,0.1-31.2,0.1-46.8,0.1c-11.6,0-23.5,0-35.4-0.1c-0.5-6.6-1-12.8-1.5-19c-0.5-6.3-1-12.6-1.5-19.3c30,0.6,55.8,1.1,75.5,1.5
			c11.6,0.2,23.4,0.5,35.1,0.7c-1.4,8.9-2.1,18.4-2.1,28.3C559.8,179,559.8,181.6,559.9,184.2z M489.6,186.1c5.6,0,11.3,0,16.9,0
			c-0.1,1.8-0.2,3.8-0.2,6c0,2.2,0.1,4.5,0.1,6.7c0,1.9,0.1,3.7,0.1,5.6c-2.9,0-5.8,0-8.7,0c-32,0-62.6,0.2-92.6,0.7
			c-0.2-3.1-0.3-6.1-0.3-9.2c0-3.3,0.1-6.6,0.4-9.9C442.9,186,475.7,186.1,489.6,186.1z M583.9,206.6c0.1,1.3,0.1,2.5,0.1,3.8
			c0,5.2-0.4,10.5-0.8,15.6c-0.3,4.4-0.6,8.9-0.7,13.3c-32-0.6-63.9-0.7-95.2-0.8c-6.3,0-12.6,0-19-0.1c0.5-5.5,0.9-10.6,1.4-15.8
			c0.5-5.4,1-10.8,1.5-16.6c8.8,0,17.7-0.1,26.7-0.1C525.7,206,554.2,206.2,583.9,206.6z M492.5,288.3c-0.9,0-1.9,0-2.8,0
			c0.5-6.8,1.1-13.8,3.3-20.4l-2.9-0.3c-2.3,6.7-2.9,13.8-3.4,20.7c-2,0-4-0.1-5.9-0.1c-28.1-0.4-56.8-0.8-85.4-1.4
			c0.1-1.7,0.2-3.3,0.2-5c0.2-5.4,0.3-10.9,1.7-16.2c26.7,0.2,53.8,0.9,80,1.6c5.9,0.2,11.8,0.3,17.8,0.5c-0.3,2-0.6,4.1-1,6.1
			c-0.8,4.7-1.6,9.5-1.6,14.2C492.5,288,492.5,288.2,492.5,288.3z M399.8,318c-3-0.1-21.4-0.2-44.8-0.2v-29.4
			c23.4,0.1,41.9,0.1,44.8,0.2c-0.3,5.3-0.4,10.4-0.4,15.5C399.4,308.7,399.6,313.3,399.8,318z M332.7,286.5c0-0.3,0-0.6,0-0.8
			c0-2.9,0.4-5.9,0.8-8.9c0.4-3,0.8-6.1,0.8-9.2c0-0.7-0.1-1.5-0.1-2.2c26.5,0,48.7,0,50.1,0c3.3,0,6.7,0,10,0.1
			c-1.4,5.4-1.5,10.9-1.7,16.2c0,1.7-0.1,3.3-0.2,5C389.8,286.7,363,286.6,332.7,286.5z M352.1,288.4v29.4c-8.4,0-17.4-0.1-26.5-0.1
			c-8.5,0-31-0.1-61-0.1c-0.1-1.9-0.1-3.8-0.1-5.6c0-4.1,0.2-8.3,0.3-12.4c0.1-3.8,0.3-7.6,0.3-11.4c1.7,0,2.9,0,3.6,0
			C291.6,288.3,324.8,288.3,352.1,288.4z M425.3,264.1c-13.7-0.3-27.4-0.4-41-0.4c-1.1,0-13.8,0-31.3,0c2.8-8,3.8-16.3,4.2-24.1
			c32.7,0.1,61.2,0.2,68.1,0.2V264.1z M289.3,205.4c-4.3,0-8.4,0-12.3,0c-4.3,0-23.6,0-50.9,0c1.7-6.9,2.6-13.9,3.5-20.7
			c26.2,0.1,44.4,0.1,48,0.2c9.6,0.1,20.4,0.3,31.8,0.4c0.2,1.6,0.4,3.2,0.4,5.1c0,2.7-0.3,5.5-0.5,8.2c-0.2,2.2-0.4,4.5-0.4,6.8
			c-5.7,0-11.2,0-16.6,0c0,0,0-0.1,0-0.1L289.3,205.4C289.3,205.4,289.3,205.4,289.3,205.4z M164.9,125.1c-0.1-2.5-0.2-5.1-0.2-7.6
			c0-2.1,0.1-4,0.2-5.7c23.9,0,46.5,0,65.6,0c-0.3,2.5-0.4,5.3-0.4,8.5c0,2,0,4,0.1,6c0,2,0.1,4,0.1,6c0,2.7-0.2,6.9-0.4,8.8h-0.2
			c0,0.4,0,0.6,0,0.8c-19,0-41.5,0-65.2-0.1c0.4-2.7,0.5-5.6,0.5-9C165.1,130.3,165,127.7,164.9,125.1z M279.1,143.7
			c-1.4,7.3-1.8,14.9-2.1,22.2c-0.3,5.6-0.6,11.4-1.3,17.2c-6.3,0-23.9-0.1-48.1-0.1l-0.7-0.1l0,0.1c-10.6,0-22.4,0-35-0.1
			c0-3.5,0-7,0.1-10.4c0-3.5,0.1-6.9,0.1-10.4c0-6.1-0.1-11.7-0.5-18.4C223.4,143.7,253.8,143.7,279.1,143.7z M233,126.3
			c0-2-0.1-4-0.1-6c0-3.3,0.2-6,0.4-8.5c28.3,0,48.7,0,54,0.1c10.2,0,21.3,0.1,32.6,0.1c-0.1,5.7-0.6,11.3-1.2,16.8
			c-0.4,4.4-0.9,8.9-1.1,13.4c-11-0.1-21.8-0.1-31.7-0.2c-5.2,0-25.3-0.1-53.3-0.1c0.3-1.4,0.4-4.2,0.4-9.6
			C233.1,130.4,233.1,128.3,233,126.3z M402.2,205c-5.2,0.1-49.7,0.2-90.7,0.3c0.1-2.2,0.2-4.4,0.4-6.6c0.2-2.7,0.5-5.5,0.5-8.3
			c0-1.8-0.1-3.5-0.4-5.1c28.4,0.3,60.6,0.4,90.2,0.5c-0.2,3.3-0.4,6.6-0.4,9.9C401.9,198.9,402,202,402.2,205z M373.9,183.8
			c-32.5-0.2-68.6-0.4-95.4-0.7c0.7-5.7,1-11.5,1.3-17.1c0.4-7.4,0.8-14.9,2.2-22.3c35.4,0,60.4,0.1,65,0.2
			c11,0.2,21.8,0.4,32.4,0.6c-1.4,8.4-2.5,17-3.6,25.4C375.1,174.6,374.6,179.2,373.9,183.8z M226.6,184.8
			c-0.9,6.8-1.8,13.8-3.5,20.7c-22.2,0-49.3,0-77.7,0c0.2-2.9,0.6-6,1-8.9c0.5-3.9,1-8,1.1-11.9
			C176.6,184.7,204.3,184.7,226.6,184.8z M292.2,210.8c0-1.3,0-2.6-0.1-4c5.3,0,10.8-0.1,16.5-0.1c0,0.1,0,0.1,0,0.2h2.8
			c0-0.1,0-0.1,0-0.2c22.9-0.1,48.2-0.2,72-0.3c0.5,5.4,1.4,11.5,1.9,16.4c0.5,4.8,1,9.6,1.5,14.8c-2.7,0-56.1-0.1-97.4-0.2
			C291.3,228.6,292.2,219.7,292.2,210.8z M389.8,237.6c-0.5-5.2-1-10.1-1.5-15c-0.5-4.9-1.4-11-1.9-16.3c36.7-0.1,69.1-0.2,81.7-0.3
			c-0.5,5.7-1,11.1-1.5,16.5c-0.5,5.2-0.9,10.3-1.4,15.8C440.3,238.3,415.1,238.1,389.8,237.6z M338.9,60.1
			c-0.3,3.3-0.7,6.6-0.9,9.9c-13,0-26.5,0.1-39.1,0.2l-1.1-0.1c0,0,0,0.1,0,0.1c-5,0-9.9,0-14.5,0.1c0.5-4.6,1.3-9.3,2-13.9
			c0.7-4.2,1.4-8.6,1.9-12.9c16.2,0.1,34.8,0.1,52.7,0.2c0,0.7,0.1,1.4,0.1,2.1C339.9,50.4,339.4,55.3,338.9,60.1z M282.5,56
			c-0.8,4.7-1.6,9.5-2.1,14.2c-6,0-11.6,0.1-16.6,0.1c-1.2,0-5.2,0-11.5,0c0-6.1,0.4-12.4,0.9-18.4c0.2-2.9,0.4-5.8,0.5-8.7
			c3.9,0,6.4,0,7.2,0c6.7,0,14.7,0.1,23.4,0.1C283.9,47.6,283.2,51.8,282.5,56z M136.8,48.2c-0.8,7.3-1.6,14.9-1.6,22.2
			c-33.3,0-68.3,0-98.8,0.1c-0.7-5.4-0.8-10.7-0.9-16c0-3.7-0.1-7.5-0.4-11.4c31.5,0,68,0,102.3,0C137.2,44.9,137,46.5,136.8,48.2z
			 M101.2,119c0.1-3,0.3-5.8,0.4-7.2c20.2,0,40.8,0,60.5,0c-0.1,1.8-0.2,3.6-0.2,5.7c0,2.6,0.1,5.1,0.2,7.7c0.1,2.5,0.2,5.1,0.2,7.6
			c0,3.4-0.2,6.3-0.5,8.9l0.8,0.1c-20.4,0-41.7,0-62.7-0.1C100.2,138.3,100.8,127.1,101.2,119z M116.7,162.9
			c0.3-6.5,0.7-12.9,0.9-19.3c23.5,0,47.7,0,71,0c0.4,6.7,0.5,12.3,0.5,18.4c0,3.4,0,6.9-0.1,10.4c0,3.5-0.1,6.9-0.1,10.4
			c-22.8,0-48-0.1-73.3-0.1C116,176.2,116.4,169.6,116.7,162.9z M204.9,221.9c0.2-4.9,0.5-10,1.9-14.9c36.7,0,63.6-0.1,67.8-0.1
			c4.6,0,9.5-0.1,14.7-0.1c0,1.3,0.1,2.6,0.1,3.9c0,8.9-1,17.8-2.9,26.6c-8.9,0-17.2,0-24.2,0c-3.1,0-26.6,0-59.5,0
			C204.4,232.2,204.7,227,204.9,221.9z M275.6,251.5c0.3-4,0.7-8,0.9-12.1c22.2,0.1,51.2,0.2,77.9,0.3c-0.5,7.9-1.4,16.1-4.3,24.1
			c-22.9,0-52.7,0-75.4,0C274.9,259.6,275.2,255.5,275.6,251.5z M331.4,265.5c0.1,0.7,0.1,1.5,0.1,2.2c0,2.9-0.4,6-0.8,8.9
			c-0.4,3-0.8,6.1-0.8,9.1c0,0.3,0,0.6,0,0.8c-21.4,0-44.2-0.1-61.3-0.1c-2.3,0-11.1,0-24.5,0c0.1-0.6,1-11.2,2.5-20.9
			c10.4,0,17.2,0,19,0C283.6,265.5,308.8,265.5,331.4,265.5z M287,320.1c0.9,4.1,1.4,8.5,1.4,13.9c0,3.6-0.2,7.2-0.4,10.7
			c-0.2,3.1-0.3,6.4-0.3,9.6c-2.4,0-4.7,0-6.9-0.1c-2.3,0-8.8,0-18.4-0.1c0-0.1,0-0.1,0-0.2l-2.8,0.2c-9.7,0-22.1,0-36.5-0.1
			c-0.9-12-1.8-22.9-3.1-34.2C245.5,320,268.7,320,287,320.1z M330,355.9c33.4,0.1,64.2,0.2,67.8,0.3c0,8.9,0.5,17.3,0.9,26.3
			c-3.9-0.2-36.1-0.3-70.5-0.5c1.1-5.7,2.2-12.2,2.2-18.9C330.5,360.5,330.3,358.2,330,355.9z M412.7,511
			c-4.8-0.2-27.8-0.3-55.5-0.5c0-0.9-0.1-1.8-0.1-2.7c0-5.3,0.6-10.9,1.1-16.3c0.4-3.7,0.8-7.6,1-11.3c26.6,0.1,48.3,0.1,52.7,0.2
			c0.4,2.8,0.6,5.9,0.6,9.6c0,2,0,4-0.1,6c0,2-0.1,4-0.1,6C412.2,505.4,412.4,508.3,412.7,511z M559.9,552.2c-7.8,0-15.7,0-23.5,0.1
			c-15.6,0.1-31.2,0.1-46.8,0.1c-11.6,0-23.5,0-35.4-0.1c-0.5-6.6-1-12.8-1.5-19c-0.5-6.1-1-12.2-1.5-18.7c32.5,0.3,60.2,0.7,75.5,1
			c11.6,0.2,23.4,0.5,35.1,0.7c-1.4,8.9-2.1,18.4-2.1,28.3C559.8,547.1,559.8,549.6,559.9,552.2z M489.6,554.1c5.6,0,11.3,0,16.9,0
			c-0.1,1.8-0.2,3.8-0.2,6c0,2.2,0.1,4.5,0.1,6.7c0,1.9,0.1,3.7,0.1,5.6c-2.9,0-5.8,0-8.7,0c-32,0-62.6,0.2-92.6,0.7
			c-0.2-3.1-0.3-6.1-0.3-9.2c0-3.3,0.1-6.6,0.4-9.9C442.9,554.1,475.7,554.1,489.6,554.1z M306.9,551.4c0.6-4.1,1.4-8.3,2.1-12.3
			c1.6-8.5,3.2-17.3,3.3-26.1c22.5,0.3,47.4,0.6,72.4,0.9c0,0.6,0,1.2,0,1.8c0,9.5-1.4,18.8-2.9,28.6c-0.4,2.4-0.7,4.8-1.1,7.3
			l2.8,0.3c0.3-2.4,0.7-4.8,1.1-7.3c1.4-9.4,2.9-19.2,2.9-28.9c0-0.6,0-1.2,0-1.8c20.8,0.2,41.5,0.4,60.6,0.7
			c0.5,6.5,1,12.7,1.5,18.8c0.5,6.2,1,12.4,1.5,18.9C434.9,552.1,362.9,551.8,306.9,551.4z M402.2,573.1c-3.7,0.1-27,0.1-54.8,0.2
			c0.2-2.2,0.6-4.5,1-6.9c0.6-3.1,1.2-6.4,1.2-9.6c0-1.1-0.2-2.1-0.3-3.1c17.7,0.1,35.8,0.2,52.9,0.3c-0.2,3.3-0.4,6.6-0.4,9.9
			C401.9,566.9,402,570,402.2,573.1z M271.7,510.1c-18.4,0-45.2-0.1-75.6-0.1c-0.4-2.9-0.5-6-0.5-9.6c0-3.5,0.2-7.1,0.3-10.6
			c0.1-3.3,0.3-6.6,0.3-9.9c32.5,0,60.7,0,78.9,0.1c-0.4,3.5-0.9,7-1.5,10.4c-0.9,5.3-1.9,10.8-1.9,16.3
			C271.6,507.7,271.6,508.9,271.7,510.1z M231.6,551.1c-16.6,0-35.1-0.1-54.7-0.1c0.4-4.7,1.2-9.4,2-13.9c1.1-6,2.3-12.3,2.3-18.5
			c0-2.3-0.2-4.4-0.5-6.4c18.5,0.1,36,0.1,51.5,0.2c-0.1,0.9-0.1,2-0.1,3.5c0,4.6-0.2,9.3-0.4,13.8c-0.2,4.5-0.4,9.2-0.4,13.9
			C231.3,546.3,231.4,548.7,231.6,551.1z M256.8,411.4c16.8,0,28.5,0,32.5,0c16.6,0.1,35.4,0.1,53.3,0.2c0,0.8-0.1,1.7-0.1,2.5
			c0,2.3,0.1,4.6,0.1,7c0.1,2.3,0.1,4.7,0.1,7c0,3.3-0.1,6.9-0.4,9.9c-16.9,0.1-34.8,0.1-50.8,0.2c-4.6,0-18.6,0-38.3,0.1
			c0-0.9-0.1-2-0.1-2.5c0-3.6,1-7.3,1.9-10.8c1-3.6,1.9-7.4,1.9-11.2C257,412.9,256.9,412.1,256.8,411.4z M314.8,439.8
			c0,12.6,0,25.6-1.8,38.7c-6.6,0-13-0.1-19.1-0.1c-5.4,0-24.8-0.1-51.8-0.1c0.1-2.1,0.1-4.2,0.2-6.3c0.3-10.8,0.7-21.9,2.4-32
			c24.2,0,41.4-0.1,46.6-0.1C298.8,439.9,306.7,439.8,314.8,439.8z M252.3,424.4c-1,3.7-2,7.4-2,11.3c0,0.5,0,1.6,0.1,2.5
			c-21,0-48,0.1-77.2,0.1l0.1-2.3c0.2-4.3,0.5-9.1,0.5-12.9c0-4.4-0.3-8.3-0.8-11.9c31.1,0,59.6,0,80.8,0.1c0.1,0.8,0.2,1.5,0.2,2.3
			C254.2,417.3,253.3,420.7,252.3,424.4z M241.8,440c-1.7,10.2-2.1,21.2-2.4,32c-0.1,2.1-0.1,4.2-0.2,6.3c-21.7,0-48-0.1-75.9-0.1
			c-1.3-9-1.4-18.2-1.4-27.1c0-3.7-0.1-7.4-0.2-11.1C191.4,440,219.4,440,241.8,440z M276.3,490.7c0.6-3.5,1.2-7.1,1.6-10.7
			c8.1,0,13.9,0,16.6,0c19.7,0.1,42,0.1,61.8,0.2c-0.2,3.7-0.6,7.5-0.9,11.1c-0.6,5.4-1.1,11-1.1,16.5c0,0.9,0,1.8,0.1,2.7
			c-18.9-0.1-39.8-0.2-58.4-0.4c-3.3,0-10.8,0-21.3-0.1c-0.1-1.2-0.2-2.3-0.2-3.5C274.4,501.3,275.3,495.9,276.3,490.7z
			 M394.8,461.8c-0.6,4.7-1.2,9.6-1.2,14.4c0,0.8,0,1.6,0.1,2.5c-23.6,0-51.9-0.1-77.9-0.2c1.8-13.1,1.8-26.1,1.8-38.7
			c29.6-0.1,60.5-0.2,77.6-0.2c0.5,2.5,0.7,5.1,0.7,8C396,452.3,395.4,457.1,394.8,461.8z M345.3,437.9c0.4-3,0.4-6.6,0.4-9.9
			c0-2.3-0.1-4.7-0.1-7c-0.1-2.3-0.1-4.6-0.1-6.9c0-0.8,0-1.7,0.1-2.5c32.4,0.1,61,0.3,66.3,0.4c0.6,5.2,0.6,10.5,0.7,15.5
			c0,3.4,0.1,6.8,0.3,10.3c-1.5,0-3.1,0-4.6,0C403.4,437.8,376.3,437.8,345.3,437.9z M376.4,394.8c-0.5,4.3-1.1,10.1-1.1,15.6
			c-3.7,0-7.5-0.1-11.3-0.1c0.3-2.7,0.9-5.5,1.5-8.2c0.9-4,1.8-8.1,1.8-12.3c0-1.8-0.2-3.4-0.6-5c3.4,0,6.7,0.1,10,0.1
			c0,0.5,0,1,0,1.5c0,1,0.1,2,0.1,3.1C376.8,390.5,376.6,392.4,376.4,394.8z M363.8,384.9c0.4,1.6,0.6,3.2,0.6,5
			c0,3.9-0.9,7.9-1.7,11.8c-0.6,2.8-1.2,5.7-1.5,8.6c-5.2,0-10.4-0.1-15.7-0.1c0-0.1,0-0.2,0-0.2l-2.8-0.1c0,0.1,0,0.2,0,0.3
			c-18.4-0.1-36.8-0.2-52.9-0.3c-0.8,0-1.9,0-3.2,0c0.2-4,0.4-9.6,0.4-13.9c0-6.5-0.3-10-0.7-12
			C309.2,384.3,337.4,384.6,363.8,384.9z M325.4,381.9c-13.8-0.1-27.9-0.2-40.4-0.2c-0.1,0-0.2,0-0.4,0c-0.1,0-0.2,0-0.4,0
			c-2.3,0-4.6,0-6.8,0c-2,0-7,0-14.5,0c-0.1-2.5-0.2-5-0.2-7.5l0-7.1c0-3.6-0.1-7.4-0.4-11.4c9.6,0,16.2,0,18.7,0
			c14,0.1,30.2,0.1,46,0.2c0.3,2.3,0.5,4.6,0.5,7.1C327.7,369.7,326.6,376.3,325.4,381.9z M193.3,479.9c0,3.2-0.1,6.5-0.3,9.8
			c-0.2,3.5-0.3,7.1-0.3,10.7c0,3.6,0.2,6.7,0.5,9.6c-22.5,0-46.8-0.1-71.1-0.1c-1.3-9.6-2.7-20.4-2.9-30
			C144.5,479.8,169.9,479.8,193.3,479.9z M136,552.8c-0.1,1.5-0.2,3-0.2,4.7c0,2.1,0.1,4.3,0.2,6.4c0.1,2.1,0.2,4.2,0.2,6.3
			c0,1.1,0,2.1-0.1,3.2l2.8,0.1l0,0l0,0l0,0c-26.1,0-52.7,0-77.4,0c0.5-3.6,1.3-7.2,2-10.6c0.7-3.3,1.5-6.8,2-10.2
			C88.1,552.7,112.2,552.8,136,552.8z M234.4,551.1c-0.1-2.4-0.2-4.8-0.2-7.6c0-4.6,0.2-9.3,0.4-13.8c0.2-4.5,0.4-9.2,0.4-13.9
			c0-1.9,0-2.9,0.1-3.5c32.3,0.1,55.9,0.2,61.7,0.3c4.1,0.1,8.4,0.1,12.7,0.2c-0.1,8.7-1.7,17.4-3.3,25.8c-0.8,4.2-1.6,8.4-2.2,12.7
			c-2,0-3.9,0-5.8,0C291.6,551.2,267.3,551.2,234.4,551.1z M268.6,572c0.4-6.2,0.8-12.6,0.8-18.9c14.5,0,24.7,0.1,28.4,0.1
			c15,0.2,31.7,0.3,48.8,0.4c0.2,1,0.3,2,0.3,3.1c0,3-0.6,6.2-1.2,9.2c-0.4,2.4-0.9,4.9-1.1,7.3c-8.9,0-18.2,0-27.5,0.1
			c0,0,0,0,0-0.1l-2.8-0.5c-0.1,0.2-0.1,0.4-0.1,0.6c-6.9,0-13.7,0-20.2,0.1c-3.7,0-12.7,0-25.5,0L268.6,572z M583.2,594
			c-0.3,4.4-0.6,8.9-0.7,13.3c-32-0.6-63.9-0.7-95.2-0.8c-6.3,0-12.6,0-19-0.1c0.5-5.5,0.9-10.6,1.4-15.8c0.5-5.4,1-10.8,1.5-16.6
			c8.8,0,17.7-0.1,26.7-0.1c27.8,0,56.3,0.2,86,0.6c0.1,1.3,0.1,2.5,0.1,3.8C584,583.6,583.6,588.9,583.2,594z M583.1,553.9
			c7.4,0,14.5,0,21.2,0c0,6.3,0,12.9-0.5,19.2c-32.8-0.5-64-0.8-94.4-0.8c0-1.9,0-3.7-0.1-5.6c-0.1-2.2-0.1-4.4-0.1-6.7
			c0-2.2,0.1-4.2,0.2-6c9,0,17.9,0,26.9-0.1C552,553.9,567.5,553.9,583.1,553.9z M503,480.2c19.4-0.1,39.6-0.3,59.3-0.3
			c16.3,0,31.1,0.1,45,0.3c0,8.2-0.4,16.4-0.9,24.3c-0.2,3.6-0.4,7.3-0.5,11c-26.6-0.7-53.1-1.2-79.1-1.8
			c-5.6-0.1-11.2-0.2-16.8-0.3c-0.1-3.1-0.2-6.5-0.2-10.3c0-3.8,0.1-7.7,0.1-11.5c0.1-3.8,0.1-7.6,0.1-11.4h-3
			c0,3.8-0.1,7.5-0.1,11.3c-0.1,3.8-0.1,7.7-0.1,11.5c0,3.8,0.1,7.2,0.2,10.2c-30.2-0.6-60.8-1.3-91.3-2.3c-0.3-2.7-0.5-5.6-0.5-9.1
			c0-2,0-4,0.1-6c0-2,0.1-4,0.1-6c0-3.7-0.2-6.8-0.5-9.6c10.2,0.1,19.8,0.1,28.8,0.1C463.4,480.5,483.5,480.3,503,480.2z
			 M476.4,477.2l0.2,1.5c-11,0.1-22,0.1-32.9,0.1c-6,0-24.1,0-47.1,0c0-0.8-0.1-1.6-0.1-2.5c0-4.7,0.6-9.5,1.2-14.2
			c0.6-4.7,1.2-9.7,1.2-14.5c0-2.9-0.3-5.5-0.7-8c5.1,0,8.6,0,10,0c21.7,0,43.8,1.1,66.5,2.7l-2.1,0.1
			C473.6,454,474.9,465.3,476.4,477.2z M415.8,437.9c-0.2-3.5-0.2-6.9-0.3-10.3c-0.1-5-0.1-10.2-0.7-15.4
			c33.2,0.9,66.3,2.2,99.2,3.5c0.2,4,0.6,8,0.9,11.9c0.5,5.3,0.9,10.8,1,16.2C481.2,440.9,448,438.2,415.8,437.9z M546,417
			c20.6,0.9,41,1.9,61.3,2.8c5.1,0.2,10.1,0.5,15.2,0.7h-2.2c0,6.8,0.5,13.9,0.9,20.7c0.2,3.1,0.4,6.1,0.5,9.1
			c-34.2-0.7-68.9-3.6-102.7-6.4c0,0-0.1,0-0.1,0c-0.1-5.6-0.6-11.2-1-16.6c-0.3-3.8-0.7-7.7-0.9-11.6c8.7,0.4,17.3,0.7,25.9,1.1
			c0,0.1,0,0.1,0,0.2L546,417C546,417,546,417,546,417z M479.2,386.9c0,0.1,0,0.2,0,0.3l3,0.1c0-0.1,0-0.2,0-0.3
			c21.2,0.5,42.3,1,63.3,1.4c-0.2,4.1-0.7,8.2-1.2,12.2c-0.6,4.8-1.1,9.7-1.3,14.6c-32.8-1.5-65.9-2.8-99.1-3.9
			c1.3-8.3,2.7-16.8,3.6-25.3C458.1,386.3,468.6,386.6,479.2,386.9z M444.6,385.9c-0.9,8.4-2.3,17-3.6,25.3c-8-0.3-33-0.5-62.8-0.7
			c0-5.4,0.6-11.2,1.1-15.4c0.3-2.5,0.5-4.4,0.5-5.5c0-1,0-2.1-0.1-3.1c0-0.5,0-0.9,0-1.4C410.2,385.3,436,385.6,444.6,385.9z
			 M432.7,355.3c-13.5-0.2-89.6-0.6-142.1-0.9c0-3.2,0.2-6.4,0.3-9.5c0.2-3.5,0.4-7.2,0.4-10.8c0-5.3-0.4-9.8-1.3-13.9
			c17.6,0.1,30.4,0.1,36.2,0.2c13.4,0.1,27.5,0.3,41.6,0.4c0,1.1-0.1,2.2-0.1,3.3c0,4.2,0.2,8.3,0.3,12.5c0.2,4.1,0.3,8.3,0.3,12.4
			c0,1.8,0,3.6-0.1,5.4l2.8,0.1c0.1-1.8,0.1-3.7,0.1-5.5c0-4.2-0.2-8.3-0.3-12.5c-0.2-4.1-0.3-8.3-0.3-12.4c0-1.1,0-2.2,0.1-3.3
			c21.4,0.2,42.8,0.4,62.2,0.6c-0.4,4.6-0.6,9.4-0.6,14.9C432.2,342.7,432.4,349.1,432.7,355.3z M402.8,318.1
			c-0.2-4.7-0.3-9.4-0.3-14c0-5.1,0.1-10.2,0.4-15.5c20.4,0.4,40.7,0.7,60.9,1v30C443.5,319.2,423.1,318.7,402.8,318.1z
			 M511.1,322.5c0,11-0.5,22.2-1.4,33.3c-4.5,0-9.1,0.1-13.6,0.1c-20,0-40.2-0.2-60.4-0.6c-0.3-6.2-0.5-12.6-0.5-19
			c0-5.5,0.2-10.3,0.6-14.9c28.9,0.3,52.9,0.6,65.3,0.9c4.2,0.1,8.5,0.2,12.8,0.3H511.1z M495.6,290.3c0-0.1,0-0.1,0-0.2
			c17.2,0.2,34.5,0.5,51.9,0.8c-0.5,5.2-0.9,10.5-1.2,15.8c-0.3,5-0.7,9.9-1.2,14.8c-14.7-0.3-29.4-0.7-43.9-1
			c-11.4-0.3-22.9-0.5-34.5-0.8v-30c4.7,0.1,9.4,0.1,14.1,0.2c2,0,3.9,0.1,5.9,0.1c0,0,0,0,0,0l3,0.1c0,0,0,0,0-0.1c1,0,2,0,3,0
			c0,0.1,0,0.2,0,0.3L495.6,290.3z M611.8,241.7c-0.4,3.3-0.6,6.7-0.8,9.9c-0.3,4.9-0.7,10-1.5,14.9c-12.3,0.3-25.2,0.5-38.9,0.5
			c-16.4,0-33-0.2-49.4-0.6c0.4-5.5,1.6-11.2,2.7-16.7c0.6-3,1.2-6,1.7-8.9l-3-0.2c-0.5,2.9-1.1,5.9-1.7,8.9
			c-1.1,5.5-2.2,11.3-2.7,16.9c-13.7-0.3-27.3-0.6-40.7-1c-16.2-0.4-32.7-0.9-49.2-1.2v-24.3c19.8,0.2,39.5,0.3,59,0.3
			c31.3,0.1,63.2,0.3,95.2,0.8c0,0.2,0,0.4,0,0.6h3c0-0.2,0-0.4,0-0.5C594.2,241.2,603,241.4,611.8,241.7z M583.1,185.8
			c7.4,0,14.5,0,21.2,0c0,6.3,0,12.9-0.5,19.2c-32.8-0.5-64-0.8-94.4-0.8c0-1.9,0-3.7-0.1-5.6c-0.1-2.2-0.1-4.4-0.1-6.7
			c0-2.2,0.1-4.2,0.2-6c9,0,17.9,0,26.9-0.1C552,185.9,567.5,185.8,583.1,185.8z M503,112.2c19.4-0.1,39.6-0.3,59.3-0.3
			c16.3,0,31.1,0.1,45,0.3c0,8.2-0.4,16.4-0.9,24.3c-0.2,3.6-0.4,7.3-0.5,11c-26.6-0.7-53.1-1.2-79.1-1.8
			c-5.6-0.1-11.2-0.2-16.8-0.3c-0.1-3.1-0.2-6.5-0.2-10.3c0-3.8,0.1-7.7,0.1-11.5c0.1-3.8,0.1-7.6,0.1-11.4h-3
			c0,3.8-0.1,7.5-0.1,11.3c-0.1,3.8-0.1,7.7-0.1,11.5c0,3.8,0.1,7.2,0.2,10.2c-30.2-0.6-60.8-1.3-91.3-2.3c-0.3-2.7-0.5-5.6-0.5-9.1
			c0-2,0-4,0.1-6c0-2,0.1-4,0.1-6c0-3.7-0.2-6.8-0.5-9.6c10.2,0.1,19.8,0.1,28.8,0.1C463.4,112.5,483.5,112.3,503,112.2z
			 M476.4,109.1l0.2,1.5c-11,0.1-22,0.1-32.9,0.1c-7,0-29.8,0-57.8-0.1c0.5-6.6,1.4-13.2,2.3-19.6c0.9-6.3,1.7-12.9,2.2-19.5
			c9.3,0,15.8,0,17.9,0c21.7,0,43.8,1.1,66.5,2.7l-2.1,0.1C473.6,86,474.9,97.3,476.4,109.1z M543,48.9c0,0.1,0,0.1,0,0.2h3
			c0,0,0,0,0,0c20.6,0.9,41,1.9,61.3,2.8c5.1,0.2,10.1,0.5,15.2,0.7h-2.2c0,6.8,0.5,13.9,0.9,20.7c0.2,3.1,0.4,6.1,0.5,9.1
			c-34.2-0.7-68.9-3.6-102.7-6.4c0,0-0.1,0-0.1,0c-0.1-5.6-0.6-11.2-1-16.6c-0.3-3.8-0.7-7.7-0.9-11.6
			C525.7,48.1,534.4,48.5,543,48.9z M514.1,47.6c0.2,4,0.6,8,0.9,11.9c0.5,5.3,0.9,10.8,1,16.2c-34.9-2.9-68-5.5-100.3-5.9
			c-0.2-3.5-0.2-6.9-0.3-10.3c-0.1-5-0.1-10.2-0.7-15.4C448,45,481.1,46.2,514.1,47.6z M362.8,15.5c37.7,0.5,71.8,0.9,81.9,1.3
			c-0.9,8.8-2.4,17.7-3.8,26.3c-9.4-0.3-42-0.6-78.4-0.8c0.1-1.5,0.1-3.5,0.1-4.9c0-2.3-0.1-4.6-0.1-7c-0.1-2.3-0.1-4.6-0.1-6.9
			C362.4,20.5,362.5,17.9,362.8,15.5z M272.6,14.2c23.7,0.4,56.5,0.8,87.3,1.2c-0.3,2.5-0.4,5.1-0.4,8.1c0,2.3,0.1,4.6,0.1,6.9
			c0.1,2.3,0.1,4.6,0.1,6.9c0,1.4,0,3.4-0.1,4.9c-25.4-0.2-52.4-0.3-74.4-0.5l-0.8-0.1c0,0,0,0,0,0c-4.7,0-9.1-0.1-13.2-0.1
			C271.3,32.6,271.8,23.3,272.6,14.2z M180.1,13.8c44.6,0.1,78.6,0.1,81.7,0.2c2.5,0.1,5.2,0.1,7.9,0.2c-0.9,9.1-1.3,18.4-1.3,27.5
			c-2.6,0-5.2,0-7.6-0.1c-3,0-38.3,0-84.1-0.1c0.3-3.2,0.9-6.5,1.5-9.7c0.9-5,1.9-10.2,1.9-15.5C180.3,15.5,180.2,14.7,180.1,13.8z
			 M82.3,13.7c32.2,0,65.7,0.1,95,0.1c0.1,0.9,0.1,1.7,0.1,2.6c0,5.1-0.9,10.2-1.9,15.1c-0.6,3.3-1.2,6.7-1.6,10
			c-10.8,0-22.2,0-33.9,0l-2.6-0.2c0,0.1,0,0.1,0,0.2c-18.2,0-36.9,0-55.3,0V13.7z M33.1,41.5c-17.9,0-34.1,0-47.4,0l1.5,0
			c-0.1-2.9-0.2-5.8-0.2-8.8c0-6.5,0.3-13,0.6-19.1c24,0,57,0.1,91.8,0.1v27.8c-15.4,0-30.4,0-44.4,0c0,0,0-0.1,0-0.1L33.1,41.5z
			 M-13.7,73.9c0-0.5,0-1.1,0-1.6c16.5,0,37.5,0,60.5,0c0,4.4-0.2,8.8-0.4,13.1c-0.2,4.9-0.4,9.9-0.4,14.9c0,3.6,0.1,6.8,0.3,9.9
			c-9.9,0-19.4,0-28.3,0c0,0,0-0.1,0-0.1l-1.4,0.1c-9.9,0-19,0-27.2,0l1.1-0.1c-0.4-3-0.9-6.1-1.4-9.1
			C-12.3,91.6-13.7,82.9-13.7,73.9z M-20.8,141.6c0-0.8,0.1-1.7,0.1-2.5c0-5.3-0.6-10.7-1.3-16c-0.4-3.8-0.9-7.7-1.1-11.5
			c10.5,0,23.6,0,38.4,0c0.6,5.6,1.6,11.2,2.6,16.6c0.8,4.4,1.7,8.9,2.3,13.4C4.5,141.7-9.5,141.6-20.8,141.6z M-5.1,182.6
			c1.4-13.3,1.9-26.4,2.3-39.1c14.7,0,32.2,0,51.3,0.1c-0.6,3-0.8,5.7-0.8,8.9c0,5.5,0.6,11.1,1.3,16.5c0.5,4.4,1,9.1,1.2,13.5
			l2.8-0.1c-0.2-4.5-0.7-9.2-1.2-13.7c-0.6-5.4-1.3-10.9-1.3-16.3c0-3.3,0.3-5.9,0.8-8.9c19.8,0,41.4,0,63.5,0.1
			c-0.2,6.4-0.6,12.8-0.9,19.2c-0.4,6.7-0.7,13.4-0.9,20c-35.7,0-71.4-0.1-100.2-0.1c0,0,0-0.1,0-0.1l-1.8,0.1
			C5.3,182.6-0.1,182.6-5.1,182.6z M-5.7,237.3c-0.5-5.4-1.7-10.6-2.8-15.7c-1.1-4.7-2.1-9.5-2.6-14.4c16.8,0,37.8,0,60.8-0.1v30
			h2.8v-30c22,0,45.6,0,69-0.1v30.2C75.5,237.3,27.7,237.3-5.7,237.3z M36.2,239.1c24.1,0,51,0,77.6,0c-0.3,2.5-0.6,5-0.9,7.5
			c-0.7,5.5-1.5,11.2-1.8,16.9l2.8,0.1c0.3-5.6,1.1-11.2,1.8-16.7c0.3-2.6,0.7-5.2,1-7.7c25.6,0,50.8,0,72.9,0l0,0.2
			c0.5,8,0.9,16.4,1.8,24.3l2.8-0.2c-0.9-7.9-1.4-16.2-1.8-24.2l0,0c38.9,0,67.7,0,70.9,0.1c3.2,0,6.6,0,10.2,0.1
			c-0.2,4.1-0.6,8-0.9,12c-0.3,4.1-0.7,8.2-0.9,12.4c-1.9,0-3.9,0-5.7,0c-9,0-135.8,0-226.1,0c-0.8-4.3-1.4-8.5-2-12.7
			C37.5,247.2,37,243.2,36.2,239.1z M80,278.8c-0.2,1.4-0.3,2.4-0.3,2.7c0,0.9,0.1,1.9,0.1,2.8c0,0.7,0.1,1.4,0.1,2.1
			c-25.7,0-50.4,0-71.2,0l2.2-0.2c-0.3-2.6-0.4-5-0.4-7.3l0-3.7c0-2.9-0.1-6.2-0.7-9.6c21,0,45.7,0,71.5,0
			C81.2,270.4,80.4,275.8,80,278.8z M165.9,286.4c-14.4,0-29.5,0-44.7,0l-2.6-0.2c0,0.1,0,0.1,0,0.2c-12,0-24.1,0-35.9,0
			c0-0.7,0-1.4-0.1-2.2c0-0.9-0.1-1.8-0.1-2.7c0-0.3,0.1-1.2,0.3-2.4c0.4-3.1,1.2-8.5,1.3-13.6c27.1,0,55.1,0,80.9,0
			c0.1,1.7,0.2,3.3,0.4,5c0.3,4.1,0.7,8.3,0.7,12.4C166,284.1,166,285.2,165.9,286.4z M168.8,286.4c0.1-1.1,0.1-2.3,0.1-3.4
			c0-4.2-0.3-8.5-0.7-12.6c-0.1-1.6-0.3-3.3-0.4-4.9c30.8,0,58,0,76,0c-1.5,9.9-2.5,20.7-2.5,20.8l1.4,0.1
			C224.4,286.4,198.2,286.4,168.8,286.4z M141.7,319.7c25.8,0.1,51.6,0.1,75.4,0.2c1.3,11.3,2.2,22.3,3.1,34.2
			c-22.9,0-50.4-0.1-78.8-0.1c0.1-1,0.1-2.6,0.1-5.1c0-2.9-0.1-5.9-0.1-8.8c-0.1-2.9-0.1-5.8-0.1-8.8
			C141.2,326.9,141.3,323.1,141.7,319.7z M139.9,355.7c0.3,0,0.5,0,0.7-0.1c17.6,0,34.8,0,50.9,0c0,0.9,0.1,1.8,0.1,2.7
			c0,4.8-0.4,9.7-0.8,14.4c-0.3,2.9-0.5,5.8-0.7,8.8c-51.7,0-116.3-0.1-165.5-0.1c-0.1-1-0.1-2.1-0.1-3.1c0-1.9,0.1-3.8,0.1-5.8
			c0.1-1.9,0.1-3.9,0.1-5.8c0-3.1-0.2-7-1.2-11.1c24.5,0,53,0,82,0c1.5,6,1.7,12.2,1.7,18.3c0,2.5,0.1,5,0.2,7.5l2.8-0.1
			c-0.1-2.5-0.2-4.9-0.2-7.4c-0.1-6-0.2-12.2-1.7-18.2C118.9,355.6,129.5,355.6,139.9,355.7L139.9,355.7z M66.6,319.5
			c23,0.1,47.6,0.1,72.3,0.2c-0.4,3.4-0.5,7.2-0.5,11.6c0,2.9,0.1,5.9,0.1,8.8c0.1,2.9,0.1,5.8,0.1,8.8c0,1.5,0,3.3,0,4.4h-0.1
			l0,0.7c-23.4,0-47.3,0-70-0.1c-0.2-4.4-0.6-8.8-1-13.1c-0.5-5.6-1.1-11.3-1.1-17C66.4,322.4,66.5,321,66.6,319.5z M-6.3,353.9
			l1.4,0c-0.4-9.2-0.3-18.8-0.3-28.1l0-6.4c19.1,0.1,42.9,0.1,68.9,0.2c-0.1,1.4-0.2,2.9-0.2,4.3c0,5.8,0.6,11.6,1.1,17.2
			c0.4,4.2,0.8,8.6,1,12.9c-15,0-29.3,0-42.5-0.1c0,0,0-0.1,0-0.1l-0.5,0.1C12.1,353.9,2.4,353.9-6.3,353.9z M14.2,409.3l-1.4,0.2
			c-13,0-24.7,0-34.2,0l1.1-0.3c-1.5-4.8-1.9-9.7-2.3-14.5c-0.3-3.8-0.8-7.7-1.6-11.6c17.4,0.1,42.1,0.1,70.2,0.2
			c0,3.5-0.3,7-0.5,10.4c-0.3,3.9-0.5,7.9-0.5,11.9c0,1.3,0,2.6,0.1,4c-10.8,0-21.1,0-30.7,0C14.2,409.5,14.2,409.4,14.2,409.3z
			 M17.2,438.5l2-0.5c-2.1-5.9-2.8-12.1-3.5-18c-0.3-2.9-0.7-5.8-1.2-8.8c24.2,0,53.1,0,83,0c0.3,1.8,0.5,3.7,0.5,5.8
			c0,3.6-0.5,7.3-1,10.8c-0.5,3.5-1,7-1,10.6C67.7,438.4,40.4,438.4,17.2,438.5z M52.5,479.8c20.2,0,42,0,63.9,0
			c0.2,9.7,1.6,20.4,2.9,30c-22.7,0-45.3-0.1-66.3-0.1c0-3.8-0.1-7.7-0.3-11.5c-0.2-4.3-0.3-8.6-0.3-12.9
			C52.4,483.5,52.4,481.6,52.5,479.8z M42.6,511.8c20,0.1,41.7,0.1,63.9,0.2c1.5,15.5,6.1,37.9,6.2,38.1c0,0.2,0,0.5-0.1,0.8
			c-25.5,0-50.6-0.1-73.2-0.1c0.3-4.7,0.9-9.4,1.4-14c0.9-7.6,1.8-15.4,1.8-23.1C42.6,513,42.6,512.4,42.6,511.8z M-14.6,550.6
			l1.1-0.3c-4-9.4-5.3-19.4-6.6-29c-0.4-3.2-0.9-6.5-1.4-9.7c15.8,0.1,37.1,0.2,61.2,0.2c0,0.6,0,1.2,0,1.9c0,7.6-0.9,15.4-1.8,22.9
			c-0.5,4.7-1.1,9.5-1.4,14.2C17.1,550.7-0.5,550.7-14.6,550.6z M19.9,573.6c-7.7,0-15,0-21.8,0c-0.6-5.1-0.9-9.6-0.9-13.7
			c0-2.6,0.2-5.1,0.4-7.4c18.4,0.1,40.8,0.1,65.1,0.2c-0.5,3.3-1.2,6.6-1.9,9.8c-0.8,3.6-1.6,7.3-2.1,11.1c-12.6,0-24.7,0-36,0
			c0,0,0-0.1,0-0.1h-2.8C19.9,573.5,19.9,573.5,19.9,573.6z M22.5,605.4c-0.6-3-0.9-6.2-0.9-9.9c0-3.6,0.3-7.3,0.5-10.9
			c0.2-3.1,0.4-6.2,0.5-9.4c20.8,0,44.5-0.1,69-0.1c-0.1,1.8-0.1,3.7-0.1,5.5c0,3,0.1,6.1,0.2,9.2c0.1,3,0.2,6.1,0.2,9.1
			c0,2,0,4-0.1,6l2.8,0.1c0.1-2,0.1-4,0.1-6c0-3-0.1-6.1-0.2-9.2c-0.1-3-0.2-6.1-0.2-9.1c0-1.8,0-3.7,0.1-5.5
			c25.4,0,51.6-0.1,76.5-0.1c-1.1,7.5-2.1,16.3-2.1,24.9c0,1.6,0,3.2,0.1,4.8l2.8-0.1c-0.1-1.6-0.1-3.1-0.1-4.7
			c0-8.6,1.1-17.4,2.1-24.9c22.4,0,43.6,0,61.9-0.1c-0.1,4.7-0.3,9.4-0.7,14c-0.3,5.1-0.7,10.4-0.7,15.6h2.8
			c0-5.1,0.4-10.4,0.7-15.5c0.3-4.6,0.6-9.4,0.7-14.1c30.2,0,52.2-0.1,58.2-0.1c5.5,0,11.2-0.1,17.1-0.1c-1.7,7.5-2.3,15.2-2.8,22.7
			c-0.2,2.7-0.4,5.4-0.6,8.1c-6.7,0-13.4,0-19.9,0C272.7,605.4,117.2,605.4,22.5,605.4z"/>
	</g>
	<g class="st2">
		<g class="st3">
			<path class="st0" d="M633.6,516.4c-8.9-0.3-17.9-0.5-26.8-0.8c0.2-3.7,0.3-7.4,0.5-11c0.4-7.9,0.9-16.2,0.9-24.3
				c8.8,0.2,17.2,0.4,25.4,0.6V516.4z"/>
			<path class="st0" d="M504.8,186c-0.1,1.8-0.2,3.8-0.2,6c0,2.2,0.1,4.5,0.1,6.7c0,1.9,0.1,3.7,0.1,5.6c-2.9,0-5.8,0-8.6,0
				c-31.9,0-62.4,0.2-92.3,0.7c-0.2-3.1-0.3-6.1-0.3-9.2c0-3.5,0.1-7,0.4-10.4l-3-0.1c-0.2,3.5-0.4,7-0.4,10.5
				c0,3.1,0.1,6.2,0.3,9.3c-9.5,0.2-441.1,0.4-450.5,0.6v-21.4c18.5,0.7,129.5,0.3,245.9,0.6c132.4,0.3,271.9,1.3,291.5,1.3
				C493.6,186.1,499.2,186,504.8,186z"/>
			<path class="st0" d="M411.1,427.6c0,3.4,0.1,6.8,0.3,10.3c-1.5,0-3.1,0-4.6,0c-11.5,0-445,0.3-456.4,0.8v-27.5
				c12.6,0.2,447.4,0.5,460,0.9C411,417.3,411.1,422.5,411.1,427.6z"/>
			<path class="st0" d="M466.7,238.4c0.5-5.5,0.9-10.6,1.4-15.8c0.5-5.4,1-10.8,1.5-16.6c8.8,0,17.6-0.1,26.6-0.1
				c27.7,0,56.1,0.2,85.7,0.6c0.1,1.3,0.1,2.5,0.1,3.8c0,5.2-0.4,10.5-0.8,15.6c-0.3,4.4-0.6,8.9-0.7,13.3
				c-31.9-0.6-63.7-0.7-94.8-0.8C479.3,238.4,473,238.4,466.7,238.4z"/>
			<path class="st0" d="M398.1,304.1c0,4.6,0.1,9.2,0.3,13.9c-8.6-0.2-439.4-0.5-448-0.7V288c8.6,0.2,439.4,0.4,448,0.6
				C398.3,293.9,398.1,299,398.1,304.1z"/>
			<path class="st0" d="M583.3,354.7c1.2-4.7,2-9.5,2.8-14.1c0.9-5.3,1.7-10.7,3.2-15.9l-2.9-0.3c-1.5,5.3-2.4,10.7-3.2,16
				c-0.8,4.7-1.6,9.6-2.8,14.4c-23.2,0.6-46.3,0.9-69.4,1c0.9-11.1,1.4-22.2,1.4-33.3c40,0.9,80.8,1.9,121.3,3.1v27.4
				C616.8,353.7,600.1,354.3,583.3,354.7z"/>
			<path class="st0" d="M545.6,290.9c-0.5,5.2-0.9,10.5-1.2,15.8c-0.3,5-0.7,9.9-1.2,14.8c-14.7-0.3-29.3-0.7-43.7-1
				c-11.4-0.3-22.8-0.5-34.3-0.8v-30c4.7,0.1,9.4,0.1,14,0.2c2,0,3.9,0.1,5.9,0.1c0,0,0,0,0,0l3,0.1c0,0,0,0,0-0.1c1,0,2,0,3,0
				c0,0.1,0,0.2,0,0.3l3-0.1c0-0.1,0-0.1,0-0.2C511,290.3,528.2,290.6,545.6,290.9z"/>
			<path class="st0" d="M633.6,291.3c-12.7-0.4-25.5-0.8-38.3-1.1c0-1.1-0.1-2.2-0.1-3.3c0-3,0.2-6.2,0.3-9.2c0.2-3,0.3-6.1,0.3-9.1
				h-3c0,3-0.2,6.1-0.3,9.1c-0.2,3-0.3,6.2-0.3,9.3c0,1.1,0.1,2.1,0.1,3.2c-33-0.8-65.9-1.3-98.4-1.8c0-0.2,0-0.3,0-0.5
				c0-4.6,0.8-9.4,1.6-14c0.4-2.1,0.7-4.2,1-6.2c23.9,0.6,48.2,1.1,72.3,1.1c23.5,0,45-0.5,64.9-1.5V291.3z"/>
			<path class="st0" d="M581.1,553.9c7.4,0,14.4,0,21.2,0c0,6.3,0,12.9-0.4,19.2c-32.6-0.5-63.8-0.8-94-0.8c0-1.9,0-3.7-0.1-5.6
				c-0.1-2.2-0.1-4.4-0.1-6.7c0-2.2,0.1-4.2,0.2-6c8.9,0,17.8,0,26.8-0.1C550,553.9,565.6,553.9,581.1,553.9z"/>
			<path class="st0" d="M485.6,608.2c31.2,0.1,62.9,0.3,94.8,0.8c0,0.2,0,0.4,0,0.6h3c0-0.2,0-0.4,0-0.5c8.8,0.2,17.5,0.3,26.3,0.6
				c-0.1,0.6-0.1,1.2-0.2,1.7h-86.2c0.2-0.9,0.3-1.7,0.5-2.6l-3-0.2c-0.1,0.9-0.3,1.8-0.5,2.7h-93.4v-3.5
				C446.6,608.1,466.2,608.2,485.6,608.2z"/>
			<path class="st0" d="M559.9,516.2c-1.4,8.9-2.1,18.4-2.1,28.3c0,2.6,0.1,5.1,0.2,7.7c-7.8,0-15.6,0-23.4,0.1
				c-15.5,0.1-31.1,0.1-46.6,0.1c-11.6,0-23.4,0-35.3-0.1c-0.5-6.6-1-12.8-1.5-19c-0.5-6.3-1-12.6-1.5-19.3l-3,0.1
				c0.5,6.7,1,13,1.5,19.3c0.5,6.2,1,12.4,1.5,18.9c-25.1-0.2-473.1-0.7-499.2-1.8v-39.1c27.2,1.1,176,0.4,315.8,1.1
				c121,0.6,235.4,2.6,258.6,3.1C536.5,515.7,548.2,516,559.9,516.2z"/>
			<path class="st0" d="M633.6,148.4c-8.9-0.3-17.9-0.5-26.8-0.8c0.2-3.7,0.3-7.4,0.5-11c0.4-7.9,0.9-16.2,0.9-24.3
				c8.8,0.2,17.2,0.4,25.4,0.6V148.4z"/>
			<path class="st0" d="M442.1,112.5c19.7,0,39.8-0.1,59.1-0.3c19.4-0.1,39.4-0.3,59.1-0.3c16.2,0,31,0.1,44.8,0.3
				c0,8.2-0.4,16.4-0.9,24.3c-0.2,3.6-0.4,7.3-0.5,11c-26.5-0.7-52.9-1.2-78.8-1.8c-5.6-0.1-11.1-0.2-16.7-0.3
				c-0.1-3.1-0.2-6.5-0.2-10.3c0-3.8,0.1-7.7,0.1-11.5c0.1-3.8,0.1-7.6,0.1-11.4h-3c0,3.8-0.1,7.5-0.1,11.3
				c-0.1,3.8-0.1,7.7-0.1,11.5c0,3.8,0.1,7.2,0.2,10.2c-30.1-0.6-60.5-1.3-91-2.3c-0.3-2.7-0.5-5.6-0.5-9.1c0-2,0-4,0.1-6
				c0-2,0.1-4,0.1-6c0-3.7-0.2-6.8-0.5-9.6C423.6,112.4,433.2,112.5,442.1,112.5z"/>
			<path class="st0" d="M442.1,480.5c19.7,0,39.8-0.1,59.1-0.3c19.4-0.1,39.4-0.3,59.1-0.3c16.2,0,31,0.1,44.8,0.3
				c0,8.2-0.4,16.4-0.9,24.3c-0.2,3.6-0.4,7.3-0.5,11c-26.5-0.7-52.9-1.2-78.8-1.8c-5.6-0.1-11.1-0.2-16.7-0.3
				c-0.1-3.1-0.2-6.5-0.2-10.3c0-3.8,0.1-7.7,0.1-11.5c0.1-3.8,0.1-7.6,0.1-11.4h-3c0,3.8-0.1,7.5-0.1,11.3
				c-0.1,3.8-0.1,7.7-0.1,11.5c0,3.8,0.1,7.2,0.2,10.2c-30.1-0.6-60.5-1.3-91-2.3c-0.3-2.7-0.5-5.6-0.5-9.1c0-2,0-4,0.1-6
				c0-2,0.1-4,0.1-6c0-3.7-0.2-6.8-0.5-9.6C423.6,480.5,433.2,480.5,442.1,480.5z"/>
			<path class="st0" d="M465.1,590.6c-0.5,5.2-0.9,10.3-1.4,15.8c-24.8-0.1-50-0.3-75.1-0.7c-0.5-5.2-1-10.1-1.5-15
				c-0.5-5-1-9.9-1.5-15.3l-3,0.1c0.5,5.4,1,10.4,1.5,15.3c0.5,4.8,1,9.6,1.4,14.8c-4.3-0.1-430.8-0.2-435.1-0.3v-30
				c30.6-0.7,483.9-1.1,516.1-1.3C466.1,579.8,465.6,585.2,465.1,590.6z"/>
			<path class="st0" d="M411.1,59.5c0,3.4,0.1,6.8,0.3,10.3c-1.5,0-3.1,0-4.6,0c-11.5,0-445,0.3-456.4,0.8V43.1
				c12.6,0.2,447.4,0.5,460,0.9C411,49.2,411.1,54.5,411.1,59.5z"/>
			<path class="st0" d="M620.3,52.5h-2.2c0,6.8,0.5,13.9,0.9,20.7c0.2,3.1,0.4,6.1,0.5,9.1c-34.1-0.7-68.6-3.6-102.2-6.4
				c0,0-0.1,0-0.1,0c-0.1-5.6-0.6-11.2-1-16.6c-0.3-3.8-0.7-7.7-0.9-11.6c8.6,0.4,17.2,0.7,25.8,1.1c0,0.1,0,0.1,0,0.2h3
				c0,0,0,0,0,0c20.5,0.9,40.9,1.9,61.1,2.8C610.2,52,615.3,52.3,620.3,52.5z"/>
			<path class="st0" d="M581.8,574.6c0.1,1.3,0.1,2.5,0.1,3.8c0,5.2-0.4,10.5-0.8,15.6c-0.3,4.4-0.6,8.9-0.7,13.3
				c-31.9-0.6-63.7-0.7-94.8-0.8c-6.3,0-12.6,0-18.9-0.1c0.5-5.5,0.9-10.6,1.4-15.8c0.5-5.4,1-10.8,1.5-16.6
				c8.8,0,17.6-0.1,26.6-0.1C523.8,574,552.3,574.2,581.8,574.6z"/>
			<path class="st0" d="M541.1,416.9c0,0.1,0,0.1,0,0.2h3c0,0,0,0,0,0c20.5,0.9,40.9,1.9,61.1,2.8c5,0.2,10.1,0.5,15.2,0.7h-2.2
				c0,6.8,0.5,13.9,0.9,20.7c0.2,3.1,0.4,6.1,0.5,9.1c-34.1-0.7-68.6-3.6-102.2-6.4c0,0-0.1,0-0.1,0c-0.1-5.6-0.6-11.2-1-16.6
				c-0.3-3.8-0.7-7.7-0.9-11.6C523.9,416.1,532.5,416.5,541.1,416.9z"/>
			<path class="st0" d="M605.2,185.9c10.1,0,19.4,0.1,28.4,0.2v19.5c-9.7-0.2-19.3-0.3-28.8-0.5
				C605.2,198.8,605.2,192.3,605.2,185.9z"/>
			<path class="st0" d="M605.2,553.9c10.1,0,19.4,0.1,28.4,0.2v19.5c-9.7-0.2-19.3-0.3-28.8-0.5
				C605.2,566.8,605.2,560.3,605.2,553.9z"/>
			<path class="st0" d="M633.6,22.4v28.9c-9.4-0.4-18.8-0.9-28.1-1.3c-20.3-0.9-40.7-1.9-61.3-2.8c0.1-4.9,0.7-9.8,1.2-14.6
				c0.5-4,1-8.2,1.2-12.3l-3-0.1c-0.2,4.1-0.7,8.2-1.2,12.3c-0.6,4.8-1.1,9.7-1.2,14.6c-32.7-1.5-65.6-2.8-98.7-3.9
				c1.4-8.6,2.8-17.5,3.7-26.3c51.2,2,102.5,3.4,152.7,4.6C610.5,21.8,622,22.1,633.6,22.4z"/>
			<path class="st0" d="M559.9,148.2c-1.4,8.9-2.1,18.4-2.1,28.3c0,2.6,0.1,5.1,0.2,7.7c-7.8,0-15.6,0-23.4,0.1
				c-15.5,0.1-31.1,0.1-46.6,0.1c-11.6,0-23.4,0-35.3-0.1c-0.5-6.6-1-12.8-1.5-19c-0.5-6.3-1-12.6-1.5-19.3l-3,0.1
				c0.5,6.7,1,13,1.5,19.3c0.5,6.2,1,12.4,1.5,18.9c-25.1-0.2-473.1-0.7-499.2-1.8v-39.1c65.4-1,262.3-0.7,409,0.9
				c80.2,0.8,147.7,3,165.4,3.3C536.5,147.7,548.2,148,559.9,148.2z"/>
			<path class="st0" d="M-49.5,440.4c11.4-0.5,444.9-0.8,456.4-0.8c21.6,0,43.6,1.1,66.3,2.7l-2,0.1c0.9,11.7,2.3,23,3.7,34.8
				l0.2,1.5c-10.9,0.1-21.9,0.1-32.8,0.1c-20.3,0-466.3-0.1-491.7-0.9V440.4z"/>
			<path class="st0" d="M420.6,5.3c-0.4,2.9-0.7,5.8-1.1,8.7c-15.6-0.7-453.5-1.5-469-2.4v-21.8h471.7
				C421.9-5.1,421.2,0.2,420.6,5.3z"/>
			<path class="st0" d="M599,19.8c-10.1-0.3-20.3-0.5-30.4-0.8c0.7-4.8,1-9.5,1.3-14.1c0.3-5,0.6-10,1.4-15.2h62.2v30.9
				C622,20.4,610.5,20.1,599,19.8z"/>
			<path class="st0" d="M612.4,611.4c0.1-0.6,0.1-1.1,0.2-1.7c7,0.2,14,0.4,21,0.7v1H612.4z"/>
			<path class="st0" d="M-49.5,72.3c11.4-0.5,444.9-0.8,456.4-0.8c21.6,0,43.6,1.1,66.3,2.7l-2,0.1c0.9,11.7,2.3,23,3.7,34.8
				l0.2,1.5c-10.9,0.1-21.9,0.1-32.8,0.1c-20.3,0-466.3-0.1-491.7-0.9V72.3z"/>
			<path class="st0" d="M-49.5,355.5c7.9,0.3,438.1,0.5,446.1,0.7c0,8.9,0.5,17.3,0.9,26.3c-8.3-0.4-438.7-0.8-447-1.2V355.5z"/>
			<path class="st0" d="M400.4,382.6c25.7,1.1,51.5,1.9,77.2,2.5c0.3-3.6,0.6-7.1,1-10.6c0.6-5.4,1.3-11,1.3-16.6h3
				c0,5.7-0.7,11.3-1.3,16.8c-0.4,3.4-0.8,7-1,10.5c39.7,1,79.4,1.7,118.4,2.6c11.5,0.3,23,0.6,34.5,0.9v-33.9
				c-3.5,0.1-7,0.3-10.5,0.4c0,1.1,0.1,2.2,0.1,3.3c0,4.3-0.3,8.7-0.6,13c-0.3,4.2-0.6,8.6-0.6,12.9c0,1.2,0,2.5,0.1,3.7l-3,0
				c-0.1-1.2-0.1-2.5-0.1-3.8c0-4.3,0.3-8.7,0.6-13c0.3-4.2,0.6-8.6,0.6-12.9c0-1,0-2.1-0.1-3.1c-12.4,0.4-24.8,0.8-37.3,1.1
				c0,0,0,0.1,0,0.1l-1.2-0.1c-29.2,0.7-58.3,1.1-87.2,1.1c-20.2,0-40.6-0.2-61-0.6l-2.1,0c0,0,0,0,0-0.1
				c-10.6-0.2-21.2-0.4-31.8-0.7C399.5,365.1,400,373.6,400.4,382.6z M548.6,386.3l0.2-1.2c1.4-9.2,2.9-18.7,5.3-27.9l2.9,0.3
				c-2.4,9.1-3.8,18.6-5.3,27.8l-0.2,1.2L548.6,386.3z"/>
			<path class="st0" d="M393,265.5c-1.4,5.4-1.5,10.9-1.7,16.2c0,1.7-0.1,3.3-0.2,5c-6.2-0.1-434.5-0.3-440.7-0.4v-20.8
				c3.4,0,429.1,0,432.6,0C386.4,265.4,389.7,265.5,393,265.5z"/>
			<path class="st0" d="M622.5,450.4c-0.2-3.1-0.3-6.1-0.5-9.2c-0.4-6.8-0.9-13.8-0.9-20.6c4.2,0.2,8.3,0.4,12.5,0.6v29.4
				C629.9,450.5,626.2,450.5,622.5,450.4z"/>
			<path class="st0" d="M446.1,386c10.5,0.3,21,0.6,31.5,0.9c0,0.1,0,0.2,0,0.3l3,0.1c0-0.1,0-0.2,0-0.3c21.1,0.5,42.1,1,63.1,1.4
				c-0.2,4.1-0.7,8.2-1.2,12.2c-0.6,4.8-1.1,9.7-1.2,14.6c-32.7-1.5-65.6-2.8-98.7-3.9C443.8,402.9,445.1,394.4,446.1,386z"/>
			<path class="st0" d="M633.6,240.7c-16.7-0.6-33.4-1-50.1-1.3c0.1-4.4,0.4-8.9,0.7-13.3c0.4-5.2,0.8-10.5,0.8-15.7
				c0-1.3,0-2.5-0.1-3.8c15.9,0.2,32.1,0.5,48.7,0.8V240.7z"/>
			<path class="st0" d="M423.8,264.1c-13.6-0.3-27.3-0.4-40.8-0.4c-3.5,0-429.2,0-432.6,0V239c17.1,0.4,456.4,0.6,473.4,0.8V264.1z"
				/>
			<path class="st0" d="M633.6,265.5c-7.5,0.4-15.3,0.7-23.2,0.9c0.8-4.9,1.1-9.9,1.5-14.8c0.2-3.3,0.5-6.6,0.8-9.9
				c7,0.2,14,0.4,21,0.7V265.5z"/>
		</g>
		<g class="st4">
			<path class="st0" d="M297.5,94.3c0.4-7.4,0.8-15.1,2-22.5c30.2-0.1,64.9-0.2,86.7-0.3c-0.5,6.5-1.3,12.9-2.2,19.2
				c-0.9,6.5-1.8,13.2-2.3,19.9c-27.1-0.1-58.6-0.1-85.3-0.3C297,105,297.3,99.6,297.5,94.3z"/>
			<path class="st0" d="M232.1,141.9c0.3-1.4,0.4-4.2,0.4-9.6c0-2,0-4-0.1-6c0-2-0.1-4-0.1-6c0-3.3,0.2-6,0.4-8.5
				c28.2,0,48.5,0,53.8,0.1c10.1,0,21.2,0.1,32.4,0.1c-0.1,5.7-0.6,11.3-1.2,16.8c-0.4,4.4-0.9,8.9-1.1,13.4
				c-11-0.1-21.7-0.1-31.6-0.2C280,142,259.9,142,232.1,141.9z"/>
			<path class="st0" d="M176.9,13.8c0.1,0.9,0.1,1.7,0.1,2.6c0,5.1-0.9,10.2-1.9,15.1c-0.6,3.3-1.2,6.7-1.6,10
				c-10.8,0-22.1,0-33.7,0l-2.6-0.2c0,0.1,0,0.1,0,0.2c-18.1,0-36.8,0-55.1,0V13.7C114.3,13.7,147.7,13.7,176.9,13.8z"/>
			<path class="st0" d="M283.7,41.7C283.7,41.7,283.7,41.8,283.7,41.7c-4.6,0-9.1,0-13.2,0c0-9.1,0.5-18.3,1.3-27.5
				c23.6,0.4,56.3,0.8,87,1.2c-0.3,2.5-0.4,5.1-0.4,8.1c0,2.3,0.1,4.6,0.1,6.9c0.1,2.3,0.1,4.6,0.1,6.9c0,1.4,0,3.4-0.1,4.9
				c-25.3-0.2-52.1-0.3-74.1-0.5L283.7,41.7z"/>
			<path class="st0" d="M296.9,70c0,0,0,0.1,0,0.1c-5,0-9.9,0-14.5,0.1c0.5-4.6,1.3-9.3,2-13.9c0.7-4.2,1.4-8.6,1.9-12.9
				c16.2,0.1,34.7,0.1,52.5,0.2c0,0.7,0.1,1.4,0.1,2.1c0,4.7-0.5,9.7-1,14.4c-0.3,3.3-0.7,6.6-0.9,9.9c-13,0-26.4,0.1-38.9,0.2
				L296.9,70z"/>
			<path class="st0" d="M324.7,317.7c-8.5,0-30.9-0.1-60.7-0.1c-0.1-1.9-0.1-3.8-0.1-5.6c0-4.1,0.2-8.3,0.3-12.4
				c0.1-3.8,0.3-7.6,0.3-11.4c1.7,0,2.9,0,3.5,0c22.8,0.1,55.9,0.1,83.1,0.2v29.4C342.6,317.8,333.7,317.7,324.7,317.7z"/>
			<path class="st0" d="M274.8,251.5c0.3-4,0.7-8,0.9-12.1c22.1,0.1,51,0.2,77.6,0.3c-0.5,7.9-1.4,16.1-4.3,24.1
				c-22.8,0-52.5,0-75.1,0C274.1,259.6,274.4,255.5,274.8,251.5z"/>
			<path class="st0" d="M261.6,354.2c0-0.1,0-0.1,0-0.2l-2.8,0.2c-9.7,0-22.1,0-36.3-0.1c-0.9-12-1.8-22.9-3-34.2
				c25.4,0.1,48.5,0.1,66.8,0.2c0.9,4.1,1.4,8.5,1.4,13.9c0,3.6-0.2,7.2-0.4,10.7c-0.2,3.1-0.3,6.4-0.3,9.6c-2.4,0-4.7,0-6.9-0.1
				C277.6,354.2,271.2,354.2,261.6,354.2z"/>
			<path class="st0" d="M276.2,205.4c-4.3,0-23.5,0-50.7,0c1.7-6.9,2.6-13.9,3.5-20.7c26.1,0.1,44.2,0.1,47.8,0.2
				c9.6,0.1,20.3,0.3,31.7,0.4c0.2,1.6,0.4,3.2,0.4,5.1c0,2.7-0.3,5.5-0.5,8.2c-0.2,2.2-0.4,4.5-0.4,6.8c-5.6,0-11.2,0-16.5,0
				c0,0,0-0.1,0-0.1l-2.8,0.1c0,0,0,0,0,0C284.2,205.4,280.1,205.4,276.2,205.4z"/>
			<path class="st0" d="M251.6,70.3c0-6.1,0.4-12.4,0.9-18.4c0.2-2.9,0.4-5.8,0.5-8.7c3.9,0,6.4,0,7.1,0c6.6,0,14.6,0.1,23.3,0.1
				c-0.5,4.2-1.2,8.5-1.9,12.6c-0.8,4.7-1.6,9.5-2.1,14.2c-6,0-11.6,0.1-16.5,0.1C261.9,70.3,257.9,70.3,251.6,70.3z"/>
			<path class="st0" d="M189.1,110.1l2.8-0.2c-1.4-12.8-1.4-25.5-1.4-37.8c39.2,0,68.2-0.1,71.5-0.1c9.6-0.1,21.6-0.1,34.6-0.2
				c-1.2,7.4-1.6,15-1.9,22.3c-0.3,5.3-0.5,10.7-1.1,16.1l0.7,0.1c-2.4,0-4.7,0-7,0c-10.7-0.1-90.8-0.1-170.2-0.2
				c-0.5-7.3-0.8-14.7-0.8-22.6c0-4.7,0.1-9.8,0.3-15.3c24.9,0,49.4,0,71.1,0C187.7,84.5,187.7,97.2,189.1,110.1z"/>
			<path class="st0" d="M248.3-2.5c0.3,4.7,0.7,9.6,1.5,14.6c-18.5,0-56-0.1-98.3-0.1c0.4-7.3,0.7-14.8,0.8-22.1h95.4
				C247.9-7.6,248.1-5,248.3-2.5z"/>
			<path class="st0" d="M98.7,111.8c-0.1,1.4-0.3,3.5-0.4,7.1c-0.4,7.9-1,19.7-1.4,22.9l0,0c-26.1,0-51.4-0.1-73.5-0.1
				c-0.6-4.7-1.5-9.3-2.4-13.8c-1-5.3-2-10.7-2.6-16.2C42.2,111.7,70,111.7,98.7,111.8z"/>
			<path class="st0" d="M191.5,172.5c0-3.5,0.1-6.9,0.1-10.4c0-6.1-0.1-11.7-0.5-18.4c31.8,0,62,0,87.2,0.1
				c-1.4,7.3-1.8,14.9-2.1,22.2c-0.3,5.6-0.6,11.4-1.3,17.2c-6.2,0-23.8-0.1-47.9-0.1l-0.7-0.1l0,0.1c-10.5,0-22.3,0-34.8-0.1
				C191.5,179.4,191.5,175.9,191.5,172.5z"/>
			<path class="st0" d="M222.6,205.5c-22.1,0-49.1,0-77.4,0c0.2-2.9,0.6-6,0.9-8.9c0.5-3.9,1-8,1-11.9c29.1,0,56.7,0.1,78.9,0.1
				C225.2,191.6,224.3,198.6,222.6,205.5z"/>
			<path class="st0" d="M203.4,207.1c-1.4,4.9-1.6,9.9-1.9,14.8c-0.2,5.1-0.5,10.4-2.1,15.5l0.1,0c-22.2,0-48.5,0-75.5,0v-30.2
				C152.2,207.1,179.7,207.1,203.4,207.1z"/>
			<path class="st0" d="M252.6,438.2c0-0.9-0.1-2-0.1-2.5c0-3.6,1-7.3,1.9-10.8c0.9-3.6,1.9-7.4,1.9-11.2c0-0.8-0.1-1.6-0.2-2.3
				c16.7,0,28.4,0,32.4,0c16.5,0.1,35.3,0.1,53.1,0.2c0,0.8-0.1,1.7-0.1,2.5c0,2.3,0.1,4.6,0.1,7c0.1,2.3,0.1,4.7,0.1,7
				c0,3.3-0.1,6.9-0.4,9.9c-16.8,0.1-34.7,0.1-50.6,0.2C286.2,438.2,272.3,438.2,252.6,438.2z"/>
			<path class="st0" d="M82.6,284.2c0-0.9-0.1-1.8-0.1-2.7c0-0.3,0.1-1.2,0.3-2.4c0.4-3.1,1.2-8.5,1.3-13.6c27,0,54.9,0,80.5,0
				c0.1,1.7,0.2,3.3,0.4,5c0.3,4.1,0.7,8.3,0.7,12.4c0,1.2,0,2.3-0.1,3.4c-14.3,0-29.3,0-44.5,0l-2.6-0.2c0,0.1,0,0.1,0,0.2
				c-12,0-24,0-35.8,0C82.7,285.6,82.7,284.9,82.6,284.2z"/>
			<path class="st0" d="M81.3,265.5c-0.1,4.9-0.8,10.3-1.3,13.3c-0.2,1.4-0.3,2.4-0.3,2.7c0,0.9,0.1,1.9,0.1,2.8
				c0,0.7,0.1,1.4,0.1,2.1c-25.6,0-50.2,0-70.9,0l2.2-0.2c-0.3-2.6-0.4-5-0.4-7.3l0-3.7c0-2.9-0.1-6.2-0.7-9.6
				C31,265.5,55.6,265.5,81.3,265.5z"/>
			<path class="st0" d="M63.7,323.8c0,5.8,0.6,11.6,1.1,17.2c0.4,4.2,0.8,8.6,1,12.9c-14.9,0-29.2,0-42.4-0.1c0,0,0-0.1,0-0.1
				l-0.5,0.1c-10.4,0-20.1,0-28.7,0l1.4,0c-0.4-9.2-0.3-18.8-0.3-28.1l0-6.4c19,0.1,42.7,0.1,68.7,0.2
				C63.8,321,63.7,322.4,63.7,323.8z"/>
			<path class="st0" d="M-23.9,383.2c17.3,0.1,42,0.1,69.9,0.2c0,3.5-0.3,7-0.5,10.4c-0.3,3.9-0.5,7.9-0.5,11.9c0,1.3,0,2.6,0.1,4
				c-10.8,0-21.1,0-30.6,0c0-0.1,0-0.1,0-0.2l-1.4,0.2c-13,0-24.6,0-34.1,0l1.1-0.3c-1.5-4.8-1.9-9.7-2.3-14.5
				C-22.6,391-23,387.1-23.9,383.2z"/>
			<path class="st0" d="M49.8,207.2v30h2.8v-30c21.9,0,45.4,0,68.7-0.1v30.2c-45.8,0-93.4,0-126.6,0c-0.5-5.4-1.7-10.6-2.8-15.7
				c-1.1-4.7-2.1-9.5-2.6-14.4C5.9,207.2,26.9,207.2,49.8,207.2z"/>
			<path class="st0" d="M283.8,381.7c-0.1,0-0.2,0-0.4,0c-2.3,0-4.6,0-6.8,0c-2,0-7,0-14.4,0c-0.1-2.5-0.2-5-0.2-7.5l0-7.1
				c0-3.6-0.1-7.4-0.4-11.4c9.6,0,16.2,0,18.7,0c14,0.1,30.1,0.1,45.8,0.2c0.3,2.3,0.5,4.6,0.5,7.1c0,6.7-1.1,13.3-2.2,18.9
				c-13.8-0.1-27.8-0.2-40.3-0.2C284,381.7,283.9,381.7,283.8,381.7z"/>
			<path class="st0" d="M46.6,85.3c-0.2,4.9-0.4,9.9-0.4,14.9c0,3.6,0.1,6.8,0.3,9.9c-9.9,0-19.3,0-28.2,0c0,0,0-0.1,0-0.1l-1.4,0.1
				c-9.9,0-18.9,0-27.1,0l1.1-0.1c-0.4-3-0.9-6.1-1.4-9.1c-1.5-9.2-2.9-17.9-2.9-26.9c0-0.5,0-1.1,0-1.6c16.4,0,37.3,0,60.2,0
				C46.9,76.6,46.7,81,46.6,85.3z"/>
			<path class="st0" d="M56.1,2c0,3.2,0.1,6.5,0.3,9.8c-4.5,0-8.8,0-13.2,0c0.2-3.7,0.7-7.6,1.1-11.5c0.4-3.5,0.8-7.1,1.1-10.6h10.2
				C55.9-6.1,56.1-2,56.1,2z"/>
			<path class="st0" d="M-2.5,143.5c14.7,0,32,0,51.1,0.1c-0.6,3-0.8,5.7-0.8,8.9c0,5.5,0.6,11.1,1.3,16.5c0.5,4.4,1,9.1,1.2,13.5
				l2.8-0.1c-0.2-4.5-0.7-9.2-1.2-13.7c-0.6-5.4-1.3-10.9-1.3-16.3c0-3.3,0.3-5.9,0.8-8.9c19.7,0,41.2,0,63.2,0.1
				c-0.2,6.4-0.6,12.8-0.9,19.2c-0.4,6.7-0.7,13.4-0.9,20c-35.6,0-71.1-0.1-99.8-0.1c0,0,0-0.1,0-0.1l-1.8,0.1c-5.6,0-11,0-16,0
				C-3.4,169.2-2.9,156.2-2.5,143.5z"/>
			<path class="st0" d="M295,510.1c-3.3,0-10.7,0-21.3-0.1c-0.1-1.2-0.2-2.3-0.2-3.5c0-5.3,0.9-10.7,1.9-15.9
				c0.6-3.5,1.2-7.1,1.6-10.7c8.1,0,13.8,0,16.5,0c19.6,0.1,41.8,0.1,61.6,0.2c-0.2,3.7-0.6,7.5-0.9,11.1c-0.6,5.4-1.1,11-1.1,16.5
				c0,0.9,0,1.8,0.1,2.7C334.3,510.4,313.6,510.2,295,510.1z"/>
			<path class="st0" d="M258.9,355.7c0.3,3.9,0.4,7.8,0.4,11.4l0,7.1c0,2.5,0,5,0.2,7.5c-15.3,0-39.1-0.1-67-0.1
				c0.2-2.9,0.4-5.7,0.6-8.6c0.4-4.8,0.8-9.7,0.8-14.6c0-0.9,0-1.8-0.1-2.7C220.2,355.7,243.1,355.7,258.9,355.7z"/>
			<path class="st0" d="M19.5,438c-2-5.9-2.8-12.1-3.5-18c-0.3-2.9-0.7-5.8-1.2-8.8c24.1,0,52.9,0,82.6,0c0.3,1.8,0.5,3.7,0.5,5.8
				c0,3.6-0.5,7.3-1,10.8c-0.5,3.5-1,7-1,10.6c-28.1,0-55.3,0.1-78.4,0.1L19.5,438z"/>
			<path class="st0" d="M364.3,402.2c0.9-4,1.8-8.1,1.8-12.3c0-1.8-0.2-3.4-0.6-5c3.4,0,6.7,0.1,10,0.1c0,0.5,0,1,0,1.5
				c0,1,0.1,2,0.1,3.1c0,1-0.2,2.9-0.5,5.3c-0.4,4.3-1.1,10.1-1.1,15.6c-3.7,0-7.4-0.1-11.2-0.1
				C363.2,407.6,363.7,404.9,364.3,402.2z"/>
			<path class="st0" d="M267.7,573.4l0.1-1.4c0.4-6.2,0.8-12.6,0.8-18.9c14.5,0,24.6,0.1,28.3,0.1c15,0.2,31.6,0.3,48.6,0.4
				c0.2,1,0.3,2,0.3,3.1c0,3-0.6,6.2-1.2,9.2c-0.4,2.4-0.9,4.9-1.1,7.3c-8.9,0-18.2,0-27.4,0.1c0,0,0,0,0-0.1l-2.8-0.5
				c-0.1,0.2-0.1,0.4-0.1,0.6c-6.9,0-13.6,0-20.1,0.1C289.5,573.4,280.5,573.4,267.7,573.4z"/>
			<path class="st0" d="M-5.3,559.9c0,4.1,0.3,8.6,0.9,13.7c-26.8,0-44.3,0-45.1,0.1v-21.4c2.4,0.1,19.3,0.2,44.6,0.3
				C-5.2,554.8-5.3,557.3-5.3,559.9z"/>
			<path class="st0" d="M-14.6,482.2c0,3.4-0.2,6.9-0.4,10.2c-0.2,3.4-0.4,6.8-0.4,10.3c0,2.4,0.1,4.6,0.3,6.6l2.8-0.2
				c-0.2-2-0.3-4.1-0.3-6.4c0-3.4,0.2-6.9,0.4-10.2c0.2-3.4,0.4-6.9,0.4-10.4c0-0.8,0-1.6-0.1-2.5c16.8,0,38.1,0,61.6,0.1
				c-0.1,1.9-0.1,3.7-0.1,5.6c0,4.3,0.2,8.6,0.3,12.9c0.1,3.8,0.2,7.6,0.3,11.5c-55.1-0.1-98-0.1-99.8-0.2v-29.9
				c0.9,0,14.1,0.1,34.9,0.1C-14.7,480.5-14.6,481.3-14.6,482.2z"/>
			<path class="st0" d="M22.2,366.6c0,1.9-0.1,3.9-0.1,5.8c-0.1,1.9-0.1,3.9-0.1,5.8c0,1.1,0,2.1,0.1,3.1c-41.1,0-70.8-0.1-71.5-0.1
				v-25.8c0.8,0,29.9,0.1,70.5,0.1C22,359.6,22.2,363.6,22.2,366.6z"/>
			<path class="st0" d="M19.6,584.5c-0.3,3.6-0.5,7.3-0.5,11c0,3.6,0.3,6.9,0.9,9.9c-40.4,0-69,0-69.5,0v-30
				c2.6-0.1,30.6-0.1,69.6-0.2C20,578.3,19.8,581.4,19.6,584.5z"/>
			<path class="st0" d="M-25.1,394.9c0.4,4.7,0.9,9.7,2.3,14.5c-15.7,0-25.7,0-26.8-0.1V383c0.9,0,9.3,0.1,22.8,0.1
				C-25.8,387.1-25.4,391.1-25.1,394.9z"/>
			<path class="st0" d="M30.5,477.7h2.8c0-12.4,0-25.1,0.9-37.5c17,0,35.5,0,54.6-0.1c0,1.8-0.1,3.6-0.1,5.4c0,9.5,0.6,19.6,2,32.6
				c-72.3-0.1-136.8-0.2-140.3-0.3v-37.5c1.3-0.1,35.1-0.1,80.9-0.2C30.5,452.6,30.5,465.3,30.5,477.7z"/>
			<path class="st0" d="M-22.5,521.5c1.3,9.6,2.6,19.6,6.6,29.1c-19.5-0.1-32.1-0.1-33.6-0.2v-39.1c1.9,0.1,11.2,0.2,25.6,0.2
				C-23.4,514.9-22.9,518.3-22.5,521.5z"/>
			<path class="st0" d="M32.9,54.5c0.1,5.2,0.1,10.5,0.9,15.9c-46.9,0-82.5,0.1-83.3,0.1V43.1c0.8,0,35.8,0,82,0
				C32.8,47,32.8,50.8,32.9,54.5z"/>
			<path class="st0" d="M-24.4,123.4c0.6,5.2,1.2,10.5,1.2,15.7c0,0.8,0,1.7-0.1,2.5c-15.8,0-25.7-0.1-26.4-0.1v-29.9
				c0.7,0,9.6,0,24.1,0.1C-25.3,115.6-24.8,119.5-24.4,123.4z"/>
			<path class="st0" d="M-15.4,32.6c0,3,0.1,5.9,0.2,8.8c-20.5,0-33.6,0-34.4,0v-28c0.8,0,14.1,0.1,34.7,0.1
				C-15.1,19.5-15.4,26.1-15.4,32.6z"/>
			<path class="st0" d="M10.3,186.1c0,1.9-0.1,3.8-0.1,5.7c-0.1,1.9-0.1,3.9-0.1,5.8c0,3.1,0.2,5.6,0.6,8c-35.1,0-59.4,0-60.2,0.1
				v-21.4c2.1,0.1,25.9,0.2,59.8,0.2C10.3,185,10.3,185.5,10.3,186.1z"/>
			<path class="st0" d="M50.1,296.6c-0.4,5.3-0.8,10.8-0.8,16.2c0,1.4,0,2.8,0.1,4.2l2.8-0.1c-0.1-1.4-0.1-2.8-0.1-4.2
				c0-5.3,0.4-10.8,0.8-16.1c0.2-2.9,0.4-5.8,0.6-8.6c20.7,0,42.9,0,64.9,0c-0.3,4-0.4,8.3-0.4,13.7c0,2.6,0,5.2,0.1,7.8
				c0,2.6,0.1,5.2,0.1,7.8h2.8c0-2.6,0-5.2-0.1-7.8c0-2.6-0.1-5.2-0.1-7.8c0-5.5,0.1-9.8,0.4-13.7c27.3,0,54.2,0,77.3,0
				c0,1-0.1,2-0.1,3c0,2.9,0.1,5.7,0.2,8.5c0.1,2.8,0.2,5.6,0.2,8.4c0,3.6-0.2,6.6-0.5,9.5c-108.2-0.1-245-0.2-247.8-0.3V288
				c0.8,0,45,0,100.2,0.1C50.5,290.9,50.3,293.7,50.1,296.6z"/>
			<path class="st0" d="M-18.3,242.3c0,4.6,1.1,9.3,2.1,13.8c0.6,2.4,1.1,4.8,1.5,7.1l2.8-0.3c-0.4-2.4-1-4.9-1.5-7.3
				c-1-4.4-2.1-8.9-2.1-13.3c0-1.1,0.1-2.2,0.3-3.2c13.5,0,30.3,0,48.8,0c0.8,4.1,1.4,8.2,1.9,12.2c0.5,4,1.1,8.2,1.9,12.4
				c-9.7,0-19,0-27.6,0c0,0,0,0,0,0l-0.2,0c-34.8,0-58.9,0-59.1,0V239c0.6,0,12.6,0,31.5,0C-18.2,240.1-18.3,241.2-18.3,242.3z"/>
			<path class="st0" d="M172.9,438.3l0.1-2.3c0.2-4.3,0.5-9.1,0.5-12.9c0-4.4-0.3-8.3-0.8-11.9c31,0,59.4,0,80.5,0.1
				c0.1,0.8,0.2,1.5,0.2,2.3c0,3.6-0.9,7-1.9,10.7c-1,3.7-1.9,7.4-1.9,11.3c0,0.5,0,1.6,0.1,2.5C228.9,438.3,202,438.3,172.9,438.3z
				"/>
			<path class="st0" d="M192.9,479.9c0,3.2-0.1,6.5-0.3,9.8c-0.2,3.5-0.3,7.1-0.3,10.7c0,3.6,0.2,6.7,0.5,9.6
				c-22.4,0-46.6-0.1-70.9-0.1c-1.3-9.6-2.7-20.4-2.9-30C144.3,479.8,169.6,479.8,192.9,479.9z"/>
			<path class="st0" d="M126.3,394.7l0,2.5c0,4.1,0.1,8.2,0.7,12.4c-27.9,0-56.1,0-81.5-0.1l2.4-0.1c-0.1-1.3-0.1-2.6-0.1-3.9
				c0-3.9,0.3-7.9,0.5-11.7c0.2-3.4,0.4-7,0.5-10.5c24.2,0,50.7,0.1,76.9,0.1C126.2,387.2,126.3,391,126.3,394.7z"/>
			<path class="st0" d="M106.4,512c1.5,15.5,6.1,37.9,6.2,38.1c0,0.2,0,0.5-0.1,0.8c-25.4,0-50.4-0.1-72.9-0.1
				c0.3-4.7,0.9-9.4,1.4-14c0.9-7.6,1.8-15.4,1.8-23.1c0-0.6,0-1.2,0-1.9C62.6,511.9,84.3,511.9,106.4,512z"/>
			<path class="st0" d="M-13.1,550.3c-4-9.4-5.3-19.4-6.6-29c-0.4-3.2-0.9-6.5-1.4-9.7c15.8,0.1,37,0.2,61,0.2c0,0.6,0,1.2,0,1.9
				c0,7.6-0.9,15.4-1.8,22.9c-0.5,4.7-1.1,9.5-1.4,14.2c-19.4,0-36.9-0.1-51-0.1L-13.1,550.3z"/>
			<path class="st0" d="M135.6,557.5c0,2.1,0.1,4.3,0.2,6.4c0.1,2.1,0.2,4.2,0.2,6.3c0,1.1,0,2.1-0.1,3.2l2.8,0.1
				c-26,0-52.5,0-77.1,0c0.5-3.6,1.3-7.2,2-10.6c0.7-3.3,1.5-6.8,2-10.2c22.5,0.1,46.5,0.1,70.2,0.2
				C135.7,554.3,135.6,555.8,135.6,557.5z"/>
			<path class="st0" d="M241.4,478.3c0.1-2.1,0.1-4.2,0.2-6.3c0.3-10.8,0.7-21.9,2.4-32c24.1,0,41.3-0.1,46.4-0.1
				c7.5,0,15.4-0.1,23.4-0.1c0,12.6,0,25.6-1.8,38.7c-6.5,0-12.9-0.1-19-0.1C287.6,478.4,268.3,478.3,241.4,478.3z"/>
			<path class="st0" d="M176.5,551c0.4-4.7,1.2-9.4,2-13.9c1.1-6,2.3-12.3,2.3-18.5c0-2.3-0.2-4.4-0.5-6.4
				c18.4,0.1,35.8,0.1,51.3,0.2c-0.1,0.9-0.1,2-0.1,3.5c0,4.6-0.2,9.3-0.4,13.8c-0.2,4.5-0.4,9.2-0.4,13.9c0,2.7,0.1,5.2,0.2,7.6
				C214.5,551.1,196,551,176.5,551z"/>
			<path class="st0" d="M219.6,354.1c-22.9,0-50.2-0.1-78.5-0.1c0.1-1,0.1-2.6,0.1-5.1c0-2.9-0.1-5.9-0.1-8.8
				c-0.1-2.9-0.1-5.8-0.1-8.8c0-4.5,0.2-8.2,0.5-11.6c25.7,0.1,51.4,0.1,75.1,0.2C217.8,331.2,218.7,342.2,219.6,354.1z"/>
			<path class="st0" d="M168.5,282.9c0-4.2-0.3-8.5-0.7-12.6c-0.1-1.6-0.3-3.3-0.4-4.9c30.7,0,57.8,0,75.6,0
				c-1.5,9.9-2.5,20.7-2.5,20.8l1.4,0.1c-18.2,0-44.4,0-73.7,0C168.5,285.2,168.5,284.1,168.5,282.9z"/>
			<path class="st0" d="M137.1,43.2c-0.2,1.7-0.3,3.3-0.5,5c-0.8,7.3-1.6,14.9-1.6,22.2c-33.1,0-68,0-98.4,0.1
				c-0.7-5.4-0.8-10.7-0.9-16c0-3.7-0.1-7.5-0.4-11.4C66.7,43.2,103,43.2,137.1,43.2z"/>
		</g>
	</g>
	<path class="st1" d="M548.8,386.3l3,0.2l0.2-1.2c1.4-9.1,2.9-18.6,5.2-27.8l-2.9-0.3c-2.4,9.2-3.8,18.7-5.3,27.9L548.8,386.3z"/>
</g>
<g>
	<polyline class="st5" points="5.7,609.6 0.7,230.7 -36.9,272.5 -38.3,609.6 	"/>
	<g>
		<rect x="5.8" y="235.2" class="st6" width="173" height="374.5"/>
		<g>
			<rect x="138.1" y="240" class="st7" width="32" height="90.2"/>
			<path class="st6" d="M147.2,308.1c0,4.1,3.3,7.4,7.4,7.4c4.1,0,7.4-3.3,7.4-7.4s-3.3-7.4-7.4-7.4
				C150.5,300.7,147.2,304,147.2,308.1z"/>
			<path class="st8" d="M147.2,308.1c0,4.1,3.3,7.4,7.4,7.4c4.1,0,7.4-3.3,7.4-7.4s-3.3-7.4-7.4-7.4
				C150.5,300.7,147.2,304,147.2,308.1z"/>
			<rect x="147.2" y="253.1" class="st9" width="14.8" height="40.2"/>
			<g>
				<rect x="150.5" y="260.1" class="st6" width="9" height="0.8"/>
				<rect x="150.5" y="265" class="st6" width="9" height="0.8"/>
				<rect x="150.5" y="269.9" class="st6" width="9" height="0.8"/>
				<rect x="150.5" y="274.8" class="st6" width="9" height="0.8"/>
				<rect x="150.5" y="279.8" class="st6" width="9" height="0.8"/>
				<rect x="150.5" y="284.7" class="st6" width="9" height="0.8"/>
			</g>
		</g>
		<g>
			<g>
				<rect x="125.5" y="344" class="st10" width="35.2" height="90.2"/>
				<path class="st6" d="M135.5,412.1c0,4.1,3.6,7.4,8.1,7.4s8.1-3.3,8.1-7.4s-3.6-7.4-8.1-7.4C139.1,404.7,135.5,408,135.5,412.1z"
					/>
				<path class="st11" d="M135.5,412.1c0,4.1,3.6,7.4,8.1,7.4s8.1-3.3,8.1-7.4s-3.6-7.4-8.1-7.4C139.1,404.7,135.5,408,135.5,412.1z
					"/>
				<rect x="135.5" y="357.1" class="st9" width="16.2" height="40.2"/>
				<g>
					<rect x="139.1" y="364.1" class="st6" width="9.9" height="0.8"/>
					<rect x="139.1" y="372.3" class="st6" width="9.9" height="0.8"/>
					<rect x="139.1" y="380.5" class="st6" width="9.9" height="0.8"/>
					<rect x="139.1" y="388.7" class="st6" width="9.9" height="0.8"/>
				</g>
			</g>
			<g>
				<rect x="89.6" y="344" class="st10" width="35.2" height="90.2"/>
				<path class="st6" d="M99.6,412.1c0,4.1,3.6,7.4,8.1,7.4s8.1-3.3,8.1-7.4s-3.6-7.4-8.1-7.4C103.2,404.7,99.6,408,99.6,412.1z"/>
				<path class="st11" d="M99.6,412.1c0,4.1,3.6,7.4,8.1,7.4s8.1-3.3,8.1-7.4s-3.6-7.4-8.1-7.4C103.2,404.7,99.6,408,99.6,412.1z"/>
				<rect x="99.6" y="357.1" class="st9" width="16.2" height="40.2"/>
				<g>
					<rect x="103.2" y="364.1" class="st6" width="9.9" height="0.8"/>
					<rect x="103.2" y="372.3" class="st6" width="9.9" height="0.8"/>
					<rect x="103.2" y="380.5" class="st6" width="9.9" height="0.8"/>
					<rect x="103.2" y="388.7" class="st6" width="9.9" height="0.8"/>
				</g>
			</g>
			<g>
				<rect x="53.6" y="344" class="st10" width="35.2" height="90.2"/>
				<path class="st6" d="M63.6,412c0,4.1,3.6,7.4,8.1,7.4s8.1-3.3,8.1-7.4s-3.6-7.4-8.1-7.4C67.3,404.7,63.6,408,63.6,412z"/>
				<path class="st11" d="M63.6,412c0,4.1,3.6,7.4,8.1,7.4s8.1-3.3,8.1-7.4s-3.6-7.4-8.1-7.4C67.3,404.7,63.6,408,63.6,412z"/>
				<rect x="63.7" y="357.1" class="st9" width="16.2" height="40.2"/>
				<g>
					<rect x="67.3" y="364.1" class="st6" width="9.9" height="0.8"/>
					<rect x="67.3" y="372.3" class="st6" width="9.9" height="0.8"/>
					<rect x="67.3" y="380.5" class="st6" width="9.9" height="0.8"/>
					<rect x="67.3" y="388.7" class="st6" width="9.9" height="0.8"/>
				</g>
			</g>
			<g>
				<rect x="17.7" y="343.9" class="st10" width="35.2" height="90.2"/>
				<path class="st6" d="M27.7,412c0,4.1,3.6,7.4,8.1,7.4s8.1-3.3,8.1-7.4s-3.6-7.4-8.1-7.4C31.4,404.6,27.7,407.9,27.7,412z"/>
				<path class="st11" d="M27.7,412c0,4.1,3.6,7.4,8.1,7.4s8.1-3.3,8.1-7.4s-3.6-7.4-8.1-7.4C31.4,404.6,27.7,407.9,27.7,412z"/>
				<rect x="27.7" y="357.1" class="st9" width="16.2" height="40.2"/>
				<g>
					<rect x="31.4" y="364" class="st6" width="9.9" height="0.8"/>
					<rect x="31.3" y="372.2" class="st6" width="9.9" height="0.8"/>
					<rect x="31.3" y="380.4" class="st6" width="9.9" height="0.8"/>
					<rect x="31.3" y="388.7" class="st6" width="9.9" height="0.8"/>
				</g>
			</g>
		</g>
		<g>
			<g>
				<rect x="125.9" y="440.2" class="st10" width="36.5" height="90.2"/>
				<path class="st6" d="M136.3,508.3c0,4.1,3.8,7.4,8.4,7.4c4.7,0,8.4-3.3,8.4-7.4s-3.8-7.4-8.4-7.4S136.3,504.2,136.3,508.3z"/>
				<path class="st12" d="M136.3,508.3c0,4.1,3.8,7.4,8.4,7.4c4.7,0,8.4-3.3,8.4-7.4s-3.8-7.4-8.4-7.4S136.3,504.2,136.3,508.3z"/>
				<rect x="136.3" y="453.3" class="st9" width="16.8" height="40.2"/>
				<g>
					<rect x="140.1" y="460.3" class="st6" width="10.3" height="0.8"/>
					<rect x="140.1" y="468.5" class="st6" width="10.3" height="0.8"/>
					<rect x="140.1" y="476.7" class="st6" width="10.3" height="0.8"/>
					<rect x="140.1" y="484.9" class="st6" width="10.3" height="0.8"/>
				</g>
			</g>
			<g>
				<rect x="88.5" y="440.2" class="st13" width="36.5" height="90.2"/>
				<path class="st6" d="M98.9,508.2c0,4.1,3.8,7.4,8.4,7.4c4.7,0,8.4-3.3,8.4-7.4s-3.8-7.4-8.4-7.4
					C102.7,500.9,98.9,504.2,98.9,508.2z"/>
				<path class="st12" d="M98.9,508.2c0,4.1,3.8,7.4,8.4,7.4c4.7,0,8.4-3.3,8.4-7.4s-3.8-7.4-8.4-7.4
					C102.7,500.9,98.9,504.2,98.9,508.2z"/>
				<rect x="98.9" y="453.3" class="st9" width="16.8" height="40.2"/>
				<g>
					<rect x="102.7" y="460.3" class="st6" width="10.3" height="0.8"/>
					<rect x="102.7" y="468.5" class="st6" width="10.3" height="0.8"/>
					<rect x="102.7" y="476.7" class="st6" width="10.3" height="0.8"/>
					<rect x="102.6" y="484.9" class="st6" width="10.3" height="0.8"/>
				</g>
			</g>
			<g>
				<rect x="51.1" y="440.1" class="st14" width="36.5" height="90.2"/>
				<path class="st6" d="M61.5,508.2c0,4.1,3.8,7.4,8.4,7.4c4.7,0,8.4-3.3,8.4-7.4s-3.8-7.4-8.4-7.4
					C65.3,500.8,61.5,504.1,61.5,508.2z"/>
				<path class="st12" d="M61.5,508.2c0,4.1,3.8,7.4,8.4,7.4c4.7,0,8.4-3.3,8.4-7.4s-3.8-7.4-8.4-7.4
					C65.3,500.8,61.5,504.1,61.5,508.2z"/>
				<rect x="61.5" y="453.3" class="st9" width="16.8" height="40.2"/>
				<g>
					<rect x="65.3" y="460.2" class="st6" width="10.3" height="0.8"/>
					<rect x="65.3" y="468.4" class="st6" width="10.3" height="0.8"/>
					<rect x="65.2" y="476.6" class="st6" width="10.3" height="0.8"/>
					<rect x="65.2" y="484.8" class="st6" width="10.3" height="0.8"/>
				</g>
			</g>
			<g>
				<rect x="13.7" y="440.1" class="st15" width="36.5" height="90.2"/>
				<path class="st6" d="M24.1,508.2c0,4.1,3.8,7.4,8.4,7.4c4.7,0,8.4-3.3,8.4-7.4s-3.8-7.4-8.4-7.4
					C27.9,500.8,24.1,504.1,24.1,508.2z"/>
				<path class="st12" d="M24.1,508.2c0,4.1,3.8,7.4,8.4,7.4c4.7,0,8.4-3.3,8.4-7.4s-3.8-7.4-8.4-7.4
					C27.9,500.8,24.1,504.1,24.1,508.2z"/>
				<rect x="24.1" y="453.2" class="st9" width="16.8" height="40.2"/>
				<g>
					<rect x="27.9" y="460.2" class="st6" width="10.3" height="0.8"/>
					<rect x="27.8" y="468.4" class="st6" width="10.3" height="0.8"/>
					<rect x="27.8" y="476.6" class="st6" width="10.3" height="0.8"/>
					<rect x="27.8" y="484.8" class="st6" width="10.3" height="0.8"/>
				</g>
			</g>
		</g>
		<g>
			<rect x="102.8" y="240" class="st7" width="32" height="90.2"/>
			<path class="st6" d="M111.9,308c0,4.1,3.3,7.4,7.4,7.4s7.4-3.3,7.4-7.4s-3.3-7.4-7.4-7.4C115.2,300.7,111.9,304,111.9,308z"/>
			<path class="st8" d="M111.9,308c0,4.1,3.3,7.4,7.4,7.4s7.4-3.3,7.4-7.4s-3.3-7.4-7.4-7.4C115.2,300.7,111.9,304,111.9,308z"/>
			<rect x="111.9" y="253.1" class="st9" width="14.8" height="40.2"/>
			<g>
				<rect x="115.2" y="260.1" class="st6" width="9" height="0.8"/>
				<rect x="115.2" y="265" class="st6" width="9" height="0.8"/>
				<rect x="115.2" y="269.9" class="st6" width="9" height="0.8"/>
				<rect x="115.2" y="274.8" class="st6" width="9" height="0.8"/>
				<rect x="115.2" y="279.7" class="st6" width="9" height="0.8"/>
				<rect x="115.2" y="284.7" class="st6" width="9" height="0.8"/>
			</g>
		</g>
		<g>
			<rect x="68.2" y="239.9" class="st7" width="32" height="90.2"/>
			<path class="st6" d="M77.3,308c0,4.1,3.3,7.4,7.4,7.4s7.4-3.3,7.4-7.4s-3.3-7.4-7.4-7.4C80.6,300.6,77.3,303.9,77.3,308z"/>
			<path class="st8" d="M77.3,308c0,4.1,3.3,7.4,7.4,7.4s7.4-3.3,7.4-7.4s-3.3-7.4-7.4-7.4C80.6,300.6,77.3,303.9,77.3,308z"/>
			<rect x="77.3" y="253.1" class="st9" width="14.8" height="40.2"/>
			<g>
				<rect x="80.6" y="260" class="st6" width="9" height="0.8"/>
				<rect x="80.6" y="265" class="st6" width="9" height="0.8"/>
				<rect x="80.6" y="269.9" class="st6" width="9" height="0.8"/>
				<rect x="80.6" y="274.8" class="st6" width="9" height="0.8"/>
				<rect x="80.6" y="279.7" class="st6" width="9" height="0.8"/>
				<rect x="80.6" y="284.7" class="st6" width="9" height="0.8"/>
			</g>
		</g>
		<g>
			
				<rect x="0.5" y="269.4" transform="matrix(0.1538 -0.9881 0.9881 0.1538 -243.3812 286.5764)" class="st16" width="90.2" height="32"/>
			<path class="st6" d="M35.3,307.1c-0.6,4,2.1,7.8,6.2,8.4c4,0.6,7.8-2.1,8.4-6.2c0.6-4-2.1-7.8-6.2-8.4
				C39.7,300.3,36,303.1,35.3,307.1z"/>
			<path class="st8" d="M35.3,307.1c-0.6,4,2.1,7.8,6.2,8.4c4,0.6,7.8-2.1,8.4-6.2c0.6-4-2.1-7.8-6.2-8.4
				C39.7,300.3,36,303.1,35.3,307.1z"/>
			
				<rect x="27.9" y="266.4" transform="matrix(0.1538 -0.9881 0.9881 0.1538 -229.8723 279.1063)" class="st9" width="40.2" height="14.8"/>
			<g>
				
					<rect x="50" y="256.7" transform="matrix(0.1538 -0.9881 0.9881 0.1538 -215.4787 270.8357)" class="st6" width="0.8" height="9"/>
				
					<rect x="49.2" y="261.6" transform="matrix(0.1538 -0.9881 0.9881 0.1538 -221.0137 274.1609)" class="st6" width="0.8" height="9"/>
				
					<rect x="48.4" y="266.5" transform="matrix(0.1538 -0.9881 0.9881 0.1538 -226.4802 277.5967)" class="st6" width="0.8" height="9"/>
				
					<rect x="47.7" y="271.3" transform="matrix(0.1538 -0.9881 0.9881 0.1538 -231.8362 280.964)" class="st6" width="0.8" height="9"/>
				
					<rect x="46.9" y="276.2" transform="matrix(0.1538 -0.9881 0.9881 0.1538 -237.371 284.2891)" class="st6" width="0.8" height="9"/>
				
					<rect x="46.2" y="281" transform="matrix(0.1538 -0.9881 0.9881 0.1538 -242.7266 287.6564)" class="st6" width="0.8" height="9"/>
			</g>
		</g>
		<rect x="5.8" y="235.2" class="st17" width="173" height="368.9"/>
		<rect x="6.1" y="327.7" class="st18" width="173" height="14.8"/>
		<rect x="6" y="429.8" class="st18" width="173" height="14.8"/>
		<rect x="5.8" y="531.2" class="st18" width="173" height="72.8"/>
		<g>
			<rect x="99.4" y="551.3" class="st19" width="4.6" height="13.5"/>
			<rect x="79.8" y="551.3" class="st19" width="4.6" height="13.5"/>
		</g>
		<rect x="11.6" y="537.7" class="st20" width="161.3" height="64.7"/>
		<line class="st20" x1="92.3" y1="537.7" x2="92.2" y2="602.4"/>
	</g>
</g>
<g>
	<g class="st21">
		<path class="st22" d="M315.5,74c0,27.1-21.9,49-49,49s-49-21.9-49-49s21.9-49,49-49S315.5,47,315.5,74z"/>
		<path class="st23" d="M299.1,74c0,18-14.6,32.6-32.6,32.6S233.9,92,233.9,74s14.6-32.6,32.6-32.6S299.1,56,299.1,74z"/>
		<polyline class="st22" points="280.4,62.1 269,77.6 236.4,78.6 		"/>
	</g>
	<g>
		<g>
			<path class="st24" d="M309.8,68.3c0,27.1-21.9,49-49,49s-49-21.9-49-49s21.9-49,49-49S309.8,41.3,309.8,68.3z"/>
			<path class="st25" d="M293.4,68.3c0,18-14.6,32.6-32.6,32.6s-32.6-14.6-32.6-32.6s14.6-32.6,32.6-32.6
				C278.8,35.7,293.4,50.3,293.4,68.3z"/>
			<polyline class="st24" points="274.7,56.5 263.3,71.9 230.7,72.9 			"/>
		</g>
	</g>
</g>
<g>
	<g>
		<g>
			<g id="wrist_left_4_">
				<path class="st26" d="M242.3,437.7c0,0-3.6,4.5-5.6,11.4c-1.6,5.5-2.3,12.8-4,19.7c-1,4.1-1.9,7-1.5,7.4
					c0.6,0.8,4.4-0.2,6.3-6.2c1.9-6.1,5.5-12.5,5.5-12.5L242.3,437.7z"/>
				<path class="st26" d="M255.3,434.8c0,0,7.6,17.2,8.8,33.1c1.1,15.9-1.3,20.6-3,20.6c-1.7,0-1-2.9-1.1-8.3
					c-0.1-4.5,0.4-9.1-0.4-8.9c-0.8,0.1-1.1,9.3-1.1,10.9c0,1.6-0.2,12.5-2.8,12.9c-2.5,0.3-2.3-7.5-2.2-11.8c0,0-0.2-10.5-1-10.3
					c-0.8,0.2-0.1,9.6,0,11.2c0.1,1.6,0.8,13.2-1.6,13.8c-2.4,0.6-3.3-2-3.7-12c0,0-0.1-12.1-0.9-11.8c-2.2,0.4,1.9,20.6-1.8,21.5
					c-1.9,0.5-2.5-4.1-2.9-10.1c-0.5-6.2-0.6-16.6-1.6-21.8c-3.3-16.9,2.5-26.1,2.5-26.1S248.8,429.2,255.3,434.8z"/>
			</g>
		</g>
		<polygon class="st26" points="255.3,434.8 254.6,418 237.2,422.4 242.3,437.7 		"/>
	</g>
	<g>
		<path class="st27" d="M262.3,432c0,0-12.5-98-68.3-210.1l-34,25.1c0,0,25,56.3,37.3,86s37,104.8,37,104.8L262.3,432z"/>
	</g>
	<path class="st28" d="M240.1,809.6c-2.7,2.1-5.4,3.8-8.1,5.2c-26.5,14-51.8-1.5-51.8-1.5c-13.3-23.6-8-83.2-18.6-123.9
		c-9.3-35.3-14.8-115.4-15.9-135.8c-0.3-3.1-0.3-4.8-0.3-4.8l7.5-78.6l1.3-14.1l0.7-0.1l40.9-5.4l15.4-2.1c0.7,1.7,1.3,4.7,1.8,8.8
		c6,40.2,10.1,185.1,13.2,210.9C229.5,696.5,240.1,809.6,240.1,809.6z"/>
	<path class="st29" d="M240.1,809.6c-2.7,2.1-5.4,3.8-8.1,5.2c-4.4-41.9-14.4-144.3-17.5-218.8c-3-70.1-3.4-125-7.1-145.5l3.8-2.1
		c0.7,1.7,1.3,4.7,1.8,8.8c6,40.2,10.1,185.1,13.2,210.9C229.5,696.5,240.1,809.6,240.1,809.6z"/>
	<path class="st30" d="M161.6,457.7l-1.3,12.1l-3.4,32.5c-1.6,8.5-6.3,28.5-11.4,51.2c-7.1,31.4-15,68.1-16.9,87.1
		c-0.1,1.8-0.3,3.3-0.4,4.8c-1.3,28.2-9.3,54.2-13.7,82.7C110.3,756.6,98,816,98,816c-3.9,1.2-7.6,2-11.1,2.5
		c-11.9,1.9-21.2,0.3-28.2-2.5c-13.2-5.2-18.7-14.7-18.7-14.7c8.6-30.5,21.8-138.3,27.8-206.4s26.1-154.8,26.1-154.8l60.5,15.8
		L161.6,457.7z"/>
	<path class="st29" d="M128.8,640.7c-0.1,1.8-0.3,3.3-0.4,4.8c-1.3,28.2-9.3,54.2-13.7,82.7c-4.3,28.5-16.6,87.9-16.6,87.9
		c-3.9,1.2-7.6,2-11.1,2.5L128.8,640.7z"/>
	<path class="st31" d="M213,457.2c-13.1,5.8-30.7,11.4-52.6,12.7c-2.5,0.2-5,0.2-7.6,0.3c-6.7,0.1-13.6-0.2-20.9-1
		c0,0-19.1-4.8-21.3,38.9c-1.6,31.3-33.7,199.3-51.8,308.1c-13.2-5.2-18.7-14.7-18.7-14.7C48.8,771,62,663.2,68,595.1
		s26.1-154.8,26.1-154.8l60.5,15.8l56.3-7.5C211.7,450.1,212.4,453.1,213,457.2z"/>
	<path class="st32" d="M215.9,350.1c-3-30.5-14.9-113.5-22.1-128c-4.9-10-21.8-3.5-22.9-4c0,0,0-0.1,0,0c-10.5-4-19.4-5.4-52,2
		c0,0-19.7,5.4-30.3,11.7c0,0,0,0-0.1-0.1l-4.7,2.9c0,0-8.1,6.3-15.3,23.6c-7.2,17.3,17.3,67.2,15.4,105.8
		c-2,38.7,8.3,75.7,8.3,75.7s62.1,39.7,123.9,7.4C216.2,447.2,220.8,399,215.9,350.1z M190.3,238c0,0,0,0,0,0.1c0,0.1,0,0.1,0.1,0.2
		c0,0,0-0.1-0.1-0.1v-0.1l0,0C190.2,238,190.2,237.9,190.3,238C190.2,237.9,190.3,238,190.3,238z"/>
	<g>
		<g>
			<g>
				<g id="wrist_left_5_">
					<path class="st26" d="M107.9,476.2c0,0,6,1.9,11.9,7c4.7,4,9.8,10.2,15.4,15.5c3.3,3.1,5.9,5.2,5.8,5.8
						c-0.1,1.1-4.1,2.5-9.4-1.9c-5.4-4.4-12.5-8.1-12.5-8.1L107.9,476.2z"/>
					<path class="st26" d="M94.4,481.4c0,0,3.3,20.2,11.8,35.4c8.5,15.2,13.5,17.9,15,16.9c1.5-1-0.8-3.3-4-8.2
						c-2.6-4.1-5.7-8-4.9-8.3c0.8-0.3,6.6,7.8,7.5,9.3c0.9,1.5,7.6,11.3,10.3,10c2.5-1.2-2.3-8.2-5-12c0,0-6.1-9.7-5.3-10
						c0.8-0.3,5.8,8.7,6.7,10.2c0.9,1.5,7.1,12.5,9.7,11.6c2.6-0.9,1.8-3.8-3.8-13.1c0,0-7.1-11.1-6.2-11.3
						c2.2-1,10.5,19.9,14.5,18.5c2-0.7-0.2-5.2-3.4-11c-3.3-5.9-9.3-15.5-11.5-20.8c-7.1-17.3-17.8-22.2-17.8-22.2
						S97,472.4,94.4,481.4z"/>
				</g>
			</g>
			<polygon class="st26" points="94.4,481.4 85,465.7 103.4,459.3 107.9,476.2 			"/>
		</g>
		<path class="st27" d="M102.9,289.1c-7.9,15.1-13.9,51.7-11.8,79.7c2.4,32.9,23.8,104.9,23.8,104.9l-30.3,2.6
			c-69-134-21.9-239.6,6-242C95.4,234.8,115.9,264.1,102.9,289.1z"/>
	</g>
	<path class="st33" d="M119,216.2c0,0,2.8,7.3,7.4,14.5c4.9,7.7,12,15.3,20.2,14.2c15.9-2.2,20.2-30.1,17.8-32.5
		c-2.4-2.3-11.7-1.9-8.8-21.8c0,0-11.1,4.9-34.8,1.4c0,0,1.2,3.3,1.8,7.8C123.3,204.9,123.2,211.7,119,216.2z"/>
	<path class="st34" d="M93,224.6L93,224.6L93,224.6L93,224.6z"/>
	<g>
		<path class="st35" d="M100,74.8c14.5-9.5,31.7-10.3,37.1-10.1c7.3,0.3,26.6,2,39.7,16.1c9.9,10.6,14.1,31,9.1,43.2s-6.1,20-6.1,20
			l-1.8,2.9c-2.7-9.3,2.2-14.7,2.4-35c0.2-18.2-4.6-36.9-42.5-44.5c-16.1,0.3-25.9,6.9-27.3,7.6c-2.8,1.3-7.3,4.6-11.2,12.9
			c-6.3,13.4-5,20-4.5,37.2c0.7,17.2,1,30.4,6.9,36.2c4.6,4.5,8.1,6.1,9.5,6.6c0.5,0.2,0.7,0.2,0.7,0.2c6.3-0.5,6.3-4.9,19-6.3
			c12.8-1.4,26.7-0.2,36.7,1.8c10.1,2.1,13.6,5.8,14.5,12.3c0.9,6.5,0.2,17.9-12,28.3c-12.2,10.4-36.6,11-53.9,5
			s-25.7-22.1-30.7-35.3c-4.4-11.5-3.6-22.3-3.7-36c0-2-0.1-4.1-0.1-6.2C81.3,114.8,83.6,85.6,100,74.8z"/>
		<path class="st26" d="M92.5,115.7c-0.3,9.3-0.7,22.9,1.9,34.3c1,4.4,2.4,8.4,4.5,11.8c3,4.8,7.3,8.1,13.3,8.7
			c0,0,4.1-3.3,12.6-5.5c0.1-0.1,0.3-0.1,0.4-0.1c11-2.9,29.2-4,55.2,5.2c0,0-0.6-1.9-1.1-5.2c-0.7-3.9-1.3-9.5-1.2-16
			c0.1-5.9,0.9-12.5,3-19.1c6.3-19.8-1.5-39.7-7.6-47c-11.3-13.5-36-21.3-59.2-11.4C95.7,79.3,93,97.6,92.5,115.7z"/>
		
			<ellipse transform="matrix(0.999 -4.572368e-02 4.572368e-02 0.999 -8.1821 7.0535)" class="st36" cx="150.1" cy="182.4" rx="10.6" ry="6.4"/>
		<g>
			<path class="st37" d="M91.4,145.2c-0.4,6.4-5.9,11.2-12.4,10.7c-6.5-0.5-11.4-6-11-12.4c0.4-6.4,5.9-11.2,12.4-10.7
				C86.9,133.3,91.8,138.8,91.4,145.2z"/>
			<path class="st38" d="M82,150.1c-3-0.4-5.2-3.1-4.9-6.1c0.3-2.9,2.9-5,5.9-4.7c-0.8-0.5-1.6-0.8-2.6-0.9
				c-3.6-0.4-6.8,2.1-7.2,5.6c-0.4,3.5,2.2,6.7,5.7,7.2c1.7,0.2,3.3-0.3,4.6-1.2C83.1,150,82.6,150.1,82,150.1z"/>
		</g>
	</g>
	<g>
		<path class="st35" d="M130.1,114.7l-20.3-5.2c0,0-3-5.7,2.3-5.8l19.5,5c0,0,1.6,0.1,1.7,1.4l-1.1,4.3
			C132.2,114.4,131.7,115.3,130.1,114.7z"/>
		<path class="st35" d="M158.3,114.5l19-4.3c0,0,4.8-7.7-2-6.1l-18.5,4.3c0,0-1.4,0-1.5,1.3l1,4.4
			C156.3,114.2,156.8,115,158.3,114.5z"/>
		<g>
			<path class="st39" d="M146.8,122.5c4.1,12.9,9.7,29.9,9.7,32.4c0,2.5-12.2,5.5-14.4,4.6c-2.2-0.8,2.5-37,2.5-37H146.8z"/>
			<path class="st26" d="M144.6,121.3c4.1,12.9,9.7,29.9,9.7,32.4c0,2.5-12.2,5.5-14.4,4.6c-2.2-0.8,2.5-37,2.5-37H144.6z"/>
		</g>
		<g>
			<path class="st40" d="M155.8,128.3c-0.1-5.5,0.7-12,9-14.2c8.4-2.2,12.3,5.3,12.2,8.1c-0.1,2.7-2.4,6.8-7,7.4
				c-4.6,0.5-8.8,0.1-10.5,0.3C157.8,130.1,155.9,129.4,155.8,128.3z"/>
			
				<ellipse transform="matrix(0.9988 -4.801662e-02 4.801662e-02 0.9988 -5.652 8.0924)" class="st41" cx="165.6" cy="121.7" rx="6.9" ry="6.9"/>
			<path class="st40" d="M164.9,125.1c0.1,1.7,1.5,3.1,3.2,3s3.1-1.5,3-3.2c-0.1-1.7-1.5-3.1-3.2-3
				C166.3,121.9,164.8,123.3,164.9,125.1z"/>
			<path class="st40" d="M134.2,129c-0.3-5.4-1.4-11.9-9.9-13.6c-8.5-1.8-12,6-11.6,8.9c0.4,2.8,2.8,6.7,7.5,6.9
				c4.7,0.2,8.7-0.5,10.5-0.3C132.3,130.9,134.3,130.1,134.2,129z"/>
			<path class="st41" d="M130.6,122.3c0.1,3.9-2.8,7.1-6.7,7.1s-7.1-2.8-7.1-6.7s2.8-7.1,6.7-7.1
				C127.3,115.5,130.4,118.5,130.6,122.3z"/>
			<path class="st40" d="M129.3,125.7c0.1,1.7-1.3,3.2-3,3.2c-1.7,0.1-3.2-1.3-3.2-3c-0.1-1.7,1.3-3.2,3-3.2
				C127.8,122.6,129.3,124,129.3,125.7z"/>
		</g>
	</g>
	<g>
		<path class="st34" d="M86.9,226.1L86.9,226.1C87,226.1,87,226.1,86.9,226.1C87,226.1,87,226.1,86.9,226.1z"/>
		<path class="st42" d="M182.9,216.6c-17.2-3.9-28.2,7.5-34.8,6.8c-5.7-0.6-28.6-7.8-42.7,0.5L164,334.3L182.9,216.6z"/>
		<polygon class="st43" points="154.8,231.6 159.2,235.5 173.4,214.4 167.8,212.2 148.6,223.7 116.9,216.7 112.2,220.3 140.4,237.4 
			143,233.3 144.9,235.6 149.9,307.6 155.6,318.7 167.9,311.3 169,303.3 153.3,234.5 		"/>
		<polygon class="st44" points="164.9,341.2 151.9,312.1 144.8,221.5 148.5,220.7 168.5,309.9 		"/>
		<polygon class="st44" points="149.7,238.4 141.7,229.3 142.8,220.6 150.5,219 154.8,228.1 		"/>
		<polygon class="st42" points="140.4,237.1 145.4,220.1 117.1,211.9 114.2,218 		"/>
		<polygon class="st42" points="159.2,235.5 147.8,219.1 168.3,209.6 171.5,213 		"/>
	</g>
</g>
<g>
	<g>
		<g>
			<g id="wrist_left_3_">
				<path class="st26" d="M299.1,478.5c0,0-4.8,0.6-10.1,3.6c-4.1,2.4-8.9,6.3-14,9.5c-3,1.9-5.2,3.1-5.3,3.6
					c-0.1,0.8,2.7,2.5,7.4,0c4.7-2.5,10.6-4.3,10.6-4.3L299.1,478.5z"/>
				<path class="st26" d="M308.6,484.4c0,0-5.5,14.8-14.1,25.1c-8.7,10.3-12.9,11.6-13.9,10.6c-1-1,1.1-2.4,4.2-5.7
					c2.6-2.7,5.5-5.2,5-5.6c-0.5-0.4-6.2,5-7.1,5.9c-0.9,1-7.5,7.5-9.3,6.1c-1.7-1.3,3-5.9,5.6-8.4c0,0,6-6.5,5.5-6.8
					c-0.6-0.3-5.7,5.8-6.6,6.8c-0.9,1-7.2,8.5-9,7.4c-1.8-1.1-0.8-3.2,4.8-9.4c0,0,7-7.4,6.4-7.7c-1.5-1.1-10.9,13.5-13.7,11.9
					c-1.4-0.8,0.9-3.9,4.2-7.8c3.3-4,9.3-10.4,11.8-14.1c7.9-12.1,16.8-14.3,16.8-14.3S307.9,477.2,308.6,484.4z"/>
			</g>
		</g>
		<polygon class="st26" points="308.6,484.4 318,473.9 305,466.3 299.1,478.5 		"/>
	</g>
	<path class="st45" d="M282.4,861.4c0,0,19.9,4.5,44.2-3.8l2.5-9.2l1.3-3.9l2,3.4l2,7.1c0,0,14.1,2.6,25.6-4.5c0,0,4-26.6-6.3-34.1
		c-8.4-6.2-19.1-3.9-22.7-2.9c-0.8,0.2-1.3,0.4-1.3,0.4s1.1,1.6,1.1,3.8v0.1c0,2.9-2,6.9-10.6,9.7
		C304.8,832.6,276,833.8,282.4,861.4z"/>
	<path class="st46" d="M330.9,813.4l-0.1,4.2v0.1c0,0,17.8,2.6,20,19.2c1,6.9-7.2,9.3-18.4,10.9l2,7.1c0,0,14.1,2.6,25.6-4.5
		c0,0,4-26.6-6.3-34.1C345.2,810.2,334.5,812.4,330.9,813.4z"/>
	<path class="st47" d="M282.4,861.4c0,0,19.9,4.5,44.2-3.8l2.5-9.2C313.5,850.4,293.5,851.8,282.4,861.4z"/>
	<path class="st48" d="M314.9,825.4c2.1,2.1,4.1,3.8,6.2,5.2c20.3,14,40.9-0.3,40.9-0.3c10.2-23.6,5.8-90.9,13.9-131.6
		c7.1-35.3,11.3-115.4,12.2-135.8c0.2-3.1,0.2-4.8,0.2-4.8l-5.7-78.6l-1-14.1l-0.5-0.1l-31.3-5.4l-11.8-2.1c-0.5,1.7-1,4.7-1.4,8.8
		c-4.6,40.2-7.7,185.1-10.1,210.9C324,705.8,314.9,825.4,314.9,825.4z"/>
	<path class="st29" d="M314.9,825.4c2.1,2.1,4.1,3.8,6.2,5.2c3.4-41.9,12.1-150.8,14.5-225.3c2.3-70.1,2.6-125,5.4-145.5l-2.9-2.1
		c-0.5,1.7-1,4.7-1.4,8.8c-4.6,40.2-7.7,185.1-10.1,210.9C324,705.8,314.9,825.4,314.9,825.4z"/>
	<path class="st45" d="M428.1,833.3c0,0,6.1,11.5,17.3,11.8l3.1-6.4l4.5,8c0,0,7.7,8.6,17.4,13.6c6.2,3.2,13.1,5,19.5,2.3
		c16.4-7.1,5-27.8-11.2-32.5c-16.3-4.7-25.4-35.9-25.4-35.9l-26.9,14.2c0,0,1.8,5.2,2.4,11.7C429.3,824.2,429.3,829,428.1,833.3z"/>
	<path class="st46" d="M426.4,808.4c0,0,1.8,5.2,2.4,11.7c0,0,14.2,4.6,21.6,2.8c7.4-1.9,17.2,10.4,26.9,18.4
		c9.7,8,8.6,20.4-7.2,18.9c6.2,3.2,13.1,5,19.5,2.3c16.4-7.1,5-27.8-11.2-32.5c-16.3-4.7-25.4-35.9-25.4-35.9L426.4,808.4z"/>
	<path class="st49" d="M369.6,298.2c11.2-3.8,20.9-9.1,29.2-15c24.7-17.3,36.6-39.1,36.6-39.1c-1.3-1.1-2.5-2-3.6-2.9
		c-8.1-6.3-11.7-7.6-11.7-7.6c-59-17.6-66.6,14.6-66.1,13.8l0,0l0,0v0.1c-0.6,1.5-1.1,2.9-1.4,4.3
		C345,279.4,369.6,298.2,369.6,298.2z"/>
	<path class="st50" d="M298,471.3c0,0,38.6-131.2,43-190.9l17.5,111.5l-37.8,96.4L298,471.3z"/>
	<path class="st48" d="M375.9,467l1,12.1l2.6,32.5c1.2,8.5,4.8,28.5,8.7,51.2c5.4,31.4,11.5,68.1,12.9,87.1c0.1,1.8,0.2,3.3,0.3,4.8
		c1,28.2,7.1,54.2,10.5,82.7c3.3,28.5,12.7,87.9,12.7,87.9c3,1.2,6.2,3,8.7,4.1c8.6,3.7,17.3,4.7,22.7,1.9
		c10.1-5.2,15.7-11.3,15.7-11.3c-6.6-30.5-19.4-147.6-24-215.7s-20-154.8-20-154.8l-46.3,15.8L375.9,467z"/>
	<path class="st29" d="M401,650c0.1,1.8,0.2,3.3,0.3,4.8c1,28.2,7.1,54.2,10.5,82.7c3.3,28.5,12.7,87.9,12.7,87.9
		c3,1.2,6.3,3.9,9,4.4L401,650z"/>
	<path class="st31" d="M336.6,466.5c10,5.8,23.5,11.4,40.2,12.7c1.9,0.2,3.8,0.2,5.8,0.3c5.1,0.1,10.4-0.2,16-1
		c0,0,14.6-4.8,16.3,38.9c1.2,31.3,27.6,204.2,41.4,313.1c10.1-5.2,15.1-10.4,15.1-10.4c-6.6-30.5-19.4-147.6-24-215.7
		s-20-154.8-20-154.8l-46.3,15.8l-43.1-7.5C337.6,459.4,337.1,462.4,336.6,466.5z"/>
	<path class="st49" d="M334.2,456.6c47.3,32.3,94.8-7.4,94.8-7.4s0-38.1-1.5-76.8c-1.5-38.6,25.1-87.4,19.6-104.7
		c-5.6-17.3-11.7-23.6-11.7-23.6l-3.6-2.9c-8.7,15.6-20.1,27.1-30.9,35.2c-16.5,12.5-31.3,17.2-31.3,17.2
		c-17.4-16.9-17.8-33.6-16.6-41.5c0.4-2.4,0.9-4.1,1-4.6c0-0.1,0-0.1,0-0.1c-0.1,0.1-0.6,0.8-2.7,3.5c-1.3,1.7-3.2,4.3-6,8
		c-8.6,11.6-12.9,72.3-15.2,102.8C326.4,410.5,334.2,456.6,334.2,456.6z"/>
	<path class="st51" d="M373.1,239.3c9.5,7.1,17,5.2,22.4,2.5c4.9-2,7.6-9.4,7.3-11.2c0,0-1.6-6.5-3.7-9.7c-1.3-2-23.8,6.8-23.8,6.8
		s0.8-3.7-0.1,0.8c-0.4,2.1-0.9,4.4-1.4,6.6C373.9,235.2,373.4,236.8,373.1,239.3z"/>
	<path class="st52" d="M335.1,108.4c-0.8,6.1,6.1,7.5,6.1,7.5s2.1,0.4,5.4,0.9c8.9,1.4,32.4-2.1,33-2c13.1,2,22.3,0.8,28.2,7.2
		c10.5,11.5,12.6,18.1,6.5,38.9s8.4,29.5,12.2,18.1s12.7-18.1,12.7-18.1s5.3-9.9,8.4-25.4c3.1-15.4-1.8-37.7-42.7-48
		c-20.8-5.2-37.1-3.9-48.7,0C345,91.3,336.6,97.3,335.1,108.4z"/>
	<path class="st26" d="M334.6,194.7c2.5,9.2,6.8,17.6,13.7,24.3c2.9,2.8,5.9,5.2,8.9,7c30.8,19,64.4-10.1,65.1-32.4
		c0,0,12.2,6.2,20.6-14.5c8.4-20.6-10.7-24.9-18.3-7.9c0,0-6.9,2.1-6.1-1.5s14-36.5-2.3-49.3c-14.2-11.2-27.6-15-38-11.7
		c-31.3,10-36.7,7.2-36.7,7.2s-0.9,2.3-2,6.3l0,0c-0.5,1.7-1.1,3.8-1.7,6.1c-1.1,4.3-2.3,9.5-3.4,15.3c-0.4,2.1-0.7,4.3-1,6.6
		C332,158.8,333.1,189.1,334.6,194.7z"/>
	<path class="st53" d="M385.9,234.7"/>
	<path class="st52" d="M415.2,106.6c1,5-0.2,9.1-3,10.5l0,0c-0.7,0.4-1.6,0.5-2.6,0.4c-0.9,0-1.9-0.3-3-0.8c0,0,0,0,0-0.1
		c-0.3-0.2-2.4-1-17.6-2.4c-18.3-1.7-29.9,12.8-50.2,6.1c-20.3-6.8-15.7-29.7-4.9-35.2s7,2.1,16.8,1.6c6.6-0.4,22.3-3.7,36.3-2.3
		c0,0,0,0,0.1,0c6.8,0.7,13.2,2.4,18,6.3c3.6,2.9,6.3,6.3,8,9.7C414.1,102.4,414.9,104.6,415.2,106.6z"/>
	<path class="st54" d="M412.1,117.1c-1.4,0.7-3.3,0.6-5.6-0.4c0,0,0.7-0.8-17.6-2.5c-18.3-1.7-29.9,12.8-50.2,6.1
		c-20.3-6.8-15.7-29.7-4.9-35.2s7,2.1,16.8,1.6c6.6-0.4,22.3-3.7,36.3-2.3c0,0-32,1.2-37.2,12.4s7.3,18.6,33.5,13.6
		C395.4,108,405.1,112,412.1,117.1z"/>
	<path class="st55" d="M388.6,134.8l20,6.9c0,0,5.7-3.2,1.3-6.2l-19.2-6.7c0,0-1.4-0.8-2.2,0.3l-1.5,4.3
		C387,133.4,386.9,134.4,388.6,134.8z"/>
	<path class="st55" d="M363.1,134.3l-19.3,4c0,0-7.6-5.1-0.7-6.4l18.8-3.7c0,0,1.3-0.6,2,0.6l0.9,4.4
		C364.7,133.2,364.7,134.2,363.1,134.3z"/>
	<path class="st39" d="M373.6,150.3c-4.1,12.8-9.8,29.6-9.8,32.1c0,2.5,12.3,5.4,14.5,4.6c2.2-0.8-2.6-36.7-2.6-36.7H373.6z"/>
	<path class="st26" d="M375.8,149.1c-4.1,12.8-9.8,29.6-9.8,32.1c0,2.5,12.3,5.4,14.5,4.6c2.2-0.8-2.6-36.7-2.6-36.7H375.8z"/>
	<g>
		<path class="st40" d="M364.2,154.6c0.1-5.5-0.7-12.1-9.1-14.3c-8.5-2.2-12.4,5.4-12.3,8.1c0.1,2.8,2.4,6.9,7.1,7.5
			c4.7,0.5,8.8,0.1,10.6,0.3C362.2,156.4,364.1,155.7,364.2,154.6z"/>
		
			<ellipse transform="matrix(4.801679e-02 -0.9988 0.9988 4.801679e-02 189.5512 494.6868)" class="st41" cx="354.3" cy="147.9" rx="7" ry="7"/>
		<path class="st40" d="M354.3,150.4c-0.1,1.7-1.5,3.1-3.2,3.1c-1.7-0.1-3.1-1.5-3.1-3.2c0.1-1.7,1.5-3.1,3.2-3.1
			C352.9,147.2,354.4,148.6,354.3,150.4z"/>
		<path class="st40" d="M386,155.3c0.3-5.5,1.4-12,10-13.8c8.6-1.8,12.1,6.1,11.7,8.9s-2.9,6.8-7.6,7c-4.7,0.2-8.8-0.5-10.6-0.3
			C388,157.2,385.9,156.4,386,155.3z"/>
		<path class="st41" d="M389.6,148.6c-0.1,3.9,2.9,7.1,6.8,7.2s7.1-2.9,7.2-6.8c0.1-3.9-2.9-7.1-6.8-7.2
			C393,141.6,389.8,144.7,389.6,148.6z"/>
		<path class="st40" d="M390.2,151c-0.1,1.7,1.3,3.3,3.1,3.2c1.7,0.1,3.3-1.3,3.2-3.1c0.1-1.7-1.3-3.3-3.1-3.2
			C391.7,147.9,390.3,149.3,390.2,151z"/>
	</g>
	<ellipse class="st56" cx="371.4" cy="207.1" rx="12.5" ry="8"/>
	<g>
		<path class="st39" d="M425.5,175c4.3-6.8,12.9-7.1,13.1-0.9c0.3,6.2-11.7,16.4-14,13.2C422.3,184.1,424,177.4,425.5,175z"/>
		<path class="st26" d="M424.3,179.2c3-4.8,9-5,9.2-0.6c0.2,4.3-8.2,11.5-9.8,9.2C422.1,185.5,423.2,180.8,424.3,179.2z"/>
	</g>
</g>
<g>
	
		<rect x="215.3" y="247.1" transform="matrix(0.9097 -0.4152 0.4152 0.9097 -108.7136 141.5782)" class="st40" width="111.9" height="147.3"/>
	<line class="st57" x1="301" y1="365.7" x2="333.7" y2="351"/>
	<line class="st58" x1="220.4" y1="290.1" x2="280.3" y2="263"/>
	<g>
		<line class="st59" x1="218.3" y1="311.9" x2="274.7" y2="286.7"/>
		<line class="st59" x1="223.8" y1="324" x2="280.1" y2="298.8"/>
		<line class="st59" x1="220.7" y1="317.4" x2="277.2" y2="292.1"/>
		<line class="st59" x1="226.2" y1="329.4" x2="282.6" y2="304.2"/>
		<line class="st59" x1="228.6" y1="334.8" x2="285" y2="309.6"/>
		<line class="st59" x1="231" y1="340.2" x2="287.3" y2="315"/>
		<line class="st59" x1="233.4" y1="345.5" x2="289.9" y2="320.3"/>
		<line class="st59" x1="235.8" y1="351" x2="292.2" y2="325.8"/>
		<g>
			<g>
				<path class="st60" d="M313.4,298.6c-1.5-2.5-4.1-4.1-7.1-4.2l-11.2-0.3c-0.5,0-0.9-0.4-0.9-0.9c0-0.3,0.2-0.6,0.5-0.8l13-5.9
					l-3.1-6.9l-6.9,3.1l-1.6-3.5l-6.9,3.1l1.6,3.5c-4,2.4-5.4,7.5-3,11.6c1.5,2.5,4.1,4.1,7.1,4.2l11.2,0.3c0.5,0,0.9,0.4,0.9,0.9
					c0,0.3-0.2,0.6-0.5,0.8l-13,5.9l3.1,6.9l6.9-3.1l1.6,3.5l6.9-3.1l-1.6-3.5C314.5,307.8,315.8,302.6,313.4,298.6z"/>
			</g>
		</g>
	</g>
	<g>
		<g>
			<path class="st61" d="M270.3,379.1c0.2,2.1-0.2,4.2-1.3,6.1l-0.5-0.3c1-1.8,1.4-3.8,1.2-5.8c-0.2-2.1-1-4.1-2.4-5.6l0.5-0.4
				C269.2,374.9,270.1,376.9,270.3,379.1z"/>
		</g>
		<g>
			<g>
				<path class="st61" d="M272,379c0.7,6.8-4.4,12.9-11.2,13.5c-6.8,0.7-12.9-4.4-13.5-11.2c-0.7-6.8,4.4-12.9,11.2-13.5
					C265.3,367.1,271.4,372.2,272,379z M247.8,381.3c0.6,6.5,6.5,11.4,13,10.8c6.5-0.6,11.4-6.5,10.8-13c-0.6-6.5-6.5-11.4-13-10.8
					C252,369,247.2,374.8,247.8,381.3z"/>
			</g>
			<g>
				<path class="st61" d="M251.9,386.8l-0.5,0.4c-1.4-1.7-2.3-3.8-2.5-6c-0.2-2.1,0.2-4.2,1.3-6.1l0.5,0.3c-1,1.8-1.4,3.8-1.2,5.8
					C249.7,383.2,250.5,385.2,251.9,386.8z"/>
			</g>
			<g>
				<path class="st61" d="M268.7,379.2c0.5,4.9-3.2,9.3-8.1,9.8c-4.9,0.5-9.3-3.2-9.8-8.1c-0.5-4.9,3.2-9.3,8.1-9.8
					C263.8,370.6,268.2,374.3,268.7,379.2z M251.4,380.8c0.4,4.6,4.5,8,9.2,7.6c4.6-0.4,8-4.5,7.6-9.2c-0.4-4.6-4.5-8-9.2-7.6
					C254.3,372.1,250.9,376.2,251.4,380.8z"/>
			</g>
			<circle class="st61" cx="259.6" cy="380.1" r="7"/>
			<g>
				<path class="st40" d="M259.3,384.9c-1.1-0.1-2.1-0.5-2.9-1.2c-0.6-0.5-1.2,0.5-0.7,0.9c1,0.8,2.2,1.3,3.5,1.4
					C260,386.1,260.2,384.9,259.3,384.9L259.3,384.9z"/>
			</g>
			<g>
				<path class="st40" d="M262.8,383.6c-0.4,0.3-0.8,0.6-1.3,0.8c-0.7,0.4-0.2,1.4,0.5,1.1c0.6-0.3,1.1-0.6,1.5-1
					C264.1,384.1,263.4,383.2,262.8,383.6L262.8,383.6z"/>
			</g>
			<g>
				<path class="st40" d="M260.1,375.4c2,0.3,3.6,1.7,4.1,3.7c0.2,0.7,1.3,0.6,1.2-0.2c-0.6-2.5-2.5-4.3-5.1-4.7
					C259.6,374.1,259.4,375.2,260.1,375.4L260.1,375.4z"/>
			</g>
			<g>
				<path class="st40" d="M256,376.9c0.5-0.5,1-0.9,1.6-1.2c0.7-0.4,0.2-1.4-0.5-1.1s-1.3,0.8-1.9,1.3c-0.2,0.2-0.3,0.6-0.1,0.9
					C255.3,377,255.8,377.1,256,376.9L256,376.9z"/>
			</g>
			<g>
				<path class="st40" d="M255.1,381.6c-0.3-0.9-0.3-1.8-0.1-2.7c0.2-0.7-1-0.9-1.2-0.1c-0.3,1.1-0.2,2.3,0.2,3.3
					C254.2,382.8,255.3,382.3,255.1,381.6L255.1,381.6z"/>
			</g>
		</g>
	</g>
</g>
<g>
	<path class="st62" d="M219.4,346.3c0,0-1.5,2-4,4.8s-0.5,8.5,0.4,13.3c0,0-2.6,2.5,1.8,6.6c0,0-1.5,2,2.7,5.4c0,0-1.2,0,3.8,1.9
		c5,1.8,18.2-8.4,24-8.4c5.8,0.1,85.9,8.6,103.3-6.4c17.4-15.1-9.7-33-21.8-23.5c0,0-3.1,1.8-11.3,4.5c-11.3,3.7-32.2,9-67.8,13.5
		c0,0-3.4-1.8-7.8-7.5c-4.5-5.7-9.4-4.3-9.4-4.3s1.7,4.8,1.8,6.5s-9.2,5.4-11,3.1c-1.9-2.3-1.2-4.5-1.2-4.5S222.3,348,219.4,346.3z"
		/>
	<path class="st50" d="M410.1,284.2c-10,27-42.7,40.4-59.3,46.5c-6.2,2.3-97,22.5-97,22.5l-2.3,24.7
		c138.1,14.7,187.1-59.9,191.4-80.1c2.7-12.6,6.7-35.9-11.3-37.2C413.4,259.2,410.1,284.2,410.1,284.2z"/>
</g>
</svg>
