<?xml version="1.0" encoding="utf-8"?>
<!-- Generator: Adobe Illustrator 24.0.3, SVG Export Plug-In . SVG Version: 6.00 Build 0)  -->
<svg version="1.1" id="Layer_1" xmlns="http://www.w3.org/2000/svg" xmlns:xlink="http://www.w3.org/1999/xlink" x="0px" y="0px"
	 width="480px" height="600px" viewBox="0 0 480 600" style="enable-background:new 0 0 480 600;" xml:space="preserve">
<style type="text/css">
	.st0{fill-rule:evenodd;clip-rule:evenodd;fill:#FFECB4;}
	.st1{fill:#EDDBA8;}
	.st2{opacity:0.5;}
	.st3{opacity:0.2;}
	.st4{opacity:0.1;}
	.st5{fill:#B3261E;}
	.st6{fill:#364E78;}
	.st7{fill:#E5A777;}
	.st8{fill:#FFB781;}
	.st9{fill:#6D341B;}
	.st10{fill:#5E2D14;}
	.st11{fill:#E97B59;}
	.st12{fill:#FFFFFF;}
	.st13{fill:#39170B;}
	.st14{fill:#542C23;}
	.st15{fill:#2F446A;}
	.st16{fill:#D32A26;}
	.st17{fill:#F7BC93;}
	.st18{fill:#F8BC93;}
	.st19{fill:#EBA77A;}
	.st20{fill:#A5A7AA;}
	.st21{fill:#6E6F72;}
	.st22{fill:#FFB382;}
	.st23{fill:#392A38;}
	.st24{fill:#CFC095;}
	.st25{fill:#D88852;}
	.st26{fill:#C1753D;}
	.st27{fill:#592600;}
	.st28{fill:#231F20;}
	.st29{fill:#893802;}
	.st30{fill:#444444;}
	.st31{fill:#333333;}
	.st32{fill:#487A5D;}
	.st33{opacity:0.36;fill:#97B7CE;}
	.st34{fill:#2E6042;}
	.st35{opacity:0.36;fill:#2E6042;}
	.st36{fill:#CEDDEA;}
	.st37{fill:#3D220F;}
	.st38{fill:#995222;}
	.st39{fill:#70492F;}
	.st40{fill:#FBEEC7;fill-opacity:0.2;}
	.st41{fill:#904E20;}
</style>
<g transform="matrix(0.948172,0,0,1.88724,-3.09674,-964.778)">
	<rect x="-1" y="508.6" class="st0" width="281" height="328.5"/>
</g>
<g transform="matrix(0.948172,0,0,1.88724,-3.09674,-964.778)">
	<rect x="279.5" y="508.1" class="st0" width="281" height="328.5"/>
</g>
<g>
	<g>
		<path class="st1" d="M737.2,599.1v3.5h3v-3.5c19.8,0.2,39.5,0.3,59,0.3c31.3,0.1,63.2,0.3,95.2,0.8c0,0.2,0,0.4,0,0.6h3
			c0-0.2,0-0.4,0-0.5c8.8,0.2,17.6,0.3,26.4,0.6c-0.1,0.6-0.1,1.2-0.2,1.7h3c0.1-0.6,0.1-1.1,0.2-1.7c7,0.2,14,0.4,21.1,0.7V600
			c-16.8-0.6-33.6-1-50.4-1.3c0.1-4.4,0.4-8.9,0.7-13.3c0.4-5.2,0.8-10.5,0.8-15.7c0-1.3,0-2.5-0.1-3.8c15.9,0.2,32.2,0.5,48.9,0.8
			v-1.7c-9.8-0.2-19.4-0.3-28.9-0.5c0.4-6.3,0.5-12.9,0.5-19.2c10.1,0,19.5,0.1,28.5,0.2v-1.7c-15.8-0.2-33-0.3-52.7-0.3
			c-6.7,0-13.5,0-20.2,0c-0.1-2.6-0.2-5.1-0.2-7.7c0-9.9,0.7-19.3,2.1-28.2c23.6,0.5,47.3,1.1,71,1.8v-1.7c-9-0.3-17.9-0.5-26.9-0.8
			c0.2-3.7,0.3-7.4,0.5-11c0.4-7.9,0.9-16.2,0.9-24.3c8.9,0.2,17.3,0.4,25.5,0.6v-1.7c-17.4-0.5-36-0.8-57-0.9
			c-0.4-9.3-0.4-18.3-0.4-27.8h-3c0,9.5,0,18.5,0.4,27.8c-4.4,0-8.9,0-13.5,0c-19.8,0-39.9,0.1-59.4,0.3c-7.7,0.1-15.5,0.1-23.4,0.2
			l-0.2-1.6c-1.4-11.9-2.8-23.1-3.7-34.7c14.1,1,28.4,2.2,43,3.4c38.5,3.2,78.2,6.5,117.1,6.5v-1.7c-3.7,0-7.4,0-11.1-0.1
			c-0.2-3.1-0.4-6.1-0.6-9.2c-0.4-6.8-0.9-13.8-0.9-20.6c4.2,0.2,8.3,0.4,12.5,0.6v-1.7c-9.4-0.4-18.9-0.9-28.3-1.3
			c-20.4-0.9-40.9-1.9-61.5-2.8c0.1-4.9,0.7-9.8,1.3-14.6c0.5-4,1-8.2,1.2-12.3c17.6,0.4,35.2,0.7,52.6,1.2
			c11.6,0.3,23.2,0.6,34.8,0.9V380c-11.5-0.3-23.1-0.6-34.6-0.9c-39.2-1-79-1.7-118.9-2.6c0.2-3.5,0.6-7.1,1-10.5
			c0.6-5.5,1.3-11.1,1.3-16.8h-3c0,5.6-0.7,11.2-1.3,16.6c-0.4,3.5-0.8,7-1,10.6c-25.8-0.6-51.7-1.4-77.5-2.5
			c-0.5-9-0.9-17.5-0.9-26.3c10.7,0.3,21.3,0.5,31.9,0.7c0,0,0,0,0,0.1l2.2,0c20.5,0.4,40.9,0.6,61.2,0.6c29,0,58.3-0.4,87.6-1.1
			l1.2,0.1c0,0,0-0.1,0-0.2c12.5-0.3,24.9-0.7,37.4-1.1c0,1,0.1,2.1,0.1,3.1c0,4.3-0.3,8.7-0.6,12.9c-0.3,4.3-0.6,8.7-0.6,13
			c0,1.3,0,2.5,0.1,3.8l3,0c-0.1-1.2-0.1-2.5-0.1-3.7c0-4.3,0.3-8.7,0.6-12.9c0.3-4.3,0.6-8.7,0.6-13c0-1.1,0-2.2-0.1-3.3
			c3.5-0.1,7-0.3,10.5-0.4v-1.7c-16.8,0.7-33.6,1.2-50.5,1.6c1.2-4.7,2-9.5,2.8-14.1c0.9-5.3,1.7-10.7,3.2-15.9l-3-0.3
			c-1.5,5.3-2.4,10.7-3.3,16c-0.8,4.7-1.6,9.6-2.8,14.4c-23.3,0.6-46.5,0.9-69.6,1c0.9-11.1,1.4-22.2,1.4-33.3
			c40.2,0.9,81.2,1.9,121.8,3.1v-1.7c-3.5-0.1-7-0.2-10.5-0.3c0-9.4,0.8-17.5,1.6-26.9l0.3-3.7l-3-0.1l-0.3,3.7
			c-0.9,9.4-1.6,17.5-1.6,26.9c-24.8-0.7-49.6-1.4-74.3-1.9c0.5-4.9,0.8-9.9,1.2-14.8c0.4-5.3,0.7-10.6,1.2-15.8l-0.9,0
			c28.7,0.5,57.6,1.2,86.3,2.2v-1.7c-12.8-0.4-25.6-0.8-38.5-1.1c0-1.1-0.1-2.2-0.1-3.3c0-3,0.2-6.2,0.3-9.2c0.2-3,0.3-6.1,0.3-9.1
			h-3c0,3-0.2,6.1-0.3,9.1c-0.2,3-0.3,6.2-0.3,9.3c0,1.1,0.1,2.1,0.1,3.2c-33.1-0.8-66.2-1.3-98.8-1.8c0-0.2,0-0.3,0-0.5
			c0-4.6,0.8-9.4,1.6-14c0.4-2.1,0.7-4.2,1-6.2c24,0.6,48.4,1.1,72.6,1.1c23.6,0,45.2-0.5,65.2-1.5v-1.7c-7.5,0.4-15.3,0.7-23.3,0.9
			c0.8-4.9,1.1-9.9,1.5-14.8c0.2-3.3,0.5-6.6,0.8-9.9c7,0.2,14,0.4,21.1,0.7v-1.7c-16.8-0.6-33.6-1-50.4-1.3
			c0.1-4.4,0.4-8.9,0.7-13.3c0.4-5.2,0.8-10.5,0.8-15.7c0-1.3,0-2.5-0.1-3.8c15.9,0.2,32.2,0.5,48.9,0.8v-1.7
			c-9.8-0.2-19.4-0.3-28.9-0.5c0.4-6.3,0.5-12.9,0.5-19.2c10.1,0,19.5,0.1,28.5,0.2v-1.7c-15.8-0.2-33-0.3-52.7-0.3
			c-6.7,0-13.5,0-20.2,0c-0.1-2.6-0.2-5.1-0.2-7.7c0-9.9,0.7-19.3,2.1-28.2c23.6,0.5,47.3,1.1,71,1.8v-1.7c-9-0.3-17.9-0.5-26.9-0.8
			c0.2-3.7,0.3-7.4,0.5-11c0.4-7.9,0.9-16.2,0.9-24.3c8.9,0.2,17.3,0.4,25.5,0.6v-1.7c-17.4-0.5-36-0.8-57-0.9
			c-0.4-9.3-0.4-18.3-0.4-27.8h-3c0,9.5,0,18.5,0.4,27.8c-4.4,0-8.9,0-13.5,0c-19.8,0-39.9,0.1-59.4,0.3c-7.7,0.1-15.5,0.1-23.4,0.2
			l-0.2-1.6c-1.4-11.9-2.8-23.1-3.7-34.7c14.1,1,28.4,2.2,43,3.4c38.5,3.2,78.2,6.5,117.1,6.5v-1.7c-3.7,0-7.4-0.1-11.1-0.1
			c-0.2-3.1-0.4-6.1-0.6-9.2c-0.4-6.8-0.9-13.8-0.9-20.6c4.2,0.2,8.3,0.4,12.5,0.6v-1.7c-9.4-0.4-18.9-0.9-28.3-1.3
			c-20.4-0.9-40.9-1.9-61.5-2.8c0.1-4.9,0.7-9.8,1.3-14.6c0.5-4,1-8.2,1.2-12.3l-3-0.1c-0.2,4.1-0.7,8.2-1.2,12.3
			c-0.6,4.8-1.1,9.7-1.3,14.6c-32.8-1.5-65.9-2.8-99.1-3.9c1.4-8.6,2.8-17.5,3.7-26.3c51.4,2,102.9,3.4,153.3,4.6
			c11.6,0.3,23.2,0.6,34.8,0.9V12c-11.5-0.3-23.1-0.6-34.6-0.9c-10.1-0.3-20.3-0.5-30.6-0.8c0.7-4.8,1-9.5,1.3-14.1
			c0.3-5,0.6-10,1.4-15.2h-3c-0.8,5.1-1.1,10.2-1.4,15.1c-0.3,4.6-0.6,9.3-1.3,14.1C832,9,783.8,7.6,735.8,5.4
			c0.3-2.9,0.7-5.8,1.1-8.7c0.7-5.2,1.4-10.5,1.7-15.7h-3c-0.3,5.1-1,10.4-1.7,15.5c-0.4,2.9-0.8,5.8-1.1,8.7
			c-7.3-0.3-43.2-0.7-81-1c0.7-5.9,1-10.8,1-15.4c0-2.7-0.1-5.3-0.4-7.8h-2.8c0.2,2.5,0.4,5.1,0.4,7.8c0,4.6-0.3,9.4-1,15.4
			c-27.5-0.3-55.6-0.5-74.5-0.8c-0.9,0-4.2,0-9.2,0c-0.8-5-1.2-9.9-1.5-14.7c-0.2-2.5-0.4-5.1-0.6-7.6h-2.8c0.3,2.6,0.5,5.2,0.6,7.7
			c0.3,4.7,0.7,9.6,1.5,14.6c-18.6,0-56.2-0.1-98.7-0.1c0.4-7.3,0.7-14.8,0.8-22.1h-2.8c-0.1,7.4-0.5,14.8-0.8,22l1.9,0.1
			c-29.8,0-62-0.1-91.7-0.1c-0.2-3.3-0.2-6.6-0.3-9.8c0-4-0.2-8.1-0.5-12.2h-2.8c0.3,4.1,0.5,8.2,0.5,12.2c0,3.2,0.1,6.5,0.3,9.8
			c-4.5,0-8.9,0-13.2,0c0.2-3.7,0.7-7.6,1.2-11.5c0.4-3.5,0.8-7.1,1.1-10.6h-2.8c-0.3,3.4-0.6,6.9-1.1,10.3
			c-0.5,3.9-0.9,7.9-1.2,11.7c-19.8,0-37.8,0-52.5-0.1c0-0.2,0-0.4,0-0.6l-2.8-0.1c0,0.2,0,0.4,0,0.6c-13.9,0-24.4,0-30.1-0.1v1.8
			c5.7,0,16.2,0.1,30.1,0.1c-0.3,6-0.6,12.6-0.6,19.1c0,3,0.1,5.9,0.2,8.8c-13.7,0-24,0-29.7,0v1.7c11.2,0,40.8,0,77.5,0
			c0.3,3.8,0.4,7.7,0.4,11.4c0.1,5.2,0.1,10.5,0.9,15.9c-37.3,0-67.5,0.1-78.8,0.1v1.7c5.5,0,15.5,0,28.7,0c0,0.5,0,1.1,0,1.6
			c0,9.2,1.5,18.3,2.9,27.2c0.5,2.9,0.9,5.9,1.4,8.9c-15.3,0-26.9-0.1-33-0.1v1.7c4.1,0,10.7,0,19.4,0c0.2,3.9,0.7,7.9,1.1,11.7
			c0.6,5.2,1.2,10.5,1.2,15.7c0,0.8,0,1.7-0.1,2.5c-9.7,0-17.2,0-21.7-0.1v1.8c7,0.1,20.9,0.1,39.6,0.1c-0.4,12.7-0.9,25.8-2.3,39.1
			c-17.4,0-30.6-0.1-37.3-0.1v1.8c8.9,0.1,29,0.1,55.3,0.2c0,0.6,0,1.1,0,1.7c0,1.9-0.1,3.8-0.1,5.7c-0.1,1.9-0.1,3.9-0.1,5.8
			c0,3.1,0.2,5.6,0.6,8c-26.4,0-46.8,0-55.7,0v1.7c5.9,0,16.9,0,31.3-0.1c0.5,5.1,1.6,10,2.7,14.8c1.1,4.9,2.3,10,2.8,15.2
			c-17.1,0-30.1,0-36.7,0v1.8c5.3,0,14.6,0,26.8,0c-0.1,1-0.3,2.1-0.3,3.2c0,4.6,1.1,9.3,2.1,13.8c0.6,2.4,1.1,4.8,1.5,7.1l2.8-0.3
			c-0.4-2.4-1-4.9-1.5-7.3c-1-4.4-2.1-8.9-2.1-13.3c0-1.1,0.1-2.2,0.3-3.2c13.6,0,30.4,0,49,0c0.8,4.1,1.4,8.2,1.9,12.2
			c0.5,4,1.1,8.2,1.9,12.4c-9.8,0-19.1,0-27.7,0c0,0,0,0,0,0l-0.2,0c-25.9,0-45.8,0-54.6,0v1.7c8.4,0,27.5,0,52.2,0
			c0.7,3.4,0.8,6.7,0.8,9.6l0,3.7c0,2.3,0,4.9,0.4,7.5c-25.3,0-44.8,0-53.3,0v1.7c13,0,50.7,0,95.8,0c-0.2,2.8-0.4,5.6-0.6,8.4
			c-0.4,5.3-0.8,10.8-0.8,16.2c0,1.4,0,2.8,0.1,4.2l2.8-0.1c-0.1-1.4-0.1-2.8-0.1-4.1c0-5.3,0.4-10.8,0.8-16.1
			c0.2-2.9,0.4-5.8,0.6-8.6c20.8,0,43.1,0,65.2,0c-0.3,4-0.4,8.3-0.4,13.7c0,2.6,0,5.2,0.1,7.8c0,2.6,0.1,5.2,0.1,7.8h2.8
			c0-2.6,0-5.2-0.1-7.8c0-2.6-0.1-5.2-0.1-7.8c0-5.5,0.1-9.8,0.5-13.7c27.4,0,54.4,0,77.6,0c0,1-0.1,2-0.1,3c0,2.9,0.1,5.7,0.2,8.5
			c0.1,2.8,0.2,5.6,0.2,8.4c0,3.6-0.2,6.6-0.5,9.5c-97.7-0.1-218.6-0.2-244-0.2v1.8c6.8,0.1,19.9,0.1,37.3,0.2l0,6.4
			c0,9.3-0.1,18.9,0.3,28.2c-17.6,0-30.9-0.1-37.6-0.1v1.7c9.9,0,34.4,0,66,0.1c1.1,4.1,1.3,8,1.3,11.1c0,1.9-0.1,3.9-0.1,5.8
			c-0.1,1.9-0.1,3.9-0.1,5.8c0,1.1,0,2.1,0.1,3.1c-32,0-57-0.1-67-0.1v1.8c3.9,0,10.1,0.1,18.1,0.1c0.9,3.9,1.3,7.9,1.7,11.8
			c0.4,4.7,0.9,9.7,2.3,14.5c-9.9,0-17.5,0-22.1,0v1.7c9,0,29.8,0,56.9,0.1c0.5,3,0.9,6,1.3,9c0.7,6,1.5,12.1,3.6,18.2
			c-29.5,0-52.3,0.1-61.8,0.1v1.7c11,0,39.8-0.1,76.4-0.1c-0.9,12.4-0.9,25.2-0.9,37.5h2.8c0-12.4,0-25.1,0.9-37.5
			c17.1,0,35.7,0,54.9-0.1c0,1.8-0.1,3.6-0.1,5.4c0,9.5,0.6,19.6,2,32.6c-62.6-0.1-119.4-0.1-136.1-0.2v1.7c5.7,0,16.3,0,30.2,0.1
			c0,0.8,0.1,1.6,0.1,2.5c0,3.4-0.2,6.9-0.4,10.2c-0.2,3.4-0.4,6.8-0.4,10.3c0,2.4,0.1,4.6,0.3,6.6l2.8-0.2c-0.2-2-0.3-4.1-0.3-6.4
			c0-3.4,0.2-6.9,0.4-10.2c0.2-3.4,0.4-6.9,0.4-10.4c0-0.8,0-1.6-0.1-2.5c16.9,0,38.2,0,61.9,0.1c-0.1,1.9-0.1,3.7-0.1,5.6
			c0,4.3,0.2,8.6,0.3,12.9c0.1,3.8,0.2,7.6,0.3,11.5c-45.4-0.1-82.5-0.1-95.4-0.2v1.8c4.5,0.1,11.6,0.1,20.9,0.1
			c0.5,3.3,1,6.7,1.5,10c1.3,9.6,2.6,19.6,6.6,29.1c-13.3,0-23.4-0.1-29-0.1v1.8c7.1,0.1,21.3,0.1,40,0.2c-0.2,2.4-0.4,4.8-0.4,7.4
			c0,4.1,0.3,8.6,0.9,13.7c-17.7,0-32.3,0-40.5,0v1.7c11.6,0,35.9-0.1,65.1-0.1c-0.1,3.1-0.3,6.2-0.5,9.3c-0.3,3.6-0.5,7.3-0.5,11
			c0,3.6,0.3,6.9,0.9,9.9c-29.3,0-53.5,0-65,0v1.8c47.3,0.1,314,0.2,336.4,0.3C653.8,598.9,725.7,599,737.2,599.1z M778.6,581.8
			c-0.5,5.2-0.9,10.3-1.4,15.8c-24.9-0.1-50.2-0.3-75.4-0.8c-0.5-5.2-1-10.1-1.5-15c-0.5-5-1-9.9-1.5-15.3l-3,0.1
			c0.5,5.4,1,10.4,1.5,15.3c0.5,4.8,1,9.6,1.5,14.8c-2.2,0-37.9-0.1-73.4-0.1c0.2-2.6,0.4-5.3,0.6-7.9c0.5-7.5,1-15.3,2.8-22.8
			c58.5-0.3,130.9-0.5,151.3-0.6C779.6,571.1,779.1,576.5,778.6,581.8z M547.8,564.7C547.8,564.7,547.8,564.7,547.8,564.7
			c-27.5,0-61.7,0.1-96.9,0.1c0.1-1.1,0.1-2.2,0.1-3.3c0-2.1-0.1-4.3-0.2-6.4c-0.1-2.1-0.2-4.2-0.2-6.3c0-1.7,0.1-3.3,0.3-4.7
			c22.6,0,44.8,0.1,65.2,0.1c-0.3,3.1-0.5,6.2-0.6,9.3c-0.1,3.5-0.2,7.1-0.7,10.7l2.8,0.3c0.5-3.6,0.6-7.3,0.7-10.9
			c0.1-3.1,0.2-6.2,0.6-9.3c23.1,0,43.8,0.1,59.6,0.1c-0.1,6.3-0.4,12.6-0.8,18.8l-0.1,1.5c-7.8,0-16.9,0-26.9,0c0,0,0,0,0,0H547.8z
			 M421.2,503.3c23,0.1,46.4,0.1,68.5,0.2c0.3,2.1,0.5,4.2,0.5,6.4c0,6-1.1,12.2-2.2,18.1c-0.9,4.6-1.7,9.5-2.1,14.3
			c-19,0-38.9-0.1-58.6-0.1c0-0.3,0.1-0.7,0.1-1C427.3,540.7,422.8,518.7,421.2,503.3z M428.2,469.4c-8.3,0-16.6,0-24.9,0l2.2-0.2
			c-1.4-12.9-2-22.9-2-32.4c0-1.8,0-3.6,0.1-5.5c22.2,0,45.1,0,67.2-0.1c0.1,3.7,0.2,7.4,0.2,11.1c0.1,8.9,0.2,18,1.4,27
			c-13.6,0-27.5,0-41.4,0c0,0,0,0,0-0.1L428.2,469.4C428.2,469.4,428.2,469.4,428.2,469.4z M359.6,396.8c0-3.9,0.3-7.9,0.5-11.7
			c0.2-3.4,0.4-7,0.5-10.5c24.3,0,50.9,0.1,77.2,0.1c0.5,3.8,0.6,7.5,0.6,11.3l0,2.5c0,4.1,0.1,8.2,0.7,12.4c-28,0-56.3,0-81.8-0.1
			l2.4-0.1C359.6,399.4,359.6,398.1,359.6,396.8z M411.7,419.4c0.5-3.6,1-7.3,1-11.1c0-2.1-0.2-3.9-0.5-5.8c23.4,0,47.4,0,70,0
			c0.5,3.6,0.8,7.5,0.8,11.9c0,3.7-0.3,8.5-0.5,12.7l-0.1,2.4c-23.2,0-47.7,0-71.6,0.1C410.8,426.2,411.2,422.9,411.7,419.4z
			 M441.2,388.4l0-2.5c0-3.8-0.1-7.5-0.6-11.3c29.3,0.1,57.9,0.1,82.1,0.2c0,8.5,0,17.3-0.5,25.9l2.8,0.1c0.4-8.6,0.5-17.4,0.5-26
			c34.3,0.1,59.3,0.1,63.8,0.2c1.8,0,3.7,0.1,5.7,0.1c0,0,0,0,0,0.1h0.3c0.3,2.2,0.7,8.3,0.7,12c0,4.2-0.2,9.8-0.4,13.9
			c-6,0-15.2,0-27-0.1c0,0,0,0,0,0l-0.3,0c-31.2,0-79.6-0.1-128.8-0.1l2.4-0.3C441.2,396.5,441.2,392.5,441.2,388.4z M506.2,346.9
			c26.4,0,49.4,0,65.3,0c0.3,3.9,0.4,7.8,0.4,11.4l0,7.1c0,2.5,0,5,0.2,7.5c-15.4,0-39.3-0.1-67.2-0.1c0.2-2.9,0.4-5.7,0.6-8.6
			c0.4-4.8,0.8-9.7,0.8-14.6C506.3,348.7,506.3,347.8,506.2,346.9z M513.9,290.9c-0.1-2.8-0.2-5.6-0.2-8.4c0-1,0-2,0.1-3
			c27.8,0,49.9,0,60.5,0c0,3.8-0.1,7.5-0.3,11.3c-0.2,4.2-0.3,8.3-0.3,12.5c0,1.9,0,3.8,0.1,5.6c-18,0-38.5,0-60.2-0.1
			c0.3-2.9,0.5-5.9,0.5-9.5C514,296.5,513.9,293.7,513.9,290.9z M512,228.6c-22.3,0-48.7,0-75.8,0v-30.2c28.1,0,55.8,0,79.6-0.1
			c-1.4,4.9-1.6,9.9-1.9,14.8c-0.2,5.1-0.5,10.4-2.1,15.5L512,228.6z M324.5,188.8c0-1.9,0.1-3.8,0.1-5.7c0.1-1.9,0.1-3.8,0.1-5.7
			c0-0.6,0-1.1,0-1.7c17.1,0,36.6,0.1,57.1,0.1c0,1-0.1,2-0.1,3c0,3,0.1,5.9,0.3,8.9c0.1,2.9,0.3,5.9,0.3,8.9h2.8
			c0-3.1-0.2-6.1-0.3-9c-0.1-2.9-0.3-5.8-0.3-8.8c0-1,0-2,0.1-3c23.4,0,48.1,0.1,71.8,0.1c-0.1,3.8-0.5,7.8-1,11.7
			c-0.4,3-0.8,6.1-1,9.1l2,0.1c-45.4,0-94.1,0-131.4,0.1l0.1,0C324.7,194.5,324.5,192,324.5,188.8z M408.9,133
			c-26.2,0-51.6-0.1-73.8-0.1c-0.6-4.7-1.5-9.3-2.4-13.8c-1-5.3-2-10.7-2.6-16.2c23.8,0,51.8,0,80.5,0.1c-0.1,1.4-0.3,3.5-0.4,7.1
			C409.9,118,409.3,129.9,408.9,133L408.9,133z M359.3,101.3l1.8-0.1c-0.2-3-0.3-6.2-0.3-9.8c0-4.9,0.2-9.9,0.4-14.8
			c0.2-4.3,0.3-8.8,0.4-13.2c20.5,0,42.5,0,64.3,0c-0.2,5.5-0.3,10.6-0.3,15.3c0,7.9,0.3,15.3,0.8,22.6c-4.3,0-8.7,0-13,0
			c-0.2-0.3-0.5-0.6-1.2-0.6c-0.6-0.1-0.9,0-1.2,0.6C393.2,101.4,375.7,101.3,359.3,101.3z M500.1,63.4c0,12.3,0,25.1,1.4,38
			l2.8-0.2c-1.4-12.8-1.4-25.5-1.4-37.8c39.3,0,68.5-0.1,71.8-0.1c9.6-0.1,21.7-0.1,34.7-0.2c-1.2,7.4-1.6,15-2,22.3
			c-0.3,5.3-0.5,10.7-1.1,16.1l0.7,0.1c-2.4,0-4.8,0-7.1,0c-10.8-0.1-91.2-0.1-170.9-0.2c-0.5-7.3-0.8-14.7-0.8-22.6
			c0-4.7,0.1-9.8,0.3-15.3C453.7,63.4,478.3,63.4,500.1,63.4z M450,61.7c0-7.2,0.8-14.7,1.6-22c0.2-1.7,0.4-3.5,0.6-5.2
			c48.1,0,91.6,0,110.7,0c-0.2,2.8-0.3,5.7-0.5,8.5c-0.4,6.1-0.8,12.4-0.9,18.6C539.8,61.6,496.8,61.6,450,61.7z M654.6,34.8
			c33.5,0.1,63.7,0.3,69.1,0.4c0.6,5.2,0.6,10.5,0.7,15.5c0,3.4,0.1,6.8,0.3,10.3c-1.5,0-3.1,0-4.6,0c-5,0-34.5,0.1-67.3,0.2
			c0.2-3.2,0.5-6.5,0.9-9.6c0.5-4.8,1-9.8,1-14.6C654.7,36.2,654.6,35.5,654.6,34.8z M699.4,62.8c-0.5,6.5-1.4,12.9-2.2,19.2
			c-0.9,6.5-1.8,13.2-2.3,19.9c-27.2-0.1-58.8-0.1-85.6-0.3c0.6-5.4,0.8-10.8,1.1-16.1c0.4-7.4,0.8-15.1,2-22.5
			C642.6,63,677.5,62.9,699.4,62.8z M724.6,134.2c-6.8-0.2-50.5-0.5-92.2-0.7c0.2-4.4,0.7-8.9,1.1-13.2c0.6-5.5,1.1-11.3,1.2-17
			c40.8,0.1,82.8,0.2,89,0.3c0.4,2.8,0.6,5.9,0.6,9.6c0,2,0,4-0.1,6c0,2-0.1,4-0.1,6C724.1,128.7,724.3,131.6,724.6,134.2z
			 M761.6,156.5c0.5,6.2,1,12.4,1.5,18.9c-9.8-0.1-39.9-0.2-74.4-0.4c0.6-4.5,1.2-9.1,1.8-13.6c1.1-8.4,2.2-17.1,3.6-25.6
			c24.1,0.5,46.7,0.9,67.4,1.3l-1.3,0C760.6,143.9,761.1,150.2,761.6,156.5z M871.9,175.4c-7.8,0-15.7,0-23.5,0.1
			c-15.6,0.1-31.2,0.1-46.8,0.1c-11.6,0-23.5,0-35.4-0.1c-0.5-6.6-1-12.8-1.5-19c-0.5-6.3-1-12.6-1.5-19.3c30,0.6,55.8,1.1,75.5,1.5
			c11.6,0.2,23.4,0.5,35.1,0.7c-1.4,8.9-2.1,18.4-2.1,28.3C871.7,170.3,871.8,172.9,871.9,175.4z M801.5,177.3c5.6,0,11.3,0,16.9,0
			c-0.1,1.8-0.2,3.8-0.2,6c0,2.2,0.1,4.5,0.1,6.7c0,1.9,0.1,3.7,0.1,5.6c-2.9,0-5.8,0-8.7,0c-32,0-62.6,0.2-92.6,0.7
			c-0.2-3.1-0.3-6.1-0.3-9.2c0-3.3,0.1-6.6,0.4-9.9C754.9,177.3,787.7,177.3,801.5,177.3z M895.8,197.8c0.1,1.3,0.1,2.5,0.1,3.8
			c0,5.2-0.4,10.5-0.8,15.6c-0.3,4.4-0.6,8.9-0.7,13.3c-32-0.6-63.9-0.7-95.2-0.8c-6.3,0-12.6,0-19-0.1c0.5-5.5,0.9-10.6,1.4-15.8
			c0.5-5.4,1-10.8,1.5-16.6c8.8,0,17.7-0.1,26.7-0.1C837.6,197.3,866.1,197.5,895.8,197.8z M804.5,279.6c-0.9,0-1.9,0-2.8,0
			c0.5-6.8,1.1-13.8,3.3-20.4l-2.9-0.3c-2.3,6.7-2.9,13.8-3.4,20.7c-2,0-4-0.1-5.9-0.1c-28.1-0.4-56.8-0.8-85.4-1.4
			c0.1-1.7,0.2-3.3,0.2-5c0.2-5.4,0.3-10.9,1.7-16.2c26.7,0.2,53.8,0.9,80,1.6c5.9,0.2,11.8,0.3,17.8,0.5c-0.3,2-0.6,4.1-1,6.1
			c-0.8,4.7-1.6,9.5-1.6,14.2C804.4,279.3,804.5,279.4,804.5,279.6z M711.7,309.3c-3-0.1-21.4-0.2-44.8-0.2v-29.4
			c23.4,0.1,41.9,0.1,44.8,0.2c-0.3,5.3-0.4,10.4-0.4,15.5C711.4,300,711.5,304.6,711.7,309.3z M644.6,277.8c0-0.3,0-0.6,0-0.8
			c0-2.9,0.4-5.9,0.8-8.9c0.4-3,0.8-6.1,0.8-9.2c0-0.7-0.1-1.5-0.1-2.2c26.5,0,48.7,0,50.1,0c3.3,0,6.7,0,10,0.1
			c-1.4,5.4-1.5,10.9-1.7,16.2c0,1.7-0.1,3.3-0.2,5C701.7,277.9,674.9,277.9,644.6,277.8z M664.1,279.7V309
			c-8.4,0-17.4-0.1-26.5-0.1c-8.5,0-31-0.1-61-0.1c-0.1-1.9-0.1-3.8-0.1-5.6c0-4.1,0.2-8.3,0.3-12.4c0.1-3.8,0.3-7.6,0.3-11.4
			c1.7,0,2.9,0,3.6,0C603.6,279.5,636.8,279.6,664.1,279.7z M737.2,255.4c-13.7-0.3-27.4-0.4-41-0.4c-1.1,0-13.8,0-31.3,0
			c2.8-8,3.8-16.3,4.2-24.1c32.7,0.1,61.2,0.2,68.1,0.2V255.4z M601.2,196.6c-4.3,0-8.4,0-12.3,0c-4.3,0-23.6,0-50.9,0
			c1.7-6.9,2.6-13.9,3.5-20.7c26.2,0.1,44.4,0.1,48,0.2c9.6,0.1,20.4,0.3,31.8,0.4c0.2,1.6,0.4,3.2,0.4,5.1c0,2.7-0.3,5.5-0.5,8.2
			c-0.2,2.2-0.4,4.5-0.4,6.8c-5.7,0-11.2,0-16.6,0c0,0,0-0.1,0-0.1L601.2,196.6C601.2,196.6,601.2,196.6,601.2,196.6z M476.8,116.4
			c-0.1-2.5-0.2-5.1-0.2-7.6c0-2.1,0.1-4,0.2-5.7c23.9,0,46.5,0,65.6,0c-0.3,2.5-0.4,5.3-0.4,8.5c0,2,0,4,0.1,6c0,2,0.1,4,0.1,6
			c0,2.7-0.2,6.9-0.4,8.8h-0.2c0,0.4,0,0.6,0,0.8c-19,0-41.5,0-65.2-0.1c0.4-2.7,0.5-5.6,0.5-9C477,121.5,476.9,119,476.8,116.4z
			 M591,135c-1.4,7.3-1.8,14.9-2.1,22.2c-0.3,5.6-0.6,11.4-1.3,17.2c-6.3,0-23.9-0.1-48.1-0.1l-0.7-0.1l0,0.1c-10.6,0-22.4,0-35-0.1
			c0-3.5,0-7,0.1-10.4c0-3.5,0.1-6.9,0.1-10.4c0-6.1-0.1-11.7-0.5-18.4C535.3,134.9,565.7,135,591,135z M545,117.6c0-2-0.1-4-0.1-6
			c0-3.3,0.2-6,0.4-8.5c28.3,0,48.7,0,54,0.1c10.2,0,21.3,0.1,32.6,0.1c-0.1,5.7-0.6,11.3-1.2,16.8c-0.4,4.4-0.9,8.9-1.1,13.4
			c-11-0.1-21.8-0.1-31.7-0.2c-5.2,0-25.3-0.1-53.3-0.1c0.3-1.4,0.4-4.2,0.4-9.6C545,121.6,545,119.6,545,117.6z M714.2,196.3
			c-5.2,0.1-49.7,0.2-90.7,0.3c0.1-2.2,0.2-4.4,0.4-6.6c0.2-2.7,0.5-5.5,0.5-8.3c0-1.8-0.1-3.5-0.4-5.1c28.4,0.3,60.6,0.4,90.2,0.5
			c-0.2,3.3-0.4,6.6-0.4,9.9C713.9,190.1,714,193.2,714.2,196.3z M685.8,175c-32.5-0.2-68.6-0.4-95.4-0.7c0.7-5.7,1-11.5,1.3-17.1
			c0.4-7.4,0.8-14.9,2.2-22.3c35.4,0,60.4,0.1,65,0.2c11,0.2,21.8,0.4,32.4,0.6c-1.4,8.4-2.5,17-3.6,25.4
			C687.1,165.8,686.5,170.5,685.8,175z M538.6,176.1c-0.9,6.8-1.8,13.8-3.5,20.7c-22.2,0-49.3,0-77.7,0c0.2-2.9,0.6-6,1-8.9
			c0.5-3.9,1-8,1.1-11.9C488.5,176,516.2,176,538.6,176.1z M604.2,202.1c0-1.3,0-2.6-0.1-4c5.3,0,10.8-0.1,16.5-0.1
			c0,0.1,0,0.1,0,0.2h2.8c0-0.1,0-0.1,0-0.2c22.9-0.1,48.2-0.2,72-0.3c0.5,5.4,1.4,11.5,1.9,16.4c0.5,4.8,1,9.6,1.5,14.8
			c-2.7,0-56.1-0.1-97.4-0.2C603.2,219.9,604.2,210.9,604.2,202.1z M701.7,228.9c-0.5-5.2-1-10.1-1.5-15c-0.5-4.9-1.4-11-1.9-16.3
			c36.7-0.1,69.1-0.2,81.7-0.3c-0.5,5.7-1,11.1-1.5,16.5c-0.5,5.2-0.9,10.3-1.4,15.8C752.2,229.5,727,229.3,701.7,228.9z
			 M650.8,51.3c-0.3,3.3-0.7,6.6-0.9,9.9c-13,0-26.5,0.1-39.1,0.2l-1.1-0.1c0,0,0,0.1,0,0.1c-5,0-9.9,0-14.5,0.1
			c0.5-4.6,1.3-9.3,2-13.9c0.7-4.2,1.4-8.6,1.9-12.9c16.2,0.1,34.8,0.1,52.7,0.2c0,0.7,0.1,1.4,0.1,2.1
			C651.8,41.7,651.3,46.6,650.8,51.3z M594.4,47.2c-0.8,4.7-1.6,9.5-2.1,14.2c-6,0-11.6,0.1-16.6,0.1c-1.2,0-5.2,0-11.5,0
			c0-6.1,0.4-12.4,0.9-18.4c0.2-2.9,0.4-5.8,0.5-8.7c3.9,0,6.4,0,7.2,0c6.7,0,14.7,0.1,23.4,0.1C595.8,38.8,595.1,43.1,594.4,47.2z
			 M448.8,39.4c-0.8,7.3-1.6,14.9-1.6,22.2c-33.3,0-68.3,0-98.8,0.1c-0.7-5.4-0.8-10.7-0.9-16c0-3.7-0.1-7.5-0.4-11.4
			c31.5,0,68,0,102.3,0C449.1,36.1,448.9,37.8,448.8,39.4z M413.1,110.2c0.1-3,0.3-5.8,0.4-7.2c20.2,0,40.8,0,60.5,0
			c-0.1,1.8-0.2,3.6-0.2,5.7c0,2.6,0.1,5.1,0.2,7.7c0.1,2.5,0.2,5.1,0.2,7.6c0,3.4-0.2,6.3-0.5,8.9l0.8,0.1c-20.4,0-41.7,0-62.7-0.1
			C412.1,129.5,412.7,118.4,413.1,110.2z M428.7,154.2c0.3-6.5,0.7-12.9,0.9-19.3c23.5,0,47.7,0,71,0c0.4,6.7,0.5,12.3,0.5,18.4
			c0,3.4,0,6.9-0.1,10.4c0,3.5-0.1,6.9-0.1,10.4c-22.8,0-48-0.1-73.3-0.1C428,167.5,428.3,160.8,428.7,154.2z M516.8,213.2
			c0.2-4.9,0.5-10,1.9-14.9c36.7,0,63.6-0.1,67.8-0.1c4.6,0,9.5-0.1,14.7-0.1c0,1.3,0.1,2.6,0.1,3.9c0,8.9-1,17.8-2.9,26.6
			c-8.9,0-17.2,0-24.2,0c-3.1,0-26.6,0-59.5,0C516.3,223.5,516.6,218.3,516.8,213.2z M587.5,242.7c0.3-4,0.7-8,0.9-12.1
			c22.2,0.1,51.2,0.2,77.9,0.3c-0.5,7.9-1.4,16.1-4.3,24.1c-22.9,0-52.7,0-75.4,0C586.8,250.8,587.2,246.8,587.5,242.7z
			 M643.3,256.7c0.1,0.7,0.1,1.5,0.1,2.2c0,2.9-0.4,6-0.8,8.9c-0.4,3-0.8,6.1-0.8,9.1c0,0.3,0,0.6,0,0.8c-21.4,0-44.2-0.1-61.3-0.1
			c-2.2,0-11.1,0-24.5,0c0.1-0.6,1-11.2,2.5-20.9c10.4,0,17.2,0,19,0C595.5,256.7,620.7,256.7,643.3,256.7z M599,311.4
			c0.9,4.1,1.4,8.5,1.4,13.9c0,3.6-0.2,7.2-0.4,10.7c-0.2,3.1-0.3,6.4-0.3,9.6c-2.4,0-4.7,0-6.9-0.1c-2.3,0-8.8,0-18.4-0.1
			c0-0.1,0-0.1,0-0.2l-2.8,0.2c-9.7,0-22.1,0-36.5-0.1c-0.9-12-1.8-22.9-3.1-34.2C557.4,311.2,580.6,311.3,599,311.4z M641.9,347.1
			c33.4,0.1,64.2,0.2,67.8,0.3c0,8.9,0.5,17.3,0.9,26.3c-3.9-0.2-36.1-0.3-70.5-0.5c1.1-5.7,2.2-12.2,2.2-18.9
			C642.4,351.8,642.2,349.5,641.9,347.1z M724.6,502.3c-4.8-0.2-27.8-0.3-55.5-0.5c0-0.9-0.1-1.8-0.1-2.7c0-5.3,0.6-10.9,1.1-16.3
			c0.4-3.7,0.8-7.6,1-11.3c26.6,0.1,48.3,0.1,52.7,0.2c0.4,2.8,0.6,5.9,0.6,9.6c0,2,0,4-0.1,6c0,2-0.1,4-0.1,6
			C724.1,496.7,724.3,499.6,724.6,502.3z M871.9,543.4c-7.8,0-15.7,0-23.5,0.1c-15.6,0.1-31.2,0.1-46.8,0.1c-11.6,0-23.5,0-35.4-0.1
			c-0.5-6.6-1-12.8-1.5-19c-0.5-6.1-1-12.2-1.5-18.7c32.5,0.3,60.2,0.7,75.5,1c11.6,0.2,23.4,0.5,35.1,0.7
			c-1.4,8.9-2.1,18.4-2.1,28.3C871.7,538.3,871.8,540.9,871.9,543.4z M801.5,545.4c5.6,0,11.3,0,16.9,0c-0.1,1.8-0.2,3.8-0.2,6
			c0,2.2,0.1,4.5,0.1,6.7c0,1.9,0.1,3.7,0.1,5.6c-2.9,0-5.8,0-8.7,0c-32,0-62.6,0.2-92.6,0.7c-0.2-3.1-0.3-6.1-0.3-9.2
			c0-3.3,0.1-6.6,0.4-9.9C754.9,545.3,787.7,545.4,801.5,545.4z M618.9,542.6c0.6-4.1,1.4-8.3,2.1-12.3c1.6-8.5,3.2-17.3,3.3-26.1
			c22.5,0.3,47.4,0.6,72.4,0.9c0,0.6,0,1.2,0,1.8c0,9.5-1.4,18.8-2.9,28.6c-0.4,2.4-0.7,4.8-1.1,7.3l2.8,0.3
			c0.3-2.4,0.7-4.8,1.1-7.3c1.4-9.4,2.9-19.2,2.9-28.9c0-0.6,0-1.2,0-1.8c20.8,0.2,41.5,0.4,60.6,0.7c0.5,6.5,1,12.7,1.5,18.8
			c0.5,6.2,1,12.4,1.5,18.9C746.8,543.3,674.8,543.1,618.9,542.6z M714.2,564.3c-3.7,0.1-27,0.1-54.8,0.2c0.2-2.2,0.6-4.5,1-6.9
			c0.6-3.1,1.2-6.4,1.2-9.6c0-1.1-0.2-2.1-0.3-3.1c17.7,0.1,35.8,0.2,52.9,0.3c-0.2,3.3-0.4,6.6-0.4,9.9
			C713.9,558.1,714,561.3,714.2,564.3z M583.6,501.3c-18.4,0-45.2-0.1-75.6-0.1c-0.4-2.9-0.5-6-0.5-9.6c0-3.5,0.2-7.1,0.3-10.6
			c0.1-3.3,0.3-6.6,0.3-9.9c32.5,0,60.7,0,78.9,0.1c-0.4,3.5-0.9,7-1.5,10.4c-0.9,5.3-1.9,10.8-1.9,16.3
			C583.5,499,583.5,500.2,583.6,501.3z M543.5,542.4c-16.6,0-35.1-0.1-54.7-0.1c0.4-4.7,1.2-9.4,2-13.9c1.1-6,2.3-12.3,2.3-18.5
			c0-2.3-0.2-4.4-0.5-6.4c18.5,0.1,36,0.1,51.5,0.2c-0.1,0.9-0.1,2-0.1,3.5c0,4.6-0.2,9.3-0.4,13.8c-0.2,4.5-0.4,9.2-0.4,13.9
			C543.3,537.5,543.3,540,543.5,542.4z M568.7,402.6c16.8,0,28.5,0,32.5,0c16.6,0.1,35.4,0.1,53.3,0.2c0,0.8-0.1,1.7-0.1,2.5
			c0,2.3,0.1,4.6,0.1,7c0.1,2.3,0.1,4.7,0.1,7c0,3.3-0.1,6.9-0.4,9.9c-16.9,0.1-34.8,0.1-50.8,0.2c-4.6,0-18.6,0-38.3,0.1
			c0-0.9-0.1-2-0.1-2.5c0-3.6,1-7.3,1.9-10.8c1-3.6,1.9-7.4,1.9-11.2C568.9,404.2,568.8,403.4,568.7,402.6z M626.7,431.1
			c0,12.6,0,25.6-1.8,38.7c-6.6,0-13-0.1-19.1-0.1c-5.4,0-24.8-0.1-51.8-0.1c0.1-2.1,0.1-4.2,0.2-6.3c0.3-10.8,0.7-21.9,2.4-32
			c24.2,0,41.4-0.1,46.6-0.1C610.7,431.1,618.6,431.1,626.7,431.1z M564.2,415.7c-1,3.7-2,7.4-2,11.3c0,0.5,0,1.6,0.1,2.5
			c-21,0-48,0.1-77.2,0.1l0.1-2.3c0.2-4.3,0.5-9.1,0.5-12.9c0-4.4-0.3-8.3-0.8-11.9c31.1,0,59.6,0,80.8,0.1c0.1,0.8,0.2,1.5,0.2,2.3
			C566.1,408.6,565.2,412,564.2,415.7z M553.7,431.3c-1.7,10.2-2.1,21.2-2.4,32c-0.1,2.1-0.1,4.2-0.2,6.3c-21.7,0-48-0.1-75.9-0.1
			c-1.3-9-1.4-18.2-1.4-27.1c0-3.7-0.1-7.4-0.2-11.1C503.3,431.3,531.3,431.3,553.7,431.3z M588.2,481.9c0.6-3.5,1.2-7.1,1.6-10.7
			c8.1,0,13.9,0,16.6,0c19.7,0.1,42,0.1,61.8,0.2c-0.2,3.7-0.6,7.5-0.9,11.1c-0.6,5.4-1.1,11-1.1,16.5c0,0.9,0,1.8,0.1,2.7
			c-18.9-0.1-39.8-0.2-58.4-0.4c-3.3,0-10.8,0-21.3-0.1c-0.1-1.2-0.2-2.3-0.2-3.5C586.3,492.6,587.3,487.2,588.2,481.9z
			 M706.7,453.1c-0.6,4.7-1.2,9.6-1.2,14.4c0,0.8,0,1.6,0.1,2.5c-23.6,0-51.9-0.1-77.9-0.2c1.8-13.1,1.8-26.1,1.8-38.7
			c29.6-0.1,60.5-0.2,77.6-0.2c0.5,2.5,0.7,5.1,0.7,8C707.9,443.5,707.3,448.4,706.7,453.1z M657.2,429.2c0.4-3,0.4-6.6,0.4-9.9
			c0-2.3-0.1-4.7-0.1-7c-0.1-2.3-0.1-4.6-0.1-6.9c0-0.8,0-1.7,0.1-2.5c32.4,0.1,61,0.3,66.3,0.4c0.6,5.2,0.6,10.5,0.7,15.5
			c0,3.4,0.1,6.8,0.3,10.3c-1.5,0-3.1,0-4.6,0C715.3,429,688.3,429.1,657.2,429.2z M688.3,386.1c-0.5,4.3-1.1,10.1-1.1,15.6
			c-3.7,0-7.5-0.1-11.3-0.1c0.3-2.7,0.9-5.5,1.5-8.2c0.9-4,1.8-8.1,1.8-12.3c0-1.8-0.2-3.4-0.6-5c3.4,0,6.7,0.1,10,0.1
			c0,0.5,0,1,0,1.5c0,1,0.1,2,0.1,3.1C688.7,381.8,688.5,383.7,688.3,386.1z M675.7,376.1c0.4,1.6,0.6,3.2,0.6,5
			c0,3.9-0.9,7.9-1.7,11.8c-0.6,2.8-1.2,5.7-1.5,8.6c-5.2,0-10.4-0.1-15.7-0.1c0-0.1,0-0.2,0-0.2l-2.8-0.1c0,0.1,0,0.2,0,0.3
			c-18.4-0.1-36.8-0.2-52.9-0.3c-0.8,0-1.9,0-3.2,0c0.2-4,0.4-9.6,0.4-13.9c0-6.5-0.3-10-0.7-12
			C621.1,375.5,649.3,375.8,675.7,376.1z M637.3,373.2c-13.8-0.1-27.9-0.2-40.4-0.2c-0.1,0-0.2,0-0.4,0c-0.1,0-0.2,0-0.4,0
			c-2.3,0-4.6,0-6.8,0c-2,0-7,0-14.5,0c-0.1-2.5-0.2-5-0.2-7.5l0-7.1c0-3.6-0.1-7.4-0.4-11.4c9.6,0,16.2,0,18.7,0
			c14,0.1,30.2,0.1,46,0.2c0.3,2.3,0.5,4.6,0.5,7.1C639.6,361,638.5,367.5,637.3,373.2z M505.2,471.1c0,3.2-0.1,6.5-0.3,9.8
			c-0.2,3.5-0.3,7.1-0.3,10.7c0,3.6,0.2,6.7,0.5,9.6c-22.5,0-46.8-0.1-71.1-0.1c-1.3-9.6-2.7-20.4-2.9-30
			C456.4,471.1,481.9,471.1,505.2,471.1z M448,544.1c-0.1,1.5-0.2,3-0.2,4.7c0,2.1,0.1,4.3,0.2,6.4c0.1,2.1,0.2,4.2,0.2,6.3
			c0,1.1,0,2.1-0.1,3.2l2.8,0.1l0,0l0,0l0,0c-26.1,0-52.7,0-77.4,0c0.5-3.6,1.3-7.2,2-10.6c0.7-3.3,1.5-6.8,2-10.2
			C400.1,544,424.2,544,448,544.1z M546.3,542.4c-0.1-2.4-0.2-4.8-0.2-7.6c0-4.6,0.2-9.3,0.4-13.8c0.2-4.5,0.4-9.2,0.4-13.9
			c0-1.9,0-2.9,0.1-3.5c32.3,0.1,55.9,0.2,61.7,0.3c4.1,0.1,8.4,0.1,12.7,0.2c-0.1,8.7-1.7,17.4-3.3,25.8c-0.8,4.2-1.6,8.4-2.2,12.7
			c-2,0-3.9,0-5.8,0C603.6,542.5,579.3,542.4,546.3,542.4z M580.5,563.3c0.4-6.2,0.8-12.6,0.8-18.9c14.5,0,24.7,0.1,28.4,0.1
			c15,0.2,31.7,0.3,48.8,0.4c0.2,1,0.3,2,0.3,3.1c0,3-0.6,6.2-1.2,9.2c-0.4,2.4-0.9,4.9-1.1,7.3c-8.9,0-18.2,0-27.5,0.1
			c0,0,0,0,0-0.1l-2.8-0.5c-0.1,0.2-0.1,0.4-0.1,0.6c-6.9,0-13.7,0-20.2,0.1c-3.7,0-12.7,0-25.5,0L580.5,563.3z M895.1,585.3
			c-0.3,4.4-0.6,8.9-0.7,13.3c-32-0.6-63.9-0.7-95.2-0.8c-6.3,0-12.6,0-19-0.1c0.5-5.5,0.9-10.6,1.4-15.8c0.5-5.4,1-10.8,1.5-16.6
			c8.8,0,17.7-0.1,26.7-0.1c27.8,0,56.3,0.2,86,0.6c0.1,1.3,0.1,2.5,0.1,3.8C895.9,574.9,895.5,580.2,895.1,585.3z M895,545.1
			c7.4,0,14.5,0,21.2,0c0,6.3,0,12.9-0.5,19.2c-32.8-0.5-64-0.8-94.4-0.8c0-1.9,0-3.7-0.1-5.6c-0.1-2.2-0.1-4.4-0.1-6.7
			c0-2.2,0.1-4.2,0.2-6c9,0,17.9,0,26.9-0.1C863.9,545.2,879.5,545.1,895,545.1z M814.9,471.4c19.4-0.1,39.6-0.3,59.3-0.3
			c16.3,0,31.1,0.1,45,0.3c0,8.2-0.4,16.4-0.9,24.3c-0.2,3.6-0.4,7.3-0.5,11c-26.6-0.7-53.1-1.2-79.1-1.8
			c-5.6-0.1-11.2-0.2-16.8-0.3c-0.1-3.1-0.2-6.5-0.2-10.3c0-3.8,0.1-7.7,0.1-11.5c0.1-3.8,0.1-7.6,0.1-11.4h-3
			c0,3.8-0.1,7.5-0.1,11.3c-0.1,3.8-0.1,7.7-0.1,11.5c0,3.8,0.1,7.2,0.2,10.2c-30.2-0.6-60.8-1.3-91.3-2.3c-0.3-2.7-0.5-5.6-0.5-9.1
			c0-2,0-4,0.1-6c0-2,0.1-4,0.1-6c0-3.7-0.2-6.8-0.5-9.6c10.2,0.1,19.8,0.1,28.8,0.1C775.3,471.7,795.4,471.6,814.9,471.4z
			 M788.3,468.4l0.2,1.5c-11,0.1-22,0.1-32.9,0.1c-6,0-24.1,0-47.1,0c0-0.8-0.1-1.6-0.1-2.5c0-4.7,0.6-9.5,1.2-14.2
			c0.6-4.7,1.2-9.7,1.2-14.5c0-2.9-0.3-5.5-0.7-8c5.1,0,8.6,0,10,0c21.7,0,43.8,1.1,66.5,2.7l-2.1,0.1
			C785.5,445.3,786.9,456.5,788.3,468.4z M727.7,429.1c-0.2-3.5-0.2-6.9-0.3-10.3c-0.1-5-0.1-10.2-0.7-15.4
			c33.2,0.9,66.3,2.2,99.2,3.5c0.2,4,0.6,8,0.9,11.9c0.5,5.3,0.9,10.8,1,16.2C793.1,432.1,760,429.5,727.7,429.1z M857.9,408.3
			c20.6,0.9,41,1.9,61.3,2.8c5.1,0.2,10.1,0.5,15.2,0.7h-2.2c0,6.8,0.5,13.9,0.9,20.7c0.2,3.1,0.4,6.1,0.5,9.1
			c-34.2-0.7-68.9-3.6-102.7-6.4c0,0-0.1,0-0.1,0c-0.1-5.6-0.6-11.2-1-16.6c-0.3-3.8-0.7-7.7-0.9-11.6c8.7,0.4,17.3,0.7,25.9,1.1
			c0,0.1,0,0.1,0,0.2L857.9,408.3C857.9,408.3,857.9,408.3,857.9,408.3z M791.1,378.1c0,0.1,0,0.2,0,0.3l3,0.1c0-0.1,0-0.2,0-0.3
			c21.2,0.5,42.3,1,63.3,1.4c-0.2,4.1-0.7,8.2-1.2,12.2c-0.6,4.8-1.1,9.7-1.3,14.6c-32.8-1.5-65.9-2.8-99.1-3.9
			c1.3-8.3,2.7-16.8,3.6-25.3C770,377.6,780.6,377.9,791.1,378.1z M756.5,377.2c-0.9,8.4-2.3,17-3.6,25.3c-8-0.3-33-0.5-62.8-0.7
			c0-5.4,0.6-11.2,1.1-15.4c0.3-2.5,0.5-4.4,0.5-5.5c0-1,0-2.1-0.1-3.1c0-0.5,0-0.9,0-1.4C722.1,376.6,748,376.9,756.5,377.2z
			 M744.6,346.5c-13.5-0.2-89.6-0.6-142.1-0.9c0-3.2,0.2-6.4,0.3-9.5c0.2-3.5,0.4-7.2,0.4-10.8c0-5.3-0.4-9.8-1.3-13.9
			c17.6,0.1,30.4,0.1,36.2,0.2c13.4,0.1,27.5,0.3,41.6,0.4c0,1.1-0.1,2.2-0.1,3.3c0,4.2,0.2,8.3,0.3,12.5c0.2,4.1,0.3,8.3,0.3,12.4
			c0,1.8,0,3.6-0.1,5.4l2.8,0.1c0.1-1.8,0.1-3.7,0.1-5.5c0-4.2-0.2-8.3-0.3-12.5c-0.2-4.1-0.3-8.3-0.3-12.4c0-1.1,0-2.2,0.1-3.3
			c21.4,0.2,42.8,0.4,62.2,0.6c-0.4,4.6-0.6,9.4-0.6,14.9C744.1,334,744.3,340.3,744.6,346.5z M714.7,309.4c-0.2-4.7-0.3-9.4-0.3-14
			c0-5.1,0.1-10.2,0.4-15.5c20.4,0.4,40.7,0.7,60.9,1v30C755.4,310.4,735,309.9,714.7,309.4z M823,313.8c0,11-0.5,22.2-1.4,33.3
			c-4.5,0-9.1,0.1-13.6,0.1c-20,0-40.2-0.2-60.4-0.6c-0.3-6.2-0.5-12.6-0.5-19c0-5.5,0.2-10.3,0.6-14.9c28.9,0.3,52.9,0.6,65.3,0.9
			c4.2,0.1,8.5,0.2,12.8,0.3H823z M807.5,281.6c0-0.1,0-0.1,0-0.2c17.2,0.2,34.5,0.5,51.9,0.8c-0.5,5.2-0.9,10.5-1.2,15.8
			c-0.3,5-0.7,9.9-1.2,14.8c-14.7-0.3-29.4-0.7-43.9-1c-11.4-0.3-22.9-0.5-34.5-0.8v-30c4.7,0.1,9.4,0.1,14.1,0.2
			c2,0,3.9,0.1,5.9,0.1c0,0,0,0,0,0l3,0.1c0,0,0,0,0-0.1c1,0,2,0,3,0c0,0.1,0,0.2,0,0.3L807.5,281.6z M923.7,232.9
			c-0.4,3.3-0.6,6.7-0.8,9.9c-0.3,4.9-0.7,10-1.5,14.9c-12.3,0.3-25.2,0.5-38.9,0.5c-16.4,0-33-0.2-49.4-0.6
			c0.4-5.5,1.6-11.2,2.7-16.7c0.6-3,1.2-6,1.7-8.9l-3-0.2c-0.5,2.9-1.1,5.9-1.7,8.9c-1.1,5.5-2.2,11.3-2.7,16.9
			c-13.7-0.3-27.3-0.6-40.7-1c-16.2-0.4-32.7-0.9-49.2-1.2v-24.3c19.8,0.2,39.5,0.3,59,0.3c31.3,0.1,63.2,0.3,95.2,0.8
			c0,0.2,0,0.4,0,0.6h3c0-0.2,0-0.4,0-0.5C906.1,232.5,914.9,232.7,923.7,232.9z M895,177.1c7.4,0,14.5,0,21.2,0
			c0,6.3,0,12.9-0.5,19.2c-32.8-0.5-64-0.8-94.4-0.8c0-1.9,0-3.7-0.1-5.6c-0.1-2.2-0.1-4.4-0.1-6.7c0-2.2,0.1-4.2,0.2-6
			c9,0,17.9,0,26.9-0.1C863.9,177.2,879.5,177.1,895,177.1z M814.9,103.4c19.4-0.1,39.6-0.3,59.3-0.3c16.3,0,31.1,0.1,45,0.3
			c0,8.2-0.4,16.4-0.9,24.3c-0.2,3.6-0.4,7.3-0.5,11c-26.6-0.7-53.1-1.2-79.1-1.8c-5.6-0.1-11.2-0.2-16.8-0.3
			c-0.1-3.1-0.2-6.5-0.2-10.3c0-3.8,0.1-7.7,0.1-11.5c0.1-3.8,0.1-7.6,0.1-11.4h-3c0,3.8-0.1,7.5-0.1,11.3
			c-0.1,3.8-0.1,7.7-0.1,11.5c0,3.8,0.1,7.2,0.2,10.2c-30.2-0.6-60.8-1.3-91.3-2.3c-0.3-2.7-0.5-5.6-0.5-9.1c0-2,0-4,0.1-6
			c0-2,0.1-4,0.1-6c0-3.7-0.2-6.8-0.5-9.6c10.2,0.1,19.8,0.1,28.8,0.1C775.3,103.7,795.4,103.6,814.9,103.4z M788.3,100.4l0.2,1.5
			c-11,0.1-22,0.1-32.9,0.1c-7,0-29.8,0-57.8-0.1c0.5-6.6,1.4-13.2,2.3-19.6c0.9-6.3,1.7-12.9,2.2-19.5c9.3,0,15.8,0,17.9,0
			c21.7,0,43.8,1.1,66.5,2.7l-2.1,0.1C785.5,77.3,786.9,88.5,788.3,100.4z M854.9,40.1c0,0.1,0,0.1,0,0.2h3c0,0,0,0,0,0
			c20.6,0.9,41,1.9,61.3,2.8c5.1,0.2,10.1,0.5,15.2,0.7h-2.2c0,6.8,0.5,13.9,0.9,20.7c0.2,3.1,0.4,6.1,0.5,9.1
			c-34.2-0.7-68.9-3.6-102.7-6.4c0,0-0.1,0-0.1,0c-0.1-5.6-0.6-11.2-1-16.6c-0.3-3.8-0.7-7.7-0.9-11.6
			C837.7,39.4,846.3,39.7,854.9,40.1z M826,38.9c0.2,4,0.6,8,0.9,11.9c0.5,5.3,0.9,10.8,1,16.2c-34.9-2.9-68-5.5-100.3-5.9
			c-0.2-3.5-0.2-6.9-0.3-10.3c-0.1-5-0.1-10.2-0.7-15.4C759.9,36.3,793.1,37.5,826,38.9z M674.7,6.7c37.7,0.5,71.8,0.9,81.9,1.3
			c-0.9,8.8-2.4,17.7-3.8,26.3c-9.4-0.3-42-0.6-78.4-0.8c0.1-1.5,0.1-3.5,0.1-4.9c0-2.3-0.1-4.6-0.1-7c-0.1-2.3-0.1-4.6-0.1-6.9
			C674.3,11.8,674.4,9.2,674.7,6.7z M584.6,5.5c23.7,0.4,56.5,0.8,87.3,1.2c-0.3,2.5-0.4,5.1-0.4,8.1c0,2.3,0.1,4.6,0.1,6.9
			c0.1,2.3,0.1,4.6,0.1,6.9c0,1.4,0,3.4-0.1,4.9c-25.4-0.2-52.4-0.3-74.4-0.5l-0.8-0.1c0,0,0,0,0,0c-4.7,0-9.1-0.1-13.2-0.1
			C583.2,23.8,583.7,14.6,584.6,5.5z M492.1,5.1c44.6,0.1,78.6,0.1,81.7,0.2c2.5,0.1,5.2,0.1,7.9,0.2c-0.9,9.1-1.3,18.4-1.3,27.5
			c-2.6,0-5.2,0-7.6-0.1c-3,0-38.3,0-84.1-0.1c0.3-3.2,0.9-6.5,1.5-9.7c0.9-5,1.9-10.2,1.9-15.5C492.2,6.8,492.1,5.9,492.1,5.1z
			 M394.2,4.9c32.2,0,65.7,0.1,95,0.1c0.1,0.9,0.1,1.7,0.1,2.6c0,5.1-0.9,10.2-1.9,15.1c-0.6,3.3-1.2,6.7-1.6,10
			c-10.8,0-22.2,0-33.9,0l-2.6-0.2c0,0.1,0,0.1,0,0.2c-18.2,0-36.9,0-55.3,0V4.9z M345.1,32.7c-17.9,0-34.1,0-47.4,0l1.5,0
			c-0.1-2.9-0.2-5.8-0.2-8.8c0-6.5,0.3-13,0.6-19.1c24,0,57,0.1,91.8,0.1v27.8c-15.4,0-30.4,0-44.4,0c0,0,0-0.1,0-0.1L345.1,32.7z
			 M298.2,65.2c0-0.5,0-1.1,0-1.6c16.5,0,37.5,0,60.5,0c0,4.4-0.2,8.8-0.4,13.1c-0.2,4.9-0.4,9.9-0.4,14.9c0,3.6,0.1,6.8,0.3,9.9
			c-9.9,0-19.4,0-28.3,0c0,0,0-0.1,0-0.1l-1.4,0.1c-9.9,0-19,0-27.2,0l1.1-0.1c-0.4-3-0.9-6.1-1.4-9.1
			C299.6,82.8,298.2,74.2,298.2,65.2z M291.2,132.9c0-0.8,0.1-1.7,0.1-2.5c0-5.3-0.6-10.7-1.3-16c-0.4-3.8-0.9-7.7-1.1-11.5
			c10.5,0,23.6,0,38.4,0c0.6,5.6,1.6,11.2,2.6,16.6c0.8,4.4,1.7,8.9,2.3,13.4C316.4,132.9,302.4,132.9,291.2,132.9z M306.8,173.8
			c1.4-13.3,1.9-26.4,2.3-39.1c14.7,0,32.2,0,51.3,0.1c-0.6,3-0.8,5.7-0.8,8.9c0,5.5,0.6,11.1,1.3,16.5c0.5,4.4,1,9.1,1.2,13.5
			l2.8-0.1c-0.2-4.5-0.7-9.2-1.2-13.7c-0.6-5.4-1.3-10.9-1.3-16.3c0-3.3,0.3-5.9,0.8-8.9c19.8,0,41.4,0,63.5,0.1
			c-0.2,6.4-0.6,12.8-0.9,19.2c-0.4,6.7-0.7,13.4-0.9,20c-35.7,0-71.4-0.1-100.2-0.1c0,0,0-0.1,0-0.1l-1.8,0.1
			C317.2,173.9,311.8,173.9,306.8,173.8z M306.2,228.6c-0.5-5.4-1.7-10.6-2.8-15.7c-1.1-4.7-2.1-9.5-2.6-14.4
			c16.8,0,37.8,0,60.8-0.1v30h2.8v-30c22,0,45.6,0,69-0.1v30.2C387.4,228.6,339.7,228.6,306.2,228.6z M348.1,230.4
			c24.1,0,51,0,77.6,0c-0.3,2.5-0.6,5-0.9,7.5c-0.7,5.5-1.5,11.2-1.8,16.9l2.8,0.1c0.3-5.6,1.1-11.2,1.8-16.7c0.3-2.6,0.7-5.2,1-7.7
			c25.6,0,50.8,0,72.9,0l0,0.2c0.5,8,0.9,16.4,1.8,24.3l2.8-0.2c-0.9-7.9-1.4-16.2-1.8-24.2l0,0c38.9,0,67.7,0,70.9,0.1
			c3.2,0,6.6,0,10.2,0.1c-0.2,4.1-0.5,8-0.9,12c-0.3,4.1-0.7,8.2-0.9,12.4c-1.9,0-3.9,0-5.7,0c-9,0-135.8,0-226.1,0
			c-0.8-4.3-1.4-8.5-2-12.7C349.5,238.4,348.9,234.4,348.1,230.4z M391.9,270c-0.2,1.4-0.3,2.4-0.3,2.7c0,0.9,0.1,1.9,0.1,2.8
			c0,0.7,0.1,1.4,0.1,2.1c-25.7,0-50.4,0-71.2,0l2.2-0.2c-0.3-2.6-0.4-5-0.4-7.3l0-3.7c0-2.9-0.1-6.2-0.7-9.6c21,0,45.7,0,71.5,0
			C393.1,261.6,392.4,267,391.9,270z M477.9,277.6c-14.4,0-29.5,0-44.7,0l-2.6-0.2c0,0.1,0,0.1,0,0.2c-12,0-24.1,0-35.9,0
			c0-0.7,0-1.4-0.1-2.2c0-0.9-0.1-1.8-0.1-2.7c0-0.3,0.1-1.2,0.3-2.4c0.4-3.1,1.2-8.5,1.3-13.6c27.1,0,55.1,0,80.9,0
			c0.1,1.7,0.2,3.3,0.4,5c0.3,4.1,0.7,8.3,0.7,12.4C478,275.4,477.9,276.5,477.9,277.6z M480.7,277.6c0.1-1.1,0.1-2.3,0.1-3.4
			c0-4.2-0.3-8.5-0.7-12.6c-0.1-1.6-0.3-3.3-0.4-4.9c30.8,0,58,0,76,0c-1.5,9.9-2.5,20.7-2.5,20.8l1.4,0.1
			C536.4,277.7,510.1,277.6,480.7,277.6z M453.6,311c25.8,0.1,51.6,0.1,75.4,0.2c1.3,11.3,2.2,22.3,3.1,34.2
			c-22.9,0-50.4-0.1-78.8-0.1c0.1-1,0.1-2.6,0.1-5.1c0-2.9-0.1-5.9-0.1-8.8c-0.1-2.9-0.1-5.8-0.1-8.8
			C453.1,318.1,453.3,314.4,453.6,311z M451.9,346.9c0.3,0,0.5,0,0.7-0.1c17.6,0,34.8,0,50.9,0c0,0.9,0.1,1.8,0.1,2.7
			c0,4.8-0.4,9.7-0.8,14.4c-0.3,2.9-0.5,5.8-0.7,8.8c-51.7,0-116.3-0.1-165.5-0.1c-0.1-1-0.1-2.1-0.1-3.1c0-1.9,0.1-3.8,0.1-5.8
			c0.1-1.9,0.1-3.9,0.1-5.8c0-3.1-0.2-7-1.2-11.1c24.5,0,53,0,82,0c1.5,6,1.7,12.2,1.7,18.3c0,2.5,0.1,5,0.2,7.5l2.8-0.1
			c-0.1-2.5-0.2-4.9-0.2-7.4c-0.1-6-0.2-12.2-1.7-18.2C430.9,346.9,441.4,346.9,451.9,346.9L451.9,346.9z M378.5,310.8
			c23,0.1,47.6,0.1,72.3,0.2c-0.4,3.4-0.5,7.2-0.5,11.6c0,2.9,0.1,5.9,0.1,8.8c0.1,2.9,0.1,5.8,0.1,8.8c0,1.5,0,3.3,0,4.4h-0.1
			l0,0.7c-23.4,0-47.3,0-70-0.1c-0.2-4.4-0.6-8.8-1-13.1c-0.5-5.6-1.1-11.3-1.1-17C378.4,313.7,378.4,312.2,378.5,310.8z
			 M305.7,345.1l1.4,0c-0.4-9.2-0.3-18.8-0.3-28.1l0-6.4c19.1,0.1,42.9,0.1,68.9,0.2c-0.1,1.4-0.2,2.9-0.2,4.3
			c0,5.8,0.6,11.6,1.1,17.2c0.4,4.2,0.8,8.6,1,12.9c-15,0-29.3,0-42.5-0.1c0,0,0-0.1,0-0.1l-0.5,0.1
			C324.1,345.1,314.4,345.1,305.7,345.1z M326.1,400.6l-1.4,0.2c-13,0-24.7,0-34.2,0l1.1-0.3c-1.5-4.8-1.9-9.7-2.3-14.5
			c-0.3-3.8-0.8-7.7-1.6-11.6c17.4,0.1,42.1,0.1,70.2,0.2c0,3.5-0.3,7-0.5,10.4c-0.3,3.9-0.5,7.9-0.5,11.9c0,1.3,0,2.6,0.1,4
			c-10.8,0-21.1,0-30.7,0C326.1,400.7,326.1,400.6,326.1,400.6z M329.2,429.7l2-0.5c-2.1-5.9-2.8-12.1-3.5-18
			c-0.3-2.9-0.7-5.8-1.2-8.8c24.2,0,53.1,0,83,0c0.3,1.8,0.5,3.7,0.5,5.8c0,3.6-0.5,7.3-1,10.8c-0.5,3.5-1,7-1,10.6
			C379.6,429.7,352.4,429.7,329.2,429.7z M364.4,471c20.2,0,42,0,63.9,0c0.2,9.7,1.6,20.4,2.9,30c-22.7,0-45.3-0.1-66.3-0.1
			c0-3.8-0.1-7.7-0.3-11.5c-0.2-4.3-0.3-8.6-0.3-12.9C364.3,474.8,364.3,472.9,364.4,471z M354.5,503.1c20,0.1,41.7,0.1,63.9,0.2
			c1.5,15.5,6.1,37.9,6.2,38.1c0,0.2,0,0.5-0.1,0.8c-25.5,0-50.6-0.1-73.2-0.1c0.3-4.7,0.9-9.4,1.4-14c0.9-7.6,1.8-15.4,1.8-23.1
			C354.5,504.3,354.5,503.7,354.5,503.1z M297.3,541.9l1.1-0.3c-4-9.4-5.3-19.4-6.6-29c-0.4-3.2-0.9-6.5-1.4-9.7
			c15.8,0.1,37.1,0.2,61.2,0.2c0,0.6,0,1.2,0,1.9c0,7.6-0.9,15.4-1.8,22.9c-0.5,4.7-1.1,9.5-1.4,14.2
			C329,542,311.5,541.9,297.3,541.9z M331.8,564.8c-7.7,0-15,0-21.8,0c-0.6-5.1-0.9-9.6-0.9-13.7c0-2.6,0.2-5.1,0.4-7.4
			c18.4,0.1,40.8,0.1,65.1,0.2c-0.5,3.3-1.2,6.6-1.9,9.8c-0.8,3.6-1.6,7.3-2.1,11.1c-12.6,0-24.7,0-36,0c0,0,0-0.1,0-0.1h-2.8
			C331.8,564.7,331.8,564.8,331.8,564.8z M334.5,596.6c-0.6-3-0.9-6.2-0.9-9.9c0-3.6,0.3-7.3,0.5-10.9c0.2-3.1,0.4-6.2,0.5-9.4
			c20.8,0,44.5-0.1,69-0.1c-0.1,1.8-0.1,3.7-0.1,5.5c0,3,0.1,6.1,0.2,9.2c0.1,3,0.2,6.1,0.2,9.1c0,2,0,4-0.1,6l2.8,0.1
			c0.1-2,0.1-4,0.1-6c0-3-0.1-6.1-0.2-9.2c-0.1-3-0.2-6.1-0.2-9.1c0-1.8,0-3.7,0.1-5.5c25.4,0,51.6-0.1,76.5-0.1
			c-1.1,7.5-2.1,16.3-2.1,24.9c0,1.6,0,3.2,0.1,4.8l2.8-0.1c-0.1-1.6-0.1-3.1-0.1-4.7c0-8.6,1.1-17.4,2.1-24.9
			c22.4,0,43.6,0,61.9-0.1c-0.1,4.7-0.3,9.4-0.7,14c-0.3,5.1-0.7,10.4-0.7,15.6h2.8c0-5.1,0.4-10.4,0.7-15.5
			c0.3-4.6,0.6-9.4,0.7-14.1c30.2,0,52.2-0.1,58.2-0.1c5.5,0,11.2-0.1,17.1-0.1c-1.7,7.5-2.3,15.2-2.8,22.7
			c-0.2,2.7-0.4,5.4-0.6,8.1c-6.7,0-13.4,0-19.9,0C584.6,596.7,429.1,596.6,334.5,596.6z"/>
	</g>
	<g class="st2">
		<g class="st3">
			<path class="st1" d="M945.5,507.7c-8.9-0.3-17.9-0.5-26.8-0.8c0.2-3.7,0.3-7.4,0.5-11c0.4-7.9,0.9-16.2,0.9-24.3
				c8.8,0.2,17.2,0.4,25.4,0.6V507.7z"/>
			<path class="st1" d="M816.7,177.3c-0.1,1.8-0.2,3.8-0.2,6c0,2.2,0.1,4.5,0.1,6.7c0,1.9,0.1,3.7,0.1,5.6c-2.9,0-5.8,0-8.6,0
				c-31.9,0-62.4,0.2-92.3,0.7c-0.2-3.1-0.3-6.1-0.3-9.2c0-3.5,0.1-7,0.4-10.4l-3-0.1c-0.2,3.5-0.4,7-0.4,10.5
				c0,3.1,0.1,6.2,0.3,9.3c-9.5,0.2-441.1,0.4-450.5,0.6v-21.4c18.5,0.7,129.5,0.3,245.9,0.6c132.4,0.3,271.9,1.3,291.5,1.3
				C805.5,177.3,811.1,177.3,816.7,177.3z"/>
			<path class="st1" d="M723.1,418.8c0,3.4,0.1,6.8,0.3,10.3c-1.5,0-3.1,0-4.6,0c-11.5,0-445,0.3-456.4,0.8v-27.5
				c12.6,0.2,447.4,0.5,460,0.9C722.9,408.5,723,413.8,723.1,418.8z"/>
			<path class="st1" d="M778.6,229.7c0.5-5.5,0.9-10.6,1.4-15.8c0.5-5.4,1-10.8,1.5-16.6c8.8,0,17.6-0.1,26.6-0.1
				c27.7,0,56.1,0.2,85.7,0.6c0.1,1.3,0.1,2.5,0.1,3.8c0,5.2-0.4,10.5-0.8,15.6c-0.3,4.4-0.6,8.9-0.7,13.3
				c-31.9-0.6-63.7-0.7-94.8-0.8C791.2,229.7,784.9,229.7,778.6,229.7z"/>
			<path class="st1" d="M710.1,295.4c0,4.6,0.1,9.2,0.3,13.9c-8.6-0.2-439.4-0.5-448-0.7v-29.2c8.6,0.2,439.4,0.4,448,0.6
				C710.2,285.1,710.1,290.2,710.1,295.4z"/>
			<path class="st1" d="M895.2,346c1.2-4.7,2-9.5,2.8-14.1c0.9-5.3,1.7-10.7,3.2-15.9l-2.9-0.3c-1.5,5.3-2.4,10.7-3.2,16
				c-0.8,4.7-1.6,9.6-2.8,14.4c-23.2,0.6-46.3,0.9-69.4,1c0.9-11.1,1.4-22.2,1.4-33.3c40,0.9,80.8,1.9,121.3,3.1v27.4
				C928.7,345,912,345.5,895.2,346z"/>
			<path class="st1" d="M857.5,282.2c-0.5,5.2-0.9,10.5-1.2,15.8c-0.3,5-0.7,9.9-1.2,14.8c-14.7-0.3-29.3-0.7-43.7-1
				c-11.4-0.3-22.8-0.5-34.3-0.8v-30c4.7,0.1,9.4,0.1,14,0.2c2,0,3.9,0.1,5.9,0.1c0,0,0,0,0,0l3,0.1c0,0,0,0,0-0.1c1,0,2,0,3,0
				c0,0.1,0,0.2,0,0.3l3-0.1c0-0.1,0-0.1,0-0.2C822.9,281.6,840.2,281.8,857.5,282.2z"/>
			<path class="st1" d="M945.5,282.6c-12.7-0.4-25.5-0.8-38.3-1.1c0-1.1-0.1-2.2-0.1-3.3c0-3,0.2-6.2,0.3-9.2c0.2-3,0.3-6.1,0.3-9.1
				h-3c0,3-0.2,6.1-0.3,9.1c-0.2,3-0.3,6.2-0.3,9.3c0,1.1,0.1,2.1,0.1,3.2c-33-0.8-65.9-1.3-98.4-1.8c0-0.2,0-0.3,0-0.5
				c0-4.6,0.8-9.4,1.6-14c0.4-2.1,0.7-4.2,1-6.2c23.9,0.6,48.2,1.1,72.3,1.1c23.5,0,45-0.5,64.9-1.5V282.6z"/>
			<path class="st1" d="M893,545.1c7.4,0,14.4,0,21.2,0c0,6.3,0,12.9-0.4,19.2c-32.6-0.5-63.8-0.8-94-0.8c0-1.9,0-3.7-0.1-5.6
				c-0.1-2.2-0.1-4.4-0.1-6.7c0-2.2,0.1-4.2,0.2-6c8.9,0,17.8,0,26.8-0.1C862,545.2,877.5,545.1,893,545.1z"/>
			<path class="st1" d="M797.5,599.5c31.2,0.1,62.9,0.3,94.8,0.8c0,0.2,0,0.4,0,0.6h3c0-0.2,0-0.4,0-0.5c8.8,0.2,17.5,0.3,26.3,0.6
				c-0.1,0.6-0.1,1.2-0.2,1.7h-86.2c0.2-0.9,0.3-1.7,0.5-2.6l-3-0.2c-0.1,0.9-0.3,1.8-0.5,2.7h-93.4v-3.5
				C758.5,599.3,778.1,599.4,797.5,599.5z"/>
			<path class="st1" d="M871.8,507.5c-1.4,8.9-2.1,18.4-2.1,28.3c0,2.6,0.1,5.1,0.2,7.7c-7.8,0-15.6,0-23.4,0.1
				c-15.5,0.1-31.1,0.1-46.6,0.1c-11.6,0-23.4,0-35.3-0.1c-0.5-6.6-1-12.8-1.5-19c-0.5-6.3-1-12.6-1.5-19.3l-3,0.1
				c0.5,6.7,1,13,1.5,19.3c0.5,6.2,1,12.4,1.5,18.9c-25.1-0.2-473.1-0.7-499.2-1.8v-39.1c27.2,1.1,176,0.4,315.8,1.1
				c121,0.6,235.4,2.6,258.6,3.1C848.4,507,860.1,507.3,871.8,507.5z"/>
			<path class="st1" d="M945.5,139.6c-8.9-0.3-17.9-0.5-26.8-0.8c0.2-3.7,0.3-7.4,0.5-11c0.4-7.9,0.9-16.2,0.9-24.3
				c8.8,0.2,17.2,0.4,25.4,0.6V139.6z"/>
			<path class="st1" d="M754,103.7c19.7,0,39.8-0.1,59.1-0.3c19.4-0.1,39.4-0.3,59.1-0.3c16.2,0,31,0.1,44.8,0.3
				c0,8.2-0.4,16.4-0.9,24.3c-0.2,3.6-0.4,7.3-0.5,11c-26.5-0.7-52.9-1.2-78.8-1.8c-5.6-0.1-11.1-0.2-16.7-0.3
				c-0.1-3.1-0.2-6.5-0.2-10.3c0-3.8,0.1-7.7,0.1-11.5c0.1-3.8,0.1-7.6,0.1-11.4h-3c0,3.8-0.1,7.5-0.1,11.3
				c-0.1,3.8-0.1,7.7-0.1,11.5c0,3.8,0.1,7.2,0.2,10.2c-30.1-0.6-60.5-1.3-91-2.3c-0.3-2.7-0.5-5.6-0.5-9.1c0-2,0-4,0.1-6
				c0-2,0.1-4,0.1-6c0-3.7-0.2-6.8-0.5-9.6C735.5,103.7,745.1,103.7,754,103.7z"/>
			<path class="st1" d="M754,471.7c19.7,0,39.8-0.1,59.1-0.3c19.4-0.1,39.4-0.3,59.1-0.3c16.2,0,31,0.1,44.8,0.3
				c0,8.2-0.4,16.4-0.9,24.3c-0.2,3.6-0.4,7.3-0.5,11c-26.5-0.7-52.9-1.2-78.8-1.8c-5.6-0.1-11.1-0.2-16.7-0.3
				c-0.1-3.1-0.2-6.5-0.2-10.3c0-3.8,0.1-7.7,0.1-11.5c0.1-3.8,0.1-7.6,0.1-11.4h-3c0,3.8-0.1,7.5-0.1,11.3
				c-0.1,3.8-0.1,7.7-0.1,11.5c0,3.8,0.1,7.2,0.2,10.2c-30.1-0.6-60.5-1.3-91-2.3c-0.3-2.7-0.5-5.6-0.5-9.1c0-2,0-4,0.1-6
				c0-2,0.1-4,0.1-6c0-3.7-0.2-6.8-0.5-9.6C735.5,471.7,745.1,471.7,754,471.7z"/>
			<path class="st1" d="M777,581.8c-0.5,5.2-0.9,10.3-1.4,15.8c-24.8-0.1-50-0.3-75.1-0.7c-0.5-5.2-1-10.1-1.5-15
				c-0.5-5-1-9.9-1.5-15.3l-3,0.1c0.5,5.4,1,10.4,1.5,15.3c0.5,4.8,1,9.6,1.4,14.8c-4.3-0.1-430.8-0.2-435.1-0.3v-30
				c30.6-0.7,483.9-1.1,516.1-1.3C778,571.1,777.5,576.5,777,581.8z"/>
			<path class="st1" d="M723.1,50.8c0,3.4,0.1,6.8,0.3,10.3c-1.5,0-3.1,0-4.6,0c-11.5,0-445,0.3-456.4,0.8V34.4
				c12.6,0.2,447.4,0.5,460,0.9C722.9,40.5,723,45.7,723.1,50.8z"/>
			<path class="st1" d="M932.2,43.8H930c0,6.8,0.5,13.9,0.9,20.7c0.2,3.1,0.4,6.1,0.5,9.1c-34.1-0.7-68.6-3.6-102.2-6.4
				c0,0-0.1,0-0.1,0c-0.1-5.6-0.6-11.2-1-16.6c-0.3-3.8-0.7-7.7-0.9-11.6c8.6,0.4,17.2,0.7,25.8,1.1c0,0.1,0,0.1,0,0.2h3
				c0,0,0,0,0,0c20.5,0.9,40.9,1.9,61.1,2.8C922.1,43.3,927.2,43.5,932.2,43.8z"/>
			<path class="st1" d="M893.8,565.9c0.1,1.3,0.1,2.5,0.1,3.8c0,5.2-0.4,10.5-0.8,15.6c-0.3,4.4-0.6,8.9-0.7,13.3
				c-31.9-0.6-63.7-0.7-94.8-0.8c-6.3,0-12.6,0-18.9-0.1c0.5-5.5,0.9-10.6,1.4-15.8c0.5-5.4,1-10.8,1.5-16.6
				c8.8,0,17.6-0.1,26.6-0.1C835.8,565.3,864.2,565.5,893.8,565.9z"/>
			<path class="st1" d="M853,408.2c0,0.1,0,0.1,0,0.2h3c0,0,0,0,0,0c20.5,0.9,40.9,1.9,61.1,2.8c5,0.2,10.1,0.5,15.2,0.7H930
				c0,6.8,0.5,13.9,0.9,20.7c0.2,3.1,0.4,6.1,0.5,9.1c-34.1-0.7-68.6-3.6-102.2-6.4c0,0-0.1,0-0.1,0c-0.1-5.6-0.6-11.2-1-16.6
				c-0.3-3.8-0.7-7.7-0.9-11.6C835.8,407.4,844.4,407.8,853,408.2z"/>
			<path class="st1" d="M917.1,177.2c10.1,0,19.4,0.1,28.4,0.2v19.5c-9.7-0.2-19.3-0.3-28.8-0.5
				C917.1,190.1,917.1,183.5,917.1,177.2z"/>
			<path class="st1" d="M917.1,545.2c10.1,0,19.4,0.1,28.4,0.2v19.5c-9.7-0.2-19.3-0.3-28.8-0.5
				C917.1,558.1,917.1,551.5,917.1,545.2z"/>
			<path class="st1" d="M945.5,13.7v28.9c-9.4-0.4-18.8-0.9-28.1-1.3c-20.3-0.9-40.7-1.9-61.3-2.8c0.1-4.9,0.7-9.8,1.2-14.6
				c0.5-4,1-8.2,1.2-12.3l-3-0.1c-0.2,4.1-0.7,8.2-1.2,12.3c-0.6,4.8-1.1,9.7-1.2,14.6c-32.7-1.5-65.6-2.8-98.7-3.9
				c1.4-8.6,2.8-17.5,3.7-26.3c51.2,2,102.5,3.4,152.7,4.6C922.4,13.1,933.9,13.4,945.5,13.7z"/>
			<path class="st1" d="M871.8,139.5c-1.4,8.9-2.1,18.4-2.1,28.3c0,2.6,0.1,5.1,0.2,7.7c-7.8,0-15.6,0-23.4,0.1
				c-15.5,0.1-31.1,0.1-46.6,0.1c-11.6,0-23.4,0-35.3-0.1c-0.5-6.6-1-12.8-1.5-19c-0.5-6.3-1-12.6-1.5-19.3l-3,0.1
				c0.5,6.7,1,13,1.5,19.3c0.5,6.2,1,12.4,1.5,18.9c-25.1-0.2-473.1-0.7-499.2-1.8v-39.1c65.4-1,262.3-0.7,409,0.9
				c80.2,0.8,147.7,3,165.4,3.3C848.4,139,860.1,139.2,871.8,139.5z"/>
			<path class="st1" d="M262.4,431.6c11.4-0.5,444.9-0.8,456.4-0.8c21.6,0,43.6,1.1,66.3,2.7l-2,0.1c0.9,11.7,2.3,23,3.7,34.8
				l0.2,1.5c-10.9,0.1-21.9,0.1-32.8,0.1c-20.3,0-466.3-0.1-491.7-0.9V431.6z"/>
			<path class="st1" d="M732.5-3.4c-0.4,2.9-0.7,5.8-1.1,8.7c-15.6-0.7-453.5-1.5-469-2.4V-19h471.7C733.8-13.8,733.2-8.6,732.5-3.4
				z"/>
			<path class="st1" d="M911,11.1c-10.1-0.3-20.3-0.5-30.4-0.8c0.7-4.8,1-9.5,1.3-14.1c0.3-5,0.6-10,1.4-15.2h62.2V12
				C934,11.7,922.5,11.4,911,11.1z"/>
			<path class="st1" d="M924.3,602.7c0.1-0.6,0.1-1.1,0.2-1.7c7,0.2,14,0.4,21,0.7v1H924.3z"/>
			<path class="st1" d="M262.4,63.6c11.4-0.5,444.9-0.8,456.4-0.8c21.6,0,43.6,1.1,66.3,2.7l-2,0.1c0.9,11.7,2.3,23,3.7,34.8
				l0.2,1.5c-10.9,0.1-21.9,0.1-32.8,0.1c-20.3,0-466.3-0.1-491.7-0.9V63.6z"/>
			<path class="st1" d="M262.4,346.7c7.9,0.3,438.1,0.5,446.1,0.7c0,8.9,0.5,17.3,0.9,26.3c-8.3-0.4-438.7-0.8-447-1.2V346.7z"/>
			<path class="st1" d="M712.4,373.9c25.7,1.1,51.5,1.9,77.2,2.5c0.3-3.6,0.6-7.1,1-10.6c0.6-5.4,1.3-11,1.3-16.6h3
				c0,5.7-0.7,11.3-1.3,16.8c-0.4,3.4-0.8,7-1,10.5c39.7,1,79.4,1.7,118.4,2.6c11.5,0.3,23,0.6,34.5,0.9v-33.9
				c-3.5,0.1-7,0.3-10.5,0.4c0,1.1,0.1,2.2,0.1,3.3c0,4.3-0.3,8.7-0.6,13c-0.3,4.2-0.6,8.6-0.6,12.9c0,1.2,0,2.5,0.1,3.7l-3,0
				c-0.1-1.2-0.1-2.5-0.1-3.8c0-4.3,0.3-8.7,0.6-13c0.3-4.2,0.6-8.6,0.6-12.9c0-1,0-2.1-0.1-3.1c-12.4,0.4-24.8,0.8-37.3,1.1
				c0,0,0,0.1,0,0.1l-1.2-0.1c-29.2,0.7-58.3,1.1-87.2,1.1c-20.2,0-40.6-0.2-61-0.6l-2.1,0c0,0,0,0,0-0.1
				c-10.6-0.2-21.2-0.4-31.8-0.7C711.4,356.4,711.9,364.9,712.4,373.9z M860.5,377.5l0.2-1.2c1.4-9.2,2.9-18.7,5.3-27.9l2.9,0.3
				c-2.4,9.1-3.8,18.6-5.3,27.8l-0.2,1.2L860.5,377.5z"/>
			<path class="st1" d="M704.9,256.8c-1.4,5.4-1.5,10.9-1.7,16.2c0,1.7-0.1,3.3-0.2,5c-6.2-0.1-434.5-0.3-440.7-0.4v-20.8
				c3.4,0,429.1,0,432.6,0C698.3,256.7,701.6,256.8,704.9,256.8z"/>
			<path class="st1" d="M934.5,441.7c-0.2-3.1-0.3-6.1-0.5-9.2c-0.4-6.8-0.9-13.8-0.9-20.6c4.2,0.2,8.3,0.4,12.5,0.6v29.4
				C941.8,441.8,938.1,441.7,934.5,441.7z"/>
			<path class="st1" d="M758,377.2c10.5,0.3,21,0.6,31.5,0.9c0,0.1,0,0.2,0,0.3l3,0.1c0-0.1,0-0.2,0-0.3c21.1,0.5,42.1,1,63.1,1.4
				c-0.2,4.1-0.7,8.2-1.2,12.2c-0.6,4.8-1.1,9.7-1.2,14.6c-32.7-1.5-65.6-2.8-98.7-3.9C755.7,394.2,757.1,385.7,758,377.2z"/>
			<path class="st1" d="M945.5,231.9c-16.7-0.6-33.4-1-50.1-1.3c0.1-4.4,0.4-8.9,0.7-13.3c0.4-5.2,0.8-10.5,0.8-15.7
				c0-1.3,0-2.5-0.1-3.8c15.9,0.2,32.1,0.5,48.7,0.8V231.9z"/>
			<path class="st1" d="M735.8,255.4c-13.6-0.3-27.3-0.4-40.8-0.4c-3.5,0-429.2,0-432.6,0v-24.7c17.1,0.4,456.4,0.6,473.4,0.8V255.4
				z"/>
			<path class="st1" d="M945.5,256.8c-7.5,0.4-15.3,0.7-23.2,0.9c0.8-4.9,1.1-9.9,1.5-14.8c0.2-3.3,0.5-6.6,0.8-9.9
				c7,0.2,14,0.4,21,0.7V256.8z"/>
		</g>
		<g class="st4">
			<path class="st1" d="M609.4,85.6c0.4-7.4,0.8-15.1,2-22.5c30.2-0.1,64.9-0.2,86.7-0.3c-0.5,6.5-1.3,12.9-2.2,19.2
				c-0.9,6.5-1.8,13.2-2.3,19.9c-27.1-0.1-58.6-0.1-85.3-0.3C608.9,96.3,609.2,90.8,609.4,85.6z"/>
			<path class="st1" d="M544,133.2c0.3-1.4,0.4-4.2,0.4-9.6c0-2,0-4-0.1-6c0-2-0.1-4-0.1-6c0-3.3,0.2-6,0.4-8.5
				c28.2,0,48.5,0,53.8,0.1c10.1,0,21.2,0.1,32.4,0.1c-0.1,5.7-0.6,11.3-1.2,16.8c-0.4,4.4-0.9,8.9-1.1,13.4
				c-11-0.1-21.7-0.1-31.6-0.2C591.9,133.3,571.9,133.2,544,133.2z"/>
			<path class="st1" d="M488.8,5c0.1,0.9,0.1,1.7,0.1,2.6c0,5.1-0.9,10.2-1.9,15.1c-0.6,3.3-1.2,6.7-1.6,10c-10.8,0-22.1,0-33.7,0
				l-2.6-0.2c0,0.1,0,0.1,0,0.2c-18.1,0-36.8,0-55.1,0V4.9C426.2,5,459.7,5,488.8,5z"/>
			<path class="st1" d="M595.6,33C595.6,33,595.6,33,595.6,33c-4.6,0-9.1,0-13.2,0c0-9.1,0.5-18.3,1.3-27.5
				c23.6,0.4,56.3,0.8,87,1.2c-0.3,2.5-0.4,5.1-0.4,8.1c0,2.3,0.1,4.6,0.1,6.9c0.1,2.3,0.1,4.6,0.1,6.9c0,1.4,0,3.4-0.1,4.9
				c-25.3-0.2-52.1-0.3-74.1-0.5L595.6,33z"/>
			<path class="st1" d="M608.8,61.2c0,0,0,0.1,0,0.1c-5,0-9.9,0-14.5,0.1c0.5-4.6,1.3-9.3,2-13.9c0.7-4.2,1.4-8.6,1.9-12.9
				c16.2,0.1,34.7,0.1,52.5,0.2c0,0.7,0.1,1.4,0.1,2.1c0,4.7-0.5,9.7-1,14.4c-0.3,3.3-0.7,6.6-0.9,9.9c-13,0-26.4,0.1-38.9,0.2
				L608.8,61.2z"/>
			<path class="st1" d="M636.6,309c-8.5,0-30.9-0.1-60.7-0.1c-0.1-1.9-0.1-3.8-0.1-5.6c0-4.1,0.2-8.3,0.3-12.4
				c0.1-3.8,0.3-7.6,0.3-11.4c1.7,0,2.9,0,3.5,0c22.8,0.1,55.9,0.1,83.1,0.2V309C654.6,309,645.6,309,636.6,309z"/>
			<path class="st1" d="M586.7,242.7c0.3-4,0.7-8,0.9-12.1c22.1,0.1,51,0.2,77.6,0.3c-0.5,7.9-1.4,16.1-4.3,24.1
				c-22.8,0-52.5,0-75.1,0C586,250.8,586.4,246.8,586.7,242.7z"/>
			<path class="st1" d="M573.5,345.4c0-0.1,0-0.1,0-0.2l-2.8,0.2c-9.7,0-22.1,0-36.3-0.1c-0.9-12-1.8-22.9-3-34.2
				c25.4,0.1,48.5,0.1,66.8,0.2c0.9,4.1,1.4,8.5,1.4,13.9c0,3.6-0.2,7.2-0.4,10.7c-0.2,3.1-0.3,6.4-0.3,9.6c-2.4,0-4.7,0-6.9-0.1
				C589.6,345.5,583.1,345.5,573.5,345.4z"/>
			<path class="st1" d="M588.1,196.7c-4.3,0-23.5,0-50.7,0c1.7-6.9,2.6-13.9,3.5-20.7c26.1,0.1,44.2,0.1,47.8,0.2
				c9.6,0.1,20.3,0.3,31.7,0.4c0.2,1.6,0.4,3.2,0.4,5.1c0,2.7-0.3,5.5-0.5,8.2c-0.2,2.2-0.4,4.5-0.4,6.8c-5.6,0-11.2,0-16.5,0
				c0,0,0-0.1,0-0.1l-2.8,0.1c0,0,0,0,0,0C596.1,196.7,592,196.7,588.1,196.7z"/>
			<path class="st1" d="M563.6,61.6c0-6.1,0.4-12.4,0.9-18.4c0.2-2.9,0.4-5.8,0.5-8.7c3.9,0,6.4,0,7.1,0c6.6,0,14.6,0.1,23.3,0.1
				c-0.5,4.2-1.2,8.5-1.9,12.6c-0.8,4.7-1.6,9.5-2.1,14.2c-6,0-11.6,0.1-16.5,0.1C573.8,61.6,569.8,61.6,563.6,61.6z"/>
			<path class="st1" d="M501,101.4l2.8-0.2c-1.4-12.8-1.4-25.5-1.4-37.8c39.2,0,68.2-0.1,71.5-0.1c9.6-0.1,21.6-0.1,34.6-0.2
				c-1.2,7.4-1.6,15-1.9,22.3c-0.3,5.3-0.5,10.7-1.1,16.1l0.7,0.1c-2.4,0-4.7,0-7,0c-10.7-0.1-90.8-0.1-170.2-0.2
				c-0.5-7.3-0.8-14.7-0.8-22.6c0-4.7,0.1-9.8,0.3-15.3c24.9,0,49.4,0,71.1,0C499.6,75.7,499.6,88.5,501,101.4z"/>
			<path class="st1" d="M560.2-11.2c0.3,4.7,0.7,9.6,1.5,14.6c-18.5,0-56-0.1-98.3-0.1c0.4-7.3,0.7-14.8,0.8-22.1h95.4
				C559.8-16.4,560-13.8,560.2-11.2z"/>
			<path class="st1" d="M410.6,103c-0.1,1.4-0.3,3.5-0.4,7.1c-0.4,7.9-1,19.7-1.4,22.9l0,0c-26.1,0-51.4-0.1-73.5-0.1
				c-0.6-4.7-1.5-9.3-2.4-13.8c-1-5.3-2-10.7-2.6-16.2C354.1,103,381.9,103,410.6,103z"/>
			<path class="st1" d="M503.4,163.7c0-3.5,0.1-6.9,0.1-10.4c0-6.1-0.1-11.7-0.5-18.4c31.8,0,62,0,87.2,0.1
				c-1.4,7.3-1.8,14.9-2.1,22.2c-0.3,5.6-0.6,11.4-1.3,17.2c-6.2,0-23.8-0.1-47.9-0.1l-0.7-0.1l0,0.1c-10.5,0-22.3,0-34.8-0.1
				C503.4,170.6,503.4,167.2,503.4,163.7z"/>
			<path class="st1" d="M534.5,196.7c-22.1,0-49.1,0-77.4,0c0.2-2.9,0.6-6,0.9-8.9c0.5-3.9,1-8,1-11.9c29.1,0,56.7,0.1,78.9,0.1
				C537.1,182.9,536.2,189.9,534.5,196.7z"/>
			<path class="st1" d="M515.4,198.3c-1.4,4.9-1.6,9.9-1.9,14.8c-0.2,5.1-0.5,10.4-2.1,15.5l0.1,0c-22.2,0-48.5,0-75.5,0v-30.2
				C464.1,198.4,491.6,198.3,515.4,198.3z"/>
			<path class="st1" d="M564.5,429.5c0-0.9-0.1-2-0.1-2.5c0-3.6,1-7.3,1.9-10.8c0.9-3.6,1.9-7.4,1.9-11.2c0-0.8-0.1-1.6-0.2-2.3
				c16.7,0,28.4,0,32.4,0c16.5,0.1,35.3,0.1,53.1,0.2c0,0.8-0.1,1.7-0.1,2.5c0,2.3,0.1,4.6,0.1,7c0.1,2.3,0.1,4.7,0.1,7
				c0,3.3-0.1,6.9-0.4,9.9c-16.8,0.1-34.7,0.1-50.6,0.2C598.1,429.4,584.2,429.5,564.5,429.5z"/>
			<path class="st1" d="M394.5,275.5c0-0.9-0.1-1.8-0.1-2.7c0-0.3,0.1-1.2,0.3-2.4c0.4-3.1,1.2-8.5,1.3-13.6c27,0,54.9,0,80.5,0
				c0.1,1.7,0.2,3.3,0.4,5c0.3,4.1,0.7,8.3,0.7,12.4c0,1.2,0,2.3-0.1,3.4c-14.3,0-29.3,0-44.5,0l-2.6-0.2c0,0.1,0,0.1,0,0.2
				c-12,0-24,0-35.8,0C394.6,276.9,394.6,276.2,394.5,275.5z"/>
			<path class="st1" d="M393.2,256.7c-0.1,4.9-0.8,10.3-1.3,13.3c-0.2,1.4-0.3,2.4-0.3,2.7c0,0.9,0.1,1.9,0.1,2.8
				c0,0.7,0.1,1.4,0.1,2.1c-25.6,0-50.2,0-70.9,0l2.2-0.2c-0.3-2.6-0.4-5-0.4-7.3l0-3.7c0-2.9-0.1-6.2-0.7-9.6
				C342.9,256.7,367.6,256.7,393.2,256.7z"/>
			<path class="st1" d="M375.6,315.1c0,5.8,0.6,11.6,1.1,17.2c0.4,4.2,0.8,8.6,1,12.9c-14.9,0-29.2,0-42.4-0.1c0,0,0-0.1,0-0.1
				l-0.5,0.1c-10.4,0-20.1,0-28.7,0l1.4,0c-0.4-9.2-0.3-18.8-0.3-28.1l0-6.4c19,0.1,42.7,0.1,68.7,0.2
				C375.7,312.2,375.6,313.7,375.6,315.1z"/>
			<path class="st1" d="M288,374.4c17.3,0.1,42,0.1,69.9,0.2c0,3.5-0.3,7-0.5,10.4c-0.3,3.9-0.5,7.9-0.5,11.9c0,1.3,0,2.6,0.1,4
				c-10.8,0-21.1,0-30.6,0c0-0.1,0-0.1,0-0.2l-1.4,0.2c-13,0-24.6,0-34.1,0l1.1-0.3c-1.5-4.8-1.9-9.7-2.3-14.5
				C289.3,382.2,288.9,378.3,288,374.4z"/>
			<path class="st1" d="M361.7,198.5v30h2.8v-30c21.9,0,45.4,0,68.7-0.1v30.2c-45.8,0-93.4,0-126.6,0c-0.5-5.4-1.7-10.6-2.8-15.7
				c-1.1-4.7-2.1-9.5-2.6-14.4C317.8,198.5,338.8,198.5,361.7,198.5z"/>
			<path class="st1" d="M595.7,372.9c-0.1,0-0.2,0-0.4,0c-2.3,0-4.6,0-6.8,0c-2,0-7,0-14.4,0c-0.1-2.5-0.2-5-0.2-7.5l0-7.1
				c0-3.6-0.1-7.4-0.4-11.4c9.6,0,16.2,0,18.7,0c14,0.1,30.1,0.1,45.8,0.2c0.3,2.3,0.5,4.6,0.5,7.1c0,6.7-1.1,13.3-2.2,18.9
				c-13.8-0.1-27.8-0.2-40.3-0.2C595.9,372.9,595.8,372.9,595.7,372.9z"/>
			<path class="st1" d="M358.5,76.6c-0.2,4.9-0.4,9.9-0.4,14.9c0,3.6,0.1,6.8,0.3,9.9c-9.9,0-19.3,0-28.2,0c0,0,0-0.1,0-0.1
				l-1.4,0.1c-9.9,0-18.9,0-27.1,0l1.1-0.1c-0.4-3-0.9-6.1-1.4-9.1c-1.5-9.2-2.9-17.9-2.9-26.9c0-0.5,0-1.1,0-1.6
				c16.4,0,37.3,0,60.2,0C358.8,67.9,358.7,72.3,358.5,76.6z"/>
			<path class="st1" d="M368-6.7c0,3.2,0.1,6.5,0.3,9.8c-4.5,0-8.8,0-13.2,0c0.2-3.7,0.7-7.6,1.1-11.5c0.4-3.5,0.8-7.1,1.1-10.6
				h10.2C367.9-14.8,368-10.7,368-6.7z"/>
			<path class="st1" d="M309.4,134.7c14.7,0,32,0,51.1,0.1c-0.6,3-0.8,5.7-0.8,8.9c0,5.5,0.6,11.1,1.3,16.5c0.5,4.4,1,9.1,1.2,13.5
				l2.8-0.1c-0.2-4.5-0.7-9.2-1.2-13.7c-0.6-5.4-1.3-10.9-1.3-16.3c0-3.3,0.3-5.9,0.8-8.9c19.7,0,41.2,0,63.2,0.1
				c-0.2,6.4-0.6,12.8-0.9,19.2c-0.4,6.7-0.7,13.4-0.9,20c-35.6,0-71.1-0.1-99.8-0.1c0,0,0-0.1,0-0.1l-1.8,0.1c-5.6,0-11,0-16,0
				C308.5,160.5,309,147.4,309.4,134.7z"/>
			<path class="st1" d="M606.9,501.4c-3.3,0-10.7,0-21.3-0.1c-0.1-1.2-0.2-2.3-0.2-3.5c0-5.3,0.9-10.7,1.9-15.9
				c0.6-3.5,1.2-7.1,1.6-10.7c8.1,0,13.8,0,16.5,0c19.6,0.1,41.8,0.1,61.6,0.2c-0.2,3.7-0.6,7.5-0.9,11.1c-0.6,5.4-1.1,11-1.1,16.5
				c0,0.9,0,1.8,0.1,2.7C646.2,501.6,625.5,501.5,606.9,501.4z"/>
			<path class="st1" d="M570.8,347c0.3,3.9,0.4,7.8,0.4,11.4l0,7.1c0,2.5,0,5,0.2,7.5c-15.3,0-39.1-0.1-67-0.1
				c0.2-2.9,0.4-5.7,0.6-8.6c0.4-4.8,0.8-9.7,0.8-14.6c0-0.9,0-1.8-0.1-2.7C532.1,346.9,555,346.9,570.8,347z"/>
			<path class="st1" d="M331.4,429.2c-2-5.9-2.8-12.1-3.5-18c-0.3-2.9-0.7-5.8-1.2-8.8c24.1,0,52.9,0,82.6,0
				c0.3,1.8,0.5,3.7,0.5,5.8c0,3.6-0.5,7.3-1,10.8c-0.5,3.5-1,7-1,10.6c-28.1,0-55.3,0.1-78.4,0.1L331.4,429.2z"/>
			<path class="st1" d="M676.3,393.4c0.9-4,1.8-8.1,1.8-12.3c0-1.8-0.2-3.4-0.6-5c3.4,0,6.7,0.1,10,0.1c0,0.5,0,1,0,1.5
				c0,1,0.1,2,0.1,3.1c0,1-0.2,2.9-0.5,5.3c-0.4,4.3-1.1,10.1-1.1,15.6c-3.7,0-7.4-0.1-11.2-0.1
				C675.1,398.9,675.7,396.1,676.3,393.4z"/>
			<path class="st1" d="M579.6,564.7l0.1-1.4c0.4-6.2,0.8-12.6,0.8-18.9c14.5,0,24.6,0.1,28.3,0.1c15,0.2,31.6,0.3,48.6,0.4
				c0.2,1,0.3,2,0.3,3.1c0,3-0.6,6.2-1.2,9.2c-0.4,2.4-0.9,4.9-1.1,7.3c-8.9,0-18.2,0-27.4,0.1c0,0,0,0,0-0.1l-2.8-0.5
				c-0.1,0.2-0.1,0.4-0.1,0.6c-6.9,0-13.6,0-20.1,0.1C601.4,564.7,592.4,564.7,579.6,564.7z"/>
			<path class="st1" d="M306.6,551.2c0,4.1,0.3,8.6,0.9,13.7c-26.8,0-44.3,0-45.1,0.1v-21.4c2.4,0.1,19.3,0.2,44.6,0.3
				C306.7,546.1,306.6,548.6,306.6,551.2z"/>
			<path class="st1" d="M297.3,473.4c0,3.4-0.2,6.9-0.4,10.2c-0.2,3.4-0.4,6.8-0.4,10.3c0,2.4,0.1,4.6,0.3,6.6l2.8-0.2
				c-0.2-2-0.3-4.1-0.3-6.4c0-3.4,0.2-6.9,0.4-10.2c0.2-3.4,0.4-6.9,0.4-10.4c0-0.8,0-1.6-0.1-2.5c16.8,0,38.1,0,61.6,0.1
				c-0.1,1.9-0.1,3.7-0.1,5.6c0,4.3,0.2,8.6,0.3,12.9c0.1,3.8,0.2,7.6,0.3,11.5c-55.1-0.1-98-0.1-99.8-0.2v-29.9
				c0.9,0,14.1,0.1,34.9,0.1C297.3,471.8,297.3,472.6,297.3,473.4z"/>
			<path class="st1" d="M334.1,357.9c0,1.9-0.1,3.9-0.1,5.8c-0.1,1.9-0.1,3.9-0.1,5.8c0,1.1,0,2.1,0.1,3.1
				c-41.1,0-70.8-0.1-71.5-0.1v-25.8c0.8,0,29.9,0.1,70.5,0.1C333.9,350.9,334.1,354.8,334.1,357.9z"/>
			<path class="st1" d="M331.5,575.7c-0.3,3.6-0.5,7.3-0.5,11c0,3.6,0.3,6.9,0.9,9.9c-40.4,0-69,0-69.5,0v-30
				c2.6-0.1,30.6-0.1,69.6-0.2C331.9,569.6,331.7,572.7,331.5,575.7z"/>
			<path class="st1" d="M286.8,386.2c0.4,4.7,0.9,9.7,2.3,14.5c-15.7,0-25.7,0-26.8-0.1v-26.4c0.9,0,9.3,0.1,22.8,0.1
				C286.1,378.3,286.5,382.3,286.8,386.2z"/>
			<path class="st1" d="M342.4,469h2.8c0-12.4,0-25.1,0.9-37.5c17,0,35.5,0,54.6-0.1c0,1.8-0.1,3.6-0.1,5.4c0,9.5,0.6,19.6,2,32.6
				c-72.3-0.1-136.8-0.2-140.3-0.3v-37.5c1.3-0.1,35.1-0.1,80.9-0.2C342.4,443.9,342.4,456.6,342.4,469z"/>
			<path class="st1" d="M289.5,512.8c1.3,9.6,2.6,19.6,6.6,29.1c-19.5-0.1-32.1-0.1-33.6-0.2v-39.1c1.9,0.1,11.2,0.2,25.6,0.2
				C288.6,506.1,289,509.5,289.5,512.8z"/>
			<path class="st1" d="M344.8,45.8c0.1,5.2,0.1,10.5,0.9,15.9c-46.9,0-82.5,0.1-83.3,0.1V34.4c0.8,0,35.8,0,82,0
				C344.7,38.3,344.8,42.1,344.8,45.8z"/>
			<path class="st1" d="M287.6,114.6c0.6,5.2,1.2,10.5,1.2,15.7c0,0.8,0,1.7-0.1,2.5c-15.8,0-25.7-0.1-26.4-0.1v-29.9
				c0.7,0,9.6,0,24.1,0.1C286.7,106.8,287.1,110.8,287.6,114.6z"/>
			<path class="st1" d="M296.6,23.8c0,3,0.1,5.9,0.2,8.8c-20.5,0-33.6,0-34.4,0v-28c0.8,0,14.1,0.1,34.7,0.1
				C296.8,10.8,296.6,17.4,296.6,23.8z"/>
			<path class="st1" d="M322.3,177.4c0,1.9-0.1,3.8-0.1,5.7c-0.1,1.9-0.1,3.9-0.1,5.8c0,3.1,0.2,5.6,0.6,8c-35.1,0-59.4,0-60.2,0.1
				v-21.4c2.1,0.1,25.9,0.2,59.8,0.2C322.2,176.2,322.3,176.8,322.3,177.4z"/>
			<path class="st1" d="M362,287.8c-0.4,5.3-0.8,10.8-0.8,16.2c0,1.4,0,2.8,0.1,4.2l2.8-0.1c-0.1-1.4-0.1-2.8-0.1-4.2
				c0-5.3,0.4-10.8,0.8-16.1c0.2-2.9,0.4-5.8,0.6-8.6c20.7,0,42.9,0,64.9,0c-0.3,4-0.4,8.3-0.4,13.7c0,2.6,0,5.2,0.1,7.8
				c0,2.6,0.1,5.2,0.1,7.8h2.8c0-2.6,0-5.2-0.1-7.8c0-2.6-0.1-5.2-0.1-7.8c0-5.5,0.1-9.8,0.4-13.7c27.3,0,54.2,0,77.3,0
				c0,1-0.1,2-0.1,3c0,2.9,0.1,5.7,0.2,8.5c0.1,2.8,0.2,5.6,0.2,8.4c0,3.6-0.2,6.6-0.5,9.5c-108.2-0.1-245-0.2-247.8-0.3v-29.2
				c0.8,0,45,0,100.2,0.1C362.4,282.2,362.2,285,362,287.8z"/>
			<path class="st1" d="M293.6,233.6c0,4.6,1.1,9.3,2.1,13.8c0.6,2.4,1.1,4.8,1.5,7.1l2.8-0.3c-0.4-2.4-1-4.9-1.5-7.3
				c-1-4.4-2.1-8.9-2.1-13.3c0-1.1,0.1-2.2,0.3-3.2c13.5,0,30.3,0,48.8,0c0.8,4.1,1.4,8.2,1.9,12.2c0.5,4,1.1,8.2,1.9,12.4
				c-9.7,0-19,0-27.6,0c0,0,0,0,0,0l-0.2,0c-34.8,0-58.9,0-59.1,0v-24.7c0.6,0,12.6,0,31.5,0C293.7,231.4,293.6,232.4,293.6,233.6z"
				/>
			<path class="st1" d="M484.8,429.6l0.1-2.3c0.2-4.3,0.5-9.1,0.5-12.9c0-4.4-0.3-8.3-0.8-11.9c31,0,59.4,0,80.5,0.1
				c0.1,0.8,0.2,1.5,0.2,2.3c0,3.6-0.9,7-1.9,10.7c-1,3.7-1.9,7.4-1.9,11.3c0,0.5,0,1.6,0.1,2.5
				C540.8,429.5,513.9,429.5,484.8,429.6z"/>
			<path class="st1" d="M504.8,471.1c0,3.2-0.1,6.5-0.3,9.8c-0.2,3.5-0.3,7.1-0.3,10.7c0,3.6,0.2,6.7,0.5,9.6
				c-22.4,0-46.6-0.1-70.9-0.1c-1.3-9.6-2.7-20.4-2.9-30C456.2,471.1,481.5,471.1,504.8,471.1z"/>
			<path class="st1" d="M438.2,386l0,2.5c0,4.1,0.1,8.2,0.7,12.4c-27.9,0-56.1,0-81.5-0.1l2.4-0.1c-0.1-1.3-0.1-2.6-0.1-3.9
				c0-3.9,0.3-7.9,0.5-11.7c0.2-3.4,0.4-7,0.5-10.5c24.2,0,50.7,0.1,76.9,0.1C438.1,378.5,438.2,382.2,438.2,386z"/>
			<path class="st1" d="M418.3,503.2c1.5,15.5,6.1,37.9,6.2,38.1c0,0.2,0,0.5-0.1,0.8c-25.4,0-50.4-0.1-72.9-0.1
				c0.3-4.7,0.9-9.4,1.4-14c0.9-7.6,1.8-15.4,1.8-23.1c0-0.6,0-1.2,0-1.9C374.5,503.1,396.2,503.2,418.3,503.2z"/>
			<path class="st1" d="M298.8,541.6c-4-9.4-5.3-19.4-6.6-29c-0.4-3.2-0.9-6.5-1.4-9.7c15.8,0.1,37,0.2,61,0.2c0,0.6,0,1.2,0,1.9
				c0,7.6-0.9,15.4-1.8,22.9c-0.5,4.7-1.1,9.5-1.4,14.2c-19.4,0-36.9-0.1-51-0.1L298.8,541.6z"/>
			<path class="st1" d="M447.5,548.8c0,2.1,0.1,4.3,0.2,6.4c0.1,2.1,0.2,4.2,0.2,6.3c0,1.1,0,2.1-0.1,3.2l2.8,0.1
				c-26,0-52.5,0-77.1,0c0.5-3.6,1.3-7.2,2-10.6c0.7-3.3,1.5-6.8,2-10.2c22.5,0.1,46.5,0.1,70.2,0.2
				C447.6,545.5,447.5,547.1,447.5,548.8z"/>
			<path class="st1" d="M553.3,469.6c0.1-2.1,0.1-4.2,0.2-6.3c0.3-10.8,0.7-21.9,2.4-32c24.1,0,41.3-0.1,46.4-0.1
				c7.5,0,15.4-0.1,23.4-0.1c0,12.6,0,25.6-1.8,38.7c-6.5,0-12.9-0.1-19-0.1C599.5,469.6,580.2,469.6,553.3,469.6z"/>
			<path class="st1" d="M488.4,542.3c0.4-4.7,1.2-9.4,2-13.9c1.1-6,2.3-12.3,2.3-18.5c0-2.3-0.2-4.4-0.5-6.4
				c18.4,0.1,35.8,0.1,51.3,0.2c-0.1,0.9-0.1,2-0.1,3.5c0,4.6-0.2,9.3-0.4,13.8c-0.2,4.5-0.4,9.2-0.4,13.9c0,2.7,0.1,5.2,0.2,7.6
				C526.4,542.3,507.9,542.3,488.4,542.3z"/>
			<path class="st1" d="M531.6,345.4c-22.9,0-50.2-0.1-78.5-0.1c0.1-1,0.1-2.6,0.1-5.1c0-2.9-0.1-5.9-0.1-8.8
				c-0.1-2.9-0.1-5.8-0.1-8.8c0-4.5,0.2-8.2,0.5-11.6c25.7,0.1,51.4,0.1,75.1,0.2C529.8,322.5,530.6,333.4,531.6,345.4z"/>
			<path class="st1" d="M480.4,274.2c0-4.2-0.3-8.5-0.7-12.6c-0.1-1.6-0.3-3.3-0.4-4.9c30.7,0,57.8,0,75.6,0
				c-1.5,9.9-2.5,20.7-2.5,20.8l1.4,0.1c-18.2,0-44.4,0-73.7,0C480.4,276.5,480.4,275.4,480.4,274.2z"/>
			<path class="st1" d="M449.1,34.5c-0.2,1.7-0.3,3.3-0.5,5c-0.8,7.3-1.6,14.9-1.6,22.2c-33.1,0-68,0-98.4,0.1
				c-0.7-5.4-0.8-10.7-0.9-16c0-3.7-0.1-7.5-0.4-11.4C378.6,34.4,414.9,34.5,449.1,34.5z"/>
		</g>
	</g>
	<path class="st1" d="M860.7,377.5l3,0.2l0.2-1.2c1.4-9.1,2.9-18.6,5.2-27.8l-2.9-0.3c-2.4,9.2-3.8,18.7-5.3,27.9L860.7,377.5z"/>
</g>
<g>
	<g>
		<path class="st5" d="M115.1,221.1c0,0-10.5-3.5-17.9,9.8l-33.2,80L6.7,347.2l5.3,13.4l76.6-26.7l34.3-96.8
			C122.9,237.1,126.9,226,115.1,221.1z"/>
		<polygon class="st6" points="152.9,674.7 126.8,674.7 100.4,527.9 96.9,379.4 154.8,379.3 129.8,526.1 		"/>
		<polygon class="st6" points="188.1,676 162,676 150.4,379.3 201.9,379.4 		"/>
		<g>
			<polygon class="st7" points="161.2,216.4 138.5,216.4 133.5,184.4 163.2,184.4 			"/>
			<path class="st8" d="M112.9,190l-4.6-57.7c-1.5-37.2,38.3-35.2,38.3-35.2c34.7,0,32.3,20,32.3,20v65.2c0.4,9.8-7.8,14.5-7.8,14.5
				l-34.3,13.7c-4.9,1.7-9.2-0.4-9.2-0.4l-8.7-8.3C119,201.7,112.9,194,112.9,190z"/>
			<path class="st9" d="M110.4,158.3v-25.5c2.1-19.9,20-21.3,20-21.3c24.4-3.5,29.1,9.3,29.1,9.3l17.7-23.7
				c3-13.4-7.7-17.9-7.7-17.9c-30-15.8-63.1,1.8-63.1,1.8c8.1,3.3,12.2,6,12.2,6c-14.5,1.4-17.4,13.5-17.4,13.5
				c7.5-6.4,13.4-3.4,13.4-3.4c-18,11.4-12.7,24.3-12.7,24.3c0.8-5.7,8.4-12.7,8.4-12.7s-3.7,3.7-3.9,11.7l2.1,37.9H110.4z"/>
			<path class="st10" d="M159.5,120.8c0,0-21.1-4.5-28.7,2.6c-2.6-3.1-7.9-3.2-11.5-2.6c0,0,0.1,0,0.1,0c-6.5,1.2-9.8,12-9.1,17.6
				c0,0-2.9-23.8,17.6-27.5C156.8,106.7,160.2,123.1,159.5,120.8z"/>
			<path class="st9" d="M144.7,141h14c0,0,2.4-0.1,2.9,2.3c0,0,1.5-5.7-3.5-6.6h-13.4c0,0-1.1-0.2-1.4,0.7v3.1
				C143.3,140.5,143.5,141.1,144.7,141z"/>
			<path class="st9" d="M126.6,141H114c0,0-2.1-0.1-2.6,2.3c0,0-1.3-5.7,3.1-6.6h12.1c0,0,1-0.2,1.2,0.7v3.1
				C127.9,140.5,127.7,141.1,126.6,141z"/>
			<g>
				<path class="st8" d="M191.9,162.4c-2,6-5.8,10-10.1,10l0,0c-4.3,0-7.8-3.5-7.8-7.8v-11.3c0-4.3,3.5-7.8,7.8-7.8l0,0
					c4.3,0,8.1-1.1,10.1,2.9S193.9,156.4,191.9,162.4z"/>
			</g>
			<path class="st9" d="M159.5,120.8c13.8-0.1,15.4,12.1,15.4,12.1v25.3h3.2c0,0-1.2-10.3,4.4-11.9c0,0,2.4-0.9,5.4-0.9l2.4-36.1
				c0,0-0.9-12.3-13-12.3L159.5,120.8z"/>
			<path class="st10" d="M163.8,121.3c6.9-6.8,13.4-13.8,20-20.9c-1.4-1.6-3.4-2.9-6.4-3.4l-17.7,23.7c1.5,0.1,2.8,0.4,4,0.8
				C163.6,121.5,163.7,121.4,163.8,121.3z"/>
			<path class="st11" d="M134.8,146.4c-2.8,10.4-6.7,24.1-6.7,26.2c0,2,8.4,4.4,10,3.7c1.5-0.7-1.8-29.9-1.8-29.9H134.8z"/>
			<path class="st8" d="M136.3,145.4c-2.8,10.4-6.7,24.1-6.7,26.1c0,2,8.4,4.4,10,3.7c1.5-0.7-1.8-29.9-1.8-29.9H136.3z"/>
			<g>
				<path class="st12" d="M127.7,152.1c0.1-3.8-0.5-8.3-6.2-9.8c-5.8-1.5-8.5,3.7-8.4,5.6c0.1,1.9,1.7,4.7,4.9,5.1
					c3.2,0.3,6,0.1,7.2,0.2C126.3,153.4,127.6,152.9,127.7,152.1z"/>
				<circle class="st13" cx="120.9" cy="147.5" r="4.8"/>
				<path class="st12" d="M125,145.8c-0.1,1.2-1,2.2-2.2,2.1c-1.2-0.1-2.2-1-2.1-2.2c0.1-1.2,1-2.2,2.2-2.1
					C124.1,143.6,125,144.6,125,145.8z"/>
				<path class="st12" d="M142.6,152.6c0.2-3.8,0.9-8.2,6.8-9.4c5.9-1.2,8.3,4.2,8,6.1c-0.3,2-2,4.6-5.2,4.8c-3.2,0.2-6-0.4-7.2-0.2
					C143.9,153.9,142.5,153.4,142.6,152.6z"/>
				<path class="st13" d="M145.1,148c0,2.7,2,4.9,4.6,4.9c2.7,0,4.9-2,4.9-4.6c0-2.7-2-4.9-4.6-4.9
					C147.3,143.2,145.2,145.3,145.1,148z"/>
				<path class="st12" d="M149.6,146.2c-0.1,1.2,0.9,2.2,2.1,2.2c1.2,0.1,2.2-0.9,2.2-2.1c0.1-1.2-0.9-2.2-2.1-2.2
					C150.6,144.1,149.6,145.1,149.6,146.2z"/>
			</g>
			<g>
				<path class="st14" d="M123.4,184.6l23.2-2.3c0,0-1.9,13.4-10.2,14.1C126.2,197.3,123.4,184.6,123.4,184.6z"/>
				<path class="st12" d="M127.1,184.7l1.8,2.7c0,0,1.7,3.1,6.5,2.1s8.4-4.5,8.4-4.5l0.4-1.9L127.1,184.7z"/>
			</g>
		</g>
		<path class="st7" d="M191.9,219.9l-30.5-6.3H147h-2.3h-6.6l-25.3,6.3c0,0-12.3,1.2-13.5,12.9l6.7,138.6H147h46.5l11.9-138.6
			C204.2,221.2,191.9,219.9,191.9,219.9z"/>
		<path class="st6" d="M96.9,372l106.7-0.3c0,0,8.3,46-56.5,45.7C147.1,417.5,96.9,422.2,96.9,372z"/>
		<path class="st15" d="M149,410.1c-13-3.8-24.6-9.1-31-19.5c-3.5-5.7-4.6-12.5-2.4-18.6l-18.7,0c0,50.2,50.2,45.5,50.2,45.5
			c19.4,0.1,32.2-4,40.7-9.7C175.8,412.5,162.2,413.9,149,410.1z"/>
		<path class="st16" d="M161.4,213.6l30.5,6.3c0,0,12.3,1.2,13.5,12.9l-1.7,157.4H95.9l3.5-157.4c1.2-11.7,13.5-12.9,13.5-12.9
			l25.3-6.3C138.1,213.6,149.9,222,161.4,213.6z"/>
		<g>
			<polygon class="st17" points="-0.2,365.1 11.6,359.4 7.7,349.4 0.3,352.9 			"/>
			<g>
				<g>
					<path class="st18" d="M-7.4,361.8c0,0-9.7,4.6-12.7,6.1c0,0-0.9,0.9-0.3,1.7c0,0,0.5,0.5,1.6,0.1c0,0,7.7-2.6,12.8-5.2l-8,5.4
						c0,0-0.5,0.6,0,1.1c0,0,0.5,0.7,1.4,0.2l9.6-4.1c0,0,8.3-3.1,8.2-6.2c1-8.2-11.1-10.9-11.1-10.9c-1.4-0.4-2.9-0.8-4.3-1.2
						c-0.4-0.1-0.8-0.2-1.1-0.3c-1.7-0.5-2.2,0.6-2.2,0.6c-0.6,1.3,0.8,2,0.8,2l7.1,3.2l-17.1,6.3c0,0-2.3,1-1.7,2.3
						c0,0,0.2,0.9,2.6,0l14.5-4.2c0,0-13.6,5.5-16.7,6.8c0,0-1.2,0.9,0.1,1.9c0,0,0.8,0.5,2.9-0.6C-21.1,366.8-8.5,362.5-7.4,361.8"
						/>
				</g>
			</g>
		</g>
		<g>
			<g>
				<path class="st19" d="M186,204.9c-1.4-3.1-3.9-1.6-4.4-7.3s-0.9-13.7-0.9-13.7l13.2,3.2l0,9.1L186,204.9z"/>
				<path class="st20" d="M191.7,137.5c-1.9-1.7-4.8-2-5.5-0.5c-0.7,1.5-9.5,42.3-9.8,43.8s0.8,3.2,2.8,4.4
					C181.2,186.5,191.7,137.5,191.7,137.5z"/>
				<path class="st21" d="M189.9,191.9l-10.7-6.7c-0.6-0.4-0.9-1.1-0.7-1.8l10.5-45.1c0.3-1.2,1.8-1.7,2.8-0.9l11.9,10.9
					c0.5,0.4,0.7,1.1,0.5,1.7L192.4,191C192.1,192,190.9,192.5,189.9,191.9z"/>
				<path class="st22" d="M188.8,194.9c1-2.2,0.2-6.3-0.2-7.5c-1.1-3.4-4.7,4.7-6.2,3.7c-2.6-1.7,1.8-9,3.3-9.8c1.5-0.9,5,1.2,5,1.2
					s-3.4-4.3-4.7-5.4c-1.2-1.1-3.8-0.8-6.1-1.1c-2.1-0.3-2.4-2.9-0.2-4c1.9-1,4.2-1.5,7.5-0.4c3.3,1.1,5.6,5.9,5.6,5.9l-2-7.4
					c-0.1-0.5-0.5-1-0.9-1.3c-1.3-0.9-4.1-2.6-6.3-3.4c-4-1.3-2.1-5.1,0.1-4.8c2.2,0.3,7.4,0,9.8,1.8c2.4,1.8,3.3,7.6,3.3,7.6
					s-2-13.6-1.6-15.4c0.4-1.8,4-5.4,4.9-2.2c0.9,3.1,2.1,9.7,2.1,14.5c0,4.8-2.7,27.1-2.1,33.3c1.8,18.4,4.2,14,9.1,26.3
					c5,12.3-19.1,13.9-19.2,4.1c-0.1-11.2-6.2-24.6-4.7-28.1C185.7,201.3,187.7,197.1,188.8,194.9z"/>
				<path class="st23" d="M190.5,141.4c0.1,0.9,0.7,1.6,1.3,1.5c0.6-0.1,1-0.9,0.9-1.8c-0.1-0.9-0.7-1.6-1.3-1.5
					C190.8,139.7,190.4,140.5,190.5,141.4z"/>
			</g>
			<g>
				<g transform="matrix(-1.27969,0.349765,-0.419718,-1.06641,270.346,213.249)">
					<path class="st5" d="M66.9-70.2c1.4-0.5,23.2,5.4,14,24.2C73.3-30.4,63.1,5.8,59,25.1l-13.2-1.3C46.4-21.7,58.1-67.2,66.9-70.2
						z"/>
				</g>
			</g>
		</g>
	</g>
</g>
<rect x="254.9" y="-32.6" class="st24" width="35" height="681"/>
<g>
	<g>
		<path class="st25" d="M404.9,472.9c1.4,4,9.5,15,14.2,21.9c5,7.4,20.7,43.3,28,67.7s10.6,35.3,9.5,41.3c-1.1,6-3,20.4-9.6,26.3
			c-5.5,5-16.1,13.2-9.9,15.8c6.2,2.6,24.6-5.5,27.8-11.7c3.2-6.3,5.6-13.8,10.6-17.5l2,8.2l8-3.6c0,0,1.7-13.1-5.4-21.8
			c-7.1-8.8-9.1-7.6-11.6-21.7c-2.5-14.1-2.6-71.8-16-93c-13.4-21.3-18.5-16.4-22-33.9l-30.8,10.8
			C399.6,461.7,403.9,470,404.9,472.9z"/>
		<g>
			<path class="st26" d="M456.7,598.9c-0.7-6.7-3.9-17.5-9.6-36.3c-7.3-24.4-22.9-60.2-28-67.7c-4.7-7-12.8-17.9-14.2-21.9
				c-1-2.9-5.3-11.2-5.3-11.2l6.8-2.4c2,7.6,5.3,16.7,10.3,21C425.8,488.3,447.8,539.8,456.7,598.9
				C456.7,598.8,456.7,598.9,456.7,598.9z"/>
			<path class="st26" d="M454.9,612.8c0.8-3.5,1.3-6.8,1.7-8.9c0-0.2,0.1-0.5,0.1-0.8C456.6,607.8,455.9,610.9,454.9,612.8z"/>
		</g>
		<path class="st27" d="M437.2,646c-5.8-2.4,3-9.8,8.6-14.8c0.9,0.6,3.3,1.8,7.8,0.3c9-3,14.8-22.3,19-29.2c2.6-4.2,5.7-4.7,5.6-4.9
			c0.6,0.6,1.1,1.3,1.8,2.1c7.1,8.7,5.4,21.8,5.4,21.8l-8,3.6l-2-8.2c-5,3.7-7.4,11.3-10.6,17.5C461.7,640.5,443.4,648.6,437.2,646z
			"/>
		<path class="st28" d="M437.2,646c-0.8-0.4-1.4-0.8-1.6-1.4c7.5,2.8,20.3-3.5,25.8-8.5c4.8-4.3,6.5-12,10.6-17.8
			c3.9-5.5,11.8-9,12.6-9.4c1.6,6.5,0.9,12.4,0.9,12.4l-8,3.6l-2-8.2c-5,3.7-7.4,11.3-10.6,17.5C461.7,640.5,443.4,648.6,437.2,646z
			"/>
		<path class="st29" d="M454.5,635.5c-1.7-1.4-6.7-0.2-8.2,2.7C444.8,641.1,457.6,638.2,454.5,635.5z"/>
	</g>
	<g>
		<path class="st25" d="M365.3,466.9c0,1.5,2.3,16.8,5.1,24.7c4.4,12.2,7.6,47.8,8.8,80.8c0.8,21.5,1.9,37.7-4.1,47.5
			c-4.5,7.3-8.8,11.8-15.9,15.1c-9.4,4.4-10.8,10.6,1.6,10.9c11.5,0.2,14.4-2.9,21-9.3c6.6-6.5,10.1-6.3,10.1-6.3l-0.2,7.2l6.8-2.2
			c0,0,5.8-11.3,2.5-18.4c-3.3-7.1-5.2-5-4.8-15.5c0.4-14,6.7-52.3,8.6-69.5c1.9-17.2,1.3-29.9-3.4-43.6
			c-4.7-13.7-2.7-27.6-2.7-27.6l-33.8,1.7L365.3,466.9z"/>
		<path class="st26" d="M379.2,572.4c-1.2-33-4.4-68.6-8.8-80.8c-2.9-8-5.2-23.2-5.1-24.7l-0.5-4.5l7.6-5.5c0,0-3.2,20.1,3.6,29.8
			c5.4,7.7,8.8,64.6,3.5,118.4l0,0C380.2,596.1,379.7,585.2,379.2,572.4z"/>
		<path class="st27" d="M359.3,635c0.8-0.4,1.6-0.8,2.4-1.2l0,0c6.4,4,13.7,4.4,21.4-5.8c9.5-12.6,16.7-13.5,16.7-13.5
			c0.4,0.7,0.7,1.5,1.1,2.3c3.3,7.1-2.5,18.4-2.5,18.4l-6.8,2.2l0.2-7.2c0,0-3.5-0.1-10.1,6.3c-6.6,6.5-9.5,9.5-21,9.3
			C348.4,645.6,349.9,639.4,359.3,635z"/>
		<path class="st28" d="M401.6,625.2c-0.8,5.2-3.2,9.9-3.2,9.9l-6.8,2.2l0.2-7.2c0,0-3.5-0.1-10.1,6.3c-6.6,6.5-9.5,9.5-21,9.3
			c-4.9-0.1-7.7-1.1-8.6-2.6c4.8,2.7,19.9,0.5,23.2-2.2c3.3-2.7,8.6-8.5,12.1-10.7C390,628.8,397.3,626.5,401.6,625.2z"/>
		<path class="st29" d="M354.3,638.1c1.2-1,2.8-2,4.7-3c1.1,0.3,3.3,3.1,3.7,3.8C364,641.3,357.3,639,354.3,638.1z"/>
	</g>
	<g>
		<path class="st30" d="M441.6,332c0,0,14,34.6,14.9,53.5c1.3,26.9-9.3,31.9-12.5,86.3c0,0-40.4,8.1-79.4-2.2c0,0-6-25.3-6.4-75.7
			c-0.3-33.5,15.2-62.3,15.2-62.3S425.1,335.4,441.6,332z"/>
		<path class="st31" d="M378.7,332l-7.1,19.7c0,0-19.5,40.2-1.3,119.3c-1.9-0.4-3.8-0.9-5.8-1.4c0,0-6-25.3-6.4-75.7
			c-0.3-33.5,15.2-62.3,15.2-62.3S375.4,331.8,378.7,332z"/>
		<path class="st31" d="M365,352.3c4-12.6,8.4-20.7,8.4-20.7s51.7,3.8,68.3,0.3c0,0,2.6,6.4,5.6,15.1l-2.7,2.9
			c0,0-30.3,14.9-54.1,4.9c-19.2-8-6.7,8.7,15.2,9.5C433,365.4,369.8,376.8,365,352.3z"/>
		<path class="st31" d="M438.9,332.4c1-0.1,1.9-0.3,2.7-0.5c0,0,14,34.6,14.9,53.5c1.3,26.9-9.3,31.9-12.5,86.3c0,0-2,0.4-5.4,0.9
			c-5.3-35,3.5-46.8,9.2-73.6c5-23.1-3.1-43.8-5.8-52.4C440.1,340.7,438.9,332.4,438.9,332.4z"/>
	</g>
	<g>
		<path class="st25" d="M333.9,156.4c0,0-7.2,9.6-8,12c-2,6-2,9-0.9,15.1c0.5,2.8,1.7,7.5,1.7,7.5l8.3,3.6l12.9-15.2l-6-21
			L333.9,156.4z"/>
		<path class="st32" d="M337.9,220.1c0,0-26.5,30.2-32.5,39.4c-6.1,9.3,0.2,16.6,8.1,16.4s37.3-26.1,37.3-26.1
			S350.2,219.9,337.9,220.1z"/>
		<path class="st32" d="M335.9,195.7c0,0-6.8,49.6-12.5,66.1c-1.1,3.1-7.3,13.4-7.3,13.4s-11.2,4.4-14.1-6.7
			c-4.1-16.1,6.4-36.5,12.9-52.6c4.4-11.1,7.9-24.7,7.9-24.7L335.9,195.7z"/>
		<g>
			<path class="st25" d="M389.9,172c0,0-1.3,17.5,3.8,25.6c5.1,8.1-12.2,19.9-17,18.1c-4.8-1.8-10.4-8.6-9.7-12.7
				c0.7-4,1.1-14.7-0.2-24C366.8,179.1,384.3,168.3,389.9,172z"/>
			<path class="st26" d="M374.7,199.2c-5.2-0.4-7.1-3.2-7.1-3.2c0.2-4.9,0-11.2-0.8-16.9c0,0,17.5-10.8,23.1-7.1
				c0,0-0.8,11.1,1.4,19.7C391.4,191.6,383.3,199.8,374.7,199.2z"/>
			<path class="st12" d="M407,201.3l-2.4-2.3l-6.1,0.9c0,0-9.7,9.7-21.2,10.2c-9,0.4-12.6-5.1-12.6-5.1l-4.9,0.8l-5,4.3l4.5,46.3
				l29.4,25.9l28.6-39.2L407,201.3z"/>
			<path class="st33" d="M405.7,200.1c0,0-8.9,24.5-19.8,28.3l-8.3-12.5l-4.8,12.8c0,0-11.3-6.5-13.8-20l0.9-2.8l10.5,3.6l7.1,1.3
				l14.8-1l12.4-10.6L405.7,200.1z"/>
			<path class="st34" d="M354.8,207.9c1.7-0.8,3.4-1.5,5.1-2.1c0,0,3.5,30,22.1,56l4.5,9.1C361.6,250.7,356,218.7,354.8,207.9z"/>
			<path class="st32" d="M337.9,220.1c0,0,7.6-7.6,16.9-12.2c1.2,10.8,6.8,42.8,31.7,63l3.7,7.4l8.9,46.4c0,0,4.7,15.2-5.1,20.1
				c-13.4,6.8-27.1-0.1-27.1-0.1s1.5-15.2,0-28.9c-1.5-13.8-2.6-27.5-10.4-34.5c-8.5-7.6-10-16.1-10.7-33
				C345,231.6,337.9,220.1,337.9,220.1z"/>
			<path class="st32" d="M387.4,283.7c-2.1-6.3-4.3-11.3-4.9-15.2c22.2-23.6,26.7-58.6,27.6-69.4c5.4,0.3,14.1,1.4,23.7,4.9l1,53.4
				c-5.6,12.2-8.7,31.9-3.3,46.8c4.7,12.9,14.3,27.8,14.3,27.8s-12.8,10.6-39,12.9c-5.8,0.5-11.3-1-12.1-3.2
				C392.6,336.2,393.7,302.3,387.4,283.7z"/>
			<path class="st34" d="M382.5,268.5c-0.7-4.1-0.5-6.7-0.5-6.7c9.3-11.6,21.9-42.3,22.6-62.8c0,0,2-0.1,5.4,0.1
				C409.2,209.9,404.7,244.9,382.5,268.5z"/>
			<path class="st12" d="M392.6,195.4c0,0,0.6-1.7,5.3,0.5c3.4,1.6,6.7,3.1,6.7,3.1s-7.5,18.4-17.8,25.4l-9.5-14.3l-5.6,14.7
				c0,0-7.4-4.6-11.9-19c0,0,5.7-7,7.6-6.5c0,0,5.6,11.5,9.9,10.8C384.8,208.8,392.6,195.4,392.6,195.4z"/>
			<path class="st35" d="M418.3,272.8c11-9.8,11.5-38.9,11.5-38.9l4.2-0.6l0.5,24.3c-5.6,12.2-8.7,31.8-3.3,46.6
				c4.7,12.9,14.3,27.8,14.3,27.8s-1.9,1.6-5.7,3.6c-11.4-15-18.2-31.7-20.5-38C417.1,291.5,412.3,278.2,418.3,272.8z"/>
			<path class="st35" d="M360.3,277.8c13.9,10.5,12,11.5,9.6,15.4c-1.8,3.1,2.3,32.5-1.2,52.5c-1.1-0.4-2-0.9-2-0.9s1.5-15.2,0-28.9
				c-1.5-13.8-2.6-27.5-10.4-34.5c-8.5-7.6-10-16.1-10.7-33c-0.1-3-0.4-5.9-0.9-8.6l0.3-0.5C345.1,239.2,348.1,268.4,360.3,277.8z"
				/>
			<path class="st35" d="M387.4,283.7c6.3,18.6,5.3,52.4,7.3,58c0.2,0.6,0.8,1.1,1.5,1.6c-0.4,0.3-0.8,0.6-1.2,0.9
				c-3.9-1.5-3.4-17.8-4.4-32c-0.9-12.1-1.3-20.5-4.5-28.4c-6-14.7-5.4-18.1-4.9-21.2c0.2-1,0.8-0.8,0.8-0.8s-0.2,2.6,0.5,6.7
				C383.1,272.5,385.2,277.4,387.4,283.7z"/>
			<path class="st36" d="M395.8,334.3c0.2,0.9,1.1,1.6,2,1.4c0.9-0.2,1.6-1.1,1.4-2c-0.2-0.9-1.1-1.6-2-1.4
				C396.2,332.4,395.6,333.3,395.8,334.3z"/>
			<path class="st36" d="M384.8,272.7c0.2,0.9,1.1,1.6,2,1.4c0.9-0.2,1.6-1.1,1.4-2c-0.2-0.9-1.1-1.6-2-1.4
				C385.2,270.8,384.6,271.7,384.8,272.7z"/>
			<path class="st36" d="M394.5,315.3c0.2,0.9,1.1,1.6,2,1.4c0.9-0.2,1.6-1.1,1.4-2c-0.2-0.9-1.1-1.6-2-1.4
				C395,313.5,394.4,314.4,394.5,315.3z"/>
			<path class="st36" d="M391.3,293c0.2,0.9,1.1,1.6,2,1.4c0.9-0.2,1.6-1.1,1.4-2c-0.2-0.9-1.1-1.6-2-1.4
				C391.8,291.2,391.1,292.1,391.3,293z"/>
		</g>
		<g>
			<path class="st37" d="M330.6,107c0,0-4.1,1.6-6.4-2.3c0,0,4.2,1,12.3-7.2C344.7,89.3,366,63.7,388,87c0,0,10.2-4,20.9,3.4
				c8.5,5.9,18.9,20.2,16.1,32.1c-0.1-0.6-1.2-4.9-2.6-7.4c0,0,2.1,10.1,0.4,15.8c-2.6,10.2-13.3,21.1-13.3,21.1l-8,1.3
				c0,0-10.4-45.8-21.8-51.6c-11.3-5.8-27.9,8.4-31.5,19.6c-3.6,11.2-4.2,35.4-4.2,35.4l-9-5.9c0,0-0.7-6.6-4.8-12.9
				C326.1,131.5,317.5,116.4,330.6,107z"/>
			<path class="st26" d="M340.7,146.2c0,0-4.3-2.9-7.4,2.4c-2,3.4,1.5,14.2,8.6,18.1L340.7,146.2z"/>
			<path class="st38" d="M340.5,148.8c0,0-2.1-1.9-3.9-0.5c-1.8,1.4-3.1,5.4-1.6,5.1c1.6-0.3,1.2-2.4,2.5-2.5
				c1.2-0.1,1.2,3.2,0.1,4.4c-1.1,1.2,0.5,5.4,2.7,6.5L340.5,148.8z"/>
			<path class="st26" d="M405.3,147.5c0,0,6.5-8.1,10.3-3c3.8,5.2,0.1,15.7-6,18.9c-4.6,2.4-7.8,1.2-7.8,1.2L405.3,147.5z"/>
			<path class="st38" d="M405.9,149.2c0,0,3.6-6.5,7.4-3.3c3.8,3.2,1.1,9.8,0.6,8.5c-0.5-1.3-0.1-6.5-2.2-6c-2.1,0.5-1.8,3.9-0.7,7
				c1.1,3.1-1.2,5.1-2.5,3.5c-1.3-1.6-1.9,3.1-3.8,2L405.9,149.2z"/>
			<path class="st25" d="M409,141.2c0,0-4.4,25.7-10.9,33.1c-6.5,7.4-24.2,20-31.2,19.6c-7-0.4-22-13.9-25.2-23.1
				c-5-14.4,0.1-17.4-2.9-33.9c-1.7-9.2-0.4-45,34.3-44.4C407.8,93,410.7,132.8,409,141.2z"/>
			<path class="st37" d="M391.6,108.2c0,0,6.9-3.3,11.9,9.9c5.1,13.2,3.5,32.4,3.5,32.4s12.5-16.4,9.1-32
				c-3.4-15.6-16.7-22.9-24.8-26.5c-8.1-3.6-23.8-7.2-34.7-2.1c-10.9,5.1-22.1,26.2-22.8,33.5c-0.7,7.3,5.2,15.5,5.2,15.5
				s-1.2-12.1,1.9-16.6c0,0-2.7,7.6,1.2,15.2c0,0,5.1-20.5,21.6-30.8C374.7,99.9,389.3,97.9,391.6,108.2z"/>
			<path class="st39" d="M410.4,102.3c4.3,1.2,5.8-5.1,5.8-5.2c2.4,2.8,4.7,6.1,6.3,9.6c-3.2,1.9-9,4.9-11.1,2.3
				c-2.9-3.6-6.8-2.1-6.8-2.1S406,101.2,410.4,102.3z"/>
			<path class="st39" d="M339.2,94.8c2.4-2.5,5.4-5.5,8.9-8.4c1.8,1.3,4.1,3.3,4.3,6.2c0.5,7.7,5.8,5.9,5.8,5.9s-8.5,6.8-12.3,0.9
				C344.3,96.8,343.6,94.1,339.2,94.8z"/>
			<path class="st40" d="M266.9,85.3c-0.1-1-0.4-2.1-0.8-3.4C266.2,83.1,266.5,84.2,266.9,85.3"/>
			<g>
				<path class="st37" d="M343.5,133.4l-0.2-1.1c5.1-4.7,13.8-5,17.6-3.9l-0.3,2.8C357.6,130,348.8,129.8,343.5,133.4z"/>
				<path class="st37" d="M397.6,131.5c-7.6-2.9-19.5-0.8-22.2,0.2l-0.5-2.8c3.1-1,14.4-2.4,23.3,1.5L397.6,131.5z"/>
				<path class="st12" d="M378,143.8c-1.1-1.6,1.5-7,7-8.1s7.8,2.6,7.8,4c0,1.4-0.9,3.9-4.1,4.9c-3.1,1-5.6,0.4-7,0.2
					C379.9,144.5,378.6,144.8,378,143.8z"/>
				<circle class="st13" cx="384.7" cy="139.1" r="4.6"/>
				<circle class="st12" cx="381.9" cy="140.1" r="1.8"/>
				<path class="st13" d="M377.7,142.6c0,0-0.4-2.7,3.1-5.9c3.6-3.2,7.7-2,8.9-2.1c1.2-0.1,2.4,0.4,2,0.6c-0.4,0.3,0.6,1.3,1.5,1.2
					s-0.1,0.8-0.1,1.1c0,0.3,1.6,0.4,1.7,0.7c0.1,0.4-1,1-0.8,1.1c0.2,0.1,1.1,0.9,0.6,1.1c-0.5,0.3-1.4,1.3-1.8,1.7
					c-0.4,0.4-1.4,0.7-1.4,0.7s1.3-2.1,0.8-3.7c-0.6-1.6-2.2-3.4-5.3-3.3s-5,1.3-6.4,2.4C379.2,139.4,377.7,142.6,377.7,142.6z"/>
				<path class="st12" d="M360.6,143.4c1.1-1.5-1.1-6.7-6.2-8c-5.1-1.4-7.5,2.1-7.6,3.5c-0.1,1.4,0.7,3.7,3.6,4.8
					c2.9,1.1,5.3,0.7,6.7,0.5C358.7,143.9,359.9,144.2,360.6,143.4z"/>
				<circle class="st13" cx="354.4" cy="138.7" r="4.4"/>
				<path class="st12" d="M353.8,139.9c0,1-0.7,1.8-1.7,1.8c-1,0-1.8-0.7-1.8-1.7c0-1,0.7-1.8,1.7-1.8
					C353,138.2,353.8,138.9,353.8,139.9z"/>
				<path class="st13" d="M360.9,142.2c0,0,0.5-2.6-2.7-5.7c-3.2-3.2-7.2-2.3-8.4-2.4c-1.1-0.2-2.3,0.2-1.9,0.5
					c0.4,0.3-0.6,1.2-1.5,1c-0.9-0.2,0,0.8,0,1.1c0,0.3-1.5,0.3-1.6,0.6c-0.1,0.3,0.9,1,0.7,1.1c-0.2,0.1-1.1,0.8-0.6,1.1
					c0.4,0.3,1.3,1.3,1.7,1.7c0.4,0.4,1.3,0.7,1.3,0.7s-1.2-2-0.6-3.5c0.6-1.5,2.3-3.1,5.1-2.9c2.9,0.2,4.7,1.5,6,2.6
					C359.6,139.1,360.9,142.2,360.9,142.2z"/>
				<path class="st38" d="M366.2,149.2c-1.3,4.7-3.9,9.4-6.3,11.3c0,0,5.6,3.8,9.7,4.1l-6.4-4.9c0,0,4.7-8.1,4.5-11.6
					C367.6,144.7,367.1,145.8,366.2,149.2z"/>
			</g>
			<ellipse class="st41" cx="366.9" cy="175.9" rx="8" ry="4.5"/>
		</g>
		<path class="st32" d="M433.7,204c0,0,14.5,13.9,28.3,39.5c13.8,25.6,22,34.2,23.7,44.9c0.4,2.3-14.8,12.5-19.1,4.8
			c-7-12.4-32-35.9-32-35.9S423.3,229.2,433.7,204z"/>
		<path class="st25" d="M326.4,168.1"/>
		<path class="st35" d="M462.1,243.5c13.8,25.6,22,34.2,23.7,44.9c0.1,0.8-1.7,2.7-4.4,4.3c0-1.1-0.1-2-0.2-2.8
			c-1.9-13.6-32.7-68-33.4-69.1C452.2,226.9,457.2,234.5,462.1,243.5z"/>
		<g>
			<g>
				<path class="st26" d="M461.8,354.4c0,0-5.4,8.8-8.5,15.8c-1.8,4.1,4.4,11.3,4.4,11.3L461.8,354.4z"/>
				<path class="st25" d="M471.4,357.8c0,0,4.5,15.2,2.6,22c-1.9,6.8-2.3,7.7-4.8,6.2c-2.5-1.5-2.3,1-4,1c-2.7,0-1.3-3.5-5.1-1.1
					c-1.8,1.2-2.1-3.7-5.1-2.4c-7.3,3.2,1.4-17.8,4.8-27.1C462.5,349,471.4,357.8,471.4,357.8z"/>
			</g>
			<path class="st32" d="M484.1,282.3c0,0,4.9,10.1,1,28.4c-3.6,17.3-9,35.8-10.4,42.7c0,0-10.9-1.6-15.4-5.1c0,0,3.5-24.1,3.1-34.9
				c-0.4-11.2,1.1-23.2,3.3-29.3C469.7,273.7,484.1,282.3,484.1,282.3z"/>
			<path class="st35" d="M477.9,279.7c3.4,1,6.2,2.6,6.2,2.6s4.9,10.1,1,28.4c-3.2,15.1-7.6,31.1-9.7,39.5l-3.5,0.9
				c0,0,11.2-47.5,9.3-61.3C480.9,287.6,479.6,284,477.9,279.7z"/>
			<path class="st34" d="M476.1,347.7c0,0,1,13.5-4.6,13.8c-2.9,0.2-12.5-0.6-13.5-3.8c-1.1-3.2,2.1-14.3,2.1-14.3
				S466.3,349.2,476.1,347.7z"/>
		</g>
		<path class="st35" d="M331.1,197.5l4.3,1.6c-1.6,11.5-7.2,48.8-12,62.7c-0.1,0.2-0.1,0.3-0.2,0.5c-0.1,0.3-0.3,0.7-0.4,1
			c0,0,4.4-25.3,6.3-40.6C330.3,212.4,331.1,197.5,331.1,197.5z"/>
		<path class="st34" d="M335,201.8c0,0,2.6-7.6,2-9.2c-0.6-1.6-12.5-5.6-13.2-4.8c-0.8,0.8-2.1,4.9-2.6,9.9
			C321.1,197.6,330.2,197.5,335,201.8z"/>
	</g>
</g>
</svg>
