<?xml version="1.0" encoding="utf-8"?>
<!-- Generator: Adobe Illustrator 24.0.3, SVG Export Plug-In . SVG Version: 6.00 Build 0)  -->
<svg version="1.1" id="Layer_1" xmlns="http://www.w3.org/2000/svg" xmlns:xlink="http://www.w3.org/1999/xlink" x="0px" y="0px"
	 width="480px" height="600px" viewBox="0 0 480 600" style="enable-background:new 0 0 480 600;" xml:space="preserve">
<style type="text/css">
	.st0{fill:#A2CA39;}
	.st1{fill:#7CC6EE;}
	.st2{fill:#1D75B8;}
	.st3{fill:#FFFFFF;}
	.st4{fill:#2BA8DF;}
	.st5{fill:#063B5B;}
	.st6{fill:#2176BB;}
	.st7{fill:#12AAC2;}
	.st8{fill:#009F4C;}
	.st9{fill:#D5D8D8;}
	.st10{fill:#5D7999;}
	.st11{fill:#231F20;}
	.st12{clip-path:url(#SVGID_2_);fill:#A2CA39;}
	.st13{clip-path:url(#SVGID_4_);fill:#009F4C;}
	.st14{fill:#2275B8;}
</style>
<g>
	<rect x="-2.2" y="-0.5" class="st0" width="509" height="601.2"/>
	
		<ellipse transform="matrix(0.7071 -0.7071 0.7071 0.7071 -97.6507 270.2747)" class="st1" cx="277.4" cy="253" rx="250.2" ry="250.2"/>
	<path class="st2" d="M137.4,390.9c0,42.8-34.7,77.4-77.4,77.4c-42.8,0-77.4-34.7-77.4-77.4c0-42.8,34.7-77.4,77.4-77.4
		C102.7,313.5,137.4,348.1,137.4,390.9z"/>
	<g>
		<path class="st3" d="M5.9,334.3c222.9,0,410.2-152.3,463.4-358.6H-17.5C-17.5-24.3-217,334.3,5.9,334.3z"/>
	</g>
	<g>
		<path class="st4" d="M533.6,207.4c-211.7,22.7-382.1,183.4-419.4,390.3H547C547,597.7,550.6,205.6,533.6,207.4z"/>
	</g>
	<g>
		<g>
			<path class="st5" d="M101.7,434.7c-1,0-1.9-0.4-2.5-1c-0.7-0.6-1-1.6-1-2.5c0-0.9,0.4-1.9,1-2.5c1.3-1.3,3.7-1.3,5,0
				c0.7,0.6,1.1,1.6,1.1,2.5c0,1-0.4,1.9-1.1,2.5C103.6,434.4,102.7,434.7,101.7,434.7z"/>
		</g>
		<g>
			<path class="st5" d="M114,418.9c-1.4-1.4-1.4-3.7,0-5.1l0,0c1.4-1.4,3.7-1.4,5.1,0l0,0c1.4,1.4,1.4,3.7,0,5.1l0,0
				c-0.7,0.7-1.6,1-2.5,1l0,0C115.6,419.9,114.7,419.6,114,418.9z M128.8,404.1c-1.4-1.4-1.4-3.7,0-5.1l0,0c1.4-1.4,3.7-1.4,5.1,0
				l0,0c1.4,1.4,1.4,3.6,0,5.1l0,0c-0.7,0.7-1.6,1-2.5,1l0,0C130.4,405.1,129.5,404.8,128.8,404.1z M143.6,389.3
				c-1.4-1.4-1.4-3.6,0-5l0,0c1.4-1.4,3.7-1.4,5.1,0l0,0c1.4,1.4,1.4,3.6,0,5l0,0c-0.7,0.7-1.6,1.1-2.5,1.1l0,0
				C145.2,390.4,144.3,390,143.6,389.3z M158.4,374.5c-1.4-1.4-1.4-3.6,0-5l0,0c1.4-1.4,3.6-1.4,5,0l0,0c1.4,1.4,1.4,3.6,0,5l0,0
				c-0.7,0.7-1.6,1-2.5,1l0,0C160,375.5,159.1,375.2,158.4,374.5z M173.2,359.7c-1.4-1.4-1.4-3.7,0-5.1l0,0c1.4-1.4,3.6-1.4,5,0l0,0
				c1.4,1.4,1.4,3.7,0,5.1l0,0c-0.7,0.7-1.6,1-2.5,1l0,0C174.8,360.7,173.9,360.4,173.2,359.7z M188,344.9c-1.4-1.4-1.4-3.7,0-5.1
				l0,0c1.4-1.4,3.7-1.4,5.1,0l0,0c1.4,1.4,1.4,3.7,0,5.1l0,0c-0.7,0.7-1.6,1-2.5,1l0,0C189.6,345.9,188.7,345.6,188,344.9z
				 M202.9,330.1c-1.4-1.4-1.4-3.6,0-5l0,0c1.4-1.4,3.6-1.4,5,0l0,0c1.4,1.4,1.4,3.6,0,5l0,0c-0.7,0.7-1.6,1.1-2.5,1.1l0,0
				C204.5,331.1,203.5,330.8,202.9,330.1z M217.7,315.3c-1.4-1.4-1.4-3.6,0-5l0,0c1.4-1.4,3.6-1.4,5,0l0,0c1.4,1.4,1.4,3.6,0,5l0,0
				c-0.7,0.7-1.6,1-2.5,1l0,0C219.3,316.3,218.3,315.9,217.7,315.3z M232.5,300.5c-1.4-1.4-1.4-3.7,0-5.1l0,0c1.4-1.4,3.6-1.4,5.1,0
				l0,0c1.4,1.4,1.4,3.7,0,5.1l0,0c-0.7,0.7-1.6,1-2.5,1l0,0C234.1,301.5,233.1,301.1,232.5,300.5z M247.3,285.7
				c-1.4-1.4-1.4-3.7,0-5.1l0,0c1.4-1.4,3.7-1.4,5.1,0l0,0c1.4,1.4,1.4,3.7,0,5.1l0,0c-0.7,0.7-1.6,1-2.5,1l0,0
				C248.9,286.7,248,286.3,247.3,285.7z M262.1,270.8c-1.4-1.4-1.4-3.6,0-5l0,0c1.4-1.4,3.6-1.4,5,0l0,0c1.4,1.4,1.4,3.6,0,5l0,0
				c-0.7,0.7-1.6,1.1-2.5,1.1l0,0C263.7,271.9,262.8,271.5,262.1,270.8z M276.9,256c-1.4-1.4-1.4-3.6,0-5l0,0c1.4-1.4,3.6-1.4,5,0
				l0,0c1.4,1.4,1.4,3.6,0,5l0,0c-0.7,0.7-1.6,1-2.5,1l0,0C278.5,257.1,277.6,256.7,276.9,256z M291.7,241.2c-1.4-1.4-1.4-3.7,0-5.1
				l0,0c1.4-1.4,3.6-1.4,5,0l0,0c1.4,1.4,1.4,3.7,0,5.1l0,0c-0.7,0.7-1.6,1-2.5,1l0,0C293.3,242.3,292.4,241.9,291.7,241.2z
				 M306.5,226.4c-1.4-1.4-1.4-3.7,0-5.1l0,0c1.4-1.4,3.7-1.4,5.1,0l0,0c1.4,1.4,1.4,3.6,0,5.1l0,0c-0.7,0.7-1.6,1-2.5,1l0,0
				C308.1,227.5,307.2,227.1,306.5,226.4z M321.3,211.6c-1.4-1.4-1.4-3.6,0-5l0,0c1.4-1.4,3.7-1.4,5.1,0l0,0c1.4,1.4,1.4,3.6,0,5
				l0,0c-0.7,0.7-1.6,1.1-2.5,1.1l0,0C322.9,212.7,322,212.3,321.3,211.6z M336.1,196.8c-1.4-1.4-1.4-3.6,0-5l0,0
				c1.4-1.4,3.6-1.4,5,0l0,0c1.4,1.4,1.4,3.6,0,5l0,0c-0.7,0.7-1.6,1-2.5,1l0,0C337.7,197.8,336.8,197.5,336.1,196.8z M350.9,182
				c-1.4-1.4-1.4-3.6,0-5.1l0,0c1.4-1.4,3.6-1.4,5,0l0,0c1.4,1.4,1.4,3.7,0,5.1l0,0c-0.7,0.7-1.6,1-2.5,1l0,0
				C352.5,183,351.6,182.7,350.9,182z M365.7,167.2c-1.4-1.4-1.4-3.7,0-5.1l0,0c1.4-1.4,3.7-1.4,5.1,0l0,0c1.4,1.4,1.4,3.6,0,5.1
				l0,0c-0.7,0.7-1.6,1-2.5,1l0,0C367.3,168.2,366.4,167.9,365.7,167.2z M380.5,152.4c-1.4-1.4-1.4-3.6,0-5l0,0
				c1.4-1.4,3.7-1.4,5.1,0l0,0c1.4,1.4,1.4,3.6,0,5l0,0c-0.7,0.7-1.6,1.1-2.5,1.1l0,0C382.1,153.4,381.2,153.1,380.5,152.4z
				 M395.3,137.6c-1.4-1.4-1.4-3.6,0-5l0,0c1.4-1.4,3.6-1.4,5,0l0,0c1.4,1.4,1.4,3.6,0,5l0,0c-0.7,0.7-1.6,1-2.5,1l0,0
				C396.9,138.6,396,138.3,395.3,137.6z M410.1,122.8c-1.4-1.4-1.4-3.7,0-5.1l0,0c1.4-1.4,3.6-1.4,5,0l0,0c1.4,1.4,1.4,3.7,0,5.1
				l0,0c-0.7,0.7-1.6,1-2.5,1l0,0C411.7,123.8,410.8,123.5,410.1,122.8z M424.9,107.9c-1.4-1.4-1.4-3.6,0-5l0,0
				c1.4-1.4,3.7-1.4,5.1,0l0,0c1.4,1.4,1.4,3.6,0,5l0,0c-0.7,0.7-1.6,1.1-2.5,1.1l0,0C426.5,109,425.7,108.7,424.9,107.9z"/>
		</g>
		<g>
			<path class="st5" d="M442.3,94.2c-0.9,0-1.9-0.4-2.5-1.1c-0.6-0.6-1-1.6-1-2.5c0-1,0.4-1.9,1-2.5c1.3-1.3,3.7-1.3,5.1,0
				c0.6,0.7,1,1.6,1,2.5c0,0.9-0.4,1.9-1,2.5C444.1,93.8,443.2,94.2,442.3,94.2z"/>
		</g>
		<g>
			<g>
				<polygon class="st5" points="447.6,100.4 453.1,79.8 432.5,85.3 				"/>
			</g>
		</g>
	</g>
	<g>
		<g>
			<path class="st6" d="M134.4,462.6c-1,0-1.9-0.4-2.5-1.1c-0.7-0.6-1-1.6-1-2.5c0-1,0.4-1.9,1-2.5c1.3-1.3,3.7-1.4,5.1,0
				c0.6,0.6,1,1.6,1,2.5c0,0.9-0.4,1.9-1.1,2.5C136.2,462.2,135.3,462.6,134.4,462.6z"/>
		</g>
		<g>
			<path class="st2" d="M147.1,446.3c-1.4-1.4-1.4-3.7,0-5.1l0,0c1.4-1.4,3.6-1.4,5,0l0,0c1.4,1.4,1.4,3.7,0,5.1l0,0
				c-0.7,0.7-1.6,1-2.5,1l0,0C148.7,447.4,147.7,447,147.1,446.3z M162.3,431.1c-1.4-1.4-1.4-3.7,0-5.1l0,0c1.4-1.4,3.6-1.4,5,0l0,0
				c1.4,1.4,1.4,3.7,0,5.1l0,0c-0.7,0.7-1.6,1-2.5,1l0,0C163.9,432.1,163,431.8,162.3,431.1z M177.5,415.9c-1.4-1.4-1.4-3.6,0-5l0,0
				c1.4-1.4,3.7-1.4,5.1,0l0,0c1.4,1.4,1.4,3.6,0,5l0,0c-0.7,0.7-1.6,1-2.5,1l0,0C179.1,416.9,178.2,416.6,177.5,415.9z
				 M192.7,400.7c-1.4-1.4-1.4-3.6,0-5l0,0c1.4-1.4,3.6-1.4,5,0l0,0c1.4,1.4,1.4,3.6,0,5l0,0c-0.7,0.7-1.6,1.1-2.5,1.1l0,0
				C194.3,401.7,193.4,401.4,192.7,400.7z M207.9,385.4c-1.4-1.4-1.4-3.6,0-5l0,0c1.4-1.4,3.6-1.4,5,0l0,0c1.4,1.4,1.4,3.7,0,5l0,0
				c-0.7,0.7-1.6,1.1-2.5,1.1l0,0C209.5,386.5,208.6,386.1,207.9,385.4z M223.2,370.2c-1.4-1.4-1.4-3.7,0-5.1l0,0
				c1.4-1.4,3.6-1.4,5,0l0,0c1.4,1.4,1.4,3.7,0,5.1l0,0c-0.7,0.7-1.6,1-2.5,1l0,0C224.8,371.3,223.8,370.9,223.2,370.2z M238.3,355
				c-1.4-1.4-1.4-3.6,0-5l0,0c1.4-1.4,3.7-1.4,5.1,0l0,0c1.4,1.4,1.4,3.6,0,5l0,0c-0.7,0.7-1.6,1-2.5,1l0,0
				C239.9,356.1,239.1,355.7,238.3,355z M253.6,339.8c-1.4-1.4-1.4-3.6,0-5l0,0c1.4-1.4,3.6-1.4,5,0l0,0c1.4,1.4,1.4,3.6,0,5l0,0
				c-0.7,0.7-1.6,1-2.5,1l0,0C255.2,340.8,254.3,340.5,253.6,339.8z M268.8,324.6c-1.4-1.4-1.4-3.6,0-5l0,0c1.4-1.4,3.6-1.4,5,0l0,0
				c1.4,1.4,1.4,3.6,0,5l0,0c-0.7,0.7-1.6,1.1-2.5,1.1l0,0C270.4,325.6,269.5,325.3,268.8,324.6z M284,309.4c-1.4-1.4-1.4-3.7,0-5.1
				l0,0c1.4-1.4,3.6-1.4,5,0l0,0c1.4,1.4,1.4,3.7,0,5.1l0,0c-0.7,0.7-1.6,1-2.5,1l0,0C285.6,310.4,284.7,310.1,284,309.4z
				 M299.2,294.1c-1.4-1.4-1.4-3.7,0-5l0,0c1.4-1.4,3.7-1.4,5.1,0l0,0c1.4,1.4,1.4,3.6,0,5l0,0c-0.7,0.7-1.6,1-2.5,1l0,0
				C300.8,295.2,299.9,294.8,299.2,294.1z M314.4,278.9c-1.4-1.4-1.4-3.6,0-5l0,0c1.4-1.4,3.6-1.4,5,0l0,0c1.4,1.4,1.4,3.6,0,5l0,0
				c-0.7,0.7-1.6,1-2.5,1l0,0C316,280,315.1,279.6,314.4,278.9z M329.7,263.7c-1.4-1.4-1.4-3.6,0-5l0,0c1.4-1.4,3.6-1.4,5,0l0,0
				c1.4,1.4,1.4,3.6,0,5l0,0c-0.7,0.7-1.6,1.1-2.5,1.1l0,0C331.3,264.8,330.3,264.4,329.7,263.7z M344.8,248.5
				c-1.4-1.4-1.4-3.7,0-5.1l0,0c1.4-1.4,3.7-1.4,5.1,0l0,0c1.4,1.4,1.4,3.7,0,5.1l0,0c-0.7,0.7-1.6,1-2.5,1l0,0
				C346.5,249.5,345.6,249.2,344.8,248.5z M360.1,233.3c-1.4-1.4-1.4-3.7,0-5l0,0c1.4-1.4,3.7-1.4,5.1,0l0,0c1.4,1.4,1.4,3.6,0,5
				l0,0c-0.7,0.7-1.6,1-2.5,1l0,0C361.7,234.3,360.8,234,360.1,233.3z M375.3,218.1c-1.4-1.4-1.4-3.6,0-5l0,0c1.4-1.4,3.6-1.4,5.1,0
				l0,0c1.4,1.4,1.4,3.6,0,5l0,0c-0.7,0.7-1.6,1-2.5,1l0,0C376.9,219.1,376,218.8,375.3,218.1z M390.5,202.8c-1.4-1.4-1.4-3.6,0-5
				l0,0c1.4-1.4,3.6-1.4,5,0l0,0c1.4,1.4,1.4,3.6,0,5l0,0c-0.7,0.7-1.6,1.1-2.5,1.1l0,0C392.1,203.9,391.2,203.5,390.5,202.8z
				 M405.8,187.6c-1.4-1.4-1.4-3.7,0-5.1l0,0c1.4-1.4,3.6-1.4,5,0l0,0c1.4,1.4,1.4,3.7,0,5.1l0,0c-0.7,0.7-1.6,1-2.5,1l0,0
				C407.4,188.7,406.4,188.3,405.8,187.6z M420.9,172.4c-1.4-1.4-1.4-3.7,0-5l0,0c1.4-1.4,3.7-1.4,5.1,0l0,0c1.4,1.4,1.4,3.6,0,5
				l0,0c-0.7,0.7-1.6,1-2.5,1l0,0C422.5,173.4,421.7,173.1,420.9,172.4z M436.2,157.2c-1.4-1.4-1.4-3.6,0-5l0,0c1.4-1.4,3.6-1.4,5,0
				l0,0c1.4,1.4,1.4,3.6,0,5l0,0c-0.7,0.7-1.6,1-2.5,1l0,0C437.8,158.2,436.9,157.9,436.2,157.2z M451.4,142c-1.4-1.4-1.4-3.6,0-5
				l0,0c1.4-1.4,3.6-1.4,5,0l0,0c1.4,1.4,1.4,3.6,0,5l0,0c-0.7,0.7-1.6,1.1-2.5,1.1l0,0C453,143,452.1,142.7,451.4,142z
				 M466.6,126.8c-1.4-1.4-1.4-3.7,0-5.1l0,0c1.4-1.4,3.6-1.4,5,0l0,0c1.4,1.4,1.4,3.7,0,5.1l0,0c-0.7,0.7-1.6,1-2.5,1l0,0
				C468.2,127.8,467.3,127.4,466.6,126.8z M481.8,111.5c-1.4-1.4-1.4-3.7,0-5.1l0,0c1.4-1.4,3.7-1.4,5.1,0l0,0
				c1.4,1.4,1.4,3.7,0,5.1l0,0c-0.7,0.7-1.6,1-2.5,1l0,0C483.4,112.6,482.5,112.2,481.8,111.5z M497,96.3c-1.4-1.4-1.4-3.6,0-5l0,0
				c1.4-1.4,3.7-1.4,5,0l0,0c1.4,1.4,1.4,3.6,0,5l0,0c-0.7,0.7-1.6,1-2.5,1l0,0C498.6,97.4,497.7,97,497,96.3z M512.3,81.1
				c-1.4-1.4-1.4-3.6,0-5l0,0c1.4-1.4,3.6-1.4,5,0l0,0c1.4,1.4,1.4,3.6,0,5l0,0c-0.7,0.7-1.6,1.1-2.5,1.1l0,0
				C513.9,82.2,512.9,81.8,512.3,81.1z"/>
		</g>
		<g>
			<path class="st7" d="M530,66.9c-0.9,0-1.9-0.4-2.5-1.1c-0.6-0.6-1-1.6-1-2.5c0-1,0.4-1.9,1.1-2.5c1.3-1.3,3.7-1.3,5,0
				c0.7,0.7,1,1.6,1,2.5c0,0.9-0.4,1.9-1,2.5C531.9,66.5,530.9,66.9,530,66.9z"/>
		</g>
		<g>
			<g>
				<polygon class="st7" points="535.3,73.1 540.9,52.5 520.2,58 				"/>
			</g>
		</g>
	</g>
	<g>
		<g>
			<g>
				<path class="st0" d="M367,88.8c-5-5-5-13.1,0-18.1c2.5-2.5,5.8-3.8,9.1-3.8v-5.6c-4.7,0-9.5,1.8-13.1,5.4
					c-7.2,7.2-7.2,18.9,0,26.1c3.6,3.6,8.3,5.4,13.1,5.4v-5.6C372.8,92.6,369.5,91.4,367,88.8z"/>
			</g>
		</g>
		<g>
			<g>
				<path class="st0" d="M376.1,61.3V67c3.3,0,6.6,1.3,9.1,3.8c5,5,5,13.1,0,18.1c-2.5,2.5-5.8,3.8-9.1,3.8v5.6
					c4.7,0,9.4-1.8,13.1-5.4c7.2-7.2,7.2-18.9,0-26.1C385.5,63.1,380.8,61.3,376.1,61.3z"/>
			</g>
		</g>
		<g>
			<g>
				<path class="st8" d="M385.1,70.7c-2.5-2.5-5.8-3.8-9.1-3.8c-3.3,0-6.6,1.3-9.1,3.8c-5,5-5,13.1,0,18.1c2.5,2.5,5.8,3.8,9.1,3.8
					c3.3,0,6.6-1.3,9.1-3.8C390.2,83.8,390.2,75.7,385.1,70.7z"/>
			</g>
		</g>
		<g>
			<g>
				<path class="st0" d="M379.7,79.5c-0.6-0.5-1.4-0.9-2.5-1.3l-0.7-0.2c-0.1,0-0.3-0.1-0.4-0.2c-0.6-0.2-1-0.5-1.2-0.7
					c-0.3-0.3-0.5-0.7-0.5-1.2c0-0.5,0.2-0.9,0.5-1.3c0.3-0.3,0.7-0.5,1.2-0.5c0,0,0,0,0.1,0c0.5,0,0.9,0.2,1.2,0.5
					c0.3,0.3,0.5,0.7,0.6,1.3h3.2c0-0.9-0.3-1.7-0.7-2.4c-0.4-0.7-1-1.3-1.8-1.7c-0.4-0.2-0.7-0.3-1.1-0.4v-2.9l-1.4,0l-1.2,0v2.9v0
					c-0.4,0.1-0.8,0.3-1.1,0.5c-0.8,0.4-1.4,1-1.8,1.7c-0.4,0.7-0.7,1.5-0.7,2.4c0,0.8,0.2,1.5,0.6,2.2c0.4,0.7,0.9,1.3,1.6,1.7
					c0.3,0.2,0.8,0.4,1.4,0.6c0.1,0,0.3,0.1,0.7,0.2c0.2,0.1,0.4,0.1,0.6,0.2c0.7,0.3,1.2,0.5,1.6,0.8c0.5,0.4,0.8,1,0.8,1.7
					c0,0.6-0.2,1.1-0.6,1.5c-0.4,0.4-0.9,0.6-1.6,0.6c0,0-0.1,0-0.1,0c-0.6,0-1.1-0.2-1.5-0.6c-0.4-0.4-0.6-0.9-0.7-1.6l-3.2,0
					c0,0.8,0.2,1.4,0.4,1.9c0.2,0.6,0.6,1.1,1.1,1.6c0.8,0.8,1.7,1.3,2.7,1.5v2.8h1.2h1.4v-2.8c0.5-0.1,0.9-0.3,1.3-0.5
					c0.8-0.5,1.5-1.1,2-1.9c0.5-0.8,0.7-1.7,0.7-2.7C381.5,81.7,380.9,80.4,379.7,79.5z"/>
			</g>
		</g>
	</g>
	<g>
		<g>
			<g>
				<path class="st0" d="M415.2,63.4c-2.6-2.6-2.6-6.9,0-9.6c1.3-1.3,3.1-2,4.8-2v-3c-2.5,0-5,1-6.9,2.9c-3.8,3.8-3.8,10,0,13.8
					c1.9,1.9,4.4,2.9,6.9,2.9v-3C418.3,65.3,416.5,64.7,415.2,63.4z"/>
			</g>
		</g>
		<g>
			<g>
				<path class="st0" d="M420,48.8v3c1.7,0,3.5,0.7,4.8,2c2.7,2.7,2.7,6.9,0,9.6c-1.3,1.3-3.1,2-4.8,2v3c2.5,0,5-1,6.9-2.9
					c3.8-3.8,3.8-10,0-13.8C425,49.8,422.5,48.8,420,48.8z"/>
			</g>
		</g>
		<g>
			<g>
				<path class="st8" d="M424.8,53.8c-1.3-1.3-3.1-2-4.8-2c-1.7,0-3.5,0.7-4.8,2c-2.6,2.7-2.6,6.9,0,9.6c1.3,1.3,3.1,2,4.8,2
					c1.7,0,3.5-0.7,4.8-2C427.4,60.7,427.4,56.4,424.8,53.8z"/>
			</g>
		</g>
		<g>
			<g>
				<path class="st0" d="M421.9,58.4c-0.3-0.2-0.8-0.5-1.3-0.7l-0.4-0.1c-0.1,0-0.1-0.1-0.2-0.1c-0.3-0.1-0.5-0.2-0.7-0.4
					c-0.2-0.2-0.2-0.4-0.2-0.6c0-0.3,0.1-0.5,0.2-0.7c0.2-0.2,0.4-0.3,0.6-0.3c0,0,0,0,0,0c0.3,0,0.5,0.1,0.7,0.2
					c0.2,0.2,0.3,0.4,0.3,0.7h1.7c0-0.5-0.2-0.9-0.4-1.3c-0.2-0.4-0.5-0.7-0.9-0.9c-0.2-0.1-0.4-0.2-0.6-0.2v-1.5H420h-0.7v1.5l0,0
					c-0.2,0.1-0.4,0.1-0.6,0.2c-0.4,0.2-0.7,0.5-0.9,0.9c-0.2,0.4-0.3,0.8-0.3,1.2c0,0.4,0.1,0.8,0.3,1.2c0.2,0.4,0.5,0.7,0.8,0.9
					c0.2,0.1,0.4,0.2,0.7,0.3c0,0,0.2,0,0.3,0.1c0.1,0,0.2,0.1,0.3,0.1c0.4,0.1,0.6,0.3,0.8,0.4c0.3,0.2,0.4,0.5,0.4,0.9
					c0,0.3-0.1,0.6-0.3,0.8c-0.2,0.2-0.5,0.3-0.8,0.3c0,0,0,0-0.1,0c-0.3,0-0.6-0.1-0.8-0.3c-0.2-0.2-0.3-0.5-0.4-0.8h-1.7
					c0,0.4,0.1,0.7,0.2,1c0.1,0.3,0.3,0.6,0.6,0.9c0.4,0.4,0.9,0.7,1.4,0.8v1.5h0.7h0.7v-1.5c0.2-0.1,0.5-0.2,0.7-0.3
					c0.4-0.3,0.8-0.6,1-1c0.3-0.4,0.4-0.9,0.4-1.4C422.9,59.6,422.6,58.9,421.9,58.4z"/>
			</g>
		</g>
	</g>
	<g>
		<path class="st0" d="M133.2,205.9h221.1l10.6-10.6l8.1,8.1l88.1,88.1c0.3-1.9,0.5-3.8,0.7-5.7l-79.7-79.7l-5.9-5.9l-8.1-8.1
			l-5.1-5.1l26.2-7l73.5,73.5c-6-94.9-84.8-170-181.2-170C181.2,83.4,99.9,164.7,99.9,265c0,34,9.4,65.9,25.7,93.1h7.6V205.9z"/>
		<path class="st8" d="M373,203.4l-15,15v139.7h14.5v8.2c0,6.6-5.3,11.9-11.9,11.9H180.9h-41.3c33.3,41.6,84.5,68.3,141.9,68.3
			c91.3,0,166.8-67.4,179.6-155.1L373,203.4z"/>
		<path class="st8" d="M382.2,206.1l79.7,79.7c0.8-6.8,1.2-13.8,1.2-20.8c0-3.9-0.2-7.8-0.4-11.6l-73.5-73.5L382.2,206.1z"/>
		<polygon class="st9" points="345.5,346.9 145.7,346.9 145.7,217.1 343.1,217.1 354.3,205.9 133.2,205.9 133.2,358.1 180.9,358.1 
			358,358.1 358,218.4 345.5,230.9 		"/>
		<path class="st5" d="M358,358.1H180.9h-47.8h-7.6h-6.9v8.2c0,6.6,5.3,11.9,11.9,11.9h9h41.3h179.7c6.6,0,11.9-5.4,11.9-11.9v-8.2
			H358z"/>
		<path class="st3" d="M145.7,346.9h199.8v-116l-64.8,64.8c-1.1-3.9-3.7-7.2-7.2-9l69.6-69.6H145.7V346.9z M266.8,288.6
			c1.4,0,2.8,0.3,4,0.8c3.8,1.5,6.6,5.1,6.8,9.4c0,0.2,0,0.5,0,0.7c0,6-4.9,10.9-10.9,10.9c-6,0-10.9-4.9-10.9-10.9
			c0-0.1,0-0.2,0-0.3c0.1-4.3,2.8-8.1,6.5-9.7C263.8,288.9,265.2,288.6,266.8,288.6z M259.8,286.8c-3.5,1.9-6.1,5.3-7,9.2
			l-13.5-13.5c3.7-1.5,6.6-4.5,8-8.2L259.8,286.8z M233.9,258.4c6,0,10.9,4.9,10.9,10.9c0,0.8-0.1,1.5-0.2,2.3c-0.9,4-4,7.3-8,8.3
			c-0.9,0.2-1.8,0.4-2.7,0.4c-0.8,0-1.6-0.1-2.4-0.3c-4-0.9-7.2-4.1-8.2-8.1c-0.2-0.8-0.3-1.7-0.3-2.5
			C223,263.3,227.8,258.4,233.9,258.4z M220.5,274.6c1.5,3.7,4.4,6.6,8.2,8.1l-22.2,22.2c-0.8-4-3.3-7.5-6.7-9.5L220.5,274.6z
			 M185.9,298.9c1.8-1.3,4-2.1,6.4-2.1c1.7,0,3.4,0.4,4.8,1.1c3.6,1.8,6.1,5.5,6.1,9.8c0,0.1,0,0.3,0,0.4
			c-0.2,5.6-4.7,10.2-10.3,10.4c-0.2,0-0.3,0-0.5,0c-1.3,0-2.6-0.3-3.8-0.7c-3-1.1-5.3-3.5-6.4-6.5c-0.4-1.2-0.7-2.4-0.7-3.7
			C181.5,304.1,183.2,300.9,185.9,298.9z M160.6,273.6l22.8,22.8c-3.2,2.6-5.3,6.4-5.4,10.8l-25.5-25.5L160.6,273.6z"/>
		<path class="st4" d="M183.4,296.4l-22.8-22.8l-8.1,8.1l25.5,25.5C178.1,302.9,180.2,299,183.4,296.4z"/>
		<path class="st4" d="M239.3,282.6l13.5,13.5c1-4,3.5-7.3,7-9.2l-12.5-12.5C245.9,278.1,243,281.1,239.3,282.6z"/>
		<path class="st4" d="M206.5,304.9l22.2-22.2c-3.7-1.4-6.7-4.4-8.2-8.1l-20.7,20.7C203.2,297.4,205.7,300.8,206.5,304.9z"/>
		<path class="st2" d="M182.1,311.4c1.1,3,3.4,5.3,6.4,6.5c1.2,0.5,2.5,0.7,3.8,0.7c0.2,0,0.4,0,0.5,0c5.6-0.3,10.1-4.8,10.3-10.4
			c0-0.1,0-0.3,0-0.4c0-4.3-2.5-8-6.1-9.8c-1.5-0.7-3.1-1.1-4.8-1.1c-2.4,0-4.6,0.8-6.4,2.1c-2.7,2-4.4,5.2-4.4,8.8
			C181.5,309,181.7,310.2,182.1,311.4z"/>
		<path class="st2" d="M231.4,279.9c0.8,0.2,1.6,0.3,2.4,0.3c0.9,0,1.8-0.1,2.7-0.4c4-1,7.1-4.2,8-8.3c0.1-0.7,0.2-1.5,0.2-2.3
			c0-6-4.9-10.9-10.9-10.9c-6,0-10.9,4.9-10.9,10.9c0,0.9,0.1,1.7,0.3,2.5C224.2,275.8,227.4,279,231.4,279.9z"/>
		<path class="st2" d="M255.9,299.2c0,0.1,0,0.2,0,0.3c0,6,4.9,10.9,10.9,10.9c6,0,10.9-4.9,10.9-10.9c0-0.2,0-0.5,0-0.7
			c-0.3-4.3-3-7.9-6.8-9.4c-1.3-0.5-2.6-0.8-4-0.8c-1.5,0-3,0.3-4.3,0.9C258.7,291.1,256,294.8,255.9,299.2z"/>
		<polygon class="st7" points="354.3,205.9 358,205.9 358,218.4 373,203.4 364.9,195.3 		"/>
		<polygon class="st4" points="354.3,205.9 343.1,217.1 345.5,217.1 345.5,230.9 358,218.4 358,205.9 		"/>
		<path class="st4" d="M280.7,295.7l64.8-64.8v-13.8h-2.4l-69.6,69.6C277,288.5,279.6,291.8,280.7,295.7z"/>
		<polygon class="st2" points="363,186.9 368.1,192 376.2,200.2 382.2,206.1 389.2,179.9 		"/>
	</g>
	<g>
		<g>
			<rect x="445.7" y="176.8" class="st10" width="8" height="236.2"/>
			<rect x="431.9" y="205.8" class="st2" width="35.7" height="178.3"/>
		</g>
		<g>
			
				<ellipse transform="matrix(2.594355e-02 -0.9997 0.9997 2.594355e-02 26.5599 766.4542)" class="st5" cx="406.6" cy="369.6" rx="4.5" ry="4.5"/>
			<path class="st5" d="M428.9,369.6c0,2.5-2,4.5-4.5,4.5c-2.5,0-4.5-2-4.5-4.5c0-2.5,2-4.5,4.5-4.5
				C426.9,365.1,428.9,367.1,428.9,369.6z"/>
			<ellipse class="st5" cx="442.4" cy="369.6" rx="4.5" ry="4.5"/>
			<ellipse class="st5" cx="460.3" cy="369.6" rx="4.5" ry="4.5"/>
			<path class="st5" d="M482.6,369.6c0,2.5-2,4.5-4.5,4.5c-2.5,0-4.5-2-4.5-4.5c0-2.5,2-4.5,4.5-4.5
				C480.6,365.1,482.6,367.1,482.6,369.6z"/>
			<path class="st5" d="M500.5,369.6c0,2.5-2,4.5-4.5,4.5c-2.5,0-4.5-2-4.5-4.5c0-2.5,2-4.5,4.5-4.5
				C498.5,365.1,500.5,367.1,500.5,369.6z"/>
			<path class="st5" d="M518.4,369.6c0,2.5-2,4.5-4.5,4.5c-2.5,0-4.5-2-4.5-4.5c0-2.5,2-4.5,4.5-4.5
				C516.4,365.1,518.4,367.1,518.4,369.6z"/>
			<path class="st5" d="M536.3,369.6c0,2.5-2,4.5-4.5,4.5c-2.5,0-4.5-2-4.5-4.5c0-2.5,2-4.5,4.5-4.5
				C534.3,365.1,536.3,367.1,536.3,369.6z"/>
			<ellipse class="st5" cx="549.7" cy="369.6" rx="4.5" ry="4.5"/>
		</g>
	</g>
	<g>
		<path class="st0" d="M95.5,326.8c17,20.1,14.5,50.1-5.6,67.1c-20.1,17-50.1,14.5-67.1-5.6s-14.5-50.1,5.6-67.1
			C48.4,304.2,78.5,306.8,95.5,326.8z"/>
		<g>
			<g>
				<path class="st8" d="M22.9,314.8c-0.8,0.7-0.9,1.9-0.2,2.7l8.3,9.8c0.7,0.8,1.9,0.9,2.7,0.2c0.8-0.7,0.9-1.9,0.2-2.8l-8.3-9.8
					C24.9,314.2,23.7,314.1,22.9,314.8z"/>
			</g>
			<g>
				<path class="st8" d="M2.9,353.5c-0.1,1.1,0.7,2,1.8,2.1l12.8,1.1c1.1,0.1,2-0.7,2.1-1.8c0.1-1.1-0.7-2-1.8-2.1L5,351.7
					C3.9,351.6,3,352.4,2.9,353.5z"/>
			</g>
			<g>
				<path class="st8" d="M16.2,395c0.7,0.8,1.9,0.9,2.7,0.2l9.8-8.3c0.8-0.7,0.9-1.9,0.2-2.7c-0.7-0.8-1.9-0.9-2.7-0.2l-9.8,8.3
					C15.6,392.9,15.5,394.1,16.2,395z"/>
			</g>
			<g>
				<path class="st8" d="M54.9,414.9c1.1,0.1,2-0.7,2.1-1.8l1.1-12.8c0.1-1.1-0.7-2-1.8-2.1c-1.1-0.1-2,0.7-2.1,1.8l-1.1,12.8
					C53,413.9,53.8,414.8,54.9,414.9z"/>
			</g>
			<g>
				<path class="st8" d="M116.3,363c0.1-1.1-0.7-2-1.8-2.1l-12.8-1.1c-1.1-0.1-2,0.7-2.1,1.8c-0.1,1.1,0.7,2,1.8,2.1l12.8,1.1
					C115.3,364.8,116.3,364,116.3,363z"/>
			</g>
			<g>
				<path class="st8" d="M103.1,321.5c-0.7-0.8-1.9-0.9-2.7-0.2l-9.8,8.3c-0.8,0.7-0.9,1.9-0.2,2.8c0.7,0.8,1.9,0.9,2.7,0.2l9.8-8.3
					C103.7,323.5,103.8,322.3,103.1,321.5z"/>
			</g>
			<g>
				<path class="st8" d="M64.4,301.5c-1.1-0.1-2,0.7-2.1,1.8L61.2,316c-0.1,1.1,0.7,2,1.8,2.1c1.1,0.1,2-0.7,2.1-1.8l1.1-12.8
					C66.3,302.5,65.5,301.6,64.4,301.5z"/>
			</g>
		</g>
		<g>
			<g>
				<g>
					<path class="st8" d="M57.1,379.6c-12.2-1-21.2-11.7-20.2-23.9c0.5-6.1,3.4-11.4,7.8-15.1l-6.3-7.4
						c-6.2,5.3-10.4,12.9-11.2,21.7c-1.5,17.5,11.5,32.9,29.1,34.4c8.8,0.7,17-2.2,23.2-7.4l-6.3-7.4
						C68.9,378.1,63.2,380.1,57.1,379.6z"/>
				</g>
			</g>
			<g>
				<g>
					<path class="st8" d="M38.4,333.2l6.3,7.4c4.3-3.7,10-5.7,16.1-5.1c12.2,1,21.2,11.7,20.2,23.9c-0.5,6.1-3.4,11.4-7.8,15
						l6.3,7.4c6.2-5.3,10.4-12.9,11.2-21.7c1.5-17.5-11.5-32.9-29.1-34.4C52.9,325.1,44.6,328,38.4,333.2z"/>
				</g>
			</g>
			<g>
				<g>
					<path class="st0" d="M60.8,335.5c-6.1-0.5-11.8,1.5-16.1,5.1c-4.3,3.7-7.3,9-7.8,15.1c-1,12.2,8,22.9,20.2,23.9
						c6.1,0.5,11.8-1.5,16.1-5.2c4.3-3.7,7.3-9,7.8-15C82.1,347.2,73,336.5,60.8,335.5z"/>
				</g>
			</g>
			<g>
				<g>
					<path class="st8" d="M63.5,353.1c-1.3,0-2.9,0.4-4.8,1.1l-1.2,0.5c-0.2,0.1-0.5,0.2-0.7,0.2c-1,0.3-1.8,0.5-2.4,0.4
						c-0.7-0.1-1.4-0.4-2-1.1c-0.6-0.7-0.8-1.4-0.8-2.2c0-0.8,0.4-1.4,1-2c0,0,0,0,0.1-0.1c0.7-0.5,1.4-0.8,2.2-0.8
						c0.8,0,1.5,0.4,2.2,1l4.2-3.6c-1.1-1.1-2.3-2-3.7-2.4c-1.4-0.5-2.8-0.6-4.2-0.3c-0.7,0.1-1.4,0.4-2,0.7l-3.2-3.8l-1.8,1.6
						l-1.6,1.4l3.2,3.8l0,0c-0.4,0.6-0.7,1.2-1,1.8c-0.5,1.4-0.7,2.8-0.4,4.3c0.2,1.4,0.8,2.7,1.8,3.8c0.9,1,2,1.8,3.3,2.3
						c1.3,0.5,2.6,0.6,4,0.5c0.7-0.1,1.5-0.3,2.5-0.7c0.1-0.1,0.5-0.2,1.1-0.5c0.3-0.1,0.7-0.3,1-0.4c1.2-0.4,2.2-0.6,3-0.6
						c1.2,0,2.1,0.5,2.9,1.4c0.7,0.8,1,1.7,0.9,2.7c-0.1,1-0.6,1.9-1.4,2.6c-0.1,0-0.1,0.1-0.2,0.1c-0.8,0.7-1.7,1-2.6,0.9
						c-1,0-1.8-0.5-2.6-1.3l-4.3,3.6c0.9,1,1.8,1.6,2.6,2c1,0.5,2,0.8,3.2,1c1.9,0.2,3.7-0.2,5.3-1l3.1,3.7l1.6-1.4l1.8-1.6
						l-3.1-3.7c0.5-0.7,0.9-1.4,1.1-2.2c0.6-1.5,0.7-3.1,0.4-4.7c-0.3-1.6-1-3.1-2.1-4.4C68.2,354,66.1,353,63.5,353.1z"/>
				</g>
			</g>
		</g>
	</g>
</g>
<g>
	<g>
		<path class="st11" d="M109.5,36h5.3c0.8,0,0.9,0.1,0.9,0.9v7.5c0,0.7-0.1,0.9-0.6,1.1c-2.1,0.9-4,1.3-6.5,1.3
			c-7.3,0-10.4-4.3-10.4-10.4c0-6.4,3-10.6,10.5-10.6c3.1,0,5,0.7,6.2,1.5c0.7,0.5,0.8,1.2,0.8,1.5c0,0.4-0.1,0.6-0.4,0.4
			c-1.4-0.8-3.4-1.7-6.4-1.7c-6.2,0-8.4,3.5-8.4,8.8c0,5,2,8.6,8.1,8.6c1.3,0,3.2-0.1,5.1-1v-6.2h-3.4c-0.9,0-1.5-0.6-1.5-1.3
			C108.7,36,108.9,36,109.5,36"/>
		<path class="st11" d="M121.2,40.3v5.3c0,0.7-0.1,0.8-0.8,0.8H120c-0.7,0-0.8-0.1-0.8-0.8V33.8c0-0.5,0-0.7,0.4-0.7
			c1.1,0,1.6,0.5,1.6,1.6v0.9c0.7-2.1,2-2.8,3.7-2.8c1.7,0,2.1,0.6,2.1,1.5c0,0.4-0.1,0.5-0.4,0.5c-0.6-0.1-1-0.3-1.6-0.3
			C122.5,34.6,121.3,36.7,121.2,40.3"/>
		<path class="st11" d="M138.2,44.9v-0.4c-0.8,1.1-2.3,2-4.4,2c-3.4,0-4.6-1.9-4.6-5v-7.7c0-0.5,0-0.7,0.4-0.7
			c1.1,0,1.6,0.5,1.6,1.6v6.8c0,1.9,0.9,3.2,3.1,3.2c2.6,0,3.7-1.5,4-3.4v-7.4c0-0.5,0-0.7,0.4-0.7c1.1,0,1.7,0.5,1.7,1.6v11.1
			c0,0.5,0,0.7-0.4,0.7C138.7,46.5,138.2,46,138.2,44.9"/>
		<path class="st11" d="M146.3,44.3v7.9c0,0.7-0.1,0.8-0.8,0.8H145c-0.7,0-0.8-0.1-0.8-0.8V33.8c0-0.5,0-0.7,0.4-0.7
			c1.1,0,1.6,0.5,1.6,1.6v0.7c0.9-1.5,2.6-2.5,4.9-2.5c4.1,0,6.3,2.8,6.3,6.9s-2.2,6.8-6.4,6.8C148.7,46.6,147.2,45.7,146.3,44.3
			 M150.8,44.8c3.1,0,4.6-2.1,4.6-4.9s-1.5-5-4.6-5c-3.3,0-4.6,2.6-4.6,5C146.1,42.3,147.4,44.8,150.8,44.8"/>
		<path class="st11" d="M166.7,32.9c4.4,0,6.9,2.7,6.9,6.9c0,4.2-2.6,6.8-6.9,6.8c-4.4,0-6.9-2.6-6.9-6.8S162.3,32.9,166.7,32.9
			 M166.7,44.8c3.1,0,4.8-2,4.8-5c0-3-1.7-5.1-4.8-5.1s-4.8,2.1-4.8,5.1C162,42.8,163.7,44.8,166.7,44.8"/>
		<path class="st8" d="M99.2,71.5V52.9c0-0.9,0.1-1,0.9-1h9.8c0.5,0,0.6,0,0.6,0.4c0,0.7-0.5,1.4-1.9,1.4h-7.4v7.1h7.1
			c0.5,0,0.6,0,0.6,0.4c0,0.7-0.5,1.4-1.9,1.4h-5.7v7.9h8.5c0.6,0,0.7,0.1,0.7,0.7v0.4c0,0.5-0.1,0.7-0.7,0.7H100
			C99.4,72.2,99.2,72.2,99.2,71.5"/>
		<path class="st8" d="M123.5,72.2h-0.4c-0.7,0-0.8-0.1-0.8-0.8v-7.4c0-2.1-0.9-3.5-3.3-3.5s-3.6,1.5-3.8,3.6v7.3
			c0,0.7-0.1,0.8-0.8,0.8h-0.4c-0.7,0-0.8-0.1-0.8-0.8V59.7c0-0.5,0-0.7,0.4-0.7c1.1,0,1.6,0.5,1.6,1.6v0.2c0.8-1.1,2.2-2,4.3-2
			c3.4,0,4.8,2,4.8,5.2v7.5C124.3,72.2,124.2,72.2,123.5,72.2"/>
		<path class="st8" d="M129.7,66.6c0.3,3.1,1.9,4.1,4.8,4.1c2.4,0,3.6-0.5,5-1.1c0.4-0.2,0.6-0.1,0.6,0.3c0,0.7-0.4,1.3-1.1,1.7
			c-1.1,0.5-2.8,1-4.8,1c-4.1,0-6.7-1.8-6.7-6.5c0-4.6,2.3-7.1,6.4-7.1c4.2,0,6.2,2.6,6.2,6.6c0,0.6-0.2,1.1-1.1,1.1L129.7,66.6
			L129.7,66.6z M129.7,64.9h8.5c-0.1-2.7-1.3-4.4-4.2-4.4C131.3,60.5,129.9,62.2,129.7,64.9"/>
		<path class="st8" d="M145.4,66.1v5.3c0,0.7-0.1,0.8-0.8,0.8h-0.4c-0.7,0-0.8-0.1-0.8-0.8V59.7c0-0.5,0-0.7,0.4-0.7
			c1.1,0,1.6,0.5,1.6,1.6v0.9c0.7-2.1,2-2.8,3.7-2.8c1.7,0,2.1,0.6,2.1,1.5c0,0.4-0.1,0.5-0.4,0.5c-0.6-0.1-1-0.3-1.6-0.3
			C146.7,60.5,145.4,62.6,145.4,66.1"/>
		<path class="st8" d="M153.4,77.9c-0.7-0.4-1.1-0.8-1.1-1.5c0-0.5,0.3-0.6,0.7-0.4c1,0.5,2.6,1.1,5,1.1s5.1-0.8,5.1-5.6v-1.3
			c-0.9,1.4-2.6,2.4-5,2.4c-4,0-6.4-2.7-6.4-6.8s2.4-6.9,6.3-6.9c2.4,0,4,1,5,2.5v-0.5c0-1.2,0.4-1.7,1.6-1.7c0.4,0,0.4,0.2,0.4,0.8
			v11.9c0,5.8-3.4,7.1-7,7.1C155.7,78.8,154.2,78.3,153.4,77.9 M158.7,60.6c-3.1,0-4.6,2.2-4.6,5c0,2.8,1.5,5,4.6,5
			c3.4,0,4.6-2.5,4.6-4.9C163.4,63.1,162,60.6,158.7,60.6"/>
		<path class="st8" d="M171,52.3c0.4-0.5,0.5-0.5,1.1-0.5h1.1c0.4,0,0.5,0.3,0.2,0.6l-2.8,3c-0.3,0.3-0.4,0.3-0.8,0.3h-0.9
			c-0.3,0-0.3-0.1-0.1-0.4L171,52.3z M171.3,60.6v10.9c0,0.7-0.1,0.8-0.8,0.8h-0.4c-0.7,0-0.8-0.1-0.8-0.8V59.7c0-0.5,0-0.7,0.4-0.7
			C170.9,59,171.3,59.5,171.3,60.6"/>
		<path class="st8" d="M179.4,65.1c1.2,0,2.8,0.1,4.2,0.3v-1.7c0-2.8-2.2-3.1-3.9-3.1c-1.3,0-2.7,0.3-3.6,0.5
			c-0.7,0.2-0.9,0.1-0.9-0.3c0-0.8,0.3-1.2,1-1.4c0.7-0.3,2.4-0.5,3.8-0.5c1.9,0,5.6,0.4,5.6,4.5v8.4c0,0.5,0,0.7-0.4,0.7
			c-1.1,0-1.5-0.4-1.7-1.3c-0.8,0.5-2.2,1.3-4.9,1.3c-3,0-4.4-1.3-4.4-3.8C174.3,65.9,176,65.1,179.4,65.1 M183.6,66.9
			c-1.2-0.2-2.7-0.3-3.8-0.3c-2.2,0-3.5,0.3-3.5,1.9c0,1.7,1.1,2.2,2.9,2.2c2.4,0,3.6-0.7,4.4-1.3V66.9z"/>
		<path class="st8" d="M100,98.2c-0.7,0-0.8-0.1-0.8-0.7V78.8c0-0.8,0.1-0.9,0.9-0.9h5.6c4,0,5.6,2.3,5.6,5c0,2.6-1.1,4-3,4.6
			c3,0.5,4.4,2.1,4.4,5.1c0,3.4-2,5.6-6.5,5.6L100,98.2L100,98.2z M101.2,79.5v7.2h4.4c2.4,0,3.6-1.3,3.6-3.6c0-1.9-1-3.5-4-3.5
			L101.2,79.5L101.2,79.5z M101.2,88.4v7.9h4.7c3.4,0,4.7-1.6,4.7-4c0-2.6-1.7-4-4.7-4L101.2,88.4L101.2,88.4z"/>
		<path class="st8" d="M122.2,84.6c4.4,0,6.9,2.7,6.9,6.9c0,4.2-2.6,6.8-6.9,6.8c-4.4,0-6.9-2.6-6.9-6.8
			C115.3,87.4,117.8,84.6,122.2,84.6 M122.2,96.6c3.1,0,4.8-2,4.8-5c0-3-1.7-5.1-4.8-5.1s-4.8,2.1-4.8,5.1
			C117.4,94.5,119.1,96.6,122.2,96.6"/>
		<path class="st8" d="M132.9,103.7c-0.7-0.4-1.1-0.8-1.1-1.5c0-0.5,0.3-0.6,0.7-0.4c1,0.5,2.6,1.1,5,1.1c2.4,0,5.1-0.8,5.1-5.6V96
			c-0.9,1.4-2.6,2.4-5,2.4c-4,0-6.4-2.7-6.4-6.8c0-4.1,2.4-6.9,6.3-6.9c2.4,0,4,1,5,2.5v-0.5c0-1.2,0.4-1.7,1.6-1.7
			c0.4,0,0.4,0.2,0.4,0.8v11.9c0,5.8-3.4,7.1-7,7.1C135.2,104.7,133.7,104.2,132.9,103.7 M138.2,86.4c-3.1,0-4.6,2.2-4.6,5
			s1.5,5,4.6,5c3.4,0,4.6-2.5,4.6-4.9C142.8,89,141.5,86.4,138.2,86.4"/>
		<path class="st8" d="M154.9,84.6c4.4,0,6.9,2.7,6.9,6.9c0,4.2-2.6,6.8-6.9,6.8c-4.4,0-6.9-2.6-6.9-6.8
			C148,87.4,150.4,84.6,154.9,84.6 M154.9,96.6c3.1,0,4.8-2,4.8-5c0-3-1.7-5.1-4.8-5.1s-4.8,2.1-4.8,5.1
			C150.1,94.5,151.8,96.6,154.9,96.6"/>
		<path class="st8" d="M167.7,81.6v3.2h3.4c0.5,0,0.6,0.1,0.6,0.7v0.4c0,0.6-0.1,0.7-0.6,0.7h-3.4V94c0,1.9,1.1,2.5,1.9,2.5
			c0.8,0,1.3-0.2,1.9-0.5c0.3-0.1,0.4-0.1,0.4,0.4c0,0.4-0.1,0.6-0.2,0.9c-0.4,0.7-1.3,1.1-2.8,1.1c-2.3,0-3.4-1.3-3.4-4.2v-7.5H164
			c-0.5,0-0.6-0.1-0.6-0.7v-0.4c0-0.5,0.1-0.7,0.6-0.7h1.6v-0.9c0-2.1,0.7-3,1.6-3C167.7,80.9,167.7,81.1,167.7,81.6"/>
		<path class="st8" d="M178.7,90.9c1.2,0,2.8,0.1,4.2,0.3v-1.7c0-2.8-2.2-3.1-3.9-3.1c-1.3,0-2.7,0.3-3.6,0.5
			c-0.7,0.2-0.9,0.1-0.9-0.3c0-0.8,0.3-1.2,1-1.4c0.7-0.3,2.4-0.5,3.8-0.5c1.9,0,5.6,0.4,5.6,4.5v8.4c0,0.5,0,0.7-0.4,0.7
			c-1.1,0-1.5-0.4-1.7-1.3c-0.8,0.5-2.2,1.3-4.9,1.3c-3,0-4.4-1.3-4.4-3.8C173.5,91.8,175.2,90.9,178.7,90.9 M182.8,92.7
			c-1.2-0.2-2.7-0.3-3.8-0.3c-2.2,0-3.5,0.3-3.5,1.9s1.1,2.2,2.9,2.2c2.4,0,3.6-0.7,4.4-1.3V92.7z M180.1,78.2
			c0.4-0.5,0.5-0.5,1.1-0.5h1.1c0.4,0,0.5,0.3,0.2,0.6l-2.8,3c-0.3,0.3-0.4,0.3-0.8,0.3H178c-0.3,0-0.3-0.1-0.1-0.4L180.1,78.2z"/>
		<path class="st0" d="M27.4,85.1c-0.1,0-0.2-0.1-0.3-0.1c-6-4.8-9.4-12.2-9.4-20c0.1-7.9,3.6-15.1,9.6-19.9
			c0.2-0.1,0.4-0.1,0.6,0.1c0.1,0.2,0.1,0.4-0.1,0.6c-5.8,4.6-9.3,11.6-9.3,19.1c-0.1,7.7,3.3,14.6,9.1,19.4
			c0.2,0.1,0.3,0.4,0.1,0.6C27.7,85.1,27.5,85.1,27.4,85.1"/>
		<g>
			<g>
				<g>
					<g>
						<defs>
							<rect id="SVGID_1_" x="23.7" y="38.8" width="50.9" height="50.9"/>
						</defs>
						<clipPath id="SVGID_2_">
							<use xlink:href="#SVGID_1_"  style="overflow:visible;"/>
						</clipPath>
						<path class="st12" d="M49.2,89.7c-9.5,0-18.5-5.3-22.9-14.4c-0.8-1.7-1.4-3.4-1.9-5.2c-0.4-1.6-0.6-3.2-0.7-4.8
							c0-0.3,0.2-0.4,0.4-0.4c0.3,0,0.4,0.2,0.4,0.4c0.1,1.5,0.3,3.2,0.7,4.6c0.4,1.7,1,3.4,1.8,5C33,87.1,47.7,92.2,59.9,86.4
							c5.9-2.8,10.3-7.9,12.5-14c2.2-6.2,1.8-12.9-1.1-18.8c-4-8.2-12-13.5-21.2-13.9c-0.3,0-0.4-0.2-0.4-0.4c0-0.3,0.3-0.4,0.4-0.4
							c9.4,0.4,17.7,5.9,21.9,14.4c3,6.1,3.4,13,1.1,19.5c-2.2,6.4-6.9,11.6-13,14.6C56.7,88.8,52.9,89.7,49.2,89.7"/>
					</g>
				</g>
			</g>
		</g>
		<g>
			<g>
				<g>
					<g>
						<defs>
							<rect id="SVGID_3_" x="25.4" y="32.7" width="44" height="50.9"/>
						</defs>
						<clipPath id="SVGID_4_">
							<use xlink:href="#SVGID_3_"  style="overflow:visible;"/>
						</clipPath>
						<path class="st13" d="M51,83.7c-3.4,0-6.8-0.7-10-2C34.7,79,29.9,74,27.3,67.7s-2.5-13.2,0.2-19.5s7.7-11.1,13.9-13.6
							c6.3-2.6,13.2-2.5,19.5,0.2c1.7,0.7,3.3,1.6,4.8,2.6c1.3,0.9,2.6,2,3.7,3.2c0.2,0.2,0.2,0.4,0,0.6c-0.2,0.2-0.4,0.2-0.6,0
							c-1.1-1.1-2.3-2.2-3.5-3.1c-1.4-1-3-1.9-4.6-2.6c-6-2.6-12.7-2.6-18.8-0.2S31,42.5,28.4,48.5s-2.6,12.7-0.2,18.8
							s7.1,10.9,13.2,13.4c8.3,3.6,17.9,2.3,25.1-3.4c0.2-0.1,0.4-0.1,0.6,0.1c0.1,0.2,0.1,0.4-0.1,0.6C62.3,81.7,56.6,83.7,51,83.7
							"/>
					</g>
				</g>
			</g>
		</g>
		<path class="st8" d="M18,55.3c0-6.4,5.1-11.5,11.5-11.5S41,48.9,41,55.3s-5.1,11.5-11.5,11.5C23.2,66.8,18,61.7,18,55.3"/>
		<path class="st8" d="M43.9,49.4c0-6.4,5.1-11.5,11.5-11.5S66.9,43,66.9,49.4s-5.1,11.5-11.5,11.5C49.1,60.9,43.9,55.7,43.9,49.4"
			/>
		<path class="st0" d="M53.1,81.8c-0.5-4.8,3-9.1,7.8-9.6c4.8-0.5,9.1,3,9.6,7.8c0.5,4.8-3,9.1-7.8,9.6
			C57.9,90.1,53.6,86.6,53.1,81.8"/>
		<path class="st0" d="M45.3,33.5c0-4.8,3.9-8.7,8.7-8.7s8.7,3.9,8.7,8.7s-3.9,8.7-8.7,8.7C49.2,42.3,45.3,38.4,45.3,33.5"/>
		<path class="st0" d="M24.1,91.7c0-4.8,3.9-8.7,8.7-8.7s8.7,3.9,8.7,8.7s-3.9,8.7-8.7,8.7C28.1,100.5,24.1,96.6,24.1,91.7"/>
		<path class="st14" d="M41.1,73.3c0-1.7,1.3-3,3-3c1.7,0,3,1.3,3,3c0,1.7-1.3,3-3,3C42.4,76.3,41.1,74.9,41.1,73.3"/>
		<path class="st4" d="M80.3,41.7c-0.3,0-0.4-0.2-0.4-0.4c-1.4-11.8-11.5-21.2-23.4-21.6c-0.3,0-0.4-0.2-0.4-0.4
			c0-0.2,0.2-0.4,0.4-0.4C68.8,19.4,79.2,29,80.7,41.3C80.7,41.4,80.5,41.6,80.3,41.7L80.3,41.7"/>
		<path class="st4" d="M64.3,72.9c0-5.5,4.4-10,10-10c5.5,0,10,4.4,10,10c0,5.5-4.4,10-10,10C68.8,82.9,64.3,78.4,64.3,72.9"/>
		<path class="st4" d="M72.2,37.5c0-3.6,3-6.7,6.7-6.7c3.6,0,6.7,3,6.7,6.7c0,3.6-3,6.7-6.7,6.7C75.2,44.2,72.2,41.2,72.2,37.5"/>
		<path class="st4" d="M28.5,33.5c0-1.7,1.3-3,3-3s3,1.3,3,3c0,1.7-1.3,3-3,3S28.5,35.2,28.5,33.5"/>
		<path class="st8" d="M57.3,104.1c-1.1-0.4-1.6-1.7-1.1-2.8c0.4-1.1,1.7-1.6,2.8-1.1c1.1,0.4,1.6,1.7,1.1,2.8
			C59.6,104,58.4,104.5,57.3,104.1"/>
		<path class="st2" d="M46.5,88.4c0-3.6,3-6.7,6.7-6.7c3.6,0,6.7,3,6.7,6.7c0,3.6-3,6.7-6.7,6.7C49.5,95,46.5,92,46.5,88.4"/>
		<path class="st2" d="M12.5,76.3c0-3.6,3-6.7,6.7-6.7s6.7,3,6.7,6.7c0,3.6-3,6.7-6.7,6.7C15.5,82.9,12.5,80,12.5,76.3"/>
		<path class="st8" d="M8.1,42.5C7,42.1,6.5,40.8,7,39.7c0.4-1.1,1.7-1.6,2.8-1.1c1.1,0.4,1.6,1.7,1.1,2.8
			C10.5,42.4,9.2,42.9,8.1,42.5"/>
	</g>
</g>
</svg>
