<?xml version="1.0" encoding="utf-8"?>
<!-- Generator: Adobe Illustrator 24.0.3, SVG Export Plug-In . SVG Version: 6.00 Build 0)  -->
<svg version="1.1" id="Layer_1" xmlns="http://www.w3.org/2000/svg" xmlns:xlink="http://www.w3.org/1999/xlink" x="0px" y="0px"
	 width="480px" height="600px" viewBox="0 0 480 600" style="enable-background:new 0 0 480 600;" xml:space="preserve">
<style type="text/css">
	.st0{fill:#E1346B;}
	.st1{fill:#FFB781;}
	.st2{fill:#FF9466;}
	.st3{fill:none;stroke:#1D1E1C;stroke-width:1.2973;stroke-linecap:round;stroke-miterlimit:10;}
	.st4{fill:#363538;}
	.st5{fill:#48484B;}
	.st6{fill:#1D1D1B;}
	.st7{fill:#6F6F6E;}
	.st8{fill:#F8F4EF;}
	.st9{fill:#02B4BB;}
	.st10{clip-path:url(#SVGID_2_);fill:#FFFFFF;}
	.st11{fill:#A7E5E7;}
	.st12{fill:#5C5C5F;}
	.st13{fill:#898B8E;}
	.st14{fill:#3C3C3B;}
	.st15{fill:none;stroke:#363538;stroke-width:0.6486;stroke-miterlimit:10;}
	.st16{fill:none;stroke:#363538;stroke-width:0.6486;stroke-linecap:round;stroke-miterlimit:10;}
	.st17{fill:#231F20;}
	.st18{fill:#009F4C;}
	.st19{fill:#A2CA39;}
	.st20{clip-path:url(#SVGID_4_);fill:#A2CA39;}
	.st21{clip-path:url(#SVGID_6_);fill:#009F4C;}
	.st22{fill:#2275B8;}
	.st23{fill:#2BA8DF;}
	.st24{fill:#1D75B8;}
	.st25{enable-background:new    ;}
</style>
<g>
	<rect x="-15.5" y="-10.9" class="st0" width="500" height="612"/>
</g>
<g>
	<g>
		<g>
			<g>
				<path class="st1" d="M207.8,358.1L313,435.5c10.8,8,23.5,13.1,36.8,15l0,0c16.4,2.3,31.6,10.2,43,22.2l60.6,63.9l69.6,95.3
					l13.6-218.7l-84.4-61.3c-21.2-15.5-35-39.1-38-65.2l-1.4-12.2c-2.8-24.1-10.9-47.3-23.5-68l-5.8-9.5
					c-10.6-17.3-18.1-36.2-22.4-56l-3.1-14.2c-0.7-3-3.9-4.8-6.8-3.7l0,0c-6.9,2.6-12.3,8.3-14.3,15.4l-1.4,4.9
					c-2,6.8-3,13.8-3,20.8v3.5c0,5.6,0.6,11.3,1.8,16.8l10.3,46.7L252.1,198c-22.8-8.2-46.7-13.2-70.9-14.9l-46.7-3.2
					c-4.9-0.3-9.8,1.4-13.4,4.9l0,0c-5.5,5.3-7,13.6-3.6,20.5l1.8,3.6c2.7,5.4,7.9,9,13.9,9.7l63.6,6.8c9.5,1,18.7,3.8,27.2,8.2l0,0
					l-24.8-1.7h-33.5c-7.6,0-15,2.4-21.1,6.8l0,0c-7.4,5.3-9.7,15.3-5.4,23.3l0,0c3.3,6.1,9.8,9.9,16.7,9.6l38-1.4
					c6.5-0.2,13,0.2,19.4,1.2l8.9,1.4l-42.2,8.7l-27,6.4c-5.7,1.4-10.5,5.2-13,10.5l0,0c-2.5,5.3-2.4,11.3,0.1,16.6v0.1
					c2.4,5.1,7,8.8,12.4,10.3l30.8,8.2c2.6,0.7,4.9,2.4,6.3,4.7l0,0C194.2,345.9,200.4,352.7,207.8,358.1z"/>
				<path class="st2" d="M146.8,219.8l19.5,2.1c0.4-13.3,1.6-26.6,2.1-39.9l-24.1-1.6C153,189.7,152.2,207.9,146.8,219.8z"/>
				<path class="st2" d="M324.6,348.1c-3.6-5.5-52-21-71-26.9c-18.9-5.9-78.6-33.9-89.6-36.2l-12.9,3.2c-4.9,1.7-9,5.3-11.3,10
					c-2.5,5.3-2.4,11.3,0.1,16.6v0.1c2.4,5.1,7,8.8,12.4,10.3l30.8,8.2c2.6,0.7,4.9,2.4,6.3,4.7c4.7,7.8,10.9,14.6,18.3,20
					l78.5,57.7C282.8,406.1,294.1,360.1,324.6,348.1z"/>
				<path class="st1" d="M211.1,367.8L211.1,367.8c2-4.4,6.1-7.6,10.9-8.3l3.5-0.5c8-1.2,16.2-1.5,24.2-0.8l5.2,0.4
					c4.3,0.3,8.3,2.5,10.9,6l0,0c3.4,4.5,4,10.5,1.6,15.6l-0.1,0.1c-2.2,4.6-6.6,7.9-11.6,8.5l-3.7,0.5c-8.8,1.2-17.8,1.3-26.6,0.3
					l-2.5-0.3c-5.8-0.6-10.6-4.8-12.2-10.4l-0.4-1.6C209.5,374.2,209.8,370.8,211.1,367.8z"/>
				<path class="st3" d="M300.6,89.6"/>
			</g>
			<g>
				<g>
					<g>
						<g>
							<path class="st4" d="M317.5,349.9H176.8c-8.2,0-14.8-6.6-14.8-14.8V51.8c0-8.2,6.6-14.8,14.8-14.8h140.7
								c8.2,0,14.8,6.6,14.8,14.8v283.3C332.3,343.3,325.7,349.9,317.5,349.9z"/>
						</g>
						<path class="st5" d="M158.2,92.4L158.2,92.4v12.2l0,0h3.8V92.4H158.2z"/>
						<path class="st5" d="M158.2,114.8L158.2,114.8V127l0,0h3.8v-12.2H158.2z"/>
					</g>
					<g>
						<path class="st6" d="M256.7,53h-19c-1.3,0-2.3-1-2.3-2.3v-0.4c0-1.3,1-2.3,2.3-2.3h19c1.3,0,2.3,1,2.3,2.3v0.4
							C259,51.9,258,53,256.7,53z"/>
						<path class="st6" d="M229,50.4c0-1.4-1.1-2.5-2.5-2.5S224,49,224,50.4s1.1,2.5,2.5,2.5C227.9,53,229,51.8,229,50.4z"/>
					</g>
				</g>
				<g>
					<g>
						<circle class="st6" cx="247.2" cy="330.9" r="11.7"/>
					</g>
					<g>
						<path class="st7" d="M250.1,336.2h-5.9c-1.3,0-2.4-1.1-2.4-2.4V328c0-1.3,1.1-2.4,2.4-2.4h5.9c1.3,0,2.4,1.1,2.4,2.4v5.9
							C252.5,335.2,251.4,336.2,250.1,336.2z M244.2,327.5c-0.3,0-0.5,0.2-0.5,0.5v5.9c0,0.3,0.2,0.5,0.5,0.5h5.9
							c0.3,0,0.5-0.2,0.5-0.5V328c0-0.3-0.2-0.5-0.5-0.5H244.2z"/>
					</g>
				</g>
			</g>
			<g>
				<path class="st1" d="M144.3,292.1l-3.3,3.1c-3.9,3.6-5.8,8.9-5.2,14.1l0.2,2c1.2,10.2,7.9,19,17.5,22.7l0,0
					c3,1.2,6.4,0.4,8.5-1.9l1.9-2c7.1-7.6,7.8-19.1,1.6-27.5l-3-4.1c-3-4.1-7.4-7-12.4-8.1l0,0C148.1,290,145.9,290.6,144.3,292.1z"
					/>
			</g>
			<g>
				<path class="st1" d="M144.3,238.4l-3.3,3.1c-3.9,3.6-5.8,8.9-5.2,14.1l0.2,2c1.2,10.2,7.9,19,17.5,22.7l0,0
					c3,1.2,6.4,0.4,8.5-1.9l1.9-2c7.1-7.6,7.8-19.1,1.6-27.5l-3-4.1c-3-4.1-7.4-7-12.4-8.1l0,0C148.1,236.3,145.9,236.9,144.3,238.4
					z"/>
			</g>
			<g>
				<g>
					<path class="st8" d="M321,312.5H173.3c-2,0-3.6-1.6-3.6-3.6V81.6c0-2,1.6-3.6,3.6-3.6H321c2,0,3.6,1.6,3.6,3.6v227.3
						C324.6,310.8,323,312.5,321,312.5z"/>
				</g>
				<g>
					<path class="st9" d="M169.7,283.7v25.1c0,2,1.6,3.6,3.6,3.6H321c2,0,3.6-1.6,3.6-3.6v-25.1H169.7z"/>
					<path class="st9" d="M324.6,119V81.6c0-2-1.6-3.6-3.6-3.6H173.3c-2,0-3.6,1.6-3.6,3.6V119H324.6z"/>
				</g>
				<g>
					<circle class="st4" cx="202.2" cy="97.9" r="12.4"/>
					<g>
						<g>
							<defs>
								<circle id="SVGID_1_" cx="202.2" cy="97.9" r="12.4"/>
							</defs>
							<clipPath id="SVGID_2_">
								<use xlink:href="#SVGID_1_"  style="overflow:visible;"/>
							</clipPath>
							<path class="st10" d="M211.4,105.1c0,0-3.5-1.2-4.8-1.7c-0.9-0.3-1.6-0.9-1.6-1.8c0.2-0.2,0.3-0.3,0.4-0.5l0.9-1.4
								c0.5-0.8,0.8-1.6,0.9-2.5c0.2-0.1,0.4-0.2,0.5-0.4c0,0,0,0,0-0.1l0.6-1.3c0.1-0.4-0.1-0.9-0.5-1.1h-0.1
								c-0.2-0.1-0.4-0.1-0.5,0V92c0-0.8,0.3-2.7-0.9-3.5c-1.9-1.3-5.6-1.5-6.5,0.1c-2.9-0.4-2.9,1.8-2.9,3.7l0.2,2
								c-0.1,0-0.2,0-0.3,0.1h-0.1c-0.4,0.2-0.6,0.7-0.5,1.1l0.6,1.3c0,0,0,0,0,0.1c0.1,0.2,0.3,0.4,0.5,0.4
								c0.1,0.9,0.4,1.8,0.9,2.5l0.9,1.4c0.2,0.3,0.4,0.5,0.6,0.7c-0.1,0.8-0.8,1.4-1.6,1.6c-1.3,0.5-5.1,1.7-5.1,1.7
								c-1.9,0.7-3.2,2.5-3.2,4.5v0.6h24.7v-0.6C214.6,107.6,213.3,105.8,211.4,105.1z"/>
						</g>
					</g>
				</g>
				<path class="st11" d="M298.9,305.8H201c-2.5,0-4.6-2-4.6-4.6v-6.4c0-2.5,2-4.6,4.6-4.6h97.9c2.5,0,4.6,2,4.6,4.6v6.4
					C303.5,303.8,301.4,305.8,298.9,305.8z"/>
				<g>
					<rect x="189.9" y="140.3" class="st12" width="120.2" height="8.7"/>
					<rect x="189.9" y="209.5" class="st12" width="120.2" height="8.7"/>
					<rect x="189.9" y="157.8" class="st12" width="120.2" height="8.7"/>
					<rect x="189.9" y="175.2" class="st12" width="120.2" height="8.7"/>
					<rect x="189.9" y="192.6" class="st12" width="120.2" height="8.7"/>
				</g>
				<g>
					<rect x="237.3" y="224.9" class="st13" width="72.8" height="8.7"/>
					<rect x="247.2" y="242.3" class="st13" width="62.9" height="8.7"/>
				</g>
				<g>
					<path class="st14" d="M306.9,99.6c0-1.7-1.4-3.1-3.2-3.1c-1.8,0-3.2,1.4-3.2,3.1s1.4,3.1,3.2,3.1S306.9,101.3,306.9,99.6z"/>
					<path class="st14" d="M311.6,94.2h-4.3l-0.8-1.6c-0.2-0.3-0.5-0.5-0.9-0.5h-1.9h-1.9c-0.4,0-0.7,0.2-0.9,0.5l-0.8,1.6h-1.4
						v-0.5c0-0.2-0.2-0.3-0.4-0.3h-1.4c-0.2,0-0.4,0.2-0.4,0.3v0.5h-0.8c-0.6,0-1.1,0.5-1.1,1v8.8c0,0.6,0.5,1,1.1,1h15.9
						c0.6,0,1.1-0.5,1.1-1v-8.8C312.7,94.7,312.2,94.2,311.6,94.2z M303.7,103.7c-2.3,0-4.2-1.8-4.2-4.1c0-2.3,1.9-4.1,4.2-4.1
						c2.3,0,4.2,1.8,4.2,4.1C307.9,101.9,306,103.7,303.7,103.7z M308.4,96.6c-0.3,0-0.6-0.2-0.6-0.6c0-0.3,0.3-0.6,0.6-0.6
						c0.3,0,0.6,0.2,0.6,0.6C309,96.3,308.7,96.6,308.4,96.6z"/>
				</g>
				<g>
					<path class="st15" d="M283.1,93.5L283.1,93.5c1.7,1.7,1.7,4.4,0,6.1l0,0c-1.7,1.7-4.4,1.7-6.1,0l0,0c-1.7-1.7-1.7-4.4,0-6.1
						l0,0C278.7,91.8,281.4,91.8,283.1,93.5z"/>
					<line class="st16" x1="277" y1="99.6" x2="271.5" y2="105.1"/>
				</g>
				<path class="st16" d="M259.2,99l-2.6,2.6c-0.6,0.6-1.5,0.6-2,0l-0.4-0.4c-0.6-0.6-0.6-1.5,0-2l4.4-4.4c0.8-0.8,2.1-0.8,2.8,0
					l0.9,0.9c0.8,0.8,0.8,2.1,0,2.8l-5.9,5.9c-0.9,0.9-2.3,0.9-3.2,0l-1.9-1.9c-0.9-0.9-0.9-2.3,0-3.2l7.3-7.3"/>
			</g>
		</g>
		<g>
			<path class="st1" d="M215.9,258.5l-2.4-0.8c-10.5-2.2-18.6,4.6-22.1,14.7l-22.1,62.8l-22.9,54.4l-6.7-6.4
				c-7.4-7-17.5-10.4-27.6-9.3l-6,0.7c-5.2,0.6-10.5-0.4-15.2-2.9l-6.2-3.3c-4.6-2.5-9.9-3.3-15.1-2.3l-8.2,1.5
				c-3.2,0.6-6.5,0.8-9.7,0.7l-5.3-0.2c-15.6-0.6-30.1,8.2-36.8,22.4c0,0-31.7,97.3-32.3,101.2c-0.8,5.5-0.6,11.2,0.9,16.7l3.2,12
				c2,7.6,1.7,15.6-0.9,23l-37,82.6l156.3,18.8l24.2-81.3c21.5-9.1,38.9-26,48.6-47.3l15.6-34.5c6.6-14.5,5.3-31.4-3.4-44.7
				l-2.3-3.5l22.3-81.1l20.3-70.3C228.1,270.3,225.4,261.8,215.9,258.5z"/>
			<path class="st1" d="M146.3,389.6c0,0-16.4-9.1-29.1-6.5c-8.9,1.8-17.7,4-26-1.1c-13.3-8.2-28.4-1.8-37.3-6.2
				c-10.4-5.1-24.9-4.1-29.6-1.8c6.5-4,14.1-6.2,22.1-5.9l5.3,0.2c3.3,0.1,6.5-0.1,9.7-0.7l8.2-1.5c5.1-1,10.5-0.1,15.1,2.3l4.1-4.6
				c4.5-5,11.2-7.5,17.9-6.7l9,1.1l8.6-8.3c4.3-4.2,9.8-7.1,15.7-8.3l0,0c7.3-1.5,14.8,1,19.7,6.5l2.8,3.1L146.3,389.6z"/>
		</g>
	</g>
	<g>
		<g>
			<path class="st17" d="M209.8,229.1h1.4c0.2,0,0.2,0,0.2,0.3v2c0,0.2,0,0.2-0.2,0.3c-0.6,0.2-1.1,0.3-1.8,0.3
				c-2,0-2.8-1.2-2.8-2.8c0-1.7,0.8-2.9,2.9-2.9c0.8,0,1.3,0.2,1.7,0.4c0.2,0.1,0.2,0.3,0.2,0.4c0,0.1,0,0.2-0.1,0.1
				c-0.4-0.2-0.9-0.5-1.7-0.5c-1.7,0-2.3,0.9-2.3,2.4c0,1.3,0.5,2.3,2.2,2.3c0.4,0,0.9,0,1.4-0.3v-1.7H210c-0.3,0-0.4-0.2-0.4-0.4
				C209.5,229.1,209.6,229.1,209.8,229.1"/>
			<path class="st17" d="M212.9,230.3v1.4c0,0.2,0,0.2-0.2,0.2h-0.1c-0.2,0-0.2,0-0.2-0.2v-3.2c0-0.1,0-0.2,0.1-0.2
				c0.3,0,0.4,0.1,0.4,0.4v0.3c0.2-0.6,0.5-0.8,1-0.8s0.6,0.2,0.6,0.4c0,0.1,0,0.1-0.1,0.1c-0.2,0-0.3-0.1-0.4-0.1
				C213.3,228.7,212.9,229.3,212.9,230.3"/>
			<path class="st17" d="M217.5,231.5v-0.1c-0.2,0.3-0.6,0.5-1.2,0.5c-0.9,0-1.3-0.5-1.3-1.4v-2.1c0-0.1,0-0.2,0.1-0.2
				c0.3,0,0.4,0.1,0.4,0.4v1.8c0,0.5,0.2,0.9,0.8,0.9c0.7,0,1-0.4,1.1-0.9v-2c0-0.1,0-0.2,0.1-0.2c0.3,0,0.5,0.1,0.5,0.4v3
				c0,0.1,0,0.2-0.1,0.2C217.7,232,217.5,231.8,217.5,231.5"/>
			<path class="st17" d="M219.7,231.4v2.1c0,0.2,0,0.2-0.2,0.2h-0.1c-0.2,0-0.2,0-0.2-0.2v-5c0-0.1,0-0.2,0.1-0.2
				c0.3,0,0.4,0.1,0.4,0.4v0.2c0.3-0.4,0.7-0.7,1.3-0.7c1.1,0,1.7,0.8,1.7,1.9s-0.6,1.8-1.7,1.8C220.4,232,220,231.8,219.7,231.4
				 M220.9,231.5c0.8,0,1.3-0.6,1.3-1.3s-0.4-1.4-1.2-1.4c-0.9,0-1.3,0.7-1.3,1.4C219.7,230.8,220,231.5,220.9,231.5"/>
			<path class="st17" d="M225.3,228.3c1.2,0,1.9,0.7,1.9,1.9c0,1.1-0.7,1.8-1.9,1.8s-1.9-0.7-1.9-1.8S224.1,228.3,225.3,228.3
				 M225.3,231.5c0.8,0,1.3-0.5,1.3-1.4c0-0.8-0.5-1.4-1.3-1.4s-1.3,0.6-1.3,1.4C224,231,224.4,231.5,225.3,231.5"/>
			<path class="st18" d="M207,238.7v-5c0-0.2,0-0.3,0.3-0.3h2.7c0.1,0,0.2,0,0.2,0.1c0,0.2-0.1,0.4-0.5,0.4h-2v1.9h1.9
				c0.1,0,0.2,0,0.2,0.1c0,0.2-0.1,0.4-0.5,0.4h-1.5v2.1h2.3c0.2,0,0.2,0,0.2,0.2v0.1c0,0.1,0,0.2-0.2,0.2h-2.6
				C207,238.9,207,238.9,207,238.7"/>
			<path class="st18" d="M213.6,238.9h-0.1c-0.2,0-0.2,0-0.2-0.2v-2c0-0.6-0.2-0.9-0.9-0.9s-1,0.4-1,1v2c0,0.2,0,0.2-0.2,0.2H211
				c-0.2,0-0.2,0-0.2-0.2v-3.2c0-0.1,0-0.2,0.1-0.2c0.3,0,0.4,0.1,0.4,0.4v0.1c0.2-0.3,0.6-0.5,1.2-0.5c0.9,0,1.3,0.5,1.3,1.4v2
				C213.8,238.9,213.7,238.9,213.6,238.9"/>
			<path class="st18" d="M215.2,237.4c0.1,0.8,0.5,1.1,1.3,1.1c0.6,0,1-0.1,1.4-0.3c0.1-0.1,0.2,0,0.2,0.1c0,0.2-0.1,0.3-0.3,0.5
				c-0.3,0.1-0.7,0.3-1.3,0.3c-1.1,0-1.8-0.5-1.8-1.8s0.6-1.9,1.7-1.9c1.1,0,1.7,0.7,1.7,1.8c0,0.2-0.1,0.3-0.3,0.3L215.2,237.4
				L215.2,237.4z M215.2,237h2.3c0-0.7-0.4-1.2-1.1-1.2C215.7,235.8,215.3,236.2,215.2,237"/>
			<path class="st18" d="M219.5,237.3v1.4c0,0.2,0,0.2-0.2,0.2h-0.1c-0.2,0-0.2,0-0.2-0.2v-3.2c0-0.1,0-0.2,0.1-0.2
				c0.3,0,0.4,0.1,0.4,0.4v0.3c0.2-0.6,0.5-0.8,1-0.8s0.6,0.2,0.6,0.4c0,0.1,0,0.1-0.1,0.1c-0.2,0-0.3-0.1-0.4-0.1
				C219.8,235.8,219.5,236.3,219.5,237.3"/>
			<path class="st18" d="M221.7,240.5c-0.2-0.1-0.3-0.2-0.3-0.4c0-0.1,0.1-0.2,0.2-0.1c0.3,0.1,0.7,0.3,1.4,0.3s1.4-0.2,1.4-1.5
				v-0.4c-0.3,0.4-0.7,0.7-1.3,0.7c-1.1,0-1.7-0.7-1.7-1.8s0.6-1.9,1.7-1.9c0.7,0,1.1,0.3,1.3,0.7V236c0-0.3,0.1-0.5,0.4-0.5
				c0.1,0,0.1,0.1,0.1,0.2v3.2c0,1.6-0.9,1.9-1.9,1.9C222.3,240.7,221.9,240.6,221.7,240.5 M223.1,235.8c-0.8,0-1.2,0.6-1.2,1.4
				s0.4,1.3,1.3,1.3c0.9,0,1.3-0.7,1.3-1.3C224.4,236.5,224,235.8,223.1,235.8"/>
			<path class="st18" d="M226.4,233.5c0.1-0.1,0.1-0.1,0.3-0.1h0.3c0.1,0,0.1,0.1,0.1,0.2l-0.7,0.8c-0.1,0.1-0.1,0.1-0.2,0.1h-0.3
				c-0.1,0-0.1,0,0-0.1L226.4,233.5z M226.5,235.8v2.9c0,0.2,0,0.2-0.2,0.2h-0.1c-0.2,0-0.2,0-0.2-0.2v-3.2c0-0.1,0-0.2,0.1-0.2
				C226.4,235.4,226.5,235.5,226.5,235.8"/>
			<path class="st18" d="M228.7,237c0.3,0,0.7,0,1.1,0.1v-0.5c0-0.8-0.6-0.8-1.1-0.8c-0.4,0-0.7,0.1-1,0.1c-0.2,0.1-0.2,0-0.2-0.1
				c0-0.2,0.1-0.3,0.3-0.4c0.2-0.1,0.6-0.1,1-0.1c0.5,0,1.5,0.1,1.5,1.2v2.3c0,0.1,0,0.2-0.1,0.2c-0.3,0-0.4-0.1-0.5-0.3
				c-0.2,0.1-0.6,0.4-1.3,0.4c-0.8,0-1.2-0.3-1.2-1C227.3,237.2,227.8,237,228.7,237 M229.8,237.5c-0.3-0.1-0.7-0.1-1-0.1
				c-0.6,0-0.9,0.1-0.9,0.5s0.3,0.6,0.8,0.6c0.7,0,1-0.2,1.2-0.3v-0.7H229.8z"/>
			<path class="st18" d="M207.2,246c-0.2,0-0.2,0-0.2-0.2v-5.1c0-0.2,0-0.3,0.3-0.3h1.5c1.1,0,1.5,0.6,1.5,1.4
				c0,0.7-0.3,1.1-0.8,1.3c0.8,0.1,1.2,0.6,1.2,1.4c0,0.9-0.5,1.5-1.7,1.5L207.2,246L207.2,246z M207.5,240.9v1.9h1.2
				c0.7,0,1-0.3,1-1c0-0.5-0.3-0.9-1.1-0.9H207.5L207.5,240.9z M207.5,243.3v2.1h1.3c0.9,0,1.3-0.4,1.3-1.1c0-0.7-0.5-1.1-1.3-1.1
				L207.5,243.3L207.5,243.3z"/>
			<path class="st18" d="M213.2,242.3c1.2,0,1.9,0.7,1.9,1.9c0,1.1-0.7,1.8-1.9,1.8s-1.9-0.7-1.9-1.8S212,242.3,213.2,242.3
				 M213.2,245.5c0.8,0,1.3-0.5,1.3-1.4c0-0.8-0.5-1.4-1.3-1.4s-1.3,0.6-1.3,1.4C211.9,245,212.4,245.5,213.2,245.5"/>
			<path class="st18" d="M216.1,247.5c-0.2-0.1-0.3-0.2-0.3-0.4c0-0.1,0.1-0.2,0.2-0.1c0.3,0.1,0.7,0.3,1.4,0.3s1.4-0.2,1.4-1.5
				v-0.4c-0.3,0.4-0.7,0.7-1.3,0.7c-1.1,0-1.7-0.7-1.7-1.8s0.6-1.9,1.7-1.9c0.7,0,1.1,0.3,1.3,0.7V243c0-0.3,0.1-0.5,0.4-0.5
				c0.1,0,0.1,0.1,0.1,0.2v3.2c0,1.6-0.9,1.9-1.9,1.9C216.7,247.7,216.3,247.6,216.1,247.5 M217.5,242.8c-0.8,0-1.2,0.6-1.2,1.4
				c0,0.8,0.4,1.3,1.3,1.3c0.9,0,1.3-0.7,1.3-1.3C218.8,243.5,218.4,242.8,217.5,242.8"/>
			<path class="st18" d="M222.1,242.3c1.2,0,1.9,0.7,1.9,1.9c0,1.1-0.7,1.8-1.9,1.8s-1.9-0.7-1.9-1.8S220.8,242.3,222.1,242.3
				 M222.1,245.5c0.8,0,1.3-0.5,1.3-1.4c0-0.8-0.5-1.4-1.3-1.4s-1.3,0.6-1.3,1.4C220.8,245,221.2,245.5,222.1,245.5"/>
			<path class="st18" d="M225.5,241.5v0.9h0.9c0.1,0,0.2,0,0.2,0.2v0.1c0,0.2,0,0.2-0.2,0.2h-0.9v2c0,0.5,0.3,0.7,0.5,0.7
				s0.4-0.1,0.5-0.1s0.1,0,0.1,0.1s0,0.2-0.1,0.2c-0.1,0.2-0.3,0.3-0.7,0.3c-0.6,0-0.9-0.4-0.9-1.1v-2h-0.4c-0.1,0-0.2,0-0.2-0.2
				v-0.1c0-0.1,0-0.2,0.2-0.2h0.4v-0.3c0-0.6,0.2-0.8,0.4-0.8C225.5,241.3,225.5,241.3,225.5,241.5"/>
			<path class="st18" d="M228.5,244c0.3,0,0.7,0,1.1,0.1v-0.5c0-0.8-0.6-0.8-1.1-0.8c-0.4,0-0.7,0.1-1,0.1c-0.2,0.1-0.2,0-0.2-0.1
				c0-0.2,0.1-0.3,0.3-0.4c0.2-0.1,0.6-0.1,1-0.1c0.5,0,1.5,0.1,1.5,1.2v2.3c0,0.1,0,0.2-0.1,0.2c-0.3,0-0.4-0.1-0.5-0.3
				c-0.2,0.1-0.6,0.4-1.3,0.4c-0.8,0-1.2-0.3-1.2-1C227.1,244.2,227.6,244,228.5,244 M229.6,244.5c-0.3-0.1-0.7-0.1-1-0.1
				c-0.6,0-0.9,0.1-0.9,0.5s0.3,0.6,0.8,0.6c0.7,0,1-0.2,1.2-0.3v-0.7H229.6z M228.9,240.5c0.1-0.1,0.1-0.1,0.3-0.1h0.3
				c0.1,0,0.1,0.1,0.1,0.2l-0.7,0.8c-0.1,0.1-0.1,0.1-0.2,0.1h-0.2c-0.1,0-0.1,0,0-0.1L228.9,240.5z"/>
			<path class="st19" d="M187.5,242.4L187.5,242.4c-1.7-1.3-2.6-3.3-2.6-5.5c0-2.1,1-4.1,2.6-5.4c0.1,0,0.1,0,0.2,0
				c0,0.1,0,0.1,0,0.2c-1.6,1.2-2.5,3.1-2.5,5.2c0,2.1,0.9,4,2.5,5.2C187.7,242.2,187.7,242.3,187.5,242.4
				C187.6,242.4,187.6,242.4,187.5,242.4"/>
			<g>
				<g>
					<g>
						<g>
							<g>
								<defs>
									<rect id="SVGID_3_" x="186.5" y="229.9" width="13.8" height="13.8"/>
								</defs>
								<clipPath id="SVGID_4_">
									<use xlink:href="#SVGID_3_"  style="overflow:visible;"/>
								</clipPath>
								<path class="st20" d="M193.4,243.7c-2.6,0-5-1.4-6.2-3.9c-0.2-0.5-0.4-0.9-0.5-1.4c-0.1-0.4-0.2-0.9-0.2-1.3
									c0-0.1,0.1-0.1,0.1-0.1c0.1,0,0.1,0.1,0.1,0.1c0,0.4,0.1,0.9,0.2,1.3c0.1,0.5,0.3,0.9,0.5,1.3c1.6,3.3,5.6,4.7,8.9,3.1
									c1.6-0.8,2.8-2.1,3.4-3.8c0.6-1.7,0.5-3.5-0.3-5.1c-1.1-2.2-3.3-3.7-5.7-3.8c-0.1,0-0.1-0.1-0.1-0.1c0-0.1,0.1-0.1,0.1-0.1
									c2.5,0.1,4.8,1.6,5.9,3.9c0.8,1.7,0.9,3.5,0.3,5.3c-0.6,1.7-1.9,3.1-3.5,3.9C195.5,243.4,194.4,243.7,193.4,243.7"/>
							</g>
						</g>
					</g>
				</g>
			</g>
			<g>
				<g>
					<g>
						<g>
							<g>
								<defs>
									<rect id="SVGID_5_" x="187" y="228.2" width="11.9" height="13.8"/>
								</defs>
								<clipPath id="SVGID_6_">
									<use xlink:href="#SVGID_5_"  style="overflow:visible;"/>
								</clipPath>
								<path class="st21" d="M193.9,242c-0.9,0-1.8-0.2-2.7-0.5c-1.7-0.7-3-2.1-3.7-3.8s-0.7-3.6,0.1-5.3c0.7-1.7,2.1-3,3.8-3.7
									s3.6-0.7,5.3,0.1c0.5,0.2,0.9,0.4,1.3,0.7c0.3,0.3,0.7,0.5,1,0.9c0.1,0.1,0.1,0.1,0,0.2c-0.1,0.1-0.1,0.1-0.2,0
									c-0.3-0.3-0.6-0.6-0.9-0.8c-0.4-0.3-0.8-0.5-1.3-0.7c-1.6-0.7-3.4-0.7-5.1-0.1c-1.7,0.7-2.9,1.9-3.6,3.6
									c-0.7,1.6-0.7,3.4-0.1,5.1c0.7,1.7,1.9,2.9,3.6,3.6c2.3,1,4.9,0.6,6.8-0.9c0.1,0,0.1,0,0.2,0c0,0.1,0,0.1,0,0.2
									C197,241.5,195.4,242,193.9,242"/>
							</g>
						</g>
					</g>
				</g>
			</g>
			<path class="st18" d="M185,234.4c0-1.7,1.4-3.1,3.1-3.1s3.1,1.4,3.1,3.1c0,1.7-1.4,3.1-3.1,3.1S185,236.1,185,234.4"/>
			<path class="st18" d="M192,232.8c0-1.7,1.4-3.1,3.1-3.1c1.7,0,3.1,1.4,3.1,3.1c0,1.7-1.4,3.1-3.1,3.1
				C193.4,235.9,192,234.5,192,232.8"/>
			<path class="st19" d="M194.5,241.5c-0.1-1.3,0.8-2.5,2.1-2.6s2.5,0.8,2.6,2.1s-0.8,2.5-2.1,2.6
				C195.8,243.8,194.6,242.8,194.5,241.5"/>
			<path class="st19" d="M192.4,228.5c0-1.3,1.1-2.4,2.4-2.4c1.3,0,2.4,1.1,2.4,2.4s-1.1,2.4-2.4,2.4
				C193.4,230.8,192.4,229.8,192.4,228.5"/>
			<path class="st19" d="M186.6,244.2c0-1.3,1.1-2.4,2.4-2.4s2.4,1.1,2.4,2.4s-1.1,2.4-2.4,2.4C187.7,246.6,186.6,245.5,186.6,244.2
				"/>
			<path class="st22" d="M191.2,239.2c0-0.5,0.4-0.8,0.8-0.8c0.5,0,0.8,0.4,0.8,0.8c0,0.5-0.4,0.8-0.8,0.8
				C191.6,240,191.2,239.6,191.2,239.2"/>
			<path class="st23" d="M201.8,230.7c-0.1,0-0.1-0.1-0.1-0.1c-0.4-3.2-3.1-5.7-6.3-5.9c-0.1,0-0.1-0.1-0.1-0.1l0.1-0.1
				c3.3,0.1,6.2,2.7,6.6,6.1C202,230.6,201.9,230.6,201.8,230.7L201.8,230.7"/>
			<path class="st23" d="M197.5,239.1c0-1.5,1.2-2.7,2.7-2.7s2.7,1.2,2.7,2.7s-1.2,2.7-2.7,2.7C198.8,241.8,197.5,240.6,197.5,239.1
				"/>
			<path class="st23" d="M199.7,229.5c0-1,0.8-1.8,1.8-1.8s1.8,0.8,1.8,1.8s-0.8,1.8-1.8,1.8S199.7,230.5,199.7,229.5"/>
			<path class="st23" d="M187.8,228.5c0-0.5,0.4-0.8,0.8-0.8s0.8,0.4,0.8,0.8c0,0.5-0.4,0.8-0.8,0.8S187.8,228.9,187.8,228.5"/>
			<path class="st18" d="M195.6,247.6c-0.3-0.1-0.4-0.5-0.3-0.7c0.1-0.3,0.5-0.4,0.7-0.3c0.3,0.1,0.4,0.5,0.3,0.7
				C196.3,247.5,195.9,247.7,195.6,247.6"/>
			<path class="st24" d="M192.7,243.3c0-1,0.8-1.8,1.8-1.8s1.8,0.8,1.8,1.8s-0.8,1.8-1.8,1.8S192.7,244.3,192.7,243.3"/>
			<path class="st24" d="M183.5,240c0-1,0.8-1.8,1.8-1.8s1.8,0.8,1.8,1.8s-0.8,1.8-1.8,1.8S183.5,241,183.5,240"/>
			<path class="st18" d="M182.3,230.9c-0.3-0.1-0.4-0.5-0.3-0.7c0.1-0.3,0.5-0.4,0.7-0.3c0.3,0.1,0.4,0.5,0.3,0.7
				C182.9,230.9,182.6,231,182.3,230.9"/>
		</g>
	</g>
	<path class="st9" d="M284.2,279.1h-51.4c-2.9,0-5.3-2.4-5.3-5.3v-9.4c0-2.9,2.4-5.3,5.3-5.3h51.4c2.9,0,5.3,2.4,5.3,5.3v9.4
		C289.5,276.8,287.1,279.1,284.2,279.1z"/>
	<g class="st25">
		<path class="st11" d="M237.3,272.7H236c-0.6,0-1.1-0.2-1.5-0.5c-0.3-0.3-0.5-0.8-0.5-1.5v-3.8c0-0.6,0.2-1.1,0.5-1.5
			c0.3-0.3,0.8-0.5,1.5-0.5h1.3c0.6,0,1.1,0.2,1.5,0.5c0.3,0.3,0.5,0.8,0.5,1.4v0.6c0,0.2-0.1,0.3-0.3,0.3h-1
			c-0.2,0-0.3-0.1-0.3-0.3V267c0-0.3-0.1-0.4-0.2-0.5c-0.1-0.1-0.3-0.2-0.5-0.2h-0.8c-0.2,0-0.4,0.1-0.5,0.2
			c-0.1,0.1-0.2,0.3-0.2,0.5v3.7c0,0.3,0.1,0.4,0.2,0.5c0.1,0.1,0.3,0.2,0.5,0.2h0.8c0.3,0,0.4-0.1,0.5-0.2c0.1-0.1,0.2-0.3,0.2-0.5
			v-0.5c0-0.2,0.1-0.3,0.3-0.3h1c0.2,0,0.3,0.1,0.3,0.3v0.6c0,0.6-0.2,1.1-0.5,1.4C238.4,272.5,238,272.7,237.3,272.7z"/>
		<path class="st11" d="M243.4,272.7h-1.1c-0.6,0-1.1-0.2-1.5-0.5c-0.3-0.3-0.5-0.8-0.5-1.5v-2.2c0-0.6,0.2-1.1,0.5-1.5
			c0.3-0.3,0.8-0.5,1.5-0.5h1.1c0.6,0,1.1,0.2,1.5,0.5c0.3,0.3,0.5,0.8,0.5,1.4v2.2c0,0.6-0.2,1.1-0.5,1.4S244,272.7,243.4,272.7z
			 M242.6,271.3h0.6c0.3,0,0.4-0.1,0.5-0.2c0.1-0.1,0.2-0.3,0.2-0.5v-2.1c0-0.3-0.1-0.4-0.2-0.5c-0.1-0.1-0.3-0.2-0.5-0.2h-0.6
			c-0.3,0-0.4,0.1-0.5,0.2c-0.1,0.1-0.2,0.3-0.2,0.5v2.1c0,0.3,0.1,0.4,0.2,0.5C242.1,271.3,242.3,271.3,242.6,271.3z"/>
		<path class="st11" d="M247.9,272.7h-1c-0.2,0-0.3-0.1-0.3-0.3v-5.6c0-0.2,0.1-0.3,0.3-0.3h1c0.2,0,0.3,0.1,0.3,0.3v0.4h0
			c0.1-0.2,0.3-0.3,0.5-0.5c0.2-0.1,0.5-0.2,0.8-0.2h0.3c0.7,0,1.2,0.3,1.5,0.8c0.3-0.5,0.7-0.8,1.4-0.8h0.3c0.6,0,1.1,0.2,1.4,0.5
			c0.3,0.3,0.5,0.8,0.5,1.5v3.9c0,0.2-0.1,0.3-0.3,0.3h-1c-0.2,0-0.3-0.1-0.3-0.3v-3.8c0-0.3-0.1-0.4-0.2-0.5
			c-0.1-0.1-0.3-0.2-0.5-0.2h-0.3c-0.6,0-0.8,0.3-0.8,0.9v3.6c0,0.2-0.1,0.3-0.3,0.3h-1c-0.2,0-0.3-0.1-0.3-0.3v-3.8
			c0-0.3-0.1-0.4-0.2-0.5c-0.1-0.1-0.3-0.2-0.5-0.2H249c-0.6,0-0.8,0.3-0.8,0.9v3.6C248.1,272.6,248,272.7,247.9,272.7z"/>
		<path class="st11" d="M257.5,274.3h-1c-0.2,0-0.3-0.1-0.3-0.2v-7.3c0-0.2,0.1-0.3,0.3-0.3h1c0.2,0,0.3,0.1,0.3,0.3v0.4h0
			c0.1-0.2,0.2-0.4,0.5-0.5c0.2-0.1,0.5-0.2,0.7-0.2h0.5c0.6,0,1.1,0.2,1.4,0.5c0.3,0.3,0.5,0.8,0.5,1.5v2.2c0,0.6-0.2,1.1-0.5,1.5
			c-0.3,0.3-0.8,0.5-1.4,0.5h-0.5c-0.2,0-0.5-0.1-0.7-0.2c-0.2-0.1-0.4-0.3-0.5-0.5h0v2C257.7,274.2,257.6,274.3,257.5,274.3z
			 M258.5,271.3h0.5c0.3,0,0.4-0.1,0.5-0.2c0.1-0.1,0.2-0.3,0.2-0.5v-2.1c0-0.3-0.1-0.4-0.2-0.5c-0.1-0.1-0.3-0.2-0.5-0.2h-0.5
			c-0.6,0-0.8,0.3-0.8,0.9v1.7C257.7,271,258,271.3,258.5,271.3z"/>
		<path class="st11" d="M264.6,272.7h-0.3c-0.6,0-1.1-0.2-1.5-0.5c-0.3-0.3-0.5-0.8-0.5-1.5v-2.2c0-0.6,0.2-1.1,0.5-1.5
			c0.3-0.3,0.8-0.5,1.5-0.5h2.8c0.2,0,0.3,0.1,0.3,0.3v5.6c0,0.2-0.1,0.3-0.3,0.3h-1c-0.2,0-0.3-0.1-0.3-0.3V272h0
			c-0.1,0.2-0.2,0.4-0.5,0.5C265.1,272.6,264.9,272.7,264.6,272.7z M265.9,270.4V268c0-0.1,0-0.1-0.1-0.1h-1.1
			c-0.3,0-0.4,0.1-0.5,0.2c-0.1,0.1-0.2,0.3-0.2,0.5v2.1c0,0.3,0.1,0.4,0.2,0.5c0.1,0.1,0.3,0.2,0.5,0.2h0.4
			C265.6,271.3,265.9,271,265.9,270.4z"/>
		<path class="st11" d="M270,272.7h-1c-0.2,0-0.3-0.1-0.3-0.3v-5.6c0-0.2,0.1-0.3,0.3-0.3h1c0.2,0,0.3,0.1,0.3,0.3v0.4h0
			c0.1-0.2,0.2-0.4,0.5-0.5c0.2-0.1,0.5-0.2,0.7-0.2h0.4c0.2,0,0.2,0.1,0.2,0.3v0.8c0,0.1,0,0.2-0.1,0.2c0,0-0.1,0-0.2,0h-0.8
			c-0.6,0-0.8,0.3-0.8,0.9v3.6C270.2,272.6,270.1,272.7,270,272.7z"/>
		<path class="st11" d="M273,267.9h-0.5c-0.1,0-0.2,0-0.2,0c0,0-0.1-0.1-0.1-0.2v-0.8c0-0.2,0.1-0.3,0.3-0.3h0.5
			c0.1,0,0.1,0,0.1-0.1v-1.1c0-0.2,0.1-0.3,0.3-0.3h1c0.2,0,0.3,0.1,0.3,0.3v1.1c0,0.1,0,0.1,0.1,0.1h0.9c0.2,0,0.3,0.1,0.3,0.3v0.8
			c0,0.1,0,0.2-0.1,0.2c0,0-0.1,0.1-0.2,0.1h-0.9c-0.1,0-0.1,0-0.1,0.1v2.7c0,0.2,0.1,0.4,0.2,0.5c0.1,0.1,0.3,0.2,0.6,0.2h0.5
			c0.2,0,0.3,0.1,0.3,0.3v0.8c0,0.1,0,0.2-0.1,0.2c0,0-0.1,0.1-0.2,0.1h-0.7c-0.6,0-1.1-0.2-1.5-0.5s-0.5-0.8-0.5-1.4V268
			C273.2,267.9,273.1,267.9,273,267.9z"/>
		<path class="st11" d="M277.2,265.5v-1c0-0.2,0.1-0.2,0.2-0.2h1c0.2,0,0.2,0.1,0.2,0.2v1.1c0,0.2-0.1,0.2-0.2,0.2h-1
			C277.3,265.7,277.2,265.7,277.2,265.5z M277.2,272.4v-5.6c0-0.2,0.1-0.3,0.2-0.3h1c0.2,0,0.3,0.1,0.3,0.3v5.6c0,0.1,0,0.2-0.1,0.2
			c0,0-0.1,0-0.2,0h-1C277.3,272.7,277.2,272.6,277.2,272.4z"/>
		<path class="st11" d="M281.4,272.7h-1c-0.2,0-0.3-0.1-0.3-0.3v-5.6c0-0.2,0.1-0.3,0.3-0.3h1c0.2,0,0.3,0.1,0.3,0.3v0.4h0
			c0.1-0.2,0.2-0.4,0.5-0.5c0.2-0.1,0.5-0.2,0.7-0.2h0.4c0.2,0,0.2,0.1,0.2,0.3v0.8c0,0.1,0,0.2-0.1,0.2c0,0-0.1,0-0.2,0h-0.8
			c-0.6,0-0.8,0.3-0.8,0.9v3.6C281.6,272.6,281.5,272.7,281.4,272.7z"/>
	</g>
</g>
</svg>
