<?xml version="1.0" encoding="utf-8"?>
<!-- Generator: Adobe Illustrator 24.0.3, SVG Export Plug-In . SVG Version: 6.00 Build 0)  -->
<svg version="1.1" id="Layer_1" xmlns="http://www.w3.org/2000/svg" xmlns:xlink="http://www.w3.org/1999/xlink" x="0px" y="0px"
	 width="480px" height="600px" viewBox="0 0 480 600" style="enable-background:new 0 0 480 600;" xml:space="preserve">
<style type="text/css">
	.st0{fill:#2176BB;}
	.st1{fill:#EFEFEF;}
	.st2{fill:#DADADA;}
	.st3{fill:none;stroke:#666666;stroke-width:2.1772;stroke-linecap:round;stroke-linejoin:round;stroke-miterlimit:10;}
	.st4{fill-rule:evenodd;clip-rule:evenodd;fill:#39B24A;}
	.st5{fill-rule:evenodd;clip-rule:evenodd;fill:#BE272D;}
	.st6{fill-rule:evenodd;clip-rule:evenodd;fill:none;stroke:#808080;stroke-miterlimit:10;}
	.st7{fill:#97BD34;}
	.st8{fill:#BB7348;}
	.st9{fill:#905D3B;}
	.st10{fill:#48270F;}
	.st11{fill:#FFFFFF;}
	.st12{fill:#39170B;}
	.st13{fill:#542C23;}
	.st14{fill:#989898;}
	.st15{fill:#666666;}
</style>
<rect x="-14" y="-14.5" class="st0" width="509" height="629"/>
<g>
	<g>
		<polygon class="st1" points="421.7,507.7 70.6,508.4 69.8,63.7 119.9,23.8 420.8,23.2 		"/>
		<polygon class="st2" points="70.5,63.8 109.3,75.6 119.9,23.9 		"/>
		<line class="st3" x1="103.9" y1="114.4" x2="383.9" y2="115"/>
		<line class="st3" x1="103.9" y1="95.9" x2="383.9" y2="96.5"/>
	</g>
	<polygon class="st4" points="279.8,234.1 268.4,222.7 232,259.8 220.4,248.2 209.4,259.2 232,281.5 	"/>
	<polygon class="st4" points="279.8,327.4 268.4,316 232,353.1 220.4,341.5 209.4,352.5 232,374.8 	"/>
	<polygon class="st4" points="279.8,410.7 268.4,399.3 232,436.4 220.4,424.8 209.4,435.8 232,458.1 	"/>
	<g>
		<polygon class="st5" points="374.5,236.2 363.1,224.8 320.2,268.6 331.1,279.5 		"/>
		<polygon class="st5" points="362.5,279.7 374.2,268.7 331.6,224.5 320.4,235.1 		"/>
	</g>
	<g>
		<polygon class="st5" points="374.5,329.5 363.1,318 320.2,361.9 331.1,372.8 		"/>
		<polygon class="st5" points="362.5,373 374.2,362 331.6,317.8 320.4,328.4 		"/>
	</g>
	<g>
		<polygon class="st5" points="374.5,412.7 363.1,401.3 320.2,445.2 331.1,456.1 		"/>
		<polygon class="st5" points="362.5,456.3 374.2,445.3 331.6,401.1 320.4,411.7 		"/>
	</g>
	<g>
		<polygon class="st5" points="167.9,236.2 156.5,224.8 113.6,268.6 124.5,279.5 		"/>
		<polygon class="st5" points="155.9,279.7 167.6,268.7 125,224.5 113.9,235.1 		"/>
	</g>
	<g>
		<polygon class="st5" points="167.9,329.5 156.5,318 113.6,361.9 124.5,372.8 		"/>
		<polygon class="st5" points="155.9,373 167.6,362 125,317.8 113.9,328.4 		"/>
	</g>
	<g>
		<polygon class="st5" points="167.9,412.7 156.5,401.3 113.6,445.2 124.5,456.1 		"/>
		<polygon class="st5" points="155.9,456.3 167.6,445.3 125,401.1 113.9,411.7 		"/>
	</g>
	<rect x="102.2" y="202.8" class="st6" width="288" height="274"/>
</g>
<g>
	<circle class="st7" cx="243" cy="170.3" r="43.5"/>
	<g>
		<g>
			<g>
				<path class="st8" d="M259,178.6c-0.4,3.3,0.9,6.3,3,6.5c2.1,0.3,4.2-2.2,4.6-5.5c0.4-3.3-0.9-6.3-3-6.5
					C261.5,172.8,259.4,175.3,259,178.6z"/>
				<path class="st9" d="M261.6,177.7c0,0-0.2-0.3,1.1-0.5c0,0,1.5,0.2,0.8,1.9c-0.2,0.4-0.3,0.7-0.4,1.1c-0.1,0.6,0.2,1.3-0.1,1.8
					c-0.4,0.6-1.7,0.3-1.8-0.4c-0.1-0.6,0.6-1.5,0.8-1.9C262,179.6,262.9,178.4,261.6,177.7z"/>
			</g>
			<g>
				<path class="st8" d="M221.9,178.6c0.4,3.3-0.9,6.3-3,6.5c-2.1,0.3-4.2-2.2-4.6-5.5c-0.4-3.3,0.9-6.3,3-6.5
					C219.5,172.8,221.5,175.3,221.9,178.6z"/>
				<path class="st9" d="M219.4,177.7c0,0,0.2-0.3-1.1-0.5c0,0-1.5,0.2-0.8,1.9c0.2,0.4,0.3,0.7,0.4,1.1c0.1,0.6-0.2,1.3,0.1,1.8
					c0.4,0.6,1.7,0.3,1.8-0.4c0.1-0.6-0.5-1.5-0.8-1.9C218.9,179.6,218,178.4,219.4,177.7z"/>
			</g>
		</g>
		<path class="st8" d="M240.5,140.9L240.5,140.9C240.5,140.9,240.5,140.9,240.5,140.9c-0.1,0-0.1,0-0.1,0v0
			c-5,0.3-26.9,3.4-21.7,37.1l1.3,14.1c0,0,1.1,3.2,5,6.2c0,0,6.8,5.7,12.4,8.2c0,0,1.2,0.4,2.9,1v0.1c0,0,0,0,0.1,0c0,0,0,0,0.1,0
			v-0.1c1.7-0.6,2.9-1,2.9-1c5.7-2.5,12.4-8.2,12.4-8.2c3.9-3,4.1-6.2,4.1-6.2l2.2-14.1C267.4,144.3,245.6,141.2,240.5,140.9z"/>
		<path class="st10" d="M257.3,136.3c0,0,7.6,4.1,8.6,13.3c0.7,6.7-1.9,23.6-1.9,23.6c-2.1-0.3-1.6,4-1.6,4l-0.9-0.1
			c-0.1-10.5-5-16.5-5-16.5c2.7-3.5-1.4-9.6-1.4-9.6c-12.7,4.7-29.2-0.1-29.2-0.1s-9.6-11.7-2.2-18c0,0,7.4-8.3,28.2-5.6
			C251.8,127.3,246,133.6,257.3,136.3z"/>
		<path class="st10" d="M225.9,150.8c0,0-4,5.5-3,9.8c0,0-5.4,4.3-3.7,16.5l-0.8,0c0,0,0.3-4.7-2.3-3.6c0,0-2.7-15.2,1.7-25
			c0,0,2.3-5.7,8.7-8.2C226.6,140.4,224.3,148.4,225.9,150.8z"/>
		<path class="st10" d="M246,164.6h9.2c0,0,2.9-2.2-0.4-2.8H246c0,0-0.7-0.1-0.9,0.4v2C245.1,164.3,245.2,164.7,246,164.6z"/>
		<path class="st10" d="M234.1,164.6h-8.3c0,0-2.6-2.2,0.3-2.8h8c0,0,0.6-0.1,0.8,0.4v2C234.9,164.3,234.8,164.7,234.1,164.6z"/>
		<path class="st9" d="M239.5,168.1c-1.9,5.9-4.4,13.7-4.4,14.9c0,1.1,5.6,2.5,6.6,2.1c1-0.4-1.2-17-1.2-17H239.5z"/>
		<path class="st8" d="M240.5,167.5c-1.9,5.9-4.4,13.7-4.4,14.9c0,1.1,5.6,2.5,6.6,2.1c1-0.4-1.2-17-1.2-17H240.5z"/>
		<g>
			<path class="st11" d="M234.8,171.9c0.1-2.5-0.3-5.5-4.1-6.5c-3.8-1-5.6,2.4-5.6,3.7c0,1.2,1.1,3.1,3.2,3.4c2.1,0.2,4,0,4.8,0.1
				C233.9,172.8,234.8,172.5,234.8,171.9z"/>
			<circle class="st12" cx="230.3" cy="168.9" r="3.2"/>
			<path class="st11" d="M233,167.8c0,0.8-0.7,1.4-1.5,1.4c-0.8,0-1.4-0.7-1.4-1.5c0-0.8,0.7-1.4,1.5-1.4
				C232.4,166.3,233.1,167,233,167.8z"/>
			<path class="st11" d="M244.6,172.3c0.1-2.5,0.6-5.4,4.5-6.2c3.9-0.8,5.5,2.7,5.3,4s-1.3,3-3.4,3.2c-2.1,0.1-4-0.2-4.8-0.1
				C245.5,173.1,244.6,172.8,244.6,172.3z"/>
			<path class="st12" d="M246.3,169.2c0,1.8,1.3,3.2,3.1,3.3c1.8,0,3.2-1.3,3.3-3.1s-1.3-3.2-3.1-3.3
				C247.8,166.1,246.3,167.5,246.3,169.2z"/>
			<path class="st11" d="M249.2,168.1c0,0.8,0.6,1.5,1.4,1.5c0.8,0,1.5-0.6,1.5-1.4c0-0.8-0.6-1.5-1.4-1.5
				C249.9,166.7,249.3,167.3,249.2,168.1z"/>
		</g>
		<g>
			<path class="st13" d="M232,193.4l15.3-1.5c0,0-1.2,8.8-6.7,9.3C233.8,201.7,232,193.4,232,193.4z"/>
			<path class="st11" d="M234.4,193.4l1.2,1.7c0,0,1.1,2,4.3,1.4c3.2-0.7,5.5-3,5.5-3l0.3-1.3L234.4,193.4z"/>
		</g>
	</g>
</g>
<g>
	<circle class="st14" cx="144" cy="170.3" r="43.5"/>
	<path class="st15" d="M166.9,178.8c0.1,0,0.3,0.1,0.5,0.1c0,0,4.2-11.3,2.8-22.3c-1.3-10.5-8.4-11.8-8.4-11.8
		c-1.7-7.1-8.1-8.7-12.7-8.9c-8.7,1.1-10.3-5.8-10.3-5.8c-3.5,1.9-12.3,5.8-12.3,5.8c-8.7,5.4-2.8,13.9-2.8,13.9
		c-1.8-0.5-2.6-1.2-2.6-1.2c-0.4,2.9,0.6,4.9,2.3,6.3c-0.8,2.7-1.2,4.7-1.2,4.7c-0.8,11,1.7,21.5,2.1,23.2l0.1,0.2l1.2,13.1
		c0,0,0.5,4.1,4.1,6.9c0,0,2.7,2.8,7.8,6.5c1.5,1.1,3.9,0.7,5.5,0c5.3-2.3,15.8-7.6,15.8-7.6c3.6-2.8,3.8-5.7,3.8-5.7l1.1-6.7
		c0.2,0.1,0.5,0.2,0.8,0.3c1.9,0.3,3.9-2,4.3-5.1C169.2,181.9,168.4,179.6,166.9,178.8z"/>
</g>
<g>
	<circle class="st14" cx="348" cy="170.3" r="43.5"/>
	<path class="st15" d="M370.9,178.8c0.1,0,0.3,0.1,0.5,0.1c0,0,4.2-11.3,2.8-22.3c-1.3-10.5-8.4-11.8-8.4-11.8
		c-1.7-7.1-8.1-8.7-12.7-8.9c-8.7,1.1-10.3-5.8-10.3-5.8c-3.5,1.9-12.3,5.8-12.3,5.8c-8.7,5.4-2.8,13.9-2.8,13.9
		c-1.8-0.5-2.6-1.2-2.6-1.2c-0.4,2.9,0.6,4.9,2.3,6.3c-0.8,2.7-1.2,4.7-1.2,4.7c-0.8,11,1.7,21.5,2.1,23.2l0.1,0.2l1.2,13.1
		c0,0,0.5,4.1,4.1,6.9c0,0,2.7,2.8,7.8,6.5c1.5,1.1,3.9,0.7,5.5,0c5.3-2.3,15.8-7.6,15.8-7.6c3.6-2.8,3.8-5.7,3.8-5.7l1.1-6.7
		c0.2,0.1,0.5,0.2,0.8,0.3c1.9,0.3,3.9-2,4.3-5.1C373.2,181.9,372.4,179.6,370.9,178.8z"/>
</g>
</svg>
