<?xml version="1.0" encoding="utf-8"?>
<!-- Generator: Adobe Illustrator 24.0.3, SVG Export Plug-In . SVG Version: 6.00 Build 0)  -->
<svg version="1.1" id="Layer_1" xmlns="http://www.w3.org/2000/svg" xmlns:xlink="http://www.w3.org/1999/xlink" x="0px" y="0px"
	 width="480px" height="600px" viewBox="0 0 480 600" style="enable-background:new 0 0 480 600;" xml:space="preserve">
<style type="text/css">
	.st0{fill-rule:evenodd;clip-rule:evenodd;fill:#FFECB4;}
	.st1{fill:#EDDBA8;}
	.st2{opacity:0.5;}
	.st3{opacity:0.2;}
	.st4{opacity:0.1;}
	.st5{opacity:0.2;fill:#F6BD83;}
	.st6{fill:#005869;}
	.st7{fill:#BB7348;}
	.st8{fill:#D8D4DE;}
	.st9{fill:#3B3B3B;}
	.st10{opacity:0.2;fill:#3B3B3B;}
	.st11{opacity:0.2;fill:#4D0B00;}
	.st12{fill:#E9E4EF;}
	.st13{fill:#F3F0F5;}
	.st14{fill:#905D3B;}
	.st15{fill:#48270F;}
	.st16{fill:#FFFFFF;}
	.st17{fill:#39170B;}
	.st18{fill:#542C23;}
	.st19{opacity:6.000000e-02;fill:#56BCE7;}
	.st20{fill:#102F5B;}
	.st21{opacity:0.14;fill:#FFFFFF;}
	.st22{fill:#1B3E72;}
	.st23{opacity:0.23;fill:#FFFFFF;}
</style>
<g transform="matrix(0.948172,0,0,1.88724,-3.09674,-964.778)">
	<rect x="-14.7" y="507" class="st0" width="529.6" height="328.5"/>
</g>
<g>
	<g>
		<path class="st1" d="M350.9,580.1v3.5h3v-3.5c19.8,0.2,39.5,0.3,59,0.3c31.3,0.1,63.2,0.3,95.2,0.8c0,0.2,0,0.4,0,0.6h3
			c0-0.2,0-0.4,0-0.5c8.8,0.2,17.6,0.3,26.4,0.6c-0.1,0.6-0.1,1.2-0.2,1.7h3c0.1-0.6,0.1-1.1,0.2-1.7c7,0.2,14,0.4,21.1,0.7v-1.7
			c-16.8-0.6-33.6-1-50.4-1.3c0.1-4.4,0.4-8.9,0.7-13.3c0.4-5.2,0.8-10.5,0.8-15.7c0-1.3,0-2.5-0.1-3.8c15.9,0.2,32.2,0.5,48.9,0.8
			v-1.7c-9.8-0.2-19.4-0.3-28.9-0.5c0.4-6.3,0.5-12.9,0.5-19.2c10.1,0,19.5,0.1,28.5,0.2v-1.7c-15.8-0.2-33-0.3-52.7-0.3
			c-6.7,0-13.5,0-20.2,0c-0.1-2.6-0.2-5.1-0.2-7.7c0-9.9,0.7-19.3,2.1-28.2c23.6,0.5,47.3,1.1,71,1.8v-1.7c-9-0.3-17.9-0.5-26.9-0.8
			c0.2-3.7,0.3-7.4,0.5-11c0.4-7.9,0.9-16.2,0.9-24.3c8.9,0.2,17.3,0.4,25.5,0.6v-1.7c-17.4-0.5-36-0.8-57-0.9
			c-0.4-9.3-0.4-18.3-0.4-27.8h-3c0,9.5,0,18.5,0.4,27.8c-4.4,0-8.9,0-13.5,0c-19.8,0-39.9,0.1-59.4,0.3c-7.7,0.1-15.5,0.1-23.4,0.2
			l-0.2-1.6c-1.4-11.9-2.8-23.1-3.7-34.7c14.1,1,28.4,2.2,43,3.4c38.5,3.2,78.2,6.5,117.1,6.5v-1.7c-3.7,0-7.4,0-11.1-0.1
			c-0.2-3.1-0.4-6.1-0.5-9.2c-0.4-6.8-0.9-13.8-0.9-20.6c4.2,0.2,8.3,0.4,12.5,0.6v-1.7c-9.4-0.4-18.9-0.9-28.3-1.3
			c-20.4-0.9-40.9-1.9-61.5-2.8c0.1-4.9,0.7-9.8,1.3-14.6c0.5-4,1-8.2,1.2-12.3c17.6,0.4,35.2,0.7,52.6,1.2
			c11.6,0.3,23.2,0.6,34.8,0.9v-1.7c-11.5-0.3-23.1-0.6-34.6-0.9c-39.2-1-79-1.7-118.9-2.6c0.2-3.5,0.6-7.1,1-10.5
			c0.6-5.5,1.3-11.1,1.3-16.8h-3c0,5.6-0.7,11.2-1.3,16.6c-0.4,3.5-0.8,7-1,10.6c-25.8-0.6-51.7-1.4-77.5-2.5
			c-0.5-9-0.9-17.5-0.9-26.3c10.7,0.3,21.3,0.5,31.9,0.7c0,0,0,0,0,0.1l2.2,0c20.5,0.4,40.9,0.6,61.2,0.6c29,0,58.3-0.4,87.6-1.1
			l1.2,0.1c0,0,0-0.1,0-0.2c12.5-0.3,24.9-0.7,37.4-1.1c0,1,0.1,2.1,0.1,3.1c0,4.3-0.3,8.7-0.6,12.9c-0.3,4.3-0.6,8.7-0.6,13
			c0,1.3,0,2.5,0.1,3.8l3,0c-0.1-1.2-0.1-2.5-0.1-3.7c0-4.3,0.3-8.7,0.6-12.9c0.3-4.3,0.6-8.7,0.6-13c0-1.1,0-2.2-0.1-3.3
			c3.5-0.1,7-0.3,10.5-0.4v-1.7c-16.8,0.7-33.6,1.2-50.5,1.6c1.2-4.7,2-9.5,2.8-14.1c0.9-5.3,1.7-10.7,3.2-15.9l-3-0.3
			c-1.5,5.3-2.4,10.7-3.3,16c-0.8,4.7-1.6,9.6-2.8,14.4c-23.3,0.6-46.5,0.9-69.6,1c0.9-11.1,1.4-22.2,1.4-33.3
			c40.2,0.9,81.2,1.9,121.8,3.1v-1.7c-3.5-0.1-7-0.2-10.5-0.3c0-9.4,0.8-17.5,1.6-26.9l0.3-3.7l-3-0.1l-0.3,3.7
			c-0.9,9.4-1.6,17.5-1.6,26.9c-24.8-0.7-49.6-1.4-74.3-1.9c0.5-4.9,0.8-9.9,1.2-14.8c0.4-5.3,0.7-10.6,1.2-15.8l-0.9,0
			c28.7,0.5,57.6,1.2,86.3,2.2v-1.7c-12.8-0.4-25.6-0.8-38.5-1.1c0-1.1-0.1-2.2-0.1-3.3c0-3,0.2-6.2,0.3-9.2c0.2-3,0.3-6.1,0.3-9.1
			h-3c0,3-0.2,6.1-0.3,9.1c-0.2,3-0.3,6.2-0.3,9.3c0,1.1,0.1,2.1,0.1,3.2c-33.1-0.8-66.2-1.3-98.8-1.8c0-0.2,0-0.3,0-0.5
			c0-4.6,0.8-9.4,1.6-14c0.4-2.1,0.7-4.2,1-6.2c24,0.6,48.4,1.1,72.6,1.1c23.6,0,45.2-0.5,65.2-1.5v-1.7c-7.5,0.4-15.3,0.7-23.3,0.9
			c0.8-4.9,1.1-9.9,1.5-14.8c0.2-3.3,0.5-6.6,0.8-9.9c7,0.2,14,0.4,21.1,0.7v-1.7c-16.8-0.6-33.6-1-50.4-1.3
			c0.1-4.4,0.4-8.9,0.7-13.3c0.4-5.2,0.8-10.5,0.8-15.7c0-1.3,0-2.5-0.1-3.8c15.9,0.2,32.2,0.5,48.9,0.8v-1.7
			c-9.8-0.2-19.4-0.3-28.9-0.5c0.4-6.3,0.5-12.9,0.5-19.2c10.1,0,19.5,0.1,28.5,0.2v-1.7c-15.8-0.2-33-0.3-52.7-0.3
			c-6.7,0-13.5,0-20.2,0c-0.1-2.6-0.2-5.1-0.2-7.7c0-9.9,0.7-19.3,2.1-28.2c23.6,0.5,47.3,1.1,71,1.8v-1.7c-9-0.3-17.9-0.5-26.9-0.8
			c0.2-3.7,0.3-7.4,0.5-11c0.4-7.9,0.9-16.2,0.9-24.3c8.9,0.2,17.3,0.4,25.5,0.6v-1.7c-17.4-0.5-36-0.8-57-0.9
			C504,73,504,64,504,54.6h-3c0,9.5,0,18.5,0.4,27.8c-4.4,0-8.9,0-13.5,0c-19.8,0-39.9,0.1-59.4,0.3c-7.7,0.1-15.5,0.1-23.4,0.2
			l-0.2-1.6c-1.4-11.9-2.8-23.1-3.7-34.7c14.1,1,28.4,2.2,43,3.4c38.5,3.2,78.2,6.5,117.1,6.5v-1.7c-3.7,0-7.4-0.1-11.1-0.1
			c-0.2-3.1-0.4-6.1-0.5-9.2c-0.4-6.8-0.9-13.8-0.9-20.6c4.2,0.2,8.3,0.4,12.5,0.6v-1.7c-9.4-0.4-18.9-0.9-28.3-1.3
			c-20.4-0.9-40.9-1.9-61.5-2.8c0.1-4.9,0.7-9.8,1.3-14.6c0.5-4,1-8.2,1.2-12.3l-3-0.1c-0.2,4.1-0.7,8.2-1.2,12.3
			c-0.6,4.8-1.1,9.7-1.3,14.6c-32.8-1.5-65.9-2.8-99.1-3.9c1.4-8.6,2.8-17.5,3.7-26.3c51.4,2,102.9,3.4,153.3,4.6
			c11.6,0.3,23.2,0.6,34.8,0.9v-1.7c-11.5-0.3-23.1-0.6-34.6-0.9c-10.1-0.3-20.3-0.5-30.6-0.8c0.7-4.8,1-9.5,1.3-14.1
			c0.3-5,0.6-10,1.4-15.2h-3c-0.8,5.1-1.1,10.2-1.4,15.1c-0.3,4.6-0.6,9.3-1.3,14.1c-47.5-1.2-95.7-2.6-143.7-4.8
			c0.3-2.9,0.7-5.8,1.1-8.7c0.7-5.2,1.4-10.5,1.7-15.7h-3c-0.3,5.1-1,10.4-1.7,15.5c-0.4,2.9-0.8,5.8-1.1,8.7
			c-7.3-0.3-43.2-0.7-81-1c0.7-5.9,1-10.8,1-15.4c0-2.7-0.1-5.3-0.4-7.8h-2.8c0.2,2.5,0.4,5.1,0.4,7.8c0,4.6-0.3,9.4-1,15.4
			c-27.5-0.3-55.6-0.5-74.5-0.8c-0.9,0-4.2,0-9.2,0c-0.8-5-1.2-9.9-1.5-14.7c-0.2-2.5-0.4-5.1-0.6-7.6H174c0.3,2.6,0.5,5.2,0.6,7.7
			c0.3,4.7,0.7,9.6,1.5,14.6c-18.6,0-56.2-0.1-98.7-0.1c0.4-7.3,0.7-14.8,0.8-22.1h-2.8c-0.1,7.4-0.5,14.8-0.8,22l1.9,0.1
			c-29.8,0-62-0.1-91.7-0.1c-0.2-3.3-0.2-6.6-0.3-9.8c0-4-0.2-8.1-0.5-12.2h-2.8c0.3,4.1,0.5,8.2,0.5,12.2c0,3.2,0.1,6.5,0.3,9.8
			c-4.5,0-8.9,0-13.2,0c0.2-3.7,0.7-7.6,1.2-11.5c0.4-3.5,0.8-7.1,1.1-10.6h-2.8c-0.3,3.4-0.6,6.9-1.1,10.3
			c-0.5,3.9-0.9,7.9-1.2,11.7c-19.8,0-37.8,0-52.5-0.1c0-0.2,0-0.4,0-0.6l-2.8-0.1c0,0.2,0,0.4,0,0.6c-13.9,0-24.4,0-30.1-0.1v1.8
			c5.7,0,16.2,0.1,30.1,0.1c-0.3,6-0.6,12.6-0.6,19.1c0,3,0.1,5.9,0.2,8.8c-13.7,0-24,0-29.7,0v1.7c11.2,0,40.8,0,77.5,0
			c0.3,3.8,0.4,7.7,0.4,11.4c0.1,5.2,0.1,10.5,0.9,15.9c-37.3,0-67.5,0.1-78.8,0.1v1.7c5.5,0,15.5,0,28.7,0c0,0.5,0,1.1,0,1.6
			c0,9.2,1.5,18.3,2.9,27.2c0.5,2.9,0.9,5.9,1.4,8.9c-15.3,0-26.9-0.1-33-0.1v1.7c4.1,0,10.7,0,19.4,0c0.2,3.9,0.7,7.9,1.1,11.7
			c0.6,5.2,1.2,10.5,1.2,15.7c0,0.8,0,1.7-0.1,2.5c-9.7,0-17.2,0-21.7-0.1v1.8c7,0.1,20.9,0.1,39.6,0.1c-0.4,12.7-0.9,25.8-2.3,39.1
			c-17.4,0-30.6-0.1-37.3-0.1v1.8c8.9,0.1,29,0.1,55.3,0.2c0,0.6,0,1.1,0,1.7c0,1.9-0.1,3.8-0.1,5.7c-0.1,1.9-0.1,3.9-0.1,5.8
			c0,3.1,0.2,5.6,0.6,8c-26.4,0-46.8,0-55.7,0v1.7c5.9,0,16.9,0,31.3-0.1c0.5,5.1,1.6,10,2.7,14.8c1.1,4.9,2.3,10,2.8,15.2
			c-17.1,0-30.1,0-36.7,0v1.8c5.3,0,14.6,0,26.8,0c-0.1,1-0.3,2.1-0.3,3.2c0,4.6,1.1,9.3,2.1,13.8c0.6,2.4,1.1,4.8,1.5,7.1l2.8-0.3
			c-0.4-2.4-1-4.9-1.5-7.3c-1-4.4-2.1-8.9-2.1-13.3c0-1.1,0.1-2.2,0.3-3.2c13.6,0,30.4,0,49,0c0.8,4.1,1.4,8.2,1.9,12.2
			c0.5,4,1.1,8.2,1.9,12.4c-9.8,0-19.1,0-27.7,0c0,0,0,0,0,0l-0.2,0c-25.9,0-45.8,0-54.6,0v1.7c8.4,0,27.5,0,52.2,0
			c0.7,3.4,0.8,6.7,0.8,9.6l0,3.7c0,2.3,0,4.9,0.4,7.5c-25.3,0-44.8,0-53.3,0v1.7c13,0,50.7,0,95.8,0c-0.2,2.8-0.4,5.6-0.6,8.4
			c-0.4,5.3-0.8,10.8-0.8,16.2c0,1.4,0,2.8,0.1,4.2l2.8-0.1c-0.1-1.4-0.1-2.8-0.1-4.1c0-5.3,0.4-10.8,0.8-16.1
			c0.2-2.9,0.4-5.8,0.6-8.6c20.8,0,43.1,0,65.2,0c-0.3,4-0.4,8.3-0.4,13.7c0,2.6,0,5.2,0.1,7.8c0,2.6,0.1,5.2,0.1,7.8h2.8
			c0-2.6,0-5.2-0.1-7.8c0-2.6-0.1-5.2-0.1-7.8c0-5.5,0.1-9.8,0.5-13.7c27.4,0,54.4,0,77.6,0c0,1-0.1,2-0.1,3c0,2.9,0.1,5.7,0.2,8.5
			c0.1,2.8,0.2,5.6,0.2,8.4c0,3.6-0.2,6.6-0.5,9.5c-97.7-0.1-218.6-0.2-244-0.2v1.8c6.8,0.1,19.9,0.1,37.3,0.2l0,6.4
			c0,9.3-0.1,18.9,0.3,28.2c-17.6,0-30.9-0.1-37.6-0.1v1.7c9.9,0,34.4,0,66,0.1c1.1,4.1,1.3,8,1.3,11.1c0,1.9-0.1,3.9-0.1,5.8
			c-0.1,1.9-0.1,3.9-0.1,5.8c0,1.1,0,2.1,0.1,3.1c-32,0-57-0.1-67-0.1v1.8c3.9,0,10.1,0.1,18.1,0.1c0.9,3.9,1.3,7.9,1.7,11.8
			c0.4,4.7,0.9,9.7,2.3,14.5c-9.9,0-17.5,0-22.1,0v1.7c9,0,29.8,0,56.9,0.1c0.5,3,0.9,6,1.3,9c0.7,6,1.5,12.1,3.6,18.2
			c-29.5,0-52.3,0.1-61.8,0.1v1.7c11,0,39.8-0.1,76.4-0.1c-0.9,12.4-0.9,25.2-0.9,37.5h2.8c0-12.4,0-25.1,0.9-37.5
			c17.1,0,35.7,0,54.9-0.1c0,1.8-0.1,3.6-0.1,5.4c0,9.5,0.6,19.6,2,32.6c-62.6-0.1-119.4-0.1-136.1-0.2v1.7c5.7,0,16.3,0,30.2,0.1
			c0,0.8,0.1,1.6,0.1,2.5c0,3.4-0.2,6.9-0.4,10.2c-0.2,3.4-0.4,6.8-0.4,10.3c0,2.4,0.1,4.6,0.3,6.6l2.8-0.2c-0.2-2-0.3-4.1-0.3-6.4
			c0-3.4,0.2-6.9,0.4-10.2c0.2-3.4,0.4-6.9,0.4-10.4c0-0.8,0-1.6-0.1-2.5c16.9,0,38.2,0,61.9,0.1c-0.1,1.9-0.1,3.7-0.1,5.6
			c0,4.3,0.2,8.6,0.3,12.9c0.1,3.8,0.2,7.6,0.3,11.5c-45.4-0.1-82.5-0.1-95.4-0.2v1.8c4.5,0.1,11.6,0.1,20.9,0.1
			c0.5,3.3,1,6.7,1.5,10c1.3,9.6,2.6,19.6,6.6,29.1c-13.3,0-23.4-0.1-29-0.1v1.8c7.1,0.1,21.3,0.1,40,0.2c-0.2,2.4-0.4,4.8-0.4,7.4
			c0,4.1,0.3,8.6,0.9,13.7c-17.7,0-32.3,0-40.5,0v1.7c11.6,0,35.9-0.1,65.1-0.1c-0.1,3.1-0.3,6.2-0.5,9.3c-0.3,3.6-0.5,7.3-0.5,11
			c0,3.6,0.3,6.9,0.9,9.9c-29.3,0-53.5,0-65,0v1.8c47.3,0.1,314,0.2,336.4,0.3C267.5,579.8,339.3,579.9,350.9,580.1z M392.3,562.8
			c-0.5,5.2-0.9,10.3-1.4,15.8c-24.9-0.1-50.2-0.3-75.4-0.8c-0.5-5.2-1-10.1-1.5-15c-0.5-5-1-9.9-1.5-15.3l-3,0.1
			c0.5,5.4,1,10.4,1.5,15.3c0.5,4.8,1,9.6,1.5,14.8c-2.2,0-37.9-0.1-73.4-0.1c0.2-2.6,0.4-5.3,0.6-7.9c0.5-7.5,1-15.3,2.8-22.8
			c58.5-0.3,130.9-0.5,151.3-0.6C393.3,552,392.8,557.4,392.3,562.8z M161.5,545.6C161.5,545.6,161.5,545.6,161.5,545.6
			c-27.5,0-61.7,0.1-96.9,0.1c0.1-1.1,0.1-2.2,0.1-3.3c0-2.1-0.1-4.3-0.2-6.4c-0.1-2.1-0.2-4.2-0.2-6.3c0-1.7,0.1-3.3,0.3-4.7
			c22.6,0,44.8,0.1,65.2,0.1c-0.3,3.1-0.5,6.2-0.6,9.3c-0.1,3.5-0.2,7.1-0.7,10.7l2.8,0.3c0.5-3.6,0.6-7.3,0.7-10.9
			c0.1-3.1,0.2-6.2,0.6-9.3c23.1,0,43.8,0.1,59.6,0.1c-0.1,6.3-0.4,12.6-0.8,18.8l-0.1,1.5c-7.8,0-16.9,0-26.9,0c0,0,0,0,0,0H161.5z
			 M34.9,484.2c23,0.1,46.4,0.1,68.5,0.2c0.3,2.1,0.5,4.2,0.5,6.4c0,6-1.1,12.2-2.2,18.1c-0.9,4.6-1.7,9.5-2.1,14.3
			c-19,0-38.9-0.1-58.6-0.1c0-0.3,0.1-0.7,0.1-1C41,521.6,36.5,499.6,34.9,484.2z M41.9,450.3c-8.3,0-16.6,0-24.9,0l2.2-0.2
			c-1.4-12.9-2-22.9-2-32.4c0-1.8,0-3.6,0.1-5.5c22.2,0,45.1,0,67.2-0.1c0.1,3.7,0.2,7.4,0.2,11.1c0.1,8.9,0.2,18,1.4,27
			c-13.6,0-27.5,0-41.4,0c0,0,0,0,0-0.1L41.9,450.3C41.9,450.3,41.9,450.3,41.9,450.3z M-26.7,377.8c0-3.9,0.3-7.9,0.5-11.7
			c0.2-3.4,0.4-7,0.5-10.5c24.3,0,50.9,0.1,77.2,0.1c0.5,3.8,0.6,7.5,0.6,11.3l0,2.5c0,4.1,0.1,8.2,0.7,12.4c-28,0-56.3,0-81.8-0.1
			l2.4-0.1C-26.7,380.3-26.7,379.1-26.7,377.8z M25.4,400.3c0.5-3.6,1-7.3,1-11.1c0-2.1-0.2-3.9-0.5-5.8c23.4,0,47.4,0,70,0
			c0.5,3.6,0.8,7.5,0.8,11.9c0,3.7-0.3,8.5-0.5,12.7l-0.1,2.4c-23.2,0-47.7,0-71.6,0.1C24.5,407.2,24.9,403.8,25.4,400.3z
			 M54.9,369.4l0-2.5c0-3.8-0.1-7.5-0.6-11.3c29.3,0.1,57.9,0.1,82.1,0.2c0,8.5,0,17.3-0.5,25.9l2.8,0.1c0.4-8.6,0.5-17.4,0.5-26
			c34.3,0.1,59.3,0.1,63.8,0.2c1.8,0,3.7,0.1,5.7,0.1c0,0,0,0,0,0.1h0.3c0.3,2.2,0.7,8.3,0.7,12c0,4.2-0.2,9.8-0.4,13.9
			c-6,0-15.2,0-27-0.1c0,0,0,0,0,0l-0.3,0c-31.2,0-79.6-0.1-128.8-0.1l2.4-0.3C54.9,377.4,54.9,373.4,54.9,369.4z M119.9,327.8
			c26.4,0,49.4,0,65.3,0c0.3,3.9,0.4,7.8,0.4,11.4l0,7.1c0,2.5,0,5,0.2,7.5c-15.4,0-39.3-0.1-67.2-0.1c0.2-2.9,0.4-5.7,0.6-8.6
			c0.4-4.8,0.8-9.7,0.8-14.6C120,329.6,120,328.7,119.9,327.8z M127.6,271.8c-0.1-2.8-0.2-5.6-0.2-8.4c0-1,0-2,0.1-3
			c27.8,0,49.9,0,60.5,0c0,3.8-0.1,7.5-0.3,11.3c-0.2,4.2-0.3,8.3-0.3,12.5c0,1.9,0,3.8,0.1,5.6c-18,0-38.5,0-60.2-0.1
			c0.3-2.9,0.5-5.9,0.5-9.5C127.7,277.4,127.6,274.6,127.6,271.8z M125.7,209.5c-22.3,0-48.7,0-75.8,0v-30.2c28.1,0,55.8,0,79.6-0.1
			c-1.4,4.9-1.6,9.9-1.9,14.8c-0.2,5.1-0.5,10.4-2.1,15.5L125.7,209.5z M-61.8,169.8c0-1.9,0.1-3.8,0.1-5.7c0.1-1.9,0.1-3.8,0.1-5.7
			c0-0.6,0-1.1,0-1.7c17.1,0,36.6,0.1,57.1,0.1c0,1-0.1,2-0.1,3c0,3,0.1,5.9,0.3,8.9c0.1,2.9,0.3,5.9,0.3,8.9h2.8
			c0-3.1-0.2-6.1-0.3-9c-0.1-2.9-0.3-5.8-0.3-8.8c0-1,0-2,0.1-3c23.4,0,48.1,0.1,71.8,0.1c-0.1,3.8-0.5,7.8-1,11.7
			c-0.4,3-0.8,6.1-1,9.1l2,0.1c-45.4,0-94.1,0-131.4,0.1l0.1,0C-61.6,175.4-61.8,172.9-61.8,169.8z M22.6,113.9
			c-26.2,0-51.6-0.1-73.8-0.1c-0.6-4.7-1.5-9.3-2.4-13.8c-1-5.3-2-10.7-2.6-16.2c23.8,0,51.8,0,80.5,0.1c-0.1,1.4-0.3,3.5-0.4,7.1
			C23.6,98.9,23,110.8,22.6,113.9L22.6,113.9z M-27,82.2l1.8-0.1c-0.2-3-0.3-6.2-0.3-9.8c0-4.9,0.2-9.9,0.4-14.8
			c0.2-4.3,0.3-8.8,0.4-13.2c20.5,0,42.5,0,64.3,0c-0.2,5.5-0.3,10.6-0.3,15.3c0,7.9,0.3,15.3,0.8,22.6c-4.3,0-8.7,0-13,0
			c-0.2-0.3-0.5-0.6-1.2-0.6c-0.6-0.1-0.9,0-1.2,0.6C6.9,82.3-10.6,82.2-27,82.2z M113.7,44.3c0,12.3,0,25.1,1.4,38l2.8-0.2
			c-1.4-12.8-1.4-25.5-1.4-37.8c39.3,0,68.5-0.1,71.8-0.1c9.6-0.1,21.7-0.1,34.7-0.2c-1.2,7.4-1.6,15-2,22.3
			c-0.3,5.3-0.5,10.7-1.1,16.1l0.7,0.1c-2.4,0-4.8,0-7.1,0c-10.8-0.1-91.2-0.1-170.9-0.2c-0.5-7.3-0.8-14.7-0.8-22.6
			c0-4.7,0.1-9.8,0.3-15.3C67.4,44.3,92,44.3,113.7,44.3z M63.7,42.6c0-7.2,0.8-14.7,1.6-22c0.2-1.7,0.4-3.5,0.5-5.2
			c48.1,0,91.6,0,110.7,0c-0.2,2.8-0.3,5.7-0.5,8.5c-0.4,6.1-0.8,12.4-0.9,18.6C153.5,42.5,110.5,42.6,63.7,42.6z M268.3,15.8
			c33.5,0.1,63.7,0.3,69.1,0.4c0.6,5.2,0.6,10.5,0.7,15.5c0,3.4,0.1,6.8,0.3,10.3c-1.5,0-3.1,0-4.6,0c-5,0-34.5,0.1-67.3,0.2
			c0.2-3.2,0.5-6.5,0.9-9.6c0.5-4.8,1-9.8,1-14.6C268.4,17.1,268.3,16.4,268.3,15.8z M313.1,43.7c-0.5,6.5-1.4,12.9-2.2,19.2
			c-0.9,6.5-1.8,13.2-2.3,19.9c-27.2-0.1-58.8-0.1-85.6-0.3c0.6-5.4,0.8-10.8,1.1-16.1c0.4-7.4,0.8-15.1,2-22.5
			C256.3,43.9,291.2,43.8,313.1,43.7z M338.3,115.1c-6.8-0.2-50.5-0.5-92.2-0.7c0.2-4.4,0.7-8.9,1.1-13.2c0.6-5.5,1.1-11.3,1.2-17
			c40.8,0.1,82.8,0.2,89,0.3c0.4,2.8,0.6,5.9,0.6,9.6c0,2,0,4-0.1,6c0,2-0.1,4-0.1,6C337.8,109.6,338,112.5,338.3,115.1z
			 M375.3,137.5c0.5,6.2,1,12.4,1.5,18.9c-9.8-0.1-39.9-0.2-74.4-0.4c0.6-4.5,1.2-9.1,1.8-13.6c1.1-8.4,2.2-17.1,3.6-25.6
			c24.1,0.5,46.7,0.9,67.4,1.3l-1.3,0C374.3,124.8,374.8,131.1,375.3,137.5z M485.5,156.3c-7.8,0-15.7,0-23.5,0.1
			c-15.6,0.1-31.2,0.1-46.8,0.1c-11.6,0-23.5,0-35.4-0.1c-0.5-6.6-1-12.8-1.5-19c-0.5-6.3-1-12.6-1.5-19.3c30,0.6,55.8,1.1,75.5,1.5
			c11.6,0.2,23.4,0.5,35.1,0.7c-1.4,8.9-2.1,18.4-2.1,28.3C485.4,151.2,485.5,153.8,485.5,156.3z M415.2,158.2c5.6,0,11.3,0,16.9,0
			c-0.1,1.8-0.2,3.8-0.2,6c0,2.2,0.1,4.5,0.1,6.7c0,1.9,0.1,3.7,0.1,5.6c-2.9,0-5.8,0-8.7,0c-32,0-62.6,0.2-92.6,0.7
			c-0.2-3.1-0.3-6.1-0.3-9.2c0-3.3,0.1-6.6,0.4-9.9C368.6,158.2,401.3,158.2,415.2,158.2z M509.5,178.7c0.1,1.3,0.1,2.5,0.1,3.8
			c0,5.2-0.4,10.5-0.8,15.6c-0.3,4.4-0.6,8.9-0.7,13.3c-32-0.6-63.9-0.7-95.2-0.8c-6.3,0-12.6,0-19-0.1c0.5-5.5,0.9-10.6,1.4-15.8
			c0.5-5.4,1-10.8,1.5-16.6c8.8,0,17.7-0.1,26.7-0.1C451.3,178.2,479.8,178.4,509.5,178.7z M418.2,260.5c-0.9,0-1.9,0-2.8,0
			c0.5-6.8,1.1-13.8,3.3-20.4l-2.9-0.3c-2.3,6.7-2.9,13.8-3.4,20.7c-2,0-4-0.1-5.9-0.1c-28.1-0.4-56.8-0.8-85.4-1.4
			c0.1-1.7,0.2-3.3,0.2-5c0.2-5.4,0.3-10.9,1.7-16.2c26.7,0.2,53.8,0.9,80,1.6c5.9,0.2,11.8,0.3,17.8,0.5c-0.3,2-0.6,4.1-1,6.1
			c-0.8,4.7-1.6,9.5-1.6,14.2C418.1,260.2,418.2,260.3,418.2,260.5z M325.4,290.2c-3-0.1-21.4-0.2-44.8-0.2v-29.4
			c23.4,0.1,41.9,0.1,44.8,0.2c-0.3,5.3-0.4,10.4-0.4,15.5C325.1,280.9,325.2,285.5,325.4,290.2z M258.3,258.7c0-0.3,0-0.6,0-0.8
			c0-2.9,0.4-5.9,0.8-8.9c0.4-3,0.8-6.1,0.8-9.2c0-0.7-0.1-1.5-0.1-2.2c26.5,0,48.7,0,50.1,0c3.3,0,6.7,0,10,0.1
			c-1.4,5.4-1.5,10.9-1.7,16.2c0,1.7-0.1,3.3-0.2,5C315.4,258.8,288.6,258.8,258.3,258.7z M277.8,260.6V290
			c-8.4,0-17.4-0.1-26.5-0.1c-8.5,0-31-0.1-61-0.1c-0.1-1.9-0.1-3.8-0.1-5.6c0-4.1,0.2-8.3,0.3-12.4c0.1-3.8,0.3-7.6,0.3-11.4
			c1.7,0,2.9,0,3.6,0C217.3,260.4,250.4,260.5,277.8,260.6z M350.9,236.3c-13.7-0.3-27.4-0.4-41-0.4c-1.1,0-13.8,0-31.3,0
			c2.8-8,3.8-16.3,4.2-24.1c32.7,0.1,61.2,0.2,68.1,0.2V236.3z M214.9,177.6c-4.3,0-8.4,0-12.3,0c-4.3,0-23.6,0-50.9,0
			c1.7-6.9,2.6-13.9,3.5-20.7c26.2,0.1,44.4,0.1,48,0.2c9.6,0.1,20.4,0.3,31.8,0.4c0.2,1.6,0.4,3.2,0.4,5.1c0,2.7-0.3,5.5-0.5,8.2
			c-0.2,2.2-0.4,4.5-0.4,6.8c-5.7,0-11.2,0-16.6,0c0,0,0-0.1,0-0.1L214.9,177.6C214.9,177.6,214.9,177.6,214.9,177.6z M90.5,97.3
			c-0.1-2.5-0.2-5.1-0.2-7.6c0-2.1,0.1-4,0.2-5.7c23.9,0,46.5,0,65.6,0c-0.3,2.5-0.4,5.3-0.4,8.5c0,2,0,4,0.1,6c0,2,0.1,4,0.1,6
			c0,2.7-0.2,6.9-0.4,8.8h-0.2c0,0.4,0,0.6,0,0.8c-19,0-41.5,0-65.2-0.1c0.4-2.7,0.5-5.6,0.5-9C90.7,102.4,90.6,99.9,90.5,97.3z
			 M204.7,115.9c-1.4,7.3-1.8,14.9-2.1,22.2c-0.3,5.6-0.6,11.4-1.3,17.2c-6.3,0-23.9-0.1-48.1-0.1l-0.7-0.1l0,0.1
			c-10.6,0-22.4,0-35-0.1c0-3.5,0-7,0.1-10.4c0-3.5,0.1-6.9,0.1-10.4c0-6.1-0.1-11.7-0.5-18.4C149,115.9,179.4,115.9,204.7,115.9z
			 M158.6,98.5c0-2-0.1-4-0.1-6c0-3.3,0.2-6,0.4-8.5c28.3,0,48.7,0,54,0.1c10.2,0,21.3,0.1,32.6,0.1c-0.1,5.7-0.6,11.3-1.2,16.8
			c-0.4,4.4-0.9,8.9-1.1,13.4c-11-0.1-21.8-0.1-31.7-0.2c-5.2,0-25.3-0.1-53.3-0.1c0.3-1.4,0.4-4.2,0.4-9.6
			C158.7,102.5,158.7,100.5,158.6,98.5z M327.9,177.2c-5.2,0.1-49.7,0.2-90.7,0.3c0.1-2.2,0.2-4.4,0.4-6.6c0.2-2.7,0.5-5.5,0.5-8.3
			c0-1.8-0.1-3.5-0.4-5.1c28.4,0.3,60.6,0.4,90.2,0.5c-0.2,3.3-0.4,6.6-0.4,9.9C327.6,171,327.7,174.1,327.9,177.2z M299.5,156
			c-32.5-0.2-68.6-0.4-95.4-0.7c0.7-5.7,1-11.5,1.3-17.1c0.4-7.4,0.8-14.9,2.2-22.3c35.4,0,60.4,0.1,65,0.2
			c11,0.2,21.8,0.4,32.4,0.6c-1.4,8.4-2.5,17-3.6,25.4C300.8,146.7,300.2,151.4,299.5,156z M152.3,157c-0.9,6.8-1.8,13.8-3.5,20.7
			c-22.2,0-49.3,0-77.7,0c0.2-2.9,0.6-6,1-8.9c0.5-3.9,1-8,1.1-11.9C102.2,156.9,129.9,156.9,152.3,157z M217.8,183
			c0-1.3,0-2.6-0.1-4c5.3,0,10.8-0.1,16.5-0.1c0,0.1,0,0.1,0,0.2h2.8c0-0.1,0-0.1,0-0.2c22.9-0.1,48.2-0.2,72-0.3
			c0.5,5.4,1.4,11.5,1.9,16.4c0.5,4.8,1,9.6,1.5,14.8c-2.7,0-56.1-0.1-97.4-0.2C216.9,200.8,217.8,191.8,217.8,183z M315.4,209.8
			c-0.5-5.2-1-10.1-1.5-15c-0.5-4.9-1.4-11-1.9-16.3c36.7-0.1,69.1-0.2,81.7-0.3c-0.5,5.7-1,11.1-1.5,16.5
			c-0.5,5.2-0.9,10.3-1.4,15.8C365.9,210.4,340.7,210.3,315.4,209.8z M264.5,32.2c-0.3,3.3-0.7,6.6-0.9,9.9c-13,0-26.5,0.1-39.1,0.2
			l-1.1-0.1c0,0,0,0.1,0,0.1c-5,0-9.9,0-14.5,0.1c0.5-4.6,1.3-9.3,2-13.9c0.7-4.2,1.4-8.6,1.9-12.9c16.2,0.1,34.8,0.1,52.7,0.2
			c0,0.7,0.1,1.4,0.1,2.1C265.5,22.6,265,27.5,264.5,32.2z M208.1,28.1c-0.8,4.7-1.6,9.5-2.1,14.2c-6,0-11.6,0.1-16.6,0.1
			c-1.2,0-5.2,0-11.5,0c0-6.1,0.4-12.4,0.9-18.4c0.2-2.9,0.4-5.8,0.5-8.7c3.9,0,6.4,0,7.2,0c6.7,0,14.7,0.1,23.4,0.1
			C209.5,19.8,208.8,24,208.1,28.1z M62.5,20.4c-0.8,7.3-1.6,14.9-1.6,22.2c-33.3,0-68.3,0-98.8,0.1c-0.7-5.4-0.8-10.7-0.9-16
			c0-3.7-0.1-7.5-0.4-11.4c31.5,0,68,0,102.3,0C62.8,17,62.6,18.7,62.5,20.4z M26.8,91.1c0.1-3,0.3-5.8,0.4-7.2
			c20.2,0,40.8,0,60.5,0c-0.1,1.8-0.2,3.6-0.2,5.7c0,2.6,0.1,5.1,0.2,7.7c0.1,2.5,0.2,5.1,0.2,7.6c0,3.4-0.2,6.3-0.5,8.9l0.8,0.1
			c-20.4,0-41.7,0-62.7-0.1C25.8,110.4,26.4,99.3,26.8,91.1z M42.4,135.1c0.3-6.5,0.7-12.9,0.9-19.3c23.5,0,47.7,0,71,0
			c0.4,6.7,0.5,12.3,0.5,18.4c0,3.4,0,6.9-0.1,10.4c0,3.5-0.1,6.9-0.1,10.4c-22.8,0-48-0.1-73.3-0.1C41.7,148.4,42,141.7,42.4,135.1
			z M130.5,194.1c0.2-4.9,0.5-10,1.9-14.9c36.7,0,63.6-0.1,67.8-0.1c4.6,0,9.5-0.1,14.7-0.1c0,1.3,0.1,2.6,0.1,3.9
			c0,8.9-1,17.8-2.9,26.6c-8.9,0-17.2,0-24.2,0c-3.1,0-26.6,0-59.5,0C130,204.4,130.3,199.2,130.5,194.1z M201.2,223.6
			c0.3-4,0.7-8,0.9-12.1c22.2,0.1,51.2,0.2,77.9,0.3c-0.5,7.9-1.4,16.1-4.3,24.1c-22.9,0-52.7,0-75.4,0
			C200.5,231.8,200.8,227.7,201.2,223.6z M257,237.6c0.1,0.7,0.1,1.5,0.1,2.2c0,2.9-0.4,6-0.8,8.9c-0.4,3-0.8,6.1-0.8,9.1
			c0,0.3,0,0.6,0,0.8c-21.4,0-44.2-0.1-61.3-0.1c-2.3,0-11.1,0-24.5,0c0.1-0.6,1-11.2,2.5-20.9c10.4,0,17.2,0,19,0
			C209.2,237.6,234.4,237.6,257,237.6z M212.7,292.3c0.9,4.1,1.4,8.5,1.4,13.9c0,3.6-0.2,7.2-0.4,10.7c-0.2,3.1-0.3,6.4-0.3,9.6
			c-2.4,0-4.7,0-6.9-0.1c-2.3,0-8.8,0-18.4-0.1c0-0.1,0-0.1,0-0.2l-2.8,0.2c-9.7,0-22.1,0-36.5-0.1c-0.9-12-1.8-22.9-3.1-34.2
			C171.1,292.2,194.3,292.2,212.7,292.3z M255.6,328.1c33.4,0.1,64.2,0.2,67.8,0.3c0,8.9,0.5,17.3,0.9,26.3
			c-3.9-0.2-36.1-0.3-70.5-0.5c1.1-5.7,2.2-12.2,2.2-18.9C256.1,332.7,255.9,330.4,255.6,328.1z M338.3,483.2
			c-4.8-0.2-27.8-0.3-55.5-0.5c0-0.9-0.1-1.8-0.1-2.7c0-5.3,0.6-10.9,1.1-16.3c0.4-3.7,0.8-7.6,1-11.3c26.6,0.1,48.3,0.1,52.7,0.2
			c0.4,2.8,0.6,5.9,0.6,9.6c0,2,0,4-0.1,6c0,2-0.1,4-0.1,6C337.8,477.6,338,480.5,338.3,483.2z M485.5,524.4c-7.8,0-15.7,0-23.5,0.1
			c-15.6,0.1-31.2,0.1-46.8,0.1c-11.6,0-23.5,0-35.4-0.1c-0.5-6.6-1-12.8-1.5-19c-0.5-6.1-1-12.2-1.5-18.7c32.5,0.3,60.2,0.7,75.5,1
			c11.6,0.2,23.4,0.5,35.1,0.7c-1.4,8.9-2.1,18.4-2.1,28.3C485.4,519.2,485.5,521.8,485.5,524.4z M415.2,526.3c5.6,0,11.3,0,16.9,0
			c-0.1,1.8-0.2,3.8-0.2,6c0,2.2,0.1,4.5,0.1,6.7c0,1.9,0.1,3.7,0.1,5.6c-2.9,0-5.8,0-8.7,0c-32,0-62.6,0.2-92.6,0.7
			c-0.2-3.1-0.3-6.1-0.3-9.2c0-3.3,0.1-6.6,0.4-9.9C368.6,526.2,401.3,526.3,415.2,526.3z M232.6,523.5c0.6-4.1,1.4-8.3,2.1-12.3
			c1.6-8.5,3.2-17.3,3.3-26.1c22.5,0.3,47.4,0.6,72.4,0.9c0,0.6,0,1.2,0,1.8c0,9.5-1.4,18.8-2.9,28.6c-0.4,2.4-0.7,4.8-1.1,7.3
			l2.8,0.3c0.3-2.4,0.7-4.8,1.1-7.3c1.4-9.4,2.9-19.2,2.9-28.9c0-0.6,0-1.2,0-1.8c20.8,0.2,41.5,0.4,60.6,0.7
			c0.5,6.5,1,12.7,1.5,18.8c0.5,6.2,1,12.4,1.5,18.9C360.5,524.3,288.5,524,232.6,523.5z M327.9,545.2c-3.7,0.1-27,0.1-54.8,0.2
			c0.2-2.2,0.6-4.5,1-6.9c0.6-3.1,1.2-6.4,1.2-9.6c0-1.1-0.2-2.1-0.3-3.1c17.7,0.1,35.8,0.2,52.9,0.3c-0.2,3.3-0.4,6.6-0.4,9.9
			C327.6,539.1,327.7,542.2,327.9,545.2z M197.3,482.2c-18.4,0-45.2-0.1-75.6-0.1c-0.4-2.9-0.5-6-0.5-9.6c0-3.5,0.2-7.1,0.3-10.6
			c0.1-3.3,0.3-6.6,0.3-9.9c32.5,0,60.7,0,78.9,0.1c-0.4,3.5-0.9,7-1.5,10.4c-0.9,5.3-1.9,10.8-1.9,16.3
			C197.2,479.9,197.2,481.1,197.3,482.2z M157.2,523.3c-16.6,0-35.1-0.1-54.7-0.1c0.4-4.7,1.2-9.4,2-13.9c1.1-6,2.3-12.3,2.3-18.5
			c0-2.3-0.2-4.4-0.5-6.4c18.5,0.1,36,0.1,51.5,0.2c-0.1,0.9-0.1,2-0.1,3.5c0,4.6-0.2,9.3-0.4,13.8c-0.2,4.5-0.4,9.2-0.4,13.9
			C157,518.4,157,520.9,157.2,523.3z M182.4,383.5c16.8,0,28.5,0,32.5,0c16.6,0.1,35.4,0.1,53.3,0.2c0,0.8-0.1,1.7-0.1,2.5
			c0,2.3,0.1,4.6,0.1,7c0.1,2.3,0.1,4.7,0.1,7c0,3.3-0.1,6.9-0.4,9.9c-16.9,0.1-34.8,0.1-50.8,0.2c-4.6,0-18.6,0-38.3,0.1
			c0-0.9-0.1-2-0.1-2.5c0-3.6,1-7.3,1.9-10.8c1-3.6,1.9-7.4,1.9-11.2C182.6,385.1,182.5,384.3,182.4,383.5z M240.4,412
			c0,12.6,0,25.6-1.8,38.7c-6.6,0-13-0.1-19.1-0.1c-5.4,0-24.8-0.1-51.8-0.1c0.1-2.1,0.1-4.2,0.2-6.3c0.3-10.8,0.7-21.9,2.4-32
			c24.2,0,41.4-0.1,46.6-0.1C224.4,412,232.3,412,240.4,412z M177.9,396.6c-1,3.7-2,7.4-2,11.3c0,0.5,0,1.6,0.1,2.5
			c-21,0-48,0.1-77.2,0.1l0.1-2.3c0.2-4.3,0.5-9.1,0.5-12.9c0-4.4-0.3-8.3-0.8-11.9c31.1,0,59.6,0,80.8,0.1c0.1,0.8,0.2,1.5,0.2,2.3
			C179.8,389.5,178.9,392.9,177.9,396.6z M167.4,412.2c-1.7,10.2-2.1,21.2-2.4,32c-0.1,2.1-0.1,4.2-0.2,6.3c-21.7,0-48-0.1-75.9-0.1
			c-1.3-9-1.4-18.2-1.4-27.1c0-3.7-0.1-7.4-0.2-11.1C117,412.2,145,412.2,167.4,412.2z M201.9,462.8c0.6-3.5,1.2-7.1,1.6-10.7
			c8.1,0,13.9,0,16.6,0c19.7,0.1,42,0.1,61.8,0.2c-0.2,3.7-0.6,7.5-0.9,11.1c-0.6,5.4-1.1,11-1.1,16.5c0,0.9,0,1.8,0.1,2.7
			c-18.9-0.1-39.8-0.2-58.4-0.4c-3.3,0-10.8,0-21.3-0.1c-0.1-1.2-0.2-2.3-0.2-3.5C200,473.5,201,468.1,201.9,462.8z M320.4,434
			c-0.6,4.7-1.2,9.6-1.2,14.4c0,0.8,0,1.6,0.1,2.5c-23.6,0-51.9-0.1-77.9-0.2c1.8-13.1,1.8-26.1,1.8-38.7
			c29.6-0.1,60.5-0.2,77.6-0.2c0.5,2.5,0.7,5.1,0.7,8C321.6,424.5,321,429.3,320.4,434z M270.9,410.1c0.4-3,0.4-6.6,0.4-9.9
			c0-2.3-0.1-4.7-0.1-7c-0.1-2.3-0.1-4.6-0.1-6.9c0-0.8,0-1.7,0.1-2.5c32.4,0.1,61,0.3,66.3,0.4c0.6,5.2,0.6,10.5,0.7,15.5
			c0,3.4,0.1,6.8,0.3,10.3c-1.5,0-3.1,0-4.6,0C329,410,301.9,410,270.9,410.1z M302,367c-0.5,4.3-1.1,10.1-1.1,15.6
			c-3.7,0-7.5-0.1-11.3-0.1c0.3-2.7,0.9-5.5,1.5-8.2c0.9-4,1.8-8.1,1.8-12.3c0-1.8-0.2-3.4-0.6-5c3.4,0,6.7,0.1,10,0.1
			c0,0.5,0,1,0,1.5c0,1,0.1,2,0.1,3.1C302.4,362.7,302.2,364.6,302,367z M289.4,357c0.4,1.6,0.6,3.2,0.6,5c0,3.9-0.9,7.9-1.7,11.8
			c-0.6,2.8-1.2,5.7-1.5,8.6c-5.2,0-10.4-0.1-15.7-0.1c0-0.1,0-0.2,0-0.2l-2.8-0.1c0,0.1,0,0.2,0,0.3c-18.4-0.1-36.8-0.2-52.9-0.3
			c-0.8,0-1.9,0-3.2,0c0.2-4,0.4-9.6,0.4-13.9c0-6.5-0.3-10-0.7-12C234.8,356.5,263,356.8,289.4,357z M251,354.1
			c-13.8-0.1-27.9-0.2-40.4-0.2c-0.1,0-0.2,0-0.4,0c-0.1,0-0.2,0-0.4,0c-2.3,0-4.6,0-6.8,0c-2,0-7,0-14.5,0c-0.1-2.5-0.2-5-0.2-7.5
			l0-7.1c0-3.6-0.1-7.4-0.4-11.4c9.6,0,16.2,0,18.7,0c14,0.1,30.2,0.1,46,0.2c0.3,2.3,0.5,4.6,0.5,7.1
			C253.3,341.9,252.2,348.5,251,354.1z M118.9,452c0,3.2-0.1,6.5-0.3,9.8c-0.2,3.5-0.3,7.1-0.3,10.7c0,3.6,0.2,6.7,0.5,9.6
			c-22.5,0-46.8-0.1-71.1-0.1c-1.3-9.6-2.7-20.4-2.9-30C70.1,452,95.5,452,118.9,452z M61.7,525c-0.1,1.5-0.2,3-0.2,4.7
			c0,2.1,0.1,4.3,0.2,6.4c0.1,2.1,0.2,4.2,0.2,6.3c0,1.1,0,2.1-0.1,3.2l2.8,0.1l0,0l0,0l0,0c-26.1,0-52.7,0-77.4,0
			c0.5-3.6,1.3-7.2,2-10.6c0.7-3.3,1.5-6.8,2-10.2C13.8,524.9,37.9,524.9,61.7,525z M160,523.3c-0.1-2.4-0.2-4.8-0.2-7.6
			c0-4.6,0.2-9.3,0.4-13.8c0.2-4.5,0.4-9.2,0.4-13.9c0-1.9,0-2.9,0.1-3.5c32.3,0.1,55.9,0.2,61.7,0.3c4.1,0.1,8.4,0.1,12.7,0.2
			c-0.1,8.7-1.7,17.4-3.3,25.8c-0.8,4.2-1.6,8.4-2.2,12.7c-2,0-3.9,0-5.8,0C217.3,523.4,193,523.4,160,523.3z M194.2,544.2
			c0.4-6.2,0.8-12.6,0.8-18.9c14.5,0,24.7,0.1,28.4,0.1c15,0.2,31.7,0.3,48.8,0.4c0.2,1,0.3,2,0.3,3.1c0,3-0.6,6.2-1.2,9.2
			c-0.4,2.4-0.9,4.9-1.1,7.3c-8.9,0-18.2,0-27.5,0.1c0,0,0,0,0-0.1l-2.8-0.5c-0.1,0.2-0.1,0.4-0.1,0.6c-6.9,0-13.7,0-20.2,0.1
			c-3.7,0-12.7,0-25.5,0L194.2,544.2z M508.8,566.2c-0.3,4.4-0.6,8.9-0.7,13.3c-32-0.6-63.9-0.7-95.2-0.8c-6.3,0-12.6,0-19-0.1
			c0.5-5.5,0.9-10.6,1.4-15.8c0.5-5.4,1-10.8,1.5-16.6c8.8,0,17.7-0.1,26.7-0.1c27.8,0,56.3,0.2,86,0.6c0.1,1.3,0.1,2.5,0.1,3.8
			C509.6,555.8,509.2,561.1,508.8,566.2z M508.7,526c7.4,0,14.5,0,21.2,0c0,6.3,0,12.9-0.5,19.2c-32.8-0.5-64-0.8-94.4-0.8
			c0-1.9,0-3.7-0.1-5.6c-0.1-2.2-0.1-4.4-0.1-6.7c0-2.2,0.1-4.2,0.2-6c9,0,17.9,0,26.9-0.1C477.6,526.1,493.2,526,508.7,526z
			 M428.6,452.4c19.4-0.1,39.6-0.3,59.3-0.3c16.3,0,31.1,0.1,45,0.3c0,8.2-0.4,16.4-0.9,24.3c-0.2,3.6-0.4,7.3-0.5,11
			c-26.6-0.7-53.1-1.2-79.1-1.8c-5.6-0.1-11.2-0.2-16.8-0.3c-0.1-3.1-0.2-6.5-0.2-10.3c0-3.8,0.1-7.7,0.1-11.5
			c0.1-3.8,0.1-7.6,0.1-11.4h-3c0,3.8-0.1,7.5-0.1,11.3c-0.1,3.8-0.1,7.7-0.1,11.5c0,3.8,0.1,7.2,0.2,10.2
			c-30.2-0.6-60.8-1.3-91.3-2.3c-0.3-2.7-0.5-5.6-0.5-9.1c0-2,0-4,0.1-6c0-2,0.1-4,0.1-6c0-3.7-0.2-6.8-0.5-9.6
			c10.2,0.1,19.8,0.1,28.8,0.1C389,452.7,409.1,452.5,428.6,452.4z M402,449.4l0.2,1.5c-11,0.1-22,0.1-32.9,0.1c-6,0-24.1,0-47.1,0
			c0-0.8-0.1-1.6-0.1-2.5c0-4.7,0.6-9.5,1.2-14.2c0.6-4.7,1.2-9.7,1.2-14.5c0-2.9-0.3-5.5-0.7-8c5.1,0,8.6,0,10,0
			c21.7,0,43.8,1.1,66.5,2.7l-2.1,0.1C399.2,426.2,400.6,437.5,402,449.4z M341.4,410c-0.2-3.5-0.2-6.9-0.3-10.3
			c-0.1-5-0.1-10.2-0.7-15.4c33.2,0.9,66.3,2.2,99.2,3.5c0.2,4,0.6,8,0.9,11.9c0.5,5.3,0.9,10.8,1,16.2
			C406.8,413.1,373.6,410.4,341.4,410z M471.6,389.2c20.6,0.9,41,1.9,61.3,2.8c5.1,0.2,10.1,0.5,15.2,0.7h-2.2
			c0,6.8,0.5,13.9,0.9,20.7c0.2,3.1,0.4,6.1,0.5,9.1c-34.2-0.7-68.9-3.6-102.7-6.4c0,0-0.1,0-0.1,0c-0.1-5.6-0.6-11.2-1-16.6
			c-0.3-3.8-0.7-7.7-0.9-11.6c8.7,0.4,17.3,0.7,25.9,1.1c0,0.1,0,0.1,0,0.2L471.6,389.2C471.6,389.2,471.6,389.2,471.6,389.2z
			 M404.8,359c0,0.1,0,0.2,0,0.3l3,0.1c0-0.1,0-0.2,0-0.3c21.2,0.5,42.3,1,63.3,1.4c-0.2,4.1-0.7,8.2-1.2,12.2
			c-0.6,4.8-1.1,9.7-1.3,14.6c-32.8-1.5-65.9-2.8-99.1-3.9c1.3-8.3,2.7-16.8,3.6-25.3C383.7,358.5,394.3,358.8,404.8,359z
			 M370.2,358.1c-0.9,8.4-2.3,17-3.6,25.3c-8-0.3-33-0.5-62.8-0.7c0-5.4,0.6-11.2,1.1-15.4c0.3-2.5,0.5-4.4,0.5-5.5
			c0-1,0-2.1-0.1-3.1c0-0.5,0-0.9,0-1.4C335.8,357.5,361.7,357.8,370.2,358.1z M358.3,327.4c-13.5-0.2-89.6-0.6-142.1-0.9
			c0-3.2,0.2-6.4,0.3-9.5c0.2-3.5,0.4-7.2,0.4-10.8c0-5.3-0.4-9.8-1.3-13.9c17.6,0.1,30.4,0.1,36.2,0.2c13.4,0.1,27.5,0.3,41.6,0.4
			c0,1.1-0.1,2.2-0.1,3.3c0,4.2,0.2,8.3,0.3,12.5c0.2,4.1,0.3,8.3,0.3,12.4c0,1.8,0,3.6-0.1,5.4l2.8,0.1c0.1-1.8,0.1-3.7,0.1-5.5
			c0-4.2-0.2-8.3-0.3-12.5c-0.2-4.1-0.3-8.3-0.3-12.4c0-1.1,0-2.2,0.1-3.3c21.4,0.2,42.8,0.4,62.2,0.6c-0.4,4.6-0.6,9.4-0.6,14.9
			C357.8,314.9,358,321.2,358.3,327.4z M328.4,290.3c-0.2-4.7-0.3-9.4-0.3-14c0-5.1,0.1-10.2,0.4-15.5c20.4,0.4,40.7,0.7,60.9,1v30
			C369.1,291.4,348.7,290.8,328.4,290.3z M436.7,294.7c0,11-0.5,22.2-1.4,33.3c-4.5,0-9.1,0.1-13.6,0.1c-20,0-40.2-0.2-60.4-0.6
			c-0.3-6.2-0.5-12.6-0.5-19c0-5.5,0.2-10.3,0.6-14.9c28.9,0.3,52.9,0.6,65.3,0.9c4.2,0.1,8.5,0.2,12.8,0.3H436.7z M421.2,262.5
			c0-0.1,0-0.1,0-0.2c17.2,0.2,34.5,0.5,51.9,0.8c-0.5,5.2-0.9,10.5-1.2,15.8c-0.3,5-0.7,9.9-1.2,14.8c-14.7-0.3-29.4-0.7-43.9-1
			c-11.4-0.3-22.9-0.5-34.5-0.8v-30c4.7,0.1,9.4,0.1,14.1,0.2c2,0,3.9,0.1,5.9,0.1c0,0,0,0,0,0l3,0.1c0,0,0,0,0-0.1c1,0,2,0,3,0
			c0,0.1,0,0.2,0,0.3L421.2,262.5z M537.4,213.8c-0.4,3.3-0.6,6.7-0.8,9.9c-0.3,4.9-0.7,10-1.5,14.9c-12.3,0.3-25.2,0.5-38.9,0.5
			c-16.4,0-33-0.2-49.4-0.6c0.4-5.5,1.6-11.2,2.7-16.7c0.6-3,1.2-6,1.7-8.9l-3-0.2c-0.5,2.9-1.1,5.9-1.7,8.9
			c-1.1,5.5-2.2,11.3-2.7,16.9c-13.7-0.3-27.3-0.6-40.7-1c-16.2-0.4-32.7-0.9-49.2-1.2v-24.3c19.8,0.2,39.5,0.3,59,0.3
			c31.3,0.1,63.2,0.3,95.2,0.8c0,0.2,0,0.4,0,0.6h3c0-0.2,0-0.4,0-0.5C519.8,213.4,528.6,213.6,537.4,213.8z M508.7,158
			c7.4,0,14.5,0,21.2,0c0,6.3,0,12.9-0.5,19.2c-32.8-0.5-64-0.8-94.4-0.8c0-1.9,0-3.7-0.1-5.6c-0.1-2.2-0.1-4.4-0.1-6.7
			c0-2.2,0.1-4.2,0.2-6c9,0,17.9,0,26.9-0.1C477.6,158.1,493.2,158,508.7,158z M428.6,84.3c19.4-0.1,39.6-0.3,59.3-0.3
			c16.3,0,31.1,0.1,45,0.3c0,8.2-0.4,16.4-0.9,24.3c-0.2,3.6-0.4,7.3-0.5,11c-26.6-0.7-53.1-1.2-79.1-1.8
			c-5.6-0.1-11.2-0.2-16.8-0.3c-0.1-3.1-0.2-6.5-0.2-10.3c0-3.8,0.1-7.7,0.1-11.5c0.1-3.8,0.1-7.6,0.1-11.4h-3
			c0,3.8-0.1,7.5-0.1,11.3c-0.1,3.8-0.1,7.7-0.1,11.5c0,3.8,0.1,7.2,0.2,10.2c-30.2-0.6-60.8-1.3-91.3-2.3c-0.3-2.7-0.5-5.6-0.5-9.1
			c0-2,0-4,0.1-6c0-2,0.1-4,0.1-6c0-3.7-0.2-6.8-0.5-9.6c10.2,0.1,19.8,0.1,28.8,0.1C389,84.6,409.1,84.5,428.6,84.3z M402,81.3
			l0.2,1.5c-11,0.1-22,0.1-32.9,0.1c-7,0-29.8,0-57.8-0.1c0.5-6.6,1.4-13.2,2.3-19.6c0.9-6.3,1.7-12.9,2.2-19.5c9.3,0,15.8,0,17.9,0
			c21.7,0,43.8,1.1,66.5,2.7l-2.1,0.1C399.2,58.2,400.6,69.4,402,81.3z M468.6,21c0,0.1,0,0.1,0,0.2h3c0,0,0,0,0,0
			c20.6,0.9,41,1.9,61.3,2.8c5.1,0.2,10.1,0.5,15.2,0.7h-2.2c0,6.8,0.5,13.9,0.9,20.7c0.2,3.1,0.4,6.1,0.5,9.1
			c-34.2-0.7-68.9-3.6-102.7-6.4c0,0-0.1,0-0.1,0c-0.1-5.6-0.6-11.2-1-16.6c-0.3-3.8-0.7-7.7-0.9-11.6C451.4,20.3,460,20.7,468.6,21
			z M439.7,19.8c0.2,4,0.6,8,0.9,11.9c0.5,5.3,0.9,10.8,1,16.2c-34.9-2.9-68-5.5-100.3-5.9c-0.2-3.5-0.2-6.9-0.3-10.3
			c-0.1-5-0.1-10.2-0.7-15.4C373.6,17.2,406.8,18.4,439.7,19.8z M288.4-12.3c37.7,0.5,71.8,0.9,81.9,1.3c-0.9,8.8-2.4,17.7-3.8,26.3
			c-9.4-0.3-42-0.6-78.4-0.8c0.1-1.5,0.1-3.5,0.1-4.9c0-2.3-0.1-4.6-0.1-7C288,0.3,288-2,288-4.2C288-7.3,288.1-9.9,288.4-12.3z
			 M198.3-13.6c23.7,0.4,56.5,0.8,87.3,1.2c-0.3,2.5-0.4,5.1-0.4,8.1c0,2.3,0.1,4.6,0.1,6.9c0.1,2.3,0.1,4.6,0.1,6.9
			c0,1.4,0,3.4-0.1,4.9c-25.4-0.2-52.4-0.3-74.4-0.5l-0.8-0.1c0,0,0,0,0,0c-4.7,0-9.1-0.1-13.2-0.1C196.9,4.7,197.4-4.5,198.3-13.6z
			 M105.8-14c44.6,0.1,78.6,0.1,81.7,0.2c2.5,0.1,5.2,0.1,7.9,0.2c-0.9,9.1-1.3,18.4-1.3,27.5c-2.6,0-5.2,0-7.6-0.1
			c-3,0-38.3,0-84.1-0.1c0.3-3.2,0.9-6.5,1.5-9.7c0.9-5,1.9-10.2,1.9-15.5C105.9-12.3,105.8-13.2,105.8-14z M7.9-14.2
			c32.2,0,65.7,0.1,95,0.1c0.1,0.9,0.1,1.7,0.1,2.6c0,5.1-0.9,10.2-1.9,15.1c-0.6,3.3-1.2,6.7-1.6,10c-10.8,0-22.2,0-33.9,0
			l-2.6-0.2c0,0.1,0,0.1,0,0.2c-18.2,0-36.9,0-55.3,0V-14.2z M-41.2,13.6c-17.9,0-34.1,0-47.4,0l1.5,0c-0.1-2.9-0.2-5.8-0.2-8.8
			c0-6.5,0.3-13,0.6-19.1c24,0,57,0.1,91.8,0.1v27.8c-15.4,0-30.4,0-44.4,0c0,0,0-0.1,0-0.1L-41.2,13.6z M-88.1,46.1
			c0-0.5,0-1.1,0-1.6c16.5,0,37.5,0,60.5,0c0,4.4-0.2,8.8-0.4,13.1c-0.2,4.9-0.4,9.9-0.4,14.9c0,3.6,0.1,6.8,0.3,9.9
			c-9.9,0-19.4,0-28.3,0c0,0,0-0.1,0-0.1l-1.4,0.1c-9.9,0-19,0-27.2,0l1.1-0.1c-0.4-3-0.9-6.1-1.4-9.1
			C-86.7,63.8-88.1,55.1-88.1,46.1z M-95.1,113.8c0-0.8,0.1-1.7,0.1-2.5c0-5.3-0.6-10.7-1.3-16c-0.4-3.8-0.9-7.7-1.1-11.5
			c10.5,0,23.6,0,38.4,0c0.6,5.6,1.6,11.2,2.6,16.6c0.8,4.4,1.7,8.9,2.3,13.4C-69.9,113.8-83.9,113.8-95.1,113.8z M-79.5,154.8
			c1.4-13.3,1.9-26.4,2.3-39.1c14.7,0,32.2,0,51.3,0.1c-0.6,3-0.8,5.7-0.8,8.9c0,5.5,0.6,11.1,1.3,16.5c0.5,4.4,1,9.1,1.2,13.5
			l2.8-0.1c-0.2-4.5-0.7-9.2-1.2-13.7c-0.6-5.4-1.3-10.9-1.3-16.3c0-3.3,0.3-5.9,0.8-8.9c19.8,0,41.4,0,63.5,0.1
			c-0.2,6.4-0.6,12.8-0.9,19.2c-0.4,6.7-0.7,13.4-0.9,20c-35.7,0-71.4-0.1-100.2-0.1c0,0,0-0.1,0-0.1l-1.8,0.1
			C-69.1,154.8-74.5,154.8-79.5,154.8z M-80.1,209.5c-0.5-5.4-1.7-10.6-2.8-15.7c-1.1-4.7-2.1-9.5-2.6-14.4c16.8,0,37.8,0,60.8-0.1
			v30h2.8v-30c22,0,45.6,0,69-0.1v30.2C1.1,209.5-46.6,209.5-80.1,209.5z M-38.2,211.3c24.1,0,51,0,77.6,0c-0.3,2.5-0.6,5-0.9,7.5
			c-0.7,5.5-1.5,11.2-1.8,16.9l2.8,0.1c0.3-5.6,1.1-11.2,1.8-16.7c0.3-2.6,0.7-5.2,1-7.7c25.6,0,50.8,0,72.9,0l0,0.2
			c0.5,8,0.9,16.4,1.8,24.3l2.8-0.2c-0.9-7.9-1.4-16.2-1.8-24.2l0,0c38.9,0,67.7,0,70.9,0.1c3.2,0,6.6,0,10.2,0.1
			c-0.2,4.1-0.6,8-0.9,12c-0.3,4.1-0.7,8.2-0.9,12.4c-1.9,0-3.9,0-5.7,0c-9,0-135.8,0-226.1,0c-0.8-4.3-1.4-8.5-2-12.7
			C-36.8,219.4-37.4,215.3-38.2,211.3z M5.6,251c-0.2,1.4-0.3,2.4-0.3,2.7c0,0.9,0.1,1.9,0.1,2.8c0,0.7,0.1,1.4,0.1,2.1
			c-25.7,0-50.4,0-71.2,0l2.2-0.2c-0.3-2.6-0.4-5-0.4-7.3l0-3.7c0-2.9-0.1-6.2-0.7-9.6c21,0,45.7,0,71.5,0
			C6.8,242.6,6.1,247.9,5.6,251z M91.6,258.6c-14.4,0-29.5,0-44.7,0l-2.6-0.2c0,0.1,0,0.1,0,0.2c-12,0-24.1,0-35.9,0
			c0-0.7,0-1.4-0.1-2.2c0-0.9-0.1-1.8-0.1-2.7c0-0.3,0.1-1.2,0.3-2.4c0.4-3.1,1.2-8.5,1.3-13.6c27.1,0,55.1,0,80.9,0
			c0.1,1.7,0.2,3.3,0.4,5c0.3,4.1,0.7,8.3,0.7,12.4C91.7,256.3,91.6,257.4,91.6,258.6z M94.4,258.6c0.1-1.1,0.1-2.3,0.1-3.4
			c0-4.2-0.3-8.5-0.7-12.6c-0.1-1.6-0.3-3.3-0.4-4.9c30.8,0,58,0,76,0c-1.5,9.9-2.5,20.7-2.5,20.8l1.4,0.1
			C150.1,258.6,123.8,258.6,94.4,258.6z M67.3,291.9c25.8,0.1,51.6,0.1,75.4,0.2c1.3,11.3,2.2,22.3,3.1,34.2
			c-22.9,0-50.4-0.1-78.8-0.1c0.1-1,0.1-2.6,0.1-5.1c0-2.9-0.1-5.9-0.1-8.8c-0.1-2.9-0.1-5.8-0.1-8.8C66.8,299,67,295.3,67.3,291.9z
			 M65.6,327.9c0.3,0,0.5,0,0.7-0.1c17.6,0,34.8,0,50.9,0c0,0.9,0.1,1.8,0.1,2.7c0,4.8-0.4,9.7-0.8,14.4c-0.3,2.9-0.5,5.8-0.7,8.8
			c-51.7,0-116.3-0.1-165.5-0.1c-0.1-1-0.1-2.1-0.1-3.1c0-1.9,0.1-3.8,0.1-5.8c0.1-1.9,0.1-3.9,0.1-5.8c0-3.1-0.2-7-1.2-11.1
			c24.5,0,53,0,82,0c1.5,6,1.7,12.2,1.7,18.3c0,2.5,0.1,5,0.2,7.5l2.8-0.1c-0.1-2.5-0.2-4.9-0.2-7.4c-0.1-6-0.2-12.2-1.7-18.2
			C44.5,327.8,55.1,327.8,65.6,327.9L65.6,327.9z M-7.8,291.7c23,0.1,47.6,0.1,72.3,0.2c-0.4,3.4-0.5,7.2-0.5,11.6
			c0,2.9,0.1,5.9,0.1,8.8c0.1,2.9,0.1,5.8,0.1,8.8c0,1.5,0,3.3,0,4.4h-0.1l0,0.7c-23.4,0-47.3,0-70-0.1c-0.2-4.4-0.6-8.8-1-13.1
			c-0.5-5.6-1.1-11.3-1.1-17C-7.9,294.6-7.9,293.1-7.8,291.7z M-80.7,326l1.4,0c-0.4-9.2-0.3-18.8-0.3-28.1l0-6.4
			c19.1,0.1,42.9,0.1,68.9,0.2c-0.1,1.4-0.2,2.9-0.2,4.3c0,5.8,0.6,11.6,1.1,17.2c0.4,4.2,0.8,8.6,1,12.9c-15,0-29.3,0-42.5-0.1
			c0,0,0-0.1,0-0.1l-0.5,0.1C-62.2,326.1-71.9,326-80.7,326z M-60.2,381.5l-1.4,0.2c-13,0-24.7,0-34.2,0l1.1-0.3
			c-1.5-4.8-1.9-9.7-2.3-14.5c-0.3-3.8-0.8-7.7-1.6-11.6c17.4,0.1,42.1,0.1,70.2,0.2c0,3.5-0.3,7-0.5,10.4
			c-0.3,3.9-0.5,7.9-0.5,11.9c0,1.3,0,2.6,0.1,4c-10.8,0-21.1,0-30.7,0C-60.2,381.6-60.2,381.6-60.2,381.5z M-57.2,410.6l2-0.5
			c-2.1-5.9-2.8-12.1-3.5-18c-0.3-2.9-0.7-5.8-1.2-8.8c24.2,0,53.1,0,83,0c0.3,1.8,0.5,3.7,0.5,5.8c0,3.6-0.5,7.3-1,10.8
			c-0.5,3.5-1,7-1,10.6C-6.7,410.6-33.9,410.6-57.2,410.6z M-21.9,451.9c20.2,0,42,0,63.9,0c0.2,9.7,1.6,20.4,2.9,30
			c-22.7,0-45.3-0.1-66.3-0.1c0-3.8-0.1-7.7-0.3-11.5c-0.2-4.3-0.3-8.6-0.3-12.9C-22,455.7-22,453.8-21.9,451.9z M-31.8,484
			c20,0.1,41.7,0.1,63.9,0.2c1.5,15.5,6.1,37.9,6.2,38.1c0,0.2,0,0.5-0.1,0.8c-25.5,0-50.6-0.1-73.2-0.1c0.3-4.7,0.9-9.4,1.4-14
			c0.9-7.6,1.8-15.4,1.8-23.1C-31.8,485.2-31.8,484.6-31.8,484z M-89,522.8l1.1-0.3c-4-9.4-5.3-19.4-6.6-29
			c-0.4-3.2-0.9-6.5-1.4-9.7c15.8,0.1,37.1,0.2,61.2,0.2c0,0.6,0,1.2,0,1.9c0,7.6-0.9,15.4-1.8,22.9c-0.5,4.7-1.1,9.5-1.4,14.2
			C-57.3,522.9-74.8,522.9-89,522.8z M-54.5,545.7c-7.7,0-15,0-21.8,0c-0.6-5.1-0.9-9.6-0.9-13.7c0-2.6,0.2-5.1,0.4-7.4
			c18.4,0.1,40.8,0.1,65.1,0.2c-0.5,3.3-1.2,6.6-1.9,9.8c-0.8,3.6-1.6,7.3-2.1,11.1c-12.6,0-24.7,0-36,0c0,0,0-0.1,0-0.1h-2.8
			C-54.5,545.6-54.5,545.7-54.5,545.7z M-51.8,577.5c-0.6-3-0.9-6.2-0.9-9.9c0-3.6,0.3-7.3,0.5-10.9c0.2-3.1,0.4-6.2,0.5-9.4
			c20.8,0,44.5-0.1,69-0.1c-0.1,1.8-0.1,3.7-0.1,5.5c0,3,0.1,6.1,0.2,9.2c0.1,3,0.2,6.1,0.2,9.1c0,2,0,4-0.1,6l2.8,0.1
			c0.1-2,0.1-4,0.1-6c0-3-0.1-6.1-0.2-9.2c-0.1-3-0.2-6.1-0.2-9.1c0-1.8,0-3.7,0.1-5.5c25.4,0,51.6-0.1,76.5-0.1
			c-1.1,7.5-2.1,16.3-2.1,24.9c0,1.6,0,3.2,0.1,4.8l2.8-0.1c-0.1-1.6-0.1-3.1-0.1-4.7c0-8.6,1.1-17.4,2.1-24.9
			c22.4,0,43.6,0,61.9-0.1c-0.1,4.7-0.3,9.4-0.7,14c-0.3,5.1-0.7,10.4-0.7,15.6h2.8c0-5.1,0.4-10.4,0.7-15.5
			c0.3-4.6,0.6-9.4,0.7-14.1c30.2,0,52.2-0.1,58.2-0.1c5.5,0,11.2-0.1,17.1-0.1c-1.7,7.5-2.3,15.2-2.8,22.7
			c-0.2,2.7-0.4,5.4-0.6,8.1c-6.7,0-13.4,0-19.9,0C198.3,577.6,42.8,577.6-51.8,577.5z"/>
	</g>
	<g class="st2">
		<g class="st3">
			<path class="st1" d="M559.2,488.6c-8.9-0.3-17.9-0.5-26.8-0.8c0.2-3.7,0.3-7.4,0.5-11c0.4-7.9,0.9-16.2,0.9-24.3
				c8.8,0.2,17.2,0.4,25.4,0.6V488.6z"/>
			<path class="st1" d="M430.4,158.2c-0.1,1.8-0.2,3.8-0.2,6c0,2.2,0.1,4.5,0.1,6.7c0,1.9,0.1,3.7,0.1,5.6c-2.9,0-5.8,0-8.6,0
				c-31.9,0-62.4,0.2-92.3,0.7c-0.2-3.1-0.3-6.1-0.3-9.2c0-3.5,0.1-7,0.4-10.4l-3-0.1c-0.2,3.5-0.4,7-0.4,10.5
				c0,3.1,0.1,6.2,0.3,9.3c-9.5,0.2-441.1,0.4-450.5,0.6v-21.4c18.5,0.7,129.5,0.3,245.9,0.6c132.4,0.3,271.9,1.3,291.5,1.3
				C419.2,158.2,424.8,158.2,430.4,158.2z"/>
			<path class="st1" d="M336.8,399.7c0,3.4,0.1,6.8,0.3,10.3c-1.5,0-3.1,0-4.6,0c-11.5,0-445,0.3-456.4,0.8v-27.5
				c12.6,0.2,447.4,0.5,460,0.9C336.6,389.4,336.7,394.7,336.8,399.7z"/>
			<path class="st1" d="M392.3,210.6c0.5-5.5,0.9-10.6,1.4-15.8c0.5-5.4,1-10.8,1.5-16.6c8.8,0,17.6-0.1,26.6-0.1
				c27.7,0,56.1,0.2,85.7,0.6c0.1,1.3,0.1,2.5,0.1,3.8c0,5.2-0.4,10.5-0.8,15.6c-0.3,4.4-0.6,8.9-0.7,13.3
				c-31.9-0.6-63.7-0.7-94.8-0.8C404.9,210.6,398.6,210.6,392.3,210.6z"/>
			<path class="st1" d="M323.8,276.3c0,4.6,0.1,9.2,0.3,13.9c-8.6-0.2-439.4-0.5-448-0.7v-29.2c8.6,0.2,439.4,0.4,448,0.6
				C323.9,266.1,323.8,271.1,323.8,276.3z"/>
			<path class="st1" d="M508.9,326.9c1.2-4.7,2-9.5,2.8-14.1c0.9-5.3,1.7-10.7,3.2-15.9l-2.9-0.3c-1.5,5.3-2.4,10.7-3.2,16
				c-0.8,4.7-1.6,9.6-2.8,14.4c-23.2,0.6-46.3,0.9-69.4,1c0.9-11.1,1.4-22.2,1.4-33.3c40,0.9,80.8,1.9,121.3,3.1v27.4
				C542.4,325.9,525.7,326.4,508.9,326.9z"/>
			<path class="st1" d="M471.2,263.1c-0.5,5.2-0.9,10.5-1.2,15.8c-0.3,5-0.7,9.9-1.2,14.8c-14.7-0.3-29.3-0.7-43.7-1
				c-11.4-0.3-22.8-0.5-34.3-0.8v-30c4.7,0.1,9.4,0.1,14,0.2c1.9,0,3.9,0.1,5.9,0.1c0,0,0,0,0,0l3,0.1c0,0,0,0,0-0.1c1,0,2,0,3,0
				c0,0.1,0,0.2,0,0.3l3-0.1c0-0.1,0-0.1,0-0.2C436.6,262.5,453.9,262.8,471.2,263.1z"/>
			<path class="st1" d="M559.2,263.5c-12.7-0.4-25.5-0.8-38.3-1.1c0-1.1-0.1-2.2-0.1-3.3c0-3,0.2-6.2,0.3-9.2c0.2-3,0.3-6.1,0.3-9.1
				h-3c0,3-0.2,6.1-0.3,9.1c-0.2,3-0.3,6.2-0.3,9.3c0,1.1,0.1,2.1,0.1,3.2c-33-0.8-65.9-1.3-98.4-1.8c0-0.2,0-0.3,0-0.5
				c0-4.6,0.8-9.4,1.6-14c0.4-2.1,0.7-4.2,1-6.2c23.9,0.6,48.2,1.1,72.3,1.1c23.5,0,45-0.5,64.9-1.5V263.5z"/>
			<path class="st1" d="M506.7,526c7.4,0,14.4,0,21.2,0c0,6.3,0,12.9-0.4,19.2c-32.6-0.5-63.8-0.8-94-0.8c0-1.9,0-3.7-0.1-5.6
				c-0.1-2.2-0.1-4.4-0.1-6.7c0-2.2,0.1-4.2,0.2-6c8.9,0,17.8,0,26.8-0.1C475.7,526.1,491.2,526,506.7,526z"/>
			<path class="st1" d="M411.2,580.4c31.2,0.1,62.9,0.3,94.8,0.8c0,0.2,0,0.4,0,0.6h3c0-0.2,0-0.4,0-0.5c8.8,0.2,17.5,0.3,26.3,0.6
				c-0.1,0.6-0.1,1.2-0.2,1.7h-86.2c0.2-0.9,0.3-1.7,0.5-2.6l-3-0.2c-0.1,0.9-0.3,1.8-0.5,2.7h-93.4v-3.5
				C372.2,580.3,391.8,580.3,411.2,580.4z"/>
			<path class="st1" d="M485.5,488.4c-1.4,8.9-2.1,18.4-2.1,28.3c0,2.6,0.1,5.1,0.2,7.7c-7.8,0-15.6,0-23.4,0.1
				c-15.5,0.1-31.1,0.1-46.6,0.1c-11.6,0-23.4,0-35.3-0.1c-0.5-6.6-1-12.8-1.5-19c-0.5-6.3-1-12.6-1.5-19.3l-3,0.1
				c0.5,6.7,1,13,1.5,19.3c0.5,6.2,1,12.4,1.5,18.9c-25.1-0.2-473.1-0.7-499.2-1.8v-39.1c27.2,1.1,176,0.4,315.8,1.1
				c121,0.6,235.4,2.6,258.6,3.1C462.1,487.9,473.8,488.2,485.5,488.4z"/>
			<path class="st1" d="M559.2,120.5c-8.9-0.3-17.9-0.5-26.8-0.8c0.2-3.7,0.3-7.4,0.5-11c0.4-7.9,0.9-16.2,0.9-24.3
				c8.8,0.2,17.2,0.4,25.4,0.6V120.5z"/>
			<path class="st1" d="M367.7,84.6c19.7,0,39.8-0.1,59.1-0.3c19.4-0.1,39.4-0.3,59.1-0.3c16.2,0,31,0.1,44.8,0.3
				c0,8.2-0.4,16.4-0.9,24.3c-0.2,3.6-0.4,7.3-0.5,11c-26.5-0.7-52.9-1.2-78.8-1.8c-5.6-0.1-11.1-0.2-16.7-0.3
				c-0.1-3.1-0.2-6.5-0.2-10.3c0-3.8,0.1-7.7,0.1-11.5c0.1-3.8,0.1-7.6,0.1-11.4h-3c0,3.8-0.1,7.5-0.1,11.3
				c-0.1,3.8-0.1,7.7-0.1,11.5c0,3.8,0.1,7.2,0.2,10.2c-30.1-0.6-60.5-1.3-91-2.3c-0.3-2.7-0.5-5.6-0.5-9.1c0-2,0-4,0.1-6
				c0-2,0.1-4,0.1-6c0-3.7-0.2-6.8-0.5-9.6C349.2,84.6,358.8,84.6,367.7,84.6z"/>
			<path class="st1" d="M367.7,452.7c19.7,0,39.8-0.1,59.1-0.3c19.4-0.1,39.4-0.3,59.1-0.3c16.2,0,31,0.1,44.8,0.3
				c0,8.2-0.4,16.4-0.9,24.3c-0.2,3.6-0.4,7.3-0.5,11c-26.5-0.7-52.9-1.2-78.8-1.8c-5.6-0.1-11.1-0.2-16.7-0.3
				c-0.1-3.1-0.2-6.5-0.2-10.3c0-3.8,0.1-7.7,0.1-11.5c0.1-3.8,0.1-7.6,0.1-11.4h-3c0,3.8-0.1,7.5-0.1,11.3
				c-0.1,3.8-0.1,7.7-0.1,11.5c0,3.8,0.1,7.2,0.2,10.2c-30.1-0.6-60.5-1.3-91-2.3c-0.3-2.7-0.5-5.6-0.5-9.1c0-2,0-4,0.1-6
				c0-2,0.1-4,0.1-6c0-3.7-0.2-6.8-0.5-9.6C349.2,452.6,358.8,452.7,367.7,452.7z"/>
			<path class="st1" d="M390.7,562.8c-0.5,5.2-0.9,10.3-1.4,15.8c-24.8-0.1-50-0.3-75.1-0.7c-0.5-5.2-1-10.1-1.5-15
				c-0.5-5-1-9.9-1.5-15.3l-3,0.1c0.5,5.4,1,10.4,1.5,15.3c0.5,4.8,1,9.6,1.4,14.8c-4.3-0.1-430.8-0.2-435.1-0.3v-30
				c30.6-0.7,483.9-1.1,516.1-1.3C391.7,552,391.2,557.4,390.7,562.8z"/>
			<path class="st1" d="M336.8,31.7c0,3.4,0.1,6.8,0.3,10.3c-1.5,0-3.1,0-4.6,0c-11.5,0-445,0.3-456.4,0.8V15.3
				c12.6,0.2,447.4,0.5,460,0.9C336.6,21.4,336.7,26.6,336.8,31.7z"/>
			<path class="st1" d="M545.9,24.7h-2.2c0,6.8,0.5,13.9,0.9,20.7c0.2,3.1,0.4,6.1,0.5,9.1c-34.1-0.7-68.6-3.6-102.2-6.4
				c0,0-0.1,0-0.1,0c-0.1-5.6-0.6-11.2-1-16.6c-0.3-3.8-0.7-7.7-0.9-11.6c8.6,0.4,17.2,0.7,25.8,1.1c0,0.1,0,0.1,0,0.2h3
				c0,0,0,0,0,0c20.5,0.9,40.9,1.9,61.1,2.8C535.8,24.2,540.9,24.5,545.9,24.7z"/>
			<path class="st1" d="M507.5,546.8c0.1,1.3,0.1,2.5,0.1,3.8c0,5.2-0.4,10.5-0.8,15.6c-0.3,4.4-0.6,8.9-0.7,13.3
				c-31.9-0.6-63.7-0.7-94.8-0.8c-6.3,0-12.6,0-18.9-0.1c0.5-5.5,0.9-10.6,1.4-15.8c0.5-5.4,1-10.8,1.5-16.6
				c8.8,0,17.6-0.1,26.6-0.1C449.5,546.2,477.9,546.4,507.5,546.8z"/>
			<path class="st1" d="M466.7,389.1c0,0.1,0,0.1,0,0.2h3c0,0,0,0,0,0c20.5,0.9,40.9,1.9,61.1,2.8c5,0.2,10.1,0.5,15.2,0.7h-2.2
				c0,6.8,0.5,13.9,0.9,20.7c0.2,3.1,0.4,6.1,0.5,9.1c-34.1-0.7-68.6-3.6-102.2-6.4c0,0-0.1,0-0.1,0c-0.1-5.6-0.6-11.2-1-16.6
				c-0.3-3.8-0.7-7.7-0.9-11.6C449.5,388.3,458.1,388.7,466.7,389.1z"/>
			<path class="st1" d="M530.8,158.1c10.1,0,19.4,0.1,28.4,0.2v19.5c-9.7-0.2-19.3-0.3-28.8-0.5C530.8,171,530.8,164.4,530.8,158.1z
				"/>
			<path class="st1" d="M530.8,526.1c10.1,0,19.4,0.1,28.4,0.2v19.5c-9.7-0.2-19.3-0.3-28.8-0.5C530.8,539,530.8,532.5,530.8,526.1z
				"/>
			<path class="st1" d="M559.2-5.4v28.9c-9.4-0.4-18.8-0.9-28.1-1.3c-20.3-0.9-40.7-1.9-61.3-2.8c0.1-4.9,0.7-9.8,1.2-14.6
				c0.5-4,1-8.2,1.2-12.3l-3-0.1c-0.2,4.1-0.7,8.2-1.2,12.3c-0.6,4.8-1.1,9.7-1.2,14.6c-32.7-1.5-65.6-2.8-98.7-3.9
				c1.4-8.6,2.8-17.5,3.7-26.3c51.2,2,102.5,3.4,152.7,4.6C536.1-6,547.6-5.7,559.2-5.4z"/>
			<path class="st1" d="M485.5,120.4c-1.4,8.9-2.1,18.4-2.1,28.3c0,2.6,0.1,5.1,0.2,7.7c-7.8,0-15.6,0-23.4,0.1
				c-15.5,0.1-31.1,0.1-46.6,0.1c-11.6,0-23.4,0-35.3-0.1c-0.5-6.6-1-12.8-1.5-19c-0.5-6.3-1-12.6-1.5-19.3l-3,0.1
				c0.5,6.7,1,13,1.5,19.3c0.5,6.2,1,12.4,1.5,18.9c-25.1-0.2-473.1-0.7-499.2-1.8v-39.1c65.4-1,262.3-0.7,409,0.9
				c80.2,0.8,147.7,3,165.4,3.3C462.1,119.9,473.8,120.1,485.5,120.4z"/>
			<path class="st1" d="M-123.9,412.5c11.4-0.5,444.9-0.8,456.4-0.8c21.6,0,43.6,1.1,66.3,2.7l-2,0.1c0.9,11.7,2.3,23,3.7,34.8
				l0.2,1.5c-10.9,0.1-21.9,0.1-32.8,0.1c-20.3,0-466.3-0.1-491.7-0.9V412.5z"/>
			<path class="st1" d="M346.2-22.5c-0.4,2.9-0.7,5.8-1.1,8.7c-15.6-0.7-453.5-1.5-469-2.4v-21.8h471.7
				C347.5-32.9,346.8-27.7,346.2-22.5z"/>
			<path class="st1" d="M524.7-8c-10.1-0.3-20.3-0.5-30.4-0.8c0.7-4.8,1-9.5,1.3-14.1c0.3-5,0.6-10,1.4-15.2h62.2v30.9
				C547.7-7.4,536.2-7.7,524.7-8z"/>
			<path class="st1" d="M538,583.6c0.1-0.6,0.1-1.1,0.2-1.7c7,0.2,14,0.4,21,0.7v1H538z"/>
			<path class="st1" d="M-123.9,44.5c11.4-0.5,444.9-0.8,456.4-0.8c21.6,0,43.6,1.1,66.3,2.7l-2,0.1c0.9,11.7,2.3,23,3.7,34.8
				l0.2,1.5c-10.9,0.1-21.9,0.1-32.8,0.1c-20.3,0-466.3-0.1-491.7-0.9V44.5z"/>
			<path class="st1" d="M-123.9,327.7c7.9,0.3,438.1,0.5,446.1,0.7c0,8.9,0.5,17.3,0.9,26.3c-8.3-0.4-438.7-0.8-447-1.2V327.7z"/>
			<path class="st1" d="M326.1,354.8c25.7,1.1,51.5,1.9,77.2,2.5c0.3-3.6,0.6-7.1,1-10.6c0.6-5.4,1.3-11,1.3-16.6h3
				c0,5.7-0.7,11.3-1.3,16.8c-0.4,3.4-0.8,7-1,10.5c39.7,1,79.4,1.7,118.4,2.6c11.5,0.3,23,0.6,34.5,0.9V327
				c-3.5,0.1-7,0.3-10.5,0.4c0,1.1,0.1,2.2,0.1,3.3c0,4.3-0.3,8.7-0.6,13c-0.3,4.2-0.6,8.6-0.6,12.9c0,1.2,0,2.5,0.1,3.7l-3,0
				c-0.1-1.2-0.1-2.5-0.1-3.8c0-4.3,0.3-8.7,0.6-13c0.3-4.2,0.6-8.6,0.6-12.9c0-1,0-2.1-0.1-3.1c-12.4,0.4-24.8,0.8-37.3,1.1
				c0,0,0,0.1,0,0.1l-1.2-0.1c-29.2,0.7-58.3,1.1-87.2,1.1c-20.2,0-40.6-0.2-61-0.6l-2.1,0c0,0,0,0,0-0.1
				c-10.6-0.2-21.2-0.4-31.8-0.7C325.1,337.3,325.6,345.8,326.1,354.8z M474.2,358.4l0.2-1.2c1.4-9.2,2.9-18.7,5.3-27.9l2.9,0.3
				c-2.4,9.1-3.8,18.6-5.3,27.8l-0.2,1.2L474.2,358.4z"/>
			<path class="st1" d="M318.6,237.7c-1.4,5.4-1.5,10.9-1.7,16.2c0,1.7-0.1,3.3-0.2,5c-6.2-0.1-434.5-0.3-440.7-0.4v-20.8
				c3.4,0,429.1,0,432.6,0C312,237.6,315.3,237.7,318.6,237.7z"/>
			<path class="st1" d="M548.1,422.6c-0.2-3.1-0.3-6.1-0.5-9.2c-0.4-6.8-0.9-13.8-0.9-20.6c4.2,0.2,8.3,0.4,12.5,0.6v29.4
				C555.5,422.7,551.8,422.6,548.1,422.6z"/>
			<path class="st1" d="M371.7,358.2c10.5,0.3,21,0.6,31.5,0.9c0,0.1,0,0.2,0,0.3l3,0.1c0-0.1,0-0.2,0-0.3c21.1,0.5,42.1,1,63.1,1.4
				c-0.2,4.1-0.7,8.2-1.2,12.2c-0.6,4.8-1.1,9.7-1.2,14.6c-32.7-1.5-65.6-2.8-98.7-3.9C369.4,375.1,370.8,366.6,371.7,358.2z"/>
			<path class="st1" d="M559.2,212.8c-16.7-0.6-33.4-1-50.1-1.3c0.1-4.4,0.4-8.9,0.7-13.3c0.4-5.2,0.8-10.5,0.8-15.7
				c0-1.3,0-2.5-0.1-3.8c15.9,0.2,32.1,0.5,48.7,0.8V212.8z"/>
			<path class="st1" d="M349.5,236.3c-13.6-0.3-27.3-0.4-40.8-0.4c-3.5,0-429.2,0-432.6,0v-24.7c17.1,0.4,456.4,0.6,473.4,0.8V236.3
				z"/>
			<path class="st1" d="M559.2,237.7c-7.5,0.4-15.3,0.7-23.2,0.9c0.8-4.9,1.1-9.9,1.5-14.8c0.2-3.3,0.5-6.6,0.8-9.9
				c7,0.2,14,0.4,21,0.7V237.7z"/>
		</g>
		<g class="st4">
			<path class="st1" d="M223.1,66.5c0.4-7.4,0.8-15.1,2-22.5c30.2-0.1,64.9-0.2,86.7-0.3c-0.5,6.5-1.3,12.9-2.2,19.2
				c-0.9,6.5-1.8,13.2-2.3,19.9c-27.1-0.1-58.6-0.1-85.3-0.3C222.6,77.2,222.9,71.7,223.1,66.5z"/>
			<path class="st1" d="M157.7,114.1c0.3-1.4,0.4-4.2,0.4-9.6c0-2,0-4-0.1-6c0-2-0.1-4-0.1-6c0-3.3,0.2-6,0.4-8.5
				c28.2,0,48.5,0,53.8,0.1c10.1,0,21.2,0.1,32.4,0.1c-0.1,5.7-0.6,11.3-1.2,16.8c-0.4,4.4-0.9,8.9-1.1,13.4
				c-11-0.1-21.7-0.1-31.6-0.2C205.6,114.2,185.6,114.1,157.7,114.1z"/>
			<path class="st1" d="M102.5-14c0.1,0.9,0.1,1.7,0.1,2.6c0,5.1-0.9,10.2-1.9,15.1c-0.6,3.3-1.2,6.7-1.6,10c-10.8,0-22.1,0-33.7,0
				L63,13.5c0,0.1,0,0.1,0,0.2c-18.1,0-36.8,0-55.1,0v-27.8C39.9-14.1,73.4-14.1,102.5-14z"/>
			<path class="st1" d="M209.3,13.9C209.3,13.9,209.3,13.9,209.3,13.9c-4.6,0-9.1,0-13.2,0c0-9.1,0.5-18.3,1.3-27.5
				c23.6,0.4,56.3,0.8,87,1.2c-0.3,2.5-0.4,5.1-0.4,8.1c0,2.3,0.1,4.6,0.1,6.9c0.1,2.3,0.1,4.6,0.1,6.9c0,1.4,0,3.4-0.1,4.9
				c-25.3-0.2-52.1-0.3-74.1-0.5L209.3,13.9z"/>
			<path class="st1" d="M222.5,42.1c0,0,0,0.1,0,0.1c-5,0-9.9,0-14.5,0.1c0.5-4.6,1.3-9.3,2-13.9c0.7-4.2,1.4-8.6,1.9-12.9
				c16.2,0.1,34.7,0.1,52.5,0.2c0,0.7,0.1,1.4,0.1,2.1c0,4.7-0.5,9.7-1,14.4c-0.3,3.3-0.7,6.6-0.9,9.9c-13,0-26.4,0.1-38.9,0.2
				L222.5,42.1z"/>
			<path class="st1" d="M250.3,289.9c-8.5,0-30.9-0.1-60.7-0.1c-0.1-1.9-0.1-3.8-0.1-5.6c0-4.1,0.2-8.3,0.3-12.4
				c0.1-3.8,0.3-7.6,0.3-11.4c1.7,0,2.9,0,3.5,0c22.8,0.1,55.9,0.1,83.1,0.2V290C268.3,289.9,259.3,289.9,250.3,289.9z"/>
			<path class="st1" d="M200.4,223.6c0.3-4,0.7-8,0.9-12.1c22.1,0.1,51,0.2,77.6,0.3c-0.5,7.9-1.4,16.1-4.3,24.1
				c-22.8,0-52.5,0-75.1,0C199.7,231.8,200.1,227.7,200.4,223.6z"/>
			<path class="st1" d="M187.2,326.4c0-0.1,0-0.1,0-0.2l-2.8,0.2c-9.7,0-22.1,0-36.3-0.1c-0.9-12-1.8-22.9-3-34.2
				c25.4,0.1,48.5,0.1,66.8,0.2c0.9,4.1,1.4,8.5,1.4,13.9c0,3.6-0.2,7.2-0.4,10.7c-0.2,3.1-0.3,6.4-0.3,9.6c-2.4,0-4.7,0-6.9-0.1
				C203.3,326.4,196.8,326.4,187.2,326.4z"/>
			<path class="st1" d="M201.8,177.6c-4.3,0-23.5,0-50.7,0c1.7-6.9,2.6-13.9,3.5-20.7c26.1,0.1,44.2,0.1,47.8,0.2
				c9.6,0.1,20.3,0.3,31.7,0.4c0.2,1.6,0.4,3.2,0.4,5.1c0,2.7-0.3,5.5-0.5,8.2c-0.2,2.2-0.4,4.5-0.4,6.8c-5.6,0-11.2,0-16.5,0
				c0,0,0-0.1,0-0.1l-2.8,0.1c0,0,0,0,0,0C209.8,177.6,205.7,177.6,201.8,177.6z"/>
			<path class="st1" d="M177.3,42.5c0-6.1,0.4-12.4,0.9-18.4c0.2-2.9,0.4-5.8,0.5-8.7c3.9,0,6.4,0,7.1,0c6.6,0,14.6,0.1,23.3,0.1
				c-0.5,4.2-1.2,8.5-1.9,12.6c-0.8,4.7-1.6,9.5-2.1,14.2c-6,0-11.6,0.1-16.5,0.1C187.5,42.5,183.5,42.5,177.3,42.5z"/>
			<path class="st1" d="M114.7,82.3l2.8-0.2c-1.4-12.8-1.4-25.5-1.4-37.8c39.2,0,68.2-0.1,71.5-0.1c9.6-0.1,21.6-0.1,34.6-0.2
				c-1.2,7.4-1.6,15-1.9,22.3c-0.3,5.3-0.5,10.7-1.1,16.1l0.7,0.1c-2.4,0-4.7,0-7,0c-10.7-0.1-90.8-0.1-170.2-0.2
				c-0.5-7.3-0.8-14.7-0.8-22.6c0-4.7,0.1-9.8,0.3-15.3c24.9,0,49.4,0,71.1,0C113.3,56.6,113.3,69.4,114.7,82.3z"/>
			<path class="st1" d="M173.9-30.3c0.3,4.7,0.7,9.6,1.5,14.6c-18.5,0-56-0.1-98.3-0.1c0.4-7.3,0.7-14.8,0.8-22.1h95.4
				C173.5-35.5,173.7-32.9,173.9-30.3z"/>
			<path class="st1" d="M24.3,83.9c-0.1,1.4-0.3,3.5-0.4,7.1c-0.4,7.9-1,19.7-1.4,22.9l0,0c-26.1,0-51.4-0.1-73.5-0.1
				c-0.6-4.7-1.5-9.3-2.4-13.8c-1-5.3-2-10.7-2.6-16.2C-32.2,83.9-4.4,83.9,24.3,83.9z"/>
			<path class="st1" d="M117.1,144.6c0-3.5,0.1-6.9,0.1-10.4c0-6.1-0.1-11.7-0.5-18.4c31.8,0,62,0,87.2,0.1
				c-1.4,7.3-1.8,14.9-2.1,22.2c-0.3,5.6-0.6,11.4-1.3,17.2c-6.2,0-23.8-0.1-47.9-0.1l-0.7-0.1l0,0.1c-10.5,0-22.3,0-34.8-0.1
				C117.1,151.6,117.1,148.1,117.1,144.6z"/>
			<path class="st1" d="M148.2,177.6c-22.1,0-49.1,0-77.4,0c0.2-2.9,0.6-6,0.9-8.9c0.5-3.9,1-8,1-11.9c29.1,0,56.7,0.1,78.9,0.1
				C150.8,163.8,149.9,170.8,148.2,177.6z"/>
			<path class="st1" d="M129,179.2c-1.4,4.9-1.6,9.9-1.9,14.8c-0.2,5.1-0.5,10.4-2.1,15.5l0.1,0c-22.2,0-48.5,0-75.5,0v-30.2
				C77.8,179.3,105.3,179.3,129,179.2z"/>
			<path class="st1" d="M178.2,410.4c0-0.9-0.1-2-0.1-2.5c0-3.6,1-7.3,1.9-10.8c0.9-3.6,1.9-7.4,1.9-11.2c0-0.8-0.1-1.6-0.2-2.3
				c16.7,0,28.4,0,32.4,0c16.5,0.1,35.3,0.1,53.1,0.2c0,0.8-0.1,1.7-0.1,2.5c0,2.3,0.1,4.6,0.1,7c0.1,2.3,0.1,4.7,0.1,7
				c0,3.3-0.1,6.9-0.4,9.9c-16.8,0.1-34.7,0.1-50.6,0.2C211.8,410.4,197.9,410.4,178.2,410.4z"/>
			<path class="st1" d="M8.2,256.4c0-0.9-0.1-1.8-0.1-2.7c0-0.3,0.1-1.2,0.3-2.4c0.4-3.1,1.2-8.5,1.3-13.6c27,0,54.9,0,80.5,0
				c0.1,1.7,0.2,3.3,0.4,5c0.3,4.1,0.7,8.3,0.7,12.4c0,1.2,0,2.3-0.1,3.4c-14.3,0-29.3,0-44.5,0l-2.6-0.2c0,0.1,0,0.1,0,0.2
				c-12,0-24,0-35.8,0C8.3,257.8,8.3,257.1,8.2,256.4z"/>
			<path class="st1" d="M6.9,237.6c-0.1,4.9-0.8,10.3-1.3,13.3c-0.2,1.4-0.3,2.4-0.3,2.7c0,0.9,0.1,1.9,0.1,2.8
				c0,0.7,0.1,1.4,0.1,2.1c-25.6,0-50.2,0-70.9,0l2.2-0.2c-0.3-2.6-0.4-5-0.4-7.3l0-3.7c0-2.9-0.1-6.2-0.7-9.6
				C-43.4,237.7-18.8,237.7,6.9,237.6z"/>
			<path class="st1" d="M-10.7,296c0,5.8,0.6,11.6,1.1,17.2c0.4,4.2,0.8,8.6,1,12.9c-14.9,0-29.2,0-42.4-0.1c0,0,0-0.1,0-0.1
				l-0.5,0.1c-10.4,0-20.1,0-28.7,0l1.4,0c-0.4-9.2-0.3-18.8-0.3-28.1l0-6.4c19,0.1,42.7,0.1,68.7,0.2
				C-10.6,293.1-10.7,294.6-10.7,296z"/>
			<path class="st1" d="M-98.3,355.3c17.3,0.1,42,0.1,69.9,0.2c0,3.5-0.3,7-0.5,10.4c-0.3,3.9-0.5,7.9-0.5,11.9c0,1.3,0,2.6,0.1,4
				c-10.8,0-21.1,0-30.6,0c0-0.1,0-0.1,0-0.2l-1.4,0.2c-13,0-24.6,0-34.1,0l1.1-0.3c-1.5-4.8-1.9-9.7-2.3-14.5
				C-97,363.1-97.4,359.2-98.3,355.3z"/>
			<path class="st1" d="M-24.6,179.4v30h2.8v-30c21.9,0,45.4,0,68.7-0.1v30.2c-45.8,0-93.4,0-126.6,0c-0.5-5.4-1.7-10.6-2.8-15.7
				c-1.1-4.7-2.1-9.5-2.6-14.4C-68.5,179.4-47.5,179.4-24.6,179.4z"/>
			<path class="st1" d="M209.4,353.8c-0.1,0-0.2,0-0.4,0c-2.3,0-4.6,0-6.8,0c-2,0-7,0-14.4,0c-0.1-2.5-0.2-5-0.2-7.5l0-7.1
				c0-3.6-0.1-7.4-0.4-11.4c9.6,0,16.2,0,18.7,0c14,0.1,30.1,0.1,45.8,0.2c0.3,2.3,0.5,4.6,0.5,7.1c0,6.7-1.1,13.3-2.2,18.9
				c-13.8-0.1-27.8-0.2-40.3-0.2C209.6,353.8,209.5,353.8,209.4,353.8z"/>
			<path class="st1" d="M-27.8,57.5c-0.2,4.9-0.4,9.9-0.4,14.9c0,3.6,0.1,6.8,0.3,9.9c-9.9,0-19.3,0-28.2,0c0,0,0-0.1,0-0.1
				l-1.4,0.1c-9.9,0-18.9,0-27.1,0l1.1-0.1c-0.4-3-0.9-6.1-1.4-9.1c-1.5-9.2-2.9-17.9-2.9-26.9c0-0.5,0-1.1,0-1.6
				c16.4,0,37.3,0,60.2,0C-27.5,48.8-27.6,53.2-27.8,57.5z"/>
			<path class="st1" d="M-18.3-25.8c0,3.2,0.1,6.5,0.3,9.8c-4.5,0-8.8,0-13.2,0c0.2-3.7,0.7-7.6,1.1-11.5c0.4-3.5,0.8-7.1,1.1-10.6
				h10.2C-18.4-33.9-18.3-29.8-18.3-25.8z"/>
			<path class="st1" d="M-76.9,115.7c14.7,0,32,0,51.1,0.1c-0.6,3-0.8,5.7-0.8,8.9c0,5.5,0.6,11.1,1.3,16.5c0.5,4.4,1,9.1,1.2,13.5
				l2.8-0.1c-0.2-4.5-0.7-9.2-1.2-13.7c-0.6-5.4-1.3-10.9-1.3-16.3c0-3.3,0.3-5.9,0.8-8.9c19.7,0,41.2,0,63.2,0.1
				c-0.2,6.4-0.6,12.8-0.9,19.2c-0.4,6.7-0.7,13.4-0.9,20c-35.6,0-71.1-0.1-99.8-0.1c0,0,0-0.1,0-0.1l-1.8,0.1c-5.6,0-11,0-16,0
				C-77.8,141.4-77.3,128.3-76.9,115.7z"/>
			<path class="st1" d="M220.6,482.3c-3.3,0-10.7,0-21.3-0.1c-0.1-1.2-0.2-2.3-0.2-3.5c0-5.3,0.9-10.7,1.9-15.9
				c0.6-3.5,1.2-7.1,1.6-10.7c8.1,0,13.8,0,16.5,0c19.6,0.1,41.8,0.1,61.6,0.2c-0.2,3.7-0.6,7.5-0.9,11.1c-0.6,5.4-1.1,11-1.1,16.5
				c0,0.9,0,1.8,0.1,2.7C259.9,482.5,239.2,482.4,220.6,482.3z"/>
			<path class="st1" d="M184.5,327.9c0.3,3.9,0.4,7.8,0.4,11.4l0,7.1c0,2.5,0,5,0.2,7.5c-15.3,0-39.1-0.1-67-0.1
				c0.2-2.9,0.4-5.7,0.6-8.6c0.4-4.8,0.8-9.7,0.8-14.6c0-0.9,0-1.8-0.1-2.7C145.8,327.8,168.7,327.9,184.5,327.9z"/>
			<path class="st1" d="M-54.9,410.1c-2-5.9-2.8-12.1-3.5-18c-0.3-2.9-0.7-5.8-1.2-8.8c24.1,0,52.9,0,82.6,0
				c0.3,1.8,0.5,3.7,0.5,5.8c0,3.6-0.5,7.3-1,10.8c-0.5,3.5-1,7-1,10.6c-28.1,0-55.3,0.1-78.4,0.1L-54.9,410.1z"/>
			<path class="st1" d="M289.9,374.3c0.9-4,1.8-8.1,1.8-12.3c0-1.8-0.2-3.4-0.6-5c3.4,0,6.7,0.1,10,0.1c0,0.5,0,1,0,1.5
				c0,1,0.1,2,0.1,3.1c0,1-0.2,2.9-0.5,5.3c-0.4,4.3-1.1,10.1-1.1,15.6c-3.7,0-7.4-0.1-11.2-0.1C288.8,379.8,289.4,377,289.9,374.3z
				"/>
			<path class="st1" d="M193.3,545.6l0.1-1.4c0.4-6.2,0.8-12.6,0.8-18.9c14.5,0,24.6,0.1,28.3,0.1c15,0.2,31.6,0.3,48.6,0.4
				c0.2,1,0.3,2,0.3,3.1c0,3-0.6,6.2-1.2,9.2c-0.4,2.4-0.9,4.9-1.1,7.3c-8.9,0-18.2,0-27.4,0.1c0,0,0,0,0-0.1l-2.8-0.5
				c-0.1,0.2-0.1,0.4-0.1,0.6c-6.9,0-13.6,0-20.1,0.1C215.1,545.6,206.1,545.6,193.3,545.6z"/>
			<path class="st1" d="M-79.7,532.1c0,4.1,0.3,8.6,0.9,13.7c-26.8,0-44.3,0-45.1,0.1v-21.4c2.4,0.1,19.3,0.2,44.6,0.3
				C-79.6,527-79.7,529.5-79.7,532.1z"/>
			<path class="st1" d="M-89,454.3c0,3.4-0.2,6.9-0.4,10.2c-0.2,3.4-0.4,6.8-0.4,10.3c0,2.4,0.1,4.6,0.3,6.6l2.8-0.2
				c-0.2-2-0.3-4.1-0.3-6.4c0-3.4,0.2-6.9,0.4-10.2c0.2-3.4,0.4-6.9,0.4-10.4c0-0.8,0-1.6-0.1-2.5c16.8,0,38.1,0,61.6,0.1
				c-0.1,1.9-0.1,3.7-0.1,5.6c0,4.3,0.2,8.6,0.3,12.9c0.1,3.8,0.2,7.6,0.3,11.5c-55.1-0.1-98-0.1-99.8-0.2v-29.9
				c0.9,0,14.1,0.1,34.9,0.1C-89,452.7-89,453.5-89,454.3z"/>
			<path class="st1" d="M-52.2,338.8c0,1.9-0.1,3.9-0.1,5.8c-0.1,1.9-0.1,3.9-0.1,5.8c0,1.1,0,2.1,0.1,3.1
				c-41.1,0-70.8-0.1-71.5-0.1v-25.8c0.8,0,29.9,0.1,70.5,0.1C-52.4,331.8-52.2,335.7-52.2,338.8z"/>
			<path class="st1" d="M-54.8,556.6c-0.3,3.6-0.5,7.3-0.5,11c0,3.6,0.3,6.9,0.9,9.9c-40.4,0-69,0-69.5,0v-30
				c2.6-0.1,30.6-0.1,69.6-0.2C-54.4,550.5-54.6,553.6-54.8,556.6z"/>
			<path class="st1" d="M-99.5,367.1c0.4,4.7,0.9,9.7,2.3,14.5c-15.7,0-25.7,0-26.8-0.1v-26.4c0.9,0,9.3,0.1,22.8,0.1
				C-100.2,359.2-99.8,363.2-99.5,367.1z"/>
			<path class="st1" d="M-43.9,449.9h2.8c0-12.4,0-25.1,0.9-37.5c17,0,35.5,0,54.6-0.1c0,1.8-0.1,3.6-0.1,5.4c0,9.5,0.6,19.6,2,32.6
				c-72.3-0.1-136.8-0.2-140.3-0.3v-37.5c1.3-0.1,35.1-0.1,80.9-0.2C-43.9,424.8-43.9,437.5-43.9,449.9z"/>
			<path class="st1" d="M-96.8,493.7c1.3,9.6,2.6,19.6,6.6,29.1c-19.5-0.1-32.1-0.1-33.6-0.2v-39.1c1.9,0.1,11.2,0.2,25.6,0.2
				C-97.7,487-97.3,490.4-96.8,493.7z"/>
			<path class="st1" d="M-41.5,26.7c0.1,5.2,0.1,10.5,0.9,15.9c-46.9,0-82.5,0.1-83.3,0.1V15.3c0.8,0,35.8,0,82,0
				C-41.6,19.2-41.5,23-41.5,26.7z"/>
			<path class="st1" d="M-98.7,95.6c0.6,5.2,1.2,10.5,1.2,15.7c0,0.8,0,1.7-0.1,2.5c-15.8,0-25.7-0.1-26.4-0.1V83.8
				c0.7,0,9.6,0,24.1,0.1C-99.6,87.8-99.2,91.7-98.7,95.6z"/>
			<path class="st1" d="M-89.8,4.8c0,3,0.1,5.9,0.2,8.8c-20.5,0-33.6,0-34.4,0v-28c0.8,0,14.1,0.1,34.7,0.1
				C-89.5-8.3-89.8-1.7-89.8,4.8z"/>
			<path class="st1" d="M-64,158.3c0,1.9-0.1,3.8-0.1,5.7c-0.1,1.9-0.1,3.9-0.1,5.8c0,3.1,0.2,5.6,0.6,8c-35.1,0-59.4,0-60.2,0.1
				v-21.4c2.1,0.1,25.9,0.2,59.8,0.2C-64.1,157.2-64,157.7-64,158.3z"/>
			<path class="st1" d="M-24.3,268.7c-0.4,5.3-0.8,10.8-0.8,16.2c0,1.4,0,2.8,0.1,4.2l2.8-0.1c-0.1-1.4-0.1-2.8-0.1-4.2
				c0-5.3,0.4-10.8,0.8-16.1c0.2-2.9,0.4-5.8,0.6-8.6c20.7,0,42.9,0,64.9,0c-0.3,4-0.4,8.3-0.4,13.7c0,2.6,0,5.2,0.1,7.8
				c0,2.6,0.1,5.2,0.1,7.8h2.8c0-2.6,0-5.2-0.1-7.8c0-2.6-0.1-5.2-0.1-7.8c0-5.5,0.1-9.8,0.4-13.7c27.3,0,54.2,0,77.3,0
				c0,1-0.1,2-0.1,3c0,2.9,0.1,5.7,0.2,8.5c0.1,2.8,0.2,5.6,0.2,8.4c0,3.6-0.2,6.6-0.5,9.5c-108.2-0.1-245-0.2-247.8-0.3v-29.2
				c0.8,0,45,0,100.2,0.1C-23.9,263.1-24.1,265.9-24.3,268.7z"/>
			<path class="st1" d="M-92.7,214.5c0,4.6,1.1,9.3,2.1,13.8c0.6,2.4,1.1,4.8,1.5,7.1l2.8-0.3c-0.4-2.4-1-4.9-1.5-7.3
				c-1-4.4-2.1-8.9-2.1-13.3c0-1.1,0.1-2.2,0.3-3.2c13.5,0,30.3,0,48.8,0c0.8,4.1,1.4,8.2,1.9,12.2c0.5,4,1.1,8.2,1.9,12.4
				c-9.7,0-19,0-27.6,0c0,0,0,0,0,0l-0.2,0c-34.8,0-58.9,0-59.1,0v-24.7c0.6,0,12.6,0,31.5,0C-92.6,212.3-92.7,213.3-92.7,214.5z"/>
			<path class="st1" d="M98.5,410.5l0.1-2.3c0.2-4.3,0.5-9.1,0.5-12.9c0-4.4-0.3-8.3-0.8-11.9c31,0,59.4,0,80.5,0.1
				c0.1,0.8,0.2,1.5,0.2,2.3c0,3.6-0.9,7-1.9,10.7c-1,3.7-1.9,7.4-1.9,11.3c0,0.5,0,1.6,0.1,2.5C154.5,410.4,127.6,410.5,98.5,410.5
				z"/>
			<path class="st1" d="M118.5,452c0,3.2-0.1,6.5-0.3,9.8c-0.2,3.5-0.3,7.1-0.3,10.7c0,3.6,0.2,6.7,0.5,9.6
				c-22.4,0-46.6-0.1-70.9-0.1c-1.3-9.6-2.7-20.4-2.9-30C69.9,452,95.2,452,118.5,452z"/>
			<path class="st1" d="M51.9,366.9l0,2.5c0,4.1,0.1,8.2,0.7,12.4c-27.9,0-56.1,0-81.5-0.1l2.4-0.1c-0.1-1.3-0.1-2.6-0.1-3.9
				c0-3.9,0.3-7.9,0.5-11.7c0.2-3.4,0.4-7,0.5-10.5c24.2,0,50.7,0.1,76.9,0.1C51.8,359.4,51.9,363.1,51.9,366.9z"/>
			<path class="st1" d="M32,484.2c1.5,15.5,6.1,37.9,6.2,38.1c0,0.2,0,0.5-0.1,0.8c-25.4,0-50.4-0.1-72.9-0.1
				c0.3-4.7,0.9-9.4,1.4-14c0.9-7.6,1.8-15.4,1.8-23.1c0-0.6,0-1.2,0-1.9C-11.8,484,9.9,484.1,32,484.2z"/>
			<path class="st1" d="M-87.5,522.5c-4-9.4-5.3-19.4-6.6-29c-0.4-3.2-0.9-6.5-1.4-9.7c15.8,0.1,37,0.2,61,0.2c0,0.6,0,1.2,0,1.9
				c0,7.6-0.9,15.4-1.8,22.9c-0.5,4.7-1.1,9.5-1.4,14.2c-19.4,0-36.9-0.1-51-0.1L-87.5,522.5z"/>
			<path class="st1" d="M61.2,529.7c0,2.1,0.1,4.3,0.2,6.4c0.1,2.1,0.2,4.2,0.2,6.3c0,1.1,0,2.1-0.1,3.2l2.8,0.1
				c-26,0-52.5,0-77.1,0c0.5-3.6,1.3-7.2,2-10.6c0.7-3.3,1.5-6.8,2-10.2c22.5,0.1,46.5,0.1,70.2,0.2C61.3,526.4,61.2,528,61.2,529.7
				z"/>
			<path class="st1" d="M167,450.5c0.1-2.1,0.1-4.2,0.2-6.3c0.3-10.8,0.7-21.9,2.4-32c24.1,0,41.3-0.1,46.4-0.1
				c7.5,0,15.4-0.1,23.4-0.1c0,12.6,0,25.6-1.8,38.7c-6.5,0-12.9-0.1-19-0.1C213.2,450.5,193.9,450.5,167,450.5z"/>
			<path class="st1" d="M102.1,523.2c0.4-4.7,1.2-9.4,2-13.9c1.1-6,2.3-12.3,2.3-18.5c0-2.3-0.2-4.4-0.5-6.4
				c18.4,0.1,35.8,0.1,51.3,0.2c-0.1,0.9-0.1,2-0.1,3.5c0,4.6-0.2,9.3-0.4,13.8c-0.2,4.5-0.4,9.2-0.4,13.9c0,2.7,0.1,5.2,0.2,7.6
				C140.1,523.3,121.6,523.2,102.1,523.2z"/>
			<path class="st1" d="M145.3,326.3c-22.9,0-50.2-0.1-78.5-0.1c0.1-1,0.1-2.6,0.1-5.1c0-2.9-0.1-5.9-0.1-8.8
				c-0.1-2.9-0.1-5.8-0.1-8.8c0-4.5,0.2-8.2,0.5-11.6c25.7,0.1,51.4,0.1,75.1,0.2C143.5,303.4,144.3,314.3,145.3,326.3z"/>
			<path class="st1" d="M94.1,255.1c0-4.2-0.3-8.5-0.7-12.6c-0.1-1.6-0.3-3.3-0.4-4.9c30.7,0,57.8,0,75.6,0
				c-1.5,9.9-2.5,20.7-2.5,20.8l1.4,0.1c-18.2,0-44.4,0-73.7,0C94.1,257.4,94.1,256.3,94.1,255.1z"/>
			<path class="st1" d="M62.8,15.4c-0.2,1.7-0.3,3.3-0.5,5c-0.8,7.3-1.6,14.9-1.6,22.2c-33.1,0-68,0-98.4,0.1
				c-0.7-5.4-0.8-10.7-0.9-16c0-3.7-0.1-7.5-0.4-11.4C-7.7,15.4,28.6,15.4,62.8,15.4z"/>
		</g>
	</g>
	<path class="st1" d="M474.4,358.4l3,0.2l0.2-1.2c1.4-9.1,2.9-18.6,5.2-27.8l-2.9-0.3c-2.4,9.2-3.8,18.7-5.3,27.9L474.4,358.4z"/>
</g>
<path class="st5" d="M639.2,618.4H-41.9V145.2c0,0,21.4,330.3,340.5,330.3s340.6-330.3,340.6-330.3V618.4z"/>
<g>
	<path class="st6" d="M209.4,786.8c1.7-19.3,1.9-31.1,1.9-31.1l13.2-226.5L240,786.8h25.6l8.4-250.5c0,0,0.4-12.4,1.2-33.1v-48.8
		H174.1v48.8c0.7,20.7,1.2,33.1,1.2,33.1l8.4,250.5H209.4z"/>
	<g>
		<g>
			<g>
				<g>
					<path class="st7" d="M292,485c0,0-5.5,7.9-5.6,8.4c-0.1,0.6,1.1,18.6,5.1,18.7c4,0,5.4-21.4,3.8-22.8
						C293.6,487.8,292.7,485.3,292,485z"/>
					<g>
						<path class="st7" d="M315.2,480.6c2.4,6.5-0.2,30.8-1.2,35.8c-0.6,2.8-3,3.1-4.8,3.1c-6.1,0.1-11.5,4.9-14.5,2.8
							c-0.8-0.6-4.6-1.3-4.2-4.9c0.9-8.1,1.6-19.3,1.5-32.3C295.7,473.6,312.6,476.1,315.2,480.6z"/>
					</g>
				</g>
				<path class="st7" d="M302.5,358.3c0,0,1.4,8,2.5,11.1c1.1,3.2,4.6,18.1,5.1,22.5c0.5,4.4,7.6,86.6,3.7,93
					c-3.9,6.4-17.5,4.4-19.2,0.6c-1.7-3.8-10.9-69.8-11.4-74.2c-0.5-4.4-4.9-39.6-6.8-43.5C274.6,364.1,301.3,354,302.5,358.3z"/>
				<g>
					<path class="st8" d="M263.4,271.5c34.5-4.8,49.2,72.9,50,126.2c0.1,3.4-31.9,11.2-32.6,4.1c-2.8-30.6-10.5-79.4-16.6-96.8
						C261.7,297.9,259.3,272,263.4,271.5z"/>
				</g>
				<g class="st3">
					<path class="st9" d="M269.5,271.5c24.6,13.9,34.1,95.1,34.7,117.3c0.1,2.3-14.3,6.6-24,6.9c0.4,1.8,0.7,3.7,1.1,5.7
						c1.2,7,32.7-0.7,32.6-4.1C313.1,371,305.6,279.6,269.5,271.5z"/>
				</g>
			</g>
			<g>
				<path class="st8" d="M278.8,401.1l0.5,4.9c0.3,3.2,2.7,5.2,5.4,4.6l6.1-1.4l21.6-4.8c2.6-0.6,4.5-3.4,4.5-6.4l0-7.5
					c0-3.6-2.8-6.1-5.8-5.2l-26,8.1l-2.1,0.7C280.3,394.9,278.5,398,278.8,401.1z"/>
				<path class="st10" d="M285.1,393.4c0,0,13.8-4.7,14.7,3.3c0.6,5.4-3.8,9.5-8.9,12.5l21.6-4.8c2.6-0.6,4.5-3.4,4.5-6.4l0-7.5
					c0-3.6-2.8-6.1-5.8-5.2L285.1,393.4z"/>
			</g>
		</g>
		<g>
			<g>
				<g>
					<path class="st7" d="M151.7,494.3c0,0,5.7,7.7,5.8,8.3c0.1,0.6-0.6,18.7-4.6,18.8c-4,0.1-5.9-21.2-4.3-22.7
						C150.2,497.1,151,494.6,151.7,494.3z"/>
					<g>
						<path class="st7" d="M128.5,490.5c-2.3,6.5,0.9,30.8,2,35.7c0.6,2.7,3.1,3,4.9,3c6.1-0.1,11.6,4.6,14.6,2.4
							c0.8-0.6,4.6-1.4,4-5c-1.1-8.1-2.1-19.2-2.2-32.2C147.8,483,130.9,486,128.5,490.5z"/>
					</g>
				</g>
				<path class="st7" d="M138.3,367.9c0,0-1.2,8-2.3,11.2c-1,3.2-4.1,18.3-4.6,22.6c-0.4,4.4-5.6,86.8-1.5,93.1
					c4,6.3,17.6,4,19.2,0.1c1.6-3.9,9.2-70.1,9.6-74.5c0.4-4.4,4-39.8,5.8-43.6C166.3,373,139.4,363.6,138.3,367.9z"/>
				<path class="st11" d="M128.9,489.9c-1.9-19.2,2.2-84.3,2.6-88.2c0.4-4.4,3.5-19.4,4.6-22.6c1-3.2,2.3-11.2,2.3-11.2
					c0.3-1.3,2.8-1.3,6.2-0.8c-0.3,1.2-0.5,2.2-0.8,3c-1,3.2-4.1,18.3-4.6,22.6c-0.4,3.9-4.4,68.9-2.6,88.2
					c-0.2,0.2-0.3,0.4-0.4,0.6c-2.3,6.5,0.9,30.8,2,35.7c0.6,2.7,3.1,3,4.9,3c3.9-0.1,7.6,1.9,10.5,2.7c0.2,1.3,0.3,2.5,0.5,3.7
					c0.5,3.6-3.2,4.4-4,5c-3,2.3-8.5-2.5-14.6-2.4c-1.8,0-4.2-0.3-4.9-3c-1.2-5-4.3-29.2-2-35.7
					C128.6,490.3,128.7,490.1,128.9,489.9z"/>
				<g>
					<path class="st8" d="M179.7,275c-34.5-4.8-49.2,72.9-50,126.2c-0.1,3.4,31.9,11.2,32.6,4.1c2.8-30.6,10.5-79.4,16.6-96.8
						C181.3,301.4,183.7,275.5,179.7,275z"/>
				</g>
				<g class="st3">
					<path class="st9" d="M173.5,275c-24.6,13.9-34.1,95.1-34.7,117.3c-0.1,2.3,14.3,6.6,24,6.9c-0.4,1.8-0.7,3.7-1.1,5.7
						c-1.2,7-32.7-0.7-32.6-4.1C129.9,374.6,137.4,283.2,173.5,275z"/>
				</g>
			</g>
			<g>
				<path class="st8" d="M164.1,408.4l0.8-4.9c0.5-3.1-1.3-5.8-4.1-6l-6.2-0.4l-22-1.8c-2.6-0.2-5.2,1.9-6,4.9l-1.9,7.2
					c-0.9,3.5,1.1,6.7,4.3,6.7l27.1-0.1l2.2,0C161,413.9,163.6,411.4,164.1,408.4z"/>
				<path class="st10" d="M156,413.9c0,0-14.5,0.4-13.2-7.5c0.8-5.3,6.1-8,11.8-9.3l-22-1.8c-2.6-0.2-5.2,1.9-6,4.9l-1.9,7.2
					c-0.9,3.5,1.1,6.7,4.3,6.7L156,413.9z"/>
			</g>
		</g>
		<g>
			<path class="st12" d="M266.1,267.6c12.8,11.2,11.7,154.6,13.2,204.6c0,1.5-0.7,2.8-1.4,3.6c-0.5,0.6-1.1,0.9-1.7,1.2
				c-5.4,2.7-24.2,9.8-50.4,10.8c-50.9,2-54.7-20.8-54.9-27.7c-0.8-40.7-3.5-105.9-1.3-154.2c0.8-17.5,5.1-34.2,15.3-38.9
				S255.9,258.8,266.1,267.6z"/>
		</g>
		<g>
			<path class="st7" d="M238.7,268.7c0,0-2.3,8.4-6.1,15c-4.1,7-14,18.5-14,18.5s-7.8-9.2-12.6-18.8c-4.2-8.4-5.5-17.1-4.6-18.1
				c2-2.1,9.7-1.7,7.2-19.9c0,0,9.1,4.5,28.6,1.2c0,0-1,3-1.5,7.1C235.2,258.5,235.3,264.6,238.7,268.7z"/>
			<path class="st13" d="M208.5,258c0,0-16.5-1.7-20.1,16.2c-2.4,12.2,3.7,24.1,10.7,35.1c0,0,2-12.3,15.5-13.1
				c0,0-5.8-9.7-8.9-16.9c-3.7-8.7-5-13.6-5-13.6S207.2,263.1,208.5,258z"/>
			<path class="st13" d="M242.4,308.5c0,0-12.9-17.2-18.1-13.9c4.9-6.3,7.9-9.8,10.1-13.9c3.9-7.1,4.5-12.1,4.5-12.1
				c-4.2-4.1-4.2-11.1-4.2-11.1s0.1,0,0.1,0c15.7,1.3,18.4,10.1,18.4,10.1C257.6,284.7,242.4,308.5,242.4,308.5z"/>
			<path class="st11" d="M235.8,253.7c0,0-11.3,0.9-18.1,3.1c0,0,0.6,4.6-4.3,11.8c-4.8,6.9-1.7,24.4,14.6,19.9
				c-4.1,7-9.2,13.9-9.2,13.9s-6.4-9.3-11.2-18.9c-4.2-8.3-7-17.1-6.1-18.1c2-2.1,9.7-1.7,7.2-19.9c0,0,9.1,4.5,28.6,1.2
				C237.3,246.7,236.3,249.7,235.8,253.7z"/>
		</g>
		<g class="st3">
			<path class="st9" d="M218.8,302.5c3.1,37.9,2.3,111.3,1.4,161.4"/>
		</g>
		<g class="st3">
			<path class="st9" d="M228.3,316.1c0.2,0.7-0.1,2.9-1.9,3c-2.2,0.1-2.7-1.9-2.2-3.3C224.7,314.2,227.6,313.9,228.3,316.1z"/>
		</g>
		<g class="st3">
			<path class="st9" d="M228.2,342.6c0.2,0.7-0.1,2.9-1.9,3c-2.2,0.1-2.7-1.9-2.2-3.3C224.5,340.8,227.4,340.4,228.2,342.6z"/>
		</g>
		<g class="st3">
			<path class="st9" d="M228.2,369.2c0.2,0.7-0.1,2.9-1.9,3c-2.2,0.1-2.7-1.9-2.2-3.3C224.5,367.3,227.4,366.9,228.2,369.2z"/>
		</g>
		<g class="st3">
			<path class="st9" d="M228.2,395.7c0.2,0.7-0.1,2.9-1.9,3c-2.2,0.1-2.7-1.9-2.2-3.3C224.5,393.8,227.4,393.4,228.2,395.7z"/>
		</g>
		<g class="st3">
			<path class="st9" d="M228.2,422.2c0.2,0.7-0.1,2.9-1.9,3c-2.2,0.1-2.7-1.9-2.2-3.3C224.5,420.3,227.4,419.9,228.2,422.2z"/>
		</g>
		<g class="st3">
			<path class="st9" d="M228.2,448.7c0.2,0.7-0.1,2.9-1.9,3c-2.2,0.1-2.7-1.9-2.2-3.3C224.5,446.8,227.4,446.4,228.2,448.7z"/>
		</g>
	</g>
	<g>
		<g>
			<g>
				<path class="st7" d="M265.7,200.5c-1,7.7,2.1,14.4,6.9,15.1c4.8,0.6,9.6-5.1,10.6-12.8c1-7.7-2.1-14.4-6.9-15.1
					C271.4,187,266.7,192.8,265.7,200.5z"/>
				<path class="st14" d="M271.6,198.2c0,0-0.5-0.8,2.6-1.1c0,0,3.6,0.5,1.7,4.3c-0.4,0.8-0.7,1.7-0.9,2.6c-0.2,1.3,0.4,3-0.3,4.2
					c-1,1.5-3.8,0.7-4.1-1c-0.2-1.3,1.3-3.5,2-4.4C272.6,202.8,274.7,199.9,271.6,198.2z"/>
			</g>
			<g>
				<path class="st7" d="M180.2,200.5c1,7.7-2.1,14.4-6.9,15.1c-4.8,0.6-9.6-5.1-10.6-12.8c-1-7.7,2.1-14.4,6.9-15.1
					C174.4,187,179.1,192.8,180.2,200.5z"/>
				<path class="st14" d="M174.2,198.2c0,0,0.5-0.8-2.6-1.1c0,0-3.6,0.5-1.7,4.3c0.4,0.8,0.7,1.7,0.9,2.6c0.2,1.3-0.4,3,0.3,4.2
					c1,1.5,3.8,0.7,4.1-1c0.2-1.3-1.3-3.5-2-4.4C173.2,202.8,171.1,199.9,174.2,198.2z"/>
			</g>
		</g>
		<path class="st7" d="M223.1,113.4L223.1,113.4c0,0-0.1,0-0.2,0c-0.1,0-0.1,0-0.2,0v0c-11.6,0.6-62,7.9-50,85.6l3,32.5
			c0,0,2.6,7.3,11.6,14.2c0,0,15.6,13.1,28.7,18.9c0,0,2.9,0.8,6.7,2.2v0.1c0.1,0,0.1,0,0.2-0.1c0.1,0,0.1,0,0.2,0.1V267
			c3.9-1.4,6.7-2.2,6.7-2.2c13.1-5.8,28.7-18.9,28.7-18.9c9.1-6.9,9.5-14.2,9.5-14.2l5.1-32.5C285.1,121.3,234.6,114,223.1,113.4z"
			/>
		<path class="st15" d="M261.7,102.7c0,0,17.5,9.5,19.9,30.8c1.7,15.6-4.4,54.5-4.4,54.5c-4.7-0.8-3.6,9.2-3.6,9.2l-2-0.2
			c-0.3-24.3-11.6-38.2-11.6-38.2c6.2-8.1-3.3-22.3-3.3-22.3c-29.4,10.9-67.5-0.2-67.5-0.2s-22.2-27-5.1-41.6
			c0,0,17.2-19.2,65.1-12.9C249.2,81.8,235.7,96.5,261.7,102.7z"/>
		<path class="st15" d="M189.4,136.1c0,0-9.2,12.8-6.9,22.7c0,0-12.4,10-8.5,38.2l-1.9,0c0,0,0.6-10.9-5.4-8.2
			c0,0-6.3-35.2,3.9-57.7c0,0,5.2-13.3,20.1-18.9C190.8,112.3,185.6,130.7,189.4,136.1z"/>
		<path class="st15" d="M235.7,168.1H257c0,0,6.7-5.1-0.9-6.5h-20.4c0,0-1.6-0.3-2.1,1v4.7C233.6,167.3,233.9,168.3,235.7,168.1z"/>
		<path class="st15" d="M208.2,168.1H189c0,0-6-5.1,0.8-6.5h18.4c0,0,1.5-0.3,1.9,1v4.7C210.1,167.3,209.9,168.3,208.2,168.1z"/>
		<path class="st14" d="M220.7,176.1c-4.3,13.7-10.2,31.7-10.2,34.3c0,2.6,12.8,5.8,15.1,4.9c2.3-0.9-2.7-39.2-2.7-39.2H220.7z"/>
		<path class="st7" d="M222.9,174.8c-4.3,13.7-10.2,31.7-10.2,34.3c0,2.6,12.8,5.8,15.1,4.9c2.3-0.9-2.7-39.2-2.7-39.2H222.9z"/>
		<g>
			<path class="st16" d="M209.8,185c0.2-5.7-0.7-12.6-9.4-14.9c-8.9-2.3-12.9,5.6-12.8,8.5s2.5,7.2,7.4,7.8c4.9,0.5,9.2,0.1,11,0.3
				C207.7,186.9,209.7,186.2,209.8,185z"/>
			
				<ellipse transform="matrix(4.801691e-02 -0.9988 0.9988 4.801691e-02 12.1066 368.713)" class="st17" cx="199.5" cy="178" rx="7.3" ry="7.3"/>
			<path class="st16" d="M205.7,175.4c-0.1,1.8-1.6,3.3-3.4,3.2c-1.8-0.1-3.3-1.6-3.2-3.4c0.1-1.8,1.6-3.3,3.4-3.2
				C204.3,172,205.8,173.5,205.7,175.4z"/>
			<path class="st16" d="M232.5,185.7c0.3-5.7,1.4-12.5,10.4-14.3c8.9-1.8,12.6,6.3,12.2,9.3s-3,7-7.9,7.3c-4.9,0.2-9.2-0.6-11-0.3
				C234.5,187.7,232.4,186.9,232.5,185.7z"/>
			<path class="st17" d="M236.3,178.7c-0.1,4.1,3,7.4,7.1,7.5c4.1,0.1,7.4-3,7.5-7.1c0.1-4.1-3-7.4-7.1-7.5
				C239.7,171.5,236.5,174.6,236.3,178.7z"/>
			<path class="st16" d="M243.1,176c-0.1,1.8,1.4,3.4,3.2,3.4c1.8,0.1,3.4-1.4,3.4-3.2c0.1-1.8-1.4-3.4-3.2-3.4
				C244.7,172.8,243.2,174.2,243.1,176z"/>
		</g>
		<g>
			<path class="st18" d="M203.3,234.4l35.3-3.6c0,0-2.9,20.3-15.5,21.5C207.5,253.8,203.3,234.4,203.3,234.4z"/>
			<path class="st16" d="M208.9,234.6l2.7,4c0,0,2.6,4.7,9.9,3.1c7.3-1.5,12.8-6.8,12.8-6.8l0.7-3L208.9,234.6z"/>
		</g>
	</g>
</g>
<g>
	<circle class="st19" cx="223.8" cy="202" r="139.9"/>
	<path class="st20" d="M385.7,335.6l-28.6,28.5l-23.3-23.3c10.5-8.2,20.4-18.1,28.6-28.5L385.7,335.6z"/>
	<circle class="st21" cx="223.8" cy="202" r="139.9"/>
	<path class="st22" d="M391.6,329.2l-40.8,40.8c-4.7,4.7-4.7,12.2,0,16.9l115.9,116.1c4.7,4.7,12.2,4.7,16.9,0l40.8-40.8
		c4.7-4.7,4.7-12.2,0-16.9L408.5,329.2C403.8,324.5,396.2,324.5,391.6,329.2z"/>
	
		<ellipse transform="matrix(0.7075 -0.7067 0.7067 0.7075 -49.3887 150.6416)" class="st23" cx="157.3" cy="135" rx="41.4" ry="20.4"/>
	<path class="st22" d="M223.9,24.8C126,24.8,46.7,104.1,46.6,201.9c-0.1,97.9,79.2,177.2,177.1,177.3
		c97.9,0.1,177.2-79.2,177.3-177.1C401,104.3,321.7,24.9,223.9,24.8z M223.7,341.9c-77.3,0-139.9-62.7-139.8-140
		c0-77.3,62.7-139.9,140-139.8c77.3,0,139.9,62.7,139.8,140C363.6,279.4,301,341.9,223.7,341.9z"/>
</g>
</svg>
