<?xml version="1.0" encoding="utf-8"?>
<!-- Generator: Adobe Illustrator 24.0.3, SVG Export Plug-In . SVG Version: 6.00 Build 0)  -->
<svg version="1.1" id="Layer_1" xmlns="http://www.w3.org/2000/svg" xmlns:xlink="http://www.w3.org/1999/xlink" x="0px" y="0px"
	 width="480px" height="600px" viewBox="0 0 480 600" style="enable-background:new 0 0 480 600;" xml:space="preserve">
<style type="text/css">
	.st0{fill:#AA5B2D;}
	.st1{fill:#A4CDA8;}
	.st2{opacity:0.5;fill:#BC5642;}
	.st3{fill:#FFFAE3;}
	.st4{fill:#72CDD6;}
	.st5{fill:#B9EFFC;}
	.st6{fill:#9EE4EF;}
	.st7{opacity:0.3;fill:#A5FFE8;}
	.st8{fill:#767284;}
	.st9{fill:#33323D;}
	.st10{fill:#2E2D38;}
	.st11{fill:#195C93;}
	.st12{fill:#2176BB;}
	.st13{opacity:0.1;fill:#674399;}
	.st14{fill:#FFF5F3;}
	.st15{fill:#E5C2B5;}
	.st16{fill:#CEAFA5;}
	.st17{fill:#9E4E21;}
	.st18{fill:#C47C42;}
	.st19{fill:#A85425;}
	.st20{fill:#99451F;}
	.st21{fill:#AF5F2C;}
	.st22{fill:#D38B51;}
	.st23{fill:#B76334;}
	.st24{fill:#F49F44;}
	.st25{fill:#FFB476;}
	.st26{fill:#6A799E;}
	.st27{fill:#3D3D5B;}
	.st28{fill:#E0C3C1;}
	.st29{fill:#F4E6E1;}
	.st30{fill:#8091BF;}
	.st31{fill:#1788E2;}
	.st32{fill:#D1652F;}
	.st33{fill:#3A1B0B;}
	.st34{fill:#AA4805;}
	.st35{fill:#BA5604;}
	.st36{fill:#ED9558;}
	.st37{fill:#D87239;}
	.st38{fill:#2D313D;}
	.st39{fill:#323249;}
	.st40{fill:#0A74CE;}
	.st41{fill:#CE6F09;}
	.st42{fill:#3A4668;}
	.st43{fill:#2F3A58;}
	.st44{fill:#323749;}
</style>
<rect x="-92.2" y="476.1" class="st0" width="620" height="143"/>
<rect x="-23.2" y="-44.9" class="st1" width="534" height="534"/>
<g>
	<g>
		<rect x="117.7" y="-75.2" class="st2" width="455.5" height="289.7"/>
		<rect x="115.9" y="-79.1" class="st3" width="454.2" height="283.5"/>
		<rect x="122.9" y="-71.1" class="st4" width="440.2" height="267.5"/>
		<rect x="128.2" y="-66.5" class="st5" width="429.7" height="258.4"/>
		<rect x="132.9" y="-62.5" class="st6" width="420.4" height="250.4"/>
	</g>
	<polygon class="st7" points="135.9,188.8 377.2,-61.8 500.9,-62 347.9,188.8 	"/>
	<rect x="125.6" y="-38" class="st2" width="435.6" height="5.7"/>
	<rect x="125.6" y="-70.3" class="st2" width="435.6" height="9"/>
	<rect x="122.4" y="-40" class="st3" width="445.7" height="4"/>
</g>
<g>
	<g>
		<polygon class="st8" points="61.1,86.6 61.1,242 92.6,242 157.8,242 157.8,267.5 129.4,267.5 129.4,273.6 200.8,273.6 
			200.8,267.5 172.7,267.5 172.7,242 235.5,242 269.8,242 269.8,86.6 		"/>
		<g>
			<rect x="68.7" y="86.6" class="st9" width="201.1" height="155.5"/>
			<rect x="163.3" y="219.4" class="st10" width="17.2" height="50.9"/>
			<rect x="135.2" y="267.6" class="st10" width="73.5" height="6"/>
			<rect x="76.6" y="92.6" class="st11" width="185.4" height="143.3"/>
			<rect x="76.6" y="92.6" class="st12" width="185.4" height="5"/>
			<polygon class="st13" points="76.6,236 76.6,92.6 261.9,92.6 			"/>
			<rect x="76.6" y="229.2" class="st12" width="185.4" height="6.9"/>
			<g>
				<rect x="122.6" y="99.6" class="st14" width="94.2" height="129.4"/>
				<g>
					<rect x="130.6" y="111.7" class="st15" width="32.9" height="38.7"/>
					<rect x="173.8" y="111.7" class="st15" width="32.9" height="4.6"/>
					<rect x="130.8" y="158.3" class="st15" width="60.2" height="4.6"/>
					<rect x="130.8" y="168.6" class="st15" width="77.6" height="4.6"/>
					<rect x="130.8" y="179.6" class="st15" width="77.6" height="4.6"/>
					<rect x="130.8" y="190.5" class="st15" width="77.6" height="4.6"/>
					<rect x="130.8" y="201.4" class="st15" width="77.6" height="4.6"/>
					<rect x="130.8" y="212.4" class="st15" width="77.6" height="4.6"/>
					<rect x="173.8" y="123" class="st15" width="26.6" height="4.6"/>
					<rect x="173.8" y="134.4" class="st15" width="32.9" height="4.6"/>
					<rect x="173.8" y="145.8" class="st15" width="16.4" height="4.6"/>
					<path class="st16" d="M160.4,150.4c0,0-1.8-4.6-2.6-6c-0.1-0.2-0.2-0.4-0.4-0.5c0,0,0,0,0-0.1c-0.1-0.1-0.2-0.2-0.3-0.3
						c-0.2-0.3-0.4-0.5-0.6-0.7c-0.1-0.1-0.3-0.2-0.4-0.3c0,0,0,0-0.1-0.1c-0.9-0.6-1.7-0.7-1.7-0.7l0,0c-0.4-0.1-0.8-0.2-1.3-0.3
						l0,0c0,0,0,0,0,0c-0.2,0-0.4-0.1-0.5-0.1l0.1-0.1l-1.2-2.2l-0.1,0.1c0-0.1,0-0.2,0-0.3c0.7-0.1,1.4-0.2,1.6-0.4
						c0.1-0.1,0.1-0.1,0.2-0.2c0,0,0,0-0.1,0c0.3-0.4,0.4-0.9,1-2.1c0.8-1.5,1.1-3,1.1-3.8c0-1.1-0.1-1.8-0.1-2.6c0-0.2,0-0.4,0-0.7
						c0-0.1,0-0.3,0.1-0.7c0.1,0,0.1,0,0.2-0.1c0.1-0.1,0-0.3-0.1-0.5c0.1-0.6,0.2-1.4,0.4-2.6c0,0,1.2-0.8,1.3-1.6
						c0.4-2.8-8.6-8.3-15.2-3.2c-0.9,0.7-1,1.4-0.5,2.1c-3.3,2.2-0.2,11.7,3.5,12.9c0.1,1,0.1,2.2,0,3.2l-0.2-0.1l-1.3,2.3l0.3,0.3
						c-0.1,0-0.3,0-0.4,0.1c-0.1,0-0.1,0-0.2,0l0,0c-0.5,0.1-0.9,0.2-1.4,0.3l0,0c0,0-3.2,0.5-4.5,1.7c-0.1,0-0.2,0.1-0.2,0.2
						c0,0,0,0,0,0c-1,1-2,3.4-2.9,6.4c-0.2,0.5-0.2,0.9-0.2,0.9L160.4,150.4z"/>
				</g>
			</g>
		</g>
	</g>
	<g id="table_10_">
		<rect x="322.6" y="283.9" class="st17" width="126.6" height="237"/>
		<rect x="-4.8" y="283.9" class="st18" width="137.1" height="237"/>
		<rect x="-4.8" y="283" class="st18" width="10.1" height="279.5"/>
		<rect x="120.5" y="283" class="st18" width="6" height="279.5"/>
		<rect x="126.5" y="283" class="st19" width="6" height="279.5"/>
		<rect x="317.5" y="283" class="st17" width="10.1" height="279.5"/>
		<rect x="439.1" y="283" class="st19" width="10.1" height="279.5"/>
		<rect x="126.5" y="283.9" class="st19" width="322.7" height="29.5"/>
		<rect x="126.5" y="283.1" class="st20" width="322.7" height="17.8"/>
		<rect x="-4.8" y="283.9" class="st21" width="131.3" height="17.1"/>
		<rect x="-22.8" y="273.7" class="st22" width="153.1" height="19.3"/>
		<rect x="126.4" y="273.7" class="st23" width="343.2" height="19.3"/>
		<rect x="-22.8" y="273.7" class="st24" width="492.4" height="4"/>
	</g>
	<g>
		<path class="st25" d="M241.4,229.9c0,0-8.9-13-6-15.8c1-0.9,4.8-2.1,6.8-1.4c4.2,1.3,7.3,6,7.3,6l-4.1,6.1L241.4,229.9z"/>
		<g>
			<polygon class="st26" points="290.9,212.9 260.3,212.9 260.4,206.1 290.9,206.1 			"/>
			<polygon class="st27" points="377.6,273.2 292.3,273.2 231.6,208.4 317,208.4 			"/>
			<polygon class="st28" points="371.8,270.5 295.2,270.5 239.1,210.5 239.1,207.5 315.7,210.5 371.8,267.4 			"/>
			<g>
				<polygon class="st29" points="371.8,267.4 295.2,267.4 239.1,207.5 315.7,207.5 				"/>
				<g>
					<polygon class="st28" points="319.4,224 317.4,221.9 260.5,221.9 262.5,224 					"/>
					<polygon class="st28" points="327.2,224 325.3,221.9 321.7,221.9 323.7,224 					"/>
					<polygon class="st28" points="324.5,229.6 322.5,227.5 265.6,227.5 267.6,229.6 					"/>
					<polygon class="st28" points="332.4,229.6 330.4,227.5 326.8,227.5 328.8,229.6 					"/>
					<polygon class="st28" points="329.6,235.1 327.7,233 270.7,233 272.7,235.1 					"/>
					<polygon class="st28" points="337.5,235.1 335.5,233 331.9,233 333.9,235.1 					"/>
					<polygon class="st28" points="334.7,240.7 332.8,238.6 275.9,238.6 277.8,240.7 					"/>
					<polygon class="st28" points="342.6,240.7 340.6,238.6 337,238.6 339,240.7 					"/>
					<polygon class="st28" points="339.8,246.2 337.9,244.1 281,244.1 282.9,246.2 					"/>
					<polygon class="st28" points="347.7,246.2 345.7,244.1 342.2,244.1 344.1,246.2 					"/>
					<polygon class="st28" points="345,251.8 343,249.7 286.1,249.7 288,251.8 					"/>
					<polygon class="st28" points="352.8,251.8 350.8,249.7 347.3,249.7 349.2,251.8 					"/>
					<polygon class="st28" points="350.1,257.3 348.1,255.2 291.2,255.2 293.2,257.3 					"/>
					<polygon class="st28" points="357.9,257.3 356,255.2 352.4,255.2 354.3,257.3 					"/>
				</g>
				<polygon class="st28" points="311.3,215.6 308.6,212.7 255.8,212.7 258.5,215.6 				"/>
			</g>
			<polygon class="st26" points="293.4,209.3 262.8,209.3 260.4,206.7 260.4,206.1 290.9,206.7 293.4,208.6 			"/>
			<polygon class="st30" points="293.4,208.6 262.8,208.6 260.4,206.1 290.9,206.1 			"/>
		</g>
		<path class="st31" d="M325.7,257.7c8.3,33.7-47.3,9.9-85.3-26.7l4.9-6.3c0,0,49.1,13.8,71,17.6
			C324.4,243.6,324.9,254.3,325.7,257.7z"/>
		<path class="st32" d="M363,85.4c0,0-0.2,7.3-1.2,12.2c-1,4.9-4.1,7.9-4.1,7.9c1.4,4.3,7.3,5,7.3,5L363,85.4z"/>
		<path class="st32" d="M394.9,164.4c2.9-12,2.3-26.7-0.3-43l33.9-7.3c0,0,0.6,31.4,6.2,50.1C434.8,168.6,394.9,164.4,394.9,164.4z"
			/>
		<path class="st33" d="M362.8,90.5c-1.5,1.1-3,1.1-4.5,0.8c1.1,2,2.6,3.2,4.5,3.1L362.8,90.5z"/>
		<path class="st25" d="M372.9,32.6c0,0-12.3-0.7-14.1,24.8c0,0,0.9,16.1,2.7,27.7c1.4,9-1.5,15.2-0.2,22.7c1.1,6.6,8,14,16.3,31.2
			c0,0,4.9,1.6,25.3-8.8L372.9,32.6z"/>
		<path class="st32" d="M377.5,139c0,0,12.3-12,13-16.4c0.7-4.4-2.9-24.8-2.9-24.8l18.7-0.5l11.6,32.5
			C417.9,129.7,380.7,141,377.5,139z"/>
		<path class="st34" d="M359.3,82.2c-1-0.9-1.3-3.6,2.1-2.8c1.3,0.3,2.6,1.3,3.2,2.6c0,0.1,0,0.1,0,0.2
			C364.4,83.4,359.8,82.6,359.3,82.2z"/>
		<path class="st35" d="M451.3,51c0,0.1,0,0.1,0,0.2c-2-8-5.5-15-10.7-19.8c-23.7-22-65.8-9.9-77.9-0.5c-5.9,3.7-9.3,7.2-11,10.5
			c0-0.1,0-0.2,0-0.2c-10,17.4,17.6,21.2,21.7,38.7c1.1,4.8,1.4,14.3,3.3,14.2c1.8-0.1,2.9-2.6,4.1-5.3l7.6,13.8
			c5.5-12.8,10.6,23.7,36,23.5C438,126,464.1,91.3,451.3,51z"/>
		<path class="st36" d="M322.6,317c0,0-54.2,7.5-51.6,29.4c2.6,21.8,6.7,34.2,14.5,86.1c7.8,51.9,12.8,90.6,12.8,90.6
			s6.3,2.9,7.1-0.5c-0.5-9.3,16.7-72.8,10.2-108.1c-5.3-28.7-15.5-58.6-15.5-58.6h39.3L322.6,317z"/>
		<path class="st37" d="M272,354c2.6,17.8,6.6,32.9,13.5,78.5c2.1,14.1,4,27.2,5.7,38.9c7.2-33.3,1.7-74,1.7-74
			c6.3-3.4,12.2-5.4,17.7-5.2c3.9,13.6-8.1-27.5-10.5-36.2H321l1.8-3.3L272,354z"/>
		<g>
			<path class="st38" d="M291.6,553.6c0,0-10.4,4.4-10.3,6.6c0,2.1,13.4,2.4,21.8,1.6c3.9-0.4,2.8-13,5.6-20c2.8-7,6.3-7-2.9-19.2
				l-4.9,24.8L291.6,553.6z"/>
			<path class="st36" d="M298.6,521.7c0,0-1.9,9.5-3.2,16.3c-1.5,7.8-2.2,12.1-3.8,15.6c0,0,5.5,2.4,9.3,0.8
				c3.9-1.5,3.1-10.9,8.7-21.3c2-3.8-4.3-11.1-4.3-11.1L298.6,521.7z"/>
			<path class="st38" d="M305.7,522.6c0,0-3,3.7-3.5,8.2c-0.5,4.3-4.7,26.7-10.6,22.9c0,0,4.6,8.4,9.4,5.7c4.8-2.7,5.2-13.2,7-18.6
				C309.8,535.2,315.1,534.2,305.7,522.6z"/>
			<path class="st38" d="M311.4,535.6c0,0-1.8,11.1-1.2,26.2l-1.8,0c0,0-0.2-11.4-1.8-17.5L311.4,535.6z"/>
		</g>
		<g>
			<path class="st38" d="M247.2,553.6c0,0-10.4,4.4-10.3,6.6c0,2.1,13.4,2.4,21.8,1.6c3.9-0.4,2.8-13,5.6-20c2.8-7,6.3-7-2.9-19.2
				l-4.9,24.8L247.2,553.6z"/>
			<path class="st25" d="M254.2,521.7c0,0-1.9,9.5-3.2,16.3c-1.5,7.8-2.2,12.1-3.8,15.6c0,0,5.5,2.4,9.3,0.8
				c3.9-1.5,3.1-10.9,8.7-21.3c2-3.8-4.3-11.1-4.3-11.1L254.2,521.7z"/>
			<path class="st38" d="M261.3,522.6c0,0-3,3.7-3.5,8.2c-0.5,4.3-4.7,26.7-10.6,22.9c0,0,4.6,8.4,9.4,5.7c4.8-2.7,5.2-13.2,7-18.6
				C265.5,535.2,270.7,534.2,261.3,522.6z"/>
			<path class="st38" d="M267,535.6c0,0-1.8,11.1-1.2,26.2l-1.8,0c0,0-0.2-11.4-1.8-17.5L267,535.6z"/>
		</g>
		<path class="st25" d="M306.1,314.8c0,0-55,12.8-54.5,31.6c-0.5,21.8,2,34.2,2.4,86.1c0.4,51.9-0.1,90.6-0.1,90.6s2.8,2.1,7.1-0.5
			c-0.4-6.4,28.2-73.3,26.7-108.1c-1.3-28.7-8.4-58.5-8.4-58.5h39.3L306.1,314.8z"/>
		<path class="st27" d="M256.7,331.2c12.3-12.3,94.5-29.4,94.5-29.4l24.1-2.9l53.6,7.6c0,0,48.5,52.8,3.6,59.7
			c-44.9,6.9-116,16.2-139.4,11.1C287.6,376.1,257.8,361.9,256.7,331.2z"/>
		<path class="st39" d="M293,377.3c15.4,3.3,142.7,0,142.7,0c20-6,22.8-20.8,22.8-20.8c-13.9-16.3-62-20.8-62-20.8
			s-32.5,18.1-84.5,20.5c-52,2.4-55.4-25.1-55.4-25.1C257.8,361.9,287.6,376.1,293,377.3z"/>
		<path class="st39" d="M421.6,367.4l2.4-27.1l-79.4-35.1l-0.4-1.8l-3.7,0.7c0,0-5,45.1,36.5,65.4
			C392.8,369.3,408.5,368.7,421.6,367.4z"/>
		<path class="st31" d="M382.7,259.4c1.3,25.5-25.8,34.2-38.1,43.6c-2.6,29.4,23,66.6,71.2,67c41.9,0.3,52.2-15,47.8-48.6
			c-3.6-27.8-21.2-56.5-21.2-66.3c0-16.9,6.7-19.1,16.3-46.5c9.6-27.6,5.4-46,5.4-46c-41.7-20.1-85.8-5-92.8,1
			c-8.9,32.1-20.4,44.2-19.4,53.5C353.5,231.4,382.1,246.2,382.7,259.4z"/>
		<path class="st35" d="M354.2,53.2c0,0-3.7,2.5-2.6,9.4c1.6,9.5,16.4,21.7,29.8,21.1C381.4,83.7,361.4,69.9,354.2,53.2z"/>
		<path class="st40" d="M344.6,302.9c40.1-8.5,43.3-24,78.3-24c35.6,0,40.4,45.5,40.9,64.8c1.1-6.3,1-13.7-0.1-22.4
			c-3.6-27.8-21.2-56.5-21.2-66.3c0-16.4,6.3-19,15.4-44.2c-8.5,15.6-15,28.6-36.3,28.6c-35.6,0-39.1-43.3-39.1-43.3L352,217.1
			c1.5,14.3,30.1,29.1,30.8,42.3C384.1,284.9,356.9,293.6,344.6,302.9z"/>
		<path class="st40" d="M390.3,155.9l3.1-10.1c0,0,14.4-11.2,42-6.9l5.9,15.9C441.2,154.8,428.8,151.2,390.3,155.9z"/>
		<path class="st31" d="M379.4,161.3c-9.7-3.7-21.7,20.8-40.5,47.1c-19.1,26.7-42.2,54.6-30.5,63.4
			C334.4,291.4,418.5,176.1,379.4,161.3z"/>
		<path class="st35" d="M454.2,64.2c19.3-0.1,8.5,57.5-26.2,61.5C389.2,130.2,441.8,64.3,454.2,64.2z"/>
		<path class="st41" d="M354.1,46.3c1-11.3,25-24.6,44.2-25.1c29.4-0.8,39.7,19.7,17.8,33.4C383,75.5,353.3,55.7,354.1,46.3z"/>
		<path class="st34" d="M454.2,64.2c0,0-35,10.7-29,56.1C425.1,120.3,431.9,82.2,454.2,64.2z"/>
		<path class="st41" d="M443.3,101.3c-11.2-4.8,6.6-36.3,13.9-33.5C464.1,70.3,458.1,107.6,443.3,101.3z"/>
		<path class="st35" d="M390.1,98c0,0,6.3,28.6-8.5,33.2c0,0,21.9,6.3,11.3-32.9L390.1,98z"/>
		<g>
			<path class="st36" d="M395.3,95.7c-1.6,5.5-6.4,8.9-10.7,7.7s-6.4-6.8-4.8-12.3c1.6-5.5,6.4-8.9,10.7-7.7
				C394.8,84.7,396.9,90.2,395.3,95.7z"/>
			<path class="st25" d="M393.6,95.7c-1.6,5.5-6.4,8.9-10.7,7.7c-4.3-1.3-6.4-6.8-4.8-12.3c1.6-5.5,6.4-8.9,10.7-7.7
				C393.1,84.7,395.2,90.2,393.6,95.7z"/>
			<path class="st32" d="M387.6,87.4c-1.8-0.5-3.6,0.4-5,2c0.9-0.5,1.9-0.8,2.8-0.5c2.2,0.6,3.3,3.5,2.5,6.3c-0.6,2.2-2.3,3.7-4,4
				c0.1,0,0.1,0.1,0.1,0.1c2.5,0.8,5.4-1.3,6.4-4.6C391.4,91.5,390.1,88.2,387.6,87.4z"/>
		</g>
		<path class="st25" d="M240.6,218c2.6-0.3,5.5-2.6,6.9-3.7c1.4-1.1,2.9-2.8,4.1-2.2c1.3,0.6-1.8,3.6-3.1,5.4
			c-1.2,1.8-1.6,5.9-3.2,7.1c0,0-3.9-2-5.2-3.9C238.9,218.8,240.6,218,240.6,218z"/>
		<path class="st40" d="M309.7,267c-8.6-0.8-23.1-2.4-35.8-9.8c14.9,9.4,29.2,15.7,39.1,16.5c19.2,3.6,58.2-38.5,70.4-71.4
			C363.4,235.9,328.8,266,309.7,267z"/>
	</g>
	<g id="chair_1_">
		
			<rect x="310.6" y="470.9" transform="matrix(-1.836970e-16 1 -1 -1.836970e-16 863.7811 88.5358)" class="st30" width="154.1" height="10.5"/>
		
			<rect x="313.9" y="474.2" transform="matrix(-1.836970e-16 1 -1 -1.836970e-16 867.1196 85.1973)" class="st26" width="154.1" height="3.8"/>
		<polygon class="st26" points="381.9,441 373.5,401.6 401.7,401.6 393.4,441 		"/>
		<polygon class="st30" points="446.8,562.5 328.5,562.5 328.5,559.2 376,551.3 399.3,551.3 446.8,559.2 		"/>
		<polygon class="st30" points="402,552.2 373.2,552.2 378.6,518.6 396.7,518.6 		"/>
		<polygon class="st26" points="378.6,518.6 396.7,518.6 402,552.2 446.8,559.2 367.9,559.2 381.9,553.2 385.6,521.6 		"/>
		<g>
			<path class="st42" d="M305.8,392.1h163.6l0,0c0-8.2-6.7-14.9-14.9-14.9H320.7C312.5,377.3,305.8,383.9,305.8,392.1L305.8,392.1z"
				/>
			<path class="st43" d="M321.8,377.3h68.8c-8.8,0-16,6.7-16,14.9h-68.8C305.8,383.9,313,377.3,321.8,377.3z"/>
			<path class="st43" d="M469.2,389.5c0.2,0.8,0.3,1.7,0.3,2.6H305.8c0-0.9,0.1-1.8,0.3-2.6H469.2z"/>
			
				<rect x="299.4" y="391.5" transform="matrix(-1 -1.224647e-16 1.224647e-16 -1 775.2452 803.1609)" class="st42" width="176.4" height="20.1"/>
			
				<rect x="299.4" y="391.5" transform="matrix(-1 -1.224647e-16 1.224647e-16 -1 712.8407 803.1609)" class="st43" width="114" height="20.1"/>
			
				<rect x="299.4" y="391.5" transform="matrix(-1 -1.224647e-16 1.224647e-16 -1 775.2452 785.5007)" class="st43" width="176.4" height="2.4"/>
		</g>
		<path class="st44" d="M410.6,433.4c-1.1,0-2.1-0.1-2.8-0.4c-5.8-2.1-4.6-20.3-4.5-22.3c0-0.5,0.4-0.8,0.9-0.8c0,0,0,0,0.1,0
			c0.5,0,0.8,0.5,0.8,0.9c-0.5,7.3-0.1,19.3,3.3,20.5c4.2,1.5,20-3.4,25.7-5.4c0.5-0.2,1,0.1,1.1,0.5c0.2,0.5-0.1,1-0.5,1.1
			C432.8,428.3,418,433.4,410.6,433.4z"/>
		<path class="st44" d="M439.1,420c-3.8,1-9.5,5.1-8.7,8.1c0.8,3,7.7,3.7,11.6,2.7c3.8-1,6.3-4.2,5.5-7.2
			C446.6,420.5,442.9,419,439.1,420z"/>
		<path class="st30" d="M437.2,404.8c0,0,8.8,0,20.5,0c11.7,0,13.5-10.8,13.5-10.8v-46h-20.5v46h-13.5V404.8z"/>
		<path class="st26" d="M450.7,347.9v46h-13.5v10.8c0,0,8.8,0,20.5,0c1.8,0,3.3-0.3,4.7-0.8c-6.8-2.6-7.8-9.3-7.8-9.3v-46.8H450.7z"
			/>
		<g>
			<path class="st43" d="M395.1,265.3c-3.5,64.8,24.7,90.3,61.1,90.3s67.4-25.6,70.8-90.3c3.5-64.8-21.8-144.2-58.2-144.2
				C432.4,121.1,398.6,200.5,395.1,265.3z"/>
			<path class="st42" d="M401.9,266.2c-3.6,67,25.5,93.4,63.2,93.4s69.7-26.4,73.3-93.4c3.6-67-22.6-149.2-60.2-149.2
				C440.5,117,405.5,199.2,401.9,266.2z"/>
		</g>
	</g>
</g>
</svg>
