<?xml version="1.0" encoding="UTF-8" standalone="no"?>
<!DOCTYPE svg PUBLIC "-//W3C//DTD SVG 1.1//EN" "http://www.w3.org/Graphics/SVG/1.1/DTD/svg11.dtd">
<svg width="100%" height="100%" viewBox="0 0 1363 680" version="1.1" xmlns="http://www.w3.org/2000/svg" xmlns:xlink="http://www.w3.org/1999/xlink" xml:space="preserve" xmlns:serif="http://www.serif.com/" style="fill-rule:evenodd;clip-rule:evenodd;stroke-linejoin:round;stroke-miterlimit:2;">
    <g>
        <g transform="matrix(1,0,0,1,432.844,0)">
            <path d="M291.5,159.2C291.5,141.4 306.9,126.9 326,126.9C345,126.9 360.5,141.4 360.5,159.2C360.5,177 345.1,191.5 326,191.5C306.9,191.5 291.5,177 291.5,159.2Z" style="fill:#501f23;fill-rule:nonzero;"/>
        </g>
        <g transform="matrix(1,0,0,1,432.844,0)">
            <path d="M401.6,103C401.6,134 376.7,159.2 346,159.2C315.3,159.2 290.4,134 290.4,103C290.4,72 319.7,50.2 350.3,50.2C362.9,50.2 373.2,55.8 377.2,70C394.6,69.9 401.6,84.7 401.6,103Z" style="fill:#501f23;fill-rule:nonzero;"/>
        </g>
        <g transform="matrix(1,0,0,1,432.844,0)">
            <path d="M311,151.5C304.9,155.9 291.6,148.9 293.7,138.3C295.8,127.7 300.5,131.6 305.2,135.2C309.8,138.7 311,151.5 311,151.5Z" style="fill:#ffb781;fill-rule:nonzero;"/>
        </g>
        <g transform="matrix(1,0,0,1,432.844,0)">
            <path d="M307.8,148.9C303.8,151.7 295.3,147.2 296.6,140.4C297.9,133.6 301,136.1 304,138.4C307.1,140.7 307.8,148.9 307.8,148.9Z" style="fill:#ef8f6f;fill-rule:nonzero;"/>
        </g>
        <g transform="matrix(1,0,0,1,432.844,0)">
            <path d="M308.8,151.3C306.1,153.2 300.2,150.1 301.1,145.5C302,140.8 304.1,142.6 306.1,144.1C308.3,145.7 308.8,151.3 308.8,151.3Z" style="fill:#ffb781;fill-rule:nonzero;"/>
        </g>
        <g transform="matrix(1,0,0,1,432.844,0)">
            <path d="M378.4,147.9C384.9,152 398.2,144.5 395.7,134C393.2,123.5 388.5,127.6 383.8,131.4C379.1,135.1 378.4,147.9 378.4,147.9Z" style="fill:#ffb781;fill-rule:nonzero;"/>
        </g>
        <g transform="matrix(1,0,0,1,432.844,0)">
            <path d="M381.5,145.2C385.7,147.9 394.3,143 392.6,136.2C391,129.4 388,132.1 384.9,134.5C381.9,136.9 381.5,145.2 381.5,145.2Z" style="fill:#ef8f6f;fill-rule:nonzero;"/>
        </g>
        <g transform="matrix(1,0,0,1,432.844,0)">
            <path d="M380.5,147.6C383.4,149.4 389.3,146.1 388.1,141.5C387,136.9 384.9,138.7 382.9,140.3C380.8,142 380.5,147.6 380.5,147.6Z" style="fill:#ffb781;fill-rule:nonzero;"/>
        </g>
        <g transform="matrix(1,0,0,1,432.844,0)">
            <path d="M456,314.2C454.6,298.2 421.9,225 401.9,221.7C392.6,220.1 427.5,295.6 433,319.3C435.1,328.3 457.1,327 456,314.2Z" style="fill:#ffb781;fill-rule:nonzero;"/>
        </g>
        <g transform="matrix(1,0,0,1,432.844,0)">
            <path d="M245.5,314.9C247.1,301 285.2,203.6 311.4,202C320.6,201.4 272.3,300.9 266.4,321.3C264.2,328.9 244.2,325.9 245.5,314.9Z" style="fill:#ffb781;fill-rule:nonzero;"/>
        </g>
        <g transform="matrix(1,0,0,1,432.844,0)">
            <path d="M360.6,679.7L358.5,722.1L347.7,711.8L348.1,678.9L360.6,679.7Z" style="fill:#f7996b;fill-rule:nonzero;"/>
        </g>
        <g transform="matrix(1,0,0,1,432.844,0)">
            <path d="M346.4,690.8L361.5,693.3C362.2,651.3 376.6,601.2 377.2,582.2C378,552 370.9,536 363.3,523.7C355.7,509.4 341.6,505 338.4,518.3C332.9,558.8 349.8,626.7 346.4,690.8Z" style="fill:#212121;fill-rule:nonzero;"/>
        </g>
        <g transform="matrix(1,0,0,1,432.844,0)">
            <path d="M368.5,537.5C367.3,552.2 342.1,545.1 345,531.5C354.7,485.7 325.1,400.9 356.3,359.1L403.6,368.6C405.7,402 385.4,453.5 374,498.5C370.1,514 369.6,524.6 368.5,537.5Z" style="fill:#212121;fill-rule:nonzero;"/>
        </g>
        <g transform="matrix(1,0,0,1,432.844,0)">
            <path d="M405.6,368.9L370.6,361.9C352.9,414.9 369,526.9 369.6,527C370.7,518.5 372.3,510.2 375.1,499C386.5,454 407.7,402.3 405.6,368.9Z" style="fill:#424242;fill-rule:nonzero;"/>
        </g>
        <g transform="matrix(1,0,0,1,432.844,0)">
            <path d="M298.6,679.5L291.4,721.4L304.1,713.7L310.9,681.4L298.6,679.5Z" style="fill:#f7996b;fill-rule:nonzero;"/>
        </g>
        <g transform="matrix(1,0,0,1,432.844,0)">
            <path d="M287.4,365.1C299.4,383.1 319.9,394.9 343.2,394.9C348.2,394.9 396.8,382 405.6,368.9L287.4,365.1Z" style="fill:#212121;fill-rule:nonzero;"/>
        </g>
        <g transform="matrix(1,0,0,1,432.844,0)">
            <path d="M310,693.4L294.7,692.6C303.2,651.4 299.9,599.4 303.5,580.7C309.2,551 319.7,536.9 329.8,526.6C340.3,514.3 355,513.1 355.3,526.8C351.9,567.5 320.6,630.1 310,693.4Z" style="fill:#212121;fill-rule:nonzero;"/>
        </g>
        <g transform="matrix(1,0,0,1,432.844,0)">
            <path d="M355.4,526.6C355.2,518.8 342,534.7 335.9,535.9C337.3,545.7 326.9,639.6 297,692.5L310.1,693.2C320.6,629.9 351.9,567.3 355.4,526.6Z" style="fill:#424242;fill-rule:nonzero;"/>
        </g>
        <g transform="matrix(1,0,0,1,432.844,0)">
            <path d="M355.5,527.5C353.5,535.6 349.4,539.1 344.9,539.4C338.3,539.9 331.2,533.4 330.1,525.1C327.2,503.4 313.2,476.5 300.8,448.9C289.3,423.3 279,397 280.2,373.8C280.5,368.7 284.8,363.5 286.2,358.7L329.8,356.3C338.3,386.3 347.9,420.7 353,454.8L353,454.9C355.3,470.7 356.9,486.3 357.4,501.3C357.7,507.8 356.9,521.2 355.5,527.5Z" style="fill:#424242;fill-rule:nonzero;"/>
        </g>
        <g transform="matrix(1,0,0,1,432.844,0)">
            <path d="M307.8,391.6C312.9,386 334.6,390.4 342.4,402.4C345.5,407.2 358.7,371.3 352.8,350.5L287.4,355.7C285.9,360.5 280.5,368.6 280.2,373.7C278.6,405.5 298.3,442.9 313.5,476.7C294.7,417.2 300.7,399.3 307.8,391.6Z" style="fill:#212121;fill-rule:nonzero;"/>
        </g>
        <g transform="matrix(1,0,0,1,432.844,0)">
            <path d="M405.7,379.2C387.1,390.3 275.7,395.5 280.2,372.1C282.7,358.8 286.8,348.9 294.8,336.9C299.2,330.4 312.9,318.2 313.3,308.6C313.8,298.2 306.5,280.4 300.8,258.6C299.7,254.3 300.3,250.3 299.7,245.6L390.3,245.6C386.6,274.7 374.4,295.3 374.2,307.9C374.1,311.2 374.9,314 376.8,316.3C384.7,325.3 392.2,332.4 396,340.3C402.5,353.4 408.1,367.7 405.7,379.2Z" style="fill:#8e24aa;fill-rule:nonzero;"/>
        </g>
        <g transform="matrix(1,0,0,1,432.844,0)">
            <path d="M401.8,221.7C401.8,235.8 376.4,247.2 345.1,247.2C313.8,247.2 288.4,235.8 288.4,221.7C288.4,214.7 294.6,208.4 304.7,203.8C311.4,200.7 330.2,196.3 330.3,193.5C330.3,192.8 330.3,191 330.4,188.8C330.5,182.4 330.6,172.3 330.6,172.3L359,172.3C359,172.3 359.2,175.8 359.4,180C359.6,185.5 359.9,192.1 360,193.9C360.1,197 378.7,200.8 385.3,203.8C395.5,208.4 401.8,214.7 401.8,221.7Z" style="fill:#f4b17e;fill-rule:nonzero;"/>
        </g>
        <g transform="matrix(1,0,0,1,432.844,0)">
            <path d="M385.7,135.8C385.7,165.4 368.3,192.1 345.6,192.1C321.9,192.1 303.9,165.4 303.9,135.8C303.9,106.2 306.8,77.2 344.8,77.2C382.8,77.2 385.7,106.2 385.7,135.8Z" style="fill:#ffb781;fill-rule:nonzero;"/>
        </g>
        <g transform="matrix(1,0,0,1,432.844,0)">
            <path d="M370.8,88.6C368.5,70.9 354.6,60.7 339.6,63.9C318.6,68.4 273.4,95.7 304,131.3C305,92.7 369.8,103.7 369.2,90.7L370.8,88.6Z" style="fill:#672528;fill-rule:nonzero;"/>
        </g>
        <g transform="matrix(1,0,0,1,432.844,0)">
            <path d="M368.5,82.9C382.9,79.1 401.3,96.6 399.1,110.9C397.8,118.9 391.9,124.5 385.7,131.3C384.5,124.3 384.2,111.2 372.9,100C368.3,95.5 369.6,90.9 368.5,84.9L368.5,82.9Z" style="fill:#672528;fill-rule:nonzero;"/>
        </g>
        <g transform="matrix(1,0,0,1,432.844,0)">
            <path d="M344.7,165.8C339.1,165.8 334.6,170.4 331.8,170.7L344,176.3C344.2,176.3 344.5,176.2 344.8,176.2C345.1,176.3 345.3,176.3 345.6,176.3L357.8,170.7C354.8,170.4 350.4,165.8 344.7,165.8Z" style="fill:#ac2436;fill-rule:nonzero;"/>
            <path d="M349.8,171.5C348.2,171.6 341.6,171.6 340,171.5C336.5,171.4 333.3,171 333.3,171C336,174.8 340.7,177.6 344.7,177.6L345,177.6C349,177.6 353.6,174.9 356.4,171C356.5,171 353.3,171.3 349.8,171.5Z" style="fill:#c82333;fill-rule:nonzero;"/>
        </g>
        <g transform="matrix(1,0,0,1,432.844,0)">
            <path d="M309.1,247.6C307,242.4 303.2,238.4 301.1,233.2C300,230.4 296.8,212.1 295.1,209.5C292.3,205.4 286.4,209.7 282.6,213.8C275.5,221.5 259.8,242.9 265.7,248.7C276.6,259.4 296.9,264.6 311.3,267.2L309.1,247.6Z" style="fill:#ab47bc;fill-rule:nonzero;"/>
        </g>
        <g transform="matrix(1,0,0,1,432.844,0)">
            <path d="M287.8,233.6C292.3,227.5 295.2,220.4 296.4,212.9C298.1,219 300.3,231.1 301.2,233.3C303.3,238.4 307.1,242.4 309.2,247.7L311.4,267.4C297,264.8 276.6,259.6 265.8,248.9C263.9,247 264.3,243.4 265.9,239.1C274.1,243.7 284.4,239.1 287.8,233.6Z" style="fill:#8e24aa;fill-rule:nonzero;"/>
        </g>
        <g transform="matrix(1,0,0,1,432.844,0)">
            <path d="M430.9,239.4C429.4,241.1 427.7,242.7 426.1,244.1C414.9,253.8 400.7,258.1 388.8,260.5C387.7,260.7 386.7,260.9 385.6,261.1C384.6,261.3 383.7,261.4 382.7,261.6C381.7,261.8 380.8,261.9 379.9,262L382.8,242.4C385.1,237.3 389.1,233.4 391.4,228.4C391.5,228.2 391.6,227.9 391.7,227.6C391.8,227.3 391.9,226.9 392.1,226.5C393.7,221.4 396.6,209.5 398.2,207.4C401.2,203.4 407.2,206.8 411.5,210.5C420.6,218 436.4,233.3 430.9,239.4Z" style="fill:#ab47bc;fill-rule:nonzero;"/>
        </g>
        <g transform="matrix(1,0,0,1,432.844,0)">
            <path d="M426,244.1C414.8,253.8 400.6,258.1 388.7,260.5C387.6,260.7 386.6,260.9 385.5,261.1C384.5,261.3 383.6,261.4 382.6,261.6C381.6,261.8 380.7,261.9 379.8,262L382.7,242.4C385,237.3 389,233.4 391.3,228.4C391.4,228.2 391.5,227.9 391.6,227.6C391.7,227.3 391.8,226.9 392,226.4C401.9,230.3 423.1,240.5 426,244.1Z" style="fill:#8e24aa;fill-rule:nonzero;"/>
        </g>
        <g transform="matrix(1,0,0,1,432.844,0)">
            <path d="M394.4,245.5C398.9,273.8 371.2,276.4 344.9,276.4C318.6,276.4 292.1,272.7 295.6,247.2C296.2,242.5 298.8,235.9 301.2,231.7C311.6,237.6 327.6,241.3 345.6,241.3C363.1,241.3 378.8,237.7 389.2,232.1C391.5,236.2 393.7,241 394.4,245.5Z" style="fill:#ab47bc;fill-rule:nonzero;"/>
        </g>
        <g transform="matrix(1,0,0,1,432.844,0)">
            <path d="M332.9,532.5C337.3,538.7 342.8,537.4 349,533.2C348.8,537.6 346.5,542.5 345.2,546.7C337.5,572.7 324.2,596.4 312,620.6L332.9,532.5Z" style="fill:#212121;fill-rule:nonzero;"/>
        </g>
        <g transform="matrix(1,0,0,1,432.844,0)">
            <path d="M350.2,530.6C349.2,533.8 348,536.6 345.4,538.9C345.2,539 345.1,539.1 344.9,539.3C338.3,539.8 331.2,533.3 330.1,525C327.2,503.3 313.2,476.4 300.8,448.8L303.7,439.1C305.4,458.5 316.5,482.2 324.8,499.8C328.8,508.3 333.1,524.3 340.7,530.3C343.6,532.6 347.2,533.7 350.2,530.6Z" style="fill:#212121;fill-rule:nonzero;"/>
        </g>
        <g transform="matrix(1,0,0,1,432.844,0)">
            <g>
                <path d="M431.8,355.7L266.2,355.7C264.4,355.7 262.9,354.2 262.9,352.4L262.9,258.5C262.9,256.7 264.4,255.2 266.2,255.2L431.8,255.2C433.6,255.2 435.1,256.7 435.1,258.5L435.1,352.4C435.1,354.3 433.6,355.7 431.8,355.7Z" style="fill:#3c1d5c;fill-rule:nonzero;"/>
                <g>
                    <path d="M432.1,274.8L431.9,299.4L431.9,301.2C431.9,301.2 430.8,263.7 429,261.6C427.2,259.5 371.8,258.8 369.2,258.8C401.4,259 428.8,259.4 430.1,260.2C431.4,261 431.9,267.4 432.1,274.8Z" style="fill:#fff;fill-opacity:0.29;fill-rule:nonzero;"/>
                    <path d="M312.5,258.8C312.5,258.8 269.9,260.2 268.5,261.6C267.5,262.6 266.4,282.4 265.9,293.2C266.4,277.7 267,260.9 267.4,260.2C268,259.1 285.8,259.1 293,258.8L312.5,258.8Z" style="fill:#fff;fill-opacity:0.29;fill-rule:nonzero;"/>
                    <path d="M265.9,335.8L266.1,311.2L266.1,309.4C266.1,309.4 267.2,346.9 269,349C270.8,351.1 326.2,351.8 328.8,351.8C296.6,351.6 269.2,351.2 267.9,350.4C266.7,349.6 266.1,343.2 265.9,335.8Z" style="fill:#fff;fill-opacity:0.29;fill-rule:nonzero;"/>
                    <path d="M385.5,351.9C385.5,351.9 428.1,350.5 429.5,349.1C430.5,348.1 431.6,328.3 432.1,317.5C431.6,333 431,349.8 430.6,350.5C430,351.6 412.2,351.6 405,351.9L385.5,351.9Z" style="fill:#fff;fill-opacity:0.29;fill-rule:nonzero;"/>
                </g>
                <g>
                    <path d="M332.4,297.8L324,297.8C323.6,297.8 323.5,297.6 323.5,297.3L323.5,281.9C323.5,281.5 323.7,281.4 324,281.4L332.4,281.4C332.7,281.4 332.9,281.6 332.9,281.9L332.9,283.6C332.9,284 332.7,284.1 332.4,284.1L327,284.1C326.8,284.1 326.7,284.2 326.7,284.4L326.7,287.7C326.7,287.9 326.8,288 327,288L331.4,288C331.8,288 331.9,288.2 331.9,288.5L331.9,290.2C331.9,290.6 331.7,290.7 331.4,290.7L327,290.7C326.8,290.7 326.7,290.8 326.7,291L326.7,294.6C326.7,294.8 326.8,294.9 327,294.9L332.4,294.9C332.7,294.9 332.9,295.1 332.9,295.4L332.9,297.1C332.9,297.7 332.7,297.8 332.4,297.8Z" style="fill:#fff;fill-rule:nonzero;"/>
                    <path d="M340.5,297.8L335.6,297.8C335.3,297.8 335.1,297.6 335.1,297.3L335.1,295.7C335.1,295.5 335.1,295.4 335.2,295.3C335.3,295.2 335.4,295.2 335.6,295.2L339.9,295.2C340.7,295.2 341.2,294.9 341.2,294.4L341.2,294.3C341.2,293.9 340.8,293.5 340.1,293.1L337.6,291.7C336.7,291.3 336.1,290.8 335.7,290.3C335.3,289.8 335.1,289.1 335.1,288.3C335.1,287.1 335.4,286.2 336.1,285.7C336.7,285.1 337.7,284.9 339.1,284.9L343.4,284.9C343.7,284.9 343.9,285.1 343.9,285.4L343.9,287.1C343.9,287.3 343.9,287.4 343.8,287.5C343.7,287.6 343.6,287.6 343.4,287.6L339.8,287.6C339,287.6 338.5,287.8 338.5,288.2L338.5,288.3C338.5,288.7 338.9,289.1 339.6,289.5L342.2,291C343.1,291.5 343.7,292 344.1,292.5C344.5,293 344.6,293.7 344.6,294.5C344.5,296.7 343.2,297.8 340.5,297.8Z" style="fill:#fff;fill-rule:nonzero;"/>
                    <path d="M347.1,287.6L346.1,287.6C345.9,287.6 345.8,287.6 345.7,287.5C345.6,287.4 345.6,287.3 345.6,287.1L345.6,285.3C345.6,284.9 345.8,284.8 346.1,284.8L347.1,284.8C347.3,284.8 347.4,284.7 347.4,284.5L347.4,282C347.4,281.6 347.6,281.5 348,281.5L350.2,281.5C350.6,281.5 350.7,281.7 350.7,282L350.7,284.4C350.7,284.6 350.8,284.7 351,284.7L353,284.7C353.4,284.7 353.5,284.9 353.5,285.2L353.5,287C353.5,287.2 353.5,287.3 353.4,287.4C353.3,287.5 353.2,287.5 353,287.5L351,287.5C350.8,287.5 350.7,287.6 350.7,287.8L350.7,293.5C350.7,294 350.8,294.4 351.1,294.6C351.4,294.8 351.7,294.9 352.3,294.9L353.3,294.9C353.7,294.9 353.8,295.1 353.8,295.4L353.8,297.2C353.8,297.4 353.8,297.5 353.7,297.6C353.6,297.7 353.5,297.7 353.3,297.7L351.7,297.7C350.3,297.7 349.3,297.3 348.6,296.6C347.9,295.9 347.5,294.9 347.5,293.5L347.5,287.7C347.3,287.6 347.2,287.6 347.1,287.6Z" style="fill:#fff;fill-rule:nonzero;"/>
                    <path d="M365.5,297.8L359.8,297.8C358.4,297.8 357.4,297.4 356.7,296.7C356,296 355.6,294.9 355.6,293.6L355.6,288.9C355.6,287.5 356,286.5 356.7,285.8C357.4,285.1 358.5,284.7 359.8,284.7L361.8,284.7C363.2,284.7 364.2,285.1 364.9,285.8C365.6,286.5 366,287.6 366,288.9L366,292.2C366,292.6 365.8,292.7 365.5,292.7L359,292.7C358.8,292.7 358.7,292.8 358.7,293L358.7,293.6C358.7,294.1 358.8,294.5 359,294.7C359.2,294.9 359.6,295 360.2,295L365.4,295C365.8,295 365.9,295.2 365.9,295.6L365.9,297.3C365.9,297.5 365.9,297.6 365.8,297.7C365.9,297.8 365.7,297.8 365.5,297.8ZM359.1,290.5L362.6,290.5C362.8,290.5 362.9,290.4 362.9,290.2L362.9,289C362.9,288.5 362.8,288.1 362.6,287.8C362.4,287.6 362,287.5 361.4,287.5L360.3,287.5C359.8,287.5 359.4,287.6 359.1,287.8C358.9,288 358.8,288.4 358.8,289L358.8,290.2C358.8,290.4 358.9,290.5 359.1,290.5Z" style="fill:#fff;fill-rule:nonzero;"/>
                    <path d="M371.3,297.8L369.1,297.8C368.7,297.8 368.6,297.6 368.6,297.3L368.6,285.3C368.6,284.9 368.8,284.8 369.1,284.8L371.3,284.8C371.7,284.8 371.8,285 371.8,285.3L371.8,286.2L371.9,286.2C372.1,285.7 372.4,285.4 372.9,285.1C373.4,284.9 373.9,284.7 374.4,284.7L375.3,284.7C375.6,284.7 375.8,284.9 375.8,285.2L375.8,287C375.8,287.2 375.8,287.3 375.7,287.4C375.6,287.5 375.5,287.5 375.3,287.5L373.5,287.5C372.3,287.5 371.7,288.2 371.7,289.5L371.7,297.2C371.8,297.7 371.6,297.8 371.3,297.8Z" style="fill:#fff;fill-rule:nonzero;"/>
                </g>
                <rect x="291.1" y="323.8" width="116.8" height="3.9" style="fill:#fff;fill-opacity:0.29;"/>
            </g>
            <g>
                <g>
                    <path d="M284.7,297.1L265.6,302L278.2,294.4C279.6,293.4 279.2,292.1 279,291.6L272.1,294.8L270,295.9C267.9,296.8 266,297.7 264.3,298.6L261.3,299.9L248.3,313.1L249.2,315.5L251.8,317.8C251.8,317.8 258.1,317.5 263.9,314.9C271,314.9 276.9,313.6 276.9,313.6C280.3,312.3 277.7,311.2 277.7,311.2C274.5,312.5 269,312.2 268.2,312.1C267.6,312 267,312 266.5,311.9L266.6,311.4L285,306.9C287.5,305.9 285.2,304.1 285.2,304.1L271,306.5L267.8,306.7L268.1,305.7L267.8,305.6L268.1,305.5L285.7,300.8C288.7,299.8 287.7,296.6 287.7,296.6L284.7,297.1Z" style="fill:#ffb781;fill-rule:nonzero;"/>
                </g>
            </g>
            <g>
                <g>
                    <path d="M413.1,294L430.5,301.5L419.6,292.4C418.4,291.2 419,290 419.3,289.6L425.4,293.7L427.3,295C429.2,296.2 430.9,297.3 432.3,298.5L434.9,300.1L445.3,314.6L444.1,316.7L441.3,318.5C441.3,318.5 435.3,317.2 430.2,313.9C423.5,312.9 418.1,310.7 418.1,310.7C415.1,309 417.7,308.3 417.7,308.3C420.6,310 425.8,310.5 426.6,310.6C427.2,310.6 427.8,310.7 428.3,310.7L428.3,310.2L411.5,303.2C409.3,301.9 411.8,300.5 411.8,300.5L424.9,304.9L427.9,305.6L427.8,304.6L428.1,304.6L427.8,304.5L411.8,297.3C409.1,295.9 410.6,293 410.6,293L413.1,294Z" style="fill:#ffb781;fill-rule:nonzero;"/>
                </g>
            </g>
        </g>
        <g transform="matrix(1,0,0,1,432.844,0)">
            <path d="M347.2,141.9C350.6,147.1 353.4,154.3 351.6,156.1C349.8,157.9 341.1,157.7 340.4,157.2C339.7,156.6 347.2,141.9 347.2,141.9Z" style="fill:#e97b59;fill-rule:nonzero;"/>
            <path d="M344.7,140.6C348.1,145.8 350.9,153 349.1,154.8C347.3,156.6 338.6,156.4 337.9,155.9C337.3,155.4 344.7,140.6 344.7,140.6Z" style="fill:#ffb781;fill-rule:nonzero;"/>
            <g>
                <path d="M380.5,121.7L381.2,120.4C376.4,112.5 365.4,108.8 360.1,108.7L359.5,112.4C363.7,111.9 375,115.1 380.5,121.7Z" style="fill:#501f23;fill-rule:nonzero;"/>
            </g>
            <g>
                <path d="M315.4,119.9L314.8,118.6C320.2,111 331.4,108.2 336.7,108.5L337,112.2C332.8,111.4 321.3,113.7 315.4,119.9Z" style="fill:#501f23;fill-rule:nonzero;"/>
            </g>
            <g>
                <path d="M336.6,137.3C338.4,135.4 335.9,127.8 329,125.2C322.1,122.6 318.1,127.1 317.8,129C317.5,130.9 318.3,134.3 322.2,136.3C326.2,138.3 329.5,137.9 331.5,137.9C333.9,137.9 335.5,138.4 336.6,137.3Z" style="fill:#fff;fill-rule:nonzero;"/>
                <circle cx="328.6" cy="129.8" r="6.2" style="fill:#39170b;"/>
                <circle cx="327.3" cy="133.4" r="2.5" style="fill:#fff;"/>
                <path d="M337.1,135.7C337.1,135.7 338.2,132.2 334.1,127.3C330,122.4 324.2,123.1 322.7,122.7C321.1,122.3 319.4,122.7 319.9,123.2C320.4,123.6 318.9,124.8 317.6,124.5C316.4,124.2 317.5,125.6 317.5,126C317.5,126.4 315.3,126.2 315.1,126.6C314.9,127 316.2,128.2 315.9,128.3C315.6,128.4 314.3,129.3 314.9,129.7C315.5,130.1 316.5,131.6 317,132.3C317.5,133 318.8,133.5 318.8,133.5C318.8,133.5 317.4,130.5 318.5,128.5C319.6,126.5 322.1,124.4 326.1,125.1C330.1,125.8 332.5,127.8 334.2,129.5C335.8,131.1 337.1,135.7 337.1,135.7Z" style="fill:#39170b;fill-rule:nonzero;"/>
            </g>
            <g>
                <path d="M358.9,137.3C357.1,135.4 359.6,127.8 366.5,125.2C373.4,122.6 377.4,127.1 377.7,129C378,130.9 377.2,134.3 373.3,136.3C369.3,138.3 366,137.9 364,137.9C361.5,137.9 359.9,138.4 358.9,137.3Z" style="fill:#fff;fill-rule:nonzero;"/>
                <circle cx="366.9" cy="129.8" r="6.2" style="fill:#39170b;"/>
                <circle cx="368.1" cy="133.4" r="2.5" style="fill:#fff;"/>
                <path d="M358.3,135.7C358.3,135.7 357.2,132.2 361.3,127.3C365.4,122.4 371.2,123.1 372.7,122.7C374.3,122.3 376,122.7 375.5,123.2C375,123.6 376.5,124.8 377.8,124.5C379,124.2 377.9,125.6 377.9,126C377.9,126.4 380.1,126.2 380.3,126.6C380.5,127 379.2,128.2 379.5,128.3C379.8,128.4 381.1,129.3 380.5,129.7C379.9,130.1 378.9,131.6 378.4,132.3C377.9,133 376.6,133.5 376.6,133.5C376.6,133.5 378,130.5 376.9,128.5C375.8,126.5 373.3,124.4 369.3,125.1C365.3,125.8 362.9,127.8 361.2,129.5C359.6,131.1 358.3,135.7 358.3,135.7Z" style="fill:#39170b;fill-rule:nonzero;"/>
            </g>
        </g>
    </g>
    <g>
        <path d="M1217.9,54.5C1208.4,61.2 1209.8,68.9 1214.3,76.2C1207.4,73 1194.1,70.5 1188.6,93.6C1176.4,144.9 1229.8,176.3 1250.3,172.4C1281.8,166.5 1294.4,187.4 1294.4,187.4C1353.4,61.6 1249.2,32.2 1217.9,54.5Z" style="fill:#4d4d4d;fill-rule:nonzero;"/>
        <path d="M1279.4,56.9C1277.9,87.5 1254,113.5 1222,117.1C1209.5,118.5 1197.4,116.2 1186.9,111.2C1188.8,151.8 1231.1,178.9 1249.1,175.5C1280.5,169.6 1294.4,187.3 1294.4,187.3C1331.8,151 1301.7,72.2 1279.4,56.9Z" style="fill:#913f29;fill-rule:nonzero;"/>
        <path d="M1279.7,56.7C1279.1,68.5 1272.2,83.6 1265.7,93C1255.5,108 1230.4,91.6 1210.7,93.7C1198.2,95.1 1207.8,121.9 1186.9,111.2C1188.8,151.8 1202.8,185.7 1220.8,182.4C1252.2,176.5 1294.5,187.3 1294.5,187.3C1331.8,161.8 1320,79.3 1279.7,56.7Z" style="fill:#333;fill-rule:nonzero;"/>
        <path d="M1331.4,294.7C1333.3,281.6 1299.3,194.1 1268.2,191.8C1262.5,191.4 1313.8,292.6 1313.8,292.6L1331.4,294.7Z" style="fill:#e0c1c6;fill-rule:nonzero;"/>
        <path d="M1273.7,193C1272.3,191.6 1270.1,191.9 1268.3,191.7C1262.6,191.3 1313.9,292.5 1313.9,292.5L1324.6,293.8C1318.8,283 1290.4,209.4 1273.7,193Z" style="fill:#cea1aa;fill-rule:nonzero;"/>
        <path d="M1150.3,305.4C1149.4,293.6 1192.9,202.3 1226,192C1232,190.1 1169.1,298.9 1169.1,298.9L1150.3,305.4Z" style="fill:#e0c1c6;fill-rule:nonzero;"/>
        <path d="M1231.5,188.7C1208.7,195.8 1161.7,297.6 1159.1,302.3L1169.1,298.8C1169.1,298.9 1237.6,186.8 1231.5,188.7Z" style="fill:#cea1aa;fill-rule:nonzero;"/>
        <path d="M1259.6,153.8L1239.4,153.8L1239.9,188.7L1259.5,188.5L1259.6,153.8Z" style="fill:#ef8f6f;fill-rule:nonzero;"/>
        <path d="M1330.3,602C1322.4,570 1317.6,565 1312.9,538.2C1308.1,511.4 1318.5,458 1307.1,415.4C1296.9,377.4 1276.1,363.6 1276.1,363.6C1246.2,365.8 1224.9,356.4 1209,381.5C1200.2,395.5 1200.2,472.4 1206.3,528.7C1212,581.2 1204.6,712.1 1196,741.4L1202.1,741.4C1209.2,703.7 1237.1,628.3 1237.4,599.7C1237.7,567.4 1227.3,558.3 1229.7,531.2C1231.4,511.6 1246.6,485 1255,455.5C1257.7,464.4 1261,473.6 1264.8,483C1267.7,490 1291.2,531.9 1293.8,541.4C1298.9,560.4 1295.1,586.9 1300,610.5C1307.3,645.7 1320.3,665.9 1337.5,741.5L1343.5,741.5C1340.2,704 1337.2,630.2 1330.3,602Z" style="fill:#543c38;fill-rule:nonzero;"/>
        <g>
            <path d="M1229.5,531C1231.1,513 1246.5,482.2 1255.1,455.5C1254,452.3 1254,452.7 1252.4,452.6C1243.9,482.1 1225.8,509 1224.1,528.6C1221.7,555.7 1232.1,564.8 1231.8,597.1C1231.6,624.2 1206.6,701.2 1197.9,741.2L1201.9,741.2C1209,703.5 1236.9,628.1 1237.2,599.5C1237.5,567.2 1227.2,558.2 1229.5,531Z" style="fill:#422b28;fill-rule:nonzero;"/>
            <path d="M1330.3,602C1322.4,570 1317.6,565 1312.9,538.2C1308.1,511.4 1318.5,458 1307.1,415.4C1296.9,377.4 1276.1,363.6 1276.1,363.6C1275.5,363.6 1234.5,365.7 1214.1,375.5C1207,378.9 1204.5,399 1204.3,399C1207.7,402 1221.7,409.3 1240.3,411.4C1242.1,408.6 1244.2,404.7 1244.2,404.7L1247.5,412C1261.3,412.5 1277.1,409.9 1292.8,400.8C1304.2,443.4 1302.8,509 1307.6,535.8C1312.4,562.6 1314.2,568.8 1322,600.8C1328.8,628.6 1336,703.3 1339.2,741.3L1343.5,741.3C1340.2,704 1337.2,630.2 1330.3,602Z" style="fill:#422b28;fill-rule:nonzero;"/>
        </g>
        <path d="M1238.2,404.9L1244.5,391.5L1248.5,404.9C1264,404 1281,399 1298.6,387.8C1298.6,387.8 1282.1,348.1 1282.1,318.3C1282.1,291.2 1290.9,276.8 1294,262.5C1297.1,248.3 1285.3,210.7 1268.3,192.1C1263.7,187.1 1256.3,189.2 1250.8,188.5C1244.7,187.8 1232.6,182.7 1226.1,191.3C1216.6,204 1200.9,241.7 1200.9,257.6C1200.9,273.5 1211.6,296.4 1214,323.9C1216,347.3 1206.9,372.7 1204.5,395.8C1213.9,400.7 1225.4,404.2 1238.2,404.9Z" style="fill:#e0c1c6;fill-rule:nonzero;"/>
        <path d="M1231.6,189.3L1239.3,183.9L1251,191.4L1240.1,205.5L1231.6,189.3Z" style="fill:#cea1aa;fill-rule:nonzero;"/>
        <path d="M1270.7,190.7L1261.6,185.7L1247.9,191.8L1259.7,205.5L1270.7,190.7Z" style="fill:#cea1aa;fill-rule:nonzero;"/>
        <path d="M1231.1,184.9L1238.9,179L1250.6,187.3L1239.7,203L1231.1,184.9Z" style="fill:#fff;fill-rule:nonzero;"/>
        <path d="M1270.3,186.5L1261.1,181L1247.4,187.7L1259.3,203L1270.3,186.5Z" style="fill:#fff;fill-rule:nonzero;"/>
        <path d="M1214.5,144.1C1208.7,148.7 1195.4,142.6 1196.8,132.1C1198.2,121.6 1203,125.2 1207.8,128.5C1212.6,131.8 1214.5,144.1 1214.5,144.1Z" style="fill:#ffb781;fill-rule:nonzero;"/>
        <path d="M1211.3,141.8C1207.6,144.8 1199,140.8 1199.9,134.1C1200.8,127.3 1203.9,129.7 1207,131.7C1210.1,133.8 1211.3,141.8 1211.3,141.8Z" style="fill:#ef8f6f;fill-rule:nonzero;"/>
        <path d="M1212.4,144.1C1209.9,146.1 1204,143.4 1204.6,138.8C1205.2,134.2 1207.4,135.8 1209.5,137.2C1211.5,138.6 1212.4,144.1 1212.4,144.1Z" style="fill:#ffb781;fill-rule:nonzero;"/>
        <g>
            <path d="M1276.9,137.2C1283.5,140.9 1296.1,132.8 1293,122.6C1289.9,112.5 1285.6,116.8 1281.2,120.7C1276.9,124.7 1276.9,137.2 1276.9,137.2Z" style="fill:#ffb781;fill-rule:nonzero;"/>
            <path d="M1279.8,134.4C1284,136.8 1292.1,131.5 1290.2,125C1288.2,118.5 1285.4,121.2 1282.6,123.8C1279.8,126.3 1279.8,134.4 1279.8,134.4Z" style="fill:#ef8f6f;fill-rule:nonzero;"/>
            <path d="M1279.1,136.8C1282,138.4 1287.6,134.8 1286.2,130.4C1284.8,125.9 1282.9,127.8 1281,129.6C1279.1,131.3 1279.1,136.8 1279.1,136.8Z" style="fill:#ffb781;fill-rule:nonzero;"/>
        </g>
        <path d="M1207.1,141.5C1209.4,156.8 1228.9,171.7 1247.1,178.2C1261.7,173 1282.5,155.5 1280.6,134.9C1280,121 1272,99.8 1270.4,96.4C1260.6,74.5 1250.4,81.1 1237.1,81.8C1226.5,82.4 1212.4,69.3 1206.5,106.3C1205.6,111.6 1203.9,120.7 1207.1,141.5Z" style="fill:#ffb781;fill-rule:nonzero;"/>
        <path d="M1208.2,135.7L1201.6,125.2C1201.6,125.2 1200.6,112.1 1206.2,96.4L1208.2,135.7Z" style="fill:#333;fill-rule:nonzero;"/>
        <path d="M1243.8,164.5C1246.7,164.6 1249.2,162.9 1249.3,160.6C1249.4,158.3 1247.1,156.4 1244.2,156.3C1241.3,156.2 1238.8,157.9 1238.7,160.2C1238.6,162.5 1240.9,164.4 1243.8,164.5Z" style="fill:#472d1f;fill-rule:nonzero;"/>
        <path d="M1161.2,278.9C1165.9,282.6 1166.1,290.2 1161.7,295.7C1157.3,301.2 1146.1,306.5 1141.4,302.7C1136.7,299 1140.9,288.5 1145.3,283C1149.8,277.5 1156.6,275.2 1161.2,278.9Z" style="fill:#ffb781;fill-rule:nonzero;"/>
        <path d="M1317.2,279.8C1321,275.2 1328.5,275.1 1334,279.6C1339.4,284.1 1344.5,295.4 1340.6,300C1336.8,304.6 1326.4,300.2 1321,295.7C1315.6,291.3 1313.4,284.5 1317.2,279.8Z" style="fill:#ffb781;fill-rule:nonzero;"/>
        <g>
            <g>
                <path d="M1325.8,337.2L1160.2,337.2C1158.4,337.2 1156.9,335.7 1156.9,333.9L1156.9,240C1156.9,238.2 1158.4,236.7 1160.2,236.7L1325.8,236.7C1327.6,236.7 1329.1,238.2 1329.1,240L1329.1,333.9C1329.1,335.7 1327.6,337.2 1325.8,337.2Z" style="fill:#3c1d5c;fill-rule:nonzero;"/>
                <g>
                    <path d="M1326.1,256.3L1325.9,280.9L1325.9,282.7C1325.9,282.7 1324.8,245.2 1323,243.1C1321.2,241 1265.8,240.3 1263.2,240.3C1295.4,240.5 1322.8,240.9 1324.1,241.7C1325.4,242.5 1325.9,248.9 1326.1,256.3Z" style="fill:#fff;fill-opacity:0.29;fill-rule:nonzero;"/>
                    <path d="M1206.5,240.2C1206.5,240.2 1163.9,241.6 1162.5,243C1161.5,244 1160.4,263.8 1159.9,274.6C1160.4,259.1 1161,242.3 1161.4,241.6C1162,240.5 1179.8,240.5 1187,240.2L1206.5,240.2Z" style="fill:#fff;fill-opacity:0.29;fill-rule:nonzero;"/>
                    <path d="M1159.9,317.3L1160.1,292.7L1160.1,290.9C1160.1,290.9 1161.2,328.4 1163,330.5C1164.8,332.6 1220.2,333.3 1222.8,333.3C1190.6,333.1 1163.2,332.7 1161.9,331.9C1160.7,331.1 1160.1,324.7 1159.9,317.3Z" style="fill:#fff;fill-opacity:0.29;fill-rule:nonzero;"/>
                    <path d="M1279.5,333.3C1279.5,333.3 1322.1,331.9 1323.5,330.5C1324.5,329.5 1325.6,309.7 1326.1,298.9C1325.6,314.4 1325,331.2 1324.6,331.9C1324,333 1306.2,333 1299,333.3L1279.5,333.3Z" style="fill:#fff;fill-opacity:0.29;fill-rule:nonzero;"/>
                </g>
                <g>
                    <path d="M1205.6,278.8L1205.6,263.4C1205.6,263 1205.8,262.9 1206.1,262.9L1212.4,262.9C1213.7,262.9 1214.8,263.3 1215.5,264C1216.2,264.7 1216.6,265.8 1216.6,267.1L1216.6,275.2C1216.6,276.5 1216.2,277.6 1215.5,278.3C1214.8,279 1213.7,279.4 1212.4,279.4L1206.1,279.4C1205.8,279.3 1205.6,279.1 1205.6,278.8ZM1209.2,276.5L1212,276.5C1212.5,276.5 1212.9,276.4 1213.2,276.2C1213.5,276 1213.5,275.6 1213.5,275L1213.5,267.2C1213.5,266.7 1213.4,266.3 1213.2,266C1213,265.7 1212.6,265.7 1212,265.7L1209.2,265.7C1209,265.7 1208.9,265.8 1208.9,266L1208.9,276.3C1208.9,276.4 1209,276.5 1209.2,276.5Z" style="fill:#fff;fill-rule:nonzero;"/>
                    <path d="M1224.2,279.3L1223.6,279.3C1222.2,279.3 1221.2,278.9 1220.5,278.2C1219.8,277.5 1219.4,276.4 1219.4,275.1L1219.4,270.4C1219.4,269 1219.8,268 1220.5,267.3C1221.2,266.6 1222.3,266.2 1223.6,266.2L1229.5,266.2C1229.9,266.2 1230.1,266.4 1230.1,266.7L1230.1,278.7C1230.1,279.1 1229.9,279.2 1229.5,279.2L1227.3,279.2C1226.9,279.2 1226.8,279 1226.8,278.7L1226.8,277.9L1226.7,277.9C1226.5,278.4 1226.2,278.7 1225.7,278.9C1225.2,279.1 1224.7,279.3 1224.2,279.3ZM1226.8,274.5L1226.8,269.3C1226.8,269.1 1226.7,269 1226.5,269L1224.1,269C1223.6,269 1223.2,269.1 1222.9,269.3C1222.6,269.5 1222.6,269.9 1222.6,270.5L1222.6,274.9C1222.6,275.4 1222.7,275.8 1222.9,276.1C1223.1,276.4 1223.5,276.4 1224.1,276.4L1225.1,276.4C1226.2,276.5 1226.8,275.8 1226.8,274.5Z" style="fill:#fff;fill-rule:nonzero;"/>
                    <path d="M1235.6,279.3L1233.4,279.3C1233,279.3 1232.9,279.1 1232.9,278.8L1232.9,266.8C1232.9,266.4 1233.1,266.3 1233.4,266.3L1235.6,266.3C1236,266.3 1236.1,266.5 1236.1,266.8L1236.1,267.6L1236.2,267.6C1236.6,266.7 1237.4,266.2 1238.7,266.2L1239.5,266.2C1242.2,266.2 1243.5,267.6 1243.5,270.4L1243.5,278.8C1243.5,279.2 1243.3,279.3 1242.9,279.3L1240.7,279.3C1240.3,279.3 1240.2,279.1 1240.2,278.8L1240.2,270.6C1240.2,270.1 1240.1,269.7 1239.9,269.4C1239.7,269.1 1239.3,269.1 1238.7,269.1L1237.8,269.1C1236.6,269.1 1236,269.8 1236,271.1L1236,278.9C1236.2,279.1 1236,279.3 1235.6,279.3Z" style="fill:#fff;fill-rule:nonzero;"/>
                    <path d="M1246.5,264L1246.5,261.8C1246.5,261.5 1246.7,261.3 1247,261.3L1249.2,261.3C1249.5,261.3 1249.7,261.5 1249.7,261.8L1249.7,264.1C1249.7,264.4 1249.5,264.6 1249.2,264.6L1247,264.6C1246.7,264.5 1246.5,264.3 1246.5,264ZM1246.5,278.8L1246.5,266.8C1246.5,266.4 1246.7,266.3 1247,266.3L1249.2,266.3C1249.6,266.3 1249.7,266.5 1249.7,266.8L1249.7,278.8C1249.7,279 1249.7,279.2 1249.6,279.2C1249.5,279.2 1249.4,279.3 1249.2,279.3L1247,279.3C1246.7,279.3 1246.5,279.1 1246.5,278.8Z" style="fill:#fff;fill-rule:nonzero;"/>
                    <path d="M1262.4,279.3L1256.7,279.3C1255.3,279.3 1254.3,278.9 1253.6,278.2C1252.9,277.5 1252.5,276.4 1252.5,275.1L1252.5,270.4C1252.5,269 1252.9,268 1253.6,267.3C1254.3,266.6 1255.4,266.2 1256.7,266.2L1258.7,266.2C1260.1,266.2 1261.1,266.6 1261.8,267.3C1262.5,268 1262.9,269.1 1262.9,270.4L1262.9,273.7C1262.9,274.1 1262.7,274.2 1262.4,274.2L1255.9,274.2C1255.7,274.2 1255.6,274.3 1255.6,274.5L1255.6,275.1C1255.6,275.6 1255.7,276 1255.9,276.2C1256.1,276.4 1256.5,276.5 1257.1,276.5L1262.3,276.5C1262.7,276.5 1262.8,276.7 1262.8,277.1L1262.8,278.8C1262.8,279 1262.8,279.1 1262.7,279.2C1262.6,279.3 1262.6,279.3 1262.4,279.3ZM1256,272L1259.5,272C1259.7,272 1259.8,271.9 1259.8,271.7L1259.8,270.5C1259.8,270 1259.7,269.6 1259.5,269.3C1259.3,269 1258.9,269 1258.3,269L1257.2,269C1256.7,269 1256.3,269.1 1256,269.3C1255.8,269.5 1255.7,269.9 1255.7,270.5L1255.7,271.7C1255.7,271.9 1255.8,272 1256,272Z" style="fill:#fff;fill-rule:nonzero;"/>
                    <path d="M1268.3,279.3L1266.1,279.3C1265.7,279.3 1265.6,279.1 1265.6,278.8L1265.6,261.8C1265.6,261.4 1265.8,261.3 1266.1,261.3L1268.3,261.3C1268.7,261.3 1268.8,261.5 1268.8,261.8L1268.8,278.8C1268.8,279.1 1268.6,279.3 1268.3,279.3Z" style="fill:#fff;fill-rule:nonzero;"/>
                    <path d="M1276.4,279.3L1275.8,279.3C1274.4,279.3 1273.4,278.9 1272.7,278.2C1272,277.5 1271.6,276.4 1271.6,275.1L1271.6,270.4C1271.6,269 1272,268 1272.7,267.3C1273.4,266.6 1274.5,266.2 1275.8,266.2L1281.7,266.2C1282.1,266.2 1282.3,266.4 1282.3,266.7L1282.3,278.7C1282.3,279.1 1282.1,279.2 1281.7,279.2L1279.5,279.2C1279.1,279.2 1279,279 1279,278.7L1279,277.9L1278.9,277.9C1278.7,278.4 1278.4,278.7 1277.9,278.9C1277.4,279.2 1276.9,279.3 1276.4,279.3ZM1279,274.5L1279,269.3C1279,269.1 1278.9,269 1278.7,269L1276.3,269C1275.8,269 1275.4,269.1 1275.1,269.3C1274.9,269.5 1274.8,269.9 1274.8,270.5L1274.8,274.9C1274.8,275.4 1274.9,275.8 1275.1,276.1C1275.3,276.3 1275.7,276.4 1276.3,276.4L1277.3,276.4C1278.4,276.5 1279,275.8 1279,274.5Z" style="fill:#fff;fill-rule:nonzero;"/>
                </g>
                <rect x="1185.1" y="305.3" width="116.8" height="3.9" style="fill:#fff;fill-opacity:0.29;"/>
            </g>
            <g>
                <g>
                    <path d="M1178.8,278.5L1159.7,283.4L1172.3,275.8C1173.7,274.8 1173.3,273.5 1173.1,273L1166.2,276.2L1164.1,277.3C1162,278.2 1160.1,279.1 1158.4,280L1155.4,281.3L1142.4,294.5L1143.3,296.9L1145.9,299.2C1145.9,299.2 1152.2,298.9 1158,296.3C1165.1,296.3 1171,295 1171,295C1174.4,293.7 1171.8,292.6 1171.8,292.6C1168.6,293.9 1163.1,293.6 1162.3,293.5C1161.7,293.4 1161.1,293.4 1160.6,293.3L1160.7,292.8L1179.1,288.3C1181.6,287.3 1179.3,285.5 1179.3,285.5L1165.1,287.9L1161.9,288.1L1162.2,287.1L1161.9,287L1162.2,286.9L1179.8,282.2C1182.8,281.2 1181.8,278 1181.8,278L1178.8,278.5Z" style="fill:#ffb781;fill-rule:nonzero;"/>
                </g>
            </g>
            <g>
                <g>
                    <path d="M1307.1,275.5L1324.5,283L1313.6,273.9C1312.4,272.7 1313,271.5 1313.3,271.1L1319.4,275.2L1321.3,276.5C1323.2,277.7 1324.9,278.8 1326.3,280L1328.9,281.6L1339.3,296.1L1338.1,298.2L1335.3,300C1335.3,300 1329.3,298.7 1324.2,295.4C1317.5,294.4 1312.1,292.2 1312.1,292.2C1309.1,290.5 1311.7,289.8 1311.7,289.8C1314.6,291.5 1319.8,292 1320.6,292.1C1321.2,292.1 1321.8,292.2 1322.3,292.2L1322.3,291.7L1305.5,284.7C1303.3,283.4 1305.8,282 1305.8,282L1318.9,286.4L1321.9,287.1L1321.8,286.1L1322.1,286.1L1321.8,286L1305.8,278.8C1303.1,277.4 1304.6,274.5 1304.6,274.5L1307.1,275.5Z" style="fill:#ffb781;fill-rule:nonzero;"/>
                </g>
            </g>
        </g>
        <g>
            <path d="M1240.3,132.5C1237.8,137.6 1235.9,144.6 1237.8,146.1C1239.6,147.5 1247.6,146.4 1248.2,145.9C1248.8,145.3 1240.3,132.5 1240.3,132.5Z" style="fill:#e97b59;fill-rule:nonzero;"/>
            <path d="M1242.4,131.1C1239.9,136.2 1238,143.2 1239.9,144.7C1241.7,146.1 1249.7,145 1250.3,144.5C1250.9,143.8 1242.4,131.1 1242.4,131.1Z" style="fill:#ffb781;fill-rule:nonzero;"/>
            <g>
                <path d="M1209.4,117.1L1208.6,116C1212.1,108.2 1221.9,103.6 1226.7,103L1227.7,106.3C1223.7,106.3 1213.7,110.4 1209.4,117.1Z" style="fill:#333;fill-rule:nonzero;"/>
            </g>
            <g>
                <path d="M1269,108.4L1269.4,107.1C1263.6,100.7 1253,99.3 1248.2,100.2L1248.3,103.7C1252,102.5 1262.9,103.3 1269,108.4Z" style="fill:#333;fill-rule:nonzero;"/>
            </g>
            <g>
                <path d="M1251.4,126.7C1249.5,125.1 1251,117.9 1257.1,114.7C1263.2,111.6 1267.3,115.3 1267.8,117C1268.3,118.7 1267.9,121.9 1264.5,124.2C1261.1,126.4 1257.9,126.5 1256.1,126.7C1253.9,126.9 1252.5,127.6 1251.4,126.7Z" style="fill:#fff;fill-rule:nonzero;"/>
                <circle cx="1258" cy="118.9" r="5.7" style="fill:#39170b;"/>
                <circle cx="1259.5" cy="122.1" r="2.3" style="fill:#fff;"/>
                <path d="M1250.7,125.2C1250.7,125.2 1249.3,122.1 1252.5,117.1C1255.7,112.1 1261.1,112.2 1262.5,111.7C1263.9,111.2 1265.5,111.4 1265.1,111.8C1264.7,112.3 1266.2,113.2 1267.3,112.7C1268.4,112.2 1267.5,113.7 1267.6,114.1C1267.7,114.5 1269.6,114 1269.9,114.4C1270.2,114.8 1269,116 1269.3,116C1269.6,116 1270.9,116.7 1270.4,117.2C1269.9,117.7 1269.1,119.2 1268.8,119.8C1268.4,120.4 1267.3,121.1 1267.3,121.1C1267.3,121.1 1268.2,118.2 1267.1,116.5C1265.9,114.8 1263.3,113.2 1259.7,114.2C1256.1,115.3 1254.1,117.4 1252.8,119.2C1251.4,120.9 1250.7,125.2 1250.7,125.2Z" style="fill:#39170b;fill-rule:nonzero;"/>
            </g>
            <g>
                <path d="M1230.9,129.1C1232.3,127.1 1229.2,120.4 1222.6,118.8C1215.9,117.2 1212.8,121.8 1212.7,123.5C1212.6,125.3 1213.7,128.3 1217.6,129.7C1221.5,131.1 1224.5,130.4 1226.3,130.2C1228.5,129.9 1230.1,130.2 1230.9,129.1Z" style="fill:#fff;fill-rule:nonzero;"/>
                <circle cx="1222.7" cy="123.1" r="5.7" style="fill:#39170b;"/>
                <circle cx="1222" cy="126.5" r="2.3" style="fill:#fff;"/>
                <path d="M1231.2,127.5C1231.2,127.5 1231.8,124.1 1227.5,120.1C1223.2,116 1218,117.3 1216.5,117.2C1215,117 1213.5,117.6 1214,117.9C1214.5,118.3 1213.2,119.5 1212.1,119.3C1210.9,119.1 1212.1,120.3 1212.2,120.7C1212.2,121.1 1210.2,121.1 1210.1,121.5C1210,121.9 1211.3,122.8 1211,122.9C1210.7,123 1209.6,123.9 1210.2,124.3C1210.8,124.6 1211.9,125.9 1212.4,126.4C1212.9,126.9 1214.2,127.3 1214.2,127.3C1214.2,127.3 1212.6,124.7 1213.4,122.7C1214.2,120.7 1216.3,118.6 1220,118.8C1223.7,119 1226.2,120.6 1227.9,122C1229.6,123.5 1231.2,127.5 1231.2,127.5Z" style="fill:#39170b;fill-rule:nonzero;"/>
            </g>
        </g>
    </g>
    <g>
        <g>
            <path d="M1052.7,101.5C1060,105.6 1074.1,96.6 1070.7,85.2C1067.3,73.9 1062.4,78.7 1057.5,83.1C1052.7,87.5 1052.7,101.5 1052.7,101.5Z" style="fill:#ffb781;fill-rule:nonzero;"/>
            <path d="M1055.9,98.4C1060.6,101 1069.7,95.2 1067.5,87.9C1065.3,80.6 1062.2,83.7 1059,86.5C1055.9,89.4 1055.9,98.4 1055.9,98.4Z" style="fill:#ef8f6f;fill-rule:nonzero;"/>
            <path d="M1055.1,101.1C1058.3,102.9 1064.6,98.9 1063.1,93.9C1061.6,88.9 1059.4,91 1057.3,93C1055.1,94.9 1055.1,101.1 1055.1,101.1Z" style="fill:#ffb781;fill-rule:nonzero;"/>
        </g>
        <g>
            <path d="M983.5,103.5C976.2,107.6 962.1,98.6 965.5,87.2C968.9,75.9 973.8,80.7 978.7,85.1C983.5,89.5 983.5,103.5 983.5,103.5Z" style="fill:#ffb781;fill-rule:nonzero;"/>
            <path d="M980.3,100.3C975.6,102.9 966.5,97.1 968.7,89.8C970.9,82.5 974,85.6 977.2,88.4C980.3,91.3 980.3,100.3 980.3,100.3Z" style="fill:#ef8f6f;fill-rule:nonzero;"/>
            <path d="M981.1,103.1C977.9,104.9 971.6,100.9 973.1,95.9C974.6,90.9 976.8,93 978.9,95C981.1,96.9 981.1,103.1 981.1,103.1Z" style="fill:#ffb781;fill-rule:nonzero;"/>
        </g>
        <path d="M974.8,339.1C999.5,311.3 1034,309.6 1060.1,335.7C1097.8,393.6 1090.3,547.8 1089.7,561C1089.1,574.3 1097.8,575.4 1099.9,603.6C1101.9,631.8 1090.7,664.9 1084.8,713.3L1058.4,717.3C1062.7,634.8 1046.6,429.3 1018.8,444.1C1004.4,451.7 988,559.8 987.3,572C986.6,584.3 994,591.6 992.4,615.1C990.9,638.6 961.6,726.5 961.6,726.5L935.9,729.3C959.3,576.7 958.9,438.7 953.1,395.3C952.2,388.3 970,344.5 974.8,339.1Z" style="fill:#163766;fill-rule:nonzero;"/>
        <g>
            <path d="M1083.7,561.6C1084.3,548.3 1070.7,409.7 1053.6,384.5C1032.8,339.5 1053.5,324.6 1061.6,332.7C1099.3,390.6 1090.3,547.6 1089.7,560.9C1089.1,574.2 1097.8,575.3 1099.9,603.5C1101.9,631.7 1090.7,664.8 1084.8,713.2L1078.8,713.8C1084.8,665.4 1096,632.3 1093.9,604.1C1091.9,576 1083.1,574.9 1083.7,561.6Z" style="fill:#04224b;fill-rule:nonzero;"/>
            <path d="M981.3,572.7C982,560.4 998.3,452.4 1012.8,444.8C1015.3,443.5 1017.8,443.1 1020.2,443.5C1019.7,443.7 1019.3,443.9 1018.9,444.1C1004.5,451.7 988.1,559.8 987.4,572C986.7,584.3 994.1,591.6 992.5,615.1C991,638.6 961.7,726.5 961.7,726.5L955.7,727.1C955.7,727.1 984.9,639.2 986.5,615.7C988,592.3 980.6,584.9 981.3,572.7Z" style="fill:#04224b;fill-rule:nonzero;"/>
        </g>
        <path d="M988.3,433.2C994.1,438.2 1019.8,447.1 1040.1,438.2C1040.1,438.2 1029.9,451.7 1010.3,447.4C990.8,443.2 988.3,433.2 988.3,433.2Z" style="fill:#04224b;fill-rule:nonzero;"/>
        <path d="M1123.9,255.2C1122.5,251.2 1121,247.3 1120,243.5C1119.1,240.3 1118.5,237.1 1118.5,234C1118.5,233.1 1118.5,232.1 1118.4,231C1117.6,217.6 1112.2,195.1 1106.8,188.4C1101,181.1 1083.4,179.3 1083.4,179.3L1078.6,177.6L1075.5,176.5L1069.9,174.6L1056.7,170L1049.9,167.6C1049.4,167.4 1049,167.2 1048.6,167C1047.7,166.4 1046.9,165.7 1046.3,164.8C1046,164.3 995.6,166.8 993.4,167.6L973.4,174.8L967.8,176.8L959.9,179.6C959.9,179.6 942.4,181.5 936.5,189.1C931.1,196.1 925.7,219.4 924.9,233.4C924.8,234.5 924.8,235.5 924.8,236.5C924.8,243.7 922,250.8 919.4,258.6C919.1,259.4 918.9,260.2 918.6,261L918.6,261.1C917.3,265.2 901.7,304.6 901.8,316.8C901.8,340.3 936,336.2 941.2,333.2C948.1,329.3 945.6,314.1 944.4,310.5C943.9,308.9 944,306.4 944.6,303.4C944.7,302.8 944.8,302.2 945,301.6C945.4,300.1 945.8,298.6 946.3,296.9C946.5,296.2 946.8,295.4 947,294.7C947.2,294.2 947.3,293.7 947.5,293.2C948.6,290.1 949.8,286.9 951.1,283.8C951.2,283.5 951.3,283.2 951.5,282.9C951.6,282.6 951.7,282.3 951.9,282C952.1,281.6 952.3,281.1 952.4,280.7C953.1,278.9 953.9,277.2 954.6,275.6C954.9,275 955.1,274.4 955.4,273.8C956,272.4 956.6,271 957.2,269.8C958.3,267.5 959.2,265.4 960,263.9C960.9,262.1 961.4,261 961.4,261L962.1,263.4L964.5,271.9L964.9,273.2L965.9,276.8L966.1,277.4L966.9,280.3C966.9,280.3 967.6,312.5 965.9,324.3C964.3,336.1 948.1,384.5 950.1,400.2C952.1,416.2 1081.3,414 1086.2,402.2C1091.1,390.4 1074.1,328.7 1074.4,317.4C1074.7,306.1 1076.2,277.2 1076.2,277.2L1077.3,273.4L1077.5,272.8L1078.5,269.4L1078.9,268L1082,257.6C1082,257.6 1083,259.5 1084.4,262.4C1084.8,263.2 1085.3,264.2 1085.7,265.1C1085.8,265.4 1086,265.7 1086.1,266C1086.1,266.1 1086.2,266.2 1086.2,266.3C1086.5,266.9 1086.8,267.5 1087.1,268.2L1087.1,268.3C1087.1,268.3 1087.1,268.4 1087.2,268.4C1087.4,268.9 1087.7,269.4 1087.9,270C1088.1,270.3 1088.2,270.7 1088.4,271C1088.4,271.1 1088.5,271.1 1088.5,271.2C1089.2,272.6 1089.8,274.1 1090.5,275.7C1090.5,275.8 1090.6,275.9 1090.6,276C1091,276.8 1091.3,277.7 1091.7,278.5C1091.7,278.6 1091.8,278.7 1091.9,278.9C1092.4,280 1092.8,281.1 1093.2,282.1C1093.4,282.6 1093.6,283.1 1093.8,283.6C1093.9,283.8 1093.9,283.9 1094,284.1C1094,284.2 1094.1,284.3 1094.1,284.5C1094.1,284.6 1094.2,284.7 1094.2,284.8C1094.4,285.4 1094.7,286 1094.9,286.5C1095,286.7 1095,286.8 1095.1,287C1095.1,287.1 1095.2,287.2 1095.2,287.4C1095.2,287.5 1095.3,287.6 1095.3,287.7C1095.9,289.2 1096.4,290.8 1096.9,292.2C1097,292.4 1097,292.5 1097.1,292.7L1097.1,292.8C1097.4,293.8 1097.7,294.7 1097.9,295.6C1099,299.8 1097.2,312.6 1097,316.5C1096.9,317.8 1096.7,328.9 1099.8,333.2C1109.4,346.2 1139.2,338.8 1139.2,318.4C1139.5,310.5 1124.1,256 1123.9,255.2Z" style="fill:#1c3e72;fill-rule:nonzero;"/>
        <path d="M1020.4,150.6L1020,150.6L1020.4,150.6Z" style="fill:#328e97;fill-rule:nonzero;"/>
        <path d="M1020,150.6L1019.5,150.6L1020,150.6Z" style="fill:#328e97;fill-rule:nonzero;"/>
        <path d="M1044.7,52.3C1044.7,52.3 1044.4,52.9 1043.6,53.8C1042.5,55 1040.5,56.7 1037.2,58C1035.9,58.5 1034.5,58.9 1032.8,59.2C1027.1,60.2 1019.8,57.7 1015,55.7C1012.1,54.5 1010.1,53.4 1010,53.4C1010.1,53.4 1020.9,55.5 1029.6,53.9C1030.1,53.8 1030.5,53.7 1030.9,53.6C1038.4,51.5 1041.8,43.9 1042.1,43.4C1042.1,43.5 1041.9,44 1041.6,44.7C1041.3,45.6 1040.7,46.7 1039.9,48L1039.8,48.1C1038.8,49.6 1036.6,51.9 1035.3,53.6C1034.3,54.9 1033.8,55.9 1035,55.9C1036.5,55.9 1039.5,54.7 1041.7,53.7C1043.4,53 1044.7,52.3 1044.7,52.3Z" style="fill:url(#_Linear1);fill-rule:nonzero;"/>
        <path d="M1035.7,47.4C1033.7,49.3 1032.7,50.8 1028.9,51.7C1022.4,53.3 1019.7,48.5 1014.2,48C1010.5,47.6 1008.6,50.9 1007.7,53C1007.3,54 1007.1,54.9 1007.1,54.9C1007.1,54.9 1007,54.1 1006.3,53C1005.5,51.8 1003.8,50.2 1000.6,49.1C996.4,47.6 991.4,51.9 988.8,54.6C990.6,52.5 992.7,50.6 994.8,49.6C1001.8,46.2 1004.6,48.9 1004.6,48.9L1006.7,46.2C1006.8,46.1 1006.8,46 1006.9,46C1009.4,43.6 1019.7,44.9 1022.4,42.9C1025,41 1018.6,36.9 1017.4,36.1C1017.4,36.1 1017.3,36.1 1017.3,36L1017.2,36C1017.2,36 1020,36 1024.9,39.4C1029.8,42.8 1023.5,45.5 1023.5,45.5C1023.5,45.5 1027.9,46.6 1030,43.9C1032,41.3 1028.2,36.5 1027.8,36C1028,36.1 1030.2,36.8 1034.9,40.7C1038.5,43.6 1035.7,47.4 1035.7,47.4Z" style="fill:url(#_Linear2);fill-rule:nonzero;"/>
        <path d="M980.1,170.6C997.3,165.1 1015.9,158.2 1022.5,156.9C1028.3,155.8 1044.6,164 1059.7,171.2L1009.7,288.8L980.1,170.6Z" style="fill:#fff;fill-rule:nonzero;"/>
        <path d="M1010,183.4L1005.9,187.7L989.5,167.5L995,164.8L1015.7,174.8L1047.3,164.9L1052.4,168.1L1025.2,188.1L1022.2,184.1L1020.5,186.6L1021.8,260.5L1017,272.3L1003.8,265.8L1001.9,257.8L1011.9,186.3L1010,183.4Z" style="fill:#e5e5e5;fill-rule:nonzero;"/>
        <path d="M1045,132.1L1046.5,165.2L1019.3,172.2L994.2,165.6L998.7,127.7L1045,132.1Z" style="fill:#f4b17e;fill-rule:nonzero;"/>
        <path d="M1009.4,296L1020.2,265.2L1019.3,172.2L1015.5,171.8L1003,264.4L1009.4,296Z" style="fill:#f7953e;fill-rule:nonzero;"/>
        <path d="M1015.8,189.9L1023.2,179.9L1021.3,171.2L1013.3,170.2L1009.7,179.9L1015.8,189.9Z" style="fill:#f7953e;fill-rule:nonzero;"/>
        <path d="M1025.3,187.7L1018.6,170.8L1046.8,160L1050.2,165.9L1025.3,187.7Z" style="fill:#fff;fill-rule:nonzero;"/>
        <path d="M1005.9,187.7L1016.1,170L994.3,162.2L991.4,165.9L1005.9,187.7Z" style="fill:#fff;fill-rule:nonzero;"/>
        <path d="M1058.8,68.5C1058.1,74.3 1056.7,79.8 1055.9,83.9C1055.7,84.7 1055.6,85.4 1055.5,86C1055.4,86.9 1055.3,87.7 1055.3,88.4C1055.3,90.7 1055.6,92.6 1056,94.1C1056.8,97.1 1058,98.9 1058,101.2C1058,101.9 1057.9,102.8 1057.7,103.9C1057.6,104.8 1057.4,105.8 1057.2,106.9C1057,108 1056.8,109.2 1056.6,110.5C1055.9,114.4 1055.3,118.6 1055.3,121.6C1055.3,124 1055.3,126 1055.2,127.8C1055.1,130.4 1054.7,132.4 1053.6,134.5C1052.4,136.8 1047.9,139.4 1044,142.4C1043.9,142.4 1043.8,142.5 1043.8,142.5C1043.7,142.6 1043.6,142.6 1043.5,142.7C1041.8,144.1 1040.1,145.5 1039,147L1038.9,147.1C1035.7,151.6 1027.6,152.8 1020.2,153L1017.1,153C1009.3,152.9 1000,152 996.5,147.2L996.4,147.1C995.9,146.4 995.2,145.6 994.5,144.9C994.4,144.8 994.4,144.8 994.3,144.7C990.1,140.8 983.7,137.9 982.1,135C980.3,131.6 980.1,127.4 980.1,121.5C980.1,118.6 979.5,114.5 978.8,110.6C978.6,109.2 978.3,107.8 978.1,106.5C978.1,106.2 978,105.9 978,105.6L978,105.5C977.7,103.6 977.5,102 977.5,101C977.5,98.9 978.6,97.1 979.4,94.3C979.7,93.2 980,91.9 980.1,90.3L980.1,90.1C980.1,89.5 980.2,88.9 980.2,88.2C980.2,87.7 980.2,87.1 980.1,86.4L980.1,86.3C980.1,86.1 980.1,86 980,85.8C979.7,83.9 979.2,81.7 978.7,79.2C977.2,72.2 975.3,63.2 977.2,55.2C977.5,54 977.9,52.8 978.3,51.6C978.3,51.6 978.3,51.5 978.4,51.5C978.8,50.5 979.4,49.5 980.1,48.6C987.8,38.6 1009.6,36.3 1010.8,36.2L1010.9,36.2L1017.7,37L1024.5,36.2C1024.5,36.2 1031.3,36.9 1038.7,39.1C1041.2,39.9 1043.8,40.8 1046.2,41.9C1047.7,42.6 1049,43.4 1050.3,44.2C1053.3,46.2 1055.6,48.6 1056.9,51.5C1057.2,52.1 1057.4,52.7 1057.6,53.4C1059.4,58.3 1059.4,63.6 1058.8,68.5Z" style="fill:#ffb781;fill-rule:nonzero;"/>
        <path d="M980.4,90.3C980.4,90.3 980.4,90.4 980.3,90.5C980.3,90.4 980.3,90.4 980.4,90.3Z" style="fill:#e68870;fill-opacity:0.52;fill-rule:nonzero;"/>
        <path d="M1060.4,77.3L1058.5,80.8L1055.6,86.1L1055.3,86.7C1055.3,86.7 1055.4,86.2 1055.4,85.5C1055.4,85.2 1055.5,85 1055.5,84.6C1055.8,81.8 1056.2,76.3 1055.9,70.2C1055.8,68 1055.6,65.8 1055.2,63.6C1054.5,59.1 1053.8,55 1053.2,51.8C1052.3,47 1051.2,44.7 1049.2,45.6C1049.1,45.6 1049,45.7 1048.8,45.8C1047.5,46.4 1045.6,47 1042.8,47.6C1042.7,47.6 1042.5,47.7 1042.4,47.7C1042.1,47.8 1041.8,47.8 1041.6,47.9C1041.5,47.9 1041.3,48 1041.2,48C1040.4,48.2 1039.5,48.3 1038.6,48.4C1036.7,48.7 1034.8,48.8 1032.9,48.7L1031.5,48.7C1030.9,48.7 1030.4,48.6 1029.8,48.6C1029.6,48.6 1029.4,48.6 1029.1,48.5L1028.8,48.5C1028.6,48.5 1028.4,48.5 1028.2,48.4C1027.8,48.3 1027.4,48.3 1027,48.2C1026.8,48.2 1026.6,48.1 1026.4,48.1C1026.1,48.1 1025.8,48 1025.5,48C1025.2,48 1024.9,47.9 1024.7,47.8C1024.6,47.8 1024.5,47.8 1024.4,47.7C1024.3,47.7 1024.1,47.6 1024,47.6L1023.8,47.6C1023.5,47.5 1023.3,47.5 1023.1,47.4C1023,47.4 1022.8,47.3 1022.7,47.3C1022.6,47.3 1022.5,47.3 1022.4,47.2C1022.3,47.2 1022.2,47.2 1022.2,47.1C1022.1,47.1 1021.9,47 1021.8,47C1021.7,47 1021.6,47 1021.6,46.9C1021.5,46.9 1021.5,46.9 1021.4,46.8C1021.3,46.8 1021.2,46.7 1021,46.7C1020.8,46.6 1020.6,46.6 1020.4,46.5L1020.2,46.5C1019.8,46.4 1019.5,46.3 1019.2,46.2C1018.9,46.1 1018.7,46.1 1018.6,46C1018.7,46 1019,46.1 1019.5,46.3C1019.7,46.4 1019.9,46.5 1020.1,46.6C1020.2,46.7 1020.3,46.8 1020.5,46.8L1020.6,46.9C1020.7,47 1020.8,47 1020.9,47.1C1021,47.2 1021.1,47.2 1021.1,47.3C1021.2,47.4 1021.3,47.5 1021.4,47.6C1021.6,47.8 1021.8,48.1 1022,48.3C1022,48.4 1022.1,48.4 1022.1,48.5C1022.2,48.6 1022.2,48.7 1022.3,48.8L1022.5,49C1022.6,49.1 1022.7,49.3 1022.8,49.4C1023.1,49.8 1023.3,50.2 1023.6,50.6C1024.9,52.9 1026,55.6 1026.6,57.4C1026.7,57.6 1026.7,57.8 1026.8,58C1026.8,58.1 1026.8,58.1 1026.9,58.2L1026.9,58.3C1026.9,58.4 1027,58.5 1027,58.6C1027,58.7 1027,58.7 1027.1,58.8L1027.1,58.9C1027.2,59.3 1027.3,59.6 1027.4,59.7L1027.4,59.6C1027.4,59.6 1027.4,59.5 1027.3,59.5C1027,59 1026.1,57.5 1024.4,55.6C1024.3,55.5 1024.2,55.4 1024.2,55.3C1024.1,55.2 1024.1,55.2 1024,55.1C1023.7,54.7 1023.3,54.4 1022.9,54L1022.8,53.9C1019.6,51 1014.6,47.6 1007.3,46C1007.1,46 1006.9,45.9 1006.6,45.9C1006.4,45.9 1006.2,45.8 1006,45.8C1005.8,45.8 1005.6,45.7 1005.4,45.7C1001.6,45.2 998,45.7 994.9,46.7C994.6,46.8 994.3,46.9 994.1,47C992.1,47.7 990.3,48.6 988.7,49.6C988,50 987.3,50.5 986.6,50.9C982.7,53.6 980.1,56.4 979.4,57.1C978.3,58.2 979.8,71 980.5,79.7C980.7,81.9 980.8,83.9 980.8,85.3L980.8,86C980.8,86.4 980.8,86.7 980.7,87C980.7,87.3 980.6,87.5 980.5,87.6C980.4,87.7 980.4,87.7 980.3,87.7C979.9,87.7 979,85.6 978,82.2C974.8,71.4 969.8,48.4 969.8,48.4C969.8,48.4 971.5,44.8 974.3,40.6C975.7,38.5 977.3,36.3 979,34.2C981.3,31.5 983.8,29.2 986.4,27.9C995.2,23.6 998.7,27 998.7,27L1001.3,23.6C1001.4,23.5 1001.5,23.4 1001.6,23.3C1004.6,20.2 1015.5,21 1018.9,18.5C1022,16.2 1016,11.9 1014.7,11C1014.7,11 1014.6,11 1014.6,10.9L1014.5,10.9C1014.5,10.9 1018,10.9 1024.1,15.2C1030.2,19.5 1022.3,22.9 1022.3,22.9C1022.3,22.9 1025.8,22.9 1028.4,19.5C1030.9,16.3 1027.9,11.5 1027.6,11C1027.6,11 1032.9,11 1039,16.1C1043.4,19.8 1041.4,23.1 1040,24.6C1039.9,24.7 1039.8,24.8 1039.8,24.8L1046,19.5L1044.8,21.9L1042.6,26.1L1042,27L1050.8,27C1056.1,27 1058.6,23.6 1059.7,21.3L1056.9,28.7L1063,25.3L1058.6,33C1058.6,33 1061.2,33.9 1063,40.7C1063.3,41.8 1063.4,43.4 1063.4,45.5C1063.5,56.2 1060.4,77.3 1060.4,77.3Z" style="fill:#a1332d;fill-rule:nonzero;"/>
        <path d="M978.9,57.7C977.8,58.8 979.3,71.6 980,80.3C980.2,82.5 980.3,84.5 980.3,85.9L980.3,86.6C980.3,87 980.3,87.3 980.2,87.6L980,88.2C979.9,88.3 979.9,88.3 979.8,88.3C979.4,88.3 978.5,86.2 977.5,82.8C974.3,72 969.3,49 969.3,49C969.3,49 971,45.4 973.8,41.2C973.4,44.5 973.5,47.8 975,49.8C975.8,50.8 977.1,51.4 978.6,51.7C978.8,51.7 979,51.8 979.2,51.8C981.4,52.1 983.9,51.8 986.2,51.3C982.3,54.2 979.7,57 978.9,57.7Z" style="fill:#7e251e;fill-rule:nonzero;"/>
        <path d="M1060.4,77.3L1058.5,80.8L1055.6,86.1L1055.5,86.3L1055.4,85.6C1055.4,85.3 1055.5,85.1 1055.5,84.7C1055.8,81.9 1056.2,76.4 1055.9,70.3C1055.8,68.1 1055.6,65.9 1055.2,63.7C1054.5,59.2 1053.8,55.1 1053.2,51.9C1054.5,52.6 1056.3,53.3 1057.9,53.7C1058.6,53.8 1059.2,53.9 1059.8,53.9C1060.4,53.9 1060.9,53.7 1061.3,53.4C1062.6,52.5 1063.2,49 1063.6,45.5C1063.5,56.2 1060.4,77.3 1060.4,77.3Z" style="fill:#7e251e;fill-rule:nonzero;"/>
        <path d="M1051.7,36.8L1051,44L1049.2,45.6C1047.3,46.4 1044.1,47.5 1038.6,48.3C1027.2,50 1014.9,44.9 1019.3,46.6C1023.6,48.3 1027.1,60.1 1027.2,60.2C1027.1,60 1021.8,49.9 1007,46.6C999.7,44.9 993.2,47.2 988.3,50.1L987.9,50C987.9,50 1002.8,39.4 1011.7,42.1C1020.5,44.7 1021.9,46.1 1021.9,46.1C1021.9,46.1 1028.7,48.1 1038.9,45.4C1049,42.7 1051.7,36.8 1051.7,36.8Z" style="fill:#7e251e;fill-rule:nonzero;"/>
        <g>
            <g>
                <path d="M1101.2,321.4L935.6,321.4C933.8,321.4 932.3,319.9 932.3,318.1L932.3,224.2C932.3,222.4 933.8,220.9 935.6,220.9L1101.2,220.9C1103,220.9 1104.5,222.4 1104.5,224.2L1104.5,318.1C1104.5,320 1103,321.4 1101.2,321.4Z" style="fill:#3c1d5c;fill-rule:nonzero;"/>
                <g>
                    <path d="M1101.5,240.5L1101.3,265.1L1101.3,266.9C1101.3,266.9 1100.2,229.4 1098.4,227.3C1096.6,225.2 1041.2,224.5 1038.6,224.5C1070.8,224.7 1098.2,225.1 1099.5,225.9C1100.7,226.7 1101.3,233.1 1101.5,240.5Z" style="fill:#fff;fill-opacity:0.29;fill-rule:nonzero;"/>
                    <path d="M981.9,224.5C981.9,224.5 939.3,225.9 937.9,227.3C936.9,228.3 935.8,248.1 935.3,258.9C935.8,243.4 936.4,226.6 936.8,225.9C937.4,224.8 955.2,224.8 962.4,224.5L981.9,224.5Z" style="fill:#fff;fill-opacity:0.29;fill-rule:nonzero;"/>
                    <path d="M935.3,301.5L935.5,276.9L935.5,275.1C935.5,275.1 936.6,312.6 938.4,314.7C940.2,316.8 995.6,317.5 998.2,317.5C966,317.3 938.6,316.9 937.3,316.1C936,315.3 935.5,308.9 935.3,301.5Z" style="fill:#fff;fill-opacity:0.29;fill-rule:nonzero;"/>
                    <path d="M1054.9,317.6C1054.9,317.6 1097.5,316.2 1098.9,314.8C1099.9,313.8 1101,294 1101.5,283.2C1101,298.7 1100.4,315.5 1100,316.2C1099.4,317.3 1081.6,317.3 1074.4,317.6L1054.9,317.6Z" style="fill:#fff;fill-opacity:0.29;fill-rule:nonzero;"/>
                </g>
                <g>
                    <path d="M989.7,263.5L987,263.5C985.6,263.5 984.6,263.1 983.9,262.4C983.2,261.7 982.8,260.6 982.8,259.3L982.8,251.2C982.8,249.8 983.2,248.8 983.9,248.1C984.6,247.4 985.7,247 987,247L989.7,247C991,247 992.1,247.4 992.8,248.1C993.5,248.8 993.9,249.9 993.9,251.2L993.9,252C993.9,252.4 993.7,252.6 993.4,252.6L991.2,252.6C990.8,252.6 990.7,252.4 990.7,252L990.7,251.4C990.7,250.9 990.6,250.5 990.4,250.2C990.2,249.9 989.8,249.9 989.2,249.9L987.5,249.9C987,249.9 986.6,250 986.4,250.2C986.2,250.4 986.1,250.8 986.1,251.4L986.1,259.2C986.1,259.7 986.2,260.1 986.4,260.4C986.6,260.6 987,260.7 987.5,260.7L989.2,260.7C989.7,260.7 990.1,260.6 990.4,260.4C990.7,260.2 990.7,259.8 990.7,259.2L990.7,257.6C990.7,257.4 990.6,257.3 990.4,257.3L988.9,257.3C988.5,257.3 988.4,257.1 988.4,256.8L988.4,255C988.4,254.6 988.6,254.5 988.9,254.5L993.4,254.5C993.8,254.5 994,254.7 994,255.1L994,259.4C994,260.7 993.6,261.8 992.9,262.5C992.1,263.2 991,263.5 989.7,263.5Z" style="fill:#fff;fill-rule:nonzero;"/>
                    <path d="M1001.5,263.5L1000.7,263.5C999.4,263.5 998.4,263.1 997.7,262.4C997,261.7 996.7,260.6 996.7,259.3L996.7,251C996.7,250.6 996.9,250.5 997.2,250.5L999.4,250.5C999.8,250.5 999.9,250.7 999.9,251L999.9,259.2C999.9,259.7 1000,260.1 1000.2,260.4C1000.4,260.7 1000.8,260.7 1001.3,260.7L1002.3,260.7C1003.5,260.7 1004.1,260 1004.1,258.7L1004.1,251C1004.1,250.6 1004.3,250.5 1004.6,250.5L1006.8,250.5C1007.2,250.5 1007.4,250.7 1007.4,251L1007.4,263C1007.4,263.4 1007.2,263.5 1006.8,263.5L1004.6,263.5C1004.2,263.5 1004.1,263.3 1004.1,263L1004.1,262.2L1004,262.2C1003.8,262.7 1003.5,263 1003,263.2C1002.5,263.4 1002,263.5 1001.5,263.5Z" style="fill:#fff;fill-rule:nonzero;"/>
                    <path d="M1015.1,263.5L1010.2,263.5C1009.9,263.5 1009.7,263.3 1009.7,263L1009.7,261.4C1009.7,261.2 1009.7,261.1 1009.8,261C1009.9,260.9 1010,260.9 1010.2,260.9L1014.5,260.9C1015.3,260.9 1015.8,260.6 1015.8,260.1L1015.8,260C1015.8,259.6 1015.4,259.2 1014.7,258.8L1012.2,257.4C1011.3,257 1010.7,256.5 1010.3,256C1009.9,255.5 1009.7,254.8 1009.7,254C1009.7,252.8 1010,251.9 1010.7,251.4C1011.3,250.8 1012.3,250.6 1013.7,250.6L1018,250.6C1018.3,250.6 1018.5,250.8 1018.5,251.1L1018.5,252.8C1018.5,253 1018.5,253.1 1018.4,253.2C1018.3,253.3 1018.2,253.3 1018,253.3L1014.4,253.3C1013.6,253.3 1013.1,253.5 1013.1,253.9L1013.1,254C1013.1,254.4 1013.5,254.8 1014.2,255.2L1016.8,256.7C1017.7,257.2 1018.3,257.7 1018.7,258.2C1019.1,258.7 1019.2,259.4 1019.2,260.2C1019.2,262.4 1017.8,263.5 1015.1,263.5Z" style="fill:#fff;fill-rule:nonzero;"/>
                    <path d="M1021.7,253.3L1020.7,253.3C1020.5,253.3 1020.4,253.3 1020.3,253.2C1020.2,253.1 1020.2,253 1020.2,252.8L1020.2,251C1020.2,250.6 1020.4,250.5 1020.7,250.5L1021.7,250.5C1021.9,250.5 1022,250.4 1022,250.2L1022,247.8C1022,247.4 1022.2,247.3 1022.6,247.3L1024.8,247.3C1025.2,247.3 1025.3,247.5 1025.3,247.8L1025.3,250.2C1025.3,250.4 1025.4,250.5 1025.6,250.5L1027.6,250.5C1028,250.5 1028.1,250.7 1028.1,251L1028.1,252.8C1028.1,253 1028.1,253.1 1028,253.2C1027.9,253.3 1027.8,253.3 1027.6,253.3L1025.6,253.3C1025.4,253.3 1025.3,253.4 1025.3,253.6L1025.3,259.3C1025.3,259.8 1025.4,260.2 1025.7,260.4C1026,260.6 1026.3,260.7 1026.9,260.7L1027.9,260.7C1028.3,260.7 1028.4,260.9 1028.4,261.2L1028.4,263C1028.4,263.2 1028.4,263.3 1028.3,263.4C1028.2,263.5 1028.1,263.5 1027.9,263.5L1026.3,263.5C1024.9,263.5 1023.9,263.1 1023.2,262.4C1022.5,261.7 1022.1,260.7 1022.1,259.3L1022.1,253.5C1022,253.3 1021.9,253.3 1021.7,253.3Z" style="fill:#fff;fill-rule:nonzero;"/>
                    <path d="M1035.1,263.5L1034.5,263.5C1033.1,263.5 1032.1,263.1 1031.4,262.4C1030.7,261.7 1030.3,260.6 1030.3,259.3L1030.3,254.6C1030.3,253.2 1030.7,252.2 1031.4,251.5C1032.1,250.8 1033.2,250.4 1034.5,250.4L1040.4,250.4C1040.8,250.4 1041,250.6 1041,250.9L1041,262.9C1041,263.3 1040.8,263.4 1040.4,263.4L1038.2,263.4C1037.8,263.4 1037.7,263.2 1037.7,262.9L1037.7,262.1L1037.6,262.1C1037.4,262.6 1037.1,262.9 1036.6,263.1C1036.1,263.4 1035.6,263.5 1035.1,263.5ZM1037.7,258.8L1037.7,253.6C1037.7,253.4 1037.6,253.3 1037.4,253.3L1035,253.3C1034.5,253.3 1034.1,253.4 1033.8,253.6C1033.6,253.8 1033.5,254.2 1033.5,254.8L1033.5,259.2C1033.5,259.7 1033.6,260.1 1033.8,260.4C1034,260.6 1034.4,260.7 1035,260.7L1036,260.7C1037.1,260.7 1037.7,260.1 1037.7,258.8Z" style="fill:#fff;fill-rule:nonzero;"/>
                    <path d="M1043.3,250.4L1045.6,250.4C1045.9,250.4 1046.1,250.6 1046.2,250.9L1048.4,260.6L1048.6,260.6L1050.8,250.9C1050.9,250.5 1051.1,250.4 1051.4,250.4L1053.7,250.4C1054.1,250.4 1054.2,250.6 1054.1,250.9L1050.9,262.9C1050.8,263.3 1050.6,263.5 1050.2,263.5L1046.9,263.5C1046.5,263.5 1046.3,263.3 1046.2,262.9L1043,250.9C1042.8,250.6 1042.9,250.4 1043.3,250.4Z" style="fill:#fff;fill-rule:nonzero;"/>
                    <path d="M1062.1,263.5L1059.8,263.5C1058.4,263.5 1057.4,263.1 1056.7,262.4C1056,261.7 1055.6,260.6 1055.6,259.3L1055.6,254.6C1055.6,253.2 1056,252.2 1056.7,251.5C1057.4,250.8 1058.5,250.4 1059.8,250.4L1062.1,250.4C1063.4,250.4 1064.5,250.8 1065.2,251.5C1065.9,252.2 1066.3,253.3 1066.3,254.6L1066.3,259.3C1066.3,260.6 1065.9,261.7 1065.2,262.4C1064.5,263.2 1063.5,263.5 1062.1,263.5ZM1060.3,260.7L1061.6,260.7C1062.1,260.7 1062.5,260.6 1062.8,260.4C1063,260.2 1063.1,259.8 1063.1,259.2L1063.1,254.7C1063.1,254.2 1063,253.8 1062.8,253.5C1062.6,253.3 1062.2,253.2 1061.6,253.2L1060.3,253.2C1059.8,253.2 1059.4,253.3 1059.1,253.5C1058.9,253.7 1058.8,254.1 1058.8,254.7L1058.8,259.2C1058.8,259.7 1058.9,260.1 1059.1,260.4C1059.4,260.6 1059.8,260.7 1060.3,260.7Z" style="fill:#fff;fill-rule:nonzero;"/>
                </g>
                <rect x="960.5" y="289.5" width="116.8" height="3.9" style="fill:#fff;fill-opacity:0.29;"/>
            </g>
            <g>
                <g>
                    <path d="M947,263.3C948.1,263.7 953.3,265 954.1,262.2C954.9,259.4 952,258 950.6,257.3C947.5,255.6 943.7,253.8 940,252.4C939.1,252.1 938.2,251.8 937.4,251.5C937.3,251.5 937.3,251.5 937.2,251.4C936.3,251.1 935.4,250.8 934.6,250.6C933.8,250.4 933.1,250.2 932.4,250.1C929.8,249.6 927.9,249.6 927.3,250.4C925.7,252.4 926.1,254.2 926.6,255.4C927,256.3 927.6,256.9 927.6,256.9L923.8,260.3L921.5,262.4L920.1,263.6L919.6,264L919.6,267.1L916.4,269.4L916.4,275.6C916.4,275.6 916.3,275.8 916.1,276.1C915.5,277.2 914,279.7 914,280.3C914,280.9 915.4,283.7 916,285.1C916.2,285.5 916.4,285.8 916.4,285.8C916.4,285.8 916.4,287.4 917.3,290.3C917.5,290.8 917.7,291.4 918,292.1C918.6,293.5 918.8,295.7 919.5,298C920.1,300.1 921.1,302.2 922.9,303.7C924.9,305.3 932.1,305.9 932.1,305.9L931.6,288.5L931.6,288.3L934.3,288.3C934.7,288.3 935.2,288.3 935.7,288.4L946.1,288.4C946.2,288.4 954,289.9 954.8,286.9C955,286.2 953.2,284.3 951.8,283.9C954.1,284.2 957.7,284.9 957.7,280.9C957.7,276.7 950.8,274 950.8,274C950.8,274 956.4,275.2 956.7,271C957.3,267.3 947.8,263.6 947,263.3Z" style="fill:#ffb781;fill-rule:nonzero;"/>
                </g>
                <path d="M930.9,257.8L945.3,262.4L938.9,259.3L930.9,257.8Z" style="fill:#ff9466;fill-rule:nonzero;"/>
                <path d="M921.3,267.9C921.3,267.9 928.5,264.8 930.1,264.8C931.7,264.8 950.1,273.4 950.1,273.4C950.1,273.4 933.3,267.2 930.9,267.2C928.5,267.2 921.3,267.9 921.3,267.9Z" style="fill:#ff9466;fill-rule:nonzero;"/>
                <path d="M948.5,281.9C948.2,281.8 932.5,277.6 930.9,277.6C929.3,277.6 923.7,277.2 923.7,277.2L922.9,277.2C922.9,277.2 929.3,274.9 930.9,274.9C932.5,274.9 948.2,281.8 948.5,281.9Z" style="fill:#ff9466;fill-rule:nonzero;"/>
                <path d="M948,288.2C947.4,288.2 946.8,288.3 946.2,288.3C939.6,288.6 932.1,288.4 932.1,288.4L931.8,288.2L932.2,302C932.2,302 930.8,300.9 928.8,299.2C925.8,294.3 921.7,290.9 922.2,290.4C922.2,290.4 923.2,289.4 924.6,288.5C925.6,287.8 926.8,287.3 927.8,287.3C930.2,287.3 939.8,288.1 947,288.1L947.4,288.1C947.5,288.1 947.7,288.2 948,288.2Z" style="fill:#ff9466;fill-rule:nonzero;"/>
                <path d="M947.2,288.1L946.1,288.3C939.5,288.6 931.6,288.1 931.6,288.1L931.6,288.2C930.2,288.1 928.2,289.6 927.6,289.6C925.2,289.6 923.6,290.4 923.6,290.4L924.4,288.5C925.4,287.8 926.6,287.3 927.6,287.3C930,287.3 939.6,288.1 946.8,288.1L947.2,288.1Z" style="fill:#ff9466;fill-rule:nonzero;"/>
                <path d="M923.9,260.3C922.9,261.6 921.9,263 921.9,264C921.9,266.2 921.9,267.3 920.8,268.3C919.7,269.4 917.5,268.3 917.5,270.5C917.5,272.7 918.6,273.8 918.6,275.9C918.6,278.1 914.1,280.2 915.3,281.3C916.4,282.4 917.5,285.6 917.5,285.6L918.6,294.3C917.7,291.5 916.5,285.6 916.5,285.6C916.5,285.6 916.4,285.3 916.1,284.9C915.4,283.6 914.1,280.7 914.1,280.1C914.1,279.5 915.6,277 916.2,275.9C916.4,275.6 916.5,275.4 916.5,275.4L916.5,269.2L919.7,266.9L919.7,264L920.2,263.6L921.6,262.4L923.9,260.3Z" style="fill:#ff9466;fill-rule:nonzero;"/>
            </g>
            <g>
                <g>
                    <path d="M1079.2,269.8C1079.5,274 1085.1,272.8 1085.1,272.8C1085.1,272.8 1078.2,275.5 1078.2,279.7C1078.2,283.6 1081.8,283 1084.1,282.7C1082.8,283.1 1081,284.9 1081.1,285.7C1081.9,288.7 1089.7,287.2 1089.8,287.2L1100.2,287.2C1100.7,287.2 1101.2,287.2 1101.6,287.1L1104.3,287.1L1104.3,287.3L1103.8,304.7C1103.8,304.7 1111.1,304.2 1113,302.5C1114.8,301 1115.8,298.9 1116.4,296.8C1117.1,294.5 1117.4,292.3 1117.9,290.9C1118.2,290.3 1118.4,289.7 1118.6,289.1C1119.5,286.3 1119.5,284.6 1119.5,284.6C1119.5,284.6 1119.6,284.3 1119.9,283.9C1120.6,282.6 1121.9,279.7 1121.9,279.1C1121.9,278.5 1120.4,276 1119.8,274.9C1119.6,274.6 1119.5,274.4 1119.5,274.4L1119.5,268.2L1116.3,265.9L1116.3,262.8L1115.8,262.4L1114.4,261.2L1112.1,259.1L1108.3,255.7C1108.3,255.7 1108.9,255.1 1109.3,254.2C1109.9,253 1110.2,251.1 1108.6,249.2C1108,248.4 1106.1,248.4 1103.5,248.9C1102.8,249 1102.1,249.2 1101.3,249.4C1100.5,249.6 1099.6,249.9 1098.7,250.2C1098.6,250.2 1098.6,250.2 1098.5,250.3C1097.6,250.6 1096.8,250.9 1095.9,251.2C1092.2,252.6 1088.3,254.3 1085.3,256.1C1084,256.9 1081.1,258.3 1081.8,261C1082.5,263.7 1087.8,262.5 1088.9,262.1C1088.5,262.4 1079,266.1 1079.2,269.8Z" style="fill:#ffb781;fill-rule:nonzero;"/>
                </g>
                <path d="M1105.4,256.6L1091,261.2L1097.4,258.1L1105.4,256.6Z" style="fill:#ff9466;fill-rule:nonzero;"/>
                <path d="M1115,266.7C1115,266.7 1107.8,263.6 1106.2,263.6C1104.6,263.6 1086.2,272.2 1086.2,272.2C1086.2,272.2 1103,266 1105.4,266C1107.8,266 1115,266.7 1115,266.7Z" style="fill:#ff9466;fill-rule:nonzero;"/>
                <path d="M1087.8,280.7C1088.1,280.6 1103.8,276.4 1105.4,276.4C1107,276.4 1112.6,276 1112.6,276L1113.4,276C1113.4,276 1107,273.7 1105.4,273.7C1103.8,273.7 1088.1,280.6 1087.8,280.7Z" style="fill:#ff9466;fill-rule:nonzero;"/>
                <path d="M1088.3,287C1088.9,287 1089.5,287.1 1090.1,287.1C1096.7,287.4 1104.2,287.2 1104.2,287.2L1104.5,287L1104.1,300.8C1104.1,300.8 1105.5,299.7 1107.5,298C1110.5,293.1 1114.6,289.7 1114.1,289.2C1114.1,289.2 1113.1,288.2 1111.7,287.3C1110.7,286.6 1109.5,286.1 1108.5,286.1C1106.1,286.1 1096.5,286.9 1089.3,286.9L1088.9,286.9C1088.8,286.9 1088.5,287 1088.3,287Z" style="fill:#ff9466;fill-rule:nonzero;"/>
                <path d="M1089,286.9L1090.1,287.1C1096.7,287.4 1104.6,286.9 1104.6,286.9L1104.6,287C1106,286.9 1108,288.4 1108.6,288.4C1111,288.4 1112.6,289.2 1112.6,289.2L1111.8,287.3C1110.8,286.6 1109.6,286.1 1108.6,286.1C1106.2,286.1 1096.6,286.9 1089.4,286.9L1089,286.9Z" style="fill:#ff9466;fill-rule:nonzero;"/>
                <path d="M1112.4,259.2C1113.4,260.5 1114.4,261.9 1114.4,262.9C1114.4,265.1 1114.4,266.2 1115.5,267.2C1116.6,268.3 1118.8,267.2 1118.8,269.4C1118.8,271.6 1117.7,272.7 1117.7,274.8C1117.7,277 1122.2,279.1 1121,280.2C1119.9,281.3 1118.8,284.5 1118.8,284.5L1117.7,293.2C1118.6,290.4 1119.8,284.5 1119.8,284.5C1119.8,284.5 1119.9,284.2 1120.2,283.8C1120.9,282.5 1122.2,279.6 1122.2,279C1122.2,278.4 1120.7,275.9 1120.1,274.8C1119.9,274.5 1119.8,274.3 1119.8,274.3L1119.8,268.1L1116.6,265.8L1116.6,262.7L1116.1,262.3L1114.7,261.1L1112.4,259.2Z" style="fill:#ff9466;fill-rule:nonzero;"/>
            </g>
        </g>
        <g>
            <path d="M1015.1,70.8C1011.4,87.9 1006.4,110.6 1006.4,113.9C1006.4,117.2 1017.4,121.2 1019.4,120.1C1021.4,119 1017.1,70.9 1017.1,70.9L1015.1,70.8Z" style="fill:#e97b59;fill-rule:nonzero;"/>
            <path d="M1017.1,69.1C1013.4,86.2 1008.4,108.9 1008.4,112.2C1008.4,115.5 1019.4,119.5 1021.4,118.4C1023.4,117.3 1019.1,69.2 1019.1,69.2L1017.1,69.1Z" style="fill:#ffb781;fill-rule:nonzero;"/>
            <g>
                <path d="M1004.3,134.1L1003.7,132.4C1007.6,127.8 1015.6,127.2 1028.9,130.5L1028.7,131.2C1016,128.1 1007.8,130 1004.3,134.1Z" style="fill:#e97b59;fill-rule:nonzero;"/>
            </g>
            <path d="M1009.9,137.8C1009.8,138.4 1011.8,139.7 1014.6,139.8C1017.4,139.9 1020,138.8 1020.1,138.2C1020.2,137.6 1017.4,138.2 1014.6,138C1011.9,138 1010,137.2 1009.9,137.8Z" style="fill:#e97b59;fill-rule:nonzero;"/>
            <g>
                <path d="M1005.8,90.8C1005.9,85.9 1005.2,80 997.7,78C990.1,76 986.6,82.8 986.7,85.3C986.8,87.8 988.9,91.4 993,92C997.2,92.4 1000.9,92.1 1002.4,92.2C1004,92.5 1005.8,91.8 1005.8,90.8Z" style="fill:#fff;fill-rule:nonzero;"/>
                <g transform="matrix(0.0480195,-0.9988,0.9988,0.0480195,864.364,1076.68)">
                    <circle cx="997" cy="84.9" r="6.2" style="fill:#39170b;"/>
                </g>
                <path d="M1002.3,82.7C1002.2,84.2 1000.9,85.5 999.4,85.4C997.9,85.3 996.6,84 996.7,82.5C996.8,81 998.1,79.7 999.6,79.8C1001.1,79.7 1002.4,81 1002.3,82.7Z" style="fill:#fff;fill-rule:nonzero;"/>
                <path d="M1025.2,91.4C1025.4,86.5 1026.4,80.7 1034.1,79.1C1041.8,77.5 1044.9,84.5 1044.6,87.1C1044.3,89.6 1042.1,93.1 1037.9,93.3C1033.7,93.5 1030,92.8 1028.5,93.1C1027,93.2 1025.2,92.5 1025.2,91.4Z" style="fill:#fff;fill-rule:nonzero;"/>
                <path d="M1028.5,85.4C1028.4,88.9 1031.1,91.8 1034.5,91.8C1037.9,91.8 1040.9,89.2 1040.9,85.8C1041,82.3 1038.3,79.4 1034.9,79.4C1031.4,79.2 1028.7,82 1028.5,85.4Z" style="fill:#39170b;fill-rule:nonzero;"/>
                <path d="M1034.3,83.2C1034.2,84.7 1035.5,86.1 1037,86.1C1038.5,86.2 1039.9,84.9 1039.9,83.4C1040,81.9 1038.7,80.5 1037.2,80.5C1035.7,80.4 1034.4,81.6 1034.3,83.2Z" style="fill:#fff;fill-rule:nonzero;"/>
            </g>
            <path d="M1007.5,63C1008.6,63.6 1009.4,70.5 1008.7,71.2C1008,71.9 987.4,75.7 986.2,75.4C984.9,75.1 983.8,68.2 984.3,67.1C984.7,66.1 1006.3,62.4 1007.5,63Z" style="fill:#7e251e;fill-rule:nonzero;"/>
            <path d="M1052.7,68.6C1053.8,69.5 1052.1,75.1 1051,75.4C1049.9,75.7 1024.1,69.8 1022.7,69C1021.3,68.2 1022.7,62.4 1023.6,61.8C1024.6,61.3 1051.6,67.6 1052.7,68.6Z" style="fill:#7e251e;fill-rule:nonzero;"/>
        </g>
    </g>
    <g transform="matrix(0.072353,0,0,0.072353,764.782,304.398)">
        <path d="M384.955,256L505.235,135.72C514.254,126.701 514.254,112.078 505.235,103.06L408.94,6.765C399.921,-2.254 385.298,-2.254 376.28,6.765L256,127.045L135.718,6.765C126.699,-2.254 112.076,-2.254 103.058,6.765L6.764,103.058C-2.255,112.077 -2.255,126.7 6.764,135.718L127.044,255.998L6.764,376.28C-2.255,385.299 -2.255,399.922 6.764,408.94L103.059,505.234C112.078,514.253 126.701,514.253 135.719,505.234L255.999,384.954L376.279,505.234C385.298,514.253 399.921,514.253 408.939,505.234L505.234,408.94C514.253,399.921 514.253,385.298 505.234,376.28L384.955,256Z" style="fill:#ff6465;fill-rule:nonzero;"/>
    </g>
    <g transform="matrix(0.072353,0,0,0.072353,1002.65,269.915)">
        <path d="M384.955,256L505.235,135.72C514.254,126.701 514.254,112.078 505.235,103.06L408.94,6.765C399.921,-2.254 385.298,-2.254 376.28,6.765L256,127.045L135.718,6.765C126.699,-2.254 112.076,-2.254 103.058,6.765L6.764,103.058C-2.255,112.077 -2.255,126.7 6.764,135.718L127.044,255.998L6.764,376.28C-2.255,385.299 -2.255,399.922 6.764,408.94L103.059,505.234C112.078,514.253 126.701,514.253 135.719,505.234L255.999,384.954L376.279,505.234C385.298,514.253 399.921,514.253 408.939,505.234L505.234,408.94C514.253,399.921 514.253,385.298 505.234,376.28L384.955,256Z" style="fill:#ff6465;fill-rule:nonzero;"/>
    </g>
    <g transform="matrix(0.072353,0,0,0.072353,1224.55,287.297)">
        <path d="M384.955,256L505.235,135.72C514.254,126.701 514.254,112.078 505.235,103.06L408.94,6.765C399.921,-2.254 385.298,-2.254 376.28,6.765L256,127.045L135.718,6.765C126.699,-2.254 112.076,-2.254 103.058,6.765L6.764,103.058C-2.255,112.077 -2.255,126.7 6.764,135.718L127.044,255.998L6.764,376.28C-2.255,385.299 -2.255,399.922 6.764,408.94L103.059,505.234C112.078,514.253 126.701,514.253 135.719,505.234L255.999,384.954L376.279,505.234C385.298,514.253 399.921,514.253 408.939,505.234L505.234,408.94C514.253,399.921 514.253,385.298 505.234,376.28L384.955,256Z" style="fill:#ff6465;fill-rule:nonzero;"/>
    </g>
    <defs>
        <linearGradient id="_Linear1" x1="0" y1="0" x2="1" y2="0" gradientUnits="userSpaceOnUse" gradientTransform="matrix(9.687,-19.8313,19.8313,9.687,1021.55,64.7171)"><stop offset="0" style="stop-color:#000;stop-opacity:0.5"/><stop offset="1" style="stop-color:#c06347;stop-opacity:0.5"/></linearGradient>
        <linearGradient id="_Linear2" x1="0" y1="0" x2="1" y2="0" gradientUnits="userSpaceOnUse" gradientTransform="matrix(8.1831,-30.085,30.085,8.1831,1009.01,63.5663)"><stop offset="0" style="stop-color:#000;stop-opacity:0.5"/><stop offset="1" style="stop-color:#c06347;stop-opacity:0.5"/></linearGradient>
    </defs>
</svg>
