<?xml version="1.0" encoding="utf-8"?>
<!-- Generator: Adobe Illustrator 24.0.3, SVG Export Plug-In . SVG Version: 6.00 Build 0)  -->
<svg version="1.1" id="Layer_1" xmlns="http://www.w3.org/2000/svg" xmlns:xlink="http://www.w3.org/1999/xlink" x="0px" y="0px"
	 width="550.2px" height="768px" viewBox="0 0 550.2 768" style="enable-background:new 0 0 550.2 768;" xml:space="preserve">
<style type="text/css">
	.st0{opacity:0.19;fill:#231F20;}
	.st1{fill:url(#SVGID_1_);}
	.st2{fill:#674399;}
	.st3{fill:#F3F4F4;}
	.st4{fill:#CBCBCB;}
	.st5{opacity:0.65;fill:#FFFFF8;}
	.st6{fill:url(#SVGID_2_);}
	.st7{fill:#FAAB31;}
</style>
<title>Artboard 23</title>
<g>
	<path class="st0" d="M534.6,487.9l-16.2-18.5l3.2-2.4c-0.9-0.9-1.5-1.6-1.8-2c-3.7-5-0.7-12.6-7.1-15.9c-4.2-2.2-6.9-4.5-9.5-8.4
		c-0.5-0.8-0.8-2.8-1.1-5l-7.9,5.9l-0.5-0.6l10.7-96c1.7-0.4,3.6-0.6,5.7-0.6c2.6,0,4.8-7.7,7.3-9.2c1.9-1.2,6-1.4,9.3-1.9l-18.9-19
		l2.6-23.4l-14.4-1.6l1.5-15.2l-32.9-3.3L416.2,222c-1.3,3.1-2.6,6.1-5.8,8.1c-3.7,2.3-9.3-0.3-8.6,5.8c0.7,6.4-2.2,10-6,13.2
		l16.4,16.5l-143.6-14.2l-8.2,83.1c-0.1-0.2-0.2-0.4-0.3-0.6c-3.1,2.2-7.5,4.9-9.7,7.9l-46.1-86.3l-98,52.4l10.2-21.7
		c-2-0.1-4-0.1-4.9-0.7c-3.5-2.1-5.2-5.2-6.7-9.3c-0.9-2.6-9.4-2-11.8-3.9c-1.9-1.5-3.5-5.5-5.2-8.5L53.7,336l-19.2,10.3l7.6,14.3
		l-25.1,53.1c3.6,0.1,7,0.4,10.2,2.8c3.7,2.8,3.1,9.4,8.8,6.5c6.1-3,10.7-1.4,15.3,1.2L63,399.6l43.5,81.4l-12-3.5
		c-0.9,0.7-1.2,1.4-0.8,2.4c1.4,3.2,1.6,5.9,1.6,9.1c0,3.3-3.3,6.3-5.9,8.5c-4.9,4-4.8,4-3.8,10.3c0.1,0.8,0.2,1.6,0.2,2.4
		l37.4,10.8c0.9,2.8,1.9,5.6,2.7,8.3l5.1-2.6l6.7,12.5l17-9.1l46.1,13.4c6.6-7.7,7.8-13.5,8-23c0.1-3.3,2.1-6.2,5-8.5l-16.3-4.7
		l48.4-25.9l-3,30.1l139.3,13.8l-13.3,9.9c3.8,7.9,6.9,16.7,13.5,19.1c4.5,1.7,7.8,3.4,11.2,6.9c0.3,0.3,0.5,0.6,0.8,0.9l42-31.4
		l35.3,3.5l1.6-16l11.6,1.3l3-27.3l11-8.2L534.6,487.9z"/>
	<g>
		<g>
			<g>
				
					<linearGradient id="SVGID_1_" gradientUnits="userSpaceOnUse" x1="51.0579" y1="375.0612" x2="316.06" y2="375.0612" gradientTransform="matrix(0.9975 -7.080000e-02 7.080000e-02 0.9975 -36.4164 27.9842)">
					<stop  offset="0" style="stop-color:#FFFDFC"/>
					<stop  offset="0.4225" style="stop-color:#FFF9F4"/>
					<stop  offset="1" style="stop-color:#F3EEE6"/>
				</linearGradient>
				<polygon class="st1" points="309.7,440.2 140,531 36.8,338 206.5,247.2 				"/>
				<polygon class="st2" points="290.7,432.2 201.6,264.6 52.9,345.2 142,512.8 				"/>
			</g>
			<g>
				
					<rect x="109.6" y="304.4" transform="matrix(0.883 -0.4695 0.4695 0.883 -162.4878 125.738)" class="st3" width="122.7" height="168.6"/>
				<g>
					
						<rect x="103.2" y="339" transform="matrix(0.883 -0.4695 0.4695 0.883 -156.4025 101.11)" class="st4" width="42.8" height="50.5"/>
					
						<rect x="142.3" y="315.2" transform="matrix(0.883 -0.4695 0.4695 0.883 -130.233 114.1128)" class="st4" width="42.8" height="6"/>
					
						<rect x="119.4" y="386.8" transform="matrix(0.883 -0.4695 0.4695 0.883 -164.4328 120.0742)" class="st4" width="78.4" height="6"/>
					
						<rect x="124.4" y="393.3" transform="matrix(0.883 -0.4695 0.4695 0.883 -165.5913 128.4849)" class="st4" width="101" height="6"/>
					
						<rect x="131.1" y="405.9" transform="matrix(0.883 -0.4695 0.4695 0.883 -170.7151 133.0982)" class="st4" width="101" height="6"/>
					
						<rect x="137.7" y="418.5" transform="matrix(0.883 -0.4695 0.4695 0.883 -175.8392 137.7119)" class="st4" width="101" height="6"/>
					
						<rect x="144.4" y="431.1" transform="matrix(0.883 -0.4695 0.4695 0.883 -180.963 142.3253)" class="st4" width="101" height="6"/>
					
						<rect x="151.1" y="443.6" transform="matrix(0.883 -0.4695 0.4695 0.883 -186.0868 146.9387)" class="st4" width="101" height="6"/>
					
						<rect x="149.8" y="330.2" transform="matrix(0.883 -0.4695 0.4695 0.883 -136.8831 117.435)" class="st4" width="34.6" height="6"/>
					
						<rect x="156.2" y="341.4" transform="matrix(0.883 -0.4695 0.4695 0.883 -140.8828 123.7016)" class="st4" width="42.8" height="6"/>
					
						<rect x="164.4" y="359.5" transform="matrix(0.883 -0.4695 0.4695 0.883 -149.6704 124.6498)" class="st4" width="21.4" height="6"/>
					<path class="st4" d="M151.7,378.3c0,0-4.9-4.3-6.7-5.3c-0.3-0.1-0.5-0.3-0.7-0.4c0,0-0.1,0-0.1-0.1c-0.2-0.1-0.3-0.2-0.5-0.2
						c-0.4-0.2-0.8-0.3-1.1-0.4c-0.2-0.1-0.4-0.1-0.7-0.1c0,0-0.1,0-0.1,0c-1.3-0.1-2.4,0.3-2.4,0.3l0,0c-0.5,0.1-1.1,0.2-1.7,0.4
						l0,0c0,0,0,0-0.1,0c-0.2,0.1-0.5,0.1-0.7,0.2l0-0.2l-2.8-1.8l-0.1,0.2c0-0.1-0.1-0.2-0.2-0.4c0.8-0.5,1.5-1.1,1.6-1.5
						c0-0.1,0.1-0.2,0.1-0.4c0,0,0,0-0.1,0.1c0.2-0.6-0.1-1.3-0.1-3c0-2.2-0.5-4.1-1-5.1c-0.7-1.3-1.3-2-1.8-2.9
						c-0.1-0.3-0.3-0.5-0.4-0.8c0-0.1-0.1-0.4-0.3-0.9c0.1,0,0.1-0.1,0.1-0.2c0-0.2-0.2-0.4-0.4-0.6c-0.3-0.7-0.6-1.7-1.2-3.2
						c0,0,0.8-1.7,0.5-2.6c-1.3-3.4-14.9-4.3-19.4,5.7c-0.6,1.3-0.2,2.2,0.7,2.8c-2.4,4.5,6.9,13.6,11.8,12.7c0.7,1.1,1.4,2.4,2,3.7
						l-0.3,0l-0.1,3.5l0.5,0.1c-0.1,0.1-0.3,0.2-0.4,0.3c-0.1,0-0.1,0.1-0.2,0.1l0,0c-0.5,0.4-1,0.8-1.4,1.1l0,0
						c0,0-3.3,2.5-4.1,4.7c-0.1,0.1-0.1,0.2-0.1,0.4c0,0,0,0,0,0c-0.5,1.8-0.2,5.2,0.6,9.1c0.1,0.7,0.3,1.2,0.3,1.2L151.7,378.3z"/>
				</g>
			</g>
		</g>
		<path class="st5" d="M97.1,267.6c-1.9-1.5-3.5-5.5-5.2-8.5L21.1,409c3.6,0.1,7,0.4,10.2,2.8c3.7,2.8,3.1,9.4,8.8,6.5
			c6.1-3,10.7-1.4,15.3,1.2l65.1-138c-2-0.1-4-0.1-4.9-0.7c-3.5-2.1-5.2-5.2-6.7-9.3C108,269,99.6,269.5,97.1,267.6z"/>
		<path class="st5" d="M212.7,515.8c0.1-3.3,2.1-6.2,5-8.5L98.6,472.8c-0.9,0.7-1.2,1.4-0.8,2.4c1.4,3.2,1.6,5.9,1.6,9.1
			c0,3.3-3.3,6.3-5.9,8.5c-4.9,4-4.8,4-3.8,10.3c0.1,0.8,0.2,1.6,0.2,2.4l115,33.3C211.4,531.2,212.6,525.3,212.7,515.8z"/>
		<g>
			<g>
				
					<linearGradient id="SVGID_2_" gradientUnits="userSpaceOnUse" x1="248.6934" y1="388.2798" x2="519.5257" y2="388.2798" gradientTransform="matrix(0.9975 -7.080000e-02 7.080000e-02 0.9975 -36.4164 27.9842)">
					<stop  offset="0" style="stop-color:#FFFDFC"/>
					<stop  offset="0.4225" style="stop-color:#FFF9F4"/>
					<stop  offset="1" style="stop-color:#F3EEE6"/>
				</linearGradient>
				<polygon class="st6" points="475.8,529.5 246.9,506.9 272.7,246.7 501.6,269.3 				"/>
				<polygon class="st7" points="461.8,508.7 486.2,284.5 286.5,264.8 262.1,489.1 				"/>
			</g>
			<g>
				
					<rect x="299.4" y="283.1" transform="matrix(0.9947 0.1029 -0.1029 0.9947 41.7782 -36.5091)" class="st3" width="151" height="207.4"/>
				<g>
					
						<rect x="318" y="298.9" transform="matrix(0.9947 0.1029 -0.1029 0.9947 35.7675 -33.6723)" class="st4" width="52.7" height="62.1"/>
					
						<rect x="389.6" y="306.2" transform="matrix(0.9947 0.1029 -0.1029 0.9947 34.0813 -41.1404)" class="st4" width="52.7" height="7.4"/>
					
						<rect x="313.3" y="375.7" transform="matrix(0.9947 0.1029 -0.1029 0.9947 40.949 -35.1771)" class="st4" width="96.5" height="7.4"/>
					
						<rect x="311.5" y="393.6" transform="matrix(0.9947 0.1029 -0.1029 0.9947 42.8496 -36.3328)" class="st4" width="124.3" height="7.4"/>
					
						<rect x="309.7" y="411" transform="matrix(0.9947 0.1029 -0.1029 0.9947 44.6345 -36.0547)" class="st4" width="124.3" height="7.4"/>
					
						<rect x="307.9" y="428.5" transform="matrix(0.9947 0.1029 -0.1029 0.9947 46.4195 -35.7765)" class="st4" width="124.3" height="7.4"/>
					
						<rect x="306.1" y="445.9" transform="matrix(0.9947 0.1029 -0.1029 0.9947 48.2043 -35.4984)" class="st4" width="124.3" height="7.4"/>
					
						<rect x="304.3" y="463.3" transform="matrix(0.9947 0.1029 -0.1029 0.9947 49.9892 -35.2203)" class="st4" width="124.3" height="7.4"/>
					
						<rect x="387.7" y="323.8" transform="matrix(0.9947 0.1029 -0.1029 0.9947 35.8562 -40.3386)" class="st4" width="42.6" height="7.4"/>
					
						<rect x="385.8" y="342.4" transform="matrix(0.9947 0.1029 -0.1029 0.9947 37.7911 -40.5623)" class="st4" width="52.7" height="7.4"/>
					
						<rect x="384" y="359.2" transform="matrix(0.9947 0.1029 -0.1029 0.9947 39.4372 -38.9335)" class="st4" width="26.3" height="7.4"/>
					<path class="st4" d="M362.4,363c0,0-2-7.7-3.2-10.1c-0.2-0.3-0.3-0.6-0.5-0.9c0,0,0-0.1-0.1-0.1c-0.1-0.2-0.2-0.4-0.4-0.6
						c-0.3-0.5-0.6-0.9-0.8-1.2c-0.2-0.2-0.4-0.4-0.6-0.5c0,0-0.1-0.1-0.1-0.1c-1.3-1-2.7-1.4-2.7-1.4l0,0c-0.6-0.3-1.3-0.5-2-0.8
						l0,0c0,0-0.1,0-0.1,0c-0.3-0.1-0.6-0.2-0.9-0.3l0.2-0.2l-1.6-3.8l-0.2,0.1c0-0.1,0.1-0.3,0.1-0.5c1.1,0,2.2-0.1,2.7-0.4
						c0.1-0.1,0.2-0.2,0.3-0.3c0,0-0.1,0-0.1,0c0.6-0.5,0.9-1.4,2-3.1c1.5-2.2,2.3-4.6,2.4-5.9c0.2-1.7,0.1-2.9,0.2-4.2
						c0-0.4,0.1-0.7,0.1-1c0-0.1,0.1-0.5,0.3-1.2c0.1,0,0.2,0,0.3-0.1c0.1-0.2,0.1-0.5,0-0.9c0.2-0.9,0.5-2.2,1-4.1
						c0,0,2-1.2,2.3-2.4c1.1-4.4-12.3-14.7-23.7-7.6c-1.5,0.9-1.8,2.1-1.2,3.3c-5.6,3-2.3,18.7,3.4,21.1c-0.1,1.6-0.2,3.5-0.5,5.2
						l-0.3-0.2l-2.5,3.5l0.4,0.5c-0.2,0-0.4,0-0.6,0c-0.1,0-0.2,0-0.3,0l0,0c-0.8,0-1.5,0.1-2.2,0.2l0,0c0,0-5.1,0.2-7.4,2
						c-0.1,0.1-0.3,0.2-0.4,0.3c0,0,0,0,0,0c-1.8,1.5-3.8,5.1-5.6,9.7c-0.3,0.8-0.5,1.4-0.5,1.4L362.4,363z"/>
				</g>
			</g>
		</g>
		<path class="st5" d="M516.8,444.4c-4.2-2.2-6.9-4.5-9.5-8.4c-0.5-0.8-0.8-2.8-1.1-5l-133.3,99.6c3.8,7.9,6.9,16.7,13.5,19.1
			c4.5,1.7,7.8,3.4,11.2,6.9c0.3,0.3,0.5,0.6,0.8,0.9l127.3-95.1c-0.9-0.9-1.5-1.6-1.8-2C520.2,455.4,523.2,447.8,516.8,444.4z"/>
		<path class="st5" d="M521.4,330.5c1.9-1.2,6-1.4,9.3-1.9L420.3,217.3c-1.3,3.1-2.6,6.1-5.8,8.1c-3.7,2.3-9.3-0.3-8.6,5.8
			c0.7,6.4-2.2,10-6,13.2l101.6,102.4c0.7-1.8,1.4-3.5,2.2-4.1c3-2.5,6.3-3,10.5-3C516.7,339.7,518.9,332.1,521.4,330.5z"/>
	</g>
</g>
</svg>
