<?xml version="1.0" encoding="utf-8"?>
<!-- Generator: Adobe Illustrator 24.0.3, SVG Export Plug-In . SVG Version: 6.00 Build 0)  -->
<svg version="1.1" id="Layer_1" xmlns="http://www.w3.org/2000/svg" xmlns:xlink="http://www.w3.org/1999/xlink" x="0px" y="0px"
	 width="135.9px" height="152.3px" viewBox="0 0 135.9 152.3" style="enable-background:new 0 0 135.9 152.3;" xml:space="preserve"
	>
<style type="text/css">
	.st0{clip-path:url(#SVGID_2_);}
	.st1{fill:#FFFFFF;}
	.st2{fill:#C0C0C0;}
	.st3{fill:#0A6593;}
	.st4{clip-path:url(#SVGID_4_);}
	.st5{fill:#333333;}
	.st6{fill:#3C3C3D;}
	.st7{fill:#E5E5E5;}
	.st8{fill:#CBCBCB;}
	.st9{fill:#AB1535;}
	.st10{fill:#E9AA78;}
	.st11{fill:#666666;}
	.st12{fill:#FFB781;}
	.st13{fill:#E97B59;}
	.st14{fill:#808080;}
	.st15{fill:#703F2C;}
	.st16{fill:#4D4D4D;}
	.st17{fill:#E2A36A;}
	.st18{fill:#9B6335;}
	.st19{fill:#F9E8CA;}
	.st20{fill:#D6B799;}
	.st21{fill:#F4BE84;}
	.st22{fill:#39170B;}
</style>
<g>
	<defs>
		<path id="SVGID_1_" d="M115.9,61.5c1.3-3.4,0-6.7-0.9-10c-1.6-6.1-1.6-11.6,1.5-17.2c2.3-4.1-0.5-6.7-2.7-10c-1-1.5-1.6-3.3-2.1-5
			c-0.1-0.4-0.2-0.7-0.2-0.9c-0.1,0-0.3,0.1-0.5,0.1c-1,0.1-2.4-0.8-3.4-1c-1.3-0.3-2.7,0.2-4-0.1c-1.7-0.4-3.7-2-5-3
			c-2.8-2.2-4.5-5.6-8.3-5.7c-1,0-0.9,0.1-1.6-0.6c-0.8-0.7-0.8-2.2-2.2-2c-1.1,0.1-1.7,2.6-2,3.4c-0.7,1.4-1.6,2.9-3,3.8
			c-0.6,0.3-1,0.4-1.6,0.6c-1.9,0.5-2.8,1.5-4.5,2.6c-1.5,1-3.1,1.5-4.9,1.5c-0.7,0-1.4,0-2.2-0.2c-0.6-0.2-1.2-0.5-1.8-0.9
			c-1.2-0.2-2,0.2-3.1,0.8c-2.2,1.2-3.3,2.1-5.9,1.5c-1.9-0.4-3.9-1.3-5.5-2.4c-0.8-0.5-2.3-2.3-3.4-2c-0.4,1.2-1.2,0.8-2.2,1
			c-2.4,0.5-3.5,1.8-4.6,3.9c-0.3,0.8-0.8,1.5-1.4,2.1c-0.8,0.7-1,0.1-1.7,0.5c-0.5,0.1-0.6,0.5-0.5,1c-0.4,1.2-0.4,2-1.7,2.6
			c-2.9,1.2-7.1,0.8-10,0.1c-2.7-0.7-4.6-1.3-7.3-0.7c-0.9,0.2-2.2,0.8-3.1,0.7c-2.6-0.1-1.7-2.9-3-4.2c-0.4,0.2-0.6,0.3-1,0.5
			c-1.3-1.5-3.2-6.4-6.1-4.2c0,0,0,0-0.1,0.1l0.3,122.7c0,2.9,2.4,5.3,5.3,5.3l69.9-0.2c-0.2-1.3-0.2-2.6,0.1-3.8
			c1.8-6.3,10-7.6,12.9-13.1c2.3-4.5,0.5-10.1,2.7-14.7c1.3-2.7,3.8-4.6,6.3-6.2c1.8-1.2,4-2,5.7-3.5c1.3-1.2,1.2-1.7,1.2-3.3
			c0-0.9,0-1.8-0.1-2.6c-0.3-0.6-0.4-1.3-0.4-2c0.4-1.5,2.3-3.3,3.1-4.6c1.1-1.5,1.7-2.7,2.2-4.5c0.7-2.4,3-4.1,3-6.6
			c0-4.7-5-7.6-4.9-12.5C113.2,65.8,114.9,64,115.9,61.5z"/>
	</defs>
	<clipPath id="SVGID_2_">
		<use xlink:href="#SVGID_1_"  style="overflow:visible;"/>
	</clipPath>
	<g class="st0">
		<path class="st1" d="M169.9,145.9l-158.4,0.4c-2.9,0-5.3-2.4-5.3-5.3L5.5-113.2c0-2.9,2.4-5.3,5.3-5.3l214.8-0.5
			c2.9,0,5.3,2.4,5.3,5.3l0.6,254.1c0,2.9-2.4,5.3-5.3,5.3l-22.2,0.1L169.9,145.9z"/>
		<g>
			<path class="st2" d="M99.6,112l-47.8,0.1c-2.8,0-5-2.2-5-5c0-2.8,2.2-5,5-5l47.8-0.1c2.8,0,5,2.2,5,5
				C104.6,109.7,102.4,112,99.6,112z"/>
			<path class="st2" d="M161.3,129.1l-109.5,0.3c-2.8,0-5-2.2-5-5s2.2-5,5-5l109.5-0.3c2.8,0,5,2.2,5,5
				C166.3,126.8,164.1,129.1,161.3,129.1z"/>
		</g>
		<path class="st3" d="M207.7-90.1l0.4,169.6c0,2.6-2.1,4.8-4.8,4.8L33.4,84.7c-2.6,0-4.8-2.1-4.8-4.8L28.2-89.7
			c0-2.9,2.4-5.3,5.3-5.3l168.9-0.4C205.3-95.4,207.7-93.1,207.7-90.1z"/>
		<g>
			<defs>
				<path id="SVGID_3_" d="M207.7-90.1l0.4,169.6c0,2.6-2.1,4.8-4.8,4.8L33.4,84.7c-2.6,0-4.8-2.1-4.8-4.8L28.2-89.7
					c0-2.9,2.4-5.3,5.3-5.3l168.9-0.4C205.3-95.4,207.7-93.1,207.7-90.1z"/>
			</defs>
			<clipPath id="SVGID_4_">
				<use xlink:href="#SVGID_3_"  style="overflow:visible;"/>
			</clipPath>
			<g class="st4">
				<g id="right_hand_with_fist_14_">
					<g id="shoulder_right_13_">
						<path class="st5" d="M180.4,59.4c-12.2-5-37.3-6.1-35.9,18.3c0.5,9.2,9.5,20.6,15.4,40.6c5.9,19.9,5.5,50.7,19.6,50.8
							C232.1,169.8,200.8,67.7,180.4,59.4z"/>
					</g>
				</g>
				<g id="body_14_">
					<path class="st5" d="M52.2,71.9c7.2-9.9,70.6-34.1,70.6-34.1s54.3,14,60.7,24.4c2.6,4.3,0.3,31.9-0.7,45.6
						c-0.9,13.7-6.1,45.3-6.2,59.4c-0.1,15.6,4.5,57.3,4.6,60.9c0,1.8-12,17-51.7,14.5c-26.6-1.6-51.2-18.2-51.5-22.6
						c-0.1-1.6,9.2-44.7,9.2-44.7l-28.5-57.8C58.7,117.5,49.5,75.9,52.2,71.9z"/>
					<path class="st6" d="M96.3,223.7l2.4-39.6c0,0,21.1-0.1,21.1-3c0-2.9-19.8-5-19.8-5s9.7-0.4,10.1-3c0.4-2.5-11.4-3.8-11.4-3.8
						S75,123.9,77.5,104.9c2.5-19,31-54,31-54l-2.1-6.6c-19.3,7.9-49.4,21-54.3,27.6c-2.7,4,6.6,45.6,6.6,45.6l28.5,57.8
						c0,0-9.2,43-9.2,44.7c0.2,4.4,24.9,21,51.5,22.6c26.2,1.6,40.3-4.5,46.9-9.3C136.5,249.9,96.3,223.7,96.3,223.7z"/>
					<path class="st7" d="M82.2,54.7c8.1,10.6,34.2,32.9,59.9,48c14-22,26.5-50,26.5-50c-19.6-9.6-45.8-15-45.8-15
						S102.3,44.7,82.2,54.7z"/>
					<polygon class="st8" points="130.1,64.9 133.9,68.5 133.4,97.4 136.9,99.7 138.3,66.8 131.3,60.1 					"/>
					<path class="st8" d="M95.8,48.4L125.7,78l11.1-18.4l-27.3-16.9C105.4,44.3,100.7,46.2,95.8,48.4z"/>
					<path class="st8" d="M159.1,49l-0.5-0.6c-3.9-1.5-7.9-2.9-11.7-4.1l-10,15.4L152.9,75L159.1,49z"/>
					<path class="st8" d="M95.5,68.4C105.6,58.2,114.7,51,114.7,51l-16.4-3.7l-16.1,7.4C82.2,54.7,89.7,63.3,95.5,68.4z"/>
					<path class="st9" d="M142.3,103.2l5.1-9.2c0,0-4.7-19.5-7.3-26.9c-0.6-2.7-4.9-3.6-4.8,0.3c1,11.4,1.4,32.3,1.4,32.3
						L142.3,103.2z"/>
					<polygon class="st9" points="127.7,56.7 143.9,55.8 140.1,67.1 135.3,67.4 129.1,61.4 					"/>
					<polygon class="st10" points="152,46.1 136.7,56 101.9,48.9 104.6,19.7 146.3,19.7 					"/>
					<polygon class="st1" points="95,43.9 101.6,34.4 136.7,56 125.6,74.4 					"/>
					<polygon class="st1" points="136.9,56.1 152.9,71.5 159.1,45.4 150.6,35 					"/>
				</g>
				<g id="angry_14_">
					<path class="st11" d="M159.5-46c-2.5,7-7.9,11.5-12,10.1c-4.2-1.5-5.5-8.4-3.1-15.4c2.5-7,7.9-11.5,12-10.1S161.9-53,159.5-46z
						"/>
					<path class="st11" d="M96.5-75.7c0,0-1.6-9.4,6.8-12.1c6.5-2.1,37.1,2.3,43.8,0.5c6.7-1.8,6.3-6.4,6.3-6.4s11,10.1,6.9,29.3
						c-4.1,19.2-22,22.3-22,22.3l-38.1-16.6L96.5-75.7z"/>
					<path class="st11" d="M111.5-28.5c0.6,23-1.9,34-10.3,35.1C90.8,8,76.5-42.7,81.3-62.1c2.4-9.7,12.2-14.6,19.5-13.7
						C109.3-74.9,110.8-51.6,111.5-28.5z"/>
					<path class="st12" d="M104.4-8.9c-0.4,5.1-4.9,9-10.1,8.6c-5.1-0.4-9-4.9-8.6-10.1c0.4-5.1,4.9-9,10.1-8.6
						C101-18.6,104.8-14.1,104.4-8.9z"/>
					<path class="st12" d="M156.5-37c-0.2,28.4,6.5,38.9,4.8,46.5c-3.4,14.9-19.6,28.5-28.4,30c-7.7,1.3-34.7-14.2-37-29.9
						c-2.2-15.2-1.8-59.8,15.7-68.2C142.5-73.6,158.3-52.1,156.5-37z"/>
					<path class="st13" d="M92.4-9.6c0.2-2,1.9-3.5,3.9-3.3c0.3,0,0.5,0.1,0.8,0.2c-0.6-0.6-1.4-0.9-2.4-1c-2.3-0.2-4.3,1.5-4.4,3.8
						s1.5,4.3,3.8,4.4c0.6,0,1.1,0,1.6-0.2C93.7-5.9,92.2-7.7,92.4-9.6z"/>
					<path class="st11" d="M133.6-63.9c-31.4-2.3-33.5,29.5-34.4,54.7l-3.1-0.8C83.9-51.1,95.5-81.3,133.6-63.9z"/>
					<path class="st14" d="M105.2-86.4c0,0-4.5,1.3-3,5.8c1.5,4.6,18.6,11.2,30.6,11.2c13.5,0.1,28.1-8.9,20.7-24.4
						c0,0,1.6,4.8-5.8,7.4C139.1-83.3,112.4-88.9,105.2-86.4z"/>
					<path class="st14" d="M83.7-64.3c0,0,3.9-9.8,11.7-8.2s7.5,9.9,5.7,13.4c-1.8,3.5-9.8,20-14.2,19.7
						C82.4-39.6,80.1-53.6,83.7-64.3z"/>
					<path class="st14" d="M96.5-75.7c0,0,8.6,8.3,20.2,14.8l-1.6,1C115.1-59.9,101.6-68.4,96.5-75.7z"/>
					<g>
						<path class="st15" d="M153.5-93.7c0.2,0.2,0.3,0.5,0.5,0.7C153.7-93.5,153.5-93.7,153.5-93.7z"/>
						<path class="st14" d="M142-61.5l0.1,0.1c0,0,23.8-13,11.8-31.5c2.1,3.5,9.4,18.8-13.7,30.8l0.3,0.1
							C141.1-61.9,141.6-61.7,142-61.5z"/>
					</g>
					<path class="st14" d="M158.3-86.8c0,0,6.4,18.3-11.8,27.8l0.9,0.7C147.4-58.3,165.5-67.1,158.3-86.8z"/>
					<polygon class="st14" points="101.3,-33.9 82.3,-33.5 82.6,-32.3 101.1,-32.6 					"/>
					<polygon class="st14" points="100.6,-29.6 83.2,-29 83.5,-27.8 100.4,-27.7 					"/>
					<path class="st16" d="M139-27.2c0.6,0.8,10.3-8.3,12.7-8.1c2.3,0.2,4.9,3.4,4.9,3.4s-1.6-6.3-4.3-6.3c-2.7,0-10.3,6-11.6,7
						C140-30.6,138.4-28,139-27.2z"/>
					<path class="st16" d="M109.5-32c0,0,6.1-4.6,9.3-4.2c2.7,0.3,14.1,10.6,16,9.1c0.8-0.7-0.9-3.4-4.2-5.7
						c-1.6-1.1-9.3-6.9-11.2-7.1C117.5-40.2,112-35.3,109.5-32z"/>
					<path class="st17" d="M138.5,22.2c-0.1,1.2-2.7,1.1-5.9,0.9c-3.2-0.2-5.8-0.3-5.7-1.6c0.1-1.2,2.8-3.1,6-2.9
						C136.1,18.8,138.6,21,138.5,22.2z"/>
					<g>
						<path class="st18" d="M141.6,11.5c-1.8-0.8-18.1-12.8-23.8-13c-5.8-0.1-12.2,16.3-10.3,19.2c0.4,0.2,9-3,17.7-3.5
							c9.9-0.5,20.1,1.8,20.3,1.7c0.4-0.2-0.5-1.3-0.5-1.3l1.3-3.4c0,0,2.4-1.7,2.2-2.1C148.4,9.2,143.2,12.2,141.6,11.5z"/>
						<path class="st19" d="M108.1,16.6c-0.5-0.2,0.4-4.5,2.3-8.8c1.9-4.2,5.2-8.4,6.9-8.4c1.6,0,6.6,2.2,11.6,5.3
							c5.5,3.4,11.5,7.8,12.6,8.1c1.1,0.2,3.9-1.1,3.9-1.1l-1.2,3.4c0,0-10.2-2-20.4-1.4C116.1,14,108.3,16.6,108.1,16.6z"/>
						<path class="st20" d="M121.6,0.7c-1.9-0.9-3.5-1.4-4.3-1.4c-1.7,0-5.1,4.2-6.9,8.4c-1.9,4.4-2.8,8.7-2.3,8.8
							c0.1,0,2.6-0.8,6.1-1.6c-3.8-0.3-2.5-5.7-1.3-8C114.5,3.8,117.2,0.3,121.6,0.7z"/>
						<path class="st20" d="M144.4,12.1l1-0.4l-1.2,3.4l-0.9-0.2C143.3,14.8,144.7,14.1,144.4,12.1z"/>
						<g>
							<path class="st20" d="M141.6,12.7c0,0-0.1,0-0.2-0.1l-0.5,1.8c0.1,0,0.2,0,0.3,0l0.5-1.8C141.7,12.7,141.6,12.7,141.6,12.7z"
								/>
							<path class="st20" d="M134.8,8.4l-1.4,5.2c0.1,0,0.2,0,0.3,0l1.4-5.1C135,8.6,134.9,8.5,134.8,8.4z"/>
							<path class="st20" d="M126.1,3l-2.4,10.6c0,0,0,0,0.1,0c0.1,0,0.2,0,0.3,0l2.3-10.4C126.3,3.1,126.2,3,126.1,3z"/>
							<path class="st20" d="M117.8-0.6l-3.3,15.6c0.1,0,0.2-0.1,0.4-0.1l3.2-15.4C118-0.6,117.9-0.6,117.8-0.6z"/>
						</g>
						<path class="st18" d="M109.1,10.2c0,0,2.6-1,7.6-1.5c4.2-0.4,8-0.2,8.1-0.5c0.1-0.3-7.8-0.7-15.3,0.8L109.1,10.2z"/>
					</g>
				</g>
				<g id="left_hand_14_">
					<g id="shoulder_left_14_">
						<path class="st5" d="M70.4,65c-16.3-9.4-98.5,68.8-77.1,89.6C31.5,191.8,86.7,74.5,70.4,65z"/>
					</g>
					<g id="wrist_left_19_">
						<path class="st21" d="M97.1,190.8c-1.2-1.9-7.5-8.1-11.4-10.9c-4.1-0.6-3.4,3.6-3.4,3.6s0.8,11.2,2.5,13.2c0,0,1,1.9,2.9,0
							c0,0,0.1,0,0.1,0c0.4,0.2,2.4,1,3.3-1.2c0,0,0,0,0.1,0c0.3,0.1,2.9,0.9,3.8-2c0.1-0.1,0.2-0.1,0.2-0.2
							C95.9,193.2,98.3,192.7,97.1,190.8z"/>
						<path class="st17" d="M97.2,190.9c0,1.1-1.6,1.4-2.2,1.5c-0.1,0.1-0.2,0.1-0.2,0.2c-0.9,2.7-3.3,2-3.6,1.9c0,0,0,0-0.1,0
							c-0.8,2.2-2.8,1.3-3.2,1.2c0,0-0.1,0-0.1,0c-1.8,1.8-2.8,0-2.8,0c-1.5-1.8-1.7-13-1.7-14l-1,1.8c0,0,0.8,11.2,2.5,13.2
							c0,0,1,1.9,2.9,0c0,0,0.1,0,0.1,0c0.4,0.2,2.4,1,3.3-1.2c0,0,0,0,0.1,0c0.3,0.1,2.9,0.9,3.8-2c0.1-0.1,0.2-0.1,0.2-0.2
							C95.9,193.2,98.1,192.7,97.2,190.9z"/>
					</g>
					<g id="forearm_left_14_">
						<path class="st5" d="M-3.9,133.7c5.9-8.4,22.3-11.1,40.8,1.7c22.2,15.3,49,44.7,49,44.7l-3.2,3.5c0,0-50.2-6.6-70.9-18.2
							C-2.1,157.6-11.2,144.1-3.9,133.7z"/>
					</g>
				</g>
				<g>
					<path class="st13" d="M136.3-25.7C139.1-15.9,143-2.9,143-1c0,1.9-8.3,4.2-9.8,3.6c-1.5-0.6,1.7-28.3,1.7-28.3L136.3-25.7z"/>
					<path class="st12" d="M134.8-26.7c2.8,9.9,6.6,22.9,6.6,24.8c0,1.9-8.3,4.2-9.8,3.6c-1.5-0.6,1.7-28.3,1.7-28.3L134.8-26.7z"/>
				</g>
				<g>
					<path class="st1" d="M141.3-17.9c-0.1-3.7,0.4-8.2,6.1-9.7c5.7-1.5,8.4,3.6,8.3,5.5s-1.6,4.7-4.8,5c-3.2,0.3-6,0.1-7.1,0.2
						C142.7-16.7,141.4-17.1,141.3-17.9z"/>
					<circle class="st22" cx="148" cy="-22.4" r="4.7"/>
					<path class="st1" d="M144-24.1c0.1,1.2,1,2.1,2.2,2.1c1.2-0.1,2.1-1,2.1-2.2c-0.1-1.2-1-2.1-2.2-2.1
						C144.9-26.3,143.9-25.3,144-24.1z"/>
					<path class="st1" d="M126.6-17.4c-0.2-3.7-1-8.1-6.8-9.3c-5.8-1.2-8.2,4.1-7.9,6.1s1.9,4.6,5.1,4.7c3.2,0.1,6-0.4,7.1-0.2
						C125.3-16.1,126.7-16.6,126.6-17.4z"/>
					<path class="st22" d="M124.1-21.9c0.1,2.6-1.9,4.8-4.6,4.9s-4.8-1.9-4.9-4.6c-0.1-2.6,1.9-4.8,4.6-4.9
						C121.9-26.6,124-24.6,124.1-21.9z"/>
					<path class="st1" d="M119.7-23.6c0.1,1.2-0.9,2.2-2.1,2.2c-1.2,0.1-2.2-0.9-2.2-2.1c-0.1-1.2,0.9-2.2,2.1-2.2
						C118.7-25.8,119.7-24.8,119.7-23.6z"/>
				</g>
			</g>
		</g>
	</g>
</g>
</svg>
