<?xml version="1.0" encoding="utf-8"?>
<!-- Generator: Adobe Illustrator 24.0.3, SVG Export Plug-In . SVG Version: 6.00 Build 0)  -->
<svg version="1.1" id="Layer_1" xmlns="http://www.w3.org/2000/svg" xmlns:xlink="http://www.w3.org/1999/xlink" x="0px" y="0px"
	 width="135.9px" height="152.3px" viewBox="0 0 135.9 152.3" style="enable-background:new 0 0 135.9 152.3;" xml:space="preserve"
	>
<style type="text/css">
	.st0{clip-path:url(#SVGID_2_);}
	.st1{fill:#FFFFFF;}
	.st2{fill:#C0C0C0;}
	.st3{fill:#0A6593;}
	.st4{clip-path:url(#SVGID_4_);}
	.st5{fill:#333333;}
	.st6{fill:#3C3C3D;}
	.st7{fill:#E5E5E5;}
	.st8{fill:#CBCBCB;}
	.st9{fill:#AB1535;}
	.st10{fill:#E9AA78;}
	.st11{fill:#666666;}
	.st12{fill:#FFB781;}
	.st13{fill:#E97B59;}
	.st14{fill:#808080;}
	.st15{fill:#703F2C;}
	.st16{fill:#4D4D4D;}
	.st17{fill:#E2A36A;}
	.st18{fill:#9B6335;}
	.st19{fill:#F9E8CA;}
	.st20{fill:#D6B799;}
	.st21{fill:#F4BE84;}
	.st22{fill:#39170B;}
</style>
<g>
	<defs>
		<path id="SVGID_1_" d="M132.7,22.4c0.4-1.5-0.5-2.1-1.6-3c-2.8-2.4-2.5-5.6-2.4-8.9c0-2.4-0.2-4.8-0.4-7.1L8.4,3.7
			C5.4,3.7,3,6.1,3,9l0.3,131.4c0,0,0,0,0.1-0.1c3-2.2,4.8,2.7,6.1,4.2c0.4-0.2,0.6-0.3,1-0.5c1.3,1.3,0.4,4.1,3,4.2
			c0.9,0,2.2-0.5,3.1-0.7c2.7-0.6,4.6,0,7.3,0.7c2.9,0.8,7.2,1.1,10-0.1c1.3-0.5,1.4-1.3,1.7-2.6c-0.2-0.5,0-0.9,0.5-1
			c0.7-0.4,0.9,0.2,1.7-0.5c0.6-0.6,1.1-1.3,1.4-2.1c1-2.1,2.1-3.4,4.6-3.9c1-0.2,1.8,0.2,2.2-1c1.1-0.3,2.6,1.5,3.4,2
			c1.6,1.1,3.6,2,5.5,2.4c2.6,0.6,3.7-0.4,5.9-1.5c1.1-0.6,1.9-1,3.1-0.8c0.5,0.4,1.1,0.7,1.8,0.9c0.7,0.1,1.4,0.2,2.2,0.2
			c1.8,0,3.3-0.5,4.9-1.5c1.7-1.1,2.6-2.1,4.5-2.6c0.6-0.2,1.1-0.2,1.6-0.6c1.4-0.9,2.3-2.3,3-3.8c0.3-0.7,0.9-3.2,2-3.4
			c1.4-0.1,1.4,1.3,2.2,2c0.8,0.7,0.7,0.5,1.6,0.6c3.8,0.2,5.5,3.5,8.3,5.7c1.3,1,3.3,2.6,5,3c1.3,0.3,2.7-0.1,4,0.1
			c1,0.2,2.4,1.1,3.4,1c0.2,0,0.3-0.1,0.5-0.1c0,0,0,0,0,0c-0.1-1.5,1-2,2.5-3.1c2.7-2,4.5-4.4,6.4-7.2c1-1.5,2.3-2.3,3.8-3.2
			c1.1-0.7,2.4-1.1,2.6-2.5c0.3-2.3,0-5-1.1-7.1c-0.6-1.2-1.4-2.3-2.1-3.5c-0.3-0.5-1.3-1.6-1.1-2.2c0.4-0.3,0.7-0.6,1.1-0.9
			c1.3-0.8,2.5-1.7,3.7-2.7c0.9-1.3,0.6-2.7-0.1-4c-0.9-1.6-1.8-2.8-2-4.8c-0.2-2.4,1-3.7,2-5.7c1.2-2.5,1.5-5.9,1.7-8.6
			c0.3-4.7,0-9.4-0.4-14.1c-0.3-3.8,1.1-7.7-0.1-11.4c-0.4-1.2-0.7-2.3-0.6-3.5c0.1-2.1,1.6-3.5,3-5c1.3-1.4,2.4-2.4,2.8-4.4
			c0.3-1.8,0.2-4.1,0-5.9c-0.5-4.6-2.6-10.2-0.7-14.7C130.9,25.2,132.4,23.6,132.7,22.4z"/>
	</defs>
	<clipPath id="SVGID_2_">
		<use xlink:href="#SVGID_1_"  style="overflow:visible;"/>
	</clipPath>
	<g class="st0">
		<path class="st1" d="M167.4,268.1L9,268.5c-2.9,0-5.3-2.4-5.3-5.3L3,9c0-2.9,2.4-5.3,5.3-5.3l214.8-0.5c2.9,0,5.3,2.4,5.3,5.3
			l0.6,254.1c0,2.9-2.4,5.3-5.3,5.3l-22.2,0.1L167.4,268.1z"/>
		<g>
			<path class="st2" d="M97.1,234.2l-47.8,0.1c-2.8,0-5-2.2-5-5s2.2-5,5-5l47.8-0.1c2.8,0,5,2.2,5,5S99.9,234.2,97.1,234.2z"/>
			<path class="st2" d="M158.8,251.3l-109.5,0.3c-2.8,0-5-2.2-5-5s2.2-5,5-5l109.5-0.3c2.8,0,5,2.2,5,5
				C163.8,249,161.6,251.3,158.8,251.3z"/>
		</g>
		<path class="st3" d="M205.2,32.1l0.4,169.6c0,2.6-2.1,4.8-4.8,4.8L30.9,207c-2.6,0-4.8-2.1-4.8-4.8L25.7,32.6
			c0-2.9,2.4-5.3,5.3-5.3l168.9-0.4C202.8,26.8,205.2,29.2,205.2,32.1z"/>
		<g>
			<defs>
				<path id="SVGID_3_" d="M205.2,32.1l0.4,169.6c0,2.6-2.1,4.8-4.8,4.8L30.9,207c-2.6,0-4.8-2.1-4.8-4.8L25.7,32.6
					c0-2.9,2.4-5.3,5.3-5.3l168.9-0.4C202.8,26.8,205.2,29.2,205.2,32.1z"/>
			</defs>
			<clipPath id="SVGID_4_">
				<use xlink:href="#SVGID_3_"  style="overflow:visible;"/>
			</clipPath>
			<g class="st4">
				<g id="right_hand_with_fist_16_">
					<g id="shoulder_right_15_">
						<path class="st5" d="M177.9,181.6c-12.2-5-37.3-6.1-35.9,18.3c0.5,9.2,9.5,20.6,15.4,40.6c5.9,19.9,5.5,50.7,19.6,50.8
							C229.6,292,198.3,190,177.9,181.6z"/>
					</g>
				</g>
				<g id="body_16_">
					<path class="st5" d="M49.7,194.1c7.2-9.9,70.6-34.1,70.6-34.1s54.3,14,60.7,24.4c2.6,4.3,0.3,31.9-0.7,45.6
						c-0.9,13.7-6.1,45.3-6.2,59.4c-0.1,15.6,4.5,57.3,4.6,60.9c0,1.8-12,17-51.7,14.5c-26.6-1.6-51.2-18.2-51.5-22.6
						c-0.1-1.6,9.2-44.7,9.2-44.7l-28.5-57.8C56.2,239.7,47,198.1,49.7,194.1z"/>
					<path class="st6" d="M93.8,345.9l2.4-39.6c0,0,21.1-0.1,21.1-3c0-2.9-19.8-5-19.8-5s9.7-0.4,10.1-3c0.4-2.5-11.4-3.8-11.4-3.8
						S72.5,246.1,75,227.1c2.5-19,31-54,31-54l-2.1-6.6c-19.3,7.9-49.4,21-54.3,27.6c-2.7,4,6.6,45.6,6.6,45.6l28.5,57.8
						c0,0-9.2,43-9.2,44.7c0.2,4.4,24.9,21,51.5,22.6c26.2,1.6,40.3-4.5,46.9-9.3C134,372.1,93.8,345.9,93.8,345.9z"/>
					<path class="st7" d="M79.7,176.9c8.1,10.6,34.2,32.9,59.9,48c14-22,26.5-50,26.5-50c-19.6-9.6-45.8-15-45.8-15
						S99.8,166.9,79.7,176.9z"/>
					<polygon class="st8" points="127.6,187.1 131.4,190.7 130.9,219.6 134.4,221.9 135.8,189 128.8,182.3 					"/>
					<path class="st8" d="M93.3,170.6l29.9,29.6l11.1-18.4L106.9,165C102.9,166.5,98.2,168.4,93.3,170.6z"/>
					<path class="st8" d="M156.6,171.2l-0.5-0.6c-3.9-1.5-7.9-2.9-11.7-4.1l-10,15.4l16.1,15.4L156.6,171.2z"/>
					<path class="st8" d="M93,190.6c10.1-10.2,19.2-17.4,19.2-17.4l-16.4-3.7l-16.1,7.4C79.7,176.9,87.2,185.5,93,190.6z"/>
					<path class="st9" d="M139.8,225.4l5.1-9.2c0,0-4.7-19.5-7.3-26.9c-0.6-2.7-4.9-3.6-4.8,0.3c1,11.4,1.4,32.3,1.4,32.3
						L139.8,225.4z"/>
					<polygon class="st9" points="125.2,178.9 141.4,178 137.6,189.3 132.8,189.6 126.6,183.7 					"/>
					<polygon class="st10" points="149.5,168.3 134.2,178.2 99.4,171.1 102.1,141.9 143.8,141.9 					"/>
					<polygon class="st1" points="92.5,166.2 99.1,156.6 134.2,178.2 123.1,196.6 					"/>
					<polygon class="st1" points="134.4,178.3 150.4,193.7 156.6,167.6 148.1,157.3 					"/>
				</g>
				<g id="angry_16_">
					<path class="st11" d="M157,76.2c-2.5,7-7.9,11.5-12,10.1c-4.2-1.5-5.5-8.4-3.1-15.4c2.5-7,7.9-11.5,12-10.1
						S159.4,69.2,157,76.2z"/>
					<path class="st11" d="M94,46.5c0,0-1.6-9.4,6.8-12.1c6.5-2.1,37.1,2.3,43.8,0.5c6.7-1.8,6.3-6.4,6.3-6.4s11,10.1,6.9,29.3
						c-4.1,19.2-22,22.3-22,22.3L97.8,63.5L94,46.5z"/>
					<path class="st11" d="M109,93.7c0.6,23-1.9,34-10.3,35.1c-10.4,1.4-24.7-49.3-20-68.7c2.4-9.7,12.2-14.6,19.5-13.7
						C106.8,47.3,108.3,70.7,109,93.7z"/>
					<path class="st12" d="M101.9,113.3c-0.4,5.1-4.9,9-10.1,8.6c-5.1-0.4-9-4.9-8.6-10.1c0.4-5.1,4.9-9,10.1-8.6
						C98.5,103.6,102.3,108.1,101.9,113.3z"/>
					<path class="st12" d="M154,85.2c-0.2,28.4,6.5,38.9,4.8,46.5c-3.4,14.9-19.6,28.5-28.4,30c-7.7,1.3-34.7-14.2-37-29.9
						c-2.2-15.2-1.8-59.8,15.7-68.2C140,48.6,155.8,70.1,154,85.2z"/>
					<path class="st13" d="M89.9,112.6c0.2-2,1.9-3.5,3.9-3.3c0.3,0,0.5,0.1,0.8,0.2c-0.6-0.6-1.4-0.9-2.4-1
						c-2.3-0.2-4.3,1.5-4.4,3.8c-0.2,2.3,1.5,4.3,3.8,4.4c0.6,0,1.1,0,1.6-0.2C91.2,116.3,89.7,114.6,89.9,112.6z"/>
					<path class="st11" d="M131.1,58.3C99.7,56,97.6,87.8,96.7,113l-3.1-0.8C81.4,71.1,93,40.9,131.1,58.3z"/>
					<path class="st14" d="M102.7,35.8c0,0-4.5,1.3-3,5.8c1.5,4.6,18.6,11.2,30.6,11.2C143.8,53,158.4,44,151,28.5
						c0,0,1.6,4.8-5.8,7.4C136.6,38.9,109.9,33.3,102.7,35.8z"/>
					<path class="st14" d="M81.2,57.9c0,0,3.9-9.8,11.7-8.2c7.9,1.6,7.5,9.9,5.7,13.4c-1.8,3.5-9.8,20-14.2,19.7
						C79.9,82.6,77.6,68.6,81.2,57.9z"/>
					<path class="st14" d="M94,46.5c0,0,8.6,8.3,20.2,14.8l-1.6,1C112.6,62.3,99.1,53.8,94,46.5z"/>
					<g>
						<path class="st15" d="M151,28.5c0.2,0.2,0.3,0.5,0.5,0.7C151.2,28.7,151,28.5,151,28.5z"/>
						<path class="st14" d="M139.5,60.7l0.1,0.1c0,0,23.8-13,11.8-31.5c2.1,3.5,9.4,18.8-13.7,30.8l0.3,0.1
							C138.6,60.3,139.1,60.5,139.5,60.7z"/>
					</g>
					<path class="st14" d="M155.8,35.4c0,0,6.4,18.3-11.8,27.8l0.9,0.7C144.9,63.9,163,55.1,155.8,35.4z"/>
					<polygon class="st14" points="98.8,88.3 79.8,88.8 80.1,89.9 98.6,89.7 					"/>
					<polygon class="st14" points="98.1,92.6 80.7,93.2 81,94.4 97.9,94.5 					"/>
					<path class="st16" d="M136.5,95c0.6,0.8,10.3-8.3,12.7-8.1c2.3,0.2,4.9,3.4,4.9,3.4s-1.6-6.3-4.3-6.3c-2.7,0-10.3,6-11.6,7
						C137.5,91.6,135.9,94.2,136.5,95z"/>
					<path class="st16" d="M107,90.2c0,0,6.1-4.6,9.3-4.2c2.7,0.3,14.1,10.6,16,9.1c0.8-0.7-0.9-3.4-4.2-5.7
						c-1.6-1.1-9.3-6.9-11.2-7.1C115,82.1,109.5,86.9,107,90.2z"/>
					<path class="st17" d="M136,144.4c-0.1,1.2-2.7,1.1-5.9,0.9c-3.2-0.2-5.8-0.3-5.7-1.6c0.1-1.2,2.8-3.1,6-2.9
						C133.6,141.1,136.1,143.2,136,144.4z"/>
					<g>
						<path class="st18" d="M139.1,133.7c-1.8-0.8-18.1-12.8-23.8-13c-5.8-0.1-12.2,16.3-10.3,19.2c0.4,0.2,9-3,17.7-3.5
							c9.9-0.5,20.1,1.8,20.3,1.7c0.4-0.2-0.5-1.3-0.5-1.3l1.3-3.4c0,0,2.4-1.7,2.2-2.1C145.9,131.4,140.7,134.4,139.1,133.7z"/>
						<path class="st19" d="M105.6,138.8c-0.5-0.2,0.4-4.5,2.3-8.8c1.9-4.2,5.2-8.4,6.9-8.4c1.6,0,6.6,2.2,11.6,5.3
							c5.5,3.4,11.5,7.8,12.6,8.1c1.1,0.2,3.9-1.1,3.9-1.1l-1.2,3.4c0,0-10.2-2-20.4-1.4C113.6,136.2,105.8,138.9,105.6,138.8z"/>
						<path class="st20" d="M119.1,122.9c-1.9-0.9-3.5-1.4-4.3-1.4c-1.7,0-5.1,4.2-6.9,8.4c-1.9,4.4-2.8,8.7-2.3,8.8
							c0.1,0,2.6-0.8,6.1-1.6c-3.8-0.3-2.5-5.7-1.3-8C112,126.1,114.7,122.5,119.1,122.9z"/>
						<path class="st20" d="M141.9,134.3l1-0.4l-1.2,3.4l-0.9-0.2C140.8,137,142.2,136.3,141.9,134.3z"/>
						<g>
							<path class="st20" d="M139.1,134.9c0,0-0.1,0-0.2-0.1l-0.5,1.8c0.1,0,0.2,0,0.3,0l0.5-1.8C139.2,135,139.1,134.9,139.1,134.9
								z"/>
							<path class="st20" d="M132.3,130.7l-1.4,5.2c0.1,0,0.2,0,0.3,0l1.4-5.1C132.5,130.8,132.4,130.7,132.3,130.7z"/>
							<path class="st20" d="M123.6,125.2l-2.4,10.6c0,0,0,0,0.1,0c0.1,0,0.2,0,0.3,0l2.3-10.4C123.8,125.3,123.7,125.2,123.6,125.2
								z"/>
							<path class="st20" d="M115.3,121.6l-3.3,15.6c0.1,0,0.2-0.1,0.4-0.1l3.2-15.4C115.5,121.6,115.4,121.6,115.3,121.6z"/>
						</g>
						<path class="st18" d="M106.6,132.4c0,0,2.6-1,7.6-1.5c4.2-0.4,8-0.2,8.1-0.5c0.1-0.3-7.8-0.7-15.3,0.8L106.6,132.4z"/>
					</g>
				</g>
				<g id="left_hand_16_">
					<g id="shoulder_left_16_">
						<path class="st5" d="M67.9,187.2c-16.3-9.4-98.5,68.8-77.1,89.6C29,314,84.2,196.7,67.9,187.2z"/>
					</g>
					<g id="wrist_left_21_">
						<path class="st21" d="M94.6,313c-1.2-1.9-7.5-8.1-11.4-10.9c-4.1-0.6-3.4,3.6-3.4,3.6s0.8,11.2,2.5,13.2c0,0,1,1.9,2.9,0
							c0,0,0.1,0,0.1,0c0.4,0.2,2.4,1,3.3-1.2c0,0,0,0,0.1,0c0.3,0.1,2.9,0.9,3.8-2c0.1-0.1,0.2-0.1,0.2-0.2
							C93.4,315.4,95.8,314.9,94.6,313z"/>
						<path class="st17" d="M94.7,313.1c0,1.1-1.6,1.4-2.2,1.5c-0.1,0.1-0.2,0.1-0.2,0.2c-0.9,2.7-3.3,2-3.6,1.9c0,0,0,0-0.1,0
							c-0.8,2.2-2.8,1.3-3.2,1.2c0,0-0.1,0-0.1,0c-1.8,1.8-2.8,0-2.8,0c-1.5-1.8-1.7-13-1.7-14l-1,1.8c0,0,0.8,11.2,2.5,13.2
							c0,0,1,1.9,2.9,0c0,0,0.1,0,0.1,0c0.4,0.2,2.4,1,3.3-1.2c0,0,0,0,0.1,0c0.3,0.1,2.9,0.9,3.8-2c0.1-0.1,0.2-0.1,0.2-0.2
							C93.4,315.4,95.6,314.9,94.7,313.1z"/>
					</g>
					<g id="forearm_left_16_">
						<path class="st5" d="M-6.4,255.9c5.9-8.4,22.3-11.1,40.8,1.7c22.2,15.3,49,44.7,49,44.7l-3.2,3.5c0,0-50.2-6.6-70.9-18.2
							C-4.6,279.8-13.7,266.3-6.4,255.9z"/>
					</g>
				</g>
				<g>
					<path class="st13" d="M133.8,96.5c2.8,9.9,6.6,22.9,6.6,24.8c0,1.9-8.3,4.2-9.8,3.6c-1.5-0.6,1.7-28.3,1.7-28.3L133.8,96.5z"/>
					<path class="st12" d="M132.3,95.5c2.8,9.9,6.6,22.9,6.6,24.8c0,1.9-8.3,4.2-9.8,3.6c-1.5-0.6,1.7-28.3,1.7-28.3L132.3,95.5z"/>
				</g>
				<g>
					<path class="st1" d="M138.8,104.3c-0.1-3.7,0.4-8.2,6.1-9.7c5.7-1.5,8.4,3.6,8.3,5.5c-0.1,1.9-1.6,4.7-4.8,5
						c-3.2,0.3-6,0.1-7.1,0.2C140.2,105.5,138.9,105.1,138.8,104.3z"/>
					<circle class="st22" cx="145.5" cy="99.8" r="4.7"/>
					<path class="st1" d="M141.5,98.1c0.1,1.2,1,2.1,2.2,2.1s2.1-1,2.1-2.2s-1-2.1-2.2-2.1C142.4,95.9,141.4,96.9,141.5,98.1z"/>
					<path class="st1" d="M124.1,104.8c-0.2-3.7-1-8.1-6.8-9.3c-5.8-1.2-8.2,4.1-7.9,6.1s1.9,4.6,5.1,4.7c3.2,0.1,6-0.4,7.1-0.2
						C122.8,106.1,124.2,105.6,124.1,104.8z"/>
					<path class="st22" d="M121.6,100.3c0.1,2.6-1.9,4.8-4.6,4.9c-2.6,0.1-4.8-1.9-4.9-4.6c-0.1-2.6,1.9-4.8,4.6-4.9
						C119.4,95.6,121.5,97.7,121.6,100.3z"/>
					<path class="st1" d="M117.2,98.6c0.1,1.2-0.9,2.2-2.1,2.2c-1.2,0.1-2.2-0.9-2.2-2.1c-0.1-1.2,0.9-2.2,2.1-2.2
						C116.2,96.4,117.2,97.4,117.2,98.6z"/>
				</g>
			</g>
		</g>
	</g>
</g>
</svg>
