<?xml version="1.0" encoding="utf-8"?>
<!-- Generator: Adobe Illustrator 24.0.3, SVG Export Plug-In . SVG Version: 6.00 Build 0)  -->
<svg version="1.1" id="Layer_1" xmlns="http://www.w3.org/2000/svg" xmlns:xlink="http://www.w3.org/1999/xlink" x="0px" y="0px"
	 width="159.9px" height="152.3px" viewBox="0 0 159.9 152.3" style="enable-background:new 0 0 159.9 152.3;" xml:space="preserve"
	>
<style type="text/css">
	.st0{clip-path:url(#SVGID_2_);}
	.st1{fill:#FFFFFF;}
	.st2{fill:#C0C0C0;}
	.st3{fill:#0A6593;}
	.st4{clip-path:url(#SVGID_4_);}
	.st5{fill:#333333;}
	.st6{fill:#3C3C3D;}
	.st7{fill:#E5E5E5;}
	.st8{fill:#CBCBCB;}
	.st9{fill:#AB1535;}
	.st10{fill:#E9AA78;}
	.st11{fill:#666666;}
	.st12{fill:#FFB781;}
	.st13{fill:#E97B59;}
	.st14{fill:#808080;}
	.st15{fill:#703F2C;}
	.st16{fill:#4D4D4D;}
	.st17{fill:#E2A36A;}
	.st18{fill:#9B6335;}
	.st19{fill:#F9E8CA;}
	.st20{fill:#D6B799;}
	.st21{fill:#F4BE84;}
	.st22{fill:#39170B;}
</style>
<g>
	<defs>
		<path id="SVGID_1_" d="M152.4,22.7c-1.6,0.2-3.6-1.3-5.2-1.6c-1.5-0.3-3.4-0.2-5-0.1c-3.8,0.2-6.9,3.3-10.9,2
			c-2-0.7-3.4-2.6-5-3.8c-1.3-1-2.2-1.5-3.9-1.9c-1.5-0.3-2.9-0.6-4.4-1c-2.2-0.5-4-1.8-6-2.9c-2.4-1.4-4.1-1.7-6.1,0.3
			c-0.7,0.6-1.7,1.8-2.6,2.2c-0.9,0.3-2.6,0.2-3.4,0.1c-3.6-0.2-6.2-3.7-9.9-3.7c-1,0-1.8,0.3-2.7,0.5c-1.7,0.3-3.6,0.1-5.3,0.1
			c-2.2,0-4.3-0.4-6.2,0.9c-1.4,1-2.6,2.4-4,3.5c-2.4,2-3.2-0.9-5.4-0.9c-1.5,0-2.7,0.7-4,1.5c-2.3,1.5-3.9,0.9-6.3-0.4
			c-2.2-1.2-4.8-2.2-6.5-4.1c-0.6-0.7-2.3-2.9-3.6-2.1c-0.3,0.2-1.6,3.1-1.6,3.2c-0.5,0.9-1.9,3.7-3.1,4c-0.9,0.2-1.3-0.6-2.1-0.9
			c-1.3-0.5-2.1,0.2-3,1.2c-0.5,0.6-0.7,1-1.3,1.2c0,0.3,0.1,0.6,0.2,0.9c0.5,1.7,1.2,3.5,2.1,5c2.2,3.3,5,5.9,2.7,10
			C37,41.2,37,46.8,38.5,52.8c0.8,3.3,2.2,6.6,0.9,10c-1,2.5-2.7,4.3-2.8,7.2c-0.1,4.9,4.9,7.8,4.9,12.5c0,2.6-2.4,4.2-3,6.6
			c-0.5,1.8-1.1,3-2.2,4.5c-0.9,1.3-2.8,3-3.1,4.6c0,0.7,0.1,1.3,0.4,2c0.1,0.9,0.2,1.8,0.1,2.6c0,1.6,0.1,2.1-1.2,3.3
			c-1.6,1.5-3.8,2.3-5.7,3.5c-2.4,1.6-5,3.6-6.3,6.2c-2.3,4.6-0.4,10.2-2.7,14.7C15,136,6.8,137.3,5,143.6c-0.3,1.2-0.3,2.5-0.1,3.8
			l88.5-0.2l34.2-0.1l22.2-0.1c2.9,0,5.3-2.4,5.3-5.3l-0.3-120.5C154.1,21.9,153.4,22.6,152.4,22.7z"/>
	</defs>
	<clipPath id="SVGID_2_">
		<use xlink:href="#SVGID_1_"  style="overflow:visible;"/>
	</clipPath>
	<g class="st0">
		<path class="st1" d="M93.4,147.2L-65,147.6c-2.9,0-5.3-2.4-5.3-5.3L-71-111.9c0-2.9,2.4-5.3,5.3-5.3l214.8-0.5
			c2.9,0,5.3,2.4,5.3,5.3l0.6,254.1c0,2.9-2.4,5.3-5.3,5.3l-22.2,0.1L93.4,147.2z"/>
		<g>
			<path class="st2" d="M23.1,113.3l-47.8,0.1c-2.8,0-5-2.2-5-5c0-2.8,2.2-5,5-5l47.8-0.1c2.8,0,5,2.2,5,5S25.9,113.3,23.1,113.3z"
				/>
			<path class="st2" d="M84.8,130.4l-109.5,0.3c-2.8,0-5-2.2-5-5c0-2.8,2.2-5,5-5l109.5-0.3c2.8,0,5,2.2,5,5
				C89.8,128.1,87.6,130.4,84.8,130.4z"/>
		</g>
		<path class="st3" d="M131.2-88.8l0.4,169.6c0,2.6-2.1,4.8-4.8,4.8l-169.9,0.4c-2.6,0-4.8-2.1-4.8-4.8l-0.4-169.6
			c0-2.9,2.4-5.3,5.3-5.3l168.9-0.4C128.8-94.1,131.2-91.7,131.2-88.8z"/>
		<g>
			<defs>
				<path id="SVGID_3_" d="M131.2-88.8l0.4,169.6c0,2.6-2.1,4.8-4.8,4.8l-169.9,0.4c-2.6,0-4.8-2.1-4.8-4.8l-0.4-169.6
					c0-2.9,2.4-5.3,5.3-5.3l168.9-0.4C128.8-94.1,131.2-91.7,131.2-88.8z"/>
			</defs>
			<clipPath id="SVGID_4_">
				<use xlink:href="#SVGID_3_"  style="overflow:visible;"/>
			</clipPath>
			<g class="st4">
				<g id="right_hand_with_fist_15_">
					<g id="shoulder_right_14_">
						<path class="st5" d="M103.9,60.7C91.7,55.7,66.6,54.6,68,79c0.5,9.2,9.5,20.6,15.4,40.6c5.9,19.9,5.5,50.7,19.6,50.8
							C155.5,171.1,124.3,69.1,103.9,60.7z"/>
					</g>
				</g>
				<g id="body_15_">
					<path class="st5" d="M-24.3,73.2c7.2-9.9,70.6-34.1,70.6-34.1s54.3,14,60.7,24.4c2.6,4.3,0.3,31.9-0.7,45.6s-6.1,45.3-6.2,59.4
						c-0.1,15.6,4.5,57.3,4.6,60.9c0,1.8-12,17-51.7,14.5c-26.6-1.6-51.2-18.2-51.5-22.6c-0.1-1.6,9.2-44.7,9.2-44.7l-28.5-57.8
						C-17.8,118.8-27,77.2-24.3,73.2z"/>
					<path class="st6" d="M19.8,225l2.4-39.6c0,0,21.1-0.1,21.1-3c0-2.9-19.8-5-19.8-5s9.7-0.4,10.1-3c0.4-2.5-11.4-3.8-11.4-3.8
						S-1.5,125.2,1,106.2c2.5-19,31-54,31-54l-2.1-6.6c-19.3,7.9-49.4,21-54.3,27.6c-2.7,4,6.6,45.6,6.6,45.6l28.5,57.8
						c0,0-9.2,43-9.2,44.7c0.2,4.4,24.9,21,51.5,22.6c26.2,1.6,40.3-4.5,46.9-9.3C60,251.2,19.8,225,19.8,225z"/>
					<path class="st7" d="M5.7,56c8.1,10.6,34.2,32.9,59.9,48c14-22,26.5-50,26.5-50c-19.6-9.6-45.8-15-45.8-15S25.8,46,5.7,56z"/>
					<polygon class="st8" points="53.5,66.2 57.3,69.8 56.9,98.7 60.4,101 61.8,68.1 54.8,61.4 					"/>
					<path class="st8" d="M19.3,49.7l29.9,29.6l11.1-18.4L32.9,44.1C28.9,45.6,24.2,47.5,19.3,49.7z"/>
					<path class="st8" d="M82.6,50.3l-0.5-0.6c-3.9-1.5-7.9-2.9-11.7-4.1L60.4,61l16.1,15.4L82.6,50.3z"/>
					<path class="st8" d="M19,69.7c10.1-10.2,19.2-17.4,19.2-17.4l-16.4-3.7L5.7,56C5.7,56,13.2,64.6,19,69.7z"/>
					<path class="st9" d="M65.8,104.5l5.1-9.2c0,0-4.7-19.5-7.3-26.9c-0.6-2.7-4.9-3.6-4.8,0.3c1,11.4,1.4,32.3,1.4,32.3L65.8,104.5
						z"/>
					<polygon class="st9" points="51.2,58 67.4,57.1 63.6,68.4 58.8,68.7 52.6,62.8 					"/>
					<polygon class="st10" points="75.4,47.4 60.2,57.3 25.4,50.2 28.1,21 69.8,21 					"/>
					<polygon class="st1" points="18.4,45.3 25.1,35.7 60.2,57.3 49.1,75.7 					"/>
					<polygon class="st1" points="60.4,57.4 76.4,72.8 82.5,46.7 74.1,36.4 					"/>
				</g>
				<g id="angry_15_">
					<path class="st11" d="M82.9-44.7c-2.5,7-7.9,11.5-12,10.1c-4.2-1.5-5.5-8.4-3.1-15.4c2.5-7,7.9-11.5,12-10.1
						C84-58.6,85.4-51.7,82.9-44.7z"/>
					<path class="st11" d="M20-74.4c0,0-1.6-9.4,6.8-12.1c6.5-2.1,37.1,2.3,43.8,0.5c6.7-1.8,6.3-6.4,6.3-6.4s11,10.1,6.9,29.3
						C79.9-44,62-40.8,62-40.8L23.8-57.4L20-74.4z"/>
					<path class="st11" d="M35-27.2c0.6,23-1.9,34-10.3,35.1C14.3,9.3,0-41.3,4.7-60.8C7.1-70.4,17-75.3,24.3-74.5
						C32.8-73.6,34.3-50.2,35-27.2z"/>
					<path class="st12" d="M27.9-7.6C27.5-2.5,23,1.4,17.8,1C12.7,0.5,8.8-4,9.2-9.1c0.4-5.1,4.9-9,10.1-8.6
						C24.5-17.3,28.3-12.8,27.9-7.6z"/>
					<path class="st12" d="M80-35.7c-0.2,28.4,6.5,38.9,4.8,46.5c-3.4,14.9-19.6,28.5-28.4,30c-7.7,1.3-34.7-14.2-37-29.9
						C17.1-4.4,17.6-49,35-57.4C66-72.3,81.8-50.8,80-35.7z"/>
					<path class="st13" d="M15.9-8.3c0.2-2,1.9-3.5,3.9-3.3c0.3,0,0.5,0.1,0.8,0.2c-0.6-0.6-1.4-0.9-2.4-1c-2.3-0.2-4.3,1.5-4.4,3.8
						c-0.2,2.3,1.5,4.3,3.8,4.4c0.6,0,1.1,0,1.6-0.2C17.2-4.6,15.7-6.4,15.9-8.3z"/>
					<path class="st11" d="M57.1-62.6C25.7-64.9,23.6-33.1,22.7-7.9l-3.1-0.8C7.4-49.8,19-80,57.1-62.6z"/>
					<path class="st14" d="M28.7-85.1c0,0-4.5,1.3-3,5.8c1.5,4.6,18.6,11.2,30.6,11.2c13.5,0.1,28.1-8.9,20.7-24.4
						c0,0,1.6,4.8-5.8,7.4C62.6-82,35.8-87.6,28.7-85.1z"/>
					<path class="st14" d="M7.2-63c0,0,3.9-9.8,11.7-8.2s7.5,9.9,5.7,13.4c-1.8,3.5-9.8,20-14.2,19.7C5.9-38.3,3.6-52.3,7.2-63z"/>
					<path class="st14" d="M20-74.4c0,0,8.6,8.3,20.2,14.8l-1.6,1C38.6-58.6,25.1-67.1,20-74.4z"/>
					<g>
						<path class="st15" d="M77-92.4c0.2,0.2,0.3,0.5,0.5,0.7C77.2-92.2,77-92.4,77-92.4z"/>
						<path class="st14" d="M65.5-60.2l0.1,0.1c0,0,23.8-13,11.8-31.5c2.1,3.5,9.4,18.8-13.7,30.8l0.3,0.1
							C64.6-60.6,65-60.4,65.5-60.2z"/>
					</g>
					<path class="st14" d="M81.7-85.5c0,0,6.4,18.3-11.8,27.8l0.9,0.7C70.9-57,89-65.8,81.7-85.5z"/>
					<polygon class="st14" points="24.8,-32.6 5.8,-32.1 6,-31 24.6,-31.2 					"/>
					<polygon class="st14" points="24.1,-28.3 6.7,-27.7 7,-26.5 23.9,-26.4 					"/>
					<path class="st16" d="M62.5-25.9c0.6,0.8,10.3-8.3,12.7-8.1c2.3,0.2,4.9,3.4,4.9,3.4s-1.6-6.3-4.3-6.3c-2.7,0-10.3,6-11.6,7
						C63.5-29.3,61.9-26.7,62.5-25.9z"/>
					<path class="st16" d="M33-30.7c0,0,6.1-4.6,9.3-4.2c2.7,0.3,14.1,10.6,16,9.1c0.8-0.7-0.9-3.4-4.2-5.7
						c-1.6-1.1-9.3-6.9-11.2-7.1C41-38.8,35.5-34,33-30.7z"/>
					<path class="st17" d="M62,23.5c-0.1,1.2-2.7,1.1-5.9,0.9c-3.2-0.2-5.8-0.3-5.7-1.6c0.1-1.2,2.8-3.1,6-2.9
						C59.6,20.1,62.1,22.3,62,23.5z"/>
					<g>
						<path class="st18" d="M65.1,12.8C63.3,12.1,47,0,41.2-0.2c-5.8-0.1-12.2,16.3-10.3,19.2c0.4,0.2,9-3,17.7-3.5
							c9.9-0.5,20.1,1.8,20.3,1.7c0.4-0.2-0.5-1.3-0.5-1.3l1.3-3.4c0,0,2.4-1.7,2.2-2.1C71.9,10.5,66.7,13.5,65.1,12.8z"/>
						<path class="st19" d="M31.6,17.9c-0.5-0.2,0.4-4.5,2.3-8.8c1.9-4.2,5.2-8.4,6.9-8.4c1.6,0,6.6,2.2,11.6,5.3
							C58,9.4,64,13.8,65.1,14c1.1,0.2,3.9-1.1,3.9-1.1l-1.2,3.4c0,0-10.2-2-20.4-1.4C39.6,15.3,31.8,18,31.6,17.9z"/>
						<path class="st20" d="M45.1,2c-1.9-0.9-3.5-1.4-4.3-1.4c-1.7,0-5.1,4.2-6.9,8.4c-1.9,4.4-2.8,8.7-2.3,8.8
							c0.1,0,2.6-0.8,6.1-1.6c-3.8-0.3-2.5-5.7-1.3-8C38,5.2,40.7,1.6,45.1,2z"/>
						<path class="st20" d="M67.9,13.4l1-0.4l-1.2,3.4l-0.9-0.2C66.8,16.1,68.2,15.4,67.9,13.4z"/>
						<g>
							<path class="st20" d="M65.1,14c0,0-0.1,0-0.2-0.1l-0.5,1.8c0.1,0,0.2,0,0.3,0l0.5-1.8C65.2,14,65.1,14,65.1,14z"/>
							<path class="st20" d="M58.3,9.8L56.8,15c0.1,0,0.2,0,0.3,0l1.4-5.1C58.5,9.9,58.4,9.8,58.3,9.8z"/>
							<path class="st20" d="M49.6,4.3l-2.4,10.6c0,0,0,0,0.1,0c0.1,0,0.2,0,0.3,0l2.3-10.4C49.8,4.4,49.7,4.3,49.6,4.3z"/>
							<path class="st20" d="M41.2,0.7L38,16.2c0.1,0,0.2-0.1,0.4-0.1l3.2-15.4C41.5,0.7,41.4,0.7,41.2,0.7z"/>
						</g>
						<path class="st18" d="M32.6,11.5c0,0,2.6-1,7.6-1.5c4.2-0.4,8-0.2,8.1-0.5c0.1-0.3-7.8-0.7-15.3,0.8L32.6,11.5z"/>
					</g>
				</g>
				<g id="left_hand_15_">
					<g id="shoulder_left_15_">
						<path class="st5" d="M-6.1,66.3c-16.3-9.4-98.5,68.8-77.1,89.6C-45,193.1,10.1,75.8-6.1,66.3z"/>
					</g>
					<g id="wrist_left_20_">
						<path class="st21" d="M20.6,192.1c-1.2-1.9-7.5-8.1-11.4-10.9c-4.1-0.6-3.4,3.6-3.4,3.6s0.8,11.2,2.5,13.2c0,0,1,1.9,2.9,0
							c0,0,0.1,0,0.1,0c0.4,0.2,2.4,1,3.3-1.2c0,0,0,0,0.1,0c0.3,0.1,2.9,0.9,3.8-2c0.1-0.1,0.2-0.1,0.2-0.2
							C19.4,194.5,21.8,194,20.6,192.1z"/>
						<path class="st17" d="M20.6,192.2c0,1.1-1.6,1.4-2.2,1.5c-0.1,0.1-0.2,0.1-0.2,0.2c-0.9,2.7-3.3,2-3.6,1.9c0,0,0,0-0.1,0
							c-0.8,2.2-2.8,1.3-3.2,1.2c0,0-0.1,0-0.1,0c-1.8,1.8-2.8,0-2.8,0c-1.5-1.8-1.7-13-1.7-14l-1,1.8c0,0,0.8,11.2,2.5,13.2
							c0,0,1,1.9,2.9,0c0,0,0.1,0,0.1,0c0.4,0.2,2.4,1,3.3-1.2c0,0,0,0,0.1,0c0.3,0.1,2.9,0.9,3.8-2c0.1-0.1,0.2-0.1,0.2-0.2
							C19.3,194.5,21.6,194,20.6,192.2z"/>
					</g>
					<g id="forearm_left_15_">
						<path class="st5" d="M-80.4,135c5.9-8.4,22.3-11.1,40.8,1.7c22.2,15.3,49,44.7,49,44.7l-3.2,3.5c0,0-50.2-6.6-70.9-18.2
							C-78.7,158.9-87.7,145.4-80.4,135z"/>
					</g>
				</g>
				<g>
					<path class="st13" d="M59.8-24.4c2.8,9.9,6.6,22.9,6.6,24.8c0,1.9-8.3,4.2-9.8,3.6c-1.5-0.6,1.7-28.3,1.7-28.3L59.8-24.4z"/>
					<path class="st12" d="M58.3-25.4C61.1-15.5,65-2.5,65-0.6c0,1.9-8.3,4.2-9.8,3.6c-1.5-0.6,1.7-28.3,1.7-28.3L58.3-25.4z"/>
				</g>
				<g>
					<path class="st1" d="M64.8-16.6c-0.1-3.7,0.4-8.2,6.1-9.7c5.7-1.5,8.4,3.6,8.3,5.5c-0.1,1.9-1.6,4.7-4.8,5
						c-3.2,0.3-6,0.1-7.1,0.2C66.2-15.4,64.9-15.8,64.8-16.6z"/>
					<circle class="st22" cx="71.5" cy="-21.1" r="4.7"/>
					<path class="st1" d="M67.4-22.8c0.1,1.2,1,2.1,2.2,2.1c1.2-0.1,2.1-1,2.1-2.2c-0.1-1.2-1-2.1-2.2-2.1
						C68.3-25,67.4-24,67.4-22.8z"/>
					<path class="st1" d="M50.1-16.1c-0.2-3.7-1-8.1-6.8-9.3c-5.8-1.2-8.2,4.1-7.9,6.1s1.9,4.6,5.1,4.7c3.2,0.1,6-0.4,7.1-0.2
						C48.8-14.8,50.1-15.3,50.1-16.1z"/>
					<path class="st22" d="M47.6-20.6c0.1,2.6-1.9,4.8-4.6,4.9s-4.8-1.9-4.9-4.6c-0.1-2.6,1.9-4.8,4.6-4.9
						C45.4-25.3,47.5-23.3,47.6-20.6z"/>
					<path class="st1" d="M43.2-22.3c0.1,1.2-0.9,2.2-2.1,2.2c-1.2,0.1-2.2-0.9-2.2-2.1c-0.1-1.2,0.9-2.2,2.1-2.2
						C42.2-24.5,43.1-23.5,43.2-22.3z"/>
				</g>
			</g>
		</g>
	</g>
</g>
</svg>
