<?xml version="1.0" encoding="utf-8"?>
<!-- Generator: Adobe Illustrator 24.0.3, SVG Export Plug-In . SVG Version: 6.00 Build 0)  -->
<svg version="1.1" id="Layer_1" xmlns="http://www.w3.org/2000/svg" xmlns:xlink="http://www.w3.org/1999/xlink" x="0px" y="0px"
	 width="358.5px" height="419.8px" viewBox="0 0 358.5 419.8" style="enable-background:new 0 0 358.5 419.8;" xml:space="preserve"
	>
<style type="text/css">
	.st0{opacity:0.2;fill:#FFFFFF;}
	.st1{fill:#FFFFFF;}
	.st2{fill:none;stroke:#FFFFFF;stroke-width:1.2669;}
</style>
<g>
	<path class="st0" d="M205.1,32.7c0.6-2.4-0.8-3.2-2.5-4.6c-4.4-3.7-3.9-8.7-3.8-13.9c0.1-3.7-0.4-7.4-0.6-11.1L10.9,3.5
		c-4.6,0-8.3,3.7-8.3,8.3L3.2,217c0,0,0.1-0.1,0.1-0.1c4.6-3.4,7.5,4.2,9.6,6.6c0.6-0.3,0.9-0.5,1.6-0.8c2,2,0.6,6.4,4.7,6.6
		c1.5,0.1,3.5-0.8,4.9-1.1c4.2-0.9,7.2,0,11.4,1.1c4.5,1.2,11.2,1.7,15.7-0.1c2.1-0.8,2.1-2.1,2.7-4c-0.3-0.9,0-1.4,0.7-1.6
		c1.1-0.6,1.3,0.3,2.6-0.7c1-0.9,1.7-2.1,2.2-3.3c1.6-3.3,3.3-5.3,7.1-6.1c1.6-0.3,2.8,0.3,3.5-1.6c1.8-0.4,4.1,2.3,5.3,3.1
		c2.6,1.7,5.6,3.1,8.6,3.8c4.1,0.9,5.8-0.6,9.2-2.4c1.7-0.9,2.9-1.6,4.8-1.2c0.8,0.6,1.8,1.1,2.8,1.4c1.1,0.2,2.2,0.3,3.4,0.2
		c2.8-0.1,5.2-0.8,7.6-2.4c2.7-1.8,4-3.2,7-4.1c0.9-0.3,1.7-0.4,2.5-0.9c2.1-1.4,3.6-3.6,4.7-5.9c0.5-1.1,1.5-5,3.2-5.2
		c2.1-0.2,2.2,2,3.4,3.1c1.2,1.1,1,0.9,2.6,0.9c6,0.3,8.6,5.5,13,8.9c2.1,1.6,5.2,4.1,7.9,4.7c2.1,0.5,4.2-0.2,6.3,0.2
		c1.6,0.3,3.7,1.7,5.4,1.5c0.3,0,0.5-0.1,0.7-0.2c0,0,0,0,0,0c-0.2-2.3,1.6-3.1,3.9-4.8c4.2-3.1,7.1-6.9,10-11.2
		c1.6-2.3,3.6-3.5,5.9-5c1.8-1.1,3.8-1.6,4.1-3.9c0.4-3.6-0.1-7.9-1.7-11.1c-0.9-1.9-2.3-3.6-3.3-5.5c-0.4-0.8-2-2.4-1.7-3.4
		c0.6-0.5,1.2-0.9,1.7-1.4c2-1.3,3.9-2.7,5.7-4.2c1.4-2,0.9-4.2-0.2-6.3c-1.4-2.6-2.8-4.3-3.1-7.4c-0.3-3.7,1.6-5.8,3.1-8.9
		c1.9-3.8,2.4-9.2,2.6-13.5c0.4-7.3,0-14.7-0.6-21.9c-0.5-5.9,1.7-12.1-0.1-17.7c-0.6-1.8-1-3.6-1-5.5c0.1-3.3,2.5-5.4,4.6-7.8
		c2-2.2,3.8-3.8,4.3-6.8c0.5-2.8,0.3-6.3-0.1-9.2c-0.8-7.1-4-16-1.1-22.9C202.1,37.1,204.6,34.6,205.1,32.7z"/>
	<path class="st1" d="M251.1,306.4c0.1,0.4,0.1,0.8,0.3,1.2C251.2,307.2,251.2,306.8,251.1,306.4z"/>
	<path class="st0" d="M351.6,221.9c-2.6,0.3-5.6-2-8.1-2.5c-2.4-0.4-5.3-0.3-7.7-0.2c-5.9,0.3-10.7,5.2-16.9,3.1
		c-3.1-1-5.3-4.1-7.8-6c-2.1-1.6-3.5-2.3-6.1-2.9c-2.3-0.5-4.6-1-6.9-1.6c-3.4-0.9-6.3-2.9-9.3-4.5c-3.8-2.1-6.4-2.6-9.5,0.4
		c-1,1-2.6,2.8-4,3.4c-1.4,0.5-4,0.3-5.4,0.2c-5.7-0.3-9.6-5.7-15.4-5.9c-1.6,0-2.7,0.4-4.3,0.7c-2.7,0.5-5.6,0.2-8.3,0.1
		c-3.4-0.1-6.7-0.6-9.7,1.5c-2.2,1.6-4.1,3.7-6.2,5.5c-3.7,3.1-4.9-1.4-8.4-1.5c-2.3,0-4.3,1.1-6.2,2.3c-3.7,2.3-6.1,1.4-9.9-0.6
		c-3.5-1.9-7.5-3.4-10.2-6.4c-1-1.2-3.6-4.5-5.6-3.2c-0.5,0.3-2.4,4.8-2.5,5c-0.8,1.3-2.9,5.7-4.9,6.2c-1.4,0.3-2.1-1-3.3-1.4
		c-2-0.7-3.3,0.2-4.7,1.9c-0.8,1-1.1,1.6-2,1.9c0,0.4,0.1,0.9,0.3,1.4c0.8,2.6,1.8,5.5,3.3,7.7c3.4,5.2,7.7,9.2,4.2,15.6
		c-4.9,8.7-4.8,17.3-2.4,26.8c1.3,5.2,3.4,10.4,1.4,15.6c-1.5,3.9-4.2,6.8-4.3,11.2c-0.2,7.7,7.7,12.2,7.7,19.6
		c0,4-3.7,6.5-4.7,10.3c-0.8,2.8-1.7,4.7-3.4,7.1c-1.4,2-4.3,4.7-4.9,7.1c0,1.1,0.2,2.1,0.6,3.1c0.2,1.4,0.3,2.7,0.2,4.1
		c0.1,2.5,0.2,3.3-1.8,5.1c-2.5,2.3-6,3.6-8.8,5.5c-3.8,2.5-7.7,5.6-9.8,9.7c-3.5,7.2-0.6,15.9-4.3,22.9
		c-4.5,8.5-17.3,10.5-20.1,20.4c-0.5,1.9-0.4,3.9-0.2,5.9l138.1-0.3l53.4-0.1l34.7-0.1c4.6,0,8.3-3.7,8.3-8.3l-0.5-188.1
		C354.2,220.7,353.1,221.7,351.6,221.9z"/>
	<path class="st0" d="M174.9,284.5c2.1-5.3,0-10.4-1.4-15.6c-2.4-9.5-2.5-18.1,2.4-26.8c3.6-6.4-0.7-10.4-4.2-15.6
		c-1.5-2.3-2.5-5.1-3.3-7.7c-0.2-0.6-0.2-1-0.3-1.4c-0.2,0.1-0.4,0.1-0.7,0.2c-1.6,0.2-3.8-1.2-5.4-1.5c-2.1-0.4-4.2,0.2-6.3-0.2
		c-2.7-0.6-5.8-3.1-7.9-4.7c-4.4-3.4-7.1-8.7-13-8.9c-1.5-0.1-1.4,0.2-2.6-0.9c-1.2-1.1-1.3-3.4-3.4-3.1c-1.7,0.2-2.7,4.1-3.2,5.2
		c-1.1,2.2-2.6,4.5-4.7,5.9c-0.9,0.5-1.6,0.7-2.5,0.9c-3,0.8-4.4,2.3-7,4.1c-2.4,1.6-4.8,2.4-7.6,2.4c-1.1,0.1-2.3,0-3.4-0.2
		c-1-0.3-1.9-0.8-2.8-1.4c-1.9-0.3-3,0.3-4.8,1.2c-3.4,1.8-5.1,3.3-9.2,2.4c-3-0.7-6-2.1-8.6-3.8c-1.3-0.8-3.6-3.5-5.3-3.1
		c-0.7,1.9-1.9,1.3-3.5,1.6c-3.8,0.8-5.5,2.8-7.1,6.1c-0.5,1.3-1.2,2.4-2.2,3.3c-1.3,1.1-1.6,0.2-2.6,0.7c-0.7,0.2-1,0.7-0.7,1.6
		c-0.5,1.9-0.6,3.2-2.7,4c-4.5,1.8-11.1,1.3-15.7,0.1c-4.2-1.1-7.2-2-11.4-1.1c-1.4,0.3-3.4,1.2-4.9,1.1c-4.1-0.2-2.7-4.6-4.7-6.6
		c-0.6,0.3-1,0.5-1.6,0.8c-2-2.3-4.9-9.9-9.6-6.6c0,0-0.1,0.1-0.1,0.1l0.5,191.5c0,4.6,3.7,8.3,8.3,8.3l109.1-0.3
		c-0.3-2-0.4-4,0.2-5.9c2.8-9.9,15.6-11.9,20.1-20.4c3.7-6.9,0.7-15.7,4.3-22.9c2.1-4.2,6-7.2,9.8-9.7c2.8-1.9,6.3-3.2,8.8-5.5
		c2-1.8,1.9-2.7,1.8-5.1c0.1-1.4,0-2.8-0.2-4.1c-0.4-1-0.6-2-0.6-3.1c0.6-2.4,3.5-5.1,4.9-7.1c1.7-2.4,2.6-4.3,3.4-7.1
		c1-3.8,4.7-6.3,4.7-10.3c0-7.3-7.8-11.9-7.7-19.6C170.6,291.3,173.4,288.4,174.9,284.5z"/>
	<path class="st1" d="M168.2,217.8c0-0.2-0.1-0.3-0.1-0.5C168.2,217.5,168.2,217.6,168.2,217.8z"/>
	<path class="st0" d="M170.2,215.4c1.3-1.6,2.6-2.6,4.7-1.8c1.2,0.4,1.8,1.8,3.3,1.4c2-0.5,4.1-4.8,4.9-6.2c0.1-0.2,2.1-4.7,2.5-4.9
		c2.1-1.2,4.6,2.1,5.6,3.2c2.6,3.1,6.7,4.6,10.1,6.5c3.7,2,6.2,2.9,9.9,0.6c1.9-1.2,3.9-2.3,6.2-2.3c3.5,0,4.7,4.6,8.4,1.5
		c2.1-1.8,4-3.9,6.2-5.5c2.9-2.1,6.2-1.5,9.7-1.5c2.7,0.1,5.6,0.4,8.3-0.1c1.5-0.3,2.7-0.7,4.3-0.7c5.8,0.2,9.7,5.6,15.4,5.9
		c1.4,0.1,4,0.3,5.4-0.2c1.4-0.5,3-2.3,4-3.3c3.1-3,5.7-2.5,9.5-0.4c3,1.7,5.9,3.7,9.3,4.6c2.3,0.6,4.6,1,6.9,1.6
		c2.6,0.6,4,1.3,6.1,2.9c2.5,1.9,4.8,5,7.8,6c6.2,2.1,11.1-2.8,16.9-3.1c2.4-0.1,5.4-0.2,7.7,0.2c2.5,0.4,5.5,2.8,8.1,2.5
		c1.5-0.2,2.7-1.2,3.8-2.4l-0.1-208.5c0-4.6-3.7-8.3-8.3-8.3l-148,0.1c0.2,3.7,0.6,7.4,0.6,11.1c-0.1,5.2-0.6,10.2,3.8,13.9
		c1.7,1.4,3.1,2.3,2.5,4.6c-0.5,1.9-2.9,4.4-3.7,6.1c-2.9,6.9,0.3,15.8,1.1,22.9c0.3,2.9,0.6,6.4,0,9.2c-0.6,3.1-2.3,4.6-4.3,6.8
		c-2.1,2.3-4.5,4.4-4.6,7.8c-0.1,1.9,0.3,3.7,0.9,5.5c1.9,5.6-0.4,11.8,0.1,17.7c0.6,7.2,1,14.7,0.6,21.9c-0.3,4.3-0.7,9.6-2.6,13.5
		c-1.6,3.1-3.4,5.2-3.1,8.9c0.2,3.1,1.7,4.9,3.1,7.4c1.1,2.1,1.6,4.3,0.2,6.3c-1.8,1.5-3.8,2.9-5.7,4.2c-0.6,0.5-1.2,0.9-1.7,1.4
		c-0.3,1,1.3,2.7,1.7,3.5c1,1.8,2.4,3.6,3.3,5.5c1.6,3.2,2.1,7.5,1.6,11.1c-0.3,2.3-2.3,2.8-4.1,3.9c-2.4,1.4-4.4,2.7-5.9,5
		c-2.9,4.3-5.8,8.1-10,11.2c-2.3,1.7-4.1,2.5-3.9,4.8C169.1,217,169.4,216.3,170.2,215.4z"/>
	<path class="st2" d="M205.1,32.7c0.6-2.4-0.8-3.2-2.5-4.6c-4.4-3.7-3.9-8.7-3.8-13.9c0.1-3.7-0.4-7.4-0.6-11.1L10.9,3.5
		c-4.6,0-8.3,3.7-8.3,8.3L3.2,217c0,0,0.1-0.1,0.1-0.1c4.6-3.4,7.5,4.2,9.6,6.6c0.6-0.3,0.9-0.5,1.6-0.8c2,2,0.6,6.4,4.7,6.6
		c1.5,0.1,3.5-0.8,4.9-1.1c4.2-0.9,7.2,0,11.4,1.1c4.5,1.2,11.2,1.7,15.7-0.1c2.1-0.8,2.1-2.1,2.7-4c-0.3-0.9,0-1.4,0.7-1.6
		c1.1-0.6,1.3,0.3,2.6-0.7c1-0.9,1.7-2.1,2.2-3.3c1.6-3.3,3.3-5.3,7.1-6.1c1.6-0.3,2.8,0.3,3.5-1.6c1.8-0.4,4.1,2.3,5.3,3.1
		c2.6,1.7,5.6,3.1,8.6,3.8c4.1,0.9,5.8-0.6,9.2-2.4c1.7-0.9,2.9-1.6,4.8-1.2c0.8,0.6,1.8,1.1,2.8,1.4c1.1,0.2,2.2,0.3,3.4,0.2
		c2.8-0.1,5.2-0.8,7.6-2.4c2.7-1.8,4-3.2,7-4.1c0.9-0.3,1.7-0.4,2.5-0.9c2.1-1.4,3.6-3.6,4.7-5.9c0.5-1.1,1.5-5,3.2-5.2
		c2.1-0.2,2.2,2,3.4,3.1c1.2,1.1,1,0.9,2.6,0.9c6,0.3,8.6,5.5,13,8.9c2.1,1.6,5.2,4.1,7.9,4.7c2.1,0.5,4.2-0.2,6.3,0.2
		c1.6,0.3,3.7,1.7,5.4,1.5c0.3,0,0.5-0.1,0.7-0.2c0,0,0,0,0,0c-0.2-2.3,1.6-3.1,3.9-4.8c4.2-3.1,7.1-6.9,10-11.2
		c1.6-2.3,3.6-3.5,5.9-5c1.8-1.1,3.8-1.6,4.1-3.9c0.4-3.6-0.1-7.9-1.7-11.1c-0.9-1.9-2.3-3.6-3.3-5.5c-0.4-0.8-2-2.4-1.7-3.4
		c0.6-0.5,1.2-0.9,1.7-1.4c2-1.3,3.9-2.7,5.7-4.2c1.4-2,0.9-4.2-0.2-6.3c-1.4-2.6-2.8-4.3-3.1-7.4c-0.3-3.7,1.6-5.8,3.1-8.9
		c1.9-3.8,2.4-9.2,2.6-13.5c0.4-7.3,0-14.7-0.6-21.9c-0.5-5.9,1.7-12.1-0.1-17.7c-0.6-1.8-1-3.6-1-5.5c0.1-3.3,2.5-5.4,4.6-7.8
		c2-2.2,3.8-3.8,4.3-6.8c0.5-2.8,0.3-6.3-0.1-9.2c-0.8-7.1-4-16-1.1-22.9C202.1,37.1,204.6,34.6,205.1,32.7z"/>
	<path class="st2" d="M351.6,221.9c-2.6,0.3-5.6-2-8.1-2.5c-2.4-0.4-5.3-0.3-7.7-0.2c-5.9,0.3-10.7,5.2-16.9,3.1
		c-3.1-1-5.3-4.1-7.8-6c-2.1-1.6-3.5-2.3-6.1-2.9c-2.3-0.5-4.6-1-6.9-1.6c-3.4-0.9-6.3-2.9-9.3-4.5c-3.8-2.1-6.4-2.6-9.5,0.4
		c-1,1-2.6,2.8-4,3.4c-1.4,0.5-4,0.3-5.4,0.2c-5.7-0.3-9.6-5.7-15.4-5.9c-1.6,0-2.7,0.4-4.3,0.7c-2.7,0.5-5.6,0.2-8.3,0.1
		c-3.4-0.1-6.7-0.6-9.7,1.5c-2.2,1.6-4.1,3.7-6.2,5.5c-3.7,3.1-4.9-1.4-8.4-1.5c-2.3,0-4.3,1.1-6.2,2.3c-3.7,2.3-6.1,1.4-9.9-0.6
		c-3.5-1.9-7.5-3.4-10.2-6.4c-1-1.2-3.6-4.5-5.6-3.2c-0.5,0.3-2.4,4.8-2.5,5c-0.8,1.3-2.9,5.7-4.9,6.2c-1.4,0.3-2.1-1-3.3-1.4
		c-2-0.7-3.3,0.2-4.7,1.9c-0.8,1-1.1,1.6-2,1.9c0,0.4,0.1,0.9,0.3,1.4c0.8,2.6,1.8,5.5,3.3,7.7c3.4,5.2,7.7,9.2,4.2,15.6
		c-4.9,8.7-4.8,17.3-2.4,26.8c1.3,5.2,3.4,10.4,1.4,15.6c-1.5,3.9-4.2,6.8-4.3,11.2c-0.2,7.7,7.7,12.2,7.7,19.6
		c0,4-3.7,6.5-4.7,10.3c-0.8,2.8-1.7,4.7-3.4,7.1c-1.4,2-4.3,4.7-4.9,7.1c0,1.1,0.2,2.1,0.6,3.1c0.2,1.4,0.3,2.7,0.2,4.1
		c0.1,2.5,0.2,3.3-1.8,5.1c-2.5,2.3-6,3.6-8.8,5.5c-3.8,2.5-7.7,5.6-9.8,9.7c-3.5,7.2-0.6,15.9-4.3,22.9
		c-4.5,8.5-17.3,10.5-20.1,20.4c-0.5,1.9-0.4,3.9-0.2,5.9l138.1-0.3l53.4-0.1l34.7-0.1c4.6,0,8.3-3.7,8.3-8.3l-0.5-188.1
		C354.2,220.7,353.1,221.7,351.6,221.9z"/>
	<path class="st2" d="M174.9,284.5c2.1-5.3,0-10.4-1.4-15.6c-2.4-9.5-2.5-18.1,2.4-26.8c3.6-6.4-0.7-10.4-4.2-15.6
		c-1.5-2.3-2.5-5.1-3.3-7.7c-0.2-0.6-0.2-1-0.3-1.4c-0.2,0.1-0.4,0.1-0.7,0.2c-1.6,0.2-3.8-1.2-5.4-1.5c-2.1-0.4-4.2,0.2-6.3-0.2
		c-2.7-0.6-5.8-3.1-7.9-4.7c-4.4-3.4-7.1-8.7-13-8.9c-1.5-0.1-1.4,0.2-2.6-0.9c-1.2-1.1-1.3-3.4-3.4-3.1c-1.7,0.2-2.7,4.1-3.2,5.2
		c-1.1,2.2-2.6,4.5-4.7,5.9c-0.9,0.5-1.6,0.7-2.5,0.9c-3,0.8-4.4,2.3-7,4.1c-2.4,1.6-4.8,2.4-7.6,2.4c-1.1,0.1-2.3,0-3.4-0.2
		c-1-0.3-1.9-0.8-2.8-1.4c-1.9-0.3-3,0.3-4.8,1.2c-3.4,1.8-5.1,3.3-9.2,2.4c-3-0.7-6-2.1-8.6-3.8c-1.3-0.8-3.6-3.5-5.3-3.1
		c-0.7,1.9-1.9,1.3-3.5,1.6c-3.8,0.8-5.5,2.8-7.1,6.1c-0.5,1.3-1.2,2.4-2.2,3.3c-1.3,1.1-1.6,0.2-2.6,0.7c-0.7,0.2-1,0.7-0.7,1.6
		c-0.5,1.9-0.6,3.2-2.7,4c-4.5,1.8-11.1,1.3-15.7,0.1c-4.2-1.1-7.2-2-11.4-1.1c-1.4,0.3-3.4,1.2-4.9,1.1c-4.1-0.2-2.7-4.6-4.7-6.6
		c-0.6,0.3-1,0.5-1.6,0.8c-2-2.3-4.9-9.9-9.6-6.6c0,0-0.1,0.1-0.1,0.1l0.5,191.5c0,4.6,3.7,8.3,8.3,8.3l109.1-0.3
		c-0.3-2-0.4-4,0.2-5.9c2.8-9.9,15.6-11.9,20.1-20.4c3.7-6.9,0.7-15.7,4.3-22.9c2.1-4.2,6-7.2,9.8-9.7c2.8-1.9,6.3-3.2,8.8-5.5
		c2-1.8,1.9-2.7,1.8-5.1c0.1-1.4,0-2.8-0.2-4.1c-0.4-1-0.6-2-0.6-3.1c0.6-2.4,3.5-5.1,4.9-7.1c1.7-2.4,2.6-4.3,3.4-7.1
		c1-3.8,4.7-6.3,4.7-10.3c0-7.3-7.8-11.9-7.7-19.6C170.6,291.3,173.4,288.4,174.9,284.5z"/>
	<path class="st2" d="M170.2,215.4c1.3-1.6,2.6-2.6,4.7-1.8c1.2,0.4,1.8,1.8,3.3,1.4c2-0.5,4.1-4.8,4.9-6.2c0.1-0.2,2.1-4.7,2.5-4.9
		c2.1-1.2,4.6,2.1,5.6,3.2c2.6,3.1,6.7,4.6,10.1,6.5c3.7,2,6.2,2.9,9.9,0.6c1.9-1.2,3.9-2.3,6.2-2.3c3.5,0,4.7,4.6,8.4,1.5
		c2.1-1.8,4-3.9,6.2-5.5c2.9-2.1,6.2-1.5,9.7-1.5c2.7,0.1,5.6,0.4,8.3-0.1c1.5-0.3,2.7-0.7,4.3-0.7c5.8,0.2,9.7,5.6,15.4,5.9
		c1.4,0.1,4,0.3,5.4-0.2c1.4-0.5,3-2.3,4-3.3c3.1-3,5.7-2.5,9.5-0.4c3,1.7,5.9,3.7,9.3,4.6c2.3,0.6,4.6,1,6.9,1.6
		c2.6,0.6,4,1.3,6.1,2.9c2.5,1.9,4.8,5,7.8,6c6.2,2.1,11.1-2.8,16.9-3.1c2.4-0.1,5.4-0.2,7.7,0.2c2.5,0.4,5.5,2.8,8.1,2.5
		c1.5-0.2,2.7-1.2,3.8-2.4l-0.1-208.5c0-4.6-3.7-8.3-8.3-8.3l-148,0.1c0.2,3.7,0.6,7.4,0.6,11.1c-0.1,5.2-0.6,10.2,3.8,13.9
		c1.7,1.4,3.1,2.3,2.5,4.6c-0.5,1.9-2.9,4.4-3.7,6.1c-2.9,6.9,0.3,15.8,1.1,22.9c0.3,2.9,0.6,6.4,0,9.2c-0.6,3.1-2.3,4.6-4.3,6.8
		c-2.1,2.3-4.5,4.4-4.6,7.8c-0.1,1.9,0.3,3.7,0.9,5.5c1.9,5.6-0.4,11.8,0.1,17.7c0.6,7.2,1,14.7,0.6,21.9c-0.3,4.3-0.7,9.6-2.6,13.5
		c-1.6,3.1-3.4,5.2-3.1,8.9c0.2,3.1,1.7,4.9,3.1,7.4c1.1,2.1,1.6,4.3,0.2,6.3c-1.8,1.5-3.8,2.9-5.7,4.2c-0.6,0.5-1.2,0.9-1.7,1.4
		c-0.3,1,1.3,2.7,1.7,3.5c1,1.8,2.4,3.6,3.3,5.5c1.6,3.2,2.1,7.5,1.6,11.1c-0.3,2.3-2.3,2.8-4.1,3.9c-2.4,1.4-4.4,2.7-5.9,5
		c-2.9,4.3-5.8,8.1-10,11.2c-2.3,1.7-4.1,2.5-3.9,4.8C169.1,217,169.4,216.3,170.2,215.4z"/>
</g>
</svg>
