<?xml version="1.0" encoding="utf-8"?>
<!-- Generator: Adobe Illustrator 24.0.3, SVG Export Plug-In . SVG Version: 6.00 Build 0)  -->
<svg version="1.1" id="Layer_1" xmlns="http://www.w3.org/2000/svg" xmlns:xlink="http://www.w3.org/1999/xlink" x="0px" y="0px"
	 width="135.9px" height="152.3px" viewBox="0 0 135.9 152.3" style="enable-background:new 0 0 135.9 152.3;" xml:space="preserve"
	>
<style type="text/css">
	.st0{clip-path:url(#SVGID_2_);}
	.st1{fill:#FFFFFF;}
	.st2{fill:#C0C0C0;}
	.st3{fill:#0A6593;}
	.st4{clip-path:url(#SVGID_4_);}
	.st5{fill:#333333;}
	.st6{fill:#3C3C3D;}
	.st7{fill:#E5E5E5;}
	.st8{fill:#CBCBCB;}
	.st9{fill:#AB1535;}
	.st10{fill:#E9AA78;}
	.st11{fill:#666666;}
	.st12{fill:#FFB781;}
	.st13{fill:#E97B59;}
	.st14{fill:#808080;}
	.st15{fill:#703F2C;}
	.st16{fill:#4D4D4D;}
	.st17{fill:#E2A36A;}
	.st18{fill:#9B6335;}
	.st19{fill:#F9E8CA;}
	.st20{fill:#D6B799;}
	.st21{fill:#F4BE84;}
	.st22{fill:#39170B;}
	.st23{clip-path:url(#SVGID_2_);fill:#FFFFFF;}
</style>
<g>
	<defs>
		<path id="SVGID_1_" d="M9.3,141.6c0.9-1,1.7-1.6,3-1.2c0.7,0.3,1.2,1.1,2.1,0.9c1.3-0.3,2.6-3.1,3.1-3.9c0.1-0.1,1.3-3,1.6-3.2
			c1.3-0.8,3,1.3,3.6,2.1c1.7,2,4.3,2.9,6.5,4.2c2.4,1.3,4,1.9,6.3,0.4c1.2-0.8,2.5-1.5,4-1.5c2.2,0,3,2.9,5.4,1
			c1.4-1.1,2.6-2.5,4-3.5c1.9-1.3,4-1,6.2-0.9c1.7,0,3.6,0.2,5.3-0.1c1-0.2,1.7-0.5,2.7-0.4c3.7,0.1,6.2,3.6,9.8,3.8
			c0.9,0.1,2.6,0.2,3.4-0.1c0.9-0.3,1.9-1.5,2.6-2.1c2-1.9,3.7-1.6,6.1-0.2c1.9,1.1,3.8,2.4,5.9,2.9c1.4,0.4,2.9,0.7,4.4,1
			c1.7,0.4,2.5,0.9,3.9,1.9c1.6,1.2,3.1,3.2,5,3.9c4,1.4,7.1-1.8,10.9-2c1.5-0.1,3.4-0.1,5,0.2c1.6,0.3,3.5,1.8,5.2,1.6
			c1-0.1,1.7-0.8,2.4-1.5L127.9,11c0-2.9-2.4-5.3-5.3-5.3L27.7,5.6c0.2,2.4,0.4,4.7,0.4,7.1c-0.1,3.3-0.4,6.5,2.4,8.9
			c1.1,0.9,2,1.4,1.6,3c-0.3,1.2-1.9,2.8-2.4,3.9c-1.9,4.4,0.2,10.1,0.7,14.7c0.2,1.8,0.4,4.1,0,5.9c-0.4,2-1.5,2.9-2.8,4.4
			c-1.4,1.5-2.9,2.8-3,5c-0.1,1.2,0.2,2.4,0.6,3.5c1.2,3.6-0.3,7.6,0.1,11.4c0.4,4.6,0.6,9.4,0.3,14.1c-0.2,2.7-0.5,6.2-1.7,8.6
			c-1,2-2.2,3.3-2,5.7c0.1,2,1.1,3.1,2,4.8c0.7,1.3,1,2.7,0.1,4c-1.2,1-2.4,1.8-3.7,2.7c-0.4,0.3-0.7,0.6-1.1,0.9
			c-0.2,0.6,0.8,1.7,1.1,2.2c0.7,1.2,1.5,2.3,2.1,3.5c1,2.1,1.3,4.8,1,7.1c-0.2,1.5-1.5,1.8-2.6,2.5c-1.5,0.9-2.8,1.7-3.8,3.2
			c-1.9,2.7-3.7,5.2-6.4,7.1c-1.5,1.1-2.6,1.6-2.5,3.1C8.6,142.6,8.8,142.2,9.3,141.6z"/>
	</defs>
	<clipPath id="SVGID_2_">
		<use xlink:href="#SVGID_1_"  style="overflow:visible;"/>
	</clipPath>
	<g class="st0">
		<path class="st1" d="M65.9,270.4l-158.4-0.1c-2.9,0-5.3-2.4-5.3-5.3l0.2-254.1c0-2.9,2.4-5.3,5.3-5.3l214.8,0.2
			c2.9,0,5.3,2.4,5.3,5.3l-0.2,254.1c0,2.9-2.4,5.3-5.3,5.3l-22.2,0L65.9,270.4z"/>
		<g>
			<path class="st2" d="M-4.3,236.3l-47.8,0c-2.8,0-5-2.2-5-5c0-2.8,2.2-5,5-5l47.8,0c2.8,0,5,2.2,5,5
				C0.7,234.1-1.5,236.3-4.3,236.3z"/>
			<path class="st2" d="M57.4,253.6l-109.5-0.1c-2.8,0-5-2.2-5-5c0-2.8,2.2-5,5-5l109.5,0.1c2.8,0,5,2.2,5,5
				C62.4,251.4,60.1,253.6,57.4,253.6z"/>
		</g>
		<path class="st3" d="M104.5,34.6l-0.2,169.6c0,2.6-2.1,4.8-4.8,4.8l-169.9-0.2c-2.6,0-4.8-2.1-4.8-4.8l0.2-169.6
			c0-2.9,2.4-5.3,5.3-5.3l168.9,0.2C102.1,29.3,104.5,31.6,104.5,34.6z"/>
		<g>
			<defs>
				<path id="SVGID_3_" d="M104.5,34.6l-0.2,169.6c0,2.6-2.1,4.8-4.8,4.8l-169.9-0.2c-2.6,0-4.8-2.1-4.8-4.8l0.2-169.6
					c0-2.9,2.4-5.3,5.3-5.3l168.9,0.2C102.1,29.3,104.5,31.6,104.5,34.6z"/>
			</defs>
			<clipPath id="SVGID_4_">
				<use xlink:href="#SVGID_3_"  style="overflow:visible;"/>
			</clipPath>
			<g class="st4">
				<g id="right_hand_with_fist_13_">
					<g id="shoulder_right_12_">
						<path class="st5" d="M76.6,184c-12.1-5-37.3-6.2-36,18.2c0.5,9.2,9.4,20.7,15.2,40.6c5.8,19.9,5.3,50.7,19.4,50.9
							C128,294.6,97,192.4,76.6,184z"/>
					</g>
				</g>
				<g id="body_13_">
					<path class="st5" d="M-51.6,196.1c7.3-9.9,70.8-33.9,70.8-33.9s54.3,14.2,60.6,24.6c2.6,4.3,0.2,31.9-0.8,45.6
						c-1,13.7-6.2,45.3-6.4,59.4c-0.2,15.6,4.4,57.3,4.3,60.9c0,1.8-12.1,16.9-51.7,14.4c-26.6-1.7-51.2-18.4-51.4-22.8
						c-0.1-1.6,9.3-44.7,9.3-44.7l-28.3-57.9C-45.2,241.7-54.3,200.1-51.6,196.1z"/>
					<path class="st6" d="M-8,348l2.6-39.6c0,0,21.1,0,21.1-2.9c0-2.9-19.8-5.1-19.8-5.1S5.6,300,6,297.4c0.4-2.5-11.4-3.8-11.4-3.8
						s-23.6-45.5-21-64.5c2.5-19,31.2-53.9,31.2-53.9l-2.1-6.6c-19.3,7.8-49.5,20.8-54.4,27.4c-2.7,4,6.4,45.6,6.4,45.6l28.3,57.9
						c0,0-9.4,43-9.3,44.7c0.2,4.4,24.8,21.1,51.4,22.8c26.1,1.7,40.3-4.3,46.9-9.1C32.1,374.3-8,348-8,348z"/>
					<path class="st7" d="M-21.5,178.9c8.1,10.6,34,33,59.7,48.2c14.1-22,26.7-49.9,26.7-49.9c-19.6-9.6-45.7-15.1-45.7-15.1
						S-1.4,169-21.5,178.9z"/>
					<polygon class="st8" points="26.3,189.4 30.1,192.9 29.6,221.8 33,224.1 34.5,191.2 27.6,184.5 					"/>
					<path class="st8" d="M-7.9,172.7l29.8,29.7L33,184.1l-27.3-17C1.7,168.7-2.9,170.5-7.9,172.7z"/>
					<path class="st8" d="M55.4,173.5l-0.5-0.6c-3.9-1.5-7.9-2.9-11.7-4.2l-10.1,15.4l16,15.4L55.4,173.5z"/>
					<path class="st8" d="M-8.2,192.7C1.9,182.6,11,175.3,11,175.3l-16.4-3.7l-16.1,7.3C-21.5,178.9-14.1,187.6-8.2,192.7z"/>
					<path class="st9" d="M38.5,227.7l5.1-9.2c0,0-4.6-19.5-7.2-26.9c-0.6-2.7-4.9-3.7-4.8,0.3c1,11.4,1.3,32.3,1.3,32.3L38.5,227.7
						z"/>
					<polygon class="st9" points="24,181.1 40.2,180.2 36.4,191.5 31.6,191.8 25.4,185.9 					"/>
					<polygon class="st10" points="48.3,170.6 33,180.5 -1.8,173.2 1,144.1 42.8,144.2 					"/>
					<polygon class="st1" points="-8.7,168.3 -2,158.7 33,180.5 21.9,198.8 					"/>
					<polygon class="st1" points="33.2,180.5 49.2,196 55.4,169.9 46.9,159.5 					"/>
				</g>
				<g id="angry_13_">
					<path class="st11" d="M56.1,78.5c-2.5,7-7.9,11.5-12.1,10c-4.2-1.5-5.5-8.4-3-15.4c2.5-7,7.9-11.5,12.1-10
						C57.2,64.6,58.6,71.5,56.1,78.5z"/>
					<path class="st11" d="M-6.7,48.6c0,0-1.6-9.4,6.8-12.1C6.6,34.5,37.2,39,44,37.2c6.7-1.8,6.3-6.4,6.3-6.4s11,10.1,6.8,29.3
						c-4.1,19.2-22,22.2-22,22.2L-3,65.6L-6.7,48.6z"/>
					<path class="st11" d="M8.1,95.8c0.6,23-2,34-10.4,35.1c-10.4,1.4-24.5-49.3-19.7-68.7c2.4-9.7,12.3-14.5,19.6-13.7
						C6,49.5,7.5,72.8,8.1,95.8z"/>
					<path class="st12" d="M0.9,115.4c-0.4,5.1-4.9,9-10.1,8.5c-5.1-0.4-9-4.9-8.5-10.1c0.4-5.1,4.9-9,10.1-8.5
						C-2.5,105.7,1.3,110.3,0.9,115.4z"/>
					<path class="st12" d="M53.1,87.5c-0.3,28.4,6.3,38.9,4.6,46.5c-3.4,14.9-19.7,28.4-28.5,29.9c-7.7,1.3-34.7-14.3-36.9-30
						C-9.9,118.6-9.3,74,8.2,65.7C39.3,50.9,55,72.4,53.1,87.5z"/>
					<path class="st13" d="M-11.1,114.7c0.2-2,1.9-3.5,3.9-3.3c0.3,0,0.5,0.1,0.8,0.2c-0.6-0.6-1.4-0.9-2.4-1
						c-2.3-0.2-4.3,1.5-4.4,3.8c-0.2,2.3,1.5,4.3,3.8,4.4c0.6,0,1.1,0,1.6-0.2C-9.8,118.4-11.3,116.6-11.1,114.7z"/>
					<path class="st11" d="M30.3,60.5C-1.1,58.1-3.3,89.9-4.3,115.1l-3.1-0.8C-19.5,73.1-7.8,43,30.3,60.5z"/>
					<path class="st14" d="M2,37.9c0,0-4.5,1.2-3,5.8S17.5,55,29.5,55.1c13.5,0.2,28.1-8.8,20.8-24.3c0,0,1.6,4.8-5.9,7.4
						C35.9,41.2,9.1,35.5,2,37.9z"/>
					<path class="st14" d="M-19.6,60c0,0,3.9-9.7,11.8-8.2c7.8,1.6,7.5,9.9,5.7,13.4C-4,68.7-12,85.2-16.5,84.9
						C-20.9,84.7-23.3,70.6-19.6,60z"/>
					<path class="st14" d="M-6.7,48.6c0,0,8.5,8.3,20.1,14.9l-1.6,1C11.8,64.5-1.7,55.9-6.7,48.6z"/>
					<g>
						<path class="st15" d="M50.3,30.8c0.2,0.2,0.3,0.5,0.5,0.7C50.5,31,50.3,30.8,50.3,30.8z"/>
						<path class="st14" d="M38.7,62.9l0.1,0.1c0,0,23.9-12.9,11.9-31.5C52.8,35,60.1,50.3,37,62.3l0.3,0.1
							C37.8,62.6,38.2,62.7,38.7,62.9z"/>
					</g>
					<path class="st14" d="M55,37.7c0,0,6.3,18.3-11.9,27.8l0.9,0.7C44.1,66.2,62.2,57.4,55,37.7z"/>
					<polygon class="st14" points="-2.1,90.4 -21.1,90.8 -20.9,92 -2.3,91.8 					"/>
					<polygon class="st14" points="-2.8,94.7 -20.2,95.3 -19.9,96.5 -3,96.7 					"/>
					<path class="st16" d="M35.6,97.3c0.6,0.8,10.4-8.3,12.7-8c2.3,0.2,4.9,3.4,4.9,3.4s-1.6-6.3-4.3-6.3c-2.7,0-10.3,6-11.6,7
						C36.6,93.8,35,96.4,35.6,97.3z"/>
					<path class="st16" d="M6.1,92.4c0,0,6.1-4.6,9.3-4.2c2.7,0.3,14.1,10.7,16,9.1c0.8-0.6-0.9-3.4-4.2-5.7
						c-1.6-1.1-9.3-7-11.2-7.2C14.1,84.2,8.6,89,6.1,92.4z"/>
					<path class="st17" d="M34.9,146.7c-0.1,1.2-2.7,1.1-5.9,0.9c-3.2-0.2-5.8-0.4-5.7-1.6c0.1-1.2,2.8-3.1,6-2.9
						C32.5,143.3,35,145.4,34.9,146.7z"/>
					<g>
						<path class="st18" d="M38,136c-1.8-0.8-18-12.9-23.8-13.1C8.5,122.8,2,139.1,3.8,142.1c0.4,0.2,9-3,17.7-3.4
							c9.9-0.4,20.1,1.9,20.3,1.8c0.4-0.2-0.5-1.4-0.5-1.4l1.3-3.4c0,0,2.4-1.7,2.3-2.1C44.8,133.7,39.6,136.7,38,136z"/>
						<path class="st19" d="M4.5,140.9c-0.5-0.2,0.4-4.5,2.3-8.8c1.9-4.2,5.3-8.3,7-8.4c1.6,0,6.6,2.3,11.6,5.4
							c5.5,3.4,11.5,7.9,12.6,8.1c1.1,0.2,3.9-1.1,3.9-1.1l-1.2,3.4c0,0-10.2-2-20.4-1.5C12.5,138.4,4.7,141,4.5,140.9z"/>
						<path class="st20" d="M18.1,125.1c-1.9-0.9-3.5-1.4-4.2-1.4c-1.7,0-5.1,4.1-7,8.4c-1.9,4.4-2.8,8.7-2.3,8.8
							c0.1,0,2.6-0.8,6.1-1.5c-3.8-0.3-2.5-5.7-1.3-8C11,128.2,13.7,124.7,18.1,125.1z"/>
						<path class="st20" d="M40.9,136.6l1-0.4l-1.2,3.4l-0.9-0.2C39.7,139.3,41.2,138.5,40.9,136.6z"/>
						<g>
							<path class="st20" d="M38,137.2c0,0-0.1,0-0.2-0.1l-0.5,1.8c0.1,0,0.2,0,0.3,0l0.5-1.8C38.1,137.2,38.1,137.2,38,137.2z"/>
							<path class="st20" d="M31.2,132.9l-1.5,5.2c0.1,0,0.2,0,0.3,0l1.4-5.1C31.4,133,31.3,133,31.2,132.9z"/>
							<path class="st20" d="M22.6,127.4L20.2,138c0,0,0,0,0.1,0c0.1,0,0.2,0,0.3,0l2.3-10.4C22.8,127.5,22.7,127.4,22.6,127.4z"/>
							<path class="st20" d="M14.2,123.8l-3.3,15.6c0.1,0,0.2-0.1,0.4-0.1l3.3-15.4C14.5,123.8,14.3,123.8,14.2,123.8z"/>
						</g>
						<path class="st18" d="M5.5,134.5c0,0,2.6-1,7.6-1.4c4.2-0.4,8-0.2,8.1-0.5c0.1-0.3-7.8-0.7-15.3,0.7L5.5,134.5z"/>
					</g>
				</g>
				<g id="left_hand_13_">
					<g id="shoulder_left_13_">
						<path class="st5" d="M-33.4,189.3c-16.2-9.5-98.8,68.5-77.4,89.4C-72.7,315.9-17.1,198.8-33.4,189.3z"/>
					</g>
					<g id="wrist_left_18_">
						<path class="st21" d="M-7.1,315.1c-1.2-1.9-7.5-8.1-11.3-10.9c-4.1-0.6-3.4,3.6-3.4,3.6s0.8,11.2,2.4,13.2c0,0,1,1.9,2.9,0
							c0,0,0.1,0,0.1,0c0.4,0.2,2.4,1.1,3.3-1.2c0,0,0,0,0.1,0c0.3,0.1,2.9,0.9,3.8-2c0.1-0.1,0.2-0.1,0.2-0.2
							C-8.3,317.5-5.9,317-7.1,315.1z"/>
						<path class="st17" d="M-7,315.3c0,1.1-1.6,1.4-2.2,1.5c-0.1,0.1-0.2,0.1-0.2,0.2c-0.9,2.7-3.3,2-3.6,1.9c0,0,0,0-0.1,0
							c-0.8,2.2-2.8,1.3-3.2,1.2c0,0-0.1,0-0.1,0c-1.8,1.8-2.8,0-2.8,0c-1.5-1.8-1.6-13-1.7-14l-1,1.8c0,0,0.8,11.2,2.4,13.2
							c0,0,1,1.9,2.9,0c0,0,0.1,0,0.1,0c0.4,0.2,2.4,1.1,3.3-1.2c0,0,0,0,0.1,0c0.3,0.1,2.9,0.9,3.8-2c0.1-0.1,0.2-0.1,0.2-0.2
							C-8.3,317.5-6,317-7,315.3z"/>
					</g>
					<g id="forearm_left_13_">
						<path class="st5" d="M-107.9,257.7c6-8.4,22.3-11,40.8,1.8c22.1,15.3,48.9,44.8,48.9,44.8l-3.2,3.5c0,0-50.2-6.8-70.9-18.4
							C-106.2,281.6-115.2,268-107.9,257.7z"/>
					</g>
				</g>
				<g>
					<path class="st13" d="M32.9,98.7c2.8,9.9,6.6,22.9,6.6,24.8c0,1.9-8.3,4.2-9.8,3.5c-1.5-0.6,1.8-28.3,1.8-28.3L32.9,98.7z"/>
					<path class="st12" d="M31.4,97.8c2.8,9.9,6.6,22.9,6.6,24.8c0,1.9-8.3,4.2-9.8,3.5c-1.5-0.6,1.8-28.3,1.8-28.3L31.4,97.8z"/>
				</g>
				<g>
					<path class="st1" d="M37.9,106.6c-0.1-3.7,0.5-8.2,6.1-9.7c5.7-1.5,8.4,3.6,8.3,5.5c-0.1,1.9-1.6,4.7-4.8,5
						c-3.2,0.3-6,0-7.1,0.2C39.2,107.8,37.9,107.3,37.9,106.6z"/>
					<circle class="st22" cx="44.6" cy="102.1" r="4.7"/>
					<path class="st1" d="M40.5,100.4c0.1,1.2,1,2.1,2.2,2.1s2.1-1,2.1-2.2s-1-2.1-2.2-2.1C41.4,98.2,40.5,99.1,40.5,100.4z"/>
					<path class="st1" d="M23.2,107c-0.2-3.7-0.9-8.1-6.7-9.3c-5.8-1.2-8.2,4.1-7.9,6c0.2,1.9,1.9,4.6,5.1,4.7s6-0.4,7.1-0.2
						C21.8,108.3,23.2,107.8,23.2,107z"/>
					<path class="st22" d="M20.7,102.5c0,2.6-1.9,4.8-4.6,4.9c-2.6,0-4.8-1.9-4.9-4.6s1.9-4.8,4.6-4.9
						C18.5,97.8,20.6,99.9,20.7,102.5z"/>
					<path class="st1" d="M16.3,100.8c0.1,1.2-0.9,2.2-2.1,2.2C13,103,12,102,12,100.9c-0.1-1.2,0.9-2.2,2.1-2.2
						C15.2,98.6,16.2,99.6,16.3,100.8z"/>
				</g>
			</g>
		</g>
	</g>
	<path class="st23" d="M8.1,143.1c0-0.1,0-0.2,0-0.3C8,142.9,8,143,8.1,143.1z"/>
</g>
</svg>
