<?xml version="1.0" encoding="utf-8"?>
<!-- Generator: Adobe Illustrator 24.0.3, SVG Export Plug-In . SVG Version: 6.00 Build 0)  -->
<svg version="1.1" id="Layer_1" xmlns="http://www.w3.org/2000/svg" xmlns:xlink="http://www.w3.org/1999/xlink" x="0px" y="0px"
	 width="501.1px" height="678px" viewBox="0 0 501.1 678" style="enable-background:new 0 0 501.1 678;" xml:space="preserve">
<style type="text/css">
	.st0{fill:#A36546;}
	.st1{fill:#1A1A1A;}
	.st2{fill:#270210;}
	.st3{fill:#333333;}
	.st4{fill:#9A6042;}
	.st5{fill:#4D4D4F;}
	.st6{fill:#AB6A4A;}
	.st7{opacity:0.28;fill:#7C2E2E;}
	.st8{opacity:0.59;fill:#BE8469;}
	.st9{fill:#CF2721;}
	.st10{fill:#FFFFFF;}
	.st11{fill:#4D4D4D;}
	.st12{fill:#39170B;}
	.st13{fill:#390B1D;}
	.st14{opacity:0.29;fill:#813B3B;}
</style>
<g>
	<path class="st0" d="M114.7,553.2c-6.5,2.3-28.5,28.6-28.5,28.6l66.6,62.8L138,593.2L114.7,553.2z"/>
	<path class="st1" d="M-25.5,1380.7c0-42.6,14.9-152.9,21.8-182.5c7-29.5,26.2-122.5,28-149.5c1.7-26.9,1.7-40.8,27.1-140.8
		c25.3-99.9,95.4-268.3,98.9-268.3c-0.8-2,1-3.4,0.3-5.5l122.4-22.5c2.4,2.5,4.9,5.1,7.4,7.9c26.2,28.7,69.9,93,76.9,147.7
		c7,54.7-14,252-14,252s36.7,26.1,34.1,80.8c-2.6,54.7-38.5,147.7-43.7,185.1c-5.2,37.4,4.4,53.9,4.4,53.9l16.6-1.7l-7.9,18.2
		l35,27.8c0,0-14,20-14,31.3c0,11.3,3.5,66.9,3.5,66.9h-10.5c0,0,0.9-65.2-6.1-67.8c-7-2.6-17.5,19.1-19.2,31.3
		c-1.7,12.2-5.2,39.1-5.2,39.1h-49.8l-1.7-12.2c0,0,13.1,0,19.2-5.2c6.1-5.2,0-23.5-1.7-87.8c-1.7-64.3,5.2-333.7,5.2-333.7
		l-79.3-301.6c0,0-142.7,265.1-146.2,287.7c-3.5,22.6,19.2,51.3,14,84.3c-5.2,33-53.3,135.6-66.4,162.5
		c-13.1,26.9-11.4,58.2-11.4,58.2l16.6,1.7l-9.6,19.1l34.1,27.8c0,0-10.5,15.6-12.2,26.1c-1.7,10.4,0,68.6,0,68.6H28.7
		c0,0,6.1-64.3,0-65.2c-6.1-0.9-15.7,11.3-19.2,22.6c-3.5,11.3-7,44.3-7,44.3h-57.7v-9.6c0,0,21.8-0.9,31.5-11.3
		C-14.2,1450.2-25.5,1423.2-25.5,1380.7z"/>
	<path class="st2" d="M249.3,248.5c-15.1-7.6-94.4-105.2-88.7-115.2c0.9-1.6,0.3-3.9,0.5-6c-7.7,3.1-15.5,12.9-16,22.7
		c-0.4,7.4-17.3-4.6-14.7,1.9c9.9,24.8-9.9,68.3-2.3,89.6c-0.2,0.9-0.3,1.9-0.4,2.8c-1.8-1.4-3.8-2.7-5.6-3.6
		c-0.8,4,2.6,8.5,7.3,12.9c4.5,10.8,16.3,15.7,25.7,20c1.7,0.8,4,1.8,6.6,2.9c3.7,2.4,7.3,4.9,10.6,7.8c7.2,6.4,9.8,13.2,14.2,21.5
		v5.4c7.5,5.8,39.1,13.6,45.5-0.8C233.5,306.8,269.1,258.4,249.3,248.5z M350.5,270.5l-9.2,13.3c-1.8-5.5-4.9-10.7-7.4-15.6
		c-5.7-11.3-11.5-25-18.4-36.8c0,0,0,0-0.1,0c-4.4,0-7.8-2.2-10.4-6.6c-2,5.6-8.7-5.5-18.9,7.5c-2,33.6-11.2,81.7,14.9,93.4
		C328.5,329.3,373.8,301,350.5,270.5z"/>
	<path class="st1" d="M156.7,302.2c-44.2,41.7-145,193.5-145,193.5l74.5,86.1l28.5-28.6l-41.4-59.3l104.3-140.1L156.7,302.2z"/>
	<path class="st1" d="M363.1,555.5l46-60.7l-75.8-106.1c-17.4,23-85.9,115.7-90.8,150.2c-5,35.7,11,48.2,34.5,72.6l-128.8,23.9
		c-24.7-73.1-15.1-185.7-15.1-185.7s-34-5.5-43.2-57c17.5-5.5,64.4-56.1,64.4-56.1s-9.2-21.2,4.6-36.8c13.8-15.6,156.1-11,196.6,6.1
		c40.5,17.2,122.6,199,122.6,199l-90.2,81L363.1,555.5z"/>
	<path class="st3" d="M133.1,449.7l46.9-1.5c0,0,47.8,19.6,39.3,50.3c-8.6,30.7,0,82.2,0,82.2l26.2-8.8c-3.5-8.9-4.8-19.1-2.9-32.9
		c5.5-39.6,94.8-155.5,94.8-155.5s-21.2,21.8-48.1,25.5c-27,3.7-65-9.8-96.9,0c-31.9,9.8-36.8-1.2-60.1-12.3c-23.3-11-42.3-4-42.3-4
		C99.1,444.2,133.1,449.7,133.1,449.7z"/>
	<path class="st4" d="M240.7,251.8c0,0,10.8,26.6-11.3,48.6c-8.9,20,61.9,2.5,61.9,2.5s-11.1-17.1-4.6-80.5
		C284,230.7,240.7,251.8,240.7,251.8z"/>
	<path class="st5" d="M243.6,566.3c-29.6,21.5-78.8,26.1-105.6,26.9c2.8,16.8,6.7,33,12.1,47.4c48-1.2,90.6-15.5,119-37.4
		C256.8,590.7,247.5,580.5,243.6,566.3z"/>
	<path class="st6" d="M165.3,171.2c0,0-13.5,8.8-8,38.6c6.1,33.1,58.9,57.7,58.9,57.7s69.9-17.8,94.5-84
		c24.5-66.2-34.1-126.1-96-108.3C152.7,75.2,149.4,141.7,165.3,171.2z"/>
	<path class="st7" d="M310.7,183.5c20.3-54.7-16.8-94.3-65.2-96.4c15.1,9.3,28.3,25.6,32.1,54.4c7.7,58.7-34.5,105.2-55.3,124.1
		C239.8,259.6,290.5,237.9,310.7,183.5z"/>
	<g>
		<path class="st8" d="M207,201.5c0.1-0.4-0.7-0.9-2.1-1.5c-1.3-0.6-3.2-1.4-4.7-2.7c-0.7-0.7-1.3-1.5-1.6-2.4
			c-0.3-0.9-0.2-1.5,0.1-2.4c0.6-1.7,3.1-3.9,5.3-7c4.3-5.9,6.4-13.1,6.6-18.5c0.2-5.4-1.3-8.9-2.8-8.7c-1.7,0.2-2.3,3.4-3.5,7.9
			c-1.2,4.5-3.1,10.2-6.3,15.3c-1.3,2.5-4.1,4.9-5.2,9.4c-0.5,2.2,0,4.9,1.1,6.6c1.1,1.7,2.6,2.8,4,3.6c2.9,1.4,5.2,1.3,6.8,1.2
			C206.1,202.2,206.9,201.9,207,201.5z"/>
	</g>
	<g>
		<path class="st9" d="M185.3,225.9c0,0-9.3-5.1-5.4-8.5c3.9-3.5,38.1,7.1,53.8,0.1c-6.4,16-15.1,27.3-29.5,28
			C189.7,246.2,185.3,225.9,185.3,225.9z"/>
		<path class="st10" d="M226.5,223.5c-14.6,2.7-20.3,4.5-39.1,0.7c1.7,6.1,6.9,16.1,14.9,15.6C215.8,239,226.5,223.5,226.5,223.5z"
			/>
	</g>
	<path class="st5" d="M192,447c0,0,43.2,12,63.5-7.4C238.9,469,207.6,464.4,192,447z"/>
	<path class="st0" d="M364,553.7l-70.2,58.7l-12.4-9.9l-2.5,14.9c0,0,7.4,12.4,14.9,12.4c17.6,0,94.1-44.8,94.1-44.8
		S376,562,364,553.7z"/>
	<g>
		<g>
			<path class="st0" d="M211.6,588.7L211.6,588.7l38.9,3.3l-27.2-10.6c-3.1-1.6-2.7-4.2-2.4-5.3l14.6,3.9l4.5,1.4l0,0
				c4.5,1.1,8.5,2.2,12.1,3.4l0,0l6.2,1.5l29.8,21.5l0,0l-1,4.9l-4.2,5.4c0,0-12.5,1.5-24.7-1.7c-13.8,2.4-25.8,1.8-25.8,1.8
				c-7-1.3-2.3-4.5-2.3-4.5c6.8,1.5,17.3-0.9,18.9-1.3c1.2-0.3,2.4-0.6,3.3-0.9l-0.4-1l-37.4-2.7c-5.2-1.1-1.2-5.4-1.2-5.4l28.6-0.1
				l6.3-0.7l-0.8-2l0.6-0.2l-0.7-0.1l-35.9-3.5l0,0c-6.2-1-5.2-7.5-5.2-7.5L211.6,588.7z"/>
		</g>
	</g>
	<g>
		<path class="st11" d="M296.1,1378.9c-1.7-64.3,5.2-333.7,5.2-333.7l-79.3-301.6l91.5,299.9c0,0-5.8,348.7-4.7,377.7
			c1.1,26.4,3,44.6,2.9,62.9h-31.5l-1.7-12.2c0,0,13.1,0,19.2-5.2C303.9,1461.5,297.8,1443.2,296.1,1378.9z"/>
		<path class="st11" d="M-55.2,1471.9c41.9,9.6,52.5-16.5,70-86c-0.1-9-23.8-43.4-5.6-101.4c24.6-78.2,81.4-163.9,65-199.3
			c-11.7-25.3-15.8-52.1-6.5-75.3c8.3-20.5,154.4-266.3,154.4-266.3c-24,46-143.1,267.7-146.2,287.7c-3.5,22.6,19.2,51.3,14,84.3
			c-5.2,33-53.3,135.6-66.4,162.5c-13.1,26.9-11.4,58.2-11.4,58.2l16.6,1.7l-9.6,19.1l34.1,27.8c0,0-10.5,15.6-12.2,26.1
			c-1.7,10.4,0,68.6,0,68.6H28.7c0,0,6.1-64.3,0-65.2c-6.1-0.9-15.7,11.3-19.2,22.6c-3.5,11.3-7,44.3-7,44.3h-57.7
			C-55.2,1481.5-51.7,1472.8-55.2,1471.9z"/>
	</g>
	<path class="st1" d="M286.4,265.8c0,0-2.5,5-19.8,5s-24.8-5-24.8-5l-24.8,42.1c0,0,12.4,9.9,37.1,9.9s42.1-14.9,42.1-14.9
		L286.4,265.8z"/>
	<g>
		<path class="st10" d="M232,176.1c-2.9-3.6,2.4-16.3,14.6-19.9c12.3-3.6,18.5,4.7,18.7,7.9c0.3,3.3-1.4,9.1-8.5,11.9
			c-7.1,2.9-12.8,1.9-16.1,1.7C236.6,177.4,233.7,178.1,232,176.1z"/>
		<circle class="st12" cx="246.7" cy="164.1" r="10.6"/>
		<circle class="st10" cx="250.8" cy="162.1" r="4.2"/>
		<path class="st12" d="M231.3,173.2c0,0-1.5-6.2,6.2-14.1c7.6-7.9,17.4-6,20.2-6.4c2.7-0.5,5.6,0.4,4.8,1.1
			c-0.9,0.7,1.6,2.9,3.7,2.4c2.2-0.4,0,1.9,0,2.6c0,0.7,3.7,0.6,4,1.4c0.3,0.8-2.2,2.6-1.6,2.8c0.6,0.2,2.6,1.8,1.6,2.5
			c-1,0.7-3.1,3.1-3.9,4.2c-0.9,1-3.2,1.9-3.2,1.9s2.7-5,1.2-8.6c-1.6-3.6-5.7-7.4-12.7-6.7s-11.3,3.9-14.4,6.6
			C234.1,165.5,231.3,173.2,231.3,173.2z"/>
		<path class="st12" d="M229.3,141.6c-2.1,5,7.4,3.8,13.1,1.6c5.8-2.2,13.3-3.2,19.7-3c6.4,0.2,14.7,4,14.7,4s-9.9-6.4-19.5-7.1
			c-9.5-0.8-20.1,0.6-23.2,1.4C230.9,139.2,230.5,138.8,229.3,141.6z"/>
	</g>
	<g>
		<path class="st10" d="M193.3,171.8c2.7-3.4-2.2-15.4-13.9-18.9c-11.6-3.4-17.5,4.4-17.8,7.5c-0.3,3.1,1.4,8.6,8.1,11.3
			s12.2,1.8,15.3,1.6C189,173,191.8,173.7,193.3,171.8z"/>
		<circle class="st12" cx="179.4" cy="160.5" r="10.1"/>
		<path class="st10" d="M187.3,158.5c0,2.2-1.8,4-4,4c-2.2,0-4-1.8-4-4c0-2.2,1.8-4,4-4C185.5,154.5,187.3,156.3,187.3,158.5z"/>
		<path class="st12" d="M194,169c0,0,1.4-5.9-5.8-13.4c-7.2-7.5-16.5-5.7-19.1-6.1c-2.6-0.5-5.3,0.4-4.5,1.1
			c0.8,0.7-1.5,2.7-3.6,2.3c-2.1-0.4,0,1.8,0,2.5c0,0.7-3.6,0.5-3.8,1.3c-0.3,0.8,2.1,2.4,1.5,2.6c-0.5,0.2-2.5,1.7-1.5,2.4
			c1,0.7,2.9,3,3.7,3.9c0.8,1,3,1.8,3,1.8s-2.6-4.8-1.1-8.1c1.5-3.4,5.4-7,12-6.4c6.6,0.7,10.7,3.7,13.7,6.3
			C191.4,161.8,194,169,194,169z"/>
		<path class="st12" d="M200.2,139.1c2,4.7-7,3.6-12.4,1.5c-5.5-2.1-12.6-3-18.6-2.8c-6,0.2-13.9,3.8-13.9,3.8s9.4-6,18.4-6.8
			c9-0.8,19,0.6,22,1.3C198.7,136.9,199.1,136.5,200.2,139.1z"/>
	</g>
	<g>
		<g>
			<path class="st13" d="M375.4,265c4.6-3.8,6.9-7.6,7.4-11.9c0.7-7.3-4.2-15.4-13.5-27.6c-12.9-16.9-13.1-23.9-14.2-62.9
				c-0.1-2.6-0.2-5.4-0.2-8.4c-1.5-50.1-14.1-88.6-35.5-108.3c-14.1-13-30.2-15.7-41.3-15.7c-4.8,0-8.2,0.5-9.5,0.8
				c-2.2-2.1-12.1-10.5-30.4-10.5c-15.1,0-31.8,5.7-49.8,16.9c-26.6,16.6-42.7,36.8-51.4,50.8c-9.6,15.3-15.9,31.8-16.8,44.2
				c-1,4.3-1.3,8.8-0.9,13.2c0.6,6.4,2.7,12.2,4.8,17.1c1,2.3,2.2,4.6,3.3,6.8c1.5,2.8,3,5.6,4,8.6c1.8,5.1-0.4,9.6-3.3,14.4
				c-0.8,1.4-1.7,2.7-2.5,4.1c-2,3.3-4.1,6.6-5.7,10.4c-4.3,10-5.5,21.8-3.6,34.2c0.4,6.1,2.4,11.8,5.7,17c6.1,9.4,15.4,16,24.5,22
				c0.7,0.5,1.5,1,2.2,1.4c7.6,5,14.8,9.7,19,18.7c1.1,2.4,2.8,7.2,1.5,11.5c-1.4,4.6-7.4,6.1-9.6,6.5c-7.6-2.9-14.5-9.9-14.5-10
				c-0.2-0.2-0.5-0.4-0.8-0.4c-0.3,0-0.5,0.1-0.8,0.3c-0.5,0.4-0.6,1.2-0.2,1.7c0.3,0.5,8.1,13.5,17.6,15.9c1.5,0.4,3.5,0.6,5.7,0.6
				c12.4,0,30.2-6,30.8-19.4c0.7-16.3-12.4-28-40.1-35.8c-10.4-2.9-17.4-8.8-20.6-17.4c-3.8-10-2.1-23.1,4.5-35.1
				c7-12.7,6.7-22.9,6.5-33.7c-0.1-5.9-0.3-12,0.7-18.9c2.7-19.4,20.4-35.8,52.5-48.8c24.4-9.9,39-22.9,44.6-28.6
				c11.9,5.2,15.8,14.9,20.4,26c2.2,5.5,4.5,11.2,8,16.7c6.4,10.3,14.3,16.4,19.9,19.8c5.1,15.2,0.7,29.2-4.4,45.5
				c-1.3,4.1-2.6,8.3-3.8,12.6c-1.8,6.5-2.6,12-2.4,16.9c-0.3,2.7-0.3,5.5-0.1,8.2c0.5,6,2.2,11.6,5.1,17.4c0.7,1.3,1.4,2.6,2.1,3.9
				c2.5,4.5,5.1,9.1,5.2,14.1c0.1,4.2-3,7.5-6.3,10.5c-0.6,0.6-1.3,1.2-1.9,1.7c-3,2.6-6.1,5.4-8.1,9.2c-3.1,5.7-4.3,12.3-3.6,19.8
				c-0.1,2.8,0.2,5.9,0.8,9.5c3,16.2,13.4,18.7,19.3,18.7c3.4,0,5.9-0.8,6-0.8c0.6-0.2,0.9-0.8,0.9-1.5c-0.1-0.6-0.6-1.1-1.2-1.1
				c0,0,0,0,0,0c0,0-0.1,0-0.3,0c-2.6,0-15.7-0.7-18.1-14.3c-1.5-8.8,8.4-14.7,17.9-20.5c6.6-4,12.8-7.7,14.9-12.4
				c4.2-9.1,1.2-16.4-2.3-22.3c-0.9-1.5-1.9-3-2.8-4.4c-1.5-2.2-2.9-4.3-4-6.7c-0.5-1.1-0.8-2.3-1-3.5c1.3,2.2,2.8,4.4,4.6,6.6
				c4.7,7.1,9.2,13.3,13.9,18.7c0.8,1.3,1.6,2.6,2.4,3.8c1.9,3.1,4,6.1,6.1,9c1.7,2.5,3.5,5,5.2,7.6c1.7,2.6,2.2,5.3,1.4,8.3
				c-0.3,1.5-1.1,2.9-1.8,4.4c-0.6,1.3-1.3,2.6-1.7,4c-1.4,4.5-1.2,9.4,0.7,13.6c2,4.4,5.6,7.9,9.9,9.5c1.9,0.7,3.8,1.1,5.7,1.1
				c8.6,0,15.3-7.3,20.7-13.2c0.4-0.5,0.6-1.2,0.3-1.8c-0.2-0.6-0.8-1-1.4-1c-0.3,0-0.7,0.1-0.9,0.4l-0.2,0.2
				c-2.3,2-4.8,4.2-7.5,6.1c-1.4,0.1-2.7,0.1-3.9,0.1c-9.6,0-10.9-2.4-11-3.2c-0.4-1.7,2-4.4,5.2-6.2c6-3.3,9.5-7.1,10.5-8.3
				c8.7-0.7,14.1-3.4,15.8-8.2c2.7-7.3-4.1-16.4-7.1-20c-3.6-4.2-5.7-6.8-5.6-8.6C366.6,272.4,369.7,269.8,375.4,265z M134.4,166.9
				l-0.1-0.2c-0.2-0.3-0.3-0.6-0.5-0.9c1.8,2.5,3.7,5.2,5.8,8.5c2.2,3.4,1.3,7.5-0.9,12.1c0.4-1.7,0.6-3.5,0.6-5.4
				C139.1,175.8,136.6,171.1,134.4,166.9z"/>
			<path class="st14" d="M333.3,154.1v1.8C333.3,155.9,333.3,155.3,333.3,154.1z M294.8,50.1c36.1,36,38.4,93.2,38.6,104v-12.8
				C336.1,80.8,294.8,50.1,294.8,50.1z M154.6,105.3c30.8-39.9,98.1-70.5,98.1-70.5S200.1,51.7,156,96.9c-3,3.1-5.8,6.1-8.3,9
				c11.2-16.5,31-38.4,64.3-58c0,0-59.8,30.4-78.3,77.4c-1.3,2.3-2.4,4.5-3.3,6.6c2.7-18.5,11.9-53.8,44-83
				c-36.8,28.8-51.8,65.6-53.2,83.9c-1,4.1-1.3,8.4-0.9,12.8c0.5,5.8,2.5,11.4,4.7,16.7c0.3,0.7,0.6,1.4,0.9,2.1
				c0.8,0.1,1.3,0.1,1.3,0.1l8.6,8.2c-0.8-1.8-1.7-3.6-2.6-5.3c-2.1-4.1-4.1-8.2-5.6-12.5c2.4,3.9,5.3,7.5,8.7,12.3l3.6,3.3
				C139.8,170.5,123.7,145.2,154.6,105.3z M341.7,109.2c-14.7-72.1-68.7-69-68.7-69c46.3,8.4,58.9,56.7,58.9,56.7l4.2,68.2
				C336.1,165.1,356.4,181.2,341.7,109.2z M265.3,97.7c-5.3-13.6-13.1-17.9-15.4-18.9c7.2-18,14-41.7,14-41.7
				c-23.1,53.7-50.5,61.3-86.2,84.3c-13.5,8.7-20.8,16.6-24.6,23.1c1.8-8.7,8.4-25.2,31.7-46.1c35-31.4,68.7-53.7,68.7-53.7
				s-75.3,39.4-100.3,87.5c5.3-12.8,18.3-35.7,49.2-59.9c0,0-52,30.9-56.2,79.7c-1.3,6.7-1.3,13.6,0.2,20.4c0.1-2.1,0.3-4.3,0.6-6.6
				c2.8-19.9,21-36.8,53.3-49.8c25-10.1,39.5-23.4,44.7-28.9c19.1,7.8,19.2,26.8,29.6,43.5c4.8,7.7,10.5,13,15.2,16.5
				C271,129.7,271.3,113,265.3,97.7z M296.2,126.4c-2.6-8.2-6.3-15.9-9.9-21.8c-9.8-16.1-23.1-36-23.1-36s10.5,23,21,43.7
				c10.5,20.7,11.2,40.6,11.2,40.6l0.1,1.3c1,4.3,1.4,8.5,1.3,12.7c3.1-6.8,3.9-14.6,3.2-22.6l1.8,8.6c3.5-52.9-35-100.4-35-100.4
				C282.8,74,292.4,109.4,296.2,126.4z"/>
		</g>
	</g>
	<g>
		<path class="st0" d="M286.4,166.8c0,0,5.1-11,11.2-13.6c6.2-2.6,11.2,3.7,12.5,11.7c1.3,7.9-4.4,20-7.5,23.5
			c-3.1,3.5-12.7,6.4-16.1,6.2c-3.4-0.2-4.9,0.6-5.1-2.9C281.3,188,286.4,166.8,286.4,166.8z"/>
		<path class="st7" d="M286.6,184.1c0.9-11.4,4.4-20.8,8.2-24.5c3.7-3.7,8.2-0.9,9.8,3.3c1.6,4.2,0.2,10.3,0.2,10.3
			s-3.5-10.5-6.8-9.1C294.8,165.4,286.6,184.1,286.6,184.1z"/>
	</g>
</g>
</svg>
