<?xml version="1.0" encoding="utf-8"?>
<!-- Generator: Adobe Illustrator 24.0.3, SVG Export Plug-In . SVG Version: 6.00 Build 0)  -->
<svg version="1.1" id="Layer_1" xmlns="http://www.w3.org/2000/svg" xmlns:xlink="http://www.w3.org/1999/xlink" x="0px" y="0px"
	 width="400.1px" height="678px" viewBox="0 0 400.1 678" style="enable-background:new 0 0 400.1 678;" xml:space="preserve">
<style type="text/css">
	.st0{fill:#98393E;}
	.st1{fill:#882C35;}
	.st2{fill:#75232F;}
	.st3{fill:#F1EDDC;}
	.st4{fill:#DCD1BE;}
	.st5{fill:#4D4D4D;}
	.st6{fill:#333333;}
	.st7{fill:#FFB781;}
	.st8{fill:#FF9466;}
	.st9{fill:#E97B59;}
	.st10{fill:#FFFFFF;}
	.st11{fill:#39170B;}
</style>
<g>
	<path class="st0" d="M82.3,384.4L265,330.1c0,0,92.3-258.5-22.4-294.7C214.2-10.4,68.5-11.2,48.7,100
		C28.8,211.2,82.3,384.4,82.3,384.4z"/>
	<path class="st1" d="M171.8,123.9c-41.1-28-65.4-68.2-65.7-102.7C78.4,35.5,55.7,60.7,48.7,100C28.8,211.2,84,401.6,84,401.6
		l182.8-54.3c0,0,33.6-122,33.6-199.4C268.1,162,214.3,152.8,171.8,123.9z"/>
	<path class="st2" d="M192.1,170.4c-45.6,0-64.7,133-106.6,231.8l163.3-44.7C243.8,291.4,233.2,170.4,192.1,170.4z"/>
	<g>
		<path class="st3" d="M376.3,492.2c-6.5-31.1-113.8-201-153.9-202.9c-18.7-0.9,93.5,173.1,109.9,218.2
			C338.6,524.7,381.5,517.1,376.3,492.2z"/>
		<path class="st4" d="M353.7,494.7c-12.8-35.1-123.6-205-131.3-205.4c-18.7-0.9,93.5,173.1,109.9,218.2
			c4.1,11.2,23.8,11.7,35.6,3.8C362.9,510.2,355.3,499.1,353.7,494.7z"/>
		<path class="st5" d="M366,524.4c5.7-0.2,24-8.9,24.1-21.5c0-12.5-23.2-35.3-45.1-24.4c-7.8,3.9-23.4,14.6-22.6,15.4
			C322.3,494,335.5,525.6,366,524.4z"/>
		<path class="st6" d="M382.2,490.5c0,0.9-0.1,1.7-0.3,2.6c-2.1,6.2-12.8,8.2-23.9,4.4c-10.9-3.7-18-11.6-16.2-17.8
			c-8.5,3.9-20.3,13.5-19.5,14.2c0,0,13.2,31.6,43.7,30.5c5.7-0.2,24-8.9,24.1-21.5C390.1,498.9,386.9,494.5,382.2,490.5z"/>
	</g>
	<path class="st5" d="M89.8,1021.6l202.6-34.6c0,0,5.9-322.6-33.3-373.4c-39.3-50.8-75.1-79.9-87.7-36.1
		C158.9,621.3,72.6,598.1,89.8,1021.6z"/>
	<path class="st6" d="M152.7,932c0-179,35.3-326.7,80.9-348.6c-7.8-47.6-49.6-47.9-62.1-4.1c-12.6,43.8-98.9,18.8-81.6,442.4
		l67.7-11.6C154.4,974.7,152.7,971.3,152.7,932z"/>
	<path class="st4" d="M147.4,608.5c16.4-68.3-46.7-273.1-31-302.5c0,0,146.5,60,146.1,99.7c-0.8,77.8-8.5,170.8-1.7,209.7
		L147.4,608.5z"/>
	<path class="st3" d="M115.1,308.7c-1.7,29.4,18.3,151.7,28.5,160.5c24.4,20.8,119,13.9,132.7-11.9c11.2-21.1-38.8-155.5-45.7-161.5
		C223.7,289.7,115.9,294,115.1,308.7z"/>
	<path class="st4" d="M169.7,453.5c-10.5-8.4-54.5-148.7-54.7-144.8c-1.7,29.4,16.9,143.4,28.5,158.7
		c17.9,23.5,141.3,17.3,132.7-18.7C240.6,462.2,189.9,469.4,169.7,453.5z"/>
	<path class="st7" d="M134.8,299.1c7.8,34.5,20.8,118.3,77.7,117.5c56.9-0.9,1.7-124,1.7-124C182.4,289.9,155.4,290.8,134.8,299.1z"
		/>
	<path class="st8" d="M214.2,292.5c-0.7-0.1-1.3-0.1-2-0.1c9.9,22.5,48.9,119.9-3.1,120.7c-13,0.2-24.5-5.8-34.8-15.6
		c11.1,11.8,23.8,19.3,38.2,19C269.5,415.7,214.2,292.5,214.2,292.5z"/>
	<polygon class="st7" points="140.9,201.7 147.8,295.7 177.1,316.4 200.4,294.6 179,206.1 	"/>
	<path class="st7" d="M132.3,205.5c5.8,42.7,84,79.5,84,79.5s47-54.5,47.9-118.3c0.6-46.6-7.5-90.2-63.5-88.5
		C154.4,79.6,122,128.7,132.3,205.5z"/>
	<path class="st1" d="M140.9,204.6c18.4-39.2,46.7-127,12.4-154.2c-24.1-19.1-47.7,61.4-34.5,113.8
		C124,184.7,140.9,204.6,140.9,204.6z"/>
	<g>
		<path class="st7" d="M134,173.9c-14.5-9.6-32.2-12.6-31,3.4c1.1,16.1,26.4,31.6,39.1,37.4C154.7,220.4,139.2,177.3,134,173.9z"/>
		<path class="st9" d="M130.5,179.1c-7.9-5.3-17.6-6.9-17,1.9c0.6,8.8,14.5,17.3,21.4,20.5C141.8,204.6,133.3,181,130.5,179.1z"/>
		<path class="st7" d="M135.5,189.3c-6.4-4.2-14.2-5.6-13.6,1.5c0.5,7.1,11.6,13.9,17.2,16.4C144.6,209.7,137.8,190.8,135.5,189.3z"
			/>
	</g>
	<path class="st0" d="M165.2,63.2c-6.6-19-21.2-31.1-32.7-27.1c-11.5,4-15.5,22.6-8.9,41.5c6.6,19,21.2,31.1,32.7,27.1
		C167.8,100.8,171.8,82.2,165.2,63.2z"/>
	<g>
		<path class="st9" d="M220,192c5.5,8.3,10.1,20.1,7.2,23c-2.9,2.9-17,2.6-18.1,1.7C207.9,215.8,220,192,220,192z"/>
		<path class="st7" d="M215.9,190c5.5,8.3,10.1,20.1,7.2,23c-2.9,2.9-17,2.6-18.1,1.7C203.9,213.8,215.9,190,215.9,190z"/>
		<g>
			<path class="st0" d="M267.4,146.6l1.1-2.1c-7.8-12.8-25.6-18.8-34.1-18.9l-1,6C240.2,130.8,258.4,135.9,267.4,146.6z"/>
		</g>
		<g>
			<path class="st0" d="M164.5,137.5c14.4-10,40.6-11.5,46.9-11l-0.3-6.1c-7.1-0.5-31.6,2.3-48.2,14.9L164.5,137.5z"/>
		</g>
		<g>
			<path class="st9" d="M225.2,239.5l-0.8-2c-1,0.3-24.4,6.5-46.8-18.2l-3.3,2.9C194.7,244,214.2,242.7,225.2,239.5z"/>
		</g>
		<path class="st9" d="M196.5,247.4c0.3-1.4,3.3-0.3,7.4,0.7c4.1,1,7.7,1.4,7.4,2.8c-0.3,1.4-3.8,1.8-7.9,0.8
			C199.2,250.7,196.2,248.8,196.5,247.4z"/>
		<g>
			<path class="st10" d="M196.4,171.8c2.9-3.1-1.1-15.4-12.4-19.6c-11.2-4.2-17.6,3.1-18.1,6.2c-0.5,3.1,0.8,8.6,7.2,11.7
				c6.4,3.2,11.9,2.7,15,2.6C192.1,172.7,194.7,173.6,196.4,171.8z"/>
			<circle class="st11" cx="183.4" cy="159.7" r="10"/>
			<circle class="st10" cx="179.8" cy="157.5" r="4"/>
			<path class="st11" d="M197.3,169.1c0,0,1.8-5.7-4.8-13.6c-6.6-7.9-15.9-6.7-18.5-7.4c-2.5-0.6-5.3,0-4.5,0.7
				c0.8,0.7-1.7,2.6-3.7,2c-2-0.6-0.1,1.7-0.2,2.4c0,0.7-3.5,0.3-3.9,1c-0.3,0.7,1.9,2.5,1.3,2.7c-0.6,0.1-2.6,1.5-1.7,2.3
				c0.9,0.7,2.6,3.1,3.4,4.1c0.7,1,2.9,2,2.9,2s-2.2-4.9-0.5-8.1c1.7-3.2,5.9-6.6,12.3-5.4c6.5,1.1,10.3,4.4,13.1,7.2
				C195.2,161.8,197.3,169.1,197.3,169.1z"/>
		</g>
		<g>
			<path class="st10" d="M232.9,170.4c-2.3-3.3,3.1-14.3,14.2-16.7c11.1-2.4,16.1,5.3,16.1,8.2c0,2.9-1.8,7.9-8.3,10.1
				c-6.4,2.1-11.5,0.9-14.4,0.5C236.8,171.8,234.2,172.3,232.9,170.4z"/>
			<circle class="st11" cx="246.6" cy="160.7" r="9.5"/>
			<path class="st10" d="M239.4,158.4c-0.1,2.1,1.4,3.9,3.5,4c2.1,0.1,3.9-1.4,4-3.5c0.1-2.1-1.4-3.9-3.5-4
				C241.3,154.7,239.5,156.3,239.4,158.4z"/>
			<path class="st11" d="M232.4,167.7c0,0-0.9-5.6,6.3-12.1c7.3-6.6,15.8-4.2,18.3-4.5c2.5-0.3,5,0.7,4.2,1.3
				c-0.8,0.6,1.2,2.7,3.2,2.4c1.9-0.3-0.1,1.7-0.2,2.3c0,0.6,3.3,0.7,3.5,1.5c0.2,0.7-2.1,2.1-1.6,2.4c0.5,0.2,2.2,1.8,1.3,2.3
				c-1,0.6-2.9,2.6-3.7,3.4c-0.8,0.8-2.9,1.5-2.9,1.5s2.7-4.3,1.6-7.5c-1.2-3.3-4.6-6.9-10.8-6.7s-10.3,2.8-13.2,5
				C235.3,161.2,232.4,167.7,232.4,167.7z"/>
		</g>
	</g>
	<path class="st3" d="M14.9,491.8C16.4,464.2,82,306,133.6,299.7C151.8,297.5,66,460.9,57,501.8C53.5,517.3,13.7,513.8,14.9,491.8z"
		/>
	<path class="st4" d="M22.4,492.6c4.7-86.5,113.9-193.9,113.9-193.9C84.5,299.3,13.5,466.4,11.9,494c-0.9,15.9,21,20.9,34.7,16.8
		C34.5,510.5,21.8,504.7,22.4,492.6z"/>
	<g>
		<g>
			<path class="st7" d="M135.3,630.5c-8.8-21.7-73.7-130.7-80.6-137.3c-6.9-6.5-36.8-17-41.2,0.3C9.2,511,122.7,633.1,122.7,633.1
				L135.3,630.5z"/>
			<path class="st8" d="M41.3,521.4c2.7-10.7,15.9-10.4,27.3-7c-7.2-11.8-12.4-19.7-13.9-21.1c-6.9-6.5-39.2-18.2-43.6-0.9
				c-4.4,17.4,111.5,140.7,111.5,140.7l4.5-0.5C86.7,585.8,38.1,534.1,41.3,521.4z"/>
		</g>
		<path class="st5" d="M19.9,510.4c-5.2,2.6-14.4-27.7-5.6-36.7c8.8-9,44.3,9.2,46.6,15.6c2.3,6.4-2.2,16.3-2.2,16.3
			S40,500.1,19.9,510.4z"/>
		<path class="st6" d="M60.9,489.2c-0.4-1.2-2-2.8-4.3-4.5c0,2.1-0.5,4-1.7,5.7c-4.1,6.2-14.6,6.5-23.3,0.7
			c-7.9-5.3-11.6-13.7-9.2-19.9c-3.5-0.1-6.6,0.4-8.2,2.4c-10,12.6,0.4,39.4,5.6,36.7c20.1-10.3,38.8-4.8,38.8-4.8
			S63.2,495.6,60.9,489.2z"/>
		<g>
			<path class="st7" d="M173.1,662.1L173.1,662.1l-20.8-23l19.8,12.1c2.5,1.2,4-0.3,4.5-1l-9.5-7.4l-3-2.2l0,0c-2.8-2.3-5.5-4.3-8-6
				l0,0l-3.9-3.2l-27.9-8.5l0,0l-2.6,3l-1.4,5.3c0,0,5.1,8.6,13,14.8c5.1,9.9,11.3,17.1,11.3,17.1c4.2,3.8,3.9-0.7,3.9-0.7
				c-4.2-3.6-7.7-11.4-8.3-12.6c-0.4-0.9-0.8-1.8-1.1-2.5l0.8-0.2l19.7,22.3c3.2,2.8,4-1.8,4-1.8L150,649.5l-2.6-4.3l1.6-0.4
				l-0.2-0.5l0.4,0.4l19.5,21l0,0c3.6,3.4,7.3-0.3,7.3-0.3L173.1,662.1z"/>
		</g>
	</g>
	<g>
		<path class="st7" d="M269.6,636.3c5.1-17.1,62.8-126.4,68.5-131.4c5.7-5,31.8-12.9,38.7,1.2c6.9,14.1-104.2,139.2-104.2,139.2
			L269.6,636.3z"/>
		<path class="st8" d="M341.4,502.9c8.1-0.9,16,0.6,19.3,7.3c5.7,11.6-62.8,99-89.1,132.1l1,3c0,0,114.2-125.4,107.4-139.5
			C374,493.5,351,498.2,341.4,502.9z"/>
	</g>
</g>
</svg>
