<?xml version="1.0" encoding="utf-8"?>
<!-- Generator: Adobe Illustrator 24.3.0, SVG Export Plug-In . SVG Version: 6.00 Build 0)  -->
<svg version="1.1" id="Layer_1" xmlns="http://www.w3.org/2000/svg" xmlns:xlink="http://www.w3.org/1999/xlink" x="0px" y="0px"
	 viewBox="0 0 374.3 666.2" style="enable-background:new 0 0 374.3 666.2;" xml:space="preserve">
<style type="text/css">
	.st0{fill:#AB6A4A;}
	.st1{fill:#A36546;}
	.st2{fill:#526F0D;}
	.st3{fill:#709D0D;}
	.st4{fill:#FF2E38;}
	.st5{fill:#590800;}
	.st6{fill:#9A6042;}
	.st7{fill:#FFFFFF;}
	.st8{fill:#AB1535;}
	.st9{fill:#E16736;}
	.st10{fill:#C4552D;}
	.st11{fill:#4A1F00;}
	.st12{fill:#D90017;}
	.st13{fill:#FFB654;}
	.st14{fill:#630E41;}
	.st15{opacity:0.59;fill:#BE8469;}
	.st16{fill:#401D06;}
	.st17{fill:#39170B;}
	.st18{fill:#8DB13E;}
	.st19{opacity:0.59;fill:#8DB13E;}
</style>
<g>
	
		<rect x="146.6" y="340.3" transform="matrix(-0.9897 -0.1433 0.1433 -0.9897 275.3648 746.5087)" class="st0" width="35.9" height="46"/>
	<g>
		<g>
			<path class="st1" d="M46.2,353.7c0,0,117.3,45.5,128.4,37.6c11-7.9-4.8-25.9-11.3-29c-6.3-2.9-101-18.2-118.7-18.2L46.2,353.7z"
				/>
			<path class="st0" d="M45.4,350.5l1,3.2c0,0,118.7,46.9,129.7,38.9c10.8-7.8-6.2-27.3-12.9-30.3c-1.3-0.6-8.4-1.9-18.7-3.8
				c5.5,7.1,9.4,16.2,2.6,21C139.2,385.4,89.4,365.7,45.4,350.5z"/>
		</g>
		<g>
			<path class="st1" d="M8.8,325c0,0-1.6,3.6,1.8,5.3l0,0l20.3,7.8l0.3,0.1l-0.2,0.1l0.2,1.3l-3.8-0.7l-16.5-4.6
				c0,0-2.8,1.9-0.1,3.3l21.1,7.7l0,0.6c-0.8,0-1.4,0-2.2,0c-1.1-0.1-7.6-0.5-11.3-2.3c0,0-3.2,1,0.7,3c0,0,7,2.4,15.2,3.2
				c6.5,4,14,5.1,14,5.1l3.4-2.4l1.4-2.7l0,0l-13.7-17.2l-3.5-1.9l0,0c-1.9-1.4-4.1-2.7-6.5-4l0,0l-2.5-1.5l-7.8-4.5
				c-0.4,0.4-1.1,2.1,0.5,3.3l14,10.5l-22-8.1l0,0L8.8,325z"/>
		</g>
	</g>
	<path class="st2" d="M270.5,317.5c0,0-1.1,28.2,5.6,62.7s21.2,54.8,39.7,73.3c18.5,18.5,40.7,17.2,40.7,17.2s-21.5-36.4-17.6-51.6
		c3.9-15.2,8.6-82,0-101.7c-8.6-19.7-49.3-32-49.3-32L270.5,317.5z"/>
	<path class="st2" d="M169.1,144.8c1.7,23.6,18.8,63.4,25.1,69.7c6.3,6.3,79.7-1.7,93.9-11.5c14.1-9.8,16.6-51.7,18.5-61.8
		c1.9-10.1-50.7-118.5-78.6-114.4S173.2,80.7,169.1,93C165,105.3,169.1,144.8,169.1,144.8z"/>
	<path class="st3" d="M332.9,203c0,0,20.4,49.5,20.4,95.3c0,45.9,0,136,0,152.5c0,16.5,17.8,25.5,17.8,25.5s-37.2-11.7-42.5-26.3
		c-5.3-14.6,13-122.3,8.3-144.5c-4.6-22.2-30.3-81.9-30.3-81.9L332.9,203z"/>
	<path class="st4" d="M353.3,510.1c0,29.9-11.8,139.7-11.8,175.7c0,34-7.1,168.9-7.9,184.4c-0.1,0.9-0.1,1.4-0.1,1.4
		s-1.9-0.2-5.2-0.6c-19.4-2.4-87.4-11.1-91.1-14.8c-4.3-4.3,6.7-11.1-9.1-11.1c-15.9,0-24.6,13.4-45.9,13.4
		c-20.5,0-41.3-10.7-42.7-11.5h0l-0.1,0c0,0,6.9-16.4,6.9-27.3c0-10.9-26.7-108.2-21.4-177.5c4.1-54.5,48.5-187.8,67.2-242.2
		l0.7-2.1l2.1-6.2l1-2.7l0.9-2.5l0.8-2.3l0.7-2l0.6-1.7l0.5-1.4l1-2.8l89-4.2C289.5,372,353.3,424.1,353.3,510.1z"/>
	<path class="st5" d="M266,172.2c0,0,5.5,11.3,8.8,14.9c3.3,3.6,12,1.1,12,1.1s-19,9.6-24.5-2.7c-3.1-6.8,0-11.7,0-11.7L266,172.2z"
		/>
	<path class="st5" d="M319.9,157.7c0,0,0,16.9-6.3,24.9c-6.2,8.1-19,8.1-28.7,6.7c-9.6-1.3-19-15.5-19-15.5l15.5-28.8l24,8.4
		L319.9,157.7z"/>
	<path class="st6" d="M216.3,207c0,0,9.8,7.4,25,7.4s27.6-8.6,27.6-8.6s-1.2-0.6-3-1.7c-4.8-2.7-8.7-11.4-9.2-14.2
		c-0.7-3.8,0.6-14,0.6-14l-22.7,5.1l-5.8,0.6c0,0,0,0.1,0,0.3c0.1,1.5,0.5,8.3,0,11.4C228.4,196.9,216.3,207,216.3,207z"/>
	<path class="st0" d="M179.9,129.7c0.2,2.6-3.2,7.1-3.2,13.7c0,7.4,3.3,28,23.4,39.4c3.1,1.7,6.5,3.1,10.2,4.1
		c20.5,5.7,48.9,0.6,63.5-12.7c17.5-15.9,31.7-53.5,31.7-53.5s-19.5-3.8-43.6-22.2c-24.1-18.3-46.3-39.2-46.3-39.2
		s-30.4,9.2-36.8,27.7c-1.4,4-2.1,8.1-2.4,12.2C175.3,114,179.7,127.6,179.9,129.7z"/>
	<g>
		<path class="st5" d="M236.1,159.5c0,0-8,1.5-21.6,1.5c-12.4,0-17.8-2.2-17.5-1.5c0,0,9.6,12.9,20.2,13.6c7.2,0.4,18.9-12,18.9-12
			V159.5z"/>
		<path class="st7" d="M202.5,161.4c0,0,4.7,0.9,14.4,0.9c10.1,0,18.3-1.5,18.3-1.5s-0.7,1-2.3,2.2c-2.8,2.5-7.9,6.3-13.4,7.3
			c-5.4,1-11-2.3-11-2.3l-1.2-2.2L202.5,161.4z"/>
		<path class="st8" d="M234,159.8c0,0-6,0.3-14.4-1.7c-6.9-1.6-19.6,1.8-19.6,1.8s4.2,1.8,13.9,1.6C223.7,161.3,234,159.8,234,159.8
			z"/>
		<path class="st8" d="M234,163c0,0-7.7,13.7-17,14.3c-9.3,0.6-15.3-12.5-15.3-12.5s8.1,8.2,16.1,7.4C226.2,171.4,234,163,234,163z"
			/>
	</g>
	<path class="st9" d="M297.8,135.5c0,0,25.3-15.8,36.5-7.4c11.3,8.4-16.7,41.7-36.3,33.7c-13.4-5.4-9.4-15.3-9.4-15.3L297.8,135.5z"
		/>
	<path class="st10" d="M297.6,146.6c0,0,10-7.6,20.7-9.3c10.6-1.7,11.4-1.2,11.4-1.2s-8.9,3.8-16.1,9
		C306.5,150.2,297.6,146.6,297.6,146.6z"/>
	<path class="st10" d="M303.6,145.1c0,0-2,9,1.9,11c3.9,2,10.9,0,10.9,0s-7.3,1-7.6-3.8s2.4-7.9,2.4-7.9L303.6,145.1z"/>
	<path class="st11" d="M176.3,101.9c0,0,0-1.3,1.6-11.3c1.5-9.7,35.4-29.9,37.5-31.2c0.1,0,0.1-0.1,0.1-0.1s0,0,0-0.1L228,26.8
		c0,0-3.1-0.9-10.6,0c-5.2,0.6-21.3,8.6-31.9,19.2c-4.6,4.6-8.1,9.8-9.3,15.1C172.4,78.6,176.3,101.9,176.3,101.9z"/>
	<path class="st11" d="M215.6,59.4c0,0,0.1,0.1,0.2,0.2c2.6,2.6,31.6,31.6,53.2,49.7c22.7,19,28.8,26.1,28.8,26.1l18.6-8.3
		c0,0,15.5-32.8,13.3-47.2c0-0.2-0.1-0.4-0.1-0.7C328,69.8,323.3,58.1,316,48c-3.7-5.2-8-10-13-13.8c-21.5-16.8-59.2-11.6-70.4-10.1
		c-1.7,0.2-3.3,1.2-4.7,2.7c-7.8,8-12.1,30.8-12.4,32.5C215.6,59.4,215.6,59.4,215.6,59.4z"/>
	<path class="st12" d="M146.9,355.4c0,0,4.7,5.5,17.6,7.5c12.9,2,18.5,0,18.5,0l8.6-29.1c0,0-0.1-0.3-0.2-0.9
		c-1.3-8.3-11-68.6-6-84.4c1.3-4,3.4-8.4,5.8-12.9c0.3-0.5,0.6-1.1,1-1.7c1.7-3,3.5-5.9,5.3-8.7c6.5-10,13-18,13-18
		s-1.8,0.2-4.9,1.2c-1.4,0.4-3,1-4.9,1.7h0c-4.7,1.9-10.7,4.9-17,9.8c-4.3,3.3-8.8,7.5-13.2,12.8
		C151.4,255.6,146.9,355.4,146.9,355.4z"/>
	<path class="st4" d="M161.7,285.5c0.8,3.2,2.7,6.8,5,10.1c5.6,8.1,13.4,15.2,13.4,15.2s0.5,1.5,1.4,3.8c1.4,3.4,3.8,8.6,7.3,14.1
		c0.9,1.4,1.8,2.8,2.6,4.2c5,8,9.2,15.1,9.2,15.1s15.7,7.9,39,7.4c5.6-0.1,10.7-0.7,15.1-1.6c5.9-1.2,10.8-2.8,14.5-4.2l0.1-0.1
		c5-2,7.7-3.8,7.7-3.8s0,0,5.8-10.3c4.8-8.6,14.2-18.4,17.2-21.4c0.6-0.6,0.9-0.9,0.9-0.9s-1.6-52.7-5.7-81.1
		c-0.2-1.6-0.5-3.1-0.7-4.6c-1.2-6.9-2.5-11.7-4.1-12.8c0,0-0.1,0-0.1,0c-7.7-5-25.3-10.8-25.3-10.8s-2.4,1.5-6.8,3.1
		c-4.5,1.6-11.2,3.3-19.2,3.3c-14.6,0-18.2-7.1-18.2-7.1l-15.3,5.4l-4.9,1.7h0c0,0-1.8,7.1-4.5,14.4c-1.2,3.3-2.5,6.6-4,9.3
		c-0.3,0.6-0.6,1.2-1,1.7c-5,8.4-24.9,27.4-26.2,29.2C163.8,266.6,159,274.4,161.7,285.5z"/>
	<path class="st12" d="M183.7,219.9c3.8,1,8.2,2.4,12.6,4.6c0.5,0.2,0.9,0.4,1.3,0.7c2.2,1.1,4.4,2.4,6.6,4
		c16.8,11.6,46,17.9,72.2,10.8c2.9-0.8,5.6-1.7,8.1-2.6c4.2-1.6,7.9-3.4,11-5.2c5-2.9,8.6-5.9,11.2-8.4c-9.4-7.6-15.4-8.9-16-9
		c0,0-0.1,0-0.1,0c-7.7-5-25.3-10.8-25.3-10.8s-10.2,6.3-26.1,6.3c-14.6,0-18.2-7.1-18.2-7.1l-15.3,5.4c-1.4,0.4-3,1-4.9,1.7h0
		C196,212,190,215,183.7,219.9z"/>
	<path class="st12" d="M166.3,294.9l0.4,0.7l12,18.5c0,0,1,0.2,2.8,0.5c10.9,2.2,49.9,10.4,59.4,17c11.1,7.7,14,22.2,14,22.2
		l14.5-4.2l0.1-0.1c5-2,7.7-3.8,7.7-3.8s0,0,5.8-10.3c4.8-8.6,14.2-18.4,17.2-21.4l-7.2-8c0,0-10.6,5.3-54.2,4
		C195.1,308.7,166.3,294.9,166.3,294.9z"/>
	<path class="st13" d="M185.3,355.4c0,0-4.2,1.4-15.7,0c-11.4-1.4-22.3-6.5-22.3-6.5l-0.4,6.5c0,0,4.5,6.5,17.9,9
		c13.5,2.4,17.9,1.1,17.9,1.1L185.3,355.4z"/>
	<path class="st12" d="M353.3,510.1c0,29.9-11.8,139.7-11.8,175.7c0,34-7.1,168.9-7.9,184.4l-5.3,0.8c-19.4-2.4-87.4-11.1-91.1-14.8
		c-4.3-4.3,6.7-11.1-9.1-11.1c-15.9,0-24.6,13.4-45.9,13.4c-20.5,0-41.3-10.7-42.7-11.5c1.8,0.3,31,5.8,39.9,7.3
		c9.2,1.6,39-13.2,45.4-19.6c6.4-6.4,28.3-171.2,28.3-171.2l-14.3,181.7c0,0,2.8,8.6,12.3,8.6c9.5,0,48.8-11.5,57.7-34.8
		c8.9-23.3,3.7-176.7,3.7-176.7c-18.2,29.8-31.9,109.1-31.9,109.1s3.5-102.9,17-166.8c13.5-63.8-15.5-158.7-26.6-169.7
		c-11-11-78.9-14.8-78.9-14.8l0.7-2.1l2.1-6.2l1-2.7l0.9-2.5l0.8-2.3l0.7-2l0.6-1.7l0.5-1.4l1-2.8l89-4.2
		C289.5,372,353.3,424.1,353.3,510.1z"/>
	<path class="st14" d="M200.5,376.3c-0.6-0.7-2-10.4-2.6-18.6c-0.7-8.3,1.8-11.5,1.8-11.5s29.1,10,51.7,6.5
		c22.5-3.5,26.7-7.5,29.8-6.5c3,1-0.4,9.7,1.9,13.9c2.3,4.2,5.5,8.9,6.5,12c1,3.1-17,12.9-44.9,12.9
		C216.7,384.9,200.5,376.3,200.5,376.3z"/>
	<path class="st12" d="M208.4,380.3c0,0-31.7,118.3-31.7,156.6c0,0,16.6-68.8,31.7-99.4c15.2-30.5,35.6-23.5,40.8-18.4
		c5.2,5.2,0,142,0,142s15.2-143.4,21.9-150.2c6.8-6.8,4.9-30.7,4.9-30.7S240.7,394.8,208.4,380.3z"/>
	<g>
		<path class="st15" d="M221.4,146.4c-0.8,0.8-12.3,1.1-14.7-1.4c-2.5-2.5,1.4-12,5.7-18.8C212.4,126.2,222.2,145.5,221.4,146.4z"/>
		<path class="st0" d="M224.7,144.7c-0.8,0.8-12.3,1.1-14.7-1.4s1.4-12,5.7-18.8C215.7,124.6,225.5,143.9,224.7,144.7z"/>
		<g>
			<path class="st16" d="M201.8,87.6l-0.8-4.9c-7.1,0-21.5,4.9-27.8,15.3l0.8,1.6C181.1,90.9,196.1,86.8,201.8,87.6z"/>
		</g>
		<g>
			<path class="st16" d="M265,96.6c-13.6-10.1-33.5-12.3-39.2-12l-0.3,4.9c5.2-0.3,26.4,0.8,38.1,9L265,96.6z"/>
		</g>
		<g>
			<path class="st7" d="M238.3,120.8c2.7,0,7.1,0.3,12.3-2.2c5.2-2.5,6-7.1,5.7-9.5c-0.5-2.5-5.7-8.2-14.7-4.9
				c-9.3,3.3-12.5,13.3-10.1,15.8C232.9,121.7,235.1,120.8,238.3,120.8z"/>
			<circle class="st17" cx="242.1" cy="110.2" r="8.2"/>
			<circle class="st7" cx="245.1" cy="108.6" r="3.3"/>
			<path class="st17" d="M234.5,109.7c2.2-2.2,5.4-4.9,10.6-5.7c5.4-1.1,8.7,1.6,10.1,4.4c1.4,2.5-0.5,6.5-0.5,6.5s1.9-0.8,2.5-1.6
				s1.9-2.7,2.7-3.3s-0.8-1.9-1.4-1.9s1.4-1.6,1.1-2.2s-3.3-0.3-3.3-0.8c-0.3-0.5,1.4-2.5-0.3-1.9c-1.6,0.5-3.5-1.1-3-1.6
				c0.8-0.5-1.4-1.1-3.5-0.5s-9.5-0.5-15,6c-5.2,6.5-3.8,11.2-3.8,11.2S232.6,112.1,234.5,109.7z"/>
		</g>
		<g>
			<path class="st7" d="M195.8,120.3c-2.5,0.5-6.5,1.4-11.7-0.3c-5.2-1.6-6.8-5.7-6.8-8.2c0-2.2,4.1-8.4,13.1-6.5
				c9,1.9,13.3,10.9,11.4,13.6C200.7,120.6,198.8,120,195.8,120.3z"/>
			<circle class="st17" cx="190.7" cy="111" r="7.6"/>
			<path class="st7" d="M193.4,106.4c-1.6,0-2.7,1.6-2.7,3.3c0,1.6,1.6,2.7,3.3,2.7c1.6,0,2.7-1.6,2.7-3.3
				C196.7,107.5,195,106.4,193.4,106.4z"/>
			<path class="st17" d="M197.5,109.7c-2.2-1.9-5.4-3.8-10.6-4.1c-4.9-0.3-7.9,2.7-8.7,5.4c-0.8,2.5,1.4,6,1.4,6s-1.9-0.3-2.5-1.1
				c-0.5-0.5-2.2-2.2-3-2.7c-0.8-0.5,0.8-1.6,1.1-1.9c0.3-0.3-1.6-1.4-1.4-1.9c0-0.5,2.7-0.5,2.7-1.1s-1.6-2.2,0-1.9
				c1.4,0.3,3-1.4,2.5-1.9c-0.8-0.5,1.4-1.4,3.3-1.1c2.2,0,9-1.9,15,3.5c6,5.2,5.2,9.8,5.2,9.8S199.9,111.6,197.5,109.7z"/>
		</g>
	</g>
	<g>
		<g>
			<path class="st1" d="M281.1,463.2c0,0,85.6-92.2,82.3-105.4c-3.3-13.2-25.8-5.1-31.2-0.3c-5.1,4.8-54.2,87.1-60.8,103.6
				L281.1,463.2z"/>
			<path class="st0" d="M277.8,462.7l3.3,0.3c0,0,87.4-93,84.1-106.1c-3.3-12.9-27.6-4.3-32.9,0.8c-1,1-4.8,7.1-10.4,16
				c8.6-2.5,18.5-2.8,20.5,5.3C345,388.5,308.2,427.5,277.8,462.7z"/>
		</g>
		<g>
			<path class="st1" d="M240.6,487.3c0,0,2.8,2.8,5.6,0.3l0,0l14.7-16l0.3-0.3v0.3l1.3,0.3l-2,3.3L250,488.8c0,0,0.8,3.3,3,1.3
				l14.9-16.7l0.5,0.3c-0.3,0.8-0.5,1.3-0.8,2c-0.5,1-3.3,6.8-6.3,9.6c0,0-0.3,3.3,3,0.5c0,0,4.8-5.6,8.6-12.9
				c6.1-4.6,9.9-11.1,9.9-11.1l-1-4.1l-2-2.3l0,0l-21,6.3l-3,2.5l0,0c-2,1.3-4.1,2.8-6.1,4.6l0,0l-2.3,1.8l-7.1,5.6
				c0.3,0.5,1.5,1.8,3.3,0.8l14.9-9.1l-15.7,17.5l0,0L240.6,487.3z"/>
		</g>
	</g>
	<path class="st4" d="M288.6,301.8c0,0,5.6,5.2,11.5,12.3c2.7,3.1,5.4,6.6,7.7,10.1c3.6,5.5,8.2,14.7,12.1,22.7
		c4.1,8.7,7.3,16,7.3,16c26.7,5.1,39.7-5.7,39.7-5.7s-9.1-61-27.7-92.6c-12.7-21.6-24.1-34-32.7-40.9c-9.4-7.6-15.4-8.9-16-9
		c0,0-0.1,0-0.1,0s-1.3,3.1-2.9,8.4c-1.1,3.8-2.3,8.6-3.2,14.3c-0.6,4.1-1.2,8.7-1.4,13.6C282.1,272,288.6,301.8,288.6,301.8z"/>
	<path class="st12" d="M258.3,207.2c0,0,14.7,6.9,29.4,15.8c2.4,1.4,4.7,2.9,7,4.5c4.3,2.9,8.4,5.9,11.9,8.9
		c16.6,14.4,43.5,69.5,43.9,88c0.5,18.5-30.6,22.6-30.6,22.6c4.1,8.7,7.3,16,7.3,16c26.7,5.1,39.7-5.7,39.7-5.7s-9.1-61-27.7-92.6
		c-12.7-21.6-24.1-34-32.7-40.9c-9.4-7.6-15.4-8.9-16-9c0,0-0.1,0-0.1,0c-7.7-5-25.3-10.8-25.3-10.8s-2.4,1.5-6.8,3.1L258.3,207.2z"
		/>
	<path class="st18" d="M350.1,154.9l0,0.2l0,0.3l-1.7,11.7l-0.1,0.7c-5.4,33-16.1,64.2-24.5,72.6c-15.1,15.1-65.9,39.3-109.9,38.8
		c-38.6-0.4-35.5-54.8-35.5-54.8s-1.4-14.8,5.3-21.4c6.6-6.6,15.5,3.2,15.5,3.2s4.1-5.7,7.9-9.4c3.7-3.7,6.9,7.4,6.9,7.4
		s44.7,0.4,55-12.4c17.8-22,2-143.8-48.1-158.1c-9.7-2.8-44.1,47.3-48.9,68.1c-4.1,18-3.3,37-3,41.8c-0.5-6.2-2.7-35.4-0.3-56.5
		c0.5-4.4,1.5-9.4,3.1-14.8c4.2-14.3,12.6-31.2,27.3-44.4c0,0,0,0,0.1,0c10-9,23-16.3,39.5-19.9c39.1-8.4,74.7,24.6,95.2,59v0
		c5.7,9.6,10.2,19.3,13.3,28.2C352.6,110.4,352.8,132.5,350.1,154.9z"/>
	<path class="st19" d="M350.1,155.1l0,0.3l-1.7,11.7l-0.1,0.7c-5.4,33-16.1,64.2-24.5,72.6c-15.1,15.1-65.9,39.3-109.9,38.8
		c-38.6-0.4-35.5-54.8-35.5-54.8s-1.4-14.8,5.3-21.4c6.6-6.6,15.5,3.2,15.5,3.2s4.1-5.7,7.9-9.4c3.7-3.7,6.9,7.4,6.9,7.4
		s44.7,0.4,55-12.4c17.8-22,2-143.8-48.1-158.1c-9.7-2.8-44.1,47.3-48.9,68.1c-4.1,18-3.3,37-3,41.8c-0.5-6.2-2.7-35.4-0.3-56.5
		c0.5-4.4,1.5-9.4,3.1-14.8c14.9-16.6,40.8-44.2,49-45.8c11.8-2.3,64.4,74.7,70.4,89.5c6.1,14.9-20.8,84-20.8,84
		s34.4-10.7,45.9-22.2c11-11,16.2-55.1,16.6-59.2c-0.3,4-3.6,46.7-7.3,63.5c-3.9,17.5-48.9,44.2-48.9,44.2s42.7,1.7,51.8-6.4
		C337.4,212,349.4,158.5,350.1,155.1z"/>
	<path class="st13" d="M365.5,348.9c0,0-9.5,5-24,6.5s-17.7,0-17.7,0l3.4,7.6c0,0,6.2,4.7,22,2.5c15.8-2.2,17.8-8.2,17.8-8.2
		L365.5,348.9z"/>
</g>
</svg>
