<?xml version="1.0" encoding="utf-8"?>
<!-- Generator: Adobe Illustrator 24.3.0, SVG Export Plug-In . SVG Version: 6.00 Build 0)  -->
<svg version="1.1" id="Layer_1" xmlns="http://www.w3.org/2000/svg" xmlns:xlink="http://www.w3.org/1999/xlink" x="0px" y="0px"
	 viewBox="0 0 489 677.1" style="enable-background:new 0 0 489 677.1;" xml:space="preserve">
<style type="text/css">
	.st0{fill:#AB6A4A;}
	.st1{fill:#A36546;}
	.st2{fill:#526F0D;}
	.st3{fill:#709D0D;}
	.st4{fill:#FF2E38;}
	.st5{fill:#590800;}
	.st6{fill:#9A6042;}
	.st7{fill:#FFFFFF;}
	.st8{fill:#AB1535;}
	.st9{fill:#E16736;}
	.st10{fill:#C4552D;}
	.st11{fill:#4A1F00;}
	.st12{fill:#D90017;}
	.st13{fill:#FFB654;}
	.st14{fill:#630E41;}
	.st15{opacity:0.59;fill:#BE8469;}
	.st16{fill:#401D06;}
	.st17{fill:#39170B;}
	.st18{fill:#8DB13E;}
	.st19{opacity:0.59;fill:#8DB13E;}
</style>
<g>
	
		<rect x="253.5" y="445.5" transform="matrix(0.9897 -0.1433 0.1433 0.9897 -65.3319 44.6281)" class="st0" width="47.4" height="60.8"/>
	<g>
		<g>
			<path class="st1" d="M435.8,450.4c-23.4,0-148.5,20.2-156.9,24.1c-8.5,4.2-29.5,27.9-14.9,38.4c14.6,10.5,169.6-49.6,169.6-49.6
				L435.8,450.4z"/>
			<path class="st0" d="M300.1,497.3c-9-6.4-3.8-18.5,3.5-27.8c-13.6,2.5-22.9,4.2-24.7,5c-8.8,4.1-31.3,29.7-17,40.1
				c14.6,10.5,171.4-51.4,171.4-51.4l1.3-4.2C376.5,479.1,310.7,505.1,300.1,497.3z"/>
		</g>
		<g>
			<path class="st1" d="M479.3,427L479.3,427l-29.1,10.7l18.5-13.9c2.1-1.7,1.2-3.9,0.7-4.4l-10.3,6l-3.3,1.9l0,0
				c-3.2,1.6-6,3.4-8.6,5.2l0,0l-4.6,2.5l-18,22.7l0,0l1.8,3.6l4.5,3.2c0,0,9.9-1.4,18.5-6.7c10.9-1.1,20.1-4.3,20.1-4.3
				c5-2.7,0.9-4,0.9-4c-4.9,2.4-13.4,2.9-14.9,3.1c-1.1-0.1-1.8,0-2.9-0.1l-0.1-0.7l27.8-10.2c3.6-1.8-0.1-4.4-0.1-4.4l-21.9,6.1
				l-5,0.9l0.3-1.7l-0.3-0.1l0.4-0.2l26.8-10.2l0,0c4.5-2.2,2.4-7,2.4-7L479.3,427z"/>
		</g>
	</g>
	<path class="st2" d="M137.2,415.3c0,0,1.4,37.3-7.4,82.9s-28,72.4-52.4,96.9c-24.5,24.5-53.8,22.7-53.8,22.7s28.5-48,23.3-68.1
		s-11.3-108.3,0-134.3c11.3-26,65.2-42.3,65.2-42.3L137.2,415.3z"/>
	<path class="st2" d="M271.2,187.1c-2.2,31.2-24.9,83.7-33.2,92.1c-8.3,8.3-105.4-2.3-124-15.2C95.3,251,92,195.7,89.5,182.4
		C87,169,156.5,25.8,193.4,31.2s72.3,71.3,77.8,87.5C276.6,134.9,271.2,187.1,271.2,187.1z"/>
	<path class="st3" d="M54.8,264c0,0-27,65.3-27,125.9c0,60.6,0,179.7,0,201.5c0,21.8-23.5,33.7-23.5,33.7s49.2-15.4,56.1-34.7
		c7-19.3-17.1-161.6-11-190.9c6.1-29.4,40.1-108.2,40.1-108.2L54.8,264z"/>
	<path class="st4" d="M27.8,669.9c0,39.5,15.6,184.5,15.6,232.2c0,44.9,9.4,223.2,10.4,243.6c0.1,1.2,0.1,1.9,0.1,1.9
		s2.5-0.3,6.8-0.8c25.7-3.2,115.5-14.7,120.3-19.6c5.7-5.7-8.9-14.7,12-14.7c21,0,32.6,17.7,60.6,17.7c27,0,54.5-14.2,56.5-15.2h0
		l0.1,0c0,0-9.1-21.7-9.1-36c0-14.4,35.2-142.9,28.2-234.5c-5.5-72.1-64-248.1-88.8-320l-1-2.7l-2.8-8.2l-1.3-3.6l-1.2-3.3l-1-3
		l-0.9-2.6l-0.8-2.3l-0.7-1.9l-1.3-3.7l-117.6-5.6C112.1,487.4,27.8,556.2,27.8,669.9z"/>
	<path class="st5" d="M143.2,223.3c0,0-7.3,15-11.6,19.7c-4.3,4.7-15.8,1.5-15.8,1.5s25,12.7,32.3-3.6c4-9,0-15.4,0-15.4
		L143.2,223.3z"/>
	<path class="st5" d="M71.9,204.2c0,0,0,22.3,8.3,33c8.3,10.6,25.1,10.6,37.9,8.9c12.7-1.8,25.1-20.5,25.1-20.5l-20.5-38l-31.7,11
		L71.9,204.2z"/>
	<path class="st6" d="M208.8,269.4c0,0-13,9.8-33.1,9.8s-36.5-11.3-36.5-11.3s1.6-0.9,4-2.2c6.4-3.6,11.5-15.1,12.1-18.8
		c0.9-5-0.7-18.5-0.7-18.5l29.9,6.7l7.6,0.9c0,0,0,0.1,0,0.4c-0.1,1.9-0.6,10.9,0,15.1C192.9,255.9,208.8,269.4,208.8,269.4z"/>
	<path class="st0" d="M256.9,167.2c-0.2,3.5,4.2,9.3,4.2,18.2c0,9.8-4.4,36.9-30.9,52c-4.1,2.3-8.6,4.1-13.5,5.5
		c-27.1,7.5-64.6,0.7-83.9-16.8c-23.1-21-41.9-70.7-41.9-70.7s25.7-5.1,57.6-29.3c31.8-24.2,61.2-51.8,61.2-51.8
		s40.2,12.2,48.6,36.6c1.8,5.3,2.8,10.7,3.2,16.1C263,146.5,257.1,164.5,256.9,167.2z"/>
	<g>
		<path class="st5" d="M182.7,206.5c0,0,10.5,2,28.6,2c16.4,0,23.5-2.9,23.1-2c0,0-12.7,17.1-26.7,17.9c-9.5,0.6-25-15.9-25-15.9
			V206.5z"/>
		<path class="st7" d="M227.1,209.1c0,0-6.2,1.2-19,1.2c-13.4,0-24.2-2-24.2-2s0.9,1.3,3.1,2.9c3.8,3.2,10.5,8.3,17.7,9.6
			c7.1,1.3,14.5-3.1,14.5-3.1l1.6-2.9L227.1,209.1z"/>
		<path class="st8" d="M185.4,206.9c0,0,8,0.4,19-2.3c9.2-2.2,25.9,2.3,25.9,2.3s-5.6,2.3-18.4,2.1
			C199.1,208.9,185.4,206.9,185.4,206.9z"/>
		<path class="st8" d="M185.4,211.2c0,0,10.1,18.1,22.5,18.9c12.3,0.8,20.2-16.6,20.2-16.6s-10.7,10.8-21.3,9.8
			C195.7,222.3,185.4,211.2,185.4,211.2z"/>
	</g>
	<path class="st9" d="M101.2,174.8c0,0-33.4-20.9-48.3-9.7c-14.9,11.1,22.1,55,47.9,44.6c17.7-7.2,12.4-20.2,12.4-20.2L101.2,174.8z
		"/>
	<path class="st10" d="M101.4,189.5c0,0-13.3-10-27.3-12.3C60,174.9,59,175.6,59,175.6s11.8,5.1,21.2,11.9
		C89.7,194.3,101.4,189.5,101.4,189.5z"/>
	<path class="st10" d="M93.5,187.5c0,0,2.7,11.9-2.5,14.5c-5.2,2.6-14.4,0-14.4,0s9.6,1.3,10.1-5c0.4-6.4-3.1-10.5-3.1-10.5
		L93.5,187.5z"/>
	<path class="st11" d="M261.6,130.4c0,0,0-1.7-2.1-14.9c-2-12.8-46.8-39.5-49.6-41.2c-0.1,0-0.1-0.1-0.1-0.1s0,0,0-0.1l-16.4-42.9
		c0,0,4.1-1.2,14,0c6.9,0.8,28.2,11.3,42.1,25.4c6,6.1,10.7,12.9,12.3,19.9C266.8,99.7,261.6,130.4,261.6,130.4z"/>
	<path class="st11" d="M209.8,74.3c0,0-0.1,0.1-0.2,0.2c-3.4,3.4-41.7,41.7-70.3,65.7c-30,25.1-38.1,34.5-38.1,34.5l-24.5-11
		c0,0-20.4-43.4-17.6-62.3c0-0.3,0.1-0.6,0.1-0.9c2-12.5,8.2-27.9,17.9-41.3c4.8-6.9,10.6-13.2,17.2-18.3
		c28.5-22.2,78.2-15.4,93-13.3c2.2,0.3,4.3,1.6,6.2,3.6c10.3,10.6,16,40.7,16.4,42.9C209.8,74.3,209.8,74.3,209.8,74.3z"/>
	<path class="st12" d="M300.5,465.4c0,0-6.1,7.3-23.3,9.9c-17.1,2.7-24.4,0-24.4,0l-11.4-38.4c0,0,0.1-0.4,0.2-1.2
		c1.8-10.9,14.5-90.6,7.9-111.5c-1.7-5.3-4.4-11.2-7.6-17c-0.4-0.7-0.9-1.5-1.3-2.3c-2.2-3.9-4.6-7.8-7-11.4
		c-8.6-13.3-17.2-23.8-17.2-23.8s2.4,0.3,6.5,1.5c1.8,0.6,4,1.3,6.5,2.3h0c6.2,2.5,14.1,6.5,22.5,13c5.7,4.4,11.6,9.9,17.4,16.9
		C294.5,333.5,300.5,465.4,300.5,465.4z"/>
	<path class="st4" d="M280.9,373c-1,4.3-3.6,8.9-6.6,13.4c-7.4,10.7-17.7,20-17.7,20s-0.6,1.9-1.9,5.1c-1.8,4.4-5,11.3-9.7,18.6
		c-1.2,1.8-2.3,3.7-3.5,5.5c-6.6,10.5-12.2,20-12.2,20s-20.8,10.4-51.5,9.8c-7.4-0.1-14.1-1-20-2.1c-7.9-1.5-14.3-3.7-19.2-5.6
		l-0.1-0.1c-6.6-2.7-10.2-5-10.2-5s0,0-7.6-13.5c-6.3-11.3-18.8-24.3-22.7-28.3c-0.8-0.8-1.2-1.2-1.2-1.2s2.1-69.6,7.5-107.2
		c0.3-2.1,0.6-4.2,1-6.1c1.6-9.1,3.3-15.5,5.4-17c0,0,0.1,0,0.1,0c10.2-6.6,33.5-14.3,33.5-14.3s3.2,2,9,4.1
		c6,2.2,14.8,4.3,25.4,4.3c19.2,0,24-9.4,24-9.4l20.2,7.1l6.5,2.3h0c0,0,2.4,9.4,5.9,19.1c1.6,4.3,3.3,8.7,5.2,12.3
		c0.4,0.8,0.9,1.6,1.3,2.3c6.6,11.2,32.8,36.2,34.6,38.6C278.2,348,284.5,358.4,280.9,373z"/>
	<path class="st12" d="M251.9,286.4c-5.1,1.3-10.8,3.2-16.6,6.1c-0.6,0.3-1.2,0.6-1.8,0.9c-2.9,1.5-5.8,3.2-8.7,5.2
		c-22.1,15.4-60.7,23.7-95.4,14.2c-3.8-1-7.4-2.2-10.7-3.5c-5.6-2.1-10.4-4.5-14.5-6.9c-6.6-3.8-11.4-7.8-14.8-11.1
		c12.4-10.1,20.3-11.8,21.2-11.9c0,0,0.1,0,0.1,0c10.2-6.6,33.5-14.3,33.5-14.3s13.5,8.4,34.4,8.4c19.2,0,24-9.4,24-9.4l20.2,7.1
		c1.8,0.6,4,1.3,6.5,2.3h0C235.6,275.9,243.5,279.9,251.9,286.4z"/>
	<path class="st12" d="M274.9,385.5l-0.6,0.9l-15.9,24.4c0,0-1.4,0.2-3.7,0.7c-14.4,2.9-65.9,13.7-78.5,22.5
		c-14.6,10.2-18.4,29.3-18.4,29.3l-19.2-5.6l-0.1-0.1c-6.6-2.7-10.2-5-10.2-5s0,0-7.6-13.5c-6.3-11.3-18.8-24.3-22.7-28.3l9.5-10.5
		c0,0,14,7,71.6,5.3C236.8,403.7,274.9,385.5,274.9,385.5z"/>
	<path class="st13" d="M249.8,465.4c0,0,5.6,1.9,20.7,0c15.1-1.9,29.5-8.6,29.5-8.6l0.5,8.6c0,0-5.9,8.6-23.7,11.8
		c-17.8,3.2-23.6,1.5-23.6,1.5L249.8,465.4z"/>
	<path class="st12" d="M27.8,669.9c0,39.5,15.6,184.5,15.6,232.2c0,44.9,9.4,223.2,10.4,243.6l6.9,1.1
		c25.7-3.2,115.5-14.7,120.3-19.6c5.7-5.7-8.9-14.7,12-14.7c21,0,32.6,17.7,60.6,17.7c27,0,54.5-14.2,56.5-15.2
		c-2.4,0.4-41,7.6-52.7,9.6c-12.1,2.1-51.5-17.4-59.9-25.8c-8.4-8.4-37.4-226.2-37.4-226.2l18.9,240c0,0-3.7,11.4-16.3,11.4
		c-12.6,0-64.5-15.2-76.3-46c-11.8-30.8-4.9-233.5-4.9-233.5c24,39.4,42.1,144.2,42.1,144.2s-4.6-136-22.4-220.3
		c-17.8-84.4,20.5-209.7,35.1-224.3c14.6-14.6,104.3-19.6,104.3-19.6l-1-2.7l-2.8-8.2l-1.3-3.6l-1.2-3.3l-1-3l-0.9-2.6l-0.8-2.3
		l-0.7-1.9l-1.3-3.7l-117.6-5.6C112.1,487.4,27.8,556.2,27.8,669.9z"/>
	<path class="st14" d="M229.7,493c0.9-1,2.6-13.7,3.5-24.6c0.9-11-2.4-15.2-2.4-15.2s-38.5,13.3-68.3,8.6
		c-29.8-4.7-35.3-9.8-39.3-8.6c-4,1.3,0.6,12.8-2.5,18.4c-3.1,5.6-7.3,11.7-8.6,15.9c-1.3,4.1,22.5,17,59.3,17
		C208.3,504.4,229.7,493,229.7,493z"/>
	<path class="st12" d="M219.2,498.2c0,0,41.9,156.3,41.9,207c0,0-21.9-90.9-41.9-131.3c-20.1-40.4-47-31.1-53.8-24.3
		c-6.8,6.8,0,187.7,0,187.7s-20-189.5-29-198.5c-9-9-6.5-40.6-6.5-40.6S176.6,517.4,219.2,498.2z"/>
	<g>
		<path class="st15" d="M213.9,162.6c5.8,9,10.8,21.6,7.6,24.8c-3.2,3.2-18.4,2.9-19.4,1.8C201,188.1,213.9,162.6,213.9,162.6z"/>
		<path class="st0" d="M209.6,160.4c5.8,9,10.8,21.6,7.6,24.8c-3.2,3.2-18.4,2.9-19.4,1.8C196.6,186,209.6,160.4,209.6,160.4z"/>
		<g>
			<path class="st16" d="M264.7,127.4l1.1-2.2c-8.3-13.7-27.4-20.2-36.7-20.2l-1.1,6.5C235.5,110.5,255.3,115.9,264.7,127.4z"/>
		</g>
		<g>
			<path class="st16" d="M146.2,126c15.5-10.8,43.6-12.2,50.4-11.9l-0.4-6.5c-7.6-0.4-33.8,2.5-51.8,15.8L146.2,126z"/>
		</g>
		<g>
			<path class="st7" d="M188.7,154.4c3.2-3.2-1.1-16.6-13.3-20.9c-11.9-4.3-18.7,3.2-19.4,6.5c-0.4,3.2,0.7,9.4,7.6,12.6
				s12.6,2.9,16.2,2.9C184,155.5,186.9,156.6,188.7,154.4z"/>
			<circle class="st17" cx="174.7" cy="141.5" r="10.8"/>
			<circle class="st7" cx="170.7" cy="139.3" r="4.3"/>
			<path class="st17" d="M189.8,151.9c0,0,1.8-6.1-5-14.8c-7.2-8.6-16.9-7.2-19.8-7.9c-2.9-0.7-5.8,0-4.7,0.7c0.7,0.7-1.8,2.9-4,2.2
				s0,1.8-0.4,2.5c0,0.7-4,0.4-4.3,1.1c-0.4,0.7,2.2,2.9,1.4,2.9c-0.7,0-2.9,1.8-1.8,2.5c1.1,0.7,2.9,3.2,3.6,4.3
				c0.7,1.1,3.2,2.2,3.2,2.2s-2.5-5.4-0.7-8.6c1.8-3.6,6.1-7.2,13.3-5.8c6.8,1.1,11.2,4.7,14,7.6C187.3,144,189.8,151.9,189.8,151.9
				z"/>
		</g>
		<g>
			<path class="st7" d="M227.9,153c-2.5-3.6,3.2-15.5,15.1-18c11.9-2.5,17.3,5.8,17.3,8.6c0,3.2-2.2,8.6-9,10.8s-12.2,1.1-15.5,0.4
				C231.9,154.4,229.4,155.1,227.9,153z"/>
			<circle class="st17" cx="242.7" cy="142.5" r="10.1"/>
			<path class="st7" d="M234.8,140c0,2.2,1.4,4.3,3.6,4.3s4.3-1.4,4.3-3.6s-1.4-4.3-3.6-4.3S234.8,137.9,234.8,140z"/>
			<path class="st17" d="M227.2,150.1c0,0-1.1-6.1,6.8-13c7.9-7.2,16.9-4.7,19.8-4.7c2.5-0.4,5.4,0.7,4.3,1.4
				c-0.7,0.7,1.4,2.9,3.2,2.5c2.2-0.4,0,1.8,0,2.5c0,0.7,3.6,0.7,3.6,1.4c0.4,0.7-2.2,2.2-1.8,2.5c0.4,0.4,2.5,1.8,1.4,2.5
				s-3.2,2.9-4,3.6c-0.7,1.1-3.2,1.4-3.2,1.4s2.9-4.7,1.8-7.9c-1.1-3.6-5-7.6-11.5-7.2c-6.8,0.4-11.2,2.9-14,5.4
				C230.5,143.3,227.2,150.1,227.2,150.1z"/>
		</g>
	</g>
	<g>
		<g>
			<path class="st1" d="M135.9,605.2c-8.7-21.8-73.6-130.5-80.3-136.9c-7-6.4-36.8-17.1-41.2,0.3C10,486,123.2,607.9,123.2,607.9
				L135.9,605.2z"/>
			<path class="st0" d="M42.2,496.4c2.7-10.7,15.7-10.4,27.1-7c-7.4-11.7-12.4-19.7-13.7-21.1c-7-6.7-39.2-18.1-43.5-1
				c-4.4,17.4,111.1,140.2,111.1,140.2l4.4-0.3C87.3,560.7,38.8,509.1,42.2,496.4z"/>
		</g>
		<g>
			<path class="st1" d="M173.7,637L173.7,637L153,613.9l19.7,12c2.3,1.3,4-0.3,4.4-1l-9.4-7.4l-3-2.3l0,0c-2.7-2.3-5.4-4.4-8-6l0,0
				l-4-3.3l-27.8-8.4l0,0l-2.7,3l-1.3,5.4c0,0,5,8.7,13.1,14.7c5,9.7,11.4,17.1,11.4,17.1c4.4,3.7,4-0.7,4-0.7
				c-4-3.7-7.7-11.4-8.4-12.7c-0.3-1-0.7-1.7-1-2.7l0.7-0.3l19.7,22.1c3,2.7,4-1.7,4-1.7l-13.7-18.1l-2.7-4.4l1.7-0.3v-0.3l0.3,0.3
				l19.4,21.1l0,0c3.7,3.3,7.4-0.3,7.4-0.3L173.7,637z"/>
		</g>
	</g>
	<path class="st4" d="M113.2,394.6c0,0-7.4,6.9-15.2,16.2c-3.5,4.2-7.1,8.7-10.2,13.4c-4.8,7.3-10.9,19.4-15.9,30
		c-5.4,11.5-9.6,21.2-9.6,21.2c-35.3,6.8-52.5-7.6-52.5-7.6s12.1-80.7,36.5-122.4c16.7-28.6,31.8-44.9,43.2-54.1
		c12.4-10.1,20.3-11.8,21.2-11.9c0,0,0.1,0,0.1,0s1.7,4.1,3.8,11.1c1.5,5,3,11.4,4.2,18.9c0.9,5.5,1.6,11.5,1.8,18
		C121.8,355.2,113.2,394.6,113.2,394.6z"/>
	<path class="st12" d="M153.4,269.6c0,0-19.4,9.1-38.8,20.9c-3.1,1.9-6.3,3.9-9.3,5.9c-5.7,3.8-11.2,7.8-15.7,11.7
		c-21.9,19-57.4,91.9-58,116.3c-0.6,24.5,40.5,29.8,40.5,29.8c-5.4,11.5-9.6,21.2-9.6,21.2c-35.3,6.8-52.5-7.6-52.5-7.6
		s12.1-80.7,36.5-122.4c16.7-28.6,31.8-44.9,43.2-54.1c12.4-10.1,20.3-11.8,21.2-11.9c0,0,0.1,0,0.1,0c10.2-6.6,33.5-14.3,33.5-14.3
		s3.2,2,9,4.1L153.4,269.6z"/>
	<path class="st18" d="M32,200.5l0,0.2l0,0.4l2.2,15.5l0.2,0.9c7.1,43.7,21.3,84.8,32.4,95.9c20,20,87.1,51.9,145.2,51.3
		c51.1-0.6,47-72.4,47-72.4s1.8-19.6-6.9-28.3c-8.7-8.7-20.4,4.3-20.4,4.3s-5.5-7.5-10.4-12.4c-4.9-4.9-9.2,9.8-9.2,9.8
		s-59.1,0.5-72.7-16.4c-23.5-29.1-2.7-190,63.6-208.9c12.8-3.7,58.3,62.4,64.5,90c5.4,23.7,4.4,48.8,4,55.3
		c0.7-8.2,3.6-46.8,0.4-74.7c-0.7-5.8-2-12.5-4.1-19.6c-5.6-18.9-16.7-41.2-36-58.7c0,0,0,0-0.1,0C218.2,20.6,201,10.9,179.2,6.2
		c-51.6-11.1-98.7,32.5-125.8,78v0c-7.5,12.6-13.5,25.4-17.6,37.2C28.7,141.8,28.4,170.9,32,200.5z"/>
	<path class="st19" d="M32,200.7l0,0.4l2.2,15.5l0.2,0.9c7.1,43.7,21.3,84.8,32.4,95.9c20,20,87.1,51.9,145.2,51.3
		c51.1-0.6,47-72.4,47-72.4s1.8-19.6-6.9-28.3c-8.7-8.7-20.4,4.3-20.4,4.3s-5.5-7.5-10.4-12.4c-4.9-4.9-9.2,9.8-9.2,9.8
		s-59.1,0.5-72.7-16.4c-23.5-29.1-2.7-190,63.6-208.9c12.8-3.7,58.3,62.4,64.5,90c5.4,23.7,4.4,48.8,4,55.3
		c0.7-8.2,3.6-46.8,0.4-74.7c-0.7-5.8-2-12.5-4.1-19.6c-19.7-21.9-53.9-58.4-64.8-60.5c-15.6-3.1-85,98.6-93,118.3
		c-8,19.7,27.5,111,27.5,111s-45.4-14.1-60.6-29.3c-14.5-14.5-21.4-72.8-22-78.2c0.4,5.2,4.8,61.7,9.7,83.8
		c5.2,23.2,64.5,58.4,64.5,58.4s-56.5,2.2-68.4-8.4C48.8,275.9,33,205.2,32,200.7z"/>
	<path class="st13" d="M11.7,456.8c0,0,12.5,6.7,31.7,8.6c19.2,1.9,23.4,0,23.4,0l-4.5,10c0,0-8.2,6.2-29,3.3S9.8,467.8,9.8,467.8
		L11.7,456.8z"/>
</g>
</svg>
