<?xml version="1.0" encoding="UTF-8" standalone="no"?>
<!DOCTYPE svg PUBLIC "-//W3C//DTD SVG 1.1//EN" "http://www.w3.org/Graphics/SVG/1.1/DTD/svg11.dtd">
<svg width="100%" height="100%" viewBox="0 0 414 414" version="1.1" xmlns="http://www.w3.org/2000/svg" xmlns:xlink="http://www.w3.org/1999/xlink" xml:space="preserve" xmlns:serif="http://www.serif.com/" style="fill-rule:evenodd;clip-rule:evenodd;stroke-linejoin:round;stroke-miterlimit:2;">
    <rect id="Artboard1" x="0" y="0" width="414" height="414" style="fill:none;"/>
    <g id="Artboard11" serif:id="Artboard1">
        <g transform="matrix(1.84426,0,0,1.84426,-490.762,-90.4795)">
            <path d="M288.5,234.5L437,234.5C443.8,234.5 449.3,229 449.3,222.2L449.3,109.5C449.3,102.7 443.8,97.2 437,97.2L431,97.2L431,91.5C431,89.6 429.5,88.1 427.6,88.1L382.7,88.1C380.8,88.1 379.3,89.6 379.3,91.5L379.3,97.2L288.5,97.2C281.7,97.2 276.2,102.7 276.2,109.5L276.2,222.2C276.2,229 281.8,234.5 288.5,234.5Z" style="fill:rgb(249,181,50);"/>
            <path d="M419.1,223.5L295.3,223.5C289.8,223.5 285.3,219 285.3,213.5L285.3,117.7C285.3,112.2 289.8,107.7 295.3,107.7L419.1,107.7C424.6,107.7 429.1,112.2 429.1,117.7L429.1,213.5C429.2,219 424.7,223.5 419.1,223.5Z" style="fill:white;"/>
            <path d="M303.3,234.5L440.4,234.5C447.2,234.5 454.1,229 455.8,222.2L480.1,125.2C481.8,118.4 477.7,112.9 470.9,112.9L463.7,112.9L465.2,106.8C465.8,104.3 464.3,102.3 461.8,102.3L411.8,102.3C409.3,102.3 406.8,104.3 406.2,106.8L404.7,112.9L333.8,112.9C327,112.9 320.1,118.4 318.4,125.2L294.1,222.2C292.4,229 296.6,234.5 303.3,234.5Z" style="fill:rgb(252,199,73);"/>
        </g>
    </g>
</svg>
