<?xml version="1.0" encoding="UTF-8" standalone="no"?>
<!DOCTYPE svg PUBLIC "-//W3C//DTD SVG 1.1//EN" "http://www.w3.org/Graphics/SVG/1.1/DTD/svg11.dtd">
<svg width="100%" height="100%" viewBox="0 0 200 300" version="1.1" xmlns="http://www.w3.org/2000/svg" xmlns:xlink="http://www.w3.org/1999/xlink" xml:space="preserve" xmlns:serif="http://www.serif.com/" style="fill-rule:evenodd;clip-rule:evenodd;stroke-linejoin:round;stroke-miterlimit:2;">
    <g transform="matrix(-0.0428177,-0.999083,0.999083,-0.0428177,-37.1741,254.967)">
        <rect x="-40.1" y="57" width="272.1" height="172.9" style="fill-opacity:0.1;"/>
    </g>
    <g transform="matrix(0.999083,-0.0428177,0.0428177,0.999083,-5.69229,-26.3894)">
        <g transform="matrix(1,0,0,1,0,36.2501)">
            <g>
                <g transform="matrix(6.12323e-17,-1,1,6.12323e-17,-47.5,239.5)">
                    <rect x="-40.1" y="57" width="272.1" height="172.9" style="fill:white;"/>
                </g>
                <path d="M182.5,110.4L182.5,37.2L97.6,77.4L182.5,110.4Z" style="fill:rgb(247,149,62);fill-rule:nonzero;"/>
                <path d="M182.5,58.3L9.5,125.6L9.5,7.4L182.5,7.4L182.5,58.3Z" style="fill:rgb(250,171,49);fill-rule:nonzero;"/>
                <path d="M115.5,84.4L127.2,89L182.5,58.3L115.5,84.4Z" style="fill:rgb(33,33,33);fill-opacity:0.2;fill-rule:nonzero;"/>
                <path d="M9.5,260.6L182.5,218.5L182.5,279.6L9.5,279.6L9.5,260.6Z" style="fill:rgb(250,171,49);fill-rule:nonzero;"/>
                <path d="M9.5,231.7L9.5,260.6L68.8,246.1L9.5,231.7Z" style="fill:rgb(247,149,62);fill-rule:nonzero;"/>
                <path d="M57.8,243.4L9.5,260.6L68.8,246.1L57.8,243.4Z" style="fill:rgb(33,33,33);fill-opacity:0.2;fill-rule:nonzero;"/>
            </g>
            <g transform="matrix(0.9926,-0.1213,0.1213,0.9926,-11.7163,12.3991)">
                <circle cx="96" cy="102.4" r="45.5" style="fill:white;"/>
            </g>
            <g>
                <clipPath id="_clip1">
                    <path d="M90.475,57.233C115.402,54.187 138.112,71.951 141.158,96.877C144.204,121.804 126.44,144.514 101.514,147.56C76.587,150.606 53.877,132.842 50.831,107.916C47.785,82.989 65.549,60.279 90.475,57.233Z"/>
                </clipPath>
                <g clip-path="url(#_clip1)">
                    <g>
                        <path id="Neck_2_" d="M89.8,122.6L89.8,129L93.4,130.3C95.1,130.9 97,130.9 98.7,130.3L102.3,129L102.3,122.6L89.8,122.6Z" style="fill:rgb(199,131,90);fill-rule:nonzero;"/>
                        <path id="Hand" d="M76.5,131.6C74.9,132.2 73.6,133.5 72.5,138.1C71.2,144.6 70.3,149.3 69.7,152C72,156.9 73.5,161.4 74.8,165.4C75.3,167.1 74.7,170 74.2,171.7L80.9,154.9C80.9,155 83.9,134.2 76.5,131.6Z" style="fill:rgb(34,47,73);fill-rule:nonzero;"/>
                        <g id="Hand_x5F_R_5_">
                            <path d="M118.5,198.8L114.8,198.8L114.9,200.1L113.9,202.8C113.9,202.8 114,208.8 115,208.6C116.8,208.3 115,204.5 115.5,204.6C116.1,204.7 116.7,208.3 116.7,208.3C116.7,208.3 114.2,212.2 116.3,213.3C116.3,213.3 119.8,209.1 119.9,207L118.3,200.4L118.5,198.8Z" style="fill:rgb(199,131,90);fill-rule:nonzero;"/>
                            <path d="M111.1,155C111.1,155 108.1,134.2 115.5,131.6C117.1,132.2 118.4,133.5 119.5,138.1C122.8,158 121.2,199.6 121.2,199.6C118.4,200.8 113.9,199.9 113.9,199.9L111.1,155Z" style="fill:rgb(34,47,73);fill-rule:nonzero;"/>
                        </g>
                        <g id="Shirt_3_">
                            <path d="M103.3,127.3L102.2,125L96,130.6L89.8,125L88.8,127.3L90.3,196.6L101.7,196.6L103.3,127.3Z" style="fill:rgb(255,188,0);fill-rule:nonzero;"/>
                            <g>
                                <path d="M100.6,128.1C99.9,128.1 96.1,130.6 96.1,130.6C96,130.5 92.3,128 91.6,128.1C90.8,128.1 89.3,130.6 89.3,130.6C89.3,130.6 90.9,128.8 91.6,128.9C92.1,128.9 95,130.2 95.9,130.6L95.9,196.6L96,196.6L96,130.7C96,130.7 100,128.9 100.6,128.9C101.2,128.9 102.9,130.6 102.9,130.6C102.9,130.6 101.3,128.2 100.6,128.1Z" style="fill:rgb(183,136,19);fill-rule:nonzero;"/>
                                <path d="M97.4,131.6C97.4,131.9 97.1,132.2 96.8,132.2C96.5,132.2 96.2,131.9 96.2,131.6C96.2,131.3 96.5,131 96.8,131C97.1,131 97.4,131.3 97.4,131.6Z" style="fill:rgb(183,136,19);fill-rule:nonzero;"/>
                            </g>
                        </g>
                        <g>
                            <path d="M93,152.1C93,152.1 92.8,149.6 92.6,148.4L88.8,127.4L76.6,131.7C74.7,132.3 78.9,152.4 78.9,152.4C79.6,155.1 80.6,165.7 81.1,168.1L80.8,200.7C80.8,200.7 91.2,201.6 93,199.7L93,152.1Z" style="fill:rgb(50,67,107);fill-rule:nonzero;"/>
                            <path d="M115.5,131.5L103.3,127.2L99.5,148.2C99.3,149.5 99.1,151.9 99.1,151.9L99.1,199.5C101.2,201 111.3,200.3 111.3,200.3L111,167.7C111.5,165.3 112.5,154.7 113.2,152C113.2,152.2 117.3,132.2 115.5,131.5Z" style="fill:rgb(50,67,107);fill-rule:nonzero;"/>
                        </g>
                        <g>
                            <circle cx="101.1" cy="169.3" r="1" style="fill:rgb(34,47,73);"/>
                            <g transform="matrix(0.026539,-0.9996,0.9996,0.026539,-77.8276,272.768)">
                                <circle cx="101.1" cy="176.3" r="1" style="fill:rgb(34,47,73);"/>
                            </g>
                            <path d="M102.1,183.4C102.1,183.9 101.7,184.4 101.1,184.4C100.6,184.4 100.1,184 100.1,183.4C100.1,182.8 100.5,182.4 101.1,182.4C101.7,182.5 102.1,182.9 102.1,183.4Z" style="fill:rgb(34,47,73);fill-rule:nonzero;"/>
                            <path d="M102.1,190.5C102.1,191 101.7,191.5 101.1,191.5C100.6,191.5 100.1,191.1 100.1,190.5C100.1,190 100.5,189.5 101.1,189.5C101.7,189.5 102.1,189.9 102.1,190.5Z" style="fill:rgb(34,47,73);fill-rule:nonzero;"/>
                            <path d="M88.8,127.3L82.9,129.4C83,132.1 83.4,136 84.7,140.5L89.1,141.3L85.8,143.8C86.9,146.7 90.4,157.6 93,165.7L93,152.2C93,152.2 92.8,149.7 92.6,148.5L88.8,127.3Z" style="fill:rgb(34,47,73);fill-rule:nonzero;"/>
                            <path d="M103.3,127.3L99.5,148.3C99.3,149.6 99.1,152 99.1,152L99.1,164.9C101.7,156.6 104.7,147 106,143.3L103,141.1L106.8,140.4C108,135.9 108.4,131.8 108.6,129.1L106.9,128.5L103.3,127.3Z" style="fill:rgb(34,47,73);fill-rule:nonzero;"/>
                        </g>
                        <g id="Face_x5F_02_2_">
                            <path id="Face_6_" d="M99.1,75.3L93,75.3C86.3,75.3 80.7,81.6 80.7,89.2L80.7,110.3C80.7,113.2 85.1,116.7 89.8,119.5L89.8,124.7L102.2,124.7L102.2,119.5C106.8,116.7 111.3,113.2 111.3,110.4L111.3,89.2C111.3,81.5 105.8,75.3 99.1,75.3Z" style="fill:rgb(199,131,90);fill-rule:nonzero;"/>
                            <path id="Shadow_6_" d="M96,121.6C94.1,121.6 91.9,120.8 89.8,119.5L89.8,122C92,123.3 94.1,124.1 96,124.1C97.8,124.1 100,123.3 102.2,122L102.2,119.5C100.1,120.7 97.8,121.6 96,121.6Z" style="fill:rgb(147,91,63);fill-rule:nonzero;"/>
                            <path id="Mustache_5_" d="M111.2,102.2L110.7,99.9C110.7,99.9 110.5,110.4 109.9,111.1C109.6,111.5 108,112.5 106.7,113.2C104.7,110.2 100.7,108.2 96.1,108.2C91.5,108.2 87.5,110.2 85.5,113.2C84.2,112.4 82.6,111.5 82.3,111.1C81.7,110.4 81.5,99.9 81.5,99.9L81,102.2L80.9,102.2L80.9,114.8C80.9,116.4 89.6,122.1 96.2,122.1C102.8,122.1 111.5,116.4 111.5,114.8L111.5,102.2L111.2,102.2Z" style="fill:rgb(29,30,33);fill-rule:nonzero;"/>
                            <g id="Hat_5_">
                                <path d="M118.8,84.8C118.8,72.2 108.6,62 96,62C83.4,62 73.2,72.2 73.2,84.8C73.2,91.5 76.1,95.5 80.7,102.7C80.7,102.7 88.9,88.6 95.7,79.4C102.6,88.4 111.3,102.7 111.3,102.7C111.3,102.7 118.8,91.4 118.8,84.8Z" style="fill:rgb(255,188,0);fill-rule:nonzero;"/>
                                <path d="M118.8,84.8C118.8,77.2 115.1,70.4 109.3,66.3C101.2,72.9 95.7,79.3 95.7,79.3C102.6,88.3 111.3,102.6 111.3,102.6C111.3,102.6 118.8,91.4 118.8,84.8Z" style="fill:rgb(239,161,24);fill-rule:nonzero;"/>
                                <path d="M101.5,73.2C97.9,76.7 95.7,79.3 95.7,79.3C102.6,88.3 111.3,102.6 111.3,102.6C111.3,102.6 114.8,85.7 101.5,73.2Z" style="fill:rgb(229,137,5);fill-rule:nonzero;"/>
                            </g>
                        </g>
                    </g>
                </g>
            </g>
            <g>
                <path d="M63.7,32C63.7,33.3 62.6,34.3 61.3,34.3L19.2,34.6C17.9,34.6 16.9,33.7 16.7,32.4L14.3,15.1C14.2,14.4 14.4,13.7 14.8,13.2C15.2,12.7 15.9,12.4 16.6,12.4L61.6,12.1C62.3,12.1 62.9,12.4 63.4,12.9C63.9,13.4 64.1,14.1 64.1,14.7L63.7,32Z" style="fill:rgb(255,248,220);fill-rule:nonzero;"/>
                <g>
                    <path d="M27.5,30.2C27.1,30.2 26.7,29.9 26.7,29.5C26.6,28.3 26.7,23.5 26.7,20.8L26.7,19.7C26.7,19.3 27.1,18.9 27.5,18.9C28,18.9 28.3,19.2 28.3,19.6L28.3,20.7C28.3,23.3 28.2,28.1 28.2,29.3C28.3,29.8 28,30.1 27.5,30.2Z" style="fill:rgb(102,71,38);fill-rule:nonzero;"/>
                    <path d="M24.8,20.5L23.7,20.5C23.2,20.5 22.9,20.1 22.9,19.7C22.9,19.3 23.4,18.9 23.8,19C24,19 25.7,19 27.4,18.9C29.3,18.9 31.2,18.8 31.3,18.8C31.8,18.8 32.1,19.2 32.1,19.6C32.1,20 31.7,20.3 31.2,20.3C31,20.3 29.2,20.3 27.4,20.4C26.4,20.5 25.5,20.5 24.8,20.5Z" style="fill:rgb(102,71,38);fill-rule:nonzero;"/>
                    <path d="M34.5,30.1C34.5,30.1 34.4,30.1 34.5,30.1C34,30.1 33.6,29.7 33.7,29.3C33.7,29 34.7,22.4 36.1,19.3C36.3,18.9 36.8,18.7 37.2,18.9C37.6,19 37.8,19.5 37.6,19.9C36.3,22.8 35.4,29.4 35.4,29.5C35.3,29.8 34.9,30.1 34.5,30.1Z" style="fill:rgb(102,71,38);fill-rule:nonzero;"/>
                    <path d="M39.6,30C39.2,30 38.8,29.7 38.8,29.4C38.8,29.3 38,23.7 36,20C35.8,19.6 36,19.2 36.4,19C36.8,18.8 37.3,19 37.5,19.3C39.6,23.3 40.4,29 40.4,29.2C40.5,29.6 40.1,30 39.7,30.1C39.7,30 39.7,30 39.6,30Z" style="fill:rgb(102,71,38);fill-rule:nonzero;"/>
                    <path d="M35.3,26.5C34.9,26.5 34.5,26.2 34.5,25.8C34.5,25.4 34.9,25 35.3,25L38.8,24.9C39.2,24.9 39.6,25.2 39.6,25.6C39.6,26 39.2,26.4 38.8,26.4L35.3,26.5Z" style="fill:rgb(102,71,38);fill-rule:nonzero;"/>
                    <path d="M49.7,29.8C49.4,29.8 49.1,29.6 48.9,29.3C48.2,27.6 47.1,25.8 46.1,24.1C45.2,22.6 44.4,21.1 43.7,19.6C43.5,19.2 43.7,18.8 44.1,18.6C44.5,18.4 45,18.6 45.2,19C45.9,20.4 46.7,21.9 47.6,23.3C48.6,25 49.7,26.8 50.4,28.6C50.6,29 50.4,29.4 49.9,29.6C50,29.8 49.8,29.8 49.7,29.8Z" style="fill:rgb(102,71,38);fill-rule:nonzero;"/>
                    <path d="M44.5,29.9C44.4,29.9 44.2,29.9 44.1,29.8C43.7,29.6 43.5,29.2 43.8,28.8C43.8,28.7 47.6,22.2 49.1,19C49.3,18.6 49.8,18.4 50.2,18.6C50.6,18.8 50.8,19.2 50.6,19.6C49,22.9 45.4,29.2 45.2,29.5C45,29.8 44.8,29.9 44.5,29.9Z" style="fill:rgb(102,71,38);fill-rule:nonzero;"/>
                    <path d="M55,29.8C54.5,29.8 54.2,29.5 54.2,29.1L54.3,19.4C54.3,19 54.7,18.6 55.1,18.6C55.6,18.6 55.9,18.9 55.9,19.3L55.9,29C55.9,29.4 55.5,29.7 55,29.8Z" style="fill:rgb(102,71,38);fill-rule:nonzero;"/>
                    <path d="M56.1,16.8C56.1,17.3 55.7,17.7 55.2,17.7C54.7,17.7 54.4,17.3 54.4,16.9C54.4,16.4 54.8,16 55.3,16C55.7,16 56.1,16.4 56.1,16.8Z" style="fill:rgb(102,71,38);fill-rule:nonzero;"/>
                </g>
            </g>
        </g>
        <g transform="matrix(0.767249,0,0,1,5.7189,-4.18716)">
            <rect x="24.198" y="205.586" width="57.953" height="12.351" style="fill:rgb(247,149,62);"/>
        </g>
        <g transform="matrix(1.60621,0,0,0.748586,35.764,49.0527)">
            <rect x="24.198" y="205.586" width="57.953" height="12.351" style="fill:rgb(180,180,180);"/>
        </g>
        <g transform="matrix(0.767249,0,0,1,5.7189,20.1637)">
            <rect x="24.198" y="205.586" width="57.953" height="12.351" style="fill:rgb(247,149,62);"/>
        </g>
        <g transform="matrix(1.60621,0,0,0.691329,35.764,85.5285)">
            <rect x="24.198" y="205.586" width="57.953" height="12.351" style="fill:rgb(180,180,180);"/>
        </g>
    </g>
</svg>
