<?xml version="1.0" encoding="UTF-8" standalone="no"?>
<!DOCTYPE svg PUBLIC "-//W3C//DTD SVG 1.1//EN" "http://www.w3.org/Graphics/SVG/1.1/DTD/svg11.dtd">
<svg width="100%" height="100%" viewBox="0 0 200 300" version="1.1" xmlns="http://www.w3.org/2000/svg" xmlns:xlink="http://www.w3.org/1999/xlink" xml:space="preserve" xmlns:serif="http://www.serif.com/" style="fill-rule:evenodd;clip-rule:evenodd;stroke-linejoin:round;stroke-miterlimit:2;">
    <g transform="matrix(-0.0428177,-0.999083,0.999083,-0.0428177,-37.1741,254.967)">
        <rect x="-40.1" y="57" width="272.1" height="172.9" style="fill-opacity:0.1;"/>
    </g>
    <g transform="matrix(0.999083,-0.0428177,0.0428177,0.999083,-421.311,-8.57728)">
        <g transform="matrix(1,0,0,1,0,36.2501)">
            <g>
                <g transform="matrix(6.12323e-17,-1,1,6.12323e-17,368.5,655.5)">
                    <rect x="375.9" y="57" width="272.1" height="172.9" style="fill:white;"/>
                </g>
                <path d="M598.5,110.4L598.5,37.2L513.6,77.4L598.5,110.4Z" style="fill:rgb(33,118,187);fill-rule:nonzero;"/>
                <path d="M598.5,58.3L425.5,125.6L425.5,7.4L598.5,7.4L598.5,58.3Z" style="fill:rgb(43,165,223);fill-rule:nonzero;"/>
                <path d="M531.5,84.4L543.2,89L598.5,58.3L531.5,84.4Z" style="fill:rgb(33,33,33);fill-opacity:0.2;fill-rule:nonzero;"/>
                <path d="M425.5,260.6L598.5,218.5L598.5,279.6L425.5,279.6L425.5,260.6Z" style="fill:rgb(43,165,223);fill-rule:nonzero;"/>
                <path d="M425.5,231.7L425.5,260.6L484.8,246.1L425.5,231.7Z" style="fill:rgb(33,118,187);fill-rule:nonzero;"/>
                <path d="M473.8,243.4L425.5,260.6L484.8,246.1L473.8,243.4Z" style="fill:rgb(33,33,33);fill-opacity:0.2;fill-rule:nonzero;"/>
            </g>
            <g transform="matrix(0.9926,-0.1213,0.1213,0.9926,-8.6456,62.8513)">
                <circle cx="512" cy="102.4" r="45.5" style="fill:white;"/>
            </g>
            <g>
                <path d="M479.7,32C479.7,33.3 478.6,34.3 477.3,34.3L435.2,34.6C433.9,34.6 432.9,33.7 432.7,32.4L430.3,15.1C430.2,14.4 430.4,13.7 430.8,13.2C431.2,12.7 431.9,12.4 432.6,12.4L477.6,12.1C478.3,12.1 478.9,12.4 479.4,12.9C479.9,13.4 480.1,14.1 480.1,14.7L479.7,32Z" style="fill:rgb(255,248,220);fill-rule:nonzero;"/>
                <g>
                    <path d="M443.5,30.2C443.1,30.2 442.7,29.9 442.7,29.5C442.6,28.3 442.7,23.5 442.7,20.8L442.7,19.7C442.7,19.3 443.1,18.9 443.5,18.9C444,18.9 444.3,19.2 444.3,19.6L444.3,20.7C444.3,23.3 444.2,28.1 444.2,29.3C444.3,29.8 444,30.1 443.5,30.2Z" style="fill:rgb(102,71,38);fill-rule:nonzero;"/>
                    <path d="M440.8,20.5L439.7,20.5C439.2,20.5 438.9,20.1 438.9,19.7C438.9,19.3 439.4,18.9 439.8,19C440,19 441.7,19 443.4,18.9C445.3,18.9 447.2,18.8 447.3,18.8C447.8,18.8 448.1,19.2 448.1,19.6C448.1,20 447.7,20.3 447.2,20.3C447,20.3 445.2,20.3 443.4,20.4C442.4,20.5 441.5,20.5 440.8,20.5Z" style="fill:rgb(102,71,38);fill-rule:nonzero;"/>
                    <path d="M450.5,30.1C450.5,30.1 450.4,30.1 450.5,30.1C450,30.1 449.6,29.7 449.7,29.3C449.7,29 450.7,22.4 452.1,19.3C452.3,18.9 452.8,18.7 453.2,18.9C453.6,19 453.8,19.5 453.6,19.9C452.3,22.8 451.4,29.4 451.4,29.5C451.3,29.8 450.9,30.1 450.5,30.1Z" style="fill:rgb(102,71,38);fill-rule:nonzero;"/>
                    <path d="M455.6,30C455.2,30 454.8,29.7 454.8,29.4C454.8,29.3 454,23.7 452,20C451.8,19.6 452,19.2 452.4,19C452.8,18.8 453.3,19 453.5,19.3C455.6,23.3 456.4,29 456.4,29.2C456.5,29.6 456.1,30 455.7,30.1C455.7,30 455.7,30 455.6,30Z" style="fill:rgb(102,71,38);fill-rule:nonzero;"/>
                    <path d="M451.3,26.5C450.9,26.5 450.5,26.2 450.5,25.8C450.5,25.4 450.9,25 451.3,25L454.8,24.9C455.2,24.9 455.6,25.2 455.6,25.6C455.6,26 455.2,26.4 454.8,26.4L451.3,26.5Z" style="fill:rgb(102,71,38);fill-rule:nonzero;"/>
                    <path d="M465.7,29.8C465.4,29.8 465.1,29.6 464.9,29.3C464.2,27.6 463.1,25.8 462.1,24.1C461.2,22.6 460.4,21.1 459.7,19.6C459.5,19.2 459.7,18.8 460.1,18.6C460.5,18.4 461,18.6 461.2,19C461.9,20.4 462.7,21.9 463.6,23.3C464.6,25 465.7,26.8 466.4,28.6C466.6,29 466.4,29.4 465.9,29.6C466,29.8 465.8,29.8 465.7,29.8Z" style="fill:rgb(102,71,38);fill-rule:nonzero;"/>
                    <path d="M460.5,29.9C460.4,29.9 460.2,29.9 460.1,29.8C459.7,29.6 459.5,29.2 459.8,28.8C459.8,28.7 463.6,22.2 465.1,19C465.3,18.6 465.8,18.4 466.2,18.6C466.6,18.8 466.8,19.2 466.6,19.6C465,22.9 461.4,29.2 461.2,29.5C461,29.8 460.8,29.9 460.5,29.9Z" style="fill:rgb(102,71,38);fill-rule:nonzero;"/>
                    <path d="M471,29.8C470.5,29.8 470.2,29.5 470.2,29.1L470.3,19.4C470.3,19 470.7,18.6 471.1,18.6C471.6,18.6 471.9,18.9 471.9,19.3L471.8,29C471.9,29.4 471.5,29.7 471,29.8Z" style="fill:rgb(102,71,38);fill-rule:nonzero;"/>
                    <path d="M472.1,16.8C472.1,17.3 471.7,17.7 471.2,17.7C470.7,17.7 470.4,17.3 470.4,16.9C470.4,16.4 470.8,16 471.3,16C471.7,16 472.1,16.4 472.1,16.8Z" style="fill:rgb(102,71,38);fill-rule:nonzero;"/>
                </g>
            </g>
            <g>
                <clipPath id="_clip1">
                    <path d="M506.468,57.225C531.394,54.179 554.104,71.942 557.15,96.869C560.196,121.795 542.432,144.505 517.506,147.551C492.58,150.597 469.87,132.833 466.823,107.907C463.777,82.981 481.541,60.271 506.468,57.225Z"/>
                </clipPath>
                <g clip-path="url(#_clip1)">
                    <g>
                        <path id="Neck_3_" d="M506,122.6L506,129L509.6,130.3C511.3,130.9 513.2,130.9 514.9,130.3L518.5,129L518.5,122.6L506,122.6Z" style="fill:rgb(199,131,90);fill-rule:nonzero;"/>
                        <path id="Hand_2_" d="M492.7,131.5C491.1,132.1 489.8,133.4 488.7,138C487.4,144.5 486.5,149.2 485.9,151.9C488.2,156.8 489.7,161.3 491,165.3C491.5,167 490.9,169.9 490.4,171.6L497.1,154.8C497.1,155 500,134.2 492.7,131.5Z" style="fill:rgb(34,47,73);fill-rule:nonzero;"/>
                        <g id="Hand_x5F_R_2_">
                            <path d="M534.7,198.8L531,198.8L531.1,200.1L530.1,202.8C530.1,202.8 530.2,208.8 531.2,208.6C533,208.3 531.2,204.5 531.7,204.6C532.3,204.7 532.9,208.3 532.9,208.3C532.9,208.3 530.4,212.2 532.5,213.3C532.5,213.3 536,209.1 536.1,207L534.5,200.4L534.7,198.8Z" style="fill:rgb(199,131,90);fill-rule:nonzero;"/>
                            <path d="M527.3,155C527.3,155 524.3,134.2 531.7,131.6C533.3,132.2 534.6,133.5 535.7,138.1C539,158 537.4,199.6 537.4,199.6C534.6,200.8 530.1,199.9 530.1,199.9L527.3,155Z" style="fill:rgb(34,47,73);fill-rule:nonzero;"/>
                        </g>
                        <g id="Shirt_2_">
                            <path d="M519.4,127.3L518.4,125L512.2,130.6L506,125L504.9,127.3L506.4,196.5L517.9,196.5L519.4,127.3Z" style="fill:rgb(255,188,0);fill-rule:nonzero;"/>
                            <g>
                                <path d="M516.7,128.1C516,128.1 512.2,130.6 512.2,130.6C512.1,130.5 508.4,128 507.7,128.1C506.9,128.1 505.4,130.6 505.4,130.6C505.4,130.6 507,128.8 507.7,128.9C508.2,128.9 511.1,130.2 512,130.6L512,196.6L512.2,196.6L512.2,130.7C512.2,130.7 516.2,128.9 516.8,128.9C517.4,128.9 519.1,130.6 519.1,130.6C519.1,130.6 517.5,128.1 516.7,128.1Z" style="fill:rgb(183,136,19);fill-rule:nonzero;"/>
                                <path d="M513.6,131.6C513.6,131.9 513.3,132.2 513,132.2C512.7,132.2 512.4,131.9 512.4,131.6C512.4,131.3 512.7,131 513,131C513.3,131 513.6,131.3 513.6,131.6Z" style="fill:rgb(183,136,19);fill-rule:nonzero;"/>
                            </g>
                        </g>
                        <g>
                            <path d="M509.1,152.1C509.1,152.1 508.9,149.6 508.7,148.4L504.9,127.4L492.7,131.7C490.8,132.3 495,152.4 495,152.4C495.7,155.1 496.7,165.7 497.2,168.1L496.9,200.7C496.9,200.7 507.3,201.6 509.1,199.7L509.1,152.1Z" style="fill:rgb(50,67,107);fill-rule:nonzero;"/>
                            <path d="M531.6,131.5L519.4,127.2L515.6,148.2C515.4,149.5 515.2,151.9 515.2,151.9L515.2,199.5C517.3,201 527.4,200.3 527.4,200.3L527.1,167.7C527.6,165.3 528.6,154.7 529.3,152C529.3,152.2 533.5,132.1 531.6,131.5Z" style="fill:rgb(50,67,107);fill-rule:nonzero;"/>
                        </g>
                        <g>
                            <circle cx="517.3" cy="169.3" r="1" style="fill:rgb(34,47,73);"/>
                            <g transform="matrix(0.026539,-0.9996,0.9996,0.026539,327.293,688.746)">
                                <circle cx="517.3" cy="176.3" r="1" style="fill:rgb(34,47,73);"/>
                            </g>
                            <path d="M518.2,183.4C518.2,183.9 517.8,184.4 517.2,184.4C516.7,184.4 516.2,184 516.2,183.4C516.2,182.8 516.6,182.4 517.2,182.4C517.8,182.4 518.2,182.9 518.2,183.4Z" style="fill:rgb(34,47,73);fill-rule:nonzero;"/>
                            <path d="M518.2,190.5C518.2,191 517.8,191.5 517.2,191.5C516.7,191.5 516.2,191.1 516.2,190.5C516.2,190 516.6,189.5 517.2,189.5C517.8,189.5 518.2,189.9 518.2,190.5Z" style="fill:rgb(34,47,73);fill-rule:nonzero;"/>
                            <path d="M504.9,127.3L499,129.4C499.1,132.1 499.5,136 500.8,140.5L505.2,141.3L501.9,143.8C503,146.7 506.5,157.6 509.1,165.7L509.1,152.2C509.1,152.2 508.9,149.7 508.7,148.5L504.9,127.3Z" style="fill:rgb(34,47,73);fill-rule:nonzero;"/>
                            <path d="M519.4,127.3L515.6,148.3C515.4,149.6 515.2,152 515.2,152L515.2,164.9C517.8,156.6 520.8,147 522.1,143.3L519.1,141.1L522.9,140.4C524.1,135.9 524.5,131.8 524.7,129.1L523,128.5L519.4,127.3Z" style="fill:rgb(34,47,73);fill-rule:nonzero;"/>
                        </g>
                        <g id="Face_x5F_02_3_">
                            <path id="Face_2_" d="M515.2,75.3L509.1,75.3C502.4,75.3 496.8,81.6 496.8,89.2L496.8,110.3C496.8,113.2 501.2,116.7 505.9,119.5L505.9,124.7L518.3,124.7L518.3,119.5C522.9,116.7 527.4,113.2 527.4,110.4L527.4,89.2C527.5,81.5 521.9,75.3 515.2,75.3Z" style="fill:rgb(199,131,90);fill-rule:nonzero;"/>
                            <path id="Shadow_2_" d="M512.2,121.6C510.3,121.6 508.1,120.8 506,119.5L506,122C508.2,123.3 510.3,124.1 512.2,124.1C514,124.1 516.2,123.3 518.4,122L518.4,119.5C516.2,120.7 514,121.6 512.2,121.6Z" style="fill:rgb(147,91,63);fill-rule:nonzero;"/>
                            <path id="Mustache_2_" d="M527.3,102.2L526.8,99.9C526.8,99.9 526.6,110.4 526,111.1C525.7,111.5 524.1,112.5 522.8,113.2C520.8,110.2 516.8,108.2 512.2,108.2C507.6,108.2 503.6,110.2 501.6,113.2C500.3,112.4 498.7,111.5 498.4,111.1C497.8,110.4 497.6,99.9 497.6,99.9L497.1,102.2L497,102.2L497,114.8C497,116.4 505.7,122.1 512.3,122.1C518.9,122.1 527.6,116.4 527.6,114.8L527.6,102.2L527.3,102.2Z" style="fill:rgb(29,30,33);fill-rule:nonzero;"/>
                            <g id="Hat_2_">
                                <path d="M535,84.7C535,72.1 524.8,61.9 512.2,61.9C499.6,61.9 489.4,72.1 489.4,84.7C489.4,91.4 492.3,95.4 496.9,102.6C496.9,102.6 505.1,88.5 511.9,79.3C518.8,88.3 527.5,102.6 527.5,102.6C527.5,102.6 535,91.4 535,84.7Z" style="fill:rgb(255,188,0);fill-rule:nonzero;"/>
                                <path d="M535,84.7C535,77.1 531.3,70.3 525.5,66.2C517.4,72.8 511.9,79.2 511.9,79.2C518.8,88.2 527.5,102.5 527.5,102.5C527.5,102.5 535,91.4 535,84.7Z" style="fill:rgb(239,161,24);fill-rule:nonzero;"/>
                                <path d="M517.7,73.2C514.1,76.7 511.9,79.3 511.9,79.3C518.8,88.3 527.5,102.6 527.5,102.6C527.5,102.6 531,85.6 517.7,73.2Z" style="fill:rgb(229,137,5);fill-rule:nonzero;"/>
                            </g>
                        </g>
                    </g>
                </g>
            </g>
        </g>
        <g transform="matrix(0.767249,0,0,1,421.719,-4.18716)">
            <rect x="24.198" y="205.586" width="57.953" height="12.351" style="fill:rgb(33,118,187);"/>
        </g>
        <g transform="matrix(1.60621,0,0,0.748586,451.764,49.0527)">
            <rect x="24.198" y="205.586" width="57.953" height="12.351" style="fill:rgb(180,180,180);"/>
        </g>
        <g transform="matrix(0.767249,0,0,1,421.719,20.1637)">
            <rect x="24.198" y="205.586" width="57.953" height="12.351" style="fill:rgb(33,118,187);"/>
        </g>
        <g transform="matrix(1.60621,0,0,0.691329,451.764,85.5285)">
            <rect x="24.198" y="205.586" width="57.953" height="12.351" style="fill:rgb(180,180,180);"/>
        </g>
    </g>
</svg>
