<?xml version="1.0" encoding="UTF-8" standalone="no"?>
<!DOCTYPE svg PUBLIC "-//W3C//DTD SVG 1.1//EN" "http://www.w3.org/Graphics/SVG/1.1/DTD/svg11.dtd">
<svg width="100%" height="100%" viewBox="0 0 200 300" version="1.1" xmlns="http://www.w3.org/2000/svg" xmlns:xlink="http://www.w3.org/1999/xlink" xml:space="preserve" xmlns:serif="http://www.serif.com/" style="fill-rule:evenodd;clip-rule:evenodd;stroke-linejoin:round;stroke-miterlimit:2;">
    <g transform="matrix(-0.0428177,-0.999083,0.999083,-0.0428177,-37.1741,254.967)">
        <rect x="-40.1" y="57" width="272.1" height="172.9" style="fill-opacity:0.1;"/>
    </g>
    <g transform="matrix(0.999083,-0.0428177,0.0428177,0.999083,-836.929,9.23487)">
        <g transform="matrix(1,0,0,1,0,36.2501)">
            <g>
                <g transform="matrix(6.12323e-17,-1,1,6.12323e-17,784.5,1071.5)">
                    <rect x="791.9" y="57" width="272.1" height="172.9" style="fill:white;"/>
                </g>
                <path d="M1014.5,110.4L1014.5,37.2L929.6,77.4L1014.5,110.4Z" style="fill:rgb(81,49,122);fill-rule:nonzero;"/>
                <path d="M1014.5,58.3L841.5,125.6L841.5,7.4L1014.5,7.4L1014.5,58.3Z" style="fill:rgb(103,67,153);fill-rule:nonzero;"/>
                <path d="M947.5,84.4L959.2,89L1014.5,58.3L947.5,84.4Z" style="fill:rgb(33,33,33);fill-opacity:0.2;fill-rule:nonzero;"/>
                <path d="M841.5,260.6L1014.5,218.5L1014.5,279.6L841.5,279.6L841.5,260.6Z" style="fill:rgb(103,67,153);fill-rule:nonzero;"/>
                <path d="M841.5,231.7L841.5,260.6L900.8,246.1L841.5,231.7Z" style="fill:rgb(81,49,122);fill-rule:nonzero;"/>
                <path d="M889.8,243.4L841.5,260.6L900.8,246.1L889.8,243.4Z" style="fill:rgb(33,33,33);fill-opacity:0.2;fill-rule:nonzero;"/>
            </g>
            <g transform="matrix(0.9926,-0.1213,0.1213,0.9926,-5.5749,113.303)">
                <circle cx="928" cy="102.4" r="45.5" style="fill:white;"/>
            </g>
            <g>
                <path d="M895.7,32C895.7,33.3 894.6,34.3 893.3,34.3L851.2,34.6C849.9,34.6 848.9,33.7 848.7,32.4L846.3,15.1C846.2,14.4 846.4,13.7 846.8,13.2C847.2,12.7 847.9,12.4 848.6,12.4L893.6,12.1C894.3,12.1 894.9,12.4 895.4,12.9C895.9,13.4 896.1,14.1 896.1,14.7L895.7,32Z" style="fill:rgb(255,248,220);fill-rule:nonzero;"/>
                <g>
                    <path d="M859.5,30.2C859.1,30.2 858.7,29.9 858.7,29.5C858.6,28.3 858.7,23.5 858.7,20.8L858.7,19.7C858.7,19.3 859.1,18.9 859.5,18.9C860,18.9 860.3,19.2 860.3,19.6L860.3,20.7C860.3,23.3 860.2,28.1 860.2,29.3C860.3,29.8 860,30.1 859.5,30.2Z" style="fill:rgb(102,71,38);fill-rule:nonzero;"/>
                    <path d="M856.8,20.5L855.7,20.5C855.2,20.5 854.9,20.1 854.9,19.7C854.9,19.3 855.4,18.9 855.8,19C856,19 857.7,19 859.4,18.9C861.3,18.9 863.2,18.8 863.3,18.8C863.8,18.8 864.1,19.2 864.1,19.6C864.1,20 863.7,20.3 863.2,20.3C863,20.3 861.2,20.3 859.4,20.4C858.4,20.5 857.5,20.5 856.8,20.5Z" style="fill:rgb(102,71,38);fill-rule:nonzero;"/>
                    <path d="M866.5,30.1C866.5,30.1 866.4,30.1 866.5,30.1C866,30.1 865.6,29.7 865.7,29.3C865.7,29 866.7,22.4 868.1,19.3C868.3,18.9 868.8,18.7 869.2,18.9C869.6,19 869.8,19.5 869.6,19.9C868.3,22.8 867.4,29.4 867.4,29.5C867.3,29.8 866.9,30.1 866.5,30.1Z" style="fill:rgb(102,71,38);fill-rule:nonzero;"/>
                    <path d="M871.6,30C871.2,30 870.8,29.7 870.8,29.4C870.8,29.3 870,23.7 868,20C867.8,19.6 868,19.2 868.4,19C868.8,18.8 869.3,19 869.5,19.3C871.6,23.3 872.4,29 872.4,29.2C872.5,29.6 872.1,30 871.7,30.1C871.7,30 871.7,30 871.6,30Z" style="fill:rgb(102,71,38);fill-rule:nonzero;"/>
                    <path d="M867.3,26.5C866.9,26.5 866.5,26.2 866.5,25.8C866.5,25.4 866.9,25 867.3,25L870.8,24.9C871.2,24.9 871.6,25.2 871.6,25.6C871.6,26 871.2,26.4 870.8,26.4L867.3,26.5Z" style="fill:rgb(102,71,38);fill-rule:nonzero;"/>
                    <path d="M881.7,29.8C881.4,29.8 881.1,29.6 880.9,29.3C880.2,27.6 879.1,25.8 878.1,24.1C877.2,22.6 876.4,21.1 875.7,19.6C875.5,19.2 875.7,18.8 876.1,18.6C876.5,18.4 877,18.6 877.2,19C877.9,20.4 878.7,21.9 879.6,23.3C880.6,25 881.7,26.8 882.4,28.6C882.6,29 882.4,29.4 881.9,29.6C882,29.8 881.8,29.8 881.7,29.8Z" style="fill:rgb(102,71,38);fill-rule:nonzero;"/>
                    <path d="M876.5,29.9C876.4,29.9 876.2,29.9 876.1,29.8C875.7,29.6 875.5,29.2 875.8,28.8C875.8,28.7 879.6,22.2 881.1,19C881.3,18.6 881.8,18.4 882.2,18.6C882.6,18.8 882.8,19.2 882.6,19.6C881,22.9 877.4,29.2 877.2,29.5C877,29.8 876.8,29.9 876.5,29.9Z" style="fill:rgb(102,71,38);fill-rule:nonzero;"/>
                    <path d="M887,29.8C886.5,29.8 886.2,29.5 886.2,29.1L886.3,19.4C886.3,19 886.7,18.6 887.1,18.6C887.6,18.6 887.9,18.9 887.9,19.3L887.8,29C887.9,29.4 887.5,29.7 887,29.8Z" style="fill:rgb(102,71,38);fill-rule:nonzero;"/>
                    <path d="M888.1,16.8C888.1,17.3 887.7,17.7 887.2,17.7C886.7,17.7 886.4,17.3 886.4,16.9C886.4,16.4 886.8,16 887.3,16C887.7,16 888.1,16.4 888.1,16.8Z" style="fill:rgb(102,71,38);fill-rule:nonzero;"/>
                </g>
            </g>
            <g>
                <clipPath id="_clip1">
                    <path d="M922.46,57.216C947.386,54.17 970.096,71.934 973.142,96.86C976.188,121.786 958.424,144.497 933.498,147.543C908.572,150.589 885.862,132.825 882.816,107.898C879.77,82.972 897.534,60.262 922.46,57.216Z"/>
                </clipPath>
                <g clip-path="url(#_clip1)">
                    <g>
                        <path id="Neck_5_" d="M922,122.6L922,129L925.6,130.3C927.3,130.9 929.2,130.9 930.9,130.3L934.5,129L934.5,122.6L922,122.6Z" style="fill:rgb(199,131,90);fill-rule:nonzero;"/>
                        <path id="Hand_4_" d="M908.7,131.5C907.1,132.1 905.8,133.4 904.7,138C903.4,144.5 902.5,149.2 901.9,151.9C904.2,156.8 905.7,161.3 907,165.3C907.5,167 906.9,169.9 906.4,171.6L913.1,154.8C913.1,155 916,134.2 908.7,131.5Z" style="fill:rgb(34,47,73);fill-rule:nonzero;"/>
                        <g id="Hand_x5F_R_4_">
                            <path d="M950.7,198.8L947,198.8L947.1,200.1L946.1,202.8C946.1,202.8 946.2,208.8 947.2,208.6C949,208.3 947.2,204.5 947.7,204.6C948.3,204.7 948.9,208.3 948.9,208.3C948.9,208.3 946.4,212.2 948.5,213.3C948.5,213.3 952,209.1 952.1,207L950.5,200.4L950.7,198.8Z" style="fill:rgb(199,131,90);fill-rule:nonzero;"/>
                            <path d="M943.3,155C943.3,155 940.3,134.2 947.7,131.6C949.3,132.2 950.6,133.5 951.7,138.1C955,158 953.4,199.6 953.4,199.6C950.6,200.8 946.1,199.9 946.1,199.9L943.3,155Z" style="fill:rgb(34,47,73);fill-rule:nonzero;"/>
                        </g>
                        <g id="Shirt_5_">
                            <path d="M935.4,127.3L934.4,125L928.2,130.6L922,125L920.9,127.3L922.4,196.5L933.9,196.5L935.4,127.3Z" style="fill:rgb(255,188,0);fill-rule:nonzero;"/>
                            <g>
                                <path d="M932.7,128.1C932,128.1 928.2,130.6 928.2,130.6C928.1,130.5 924.4,128 923.7,128.1C922.9,128.1 921.4,130.6 921.4,130.6C921.4,130.6 923,128.8 923.7,128.9C924.2,128.9 927.1,130.2 928,130.6L928,196.6L928.2,196.6L928.2,130.7C928.2,130.7 932.2,128.9 932.8,128.9C933.4,128.9 935.1,130.6 935.1,130.6C935.1,130.6 933.5,128.1 932.7,128.1Z" style="fill:rgb(183,136,19);fill-rule:nonzero;"/>
                                <path d="M929.6,131.6C929.6,131.9 929.3,132.2 929,132.2C928.7,132.2 928.4,131.9 928.4,131.6C928.4,131.3 928.7,131 929,131C929.3,131 929.6,131.3 929.6,131.6Z" style="fill:rgb(183,136,19);fill-rule:nonzero;"/>
                            </g>
                        </g>
                        <g>
                            <path d="M925.1,152.1C925.1,152.1 924.9,149.6 924.7,148.4L920.9,127.4L908.7,131.7C906.8,132.3 911,152.4 911,152.4C911.7,155.1 912.7,165.7 913.2,168.1L912.9,200.7C912.9,200.7 923.3,201.6 925.1,199.7L925.1,152.1Z" style="fill:rgb(50,67,107);fill-rule:nonzero;"/>
                            <path d="M947.6,131.5L935.4,127.2L931.6,148.2C931.4,149.5 931.2,151.9 931.2,151.9L931.2,199.5C933.3,201 943.4,200.3 943.4,200.3L943.1,167.7C943.6,165.3 944.6,154.7 945.3,152C945.3,152.2 949.5,132.1 947.6,131.5Z" style="fill:rgb(50,67,107);fill-rule:nonzero;"/>
                        </g>
                        <g>
                            <circle cx="933.3" cy="169.3" r="1" style="fill:rgb(34,47,73);"/>
                            <g transform="matrix(0.026539,-0.9996,0.9996,0.026539,732.253,1104.6)">
                                <circle cx="933.3" cy="176.3" r="1" style="fill:rgb(34,47,73);"/>
                            </g>
                            <path d="M934.2,183.4C934.2,183.9 933.8,184.4 933.2,184.4C932.7,184.4 932.2,184 932.2,183.4C932.2,182.8 932.6,182.4 933.2,182.4C933.8,182.4 934.2,182.9 934.2,183.4Z" style="fill:rgb(34,47,73);fill-rule:nonzero;"/>
                            <path d="M934.2,190.5C934.2,191 933.8,191.5 933.2,191.5C932.7,191.5 932.2,191.1 932.2,190.5C932.2,190 932.6,189.5 933.2,189.5C933.8,189.5 934.2,189.9 934.2,190.5Z" style="fill:rgb(34,47,73);fill-rule:nonzero;"/>
                            <path d="M920.9,127.3L915,129.4C915.1,132.1 915.5,136 916.8,140.5L921.2,141.3L917.9,143.8C919,146.7 922.5,157.6 925.1,165.7L925.1,152.2C925.1,152.2 924.9,149.7 924.7,148.5L920.9,127.3Z" style="fill:rgb(34,47,73);fill-rule:nonzero;"/>
                            <path d="M935.4,127.3L931.6,148.3C931.4,149.6 931.2,152 931.2,152L931.2,164.9C933.8,156.6 936.8,147 938.1,143.3L935.1,141.1L938.9,140.4C940.1,135.9 940.5,131.8 940.7,129.1L939,128.5L935.4,127.3Z" style="fill:rgb(34,47,73);fill-rule:nonzero;"/>
                        </g>
                        <g id="Face_x5F_02_5_">
                            <path id="Face_4_" d="M931.2,75.3L925.1,75.3C918.4,75.3 912.8,81.6 912.8,89.2L912.8,110.3C912.8,113.2 917.2,116.7 921.9,119.5L921.9,124.7L934.3,124.7L934.3,119.5C938.9,116.7 943.4,113.2 943.4,110.4L943.4,89.2C943.5,81.5 937.9,75.3 931.2,75.3Z" style="fill:rgb(199,131,90);fill-rule:nonzero;"/>
                            <path id="Shadow_4_" d="M928.2,121.6C926.3,121.6 924.1,120.8 922,119.5L922,122C924.2,123.3 926.3,124.1 928.2,124.1C930,124.1 932.2,123.3 934.4,122L934.4,119.5C932.2,120.7 930,121.6 928.2,121.6Z" style="fill:rgb(147,91,63);fill-rule:nonzero;"/>
                            <path id="Mustache_4_" d="M943.3,102.2L942.8,99.9C942.8,99.9 942.6,110.4 942,111.1C941.7,111.5 940.1,112.5 938.8,113.2C936.8,110.2 932.8,108.2 928.2,108.2C923.6,108.2 919.6,110.2 917.6,113.2C916.3,112.4 914.7,111.5 914.4,111.1C913.8,110.4 913.6,99.9 913.6,99.9L913.1,102.2L913,102.2L913,114.8C913,116.4 921.7,122.1 928.3,122.1C934.9,122.1 943.6,116.4 943.6,114.8L943.6,102.2L943.3,102.2Z" style="fill:rgb(29,30,33);fill-rule:nonzero;"/>
                            <g id="Hat_4_">
                                <path d="M951,84.7C951,72.1 940.8,61.9 928.2,61.9C915.6,61.9 905.4,72.1 905.4,84.7C905.4,91.4 908.3,95.4 912.9,102.6C912.9,102.6 921.1,88.5 927.9,79.3C934.8,88.3 943.5,102.6 943.5,102.6C943.5,102.6 951,91.4 951,84.7Z" style="fill:rgb(255,188,0);fill-rule:nonzero;"/>
                                <path d="M951,84.7C951,77.1 947.3,70.3 941.5,66.2C933.4,72.8 927.9,79.2 927.9,79.2C934.8,88.2 943.5,102.5 943.5,102.5C943.5,102.5 951,91.4 951,84.7Z" style="fill:rgb(239,161,24);fill-rule:nonzero;"/>
                                <path d="M933.7,73.2C930.1,76.7 927.9,79.3 927.9,79.3C934.8,88.3 943.5,102.6 943.5,102.6C943.5,102.6 947,85.6 933.7,73.2Z" style="fill:rgb(229,137,5);fill-rule:nonzero;"/>
                            </g>
                        </g>
                    </g>
                </g>
            </g>
        </g>
        <g transform="matrix(0.767249,0,0,1,837.719,-4.18716)">
            <rect x="24.198" y="205.586" width="57.953" height="12.351" style="fill:rgb(81,49,122);"/>
        </g>
        <g transform="matrix(1.60621,0,0,0.748586,867.764,49.0527)">
            <rect x="24.198" y="205.586" width="57.953" height="12.351" style="fill:rgb(180,180,180);"/>
        </g>
        <g transform="matrix(0.767249,0,0,1,837.719,20.1637)">
            <rect x="24.198" y="205.586" width="57.953" height="12.351" style="fill:rgb(81,49,122);"/>
        </g>
        <g transform="matrix(1.60621,0,0,0.691329,867.764,85.5285)">
            <rect x="24.198" y="205.586" width="57.953" height="12.351" style="fill:rgb(180,180,180);"/>
        </g>
    </g>
</svg>
