<?xml version="1.0" encoding="utf-8"?>
<!-- Generator: Adobe Illustrator 24.3.0, SVG Export Plug-In . SVG Version: 6.00 Build 0)  -->
<svg version="1.1" id="Layer_1" xmlns="http://www.w3.org/2000/svg" xmlns:xlink="http://www.w3.org/1999/xlink" x="0px" y="0px"
	 viewBox="0 0 280 453" style="enable-background:new 0 0 280 453;" xml:space="preserve">
<style type="text/css">
	.st0{fill:#1A1A1A;}
	.st1{fill:#4D4D4D;}
	.st2{fill:#A36546;}
	.st3{fill:#270210;}
	.st4{fill:#9A6042;}
	.st5{fill:#AB6A4A;}
	.st6{opacity:0.28;fill:#7C2E2E;}
	.st7{opacity:0.59;fill:#BE8469;}
	.st8{fill:#CF2721;}
	.st9{fill:#FFFFFF;}
	.st10{fill:#333333;}
	.st11{fill:#4D4D4F;}
	.st12{fill:none;stroke:#F5D1BE;stroke-width:1.1589;stroke-miterlimit:10;}
	.st13{fill:#39170B;}
	.st14{fill:#390B1D;}
	.st15{opacity:0.29;fill:#813B3B;}
	.st16{fill:#F0F0F0;}
	.st17{fill:#CBCBCB;}
</style>
<g>
	<path class="st0" d="M242.3,760c0-23.4-8.2-84.1-12-100.3c-3.8-16.2-14.4-67.3-15.4-82.2c-1-14.8-1-22.4-14.9-77.4
		c-13.9-54.9-50.2-158.5-52.2-158.5c0.4-1.1-69.6-4.4-69.6-4.4c-1.3,1.4-2.7,2.8-4.1,4.3c-14.4,15.8-29.6,51.1-33.4,81.2
		c-3.8,30.1,10.6,138.5,10.6,138.5s-20.2,14.3-18.7,44.4c1.4,30.1,21.1,81.2,24,101.7c2.9,20.5-2.4,29.6-2.4,29.6l-9.1-1l4.3,10
		l-19.2,15.3c0,0,7.7,11,7.7,17.2c0,6.2-1.9,36.8-1.9,36.8h5.8c0,0-0.5-35.8,3.4-37.3c3.8-1.4,9.6,10.5,10.6,17.2
		c1,6.7,2.9,21.5,2.9,21.5h27.4l1-6.7c0,0-7.2,0-10.6-2.9c-3.4-2.9,0-12.9,1-48.2c1-35.3-2.9-183.4-2.9-183.4l36.2-165.8
		c0,0,74,145.7,75.9,158.1c1.9,12.4-10.6,28.2-7.7,46.3c2.9,18.2,29.3,74.5,36.5,89.3c7.2,14.8,6.2,32,6.2,32l-9.1,1l5.3,10.5
		L199,762.4c0,0,5.8,8.6,6.7,14.3c1,5.7,0,37.7,0,37.7h6.7c0,0-3.4-35.3,0-35.8c3.4-0.5,8.6,6.2,10.6,12.4
		c1.9,6.2,3.8,24.4,3.8,24.4h31.7v-5.3c0,0-12-0.5-17.3-6.2C236,798.2,242.3,783.4,242.3,760z"/>
	<g>
		<path class="st1" d="M77.3,759c1-35.3-2.9-183.4-2.9-183.4l36.2-165.8L67.7,574.7c0,0,3.2,191.7,2.6,207.6
			c-0.6,14.5-1.6,24.5-1.6,34.5h17.3l1-6.7c0,0-7.2,0-10.6-2.9C72.9,804.4,76.3,794.4,77.3,759z"/>
		<path class="st1" d="M258.6,810.1c-23,5.3-28.9-9.1-38.5-47.3c0.1-4.9,13.1-23.9,3.1-55.7c-13.5-43-44.7-90.1-35.7-109.5
			c6.4-13.9,8.7-28.7,3.6-41.4c-4.5-11.3-80.4-146.4-80.4-146.4c13.2,25.3,74.2,147.1,75.9,158.1c1.9,12.4-10.6,28.2-7.7,46.3
			c2.9,18.2,29.3,74.5,36.5,89.3c7.2,14.8,6.2,32,6.2,32l-9.1,1l5.3,10.5L199,762.4c0,0,5.8,8.6,6.7,14.3c1,5.7,0,37.7,0,37.7h6.7
			c0,0-3.4-35.3,0-35.8c3.4-0.5,8.6,6.2,10.6,12.4c1.9,6.2,3.8,24.4,3.8,24.4h31.7C258.6,815.4,256.7,810.6,258.6,810.1z"/>
	</g>
	<polygon class="st2" points="233.1,253.4 258.5,191.3 242.4,185.4 215.7,246.3 	"/>
	<path class="st2" d="M259.8,190c-5.3,4-4.2,7.4-11.6,6.1c-6.6-1.1-8.1-1.6-9.7-7.4c-1.1-3.9-1.8-23.1,1.1-26.2
		c1.6-1.7,3.2-2.2,4.4-4.2c1-1.6,1.9-3.6,2-5.5c0.1-1.9,1.3-4.2,3.2-4c0.7,0.1,4.3,2,2.1,11.7c-0.5,2.1,6-12.7,9.5-27
		c0.6-2.4,2.7-3.5,4.2,2.1c0.3,6.1-3.5,16.5-5.1,22.5c2.9,0.9,6.5,3.3,8.1,5.9c1.9,3.1,2.5,10.6,0.9,14
		C267.6,180.7,262.3,188.1,259.8,190z"/>
	<polygon class="st0" points="140.1,193.6 205.2,256.3 225.8,221 244.9,229.8 217,299 125.8,237.2 	"/>
	<path class="st3" d="M85.5,137.8c-9.5-4.8-25.1-59.2-21.5-65.5c0.6-1-15.2,5.1-15.5,11.2c-0.2,4.7-12.9,62.5-9.9,65.3
		c2.8,6.8,35.9,36.3,35.9,36.3c4.7,3.6,24.7,8.6,28.6-0.5C104.2,182.3,98,144.1,85.5,137.8z M158.5,170.7c0,0,1.9-81.1-13.7-98.3
		c-2.1,3.2-15,37.1-23.4,43.7c-6.7,20.7-14.5,69.8-0.5,81.2C126.2,200.5,163.1,182,158.5,170.7z"/>
	<path class="st0" d="M149.3,196c6.3,8.6,19.9,26.9,25.8,32.2c-5,23.8-30.4,30.2-30.4,30.2s2.3,61.8-0.6,82.6
		c0.1,0.2,1.6,1.4,4.1,3.5l-67.9-11.9c0.1-0.1,0.1-0.1,0.1-0.1s6-19.9,2.9-38c-3.1-18.1-30.6-65.5-30.6-65.5L19.9,261l5.6,18.5
		l-9.7,4.8L5.5,258.6c0,0,30.4-84.5,39.7-88.9c9.3-4.4,68.4-2.4,68.4-2.4l3.3,1.1L149.3,196z"/>
	<path class="st4" d="M116.8,135.7l-2.4,31.7c0,0,9.2,9.2-8.7,11.5C81.8,182,85.5,170,85.5,170l0.1-33.4L116.8,135.7z"/>
	<path class="st5" d="M56.6,87.1C45,67.1,57.9,29,97.3,27.7c39.4-1.2,54.7,36,44.4,56.7c0,0,9.5,5.8,6.3,26.5
		c-3.5,23-39.4,41.1-39.4,41.1s0,0,0,0c-2.3,1.9-4.7,3-7.3,3.1c-2.6,0.1-5.1-0.9-7.5-2.7c-0.9-0.4-37-16.1-41.8-38.5
		C47.5,93.5,56.6,87.1,56.6,87.1z"/>
	<path class="st6" d="M56.6,87.1C45,67.1,57.9,29,97.3,27.7c39.4-1.2,54.7,36,44.4,56.7c0,0,9.5,5.8,6.3,26.5
		c-0.9,5.9-4,11.5-8,16.6c1.2-24.4-1.6-71-39.1-72.3c-37.5-1.3-40,49.6-38.9,75.8c-4.8-5.1-8.7-10.8-10-17.1
		C47.5,93.5,56.6,87.1,56.6,87.1z"/>
	<g>
		<path class="st7" d="M102.1,112.4c0.1-0.2,0.6-0.2,1.1-0.5c0.5-0.3,1.2-0.9,1.5-1.7c0.3-0.8,0.2-1.9-0.3-3
			c-0.5-1.1-1.4-2.2-2.4-3.6c-1-1.3-2-3.2-2.4-4.9c-0.4-1.8-0.4-3.5-0.1-4.9c0.6-2.8,2.1-4.2,2.8-3.8c0.8,0.4,0.6,2,0.7,4.2
			c0.1,1.1,0.2,2.3,0.6,3.5c0.4,1.3,0.9,2.4,1.8,3.7c0.8,1.3,1.9,3,2.3,4.8c0.5,1.8,0.2,3.9-0.9,5.4c-1.1,1.3-2.5,1.7-3.5,1.6
			C102.3,113.1,102,112.6,102.1,112.4z"/>
	</g>
	<g>
		<path class="st7" d="M97.3,112.9c-0.2,0.7-2.1,0.7-3.4-0.5c-1.4-1.2-1.6-3.2-0.3-3.4c1.3-0.2,1.9,0.6,2.5,1.5
			C96.7,111.3,97.5,112.3,97.3,112.9z"/>
	</g>
	<g>
		<path class="st8" d="M118.3,125.6c-7.6,1.4-11.4-2.7-17.6-2.5c-6.1,0.2-12.5,4.9-16.9,3c3.4,5.2,8.9,13.2,17.6,12.6
			C110.2,138.1,115.2,128.3,118.3,125.6z"/>
		<path class="st9" d="M113.4,127.6c-5.4,1-8.1-0.8-12.5-0.6c-4.4,0.1-8.9,2.3-12,1c2.4,3.6,6.3,9.2,12.5,8.8
			C107.7,136.3,111.2,129.5,113.4,127.6z"/>
	</g>
	<path class="st10" d="M175.1,228.2c-5,23.8-30.4,30.2-30.4,30.2s-18.4,10-37.7,3.8c-19.3-6.2-13.9,24.7-7,37.9
		c7,13.1,2.3,34,2.3,34l-21-5.7c1.6-6.8,4.1-20.8,1.9-33.9c-3.1-18.1-25.5-57-30.6-65.5c18.8,14.7,32.7-8.4,61.3,2.4
		c18.1,6.9,21.6,0,40.9-7C161,222.1,173.8,226.9,175.1,228.2z"/>
	<path class="st11" d="M83.7,315.5c21.6,8.1,46,4.9,62.4,1c1.1,10.6,2.3,26.7,2.3,27.8c-29.4,7.3-53.2,6.5-74-2.1
		C79.7,332.5,83.7,324.7,83.7,315.5z"/>
	<path class="st11" d="M82,253.5c0,0,19.2,9.5,40.2-0.3C109.9,270.5,90.6,265.5,82,253.5z"/>
	<g>
		<path class="st12" d="M30.2,94"/>
	</g>
	<path class="st0" d="M116.7,151.9c0,0-3.8,5.7-14.7,5.7s-17.2-4.7-17.2-4.7l-7.5,24.3c0,0,7.8,6.2,23.4,6.2s20-8.7,20-8.7
		L116.7,151.9z"/>
	<g>
		<path class="st9" d="M112.5,96.9c-1.8-2.2,1.5-10.2,9.2-12.5c7.7-2.3,11.6,2.9,11.8,5c0.2,2.1-0.9,5.7-5.4,7.5
			c-4.4,1.8-8.1,1.2-10.2,1C115.3,97.7,113.5,98.2,112.5,96.9z"/>
		<circle class="st13" cx="121.7" cy="89.4" r="6.7"/>
		<circle class="st9" cx="124.3" cy="88.1" r="2.7"/>
		<path class="st13" d="M112,95.1c0,0-0.9-3.9,3.9-8.9c4.8-5,11-3.8,12.7-4.1c1.7-0.3,3.5,0.3,3,0.7c-0.5,0.4,1,1.8,2.4,1.5
			c1.4-0.3,0,1.2,0,1.6c0,0.5,2.4,0.4,2.5,0.9c0.2,0.5-1.4,1.6-1,1.7c0.4,0.1,1.7,1.2,1,1.6c-0.7,0.4-1.9,2-2.5,2.6
			c-0.5,0.6-2,1.2-2,1.2s1.7-3.2,0.7-5.4c-1-2.2-3.6-4.7-8-4.2c-4.4,0.4-7.1,2.5-9.1,4.2C113.7,90.3,112,95.1,112,95.1z"/>
		<path class="st13" d="M110.8,75.2c-1.3,3.1,4.6,2.4,8.3,1c3.6-1.4,8.4-2,12.4-1.9c4,0.1,9.3,2.5,9.3,2.5s-6.2-4-12.3-4.5
			c-6-0.5-12.6,0.4-14.6,0.9C111.8,73.7,111.5,73.4,110.8,75.2z"/>
	</g>
	<g>
		<path class="st9" d="M88.1,94.2c1.7-2.1-1.4-9.7-8.7-11.9c-7.3-2.2-11,2.8-11.2,4.7c-0.2,2,0.9,5.4,5.1,7.1c4.2,1.7,7.7,1.2,9.6,1
			C85.4,95,87.1,95.4,88.1,94.2z"/>
		<circle class="st13" cx="79.3" cy="87.1" r="6.4"/>
		<path class="st9" d="M84.3,85.8c0,1.4-1.1,2.5-2.5,2.5c-1.4,0-2.5-1.1-2.5-2.5c0-1.4,1.1-2.5,2.5-2.5
			C83.1,83.3,84.3,84.4,84.3,85.8z"/>
		<path class="st13" d="M88.5,92.5c0,0,0.9-3.7-3.7-8.4c-4.6-4.7-10.4-3.6-12.1-3.8c-1.6-0.3-3.4,0.3-2.8,0.7
			c0.5,0.4-0.9,1.7-2.2,1.5c-1.3-0.3,0,1.1,0,1.5c0,0.4-2.2,0.3-2.4,0.8c-0.2,0.5,1.3,1.5,0.9,1.6c-0.3,0.1-1.6,1.1-1,1.5
			c0.6,0.4,1.8,1.9,2.3,2.5c0.5,0.6,1.9,1.1,1.9,1.1s-1.6-3-0.7-5.1c0.9-2.1,3.4-4.4,7.6-4c4.2,0.4,6.8,2.3,8.6,4
			C86.9,87.9,88.5,92.5,88.5,92.5z"/>
		<path class="st13" d="M92.4,73.6c1.3,3-4.4,2.3-7.8,0.9c-3.4-1.3-7.9-1.9-11.7-1.8c-3.8,0.1-8.8,2.4-8.8,2.4s5.9-3.8,11.6-4.3
			c5.7-0.5,12,0.4,13.9,0.8C91.5,72.2,91.7,71.9,92.4,73.6z"/>
	</g>
	<g>
		<g>
			<path class="st14" d="M177.1,151.5c2.9-2.4,4.4-4.8,4.6-7.5c0.5-4.6-1.8-10.3-8.5-17.4c-14.5-15.3-9.8-22-9.8-46.5
				c0-15.6,0-31.2-10.9-48.3c-13.9-21.9-28.3-18.9-29.1-18.7c-1.4-1.3-10.3-5.6-21.8-4.7C82.9,10,70.3,16.6,57.4,27.1
				C46,36.5,26.2,52.1,33,83.3c3,14,12,21.8-3.6,39.9c-6.3,7.3-9,12.8-8.5,17.4c0.3,2.7,1.7,5,4.6,7.5c3.6,3,5.5,4.6,5.6,5.9
				c0.1,1.1-1.3,2.7-3.5,5.4c-1.9,2.3-6.1,8-4.5,12.6c1.1,3,4.5,4.8,10,5.2c0.7,0.8,2.9,3.2,6.6,5.2c2,1.1,3.5,2.9,3.3,3.9
				c-0.1,0.5-0.9,2-6.9,2c-0.8,0-1.6,0-2.5-0.1c-1.7-1.2-3.3-2.6-4.7-3.8l-0.1-0.1c-0.2-0.1-0.4-0.2-0.6-0.2c-0.4,0-0.7,0.3-0.9,0.6
				c-0.1,0.4-0.1,0.8,0.2,1.1c3.4,3.7,7.6,8.3,13,8.3c1.2,0,2.4-0.2,3.6-0.7c2.7-1,5-3.2,6.3-6c1.2-2.7,1.3-5.7,0.4-8.6
				c-0.3-0.9-0.7-1.7-1.1-2.5c-0.5-0.9-0.9-1.8-1.1-2.8c-0.4-1.9-0.2-3.6,0.9-5.2c1-1.6,1.9-1.9,6,0.6c6,3.6,12.3,7.4,11.3,12.9
				c-1.5,8.6-9.8,9-11.4,9c-0.1,0-0.2,0-0.2,0c0,0,0,0,0,0c-0.4,0-0.7,0.3-0.7,0.7c-0.1,0.4,0.2,0.8,0.5,0.9c0.1,0,1.6,0.5,3.8,0.5
				c3.7,0,10.3-1.5,12.2-11.7c0.4-2.3,0.6-4.2,0.5-6c0.4-4.7-0.3-8.9-2.3-12.5c-1.3-2.4-3.2-4.1-5.1-5.8c-0.4-0.4-0.8-0.7-1.2-1.1
				c-2.1-1.9-4.1-3.9-4-6.6c0.1-3.1,3.2-13.4,3.2-19.6c0-9.4-3.6-17.7-4.7-21.8c-0.6-2.4-3.1-10.6,1.6-24.6s11.2-20.8,25.2-26.4
				c15.4-6.2,26.2-9,29.7-12.6c4.9,0,16.1,22.6,24.7,31.2c7.8,7.8,7.8,28.1,5.2,35.9c-2.1,6.2-4.7,14-4.7,23.4
				c0,6.2,4.6,14.9,4.7,18.1c0.1,2.6-1.9,4.7-4,6.6c-0.4,0.4-0.8,0.7-1.2,1.1c-1.9,1.7-3.8,3.4-5.1,5.8c-1.9,3.6-2.7,7.8-2.3,12.5
				c-0.1,1.8,0.1,3.7,0.5,6c1.9,10.2,8.4,11.7,12.2,11.7c2.1,0,3.7-0.5,3.8-0.5c0.4-0.1,0.6-0.5,0.5-0.9c-0.1-0.4-0.4-0.7-0.7-0.7
				c0,0,0,0,0,0c0,0-0.1,0-0.2,0c-1.6,0-9.9-0.4-11.4-9c-1-5.5,5.3-9.3,11.3-12.9c4.1-2.5,5-2.3,6-0.6c1.1,1.7,1.4,3.3,0.9,5.2
				c-0.2,0.9-0.7,1.8-1.1,2.8c-0.4,0.8-0.8,1.6-1.1,2.5c-0.9,2.9-0.8,5.9,0.4,8.6c1.2,2.8,3.5,5,6.3,6c1.2,0.4,2.4,0.7,3.6,0.7
				c5.4,0,9.6-4.6,13-8.3c0.3-0.3,0.3-0.7,0.2-1.1c-0.1-0.4-0.5-0.6-0.9-0.6c-0.2,0-0.4,0.1-0.6,0.2l-0.1,0.1
				c-1.4,1.2-3,2.7-4.7,3.8c-0.9,0-1.7,0.1-2.5,0.1c-6,0-6.8-1.5-6.9-2c-0.2-1,1.2-2.8,3.3-3.9c3.8-2.1,6-4.5,6.6-5.2
				c5.5-0.4,8.9-2.2,10-5.2c1.7-4.6-2.6-10.3-4.5-12.6c-2.3-2.7-3.6-4.3-3.5-5.4C171.6,156.1,173.6,154.5,177.1,151.5z"/>
			<path class="st15" d="M167.8,74.8v1C167.8,75.8,167.8,75.4,167.8,74.8z M133,19.9c22.7,19.5,24.2,50.6,24.3,56.5v-6.9
				C159,36.5,133,19.9,133,19.9z M55.2,48.3C74.6,26.6,117,10,117,10s-33.1,9.2-60.9,33.7c-1.9,1.7-3.6,3.3-5.2,4.9
				c7.1-8.9,19.5-20.9,40.5-31.5c0,0-37.7,16.5-49.3,42c-4.4,8.6-2.9,18.4-3.9,16.1c1.5,2.1,3.4,4.1,5.5,6.7l2.2,1.8
				C45.9,83.7,35.8,69.9,55.2,48.3z M125,44.1c-3.3-7.4-8.3-9.7-9.7-10.3c4.5-9.8,6.6-17.6,6.6-17.6C107.3,45.4,92.3,44.5,69.8,57
				c-8.5,4.7-13.1,9-15.5,12.5c1.1-4.7,5.3-13.7,19.9-25c22.1-17.1,43.3-29.2,43.3-29.2S70,36.8,54.3,62.9c3.3-7,11.5-19.4,31-32.5
				c0,0-32.8,16.8-35.4,43.3c-0.8,3.7-0.8,7.4,0.1,11.1c0.1-1.2,0.2-2.3,0.4-3.6c1.8-10.8,13.2-20,33.6-27.1
				c15.7-5.5,24.8-12.7,28.1-15.7c12,4.2,12.1,14.5,18.6,23.6c3,4.2,6.6,7.1,9.6,9C128.5,61.5,128.7,52.4,125,44.1z M144.4,59.7
				c-1.7-4.5-3.9-8.6-6.2-11.9c-6.2-8.7-14.6-19.6-14.6-19.6s6.6,12.5,13.2,23.7c6.6,11.2,7.1,22.1,7.1,22.1l0,0.7
				c0.7,2.3,0.9,4.6,0.8,6.9c2-3.7,2.5-8,2-12.3l1.1,4.7c2.2-28.7-22.1-54.6-22.1-54.6C136,31.3,142,50.5,144.4,59.7z"/>
		</g>
	</g>
	<g>
		<path class="st9" d="M115.7,335.6H40.1c-2.6,0-4.9-1.8-5.5-4.4l-20.5-93.8c-0.8-3.5,1.9-6.8,5.5-6.8h75.5c2.6,0,4.9,1.8,5.5,4.4
			l20.5,93.8C121.9,332.2,119.3,335.6,115.7,335.6z"/>
		<path class="st16" d="M111,335.6H40.1c-2.6,0-4.9-1.8-5.5-4.4l-20.5-93.8c-0.8-3.5,1.9-6.8,5.5-6.8h70.9c2.6,0,4.9,1.8,5.5,4.4
			l20.5,93.8C117.3,332.2,114.6,335.6,111,335.6z"/>
		<path class="st17" d="M71.2,274.1c0,3.7-5.7,6.8-12.7,6.8c-7,0-12.7-3-12.7-6.8c0-3.7,5.7-6.8,12.7-6.8
			C65.5,267.3,71.2,270.4,71.2,274.1z"/>
		<g>
			<path class="st2" d="M50.6,280.4c-0.4,0.4-3.3,3.3-5.3,4c0.7,0.3,1.2,0.7,1.6,1.3c0,0,0.7,1.8-0.4,2.5c-0.9,0.5-5.9,2.1-8.3,2.8
				c1.6,1.2,1.2,2.6,0.6,2.6c-0.9,0.1-7.9,2.2-9.2,2.4c-0.8,0.2-2.3,0.4-4.4,0.4h-0.1c-3.1-0.3-4.8-2.3-4.8-2.3s-2.3-0.4-3.4-1.4
				s-1.3-4.3-1.3-4.3s-1.8-1.1-2.4-3.4c-0.5-2.3,0.6-5.4,0.6-5.4s-1.9-1.5-2.3-2.7c-0.3-1-0.8-4.4,1.9-9.1c3-5.2,6.1-6.8,6.1-6.8
				l2.2,9.8l1.9,0.7l8.5-0.5c0,0,8.5-5.3,10.5-1.2c0,0,0.5,1.5-0.4,2.3c-1.2,1.2-7.7,5.8-8.9,6.1l4.3,0.2c0,0,11.3-4.5,13.4-0.9
				C51.1,277.6,51.9,279,50.6,280.4z"/>
			<g>
				<g>
					<path class="st4" d="M33.4,278.4c0,0-0.2,0.1-0.6,0.4c-0.4,0.2-0.9,0.6-1.6,0.9c-0.7,0.3-1.7,0.4-2.6,0.5c-0.9,0.1-2,0.2-3,0.2
						c-2,0.1-4.1-0.1-5.6-0.2c-1.5-0.2-2.5-0.4-2.5-0.4s1,0,2.5,0.1c1.5,0,3.5,0.1,5.6,0c1,0,2-0.1,3-0.2c1-0.1,1.8,0,2.5-0.3
						C32.5,278.9,33.4,278.4,33.4,278.4z"/>
				</g>
			</g>
			<g>
				<g>
					<path class="st4" d="M45.3,284.4c0,0-1.5,0.5-3.8,1.2c-1.1,0.4-2.5,0.8-3.9,1.2c-0.8,0.2-1.5,0.2-2.3,0.3
						c-0.8,0.1-1.6,0.2-2.4,0.2c-6.4,0.5-12.8,0.4-12.8,0.4s6.4-0.5,12.8-0.9c1.6-0.1,3.2-0.2,4.6-0.5c1.5-0.3,2.8-0.7,4-0.9
						C43.8,284.8,45.3,284.4,45.3,284.4z"/>
				</g>
			</g>
			<g>
				<g>
					<path class="st4" d="M23.5,293.5c0,0,1.2-0.1,3.1-0.3c0.9-0.1,2-0.2,3.1-0.4c1.1-0.3,2.3-0.6,3.5-0.9c4.8-1.3,9.6-2.4,9.6-2.4
						s-4.7,1.6-9.5,2.9c-1.2,0.3-2.4,0.7-3.5,0.9c-1.2,0.2-2.2,0.3-3.2,0.3c-0.9,0-1.7,0-2.2,0C23.8,293.6,23.5,293.5,23.5,293.5z"
						/>
				</g>
			</g>
		</g>
	</g>
</g>
</svg>
