<?xml version="1.0" encoding="UTF-8" standalone="no"?>
<!DOCTYPE svg PUBLIC "-//W3C//DTD SVG 1.1//EN" "http://www.w3.org/Graphics/SVG/1.1/DTD/svg11.dtd">
<svg width="100%" height="100%" viewBox="0 0 200 300" version="1.1" xmlns="http://www.w3.org/2000/svg" xmlns:xlink="http://www.w3.org/1999/xlink" xml:space="preserve" xmlns:serif="http://www.serif.com/" style="fill-rule:evenodd;clip-rule:evenodd;stroke-linejoin:round;stroke-miterlimit:2;">
    <g transform="matrix(-0.0428177,-0.999083,0.999083,-0.0428177,-37.1741,254.967)">
        <rect x="-40.1" y="57" width="272.1" height="172.9" style="fill-opacity:0.1;"/>
    </g>
    <g transform="matrix(0.999083,-0.0428177,0.0428177,0.999083,-635.136,-140.042)">
        <g transform="matrix(1,0,0,1,0,176.75)">
            <g>
                <g transform="matrix(6.12323e-17,-1,1,6.12323e-17,576.5,863.5)">
                    <rect x="583.9" y="57" width="272.1" height="172.9" style="fill:white;"/>
                </g>
                <path d="M806.5,110.4L806.5,37.2L721.6,77.4L806.5,110.4Z" style="fill:rgb(197,41,40);fill-rule:nonzero;"/>
                <path d="M806.5,58.3L633.5,125.6L633.5,7.4L806.5,7.4L806.5,58.3Z" style="fill:rgb(229,58,53);fill-rule:nonzero;"/>
                <path d="M739.5,84.4L751.2,89L806.5,58.3L739.5,84.4Z" style="fill:rgb(33,33,33);fill-opacity:0.2;fill-rule:nonzero;"/>
                <path d="M633.5,260.6L806.5,218.5L806.5,279.6L633.5,279.6L633.5,260.6Z" style="fill:rgb(229,58,53);fill-rule:nonzero;"/>
                <path d="M633.5,231.7L633.5,260.6L692.8,246.1L633.5,231.7Z" style="fill:rgb(197,41,40);fill-rule:nonzero;"/>
                <path d="M681.8,243.4L633.5,260.6L692.8,246.1L681.8,243.4Z" style="fill:rgb(33,33,33);fill-opacity:0.2;fill-rule:nonzero;"/>
            </g>
            <g transform="matrix(0.9926,-0.1213,0.1213,0.9926,-7.1102,88.0774)">
                <circle cx="720" cy="102.4" r="45.5" style="fill:white;"/>
            </g>
            <g>
                <path d="M687.7,32C687.7,33.3 686.6,34.3 685.3,34.3L643.2,34.6C641.9,34.6 640.9,33.7 640.7,32.4L638.3,15.1C638.2,14.4 638.4,13.7 638.8,13.2C639.2,12.7 639.9,12.4 640.6,12.4L685.6,12.1C686.3,12.1 686.9,12.4 687.4,12.9C687.9,13.4 688.1,14.1 688.1,14.7L687.7,32Z" style="fill:rgb(255,248,220);fill-rule:nonzero;"/>
                <g>
                    <path d="M651.5,30.2C651.1,30.2 650.7,29.9 650.7,29.5C650.6,28.3 650.7,23.5 650.7,20.8L650.7,19.7C650.7,19.3 651.1,18.9 651.5,18.9C652,18.9 652.3,19.2 652.3,19.6L652.3,20.7C652.3,23.3 652.2,28.1 652.2,29.3C652.3,29.8 652,30.1 651.5,30.2Z" style="fill:rgb(102,71,38);fill-rule:nonzero;"/>
                    <path d="M648.8,20.5L647.7,20.5C647.2,20.5 646.9,20.1 646.9,19.7C646.9,19.3 647.4,18.9 647.8,19C648,19 649.7,19 651.4,18.9C653.3,18.9 655.2,18.8 655.3,18.8C655.8,18.8 656.1,19.2 656.1,19.6C656.1,20 655.7,20.3 655.2,20.3C655,20.3 653.2,20.3 651.4,20.4C650.4,20.5 649.5,20.5 648.8,20.5Z" style="fill:rgb(102,71,38);fill-rule:nonzero;"/>
                    <path d="M658.5,30.1C658.5,30.1 658.4,30.1 658.5,30.1C658,30.1 657.6,29.7 657.7,29.3C657.7,29 658.7,22.4 660.1,19.3C660.3,18.9 660.8,18.7 661.2,18.9C661.6,19 661.8,19.5 661.6,19.9C660.3,22.8 659.4,29.4 659.4,29.5C659.3,29.8 658.9,30.1 658.5,30.1Z" style="fill:rgb(102,71,38);fill-rule:nonzero;"/>
                    <path d="M663.6,30C663.2,30 662.8,29.7 662.8,29.4C662.8,29.3 662,23.7 660,20C659.8,19.6 660,19.2 660.4,19C660.8,18.8 661.3,19 661.5,19.3C663.6,23.3 664.4,29 664.4,29.2C664.5,29.6 664.1,30 663.7,30.1C663.7,30 663.7,30 663.6,30Z" style="fill:rgb(102,71,38);fill-rule:nonzero;"/>
                    <path d="M659.3,26.5C658.9,26.5 658.5,26.2 658.5,25.8C658.5,25.4 658.9,25 659.3,25L662.8,24.9C663.2,24.9 663.6,25.2 663.6,25.6C663.6,26 663.2,26.4 662.8,26.4L659.3,26.5Z" style="fill:rgb(102,71,38);fill-rule:nonzero;"/>
                    <path d="M673.7,29.8C673.4,29.8 673.1,29.6 672.9,29.3C672.2,27.6 671.1,25.8 670.1,24.1C669.2,22.6 668.4,21.1 667.7,19.6C667.5,19.2 667.7,18.8 668.1,18.6C668.5,18.4 669,18.6 669.2,19C669.9,20.4 670.7,21.9 671.6,23.3C672.6,25 673.7,26.8 674.4,28.6C674.6,29 674.4,29.4 673.9,29.6C674,29.8 673.8,29.8 673.7,29.8Z" style="fill:rgb(102,71,38);fill-rule:nonzero;"/>
                    <path d="M668.5,29.9C668.4,29.9 668.2,29.9 668.1,29.8C667.7,29.6 667.5,29.2 667.8,28.8C667.8,28.7 671.6,22.2 673.1,19C673.3,18.6 673.8,18.4 674.2,18.6C674.6,18.8 674.8,19.2 674.6,19.6C673,22.9 669.4,29.2 669.2,29.5C669,29.8 668.8,29.9 668.5,29.9Z" style="fill:rgb(102,71,38);fill-rule:nonzero;"/>
                    <path d="M679,29.8C678.5,29.8 678.2,29.5 678.2,29.1L678.3,19.4C678.3,19 678.7,18.6 679.1,18.6C679.6,18.6 679.9,18.9 679.9,19.3L679.8,29C679.9,29.4 679.5,29.7 679,29.8Z" style="fill:rgb(102,71,38);fill-rule:nonzero;"/>
                    <path d="M680.1,16.8C680.1,17.3 679.7,17.7 679.2,17.7C678.7,17.7 678.4,17.3 678.4,16.9C678.4,16.4 678.8,16 679.3,16C679.7,16 680.1,16.4 680.1,16.8Z" style="fill:rgb(102,71,38);fill-rule:nonzero;"/>
                </g>
            </g>
            <g>
                <clipPath id="_clip1">
                    <path d="M714.464,57.22C739.39,54.174 762.1,71.938 765.146,96.864C768.192,121.791 750.428,144.501 725.502,147.547C700.576,150.593 677.866,132.829 674.82,107.903C671.774,82.976 689.537,60.266 714.464,57.22Z"/>
                </clipPath>
                <g clip-path="url(#_clip1)">
                    <g>
                        <path id="Neck_4_" d="M714,122.6L714,129L717.6,130.3C719.3,130.9 721.2,130.9 722.9,130.3L726.5,129L726.5,122.6L714,122.6Z" style="fill:rgb(199,131,90);fill-rule:nonzero;"/>
                        <path id="Hand_3_" d="M700.7,131.5C699.1,132.1 697.8,133.4 696.7,138C695.4,144.5 694.5,149.2 693.9,151.9C696.2,156.8 697.7,161.3 699,165.3C699.5,167 698.9,169.9 698.4,171.6L705.1,154.8C705.1,155 708,134.2 700.7,131.5Z" style="fill:rgb(34,47,73);fill-rule:nonzero;"/>
                        <g id="Hand_x5F_R_3_">
                            <path d="M742.7,198.8L739,198.8L739.1,200.1L738.1,202.8C738.1,202.8 738.2,208.8 739.2,208.6C741,208.3 739.2,204.5 739.7,204.6C740.3,204.7 740.9,208.3 740.9,208.3C740.9,208.3 738.4,212.2 740.5,213.3C740.5,213.3 744,209.1 744.1,207L742.5,200.4L742.7,198.8Z" style="fill:rgb(199,131,90);fill-rule:nonzero;"/>
                            <path d="M735.3,155C735.3,155 732.3,134.2 739.7,131.6C741.3,132.2 742.6,133.5 743.7,138.1C747,158 745.4,199.6 745.4,199.6C742.6,200.8 738.1,199.9 738.1,199.9L735.3,155Z" style="fill:rgb(34,47,73);fill-rule:nonzero;"/>
                        </g>
                        <g id="Shirt_4_">
                            <path d="M727.4,127.3L726.4,125L720.2,130.6L714,125L712.9,127.3L714.4,196.5L725.9,196.5L727.4,127.3Z" style="fill:rgb(255,188,0);fill-rule:nonzero;"/>
                            <g>
                                <path d="M724.7,128.1C724,128.1 720.2,130.6 720.2,130.6C720.1,130.5 716.4,128 715.7,128.1C714.9,128.1 713.4,130.6 713.4,130.6C713.4,130.6 715,128.8 715.7,128.9C716.2,128.9 719.1,130.2 720,130.6L720,196.6L720.2,196.6L720.2,130.7C720.2,130.7 724.2,128.9 724.8,128.9C725.4,128.9 727.1,130.6 727.1,130.6C727.1,130.6 725.5,128.1 724.7,128.1Z" style="fill:rgb(183,136,19);fill-rule:nonzero;"/>
                                <path d="M721.6,131.6C721.6,131.9 721.3,132.2 721,132.2C720.7,132.2 720.4,131.9 720.4,131.6C720.4,131.3 720.7,131 721,131C721.3,131 721.6,131.3 721.6,131.6Z" style="fill:rgb(183,136,19);fill-rule:nonzero;"/>
                            </g>
                        </g>
                        <g>
                            <path d="M717.1,152.1C717.1,152.1 716.9,149.6 716.7,148.4L712.9,127.4L700.7,131.7C698.8,132.3 703,152.4 703,152.4C703.7,155.1 704.7,165.7 705.2,168.1L704.9,200.7C704.9,200.7 715.3,201.6 717.1,199.7L717.1,152.1Z" style="fill:rgb(50,67,107);fill-rule:nonzero;"/>
                            <path d="M739.6,131.5L727.4,127.2L723.6,148.2C723.4,149.5 723.2,151.9 723.2,151.9L723.2,199.5C725.3,201 735.4,200.3 735.4,200.3L735.1,167.7C735.6,165.3 736.6,154.7 737.3,152C737.3,152.2 741.5,132.1 739.6,131.5Z" style="fill:rgb(50,67,107);fill-rule:nonzero;"/>
                        </g>
                        <g>
                            <circle cx="725.3" cy="169.3" r="1" style="fill:rgb(34,47,73);"/>
                            <g transform="matrix(0.026539,-0.9996,0.9996,0.026539,529.773,896.673)">
                                <circle cx="725.3" cy="176.3" r="1" style="fill:rgb(34,47,73);"/>
                            </g>
                            <path d="M726.2,183.4C726.2,183.9 725.8,184.4 725.2,184.4C724.7,184.4 724.2,184 724.2,183.4C724.2,182.8 724.6,182.4 725.2,182.4C725.8,182.4 726.2,182.9 726.2,183.4Z" style="fill:rgb(34,47,73);fill-rule:nonzero;"/>
                            <path d="M726.2,190.5C726.2,191 725.8,191.5 725.2,191.5C724.7,191.5 724.2,191.1 724.2,190.5C724.2,190 724.6,189.5 725.2,189.5C725.8,189.5 726.2,189.9 726.2,190.5Z" style="fill:rgb(34,47,73);fill-rule:nonzero;"/>
                            <path d="M712.9,127.3L707,129.4C707.1,132.1 707.5,136 708.8,140.5L713.2,141.3L709.9,143.8C711,146.7 714.5,157.6 717.1,165.7L717.1,152.2C717.1,152.2 716.9,149.7 716.7,148.5L712.9,127.3Z" style="fill:rgb(34,47,73);fill-rule:nonzero;"/>
                            <path d="M727.4,127.3L723.6,148.3C723.4,149.6 723.2,152 723.2,152L723.2,164.9C725.8,156.6 728.8,147 730.1,143.3L727.1,141.1L730.9,140.4C732.1,135.9 732.5,131.8 732.7,129.1L731,128.5L727.4,127.3Z" style="fill:rgb(34,47,73);fill-rule:nonzero;"/>
                        </g>
                        <g id="Face_x5F_02_4_">
                            <path id="Face_3_" d="M723.2,75.3L717.1,75.3C710.4,75.3 704.8,81.6 704.8,89.2L704.8,110.3C704.8,113.2 709.2,116.7 713.9,119.5L713.9,124.7L726.3,124.7L726.3,119.5C730.9,116.7 735.4,113.2 735.4,110.4L735.4,89.2C735.5,81.5 729.9,75.3 723.2,75.3Z" style="fill:rgb(199,131,90);fill-rule:nonzero;"/>
                            <path id="Shadow_3_" d="M720.2,121.6C718.3,121.6 716.1,120.8 714,119.5L714,122C716.2,123.3 718.3,124.1 720.2,124.1C722,124.1 724.2,123.3 726.4,122L726.4,119.5C724.2,120.7 722,121.6 720.2,121.6Z" style="fill:rgb(147,91,63);fill-rule:nonzero;"/>
                            <path id="Mustache_3_" d="M735.3,102.2L734.8,99.9C734.8,99.9 734.6,110.4 734,111.1C733.7,111.5 732.1,112.5 730.8,113.2C728.8,110.2 724.8,108.2 720.2,108.2C715.6,108.2 711.6,110.2 709.6,113.2C708.3,112.4 706.7,111.5 706.4,111.1C705.8,110.4 705.6,99.9 705.6,99.9L705.1,102.2L705,102.2L705,114.8C705,116.4 713.7,122.1 720.3,122.1C726.9,122.1 735.6,116.4 735.6,114.8L735.6,102.2L735.3,102.2Z" style="fill:rgb(29,30,33);fill-rule:nonzero;"/>
                            <g id="Hat_3_">
                                <path d="M743,84.7C743,72.1 732.8,61.9 720.2,61.9C707.6,61.9 697.4,72.1 697.4,84.7C697.4,91.4 700.3,95.4 704.9,102.6C704.9,102.6 713.1,88.5 719.9,79.3C726.8,88.3 735.5,102.6 735.5,102.6C735.5,102.6 743,91.4 743,84.7Z" style="fill:rgb(255,188,0);fill-rule:nonzero;"/>
                                <path d="M743,84.7C743,77.1 739.3,70.3 733.5,66.2C725.4,72.8 719.9,79.2 719.9,79.2C726.8,88.2 735.5,102.5 735.5,102.5C735.5,102.5 743,91.4 743,84.7Z" style="fill:rgb(239,161,24);fill-rule:nonzero;"/>
                                <path d="M725.7,73.2C722.1,76.7 719.9,79.3 719.9,79.3C726.8,88.3 735.5,102.6 735.5,102.6C735.5,102.6 739,85.6 725.7,73.2Z" style="fill:rgb(229,137,5);fill-rule:nonzero;"/>
                            </g>
                        </g>
                    </g>
                </g>
            </g>
        </g>
        <g transform="matrix(0.767249,0,0,1,629.719,136.313)">
            <rect x="24.198" y="205.586" width="57.953" height="12.351" style="fill:rgb(197,41,40);"/>
        </g>
        <g transform="matrix(1.60621,0,0,0.748586,659.764,189.552)">
            <rect x="24.198" y="205.586" width="57.953" height="12.351" style="fill:rgb(180,180,180);"/>
        </g>
        <g transform="matrix(0.767249,0,0,1,629.719,160.664)">
            <rect x="24.198" y="205.586" width="57.953" height="12.351" style="fill:rgb(197,41,40);"/>
        </g>
        <g transform="matrix(1.60621,0,0,0.691329,659.764,226.028)">
            <rect x="24.198" y="205.586" width="57.953" height="12.351" style="fill:rgb(180,180,180);"/>
        </g>
    </g>
</svg>
