<?xml version="1.0" encoding="UTF-8" standalone="no"?>
<!DOCTYPE svg PUBLIC "-//W3C//DTD SVG 1.1//EN" "http://www.w3.org/Graphics/SVG/1.1/DTD/svg11.dtd">
<svg width="100%" height="100%" viewBox="0 0 200 300" version="1.1" xmlns="http://www.w3.org/2000/svg" xmlns:xlink="http://www.w3.org/1999/xlink" xml:space="preserve" xmlns:serif="http://www.serif.com/" style="fill-rule:evenodd;clip-rule:evenodd;stroke-linejoin:round;stroke-miterlimit:2;">
    <g transform="matrix(-0.0428177,-0.999083,0.999083,-0.0428177,-37.1741,254.967)">
        <rect x="-40.1" y="57" width="272.1" height="172.9" style="fill-opacity:0.1;"/>
    </g>
    <g transform="matrix(0.999083,-0.0428177,0.0428177,0.999083,-219.517,-157.854)">
        <g transform="matrix(1,0,0,1,0,176.75)">
            <g>
                <g transform="matrix(6.12323e-17,-1,1,6.12323e-17,160.5,447.5)">
                    <rect x="167.9" y="57" width="272.1" height="172.9" style="fill:white;"/>
                </g>
                <path d="M390.5,110.4L390.5,37.2L305.6,77.4L390.5,110.4Z" style="fill:rgb(91,165,69);fill-rule:nonzero;"/>
                <path d="M390.5,58.3L217.5,125.6L217.5,7.4L390.5,7.4L390.5,58.3Z" style="fill:rgb(165,206,50);fill-rule:nonzero;"/>
                <path d="M323.5,84.4L335.2,89L390.5,58.3L323.5,84.4Z" style="fill:rgb(33,33,33);fill-opacity:0.2;fill-rule:nonzero;"/>
                <path d="M217.5,260.6L390.5,218.5L390.5,279.6L217.5,279.6L217.5,260.6Z" style="fill:rgb(165,206,50);fill-rule:nonzero;"/>
                <path d="M217.5,231.7L217.5,260.6L276.8,246.1L217.5,231.7Z" style="fill:rgb(91,165,69);fill-rule:nonzero;"/>
                <path d="M265.8,243.4L217.5,260.6L276.8,246.1L265.8,243.4Z" style="fill:rgb(33,33,33);fill-opacity:0.2;fill-rule:nonzero;"/>
            </g>
            <g transform="matrix(0.9926,-0.1213,0.1213,0.9926,-10.181,37.6252)">
                <circle cx="304" cy="102.4" r="45.5" style="fill:white;"/>
            </g>
            <g>
                <path d="M271.7,32C271.7,33.3 270.6,34.3 269.3,34.3L227.2,34.6C225.9,34.6 224.9,33.7 224.7,32.4L222.3,15.1C222.2,14.4 222.4,13.7 222.8,13.2C223.2,12.7 223.9,12.4 224.6,12.4L269.6,12.1C270.3,12.1 270.9,12.4 271.4,12.9C271.9,13.4 272.1,14.1 272.1,14.7L271.7,32Z" style="fill:rgb(255,248,220);fill-rule:nonzero;"/>
                <g>
                    <path d="M235.5,30.2C235.1,30.2 234.7,29.9 234.7,29.5C234.6,28.3 234.7,23.5 234.7,20.8L234.7,19.7C234.7,19.3 235.1,18.9 235.5,18.9C236,18.9 236.3,19.2 236.3,19.6L236.3,20.7C236.3,23.3 236.2,28.1 236.2,29.3C236.3,29.8 236,30.1 235.5,30.2Z" style="fill:rgb(102,71,38);fill-rule:nonzero;"/>
                    <path d="M232.8,20.5L231.7,20.5C231.2,20.5 230.9,20.1 230.9,19.7C230.9,19.3 231.4,18.9 231.8,19C232,19 233.7,19 235.4,18.9C237.3,18.9 239.2,18.8 239.3,18.8C239.8,18.8 240.1,19.2 240.1,19.6C240.1,20 239.7,20.3 239.2,20.3C239,20.3 237.2,20.3 235.4,20.4C234.4,20.5 233.5,20.5 232.8,20.5Z" style="fill:rgb(102,71,38);fill-rule:nonzero;"/>
                    <path d="M242.5,30.1C242.5,30.1 242.4,30.1 242.5,30.1C242,30.1 241.6,29.7 241.7,29.3C241.7,29 242.7,22.4 244.1,19.3C244.3,18.9 244.8,18.7 245.2,18.9C245.6,19 245.8,19.5 245.6,19.9C244.3,22.8 243.4,29.4 243.4,29.5C243.3,29.8 242.9,30.1 242.5,30.1Z" style="fill:rgb(102,71,38);fill-rule:nonzero;"/>
                    <path d="M247.6,30C247.2,30 246.8,29.7 246.8,29.4C246.8,29.3 246,23.7 244,20C243.8,19.6 244,19.2 244.4,19C244.8,18.8 245.3,19 245.5,19.3C247.6,23.3 248.4,29 248.4,29.2C248.5,29.6 248.1,30 247.7,30.1C247.7,30 247.7,30 247.6,30Z" style="fill:rgb(102,71,38);fill-rule:nonzero;"/>
                    <path d="M243.3,26.5C242.9,26.5 242.5,26.2 242.5,25.8C242.5,25.4 242.9,25 243.3,25L246.8,24.9C247.2,24.9 247.6,25.2 247.6,25.6C247.6,26 247.2,26.4 246.8,26.4L243.3,26.5Z" style="fill:rgb(102,71,38);fill-rule:nonzero;"/>
                    <path d="M257.7,29.8C257.4,29.8 257.1,29.6 256.9,29.3C256.2,27.6 255.1,25.8 254.1,24.1C253.2,22.6 252.4,21.1 251.7,19.6C251.5,19.2 251.7,18.8 252.1,18.6C252.5,18.4 253,18.6 253.2,19C253.9,20.4 254.7,21.9 255.6,23.3C256.6,25 257.7,26.8 258.4,28.6C258.6,29 258.4,29.4 257.9,29.6C258,29.8 257.8,29.8 257.7,29.8Z" style="fill:rgb(102,71,38);fill-rule:nonzero;"/>
                    <path d="M252.5,29.9C252.4,29.9 252.2,29.9 252.1,29.8C251.7,29.6 251.5,29.2 251.8,28.8C251.8,28.7 255.6,22.2 257.1,19C257.3,18.6 257.8,18.4 258.2,18.6C258.6,18.8 258.8,19.2 258.6,19.6C257,22.9 253.4,29.2 253.2,29.5C253,29.8 252.8,29.9 252.5,29.9Z" style="fill:rgb(102,71,38);fill-rule:nonzero;"/>
                    <path d="M263,29.8C262.5,29.8 262.2,29.5 262.2,29.1L262.3,19.4C262.3,19 262.7,18.6 263.1,18.6C263.6,18.6 263.9,18.9 263.9,19.3L263.8,29C263.9,29.4 263.5,29.7 263,29.8Z" style="fill:rgb(102,71,38);fill-rule:nonzero;"/>
                    <path d="M264.1,16.8C264.1,17.3 263.7,17.7 263.2,17.7C262.7,17.7 262.4,17.3 262.4,16.9C262.4,16.4 262.8,16 263.3,16C263.7,16 264.1,16.4 264.1,16.8Z" style="fill:rgb(102,71,38);fill-rule:nonzero;"/>
                </g>
            </g>
            <g>
                <clipPath id="_clip1">
                    <path d="M298.471,57.229C323.398,54.183 346.108,71.947 349.154,96.873C352.2,121.799 334.436,144.509 309.51,147.556C284.583,150.602 261.873,132.838 258.827,107.911C255.781,82.985 273.545,60.275 298.471,57.229Z"/>
                </clipPath>
                <g clip-path="url(#_clip1)">
                    <g>
                        <path id="Neck_1_" d="M298,122.6L298,129L301.6,130.3C303.3,130.9 305.2,130.9 306.9,130.3L310.5,129L310.5,122.6L298,122.6Z" style="fill:rgb(199,131,90);fill-rule:nonzero;"/>
                        <path id="Hand_1_" d="M284.7,131.5C283.1,132.1 281.8,133.4 280.7,138C279.4,144.5 278.5,149.2 277.9,151.9C280.2,156.8 281.7,161.3 283,165.3C283.5,167 282.9,169.9 282.4,171.6L289.1,154.8C289.1,155 292,134.2 284.7,131.5Z" style="fill:rgb(34,47,73);fill-rule:nonzero;"/>
                        <g id="Hand_x5F_R_1_">
                            <path d="M326.7,198.8L323,198.8L323.1,200.1L322.1,202.8C322.1,202.8 322.2,208.8 323.2,208.6C325,208.3 323.2,204.5 323.7,204.6C324.3,204.7 324.9,208.3 324.9,208.3C324.9,208.3 322.4,212.2 324.5,213.3C324.5,213.3 328,209.1 328.1,207L326.5,200.4L326.7,198.8Z" style="fill:rgb(199,131,90);fill-rule:nonzero;"/>
                            <path d="M319.3,155C319.3,155 316.3,134.2 323.7,131.6C325.3,132.2 326.6,133.5 327.7,138.1C331,158 329.4,199.6 329.4,199.6C326.6,200.8 322.1,199.9 322.1,199.9L319.3,155Z" style="fill:rgb(34,47,73);fill-rule:nonzero;"/>
                        </g>
                        <g id="Shirt_1_">
                            <path d="M311.4,127.3L310.4,125L304.2,130.6L298,125L296.9,127.3L298.4,196.5L309.9,196.5L311.4,127.3Z" style="fill:rgb(255,188,0);fill-rule:nonzero;"/>
                            <g>
                                <path d="M308.7,128.1C308,128.1 304.2,130.6 304.2,130.6C304.1,130.5 300.4,128 299.7,128.1C298.9,128.1 297.4,130.6 297.4,130.6C297.4,130.6 299,128.8 299.7,128.9C300.2,128.9 303.1,130.2 304,130.6L304,196.6L304.2,196.6L304.2,130.7C304.2,130.7 308.2,128.9 308.8,128.9C309.4,128.9 311.1,130.6 311.1,130.6C311.1,130.6 309.5,128.1 308.7,128.1Z" style="fill:rgb(183,136,19);fill-rule:nonzero;"/>
                                <path d="M305.6,131.6C305.6,131.9 305.3,132.2 305,132.2C304.7,132.2 304.4,131.9 304.4,131.6C304.4,131.3 304.7,131 305,131C305.3,131 305.6,131.3 305.6,131.6Z" style="fill:rgb(183,136,19);fill-rule:nonzero;"/>
                            </g>
                        </g>
                        <g>
                            <path d="M301.1,152.1C301.1,152.1 300.9,149.6 300.7,148.4L296.9,127.4L284.7,131.7C282.8,132.3 287,152.4 287,152.4C287.7,155.1 288.7,165.7 289.2,168.1L288.9,200.7C288.9,200.7 299.3,201.6 301.1,199.7L301.1,152.1Z" style="fill:rgb(50,67,107);fill-rule:nonzero;"/>
                            <path d="M323.6,131.5L311.4,127.2L307.6,148.2C307.4,149.5 307.2,151.9 307.2,151.9L307.2,199.5C309.3,201 319.4,200.3 319.4,200.3L319.1,167.7C319.6,165.3 320.6,154.7 321.3,152C321.3,152.2 325.5,132.1 323.6,131.5Z" style="fill:rgb(50,67,107);fill-rule:nonzero;"/>
                        </g>
                        <g>
                            <circle cx="309.3" cy="169.3" r="1" style="fill:rgb(34,47,73);"/>
                            <g transform="matrix(0.026539,-0.9996,0.9996,0.026539,124.814,480.82)">
                                <circle cx="309.3" cy="176.3" r="1" style="fill:rgb(34,47,73);"/>
                            </g>
                            <path d="M310.2,183.4C310.2,183.9 309.8,184.4 309.2,184.4C308.7,184.4 308.2,184 308.2,183.4C308.2,182.8 308.6,182.4 309.2,182.4C309.8,182.4 310.2,182.9 310.2,183.4Z" style="fill:rgb(34,47,73);fill-rule:nonzero;"/>
                            <path d="M310.2,190.5C310.2,191 309.8,191.5 309.2,191.5C308.7,191.5 308.2,191.1 308.2,190.5C308.2,190 308.6,189.5 309.2,189.5C309.8,189.5 310.2,189.9 310.2,190.5Z" style="fill:rgb(34,47,73);fill-rule:nonzero;"/>
                            <path d="M296.9,127.3L291,129.4C291.1,132.1 291.5,136 292.8,140.5L297.2,141.3L293.9,143.8C295,146.7 298.5,157.6 301.1,165.7L301.1,152.2C301.1,152.2 300.9,149.7 300.7,148.5L296.9,127.3Z" style="fill:rgb(34,47,73);fill-rule:nonzero;"/>
                            <path d="M311.4,127.3L307.6,148.3C307.4,149.6 307.2,152 307.2,152L307.2,164.9C309.8,156.6 312.8,147 314.1,143.3L311.1,141.1L314.9,140.4C316.1,135.9 316.5,131.8 316.7,129.1L315,128.5L311.4,127.3Z" style="fill:rgb(34,47,73);fill-rule:nonzero;"/>
                        </g>
                        <g id="Face_x5F_02_1_">
                            <path id="Face_1_" d="M307.2,75.3L301.1,75.3C294.4,75.3 288.8,81.6 288.8,89.2L288.8,110.3C288.8,113.2 293.2,116.7 297.9,119.5L297.9,124.7L310.3,124.7L310.3,119.5C314.9,116.7 319.4,113.2 319.4,110.4L319.4,89.2C319.5,81.5 313.9,75.3 307.2,75.3Z" style="fill:rgb(199,131,90);fill-rule:nonzero;"/>
                            <path id="Shadow_1_" d="M304.2,121.6C302.3,121.6 300.1,120.8 298,119.5L298,122C300.2,123.3 302.3,124.1 304.2,124.1C306,124.1 308.2,123.3 310.4,122L310.4,119.5C308.2,120.7 306,121.6 304.2,121.6Z" style="fill:rgb(147,91,63);fill-rule:nonzero;"/>
                            <path id="Mustache_1_" d="M319.3,102.2L318.8,99.9C318.8,99.9 318.6,110.4 318,111.1C317.7,111.5 316.1,112.5 314.8,113.2C312.8,110.2 308.8,108.2 304.2,108.2C299.6,108.2 295.6,110.2 293.6,113.2C292.3,112.4 290.7,111.5 290.4,111.1C289.8,110.4 289.6,99.9 289.6,99.9L289.1,102.2L289,102.2L289,114.8C289,116.4 297.7,122.1 304.3,122.1C310.9,122.1 319.6,116.4 319.6,114.8L319.6,102.2L319.3,102.2Z" style="fill:rgb(29,30,33);fill-rule:nonzero;"/>
                            <g id="Hat_1_">
                                <path d="M327,84.7C327,72.1 316.8,61.9 304.2,61.9C291.6,61.9 281.4,72.1 281.4,84.7C281.4,91.4 284.3,95.4 288.9,102.6C288.9,102.6 297.1,88.5 303.9,79.3C310.8,88.3 319.5,102.6 319.5,102.6C319.5,102.6 327,91.4 327,84.7Z" style="fill:rgb(255,188,0);fill-rule:nonzero;"/>
                                <path d="M327,84.7C327,77.1 323.3,70.3 317.5,66.2C309.4,72.8 303.9,79.2 303.9,79.2C310.8,88.2 319.5,102.5 319.5,102.5C319.5,102.5 327,91.4 327,84.7Z" style="fill:rgb(239,161,24);fill-rule:nonzero;"/>
                                <path d="M309.7,73.2C306.1,76.7 303.9,79.3 303.9,79.3C310.8,88.3 319.5,102.6 319.5,102.6C319.5,102.6 323,85.6 309.7,73.2Z" style="fill:rgb(229,137,5);fill-rule:nonzero;"/>
                            </g>
                        </g>
                    </g>
                </g>
            </g>
        </g>
        <g transform="matrix(0.767249,0,0,1,213.719,136.313)">
            <rect x="24.198" y="205.586" width="57.953" height="12.351" style="fill:rgb(91,165,69);"/>
        </g>
        <g transform="matrix(1.60621,0,0,0.748586,243.764,189.552)">
            <rect x="24.198" y="205.586" width="57.953" height="12.351" style="fill:rgb(180,180,180);"/>
        </g>
        <g transform="matrix(0.767249,0,0,1,213.719,160.664)">
            <rect x="24.198" y="205.586" width="57.953" height="12.351" style="fill:rgb(91,165,69);"/>
        </g>
        <g transform="matrix(1.60621,0,0,0.691329,243.764,226.028)">
            <rect x="24.198" y="205.586" width="57.953" height="12.351" style="fill:rgb(180,180,180);"/>
        </g>
    </g>
</svg>
