<?xml version="1.0" encoding="utf-8"?>
<!-- Generator: Adobe Illustrator 24.3.0, SVG Export Plug-In . SVG Version: 6.00 Build 0)  -->
<svg version="1.1" id="Layer_1" xmlns="http://www.w3.org/2000/svg" xmlns:xlink="http://www.w3.org/1999/xlink" x="0px" y="0px"
	 viewBox="0 0 365.1 634.9" style="enable-background:new 0 0 365.1 634.9;" xml:space="preserve">
<style type="text/css">
	.st0{fill:#1A1A1A;}
	.st1{fill:#4D4D4D;}
	.st2{fill:#A36546;}
	.st3{fill:#270210;}
	.st4{fill:#9A6042;}
	.st5{fill:#AB6A4A;}
	.st6{opacity:0.28;fill:#7C2E2E;}
	.st7{opacity:0.59;fill:#BE8469;}
	.st8{fill:#CF2721;}
	.st9{fill:#FFFFFF;}
	.st10{fill:#333333;}
	.st11{fill:#4D4D4F;}
	.st12{fill:none;stroke:#F5D1BE;stroke-width:1.4408;stroke-miterlimit:10;}
	.st13{fill:#39170B;}
	.st14{fill:#390B1D;}
	.st15{opacity:0.29;fill:#813B3B;}
	.st16{fill:#F0F0F0;}
	.st17{fill:#CBCBCB;}
</style>
<g>
	<path class="st0" d="M315.6,947.3c0-29.1-10.2-104.5-14.9-124.7c-4.8-20.2-17.9-83.7-19.1-102.1c-1.2-18.4-1.2-27.9-18.5-96.2
		c-17.3-68.3-62.5-197.1-64.8-197.1c0.5-1.4-86.6-5.4-86.6-5.4c-1.6,1.7-3.3,3.5-5.1,5.4C88.7,446.7,69.8,490.6,65,528
		c-4.8,37.4,13.2,172.2,13.2,172.2S53.2,718,55,755.5c1.8,37.4,26.3,100.9,29.9,126.5c3.6,25.5-3,36.8-3,36.8l-11.3-1.2l5.4,12.5
		L52,949c0,0,9.6,13.7,9.6,21.4c0,7.7-2.4,45.7-2.4,45.7h7.2c0,0-0.6-44.5,4.2-46.3c4.8-1.8,11.9,13.1,13.1,21.4
		c1.2,8.3,3.6,26.7,3.6,26.7h34l1.2-8.3c0,0-9,0-13.1-3.6c-4.2-3.6,0-16,1.2-60c1.2-43.9-3.6-228-3.6-228l45-206.1
		c0,0,92,181.2,94.4,196.6c2.4,15.4-13.1,35-9.6,57.6c3.6,22.6,36.4,92.6,45.4,111c9,18.4,7.8,39.8,7.8,39.8l-11.3,1.2l6.6,13.1
		l-23.3,19c0,0,7.2,10.7,8.4,17.8c1.2,7.1,0,46.9,0,46.9h8.4c0,0-4.2-43.9,0-44.5c4.2-0.6,10.8,7.7,13.1,15.4
		c2.4,7.7,4.8,30.3,4.8,30.3h39.4v-6.5c0,0-14.9-0.6-21.5-7.7C307.9,994.8,315.6,976.4,315.6,947.3z"/>
	<g>
		<path class="st1" d="M110.5,946.1c1.2-43.9-3.6-228-3.6-228l45-206.1L98.5,716.9c0,0,4,238.3,3.2,258.1c-0.7,18-2,30.5-2,43h21.5
			l1.2-8.3c0,0-9,0-13.1-3.6C105.1,1002.5,109.3,990,110.5,946.1z"/>
		<path class="st1" d="M335.9,1009.6c-28.6,6.5-35.9-11.3-47.8-58.8c0.1-6.1,16.3-29.7,3.8-69.3c-16.8-53.4-55.6-112-44.4-136.2
			c8-17.3,10.8-35.6,4.4-51.5c-5.6-14-100-182-100-182c16.4,31.4,92.3,182.9,94.4,196.6c2.4,15.4-13.1,35-9.6,57.6
			c3.6,22.6,36.4,92.6,45.4,111c9,18.4,7.8,39.8,7.8,39.8l-11.3,1.2l6.6,13.1l-23.3,19c0,0,7.2,10.7,8.4,17.8c1.2,7.1,0,46.9,0,46.9
			h8.4c0,0-4.2-43.9,0-44.5c4.2-0.6,10.8,7.7,13.1,15.4c2.4,7.7,4.8,30.3,4.8,30.3h39.4C335.9,1016.1,333.5,1010.2,335.9,1009.6z"/>
	</g>
	<polygon class="st2" points="304.3,317.4 335.8,240.3 315.8,232.9 282.7,308.7 	"/>
	<path class="st2" d="M337.5,238.6c-6.6,4.9-5.2,9.2-14.4,7.6c-8.2-1.3-10.1-2-12.1-9.2c-1.4-4.9-2.2-28.7,1.4-32.5
		c2-2.1,3.9-2.7,5.5-5.2c1.2-2,2.3-4.5,2.5-6.8c0.1-2.4,1.6-5.2,4-5c0.9,0.1,5.3,2.5,2.6,14.5c-0.6,2.6,7.5-15.8,11.8-33.6
		c0.7-3,3.4-4.4,5.2,2.7c0.4,7.6-4.4,20.6-6.3,27.9c3.6,1.2,8.1,4.1,10,7.3c2.3,3.8,3.1,13.2,1.1,17.4
		C347.1,227.1,340.5,236.3,337.5,238.6z"/>
	<polygon class="st0" points="188.6,243.1 269.5,321.1 295.1,277.2 318.9,288.2 284.2,374.1 170.8,297.3 	"/>
	<path class="st3" d="M120.7,173.8c-11.9-5.9-31.2-73.6-26.7-81.4c0.7-1.3-18.9,6.3-19.3,13.9c-0.3,5.8-16,77.7-12.3,81.1
		c3.5,8.4,44.7,45.1,44.7,45.1c5.8,4.5,30.7,10.7,35.6-0.6C144,229,136.3,181.6,120.7,173.8z M211.5,214.6c0,0,2.4-100.9-17-122.2
		c-2.7,4-18.7,46.2-29.1,54.3c-8.4,25.8-18,86.8-0.6,101C171.3,251.7,217.2,228.7,211.5,214.6z"/>
	<path class="st0" d="M200.1,246.1c7.8,10.6,24.8,33.5,32.1,40.1c-6.3,29.6-37.8,37.5-37.8,37.5s2.8,76.9-0.8,102.7
		c0.1,0.2,1.9,1.7,5,4.3l-84.4-14.8c0.1-0.1,0.1-0.2,0.1-0.2s7.5-24.8,3.7-47.3c-3.8-22.5-38.1-81.4-38.1-81.4l-40.7,39.9l7,23
		l-12,6l-13-32c0,0,37.8-105.1,49.3-110.5c11.5-5.4,85-2.9,85-2.9l4.1,1.3L200.1,246.1z"/>
	<path class="st4" d="M159.6,171.1l-3,39.4c0,0,11.4,11.4-10.8,14.3c-29.6,3.8-25-11.1-25-11.1l0.1-41.5L159.6,171.1z"/>
	<path class="st5" d="M84.8,110.7c-14.5-24.9,1.6-72.3,50.6-73.8c49-1.5,68.1,44.8,55.2,70.5c0,0,11.8,7.2,7.9,33
		c-4.4,28.6-49,51.1-49,51.1s0,0,0,0c-2.8,2.4-5.9,3.8-9.1,3.9c-3.2,0.1-6.3-1.1-9.3-3.3c-1.1-0.5-46-20-52-47.9
		C73.5,118.6,84.8,110.7,84.8,110.7z"/>
	<path class="st6" d="M84.8,110.7c-14.5-24.9,1.6-72.3,50.6-73.8c49-1.5,68.1,44.8,55.2,70.5c0,0,11.8,7.2,7.9,33
		c-1.1,7.4-4.9,14.3-10,20.6c1.5-30.4-2-88.2-48.7-89.9c-46.6-1.6-49.8,61.7-48.4,94.3c-6-6.3-10.8-13.5-12.5-21.3
		C73.5,118.6,84.8,110.7,84.8,110.7z"/>
	<g>
		<path class="st7" d="M141.3,142.2c0.1-0.3,0.7-0.3,1.4-0.7c0.7-0.3,1.5-1.1,1.9-2.1c0.4-0.9,0.3-2.3-0.4-3.7
			c-0.6-1.4-1.7-2.8-2.9-4.5c-1.3-1.7-2.5-4-3-6.1c-0.5-2.2-0.5-4.3-0.2-6.1c0.7-3.5,2.5-5.3,3.5-4.8c1,0.5,0.7,2.5,0.9,5.2
			c0.1,1.3,0.3,2.9,0.7,4.4c0.5,1.6,1.2,2.9,2.2,4.6c1,1.7,2.3,3.7,2.9,6c0.6,2.3,0.3,4.9-1.2,6.7c-1.3,1.6-3.1,2.1-4.3,2
			C141.7,143,141.2,142.4,141.3,142.2z"/>
	</g>
	<g>
		<path class="st7" d="M135.4,142.8c-0.2,0.8-2.6,0.9-4.3-0.6c-1.7-1.5-2-4-0.3-4.3c1.6-0.3,2.4,0.8,3.1,1.8
			C134.6,140.8,135.6,142,135.4,142.8z"/>
	</g>
	<g>
		<path class="st8" d="M161.5,158.6c-9.4,1.7-14.2-3.3-21.8-3.1c-7.6,0.2-15.5,6-21,3.7c4.2,6.4,11,16.4,21.9,15.7
			C151.5,174.2,157.6,162,161.5,158.6z"/>
		<path class="st9" d="M155.4,161c-6.7,1.2-10.1-1-15.5-0.8c-5.4,0.2-11,2.9-15,1.2c3,4.5,7.9,11.4,15.6,10.9
			C148.3,171.9,152.7,163.4,155.4,161z"/>
	</g>
	<path class="st10" d="M232.2,286.1c-6.3,29.6-37.8,37.5-37.8,37.5s-22.9,12.5-46.9,4.8c-24-7.7-17.3,30.7-8.6,47.1
		c8.6,16.3,2.9,42.3,2.9,42.3l-26.1-7.1c2-8.4,5.1-25.9,2.4-42.2c-3.8-22.5-31.7-70.9-38.1-81.4c23.4,18.3,40.7-10.5,76.2,2.9
		c22.5,8.5,26.9,0,50.9-8.6C214.6,278.6,230.5,284.6,232.2,286.1z"/>
	<path class="st11" d="M118.4,394.7c26.8,10.1,57.2,6.1,77.6,1.2c1.3,13.2,2.9,33.1,2.9,34.6c-36.5,9.1-66.1,8.1-92-2.6
		C113.5,415.8,118.5,406.2,118.4,394.7z"/>
	<path class="st11" d="M116.4,317.6c0,0,23.9,11.8,50-0.4C151.1,338.7,127.1,332.5,116.4,317.6z"/>
	<g>
		<path class="st12" d="M51.9,119.2"/>
	</g>
	<path class="st0" d="M159.5,191.3c0,0-4.7,7.1-18.3,7.1s-21.3-5.8-21.3-5.8l-9.3,30.2c0,0,9.7,7.8,29.1,7.8s24.8-10.8,24.8-10.8
		L159.5,191.3z"/>
	<g>
		<path class="st9" d="M154.3,122.9c-2.2-2.8,1.8-12.7,11.4-15.6c9.6-2.8,14.5,3.6,14.7,6.2c0.2,2.6-1.1,7.1-6.7,9.4
			c-5.5,2.3-10,1.5-12.6,1.3C157.8,123.9,155.6,124.5,154.3,122.9z"/>
		<circle class="st13" cx="165.7" cy="113.5" r="8.3"/>
		<circle class="st9" cx="168.9" cy="111.9" r="3.3"/>
		<path class="st13" d="M153.7,120.6c0,0-1.2-4.8,4.8-11.1c6-6.2,13.7-4.7,15.8-5c2.1-0.4,4.4,0.3,3.7,0.9c-0.7,0.6,1.2,2.3,2.9,1.9
			c1.7-0.3,0,1.5,0,2c0,0.6,2.9,0.4,3.2,1.1c0.2,0.6-1.7,2-1.2,2.2c0.5,0.2,2.1,1.4,1.3,2c-0.8,0.5-2.4,2.5-3.1,3.3
			c-0.7,0.8-2.5,1.5-2.5,1.5s2.1-3.9,0.9-6.7c-1.2-2.8-4.5-5.8-9.9-5.3c-5.4,0.6-8.9,3.1-11.3,5.2
			C155.8,114.6,153.7,120.6,153.7,120.6z"/>
		<path class="st13" d="M152.2,95.9c-1.7,3.9,5.8,3,10.3,1.2c4.5-1.7,10.4-2.5,15.4-2.3c5,0.2,11.5,3.1,11.5,3.1s-7.8-5-15.2-5.6
			c-7.5-0.6-15.7,0.5-18.2,1.1C153.4,94,153.1,93.7,152.2,95.9z"/>
	</g>
	<g>
		<path class="st9" d="M123.9,119.5c2.1-2.6-1.8-12.1-10.8-14.8c-9.1-2.7-13.7,3.5-13.9,5.9c-0.2,2.4,1.1,6.7,6.3,8.9
			s9.5,1.4,12,1.2C120.6,120.5,122.7,121,123.9,119.5z"/>
		<circle class="st13" cx="113.1" cy="110.7" r="7.9"/>
		<path class="st9" d="M119.2,109.2c0,1.7-1.4,3.2-3.2,3.2c-1.7,0-3.2-1.4-3.2-3.2c0-1.7,1.4-3.2,3.2-3.2
			C117.8,106,119.2,107.4,119.2,109.2z"/>
		<path class="st13" d="M124.5,117.4c0,0,1.1-4.6-4.6-10.5c-5.7-5.9-13-4.4-15-4.8c-2-0.4-4.2,0.3-3.5,0.8c0.6,0.5-1.2,2.1-2.8,1.8
			c-1.6-0.3,0,1.4,0,1.9c0,0.5-2.8,0.4-3,1c-0.2,0.6,1.6,1.9,1.2,2c-0.4,0.1-2,1.4-1.2,1.9c0.8,0.5,2.3,2.3,2.9,3.1s2.4,1.4,2.4,1.4
			s-2-3.7-0.9-6.4c1.2-2.7,4.3-5.5,9.4-5c5.2,0.5,8.4,2.9,10.7,4.9C122.4,111.7,124.5,117.4,124.5,117.4z"/>
		<path class="st13" d="M129.3,93.9c1.6,3.7-5.5,2.8-9.7,1.2c-4.3-1.6-9.9-2.4-14.6-2.2c-4.7,0.1-10.9,2.9-10.9,2.9
			s7.4-4.7,14.4-5.3c7.1-0.6,14.9,0.4,17.2,1C128.2,92.2,128.4,91.9,129.3,93.9z"/>
	</g>
	<g>
		<g>
			<path class="st14" d="M234.7,190.8c3.6-3,5.4-6,5.8-9.3c0.6-5.7-2.3-12.8-10.6-21.6c-18-19-12.2-27.3-12.2-57.8
				c0-19.4,0-38.8-13.6-60.1c-17.3-27.2-35.2-23.5-36.2-23.3c-1.7-1.7-12.8-7-27.1-5.8c-23.3,1.9-39,10.2-54.9,23.3
				c-14.2,11.6-38.8,31-30.4,69.8c3.8,17.4,14.9,27.1-4.4,49.6c-7.8,9.1-11.1,15.9-10.6,21.6c0.3,3.3,2.2,6.3,5.8,9.3
				c4.4,3.7,6.9,5.8,7,7.4c0.1,1.4-1.6,3.4-4.4,6.7c-2.4,2.8-7.6,9.9-5.5,15.6c1.4,3.7,5.5,5.9,12.4,6.4c0.8,1,3.6,4,8.3,6.5
				c2.5,1.4,4.3,3.6,4.1,4.9c-0.1,0.6-1.1,2.5-8.6,2.5c-0.9,0-2,0-3-0.1c-2.1-1.5-4.1-3.2-5.9-4.8l-0.2-0.2
				c-0.2-0.2-0.5-0.3-0.7-0.3c-0.5,0-0.9,0.3-1.1,0.8c-0.2,0.5-0.1,1,0.3,1.4c4.2,4.6,9.5,10.4,16.2,10.4c1.5,0,3-0.3,4.5-0.8
				c3.4-1.3,6.3-4,7.8-7.5c1.5-3.3,1.7-7.1,0.5-10.7c-0.4-1.1-0.9-2.1-1.4-3.1c-0.6-1.2-1.1-2.3-1.4-3.4c-0.6-2.4-0.2-4.5,1.1-6.5
				c1.3-2,2.3-2.3,7.5,0.8c7.5,4.5,15.2,9.2,14,16.1c-1.9,10.6-12.1,11.2-14.2,11.2c-0.2,0-0.2,0-0.2,0c0,0,0,0,0,0
				c-0.5,0-0.8,0.4-0.9,0.9c-0.1,0.5,0.2,1,0.7,1.1c0.1,0,2,0.6,4.7,0.6c4.7,0,12.8-1.9,15.2-14.6c0.5-2.8,0.7-5.2,0.7-7.4
				c0.5-5.9-0.4-11.1-2.8-15.5c-1.6-3-4-5.1-6.4-7.2c-0.5-0.4-1-0.9-1.5-1.3c-2.6-2.3-5.1-4.9-5-8.2c0.1-3.9,3.9-16.7,3.9-24.4
				c0-11.6-4.4-22.1-5.8-27.1c-0.8-3-3.9-13.2,1.9-30.6s14-25.8,31.3-32.8c19.1-7.7,32.5-11.2,36.9-15.6c6.1,0,20,28.1,30.7,38.8
				c9.7,9.7,9.7,34.9,6.4,44.6c-2.6,7.7-5.8,17.4-5.8,29.1c0,7.8,5.8,18.6,5.9,22.5c0.1,3.3-2.4,5.8-5,8.2c-0.5,0.5-1,0.9-1.5,1.3
				c-2.3,2.1-4.7,4.2-6.4,7.2c-2.4,4.4-3.3,9.6-2.8,15.5c-0.1,2.2,0.1,4.6,0.7,7.4c2.3,12.7,10.5,14.6,15.2,14.6
				c2.7,0,4.6-0.6,4.7-0.6c0.5-0.1,0.7-0.6,0.7-1.1c-0.1-0.5-0.5-0.9-0.9-0.9c0,0,0,0,0,0c0,0-0.1,0-0.2,0c-2,0-12.3-0.5-14.2-11.2
				c-1.2-6.9,6.6-11.5,14-16.1c5.2-3.1,6.2-2.8,7.5-0.8c1.3,2.1,1.7,4.1,1.1,6.5c-0.3,1.2-0.8,2.3-1.4,3.4c-0.5,1-1,2-1.4,3.1
				c-1.1,3.5-0.9,7.3,0.5,10.7c1.5,3.5,4.4,6.2,7.8,7.5c1.5,0.6,3,0.8,4.5,0.8c6.7,0,12-5.7,16.2-10.4c0.3-0.4,0.4-0.9,0.3-1.4
				c-0.2-0.5-0.6-0.8-1.1-0.8c-0.3,0-0.5,0.1-0.7,0.3l-0.2,0.2c-1.8,1.5-3.8,3.3-5.9,4.8c-1.1,0.1-2.1,0.1-3,0.1
				c-7.5,0-8.5-1.9-8.6-2.5c-0.3-1.3,1.5-3.5,4.1-4.9c4.7-2.6,7.4-5.5,8.3-6.5c6.8-0.5,11-2.7,12.4-6.4c2.1-5.7-3.2-12.8-5.5-15.6
				c-2.8-3.3-4.5-5.3-4.4-6.7C227.8,196.5,230.2,194.5,234.7,190.8z"/>
			<path class="st15" d="M223,95.4v1.2C223,96.6,223,96.2,223,95.4z M179.7,27.1C208,51.4,209.8,90,209.9,97.3v-8.6
				C212.1,47.8,179.7,27.1,179.7,27.1z M83.1,62.5c24.2-26.9,76.8-47.6,76.8-47.6s-41.2,11.4-75.7,41.9c-2.4,2.1-4.5,4.1-6.5,6.1
				c8.8-11.1,24.3-25.9,50.4-39.2c0,0-46.9,20.5-61.3,52.3c-5.5,10.7-3.6,22.9-4.8,20c1.9,2.7,4.2,5.1,6.8,8.3l2.8,2.3
				C71.5,106.5,58.9,89.4,83.1,62.5z M169.8,57.3c-4.2-9.2-10.3-12.1-12.1-12.8c5.6-12.2,8.3-21.9,8.3-21.9
				c-18.1,36.2-36.8,35.2-64.8,50.8c-10.6,5.9-16.3,11.2-19.3,15.6c1.4-5.9,6.6-17,24.8-31.1c27.4-21.2,53.8-36.2,53.8-36.2
				s-59,26.6-78.6,59.1C86,72,96.2,56.5,120.4,40.2c0,0-40.7,20.9-44,53.8c-1,4.6-1,9.2,0.2,13.8c0.1-1.4,0.3-2.9,0.5-4.5
				c2.2-13.5,16.5-24.9,41.7-33.7c19.6-6.8,30.9-15.8,35-19.5c14.9,5.3,15,18.1,23.2,29.4c3.8,5.2,8.2,8.8,11.9,11.1
				C174.2,78.9,174.5,67.6,169.8,57.3z M194,76.7c-2.1-5.6-4.9-10.7-7.7-14.7c-7.7-10.9-18.1-24.3-18.1-24.3s8.2,15.5,16.5,29.5
				c8.2,14,8.8,27.4,8.8,27.4l0,0.9c0.8,2.9,1.1,5.7,1,8.6c2.4-4.6,3.1-9.9,2.5-15.3l1.4,5.8c2.7-35.7-27.4-67.8-27.4-67.8
				C183.5,41.3,191,65.2,194,76.7z"/>
		</g>
	</g>
	<g>
		<path class="st9" d="M158.2,419.6H64.3c-3.3,0-6.1-2.3-6.8-5.5L32,297.5c-1-4.4,2.4-8.5,6.8-8.5h93.9c3.3,0,6.1,2.3,6.8,5.5
			l25.5,116.6C166,415.5,162.7,419.6,158.2,419.6z"/>
		<path class="st16" d="M152.4,419.6H64.3c-3.3,0-6.1-2.3-6.8-5.5L32,297.5c-1-4.4,2.4-8.5,6.8-8.5H127c3.3,0,6.1,2.3,6.8,5.5
			l25.5,116.6C160.2,415.5,156.9,419.6,152.4,419.6z"/>
		<path class="st17" d="M102.9,343.2c0,4.7-7.1,8.4-15.9,8.4c-8.8,0-15.9-3.8-15.9-8.4c0-4.7,7.1-8.4,15.9-8.4
			C95.8,334.8,102.9,338.6,102.9,343.2z"/>
		<g>
			<path class="st2" d="M77.3,351.1c-0.5,0.5-4.1,4.1-6.5,4.9c0.8,0.4,1.5,0.9,2,1.6c0,0,0.8,2.3-0.5,3.1c-1.1,0.6-7.4,2.6-10.3,3.5
				c1.9,1.5,1.5,3.2,0.8,3.2c-1.2,0.2-9.8,2.7-11.4,3c-1,0.2-2.9,0.5-5.5,0.5h-0.2c-3.8-0.3-6-2.9-6-2.9s-2.9-0.5-4.2-1.8
				c-1.3-1.3-1.6-5.3-1.6-5.3s-2.3-1.4-2.9-4.3c-0.6-2.8,0.7-6.7,0.7-6.7s-2.4-1.9-2.8-3.3c-0.4-1.3-1-5.5,2.4-11.3
				c3.7-6.5,7.5-8.5,7.5-8.5l2.7,12.2l2.3,0.9l10.6-0.6c0,0,10.6-6.6,13.1-1.4c0,0,0.6,1.9-0.5,2.9c-1.5,1.5-9.6,7.2-11.1,7.6
				l5.4,0.2c0,0,14-5.6,16.6-1.1C77.9,347.6,78.9,349.3,77.3,351.1z"/>
			<g>
				<g>
					<path class="st4" d="M56,348.5c0,0-0.3,0.2-0.7,0.5c-0.5,0.3-1.1,0.7-2,1.1c-0.9,0.4-2.1,0.5-3.2,0.6c-1.2,0.1-2.4,0.2-3.7,0.3
						c-2.5,0.1-5.1-0.1-6.9-0.3c-1.9-0.2-3.1-0.5-3.1-0.5s1.3,0,3.1,0.1c1.9,0,4.4,0.1,6.9,0c1.3,0,2.5-0.1,3.7-0.2
						c1.2-0.1,2.3-0.1,3.1-0.4C54.8,349.1,56,348.5,56,348.5z"/>
				</g>
			</g>
			<g>
				<g>
					<path class="st4" d="M70.8,356c0,0-1.9,0.6-4.8,1.4c-1.4,0.5-3.1,1-4.9,1.4c-1,0.2-1.9,0.3-2.9,0.4c-1,0.1-2,0.2-3,0.3
						c-8,0.6-15.9,0.5-15.9,0.5s7.9-0.6,15.9-1.1c2-0.1,4-0.3,5.8-0.6c1.8-0.4,3.5-0.8,5-1.2C68.9,356.5,70.8,356,70.8,356z"/>
				</g>
			</g>
			<g>
				<g>
					<path class="st4" d="M43.7,367.4c0,0,1.5-0.1,3.8-0.3c1.1-0.1,2.5-0.3,3.9-0.5c1.4-0.3,2.9-0.7,4.4-1.1c5.9-1.6,11.9-3,11.9-3
						s-5.8,2-11.8,3.6c-1.5,0.4-3,0.8-4.4,1.1c-1.4,0.3-2.8,0.4-4,0.4c-1.2,0-2.1,0-2.8,0C44.1,367.4,43.7,367.4,43.7,367.4z"/>
				</g>
			</g>
		</g>
	</g>
</g>
</svg>
