<?xml version="1.0" encoding="UTF-8" standalone="no"?>
<!DOCTYPE svg PUBLIC "-//W3C//DTD SVG 1.1//EN" "http://www.w3.org/Graphics/SVG/1.1/DTD/svg11.dtd">
<svg width="100%" height="100%" viewBox="0 0 489 678" version="1.1" xmlns="http://www.w3.org/2000/svg" xmlns:xlink="http://www.w3.org/1999/xlink" xml:space="preserve" xmlns:serif="http://www.serif.com/" style="fill-rule:evenodd;clip-rule:evenodd;stroke-linejoin:round;stroke-miterlimit:2;">
    <g transform="matrix(-1,0,0,1,487.689,0)">
        <g transform="matrix(0.9897,-0.1433,0.1433,0.9897,-65.3319,44.6281)">
            <rect x="253.5" y="445.5" width="47.4" height="60.8" style="fill:rgb(171,106,74);"/>
        </g>
        <g>
            <g>
                <path d="M435.8,450.4C412.4,450.4 287.3,470.6 278.9,474.5C270.4,478.7 249.4,502.4 264,512.9C278.6,523.4 433.6,463.3 433.6,463.3L435.8,450.4Z" style="fill:rgb(163,101,70);fill-rule:nonzero;"/>
                <path d="M300.1,497.3C291.1,490.9 296.3,478.8 303.6,469.5C290,472 280.7,473.7 278.9,474.5C270.1,478.6 247.6,504.2 261.9,514.6C276.5,525.1 433.3,463.2 433.3,463.2L434.6,459C376.5,479.1 310.7,505.1 300.1,497.3Z" style="fill:rgb(171,106,74);fill-rule:nonzero;"/>
            </g>
            <g>
                <path d="M479.3,427L450.2,437.7L468.7,423.8C470.8,422.1 469.9,419.9 469.4,419.4L459.1,425.4L455.8,427.3C452.6,428.9 449.8,430.7 447.2,432.5L442.6,435L424.6,457.7L426.4,461.3L430.9,464.5C430.9,464.5 440.8,463.1 449.4,457.8C460.3,456.7 469.5,453.5 469.5,453.5C474.5,450.8 470.4,449.5 470.4,449.5C465.5,451.9 457,452.4 455.5,452.6C454.4,452.5 453.7,452.6 452.6,452.5L452.5,451.8L480.3,441.6C483.9,439.8 480.2,437.2 480.2,437.2L458.3,443.3L453.3,444.2L453.6,442.5L453.3,442.4L453.7,442.2L480.5,432C485,429.8 482.9,425 482.9,425L479.3,427Z" style="fill:rgb(163,101,70);fill-rule:nonzero;"/>
            </g>
        </g>
        <path d="M137.2,415.3C137.2,415.3 138.6,452.6 129.8,498.2C121,543.8 101.8,570.6 77.4,595.1C52.9,619.6 23.6,617.8 23.6,617.8C23.6,617.8 52.1,569.8 46.9,549.7C41.7,529.6 35.6,441.4 46.9,415.4C58.2,389.4 112.1,373.1 112.1,373.1L137.2,415.3Z" style="fill:rgb(82,111,13);fill-rule:nonzero;"/>
        <path d="M271.2,187.1C269,218.3 246.3,270.8 238,279.2C229.7,287.5 132.6,276.9 114,264C95.3,251 92,195.7 89.5,182.4C87,169 156.5,25.8 193.4,31.2C230.3,36.6 265.7,102.5 271.2,118.7C276.6,134.9 271.2,187.1 271.2,187.1Z" style="fill:rgb(82,111,13);fill-rule:nonzero;"/>
        <path d="M54.8,264C54.8,264 27.8,329.3 27.8,389.9L27.8,591.4C27.8,613.2 4.3,625.1 4.3,625.1C4.3,625.1 53.5,609.7 60.4,590.4C67.4,571.1 43.3,428.8 49.4,399.5C55.5,370.1 89.5,291.3 89.5,291.3L54.8,264Z" style="fill:rgb(112,157,13);fill-rule:nonzero;"/>
        <path d="M27.8,669.9C27.8,709.4 43.4,854.4 43.4,902.1C43.4,947 52.8,1125.3 53.8,1145.7C53.9,1146.9 53.9,1147.6 53.9,1147.6C53.9,1147.6 56.4,1147.3 60.7,1146.8C86.4,1143.6 176.2,1132.1 181,1127.2C186.7,1121.5 172.1,1112.5 193,1112.5C214,1112.5 225.6,1130.2 253.6,1130.2C280.6,1130.2 308.1,1116 310.1,1115L310.2,1115C310.2,1115 301.1,1093.3 301.1,1079C301.1,1064.6 336.3,936.1 329.3,844.5C323.8,772.4 265.3,596.4 240.5,524.5L239.5,521.8L236.7,513.6L235.4,510L234.2,506.7L233.2,503.7L232.3,501.1L231.5,498.8L230.8,496.9L229.5,493.2L111.9,487.6C112.1,487.4 27.8,556.2 27.8,669.9Z" style="fill:rgb(255,46,56);fill-rule:nonzero;"/>
        <path d="M143.2,223.3C143.2,223.3 135.9,238.3 131.6,243C127.3,247.7 115.8,244.5 115.8,244.5C115.8,244.5 140.8,257.2 148.1,240.9C152.1,231.9 148.1,225.5 148.1,225.5L143.2,223.3Z" style="fill:rgb(89,8,0);fill-rule:nonzero;"/>
        <path d="M71.9,204.2C71.9,204.2 71.9,226.5 80.2,237.2C88.5,247.8 105.3,247.8 118.1,246.1C130.8,244.3 143.2,225.6 143.2,225.6L122.7,187.6L91,198.6L71.9,204.2Z" style="fill:rgb(89,8,0);fill-rule:nonzero;"/>
        <path d="M208.8,269.4C208.8,269.4 195.8,279.2 175.7,279.2C155.6,279.2 139.2,267.9 139.2,267.9C139.2,267.9 140.8,267 143.2,265.7C149.6,262.1 154.7,250.6 155.3,246.9C156.2,241.9 154.6,228.4 154.6,228.4L184.5,235.1L192.1,236L192.1,236.4C192,238.3 191.5,247.3 192.1,251.5C192.9,255.9 208.8,269.4 208.8,269.4Z" style="fill:rgb(154,96,66);fill-rule:nonzero;"/>
        <path d="M256.9,167.2C256.7,170.7 261.1,176.5 261.1,185.4C261.1,195.2 256.7,222.3 230.2,237.4C226.1,239.7 221.6,241.5 216.7,242.9C189.6,250.4 152.1,243.6 132.8,226.1C109.7,205.1 90.9,155.4 90.9,155.4C90.9,155.4 116.6,150.3 148.5,126.1C180.3,101.9 209.7,74.3 209.7,74.3C209.7,74.3 249.9,86.5 258.3,110.9C260.1,116.2 261.1,121.6 261.5,127C263,146.5 257.1,164.5 256.9,167.2Z" style="fill:rgb(171,106,74);fill-rule:nonzero;"/>
        <g>
            <path d="M182.7,206.5C182.7,206.5 193.2,208.5 211.3,208.5C227.7,208.5 234.8,205.6 234.4,206.5C234.4,206.5 221.7,223.6 207.7,224.4C198.2,225 182.7,208.5 182.7,208.5L182.7,206.5Z" style="fill:rgb(89,8,0);fill-rule:nonzero;"/>
            <path d="M227.1,209.1C227.1,209.1 220.9,210.3 208.1,210.3C194.7,210.3 183.9,208.3 183.9,208.3C183.9,208.3 184.8,209.6 187,211.2C190.8,214.4 197.5,219.5 204.7,220.8C211.8,222.1 219.2,217.7 219.2,217.7L220.8,214.8L227.1,209.1Z" style="fill:white;fill-rule:nonzero;"/>
            <path d="M185.4,206.9C185.4,206.9 193.4,207.3 204.4,204.6C213.6,202.4 230.3,206.9 230.3,206.9C230.3,206.9 224.7,209.2 211.9,209C199.1,208.9 185.4,206.9 185.4,206.9Z" style="fill:rgb(171,21,53);fill-rule:nonzero;"/>
            <path d="M185.4,211.2C185.4,211.2 195.5,229.3 207.9,230.1C220.2,230.9 228.1,213.5 228.1,213.5C228.1,213.5 217.4,224.3 206.8,223.3C195.7,222.3 185.4,211.2 185.4,211.2Z" style="fill:rgb(171,21,53);fill-rule:nonzero;"/>
        </g>
        <path d="M101.2,174.8C101.2,174.8 67.8,153.9 52.9,165.1C38,176.2 75,220.1 100.8,209.7C118.5,202.5 113.2,189.5 113.2,189.5L101.2,174.8Z" style="fill:rgb(225,103,54);fill-rule:nonzero;"/>
        <path d="M101.4,189.5C101.4,189.5 88.1,179.5 74.1,177.2C60,174.9 59,175.6 59,175.6C59,175.6 70.8,180.7 80.2,187.5C89.7,194.3 101.4,189.5 101.4,189.5Z" style="fill:rgb(196,85,45);fill-rule:nonzero;"/>
        <path d="M93.5,187.5C93.5,187.5 96.2,199.4 91,202C85.8,204.6 76.6,202 76.6,202C76.6,202 86.2,203.3 86.7,197C87.1,190.6 83.6,186.5 83.6,186.5L93.5,187.5Z" style="fill:rgb(196,85,45);fill-rule:nonzero;"/>
        <path d="M261.6,130.4C261.6,130.4 261.6,128.7 259.5,115.5C257.5,102.7 212.7,76 209.9,74.3C209.8,74.3 209.8,74.2 209.8,74.2L209.8,74.1L193.4,31.2C193.4,31.2 197.5,30 207.4,31.2C214.3,32 235.6,42.5 249.5,56.6C255.5,62.7 260.2,69.5 261.8,76.5C266.8,99.7 261.6,130.4 261.6,130.4Z" style="fill:rgb(74,31,0);fill-rule:nonzero;"/>
        <path d="M209.8,74.3C209.8,74.3 209.7,74.4 209.6,74.5C206.2,77.9 167.9,116.2 139.3,140.2C109.3,165.3 101.2,174.7 101.2,174.7L76.7,163.7C76.7,163.7 56.3,120.3 59.1,101.4C59.1,101.1 59.2,100.8 59.2,100.5C61.2,88 67.4,72.6 77.1,59.2C81.9,52.3 87.7,46 94.3,40.9C122.8,18.7 172.5,25.5 187.3,27.6C189.5,27.9 191.6,29.2 193.5,31.2C203.8,41.8 209.5,71.9 209.9,74.1L209.8,74.3Z" style="fill:rgb(74,31,0);fill-rule:nonzero;"/>
        <path d="M300.5,465.4C300.5,465.4 294.4,472.7 277.2,475.3C260.1,478 252.8,475.3 252.8,475.3L241.4,436.9C241.4,436.9 241.5,436.5 241.6,435.7C243.4,424.8 256.1,345.1 249.5,324.2C247.8,318.9 245.1,313 241.9,307.2C241.5,306.5 241,305.7 240.6,304.9C238.4,301 236,297.1 233.6,293.5C225,280.2 216.4,269.7 216.4,269.7C216.4,269.7 218.8,270 222.9,271.2C224.7,271.8 226.9,272.5 229.4,273.5C235.6,276 243.5,280 251.9,286.5C257.6,290.9 263.5,296.4 269.3,303.4C294.5,333.5 300.5,465.4 300.5,465.4Z" style="fill:rgb(217,0,23);fill-rule:nonzero;"/>
        <path d="M280.9,373C279.9,377.3 277.3,381.9 274.3,386.4C266.9,397.1 256.6,406.4 256.6,406.4C256.6,406.4 256,408.3 254.7,411.5C252.9,415.9 249.7,422.8 245,430.1C243.8,431.9 242.7,433.8 241.5,435.6C234.9,446.1 229.3,455.6 229.3,455.6C229.3,455.6 208.5,466 177.8,465.4C170.4,465.3 163.7,464.4 157.8,463.3C149.9,461.8 143.5,459.6 138.6,457.7L138.5,457.6C131.9,454.9 128.3,452.6 128.3,452.6L120.7,439.1C114.4,427.8 101.9,414.8 98,410.8C97.2,410 96.8,409.6 96.8,409.6C96.8,409.6 98.9,340 104.3,302.4C104.6,300.3 104.9,298.2 105.3,296.3C106.9,287.2 108.6,280.8 110.7,279.3L110.8,279.3C121,272.7 144.3,265 144.3,265C144.3,265 147.5,267 153.3,269.1C159.3,271.3 168.1,273.4 178.7,273.4C197.9,273.4 202.7,264 202.7,264L222.9,271.1L229.4,273.4C229.4,273.4 231.8,282.8 235.3,292.5C236.9,296.8 238.6,301.2 240.5,304.8C240.9,305.6 241.4,306.4 241.8,307.1C248.4,318.3 274.6,343.3 276.4,345.7C278.2,348 284.5,358.4 280.9,373Z" style="fill:rgb(255,46,56);fill-rule:nonzero;"/>
        <path d="M251.9,286.4C246.8,287.7 241.1,289.6 235.3,292.5C234.7,292.8 234.1,293.1 233.5,293.4C230.6,294.9 227.7,296.6 224.8,298.6C202.7,314 164.1,322.3 129.4,312.8C125.6,311.8 122,310.6 118.7,309.3C113.1,307.2 108.3,304.8 104.2,302.4C97.6,298.6 92.8,294.6 89.4,291.3C101.8,281.2 109.7,279.5 110.6,279.4L110.7,279.4C120.9,272.8 144.2,265.1 144.2,265.1C144.2,265.1 157.7,273.5 178.6,273.5C197.8,273.5 202.6,264.1 202.6,264.1L222.8,271.2C224.6,271.8 226.8,272.5 229.3,273.5C235.6,275.9 243.5,279.9 251.9,286.4Z" style="fill:rgb(217,0,23);fill-rule:nonzero;"/>
        <path d="M274.9,385.5L274.3,386.4L258.4,410.8C258.4,410.8 257,411 254.7,411.5C240.3,414.4 188.8,425.2 176.2,434C161.6,444.2 157.8,463.3 157.8,463.3L138.6,457.7L138.5,457.6C131.9,454.9 128.3,452.6 128.3,452.6L120.7,439.1C114.4,427.8 101.9,414.8 98,410.8L107.5,400.3C107.5,400.3 121.5,407.3 179.1,405.6C236.8,403.7 274.9,385.5 274.9,385.5Z" style="fill:rgb(217,0,23);fill-rule:nonzero;"/>
        <path d="M249.8,465.4C249.8,465.4 255.4,467.3 270.5,465.4C285.6,463.5 300,456.8 300,456.8L300.5,465.4C300.5,465.4 294.6,474 276.8,477.2C259,480.4 253.2,478.7 253.2,478.7L249.8,465.4Z" style="fill:rgb(255,182,84);fill-rule:nonzero;"/>
        <path d="M27.8,669.9C27.8,709.4 43.4,854.4 43.4,902.1C43.4,947 52.8,1125.3 53.8,1145.7L60.7,1146.8C86.4,1143.6 176.2,1132.1 181,1127.2C186.7,1121.5 172.1,1112.5 193,1112.5C214,1112.5 225.6,1130.2 253.6,1130.2C280.6,1130.2 308.1,1116 310.1,1115C307.7,1115.4 269.1,1122.6 257.4,1124.6C245.3,1126.7 205.9,1107.2 197.5,1098.8C189.1,1090.4 160.1,872.6 160.1,872.6L179,1112.6C179,1112.6 175.3,1124 162.7,1124C150.1,1124 98.2,1108.8 86.4,1078C74.6,1047.2 81.5,844.5 81.5,844.5C105.5,883.9 123.6,988.7 123.6,988.7C123.6,988.7 119,852.7 101.2,768.4C83.4,684 121.7,558.7 136.3,544.1C150.9,529.5 240.6,524.5 240.6,524.5L239.6,521.8L236.8,513.6L235.5,510L234.3,506.7L233.3,503.7L232.4,501.1L231.6,498.8L230.9,496.9L229.6,493.2L112,487.6C112.1,487.4 27.8,556.2 27.8,669.9Z" style="fill:rgb(217,0,23);fill-rule:nonzero;"/>
        <path d="M229.7,493C230.6,492 232.3,479.3 233.2,468.4C234.1,457.4 230.8,453.2 230.8,453.2C230.8,453.2 192.3,466.5 162.5,461.8C132.7,457.1 127.2,452 123.2,453.2C119.2,454.5 123.8,466 120.7,471.6C117.6,477.2 113.4,483.3 112.1,487.5C110.8,491.6 134.6,504.5 171.4,504.5C208.3,504.4 229.7,493 229.7,493Z" style="fill:rgb(99,14,65);fill-rule:nonzero;"/>
        <path d="M219.2,498.2C219.2,498.2 261.1,654.5 261.1,705.2C261.1,705.2 239.2,614.3 219.2,573.9C199.1,533.5 172.2,542.8 165.4,549.6C158.6,556.4 165.4,737.3 165.4,737.3C165.4,737.3 145.4,547.8 136.4,538.8C127.4,529.8 129.9,498.2 129.9,498.2C129.9,498.2 176.6,517.4 219.2,498.2Z" style="fill:rgb(217,0,23);fill-rule:nonzero;"/>
        <g>
            <path d="M213.9,162.6C219.7,171.6 224.7,184.2 221.5,187.4C218.3,190.6 203.1,190.3 202.1,189.2C201,188.1 213.9,162.6 213.9,162.6Z" style="fill:rgb(190,132,105);fill-opacity:0.59;fill-rule:nonzero;"/>
            <path d="M209.6,160.4C215.4,169.4 220.4,182 217.2,185.2C214,188.4 198.8,188.1 197.8,187C196.6,186 209.6,160.4 209.6,160.4Z" style="fill:rgb(171,106,74);fill-rule:nonzero;"/>
            <g>
                <path d="M264.7,127.4L265.8,125.2C257.5,111.5 238.4,105 229.1,105L228,111.5C235.5,110.5 255.3,115.9 264.7,127.4Z" style="fill:rgb(64,29,6);fill-rule:nonzero;"/>
            </g>
            <g>
                <path d="M146.2,126C161.7,115.2 189.8,113.8 196.6,114.1L196.2,107.6C188.6,107.2 162.4,110.1 144.4,123.4L146.2,126Z" style="fill:rgb(64,29,6);fill-rule:nonzero;"/>
            </g>
            <g>
                <path d="M188.7,154.4C191.9,151.2 187.6,137.8 175.4,133.5C163.5,129.2 156.7,136.7 156,140C155.6,143.2 156.7,149.4 163.6,152.6C170.5,155.8 176.2,155.5 179.8,155.5C184,155.5 186.9,156.6 188.7,154.4Z" style="fill:white;fill-rule:nonzero;"/>
                <g transform="matrix(1,0,0,1,-4.41154,2.48937)">
                    <circle cx="174.7" cy="141.5" r="10.8" style="fill:rgb(57,23,11);"/>
                </g>
                <g transform="matrix(1,0,0,1,-4.41154,2.48937)">
                    <circle cx="170.7" cy="139.3" r="4.3" style="fill:white;"/>
                </g>
                <path d="M189.8,151.9C189.8,151.9 191.6,145.8 184.8,137.1C177.6,128.5 167.9,129.9 165,129.2C162.1,128.5 159.2,129.2 160.3,129.9C161,130.6 158.5,132.8 156.3,132.1C154.1,131.4 156.3,133.9 155.9,134.6C155.9,135.3 151.9,135 151.6,135.7C151.2,136.4 153.8,138.6 153,138.6C152.3,138.6 150.1,140.4 151.2,141.1C152.3,141.8 154.1,144.3 154.8,145.4C155.5,146.5 158,147.6 158,147.6C158,147.6 155.5,142.2 157.3,139C159.1,135.4 163.4,131.8 170.6,133.2C177.4,134.3 181.8,137.9 184.6,140.8C187.3,144 189.8,151.9 189.8,151.9Z" style="fill:rgb(57,23,11);fill-rule:nonzero;"/>
            </g>
            <g>
                <path d="M227.9,153C225.4,149.4 231.1,137.5 243,135C254.9,132.5 260.3,140.8 260.3,143.6C260.3,146.8 258.1,152.2 251.3,154.4C244.5,156.6 239.1,155.5 235.8,154.8C231.9,154.4 229.4,155.1 227.9,153Z" style="fill:white;fill-rule:nonzero;"/>
                <g transform="matrix(1,0,0,1,0.489417,3.10261)">
                    <circle cx="242.7" cy="142.5" r="10.1" style="fill:rgb(57,23,11);"/>
                </g>
                <g transform="matrix(1,0,0,1,0.489417,3.10261)">
                    <path d="M234.8,140C234.8,142.2 236.2,144.3 238.4,144.3C240.6,144.3 242.7,142.9 242.7,140.7C242.7,138.5 241.3,136.4 239.1,136.4C236.9,136.4 234.8,137.9 234.8,140Z" style="fill:white;fill-rule:nonzero;"/>
                </g>
                <path d="M227.2,150.1C227.2,150.1 226.1,144 234,137.1C241.9,129.9 250.9,132.4 253.8,132.4C256.3,132 259.2,133.1 258.1,133.8C257.4,134.5 259.5,136.7 261.3,136.3C263.5,135.9 261.3,138.1 261.3,138.8C261.3,139.5 264.9,139.5 264.9,140.2C265.3,140.9 262.7,142.4 263.1,142.7C263.5,143.1 265.6,144.5 264.5,145.2C263.4,145.9 261.3,148.1 260.5,148.8C259.8,149.9 257.3,150.2 257.3,150.2C257.3,150.2 260.2,145.5 259.1,142.3C258,138.7 254.1,134.7 247.6,135.1C240.8,135.5 236.4,138 233.6,140.5C230.5,143.3 227.2,150.1 227.2,150.1Z" style="fill:rgb(57,23,11);fill-rule:nonzero;"/>
            </g>
        </g>
        <g>
            <g>
                <path d="M135.9,605.2C127.2,583.4 62.3,474.7 55.6,468.3C48.6,461.9 18.8,451.2 14.4,468.6C10,486 123.2,607.9 123.2,607.9L135.9,605.2Z" style="fill:rgb(163,101,70);fill-rule:nonzero;"/>
                <path d="M42.2,496.4C44.9,485.7 57.9,486 69.3,489.4C61.9,477.7 56.9,469.7 55.6,468.3C48.6,461.6 16.4,450.2 12.1,467.3C7.7,484.7 123.2,607.5 123.2,607.5L127.6,607.2C87.3,560.7 38.8,509.1 42.2,496.4Z" style="fill:rgb(171,106,74);fill-rule:nonzero;"/>
            </g>
            <g>
                <path d="M173.7,637L153,613.9L172.7,625.9C175,627.2 176.7,625.6 177.1,624.9L167.7,617.5L164.7,615.2C162,612.9 159.3,610.8 156.7,609.2L152.7,605.9L124.9,597.5L122.2,600.5L120.9,605.9C120.9,605.9 125.9,614.6 134,620.6C139,630.3 145.4,637.7 145.4,637.7C149.8,641.4 149.4,637 149.4,637C145.4,633.3 141.7,625.6 141,624.3C140.7,623.3 140.3,622.6 140,621.6L140.7,621.3L160.4,643.4C163.4,646.1 164.4,641.7 164.4,641.7L150.7,623.6L148,619.2L149.7,618.9L149.7,618.6L150,618.9L169.4,640C173.1,643.3 176.8,639.7 176.8,639.7L173.7,637Z" style="fill:rgb(163,101,70);fill-rule:nonzero;"/>
            </g>
        </g>
        <path d="M113.2,394.6C113.2,394.6 105.8,401.5 98,410.8C94.5,415 90.9,419.5 87.8,424.2C83,431.5 76.9,443.6 71.9,454.2C66.5,465.7 62.3,475.4 62.3,475.4C27,482.2 9.8,467.8 9.8,467.8C9.8,467.8 21.9,387.1 46.3,345.4C63,316.8 78.1,300.5 89.5,291.3C101.9,281.2 109.8,279.5 110.7,279.4L110.8,279.4C110.8,279.4 112.5,283.5 114.6,290.5C116.1,295.5 117.6,301.9 118.8,309.4C119.7,314.9 120.4,320.9 120.6,327.4C121.8,355.2 113.2,394.6 113.2,394.6Z" style="fill:rgb(255,46,56);fill-rule:nonzero;"/>
        <path d="M153.4,269.6C153.4,269.6 134,278.7 114.6,290.5C111.5,292.4 108.3,294.4 105.3,296.4C99.6,300.2 94.1,304.2 89.6,308.1C67.7,327.1 32.2,400 31.6,424.4C31,448.9 72.1,454.2 72.1,454.2C66.7,465.7 62.5,475.4 62.5,475.4C27.2,482.2 10,467.8 10,467.8C10,467.8 22.1,387.1 46.5,345.4C63.2,316.8 78.3,300.5 89.7,291.3C102.1,281.2 110,279.5 110.9,279.4L111,279.4C121.2,272.8 144.5,265.1 144.5,265.1C144.5,265.1 147.7,267.1 153.5,269.2L153.4,269.6Z" style="fill:rgb(217,0,23);fill-rule:nonzero;"/>
        <path d="M32,200.5L32,201.1L34.2,216.6L34.4,217.5C41.5,261.2 55.7,302.3 66.8,313.4C86.8,333.4 153.9,365.3 212,364.7C263.1,364.1 259,292.3 259,292.3C259,292.3 260.8,272.7 252.1,264C243.4,255.3 231.7,268.3 231.7,268.3C231.7,268.3 226.2,260.8 221.3,255.9C216.4,251 212.1,265.7 212.1,265.7C212.1,265.7 153,266.2 139.4,249.3C115.9,220.2 136.7,59.3 203,40.4C215.8,36.7 261.3,102.8 267.5,130.4C272.9,154.1 271.9,179.2 271.5,185.7C272.2,177.5 275.1,138.9 271.9,111C271.2,105.2 269.9,98.5 267.8,91.4C262.2,72.5 251.1,50.2 231.8,32.7L231.7,32.7C218.2,20.6 201,10.9 179.2,6.2C127.6,-4.9 80.5,38.7 53.4,84.2C45.9,96.8 39.9,109.6 35.8,121.4C28.7,141.8 28.4,170.9 32,200.5Z" style="fill:rgb(141,177,62);fill-rule:nonzero;"/>
        <path d="M32,200.7L32,201.1L34.2,216.6L34.4,217.5C41.5,261.2 55.7,302.3 66.8,313.4C86.8,333.4 153.9,365.3 212,364.7C263.1,364.1 259,292.3 259,292.3C259,292.3 260.8,272.7 252.1,264C243.4,255.3 231.7,268.3 231.7,268.3C231.7,268.3 226.2,260.8 221.3,255.9C216.4,251 212.1,265.7 212.1,265.7C212.1,265.7 153,266.2 139.4,249.3C115.9,220.2 136.7,59.3 203,40.4C215.8,36.7 261.3,102.8 267.5,130.4C272.9,154.1 271.9,179.2 271.5,185.7C272.2,177.5 275.1,138.9 271.9,111C271.2,105.2 269.9,98.5 267.8,91.4C248.1,69.5 213.9,33 203,30.9C187.4,27.8 118,129.5 110,149.2C102,168.9 137.5,260.2 137.5,260.2C137.5,260.2 92.1,246.1 76.9,230.9C62.4,216.4 55.5,158.1 54.9,152.7C55.3,157.9 59.7,214.4 64.6,236.5C69.8,259.7 129.1,294.9 129.1,294.9C129.1,294.9 72.6,297.1 60.7,286.5C48.8,275.9 33,205.2 32,200.7Z" style="fill:rgb(141,177,62);fill-opacity:0.59;fill-rule:nonzero;"/>
        <path d="M11.7,456.8C11.7,456.8 24.2,463.5 43.4,465.4C62.6,467.3 66.8,465.4 66.8,465.4L62.3,475.4C62.3,475.4 54.1,481.6 33.3,478.7C12.5,475.8 9.8,467.8 9.8,467.8L11.7,456.8Z" style="fill:rgb(255,182,84);fill-rule:nonzero;"/>
    </g>
</svg>
