<?xml version="1.0" encoding="utf-8"?>
<!-- Generator: Adobe Illustrator 24.3.0, SVG Export Plug-In . SVG Version: 6.00 Build 0)  -->
<svg version="1.1" id="Layer_1" xmlns="http://www.w3.org/2000/svg" xmlns:xlink="http://www.w3.org/1999/xlink" x="0px" y="0px"
	 viewBox="0 0 253 589.9" style="enable-background:new 0 0 253 589.9;" xml:space="preserve">
<style type="text/css">
	.st0{fill:#A36546;}
	.st1{fill:#AB6A4A;}
	.st2{fill:#526F0D;}
	.st3{fill:#709D0D;}
	.st4{fill:url(#SVGID_1_);}
	.st5{fill:url(#SVGID_2_);}
	.st6{fill:#E16736;}
	.st7{fill:#630E41;}
	.st8{fill:#FF2E38;}
	.st9{fill:#590800;}
	.st10{fill:#9A6042;}
	.st11{fill:#FFFFFF;}
	.st12{fill:#AB1535;}
	.st13{fill:#C4552D;}
	.st14{fill:#4A1F00;}
	.st15{fill:#D90017;}
	.st16{fill:#FFB654;}
	.st17{opacity:0.59;fill:#BE8469;}
	.st18{fill:#401D06;}
	.st19{fill:#39170B;}
	.st20{fill:#8DB13E;}
	.st21{opacity:0.59;fill:#8DB13E;}
</style>
<g>
	<g>
		<g>
			<path class="st0" d="M212.4,424.3c2.4-15.8,2-102.3,0.2-108.4c-1.9-6.2-15.7-22.8-24.3-14.1c-8.6,8.7,15.7,119.6,15.7,119.6
				L212.4,424.3z"/>
			<path class="st1" d="M195,327.8c5.3-5.4,12.9-0.6,18.4,5.3c-0.3-9.4-0.4-15.9-0.8-17.2c-1.8-6.4-16.8-24.2-25.2-15.7
				c-8.6,8.7,16.7,121,16.7,121l2.7,1.3C199.3,381.2,188.6,334.1,195,327.8z"/>
		</g>
		<g>
			<path class="st0" d="M223.6,456.1L223.6,456.1l-4.2-20.8l7.4,13.9c0.9,1.6,2.5,1.2,2.9,0.9l-3-7.6l-1-2.4l0,0
				c-0.8-2.3-1.6-4.4-2.6-6.3l0,0l-1.2-3.4l-13.4-14.6l0,0l-2.6,0.8l-2.6,2.7c0,0-0.1,6.9,2.6,13.2c-0.4,7.5,0.8,14,0.8,14
				c1.3,3.7,2.6,1,2.6,1c-1.1-3.6-0.6-9.4-0.5-10.4c0.2-0.7,0.2-1.2,0.3-1.9l0.5,0l4,19.8c0.8,2.6,2.9,0.4,2.9,0.4l-1.8-15.4
				l-0.1-3.5l1.1,0.4l0.1-0.2l0.1,0.3l4.1,19.1l0,0c1,3.2,4.4,2.4,4.4,2.4L223.6,456.1z"/>
		</g>
	</g>
	<path class="st2" d="M103.8,285.4c0,0,1,25.5-5,56.6c-6,31.1-19.1,49.4-35.8,66.1c-16.7,16.7-36.7,15.5-36.7,15.5
		s19.4-32.8,15.9-46.5c-3.6-13.7-7.7-73.9,0-91.7c7.7-17.8,44.5-28.9,44.5-28.9L103.8,285.4z"/>
	<path class="st2" d="M195.2,129.5c-1.5,21.3-17,57.2-22.7,62.9c-5.7,5.7-71.9-1.5-84.7-10.4c-12.7-8.8-15-46.6-16.7-55.7
		s45.7-106.9,70.9-103.2s49.4,48.7,53.1,59.7C198.9,93.9,195.2,129.5,195.2,129.5z"/>
	<path class="st3" d="M47.4,182c0,0-18.4,44.6-18.4,86c0,41.4,0,122.7,0,137.6c0,14.9-16,23-16,23s33.6-10.5,38.3-23.7
		c4.7-13.1-11.7-110.3-7.5-130.4c4.2-20.1,27.4-73.9,27.4-73.9L47.4,182z"/>
	
		<linearGradient id="SVGID_1_" gradientUnits="userSpaceOnUse" x1="1983.6083" y1="792.3427" x2="1934.7987" y2="581.5312" gradientTransform="matrix(1 0 0 1 -1752.9216 0)">
		<stop  offset="0" style="stop-color:#FDA870"/>
		<stop  offset="1" style="stop-color:#FD7E3E"/>
	</linearGradient>
	<path class="st4" d="M231.4,792c-5,0.2-9.7,0-9.7,0s-8.9,2.6-16.2,0.1c-0.1,0-0.3-0.1-0.4-0.2c-0.5-0.2-1-0.5-1.5-0.8
		c0,0,0,0-0.1,0c-6.1-4.3-10.3-17.6-17.7-21.5c-5.3-2.8-10.8-5.8-14.1-8.3c0,0,0,0,0,0c-1.7-1.3-2.8-2.3-2.9-3.1
		c-0.4-2.2,12.5-24.9,12.7-29.3c0.1-2.4-7.1-27.6-13.1-53.8c0,0,0,0,0,0c-5.1-22.5-9.4-45.9-7.5-56.2c4.2-22.5,22.7-37.7,22.7-37.7
		s17,4.3,27.9,4c10.9-0.3,23.3-6.9,23.3-6.9s-2.7,9.3-6.6,23.2c-4.4,15.9-10.3,37.6-15.3,58.1c-9.3,38.4-17,67.5-15.8,70
		c1.2,2.4,13.2,21.2,18.8,32c5.5,10.7,6.9,13.5,9,15.4c2,1.8,11.5,3.4,13.5,6.9C240.7,787.2,236.5,791.8,231.4,792z"/>
	
		<linearGradient id="SVGID_2_" gradientUnits="userSpaceOnUse" x1="1901.3589" y1="811.2448" x2="1851.0793" y2="594.084" gradientTransform="matrix(1 0 0 1 -1752.9216 0)">
		<stop  offset="0" style="stop-color:#FDA870"/>
		<stop  offset="1" style="stop-color:#FD7E3E"/>
	</linearGradient>
	<path class="st5" d="M178.8,804.2c-5.7,0.6-7.9-1.4-7.9-1.4s-1.8,0.8-4.5,1.5c-2.6,0.7-4.5-0.6-4.5-0.6s-0.9,1.4-3.6,2.1
		c-2.7,0.7-5.6-1.7-5.6-1.7s-2.7,1.1-5.4,0.7c-2.6-0.4-4.7-2.2-4.7-2.2s-0.7,0.5-3.8-1.1c-0.5-0.3-1.1-0.8-1.6-1.4h0
		c-2.9-3.4-6.5-11.1-9-13.5c-3-2.8-14.8-11.6-14.2-15.1c0.6-3.4,2.2-10.7,2.2-12.9c0-2.2-4.5-5.5-2.3-8.7c2.3-3.2-0.6-8.1-0.6-8.1
		S70,673.8,69.2,650.5c-0.8-23.3,10.1-46.1,10.1-49.1c0-3,0-3,0-3s23.9,2.8,47.7-2.4c0,0,0.2,7.3,0.4,18.3
		c0.2,14.2,0.3,34.7-0.4,54.1c-1.2,34.4,1.6,67.8,4.1,74.4c2.4,6.7,19.7,18.5,26.1,25.8c6.4,7.3,13.8,17.5,15.6,19.1
		c1.8,1.6,12.1,2.2,14,5.4C188.5,796.5,184.5,803.6,178.8,804.2z"/>
	<path class="st6" d="M137.2,800L137.2,800c-2.9-3.4-6.5-11.1-9-13.5c-3-2.8-14.8-11.6-14.2-15.1c0.6-3.4,2.2-10.7,2.2-12.9
		c0-2.2-4.5-5.5-2.3-8.7c2.3-3.2-0.6-8.1-0.6-8.1S70,673.8,69.2,650.5c-0.8-23.3,10.1-46.1,10.1-49.1c0-3,0-3,0-3s23.9,2.8,47.7-2.4
		c0,0,0.2,7.3,0.4,18.3l-0.3,1.6c0,0-17.5,13.7-28,30.7c-10.5,16.9,16.6,91.4,20.2,97c3.6,5.7-0.4,8.3-0.4,9.8
		c0,1.5,3.6,17.1,4.6,19.9c0.9,2.8,7.4,6,10.2,9.1C136.5,785.5,137.2,800,137.2,800z"/>
	<path class="st6" d="M169.5,803.3c0,0,3.3-2.9,1.8-6c-1.5-3-4.4-4.1-4.4-4.1s6.4,2,8.8,5.1c2.4,3,0,6,0,6L169.5,803.3z"/>
	<path class="st6" d="M159.2,805.5c0,0,1.6-2.3,1.4-4.2c-0.1-1.9-1.4-3.4-1.4-3.4s3.1,2.8,3.4,4.6
		C163,804.1,159.2,805.5,159.2,805.5z"/>
	<path class="st6" d="M151.1,804.2c0,0,1.1-0.4,0-3.3c-1.1-2.9-1.1-2.9-1.1-2.9s3.8,3.3,4.3,4.9c0.5,1.5,0,2.2,0,2.2L151.1,804.2z"
		/>
	<path class="st6" d="M141.9,802.6c0,0,1.1,0,1.3-1.8c0.2-1.7-0.6-4.7-0.6-4.7s2.4,4.1,2.4,5.6c0,1.5,0,2.3,0,2.3L141.9,802.6z"/>
	<path class="st6" d="M232.8,791.8c0,0,5.4-2.8,3.9-6.8c-1.5-4-7.3-6.3-7.3-6.3s10.3,3.2,11.3,7.5
		C241.5,790.5,232.8,791.8,232.8,791.8z"/>
	<path class="st6" d="M194.2,768.2c4.2,4.2,7.5,21.5,9.4,22.9c-6.1-4.3-10.3-17.6-17.7-21.5c-5.3-2.8-10.8-5.8-14.1-8.3
		C172.6,761.4,190,764,194.2,768.2z"/>
	<path class="st6" d="M205.1,791.9c-0.5-0.2-1-0.5-1.5-0.8C204.1,791.4,204.6,791.7,205.1,791.9z"/>
	<path class="st7" d="M225.1,776.9c0,0-12.7,0.8-23.3-3.3c-10.6-4.1-33.2-21.7-33.2-21.7s23.9,35.7,34.9,41.3
		c11,5.6,38.3,2.2,39.5-4.5C244.2,781.9,225.1,776.9,225.1,776.9z"/>
	<path class="st7" d="M166.9,780.6c0,0-10.7,3.5-21.9,2.7c-11.3-0.8-21.5-9.9-21.5-9.9l-16,4.7c0,0,20.7,16.6,31.3,23.3
		c10.6,6.6,43,8.3,50.5,2.6C203.5,793.2,166.9,780.6,166.9,780.6z"/>
	<path class="st8" d="M29,459.2c0,27,10.7,126,10.7,158.5c0,30.7,6.4,152.4,7.1,166.3c0.1,0.8,0.1,1.3,0.1,1.3s1.7-0.2,4.7-0.6
		c17.5-2.2,78.9-10.1,82.2-13.4c3.9-3.9-6.1-10,8.2-10c14.3,0,22.2,12.1,41.4,12.1c18.5,0,37.2-9.7,38.5-10.4h0l0.1,0
		c0,0-6.2-14.8-6.2-24.6c0-9.8,24-97.6,19.3-160.1c-3.7-49.2-43.7-169.4-60.6-218.5l-0.7-1.9l-1.9-5.6l-0.9-2.5l-0.8-2.3l-0.7-2
		l-0.6-1.8l-0.5-1.5l-0.5-1.3l-0.9-2.5l-80.3-3.8C86.6,334.5,29,381.6,29,459.2z"/>
	<path class="st9" d="M107.8,154.3c0,0-5,10.2-7.9,13.5c-2.9,3.2-10.8,1-10.8,1s17.1,8.7,22.1-2.4c2.8-6.2,0-10.5,0-10.5
		L107.8,154.3z"/>
	<path class="st9" d="M59.2,141.2c0,0,0,15.2,5.7,22.5c5.6,7.3,17.2,7.3,25.9,6.1c8.7-1.2,17.1-14,17.1-14l-14-26l-21.6,7.5
		L59.2,141.2z"/>
	<path class="st10" d="M152.6,185.7c0,0-8.9,6.7-22.6,6.7c-13.7,0-24.9-7.7-24.9-7.7s1.1-0.6,2.7-1.5c4.4-2.5,7.9-10.3,8.3-12.8
		c0.6-3.4-0.5-12.6-0.5-12.6l20.4,4.6l5.2,0.6c0,0,0,0.1,0,0.2c-0.1,1.3-0.4,7.5,0,10.3C141.8,176.5,152.6,185.7,152.6,185.7z"/>
	<path class="st1" d="M185.5,115.9c-0.2,2.4,2.9,6.4,2.9,12.4c0,6.7-3,25.2-21.1,35.5c-2.8,1.6-5.9,2.8-9.2,3.7
		c-18.5,5.1-44.1,0.5-57.3-11.5c-15.8-14.3-28.6-48.3-28.6-48.3s17.6-3.5,39.3-20c21.7-16.5,41.8-35.4,41.8-35.4s27.5,8.3,33.2,25
		c1.2,3.6,1.9,7.3,2.2,11C189.7,101.8,185.6,114.1,185.5,115.9z"/>
	<g>
		<path class="st9" d="M134.8,142.8c0,0,7.2,1.4,19.5,1.4c11.2,0,16.1-2,15.8-1.4c0,0-8.7,11.7-18.2,12.2
			c-6.5,0.4-17.1-10.8-17.1-10.8V142.8z"/>
		<path class="st11" d="M165.1,144.6c0,0-4.2,0.8-13,0.8c-9.1,0-16.5-1.4-16.5-1.4s0.6,0.9,2.1,2c2.6,2.2,7.2,5.6,12.1,6.6
			c4.9,0.9,9.9-2.1,9.9-2.1l1.1-2L165.1,144.6z"/>
		<path class="st12" d="M136.7,143.1c0,0,5.4,0.2,13-1.5c6.3-1.5,17.7,1.6,17.7,1.6s-3.8,1.6-12.6,1.4
			C146,144.4,136.7,143.1,136.7,143.1z"/>
		<path class="st12" d="M136.7,146c0,0,6.9,12.4,15.3,12.9c8.4,0.6,13.8-11.3,13.8-11.3s-7.3,7.4-14.6,6.7
			C143.7,153.6,136.7,146,136.7,146z"/>
	</g>
	<path class="st6" d="M79.1,121.1c0,0-22.8-14.3-33-6.6c-10.2,7.6,15.1,37.6,32.7,30.4c12.1-4.9,8.5-13.8,8.5-13.8L79.1,121.1z"/>
	<path class="st13" d="M79.3,131.1c0,0-9.1-6.8-18.7-8.4c-9.6-1.6-10.3-1.1-10.3-1.1s8,3.5,14.5,8.1
		C71.3,134.4,79.3,131.1,79.3,131.1z"/>
	<path class="st13" d="M73.9,129.8c0,0,1.8,8.1-1.7,9.9c-3.6,1.8-9.8,0-9.8,0s6.6,0.9,6.9-3.4c0.3-4.4-2.1-7.1-2.1-7.1L73.9,129.8z"
		/>
	<path class="st14" d="M188.7,90.8c0,0,0-1.1-1.4-10.2c-1.4-8.8-31.9-27-33.9-28.1c-0.1,0-0.1,0-0.1,0s0,0,0-0.1l-11.2-29.3
		c0,0,2.8-0.8,9.6,0c4.7,0.6,19.2,7.7,28.8,17.4c4.1,4.2,7.3,8.8,8.4,13.6C192.2,69.8,188.7,90.8,188.7,90.8z"/>
	<path class="st14" d="M153.3,52.5c0,0,0,0-0.2,0.2c-2.4,2.4-28.5,28.5-48,44.9c-20.5,17.2-26,23.6-26,23.6l-16.7-7.5
		c0,0-14-29.6-12-42.6c0-0.2,0.1-0.4,0.1-0.6c1.4-8.5,5.6-19.1,12.2-28.2c3.3-4.7,7.3-9,11.7-12.5c19.4-15.2,53.4-10.5,63.5-9.1
		c1.5,0.2,2.9,1.1,4.2,2.4C149.2,30.3,153,50.9,153.3,52.5C153.3,52.5,153.3,52.5,153.3,52.5z"/>
	<path class="st15" d="M215.2,319.5c0,0-4.2,5-15.9,6.8c-11.7,1.8-16.7,0-16.7,0l-7.8-26.2c0,0,0-0.3,0.1-0.8
		c1.2-7.5,9.9-61.8,5.4-76.1c-1.2-3.6-3-7.6-5.2-11.6c-0.3-0.5-0.6-1-0.9-1.6c-1.5-2.7-3.2-5.3-4.8-7.8
		c-5.9-9.1-11.7-16.3-11.7-16.3s1.7,0.2,4.4,1c1.3,0.4,2.7,0.9,4.4,1.6h0c4.2,1.7,9.6,4.4,15.4,8.9c3.9,3,7.9,6.8,11.9,11.5
		C211.2,229.5,215.2,319.5,215.2,319.5z"/>
	<path class="st8" d="M201.9,256.5c-0.7,2.9-2.5,6.1-4.5,9.1c-5,7.3-12.1,13.7-12.1,13.7s-0.4,1.3-1.3,3.5c-1.2,3-3.4,7.7-6.6,12.7
		c-0.8,1.3-1.6,2.5-2.4,3.8c-4.5,7.2-8.3,13.6-8.3,13.6s-14.2,7.1-35.2,6.7c-5-0.1-9.6-0.7-13.7-1.4c-5.4-1-9.8-2.5-13.1-3.8l-0.1,0
		c-4.5-1.8-6.9-3.4-6.9-3.4s0,0-5.2-9.2c-4.3-7.7-12.8-16.6-15.5-19.3c-0.5-0.5-0.8-0.8-0.8-0.8s1.5-47.5,5.1-73.2
		c0.2-1.5,0.4-2.8,0.7-4.2c1.1-6.2,2.3-10.6,3.7-11.6c0,0,0,0,0,0c6.9-4.5,22.9-9.8,22.9-9.8s2.2,1.4,6.2,2.8c4.1,1.5,10.1,3,17.4,3
		c13.1,0,16.4-6.4,16.4-6.4l13.8,4.9l4.4,1.6h0c0,0,1.7,6.4,4,13c1.1,3,2.3,5.9,3.6,8.4c0.3,0.6,0.6,1.1,0.9,1.6
		c4.5,7.6,22.4,24.7,23.6,26.4C200,239.4,204.3,246.5,201.9,256.5z"/>
	<path class="st15" d="M182.1,197.3c-3.5,0.9-7.4,2.2-11.3,4.2c-0.4,0.2-0.8,0.4-1.2,0.6c-2,1-4,2.2-5.9,3.6
		c-15.1,10.5-41.5,16.2-65.1,9.7c-2.6-0.7-5-1.5-7.3-2.4c-3.8-1.5-7.1-3.1-9.9-4.7c-4.5-2.6-7.8-5.3-10.1-7.6
		c8.4-6.9,13.9-8.1,14.5-8.2c0,0,0,0,0,0c6.9-4.5,22.9-9.8,22.9-9.8s9.2,5.7,23.5,5.7c13.1,0,16.4-6.4,16.4-6.4l13.8,4.9
		c1.3,0.4,2.7,0.9,4.4,1.6h0C170.9,190.1,176.3,192.9,182.1,197.3z"/>
	<path class="st15" d="M197.7,265l-0.4,0.6l-10.8,16.7c0,0-0.9,0.2-2.5,0.5c-9.8,2-45,9.4-53.6,15.3c-10,7-12.6,20-12.6,20
		l-13.1-3.8l-0.1,0c-4.5-1.8-6.9-3.4-6.9-3.4s0,0-5.2-9.2c-4.3-7.7-12.8-16.6-15.5-19.3l6.5-7.2c0,0,9.6,4.8,48.9,3.6
		C171.7,277.5,197.7,265,197.7,265z"/>
	<path class="st16" d="M180.6,319.5c0,0,3.8,1.3,14.1,0c10.3-1.3,20.1-5.9,20.1-5.9l0.3,5.9c0,0-4.1,5.9-16.2,8.1
		c-12.1,2.2-16.1,1-16.1,1L180.6,319.5z"/>
	<path class="st15" d="M29,459.2c0,27,10.7,126,10.7,158.5c0,30.7,6.4,152.4,7.1,166.3l4.7,0.7c17.5-2.2,78.9-10.1,82.2-13.4
		c3.9-3.9-6.1-10,8.2-10c14.3,0,22.2,12.1,41.4,12.1c18.5,0,37.2-9.7,38.5-10.4c-1.6,0.3-28,5.2-36,6.6
		c-8.3,1.4-35.2-11.9-40.9-17.6c-5.7-5.7-25.5-154.5-25.5-154.5l12.9,163.9c0,0-2.5,7.8-11.1,7.8c-8.6,0-44-10.4-52.1-31.4
		c-8-21-3.4-159.4-3.4-159.4c16.4,26.9,28.8,98.5,28.8,98.5s-3.1-92.8-15.3-150.4c-12.1-57.6,14-143.2,24-153.1
		c9.9-9.9,71.2-13.4,71.2-13.4l-0.7-1.9l-1.9-5.6l-0.9-2.5l-0.8-2.3l-0.7-2l-0.6-1.8l-0.5-1.5l-0.5-1.3l-0.9-2.5l-80.3-3.8
		C86.6,334.5,29,381.6,29,459.2z"/>
	<path class="st7" d="M166.9,338.4c0.6-0.7,1.8-9.3,2.4-16.8c0.6-7.5-1.6-10.4-1.6-10.4s-26.3,9.1-46.6,5.9
		c-20.3-3.2-24.1-6.7-26.9-5.9c-2.7,0.9,0.4,8.7-1.7,12.5c-2.1,3.8-5,8-5.9,10.8s15.3,11.6,40.5,11.6
		C152.3,346.2,166.9,338.4,166.9,338.4z"/>
	<path class="st15" d="M159.7,342c0,0,28.6,106.7,28.6,141.3c0,0-14.9-62.1-28.6-89.6c-13.7-27.6-32.1-21.2-36.8-16.6
		c-4.6,4.6,0,128.1,0,128.1s-13.7-129.4-19.8-135.5c-6.1-6.1-4.4-27.7-4.4-27.7S130.7,355.1,159.7,342z"/>
	<g>
		<path class="st17" d="M156.1,112.8c3.9,6.1,7.4,14.7,5.2,17c-2.2,2.2-12.5,2-13.3,1.2C147.3,130.2,156.1,112.8,156.1,112.8z"/>
		<path class="st1" d="M153.2,111.3c3.9,6.1,7.4,14.7,5.2,17c-2.2,2.2-12.5,2-13.3,1.2C144.3,128.7,153.2,111.3,153.2,111.3z"/>
		<g>
			<path class="st18" d="M190.8,88.8l0.7-1.5c-5.7-9.3-18.7-13.8-25.1-13.8l-0.7,4.4C170.9,77.2,184.4,80.9,190.8,88.8z"/>
		</g>
		<g>
			<path class="st18" d="M109.9,87.8c10.6-7.4,29.7-8.4,34.4-8.1l-0.2-4.4C138.9,75,121,77,108.7,86.1L109.9,87.8z"/>
		</g>
		<g>
			<path class="st11" d="M138.9,107.2c2.2-2.2-0.7-11.3-9.1-14.3c-8.1-2.9-12.8,2.2-13.3,4.4c-0.2,2.2,0.5,6.4,5.2,8.6
				c4.7,2.2,8.6,2,11.1,2C135.7,107.9,137.7,108.7,138.9,107.2z"/>
			<circle class="st19" cx="129.3" cy="98.4" r="7.4"/>
			<circle class="st11" cx="126.6" cy="96.9" r="2.9"/>
			<path class="st19" d="M139.6,105.5c0,0,1.2-4.2-3.4-10.1c-4.9-5.9-11.5-4.9-13.5-5.4c-2-0.5-3.9,0-3.2,0.5c0.5,0.5-1.2,2-2.7,1.5
				c-1.5-0.5,0,1.2-0.2,1.7c0,0.5-2.7,0.2-2.9,0.7c-0.2,0.5,1.5,2,1,2c-0.5,0-2,1.2-1.2,1.7c0.7,0.5,2,2.2,2.5,2.9
				c0.5,0.7,2.2,1.5,2.2,1.5s-1.7-3.7-0.5-5.9c1.2-2.5,4.2-4.9,9.1-3.9c4.7,0.7,7.6,3.2,9.6,5.2
				C137.9,100.1,139.6,105.5,139.6,105.5z"/>
		</g>
		<g>
			<path class="st11" d="M165.7,106.2c-1.7-2.5,2.2-10.6,10.3-12.3c8.1-1.7,11.8,3.9,11.8,5.9c0,2.2-1.5,5.9-6.1,7.4
				s-8.4,0.7-10.6,0.2C168.4,107.2,166.7,107.7,165.7,106.2z"/>
			<circle class="st19" cx="175.8" cy="99.1" r="6.9"/>
			<path class="st11" d="M170.4,97.4c0,1.5,1,2.9,2.5,2.9c1.5,0,2.9-1,2.9-2.5s-1-2.9-2.5-2.9C171.8,94.9,170.4,95.9,170.4,97.4z"/>
			<path class="st19" d="M165.2,104.3c0,0-0.7-4.2,4.7-8.8c5.4-4.9,11.5-3.2,13.5-3.2c1.7-0.2,3.7,0.5,2.9,1c-0.5,0.5,1,2,2.2,1.7
				c1.5-0.2,0,1.2,0,1.7c0,0.5,2.5,0.5,2.5,1c0.2,0.5-1.5,1.5-1.2,1.7c0.2,0.2,1.7,1.2,1,1.7c-0.7,0.5-2.2,2-2.7,2.5
				c-0.5,0.7-2.2,1-2.2,1s2-3.2,1.2-5.4c-0.7-2.5-3.4-5.2-7.9-4.9c-4.7,0.2-7.6,2-9.6,3.7C167.4,99.6,165.2,104.3,165.2,104.3z"/>
		</g>
	</g>
	<g>
		<g>
			<path class="st0" d="M102.8,415c-5.9-14.9-50.3-89.1-54.9-93.5c-4.8-4.3-25.1-11.7-28.1,0.2c-3,11.9,74.3,95.1,74.3,95.1
				L102.8,415z"/>
			<path class="st1" d="M38.8,340.7c1.8-7.3,10.7-7.1,18.5-4.8c-5-8-8.5-13.5-9.4-14.4c-4.8-4.6-26.7-12.3-29.7-0.7
				c-3,11.9,75.9,95.8,75.9,95.8l3-0.2C69.7,384.6,36.6,349.4,38.8,340.7z"/>
		</g>
		<g>
			<path class="st0" d="M128.7,436.7L128.7,436.7l-14.2-15.8l13.5,8.2c1.6,0.9,2.7-0.2,3-0.7l-6.4-5l-2.1-1.6l0,0
				c-1.8-1.6-3.7-3-5.5-4.1l0,0l-2.7-2.3l-19-5.7l0,0l-1.8,2.1l-0.9,3.7c0,0,3.4,5.9,8.9,10.1c3.4,6.6,7.8,11.7,7.8,11.7
				c3,2.5,2.7-0.5,2.7-0.5c-2.7-2.5-5.3-7.8-5.7-8.7c-0.2-0.7-0.5-1.1-0.7-1.8l0.5-0.2l13.5,15.1c2.1,1.8,2.7-1.1,2.7-1.1l-9.4-12.3
				l-1.8-3l1.1-0.2v-0.2l0.2,0.2l13.3,14.4l0,0c2.5,2.3,5-0.2,5-0.2L128.7,436.7z"/>
		</g>
	</g>
	<path class="st8" d="M87.4,271.2c0,0-5,4.7-10.4,11.1c-2.4,2.8-4.9,6-6.9,9.2c-3.3,5-7.4,13.2-10.9,20.5
		c-3.7,7.8-6.6,14.5-6.6,14.5c-24.1,4.6-35.8-5.2-35.8-5.2s8.2-55.1,25-83.6c11.4-19.5,21.7-30.7,29.5-36.9
		c8.4-6.9,13.9-8.1,14.5-8.2c0,0,0,0,0,0s1.2,2.8,2.6,7.6c1,3.4,2.1,7.8,2.9,12.9c0.6,3.7,1.1,7.9,1.2,12.3
		C93.3,244.3,87.4,271.2,87.4,271.2z"/>
	<path class="st15" d="M114.8,185.8c0,0-13.3,6.2-26.5,14.2c-2.1,1.3-4.3,2.6-6.4,4c-3.9,2.6-7.6,5.3-10.8,8
		c-15,13-39.2,62.7-39.6,79.4c-0.4,16.7,27.6,20.4,27.6,20.4c-3.7,7.8-6.6,14.5-6.6,14.5c-24.1,4.6-35.8-5.2-35.8-5.2
		s8.2-55.1,25-83.6c11.4-19.5,21.7-30.7,29.5-36.9c8.4-6.9,13.9-8.1,14.5-8.2c0,0,0,0,0,0c6.9-4.5,22.9-9.8,22.9-9.8
		s2.2,1.4,6.2,2.8L114.8,185.8z"/>
	<path class="st20" d="M31.9,138.7l0,0.1l0,0.2l1.5,10.6l0.1,0.6c4.9,29.8,14.5,57.9,22.1,65.5c13.7,13.7,59.5,35.5,99.1,35
		c34.9-0.4,32.1-49.4,32.1-49.4s1.2-13.4-4.7-19.3c-6-6-14,2.9-14,2.9s-3.7-5.1-7.1-8.5s-6.3,6.7-6.3,6.7s-40.3,0.4-49.7-11.2
		c-16-19.9-1.8-129.7,43.4-142.7c8.7-2.5,39.8,42.6,44.1,61.4c3.7,16.2,3,33.3,2.7,37.7c0.5-5.6,2.5-32,0.2-51
		c-0.5-3.9-1.4-8.5-2.8-13.4c-3.8-12.9-11.4-28.2-24.6-40.1c0,0,0,0-0.1,0C159,15.8,147.3,9.2,132.4,6C97.1-1.6,65,28.2,46.5,59.3v0
		c-5.1,8.6-9.2,17.4-12,25.4C29.6,98.6,29.5,118.5,31.9,138.7z"/>
	<path class="st21" d="M31.9,138.8l0,0.2l1.5,10.6l0.1,0.6c4.9,29.8,14.5,57.9,22.1,65.5c13.7,13.7,59.5,35.5,99.1,35
		c34.9-0.4,32.1-49.4,32.1-49.4s1.2-13.4-4.7-19.3c-6-6-14,2.9-14,2.9s-3.7-5.1-7.1-8.5s-6.3,6.7-6.3,6.7s-40.3,0.4-49.7-11.2
		c-16-19.9-1.8-129.7,43.4-142.7c8.7-2.5,39.8,42.6,44.1,61.4c3.7,16.2,3,33.3,2.7,37.7c0.5-5.6,2.5-32,0.2-51
		c-0.5-3.9-1.4-8.5-2.8-13.4c-13.5-15-36.8-39.8-44.2-41.3c-10.7-2.1-58.1,67.4-63.5,80.8c-5.5,13.4,18.8,75.8,18.8,75.8
		s-31-9.7-41.4-20c-9.9-9.9-14.6-49.7-15-53.4c0.3,3.6,3.3,42.2,6.6,57.2c3.5,15.8,44.1,39.9,44.1,39.9s-38.5,1.5-46.7-5.7
		C43.4,190.2,32.6,141.9,31.9,138.8z"/>
	<path class="st16" d="M18,313.6c0,0,8.6,4.5,21.7,5.9c13.1,1.3,16,0,16,0l-3,6.8c0,0-5.6,4.3-19.8,2.3c-14.3-2-16-7.4-16-7.4
		L18,313.6z"/>
</g>
</svg>
