<?xml version="1.0" encoding="utf-8"?>
<!-- Generator: Adobe Illustrator 24.3.0, SVG Export Plug-In . SVG Version: 6.00 Build 0)  -->
<svg version="1.1" id="Layer_1" xmlns:serif="http://www.serif.com/"
	 xmlns="http://www.w3.org/2000/svg" xmlns:xlink="http://www.w3.org/1999/xlink" x="0px" y="0px" viewBox="0 0 484.1 598.2"
	 style="enable-background:new 0 0 484.1 598.2;" xml:space="preserve">
<style type="text/css">
	.st0{fill:#A46546;}
	.st1{fill:#390B1D;}
	.st2{fill:#1A1A1A;}
	.st3{fill:#4D4D4F;}
</style>
<g>
	<path class="st0" d="M132.9,579l14.5,50.6l-65.6-61.9c0,0,21.7-25.9,28.1-28.1L132.9,579z"/>
	<path class="st1" d="M242.5,239.6c-14.9-7.5-93-103.7-87.3-113.5c0.9-1.6,0.3-3.8,0.5-5.9c-7.5,3.1-15.2,12.8-15.7,22.4
		c-0.4,7.3-17.1-4.6-14.5,1.9c9.8,24.4-9.8,67.3-2.3,88.2c-0.2,0.9-0.3,1.8-0.4,2.8c-1.8-1.4-3.8-2.7-5.5-3.6
		c-0.8,3.9,2.5,8.4,7.2,12.7c4.4,10.6,16.1,15.5,25.3,19.7c1.7,0.7,4,1.7,6.5,2.8c3.6,2.3,7.1,4.8,10.4,7.7c7.2,6.3,9.6,13,14,21.1
		v5.3c7.4,5.6,38.6,13.4,44.8-0.8C227,296.9,262,249.2,242.5,239.6z M342.3,261.2l-9.1,13.1c-1.8-5.5-4.9-10.6-7.3-15.4
		c-5.6-11.1-11.3-24.6-18.1-36.2c-0.1,0-0.1,0-0.1,0c-4.4,0-7.7-2.1-10.3-6.5c-1.9,5.5-8.5-5.4-18.6,7.4c-2,33.2-11.1,80.5,14.6,92
		C320.5,319,365.2,291.2,342.3,261.2z"/>
	<path class="st2" d="M172,343.2l-102.7,138l40.7,58.5l-28.1,28.1L8.5,483c0,0,99.4-149.5,142.9-190.6L172,343.2z"/>
	<path class="st2" d="M379.1,571.7l88.8-79.7c0,0-80.9-179.1-120.8-196c-39.9-16.9-180.1-21.4-193.7-6c-13.6,15.4-4.5,36.2-4.5,36.2
		s-46.2,49.9-63.4,55.3c9.1,50.8,42.6,56.2,42.6,56.2s-9.4,110.9,14.9,182.9l126.9-23.5c-23.1-24-38.9-36.3-34-71.5
		c4.8-34.1,72.3-125.3,89.4-148l74.6,104.5l-45.3,59.8L379.1,571.7z"/>
	<path class="st1" d="M279.4,213.8c-6.3,62.5,4.6,79.3,4.6,79.3s-69.8,17.2-61-2.4c21.7-21.7,11.1-47.9,11.1-47.9
		S276.7,221.9,279.4,213.8z"/>
	<path class="st3" d="M262,588.9c-27.9,21.6-69.9,35.7-117.2,36.8c-5.3-14.2-9.1-30.2-11.9-46.7c26.4-0.8,74.8-5.3,104-26.5
		C240.7,566.5,249.9,576.5,262,588.9z"/>
	<path class="st1" d="M208.4,68.8c61-17.5,118.7,41.4,94.5,106.6c-24.1,65.3-93,82.8-93,82.8s-52-24.2-58-56.8
		c-5.4-29.4,7.9-38.1,7.9-38.1C144.1,134.3,147.4,68.8,208.4,68.8z"/>
	<path class="st0" d="M379.1,571c0,0-75.4,44.1-92.7,44.1c-7.3,0-14.6-12.2-14.6-12.2l-6.1-5.1l20.7,0.2l69.1-57.9
		C367.3,548.2,379.1,571,379.1,571z"/>
	<path class="st1" d="M288.9,293.2c0,0-17.1,14.6-41.5,14.6s-36.6-9.8-36.6-9.8l24.4-41.5c0,0,7.3,4.9,24.4,4.9s19.5-4.9,19.5-4.9
		L288.9,293.2z"/>
	<g>
		<g>
			<path class="st1" d="M366.5,255.8c4.5-3.8,6.8-7.5,7.2-11.7c0.7-7.3-4.1-15.2-13.3-27.2c-12.7-16.6-12.9-23.5-14-61.9
				c0-2.6-0.1-5.4-0.2-8.3c-1.5-49.3-13.9-87.2-34.9-106.6c-13.9-12.8-29.8-15.5-40.7-15.5c-4.7,0-8.1,0.5-9.4,0.7
				c-2.2-2.1-11.9-10.4-29.9-10.4c-14.8,0-31.3,5.6-49,16.7c-26.3,16.3-42.1,36.2-50.7,50c-9.4,15.1-15.6,31.3-16.5,43.5
				c-1,4.3-1.3,8.7-0.9,13c0.5,6.2,2.7,12,4.7,16.8c1,2.3,2.2,4.6,3.3,6.7c1.5,2.7,3,5.5,4,8.4c1.8,5-0.4,9.4-3.2,14.2
				c-0.8,1.4-1.6,2.7-2.4,4c-2,3.2-4,6.5-5.6,10.2c-4.2,9.8-5.5,21.5-3.6,33.7c0.4,6,2.3,11.6,5.6,16.7c6,9.3,15.2,15.8,24.1,21.7
				c0.7,0.5,1.4,0.9,2.1,1.4c7.5,5,14.6,9.6,18.7,18.5c1.1,2.4,2.8,7.1,1.5,11.3c-1.4,4.5-7.3,6-9.5,6.4c-7.5-2.8-14.2-9.7-14.3-9.8
				c-0.2-0.2-0.5-0.3-0.8-0.3s-0.6,0.1-0.8,0.3c-0.4,0.4-0.5,1.2-0.2,1.7c0.3,0.6,8,13.3,17.3,15.7c1.5,0.4,3.4,0.6,5.6,0.6
				c12.2,0,29.7-5.9,30.3-19.1c0.8-16.1-12.2-27.6-39.5-35.3c-10.3-2.9-17.1-8.6-20.3-17.1c-3.7-9.9-2.1-22.8,4.4-34.6
				c6.9-12.5,6.7-22.6,6.4-33.2c-0.1-5.8-0.3-11.8,0.7-18.6c2.7-19.1,20.1-35.3,51.7-48.1c24.1-9.7,38.4-22.6,43.9-28.2
				c11.7,5,15.6,14.6,20.1,25.6c2.2,5.4,4.4,11,7.8,16.4c6.3,10.1,14,16.2,19.6,19.5c5,15,0.7,28.8-4.3,44.8
				c-1.2,4-2.5,8.1-3.7,12.4c-1.8,6.4-2.6,11.8-2.4,16.6c-0.3,2.7-0.3,5.4-0.1,8.1c0.5,5.9,2.1,11.5,5,17.1c0.7,1.2,1.4,2.5,2.1,3.8
				c2.5,4.4,5,9,5.2,13.9c0.2,4.1-3,7.4-6.2,10.3c-0.6,0.6-1.3,1.1-1.9,1.7c-2.9,2.6-6,5.2-8,9c-3,5.6-4.2,12.1-3.5,19.5
				c-0.1,2.7,0.2,5.8,0.8,9.3c3,16,13.2,18.4,19.1,18.4c3.4,0,5.8-0.8,5.9-0.8c0.5-0.1,0.9-0.8,0.8-1.4s-0.6-1.1-1.2-1.1l0,0
				c0,0-0.1,0-0.3,0c-2.5,0-15.5-0.7-17.8-14.1c-1.5-8.6,8.3-14.5,17.7-20.2c6.5-3.9,12.6-7.6,14.7-12.2c4.1-9,1.1-16.2-2.3-22
				c-0.9-1.5-1.9-2.9-2.8-4.3c-1.5-2.1-2.9-4.2-4-6.6c-0.5-1.1-0.8-2.3-1-3.5c1.3,2.1,2.8,4.3,4.5,6.5c4.6,7,9.1,13,13.7,18.4
				c0.7,1.3,1.5,2.6,2.3,3.8c1.9,3.1,4,6,6,8.9c1.7,2.4,3.5,4.9,5.1,7.5c1.6,2.6,2.1,5.2,1.4,8.2c-0.4,1.4-1.1,2.8-1.8,4.3
				c-0.6,1.2-1.3,2.5-1.7,3.9c-1.4,4.4-1.2,9.2,0.7,13.4c1.9,4.4,5.5,7.8,9.8,9.4c1.9,0.7,3.7,1.1,5.6,1.1c8.4,0,15-7.2,20.3-13
				c0.4-0.4,0.5-1.1,0.3-1.7c-0.3-0.6-0.8-1-1.4-1c-0.3,0-0.6,0.2-0.9,0.4l-0.2,0.2c-2.2,1.9-4.8,4.1-7.4,6
				c-1.3,0.1-2.6,0.1-3.8,0.1c-9.4,0-10.6-2.4-10.8-3.1c-0.4-1.6,1.9-4.4,5.1-6.1c5.9-3.2,9.3-7,10.4-8.2c8.6-0.7,13.9-3.4,15.6-8.1
				c2.6-7.2-4-16.2-7-19.7c-3.5-4.2-5.6-6.7-5.5-8.5C358.1,263,361.1,260.4,366.5,255.8z M129.3,159.1l-0.1-0.2
				c-0.2-0.3-0.3-0.6-0.5-0.9c1.8,2.4,3.7,5.1,5.7,8.4c2.2,3.4,1.4,7.3-0.9,11.9c0.4-1.7,0.7-3.5,0.6-5.4
				C133.9,167.9,131.5,163.2,129.3,159.1z"/>
		</g>
	</g>
</g>
</svg>
