<?xml version="1.0" encoding="utf-8"?>
<!-- Generator: Adobe Illustrator 24.3.0, SVG Export Plug-In . SVG Version: 6.00 Build 0)  -->
<svg version="1.1" id="Layer_1" xmlns="http://www.w3.org/2000/svg" xmlns:xlink="http://www.w3.org/1999/xlink" x="0px" y="0px"
	 viewBox="0 0 480 600" style="enable-background:new 0 0 480 600;" xml:space="preserve">
<style type="text/css">
	.st0{fill:#E1CCBE;}
	.st1{fill:#E0ADA4;}
	.st2{opacity:0.5;}
	.st3{opacity:0.2;}
	.st4{opacity:0.1;}
	.st5{fill:#B5581E;}
	.st6{fill:#71350A;}
	.st7{fill:#4A5F65;}
	.st8{fill:#74919B;}
	.st9{fill:#94A7B0;}
	.st10{fill:#5F7880;}
	.st11{fill:#9A4C1E;}
	.st12{fill:#7F3D13;}
	.st13{fill:#5E3612;}
	.st14{fill:#383535;}
	.st15{fill:#232121;}
	.st16{fill:#EF8F6F;}
	.st17{fill:#FFB781;}
	.st18{fill:#E97B59;}
	.st19{fill:#FFFFFF;}
	.st20{fill:#39170B;}
	.st21{fill:#724B44;}
	.st22{fill:#000003;}
	.st23{fill:#876058;}
	.st24{fill:#B0D0E9;}
	.st25{fill:#9EB9DB;}
	.st26{fill:#592807;}
	.st27{fill:#713613;}
	.st28{fill:#E59239;}
	.st29{fill:#F9B058;}
	.st30{fill:#F7A147;}
	.st31{fill:#CE8431;}
	.st32{fill:#91B4BF;}
	.st33{fill:#A6C1CA;}
	.st34{fill:#F2F4F5;}
	.st35{fill:#E0E7EA;}
	.st36{fill:#C5D5DB;}
	.st37{fill:#5C7B84;}
	.st38{fill:#C9D8DD;}
	.st39{fill:#ADC5CE;}
	.st40{fill-rule:evenodd;clip-rule:evenodd;fill:#FFFFFF;}
</style>
<rect x="-30.5" y="-23" class="st0" width="523" height="406"/>
<g>
	<g>
		<path class="st1" d="M373.2,548.8v3.5h3v-3.5c19.8,0.2,39.5,0.3,59,0.3c31.3,0.1,63.2,0.3,95.2,0.8c0,0.2,0,0.4,0,0.6h3
			c0-0.2,0-0.4,0-0.5c8.8,0.2,17.6,0.3,26.4,0.6c-0.1,0.6-0.1,1.2-0.2,1.7h3c0.1-0.6,0.1-1.1,0.2-1.7c7,0.2,14,0.4,21.1,0.7v-1.7
			c-16.8-0.6-33.6-1-50.4-1.3c0.1-4.4,0.4-8.9,0.7-13.3c0.4-5.2,0.8-10.5,0.8-15.7c0-1.3,0-2.5-0.1-3.8c15.9,0.2,32.2,0.5,48.9,0.8
			v-1.7c-9.8-0.2-19.4-0.3-28.9-0.5c0.4-6.3,0.5-12.9,0.5-19.2c10.1,0,19.5,0.1,28.5,0.2v-1.7c-15.8-0.2-33-0.3-52.7-0.3
			c-6.7,0-13.5,0-20.2,0c-0.1-2.6-0.2-5.1-0.2-7.7c0-9.9,0.7-19.3,2.1-28.2c23.6,0.5,47.3,1.1,71,1.8v-1.7c-9-0.3-17.9-0.5-26.9-0.8
			c0.2-3.7,0.3-7.4,0.5-11c0.4-7.9,0.9-16.2,0.9-24.3c8.9,0.2,17.3,0.4,25.5,0.6v-1.7c-17.4-0.5-36-0.8-57-0.9
			c-0.4-9.3-0.4-18.3-0.4-27.8h-3c0,9.5,0,18.5,0.4,27.8c-4.4,0-8.9,0-13.5,0c-19.8,0-39.9,0.1-59.4,0.3c-7.7,0.1-15.5,0.1-23.4,0.2
			l-0.2-1.6c-1.4-11.9-2.8-23.1-3.7-34.7c14.1,1,28.4,2.2,43,3.4c38.5,3.2,78.2,6.5,117.1,6.5v-1.7c-3.7,0-7.4,0-11.1-0.1
			c-0.2-3.1-0.4-6.1-0.5-9.2c-0.4-6.8-0.9-13.8-0.9-20.6c4.2,0.2,8.3,0.4,12.5,0.6v-1.7c-9.4-0.4-18.9-0.9-28.3-1.3
			c-20.4-0.9-40.9-1.9-61.5-2.8c0.1-4.9,0.7-9.8,1.3-14.6c0.5-4,1-8.2,1.2-12.3c17.6,0.4,35.2,0.7,52.6,1.2
			c11.6,0.3,23.2,0.6,34.8,0.9v-1.7c-11.5-0.3-23.1-0.6-34.6-0.9c-39.2-1-79-1.7-118.9-2.6c0.2-3.5,0.6-7.1,1-10.5
			c0.6-5.5,1.3-11.1,1.3-16.8h-3c0,5.6-0.7,11.2-1.3,16.6c-0.4,3.5-0.8,7-1,10.6c-25.8-0.6-51.7-1.4-77.5-2.5
			c-0.5-9-0.9-17.5-0.9-26.3c10.7,0.3,21.3,0.5,31.9,0.7c0,0,0,0,0,0.1l2.2,0c20.5,0.4,40.9,0.6,61.2,0.6c29,0,58.3-0.4,87.6-1.1
			l1.2,0.1c0,0,0-0.1,0-0.2c12.5-0.3,24.9-0.7,37.4-1.1c0,1,0.1,2.1,0.1,3.1c0,4.3-0.3,8.7-0.6,12.9c-0.3,4.3-0.6,8.7-0.6,13
			c0,1.3,0,2.5,0.1,3.8l3,0c-0.1-1.2-0.1-2.5-0.1-3.7c0-4.3,0.3-8.7,0.6-12.9c0.3-4.3,0.6-8.7,0.6-13c0-1.1,0-2.2-0.1-3.3
			c3.5-0.1,7-0.3,10.5-0.4V294c-16.8,0.7-33.6,1.2-50.5,1.6c1.2-4.7,2-9.5,2.8-14.1c0.9-5.3,1.7-10.7,3.2-15.9l-3-0.3
			c-1.5,5.3-2.4,10.7-3.3,16c-0.8,4.7-1.6,9.6-2.8,14.4c-23.3,0.6-46.5,0.9-69.6,1c0.9-11.1,1.4-22.2,1.4-33.3
			c40.2,0.9,81.2,1.9,121.8,3.1v-1.7c-3.5-0.1-7-0.2-10.5-0.3c0-9.4,0.8-17.5,1.6-26.9l0.3-3.7l-3-0.1l-0.3,3.7
			c-0.9,9.4-1.6,17.5-1.6,26.9c-24.8-0.7-49.6-1.4-74.3-1.9c0.5-4.9,0.8-9.9,1.2-14.8c0.4-5.3,0.7-10.6,1.2-15.8l-0.9,0
			c28.7,0.5,57.6,1.2,86.3,2.2v-1.7c-12.8-0.4-25.6-0.8-38.5-1.1c0-1.1-0.1-2.2-0.1-3.3c0-3,0.2-6.2,0.3-9.2c0.2-3,0.3-6.1,0.3-9.1
			h-3c0,3-0.2,6.1-0.3,9.1c-0.2,3-0.3,6.2-0.3,9.3c0,1.1,0.1,2.1,0.1,3.2c-33.1-0.8-66.2-1.3-98.8-1.8c0-0.2,0-0.3,0-0.5
			c0-4.6,0.8-9.4,1.6-14c0.4-2.1,0.7-4.2,1-6.2c24,0.6,48.4,1.1,72.6,1.1c23.6,0,45.2-0.5,65.2-1.5v-1.7c-7.5,0.4-15.3,0.7-23.3,0.9
			c0.8-4.9,1.1-9.9,1.5-14.8c0.2-3.3,0.5-6.6,0.8-9.9c7,0.2,14,0.4,21.1,0.7v-1.7c-16.8-0.6-33.6-1-50.4-1.3
			c0.1-4.4,0.4-8.9,0.7-13.3c0.4-5.2,0.8-10.5,0.8-15.7c0-1.3,0-2.5-0.1-3.8c15.9,0.2,32.2,0.5,48.9,0.8v-1.7
			c-9.8-0.2-19.4-0.3-28.9-0.5c0.4-6.3,0.5-12.9,0.5-19.2c10.1,0,19.5,0.1,28.5,0.2v-1.7c-15.8-0.2-33-0.3-52.7-0.3
			c-6.7,0-13.5,0-20.2,0c-0.1-2.6-0.2-5.1-0.2-7.7c0-9.9,0.7-19.3,2.1-28.2c23.6,0.5,47.3,1.1,71,1.8v-1.7c-9-0.3-17.9-0.5-26.9-0.8
			c0.2-3.7,0.3-7.4,0.5-11c0.4-7.9,0.9-16.2,0.9-24.3c8.9,0.2,17.3,0.4,25.5,0.6V52c-17.4-0.5-36-0.8-57-0.9
			c-0.4-9.3-0.4-18.3-0.4-27.8h-3c0,9.5,0,18.5,0.4,27.8c-4.4,0-8.9,0-13.5,0c-19.8,0-39.9,0.1-59.4,0.3c-7.7,0.1-15.5,0.1-23.4,0.2
			l-0.2-1.6c-1.4-11.9-2.8-23.1-3.7-34.7c14.1,1,28.4,2.2,43,3.4c38.5,3.2,78.2,6.5,117.1,6.5v-1.7c-3.7,0-7.4-0.1-11.1-0.1
			c-0.2-3.1-0.4-6.1-0.5-9.2c-0.4-6.8-0.9-13.8-0.9-20.6c4.2,0.2,8.3,0.4,12.5,0.6v-1.7c-9.4-0.4-18.9-0.9-28.3-1.3
			c-20.4-0.9-40.9-1.9-61.5-2.8c0.1-4.9,0.7-9.8,1.3-14.6c0.5-4,1-8.2,1.2-12.3l-3-0.1c-0.2,4.1-0.7,8.2-1.2,12.3
			c-0.6,4.8-1.1,9.7-1.3,14.6c-32.8-1.5-65.9-2.8-99.1-3.9c1.4-8.6,2.8-17.5,3.7-26.3c51.4,2,102.9,3.4,153.3,4.6
			c11.6,0.3,23.2,0.6,34.8,0.9v-1.7c-11.5-0.3-23.1-0.6-34.6-0.9c-10.1-0.3-20.3-0.5-30.6-0.8c0.7-4.8,1-9.5,1.3-14.1
			c0.3-5,0.6-10,1.4-15.2h-3c-0.8,5.1-1.1,10.2-1.4,15.1c-0.3,4.6-0.6,9.3-1.3,14.1c-47.5-1.2-95.7-2.6-143.7-4.8
			c0.3-2.9,0.7-5.8,1.1-8.7c0.7-5.2,1.4-10.5,1.7-15.7h-3c-0.3,5.1-1,10.4-1.7,15.5c-0.4,2.9-0.8,5.8-1.1,8.7
			c-7.3-0.3-43.2-0.7-81-1c0.7-5.9,1-10.8,1-15.4c0-2.7-0.1-5.3-0.4-7.8h-2.8c0.2,2.5,0.4,5.1,0.4,7.8c0,4.6-0.3,9.4-1,15.4
			c-27.5-0.3-55.6-0.5-74.5-0.8c-0.9,0-4.2,0-9.2,0c-0.8-5-1.2-9.9-1.5-14.7c-0.2-2.5-0.4-5.1-0.6-7.6h-2.8c0.3,2.6,0.5,5.2,0.6,7.7
			c0.3,4.7,0.7,9.6,1.5,14.6c-18.6,0-56.2-0.1-98.7-0.1c0.4-7.3,0.7-14.8,0.8-22.1h-2.8c-0.1,7.4-0.5,14.8-0.8,22l1.9,0.1
			c-29.8,0-62-0.1-91.7-0.1c-0.2-3.3-0.2-6.6-0.3-9.8c0-4-0.2-8.1-0.5-12.2H3.5C3.8-65.2,3.9-61,4-57.1c0,3.2,0.1,6.5,0.3,9.8
			c-4.5,0-8.9,0-13.2,0c0.2-3.7,0.7-7.6,1.2-11.5c0.4-3.5,0.8-7.1,1.1-10.6h-2.8c-0.3,3.4-0.6,6.9-1.1,10.3
			c-0.5,3.9-0.9,7.9-1.2,11.7c-19.8,0-37.8,0-52.5-0.1c0-0.2,0-0.4,0-0.6l-2.8-0.1c0,0.2,0,0.4,0,0.6c-13.9,0-24.4,0-30.1-0.1v1.8
			c5.7,0,16.2,0.1,30.1,0.1c-0.3,6-0.6,12.6-0.6,19.1c0,3,0.1,5.9,0.2,8.8c-13.7,0-24,0-29.7,0v1.7c11.2,0,40.8,0,77.5,0
			c0.3,3.8,0.4,7.7,0.4,11.4c0.1,5.2,0.1,10.5,0.9,15.9c-37.3,0-67.5,0.1-78.8,0.1v1.7c5.5,0,15.5,0,28.7,0c0,0.5,0,1.1,0,1.6
			c0,9.2,1.5,18.3,2.9,27.2c0.5,2.9,0.9,5.9,1.4,8.9c-15.3,0-26.9-0.1-33-0.1v1.7c4.1,0,10.7,0,19.4,0c0.2,3.9,0.7,7.9,1.1,11.7
			c0.6,5.2,1.2,10.5,1.2,15.7c0,0.8,0,1.7-0.1,2.5c-9.7,0-17.2,0-21.7-0.1v1.8c7,0.1,20.9,0.1,39.6,0.1c-0.4,12.7-0.9,25.8-2.3,39.1
			c-17.4,0-30.6-0.1-37.3-0.1v1.8c8.9,0.1,29,0.1,55.3,0.2c0,0.6,0,1.1,0,1.7c0,1.9-0.1,3.8-0.1,5.7c-0.1,1.9-0.1,3.9-0.1,5.8
			c0,3.1,0.2,5.6,0.6,8c-26.4,0-46.8,0-55.7,0v1.7c5.9,0,16.9,0,31.3-0.1c0.5,5.1,1.6,10,2.7,14.8c1.1,4.9,2.3,10,2.8,15.2
			c-17.1,0-30.1,0-36.7,0v1.8c5.3,0,14.6,0,26.8,0c-0.1,1-0.3,2.1-0.3,3.2c0,4.6,1.1,9.3,2.1,13.8c0.6,2.4,1.1,4.8,1.5,7.1l2.8-0.3
			c-0.4-2.4-1-4.9-1.5-7.3c-1-4.4-2.1-8.9-2.1-13.3c0-1.1,0.1-2.2,0.3-3.2c13.6,0,30.4,0,49,0c0.8,4.1,1.4,8.2,1.9,12.2
			c0.5,4,1.1,8.2,1.9,12.4c-9.8,0-19.1,0-27.7,0c0,0,0,0,0,0l-0.2,0c-25.9,0-45.8,0-54.6,0v1.7c8.4,0,27.5,0,52.2,0
			c0.7,3.4,0.8,6.7,0.8,9.6l0,3.7c0,2.3,0,4.9,0.4,7.5c-25.3,0-44.8,0-53.3,0v1.7c13,0,50.7,0,95.8,0c-0.2,2.8-0.4,5.6-0.6,8.4
			c-0.4,5.3-0.8,10.8-0.8,16.2c0,1.4,0,2.8,0.1,4.2l2.8-0.1c-0.1-1.4-0.1-2.8-0.1-4.1c0-5.3,0.4-10.8,0.8-16.1
			c0.2-2.9,0.4-5.8,0.6-8.6c20.8,0,43.1,0,65.2,0c-0.3,4-0.4,8.3-0.4,13.7c0,2.6,0,5.2,0.1,7.8c0,2.6,0.1,5.2,0.1,7.8H69
			c0-2.6,0-5.2-0.1-7.8c0-2.6-0.1-5.2-0.1-7.8c0-5.5,0.1-9.8,0.5-13.7c27.4,0,54.4,0,77.6,0c0,1-0.1,2-0.1,3c0,2.9,0.1,5.7,0.2,8.5
			c0.1,2.8,0.2,5.6,0.2,8.4c0,3.6-0.2,6.6-0.5,9.5c-97.7-0.1-218.6-0.2-244-0.2v1.8c6.8,0.1,19.9,0.1,37.3,0.2l0,6.4
			c0,9.3-0.1,18.9,0.3,28.2c-17.6,0-30.9-0.1-37.6-0.1v1.7c9.9,0,34.4,0,66,0.1c1.1,4.1,1.3,8,1.3,11.1c0,1.9-0.1,3.9-0.1,5.8
			c-0.1,1.9-0.1,3.9-0.1,5.8c0,1.1,0,2.1,0.1,3.1c-32,0-57-0.1-67-0.1v1.8c3.9,0,10.1,0.1,18.1,0.1c0.9,3.9,1.3,7.9,1.7,11.8
			c0.4,4.7,0.9,9.7,2.3,14.5c-9.9,0-17.5,0-22.1,0v1.7c9,0,29.8,0,56.9,0.1c0.5,3,0.9,6,1.3,9c0.7,6,1.5,12.1,3.6,18.2
			c-29.5,0-52.3,0.1-61.8,0.1v1.7c11,0,39.8-0.1,76.4-0.1c-0.9,12.4-0.9,25.2-0.9,37.5h2.8c0-12.4,0-25.1,0.9-37.5
			c17.1,0,35.7,0,54.9-0.1c0,1.8-0.1,3.6-0.1,5.4c0,9.5,0.6,19.6,2,32.6c-62.6-0.1-119.4-0.1-136.1-0.2v1.7c5.7,0,16.3,0,30.2,0.1
			c0,0.8,0.1,1.6,0.1,2.5c0,3.4-0.2,6.9-0.4,10.2c-0.2,3.4-0.4,6.8-0.4,10.3c0,2.4,0.1,4.6,0.3,6.6l2.8-0.2c-0.2-2-0.3-4.1-0.3-6.4
			c0-3.4,0.2-6.9,0.4-10.2c0.2-3.4,0.4-6.9,0.4-10.4c0-0.8,0-1.6-0.1-2.5c16.9,0,38.2,0,61.9,0.1c-0.1,1.9-0.1,3.7-0.1,5.6
			c0,4.3,0.2,8.6,0.3,12.9c0.1,3.8,0.2,7.6,0.3,11.5c-45.4-0.1-82.5-0.1-95.4-0.2v1.8c4.5,0.1,11.6,0.1,20.9,0.1
			c0.5,3.3,1,6.7,1.5,10c1.3,9.6,2.6,19.6,6.6,29.1c-13.3,0-23.4-0.1-29-0.1v1.8c7.1,0.1,21.3,0.1,40,0.2c-0.2,2.4-0.4,4.8-0.4,7.4
			c0,4.1,0.3,8.6,0.9,13.7c-17.7,0-32.3,0-40.5,0v1.7c11.6,0,35.9-0.1,65.1-0.1c-0.1,3.1-0.3,6.2-0.5,9.3c-0.3,3.6-0.5,7.3-0.5,11
			c0,3.6,0.3,6.9,0.9,9.9c-29.3,0-53.5,0-65,0v1.8c47.3,0.1,314,0.2,336.4,0.3C289.9,548.5,361.7,548.7,373.2,548.8z M414.6,531.5
			c-0.5,5.2-0.9,10.3-1.4,15.8c-24.9-0.1-50.2-0.3-75.4-0.8c-0.5-5.2-1-10.1-1.5-15c-0.5-5-1-9.9-1.5-15.3l-3,0.1
			c0.5,5.4,1,10.4,1.5,15.3c0.5,4.8,1,9.6,1.5,14.8c-2.2,0-37.9-0.1-73.4-0.1c0.2-2.6,0.4-5.3,0.6-7.9c0.5-7.5,1-15.3,2.8-22.8
			c58.5-0.3,130.9-0.5,151.3-0.6C415.6,520.8,415.1,526.1,414.6,531.5z M183.8,514.4C183.8,514.4,183.8,514.4,183.8,514.4
			c-27.5,0-61.7,0.1-96.9,0.1c0.1-1.1,0.1-2.2,0.1-3.3c0-2.1-0.1-4.3-0.2-6.4c-0.1-2.1-0.2-4.2-0.2-6.3c0-1.7,0.1-3.3,0.3-4.7
			c22.6,0,44.8,0.1,65.2,0.1c-0.3,3.1-0.5,6.2-0.6,9.3c-0.1,3.5-0.2,7.1-0.7,10.7l2.8,0.3c0.5-3.6,0.6-7.3,0.7-10.9
			c0.1-3.1,0.2-6.2,0.6-9.3c23.1,0,43.8,0.1,59.6,0.1c-0.1,6.3-0.4,12.6-0.8,18.8l-0.1,1.5c-7.8,0-16.9,0-26.9,0c0,0,0,0,0,0H183.8z
			 M57.3,452.9c23,0.1,46.4,0.1,68.5,0.2c0.3,2.1,0.5,4.2,0.5,6.4c0,6-1.1,12.2-2.2,18.1c-0.9,4.6-1.7,9.5-2.1,14.3
			c-19,0-38.9-0.1-58.6-0.1c0-0.3,0.1-0.7,0.1-1C63.4,490.4,58.8,468.3,57.3,452.9z M64.3,419.1c-8.3,0-16.6,0-24.9,0l2.2-0.2
			c-1.4-12.9-2-22.9-2-32.4c0-1.8,0-3.6,0.1-5.5c22.2,0,45.1,0,67.2-0.1c0.1,3.7,0.2,7.4,0.2,11.1c0.1,8.9,0.2,18,1.4,27
			c-13.6,0-27.5,0-41.4,0c0,0,0,0,0-0.1L64.3,419.1C64.2,419.1,64.3,419.1,64.3,419.1z M-4.4,346.5c0-3.9,0.3-7.9,0.5-11.7
			c0.2-3.4,0.4-7,0.5-10.5c24.3,0,50.9,0.1,77.2,0.1c0.5,3.8,0.6,7.5,0.6,11.3l0,2.5c0,4.1,0.1,8.2,0.7,12.4c-28,0-56.3,0-81.8-0.1
			l2.4-0.1C-4.3,349.1-4.4,347.8-4.4,346.5z M47.7,369c0.5-3.6,1-7.3,1-11.1c0-2.1-0.2-3.9-0.5-5.8c23.4,0,47.4,0,70,0
			c0.5,3.6,0.8,7.5,0.8,11.9c0,3.7-0.3,8.5-0.5,12.7l-0.1,2.4c-23.2,0-47.7,0-71.6,0.1C46.8,375.9,47.2,372.6,47.7,369z M77.2,338.1
			l0-2.5c0-3.8-0.1-7.5-0.6-11.3c29.3,0.1,57.9,0.1,82.1,0.2c0,8.5,0,17.3-0.5,25.9l2.8,0.1c0.4-8.6,0.5-17.4,0.5-26
			c34.3,0.1,59.3,0.1,63.8,0.2c1.8,0,3.7,0.1,5.7,0.1c0,0,0,0,0,0.1h0.3c0.3,2.2,0.7,8.3,0.7,12c0,4.2-0.2,9.8-0.4,13.9
			c-6,0-15.2,0-27-0.1c0,0,0,0,0,0l-0.3,0c-31.2,0-79.6-0.1-128.8-0.1l2.4-0.3C77.3,346.2,77.2,342.2,77.2,338.1z M142.3,296.6
			c26.4,0,49.4,0,65.3,0c0.3,3.9,0.4,7.8,0.4,11.4l0,7.1c0,2.5,0,5,0.2,7.5c-15.4,0-39.3-0.1-67.2-0.1c0.2-2.9,0.4-5.7,0.6-8.6
			c0.4-4.8,0.8-9.7,0.8-14.6C142.3,298.4,142.3,297.5,142.3,296.6z M149.9,240.6c-0.1-2.8-0.2-5.6-0.2-8.4c0-1,0-2,0.1-3
			c27.8,0,49.9,0,60.5,0c0,3.8-0.1,7.5-0.3,11.3c-0.2,4.2-0.3,8.3-0.3,12.5c0,1.9,0,3.8,0.1,5.6c-18,0-38.5,0-60.2-0.1
			c0.3-2.9,0.5-5.9,0.5-9.5C150.1,246.2,150,243.4,149.9,240.6z M148.1,178.3c-22.3,0-48.7,0-75.8,0v-30.2c28.1,0,55.8,0,79.6-0.1
			c-1.4,4.9-1.6,9.9-1.9,14.8c-0.2,5.1-0.5,10.4-2.1,15.5L148.1,178.3z M-39.4,138.5c0-1.9,0.1-3.8,0.1-5.7c0.1-1.9,0.1-3.8,0.1-5.7
			c0-0.6,0-1.1,0-1.7c17.1,0,36.6,0.1,57.1,0.1c0,1-0.1,2-0.1,3c0,3,0.1,5.9,0.3,8.9c0.1,2.9,0.3,5.9,0.3,8.9h2.8
			c0-3.1-0.2-6.1-0.3-9c-0.1-2.9-0.3-5.8-0.3-8.8c0-1,0-2,0.1-3c23.4,0,48.1,0.1,71.8,0.1c-0.1,3.8-0.5,7.8-1,11.7
			c-0.4,3-0.8,6.1-1,9.1l2,0.1c-45.4,0-94.1,0-131.4,0.1l0.1,0C-39.2,144.2-39.4,141.7-39.4,138.5z M44.9,82.7
			c-26.2,0-51.6-0.1-73.8-0.1c-0.6-4.7-1.5-9.3-2.4-13.8c-1-5.3-2-10.7-2.6-16.2c23.8,0,51.8,0,80.5,0.1c-0.1,1.4-0.3,3.5-0.4,7.1
			C45.9,67.7,45.3,79.5,44.9,82.7L44.9,82.7z M-4.7,51l1.8-0.1c-0.2-3-0.3-6.2-0.3-9.8c0-4.9,0.2-9.9,0.4-14.8
			c0.2-4.3,0.3-8.8,0.4-13.2c20.5,0,42.5,0,64.3,0c-0.2,5.5-0.3,10.6-0.3,15.3c0,7.9,0.3,15.3,0.8,22.6c-4.3,0-8.7,0-13,0
			c-0.2-0.3-0.5-0.6-1.2-0.6c-0.6-0.1-0.9,0-1.2,0.6C29.2,51,11.7,51-4.7,51z M136.1,13.1c0,12.3,0,25.1,1.4,38l2.8-0.2
			c-1.4-12.8-1.4-25.5-1.4-37.8c39.3,0,68.5-0.1,71.8-0.1c9.6-0.1,21.7-0.1,34.7-0.2c-1.2,7.4-1.6,15-2,22.3
			c-0.3,5.3-0.5,10.7-1.1,16.1l0.7,0.1c-2.4,0-4.8,0-7.1,0c-10.8-0.1-91.2-0.1-170.9-0.2c-0.5-7.3-0.8-14.7-0.8-22.6
			c0-4.7,0.1-9.8,0.3-15.3C89.7,13.1,114.3,13.1,136.1,13.1z M86,11.4c0-7.2,0.8-14.7,1.6-22c0.2-1.7,0.4-3.5,0.5-5.2
			c48.1,0,91.6,0,110.7,0c-0.2,2.8-0.3,5.7-0.5,8.5c-0.4,6.1-0.8,12.4-0.9,18.6C175.9,11.3,132.9,11.3,86,11.4z M290.7-15.5
			c33.5,0.1,63.7,0.3,69.1,0.4c0.6,5.2,0.6,10.5,0.7,15.5c0,3.4,0.1,6.8,0.3,10.3c-1.5,0-3.1,0-4.6,0c-5,0-34.5,0.1-67.3,0.2
			c0.2-3.2,0.5-6.5,0.9-9.6c0.5-4.8,1-9.8,1-14.6C290.7-14.1,290.7-14.8,290.7-15.5z M335.4,12.5c-0.5,6.5-1.4,12.9-2.2,19.2
			c-0.9,6.5-1.8,13.2-2.3,19.9c-27.2-0.1-58.8-0.1-85.6-0.3c0.6-5.4,0.8-10.8,1.1-16.1c0.4-7.4,0.8-15.1,2-22.5
			C278.6,12.6,313.5,12.5,335.4,12.5z M360.6,83.9c-6.8-0.2-50.5-0.5-92.2-0.7c0.2-4.4,0.7-8.9,1.1-13.2c0.6-5.5,1.1-11.3,1.2-17
			c40.8,0.1,82.8,0.2,89,0.3c0.4,2.8,0.6,5.9,0.6,9.6c0,2,0,4-0.1,6c0,2-0.1,4-0.1,6C360.1,78.3,360.3,81.2,360.6,83.9z
			 M397.7,106.2c0.5,6.2,1,12.4,1.5,18.9c-9.8-0.1-39.9-0.2-74.4-0.4c0.6-4.5,1.2-9.1,1.8-13.6c1.1-8.4,2.2-17.1,3.6-25.6
			c24.1,0.5,46.7,0.9,67.4,1.3l-1.3,0C396.7,93.6,397.2,99.9,397.7,106.2z M507.9,125.1c-7.8,0-15.7,0-23.5,0.1
			c-15.6,0.1-31.2,0.1-46.8,0.1c-11.6,0-23.5,0-35.4-0.1c-0.5-6.6-1-12.8-1.5-19c-0.5-6.3-1-12.6-1.5-19.3c30,0.6,55.8,1.1,75.5,1.5
			c11.6,0.2,23.4,0.5,35.1,0.7c-1.4,8.9-2.1,18.4-2.1,28.3C507.7,120,507.8,122.5,507.9,125.1z M437.6,127c5.6,0,11.3,0,16.9,0
			c-0.1,1.8-0.2,3.8-0.2,6c0,2.2,0.1,4.5,0.1,6.7c0,1.9,0.1,3.7,0.1,5.6c-2.9,0-5.8,0-8.7,0c-32,0-62.6,0.2-92.6,0.7
			c-0.2-3.1-0.3-6.1-0.3-9.2c0-3.3,0.1-6.6,0.4-9.9C390.9,127,423.7,127,437.6,127z M531.9,147.5c0.1,1.3,0.1,2.5,0.1,3.8
			c0,5.2-0.4,10.5-0.8,15.6c-0.3,4.4-0.6,8.9-0.7,13.3c-32-0.6-63.9-0.7-95.2-0.8c-6.3,0-12.6,0-19-0.1c0.5-5.5,0.9-10.6,1.4-15.8
			c0.5-5.4,1-10.8,1.5-16.6c8.8,0,17.7-0.1,26.7-0.1C473.6,146.9,502.2,147.1,531.9,147.5z M440.5,229.2c-0.9,0-1.9,0-2.8,0
			c0.5-6.8,1.1-13.8,3.3-20.4l-2.9-0.3c-2.3,6.7-2.9,13.8-3.4,20.7c-2,0-4-0.1-5.9-0.1c-28.1-0.4-56.8-0.8-85.4-1.4
			c0.1-1.7,0.2-3.3,0.2-5c0.2-5.4,0.3-10.9,1.7-16.2c26.7,0.2,53.8,0.9,80,1.6c5.9,0.2,11.8,0.3,17.8,0.5c-0.3,2-0.6,4.1-1,6.1
			c-0.8,4.7-1.6,9.5-1.6,14.2C440.5,229,440.5,229.1,440.5,229.2z M347.7,259c-3-0.1-21.4-0.2-44.8-0.2v-29.4
			c23.4,0.1,41.9,0.1,44.8,0.2c-0.3,5.3-0.4,10.4-0.4,15.5C347.4,249.7,347.5,254.3,347.7,259z M280.7,227.5c0-0.3,0-0.6,0-0.8
			c0-2.9,0.4-5.9,0.8-8.9c0.4-3,0.8-6.1,0.8-9.2c0-0.7-0.1-1.5-0.1-2.2c26.5,0,48.7,0,50.1,0c3.3,0,6.7,0,10,0.1
			c-1.4,5.4-1.5,10.9-1.7,16.2c0,1.7-0.1,3.3-0.2,5C337.7,227.6,311,227.5,280.7,227.5z M300.1,229.4v29.4c-8.4,0-17.4-0.1-26.5-0.1
			c-8.5,0-31-0.1-61-0.1c-0.1-1.9-0.1-3.8-0.1-5.6c0-4.1,0.2-8.3,0.3-12.4c0.1-3.8,0.3-7.6,0.3-11.4c1.7,0,2.9,0,3.6,0
			C239.6,229.2,272.8,229.3,300.1,229.4z M373.2,205.1c-13.7-0.3-27.4-0.4-41-0.4c-1.1,0-13.8,0-31.3,0c2.8-8,3.8-16.3,4.2-24.1
			c32.7,0.1,61.2,0.2,68.1,0.2V205.1z M237.2,146.3c-4.3,0-8.4,0-12.3,0c-4.3,0-23.6,0-50.9,0c1.7-6.9,2.6-13.9,3.5-20.7
			c26.2,0.1,44.4,0.1,48,0.2c9.6,0.1,20.4,0.3,31.8,0.4c0.2,1.6,0.4,3.2,0.4,5.1c0,2.7-0.3,5.5-0.5,8.2c-0.2,2.2-0.4,4.5-0.4,6.8
			c-5.7,0-11.2,0-16.6,0c0,0,0-0.1,0-0.1L237.2,146.3C237.2,146.3,237.2,146.3,237.2,146.3z M112.8,66.1c-0.1-2.5-0.2-5.1-0.2-7.6
			c0-2.1,0.1-4,0.2-5.7c23.9,0,46.5,0,65.6,0c-0.3,2.5-0.4,5.3-0.4,8.5c0,2,0,4,0.1,6c0,2,0.1,4,0.1,6c0,2.7-0.2,6.9-0.4,8.8h-0.2
			c0,0.4,0,0.6,0,0.8c-19,0-41.5,0-65.2-0.1c0.4-2.7,0.5-5.6,0.5-9C113,71.2,112.9,68.6,112.8,66.1z M227.1,84.7
			c-1.4,7.3-1.8,14.9-2.1,22.2c-0.3,5.6-0.6,11.4-1.3,17.2c-6.3,0-23.9-0.1-48.1-0.1l-0.7-0.1l0,0.1c-10.6,0-22.4,0-35-0.1
			c0-3.5,0-7,0.1-10.4c0-3.5,0.1-6.9,0.1-10.4c0-6.1-0.1-11.7-0.5-18.4C171.4,84.6,201.7,84.6,227.1,84.7z M181,67.3
			c0-2-0.1-4-0.1-6c0-3.3,0.2-6,0.4-8.5c28.3,0,48.7,0,54,0.1c10.2,0,21.3,0.1,32.6,0.1c-0.1,5.7-0.6,11.3-1.2,16.8
			c-0.4,4.4-0.9,8.9-1.1,13.4c-11-0.1-21.8-0.1-31.7-0.2c-5.2,0-25.3-0.1-53.3-0.1c0.3-1.4,0.4-4.2,0.4-9.6
			C181.1,71.3,181,69.3,181,67.3z M350.2,146c-5.2,0.1-49.7,0.2-90.7,0.3c0.1-2.2,0.2-4.4,0.4-6.6c0.2-2.7,0.5-5.5,0.5-8.3
			c0-1.8-0.1-3.5-0.4-5.1c28.4,0.3,60.6,0.4,90.2,0.5c-0.2,3.3-0.4,6.6-0.4,9.9C349.9,139.8,350,142.9,350.2,146z M321.9,124.7
			c-32.5-0.2-68.6-0.4-95.4-0.7c0.7-5.7,1-11.5,1.3-17.1c0.4-7.4,0.8-14.9,2.2-22.3c35.4,0,60.4,0.1,65,0.2
			c11,0.2,21.8,0.4,32.4,0.6c-1.4,8.4-2.5,17-3.6,25.4C323.1,115.5,322.5,120.1,321.9,124.7z M174.6,125.7
			c-0.9,6.8-1.8,13.8-3.5,20.7c-22.2,0-49.3,0-77.7,0c0.2-2.9,0.6-6,1-8.9c0.5-3.9,1-8,1.1-11.9
			C124.6,125.6,152.3,125.7,174.6,125.7z M240.2,151.7c0-1.3,0-2.6-0.1-4c5.3,0,10.8-0.1,16.5-0.1c0,0.1,0,0.1,0,0.2h2.8
			c0-0.1,0-0.1,0-0.2c22.9-0.1,48.2-0.2,72-0.3c0.5,5.4,1.4,11.5,1.9,16.4c0.5,4.8,1,9.6,1.5,14.8c-2.7,0-56.1-0.1-97.4-0.2
			C239.2,169.6,240.2,160.6,240.2,151.7z M337.8,178.6c-0.5-5.2-1-10.1-1.5-15c-0.5-4.9-1.4-11-1.9-16.3c36.7-0.1,69.1-0.2,81.7-0.3
			c-0.5,5.7-1,11.1-1.5,16.5c-0.5,5.2-0.9,10.3-1.4,15.8C388.3,179.2,363,179,337.8,178.6z M286.8,1c-0.3,3.3-0.7,6.6-0.9,9.9
			c-13,0-26.5,0.1-39.1,0.2l-1.1-0.1c0,0,0,0.1,0,0.1c-5,0-9.9,0-14.5,0.1c0.5-4.6,1.3-9.3,2-13.9c0.7-4.2,1.4-8.6,1.9-12.9
			c16.2,0.1,34.8,0.1,52.7,0.2c0,0.7,0.1,1.4,0.1,2.1C287.9-8.7,287.3-3.8,286.8,1z M230.4-3.1c-0.8,4.7-1.6,9.5-2.1,14.2
			c-6,0-11.6,0.1-16.6,0.1c-1.2,0-5.2,0-11.5,0c0-6.1,0.4-12.4,0.9-18.4c0.2-2.9,0.4-5.8,0.5-8.7c3.9,0,6.4,0,7.2,0
			c6.7,0,14.7,0.1,23.4,0.1C231.8-11.5,231.1-7.2,230.4-3.1z M84.8-10.9C84-3.6,83.2,4,83.2,11.4c-33.3,0-68.3,0-98.8,0.1
			c-0.7-5.4-0.8-10.7-0.9-16c0-3.7-0.1-7.5-0.4-11.4c31.5,0,68,0,102.3,0C85.2-14.2,85-12.6,84.8-10.9z M49.1,59.9
			c0.1-3,0.3-5.8,0.4-7.2c20.2,0,40.8,0,60.5,0c-0.1,1.8-0.2,3.6-0.2,5.7c0,2.6,0.1,5.1,0.2,7.7c0.1,2.5,0.2,5.1,0.2,7.6
			c0,3.4-0.2,6.3-0.5,8.9l0.8,0.1c-20.4,0-41.7,0-62.7-0.1C48.2,79.2,48.7,68.1,49.1,59.9z M64.7,103.8c0.3-6.5,0.7-12.9,0.9-19.3
			c23.5,0,47.7,0,71,0c0.4,6.7,0.5,12.3,0.5,18.4c0,3.4,0,6.9-0.1,10.4c0,3.5-0.1,6.9-0.1,10.4c-22.8,0-48-0.1-73.3-0.1
			C64,117.1,64.3,110.5,64.7,103.8z M152.9,162.9c0.2-4.9,0.5-10,1.9-14.9c36.7,0,63.6-0.1,67.8-0.1c4.6,0,9.5-0.1,14.7-0.1
			c0,1.3,0.1,2.6,0.1,3.9c0,8.9-1,17.8-2.9,26.6c-8.9,0-17.2,0-24.2,0c-3.1,0-26.6,0-59.5,0C152.4,173.2,152.6,167.9,152.9,162.9z
			 M223.5,192.4c0.3-4,0.7-8,0.9-12.1c22.2,0.1,51.2,0.2,77.9,0.3c-0.5,7.9-1.4,16.1-4.3,24.1c-22.9,0-52.7,0-75.4,0
			C222.9,200.5,223.2,196.5,223.5,192.4z M279.4,206.4c0.1,0.7,0.1,1.5,0.1,2.2c0,2.9-0.4,6-0.8,8.9c-0.4,3-0.8,6.1-0.8,9.1
			c0,0.3,0,0.6,0,0.8c-21.4,0-44.2-0.1-61.3-0.1c-2.3,0-11.1,0-24.5,0c0.1-0.6,1-11.2,2.5-20.9c10.4,0,17.2,0,19,0
			C231.6,206.4,256.8,206.4,279.4,206.4z M235,261c0.9,4.1,1.4,8.5,1.4,13.9c0,3.6-0.2,7.2-0.4,10.7c-0.2,3.1-0.3,6.4-0.3,9.6
			c-2.4,0-4.7,0-6.9-0.1c-2.3,0-8.8,0-18.4-0.1c0-0.1,0-0.1,0-0.2l-2.8,0.2c-9.7,0-22.1,0-36.5-0.1c-0.9-12-1.8-22.9-3.1-34.2
			C193.5,260.9,216.6,261,235,261z M277.9,296.8c33.4,0.1,64.2,0.2,67.8,0.3c0,8.9,0.5,17.3,0.9,26.3c-3.9-0.2-36.1-0.3-70.5-0.5
			c1.1-5.7,2.2-12.2,2.2-18.9C278.5,301.5,278.2,299.1,277.9,296.8z M360.6,451.9c-4.8-0.2-27.8-0.3-55.5-0.5c0-0.9-0.1-1.8-0.1-2.7
			c0-5.3,0.6-10.9,1.1-16.3c0.4-3.7,0.8-7.6,1-11.3c26.6,0.1,48.3,0.1,52.7,0.2c0.4,2.8,0.6,5.9,0.6,9.6c0,2,0,4-0.1,6
			c0,2-0.1,4-0.1,6C360.1,446.4,360.3,449.3,360.6,451.9z M507.9,493.1c-7.8,0-15.7,0-23.5,0.1c-15.6,0.1-31.2,0.1-46.8,0.1
			c-11.6,0-23.5,0-35.4-0.1c-0.5-6.6-1-12.8-1.5-19c-0.5-6.1-1-12.2-1.5-18.7c32.5,0.3,60.2,0.7,75.5,1c11.6,0.2,23.4,0.5,35.1,0.7
			c-1.4,8.9-2.1,18.4-2.1,28.3C507.7,488,507.8,490.6,507.9,493.1z M437.6,495c5.6,0,11.3,0,16.9,0c-0.1,1.8-0.2,3.8-0.2,6
			c0,2.2,0.1,4.5,0.1,6.7c0,1.9,0.1,3.7,0.1,5.6c-2.9,0-5.8,0-8.7,0c-32,0-62.6,0.2-92.6,0.7c-0.2-3.1-0.3-6.1-0.3-9.2
			c0-3.3,0.1-6.6,0.4-9.9C390.9,495,423.7,495,437.6,495z M254.9,492.3c0.6-4.1,1.4-8.3,2.1-12.3c1.6-8.5,3.2-17.3,3.3-26.1
			c22.5,0.3,47.4,0.6,72.4,0.9c0,0.6,0,1.2,0,1.8c0,9.5-1.4,18.8-2.9,28.6c-0.4,2.4-0.7,4.8-1.1,7.3l2.8,0.3
			c0.3-2.4,0.7-4.8,1.1-7.3c1.4-9.4,2.9-19.2,2.9-28.9c0-0.6,0-1.2,0-1.8c20.8,0.2,41.5,0.4,60.6,0.7c0.5,6.5,1,12.7,1.5,18.8
			c0.5,6.2,1,12.4,1.5,18.9C382.8,493,310.8,492.8,254.9,492.3z M350.2,514c-3.7,0.1-27,0.1-54.8,0.2c0.2-2.2,0.6-4.5,1-6.9
			c0.6-3.1,1.2-6.4,1.2-9.6c0-1.1-0.2-2.1-0.3-3.1c17.7,0.1,35.8,0.2,52.9,0.3c-0.2,3.3-0.4,6.6-0.4,9.9
			C349.9,507.8,350,510.9,350.2,514z M219.7,451c-18.4,0-45.2-0.1-75.6-0.1c-0.4-2.9-0.5-6-0.5-9.6c0-3.5,0.2-7.1,0.3-10.6
			c0.1-3.3,0.3-6.6,0.3-9.9c32.5,0,60.7,0,78.9,0.1c-0.4,3.5-0.9,7-1.5,10.4c-0.9,5.3-1.9,10.8-1.9,16.3
			C219.5,448.7,219.6,449.8,219.7,451z M179.5,492c-16.6,0-35.1-0.1-54.7-0.1c0.4-4.7,1.2-9.4,2-13.9c1.1-6,2.3-12.3,2.3-18.5
			c0-2.3-0.2-4.4-0.5-6.4c18.5,0.1,36,0.1,51.5,0.2c-0.1,0.9-0.1,2-0.1,3.5c0,4.6-0.2,9.3-0.4,13.8c-0.2,4.5-0.4,9.2-0.4,13.9
			C179.3,487.2,179.4,489.7,179.5,492z M204.8,352.3c16.8,0,28.5,0,32.5,0c16.6,0.1,35.4,0.1,53.3,0.2c0,0.8-0.1,1.7-0.1,2.5
			c0,2.3,0.1,4.6,0.1,7c0.1,2.3,0.1,4.7,0.1,7c0,3.3-0.1,6.9-0.4,9.9c-16.9,0.1-34.8,0.1-50.8,0.2c-4.6,0-18.6,0-38.3,0.1
			c0-0.9-0.1-2-0.1-2.5c0-3.6,1-7.3,1.9-10.8c1-3.6,1.9-7.4,1.9-11.2C205,353.8,204.8,353.1,204.8,352.3z M262.8,380.7
			c0,12.6,0,25.6-1.8,38.7c-6.6,0-13-0.1-19.1-0.1c-5.4,0-24.8-0.1-51.8-0.1c0.1-2.1,0.1-4.2,0.2-6.3c0.3-10.8,0.7-21.9,2.4-32
			c24.2,0,41.4-0.1,46.6-0.1C246.7,380.8,254.7,380.8,262.8,380.7z M200.3,365.3c-1,3.7-2,7.4-2,11.3c0,0.5,0,1.6,0.1,2.5
			c-21,0-48,0.1-77.2,0.1l0.1-2.3c0.2-4.3,0.5-9.1,0.5-12.9c0-4.4-0.3-8.3-0.8-11.9c31.1,0,59.6,0,80.8,0.1c0.1,0.8,0.2,1.5,0.2,2.3
			C202.1,358.2,201.2,361.7,200.3,365.3z M189.8,380.9c-1.7,10.2-2.1,21.2-2.4,32c-0.1,2.1-0.1,4.2-0.2,6.3c-21.7,0-48-0.1-75.9-0.1
			c-1.3-9-1.4-18.2-1.4-27.1c0-3.7-0.1-7.4-0.2-11.1C139.3,381,167.3,381,189.8,380.9z M224.2,431.6c0.6-3.5,1.2-7.1,1.6-10.7
			c8.1,0,13.9,0,16.6,0c19.7,0.1,42,0.1,61.8,0.2c-0.2,3.7-0.6,7.5-0.9,11.1c-0.6,5.4-1.1,11-1.1,16.5c0,0.9,0,1.8,0.1,2.7
			c-18.9-0.1-39.8-0.2-58.4-0.4c-3.3,0-10.8,0-21.3-0.1c-0.1-1.2-0.2-2.3-0.2-3.5C222.4,442.2,223.3,436.8,224.2,431.6z
			 M342.8,402.7c-0.6,4.7-1.2,9.6-1.2,14.4c0,0.8,0,1.6,0.1,2.5c-23.6,0-51.9-0.1-77.9-0.2c1.8-13.1,1.8-26.1,1.8-38.7
			c29.6-0.1,60.5-0.2,77.6-0.2c0.5,2.5,0.7,5.1,0.7,8C344,393.2,343.4,398.1,342.8,402.7z M293.2,378.9c0.4-3,0.4-6.6,0.4-9.9
			c0-2.3-0.1-4.7-0.1-7c-0.1-2.3-0.1-4.6-0.1-6.9c0-0.8,0-1.7,0.1-2.5c32.4,0.1,61,0.3,66.3,0.4c0.6,5.2,0.6,10.5,0.7,15.5
			c0,3.4,0.1,6.8,0.3,10.3c-1.5,0-3.1,0-4.6,0C351.4,378.7,324.3,378.8,293.2,378.9z M324.3,335.8c-0.5,4.3-1.1,10.1-1.1,15.6
			c-3.7,0-7.5-0.1-11.3-0.1c0.3-2.7,0.9-5.5,1.5-8.2c0.9-4,1.8-8.1,1.8-12.3c0-1.8-0.2-3.4-0.6-5c3.4,0,6.7,0.1,10,0.1
			c0,0.5,0,1,0,1.5c0,1,0.1,2,0.1,3.1C324.8,331.4,324.6,333.4,324.3,335.8z M311.8,325.8c0.4,1.6,0.6,3.2,0.6,5
			c0,3.9-0.9,7.9-1.7,11.8c-0.6,2.8-1.2,5.7-1.5,8.6c-5.2,0-10.4-0.1-15.7-0.1c0-0.1,0-0.2,0-0.2l-2.8-0.1c0,0.1,0,0.2,0,0.3
			c-18.4-0.1-36.8-0.2-52.9-0.3c-0.8,0-1.9,0-3.2,0c0.2-4,0.4-9.6,0.4-13.9c0-6.5-0.3-10-0.7-12
			C257.1,325.2,285.4,325.5,311.8,325.8z M273.4,322.9c-13.8-0.1-27.9-0.2-40.4-0.2c-0.1,0-0.2,0-0.4,0c-0.1,0-0.2,0-0.4,0
			c-2.3,0-4.6,0-6.8,0c-2,0-7,0-14.5,0c-0.1-2.5-0.2-5-0.2-7.5l0-7.1c0-3.6-0.1-7.4-0.4-11.4c9.6,0,16.2,0,18.7,0
			c14,0.1,30.2,0.1,46,0.2c0.3,2.3,0.5,4.6,0.5,7.1C275.6,310.7,274.5,317.2,273.4,322.9z M141.3,420.8c0,3.2-0.1,6.5-0.3,9.8
			c-0.2,3.5-0.3,7.1-0.3,10.7c0,3.6,0.2,6.7,0.5,9.6c-22.5,0-46.8-0.1-71.1-0.1c-1.3-9.6-2.7-20.4-2.9-30
			C92.5,420.8,117.9,420.8,141.3,420.8z M84,493.7c-0.1,1.5-0.2,3-0.2,4.7c0,2.1,0.1,4.3,0.2,6.4c0.1,2.1,0.2,4.2,0.2,6.3
			c0,1.1,0,2.1-0.1,3.2l2.8,0.1l0,0l0,0l0,0c-26.1,0-52.7,0-77.4,0c0.5-3.6,1.3-7.2,2-10.6c0.7-3.3,1.5-6.8,2-10.2
			C36.1,493.6,60.2,493.7,84,493.7z M182.4,492.1c-0.1-2.4-0.2-4.8-0.2-7.6c0-4.6,0.2-9.3,0.4-13.8c0.2-4.5,0.4-9.2,0.4-13.9
			c0-1.9,0-2.9,0.1-3.5c32.3,0.1,55.9,0.2,61.7,0.3c4.1,0.1,8.4,0.1,12.7,0.2c-0.1,8.7-1.7,17.4-3.3,25.8c-0.8,4.2-1.6,8.4-2.2,12.7
			c-2,0-3.9,0-5.8,0C239.6,492.2,215.3,492.1,182.4,492.1z M216.5,513c0.4-6.2,0.8-12.6,0.8-18.9c14.5,0,24.7,0.1,28.4,0.1
			c15,0.2,31.7,0.3,48.8,0.4c0.2,1,0.3,2,0.3,3.1c0,3-0.6,6.2-1.2,9.2c-0.4,2.4-0.9,4.9-1.1,7.3c-8.9,0-18.2,0-27.5,0.1
			c0,0,0,0,0-0.1l-2.8-0.5c-0.1,0.2-0.1,0.4-0.1,0.6c-6.9,0-13.7,0-20.2,0.1c-3.7,0-12.7,0-25.5,0L216.5,513z M531.2,535
			c-0.3,4.4-0.6,8.9-0.7,13.3c-32-0.6-63.9-0.7-95.2-0.8c-6.3,0-12.6,0-19-0.1c0.5-5.5,0.9-10.6,1.4-15.8c0.5-5.4,1-10.8,1.5-16.6
			c8.8,0,17.7-0.1,26.7-0.1c27.8,0,56.3,0.2,86,0.6c0.1,1.3,0.1,2.5,0.1,3.8C531.9,524.5,531.5,529.8,531.2,535z M531.1,494.8
			c7.4,0,14.5,0,21.2,0c0,6.3,0,12.9-0.5,19.2c-32.8-0.5-64-0.8-94.4-0.8c0-1.9,0-3.7-0.1-5.6c-0.1-2.2-0.1-4.4-0.1-6.7
			c0-2.2,0.1-4.2,0.2-6c9,0,17.9,0,26.9-0.1C499.9,494.9,515.5,494.8,531.1,494.8z M450.9,421.1c19.4-0.1,39.6-0.3,59.3-0.3
			c16.3,0,31.1,0.1,45,0.3c0,8.2-0.4,16.4-0.9,24.3c-0.2,3.6-0.4,7.3-0.5,11c-26.6-0.7-53.1-1.2-79.1-1.8
			c-5.6-0.1-11.2-0.2-16.8-0.3c-0.1-3.1-0.2-6.5-0.2-10.3c0-3.8,0.1-7.7,0.1-11.5c0.1-3.8,0.1-7.6,0.1-11.4h-3
			c0,3.8-0.1,7.5-0.1,11.3c-0.1,3.8-0.1,7.7-0.1,11.5c0,3.8,0.1,7.2,0.2,10.2c-30.2-0.6-60.8-1.3-91.3-2.3c-0.3-2.7-0.5-5.6-0.5-9.1
			c0-2,0-4,0.1-6c0-2,0.1-4,0.1-6c0-3.7-0.2-6.8-0.5-9.6c10.2,0.1,19.8,0.1,28.8,0.1C411.4,421.4,431.5,421.3,450.9,421.1z
			 M424.3,418.1l0.2,1.5c-11,0.1-22,0.1-32.9,0.1c-6,0-24.1,0-47.1,0c0-0.8-0.1-1.6-0.1-2.5c0-4.7,0.6-9.5,1.2-14.2
			c0.6-4.7,1.2-9.7,1.2-14.5c0-2.9-0.3-5.5-0.7-8c5.1,0,8.6,0,10,0c21.7,0,43.8,1.1,66.5,2.7l-2.1,0.1
			C421.5,395,422.9,406.2,424.3,418.1z M363.7,378.8c-0.2-3.5-0.2-6.9-0.3-10.3c-0.1-5-0.1-10.2-0.7-15.4
			c33.2,0.9,66.3,2.2,99.2,3.5c0.2,4,0.6,8,0.9,11.9c0.5,5.3,0.9,10.8,1,16.2C429.1,381.8,396,379.2,363.7,378.8z M493.9,358
			c20.6,0.9,41,1.9,61.3,2.8c5.1,0.2,10.1,0.5,15.2,0.7h-2.2c0,6.8,0.5,13.9,0.9,20.7c0.2,3.1,0.4,6.1,0.5,9.1
			c-34.2-0.7-68.9-3.6-102.7-6.4c0,0-0.1,0-0.1,0c-0.1-5.6-0.6-11.2-1-16.6c-0.3-3.8-0.7-7.7-0.9-11.6c8.7,0.4,17.3,0.7,25.9,1.1
			c0,0.1,0,0.1,0,0.2L493.9,358C493.9,358,493.9,358,493.9,358z M427.1,327.8c0,0.1,0,0.2,0,0.3l3,0.1c0-0.1,0-0.2,0-0.3
			c21.2,0.5,42.3,1,63.3,1.4c-0.2,4.1-0.7,8.2-1.2,12.2c-0.6,4.8-1.1,9.7-1.3,14.6c-32.8-1.5-65.9-2.8-99.1-3.9
			c1.3-8.3,2.7-16.8,3.6-25.3C406.1,327.2,416.6,327.5,427.1,327.8z M392.5,326.8c-0.9,8.4-2.3,17-3.6,25.3c-8-0.3-33-0.5-62.8-0.7
			c0-5.4,0.6-11.2,1.1-15.4c0.3-2.5,0.5-4.4,0.5-5.5c0-1,0-2.1-0.1-3.1c0-0.5,0-0.9,0-1.4C358.2,326.3,384,326.6,392.5,326.8z
			 M380.6,296.2c-13.5-0.2-89.6-0.6-142.1-0.9c0-3.2,0.2-6.4,0.3-9.5c0.2-3.5,0.4-7.2,0.4-10.8c0-5.3-0.4-9.8-1.3-13.9
			c17.6,0.1,30.4,0.1,36.2,0.2c13.4,0.1,27.5,0.3,41.6,0.4c0,1.1-0.1,2.2-0.1,3.3c0,4.2,0.2,8.3,0.3,12.5c0.2,4.1,0.3,8.3,0.3,12.4
			c0,1.8,0,3.6-0.1,5.4l2.8,0.1c0.1-1.8,0.1-3.7,0.1-5.5c0-4.2-0.2-8.3-0.3-12.5c-0.2-4.1-0.3-8.3-0.3-12.4c0-1.1,0-2.2,0.1-3.3
			c21.4,0.2,42.8,0.4,62.2,0.6c-0.4,4.6-0.6,9.4-0.6,14.9C380.1,283.6,380.4,290,380.6,296.2z M350.7,259.1c-0.2-4.7-0.3-9.4-0.3-14
			c0-5.1,0.1-10.2,0.4-15.5c20.4,0.4,40.7,0.7,60.9,1v30C391.4,260.1,371.1,259.6,350.7,259.1z M459,263.5c0,11-0.5,22.2-1.4,33.3
			c-4.5,0-9.1,0.1-13.6,0.1c-20,0-40.2-0.2-60.4-0.6c-0.3-6.2-0.5-12.6-0.5-19c0-5.5,0.2-10.3,0.6-14.9c28.9,0.3,52.9,0.6,65.3,0.9
			c4.2,0.1,8.5,0.2,12.8,0.3H459z M443.6,231.2c0-0.1,0-0.1,0-0.2c17.2,0.2,34.5,0.5,51.9,0.8c-0.5,5.2-0.9,10.5-1.2,15.8
			c-0.3,5-0.7,9.9-1.2,14.8c-14.7-0.3-29.4-0.7-43.9-1c-11.4-0.3-22.9-0.5-34.5-0.8v-30c4.7,0.1,9.4,0.1,14.1,0.2
			c2,0,3.9,0.1,5.9,0.1c0,0,0,0,0,0l3,0.1c0,0,0,0,0-0.1c1,0,2,0,3,0c0,0.1,0,0.2,0,0.3L443.6,231.2z M559.7,182.6
			c-0.4,3.3-0.6,6.7-0.8,9.9c-0.3,4.9-0.7,10-1.5,14.9c-12.3,0.3-25.2,0.5-38.9,0.5c-16.4,0-33-0.2-49.4-0.6
			c0.4-5.5,1.6-11.2,2.7-16.7c0.6-3,1.2-6,1.7-8.9l-3-0.2c-0.5,2.9-1.1,5.9-1.7,8.9c-1.1,5.5-2.2,11.3-2.7,16.9
			c-13.7-0.3-27.3-0.6-40.7-1c-16.2-0.4-32.7-0.9-49.2-1.2v-24.3c19.8,0.2,39.5,0.3,59,0.3c31.3,0.1,63.2,0.3,95.2,0.8
			c0,0.2,0,0.4,0,0.6h3c0-0.2,0-0.4,0-0.5C542.2,182.2,550.9,182.4,559.7,182.6z M531.1,126.8c7.4,0,14.5,0,21.2,0
			c0,6.3,0,12.9-0.5,19.2c-32.8-0.5-64-0.8-94.4-0.8c0-1.9,0-3.7-0.1-5.6c-0.1-2.2-0.1-4.4-0.1-6.7c0-2.2,0.1-4.2,0.2-6
			c9,0,17.9,0,26.9-0.1C499.9,126.8,515.5,126.8,531.1,126.8z M450.9,53.1c19.4-0.1,39.6-0.3,59.3-0.3c16.3,0,31.1,0.1,45,0.3
			c0,8.2-0.4,16.4-0.9,24.3c-0.2,3.6-0.4,7.3-0.5,11c-26.6-0.7-53.1-1.2-79.1-1.8c-5.6-0.1-11.2-0.2-16.8-0.3
			c-0.1-3.1-0.2-6.5-0.2-10.3c0-3.8,0.1-7.7,0.1-11.5c0.1-3.8,0.1-7.6,0.1-11.4h-3c0,3.8-0.1,7.5-0.1,11.3
			c-0.1,3.8-0.1,7.7-0.1,11.5c0,3.8,0.1,7.2,0.2,10.2c-30.2-0.6-60.8-1.3-91.3-2.3c-0.3-2.7-0.5-5.6-0.5-9.1c0-2,0-4,0.1-6
			c0-2,0.1-4,0.1-6c0-3.7-0.2-6.8-0.5-9.6c10.2,0.1,19.8,0.1,28.8,0.1C411.4,53.4,431.5,53.2,450.9,53.1z M424.3,50.1l0.2,1.5
			c-11,0.1-22,0.1-32.9,0.1c-7,0-29.8,0-57.8-0.1c0.5-6.6,1.4-13.2,2.3-19.6c0.9-6.3,1.7-12.9,2.2-19.5c9.3,0,15.8,0,17.9,0
			c21.7,0,43.8,1.1,66.5,2.7l-2.1,0.1C421.5,27,422.9,38.2,424.3,50.1z M491-10.2c0,0.1,0,0.1,0,0.2h3c0,0,0,0,0,0
			c20.6,0.9,41,1.9,61.3,2.8c5.1,0.2,10.1,0.5,15.2,0.7h-2.2c0,6.8,0.5,13.9,0.9,20.7c0.2,3.1,0.4,6.1,0.5,9.1
			c-34.2-0.7-68.9-3.6-102.7-6.4c0,0-0.1,0-0.1,0c-0.1-5.6-0.6-11.2-1-16.6c-0.3-3.8-0.7-7.7-0.9-11.6
			C473.7-10.9,482.3-10.6,491-10.2z M462-11.4c0.2,4,0.6,8,0.9,11.9c0.5,5.3,0.9,10.8,1,16.2c-34.9-2.9-68-5.5-100.3-5.9
			c-0.2-3.5-0.2-6.9-0.3-10.3c-0.1-5-0.1-10.2-0.7-15.4C396-14.1,429.1-12.8,462-11.4z M310.8-43.6c37.7,0.5,71.8,0.9,81.9,1.3
			c-0.9,8.8-2.4,17.7-3.8,26.3c-9.4-0.3-42-0.6-78.4-0.8c0.1-1.5,0.1-3.5,0.1-4.9c0-2.3-0.1-4.6-0.1-7c-0.1-2.3-0.1-4.6-0.1-6.9
			C310.3-38.6,310.5-41.1,310.8-43.6z M220.6-44.9c23.7,0.4,56.5,0.8,87.3,1.2c-0.3,2.5-0.4,5.1-0.4,8.1c0,2.3,0.1,4.6,0.1,6.9
			c0.1,2.3,0.1,4.6,0.1,6.9c0,1.4,0,3.4-0.1,4.9c-25.4-0.2-52.4-0.3-74.4-0.5l-0.8-0.1c0,0,0,0,0,0c-4.7,0-9.1-0.1-13.2-0.1
			C219.3-26.5,219.7-35.7,220.6-44.9z M128.1-45.3c44.6,0.1,78.6,0.1,81.7,0.2c2.5,0.1,5.2,0.1,7.9,0.2c-0.9,9.1-1.3,18.4-1.3,27.5
			c-2.6,0-5.2,0-7.6-0.1c-3,0-38.3,0-84.1-0.1c0.3-3.2,0.9-6.5,1.5-9.7c0.9-5,1.9-10.2,1.9-15.5C128.2-43.6,128.2-44.4,128.1-45.3z
			 M30.2-45.4c32.2,0,65.7,0.1,95,0.1c0.1,0.9,0.1,1.7,0.1,2.6c0,5.1-0.9,10.2-1.9,15.1c-0.6,3.3-1.2,6.7-1.6,10
			c-10.8,0-22.2,0-33.9,0l-2.6-0.2c0,0.1,0,0.1,0,0.2c-18.2,0-36.9,0-55.3,0V-45.4z M-18.9-17.6c-17.9,0-34.1,0-47.4,0l1.5,0
			c-0.1-2.9-0.2-5.8-0.2-8.8c0-6.5,0.3-13,0.6-19.1c24,0,57,0.1,91.8,0.1v27.8c-15.4,0-30.4,0-44.4,0c0,0,0-0.1,0-0.1L-18.9-17.6z
			 M-65.8,14.8c0-0.5,0-1.1,0-1.6c16.5,0,37.5,0,60.5,0c0,4.4-0.2,8.8-0.4,13.1C-5.8,31.1-6,36.1-6,41.1c0,3.6,0.1,6.8,0.3,9.9
			c-9.9,0-19.4,0-28.3,0c0,0,0-0.1,0-0.1l-1.4,0.1c-9.9,0-19,0-27.2,0l1.1-0.1c-0.4-3-0.9-6.1-1.4-9.1
			C-64.4,32.5-65.8,23.8-65.8,14.8z M-72.8,82.6c0-0.8,0.1-1.7,0.1-2.5c0-5.3-0.6-10.7-1.3-16c-0.4-3.8-0.9-7.7-1.1-11.5
			c10.5,0,23.6,0,38.4,0c0.6,5.6,1.6,11.2,2.6,16.6c0.8,4.4,1.7,8.9,2.3,13.4C-47.5,82.6-61.5,82.6-72.8,82.6z M-57.2,123.5
			c1.4-13.3,1.9-26.4,2.3-39.1c14.7,0,32.2,0,51.3,0.1c-0.6,3-0.8,5.7-0.8,8.9c0,5.5,0.6,11.1,1.3,16.5c0.5,4.4,1,9.1,1.2,13.5
			l2.8-0.1c-0.2-4.5-0.7-9.2-1.2-13.7c-0.6-5.4-1.3-10.9-1.3-16.3c0-3.3,0.3-5.9,0.8-8.9c19.8,0,41.4,0,63.5,0.1
			c-0.2,6.4-0.6,12.8-0.9,19.2c-0.4,6.7-0.7,13.4-0.9,20c-35.7,0-71.4-0.1-100.2-0.1c0,0,0-0.1,0-0.1l-1.8,0.1
			C-46.7,123.5-52.1,123.5-57.2,123.5z M-57.7,178.3c-0.5-5.4-1.7-10.6-2.8-15.7c-1.1-4.7-2.1-9.5-2.6-14.4c16.8,0,37.8,0,60.8-0.1
			v30h2.8v-30c22,0,45.6,0,69-0.1v30.2C23.4,178.3-24.3,178.3-57.7,178.3z M-15.8,180c24.1,0,51,0,77.6,0c-0.3,2.5-0.6,5-0.9,7.5
			c-0.7,5.5-1.5,11.2-1.8,16.9l2.8,0.1c0.3-5.6,1.1-11.2,1.8-16.7c0.3-2.6,0.7-5.2,1-7.7c25.6,0,50.8,0,72.9,0l0,0.2
			c0.5,8,0.9,16.4,1.8,24.3l2.8-0.2c-0.9-7.9-1.4-16.2-1.8-24.2l0,0c38.9,0,67.7,0,70.9,0.1c3.2,0,6.6,0,10.2,0.1
			c-0.2,4.1-0.6,8-0.9,12c-0.3,4.1-0.7,8.2-0.9,12.4c-1.9,0-3.9,0-5.7,0c-9,0-135.8,0-226.1,0c-0.8-4.3-1.4-8.5-2-12.7
			C-14.5,188.1-15.1,184.1-15.8,180z M28,219.7c-0.2,1.4-0.3,2.4-0.3,2.7c0,0.9,0.1,1.9,0.1,2.8c0,0.7,0.1,1.4,0.1,2.1
			c-25.7,0-50.4,0-71.2,0l2.2-0.2c-0.3-2.6-0.4-5-0.4-7.3l0-3.7c0-2.9-0.1-6.2-0.7-9.6c21,0,45.7,0,71.5,0
			C29.1,211.3,28.4,216.7,28,219.7z M113.9,227.3c-14.4,0-29.5,0-44.7,0l-2.6-0.2c0,0.1,0,0.1,0,0.2c-12,0-24.1,0-35.9,0
			c0-0.7,0-1.4-0.1-2.2c0-0.9-0.1-1.8-0.1-2.7c0-0.3,0.1-1.2,0.3-2.4c0.4-3.1,1.2-8.5,1.3-13.6c27.1,0,55.1,0,80.9,0
			c0.1,1.7,0.2,3.3,0.4,5c0.3,4.1,0.7,8.3,0.7,12.4C114,225,114,226.2,113.9,227.3z M116.7,227.3c0.1-1.1,0.1-2.3,0.1-3.4
			c0-4.2-0.3-8.5-0.7-12.6c-0.1-1.6-0.3-3.3-0.4-4.9c30.8,0,58,0,76,0c-1.5,9.9-2.5,20.7-2.5,20.8l1.4,0.1
			C172.4,227.3,146.1,227.3,116.7,227.3z M89.7,260.7c25.8,0.1,51.6,0.1,75.4,0.2c1.3,11.3,2.2,22.3,3.1,34.2
			c-22.9,0-50.4-0.1-78.8-0.1c0.1-1,0.1-2.6,0.1-5.1c0-2.9-0.1-5.9-0.1-8.8c-0.1-2.9-0.1-5.8-0.1-8.8
			C89.1,267.8,89.3,264.1,89.7,260.7z M87.9,296.6c0.3,0,0.5,0,0.7-0.1c17.6,0,34.8,0,50.9,0c0,0.9,0.1,1.8,0.1,2.7
			c0,4.8-0.4,9.7-0.8,14.4c-0.3,2.9-0.5,5.8-0.7,8.8c-51.7,0-116.3-0.1-165.5-0.1c-0.1-1-0.1-2.1-0.1-3.1c0-1.9,0.1-3.8,0.1-5.8
			c0.1-1.9,0.1-3.9,0.1-5.8c0-3.1-0.2-7-1.2-11.1c24.5,0,53,0,82,0c1.5,6,1.7,12.2,1.7,18.3c0,2.5,0.1,5,0.2,7.5l2.8-0.1
			c-0.1-2.5-0.2-4.9-0.2-7.4c-0.1-6-0.2-12.2-1.7-18.2C66.9,296.5,77.4,296.6,87.9,296.6L87.9,296.6z M14.6,260.5
			c23,0.1,47.6,0.1,72.3,0.2c-0.4,3.4-0.5,7.2-0.5,11.6c0,2.9,0.1,5.9,0.1,8.8c0.1,2.9,0.1,5.8,0.1,8.8c0,1.5,0,3.3,0,4.4h-0.1
			l0,0.7c-23.4,0-47.3,0-70-0.1c-0.2-4.4-0.6-8.8-1-13.1c-0.5-5.6-1.1-11.3-1.1-17C14.4,263.3,14.5,261.9,14.6,260.5z M-58.3,294.8
			l1.4,0c-0.4-9.2-0.3-18.8-0.3-28.1l0-6.4c19.1,0.1,42.9,0.1,68.9,0.2c-0.1,1.4-0.2,2.9-0.2,4.3c0,5.8,0.6,11.6,1.1,17.2
			c0.4,4.2,0.8,8.6,1,12.9c-15,0-29.3,0-42.5-0.1c0,0,0-0.1,0-0.1l-0.5,0.1C-39.9,294.8-49.6,294.8-58.3,294.8z M-37.9,350.3
			l-1.4,0.2c-13,0-24.7,0-34.2,0l1.1-0.3c-1.5-4.8-1.9-9.7-2.3-14.5c-0.3-3.8-0.8-7.7-1.6-11.6c17.4,0.1,42.1,0.1,70.2,0.2
			c0,3.5-0.3,7-0.5,10.4c-0.3,3.9-0.5,7.9-0.5,11.9c0,1.3,0,2.6,0.1,4c-10.8,0-21.1,0-30.7,0C-37.8,350.4-37.8,350.3-37.9,350.3z
			 M-34.8,379.4l2-0.5c-2.1-5.9-2.8-12.1-3.5-18c-0.3-2.9-0.7-5.8-1.2-8.8c24.2,0,53.1,0,83,0c0.3,1.8,0.5,3.7,0.5,5.8
			c0,3.6-0.5,7.3-1,10.8c-0.5,3.5-1,7-1,10.6C15.7,379.3-11.6,379.4-34.8,379.4z M0.4,420.7c20.2,0,42,0,63.9,0
			c0.2,9.7,1.6,20.4,2.9,30c-22.7,0-45.3-0.1-66.3-0.1c0-3.8-0.1-7.7-0.3-11.5c-0.2-4.3-0.3-8.6-0.3-12.9
			C0.3,424.4,0.4,422.6,0.4,420.7z M-9.5,452.7c20,0.1,41.7,0.1,63.9,0.2c1.5,15.5,6.1,37.9,6.2,38.1c0,0.2,0,0.5-0.1,0.8
			c-25.5,0-50.6-0.1-73.2-0.1c0.3-4.7,0.9-9.4,1.4-14c0.9-7.6,1.8-15.4,1.8-23.1C-9.4,454-9.4,453.4-9.5,452.7z M-66.6,491.6
			l1.1-0.3c-4-9.4-5.3-19.4-6.6-29c-0.4-3.2-0.9-6.5-1.4-9.7c15.8,0.1,37.1,0.2,61.2,0.2c0,0.6,0,1.2,0,1.9c0,7.6-0.9,15.4-1.8,22.9
			c-0.5,4.7-1.1,9.5-1.4,14.2C-35,491.7-52.5,491.6-66.6,491.6z M-32.2,514.5c-7.7,0-15,0-21.8,0c-0.6-5.1-0.9-9.6-0.9-13.7
			c0-2.6,0.2-5.1,0.4-7.4c18.4,0.1,40.8,0.1,65.1,0.2c-0.5,3.3-1.2,6.6-1.9,9.8c-0.8,3.6-1.6,7.3-2.1,11.1c-12.6,0-24.7,0-36,0
			c0,0,0-0.1,0-0.1h-2.8C-32.2,514.4-32.2,514.4-32.2,514.5z M-29.5,546.3c-0.6-3-0.9-6.2-0.9-9.9c0-3.6,0.3-7.3,0.5-10.9
			c0.2-3.1,0.4-6.2,0.5-9.4c20.8,0,44.5-0.1,69-0.1c-0.1,1.8-0.1,3.7-0.1,5.5c0,3,0.1,6.1,0.2,9.2c0.1,3,0.2,6.1,0.2,9.1
			c0,2,0,4-0.1,6l2.8,0.1c0.1-2,0.1-4,0.1-6c0-3-0.1-6.1-0.2-9.2c-0.1-3-0.2-6.1-0.2-9.1c0-1.8,0-3.7,0.1-5.5
			c25.4,0,51.6-0.1,76.5-0.1c-1.1,7.5-2.1,16.3-2.1,24.9c0,1.6,0,3.2,0.1,4.8l2.8-0.1c-0.1-1.6-0.1-3.1-0.1-4.7
			c0-8.6,1.1-17.4,2.1-24.9c22.4,0,43.6,0,61.9-0.1c-0.1,4.7-0.3,9.4-0.7,14c-0.3,5.1-0.7,10.4-0.7,15.6h2.8
			c0-5.1,0.4-10.4,0.7-15.5c0.3-4.6,0.6-9.4,0.7-14.1c30.2,0,52.2-0.1,58.2-0.1c5.5,0,11.2-0.1,17.1-0.1c-1.7,7.5-2.3,15.2-2.8,22.7
			c-0.2,2.7-0.4,5.4-0.6,8.1c-6.7,0-13.4,0-19.9,0C220.7,546.3,65.1,546.3-29.5,546.3z"/>
	</g>
	<g class="st2">
		<g class="st3">
			<path class="st1" d="M581.5,457.3c-8.9-0.3-17.9-0.5-26.8-0.8c0.2-3.7,0.3-7.4,0.5-11c0.4-7.9,0.9-16.2,0.9-24.3
				c8.8,0.2,17.2,0.4,25.4,0.6V457.3z"/>
			<path class="st1" d="M452.8,127c-0.1,1.8-0.2,3.8-0.2,6c0,2.2,0.1,4.5,0.1,6.7c0,1.9,0.1,3.7,0.1,5.6c-2.9,0-5.8,0-8.6,0
				c-31.9,0-62.4,0.2-92.3,0.7c-0.2-3.1-0.3-6.1-0.3-9.2c0-3.5,0.1-7,0.4-10.4l-3-0.1c-0.2,3.5-0.4,7-0.4,10.5
				c0,3.1,0.1,6.2,0.3,9.3c-9.5,0.2-441.1,0.4-450.5,0.6v-21.4c18.5,0.7,129.5,0.3,245.9,0.6c132.4,0.3,271.9,1.3,291.5,1.3
				C441.5,127,447.1,127,452.8,127z"/>
			<path class="st1" d="M359.1,368.5c0,3.4,0.1,6.8,0.3,10.3c-1.5,0-3.1,0-4.6,0c-11.5,0-445,0.3-456.4,0.8v-27.5
				c12.6,0.2,447.4,0.5,460,0.9C359,358.2,359,363.4,359.1,368.5z"/>
			<path class="st1" d="M414.6,179.3c0.5-5.5,0.9-10.6,1.4-15.8c0.5-5.4,1-10.8,1.5-16.6c8.8,0,17.6-0.1,26.6-0.1
				c27.7,0,56.1,0.2,85.7,0.6c0.1,1.3,0.1,2.5,0.1,3.8c0,5.2-0.4,10.5-0.8,15.6c-0.3,4.4-0.6,8.9-0.7,13.3
				c-31.9-0.6-63.7-0.7-94.8-0.8C427.3,179.4,420.9,179.4,414.6,179.3z"/>
			<path class="st1" d="M346.1,245c0,4.6,0.1,9.2,0.3,13.9c-8.6-0.2-439.4-0.5-448-0.7V229c8.6,0.2,439.4,0.4,448,0.6
				C346.2,234.8,346.1,239.9,346.1,245z"/>
			<path class="st1" d="M531.3,295.6c1.2-4.7,2-9.5,2.8-14.1c0.9-5.3,1.7-10.7,3.2-15.9l-2.9-0.3c-1.5,5.3-2.4,10.7-3.2,16
				c-0.8,4.7-1.6,9.6-2.8,14.4c-23.2,0.6-46.3,0.9-69.4,1c0.9-11.1,1.4-22.2,1.4-33.3c40,0.9,80.8,1.9,121.3,3.1V294
				C564.8,294.7,548,295.2,531.3,295.6z"/>
			<path class="st1" d="M493.5,231.8c-0.5,5.2-0.9,10.5-1.2,15.8c-0.3,5-0.7,9.9-1.2,14.8c-14.7-0.3-29.3-0.7-43.7-1
				c-11.4-0.3-22.8-0.5-34.3-0.8v-30c4.7,0.1,9.4,0.1,14,0.2c2,0,3.9,0.1,5.9,0.1c0,0,0,0,0,0l3,0.1c0,0,0,0,0-0.1c1,0,2,0,3,0
				c0,0.1,0,0.2,0,0.3l3-0.1c0-0.1,0-0.1,0-0.2C459,231.3,476.2,231.5,493.5,231.8z"/>
			<path class="st1" d="M581.5,232.3c-12.7-0.4-25.5-0.8-38.3-1.1c0-1.1-0.1-2.2-0.1-3.3c0-3,0.2-6.2,0.3-9.2c0.2-3,0.3-6.1,0.3-9.1
				h-3c0,3-0.2,6.1-0.3,9.1c-0.2,3-0.3,6.2-0.3,9.3c0,1.1,0.1,2.1,0.1,3.2c-33-0.8-65.9-1.3-98.4-1.8c0-0.2,0-0.3,0-0.5
				c0-4.6,0.8-9.4,1.6-14c0.4-2.1,0.7-4.2,1-6.2c23.9,0.6,48.2,1.1,72.3,1.1c23.5,0,45-0.5,64.9-1.5V232.3z"/>
			<path class="st1" d="M529,494.8c7.4,0,14.4,0,21.2,0c0,6.3,0,12.9-0.4,19.2c-32.6-0.5-63.8-0.8-94-0.8c0-1.9,0-3.7-0.1-5.6
				c-0.1-2.2-0.1-4.4-0.1-6.7c0-2.2,0.1-4.2,0.2-6c8.9,0,17.8,0,26.8-0.1C498,494.9,513.5,494.8,529,494.8z"/>
			<path class="st1" d="M433.5,549.2c31.2,0.1,62.9,0.3,94.8,0.8c0,0.2,0,0.4,0,0.6h3c0-0.2,0-0.4,0-0.5c8.8,0.2,17.5,0.3,26.3,0.6
				c-0.1,0.6-0.1,1.2-0.2,1.7h-86.2c0.2-0.9,0.3-1.7,0.5-2.6l-3-0.2c-0.1,0.9-0.3,1.8-0.5,2.7h-93.4v-3.5
				C394.5,549,414.1,549.1,433.5,549.2z"/>
			<path class="st1" d="M507.9,457.2c-1.4,8.9-2.1,18.4-2.1,28.3c0,2.6,0.1,5.1,0.2,7.7c-7.8,0-15.6,0-23.4,0.1
				c-15.5,0.1-31.1,0.1-46.6,0.1c-11.6,0-23.4,0-35.3-0.1c-0.5-6.6-1-12.8-1.5-19c-0.5-6.3-1-12.6-1.5-19.3l-3,0.1
				c0.5,6.7,1,13,1.5,19.3c0.5,6.2,1,12.4,1.5,18.9c-25.1-0.2-473.1-0.7-499.2-1.8v-39.1c27.2,1.1,176,0.4,315.8,1.1
				c121,0.6,235.4,2.6,258.6,3.1C484.4,456.7,496.1,456.9,507.9,457.2z"/>
			<path class="st1" d="M581.5,89.3c-8.9-0.3-17.9-0.5-26.8-0.8c0.2-3.7,0.3-7.4,0.5-11c0.4-7.9,0.9-16.2,0.9-24.3
				c8.8,0.2,17.2,0.4,25.4,0.6V89.3z"/>
			<path class="st1" d="M390.1,53.4c19.7,0,39.8-0.1,59.1-0.3c19.4-0.1,39.4-0.3,59.1-0.3c16.2,0,31,0.1,44.8,0.3
				c0,8.2-0.4,16.4-0.9,24.3c-0.2,3.6-0.4,7.3-0.5,11c-26.5-0.7-52.9-1.2-78.8-1.8c-5.6-0.1-11.1-0.2-16.7-0.3
				c-0.1-3.1-0.2-6.5-0.2-10.3c0-3.8,0.1-7.7,0.1-11.5c0.1-3.8,0.1-7.6,0.1-11.4h-3c0,3.8-0.1,7.5-0.1,11.3
				c-0.1,3.8-0.1,7.7-0.1,11.5c0,3.8,0.1,7.2,0.2,10.2c-30.1-0.6-60.5-1.3-91-2.3c-0.3-2.7-0.5-5.6-0.5-9.1c0-2,0-4,0.1-6
				c0-2,0.1-4,0.1-6c0-3.7-0.2-6.8-0.5-9.6C371.5,53.4,381.2,53.4,390.1,53.4z"/>
			<path class="st1" d="M390.1,421.4c19.7,0,39.8-0.1,59.1-0.3c19.4-0.1,39.4-0.3,59.1-0.3c16.2,0,31,0.1,44.8,0.3
				c0,8.2-0.4,16.4-0.9,24.3c-0.2,3.6-0.4,7.3-0.5,11c-26.5-0.7-52.9-1.2-78.8-1.8c-5.6-0.1-11.1-0.2-16.7-0.3
				c-0.1-3.1-0.2-6.5-0.2-10.3c0-3.8,0.1-7.7,0.1-11.5c0.1-3.8,0.1-7.6,0.1-11.4h-3c0,3.8-0.1,7.5-0.1,11.3
				c-0.1,3.8-0.1,7.7-0.1,11.5c0,3.8,0.1,7.2,0.2,10.2c-30.1-0.6-60.5-1.3-91-2.3c-0.3-2.7-0.5-5.6-0.5-9.1c0-2,0-4,0.1-6
				c0-2,0.1-4,0.1-6c0-3.7-0.2-6.8-0.5-9.6C371.5,421.4,381.2,421.4,390.1,421.4z"/>
			<path class="st1" d="M413,531.5c-0.5,5.2-0.9,10.3-1.4,15.8c-24.8-0.1-50-0.3-75.1-0.7c-0.5-5.2-1-10.1-1.5-15
				c-0.5-5-1-9.9-1.5-15.3l-3,0.1c0.5,5.4,1,10.4,1.5,15.3c0.5,4.8,1,9.6,1.4,14.8c-4.3-0.1-430.8-0.2-435.1-0.3v-30
				c30.6-0.7,483.9-1.1,516.1-1.3C414,520.8,413.5,526.1,413,531.5z"/>
			<path class="st1" d="M359.1,0.5c0,3.4,0.1,6.8,0.3,10.3c-1.5,0-3.1,0-4.6,0c-11.5,0-445,0.3-456.4,0.8v-27.5
				c12.6,0.2,447.4,0.5,460,0.9C359-9.8,359-4.6,359.1,0.5z"/>
			<path class="st1" d="M568.3-6.6h-2.2c0,6.8,0.5,13.9,0.9,20.7c0.2,3.1,0.4,6.1,0.5,9.1c-34.1-0.7-68.6-3.6-102.2-6.4
				c0,0-0.1,0-0.1,0c-0.1-5.6-0.6-11.2-1-16.6c-0.3-3.8-0.7-7.7-0.9-11.6c8.6,0.4,17.2,0.7,25.8,1.1c0,0.1,0,0.1,0,0.2h3
				c0,0,0,0,0,0c20.5,0.9,40.9,1.9,61.1,2.8C558.2-7,563.2-6.8,568.3-6.6z"/>
			<path class="st1" d="M529.8,515.5c0.1,1.3,0.1,2.5,0.1,3.8c0,5.2-0.4,10.5-0.8,15.6c-0.3,4.4-0.6,8.9-0.7,13.3
				c-31.9-0.6-63.7-0.7-94.8-0.8c-6.3,0-12.6,0-18.9-0.1c0.5-5.5,0.9-10.6,1.4-15.8c0.5-5.4,1-10.8,1.5-16.6
				c8.8,0,17.6-0.1,26.6-0.1C471.8,515,500.2,515.2,529.8,515.5z"/>
			<path class="st1" d="M489.1,357.8c0,0.1,0,0.1,0,0.2h3c0,0,0,0,0,0c20.5,0.9,40.9,1.9,61.1,2.8c5,0.2,10.1,0.5,15.2,0.7h-2.2
				c0,6.8,0.5,13.9,0.9,20.7c0.2,3.1,0.4,6.1,0.5,9.1c-34.1-0.7-68.6-3.6-102.2-6.4c0,0-0.1,0-0.1,0c-0.1-5.6-0.6-11.2-1-16.6
				c-0.3-3.8-0.7-7.7-0.9-11.6C471.9,357.1,480.5,357.5,489.1,357.8z"/>
			<path class="st1" d="M553.1,126.8c10.1,0,19.4,0.1,28.4,0.2v19.5c-9.7-0.2-19.3-0.3-28.8-0.5
				C553.1,139.7,553.1,133.2,553.1,126.8z"/>
			<path class="st1" d="M553.1,494.9c10.1,0,19.4,0.1,28.4,0.2v19.5c-9.7-0.2-19.3-0.3-28.8-0.5
				C553.1,507.8,553.1,501.2,553.1,494.9z"/>
			<path class="st1" d="M581.5-36.6v28.9c-9.4-0.4-18.8-0.9-28.1-1.3c-20.3-0.9-40.7-1.9-61.3-2.8c0.1-4.9,0.7-9.8,1.2-14.6
				c0.5-4,1-8.2,1.2-12.3l-3-0.1c-0.2,4.1-0.7,8.2-1.2,12.3c-0.6,4.8-1.1,9.7-1.2,14.6c-32.7-1.5-65.6-2.8-98.7-3.9
				c1.4-8.6,2.8-17.5,3.7-26.3c51.2,2,102.5,3.4,152.7,4.6C558.4-37.2,570-36.9,581.5-36.6z"/>
			<path class="st1" d="M507.9,89.2c-1.4,8.9-2.1,18.4-2.1,28.3c0,2.6,0.1,5.1,0.2,7.7c-7.8,0-15.6,0-23.4,0.1
				c-15.5,0.1-31.1,0.1-46.6,0.1c-11.6,0-23.4,0-35.3-0.1c-0.5-6.6-1-12.8-1.5-19c-0.5-6.3-1-12.6-1.5-19.3l-3,0.1
				c0.5,6.7,1,13,1.5,19.3c0.5,6.2,1,12.4,1.5,18.9c-25.1-0.2-473.1-0.7-499.2-1.8V84.2c65.4-1,262.3-0.7,409,0.9
				c80.2,0.8,147.7,3,165.4,3.3C484.4,88.7,496.1,88.9,507.9,89.2z"/>
			<path class="st1" d="M-101.6,381.3c11.4-0.5,444.9-0.8,456.4-0.8c21.6,0,43.6,1.1,66.3,2.7l-2,0.1c0.9,11.7,2.3,23,3.7,34.8
				l0.2,1.5c-10.9,0.1-21.9,0.1-32.8,0.1c-20.3,0-466.3-0.1-491.7-0.9V381.3z"/>
			<path class="st1" d="M368.5-53.8c-0.4,2.9-0.7,5.8-1.1,8.7c-15.6-0.7-453.5-1.5-469-2.4v-21.8h471.7
				C369.9-64.2,369.2-58.9,368.5-53.8z"/>
			<path class="st1" d="M547-39.3c-10.1-0.3-20.3-0.5-30.4-0.8c0.7-4.8,1-9.5,1.3-14.1c0.3-5,0.6-10,1.4-15.2h62.2v30.9
				C570-38.7,558.5-39,547-39.3z"/>
			<path class="st1" d="M560.4,552.4c0.1-0.6,0.1-1.1,0.2-1.7c7,0.2,14,0.4,21,0.7v1H560.4z"/>
			<path class="st1" d="M-101.6,13.3c11.4-0.5,444.9-0.8,456.4-0.8c21.6,0,43.6,1.1,66.3,2.7l-2,0.1c0.9,11.7,2.3,23,3.7,34.8
				l0.2,1.5c-10.9,0.1-21.9,0.1-32.8,0.1c-20.3,0-466.3-0.1-491.7-0.9V13.3z"/>
			<path class="st1" d="M-101.6,296.4c7.9,0.3,438.1,0.5,446.1,0.7c0,8.9,0.5,17.3,0.9,26.3c-8.3-0.4-438.7-0.8-447-1.2V296.4z"/>
			<path class="st1" d="M348.4,323.5c25.7,1.1,51.5,1.9,77.2,2.5c0.3-3.6,0.6-7.1,1-10.6c0.6-5.4,1.3-11,1.3-16.6h3
				c0,5.7-0.7,11.3-1.3,16.8c-0.4,3.4-0.8,7-1,10.5c39.7,1,79.4,1.7,118.4,2.6c11.5,0.3,23,0.6,34.5,0.9v-33.9
				c-3.5,0.1-7,0.3-10.5,0.4c0,1.1,0.1,2.2,0.1,3.3c0,4.3-0.3,8.7-0.6,13c-0.3,4.2-0.6,8.6-0.6,12.9c0,1.2,0,2.5,0.1,3.7l-3,0
				c-0.1-1.2-0.1-2.5-0.1-3.8c0-4.3,0.3-8.7,0.6-13c0.3-4.2,0.6-8.6,0.6-12.9c0-1,0-2.1-0.1-3.1c-12.4,0.4-24.8,0.8-37.3,1.1
				c0,0,0,0.1,0,0.1l-1.2-0.1c-29.2,0.7-58.3,1.1-87.2,1.1c-20.2,0-40.6-0.2-61-0.6l-2.1,0c0,0,0,0,0-0.1
				c-10.6-0.2-21.2-0.4-31.8-0.7C347.5,306.1,347.9,314.6,348.4,323.5z M496.5,327.2l0.2-1.2c1.4-9.2,2.9-18.7,5.3-27.9l2.9,0.3
				c-2.4,9.1-3.8,18.6-5.3,27.8l-0.2,1.2L496.5,327.2z"/>
			<path class="st1" d="M341,206.4c-1.4,5.4-1.5,10.9-1.7,16.2c0,1.7-0.1,3.3-0.2,5c-6.2-0.1-434.5-0.3-440.7-0.4v-20.8
				c3.4,0,429.1,0,432.6,0C334.3,206.4,337.6,206.4,341,206.4z"/>
			<path class="st1" d="M570.5,391.3c-0.2-3.1-0.3-6.1-0.5-9.2c-0.4-6.8-0.9-13.8-0.9-20.6c4.2,0.2,8.3,0.4,12.5,0.6v29.4
				C577.8,391.4,574.2,391.4,570.5,391.3z"/>
			<path class="st1" d="M394,326.9c10.5,0.3,21,0.6,31.5,0.9c0,0.1,0,0.2,0,0.3l3,0.1c0-0.1,0-0.2,0-0.3c21.1,0.5,42.1,1,63.1,1.4
				c-0.2,4.1-0.7,8.2-1.2,12.2c-0.6,4.8-1.1,9.7-1.2,14.6c-32.7-1.5-65.6-2.8-98.7-3.9C391.8,343.9,393.1,335.4,394,326.9z"/>
			<path class="st1" d="M581.5,181.6c-16.7-0.6-33.4-1-50.1-1.3c0.1-4.4,0.4-8.9,0.7-13.3c0.4-5.2,0.8-10.5,0.8-15.7
				c0-1.3,0-2.5-0.1-3.8c15.9,0.2,32.1,0.5,48.7,0.8V181.6z"/>
			<path class="st1" d="M371.8,205.1c-13.6-0.3-27.3-0.4-40.8-0.4c-3.5,0-429.2,0-432.6,0V180c17.1,0.4,456.4,0.6,473.4,0.8V205.1z"
				/>
			<path class="st1" d="M581.5,206.4c-7.5,0.4-15.3,0.7-23.2,0.9c0.8-4.9,1.1-9.9,1.5-14.8c0.2-3.3,0.5-6.6,0.8-9.9
				c7,0.2,14,0.4,21,0.7V206.4z"/>
		</g>
		<g class="st4">
			<path class="st1" d="M245.5,35.2c0.4-7.4,0.8-15.1,2-22.5c30.2-0.1,64.9-0.2,86.7-0.3c-0.5,6.5-1.3,12.9-2.2,19.2
				c-0.9,6.5-1.8,13.2-2.3,19.9c-27.1-0.1-58.6-0.1-85.3-0.3C244.9,45.9,245.2,40.5,245.5,35.2z"/>
			<path class="st1" d="M180,82.9c0.3-1.4,0.4-4.2,0.4-9.6c0-2,0-4-0.1-6c0-2-0.1-4-0.1-6c0-3.3,0.2-6,0.4-8.5
				c28.2,0,48.5,0,53.8,0.1c10.1,0,21.2,0.1,32.4,0.1c-0.1,5.7-0.6,11.3-1.2,16.8c-0.4,4.4-0.9,8.9-1.1,13.4
				c-11-0.1-21.7-0.1-31.6-0.2C227.9,82.9,207.9,82.9,180,82.9z"/>
			<path class="st1" d="M124.9-45.3c0.1,0.9,0.1,1.7,0.1,2.6c0,5.1-0.9,10.2-1.9,15.1c-0.6,3.3-1.2,6.7-1.6,10
				c-10.8,0-22.1,0-33.7,0l-2.6-0.2c0,0.1,0,0.1,0,0.2c-18.1,0-36.8,0-55.1,0v-27.8C62.3-45.4,95.7-45.3,124.9-45.3z"/>
			<path class="st1" d="M231.7-17.3C231.7-17.3,231.7-17.3,231.7-17.3c-4.6,0-9.1,0-13.2,0c0-9.1,0.5-18.3,1.3-27.5
				c23.6,0.4,56.3,0.8,87,1.2c-0.3,2.5-0.4,5.1-0.4,8.1c0,2.3,0.1,4.6,0.1,6.9c0.1,2.3,0.1,4.6,0.1,6.9c0,1.4,0,3.4-0.1,4.9
				c-25.3-0.2-52.1-0.3-74.1-0.5L231.7-17.3z"/>
			<path class="st1" d="M244.9,10.9c0,0,0,0.1,0,0.1c-5,0-9.9,0-14.5,0.1c0.5-4.6,1.3-9.3,2-13.9c0.7-4.2,1.4-8.6,1.9-12.9
				c16.2,0.1,34.7,0.1,52.5,0.2c0,0.7,0.1,1.4,0.1,2.1c0,4.7-0.5,9.7-1,14.4c-0.3,3.3-0.7,6.6-0.9,9.9c-13,0-26.4,0.1-38.9,0.2
				L244.9,10.9z"/>
			<path class="st1" d="M272.6,258.6c-8.5,0-30.9-0.1-60.7-0.1c-0.1-1.9-0.1-3.8-0.1-5.6c0-4.1,0.2-8.3,0.3-12.4
				c0.1-3.8,0.3-7.6,0.3-11.4c1.7,0,2.9,0,3.5,0c22.8,0.1,55.9,0.1,83.1,0.2v29.4C290.6,258.7,281.7,258.7,272.6,258.6z"/>
			<path class="st1" d="M222.7,192.4c0.3-4,0.7-8,0.9-12.1c22.1,0.1,51,0.2,77.6,0.3c-0.5,7.9-1.4,16.1-4.3,24.1
				c-22.8,0-52.5,0-75.1,0C222.1,200.5,222.4,196.5,222.7,192.4z"/>
			<path class="st1" d="M209.6,295.1c0-0.1,0-0.1,0-0.2l-2.8,0.2c-9.7,0-22.1,0-36.3-0.1c-0.9-12-1.8-22.9-3-34.2
				c25.4,0.1,48.5,0.1,66.8,0.2c0.9,4.1,1.4,8.5,1.4,13.9c0,3.6-0.2,7.2-0.4,10.7c-0.2,3.1-0.3,6.4-0.3,9.6c-2.4,0-4.7,0-6.9-0.1
				C225.6,295.2,219.1,295.1,209.6,295.1z"/>
			<path class="st1" d="M224.1,146.4c-4.3,0-23.5,0-50.7,0c1.7-6.9,2.6-13.9,3.5-20.7c26.1,0.1,44.2,0.1,47.8,0.2
				c9.6,0.1,20.3,0.3,31.7,0.4c0.2,1.6,0.4,3.2,0.4,5.1c0,2.7-0.3,5.5-0.5,8.2c-0.2,2.2-0.4,4.5-0.4,6.8c-5.6,0-11.2,0-16.5,0
				c0,0,0-0.1,0-0.1l-2.8,0.1c0,0,0,0,0,0C232.1,146.3,228,146.3,224.1,146.4z"/>
			<path class="st1" d="M199.6,11.3c0-6.1,0.4-12.4,0.9-18.4c0.2-2.9,0.4-5.8,0.5-8.7c3.9,0,6.4,0,7.1,0c6.6,0,14.6,0.1,23.3,0.1
				c-0.5,4.2-1.2,8.5-1.9,12.6c-0.8,4.7-1.6,9.5-2.1,14.2c-6,0-11.6,0.1-16.5,0.1C209.9,11.2,205.8,11.3,199.6,11.3z"/>
			<path class="st1" d="M137,51l2.8-0.2c-1.4-12.8-1.4-25.5-1.4-37.8c39.2,0,68.2-0.1,71.5-0.1c9.6-0.1,21.6-0.1,34.6-0.2
				c-1.2,7.4-1.6,15-1.9,22.3c-0.3,5.3-0.5,10.7-1.1,16.1l0.7,0.1c-2.4,0-4.7,0-7,0c-10.7-0.1-90.8-0.1-170.2-0.2
				c-0.5-7.3-0.8-14.7-0.8-22.6c0-4.7,0.1-9.8,0.3-15.3c24.9,0,49.4,0,71.1,0C135.7,25.4,135.7,38.2,137,51z"/>
			<path class="st1" d="M196.3-61.6c0.3,4.7,0.7,9.6,1.5,14.6c-18.5,0-56-0.1-98.3-0.1c0.4-7.3,0.7-14.8,0.8-22.1h95.4
				C195.9-66.7,196.1-64.1,196.3-61.6z"/>
			<path class="st1" d="M46.6,52.7c-0.1,1.4-0.3,3.5-0.4,7.1c-0.4,7.9-1,19.7-1.4,22.9l0,0c-26.1,0-51.4-0.1-73.5-0.1
				c-0.6-4.7-1.5-9.3-2.4-13.8c-1-5.3-2-10.7-2.6-16.2C-9.9,52.7,18,52.7,46.6,52.7z"/>
			<path class="st1" d="M139.5,113.4c0-3.5,0.1-6.9,0.1-10.4c0-6.1-0.1-11.7-0.5-18.4c31.8,0,62,0,87.2,0.1
				c-1.4,7.3-1.8,14.9-2.1,22.2c-0.3,5.6-0.6,11.4-1.3,17.2c-6.2,0-23.8-0.1-47.9-0.1l-0.7-0.1l0,0.1c-10.5,0-22.3,0-34.8-0.1
				C139.4,120.3,139.4,116.8,139.5,113.4z"/>
			<path class="st1" d="M170.5,146.4c-22.1,0-49.1,0-77.4,0c0.2-2.9,0.6-6,0.9-8.9c0.5-3.9,1-8,1-11.9c29.1,0,56.7,0.1,78.9,0.1
				C173.2,132.5,172.2,139.5,170.5,146.4z"/>
			<path class="st1" d="M151.4,148c-1.4,4.9-1.6,9.9-1.9,14.8c-0.2,5.1-0.5,10.4-2.1,15.5l0.1,0c-22.2,0-48.5,0-75.5,0v-30.2
				C100.1,148,127.7,148,151.4,148z"/>
			<path class="st1" d="M200.5,379.2c0-0.9-0.1-2-0.1-2.5c0-3.6,1-7.3,1.9-10.8c0.9-3.6,1.9-7.4,1.9-11.2c0-0.8-0.1-1.6-0.2-2.3
				c16.7,0,28.4,0,32.4,0c16.5,0.1,35.3,0.1,53.1,0.2c0,0.8-0.1,1.7-0.1,2.5c0,2.3,0.1,4.6,0.1,7c0.1,2.3,0.1,4.7,0.1,7
				c0,3.3-0.1,6.9-0.4,9.9c-16.8,0.1-34.7,0.1-50.6,0.2C234.2,379.1,220.2,379.1,200.5,379.2z"/>
			<path class="st1" d="M30.6,225.1c0-0.9-0.1-1.8-0.1-2.7c0-0.3,0.1-1.2,0.3-2.4c0.4-3.1,1.2-8.5,1.3-13.6c27,0,54.9,0,80.5,0
				c0.1,1.7,0.2,3.3,0.4,5c0.3,4.1,0.7,8.3,0.7,12.4c0,1.2,0,2.3-0.1,3.4c-14.3,0-29.3,0-44.5,0l-2.6-0.2c0,0.1,0,0.1,0,0.2
				c-12,0-24,0-35.8,0C30.6,226.6,30.6,225.8,30.6,225.1z"/>
			<path class="st1" d="M29.2,206.4c-0.1,4.9-0.8,10.3-1.3,13.3c-0.2,1.4-0.3,2.4-0.3,2.7c0,0.9,0.1,1.9,0.1,2.8
				c0,0.7,0.1,1.4,0.1,2.1c-25.6,0-50.2,0-70.9,0l2.2-0.2c-0.3-2.6-0.4-5-0.4-7.3l0-3.7c0-2.9-0.1-6.2-0.7-9.6
				C-21.1,206.4,3.6,206.4,29.2,206.4z"/>
			<path class="st1" d="M11.6,264.8c0,5.8,0.6,11.6,1.1,17.2c0.4,4.2,0.8,8.6,1,12.9c-14.9,0-29.2,0-42.4-0.1c0,0,0-0.1,0-0.1
				l-0.5,0.1c-10.4,0-20.1,0-28.7,0l1.4,0c-0.4-9.2-0.3-18.8-0.3-28.1l0-6.4c19,0.1,42.7,0.1,68.7,0.2
				C11.7,261.9,11.6,263.3,11.6,264.8z"/>
			<path class="st1" d="M-75.9,324.1c17.3,0.1,42,0.1,69.9,0.2c0,3.5-0.3,7-0.5,10.4c-0.3,3.9-0.5,7.9-0.5,11.9c0,1.3,0,2.6,0.1,4
				c-10.8,0-21.1,0-30.6,0c0-0.1,0-0.1,0-0.2l-1.4,0.2c-13,0-24.6,0-34.1,0l1.1-0.3c-1.5-4.8-1.9-9.7-2.3-14.5
				C-74.6,331.9-75.1,328-75.9,324.1z"/>
			<path class="st1" d="M-2.3,148.1v30h2.8v-30c21.9,0,45.4,0,68.7-0.1v30.2c-45.8,0-93.4,0-126.6,0c-0.5-5.4-1.7-10.6-2.8-15.7
				c-1.1-4.7-2.1-9.5-2.6-14.4C-46.1,148.2-25.2,148.1-2.3,148.1z"/>
			<path class="st1" d="M231.7,322.6c-0.1,0-0.2,0-0.4,0c-2.3,0-4.6,0-6.8,0c-2,0-7,0-14.4,0c-0.1-2.5-0.2-5-0.2-7.5l0-7.1
				c0-3.6-0.1-7.4-0.4-11.4c9.6,0,16.2,0,18.7,0c14,0.1,30.1,0.1,45.8,0.2c0.3,2.3,0.5,4.6,0.5,7.1c0,6.7-1.1,13.3-2.2,18.9
				c-13.8-0.1-27.8-0.2-40.3-0.2C232,322.6,231.9,322.6,231.7,322.6z"/>
			<path class="st1" d="M-5.5,26.2c-0.2,4.9-0.4,9.9-0.4,14.9c0,3.6,0.1,6.8,0.3,9.9c-9.9,0-19.3,0-28.2,0c0,0,0-0.1,0-0.1l-1.4,0.1
				c-9.9,0-18.9,0-27.1,0l1.1-0.1c-0.4-3-0.9-6.1-1.4-9.1c-1.5-9.2-2.9-17.9-2.9-26.9c0-0.5,0-1.1,0-1.6c16.4,0,37.3,0,60.2,0
				C-5.2,17.5-5.3,21.9-5.5,26.2z"/>
			<path class="st1" d="M4.1-57.1c0,3.2,0.1,6.5,0.3,9.8c-4.5,0-8.8,0-13.2,0c0.2-3.7,0.7-7.6,1.1-11.5c0.4-3.5,0.8-7.1,1.1-10.6
				H3.6C3.9-65.2,4-61,4.1-57.1z"/>
			<path class="st1" d="M-54.5,84.4c14.7,0,32,0,51.1,0.1c-0.6,3-0.8,5.7-0.8,8.9c0,5.5,0.6,11.1,1.3,16.5c0.5,4.4,1,9.1,1.2,13.5
				l2.8-0.1c-0.2-4.5-0.7-9.2-1.2-13.7c-0.6-5.4-1.3-10.9-1.3-16.3c0-3.3,0.3-5.9,0.8-8.9c19.7,0,41.2,0,63.2,0.1
				c-0.2,6.4-0.6,12.8-0.9,19.2c-0.4,6.7-0.7,13.4-0.9,20c-35.6,0-71.1-0.1-99.8-0.1c0,0,0-0.1,0-0.1l-1.8,0.1c-5.6,0-11,0-16,0
				C-55.5,110.2-55,97.1-54.5,84.4z"/>
			<path class="st1" d="M243,451.1c-3.3,0-10.7,0-21.3-0.1c-0.1-1.2-0.2-2.3-0.2-3.5c0-5.3,0.9-10.7,1.9-15.9
				c0.6-3.5,1.2-7.1,1.6-10.7c8.1,0,13.8,0,16.5,0c19.6,0.1,41.8,0.1,61.6,0.2c-0.2,3.7-0.6,7.5-0.9,11.1c-0.6,5.4-1.1,11-1.1,16.5
				c0,0.9,0,1.8,0.1,2.7C282.3,451.3,261.5,451.2,243,451.1z"/>
			<path class="st1" d="M206.8,296.6c0.3,3.9,0.4,7.8,0.4,11.4l0,7.1c0,2.5,0,5,0.2,7.5c-15.3,0-39.1-0.1-67-0.1
				c0.2-2.9,0.4-5.7,0.6-8.6c0.4-4.8,0.8-9.7,0.8-14.6c0-0.9,0-1.8-0.1-2.7C168.1,296.6,191,296.6,206.8,296.6z"/>
			<path class="st1" d="M-32.5,378.9c-2-5.9-2.8-12.1-3.5-18c-0.3-2.9-0.7-5.8-1.2-8.8c24.1,0,52.9,0,82.6,0
				c0.3,1.8,0.5,3.7,0.5,5.8c0,3.6-0.5,7.3-1,10.8c-0.5,3.5-1,7-1,10.6c-28.1,0-55.3,0.1-78.4,0.1L-32.5,378.9z"/>
			<path class="st1" d="M312.3,343.1c0.9-4,1.8-8.1,1.8-12.3c0-1.8-0.2-3.4-0.6-5c3.4,0,6.7,0.1,10,0.1c0,0.5,0,1,0,1.5
				c0,1,0.1,2,0.1,3.1c0,1-0.2,2.9-0.5,5.3c-0.4,4.3-1.1,10.1-1.1,15.6c-3.7,0-7.4-0.1-11.2-0.1
				C311.1,348.6,311.7,345.8,312.3,343.1z"/>
			<path class="st1" d="M215.7,514.4l0.1-1.4c0.4-6.2,0.8-12.6,0.8-18.9c14.5,0,24.6,0.1,28.3,0.1c15,0.2,31.6,0.3,48.6,0.4
				c0.2,1,0.3,2,0.3,3.1c0,3-0.6,6.2-1.2,9.2c-0.4,2.4-0.9,4.9-1.1,7.3c-8.9,0-18.2,0-27.4,0.1c0,0,0,0,0-0.1l-2.8-0.5
				c-0.1,0.2-0.1,0.4-0.1,0.6c-6.9,0-13.6,0-20.1,0.1C237.4,514.3,228.4,514.4,215.7,514.4z"/>
			<path class="st1" d="M-57.4,500.8c0,4.1,0.3,8.6,0.9,13.7c-26.8,0-44.3,0-45.1,0.1v-21.4c2.4,0.1,19.3,0.2,44.6,0.3
				C-57.2,495.8-57.4,498.2-57.4,500.8z"/>
			<path class="st1" d="M-66.7,423.1c0,3.4-0.2,6.9-0.4,10.2c-0.2,3.4-0.4,6.8-0.4,10.3c0,2.4,0.1,4.6,0.3,6.6l2.8-0.2
				c-0.2-2-0.3-4.1-0.3-6.4c0-3.4,0.2-6.9,0.4-10.2c0.2-3.4,0.4-6.9,0.4-10.4c0-0.8,0-1.6-0.1-2.5c16.8,0,38.1,0,61.6,0.1
				c-0.1,1.9-0.1,3.7-0.1,5.6c0,4.3,0.2,8.6,0.3,12.9c0.1,3.8,0.2,7.6,0.3,11.5c-55.1-0.1-98-0.1-99.8-0.2v-29.9
				c0.9,0,14.1,0.1,34.9,0.1C-66.7,421.5-66.7,422.3-66.7,423.1z"/>
			<path class="st1" d="M-29.8,307.6c0,1.9-0.1,3.9-0.1,5.8c-0.1,1.9-0.1,3.9-0.1,5.8c0,1.1,0,2.1,0.1,3.1
				c-41.1,0-70.8-0.1-71.5-0.1v-25.8c0.8,0,29.9,0.1,70.5,0.1C-30,300.5-29.8,304.5-29.8,307.6z"/>
			<path class="st1" d="M-32.4,525.4c-0.3,3.6-0.5,7.3-0.5,11c0,3.6,0.3,6.9,0.9,9.9c-40.4,0-69,0-69.5,0v-30
				c2.6-0.1,30.6-0.1,69.6-0.2C-32,519.2-32.2,522.4-32.4,525.4z"/>
			<path class="st1" d="M-77.1,335.9c0.4,4.7,0.9,9.7,2.3,14.5c-15.7,0-25.7,0-26.8-0.1v-26.4c0.9,0,9.3,0.1,22.8,0.1
				C-77.9,328-77.5,332-77.1,335.9z"/>
			<path class="st1" d="M-21.6,418.6h2.8c0-12.4,0-25.1,0.9-37.5c17,0,35.5,0,54.6-0.1c0,1.8-0.1,3.6-0.1,5.4c0,9.5,0.6,19.6,2,32.6
				c-72.3-0.1-136.8-0.2-140.3-0.3v-37.5c1.3-0.1,35.1-0.1,80.9-0.2C-21.5,393.5-21.6,406.3-21.6,418.6z"/>
			<path class="st1" d="M-74.5,462.5c1.3,9.6,2.6,19.6,6.6,29.1c-19.5-0.1-32.1-0.1-33.6-0.2v-39.1c1.9,0.1,11.2,0.2,25.6,0.2
				C-75.4,455.8-74.9,459.2-74.5,462.5z"/>
			<path class="st1" d="M-19.2-4.5C-19.1,0.7-19,6-18.3,11.4c-46.9,0-82.5,0.1-83.3,0.1v-27.5c0.8,0,35.8,0,82,0
				C-19.3-12.1-19.2-8.2-19.2-4.5z"/>
			<path class="st1" d="M-76.4,64.3c0.6,5.2,1.2,10.5,1.2,15.7c0,0.8,0,1.7-0.1,2.5c-15.8,0-25.7-0.1-26.4-0.1V52.5
				c0.7,0,9.6,0,24.1,0.1C-77.3,56.5-76.8,60.5-76.4,64.3z"/>
			<path class="st1" d="M-67.4-26.5c0,3,0.1,5.9,0.2,8.8c-20.5,0-33.6,0-34.4,0v-28c0.8,0,14.1,0.1,34.7,0.1
				C-67.1-39.5-67.4-33-67.4-26.5z"/>
			<path class="st1" d="M-41.7,127.1c0,1.9-0.1,3.8-0.1,5.7c-0.1,1.9-0.1,3.9-0.1,5.8c0,3.1,0.2,5.6,0.6,8c-35.1,0-59.4,0-60.2,0.1
				v-21.4c2.1,0.1,25.9,0.2,59.8,0.2C-41.7,125.9-41.7,126.5-41.7,127.1z"/>
			<path class="st1" d="M-2,237.5c-0.4,5.3-0.8,10.8-0.8,16.2c0,1.4,0,2.8,0.1,4.2l2.8-0.1C0,256.5,0,255.1,0,253.7
				c0-5.3,0.4-10.8,0.8-16.1c0.2-2.9,0.4-5.8,0.6-8.6c20.7,0,42.9,0,64.9,0c-0.3,4-0.4,8.3-0.4,13.7c0,2.6,0,5.2,0.1,7.8
				c0,2.6,0.1,5.2,0.1,7.8h2.8c0-2.6,0-5.2-0.1-7.8c0-2.6-0.1-5.2-0.1-7.8c0-5.5,0.1-9.8,0.4-13.7c27.3,0,54.2,0,77.3,0
				c0,1-0.1,2-0.1,3c0,2.9,0.1,5.7,0.2,8.5c0.1,2.8,0.2,5.6,0.2,8.4c0,3.6-0.2,6.6-0.5,9.5c-108.2-0.1-245-0.2-247.8-0.3V229
				c0.8,0,45,0,100.2,0.1C-1.6,231.8-1.8,234.7-2,237.5z"/>
			<path class="st1" d="M-70.4,183.2c0,4.6,1.1,9.3,2.1,13.8c0.6,2.4,1.1,4.8,1.5,7.1l2.8-0.3c-0.4-2.4-1-4.9-1.5-7.3
				c-1-4.4-2.1-8.9-2.1-13.3c0-1.1,0.1-2.2,0.3-3.2c13.5,0,30.3,0,48.8,0c0.8,4.1,1.4,8.2,1.9,12.2c0.5,4,1.1,8.2,1.9,12.4
				c-9.7,0-19,0-27.6,0c0,0,0,0,0,0l-0.2,0c-34.8,0-58.9,0-59.1,0V180c0.6,0,12.6,0,31.5,0C-70.3,181.1-70.4,182.1-70.4,183.2z"/>
			<path class="st1" d="M120.9,379.3l0.1-2.3c0.2-4.3,0.5-9.1,0.5-12.9c0-4.4-0.3-8.3-0.8-11.9c31,0,59.4,0,80.5,0.1
				c0.1,0.8,0.2,1.5,0.2,2.3c0,3.6-0.9,7-1.9,10.7c-1,3.7-1.9,7.4-1.9,11.3c0,0.5,0,1.6,0.1,2.5C176.8,379.2,150,379.2,120.9,379.3z
				"/>
			<path class="st1" d="M140.8,420.8c0,3.2-0.1,6.5-0.3,9.8c-0.2,3.5-0.3,7.1-0.3,10.7c0,3.6,0.2,6.7,0.5,9.6
				c-22.4,0-46.6-0.1-70.9-0.1c-1.3-9.6-2.7-20.4-2.9-30C92.2,420.8,117.5,420.8,140.8,420.8z"/>
			<path class="st1" d="M74.2,335.7l0,2.5c0,4.1,0.1,8.2,0.7,12.4c-27.9,0-56.1,0-81.5-0.1l2.4-0.1c-0.1-1.3-0.1-2.6-0.1-3.9
				c0-3.9,0.3-7.9,0.5-11.7c0.2-3.4,0.4-7,0.5-10.5c24.2,0,50.7,0.1,76.9,0.1C74.1,328.2,74.2,331.9,74.2,335.7z"/>
			<path class="st1" d="M54.3,452.9c1.5,15.5,6.1,37.9,6.2,38.1c0,0.2,0,0.5-0.1,0.8c-25.4,0-50.4-0.1-72.9-0.1
				c0.3-4.7,0.9-9.4,1.4-14c0.9-7.6,1.8-15.4,1.8-23.1c0-0.6,0-1.2,0-1.9C10.6,452.8,32.3,452.9,54.3,452.9z"/>
			<path class="st1" d="M-65.1,491.2c-4-9.4-5.3-19.4-6.6-29c-0.4-3.2-0.9-6.5-1.4-9.7c15.8,0.1,37,0.2,61,0.2c0,0.6,0,1.2,0,1.9
				c0,7.6-0.9,15.4-1.8,22.9c-0.5,4.7-1.1,9.5-1.4,14.2c-19.4,0-36.9-0.1-51-0.1L-65.1,491.2z"/>
			<path class="st1" d="M83.5,498.5c0,2.1,0.1,4.3,0.2,6.4c0.1,2.1,0.2,4.2,0.2,6.3c0,1.1,0,2.1-0.1,3.2l2.8,0.1
				c-26,0-52.5,0-77.1,0c0.5-3.6,1.3-7.2,2-10.6c0.7-3.3,1.5-6.8,2-10.2c22.5,0.1,46.5,0.1,70.2,0.2
				C83.6,495.2,83.5,496.7,83.5,498.5z"/>
			<path class="st1" d="M189.3,419.2c0.1-2.1,0.1-4.2,0.2-6.3c0.3-10.8,0.7-21.9,2.4-32c24.1,0,41.3-0.1,46.4-0.1
				c7.5,0,15.4-0.1,23.4-0.1c0,12.6,0,25.6-1.8,38.7c-6.5,0-12.9-0.1-19-0.1C235.5,419.3,216.2,419.3,189.3,419.2z"/>
			<path class="st1" d="M124.4,491.9c0.4-4.7,1.2-9.4,2-13.9c1.1-6,2.3-12.3,2.3-18.5c0-2.3-0.2-4.4-0.5-6.4
				c18.4,0.1,35.8,0.1,51.3,0.2c-0.1,0.9-0.1,2-0.1,3.5c0,4.6-0.2,9.3-0.4,13.8c-0.2,4.5-0.4,9.2-0.4,13.9c0,2.7,0.1,5.2,0.2,7.6
				C162.4,492,143.9,492,124.4,491.9z"/>
			<path class="st1" d="M167.6,295.1c-22.9,0-50.2-0.1-78.5-0.1c0.1-1,0.1-2.6,0.1-5.1c0-2.9-0.1-5.9-0.1-8.8
				c-0.1-2.9-0.1-5.8-0.1-8.8c0-4.5,0.2-8.2,0.5-11.6c25.7,0.1,51.4,0.1,75.1,0.2C165.8,272.1,166.7,283.1,167.6,295.1z"/>
			<path class="st1" d="M116.5,223.9c0-4.2-0.3-8.5-0.7-12.6c-0.1-1.6-0.3-3.3-0.4-4.9c30.7,0,57.8,0,75.6,0
				c-1.5,9.9-2.5,20.7-2.5,20.8l1.4,0.1c-18.2,0-44.4,0-73.7,0C116.4,226.2,116.5,225,116.5,223.9z"/>
			<path class="st1" d="M85.1-15.9c-0.2,1.7-0.3,3.3-0.5,5C83.8-3.5,82.9,4,82.9,11.4c-33.1,0-68,0-98.4,0.1
				c-0.7-5.4-0.8-10.7-0.9-16c0-3.7-0.1-7.5-0.4-11.4C14.7-15.9,50.9-15.9,85.1-15.9z"/>
		</g>
	</g>
	<path class="st1" d="M496.8,327.2l3,0.2l0.2-1.2c1.4-9.1,2.9-18.6,5.2-27.8l-2.9-0.3c-2.4,9.2-3.8,18.7-5.3,27.9L496.8,327.2z"/>
</g>
<g id="XMLID_184_">
	<g>
		<path class="st5" d="M142.6,121.2c-17-2.5-47.4-2.2-63.2,4.5l0,0c-6.5,4-11.9,12.7-8.2,19.7c5.8,11.2,35,5.3,45.2,4.9
			c9.6-0.5,35.1,4.7,40.8-4.9C167.4,127.9,151.3,122.3,142.6,121.2z M54.7,158.7c-3.2-13-0.4-34.9,12.5-40.9
			c16-7.8,35.8-8.1,52.9-6.6c2.7,0.1,5.9,0.1,9.5,0.2c11.8,0.2,26.6,0.9,34.3,6.1c7.9,6,9.2,20.2,9.8,29.3c0.1,2.8-2.1,9.6-3.6,11.5
			c-2.7,3.6-10.3,3.1-16.2,2.3l0,0.1c-23.7-3.7-51.6-2.1-73.5,4C70,165.6,57.5,170.5,54.7,158.7z"/>
		<path class="st6" d="M67.2,117.7c-12.9,6.1-15.8,28-12.5,40.9c2.8,11.8,15.4,7,25.8,6c-5.5,1.5-10.6,3.3-15.1,5.4
			c-5.2,0.1-9.8,0.8-13.9,2c-17.2,0-29.3-7.7-20.3-33.7c6.7-19,49.2-32,98.4-27.1c-3.5,0-6.8-0.1-9.5-0.2
			C103,109.6,83.2,110,67.2,117.7z"/>
		<path class="st5" d="M65.3,170c1.2,0,2.5,0,3.8,0c-2.1,0.4-4.1,0.8-6.2,1.1c0.4-0.2,0.9-0.4,1.3-0.6C64.6,170.4,65,170.2,65.3,170
			z"/>
		<path class="st6" d="M65.3,170c-0.4,0.2-0.7,0.3-1,0.5c-0.4,0.2-0.9,0.4-1.3,0.6c-4,0.6-7.9,1-11.6,0.9
			C55.5,170.8,60.2,170.1,65.3,170z"/>
		<path class="st7" d="M75.9,569c6.4-0.5,13-1.1,19.7-1.7c-1,3.7-4,8.5-7.1,9.1c-6.4,1.6-12.1-1.7-13.1-7.4
			C75.5,569,75.7,569,75.9,569z"/>
		<path class="st7" d="M102.8,540.4c-2.2-1.6-5.4-7.2-1.5-8.4l0,0c4.1,2.4,8.2,4,12.6,5.8C112.2,541.7,106,542.8,102.8,540.4z"/>
		<path class="st8" d="M75.8,568.4c15.5-1.7,31.9-10.2,45.7-16.6c7.7-3.7,16.2-6.9,24.2-9.6c1-0.3,2.8-1.5,4.1-2.9
			c-0.1,7.1-0.1,14.3,0.1,21.4c0,0-0.1,0-0.1,0c-17.4,2.6-36.1,4.8-54.3,6.6c-6.7,0.6-13.2,1.2-19.7,1.7L75.8,568.4z"/>
		<path class="st8" d="M207.7,596.9l-8.1-4.5c-5.5-3.3-11.2-7.1-16.9-10.9c-1.5-1-3-2.1-4.5-3.1c-7.8-5.4-15.6-10.7-22.8-14.8
			c-0.1-0.4-0.2-2.1-0.2-2.5c-0.1-1.3-0.1-2.6,0-4c0.2-2.8,0.3-5.6,0.5-8.3c0.5-5.5,1.9-10.4,2.9-15.7c1.9-0.8,3.8-1,5.6-0.5
			c-0.3,1.8-0.5,3.6-0.7,5.4c3.9,3.8,7.6,7.8,11,12c12.2,14.5,22,30.8,33,46.6C207.5,596.7,207.6,596.8,207.7,596.9z"/>
		<path class="st9" d="M121.6,551.7c-13.8,6.5-30.3,15-45.7,16.6l0.1,0.6c-0.2,0-0.4,0-0.6,0.1c-3.9,0.3-7.7,0.5-11.5,0.8l-0.1-0.3
			c17.9-9.4,38.8-20,59.1-27.3c9.4-3.4,18.5-6.1,27.3-7.7c0,0,0,0,0.1,0c0,1.6-0.1,3.2-0.1,4.7c-1.3,1.4-3.1,2.5-4.1,2.9
			C137.7,544.8,129.2,548.1,121.6,551.7z"/>
		<path class="st10" d="M207.8,542.6c-3.1,0.9-6,1.6-8.9,2.3c-5.9,1.4-11.5,2.6-17.8,3.8c-3.8-5.1-8.9-12.7-14.7-15.4
			c14.4-0.6,51.7,1.4,63.9,2.2c0,0.1,0.1,0.3,0.1,0.4c-3.3,1.1-6.4,2-9.2,2.9C216.2,540.3,211.9,541.5,207.8,542.6z"/>
		<path class="st11" d="M245.5,371.6c-17.4-5.6-35.7-11-54.3-10.6c-0.1-0.8-0.2-1.5-0.4-2.3c7,0.1,13.9,0.3,20.6,0.7
			c2.2,0.1,4.3,0.3,6.5,0.4c19,1.8,34,5.9,51.3,12.5c9.7,3.3,40.8,19.7,42.8,35.1c0.3,2.2,0,4.4-1,6.5c-5.3,10.8-71,19.6-83.7,19.8
			c-23.7,0.7-34.5,4.6-57.2-0.4c-16.2-3.8-44.4-19.9-56.9-29.8c-8.2-5.8-28.7-20.6-27.2-30.2c0.2-0.3,0.4-0.6,0.6-0.9
			c-0.1-0.1-0.1-0.3-0.2-0.5c1.1-2.8,4.4-5,10.8-6.3c0,0,0,0,0.1,0c0.4-0.1,0.7-0.1,1.1-0.2c0.9-0.1,2.5-0.4,4.4-0.8
			c0.2-0.1,0.5-0.1,0.8-0.1l0,0.2c11.7,12.8,19.8,26.6,34.4,36.1c12,7.8,25.2,12.5,39.3,15.6c30.2,6.7,64.4,1.1,94.3-3
			c12.7-1.6,24.5-5.1,14.7-19.2C276.3,381.2,260.4,376,245.5,371.6z"/>
		<path class="st10" d="M155.4,563.6c-1.9-1.1-3.6-2-5.4-2.9c0,0,0,0,0-0.1c-0.2-7.2-0.2-14.3-0.1-21.4c1.7-1.7,2.6-3.8,0.1-4.7l0,0
			c0-0.9,0.1-1.8,0.1-2.7c0-1.5,0.1-3.1,0.1-4.6c0.5-17,1.4-34,1.2-50.9c7,1.8,14.5,3.1,22,3.9c-2.8,15.1-6.2,31.5-8.6,47.7
			c-0.2,1.6-0.5,3.2-0.6,4.8c-1.8-0.4-3.7-0.3-5.6,0.5c-1,5.2-2.4,10.2-2.9,15.7c-0.2,2.7-0.3,5.5-0.5,8.3c0,1.4-0.1,2.7,0,4
			C155.2,561.5,155.3,563.2,155.4,563.6z"/>
		<path class="st9" d="M166.3,533.3c5.9,2.7,11,10.3,14.7,15.4c-2.1,0.4-4.3,0.8-6.6,1.3c-3.5-4.2-7.1-8.2-11-12
			c0.2-1.8,0.4-3.6,0.7-5.4C164.9,532.7,165.6,533,166.3,533.3z"/>
		<path class="st10" d="M96.3,528.6c15.7,0.1,37.6,2.7,52.9,3.2l0.8,0c0,0.9,0,1.8-0.1,2.7c0,0,0,0-0.1,0
			c-8.7,1.6-17.9,4.3-27.3,7.7l-0.1-0.4c-2.9-1.6-5.8-2.8-8.7-4c-4.3-1.8-8.5-3.4-12.6-5.8C99.6,531,98,529.9,96.3,528.6z"/>
		<path class="st5" d="M69.1,170.1c-1.3,0-2.6-0.1-3.8,0c4.5-2.1,9.6-3.9,15.1-5.4c21.9-6.1,49.8-7.7,73.5-4
			c10.7,1.7,20.6,4.5,28.6,8.5c18.5,9.5,18,30.8,20.1,49.7s1.4,38.5,2.4,57.7c1.6,27.4,4.2,55.8,6.4,82.8
			c-6.7-0.4-13.6-0.6-20.6-0.7c-3.5-21.8-7.1-44.4-6.4-65.9c0.6-30.8,2.7-63.1-3.5-93.6c-6-29.5-68.2-27.8-94.6-12.4
			c-18.9,11.2-11,27.9-9.5,47.3c1.4,17.1,3.7,34.9,6.8,51.8c4.6,25,6,56.2,18.8,78.4c-1.8,0.4-3.6,0.9-5.2,1.4c0,0,0,0-0.1,0
			c-6.4,1.3-9.6,3.5-10.8,6.3c-6.6-13.4-12.1-41.2-15.5-53.1c-5.4-19.5-7.9-39.7-12.1-59.5c-4.3-21.8-20.2-74.9,4.2-88.2
			C65,170.9,67.1,170.5,69.1,170.1z"/>
		<path class="st12" d="M231.2,467.9c-39.5,2.7-80.8-0.4-114.2-16.4c-11.8-5.7-22.7-12.9-32.1-22.2c-7.1-16-7-42.9,1.1-56
			c-1.5,9.6,19,24.4,27.2,30.2c12.5,9.9,40.7,26,56.9,29.8c22.7,5,33.5,1.1,57.2,0.4c12.7-0.2,78.3-9,83.7-19.8c1-2.1,1.3-4.3,1-6.5
			l0.3,0c5.4,40.5-27,54.9-63.1,59C243.3,467,237.2,467.5,231.2,467.9z"/>
		<path class="st12" d="M191.2,361c18.6-0.4,36.9,5,54.3,10.6c14.9,4.4,30.8,9.6,40.8,22.6c9.8,14.2-2.1,17.6-14.7,19.2
			c-30,4.1-64.1,9.6-94.3,3c-14.1-3.1-27.2-7.8-39.3-15.6c-14.6-9.4-22.7-23.2-34.4-36.1l0-0.2c-0.2,0-0.5,0.1-0.8,0.1
			c-0.1-0.2-0.2-0.3-0.3-0.5c12.9-3.1,29.6-4.6,37.7-4.9c16.4-0.3,33.8-0.9,50.7-0.7C191,359.5,191,360.2,191.2,361z"/>
		<path class="st7" d="M221.1,538.8c2,9.7-15.9,11.5-13.4,3.8C211.9,541.5,216.2,540.3,221.1,538.8z"/>
		<path class="st9" d="M201.3,528.6c6,0.6,26.5-0.3,28.9,6.9c-12.2-0.8-49.5-2.8-63.9-2.2c-0.7-0.3-1.4-0.6-2.2-0.7
			c0.2-1.6,0.4-3.2,0.6-4.8C176.3,526,189.6,527.3,201.3,528.6z"/>
		<path class="st9" d="M208.9,585.6c1.7,3.1,6.2,11.6-1.5,11c-10.9-15.8-20.8-32.1-33-46.6c2.3-0.4,4.5-0.8,6.6-1.3
			c0.8,1,1.4,1.9,2.1,2.7c4.6,5.4,8.4,11.1,12.7,16.6C200.6,574.3,205.7,578.3,208.9,585.6z"/>
		<path class="st7" d="M199.6,592.5c-0.8,4.5-11.5,3.2-14.2,0.7c-3.2-3-3.6-7.5-2.7-11.6C188.3,585.4,194.1,589.2,199.6,592.5z"/>
		<path class="st8" d="M173.4,480.1c-7.5-0.8-15-2.1-22-3.9c-20.3-5.2-36-14-34.4-24.6c33.4,16,74.7,19,114.2,16.4
			C224.2,479.8,198.6,482.8,173.4,480.1z"/>
		<path class="st11" d="M190.8,358.7c-16.9-0.2-34.3,0.4-50.7,0.7c-8.1,0.2-24.8,1.8-37.7,4.9c-12.8-22.2-14.2-53.4-18.8-78.4
			c-3.1-16.9-5.5-34.7-6.8-51.8c-1.5-19.4-9.4-36.1,9.5-47.3c26.4-15.4,88.6-17.1,94.6,12.4c6.2,30.5,4.1,62.8,3.5,93.6
			C183.7,314.2,187.4,336.8,190.8,358.7z"/>
		<path class="st10" d="M150,534.5c2.5,0.9,1.6,3-0.1,4.7C149.9,537.6,150,536.1,150,534.5z"/>
		<path class="st8" d="M150,534.5L150,534.5C150,534.5,150,534.5,150,534.5C150,534.5,150,534.5,150,534.5z"/>
		<path class="st9" d="M150.2,527.1c0,1.5-0.1,3.1-0.1,4.6l-0.8,0c-15.3-0.5-37.2-3.1-52.9-3.2l-0.1-0.1c8-4.1,16.1-3.9,24.9-3.5
			C130.7,525.6,140.5,525.4,150.2,527.1z"/>
		<path class="st11" d="M142.6,121.2c8.8,1.1,24.9,6.7,14.5,24.2c-5.7,9.6-31.1,4.4-40.8,4.9c-10.2,0.4-39.4,6.3-45.2-4.9
			c-3.7-7,1.7-15.7,8.2-19.7l0,0C95.2,119,125.6,118.7,142.6,121.2z"/>
		<path class="st6" d="M86.4,372c-0.1,0.4-0.3,0.9-0.3,1.4c-8.1,13.1-8.3,40-1.1,56C71.3,416,60.6,398.5,54.3,376
			C43,336.1-12.1,191.1,51.4,172.1c3.7,0,7.6-0.3,11.6-0.9c-24.4,13.3-8.5,66.4-4.2,88.2c4.2,19.8,6.7,40,12.1,59.5
			C74.4,330.8,79.8,358.6,86.4,372z"/>
	</g>
</g>
<rect x="-57.7" y="358.9" class="st13" width="571.9" height="298.6"/>
<g>
	<path class="st14" d="M78.2,204.9c-8.6-41.6-59.8-139,13.5-159.3c11.8-3.3,20.3,0.7,20.3,0.7s91.7-31.7,74.9,162.9L78.2,204.9z"/>
	<path class="st15" d="M168.7,207.5c-1-73-28.1-105.3-48.7-102.6c-20.6,2.7-31.7,51.3-25.3,100.6
		C95.1,208.8,168.7,210.3,168.7,207.5z"/>
	<polygon class="st16" points="146,170.6 123.7,170.6 124.2,209.1 145.9,208.9 	"/>
	<path class="st17" d="M95.6,155.4c-6.5,5.4-21.9-1.3-20.5-13.3c1.4-12,7-8,12.6-4.4C93.2,141.2,95.6,155.4,95.6,155.4z"/>
	<path class="st16" d="M91.9,152.8c-4.2,3.5-14.1-0.8-13.2-8.6c0.9-7.8,4.5-5.2,8.1-2.9C90.3,143.6,91.9,152.8,91.9,152.8z"/>
	<path class="st17" d="M93.2,155.4c-2.9,2.4-9.7-0.6-9.1-5.9c0.6-5.3,3.1-3.5,5.5-2C92.1,149.1,93.2,155.4,93.2,155.4z"/>
	<path class="st17" d="M90.7,152c3,17.5,19.7,43.5,46.7,41.2c24.7-3.8,40-26.8,37.4-50.4c-1-15.9-10.7-40-12.5-43.9
		c-11.7-24.9-24.9-32.6-40.2-31.5c-12.1,0.9-27,1.7-32.9,44.3C88.4,117.8,86.7,128.3,90.7,152z"/>
	<path class="st14" d="M91.9,145.4l-7.8-11.9c0,0-1.4-14.9,4.6-33.1L91.9,145.4z"/>
	<path class="st14" d="M97.1,59.9C95,70,83,101.3,67.1,109.4c0,0,48.6-14.8,58.2-47.7L97.1,59.9z"/>
	<path class="st14" d="M129.2,49.9c9.4,11.7,40.1,44.2,50.6,42.8c0,0-34.4,8-65.9-28.2L129.2,49.9z"/>
	<g>
		<path class="st18" d="M136.6,138.1c4.5,5.3,8.7,13.1,7,15.3c-1.7,2.2-11.5,3.3-12.4,2.8C130.4,155.7,136.6,138.1,136.6,138.1z"/>
		<path class="st17" d="M133.7,137c4.5,5.3,8.7,13.1,7,15.3c-1.7,2.2-11.5,3.3-12.4,2.8C127.4,154.6,133.7,137,133.7,137z"/>
		<g>
			<path class="st15" d="M168.7,110.7l0.6-1.6c-6.5-8.2-19.4-10.8-25.3-10.1l-0.2,4.2C148.5,102.2,161.6,104.1,168.7,110.7z"/>
		</g>
		<g>
			<path class="st15" d="M95.5,118l-0.9-1.4c5-9.2,17.2-14,23.1-14.4l0.9,4.1C113.9,105.9,101.3,110.2,95.5,118z"/>
		</g>
		<g>
			<path class="st19" d="M121.7,134.4c1.7-2.4-2.1-10.6-10.3-12.5s-11.9,3.7-12,5.9c-0.1,2.2,1.3,5.9,6,7.5
				c4.7,1.6,8.5,0.8,10.6,0.5C118.8,135.4,120.7,135.8,121.7,134.4z"/>
			<circle class="st20" cx="111.7" cy="127.1" r="7"/>
			<circle class="st19" cx="110.8" cy="131.4" r="2.8"/>
			<path class="st20" d="M122.1,132.5c0,0,0.7-4.1-4.5-9c-5.3-4.9-11.6-3.3-13.4-3.5c-1.8-0.2-3.7,0.5-3.1,0.9
				c0.6,0.4-0.9,1.9-2.4,1.7c-1.4-0.2,0.1,1.2,0.1,1.7c0,0.5-2.4,0.5-2.6,1c-0.2,0.5,1.5,1.6,1.1,1.7c-0.4,0.2-1.7,1.3-1,1.7
				c0.7,0.4,2.1,2,2.7,2.6c0.6,0.6,2.2,1.1,2.2,1.1s-2-3.2-1.1-5.6c0.9-2.4,3.5-5.1,8.1-4.9c4.6,0.2,7.6,2.2,9.7,3.8
				C120,127.6,122.1,132.5,122.1,132.5z"/>
		</g>
		<g>
			<path class="st19" d="M146.7,131.3c-2.3-1.9-0.6-10.8,6.9-14.7s12.5,0.6,13.1,2.7c0.6,2.1,0.2,6-3.9,8.8c-4.2,2.8-8,2.9-10.2,3.1
				C149.8,131.5,148.1,132.4,146.7,131.3z"/>
			<circle class="st20" cx="154.6" cy="121.7" r="7"/>
			<circle class="st19" cx="156.6" cy="125.6" r="2.8"/>
			<path class="st20" d="M145.9,129.5c0,0-1.7-3.8,2.2-9.9c3.9-6.1,10.5-6.1,12.2-6.7c1.7-0.7,3.7-0.4,3.2,0.1
				c-0.5,0.6,1.4,1.7,2.7,1.1s0.2,1.2,0.3,1.7c0.1,0.5,2.5-0.1,2.8,0.4c0.3,0.5-1.1,1.9-0.7,2c0.4,0.1,1.9,0.8,1.4,1.4
				c-0.6,0.6-1.6,2.4-2,3.2c-0.4,0.8-1.8,1.6-1.8,1.6s1.1-3.6-0.3-5.7c-1.5-2.1-4.6-4-9-2.7c-4.4,1.3-6.8,4-8.4,6.1
				C146.7,124.2,145.9,129.5,145.9,129.5z"/>
		</g>
	</g>
	<g>
		<path class="st18" d="M125.9,171l0,1.8c4.8,4,17.1,2.4,22.6-2.8l-0.4-0.7C137.9,175.1,130.2,174.7,125.9,171z"/>
	</g>
	<path class="st18" d="M143.5,180.6c0.1,0.7-2.2,2.3-5.6,2.4c-3.3,0.1-6.4-1.2-6.5-1.9c-0.1-0.7,3.1-0.1,6.5-0.2
		C141.3,180.8,143.5,179.9,143.5,180.6z"/>
	<path class="st17" d="M242.9,484.2c9.5,30.1,20.6,59.7,31.5,87.6l15.4-4.4c-6.5-34-7.5-48.8-18.6-94.2
		C269.1,464.7,238.2,469.3,242.9,484.2z"/>
	<path class="st17" d="M309.1,441.1c7.5,33.1,18.7,65.3,28.9,95.9l15.6-3.6c-4.7-34.2-7.7-61.9-13.7-94.7
		C337.7,427.3,299.8,400.2,309.1,441.1z"/>
	<path class="st21" d="M354.5,527.4c-0.7-2.9-1.6-6.5-2.8-10.5l-19.9,5l-12,15.4c0,0,6.8,9,8.6,13.3c1.8,4.3,3.6,15.8,3.6,15.8
		l5.3-1.2c0,0-4.4-11.8-3.3-14.3c1.5-3.2,5.5-7.4,8.1-2.8c2.6,4.6,6.7,15.3,6.7,15.3l21.8-5l-0.9-4.1c0,0-7.2,2.1-11.5-2.5
		C356.2,549.8,358.7,545.9,354.5,527.4z"/>
	<path class="st21" d="M290.4,561.4c-0.8-2.9-2-6.4-3.4-10.3l-19.6,6l-11.2,16c0,0,7.3,8.6,9.3,12.9c2,4.2,4.4,15.6,4.4,15.6
		l5.2-1.5c0,0-5-11.6-4-14.1c1.3-3.3,5.1-7.7,8-3.3c2.9,4.4,7.5,14.9,7.5,14.9l21.5-6.1l-1.2-4.1c0,0-7.1,2.5-11.7-1.9
		C293.3,583.6,295.6,579.6,290.4,561.4z"/>
	<path class="st22" d="M79.5,426.7c0,0,52.8-11.9,69.3-20.3l-50.2-10.5C98.6,395.8,81.2,419.3,79.5,426.7z"/>
	<path class="st23" d="M329.6,515.7c0,0-26.5-71.1-27.6-78.3c-1.1-7.2-0.9-29.8-0.9-29.8s-37.9-3.2-59.8-2.4
		c-21.9,0.8-72.4-32.9-72.4-32.9l34.5-12.4c0,0,10.3-1.1,25.4-1.9c31.3-1.6,102.2,18.5,102.2,18.5c0.4,2.5,16.2,101.7,20.3,134.9
		L329.6,515.7z"/>
	<g>
		<path class="st17" d="M284.2,242.8l7.7-7.1c0,0-1.6-8.4,1.5-14.5c2.9-5.8,6.9-8.4,8.7-10.2c2.9-2.9,3.5-5,5.8-4.4
			c2.3,0.6,1.5,4.4-1.5,7.3c-2.7,2.7-1.5,4.1-1.5,4.1s8.7-0.3,10.2-1c1.5-0.6,9.8-4.3,11-5.4c1.1-1.1,13-9.9,13.7-8.1
			c0.7,1.9-1.1,3.4-2.7,5.2c0,0,5.3-4.1,6.6-4.1c1.3,0.1,0.4,3.4,0.4,3.4s1.1,2.1-1.9,8c0,0-8,10.8-12.4,13.7
			c-5.4,3.6-19.9,10.8-26.5,11.1l-11.2,16.5C291.9,257.5,286,250.8,284.2,242.8z"/>
		<path class="st16" d="M327.6,225.7c1.7-1.2,8-10.4,13.5-8.6c0,0-5-2.8-13.5,7.2C327.5,224.3,325.9,226.9,327.6,225.7z"/>
		<path class="st16" d="M343.9,208.2c0,0-4.1,0.9-9.9,5.9c-5.8,5.1-5.8,5.1-5.8,5.1l-4,1.6l3.4-2.2
			C327.5,218.6,338.2,208.8,343.9,208.2L343.9,208.2z"/>
		<path class="st16" d="M338.2,207.2c0,0-5.7,2.6-10.1,7.2c0,0,6.5-4.6,8.9-5.6L338.2,207.2z"/>
	</g>
	<path class="st23" d="M264.3,552c0,0-33.5-76.8-34.8-84.1c-1.3-7.4-6.5-39.2-6.5-39.2s-103.5-0.3-108.3-3.4
		c-4.7-3.2-9.4-21.3-9.4-21.3v-18.2l67-16.1c4.3,0.1,8.9,0.7,13.6,1.8c0,0,0,0,0,0c36.7,8.3,82,43.3,82,43.3
		c1.3,8.4,18.7,125,19.5,127.2C288.3,543.9,264.3,552,264.3,552z"/>
	<path class="st24" d="M205,358.2c0,0-9.8,11.9-36.1,14.1c-21,1.7-58.7,16.9-58.7,16.9s0.9-2.1-7.4-40s1.9-53.9-22.8-85.8
		c-7.7-10-5.8-36.3,2.9-43.5c9.2-7.6,41.3-18.9,53.7-18.9c20.3,0,39.2,11.6,39.2,11.6s13.1,18.9,14.5,45c1.2,21.1-11,40.5-11.6,56.6
		c-0.6,16,11.2,29.1,12.6,31.7C192.8,348.4,205,358.2,205,358.2z"/>
	<path class="st24" d="M222.2,389.5c-20.6,15.6-125.1,51.6-137.8,26.1c-7.3-14.5-6.5-28.2,1.5-43.5c4.3-8.3,5.1-27.7,4.4-39.2
		c-0.8-12.5-7.3-23-8.7-59.5c-0.2-5.4-1.5-10.2,2.9-15.5l107.7-12c-0.6,35.1-12.3,61.2-10.9,76.2c0.4,4,1.6,7.2,4.2,9.6
		c10.6,9.6,20.4,17.1,26,26C220.8,372.4,223.6,375.6,222.2,389.5z"/>
	<path class="st24" d="M300.6,248.8c0,0-31.8,58.1-49.3,63.8c0,0-46.8-22.7-65.3-39.2c-22.7-20.2-31.9-69.6-31.9-69.6
		s13.3,2.4,21.8,8.7c17.4,13.1,52.2,65.3,72.5,71.1c4.4,1.3,36.3-43.5,36.3-43.5S291.2,242.3,300.6,248.8z"/>
	<g>
		<polygon class="st25" points="114.4,210 130.3,224.9 136.4,209.7 147.1,223.7 157,209.1 145.2,202.1 125.5,204.3 		"/>
		<polygon class="st19" points="116.3,208.3 121.4,198.4 137.7,201.4 130.1,219.7 		"/>
		<polygon class="st19" points="154.7,206.6 147.4,198.4 133.4,201.4 146.8,219.7 		"/>
		<path class="st19" d="M141.1,293.9c0-1.9-1.2-3.4-2.6-3.4c-1.4,0-2.6,1.5-2.6,3.4c0,1.8,1.2,3.3,2.6,3.3
			C139.9,297.2,141.1,295.7,141.1,293.9z"/>
		<path class="st19" d="M141.1,270c0-1.8-1.2-3.3-2.6-3.3c-1.4,0-2.6,1.5-2.6,3.3c0,1.9,1.2,3.4,2.6,3.4
			C139.9,273.3,141.1,271.8,141.1,270z"/>
		<path class="st19" d="M141.1,246.1c0-1.9-1.2-3.4-2.6-3.4c-1.4,0-2.6,1.5-2.6,3.4c0,1.8,1.2,3.3,2.6,3.3
			C139.9,249.5,141.1,248,141.1,246.1z"/>
		<path class="st19" d="M141.1,222.2c0-1.8-1.2-3.3-2.6-3.3c-1.4,0-2.6,1.5-2.6,3.3c0,1.9,1.2,3.3,2.6,3.3
			C139.9,225.6,141.1,224.1,141.1,222.2z"/>
	</g>
</g>
<g>
	<path class="st26" d="M-117,654.4l0,1.2c5.5-0.6,10.5-0.5,15.6-2.7c6.7-2.9,9.6-8.8,17.2-10C-102.4,639.1-117,641.6-117,654.4z"/>
	<path class="st27" d="M464.7,576l-1.3-154.1l-95.1,19.3l1.1,96.6l0.3,26.5c2.9,4.1,8.7,6.4,13.2,9.4c0.1,0,0.1,0.1,0.2,0.1
		c0,0,0-0.1,0-0.1c1-7.1,5.5-9.9,11.7-9.9c4.2,0,9.2,1.3,14.5,3.6h0c8.4,3.6,17.4,9.4,24.8,15.9c9.6,8.4,16.6,17.8,16,24.5
		c4.9,1.4,10.3,3.9,14.9,6.2l-0.3-35V576z"/>
	<path class="st26" d="M383,573.7c5.4,0.3,10.8,0.4,14.6,0.1c1.3-4,6.6-6.2,11.6-6.5c-5.3-2.3-10.3-3.6-14.5-3.6
		C388.5,563.8,384,566.6,383,573.7z"/>
	<path class="st28" d="M645.3,321.7l0-0.2L486,352l-31.5,6l-475.2,90.8v27.5l9.1-1.8l14.1-2.7l16.3-3.1l1.1-0.2l434.6-83.1l31.5-6
		l107.7-20.6l21.3-4.1l10.2-2l21.7-4.1C646.9,348.2,648.8,334.8,645.3,321.7z"/>
	<path class="st29" d="M-21.5,448.9l0.8-0.2L454.5,358l31.5-6l159.2-30.4l1.3-0.2L556,302.5c-23,7.7-46.3,14.7-69.9,21.2
		c-5.4,1.5-10.8,2.9-16.3,4.3c-5.1,1.3-10.1,2.6-15.2,3.9c-111,28.4-222.1,55.2-336.2,65.7c-46.4,4.4-92.8,14.4-139.2,7.7
		c-12.8-1.7-54.5-15.8-59.7-32.9l-93.4,16.9l0.9,0.3l54.3,21.3L-21.5,448.9z"/>
	<path class="st5" d="M486,379.4l-31.5,6L20,468.5l-1.1,0.2l-16.3,3.1v43.5v153.4v37.8c4.9-1,10.3-1.2,15.7-2.6H20v-28.3V511.8
		l348.3-70.6l95.1-19.3l1.3,154.1v3l0.3,35c0.1,0.1,0.2,0.1,0.3,0.2c5.8-2.3,13.5-2.5,19.6-3.9c-0.1-0.7-0.1-1.4-0.1-2
		c0-26.6,47.8-35.4,66.4-40.2c8.1-2.4,15.6-4.3,22.4-5c16.7-1.8,28.5,3.7,31.5,27.1c0.1,0,0.2,0.1,0.3,0.1c2.9-1.2,6.2-2.3,9.6-3.2
		v-45.7V391.2v-36.4l-21.3,4.1L486,379.4z"/>
	<path class="st26" d="M573.6,563.1c8.2,3.1,16.3,14.4,14.1,22.4c4.1,0,7.9,1,11.5,2.4c2,0.7,3.9,1.5,5.9,2.4
		C602.1,566.7,590.3,561.3,573.6,563.1z"/>
	<path class="st30" d="M-20.9,405.3c46.4,6.6,92.8-3.3,139.2-7.7c114.1-10.5,225.2-37.3,336.2-65.7c5.1-1.3,10.1-2.6,15.2-3.9
		c5.4-1.4,10.9-2.8,16.3-4.3c23.7-6.4,46.9-13.5,69.9-21.2l-116.6-24.3l-520,94.2C-75.4,389.4-33.7,403.6-20.9,405.3z"/>
	<path class="st27" d="M2.6,515.3v-43.5l-14.1,2.7l-9.1,1.8l-98.6-40.3l-17.4-7.1v184.5V644c5.2,4.2,12.2,8.7,18.1,11.8
		c0.6-0.1,1.1-0.2,1.7-0.3l0-1.2c0-12.8,14.6-15.2,32.9-11.5c0,0,0,0,0,0c6.2,1.3,12.9,3.2,19.5,5.8c28.3,10.8,56.8,31.4,53,49.5
		c3.3,2,8.7,6.6,12,8.8c0.7-0.2,1.4-0.3,2.1-0.5v-37.8V515.3z"/>
	<path class="st31" d="M-20.7,476.3v-27.5l-0.8,0.2l-97.3-38.1l-54.3-21.3c1.6,16.4,2.5,25.4,2.5,25.4l19.9,8.1l14.1,5.8l17.4,7.1
		L-20.7,476.3z"/>
</g>
<g>
	<g id="XMLID_183_">
		<g>
			<path class="st8" d="M251.5,347.8c0,0.2,0,0.4-0.1,0.5c-14.4-7.3-27.1-14.9-41.8-21.7c0,0-2.1-4-1-5.8
				c15.4,3.3,28.4,10.3,43.1,17.5C251.3,338.4,251.4,344.9,251.5,347.8z"/>
			<path class="st32" d="M399,317.2c-24.8,4.5-135.6,29-147.1,31.4c-0.2-0.1-0.4-0.2-0.6-0.3c0-0.2-0.2-9.9-0.2-9.9
				c0.1,0,0.3-0.1,0.5-0.1c11.7-2.5,120.7-26.5,146.5-31.3C402.1,310.8,399.2,317.1,399,317.2z"/>
			<path class="st33" d="M397.1,306.2c0.4,0.2,0.7,0.5,1,0.8c-25.8,4.8-134.8,28.8-146.5,31.3c-14.7-7.3-27.7-14.2-43.1-17.5
				c0.3-0.6,1-1,2-1.2v-0.1c48.9-8.3,99.7-21,146.1-28.9C357,290.6,389.5,303.1,397.1,306.2z"/>
		</g>
	</g>
	<g id="XMLID_182_">
		<g>
			<polygon class="st34" points="232.9,318.7 237.1,320.3 237.1,320.3 230.9,321.8 226,320 			"/>
			<path class="st35" d="M237.1,320.3c0.6,1.2,0.2,2.5,0.2,2.5l-6.2,1.5c-0.2-0.7-0.4-1.7-0.1-2.5L237.1,320.3z"/>
			<path class="st36" d="M230.9,321.8c-0.2,0.8,0,1.8,0.1,2.5h0l-5-1.8c0,0-0.5-1.6-0.1-2.5L230.9,321.8z"/>
		</g>
	</g>
	<g id="XMLID_181_">
		<g>
			<polygon class="st34" points="244.5,316.8 248.7,318.4 248.7,318.4 242.5,319.9 237.6,318.1 			"/>
			<path class="st35" d="M248.7,318.4c0.6,1.2,0.2,2.5,0.2,2.5l-6.2,1.5c-0.2-0.7-0.4-1.7-0.1-2.5L248.7,318.4z"/>
			<path class="st36" d="M242.5,319.9c-0.2,0.8,0,1.8,0.1,2.5h0l-5-1.8c0,0-0.5-1.6-0.1-2.5L242.5,319.9z"/>
		</g>
	</g>
	<g id="XMLID_180_">
		<g>
			<polygon class="st34" points="256.7,314 260.9,315.6 260.9,315.6 254.7,317.1 249.8,315.4 			"/>
			<path class="st35" d="M260.9,315.6c0.6,1.2,0.2,2.5,0.2,2.5l-6.2,1.5c-0.2-0.7-0.4-1.7-0.1-2.5L260.9,315.6z"/>
			<path class="st36" d="M254.7,317.1c-0.2,0.8,0,1.8,0.1,2.5h0l-5-1.8c0,0-0.5-1.6-0.1-2.5L254.7,317.1z"/>
		</g>
	</g>
	<g id="XMLID_179_">
		<g>
			<polygon class="st34" points="268.3,312.1 272.5,313.7 272.5,313.7 266.3,315.2 261.4,313.4 			"/>
			<path class="st35" d="M272.5,313.7c0.6,1.2,0.2,2.5,0.2,2.5l-6.2,1.5c-0.2-0.7-0.4-1.7-0.1-2.5L272.5,313.7z"/>
			<path class="st36" d="M266.3,315.2c-0.2,0.8,0,1.8,0.1,2.5h0l-5-1.8c0,0-0.5-1.6-0.1-2.5L266.3,315.2z"/>
		</g>
	</g>
	<g id="XMLID_178_">
		<g>
			<polygon class="st34" points="280.5,308.7 284.7,310.3 284.7,310.3 278.5,311.8 273.6,310 			"/>
			<path class="st35" d="M284.7,310.3c0.6,1.2,0.2,2.5,0.2,2.5l-6.2,1.5c-0.2-0.7-0.4-1.7-0.1-2.5L284.7,310.3z"/>
			<path class="st36" d="M278.5,311.8c-0.2,0.8,0,1.8,0.1,2.5h0l-5-1.8c0,0-0.5-1.6-0.1-2.5L278.5,311.8z"/>
		</g>
	</g>
	<g id="XMLID_177_">
		<g>
			<polygon class="st34" points="292.1,306.8 296.3,308.4 296.3,308.4 290.1,309.9 285.2,308.1 			"/>
			<path class="st35" d="M296.3,308.4c0.6,1.2,0.2,2.5,0.2,2.5l-6.2,1.5c-0.2-0.7-0.4-1.7-0.1-2.5L296.3,308.4z"/>
			<path class="st36" d="M290.1,309.9c-0.2,0.8,0,1.8,0.1,2.5h0l-5-1.8c0,0-0.5-1.6-0.1-2.5L290.1,309.9z"/>
		</g>
	</g>
	<g id="XMLID_176_">
		<g>
			<polygon class="st34" points="304.3,304 308.5,305.6 308.5,305.6 302.3,307.1 297.4,305.4 			"/>
			<path class="st35" d="M308.5,305.6c0.6,1.2,0.2,2.5,0.2,2.5l-6.2,1.5c-0.2-0.7-0.4-1.7-0.1-2.5L308.5,305.6z"/>
			<path class="st36" d="M302.3,307.1c-0.2,0.8,0,1.8,0.1,2.5h0l-5-1.8c0,0-0.5-1.6-0.1-2.5L302.3,307.1z"/>
		</g>
	</g>
	<g id="XMLID_175_">
		<g>
			<polygon class="st34" points="315.9,302.1 320.1,303.7 320.1,303.7 313.9,305.2 309,303.4 			"/>
			<path class="st35" d="M320.1,303.7c0.6,1.2,0.2,2.5,0.2,2.5l-6.2,1.5c-0.2-0.7-0.4-1.7-0.1-2.5L320.1,303.7z"/>
			<path class="st36" d="M313.9,305.2c-0.2,0.8,0,1.8,0.1,2.5h0l-5-1.8c0,0-0.5-1.6-0.1-2.5L313.9,305.2z"/>
		</g>
	</g>
	<g id="XMLID_174_">
		<g>
			<polygon class="st34" points="326.4,299.6 330.6,301.1 330.6,301.2 324.5,302.7 319.5,300.9 			"/>
			<path class="st35" d="M330.6,301.2c0.6,1.2,0.2,2.5,0.2,2.5l-6.2,1.5c-0.2-0.7-0.4-1.7-0.1-2.5L330.6,301.2z"/>
			<path class="st36" d="M324.5,302.7c-0.2,0.8,0,1.8,0.1,2.5h0l-5-1.8c0,0-0.5-1.6-0.1-2.5L324.5,302.7z"/>
		</g>
	</g>
	<g id="XMLID_173_">
		<g>
			<polygon class="st34" points="338,297.6 342.2,299.2 342.2,299.2 336.1,300.7 331.1,299 			"/>
			<path class="st35" d="M342.2,299.2c0.6,1.2,0.2,2.5,0.2,2.5l-6.2,1.5c-0.2-0.7-0.4-1.7-0.1-2.5L342.2,299.2z"/>
			<path class="st36" d="M336.1,300.7c-0.2,0.8,0,1.8,0.1,2.5l0,0l-5-1.8c0,0-0.5-1.6-0.1-2.5L336.1,300.7z"/>
		</g>
	</g>
	<g id="XMLID_172_">
		<g>
			<polygon class="st34" points="350.2,294.9 354.4,296.4 354.5,296.5 348.3,298 343.3,296.2 			"/>
			<path class="st35" d="M354.5,296.5c0.6,1.2,0.2,2.5,0.2,2.5l-6.2,1.5c-0.2-0.7-0.4-1.7-0.1-2.5L354.5,296.5z"/>
			<path class="st36" d="M348.3,298c-0.2,0.8,0,1.8,0.1,2.5h0l-5-1.8c0,0-0.5-1.6-0.1-2.5L348.3,298z"/>
		</g>
	</g>
	<g id="XMLID_171_">
		<g>
			<polygon class="st34" points="361.8,292.9 366,294.5 366,294.5 359.9,296 354.9,294.3 			"/>
			<path class="st35" d="M366,294.5c0.6,1.2,0.2,2.5,0.2,2.5l-6.2,1.5c-0.2-0.7-0.4-1.7-0.1-2.5L366,294.5z"/>
			<path class="st36" d="M359.9,296c-0.2,0.8,0,1.8,0.1,2.5h0l-5-1.8c0,0-0.5-1.6-0.1-2.5L359.9,296z"/>
		</g>
	</g>
	<g id="XMLID_170_">
		<g>
			<polygon class="st34" points="243.4,323.9 247.6,325.5 247.7,325.5 241.5,327 236.5,325.2 			"/>
			<path class="st35" d="M247.7,325.5c0.6,1.2,0.2,2.5,0.2,2.5l-6.2,1.5c-0.2-0.7-0.4-1.7-0.1-2.5L247.7,325.5z"/>
			<path class="st36" d="M241.5,327c-0.2,0.8,0,1.8,0.1,2.5h0l-5-1.8c0,0-0.5-1.6-0.1-2.5L241.5,327z"/>
		</g>
	</g>
	<g id="XMLID_169_">
		<g>
			<polygon class="st34" points="255,322 259.2,323.5 259.3,323.6 253.1,325.1 248.1,323.3 			"/>
			<path class="st35" d="M259.3,323.6c0.6,1.2,0.2,2.5,0.2,2.5l-6.2,1.5c-0.2-0.7-0.4-1.7-0.1-2.5L259.3,323.6z"/>
			<path class="st36" d="M253.1,325.1c-0.2,0.8,0,1.8,0.1,2.5h0l-5-1.8c0,0-0.5-1.6-0.1-2.5L253.1,325.1z"/>
		</g>
	</g>
	<g id="XMLID_168_">
		<g>
			<polygon class="st34" points="267.2,319.2 271.4,320.8 271.5,320.8 265.3,322.3 260.3,320.5 			"/>
			<path class="st35" d="M271.5,320.8c0.6,1.2,0.2,2.5,0.2,2.5l-6.2,1.5c-0.2-0.7-0.4-1.7-0.1-2.5L271.5,320.8z"/>
			<path class="st36" d="M265.3,322.3c-0.2,0.8,0,1.8,0.1,2.5h0l-5-1.8c0,0-0.5-1.6-0.1-2.5L265.3,322.3z"/>
		</g>
	</g>
	<g id="XMLID_167_">
		<g>
			<polygon class="st34" points="278.8,317.3 283,318.8 283.1,318.9 276.9,320.4 271.9,318.6 			"/>
			<path class="st35" d="M283.1,318.9c0.6,1.2,0.2,2.5,0.2,2.5l-6.2,1.5c-0.2-0.7-0.4-1.7-0.1-2.5L283.1,318.9z"/>
			<path class="st36" d="M276.9,320.4c-0.2,0.8,0,1.8,0.1,2.5h0l-5-1.8c0,0-0.5-1.6-0.1-2.5L276.9,320.4z"/>
		</g>
	</g>
	<g id="XMLID_166_">
		<g>
			<polygon class="st34" points="291,313.9 295.2,315.5 295.3,315.5 289.1,317 284.1,315.2 			"/>
			<path class="st35" d="M295.3,315.5c0.6,1.2,0.2,2.5,0.2,2.5l-6.2,1.5c-0.2-0.7-0.4-1.7-0.1-2.5L295.3,315.5z"/>
			<path class="st36" d="M289.1,317c-0.2,0.8,0,1.8,0.1,2.5h0l-5-1.8c0,0-0.5-1.6-0.1-2.5L289.1,317z"/>
		</g>
	</g>
	<g id="XMLID_165_">
		<g>
			<polygon class="st34" points="302.6,312 306.8,313.5 306.9,313.6 300.7,315.1 295.7,313.3 			"/>
			<path class="st35" d="M306.9,313.6c0.6,1.2,0.2,2.5,0.2,2.5l-6.2,1.5c-0.2-0.7-0.4-1.7-0.1-2.5L306.9,313.6z"/>
			<path class="st36" d="M300.7,315.1c-0.2,0.8,0,1.8,0.1,2.5h0l-5-1.8c0,0-0.5-1.6-0.1-2.5L300.7,315.1z"/>
		</g>
	</g>
	<g id="XMLID_164_">
		<g>
			<polygon class="st34" points="314.9,309.2 319,310.8 319.1,310.8 312.9,312.3 307.9,310.5 			"/>
			<path class="st35" d="M319.1,310.8c0.6,1.2,0.2,2.5,0.2,2.5l-6.2,1.5c-0.2-0.7-0.4-1.7-0.1-2.5L319.1,310.8z"/>
			<path class="st36" d="M312.9,312.3c-0.2,0.8,0,1.8,0.1,2.5h0l-5-1.8c0,0-0.5-1.6-0.1-2.5L312.9,312.3z"/>
		</g>
	</g>
	<g id="XMLID_163_">
		<g>
			<polygon class="st34" points="326.4,307.3 330.6,308.9 330.7,308.9 324.5,310.4 319.5,308.6 			"/>
			<path class="st35" d="M330.7,308.9c0.6,1.2,0.2,2.5,0.2,2.5l-6.2,1.5c-0.2-0.7-0.4-1.7-0.1-2.5L330.7,308.9z"/>
			<path class="st36" d="M324.5,310.4c-0.2,0.8,0,1.8,0.1,2.5h0l-5-1.8c0,0-0.5-1.6-0.1-2.5L324.5,310.4z"/>
		</g>
	</g>
	<g id="XMLID_162_">
		<g>
			<polygon class="st34" points="337,304.7 341.2,306.3 341.2,306.3 335,307.8 330.1,306.1 			"/>
			<path class="st35" d="M341.2,306.3c0.6,1.2,0.2,2.5,0.2,2.5l-6.2,1.5c-0.2-0.7-0.4-1.7-0.1-2.5L341.2,306.3z"/>
			<path class="st36" d="M335,307.8c-0.2,0.8,0,1.8,0.1,2.5h0l-5-1.8c0,0-0.5-1.6-0.1-2.5L335,307.8z"/>
		</g>
	</g>
	<g id="XMLID_161_">
		<g>
			<polygon class="st34" points="348.6,302.8 352.8,304.4 352.8,304.4 346.6,305.9 341.7,304.1 			"/>
			<path class="st35" d="M352.8,304.4c0.6,1.2,0.2,2.5,0.2,2.5l-6.2,1.5c-0.2-0.7-0.4-1.7-0.1-2.5L352.8,304.4z"/>
			<path class="st36" d="M346.6,305.9c-0.2,0.8,0,1.8,0.1,2.5l0,0l-5-1.8c0,0-0.5-1.6-0.1-2.5L346.6,305.9z"/>
		</g>
	</g>
	<g id="XMLID_160_">
		<g>
			<polygon class="st34" points="360.8,300 365,301.6 365,301.7 358.8,303.1 353.9,301.4 			"/>
			<path class="st35" d="M365,301.7c0.6,1.2,0.2,2.5,0.2,2.5l-6.2,1.5c-0.2-0.7-0.4-1.7-0.1-2.5L365,301.7z"/>
			<path class="st36" d="M358.8,303.1c-0.2,0.8,0,1.8,0.1,2.5h0l-5-1.8c0,0-0.5-1.6-0.1-2.5L358.8,303.1z"/>
		</g>
	</g>
	<g id="XMLID_159_">
		<g>
			<polygon class="st34" points="372.4,298.1 376.6,299.7 376.6,299.7 370.4,301.2 365.5,299.5 			"/>
			<path class="st35" d="M376.6,299.7c0.6,1.2,0.2,2.5,0.2,2.5l-6.2,1.5c-0.2-0.7-0.4-1.7-0.1-2.5L376.6,299.7z"/>
			<path class="st36" d="M370.4,301.2c-0.2,0.8,0,1.8,0.1,2.5h0l-5-1.8c0,0-0.5-1.6-0.1-2.5L370.4,301.2z"/>
		</g>
	</g>
	<g id="XMLID_157_">
		<g>
			<polygon class="st34" points="254.4,328.7 258.6,330.2 258.6,330.3 252.5,331.8 247.5,330 			"/>
			<path class="st35" d="M258.6,330.3c0.6,1.2,0.2,2.5,0.2,2.5l-6.2,1.5c-0.2-0.7-0.4-1.7-0.1-2.5L258.6,330.3z"/>
			<path class="st36" d="M252.5,331.8c-0.2,0.8,0,1.8,0.1,2.5h0l-5-1.8c0,0-0.5-1.6-0.1-2.5L252.5,331.8z"/>
		</g>
	</g>
	<g id="XMLID_155_">
		<g>
			<polygon class="st34" points="266,326.7 270.2,328.3 270.2,328.3 264,329.8 259.1,328.1 			"/>
			<path class="st35" d="M270.2,328.3c0.6,1.2,0.2,2.5,0.2,2.5l-6.2,1.5c-0.2-0.7-0.4-1.7-0.1-2.5L270.2,328.3z"/>
			<path class="st36" d="M264,329.8c-0.2,0.8,0,1.8,0.1,2.5h0l-5-1.8c0,0-0.5-1.6-0.1-2.5L264,329.8z"/>
		</g>
	</g>
	<g id="XMLID_153_">
		<g>
			<polygon class="st34" points="278.2,324 282.4,325.5 282.4,325.6 276.3,327.1 271.3,325.3 			"/>
			<path class="st35" d="M282.4,325.6c0.6,1.2,0.2,2.5,0.2,2.5l-6.2,1.5c-0.2-0.7-0.4-1.7-0.1-2.5L282.4,325.6z"/>
			<path class="st36" d="M276.3,327.1c-0.2,0.8,0,1.8,0.1,2.5h0l-5-1.8c0,0-0.5-1.6-0.1-2.5L276.3,327.1z"/>
		</g>
	</g>
	<g id="XMLID_152_">
		<g>
			<polygon class="st34" points="289.8,322 294,323.6 294,323.6 287.9,325.1 282.9,323.4 			"/>
			<path class="st35" d="M294,323.6c0.6,1.2,0.2,2.5,0.2,2.5l-6.2,1.5c-0.2-0.7-0.4-1.7-0.1-2.5L294,323.6z"/>
			<path class="st36" d="M287.9,325.1c-0.2,0.8,0,1.8,0.1,2.5h0l-5-1.8c0,0-0.5-1.6-0.1-2.5L287.9,325.1z"/>
		</g>
	</g>
	<g id="XMLID_151_">
		<g>
			<polygon class="st34" points="302,318.7 306.2,320.2 306.3,320.3 300.1,321.8 295.1,320 			"/>
			<path class="st35" d="M306.3,320.3c0.6,1.2,0.2,2.5,0.2,2.5l-6.2,1.5c-0.2-0.7-0.4-1.7-0.1-2.5L306.3,320.3z"/>
			<path class="st36" d="M300.1,321.8c-0.2,0.8,0,1.8,0.1,2.5h0l-5-1.8c0,0-0.5-1.6-0.1-2.5L300.1,321.8z"/>
		</g>
	</g>
	<g id="XMLID_150_">
		<g>
			<polygon class="st34" points="313.6,316.7 317.8,318.3 317.8,318.3 311.7,319.8 306.7,318.1 			"/>
			<path class="st35" d="M317.8,318.3c0.6,1.2,0.2,2.5,0.2,2.5l-6.2,1.5c-0.2-0.7-0.4-1.7-0.1-2.5L317.8,318.3z"/>
			<path class="st36" d="M311.7,319.8c-0.2,0.8,0,1.8,0.1,2.5h0l-5-1.8c0,0-0.5-1.6-0.1-2.5L311.7,319.8z"/>
		</g>
	</g>
	<g id="XMLID_148_">
		<g>
			<polygon class="st34" points="325.8,314 330,315.5 330.1,315.6 323.9,317.1 318.9,315.3 			"/>
			<path class="st35" d="M330.1,315.6c0.6,1.2,0.2,2.5,0.2,2.5l-6.2,1.5c-0.2-0.7-0.4-1.7-0.1-2.5L330.1,315.6z"/>
			<path class="st36" d="M323.9,317.1c-0.2,0.8,0,1.8,0.1,2.5h0l-5-1.8c0,0-0.5-1.6-0.1-2.5L323.9,317.1z"/>
		</g>
	</g>
	<g id="XMLID_147_">
		<g>
			<polygon class="st34" points="337.4,312 341.6,313.6 341.6,313.6 335.5,315.1 330.5,313.4 			"/>
			<path class="st35" d="M341.6,313.6c0.6,1.2,0.2,2.5,0.2,2.5l-6.2,1.5c-0.2-0.7-0.4-1.7-0.1-2.5L341.6,313.6z"/>
			<path class="st36" d="M335.5,315.1c-0.2,0.8,0,1.8,0.1,2.5h0l-5-1.8c0,0-0.5-1.6-0.1-2.5L335.5,315.1z"/>
		</g>
	</g>
	<g id="XMLID_146_">
		<g>
			<polygon class="st34" points="348,309.5 352.2,311.1 352.2,311.1 346,312.6 341.1,310.8 			"/>
			<path class="st35" d="M352.2,311.1c0.6,1.2,0.2,2.5,0.2,2.5l-6.2,1.5c-0.2-0.7-0.4-1.7-0.1-2.5L352.2,311.1z"/>
			<path class="st36" d="M346,312.6c-0.2,0.8,0,1.8,0.1,2.5h0l-5-1.8c0,0-0.5-1.6-0.1-2.5L346,312.6z"/>
		</g>
	</g>
	<g id="XMLID_145_">
		<g>
			<polygon class="st34" points="359.6,307.6 363.8,309.1 363.8,309.2 357.6,310.7 352.7,308.9 			"/>
			<path class="st35" d="M363.8,309.2c0.6,1.2,0.2,2.5,0.2,2.5l-6.2,1.5c-0.2-0.7-0.4-1.7-0.1-2.5L363.8,309.2z"/>
			<path class="st36" d="M357.6,310.7c-0.2,0.8,0,1.8,0.1,2.5l0,0l-5-1.8c0,0-0.5-1.6-0.1-2.5L357.6,310.7z"/>
		</g>
	</g>
	<g id="XMLID_144_">
		<g>
			<polygon class="st34" points="371.8,304.8 376,306.4 376,306.4 369.8,307.9 364.9,306.1 			"/>
			<path class="st35" d="M376,306.4c0.6,1.2,0.2,2.5,0.2,2.5l-6.2,1.5c-0.2-0.7-0.4-1.7-0.1-2.5L376,306.4z"/>
			<path class="st36" d="M369.8,307.9c-0.2,0.8,0,1.8,0.1,2.5h0l-5-1.8c0,0-0.5-1.6-0.1-2.5L369.8,307.9z"/>
		</g>
	</g>
	<g id="XMLID_143_">
		<g>
			<polygon class="st34" points="383.4,302.9 387.6,304.5 387.6,304.5 381.4,306 376.5,304.2 			"/>
			<path class="st35" d="M387.6,304.5c0.6,1.2,0.2,2.5,0.2,2.5l-6.2,1.5c-0.2-0.7-0.4-1.7-0.1-2.5L387.6,304.5z"/>
			<path class="st36" d="M381.4,306c-0.2,0.8,0,1.8,0.1,2.5h0l-5-1.8c0,0-0.5-1.6-0.1-2.5L381.4,306z"/>
		</g>
	</g>
</g>
<g>
	<path class="st37" d="M366.3,307.5c-3.1,0.1-6.1,0.3-9.1,0.5c-0.1-0.6-0.2-1.2-0.3-1.8c-0.5-2.6-0.9-5.2-1.4-7.5
		c0-0.3-0.1-0.6-0.2-0.9c-0.1-0.7-0.3-1.4-0.4-2c-3.6-18.5-4.3-38.9,3.9-56.5c2.9-6.2,7.7-16.1,11.5-8.3l-2,0.3
		c-9.6,16.6-6.4,41.3-4.5,58.7c0.2,1.4,0.3,2.8,0.5,4.3c0.2,1.6,0.4,3.3,0.6,5c0.3,2.2,0.6,4.5,1,6.7
		C366.1,306.5,366.2,307,366.3,307.5z"/>
	<path class="st37" d="M357.2,308c3-0.2,6.1-0.4,9.1-0.5c1,5.7,2.3,11.3,4.1,16.6c1.9,5.4,4.3,10.4,7.5,14.6
		c0.1,1.1,1.1,3.9,2.2,6.3c-4.7-0.8-10-2.9-13.2-6c-2.2-3.1-3.9-6.9-5.2-11.1C361.8,327.9,358.2,313.6,357.2,308z"/>
	<path class="st8" d="M397.7,338.2c-5.6,1.8-12.3,4-17,6.9c-0.2,0-0.4-0.1-0.5-0.1c-1.1-2.4-2.2-5.2-2.2-6.3
		c-3.2-4.2-5.6-9.2-7.5-14.6c-1.8-5.3-3.1-10.9-4.1-16.6c5.3-0.2,10.7-0.2,15.8,0c1.8,5.2,4,10.2,6.4,15c0.9,1.8,1.8,3.5,2.7,5.3
		C393.2,331.4,395.4,334.9,397.7,338.2z"/>
	<path class="st8" d="M379.6,300c0.5,1.8,1.2,3.7,1.8,5.5c0.2,0.7,0.5,1.3,0.7,2c-5.2-0.2-10.5-0.2-15.8,0c-0.1-0.5-0.2-1-0.3-1.5
		c-0.4-2.3-0.7-4.5-1-6.7c-0.2-1.7-0.4-3.4-0.6-5c-0.2-1.5-0.3-2.9-0.5-4.3c-1.9-17.3-5.1-42.1,4.5-58.7l2-0.3
		c0.1,0.3,0.3,0.6,0.4,1c3.4,9.6,1.3,24.5,1.9,34.9c0.9,8.2,2.4,16.7,4.6,25.2C377.9,294.7,378.7,297.4,379.6,300z"/>
	<path class="st38" d="M316.8,341.4c-3.3,9.3,3,12.5,10.3,15.6c13.6,5.3,28.3,4.3,43,3.9c21.4-0.7,41.5-2.2,58.3-16.4
		c2.6,3.3,3.2,6.8,0.2,10.1c-0.7,0.7-1.6,1.5-2.7,2.3c-8.6,5.7-19.6,9.1-31.2,10.8c-17.5,2.6-36.5,1.6-50.9-0.4
		c-11.7-1.6-44.1-10.7-26.6-26.6C317,340.8,316.9,341.1,316.8,341.4z"/>
	<path class="st33" d="M266.9,156.7c-0.9,0.1-1.8,0.1-2.6,0.1c-0.7-7.2-1.2-14.2-1.6-21c60.5-6.9,184.3-19.4,212.9-23
		c-8.3,30.7-16.9,63.4-24.2,96.5c-1,4.7-2,9.3-3,13.9c-17.6-22.2-46.2-35.3-74.7-45.7C338.7,165,304,154.9,266.9,156.7z"/>
	<path class="st32" d="M448.3,223.2c-4.1,19.6-7.7,39.2-10.5,58.4c-16.4,2.9-38.1,6.6-60.6,10.4c-2.3-8.5-3.8-17-4.6-25.2
		c-0.6-10.4,1.5-25.2-1.9-34.9c-0.1-0.4-0.3-0.7-0.4-1c-3.8-7.8-8.6,2.1-11.5,8.3c-8.2,17.7-7.5,38.1-3.9,56.5
		c-4.3,0.7-8.6,1.4-12.8,2.2c-20.4,3.4-39.2,6.6-52.9,9c-0.4,0-0.8,0-1.1,0c-0.8-4-1.6-8-2.5-12.2c-8.1-41-16.9-91.5-21.2-135.6
		c0.8-0.8,1.6-1.6,2.5-2.4c37.1-1.8,71.8,8.2,106.7,20.8C402.1,187.9,430.7,201,448.3,223.2z"/>
	<path class="st39" d="M423.1,339.5c2.1,1.5,3.9,3.2,5.2,4.8c-16.8,14.3-36.9,15.7-58.3,16.4c-14.7,0.5-29.4,1.4-43-3.9
		c-7.3-3.1-13.6-6.2-10.3-15.6c0.1-0.3,0.2-0.6,0.4-0.8c0.4-0.4,0.9-0.8,1.4-1.2c0.5-0.4,1-0.7,1.5-1.1c5-3.4,11.7-5.7,18.7-7.2
		c-1.4,1.3-2.6,2.8-3.3,4.4c-7.4,16.4,12.3,19,24.3,19.3C375.7,355.8,410.6,354.5,423.1,339.5z"/>
	<path class="st33" d="M404.5,330.1c5.5,1.8,13.1,5.3,18.7,9.4c-12.5,14.9-47.4,16.3-63.3,15.2c-12-0.3-31.7-2.9-24.3-19.3
		c0.7-1.6,1.8-3.1,3.3-4.4c7.8-1.8,16-2.5,22.4-2.9l0.6-0.2c1.4,4.2,3,8,5.2,11.1c3.1,3.1,8.4,5.2,13.2,6c0.1,0.1,0.1,0.2,0.2,0.3
		c0.1-0.1,0.2-0.2,0.4-0.2c4.7-2.9,11.4-5.1,17-6.9c-2.3-3.3-4.4-6.8-6.4-10.5c3.1,0.5,6.2,0.7,8.9,1.2
		C401.4,329.2,402.8,329.6,404.5,330.1z"/>
	<path class="st8" d="M288.1,307c0,0.1,0,0.1,0,0.2c-5,0.9-9.3,1.6-12.6,2.3c-0.2-0.7-0.3-1.5-0.5-2.2c-1-4.3-2-8.7-3-13.2
		c-7.9-36-16.5-79.1-21.9-118.6c4.1-5.7,9.2-11.3,14.2-16.3c4.2,44.2,13.1,94.6,21.2,135.6C286.5,299,287.3,303.1,288.1,307z"/>
	<path class="st32" d="M264.3,156.9c0.9-0.1,1.8-0.1,2.6-0.1c-0.8,0.8-1.6,1.6-2.5,2.4C264.4,158.4,264.3,157.6,264.3,156.9z"/>
	<path class="st8" d="M264.3,156.9c0,0.7,0.1,1.5,0.2,2.3c-5.1,5-10.1,10.6-14.2,16.3c-1.8-13.1-3.2-25.7-4.1-37.6
		c4.7-0.6,10.3-1.2,16.6-1.9C263.1,142.7,263.6,149.7,264.3,156.9z"/>
</g>
<g>
	<g>
		<path class="st17" d="M126.5,347.4l12.9,3c0,0,10.5,3.9,17.8,3.9c7.4,0,17.4-1.9,17.4-1.9s16.1,1.1,18.3,0s2.9-2.6,2.9-2.6
			s7.5,0.5,8.9-1c0,0,2.8-0.7,2.4-2.6c0,0,1.5-1.2,1.4-2.4c-0.1-1.2-13.6-10.6-19.6-12.7c-6-2.1-32.9-0.8-52.2,2
			C136.6,332.9,128.2,335.9,126.5,347.4z"/>
		<path class="st16" d="M195.9,349.7c0,0-11.5-5-16.2-5.9c-4.6-0.9-10.5-0.9-10.5-0.9s6.8-0.3,10.8,0c4.1,0.3,17.3,6.8,17.3,6.8
			H195.9z"/>
		<path class="st16" d="M204.8,348.6c0,0-8.6-5.8-13.4-7.9c-4.8-2.1-14.3-3.2-14.3-3.2s8.3,0.1,14.2,2c5.9,1.8,14,9,14,9
			L204.8,348.6z"/>
		<path class="st16" d="M207.2,346c0,0-8.3-6.6-13.2-9.5c-4.9-2.8-8.9-3.8-8.9-3.8s4.3,0.8,10.5,4.2c6.2,3.4,11.9,8.7,11.9,8.7
			L207.2,346z"/>
	</g>
	<path class="st24" d="M141,331.5c-5.5,8-8.7,20.3-8.7,20.3s-97.2,2.8-104.1-4.6C17.7,335.8,67,229.9,83,219.8
		c16-10.2,7.3,14.5,0,40.6c-7.2,25.9-23.2,60.9-23.2,60.9L141,331.5z"/>
</g>
<g>
	<path class="st19" d="M378.8,103.4H276.3c-6,0-10.9-4.9-10.9-10.9V23.9c0-6,4.9-10.9,10.9-10.9h102.6c6,0,10.9,4.9,10.9,10.9v68.7
		C389.7,98.6,384.8,103.4,378.8,103.4z"/>
	<g transform="matrix(1,0,0,1,-569.688,-910)">
		<path class="st40" d="M887.1,1009.2l10.8,22.5l9.4-23.2L887.1,1009.2z"/>
	</g>
	<g>
		<g>
			<path d="M367.5,32c-4.6-6.6-13.7-8.3-20.4-3.8l-25,17.1c0,0,0,0,0,0L298,61.9c-6.7,4.6-8.4,13.7-3.8,20.4
				c4.6,6.7,13.7,8.4,20.4,3.8l24.1-16.6c0,0,0,0,0,0l25-17.1C370.4,47.8,372.1,38.6,367.5,32z M312.2,82.6
				c-4.8,3.3-11.3,2.1-14.5-2.7c-3.3-4.8-2.1-11.3,2.7-14.5l24.1-16.6c5.4-3.7,13-1.6,15.6,4.5l-3.6,2.5c-1.1-4.2-6.1-6-9.6-3.5
				l-24.1,16.6c-2.9,2-3.6,5.9-1.6,8.7c2,2.9,5.9,3.6,8.7,1.6l13.2-9.1c1.4,0.8,3.1,1.4,4.8,1.8L312.2,82.6z M331.6,59.1
				c-1,0.7-2.3,0.4-2.9-0.5c-0.7-1-0.4-2.3,0.5-2.9c1-0.7,2.3-0.4,2.9,0.5C332.8,57.2,332.6,58.5,331.6,59.1z M319.7,67.3l-12.2,8.4
				c-1,0.7-2.3,0.4-2.9-0.5c-0.7-1-0.4-2.3,0.5-2.9l12.2-8.4C317.9,65.1,318.7,66.3,319.7,67.3z M361.3,48.9l-25,17.1c0,0,0,0,0,0
				l0,0c-5.4,3.7-13,1.6-15.6-4.5l3.6-2.5c1.1,4.2,6.1,6,9.6,3.5c0,0,0,0,0,0c0,0,0,0,0,0l25-17.1c2.9-2,3.6-5.9,1.6-8.7
				c-2-2.9-5.9-3.6-8.7-1.6l-14,9.6c-1.5-0.9-3.1-1.5-4.8-1.8l16.5-11.3c4.7-3.2,11.3-2,14.5,2.7C367.3,39.1,366.1,45.6,361.3,48.9z
				 M341.2,47.5l13-8.9c1-0.7,2.3-0.4,2.9,0.5c0.7,1,0.4,2.3-0.5,2.9l-13,8.9C343,49.7,342.2,48.5,341.2,47.5z"/>
		</g>
	</g>
</g>
</svg>
