<?xml version="1.0" encoding="utf-8"?>
<!-- Generator: Adobe Illustrator 24.3.0, SVG Export Plug-In . SVG Version: 6.00 Build 0)  -->
<svg version="1.1" id="Layer_1" xmlns="http://www.w3.org/2000/svg" xmlns:xlink="http://www.w3.org/1999/xlink" x="0px" y="0px"
	 viewBox="0 0 480 600" style="enable-background:new 0 0 480 600;" xml:space="preserve">
<style type="text/css">
	.st0{fill:#7C232D;}
	.st1{opacity:0.68;fill:#FFFFFF;enable-background:new    ;}
	.st2{fill:url(#SVGID_1_);}
	.st3{fill:url(#SVGID_2_);}
	.st4{fill:#FFEDCA;}
	.st5{opacity:0.14;fill:#D72089;enable-background:new    ;}
	.st6{fill:#E1CCBE;}
	.st7{fill:#AA5B2D;}
	.st8{fill:#9E4E21;}
	.st9{fill:#C47C42;}
	.st10{fill:#A85425;}
	.st11{fill:#99451F;}
	.st12{fill:#AF5F2C;}
	.st13{fill:#D38B51;}
	.st14{fill:#B76334;}
	.st15{fill:#F49F44;}
	.st16{fill:#91B4BF;}
	.st17{fill:#74919B;}
	.st18{fill:#FFFFFF;}
	.st19{fill:#A6C1CA;}
	.st20{fill:#B6B8BA;}
	.st21{fill:#86A6B1;}
	.st22{fill:#76939C;}
	.st23{fill:#434345;}
	.st24{fill:#FC5C65;}
	.st25{fill:#AF2B2B;}
	.st26{fill:#EFA835;}
	.st27{fill:#43DD55;}
	.st28{fill-rule:evenodd;clip-rule:evenodd;fill:#EBEBEB;}
	.st29{fill-rule:evenodd;clip-rule:evenodd;fill:#BBBBBB;}
	.st30{fill:#FF9433;}
	.st31{fill:#FFD366;}
	.st32{fill:#CF0E51;}
	.st33{fill:#C92054;}
</style>
<g>
	<polygon class="st0" points="302,594.5 304.8,885.8 303.5,885.8 299.3,594.5 	"/>
	<polygon class="st1" points="300.3,594.5 303.6,821.4 303.1,821.4 299.9,594.5 	"/>
	<polygon class="st0" points="307.8,823.2 304.8,814.7 300.8,814.7 299.1,823.2 	"/>
	
		<linearGradient id="SVGID_1_" gradientUnits="userSpaceOnUse" x1="-730.2769" y1="-242.2327" x2="-566.4301" y2="-301.8681" gradientTransform="matrix(-1 0 0 -1 -358.27 602)">
		<stop  offset="0" style="stop-color:#DF6127"/>
		<stop  offset="1" style="stop-color:#8E202F"/>
	</linearGradient>
	<path class="st2" d="M230.1,825.3c0-2.1,30.2-3.9,67.5-3.9s67.5,1.7,67.5,3.9l29.2,81.7h-185L230.1,825.3z"/>
	
		<linearGradient id="SVGID_2_" gradientUnits="userSpaceOnUse" x1="209.3" y1="-304.9" x2="394.3" y2="-304.9" gradientTransform="matrix(1 0 0 -1 0 602)">
		<stop  offset="0" style="stop-color:#962A31"/>
		<stop  offset="1" style="stop-color:#602736"/>
	</linearGradient>
	<path class="st3" d="M209.3,906.9c0,2.1,41.4,3.9,92.5,3.9s92.5-1.7,92.5-3.9c0-2.1-41.4-3.9-92.5-3.9
		C250.8,903.1,209.3,904.8,209.3,906.9z"/>
	<path class="st4" d="M287.5,823.2c0,0-46.1,0.7-55.4,5.1l-18.8,74.8l52.6-4.2l-3.2-70.5C262.7,828.3,275.8,823.2,287.5,823.2z"/>
	<path class="st5" d="M362.8,828.3l26.6,74.8c0,0-45.5-3-81.6-3c0,0,55,0,74.8,0L362.8,828.3z"/>
</g>
<rect x="-25" y="-102.5" class="st6" width="558" height="750.8"/>
<rect x="-146.5" y="427" class="st7" width="885.7" height="325.7"/>
<rect x="-115.8" y="424.3" class="st7" width="620" height="167"/>
<g>
	<g id="table_3_">
		<rect x="396.4" y="388.9" class="st8" width="211.8" height="396.4"/>
		<rect x="-151.1" y="388.9" class="st9" width="229.4" height="396.4"/>
		<rect x="-151.1" y="387.5" class="st9" width="16.9" height="467.4"/>
		<rect x="58.4" y="387.5" class="st9" width="10.1" height="467.4"/>
		<rect x="68.5" y="387.5" class="st10" width="10.1" height="467.4"/>
		<rect x="387.9" y="387.5" class="st8" width="16.9" height="467.4"/>
		<rect x="591.2" y="387.5" class="st10" width="16.9" height="467.4"/>
		<rect x="68.5" y="388.9" class="st10" width="539.7" height="49.3"/>
		<rect x="68.5" y="387.6" class="st11" width="539.7" height="29.8"/>
		<rect x="-151.1" y="388.9" class="st12" width="219.6" height="28.5"/>
		<rect x="-181.3" y="371.9" class="st13" width="256.1" height="32.3"/>
		<rect x="68.2" y="371.9" class="st14" width="574" height="32.3"/>
		<rect x="-181.3" y="371.9" class="st15" width="823.5" height="6.7"/>
	</g>
</g>
<g>
	<g>
		<g>
			<polygon class="st16" points="79.4,298.9 32.4,47.5 470.2,50.2 421.1,294 			"/>
			<polygon class="st16" points="75.1,275.9 423.8,280.3 421.1,294 79.4,298.9 			"/>
			<polygon class="st17" points="79.4,298.9 64,298.9 13.1,55.1 32.4,47.5 			"/>
			<polygon class="st18" points="91.1,260.9 61.3,65.5 447.9,65.5 409,266.4 			"/>
			<polygon class="st19" points="84.7,280.1 417.3,284.1 422.4,287.5 87.7,292.7 			"/>
			<polygon class="st19" points="75.1,254.6 37.7,50.5 278.5,55.1 53.4,61.1 			"/>
			<polygon class="st20" points="79.4,65.5 438.7,71.3 402.3,266.3 409,266.4 447.9,65.5 			"/>
		</g>
		<polygon class="st21" points="205.5,292.7 169.4,374.9 263.6,374.9 251.3,292.7 		"/>
		<polygon class="st22" points="195.2,316.3 212.5,326 207.2,374.9 169.4,374.9 		"/>
		<polygon class="st16" points="171.1,374.9 166.4,354 283,354 280.4,374.9 		"/>
		<polygon class="st22" points="142.8,374.9 141,358.3 166.4,354 171.1,374.9 		"/>
	</g>
	<g>
		<polygon class="st18" points="382.1,288.8 381.6,284.1 402.5,284.1 401.5,288.8 		"/>
	</g>
</g>
<g>
	<path class="st23" d="M429.1,88.7v-9c0-4.6-3.8-8.4-8.4-8.4H104.2c-4.6,0-8.4,3.8-8.4,8.4v9H429.1z"/>
	<g transform="matrix(0.520313,0,0,0.520313,191.723,262.978)">
		<path class="st24" d="M26.3-334.8v324.3h-195.9c-8,0-14.6-6.6-14.6-14.6v-309.8H26.3V-334.8z"/>
	</g>
	<g transform="matrix(0,-0.520313,-0.520313,0,397.551,86.1132)">
		<path class="st25" d="M11.2-44.3c-4.4,0-7.9,3.5-7.9,7.9s3.5,7.9,7.9,7.9s7.9-3.5,7.9-7.9S15.6-44.3,11.2-44.3"/>
	</g>
	<g transform="matrix(0,-0.520313,-0.520313,0,385.241,86.1132)">
		<path class="st26" d="M11.2-43.7c-4.4,0-7.9,3.5-7.9,7.9s3.5,7.9,7.9,7.9s7.9-3.5,7.9-7.9S15.6-43.7,11.2-43.7"/>
	</g>
	<g transform="matrix(0,-0.520313,-0.520313,0,372.237,86.1132)">
		<path class="st27" d="M11.2-43c-4.4,0-7.9,3.5-7.9,7.9s3.5,7.9,7.9,7.9s7.9-3.5,7.9-7.9S15.6-43,11.2-43"/>
	</g>
	<g transform="matrix(0.520313,0,0,0.520313,-68.586,-102.537)">
		<rect x="533.6" y="484.1" class="st28" width="402.6" height="0.9"/>
	</g>
	<g transform="matrix(0.520313,0,0,0.520313,-68.586,-60.7297)">
		<rect x="545.2" y="437.5" class="st29" width="214.2" height="15.8"/>
	</g>
	<g transform="matrix(0.520313,0,0,0.520313,-68.586,3.53096)">
		<rect x="545.2" y="377.3" class="st29" width="243.7" height="15.8"/>
	</g>
	<g transform="matrix(0.520313,0,0,0.520313,-68.586,37.2254)">
		<rect x="545.2" y="345.8" class="st29" width="335.9" height="15.8"/>
	</g>
	<g transform="matrix(0.520313,0,0,0.520313,-68.586,-27.5036)">
		<rect x="545.2" y="406.4" class="st29" width="362.2" height="15.8"/>
	</g>
	<g>
		<g>
			<path class="st30" d="M192.5,180.3l-69.6,13.4c-2.9,0.6-5.8-1.4-6.4-4.3l-9-46.7c-0.6-2.9,1.4-5.8,4.3-6.4l69.6-13.4
				c2.9-0.6,5.8,1.4,6.4,4.3l9,46.7C197.3,176.9,195.4,179.7,192.5,180.3z"/>
			<g>
				<path class="st31" d="M154.4,169.8l-11.6-6.8l-23.7,29.8c1.2,0.8,2.7,1.1,4.3,0.8l68.7-13.2c1.5-0.3,2.8-1.2,3.6-2.3l-33.1-18.9
					L154.4,169.8z"/>
				<path class="st31" d="M185.2,123.9c-1.2-0.8-2.7-1.1-4.3-0.8l-68.7,13.2c-1.5,0.3-2.8,1.2-3.6,2.3l44.6,25.4L185.2,123.9z"/>
				<polygon class="st31" points="107.5,142.4 116.7,190.1 139.8,161.2 				"/>
				<polygon class="st31" points="164.7,156.4 196.9,174.6 187.7,127 				"/>
			</g>
		</g>
	</g>
</g>
<g>
	<path class="st32" d="M262.4,104.6h2.2c0.4,0,0.6,0.2,0.6,0.5v12c0,1.4-0.4,2.4-1.1,3.1c-0.8,0.7-1.8,1.1-3.2,1.1H258
		c-1.4,0-2.4-0.4-3.2-1.1c-0.7-0.7-1.1-1.8-1.1-3.1v-11.9c0-0.4,0.2-0.5,0.5-0.5h2.2c0.4,0,0.5,0.2,0.5,0.5V117
		c0,0.6,0.1,0.9,0.4,1.2c0.2,0.2,0.6,0.4,1.2,0.4h1.8c0.6,0,0.9-0.1,1.2-0.4c0.2-0.2,0.4-0.6,0.4-1.2v-11.8
		C261.8,104.8,262,104.6,262.4,104.6z"/>
	<path class="st32" d="M271.1,121.3h-2.2c-0.4,0-0.5-0.2-0.5-0.5v-15.6c0-0.4,0.2-0.5,0.5-0.5h6.2c1.4,0,2.4,0.4,3.2,1.1
		c0.8,0.7,1.1,1.8,1.1,3.1v2c0,2-0.8,3.3-2.3,3.9v0.1l2.8,5.8c0.2,0.4,0,0.6-0.4,0.6h-2.1c-0.3,0-0.5,0-0.7-0.1
		c-0.1-0.1-0.3-0.2-0.3-0.4l-2.6-5.6H272c-0.2,0-0.3,0.1-0.3,0.3v5.3C271.7,121.1,271.5,121.3,271.1,121.3z M272,112.5h2.5
		c0.6,0,1-0.1,1.2-0.4s0.4-0.6,0.4-1.1v-2c0-0.5-0.1-0.9-0.4-1.2c-0.3-0.2-0.7-0.4-1.2-0.4H272c-0.2,0-0.3,0.1-0.3,0.3v4.5
		C271.7,112.4,271.8,112.5,272,112.5z"/>
	<path class="st32" d="M289.4,121.3h-2.8c-1.4,0-2.4-0.4-3.2-1.1s-1.1-1.8-1.1-3.1v-8.2c0-1.4,0.4-2.4,1.1-3.1s1.8-1.1,3.2-1.1h2.8
		c1.4,0,2.4,0.4,3.1,1.1s1.1,1.8,1.1,3.1v0.8c0,0.4-0.2,0.6-0.5,0.6h-2.2c-0.4,0-0.5-0.2-0.5-0.6V109c0-0.6-0.1-0.9-0.3-1.2
		c-0.2-0.2-0.6-0.4-1.2-0.4h-1.7c-0.5,0-0.9,0.1-1.2,0.4c-0.2,0.2-0.4,0.6-0.4,1.2v7.9c0,0.6,0.1,0.9,0.4,1.2s0.6,0.4,1.2,0.4h1.7
		c0.6,0,0.9-0.1,1.2-0.4c0.2-0.2,0.3-0.6,0.3-1.2v-1.6c0-0.2-0.1-0.3-0.3-0.3h-1.6c-0.4,0-0.5-0.2-0.5-0.5v-1.8
		c0-0.4,0.2-0.5,0.5-0.5h4.6c0.4,0,0.6,0.2,0.6,0.6v4.3c0,1.4-0.4,2.4-1.1,3.1C291.8,121,290.7,121.3,289.4,121.3z"/>
	<path class="st32" d="M305.8,121.3h-8.5c-0.4,0-0.5-0.2-0.5-0.5v-15.6c0-0.4,0.2-0.5,0.5-0.5h8.5c0.3,0,0.5,0.2,0.5,0.5v1.8
		c0,0.4-0.2,0.5-0.5,0.5h-5.4c-0.2,0-0.3,0.1-0.3,0.3v3.4c0,0.2,0.1,0.3,0.3,0.3h4.4c0.4,0,0.5,0.2,0.5,0.5v1.8
		c0,0.4-0.2,0.5-0.5,0.5h-4.4c-0.2,0-0.3,0.1-0.3,0.3v3.6c0,0.2,0.1,0.3,0.3,0.3h5.4c0.3,0,0.5,0.2,0.5,0.5v1.8
		C306.3,121.1,306.1,121.3,305.8,121.3z"/>
	<path class="st32" d="M311.9,121.3h-2.2c-0.4,0-0.5-0.2-0.5-0.5v-15.6c0-0.4,0.2-0.5,0.5-0.5h2c0.4,0,0.6,0.1,0.7,0.4l5.3,9.9h0.1
		v-9.7c0-0.4,0.2-0.5,0.5-0.5h2.2c0.4,0,0.5,0.2,0.5,0.5v15.6c0,0.4-0.2,0.5-0.5,0.5h-1.9c-0.4,0-0.7-0.2-0.8-0.5l-5.2-9.7h-0.1v9.6
		C312.5,121.1,312.3,121.3,311.9,121.3z"/>
	<path class="st32" d="M329.6,121.3h-2.2c-0.4,0-0.6-0.2-0.6-0.5v-13c0-0.2-0.1-0.3-0.3-0.3h-3c-0.4,0-0.5-0.2-0.5-0.5v-1.8
		c0-0.4,0.2-0.5,0.5-0.5h9.8c0.4,0,0.5,0.2,0.5,0.5v1.8c0,0.4-0.2,0.5-0.5,0.5h-3c-0.2,0-0.3,0.1-0.3,0.3v13
		C330.1,121.1,330,121.3,329.6,121.3z"/>
	<path class="st32" d="M345,121.3h-8.5c-0.4,0-0.5-0.2-0.5-0.5v-15.6c0-0.4,0.2-0.5,0.5-0.5h8.5c0.3,0,0.5,0.2,0.5,0.5v1.8
		c0,0.4-0.2,0.5-0.5,0.5h-5.4c-0.2,0-0.3,0.1-0.3,0.3v3.4c0,0.2,0.1,0.3,0.3,0.3h4.4c0.4,0,0.5,0.2,0.5,0.5v1.8
		c0,0.4-0.2,0.5-0.5,0.5h-4.4c-0.2,0-0.3,0.1-0.3,0.3v3.6c0,0.2,0.1,0.3,0.3,0.3h5.4c0.3,0,0.5,0.2,0.5,0.5v1.8
		C345.5,121.1,345.3,121.3,345,121.3z"/>
	<path class="st32" d="M254.7,143.3h-2.2c-0.4,0-0.5-0.2-0.5-0.5v-15.6c0-0.4,0.2-0.5,0.5-0.5h6.3c1.4,0,2.4,0.4,3.1,1.1
		s1.1,1.8,1.1,3.1v2.5c0,1.4-0.4,2.4-1.1,3.1c-0.7,0.7-1.8,1.1-3.1,1.1h-3.3c-0.2,0-0.3,0.1-0.3,0.3v4.9
		C255.2,143.1,255,143.3,254.7,143.3z M255.5,134.7h2.8c0.6,0,0.9-0.1,1.2-0.4c0.2-0.2,0.3-0.6,0.3-1.2V131c0-0.6-0.1-0.9-0.3-1.2
		c-0.2-0.2-0.6-0.4-1.2-0.4h-2.8c-0.2,0-0.3,0.1-0.3,0.3v4.7C255.2,134.6,255.3,134.7,255.5,134.7z"/>
	<path class="st32" d="M274.3,126.6h2.2c0.4,0,0.6,0.2,0.6,0.5v12c0,1.4-0.4,2.4-1.1,3.1c-0.8,0.7-1.8,1.1-3.2,1.1h-2.9
		c-1.4,0-2.4-0.4-3.2-1.1c-0.7-0.7-1.1-1.8-1.1-3.1v-11.9c0-0.4,0.2-0.5,0.5-0.5h2.2c0.4,0,0.5,0.2,0.5,0.5V139
		c0,0.6,0.1,0.9,0.4,1.2c0.2,0.2,0.6,0.4,1.2,0.4h1.8c0.6,0,0.9-0.1,1.2-0.4c0.2-0.2,0.4-0.6,0.4-1.2v-11.8
		C273.7,126.8,273.9,126.6,274.3,126.6z"/>
	<path class="st32" d="M280.3,142.8v-15.6c0-0.4,0.2-0.5,0.5-0.5h6.2c1.4,0,2.4,0.4,3.2,1.1c0.7,0.7,1.1,1.8,1.1,3.1v1.1
		c0,1.5-0.7,2.4-2.1,2.9c0.7,0.1,1.2,0.4,1.7,0.8c0.4,0.5,0.6,1.1,0.6,2v1.6c0,1.4-0.4,2.4-1.1,3.1s-1.8,1.1-3.1,1.1h-6.5
		C280.4,143.3,280.3,143.1,280.3,142.8z M283.8,133.4h2.7c0.6,0,1-0.1,1.2-0.4c0.3-0.2,0.4-0.6,0.4-1.2v-1c0-0.5-0.1-0.9-0.4-1.2
		c-0.3-0.2-0.7-0.4-1.2-0.4h-2.7c-0.2,0-0.3,0.1-0.3,0.3v3.5C283.6,133.3,283.7,133.4,283.8,133.4z M283.8,140.6h2.9
		c0.6,0,1-0.1,1.2-0.4s0.4-0.6,0.4-1.2v-1.5c0-0.5-0.1-0.9-0.4-1.1c-0.3-0.2-0.7-0.3-1.3-0.3h-2.9c-0.2,0-0.3,0.1-0.3,0.3v3.9
		C283.6,140.5,283.7,140.6,283.8,140.6z"/>
	<path class="st32" d="M303.8,143.3h-8.6c-0.4,0-0.5-0.2-0.5-0.5v-15.6c0-0.4,0.2-0.5,0.5-0.5h2.2c0.4,0,0.5,0.2,0.5,0.5v13
		c0,0.2,0.1,0.3,0.3,0.3h5.5c0.3,0,0.5,0.2,0.5,0.6v1.8C304.3,143.1,304.1,143.3,303.8,143.3z"/>
	<path class="st32" d="M309.8,127.2v15.6c0,0.4-0.2,0.5-0.5,0.5H307c-0.4,0-0.5-0.2-0.5-0.5v-15.6c0-0.4,0.2-0.5,0.5-0.5h2.2
		C309.6,126.6,309.8,126.8,309.8,127.2z"/>
	<path class="st32" d="M320.2,143.3h-2.8c-1.4,0-2.4-0.4-3.2-1.1c-0.7-0.7-1.1-1.8-1.1-3.1v-8.2c0-1.4,0.4-2.4,1.1-3.1
		c0.7-0.7,1.8-1.1,3.2-1.1h2.8c1.4,0,2.4,0.4,3.2,1.1c0.8,0.7,1.1,1.8,1.1,3.1v1.2c0,0.4-0.2,0.6-0.6,0.6h-2.2
		c-0.4,0-0.5-0.2-0.5-0.6V131c0-0.6-0.1-0.9-0.4-1.2c-0.2-0.2-0.6-0.4-1.2-0.4h-1.8c-0.5,0-0.9,0.1-1.2,0.4
		c-0.2,0.2-0.4,0.6-0.4,1.2v7.9c0,0.6,0.1,0.9,0.4,1.2c0.2,0.2,0.6,0.4,1.2,0.4h1.8c0.6,0,0.9-0.1,1.2-0.4s0.4-0.6,0.4-1.2v-1.1
		c0-0.4,0.2-0.6,0.5-0.6h2.2c0.4,0,0.6,0.2,0.6,0.6v1.2c0,1.4-0.4,2.4-1.1,3.1C322.6,143,321.5,143.3,320.2,143.3z"/>
	<path class="st32" d="M329,143.3h-2.5c-0.3,0-0.4-0.2-0.3-0.5l4.1-15.6c0.1-0.4,0.4-0.5,0.8-0.5h3.5c0.4,0,0.7,0.2,0.8,0.5
		l4.1,15.6c0.1,0.4,0,0.5-0.3,0.5h-2.5c-0.2,0-0.3,0-0.4-0.1s-0.1-0.2-0.2-0.4l-0.7-2.9h-5.1l-0.7,2.9c0,0.2-0.1,0.4-0.2,0.4
		C329.3,143.3,329.2,143.3,329,143.3z M332.8,129.8l-1.9,7.5h3.8L332.8,129.8L332.8,129.8z"/>
	<path class="st32" d="M344.5,143.3h-2.2c-0.4,0-0.5-0.2-0.5-0.5v-15.6c0-0.4,0.2-0.5,0.5-0.5h6.2c1.4,0,2.4,0.4,3.2,1.1
		c0.8,0.7,1.1,1.8,1.1,3.1v2c0,2-0.8,3.3-2.3,3.9v0.1l2.8,5.8c0.2,0.4,0,0.6-0.4,0.6h-2.1c-0.3,0-0.5,0-0.7-0.1
		c-0.1-0.1-0.3-0.2-0.3-0.4l-2.6-5.6h-1.7c-0.2,0-0.3,0.1-0.3,0.3v5.3C345.1,143.1,344.9,143.3,344.5,143.3z M345.4,134.5h2.5
		c0.6,0,1-0.1,1.2-0.4s0.4-0.6,0.4-1.1v-2c0-0.5-0.1-0.9-0.4-1.2c-0.3-0.2-0.7-0.4-1.2-0.4h-2.5c-0.2,0-0.3,0.1-0.3,0.3v4.5
		C345.1,134.4,345.2,134.5,345.4,134.5z"/>
</g>
<g>
	<path class="st33" d="M383.2,101.8c2.3-3.3,5.1-4.2,8.6-2.6l18.8,8.3c3.7,1.6,4.4,4.1,2.2,7.4L401,132.6c-2.3,3.3-5.1,4.2-8.4,2.7
		l-18.8-8.3c-3.8-1.7-4.6-4.2-2.3-7.5L383.2,101.8z M400.2,92.5c-3.6-1.6-4.3-4-2.2-7.4l39-66c1.9-3.4,4.6-4.4,7.9-2.9l22.5,10
		c3.5,1.5,4.1,3.9,1.8,7.2l-47.1,62.4c-2.5,3.2-5.3,4.1-8.6,2.6L400.2,92.5z"/>
</g>
</svg>
