<?xml version="1.0" encoding="utf-8"?>
<!-- Generator: Adobe Illustrator 24.3.0, SVG Export Plug-In . SVG Version: 6.00 Build 0)  -->
<svg version="1.1" id="Layer_1" xmlns="http://www.w3.org/2000/svg" xmlns:xlink="http://www.w3.org/1999/xlink" x="0px" y="0px"
	 viewBox="0 0 480 600" style="enable-background:new 0 0 480 600;" xml:space="preserve">
<style type="text/css">
	.st0{fill:#E1CCBE;}
	.st1{fill:#A85425;}
	.st2{fill:#99451F;}
	.st3{fill:#B76334;}
	.st4{fill:#F49F44;}
	.st5{fill:#91B4BF;}
	.st6{fill:#FFFFFF;}
	.st7{fill:#A6C1CA;}
	.st8{fill:#B6B8BA;}
	.st9{fill:#85A5AF;}
	.st10{fill:#6F8A93;}
	.st11{fill:#434345;}
	.st12{fill:#A8DEEF;}
	.st13{fill:#AF2B2B;}
	.st14{fill:#EFA835;}
	.st15{fill:#43DD55;}
	.st16{fill-rule:evenodd;clip-rule:evenodd;fill:#BBBBBB;}
	.st17{fill-rule:evenodd;clip-rule:evenodd;fill:#CF0E51;}
</style>
<rect x="-22.8" y="-20.6" class="st0" width="515.1" height="625.1"/>
<g>
	<g id="table_10_">
		<rect x="-90.3" y="577.6" class="st1" width="601" height="70.5"/>
		<rect x="-90.3" y="575.7" class="st2" width="601" height="42.6"/>
		<rect x="-90.7" y="553.3" class="st3" width="650" height="46.2"/>
		<rect x="-90.7" y="553.3" class="st4" width="650" height="14"/>
	</g>
</g>
<g>
	<g>
		<g>
			<polygon class="st5" points="-119,450.4 -186.1,91.3 439.3,95.1 369.1,443.5 			"/>
			<polygon class="st5" points="-125.1,417.6 373.1,423.8 369.1,443.5 -119,450.4 			"/>
			<polygon class="st6" points="-102.3,396.2 -144.8,116.9 407.4,116.9 351.9,404 			"/>
			<polygon class="st7" points="-111.3,423.6 363.8,429.3 371,434.2 -107.1,441.6 			"/>
			<polygon class="st7" points="-125.1,387.2 -178.6,95.6 165.4,102.2 -156.2,110.7 			"/>
			<polygon class="st8" points="-119,116.9 394.3,125.3 342.3,403.8 351.9,404 407.4,116.9 			"/>
		</g>
		<polygon class="st9" points="61.2,441.6 9.6,559 144.2,559 126.6,441.6 		"/>
		<polygon class="st10" points="46.4,475.3 71.2,489.1 63.7,559 9.6,559 		"/>
		<polygon class="st5" points="-58.2,559 -78.1,529.2 208.5,529.2 197.4,559 		"/>
	</g>
	<g>
		<polygon class="st6" points="313.4,436 312.8,429.2 342.6,429.2 341.1,436 		"/>
	</g>
</g>
<g>
	<path class="st11" d="M374.9,151.9v-12.8c0-6.6-5.4-12.1-12.1-12.1H-89.3c-6.6,0-12.1,5.4-12.1,12.1v12.8H374.9z"/>
	<g transform="matrix(0.520313,0,0,0.520313,191.723,262.978)">
		<path class="st12" d="M-262.1-213.3v469.1l-279.8-5.8c-11.4,0-20.8-9.4-20.8-20.8v-442.6H-262.1z"/>
	</g>
	<g transform="matrix(0,-0.520313,-0.520313,0,397.551,86.1132)">
		<path class="st13" d="M-103.2,66.8c-6.2,0-11.3,5-11.3,11.3c0,6.2,5,11.3,11.3,11.3c6.2,0,11.3-5,11.3-11.3
			C-91.9,71.9-97,66.8-103.2,66.8"/>
	</g>
	<g transform="matrix(0,-0.520313,-0.520313,0,385.241,86.1132)">
		<path class="st14" d="M-103.2,77.8c-6.2,0-11.3,5-11.3,11.3c0,6.2,5,11.3,11.3,11.3c6.2,0,11.3-5,11.3-11.3
			C-91.9,82.9-97,77.8-103.2,77.8"/>
	</g>
	<g transform="matrix(0,-0.520313,-0.520313,0,372.237,86.1132)">
		<path class="st15" d="M-103.2,89.5c-6.2,0-11.3,5-11.3,11.3c0,6.2,5,11.3,11.3,11.3c6.2,0,11.3-5,11.3-11.3
			C-91.9,94.5-97,89.5-103.2,89.5"/>
	</g>
	<g transform="matrix(0.520313,0,0,0.520313,-68.586,-60.7297)">
		<rect x="264.8" y="488.8" class="st16" width="306" height="22.6"/>
	</g>
	<g transform="matrix(0.520313,0,0,0.520313,-68.586,3.53096)">
		<rect x="264.8" y="455.7" class="st16" width="348.1" height="22.6"/>
	</g>
	<g transform="matrix(0.520313,0,0,0.520313,-68.586,37.2254)">
		<rect x="264.8" y="438.4" class="st16" width="479.8" height="22.6"/>
	</g>
	<g transform="matrix(0.520313,0,0,0.520313,-68.586,-27.5036)">
		<rect x="264.8" y="471.7" class="st16" width="517.5" height="22.6"/>
	</g>
	<g>
		<rect x="144" y="308" class="st17" width="180.2" height="64"/>
		<g>
			<path class="st6" d="M172,349.4h-2.9c-0.5,0-0.7-0.2-0.7-0.7v-20.4c0-0.5,0.2-0.7,0.7-0.7h8.3c1.8,0,3.1,0.5,4.1,1.4
				c1,1,1.5,2.3,1.5,4.1v3.3c0,1.8-0.5,3.1-1.5,4.1c-1,1-2.3,1.4-4.1,1.4h-4.3c-0.3,0-0.4,0.1-0.4,0.4v6.4
				C172.7,349.2,172.5,349.4,172,349.4z M173.1,338.2h3.6c0.7,0,1.2-0.2,1.5-0.5c0.3-0.3,0.4-0.8,0.4-1.5v-2.9
				c0-0.7-0.1-1.2-0.4-1.5c-0.3-0.3-0.8-0.5-1.5-0.5h-3.6c-0.2,0-0.4,0.1-0.4,0.4v6.1C172.7,338,172.8,338.2,173.1,338.2z"/>
			<path class="st6" d="M197.5,327.6h2.9c0.5,0,0.7,0.2,0.7,0.7v15.6c0,1.8-0.5,3.1-1.5,4.1s-2.4,1.4-4.1,1.4h-3.7
				c-1.8,0-3.2-0.5-4.1-1.4c-1-1-1.5-2.3-1.5-4.1v-15.6c0-0.5,0.2-0.7,0.7-0.7h2.9c0.5,0,0.7,0.2,0.7,0.7v15.4
				c0,0.7,0.2,1.2,0.5,1.5c0.3,0.3,0.8,0.5,1.5,0.5h2.3c0.7,0,1.2-0.2,1.5-0.5s0.5-0.8,0.5-1.5v-15.4
				C196.8,327.8,197.1,327.6,197.5,327.6z"/>
			<path class="st6" d="M205.4,348.7v-20.4c0-0.5,0.2-0.7,0.7-0.7h8.2c1.8,0,3.2,0.5,4.1,1.4c1,1,1.5,2.3,1.5,4.1v1.4
				c0,1.9-0.9,3.2-2.7,3.7c0.9,0.1,1.6,0.5,2.2,1.1c0.5,0.6,0.8,1.5,0.8,2.6v2c0,1.8-0.5,3.1-1.5,4.1c-1,1-2.3,1.4-4.1,1.4h-8.5
				C205.6,349.4,205.4,349.2,205.4,348.7z M210.1,336.5h3.5c0.7,0,1.3-0.2,1.6-0.5c0.3-0.3,0.5-0.8,0.5-1.5v-1.3
				c0-0.7-0.2-1.2-0.5-1.5c-0.3-0.3-0.9-0.5-1.6-0.5h-3.5c-0.2,0-0.4,0.1-0.4,0.4v4.5C209.7,336.4,209.8,336.5,210.1,336.5z
				 M210.1,345.8h3.8c0.7,0,1.3-0.2,1.6-0.5s0.5-0.8,0.5-1.5v-2c0-0.7-0.2-1.2-0.5-1.5c-0.3-0.3-0.9-0.4-1.7-0.4h-3.7
				c-0.2,0-0.4,0.1-0.4,0.4v5.1C209.7,345.7,209.8,345.8,210.1,345.8z"/>
			<path class="st6" d="M236.1,349.4H225c-0.5,0-0.7-0.2-0.7-0.7v-20.4c0-0.5,0.2-0.7,0.7-0.7h2.9c0.5,0,0.7,0.2,0.7,0.7v17
				c0,0.2,0.1,0.4,0.4,0.4h7.2c0.5,0,0.7,0.2,0.7,0.7v2.3C236.8,349.2,236.6,349.4,236.1,349.4z"/>
			<path class="st6" d="M244,328.3v20.4c0,0.5-0.2,0.7-0.7,0.7h-2.9c-0.5,0-0.7-0.2-0.7-0.7v-20.4c0-0.5,0.2-0.7,0.7-0.7h2.9
				C243.7,327.6,244,327.8,244,328.3z"/>
			<path class="st6" d="M257.5,349.4h-3.7c-1.8,0-3.2-0.5-4.1-1.4c-1-1-1.5-2.3-1.5-4.1v-10.8c0-1.8,0.5-3.2,1.5-4.1
				c1-1,2.4-1.4,4.1-1.4h3.7c1.8,0,3.1,0.5,4.1,1.4s1.5,2.3,1.5,4.1v1.6c0,0.5-0.2,0.7-0.7,0.7h-2.9c-0.5,0-0.7-0.2-0.7-0.7v-1.4
				c0-0.7-0.2-1.2-0.5-1.5s-0.8-0.5-1.5-0.5h-2.3c-0.7,0-1.2,0.2-1.5,0.5s-0.5,0.8-0.5,1.5v10.4c0,0.7,0.2,1.2,0.5,1.5
				s0.8,0.5,1.5,0.5h2.3c0.7,0,1.2-0.2,1.5-0.5s0.5-0.8,0.5-1.5v-1.4c0-0.5,0.2-0.7,0.7-0.7h2.9c0.5,0,0.7,0.2,0.7,0.7v1.6
				c0,1.8-0.5,3.1-1.5,4.1S259.3,349.4,257.5,349.4z"/>
			<path class="st6" d="M269.1,349.4h-3.3c-0.4,0-0.5-0.2-0.4-0.7l5.4-20.4c0.2-0.5,0.5-0.7,1-0.7h4.5c0.6,0,0.9,0.2,1,0.7l5.4,20.4
				c0.1,0.5,0,0.7-0.4,0.7H279c-0.2,0-0.4-0.1-0.5-0.2c-0.1-0.1-0.2-0.3-0.2-0.6l-1-3.7h-6.6l-1,3.7c0,0.3-0.1,0.5-0.2,0.6
				C269.5,349.4,269.3,349.4,269.1,349.4z M274,331.7l-2.4,9.8h5l-2.4-9.8H274z"/>
			<path class="st6" d="M289.3,349.4h-2.9c-0.5,0-0.7-0.2-0.7-0.7v-20.4c0-0.5,0.2-0.7,0.7-0.7h8.1c1.8,0,3.1,0.5,4.1,1.5
				c1,1,1.5,2.3,1.5,4.1v2.6c0,2.6-1,4.3-3,5.1v0.1l3.6,7.6c0.2,0.5,0,0.8-0.6,0.8h-2.8c-0.4,0-0.7,0-0.9-0.1
				c-0.2-0.1-0.3-0.3-0.4-0.6l-3.4-7.3h-2.3c-0.3,0-0.4,0.1-0.4,0.4v7C290.1,349.2,289.8,349.4,289.3,349.4z M290.4,337.9h3.3
				c0.7,0,1.3-0.2,1.6-0.5c0.3-0.3,0.5-0.8,0.5-1.5v-2.6c0-0.7-0.2-1.2-0.5-1.5c-0.3-0.3-0.9-0.5-1.6-0.5h-3.3
				c-0.2,0-0.4,0.1-0.4,0.4v5.8C290.1,337.8,290.2,337.9,290.4,337.9z"/>
		</g>
	</g>
</g>
<g>
	<path class="st6" d="M307.5,351.2c7.4,1.9,32.9,21.4,32.9,21.4l-2.9,5.7l-10,1.4l5.7,12.9l-5.7,4.3l-9.5-12.8l-4.8,7h-5.7V351.2z"
		/>
	<path d="M328,398.3c-2.7,0-5.3-1.5-6.5-4l-3.6-6.8l-2.1,3.9c-0.1,0.1-0.1,0.2-0.2,0.3c-1.3,1.9-3.6,2.5-5.2,2.5c0,0,0,0,0,0
		c-1.8,0-3.7-0.8-5-2.2c-1.4-1.4-2.2-3.3-2.2-5.3v-31c0-2.8,1.6-5.3,4.2-6.5c2.6-1.2,5.5-0.8,7.6,1l19.7,14.6
		c1.1,0.8,1.3,2.3,0.5,3.4c-0.8,1.1-2.3,1.3-3.4,0.5L312,354.1c0,0-0.1-0.1-0.1-0.1c-1.1-0.9-2.2-0.5-2.6-0.3
		c-0.3,0.2-1.4,0.8-1.4,2.2v31c0,1.5,1.3,2.6,2.4,2.6c0,0,0,0,0,0c0.5,0,1-0.2,1.2-0.5l4.1-7.7c0.4-0.8,1.2-1.3,2.1-1.3c0,0,0,0,0,0
		c0.9,0,1.7,0.5,2.1,1.3l5.8,10.8c0,0,0,0.1,0,0.1c0.6,1.2,2,1.7,3.2,1.2c0.6-0.3,1.1-0.8,1.3-1.4c0.2-0.6,0.2-1.3-0.1-1.8
		l-5.8-10.4c-0.4-0.7-0.4-1.6,0-2.4c0.4-0.7,1.2-1.2,2.1-1.2h8.2c1.4-0.1,2-1.2,2.1-1.5c0.1-0.3,0.5-1.6-0.5-2.6
		c-0.9-1-0.9-2.5,0.1-3.4c1-0.9,2.5-0.9,3.4,0.1c2,2.1,2.5,5,1.4,7.7c-1.1,2.7-3.5,4.4-6.4,4.5c0,0-0.1,0-0.1,0h-4.2l3.9,6.9
		c0,0,0,0.1,0.1,0.1c0.9,1.8,1,3.7,0.3,5.6c-0.7,1.8-2,3.3-3.8,4.1C330.1,398.1,329,398.3,328,398.3z"/>
	<path d="M145.1,300.7c1.2-0.6,1.6-2.1,0.9-3.3l-2-3.7c-0.6-1.2-2.1-1.6-3.3-0.9c-1.2,0.6-1.6,2.1-0.9,3.3l2,3.7
		c0.4,0.8,1.3,1.2,2.1,1.2C144.4,301,144.8,300.9,145.1,300.7z"/>
	<path d="M136.1,318.6c0.5-1.2,0-2.6-1.2-3.2l-3.8-1.7c-1.2-0.5-2.6,0-3.2,1.2c-0.5,1.2,0,2.6,1.2,3.2l3.8,1.7
		c0.3,0.1,0.6,0.2,1,0.2C134.8,320,135.7,319.5,136.1,318.6z"/>
	<path d="M174.2,297l1.3-4c0.4-1.3-0.3-2.6-1.5-3c-1.3-0.4-2.6,0.3-3,1.5l-1.3,4c-0.4,1.3,0.3,2.6,1.5,3c0.3,0.1,0.5,0.1,0.8,0.1
		C172.9,298.6,173.8,298,174.2,297z"/>
	<path d="M130.2,343.7l3.6-1.4c1.2-0.5,1.8-1.9,1.3-3.1c-0.5-1.2-1.9-1.8-3.1-1.3l-3.6,1.4c-1.2,0.5-1.8,1.9-1.3,3.1
		c0.4,0.9,1.3,1.5,2.2,1.5C129.6,343.9,129.9,343.8,130.2,343.7z"/>
</g>
</svg>
