<?xml version="1.0" encoding="UTF-8" standalone="no"?>
<!DOCTYPE svg PUBLIC "-//W3C//DTD SVG 1.1//EN" "http://www.w3.org/Graphics/SVG/1.1/DTD/svg11.dtd">
<svg width="100%" height="100%" viewBox="0 0 485 599" version="1.1" xmlns="http://www.w3.org/2000/svg" xmlns:xlink="http://www.w3.org/1999/xlink" xml:space="preserve" xmlns:serif="http://www.serif.com/" style="fill-rule:evenodd;clip-rule:evenodd;stroke-linejoin:round;stroke-miterlimit:2;">
    <g transform="matrix(-1,0,0,1,476.4,0)">
        <path d="M366.5,539.6C372.9,541.8 394.6,567.7 394.6,567.7L329,629.6L343.5,579L366.5,539.6Z" style="fill:rgb(164,101,70);fill-rule:nonzero;"/>
        <path d="M250.9,300.4C257.1,314.6 288.3,306.8 295.7,301.2L295.7,295.9C300.1,287.8 302.5,281.1 309.7,274.8C313,271.9 316.5,269.4 320.1,267.1C322.6,266 324.9,265 326.6,264.3C335.8,260.1 347.5,255.2 351.9,244.6C356.6,240.3 359.9,235.8 359.1,231.9C357.4,232.8 355.4,234.1 353.6,235.5C353.5,234.5 353.4,233.6 353.2,232.7C360.7,211.8 341.1,168.9 350.9,144.5C353.5,138 336.8,149.9 336.4,142.6C335.9,133 328.2,123.3 320.7,120.2C320.9,122.3 320.3,124.5 321.2,126.1C326.9,135.9 248.8,232.1 233.9,239.6C214.4,249.2 249.4,296.9 250.9,300.4ZM183,315.6C208.7,304.1 199.6,256.8 197.6,223.6C187.5,210.8 180.9,221.7 179,216.2C176.4,220.6 173.1,222.7 168.7,222.7L168.6,222.7C161.8,234.3 156.1,247.8 150.5,258.9C148.1,263.7 145,268.8 143.2,274.3L134.1,261.2C111.2,291.2 155.9,319 183,315.6Z" style="fill:rgb(57,11,29);fill-rule:nonzero;"/>
        <path d="M325,292.4C368.5,333.5 467.9,483 467.9,483L394.5,567.8L366.4,539.7L407.1,481.2L304.4,343.2L325,292.4Z" style="fill:rgb(26,26,26);fill-rule:nonzero;"/>
        <path d="M121.8,541.9L76.5,482.1L151.1,377.6C168.2,400.3 235.7,491.5 240.5,525.6C245.4,560.8 229.6,573.1 206.5,597.1L333.4,620.6C357.7,548.6 348.3,437.7 348.3,437.7C348.3,437.7 381.8,432.3 390.9,381.5C373.7,376.1 327.5,326.2 327.5,326.2C327.5,326.2 336.6,305.4 323,290C309.4,274.6 169.2,279.1 129.3,296C89.4,312.9 8.5,492 8.5,492L97.3,571.7L121.8,541.9Z" style="fill:rgb(26,26,26);fill-rule:nonzero;"/>
        <path d="M242.3,242.8C242.3,242.8 231.7,269 253.4,290.7C262.2,310.3 192.4,293.1 192.4,293.1C192.4,293.1 203.3,276.3 197,213.8C199.7,221.9 242.3,242.8 242.3,242.8Z" style="fill:rgb(57,11,29);fill-rule:nonzero;"/>
        <path d="M239.5,552.5C268.7,573.7 317.1,578.2 343.5,579C340.7,595.5 336.9,611.5 331.6,625.7C284.3,624.6 242.3,610.5 214.4,588.9C226.5,576.5 235.7,566.5 239.5,552.5Z" style="fill:rgb(77,77,79);fill-rule:nonzero;"/>
        <path d="M316.6,163.3C316.6,163.3 329.9,172 324.5,201.4C318.5,234 266.5,258.2 266.5,258.2C266.5,258.2 197.6,240.7 173.5,175.4C149.3,110.2 207,51.3 268,68.8C329,68.8 332.3,134.3 316.6,163.3Z" style="fill:rgb(57,11,29);fill-rule:nonzero;"/>
        <path d="M120.9,540.1L190,598L210.7,597.8L204.6,602.9C204.6,602.9 197.3,615.1 190,615.1C172.7,615.1 97.3,571 97.3,571C97.3,571 109.1,548.2 120.9,540.1Z" style="fill:rgb(164,101,70);fill-rule:nonzero;"/>
        <path d="M197.3,256.5C197.3,256.5 199.7,261.4 216.8,261.4C233.9,261.4 241.2,256.5 241.2,256.5L265.6,298C265.6,298 253.4,307.8 229,307.8C204.6,307.8 187.5,293.2 187.5,293.2L197.3,256.5Z" style="fill:rgb(57,11,29);fill-rule:nonzero;"/>
        <g>
            <g>
                <path d="M118.5,265C118.6,266.8 116.5,269.3 113,273.5C110,277 103.4,286 106,293.2C107.7,297.9 113,300.6 121.6,301.3C122.7,302.5 126.1,306.3 132,309.5C135.2,311.2 137.5,314 137.1,315.6C136.9,316.3 135.7,318.7 126.3,318.7C125.1,318.7 123.8,318.7 122.5,318.6C119.9,316.7 117.3,314.5 115.1,312.6L114.9,312.4C114.6,312.2 114.3,312 114,312C113.4,312 112.9,312.4 112.6,313C112.4,313.6 112.5,314.3 112.9,314.7C118.2,320.5 124.8,327.7 133.2,327.7C135.1,327.7 136.9,327.3 138.8,326.6C143.1,325 146.7,321.6 148.6,317.2C150.5,313 150.7,308.2 149.3,303.8C148.9,302.4 148.2,301.1 147.6,299.9C146.9,298.4 146.2,297 145.8,295.6C145.1,292.6 145.6,290 147.2,287.4C148.8,284.8 150.6,282.3 152.3,279.9C154.3,277 156.4,274.1 158.3,271C159.1,269.8 159.9,268.5 160.6,267.2C165.2,261.8 169.7,255.8 174.3,248.8C176,246.6 177.5,244.4 178.8,242.3C178.6,243.5 178.3,244.7 177.8,245.8C176.7,248.2 175.3,250.3 173.8,252.4C172.9,253.8 171.9,255.2 171,256.7C167.6,262.5 164.6,269.7 168.7,278.7C170.8,283.3 176.9,287 183.4,290.9C192.8,296.6 202.6,302.5 201.1,311.1C198.8,324.5 185.8,325.2 183.3,325.2L183,325.2C182.4,325.2 181.9,325.7 181.8,326.3C181.7,326.9 182.1,327.6 182.6,327.7C182.7,327.7 185.1,328.5 188.5,328.5C194.4,328.5 204.6,326.1 207.6,310.1C208.2,306.6 208.5,303.5 208.4,300.8C209.1,293.4 207.9,286.9 204.9,281.3C202.9,277.5 199.8,274.9 196.9,272.3C196.3,271.7 195.6,271.2 195,270.6C191.8,267.7 188.6,264.4 188.8,260.3C189,255.4 191.5,250.8 194,246.4C194.7,245.1 195.4,243.8 196.1,242.6C199,237 200.6,231.4 201.1,225.5C201.3,222.8 201.3,220.1 201,217.4C201.2,212.6 200.4,207.2 198.6,200.8C197.4,196.5 196.1,192.4 194.9,188.4C189.9,172.4 185.6,158.6 190.6,143.6C196.2,140.3 203.9,134.2 210.2,124.1C213.6,118.7 215.8,113.1 218,107.7C222.5,96.7 226.4,87.1 238.1,82.1C243.6,87.7 257.9,100.6 282,110.3C313.6,123.1 331,139.3 333.7,158.4C334.7,165.2 334.5,171.2 334.4,177C334.1,187.6 333.9,197.7 340.8,210.2C347.3,222 348.9,234.9 345.2,244.8C342,253.3 335.2,259 324.9,261.9C297.6,269.6 284.6,281.1 285.4,297.2C286,310.4 303.5,316.3 315.7,316.3C317.9,316.3 319.8,316.1 321.3,315.7C330.6,313.3 338.3,300.6 338.6,300C338.9,299.5 338.8,298.7 338.4,298.3C338.2,298.1 337.9,298 337.6,298C337.3,298 337,298.1 336.8,298.3C336.7,298.4 330,305.3 322.5,308.1C320.3,307.7 314.4,306.2 313,301.7C311.7,297.5 313.4,292.8 314.5,290.4C318.6,281.5 325.7,276.9 333.2,271.9C333.9,271.4 334.6,271 335.3,270.5C344.2,264.6 353.4,258.1 359.4,248.8C362.7,243.7 364.6,238.1 365,232.1C366.9,219.9 365.6,208.2 361.4,198.4C359.8,194.7 357.8,191.4 355.8,188.2C355,186.9 354.2,185.6 353.4,184.2C350.6,179.4 348.4,175 350.2,170C351.2,167.1 352.7,164.3 354.2,161.6C355.3,159.5 356.5,157.2 357.5,154.9C359.5,150.1 361.7,144.3 362.2,138.1C362.6,133.8 362.3,129.4 361.3,125.1C360.4,112.9 354.2,96.7 344.8,81.6C336.2,67.8 320.4,47.9 294.1,31.6C276.4,20.5 259.9,14.9 245.1,14.9C227.1,14.9 217.4,23.2 215.2,25.3C213.9,25.1 210.5,24.6 205.8,24.6C194.9,24.6 179,27.3 165.1,40.1C144.1,59.5 131.7,97.4 130.2,146.7C130.1,149.6 130,152.4 130,155C128.9,193.4 128.7,200.3 116,216.9C106.8,228.9 102,236.8 102.7,244.1C103.1,248.3 105.4,252 109.9,255.8C115.3,260.4 118.3,263 118.5,265ZM342.3,172.9C342.2,174.8 342.5,176.6 342.9,178.3C340.6,173.7 339.8,169.8 342,166.4C344,163.1 345.9,160.4 347.7,158C347.5,158.3 347.4,158.6 347.2,158.9L347.1,159.1C344.9,163.2 342.5,167.9 342.3,172.9Z" style="fill:rgb(57,11,29);fill-rule:nonzero;"/>
            </g>
        </g>
    </g>
</svg>
