<?xml version="1.0" encoding="UTF-8" standalone="no"?>
<!DOCTYPE svg PUBLIC "-//W3C//DTD SVG 1.1//EN" "http://www.w3.org/Graphics/SVG/1.1/DTD/svg11.dtd">
<svg width="100%" height="100%" viewBox="0 0 319 559" version="1.1" xmlns="http://www.w3.org/2000/svg" xmlns:xlink="http://www.w3.org/1999/xlink" xml:space="preserve" xmlns:serif="http://www.serif.com/" style="fill-rule:evenodd;clip-rule:evenodd;stroke-linejoin:round;stroke-miterlimit:2;">
    <g transform="matrix(1.45537,0,0,1.45537,-15.9198,-2.18611)">
        <g>
            <g>
                <path d="M212.4,424.3C214.8,408.5 214.4,322 212.6,315.9C210.7,309.7 196.9,293.1 188.3,301.8C179.7,310.5 204,421.4 204,421.4L212.4,424.3Z" style="fill:rgb(163,101,70);fill-rule:nonzero;"/>
                <path d="M195,327.8C200.3,322.4 207.9,327.2 213.4,333.1C213.1,323.7 213,317.2 212.6,315.9C210.8,309.5 195.8,291.7 187.4,300.2C178.8,308.9 204.1,421.2 204.1,421.2L206.8,422.5C199.3,381.2 188.6,334.1 195,327.8Z" style="fill:rgb(171,106,74);fill-rule:nonzero;"/>
            </g>
        </g>
        <path d="M103.8,285.4C103.8,285.4 104.8,310.9 98.8,342C92.8,373.1 79.7,391.4 63,408.1C46.3,424.8 26.3,423.6 26.3,423.6C26.3,423.6 45.7,390.8 42.2,377.1C38.6,363.4 34.5,303.2 42.2,285.4C49.9,267.6 86.7,256.5 86.7,256.5L103.8,285.4Z" style="fill:rgb(82,111,13);fill-rule:nonzero;"/>
        <path d="M195.2,129.5C193.7,150.8 178.2,186.7 172.5,192.4C166.8,198.1 100.6,190.9 87.8,182C75.1,173.2 72.8,135.4 71.1,126.3C69.4,117.2 116.8,19.4 142,23.1C167.2,26.8 191.4,71.8 195.1,82.8C198.9,93.9 195.2,129.5 195.2,129.5Z" style="fill:rgb(82,111,13);fill-rule:nonzero;"/>
        <path d="M47.4,182C47.4,182 29,226.6 29,268L29,405.6C29,420.5 13,428.6 13,428.6C13,428.6 46.6,418.1 51.3,404.9C56,391.8 39.6,294.6 43.8,274.5C48,254.4 71.2,200.6 71.2,200.6L47.4,182Z" style="fill:rgb(112,157,13);fill-rule:nonzero;"/>
        <path d="M29,459.2C29,486.2 39.7,585.2 39.7,617.7C39.7,648.4 46.1,770.1 46.8,784C46.9,784.8 46.9,785.3 46.9,785.3C46.9,785.3 48.6,785.1 51.6,784.7C69.1,782.5 130.5,774.6 133.8,771.3C137.7,767.4 127.7,761.3 142,761.3C156.3,761.3 164.2,773.4 183.4,773.4C201.9,773.4 220.6,763.7 221.9,763L222,763C222,763 215.8,748.2 215.8,738.4C215.8,728.6 239.8,640.8 235.1,578.3C231.4,529.1 191.4,408.9 174.5,359.8L173.8,357.9L171.9,352.3L171,349.8L170.2,347.5L169.5,345.5L168.4,342.2L167.9,340.9L167,338.4L86.7,334.6C86.6,334.5 29,381.6 29,459.2Z" style="fill:rgb(255,46,56);fill-rule:nonzero;"/>
        <path d="M107.8,154.3C107.8,154.3 102.8,164.5 99.9,167.8C97,171 89.1,168.8 89.1,168.8C89.1,168.8 106.2,177.5 111.2,166.4C114,160.2 111.2,155.9 111.2,155.9L107.8,154.3Z" style="fill:rgb(89,8,0);fill-rule:nonzero;"/>
        <path d="M59.2,141.2C59.2,141.2 59.2,156.4 64.9,163.7C70.5,171 82.1,171 90.8,169.8C99.5,168.6 107.9,155.8 107.9,155.8L93.9,129.8L72.3,137.3L59.2,141.2Z" style="fill:rgb(89,8,0);fill-rule:nonzero;"/>
        <path d="M152.6,185.7C152.6,185.7 143.7,192.4 130,192.4C116.3,192.4 105.1,184.7 105.1,184.7C105.1,184.7 106.2,184.1 107.8,183.2C112.2,180.7 115.7,172.9 116.1,170.4C116.7,167 115.6,157.8 115.6,157.8L136,162.4L141.2,163L141.2,163.2C141.1,164.5 140.8,170.7 141.2,173.5C141.8,176.5 152.6,185.7 152.6,185.7Z" style="fill:rgb(154,96,66);fill-rule:nonzero;"/>
        <path d="M185.5,115.9C185.3,118.3 188.4,122.3 188.4,128.3C188.4,135 185.4,153.5 167.3,163.8C164.5,165.4 161.4,166.6 158.1,167.5C139.6,172.6 114,168 100.8,156C85,141.7 72.2,107.7 72.2,107.7C72.2,107.7 89.8,104.2 111.5,87.7C133.2,71.2 153.3,52.3 153.3,52.3C153.3,52.3 180.8,60.6 186.5,77.3C187.7,80.9 188.4,84.6 188.7,88.3C189.7,101.8 185.6,114.1 185.5,115.9Z" style="fill:rgb(171,106,74);fill-rule:nonzero;"/>
        <g>
            <path d="M134.8,142.8C134.8,142.8 142,144.2 154.3,144.2C165.5,144.2 170.4,142.2 170.1,142.8C170.1,142.8 161.4,154.5 151.9,155C145.4,155.4 134.8,144.2 134.8,144.2L134.8,142.8Z" style="fill:rgb(89,8,0);fill-rule:nonzero;"/>
            <path d="M165.1,144.6C165.1,144.6 160.9,145.4 152.1,145.4C143,145.4 135.6,144 135.6,144C135.6,144 136.2,144.9 137.7,146C140.3,148.2 144.9,151.6 149.8,152.6C154.7,153.5 159.7,150.5 159.7,150.5L160.8,148.5L165.1,144.6Z" style="fill:white;fill-rule:nonzero;"/>
            <path d="M136.7,143.1C136.7,143.1 142.1,143.3 149.7,141.6C156,140.1 167.4,143.2 167.4,143.2C167.4,143.2 163.6,144.8 154.8,144.6C146,144.4 136.7,143.1 136.7,143.1Z" style="fill:rgb(171,21,53);fill-rule:nonzero;"/>
            <path d="M136.7,146C136.7,146 143.6,158.4 152,158.9C160.4,159.5 165.8,147.6 165.8,147.6C165.8,147.6 158.5,155 151.2,154.3C143.7,153.6 136.7,146 136.7,146Z" style="fill:rgb(171,21,53);fill-rule:nonzero;"/>
        </g>
        <path d="M79.1,121.1C79.1,121.1 56.3,106.8 46.1,114.5C35.9,122.1 61.2,152.1 78.8,144.9C90.9,140 87.3,131.1 87.3,131.1L79.1,121.1Z" style="fill:rgb(225,103,54);fill-rule:nonzero;"/>
        <path d="M79.3,131.1C79.3,131.1 70.2,124.3 60.6,122.7C51,121.1 50.3,121.6 50.3,121.6C50.3,121.6 58.3,125.1 64.8,129.7C71.3,134.4 79.3,131.1 79.3,131.1Z" style="fill:rgb(196,85,45);fill-rule:nonzero;"/>
        <path d="M73.9,129.8C73.9,129.8 75.7,137.9 72.2,139.7C68.6,141.5 62.4,139.7 62.4,139.7C62.4,139.7 69,140.6 69.3,136.3C69.6,131.9 67.2,129.2 67.2,129.2L73.9,129.8Z" style="fill:rgb(196,85,45);fill-rule:nonzero;"/>
        <path d="M188.7,90.8C188.7,90.8 188.7,89.7 187.3,80.6C185.9,71.8 155.4,53.6 153.4,52.5L153.3,52.5L153.3,52.4L142.1,23.1C142.1,23.1 144.9,22.3 151.7,23.1C156.4,23.7 170.9,30.8 180.5,40.5C184.6,44.7 187.8,49.3 188.9,54.1C192.2,69.8 188.7,90.8 188.7,90.8Z" style="fill:rgb(74,31,0);fill-rule:nonzero;"/>
        <path d="M153.3,52.5L153.1,52.7C150.7,55.1 124.6,81.2 105.1,97.6C84.6,114.8 79.1,121.2 79.1,121.2L62.4,113.7C62.4,113.7 48.4,84.1 50.4,71.1C50.4,70.9 50.5,70.7 50.5,70.5C51.9,62 56.1,51.4 62.7,42.3C66,37.6 70,33.3 74.4,29.8C93.8,14.6 127.8,19.3 137.9,20.7C139.4,20.9 140.8,21.8 142.1,23.1C149.2,30.3 153,50.9 153.3,52.5Z" style="fill:rgb(74,31,0);fill-rule:nonzero;"/>
        <path d="M215.2,319.5C215.2,319.5 211,324.5 199.3,326.3C187.6,328.1 182.6,326.3 182.6,326.3L174.8,300.1C174.8,300.1 174.8,299.8 174.9,299.3C176.1,291.8 184.8,237.5 180.3,223.2C179.1,219.6 177.3,215.6 175.1,211.6C174.8,211.1 174.5,210.6 174.2,210C172.7,207.3 171,204.7 169.4,202.2C163.5,193.1 157.7,185.9 157.7,185.9C157.7,185.9 159.4,186.1 162.1,186.9C163.4,187.3 164.8,187.8 166.5,188.5C170.7,190.2 176.1,192.9 181.9,197.4C185.8,200.4 189.8,204.2 193.8,208.9C211.2,229.5 215.2,319.5 215.2,319.5Z" style="fill:rgb(217,0,23);fill-rule:nonzero;"/>
        <path d="M201.9,256.5C201.2,259.4 199.4,262.6 197.4,265.6C192.4,272.9 185.3,279.3 185.3,279.3C185.3,279.3 184.9,280.6 184,282.8C182.8,285.8 180.6,290.5 177.4,295.5C176.6,296.8 175.8,298 175,299.3C170.5,306.5 166.7,312.9 166.7,312.9C166.7,312.9 152.5,320 131.5,319.6C126.5,319.5 121.9,318.9 117.8,318.2C112.4,317.2 108,315.7 104.7,314.4L104.6,314.4C100.1,312.6 97.7,311 97.7,311L92.5,301.8C88.2,294.1 79.7,285.2 77,282.5C76.5,282 76.2,281.7 76.2,281.7C76.2,281.7 77.7,234.2 81.3,208.5C81.5,207 81.7,205.7 82,204.3C83.1,198.1 84.3,193.7 85.7,192.7C92.6,188.2 108.6,182.9 108.6,182.9C108.6,182.9 110.8,184.3 114.8,185.7C118.9,187.2 124.9,188.7 132.2,188.7C145.3,188.7 148.6,182.3 148.6,182.3L162.4,187.2L166.8,188.8C166.8,188.8 168.5,195.2 170.8,201.8C171.9,204.8 173.1,207.7 174.4,210.2C174.7,210.8 175,211.3 175.3,211.8C179.8,219.4 197.7,236.5 198.9,238.2C200,239.4 204.3,246.5 201.9,256.5Z" style="fill:rgb(255,46,56);fill-rule:nonzero;"/>
        <path d="M182.1,197.3C178.6,198.2 174.7,199.5 170.8,201.5C170.4,201.7 170,201.9 169.6,202.1C167.6,203.1 165.6,204.3 163.7,205.7C148.6,216.2 122.2,221.9 98.6,215.4C96,214.7 93.6,213.9 91.3,213C87.5,211.5 84.2,209.9 81.4,208.3C76.9,205.7 73.6,203 71.3,200.7C79.7,193.8 85.2,192.6 85.8,192.5C92.7,188 108.7,182.7 108.7,182.7C108.7,182.7 117.9,188.4 132.2,188.4C145.3,188.4 148.6,182 148.6,182L162.4,186.9C163.7,187.3 165.1,187.8 166.8,188.5C170.9,190.1 176.3,192.9 182.1,197.3Z" style="fill:rgb(217,0,23);fill-rule:nonzero;"/>
        <path d="M197.7,265L197.3,265.6L186.5,282.3C186.5,282.3 185.6,282.5 184,282.8C174.2,284.8 139,292.2 130.4,298.1C120.4,305.1 117.8,318.1 117.8,318.1L104.7,314.3L104.6,314.3C100.1,312.5 97.7,310.9 97.7,310.9L92.5,301.7C88.2,294 79.7,285.1 77,282.4L83.5,275.2C83.5,275.2 93.1,280 132.4,278.8C171.7,277.5 197.7,265 197.7,265Z" style="fill:rgb(217,0,23);fill-rule:nonzero;"/>
        <path d="M180.6,319.5C180.6,319.5 184.4,320.8 194.7,319.5C205,318.2 214.8,313.6 214.8,313.6L215.1,319.5C215.1,319.5 211,325.4 198.9,327.6C186.8,329.8 182.8,328.6 182.8,328.6L180.6,319.5Z" style="fill:rgb(255,182,84);fill-rule:nonzero;"/>
        <path d="M29,459.2C29,486.2 39.7,585.2 39.7,617.7C39.7,648.4 46.1,770.1 46.8,784L51.5,784.7C69,782.5 130.4,774.6 133.7,771.3C137.6,767.4 127.6,761.3 141.9,761.3C156.2,761.3 164.1,773.4 183.3,773.4C201.8,773.4 220.5,763.7 221.8,763C220.2,763.3 193.8,768.2 185.8,769.6C177.5,771 150.6,757.7 144.9,752C139.2,746.3 119.4,597.5 119.4,597.5L132.3,761.4C132.3,761.4 129.8,769.2 121.2,769.2C112.6,769.2 77.2,758.8 69.1,737.8C61.1,716.8 65.7,578.4 65.7,578.4C82.1,605.3 94.5,676.9 94.5,676.9C94.5,676.9 91.4,584.1 79.2,526.5C67.1,468.9 93.2,383.3 103.2,373.4C113.1,363.5 174.4,360 174.4,360L173.7,358.1L171.8,352.5L170.9,350L170.1,347.7L169.4,345.7L168.3,342.4L167.8,341.1L166.9,338.6L86.6,334.8C86.6,334.5 29,381.6 29,459.2Z" style="fill:rgb(217,0,23);fill-rule:nonzero;"/>
        <path d="M166.9,338.4C167.5,337.7 168.7,329.1 169.3,321.6C169.9,314.1 167.7,311.2 167.7,311.2C167.7,311.2 141.4,320.3 121.1,317.1C100.8,313.9 97,310.4 94.2,311.2C91.5,312.1 94.6,319.9 92.5,323.7C90.4,327.5 87.5,331.7 86.6,334.5C85.7,337.3 101.9,346.1 127.1,346.1C152.3,346.2 166.9,338.4 166.9,338.4Z" style="fill:rgb(99,14,65);fill-rule:nonzero;"/>
        <path d="M159.7,342C159.7,342 188.3,448.7 188.3,483.3C188.3,483.3 173.4,421.2 159.7,393.7C146,366.1 127.6,372.5 122.9,377.1C118.3,381.7 122.9,505.2 122.9,505.2C122.9,505.2 109.2,375.8 103.1,369.7C97,363.6 98.7,342 98.7,342C98.7,342 130.7,355.1 159.7,342Z" style="fill:rgb(217,0,23);fill-rule:nonzero;"/>
        <g>
            <path d="M156.1,112.8C160,118.9 163.5,127.5 161.3,129.8C159.1,132 148.8,131.8 148,131C147.3,130.2 156.1,112.8 156.1,112.8Z" style="fill:rgb(190,132,105);fill-opacity:0.59;fill-rule:nonzero;"/>
            <path d="M153.2,111.3C157.1,117.4 160.6,126 158.4,128.3C156.2,130.5 145.9,130.3 145.1,129.5C144.3,128.7 153.2,111.3 153.2,111.3Z" style="fill:rgb(171,106,74);fill-rule:nonzero;"/>
            <g>
                <path d="M190.8,88.8L191.5,87.3C185.8,78 172.8,73.5 166.4,73.5L165.7,77.9C170.9,77.2 184.4,80.9 190.8,88.8Z" style="fill:rgb(64,29,6);fill-rule:nonzero;"/>
            </g>
            <g>
                <path d="M109.9,87.8C120.5,80.4 139.6,79.4 144.3,79.7L144.1,75.3C138.9,75 121,77 108.7,86.1L109.9,87.8Z" style="fill:rgb(64,29,6);fill-rule:nonzero;"/>
            </g>
            <g>
                <path d="M138.9,107.2C141.1,105 138.2,95.9 129.8,92.9C121.7,90 117,95.1 116.5,97.3C116.3,99.5 117,103.7 121.7,105.9C126.4,108.1 130.3,107.9 132.8,107.9C135.7,107.9 137.7,108.7 138.9,107.2Z" style="fill:white;fill-rule:nonzero;"/>
                <circle cx="129.3" cy="98.4" r="7.4" style="fill:rgb(57,23,11);"/>
                <circle cx="126.6" cy="96.9" r="2.9" style="fill:white;"/>
                <path d="M139.6,105.5C139.6,105.5 140.8,101.3 136.2,95.4C131.3,89.5 124.7,90.5 122.7,90C120.7,89.5 118.8,90 119.5,90.5C120,91 118.3,92.5 116.8,92C115.3,91.5 116.8,93.2 116.6,93.7C116.6,94.2 113.9,93.9 113.7,94.4C113.5,94.9 115.2,96.4 114.7,96.4C114.2,96.4 112.7,97.6 113.5,98.1C114.2,98.6 115.5,100.3 116,101C116.5,101.7 118.2,102.5 118.2,102.5C118.2,102.5 116.5,98.8 117.7,96.6C118.9,94.1 121.9,91.7 126.8,92.7C131.5,93.4 134.4,95.9 136.4,97.9C137.9,100.1 139.6,105.5 139.6,105.5Z" style="fill:rgb(57,23,11);fill-rule:nonzero;"/>
            </g>
            <g>
                <path d="M165.7,106.2C164,103.7 167.9,95.6 176,93.9C184.1,92.2 187.8,97.8 187.8,99.8C187.8,102 186.3,105.7 181.7,107.2C177.1,108.7 173.3,107.9 171.1,107.4C168.4,107.2 166.7,107.7 165.7,106.2Z" style="fill:white;fill-rule:nonzero;"/>
                <circle cx="175.8" cy="99.1" r="6.9" style="fill:rgb(57,23,11);"/>
                <path d="M170.4,97.4C170.4,98.9 171.4,100.3 172.9,100.3C174.4,100.3 175.8,99.3 175.8,97.8C175.8,96.3 174.8,94.9 173.3,94.9C171.8,94.9 170.4,95.9 170.4,97.4Z" style="fill:white;fill-rule:nonzero;"/>
                <path d="M165.2,104.3C165.2,104.3 164.5,100.1 169.9,95.5C175.3,90.6 181.4,92.3 183.4,92.3C185.1,92.1 187.1,92.8 186.3,93.3C185.8,93.8 187.3,95.3 188.5,95C190,94.8 188.5,96.2 188.5,96.7C188.5,97.2 191,97.2 191,97.7C191.2,98.2 189.5,99.2 189.8,99.4C190,99.6 191.5,100.6 190.8,101.1C190.1,101.6 188.6,103.1 188.1,103.6C187.6,104.3 185.9,104.6 185.9,104.6C185.9,104.6 187.9,101.4 187.1,99.2C186.4,96.7 183.7,94 179.2,94.3C174.5,94.5 171.6,96.3 169.6,98C167.4,99.6 165.2,104.3 165.2,104.3Z" style="fill:rgb(57,23,11);fill-rule:nonzero;"/>
            </g>
        </g>
        <g>
            <g>
                <path d="M102.8,415C96.9,400.1 52.5,325.9 47.9,321.5C43.1,317.2 22.8,309.8 19.8,321.7C16.8,333.6 94.1,416.8 94.1,416.8L102.8,415Z" style="fill:rgb(163,101,70);fill-rule:nonzero;"/>
                <path d="M38.8,340.7C40.6,333.4 49.5,333.6 57.3,335.9C52.3,327.9 48.8,322.4 47.9,321.5C43.1,316.9 21.2,309.2 18.2,320.8C15.2,332.7 94.1,416.6 94.1,416.6L97.1,416.4C69.7,384.6 36.6,349.4 38.8,340.7Z" style="fill:rgb(171,106,74);fill-rule:nonzero;"/>
            </g>
        </g>
        <path d="M87.4,271.2C87.4,271.2 82.4,275.9 77,282.3C74.6,285.1 72.1,288.3 70.1,291.5C66.8,296.5 62.7,304.7 59.2,312C55.5,319.8 52.6,326.5 52.6,326.5C28.5,331.1 16.8,321.3 16.8,321.3C16.8,321.3 25,266.2 41.8,237.7C53.2,218.2 63.5,207 71.3,200.8C79.7,193.9 85.2,192.7 85.8,192.6C85.8,192.6 87,195.4 88.4,200.2C89.4,203.6 90.5,208 91.3,213.1C91.9,216.8 92.4,221 92.5,225.4C93.3,244.3 87.4,271.2 87.4,271.2Z" style="fill:rgb(255,46,56);fill-rule:nonzero;"/>
        <path d="M114.8,185.8C114.8,185.8 101.5,192 88.3,200C86.2,201.3 84,202.6 81.9,204C78,206.6 74.3,209.3 71.1,212C56.1,225 31.9,274.7 31.5,291.4C31.1,308.1 59.1,311.8 59.1,311.8C55.4,319.6 52.5,326.3 52.5,326.3C28.4,330.9 16.7,321.1 16.7,321.1C16.7,321.1 24.9,266 41.7,237.5C53.1,218 63.4,206.8 71.2,200.6C79.6,193.7 85.1,192.5 85.7,192.4C92.6,187.9 108.6,182.6 108.6,182.6C108.6,182.6 110.8,184 114.8,185.4L114.8,185.8Z" style="fill:rgb(217,0,23);fill-rule:nonzero;"/>
        <path d="M31.9,138.7L31.9,139L33.4,149.6L33.5,150.2C38.4,180 48,208.1 55.6,215.7C69.3,229.4 115.1,251.2 154.7,250.7C189.6,250.3 186.8,201.3 186.8,201.3C186.8,201.3 188,187.9 182.1,182C176.1,176 168.1,184.9 168.1,184.9C168.1,184.9 164.4,179.8 161,176.4C157.6,173 154.7,183.1 154.7,183.1C154.7,183.1 114.4,183.5 105,171.9C89,152 103.2,42.2 148.4,29.2C157.1,26.7 188.2,71.8 192.5,90.6C196.2,106.8 195.5,123.9 195.2,128.3C195.7,122.7 197.7,96.3 195.4,77.3C194.9,73.4 194,68.8 192.6,63.9C188.8,51 181.2,35.7 168,23.8L167.9,23.8C159,15.8 147.3,9.2 132.4,6C97.1,-1.6 65,28.2 46.5,59.3C41.4,67.9 37.3,76.7 34.5,84.7C29.6,98.6 29.5,118.5 31.9,138.7Z" style="fill:rgb(141,177,62);fill-rule:nonzero;"/>
        <path d="M31.9,138.8L31.9,139L33.4,149.6L33.5,150.2C38.4,180 48,208.1 55.6,215.7C69.3,229.4 115.1,251.2 154.7,250.7C189.6,250.3 186.8,201.3 186.8,201.3C186.8,201.3 188,187.9 182.1,182C176.1,176 168.1,184.9 168.1,184.9C168.1,184.9 164.4,179.8 161,176.4C157.6,173 154.7,183.1 154.7,183.1C154.7,183.1 114.4,183.5 105,171.9C89,152 103.2,42.2 148.4,29.2C157.1,26.7 188.2,71.8 192.5,90.6C196.2,106.8 195.5,123.9 195.2,128.3C195.7,122.7 197.7,96.3 195.4,77.3C194.9,73.4 194,68.8 192.6,63.9C179.1,48.9 155.8,24.1 148.4,22.6C137.7,20.5 90.3,90 84.9,103.4C79.4,116.8 103.7,179.2 103.7,179.2C103.7,179.2 72.7,169.5 62.3,159.2C52.4,149.3 47.7,109.5 47.3,105.8C47.6,109.4 50.6,148 53.9,163C57.4,178.8 98,202.9 98,202.9C98,202.9 59.5,204.4 51.3,197.2C43.4,190.2 32.6,141.9 31.9,138.8Z" style="fill:rgb(141,177,62);fill-opacity:0.59;fill-rule:nonzero;"/>
        <path d="M18,313.6C18,313.6 26.6,318.1 39.7,319.5C52.8,320.8 55.7,319.5 55.7,319.5L52.7,326.3C52.7,326.3 47.1,330.6 32.9,328.6C18.6,326.6 16.9,321.2 16.9,321.2L18,313.6Z" style="fill:rgb(255,182,84);fill-rule:nonzero;"/>
    </g>
</svg>
