<?xml version="1.0" encoding="utf-8"?>
<!-- Generator: Adobe Illustrator 24.3.0, SVG Export Plug-In . SVG Version: 6.00 Build 0)  -->
<svg version="1.1" id="Layer_1" xmlns="http://www.w3.org/2000/svg" xmlns:xlink="http://www.w3.org/1999/xlink" x="0px" y="0px"
	 viewBox="0 0 318.6 559" style="enable-background:new 0 0 318.6 559;" xml:space="preserve">
<style type="text/css">
	.st0{fill:#A36546;}
	.st1{fill:#AB6A4A;}
	.st2{fill:#FF2E38;}
	.st3{fill:#E16736;}
	.st4{fill:#C4552D;}
	.st5{fill:#D90017;}
	.st6{fill:#FFB654;}
	.st7{fill:#630E41;}
	.st8{fill:#526F0D;}
	.st9{fill:#709D0D;}
	.st10{fill:#8DB13E;}
</style>
<g>
	<g>
		<g>
			<path class="st0" d="M200.6,605.7c0,0,112.1-120.8,107.8-138c-4.3-17.3-33.8-6.6-40.8-0.3c-6.6,6.3-71,114.1-79.6,135.7
				L200.6,605.7z"/>
			<path class="st1" d="M196.3,605.1l4.3,0.3c0,0,114.5-121.8,110.2-139c-4.3-16.9-36.2-5.6-43.1,1c-1.3,1.3-6.3,9.3-13.6,20.9
				c11.3-3.3,24.2-3.6,26.9,7C284.2,507.8,236.1,558.9,196.3,605.1z"/>
		</g>
		<g>
			<path class="st0" d="M147.5,637.2c0,0,3.6,3.6,7.3,0.3l0,0l19.2-20.9l0.3-0.3v0.3l1.7,0.3l-2.7,4.3l-13.6,17.9c0,0,1,4.3,4,1.7
				l19.6-21.9l0.7,0.3c-0.3,1-0.7,1.7-1,2.7c-0.7,1.3-4.3,9-8.3,12.6c0,0-0.3,4.3,4,0.7c0,0,6.3-7.3,11.3-16.9
				c8-6,12.9-14.6,12.9-14.6l-1.3-5.3l-2.7-3l0,0l-27.5,8.3l-4,3.3l0,0c-2.7,1.7-5.3,3.6-8,6l0,0l-3,2.3l-9.3,7.3
				c0.3,0.7,2,2.3,4.3,1l19.6-11.9l-20.6,22.9l0,0L147.5,637.2z"/>
		</g>
	</g>
	<g>
		<g>
			<path class="st0" d="M109.7,601.4c0,0-43.5-159-60.5-164.4c-16.9-5.4-23.5,25.3-21.8,34.5c1.9,9,59.6,120.5,73.4,139.2
				L109.7,601.4z"/>
			<path class="st1" d="M106.9,604.7l2.6-3.5c0,0-43.1-161.5-60.1-166.9c-16.7-5.3-23.9,27.7-22,37.2c0.4,1.8,4.6,10.3,10.6,22.6
				c3.1-11.3,9.7-22.5,20.1-19.2C70.6,478.7,88.7,546.5,106.9,604.7z"/>
		</g>
		<g>
			<path class="st0" d="M108.5,663.1c0,0,5-1.2,4.1-6l0,0l-7.6-27.4l-0.1-0.5l0.3,0.2l1.2-1.2l2.3,4.5l8.1,21c0,0,4.2,1.4,3.5-2.5
				L112,623l0.6-0.4c0.7,0.8,1.1,1.4,1.7,2.2c0.8,1.3,5.3,8.4,6.3,13.7c0,0,3.5,2.6,2.7-3c0,0-2.9-9.2-8.4-18.5
				c-0.9-9.9-5.6-18.7-5.6-18.7l-5.2-1.7l-3.9,0.7l0,0l-7.5,27.8l0.7,5.1l0,0c0,3.1,0.3,6.4,0.9,9.9l0,0l0.4,3.8l1.3,11.7
				c0.7,0.1,3-0.5,3.1-3.1l0.2-22.9l8.6,29.5l0,0L108.5,663.1z"/>
		</g>
	</g>
	<path class="st2" d="M295.1,667.2c0,39.2-15.5,182.9-15.5,230.1c0,44.5-9.3,221.2-10.4,241.5c-0.1,1.2-0.1,1.9-0.1,1.9
		s-2.5-0.3-6.8-0.8c-25.5-3.2-114.5-14.6-119.3-19.4c-5.7-5.7,8.8-14.6-11.9-14.6c-20.8,0-32.3,17.6-60.1,17.6
		c-26.8,0-54-14-56-15.1l0,0h-0.1c0,0,9-21.5,9-35.7S-11,931-4.1,840.2c5.4-71.4,63.5-245.9,88-317.2l0.9-2.7l2.8-8.1l1.3-3.6
		l1.1-3.3l1-3l0.9-2.6l0.8-2.2l0.7-1.9l1.3-3.7l116.6-5.5C211.5,486.3,295.1,554.5,295.1,667.2z"/>
	<path class="st3" d="M222.4,176.5c0,0,33.1-20.7,47.9-9.6c14.8,11-21.9,54.6-47.5,44.2c-17.5-7.1-12.3-20-12.3-20L222.4,176.5z"/>
	<path class="st4" d="M222.1,191c0,0,13.1-9.9,27.1-12.2c13.9-2.3,15-1.5,15-1.5s-11.7,5-21,11.8C233.8,195.8,222.1,191,222.1,191z"
		/>
	<path class="st4" d="M230,189c0,0-2.7,11.8,2.5,14.4c5.2,2.6,14.3,0,14.3,0s-9.5,1.3-10-5c-0.4-6.3,3.1-10.4,3.1-10.4L230,189z"/>
	<path class="st5" d="M24.8,464.5c0,0,6.1,7.2,23.1,9.8c16.9,2.6,24.2,0,24.2,0l11.3-38.1c0,0-0.1-0.4-0.2-1.2
		c-1.8-10.8-14.4-89.8-7.9-110.5c1.7-5.3,4.4-11.1,7.6-16.9c0.4-0.7,0.8-1.4,1.3-2.3c2.2-3.9,4.6-7.7,6.9-11.3
		c8.6-13.1,17-23.6,17-23.6s-2.4,0.3-6.4,1.5c-1.8,0.6-4,1.3-6.4,2.3l0,0c-6.1,2.5-14,6.4-22.3,12.9c-5.6,4.4-11.5,9.8-17.3,16.7
		C30.7,333.8,24.8,464.5,24.8,464.5z"/>
	<path class="st2" d="M44.2,372.9c1,4.2,3.6,8.8,6.6,13.2c7.3,10.6,17.5,19.9,17.5,19.9s0.6,1.9,1.9,5c1.8,4.4,4.9,11.2,9.6,18.4
		c1.2,1.8,2.3,3.7,3.5,5.5c6.6,10.4,12.1,19.8,12.1,19.8s20.6,10.3,51.1,9.7c7.3-0.1,14-1,19.8-2.1c7.8-1.5,14.2-3.6,19-5.5l0.1-0.1
		c6.6-2.6,10.1-4.9,10.1-4.9s0,0,7.5-13.4c6.3-11.2,18.6-24.1,22.5-28c0.8-0.8,1.2-1.2,1.2-1.2s-2.1-69-7.4-106.2
		c-0.3-2.1-0.6-4.1-1-6c-1.6-9.1-3.3-15.4-5.4-16.8h-0.1c-10.1-6.6-33.2-14.2-33.2-14.2s-3.2,2-9,4c-6,2.1-14.6,4.3-25.2,4.3
		c-19.1,0-23.8-9.3-23.8-9.3l-20,7l-6.4,2.3l0,0c0,0-2.4,9.3-5.8,18.9c-1.6,4.3-3.3,8.6-5.2,12.2c-0.4,0.8-0.8,1.6-1.3,2.3
		c-6.6,11.1-32.6,35.9-34.3,38.3C46.8,348.2,40.7,358.5,44.2,372.9z"/>
	<path class="st5" d="M72.9,287.1c5,1.3,10.7,3.2,16.5,6c0.6,0.3,1.2,0.6,1.8,0.9c2.9,1.5,5.8,3.2,8.6,5.2
		c22,15.3,60.2,23.5,94.5,14.1c3.8-1,7.3-2.2,10.6-3.5c5.5-2.1,10.3-4.4,14.4-6.9c6.5-3.8,11.3-7.7,14.7-11
		c-12.3-10-20.1-11.7-21-11.8h-0.1c-10.1-6.6-33.2-14.2-33.2-14.2s-13.4,8.3-34.1,8.3c-19.1,0-23.8-9.3-23.8-9.3l-20,7
		c-1.8,0.6-4,1.3-6.4,2.3l0,0C89.1,276.6,81.3,280.6,72.9,287.1z"/>
	<path class="st5" d="M50.2,385.3l0.6,0.9l15.7,24.2c0,0,1.3,0.2,3.7,0.7c14.3,2.9,65.3,13.6,77.8,22.3c14.5,10.1,18.3,29,18.3,29
		l19-5.5l0.1-0.1c6.6-2.6,10.1-4.9,10.1-4.9s0,0,7.5-13.4c6.3-11.2,18.6-24.1,22.5-28l-9.4-10.4c0,0-13.9,7-71,5.2
		C88,403.4,50.2,385.3,50.2,385.3z"/>
	<path class="st6" d="M75,464.5c0,0-5.6,1.9-20.5,0c-15-1.8-29.2-8.5-29.2-8.5l-0.5,8.5c0,0,5.9,8.6,23.5,11.7
		c17.6,3.2,23.4,1.5,23.4,1.5L75,464.5z"/>
	<path class="st7" d="M94.9,491.8c-0.8-1-2.6-13.6-3.4-24.4c-0.9-10.9,2.4-15,2.4-15s38.1,13.1,67.7,8.5c29.5-4.6,35-9.8,39-8.5
		c4,1.2-0.6,12.7,2.5,18.2s7.2,11.6,8.6,15.7c1.3,4.1-22.3,16.9-58.8,16.9C116.2,503.2,94.9,491.8,94.9,491.8z"/>
	<path class="st2" d="M210.4,394.3c0,0,7.3,6.9,15.1,16.1c3.5,4.1,7,8.7,10.1,13.3c4.8,7.2,10.8,19.2,15.8,29.7
		c5.4,11.4,9.5,21,9.5,21c35,6.7,52-7.5,52-7.5s-11.9-80-36.2-121.3c-16.6-28.3-31.6-44.5-42.8-53.6c-12.3-10-20.1-11.7-21-11.8
		h-0.1c0,0-1.7,4.1-3.8,11c-1.4,4.9-3,11.3-4.2,18.7c-0.8,5.4-1.6,11.4-1.8,17.8C201.9,355.2,210.4,394.3,210.4,394.3z"/>
	<path class="st5" d="M170.6,270.4c0,0,19.3,9,38.4,20.7c3.1,1.9,6.2,3.8,9.2,5.8c5.7,3.8,11.1,7.7,15.6,11.6
		c21.7,18.8,56.9,91.1,57.5,115.3c0.6,24.2-40.1,29.6-40.1,29.6c5.4,11.4,9.5,21,9.5,21c35,6.7,52-7.5,52-7.5s-11.9-80-36.2-121.3
		c-16.6-28.3-31.6-44.5-42.8-53.6c-12.3-10-20.1-11.7-21-11.8h-0.1c-10.1-6.6-33.2-14.2-33.2-14.2s-3.2,2-9,4L170.6,270.4z"/>
	<path class="st6" d="M311.1,455.9c0,0-12.4,6.6-31.4,8.5s-23.2,0-23.2,0l4.4,9.9c0,0,8.1,6.2,28.8,3.3s23.3-10.8,23.3-10.8
		L311.1,455.9z"/>
	<path class="st8" d="M73,333.8c0,0,9,170,35,209c25.5,38.3,70.7,36.7,95,61s84,15,84,15s-35.1-49.9-30-69.8
		c5.2-19.9,2.4-105.1,0-133.1c-14-161.1-82-96.1-82-96.1L73,333.8z"/>
	<path class="st9" d="M249.3,265.8c0,0,26.8,64.8,26.8,124.8c0,60.1,0,178.1,0,199.8c0,21.6,23.3,33.4,23.3,33.4
		s-48.8-15.3-55.7-34.4c-6.9-19.1,17-160.2,10.9-189.3c-6.1-29.1-39.7-107.3-39.7-107.3L249.3,265.8z"/>
	<path class="st10" d="M53.9,188.6c2.2,30.9,24.7,83,32.9,91.3c8.3,8.3,104.5-2.2,122.9-15.1c18.5-12.8,21.7-67.7,24.2-80.9
		c2.5-13.3-66.4-155.2-103-149.8s-71.7,70.6-77.1,86.7C48.5,136.9,53.9,188.6,53.9,188.6z"/>
	<path class="st10" d="M291,202v0.2v0.4l-2.2,15.3l-0.2,0.9c-7.1,43.3-21.1,84.1-32.1,95c-19.8,19.8-86.4,51.5-143.9,50.9
		C62,364.1,66,292.9,66,292.9s-1.8-19.4,6.9-28.1s20.3,4.2,20.3,4.2s5.4-7.4,10.3-12.3s30-8,30-8s37.6,18.2,51.1,1.4
		c23.3-28.8,2.7-188.3-63-207.1c-12.7-3.7-57.8,61.9-64,89.2c-5.4,23.5-4.3,48.4-3.9,54.8c-0.7-8.1-3.6-46.4-0.4-74.1
		c0.7-5.7,2-12.4,4.1-19.4C63,74.8,74,52.7,93.2,35.4c0,0,0,0,0.1,0c13.1-11.8,30.1-21.3,51.8-26c51.2-11,97.8,32.2,124.7,77.3l0,0
		c7.5,12.5,13.4,25.2,17.5,36.9C294.2,143.7,294.5,172.6,291,202z"/>
</g>
</svg>
