<?xml version="1.0" encoding="utf-8"?>
<!-- Generator: Adobe Illustrator 25.0.0, SVG Export Plug-In . SVG Version: 6.00 Build 0)  -->
<svg version="1.1" id="Layer_1" xmlns="http://www.w3.org/2000/svg" xmlns:xlink="http://www.w3.org/1999/xlink" x="0px" y="0px"
	 viewBox="0 0 480 600" style="enable-background:new 0 0 480 600;" xml:space="preserve">
<style type="text/css">
	.st0{fill-rule:evenodd;clip-rule:evenodd;fill:#674399;}
	.st1{fill:#FFFFFF;}
	.st2{fill:none;stroke:#CCCCCC;stroke-width:4.7792;stroke-miterlimit:10;}
	.st3{fill:none;stroke:#808080;stroke-width:4.2781;stroke-miterlimit:10;}
	.st4{fill:#D13C69;}
</style>
<g transform="matrix(0.948172,0,0,1.88724,-3.09674,-964.778)">
	<rect x="-7.9" y="506.2" class="st0" width="529.6" height="328.5"/>
</g>
<g>
	<g>
		<rect x="73" y="37" transform="matrix(0.9834 -0.1817 0.1817 0.9834 -42.6744 47.8813)" class="st1" width="334" height="439.7"/>
		<line class="st2" x1="301.9" y1="399.9" x2="399.1" y2="381.9"/>
		<g>
			<line class="st3" x1="99.8" y1="182.7" x2="352" y2="136.1"/>
			<line class="st3" x1="96.5" y1="164.6" x2="348.7" y2="118"/>
			<line class="st3" x1="106.5" y1="218.7" x2="358.7" y2="172.1"/>
			<line class="st3" x1="102.8" y1="198.8" x2="355" y2="152.2"/>
			<line class="st3" x1="109.6" y1="234.6" x2="361.8" y2="188"/>
			<line class="st3" x1="112.6" y1="250.7" x2="364.8" y2="204.2"/>
			<line class="st3" x1="115.3" y1="266.7" x2="367.5" y2="220.1"/>
			<line class="st3" x1="118.5" y1="282.7" x2="370.7" y2="236.1"/>
			<line class="st3" x1="121.5" y1="298.8" x2="373.7" y2="252.2"/>
			<polygon class="st4" points="435.6,310 82.2,380.5 74.8,327.9 425.1,260.5 			"/>
			<g>
				<path class="st1" d="M197.2,342.2l-2.8-6.4l-6.9,1.3l-0.3,7l-4.9,0.9l1.7-27.9l6.7-1.2l11.5,25.5L197.2,342.2z M192.7,331.6
					l-2.6-5.9c-0.2-0.4-0.5-1.3-1.1-2.7c-0.6-1.5-0.9-2.4-1.1-2.9c0,1.1,0,2.3,0,3.6s-0.1,4.3-0.3,8.9L192.7,331.6z"/>
				<path class="st1" d="M213.3,339.6c-0.9,0.2-1.7,0.1-2.4-0.2s-1.5-0.8-2.3-1.7h-0.3c0.5,1.6,0.8,2.6,0.8,2.9l1.5,8.3l-4.9,0.9
					l-5.4-29.2l3.7-0.7l1.3,2.5h0.2c0.6-2.2,1.9-3.5,3.8-3.8c1.8-0.3,3.5,0.3,4.8,1.9c1.4,1.6,2.4,4.1,3,7.5c0.6,3.3,0.5,6-0.2,8
					C216.5,338.1,215.2,339.3,213.3,339.6z M208.7,323c-0.9,0.2-1.5,0.7-1.8,1.7s-0.2,2.5,0.1,4.5l0.1,0.6c0.4,2.2,0.9,3.8,1.5,4.8
					c0.6,0.9,1.4,1.3,2.4,1.1c1.7-0.3,2.2-2.6,1.4-6.9c-0.4-2.1-0.9-3.7-1.5-4.6C210.3,323.2,209.6,322.8,208.7,323z"/>
				<path class="st1" d="M227.5,315.2c0.6-0.1,1.2-0.1,1.8-0.1l0.3,4.8c-0.4-0.1-0.8,0-1.4,0.1c-1.2,0.2-2,0.8-2.5,1.9
					c-0.5,1-0.5,2.5-0.2,4.2l1.9,10.4l-4.8,0.9l-3.7-20.3l4-0.7l1.1,3.1h0.2c0.3-1.4,0.7-2.4,1.2-3.1
					C226,315.8,226.7,315.4,227.5,315.2z"/>
				<path class="st1" d="M248.4,322.2c0.6,3.3,0.4,6-0.7,8.2c-1.1,2.1-2.8,3.4-5.3,3.8c-1.6,0.3-3,0.1-4.3-0.5s-2.5-1.7-3.4-3.2
					s-1.6-3.3-2-5.4c-0.6-3.3-0.4-6,0.7-8.1c1.1-2.1,2.8-3.4,5.3-3.8c2.4-0.4,4.5,0.2,6.2,1.8C246.6,316.6,247.8,319,248.4,322.2z
					 M237.6,324.2c0.4,2.1,0.9,3.7,1.6,4.7s1.5,1.4,2.5,1.2c1.9-0.4,2.5-2.7,1.7-6.9c-0.4-2.1-0.9-3.7-1.6-4.6
					c-0.7-1-1.5-1.4-2.5-1.2c-1,0.2-1.7,0.9-1.9,2C237.1,320.5,237.2,322.1,237.6,324.2z"/>
				<path class="st1" d="M259,309.4c1.8-0.3,3.5,0.3,4.9,1.9s2.4,4.1,3,7.4c0.6,3.4,0.6,6.1-0.2,8.1c-0.7,2-2,3.2-3.9,3.6
					c-0.9,0.2-1.8,0.1-2.5-0.1c-0.8-0.3-1.6-0.8-2.4-1.7l-0.3,0.1l-0.4,2.5l-3.6,0.7l-5.2-28.3l4.8-0.9l1.2,6.6
					c0.1,0.3,0.1,0.6,0.1,0.9s0.2,1.4,0.4,3.2h0.3c0.4-1.2,0.9-2.1,1.5-2.7C257.3,310,258.1,309.6,259,309.4z M258.1,313.9
					c-0.9,0.2-1.5,0.7-1.8,1.7c-0.2,0.9-0.2,2.5,0.2,4.7l0.1,0.5c0.4,2.4,0.9,4,1.5,4.9s1.4,1.2,2.3,1.1c1.7-0.3,2.2-2.6,1.4-6.9
					C261.1,315.5,259.8,313.5,258.1,313.9z"/>
				<path class="st1" d="M282.1,326.5l-1.5-2.6h-0.1c-0.5,1.3-1.1,2.3-1.8,2.9c-0.7,0.6-1.6,1-2.8,1.2c-1.5,0.3-2.8-0.1-3.8-1
					c-1.1-1-1.8-2.4-2.1-4.4c-0.4-2.1-0.1-3.8,0.9-5.1c1-1.3,2.6-2.2,4.9-2.7l2.7-0.6l-0.3-1.5c-0.3-1.9-1.3-2.7-3-2.4
					c-1.2,0.2-2.5,1-3.9,2.2l-2.3-3c1.8-1.6,3.8-2.7,6.2-3.1c2.1-0.4,3.9-0.1,5.2,0.9c1.3,1,2.2,2.7,2.6,4.9l2.5,13.6L282.1,326.5z
					 M277.2,323.9c0.9-0.2,1.5-0.7,1.9-1.6s0.4-2,0.2-3.3l-0.3-1.7l-1.5,0.3c-1.1,0.3-1.8,0.7-2.3,1.4c-0.4,0.7-0.5,1.6-0.3,2.7
					C275.3,323.4,276,324.1,277.2,323.9z"/>
				<path class="st1" d="M294.9,324.5c-1.9,0.3-3.5-0.3-4.9-1.9s-2.4-4.1-3-7.4s-0.6-6,0.2-8s2-3.3,3.8-3.6c0.9-0.2,1.8-0.1,2.5,0.2
					c0.8,0.3,1.5,1,2.3,2l0.3-0.1c-0.5-1.8-0.8-3.1-0.9-3.8l-1.2-6.8l4.8-0.9l5.2,28.3l-3.6,0.7l-1.3-2.5h-0.2
					C298.2,322.9,296.9,324.2,294.9,324.5z M295.7,320.1c0.9-0.2,1.5-0.7,1.7-1.6c0.3-0.9,0.2-2.4-0.2-4.6l-0.1-0.6
					c-0.4-2.4-0.9-4-1.5-4.8c-0.6-0.9-1.4-1.2-2.3-1.1c-0.9,0.2-1.4,0.8-1.7,2c-0.2,1.2-0.1,2.8,0.3,4.9s0.9,3.6,1.5,4.6
					S294.8,320.3,295.7,320.1z"/>
				<path class="st1" d="M321.1,308.8c0.6,3.3,0.4,6-0.7,8.2s-2.8,3.4-5.3,3.8c-1.6,0.3-3,0.1-4.3-0.5s-2.5-1.7-3.4-3.2
					s-1.6-3.3-2-5.4c-0.6-3.3-0.4-6,0.7-8.1s2.8-3.4,5.3-3.8c2.4-0.4,4.5,0.2,6.2,1.8C319.4,303.2,320.6,305.6,321.1,308.8z
					 M310.4,310.8c0.4,2.1,0.9,3.7,1.6,4.7s1.5,1.4,2.5,1.2c1.9-0.4,2.5-2.7,1.7-6.9c-0.4-2.1-0.9-3.7-1.6-4.6
					c-0.7-1-1.5-1.4-2.5-1.2c-1,0.2-1.7,0.9-1.9,2C309.9,307,310,308.7,310.4,310.8z"/>
			</g>
		</g>
	</g>
</g>
</svg>
