<?xml version="1.0" encoding="utf-8"?>
<!-- Generator: Adobe Illustrator 25.0.0, SVG Export Plug-In . SVG Version: 6.00 Build 0)  -->
<svg version="1.1" id="Layer_1" xmlns="http://www.w3.org/2000/svg" xmlns:xlink="http://www.w3.org/1999/xlink" x="0px" y="0px"
	 viewBox="0 0 480 600" style="enable-background:new 0 0 480 600;" xml:space="preserve">
<style type="text/css">
	.st0{fill:#FFCC7B;}
	.st1{fill:#F7AE66;}
	.st2{fill:#C52928;}
	.st3{fill:#FFFFFF;}
	.st4{fill:#005869;}
	.st5{fill:#BB7348;}
	.st6{fill:#D8D4DE;}
	.st7{opacity:0.2;}
	.st8{fill:#3B3B3B;}
	.st9{opacity:0.2;fill:#3B3B3B;}
	.st10{fill:#E9E4EF;}
	.st11{fill:#F3F0F5;}
	.st12{opacity:0.2;fill:#4D0B00;}
	.st13{fill:#905D3B;}
	.st14{fill:#48270F;}
	.st15{fill:#39170B;}
	.st16{fill:#542C23;}
	.st17{fill:#FFF0E7;}
	.st18{fill:#069D48;}
	.st19{fill:#058F42;}
</style>
<polygon class="st0" points="485,-23.9 -15.1,-22.8 -15.1,626.8 496.1,626.8 "/>
<g>
	<rect x="477.7" y="-25.3" class="st1" width="2.1" height="630.2"/>
	<rect x="313.6" y="-25.3" class="st1" width="2.1" height="630.2"/>
	<rect x="149.6" y="-25.3" class="st1" width="2.1" height="630.2"/>
	<rect x="-14.5" y="-25.3" class="st1" width="2.1" height="630.2"/>
	<rect x="395.7" y="-25.3" class="st1" width="2.1" height="630.2"/>
	<rect x="231.6" y="-25.3" class="st1" width="2.1" height="630.2"/>
	<rect x="67.5" y="-25.3" class="st1" width="2.1" height="630.2"/>
</g>
<g>
	<rect x="34.8" y="26.9" class="st2" width="199" height="101.2"/>
	<rect x="98.8" y="26.9" class="st3" width="72.7" height="101.2"/>
</g>
<g>
	<path class="st4" d="M267.6,802.9c-1.9-21.5-2.1-34.7-2.1-34.7l-14.7-253l-17.2,287.8H205L195.6,523c0,0-0.5-13.9-1.3-37v-54.5
		h112.8v54.5c-0.8,23.1-1.3,37-1.3,37l-9.3,279.9H267.6z"/>
	<g>
		<g>
			<g>
				<g>
					<path class="st5" d="M175.3,465.7c0,0,6.2,8.8,6.2,9.4c0.1,0.6-1.2,20.8-5.6,20.8c-4.4,0-6-23.9-4.2-25.5
						C173.6,468.8,174.6,466,175.3,465.7z"/>
					<g>
						<path class="st5" d="M149.5,460.8c-2.7,7.2,0.2,34.4,1.3,40c0.6,3.1,3.3,3.5,5.4,3.5c6.8,0.1,12.8,5.5,16.3,3.1
							c0.9-0.7,5.1-1.4,4.6-5.5c-1-9-1.8-21.5-1.6-36C171.3,452.9,152.4,455.8,149.5,460.8z"/>
					</g>
				</g>
				<path class="st5" d="M163.6,324.2c0,0-1.6,8.9-2.8,12.4c-1.2,3.6-5.1,20.3-5.7,25.2s-8.5,96.7-4.1,103.9
					c4.3,7.2,19.5,4.9,21.4,0.6c1.9-4.3,12.1-78,12.7-82.9s5.5-44.3,7.6-48.5S165,319.4,163.6,324.2z"/>
				<g>
					<path class="st6" d="M207.4,227.1c-38.6-5.4-54.9,81.4-55.8,140.9c-0.1,3.8,35.7,12.5,36.4,4.6c3.1-34.2,11.8-88.7,18.6-108.1
						C209.2,256.7,211.8,227.8,207.4,227.1z"/>
				</g>
				<g class="st7">
					<path class="st8" d="M200.5,227.1c-27.5,15.5-38,106.2-38.8,131.1c-0.1,2.6,16,7.3,26.8,7.7c-0.4,2.1-0.8,4.2-1.2,6.4
						c-1.3,7.8-36.5-0.8-36.4-4.6C151.8,338.4,160.2,236.3,200.5,227.1z"/>
				</g>
			</g>
			<g>
				<path class="st6" d="M190.1,372l-0.5,5.5c-0.4,3.5-3,5.8-6.1,5.1l-6.8-1.6l-24.1-5.3c-2.9-0.7-5.1-3.8-5.1-7.2l0-8.4
					c0-4.1,3.1-6.8,6.5-5.8l29.1,9l2.4,0.8C188.4,365,190.4,368.5,190.1,372z"/>
				<path class="st9" d="M183.1,363.4c0,0-15.4-5.2-16.4,3.7c-0.6,6,4.2,10.6,10,13.9l-24.1-5.3c-2.9-0.7-5.1-3.8-5.1-7.2l0-8.4
					c0-4.1,3.1-6.8,6.5-5.8L183.1,363.4z"/>
			</g>
		</g>
		<g>
			<g>
				<g>
					<path class="st6" d="M300.9,231.1c38.6-5.4,54.9,81.4,55.8,140.9c0.1,3.8-35.7,12.5-36.4,4.6c-3.1-34.2-11.8-88.7-18.6-108.1
						C299,260.6,296.4,231.7,300.9,231.1z"/>
				</g>
				<g class="st7">
					<path class="st8" d="M307.7,231.1c27.5,15.5,38,106.2,38.8,131.1c0.1,2.6-16,7.3-26.8,7.7c0.4,2.1,0.8,4.2,1.2,6.4
						c1.3,7.8,36.5-0.8,36.4-4.6C356.5,342.3,348.1,240.2,307.7,231.1z"/>
				</g>
			</g>
			<g>
				<path class="st6" d="M318.3,380.1l-0.9-5.5c-0.6-3.5,1.4-6.5,4.5-6.7l7-0.5l24.6-2c2.9-0.2,5.8,2.1,6.7,5.4l2.2,8.1
					c1.1,3.9-1.2,7.5-4.8,7.4l-30.3-0.1l-2.5,0C321.7,386.2,318.8,383.5,318.3,380.1z"/>
				<path class="st9" d="M327.2,386.3c0,0,16.2,0.5,14.8-8.4c-0.9-5.9-6.8-9-13.2-10.4l24.6-2c2.9-0.2,5.8,2.1,6.7,5.4l2.2,8.1
					c1.1,3.9-1.2,7.5-4.8,7.4L327.2,386.3z"/>
			</g>
		</g>
		<g>
			<path class="st10" d="M204.4,222.9c-14.3,12.5-13.1,172.7-14.7,228.6c0,1.6,0.8,3.1,1.5,4.1c0.5,0.7,1.2,1.1,1.9,1.4
				c6,3,27,11,56.3,12.1c56.9,2.2,61.2-23.3,61.3-30.9c0.9-45.5,3.9-118.3,1.5-172.2c-0.9-19.5-5.7-38.2-17-43.4
				S215.7,212.9,204.4,222.9z"/>
		</g>
		<g>
			<path class="st5" d="M234.9,224.1c0,0,2.6,9.4,6.8,16.7c4.5,7.8,15.7,20.7,15.7,20.7s8.7-10.3,14-21c4.7-9.3,6.2-19.1,5.1-20.2
				c-2.2-2.4-10.8-1.9-8.1-22.2c0,0-10.2,5-32,1.4c0,0,1.1,3.4,1.7,7.9C238.9,212.6,238.7,219.5,234.9,224.1z"/>
			<path class="st11" d="M268.6,212c0,0,18.5-1.9,22.5,18.1c2.7,13.7-4.1,26.9-12,39.2c0,0-2.2-13.7-17.3-14.6
				c0,0,6.5-10.8,9.9-18.9c4.1-9.7,5.6-15.2,5.6-15.2S270.1,217.8,268.6,212z"/>
			<path class="st11" d="M230.8,268.5c0,0,14.4-19.2,20.2-15.5c-5.5-7-8.8-11-11.3-15.5c-4.3-7.9-5-13.6-5-13.6
				c4.6-4.5,4.7-12.4,4.7-12.4s-0.1,0-0.2,0c-17.6,1.4-20.5,11.3-20.5,11.3C213.8,241.9,230.8,268.5,230.8,268.5z"/>
			<path class="st12" d="M238.2,207.3c0,0,12.7,1,20.2,3.5c0,0-0.7,5.1,4.8,13.2c5.3,7.8,1.9,27.2-16.3,22.2
				c4.5,7.8,10.3,15.5,10.3,15.5s7.1-10.3,12.5-21.1c4.6-9.3,7.8-19.1,6.8-20.2c-2.2-2.4-10.8-1.9-8.1-22.2c0,0-10.2,5-32,1.4
				C236.5,199.4,237.6,202.8,238.2,207.3z"/>
		</g>
		<g class="st7">
			<path class="st8" d="M257.1,261.8c-3.5,42.4-2.6,124.4-1.5,180.3"/>
		</g>
		<g class="st7">
			<path class="st8" d="M246.5,277c-0.3,0.8,0.1,3.2,2.1,3.3c2.4,0.1,3-2.2,2.5-3.7C250.5,274.9,247.4,274.5,246.5,277z"/>
		</g>
		<g class="st7">
			<path class="st8" d="M246.7,306.7c-0.3,0.8,0.1,3.2,2.1,3.3c2.4,0.1,3-2.2,2.5-3.7C250.7,304.5,247.5,304.2,246.7,306.7z"/>
		</g>
		<g class="st7">
			<path class="st8" d="M246.7,336.3c-0.3,0.8,0.1,3.2,2.1,3.3c2.4,0.1,3-2.2,2.5-3.7C250.7,334.2,247.5,333.8,246.7,336.3z"/>
		</g>
		<g class="st7">
			<path class="st8" d="M246.7,365.9c-0.3,0.8,0.1,3.2,2.1,3.3c2.4,0.1,3-2.2,2.5-3.7C250.7,363.8,247.5,363.4,246.7,365.9z"/>
		</g>
		<g class="st7">
			<path class="st8" d="M246.7,395.5c-0.3,0.8,0.1,3.2,2.1,3.3c2.4,0.1,3-2.2,2.5-3.7C250.7,393.4,247.5,393,246.7,395.5z"/>
		</g>
		<g class="st7">
			<path class="st8" d="M246.7,425.1c-0.3,0.8,0.1,3.2,2.1,3.3c2.4,0.1,3-2.2,2.5-3.7C250.7,423,247.5,422.6,246.7,425.1z"/>
		</g>
	</g>
	<g>
		<g>
			<g>
				<path class="st5" d="M204.8,147.8c1.1,8.6-2.3,16.1-7.7,16.8c-5.4,0.7-10.7-5.7-11.9-14.2c-1.1-8.6,2.3-16.1,7.7-16.9
					C198.3,132.8,203.6,139.2,204.8,147.8z"/>
				<path class="st13" d="M198.2,145.2c0,0,0.6-0.9-3-1.2c0,0-4,0.5-1.9,4.8c0.4,0.9,0.8,1.9,1,2.9c0.3,1.4-0.5,3.4,0.4,4.7
					c1.1,1.7,4.3,0.8,4.6-1.1c0.2-1.4-1.4-3.9-2.2-5C197,150.4,194.7,147.2,198.2,145.2z"/>
			</g>
			<g>
				<path class="st5" d="M300.3,147.8c-1.1,8.6,2.3,16.1,7.7,16.8c5.4,0.7,10.7-5.7,11.8-14.2c1.1-8.6-2.3-16.1-7.7-16.9
					C306.8,132.8,301.5,139.2,300.3,147.8z"/>
				<path class="st13" d="M306.9,145.2c0,0-0.6-0.9,3-1.2c0,0,4,0.5,1.9,4.8c-0.4,0.9-0.8,1.9-1,2.9c-0.3,1.4,0.5,3.4-0.4,4.7
					c-1.1,1.7-4.3,0.8-4.6-1.1c-0.2-1.4,1.4-3.9,2.2-5C308.1,150.4,310.4,147.2,306.9,145.2z"/>
			</g>
		</g>
		<path class="st5" d="M252.4,50.5L252.4,50.5c0.1,0,0.1,0,0.2,0c0.1,0,0.1,0,0.2,0v0c12.9,0.7,69.3,8.8,55.9,95.7l-3.3,36.4
			c0,0-2.9,8.2-13,15.9c0,0-17.4,14.7-32.1,21.2c0,0-3.2,0.9-7.5,2.5v0.1c-0.1,0-0.1,0-0.2-0.1c-0.1,0-0.1,0-0.2,0.1v-0.1
			c-4.3-1.6-7.5-2.5-7.5-2.5c-14.6-6.5-32-21.2-32-21.2c-10.1-7.7-10.6-15.9-10.6-15.9l-5.7-36.4C183.1,59.3,239.4,51.3,252.4,50.5z
			"/>
		<path class="st14" d="M209.3,38.6c0,0-19.6,10.6-22.2,34.4c-1.9,17.4,4.9,60.9,4.9,60.9c5.3-0.9,4.1,10.2,4.1,10.2l2.2-0.2
			c0.3-27.2,12.9-42.6,12.9-42.6c-6.9-9,3.7-24.9,3.7-24.9c32.8,12.2,75.4-0.3,75.4-0.3s23.7-28.5,2.5-40.3S230.8,29.9,209.3,38.6z"
			/>
		<path class="st14" d="M290,75.9c0,0,10.3,14.3,7.7,25.4c0,0,13.9,11.1,9.5,42.7l2.1,0c0,0-0.7-12.2,6-9.2c0,0,7.1-39.3-4.3-64.4
			c0,0-5.8-14.8-22.5-21.1C288.4,49.3,294.2,69.9,290,75.9z"/>
		<path class="st14" d="M238.3,111.6h-23.8c0,0-7.5-5.7,1-7.3h22.8c0,0,1.8-0.3,2.4,1.1v5.3C240.6,110.7,240.3,111.9,238.3,111.6z"
			/>
		<path class="st14" d="M269,111.6h21.5c0,0,6.8-5.7-0.9-7.3H269c0,0-1.6-0.3-2.1,1.1v5.3C266.9,110.7,267.1,111.9,269,111.6z"/>
		<path class="st13" d="M255.1,120.6c4.8,15.3,11.3,35.4,11.3,38.4c0,2.9-14.3,6.5-16.9,5.5c-2.6-1,3-43.8,3-43.8H255.1z"/>
		<path class="st5" d="M252.5,119.2c4.8,15.3,11.3,35.4,11.3,38.4c0,2.9-14.3,6.5-16.9,5.5c-2.6-1,3-43.8,3-43.8H252.5z"/>
		<g>
			<path class="st3" d="M267.2,130.5c-0.2-6.4,0.8-14.1,10.6-16.7c9.9-2.6,14.5,6.3,14.3,9.5c-0.1,3.2-2.8,8-8.3,8.7
				c-5.5,0.5-10.3,0.1-12.3,0.3C269.6,132.7,267.3,131.8,267.2,130.5z"/>
			
				<ellipse transform="matrix(0.9988 -4.801653e-02 4.801653e-02 0.9988 -5.5715 13.5247)" class="st15" cx="278.7" cy="122.7" rx="8.1" ry="8.1"/>
			<path class="st3" d="M271.8,119.9c0.1,2,1.8,3.7,3.8,3.6c2-0.1,3.7-1.8,3.6-3.8c-0.1-2-1.8-3.7-3.8-3.6
				C273.3,116,271.7,117.7,271.8,119.9z"/>
			<path class="st3" d="M241.9,131.3c-0.3-6.4-1.6-13.9-11.6-16s-14.1,7.1-13.7,10.4c0.4,3.3,3.3,7.9,8.8,8.1s10.3-0.6,12.3-0.3
				C239.6,133.6,241.9,132.6,241.9,131.3z"/>
			<path class="st15" d="M237.6,123.5c0.1,4.5-3.3,8.3-7.9,8.4c-4.5,0.1-8.3-3.3-8.4-7.9c-0.1-4.5,3.3-8.3,7.9-8.4
				C233.7,115.4,237.4,119,237.6,123.5z"/>
			<path class="st3" d="M230,120.5c0.1,2-1.6,3.8-3.6,3.8c-2,0.1-3.8-1.6-3.8-3.6c-0.1-2,1.6-3.8,3.6-3.8
				C228.2,116.9,229.9,118.5,230,120.5z"/>
		</g>
		<g>
			<path class="st16" d="M274.5,185.7l-39.4-4c0,0,3.2,22.7,17.3,24C269.8,207.4,274.5,185.7,274.5,185.7z"/>
			<path class="st3" d="M268.2,185.9l-3,4.5c0,0-2.9,5.2-11,3.5c-8.2-1.7-14.3-7.6-14.3-7.6l-0.7-3.3L268.2,185.9z"/>
		</g>
	</g>
</g>
<g>
	<g>
		<polygon class="st17" points="372.6,412.5 232.5,403.6 274.8,217.1 414.8,226 		"/>
		<polygon class="st18" points="419.8,233.2 381.4,402.6 377.5,419.7 237.5,410.8 257.2,324 279.7,224.3 		"/>
		<path class="st19" d="M381.4,402.6l-3.9,17.1l-140-8.9l19.7-86.8C268.7,355,300.2,390.6,381.4,402.6z"/>
	</g>
	<g>
		<g>
			<g>
				<g>
					<path class="st5" d="M414.6,321.8c-1.3,2.5-3.4,4.4-5.7,5.6c-2.7,1.3-5.4,2.7-8.1,3.7c-0.3,0.1-0.5,0.2-0.8,0.3
						c-1.3,0.4-2.6,0.8-3.8,1c-0.5,0.1-0.9,0.1-1.4,0.2c-1.6,0.1-3.1,0-4.5-0.5c-2.3-0.8-2.8-4.1-0.8-6.5c2.5-3,5.7-5.3,8.9-6.9
						c2-1,8.8-3.2,13.2-3C414.9,315.7,416.9,317.2,414.6,321.8z"/>
				</g>
				<g>
					<path class="st5" d="M407.4,337.1c-1.3,2.5-3.4,4.4-5.7,5.6c-1.7,0.8-3.5,1.7-5.2,2.5c-0.7,0.3-1.4,0.6-2.1,0.9
						c-1.8,0.7-3.6,1.3-5.4,1.6c-0.4,0.1-0.7,0.1-1.1,0.1c-1.7,0.1-3.3,0-4.8-0.5c-2.3-0.8-2.8-4.1-0.8-6.5c2.4-3,5.6-5.3,8.9-6.9
						c0.7-0.3,2-0.9,3.7-1.4c1.5-0.5,3.3-0.9,5.1-1.3c0.3-0.1,0.7-0.1,1-0.2C405.9,330.3,410.4,331.1,407.4,337.1z"/>
				</g>
				<g>
					<path class="st5" d="M404,351c-1.3,2.5-3.4,4.4-5.7,5.6c-2.2,1-4.4,2.2-6.6,3.1c-0.7,0.3-1.4,0.6-2.1,0.8
						c-1.4,0.5-2.7,0.9-4.1,1.1c-0.8,0.1-1.6,0.2-2.4,0.2c-1.2,0-2.4-0.2-3.4-0.5c-2.3-0.8-2.8-4.1-0.8-6.5c2.4-3,5.6-5.3,8.9-6.9
						c0,0,0.1,0,0.1,0c1.3-0.6,4.3-1.7,7.5-2.4c0.4-0.1,0.8-0.2,1.1-0.2C401.9,344.1,407.2,344.6,404,351z"/>
				</g>
				<g>
					<path class="st5" d="M397.1,365.9c-1.3,2.5-3.4,4.5-5.7,5.6c-0.4,0.2-0.7,0.3-1.1,0.5c-3.8,1.9-7.8,3.8-11.7,4.4
						c-2,0.3-4.1,0.3-5.9-0.4c-2.3-0.8-2.8-4.1-0.8-6.5c2.4-3,5.6-5.3,8.9-6.9c0.5-0.2,1.3-0.6,2.3-0.9c2.1-0.7,4.9-1.6,7.6-1.9
						c0.4-0.1,0.7-0.1,1-0.1C396.3,359.2,399.9,360.3,397.1,365.9z"/>
				</g>
			</g>
		</g>
	</g>
</g>
<g>
	<g>
		<path class="st3" d="M290.3,319.3l-8.5-0.7c-0.4,0-0.5-0.2-0.5-0.6l1.2-15.6c0-0.4,0.2-0.5,0.6-0.5l2.2,0.2c0.4,0,0.5,0.2,0.5,0.6
			l-1,13c0,0.2,0.1,0.3,0.3,0.3l5.5,0.4c0.3,0,0.5,0.2,0.5,0.6l-0.1,1.8C290.9,319.2,290.7,319.4,290.3,319.3z"/>
		<path class="st3" d="M292.8,319l0.9-12.1c0-0.4,0.2-0.5,0.6-0.5l2.2,0.2c0.4,0,0.5,0.2,0.5,0.6l-0.9,12.1c0,0.2-0.1,0.4-0.2,0.4
			c-0.1,0.1-0.2,0.1-0.4,0.1l-2.2-0.2C293,319.5,292.8,319.3,292.8,319z M294,304.1l0.2-2.3c0-0.3,0.2-0.5,0.6-0.5l2.3,0.2
			c0.3,0,0.5,0.2,0.5,0.5l-0.2,2.3c0,0.3-0.2,0.5-0.6,0.5l-2.3-0.2C294.1,304.6,293.9,304.4,294,304.1z"/>
		<path class="st3" d="M307.7,318.3l-0.1,1.8c0,0.2-0.1,0.3-0.1,0.4c-0.1,0.1-0.2,0.1-0.4,0.1l-3.9-0.3c-1.4-0.1-2.4-0.5-3.1-1.3
			c-0.7-0.8-1-1.9-0.9-3.2l0.4-4.8c0.1-1.4,0.6-2.4,1.4-3.1c0.8-0.7,1.9-1,3.2-0.8l3.9,0.3c0.4,0,0.5,0.2,0.5,0.6l-0.1,1.8
			c0,0.2-0.1,0.3-0.1,0.4c-0.1,0.1-0.2,0.1-0.4,0.1l-3.3-0.3c-0.5,0-0.9,0-1.2,0.3c-0.3,0.2-0.4,0.6-0.4,1.2l-0.3,4.5
			c0,0.6,0,1,0.3,1.2c0.2,0.3,0.6,0.4,1.1,0.4l3.3,0.3C307.5,317.8,307.7,318,307.7,318.3z"/>
		<path class="st3" d="M309.9,320.3l0.9-12.1c0-0.4,0.2-0.5,0.6-0.5l2.2,0.2c0.4,0,0.5,0.2,0.5,0.6l-0.9,12.1c0,0.2-0.1,0.4-0.2,0.4
			c-0.1,0.1-0.2,0.1-0.4,0.1l-2.2-0.2C310,320.8,309.8,320.6,309.9,320.3z M311,305.4l0.2-2.3c0-0.3,0.2-0.5,0.6-0.5l2.3,0.2
			c0.3,0,0.5,0.2,0.5,0.5l-0.2,2.3c0,0.3-0.2,0.5-0.6,0.5l-2.3-0.2C311.2,305.9,311,305.7,311,305.4z"/>
		<path class="st3" d="M317.2,310.9l-1-0.1c-0.2,0-0.3-0.1-0.4-0.1s-0.1-0.2-0.1-0.4l0.1-1.8c0-0.4,0.2-0.5,0.6-0.5l1,0.1
			c0.2,0,0.3-0.1,0.3-0.3l0.2-2.5c0-0.4,0.2-0.5,0.6-0.5l2.2,0.2c0.4,0,0.5,0.2,0.5,0.6l-0.2,2.5c0,0.2,0.1,0.3,0.3,0.3l2,0.2
			c0.4,0,0.5,0.2,0.5,0.6l-0.1,1.8c0,0.2-0.1,0.3-0.1,0.4c-0.1,0.1-0.2,0.1-0.4,0.1l-2-0.2c-0.2,0-0.3,0.1-0.3,0.3l-0.4,5.7
			c0,0.5,0.1,0.9,0.3,1.2c0.2,0.3,0.6,0.4,1.2,0.4l1,0.1c0.4,0,0.5,0.2,0.5,0.6l-0.1,1.8c0,0.2-0.1,0.3-0.1,0.4
			c-0.1,0.1-0.2,0.1-0.4,0.1l-1.6-0.1c-1.4-0.1-2.4-0.5-3.1-1.3c-0.7-0.8-1-1.9-0.9-3.2l0.5-5.9C317.5,311.1,317.4,311,317.2,310.9z
			"/>
		<path class="st3" d="M329.9,322.4l-0.6,0c-1.4-0.1-2.4-0.5-3.1-1.3c-0.7-0.8-1-1.9-0.9-3.2l0.4-4.8c0.1-1.4,0.6-2.4,1.4-3.1
			c0.8-0.7,1.9-1,3.2-0.8l6,0.5c0.4,0,0.6,0.2,0.5,0.6l-0.9,12.1c0,0.4-0.2,0.5-0.6,0.5l-2.2-0.2c-0.4,0-0.5-0.2-0.5-0.6l0.1-0.9
			l-0.1,0c-0.2,0.5-0.6,0.8-1.1,1C331,322.3,330.4,322.4,329.9,322.4z M332.9,317.7l0.4-5.3c0-0.2-0.1-0.3-0.3-0.3l-2.4-0.2
			c-0.6,0-1,0-1.2,0.3c-0.2,0.2-0.4,0.6-0.4,1.2l-0.3,4.5c0,0.6,0,1,0.2,1.2s0.6,0.4,1.1,0.4l1,0.1
			C332.2,319.7,332.8,319,332.9,317.7z"/>
		<path class="st3" d="M347.3,321.4l-0.1,1.8c0,0.2-0.1,0.3-0.1,0.4c-0.1,0.1-0.2,0.1-0.4,0.1l-3.9-0.3c-1.4-0.1-2.4-0.5-3.1-1.3
			c-0.7-0.8-1-1.9-0.9-3.2l0.4-4.8c0.1-1.4,0.6-2.4,1.4-3.1c0.8-0.7,1.9-1,3.2-0.8l3.9,0.3c0.4,0,0.5,0.2,0.5,0.6l-0.1,1.8
			c0,0.2-0.1,0.3-0.1,0.4c-0.1,0.1-0.2,0.1-0.4,0.1L344,313c-0.5,0-0.9,0-1.2,0.3c-0.3,0.2-0.4,0.6-0.4,1.2l-0.3,4.5
			c0,0.6,0,1,0.3,1.2c0.2,0.3,0.6,0.4,1.1,0.4l3.3,0.3C347.2,320.8,347.3,321,347.3,321.4z"/>
		<path class="st3" d="M349.5,323.3l0.9-12.1c0-0.4,0.2-0.5,0.6-0.5l2.2,0.2c0.4,0,0.5,0.2,0.5,0.6l-0.9,12.1c0,0.2-0.1,0.4-0.2,0.4
			s-0.2,0.1-0.4,0.1l-2.2-0.2C349.7,323.9,349.5,323.7,349.5,323.3z M350.7,308.4l0.2-2.3c0-0.3,0.2-0.5,0.6-0.5l2.3,0.2
			c0.3,0,0.5,0.2,0.5,0.5l-0.2,2.3c0,0.3-0.2,0.5-0.6,0.5l-2.3-0.2C350.8,308.9,350.6,308.7,350.7,308.4z"/>
		<path class="st3" d="M362.1,324.8l-2.3-0.2c-1.4-0.1-2.4-0.5-3.1-1.3c-0.7-0.8-1-1.9-0.9-3.2l0.4-4.8c0.1-1.4,0.6-2.4,1.4-3.1
			c0.8-0.7,1.9-1,3.2-0.8l2.3,0.2c1.3,0.1,2.4,0.6,3.1,1.3c0.7,0.8,1,1.9,0.9,3.2l-0.4,4.8c-0.1,1.3-0.6,2.4-1.4,3
			C364.5,324.6,363.4,324.9,362.1,324.8z M360.5,321.8l1.3,0.1c0.6,0,1,0,1.2-0.2c0.3-0.2,0.4-0.6,0.4-1.1l0.3-4.6
			c0-0.6,0-1-0.3-1.2s-0.6-0.4-1.2-0.4l-1.3-0.1c-0.6,0-1,0-1.2,0.2c-0.2,0.2-0.4,0.6-0.4,1.1l-0.3,4.6c0,0.6,0,1,0.2,1.2
			S359.9,321.8,360.5,321.8z M363.1,306.6l2.6,0.2c0.2,0,0.3,0.1,0.4,0.2c0,0.1,0,0.2-0.1,0.4l-2.3,2.3c-0.2,0.2-0.5,0.3-0.8,0.3
			l-1.7-0.1c-0.4,0-0.4-0.2-0.2-0.6l1.3-2.2C362.5,306.7,362.8,306.5,363.1,306.6z"/>
		<path class="st3" d="M371.7,325.5l-2.2-0.2c-0.4,0-0.5-0.2-0.5-0.6l0.9-12.1c0-0.4,0.2-0.5,0.6-0.5l2.2,0.2c0.4,0,0.5,0.2,0.5,0.6
			l-0.1,0.9l0.1,0c0.5-0.9,1.3-1.3,2.6-1.2l0.8,0.1c2.7,0.2,4,1.7,3.7,4.5l-0.6,8.5c0,0.4-0.2,0.5-0.6,0.5L377,326
			c-0.4,0-0.5-0.2-0.5-0.6l0.6-8.3c0-0.6,0-1-0.3-1.2c-0.2-0.3-0.6-0.4-1.2-0.4l-0.9-0.1c-1.2-0.1-1.8,0.5-1.9,1.8l-0.6,7.9
			C372.2,325.4,372.1,325.6,371.7,325.5z"/>
	</g>
</g>
</svg>
