<?xml version="1.0" encoding="utf-8"?>
<!-- Generator: Adobe Illustrator 25.0.0, SVG Export Plug-In . SVG Version: 6.00 Build 0)  -->
<svg version="1.1" id="Layer_1" xmlns="http://www.w3.org/2000/svg" xmlns:xlink="http://www.w3.org/1999/xlink" x="0px" y="0px"
	 viewBox="0 0 480 600" style="enable-background:new 0 0 480 600;" xml:space="preserve">
<style type="text/css">
	.st0{fill:#DAE79E;}
	.st1{fill:#AEBA82;}
	.st2{opacity:0.5;}
	.st3{opacity:0.2;}
	.st4{opacity:0.1;}
	.st5{fill-rule:evenodd;clip-rule:evenodd;fill:#FFFFFF;}
	.st6{fill:#419B19;}
	.st7{fill:#3A7F1C;}
	.st8{fill:#8BCB0A;}
	.st9{fill:#FFFFFF;}
	.st10{fill:#005869;}
	.st11{fill:#BB7348;}
	.st12{fill:#D8D4DE;}
	.st13{fill:#3B3B3B;}
	.st14{opacity:0.2;fill:#3B3B3B;enable-background:new    ;}
	.st15{opacity:0.2;fill:#4D0B00;enable-background:new    ;}
	.st16{fill:#E9E4EF;}
	.st17{fill:#48270F;}
	.st18{fill:#3B2314;}
	.st19{fill:#FFB781;}
	.st20{fill:#234661;}
	.st21{clip-path:url(#SVGID_2_);}
	.st22{fill:#16434B;}
	.st23{clip-path:url(#SVGID_4_);}
	.st24{clip-path:url(#SVGID_6_);}
	.st25{clip-path:url(#SVGID_9_);}
	.st26{clip-path:url(#SVGID_11_);}
	.st27{clip-path:url(#SVGID_13_);}
	.st28{fill:#285061;}
	.st29{clip-path:url(#SVGID_15_);}
	.st30{fill:#184155;}
	.st31{clip-path:url(#SVGID_17_);}
	.st32{fill:#F4A280;}
	.st33{clip-path:url(#SVGID_19_);}
	.st34{fill:#D37154;}
	.st35{clip-path:url(#SVGID_21_);}
	.st36{fill:#EAEEF1;}
	.st37{clip-path:url(#SVGID_23_);}
	.st38{clip-path:url(#SVGID_25_);}
	.st39{fill:#274E61;}
	.st40{clip-path:url(#SVGID_27_);}
	.st41{clip-path:url(#SVGID_29_);}
	.st42{fill:#3A606F;}
	.st43{clip-path:url(#SVGID_31_);}
	.st44{clip-path:url(#SVGID_33_);}
	.st45{clip-path:url(#SVGID_35_);}
	.st46{clip-path:url(#SVGID_37_);}
	.st47{clip-path:url(#SVGID_39_);}
	.st48{clip-path:url(#SVGID_41_);}
	.st49{clip-path:url(#SVGID_43_);}
	.st50{fill:#DB5247;}
	.st51{fill:#A73832;}
	.st52{fill:#9E422A;}
	.st53{fill:#3C2F28;}
	.st54{fill:#473A3A;}
	.st55{fill:#32251C;}
	.st56{fill:#9CBEE0;}
	.st57{clip-path:url(#SVGID_45_);}
	.st58{clip-path:url(#SVGID_47_);}
	.st59{clip-path:url(#SVGID_49_);}
	.st60{clip-path:url(#SVGID_51_);}
	.st61{clip-path:url(#SVGID_53_);fill:#184155;}
	.st62{fill:#E97B59;}
	.st63{fill:#772A1C;}
	.st64{fill:#39170B;}
</style>
<g transform="matrix(-1.05e-05,240.621,240.621,1.05e-05,404.965,-15.8972)">
	<path class="st0" d="M0-1.7h2.7v2.1H0L0-1.7z"/>
</g>
<g>
	<g>
		<path class="st1" d="M372.1,597.9v3.5h3V598c19.8,0.2,39.5,0.3,59,0.3c31.3,0.1,63.2,0.3,95.2,0.8c0,0.2,0,0.4,0,0.6h3
			c0-0.2,0-0.4,0-0.5c8.8,0.2,17.6,0.3,26.4,0.6c-0.1,0.6-0.1,1.2-0.2,1.7h3c0.1-0.6,0.1-1.1,0.2-1.7c7,0.2,14,0.4,21.1,0.7v-1.7
			c-16.8-0.6-33.6-1-50.4-1.3c0.1-4.4,0.4-8.9,0.7-13.3c0.4-5.2,0.8-10.5,0.8-15.7c0-1.3,0-2.5-0.1-3.8c15.9,0.2,32.2,0.5,48.9,0.8
			v-1.7c-9.8-0.2-19.4-0.3-28.9-0.5c0.4-6.3,0.5-12.9,0.5-19.2c10.1,0,19.5,0.1,28.5,0.2v-1.7c-15.8-0.2-33-0.3-52.7-0.3
			c-6.7,0-13.5,0-20.2,0c-0.1-2.6-0.2-5.1-0.2-7.7c0-9.9,0.7-19.3,2.1-28.2c23.6,0.5,47.3,1.1,71,1.8v-1.7c-9-0.3-17.9-0.5-26.9-0.8
			c0.2-3.7,0.3-7.4,0.5-11c0.4-7.9,0.9-16.2,0.9-24.3c8.9,0.2,17.3,0.4,25.5,0.6v-1.7c-17.4-0.5-36-0.8-57-0.9
			c-0.4-9.3-0.4-18.3-0.4-27.8h-3c0,9.5,0,18.5,0.4,27.8c-4.4,0-8.9,0-13.5,0c-19.8,0-39.9,0.1-59.4,0.3c-7.7,0.1-15.5,0.1-23.4,0.2
			l-0.2-1.6c-1.4-11.9-2.8-23.1-3.7-34.7c14.1,1,28.4,2.2,43,3.4c38.5,3.2,78.2,6.5,117.1,6.5v-1.7c-3.7,0-7.4,0-11.1-0.1
			c-0.2-3.1-0.4-6.1-0.6-9.2c-0.4-6.8-0.9-13.8-0.9-20.6c4.2,0.2,8.3,0.4,12.5,0.6v-1.7c-9.4-0.4-18.9-0.9-28.3-1.3
			c-20.4-0.9-40.9-1.9-61.5-2.8c0.1-4.9,0.7-9.8,1.3-14.6c0.5-4,1-8.2,1.2-12.3c17.6,0.4,35.2,0.7,52.6,1.2
			c11.6,0.3,23.2,0.6,34.8,0.9v-1.7c-11.5-0.3-23.1-0.6-34.6-0.9c-39.2-1-79-1.7-118.9-2.6c0.2-3.5,0.6-7.1,1-10.5
			c0.6-5.5,1.3-11.1,1.3-16.8h-3c0,5.6-0.7,11.2-1.3,16.6c-0.4,3.5-0.8,7-1,10.6c-25.8-0.6-51.7-1.4-77.5-2.5
			c-0.5-9-0.9-17.5-0.9-26.3c10.7,0.3,21.3,0.5,31.9,0.7c0,0,0,0,0,0.1h2.2c20.5,0.4,40.9,0.6,61.2,0.6c29,0,58.3-0.4,87.6-1.1
			l1.2,0.1c0,0,0-0.1,0-0.2c12.5-0.3,24.9-0.7,37.4-1.1c0,1,0.1,2.1,0.1,3.1c0,4.3-0.3,8.7-0.6,12.9c-0.3,4.3-0.6,8.7-0.6,13
			c0,1.3,0,2.5,0.1,3.8h3c-0.1-1.2-0.1-2.5-0.1-3.7c0-4.3,0.3-8.7,0.6-12.9c0.3-4.3,0.6-8.7,0.6-13c0-1.1,0-2.2-0.1-3.3
			c3.5-0.1,7-0.3,10.5-0.4v-1.7c-16.8,0.7-33.6,1.2-50.5,1.6c1.2-4.7,2-9.5,2.8-14.1c0.9-5.3,1.7-10.7,3.2-15.9l-3-0.3
			c-1.5,5.3-2.4,10.7-3.3,16c-0.8,4.7-1.6,9.6-2.8,14.4c-23.3,0.6-46.5,0.9-69.6,1c0.9-11.1,1.4-22.2,1.4-33.3
			c40.2,0.9,81.2,1.9,121.8,3.1V314c-3.5-0.1-7-0.2-10.5-0.3c0-9.4,0.8-17.5,1.6-26.9l0.3-3.7l-3-0.1l-0.3,3.7
			c-0.9,9.4-1.6,17.5-1.6,26.9c-24.8-0.7-49.6-1.4-74.3-1.9c0.5-4.9,0.8-9.9,1.2-14.8c0.4-5.3,0.7-10.6,1.2-15.8h-0.9
			c28.7,0.5,57.6,1.2,86.3,2.2v-1.7c-12.8-0.4-25.6-0.8-38.5-1.1c0-1.1-0.1-2.2-0.1-3.3c0-3,0.2-6.2,0.3-9.2c0.2-3,0.3-6.1,0.3-9.1
			h-3c0,3-0.2,6.1-0.3,9.1c-0.2,3-0.3,6.2-0.3,9.3c0,1.1,0.1,2.1,0.1,3.2c-33.1-0.8-66.2-1.3-98.8-1.8c0-0.2,0-0.3,0-0.5
			c0-4.6,0.8-9.4,1.6-14c0.4-2.1,0.7-4.2,1-6.2c24,0.6,48.4,1.1,72.6,1.1c23.6,0,45.2-0.5,65.2-1.5v-1.7c-7.5,0.4-15.3,0.7-23.3,0.9
			c0.8-4.9,1.1-9.9,1.5-14.8c0.2-3.3,0.5-6.6,0.8-9.9c7,0.2,14,0.4,21.1,0.7v-1.7c-16.8-0.6-33.6-1-50.4-1.3
			c0.1-4.4,0.4-8.9,0.7-13.3c0.4-5.2,0.8-10.5,0.8-15.7c0-1.3,0-2.5-0.1-3.8c15.9,0.2,32.2,0.5,48.9,0.8v-1.7
			c-9.8-0.2-19.4-0.3-28.9-0.5c0.4-6.3,0.5-12.9,0.5-19.2c10.1,0,19.5,0.1,28.5,0.2v-1.7c-15.8-0.2-33-0.3-52.7-0.3
			c-6.7,0-13.5,0-20.2,0c-0.1-2.6-0.2-5.1-0.2-7.7c0-9.9,0.7-19.3,2.1-28.2c23.6,0.5,47.3,1.1,71,1.8v-1.7c-9-0.3-17.9-0.5-26.9-0.8
			c0.2-3.7,0.3-7.4,0.5-11c0.4-7.9,0.9-16.2,0.9-24.3c8.9,0.2,17.3,0.4,25.5,0.6v-1.7c-17.4-0.5-36-0.8-57-0.9
			c-0.4-9.3-0.4-18.3-0.4-27.8h-3c0,9.5,0,18.5,0.4,27.8c-4.4,0-8.9,0-13.5,0c-19.8,0-39.9,0.1-59.4,0.3c-7.7,0.1-15.5,0.1-23.4,0.2
			l-0.2-1.6c-1.4-11.9-2.8-23.1-3.7-34.7c14.1,1,28.4,2.2,43,3.4c38.5,3.2,78.2,6.5,117.1,6.5v-1.7c-3.7,0-7.4-0.1-11.1-0.1
			c-0.2-3.1-0.4-6.1-0.6-9.2c-0.4-6.8-0.9-13.8-0.9-20.6c4.2,0.2,8.3,0.4,12.5,0.6v-1.7c-9.4-0.4-18.9-0.9-28.3-1.3
			c-20.4-0.9-40.9-1.9-61.5-2.8c0.1-4.9,0.7-9.8,1.3-14.6c0.5-4,1-8.2,1.2-12.3l-3-0.1c-0.2,4.1-0.7,8.2-1.2,12.3
			c-0.6,4.8-1.1,9.7-1.3,14.6c-32.8-1.5-65.9-2.8-99.1-3.9c1.4-8.6,2.8-17.5,3.7-26.3c51.4,2,102.9,3.4,153.3,4.6
			c11.6,0.3,23.2,0.6,34.8,0.9v-1.7c-11.5-0.3-23.1-0.6-34.6-0.9c-10.1-0.3-20.3-0.5-30.6-0.8c0.7-4.8,1-9.5,1.3-14.1
			c0.3-5,0.6-10,1.4-15.2h-3c-0.8,5.1-1.1,10.2-1.4,15.1c-0.3,4.6-0.6,9.3-1.3,14.1C467,7.8,418.8,6.4,370.7,4.2
			c0.3-2.9,0.7-5.8,1.1-8.7c0.7-5.2,1.4-10.5,1.7-15.7h-3c-0.3,5.1-1,10.4-1.7,15.5c-0.4,2.9-0.8,5.8-1.1,8.7
			c-7.3-0.3-43.2-0.7-81-1c0.7-5.9,1-10.8,1-15.4c0-2.7-0.1-5.3-0.4-7.8h-2.8c0.2,2.5,0.4,5.1,0.4,7.8c0,4.6-0.3,9.4-1,15.4
			c-27.5-0.3-55.6-0.5-74.5-0.8c-0.9,0-4.2,0-9.2,0c-0.8-5-1.2-9.9-1.5-14.7c-0.2-2.5-0.4-5.1-0.6-7.6h-2.8c0.3,2.6,0.5,5.2,0.6,7.7
			c0.3,4.7,0.7,9.6,1.5,14.6C178.7,2.1,141.1,2,98.6,2c0.4-7.3,0.7-14.8,0.8-22.1h-2.8c-0.1,7.4-0.5,14.8-0.8,22L97.7,2
			C67.9,2,35.7,1.9,6,1.9C5.8-1.4,5.7-4.7,5.7-8c0-4-0.2-8.1-0.5-12.2H2.4C2.7-16,2.8-11.9,2.9-7.9c0,3.2,0.1,6.5,0.3,9.8
			c-4.5,0-8.9,0-13.2,0c0.2-3.7,0.7-7.6,1.2-11.5c0.4-3.5,0.8-7.1,1.1-10.6h-2.8c-0.3,3.4-0.6,6.9-1.1,10.3C-12.1-6-12.5-2-12.8,1.8
			c-19.8,0-37.8,0-52.5-0.1c0-0.2,0-0.4,0-0.6L-68.1,1c0,0.2,0,0.4,0,0.6c-13.9,0-24.4,0-30.1-0.1v1.8c5.7,0,16.2,0.1,30.1,0.1
			c-0.3,6-0.6,12.6-0.6,19.1c0,3,0.1,5.9,0.2,8.8c-13.7,0-24,0-29.7,0V33c11.2,0,40.8,0,77.5,0c0.3,3.8,0.4,7.7,0.4,11.4
			c0.1,5.2,0.1,10.5,0.9,15.9c-37.3,0-67.5,0.1-78.8,0.1v1.7c5.5,0,15.5,0,28.7,0c0,0.5,0,1.1,0,1.6c0,9.2,1.5,18.3,2.9,27.2
			c0.5,2.9,0.9,5.9,1.4,8.9c-15.3,0-26.9-0.1-33-0.1v1.7c4.1,0,10.7,0,19.4,0c0.2,3.9,0.7,7.9,1.1,11.7c0.6,5.2,1.2,10.5,1.2,15.7
			c0,0.8,0,1.7-0.1,2.5c-9.7,0-17.2,0-21.7-0.1v1.8c7,0.1,20.9,0.1,39.6,0.1c-0.4,12.7-0.9,25.8-2.3,39.1c-17.4,0-30.6-0.1-37.3-0.1
			v1.8c8.9,0.1,29,0.1,55.3,0.2c0,0.6,0,1.1,0,1.7c0,1.9-0.1,3.8-0.1,5.7c-0.1,1.9-0.1,3.9-0.1,5.8c0,3.1,0.2,5.6,0.6,8
			c-26.4,0-46.8,0-55.7,0v1.7c5.9,0,16.9,0,31.3-0.1c0.5,5.1,1.6,10,2.7,14.8c1.1,4.9,2.3,10,2.8,15.2c-17.1,0-30.1,0-36.7,0v1.8
			c5.3,0,14.6,0,26.8,0c-0.1,1-0.3,2.1-0.3,3.2c0,4.6,1.1,9.3,2.1,13.8c0.6,2.4,1.1,4.8,1.5,7.1l2.8-0.3c-0.4-2.4-1-4.9-1.5-7.3
			c-1-4.4-2.1-8.9-2.1-13.3c0-1.1,0.1-2.2,0.3-3.2c13.6,0,30.4,0,49,0c0.8,4.1,1.4,8.2,1.9,12.2s1.1,8.2,1.9,12.4
			c-9.8,0-19.1,0-27.7,0l0,0h-0.2c-25.9,0-45.8,0-54.6,0v1.7c8.4,0,27.5,0,52.2,0c0.7,3.4,0.8,6.7,0.8,9.6v3.7c0,2.3,0,4.9,0.4,7.5
			c-25.3,0-44.8,0-53.3,0v1.7c13,0,50.7,0,95.8,0c-0.2,2.8-0.4,5.6-0.6,8.4c-0.4,5.3-0.8,10.8-0.8,16.2c0,1.4,0,2.8,0.1,4.2l2.8-0.1
			c-0.1-1.4-0.1-2.8-0.1-4.1c0-5.3,0.4-10.8,0.8-16.1c0.2-2.9,0.4-5.8,0.6-8.6c20.8,0,43.1,0,65.2,0c-0.3,4-0.4,8.3-0.4,13.7
			c0,2.6,0,5.2,0.1,7.8c0,2.6,0.1,5.2,0.1,7.8h2.8c0-2.6,0-5.2-0.1-7.8c0-2.6-0.1-5.2-0.1-7.8c0-5.5,0.1-9.8,0.5-13.7
			c27.4,0,54.4,0,77.6,0c0,1-0.1,2-0.1,3c0,2.9,0.1,5.7,0.2,8.5c0.1,2.8,0.2,5.6,0.2,8.4c0,3.6-0.2,6.6-0.5,9.5
			c-97.7-0.1-218.6-0.2-244-0.2v1.8c6.8,0.1,19.9,0.1,37.3,0.2v6.4c0,9.3-0.1,18.9,0.3,28.2c-17.6,0-30.9-0.1-37.6-0.1v1.7
			c9.9,0,34.4,0,66,0.1c1.1,4.1,1.3,8,1.3,11.1c0,1.9-0.1,3.9-0.1,5.8c-0.1,1.9-0.1,3.9-0.1,5.8c0,1.1,0,2.1,0.1,3.1
			c-32,0-57-0.1-67-0.1v1.8c3.9,0,10.1,0.1,18.1,0.1c0.9,3.9,1.3,7.9,1.7,11.8c0.4,4.7,0.9,9.7,2.3,14.5c-9.9,0-17.5,0-22.1,0v1.7
			c9,0,29.8,0,56.9,0.1c0.5,3,0.9,6,1.3,9c0.7,6,1.5,12.1,3.6,18.2c-29.5,0-52.3,0.1-61.8,0.1v1.7c11,0,39.8-0.1,76.4-0.1
			c-0.9,12.4-0.9,25.2-0.9,37.5h2.8c0-12.4,0-25.1,0.9-37.5c17.1,0,35.7,0,54.9-0.1c0,1.8-0.1,3.6-0.1,5.4c0,9.5,0.6,19.6,2,32.6
			c-62.6-0.1-119.4-0.1-136.1-0.2v1.7c5.7,0,16.3,0,30.2,0.1c0,0.8,0.1,1.6,0.1,2.5c0,3.4-0.2,6.9-0.4,10.2
			c-0.2,3.4-0.4,6.8-0.4,10.3c0,2.4,0.1,4.6,0.3,6.6l2.8-0.2c-0.2-2-0.3-4.1-0.3-6.4c0-3.4,0.2-6.9,0.4-10.2
			c0.2-3.4,0.4-6.9,0.4-10.4c0-0.8,0-1.6-0.1-2.5c16.9,0,38.2,0,61.9,0.1c-0.1,1.9-0.1,3.7-0.1,5.6c0,4.3,0.2,8.6,0.3,12.9
			c0.1,3.8,0.2,7.6,0.3,11.5c-45.4-0.1-82.5-0.1-95.4-0.2v1.8c4.5,0.1,11.6,0.1,20.9,0.1c0.5,3.3,1,6.7,1.5,10
			c1.3,9.6,2.6,19.6,6.6,29.1c-13.3,0-23.4-0.1-29-0.1v1.8c7.1,0.1,21.3,0.1,40,0.2c-0.2,2.4-0.4,4.8-0.4,7.4
			c0,4.1,0.3,8.6,0.9,13.7c-17.7,0-32.3,0-40.5,0v1.7c11.6,0,35.9-0.1,65.1-0.1c-0.1,3.1-0.3,6.2-0.5,9.3c-0.3,3.6-0.5,7.3-0.5,11
			c0,3.6,0.3,6.9,0.9,9.9c-29.3,0-53.5,0-65,0v1.8c47.3,0.1,314,0.2,336.4,0.3C288.8,597.7,360.6,597.8,372.1,597.9z M413.5,580.6
			c-0.5,5.2-0.9,10.3-1.4,15.8c-24.9-0.1-50.2-0.3-75.4-0.8c-0.5-5.2-1-10.1-1.5-15c-0.5-5-1-9.9-1.5-15.3l-3,0.1
			c0.5,5.4,1,10.4,1.5,15.3c0.5,4.8,1,9.6,1.5,14.8c-2.2,0-37.9-0.1-73.4-0.1c0.2-2.6,0.4-5.3,0.6-7.9c0.5-7.5,1-15.3,2.8-22.8
			c58.5-0.3,130.9-0.5,151.3-0.6C414.5,569.9,414,575.3,413.5,580.6z M182.7,563.5L182.7,563.5c-27.5,0-61.7,0.1-96.9,0.1
			c0.1-1.1,0.1-2.2,0.1-3.3c0-2.1-0.1-4.3-0.2-6.4c-0.1-2.1-0.2-4.2-0.2-6.3c0-1.7,0.1-3.3,0.3-4.7c22.6,0,44.8,0.1,65.2,0.1
			c-0.3,3.1-0.5,6.2-0.6,9.3c-0.1,3.5-0.2,7.1-0.7,10.7l2.8,0.3c0.5-3.6,0.6-7.3,0.7-10.9c0.1-3.1,0.2-6.2,0.6-9.3
			c23.1,0,43.8,0.1,59.6,0.1c-0.1,6.3-0.4,12.6-0.8,18.8l-0.1,1.5c-7.8,0-16.9,0-26.9,0l0,0L182.7,563.5L182.7,563.5z M56.2,502.1
			c23,0.1,46.4,0.1,68.5,0.2c0.3,2.1,0.5,4.2,0.5,6.4c0,6-1.1,12.2-2.2,18.1c-0.9,4.6-1.7,9.5-2.1,14.3c-19,0-38.9-0.1-58.6-0.1
			c0-0.3,0.1-0.7,0.1-1C62.3,539.5,57.7,517.5,56.2,502.1z M63.1,468.2c-8.3,0-16.6,0-24.9,0l2.2-0.2c-1.4-12.9-2-22.9-2-32.4
			c0-1.8,0-3.6,0.1-5.5c22.2,0,45.1,0,67.2-0.1c0.1,3.7,0.2,7.4,0.2,11.1c0.1,8.9,0.2,18,1.4,27c-13.6,0-27.5,0-41.4,0
			c0,0,0,0,0-0.1L63.1,468.2L63.1,468.2z M-5.5,395.6c0-3.9,0.3-7.9,0.5-11.7c0.2-3.4,0.4-7,0.5-10.5c24.3,0,50.9,0.1,77.2,0.1
			c0.5,3.8,0.6,7.5,0.6,11.3v2.5c0,4.1,0.1,8.2,0.7,12.4c-28,0-56.3,0-81.8-0.1l2.4-0.1C-5.5,398.2-5.5,396.9-5.5,395.6z
			 M46.6,418.2c0.5-3.6,1-7.3,1-11.1c0-2.1-0.2-3.9-0.5-5.8c23.4,0,47.4,0,70,0c0.5,3.6,0.8,7.5,0.8,11.9c0,3.7-0.3,8.5-0.5,12.7
			l-0.1,2.4c-23.2,0-47.7,0-71.6,0.1C45.7,425.1,46.1,421.7,46.6,418.2z M76.1,387.3v-2.5c0-3.8-0.1-7.5-0.6-11.3
			c29.3,0.1,57.9,0.1,82.1,0.2c0,8.5,0,17.3-0.5,25.9l2.8,0.1c0.4-8.6,0.5-17.4,0.5-26c34.3,0.1,59.3,0.1,63.8,0.2
			c1.8,0,3.7,0.1,5.7,0.1c0,0,0,0,0,0.1h0.3c0.3,2.2,0.7,8.3,0.7,12c0,4.2-0.2,9.8-0.4,13.9c-6,0-15.2,0-27-0.1l0,0h-0.3
			c-31.2,0-79.6-0.1-128.8-0.1l2.4-0.3C76.2,395.3,76.1,391.3,76.1,387.3z M141.2,345.7c26.4,0,49.4,0,65.3,0
			c0.3,3.9,0.4,7.8,0.4,11.4v7.1c0,2.5,0,5,0.2,7.5c-15.4,0-39.3-0.1-67.2-0.1c0.2-2.9,0.4-5.7,0.6-8.6c0.4-4.8,0.8-9.7,0.8-14.6
			C141.2,347.5,141.2,346.6,141.2,345.7z M148.8,289.7c-0.1-2.8-0.2-5.6-0.2-8.4c0-1,0-2,0.1-3c27.8,0,49.9,0,60.5,0
			c0,3.8-0.1,7.5-0.3,11.3c-0.2,4.2-0.3,8.3-0.3,12.5c0,1.9,0,3.8,0.1,5.6c-18,0-38.5,0-60.2-0.1c0.3-2.9,0.5-5.9,0.5-9.5
			C149,295.3,148.9,292.5,148.8,289.7z M147,227.4c-22.3,0-48.7,0-75.8,0v-30.2c28.1,0,55.8,0,79.6-0.1c-1.4,4.9-1.6,9.9-1.9,14.8
			c-0.2,5.1-0.5,10.4-2.1,15.5H147z M-40.5,187.6c0-1.9,0.1-3.8,0.1-5.7c0.1-1.9,0.1-3.8,0.1-5.7c0-0.6,0-1.1,0-1.7
			c17.1,0,36.6,0.1,57.1,0.1c0,1-0.1,2-0.1,3c0,3,0.1,5.9,0.3,8.9c0.1,2.9,0.3,5.9,0.3,8.9h2.8c0-3.1-0.2-6.1-0.3-9
			c-0.1-2.9-0.3-5.8-0.3-8.8c0-1,0-2,0.1-3c23.4,0,48.1,0.1,71.8,0.1c-0.1,3.8-0.5,7.8-1,11.7c-0.4,3-0.8,6.1-1,9.1l2,0.1
			c-45.4,0-94.1,0-131.4,0.1h0.1C-40.3,193.3-40.5,190.8-40.5,187.6z M43.8,131.8c-26.2,0-51.6-0.1-73.8-0.1
			c-0.6-4.7-1.5-9.3-2.4-13.8c-1-5.3-2-10.7-2.6-16.2c23.8,0,51.8,0,80.5,0.1c-0.1,1.4-0.3,3.5-0.4,7.1
			C44.8,116.8,44.2,128.7,43.8,131.8L43.8,131.8z M-5.8,100.1L-4,100c-0.2-3-0.3-6.2-0.3-9.8c0-4.9,0.2-9.9,0.4-14.8
			c0.2-4.3,0.3-8.8,0.4-13.2c20.5,0,42.5,0,64.3,0c-0.2,5.5-0.3,10.6-0.3,15.3c0,7.9,0.3,15.3,0.8,22.6c-4.3,0-8.7,0-13,0
			c-0.2-0.3-0.5-0.6-1.2-0.6c-0.6-0.1-0.9,0-1.2,0.6C28.1,100.2,10.6,100.1-5.8,100.1z M135,62.2c0,12.3,0,25.1,1.4,38l2.8-0.2
			c-1.4-12.8-1.4-25.5-1.4-37.8c39.3,0,68.5-0.1,71.8-0.1c9.6-0.1,21.7-0.1,34.7-0.2c-1.2,7.4-1.6,15-2,22.3
			c-0.3,5.3-0.5,10.7-1.1,16.1l0.7,0.1c-2.4,0-4.8,0-7.1,0c-10.8-0.1-91.2-0.1-170.9-0.2c-0.5-7.3-0.8-14.7-0.8-22.6
			c0-4.7,0.1-9.8,0.3-15.3C88.6,62.2,113.2,62.2,135,62.2z M84.9,60.5c0-7.2,0.8-14.7,1.6-22c0.2-1.7,0.4-3.5,0.5-5.2
			c48.1,0,91.6,0,110.7,0c-0.2,2.8-0.3,5.7-0.5,8.5c-0.4,6.1-0.8,12.4-0.9,18.6C174.7,60.4,131.7,60.4,84.9,60.5z M289.6,33.6
			c33.5,0.1,63.7,0.3,69.1,0.4c0.6,5.2,0.6,10.5,0.7,15.5c0,3.4,0.1,6.8,0.3,10.3c-1.5,0-3.1,0-4.6,0c-5,0-34.5,0.1-67.3,0.2
			c0.2-3.2,0.5-6.5,0.9-9.6c0.5-4.8,1-9.8,1-14.6C289.6,35,289.6,34.3,289.6,33.6z M334.3,61.6c-0.5,6.5-1.4,12.9-2.2,19.2
			c-0.9,6.5-1.8,13.2-2.3,19.9c-27.2-0.1-58.8-0.1-85.6-0.3c0.6-5.4,0.8-10.8,1.1-16.1c0.4-7.4,0.8-15.1,2-22.5
			C277.5,61.8,312.4,61.7,334.3,61.6z M359.5,133c-6.8-0.2-50.5-0.5-92.2-0.7c0.2-4.4,0.7-8.9,1.1-13.2c0.6-5.5,1.1-11.3,1.2-17
			c40.8,0.1,82.8,0.2,89,0.3c0.4,2.8,0.6,5.9,0.6,9.6c0,2,0,4-0.1,6c0,2-0.1,4-0.1,6C359,127.5,359.2,130.4,359.5,133z M396.6,155.3
			c0.5,6.2,1,12.4,1.5,18.9c-9.8-0.1-39.9-0.2-74.4-0.4c0.6-4.5,1.2-9.1,1.8-13.6c1.1-8.4,2.2-17.1,3.6-25.6
			c24.1,0.5,46.7,0.9,67.4,1.3h-1.3C395.6,142.7,396.1,149,396.6,155.3z M506.8,174.2c-7.8,0-15.7,0-23.5,0.1
			c-15.6,0.1-31.2,0.1-46.8,0.1c-11.6,0-23.5,0-35.4-0.1c-0.5-6.6-1-12.8-1.5-19c-0.5-6.3-1-12.6-1.5-19.3c30,0.6,55.8,1.1,75.5,1.5
			c11.6,0.2,23.4,0.5,35.1,0.7c-1.4,8.9-2.1,18.4-2.1,28.3C506.6,169.1,506.7,171.7,506.8,174.2z M436.5,176.1c5.6,0,11.3,0,16.9,0
			c-0.1,1.8-0.2,3.8-0.2,6s0.1,4.5,0.1,6.7c0,1.9,0.1,3.7,0.1,5.6c-2.9,0-5.8,0-8.7,0c-32,0-62.6,0.2-92.6,0.7
			c-0.2-3.1-0.3-6.1-0.3-9.2c0-3.3,0.1-6.6,0.4-9.9C389.8,176.1,422.6,176.1,436.5,176.1z M530.8,196.6c0.1,1.3,0.1,2.5,0.1,3.8
			c0,5.2-0.4,10.5-0.8,15.6c-0.3,4.4-0.6,8.9-0.7,13.3c-32-0.6-63.9-0.7-95.2-0.8c-6.3,0-12.6,0-19-0.1c0.5-5.5,0.9-10.6,1.4-15.8
			c0.5-5.4,1-10.8,1.5-16.6c8.8,0,17.7-0.1,26.7-0.1C472.5,196.1,501.1,196.3,530.8,196.6z M439.4,278.4c-0.9,0-1.9,0-2.8,0
			c0.5-6.8,1.1-13.8,3.3-20.4l-2.9-0.3c-2.3,6.7-2.9,13.8-3.4,20.7c-2,0-4-0.1-5.9-0.1c-28.1-0.4-56.8-0.8-85.4-1.4
			c0.1-1.7,0.2-3.3,0.2-5c0.2-5.4,0.3-10.9,1.7-16.2c26.7,0.2,53.8,0.9,80,1.6c5.9,0.2,11.8,0.3,17.8,0.5c-0.3,2-0.6,4.1-1,6.1
			c-0.8,4.7-1.6,9.5-1.6,14.2C439.4,278.1,439.4,278.2,439.4,278.4z M346.6,308.1c-3-0.1-21.4-0.2-44.8-0.2v-29.4
			c23.4,0.1,41.9,0.1,44.8,0.2c-0.3,5.3-0.4,10.4-0.4,15.5C346.3,298.8,346.4,303.4,346.6,308.1z M279.6,276.6c0-0.3,0-0.6,0-0.8
			c0-2.9,0.4-5.9,0.8-8.9s0.8-6.1,0.8-9.2c0-0.7-0.1-1.5-0.1-2.2c26.5,0,48.7,0,50.1,0c3.3,0,6.7,0,10,0.1
			c-1.4,5.4-1.5,10.9-1.7,16.2c0,1.7-0.1,3.3-0.2,5C336.6,276.7,309.9,276.7,279.6,276.6z M299,278.5v29.4c-8.4,0-17.4-0.1-26.5-0.1
			c-8.5,0-31-0.1-61-0.1c-0.1-1.9-0.1-3.8-0.1-5.6c0-4.1,0.2-8.3,0.3-12.4c0.1-3.8,0.3-7.6,0.3-11.4c1.7,0,2.9,0,3.6,0
			C238.5,278.3,271.7,278.4,299,278.5z M372.1,254.2c-13.7-0.3-27.4-0.4-41-0.4c-1.1,0-13.8,0-31.3,0c2.8-8,3.8-16.3,4.2-24.1
			c32.7,0.1,61.2,0.2,68.1,0.2L372.1,254.2L372.1,254.2z M236.1,195.4c-4.3,0-8.4,0-12.3,0c-4.3,0-23.6,0-50.9,0
			c1.7-6.9,2.6-13.9,3.5-20.7c26.2,0.1,44.4,0.1,48,0.2c9.6,0.1,20.4,0.3,31.8,0.4c0.2,1.6,0.4,3.2,0.4,5.1c0,2.7-0.3,5.5-0.5,8.2
			c-0.2,2.2-0.4,4.5-0.4,6.8c-5.7,0-11.2,0-16.6,0v-0.1L236.1,195.4L236.1,195.4z M111.7,115.2c-0.1-2.5-0.2-5.1-0.2-7.6
			c0-2.1,0.1-4,0.2-5.7c23.9,0,46.5,0,65.6,0c-0.3,2.5-0.4,5.3-0.4,8.5c0,2,0,4,0.1,6c0,2,0.1,4,0.1,6c0,2.7-0.2,6.9-0.4,8.8h-0.2
			c0,0.4,0,0.6,0,0.8c-19,0-41.5,0-65.2-0.1c0.4-2.7,0.5-5.6,0.5-9C111.9,120.3,111.8,117.8,111.7,115.2z M225.9,133.8
			c-1.4,7.3-1.8,14.9-2.1,22.2c-0.3,5.6-0.6,11.4-1.3,17.2c-6.3,0-23.9-0.1-48.1-0.1l-0.7-0.1v0.1c-10.6,0-22.4,0-35-0.1
			c0-3.5,0-7,0.1-10.4c0-3.5,0.1-6.9,0.1-10.4c0-6.1-0.1-11.7-0.5-18.4C170.3,133.7,200.6,133.8,225.9,133.8z M179.9,116.4
			c0-2-0.1-4-0.1-6c0-3.3,0.2-6,0.4-8.5c28.3,0,48.7,0,54,0.1c10.2,0,21.3,0.1,32.6,0.1c-0.1,5.7-0.6,11.3-1.2,16.8
			c-0.4,4.4-0.9,8.9-1.1,13.4c-11-0.1-21.8-0.1-31.7-0.2c-5.2,0-25.3-0.1-53.3-0.1c0.3-1.4,0.4-4.2,0.4-9.6
			C180,120.4,179.9,118.4,179.9,116.4z M349.1,195.1c-5.2,0.1-49.7,0.2-90.7,0.3c0.1-2.2,0.2-4.4,0.4-6.6c0.2-2.7,0.5-5.5,0.5-8.3
			c0-1.8-0.1-3.5-0.4-5.1c28.4,0.3,60.6,0.4,90.2,0.5c-0.2,3.3-0.4,6.6-0.4,9.9C348.8,188.9,348.9,192,349.1,195.1z M320.8,173.8
			c-32.5-0.2-68.6-0.4-95.4-0.7c0.7-5.7,1-11.5,1.3-17.1c0.4-7.4,0.8-14.9,2.2-22.3c35.4,0,60.4,0.1,65,0.2
			c11,0.2,21.8,0.4,32.4,0.6c-1.4,8.4-2.5,17-3.6,25.4C322,164.6,321.4,169.3,320.8,173.8z M173.5,174.9c-0.9,6.8-1.8,13.8-3.5,20.7
			c-22.2,0-49.3,0-77.7,0c0.2-2.9,0.6-6,1-8.9c0.5-3.9,1-8,1.1-11.9C123.5,174.8,151.2,174.8,173.5,174.9z M239.1,200.9
			c0-1.3,0-2.6-0.1-4c5.3,0,10.8-0.1,16.5-0.1c0,0.1,0,0.1,0,0.2h2.8c0-0.1,0-0.1,0-0.2c22.9-0.1,48.2-0.2,72-0.3
			c0.5,5.4,1.4,11.5,1.9,16.4c0.5,4.8,1,9.6,1.5,14.8c-2.7,0-56.1-0.1-97.4-0.2C238.1,218.7,239.1,209.7,239.1,200.9z M336.7,227.7
			c-0.5-5.2-1-10.1-1.5-15s-1.4-11-1.9-16.3c36.7-0.1,69.1-0.2,81.7-0.3c-0.5,5.7-1,11.1-1.5,16.5c-0.5,5.2-0.9,10.3-1.4,15.8
			C387.2,228.3,361.9,228.1,336.7,227.7z M285.7,50.1c-0.3,3.3-0.7,6.6-0.9,9.9c-13,0-26.5,0.1-39.1,0.2l-1.1-0.1v0.1
			c-5,0-9.9,0-14.5,0.1c0.5-4.6,1.3-9.3,2-13.9c0.7-4.2,1.4-8.6,1.9-12.9c16.2,0.1,34.8,0.1,52.7,0.2c0,0.7,0.1,1.4,0.1,2.1
			C286.8,40.5,286.2,45.4,285.7,50.1z M229.3,46c-0.8,4.7-1.6,9.5-2.1,14.2c-6,0-11.6,0.1-16.6,0.1c-1.2,0-5.2,0-11.5,0
			c0-6.1,0.4-12.4,0.9-18.4c0.2-2.9,0.4-5.8,0.5-8.7c3.9,0,6.4,0,7.2,0c6.7,0,14.7,0.1,23.4,0.1C230.7,37.6,230,41.9,229.3,46z
			 M83.7,38.2c-0.8,7.3-1.6,14.9-1.6,22.2c-33.3,0-68.3,0-98.8,0.1c-0.7-5.4-0.8-10.7-0.9-16c0-3.7-0.1-7.5-0.4-11.4
			c31.5,0,68,0,102.3,0C84,34.9,83.9,36.6,83.7,38.2z M48,109c0.1-3,0.3-5.8,0.4-7.2c20.2,0,40.8,0,60.5,0c-0.1,1.8-0.2,3.6-0.2,5.7
			c0,2.6,0.1,5.1,0.2,7.7c0.1,2.5,0.2,5.1,0.2,7.6c0,3.4-0.2,6.3-0.5,8.9l0.8,0.1c-20.4,0-41.7,0-62.7-0.1
			C47.1,128.3,47.6,117.2,48,109z M63.6,153c0.3-6.5,0.7-12.9,0.9-19.3c23.5,0,47.7,0,71,0c0.4,6.7,0.5,12.3,0.5,18.4
			c0,3.4,0,6.9-0.1,10.4c0,3.5-0.1,6.9-0.1,10.4c-22.8,0-48-0.1-73.3-0.1C62.9,166.3,63.2,159.6,63.6,153z M151.8,212
			c0.2-4.9,0.5-10,1.9-14.9c36.7,0,63.6-0.1,67.8-0.1c4.6,0,9.5-0.1,14.7-0.1c0,1.3,0.1,2.6,0.1,3.9c0,8.9-1,17.8-2.9,26.6
			c-8.9,0-17.2,0-24.2,0c-3.1,0-26.6,0-59.5,0C151.3,222.3,151.5,217.1,151.8,212z M222.4,241.5c0.3-4,0.7-8,0.9-12.1
			c22.2,0.1,51.2,0.2,77.9,0.3c-0.5,7.9-1.4,16.1-4.3,24.1c-22.9,0-52.7,0-75.4,0C221.8,249.6,222.1,245.6,222.4,241.5z
			 M278.3,255.5c0.1,0.7,0.1,1.5,0.1,2.2c0,2.9-0.4,6-0.8,8.9c-0.4,3-0.8,6.1-0.8,9.1c0,0.3,0,0.6,0,0.8c-21.4,0-44.2-0.1-61.3-0.1
			c-2.3,0-11.1,0-24.5,0c0.1-0.6,1-11.2,2.5-20.9c10.4,0,17.2,0,19,0C230.5,255.5,255.7,255.5,278.3,255.5z M233.9,310.2
			c0.9,4.1,1.4,8.5,1.4,13.9c0,3.6-0.2,7.2-0.4,10.7c-0.2,3.1-0.3,6.4-0.3,9.6c-2.4,0-4.7,0-6.9-0.1c-2.3,0-8.8,0-18.4-0.1
			c0-0.1,0-0.1,0-0.2l-2.8,0.2c-9.7,0-22.1,0-36.5-0.1c-0.9-12-1.8-22.9-3.1-34.2C192.4,310,215.5,310.1,233.9,310.2z M276.8,346
			c33.4,0.1,64.2,0.2,67.8,0.3c0,8.9,0.5,17.3,0.9,26.3c-3.9-0.2-36.1-0.3-70.5-0.5c1.1-5.7,2.2-12.2,2.2-18.9
			C277.4,350.6,277.1,348.3,276.8,346z M359.5,501.1c-4.8-0.2-27.8-0.3-55.5-0.5c0-0.9-0.1-1.8-0.1-2.7c0-5.3,0.6-10.9,1.1-16.3
			c0.4-3.7,0.8-7.6,1-11.3c26.6,0.1,48.3,0.1,52.7,0.2c0.4,2.8,0.6,5.9,0.6,9.6c0,2,0,4-0.1,6c0,2-0.1,4-0.1,6
			C359,495.5,359.2,498.4,359.5,501.1z M506.8,542.3c-7.8,0-15.7,0-23.5,0.1c-15.6,0.1-31.2,0.1-46.8,0.1c-11.6,0-23.5,0-35.4-0.1
			c-0.5-6.6-1-12.8-1.5-19c-0.5-6.1-1-12.2-1.5-18.7c32.5,0.3,60.2,0.7,75.5,1c11.6,0.2,23.4,0.5,35.1,0.7
			c-1.4,8.9-2.1,18.4-2.1,28.3C506.6,537.1,506.7,539.7,506.8,542.3z M436.5,544.2c5.6,0,11.3,0,16.9,0c-0.1,1.8-0.2,3.8-0.2,6
			s0.1,4.5,0.1,6.7c0,1.9,0.1,3.7,0.1,5.6c-2.9,0-5.8,0-8.7,0c-32,0-62.6,0.2-92.6,0.7c-0.2-3.1-0.3-6.1-0.3-9.2
			c0-3.3,0.1-6.6,0.4-9.9C389.8,544.1,422.6,544.2,436.5,544.2z M253.8,541.4c0.6-4.1,1.4-8.3,2.1-12.3c1.6-8.5,3.2-17.3,3.3-26.1
			c22.5,0.3,47.4,0.6,72.4,0.9c0,0.6,0,1.2,0,1.8c0,9.5-1.4,18.8-2.9,28.6c-0.4,2.4-0.7,4.8-1.1,7.3l2.8,0.3
			c0.3-2.4,0.7-4.8,1.1-7.3c1.4-9.4,2.9-19.2,2.9-28.9c0-0.6,0-1.2,0-1.8c20.8,0.2,41.5,0.4,60.6,0.7c0.5,6.5,1,12.7,1.5,18.8
			c0.5,6.2,1,12.4,1.5,18.9C381.7,542.1,309.7,541.9,253.8,541.4z M349.1,563.1c-3.7,0.1-27,0.1-54.8,0.2c0.2-2.2,0.6-4.5,1-6.9
			c0.6-3.1,1.2-6.4,1.2-9.6c0-1.1-0.2-2.1-0.3-3.1c17.7,0.1,35.8,0.2,52.9,0.3c-0.2,3.3-0.4,6.6-0.4,9.9
			C348.8,557,348.9,560.1,349.1,563.1z M218.6,500.1c-18.4,0-45.2-0.1-75.6-0.1c-0.4-2.9-0.5-6-0.5-9.6c0-3.5,0.2-7.1,0.3-10.6
			c0.1-3.3,0.3-6.6,0.3-9.9c32.5,0,60.7,0,78.9,0.1c-0.4,3.5-0.9,7-1.5,10.4c-0.9,5.3-1.9,10.8-1.9,16.3
			C218.4,497.8,218.5,499,218.6,500.1z M178.4,541.2c-16.6,0-35.1-0.1-54.7-0.1c0.4-4.7,1.2-9.4,2-13.9c1.1-6,2.3-12.3,2.3-18.5
			c0-2.3-0.2-4.4-0.5-6.4c18.5,0.1,36,0.1,51.5,0.2c-0.1,0.9-0.1,2-0.1,3.5c0,4.6-0.2,9.3-0.4,13.8s-0.4,9.2-0.4,13.9
			C178.2,536.3,178.3,538.8,178.4,541.2z M203.7,401.4c16.8,0,28.5,0,32.5,0c16.6,0.1,35.4,0.1,53.3,0.2c0,0.8-0.1,1.7-0.1,2.5
			c0,2.3,0.1,4.6,0.1,7c0.1,2.3,0.1,4.7,0.1,7c0,3.3-0.1,6.9-0.4,9.9c-16.9,0.1-34.8,0.1-50.8,0.2c-4.6,0-18.6,0-38.3,0.1
			c0-0.9-0.1-2-0.1-2.5c0-3.6,1-7.3,1.9-10.8c1-3.6,1.9-7.4,1.9-11.2C203.9,403,203.7,402.2,203.7,401.4z M261.6,429.9
			c0,12.6,0,25.6-1.8,38.7c-6.6,0-13-0.1-19.1-0.1c-5.4,0-24.8-0.1-51.8-0.1c0.1-2.1,0.1-4.2,0.2-6.3c0.3-10.8,0.7-21.9,2.4-32
			c24.2,0,41.4-0.1,46.6-0.1C245.6,429.9,253.6,429.9,261.6,429.9z M199.2,414.5c-1,3.7-2,7.4-2,11.3c0,0.5,0,1.6,0.1,2.5
			c-21,0-48,0.1-77.2,0.1l0.1-2.3c0.2-4.3,0.5-9.1,0.5-12.9c0-4.4-0.3-8.3-0.8-11.9c31.1,0,59.6,0,80.8,0.1c0.1,0.8,0.2,1.5,0.2,2.3
			C201,407.4,200.1,410.8,199.2,414.5z M188.7,430.1c-1.7,10.2-2.1,21.2-2.4,32c-0.1,2.1-0.1,4.2-0.2,6.3c-21.7,0-48-0.1-75.9-0.1
			c-1.3-9-1.4-18.2-1.4-27.1c0-3.7-0.1-7.4-0.2-11.1C138.2,430.1,166.2,430.1,188.7,430.1z M223.1,480.7c0.6-3.5,1.2-7.1,1.6-10.7
			c8.1,0,13.9,0,16.6,0c19.7,0.1,42,0.1,61.8,0.2c-0.2,3.7-0.6,7.5-0.9,11.1c-0.6,5.4-1.1,11-1.1,16.5c0,0.9,0,1.8,0.1,2.7
			c-18.9-0.1-39.8-0.2-58.4-0.4c-3.3,0-10.8,0-21.3-0.1c-0.1-1.2-0.2-2.3-0.2-3.5C221.2,491.4,222.2,486,223.1,480.7z M341.7,451.9
			c-0.6,4.7-1.2,9.6-1.2,14.4c0,0.8,0,1.6,0.1,2.5c-23.6,0-51.9-0.1-77.9-0.2c1.8-13.1,1.8-26.1,1.8-38.7
			c29.6-0.1,60.5-0.2,77.6-0.2c0.5,2.5,0.7,5.1,0.7,8C342.9,442.3,342.2,447.2,341.7,451.9z M292.1,428c0.4-3,0.4-6.6,0.4-9.9
			c0-2.3-0.1-4.7-0.1-7c-0.1-2.3-0.1-4.6-0.1-6.9c0-0.8,0-1.7,0.1-2.5c32.4,0.1,61,0.3,66.3,0.4c0.6,5.2,0.6,10.5,0.7,15.5
			c0,3.4,0.1,6.8,0.3,10.3c-1.5,0-3.1,0-4.6,0C350.3,427.8,323.2,427.9,292.1,428z M323.2,384.9c-0.5,4.3-1.1,10.1-1.1,15.6
			c-3.7,0-7.5-0.1-11.3-0.1c0.3-2.7,0.9-5.5,1.5-8.2c0.9-4,1.8-8.1,1.8-12.3c0-1.8-0.2-3.4-0.6-5c3.4,0,6.7,0.1,10,0.1
			c0,0.5,0,1,0,1.5c0,1,0.1,2,0.1,3.1C323.7,380.6,323.5,382.5,323.2,384.9z M310.7,374.9c0.4,1.6,0.6,3.2,0.6,5
			c0,3.9-0.9,7.9-1.7,11.8c-0.6,2.8-1.2,5.7-1.5,8.6c-5.2,0-10.4-0.1-15.7-0.1c0-0.1,0-0.2,0-0.2l-2.8-0.1c0,0.1,0,0.2,0,0.3
			c-18.4-0.1-36.8-0.2-52.9-0.3c-0.8,0-1.9,0-3.2,0c0.2-4,0.4-9.6,0.4-13.9c0-6.5-0.3-10-0.7-12C256,374.4,284.3,374.6,310.7,374.9z
			 M272.3,372c-13.8-0.1-27.9-0.2-40.4-0.2c-0.1,0-0.2,0-0.4,0c-0.1,0-0.2,0-0.4,0c-2.3,0-4.6,0-6.8,0c-2,0-7,0-14.5,0
			c-0.1-2.5-0.2-5-0.2-7.5v-7.1c0-3.6-0.1-7.4-0.4-11.4c9.6,0,16.2,0,18.7,0c14,0.1,30.2,0.1,46,0.2c0.3,2.3,0.5,4.6,0.5,7.1
			C274.5,359.8,273.4,366.3,272.3,372z M140.2,469.9c0,3.2-0.1,6.5-0.3,9.8c-0.2,3.5-0.3,7.1-0.3,10.7s0.2,6.7,0.5,9.6
			c-22.5,0-46.8-0.1-71.1-0.1c-1.3-9.6-2.7-20.4-2.9-30C91.4,469.9,116.8,469.9,140.2,469.9z M82.9,542.9c-0.1,1.5-0.2,3-0.2,4.7
			c0,2.1,0.1,4.3,0.2,6.4c0.1,2.1,0.2,4.2,0.2,6.3c0,1.1,0,2.1-0.1,3.2l2.8,0.1l0,0l0,0l0,0c-26.1,0-52.7,0-77.4,0
			c0.5-3.6,1.3-7.2,2-10.6c0.7-3.3,1.5-6.8,2-10.2C35,542.8,59.1,542.8,82.9,542.9z M181.3,541.2c-0.1-2.4-0.2-4.8-0.2-7.6
			c0-4.6,0.2-9.3,0.4-13.8s0.4-9.2,0.4-13.9c0-1.9,0-2.9,0.1-3.5c32.3,0.1,55.9,0.2,61.7,0.3c4.1,0.1,8.4,0.1,12.7,0.2
			c-0.1,8.7-1.7,17.4-3.3,25.8c-0.8,4.2-1.6,8.4-2.2,12.7c-2,0-3.9,0-5.8,0C238.5,541.3,214.2,541.2,181.3,541.2z M215.4,562.1
			c0.4-6.2,0.8-12.6,0.8-18.9c14.5,0,24.7,0.1,28.4,0.1c15,0.2,31.7,0.3,48.8,0.4c0.2,1,0.3,2,0.3,3.1c0,3-0.6,6.2-1.2,9.2
			c-0.4,2.4-0.9,4.9-1.1,7.3c-8.9,0-18.2,0-27.5,0.1c0,0,0,0,0-0.1l-2.8-0.5c-0.1,0.2-0.1,0.4-0.1,0.6c-6.9,0-13.7,0-20.2,0.1
			c-3.7,0-12.7,0-25.5,0L215.4,562.1z M530,584.1c-0.3,4.4-0.6,8.9-0.7,13.3c-32-0.6-63.9-0.7-95.2-0.8c-6.3,0-12.6,0-19-0.1
			c0.5-5.5,0.9-10.6,1.4-15.8c0.5-5.4,1-10.8,1.5-16.6c8.8,0,17.7-0.1,26.7-0.1c27.8,0,56.3,0.2,86,0.6c0.1,1.3,0.1,2.5,0.1,3.8
			C530.8,573.7,530.4,579,530,584.1z M530,543.9c7.4,0,14.5,0,21.2,0c0,6.3,0,12.9-0.5,19.2c-32.8-0.5-64-0.8-94.4-0.8
			c0-1.9,0-3.7-0.1-5.6c-0.1-2.2-0.1-4.4-0.1-6.7c0-2.2,0.1-4.2,0.2-6c9,0,17.9,0,26.9-0.1C498.8,544,514.4,543.9,530,543.9z
			 M449.8,470.3c19.4-0.1,39.6-0.3,59.3-0.3c16.3,0,31.1,0.1,45,0.3c0,8.2-0.4,16.4-0.9,24.3c-0.2,3.6-0.4,7.3-0.5,11
			c-26.6-0.7-53.1-1.2-79.1-1.8c-5.6-0.1-11.2-0.2-16.8-0.3c-0.1-3.1-0.2-6.5-0.2-10.3s0.1-7.7,0.1-11.5c0.1-3.8,0.1-7.6,0.1-11.4
			h-3c0,3.8-0.1,7.5-0.1,11.3c-0.1,3.8-0.1,7.7-0.1,11.5s0.1,7.2,0.2,10.2c-30.2-0.6-60.8-1.3-91.3-2.3c-0.3-2.7-0.5-5.6-0.5-9.1
			c0-2,0-4,0.1-6c0-2,0.1-4,0.1-6c0-3.7-0.2-6.8-0.5-9.6c10.2,0.1,19.8,0.1,28.8,0.1C410.3,470.5,430.4,470.4,449.8,470.3z
			 M423.2,467.2l0.2,1.5c-11,0.1-22,0.1-32.9,0.1c-6,0-24.1,0-47.1,0c0-0.8-0.1-1.6-0.1-2.5c0-4.7,0.6-9.5,1.2-14.2
			s1.2-9.7,1.2-14.5c0-2.9-0.3-5.5-0.7-8c5.1,0,8.6,0,10,0c21.7,0,43.8,1.1,66.5,2.7l-2.1,0.1C420.4,444.1,421.8,455.3,423.2,467.2z
			 M362.6,427.9c-0.2-3.5-0.2-6.9-0.3-10.3c-0.1-5-0.1-10.2-0.7-15.4c33.2,0.9,66.3,2.2,99.2,3.5c0.2,4,0.6,8,0.9,11.9
			c0.5,5.3,0.9,10.8,1,16.2C428,430.9,394.9,428.3,362.6,427.9z M492.8,407.1c20.6,0.9,41,1.9,61.3,2.8c5.1,0.2,10.1,0.5,15.2,0.7
			h-2.2c0,6.8,0.5,13.9,0.9,20.7c0.2,3.1,0.4,6.1,0.5,9.1c-34.2-0.7-68.9-3.6-102.7-6.4h-0.1c-0.1-5.6-0.6-11.2-1-16.6
			c-0.3-3.8-0.7-7.7-0.9-11.6c8.7,0.4,17.3,0.7,25.9,1.1c0,0.1,0,0.1,0,0.2L492.8,407.1L492.8,407.1z M426,376.9c0,0.1,0,0.2,0,0.3
			l3,0.1c0-0.1,0-0.2,0-0.3c21.2,0.5,42.3,1,63.3,1.4c-0.2,4.1-0.7,8.2-1.2,12.2c-0.6,4.8-1.1,9.7-1.3,14.6
			c-32.8-1.5-65.9-2.8-99.1-3.9c1.3-8.3,2.7-16.8,3.6-25.3C405,376.4,415.5,376.7,426,376.9z M391.4,376c-0.9,8.4-2.3,17-3.6,25.3
			c-8-0.3-33-0.5-62.8-0.7c0-5.4,0.6-11.2,1.1-15.4c0.3-2.5,0.5-4.4,0.5-5.5c0-1,0-2.1-0.1-3.1c0-0.5,0-0.9,0-1.4
			C357.1,375.4,382.9,375.7,391.4,376z M379.5,345.3c-13.5-0.2-89.6-0.6-142.1-0.9c0-3.2,0.2-6.4,0.3-9.5c0.2-3.5,0.4-7.2,0.4-10.8
			c0-5.3-0.4-9.8-1.3-13.9c17.6,0.1,30.4,0.1,36.2,0.2c13.4,0.1,27.5,0.3,41.6,0.4c0,1.1-0.1,2.2-0.1,3.3c0,4.2,0.2,8.3,0.3,12.5
			c0.2,4.1,0.3,8.3,0.3,12.4c0,1.8,0,3.6-0.1,5.4l2.8,0.1c0.1-1.8,0.1-3.7,0.1-5.5c0-4.2-0.2-8.3-0.3-12.5
			c-0.2-4.1-0.3-8.3-0.3-12.4c0-1.1,0-2.2,0.1-3.3c21.4,0.2,42.8,0.4,62.2,0.6c-0.4,4.6-0.6,9.4-0.6,14.9
			C379,332.8,379.3,339.1,379.5,345.3z M349.6,308.2c-0.2-4.7-0.3-9.4-0.3-14c0-5.1,0.1-10.2,0.4-15.5c20.4,0.4,40.7,0.7,60.9,1v30
			C390.3,309.2,370,308.7,349.6,308.2z M457.9,312.6c0,11-0.5,22.2-1.4,33.3c-4.5,0-9.1,0.1-13.6,0.1c-20,0-40.2-0.2-60.4-0.6
			c-0.3-6.2-0.5-12.6-0.5-19c0-5.5,0.2-10.3,0.6-14.9c28.9,0.3,52.9,0.6,65.3,0.9c4.2,0.1,8.5,0.2,12.8,0.3L457.9,312.6L457.9,312.6
			z M442.5,280.4c0-0.1,0-0.1,0-0.2c17.2,0.2,34.5,0.5,51.9,0.8c-0.5,5.2-0.9,10.5-1.2,15.8c-0.3,5-0.7,9.9-1.2,14.8
			c-14.7-0.3-29.4-0.7-43.9-1c-11.4-0.3-22.9-0.5-34.5-0.8v-30c4.7,0.1,9.4,0.1,14.1,0.2c2,0,3.9,0.1,5.9,0.1l0,0l3,0.1
			c0,0,0,0,0-0.1c1,0,2,0,3,0c0,0.1,0,0.2,0,0.3L442.5,280.4z M558.6,231.7c-0.4,3.3-0.6,6.7-0.8,9.9c-0.3,4.9-0.7,10-1.5,14.9
			c-12.3,0.3-25.2,0.5-38.9,0.5c-16.4,0-33-0.2-49.4-0.6c0.4-5.5,1.6-11.2,2.7-16.7c0.6-3,1.2-6,1.7-8.9l-3-0.2
			c-0.5,2.9-1.1,5.9-1.7,8.9c-1.1,5.5-2.2,11.3-2.7,16.9c-13.7-0.3-27.3-0.6-40.7-1c-16.2-0.4-32.7-0.9-49.2-1.2v-24.3
			c19.8,0.2,39.5,0.3,59,0.3c31.3,0.1,63.2,0.3,95.2,0.8c0,0.2,0,0.4,0,0.6h3c0-0.2,0-0.4,0-0.5
			C541.1,231.3,549.8,231.5,558.6,231.7z M530,175.9c7.4,0,14.5,0,21.2,0c0,6.3,0,12.9-0.5,19.2c-32.8-0.5-64-0.8-94.4-0.8
			c0-1.9,0-3.7-0.1-5.6c-0.1-2.2-0.1-4.4-0.1-6.7c0-2.2,0.1-4.2,0.2-6c9,0,17.9,0,26.9-0.1C498.8,176,514.4,175.9,530,175.9z
			 M449.8,102.2c19.4-0.1,39.6-0.3,59.3-0.3c16.3,0,31.1,0.1,45,0.3c0,8.2-0.4,16.4-0.9,24.3c-0.2,3.6-0.4,7.3-0.5,11
			c-26.6-0.7-53.1-1.2-79.1-1.8c-5.6-0.1-11.2-0.2-16.8-0.3c-0.1-3.1-0.2-6.5-0.2-10.3s0.1-7.7,0.1-11.5c0.1-3.8,0.1-7.6,0.1-11.4
			h-3c0,3.8-0.1,7.5-0.1,11.3c-0.1,3.8-0.1,7.7-0.1,11.5c0,3.8,0.1,7.2,0.2,10.2c-30.2-0.6-60.8-1.3-91.3-2.3
			c-0.3-2.7-0.5-5.6-0.5-9.1c0-2,0-4,0.1-6c0-2,0.1-4,0.1-6c0-3.7-0.2-6.8-0.5-9.6c10.2,0.1,19.8,0.1,28.8,0.1
			C410.3,102.5,430.4,102.4,449.8,102.2z M423.2,99.2l0.2,1.5c-11,0.1-22,0.1-32.9,0.1c-7,0-29.8,0-57.8-0.1
			c0.5-6.6,1.4-13.2,2.3-19.6c0.9-6.3,1.7-12.9,2.2-19.5c9.3,0,15.8,0,17.9,0c21.7,0,43.8,1.1,66.5,2.7l-2.1,0.1
			C420.4,76.1,421.8,87.3,423.2,99.2z M489.9,38.9c0,0.1,0,0.1,0,0.2h3l0,0c20.6,0.9,41,1.9,61.3,2.8c5.1,0.2,10.1,0.5,15.2,0.7
			h-2.2c0,6.8,0.5,13.9,0.9,20.7c0.2,3.1,0.4,6.1,0.5,9.1c-34.2-0.7-68.9-3.6-102.7-6.4h-0.1c-0.1-5.6-0.6-11.2-1-16.6
			c-0.3-3.8-0.7-7.7-0.9-11.6C472.6,38.2,481.2,38.6,489.9,38.9z M460.9,37.7c0.2,4,0.6,8,0.9,11.9c0.5,5.3,0.9,10.8,1,16.2
			c-34.9-2.9-68-5.5-100.3-5.9c-0.2-3.5-0.2-6.9-0.3-10.3c-0.1-5-0.1-10.2-0.7-15.4C394.8,35.1,428,36.3,460.9,37.7z M309.7,5.5
			c37.7,0.5,71.8,0.9,81.9,1.3c-0.9,8.8-2.4,17.7-3.8,26.3c-9.4-0.3-42-0.6-78.4-0.8c0.1-1.5,0.1-3.5,0.1-4.9c0-2.3-0.1-4.6-0.1-7
			c-0.1-2.3-0.1-4.6-0.1-6.9C309.2,10.6,309.4,8,309.7,5.5z M219.5,4.3c23.7,0.4,56.5,0.8,87.3,1.2c-0.3,2.5-0.4,5.1-0.4,8.1
			c0,2.3,0.1,4.6,0.1,6.9c0.1,2.3,0.1,4.6,0.1,6.9c0,1.4,0,3.4-0.1,4.9c-25.4-0.2-52.4-0.3-74.4-0.5l-0.8-0.1l0,0
			c-4.7,0-9.1-0.1-13.2-0.1C218.2,22.6,218.6,13.4,219.5,4.3z M127,3.9C171.6,4,205.6,4,208.7,4.1c2.5,0.1,5.2,0.1,7.9,0.2
			c-0.9,9.1-1.3,18.4-1.3,27.5c-2.6,0-5.2,0-7.6-0.1c-3,0-38.3,0-84.1-0.1c0.3-3.2,0.9-6.5,1.5-9.7c0.9-5,1.9-10.2,1.9-15.5
			C127.1,5.6,127.1,4.7,127,3.9z M29.1,3.7c32.2,0,65.7,0.1,95,0.1c0.1,0.9,0.1,1.7,0.1,2.6c0,5.1-0.9,10.2-1.9,15.1
			c-0.6,3.3-1.2,6.7-1.6,10c-10.8,0-22.2,0-33.9,0l-2.6-0.2c0,0.1,0,0.1,0,0.2c-18.2,0-36.9,0-55.3,0V3.7H29.1z M-20,31.5
			c-17.9,0-34.1,0-47.4,0h1.5c-0.1-2.9-0.2-5.8-0.2-8.8c0-6.5,0.3-13,0.6-19.1c24,0,57,0.1,91.8,0.1v27.8c-15.4,0-30.4,0-44.4,0
			v-0.1L-20,31.5z M-66.9,64c0-0.5,0-1.1,0-1.6c16.5,0,37.5,0,60.5,0c0,4.4-0.2,8.8-0.4,13.1c-0.2,4.9-0.4,9.9-0.4,14.9
			c0,3.6,0.1,6.8,0.3,9.9c-9.9,0-19.4,0-28.3,0v-0.1l-1.4,0.1c-9.9,0-19,0-27.2,0l1.1-0.1c-0.4-3-0.9-6.1-1.4-9.1
			C-65.5,81.6-66.9,73-66.9,64z M-73.9,131.7c0-0.8,0.1-1.7,0.1-2.5c0-5.3-0.6-10.7-1.3-16c-0.4-3.8-0.9-7.7-1.1-11.5
			c10.5,0,23.6,0,38.4,0c0.6,5.6,1.6,11.2,2.6,16.6c0.8,4.4,1.7,8.9,2.3,13.4C-48.6,131.7-62.6,131.7-73.9,131.7z M-58.3,172.7
			c1.4-13.3,1.9-26.4,2.3-39.1c14.7,0,32.2,0,51.3,0.1c-0.6,3-0.8,5.7-0.8,8.9c0,5.5,0.6,11.1,1.3,16.5c0.5,4.4,1,9.1,1.2,13.5
			l2.8-0.1c-0.2-4.5-0.7-9.2-1.2-13.7c-0.6-5.4-1.3-10.9-1.3-16.3c0-3.3,0.3-5.9,0.8-8.9c19.8,0,41.4,0,63.5,0.1
			c-0.2,6.4-0.6,12.8-0.9,19.2c-0.4,6.7-0.7,13.4-0.9,20c-35.7,0-71.4-0.1-100.2-0.1v-0.1l-1.8,0.1
			C-47.8,172.7-53.2,172.7-58.3,172.7z M-58.8,227.4c-0.5-5.4-1.7-10.6-2.8-15.7c-1.1-4.7-2.1-9.5-2.6-14.4c16.8,0,37.8,0,60.8-0.1
			v30h2.8v-30c22,0,45.6,0,69-0.1v30.2C22.3,227.4-25.4,227.4-58.8,227.4z M-16.9,229.2c24.1,0,51,0,77.6,0c-0.3,2.5-0.6,5-0.9,7.5
			c-0.7,5.5-1.5,11.2-1.8,16.9l2.8,0.1c0.3-5.6,1.1-11.2,1.8-16.7c0.3-2.6,0.7-5.2,1-7.7c25.6,0,50.8,0,72.9,0v0.2
			c0.5,8,0.9,16.4,1.8,24.3l2.8-0.2c-0.9-7.9-1.4-16.2-1.8-24.2l0,0c38.9,0,67.7,0,70.9,0.1c3.2,0,6.6,0,10.2,0.1
			c-0.2,4.1-0.6,8-0.9,12c-0.3,4.1-0.7,8.2-0.9,12.4c-1.9,0-3.9,0-5.7,0c-9,0-135.8,0-226.1,0c-0.8-4.3-1.4-8.5-2-12.7
			C-15.6,237.2-16.2,233.2-16.9,229.2z M26.9,268.8c-0.2,1.4-0.3,2.4-0.3,2.7c0,0.9,0.1,1.9,0.1,2.8c0,0.7,0.1,1.4,0.1,2.1
			c-25.7,0-50.4,0-71.2,0l2.2-0.2c-0.3-2.6-0.4-5-0.4-7.3v-3.7c0-2.9-0.1-6.2-0.7-9.6c21,0,45.7,0,71.5,0
			C28,260.4,27.3,265.8,26.9,268.8z M112.8,276.4c-14.4,0-29.5,0-44.7,0l-2.6-0.2c0,0.1,0,0.1,0,0.2c-12,0-24.1,0-35.9,0
			c0-0.7,0-1.4-0.1-2.2c0-0.9-0.1-1.8-0.1-2.7c0-0.3,0.1-1.2,0.3-2.4c0.4-3.1,1.2-8.5,1.3-13.6c27.1,0,55.1,0,80.9,0
			c0.1,1.7,0.2,3.3,0.4,5c0.3,4.1,0.7,8.3,0.7,12.4C112.9,274.2,112.9,275.3,112.8,276.4z M115.6,276.4c0.1-1.1,0.1-2.3,0.1-3.4
			c0-4.2-0.3-8.5-0.7-12.6c-0.1-1.6-0.3-3.3-0.4-4.9c30.8,0,58,0,76,0c-1.5,9.9-2.5,20.7-2.5,20.8l1.4,0.1
			C171.3,276.5,145,276.5,115.6,276.4z M88.6,309.8c25.8,0.1,51.6,0.1,75.4,0.2c1.3,11.3,2.2,22.3,3.1,34.2
			c-22.9,0-50.4-0.1-78.8-0.1c0.1-1,0.1-2.6,0.1-5.1c0-2.9-0.1-5.9-0.1-8.8c-0.1-2.9-0.1-5.8-0.1-8.8
			C88,316.9,88.2,313.2,88.6,309.8z M86.8,345.7c0.3,0,0.5,0,0.7-0.1c17.6,0,34.8,0,50.9,0c0,0.9,0.1,1.8,0.1,2.7
			c0,4.8-0.4,9.7-0.8,14.4c-0.3,2.9-0.5,5.8-0.7,8.8c-51.7,0-116.3-0.1-165.5-0.1c-0.1-1-0.1-2.1-0.1-3.1c0-1.9,0.1-3.8,0.1-5.8
			c0.1-1.9,0.1-3.9,0.1-5.8c0-3.1-0.2-7-1.2-11.1c24.5,0,53,0,82,0c1.5,6,1.7,12.2,1.7,18.3c0,2.5,0.1,5,0.2,7.5l2.8-0.1
			c-0.1-2.5-0.2-4.9-0.2-7.4c-0.1-6-0.2-12.2-1.7-18.2C65.8,345.7,76.3,345.7,86.8,345.7L86.8,345.7z M13.5,309.6
			c23,0.1,47.6,0.1,72.3,0.2c-0.4,3.4-0.5,7.2-0.5,11.6c0,2.9,0.1,5.9,0.1,8.8c0.1,2.9,0.1,5.8,0.1,8.8c0,1.5,0,3.3,0,4.4h-0.1v0.7
			c-23.4,0-47.3,0-70-0.1c-0.2-4.4-0.6-8.8-1-13.1c-0.5-5.6-1.1-11.3-1.1-17C13.3,312.5,13.4,311,13.5,309.6z M-59.4,343.9h1.4
			c-0.4-9.2-0.3-18.8-0.3-28.1v-6.4c19.1,0.1,42.9,0.1,68.9,0.2c-0.1,1.4-0.2,2.9-0.2,4.3c0,5.8,0.6,11.6,1.1,17.2
			c0.4,4.2,0.8,8.6,1,12.9c-15,0-29.3,0-42.5-0.1v-0.1l-0.5,0.1C-41,343.9-50.7,343.9-59.4,343.9z M-39,399.4l-1.4,0.2
			c-13,0-24.7,0-34.2,0l1.1-0.3c-1.5-4.8-1.9-9.7-2.3-14.5c-0.3-3.8-0.8-7.7-1.6-11.6c17.4,0.1,42.1,0.1,70.2,0.2
			c0,3.5-0.3,7-0.5,10.4c-0.3,3.9-0.5,7.9-0.5,11.9c0,1.3,0,2.6,0.1,4c-10.8,0-21.1,0-30.7,0C-38.9,399.5-38.9,399.5-39,399.4z
			 M-35.9,428.5l2-0.5c-2.1-5.9-2.8-12.1-3.5-18c-0.3-2.9-0.7-5.8-1.2-8.8c24.2,0,53.1,0,83,0c0.3,1.8,0.5,3.7,0.5,5.8
			c0,3.6-0.5,7.3-1,10.8s-1,7-1,10.6C14.6,428.5-12.7,428.5-35.9,428.5z M-0.7,469.8c20.2,0,42,0,63.9,0c0.2,9.7,1.6,20.4,2.9,30
			c-22.7,0-45.3-0.1-66.3-0.1c0-3.8-0.1-7.7-0.3-11.5c-0.2-4.3-0.3-8.6-0.3-12.9C-0.8,473.6-0.7,471.7-0.7,469.8z M-10.6,501.9
			c20,0.1,41.7,0.1,63.9,0.2c1.5,15.5,6.1,37.9,6.2,38.1c0,0.2,0,0.5-0.1,0.8c-25.5,0-50.6-0.1-73.2-0.1c0.3-4.7,0.9-9.4,1.4-14
			c0.9-7.6,1.8-15.4,1.8-23.1C-10.5,503.1-10.5,502.5-10.6,501.9z M-67.7,540.7l1.1-0.3c-4-9.4-5.3-19.4-6.6-29
			c-0.4-3.2-0.9-6.5-1.4-9.7c15.8,0.1,37.1,0.2,61.2,0.2c0,0.6,0,1.2,0,1.9c0,7.6-0.9,15.4-1.8,22.9c-0.5,4.7-1.1,9.5-1.4,14.2
			C-36.1,540.8-53.6,540.7-67.7,540.7z M-33.3,563.6c-7.7,0-15,0-21.8,0c-0.6-5.1-0.9-9.6-0.9-13.7c0-2.6,0.2-5.1,0.4-7.4
			c18.4,0.1,40.8,0.1,65.1,0.2c-0.5,3.3-1.2,6.6-1.9,9.8c-0.8,3.6-1.6,7.3-2.1,11.1c-12.6,0-24.7,0-36,0v-0.1h-2.8
			C-33.3,563.5-33.3,563.6-33.3,563.6z M-30.6,595.4c-0.6-3-0.9-6.2-0.9-9.9c0-3.6,0.3-7.3,0.5-10.9c0.2-3.1,0.4-6.2,0.5-9.4
			c20.8,0,44.5-0.1,69-0.1c-0.1,1.8-0.1,3.7-0.1,5.5c0,3,0.1,6.1,0.2,9.2c0.1,3,0.2,6.1,0.2,9.1c0,2,0,4-0.1,6l2.8,0.1
			c0.1-2,0.1-4,0.1-6c0-3-0.1-6.1-0.2-9.2c-0.1-3-0.2-6.1-0.2-9.1c0-1.8,0-3.7,0.1-5.5c25.4,0,51.6-0.1,76.5-0.1
			c-1.1,7.5-2.1,16.3-2.1,24.9c0,1.6,0,3.2,0.1,4.8l2.8-0.1c-0.1-1.6-0.1-3.1-0.1-4.7c0-8.6,1.1-17.4,2.1-24.9
			c22.4,0,43.6,0,61.9-0.1c-0.1,4.7-0.3,9.4-0.7,14c-0.3,5.1-0.7,10.4-0.7,15.6h2.8c0-5.1,0.4-10.4,0.7-15.5
			c0.3-4.6,0.6-9.4,0.7-14.1c30.2,0,52.2-0.1,58.2-0.1c5.5,0,11.2-0.1,17.1-0.1c-1.7,7.5-2.3,15.2-2.8,22.7
			c-0.2,2.7-0.4,5.4-0.6,8.1c-6.7,0-13.4,0-19.9,0C219.6,595.5,64,595.5-30.6,595.4z"/>
	</g>
	<g class="st2">
		<g class="st3">
			<path class="st1" d="M580.4,506.5c-8.9-0.3-17.9-0.5-26.8-0.8c0.2-3.7,0.3-7.4,0.5-11c0.4-7.9,0.9-16.2,0.9-24.3
				c8.8,0.2,17.2,0.4,25.4,0.6L580.4,506.5L580.4,506.5z"/>
			<path class="st1" d="M451.6,176.1c-0.1,1.8-0.2,3.8-0.2,6s0.1,4.5,0.1,6.7c0,1.9,0.1,3.7,0.1,5.6c-2.9,0-5.8,0-8.6,0
				c-31.9,0-62.4,0.2-92.3,0.7c-0.2-3.1-0.3-6.1-0.3-9.2c0-3.5,0.1-7,0.4-10.4l-3-0.1c-0.2,3.5-0.4,7-0.4,10.5
				c0,3.1,0.1,6.2,0.3,9.3c-9.5,0.2-441.1,0.4-450.5,0.6v-21.4c18.5,0.7,129.5,0.3,245.9,0.6c132.4,0.3,271.9,1.3,291.5,1.3
				C440.4,176.1,446,176.1,451.6,176.1z"/>
			<path class="st1" d="M358,417.6c0,3.4,0.1,6.8,0.3,10.3c-1.5,0-3.1,0-4.6,0c-11.5,0-445,0.3-456.4,0.8v-27.5
				c12.6,0.2,447.4,0.5,460,0.9C357.9,407.3,357.9,412.6,358,417.6z"/>
			<path class="st1" d="M413.5,228.5c0.5-5.5,0.9-10.6,1.4-15.8c0.5-5.4,1-10.8,1.5-16.6c8.8,0,17.6-0.1,26.6-0.1
				c27.7,0,56.1,0.2,85.7,0.6c0.1,1.3,0.1,2.5,0.1,3.8c0,5.2-0.4,10.5-0.8,15.6c-0.3,4.4-0.6,8.9-0.7,13.3
				c-31.9-0.6-63.7-0.7-94.8-0.8C426.2,228.5,419.8,228.5,413.5,228.5z"/>
			<path class="st1" d="M345,294.2c0,4.6,0.1,9.2,0.3,13.9c-8.6-0.2-439.4-0.5-448-0.7v-29.2c8.6,0.2,439.4,0.4,448,0.6
				C345.1,284,345,289,345,294.2z"/>
			<path class="st1" d="M530.2,344.8c1.2-4.7,2-9.5,2.8-14.1c0.9-5.3,1.7-10.7,3.2-15.9l-2.9-0.3c-1.5,5.3-2.4,10.7-3.2,16
				c-0.8,4.7-1.6,9.6-2.8,14.4c-23.2,0.6-46.3,0.9-69.4,1c0.9-11.1,1.4-22.2,1.4-33.3c40,0.9,80.8,1.9,121.3,3.1v27.4
				C563.7,343.8,546.9,344.3,530.2,344.8z"/>
			<path class="st1" d="M492.4,281c-0.5,5.2-0.9,10.5-1.2,15.8c-0.3,5-0.7,9.9-1.2,14.8c-14.7-0.3-29.3-0.7-43.7-1
				c-11.4-0.3-22.8-0.5-34.3-0.8v-30c4.7,0.1,9.4,0.1,14,0.2c1.9,0,3.9,0.1,5.9,0.1l0,0l3,0.1c0,0,0,0,0-0.1c1,0,2,0,3,0
				c0,0.1,0,0.2,0,0.3l3-0.1c0-0.1,0-0.1,0-0.2C457.9,280.4,475.1,280.7,492.4,281z"/>
			<path class="st1" d="M580.4,281.4c-12.7-0.4-25.5-0.8-38.3-1.1c0-1.1-0.1-2.2-0.1-3.3c0-3,0.2-6.2,0.3-9.2c0.2-3,0.3-6.1,0.3-9.1
				h-3c0,3-0.2,6.1-0.3,9.1c-0.2,3-0.3,6.2-0.3,9.3c0,1.1,0.1,2.1,0.1,3.2c-33-0.8-65.9-1.3-98.4-1.8c0-0.2,0-0.3,0-0.5
				c0-4.6,0.8-9.4,1.6-14c0.4-2.1,0.7-4.2,1-6.2c23.9,0.6,48.2,1.1,72.3,1.1c23.5,0,45-0.5,64.9-1.5v24H580.4z"/>
			<path class="st1" d="M527.9,543.9c7.4,0,14.4,0,21.2,0c0,6.3,0,12.9-0.4,19.2c-32.6-0.5-63.8-0.8-94-0.8c0-1.9,0-3.7-0.1-5.6
				c-0.1-2.2-0.1-4.4-0.1-6.7c0-2.2,0.1-4.2,0.2-6c8.9,0,17.8,0,26.8-0.1C496.9,544,512.4,543.9,527.9,543.9z"/>
			<path class="st1" d="M432.4,598.3c31.2,0.1,62.9,0.3,94.8,0.8c0,0.2,0,0.4,0,0.6h3c0-0.2,0-0.4,0-0.5c8.8,0.2,17.5,0.3,26.3,0.6
				c-0.1,0.6-0.1,1.2-0.2,1.7h-86.2c0.2-0.9,0.3-1.7,0.5-2.6l-3-0.2c-0.1,0.9-0.3,1.8-0.5,2.7h-93.4V598
				C393.4,598.1,413,598.2,432.4,598.3z"/>
			<path class="st1" d="M506.8,506.3c-1.4,8.9-2.1,18.4-2.1,28.3c0,2.6,0.1,5.1,0.2,7.7c-7.8,0-15.6,0-23.4,0.1
				c-15.5,0.1-31.1,0.1-46.6,0.1c-11.6,0-23.4,0-35.3-0.1c-0.5-6.6-1-12.8-1.5-19c-0.5-6.3-1-12.6-1.5-19.3l-3,0.1
				c0.5,6.7,1,13,1.5,19.3c0.5,6.2,1,12.4,1.5,18.9c-25.1-0.2-473.1-0.7-499.2-1.8v-39.1c27.2,1.1,176,0.4,315.8,1.1
				c121,0.6,235.4,2.6,258.6,3.1C483.3,505.8,495,506.1,506.8,506.3z"/>
			<path class="st1" d="M580.4,138.4c-8.9-0.3-17.9-0.5-26.8-0.8c0.2-3.7,0.3-7.4,0.5-11c0.4-7.9,0.9-16.2,0.9-24.3
				c8.8,0.2,17.2,0.4,25.4,0.6L580.4,138.4L580.4,138.4z"/>
			<path class="st1" d="M389,102.5c19.7,0,39.8-0.1,59.1-0.3c19.4-0.1,39.4-0.3,59.1-0.3c16.2,0,31,0.1,44.8,0.3
				c0,8.2-0.4,16.4-0.9,24.3c-0.2,3.6-0.4,7.3-0.5,11c-26.5-0.7-52.9-1.2-78.8-1.8c-5.6-0.1-11.1-0.2-16.7-0.3
				c-0.1-3.1-0.2-6.5-0.2-10.3s0.1-7.7,0.1-11.5c0.1-3.8,0.1-7.6,0.1-11.4h-3c0,3.8-0.1,7.5-0.1,11.3c-0.1,3.8-0.1,7.7-0.1,11.5
				c0,3.8,0.1,7.2,0.2,10.2c-30.1-0.6-60.5-1.3-91-2.3c-0.3-2.7-0.5-5.6-0.5-9.1c0-2,0-4,0.1-6c0-2,0.1-4,0.1-6
				c0-3.7-0.2-6.8-0.5-9.6C370.4,102.5,380,102.5,389,102.5z"/>
			<path class="st1" d="M389,470.5c19.7,0,39.8-0.1,59.1-0.3c19.4-0.1,39.4-0.3,59.1-0.3c16.2,0,31,0.1,44.8,0.3
				c0,8.2-0.4,16.4-0.9,24.3c-0.2,3.6-0.4,7.3-0.5,11c-26.5-0.7-52.9-1.2-78.8-1.8c-5.6-0.1-11.1-0.2-16.7-0.3
				c-0.1-3.1-0.2-6.5-0.2-10.3s0.1-7.7,0.1-11.5c0.1-3.8,0.1-7.6,0.1-11.4h-3c0,3.8-0.1,7.5-0.1,11.3c-0.1,3.8-0.1,7.7-0.1,11.5
				s0.1,7.2,0.2,10.2c-30.1-0.6-60.5-1.3-91-2.3c-0.3-2.7-0.5-5.6-0.5-9.1c0-2,0-4,0.1-6c0-2,0.1-4,0.1-6c0-3.7-0.2-6.8-0.5-9.6
				C370.4,470.5,380,470.5,389,470.5z"/>
			<path class="st1" d="M411.9,580.6c-0.5,5.2-0.9,10.3-1.4,15.8c-24.8-0.1-50-0.3-75.1-0.7c-0.5-5.2-1-10.1-1.5-15
				c-0.5-5-1-9.9-1.5-15.3l-3,0.1c0.5,5.4,1,10.4,1.5,15.3c0.5,4.8,1,9.6,1.4,14.8c-4.3-0.1-430.8-0.2-435.1-0.3v-30
				c30.6-0.7,483.9-1.1,516.1-1.3C412.9,569.9,412.4,575.3,411.9,580.6z"/>
			<path class="st1" d="M358,49.6c0,3.4,0.1,6.8,0.3,10.3c-1.5,0-3.1,0-4.6,0c-11.5,0-445,0.3-456.4,0.8V33.2
				c12.6,0.2,447.4,0.5,460,0.9C357.9,39.3,357.9,44.5,358,49.6z"/>
			<path class="st1" d="M567.2,42.6H565c0,6.8,0.5,13.9,0.9,20.7c0.2,3.1,0.4,6.1,0.5,9.1c-34.1-0.7-68.6-3.6-102.2-6.4h-0.1
				c-0.1-5.6-0.6-11.2-1-16.6c-0.3-3.8-0.7-7.7-0.9-11.6c8.6,0.4,17.2,0.7,25.8,1.1c0,0.1,0,0.1,0,0.2h3l0,0
				c20.5,0.9,40.9,1.9,61.1,2.8C557.1,42.1,562.1,42.3,567.2,42.6z"/>
			<path class="st1" d="M528.7,564.7c0.1,1.3,0.1,2.5,0.1,3.8c0,5.2-0.4,10.5-0.8,15.6c-0.3,4.4-0.6,8.9-0.7,13.3
				c-31.9-0.6-63.7-0.7-94.8-0.8c-6.3,0-12.6,0-18.9-0.1c0.5-5.5,0.9-10.6,1.4-15.8c0.5-5.4,1-10.8,1.5-16.6
				c8.8,0,17.6-0.1,26.6-0.1C470.7,564.1,499.1,564.3,528.7,564.7z"/>
			<path class="st1" d="M488,407c0,0.1,0,0.1,0,0.2h3l0,0c20.5,0.9,40.9,1.9,61.1,2.8c5,0.2,10.1,0.5,15.2,0.7H565
				c0,6.8,0.5,13.9,0.9,20.7c0.2,3.1,0.4,6.1,0.5,9.1c-34.1-0.7-68.6-3.6-102.2-6.4h-0.1c-0.1-5.6-0.6-11.2-1-16.6
				c-0.3-3.8-0.7-7.7-0.9-11.6C470.8,406.2,479.4,406.6,488,407z"/>
			<path class="st1" d="M552,176c10.1,0,19.4,0.1,28.4,0.2v19.5c-9.7-0.2-19.3-0.3-28.8-0.5C552,188.9,552,182.3,552,176z"/>
			<path class="st1" d="M552,544c10.1,0,19.4,0.1,28.4,0.2v19.5c-9.7-0.2-19.3-0.3-28.8-0.5C552,556.9,552,550.3,552,544z"/>
			<path class="st1" d="M580.4,12.5v28.9c-9.4-0.4-18.8-0.9-28.1-1.3c-20.3-0.9-40.7-1.9-61.3-2.8c0.1-4.9,0.7-9.8,1.2-14.6
				c0.5-4,1-8.2,1.2-12.3l-3-0.1c-0.2,4.1-0.7,8.2-1.2,12.3c-0.6,4.8-1.1,9.7-1.2,14.6c-32.7-1.5-65.6-2.8-98.7-3.9
				c1.4-8.6,2.8-17.5,3.7-26.3c51.2,2,102.5,3.4,152.7,4.6C557.3,11.9,568.9,12.2,580.4,12.5z"/>
			<path class="st1" d="M506.8,138.3c-1.4,8.9-2.1,18.4-2.1,28.3c0,2.6,0.1,5.1,0.2,7.7c-7.8,0-15.6,0-23.4,0.1
				c-15.5,0.1-31.1,0.1-46.6,0.1c-11.6,0-23.4,0-35.3-0.1c-0.5-6.6-1-12.8-1.5-19c-0.5-6.3-1-12.6-1.5-19.3l-3,0.1
				c0.5,6.7,1,13,1.5,19.3c0.5,6.2,1,12.4,1.5,18.9c-25.1-0.2-473.1-0.7-499.2-1.8v-39.1c65.4-1,262.3-0.7,409,0.9
				c80.2,0.8,147.7,3,165.4,3.3C483.3,137.8,495,138,506.8,138.3z"/>
			<path class="st1" d="M-102.7,430.4c11.4-0.5,444.9-0.8,456.4-0.8c21.6,0,43.6,1.1,66.3,2.7l-2,0.1c0.9,11.7,2.3,23,3.7,34.8
				l0.2,1.5c-10.9,0.1-21.9,0.1-32.8,0.1c-20.3,0-466.3-0.1-491.7-0.9v-37.5H-102.7z"/>
			<path class="st1" d="M367.4-4.6c-0.4,2.9-0.7,5.8-1.1,8.7c-15.6-0.7-453.5-1.5-469-2.4v-21.8H369C368.8-15,368.1-9.8,367.4-4.6z"
				/>
			<path class="st1" d="M545.9,9.9c-10.1-0.3-20.3-0.5-30.4-0.8c0.7-4.8,1-9.5,1.3-14.1c0.3-5,0.6-10,1.4-15.2h62.2v30.9
				C568.9,10.5,557.4,10.2,545.9,9.9z"/>
			<path class="st1" d="M559.3,601.5c0.1-0.6,0.1-1.1,0.2-1.7c7,0.2,14,0.4,21,0.7v1H559.3z"/>
			<path class="st1" d="M-102.7,62.4c11.4-0.5,444.9-0.8,456.4-0.8c21.6,0,43.6,1.1,66.3,2.7l-2,0.1c0.9,11.7,2.3,23,3.7,34.8
				l0.2,1.5c-10.9,0.1-21.9,0.1-32.8,0.1c-20.3,0-466.3-0.1-491.7-0.9V62.4H-102.7z"/>
			<path class="st1" d="M-102.7,345.5c7.9,0.3,438.1,0.5,446.1,0.7c0,8.9,0.5,17.3,0.9,26.3c-8.3-0.4-438.7-0.8-447-1.2
				L-102.7,345.5L-102.7,345.5z"/>
			<path class="st1" d="M347.3,372.7c25.7,1.1,51.5,1.9,77.2,2.5c0.3-3.6,0.6-7.1,1-10.6c0.6-5.4,1.3-11,1.3-16.6h3
				c0,5.7-0.7,11.3-1.3,16.8c-0.4,3.4-0.8,7-1,10.5c39.7,1,79.4,1.7,118.4,2.6c11.5,0.3,23,0.6,34.5,0.9v-33.9
				c-3.5,0.1-7,0.3-10.5,0.4c0,1.1,0.1,2.2,0.1,3.3c0,4.3-0.3,8.7-0.6,13c-0.3,4.2-0.6,8.6-0.6,12.9c0,1.2,0,2.5,0.1,3.7h-3
				c-0.1-1.2-0.1-2.5-0.1-3.8c0-4.3,0.3-8.7,0.6-13c0.3-4.2,0.6-8.6,0.6-12.9c0-1,0-2.1-0.1-3.1c-12.4,0.4-24.8,0.8-37.3,1.1v0.1
				l-1.2-0.1c-29.2,0.7-58.3,1.1-87.2,1.1c-20.2,0-40.6-0.2-61-0.6h-2.1c0,0,0,0,0-0.1c-10.6-0.2-21.2-0.4-31.8-0.7
				C346.4,355.2,346.8,363.7,347.3,372.7z M495.4,376.3l0.2-1.2c1.4-9.2,2.9-18.7,5.3-27.9l2.9,0.3c-2.4,9.1-3.8,18.6-5.3,27.8
				l-0.2,1.2L495.4,376.3z"/>
			<path class="st1" d="M339.9,255.6c-1.4,5.4-1.5,10.9-1.7,16.2c0,1.7-0.1,3.3-0.2,5c-6.2-0.1-434.5-0.3-440.7-0.4v-20.8
				c3.4,0,429.1,0,432.6,0C333.2,255.5,336.5,255.6,339.9,255.6z"/>
			<path class="st1" d="M569.4,440.5c-0.2-3.1-0.3-6.1-0.5-9.2c-0.4-6.8-0.9-13.8-0.9-20.6c4.2,0.2,8.3,0.4,12.5,0.6v29.4
				C576.7,440.6,573.1,440.5,569.4,440.5z"/>
			<path class="st1" d="M392.9,376.1c10.5,0.3,21,0.6,31.5,0.9c0,0.1,0,0.2,0,0.3l3,0.1c0-0.1,0-0.2,0-0.3c21.1,0.5,42.1,1,63.1,1.4
				c-0.2,4.1-0.7,8.2-1.2,12.2c-0.6,4.8-1.1,9.7-1.2,14.6c-32.7-1.5-65.6-2.8-98.7-3.9C390.7,393,392,384.5,392.9,376.1z"/>
			<path class="st1" d="M580.4,230.7c-16.7-0.6-33.4-1-50.1-1.3c0.1-4.4,0.4-8.9,0.7-13.3c0.4-5.2,0.8-10.5,0.8-15.7
				c0-1.3,0-2.5-0.1-3.8c15.9,0.2,32.1,0.5,48.7,0.8L580.4,230.7L580.4,230.7z"/>
			<path class="st1" d="M370.7,254.2c-13.6-0.3-27.3-0.4-40.8-0.4c-3.5,0-429.2,0-432.6,0v-24.7c17.1,0.4,456.4,0.6,473.4,0.8V254.2
				z"/>
			<path class="st1" d="M580.4,255.6c-7.5,0.4-15.3,0.7-23.2,0.9c0.8-4.9,1.1-9.9,1.5-14.8c0.2-3.3,0.5-6.6,0.8-9.9
				c7,0.2,14,0.4,21,0.7L580.4,255.6L580.4,255.6z"/>
		</g>
		<g class="st4">
			<path class="st1" d="M244.4,84.4c0.4-7.4,0.8-15.1,2-22.5c30.2-0.1,64.9-0.2,86.7-0.3c-0.5,6.5-1.3,12.9-2.2,19.2
				c-0.9,6.5-1.8,13.2-2.3,19.9c-27.1-0.1-58.6-0.1-85.3-0.3C243.8,95.1,244.1,89.6,244.4,84.4z"/>
			<path class="st1" d="M178.9,132c0.3-1.4,0.4-4.2,0.4-9.6c0-2,0-4-0.1-6c0-2-0.1-4-0.1-6c0-3.3,0.2-6,0.4-8.5
				c28.2,0,48.5,0,53.8,0.1c10.1,0,21.2,0.1,32.4,0.1c-0.1,5.7-0.6,11.3-1.2,16.8c-0.4,4.4-0.9,8.9-1.1,13.4
				c-11-0.1-21.7-0.1-31.6-0.2C226.8,132.1,206.8,132,178.9,132z"/>
			<path class="st1" d="M123.8,3.9c0.1,0.9,0.1,1.7,0.1,2.6c0,5.1-0.9,10.2-1.9,15.1c-0.6,3.3-1.2,6.7-1.6,10c-10.8,0-22.1,0-33.7,0
				l-2.6-0.2c0,0.1,0,0.1,0,0.2c-18.1,0-36.8,0-55.1,0V3.7C61.2,3.8,94.6,3.8,123.8,3.9z"/>
			<path class="st1" d="M230.6,31.8L230.6,31.8c-4.6,0-9.1,0-13.2,0c0-9.1,0.5-18.3,1.3-27.5c23.6,0.4,56.3,0.8,87,1.2
				c-0.3,2.5-0.4,5.1-0.4,8.1c0,2.3,0.1,4.6,0.1,6.9c0.1,2.3,0.1,4.6,0.1,6.9c0,1.4,0,3.4-0.1,4.9c-25.3-0.2-52.1-0.3-74.1-0.5
				H230.6z"/>
			<path class="st1" d="M243.8,60L243.8,60c-5,0.1-9.9,0.1-14.5,0.2c0.5-4.6,1.3-9.3,2-13.9c0.7-4.2,1.4-8.6,1.9-12.9
				c16.2,0.1,34.7,0.1,52.5,0.2c0,0.7,0.1,1.4,0.1,2.1c0,4.7-0.5,9.7-1,14.4c-0.3,3.3-0.7,6.6-0.9,9.9c-13,0-26.4,0.1-38.9,0.2
				L243.8,60z"/>
			<path class="st1" d="M271.5,307.8c-8.5,0-30.9-0.1-60.7-0.1c-0.1-1.9-0.1-3.8-0.1-5.6c0-4.1,0.2-8.3,0.3-12.4
				c0.1-3.8,0.3-7.6,0.3-11.4c1.7,0,2.9,0,3.5,0c22.8,0.1,55.9,0.1,83.1,0.2v29.4C289.5,307.8,280.6,307.8,271.5,307.8z"/>
			<path class="st1" d="M221.6,241.5c0.3-4,0.7-8,0.9-12.1c22.1,0.1,51,0.2,77.6,0.3c-0.5,7.9-1.4,16.1-4.3,24.1
				c-22.8,0-52.5,0-75.1,0C221,249.6,221.3,245.6,221.6,241.5z"/>
			<path class="st1" d="M208.5,344.2c0-0.1,0-0.1,0-0.2l-2.8,0.2c-9.7,0-22.1,0-36.3-0.1c-0.9-12-1.8-22.9-3-34.2
				c25.4,0.1,48.5,0.1,66.8,0.2c0.9,4.1,1.4,8.5,1.4,13.9c0,3.6-0.2,7.2-0.4,10.7c-0.2,3.1-0.3,6.4-0.3,9.6c-2.4,0-4.7,0-6.9-0.1
				C224.5,344.3,218,344.3,208.5,344.2z"/>
			<path class="st1" d="M223,195.5c-4.3,0-23.5,0-50.7,0c1.7-6.9,2.6-13.9,3.5-20.7c26.1,0.1,44.2,0.1,47.8,0.2
				c9.6,0.1,20.3,0.3,31.7,0.4c0.2,1.6,0.4,3.2,0.4,5.1c0,2.7-0.3,5.5-0.5,8.2c-0.2,2.2-0.4,4.5-0.4,6.8c-5.6,0-11.2,0-16.5,0v-0.1
				l-2.8,0.1l0,0C231,195.5,226.9,195.5,223,195.5z"/>
			<path class="st1" d="M198.5,60.4c0-6.1,0.4-12.4,0.9-18.4c0.2-2.9,0.4-5.8,0.5-8.7c3.9,0,6.4,0,7.1,0c6.6,0,14.6,0.1,23.3,0.1
				c-0.5,4.2-1.2,8.5-1.9,12.6c-0.8,4.7-1.6,9.5-2.1,14.2c-6,0-11.6,0.1-16.5,0.1C208.8,60.4,204.7,60.4,198.5,60.4z"/>
			<path class="st1" d="M135.9,100.2l2.8-0.2c-1.4-12.8-1.4-25.5-1.4-37.8c39.2,0,68.2-0.1,71.5-0.1c9.6-0.1,21.6-0.1,34.6-0.2
				c-1.2,7.4-1.6,15-1.9,22.3c-0.3,5.3-0.5,10.7-1.1,16.1l0.7,0.1c-2.4,0-4.7,0-7,0c-10.7-0.1-90.8-0.1-170.2-0.2
				c-0.5-7.3-0.8-14.7-0.8-22.6c0-4.7,0.1-9.8,0.3-15.3c24.9,0,49.4,0,71.1,0C134.5,74.5,134.6,87.3,135.9,100.2z"/>
			<path class="st1" d="M195.2-12.4c0.3,4.7,0.7,9.6,1.5,14.6c-18.5,0-56-0.1-98.3-0.1c0.4-7.3,0.7-14.8,0.8-22.1h95.4
				C194.8-17.6,195-15,195.2-12.4z"/>
			<path class="st1" d="M45.5,101.8c-0.1,1.4-0.3,3.5-0.4,7.1c-0.4,7.9-1,19.7-1.4,22.9l0,0c-26.1,0-51.4-0.1-73.5-0.1
				c-0.6-4.7-1.5-9.3-2.4-13.8c-1-5.3-2-10.7-2.6-16.2C-11,101.8,16.9,101.8,45.5,101.8z"/>
			<path class="st1" d="M138.4,162.5c0-3.5,0.1-6.9,0.1-10.4c0-6.1-0.1-11.7-0.5-18.4c31.8,0,62,0,87.2,0.1
				c-1.4,7.3-1.8,14.9-2.1,22.2c-0.3,5.6-0.6,11.4-1.3,17.2c-6.2,0-23.8-0.1-47.9-0.1l-0.7-0.1v0.1c-10.5,0-22.3,0-34.8-0.1
				C138.3,169.4,138.3,166,138.4,162.5z"/>
			<path class="st1" d="M169.4,195.5c-22.1,0-49.1,0-77.4,0c0.2-2.9,0.6-6,0.9-8.9c0.5-3.9,1-8,1-11.9c29.1,0,56.7,0.1,78.9,0.1
				C172.1,181.7,171.1,188.7,169.4,195.5z"/>
			<path class="st1" d="M150.3,197.1c-1.4,4.9-1.6,9.9-1.9,14.8c-0.2,5.1-0.5,10.4-2.1,15.5h0.1c-22.2,0-48.5,0-75.5,0v-30.2
				C99,197.2,126.6,197.1,150.3,197.1z"/>
			<path class="st1" d="M199.4,428.3c0-0.9-0.1-2-0.1-2.5c0-3.6,1-7.3,1.9-10.8c0.9-3.6,1.9-7.4,1.9-11.2c0-0.8-0.1-1.6-0.2-2.3
				c16.7,0,28.4,0,32.4,0c16.5,0.1,35.3,0.1,53.1,0.2c0,0.8-0.1,1.7-0.1,2.5c0,2.3,0.1,4.6,0.1,7c0.1,2.3,0.1,4.7,0.1,7
				c0,3.3-0.1,6.9-0.4,9.9c-16.8,0.1-34.7,0.1-50.6,0.2C233.1,428.2,219.1,428.3,199.4,428.3z"/>
			<path class="st1" d="M29.5,274.3c0-0.9-0.1-1.8-0.1-2.7c0-0.3,0.1-1.2,0.3-2.4c0.4-3.1,1.2-8.5,1.3-13.6c27,0,54.9,0,80.5,0
				c0.1,1.7,0.2,3.3,0.4,5c0.3,4.1,0.7,8.3,0.7,12.4c0,1.2,0,2.3-0.1,3.4c-14.3,0-29.3,0-44.5,0l-2.6-0.2c0,0.1,0,0.1,0,0.2
				c-12,0-24,0-35.8,0C29.5,275.7,29.5,275,29.5,274.3z"/>
			<path class="st1" d="M28.1,255.5c-0.1,4.9-0.8,10.3-1.3,13.3c-0.2,1.4-0.3,2.4-0.3,2.7c0,0.9,0.1,1.9,0.1,2.8
				c0,0.7,0.1,1.4,0.1,2.1c-25.6,0-50.2,0-70.9,0l2.2-0.2c-0.3-2.6-0.4-5-0.4-7.3v-3.7c0-2.9-0.1-6.2-0.7-9.6
				C-22.2,255.5,2.5,255.5,28.1,255.5z"/>
			<path class="st1" d="M10.5,313.9c0,5.8,0.6,11.6,1.1,17.2c0.4,4.2,0.8,8.6,1,12.9c-14.9,0-29.2,0-42.4-0.1v-0.1l-0.5,0.1
				c-10.4,0-20.1,0-28.7,0h1.4c-0.4-9.2-0.3-18.8-0.3-28.1v-6.4c19,0.1,42.7,0.1,68.7,0.2C10.6,311,10.5,312.5,10.5,313.9z"/>
			<path class="st1" d="M-77,373.2c17.3,0.1,42,0.1,69.9,0.2c0,3.5-0.3,7-0.5,10.4c-0.3,3.9-0.5,7.9-0.5,11.9c0,1.3,0,2.6,0.1,4
				c-10.8,0-21.1,0-30.6,0c0-0.1,0-0.1,0-0.2l-1.4,0.2c-13,0-24.6,0-34.1,0l1.1-0.3c-1.5-4.8-1.9-9.7-2.3-14.5
				C-75.7,381-76.2,377.1-77,373.2z"/>
			<path class="st1" d="M-3.4,197.3v30h2.8v-30c21.9,0,45.4,0,68.7-0.1v30.2c-45.8,0-93.4,0-126.6,0c-0.5-5.4-1.7-10.6-2.8-15.7
				c-1.1-4.7-2.1-9.5-2.6-14.4C-47.2,197.3-26.3,197.3-3.4,197.3z"/>
			<path class="st1" d="M230.6,371.7c-0.1,0-0.2,0-0.4,0c-2.3,0-4.6,0-6.8,0c-2,0-7,0-14.4,0c-0.1-2.5-0.2-5-0.2-7.5v-7.1
				c0-3.6-0.1-7.4-0.4-11.4c9.6,0,16.2,0,18.7,0c14,0.1,30.1,0.1,45.8,0.2c0.3,2.3,0.5,4.6,0.5,7.1c0,6.7-1.1,13.3-2.2,18.9
				c-13.8-0.1-27.8-0.2-40.3-0.2C230.9,371.7,230.8,371.7,230.6,371.7z"/>
			<path class="st1" d="M-6.6,75.4C-6.8,80.2-7,85.3-7,90.2c0,3.6,0.1,6.8,0.3,9.9c-9.9,0-19.3,0-28.2,0V100l-1.4,0.1
				c-9.9,0-18.9,0-27.1,0l1.1-0.1c-0.4-3-0.9-6.1-1.4-9.1c-1.5-9.2-2.9-17.9-2.9-26.9c0-0.5,0-1.1,0-1.6c16.4,0,37.3,0,60.2,0
				C-6.3,66.7-6.4,71.1-6.6,75.4z"/>
			<path class="st1" d="M3-7.9c0,3.2,0,6.5,0.2,9.8c-4.5,0-8.8,0-13.2,0c0.2-3.7,0.7-7.6,1.1-11.5c0.4-3.5,0.8-7.1,1.1-10.6H2.5
				C2.8-16,2.9-11.9,3-7.9z"/>
			<path class="st1" d="M-55.6,133.5c14.7,0,32,0,51.1,0.1c-0.6,3-0.8,5.7-0.8,8.9c0,5.5,0.6,11.1,1.3,16.5c0.5,4.4,1,9.1,1.2,13.5
				l2.8-0.1c-0.2-4.5-0.7-9.2-1.2-13.7c-0.6-5.4-1.3-10.9-1.3-16.3c0-3.3,0.3-5.9,0.8-8.9c19.7,0,41.2,0,63.2,0.1
				c-0.2,6.4-0.6,12.8-0.9,19.2c-0.4,6.7-0.7,13.4-0.9,20c-35.6,0-71.1-0.1-99.8-0.1v-0.1l-1.8,0.1c-5.6,0-11,0-16,0
				C-56.6,159.3-56.1,146.2-55.6,133.5z"/>
			<path class="st1" d="M241.9,500.2c-3.3,0-10.7,0-21.3-0.1c-0.1-1.2-0.2-2.3-0.2-3.5c0-5.3,0.9-10.7,1.9-15.9
				c0.6-3.5,1.2-7.1,1.6-10.7c8.1,0,13.8,0,16.5,0c19.6,0.1,41.8,0.1,61.6,0.2c-0.2,3.7-0.6,7.5-0.9,11.1c-0.6,5.4-1.1,11-1.1,16.5
				c0,0.9,0,1.8,0.1,2.7C281.2,500.4,260.4,500.3,241.9,500.2z"/>
			<path class="st1" d="M205.7,345.8c0.3,3.9,0.4,7.8,0.4,11.4v7.1c0,2.5,0,5,0.2,7.5c-15.3,0-39.1-0.1-67-0.1
				c0.2-2.9,0.4-5.7,0.6-8.6c0.4-4.8,0.8-9.7,0.8-14.6c0-0.9,0-1.8-0.1-2.7C167,345.7,189.9,345.7,205.7,345.8z"/>
			<path class="st1" d="M-33.6,428c-2-5.9-2.8-12.1-3.5-18c-0.3-2.9-0.7-5.8-1.2-8.8c24.1,0,52.9,0,82.6,0c0.3,1.8,0.5,3.7,0.5,5.8
				c0,3.6-0.5,7.3-1,10.8s-1,7-1,10.6c-28.1,0-55.3,0.1-78.4,0.1L-33.6,428z"/>
			<path class="st1" d="M311.2,392.2c0.9-4,1.8-8.1,1.8-12.3c0-1.8-0.2-3.4-0.6-5c3.4,0,6.7,0.1,10,0.1c0,0.5,0,1,0,1.5
				c0,1,0.1,2,0.1,3.1c0,1-0.2,2.9-0.5,5.3c-0.4,4.3-1.1,10.1-1.1,15.6c-3.7,0-7.4-0.1-11.2-0.1C310,397.7,310.6,394.9,311.2,392.2z
				"/>
			<path class="st1" d="M214.6,563.5l0.1-1.4c0.4-6.2,0.8-12.6,0.8-18.9c14.5,0,24.6,0.1,28.3,0.1c15,0.2,31.6,0.3,48.6,0.4
				c0.2,1,0.3,2,0.3,3.1c0,3-0.6,6.2-1.2,9.2c-0.4,2.4-0.9,4.9-1.1,7.3c-8.9,0-18.2,0-27.4,0.1c0,0,0,0,0-0.1l-2.8-0.5
				c-0.1,0.2-0.1,0.4-0.1,0.6c-6.9,0-13.6,0-20.1,0.1C236.3,563.5,227.3,563.5,214.6,563.5z"/>
			<path class="st1" d="M-58.5,550c0,4.1,0.3,8.6,0.9,13.7c-26.8,0-44.3,0-45.1,0.1v-21.4c2.4,0.1,19.3,0.2,44.6,0.3
				C-58.3,544.9-58.5,547.4-58.5,550z"/>
			<path class="st1" d="M-67.8,472.2c0,3.4-0.2,6.9-0.4,10.2c-0.2,3.4-0.4,6.8-0.4,10.3c0,2.4,0.1,4.6,0.3,6.6l2.8-0.2
				c-0.2-2-0.3-4.1-0.3-6.4c0-3.4,0.2-6.9,0.4-10.2c0.2-3.4,0.4-6.9,0.4-10.4c0-0.8,0-1.6-0.1-2.5c16.8,0,38.1,0,61.6,0.1
				c-0.1,1.9-0.1,3.7-0.1,5.6c0,4.3,0.2,8.6,0.3,12.9c0.1,3.8,0.2,7.6,0.3,11.5c-55.1-0.1-98-0.1-99.8-0.2v-29.9
				c0.9,0,14.1,0.1,34.9,0.1C-67.8,470.6-67.8,471.4-67.8,472.2z"/>
			<path class="st1" d="M-31,356.7c0,1.9-0.1,3.9-0.1,5.8c-0.1,1.9-0.1,3.9-0.1,5.8c0,1.1,0,2.1,0.1,3.1c-41.1,0-70.8-0.1-71.5-0.1
				v-25.8c0.8,0,29.9,0.1,70.5,0.1C-31.1,349.7-31,353.6-31,356.7z"/>
			<path class="st1" d="M-33.5,574.5c-0.3,3.6-0.5,7.3-0.5,11c0,3.6,0.3,6.9,0.9,9.9c-40.4,0-69,0-69.5,0v-30
				c2.6-0.1,30.6-0.1,69.6-0.2C-33.1,568.4-33.3,571.5-33.5,574.5z"/>
			<path class="st1" d="M-78.2,385c0.4,4.7,0.9,9.7,2.3,14.5c-15.7,0-25.7,0-26.8-0.1V373c0.9,0,9.3,0.1,22.8,0.1
				C-79,377.1-78.6,381.1-78.2,385z"/>
			<path class="st1" d="M-22.7,467.8h2.8c0-12.4,0-25.1,0.9-37.5c17,0,35.5,0,54.6-0.1c0,1.8-0.1,3.6-0.1,5.4c0,9.5,0.6,19.6,2,32.6
				c-72.3-0.1-136.8-0.2-140.3-0.3v-37.5c1.3-0.1,35.1-0.1,80.9-0.2C-22.6,442.7-22.7,455.4-22.7,467.8z"/>
			<path class="st1" d="M-75.6,511.6c1.3,9.6,2.6,19.6,6.6,29.1c-19.5-0.1-32.1-0.1-33.6-0.2v-39.1c1.9,0.1,11.2,0.2,25.6,0.2
				C-76.5,504.9-76,508.3-75.6,511.6z"/>
			<path class="st1" d="M-20.3,44.6c0.1,5.2,0.1,10.5,0.9,15.9c-46.9,0-82.5,0.1-83.3,0.1V33.2c0.8,0,35.8,0,82,0
				C-20.4,37.1-20.3,40.9-20.3,44.6z"/>
			<path class="st1" d="M-77.5,113.4c0.6,5.2,1.2,10.5,1.2,15.7c0,0.8,0,1.7-0.1,2.5c-15.8,0-25.7-0.1-26.4-0.1v-29.9
				c0.7,0,9.6,0,24.1,0.1C-78.4,105.6-78,109.6-77.5,113.4z"/>
			<path class="st1" d="M-68.5,22.6c0,3,0.1,5.9,0.2,8.8c-20.5,0-33.6,0-34.4,0v-28c0.8,0,14.1,0.1,34.7,0.1
				C-68.2,9.6-68.5,16.2-68.5,22.6z"/>
			<path class="st1" d="M-42.8,176.2c0,1.9-0.1,3.8-0.1,5.7c-0.1,1.9-0.1,3.9-0.1,5.8c0,3.1,0.2,5.6,0.6,8c-35.1,0-59.4,0-60.2,0.1
				v-21.4c2.1,0.1,25.9,0.2,59.8,0.2C-42.8,175-42.8,175.6-42.8,176.2z"/>
			<path class="st1" d="M-3.1,286.6c-0.4,5.3-0.8,10.8-0.8,16.2c0,1.4,0,2.8,0.1,4.2l2.8,0c-0.1-1.4-0.1-2.8-0.1-4.2
				c0-5.3,0.4-10.8,0.8-16.1c0.2-2.9,0.4-5.8,0.6-8.6c20.7,0,42.9,0,64.9,0c-0.3,4-0.4,8.3-0.4,13.7c0,2.6,0,5.2,0.1,7.8
				c0,2.6,0.1,5.2,0.1,7.8h2.8c0-2.6,0-5.2-0.1-7.8c0-2.6-0.1-5.2-0.1-7.8c0-5.5,0.1-9.8,0.4-13.7c27.3,0,54.2,0,77.3,0
				c0,1-0.1,2-0.1,3c0,2.9,0.1,5.7,0.2,8.5c0.1,2.8,0.2,5.6,0.2,8.4c0,3.6-0.2,6.6-0.5,9.5c-108.2-0.1-245-0.2-247.8-0.3V278
				c0.8,0,45,0,100.2,0.1C-2.7,281-2.9,283.8-3.1,286.6z"/>
			<path class="st1" d="M-71.5,232.4c0,4.6,1.1,9.3,2.1,13.8c0.6,2.4,1.1,4.8,1.5,7.1l2.8-0.3c-0.4-2.4-1-4.9-1.5-7.3
				c-1-4.4-2.1-8.9-2.1-13.3c0-1.1,0.1-2.2,0.3-3.2c13.5,0,30.3,0,48.8,0c0.8,4.1,1.4,8.2,1.9,12.2s1.1,8.2,1.9,12.4
				c-9.7,0-19,0-27.6,0l0,0h-0.2c-34.8,0-58.9,0-59.1,0v-24.7c0.6,0,12.6,0,31.5,0C-71.4,230.2-71.5,231.2-71.5,232.4z"/>
			<path class="st1" d="M119.8,428.4l0.1-2.3c0.2-4.3,0.5-9.1,0.5-12.9c0-4.4-0.3-8.3-0.8-11.9c31,0,59.4,0,80.5,0.1
				c0.1,0.8,0.2,1.5,0.2,2.3c0,3.6-0.9,7-1.9,10.7s-1.9,7.4-1.9,11.3c0,0.5,0,1.6,0.1,2.5C175.7,428.3,148.9,428.4,119.8,428.4z"/>
			<path class="st1" d="M139.7,469.9c0,3.2-0.1,6.5-0.3,9.8c-0.2,3.5-0.3,7.1-0.3,10.7s0.2,6.7,0.5,9.6c-22.4,0-46.6-0.1-70.9-0.1
				c-1.3-9.6-2.7-20.4-2.9-30C91.1,469.9,116.4,469.9,139.7,469.9z"/>
			<path class="st1" d="M73.1,384.8v2.5c0,4.1,0.1,8.2,0.7,12.4c-27.9,0-56.1,0-81.5-0.1l2.4-0.1c-0.1-1.3-0.1-2.6-0.1-3.9
				c0-3.9,0.3-7.9,0.5-11.7c0.2-3.4,0.4-7,0.5-10.5c24.2,0,50.7,0.1,76.9,0.1C73,377.3,73.1,381,73.1,384.8z"/>
			<path class="st1" d="M53.2,502c1.5,15.5,6.1,37.9,6.2,38.1c0,0.2,0,0.5-0.1,0.8c-25.4,0-50.4-0.1-72.9-0.1
				c0.3-4.7,0.9-9.4,1.4-14c0.9-7.6,1.8-15.4,1.8-23.1c0-0.6,0-1.2,0-1.9C9.5,501.9,31.2,502,53.2,502z"/>
			<path class="st1" d="M-66.2,540.4c-4-9.4-5.3-19.4-6.6-29c-0.4-3.2-0.9-6.5-1.4-9.7c15.8,0.1,37,0.2,61,0.2c0,0.6,0,1.2,0,1.9
				c0,7.6-0.9,15.4-1.8,22.9c-0.5,4.7-1.1,9.5-1.4,14.2c-19.4,0-36.9-0.1-51-0.1L-66.2,540.4z"/>
			<path class="st1" d="M82.4,547.6c0,2.1,0.1,4.3,0.2,6.4c0.1,2.1,0.2,4.2,0.2,6.3c0,1.1,0,2.1-0.1,3.2l2.8,0.1
				c-26,0-52.5,0-77.1,0c0.5-3.6,1.3-7.2,2-10.6c0.7-3.3,1.5-6.8,2-10.2c22.5,0.1,46.5,0.1,70.2,0.2
				C82.5,544.3,82.4,545.9,82.4,547.6z"/>
			<path class="st1" d="M188.2,468.4c0.1-2.1,0.1-4.2,0.2-6.3c0.3-10.8,0.7-21.9,2.4-32c24.1,0,41.3-0.1,46.4-0.1
				c7.5,0,15.4-0.1,23.4-0.1c0,12.6,0,25.6-1.8,38.7c-6.5,0-12.9-0.1-19-0.1C234.4,468.4,215.1,468.4,188.2,468.4z"/>
			<path class="st1" d="M123.3,541.1c0.4-4.7,1.2-9.4,2-13.9c1.1-6,2.3-12.3,2.3-18.5c0-2.3-0.2-4.4-0.5-6.4
				c18.4,0.1,35.8,0.1,51.3,0.2c-0.1,0.9-0.1,2-0.1,3.5c0,4.6-0.2,9.3-0.4,13.8s-0.4,9.2-0.4,13.9c0,2.7,0.1,5.2,0.2,7.6
				C161.3,541.1,142.8,541.1,123.3,541.1z"/>
			<path class="st1" d="M166.5,344.2c-22.9,0-50.2-0.1-78.5-0.1c0.1-1,0.1-2.6,0.1-5.1c0-2.9-0.1-5.9-0.1-8.8
				c-0.1-2.9-0.1-5.8-0.1-8.8c0-4.5,0.2-8.2,0.5-11.6c25.7,0.1,51.4,0.1,75.1,0.2C164.7,321.3,165.6,332.2,166.5,344.2z"/>
			<path class="st1" d="M115.4,273c0-4.2-0.3-8.5-0.7-12.6c-0.1-1.6-0.3-3.3-0.4-4.9c30.7,0,57.8,0,75.6,0
				c-1.5,9.9-2.5,20.7-2.5,20.8l1.4,0.1c-18.2,0-44.4,0-73.7,0C115.3,275.3,115.4,274.2,115.4,273z"/>
			<path class="st1" d="M84,33.3c-0.2,1.7-0.3,3.3-0.5,5c-0.8,7.3-1.6,14.9-1.6,22.2c-33.1,0-68,0-98.4,0.1
				c-0.7-5.4-0.8-10.7-0.9-16c0-3.7-0.1-7.5-0.4-11.4C13.6,33.2,49.8,33.3,84,33.3z"/>
		</g>
	</g>
	<path class="st1" d="M495.7,376.3l3,0.2l0.2-1.2c1.4-9.1,2.9-18.6,5.2-27.8l-2.9-0.3c-2.4,9.2-3.8,18.7-5.3,27.9L495.7,376.3z"/>
</g>
<g>
	<g>
		<g>
			<g transform="matrix(1,0,0,1,-593.365,-904.259)">
				
					<ellipse transform="matrix(0.7071 -0.7071 0.7071 0.7071 -453.9562 910.0249)" class="st5" cx="871.5" cy="1003" rx="80.3" ry="80.3"/>
			</g>
			<g transform="matrix(1,0,0,1,-569.688,-910)">
				<path class="st5" d="M779.7,1043.2l-40.9-19.5l43.8-11L779.7,1043.2z"/>
			</g>
		</g>
	</g>
	<g>
		<g>
			<polygon class="st6" points="219.8,102.7 295,155.6 329.6,136 329.6,116.1 219.8,92.8 			"/>
		</g>
		<g>
			<polygon class="st7" points="219.8,112.7 295,155.6 294.6,130.2 219.8,92.8 			"/>
		</g>
		<g>
			<g>
				<path class="st8" d="M219.9,92.7c24.7,15,49.9,29.2,75,43.5c11.6-6.6,23.2-13.3,34.8-19.9c-24.9-14.7-49.9-29.2-75-43.5
					C243.1,79.5,231.5,86.1,219.9,92.7z"/>
				<path class="st6" d="M256,76.7c-9.4,5.3-18.8,10.7-28.2,16c22.5,13.4,45.3,26.4,68,39.4c9.3-5.4,18.6-10.7,27.9-16.1
					C301.3,102.8,278.7,89.7,256,76.7z M290.3,124.8c-6.4-3.7-12.8-7.4-19.3-11.1c5.2,0.6,11.1-0.5,15.5-3c4.6-2.7,6.3-6.3,5.1-9.5
					c6.5,3.8,13.1,7.6,19.6,11.4c-2.8,1.6-3.6,5.3-0.7,6.9c-4.1,2.4-6.1,3.5-10.2,5.9C297.3,123.9,293,123.2,290.3,124.8z
					 M249.7,84.4c2.9,1.7,9.1,1.2,12-0.4c6.4,3.7,12.7,7.3,19.1,11c-5.5-0.7-11.9,0.2-16.6,2.9c-4.4,2.5-6.3,5.9-5.4,8.9
					c-6.2-3.6-12.3-7.2-18.5-10.8c2.8-1.6,1.8-4-1-5.7C243.5,87.9,245.6,86.8,249.7,84.4z"/>
				<g>
					<path class="st9" d="M282.7,104.5c0-0.1,0-0.3-0.1-0.5s-0.2-0.4-0.4-0.6c-0.2-0.2-0.4-0.5-0.6-0.7s-0.5-0.5-0.9-0.7
						c-1.4,0.8-2.1,1.2-3.5,2c0.1,0.1,0.2,0.1,0.3,0.2c0.5,0.5,0.9,0.9,1.3,1.3c0.3,0.4,0.6,0.8,0.7,1.2c0.1,0.4,0.1,0.7-0.1,1
						s-0.5,0.7-1.1,1s-1.2,0.6-1.9,0.7c-0.7,0.1-1.3,0.1-2,0.1c-0.7-0.1-1.4-0.2-2.1-0.5c-0.7-0.2-1.3-0.5-2-0.9
						c-0.7,0.4-1.1,0.6-1.8,1c-0.4-0.2-0.6-0.3-1-0.5c0.7-0.4,1.1-0.6,1.8-1c-0.8-0.5-1.5-1.1-2-1.7s-0.9-1.2-1-1.9
						c1-0.2,1.5-0.2,2.6-0.4c0,0.2,0,0.4,0.1,0.6s0.2,0.5,0.4,0.8c0.2,0.3,0.4,0.6,0.7,0.9c0.3,0.3,0.6,0.6,1,0.9
						c1.4-0.8,2.1-1.2,3.5-2c0-0.1-0.1-0.1-0.2-0.2s-0.1-0.1-0.2-0.2c-0.5-0.5-0.9-0.9-1.2-1.3c-0.3-0.4-0.5-0.7-0.5-1.1
						c-0.1-0.3,0-0.6,0.2-0.9s0.5-0.6,1-0.8c0.6-0.3,1.2-0.5,1.8-0.7c0.6-0.1,1.3-0.2,2-0.1c0.7,0,1.4,0.2,2.1,0.3
						c0.7,0.2,1.3,0.4,2,0.8c0.7-0.4,1-0.6,1.7-1c0.4,0.2,0.6,0.3,0.9,0.5c-0.7,0.4-1,0.6-1.7,1c0.7,0.5,1.3,1,1.7,1.5
						c0.4,0.5,0.7,1,0.9,1.5C284.2,104.3,283.7,104.4,282.7,104.5z M276.3,101.3c-0.5,0.3-0.7,0.6-0.5,0.9c0.1,0.3,0.4,0.8,1,1.3
						c1.4-0.8,2-1.2,3.4-1.9c-0.8-0.4-1.5-0.6-2.1-0.7C277.3,100.9,276.8,101,276.3,101.3z M275.8,107.6c0.5-0.3,0.7-0.6,0.5-1
						s-0.5-0.9-1.1-1.4c-1.4,0.8-2,1.2-3.4,1.9c0.8,0.4,1.5,0.7,2.2,0.8C274.8,108,275.3,107.9,275.8,107.6z"/>
				</g>
				<path class="st9" d="M292.9,115c-1.5,0.9-1.4,2.3,0.2,3.3c1.6,0.9,4.1,0.9,5.6,0.1c1.5-0.9,1.4-2.3-0.1-3.2
					C296.9,114.2,294.4,114.1,292.9,115z"/>
				<path class="st9" d="M256.8,94.2c-1.5,0.9-4.1,0.8-5.7-0.1s-1.6-2.4-0.1-3.2c1.5-0.9,4.1-0.8,5.7,0.1
					C258.3,91.8,258.4,93.3,256.8,94.2z"/>
			</g>
		</g>
	</g>
	<g>
		<g>
			<polygon class="st6" points="232.8,64.7 308,117.6 342.5,98 342.5,78.1 232.8,54.8 			"/>
		</g>
		<g>
			<polygon class="st7" points="232.8,74.7 308,117.6 307.6,92.2 232.8,54.8 			"/>
		</g>
		<g>
			<g>
				<path class="st8" d="M232.9,54.7c24.7,15,49.9,29.2,75,43.5c11.6-6.6,23.2-13.3,34.8-19.9c-24.9-14.7-49.9-29.2-75-43.5
					C256.1,41.5,244.5,48.1,232.9,54.7z"/>
				<path class="st6" d="M269,38.7c-9.4,5.3-18.8,10.7-28.2,16c22.5,13.4,45.3,26.4,68.1,39.4c9.3-5.4,18.6-10.7,27.9-16.1
					C314.2,64.8,291.6,51.7,269,38.7z M303.2,86.8c-6.4-3.7-12.8-7.4-19.3-11.1c5.2,0.6,11.1-0.5,15.5-3c4.6-2.7,6.3-6.3,5.1-9.5
					c6.5,3.8,13.1,7.6,19.6,11.4c-2.8,1.6-3.6,5.3-0.7,6.9c-4.1,2.4-6.1,3.5-10.2,5.9C310.3,85.9,306,85.2,303.2,86.8z M262.7,46.4
					c2.9,1.7,9.1,1.2,12-0.4c6.4,3.7,12.7,7.3,19.1,11c-5.5-0.7-11.9,0.2-16.6,2.9c-4.4,2.5-6.3,5.9-5.4,8.9
					c-6.2-3.6-12.3-7.2-18.5-10.8c2.8-1.6,1.8-4-1-5.7C256.4,49.9,258.5,48.8,262.7,46.4z"/>
				<g>
					<path class="st9" d="M295.6,66.5c0-0.1,0-0.3-0.1-0.5s-0.2-0.4-0.4-0.6c-0.2-0.2-0.4-0.5-0.6-0.7s-0.5-0.5-0.9-0.7
						c-1.4,0.8-2.1,1.2-3.5,2c0.1,0.1,0.2,0.1,0.3,0.2c0.5,0.5,0.9,0.9,1.3,1.3c0.3,0.4,0.6,0.8,0.7,1.2c0.1,0.4,0.1,0.7-0.1,1
						s-0.5,0.7-1.1,1s-1.2,0.6-1.9,0.7c-0.7,0.1-1.3,0.1-2,0.1c-0.7-0.1-1.4-0.2-2.1-0.5c-0.7-0.2-1.3-0.5-2-0.9
						c-0.7,0.4-1.1,0.6-1.8,1c-0.4-0.2-0.6-0.3-1-0.5c0.7-0.4,1.1-0.6,1.8-1c-0.8-0.5-1.5-1.1-2-1.7s-0.9-1.2-1-1.9
						c1-0.2,1.5-0.2,2.6-0.4c0,0.2,0,0.4,0.1,0.6s0.2,0.5,0.4,0.8c0.2,0.3,0.4,0.6,0.7,0.9c0.3,0.3,0.6,0.6,1,0.9
						c1.4-0.8,2.1-1.2,3.5-2c0-0.1-0.1-0.1-0.2-0.2s-0.1-0.1-0.2-0.2c-0.5-0.5-0.9-0.9-1.2-1.3c-0.3-0.4-0.5-0.7-0.5-1.1
						c-0.1-0.3,0-0.6,0.2-0.9s0.5-0.6,1-0.8c0.6-0.3,1.2-0.5,1.8-0.7c0.6-0.1,1.3-0.2,2-0.1c0.7,0,1.4,0.2,2.1,0.3
						c0.7,0.2,1.3,0.4,2,0.8c0.7-0.4,1-0.6,1.7-1c0.4,0.2,0.6,0.3,0.9,0.5c-0.7,0.4-1,0.6-1.7,1c0.7,0.5,1.3,1,1.7,1.5
						c0.4,0.5,0.7,1,0.9,1.5C297.1,66.3,296.6,66.4,295.6,66.5z M289.2,63.3c-0.5,0.3-0.7,0.6-0.5,0.9c0.1,0.3,0.4,0.8,1,1.3
						c1.4-0.8,2-1.2,3.4-1.9c-0.8-0.4-1.5-0.6-2.1-0.7C290.3,62.9,289.7,63,289.2,63.3z M288.8,69.6c0.5-0.3,0.7-0.6,0.5-1
						s-0.5-0.9-1.1-1.4c-1.4,0.8-2,1.2-3.4,1.9c0.8,0.4,1.5,0.7,2.2,0.8C287.7,70,288.3,69.9,288.8,69.6z"/>
				</g>
				<path class="st9" d="M305.8,77c-1.5,0.9-1.4,2.3,0.2,3.3c1.6,0.9,4.1,0.9,5.6,0.1c1.5-0.9,1.4-2.3-0.1-3.2
					C309.8,76.2,307.3,76.1,305.8,77z"/>
				<path class="st9" d="M269.7,56.2c-1.5,0.9-4.1,0.8-5.7-0.1c-1.6-0.9-1.6-2.4-0.1-3.2c1.5-0.9,4.1-0.8,5.7,0.1
					C271.2,53.8,271.3,55.3,269.7,56.2z"/>
			</g>
		</g>
	</g>
</g>
<g>
	<path class="st10" d="M409.2,682.7c-1.7-18.8-1.8-30.4-1.8-30.4l-12.9-221.3l-15,251.7h-25l-8.2-244.9c0,0-0.4-12.2-1.1-32.4v-47.7
		h98.7v47.7c-0.7,20.2-1.1,32.4-1.1,32.4l-8.1,244.8H409.2z"/>
	<g>
		<g>
			<path class="st11" d="M412.5,190.7c4.1-8.1,5.4-16.7,4.5-17.7c-1.9-2.1-9.4-1.7-7.1-19.4c0,0-8.9,4.4-28,1.2c0,0,1,3,1.5,6.9
				c0.6,4.6,0.4,10.7-2.9,14.7c0,0,2.3,8.2,5.9,14.6"/>
		</g>
		<g>
			<g>
				<g>
					<path class="st11" d="M328.5,387.7c0,0,5.4,7.7,5.4,8.2c0,0.5-1,18.2-4.9,18.2s-5.2-20.9-3.7-22.3
						C326.9,390.5,327.8,388.1,328.5,387.7z"/>
					<g>
						<path class="st11" d="M305.9,383.4c-2.4,6.3,0.2,30.1,1.1,35c0.5,2.7,2.9,3.1,4.7,3.1c5.9,0.1,11.2,4.8,14.3,2.7
							c0.8-0.6,4.5-1.2,4-4.8c-0.9-7.9-1.6-18.8-1.4-31.5C325,376.6,308.4,379,305.9,383.4z"/>
					</g>
				</g>
				<path class="st11" d="M318.2,263.9c0,0-1.4,7.8-2.4,10.8c-1,3.1-4.5,17.8-5,22c-0.5,4.3-7.4,84.6-3.6,90.9
					c3.8,6.3,17.1,4.3,18.7,0.5c1.7-3.8,10.6-68.2,11.1-72.5s4.8-38.7,6.6-42.4C345.5,269.6,319.4,259.7,318.2,263.9z"/>
				<g>
					<path class="st12" d="M356.4,179.1c-33.8-4.7-48,71.2-48.8,123.2c-0.1,3.3,31.2,10.9,31.8,4c2.7-29.9,10.3-77.6,16.3-94.6
						C358.1,204.9,360.4,179.6,356.4,179.1z"/>
				</g>
				<g class="st3">
					<path class="st13" d="M350.5,179.1c-24.1,13.6-33.2,92.9-33.9,114.7c-0.1,2.3,14,6.4,23.4,6.7c-0.3,1.8-0.7,3.7-1,5.6
						c-1.1,6.8-31.9-0.7-31.8-4C307.9,276.4,315.2,187,350.5,179.1z"/>
				</g>
			</g>
			<g>
				<path class="st12" d="M341.4,305.7l-0.4,4.8c-0.3,3.1-2.6,5.1-5.3,4.5l-5.9-1.4l-21.1-4.6c-2.5-0.6-4.5-3.3-4.5-6.3v-7.3
					c0-3.6,2.7-5.9,5.7-5.1l25.5,7.9l2.1,0.7C339.9,299.7,341.7,302.7,341.4,305.7z"/>
				<path class="st14" d="M335.2,298.2c0,0-13.5-4.5-14.3,3.2c-0.5,5.2,3.7,9.3,8.7,12.2l-21.1-4.6c-2.5-0.6-4.5-3.3-4.5-6.3v-7.3
					c0-3.6,2.7-5.9,5.7-5.1L335.2,298.2z"/>
			</g>
		</g>
		<g>
			<g>
				<g>
					<path class="st11" d="M465.6,396.8c0,0-5.6,7.5-5.6,8.1c-0.1,0.5,0.6,18.2,4.5,18.4c3.8,0.2,5.8-20.7,4.2-22.2
						C467.1,399.6,466.2,397.1,465.6,396.8z"/>
					<g>
						<path class="st11" d="M488.3,393.1c2.3,6.4-0.9,30.1-2,34.9c-0.6,2.7-3,3-4.8,2.9c-5.9-0.1-11.3,4.5-14.3,2.4
							c-0.8-0.6-4.5-1.4-3.9-4.9c1.1-7.9,2-18.8,2.2-31.5C469.5,385.8,485.9,388.7,488.3,393.1z"/>
					</g>
				</g>
				<path class="st11" d="M478.7,273.3c0,0,1.2,7.8,2.2,10.9c1,3.1,4,17.8,4.5,22.1s5.4,84.8,1.5,91c-3.9,6.2-17.1,3.8-18.7,0.1
					c-1.6-3.8-9-68.5-9.4-72.8s-3.8-38.8-5.7-42.6C451.3,278.3,477.6,269.1,478.7,273.3z"/>
				<path class="st15" d="M487.9,392.5c1.8-18.8-2.2-82.3-2.5-86.2c-0.4-4.3-3.4-19-4.5-22.1c-1-3.1-2.2-10.9-2.2-10.9
					c-0.3-1.2-2.8-1.3-6-0.8c0.3,1.1,0.5,2.2,0.8,2.9c1,3.1,4,17.8,4.5,22.1c0.3,3.8,4.4,67.4,2.5,86.2c0.2,0.2,0.3,0.3,0.3,0.5
					c2.3,6.4-0.9,30.1-2,34.9c-0.6,2.7-3,3-4.8,2.9c-3.8-0.1-7.4,1.8-10.2,2.6c-0.2,1.2-0.3,2.4-0.4,3.6c-0.5,3.6,3.1,4.4,3.9,4.9
					c3,2.2,8.3-2.4,14.3-2.4c1.7,0,4.1-0.3,4.8-2.9c1.1-4.8,4.2-28.5,2-34.9C488.2,392.9,488.1,392.7,487.9,392.5z"/>
				<g>
					<path class="st12" d="M438.3,182.5c33.8-4.7,48,71.2,48.8,123.2c0.1,3.3-31.2,10.9-31.8,4c-2.7-29.9-10.3-77.6-16.3-94.6
						C436.7,208.4,434.4,183,438.3,182.5z"/>
				</g>
				<g class="st3">
					<path class="st13" d="M444.3,182.5c24.1,13.6,33.2,92.9,33.9,114.7c0.1,2.3-14,6.4-23.4,6.7c0.3,1.8,0.7,3.7,1,5.6
						c1.1,6.8,31.9-0.7,31.8-4C486.9,279.9,479.6,190.5,444.3,182.5z"/>
				</g>
			</g>
			<g>
				<path class="st12" d="M453.4,312.8l-0.8-4.8c-0.5-3.1,1.2-5.7,3.9-5.9l6.1-0.4l21.5-1.7c2.5-0.2,5.1,1.8,5.9,4.7l1.9,7.1
					c1,3.4-1,6.6-4.2,6.5l-26.5-0.1h-2.2C456.5,318.3,454,315.9,453.4,312.8z"/>
				<path class="st14" d="M461.3,318.3c0,0,14.2,0.4,12.9-7.3c-0.8-5.2-5.9-7.9-11.5-9.1l21.5-1.7c2.5-0.2,5.1,1.8,5.9,4.7l1.9,7.1
					c1,3.4-1,6.6-4.2,6.5L461.3,318.3z"/>
			</g>
		</g>
		<g>
			<path class="st16" d="M353.8,175.3c-12.5,10.9-11.5,151.1-12.9,200c0,1.4,0.7,2.7,1.3,3.6c0.4,0.6,1,1,1.7,1.2
				c5.2,2.6,23.6,9.6,49.2,10.6c49.8,1.9,53.5-20.4,53.6-27c0.8-39.8,3.4-103.5,1.3-150.6c-0.8-17.1-5-33.4-14.9-38
				C423.4,170.5,363.8,166.7,353.8,175.3z"/>
		</g>
	</g>
	<g>
		<g>
			<g>
				<path class="st11" d="M354.3,109.7c1,7.5-2,14.1-6.7,14.7c-4.7,0.6-9.4-5-10.4-12.4c-1-7.5,2-14.1,6.7-14.8
					C348.6,96.6,353.2,102.2,354.3,109.7z"/>
			</g>
			<g>
				<path class="st11" d="M437.8,109.7c-1,7.5,2,14.1,6.7,14.7c4.7,0.6,9.4-5,10.3-12.4c1-7.5-2-14.1-6.7-14.8
					C443.4,96.6,438.8,102.2,437.8,109.7z"/>
			</g>
		</g>
		<path class="st17" d="M395.9,24.6L395.9,24.6c0.1,0,0.1,0,0.2,0s0.1,0,0.2,0l0,0c11.3,0.6,60.6,7.7,48.9,83.7l-2.9,31.8
			c0,0-2.5,7.2-11.4,13.9c0,0-15.2,12.9-28.1,18.5c0,0-2.8,0.8-6.6,2.2v0.1c-0.1,0-0.1,0-0.2-0.1c-0.1,0-0.1,0-0.2,0.1v-0.3
			c-3.8-1.4-6.6-2.2-6.6-2.2c-12.8-5.7-28-18.5-28-18.5c-8.8-6.7-9.3-13.9-9.3-13.9l-5-31.8C335.2,32.3,384.5,25.2,395.9,24.6z"/>
		<path class="st17" d="M358.1,14.2c0,0-17.1,9.3-19.4,30.1C337,59.5,343,97.6,343,97.6c4.6-0.8,3.6,8.9,3.6,8.9l1.9-0.2
			c0.3-23.8,11.3-37.3,11.3-37.3c-6-7.9,3.2-21.8,3.2-21.8c28.7,10.7,66-0.3,66-0.3s20.7-24.9,2.2-35.3
			C412.6,1.4,377,6.6,358.1,14.2z"/>
		<path class="st17" d="M428.8,46.8c0,0,9,12.5,6.7,22.2c0,0,12.2,9.7,8.3,37.3h1.8c0,0-0.6-10.7,5.2-8c0,0,6.2-34.4-3.8-56.3
			c0,0-5.1-12.9-19.7-18.5C427.4,23.5,432.5,41.6,428.8,46.8z"/>
	</g>
</g>
<g>
	<g>
		<path class="st18" d="M158.2,142c0,0-23.1,26.6-50.3,27.2C80.8,169.7,67.3,142,67.3,142l-4.2-49.1l67.2-5l31.9,6.1L158.2,142z"/>
	</g>
	<g>
		<path class="st19" d="M118.7,590.8c0,0-1.7,14.8-1,19.3c0.8,4.5,7.1,17.6,7.4,26.6c0.3,6.4-3.5,7.4-3.5,7.4h-18
			c0,0-1.4-0.7-1.3-6.5c0.1-5.7,0.8-19.4,1.8-22.1c1-2.8,1.6-5.2,1.6-7.6c-0.1-2.5-0.1-19.2-0.1-19.2L118.7,590.8z"/>
		<path class="st20" d="M99.7,637.5c0.1-4.5,2.1-13.8,3.5-18.9l0.6-1.8c0,0-0.1,13.4,1.2,14.5c1.3,1.2,14.9,1,16.1,0
			c0.8-0.6-0.3-8.2-1-13.9c2.1,5.8,4.8,13.4,5.1,19.3c0.3,6.4-3.5,7.4-3.5,7.4h-18C103.5,644,99.7,643.3,99.7,637.5z"/>
	</g>
	<g>
		<path class="st19" d="M151.1,294c0,0,9.3,10.5,9.3,41.7c0,89.9-23.1,136.2-24.9,146.1c-1.6,8.9,1.5,30,1.4,36.2
			c-0.3,18.4-18.9,79.7-18.9,79.7s0.9-1-4.3-1c-5,0-8-1.8-8-1.8s-0.8-44.5,2.2-76.7c1.5-16.3,4.1-29,3.8-31.9
			c-0.8-11.1,0.1-125.3,0.1-125.3s-21.8,69.4-25.6,79.8c-3.5,9.6-11.9,40.3-14.6,45.2c-2.7,4.8-5.1,11.4-6.1,14.2
			c-0.9,2.7-3.8,17.3-5.9,21.2c-2.1,3.9-29.6,67-29.6,67l-12-5.1c0,0,10.6-66.2,14.5-74.9c4.1-8.9,15.7-24.7,16.2-30.4
			c0.6-5.7,3.9-75.8,8-111.2c3.9-34,12.2-43.8,14.7-52.8c2.5-8.9,6.9-23.2,6.9-23.2L151.1,294z"/>
	</g>
	<g>
		<g>
			<defs>
				<path id="SVGID_1_" d="M151.1,294c0,0,18.1,11.2,18.1,42.5c0,89.9-30,135.3-31.8,145.2c-1.6,8.9-90.7,0.8-90-4.9
					c0.6-5.7-3.3-73.4,0.8-108.8c3.9-34,6.9-45.9,9.4-54.8c2.5-9.1,20.7-22.2,20.7-22.2L151.1,294z"/>
			</defs>
			<clipPath id="SVGID_2_">
				<use xlink:href="#SVGID_1_"  style="overflow:visible;"/>
			</clipPath>
			<g class="st21">
				<ellipse class="st22" cx="109.7" cy="292.5" rx="76.3" ry="35.5"/>
			</g>
		</g>
		<g>
			<defs>
				<path id="SVGID_3_" d="M151.1,294c0,0,18.1,11.2,18.1,42.5c0,89.9-30,135.3-31.8,145.2c-1.6,8.9-90.7,0.8-90-4.9
					c0.6-5.7-3.3-73.4,0.8-108.8c3.9-34,6.9-45.9,9.4-54.8c2.5-9.1,20.7-22.2,20.7-22.2L151.1,294z"/>
			</defs>
			<clipPath id="SVGID_4_">
				<use xlink:href="#SVGID_3_"  style="overflow:visible;"/>
			</clipPath>
			<g class="st23">
				<g>
					<path class="st22" d="M172.7,316c-1.6,4.8-6.2,7.7-10.6,9.9c-2.5,1.2-5,2.2-7.7,2.9c-2.2,0.6-4.4,1.2-6.7,1.1
						c-0.5,0-0.5-1.1-0.1-1.3c4.5-1.5,9.1-2.4,13.4-4.3c4.2-1.9,8.7-4.7,11.2-8.8C172.5,315.1,172.7,315.8,172.7,316L172.7,316z"/>
				</g>
			</g>
		</g>
		<g>
			<defs>
				<path id="SVGID_5_" d="M151.1,294c0,0,18.1,11.2,18.1,42.5c0,89.9-30,135.3-31.8,145.2c-1.6,8.9-90.7,0.8-90-4.9
					c0.6-5.7-3.3-73.4,0.8-108.8c3.9-34,6.9-45.9,9.4-54.8c2.5-9.1,20.7-22.2,20.7-22.2L151.1,294z"/>
			</defs>
			<clipPath id="SVGID_6_">
				<use xlink:href="#SVGID_5_"  style="overflow:visible;"/>
			</clipPath>
			<g class="st24">
				<g>
					<path class="st22" d="M172.1,322.9c-2.5,3-5.6,5.2-9.2,7c-3.5,1.8-7.7,3.2-11.8,3.2c-0.4,0-0.4-0.9-0.1-1
						c7.4-2.2,15.1-4.3,20.6-9.9C172.1,322,172.2,322.8,172.1,322.9L172.1,322.9z"/>
				</g>
			</g>
		</g>
		<g>
			<defs>
				<path id="SVGID_8_" d="M151.1,294c0,0,18.1,11.2,18.1,42.5c0,89.9-30,135.3-31.8,145.2c-1.6,8.9-90.7,0.8-90-4.9
					c0.6-5.7-3.3-73.4,0.8-108.8c3.9-34,6.9-45.9,9.4-54.8c2.5-9.1,20.7-22.2,20.7-22.2L151.1,294z"/>
			</defs>
			<clipPath id="SVGID_9_">
				<use xlink:href="#SVGID_8_"  style="overflow:visible;"/>
			</clipPath>
			<g class="st25">
				<g>
					<path class="st22" d="M76,332.8c-4.1,1.2-8.5,0.1-12.5-1.2c-4.2-1.4-8.4-3.2-12.3-5.4c-0.3-0.2-0.3-1,0.2-0.9
						c3.9,1.4,7.6,3.3,11.5,4.8c4,1.5,8.6,2.9,12.8,1.8C76.3,331.7,76.4,332.7,76,332.8L76,332.8z"/>
				</g>
			</g>
		</g>
		<g>
			<defs>
				<path id="SVGID_10_" d="M151.1,294c0,0,18.1,11.2,18.1,42.5c0,89.9-30,135.3-31.8,145.2c-1.6,8.9-90.7,0.8-90-4.9
					c0.6-5.7-3.3-73.4,0.8-108.8c3.9-34,6.9-45.9,9.4-54.8c2.5-9.1,20.7-22.2,20.7-22.2L151.1,294z"/>
			</defs>
			<clipPath id="SVGID_11_">
				<use xlink:href="#SVGID_10_"  style="overflow:visible;"/>
			</clipPath>
			<g class="st26">
				<g>
					<path class="st22" d="M65.6,334.4c-5.2-2.5-11.2-3.5-16-6.9c-0.3-0.2-0.2-1.1,0.3-1c5.4,2.1,10.6,4.5,15.8,7.2
						C66,333.8,65.9,334.6,65.6,334.4L65.6,334.4z"/>
				</g>
			</g>
		</g>
		<g>
			<defs>
				<path id="SVGID_12_" d="M151.1,294c0,0,18.1,11.2,18.1,42.5c0,89.9-30,135.3-31.8,145.2c-1.6,8.9-90.7,0.8-90-4.9
					c0.6-5.7-3.3-73.4,0.8-108.8c3.9-34,6.9-45.9,9.4-54.8c2.5-9.1,20.7-22.2,20.7-22.2L151.1,294z"/>
			</defs>
			<clipPath id="SVGID_13_">
				<use xlink:href="#SVGID_12_"  style="overflow:visible;"/>
			</clipPath>
			<g class="st27">
				<path class="st28" d="M151.1,294c0,0,18.1,11.2,18.1,42.5c0,89.9-30,135.3-31.8,145.2c-1.6,8.9-90.7,0.8-90-4.9
					c0.6-5.7-3.3-73.4,0.8-108.8c3.9-34,6.9-45.9,9.4-54.8c2.5-9.1,20.7-22.2,20.7-22.2L151.1,294z"/>
			</g>
		</g>
		<g>
			<defs>
				<path id="SVGID_14_" d="M151.1,294c0,0,18.1,11.2,18.1,42.5c0,89.9-30,135.3-31.8,145.2c-1.6,8.9-90.7,0.8-90-4.9
					c0.6-5.7-3.3-73.4,0.8-108.8c3.9-34,6.9-45.9,9.4-54.8c2.5-9.1,20.7-22.2,20.7-22.2L151.1,294z"/>
			</defs>
			<clipPath id="SVGID_15_">
				<use xlink:href="#SVGID_14_"  style="overflow:visible;"/>
			</clipPath>
			<g class="st29">
				<g>
					<ellipse class="st30" cx="109.7" cy="292.5" rx="76.3" ry="35.5"/>
				</g>
				<g>
					<g>
						<path class="st30" d="M172.7,316c-1.6,4.8-6.2,7.7-10.6,9.9c-2.5,1.2-5,2.2-7.7,2.9c-2.2,0.6-4.4,1.2-6.7,1.1
							c-0.5,0-0.5-1.1-0.1-1.3c4.5-1.5,9.1-2.4,13.4-4.3c4.2-1.9,8.7-4.7,11.2-8.8C172.5,315.1,172.7,315.8,172.7,316L172.7,316z"/>
					</g>
				</g>
				<g>
					<g>
						<path class="st30" d="M172.1,322.9c-2.5,3-5.6,5.2-9.2,7c-3.5,1.8-7.7,3.2-11.8,3.2c-0.4,0-0.4-0.9-0.1-1
							c7.4-2.2,15.1-4.3,20.6-9.9C172.1,322,172.2,322.8,172.1,322.9L172.1,322.9z"/>
					</g>
				</g>
				<g>
					<g>
						<path class="st30" d="M76,332.8c-4.1,1.2-8.5,0.1-12.5-1.2c-4.2-1.4-8.4-3.2-12.3-5.4c-0.3-0.2-0.3-1,0.2-0.9
							c3.9,1.4,7.6,3.3,11.5,4.8c4,1.5,8.6,2.9,12.8,1.8C76.3,331.7,76.4,332.7,76,332.8L76,332.8z"/>
					</g>
				</g>
				<g>
					<g>
						<path class="st30" d="M65.6,334.4c-5.2-2.5-11.2-3.5-16-6.9c-0.3-0.2-0.2-1.1,0.3-1c5.4,2.1,10.6,4.5,15.8,7.2
							C66,333.8,65.9,334.6,65.6,334.4L65.6,334.4z"/>
					</g>
				</g>
			</g>
		</g>
	</g>
	<g>
		<g>
			<defs>
				<path id="SVGID_16_" d="M97.5,148.8c4.9-7.3,2.6-26.3,2.6-26.3l23-0.7c0,0-2.2,19,2.6,26.3c4.4,6.5,19.1,8,19.1,8
					s-1.7,36.2-33.2,36.1c-28.2-0.1-33.2-35.4-33.2-35.4S93.2,155.3,97.5,148.8z"/>
			</defs>
			<clipPath id="SVGID_17_">
				<use xlink:href="#SVGID_16_"  style="overflow:visible;"/>
			</clipPath>
			<g class="st31">
				<path class="st32" d="M97.5,148.8c4.9-7.3,2.6-26.3,2.6-26.3l23-0.7c0,0-2.2,19,2.6,26.3c4.4,6.5,19.1,8,19.1,8
					s-1.7,36.2-33.2,36.1c-28.2-0.1-33.2-35.4-33.2-35.4S93.2,155.3,97.5,148.8z"/>
			</g>
		</g>
		<g>
			<defs>
				<path id="SVGID_18_" d="M97.5,148.8c4.9-7.3,2.6-26.3,2.6-26.3l23-0.7c0,0-2.2,19,2.6,26.3c4.4,6.5,19.1,8,19.1,8
					s-1.7,36.2-33.2,36.1c-28.2-0.1-33.2-35.4-33.2-35.4S93.2,155.3,97.5,148.8z"/>
			</defs>
			<clipPath id="SVGID_19_">
				<use xlink:href="#SVGID_18_"  style="overflow:visible;"/>
			</clipPath>
			<g class="st33">
				<ellipse class="st34" cx="111.8" cy="126.9" rx="12.5" ry="13.3"/>
			</g>
		</g>
	</g>
	<g>
		<g>
			<g>
				<defs>
					<path id="SVGID_20_" d="M136.9,153.5l-12.6-8.4c0,0-8.1,10.7-12.6,10.6s-12.4-10.6-12.4-10.6l-12.9,8.4l-2.8,36.3
						c0,0,4.1,28.7,28,27.9s23.4-27,23.4-27L136.9,153.5z"/>
				</defs>
				<clipPath id="SVGID_21_">
					<use xlink:href="#SVGID_20_"  style="overflow:visible;"/>
				</clipPath>
				<g class="st35">
					<path class="st36" d="M136.9,153.5l-12.6-8.4c0,0-8.1,10.7-12.6,10.6s-12.4-10.6-12.4-10.6l-12.9,8.4l-2.8,36.3
						c0,0,4.1,28.7,28,27.9s23.4-27,23.4-27L136.9,153.5z"/>
				</g>
			</g>
			<g>
				<defs>
					<path id="SVGID_22_" d="M136.9,153.5l-12.6-8.4c0,0-8.1,10.7-12.6,10.6s-12.4-10.6-12.4-10.6l-12.9,8.4l-2.8,36.3
						c0,0,4.1,28.7,28,27.9s23.4-27,23.4-27L136.9,153.5z"/>
				</defs>
				<clipPath id="SVGID_23_">
					<use xlink:href="#SVGID_22_"  style="overflow:visible;"/>
				</clipPath>
				<g class="st37">
					<path class="st9" d="M141.3,144c0,0-6.7,26.1-15.9,27.3c-11.7,1.5-13.7-15.6-13.7-15.6l5.2-13.2L141.3,144z"/>
				</g>
			</g>
			<g>
				<defs>
					<path id="SVGID_24_" d="M136.9,153.5l-12.6-8.4c0,0-8.1,10.7-12.6,10.6s-12.4-10.6-12.4-10.6l-12.9,8.4l-2.8,36.3
						c0,0,4.1,28.7,28,27.9s23.4-27,23.4-27L136.9,153.5z"/>
				</defs>
				<clipPath id="SVGID_25_">
					<use xlink:href="#SVGID_24_"  style="overflow:visible;"/>
				</clipPath>
				<g class="st38">
					<path class="st9" d="M82.1,144c0,0,6.7,26.1,15.9,27.3c11.7,1.5,13.7-15.6,13.7-15.6l-5.2-13.2L82.1,144z"/>
				</g>
			</g>
		</g>
		<g>
			<path class="st36" d="M118,269.6l22,40.3c0,0-14.2,5.7-28.2,4.5c-14-1.2-23.6-4.5-23.6-4.5l13.2-42.7L118,269.6z"/>
		</g>
	</g>
	<g>
		<g>
			<path id="SVGID_7_" class="st39" d="M78,260.2c2.7-9.5,4-40,4-40s-2.1,0.3-5.4-1.8c-9.9-6.1-11.9-55.4-8.1-59.9
				s18.1-5.4,18.1-5.4l25,56.1l25.3-56.1c0,0,14.3,1,18.1,5.4s1.7,53.6-8.1,59.9c-3.3,2.1-5.4,1.8-5.4,1.8s1.3,30.4,4,40
				c4.1,14.6,22.5,39.3,21.4,41.7c-4.7,9.9-25.7,19-47,20.4c-4.1-13.1-8-26.1-8-26.1l-0.1-43.4l-0.1,43.4c0,0-4.1,13-8,26.1
				c-21.2-1.4-42.3-10.5-47-20.4C55.5,299.5,74,274.8,78,260.2z"/>
		</g>
		<g>
			<defs>
				<path id="SVGID_26_" d="M78,260.2c2.7-9.5,4-40,4-40s-2.1,0.3-5.4-1.8c-9.9-6.1-11.9-55.4-8.1-59.9s18.1-5.4,18.1-5.4l25,56.1
					l25.3-56.1c0,0,14.3,1,18.1,5.4s1.7,53.6-8.1,59.9c-3.3,2.1-5.4,1.8-5.4,1.8s1.3,30.4,4,40c4.1,14.6,22.5,39.3,21.4,41.7
					c-4.7,9.9-25.7,19-47,20.4c-4.1-13.1-8-26.1-8-26.1l-0.1-43.4l-0.1,43.4c0,0-4.1,13-8,26.1c-21.2-1.4-42.3-10.5-47-20.4
					C55.5,299.5,74,274.8,78,260.2z"/>
			</defs>
			<clipPath id="SVGID_27_">
				<use xlink:href="#SVGID_26_"  style="overflow:visible;"/>
			</clipPath>
			<g class="st40">
				<path class="st39" d="M103.6,322.5c-21.4-1.4-42.5-10.6-47.1-20.5c-0.5-1,1.9-5,6.5-12.5c5.3-8.7,12.5-20.8,14.9-29.2
					c2.5-9.1,3.8-37.3,4-39.7c-0.6,0-2.5-0.1-5.3-1.8c-4.7-2.9-7.2-15.2-8.2-22.3c-2.3-15.6-2.2-34.9,0.1-37.7
					c3.8-4.4,17.6-5.4,18.2-5.4h0.1l25.1,34.8l25-34.8l0.1-0.1h0.1c0.6,0,14.4,1,18.2,5.4c2.4,2.8,2.4,22.1,0.1,37.7
					c-1,7.1-3.5,19.4-8.2,22.3c-2.8,1.7-4.7,1.8-5.3,1.8c0.1,2.4,1.5,30.7,4,39.7c2.3,8.5,9.6,20.4,14.9,29.2
					c4.6,7.5,6.9,11.5,6.5,12.5c-4.6,9.9-25.7,19.1-47.1,20.5H120v-0.1c-3.7-12-7.4-24.1-8-25.9c-0.5,1.7-4.3,13.8-8,25.9v0.1
					L103.6,322.5z M111.6,252.8h0.3l0.1,43.4c0.2,0.6,4.2,13.3,8,26c21.2-1.5,42.1-10.6,46.7-20.3c0.4-1-2.8-6.2-6.4-12.3
					c-5.3-8.7-12.5-20.8-14.9-29.2c-2.6-9.4-4-39.7-4-40v-0.2h0.2c0,0,0.1,0,0.3,0c0.7,0,2.4-0.2,5-1.8c3.4-2.2,6.3-10,8.1-22.1
					c2.3-15.5,2.3-34.8,0-37.5c-3.5-4.2-16.7-5.2-17.9-5.3l-25.3,35l-25.3-35c-1.2,0.1-14.4,1.1-17.9,5.3c-2.3,2.7-2.3,22,0,37.5
					c1.8,12.1,4.7,20,8.1,22.1c2.6,1.6,4.3,1.8,5,1.8c0.2,0,0.2,0,0.3,0h0.2v0.2c0,0.3-1.4,30.5-4,40c-2.3,8.5-9.6,20.5-14.9,29.2
					c-3.7,6.1-6.8,11.3-6.4,12.3c4.6,9.8,25.5,18.9,46.7,20.3c3.9-12.6,7.9-25.3,8-26L111.6,252.8z"/>
			</g>
		</g>
		<g>
			<defs>
				<path id="SVGID_28_" d="M78,260.2c2.7-9.5,4-40,4-40s-2.1,0.3-5.4-1.8c-9.9-6.1-11.9-55.4-8.1-59.9s18.1-5.4,18.1-5.4l25,56.1
					l25.3-56.1c0,0,14.3,1,18.1,5.4s1.7,53.6-8.1,59.9c-3.3,2.1-5.4,1.8-5.4,1.8s1.3,30.4,4,40c4.1,14.6,22.5,39.3,21.4,41.7
					c-4.7,9.9-25.7,19-47,20.4c-4.1-13.1-8-26.1-8-26.1l-0.1-43.4l-0.1,43.4c0,0-4.1,13-8,26.1c-21.2-1.4-42.3-10.5-47-20.4
					C55.5,299.5,74,274.8,78,260.2z"/>
			</defs>
			<clipPath id="SVGID_29_">
				<use xlink:href="#SVGID_28_"  style="overflow:visible;"/>
			</clipPath>
			<g class="st41">
				<polygon class="st42" points="76.3,144.6 78.4,167.4 111.7,209.4 106.1,163.3 				"/>
			</g>
		</g>
		<g>
			<defs>
				<path id="SVGID_30_" d="M78,260.2c2.7-9.5,4-40,4-40s-2.1,0.3-5.4-1.8c-9.9-6.1-11.9-55.4-8.1-59.9s18.1-5.4,18.1-5.4l25,56.1
					l25.3-56.1c0,0,14.3,1,18.1,5.4s1.7,53.6-8.1,59.9c-3.3,2.1-5.4,1.8-5.4,1.8s1.3,30.4,4,40c4.1,14.6,22.5,39.3,21.4,41.7
					c-4.7,9.9-25.7,19-47,20.4c-4.1-13.1-8-26.1-8-26.1l-0.1-43.4l-0.1,43.4c0,0-4.1,13-8,26.1c-21.2-1.4-42.3-10.5-47-20.4
					C55.5,299.5,74,274.8,78,260.2z"/>
			</defs>
			<clipPath id="SVGID_31_">
				<use xlink:href="#SVGID_30_"  style="overflow:visible;"/>
			</clipPath>
			<g class="st43">
				<polygon class="st42" points="147,144.6 144.9,167.4 111.7,209.4 117.2,163.3 				"/>
			</g>
		</g>
		<g>
			<defs>
				<path id="SVGID_32_" d="M78,260.2c2.7-9.5,4-40,4-40s-2.1,0.3-5.4-1.8c-9.9-6.1-11.9-55.4-8.1-59.9s18.1-5.4,18.1-5.4l25,56.1
					l25.3-56.1c0,0,14.3,1,18.1,5.4s1.7,53.6-8.1,59.9c-3.3,2.1-5.4,1.8-5.4,1.8s1.3,30.4,4,40c4.1,14.6,22.5,39.3,21.4,41.7
					c-4.7,9.9-25.7,19-47,20.4c-4.1-13.1-8-26.1-8-26.1l-0.1-43.4l-0.1,43.4c0,0-4.1,13-8,26.1c-21.2-1.4-42.3-10.5-47-20.4
					C55.5,299.5,74,274.8,78,260.2z"/>
			</defs>
			<clipPath id="SVGID_33_">
				<use xlink:href="#SVGID_32_"  style="overflow:visible;"/>
			</clipPath>
			<g class="st44">
				<g>
					<path class="st30" d="M102.9,214.8L102.9,214.8L102.9,214.8z"/>
				</g>
				<g>
					<path class="st30" d="M68.2,201.1c0,0,31,15.9,43.5,15.8c31.5-0.2,43.5-15.8,43.5-15.8l1.6,10.1c0,0-3.5,9.3-15.2,9.1
						c-14.9-0.3-29.9-1.8-29.9-1.8s-16.2,1.4-29.7,1.8c-10.2,0.3-15.5-9.1-15.5-9.1L68.2,201.1z"/>
				</g>
			</g>
		</g>
		<g>
			<defs>
				<path id="SVGID_34_" d="M78,260.2c2.7-9.5,4-40,4-40s-2.1,0.3-5.4-1.8c-9.9-6.1-11.9-55.4-8.1-59.9s18.1-5.4,18.1-5.4l25,56.1
					l25.3-56.1c0,0,14.3,1,18.1,5.4s1.7,53.6-8.1,59.9c-3.3,2.1-5.4,1.8-5.4,1.8s1.3,30.4,4,40c4.1,14.6,22.5,39.3,21.4,41.7
					c-4.7,9.9-25.7,19-47,20.4c-4.1-13.1-8-26.1-8-26.1l-0.1-43.4l-0.1,43.4c0,0-4.1,13-8,26.1c-21.2-1.4-42.3-10.5-47-20.4
					C55.5,299.5,74,274.8,78,260.2z"/>
			</defs>
			<clipPath id="SVGID_35_">
				<use xlink:href="#SVGID_34_"  style="overflow:visible;"/>
			</clipPath>
			<g class="st45">
				<g>
					<rect x="110.9" y="193.9" class="st30" width="1.5" height="119.2"/>
				</g>
			</g>
		</g>
	</g>
	<g>
		<g>
			<path class="st19" d="M54.9,284.1c0,0,10.5,23.4,12.8,24.9c2.2,1.5,9.8,3.9,12.4,6.6c2.6,2.7,4.8,7.3,7.5,9.5
				c2.6,2.1,8.9,4.5,6.1,5.4c-2.2,0.7-4.8,0.5-7.7-1.5c-1.6-1.1-4.7-5.6-5.3-4.3c-0.6,1.3,2.2,10.9,2.4,13.5s3.5,16.2,2.1,16.7
				c-2.8,1-5.9-17.1-7-16.6s4.5,19.3,2.4,20.1c-2.5,1-6.1-19.8-8.2-18.9c-1.5,0.6,4.2,16.9,2,17.3c-3.1,0.5-5.9-18.9-7.3-18.5
				c-1.4,0.4,2.6,13.4,1,13.6c-2.7,0.3-4.9-14.7-6.7-18.3c-1.8-3.7-3-10-2.5-14.6c0.7-6.5-11-17.3-11-17.3L54.9,284.1z"/>
		</g>
		<g>
			<g>
				<defs>
					<path id="SVGID_36_" d="M71.9,156.4c0,0-8.1,0.2-15.3,13c-7.1,12.7-37.2,80-37.2,85.5c0,9.5,31.1,54.9,31.1,54.9l13.9-11.2
						c0,0-22.7-41.9-21.6-44.5c1-2.6,28.7-44.4,29.9-71.4C73.7,160,71.9,156.4,71.9,156.4z"/>
				</defs>
				<clipPath id="SVGID_37_">
					<use xlink:href="#SVGID_36_"  style="overflow:visible;"/>
				</clipPath>
				<g class="st46">
					<path class="st39" d="M71.9,156.4c0,0-8.1,0.2-15.3,13c-7.1,12.7-37.2,80-37.2,85.5c0,9.5,31.1,54.9,31.1,54.9l13.9-11.2
						c0,0-22.7-41.9-21.6-44.5c1-2.6,28.7-44.4,29.9-71.4C73.7,160,71.9,156.4,71.9,156.4z"/>
				</g>
			</g>
			<g>
				<defs>
					<path id="SVGID_38_" d="M71.9,156.4c0,0-8.1,0.2-15.3,13c-7.1,12.7-37.2,80-37.2,85.5c0,9.5,31.1,54.9,31.1,54.9l13.9-11.2
						c0,0-22.7-41.9-21.6-44.5c1-2.6,28.7-44.4,29.9-71.4C73.7,160,71.9,156.4,71.9,156.4z"/>
				</defs>
				<clipPath id="SVGID_39_">
					<use xlink:href="#SVGID_38_"  style="overflow:visible;"/>
				</clipPath>
				<g class="st47">
					<g>
						<path class="st30" d="M51.9,251c-3.7,2.7-8.3,4.2-12.7,5.4c-4.3,1.1-9.7,2.2-14.1,0.8c-0.5-0.2-0.3-1.3,0.2-1.3
							c2.2-0.2,4.3-0.2,6.6-0.3c2.5-0.2,5.1-0.7,7.5-1.3c4.2-1,8.2-2.8,12.3-4.2C52.2,249.7,52.2,250.8,51.9,251L51.9,251z"/>
					</g>
				</g>
			</g>
			<g>
				<defs>
					<path id="SVGID_40_" d="M71.9,156.4c0,0-8.1,0.2-15.3,13c-7.1,12.7-37.2,80-37.2,85.5c0,9.5,31.1,54.9,31.1,54.9l13.9-11.2
						c0,0-22.7-41.9-21.6-44.5c1-2.6,28.7-44.4,29.9-71.4C73.7,160,71.9,156.4,71.9,156.4z"/>
				</defs>
				<clipPath id="SVGID_41_">
					<use xlink:href="#SVGID_40_"  style="overflow:visible;"/>
				</clipPath>
				<g class="st48">
					<g>
						<path class="st30" d="M48.8,252.2c-1.7,0.6-3.6,0.7-5.4,1c-1.8,0.2-3.6,0.4-5.5,0.4c-3.8,0.1-7.5-0.4-10.9-2.2
							c-0.3-0.2-0.3-1.2,0.2-1.1c3.6,0.5,7.2,1.2,10.8,1.2c1.6,0,3.4-0.1,5-0.2c1.9-0.1,4-0.4,5.8-0.1
							C49.1,251.2,49.1,252.1,48.8,252.2L48.8,252.2z"/>
					</g>
				</g>
			</g>
			<g>
				<defs>
					<path id="SVGID_42_" d="M71.9,156.4c0,0-8.1,0.2-15.3,13c-7.1,12.7-37.2,80-37.2,85.5c0,9.5,31.1,54.9,31.1,54.9l13.9-11.2
						c0,0-22.7-41.9-21.6-44.5c1-2.6,28.7-44.4,29.9-71.4C73.7,160,71.9,156.4,71.9,156.4z"/>
				</defs>
				<clipPath id="SVGID_43_">
					<use xlink:href="#SVGID_42_"  style="overflow:visible;"/>
				</clipPath>
				<g class="st49">
					<g>
						<path class="st30" d="M46.9,255.7c-2.8,4.7-10.2,5.1-14.9,3.9c-0.5-0.1-0.4-1.3,0-1.4c2.3-0.5,4.8-0.3,7.1-0.5
							c2.8-0.3,5.1-1.1,7.3-2.9C46.9,254.4,47,255.5,46.9,255.7L46.9,255.7z"/>
					</g>
				</g>
			</g>
		</g>
	</g>
	<g>
		<g>
			<path class="st34" d="M149.7,89.5c0,0,4.8-11.2,8.2-10.3c3.5,0.9-0.4,23.4-6,23.7c-5.5,0.4-4.9-6.6-4.9-6.6L149.7,89.5z"/>
		</g>
		<g>
			<path class="st19" d="M68.1,70.1c0-40.1,18.2-53.5,43.5-53.5l0,0l0,0l0,0l0,0c25.4,0,43.5,13.4,43.5,53.5s-28,63.9-43.5,63.9l0,0
				l0,0l0,0l0,0C96.2,134,68.1,110.1,68.1,70.1z"/>
		</g>
		<g>
			<g>
				<path class="st50" d="M111.7,113L111.7,113l11.2-1.8c0,0.3-2.2,2.9-2.9,3.6c-1,1-4.6,3.7-8.3,3.7l0,0l0,0c-4,0-5.1-1.1-7.7-3.5
					c-1.3-1.1-3.5-3.7-3.5-4L111.7,113z"/>
			</g>
			<g>
				<path class="st51" d="M111.7,110.2c0.3,0,2-0.7,3.5-0.7c1.8,0,3.8,0.3,7.6,1.7c0,0-7.6,2.7-11.2,2.7c-3.6,0-11.2-2.7-11.2-2.7
					c3.8-1.3,5.6-1.7,7.5-1.7C110.2,109.5,111.2,110.2,111.7,110.2z"/>
			</g>
		</g>
		<g>
			<path class="st52" d="M61.7,28.3c6.5-9,18.9-12,30-10.9C107-3,148.3,18,158.2,36c22.5,40.7,0.1,119,0.1,119s-2.2,2.2-6.9,1.7
				c-8.7-0.9-12.5-3.2-12.5-3.2s7.9-24.4,10.4-41c2.5-16.7,0.7-41.2-4-48.8c-7.1-11.6-25.3-13.1-38.3-18
				c-11.4-4.5-13.1-12.5-13.1-12.5s-2.2,12.5-10.9,20.2c-16.8,14.9-4.2,42.7-0.4,59c3.7,16.4,4.3,41,4.3,41s-3.8,2.6-12.5,3.2
				c-6.1,0.4-6.9-1.7-6.9-1.7S43.9,53,61.7,28.3z"/>
		</g>
	</g>
	<g>
		<path class="st19" d="M2.2,636.7c0.3-9,7.4-24.3,9.8-29.8c1.7-4.2,7.4-29.8,7.4-29.8l12.6,5.5c0,0-8.5,25.2-9.3,27.5
			c-0.5,1.6-0.5,2.2-0.1,6.1c0.2,1.6,1.6,6.4,2.7,11.3c-0.2,3.9-0.4,7.8-0.3,10.1c0.1,5.7-1.3,6.5-1.3,6.5H5.6
			C5.6,644,1.9,643.1,2.2,636.7z"/>
		<path class="st20" d="M2.2,636.7c0.2-5.1,2.5-12.1,4.9-18.3c-0.8,5.5-1.6,12.4-1,13c1.2,1,14.8,1.2,16.1,0
			c0.6-0.6,1.2-5.4,1.6-9.9c1.3,5.2,3.1,12.4,3.2,16.3c0.1,5.7-3.4,6.3-3.4,6.3H5.6C5.6,644,1.9,643.1,2.2,636.7z"/>
	</g>
	<g>
		<g id="case_1_">
			<g>
				<path class="st53" d="M129.8,463.8l94.8,4.7c3.2,0.2,6-2.2,6.1-5.4l3.5-70.4c0.2-3.2-2.3-5.9-5.6-6.1l-94.6-4.7
					c-3.2-0.2-6,2.2-6.1,5.4l-3.6,70.4C124.1,460.8,126.6,463.6,129.8,463.8z"/>
				<path class="st54" d="M129.3,463.7l79.8,4c2.9,0.2,5.4-2.1,5.6-5l3.5-71.5c0.2-2.9-2.2-5.4-5.1-5.5l-79.8-4
					c-2.9-0.2-5.4,2.1-5.6,4.9l-3.6,71.5C124.1,461.1,126.4,463.6,129.3,463.7z"/>
				<g>
					<path class="st55" d="M192.2,383.3l4.8-0.7c-0.9-5.9-6.1-17.3-19-17.9c-13.1-0.7-18.5,10.3-19.5,16.2l4.8,0.8
						c0.1-0.5,2.4-12.9,14.5-12.3C190,370.1,192.1,382.8,192.2,383.3z"/>
					<polygon class="st56" points="190,384.5 198.9,385 199,381.4 190.2,381 					"/>
					<polygon class="st56" points="156.2,382.9 165,383.3 165.3,379.7 156.4,379.2 					"/>
				</g>
			</g>
		</g>
	</g>
	<g>
		<path class="st19" d="M156.8,367.1c2.1-3.4,4.3-8,6.1-11.8c0.8-1.6,1.4-2.2,2-2.5c1-0.9,2-1.7,3.1-2.6c1.3-4,0.3-22.8,0.3-22.8
			l13.8,4.3c0,0,3.5,18.7,5.2,22.9c0.1,0.2,0.2,0.3,0.3,0.6c1,2.6,1.1,5.5,1,8.4c0,6.1-0.8,12.4-0.8,12.4l0,0c0,2.1-0.2,3.5-1.8,3.9
			c-1.8,0.4-2.6-2.5-2.6-2.5s1,4.1-2.6,4.6c-2.4,0.3-2.7-1.3-2.7-1.3s-0.6,3.2-3.5,2.6c-1.6-0.3-2.2-2.6-2.2-2.6
			c0,0.4,0.1,0.8,0.1,0.8s-3.2,6.6-5.9,1.9c-1.5-2.5-0.8-16.9-1.9-18c-1.1-1.2-2.8,3.9-4.2,5.7c-2.3,3.2-4.6,5.1-7.3,5.2
			C149.8,376.3,154.8,370.3,156.8,367.1z"/>
		<g>
			<g>
				<defs>
					<path id="SVGID_44_" d="M151.6,156.4c0,0,10.4,2.5,13.6,14.9c3.2,12.5,7.3,88.5,9.3,94.5c2.1,6.1,5.5,29.7,6.5,37.8l4.9,42.3
						l-17.8,3.3c0,0-9.3-41.7-11.3-51s-3-26.6-4.2-33c-1.2-6.3-4.8-34.3-5.1-38.6c-0.3-4.2-2.2-33.6-2-45.5
						C145.8,157,151.6,156.4,151.6,156.4z"/>
				</defs>
				<clipPath id="SVGID_45_">
					<use xlink:href="#SVGID_44_"  style="overflow:visible;"/>
				</clipPath>
				<g class="st57">
					<path class="st39" d="M151.6,156.4c0,0,10.4,2.5,13.6,14.9c3.2,12.5,7.3,88.5,9.3,94.5c2.1,6.1,5.5,29.7,6.5,37.8l4.9,42.3
						l-17.8,3.3c0,0-9.3-41.7-11.3-51s-3-26.6-4.2-33c-1.2-6.3-4.8-34.3-5.1-38.6c-0.3-4.2-2.2-33.6-2-45.5
						C145.8,157,151.6,156.4,151.6,156.4z"/>
				</g>
			</g>
			<g>
				<defs>
					<path id="SVGID_46_" d="M151.6,156.4c0,0,10.4,2.5,13.6,14.9c3.2,12.5,7.3,88.5,9.3,94.5c2.1,6.1,5.5,29.7,6.5,37.8l4.9,42.3
						l-17.8,3.3c0,0-9.3-41.7-11.3-51s-3-26.6-4.2-33c-1.2-6.3-4.8-34.3-5.1-38.6c-0.3-4.2-2.2-33.6-2-45.5
						C145.8,157,151.6,156.4,151.6,156.4z"/>
				</defs>
				<clipPath id="SVGID_47_">
					<use xlink:href="#SVGID_46_"  style="overflow:visible;"/>
				</clipPath>
				<g class="st58">
					<g>
						<path class="st30" d="M169.2,264.9c-1.8,0.4-3.7,0.4-5.5,0.7c-2.1,0.3-4.1,0.6-6.1,1.1c-4,1-7.8,2.7-11.9,3.4
							c-0.6,0.1-0.6-0.9-0.2-1.1c3.5-2.1,7.8-3.2,11.7-4.1c1.9-0.4,3.9-0.8,5.9-1c1.9-0.3,4.2-0.4,6.1,0
							C169.6,263.9,169.5,264.8,169.2,264.9L169.2,264.9z"/>
					</g>
				</g>
			</g>
			<g>
				<defs>
					<path id="SVGID_48_" d="M151.6,156.4c0,0,10.4,2.5,13.6,14.9c3.2,12.5,7.3,88.5,9.3,94.5c2.1,6.1,5.5,29.7,6.5,37.8l4.9,42.3
						l-17.8,3.3c0,0-9.3-41.7-11.3-51s-3-26.6-4.2-33c-1.2-6.3-4.8-34.3-5.1-38.6c-0.3-4.2-2.2-33.6-2-45.5
						C145.8,157,151.6,156.4,151.6,156.4z"/>
				</defs>
				<clipPath id="SVGID_49_">
					<use xlink:href="#SVGID_48_"  style="overflow:visible;"/>
				</clipPath>
				<g class="st59">
					<g>
						<path class="st30" d="M167.7,269.1c-3.3,1.5-6.9,1.9-10.5,2.6c-4.1,0.8-7.7,2.2-11.5,3.8c-0.7,0.3-0.6-1-0.3-1.3
							c2.9-2.8,7.4-3.5,11.1-4.3c3.6-0.7,7.4-1,11-2C168.2,267.7,168.2,269,167.7,269.1L167.7,269.1z"/>
					</g>
				</g>
			</g>
			<g>
				<defs>
					<path id="SVGID_50_" d="M151.6,156.4c0,0,10.4,2.5,13.6,14.9c3.2,12.5,7.3,88.5,9.3,94.5c2.1,6.1,5.5,29.7,6.5,37.8l4.9,42.3
						l-17.8,3.3c0,0-9.3-41.7-11.3-51s-3-26.6-4.2-33c-1.2-6.3-4.8-34.3-5.1-38.6c-0.3-4.2-2.2-33.6-2-45.5
						C145.8,157,151.6,156.4,151.6,156.4z"/>
				</defs>
				<clipPath id="SVGID_51_">
					<use xlink:href="#SVGID_50_"  style="overflow:visible;"/>
				</clipPath>
				<g class="st60">
					<g>
						<path class="st30" d="M159.3,268.5c-1.6,0.3-3.2,0.5-4.8,1c-1.6,0.4-3.3,1-4.9,1.1c-0.5,0-0.4-1-0.1-1.1
							c2.6-1.4,6.7-2.7,9.8-2.2C159.7,267.5,159.8,268.4,159.3,268.5L159.3,268.5z"/>
					</g>
				</g>
			</g>
			<g>
				<defs>
					<path id="SVGID_52_" d="M151.6,156.4c0,0,10.4,2.5,13.6,14.9c3.2,12.5,7.3,88.5,9.3,94.5c2.1,6.1,5.5,29.7,6.5,37.8l4.9,42.3
						l-17.8,3.3c0,0-9.3-41.7-11.3-51s-3-26.6-4.2-33c-1.2-6.3-4.8-34.3-5.1-38.6c-0.3-4.2-2.2-33.6-2-45.5
						C145.8,157,151.6,156.4,151.6,156.4z"/>
				</defs>
				<clipPath id="SVGID_53_">
					<use xlink:href="#SVGID_52_"  style="overflow:visible;"/>
				</clipPath>
				<path class="st61" d="M164.8,279.9c5.4-1,10.2-5.9,10-13.3l7.9,2.4l11.8,86.6l-34.6,4.8l-11.8-86.6l2.2-2.2
					C155.1,276.2,159.1,280.8,164.8,279.9z"/>
			</g>
		</g>
	</g>
	<g>
		<circle class="st6" cx="172.1" cy="425.7" r="19.5"/>
		<g>
			<path class="st9" d="M177.4,421c-0.2-0.1-0.3-0.2-0.6-0.3c-0.3-0.1-0.6-0.1-1-0.1c-0.3,0-0.8,0-1.2,0.1c-0.4,0.1-1,0.2-1.4,0.3
				c-0.2,1.7-0.3,2.6-0.4,4.3c0.2,0,0.3-0.1,0.4-0.1c0.9-0.1,1.6-0.2,2.4-0.3c0.7,0,1.3,0,1.7,0.2c0.4,0.2,0.8,0.4,1,0.8
				c0.3,0.3,0.3,0.9,0.3,1.6c-0.1,0.8-0.3,1.4-0.7,2.1c-0.3,0.6-0.9,1.2-1.5,1.7s-1.3,1-2.1,1.5c-0.8,0.4-1.6,0.8-2.4,1.1
				c-0.1,0.9-0.2,1.3-0.3,2.2c-0.5,0.2-0.8,0.3-1.3,0.4c0.1-0.9,0.2-1.4,0.3-2.2c-1.2,0.3-2.3,0.5-3.4,0.6c-1,0-2-0.1-2.9-0.3
				c0.6-1,0.9-1.5,1.5-2.4c0.2,0.1,0.4,0.2,0.8,0.3s0.7,0.1,1.2,0.2c0.4,0,1,0,1.5,0c0.5-0.1,1.1-0.2,1.7-0.3
				c0.2-1.7,0.3-2.6,0.4-4.3c-0.1,0-0.2,0-0.3,0c-0.1,0-0.2,0-0.3,0c-0.9,0.1-1.6,0.2-2.2,0.2c-0.6,0-1.1-0.1-1.6-0.3
				c-0.4-0.2-0.7-0.4-0.9-0.8s-0.3-0.8-0.2-1.4c0.1-0.7,0.3-1.4,0.6-2c0.3-0.6,0.8-1.2,1.4-1.8c0.5-0.5,1.2-1,1.9-1.6
				c0.7-0.4,1.5-0.9,2.3-1.2c0.1-0.9,0.2-1.3,0.3-2.1c0.5-0.2,0.8-0.3,1.3-0.4c-0.1,0.9-0.2,1.3-0.3,2.1c1-0.3,2.1-0.4,2.9-0.4
				s1.6,0.1,2.3,0.3C178.4,419.6,178,420.1,177.4,421z M169.1,424.4c-0.1,0.6,0.2,1,0.6,1c0.4,0.1,1.2,0.2,2.2,0
				c0.2-1.6,0.3-2.5,0.4-4.2c-1,0.3-1.8,0.9-2.3,1.4S169.2,423.8,169.1,424.4z M175.6,428.9c0.1-0.6-0.2-1-0.7-1.1
				c-0.5-0.1-1.4-0.1-2.4,0c-0.2,1.6-0.3,2.5-0.4,4.2c1-0.3,1.9-0.9,2.5-1.4C175.3,430,175.6,429.5,175.6,428.9z"/>
		</g>
	</g>
	<g>
		<path class="st62" d="M113.6,84.4c3,4.3,5.7,10.5,4.2,12s-8.9,1.6-9.5,1.2C107.6,97.2,113.6,84.4,113.6,84.4z"/>
		<path class="st19" d="M111.4,83.4c3,4.3,5.7,10.5,4.2,12s-8.9,1.6-9.5,1.2C105.4,96.3,111.4,83.4,111.4,83.4z"/>
		<g>
			<path class="st63" d="M144.8,64.3l0.1-1.3c-6.6-4.5-16.4-3.4-20.6-1.6l0.9,3.1C128.3,62.7,138.1,61.1,144.8,64.3z"/>
		</g>
		<g>
			<path class="st63" d="M79.4,65.2l-0.2-1.3c6.3-4.8,16.3-4.2,20.5-2.5L99,64.5C95.9,62.8,85.9,61.8,79.4,65.2z"/>
		</g>
		<g>
			<path class="st9" d="M99.2,82.9c1.5-1.7-0.9-8.1-6.9-10.1s-9.3,2-9.4,3.6c-0.2,1.6,0.5,4.5,4,6.1c3.5,1.6,6.3,1.2,8,1.1
				C96.9,83.5,98.4,83.9,99.2,82.9z"/>
			<circle class="st64" cx="92.1" cy="76.7" r="5.3"/>
			<circle class="st9" cx="91.1" cy="79.9" r="2.1"/>
			<path class="st64" d="M99.7,81.5c0,0,0.9-3-2.8-7.1c-3.6-4.1-8.6-3.3-9.9-3.5c-1.4-0.3-2.8,0.1-2.4,0.4c0.4,0.3-0.9,1.4-1.9,1.1
				c-1-0.3,0,1-0.1,1.3c0,0.3-1.9,0.2-2,0.6c-0.2,0.4,1,1.3,0.8,1.4c-0.3,0.1-1.4,0.9-0.9,1.2c0.5,0.3,1.5,1.6,1.9,2.2
				c0.4,0.5,1.6,1,1.6,1s-1.3-2.5-0.4-4.2c0.9-1.7,2.9-3.5,6.4-3.1c3.5,0.5,5.5,2.2,7,3.5C98.4,77.6,99.7,81.5,99.7,81.5z"/>
		</g>
		<g>
			<path class="st9" d="M125.6,82.3c-1.6-1.6,0.3-8.1,6.1-10.6c5.9-2.4,9.3,1.3,9.7,2.9s-0.3,4.6-3.5,6.3c-3.4,1.8-6.2,1.6-7.9,1.6
				C127.9,82.6,126.6,83.1,125.6,82.3z"/>
			<circle class="st64" cx="132.3" cy="75.6" r="5.3"/>
			<circle class="st9" cx="133.5" cy="78.6" r="2.1"/>
			<path class="st64" d="M125.1,80.9c0,0-1-2.9,2.3-7.3c3.4-4.3,8.3-3.9,9.6-4.2c1.3-0.3,2.8-0.1,2.4,0.3c-0.4,0.4,1,1.4,2,1
				s0.1,1,0.2,1.3c0,0.3,1.9,0.1,2.1,0.4s-1,1.4-0.6,1.5c0.3,0.1,1.4,0.8,1,1.1c-0.4,0.4-1.4,1.7-1.7,2.2s-1.5,1.1-1.5,1.1
				s1.1-2.6,0.2-4.3c-1-1.6-3.2-3.4-6.6-2.7c-3.4,0.7-5.4,2.5-6.7,4.1C126.1,76.9,125.1,80.9,125.1,80.9z"/>
		</g>
	</g>
	<path class="st62" d="M116.1,124.5c0,0.5-1.8,1.6-4.3,1.4s-4.8-1.3-4.8-1.9c0-0.5,2.3,0.2,4.8,0.3S116.1,124,116.1,124.5z"/>
</g>
</svg>
