<?xml version="1.0" encoding="UTF-8" standalone="no"?>
<!DOCTYPE svg PUBLIC "-//W3C//DTD SVG 1.1//EN" "http://www.w3.org/Graphics/SVG/1.1/DTD/svg11.dtd">
<svg width="100%" height="100%" viewBox="0 0 480 480" version="1.1" xmlns="http://www.w3.org/2000/svg" xmlns:xlink="http://www.w3.org/1999/xlink" xml:space="preserve" xmlns:serif="http://www.serif.com/" style="fill-rule:evenodd;clip-rule:evenodd;stroke-linejoin:round;stroke-miterlimit:2;">
    <g>
        <path d="M340.2,471.4L20.5,465.3C14.6,465.2 9.8,460.3 9.9,454.3L14.9,17C15,11.1 19.9,6.3 25.9,6.4L459.5,14.7C465.4,14.8 470.2,19.7 470.1,25.7L465.1,463C465,468.9 460.1,473.7 454.1,473.6L409.2,472.7L340.2,471.4Z" style="fill:white;fill-rule:nonzero;"/>
        <path d="M421.8,72.4L415.2,414.8C415.1,420.1 410.7,424.4 405.4,424.3L62.4,417.7C57.1,417.6 52.8,413.2 52.9,407.9L59.5,65.5C59.6,59.6 64.5,54.8 70.5,54.9L411.3,61.4C417.2,61.6 422,66.5 421.8,72.4Z" style="fill:rgb(46,215,255);fill-rule:nonzero;"/>
        <g transform="matrix(1.18059,0,0,1.18059,-42.864,-43.27)">
            <g>
                <g>
                    <clipPath id="_clip1">
                        <path d="M421.8,72.4L415.2,414.8C415.1,420.1 410.7,424.4 405.4,424.3L62.4,417.7C57.1,417.6 52.8,413.2 52.9,407.9L59.5,65.5C59.6,59.6 64.5,54.8 70.5,54.9L411.3,61.4C417.2,61.6 422,66.5 421.8,72.4Z"/>
                    </clipPath>
                    <g clip-path="url(#_clip1)">
                        <rect x="-10" y="1" width="459.5" height="406.7" style="fill:rgb(46,36,48);"/>
                        <path d="M251.2,55.1C385.8,55.1 393.1,82.6 451.7,141.6L451.7,1L-10,1L-10,175.9C62.9,101.3 90.7,55.1 251.2,55.1Z" style="fill:rgb(41,32,43);fill-rule:nonzero;"/>
                        <path d="M162.6,394.6L314,394.6C314,264.8 301.3,204.4 235.7,204.4C183.4,204.3 162.6,270.6 162.6,394.6Z" style="fill:rgb(38,30,40);fill-rule:nonzero;"/>
                        <g>
                            <rect x="343.9" y="1" width="61.5" height="406.7" style="fill:rgb(69,49,76);"/>
                            <path d="M411.6,362.4L337.9,362.4L329.1,395.8L420.4,395.8L411.6,362.4Z" style="fill:rgb(69,49,76);fill-rule:nonzero;"/>
                        </g>
                        <g>
                            <rect x="76.1" y="1" width="61.5" height="406.7" style="fill:rgb(69,49,76);"/>
                            <path d="M143.7,362.4L70,362.4L61.2,395.8L152.5,395.8L143.7,362.4Z" style="fill:rgb(69,49,76);fill-rule:nonzero;"/>
                        </g>
                        <rect x="-10" y="383.2" width="458.8" height="34" style="fill:rgb(69,49,76);"/>
                        <rect x="-10" y="389" width="458.8" height="17.5" style="fill:rgb(216,80,119);"/>
                        <g>
                            <rect x="233.9" y="162.9" width="2.2" height="231.4" style="fill:rgb(178,150,156);"/>
                            <path d="M251.3,395L235.5,388.8L219.6,395L219.6,396.8L251.3,396.8L251.3,395Z" style="fill:rgb(255,155,72);fill-rule:nonzero;"/>
                            <g>
                                <rect x="214.9" y="162.4" width="1.1" height="43.8" style="fill:rgb(178,150,156);"/>
                                <path d="M212.5,208.8C212.5,210.4 213.8,211.7 215.4,211.7C217,211.7 218.3,210.4 218.3,208.8C218.3,207.2 217,205.9 215.4,205.9C213.8,205.9 212.5,207.2 212.5,208.8Z" style="fill:rgb(193,54,75);fill-rule:nonzero;"/>
                                <path d="M266.2,107.9L205.2,106.4L194.4,170.3L275.6,170.3L266.2,107.9Z" style="fill:rgb(255,216,108);fill-rule:nonzero;"/>
                                <path d="M266.2,107.9L264.3,107.9C266.2,131.1 258,153.7 245,160C231,166.7 216.8,152.1 213.2,127.2C212.2,120.3 212.1,113.2 212.8,106.6L205.1,106.4L194.3,170.3L275.4,170.3L266.2,107.9Z" style="fill:rgb(255,197,95);fill-rule:nonzero;"/>
                                <path d="M276.7,172.4L191.6,172.5L189.6,166.4L280.4,166.4L276.7,172.4Z" style="fill:rgb(255,155,72);fill-rule:nonzero;"/>
                            </g>
                        </g>
                        <g>
                            <path d="M210,328.2L217.4,331.3L205.5,398.1L202.7,398.1L210,328.2Z" style="fill:rgb(73,30,35);fill-rule:nonzero;"/>
                            <path d="M197.3,328.2L204.6,331.3L192.7,398.1L190,398.1L197.3,328.2Z" style="fill:rgb(109,44,53);fill-rule:nonzero;"/>
                            <path d="M263,328.2L255.6,331.3L267.6,398.1L270.2,398.1L263,328.2Z" style="fill:rgb(73,30,35);fill-rule:nonzero;"/>
                            <path d="M275.8,328.2L268.4,331.3L280.2,398.1L283.1,398.1L275.8,328.2Z" style="fill:rgb(109,44,53);fill-rule:nonzero;"/>
                            <path d="M277.9,348.4L275.8,328.2L268.4,331.2L274.5,365.4C275.2,358.6 276.4,352.8 277.9,348.4Z" style="fill:rgb(73,30,35);fill-rule:nonzero;"/>
                            <path d="M276.4,322.8L198.5,322.8L198.5,334.1L272,334.1L276.4,322.8Z" style="fill:rgb(73,30,35);fill-rule:nonzero;"/>
                            <path d="M276.4,345.5L198.5,345.5L198.5,349.4L272,349.4L276.4,345.5Z" style="fill:rgb(73,30,35);fill-rule:nonzero;"/>
                            <path d="M198.9,363.2L204.6,331.3L197.2,328.3L194.6,352.9C196.4,354.3 197.8,358 198.9,363.2Z" style="fill:rgb(73,30,35);fill-rule:nonzero;"/>
                            <rect x="193.3" y="317.7" width="86.7" height="11.3" style="fill:rgb(135,64,72);"/>
                            <path d="M268.9,317.7L241.3,317.7L213.7,329L241.3,329L268.9,317.7Z" style="fill:rgb(153,65,77);fill-rule:nonzero;"/>
                            <rect x="193.3" y="317.7" width="86.7" height="4.1" style="fill:rgb(178,77,91);"/>
                        </g>
                        <g>
                            <g>
                                <path d="M185.3,232.4C185.4,232.8 185.5,233.3 185.7,233.7C181.5,233.3 184.6,236.9 187.5,237.2C187.8,237.7 188.2,238.1 188.5,238.5C183.7,238.6 176.4,232 185.3,232.4Z" style="fill:rgb(242,227,165);fill-rule:nonzero;"/>
                                <path d="M202.3,232.7L185.2,232.4C185.2,232.4 186.4,242 194.1,242.1C201.9,242.3 202.3,232.7 202.3,232.7Z" style="fill:rgb(255,247,207);fill-rule:nonzero;"/>
                                <path d="M189.4,243.3L197.5,243.5C197.5,243.5 197,241.1 193.3,241C189.7,240.9 189.4,243.3 189.4,243.3Z" style="fill:rgb(242,227,165);fill-rule:nonzero;"/>
                                <path d="M189.5,232.5C190.8,235.2 193.7,239 199.9,239.5C198.7,241 196.9,242.2 194.1,242.1C186.3,241.9 185.2,232.4 185.2,232.4L189.5,232.5Z" style="fill:rgb(249,235,178);fill-rule:nonzero;"/>
                                <path d="M185.5,233.8C185.3,233 185.2,232.4 185.2,232.4L202.3,232.7C202.3,232.7 202.3,233.2 202.1,234.1L185.5,233.8Z" style="fill:rgb(242,227,165);fill-rule:nonzero;"/>
                            </g>
                            <path d="M55.7,371.4C55.7,371.4 34.1,247.1 43.5,229.1C52.9,211.2 120.7,216.6 127.7,223.6C134.7,230.6 151.7,316.6 149.3,328.8C148.2,334.2 55.7,371.4 55.7,371.4Z" style="fill:rgb(229,207,143);fill-rule:nonzero;"/>
                            <path d="M127.7,223.6C122.2,218.1 78.5,213.5 55.9,220.7C50.5,270.2 122.5,312.3 146.3,303.6C146.6,303.5 146.9,303.1 147.1,302.9C142.6,273 132.7,228.6 127.7,223.6Z" style="fill:rgb(234,218,169);fill-rule:nonzero;"/>
                            <path d="M130.1,395.8L127.6,395.8L126.8,370.5L137,369.6L130.1,395.8Z" style="fill:rgb(117,55,60);fill-rule:nonzero;"/>
                            <path d="M175.5,395.8L173,395.8L172.2,370.5L182.4,369.6L175.5,395.8Z" style="fill:rgb(117,55,60);fill-rule:nonzero;"/>
                            <path d="M109.4,395.8L111.8,395.8L112.6,370.5L102.5,369.6L109.4,395.8Z" style="fill:rgb(117,55,60);fill-rule:nonzero;"/>
                            <path d="M64,395.8L66.4,395.8L67.3,370.5L57.1,369.6L64,395.8Z" style="fill:rgb(117,55,60);fill-rule:nonzero;"/>
                            <rect x="58.7" y="368.8" width="121.2" height="7.3" style="fill:rgb(117,55,60);"/>
                            <path d="M187.4,298.9C179.5,294.4 149.5,295 141.6,299.5C135.4,303 123.7,314.5 124.5,373.1L184.3,372.2C184.3,372.2 204.2,308.5 187.4,298.9Z" style="fill:rgb(229,207,143);fill-rule:nonzero;"/>
                            <path d="M172,301.1C167.5,298.5 156,297.6 145.3,298.1C130.2,302.4 128.9,330.7 129.4,371.1L169.4,372.5C172.5,361.8 187,309.6 172,301.1Z" style="fill:rgb(229,181,110);fill-rule:nonzero;"/>
                            <path d="M59.7,223.3C60.7,221.4 62.4,219.7 64.7,218.3C52.2,219.9 41.9,223.3 38.7,229.4C29.3,247.3 55.7,371.3 55.7,371.3C55.7,371.3 64.3,367.9 76.2,362.9C72.7,346 51,239.8 59.7,223.3Z" style="fill:rgb(229,181,110);fill-rule:nonzero;"/>
                            <path d="M186.8,331.8C143.4,322.4 103.1,324.2 52.7,331.8L56.3,373.1L184.2,373.1C189.4,362.3 190.7,343.3 186.8,331.8Z" style="fill:rgb(234,218,169);fill-rule:nonzero;"/>
                            <path d="M186.8,331.8C154.2,324.8 123.4,324 88.7,327.3C88.5,327.8 88.4,328.3 88.4,328.9C88.4,338.1 114,345.6 145.6,345.6C162.7,345.6 178,343.4 188.5,340C188.2,336.9 187.6,334.2 186.8,331.8Z" style="fill:rgb(244,228,184);fill-rule:nonzero;"/>
                            <path d="M101.7,303C100.3,302.4 98.4,301.7 96.2,301.1C96.1,301.2 96,301.4 95.8,301.5C97.4,302 98.7,302.4 99.7,302.9C118.9,312 115.7,372.1 115.7,372.1L118.8,372.1C118.8,372.2 120.9,312.1 101.7,303Z" style="fill:rgb(229,181,110);fill-rule:nonzero;"/>
                            <path d="M102.5,298.9C93.6,294.3 61.4,290.8 54.5,295.4C49.1,299 42.9,313.9 56.3,373.1L115.9,372.2C115.9,372.2 121.4,308.5 102.5,298.9Z" style="fill:rgb(229,207,143);fill-rule:nonzero;"/>
                            <path d="M187.4,298.9C185.9,298 183.6,297.4 180.8,296.9C168.5,305.4 161.4,323.4 169.2,372.5L184.2,372.2C184.3,372.2 204.2,308.5 187.4,298.9Z" style="fill:rgb(234,218,169);fill-rule:nonzero;"/>
                            <path d="M153.6,303C152.2,302.4 150.3,301.7 148.1,301.1C148,301.2 147.9,301.4 147.7,301.5C149.3,302 150.6,302.4 151.6,302.9C170.8,312 167.6,372.1 167.6,372.1L170.7,372.1C170.7,372.2 172.8,312.1 153.6,303Z" style="fill:rgb(229,181,110);fill-rule:nonzero;"/>
                            <path d="M54.8,293.4C67.1,292.9 91.4,295.2 97.8,298.4C98.8,298.9 99.7,299.5 100.5,300.3C99.4,298.8 98,297.6 96.5,296.8C90.2,293.6 66.7,291.3 54.8,291.8C50.9,293.5 48.9,298.7 48.1,305.8C49,299.5 51,294.9 54.8,293.4Z" style="fill:rgb(234,218,169);fill-rule:nonzero;"/>
                            <path d="M189.6,318.4C190.7,311.7 188.7,305.7 185,305.1C181.3,304.5 177.4,309.4 176.3,316.2C175.2,322.9 177.2,328.9 180.9,329.5C184.6,330.1 188.5,325.1 189.6,318.4Z" style="fill:rgb(229,181,110);fill-rule:nonzero;"/>
                            <path d="M183.8,317.4C184.4,314 183.3,311 181.5,310.7C179.6,310.4 177.7,312.9 177.1,316.3C176.5,319.7 177.6,322.7 179.4,323C181.3,323.3 183.3,320.8 183.8,317.4Z" style="fill:rgb(234,218,169);fill-rule:nonzero;"/>
                            <g>
                                <path d="M173.6,236.1C175,233.3 175.6,231.8 176.9,231.5C178.2,231.2 181.9,232.4 182.6,233.2C183.3,234 181,236.3 180.6,236.8C180.2,237.3 178.6,236.7 178.5,236.2C178.4,235.6 178.9,234 178.6,233.8C178.3,233.6 177.8,233.7 177.8,233.7C177.8,233.7 175.7,237.3 173.6,236.1Z" style="fill:rgb(255,184,130);fill-rule:nonzero;"/>
                                <path d="M180.7,236.3C179.8,235.6 180.4,233.9 181,234C181.6,234 185.1,233.7 185.5,234.4C185.9,235.1 185.8,236.7 185.3,236.8C184.8,237 181.4,236.9 180.7,236.3Z" style="fill:rgb(255,184,130);fill-rule:nonzero;"/>
                                <path d="M180.1,238.9C179.2,238.2 179.8,236.5 180.4,236.6C181,236.6 184.5,236.3 184.9,237C185.3,237.7 185.2,239.3 184.7,239.4C184.2,239.6 180.8,239.5 180.1,238.9Z" style="fill:rgb(255,184,130);fill-rule:nonzero;"/>
                                <path d="M179.8,241.6C179,240.9 179.4,239.2 180,239.3C180.5,239.3 183.7,239 184.1,239.8C184.5,240.5 184.5,242.1 184,242.2C183.6,242.3 180.5,242.2 179.8,241.6Z" style="fill:rgb(255,184,130);fill-rule:nonzero;"/>
                                <path d="M168.7,236.8C168.7,236.8 172.8,236.3 173.6,235.6C174.9,234.5 176.4,233.7 178.7,232.5C179.4,232.1 183.5,233.9 184.9,234.7C184.3,235.3 183.4,242.2 183.4,242.2C183.4,242.2 179.9,243.2 177.3,243C176.5,242.9 173.8,243.6 171.9,244.3C169.8,245.1 168.7,236.8 168.7,236.8Z" style="fill:rgb(255,184,130);fill-rule:nonzero;"/>
                                <g id="left_hand_1_">
                                    <g id="shoulder_left_1_">
                                        <path d="M124.4,231.2C134.2,229.2 162.5,282.4 148.2,289.3C122.7,301.5 114.6,233.2 124.4,231.2Z" style="fill:rgb(51,51,51);fill-rule:nonzero;"/>
                                    </g>
                                    <g id="forearm_left_2_">
                                        <path d="M135.2,274.3C131.9,278.6 133.1,287.3 142.4,294.7C153.6,303.6 172.7,312.6 172.7,312.6L174,310.4C174,310.4 162.8,286 153.7,277.2C147.6,271.5 139.3,269 135.2,274.3Z" style="fill:rgb(51,51,51);fill-rule:nonzero;"/>
                                    </g>
                                </g>
                                <g>
                                    <path d="M176.4,312L182.9,311.2L187.1,314.4L203.7,395.5L202.2,395.5L171.8,323.4L176.4,312Z" style="fill:rgb(51,51,51);fill-rule:nonzero;"/>
                                    <path d="M172,311.9L178.8,311.2L177.9,321.8L159.8,394.9L157.5,394.9L162.4,332.3L172,311.9Z" style="fill:rgb(86,59,64);fill-rule:nonzero;"/>
                                    <path d="M167.9,317.4L160.6,330.3L157.5,394.9L159.2,394.9L177.4,325.1L167.9,317.4Z" style="fill:rgb(51,51,51);fill-rule:nonzero;"/>
                                    <path d="M172.2,324.7L109.8,324.9L105.4,314.3L105.2,298.6C105.2,298.6 133.3,294.2 135.3,295.2C137.3,296.2 181.7,310.5 182.7,311.2C183.8,311.9 172.2,324.7 172.2,324.7Z" style="fill:rgb(60,60,61);fill-rule:nonzero;"/>
                                    <path d="M125.7,320.2L126.5,312.3L142.5,297.9C139.2,296.9 135.9,295.3 135.4,295.1C133.4,294.1 105.3,298.5 105.3,298.5L103,315.3L107.3,325.8L179.7,326.6C179.7,326.6 185.9,309.5 179.9,312.2L125.7,320.2Z" style="fill:rgb(51,51,51);fill-rule:nonzero;"/>
                                    <path d="M200,396.7L214.4,396.7C214.4,396.7 204,391.4 202,391.4C200,391.4 200,396.7 200,396.7Z" style="fill:rgb(58,49,51);fill-rule:nonzero;"/>
                                    <path d="M155.8,396.7L168.8,396.7C168.8,396.7 160.9,390.9 158.9,390.9C156.9,390.9 155.8,396.7 155.8,396.7Z" style="fill:rgb(58,49,51);fill-rule:nonzero;"/>
                                </g>
                                <path d="M134.9,296.2C140.3,288.8 136.8,281 136.9,262.2C136.9,259.5 135.3,237 118.7,224.3C114.8,221.3 98.2,216 94.4,227.2C91.3,236.2 100.5,252.9 98.9,272.9C98.2,281.2 95.6,310 104.5,322.5C106.4,325.2 132.3,297.9 134.9,296.2Z" style="fill:rgb(51,51,51);fill-rule:nonzero;"/>
                                <path d="M125.8,261.8C122.8,261 106.9,239 96.9,223.4C95.8,224.4 95,225.7 94.4,227.4C91.3,236.4 89.5,250.7 90.9,271.9C91.5,280.2 95.6,310.2 104.5,322.7C105.5,324.1 112.2,317.8 118.7,311.3C118.4,310.3 118.2,309.3 118,308.3C114.8,290.5 125.1,269.1 131.9,269.1C132.5,269.1 133.1,269.2 133.7,269.4C134.6,267.1 135.6,264.7 136.9,262.3C137,262.1 137.1,261.8 137.1,261.3C133.9,261.7 127.7,262.3 125.8,261.8Z" style="fill:rgb(60,60,61);fill-rule:nonzero;"/>
                                <path d="M103.1,199.1L120.8,202.7L121.2,231.8L100.4,221.3L103.1,199.1Z" style="fill:rgb(233,170,120);fill-rule:nonzero;"/>
                                <path d="M123.8,233.9L99.3,221.8C99.3,221.8 98.3,218.9 100.8,218.5L121.3,229.5C121.3,229.4 124.5,230.9 123.8,233.9Z" style="fill:white;fill-rule:nonzero;"/>
                                <path d="M99.4,222.4C105.5,224.5 142.1,245.7 145.1,249.3C148.1,252.8 144.7,264.5 138.6,263.9C132.4,263.4 109.3,255.4 103.7,252.6C88.2,245 92.3,220 99.4,222.4Z" style="fill:rgb(60,60,61);fill-rule:nonzero;"/>
                                <g id="forearm_left_1_">
                                    <path d="M134.8,262.4C137.7,266.1 145.2,267.1 153.4,260.9C163.3,253.5 174.2,244.3 174.2,244.3L171.4,235.8C171.4,235.8 150.7,241.9 141.4,247.6C135.2,251.4 131.3,257.8 134.8,262.4Z" style="fill:rgb(51,51,51);fill-rule:nonzero;"/>
                                </g>
                                <path d="M145,249.2C143.9,252.9 141.6,256.1 138.4,255.9C132.2,255.4 108.4,248.1 102.9,245.3C97.4,242.6 94.4,237.4 93.1,231.9C92.2,239.8 94.7,250.4 103.4,254.8C108.9,257.5 132.8,264.8 138.9,265.4C145.1,265.9 148,252.9 145,249.2C145.1,249.2 145,249.2 145,249.2Z" style="fill:rgb(51,51,51);fill-rule:nonzero;"/>
                                <g>
                                    <g id="angry_1_">
                                        <path d="M133.7,181.4C132.5,184.9 129.8,187.1 127.7,186.4C125.6,185.7 125,182.2 126.2,178.8C127.4,175.3 130.1,173.1 132.2,173.8C134.3,174.5 134.9,177.9 133.7,181.4Z" style="fill:rgb(102,102,102);fill-rule:nonzero;"/>
                                        <path d="M102.5,166.6C102.5,166.6 101.7,162 105.9,160.6C109.1,159.6 124.3,161.8 127.7,160.9C131,160 130.8,157.7 130.8,157.7C130.8,157.7 136.2,162.7 134.2,172.2C132.2,181.7 123.3,183.2 123.3,183.2L104.4,174.9L102.5,166.6Z" style="fill:rgb(102,102,102);fill-rule:nonzero;"/>
                                        <path d="M109.9,190C110.2,201.4 108.9,206.9 104.8,207.4C99.6,208.1 92.6,182.9 95,173.3C96.2,168.5 101.1,166.1 104.7,166.5C108.9,167 109.6,178.6 109.9,190Z" style="fill:rgb(102,102,102);fill-rule:nonzero;"/>
                                        <path d="M106.4,199.7C106.2,202.3 103.9,204.2 101.4,203.9C98.8,203.7 96.9,201.4 97.2,198.9C97.4,196.3 99.7,194.4 102.2,194.7C104.7,194.9 106.6,197.2 106.4,199.7Z" style="fill:rgb(255,183,129);fill-rule:nonzero;"/>
                                        <path d="M132.2,185.9C132.1,200 135.4,205.2 134.5,209C132.8,216.4 124.8,223.1 120.4,223.8C116.6,224.4 103.2,216.7 102.1,208.9C101,201.3 101.3,179.2 110,175.1C125.3,167.7 133.2,178.4 132.2,185.9Z" style="fill:rgb(255,183,129);fill-rule:nonzero;"/>
                                        <path d="M100.4,199.4C100.5,198.4 101.3,197.7 102.3,197.8C102.4,197.8 102.6,197.8 102.7,197.9C102.4,197.6 102,197.4 101.5,197.4C100.4,197.3 99.4,198.1 99.3,199.3C99.2,200.4 100,201.4 101.2,201.5C101.5,201.5 101.8,201.5 102,201.4C101,201.2 100.3,200.3 100.4,199.4Z" style="fill:rgb(233,123,89);fill-rule:nonzero;"/>
                                        <path d="M120.9,172.5C105.3,171.3 104.3,187.1 103.8,199.6L102.3,199.2C96.2,178.8 102,163.8 120.9,172.5Z" style="fill:rgb(102,102,102);fill-rule:nonzero;"/>
                                        <path d="M106.9,161.3C106.9,161.3 104.7,161.9 105.4,164.2C106.1,166.5 114.6,169.8 120.6,169.8C127.3,169.9 134.5,165.4 130.9,157.7C130.9,157.7 131.7,160.1 128,161.4C123.7,162.9 110.4,160.1 106.9,161.3Z" style="fill:rgb(128,128,128);fill-rule:nonzero;"/>
                                        <path d="M96.2,172.2C96.2,172.2 98.1,167.4 102,168.1C105.9,168.9 105.7,173 104.8,174.7C103.9,176.4 99.9,184.6 97.7,184.5C95.5,184.5 94.3,177.5 96.2,172.2Z" style="fill:rgb(128,128,128);fill-rule:nonzero;"/>
                                        <path d="M102.5,166.6C102.5,166.6 106.7,170.7 112.5,174L111.7,174.5C111.7,174.5 105,170.2 102.5,166.6Z" style="fill:rgb(128,128,128);fill-rule:nonzero;"/>
                                        <g>
                                            <path d="M130.8,157.7C130.9,157.8 131,157.9 131,158.1C130.9,157.9 130.8,157.7 130.8,157.7Z" style="fill:rgb(112,63,44);fill-rule:nonzero;"/>
                                            <path d="M125.1,173.7C125.2,173.7 137,167.3 131.1,158.1C132.1,159.8 135.7,167.4 124.3,173.4L124.5,173.5C124.6,173.5 124.9,173.6 125.1,173.7Z" style="fill:rgb(128,128,128);fill-rule:nonzero;"/>
                                        </g>
                                        <path d="M133.2,161.2C133.2,161.2 136.3,170.3 127.3,175L127.8,175.4C127.8,175.3 136.8,170.9 133.2,161.2Z" style="fill:rgb(128,128,128);fill-rule:nonzero;"/>
                                        <path d="M104.8,187.3L95.4,187.5L95.5,188.1L104.7,188L104.8,187.3Z" style="fill:rgb(128,128,128);fill-rule:nonzero;"/>
                                        <path d="M104.5,189.5L95.9,189.8L96,190.3L104.4,190.4L104.5,189.5Z" style="fill:rgb(128,128,128);fill-rule:nonzero;"/>
                                        <path d="M123.6,190.7C123.9,191.1 128.7,186.6 129.9,186.7C131,186.8 132.3,188.4 132.3,188.4C132.3,188.4 131.5,185.3 130.2,185.3C128.8,185.3 125.1,188.3 124.4,188.8C124,189 123.2,190.3 123.6,190.7Z" style="fill:rgb(77,77,77);fill-rule:nonzero;"/>
                                        <path d="M108.9,188.3C108.9,188.3 111.9,186 113.5,186.2C114.9,186.4 120.5,191.5 121.4,190.7C121.8,190.4 120.9,189 119.3,187.9C118.5,187.3 114.7,184.5 113.8,184.3C112.9,184.3 110.2,186.6 108.9,188.3Z" style="fill:rgb(77,77,77);fill-rule:nonzero;"/>
                                        <g>
                                            <g>
                                                <path d="M113.1,209.6L113.7,209.4C115,214.6 121.1,215.4 125.2,213.6L125.3,214C122.1,215.5 115,217 113.1,209.6Z" style="fill:rgb(195,105,81);fill-rule:nonzero;"/>
                                            </g>
                                            <path d="M117.4,216.6C117.4,216.6 119.8,217.7 122.7,216.6C120.7,218.7 119,218.5 117.4,216.6Z" style="fill:rgb(238,142,111);fill-rule:nonzero;"/>
                                            <path d="M111.3,209.9C111.3,209.9 113.1,209.8 114.7,208.1C113.9,210.3 112.8,210.6 111.3,209.9Z" style="fill:rgb(195,105,81);fill-rule:nonzero;"/>
                                        </g>
                                    </g>
                                    <g>
                                        <path d="M122.2,191.4C123.6,196.3 125.5,202.8 125.5,203.7C125.5,204.6 121.4,205.8 120.6,205.5C119.9,205.2 121.5,191.4 121.5,191.4L122.2,191.4Z" style="fill:rgb(233,123,89);fill-rule:nonzero;"/>
                                        <path d="M121.5,191C122.9,195.9 124.8,202.4 124.8,203.3C124.8,204.2 120.7,205.4 119.9,205.1C119.2,204.8 120.8,191 120.8,191L121.5,191Z" style="fill:rgb(255,183,129);fill-rule:nonzero;"/>
                                    </g>
                                    <g>
                                        <path d="M124.7,195.3C124.6,193.5 124.9,191.3 127.7,190.5C130.5,189.7 131.9,192.3 131.8,193.2C131.7,194.1 131,195.5 129.4,195.7C127.8,195.9 126.4,195.7 125.9,195.8C125.4,195.9 124.7,195.7 124.7,195.3Z" style="fill:white;fill-rule:nonzero;"/>
                                        <circle cx="128" cy="193.1" r="2.3" style="fill:rgb(57,23,11);"/>
                                        <path d="M128.1,193.7C128.1,194.3 128.6,194.8 129.2,194.7C129.8,194.7 130.3,194.2 130.2,193.6C130.2,193 129.7,192.5 129.1,192.6C128.6,192.6 128.1,193.1 128.1,193.7Z" style="fill:white;fill-rule:nonzero;"/>
                                        <path d="M117.4,195.6C117.3,193.8 116.9,191.6 114.1,191C111.2,190.4 110,193 110.2,194C110.3,195 111.2,196.3 112.7,196.3C114.3,196.4 115.7,196.1 116.2,196.2C116.7,196.2 117.4,195.9 117.4,195.6Z" style="fill:white;fill-rule:nonzero;"/>
                                        <path d="M116.2,193.3C116.2,194.6 115.2,195.7 113.9,195.7C112.6,195.7 111.5,194.7 111.5,193.4C111.5,192.1 112.5,191 113.8,191C115.1,191 116.1,192 116.2,193.3Z" style="fill:rgb(57,23,11);fill-rule:nonzero;"/>
                                        <path d="M116.1,193.9C116.1,194.5 115.7,195 115.1,195C114.5,195 114,194.6 114,194C114,193.4 114.4,192.9 115,192.9C115.6,192.8 116.1,193.3 116.1,193.9Z" style="fill:white;fill-rule:nonzero;"/>
                                    </g>
                                </g>
                            </g>
                            <path d="M96.5,296.8C90.2,293.6 66.7,291.3 54.8,291.8C39.8,298.2 52.8,357.4 56.4,373.1L105.2,372.4C106,358.1 112.4,304.9 96.5,296.8Z" style="fill:rgb(229,181,110);fill-rule:nonzero;"/>
                            <path d="M102.5,298.9C101.2,298.2 99.3,297.6 97.1,296.9C90.8,303.9 87.9,325.6 90.5,350.7C91.3,358.5 92.6,365.9 94.2,372.6L115.9,372.3C115.9,372.2 121.4,308.5 102.5,298.9Z" style="fill:rgb(234,218,169);fill-rule:nonzero;"/>
                            <g transform="matrix(0.9969,-0.0785322,0.0785322,0.9969,-24.7276,9.0226)">
                                <ellipse cx="102.3" cy="318.9" rx="6.8" ry="12.4" style="fill:rgb(229,181,110);"/>
                            </g>
                            <path d="M103.3,318.8C103,315.4 101.3,312.7 99.4,312.9C97.5,313 96.2,315.9 96.5,319.4C96.8,322.8 98.5,325.5 100.4,325.3C102.3,325.1 103.6,322.2 103.3,318.8Z" style="fill:rgb(234,218,169);fill-rule:nonzero;"/>
                        </g>
                        <g>
                            <path d="M413.7,371.4C413.7,371.4 435.3,247.1 425.9,229.1C416.5,211.2 348.7,216.6 341.7,223.6C334.7,230.6 317.7,316.6 320.1,328.8C321.2,334.2 413.7,371.4 413.7,371.4Z" style="fill:rgb(229,207,143);fill-rule:nonzero;"/>
                            <path d="M341.7,223.6C347.2,218.1 390.9,213.5 413.5,220.7C418.9,270.2 346.9,312.3 323.1,303.6C322.8,303.5 322.5,303.1 322.3,302.9C326.8,273 336.7,228.6 341.7,223.6Z" style="fill:rgb(234,218,169);fill-rule:nonzero;"/>
                            <path d="M339.4,395.8L341.8,395.8L342.6,370.5L332.5,369.6L339.4,395.8Z" style="fill:rgb(117,55,60);fill-rule:nonzero;"/>
                            <path d="M294,395.8L296.4,395.8L297.2,370.5L287.1,369.6L294,395.8Z" style="fill:rgb(117,55,60);fill-rule:nonzero;"/>
                            <path d="M360,395.8L357.6,395.8L356.8,370.5L366.9,369.6L360,395.8Z" style="fill:rgb(117,55,60);fill-rule:nonzero;"/>
                            <path d="M405.4,395.8L403,395.8L402.2,370.5L412.2,369.6L405.4,395.8Z" style="fill:rgb(117,55,60);fill-rule:nonzero;"/>
                            <rect x="289.4" y="368.9" width="121.2" height="7.3" style="fill:rgb(117,55,60);"/>
                            <path d="M282,298.9C289.9,294.4 319.9,295 327.8,299.5C334,303 345.7,314.5 344.9,373.1L285.1,372.2C285.2,372.2 265.2,308.5 282,298.9Z" style="fill:rgb(229,207,143);fill-rule:nonzero;"/>
                            <path d="M297.5,301.1C302,298.5 313.5,297.6 324.2,298.1C339.3,302.4 340.6,330.7 340.1,371.1L300.1,372.5C296.9,361.8 282.4,309.6 297.5,301.1Z" style="fill:rgb(229,181,110);fill-rule:nonzero;"/>
                            <path d="M409.8,223.3C408.8,221.4 407.1,219.7 404.8,218.3C417.3,219.9 427.6,223.3 430.8,229.4C440.2,247.3 413.8,371.3 413.8,371.3C413.8,371.3 405.2,367.9 393.3,362.9C396.8,346 418.4,239.8 409.8,223.3Z" style="fill:rgb(229,181,110);fill-rule:nonzero;"/>
                            <path d="M282.6,331.8C326,322.4 366.3,324.2 416.7,331.8L413.1,373.1L285.2,373.1C280,362.3 278.8,343.3 282.6,331.8Z" style="fill:rgb(234,218,169);fill-rule:nonzero;"/>
                            <path d="M282.6,331.8C315.2,324.8 346,324 380.7,327.3C380.9,327.8 381,328.3 381,328.9C381,338.1 355.4,345.6 323.8,345.6C306.7,345.6 291.4,343.4 280.9,340C281.2,336.9 281.8,334.2 282.6,331.8Z" style="fill:rgb(244,228,184);fill-rule:nonzero;"/>
                            <path d="M367.7,303C369.1,302.4 371,301.7 373.2,301.1C373.3,301.2 373.4,301.4 373.6,301.5C372,302 370.7,302.4 369.7,302.9C350.5,312 353.7,372.1 353.7,372.1L350.6,372.1C350.7,372.2 348.6,312.1 367.7,303Z" style="fill:rgb(229,181,110);fill-rule:nonzero;"/>
                            <path d="M366.9,298.9C375.8,294.3 408,290.8 414.9,295.4C420.3,299 426.5,313.9 413.1,373.1L353.5,372.2C353.5,372.2 348.1,308.5 366.9,298.9Z" style="fill:rgb(229,207,143);fill-rule:nonzero;"/>
                            <path d="M282,298.9C283.5,298 285.8,297.4 288.6,296.9C300.9,305.4 308,323.4 300.2,372.5L285.2,372.2C285.2,372.2 265.2,308.5 282,298.9Z" style="fill:rgb(234,218,169);fill-rule:nonzero;"/>
                            <path d="M315.8,303C317.2,302.4 319.1,301.7 321.3,301.1C321.4,301.2 321.5,301.4 321.7,301.5C320.1,302 318.8,302.4 317.8,302.9C298.6,312 301.8,372.1 301.8,372.1L298.7,372.1C298.7,372.2 296.6,312.1 315.8,303Z" style="fill:rgb(229,181,110);fill-rule:nonzero;"/>
                            <g transform="matrix(0.9863,-0.1647,0.1647,0.9863,-48.3479,51.5111)">
                                <ellipse cx="286.4" cy="317.3" rx="6.8" ry="12.4" style="fill:rgb(229,181,110);"/>
                            </g>
                            <path d="M285.6,317.4C285,314 286.1,311 287.9,310.7C289.8,310.4 291.7,312.9 292.3,316.3C292.9,319.7 291.8,322.7 290,323C288.1,323.3 286.2,320.8 285.6,317.4Z" style="fill:rgb(234,218,169);fill-rule:nonzero;"/>
                        </g>
                        <rect x="-10" y="396.3" width="458.8" height="28.2" style="fill:rgb(255,125,156);"/>
                        <path d="M448.8,396.3L266.6,396.3L26.7,424.5L331.8,424.5L449.2,410.7L448.8,396.3Z" style="fill:rgb(255,156,173);fill-rule:nonzero;"/>
                        <path d="M248.4,401.2C342.8,401.2 424.8,401.4 465.8,396.3L30.9,396.3C72,401.4 153.9,401.2 248.4,401.2Z" style="fill:rgb(109,48,72);fill-opacity:0.6;fill-rule:nonzero;"/>
                        <g>
                            <g>
                                <path d="M314.9,317.7L313,312.1L321.8,311.5L320.5,317.1L314.9,317.7Z" style="fill:rgb(249,242,192);fill-rule:nonzero;"/>
                                <path d="M317.4,315.1C318.6,314.8 319.7,315 320.7,316.8L321.9,311.5L313.1,312.2L315,317.8L315.3,317.8C315.2,315.9 316.2,315.4 317.4,315.1Z" style="fill:rgb(224,213,153);fill-rule:nonzero;"/>
                                <path d="M307.6,278.2C303.4,278.3 303.5,240.2 313.2,219C313.2,219 328.6,232.9 329.9,243.7C329.9,243.7 324.6,277.8 307.6,278.2Z" style="fill:rgb(97,178,214);fill-rule:nonzero;"/>
                                <path d="M305.2,268.2C305.2,268.2 304,284 313,314.5C313,314.5 317.4,315.5 322.6,312.1C322.6,312.1 326.7,279.6 318.4,268.4C318.2,268.6 309.4,263.7 305.2,268.2Z" style="fill:rgb(97,178,214);fill-rule:nonzero;"/>
                                <path d="M314.2,267.2C316.7,268.1 319.9,269.6 319.7,270.5C319.1,272.5 314.2,267.2 314.2,267.2Z" style="fill:rgb(73,146,186);fill-rule:nonzero;"/>
                                <path d="M315.1,272.4C316.4,270.1 318.5,267.2 319.4,267.6C321.1,268.5 315.1,272.4 315.1,272.4Z" style="fill:rgb(73,146,186);fill-rule:nonzero;"/>
                                <path d="M329.6,245.7C326,253.7 321.2,263.8 317,269.3C323.2,281.6 321.5,311.2 321.3,313C321.7,312.8 322.1,312.5 322.6,312.3C322.6,312.3 326.2,283.7 319.8,270.9C325.7,262.8 328.6,250.5 329.6,245.7Z" style="fill:rgb(73,146,186);fill-rule:nonzero;"/>
                                <path d="M311.8,309.8C312.4,309.7 312.9,309.1 312.9,308.4C312.9,307.7 312.2,307.1 311.5,307.1C311.4,307.1 311.3,307.1 311.2,307.2L311.8,309.8Z" style="fill:rgb(199,243,255);fill-rule:nonzero;"/>
                            </g>
                            <g>
                                <path d="M297.1,322.5C296.5,322.5 296.4,321.5 296.5,320.4C296.6,319.3 296.8,318.4 297.4,318.5C298,318.5 298.4,319.5 298.3,320.6C298.2,321.6 297.6,322.5 297.1,322.5Z" style="fill:rgb(244,173,125);fill-rule:nonzero;"/>
                                <path d="M295.7,322.6C295.1,322.6 295,321.6 295.1,320.5C295.2,319.4 295.4,318.5 296,318.6C296.6,318.6 297,319.6 296.9,320.7C296.8,321.7 296.2,322.6 295.7,322.6Z" style="fill:rgb(244,173,125);fill-rule:nonzero;"/>
                                <path d="M299.2,321.7C299.3,322.3 298.3,322.5 297.2,322.7C296.1,322.8 295.2,322.8 295.1,322.2C295,321.6 295.9,321 297,320.9C298.1,320.7 299.1,321.1 299.2,321.7Z" style="fill:rgb(255,205,156);fill-rule:nonzero;"/>
                                <path d="M300,312.8C300.5,314.6 303.1,321.6 301,322.5C300,322.9 298.1,323.5 297.3,321.4C296.7,319.8 297,316.1 298,312.9L300,312.8Z" style="fill:rgb(255,205,156);fill-rule:nonzero;"/>
                                <path d="M299.4,315.5L299.4,314.3L297.5,314.2L297.1,315.5L299.4,315.5Z" style="fill:rgb(117,97,80);fill-rule:nonzero;"/>
                                <path d="M300.5,316.7C301.2,316.5 301.5,315.7 301.3,314.9C301.1,314.1 300.4,313.5 299.7,313.7C299,313.9 298.7,314.7 298.9,315.5C299.1,316.3 299.8,316.8 300.5,316.7Z" style="fill:rgb(71,58,46);fill-rule:nonzero;"/>
                                <path d="M300.5,316.3C301,316.2 301.3,315.5 301.2,314.8C301,314.1 300.5,313.7 299.9,313.8C299.4,313.9 299.1,314.6 299.2,315.3C299.4,316 299.9,316.5 300.5,316.3Z" style="fill:rgb(117,97,80);fill-rule:nonzero;"/>
                                <path d="M300.4,316.2C300.9,316.1 301.2,315.5 301,314.8C300.8,314.2 300.3,313.8 299.8,313.9C299.3,314 299,314.6 299.2,315.3C299.2,315.9 299.9,316.3 300.4,316.2Z" style="fill:rgb(173,147,127);fill-rule:nonzero;"/>
                                <path d="M300.2,315.3C300.3,315.3 300.3,315.2 300.3,315.1C300.3,315 300.2,314.9 300.1,314.9C300,314.9 300,315 300,315.1C300,315.3 300.1,315.3 300.2,315.3Z" style="fill:rgb(71,58,46);fill-rule:nonzero;"/>
                            </g>
                            <g>
                                <path d="M295.6,314.7L289.1,314L284.9,317.2L268.2,398.3L269.7,398.3L300.2,326.2L295.6,314.7Z" style="fill:rgb(66,44,49);fill-rule:nonzero;"/>
                                <path d="M300,314.7L293.2,314L294.1,324.6L312.2,397.7L314.5,397.7L309.6,335.1L300,314.7Z" style="fill:rgb(86,59,64);fill-rule:nonzero;"/>
                                <path d="M304.1,320.2L311.4,333.1L314.5,397.7L312.8,397.7L294.6,327.9L304.1,320.2Z" style="fill:rgb(66,44,49);fill-rule:nonzero;"/>
                                <path d="M299.8,327.5L362.2,327.7L366.6,317.1L366.8,301.4C366.8,301.4 339.8,299 337.8,300C335.8,301 290.3,313.2 289.3,314C288.2,314.7 299.8,327.5 299.8,327.5Z" style="fill:rgb(86,59,64);fill-rule:nonzero;"/>
                                <path d="M346.2,323L345.4,315.1L331.5,301.8C334.8,300.8 337.1,300.2 337.5,300C339.5,299 366.5,301.4 366.5,301.4L368.8,318.2L364.5,328.7L292.1,329.5C292.1,329.5 285.9,312.4 291.9,315.1L346.2,323Z" style="fill:rgb(66,44,49);fill-rule:nonzero;"/>
                                <path d="M272,399.5L257.6,399.5C257.6,399.5 268,394.2 270,394.2C272,394.2 272,399.5 272,399.5Z" style="fill:rgb(244,233,190);fill-rule:nonzero;"/>
                                <path d="M316.1,399.5L303.1,399.5C303.1,399.5 311,393.7 313,393.7C315,393.7 316.1,399.5 316.1,399.5Z" style="fill:rgb(244,233,190);fill-rule:nonzero;"/>
                            </g>
                            <g>
                                <path d="M361.5,207.2C359.4,205 346.5,204.7 343.7,207.2L343.6,210L361.4,210L361.5,207.2Z" style="fill:rgb(226,212,129);fill-rule:nonzero;"/>
                                <rect x="339.1" y="283.4" width="18.9" height="7.3" style="fill:rgb(249,242,192);"/>
                                <path d="M332.9,301.5C332.9,301.5 316.4,241.7 313.3,219.1C313.3,219.1 348.5,198.1 388.3,217.3C388.3,217.3 375.1,292.9 373.1,304.1C360.5,299.4 345.1,299.4 332.9,301.5Z" style="fill:rgb(97,178,214);fill-rule:nonzero;"/>
                                <g>
                                    <path d="M313.2,219.1C316.3,241.7 332.8,301.5 332.8,301.5C333.4,301.4 333.9,301.3 334.4,301.2C333.5,296.4 313.2,219.1 313.2,219.1Z" style="fill:rgb(73,146,186);fill-rule:nonzero;"/>
                                    <path d="M371.1,303.4C371.8,303.7 372.4,304 373.1,304.2C375.1,293 387.7,220.9 387.7,220.9C381.9,231.6 374.9,294.5 371.1,303.4Z" style="fill:rgb(73,146,186);fill-rule:nonzero;"/>
                                </g>
                                <path d="M344.6,263.2C344.6,263.2 320.1,240.8 333.3,211.3C333.3,211.3 356,207 372.4,211.2C377.9,236.5 357.1,252.9 344.6,263.2Z" style="fill:rgb(124,212,242);fill-rule:nonzero;"/>
                                <path d="M344.2,263.2C344.2,263.2 330.7,240.6 339.7,210.7C339.7,210.7 356.1,209.6 365.4,210.6C368.9,236.2 352.6,252.8 344.2,263.2Z" style="fill:rgb(159,191,204);fill-rule:nonzero;"/>
                                <path d="M344.2,263.2C344.2,263.2 332.2,240.6 340.6,210.7C340.6,210.7 355.8,209.6 364.5,210.6C367.7,236.2 352,252.8 344.2,263.2Z" style="fill:rgb(249,242,192);fill-rule:nonzero;"/>
                                <path d="M340.4,211L343.7,208.3C344.9,211.7 347.1,213.7 352.2,215.2C352.2,215.2 348.1,221.3 346.2,221.2C344.4,221 340.4,211 340.4,211Z" style="fill:rgb(226,212,129);fill-rule:nonzero;"/>
                                <path d="M364.6,211.3L361.5,208.3C359.9,211.6 357.6,213.7 352.1,215.2C352.1,215.2 356.1,221.3 358.1,221.2C360.1,221 364.6,211.3 364.6,211.3Z" style="fill:rgb(226,212,129);fill-rule:nonzero;"/>
                                <path d="M359.5,200.8L345.9,200.8L343.9,213C351.3,216.8 355.6,216.4 361.4,212.2L359.5,200.8Z" style="fill:rgb(244,173,125);fill-rule:nonzero;"/>
                                <path d="M348.6,217.8L351.9,219.9L355.8,217.5L353.6,214.3L351,214.2L348.6,217.8Z" style="fill:rgb(117,63,45);fill-rule:nonzero;"/>
                                <path d="M339.6,210.5L343.7,207.2C344.9,210.6 347.1,212.6 352.2,214.1C352.2,214.1 348.1,220.2 346.2,220.1C344.4,219.9 339.6,210.5 339.6,210.5Z" style="fill:rgb(255,250,215);fill-rule:nonzero;"/>
                                <path d="M365.7,210.5L361.5,207.2C359.9,210.5 357.7,212.6 352.1,214.1C352.1,214.1 356.1,220.2 358.1,220.1C360.1,219.9 365.7,210.5 365.7,210.5Z" style="fill:rgb(255,250,215);fill-rule:nonzero;"/>
                                <path d="M352.6,219L351.2,219.2L341.2,259.1L344.2,263.2L347.4,259.1L352.6,219Z" style="fill:rgb(117,63,45);fill-rule:nonzero;"/>
                                <path d="M345.8,284.1C345.8,283.2 345.1,282.6 344.2,282.6C343.3,282.6 342.6,283.3 342.6,284.1C342.6,285 343.3,285.6 344.2,285.6C345,285.6 345.8,285 345.8,284.1Z" style="fill:rgb(199,243,255);fill-rule:nonzero;"/>
                                <path d="M345.8,274C345.8,273.1 345.1,272.5 344.2,272.5C343.3,272.5 342.6,273.2 342.6,274C342.6,274.9 343.3,275.5 344.2,275.5C345,275.5 345.8,274.8 345.8,274Z" style="fill:rgb(199,243,255);fill-rule:nonzero;"/>
                            </g>
                            <g>
                                <path d="M362.2,252.6C359.2,250 358.8,247 360.2,246.3C360.7,246.1 370.4,251.5 369.5,253.5C369,255 365.4,255.3 362.2,252.6Z" style="fill:rgb(255,205,156);fill-rule:nonzero;"/>
                                <path d="M361.5,250.9C362.2,248.9 362.3,247 361,246.6C359.7,246.2 358.9,247.7 358.2,249.8C357.5,251.8 356.6,253 358.6,254C359.9,254.6 360.9,253 361.5,250.9Z" style="fill:rgb(255,205,156);fill-rule:nonzero;"/>
                                <g>
                                    <path d="M354.6,246.3C354.4,246.3 354.1,246.3 353.9,246.4C354.2,247 354.4,247.6 354.5,248.3C356.3,248.3 357.7,249.1 357.7,250.2C357.8,251.3 356.3,252.3 354.4,252.5C354.2,253.3 354,254 353.6,254.7C354,254.8 354.5,254.8 355,254.8C358,254.6 360.4,252.6 360.2,250.3C360.1,247.9 357.6,246.2 354.6,246.3Z" style="fill:rgb(244,224,208);fill-rule:nonzero;"/>
                                    <path d="M355.9,252.7C355.4,252.7 354.9,252.7 354.5,252.6C354.3,253.3 354.1,254 353.8,254.7C354.2,254.8 354.7,254.8 355.2,254.8C358.1,254.6 360.4,252.8 360.4,250.5C359.2,251.7 357.7,252.6 355.9,252.7Z" style="fill:rgb(229,206,193);fill-rule:nonzero;"/>
                                    <path d="M354.5,243L340.1,243.8L339.9,259.5L355.2,258.6L354.5,243Z" style="fill:rgb(244,224,208);fill-rule:nonzero;"/>
                                    <path d="M347.2,243.9L341.1,244.2L340.1,243.8L339.9,259.5L349.7,258.9L347.2,243.9Z" style="fill:rgb(219,194,178);fill-rule:nonzero;"/>
                                    <path d="M343.7,244.1L341.1,244.2L340.1,243.8L339.9,259.5L347.4,259.1L343.7,244.1Z" style="fill:rgb(229,206,193);fill-rule:nonzero;"/>
                                    <path d="M353.5,243.6C353.5,243.2 350.6,243.1 347,243.3C344.6,243.4 341.3,243.6 340.1,243.7L340.1,244.3C340.1,245.1 343.6,244.8 347.1,244.6C350.7,244.4 353.6,244 353.5,243.6Z" style="fill:rgb(244,224,208);fill-rule:nonzero;"/>
                                    <path d="M353.5,243.6C353.5,243.5 350.7,243.5 347.2,243.7C343.8,243.9 341,244.2 341,244.3C341,244.4 343.8,244.4 347.3,244.2C350.8,244 353.5,243.7 353.5,243.6Z" style="fill:rgb(114,93,81);fill-rule:nonzero;"/>
                                    <path d="M351.9,239.2C350.5,236.4 340.3,240.8 341.3,236.4C341.8,234.4 346,234 344.4,230.6C343.4,228.5 349.6,226.6 347.1,222.5C347.9,223.6 349.3,225.8 345.9,229C344.4,230.4 346,231.3 345.9,232.7C345.8,234.6 342.7,235.5 343.4,236.9C343.9,238.1 351.8,235.7 351.9,239.2Z" style="fill:rgb(255,178,120);fill-opacity:0.7;fill-rule:nonzero;"/>
                                    <path d="M351.6,240.1C350.9,241 348.6,239.8 347.9,240.6C347.2,241.4 348,242.7 349.7,242.8C349.7,242.8 347.9,242.1 348.7,241.2C349.2,240.7 350.9,241.3 351.6,240.1Z" style="fill:rgb(255,178,120);fill-opacity:0.7;fill-rule:nonzero;"/>
                                </g>
                                <g>
                                    <path d="M377.2,260.3C372.7,258.2 360.9,261 361.1,256.7C361.3,252.9 367.3,247 378.6,256.7L377.2,260.3Z" style="fill:rgb(255,205,156);fill-rule:nonzero;"/>
                                    <path d="M372,253C372.1,259.8 363.8,259.9 361.2,259.3C358.3,258.7 356.8,253.5 358.1,251.5C359.4,249.6 371.9,250.4 372,253Z" style="fill:rgb(255,205,156);fill-rule:nonzero;"/>
                                    <path d="M357.9,252.2C354.5,251.4 353,250.3 353.3,249.4C353.6,248.5 355.5,249.1 358.8,249.9C362.1,250.7 366.6,250.8 366.3,251.7C366,252.5 361.2,253 357.9,252.2Z" style="fill:rgb(255,205,156);fill-rule:nonzero;"/>
                                    <path d="M368.4,253.8C368,259.8 363.6,259.5 361.4,258.8C358.9,258.1 358,253.4 359.2,251.8C360.5,250.2 368.6,251.5 368.4,253.8Z" style="fill:rgb(255,205,156);fill-rule:nonzero;"/>
                                    <path d="M358.2,256.4C356.4,255.9 356.5,254.4 357.1,253.7C357.7,253 358.9,254.1 360.7,254.5C362.5,255 363.6,255.5 363,256.1C362.4,256.9 360,256.8 358.2,256.4Z" style="fill:rgb(255,205,156);fill-rule:nonzero;"/>
                                    <path d="M360,259.3C358,259.1 357.2,258.2 357.6,257.3C358,256.5 359.1,257 361.1,257.3C363.1,257.5 364.4,257.7 364.1,258.6C363.6,259.5 361.9,259.6 360,259.3Z" style="fill:rgb(255,205,156);fill-rule:nonzero;"/>
                                </g>
                            </g>
                            <g>
                                <path d="M410.9,263C414.7,261.5 393.4,216.2 386.7,216.5C386.7,216.5 376.6,224.4 380.5,241.2C380.5,241.1 395.6,268.9 410.9,263Z" style="fill:rgb(97,178,214);fill-rule:nonzero;"/>
                                <path d="M366.9,260.4L371.7,262.7L374.4,252.9L369.8,250.7L366.9,260.4Z" style="fill:rgb(249,242,192);fill-rule:nonzero;"/>
                                <path d="M370,256.9C370.6,255.6 371.2,252.2 369.8,250.7L374.4,253L371.7,262.7L367,260.4L367.1,260.1C368.7,260.4 369.4,258.1 370,256.9Z" style="fill:rgb(224,213,153);fill-rule:nonzero;"/>
                                <path d="M411,264.9C410.5,266.8 409,268.1 407.2,268.5C401.8,269.5 388.4,270.4 369.1,261.9C369.1,261.9 368.4,257.6 371.9,252.6C371.9,252.6 395,248.8 407.6,253.5C407.6,253.5 412.9,258.1 411,264.9Z" style="fill:rgb(97,178,214);fill-rule:nonzero;"/>
                                <g>
                                    <path d="M380.5,241.1C380.4,240.8 380.4,240.5 380.3,240.2C383.7,243.4 389.2,252.6 395.2,253.5C388.7,252.8 375.2,252.7 371.7,252.7C371.7,252.6 371.8,252.6 371.8,252.5C371.8,252.5 378.8,251.3 387.2,251.1C383.1,246 380.5,241.1 380.5,241.1Z" style="fill:rgb(73,146,186);fill-rule:nonzero;"/>
                                    <path d="M398.6,269.1C391.6,269 381.6,267.4 369.1,261.9C369.1,261.9 369,261.5 369.1,260.7C380.6,265.6 391,268.1 398.6,269.1Z" style="fill:rgb(73,146,186);fill-rule:nonzero;"/>
                                </g>
                                <path d="M374.7,258C374.7,257.3 375.3,256.7 376,256.7C376.7,256.7 377.3,257.3 377.3,258C377.3,258.7 376.7,259.3 376,259.3C375.2,259.3 374.7,258.7 374.7,258Z" style="fill:rgb(199,243,255);fill-rule:nonzero;"/>
                                <path d="M394.1,255.9C391.8,253.3 388.4,250.1 387.8,250.9C386.5,252.5 394.1,255.9 394.1,255.9Z" style="fill:rgb(73,146,186);fill-rule:nonzero;"/>
                            </g>
                            <g>
                                <g>
                                    <path d="M336.5,194.3C336.5,194.3 333.1,163.8 335.9,160.2C338.7,156.6 355.1,154.2 357.7,154.8C363.3,156.1 362.3,159.8 362.3,159.8C362.3,159.8 365.1,159.8 367,161C368.9,162.2 371.5,179.5 368.3,192.6C365,205.7 336.5,194.3 336.5,194.3Z" style="fill:rgb(102,51,26);fill-rule:nonzero;"/>
                                    <path d="M354.4,181.3C345.9,181.3 338.5,176.8 334.8,170.2C335,180.3 335.2,194.2 335.2,194.2C335.2,194.2 361.4,195.5 369.3,193.4C369.5,187.7 369.8,181 369.6,175.6C365.7,179.1 360.2,181.3 354.4,181.3Z" style="fill:rgb(76,34,18);fill-rule:nonzero;"/>
                                    <path d="M369.6,190.3C369.8,187.7 369.1,182.7 368.4,182.7C367.7,182.7 368.3,190.3 367.7,191C366.1,193.2 367.3,194.9 367.9,195C369.7,195.4 369.4,192.9 369.6,190.3Z" style="fill:rgb(76,34,18);fill-rule:nonzero;"/>
                                    <path d="M335.1,192.1C334.9,189.5 335.6,184.5 336.2,184.5C336.9,184.5 336.3,192.1 336.8,192.8C338.4,195 337.2,196.7 336.6,196.8C334.9,197.2 335.2,194.7 335.1,192.1Z" style="fill:rgb(76,34,18);fill-rule:nonzero;"/>
                                </g>
                                <g>
                                    <path d="M367,187.5C367.3,184.4 368.9,182.7 370.5,182.7C372.1,182.7 373,184.4 372.7,187.5C372.4,190.6 369.8,192.1 368.2,192.1C366.6,192.1 366.6,190.6 367,187.5Z" style="fill:rgb(255,205,156);fill-rule:nonzero;"/>
                                    <path d="M366.6,187.5C366.9,185.2 368.3,184 369.6,184C371,184 371.8,185.2 371.5,187.5C371.2,189.8 369,190.8 367.6,190.8C366.2,190.8 366.2,189.8 366.6,187.5Z" style="fill:rgb(244,173,125);fill-rule:nonzero;"/>
                                    <path d="M367.4,188.8C367.6,187.7 368.3,187.1 369.1,187.1C369.9,187.1 370.3,187.7 370.2,188.8C370,189.9 368.8,190.4 368,190.4C367.2,190.5 367.2,189.9 367.4,188.8Z" style="fill:rgb(255,205,156);fill-rule:nonzero;"/>
                                    <path d="M338.2,187.7C338,184.6 336.4,182.9 334.8,182.9C333.2,182.9 332.1,184.6 332.3,187.7C332.5,190.8 335.2,192.3 336.8,192.3C338.5,192.2 338.5,190.8 338.2,187.7Z" style="fill:rgb(255,205,156);fill-rule:nonzero;"/>
                                    <path d="M337.5,187.7C337.3,185.4 336.2,184.2 335,184.2C333.8,184.2 333.1,185.4 333.2,187.7C333.4,190 335.3,191 336.5,191C337.6,191 337.6,189.9 337.5,187.7Z" style="fill:rgb(244,173,125);fill-rule:nonzero;"/>
                                    <path d="M336.9,189C336.8,187.7 336.2,187.1 335.5,187.1C334.8,187.1 334.4,187.8 334.5,189C334.6,190.3 335.7,190.8 336.3,190.8C337,190.9 337,190.3 336.9,189Z" style="fill:rgb(255,205,156);fill-rule:nonzero;"/>
                                    <path d="M336,200.9C336.2,202.6 343.6,209.9 352.1,209.9C360.5,209.9 367.5,203.3 369,200.6C370.5,197.9 364.5,163.7 361.1,160.8C357.7,157.9 343.8,159.8 342.6,161.3C339.8,164.9 335.1,194.3 336,200.9Z" style="fill:rgb(255,205,156);fill-rule:nonzero;"/>
                                    <path d="M339.5,175.7C340.7,176.2 345.5,165.1 346.5,163.3C347.5,161.4 347.3,159.5 346.1,159C344.9,158.5 343.1,159.6 342.1,161.4C341.1,163.2 338.2,175.1 339.5,175.7Z" style="fill:rgb(255,205,156);fill-rule:nonzero;"/>
                                    <path d="M365.2,174.8C366.5,174.4 363.1,163.2 362.4,161.2C361.7,159.2 360,158 358.7,158.4C357.4,158.8 357,160.7 357.7,162.6C358.6,164.6 364.1,175.2 365.2,174.8Z" style="fill:rgb(255,205,156);fill-rule:nonzero;"/>
                                    <path d="M346.9,197.1C346.9,197.1 347.3,198.1 347.7,198.4C348.2,198.8 355.6,198.8 356.9,198.4C357.9,198.1 358.9,195.3 358.9,195.3L346.9,197.1Z" style="fill:rgb(61,37,27);fill-rule:nonzero;"/>
                                    <path d="M358.4,195.7L347.8,197.2L348.2,198.1C349.9,198.5 355.9,198.3 357,198.2L358.4,195.7Z" style="fill:rgb(255,242,238);fill-rule:nonzero;"/>
                                    <path d="M359.6,195C359.5,194.8 359.2,194.8 358.9,194.9C358.6,195 358.4,195.3 358.5,195.5C358.6,195.7 358.9,195.7 359.2,195.6C359.5,195.4 359.7,195.2 359.6,195Z" style="fill:rgb(61,37,27);fill-rule:nonzero;"/>
                                    <path d="M347.4,197.2C347.5,197 347.2,196.8 346.9,196.7C346.6,196.6 346.2,196.7 346.2,196.9C346.1,197.1 346.4,197.3 346.7,197.4C347,197.5 347.2,197.4 347.4,197.2Z" style="fill:rgb(61,37,27);fill-rule:nonzero;"/>
                                    <path d="M349.6,182.3C349.6,182.7 349.4,183 349.1,183.3C348.3,183.9 341.9,182.1 342,181L342.1,180.3C342.2,179.5 344.1,180.4 346,180.7C347.8,181 349.7,180.6 349.7,181.3L349.6,182.3Z" style="fill:rgb(102,51,26);fill-rule:nonzero;"/>
                                    <path d="M355.4,180.1C355.3,180.4 355.3,180.8 355.6,181.1C356.2,181.9 363.4,182.3 363.6,181.3L363.8,180.7C364,180 361.7,180.2 359.7,179.8C357.7,179.5 356,178.5 355.7,179.2L355.4,180.1Z" style="fill:rgb(102,51,26);fill-rule:nonzero;"/>
                                    <path d="M353.5,200.4C353.6,200.1 353,199.7 352.2,199.5C351.4,199.3 350.7,199.5 350.6,199.8C350.5,200.1 351.2,200.3 352,200.5C352.7,200.6 353.4,200.7 353.5,200.4Z" style="fill:rgb(244,173,125);fill-rule:nonzero;"/>
                                    <path d="M353.2,208.6C353.2,207.9 352.8,207.3 352.4,207.3C351.9,207.3 351.6,207.9 351.6,208.6C351.6,209.3 352,209.4 352.4,209.4C352.8,209.4 353.2,209.3 353.2,208.6Z" style="fill:rgb(244,173,125);fill-rule:nonzero;"/>
                                    <path d="M349.8,192.1C349.8,192.3 351.8,193.4 352.5,193.4C353.7,193.4 355.2,192.3 355.2,192C355.3,191.1 353.3,181.5 352.6,181.4C351.9,181.3 349.7,190.8 349.8,192.1Z" style="fill:rgb(244,173,125);fill-rule:nonzero;"/>
                                    <path d="M351,192.1C351,192.3 352.1,192.7 352.5,192.7C353.2,192.7 354,192.4 354,192C354.1,191.1 354.6,180.6 352.6,180.7C350.4,180.7 351,190.7 351,192.1Z" style="fill:rgb(255,205,156);fill-rule:nonzero;"/>
                                    <path d="M361.9,161C361.3,158 357.7,157.2 352.4,157.2C347.1,157.2 342.8,158.9 342.8,161C342.8,163.1 347.1,164.8 352.4,164.8C357.7,164.8 362.2,163.1 361.9,161Z" style="fill:rgb(255,205,156);fill-rule:nonzero;"/>
                                    <g>
                                        <path d="M347.4,185.2L342.5,185.8L342.7,186.5L347.6,185.5L347.4,185.2Z" style="fill:rgb(244,173,125);fill-rule:nonzero;"/>
                                        <path d="M347.6,185.1L344.4,184.1L344.1,184.8L347.5,185.4L347.6,185.1Z" style="fill:rgb(244,173,125);fill-rule:nonzero;"/>
                                    </g>
                                    <path d="M357.2,186.9C357.2,185.3 357.4,183.3 359.9,182.7C362.4,182 363.6,184.3 363.5,185.1C363.4,185.9 362.8,187.1 361.4,187.3C360,187.4 358.8,187.3 358.3,187.4C357.9,187.4 357.2,187.2 357.2,186.9Z" style="fill:white;fill-rule:nonzero;"/>
                                    <circle cx="360.2" cy="184.9" r="2.1" style="fill:rgb(57,23,11);"/>
                                    <path d="M358.4,184.2C358.4,184.7 358.8,185.1 359.4,185.1C359.9,185.1 360.3,184.7 360.3,184.1C360.3,183.5 359.9,183.2 359.3,183.2C358.8,183.3 358.4,183.7 358.4,184.2Z" style="fill:white;fill-rule:nonzero;"/>
                                </g>
                                <path d="M358,158.6C358,157.4 355.2,156.4 351.8,156.4C348.4,156.4 345.6,157.4 345.6,158.6C345.6,159.8 348.4,160.8 351.8,160.8C355.2,160.8 358,159.8 358,158.6Z" style="fill:rgb(102,51,26);fill-rule:nonzero;"/>
                                <path d="M355.7,157.9C358,157 361.1,157.1 360.2,161.2C360.2,161.2 359.1,159.1 355.3,160.4L355.7,157.9Z" style="fill:rgb(102,51,26);fill-rule:nonzero;"/>
                                <path d="M369.2,189.2C369.4,186.6 368.7,181.6 368,181.6C367.3,181.6 367.9,189.2 367.3,189.9C365.7,192.1 366.9,193.8 367.5,193.9C369.4,194.3 369,191.8 369.2,189.2Z" style="fill:rgb(76,34,18);fill-rule:nonzero;"/>
                                <path d="M335.6,189.6C335.6,187 336.5,182.1 337.2,182.1C337.9,182.1 336.9,189.7 337.3,190.4C338.7,192.7 337.5,194.3 336.8,194.4C335.1,194.7 335.6,192.2 335.6,189.6Z" style="fill:rgb(76,34,18);fill-rule:nonzero;"/>
                            </g>
                        </g>
                        <g>
                            <path d="M372.9,296.8C379.2,293.6 402.7,291.3 414.6,291.8C429.6,298.2 416.6,357.4 413,373.1L364.2,372.4C363.5,358.1 357,304.9 372.9,296.8Z" style="fill:rgb(229,181,110);fill-rule:nonzero;"/>
                            <path d="M366.9,298.9C368.2,298.2 370.1,297.6 372.3,296.9C378.6,303.9 381.5,325.6 378.9,350.7C378.1,358.5 376.8,365.9 375.2,372.6L353.5,372.3C353.5,372.2 348.1,308.5 366.9,298.9Z" style="fill:rgb(234,218,169);fill-rule:nonzero;"/>
                            <path d="M414.7,293.4C402.4,292.9 378.1,295.2 371.7,298.4C370.7,298.9 369.8,299.5 369,300.3C370.1,298.8 371.5,297.6 373,296.8C379.3,293.6 402.8,291.3 414.7,291.8C418.6,293.5 420.6,298.7 421.4,305.8C420.4,299.5 418.4,294.9 414.7,293.4Z" style="fill:rgb(234,218,169);fill-rule:nonzero;"/>
                            <path d="M360.2,318.4C360.7,311.6 364.2,306.3 367.9,306.6C371.6,306.9 374.2,312.6 373.7,319.4C373.2,326.2 369.7,331.5 366,331.2C362.2,330.9 359.8,325.2 360.2,318.4Z" style="fill:rgb(229,181,110);fill-rule:nonzero;"/>
                            <path d="M366.1,318.8C366.4,315.4 368.1,312.7 370,312.9C371.9,313 373.2,315.9 372.9,319.4C372.6,322.8 370.9,325.5 369,325.3C367.2,325.1 365.9,322.2 366.1,318.8Z" style="fill:rgb(234,218,169);fill-rule:nonzero;"/>
                        </g>
                    </g>
                </g>
            </g>
        </g>
    </g>
</svg>
