<?xml version="1.0" encoding="utf-8"?>
<!-- Generator: Adobe Illustrator 24.3.0, SVG Export Plug-In . SVG Version: 6.00 Build 0)  -->
<svg version="1.1" id="Layer_1" xmlns:serif="http://www.serif.com/"
	 xmlns="http://www.w3.org/2000/svg" xmlns:xlink="http://www.w3.org/1999/xlink" x="0px" y="0px" viewBox="0 0 356 598.2"
	 style="enable-background:new 0 0 356 598.2;" xml:space="preserve">
<style type="text/css">
	.st0{fill:#270210;}
	.st1{fill:#A36546;}
	.st2{fill:#1A1A1A;}
	.st3{fill:#9A6042;}
	.st4{fill:#AB6A4A;}
	.st5{opacity:0.28;fill:#7C2E2E;}
	.st6{fill:#CF2721;}
	.st7{fill:#333333;}
	.st8{fill:#4D4D4F;}
	.st9{fill:#4D4D4D;}
	.st10{opacity:0.59;fill:#BE8469;}
	.st11{fill:#FFFFFF;}
	.st12{fill:#39170B;}
	.st13{fill:#390B1D;}
	.st14{opacity:0.29;fill:#813B3B;}
</style>
<g>
	<path class="st0" d="M197.3,205.5c4.2,9.5,25,4.3,30,0.5v-3.5c2.9-5.4,4.6-9.9,9.3-14.1c2.2-2,4.6-3.6,7-5.2
		c1.7-0.7,3.2-1.4,4.4-1.9c6.2-2.8,14-6.1,16.9-13.2c3.1-2.9,5.3-5.9,4.8-8.5c-1.2,0.6-2.5,1.5-3.7,2.4c0-0.6-0.1-1.3-0.3-1.9
		c5-14-11-55.4-11.2-60.3c-0.3-6.4-16.8-12.8-16.2-11.7c3.8,6.6-42.4,71.6-52.4,76.6C172.8,171.3,196.2,203.1,197.3,205.5z
		 M145.2,223.5c17.2-7.7,20.9-48,19.6-70.2c-6.7-8.6-14.4-0.5-15.7-4.2c-1.7,2.9-34.9,38.5-34.9,38.5c-7.7,10-2.7,20.7,4.9,27.7
		c0.9,0.8-9.2,5.8-8.2,6.5c1,0.7,11.8-3.1,12.9-2.5C130.8,223.6,139,225.4,145.2,223.5z"/>
	<path class="st1" d="M42.7,433.7l25.9-23.4l-13.1-17c0,0-46,58.2-46.8,63.9C7.9,462.8,20,470.1,20,470.1l4,21l12.9-0.8
		c0,0,3.2-16.6,7.3-20.6c-6.5,1.6-12.1,13.3-12.1,13.3l0.8-21l6.5-4l0.8,19.4c0,0,8.9-13.7,8.9-26.7C49.1,441,42.7,433.7,42.7,433.7
		z"/>
	<path class="st1" d="M319.8,417.7l19.8-0.2l3,45.3c0,0,0.8,29.9-3.2,34.8c-4,4.9-12.1,4-12.1,4l-11.3,8.1l-5.5-3.6l1.4-8.5
		c0,0-2.4-3.2-4.9-8.1c-2.4-4.9-1.6-17.8,2.4-22.6c4-4.9,12.5-8.7,12.5-8.7L319.8,417.7z"/>
	<polygon class="st2" points="121.1,280.9 109,327 51.6,395.1 64.5,413.5 114.6,374.7 151.8,314.8 	"/>
	<path class="st2" d="M111.4,276c1.6,12.1,27.5,21,32.3,39.6c4.9,18.6,0.8,45.3,0.8,47.7c0,0.2-0.3,0.8-0.8,1.8l59.6,7.9
		c0.5-15.1,10.9-42.8,16.4-63c6.5-24.3,10.5-55.8,10.5-55.8l71.1,55c0,0-4.9,38,4.9,66.3c9.7,28.3,13.9,49.3,13.9,49.3l20-3.2
		l-0.8-113.2l-97-114.8c-12.1-6.5-118,17-122.9,23.4c-4.9,6.5,2.4,23.4,2.4,23.4S109.8,263.9,111.4,276z"/>
	<path class="st2" d="M454,948.9c-2.3-9.2-18.3-28.3-18.3-28.3s3.1-12.2,0.8-18.3c-2.3-6.1-60.4-163.5-68-180.3
		c-7.6-16.8-54.2-66.5-54.2-66.5s-13-57.3-35.9-112.3c-22.9-55-68.8-148.2-73.3-158.9c-0.7-1.7-6-6.3-5.9-9.1h-60.4
		c-6,12.3-38.7,80.6-62.1,134.7c-16.8,39-26.7,147.1-27.5,161.6c-0.8,14.5-11.5,90.1-15.3,122.2C30,825.9,14,879.4,9.4,894.7
		c-3.2,10.6-10.7,38.2-19.9,48.1c-9.2,9.9-26,11.5-26,11.5l4.6,7.6c0,0,29.8,3.1,36.7-3.1c6.9-6.1,14.5-36.7,16.8-35.1
		c2.3,1.5,0.8,33.6,0.8,33.6l6.9-0.8c0,0,6.9-34.4,5.3-45.8c-1.5-11.5-10.7-16-10.7-16l13-5.3l-6.9-13c0,0,51.9-103.9,56.5-121.5
		c4.6-17.6-0.8-74.9-1.5-77.9c-0.8-3.1,84.7-202.1,84.7-202.1s18.5,91.4,55.9,130.3s61.5,64.2,65.3,75.6
		c3.8,11.5,28.3,77.2,52.7,110c24.4,32.8,65.3,74.1,65.3,81.7c0,7.6-3.8,16-3.8,16l9.2,3.8c0,0-6.1,13-5.4,22.9
		c0.8,9.9,8.4,4.6,8.4,14.5c0,9.9-2.3,27.5,4.6,34.4c6.9,6.9,26.7,21.4,26.7,21.4l6.9-3.1C455.6,982.5,456.3,958.1,454,948.9z"/>
	<polygon class="st3" points="161.3,158.7 162.5,207.4 193.1,197.6 191.6,169.6 	"/>
	<path class="st4" d="M235.6,110.8c0,0,10,5.2,8,26c-2.3,23.1-37.8,43.2-37.8,43.2s-50.2-7.8-71.5-51.8
		c-21.3-43.9,17.8-77.9,62.4-69.6C240.2,54.8,245,89.6,235.6,110.8z"/>
	<path class="st5" d="M134.3,128.3c-17.6-36.3,6-65.8,39.9-70.3c-10,7.3-18.3,19.4-19.2,39.4c-1.8,40.8,30.7,70,46.4,81.7
		C188.7,176.1,151.8,164.4,134.3,128.3z"/>
	<path class="st6" d="M192.6,153.8c0,0,7.9-7,17.5-7.5c9.6-0.4,11.8,6.1,11.8,6.1l-5.3,0.9c0,0,1.8,2.6-3.1,4.4
		C208.8,159.5,196.9,157.3,192.6,153.8z"/>
	<path class="st7" d="M202.8,364.1l2.3-3.2c3.3-15.3,10.5-35.3,14.6-50.9c6.5-24.3,10.5-55.8,10.5-55.8s-23.4,4-35.6,6.5
		c-12.1,2.4-16.2,9.7-35.6,16.2c-19.4,6.5-18.6-1.6-33.1-4c-14.6-2.4-14.6,3.2-14.6,3.2c1.4,10.5,21.1,18.6,29.4,32.7
		c5.1-3.8,14.4-8.6,21.5-7.7c30.7,4,38-11.3,40.4,3.2c2.4,14.6-19.4,59-19.4,59L202.8,364.1z"/>
	<path class="st8" d="M208.5,389.3c-2.1-4.3-3.5-7.5-4.2-9c-2.4-5.6-0.2-16.9,3.3-29.9c-16.5-4.1-40.6-7.2-62.1,0.8
		c-0.5,6.5-1.1,11.2-1.1,12.1c0,0.7-4.1,8.4-10.6,20.4C152.2,381.5,184.2,379.6,208.5,389.3z"/>
	<path class="st8" d="M172.8,293c0,0,23.4,2.4,42-12.9C206,304.3,185.8,301.1,172.8,293z"/>
	<path class="st9" d="M85,677c-0.5-1.9,84.7-202.1,84.7-202.1L75.9,675.4c0,0,12.2,40.5-2.3,87.1c-14.5,46.6-48.9,111.5-48.9,111.5
		s-8.4,11.5-6.9,22.9c1.5,11.5-3.8,31.3-12.2,46.6c-6.3,11.5-29,13.5-39.6,14.7l2.2,3.6c0,0,29.8,3.1,36.7-3.1
		c6.9-6.1,14.5-36.7,16.8-35.1c2.3,1.5,0.8,33.6,0.8,33.6l6.9-0.8c0,0,6.9-34.4,5.3-45.8c-1.5-11.5-10.7-16-10.7-16l13-5.3l-6.9-13
		c0,0,51.9-103.9,56.5-121.5C91.2,737.3,85.8,680,85,677z"/>
	<g>
		<path class="st7" d="M455.6,982.5c0,0,0.2-7.9,0-16.4c-11.5,14.1-21.4,4.9-29.1-6.5c-4.3-6.4-8.9-14.1-9.4-20.2
			c-0.3,9.2-0.1,19.8,4.9,24.8c6.9,6.9,26.7,21.4,26.7,21.4L455.6,982.5z"/>
		<path class="st9" d="M414.3,892.4c0,0-6.1,13-5.4,22.9c0.7,9.6,7.9,5,8.4,13.6c0.6-6,1.6-11,0-12.8c-3.8-4.6-3.1-23.7-2.3-33.6
			c0.8-9.9-3.1-24.4-46.6-74.9C324.9,757.2,302,702.9,298.2,680c-3.8-22.9-4.3-16.3-39.7-52.7c-65.9-67.6-86.9-152.9-88.7-150.8
			c8.2,17.9,13.8,82.1,55.9,128.7c37.1,41,61.5,64.2,65.3,75.6c3.8,11.5,28.3,77.2,52.7,110c24.4,32.8,65.3,74.1,65.3,81.7
			c0,7.6-3.8,16-3.8,16L414.3,892.4z"/>
	</g>
	<path class="st2" d="M161.6,182.7c0,0,1.9,4,13.4,4s18-4.9,18-4.9l7.8,25.4c0,0-8.2,6.5-24.5,6.5s-20.9-9.1-20.9-9.1L161.6,182.7z"
		/>
	<g>
		<path class="st10" d="M207.1,133.5c0-0.3,0.5-0.6,1.4-1c0.9-0.4,2.1-0.9,3.1-1.8c0.5-0.4,0.9-1,1.1-1.6c0.2-0.6,0.1-1-0.1-1.6
			c-0.4-1.1-2-2.6-3.5-4.6c-2.8-3.9-4.2-8.6-4.3-12.2c-0.1-3.6,0.9-5.9,1.9-5.7c1.1,0.1,1.5,2.3,2.3,5.2c0.8,2.9,2,6.7,4.2,10.1
			c0.9,1.6,2.7,3.2,3.5,6.2c0.3,1.5,0,3.2-0.7,4.3c-0.7,1.1-1.7,1.9-2.6,2.3c-1.9,0.9-3.4,0.9-4.5,0.8
			C207.7,134,207.2,133.8,207.1,133.5z"/>
	</g>
	<g>
		<path class="st11" d="M190.6,116.8c1.9-2.3-1.6-10.7-9.6-13.1s-12.2,3.1-12.4,5.2c-0.2,2.2,1,6,5.6,7.9c4.7,1.9,8.5,1.3,10.6,1.1
			C187.6,117.7,189.5,118.1,190.6,116.8z"/>
		<circle class="st12" cx="180.9" cy="108.9" r="7"/>
		<circle class="st11" cx="178.3" cy="107.6" r="2.8"/>
		<path class="st12" d="M191.1,114.9c0,0,1-4.1-4.1-9.3c-5-5.2-11.5-3.9-13.3-4.2c-1.8-0.3-3.7,0.3-3.1,0.7c0.6,0.5-1,1.9-2.5,1.6
			c-1.4-0.3,0,1.2,0,1.7c0,0.5-2.5,0.4-2.7,0.9c-0.2,0.5,1.4,1.7,1,1.8c-0.4,0.1-1.7,1.2-1.1,1.7c0.7,0.5,2,2.1,2.6,2.7
			c0.6,0.7,2.1,1.3,2.1,1.3s-1.8-3.3-0.8-5.7c1-2.4,3.8-4.9,8.4-4.4c4.6,0.5,7.5,2.6,9.5,4.4C189.3,109.9,191.1,114.9,191.1,114.9z"
			/>
		<path class="st12" d="M192.4,94.1c1.4,3.3-4.8,2.5-8.6,1c-3.8-1.4-8.8-2.1-13-2c-4.2,0.1-9.7,2.6-9.7,2.6s6.5-4.2,12.8-4.7
			c6.3-0.5,13.2,0.4,15.3,0.9S191.6,92.3,192.4,94.1z"/>
	</g>
	<g>
		<path class="st11" d="M216.1,114c-1.8-2.2,1.5-10.2,9.1-12.4c7.7-2.3,11.5,2.9,11.7,5c0.2,2.1-0.9,5.7-5.3,7.5
			c-4.4,1.8-8,1.2-10.1,1C219,114.8,217.2,115.3,216.1,114z"/>
		<circle class="st12" cx="225.3" cy="106.5" r="6.7"/>
		<path class="st11" d="M220.1,105.3c0,1.5,1.2,2.7,2.7,2.7c1.5,0,2.7-1.2,2.7-2.7c0-1.5-1.2-2.7-2.7-2.7
			C221.3,102.6,220.1,103.8,220.1,105.3z"/>
		<path class="st12" d="M215.7,112.2c0,0-0.9-3.9,3.8-8.8c4.8-5,10.9-3.7,12.6-4c1.7-0.3,3.5,0.3,3,0.7c-0.5,0.4,1,1.8,2.3,1.5
			c1.4-0.3,0,1.2,0,1.6c0,0.5,2.3,0.4,2.5,0.9c0.2,0.5-1.4,1.6-1,1.7c0.4,0.1,1.7,1.1,1,1.6c-0.6,0.4-1.9,2-2.4,2.6
			c-0.5,0.6-2,1.2-2,1.2s1.7-3.1,0.7-5.4c-1-2.2-3.6-4.6-7.9-4.2c-4.3,0.4-7.1,2.4-9,4.2C217.4,107.4,215.7,112.2,215.7,112.2z"/>
		<path class="st12" d="M211.6,92.4c-1.3,3.1,4.6,2.4,8.2,1c3.6-1.4,8.3-2,12.3-1.9c4,0.1,9.2,2.5,9.2,2.5s-6.2-4-12.2-4.5
			c-6-0.5-12.5,0.4-14.5,0.9C212.6,91,212.3,90.7,211.6,92.4z"/>
	</g>
	<g>
		<g>
			<path class="st13" d="M104.6,181.8c0.1,1.2-1.3,2.9-3.7,5.7c-2,2.4-6.4,8.4-4.7,13.2c1.2,3.2,4.7,5,10.4,5.4c0.7,0.8,3,3.3,7,5.5
				c2.1,1.2,3.6,3,3.4,4.1c-0.1,0.5-0.9,2.1-7.3,2.1c-0.8,0-1.7,0-2.6-0.1c-1.8-1.2-3.4-2.7-4.9-4l-0.1-0.1
				c-0.2-0.2-0.4-0.2-0.6-0.2c-0.4,0-0.8,0.3-0.9,0.7c-0.1,0.4-0.1,0.8,0.2,1.2c3.5,3.9,8,8.7,13.6,8.7c1.2,0,2.5-0.2,3.8-0.7
				c2.9-1.1,5.3-3.4,6.6-6.3c1.2-2.8,1.4-6,0.5-9c-0.3-0.9-0.7-1.8-1.2-2.6c-0.5-1-1-1.9-1.2-2.9c-0.5-2-0.2-3.7,1-5.5
				c1.1-1.7,2.3-3.4,3.4-5c1.3-1.9,2.7-3.9,4-5.9c0.5-0.8,1-1.7,1.6-2.5c3.1-3.6,6.1-7.6,9.1-12.3c1.1-1.5,2.1-2.9,3-4.4
				c-0.1,0.8-0.3,1.6-0.7,2.3c-0.7,1.6-1.7,3-2.7,4.4c-0.6,0.9-1.3,1.9-1.9,2.9c-2.3,3.9-4.3,8.7-1.5,14.7c1.4,3.1,5.5,5.5,9.8,8.2
				c6.3,3.8,12.8,7.8,11.8,13.5c-1.6,9-10.2,9.4-11.9,9.4c-0.1,0-0.2,0-0.2,0c0,0,0,0,0,0c-0.4,0-0.7,0.3-0.8,0.7
				c-0.1,0.4,0.2,0.8,0.6,1c0.1,0,1.7,0.5,3.9,0.5c3.9,0,10.8-1.6,12.8-12.3c0.4-2.4,0.6-4.4,0.6-6.2c0.4-4.9-0.3-9.3-2.4-13.1
				c-1.4-2.5-3.4-4.3-5.4-6c-0.4-0.4-0.9-0.8-1.3-1.1c-2.2-2-4.3-4.1-4.2-6.9c0.1-3.3,1.8-6.3,3.5-9.3c0.5-0.8,1-1.7,1.4-2.6
				c1.9-3.8,3-7.5,3.4-11.4c0.2-1.8,0.1-3.6,0-5.4c0.1-3.2-0.4-6.8-1.6-11.1c-0.8-2.9-1.7-5.6-2.5-8.3c-3.3-10.7-6.2-19.9-2.9-30
				c3.7-2.2,8.9-6.3,13.1-13c2.3-3.6,3.8-7.4,5.2-11c3-7.4,5.6-13.8,13.4-17.2c3.7,3.8,13.3,12.3,29.4,18.9
				c21.2,8.6,32.8,19.4,34.6,32.2c0.6,4.6,0.5,8.6,0.5,12.5c-0.2,7.1-0.3,13.8,4.3,22.2c4.3,7.9,5.4,16.5,3,23.1
				c-2.1,5.7-6.7,9.5-13.6,11.5c-18.3,5.1-27,12.9-26.5,23.6c0.4,8.8,12.1,12.8,20.3,12.8c1.4,0,2.7-0.1,3.8-0.4
				c6.2-1.6,11.4-10.1,11.6-10.5c0.2-0.4,0.1-0.9-0.2-1.1c-0.1-0.1-0.3-0.2-0.5-0.2c-0.2,0-0.4,0.1-0.5,0.2c0,0-4.5,4.7-9.6,6.6
				c-1.5-0.3-5.4-1.3-6.3-4.3c-0.9-2.8,0.3-6,1-7.6c2.7-6,7.5-9.1,12.5-12.4c0.5-0.3,1-0.6,1.4-0.9c5.9-3.9,12.1-8.3,16.1-14.5
				c2.2-3.4,3.5-7.2,3.8-11.2c1.3-8.2,0.4-16-2.4-22.5c-1.1-2.5-2.4-4.7-3.8-6.8c-0.5-0.9-1.1-1.8-1.6-2.7c-1.9-3.2-3.3-6.1-2.2-9.5
				c0.7-2,1.7-3.8,2.6-5.7c0.8-1.4,1.5-2.9,2.2-4.5c1.4-3.2,2.8-7.1,3.2-11.3c0.3-2.9,0.1-5.8-0.6-8.7c-0.6-8.1-4.7-19-11.1-29.1
				c-5.8-9.2-16.4-22.5-33.9-33.5c-11.9-7.4-22.9-11.2-32.8-11.2c-12.1,0-18.6,5.5-20,6.9c-0.9-0.2-3.1-0.5-6.3-0.5
				c-7.3,0-18,1.8-27.2,10.4c-14.1,13-22.4,38.3-23.4,71.4c-0.1,1.9-0.1,3.8-0.2,5.5c-0.7,25.7-0.9,30.3-9.4,41.4
				c-6.1,8.1-9.4,13.3-8.9,18.2c0.3,2.8,1.8,5.3,4.9,7.8C102.5,178.7,104.5,180.4,104.6,181.8z M254.4,120.1c0,1.3,0.1,2.5,0.4,3.6
				c-1.5-3.1-2-5.7-0.6-8c1.4-2.2,2.6-4,3.8-5.6c-0.1,0.2-0.2,0.4-0.3,0.6l-0.1,0.2C256.1,113.6,254.5,116.8,254.4,120.1z"/>
			<path class="st14" d="M126.5,103.7v-1.2C126.5,103.2,126.5,103.7,126.5,103.7z M126.5,94.1v8.4c0.1-7.1,1.6-44.8,25.4-68.5
				C151.9,33.9,124.6,54.1,126.5,94.1z M254,113.3l2.3-2.2c2.2-3.2,4.1-5.5,5.7-8.1c-1,2.9-2.3,5.6-3.7,8.2
				c-0.6,1.1-1.2,2.3-1.7,3.5l5.7-5.4c0,0,0.3,0,0.8-0.1c0.2-0.4,0.4-0.9,0.6-1.4c1.5-3.5,2.7-7.1,3.1-11c0.3-2.9,0-5.8-0.6-8.5
				c-0.9-12.1-10.8-36.4-35-55.3c21.1,19.3,27.3,42.6,29,54.7c-0.6-1.4-1.3-2.8-2.2-4.4c-12.2-31-51.6-51-51.6-51
				c22,12.9,35,27.4,42.4,38.2c-1.6-1.9-3.4-3.9-5.4-5.9c-29.1-29.8-63.8-40.9-63.8-40.9s44.4,20.2,64.7,46.5
				C264.6,96.6,254,113.3,254,113.3z M124.6,109.7l2.8-45c0,0,8.3-31.8,38.8-37.4c0,0-35.6-2-45.3,45.5
				C111.2,120.3,124.6,109.7,124.6,109.7z M155.2,97.8c3.1-2.3,6.9-5.8,10-10.9c6.9-11,6.9-23.5,19.5-28.7
				c3.5,3.6,13,12.4,29.5,19.1c21.3,8.6,33.3,19.7,35.1,32.8c0.2,1.5,0.3,3,0.4,4.3c1-4.5,1-9,0.1-13.5
				c-2.8-32.2-37.1-52.5-37.1-52.5c20.4,16,28.9,31,32.4,39.5c-16.5-31.7-66.1-57.7-66.1-57.7s22.2,14.7,45.3,35.4
				c15.3,13.8,19.7,24.6,20.9,30.4c-2.5-4.3-7.4-9.5-16.2-15.2c-23.6-15.2-41.6-20.2-56.8-55.6c0,0,4.5,15.6,9.3,27.5
				c-1.5,0.7-6.7,3.5-10.2,12.5C167.3,75.3,167.5,86.4,155.2,97.8z M170.4,35.4c0,0-25.4,31.3-23.1,66.2l1.2-5.6
				c-0.5,5.3,0.1,10.4,2.1,14.9c-0.1-2.8,0.1-5.6,0.8-8.4l0-0.9c0,0,0.5-13.1,7.4-26.8c6.9-13.6,13.9-28.8,13.9-28.8
				s-8.8,13.1-15.2,23.7c-2.4,3.9-4.8,9-6.5,14.4C153.4,73,159.7,49.7,170.4,35.4z"/>
		</g>
	</g>
	<g>
		<path class="st1" d="M154.1,115.7c0,0-3.3-7.2-7.4-9c-4.1-1.7-7.4,2.5-8.3,7.7c-0.9,5.2,2.9,13.2,4.9,15.5c2,2.3,8.4,4.2,10.6,4.1
			c2.2-0.1,3.2,0.4,3.3-1.9C157.5,129.7,154.1,115.7,154.1,115.7z"/>
		<path class="st5" d="M154,127.1c-0.6-7.5-2.9-13.7-5.4-16.1c-2.5-2.5-5.4-0.6-6.5,2.2c-1.1,2.8-0.2,6.8-0.2,6.8s2.3-6.9,4.5-6
			C148.6,114.8,154,127.1,154,127.1z"/>
	</g>
</g>
</svg>
