<?xml version="1.0" encoding="utf-8"?>
<!-- Generator: Adobe Illustrator 24.0.0, SVG Export Plug-In . SVG Version: 6.00 Build 0)  -->
<svg version="1.1" id="Layer_1" xmlns="http://www.w3.org/2000/svg" xmlns:xlink="http://www.w3.org/1999/xlink" x="0px" y="0px"
	 width="120px" height="120px" viewBox="0 0 120 120" style="enable-background:new 0 0 120 120;" xml:space="preserve">
<style type="text/css">
	.st0{fill:#3C6DA4;}
	.st1{fill:#3C6DA4;stroke:#FFFFFF;stroke-miterlimit:10;}
</style>
<g>
	<g>
		<ellipse transform="matrix(0.3966 -0.918 0.918 0.3966 -19.3348 91.5844)" class="st0" cx="60" cy="60.5" rx="51.6" ry="51.6"/>
		<g>
			<path class="st1" d="M60,104.5c-24.3,0-44-19.7-44-44c0-24.3,19.7-44,44-44s44,19.7,44,44C104,84.8,84.3,104.5,60,104.5z"/>
		</g>
	</g>
	<g>
		<path class="st1" d="M64.2,78.7c0,5.2,3.8,7.5,3.8,7.5L60,88.3l-8.1-2.1c0,0,3.8-2.3,3.8-7.5l4.3-2.1L64.2,78.7z"/>
		<g>
			<path class="st1" d="M48.1,69.1C48.1,69.1,48,69.1,48.1,69.1c-5.2-0.1-9.6-1.4-13-3.7c-3-2-5.2-4.8-6.3-7.8
				c-1.4-4.1-0.4-8.3,2.4-10.6c1.6-1.2,3.6-1.9,5.9-1.7s4.8,1,7.4,2.6c1,0.6,1.4,2,0.8,3c-0.6,1-2,1.4-3,0.8
				c-3.6-2.2-6.6-2.6-8.3-1.2c-1.4,1.1-1.8,3.4-1,5.8c2,6.1,9.2,8.4,15.2,8.5c1.2,0.1,2.1,1,2.1,2.3C50.2,68.1,49.2,69.1,48.1,69.1z
				"/>
			<path class="st1" d="M71.9,69.1L71.9,69.1c5.2-0.1,9.6-1.4,13-3.7c3-2,5.2-4.8,6.3-7.8c1.4-4.1,0.4-8.3-2.4-10.6
				c-1.6-1.2-3.6-1.9-5.9-1.7s-4.8,1-7.4,2.6c-1,0.6-1.4,2-0.8,3c0.6,1,2,1.4,3,0.8c3.6-2.2,6.6-2.6,8.3-1.2c1.4,1.1,1.8,3.4,1,5.8
				c-2,6-9.2,8.3-15.1,8.5c-1.2,0.1-2.1,1-2.1,2.3C69.7,68.1,70.7,69.1,71.9,69.1z"/>
		</g>
		<path class="st1" d="M41.7,42.2c0,0-4.1,25.4,14,32.3h8.5c18.1-6.9,14-32.3,14-32.3L60,39.4L41.7,42.2z"/>
		<path class="st1" d="M64.2,74.6h-8.5c-1.2,0-2.1,0.9-2.1,2.1l0,0c0,1.2,0.9,2.1,2.1,2.1h8.5c1.2,0,2.1-0.9,2.1-2.1l0,0
			C66.3,75.5,65.4,74.6,64.2,74.6z"/>
		<path class="st1" d="M68,86.2H52c-1.2,0-2.1,0.9-2.1,2.1l0,0c0,1.2,0.9,2.1,2.1,2.1h16.1c1.2,0,2.1-0.9,2.1-2.1l0,0
			C70.1,87.2,69.2,86.2,68,86.2z"/>
		<path class="st1" d="M78.3,36.7H41.7c-1.5,0-2.8,1.2-2.8,2.8l0,0c0,1.5,1.2,2.8,2.8,2.8h36.6c1.5,0,2.8-1.2,2.8-2.8l0,0
			C81.1,37.9,79.9,36.7,78.3,36.7z"/>
	</g>
</g>
</svg>
