<?xml version="1.0" encoding="utf-8"?>
<!-- Generator: Adobe Illustrator 24.0.0, SVG Export Plug-In . SVG Version: 6.00 Build 0)  -->
<svg version="1.1" id="Layer_1" xmlns="http://www.w3.org/2000/svg" xmlns:xlink="http://www.w3.org/1999/xlink" x="0px" y="0px"
	 width="605px" height="605px" viewBox="0 0 605 605" style="enable-background:new 0 0 605 605;" xml:space="preserve">
<style type="text/css">
	.st0{fill:#F74D83;}
	.st1{fill:#320300;}
	.st2{fill:#FFBF7D;}
	.st3{fill:#D99F6B;}
	.st4{fill:#8E202F;}
	.st5{fill:#C3534A;}
	.st6{fill:#D3632F;}
	.st7{fill:#502200;}
	.st8{fill:#280000;}
	.st9{fill:#FFFFFF;}
	.st10{fill:none;stroke:#D3632F;stroke-width:5.2207;stroke-linecap:round;stroke-miterlimit:10;}
	.st11{fill:#B6DCF5;}
	.st12{fill:#DBF4FD;}
</style>
<title>Artboard 23</title>
<g>
	<rect x="-7.8" y="-8.8" class="st0" width="546.7" height="642.5"/>
</g>
<g>
	<g>
		<path class="st1" d="M307.4,987.7l-3.3,15.7l47.5,15.9c0,0,9.9,2.8,4,7.4c0,0-11.3,8.9-29.1,2l-37.3-11l-9.2-2.7l-1-27.2H307.4z"
			/>
		<path class="st1" d="M164.3,989.4l3.3,15.7L120,1021c0,0-9.8,2.8-4,7.4c0,0,11.3,8.9,29.1,2l37.3-11l9.2-2.7l1-27.2H164.3z"/>
		<g>
			<rect x="232.9" y="266.3" class="st2" width="39.9" height="39.1"/>
			<path class="st3" d="M269.3,294.6c-10.9-9.5-27.2-7-36.4-19.3v-9h39.9v32.6C271.8,297.3,270.7,295.8,269.3,294.6z"/>
		</g>
		<path class="st2" d="M152.8,360.2c-5.2-21.8,10.9-38.5,10.9-38.5l71-25.3h17.8h1h17.8l44.8,27.3c0,0,11.7,8.5,9.8,35.2l-7.9,157
			c0,0-1.1,8.2-0.2,27.8h-64.3h-1H188c1.7-13.5-0.1-27.8-0.1-27.8L152.8,360.2z"/>
		<path class="st4" d="M275,1002.7c-2.3-26.5-2.6-42.9-2.6-42.9l-14.9-314.7l-34.5,200.3l-27.4,158.9h-35.2l10.2-157.7l12.2-189.4
			c0,0,0.9-20.9,2-45.6v-67.2h139.1v67.2c-1,28.5-1.6,45.6-1.6,45.6l-11.5,345.3H275z"/>
		<rect x="270.4" y="983.5" class="st5" width="46.1" height="19.1"/>
		<rect x="153.8" y="984.8" class="st5" width="46.1" height="19.1"/>
		<g>
			<g>
				<path class="st2" d="M317,193.8c-1.4,10.6,2.8,19.9,9.5,20.8c6.7,0.9,13.2-7,14.6-17.6c1.4-10.6-2.9-19.9-9.5-20.8
					C325,175.3,318.4,183.2,317,193.8z"/>
				<path class="st3" d="M325.2,190.7c0,0,0.1-0.6,0.3-1.6c0.2-1,0.6-2.4,1.3-3.8c0.7-1.4,2-3.1,3.6-3.2c0.4,0,0.8,0,1.3,0.1
					c0.1,0,0.5,0.2,0.7,0.3c0.1,0.1,0.3,0.2,0.5,0.3c0.7,0.5,1.3,1.3,1.7,2.3c0.5,0.9,0.8,2,1,3c0.2,1,0.3,2.1,0.2,3
					c-0.1,1.1-0.1,2.2-0.3,3.1c-0.2,0.9-0.3,1.8-0.5,2.7c-0.2,0.8-0.4,1.6-0.5,2.3c-0.1,0.7-0.4,1.3-0.5,1.7c-0.3,1-0.4,1.5-0.4,1.5
					s0.3-0.5,0.8-1.4c0.2-0.5,0.6-1,0.8-1.6c0.3-0.6,0.6-1.4,1-2.2c0.3-0.8,0.6-1.8,0.8-2.8c0.3-1,0.4-2,0.6-3.1
					c0.2-1.2,0.1-2.4-0.1-3.6c-0.2-1.2-0.5-2.4-1.1-3.6c-0.5-1.1-1.4-2.2-2.5-3.1c-0.3-0.2-0.6-0.4-1-0.5c-0.4-0.1-0.5-0.2-0.9-0.3
					c-0.7-0.1-1.3-0.1-2,0c-1.3,0.2-2.4,1.1-3.1,1.9c-0.7,0.9-1.1,1.8-1.4,2.7c-0.6,1.7-0.6,3.2-0.6,4.3
					C325.1,190.1,325.2,190.7,325.2,190.7z"/>
				<path class="st3" d="M325.2,190.7c0,0-0.7-1.1,3.6-1.5c0,0,4.9,0.6,2.4,5.9c-0.5,1.1-1,2.3-1.2,3.6c-0.3,1.8,0.6,4.1-0.5,5.7
					c-1.4,2-5.3,1-5.6-1.3c-0.3-1.8,1.8-4.8,2.7-6.1C326.6,197,329.5,193.1,325.2,190.7z"/>
				<g>
					<path class="st3" d="M323.9,202.9c0,0-0.1,0.1-0.3,0.3c-0.2,0.2-0.4,0.5-0.6,1c-0.1,0.2-0.1,0.5-0.2,0.8c0,0.3-0.1,0.6,0,0.9
						c0.1,0.3,0.1,0.6,0.2,0.9c0.1,0.3,0.3,0.6,0.4,0.9c0.2,0.3,0.3,0.6,0.5,0.8c0.2,0.2,0.5,0.4,0.7,0.6c0.4,0.4,0.9,0.6,1.4,0.7
						c0.9,0.3,1.5,0.3,1.5,0.3s-0.3-0.6-0.8-1.3c-0.1-0.2-0.2-0.3-0.4-0.5c-0.1-0.2-0.2-0.4-0.3-0.6c-0.1-0.2-0.2-0.4-0.4-0.5
						c-0.2-0.2-0.2-0.4-0.3-0.6c-0.3-0.4-0.4-0.8-0.6-1.2c-0.1-0.2-0.2-0.4-0.2-0.6c0-0.2-0.2-0.4-0.2-0.6
						C324,203.5,323.9,202.9,323.9,202.9z"/>
				</g>
			</g>
			<path class="st2" d="M257.2,73.8c0.1,0,0.2,0,0.2,0c0.1,0,0.2,0,0.2,0c15.9,0.9,85.5,10.8,68.9,118l-4.1,44.9
				c0,0-1.7,14.1-14.2,23.6c0,0-9.1,9.6-26.7,22.2c-5.2,3.8-13.4,2.5-19,0c-18-8-54.2-26.2-54.2-26.2c-12.5-9.5-13.1-19.6-13.1-19.6
				l-7-44.9C171.7,84.7,241.3,74.7,257.2,73.8z"/>
			<g>
				<path class="st6" d="M326.6,191.9l-2.1,0l-4.9,25.8c-2.9,20.6-20.1,15.7-20.1,15.7s-11.3-3.9-23.9-1.7c0,0-20-6.5-33.5,3.9
					c0,0-20.7,10.6-32.4-3.8l-4.6-32.3h-5.9c0.3,9.1-7.2,14.7-7.2,14.7l3.3,22.7c0,0,0.6,10.1,13.1,19.6c0,0,36.2,18.2,54.2,26.2
					c5.5,2.5,13.7,3.7,19,0c17.6-12.6,26.7-22.2,26.7-22.2c12.5-9.5,14.2-23.6,14.2-23.6l4.3-44.8"/>
			</g>
			<g>
				<g>
					<path class="st3" d="M285.7,173.3c0,3.3,0.3,6.5,0.7,9.8c0.4,3.2,0.9,6.5,1.7,9.7c0.7,3.2,1.6,6.4,2.8,9.5
						c0.3,0.8,0.6,1.6,1,2.3c0.4,0.8,0.7,1.5,1.1,2.3c0.4,0.7,0.8,1.5,1.3,2.2l1.5,2.1l-0.1-0.2c0.2,0.4,0.5,0.9,0.7,1.4
						c0.2,0.5,0.3,1.1,0.4,1.6c0.1,1.1,0,2-0.5,2.9c-0.9,1.8-3.1,3-5.4,3.8c-2.4,0.8-4.9,1.3-7.5,1.7c-2.6,0.4-5.2,0.5-7.9,0.8
						c2.6,0.5,5.3,0.7,8,0.8c2.7,0,5.4-0.1,8.1-0.8c2.7-0.6,5.6-1.9,7.4-4.8c0.9-1.4,1.1-3.2,0.9-4.8c-0.1-0.8-0.3-1.5-0.5-2.3
						c-0.3-0.7-0.5-1.4-1-2.1l-0.1-0.2l-1.3-1.8l-1.2-2c-0.4-0.7-0.7-1.4-1.1-2.1c-0.4-0.7-0.7-1.4-1-2.2c-1.3-2.9-2.3-5.9-3.2-9
						c-0.9-3.1-1.8-6.2-2.6-9.3C287.1,179.7,286.4,176.5,285.7,173.3z"/>
				</g>
			</g>
			<g>
				<g>
					<g>
						<g>
							<path class="st7" d="M235.6,174.1c0,3.7,3,6.6,6.6,6.6c3.7,0,6.6-3,6.6-6.6c0-3.7-3-6.6-6.6-6.6
								C238.6,167.5,235.6,170.5,235.6,174.1z"/>
							<path class="st8" d="M239.2,174.1c0,1.7,1.4,3.1,3.1,3.1c1.7,0,3.1-1.4,3.1-3.1c0-1.7-1.4-3.1-3.1-3.1
								C240.6,171.1,239.2,172.4,239.2,174.1z"/>
							<path class="st9" d="M236.8,172.3c0,1.3,1.1,2.4,2.4,2.4c1.3,0,2.4-1.1,2.4-2.4c0-1.3-1.1-2.4-2.4-2.4
								C237.9,169.9,236.8,171,236.8,172.3z"/>
						</g>
						<path class="st10" d="M255.3,150.4c0,0-13-6.6-28.7,1.9"/>
					</g>
				</g>
				<g>
					<g>
						<g>
							<path class="st7" d="M310.4,174.1c0,3.7-3,6.6-6.6,6.6c-3.7,0-6.6-3-6.6-6.6c0-3.7,3-6.6,6.6-6.6
								C307.4,167.5,310.4,170.5,310.4,174.1z"/>
							<path class="st8" d="M306.9,174.1c0,1.7-1.1,3.1-2.4,3.1c-1.3,0-2.4-1.4-2.4-3.1c0-1.7,1.1-3.1,2.4-3.1
								C305.8,171.1,306.9,172.4,306.9,174.1z"/>
							<path class="st9" d="M304.2,172.3c0,1.3-1.1,2.4-2.4,2.4c-1.3,0-2.4-1.1-2.4-2.4c0-1.3,1.1-2.4,2.4-2.4
								C303.1,169.9,304.2,171,304.2,172.3z"/>
						</g>
						<path class="st10" d="M291.1,146.9c0,0,14.2-3.2,27.4,8.8"/>
					</g>
				</g>
			</g>
			<path class="st6" d="M169.8,101.1c-7.8,37.4,9.7,76.6,9.7,76.6c18.7-6.5,19.6,22.4,19.6,22.4l6-0.2c-4.6-36.3,7.8-52.8,7.5-53.5
				c-8.3-19.6,7-36.1,7-36.1c40.5,15,94.4-3,94.4-3c15.7-14.8,3.5-39.2,3.5-39.2s-4.5-36.6-64.1-37.4c0,0,8.7,29.1-37.8,22.6
				C215.5,53.2,178.9,57.9,169.8,101.1z"/>
			<path class="st6" d="M326.8,192.2c0,0,14.7-47.6,11.9-89c0,0-6.9-30.1-27.4-37.8c0,0,1.4,30.9-3.8,38.3c0,0,18.7,9.1,13.1,30.9
				c0,0,10.4,26.3,4,57.3L326.8,192.2z"/>
			<g>
				<path class="st2" d="M198.5,193.8c1.4,10.6-2.8,19.9-9.5,20.8c-6.7,0.9-13.2-7-14.6-17.6c-1.4-10.6,2.9-19.9,9.5-20.8
					C190.6,175.3,197.1,183.2,198.5,193.8z"/>
				<path class="st3" d="M190.3,190.7c0,0-0.1-0.6-0.3-1.6c-0.2-1-0.6-2.4-1.3-3.8c-0.7-1.4-2-3.1-3.6-3.2c-0.4,0-0.9,0-1.3,0.1
					c-0.1,0-0.5,0.2-0.7,0.3c-0.1,0.1-0.3,0.2-0.5,0.3c-0.7,0.5-1.3,1.3-1.7,2.3c-0.5,0.9-0.8,2-1,3c-0.2,1-0.3,2.1-0.2,3
					c0.1,1.1,0.1,2.2,0.3,3.1c0.2,0.9,0.3,1.8,0.4,2.7c0.2,0.8,0.4,1.6,0.5,2.3c0.1,0.7,0.4,1.3,0.5,1.7c0.3,1,0.4,1.5,0.4,1.5
					s-0.3-0.5-0.8-1.4c-0.2-0.5-0.6-1-0.8-1.6c-0.3-0.6-0.6-1.4-0.9-2.2c-0.3-0.8-0.6-1.8-0.9-2.8c-0.3-1-0.4-2-0.6-3.1
					c-0.2-1.2-0.1-2.4,0.1-3.6c0.2-1.2,0.5-2.4,1.1-3.6c0.5-1.1,1.4-2.2,2.5-3.1c0.3-0.2,0.6-0.4,1-0.5c0.4-0.1,0.5-0.2,0.9-0.3
					c0.7-0.1,1.3-0.1,2,0c1.3,0.2,2.4,1.1,3.1,1.9c0.7,0.9,1.1,1.8,1.4,2.7c0.6,1.7,0.6,3.2,0.6,4.3
					C190.5,190.1,190.3,190.7,190.3,190.7z"/>
				<path class="st3" d="M190.3,190.7c0,0,0.7-1.1-3.6-1.5c0,0-4.9,0.6-2.4,5.9c0.5,1.1,1,2.3,1.2,3.6c0.3,1.8-0.6,4.1,0.5,5.7
					c1.4,2,5.3,1,5.6-1.3c0.3-1.8-1.8-4.8-2.7-6.1C188.9,197,186,193.1,190.3,190.7z"/>
				<g>
					<path class="st3" d="M191.6,202.9c0,0,0.1,0.1,0.3,0.3c0.2,0.2,0.4,0.5,0.6,1c0.1,0.2,0.1,0.5,0.2,0.8c0,0.3,0.1,0.6,0,0.9
						c-0.1,0.3-0.1,0.6-0.2,0.9c-0.1,0.3-0.3,0.6-0.4,0.9c-0.2,0.3-0.3,0.6-0.5,0.8c-0.2,0.2-0.5,0.4-0.7,0.6
						c-0.4,0.4-0.9,0.6-1.4,0.7c-0.9,0.3-1.5,0.3-1.5,0.3s0.3-0.6,0.8-1.3c0.1-0.2,0.2-0.3,0.4-0.5c0.1-0.2,0.2-0.4,0.3-0.6
						c0.1-0.2,0.2-0.4,0.4-0.5c0.2-0.2,0.2-0.4,0.3-0.6c0.3-0.4,0.4-0.8,0.6-1.2c0.1-0.2,0.2-0.4,0.2-0.6c0.1-0.2,0.2-0.4,0.2-0.6
						C191.5,203.5,191.6,202.9,191.6,202.9z"/>
				</g>
			</g>
			<g>
				<g>
					<path class="st9" d="M254.9,261c0.4-9.3,9.5-16.8,20.8-16.8s20.4,7.5,20.8,16.8H254.9z"/>
					<g>
						<path class="st3" d="M296.5,261c0,0-2.6-0.5-6.5-0.9c-3.9-0.4-9.1-0.6-14.3-0.7c-5.2,0-10.4,0.3-14.3,0.7
							c-3.9,0.4-6.5,0.9-6.5,0.9s2.6,0.5,6.5,0.9c3.9,0.4,9.1,0.6,14.3,0.7c5.2,0,10.4-0.3,14.3-0.7
							C293.9,261.5,296.5,261,296.5,261z"/>
					</g>
					<g>
						<path class="st3" d="M254.9,261c0,0,0.3-0.9,0.7-2.4c0.1-0.8,0.6-1.7,1.1-2.6c0.4-1,1.2-1.9,2-2.9c0.7-1.1,2-1.9,3-2.9
							c0.6-0.4,1.3-0.8,1.9-1.2c0.7-0.4,1.3-0.8,2.1-1.1c0.7-0.3,1.5-0.6,2.3-0.9c0.8-0.2,1.6-0.4,2.5-0.6l1.2-0.3l1.3-0.1
							c0.8-0.1,1.8-0.1,2.5-0.2l2.7,0.2l1.4,0.1l1.2,0.3c0.8,0.2,1.6,0.4,2.4,0.6c0.8,0.3,1.5,0.6,2.3,0.9c0.8,0.2,1.4,0.7,2.1,1.1
							c0.7,0.4,1.4,0.8,2,1.2c1,1,2.3,1.8,3,2.9c0.8,1,1.6,1.9,2,3c0.5,1,1,1.8,1.1,2.6c0.4,1.5,0.7,2.4,0.7,2.4s0-0.9-0.1-2.6
							c0-0.9-0.3-1.8-0.7-2.9c-0.2-0.5-0.3-1.2-0.6-1.8c-0.3-0.6-0.7-1.2-1-1.8c-0.6-1.3-1.9-2.3-3-3.6c-0.6-0.6-1.3-1-2-1.6
							c-0.7-0.5-1.4-1.1-2.3-1.4c-0.8-0.4-1.7-0.8-2.5-1.2c-0.9-0.3-1.9-0.5-2.8-0.8l-1.4-0.4l-1.4-0.1l-2.7-0.3l-3,0.3l-1.4,0.1
							l-1.4,0.4c-0.9,0.2-1.9,0.5-2.7,0.8c-0.9,0.4-1.7,0.8-2.5,1.2c-0.8,0.3-1.6,0.9-2.3,1.4c-0.7,0.5-1.4,1-2,1.6
							c-1.1,1.3-2.4,2.3-3,3.6c-0.4,0.6-0.7,1.2-1,1.8c-0.3,0.6-0.4,1.2-0.6,1.8c-0.3,1.1-0.7,2.1-0.7,2.9
							C254.9,260.1,254.9,261,254.9,261z"/>
					</g>
				</g>
				<path class="st3" d="M269.7,269.7c0,0,0.7,0.1,1.6,0.1c1,0,2.3,0.1,3.6,0.1c1.3,0,2.6-0.1,3.6-0.1c1,0,1.6-0.1,1.6-0.1v-0.4
					c0,0-0.6-1.1-1.6-1.9c-0.5-0.4-1.1-0.8-1.7-1c-0.3-0.1-0.6-0.3-0.9-0.3l-1-0.1l-1,0.1c-0.3,0-0.6,0.2-0.9,0.3
					c-0.6,0.2-1.2,0.6-1.7,1c-1,0.8-1.6,1.9-1.6,1.9V269.7z"/>
			</g>
			<g>
				<path class="st6" d="M314,107.2c0,0-1.5,0.5-4.1,1.1c-2.6,0.7-6.3,1.6-10.8,2.5c-2.2,0.5-4.7,0.9-7.3,1.4
					c-2.6,0.5-5.3,0.7-8.1,1.2c-2.8,0.3-5.8,0.7-8.7,0.9c-3,0.2-6,0.5-9.1,0.5l-4.5,0.2c-1.5,0-3,0-4.5-0.1c-3,0-5.9-0.2-8.8-0.5
					c-2.8-0.2-5.6-0.5-8.2-0.9c-2.6-0.3-5-0.6-7.3-1.2c-2.2-0.4-4.3-0.8-6.1-1.2c-1.8-0.5-3.4-0.9-4.7-1.2c-2.6-0.7-4.1-1-4.1-1
					s1.4,0.6,3.9,1.5c1.3,0.5,2.8,1,4.6,1.7c1.8,0.6,3.8,1.1,6.1,1.7c2.2,0.7,4.7,1.1,7.3,1.6c1.3,0.2,2.6,0.5,4,0.8
					c1.4,0.2,2.8,0.3,4.2,0.5c2.9,0.3,5.9,0.6,8.9,0.6c1.5,0.1,3,0.1,4.6,0.2l4.6-0.1c3.1,0,6.2-0.4,9.2-0.6c3-0.3,6-0.7,8.8-1.1
					c2.8-0.5,5.6-1,8.2-1.6c2.6-0.6,5-1.2,7.2-1.8c4.5-1.2,8.1-2.5,10.6-3.5C312.6,107.8,314,107.2,314,107.2z"/>
			</g>
			<path class="st6" d="M199.2,199.4"/>
		</g>
		<path class="st11" d="M228.1,297c0,0-44.2,2.2-75.7,33.7c-8.8,8.8,12.3,106.5,23.8,168.3c5.1,27.3,1.6,44.4,4.2,49.1
			c8.5,15.3,138.6,6,145.9,1.4c2.3-1.5-1.1-23.8,0-54.7c2.9-81.9,12.4-158.4,2.8-169.7s-48.1-22.7-50.5-22.6
			c-2.4,0.1-7.6,9.9-7.6,9.9s-17-2.7-22.9-4.6C242.3,306,228.1,297,228.1,297z"/>
		<path class="st12" d="M226.9,286.2l27.3,23.2c0,0-17.7,25.4-20.4,25.5c-2.8,0.1-22.6-37.4-22.8-40.2
			C210.9,291.9,222.9,286.8,226.9,286.2z"/>
		<path class="st12" d="M279.4,291.1c0,0-25,16.6-25.2,18.3c-0.2,1.7,11.7,29,14.4,29.5c2.7,0.4,13.1-17.2,15.4-21.4
			C286.3,313.3,279.4,291.1,279.4,291.1z"/>
		<g>
			<g transform="matrix(-1.07921,-0.207415,-0.185199,0.96362,214.629,493.062)">
				<g>
					<g>
						<path class="st2" d="M71.6,11c7.1,38.6-8.7,87.2-11,92.6c-2.1,4.8-1.9,14.1-0.5,23.8c1.2,2.5,4.6,10.8,3.7,21.2
							c-1,12.5-5.7,16.5-8.8,20.6c-3.1,4.1-15.2,8.6-18.3,10.3c-3.2,1.7-7.7-0.7-10.5-1.3c-0.8-0.1-1.3-0.9-1.4-1.8
							c-0.2-2.1,1.8-5,6.6-4.3c7,1,12.2-9.8,12.5-15.5c0.4-5.7-3.1-14.2-3.1-14.2s-7.1,3.6-9.2,11.6c-2.1,8-8.1,6-8.1,6l8.9-27.9
							l5.5-10.8c0-0.1,0.1-0.2,0.2-0.4c0.1-0.1,0.1-0.2,0.2-0.3l1-1.9l0,0c2.7-5.8,3-14.4,4.1-44.7c0.6-15.6-1.1-32.2-3.1-45.7
							C38,12,35.1,0.2,35.1,0.2C68.6-1.5,71.6,11,71.6,11"/>
					</g>
				</g>
			</g>
			<g transform="matrix(-1.07921,-0.207415,-0.185199,0.96362,259.771,329.198)">
				<path class="st11" d="M79.9,281.7c1.7-1.4,19.7-88.6,23.7-235.3C104,30.6,84,3.2,75.6-0.9c-10-5-26.5,21.8-27.1,44.3
					c0,0-2.4,79.9-3.4,115.9c-0.9,36-1.7,115.9,1,118.1S74.8,285.8,79.9,281.7z"/>
			</g>
		</g>
		<g>
			<g transform="matrix(-1.07921,-0.207415,-0.185199,0.96362,214.629,493.062)">
				<g>
					<g>
						<path class="st2" d="M-140.6-31.2c-21.3,31.4-26,82.8-26,88.8c0,5.3-3.8,13.6-8.8,21.6c-2,1.7-8.3,7.5-11.6,17.3
							c-3.9,11.8-1.2,17.6,0,22.8c1.2,5.2,10.3,15.1,12.5,18.2c2.2,3,7.2,3.1,9.9,4c0.8,0.3,1.5-0.2,2-0.9c1-1.8,0.3-5.4-4.3-7.1
							c-6.7-2.5-7.2-14.8-5.3-20.1c1.9-5.4,8.3-11.3,8.3-11.3s5,6.7,3.8,14.9c-1.2,8.2,5,9.4,5,9.4l2.8-29.5l-0.8-12.4
							c0-0.1,0-0.3,0-0.4c0-0.1,0-0.2,0-0.4l-0.1-2.2l0,0c-0.2-6.5,2.9-14.4,13.6-42.3c5.5-14.3,13.5-28.4,20.5-39.7
							c8.5-13.6,15.7-22.8,15.7-22.8C-133-41-140.6-31.2-140.6-31.2"/>
					</g>
				</g>
			</g>
			<g transform="matrix(-1.07921,-0.207415,-0.185199,0.96362,259.771,329.198)">
				<path class="st11" d="M-162.8,231.7c-1-2.1,16.6-89.4,69.8-223.5c5.7-14.4,34.4-29.4,43.6-29.1c11,0.4,15.4,32.5,7.3,53.1
					c0,0-28.8,73.1-41.9,106c-13.1,32.9-43.4,105.3-46.7,105.9C-133.9,244.8-159.8,237.9-162.8,231.7z"/>
			</g>
		</g>
	</g>
</g>
</svg>
