<?xml version="1.0" encoding="utf-8"?>
<!-- Generator: Adobe Illustrator 24.0.0, SVG Export Plug-In . SVG Version: 6.00 Build 0)  -->
<svg version="1.1" id="Layer_1" xmlns="http://www.w3.org/2000/svg" xmlns:xlink="http://www.w3.org/1999/xlink" x="0px" y="0px"
	 width="605px" height="605px" viewBox="0 0 605 605" style="enable-background:new 0 0 605 605;" xml:space="preserve">
<style type="text/css">
	.st0{fill:#2BA1D2;}
	.st1{fill:url(#SVGID_1_);}
	.st2{fill:url(#SVGID_2_);}
	.st3{fill:url(#SVGID_3_);}
	.st4{fill:url(#SVGID_4_);}
	.st5{fill:url(#SVGID_5_);}
	.st6{fill:url(#SVGID_6_);}
	.st7{fill:url(#SVGID_7_);}
	.st8{fill:url(#SVGID_8_);}
	.st9{fill:#FDBD7C;}
	.st10{fill:#FFD119;}
	.st11{fill:#FFC940;}
	.st12{fill:#FCB723;}
	.st13{fill:#B4DAF3;}
	.st14{fill:#D9F2FB;}
	.st15{fill:#8C202F;}
	.st16{fill:#D79D6B;}
	.st17{fill:#D16330;}
	.st18{fill:#502200;}
	.st19{fill:#290000;}
	.st20{fill:#FFFFFF;}
	.st21{fill:none;stroke:#D16330;stroke-width:1.8429;stroke-linecap:round;stroke-miterlimit:10;}
	.st22{opacity:0.2;fill:#303030;}
	.st23{opacity:0.3;fill:#303030;}
	.st24{opacity:0.3;}
	.st25{fill:#303030;}
	.st26{fill:#96CE00;}
	.st27{fill:#744069;}
	.st28{fill:#E163A5;}
	.st29{fill:#320300;}
	.st30{fill:#C1544A;}
</style>
<title>Artboard 23</title>
<g>
	<rect x="-11.8" y="-15.8" class="st0" width="546.7" height="642.5"/>
</g>
<g>
	<g>
		<g>
			<g>
				<linearGradient id="SVGID_1_" gradientUnits="userSpaceOnUse" x1="249.7659" y1="333.7843" x2="249.7659" y2="12.7221">
					<stop  offset="0" style="stop-color:#FFFFFF"/>
					<stop  offset="0.9912" style="stop-color:#FFFFFF;stop-opacity:0"/>
				</linearGradient>
				<polygon class="st1" points="259.1,265.3 240.4,265.3 208.2,-50.1 291.4,-50.1 				"/>
				
					<linearGradient id="SVGID_2_" gradientUnits="userSpaceOnUse" x1="375.4138" y1="866.2781" x2="375.4138" y2="545.2158" gradientTransform="matrix(-1 0 0 -1 625.1798 1139.6541)">
					<stop  offset="0" style="stop-color:#FFFFFF"/>
					<stop  offset="0.9925" style="stop-color:#FFFFFF;stop-opacity:0"/>
				</linearGradient>
				<polygon class="st2" points="240.4,341.8 259.1,341.8 291.4,657.3 208.2,657.3 				"/>
			</g>
			<g>
				
					<linearGradient id="SVGID_3_" gradientUnits="userSpaceOnUse" x1="290.8308" y1="364.3701" x2="290.8308" y2="43.3079" gradientTransform="matrix(0 1 -1 0 583.9319 12.7494)">
					<stop  offset="0" style="stop-color:#FFFFFF"/>
					<stop  offset="0.9952" style="stop-color:#FFFFFF;stop-opacity:0"/>
				</linearGradient>
				<polygon class="st3" points="288,312.9 288,294.2 603.5,262 603.5,345.2 				"/>
				
					<linearGradient id="SVGID_4_" gradientUnits="userSpaceOnUse" x1="334.349" y1="835.6923" x2="334.349" y2="514.63" gradientTransform="matrix(0 -1 1 0 -555.7222 637.9292)">
					<stop  offset="0" style="stop-color:#FFFFFF"/>
					<stop  offset="0.9939" style="stop-color:#FFFFFF;stop-opacity:0"/>
				</linearGradient>
				<polygon class="st4" points="211.5,294.2 211.5,312.9 -104,345.2 -104,262 				"/>
			</g>
		</g>
		<g>
			<g>
				
					<linearGradient id="SVGID_5_" gradientUnits="userSpaceOnUse" x1="264.0421" y1="357.661" x2="264.0421" y2="36.5958" gradientTransform="matrix(0.7071 0.7071 -0.7071 0.7071 294.6064 -114.6686)">
					<stop  offset="0" style="stop-color:#FFFFFF"/>
					<stop  offset="0.9952" style="stop-color:#FFFFFF;stop-opacity:0"/>
				</linearGradient>
				<polygon class="st5" points="283.4,283.1 270.2,269.9 470.5,24 529.3,82.9 				"/>
				
					<linearGradient id="SVGID_6_" gradientUnits="userSpaceOnUse" x1="361.2951" y1="842.564" x2="361.2951" y2="521.4988" gradientTransform="matrix(-0.7071 -0.7071 0.7071 -0.7071 -69.1818 1133.4716)">
					<stop  offset="0" style="stop-color:#FFFFFF"/>
					<stop  offset="0.9952" style="stop-color:#FFFFFF;stop-opacity:0"/>
				</linearGradient>
				<polygon class="st6" points="216.1,324 229.3,337.2 29.1,583.1 -29.8,524.3 				"/>
			</g>
			<g>
				
					<linearGradient id="SVGID_7_" gradientUnits="userSpaceOnUse" x1="314.7072" y1="350.2511" x2="314.7072" y2="29.1859" gradientTransform="matrix(-0.7071 0.7071 -0.7071 -0.7071 698.6005 307.3558)">
					<stop  offset="0" style="stop-color:#FFFFFF"/>
					<stop  offset="0.9919" style="stop-color:#FFFFFF;stop-opacity:0"/>
				</linearGradient>
				<polygon class="st7" points="270.2,337.2 283.4,324 529.3,524.3 470.5,583.1 				"/>
				
					<linearGradient id="SVGID_8_" gradientUnits="userSpaceOnUse" x1="310.6299" y1="849.9739" x2="310.6299" y2="528.9087" gradientTransform="matrix(0.7071 -0.7071 0.7071 0.7071 -549.5396 -56.4325)">
					<stop  offset="0" style="stop-color:#FFFFFF"/>
					<stop  offset="0.9939" style="stop-color:#FFFFFF;stop-opacity:0"/>
				</linearGradient>
				<polygon class="st8" points="229.3,269.9 216.1,283.1 -29.8,82.9 29.1,24 				"/>
			</g>
		</g>
	</g>
	<g>
		<g>
			
				<rect x="240.7" y="200.3" transform="matrix(0.758 -0.6523 0.6523 0.758 -77.1402 215.5182)" class="st9" width="22.4" height="22.8"/>
			<g>
				<path class="st10" d="M358.8,115.8c1.7,8.8,8.8,11.4,8.8,11.4l-12.9,6.1l-14.3-0.9c0,0,5.6-5.2,3.9-13.9l6.5-4.9L358.8,115.8z"
					/>
				<g>
					<path class="st10" d="M328.4,104.8C328.4,104.8,328.3,104.8,328.4,104.8c-8.8,1.5-16.6,0.8-23.2-2c-5.8-2.4-10.4-6.4-13.1-11.2
						c-3.7-6.5-3.4-13.9,0.6-18.7c2.3-2.6,5.5-4.3,9.4-4.8s8.5,0.2,13.4,2c1.9,0.7,3,2.9,2.3,4.9c-0.7,1.9-2.9,3-4.9,2.3
						c-6.8-2.5-12-2.3-14.5,0.6c-2,2.3-1.9,6.3,0.3,10.1c5.3,9.6,18.2,11.2,28.4,9.4c2.1-0.3,3.9,1,4.3,3.1
						C331.7,102.5,330.4,104.4,328.4,104.8z"/>
					<path class="st10" d="M368.7,97L368.7,97c8.7-1.9,15.7-5.4,20.7-10.5c4.5-4.4,7.3-9.8,8-15.3c1-7.4-2-14.2-7.5-17.1
						c-3.1-1.6-6.8-1.9-10.5-1c-3.8,1-7.8,3.3-11.7,6.8c-1.5,1.4-1.7,3.8-0.3,5.4c1.4,1.5,3.8,1.7,5.4,0.3
						c5.3-4.9,10.3-6.6,13.6-4.8c2.7,1.4,4.1,5.1,3.5,9.4c-1.4,10.8-12.7,17-22.8,19.3c-2.1,0.5-3.3,2.4-2.9,4.5
						C364.7,96.1,366.6,97.4,368.7,97z"/>
				</g>
				<path class="st10" d="M309,61.6c0,0,1.4,44.2,34.2,49.9l14.4-2.8c28.3-17.5,13.2-59,13.2-59l-31.9,1.2L309,61.6z"/>
				<path class="st11" d="M317.5,59.9l25.8-9.2l-4.5,0.2l-30,10.7c0,0,1.4,44.2,34.2,49.9l8.6-1.7C319,104.1,317.5,59.9,317.5,59.9z
					"/>
				<path class="st12" d="M357.5,108.8l-14.4,2.8c-2,0.4-3.2,2.2-2.8,4.2l0,0c0.4,2,2.2,3.2,4.2,2.8l14.4-2.8c2-0.4,3.2-2.2,2.8-4.2
					l0,0C361.2,109.7,359.4,108.4,357.5,108.8z"/>
				<path class="st12" d="M367.6,127.2l-27.1,5.2c-2,0.4-3.2,2.2-2.8,4.2l0,0c0.4,2,2.2,3.2,4.2,2.8l27.2-5.2c2-0.4,3.2-2.2,2.8-4.2
					l0,0C371.4,128.2,369.6,126.8,367.6,127.2z"/>
				<path class="st12" d="M368.8,40.3l-61.7,11.9c-2.6,0.5-4.4,3-3.8,5.7l0,0c0.5,2.6,3,4.4,5.7,3.8l61.8-11.9
					c2.6-0.5,4.4-3,3.8-5.7l0,0C374,41.4,371.5,39.7,368.8,40.3z"/>
			</g>
			<path class="st13" d="M317.9,276.9c-5.2-1.1-8.7-3.9-11.1-7l-9.4,13.3l-8.7-36.8c-2.6-10.4-13.9-18.6-24.9-24.3
				c-24.5,7.3-23.7-15-23.3-19.4c-4.8-28.7,16.3-53.1,34.6-76l-20.6-7.1c-78.2,71.4-85.5,190.1-85.5,190.1l94.9,14.1
				c-14.7-17.7,1.9-27.3-6.5-28.3c-1.8-0.2,2.6-3.7,2.9-5.3c0.3-1.5-1.5-2.8-1.1-4.1c3.5-10.9,10.5-16.4,10.5-16.4
				c0.5,45.9,29.5,56.1,29.5,56.1L317.9,276.9z"/>
			<path class="st14" d="M250.8,223.1l7.4-4l0.7-1.7l6.1,2.3l4.7,5.8c0,0-15.2,7.7-16,6.3C251.4,227.7,250.8,223.1,250.8,223.1z"/>
			<path class="st14" d="M242.2,227.2l8.6-4l-8-20l-4.6,3.4C238.2,206.5,236.5,217.4,242.2,227.2z"/>
			<g>
				<g>
					<path class="st9" d="M254.6,119.6l20.6,7.1c0,0,0,0,0,0c8.5-10.6,16.5-19,21.3-23.8l8.8-1.4l3.4-3.9l2.5,0.1
						c0,0,1.5-1.2,1.1-2.2c-1.1-3.3-3.3-2.1-4.2-3.8c-1.6-3.2-3.4-6.8-4-8.3c-0.9-2.3-0.9-5.5-4.1-5.1
						c-18.5,2.2-10.9,14.5-15.4,18.8c-12.5,7.6-23.7,16.4-33.6,26C252.2,121.9,253.4,120.7,254.6,119.6z"/>
					<path class="st9" d="M324.4,240.1h-20l-5.1,6.5c0,0,0.4,4,3.6,4.7c1.5,0.3,2.3-0.7,2.7-1.9c0.6,4.4,5.6,10,7.3,11.8l-6.1,8.6
						c2.4,3,5.9,5.9,11.1,7l5.4-14.1C326.9,254.2,324.4,240.1,324.4,240.1z"/>
				</g>
			</g>
			<path class="st15" d="M168.7,303.5c0,0,27.6-27.1,94.2-2.6l-2.8,7.5c0,0,63.4,29.1,79.6,78.8l-89.6,36.4l8.5,26
				c0,0-3.6,5.1-10.6-2.4c-7-7.5-19.4-35.6-19.4-35.6l68.4-39.3c0,0-36.1-32.4-75.8-23.8c0,0-42.6,64.3-25.4,149
				c0,0,1.7,41.3-10.1,39.3c-11.8-2.1-4.8-39-4.8-39S143.1,415.9,168.7,303.5z"/>
			<path class="st13" d="M264.5,109.2c0,0,4.6-3.4,16.4,12.9l-15.3,16.3c0,0-5.6-14-20.6-9.2C251,122.4,257.3,115.3,264.5,109.2z"/>
			<path class="st13" d="M309.9,263.3c0,0,4.3,6.6,13.1,5.6l-13.7,29.8c0,0-7.3,4.1-12.6-14.3L309.9,263.3z"/>
			<g>
				<g>
					<path class="st9" d="M290.2,202.2c-2.3,3-2.6,6.6-0.8,8c1.9,1.4,5.3,0.2,7.6-2.8c2.3-3,2.6-6.6,0.8-8
						C295.9,198,292.5,199.2,290.2,202.2z"/>
					<path class="st16" d="M293.3,202.7c0,0,0.1-0.2,0.4-0.4c0.2-0.3,0.6-0.6,1.1-0.9c0.5-0.3,1.1-0.6,1.7-0.3
						c0.1,0.1,0.3,0.2,0.4,0.3c0,0,0.1,0.1,0.2,0.2c0,0.1,0.1,0.1,0.1,0.2c0.1,0.3,0.2,0.6,0.1,1c0,0.4-0.1,0.7-0.2,1.1
						c-0.1,0.3-0.3,0.7-0.5,1c-0.2,0.3-0.4,0.6-0.6,0.9c-0.2,0.3-0.4,0.5-0.6,0.7c-0.2,0.2-0.4,0.4-0.6,0.6
						c-0.2,0.2-0.3,0.3-0.5,0.4c-0.3,0.2-0.4,0.4-0.4,0.4s0.2-0.1,0.5-0.3c0.1-0.1,0.3-0.2,0.5-0.4c0.2-0.1,0.4-0.3,0.7-0.5
						c0.2-0.2,0.5-0.4,0.7-0.7c0.3-0.3,0.5-0.5,0.7-0.8c0.3-0.3,0.5-0.7,0.6-1.1c0.1-0.4,0.3-0.8,0.3-1.3c0-0.4,0-0.9-0.2-1.4
						c0-0.1-0.1-0.2-0.2-0.3c-0.1-0.1-0.1-0.1-0.2-0.2c-0.2-0.2-0.4-0.3-0.6-0.4c-0.4-0.2-0.9-0.1-1.3,0c-0.4,0.1-0.7,0.4-0.9,0.6
						c-0.5,0.4-0.8,0.9-0.9,1.2C293.4,202.5,293.3,202.7,293.3,202.7z"/>
					<path class="st16" d="M293.3,202.7c0,0,0-0.5,1.4,0.2c0,0,1.4,1.1-0.3,2.2c-0.4,0.3-0.7,0.5-1,0.9c-0.4,0.5-0.5,1.4-1.2,1.7
						c-0.8,0.4-1.8-0.6-1.5-1.4c0.2-0.6,1.4-1.2,1.9-1.4C292.6,204.9,294.2,204.2,293.3,202.7z"/>
					<g>
						<path class="st16" d="M290.7,206.2c0,0-0.1,0-0.1,0c-0.1,0-0.2,0.1-0.4,0.2c-0.1,0.1-0.1,0.1-0.2,0.2
							c-0.1,0.1-0.1,0.2-0.2,0.3c0,0.1-0.1,0.2-0.1,0.3c0,0.1,0,0.2,0,0.3c0,0.1,0,0.2,0,0.3c0,0.1,0.1,0.2,0.1,0.3
							c0.1,0.2,0.2,0.4,0.3,0.5c0.2,0.2,0.4,0.3,0.4,0.3s0-0.2,0-0.5c0-0.1,0-0.1,0-0.2c0-0.1,0-0.2,0-0.2c0-0.1,0-0.2,0-0.2
							c0-0.1,0-0.2,0-0.2c0-0.2,0-0.3,0-0.5c0-0.1,0-0.1,0-0.2c0-0.1,0-0.1,0-0.2C290.7,206.4,290.7,206.2,290.7,206.2z"/>
					</g>
				</g>
				<path class="st9" d="M293.1,155C293.1,155,293.2,155,293.1,155c0.1,0.1,0.1,0.1,0.1,0.1c4.7,3.1,24.2,18.4,0.3,48.2l-9.2,13
					c0,0-3,4-8.5,4.7c0,0-4.5,1.3-12.1,2.1c-2.3,0.2-4.5-1.6-5.8-3.3c-4.1-5.6-12-17.6-12-17.6c-2.1-5.1-0.6-8.3-0.6-8.3l5.8-15
					C265,143.2,288.1,152.4,293.1,155z"/>
				<g>
					<path class="st17" d="M293.5,203.3l-0.6-0.4l-6,7c-4.5,5.8-8.9,1.2-8.9,1.2s-2.8-3.2-7-4.8c0,0-5-5.5-10.9-4.7
						c0,0-8.2-0.4-9.2-6.9l4.3-10.7l-1.8-1c-1.5,2.9-4.8,3.2-4.8,3.2l-3,7.5c0,0-1.6,3.2,0.6,8.3c0,0,7.9,11.9,12,17.6
						c1.3,1.7,3.5,3.6,5.8,3.3c7.6-0.8,12.1-2.1,12.1-2.1c5.5-0.7,8.5-4.7,8.5-4.7L293.5,203.3"/>
				</g>
				<g>
					<g>
						<path class="st16" d="M284.3,190.4c-0.6,1-1,2.1-1.5,3.1c-0.5,1.1-0.9,2.1-1.2,3.3c-0.4,1.1-0.6,2.2-0.8,3.4
							c0,0.3-0.1,0.6-0.1,0.9c0,0.3-0.1,0.6-0.1,0.9c0,0.3,0,0.6,0,0.9l0.1,0.9l0-0.1c0,0.2,0,0.4,0,0.6c0,0.2-0.1,0.4-0.2,0.5
							c-0.1,0.3-0.4,0.6-0.7,0.8c-0.6,0.4-1.5,0.4-2.3,0.2c-0.9-0.2-1.7-0.5-2.6-0.8c-0.9-0.3-1.7-0.8-2.5-1.1
							c0.7,0.6,1.5,1.1,2.3,1.6c0.8,0.5,1.7,0.9,2.6,1.2c0.9,0.3,2.1,0.4,3.1-0.2c0.5-0.3,0.9-0.8,1.1-1.3c0.1-0.3,0.2-0.5,0.2-0.8
							c0.1-0.3,0.1-0.5,0.1-0.8l0-0.1l-0.1-0.8l0-0.8c0-0.3,0-0.5,0-0.8c0-0.3,0-0.6,0.1-0.8c0.1-1.1,0.4-2.2,0.6-3.3
							c0.3-1.1,0.5-2.2,0.9-3.3C283.6,192.6,283.9,191.5,284.3,190.4z"/>
					</g>
				</g>
				<g>
					<g>
						<g>
							<g>
								<path class="st18" d="M268.8,181.9c-0.6,1.1-0.3,2.6,0.9,3.2c1.1,0.6,2.6,0.3,3.2-0.9c0.6-1.1,0.3-2.6-0.9-3.2
									C270.9,180.3,269.5,180.7,268.8,181.9z"/>
								<path class="st19" d="M269.9,182.5c-0.3,0.5-0.1,1.2,0.4,1.5c0.5,0.3,1.2,0.1,1.5-0.4c0.3-0.5,0.1-1.2-0.4-1.5
									C270.9,181.8,270.2,182,269.9,182.5z"/>
								<path class="st20" d="M269.5,181.5c-0.2,0.4-0.1,0.9,0.3,1.2c0.4,0.2,0.9,0.1,1.2-0.3c0.2-0.4,0.1-0.9-0.3-1.2
									C270.3,181,269.7,181.1,269.5,181.5z"/>
							</g>
							<path class="st21" d="M279,178.1c0,0-2.8-4.3-9.1-4.5"/>
						</g>
					</g>
					<g>
						<g>
							<g>
								<path class="st18" d="M291.7,195c-0.6,1.1-2.1,1.5-3.2,0.9c-1.1-0.6-1.5-2.1-0.9-3.2c0.6-1.1,2.1-1.5,3.2-0.9
									C291.9,192.5,292.3,193.9,291.7,195z"/>
								<path class="st19" d="M290.6,194.4c-0.3,0.5-0.9,0.7-1.3,0.5c-0.4-0.2-0.5-0.8-0.2-1.4c0.3-0.5,0.9-0.7,1.3-0.5
									C290.8,193.3,290.9,193.9,290.6,194.4z"/>
								<path class="st20" d="M290.1,193.4c-0.2,0.4-0.8,0.5-1.2,0.3c-0.4-0.2-0.5-0.8-0.3-1.2c0.2-0.4,0.8-0.5,1.2-0.3
									C290.2,192.5,290.3,193,290.1,193.4z"/>
							</g>
							<path class="st21" d="M289.8,184.3c0,0,5.1,0.3,8.4,5.7"/>
						</g>
					</g>
				</g>
				<path class="st17" d="M261.6,147.9C252.6,158,251,173,251,173c6.9,1.3,2,10.3,2,10.3l1.9,1c5-11.9,11.7-14.8,11.7-15
					c0.9-7.4,8.5-9.8,8.5-9.8c9.7,11.7,29.4,15.7,29.4,15.7c7.4-1.8,8-11.4,8-11.4s5.1-12-13-22.7c0,0-2.5,10.4-15.6,0.2
					C284,141.3,271.9,136.3,261.6,147.9z"/>
				<path class="st17" d="M293.5,203.5c0,0,12.9-12,19.3-25.1c0,0,3.2-10.4-1.7-16.4c0,0-5,9.7-7.9,11c0,0,4.1,6.1-1.5,11.7
					c0,0-1.5,9.9-8.9,18.2L293.5,203.5z"/>
				<g>
					<path class="st9" d="M254,181.3c-1.4,3.5-4.4,5.6-6.6,4.7c-2.2-0.9-2.8-4.5-1.4-8c1.4-3.5,4.4-5.6,6.6-4.7
						C254.8,174.3,255.4,177.8,254,181.3z"/>
					<path class="st16" d="M252.1,178.9c0,0,0.1-0.2,0.2-0.5c0.1-0.3,0.2-0.8,0.3-1.4c0-0.6-0.1-1.3-0.5-1.6
						c-0.1-0.1-0.3-0.1-0.4-0.2c0,0-0.2,0-0.2,0c-0.1,0-0.1,0-0.2,0c-0.3,0-0.6,0.2-0.9,0.4c-0.3,0.2-0.6,0.5-0.8,0.7
						c-0.2,0.3-0.5,0.6-0.6,0.9c-0.1,0.3-0.3,0.7-0.5,1c-0.1,0.3-0.2,0.6-0.3,0.9c-0.1,0.3-0.2,0.6-0.2,0.8
						c-0.1,0.2-0.1,0.4-0.2,0.6c-0.1,0.3-0.1,0.5-0.1,0.5s0-0.2,0-0.6c0-0.2,0-0.4,0-0.6c0-0.2,0.1-0.5,0.1-0.8
						c0.1-0.3,0.1-0.6,0.2-1c0.1-0.4,0.2-0.7,0.4-1c0.2-0.4,0.4-0.8,0.7-1.1c0.3-0.3,0.6-0.6,1-0.9c0.4-0.3,0.8-0.4,1.3-0.5
						c0.1,0,0.3,0,0.4,0c0.1,0,0.2,0,0.3,0.1c0.2,0.1,0.4,0.2,0.6,0.3c0.4,0.3,0.6,0.8,0.6,1.1c0.1,0.4,0,0.8,0,1.1
						c-0.1,0.6-0.4,1.1-0.6,1.4C252.2,178.8,252.1,178.9,252.1,178.9z"/>
					<path class="st16" d="M252.1,178.9c0,0,0.4-0.2-0.9-1.1c0,0-1.6-0.7-1.8,1.4c0,0.4-0.1,0.9-0.3,1.3c-0.2,0.6-0.9,1.2-0.9,1.8
						c0.1,0.9,1.4,1.2,2,0.6c0.4-0.5,0.3-1.8,0.3-2.4C250.5,180.6,250.3,178.9,252.1,178.9z"/>
					<g>
						<path class="st16" d="M250.3,182.9c0,0,0,0.1,0,0.1c0,0.1,0,0.2,0,0.4c0,0.1,0,0.2-0.1,0.3c0,0.1-0.1,0.2-0.1,0.3
							c-0.1,0.1-0.1,0.2-0.2,0.3c-0.1,0.1-0.2,0.1-0.3,0.2c-0.1,0.1-0.2,0.1-0.3,0.1c-0.1,0-0.2,0-0.3,0.1c-0.2,0-0.4,0-0.6,0
							c-0.3-0.1-0.5-0.2-0.5-0.2s0.2-0.1,0.5-0.3c0.1,0,0.1-0.1,0.2-0.1c0.1,0,0.1-0.1,0.2-0.1c0.1,0,0.1-0.1,0.2-0.1
							c0.1,0,0.1-0.1,0.2-0.1c0.1-0.1,0.3-0.2,0.4-0.2c0.1,0,0.1-0.1,0.2-0.1c0-0.1,0.1-0.1,0.2-0.1
							C250.1,183.1,250.3,182.9,250.3,182.9z"/>
					</g>
				</g>
				<g>
					<g>
						<path class="st20" d="M276.1,212.2c-1.8,2.8-5.9,3.5-9.3,1.5c-3.4-2-4.9-5.9-3.4-8.8L276.1,212.2z"/>
						<g>
							<path class="st16" d="M263.4,204.9c0,0,0.7,0.6,1.8,1.4c1.1,0.8,2.7,1.8,4.3,2.7c1.6,0.9,3.2,1.8,4.5,2.3
								c1.3,0.6,2.1,0.9,2.1,0.9s-0.7-0.6-1.8-1.4c-1.1-0.8-2.7-1.8-4.3-2.7c-1.6-0.9-3.2-1.8-4.5-2.3
								C264.3,205.2,263.4,204.9,263.4,204.9z"/>
						</g>
						<g>
							<path class="st16" d="M276.1,212.2c0,0-0.2,0.2-0.6,0.6c-0.2,0.2-0.5,0.4-0.8,0.6c-0.3,0.2-0.7,0.4-1.1,0.5
								c-0.4,0.2-0.9,0.2-1.4,0.4c-0.3,0-0.5,0-0.8,0c-0.3,0-0.6,0-0.8,0c-0.3,0-0.6-0.1-0.9-0.1c-0.3-0.1-0.6-0.2-0.9-0.3l-0.4-0.1
								l-0.4-0.2c-0.3-0.1-0.6-0.3-0.8-0.4l-0.8-0.5l-0.4-0.3l-0.3-0.3c-0.2-0.2-0.4-0.4-0.6-0.6c-0.2-0.2-0.4-0.5-0.5-0.7
								c-0.2-0.2-0.3-0.5-0.4-0.7c-0.1-0.2-0.3-0.5-0.4-0.7c-0.1-0.5-0.4-1-0.4-1.4c-0.1-0.5-0.2-0.9-0.1-1.3c0-0.4,0-0.7,0.1-1
								c0.1-0.5,0.2-0.9,0.2-0.9s-0.2,0.3-0.4,0.8c-0.2,0.3-0.2,0.6-0.3,1c0,0.2-0.1,0.4-0.1,0.6c0,0.2,0,0.5,0,0.7
								c0,0.5,0.2,1,0.3,1.6c0.1,0.3,0.2,0.6,0.3,0.8c0.1,0.3,0.3,0.6,0.5,0.8c0.2,0.3,0.4,0.5,0.6,0.8c0.2,0.3,0.5,0.5,0.7,0.7
								l0.4,0.4l0.4,0.3l0.8,0.6l1,0.5l0.5,0.2l0.5,0.1c0.3,0.1,0.7,0.2,1,0.2c0.3,0,0.7,0.1,1,0.1c0.3,0,0.6,0,0.9,0
								c0.3,0,0.6-0.1,0.9-0.1c0.6-0.2,1.1-0.3,1.6-0.6c0.2-0.1,0.4-0.2,0.6-0.4c0.2-0.1,0.4-0.3,0.5-0.4c0.3-0.3,0.6-0.5,0.7-0.8
								C276,212.5,276.1,212.2,276.1,212.2z"/>
						</g>
					</g>
					<path class="st16" d="M267.7,215.7c0,0-0.2-0.1-0.5-0.3c-0.3-0.2-0.7-0.4-1.1-0.7c-0.4-0.2-0.8-0.4-1.1-0.6
						c-0.3-0.2-0.5-0.3-0.5-0.3l-0.1,0.1c0,0,0,0.5,0.2,0.9c0.1,0.2,0.2,0.4,0.3,0.6c0.1,0.1,0.1,0.2,0.2,0.3l0.3,0.2l0.3,0.1
						c0.1,0.1,0.2,0.1,0.3,0.1c0.2,0,0.5,0,0.7,0c0.4-0.1,0.8-0.3,0.8-0.3L267.7,215.7z"/>
				</g>
				<g>
					<path class="st17" d="M304.6,175.2c0,0-0.5-0.1-1.4-0.4c-0.9-0.2-2.2-0.6-3.7-1.1c-0.8-0.2-1.6-0.5-2.5-0.9
						c-0.9-0.3-1.8-0.7-2.7-1.1c-0.9-0.4-1.9-0.8-2.8-1.3c-0.9-0.5-1.9-0.9-2.8-1.5l-1.4-0.8c-0.5-0.3-0.9-0.5-1.4-0.8
						c-0.9-0.5-1.8-1.1-2.6-1.7c-0.8-0.6-1.6-1.1-2.3-1.7c-0.7-0.5-1.4-1.1-2-1.6c-0.6-0.5-1.2-1-1.7-1.4c-0.5-0.5-0.9-0.9-1.2-1.2
						c-0.7-0.7-1.1-1-1.1-1s0.3,0.4,0.9,1.2c0.3,0.4,0.7,0.8,1.1,1.3c0.4,0.5,1,1,1.6,1.6c0.6,0.6,1.2,1.2,1.9,1.8
						c0.4,0.3,0.7,0.6,1.1,0.9c0.4,0.3,0.8,0.6,1.2,0.9c0.8,0.6,1.7,1.2,2.6,1.8c0.5,0.3,0.9,0.6,1.4,0.9l1.4,0.8c1,0.5,2,1,2.9,1.4
						c1,0.5,2,0.8,2.9,1.2c1,0.3,1.9,0.7,2.8,1c0.9,0.3,1.7,0.5,2.5,0.7c1.6,0.4,2.9,0.6,3.9,0.8C304,175.1,304.6,175.2,304.6,175.2
						z"/>
				</g>
				<path class="st17" d="M253.2,183.2"/>
			</g>
		</g>
		<path class="st22" d="M223.2,571c-4.9-12.4-8.9-25.1-12.5-37.9c-3.5-12.8-6.3-25.9-8.6-39l-1.5-9.9l-1.2-9.9
			c-0.4-3.3-0.7-6.6-0.9-9.9c-0.2-3.3-0.6-6.6-0.6-10c-0.6-13.3,0-26.7,1.5-39.9l-0.6,10c-0.1,1.7-0.3,3.3-0.3,5l0,5l0,5
			c0,1.7-0.1,3.3,0.1,5l0.4,9.9c0.9,13.2,2.2,26.5,4.6,39.5c2.2,13.1,5,26.1,8.2,39c1.6,6.4,3.4,12.8,5.3,19.2
			C218.9,558.4,221,564.7,223.2,571z"/>
		<path class="st22" d="M227.3,545.1c-2.3-5.1-4.3-10.3-6.2-15.5c-1.8-5.3-3.4-10.6-4.9-16c-1.4-5.4-2.6-10.8-3.6-16.3
			c-1-5.5-1.6-11-2-16.6c0.6,2.7,0.9,5.5,1.5,8.2l0.8,4.1l0.9,4.1c1.2,5.4,2.4,10.8,3.9,16.2c1.4,5.4,2.9,10.7,4.5,16
			c0.8,2.7,1.6,5.3,2.5,7.9C225.5,539.8,226.4,542.5,227.3,545.1z"/>
		<ellipse class="st23" cx="249.8" cy="593.8" rx="49.6" ry="5.1"/>
		<g class="st24">
			<path class="st25" d="M343.1,366c3,4.8,5.8,9.7,8.6,14.6c2.8,4.9,5.5,9.9,8.1,14.9l0.7,1.3l-1.4,0.6c-3.9,1.7-7.7,3.5-11.6,5.2
				c-3.9,1.7-7.8,3.4-11.7,5c-7.8,3.2-15.7,6.4-23.7,9.2c7.4-4.1,15.1-7.8,22.7-11.5c3.8-1.8,7.7-3.6,11.5-5.3
				c3.8-1.8,7.7-3.4,11.6-5.1l-0.7,1.9c-2.5-5-5-10.1-7.4-15.2C347.6,376.4,345.2,371.3,343.1,366z"/>
		</g>
	</g>
	<g>
		<path class="st26" d="M393.9,12.7c0.3,0.1,0.6,0.2,0.9,0.3c0.4,0.1,0.9,0.1,1.3-0.1c0.1,0.1,0.2,0.1,0.2,0.1
			c0.2,0.1,0.2,0.2,0.1,0.1c0.1,0.1,0.2,0.2,0.3,0.3c0.8,0.8,2.3,0.8,3.1,0c0.8-0.8,0.8-2.2,0-3.1c-1.5-1.5-3.8-2.5-5.9-1.8
			C391.8,9.2,391.8,12.1,393.9,12.7z"/>
		<path class="st26" d="M400.5,69.8c-2.7,1-6.7,3-10.2,3.6c2.7-2.8,6.8-5.6,9.6-6.3c2.7-0.7,1.6-4.9-1.2-4.2
			c-3.5,0.9-5.9,3.3-8.7,5.4c-2.4,1.8-4.5,3.4-5.9,6.1c-0.6,1.2-0.1,2.8,1.3,3.2c3.5,0.9,7.4-0.2,11-1.6c-1.2,1.3-2.6,2.6-3.2,3.7
			c-1.4,2.5-3,5.6-2.8,8.5c0.1,2.8,4.5,2.8,4.4,0c-0.3-7,8.7-9.9,8.6-16.4C403.2,70.6,401.8,69.3,400.5,69.8z"/>
		<path class="st26" d="M41.9,218.9c-0.5-1-1.2-1.8-2.4-2.4c-1.2-0.6-2.5-0.6-3.8-0.9c-1.7-0.3-3.3-0.8-5.1-0.8
			c-2.8-0.1-2.8,4.3,0,4.4c1.7,0,3.4,0.6,5.1,0.9c1.2,0.2,2.6,0.1,2.4,1.7c-0.3,1.9,2.1,4,3.6,2.1c0.5-0.6,0.9-1.2,1.4-1.9
			C44,220.6,43.1,219.3,41.9,218.9z"/>
		<path class="st26" d="M516.4,56.4c-1-0.6-2.5-0.3-3,0.8c-0.3,0.6-0.6,1.3-1,1.9c-0.5,1.1-0.3,2.4,0.8,3c1,0.6,2.5,0.3,3-0.8
			c0.3-0.6,0.6-1.3,1-1.9C517.7,58.4,517.5,57.1,516.4,56.4z"/>
		<path class="st26" d="M476.5,277.4c-0.3,1.8-0.4,3.7-0.7,5.5c-0.2,1.6-0.4,4-1.7,5.2c-2.1,1.9,1,4.9,3.1,3.1
			c3.3-2.9,2.8-8.6,3.5-12.6C481.2,275.8,477,274.6,476.5,277.4z"/>
		<path class="st26" d="M217.4-18.6c-0.2-1-1.2-1.5-2.1-1.6c-2-0.1-4.2,0.9-5.8,2.1c-0.9,0.7-1.4,1.9-0.8,3c0.5,0.9,2,1.5,3,0.8
			c0.6-0.5,1.3-0.9,2-1.2c0.1,0,0.2-0.1,0.3-0.1c0.6,0.5,1.4,0.7,2.1,0.5c1.2-0.3,1.7-1.5,1.5-2.7C217.5-18,217.4-18.3,217.4-18.6z"
			/>
		<path class="st26" d="M447.8,436.7c-1.3-0.6-2.6-1.3-3.9-1.9c-1.1-0.5-2.4-0.3-3,0.8c-0.6,1-0.3,2.5,0.8,3
			c1.3,0.6,2.6,1.3,3.9,1.9c1.1,0.5,2.4,0.3,3-0.8C449.1,438.7,448.8,437.2,447.8,436.7z"/>
		<path class="st26" d="M501.9,352.3c-1.8,3-4.2,5.6-6.4,8.3c-1.8,2.1,1.3,5.2,3.1,3.1c2.5-3,5.1-5.8,7.1-9.1
			C507,352.1,503.3,349.9,501.9,352.3z"/>
		<path class="st26" d="M-12.9,427.7h-8.7c-2.8,0-2.8,4.4,0,4.4h8.7C-10.1,432-10.1,427.7-12.9,427.7z"/>
		<path class="st26" d="M45.1,494.4c-2.8,0-2.8,4.4,0,4.4C47.9,498.8,47.9,494.4,45.1,494.4z"/>
	</g>
	<g>
		<path class="st27" d="M119.2,8.4C115.8,5,113.2,2,113-3c-0.1-4.4,1-8.7,1.1-13.1c0.1-2.8-4.3-2.8-4.4,0c-0.1,5.7-2,11.6-0.6,17.2
			c1,4.3,4,7.4,7,10.4C118.2,13.5,121.2,10.4,119.2,8.4z"/>
		<path class="st27" d="M132.1,84.8c-0.6,1.5-2.7,2.7-3.9,3.5c-1.5,1-3.2,2-4.8,2.9c-2.4,1.5-0.2,5.2,2.2,3.8c3.8-2.3,9-4.7,10.7-9
			C137.3,83.4,133.1,82.2,132.1,84.8z"/>
		<path class="st27" d="M433.3,151.2v-10.6c0-2.8-4.4-2.8-4.4,0v10.6C429,154,433.3,154,433.3,151.2z"/>
		<path class="st27" d="M447.6,186.8c-1.3,0-2.6,0.5-3.5,1.6c-0.7,0.9-0.9,2.2,0,3.1c0.8,0.8,2.3,0.9,3.1,0c0.1-0.1,0.2-0.2,0.3-0.3
			c0,0,0,0,0,0c0,0,0,0,0,0c0,0,0,0,0.1,0c1.1,0,2.2-1,2.2-2.2C449.7,187.8,448.8,186.7,447.6,186.8z"/>
		<path class="st27" d="M497.9,186.8c-2.8,0-2.8,4.4,0,4.4C500.7,191.1,500.7,186.8,497.9,186.8z"/>
		<path class="st27" d="M-26.5,4.9c-2.7-0.1-5.2,1-8,1c-3.1,0-6.2,0.2-9-1.3C-45.5,3.5-47.9,6.3-46,8c0.2,0.2,0.4,0.4,0.6,0.6
			c0.5,0.5,1.1,0.6,1.7,0.6c2.2,0.8,4.4,1,6.9,1c1.8,0,3.6,0.2,5.4-0.1c1.7-0.2,3.2-0.9,4.9-0.9C-23.7,9.3-23.7,5-26.5,4.9z"/>
		<path class="st27" d="M-9.4,304.9c-2.9-0.4-5.3-2.4-8.3-2c-1.2,0.1-2.2,0.9-2.2,2.2c0,1.1,1,2.3,2.2,2.2c2.5-0.3,4.7,1.5,7.2,1.9
			c1.2,0.2,2.3-0.3,2.7-1.5C-7.6,306.5-8.3,305-9.4,304.9z"/>
		<path class="st27" d="M437,364.8c-3.2,0.4-4.8,2.9-6.9,5c-2,2.1-3.6,4.1-4.6,6.8c-2.3,0.8-1.2,4.6,1.5,4.1c0.3,0,0.5-0.1,0.8-0.1
			c0.7-0.1,1.3-0.8,1.5-1.5c0.7-2.3,1.8-4,3.5-5.7c1-1,2.8-4,4.2-4.2C439.7,368.8,439.7,364.4,437,364.8z"/>
	</g>
	<g>
		<path class="st28" d="M49,66c-1.6,2.1-2.8,4.7-1.5,7.3c1.5,2.7,3.7,2.4,6.1,2.6c-0.2,2.3-1.9,4.6-2.1,6.8
			c-0.2,2.2,0.3,3.7,1.8,5.3c1.9,2,5-1,3.1-3.1c-1.6-1.7,0.6-5.1,1.1-6.9c0.5-1.6,0.6-3,0.3-4.6c-0.1-0.7-0.8-1.4-1.5-1.5
			c-2-0.4-5.6,0.5-4.1-2.7c0.8-1.8,5-5.3,7-3.4c2,1.9,5.1-1.1,3.1-3.1C57.7,58.4,52.2,62,49,66z"/>
		<path class="st28" d="M118.1,168l-1.9,1.9c-0.8,0.8-0.8,2.2,0,3.1c0.8,0.8,2.2,0.8,3.1,0c0.6-0.6,1.3-1.3,1.9-1.9
			c0.8-0.8,0.8-2.2,0-3.1C120.3,167.2,118.9,167.2,118.1,168z"/>
		<path class="st28" d="M505.1,4c-4.7,1.8-10.2,4.8-11.8,10c-1.5,5.1,3.8,7.8,7.9,8.7c2.7,0.6,3.9-3.6,1.2-4.2
			c-1.3-0.3-2.7-0.6-3.8-1.4c-1.6-1.1-1.2-2.2-0.2-3.7c1.8-2.7,4.8-4.2,7.8-5.3C508.8,7.2,507.7,3,505.1,4z"/>
		<path class="st28" d="M392.3,255.3C392.3,255.3,392.3,255.3,392.3,255.3C392.3,255.3,392.3,255.3,392.3,255.3
			C392.3,255.2,392.3,255.2,392.3,255.3C392.3,255.2,392.3,255.2,392.3,255.3z"/>
		<path class="st28" d="M394.7,256c-0.7-0.2-1.3-0.4-2-0.6c-0.1,0-0.2-0.1-0.3-0.2c0.3,0.3-1,0.3-0.1,0c-0.1-0.1-0.2-0.2-0.4-0.2
			c0.2,0.1,0.3,0.2,0.4,0.2c0.6-0.2,1.3-1.1,1.9-1.4c0.7-0.4,1.5-0.8,2.2-1.1c2.6-1.1,0.4-4.8-2.2-3.8c-2.9,1.2-8.4,4.4-6,8.3
			c1,1.6,2.9,2.3,4.7,2.7c1.6,0.4,3.5,0.4,3.2,2.4c-0.4,2.8,4,2.7,4.4,0C401,258.6,397.9,256.9,394.7,256z"/>
		<path class="st28" d="M89.1,326.7c-1.2,1.1-3.8,0.4-5.2,0.3c-2.8-0.1-2.8,4.3,0,4.4c3,0.1,5.9,0.6,8.3-1.6
			C94.2,327.9,91.1,324.8,89.1,326.7z"/>
		<path class="st28" d="M191.6,138.5c-1.2,0.2-1.8,1.6-1.5,2.7c0.3,1.1,1.4,1.7,2.5,1.5c0,0,0,0,0.1,0c0,0,0,0-0.1,0c0,0,0,0,0,0
			c0,0,0.1,0.1,0.2,0.1c0.4,0.2,0.6,0.4,0.9,0.6c0.6,0.5,1.2,1.1,1.8,1.6c0.9,0.7,2.2,0.9,3.1,0c0.8-0.8,0.9-2.3,0-3.1
			C196.5,140.2,194.6,137.8,191.6,138.5z"/>
		<path class="st28" d="M-35.3,148.4c-3.4,2.3-8,4-9.7,8.1c-0.5,1.1,0.5,2.4,1.5,2.7c1.2,0.4,2.2-0.4,2.7-1.5
			c0.5-1.3,2.4-2.2,3.5-2.9c1.4-0.9,2.9-1.6,4.2-2.6C-30.8,150.5-33,146.8-35.3,148.4z"/>
		<path class="st28" d="M51.7,421.1c0,7.5,1.4,15.4-2.6,22.1c-1.4,2.4,2.3,4.6,3.8,2.2c4.5-7.5,3.2-15.9,3.2-24.3
			C56,418.3,51.7,418.3,51.7,421.1z"/>
	</g>
	<path class="st15" d="M237.6,416.2l-9.1-4.6c0,0,12.4,28,19.4,35.6c7,7.5,10.6,2.4,10.6,2.4l-8.5-26L237.6,416.2z"/>
	<g>
		<path class="st29" d="M180.7,497.8c0,0-7,37,4.8,39c11.8,2.1,10.1-39.3,10.1-39.3C186.6,498.6,180.7,497.8,180.7,497.8z"/>
	</g>
	<path class="st29" d="M240.5,404.7l-11.9,6.8c0,0,12.4,28,19.4,35.6c7,7.5,10.6,2.4,10.6,2.4l-8.5-26L240.5,404.7z"/>
	<polygon class="st30" points="259.4,421.3 250.7,425.3 239.9,403.6 248.5,399 	"/>
	<path class="st30" d="M195.2,488.3l1.2,9.2c-6,1.6-11.7,2-17,0.6l-3.3-8C183.2,490.6,189.6,490.1,195.2,488.3z"/>
</g>
</svg>
