<?xml version="1.0" encoding="utf-8"?>
<!-- Generator: Adobe Illustrator 24.0.0, SVG Export Plug-In . SVG Version: 6.00 Build 0)  -->
<svg version="1.1" id="Layer_1" xmlns="http://www.w3.org/2000/svg" xmlns:xlink="http://www.w3.org/1999/xlink" x="0px" y="0px"
	 width="140px" height="140px" viewBox="0 0 140 140" style="enable-background:new 0 0 140 140;" xml:space="preserve">
<style type="text/css">
	.st0{fill:#FF6B6A;}
	.st1{fill:#F34049;}
	.st2{fill:#FFD119;}
	.st3{fill:#FFC940;}
	.st4{fill:#FCB723;}
</style>
<g>
	<g>
		<ellipse transform="matrix(0.7071 -0.7071 0.7071 0.7071 -28.995 70)" class="st0" cx="70" cy="70" rx="64.5" ry="64.5"/>
		<g>
			<path class="st1" d="M70,125c-30.3,0-55-24.7-55-55c0-30.3,24.7-55,55-55s55,24.7,55,55C125,100.3,100.3,125,70,125z M70,19.2
				C42,19.2,19.2,42,19.2,70c0,28,22.8,50.8,50.8,50.8c28,0,50.8-22.8,50.8-50.8C120.8,42,98,19.2,70,19.2z"/>
		</g>
	</g>
	<g>
		<path class="st2" d="M75.3,93.8c0,6.5,4.7,9.4,4.7,9.4L70,105.8l-10.1-2.6c0,0,4.7-2.9,4.7-9.4l5.3-2.6L75.3,93.8z"/>
		<g>
			<path class="st2" d="M55.1,81.8C55.1,81.8,55,81.8,55.1,81.8c-6.5-0.2-12-1.7-16.3-4.6c-3.8-2.5-6.5-6-7.8-9.8
				c-1.7-5.2-0.5-10.4,3-13.2c2-1.5,4.6-2.3,7.4-2.2s6,1.3,9.3,3.3c1.3,0.8,1.7,2.5,0.9,3.8c-0.8,1.3-2.5,1.7-3.8,0.9
				c-4.5-2.8-8.3-3.3-10.4-1.5c-1.7,1.4-2.2,4.2-1.2,7.2c2.5,7.6,11.4,10.5,19,10.7c1.5,0.1,2.7,1.3,2.7,2.8
				C57.7,80.6,56.5,81.8,55.1,81.8z"/>
			<path class="st2" d="M84.9,81.8L84.9,81.8c6.5-0.2,12-1.7,16.3-4.6c3.8-2.5,6.5-6,7.8-9.8c1.7-5.2,0.5-10.4-3-13.2
				c-2-1.5-4.6-2.3-7.4-2.2c-2.8,0.2-6,1.3-9.3,3.3C88,56,87.6,57.7,88.4,59c0.8,1.3,2.5,1.7,3.8,0.9c4.5-2.8,8.3-3.3,10.4-1.5
				c1.7,1.4,2.2,4.2,1.2,7.2c-2.5,7.5-11.4,10.4-18.9,10.7c-1.5,0.1-2.7,1.3-2.7,2.8C82.2,80.6,83.4,81.8,84.9,81.8z"/>
		</g>
		<path class="st2" d="M47.2,48.2c0,0-5.1,31.7,17.5,40.3h10.7C98,80,92.9,48.2,92.9,48.2l-23-3.5L47.2,48.2z"/>
		<path class="st3" d="M53.5,48.2l19.7-3L70,44.7l-22.9,3.5c0,0-5.1,31.7,17.5,40.3H71C48.5,80,53.5,48.2,53.5,48.2z"/>
		<path class="st4" d="M75.3,88.6H64.6c-1.5,0-2.6,1.1-2.6,2.6l0,0c0,1.5,1.1,2.6,2.6,2.6h10.7c1.5,0,2.6-1.1,2.6-2.6l0,0
			C77.9,89.8,76.8,88.6,75.3,88.6z"/>
		<path class="st4" d="M80,103.2H60c-1.5,0-2.6,1.1-2.6,2.6l0,0c0,1.5,1.1,2.6,2.6,2.6h20.1c1.5,0,2.6-1.1,2.6-2.6l0,0
			C82.6,104.4,81.5,103.2,80,103.2z"/>
		<path class="st4" d="M92.8,41.2H47.2c-1.9,0-3.5,1.5-3.5,3.5l0,0c0,1.9,1.5,3.5,3.5,3.5h45.8c1.9,0,3.5-1.5,3.5-3.5l0,0
			C96.4,42.8,94.8,41.2,92.8,41.2z"/>
	</g>
</g>
</svg>
