<?xml version="1.0" encoding="utf-8"?>
<!-- Generator: Adobe Illustrator 23.1.1, SVG Export Plug-In . SVG Version: 6.00 Build 0)  -->
<svg version="1.1" id="Layer_1" xmlns="http://www.w3.org/2000/svg" xmlns:xlink="http://www.w3.org/1999/xlink" x="0px" y="0px"
	 width="120px" height="120px" viewBox="0 0 120 120" style="enable-background:new 0 0 120 120;" xml:space="preserve">
<style type="text/css">
	.st0{fill:#C4C4C4;}
	.st1{fill:#A3A3A3;}
	.st2{fill:#FFFFFF;}
	.st3{fill:#DBDBDB;}
	.st4{fill:#EBEBEB;}
	.st5{fill:#E0E0E0;}
	.st6{fill:#AAAAAA;}
	.st7{fill:#858585;}
</style>
<g>
	<ellipse transform="matrix(0.3966 -0.918 0.918 0.3966 -18.8758 91.2827)" class="st0" cx="60" cy="60" rx="51.6" ry="51.6"/>
	<g>
		<path class="st1" d="M60,104c-24.3,0-44-19.7-44-44c0-24.3,19.7-44,44-44s44,19.7,44,44C104,84.3,84.3,104,60,104z M60,19.4
			c-22.4,0-40.6,18.2-40.6,40.6c0,22.4,18.2,40.6,40.6,40.6c22.4,0,40.6-18.2,40.6-40.6C100.6,37.6,82.4,19.4,60,19.4z"/>
	</g>
</g>
<g>
	<g>
		<g>
			<path class="st2" d="M37.3,36.9L37.3,36.9v50.9h33.3c2.1,0,3.8-1.7,3.8-3.8V36.9v-0.4c0-2.4,1.9-4.3,4.3-4.3H42
				C39.4,32.2,37.3,34.3,37.3,36.9z"/>
			<path class="st3" d="M90.7,71.8V44.7h-8.2V72c0,2.1,1.7,3.9,3.9,3.9l0,0h0C88.7,75.9,90.6,74.1,90.7,71.8z"/>
			<path class="st4" d="M82.5,72v-1.6V44.7V36c0-2.1-1.7-3.9-3.9-3.9h0l0,0c-2.4,0-4.3,1.9-4.3,4.3v0.4v33.6v0.8v4.7h12.1
				C84.3,75.9,82.5,74.2,82.5,72z"/>
			<path class="st5" d="M66.1,84v-7.2H29.3V84c0,2.1,1.7,3.9,3.9,3.9l0,0h0H70C67.8,87.8,66.1,86.1,66.1,84z"/>
		</g>
		<g>
			<g>
				<path class="st6" d="M44.7,45.5h-3.9c-0.6,0-1-0.5-1-1v-3.9c0-0.6,0.5-1,1-1h3.9c0.6,0,1,0.5,1,1v3.9
					C45.7,45,45.2,45.5,44.7,45.5z M40.8,40.1c-0.2,0-0.4,0.2-0.4,0.4v3.9c0,0.2,0.2,0.4,0.4,0.4h3.9c0.2,0,0.4-0.2,0.4-0.4v-3.9
					c0-0.2-0.2-0.4-0.4-0.4H40.8z"/>
			</g>
			<g>
				<g>
					<polygon class="st7" points="42.8,44.6 40.7,41.5 41.5,40.9 42.6,42.6 44.9,37.4 45.8,37.8 					"/>
				</g>
			</g>
			<g>
				<path class="st6" d="M44.7,56h-3.9c-0.6,0-1-0.5-1-1v-3.9c0-0.6,0.5-1,1-1h3.9c0.6,0,1,0.5,1,1v3.9C45.7,55.5,45.2,56,44.7,56z
					 M40.8,50.6c-0.2,0-0.4,0.2-0.4,0.4v3.9c0,0.2,0.2,0.4,0.4,0.4h3.9c0.2,0,0.4-0.2,0.4-0.4v-3.9c0-0.2-0.2-0.4-0.4-0.4H40.8z"/>
			</g>
			<g>
				<g>
					<polygon class="st7" points="42.8,55.1 40.7,51.9 41.5,51.4 42.6,53.1 44.9,47.9 45.8,48.3 					"/>
				</g>
			</g>
			<g>
				<path class="st6" d="M44.7,66.4h-3.9c-0.6,0-1-0.5-1-1v-3.9c0-0.6,0.5-1,1-1h3.9c0.6,0,1,0.5,1,1v3.9
					C45.7,66,45.2,66.4,44.7,66.4z M40.8,61.1c-0.2,0-0.4,0.2-0.4,0.4v3.9c0,0.2,0.2,0.4,0.4,0.4h3.9c0.2,0,0.4-0.2,0.4-0.4v-3.9
					c0-0.2-0.2-0.4-0.4-0.4H40.8z"/>
			</g>
			<g>
				<g>
					<polygon class="st7" points="42.8,65.5 40.7,62.4 41.5,61.9 42.6,63.6 44.9,58.4 45.8,58.8 					"/>
				</g>
			</g>
			<g>
				<rect x="48.6" y="64" class="st5" width="22.6" height="1.6"/>
				<rect x="48.6" y="61.3" class="st5" width="12.3" height="1.6"/>
			</g>
			<g>
				<rect x="48.6" y="53.5" class="st5" width="22.6" height="1.6"/>
				<rect x="48.6" y="50.9" class="st5" width="12.3" height="1.6"/>
			</g>
			<g>
				<rect x="48.6" y="43" class="st5" width="22.6" height="1.6"/>
				<rect x="48.6" y="40.4" class="st5" width="12.3" height="1.6"/>
			</g>
		</g>
	</g>
</g>
</svg>
