<?xml version="1.0" encoding="utf-8"?>
<!-- Generator: Adobe Illustrator 23.1.1, SVG Export Plug-In . SVG Version: 6.00 Build 0)  -->
<svg version="1.1" id="Layer_1" xmlns="http://www.w3.org/2000/svg" xmlns:xlink="http://www.w3.org/1999/xlink" x="0px" y="0px"
	 width="120px" height="120px" viewBox="0 0 120 120" style="enable-background:new 0 0 120 120;" xml:space="preserve">
<style type="text/css">
	.st0{fill:#9A9A9A;}
	.st1{fill:#7B7B7B;}
	.st2{fill:#DBDBDB;}
	.st3{fill:#D4D4D4;}
	.st4{fill:#CFCFCF;}
</style>
<title>Artboard 23</title>
<g>
	<ellipse transform="matrix(0.3966 -0.918 0.918 0.3966 -18.8758 91.2827)" class="st0" cx="60" cy="60" rx="51.6" ry="51.6"/>
	<g>
		<path class="st1" d="M60,104c-24.3,0-44-19.7-44-44c0-24.3,19.7-44,44-44s44,19.7,44,44C104,84.3,84.3,104,60,104z M60,19.4
			c-22.4,0-40.6,18.2-40.6,40.6c0,22.4,18.2,40.6,40.6,40.6c22.4,0,40.6-18.2,40.6-40.6C100.6,37.6,82.4,19.4,60,19.4z"/>
	</g>
</g>
<g>
	<path class="st2" d="M64.2,79c0,5.2,3.8,7.5,3.8,7.5L60,88.6l-8.1-2.1c0,0,3.8-2.3,3.8-7.5L60,77L64.2,79z"/>
	<g>
		<path class="st2" d="M48.1,69.4C48.1,69.4,48,69.4,48.1,69.4c-5.2-0.1-9.6-1.4-13-3.7c-3-2-5.2-4.8-6.3-7.8
			c-1.4-4.1-0.4-8.3,2.4-10.6c1.6-1.2,3.6-1.9,5.9-1.7s4.8,1,7.4,2.6c1,0.6,1.4,2,0.8,3c-0.6,1-2,1.4-3,0.8
			c-3.6-2.2-6.6-2.6-8.3-1.2c-1.4,1.1-1.8,3.4-1,5.8c2,6.1,9.2,8.4,15.2,8.5c1.2,0.1,2.1,1,2.1,2.3C50.2,68.4,49.2,69.4,48.1,69.4z"
			/>
		<path class="st2" d="M71.9,69.4L71.9,69.4c5.2-0.1,9.6-1.4,13-3.7c3-2,5.2-4.8,6.3-7.8c1.4-4.1,0.4-8.3-2.4-10.6
			c-1.6-1.2-3.6-1.9-5.9-1.7s-4.8,1-7.4,2.6c-1,0.6-1.4,2-0.8,3c0.6,1,2,1.4,3,0.8c3.6-2.2,6.6-2.6,8.3-1.2c1.4,1.1,1.8,3.4,1,5.8
			c-2,6-9.2,8.3-15.1,8.5c-1.2,0.1-2.1,1-2.1,2.3C69.7,68.4,70.7,69.4,71.9,69.4z"/>
	</g>
	<path class="st2" d="M41.7,42.6c0,0-4.1,25.4,14,32.3h8.5c18.1-6.9,14-32.3,14-32.3L60,39.8L41.7,42.6z"/>
	<path class="st3" d="M46.8,42.6l15.8-2.4L60,39.8l-18.3,2.8c0,0-4.1,25.4,14,32.3h5.1C42.8,68,46.8,42.6,46.8,42.6z"/>
	<path class="st4" d="M64.2,74.9h-8.5c-1.2,0-2.1,0.9-2.1,2.1l0,0c0,1.2,0.9,2.1,2.1,2.1h8.5c1.2,0,2.1-0.9,2.1-2.1l0,0
		C66.3,75.8,65.4,74.9,64.2,74.9z"/>
	<path class="st4" d="M68,86.5H52c-1.2,0-2.1,0.9-2.1,2.1l0,0c0,1.2,0.9,2.1,2.1,2.1h16.1c1.2,0,2.1-0.9,2.1-2.1l0,0
		C70.1,87.5,69.2,86.5,68,86.5z"/>
	<path class="st4" d="M78.3,37H41.7c-1.5,0-2.8,1.2-2.8,2.8l0,0c0,1.5,1.2,2.8,2.8,2.8h36.6c1.5,0,2.8-1.2,2.8-2.8l0,0
		C81.1,38.2,79.9,37,78.3,37z"/>
</g>
</svg>
