<?xml version="1.0" encoding="utf-8"?>
<!-- Generator: Adobe Illustrator 23.1.1, SVG Export Plug-In . SVG Version: 6.00 Build 0)  -->
<svg version="1.1" id="Layer_1" xmlns="http://www.w3.org/2000/svg" xmlns:xlink="http://www.w3.org/1999/xlink" x="0px" y="0px"
	 width="120px" height="120px" viewBox="0 0 120 120" style="enable-background:new 0 0 120 120;" xml:space="preserve">
<style type="text/css">
	.st0{fill:#A290C5;}
	.st1{clip-path:url(#SVGID_2_);}
	.st2{fill:#F2987A;}
	.st3{fill:#DA7B65;}
	.st4{fill:#FFFFFF;}
	.st5{fill:#F3F3F3;}
	.st6{fill:#FFC8A8;}
	.st7{opacity:0.4;fill:#FFC8A8;enable-background:new    ;}
	.st8{fill:#7963AB;}
</style>
<g>
	<ellipse transform="matrix(0.3966 -0.918 0.918 0.3966 -18.8758 91.2827)" class="st0" cx="60" cy="60" rx="51.6" ry="51.6"/>
	<g>
		<defs>
			<path id="SVGID_1_" d="M60,104c-24.3,0-44-19.7-44-44c0-24.3,19.7-44,44-44s44,19.7,44,44C104,84.3,84.3,104,60,104z"/>
		</defs>
		<clipPath id="SVGID_2_">
			<use xlink:href="#SVGID_1_"  style="overflow:visible;"/>
		</clipPath>
		<g class="st1">
			<g>
				<g>
					<path class="st2" d="M87.7,68.3c-0.5,2.1-1.6,3.5-4.9,3l0,0c0,0,0.2,0.6,0.3,1.2c0.1,0.4,0.1,0.8-0.1,1.1
						c-0.3,0.8-2.2,3.8-5.2,3.5l0,0c0,0,0,0.4,0,0.9c-0.1,0.8-0.5,1.9-1.7,2.6c-2,1.1-3,1.2-3,1.2l0,0c0,0,0,0.4-0.1,0.9
						c-0.1,0.4-0.4,1-1,1.3c-1.3,0.7-3.3,1.2-4.6,0.8L65.1,84c0,0-0.4-0.2-1.2-0.5c-1.2-0.5-3.1-1.4-5.5-2.4
						C58.3,81,58.1,81,58,80.9c-5.3-2.2-12.2-5-15.9-6c-0.5-0.1-0.9-0.2-1.2-0.3c-1.3-0.2-4.5,0.4-8.6,1.4c-1.4,0.3-2.8,0.7-4.3,1.2
						c-11.5,3.2-26.3,8.3-26.3,8.3V58.4c0,0,9.6-0.5,16-2.2c3.1-0.8,7.6-1.7,11.8-2.5c1-0.2,2.1-0.4,3-0.6c3.2-0.7,5.9-1.3,7.1-1.8
						c2.9-1.3,9.6-6,14-8.3c4.5-2.4,7.2-2.5,10.7-3.1c3.5-0.6,5.9,2.5,8,3.3l-24.2,6.5l5.5,1.5l9.1,2.4c0,0,0.1,0,0.3,0.1l0,0
						c1.6,0.5,10.5,3.4,15.4,5.7C83.9,61.7,88.2,66.2,87.7,68.3z"/>
					<path class="st3" d="M63.1,53.4c0,0-3.9,1.2-5.8,1.9c-1.9,0.7-3.6,3-5,4.8c-1.5,1.8-5,3.5-7.5,3c-2.4-0.5-1.9-2.1-1.9-2.1
						s6.3-7.9,10.9-10.1l9.1,2.4C62.8,53.3,62.9,53.4,63.1,53.4L63.1,53.4L63.1,53.4z"/>
					<path class="st3" d="M65.1,82.2l-1.2,1.3c-1.2-0.5-3.1-1.4-5.5-2.4l0.1-0.1c-0.1,0-0.3,0-0.5-0.1c-5.3-2.2-12.2-5-15.9-6
						c0,0,1.8,0.1,2.3-0.6c0,0,1.8-3.3,5.4-3c3.6,0.3,3.6,2.3,3.6,2.3s1.4-2.7,5.1-2c2.8,0.5,3,4.2,3,4.2l-0.4,1c0.4,0,2,0,3.2,1.3
						C65.4,79.2,65.1,82.2,65.1,82.2z"/>
					<path class="st3" d="M83.1,72.5c-4.9-3.1-10.8-8.2-10.9-8.2c3.8,2.7,10.5,7,10.5,7l0,0C82.8,71.3,83,71.9,83.1,72.5z"/>
					<path class="st3" d="M77.8,77.1c0,0,0,0.4,0,0.9c-4.4-3-8.3-6.7-8.4-6.7C72.3,73.3,76.1,75.9,77.8,77.1L77.8,77.1z"/>
					<path class="st3" d="M73,82.7c-3.5-2.6-6.4-5.3-6.5-5.4c2.1,1.5,4.7,3.2,6.6,4.5C73.1,81.9,73.1,82.2,73,82.7z"/>
				</g>
				<g>
					<path class="st4" d="M21.5,79.3L1.8,86.4V57.6L19,55c0,0-1.5,10,0.8,19.2C20.2,75.9,20.8,77.7,21.5,79.3z"/>
					<path class="st5" d="M21.5,79.3L1.8,86.4V71c0.2,2.6,1.6,6.7,7.7,6c4.8-0.6,8.2-1.8,10.3-2.8C20.2,75.9,20.8,77.7,21.5,79.3z"
						/>
				</g>
			</g>
			<g>
				<g>
					<path class="st6" d="M67,84.7c0,0-0.8,1.5-2.2,2c-1,0.4-2.5,0.5-3.8,0.2l0,0c-0.5-0.1-0.9-0.3-1.3-0.5
						c-1.2-0.8-1.4-2.5-1.1-4.3c0.3-1.8,0.2-4.5,2.1-4.8c0.6-0.1,1.1,0,1.5,0.1c1,0.4,1.8,1.1,2.3,2.1c0.7,1.5,0.4,4.4,0.4,4.4
						l1.5,0.5L67,84.7z"/>
					<path class="st7" d="M66.6,84.5c-0.5,0.7-1.4,1-1.4,1c-0.5-0.2-0.1-1.6-0.1-1.6L66.6,84.5z"/>
					<path class="st7" d="M61.1,86.9c-0.5-0.1-0.9-0.3-1.3-0.5c-1.2-0.8-1.4-2.5-1.1-4.3c0.3-1.8,0.2-4.5,2.1-4.8
						c0.6-0.1,1.1,0,1.5,0.1c-0.3,0.9-1.2,3.9-2.4,5C58.6,83.8,59.3,86.4,61.1,86.9z"/>
				</g>
				<g>
					<path class="st6" d="M41.3,76.5c-0.4,2-1.6,3.8-3.4,3.5c-0.9-0.2-1.6-0.8-2.2-1.5c-1-1.3-1.6-2.8-1.6-2.8
						c4.9-2.3,7.3-0.9,7.3-0.9C41.4,75.3,41.4,75.9,41.3,76.5z"/>
					<path class="st7" d="M41.3,76.5c0,0-1.7-1.5-3.6-1.1c-1.8,0.4-2.1,3.1-2.1,3.1c-1-1.3-1.6-2.8-1.6-2.8c4.9-2.3,7.3-0.9,7.3-0.9
						C41.4,75.3,41.4,75.9,41.3,76.5z"/>
				</g>
				<g>
					<path class="st6" d="M53.1,77.3c-0.5,1.2-2.8,4.8-5.4,5.4c-2.6,0.6-5-1.8-5.5-3.1C41.9,79,41.9,77.9,42,77c0.1-1.1,0.2-2,0.2-2
						l2.1,0.5l0,0c0.2-0.2,3.1-4,6.2-3C53.5,73.5,53.6,76.1,53.1,77.3z"/>
					<path class="st7" d="M44.2,75.5c0,0-1.4,1.6-1.4,2.4c0,0-0.6-0.1-0.9-0.9c0.1-1.1,0.2-2,0.2-2L44.2,75.5z"/>
				</g>
				<g>
					<path class="st6" d="M53.3,75.7c0,0,1.5-3.3,4.2-3.2c2.7,0,3.9,2,4,3.2c0.1,1.3-2.4,6.8-3.2,7.8s-2.3,1.8-3.6,1.8
						c-1.7-0.1-4.1-1.4-3.9-3.4C51.1,80,53.3,75.7,53.3,75.7z"/>
				</g>
				<g>
					<path class="st6" d="M118.8,31.5v23l-25.3,6.1l0,0l0,0L86.4,65c0,0-6.2-5.7-12.1-7.5c0,0-2.2-0.7-5.5-1.9
						c-1.7-0.6-3.6-1.3-5.6-2.2c-0.1,0-0.2-0.1-0.3-0.1c0,0-2,0.2-4-0.4c0,0-2.5,1.8-4.3,2c0,0-3.3,6.7-8,7.2
						c-2.8,0.3-3.6-0.3-3.7-0.9c-0.1-0.4,0.1-0.7,0.1-0.7s2.7-5.1,3.2-7.5s0.1-6.1,5.7-7c5.6-1,10.6-2.6,15.5-3s10.9-0.1,14.3-1.6
						c2.7-1.2,24.3-6.8,33.2-9.1C117.3,31.9,118.8,31.5,118.8,31.5z"/>
					<path class="st7" d="M118.8,31.5v23l-25.3,6.1l0,0l0,0c0.3-1.6-0.6-3.1-1.3-4.4c0,0,2,0.9,4,1.4s14.1-1.1,17.9-7.2
						c3.3-5.3,1.8-13.9,0.9-17.9C117.3,31.9,118.8,31.5,118.8,31.5z"/>
					<path class="st7" d="M93.4,60.7l-7.1,4.4c0,0-6.2-5.7-12.1-7.5c0,0-2.2-0.7-5.5-1.9c-0.5-0.2-1.1-0.4-1.6-0.6
						c-0.1,0-0.2-0.1-0.3-0.1c-0.3-0.1-0.7-0.3-1.1-0.4c-0.1,0-0.2-0.1-0.4-0.1c-0.1,0-0.2-0.1-0.3-0.1h-0.1c-0.1,0-0.2-0.1-0.4-0.1
						c-0.5-0.2-1-0.4-1.5-0.6c-0.1,0-0.2-0.1-0.3-0.1c0,0-2,0.2-4-0.4c0,0-2.5,1.8-4.3,2c0,0-3.3,6.7-8,7.2
						c-2.8,0.3-3.6-0.3-3.7-0.9c0.4,0.1,3.4,1.1,5.9-0.7c2.6-1.9,4.8-5.9,4.8-5.9s-0.3-1.4-0.8-2.1c0,0,1.3,1.1,1.6,1.8
						c0,0,3.7-1.1,4.2-2c0,0,0.1-1.3-0.2-2.1c0,0,0.8,1,0.9,1.9c0,0,16.1,2.3,23-2.9c0,0-0.1,1.8-1.6,4c-1.5,2.3,5.6,4.3,8.1,6.6
						C91,62,93.1,60.9,93.4,60.7z"/>
				</g>
			</g>
		</g>
	</g>
	<g>
		<path class="st8" d="M60,104c-24.3,0-44-19.7-44-44c0-24.3,19.7-44,44-44s44,19.7,44,44C104,84.3,84.3,104,60,104z M60,19.4
			c-22.4,0-40.6,18.2-40.6,40.6c0,22.4,18.2,40.6,40.6,40.6c22.4,0,40.6-18.2,40.6-40.6C100.6,37.6,82.4,19.4,60,19.4z"/>
	</g>
</g>
</svg>
