<?xml version="1.0" encoding="utf-8"?>
<!-- Generator: Adobe Illustrator 23.1.1, SVG Export Plug-In . SVG Version: 6.00 Build 0)  -->
<svg version="1.1" id="Layer_1" xmlns="http://www.w3.org/2000/svg" xmlns:xlink="http://www.w3.org/1999/xlink" x="0px" y="0px"
	 width="120px" height="120px" viewBox="0 0 120 120" style="enable-background:new 0 0 120 120;" xml:space="preserve">
<style type="text/css">
	.st0{fill:#3C6DA4;}
	.st1{fill:none;stroke:#FFFFFF;stroke-miterlimit:10;}
	.st2{fill:#3C6DA4;stroke:#FFFFFF;stroke-miterlimit:10;}
	.st3{fill:#FFFFFF;}
</style>
<g>
	<g>
		<ellipse class="st0" cx="60.5" cy="60" rx="51.6" ry="51.6"/>
		<g>
			<path class="st1" d="M60.5,104c-24.3,0-44-19.7-44-44s19.7-44,44-44s44,19.7,44,44S84.8,104,60.5,104z"/>
		</g>
	</g>
	<g>
		<g>
			<g>
				<path class="st1" d="M37.8,36.9L37.8,36.9v50.9h33.3c2.1,0,3.8-1.7,3.8-3.8V36.9v-0.4c0-2.4,1.9-4.3,4.3-4.3H42.5
					C39.9,32.2,37.8,34.3,37.8,36.9z"/>
				<path class="st1" d="M91.2,71.8V44.7H83V72c0,2.1,1.7,3.9,3.9,3.9l0,0l0,0C89.2,75.9,91.1,74.1,91.2,71.8z"/>
				<path class="st1" d="M83,72v-1.6V44.7V36c0-2.1-1.7-3.9-3.9-3.9l0,0l0,0c-2.4,0-4.3,1.9-4.3,4.3v0.4v33.6v0.8v4.7h12.1
					C84.8,75.9,83,74.2,83,72z"/>
				<path class="st2" d="M66.6,84v-7.2H29.8V84c0,2.1,1.7,3.9,3.9,3.9l0,0l0,0h36.8C68.3,87.8,66.6,86.1,66.6,84z"/>
			</g>
			<g>
				<g>
					<path class="st3" d="M45.2,45.5h-3.9c-0.6,0-1-0.5-1-1v-3.9c0-0.6,0.5-1,1-1h3.9c0.6,0,1,0.5,1,1v3.9
						C46.2,45,45.7,45.5,45.2,45.5z M41.3,40.1c-0.2,0-0.4,0.2-0.4,0.4v3.9c0,0.2,0.2,0.4,0.4,0.4h3.9c0.2,0,0.4-0.2,0.4-0.4v-3.9
						c0-0.2-0.2-0.4-0.4-0.4H41.3z"/>
				</g>
				<g>
					<g>
						<polygon class="st3" points="43.3,44.6 41.2,41.5 42,40.9 43.1,42.6 45.4,37.4 46.3,37.8 						"/>
					</g>
				</g>
				<g>
					<path class="st3" d="M45.2,56h-3.9c-0.6,0-1-0.5-1-1v-3.9c0-0.6,0.5-1,1-1h3.9c0.6,0,1,0.5,1,1V55C46.2,55.5,45.7,56,45.2,56z
						 M41.3,50.6c-0.2,0-0.4,0.2-0.4,0.4v3.9c0,0.2,0.2,0.4,0.4,0.4h3.9c0.2,0,0.4-0.2,0.4-0.4V51c0-0.2-0.2-0.4-0.4-0.4H41.3z"/>
				</g>
				<g>
					<g>
						<polygon class="st3" points="43.3,55.1 41.2,51.9 42,51.4 43.1,53.1 45.4,47.9 46.3,48.3 						"/>
					</g>
				</g>
				<g>
					<path class="st3" d="M45.2,66.4h-3.9c-0.6,0-1-0.5-1-1v-3.9c0-0.6,0.5-1,1-1h3.9c0.6,0,1,0.5,1,1v3.9
						C46.2,66,45.7,66.4,45.2,66.4z M41.3,61.1c-0.2,0-0.4,0.2-0.4,0.4v3.9c0,0.2,0.2,0.4,0.4,0.4h3.9c0.2,0,0.4-0.2,0.4-0.4v-3.9
						c0-0.2-0.2-0.4-0.4-0.4H41.3z"/>
				</g>
				<g>
					<g>
						<polygon class="st3" points="43.3,65.5 41.2,62.4 42,61.9 43.1,63.6 45.4,58.4 46.3,58.8 						"/>
					</g>
				</g>
				<g>
					<rect x="49.1" y="64" class="st3" width="22.6" height="1.6"/>
					<rect x="49.1" y="61.3" class="st3" width="12.3" height="1.6"/>
				</g>
				<g>
					<rect x="49.1" y="53.5" class="st3" width="22.6" height="1.6"/>
					<rect x="49.1" y="50.9" class="st3" width="12.3" height="1.6"/>
				</g>
				<g>
					<rect x="49.1" y="43" class="st3" width="22.6" height="1.6"/>
					<rect x="49.1" y="40.4" class="st3" width="12.3" height="1.6"/>
				</g>
			</g>
		</g>
	</g>
</g>
</svg>
