<?xml version="1.0" encoding="UTF-8" standalone="no"?>
<!DOCTYPE svg PUBLIC "-//W3C//DTD SVG 1.1//EN" "http://www.w3.org/Graphics/SVG/1.1/DTD/svg11.dtd">
<svg width="100%" height="100%" viewBox="0 0 140 140" version="1.1" xmlns="http://www.w3.org/2000/svg" xmlns:xlink="http://www.w3.org/1999/xlink" xml:space="preserve" xmlns:serif="http://www.serif.com/" style="fill-rule:evenodd;clip-rule:evenodd;stroke-linejoin:round;stroke-miterlimit:2;">
    <g>
        <path d="M26.927,-1.089C27.553,-1.03 27.553,-1.03 28.172,-0.923L112.683,17.14C112.683,17.14 115.086,14.038 117.762,12.614C118.438,11.938 118.689,11.755 119.197,11.378C125.48,6.714 135.977,9.241 139.128,16.945C140.453,20.187 140.523,23.527 139.034,27.08L139.171,27.869C139.466,29.954 139.398,29.406 139.118,30.995L137.987,36.214L136.566,42.85L136.452,43.296C130.095,72.661 123.614,101.877 117.554,131.472C117.304,132.695 117.037,133.914 116.83,135.144C116.919,134.578 116.762,135.578 116.762,135.578C116.304,137.579 115.936,138.077 115.232,138.989C112.737,142.221 107.717,143.074 104.187,140.557C97.145,138.207 89.844,136.992 82.599,135.485C57.33,130.23 31.761,125.985 6.663,120.621C4.921,120.249 2.555,119.71 2.555,119.71C-0.614,118.957 0.017,118.75 -0.299,118.542C-0.646,118.314 -0.975,118.059 -1.282,117.779C-2.02,117.108 -2.838,115.843 -2.838,115.843C-4.453,112.773 -3.835,113.637 -3.899,112.287C-3.96,110.965 -3.644,110.135 -3.035,107.478C-0.043,94.262 2.625,80.953 5.37,67.657L18.676,5.232C19.616,1.539 22.976,-1.145 26.927,-1.089ZM100.889,134.342L101.047,135.606C101.047,135.606 100.935,132.855 100.889,134.342Z" style="fill:white;fill-opacity:0.5;fill-rule:nonzero;"/>
        <g>
            <path d="M108.9,134.1C109.2,131 4,112.8 4.1,111.7C3.8,114.9 13.2,69.3 13.2,69.3L26.5,6.9L131.3,29.3C131.3,29.3 109.1,131.6 108.9,134.1Z" style="fill:rgb(150,106,173);fill-rule:nonzero;"/>
            <g transform="matrix(0.2093,-0.9779,0.9779,0.2093,37.8727,94.9514)">
                <rect x="71.6" y="-29.5" width="12.1" height="107.1" style="fill:white;fill-opacity:0.2;"/>
            </g>
            <path d="M56.4,50.8C57.3,49.8 58,50.1 58.4,51.2C58.6,51.7 58.6,52.4 58.5,53.2C58.3,54.5 57.4,56.4 55.7,58.4C51.9,63 45,71.3 40.5,78C40,78.8 39.5,78.9 38.9,77.9C38.5,77.3 38.3,76.4 38.5,75.2C38.6,74.5 39,73.4 39.6,72.4C43.2,66.3 51.8,55.5 56.4,50.8Z" style="fill-rule:nonzero;"/>
            <path d="M47.4,72.1C47.8,72.1 48.3,72.1 48.9,72.2C50.3,72.4 51.5,73.1 52.4,74C54,75.8 56.7,78.8 59.4,79.2C60.4,79.4 61.4,79.3 62,78.9C62.8,78.3 62.7,77.4 62.3,76.9C59.4,73.7 53.3,69.9 54.1,65.1C55.2,58.7 63.6,54.4 68.2,53.3C69.9,52.9 70.9,52.9 72,53.1C73.1,53.3 74,53.8 74.7,54.6C75.8,56.1 76.4,57.8 76.5,59.1C76.6,61.1 75.1,62.8 74.2,63.7C72.8,65 71,67.2 70.1,68.2C69.5,68.9 69,69.2 68.2,68.1C67.7,67.3 67.3,66.4 67.5,65.3C67.7,64.3 68.6,62.6 70.5,60.8C72,59.3 73.6,57.4 73.1,56.8C71.6,55.2 60,60.3 58.8,65.7C58.1,68.8 64.1,72.6 65.7,74.3C66.5,75.1 66.8,76.1 66.7,77C66.5,78.1 65.7,79.2 64.2,80.5C62.7,81.7 60.2,82.3 57.4,81.8C54,81.2 49.7,78.4 46.7,73.5C46.3,72.7 46.7,72.2 47.4,72.1Z" style="fill-rule:nonzero;"/>
            <path d="M95.6,58.5C98.4,60.4 99.1,63.5 98.6,66.9C98,70.4 96,74.2 93.7,77.2C89.5,82.5 83.8,86.5 78.4,85.5C77.3,85.3 76.3,84.9 75.3,84.4C71.5,82.2 70.6,78.4 71.3,74.4C73.1,64.4 83.5,57.3 89.2,56.3C90.2,56.1 91.1,56.2 92.1,56.3C93.8,56.7 95,57.5 95.6,58.5ZM89.6,74.8C92.6,71 94.3,67.2 94.8,64.3C95.2,62 95,60.4 94.1,59.9C92.2,58.8 86,60.9 80.6,66.7C77.5,70 75.8,73.9 75.2,76.9C74.6,80.2 75.5,82.3 77.3,82.6C80.1,83.2 85.2,80.4 89.6,74.8Z" style="fill-rule:nonzero;"/>
            <path d="M120.5,28.3L117.6,35.1L122.1,30.2L120.5,28.3Z" style="fill:rgb(102,102,102);fill-rule:nonzero;"/>
            <circle cx="124.6" cy="25.4" r="6.5" style="fill:rgb(138,198,64);"/>
            <circle cx="127" cy="21.9" r="5.1" style="fill:rgb(166,207,50);"/>
        </g>
    </g>
</svg>
