<?xml version="1.0" encoding="utf-8"?>
<!-- Generator: Adobe Illustrator 23.1.1, SVG Export Plug-In . SVG Version: 6.00 Build 0)  -->
<svg version="1.1" id="Layer_1" xmlns="http://www.w3.org/2000/svg" xmlns:xlink="http://www.w3.org/1999/xlink" x="0px" y="0px"
	 width="140px" height="140px" viewBox="0 0 140 140" style="enable-background:new 0 0 140 140;" xml:space="preserve">
<style type="text/css">
	.st0{fill:#FFC929;}
	.st1{opacity:0.2;fill:#FFFFFF;enable-background:new    ;}
	.st2{fill:#F3AF15;}
	.st3{fill:#666666;}
	.st4{fill:#EF5A53;}
	.st5{fill:#FA8D81;}
</style>
<title>Artboard 23 copy 4</title>
<g>
	<g>
		<polygon class="st0" points="129.3,109 110.1,125.4 25,136.9 10.7,30.7 116.9,16.4 		"/>
		<rect x="11" y="23.5" transform="matrix(0.991 -0.1335 0.1335 0.991 -3.3677 8.881)" class="st1" width="107.1" height="12.1"/>
	</g>
	<path class="st2" d="M122.2,116.6c5.7-5.8,7.1-7.6,7.1-7.6s-4.1,2.2-11.3-0.3c0,0-1.4,12.2-7.9,16.8
		C110.1,125.4,116.6,122.4,122.2,116.6z"/>
</g>
<g>
	<path d="M66.2,92.3c-3.9-3-6.9-5.4-9.3-7c-0.6,2.6-1.1,5.5-1.5,9.3c-0.1,1-0.6,1.2-1.5,0.7c-0.7-0.4-1.2-1.1-1.5-2.2
		c-0.2-0.6-0.3-1.5-0.3-2.4c0.1-4.3,1.9-13.9,4.3-21.3c-1.6,0.1-2.4-0.3-3.2-1.2c-0.5-0.6-0.4-1,0.5-1.4c1.8-0.8,3.4-1.7,4.9-2.7
		c1.6-1,3.1-1.9,4.8-2.5c2.4-0.7,5-0.3,6.9,2.3c2.1,2.8,1.8,5.7,0.7,8.5c-1.5,3.8-5.5,7.9-10.2,10.6c2.2,1.5,4.4,3.4,5.7,4.8
		c0.6,0.7,1.1,1.5,1.3,2.2c0.1,0.6,0.1,1.2,0,1.7C67.4,92.7,66.9,92.9,66.2,92.3z M60.2,68.1c0.3,1.3,0.2,3.1-0.4,5.6
		c-0.6,2.6-1.3,4.9-1.7,6.6c8.6-4.8,11.6-12.2,9.5-14.9c-0.5-0.7-1-0.8-1.7-0.6c-1.1,0.3-2.7,1.4-4,2.3L60.2,68.1z"/>
	<path d="M70,83.7c0.3-0.2,0.8-0.4,1.4-0.5c1.3-0.4,2.7-0.3,3.9,0.2c2.2,1,5.9,2.5,8.6,1.8c1-0.3,1.9-0.7,2.3-1.4
		c0.5-0.9,0.1-1.7-0.6-1.9c-4-1.7-11.1-2.5-12.4-7.2C71.5,68.3,77.3,60.9,81,58c1.4-1.1,2.3-1.5,3.4-1.7c1.1-0.3,2.1-0.2,3.1,0.2
		c1.6,0.9,2.9,2.2,3.5,3.3c1,1.8,0.3,3.9-0.1,5.1c-0.7,1.8-1.4,4.5-1.8,5.8c-0.2,0.9-0.6,1.4-1.8,0.7c-0.8-0.5-1.5-1.1-1.8-2.2
		c-0.3-1-0.1-2.9,0.9-5.4c0.7-2,1.4-4.4,0.6-4.7c-2-0.8-10.4,8.7-9.2,14.1c0.7,3.1,7.7,4.1,9.9,4.9c1.1,0.4,1.8,1.1,2,2
		c0.3,1.1,0,2.4-0.8,4.2c-0.8,1.7-2.8,3.3-5.6,4c-3.4,0.9-8.4,0.2-13.2-3.1C69.2,84.7,69.4,84.1,70,83.7z"/>
</g>
<g>
	<polygon class="st3" points="108.5,20.3 105.7,27.2 110.2,22.3 	"/>
	<circle class="st4" cx="112.7" cy="17.4" r="6.5"/>
	<circle class="st5" cx="115.1" cy="14" r="5.1"/>
</g>
</svg>
