<?xml version="1.0" encoding="UTF-8" standalone="no"?>
<!DOCTYPE svg PUBLIC "-//W3C//DTD SVG 1.1//EN" "http://www.w3.org/Graphics/SVG/1.1/DTD/svg11.dtd">
<svg width="100%" height="100%" viewBox="0 0 140 140" version="1.1" xmlns="http://www.w3.org/2000/svg" xmlns:xlink="http://www.w3.org/1999/xlink" xml:space="preserve" xmlns:serif="http://www.serif.com/" style="fill-rule:evenodd;clip-rule:evenodd;stroke-linejoin:round;stroke-miterlimit:2;">
    <g>
        <path d="M115.267,0.901C123.848,1.064 130.735,11.016 127.073,19.316C126.836,21.102 125.907,23.387 125.907,23.387L137.229,107.938C137.78,113.836 131.484,118.742 126.906,123.209C123.153,126.84 118.835,129.843 114.284,132.316C114.284,132.316 112.045,133.432 110.063,133.5C110.063,133.5 26.071,144.828 26.071,144.828C26.071,144.828 21.993,144.944 19.666,142.862C18.261,141.606 17.4,139.843 17.072,137.968C17.072,137.968 4.466,44.379 4.466,44.379L4.358,43.76L2.742,31.769C2.742,31.769 2.627,27.692 4.709,25.366C5.966,23.962 7.727,23.101 9.602,22.773L99.888,10.61C100.376,9.675 100.412,9.691 100.651,9.334C102.016,7.296 103.902,5.628 106.085,4.496C108.529,2.161 111.892,0.879 115.267,0.901ZM114.769,131.998C114.769,131.998 114.769,131.998 114.769,131.998C114.721,132.029 114.589,132.115 114.319,132.293C114.844,131.992 114.427,132.224 114.427,132.224C114.427,132.224 114.896,131.915 114.769,131.998L114.768,131.998L114.769,131.998L114.769,131.998Z" style="fill:white;fill-opacity:0.5;fill-rule:nonzero;"/>
        <g>
            <g>
                <path d="M129.3,109L110.1,125.4L25,136.9L10.7,30.7L116.9,16.4L129.3,109Z" style="fill:rgb(255,201,41);fill-rule:nonzero;"/>
                <g transform="matrix(0.991,-0.1335,0.1335,0.991,-3.3677,8.881)">
                    <rect x="11" y="23.5" width="107.1" height="12.1" style="fill:white;fill-opacity:0.2;"/>
                </g>
            </g>
            <path d="M122.2,116.6C127.9,110.8 129.3,109 129.3,109C129.3,109 125.2,111.2 118,108.7C118,108.7 116.6,120.9 110.1,125.5C110.1,125.4 116.6,122.4 122.2,116.6Z" style="fill:rgb(243,175,21);fill-rule:nonzero;"/>
            <path d="M66.2,92.3C62.3,89.3 59.3,86.9 56.9,85.3C56.3,87.9 55.8,90.8 55.4,94.6C55.3,95.6 54.8,95.8 53.9,95.3C53.2,94.9 52.7,94.2 52.4,93.1C52.2,92.5 52.1,91.6 52.1,90.7C52.2,86.4 54,76.8 56.4,69.4C54.8,69.5 54,69.1 53.2,68.2C52.7,67.6 52.8,67.2 53.7,66.8C55.5,66 57.1,65.1 58.6,64.1C60.2,63.1 61.7,62.2 63.4,61.6C65.8,60.9 68.4,61.3 70.3,63.9C72.4,66.7 72.1,69.6 71,72.4C69.5,76.2 65.5,80.3 60.8,83C63,84.5 65.2,86.4 66.5,87.8C67.1,88.5 67.6,89.3 67.8,90C67.9,90.6 67.9,91.2 67.8,91.7C67.4,92.7 66.9,92.9 66.2,92.3ZM60.2,68.1C60.5,69.4 60.4,71.2 59.8,73.7C59.2,76.3 58.5,78.6 58.1,80.3C66.7,75.5 69.7,68.1 67.6,65.4C67.1,64.7 66.6,64.6 65.9,64.8C64.8,65.1 63.2,66.2 61.9,67.1L60.2,68.1Z" style="fill-rule:nonzero;"/>
            <path d="M70,83.7C70.3,83.5 70.8,83.3 71.4,83.2C72.7,82.8 74.1,82.9 75.3,83.4C77.5,84.4 81.2,85.9 83.9,85.2C84.9,84.9 85.8,84.5 86.2,83.8C86.7,82.9 86.3,82.1 85.6,81.9C81.6,80.2 74.5,79.4 73.2,74.7C71.5,68.3 77.3,60.9 81,58C82.4,56.9 83.3,56.5 84.4,56.3C85.5,56 86.5,56.1 87.5,56.5C89.1,57.4 90.4,58.7 91,59.8C92,61.6 91.3,63.7 90.9,64.9C90.2,66.7 89.5,69.4 89.1,70.7C88.9,71.6 88.5,72.1 87.3,71.4C86.5,70.9 85.8,70.3 85.5,69.2C85.2,68.2 85.4,66.3 86.4,63.8C87.1,61.8 87.8,59.4 87,59.1C85,58.3 76.6,67.8 77.8,73.2C78.5,76.3 85.5,77.3 87.7,78.1C88.8,78.5 89.5,79.2 89.7,80.1C90,81.2 89.7,82.5 88.9,84.3C88.1,86 86.1,87.6 83.3,88.3C79.9,89.2 74.9,88.5 70.1,85.2C69.2,84.7 69.4,84.1 70,83.7Z" style="fill-rule:nonzero;"/>
            <path d="M108.5,20.3L105.7,27.2L110.2,22.3L108.5,20.3Z" style="fill:rgb(102,102,102);fill-rule:nonzero;"/>
            <circle cx="112.7" cy="17.4" r="6.5" style="fill:rgb(239,90,83);"/>
            <circle cx="115.1" cy="14" r="5.1" style="fill:rgb(250,141,129);"/>
        </g>
    </g>
</svg>
