<?xml version="1.0" encoding="utf-8"?>
<!-- Generator: Adobe Illustrator 23.1.1, SVG Export Plug-In . SVG Version: 6.00 Build 0)  -->
<svg version="1.1" id="Layer_1" xmlns="http://www.w3.org/2000/svg" xmlns:xlink="http://www.w3.org/1999/xlink" x="0px" y="0px"
	 width="140px" height="140px" viewBox="0 0 140 140" style="enable-background:new 0 0 140 140;" xml:space="preserve">
<style type="text/css">
	.st0{fill:#966AAD;}
	.st1{opacity:0.2;fill:#FFFFFF;enable-background:new    ;}
	.st2{fill:#666666;}
	.st3{fill:#8AC640;}
	.st4{fill:#A6CF32;}
</style>
<title>Artboard 23 copy 4</title>
<g>
	<g>
		<path class="st0" d="M108.9,134.1C109.2,131,4,112.8,4.1,111.7c-0.3,3.2,9.1-42.4,9.1-42.4L26.5,6.9l104.8,22.4
			C131.3,29.3,109.1,131.6,108.9,134.1z"/>
		
			<rect x="71.6" y="-29.5" transform="matrix(0.2093 -0.9779 0.9779 0.2093 37.8727 94.9514)" class="st1" width="12.1" height="107.1"/>
	</g>
</g>
<g>
	<path d="M56.4,50.8c0.9-1,1.6-0.7,2,0.4c0.2,0.5,0.2,1.2,0.1,2c-0.2,1.3-1.1,3.2-2.8,5.2C51.9,63,45,71.3,40.5,78
		c-0.5,0.8-1,0.9-1.6-0.1c-0.4-0.6-0.6-1.5-0.4-2.7c0.1-0.7,0.5-1.8,1.1-2.8C43.2,66.3,51.8,55.5,56.4,50.8z"/>
	<path d="M47.4,72.1c0.4,0,0.9,0,1.5,0.1c1.4,0.2,2.6,0.9,3.5,1.8c1.6,1.8,4.3,4.8,7,5.2c1,0.2,2,0.1,2.6-0.3c0.8-0.6,0.7-1.5,0.3-2
		c-2.9-3.2-9-7-8.2-11.8c1.1-6.4,9.5-10.7,14.1-11.8c1.7-0.4,2.7-0.4,3.8-0.2c1.1,0.2,2,0.7,2.7,1.5c1.1,1.5,1.7,3.2,1.8,4.5
		c0.1,2-1.4,3.7-2.3,4.6c-1.4,1.3-3.2,3.5-4.1,4.5c-0.6,0.7-1.1,1-1.9-0.1c-0.5-0.8-0.9-1.7-0.7-2.8c0.2-1,1.1-2.7,3-4.5
		c1.5-1.5,3.1-3.4,2.6-4c-1.5-1.6-13.1,3.5-14.3,8.9c-0.7,3.1,5.3,6.9,6.9,8.6c0.8,0.8,1.1,1.8,1,2.7c-0.2,1.1-1,2.2-2.5,3.5
		c-1.5,1.2-4,1.8-6.8,1.3c-3.4-0.6-7.7-3.4-10.7-8.3C46.3,72.7,46.7,72.2,47.4,72.1z"/>
	<path d="M95.6,58.5c2.8,1.9,3.5,5,3,8.4c-0.6,3.5-2.6,7.3-4.9,10.3c-4.2,5.3-9.9,9.3-15.3,8.3c-1.1-0.2-2.1-0.6-3.1-1.1
		c-3.8-2.2-4.7-6-4-10c1.8-10,12.2-17.1,17.9-18.1c1-0.2,1.9-0.1,2.9,0C93.8,56.7,95,57.5,95.6,58.5z M89.6,74.8
		c3-3.8,4.7-7.6,5.2-10.5c0.4-2.3,0.2-3.9-0.7-4.4c-1.9-1.1-8.1,1-13.5,6.8c-3.1,3.3-4.8,7.2-5.4,10.2c-0.6,3.3,0.3,5.4,2.1,5.7
		C80.1,83.2,85.2,80.4,89.6,74.8z"/>
</g>
<g>
	<polygon class="st2" points="120.5,28.3 117.6,35.1 122.1,30.2 	"/>
	<circle class="st3" cx="124.6" cy="25.4" r="6.5"/>
	<circle class="st4" cx="127" cy="21.9" r="5.1"/>
</g>
</svg>
