<?xml version="1.0" encoding="UTF-8" standalone="no"?>
<!DOCTYPE svg PUBLIC "-//W3C//DTD SVG 1.1//EN" "http://www.w3.org/Graphics/SVG/1.1/DTD/svg11.dtd">
<svg width="100%" height="100%" viewBox="0 0 140 140" version="1.1" xmlns="http://www.w3.org/2000/svg" xmlns:xlink="http://www.w3.org/1999/xlink" xml:space="preserve" xmlns:serif="http://www.serif.com/" style="fill-rule:evenodd;clip-rule:evenodd;stroke-linejoin:round;stroke-miterlimit:2;">
    <path d="M42.757,137.026C42.627,137.011 42.501,136.994 42.379,136.974C33.833,135.54 25.831,131.729 18.774,126.388C17.573,125.479 15.984,124.012 15.851,123.858C13.898,121.908 14.4,121.661 14.4,121.661L14.03,120.673C13.868,120.036 14.323,121.56 13.333,118.159C13.14,117.504 12.109,113.695 11.542,110.584C8.367,93.19 6.796,75.559 4.985,57.971C3.967,48.081 3.005,38.185 2.093,28.285L1.875,26.222C1.84,24.384 2,24.072 2.262,23.272C3.194,20.438 5.836,18.346 8.815,17.838L11.415,17.495C11.949,16.722 11.974,16.739 12.22,16.448C15.762,12.255 20.351,9.196 26.034,9.304C29.865,9.426 33.534,11.245 35.956,14.252L114.994,3.808C117.263,3.594 117.798,3.751 119.125,4.358C119.125,4.358 123.501,7.045 124.131,10.754L138.131,116.954C138.493,120.803 136.101,124.626 132.413,125.688C131.902,125.835 131.767,125.843 131.243,125.932L47.239,136.975C47.239,136.975 44.691,137.244 42.784,137.029L42.04,136.749C42.04,136.749 44.414,137.67 41.85,136.659C41.913,136.689 41.976,136.719 42.04,136.749C42.04,136.749 42.461,136.913 42.757,137.026L42.784,137.029L42.757,137.026ZM42.322,136.833C42.641,136.945 43.383,137.206 42.5,136.896C42.5,136.896 41.877,136.684 42.322,136.833Z" style="fill:white;fill-opacity:0.5;fill-rule:nonzero;"/>
    <g>
        <g>
            <g>
                <path d="M21.7,118.4C25.4,120.6 29.6,121.9 33.6,123.8C34.6,124.3 35.5,124.7 36.4,125.1C41,127.3 45,129.2 45,129.2L130.2,118L116.2,11.8L9.9,25.8C9.9,25.8 16.9,103.6 20.8,115.2C21.4,117.2 21.7,118.4 21.7,118.4Z" style="fill:rgb(246,121,110);fill-rule:nonzero;"/>
                <g transform="matrix(0.9914,-0.131,0.131,0.9914,-2.6993,8.5663)">
                    <rect x="10.2" y="18.7" width="107.1" height="12.1" style="fill:rgb(255,214,255);fill-opacity:0.2;"/>
                </g>
            </g>
            <path d="M30.5,124.5C23.5,120.4 21.7,118.4 21.7,118.4C21.7,118.4 24.8,120.7 34.1,118.5C34.1,118.5 37.6,126.5 45,129.3C45,129.2 37.4,128.6 30.5,124.5Z" style="fill:rgb(239,90,83);fill-rule:nonzero;"/>
        </g>
        <g>
            <path d="M42.1,86.8C42.9,82.6 46.2,73.5 49.6,66.6C48,66.4 47.1,65.7 46.6,64.8C46.2,64.1 46.3,63.7 47.4,63.5C49.2,63.2 50.9,62.3 52.6,61.5C54.3,60.7 55.9,60.1 57.7,59.8C60.3,59.4 62.7,59.8 64.2,63.2C65.7,66.4 65,68.9 63.6,71.6C61.6,75.6 57,80 51.1,81.5C49.7,81.8 48.7,81.9 47.9,81.7C46.9,84.3 45.7,87.5 44.5,91.4C44.2,92.3 43.8,92.3 43.1,91.7C42.5,91.2 42.1,90.5 41.9,89.3C42,88.5 42,87.7 42.1,86.8ZM49.5,77.8C58.8,74.6 62.6,67.2 61.4,64.1C61.1,63.5 60.4,63.2 59.8,63.3C58.7,63.4 57,64.2 55.4,65C54.7,65.4 54.3,65.6 53.7,65.8C53.8,67 53.3,69 52.4,71.1C52.1,71.9 51.7,72.8 49.5,77.8Z" style="fill-rule:nonzero;"/>
            <path d="M69.6,83.2C69.7,81 70.5,75.5 71.6,70.1C68.5,76.2 65,83.5 63,89.7C62.8,90.4 62.1,90.6 61.4,90.1C60.8,89.6 60.4,88.9 60.3,87.8C60.2,86.9 60.3,85.8 60.6,84.7C62,79.7 68.2,66.4 72.5,59.2C73,58.4 73.7,58 74.7,58.6C76.1,59.6 76.9,60.7 77.1,62.3C77.2,63.2 77.1,64.4 76.8,65.8C75.8,70.3 75.1,73.3 74.1,79.8C78.3,71.7 82.9,66.5 87.3,57.5C87.8,56.4 88.4,56.3 89.4,57.1C90.5,58 91,59.1 91.1,60.2C91.2,61.5 90.9,62.9 90.4,64.2C87.8,70.7 84.1,80.7 82.4,87.6C82.2,88.6 81.7,88.6 80.9,88C80.3,87.5 79.7,86.8 79.5,85.4C79.4,84.6 79.4,83.7 79.6,82.6C79.9,80.3 81.7,75 83.6,70C80,76 76.1,83 73.8,88.4C73.4,89.4 72.9,89.5 72.2,89C70.8,88.1 69.9,86.9 69.6,84.9L69.6,83.2Z" style="fill-rule:nonzero;"/>
            <path d="M97.9,56C98.5,54.8 99.3,54.9 99.9,55.8C100.2,56.3 100.5,56.9 100.5,57.7C100.6,59 100.3,61.1 99.3,63.4C96.9,68.9 92.6,78.7 90.1,86.4C89.8,87.3 89.4,87.5 88.5,86.8C88,86.4 87.5,85.6 87.4,84.4C87.3,83.7 87.4,82.6 87.7,81.4C89.5,74.6 94.7,61.8 97.9,56Z" style="fill-rule:nonzero;"/>
        </g>
        <g>
            <path d="M19.2,28.7L16.3,35.6L20.8,30.7L19.2,28.7Z" style="fill:rgb(102,102,102);fill-rule:nonzero;"/>
            <circle cx="23.3" cy="25.8" r="6.5" style="fill:rgb(251,172,49);"/>
            <circle cx="25.7" cy="22.4" r="5.1" style="fill:rgb(254,191,51);"/>
        </g>
    </g>
</svg>
