<?xml version="1.0" encoding="utf-8"?>
<!-- Generator: Adobe Illustrator 23.1.1, SVG Export Plug-In . SVG Version: 6.00 Build 0)  -->
<svg version="1.1" id="Layer_1" xmlns="http://www.w3.org/2000/svg" xmlns:xlink="http://www.w3.org/1999/xlink" x="0px" y="0px"
	 width="140px" height="140px" viewBox="0 0 140 140" style="enable-background:new 0 0 140 140;" xml:space="preserve">
<style type="text/css">
	.st0{fill:#F6796E;}
	.st1{opacity:0.2;fill:#FFD6FF;}
	.st2{fill:#EF5A53;}
	.st3{fill:#666666;}
	.st4{fill:#FBAC31;}
	.st5{fill:#FEBF33;}
</style>
<title>Artboard 23 copy 4</title>
<g>
	<g>
		<g>
			<g>
				<path class="st0" d="M21.7,118.4c3.7,2.2,7.9,3.5,11.9,5.4c1,0.5,1.9,0.9,2.8,1.3c4.6,2.2,8.6,4.1,8.6,4.1l85.2-11.2l-14-106.2
					L9.9,25.8c0,0,7,77.8,10.9,89.4C21.4,117.2,21.7,118.4,21.7,118.4z"/>
				
					<rect x="10.2" y="18.7" transform="matrix(0.9914 -0.131 0.131 0.9914 -2.6993 8.5663)" class="st1" width="107.1" height="12.1"/>
			</g>
			<path class="st2" d="M30.5,124.5c-7-4.1-8.8-6.1-8.8-6.1s3.1,2.3,12.4,0.1c0,0,3.5,8,10.9,10.8C45,129.2,37.4,128.6,30.5,124.5z"
				/>
		</g>
	</g>
	<g>
		<path d="M42.1,86.8c0.8-4.2,4.1-13.3,7.5-20.2c-1.6-0.2-2.5-0.9-3-1.8c-0.4-0.7-0.3-1.1,0.8-1.3c1.8-0.3,3.5-1.2,5.2-2
			c1.7-0.8,3.3-1.4,5.1-1.7c2.6-0.4,5,0,6.5,3.4c1.5,3.2,0.8,5.7-0.6,8.4c-2,4-6.6,8.4-12.5,9.9c-1.4,0.3-2.4,0.4-3.2,0.2
			c-1,2.6-2.2,5.8-3.4,9.7c-0.3,0.9-0.7,0.9-1.4,0.3c-0.6-0.5-1-1.2-1.2-2.4C42,88.5,42,87.7,42.1,86.8z M49.5,77.8
			c9.3-3.2,13.1-10.6,11.9-13.7c-0.3-0.6-1-0.9-1.6-0.8c-1.1,0.1-2.8,0.9-4.4,1.7c-0.7,0.4-1.1,0.6-1.7,0.8c0.1,1.2-0.4,3.2-1.3,5.3
			C52.1,71.9,51.7,72.8,49.5,77.8z"/>
		<path d="M69.6,83.2c0.1-2.2,0.9-7.7,2-13.1c-3.1,6.1-6.6,13.4-8.6,19.6c-0.2,0.7-0.9,0.9-1.6,0.4c-0.6-0.5-1-1.2-1.1-2.3
			c-0.1-0.9,0-2,0.3-3.1c1.4-5,7.6-18.3,11.9-25.5c0.5-0.8,1.2-1.2,2.2-0.6c1.4,1,2.2,2.1,2.4,3.7c0.1,0.9,0,2.1-0.3,3.5
			c-1,4.5-1.7,7.5-2.7,14c4.2-8.1,8.8-13.3,13.2-22.3c0.5-1.1,1.1-1.2,2.1-0.4c1.1,0.9,1.6,2,1.7,3.1c0.1,1.3-0.2,2.7-0.7,4
			c-2.6,6.5-6.3,16.5-8,23.4c-0.2,1-0.7,1-1.5,0.4c-0.6-0.5-1.2-1.2-1.4-2.6c-0.1-0.8-0.1-1.7,0.1-2.8l0,0c0.3-2.3,2.1-7.6,4-12.6
			C80,76,76.1,83,73.8,88.4c-0.4,1-0.9,1.1-1.6,0.6c-1.4-0.9-2.3-2.1-2.6-4.1C69.6,84.4,69.6,83.8,69.6,83.2z"/>
		<path d="M97.9,56c0.6-1.2,1.4-1.1,2-0.2c0.3,0.5,0.6,1.1,0.6,1.9c0.1,1.3-0.2,3.4-1.2,5.7c-2.4,5.5-6.7,15.3-9.2,23
			c-0.3,0.9-0.7,1.1-1.6,0.4c-0.5-0.4-1-1.2-1.1-2.4c-0.1-0.7,0-1.8,0.3-3C89.5,74.6,94.7,61.8,97.9,56z"/>
	</g>
	<g>
		<polygon class="st3" points="19.2,28.7 16.3,35.6 20.8,30.7 		"/>
		<circle class="st4" cx="23.3" cy="25.8" r="6.5"/>
		<circle class="st5" cx="25.7" cy="22.4" r="5.1"/>
	</g>
</g>
</svg>
