<?xml version="1.0" encoding="utf-8"?>
<!-- Generator: Adobe Illustrator 23.1.1, SVG Export Plug-In . SVG Version: 6.00 Build 0)  -->
<svg version="1.1" id="Layer_1" xmlns="http://www.w3.org/2000/svg" xmlns:xlink="http://www.w3.org/1999/xlink" x="0px" y="0px"
	 width="564.1px" height="613.6px" viewBox="0 0 564.1 613.6" style="enable-background:new 0 0 564.1 613.6;" xml:space="preserve"
	>
<style type="text/css">
	.st0{fill:#D04635;}
	.st1{fill:#E08C3D;}
	.st2{fill:#53A1CE;}
	.st3{fill:#3C6DA4;}
	.st4{fill:#992369;}
	.st5{fill:#FFFFFF;}
	.st6{fill:#FFFFFF;stroke:#FFFFFF;stroke-width:1.2035;stroke-linecap:round;stroke-linejoin:round;stroke-miterlimit:10;}
	.st7{fill-rule:evenodd;clip-rule:evenodd;fill:#FFFFFF;}
	.st8{fill:#FFFFFF;stroke:#FFFFFF;stroke-width:1.2035;stroke-miterlimit:10;}
	.st9{opacity:0.6;fill:#231F20;}
	.st10{fill:#47A29E;}
	.st11{fill:#FFFFFF;stroke:#FFFFFF;stroke-width:1.4374;stroke-linecap:round;stroke-linejoin:round;stroke-miterlimit:10;}
	.st12{fill:#ACBA40;stroke:#FFFFFF;stroke-width:5.4833;stroke-miterlimit:10;}
</style>
<title>Artboard 23</title>
<g>
	<path class="st0" d="M41.3,461.8c0,0-34.9-57.1-34.9-131.2c0-77,21.7-112.5,21.7-112.5l24.7-22.2l-3.1,32.4
		c0,0-19.7,43.9-19.2,99.9c0.6,67.4,31.3,120.4,31.3,120.4l-22.3-18L41.3,461.8z"/>
	<path class="st1" d="M43.9,185.6c0,0,31.6-59,95.6-96.4C206,50.3,247.6,51.1,247.6,51.1l31.6,10l-29.6,13.8c0,0-47.9,5.1-95.9,33.8
		c-57.9,34.5-88,87.7-88,87.7l4.3-28.3L43.9,185.6z"/>
	<path class="st2" d="M521,189.2c0,0,35.1,57,35.4,131.1c0.3,77-21.2,112.6-21.2,112.6l-24.6,22.4l2.9-32.5c0,0,19.6-44,18.9-100
		c-0.9-67.4-31.8-120.2-31.8-120.2l22.4,18L521,189.2z"/>
	<path class="st3" d="M519.9,465.1c0,0-31.5,60.2-95.3,97.8c-66.4,39.1-108,37.3-108,37.3l-32.9-9.7l30.6-14.2
		c0,0,47.9-5.3,95.9-34.1c57.7-34.7,87.8-88,87.8-88l-4.3,28.3L519.9,465.1z"/>
	<path class="st4" d="M281.6,603.3c0,0-66.9,2.3-131.4-34.1C83.1,531.3,62.9,495,62.9,495l-7.8-35l27.3,21.2
		c0,0,28.5,38.8,77.5,65.9C218.8,579.7,280,579,280,579l-26.6,10.5L281.6,603.3z"/>
	<path class="st4" d="M78.5,444.6c40.9,69.3,116.3,115.8,202.6,115.8c0.1,0,0.2,0,0.3,0V326.6L78.5,444.6z"/>
	<path class="st1" d="M281.4,325.2V90.5c-0.1,0-0.2,0-0.3,0c-87,0-162.9,47.3-203.6,117.5L281.4,325.2z"/>
	<path class="st2" d="M485,442.2c19.7-34.4,31-74.3,31-116.8c0-42.6-11.4-82.7-31.2-117.1L282.6,325.9L485,442.2z"/>
	<path class="st0" d="M77.5,208c-20,34.6-31.4,74.7-31.4,117.5c0,43.5,11.8,84.2,32.4,119.1l202.9-118v-1.5L77.5,208z"/>
	<path class="st3" d="M282.6,325.9l-1.2,0.7v233.8c87.1-0.1,163.2-47.7,203.6-118.2L282.6,325.9z"/>
	<g>
		<path class="st5" d="M400,369.3V360h2.1v9.3H400z"/>
		<path class="st5" d="M407,369.5c-0.9,0-1.5-0.3-2-1s-0.7-1.5-0.7-2.7s0.2-2.1,0.7-2.7c0.5-0.7,1.2-1,2-1c0.4,0,0.8,0.1,1.1,0.2
			c0.3,0.2,0.6,0.4,0.9,0.8h0.1c-0.1-0.7-0.1-1.1-0.1-1.3v-2.4h2.2v10h-1.8l-0.4-0.9h-0.1C408.5,369.1,407.9,369.5,407,369.5z
			 M407.7,368c0.4,0,0.7-0.1,0.9-0.4s0.3-0.8,0.3-1.6v-0.2c0-0.9-0.1-1.4-0.3-1.8c-0.2-0.4-0.5-0.5-0.9-0.5s-0.7,0.2-0.9,0.5
			c-0.2,0.4-0.3,1-0.3,1.7s0.1,1.3,0.3,1.6C407,367.8,407.3,368,407.7,368z"/>
		<path class="st5" d="M416.3,369.5c-1.2,0-2.1-0.3-2.7-1c-0.7-0.6-1-1.5-1-2.7s0.3-2.1,0.9-2.7c0.6-0.7,1.4-1,2.5-1
			c1,0,1.8,0.3,2.4,0.9c0.5,0.5,0.9,1.3,0.9,2.4v0.9h-4.4c0,0.6,0.2,1.1,0.5,1.4s0.7,0.5,1.3,0.5c0.7,0,1.5-0.2,2.2-0.5v1.4
			C418.1,369.3,417.3,369.5,416.3,369.5z M416,363.3c-0.3,0-0.5,0.1-0.8,0.4c-0.2,0.2-0.3,0.7-0.4,1.2h2.2c0-0.5-0.1-0.9-0.3-1.2
			C416.6,363.5,416.3,363.3,416,363.3z"/>
		<path class="st5" d="M425.2,369.3v-4.2c0-0.5-0.1-0.9-0.2-1.2c-0.2-0.2-0.4-0.4-0.8-0.4c-0.5,0-0.8,0.2-1,0.5
			c-0.2,0.4-0.3,1-0.3,1.8v3.4h-2.2v-7.1h1.7l0.2,0.9h0.1c0.2-0.3,0.5-0.6,0.9-0.8c0.4-0.2,0.8-0.3,1.3-0.3c0.9,0,1.5,0.2,1.9,0.7
			c0.4,0.4,0.6,1.1,0.6,2v4.6L425.2,369.3L425.2,369.3z"/>
		<path class="st5" d="M432.4,368c0.3,0,0.6-0.1,1-0.2v1.3c-0.4,0.2-0.9,0.3-1.6,0.3c-0.8,0-1.4-0.2-1.8-0.5
			c-0.4-0.4-0.5-0.9-0.5-1.6v-3.7h-0.9v-0.7l1.2-0.6l0.5-1.5h1.4v1.5h1.6v1.3h-1.6v3.7C431.7,367.7,431.9,368,432.4,368z"/>
		<path class="st5" d="M434.6,360.4c0-0.3,0.1-0.5,0.3-0.7c0.2-0.2,0.5-0.2,0.9-0.2s0.7,0.1,0.9,0.2c0.2,0.2,0.3,0.4,0.3,0.7
			s-0.1,0.5-0.3,0.7c-0.2,0.2-0.5,0.2-0.9,0.2s-0.7-0.1-0.9-0.2C434.8,360.8,434.6,360.6,434.6,360.4z M436.9,369.3h-2.2v-7.1h2.2
			V369.3z"/>
		<path class="st5" d="M442.9,363.5h-1.5v5.7h-2.2v-5.7h-1v-0.9l1-0.5v-0.5c0-0.8,0.2-1.4,0.6-1.8s1.1-0.5,2-0.5
			c0.6,0,1.2,0.1,1.6,0.3l-0.5,1.3c-0.3-0.1-0.5-0.2-0.9-0.2c-0.2,0-0.4,0.1-0.5,0.2c-0.1,0.2-0.2,0.4-0.2,0.7v0.5h1.5L442.9,363.5
			L442.9,363.5z M443.7,360.4c0-0.3,0.1-0.5,0.3-0.7c0.2-0.2,0.5-0.2,0.9-0.2s0.7,0.1,0.9,0.2c0.2,0.2,0.3,0.4,0.3,0.7
			s-0.1,0.5-0.3,0.7c-0.2,0.2-0.5,0.2-0.9,0.2s-0.7-0.1-0.9-0.2C443.9,360.8,443.7,360.6,443.7,360.4z M446.1,369.3h-2.2v-7.1h2.2
			V369.3z"/>
		<path class="st5" d="M450.9,369.5c-1.1,0-2-0.3-2.5-0.9s-0.9-1.5-0.9-2.7c0-1.3,0.2-2.2,0.8-2.8c0.5-0.6,1.4-0.9,2.5-0.9
			c0.4,0,0.7,0.1,1.1,0.1c0.4,0.1,0.7,0.2,1,0.3l-0.6,1.3c-0.4-0.2-0.9-0.3-1.2-0.3c-0.5,0-0.8,0.2-1,0.5c-0.2,0.4-0.3,0.9-0.3,1.7
			c0,0.7,0.1,1.3,0.3,1.6c0.2,0.4,0.5,0.5,1,0.5s1.1-0.1,1.7-0.4v1.5C452.3,369.3,451.7,369.5,450.9,369.5z"/>
		<path class="st5" d="M458.7,369.3l-0.4-1h-0.1c-0.3,0.4-0.7,0.7-1,0.9c-0.4,0.2-0.8,0.2-1.3,0.2c-0.7,0-1.2-0.2-1.6-0.6
			s-0.6-0.9-0.6-1.6s0.2-1.3,0.8-1.6c0.5-0.4,1.3-0.5,2.4-0.6l1.2-0.1v-0.5c0-0.7-0.4-1-1.1-1c-0.5,0-1.2,0.2-1.9,0.5l-0.7-1.2
			c0.9-0.4,1.9-0.7,3-0.7c1,0,1.7,0.2,2.2,0.7s0.7,1,0.7,1.8v4.8L458.7,369.3L458.7,369.3z M456.8,368.1c0.4,0,0.7-0.1,1-0.4
			c0.2-0.3,0.4-0.7,0.4-1.1V366h-0.7c-0.5,0-0.9,0.1-1.1,0.3s-0.4,0.5-0.4,0.9C456,367.8,456.3,368.1,456.8,368.1z"/>
		<path class="st5" d="M465.1,369.5c-1.1,0-2-0.3-2.5-0.9s-0.9-1.5-0.9-2.7c0-1.3,0.2-2.2,0.8-2.8c0.5-0.6,1.4-0.9,2.5-0.9
			c0.4,0,0.7,0.1,1.1,0.1c0.4,0.1,0.7,0.2,1,0.3l-0.6,1.3c-0.4-0.2-0.9-0.3-1.2-0.3c-0.5,0-0.8,0.2-1,0.5c-0.2,0.4-0.3,0.9-0.3,1.7
			c0,0.7,0.1,1.3,0.3,1.6c0.2,0.4,0.5,0.5,1,0.5s1.1-0.1,1.7-0.4v1.5C466.4,369.3,465.8,369.5,465.1,369.5z"/>
		<path class="st5" d="M468.2,360.4c0-0.3,0.1-0.5,0.3-0.7s0.5-0.2,0.9-0.2s0.7,0.1,0.9,0.2c0.2,0.2,0.3,0.4,0.3,0.7
			s-0.1,0.5-0.3,0.7c-0.2,0.2-0.5,0.2-0.9,0.2s-0.7-0.1-0.9-0.2C468.4,360.8,468.2,360.6,468.2,360.4z M470.6,369.3h-2.2v-7.1h2.2
			V369.3z"/>
		<path class="st5" d="M479.2,365.7c0,1.2-0.3,2.1-1,2.7c-0.6,0.7-1.5,1-2.6,1c-0.7,0-1.3-0.1-1.8-0.4s-1-0.7-1.2-1.3
			c-0.3-0.5-0.4-1.2-0.4-2c0-1.2,0.3-2.1,1-2.7c0.6-0.7,1.5-1,2.6-1s2,0.3,2.6,1C478.9,363.7,479.2,364.6,479.2,365.7z M474.3,365.7
			c0,0.7,0.1,1.3,0.3,1.7c0.2,0.4,0.5,0.5,1,0.5c0.9,0,1.3-0.7,1.3-2.3c0-0.7-0.1-1.3-0.3-1.6c-0.2-0.4-0.5-0.5-1-0.5
			s-0.8,0.2-1,0.5C474.5,364.4,474.3,365,474.3,365.7z M474.5,361.4v-0.2c0.2-0.2,0.5-0.5,0.8-1c0.3-0.4,0.5-0.7,0.6-1h2.6v0.1
			c-0.1,0.2-0.5,0.5-1,0.9s-1,0.8-1.5,1.1L474.5,361.4L474.5,361.4z"/>
		<path class="st5" d="M485.3,369.3v-4.2c0-0.5-0.1-0.9-0.2-1.2c-0.2-0.2-0.4-0.4-0.8-0.4c-0.5,0-0.8,0.2-1,0.5
			c-0.2,0.4-0.3,1-0.3,1.8v3.4h-2.2v-7.1h1.7l0.2,0.9h0.1c0.2-0.3,0.5-0.6,0.9-0.8c0.4-0.2,0.8-0.3,1.3-0.3c0.9,0,1.5,0.2,1.9,0.7
			c0.4,0.4,0.6,1.1,0.6,2v4.6L485.3,369.3L485.3,369.3z"/>
		<path class="st5" d="M413.6,385.2c-0.9,0-1.5-0.3-2-1s-0.7-1.5-0.7-2.7s0.2-2.1,0.7-2.7s1.2-1,2-1c0.4,0,0.8,0.1,1.1,0.2
			c0.3,0.2,0.6,0.4,0.9,0.8h0.1c-0.1-0.7-0.1-1.1-0.1-1.3v-2.4h2.2v10h-1.6l-0.4-0.9h-0.1C415.1,384.8,414.5,385.2,413.6,385.2z
			 M414.3,383.7c0.4,0,0.7-0.1,0.9-0.4s0.3-0.8,0.3-1.6v-0.2c0-0.9-0.1-1.4-0.3-1.8c-0.2-0.4-0.5-0.5-0.9-0.5s-0.7,0.2-0.9,0.5
			c-0.2,0.4-0.3,1-0.3,1.7s0.1,1.3,0.3,1.6C413.6,383.5,413.9,383.7,414.3,383.7z"/>
		<path class="st5" d="M422.9,385.2c-1.2,0-2.1-0.3-2.7-1c-0.7-0.6-1-1.5-1-2.7s0.3-2.1,0.9-2.7c0.6-0.7,1.4-1,2.5-1
			c1,0,1.8,0.3,2.4,0.9c0.5,0.5,0.9,1.3,0.9,2.4v0.9h-4.4c0,0.6,0.2,1.1,0.5,1.4s0.7,0.5,1.3,0.5c0.7,0,1.5-0.2,2.2-0.5v1.4
			C424.7,385,423.9,385.2,422.9,385.2z M422.6,379.1c-0.3,0-0.5,0.1-0.8,0.4c-0.2,0.2-0.3,0.7-0.4,1.2h2.2c0-0.5-0.1-0.9-0.3-1.2
			C423.1,379.2,422.9,379.1,422.6,379.1z"/>
		<path class="st5" d="M435.4,377.8c0.2,0,0.5,0.1,0.8,0.1l-0.2,1.6c-0.2-0.1-0.4-0.1-0.6-0.1c-0.5,0-0.9,0.2-1.2,0.5
			c-0.3,0.3-0.4,0.8-0.4,1.4v3.7h-2.2v-7.1h1.8l0.2,1.1h0.1c0.2-0.4,0.5-0.8,0.8-1C434.6,377.9,435,377.8,435.4,377.8z"/>
		<path class="st5" d="M437.1,376.1c0-0.3,0.1-0.5,0.3-0.7c0.2-0.2,0.5-0.2,0.9-0.2s0.7,0.1,0.9,0.2c0.2,0.2,0.3,0.4,0.3,0.7
			s-0.1,0.5-0.3,0.7c-0.2,0.2-0.5,0.2-0.9,0.2s-0.7-0.1-0.9-0.2C437.1,376.5,437.1,376.4,437.1,376.1z M439.3,385h-2.2v-7.1h2.2V385
			z"/>
		<path class="st5" d="M444.6,385.2c-1.2,0-2.1-0.3-2.7-1c-0.7-0.6-1-1.5-1-2.7s0.3-2.1,0.9-2.7s1.4-1,2.5-1c1,0,1.8,0.3,2.4,0.9
			c0.5,0.5,0.9,1.3,0.9,2.4v0.9h-4.4c0,0.6,0.2,1.1,0.5,1.4s0.7,0.5,1.3,0.5c0.7,0,1.5-0.2,2.2-0.5v1.4
			C446.4,385,445.6,385.2,444.6,385.2z M444.3,379.1c-0.3,0-0.5,0.1-0.8,0.4c-0.2,0.2-0.3,0.7-0.4,1.2h2.2c0-0.5-0.1-0.9-0.3-1.2
			C444.9,379.2,444.6,379.1,444.3,379.1z"/>
		<path class="st5" d="M453.9,383c0,0.7-0.2,1.2-0.8,1.6c-0.5,0.4-1.3,0.6-2.3,0.6c-0.9,0-1.6-0.1-2.3-0.4v-1.5
			c0.3,0.2,0.7,0.3,1,0.4c0.4,0.1,0.7,0.2,1,0.2c0.4,0,0.6-0.1,0.8-0.2s0.2-0.3,0.2-0.5s-0.1-0.4-0.3-0.5c-0.2-0.2-0.5-0.4-1-0.6
			c-0.7-0.3-1.2-0.6-1.4-1c-0.3-0.4-0.4-0.7-0.4-1.2c0-0.6,0.2-1.1,0.8-1.5c0.5-0.4,1.3-0.5,2.2-0.5c0.8,0,1.6,0.2,2.3,0.5l-0.7,1.2
			c-0.6-0.2-1.1-0.4-1.5-0.4c-0.3,0-0.5,0.1-0.6,0.2s-0.2,0.2-0.2,0.4s0.1,0.4,0.2,0.5c0.2,0.1,0.5,0.3,1,0.5s1,0.5,1.2,0.7
			s0.4,0.4,0.5,0.6C453.8,382.3,453.9,382.6,453.9,383z"/>
		<path class="st5" d="M461.9,377.9v1l-1.1,0.2c0.2,0.3,0.3,0.7,0.3,1.1c0,0.7-0.2,1.3-0.8,1.8c-0.5,0.4-1.3,0.6-2.2,0.6
			c-0.3,0-0.5,0-0.6-0.1c-0.1,0.1-0.2,0.2-0.3,0.2c-0.1,0.1-0.1,0.2-0.1,0.3c0,0.3,0.3,0.4,1,0.4h1.3c0.8,0,1.4,0.2,1.8,0.5
			s0.6,0.8,0.6,1.5c0,0.9-0.4,1.5-1.1,1.9s-1.7,0.7-3.1,0.7c-1,0-1.8-0.2-2.3-0.5c-0.5-0.4-0.8-0.9-0.8-1.5c0-0.4,0.2-0.7,0.5-1
			s0.7-0.5,1.3-0.7c-0.3-0.1-0.5-0.2-0.7-0.4c-0.2-0.2-0.2-0.4-0.2-0.6c0-0.1,0-0.3,0.1-0.4s0.1-0.2,0.2-0.3
			c0.1-0.1,0.3-0.2,0.6-0.5c-0.4-0.2-0.7-0.4-0.9-0.8c-0.2-0.4-0.3-0.8-0.3-1.2c0-0.8,0.2-1.4,0.8-1.8c0.5-0.4,1.3-0.6,2.3-0.6
			c0.2,0,0.4,0,0.7,0.1c0.2,0.1,0.4,0.1,0.5,0.1L461.9,377.9L461.9,377.9z M456.5,386.1c0,0.3,0.1,0.5,0.4,0.7
			c0.2,0.1,0.5,0.2,1,0.2c0.7,0,1.2-0.1,1.5-0.3c0.3-0.2,0.5-0.5,0.5-0.8c0-0.2-0.1-0.5-0.2-0.5c-0.2-0.1-0.5-0.2-1-0.2h-1
			c-0.3,0-0.5,0.1-0.7,0.2C456.6,385.5,456.5,385.8,456.5,386.1z M457.2,380.2c0,0.9,0.3,1.3,0.9,1.3s0.9-0.4,0.9-1.3
			s-0.3-1.3-0.9-1.3C457.5,378.9,457.2,379.4,457.2,380.2z"/>
		<path class="st5" d="M469.8,381.4c0,1.2-0.3,2.1-1,2.7c-0.6,0.7-1.5,1-2.6,1c-0.7,0-1.3-0.1-1.8-0.4s-1-0.7-1.2-1.3
			c-0.3-0.5-0.4-1.2-0.4-2c0-1.2,0.3-2.1,1-2.7c0.6-0.7,1.5-1,2.6-1s2,0.3,2.6,1C469.5,379.4,469.8,380.3,469.8,381.4z M464.9,381.4
			c0,0.7,0.1,1.3,0.3,1.7c0.2,0.4,0.5,0.5,1,0.5c0.9,0,1.3-0.7,1.3-2.3c0-0.7-0.1-1.3-0.3-1.6c-0.2-0.4-0.5-0.5-1-0.5
			s-0.8,0.2-1,0.5C465.1,380.1,464.9,380.7,464.9,381.4z"/>
		<path class="st5" d="M476.3,383c0,0.7-0.2,1.2-0.8,1.6c-0.5,0.4-1.3,0.6-2.3,0.6c-0.9,0-1.6-0.1-2.3-0.4v-1.5
			c0.3,0.2,0.7,0.3,1,0.4c0.4,0.1,0.7,0.2,1,0.2c0.4,0,0.6-0.1,0.8-0.2c0.2-0.1,0.2-0.3,0.2-0.5s-0.1-0.4-0.3-0.5
			c-0.2-0.2-0.5-0.4-1-0.6c-0.7-0.3-1.2-0.6-1.4-1c-0.3-0.4-0.4-0.7-0.4-1.2c0-0.6,0.2-1.1,0.8-1.5c0.5-0.4,1.3-0.5,2.2-0.5
			c0.8,0,1.6,0.2,2.3,0.5l-0.7,1.2c-0.6-0.2-1.1-0.4-1.5-0.4c-0.3,0-0.5,0.1-0.6,0.2s-0.2,0.2-0.2,0.4s0.1,0.4,0.2,0.5
			c0.2,0.1,0.5,0.3,1,0.5s1,0.5,1.2,0.7s0.4,0.4,0.5,0.6C476.2,382.3,476.3,382.6,476.3,383z"/>
	</g>
	<g>
		<path class="st5" d="M327.3,490.6h2.3l-2.8,9.3h-2.9l-2.8-9.3h2.3l1.6,5.7c0.1,0.5,0.3,1.2,0.4,2.1c0.1-0.8,0.2-1.5,0.4-2.1
			L327.3,490.6z"/>
		<path class="st5" d="M334.7,499.9l-0.4-1h-0.1c-0.3,0.4-0.7,0.7-1,0.9c-0.4,0.2-0.8,0.2-1.3,0.2c-0.7,0-1.2-0.2-1.6-0.6
			s-0.6-0.9-0.6-1.6s0.2-1.3,0.8-1.6s1.3-0.5,2.4-0.6l1.2-0.1V495c0-0.7-0.4-1-1.1-1c-0.5,0-1.2,0.2-1.9,0.5l-0.7-1.2
			c0.9-0.4,1.9-0.7,3-0.7c1,0,1.7,0.2,2.2,0.7s0.7,1,0.7,1.8v4.8L334.7,499.9L334.7,499.9z M332.8,498.7c0.4,0,0.7-0.1,1-0.4
			c0.2-0.3,0.4-0.7,0.4-1.1v-0.6h-0.7c-0.5,0-0.9,0.1-1.1,0.3s-0.4,0.5-0.4,0.9C332,498.4,332.3,498.7,332.8,498.7z"/>
		<path class="st5" d="M340.3,499.9h-2.2v-10h2.2V499.9z"/>
		<path class="st5" d="M348.9,496.3c0,1.2-0.3,2.1-1,2.7c-0.6,0.7-1.5,1-2.6,1c-0.7,0-1.3-0.1-1.8-0.4s-1-0.7-1.2-1.3
			c-0.3-0.5-0.4-1.2-0.4-2c0-1.2,0.3-2.1,1-2.7c0.6-0.7,1.5-1,2.6-1s2,0.3,2.6,1C348.6,494.3,348.9,495.2,348.9,496.3z M344.1,496.3
			c0,0.7,0.1,1.3,0.3,1.7c0.2,0.4,0.5,0.5,1,0.5c0.9,0,1.3-0.7,1.3-2.3c0-0.7-0.1-1.3-0.3-1.6c-0.2-0.4-0.5-0.5-1-0.5
			s-0.8,0.2-1,0.5C344.1,495,344.1,495.6,344.1,496.3z"/>
		<path class="st5" d="M354.4,492.6c0.2,0,0.5,0.1,0.8,0.1l-0.2,1.6c-0.2-0.1-0.4-0.1-0.6-0.1c-0.5,0-0.9,0.2-1.2,0.5
			c-0.3,0.3-0.4,0.8-0.4,1.4v3.7h-2.2v-7.1h1.8l0.2,1.1h0.1c0.2-0.4,0.5-0.8,0.8-1C353.7,492.8,354,492.6,354.4,492.6z"/>
		<path class="st5" d="M360.6,499.9l-0.4-1h-0.1c-0.3,0.4-0.7,0.7-1,0.9c-0.4,0.2-0.8,0.2-1.3,0.2c-0.7,0-1.2-0.2-1.6-0.6
			s-0.6-0.9-0.6-1.6s0.2-1.3,0.8-1.6c0.5-0.4,1.3-0.5,2.4-0.6l1.2-0.1V495c0-0.7-0.4-1-1.1-1c-0.5,0-1.2,0.2-1.9,0.5l-0.7-1.2
			c0.9-0.4,1.9-0.7,3-0.7c1,0,1.7,0.2,2.2,0.7s0.7,1,0.7,1.8v4.8L360.6,499.9L360.6,499.9z M358.7,498.7c0.4,0,0.7-0.1,1-0.4
			c0.2-0.3,0.4-0.7,0.4-1.1v-0.6h-0.7c-0.5,0-0.9,0.1-1.1,0.3c-0.2,0.2-0.4,0.5-0.4,0.9C358,498.4,358.2,498.7,358.7,498.7z"/>
		<path class="st5" d="M367.1,500c-1.1,0-2-0.3-2.5-0.9s-0.9-1.5-0.9-2.7c0-1.3,0.2-2.2,0.8-2.8c0.5-0.6,1.4-0.9,2.5-0.9
			c0.4,0,0.7,0.1,1.1,0.1c0.4,0.1,0.7,0.2,1,0.3l-0.6,1.3c-0.4-0.2-0.9-0.3-1.2-0.3c-0.5,0-0.8,0.2-1,0.5c-0.2,0.4-0.3,0.9-0.3,1.7
			c0,0.7,0.1,1.3,0.3,1.6c0.2,0.4,0.5,0.5,1,0.5s1.1-0.1,1.7-0.4v1.5C368.4,499.9,367.8,500,367.1,500z"/>
		<path class="st5" d="M370.2,490.9c0-0.3,0.1-0.5,0.3-0.7s0.5-0.2,0.9-0.2s0.7,0.1,0.9,0.2c0.2,0.2,0.3,0.4,0.3,0.7
			s-0.1,0.5-0.3,0.7c-0.2,0.2-0.5,0.2-0.9,0.2s-0.7-0.1-0.9-0.2C370.4,491.4,370.2,491.2,370.2,490.9z M372.5,499.9h-2.2v-7.1h2.2
			V499.9z"/>
		<path class="st5" d="M381.2,496.3c0,1.2-0.3,2.1-1,2.7c-0.6,0.7-1.5,1-2.6,1c-0.7,0-1.3-0.1-1.8-0.4s-1-0.7-1.2-1.3
			c-0.3-0.5-0.4-1.2-0.4-2c0-1.2,0.3-2.1,1-2.7c0.6-0.7,1.5-1,2.6-1s2,0.3,2.6,1C380.9,494.3,381.2,495.2,381.2,496.3z M376.3,496.3
			c0,0.7,0.1,1.3,0.3,1.7c0.2,0.4,0.5,0.5,1,0.5c0.9,0,1.3-0.7,1.3-2.3c0-0.7-0.1-1.3-0.3-1.6c-0.2-0.4-0.5-0.5-1-0.5
			s-0.8,0.2-1,0.5C376.4,495,376.3,495.6,376.3,496.3z M376.5,492v-0.2c0.2-0.2,0.5-0.5,0.8-1c0.3-0.4,0.5-0.7,0.6-1h2.6v0.1
			c-0.1,0.2-0.5,0.5-1,0.9s-1,0.8-1.5,1.1L376.5,492L376.5,492z"/>
		<path class="st5" d="M387.3,499.9v-4.2c0-0.5-0.1-0.9-0.2-1.2c-0.2-0.2-0.4-0.4-0.8-0.4c-0.5,0-0.8,0.2-1,0.5
			c-0.2,0.4-0.3,1-0.3,1.8v3.4h-2.1v-7.1h1.7l0.2,0.9h0.1c0.2-0.3,0.5-0.6,0.9-0.8c0.4-0.2,0.8-0.3,1.3-0.3c0.9,0,1.5,0.2,1.9,0.7
			c0.4,0.4,0.6,1.1,0.6,2v4.6L387.3,499.9L387.3,499.9z"/>
		<path class="st5" d="M397.8,500c-0.9,0-1.5-0.3-2-1s-0.7-1.5-0.7-2.7s0.2-2.1,0.7-2.7c0.5-0.7,1.2-1,2-1c0.4,0,0.8,0.1,1.1,0.2
			c0.3,0.2,0.6,0.4,0.9,0.8h0.1c-0.1-0.7-0.1-1.1-0.1-1.3v-2.4h2.2v10h-1.6L400,499h-0.1C399.4,499.7,398.8,500,397.8,500z
			 M398.6,498.6c0.4,0,0.7-0.1,0.9-0.4c0.2-0.3,0.3-0.8,0.3-1.6v-0.2c0-0.9-0.1-1.4-0.3-1.8c-0.2-0.4-0.5-0.5-0.9-0.5
			s-0.7,0.2-0.9,0.5c-0.2,0.4-0.3,1-0.3,1.7s0.1,1.3,0.3,1.6C397.8,498.4,398.2,498.6,398.6,498.6z"/>
		<path class="st5" d="M407.2,500c-1.2,0-2.1-0.3-2.7-1c-0.7-0.6-1-1.5-1-2.7s0.3-2.1,0.9-2.7c0.6-0.7,1.4-1,2.5-1
			c1,0,1.8,0.3,2.4,0.9c0.5,0.5,0.9,1.3,0.9,2.4v0.9h-4.4c0,0.6,0.2,1.1,0.5,1.4s0.7,0.5,1.3,0.5c0.7,0,1.5-0.2,2.2-0.5v1.4
			C409,499.8,408.2,500,407.2,500z M406.9,494c-0.3,0-0.5,0.1-0.8,0.4c-0.2,0.2-0.3,0.7-0.4,1.2h2.2c0-0.5-0.1-0.9-0.3-1.2
			C407.5,494.1,407.3,494,406.9,494z"/>
		<path class="st5" d="M347.6,508.3c0.2,0,0.5,0.1,0.8,0.1l-0.2,1.6c-0.2-0.1-0.4-0.1-0.6-0.1c-0.5,0-0.9,0.2-1.2,0.5
			s-0.4,0.8-0.4,1.4v3.7h-2.2v-7.1h1.8l0.2,1.1h0.1c0.2-0.4,0.5-0.8,0.8-1C346.9,508.5,347.2,508.3,347.6,508.3z"/>
		<path class="st5" d="M349.3,506.6c0-0.3,0.1-0.5,0.3-0.7s0.5-0.2,0.9-0.2s0.7,0.1,0.9,0.2c0.2,0.2,0.3,0.4,0.3,0.7
			s-0.1,0.5-0.3,0.7c-0.2,0.2-0.5,0.2-0.9,0.2s-0.7-0.1-0.9-0.2C349.4,507.1,349.3,506.9,349.3,506.6z M351.5,515.6h-2.2v-7.1h2.2
			V515.6z"/>
		<path class="st5" d="M356.8,515.7c-1.2,0-2.1-0.3-2.7-1c-0.7-0.6-1-1.5-1-2.7c0-1.2,0.3-2.1,0.9-2.7c0.6-0.7,1.4-1,2.5-1
			c1,0,1.8,0.3,2.4,0.9c0.5,0.5,0.9,1.3,0.9,2.4v0.9h-4.4c0,0.6,0.2,1.1,0.5,1.4s0.7,0.5,1.3,0.5c0.7,0,1.5-0.2,2.2-0.5v1.4
			C358.6,515.5,357.8,515.7,356.8,515.7z M356.5,509.7c-0.3,0-0.5,0.1-0.8,0.4c-0.2,0.2-0.3,0.7-0.4,1.2h2.2c0-0.5-0.1-0.9-0.3-1.2
			C357.1,509.8,356.9,509.7,356.5,509.7z"/>
		<path class="st5" d="M366.1,513.5c0,0.7-0.2,1.2-0.8,1.6c-0.5,0.4-1.3,0.6-2.3,0.6c-0.9,0-1.6-0.1-2.3-0.4v-1.5
			c0.3,0.2,0.7,0.3,1,0.4c0.4,0.1,0.7,0.2,1,0.2c0.4,0,0.6-0.1,0.8-0.2c0.2-0.1,0.2-0.3,0.2-0.5s-0.1-0.4-0.3-0.5
			c-0.2-0.2-0.5-0.4-1-0.6c-0.7-0.3-1.2-0.6-1.4-1c-0.2-0.4-0.4-0.7-0.4-1.2c0-0.6,0.2-1.1,0.8-1.5c0.5-0.4,1.3-0.5,2.2-0.5
			c0.8,0,1.6,0.2,2.3,0.5l-0.7,1.2c-0.6-0.2-1.1-0.4-1.5-0.4c-0.3,0-0.5,0.1-0.6,0.2s-0.2,0.2-0.2,0.4c0,0.2,0.1,0.4,0.2,0.5
			c0.2,0.1,0.5,0.3,1,0.5s1,0.5,1.2,0.7s0.4,0.4,0.5,0.6C366.1,512.9,366.1,513.2,366.1,513.5z"/>
		<path class="st5" d="M374.1,508.5v1l-1.1,0.2c0.2,0.3,0.3,0.7,0.3,1.1c0,0.7-0.2,1.3-0.8,1.8c-0.5,0.4-1.3,0.6-2.2,0.6
			c-0.3,0-0.5,0-0.6-0.1c-0.1,0.1-0.2,0.2-0.3,0.2c-0.1,0.1-0.1,0.2-0.1,0.3c0,0.3,0.3,0.4,1,0.4h1.3c0.8,0,1.4,0.2,1.8,0.5
			s0.6,0.8,0.6,1.5c0,0.9-0.4,1.5-1.1,1.9c-0.7,0.4-1.7,0.7-3.1,0.7c-1,0-1.8-0.2-2.3-0.5c-0.5-0.4-0.8-0.9-0.8-1.5
			c0-0.4,0.2-0.7,0.5-1s0.7-0.5,1.3-0.7c-0.3-0.1-0.5-0.2-0.7-0.4c-0.2-0.2-0.2-0.4-0.2-0.6c0-0.1,0-0.3,0.1-0.4
			c0.1-0.1,0.1-0.2,0.2-0.3c0.1-0.1,0.3-0.2,0.6-0.5c-0.4-0.2-0.7-0.4-0.9-0.8s-0.3-0.8-0.3-1.2c0-0.8,0.2-1.4,0.8-1.8
			c0.5-0.4,1.3-0.6,2.3-0.6c0.2,0,0.4,0,0.7,0.1c0.2,0.1,0.4,0.1,0.5,0.1L374.1,508.5L374.1,508.5z M368.7,516.6
			c0,0.3,0.1,0.5,0.4,0.7c0.2,0.1,0.5,0.2,1,0.2c0.7,0,1.2-0.1,1.5-0.3c0.3-0.2,0.5-0.5,0.5-0.8c0-0.2-0.1-0.5-0.2-0.5
			c-0.2-0.1-0.5-0.2-1-0.2h-1c-0.3,0-0.5,0.1-0.7,0.2C368.8,516.1,368.7,516.3,368.7,516.6z M369.4,510.8c0,0.9,0.3,1.3,0.9,1.3
			s0.9-0.4,0.9-1.3s-0.3-1.3-0.9-1.3C369.7,509.5,369.4,509.9,369.4,510.8z"/>
		<path class="st5" d="M382,512.1c0,1.2-0.3,2.1-1,2.7c-0.6,0.7-1.5,1-2.6,1c-0.7,0-1.3-0.1-1.8-0.4s-1-0.7-1.2-1.3
			c-0.3-0.5-0.4-1.2-0.4-2c0-1.2,0.3-2.1,1-2.7c0.6-0.7,1.5-1,2.6-1s2,0.3,2.6,1C381.7,510,382,510.9,382,512.1z M377.1,512.1
			c0,0.7,0.1,1.3,0.3,1.7c0.2,0.4,0.5,0.5,1,0.5c0.9,0,1.3-0.7,1.3-2.3c0-0.7-0.1-1.3-0.3-1.6c-0.2-0.4-0.5-0.5-1-0.5
			s-0.8,0.2-1,0.5C377.3,510.7,377.1,511.3,377.1,512.1z"/>
		<path class="st5" d="M388.5,513.5c0,0.7-0.2,1.2-0.8,1.6c-0.5,0.4-1.3,0.6-2.3,0.6c-0.9,0-1.6-0.1-2.3-0.4v-1.5
			c0.3,0.2,0.7,0.3,1,0.4c0.4,0.1,0.7,0.2,1,0.2c0.4,0,0.6-0.1,0.8-0.2c0.2-0.1,0.2-0.3,0.2-0.5s-0.1-0.4-0.3-0.5
			c-0.2-0.2-0.5-0.4-1-0.6c-0.7-0.3-1.2-0.6-1.4-1c-0.3-0.4-0.4-0.7-0.4-1.2c0-0.6,0.2-1.1,0.8-1.5c0.5-0.4,1.3-0.5,2.2-0.5
			c0.8,0,1.6,0.2,2.3,0.5l-0.7,1.2c-0.6-0.2-1.1-0.4-1.5-0.4c-0.3,0-0.5,0.1-0.6,0.2s-0.2,0.2-0.2,0.4c0,0.2,0.1,0.4,0.2,0.5
			c0.2,0.1,0.5,0.3,1,0.5s1,0.5,1.2,0.7s0.4,0.4,0.5,0.6C388.4,512.9,388.5,513.2,388.5,513.5z"/>
	</g>
	<g>
		<path class="st5" d="M173.7,495.1c0,1.5-0.4,2.7-1.2,3.5s-2,1.2-3.5,1.2h-2.9v-9.2h3.2c1.4,0,2.5,0.4,3.3,1.2
			C173.3,492.6,173.7,493.7,173.7,495.1z M171.4,495.2c0-2.1-0.7-3.1-2.2-3.1h-0.9v6.3h0.7c0.8,0,1.4-0.2,1.8-0.8
			C171.2,497,171.4,496.2,171.4,495.2z"/>
		<path class="st5" d="M178.7,500c-1.2,0-2.1-0.3-2.7-1c-0.7-0.6-1-1.5-1-2.7s0.3-2.1,0.9-2.7c0.6-0.7,1.4-1,2.5-1
			c1,0,1.8,0.3,2.4,0.9c0.5,0.5,0.9,1.3,0.9,2.4v0.9h-4.4c0,0.6,0.2,1.1,0.5,1.4s0.7,0.5,1.3,0.5c0.7,0,1.5-0.2,2.2-0.5v1.4
			C180.5,499.8,179.7,500,178.7,500z M178.3,494c-0.3,0-0.5,0.1-0.8,0.4c-0.2,0.2-0.3,0.7-0.4,1.2h2.2c0-0.5-0.1-0.9-0.3-1.2
			C178.9,494.1,178.7,494,178.3,494z"/>
		<path class="st5" d="M187.1,494.1h-1.5v5.7h-2.2v-5.7h-1v-0.9l1-0.5v-0.5c0-0.8,0.2-1.4,0.6-1.8c0.4-0.4,1.1-0.5,2-0.5
			c0.6,0,1.2,0.1,1.6,0.3l-0.5,1.3c-0.3-0.1-0.5-0.2-0.9-0.2c-0.2,0-0.4,0.1-0.5,0.2c-0.1,0.2-0.2,0.4-0.2,0.7v0.5h1.5L187.1,494.1
			L187.1,494.1z M188,490.9c0-0.3,0.1-0.5,0.3-0.7s0.5-0.2,0.9-0.2s0.7,0.1,0.9,0.2c0.2,0.2,0.3,0.4,0.3,0.7s-0.1,0.5-0.3,0.7
			s-0.5,0.2-0.9,0.2s-0.7-0.1-0.9-0.2C188.1,491.4,188,491.2,188,490.9z M190.3,499.9h-2.2v-7.1h2.2V499.9z"/>
		<path class="st5" d="M196.8,499.9v-4.2c0-0.5-0.1-0.9-0.2-1.2c-0.2-0.2-0.4-0.4-0.8-0.4c-0.5,0-0.8,0.2-1,0.5s-0.3,1-0.3,1.8v3.4
			h-2.2v-7.1h1.7l0.2,0.9h0.1c0.2-0.3,0.5-0.6,0.9-0.8c0.4-0.2,0.8-0.3,1.3-0.3c0.9,0,1.5,0.2,1.9,0.7c0.4,0.4,0.6,1.1,0.6,2v4.6
			L196.8,499.9L196.8,499.9z"/>
		<path class="st5" d="M200.6,490.9c0-0.3,0.1-0.5,0.3-0.7s0.5-0.2,0.9-0.2s0.7,0.1,0.9,0.2c0.2,0.2,0.3,0.4,0.3,0.7
			s-0.1,0.5-0.3,0.7s-0.5,0.2-0.9,0.2s-0.7-0.1-0.9-0.2C200.8,491.4,200.6,491.2,200.6,490.9z M202.9,499.9h-2.2v-7.1h2.2V499.9z"/>
		<path class="st5" d="M207.8,500c-1.1,0-2-0.3-2.5-0.9s-0.9-1.5-0.9-2.7c0-1.3,0.2-2.2,0.8-2.8c0.5-0.6,1.4-0.9,2.5-0.9
			c0.4,0,0.7,0.1,1.1,0.1c0.4,0.1,0.7,0.2,1,0.3l-0.6,1.3c-0.4-0.2-0.9-0.3-1.2-0.3c-0.5,0-0.8,0.2-1,0.5c-0.2,0.4-0.3,0.9-0.3,1.7
			c0,0.7,0.1,1.3,0.3,1.6c0.2,0.4,0.5,0.5,1,0.5s1.1-0.1,1.7-0.4v1.5C209.2,499.9,208.6,500,207.8,500z"/>
		<path class="st5" d="M211,490.9c0-0.3,0.1-0.5,0.3-0.7s0.5-0.2,0.9-0.2s0.7,0.1,0.9,0.2c0.2,0.2,0.3,0.4,0.3,0.7s-0.1,0.5-0.3,0.7
			s-0.5,0.2-0.9,0.2s-0.7-0.1-0.9-0.2C211.1,491.4,211,491.2,211,490.9z M213.3,499.9h-2.2v-7.1h2.2V499.9z"/>
		<path class="st5" d="M222,496.3c0,1.2-0.3,2.1-1,2.7c-0.6,0.7-1.5,1-2.6,1c-0.7,0-1.3-0.1-1.8-0.4s-1-0.7-1.2-1.3
			c-0.3-0.5-0.4-1.2-0.4-2c0-1.2,0.3-2.1,1-2.7c0.6-0.7,1.5-1,2.6-1s2,0.3,2.6,1C221.6,494.3,222,495.2,222,496.3z M217.1,496.3
			c0,0.7,0.1,1.3,0.3,1.7c0.2,0.4,0.5,0.5,1,0.5c0.9,0,1.3-0.7,1.3-2.3c0-0.7-0.1-1.3-0.3-1.6c-0.2-0.4-0.5-0.5-1-0.5
			s-0.8,0.2-1,0.5C217.2,495,217.1,495.6,217.1,496.3z M217.2,492v-0.2c0.2-0.2,0.5-0.5,0.8-1c0.3-0.4,0.5-0.7,0.6-1h2.6v0.1
			c-0.1,0.2-0.5,0.5-1,0.9s-1,0.8-1.5,1.1L217.2,492L217.2,492z"/>
		<path class="st5" d="M228.1,499.9v-4.2c0-0.5-0.1-0.9-0.2-1.2c-0.2-0.2-0.4-0.4-0.8-0.4c-0.5,0-0.8,0.2-1,0.5
			c-0.2,0.4-0.3,1-0.3,1.8v3.4h-2.2v-7.1h1.7l0.2,0.9h0.1c0.2-0.3,0.5-0.6,0.9-0.8c0.4-0.2,0.8-0.3,1.3-0.3c0.9,0,1.5,0.2,1.9,0.7
			c0.4,0.4,0.6,1.1,0.6,2v4.6L228.1,499.9L228.1,499.9z"/>
		<path class="st5" d="M238.6,500c-0.9,0-1.5-0.3-2-1s-0.7-1.5-0.7-2.7s0.2-2.1,0.7-2.7c0.5-0.7,1.2-1,2-1c0.4,0,0.8,0.1,1.1,0.2
			c0.3,0.2,0.6,0.4,0.9,0.8h0.1c-0.1-0.7-0.1-1.1-0.1-1.3v-2.4h2.2v10h-1.6l-0.4-0.9h-0.1C240.2,499.7,239.5,500,238.6,500z
			 M239.4,498.6c0.4,0,0.7-0.1,0.9-0.4c0.2-0.3,0.3-0.8,0.3-1.6v-0.2c0-0.9-0.1-1.4-0.3-1.8c-0.2-0.4-0.5-0.5-0.9-0.5
			s-0.7,0.2-0.9,0.5c-0.2,0.4-0.3,1-0.3,1.7s0.1,1.3,0.3,1.6C238.6,498.4,238.9,498.6,239.4,498.6z"/>
		<path class="st5" d="M248,500c-1.2,0-2.1-0.3-2.7-1c-0.7-0.6-1-1.5-1-2.7s0.3-2.1,0.9-2.7c0.6-0.7,1.4-1,2.5-1
			c1,0,1.8,0.3,2.4,0.9c0.5,0.5,0.9,1.3,0.9,2.4v0.9h-4.5c0,0.6,0.2,1.1,0.5,1.4s0.7,0.5,1.3,0.5c0.7,0,1.5-0.2,2.2-0.5v1.4
			C249.8,499.8,249,500,248,500z M247.7,494c-0.3,0-0.5,0.1-0.8,0.4c-0.2,0.2-0.3,0.7-0.4,1.2h2.2c0-0.5-0.1-0.9-0.3-1.2
			C248.3,494.1,248,494,247.7,494z"/>
		<path class="st5" d="M181.7,515.7c-1.1,0-2-0.3-2.5-0.9c-0.5-0.6-0.9-1.5-0.9-2.7c0-1.3,0.2-2.2,0.8-2.8c0.5-0.6,1.4-0.9,2.5-0.9
			c0.4,0,0.7,0.1,1.1,0.1c0.4,0.1,0.7,0.2,1,0.3l-0.6,1.3c-0.4-0.2-0.9-0.3-1.2-0.3c-0.5,0-0.8,0.2-1,0.5c-0.2,0.4-0.3,0.9-0.3,1.7
			c0,0.7,0.1,1.3,0.3,1.6c0.2,0.4,0.5,0.5,1,0.5s1.1-0.1,1.7-0.4v1.5C183.1,515.6,182.5,515.7,181.7,515.7z"/>
		<path class="st5" d="M191.8,512.1c0,1.2-0.3,2.1-1,2.7c-0.6,0.7-1.5,1-2.6,1c-0.7,0-1.3-0.1-1.8-0.4s-1-0.7-1.2-1.3
			c-0.3-0.5-0.4-1.2-0.4-2c0-1.2,0.3-2.1,1-2.7c0.6-0.7,1.5-1,2.6-1s2,0.3,2.6,1C191.5,510,191.8,510.9,191.8,512.1z M186.9,512.1
			c0,0.7,0.1,1.3,0.3,1.7s0.5,0.5,1,0.5c0.9,0,1.3-0.7,1.3-2.3c0-0.7-0.1-1.3-0.3-1.6c-0.2-0.4-0.5-0.5-1-0.5s-0.8,0.2-1,0.5
			S186.9,511.3,186.9,512.1z"/>
		<path class="st5" d="M197.9,515.6v-4.2c0-0.5-0.1-0.9-0.2-1.2c-0.2-0.2-0.4-0.4-0.8-0.4c-0.5,0-0.8,0.2-1,0.5s-0.3,1-0.3,1.8v3.4
			h-2.2v-7.1h1.7l0.2,0.9h0.1c0.2-0.3,0.5-0.6,0.9-0.8c0.4-0.2,0.8-0.3,1.3-0.3c0.9,0,1.5,0.2,1.9,0.7s0.6,1.1,0.6,2v4.6
			L197.9,515.6L197.9,515.6z"/>
		<path class="st5" d="M205.1,514.3c0.3,0,0.6-0.1,1-0.2v1.3c-0.4,0.2-0.9,0.3-1.6,0.3c-0.8,0-1.4-0.2-1.8-0.5
			c-0.4-0.4-0.5-0.9-0.5-1.6v-3.7h-0.9v-0.7l1.2-0.6l0.5-1.5h1.4v1.5h1.6v1.3h-1.6v3.7C204.4,514.1,204.6,514.3,205.1,514.3z"/>
		<path class="st5" d="M211.3,508.3c0.2,0,0.5,0.1,0.8,0.1l-0.2,1.6c-0.2-0.1-0.4-0.1-0.6-0.1c-0.5,0-0.9,0.2-1.2,0.5
			s-0.4,0.8-0.4,1.4v3.7h-2.2v-7.1h1.8l0.2,1.1h0.1c0.2-0.4,0.5-0.8,0.8-1C210.6,508.5,210.9,508.3,211.3,508.3z"/>
		<path class="st5" d="M219.9,512.1c0,1.2-0.3,2.1-1,2.7c-0.6,0.7-1.5,1-2.6,1c-0.7,0-1.3-0.1-1.8-0.4s-1-0.7-1.2-1.3
			c-0.3-0.5-0.4-1.2-0.4-2c0-1.2,0.3-2.1,1-2.7c0.6-0.7,1.5-1,2.6-1s2,0.3,2.6,1C219.5,510,219.9,510.9,219.9,512.1z M215,512.1
			c0,0.7,0.1,1.3,0.3,1.7s0.5,0.5,1,0.5c0.9,0,1.3-0.7,1.3-2.3c0-0.7-0.1-1.3-0.3-1.6c-0.2-0.4-0.5-0.5-1-0.5s-0.8,0.2-1,0.5
			C215,510.7,215,511.3,215,512.1z"/>
		<path class="st5" d="M223.6,515.6h-2.2v-10h2.2V515.6z"/>
		<path class="st5" d="M228.8,515.7c-1.2,0-2.1-0.3-2.7-1c-0.7-0.6-1-1.5-1-2.7c0-1.2,0.3-2.1,0.9-2.7c0.6-0.7,1.4-1,2.5-1
			c1,0,1.8,0.3,2.4,0.9c0.5,0.5,0.9,1.3,0.9,2.4v0.9h-4.4c0,0.6,0.2,1.1,0.5,1.4s0.7,0.5,1.3,0.5c0.7,0,1.5-0.2,2.2-0.5v1.4
			C230.6,515.5,229.8,515.7,228.8,515.7z M228.5,509.7c-0.3,0-0.5,0.1-0.8,0.4c-0.2,0.2-0.3,0.7-0.4,1.2h2.2c0-0.5-0.1-0.9-0.3-1.2
			C229.1,509.8,228.8,509.7,228.5,509.7z"/>
		<path class="st5" d="M238.1,513.5c0,0.7-0.2,1.2-0.8,1.6c-0.5,0.4-1.3,0.6-2.3,0.6c-0.9,0-1.6-0.1-2.3-0.4v-1.5
			c0.3,0.2,0.7,0.3,1,0.4c0.4,0.1,0.7,0.2,1,0.2c0.4,0,0.6-0.1,0.8-0.2c0.2-0.1,0.2-0.3,0.2-0.5s-0.1-0.4-0.3-0.5
			c-0.2-0.2-0.5-0.4-1-0.6c-0.7-0.3-1.2-0.6-1.4-1c-0.3-0.4-0.4-0.7-0.4-1.2c0-0.6,0.2-1.1,0.8-1.5c0.5-0.4,1.3-0.5,2.2-0.5
			c0.8,0,1.6,0.2,2.3,0.5l-0.7,1.2c-0.6-0.2-1.1-0.4-1.5-0.4c-0.3,0-0.5,0.1-0.6,0.2s-0.2,0.2-0.2,0.4c0,0.2,0.1,0.4,0.2,0.5
			c0.2,0.1,0.5,0.3,1,0.5s1,0.5,1.2,0.7c0.2,0.2,0.4,0.4,0.5,0.6C238,512.9,238.1,513.2,238.1,513.5z"/>
	</g>
	<g>
		<path class="st5" d="M446.3,340.9h-8.1v-2.1l2.7-3.8c0.7-1,1.2-1.8,1.5-2.3c0.2-0.5,0.5-1,0.6-1.5s0.2-0.9,0.2-1.4s-0.1-1-0.4-1.3
			c-0.2-0.3-0.6-0.4-1-0.4s-0.7,0.1-1,0.3c-0.3,0.2-0.7,0.5-1.2,1l-1.6-1.6c0.7-0.8,1.4-1.3,2-1.6c0.6-0.3,1.3-0.4,2-0.4
			c1.2,0,2.1,0.4,2.9,1.1c0.7,0.7,1,1.7,1,3c0,0.5-0.1,1.1-0.2,1.6s-0.3,1-0.5,1.5s-0.5,1-0.9,1.6c-0.4,0.5-1.3,1.8-2.9,3.8v0.1h4.9
			V340.9L446.3,340.9L446.3,340.9z"/>
	</g>
	<g>
		<path class="st5" d="M366,467.6c0,0.9-0.2,1.7-0.7,2.4c-0.4,0.7-1.1,1.1-2,1.3v0.1c0.9,0.1,1.6,0.5,2.2,1.1
			c0.5,0.6,0.8,1.4,0.8,2.4c0,1.4-0.4,2.5-1.3,3.3s-2,1.2-3.5,1.2c-1.3,0-2.4-0.2-3.4-0.7v-2.5c0.4,0.2,0.9,0.5,1.5,0.7
			c0.5,0.2,1,0.2,1.5,0.2c0.8,0,1.4-0.2,1.8-0.5c0.4-0.4,0.6-1,0.6-1.8c0-1.5-0.9-2.3-2.7-2.3h-0.9v-2.1h0.8c0.8,0,1.5-0.2,1.9-0.5
			c0.4-0.4,0.7-1,0.7-1.7c0-0.6-0.1-1-0.4-1.3s-0.7-0.4-1.2-0.4c-0.8,0-1.5,0.3-2.3,1l-1.3-1.8c1-1,2.3-1.5,3.8-1.5
			c1.3,0,2.3,0.3,3,1C365.7,465.7,366,466.5,366,467.6z"/>
	</g>
	<g>
		<path class="st5" d="M220.1,476.1h-1.5v3.2H216v-3.2h-4.9v-2.3l4.5-9.6h3v9.6h1.5V476.1z M215.9,473.8v-3.2l0.1-1.4l0.1-1.3H216
			c-0.2,0.7-0.5,1.4-0.8,2l-1.8,3.8L215.9,473.8L215.9,473.8z"/>
	</g>
	<g>
		<path class="st5" d="M68.2,369.3V360h2.2v9.3H68.2z"/>
		<path class="st5" d="M81.9,369.3v-4.2c0-1-0.3-1.6-1-1.6c-0.5,0-0.9,0.2-1,0.5c-0.2,0.4-0.3,1-0.3,1.8v3.5h-2.2v-4.2
			c0-1-0.4-1.6-1-1.6c-0.5,0-0.8,0.2-1,0.5s-0.3,1-0.3,1.8v3.4h-2.2v-7.1h1.7l0.2,0.9h0.1c0.2-0.4,0.5-0.6,0.9-0.8
			c0.4-0.2,0.8-0.2,1.2-0.2c1.1,0,1.9,0.4,2.3,1.2h0.1c0.5-0.8,1.2-1.2,2.3-1.2c0.8,0,1.4,0.2,1.8,0.7c0.4,0.4,0.6,1.1,0.6,2v4.6
			L81.9,369.3L81.9,369.3z"/>
		<path class="st5" d="M89.9,369.5c-0.4,0-0.7-0.1-1-0.2s-0.6-0.4-0.9-0.7h-0.1c0.1,0.5,0.1,0.9,0.1,1v2.9h-2.2v-10.3h1.7l0.4,0.9
			H88c0.4-0.7,1.1-1,2-1s1.5,0.3,2,1s0.7,1.5,0.7,2.7s-0.2,2.1-0.7,2.7C91.4,369.1,90.8,369.5,89.9,369.5z M89.2,363.5
			c-0.4,0-0.7,0.2-0.9,0.5c-0.2,0.3-0.3,0.8-0.3,1.5v0.2c0,0.8,0.1,1.3,0.3,1.7c0.2,0.4,0.5,0.5,1,0.5c0.8,0,1.2-0.7,1.2-2.3
			c0-0.7-0.1-1.3-0.3-1.6C90,363.7,89.7,363.5,89.2,363.5z"/>
		<path class="st5" d="M96.4,369.3h-2.2v-10h2.2V369.3z"/>
		<path class="st5" d="M101.7,369.5c-1.2,0-2.1-0.3-2.7-1c-0.7-0.6-1-1.5-1-2.7s0.3-2.1,0.9-2.7c0.6-0.7,1.4-1,2.5-1
			c1,0,1.8,0.3,2.4,0.9c0.5,0.5,0.9,1.3,0.9,2.4v0.9h-4.4c0,0.6,0.2,1.1,0.5,1.4s0.7,0.5,1.3,0.5c0.7,0,1.5-0.2,2.2-0.5v1.4
			C103.5,369.3,102.6,369.5,101.7,369.5z M101.3,363.3c-0.3,0-0.5,0.1-0.8,0.4c-0.2,0.2-0.3,0.7-0.4,1.2h2.2c0-0.5-0.1-0.9-0.3-1.2
			C101.9,363.5,101.7,363.3,101.3,363.3z"/>
		<path class="st5" d="M115.2,369.3v-4.2c0-1-0.3-1.6-1-1.6c-0.5,0-0.9,0.2-1,0.5c-0.2,0.4-0.3,1-0.3,1.8v3.5h-2.2v-4.2
			c0-1-0.4-1.6-1-1.6c-0.5,0-0.8,0.2-1,0.5c-0.2,0.4-0.3,1-0.3,1.8v3.4h-2.2v-7.1h1.7l0.2,0.9h0.1c0.2-0.4,0.5-0.6,0.9-0.8
			c0.4-0.2,0.8-0.2,1.2-0.2c1.1,0,1.9,0.4,2.3,1.2h0.1c0.5-0.8,1.2-1.2,2.3-1.2c0.8,0,1.4,0.2,1.8,0.7c0.4,0.4,0.6,1.1,0.6,2v4.6
			L115.2,369.3L115.2,369.3z"/>
		<path class="st5" d="M122.5,369.5c-1.2,0-2.1-0.3-2.7-1c-0.7-0.6-1-1.5-1-2.7s0.3-2.1,0.9-2.7c0.6-0.7,1.4-1,2.5-1
			c1,0,1.8,0.3,2.4,0.9c0.5,0.5,0.9,1.3,0.9,2.4v0.9h-4.4c0,0.6,0.2,1.1,0.5,1.4s0.7,0.5,1.3,0.5c0.7,0,1.5-0.2,2.2-0.5v1.4
			C124.3,369.3,123.5,369.5,122.5,369.5z M122.2,363.3c-0.3,0-0.5,0.1-0.8,0.4c-0.2,0.2-0.3,0.7-0.4,1.2h2.2c0-0.5-0.1-0.9-0.3-1.2
			C122.8,363.5,122.5,363.3,122.2,363.3z"/>
		<path class="st5" d="M131.5,369.3v-4.2c0-0.5-0.1-0.9-0.2-1.2c-0.2-0.2-0.4-0.4-0.8-0.4c-0.5,0-0.8,0.2-1,0.5
			c-0.2,0.4-0.3,1-0.3,1.8v3.4H127v-7.1h1.7l0.2,0.9h0.1c0.2-0.3,0.5-0.6,0.9-0.8c0.4-0.2,0.8-0.3,1.3-0.3c0.9,0,1.5,0.2,1.9,0.7
			c0.4,0.4,0.6,1.1,0.6,2v4.6L131.5,369.3L131.5,369.3z"/>
		<path class="st5" d="M138.6,368c0.3,0,0.6-0.1,1-0.2v1.3c-0.4,0.2-0.9,0.3-1.6,0.3c-0.8,0-1.4-0.2-1.8-0.5
			c-0.4-0.4-0.5-0.9-0.5-1.6v-3.7h-0.9v-0.7l1.2-0.6l0.5-1.5h1.4v1.5h1.6v1.3h-1.6v3.7C137.9,367.7,138.1,368,138.6,368z"/>
		<path class="st5" d="M145.4,369.3l-0.4-1h-0.1c-0.3,0.4-0.7,0.7-1,0.9c-0.4,0.2-0.8,0.2-1.3,0.2c-0.7,0-1.2-0.2-1.6-0.6
			c-0.4-0.4-0.6-0.9-0.6-1.6s0.2-1.3,0.8-1.6c0.5-0.4,1.3-0.5,2.4-0.6l1.2-0.1v-0.5c0-0.7-0.4-1-1.1-1c-0.5,0-1.2,0.2-1.9,0.5
			l-0.7-1.2c0.9-0.4,1.9-0.7,3-0.7c1,0,1.7,0.2,2.2,0.7c0.5,0.4,0.7,1,0.7,1.8v4.8L145.4,369.3L145.4,369.3z M143.5,368.1
			c0.4,0,0.7-0.1,1-0.4c0.2-0.3,0.4-0.7,0.4-1.1V366h-0.7c-0.5,0-0.9,0.1-1.1,0.3c-0.2,0.2-0.4,0.5-0.4,0.9
			C142.7,367.8,143,368.1,143.5,368.1z"/>
		<path class="st5" d="M151.8,369.5c-1.1,0-2-0.3-2.5-0.9s-0.9-1.5-0.9-2.7c0-1.3,0.2-2.2,0.8-2.8c0.5-0.6,1.4-0.9,2.5-0.9
			c0.4,0,0.7,0.1,1.1,0.1c0.4,0.1,0.7,0.2,1,0.3l-0.6,1.3c-0.4-0.2-0.9-0.3-1.2-0.3c-0.5,0-0.8,0.2-1,0.5c-0.2,0.4-0.3,0.9-0.3,1.7
			c0,0.7,0.1,1.3,0.3,1.6c0.2,0.4,0.5,0.5,1,0.5s1.1-0.1,1.7-0.4v1.5C153.2,369.3,152.5,369.5,151.8,369.5z"/>
		<path class="st5" d="M155,360.4c0-0.3,0.1-0.5,0.3-0.7s0.5-0.2,0.9-0.2s0.7,0.1,0.9,0.2c0.2,0.2,0.3,0.4,0.3,0.7s-0.1,0.5-0.3,0.7
			s-0.5,0.2-0.9,0.2s-0.7-0.1-0.9-0.2C155.1,360.8,155,360.6,155,360.4z M157.2,369.3H155v-7.1h2.2V369.3z"/>
		<path class="st5" d="M165.9,365.7c0,1.2-0.3,2.1-1,2.7c-0.6,0.7-1.5,1-2.6,1c-0.7,0-1.3-0.1-1.8-0.4s-1-0.7-1.2-1.3
			c-0.3-0.5-0.4-1.2-0.4-2c0-1.2,0.3-2.1,1-2.7c0.6-0.7,1.5-1,2.6-1s2,0.3,2.6,1C165.6,363.7,165.9,364.6,165.9,365.7z M161,365.7
			c0,0.7,0.1,1.3,0.3,1.7c0.2,0.4,0.5,0.5,1,0.5c0.9,0,1.3-0.7,1.3-2.3c0-0.7-0.1-1.3-0.3-1.6c-0.2-0.4-0.5-0.5-1-0.5
			s-0.8,0.2-1,0.5C161.2,364.4,161,365,161,365.7z M161.2,361.4v-0.2c0.2-0.2,0.5-0.5,0.8-1c0.3-0.4,0.5-0.7,0.6-1h2.6v0.1
			c-0.1,0.2-0.5,0.5-1,0.9s-1,0.8-1.5,1.1L161.2,361.4L161.2,361.4z"/>
		<path class="st5" d="M172,369.3v-4.2c0-0.5-0.1-0.9-0.2-1.2s-0.4-0.4-0.8-0.4c-0.5,0-0.8,0.2-1,0.5s-0.3,1-0.3,1.8v3.4h-2.2v-7.1
			h1.7l0.2,0.9h0.1c0.2-0.3,0.5-0.6,0.9-0.8c0.4-0.2,0.8-0.3,1.3-0.3c0.9,0,1.5,0.2,1.9,0.7c0.4,0.4,0.6,1.1,0.6,2v4.6L172,369.3
			L172,369.3z"/>
		<path class="st5" d="M83.7,385.2c-0.9,0-1.5-0.3-2-1s-0.7-1.5-0.7-2.7s0.2-2.1,0.7-2.7s1.2-1,2-1c0.4,0,0.8,0.1,1.1,0.2
			c0.3,0.2,0.6,0.4,0.9,0.8h0.1c-0.1-0.7-0.1-1.1-0.1-1.3v-2.4h2.2v10h-1.6l-0.4-0.9h-0.1C85.3,384.8,84.6,385.2,83.7,385.2z
			 M84.5,383.7c0.4,0,0.7-0.1,0.9-0.4s0.3-0.8,0.3-1.6v-0.2c0-0.9-0.1-1.4-0.3-1.8c-0.2-0.4-0.5-0.5-0.9-0.5s-0.7,0.2-0.9,0.5
			c-0.2,0.4-0.3,1-0.3,1.7s0.1,1.3,0.3,1.6C83.7,383.5,84.1,383.7,84.5,383.7z"/>
		<path class="st5" d="M93.1,385.2c-1.2,0-2.1-0.3-2.7-1c-0.7-0.6-1-1.5-1-2.7s0.3-2.1,0.9-2.7c0.6-0.7,1.4-1,2.5-1
			c1,0,1.8,0.3,2.4,0.9c0.5,0.5,0.9,1.3,0.9,2.4v0.9h-4.4c0,0.6,0.2,1.1,0.5,1.4s0.7,0.5,1.3,0.5c0.7,0,1.5-0.2,2.2-0.5v1.4
			C94.9,385,94.1,385.2,93.1,385.2z M92.8,379.1c-0.3,0-0.5,0.1-0.8,0.4c-0.2,0.2-0.3,0.7-0.4,1.2h2.2c0-0.5-0.1-0.9-0.3-1.2
			C93.3,379.2,93.1,379.1,92.8,379.1z"/>
		<path class="st5" d="M104.6,385.2c-1.1,0-2-0.3-2.5-0.9s-0.9-1.5-0.9-2.7c0-1.3,0.2-2.2,0.8-2.8c0.5-0.6,1.4-0.9,2.5-0.9
			c0.4,0,0.7,0.1,1.1,0.1c0.4,0.1,0.7,0.2,1,0.3l-0.6,1.3c-0.4-0.2-0.9-0.3-1.2-0.3c-0.5,0-0.8,0.2-1,0.5c-0.2,0.4-0.3,0.9-0.3,1.7
			c0,0.7,0.1,1.3,0.3,1.6c0.2,0.4,0.5,0.5,1,0.5s1.1-0.1,1.7-0.4v1.5C106,385,105.4,385.2,104.6,385.2z"/>
		<path class="st5" d="M114.7,381.4c0,1.2-0.3,2.1-1,2.7c-0.6,0.7-1.5,1-2.6,1c-0.7,0-1.3-0.1-1.8-0.4s-1-0.7-1.2-1.3
			c-0.3-0.5-0.4-1.2-0.4-2c0-1.2,0.3-2.1,1-2.7s1.5-1,2.6-1s2,0.3,2.6,1C114.4,379.4,114.7,380.3,114.7,381.4z M109.8,381.4
			c0,0.7,0.1,1.3,0.3,1.7c0.2,0.4,0.5,0.5,1,0.5c0.9,0,1.3-0.7,1.3-2.3c0-0.7-0.1-1.3-0.3-1.6c-0.2-0.4-0.5-0.5-1-0.5
			s-0.8,0.2-1,0.5C109.9,380.1,109.8,380.7,109.8,381.4z"/>
		<path class="st5" d="M120.8,385v-4.2c0-0.5-0.1-0.9-0.2-1.2c-0.2-0.2-0.4-0.4-0.8-0.4c-0.5,0-0.8,0.2-1,0.5s-0.3,1-0.3,1.8v3.4
			h-2.2v-7.1h1.7l0.2,0.9h0.1c0.2-0.3,0.5-0.6,0.9-0.8s0.8-0.3,1.3-0.3c0.9,0,1.5,0.2,1.9,0.7c0.4,0.4,0.6,1.1,0.6,2v4.6L120.8,385
			L120.8,385z"/>
		<path class="st5" d="M128,383.7c0.3,0,0.6-0.1,1-0.2v1.3c-0.4,0.2-0.9,0.3-1.6,0.3c-0.8,0-1.4-0.2-1.8-0.5
			c-0.4-0.4-0.5-0.9-0.5-1.6v-3.7h-0.9v-0.7l1.2-0.6l0.5-1.5h1.4v1.5h1.6v1.3h-1.6v3.7C127.3,383.4,127.5,383.7,128,383.7z"/>
		<path class="st5" d="M134.2,377.8c0.2,0,0.5,0.1,0.8,0.1l-0.2,1.6c-0.2-0.1-0.4-0.1-0.6-0.1c-0.5,0-0.9,0.2-1.2,0.5
			s-0.4,0.8-0.4,1.4v3.7h-2.2v-7.1h1.8l0.2,1.1h0.1c0.2-0.4,0.5-0.8,0.8-1C133.5,377.9,133.8,377.8,134.2,377.8z"/>
		<path class="st5" d="M142.8,381.4c0,1.2-0.3,2.1-1,2.7c-0.6,0.7-1.5,1-2.6,1c-0.7,0-1.3-0.1-1.8-0.4s-1-0.7-1.2-1.3
			c-0.3-0.5-0.4-1.2-0.4-2c0-1.2,0.3-2.1,1-2.7s1.5-1,2.6-1s2,0.3,2.6,1C142.4,379.4,142.8,380.3,142.8,381.4z M137.9,381.4
			c0,0.7,0.1,1.3,0.3,1.7c0.2,0.4,0.5,0.5,1,0.5c0.9,0,1.3-0.7,1.3-2.3c0-0.7-0.1-1.3-0.3-1.6c-0.2-0.4-0.5-0.5-1-0.5
			s-0.8,0.2-1,0.5C138,380.1,137.9,380.7,137.9,381.4z"/>
		<path class="st5" d="M146.5,385h-2.2v-10h2.2V385z"/>
		<path class="st5" d="M151.7,385.2c-1.2,0-2.1-0.3-2.7-1c-0.7-0.6-1-1.5-1-2.7s0.3-2.1,0.9-2.7c0.6-0.7,1.4-1,2.5-1
			c1,0,1.8,0.3,2.4,0.9c0.5,0.5,0.9,1.3,0.9,2.4v0.9h-4.4c0,0.6,0.2,1.1,0.5,1.4s0.7,0.5,1.3,0.5c0.7,0,1.5-0.2,2.2-0.5v1.4
			C153.5,385,152.7,385.2,151.7,385.2z M151.4,379.1c-0.3,0-0.5,0.1-0.8,0.4c-0.2,0.2-0.3,0.7-0.4,1.2h2.2c0-0.5-0.1-0.9-0.3-1.2
			C152,379.2,151.8,379.1,151.4,379.1z"/>
		<path class="st5" d="M161,383c0,0.7-0.2,1.2-0.8,1.6c-0.5,0.4-1.3,0.6-2.3,0.6c-0.9,0-1.6-0.1-2.3-0.4v-1.5c0.3,0.2,0.7,0.3,1,0.4
			c0.4,0.1,0.7,0.2,1,0.2c0.4,0,0.6-0.1,0.8-0.2s0.2-0.3,0.2-0.5s-0.1-0.4-0.3-0.5c-0.2-0.2-0.5-0.4-1-0.6c-0.7-0.3-1.2-0.6-1.4-1
			c-0.3-0.4-0.4-0.7-0.4-1.2c0-0.6,0.2-1.1,0.8-1.5c0.5-0.4,1.3-0.5,2.2-0.5c0.8,0,1.6,0.2,2.3,0.5l-0.7,1.2
			c-0.6-0.2-1.1-0.4-1.5-0.4c-0.3,0-0.5,0.1-0.6,0.2s-0.2,0.2-0.2,0.4s0.1,0.4,0.2,0.5c0.2,0.1,0.5,0.3,1,0.5s1,0.5,1.2,0.7
			s0.4,0.4,0.5,0.6C161,382.3,161,382.6,161,383z"/>
	</g>
	<g>
		<path class="st5" d="M127.3,338.7c1.2,0,2,0.4,2.7,1.2c0.7,0.8,1,1.9,1,3.2c0,1.6-0.4,2.9-1.2,3.8c-0.9,0.9-2,1.3-3.5,1.3
			c-1.3,0-2.4-0.2-3.2-0.7v-2.6c0.4,0.2,0.8,0.5,1.3,0.7s1,0.3,1.5,0.3c1.5,0,2.2-0.9,2.2-2.6c0-1.6-0.7-2.4-2.1-2.4
			c-0.5,0-1.2,0.1-1.8,0.3l-0.9-0.7l0.5-7.5h6.4v2.5h-4l-0.2,3.2C126.4,338.7,126.8,338.7,127.3,338.7z"/>
	</g>
	<g>
		<path class="st5" d="M180,222.5l-2.3-7.9h-0.1c0.1,0.6,0.2,1.2,0.2,1.7v6.3h-2.1v-9.3h3.4l2.1,7.3h0.1l2-7.3h3.5v9.3h-2.1v-6.4
			c0-0.5,0.1-1,0.1-1.6h-0.1l-2.3,7.9H180L180,222.5z"/>
		<path class="st5" d="M195.6,218.9c0,1.2-0.3,2.1-1,2.7c-0.6,0.7-1.5,1-2.6,1c-0.7,0-1.3-0.1-1.8-0.4c-0.5-0.3-1-0.7-1.2-1.3
			c-0.3-0.5-0.4-1.2-0.4-2c0-1.2,0.3-2.1,1-2.7c0.6-0.7,1.5-1,2.6-1s2,0.3,2.6,1C195.3,216.9,195.6,217.8,195.6,218.9z M190.7,218.9
			c0,0.7,0.1,1.3,0.3,1.7s0.5,0.5,1,0.5c0.9,0,1.3-0.7,1.3-2.3c0-0.7-0.1-1.3-0.3-1.6c-0.2-0.4-0.5-0.5-1-0.5s-0.8,0.2-1,0.5
			C190.9,217.6,190.7,218.2,190.7,218.9z"/>
		<path class="st5" d="M201.7,222.5v-4.2c0-0.5-0.1-0.9-0.2-1.2c-0.2-0.2-0.4-0.4-0.8-0.4c-0.5,0-0.8,0.2-1,0.5
			c-0.2,0.4-0.3,1-0.3,1.8v3.4h-2.2v-7.1h1.7l0.2,0.9h0.1c0.2-0.3,0.5-0.6,0.9-0.8s0.8-0.3,1.3-0.3c0.9,0,1.5,0.2,1.9,0.7
			s0.6,1.1,0.6,2v4.6L201.7,222.5L201.7,222.5z"/>
		<path class="st5" d="M205.6,213.5c0-0.3,0.1-0.5,0.3-0.7s0.5-0.2,0.9-0.2s0.7,0.1,0.9,0.2s0.3,0.4,0.3,0.7s-0.1,0.5-0.3,0.7
			s-0.5,0.2-0.9,0.2s-0.7-0.1-0.9-0.2C205.8,214,205.6,213.8,205.6,213.5z M207.9,222.5h-2.2v-7.1h2.2V222.5z"/>
		<path class="st5" d="M213,221.2c0.3,0,0.6-0.1,1-0.2v1.3c-0.4,0.2-0.9,0.3-1.6,0.3c-0.8,0-1.4-0.2-1.8-0.5s-0.5-0.9-0.5-1.6v-3.7
			h-0.9v-0.7l1.2-0.6l0.5-1.5h1.4v1.5h1.6v1.3h-1.6v3.7C212.2,220.9,212.5,221.2,213,221.2z"/>
		<path class="st5" d="M222.1,218.9c0,1.2-0.3,2.1-1,2.7c-0.6,0.7-1.5,1-2.6,1c-0.7,0-1.3-0.1-1.8-0.4c-0.5-0.3-1-0.7-1.2-1.3
			c-0.3-0.5-0.4-1.2-0.4-2c0-1.2,0.3-2.1,1-2.7c0.6-0.7,1.5-1,2.6-1s2,0.3,2.6,1C221.8,216.9,222.1,217.8,222.1,218.9z M217.2,218.9
			c0,0.7,0.1,1.3,0.3,1.7s0.5,0.5,1,0.5c0.9,0,1.3-0.7,1.3-2.3c0-0.7-0.1-1.3-0.3-1.6c-0.2-0.4-0.5-0.5-1-0.5s-0.8,0.2-1,0.5
			C217.3,217.6,217.2,218.2,217.2,218.9z"/>
		<path class="st5" d="M227.5,215.2c0.2,0,0.5,0.1,0.8,0.1l-0.2,1.6c-0.2-0.1-0.4-0.1-0.6-0.1c-0.5,0-0.9,0.2-1.2,0.5
			s-0.4,0.8-0.4,1.4v3.7h-2.2v-7.1h1.8l0.2,1.1h0.1c0.2-0.4,0.5-0.8,0.8-1C226.8,215.3,227.1,215.2,227.5,215.2z"/>
		<path class="st5" d="M232.7,222.6c-1.2,0-2.1-0.3-2.7-1s-1-1.5-1-2.7s0.3-2.1,0.9-2.7c0.6-0.7,1.4-1,2.5-1c1,0,1.8,0.3,2.4,0.9
			c0.5,0.5,0.9,1.3,0.9,2.4v0.9h-4.4c0,0.6,0.2,1.1,0.5,1.4c0.3,0.3,0.7,0.5,1.3,0.5c0.7,0,1.5-0.2,2.2-0.5v1.4
			C234.5,222.5,233.7,222.6,232.7,222.6z M232.3,216.5c-0.3,0-0.5,0.1-0.8,0.4c-0.2,0.2-0.3,0.7-0.4,1.2h2.2c0-0.5-0.1-0.9-0.3-1.2
			C232.9,216.7,232.7,216.5,232.3,216.5z"/>
		<path class="st5" d="M243.9,218.9c0,1.2-0.3,2.1-1,2.7c-0.6,0.7-1.5,1-2.6,1c-0.7,0-1.3-0.1-1.8-0.4c-0.5-0.3-1-0.7-1.2-1.3
			c-0.3-0.5-0.4-1.2-0.4-2c0-1.2,0.3-2.1,1-2.7c0.6-0.7,1.5-1,2.6-1s2,0.3,2.6,1C243.5,216.9,243.9,217.8,243.9,218.9z M239,218.9
			c0,0.7,0.1,1.3,0.3,1.7c0.2,0.4,0.5,0.5,1,0.5c0.9,0,1.3-0.7,1.3-2.3c0-0.7-0.1-1.3-0.3-1.6c-0.2-0.4-0.5-0.5-1-0.5
			s-0.8,0.2-1,0.5C239.1,217.6,239,218.2,239,218.9z"/>
		<path class="st5" d="M248.7,215.4h2.3l1.3,4c0.1,0.4,0.2,0.9,0.3,1.5h0.1c0-0.1,0-0.3,0.1-0.5s0.1-0.5,0.1-0.6s0.4-1.6,1.2-4.3
			h2.3l-2.6,7.6c-0.3,0.9-0.7,1.6-1.3,2c-0.5,0.4-1.2,0.6-2.1,0.6c-0.4,0-0.8-0.1-1.2-0.1v-1.4c0.2,0.1,0.5,0.1,0.7,0.1
			c0.7,0,1.2-0.4,1.5-1.1l0.2-0.4L248.7,215.4z"/>
		<path class="st5" d="M194.1,230.9c0.2,0,0.5,0.1,0.8,0.1l-0.2,1.6c-0.2-0.1-0.4-0.1-0.6-0.1c-0.5,0-0.9,0.2-1.2,0.5
			s-0.4,0.8-0.4,1.4v3.7h-2.2V231h1.8l0.2,1.1h0.1c0.2-0.4,0.5-0.8,0.8-1C193.4,231.1,193.7,230.9,194.1,230.9z"/>
		<path class="st5" d="M199.2,238.3c-1.2,0-2.1-0.3-2.7-1s-1-1.5-1-2.7s0.3-2.1,0.9-2.7c0.6-0.7,1.4-1,2.5-1c1,0,1.8,0.3,2.4,0.9
			c0.5,0.5,0.9,1.3,0.9,2.4v0.9h-4.4c0,0.6,0.2,1.1,0.5,1.4c0.3,0.3,0.7,0.5,1.3,0.5c0.7,0,1.5-0.2,2.2-0.5v1.4
			C201.1,238.2,200.2,238.3,199.2,238.3z M198.9,232.2c-0.3,0-0.5,0.1-0.8,0.4c-0.2,0.2-0.3,0.7-0.4,1.2h2.2c0-0.5-0.1-0.9-0.3-1.2
			C199.5,232.4,199.2,232.2,198.9,232.2z"/>
		<path class="st5" d="M205.1,238.2l-2.4-7.1h2.3l1.2,4.1c0.1,0.2,0.1,0.5,0.2,0.9s0.1,0.6,0.1,0.8h0.1c0-0.1,0-0.3,0.1-0.5
			s0.1-0.5,0.1-0.7c0.1-0.2,0.5-1.7,1.3-4.6h2.3l-2.4,7.1H205.1L205.1,238.2z"/>
		<path class="st5" d="M211.1,229.2c0-0.3,0.1-0.5,0.3-0.7s0.5-0.2,0.9-0.2s0.7,0.1,0.9,0.2c0.2,0.2,0.3,0.4,0.3,0.7
			s-0.1,0.5-0.3,0.7s-0.5,0.2-0.9,0.2s-0.7-0.1-0.9-0.2C211.1,229.7,211.1,229.5,211.1,229.2z M213.3,238.2h-2.2v-7.1h2.2V238.2z"/>
		<path class="st5" d="M220.1,236.1c0,0.7-0.2,1.2-0.8,1.6c-0.5,0.4-1.3,0.6-2.3,0.6c-0.9,0-1.6-0.1-2.3-0.4v-1.5
			c0.3,0.2,0.7,0.3,1,0.4c0.4,0.1,0.7,0.2,1,0.2c0.4,0,0.6-0.1,0.8-0.2c0.2-0.1,0.2-0.3,0.2-0.5s-0.1-0.4-0.3-0.5
			c-0.2-0.2-0.5-0.4-1-0.6c-0.7-0.3-1.2-0.6-1.4-1c-0.3-0.4-0.4-0.7-0.4-1.2c0-0.6,0.2-1.1,0.8-1.5c0.5-0.4,1.3-0.5,2.2-0.5
			c0.8,0,1.6,0.2,2.3,0.5l-0.7,1.2c-0.6-0.2-1.1-0.4-1.5-0.4c-0.3,0-0.5,0.1-0.6,0.2c-0.1,0.1-0.2,0.2-0.2,0.4s0.1,0.4,0.2,0.5
			c0.2,0.1,0.5,0.3,1,0.5s1,0.5,1.2,0.7s0.4,0.4,0.5,0.6C220.1,235.5,220.1,235.8,220.1,236.1z"/>
		<path class="st5" d="M221.5,229.2c0-0.3,0.1-0.5,0.3-0.7s0.5-0.2,0.9-0.2s0.7,0.1,0.9,0.2c0.2,0.2,0.3,0.4,0.3,0.7
			s-0.1,0.5-0.3,0.7s-0.5,0.2-0.9,0.2s-0.7-0.1-0.9-0.2C221.6,229.7,221.5,229.5,221.5,229.2z M223.7,238.2h-2.2v-7.1h2.2V238.2z"/>
		<path class="st5" d="M232.4,234.6c0,1.2-0.3,2.1-1,2.7c-0.6,0.7-1.5,1-2.6,1c-0.7,0-1.3-0.1-1.8-0.4c-0.5-0.3-1-0.7-1.2-1.3
			c-0.3-0.5-0.4-1.2-0.4-2c0-1.2,0.3-2.1,1-2.7c0.7-0.6,1.5-1,2.6-1s2,0.3,2.6,1C232.1,232.6,232.4,233.5,232.4,234.6z M227.5,234.6
			c0,0.7,0.1,1.3,0.3,1.7s0.5,0.5,1,0.5c0.9,0,1.3-0.7,1.3-2.3c0-0.7-0.1-1.3-0.3-1.6c-0.2-0.4-0.5-0.5-1-0.5s-0.8,0.2-1,0.5
			C227.6,233.3,227.5,233.9,227.5,234.6z M227.7,230.3v-0.2c0.2-0.2,0.5-0.5,0.8-1c0.3-0.4,0.5-0.7,0.6-1h2.6v0.1
			c-0.1,0.2-0.5,0.5-1,0.9s-1,0.8-1.5,1.1L227.7,230.3L227.7,230.3z"/>
		<path class="st5" d="M238.5,238.2V234c0-0.5-0.1-0.9-0.2-1.2s-0.4-0.4-0.8-0.4c-0.5,0-0.8,0.2-1,0.5c-0.2,0.4-0.3,1-0.3,1.8v3.4
			H234V231h1.7l0.2,0.9h0.1c0.2-0.3,0.5-0.6,0.9-0.8s0.8-0.3,1.3-0.3c0.9,0,1.5,0.2,1.9,0.7c0.4,0.4,0.6,1.1,0.6,2v4.6L238.5,238.2
			L238.5,238.2z"/>
	</g>
	<g>
		<path class="st5" d="M215.6,196.1c0-3.1,0.5-5.3,1.4-6.7c1-1.4,2.4-2.1,4.3-2.1c0.3,0,0.6,0,0.9,0.1c0.3,0.1,0.5,0.1,0.7,0.1v2.3
			c-0.5-0.1-0.9-0.2-1.4-0.2c-0.8,0-1.4,0.2-1.9,0.5c-0.5,0.4-0.9,0.9-1.2,1.5c-0.2,0.7-0.4,1.6-0.5,2.9h0.1c0.2-0.5,0.5-1,1-1.3
			c0.4-0.3,0.9-0.4,1.5-0.4c1,0,1.8,0.4,2.4,1.2c0.5,0.8,0.9,2,0.9,3.5c0,1.6-0.4,2.9-1.1,3.8c-0.7,0.9-1.8,1.4-3,1.4
			c-1.3,0-2.4-0.5-3.1-1.6C216,199.9,215.6,198.3,215.6,196.1z M219.8,200.3c0.4,0,0.7-0.2,1-0.7s0.4-1.2,0.4-2.1
			c0-0.8-0.1-1.4-0.3-1.8c-0.2-0.4-0.5-0.7-1-0.7c-0.4,0-0.7,0.2-1,0.6c-0.2,0.4-0.4,0.9-0.4,1.6c0,1,0.1,1.8,0.4,2.3
			C219,200.1,219.3,200.3,219.8,200.3z"/>
	</g>
	<g>
		<g>
			<path class="st5" d="M230.4,144.9c1-1.3,1.6-2.7,1.6-4.5c0-1.5-0.5-2.9-1.6-4c-1.1-1.2-2.4-1.7-3.9-1.7h-8
				c0.1-0.3,0.2-0.5,0.2-0.7c0.1-0.2,0.2-0.4,0.3-0.7c0.1-0.2,0.2-0.4,0.3-0.5c0.4-0.7,0.6-1.2,0.8-1.6c0.2-0.4,0.4-1,0.5-1.8
				c0.2-0.7,0.2-1.5,0.2-2.3c0-0.5,0-0.9,0-1.2c0-0.3-0.1-0.7-0.1-1.3c-0.1-0.6-0.2-1.1-0.4-1.5c-0.1-0.4-0.4-0.9-0.7-1.3
				c-0.3-0.5-0.7-0.9-1.2-1.2c-0.4-0.3-1.4-1.1-2.3-1.1c-0.5,0-0.9,0.2-1.3,0.5c-0.4,0.4-0.7,0.9-1,1.5c-0.2,0.6-0.4,1.1-0.5,1.5
				s-0.2,1-0.4,1.8c-0.2,0.9-0.3,1.5-0.4,1.8c-0.1,0.4-0.2,0.9-0.5,1.5c-0.2,0.6-0.5,1.1-0.9,1.5c-0.6,0.7-1.6,1.8-2.9,3.6
				c-0.9,1.3-6.5,5.4-6.9,5.4c-0.5,0.1-0.9,0.2-1.2,0.6c-0.4,0.4-0.5,0.8-0.5,1.3v19.1c0,0.5,0.2,1,0.5,1.3c0.4,0.4,0.8,0.5,1.3,0.6
				c0.7,0,2.2,0.5,4.6,1.3c1.5,0.5,2.6,0.9,3.5,1.2c0.9,0.2,2,0.5,3.5,0.9c1.5,0.3,2.9,0.5,4.2,0.5h0.5h2.2h1
				c2.6-0.1,4.5-0.8,5.7-2.3c1.1-1.4,1.6-3.2,1.4-5.4c0.7-0.7,1.3-1.6,1.6-2.8s0.3-2.4,0-3.5c0.9-1.2,1.3-2.6,1.2-4.1
				C230.9,146.5,230.7,145.8,230.4,144.9z"/>
			<path class="st5" d="M196,138.5h-8.3c-0.5,0-0.9,0.2-1.3,0.5c-0.4,0.4-0.5,0.9-0.5,1.3v19.3c0,0.5,0.2,1,0.5,1.3
				c0.4,0.4,0.8,0.5,1.3,0.5h8.3c0.5,0,0.9-0.2,1.3-0.5c0.4-0.4,0.5-0.9,0.5-1.3v-19.2c0-0.5-0.2-1-0.5-1.3
				C196.9,138.7,196.5,138.5,196,138.5z"/>
		</g>
	</g>
	<g>
		<path class="st6" d="M145.2,311.4v5.2h-7c-0.9,0-1.4,1.2-0.7,1.8c0.4,0.4,0.6,0.9,0.6,1.5c0,1.2-0.9,2.1-2.1,2.1s-2.1-0.9-2.1-2.1
			c0-0.5,0.2-1,0.6-1.5c0.6-0.6,0.1-1.8-0.7-1.8H127v-5.1c0.4,0.1,0.7,0.2,1.2,0.2c2.3,0,4.2-1.9,4.2-4.2c0-2.3-1.9-4.2-4.2-4.2
			c-0.4,0-0.8,0.1-1.2,0.2v-5.2h7c0.9,0,1.4-1.2,0.7-1.8c-0.4-0.4-0.6-0.9-0.6-1.5c0-1.2,0.9-2.1,2.1-2.1s2.1,0.9,2.1,2.1
			c0,0.5-0.2,1.1-0.6,1.5c-0.6,0.6-0.1,1.8,0.7,1.8h6.8v5.1c-0.4-0.1-0.7-0.2-1.2-0.2c-2.3,0-4.2,1.9-4.2,4.2c0,2.3,1.9,4.2,4.2,4.2
			C144.5,311.5,144.8,311.5,145.2,311.4z"/>
		<path class="st6" d="M145.2,289.3v6.8h-5.1c0.1-0.4,0.2-0.7,0.2-1.2c0-2.3-1.9-4.2-4.2-4.2s-4.2,1.9-4.2,4.2
			c0,0.4,0.1,0.8,0.2,1.2h-5.2v-7c0-0.9-1.2-1.4-1.8-0.7c-0.4,0.4-0.9,0.6-1.5,0.6c-1.2,0-2.1-0.9-2.1-2.1s0.9-2.1,2.1-2.1
			c0.5,0,1.1,0.2,1.5,0.6c0.7,0.6,1.8,0.2,1.8-0.7v-6.8h18.3v7C145.2,285.8,145.2,288.4,145.2,289.3z"/>
		<path class="st6" d="M128.1,305.4c1.2,0,2.1,0.9,2.1,2.1s-0.9,2.1-2.1,2.1c-0.5,0-1.1-0.2-1.5-0.6c-0.7-0.6-1.8-0.2-1.8,0.7v6.8
			h-18.3v-18.3h5.5c-0.1,0.4-0.2,0.7-0.2,1.2c0,2.3,1.9,4.2,4.2,4.2s4.2-1.9,4.2-4.2c0-0.4-0.1-0.8-0.2-1.2h4.8v7
			c0,0.9,1.2,1.3,1.8,0.7C127,305.5,127.6,305.4,128.1,305.4z"/>
		<path class="st6" d="M124.9,291v5.2h-6.5c-0.9,0-1.4,1.2-0.7,1.8c0.4,0.4,0.6,0.9,0.6,1.5c0,1.2-0.9,2.1-2.1,2.1s-2.1-0.9-2.1-2.1
			c0-0.5,0.2-1.1,0.6-1.5c0.6-0.7,0.1-1.8-0.7-1.8h-7.3v-5.1c0.4,0.1,0.7,0.2,1.2,0.2c2.3,0,4.2-1.9,4.2-4.2c0-2.3-1.9-4.2-4.2-4.2
			c-0.4,0-0.8,0.1-1.2,0.2v-5.2h7.3c0.9,0,1.4-1.2,0.7-1.8c-0.4-0.4-0.6-0.9-0.6-1.5c0-1.2,0.9-2.1,2.1-2.1s2.1,0.9,2.1,2.1
			c0,0.5-0.2,1.1-0.6,1.5c-0.6,0.7-0.2,1.8,0.7,1.8h6.4v5.1c-0.4-0.1-0.7-0.2-1.2-0.2c-2.3,0-4.2,1.9-4.2,4.2c0,2.3,1.9,4.2,4.2,4.2
			C124.1,291.1,124.5,291.1,124.9,291z"/>
	</g>
	<g>
		<g>
			<g>
				<path class="st5" d="M210.5,396c0.1,0.1,0.2,0.2,0.3,0.2l2.4,0.1l-0.1,5.8c0,0.2,0.1,0.3,0.3,0.3l5.3,0.1c0.2,0,0.3-0.1,0.3-0.3
					l0.1-5.8l2.4,0.1c0.1,0,0.2-0.1,0.3-0.2s0-0.2-0.1-0.4l-5.3-9.1c-0.1-0.1-0.1-0.1-0.2-0.1c-0.1,0-0.2,0.1-0.2,0.1l-5.5,8.9
					C210.4,395.7,210.4,395.9,210.5,396z"/>
			</g>
		</g>
		<g>
			<g>
				<path class="st5" d="M236.2,405.1c-0.1,0.1-0.1,0.2-0.1,0.4l1.1,2.1l-5.1,2.7c-0.2,0.1-0.2,0.3-0.1,0.4l2.5,4.6
					c0.1,0.2,0.3,0.2,0.4,0.1l5.1-2.7l1.2,2.1c0.1,0.1,0.2,0.2,0.3,0.2c0.1,0,0.2-0.1,0.3-0.2l5.4-9c0-0.1,0-0.2,0-0.2
					c0-0.1-0.1-0.1-0.2-0.2l-10.4-0.4C236.4,405,236.2,405,236.2,405.1z"/>
			</g>
		</g>
		<g>
			<g>
				<path class="st5" d="M234.7,441.4l10.4-0.4c0.1,0,0.2-0.1,0.2-0.2s0.1-0.2,0-0.2l-5.4-9c-0.1-0.1-0.1-0.2-0.3-0.2
					c-0.1,0-0.2,0.1-0.3,0.2l-1.2,2.1L233,431c-0.2-0.1-0.4,0-0.4,0.1l-2.5,4.6c-0.1,0.2,0,0.4,0.1,0.4l5.1,2.7l-1.1,2.1
					c-0.1,0.1-0.1,0.2,0.1,0.4C234.5,441.4,234.6,441.5,234.7,441.4z"/>
			</g>
		</g>
		<g>
			<g>
				<path class="st5" d="M195.7,405l-10.4,0.4c-0.1,0-0.2,0.1-0.2,0.2s-0.1,0.2,0,0.2l5.4,9c0.1,0.1,0.1,0.2,0.3,0.2
					c0.1,0,0.2-0.1,0.3-0.2l1.2-2.1l5.1,2.7c0.2,0.1,0.4,0,0.4-0.1l2.5-4.6c0.1-0.2,0-0.4-0.1-0.4l-5.1-2.7l1.1-2.1
					c0.1-0.1,0.1-0.2-0.1-0.4C195.9,405,195.8,405,195.7,405z"/>
			</g>
		</g>
		<g>
			<g>
				<path class="st5" d="M197.8,441.3c0.1-0.1,0.1-0.2,0.1-0.4l-1.1-2.1l5.1-2.7c0.2-0.1,0.2-0.3,0.1-0.4l-2.5-4.6
					c-0.1-0.2-0.3-0.2-0.4-0.1l-5.1,2.7l-1.2-2.1c-0.1-0.1-0.2-0.2-0.3-0.2s-0.2,0.1-0.3,0.2l-5.4,9c0,0.1,0,0.2,0,0.2
					c0,0.1,0.1,0.1,0.2,0.2l10.4,0.4C197.6,441.5,197.8,441.4,197.8,441.3z"/>
			</g>
		</g>
		<g>
			<path class="st7" d="M204,418.6c0.5,0.2,1.1-0.1,1.3-0.7c1.6-4.9,6.2-8.2,11.4-8.2c6.6,0,12,5.4,12,12c0,5.1-2.3,8.1-4.1,10.6
				c-1.3,1.8-2.5,3.3-2.5,5.2c0,0.1,0,0.2,0,0.4h-4.3v-2.4c0-0.5-0.5-1-1-1s-1,0.5-1,1v2.4h-4.3c0-0.1,0-0.2,0-0.4
				c0-1.8-1.2-3.4-2.5-5.2c-1.3-1.8-2.9-3.8-3.7-6.7c-0.1-0.5-0.7-0.9-1.3-0.7s-0.9,0.7-0.7,1.3c0.9,3.3,2.6,5.6,4,7.5
				c1.2,1.5,2.1,2.7,2.1,3.9c0,0.5,0,1,0.1,1.5v8.7v0.1l0,0c0,0.1,0,0.1,0,0.1l0,0c0.4,1.7,1.3,3.2,2.6,4.3c1.3,1.1,3,1.7,4.8,1.7
				s3.4-0.6,4.8-1.7c1.3-1.1,2.2-2.6,2.6-4.3l0,0c0-0.1,0-0.1,0-0.1l0,0v-0.1v-8.7c0.1-0.5,0.1-0.9,0.1-1.5c0-1.2,0.9-2.4,2.1-3.9
				c1.9-2.6,4.5-6,4.5-11.8c0-7.7-6.3-14-14-14c-6,0-11.4,3.8-13.3,9.6C203.1,417.9,203.4,418.5,204,418.6z M216.6,451.9
				c-2.1,0-4-1.3-4.9-3.2h9.8C220.6,450.6,218.7,451.9,216.6,451.9z M221.9,446.6h-10.6v-2.3h10.6V446.6z M221.9,442.3h-10.6V440
				h10.6V442.3z"/>
			<path class="st7" d="M221.3,423.8c0-0.5-0.5-1-1-1h-7.4c-0.5,0-1,0.5-1,1s0.5,1,1,1h2.7v2.4c0,0.5,0.5,1,1,1s1-0.5,1-1v-2.4h2.7
				C220.9,424.9,221.3,424.4,221.3,423.8z"/>
			<path class="st7" d="M216.6,430.3c-0.5,0-1,0.5-1,1s0.5,1,1,1s1-0.5,1-1C217.7,430.8,217.2,430.3,216.6,430.3z"/>
			<path class="st7" d="M204.7,421.8c0-0.5-0.5-1-1-1s-1,0.5-1,1s0.5,1,1,1S204.7,422.3,204.7,421.8z"/>
		</g>
	</g>
	<g>
		<g>
			<g>
				<rect x="354.3" y="419.5" class="st6" width="18.2" height="2"/>
			</g>
		</g>
		<g>
			<g>
				<rect x="354.3" y="425.5" class="st6" width="18.2" height="2"/>
			</g>
		</g>
		<g>
			<g>
				<rect x="354.3" y="431.7" class="st6" width="18.2" height="2"/>
			</g>
		</g>
		<g>
			<g>
				<rect x="354.3" y="437.7" class="st6" width="18.2" height="2"/>
			</g>
		</g>
		<g>
			<g>
				<circle class="st6" cx="349.3" cy="420.5" r="1"/>
			</g>
		</g>
		<g>
			<g>
				<circle class="st6" cx="349.3" cy="426.6" r="1"/>
			</g>
		</g>
		<g>
			<g>
				<circle class="st6" cx="349.3" cy="432.6" r="1"/>
			</g>
		</g>
		<g>
			<g>
				<circle class="st6" cx="349.3" cy="438.7" r="1"/>
			</g>
		</g>
		<path class="st6" d="M380.6,409.4c0-2.3-1.8-4-4-4h-7.3h-1.5h-23.5c-2.3,0-4,1.8-4,4v36.4c0,2.3,1.8,4,4,4c9.3,0,20.7,0,32.3,0
			c2.3,0,4-1.8,4-4C380.6,434.3,380.6,423.3,380.6,409.4z M376.6,447.8c-10.8,0-21.6,0-32.3,0c-1.1,0-2-0.9-2-2v-36.4
			c0-1.1,0.9-2,2-2h23.5h1.5h7.3c1.1,0,2,0.9,2,2c0,5.8,0,32.9,0,36.4C378.6,446.9,377.7,447.8,376.6,447.8z"/>
		<rect x="340.8" y="412.3" class="st6" width="39.3" height="1.8"/>
		<g>
			<g id="XMLID_2_">
				<g>
					<circle class="st3" cx="376.9" cy="445.3" r="8.6"/>
					<path class="st5" d="M376.9,434.1c6.2,0,11.2,5,11.2,11.2s-5,11.2-11.2,11.2s-11.2-5-11.2-11.2S370.7,434.1,376.9,434.1z
						 M385.4,445.3c0-4.7-3.8-8.6-8.6-8.6s-8.6,3.8-8.6,8.6c0,4.7,3.8,8.6,8.6,8.6C381.6,453.8,385.4,450,385.4,445.3z"/>
				</g>
			</g>
			<path class="st5" d="M380,442.2l-3.4,3.4l-1.2-1.2c-0.5-0.5-1.3-0.5-1.9,0c-0.5,0.5-0.5,1.3,0,1.9l2.2,2.2
				c0.2,0.2,0.6,0.4,0.9,0.4c0.4,0,0.7-0.1,0.9-0.4l4.4-4.4c0.5-0.5,0.5-1.3,0-1.9C381.4,441.7,380.6,441.7,380,442.2z"/>
		</g>
	</g>
	<path class="st8" d="M467,304.4l-7.6-7.6c1-1.8,1.6-4,1.6-6.2c0-3.4-1.3-6.4-3.5-8.6v-10.8l0,0c0-0.2-0.1-0.5-0.3-0.7l-9.4-9.4
		c-0.2-0.2-0.4-0.3-0.7-0.3l0,0h-25.5c-1.6,0-2.9,1.3-2.9,2.9v43.4c0,1.6,1.3,2.9,2.9,2.9h33c1.6,0,2.9-1.3,2.9-2.9v-2.9l4.8,4.8
		c0.6,0.6,1.5,1,2.3,1c0.9,0,1.6-0.3,2.3-1C468.2,307.7,468.2,305.7,467,304.4z M455.6,307.1c0,0.5-0.4,1-1,1h-33c-0.5,0-1-0.4-1-1
		v-43.4c0-0.5,0.4-1,1-1h24.6v6.5c0,1.6,1.3,2.9,2.9,2.9h6.5v8.2c-2-1.4-4.5-2.2-7.1-2.2c-6.9,0-12.5,5.6-12.5,12.5
		c0,1.3,0.3,2.9,0.6,3.8c0.3,1,0.8,1.9,0.8,1.9c2.1,4,6.2,6.7,11.1,6.7c2.3,0,4.4-0.6,6.2-1.6l0.9,0.9V307.1L455.6,307.1z
		 M448.6,301.1c-5.8,0-10.6-4.7-10.6-10.6c0-5.8,4.7-10.6,10.6-10.6s10.6,4.7,10.6,10.6C459.1,296.4,454.4,301.1,448.6,301.1z"/>
	<g>
		<path class="st9" d="M279.8,7.2c0,0,79.9-1.9,156.4,42.4c79.6,46,103.4,89.7,103.4,89.7l8.2,38.8l-31.7-22.5
			c0,0-33.5-46.7-91.8-79.7c-70-39.7-143.2-39.7-143.2-39.7l32-12.1L279.8,7.2z"/>
		<path class="st9" d="M520.8,201c-48-84.2-138.4-141.3-242.3-141.9l-1.4,282L520.8,201z"/>
		<path class="st10" d="M274,7.9c0,0,79.9-1.7,156.3,42.8c79.5,46.2,103.2,89.9,103.2,89.9l8.1,38.8L510,156.8
			c0,0-33.4-46.8-91.6-79.9c-69.9-39.9-143.1-40-143.1-40l32-12.1L274,7.9z"/>
		<path class="st10" d="M512.8,199.4c-48.4-84-139.1-140.6-243-140.7v282L512.8,199.4z"/>
		<g>
			<path class="st5" d="M307.4,224.3h-6.4v-11.1h6.4v1.8h-3.8v2.6h3.5v1.8h-3.5v3.1h3.8V224.3z"/>
			<path class="st5" d="M315.1,221.8c0,0.8-0.2,1.4-1,1.9c-0.6,0.5-1.6,0.7-2.7,0.7c-1.1,0-1.9-0.1-2.7-0.5v-1.8
				c0.4,0.2,0.8,0.4,1.2,0.5c0.5,0.1,0.8,0.2,1.2,0.2c0.5,0,0.7-0.1,1-0.2c0.2-0.1,0.2-0.4,0.2-0.6s-0.1-0.5-0.4-0.6
				c-0.2-0.2-0.6-0.5-1.2-0.7c-0.8-0.4-1.4-0.7-1.7-1.2c-0.4-0.5-0.5-0.8-0.5-1.4c0-0.7,0.2-1.3,1-1.8c0.6-0.5,1.6-0.6,2.6-0.6
				c1,0,1.9,0.2,2.7,0.6l-0.8,1.4c-0.7-0.2-1.3-0.5-1.8-0.5c-0.4,0-0.6,0.1-0.7,0.2c-0.1,0.1-0.2,0.2-0.2,0.5s0.1,0.5,0.2,0.6
				c0.2,0.1,0.6,0.4,1.2,0.6c0.6,0.2,1.2,0.6,1.4,0.8c0.2,0.2,0.5,0.5,0.6,0.7C314.9,220.9,315.1,221.4,315.1,221.8z"/>
			<path class="st5" d="M320.6,222.7c0.4,0,0.7-0.1,1.2-0.2v1.6c-0.5,0.2-1.1,0.4-1.9,0.4c-1,0-1.7-0.2-2.1-0.6
				c-0.5-0.5-0.6-1.1-0.6-1.9v-4.4h-1.1v-1l1.4-0.7l0.6-1.8h1.7v1.8h1.9v1.6h-1.9v4.4C319.7,222.5,320,222.7,320.6,222.7z"/>
			<path class="st5" d="M328.7,224.3l-0.5-1.2h-0.1c-0.4,0.5-0.8,0.8-1.2,1.1c-0.5,0.2-1,0.2-1.6,0.2c-0.8,0-1.4-0.2-1.9-0.7
				c-0.5-0.5-0.7-1.1-0.7-1.9c0-0.8,0.2-1.6,1-1.9c0.6-0.5,1.6-0.6,2.9-0.7l1.4-0.1v-0.6c0-0.8-0.5-1.2-1.3-1.2
				c-0.6,0-1.4,0.2-2.3,0.6l-0.8-1.4c1.1-0.5,2.3-0.8,3.6-0.8c1.2,0,2,0.2,2.6,0.8s0.8,1.2,0.8,2.1v5.7L328.7,224.3L328.7,224.3z
				 M326.4,222.8c0.5,0,0.8-0.1,1.2-0.5c0.4-0.4,0.5-0.8,0.5-1.3v-0.7h-0.8c-0.6,0-1.1,0.1-1.3,0.4s-0.5,0.6-0.5,1.1
				C325.5,222.5,325.9,222.8,326.4,222.8z"/>
			<path class="st5" d="M337.7,215.6c1.1,0,1.8,0.4,2.4,1.2c0.6,0.8,0.8,1.8,0.8,3.2s-0.2,2.5-0.8,3.2c-0.6,0.7-1.4,1.2-2.4,1.2
				c-0.5,0-1-0.1-1.3-0.2c-0.4-0.1-0.7-0.5-1.1-0.8h-0.1l-0.5,1h-1.9v-11.9h2.6v2.7c0,0.1,0,0.2,0,0.4c0,0.1-0.1,0.6-0.1,1.3h0.1
				c0.2-0.5,0.6-0.8,1.1-1C336.7,215.7,337.2,215.6,337.7,215.6z M336.7,217.3c-0.5,0-0.8,0.1-1.1,0.5c-0.2,0.4-0.4,1.1-0.4,1.9v0.2
				c0,1.1,0.1,1.7,0.4,2.1c0.2,0.5,0.6,0.6,1.1,0.6c1,0,1.4-0.8,1.4-2.7C338.2,218.2,337.7,217.3,336.7,217.3z"/>
			<path class="st5" d="M345.3,224.3h-2.6v-11.9h2.6V224.3z"/>
			<path class="st5" d="M351.6,224.4c-1.4,0-2.5-0.4-3.2-1.2c-0.8-0.7-1.2-1.8-1.2-3.2s0.4-2.5,1.1-3.2c0.7-0.8,1.7-1.2,3-1.2
				c1.2,0,2.1,0.4,2.9,1.1c0.6,0.6,1.1,1.6,1.1,2.9v1.1h-5.3c0,0.7,0.2,1.3,0.6,1.7c0.4,0.4,0.8,0.6,1.6,0.6c0.8,0,1.8-0.2,2.6-0.6
				v1.7C353.8,224.3,352.8,224.4,351.6,224.4z M351.2,217.2c-0.4,0-0.6,0.1-1,0.5c-0.2,0.2-0.4,0.8-0.5,1.4h2.6
				c0-0.6-0.1-1.1-0.4-1.4C351.9,217.3,351.7,217.2,351.2,217.2z"/>
			<path class="st5" d="M360.5,224.4c-1.3,0-2.4-0.4-3-1.1c-0.6-0.7-1.1-1.8-1.1-3.2c0-1.6,0.2-2.6,1-3.3c0.6-0.7,1.7-1.1,3-1.1
				c0.5,0,0.8,0.1,1.3,0.1c0.5,0.1,0.8,0.2,1.2,0.4l-0.7,1.6c-0.5-0.2-1.1-0.4-1.4-0.4c-0.6,0-1,0.2-1.2,0.6c-0.2,0.5-0.4,1.1-0.4,2
				c0,0.8,0.1,1.6,0.4,1.9c0.2,0.5,0.6,0.6,1.2,0.6s1.3-0.1,2-0.5v1.8C362.1,224.3,361.4,224.4,360.5,224.4z"/>
			<path class="st5" d="M364.2,213.5c0-0.4,0.1-0.6,0.4-0.8c0.2-0.2,0.6-0.2,1.1-0.2s0.8,0.1,1.1,0.2c0.2,0.2,0.4,0.5,0.4,0.8
				s-0.1,0.6-0.4,0.8c-0.2,0.2-0.6,0.2-1.1,0.2s-0.8-0.1-1.1-0.2C364.3,214.1,364.2,213.9,364.2,213.5z M367,224.3h-2.6v-8.5h2.6
				V224.3z"/>
			<path class="st5" d="M380.1,224.3v-5c0-1.2-0.4-1.9-1.2-1.9c-0.6,0-1.1,0.2-1.2,0.6c-0.2,0.5-0.4,1.2-0.4,2.1v4.2h-2.6v-5
				c0-1.2-0.5-1.9-1.2-1.9c-0.6,0-1,0.2-1.2,0.6c-0.2,0.5-0.4,1.2-0.4,2.1v4.1h-2.6v-8.5h2l0.2,1.1h0.1c0.2-0.5,0.6-0.7,1.1-1
				c0.5-0.2,1-0.2,1.4-0.2c1.3,0,2.3,0.5,2.7,1.4h0.1c0.6-1,1.4-1.4,2.7-1.4c1,0,1.7,0.2,2.1,0.8s0.7,1.3,0.7,2.4v5.5L380.1,224.3
				L380.1,224.3z"/>
			<path class="st5" d="M384.8,213.5c0-0.4,0.1-0.6,0.4-0.8s0.6-0.2,1.1-0.2s0.8,0.1,1.1,0.2c0.2,0.2,0.4,0.5,0.4,0.8
				s-0.1,0.6-0.4,0.8c-0.2,0.2-0.6,0.2-1.1,0.2s-0.8-0.1-1.1-0.2C384.9,214.1,384.8,213.9,384.8,213.5z M387.5,224.3h-2.6v-8.5h2.6
				V224.3z"/>
			<path class="st5" d="M393.7,224.4c-1.4,0-2.5-0.4-3.2-1.2c-0.8-0.7-1.2-1.8-1.2-3.2s0.4-2.5,1.1-3.2c0.7-0.8,1.7-1.2,3-1.2
				c1.2,0,2.1,0.4,2.9,1.1c0.6,0.6,1.1,1.6,1.1,2.9v1.1H392c0,0.7,0.2,1.3,0.6,1.7c0.4,0.4,0.8,0.6,1.6,0.6c0.8,0,1.8-0.2,2.6-0.6
				v1.7C396,224.3,394.9,224.4,393.7,224.4z M393.4,217.2c-0.4,0-0.6,0.1-1,0.5c-0.2,0.2-0.4,0.8-0.5,1.4h2.6c0-0.6-0.1-1.1-0.4-1.4
				C394.1,217.3,393.7,217.2,393.4,217.2z"/>
			<path class="st5" d="M404.5,224.3v-5c0-0.6-0.1-1.1-0.2-1.4c-0.2-0.2-0.5-0.5-1-0.5c-0.6,0-1,0.2-1.2,0.6
				c-0.2,0.5-0.4,1.2-0.4,2.1v4.1h-2.6v-8.5h2l0.2,1.1h0.1c0.2-0.4,0.6-0.7,1.1-1c0.5-0.2,1-0.4,1.6-0.4c1.1,0,1.8,0.2,2.3,0.8
				c0.5,0.5,0.7,1.3,0.7,2.4v5.5L404.5,224.3L404.5,224.3z"/>
			<path class="st5" d="M413.1,222.7c0.4,0,0.7-0.1,1.2-0.2v1.6c-0.5,0.2-1.1,0.4-1.9,0.4c-1,0-1.7-0.2-2.1-0.6
				c-0.5-0.5-0.6-1.1-0.6-1.9v-4.4h-1.2v-1l1.4-0.7l0.6-1.8h1.7v1.8h1.9v1.6h-1.9v4.4C412.1,222.5,412.5,222.7,413.1,222.7z"/>
			<path class="st5" d="M423.9,220c0,1.4-0.4,2.5-1.2,3.2c-0.7,0.8-1.8,1.2-3.1,1.2c-0.8,0-1.6-0.1-2.1-0.5
				c-0.6-0.4-1.2-0.8-1.4-1.6c-0.4-0.6-0.5-1.4-0.5-2.4c0-1.4,0.4-2.5,1.2-3.2c0.7-0.8,1.8-1.2,3.1-1.2s2.4,0.4,3.1,1.2
				C423.5,217.6,423.9,218.7,423.9,220z M418.1,220c0,0.8,0.1,1.6,0.4,2c0.2,0.5,0.6,0.6,1.2,0.6c1.1,0,1.6-0.8,1.6-2.7
				c0-0.8-0.1-1.6-0.4-1.9c-0.2-0.5-0.6-0.6-1.2-0.6s-1,0.2-1.2,0.6C418.1,218.4,418.1,219.1,418.1,220z"/>
			<path class="st5" d="M317.3,243.1c-1.1,0-1.8-0.4-2.4-1.2c-0.6-0.8-0.8-1.8-0.8-3.2s0.2-2.5,0.8-3.2s1.4-1.2,2.4-1.2
				c0.5,0,1,0.1,1.3,0.2c0.4,0.2,0.7,0.5,1.1,1h0.1c-0.1-0.8-0.1-1.3-0.1-1.6v-2.9h2.6V243h-1.9l-0.5-1.1h-0.1
				C319.1,242.8,318.2,243.1,317.3,243.1z M318,241.5c0.5,0,0.8-0.1,1.1-0.5c0.2-0.4,0.4-1,0.4-1.9v-0.2c0-1.1-0.1-1.7-0.4-2.1
				c-0.2-0.5-0.6-0.6-1.1-0.6c-0.5,0-0.8,0.2-1.1,0.6c-0.2,0.5-0.4,1.2-0.4,2c0,0.8,0.1,1.6,0.4,1.9
				C317.2,241.3,317.5,241.5,318,241.5z"/>
			<path class="st5" d="M328.4,243.1c-1.4,0-2.5-0.4-3.2-1.2c-0.8-0.7-1.2-1.8-1.2-3.2s0.4-2.5,1.1-3.2c0.7-0.8,1.7-1.2,3-1.2
				c1.2,0,2.1,0.4,2.9,1.1c0.6,0.6,1.1,1.6,1.1,2.9v1.1h-5.3c0,0.7,0.2,1.3,0.6,1.7c0.4,0.4,0.8,0.6,1.6,0.6c0.8,0,1.8-0.2,2.6-0.6
				v1.7C330.5,243,329.6,243.1,328.4,243.1z M327.9,236c-0.4,0-0.6,0.1-1,0.5c-0.2,0.2-0.4,0.8-0.5,1.4h2.6c0-0.6-0.1-1.1-0.4-1.4
				C328.6,236.1,328.4,236,327.9,236z"/>
			<path class="st5" d="M336.2,243h-2.6v-11.9h2.6V243z"/>
			<path class="st5" d="M347,243.1c-1.3,0-2.4-0.4-3-1.1c-0.6-0.7-1.1-1.8-1.1-3.2c0-1.6,0.2-2.6,1-3.3c0.6-0.7,1.7-1.1,3-1.1
				c0.5,0,0.8,0.1,1.3,0.1c0.5,0.1,0.8,0.2,1.2,0.4l-0.7,1.6c-0.5-0.2-1.1-0.4-1.4-0.4c-0.6,0-1,0.2-1.2,0.6c-0.2,0.5-0.4,1.1-0.4,2
				c0,0.8,0.1,1.6,0.4,1.9c0.2,0.4,0.6,0.6,1.2,0.6s1.3-0.1,2-0.5v1.8C348.6,243,347.9,243.1,347,243.1z"/>
			<path class="st5" d="M359,238.8c0,1.4-0.4,2.5-1.2,3.2c-0.7,0.8-1.8,1.2-3.1,1.2c-0.8,0-1.6-0.1-2.1-0.5
				c-0.6-0.4-1.2-0.8-1.4-1.6c-0.4-0.6-0.5-1.4-0.5-2.4c0-1.4,0.4-2.5,1.2-3.2c0.8-0.7,1.8-1.2,3.1-1.2s2.4,0.4,3.1,1.2
				C358.6,236.3,359,237.4,359,238.8z M353.1,238.8c0,0.8,0.1,1.6,0.4,2c0.2,0.5,0.6,0.6,1.2,0.6c1.1,0,1.6-0.8,1.6-2.7
				c0-0.8-0.1-1.6-0.4-1.9c-0.2-0.5-0.6-0.6-1.2-0.6s-1,0.2-1.2,0.6C353.2,237.2,353.1,237.9,353.1,238.8z"/>
			<path class="st5" d="M366.3,243v-5c0-0.6-0.1-1.1-0.2-1.4c-0.2-0.2-0.5-0.5-1-0.5c-0.6,0-1,0.2-1.2,0.6c-0.2,0.5-0.4,1.2-0.4,2.1
				v4.1h-2.6v-8.5h2l0.2,1.1h0.1c0.2-0.4,0.6-0.7,1.1-1c0.5-0.2,1-0.4,1.6-0.4c1.1,0,1.8,0.2,2.3,0.8c0.5,0.6,0.7,1.3,0.7,2.4v5.5
				L366.3,243L366.3,243z"/>
			<path class="st5" d="M374.8,241.5c0.4,0,0.7-0.1,1.2-0.2v1.6c-0.5,0.2-1.1,0.4-1.9,0.4c-1,0-1.7-0.2-2.1-0.6
				c-0.5-0.5-0.6-1.1-0.6-1.9v-4.4h-1.1v-0.8l1.4-0.7l0.6-1.8h1.7v1.8h1.9v1.6H374v4.4C374,241.2,374.3,241.5,374.8,241.5z"/>
			<path class="st5" d="M381.5,243.1c-1.4,0-2.5-0.4-3.2-1.2c-0.8-0.7-1.2-1.8-1.2-3.2s0.4-2.5,1.1-3.2c0.7-0.8,1.7-1.2,3-1.2
				c1.2,0,2.1,0.4,2.9,1.1c0.6,0.6,1.1,1.6,1.1,2.9v1.1h-5.3c0,0.7,0.2,1.3,0.6,1.7c0.4,0.4,0.8,0.6,1.6,0.6c0.8,0,1.8-0.2,2.6-0.6
				v1.7C383.8,243,382.9,243.1,381.5,243.1z M381.2,236c-0.4,0-0.6,0.1-1,0.5c-0.2,0.2-0.4,0.8-0.5,1.4h2.6c0-0.6-0.1-1.1-0.4-1.4
				C381.9,236.1,381.7,236,381.2,236z"/>
			<path class="st5" d="M388.7,238.7l-2.7-4.2h2.7l1.4,2.6l1.3-2.6h2.7l-2.7,4.2l2.9,4.4h-2.7l-1.6-2.7l-1.4,2.7h-2.7L388.7,238.7z"
				/>
			<path class="st5" d="M399.3,241.5c0.4,0,0.7-0.1,1.2-0.2v1.6c-0.5,0.2-1.1,0.4-1.9,0.4c-1,0-1.7-0.2-2.1-0.6
				c-0.5-0.5-0.6-1.1-0.6-1.9v-4.4h-1.1v-0.8l1.4-0.7l0.6-1.8h1.7v1.8h1.9v1.6h-1.9v4.4C398.5,241.2,398.9,241.5,399.3,241.5z"/>
			<path class="st5" d="M410.2,238.8c0,1.4-0.4,2.5-1.2,3.2c-0.7,0.8-1.8,1.2-3.1,1.2c-0.8,0-1.6-0.1-2.1-0.5
				c-0.6-0.4-1.2-0.8-1.4-1.6c-0.4-0.6-0.5-1.4-0.5-2.4c0-1.4,0.4-2.5,1.2-3.2c0.8-0.7,1.8-1.2,3.1-1.2s2.4,0.4,3.1,1.2
				C409.8,236.3,410.2,237.4,410.2,238.8z M404.5,238.8c0,0.8,0.1,1.6,0.4,2c0.2,0.5,0.6,0.6,1.2,0.6c1.1,0,1.6-0.8,1.6-2.7
				c0-0.8-0.1-1.6-0.4-1.9c-0.2-0.5-0.6-0.6-1.2-0.6s-1,0.2-1.2,0.6C404.6,237.2,404.5,237.9,404.5,238.8z"/>
		</g>
		<g>
			<path class="st5" d="M360.4,193.2h-3.3v-10.5c0-1.2,0.1-2.5,0.1-3.9c-0.1,0.1-0.2,0.4-0.6,0.7c-0.4,0.5-1.1,1.2-2.1,2.3l-1.9-2
				l4.8-4.4h3L360.4,193.2L360.4,193.2z"/>
		</g>
		<g>
			<g>
				<path class="st5" d="M378.4,96c-4.5-4.5-10.7-7.2-17.2-7.2c-6.4,0-12.7,2.5-17.2,7.2c-8.5,8.5-9.6,24.5-2.3,34.2l19.5,28.1
					l19.5-28.1C388,120.5,386.9,104.5,378.4,96z M378.6,128.7l-17.3,25.1l-17.4-25.2c-6.6-8.7-5.6-23.2,2-30.8
					c4.1-4.1,9.6-6.3,15.4-6.3c5.9,0,11.3,2.3,15.4,6.3C384.3,105.4,385.2,119.9,378.6,128.7z"/>
			</g>
			<path class="st11" d="M379.7,125.6l-1.2-1.2v-2.9c0-0.1,0-0.2-0.1-0.4l-3.2-6.3v-3.1c0-0.2-0.1-0.5-0.4-0.6l-2.5-1.6
				c-0.2-0.1-0.5-0.1-0.6-0.1l-3,0.7l-5-2.1l-0.7-4.9l1.9-1.9h4.2l1.4,2.1c0.1,0.2,0.2,0.2,0.5,0.4l4.9,0.8c0.1,0,0.2,0,0.4,0
				l4.5-1.6C384.5,110,384.2,118.7,379.7,125.6z M376.3,96.7l-1.3,0.8l-3.7-0.7l-2.4-0.8c-0.1-0.1-0.2-0.1-0.5,0l-3.1,0.7l-1.3-0.5
				l1.1-1.9h2.7c0.1,0,0.2,0,0.4-0.1l2.9-1.4C372.9,94,374.8,95.3,376.3,96.7z M351.6,92.2l1.9,1.3c0.1,0.1,0.2,0.1,0.2,0.1l3.9,0.6
				l-0.4,1.2l-2,0.6c-0.2,0.1-0.4,0.2-0.5,0.4l-2.4,3.9l-3.8,2.3l-5.5,0.8c-0.5,0.1-0.7,0.5-0.7,0.8v2.5c0,0.2,0.1,0.5,0.2,0.6
				l1.8,1.1l1.4,2.5v1.4l-2.1-2.5l-3.1-1.9l-1.2-3.7C341.9,98.7,346.2,94.4,351.6,92.2z M349.2,119l-3.7-0.7l-1.4-2.7v-1.9l3.1-3.1
				l1.1,2.3c0.1,0.2,0.5,0.5,0.7,0.5h5.3l2.1,3.7c0.1,0.2,0.5,0.4,0.7,0.4h2.3l-0.6,2.9l-3.1,3.1c-0.1,0.1-0.2,0.4-0.2,0.6v2
				l-2.9,2.1c-0.2,0.1-0.2,0.4-0.2,0.6v2.9l-1.1-0.4l-1.4-3.6v-8C349.9,119.4,349.6,119,349.2,119z"/>
		</g>
	</g>
	<g>
		<circle class="st12" cx="282.6" cy="328.2" r="73.1"/>
		<g>
			<g>
				<g>
					<path class="st5" d="M245.7,303.6c0,5.7,4.5,10.8,11.4,13.1c-0.9,3.4-1.6,4.7-1.9,4.9c-0.9,0.4-0.8,1.3-0.7,1.5
						c0.1,0.2,0.3,1,1.3,1l0,0c1.3,0,9.2-1.7,11.7-6c7.1-0.5,13.1-3.6,15.9-8.1c0.7,0.1,1.3,0.2,2,0.2c2.7,5,11.7,6.9,13.2,6.9
						c1.1,0,1.3-0.7,1.4-1c0.1-0.2,0.2-1-0.8-1.5c-0.3-0.2-1.2-1.8-2.2-5.9c8-2.6,13.1-8.4,13.1-14.9c0-9-10.1-16.4-22.4-16.4
						c-7.5,0-14.5,2.6-18.6,7c-1.3,1.5-2.4,3.1-3,4.7c-0.2,0-0.4,0-0.6,0C254.6,289.1,245.7,295.6,245.7,303.6z M298.8,314.7
						L298.8,314.7v1.2V314.7z M255.9,322.9v-1.2l0,0V322.9z M267.8,293.8c-0.1-2.8,0.9-5.4,3.1-7.8c3.7-3.9,10-6.2,16.9-6.2
						c11.1,0,20,6.3,20,14c0,5.7-4.9,10.8-12.4,13c-0.6,0.2-1,0.8-0.9,1.4c0.7,2.9,1.3,4.8,1.8,6c-3.1-0.8-7.8-2.7-8.9-5.7
						c-0.2-0.4-0.6-0.7-1-0.7C276.1,307.3,268.1,301.3,267.8,293.8z"/>
				</g>
				<g id="XMLID_8_">
					<g>
						<path class="st5" d="M280.8,309.6c-2.7,3.5-8,5.8-14.1,6.1c-0.5,0-0.9,0.3-1,0.7c-1,2.4-4.8,4-7.5,4.8c0.4-1.1,1-2.7,1.5-5
							c0.1-0.6-0.2-1.2-0.9-1.4c-6.5-1.9-10.8-6.3-10.8-11.2c0-6.7,7.7-12,17.2-12.1c-0.1,0.7-0.2,1.5-0.2,2.3
							C265.1,301,271.7,307.4,280.8,309.6z"/>
					</g>
				</g>
			</g>
			<circle class="st5" cx="280.2" cy="295.7" r="3"/>
			<circle class="st5" cx="289.2" cy="295.7" r="3"/>
			<circle class="st5" cx="298.2" cy="295.7" r="3"/>
		</g>
		<g>
			<path class="st5" d="M242.5,352.3c-0.7,0-1.2,0.3-1.5,0.9c-0.4,0.6-0.5,1.4-0.5,2.4c0,2.1,0.7,3.2,2.2,3.2c0.6,0,1.3-0.2,2-0.5
				v1.5c-0.6,0.3-1.3,0.4-2.3,0.4c-1.3,0-2.4-0.4-3.1-1.3s-1.1-2-1.1-3.5s0.4-2.7,1.1-3.5c0.7-0.9,1.8-1.3,3.1-1.3
				c0.4,0,0.9,0.1,1.3,0.1c0.4,0.1,0.9,0.2,1.3,0.5l-0.7,1.4c-0.2-0.1-0.5-0.2-0.8-0.4C243.2,352.4,242.8,352.3,242.5,352.3z"/>
			<path class="st5" d="M253,356.7c0,1.2-0.3,2.1-1,2.7c-0.6,0.7-1.5,1-2.6,1c-0.7,0-1.3-0.1-1.8-0.4s-1-0.7-1.2-1.3
				c-0.3-0.5-0.4-1.2-0.4-2c0-1.2,0.3-2.1,1-2.7c0.6-0.7,1.5-1,2.6-1s2,0.3,2.6,1C252.7,354.7,253,355.6,253,356.7z M248.2,356.7
				c0,0.7,0.1,1.3,0.3,1.7c0.2,0.4,0.5,0.5,1,0.5c0.9,0,1.3-0.7,1.3-2.3c0-0.7-0.1-1.3-0.3-1.6c-0.2-0.4-0.5-0.5-1-0.5
				s-0.8,0.2-1,0.5C248.3,355.4,248.2,356,248.2,356.7z"/>
			<path class="st5" d="M263.7,360.3v-4.2c0-1-0.3-1.6-1-1.6c-0.5,0-0.9,0.2-1,0.5c-0.2,0.4-0.3,1-0.3,1.8v3.5h-2.2v-4.2
				c0-1-0.4-1.6-1-1.6c-0.5,0-0.8,0.2-1,0.5c-0.2,0.4-0.3,1-0.3,1.8v3.4h-2.2v-7.1h1.7l0.2,0.9h0.1c0.2-0.4,0.5-0.6,0.9-0.8
				c0.4-0.2,0.8-0.2,1.2-0.2c1.1,0,1.9,0.4,2.3,1.2h0.1c0.5-0.8,1.2-1.2,2.3-1.2c0.8,0,1.4,0.2,1.8,0.7c0.4,0.4,0.6,1.1,0.6,2v4.6
				L263.7,360.3L263.7,360.3z"/>
			<path class="st5" d="M272.6,360.3l-0.2-0.9h-0.1c-0.2,0.3-0.5,0.5-0.9,0.8c-0.4,0.2-0.8,0.3-1.3,0.3c-0.8,0-1.5-0.2-1.9-0.7
				c-0.4-0.4-0.6-1.1-0.6-2v-4.6h2.2v4.2c0,0.5,0.1,0.9,0.2,1.2c0.2,0.2,0.4,0.4,0.8,0.4c0.5,0,0.8-0.2,1-0.5c0.2-0.4,0.3-1,0.3-1.8
				v-3.4h2.2v7.1L272.6,360.3L272.6,360.3z"/>
			<path class="st5" d="M280.8,360.3v-4.2c0-0.5-0.1-0.9-0.2-1.2c-0.2-0.2-0.4-0.4-0.8-0.4c-0.5,0-0.8,0.2-1,0.5
				c-0.2,0.4-0.3,1-0.3,1.8v3.4h-2.2v-7.1h1.7l0.2,0.9h0.1c0.2-0.3,0.5-0.6,0.9-0.8c0.4-0.2,0.8-0.3,1.3-0.3c0.9,0,1.5,0.2,1.9,0.7
				c0.4,0.4,0.6,1.1,0.6,2v4.6L280.8,360.3L280.8,360.3z"/>
			<path class="st5" d="M284.7,351.3c0-0.3,0.1-0.5,0.3-0.7c0.2-0.2,0.5-0.2,0.9-0.2s0.7,0.1,0.9,0.2c0.2,0.2,0.3,0.4,0.3,0.7
				c0,0.3-0.1,0.5-0.3,0.7c-0.2,0.2-0.5,0.2-0.9,0.2s-0.7-0.1-0.9-0.2C284.8,351.8,284.7,351.6,284.7,351.3z M287,360.3h-2.2v-7.1
				h2.2V360.3z"/>
			<path class="st5" d="M291.9,360.4c-1.1,0-2-0.3-2.5-0.9s-0.9-1.5-0.9-2.7c0-1.3,0.2-2.2,0.8-2.8s1.4-0.9,2.5-0.9
				c0.4,0,0.7,0.1,1.1,0.1c0.4,0.1,0.7,0.2,1,0.3l-0.6,1.3c-0.4-0.2-0.9-0.3-1.2-0.3c-0.5,0-0.8,0.2-1,0.5c-0.2,0.4-0.3,0.9-0.3,1.7
				c0,0.7,0.1,1.3,0.3,1.6c0.2,0.4,0.5,0.5,1,0.5s1.1-0.1,1.7-0.4v1.5C293.3,360.3,292.6,360.4,291.9,360.4z"/>
			<path class="st5" d="M299.6,360.3l-0.4-1h-0.1c-0.3,0.4-0.7,0.7-1,0.9c-0.4,0.2-0.8,0.2-1.3,0.2c-0.7,0-1.2-0.2-1.6-0.6
				s-0.6-0.9-0.6-1.6s0.2-1.3,0.8-1.6c0.5-0.4,1.3-0.5,2.4-0.6l1.2-0.1v-0.5c0-0.7-0.4-1-1.1-1c-0.5,0-1.2,0.2-1.9,0.5l-0.7-1.2
				c0.9-0.4,1.9-0.7,3-0.7c1,0,1.7,0.2,2.2,0.7c0.5,0.4,0.7,1,0.7,1.8v4.8L299.6,360.3L299.6,360.3z M297.7,359.1
				c0.4,0,0.7-0.1,1-0.4s0.4-0.7,0.4-1.1V357h-0.7c-0.5,0-0.9,0.1-1.1,0.3s-0.4,0.5-0.4,0.9C296.9,358.8,297.2,359.1,297.7,359.1z"
				/>
			<path class="st5" d="M306,360.4c-1.1,0-2-0.3-2.5-0.9s-0.9-1.5-0.9-2.7c0-1.3,0.2-2.2,0.8-2.8s1.4-0.9,2.5-0.9
				c0.4,0,0.7,0.1,1.1,0.1c0.4,0.1,0.7,0.2,1,0.3l-0.6,1.3c-0.4-0.2-0.9-0.3-1.2-0.3c-0.5,0-0.8,0.2-1,0.5c-0.2,0.4-0.3,0.9-0.3,1.7
				c0,0.7,0.1,1.3,0.3,1.6s0.5,0.5,1,0.5s1.1-0.1,1.7-0.4v1.5C307.4,360.3,306.8,360.4,306,360.4z"/>
			<path class="st5" d="M309.2,351.3c0-0.3,0.1-0.5,0.3-0.7c0.2-0.2,0.5-0.2,0.9-0.2s0.7,0.1,0.9,0.2c0.2,0.2,0.3,0.4,0.3,0.7
				c0,0.3-0.1,0.5-0.3,0.7c-0.2,0.2-0.5,0.2-0.9,0.2s-0.7-0.1-0.9-0.2S309.2,351.6,309.2,351.3z M311.5,360.3h-2.2v-7.1h2.2V360.3z"
				/>
			<path class="st5" d="M320.1,356.7c0,1.2-0.3,2.1-1,2.7c-0.6,0.7-1.5,1-2.6,1c-0.7,0-1.3-0.1-1.8-0.4s-1-0.7-1.2-1.3
				c-0.3-0.5-0.4-1.2-0.4-2c0-1.2,0.3-2.1,1-2.7c0.6-0.7,1.5-1,2.6-1s2,0.3,2.6,1C319.8,354.7,320.1,355.6,320.1,356.7z
				 M315.2,356.7c0,0.7,0.1,1.3,0.3,1.7c0.2,0.4,0.5,0.5,1,0.5c0.9,0,1.3-0.7,1.3-2.3c0-0.7-0.1-1.3-0.3-1.6c-0.2-0.4-0.5-0.5-1-0.5
				s-0.8,0.2-1,0.5C315.4,355.4,315.2,356,315.2,356.7z M315.4,352.3v-0.2c0.2-0.2,0.5-0.5,0.8-1c0.3-0.4,0.5-0.7,0.6-1h2.6v0.1
				c-0.1,0.2-0.5,0.5-1,0.9s-1,0.8-1.5,1.1L315.4,352.3L315.4,352.3z"/>
			<path class="st5" d="M326.2,360.3v-4.2c0-0.5-0.1-0.9-0.2-1.2c-0.2-0.2-0.4-0.4-0.8-0.4c-0.5,0-0.8,0.2-1,0.5
				c-0.2,0.4-0.3,1-0.3,1.8v3.4h-2.2v-7.1h1.7l0.2,0.9h0.1c0.2-0.3,0.5-0.6,0.9-0.8c0.4-0.2,0.8-0.3,1.3-0.3c0.9,0,1.5,0.2,1.9,0.7
				c0.4,0.4,0.6,1.1,0.6,2v4.6L326.2,360.3L326.2,360.3z"/>
			<path class="st5" d="M249.9,368.9h2.3l1.3,4c0.1,0.4,0.2,0.9,0.3,1.5h0.1c0-0.1,0-0.3,0.1-0.5s0.1-0.5,0.1-0.6s0.4-1.6,1.2-4.3
				h2.3l-2.6,7.6c-0.3,0.9-0.7,1.6-1.3,2c-0.5,0.4-1.2,0.6-2.1,0.6c-0.4,0-0.8-0.1-1.2-0.1v-1.4c0.2,0.1,0.5,0.1,0.7,0.1
				c0.7,0,1.2-0.4,1.5-1.1l0.2-0.4L249.9,368.9z"/>
			<path class="st5" d="M265.5,376.1c-1.1,0-2-0.3-2.5-0.9s-0.9-1.5-0.9-2.7c0-1.3,0.2-2.2,0.8-2.8s1.4-0.9,2.5-0.9
				c0.4,0,0.7,0.1,1.1,0.1c0.4,0.1,0.7,0.2,1,0.3l-0.6,1.3c-0.4-0.2-0.9-0.3-1.2-0.3c-0.5,0-0.8,0.2-1,0.5c-0.2,0.4-0.3,0.9-0.3,1.7
				c0,0.7,0.1,1.3,0.3,1.6c0.2,0.4,0.5,0.5,1,0.5s1.1-0.1,1.7-0.4v1.5C266.9,376,266.2,376.1,265.5,376.1z"/>
			<path class="st5" d="M275.5,372.5c0,1.2-0.3,2.1-1,2.7c-0.6,0.7-1.5,1-2.6,1c-0.7,0-1.3-0.1-1.8-0.4s-1-0.7-1.2-1.3
				c-0.3-0.5-0.4-1.2-0.4-2c0-1.2,0.3-2.1,1-2.7c0.6-0.7,1.5-1,2.6-1s2,0.3,2.6,1C275.2,370.4,275.5,371.3,275.5,372.5z
				 M270.6,372.5c0,0.7,0.1,1.3,0.3,1.7c0.2,0.4,0.5,0.5,1,0.5c0.9,0,1.3-0.7,1.3-2.3c0-0.7-0.1-1.3-0.3-1.6c-0.2-0.4-0.5-0.5-1-0.5
				s-0.8,0.2-1,0.5C270.8,371.1,270.6,371.7,270.6,372.5z"/>
			<path class="st5" d="M281.6,376v-4.2c0-0.5-0.1-0.9-0.2-1.2c-0.2-0.2-0.4-0.4-0.8-0.4c-0.5,0-0.8,0.2-1,0.5
				c-0.2,0.4-0.3,1-0.3,1.8v3.4h-2.2v-7.1h1.7l0.2,0.9h0.1c0.2-0.3,0.5-0.6,0.9-0.8s0.8-0.3,1.3-0.3c0.9,0,1.5,0.2,1.9,0.7
				c0.4,0.4,0.6,1.1,0.6,2v4.6L281.6,376L281.6,376z"/>
			<path class="st5" d="M290.6,373.9c0,0.7-0.2,1.2-0.8,1.6c-0.5,0.4-1.3,0.6-2.3,0.6c-0.9,0-1.6-0.1-2.3-0.4v-1.5
				c0.3,0.2,0.7,0.3,1,0.4c0.4,0.1,0.7,0.2,1,0.2c0.4,0,0.6-0.1,0.8-0.2c0.2-0.1,0.2-0.3,0.2-0.5s-0.1-0.4-0.3-0.5
				c-0.2-0.2-0.5-0.4-1-0.6c-0.7-0.3-1.2-0.6-1.4-1c-0.3-0.4-0.4-0.7-0.4-1.2c0-0.6,0.2-1.1,0.8-1.5c0.5-0.4,1.3-0.5,2.2-0.5
				c0.8,0,1.6,0.2,2.3,0.5l-0.7,1.2c-0.6-0.2-1.1-0.4-1.5-0.4c-0.3,0-0.5,0.1-0.6,0.2s-0.2,0.2-0.2,0.4s0.1,0.4,0.2,0.5
				c0.2,0.1,0.5,0.3,1,0.5s1,0.5,1.2,0.7s0.4,0.4,0.5,0.6C290.5,373.3,290.6,373.6,290.6,373.9z"/>
			<path class="st5" d="M296.9,376l-0.2-0.9h-0.1c-0.2,0.3-0.5,0.5-0.9,0.8c-0.4,0.2-0.8,0.3-1.3,0.3c-0.8,0-1.5-0.2-1.9-0.7
				c-0.4-0.4-0.6-1.1-0.6-2v-4.6h2.2v4.2c0,0.5,0.1,0.9,0.2,1.2c0.2,0.2,0.4,0.4,0.8,0.4c0.5,0,0.8-0.2,1-0.5c0.2-0.4,0.3-1,0.3-1.8
				V369h2.2v7.1L296.9,376L296.9,376z"/>
			<path class="st5" d="M302.7,376h-2.2v-10h2.2V376z"/>
			<path class="st5" d="M307.7,374.7c0.3,0,0.6-0.1,1-0.2v1.3c-0.4,0.2-0.9,0.3-1.6,0.3c-0.8,0-1.4-0.2-1.8-0.5
				c-0.4-0.4-0.5-0.9-0.5-1.6v-3.7h-0.9v-0.7l1.2-0.6l0.5-1.5h1.4v1.5h1.6v1.3H307v3.7C307,374.5,307.2,374.7,307.7,374.7z"/>
			<path class="st5" d="M314.5,376l-0.4-1H314c-0.3,0.4-0.7,0.7-1,0.9c-0.4,0.2-0.8,0.2-1.3,0.2c-0.7,0-1.2-0.2-1.6-0.6
				s-0.6-0.9-0.6-1.6s0.2-1.3,0.8-1.6c0.5-0.4,1.3-0.5,2.4-0.6l1.2-0.1v-0.5c0-0.7-0.4-1-1.1-1c-0.5,0-1.2,0.2-1.9,0.5l-0.7-1.2
				c0.9-0.4,1.9-0.7,3-0.7c1,0,1.7,0.2,2.2,0.7c0.5,0.4,0.7,1,0.7,1.8v4.8L314.5,376L314.5,376z M312.6,374.8c0.4,0,0.7-0.1,1-0.4
				c0.2-0.3,0.4-0.7,0.4-1.1v-0.7h-0.7c-0.5,0-0.9,0.1-1.1,0.3s-0.4,0.5-0.4,0.9C311.8,374.5,312.1,374.8,312.6,374.8z"/>
		</g>
		<g>
			<path class="st5" d="M279.3,338.5l4.2-12.5h-5.3v-2.5h8.1v1.9l-4.2,13.1H279.3z"/>
		</g>
	</g>
</g>
</svg>
