<?xml version="1.0" encoding="utf-8"?>
<!-- Generator: Adobe Illustrator 23.1.1, SVG Export Plug-In . SVG Version: 6.00 Build 0)  -->
<svg version="1.1" id="Layer_1" xmlns="http://www.w3.org/2000/svg" xmlns:xlink="http://www.w3.org/1999/xlink" x="0px" y="0px"
	 width="120px" height="120px" viewBox="0 0 120 120" style="enable-background:new 0 0 120 120;" xml:space="preserve">
<style type="text/css">
	.st0{fill:#03AA6F;}
	.st1{fill:#86DAF1;}
</style>
<title>Artboard 23</title>
<g>
	<g>
		<path class="st0" d="M97.3,24.5L92,28l-8.9-1.8l-5.3-1.8l-7.1,1.8l-5.3-1.8l3.6-7.1H76l7-3.5C88.3,16.6,93.2,20.1,97.3,24.5z"/>
		<path class="st0" d="M56.4,17.4l-1.8,5.3l-5.3,1.8L44,33.4l-8.9,5.3l-12.4,1.8v5.3l3.6,3.6v7.1l-5.3-3.6l-5.3-3.6l-3.1-9.3
			C17.8,27.4,28,17.4,40.7,12.2l5,3.4L56.4,17.4z"/>
		<polygon class="st0" points="60,67.1 58.2,76 51.1,83.1 51.1,88.4 44,93.8 44,102.7 38.7,100.9 35.1,92 35.1,74.2 26.2,72.5 
			22.7,65.3 22.7,60 26.2,56.5 31.6,51.1 35.1,58.2 47.6,58.2 52.9,67.1 		"/>
		<path class="st0" d="M104.9,34.8c9.7,17.3,8.6,38.6-2.8,54.8l-4.8-4.8v-7.1l-3.6-7.1l-3.6-7.1v-7.1l-5.3-3.6l-7.1,1.8l-12.4-5.3
			l-1.8-12.4l5.3-5.3h10.7l3.6,5.3l10.7,1.8l10.7-3.6L104.9,34.8z"/>
	</g>
	<path class="st1" d="M70.7,26.3l7.1-1.8l5.3,1.8L92,28l5.3-3.6c3,3.1,5.5,6.6,7.6,10.4l-0.5,0.3l-10.7,3.6l-10.7-1.8l-3.6-5.3H68.9
		l-5.3,5.3l1.8,12.4l12.4,5.3l7.1-1.8l5.3,3.6v7.1l3.6,7.1l3.6,7.1v7.1l4.8,4.8c-16.4,23.2-48.6,28.8-71.8,12.4
		c-19.7-13.9-27.2-39.7-17.8-62l3.1,9.3l5.3,3.6l5.3,3.6L22.7,60v5.3l3.6,7.1l8.9,1.8V92l3.6,8.9l5.3,1.8v-8.9l7.1-5.3v-5.3l7.1-7.1
		l1.8-8.9h-7.1l-5.3-8.9H35.1l-3.6-7.1l-5.3,5.3v-7.1l-3.6-3.6v-5.3l12.4-1.8l8.9-5.3l5.3-8.9l5.3-1.8l1.8-5.3l-10.7-1.8l-5-3.4
		c13.7-5.5,29-4.9,42.2,1.7l-7,3.5h-7.1l-3.6,7.1L70.7,26.3z"/>
</g>
</svg>
