<?xml version="1.0" encoding="utf-8"?>
<!-- Generator: Adobe Illustrator 23.1.1, SVG Export Plug-In . SVG Version: 6.00 Build 0)  -->
<svg version="1.1" id="Layer_1" xmlns="http://www.w3.org/2000/svg" xmlns:xlink="http://www.w3.org/1999/xlink" x="0px" y="0px"
	 width="70px" height="70px" viewBox="0 0 70 70" style="enable-background:new 0 0 70 70;" xml:space="preserve">
<style type="text/css">
	.st0{fill:#FFFFFF;}
	.st1{fill:#FFFFFF;stroke:#FFFFFF;stroke-width:1.2432;stroke-linecap:round;stroke-linejoin:round;stroke-miterlimit:10;}
</style>
<title>Artboard 23 copy 4</title>
<g>
	<g>
		<path class="st0" d="M49.9,11.2C45.9,7.2,40.6,5,35,5c-5.6,0-10.9,2.2-14.9,6.2c-7.3,7.3-8.3,21.2-2,29.5L35,65l16.8-24.3
			C58.1,32.3,57.2,18.5,49.9,11.2z M50,39.4L35,61.1L19.9,39.4c-5.7-7.6-4.9-20.1,1.7-26.7C25.2,9.1,30,7.2,35,7.2s9.8,2,13.3,5.5
			C54.9,19.3,55.8,31.8,50,39.4z"/>
	</g>
	<path class="st1" d="M51,36.7l-1.1-1.1v-2.5c0-0.1,0-0.2-0.1-0.3l-2.8-5.5v-2.7c0-0.2-0.1-0.5-0.3-0.6l-2.1-1.4
		c-0.2-0.1-0.4-0.1-0.6-0.1l-2.6,0.6l-4.4-1.9l-0.6-4.2l1.7-1.7h3.6l1.2,1.8c0.1,0.2,0.3,0.3,0.5,0.3l4.2,0.7c0.1,0,0.2,0,0.3,0
		l3.9-1.3C55.2,23.2,54.8,30.8,51,36.7z M48.1,11.8l-1.1,0.8l-3.2-0.6l-2.1-0.7c-0.1,0-0.3,0-0.4,0l-2.6,0.7l-1.2-0.4l0.9-1.7h2.4
		c0.1,0,0.2,0,0.3-0.1l2.4-1.2C45.2,9.4,46.7,10.5,48.1,11.8z M26.6,7.8L28.3,9c0.1,0.1,0.2,0.1,0.3,0.1L32,9.6l-0.3,1l-1.8,0.6
		c-0.2,0.1-0.3,0.2-0.4,0.3l-2,3.4l-3.3,2l-4.8,0.7c-0.3,0-0.6,0.3-0.6,0.7v2.1c0,0.2,0.1,0.4,0.2,0.5l1.6,0.9l1.2,2.2v1.2L20,23
		l-2.7-1.7l-1.1-3.2C18.2,13.5,22,9.8,26.6,7.8z M24.6,31l-3.2-0.6L20.2,28v-1.7l2.6-2.6l1,2c0.1,0.2,0.4,0.4,0.6,0.4H29l1.9,3.2
		c0.1,0.2,0.4,0.3,0.6,0.3h2L33,32.1l-2.7,2.7c-0.1,0.1-0.2,0.3-0.2,0.5V37l-2.5,1.9c-0.2,0.1-0.3,0.3-0.3,0.6V42l-0.9-0.3l-1.2-3.1
		v-6.9C25.2,31.4,24.9,31.1,24.6,31z"/>
</g>
</svg>
