<?xml version="1.0" encoding="utf-8"?>
<!-- Generator: Adobe Illustrator 23.1.1, SVG Export Plug-In . SVG Version: 6.00 Build 0)  -->
<svg version="1.1" id="Layer_1" xmlns="http://www.w3.org/2000/svg" xmlns:xlink="http://www.w3.org/1999/xlink" x="0px" y="0px"
	 width="120px" height="120px" viewBox="0 0 120 120" style="enable-background:new 0 0 120 120;" xml:space="preserve">
<style type="text/css">
	.st0{fill:#A4CC39;}
	.st1{clip-path:url(#SVGID_2_);fill:#A4CC39;}
	.st2{clip-path:url(#SVGID_4_);fill:#00A14B;}
	.st3{fill:#00A14B;}
	.st4{fill:#2175BA;}
	.st5{fill:#2BAAE1;}
	.st6{fill:#1E75BA;}
</style>
<title>Artboard 23</title>
<g>
	<path class="st0" d="M34.8,91.7c-0.1,0-0.3,0-0.4-0.1c-8-6.5-12.6-16.2-12.5-26.8c0.1-10.6,4.8-20.3,12.9-26.6
		c0.3-0.2,0.6-0.2,0.8,0.1c0.2,0.3,0.2,0.6-0.1,0.8c-7.8,6.1-12.3,15.5-12.4,25.7C23,75,27.4,84.4,35.2,90.6
		c0.2,0.2,0.3,0.6,0.1,0.8C35.2,91.6,35,91.7,34.8,91.7"/>
	<g>
		<g>
			<defs>
				<rect id="SVGID_1_" x="29.9" y="29.6" width="68.2" height="68.2"/>
			</defs>
			<clipPath id="SVGID_2_">
				<use xlink:href="#SVGID_1_"  style="overflow:visible;"/>
			</clipPath>
			<path class="st1" d="M64,97.7c-12.7,0-24.9-7.1-30.7-19.2c-1.1-2.2-1.9-4.5-2.5-6.9c-0.5-2.1-0.8-4.3-0.9-6.4
				c0-0.3,0.2-0.6,0.6-0.6c0.3,0,0.6,0.2,0.6,0.6c0.1,2.1,0.4,4.2,0.9,6.2c0.6,2.3,1.4,4.5,2.4,6.7c7.9,16.3,27.6,23.2,44,15.3
				c7.9-3.8,13.9-10.5,16.8-18.8c2.9-8.3,2.4-17.2-1.5-25.2c-5.3-10.9-16.1-18.1-28.3-18.6c-0.3,0-0.6-0.3-0.6-0.6
				c0-0.3,0.3-0.6,0.6-0.6c12.6,0.5,23.8,7.9,29.3,19.2c4,8.2,4.5,17.4,1.5,26c-3,8.6-9.2,15.5-17.4,19.5C74,96.6,69,97.7,64,97.7"
				/>
		</g>
	</g>
	<g>
		<g>
			<defs>
				<rect id="SVGID_3_" x="32.3" y="21.5" width="59" height="68.2"/>
			</defs>
			<clipPath id="SVGID_4_">
				<use xlink:href="#SVGID_3_"  style="overflow:visible;"/>
			</clipPath>
			<path class="st2" d="M66.4,89.7c-4.5,0-9.1-0.9-13.4-2.7c-8.4-3.6-14.9-10.2-18.2-18.6c-3.4-8.4-3.3-17.7,0.3-26.1
				c3.6-8.4,10.2-14.9,18.6-18.2c8.5-3.4,17.7-3.3,26.1,0.3c2.3,1,4.4,2.2,6.4,3.6c1.8,1.3,3.4,2.7,4.9,4.3c0.2,0.2,0.2,0.6,0,0.8
				c-0.2,0.2-0.6,0.2-0.8,0c-1.4-1.5-3-2.9-4.7-4.1c-1.9-1.4-4-2.5-6.2-3.5c-8.1-3.5-17-3.6-25.2-0.3c-8.2,3.3-14.6,9.5-18,17.6
				c-3.5,8.1-3.6,17-0.3,25.2c3.3,8.2,9.5,14.6,17.6,18c11.2,4.8,24,3,33.5-4.6c0.3-0.2,0.6-0.2,0.8,0.1c0.2,0.3,0.2,0.6-0.1,0.8
				C81.5,87.2,74,89.7,66.4,89.7"/>
		</g>
	</g>
	<path class="st3" d="M22.3,51.8c0-8.5,6.9-15.3,15.3-15.3c8.5,0,15.3,6.9,15.3,15.3c0,8.5-6.9,15.3-15.3,15.3
		C29.2,67.2,22.3,60.3,22.3,51.8"/>
	<path class="st3" d="M57,43.9c0-8.5,6.9-15.3,15.3-15.3c8.5,0,15.3,6.9,15.3,15.3c0,8.5-6.9,15.3-15.3,15.3
		C63.9,59.2,57,52.3,57,43.9"/>
	<path class="st0" d="M69.2,87.2c-0.7-6.4,4-12.2,10.4-12.8c6.4-0.7,12.2,4,12.8,10.4c0.7,6.4-4,12.2-10.4,12.8
		C75.7,98.2,69.9,93.6,69.2,87.2"/>
	<path class="st0" d="M58.8,22.7c0-6.5,5.2-11.7,11.7-11.7c6.5,0,11.7,5.2,11.7,11.7c0,6.5-5.2,11.7-11.7,11.7
		C64.1,34.4,58.8,29.1,58.8,22.7"/>
	<path class="st0" d="M30.5,100.5c0-6.5,5.2-11.7,11.7-11.7c6.5,0,11.7,5.2,11.7,11.7c0,6.5-5.2,11.7-11.7,11.7
		C35.7,112.2,30.5,107,30.5,100.5"/>
	<path class="st4" d="M53.1,75.8c0-2.2,1.8-4,4-4c2.2,0,4,1.8,4,4c0,2.2-1.8,4-4,4C54.9,79.7,53.1,78,53.1,75.8"/>
	<path class="st5" d="M105.6,33.4c-0.3,0-0.5-0.2-0.6-0.5c-1.9-15.8-15.4-28.3-31.3-29c-0.3,0-0.6-0.3-0.6-0.6
		c0-0.3,0.3-0.6,0.6-0.6c16.5,0.7,30.5,13.6,32.4,30C106.2,33.1,106,33.4,105.6,33.4C105.6,33.4,105.6,33.4,105.6,33.4"/>
	<path class="st5" d="M84.3,75.3c0-7.4,6-13.3,13.3-13.3c7.4,0,13.3,6,13.3,13.3c0,7.4-6,13.3-13.3,13.3
		C90.3,88.6,84.3,82.6,84.3,75.3"/>
	<path class="st5" d="M94.9,28c0-4.9,4-8.9,8.9-8.9c4.9,0,8.9,4,8.9,8.9c0,4.9-4,8.9-8.9,8.9C98.9,36.9,94.9,32.9,94.9,28"/>
	<path class="st5" d="M36.3,22.7c0-2.2,1.8-4,4-4c2.2,0,4,1.8,4,4c0,2.2-1.8,4-4,4C38.1,26.7,36.3,24.9,36.3,22.7"/>
	<path class="st3" d="M74.9,117c-1.4-0.6-2.1-2.2-1.5-3.7c0.6-1.4,2.2-2.1,3.7-1.5c1.4,0.6,2.1,2.2,1.5,3.7
		C78,116.9,76.3,117.6,74.9,117"/>
	<path class="st6" d="M60.5,95.9c0-4.9,4-8.9,8.9-8.9c4.9,0,8.9,4,8.9,8.9c0,4.9-4,8.9-8.9,8.9C64.4,104.8,60.5,100.8,60.5,95.9"/>
	<path class="st6" d="M14.9,79.8c0-4.9,4-8.9,8.9-8.9c4.9,0,8.9,4,8.9,8.9c0,4.9-4,8.9-8.9,8.9C18.9,88.7,14.9,84.7,14.9,79.8"/>
	<path class="st3" d="M9.1,34.6C7.7,34,7,32.3,7.6,30.8c0.6-1.5,2.3-2.2,3.7-1.6c1.5,0.6,2.2,2.3,1.6,3.7
		C12.2,34.5,10.6,35.2,9.1,34.6"/>
</g>
</svg>
