<?xml version="1.0" encoding="utf-8"?>
<!-- Generator: Adobe Illustrator 23.1.1, SVG Export Plug-In . SVG Version: 6.00 Build 0)  -->
<svg version="1.1" id="Layer_1" xmlns="http://www.w3.org/2000/svg" xmlns:xlink="http://www.w3.org/1999/xlink" x="0px" y="0px"
	 width="70px" height="70px" viewBox="0 0 70 70" style="enable-background:new 0 0 70 70;" xml:space="preserve">
<style type="text/css">
	.st0{fill:#FFFFFF;stroke:#FFFFFF;stroke-width:1.4703;stroke-miterlimit:10;}
</style>
<title>Artboard 23 copy 4</title>
<path class="st0" d="M63.8,58.2l-9.3-9.3c1.3-2.2,2-4.8,2-7.6c0-4.1-1.6-7.8-4.2-10.5V17.7c0,0,0,0,0,0c0-0.3-0.1-0.6-0.3-0.8
	L40.5,5.3C40.3,5.1,40,5,39.7,5c0,0,0,0,0,0H8.5C6.6,5,5,6.6,5,8.5v53C5,63.4,6.6,65,8.5,65h40.3c1.9,0,3.5-1.6,3.5-3.5V58l5.9,5.9
	C59,64.6,60,65,61,65c1,0,2-0.4,2.8-1.2C65.4,62.3,65.4,59.8,63.8,58.2z M50,61.5c0,0.6-0.5,1.2-1.2,1.2H8.5c-0.6,0-1.2-0.5-1.2-1.2
	v-53c0-0.6,0.5-1.2,1.2-1.2h30v8c0,1.9,1.6,3.5,3.5,3.5h8v10c-2.5-1.7-5.4-2.7-8.7-2.7c-8.4,0-15.2,6.8-15.2,15.2
	c0,1.6,0.4,3.5,0.7,4.7c0.4,1.2,0.9,2.3,1,2.3c2.5,4.9,7.7,8.2,13.5,8.2c2.8,0,5.4-0.7,7.6-2l1.1,1.1V61.5z M41.3,54.2
	c-7.1,0-12.9-5.8-12.9-12.9s5.8-12.9,12.9-12.9s12.9,5.8,12.9,12.9S48.4,54.2,41.3,54.2z"/>
</svg>
