<?xml version="1.0" encoding="UTF-8" standalone="no"?>
<!DOCTYPE svg PUBLIC "-//W3C//DTD SVG 1.1//EN" "http://www.w3.org/Graphics/SVG/1.1/DTD/svg11.dtd">
<svg width="100%" height="100%" viewBox="0 0 170 190" version="1.1" xmlns="http://www.w3.org/2000/svg" xmlns:xlink="http://www.w3.org/1999/xlink" xml:space="preserve" xmlns:serif="http://www.serif.com/" style="fill-rule:evenodd;clip-rule:evenodd;stroke-linecap:round;stroke-miterlimit:10;">
    <g>
        <path d="M11,36L85,7L160,36" style="fill:none;fill-rule:nonzero;stroke:black;stroke-width:1px;"/>
        <rect x="10" y="35" width="150" height="150" style="fill:rgb(71,162,158);stroke:white;stroke-width:6px;stroke-linecap:butt;"/>
        <rect x="10" y="35" width="150" height="150" style="fill:white;fill-opacity:0.5;"/>
        <circle cx="86" cy="8" r="3" style="fill:rgb(35,31,32);"/>
        <g>
            <path d="M144.3,184L119.2,184L15,38L40.1,38L144.3,184Z" style="fill:white;fill-opacity:0.3;fill-rule:nonzero;"/>
            <path d="M158,176.3L158,184L155.4,184L51.2,38L59.3,38L158,176.3Z" style="fill:white;fill-opacity:0.3;fill-rule:nonzero;"/>
            <path d="M158,163.1L158,168.8L64.7,38L68.7,38L158,163.1Z" style="fill:white;fill-opacity:0.3;fill-rule:nonzero;"/>
        </g>
        <g>
            <path d="M107.1,114.4L96.7,109.8C96,109.5 95.5,108.7 95.5,107.9L95.5,105.1C99,102.3 101.2,98.1 101.2,93.3L101.2,89.3C102.3,88.7 103.1,87.4 103.1,86.1L103.1,85.7C103.1,77.4 96.3,70.6 88,70.6L84.2,70.6C75.9,70.6 69.1,77.4 69.1,85.7L69.1,89.2C69.1,90.4 69.6,91.5 70.5,92.2C70.7,92.3 70.8,92.4 71,92.5L71,93.3C71,98.1 73.2,102.4 76.7,105.1L76.7,107.9C76.7,108.7 76.2,109.4 75.5,109.8L65.1,114.4C61.7,115.9 59.5,119.3 59.5,123L59.5,146.6C59.5,147.6 60.3,148.4 61.3,148.4C62.3,148.4 63.1,147.6 63.1,146.6L63.1,123L63.1,122.4L67.9,127.2C68.6,127.9 69.1,128.9 69.1,130L69.1,146.7C69.1,147.7 69.9,148.5 70.9,148.5C71.9,148.5 72.7,147.7 72.7,146.7L72.7,130C72.7,128 71.9,126.1 70.5,124.7L64.8,119C65.3,118.5 65.9,118 66.6,117.7L76.8,113.2L84.4,120.8L84.4,146.7C84.4,147.7 85.2,148.5 86.2,148.5C87.2,148.5 88,147.7 88,146.7L88,120.8L95.6,113.2L105.8,117.7C106.5,118 107.1,118.5 107.6,119L101.9,124.7C100.5,126.1 99.7,128 99.7,130L99.7,146.7C99.7,147.7 100.5,148.5 101.5,148.5C102.5,148.5 103.3,147.7 103.3,146.7L103.3,130C103.3,128.9 103.7,128 104.5,127.2L109.3,122.4L109.3,146.6C109.3,147.6 110.1,148.4 111.1,148.4C112.1,148.4 112.9,147.6 112.9,146.6L112.9,123C112.7,119.3 110.5,115.9 107.1,114.4ZM86.1,117.4L79.5,110.8C80,110 80.3,109 80.3,107.9L80.3,107.2C82.1,108 84.1,108.4 86.1,108.4C88.1,108.4 90.1,108 91.9,107.2L91.9,107.9C91.9,108.9 92.2,109.9 92.7,110.8L86.1,117.4ZM86.1,104.8C79.7,104.8 74.5,99.6 74.5,93.2L74.5,92.4C75.6,92 76.7,91.3 77.7,90.3C78.4,89.6 78.5,88.5 77.8,87.8C77.1,87.1 76,87 75.3,87.7C74.4,88.5 73.5,89.1 72.7,89.3L72.7,89.1L72.7,85.6C72.7,79.2 77.9,74 84.3,74L88,74C94.4,74 99.6,79.2 99.6,85.6L99.6,86C99.6,86.1 99.6,86.1 99.5,86.1C88.8,88.2 83.5,84.2 81.7,82.4C81,81.7 79.9,81.7 79.2,82.4C78.5,83.1 78.5,84.2 79.2,84.9C84.7,90.4 92.8,90.5 97.7,89.9L97.7,93.1C97.7,99.7 92.5,104.8 86.1,104.8Z" style="fill:white;fill-rule:nonzero;"/>
            <path d="M57.4,104.7L57.4,100.9C57.4,96.2 55,92.2 51.3,89.8C51.5,89.1 51.6,88.3 51.6,87.6C51.6,83.5 48.2,80.1 44.1,80.1C40,80.1 36.6,83.5 36.6,87.6C36.6,88.4 36.7,89.1 36.9,89.8C33.3,92.2 30.8,96.3 30.8,100.9L30.8,104.7C30.8,109.2 33.1,113.2 36.5,115.6L36.5,119.5C36.5,120.3 36.1,121 35.4,121.3L29.2,124.4C26.6,125.7 25.1,128.2 25.1,131.1L25.1,146.6C25.1,147.6 25.9,148.4 26.9,148.4C27.9,148.4 28.7,147.6 28.7,146.6L28.7,131.8L31.6,134.7C32.3,135.4 32.8,136.4 32.8,137.5L32.8,146.6C32.8,147.6 33.6,148.4 34.6,148.4C35.6,148.4 36.4,147.6 36.4,146.6L36.4,137.5C36.4,135.5 35.6,133.6 34.2,132.2L30.2,128.2L30.1,128.1C30.4,127.9 30.6,127.7 31,127.5L37.2,124.4C37.5,124.2 37.8,124.1 38.1,123.8L42.5,128.2L42.5,146.5C42.5,147.5 43.3,148.3 44.3,148.3C45.3,148.3 46.1,147.5 46.1,146.5L46.1,128.2L50.5,123.8C50.8,124 51.1,124.2 51.4,124.4L53.1,125.3C53.4,125.4 53.6,125.5 53.9,125.5C54.6,125.5 55.2,125.1 55.5,124.5C55.9,123.6 55.6,122.5 54.7,122.1L53,121.2C52.3,120.9 51.9,120.2 51.9,119.4L51.9,115.5C55.2,113.2 57.4,109.2 57.4,104.7ZM44.2,83.6C46.4,83.6 48.1,85.4 48.1,87.5C48.1,87.7 48.1,88 48,88.2C46.8,87.8 45.5,87.6 44.1,87.6C42.8,87.6 41.5,87.8 40.2,88.2C40.2,88 40.1,87.7 40.1,87.5C40.3,85.4 42,83.6 44.2,83.6ZM44.2,91.3C49.5,91.3 53.9,95.6 53.9,101L53.9,101.6C46.5,103.9 42.1,98.2 41.9,98C41.6,97.6 41.1,97.3 40.6,97.3C40.1,97.3 39.6,97.5 39.2,97.8C37.5,99.5 35.8,100.3 34.6,100.7C34.7,95.5 39,91.3 44.2,91.3ZM44.2,125.1L40.1,121C40.2,120.5 40.3,120.1 40.3,119.6L40.3,117.4C41.5,117.8 42.9,118 44.2,118C45.5,118 46.9,117.8 48.1,117.4L48.1,119.6C48.1,120.1 48.2,120.6 48.3,121L44.2,125.1ZM44.2,114.4C38.9,114.4 34.5,110.1 34.5,104.7L34.5,104.3C35.9,104 38,103.2 40.2,101.4C41,102.1 42.1,103 43.5,103.8C45.2,104.7 47.5,105.6 50.3,105.6C51.4,105.6 52.5,105.5 53.7,105.2C53.6,110.3 49.4,114.4 44.2,114.4Z" style="fill:white;fill-rule:nonzero;"/>
            <path d="M142.9,120.6L132.9,115.6C132.2,115.3 131.8,114.6 131.8,113.8L131.8,111.3C134.1,109.2 135.6,106.2 135.6,102.8L135.6,100.8L135.7,100.8C136.7,100.8 137.5,100 137.5,99L137.5,95.2C137.5,89 132.4,83.9 126.2,83.9L122.4,83.9C116.2,83.9 111.1,89 111.1,95.2L111.1,99C111.1,100 111.9,100.8 112.9,100.8L113,100.8L113,102.8C113,106.2 114.5,109.2 116.8,111.3L116.8,113.8C116.8,114.6 116.4,115.3 115.7,115.6C114.8,116 114.5,117.1 114.9,118C115.2,118.6 115.8,119 116.5,119C116.8,119 117,118.9 117.3,118.8C117.6,118.6 117.9,118.5 118.2,118.2L122.6,122.6L122.6,146.6C122.6,147.6 123.4,148.4 124.4,148.4C125.4,148.4 126.2,147.6 126.2,146.6L126.2,122.6L130.6,118.2C130.9,118.4 131.2,118.6 131.5,118.8L141.2,123.6L138.3,126.5C136.9,127.9 136.1,129.8 136.1,131.8L136.1,146.6C136.1,147.6 136.9,148.4 137.9,148.4C138.9,148.4 139.7,147.6 139.7,146.6L139.7,131.8C139.7,130.7 140.1,129.8 140.9,129L143.7,126.2C143.8,126.5 143.8,126.9 143.8,127.2L143.8,146.5C143.8,147.5 144.6,148.3 145.6,148.3C146.6,148.3 147.4,147.5 147.4,146.5L147.4,127.2C147,124.5 145.4,121.9 142.9,120.6ZM114.6,96.9L114.6,95.2C114.6,90.9 118.1,87.5 122.3,87.5L126.1,87.5C130.4,87.5 133.8,91 133.8,95.2L133.8,97.2C126,96.8 121.4,93.8 121.3,93.7C121,93.5 120.7,93.4 120.3,93.4C119.8,93.4 119.4,93.6 119,93.9C117.5,95.6 115.8,96.5 114.6,96.9ZM124.3,119.3L120.2,115.2C120.3,114.7 120.4,114.3 120.4,113.8L120.4,113.4C121.6,113.9 123,114.1 124.3,114.1C125.7,114.1 127,113.8 128.2,113.4L128.2,113.8C128.2,114.3 128.3,114.8 128.4,115.2L124.3,119.3ZM124.3,110.6C120,110.6 116.6,107.1 116.6,102.9L116.6,100C117.8,99.5 119.3,98.7 120.8,97.4C122.7,98.4 126.6,100.1 132.1,100.6L132.1,102.8C132,107.1 128.5,110.6 124.3,110.6Z" style="fill:white;fill-rule:nonzero;"/>
        </g>
    </g>
</svg>
