<?xml version="1.0" encoding="utf-8"?>
<!-- Generator: Adobe Illustrator 24.0.0, SVG Export Plug-In . SVG Version: 6.00 Build 0)  -->
<svg version="1.1" id="Layer_1" xmlns="http://www.w3.org/2000/svg" xmlns:xlink="http://www.w3.org/1999/xlink" x="0px" y="0px"
	 width="170px" height="190px" viewBox="0 0 170 190" style="enable-background:new 0 0 170 190;" xml:space="preserve">
<style type="text/css">
	.st0{fill:none;stroke:#000000;stroke-linecap:round;stroke-miterlimit:10;}
	.st1{fill:#47A29E;stroke:#FFFFFF;stroke-width:6;stroke-miterlimit:10;}
	.st2{fill:#231F20;}
	.st3{opacity:0.3;fill:#FFFFFF;}
	.st4{fill:#FFFFFF;}
</style>
<title>Artboard 23 copy 4</title>
<g>
	<polyline class="st0" points="11,36 85,7 160,36 	"/>
	<rect x="10" y="35" class="st1" width="150" height="150"/>
	<circle class="st2" cx="86" cy="8" r="3"/>
	<g>
		<polygon class="st3" points="144.3,184 119.2,184 15,38 40.1,38 		"/>
		<polygon class="st3" points="158,176.3 158,184 155.4,184 51.2,38 59.3,38 		"/>
		<polygon class="st3" points="158,163.1 158,168.8 64.7,38 68.7,38 		"/>
	</g>
	<g>
		<g>
			<g>
				<path class="st4" d="M107.1,114.4l-10.4-4.6c-0.7-0.3-1.2-1.1-1.2-1.9v-2.8c3.5-2.8,5.7-7,5.7-11.8v-4c1.1-0.6,1.9-1.9,1.9-3.2
					v-0.4c0-8.3-6.8-15.1-15.1-15.1h-3.8c-8.3,0-15.1,6.8-15.1,15.1v3.5c0,1.2,0.5,2.3,1.4,3c0.2,0.1,0.3,0.2,0.5,0.3v0.8
					c0,4.8,2.2,9.1,5.7,11.8v2.8c0,0.8-0.5,1.5-1.2,1.9l-10.4,4.6c-3.4,1.5-5.6,4.9-5.6,8.6v23.6c0,1,0.8,1.8,1.8,1.8
					s1.8-0.8,1.8-1.8V123c0-0.2,0-0.4,0-0.6l4.8,4.8c0.7,0.7,1.2,1.7,1.2,2.8v16.7c0,1,0.8,1.8,1.8,1.8s1.8-0.8,1.8-1.8V130
					c0-2-0.8-3.9-2.2-5.3l-5.7-5.7c0.5-0.5,1.1-1,1.8-1.3l10.2-4.5l7.6,7.6v25.9c0,1,0.8,1.8,1.8,1.8c1,0,1.8-0.8,1.8-1.8v-25.9
					l7.6-7.6l10.2,4.5c0.7,0.3,1.3,0.8,1.8,1.3l-5.7,5.7c-1.4,1.4-2.2,3.3-2.2,5.3v16.7c0,1,0.8,1.8,1.8,1.8c1,0,1.8-0.8,1.8-1.8
					V130c0-1.1,0.4-2,1.2-2.8l4.8-4.8c0,0.2,0,0.4,0,0.6v23.6c0,1,0.8,1.8,1.8,1.8s1.8-0.8,1.8-1.8V123
					C112.7,119.3,110.5,115.9,107.1,114.4z M86.1,117.4l-6.6-6.6c0.5-0.8,0.8-1.8,0.8-2.9v-0.7c1.8,0.8,3.8,1.2,5.8,1.2
					s4-0.4,5.8-1.2v0.7c0,1,0.3,2,0.8,2.9L86.1,117.4z M86.1,104.8c-6.4,0-11.6-5.2-11.6-11.6v-0.8c1.1-0.4,2.2-1.1,3.2-2.1
					c0.7-0.7,0.8-1.8,0.1-2.5c-0.7-0.7-1.8-0.8-2.5-0.1c-0.9,0.8-1.8,1.4-2.6,1.6c0,0,0,0,0,0c0,0,0-0.1,0-0.2v-3.5
					c0-6.4,5.2-11.6,11.6-11.6H88c6.4,0,11.6,5.2,11.6,11.6V86c0,0.1,0,0.1-0.1,0.1c-10.7,2.1-16-1.9-17.8-3.7
					c-0.7-0.7-1.8-0.7-2.5,0c-0.7,0.7-0.7,1.8,0,2.5c5.5,5.5,13.6,5.6,18.5,5v3.2C97.7,99.7,92.5,104.8,86.1,104.8z"/>
			</g>
		</g>
		<g>
			<g>
				<path class="st4" d="M57.4,104.7v-3.8c0-4.7-2.4-8.7-6.1-11.1c0.2-0.7,0.3-1.5,0.3-2.2c0-4.1-3.4-7.5-7.5-7.5s-7.5,3.4-7.5,7.5
					c0,0.8,0.1,1.5,0.3,2.2c-3.6,2.4-6.1,6.5-6.1,11.1v3.8c0,4.5,2.3,8.5,5.7,10.9v3.9c0,0.8-0.4,1.5-1.1,1.8l-6.2,3.1
					c-2.6,1.3-4.1,3.8-4.1,6.7v15.5c0,1,0.8,1.8,1.8,1.8s1.8-0.8,1.8-1.8v-14.8l2.9,2.9c0.7,0.7,1.2,1.7,1.2,2.8v9.1
					c0,1,0.8,1.8,1.8,1.8s1.8-0.8,1.8-1.8v-9.1c0-2-0.8-3.9-2.2-5.3l-4-4c0,0,0,0-0.1-0.1c0.3-0.2,0.5-0.4,0.9-0.6l6.2-3.1
					c0.3-0.2,0.6-0.3,0.9-0.6l4.4,4.4v18.3c0,1,0.8,1.8,1.8,1.8s1.8-0.8,1.8-1.8v-18.3l4.4-4.4c0.3,0.2,0.6,0.4,0.9,0.6l1.7,0.9
					c0.3,0.1,0.5,0.2,0.8,0.2c0.7,0,1.3-0.4,1.6-1c0.4-0.9,0.1-2-0.8-2.4l-1.7-0.9c-0.7-0.3-1.1-1-1.1-1.8v-3.9
					C55.2,113.2,57.4,109.2,57.4,104.7z M44.2,83.6c2.2,0,3.9,1.8,3.9,3.9c0,0.2,0,0.5-0.1,0.7c-1.2-0.4-2.5-0.6-3.9-0.6
					c-1.3,0-2.6,0.2-3.9,0.6c0-0.2-0.1-0.5-0.1-0.7C40.3,85.4,42,83.6,44.2,83.6z M44.2,91.3c5.3,0,9.7,4.3,9.7,9.7v0.6
					c-7.4,2.3-11.8-3.4-12-3.6c-0.3-0.4-0.8-0.7-1.3-0.7c-0.5,0-1,0.2-1.4,0.5c-1.7,1.7-3.4,2.5-4.6,2.9
					C34.7,95.5,39,91.3,44.2,91.3z M44.2,125.1l-4.1-4.1c0.1-0.5,0.2-0.9,0.2-1.4v-2.2c1.2,0.4,2.6,0.6,3.9,0.6s2.7-0.2,3.9-0.6v2.2
					c0,0.5,0.1,1,0.2,1.4L44.2,125.1z M44.2,114.4c-5.3,0-9.7-4.3-9.7-9.7v-0.4c1.4-0.3,3.5-1.1,5.7-2.9c0.8,0.7,1.9,1.6,3.3,2.4
					c1.7,0.9,4,1.8,6.8,1.8c1.1,0,2.2-0.1,3.4-0.4C53.6,110.3,49.4,114.4,44.2,114.4z"/>
			</g>
		</g>
		<g>
			<g>
				<path class="st4" d="M142.9,120.6l-10-5c-0.7-0.3-1.1-1-1.1-1.8v-2.5c2.3-2.1,3.8-5.1,3.8-8.5v-2c0,0,0.1,0,0.1,0
					c1,0,1.8-0.8,1.8-1.8v-3.8c0-6.2-5.1-11.3-11.3-11.3h-3.8c-6.2,0-11.3,5.1-11.3,11.3V99c0,1,0.8,1.8,1.8,1.8c0,0,0.1,0,0.1,0v2
					c0,3.4,1.5,6.4,3.8,8.5v2.5c0,0.8-0.4,1.5-1.1,1.8c-0.9,0.4-1.2,1.5-0.8,2.4c0.3,0.6,0.9,1,1.6,1c0.3,0,0.5-0.1,0.8-0.2
					c0.3-0.2,0.6-0.3,0.9-0.6l4.4,4.4v24c0,1,0.8,1.8,1.8,1.8s1.8-0.8,1.8-1.8v-24l4.4-4.4c0.3,0.2,0.6,0.4,0.9,0.6l9.7,4.8
					l-2.9,2.9c-1.4,1.4-2.2,3.3-2.2,5.3v14.8c0,1,0.8,1.8,1.8,1.8c1,0,1.8-0.8,1.8-1.8v-14.8c0-1.1,0.4-2,1.2-2.8l2.8-2.8
					c0.1,0.3,0.1,0.7,0.1,1v19.3c0,1,0.8,1.8,1.8,1.8c1,0,1.8-0.8,1.8-1.8v-19.3C147,124.5,145.4,121.9,142.9,120.6z M114.6,96.9
					v-1.7h0c0-4.3,3.5-7.7,7.7-7.7h3.8c4.3,0,7.7,3.5,7.7,7.7v2c-7.8-0.4-12.4-3.4-12.5-3.5c-0.3-0.2-0.6-0.3-1-0.3
					c-0.5,0-0.9,0.2-1.3,0.5C117.5,95.6,115.8,96.5,114.6,96.9z M124.3,119.3l-4.1-4.1c0.1-0.5,0.2-0.9,0.2-1.4v-0.4
					c1.2,0.5,2.6,0.7,3.9,0.7c1.4,0,2.7-0.3,3.9-0.7v0.4c0,0.5,0.1,1,0.2,1.4L124.3,119.3z M124.3,110.6c-4.3,0-7.7-3.5-7.7-7.7
					v-2.9l0,0c1.2-0.5,2.7-1.3,4.2-2.6c1.9,1,5.8,2.7,11.3,3.2v2.2C132,107.1,128.5,110.6,124.3,110.6z"/>
			</g>
		</g>
	</g>
</g>
</svg>
