<?xml version="1.0" encoding="utf-8"?>
<!-- Generator: Adobe Illustrator 23.1.1, SVG Export Plug-In . SVG Version: 6.00 Build 0)  -->
<svg version="1.1" id="Layer_1" xmlns="http://www.w3.org/2000/svg" xmlns:xlink="http://www.w3.org/1999/xlink" x="0px" y="0px"
	 width="70px" height="70px" viewBox="0 0 70 70" style="enable-background:new 0 0 70 70;" xml:space="preserve">
<style type="text/css">
	.st0{fill:none;}
	.st1{fill:#FFFFFF;stroke:#FFFFFF;stroke-width:1.4126;stroke-linecap:round;stroke-linejoin:round;stroke-miterlimit:10;}
	.st2{fill:#3C6DA4;}
	.st3{fill:#FFFFFF;}
</style>
<title>Artboard 23 copy 4</title>
<g>
	<rect x="21" y="44.8" class="st0" width="0.4" height="1.6"/>
	<g>
		<g>
			<rect x="23.5" y="21.6" class="st1" width="21.3" height="2.4"/>
		</g>
	</g>
	<g>
		<g>
			<rect x="23.5" y="28.7" class="st1" width="21.3" height="2.4"/>
		</g>
	</g>
	<g>
		<g>
			<rect x="23.5" y="35.8" class="st1" width="21.3" height="2.4"/>
		</g>
	</g>
	<g>
		<g>
			<rect x="23.5" y="42.9" class="st1" width="21.3" height="2.4"/>
		</g>
	</g>
	<g>
		<g>
			<circle class="st1" cx="17.6" cy="22.8" r="1.2"/>
		</g>
	</g>
	<g>
		<g>
			<circle class="st1" cx="17.6" cy="29.9" r="1.2"/>
		</g>
	</g>
	<g>
		<g>
			<circle class="st1" cx="17.6" cy="37" r="1.2"/>
		</g>
	</g>
	<g>
		<g>
			<circle class="st1" cx="17.6" cy="44.1" r="1.2"/>
		</g>
	</g>
	<path class="st1" d="M54.3,9.7c0-2.6-2.1-4.7-4.7-4.7H41h-1.8H11.7C9,5,6.9,7.1,6.9,9.7v42.7c0,2.6,2.1,4.7,4.7,4.7
		c10.9,0,24.3,0,37.9,0c2.6,0,4.7-2.1,4.7-4.7C54.3,38.9,54.3,26.1,54.3,9.7z M49.6,54.8c-12.7,0-25.3,0-37.9,0
		c-1.3,0-2.4-1.1-2.4-2.4V9.7c0-1.3,1.1-2.4,2.4-2.4h27.6H41h8.6c1.3,0,2.4,1.1,2.4,2.4c0,6.8,0,38.6,0,42.7
		C52,53.7,50.9,54.8,49.6,54.8z"/>
	<rect x="7.5" y="13.2" class="st1" width="46.1" height="2.1"/>
	<g>
		<g id="XMLID_10_">
			<g>
				<circle class="st2" cx="49.9" cy="51.8" r="10"/>
				<path class="st3" d="M49.9,38.7c7.3,0,13.2,5.9,13.2,13.2s-5.9,13.2-13.2,13.2s-13.2-5.9-13.2-13.2
					C36.8,44.6,42.7,38.7,49.9,38.7z M59.9,51.8c0-5.5-4.5-10-10-10s-10,4.5-10,10s4.5,10,10,10C55.4,61.9,59.9,57.4,59.9,51.8z"/>
			</g>
		</g>
		<path class="st3" d="M53.6,48.2l-4,4l-1.5-1.5c-0.6-0.6-1.6-0.6-2.2,0c-0.6,0.6-0.6,1.6,0,2.2l2.6,2.6c0.3,0.3,0.7,0.5,1.1,0.5
			s0.8-0.2,1.1-0.5l5.1-5.1c0.6-0.6,0.6-1.6,0-2.2C55.2,47.6,54.3,47.6,53.6,48.2z"/>
	</g>
</g>
</svg>
