<?xml version="1.0" encoding="UTF-8" standalone="no"?>
<!DOCTYPE svg PUBLIC "-//W3C//DTD SVG 1.1//EN" "http://www.w3.org/Graphics/SVG/1.1/DTD/svg11.dtd">
<svg width="100%" height="100%" viewBox="0 0 170 190" version="1.1" xmlns="http://www.w3.org/2000/svg" xmlns:xlink="http://www.w3.org/1999/xlink" xml:space="preserve" xmlns:serif="http://www.serif.com/" style="fill-rule:evenodd;clip-rule:evenodd;stroke-linecap:round;stroke-miterlimit:10;">
    <g>
        <path d="M11,36L85,7L160,36" style="fill:none;fill-rule:nonzero;stroke:black;stroke-width:1px;"/>
        <rect x="10" y="35" width="150" height="150" style="fill:rgb(224,140,61);stroke:white;stroke-width:6px;stroke-linecap:butt;"/>
        <rect x="10" y="35" width="150" height="150" style="fill:white;fill-opacity:0.5;"/>
        <circle cx="86" cy="8" r="3" style="fill:rgb(35,31,32);"/>
        <g>
            <path d="M144.3,184L119.2,184L15,38L40.1,38L144.3,184Z" style="fill:white;fill-opacity:0.3;fill-rule:nonzero;"/>
            <path d="M158,176.3L158,184L155.4,184L51.2,38L59.3,38L158,176.3Z" style="fill:white;fill-opacity:0.3;fill-rule:nonzero;"/>
            <path d="M158,163.1L158,168.8L64.7,38L68.7,38L158,163.1Z" style="fill:white;fill-opacity:0.3;fill-rule:nonzero;"/>
        </g>
        <path d="M139.6,89.8C138,72.1 125.5,59.3 109.8,59.3C99.4,59.3 89.8,64.9 84.4,73.9C79.2,64.8 70,59.3 59.8,59.3C44.1,59.3 31.6,72.1 30,89.8C29.9,90.6 29.4,94.7 30.9,101.4C33.2,111.1 38.4,119.9 46.1,126.8L84.4,161.6L123.4,126.8C131.1,119.8 136.3,111 138.6,101.4C140.3,94.7 139.8,90.6 139.6,89.8ZM134.6,100.5C132.5,109.3 127.7,117.4 120.7,123.7L84.6,155.9L49,123.7C42,117.3 37.1,109.3 35,100.5C33.5,94.2 34.1,90.6 34.1,90.6L34.1,90.4C35.5,74.9 46.2,63.7 59.7,63.7C69.6,63.7 78.3,69.8 82.5,79.6L84.4,84.2L86.3,79.6C90.4,69.9 99.6,63.7 109.7,63.7C123.1,63.7 133.9,74.9 135.3,90.6C135.5,90.5 136.1,94.1 134.6,100.5Z" style="fill:white;fill-rule:nonzero;"/>
    </g>
</svg>
