<?xml version="1.0" encoding="UTF-8" standalone="no"?>
<!DOCTYPE svg PUBLIC "-//W3C//DTD SVG 1.1//EN" "http://www.w3.org/Graphics/SVG/1.1/DTD/svg11.dtd">
<svg width="100%" height="100%" viewBox="0 0 875 655" version="1.1" xmlns="http://www.w3.org/2000/svg" xmlns:xlink="http://www.w3.org/1999/xlink" xml:space="preserve" xmlns:serif="http://www.serif.com/" style="fill-rule:evenodd;clip-rule:evenodd;stroke-miterlimit:10;">
    <style type="text/css">
        .x-hover {
            cursor:pointer;
            opacity: 0;
            transition: all .2s ease-in;
        }
        .x-hover:hover{
            opacity: 1;
        }
    </style>
    <g>
        <g>
            <g>
                <g>
                    <g>
                        <rect x="77.5" y="228.9" width="63.4" height="188.7" style="fill:rgb(240,174,7);"/>
                        <rect x="77.5" y="381.9" width="63.4" height="14.7" style="fill:white;"/>
                        <rect x="77.5" y="353.3" width="63.4" height="14.7" style="fill:white;"/>
                        <g>
                            <rect x="89.7" y="278.1" width="39" height="8.4" style="fill:white;"/>
                            <rect x="89.7" y="292.8" width="39" height="8.4" style="fill:white;"/>
                        </g>
                        <path d="M109.2,265C122.5,265 133.2,260.1 133.2,254.2C133.2,248.2 122.5,243.4 109.2,243.4C95.9,243.4 85.2,248.3 85.2,254.2C85.2,260.2 96,265 109.2,265Z" style="fill:white;fill-rule:nonzero;"/>
                    </g>
                    <g>
                        <rect x="140.9" y="228.9" width="63.4" height="188.7" style="fill:rgb(33,118,185);"/>
                        <rect x="140.9" y="381.9" width="63.4" height="14.7" style="fill:white;"/>
                        <rect x="140.9" y="353.3" width="63.4" height="14.7" style="fill:white;"/>
                        <g>
                            <rect x="153.1" y="278.1" width="39" height="8.4" style="fill:white;"/>
                            <rect x="153.1" y="292.8" width="39" height="8.4" style="fill:white;"/>
                        </g>
                        <path d="M172.6,265C185.9,265 196.6,260.1 196.6,254.2C196.6,248.2 185.9,243.4 172.6,243.4C159.3,243.4 148.6,248.3 148.6,254.2C148.6,260.2 159.4,265 172.6,265Z" style="fill:white;fill-rule:nonzero;"/>
                    </g>
                    <g>
                        <g>
                            <path d="M167.1,382.2C165.9,382.2 164.9,382.6 164.7,383.2L169.5,383.2C169.2,382.6 168.3,382.2 167.1,382.2Z" style="fill:rgb(255,143,33);fill-rule:nonzero;"/>
                            <path d="M217.9,385.5C217.6,385.1 217.4,384.7 217.1,384.3C216.8,384 216.5,383.8 216.2,383.6C215.5,383.1 214.7,382.6 213.8,382.2C209.6,380.4 205.1,379.6 200.6,379.2C195.8,378.8 191.1,378.9 186.4,379.4C183.3,379.8 180.2,380.3 177.3,381.4C175.4,382.1 173.7,383.1 173,385C172.6,386.1 172.2,387.2 172,388.4C171.2,394.1 171.8,399.8 173.4,405.4C174.3,408.6 176.2,411.1 179.6,412.7C180.2,413 180.7,413.3 181.3,413.5C182,413.8 182.7,414 183.3,414.3C184.9,415 186.7,415.3 188.5,415.5C191,415.8 193.8,415.7 196.3,415.5C203.7,414.9 210.8,411.5 214.8,405.7C216.4,403.3 217.5,400.8 218.3,398.1C219.1,395.2 219.8,392.3 219.7,389.3C219.5,388.4 219.4,387.5 218.9,386.7C218.5,386.2 218.2,385.9 217.9,385.5Z" style="fill:rgb(238,238,238);fill-opacity:0.5;fill-rule:nonzero;"/>
                            <path d="M167.1,384.8C168.3,384.8 169.3,384.4 169.5,383.8L164.7,383.8C164.9,384.3 165.9,384.8 167.1,384.8Z" style="fill:rgb(255,143,33);fill-rule:nonzero;"/>
                            <path d="M285.3,385.3C284.6,383.4 282.9,382.4 281,381.7C278.1,380.6 275,380 271.9,379.6C267.2,379 262.4,378.9 257.7,379.3C253.1,379.7 248.7,380.5 244.5,382.3C243.6,382.7 242.8,383.1 242.1,383.7C241.8,383.9 241.4,384.2 241.2,384.4C240.9,384.7 240.6,385.2 240.4,385.6C240.1,386 239.8,386.3 239.6,386.7C239.1,387.5 239,388.4 238.8,389.3C238.6,392.3 239.3,395.2 240.1,398.2C240.9,400.9 242,403.4 243.5,405.8C247.5,411.7 254.5,415.1 262,415.7C264.6,415.9 267.3,416 269.8,415.7C271.6,415.5 273.4,415.2 275,414.5C275.7,414.2 276.4,414 277,413.7C277.6,413.5 278.1,413.2 278.7,412.9C282,411.4 284,408.9 284.9,405.7C286.5,400.1 287.1,394.5 286.3,388.7C286.1,387.5 285.7,386.4 285.3,385.3Z" style="fill:rgb(238,238,238);fill-opacity:0.5;fill-rule:nonzero;"/>
                            <path d="M291.1,382.4C289.9,382.4 288.9,382.8 288.7,383.4L293.5,383.4C293.3,382.9 292.3,382.4 291.1,382.4Z" style="fill:rgb(255,143,33);fill-rule:nonzero;"/>
                            <path d="M291.1,385C292.3,385 293.3,384.6 293.5,384L288.7,384C289,384.6 289.9,385 291.1,385Z" style="fill:rgb(255,143,33);fill-rule:nonzero;"/>
                            <path d="M289.9,397.7C290.3,395.5 290.8,393.4 291.2,391.3C291.5,389.5 292.5,388.3 294.5,387.8C295.3,387.6 295.5,387 295.5,386.4C295.5,384.9 295.4,383.4 295.4,381.9C295.4,381.5 295.3,381.2 295.3,380.8C295.2,379.4 294.9,379.1 293.4,379C291.4,378.9 289.4,378.8 287.5,378.6C284.7,378.3 281.8,377.9 279,377.7C277.8,377.6 276.7,377.5 275.5,377.4C273.5,377.2 271.4,377.1 269.4,376.9C268.4,376.8 267.4,376.8 266.4,376.7C263.9,376.5 261.4,376.7 258.9,377C257.3,377.2 255.6,377.3 253.9,377.5C251.6,377.8 249.3,378.2 247.1,378.6C244.3,379.1 241.6,379.7 238.8,380.3C235.6,381 232.4,381.2 229.1,381.2C225.9,381.2 222.7,381 219.6,380.3C216.8,379.7 214.1,379.1 211.3,378.6C209.1,378.2 206.8,377.8 204.5,377.5C202.9,377.3 201.2,377.2 199.5,377C197,376.7 194.6,376.5 192,376.7C191,376.8 190,376.8 189,376.9C187,377.1 184.9,377.2 182.9,377.3C181.7,377.4 180.6,377.5 179.4,377.6C176.6,377.8 173.7,378.2 170.9,378.5C168.9,378.7 166.9,378.7 165,378.9C163.5,379 163.2,379.3 163,380.7C163,381.1 162.9,381.4 162.9,381.8C162.9,383.3 162.8,384.8 162.8,386.3C162.8,386.9 163,387.5 163.7,387.7C165.7,388.2 166.7,389.4 167,391.2C167.4,393.3 167.8,395.5 168.2,397.6C168.8,401 169.7,404.3 171.2,407.4C172.4,410.1 174.1,412.6 177,414C178.9,415 181,415.8 183.1,416.4C186.6,417.4 190.3,417.8 194.1,417.6C204.5,417.1 214,412.7 218.9,404.1C220.9,400.6 222.4,397 223.8,393.3C225.6,388.6 232.7,388.5 234.5,393.3C235.9,397 237.4,400.6 239.4,404.1C244.3,412.7 253.7,417.2 264.1,417.8C267.8,418 271.5,417.6 275.1,416.6C277.2,416 279.3,415.2 281.2,414.2C284.1,412.8 285.8,410.3 287.1,407.6C288.4,404.4 289.3,401.1 289.9,397.7ZM167.1,382.2C168.3,382.2 169.3,382.6 169.5,383.2L164.7,383.2C164.9,382.6 165.9,382.2 167.1,382.2ZM167.1,384.8C165.9,384.8 165,384.4 164.7,383.8L169.5,383.8C169.2,384.3 168.3,384.8 167.1,384.8ZM214.7,405.6C210.7,411.5 203.6,414.8 196.2,415.4C193.6,415.6 190.9,415.7 188.4,415.4C186.6,415.2 184.8,414.9 183.2,414.2C182.5,413.9 181.8,413.7 181.2,413.4C180.6,413.2 180.1,412.9 179.5,412.6C176.2,411.1 174.2,408.5 173.3,405.3C171.7,399.7 171.2,394.1 171.9,388.3C172.1,387.2 172.5,386 172.9,384.9C173.6,383 175.3,382 177.2,381.3C180.1,380.2 183.2,379.6 186.3,379.3C191,378.8 195.8,378.6 200.5,379.1C205.1,379.5 209.5,380.3 213.7,382.1C214.6,382.5 215.4,382.9 216.1,383.5C216.4,383.7 216.8,384 217,384.2C217.3,384.5 217.6,385 217.8,385.4C218.1,385.8 218.4,386.1 218.6,386.5C219.1,387.3 219.2,388.2 219.4,389.1C219.6,392.1 218.9,395 218,397.9C217.4,400.7 216.3,403.3 214.7,405.6ZM293.5,384C293.2,384.6 292.3,385 291.1,385C289.9,385 288.9,384.6 288.7,384L293.5,384ZM291.1,382.4C292.3,382.4 293.2,382.8 293.5,383.4L288.7,383.4C289,382.9 289.9,382.4 291.1,382.4ZM278.6,412.9C278,413.2 277.5,413.5 276.9,413.7C276.2,414 275.5,414.2 274.9,414.5C273.3,415.2 271.5,415.5 269.7,415.7C267.1,416 264.4,415.9 261.9,415.7C254.5,415 247.4,411.7 243.4,405.8C241.8,403.4 240.7,400.9 240,398.2C239.2,395.3 238.5,392.4 238.7,389.3C238.9,388.4 239,387.5 239.5,386.7C239.7,386.3 240,386 240.3,385.6C240.6,385.2 240.8,384.8 241.1,384.4C241.4,384.1 241.7,383.9 242,383.7C242.3,383.5 242.6,383.3 243,383.1C243.3,382.9 243.6,382.7 243.9,382.6C243.9,382.6 244,382.6 244,382.5C244.1,382.4 244.3,382.4 244.4,382.3C245.4,381.9 246.4,381.5 247.4,381.2C247.8,381.1 248.3,381 248.8,380.8C249.7,380.6 250.6,380.4 251.5,380.2C253.5,379.8 255.6,379.5 257.6,379.4C262.4,379 267.1,379.1 271.8,379.7C274.9,380.1 278,380.6 280.9,381.8C282.8,382.6 284.5,383.5 285.2,385.4C285.6,386.5 286,387.6 286.1,388.8C286.9,394.5 286.3,400.2 284.7,405.8C283.9,408.8 281.9,411.4 278.6,412.9Z" style="fill:rgb(25,42,58);fill-rule:nonzero;"/>
                        </g>
                        <path d="M218.7,386.6C218.5,386.2 218.2,385.9 217.9,385.5C217.6,385.1 217.4,384.7 217.1,384.3C217.1,384.2 217,384.2 216.9,384.2C211,392.5 200.7,399.4 188,402.6C182.9,403.9 177.8,404.5 173,404.4C173.1,404.7 173.2,405 173.3,405.4C174.2,408.6 176.1,411.1 179.5,412.7C180.1,413 180.6,413.3 181.2,413.5C181.9,413.8 182.6,414 183.2,414.3C184.8,415 186.6,415.3 188.4,415.5C190.9,415.8 193.7,415.7 196.2,415.5C203.6,414.9 210.7,411.5 214.7,405.7C216.3,403.3 217.4,400.8 218.2,398.1C219,395.2 219.7,392.3 219.6,389.3C219.3,388.3 219.3,387.4 218.7,386.6Z" style="fill:rgb(238,238,238);fill-opacity:0.3;fill-rule:nonzero;"/>
                        <path d="M286.3,388.7C286.1,387.6 285.7,386.4 285.4,385.3C284.9,383.8 283.7,382.9 282.3,382.2C276.7,391.3 265.8,399.1 252.1,402.6C248.9,403.4 245.7,404 242.5,404.2C242.8,404.7 243.1,405.2 243.4,405.7C247.4,411.6 254.4,415 261.9,415.6C264.5,415.8 267.2,415.9 269.7,415.6C271.5,415.4 273.3,415.1 274.9,414.4C275.6,414.1 276.3,413.9 276.9,413.6C277.5,413.4 278,413.1 278.6,412.8C281.9,411.3 283.9,408.8 284.8,405.6C286.4,400.1 287,394.4 286.3,388.7Z" style="fill:rgb(238,238,238);fill-opacity:0.3;fill-rule:nonzero;"/>
                    </g>
                </g>
                <g>
                    <g>
                        <g>
                            <rect x="475" y="333.9" width="153.5" height="64.1" style="fill:rgb(179,186,186);"/>
                            <rect x="417.1" y="397.9" width="270.3" height="18" style="fill:rgb(220,220,220);"/>
                            <path d="M304.7,308.2C304.7,334.8 326.2,356.3 352.8,356.3L750.9,356.3C777.5,356.3 799,334.8 799,308.2L799,58.3C799,31.7 777.5,10.2 750.9,10.2L352.8,10.2C326.2,10.2 304.7,31.7 304.7,58.3L304.7,308.2Z" style="fill:rgb(220,220,220);fill-rule:nonzero;"/>
                            <path d="M352.8,10.1L750.9,10.1C777.5,10.1 799,31.6 799,58.2L799,308.1L304.7,308.1L304.7,58.3C304.7,31.7 326.2,10.1 352.8,10.1Z" style="fill:rgb(14,49,78);fill-rule:nonzero;"/>
                            <path d="M543.1,325.4C543.1,330.4 547.1,334.4 552.1,334.4C557.1,334.4 561.1,330.4 561.1,325.4C561.1,320.4 557.1,316.4 552.1,316.4C547.1,316.4 543.1,320.4 543.1,325.4Z" style="fill:rgb(1,19,53);fill-rule:nonzero;"/>
                            <path d="M628.6,356.3L628.6,397.9L475,373.4L475,356.3L628.6,356.3Z" style="fill:rgb(1,19,53);fill-opacity:0.3;fill-rule:nonzero;"/>
                        </g>
                        <path d="M304.7,58.3L304.7,308.2L799,308.2L799,58.3C799,31.7 777.5,10.2 750.9,10.2L352.8,10.2C326.2,10.1 304.7,31.7 304.7,58.3ZM319.1,58.3C319.1,39.7 334.2,24.6 352.8,24.6L750.9,24.6C769.5,24.6 784.6,39.7 784.6,58.3L784.6,293.8L319.1,293.8L319.1,58.3Z" style="fill:rgb(0,34,66);fill-rule:nonzero;"/>
                    </g>
                    <path d="M308.3,40C306,45.6 304.7,51.8 304.7,58.3L304.7,308.2L799,308.2L799,288.6L308.3,40Z" style="fill:rgb(177,177,177);fill-opacity:0.3;fill-rule:nonzero;"/>
                </g>
                <g>
                    <rect x="437.6" y="461.5" width="497.9" height="298.8" style="fill:rgb(201,201,201);"/>
                    <path d="M461.8,525.1L901.1,525.1L901.1,461.5L345.2,461.5L345.2,760.3L461.8,760.3L461.8,525.1Z" style="fill:rgb(102,102,102);fill-opacity:0.2;fill-rule:nonzero;"/>
                    <rect x="-0.5" y="416" width="964" height="45.3" style="fill:rgb(227,227,227);"/>
                    <rect x="-0.5" y="438.6" width="964" height="22.7" style="fill:rgb(102,102,102);fill-opacity:0.2;"/>
                    <rect x="35.5" y="461.5" width="402.4" height="298.8" style="fill:rgb(239,239,239);"/>
                    <g>
                        <g opacity="0.4">
                            <path d="M39.1,606.8L438,606.8" style="fill:none;fill-rule:nonzero;stroke:rgb(128,128,128);stroke-width:6.06px;"/>
                        </g>
                        <g>
                            <g>
                                <rect x="75.3" y="490.1" width="322.9" height="99.2" style="fill:none;stroke:rgb(128,128,128);stroke-width:4.66px;"/>
                                <path d="M238.5,510.3C269.8,510.3 295.3,501.2 295.3,490.1L181.8,490.1C181.8,501.2 207.2,510.3 238.5,510.3Z" style="fill:rgb(128,128,128);fill-opacity:0.6;fill-rule:nonzero;"/>
                            </g>
                            <g>
                                <rect x="75.3" y="625" width="322.9" height="99.2" style="fill:none;stroke:rgb(128,128,128);stroke-width:4.66px;"/>
                                <path d="M238.5,645.2C269.8,645.2 295.3,636.1 295.3,625L181.8,625C181.8,636.2 207.2,645.2 238.5,645.2Z" style="fill:rgb(128,128,128);fill-opacity:0.6;fill-rule:nonzero;"/>
                            </g>
                        </g>
                    </g>
                    <path d="M438,582.1L35.5,513.1L35.5,461.5L438,461.5L438,582.1Z" style="fill:rgb(102,102,102);fill-opacity:0.4;fill-rule:nonzero;"/>
                    <rect x="35.5" y="461.5" width="70.3" height="298.8" style="fill:rgb(102,102,102);fill-opacity:0.4;"/>
                </g>
            </g>
            <g transform="matrix(0.833333,0,0,0.833333,69.9333,16.4333)">
                <path d="M458.1,158.6L381.1,158.6C369.2,158.6 359.6,149 359.6,137.1L359.6,60.1C359.6,48.2 369.2,38.6 381.1,38.6L458.1,38.6C470,38.6 479.6,48.2 479.6,60.1L479.6,137.1C479.6,149 470,158.6 458.1,158.6Z" style="fill:rgb(229,37,104);fill-rule:nonzero;"/>
                <g id="XMLID_67_">
                    <path d="M467.3,98.6C467.3,124.9 445.9,146.3 419.6,146.3C413.1,146.3 407,145 401.4,142.7C386,136.3 374.7,122.2 372.4,105.2C372.1,103.1 372,100.9 372,98.6C372,72.3 393.4,50.9 419.7,50.9C445.9,50.9 467.3,72.3 467.3,98.6Z" style="fill:rgb(249,219,64);fill-rule:nonzero;"/>
                    <path d="M419.6,50.9C417.1,50.9 414.6,51.1 412.2,51.5C435,55.1 452.5,74.8 452.5,98.6C452.5,122.4 435,142.2 412.2,145.7C414.6,146.1 417.1,146.3 419.6,146.3C445.9,146.3 467.3,124.9 467.3,98.6C467.3,72.3 445.9,50.9 419.6,50.9Z" style="fill:rgb(240,174,7);fill-rule:nonzero;"/>
                    <g id="XMLID_68_">
                        <path id="XMLID_76_" d="M390.9,124C386.6,122.5 383.7,118.5 383.7,113.9C383.7,111.9 384.3,109.9 385.3,108.2L410.8,63.8C412.8,60.1 416.3,57.9 420.3,57.9C421.5,57.9 422.7,58.1 423.8,58.5C426.5,59.4 428.7,61.5 430.2,64.4L455.1,107.2C456.3,109.2 457.3,111.1 457.3,113.7C457.3,116.6 456.2,119.3 454.2,121.3C452.4,123.1 450.1,124.2 447.6,124.4L393.8,124.5C392.8,124.5 391.8,124.4 390.9,124Z" style="fill:rgb(229,37,104);fill-rule:nonzero;"/>
                        <path id="XMLID_75_" d="M453.9,107.9L429,65C427.3,61.5 424.3,59.3 420.4,59.3C416.7,59.3 413.7,61.4 412.1,64.5L386.5,108.9C385.6,110.3 385.1,112.1 385.1,113.9C385.1,119 389.3,123.2 394.4,123.2L394.7,123.2L446.7,123.1C451.8,123.1 456,118.9 456,113.8C456,111.5 455.1,109.9 453.9,107.9Z" style="fill:white;fill-rule:nonzero;"/>
                        <path id="XMLID_74_" d="M394.4,120.3C390.9,120.3 388,117.4 388,113.9C388,112.7 388.3,111.5 389,110.5L413.7,67.4L414.7,65.8C416,63.6 418,62.2 420.4,62.2C423,62.2 424.9,63.5 426.3,66.1L451.7,109.7C452.3,110.8 453.1,112.2 453.1,113.7C453.1,117.2 450.3,120.1 446.7,120.1C446.7,120.2 394.4,120.3 394.4,120.3Z" style="fill:rgb(255,57,118);fill-rule:nonzero;"/>
                        <path id="XMLID_73_" d="M448.2,110.4L420.4,62.2L392.8,110.6C392.4,111.3 392.1,112.1 392.1,113C392.1,115.5 394.1,117.5 396.6,117.5L396.8,117.5L444.1,117.4L444.4,117.4C446.9,117.4 448.9,115.4 448.9,112.9C448.9,112 448.6,111.1 448.2,110.4Z" style="fill:rgb(229,37,104);fill-rule:nonzero;"/>
                        <path id="XMLID_72_" d="M396,120.3C393.2,120.2 391,117.9 391,115.1C391,113.8 391.5,112.6 392.3,111.7C392.4,111.3 392.6,110.9 392.8,110.6L420.3,62.3C417.9,62.3 415.9,63.6 414.6,65.9L413.6,67.5L388.9,110.6C388.3,111.6 387.9,112.8 387.9,114C387.9,117.5 390.8,120.4 394.3,120.4C394.4,120.3 395,120.3 396,120.3Z" style="fill:rgb(255,68,136);fill-rule:nonzero;"/>
                        <path id="XMLID_69_" d="M420.7,114.4C417.9,114.4 415.7,112.2 415.7,109.4C415.7,106.6 417.9,104.4 420.7,104.4C423.5,104.4 425.7,106.6 425.7,109.4C425.7,112.2 423.5,114.4 420.7,114.4ZM425.7,76.5C425.7,74.2 423.4,74.7 420.6,74.7C417.8,74.7 415.5,74.2 415.5,76.5L415.5,77L417.5,98C417.5,99.8 418.9,101.2 420.7,101.2C422.5,101.2 423.9,99.8 423.9,98L425.8,76.9C425.7,76.8 425.7,76.6 425.7,76.5Z" style="fill:white;fill-rule:nonzero;"/>
                    </g>
                </g>
            </g>
            <g transform="matrix(0.833333,0,0,0.833333,91.9667,38.1333)">
                <path d="M590.3,288.8L513.3,288.8C501.4,288.8 491.8,279.2 491.8,267.3L491.8,190.3C491.8,178.4 501.4,168.8 513.3,168.8L590.3,168.8C602.2,168.8 611.8,178.4 611.8,190.3L611.8,267.3C611.8,279.2 602.2,288.8 590.3,288.8Z" style="fill:rgb(167,187,24);fill-rule:nonzero;"/>
                <g>
                    <path d="M598.4,228C598.4,254.3 577,275.7 550.7,275.7C544.2,275.7 538.1,274.4 532.5,272.1C517.1,265.7 505.8,251.6 503.5,234.6C503.2,232.5 503.1,230.3 503.1,228C503.1,201.7 524.5,180.3 550.8,180.3C577,180.3 598.4,201.6 598.4,228Z" style="fill:rgb(62,132,197);fill-rule:nonzero;"/>
                    <path d="M550.7,180.3C548.2,180.3 545.7,180.5 543.3,180.9C566.1,184.5 583.6,204.2 583.6,228C583.6,251.8 566.1,271.6 543.3,275.1C545.7,275.5 548.2,275.7 550.7,275.7C577,275.7 598.4,254.3 598.4,228C598.4,201.6 577,180.3 550.7,180.3Z" style="fill:rgb(0,119,193);fill-rule:nonzero;"/>
                    <g>
                        <path d="M593.8,201.8L593.8,247.5L507.9,247.5L507.9,201.8C507.9,198.5 510.6,195.7 514,195.7L587.8,195.7C591.1,195.7 593.8,198.5 593.8,201.8Z" style="fill:rgb(72,75,127);fill-rule:nonzero;"/>
                        <path d="M588.1,201.8L588.1,243.7L513.6,243.7L513.6,201.8C513.6,201.6 513.8,201.5 513.9,201.5L587.8,201.5C588,201.5 588.1,201.6 588.1,201.8Z" style="fill:rgb(238,238,238);fill-rule:nonzero;"/>
                        <path d="M588.1,240.1L588.1,242.6L583.5,241.5C583.2,241.4 582.9,241.2 582.8,241L576.7,231.8L570.8,237.8C570.5,238.1 570.2,238.2 569.8,238.2C569.4,238.2 569.1,238 568.9,237.7L562.8,228.5L556.9,234C556.6,234.2 556.3,234.4 555.9,234.3C555.5,234.3 555.2,234.1 555,233.8L549.1,225.2L543.2,233.3C542.9,233.7 542.5,233.9 542,233.8C541.5,233.7 541.2,233.4 541,233L535,214.5L529.4,225.2C529.2,225.6 528.7,225.9 528.2,225.9C527.7,225.9 527.3,225.6 527.1,225.1L520.9,208.6L513.6,217.5L513.6,213.6L520.4,205.4C520.7,205.1 521.1,204.9 521.6,205C522,205.1 522.4,205.4 522.6,205.8L528.6,221.7L534.3,210.8C534.5,210.4 535,210.1 535.5,210.1C536,210.1 536.4,210.5 536.6,211L542.8,230L548.3,222.4C548.5,222.1 548.9,221.9 549.3,221.9C549.7,221.9 550.1,222.1 550.3,222.4L556.4,231.3L562.3,225.8C562.6,225.6 562.9,225.4 563.3,225.5C563.7,225.5 564,225.7 564.2,226L570.3,235.2L576.2,229.2C576.5,228.9 576.8,228.8 577.2,228.8C577.6,228.8 577.9,229 578.1,229.3L584.8,239.4L588.1,240.1Z" style="fill:rgb(167,196,223);fill-rule:nonzero;"/>
                        <path d="M587.9,201.5L580.7,215C580.5,215.3 580.3,215.5 579.9,215.6C579.6,215.7 579.2,215.6 578.9,215.4L573,211.6L566.8,220.3C566.6,220.6 566.3,220.8 566,220.8C565.7,220.8 565.3,220.8 565.1,220.6L559.5,216.3L553.2,232.5C553,232.9 552.7,233.2 552.3,233.3C551.9,233.4 551.5,233.3 551.2,233L545.1,227L539,231.9C538.7,232.2 538.3,232.2 537.9,232.1L531.7,230.2L525.3,237.6C525.1,237.9 524.7,238 524.4,238C524.1,238 523.7,237.9 523.5,237.6L517.5,231.2L514,235.2L514,231.4L516.5,228.5C516.7,228.2 517.1,228.1 517.4,228.1C517.8,228.1 518.1,228.2 518.3,228.5L524.3,234.9L530.3,227.9C530.6,227.5 531.1,227.4 531.6,227.5L537.9,229.4L544.3,224.2C544.8,223.8 545.5,223.8 545.9,224.3L551.5,229.8L557.8,213.8C557.9,213.4 558.2,213.2 558.6,213.1C559,213 559.4,213.1 559.7,213.3L565.6,217.8L571.8,209.2C572.2,208.7 572.9,208.5 573.5,208.9L579.3,212.6L585.3,201.4L587.9,201.5C587.8,201.5 587.8,201.5 587.9,201.5Z" style="fill:rgb(237,72,125);fill-rule:nonzero;"/>
                        <rect x="507.9" y="243.4" width="85.9" height="4.5" style="fill:rgb(52,58,111);"/>
                        <path d="M594.5,246.8C592.9,251.1 590.6,255 587.9,258.6C587.2,258.7 586.6,258.8 585.9,258.8L516,258.8C515.3,258.8 514.6,258.7 514,258.6C511.3,255 509,251.1 507.4,246.8L594.5,246.8Z" style="fill:rgb(72,75,127);fill-rule:nonzero;"/>
                        <path d="M558.7,251.5L543,251.5C540.9,251.5 539.2,249.8 539.2,247.7L539.2,246.8L562.4,246.8L562.4,247.7C562.5,249.8 560.8,251.5 558.7,251.5Z" style="fill:rgb(52,58,111);fill-rule:nonzero;"/>
                        <path d="M532,185.4C529.5,184.3 526.8,183.7 524,183.7C513.1,183.7 504.3,192.5 504.3,203.4C504.3,210.5 508,216.7 513.6,220.2C516.6,222.1 520.2,223.2 524,223.2C534.9,223.2 543.7,214.4 543.7,203.5C543.7,195.3 538.9,188.4 532,185.4Z" style="fill:rgb(237,72,125);fill-rule:nonzero;"/>
                        <path d="M538.9,203.4C538.9,211.5 532.4,218.1 524.4,218.3L524.1,218.3C522.2,218.3 520.4,217.9 518.7,217.3C517.9,217 517,216.6 516.3,216.1C512,213.5 509.2,208.8 509.2,203.4C509.2,195.2 515.9,188.5 524.1,188.5C526.1,188.5 528.1,188.9 529.8,189.6C530.8,190 531.7,190.5 532.6,191.1C533.2,191.5 533.8,192 534.4,192.6C537.1,195.3 538.9,199.1 538.9,203.4Z" style="fill:rgb(238,238,238);fill-rule:nonzero;"/>
                        <path d="M524,219C519.8,219 515.9,217.4 513,214.4C510.1,211.5 508.4,207.5 508.4,203.4C508.4,194.8 515.4,187.8 524,187.8C532.6,187.8 539.6,194.8 539.6,203.4C539.6,207.6 538,211.5 535,214.4C532,217.3 528.2,219 524,219ZM524,189.2C516.2,189.2 509.8,195.6 509.8,203.4C509.8,211.2 516.2,217.6 524,217.6C531.8,217.6 538.2,211.2 538.2,203.4C538.2,195.6 531.8,189.2 524,189.2Z" style="fill:rgb(253,102,138);fill-rule:nonzero;"/>
                        <g>
                            <path d="M524,194.2C523.6,194.2 523.3,193.9 523.3,193.5L523.3,191C523.3,190.6 523.6,190.3 524,190.3C524.4,190.3 524.7,190.6 524.7,191L524.7,193.5C524.7,193.8 524.4,194.2 524,194.2Z" style="fill:rgb(52,58,111);fill-rule:nonzero;"/>
                            <path d="M524,216.5C523.6,216.5 523.3,216.2 523.3,215.8L523.3,213.3C523.3,212.9 523.6,212.6 524,212.6C524.4,212.6 524.7,212.9 524.7,213.3L524.7,215.8C524.7,216.2 524.4,216.5 524,216.5Z" style="fill:rgb(52,58,111);fill-rule:nonzero;"/>
                            <path d="M536.4,204.1L533.9,204.1C533.5,204.1 533.2,203.8 533.2,203.4C533.2,203 533.5,202.7 533.9,202.7L536.4,202.7C536.8,202.7 537.1,203 537.1,203.4C537.1,203.8 536.8,204.1 536.4,204.1Z" style="fill:rgb(52,58,111);fill-rule:nonzero;"/>
                            <path d="M514.1,204.1L511.6,204.1C511.2,204.1 510.9,203.8 510.9,203.4C510.9,203 511.2,202.7 511.6,202.7L514.1,202.7C514.5,202.7 514.8,203 514.8,203.4C514.8,203.8 514.5,204.1 514.1,204.1Z" style="fill:rgb(52,58,111);fill-rule:nonzero;"/>
                        </g>
                        <g>
                            <path d="M532.6,199.1C532.3,199.1 532,198.9 531.9,198.6C531.8,198.3 531.9,198 532.1,197.8C532.3,197.6 532.7,197.6 532.9,197.7C533.2,197.9 533.3,198.2 533.2,198.5C533.2,198.9 532.9,199.1 532.6,199.1Z" style="fill:rgb(72,75,127);fill-rule:nonzero;"/>
                            <path d="M515.4,209.1C515.1,209.1 514.8,208.9 514.7,208.7C514.6,208.4 514.7,208.1 514.9,207.9C515.1,207.7 515.5,207.7 515.7,207.8C516,207.9 516.1,208.3 516.1,208.5C516.1,208.8 515.7,209.1 515.4,209.1Z" style="fill:rgb(72,75,127);fill-rule:nonzero;"/>
                            <path d="M529,195.5C528.7,195.5 528.4,195.3 528.3,195C528.2,194.7 528.3,194.4 528.5,194.2C528.7,194 529.1,194 529.4,194.1C529.7,194.3 529.8,194.6 529.7,194.9C529.6,195.3 529.3,195.5 529,195.5Z" style="fill:rgb(72,75,127);fill-rule:nonzero;"/>
                            <path d="M519,212.7C518.7,212.7 518.4,212.5 518.3,212.2C518.2,211.9 518.3,211.6 518.5,211.4C518.7,211.2 519.1,211.2 519.3,211.3C519.6,211.5 519.7,211.8 519.7,212.1C519.7,212.4 519.4,212.7 519,212.7Z" style="fill:rgb(72,75,127);fill-rule:nonzero;"/>
                            <path d="M519,195.5C518.7,195.5 518.4,195.3 518.3,195C518.2,194.7 518.3,194.4 518.5,194.2C518.7,194 519,194 519.3,194.1C519.6,194.2 519.7,194.6 519.7,194.9C519.7,195.2 519.4,195.5 519,195.5Z" style="fill:rgb(72,75,127);fill-rule:nonzero;"/>
                            <path d="M529,212.7C528.7,212.7 528.4,212.5 528.3,212.2C528.2,211.9 528.3,211.6 528.5,211.4C528.7,211.2 529,211.2 529.3,211.3C529.6,211.4 529.7,211.8 529.7,212.1C529.6,212.4 529.3,212.7 529,212.7Z" style="fill:rgb(72,75,127);fill-rule:nonzero;"/>
                            <path d="M515.4,199.1C515.1,199.1 514.8,198.9 514.7,198.6C514.6,198.3 514.7,198 514.9,197.8C515.1,197.6 515.5,197.6 515.7,197.7C516,197.8 516.1,198.2 516.1,198.5C516.1,198.9 515.7,199.1 515.4,199.1Z" style="fill:rgb(72,75,127);fill-rule:nonzero;"/>
                            <path d="M532.6,209.1C532.3,209.1 532,208.9 531.9,208.6C531.8,208.3 531.9,208 532.1,207.8C532.3,207.6 532.7,207.6 533,207.7C533.3,207.9 533.4,208.2 533.3,208.5C533.2,208.8 532.9,209.1 532.6,209.1Z" style="fill:rgb(72,75,127);fill-rule:nonzero;"/>
                            <path d="M527.2,204.1L524,204.1C523.6,204.1 523.3,203.8 523.3,203.4L523.3,198.2C523.3,197.8 523.6,197.5 524,197.5C524.4,197.5 524.7,197.8 524.7,198.2L524.7,202.7L527.2,202.7C527.6,202.7 527.9,203 527.9,203.4C527.9,203.8 527.6,204.1 527.2,204.1Z" style="fill:rgb(72,75,127);fill-rule:nonzero;"/>
                        </g>
                        <path d="M525.6,203.4C525.6,204.3 524.9,205 524,205C523.8,205 523.6,205 523.4,204.9C523.3,204.9 523.2,204.8 523.1,204.8C522.6,204.5 522.3,204 522.3,203.4C522.3,202.5 523,201.8 523.9,201.8C524.1,201.8 524.3,201.8 524.5,201.9C524.6,201.9 524.7,202 524.8,202.1C524.9,202.1 524.9,202.2 525,202.3C525.4,202.5 525.6,202.9 525.6,203.4Z" style="fill:rgb(237,72,125);fill-rule:nonzero;"/>
                    </g>
                </g>
            </g>
            <g transform="matrix(0.833333,0,0,0.833333,91.9667,16.3833)">
                <path d="M590.3,158.3L513.3,158.3C501.4,158.3 491.8,148.7 491.8,136.8L491.8,59.8C491.8,47.9 501.4,38.3 513.3,38.3L590.3,38.3C602.2,38.3 611.8,47.9 611.8,59.8L611.8,136.8C611.8,148.7 602.2,158.3 590.3,158.3Z" style="fill:rgb(0,119,193);fill-rule:nonzero;"/>
                <g>
                    <path d="M599.4,98C599.4,124.3 578,145.7 551.7,145.7C545.2,145.7 539.1,144.4 533.5,142.1C518.1,135.7 506.8,121.6 504.5,104.6C504.2,102.5 504.1,100.3 504.1,98C504.1,71.7 525.5,50.3 551.8,50.3C578,50.3 599.4,71.6 599.4,98Z" style="fill:rgb(186,202,73);fill-rule:nonzero;"/>
                    <path d="M551.7,50.3C549.2,50.3 546.7,50.5 544.3,50.9C567.1,54.5 584.6,74.2 584.6,98C584.6,121.8 567.1,141.6 544.3,145.1C546.7,145.5 549.2,145.7 551.7,145.7C578,145.7 599.4,124.3 599.4,98C599.4,71.6 578,50.3 551.7,50.3Z" style="fill:rgb(167,187,24);fill-rule:nonzero;"/>
                    <path d="M585.9,72C585.9,70.8 584.9,69.8 583.7,69.8L519.8,69.8C518.6,69.8 517.6,70.8 517.6,72L517.6,113.5C517.6,114.7 518.6,115.7 519.8,115.7L583.7,115.7C584.9,115.7 585.9,114.7 585.9,113.5L585.9,72Z" style="fill:white;fill-rule:nonzero;"/>
                    <path d="M529.4,104.9L529.4,78.3L527.1,78.3L527.1,107.2L576.3,107.2L576.3,104.9L529.4,104.9Z" style="fill:rgb(229,231,237);fill-rule:nonzero;"/>
                    <rect x="532.3" y="90.4" width="3.6" height="12.2" style="fill:rgb(49,74,94);"/>
                    <rect x="539.8" y="84.9" width="3.6" height="17.7" style="fill:rgb(130,217,253);"/>
                    <rect x="547.3" y="88.1" width="3.6" height="14.4" style="fill:rgb(45,151,130);"/>
                    <rect x="554.8" y="82.1" width="3.6" height="20.5" style="fill:rgb(253,206,92);"/>
                    <rect x="562.3" y="88.1" width="3.6" height="14.4" style="fill:rgb(84,190,233);"/>
                    <rect x="569.9" y="83.7" width="3.6" height="18.9" style="fill:rgb(253,112,88);"/>
                    <path d="M584,124.4C582.5,125.9 580,125.9 578.5,124.2L564,108.1L567.7,104.4L583.8,118.9C585.5,120.3 585.6,122.9 584,124.4Z" style="fill:rgb(49,74,94);fill-rule:nonzero;"/>
                    <path d="M560.4,108.9C562.7,110.6 565.9,110.4 567.9,108.3C570,106.2 570.1,103 568.5,100.8L560.4,108.9Z" style="fill:rgb(42,59,78);fill-rule:nonzero;"/>
                    <path d="M542.2,82.6C535.6,89.2 535.5,100 542.2,106.5C548.9,113.2 559.6,113.1 566.1,106.5C572.8,99.8 572.8,89.1 566.1,82.6C559.6,76 548.9,76 542.2,82.6ZM563.6,104C558.4,109.2 550,109.2 544.8,104C539.6,98.8 539.6,90.4 544.8,85.2C550,80 558.4,80 563.6,85.2C568.8,90.4 568.8,98.8 563.6,104Z" style="fill:rgb(49,74,94);fill-rule:nonzero;"/>
                </g>
            </g>
            <g transform="matrix(0.833333,0,0,0.833333,114.25,38.1333)">
                <path d="M724,288.8L647,288.8C635.1,288.8 625.5,279.2 625.5,267.3L625.5,190.3C625.5,178.4 635.1,168.8 647,168.8L724,168.8C735.9,168.8 745.5,178.4 745.5,190.3L745.5,267.3C745.5,279.2 735.9,288.8 724,288.8Z" style="fill:rgb(240,174,7);fill-rule:nonzero;"/>
                <g>
                    <path d="M729.7,235C729.7,261.3 708.3,282.7 682,282.7C675.5,282.7 669.4,281.4 663.8,279.1C648.4,272.7 637.1,258.6 634.8,241.6C634.5,239.5 634.4,237.3 634.4,235C634.4,208.7 655.8,187.3 682.1,187.3C708.4,187.3 729.7,208.7 729.7,235Z" style="fill:rgb(120,88,164);fill-rule:nonzero;"/>
                    <path d="M682,187.3C679.5,187.3 677,187.5 674.6,187.9C697.4,191.5 714.9,211.2 714.9,235C714.9,258.8 697.4,278.6 674.6,282.1C677,282.5 679.5,282.7 682,282.7C708.3,282.7 729.7,261.3 729.7,235C729.7,208.7 708.4,187.3 682,187.3Z" style="fill:rgb(110,62,158);fill-rule:nonzero;"/>
                    <path d="M735.7,231.5L708.5,249.5C706.6,250.8 704.2,251.3 701.9,250.9C699.6,250.5 697.2,251 695.3,252.3L691.7,254.7L671.3,224.6L676.3,203C676.7,201.3 676.9,199.6 676.9,197.9C676.9,193.5 675.6,189.2 673.1,185.4C672.5,184.5 672.2,183.4 672.2,182.4C672.2,180.7 673,178.9 674.6,177.9C676.7,176.5 679.5,176.8 681.3,178.5L684.5,181.6C688.2,185.2 691.1,189.6 692.9,194.4L694.7,199.1L712.8,187.1C715.7,185.2 719.6,186 721.5,189C723.3,191.9 722.4,195.6 719.6,197.5L719.6,197.6L719.7,197.6C720.4,197.3 721.2,197.2 721.9,197.2C723.1,197.2 724.3,197.5 725.3,198.2C726,198.6 726.6,199.2 727.1,200C728,201.4 728.3,203.1 728,204.6C727.5,207 725.8,208.3 725.4,208.5C725.3,208.5 725.3,208.6 725.4,208.7C725.4,208.8 725.5,208.8 725.6,208.7C726.1,208.6 726.6,208.5 727.1,208.5C728.3,208.5 729.5,208.8 730.6,209.5C731.3,209.9 731.9,210.5 732.4,211.3C734.3,214.1 733.5,218 730.7,219.9C730.6,219.9 730.6,220 730.5,220C730.5,220 730.4,220.1 730.5,220.1L730.6,220.1C732.4,219.5 734.3,219.8 735.8,220.8C736.5,221.3 737.1,221.9 737.6,222.6C739.3,225.8 738.5,229.6 735.7,231.5Z" style="fill:rgb(252,213,187);fill-rule:nonzero;"/>
                    <path d="M691.9,260.5L680.4,268.1L663.8,279.1C648.4,272.7 637.1,258.6 634.8,241.6L654.1,228.8L665.8,221C667.1,220.1 669,220.5 669.9,221.8L692.8,256.4C693.6,257.8 693.2,259.6 691.9,260.5Z" style="fill:rgb(133,217,253);fill-rule:nonzero;"/>
                    <path d="M691.9,260.5L680.4,268.1L654,228.8L665.7,221C667,220.1 668.9,220.5 669.8,221.8L692.7,256.4C693.6,257.8 693.2,259.6 691.9,260.5Z" style="fill:rgb(110,197,253);fill-rule:nonzero;"/>
                    <g>
                        <path d="M725.2,198.5L716.1,203.4C714.8,204.1 713.2,203.7 712.4,202.6L719.5,198L719.6,198C720.3,197.7 721.1,197.6 721.8,197.6C723,197.5 724.1,197.8 725.2,198.5Z" style="fill:rgb(248,195,168);fill-rule:nonzero;"/>
                        <path d="M730.4,209.8L721.5,214.5C720.2,215.2 718.6,214.8 717.8,213.7L724.9,209.1L725.2,209C725.2,209.1 725.3,209.1 725.4,209C725.9,208.9 726.4,208.8 726.9,208.8C728.1,208.8 729.4,209.2 730.4,209.8Z" style="fill:rgb(248,195,168);fill-rule:nonzero;"/>
                        <path d="M735.6,221.1L727.8,225.3C726.5,226 724.9,225.6 724.1,224.5L730.3,220.5L730.4,220.5C732.1,219.8 734,220.1 735.6,221.1Z" style="fill:rgb(248,195,168);fill-rule:nonzero;"/>
                    </g>
                </g>
            </g>
        </g>
        <path id="viewed01" fill-opacity="0" d="M458.1,158.6L381.1,158.6C369.2,158.6 359.6,149 359.6,137.1L359.6,60.1C359.6,48.2 369.2,38.6 381.1,38.6L458.1,38.6C470,38.6 479.6,48.2 479.6,60.1L479.6,137.1C479.6,149 470,158.6 458.1,158.6Z" style="fill:white;fill-rule:nonzero;"/>
        <path id="viewed02" fill-opacity="0" d="M590.3,158.3L513.3,158.3C501.4,158.3 491.8,148.7 491.8,136.8L491.8,59.8C491.8,47.9 501.4,38.3 513.3,38.3L590.3,38.3C602.2,38.3 611.8,47.9 611.8,59.8L611.8,136.8C611.8,148.7 602.2,158.3 590.3,158.3Z" style="fill:white;fill-rule:nonzero;"/>
        <path id="viewed03" fill-opacity="0" d="M590.3,288.8L513.3,288.8C501.4,288.8 491.8,279.2 491.8,267.3L491.8,190.3C491.8,178.4 501.4,168.8 513.3,168.8L590.3,168.8C602.2,168.8 611.8,178.4 611.8,190.3L611.8,267.3C611.8,279.2 602.2,288.8 590.3,288.8Z" style="fill:white;fill-rule:nonzero;"/>
        <path id="viewed04" fill-opacity="0" d="M724,288.8L647,288.8C635.1,288.8 625.5,279.2 625.5,267.3L625.5,190.3C625.5,178.4 635.1,168.8 647,168.8L724,168.8C735.9,168.8 745.5,178.4 745.5,190.3L745.5,267.3C745.5,279.2 735.9,288.8 724,288.8Z" style="fill:white;fill-rule:nonzero;"/>
        <g id="btn01" class="x-area x-hover" data-content="feed_A" data-view="1" cursor="pointer">
            <path d="M458.1,158.6L381.1,158.6C369.2,158.6 359.6,149 359.6,137.1L359.6,60.1C359.6,48.2 369.2,38.6 381.1,38.6L458.1,38.6C470,38.6 479.6,48.2 479.6,60.1L479.6,137.1C479.6,149 470,158.6 458.1,158.6Z" style="fill:rgb(229,37,104);fill-rule:nonzero;"/>
            <g id="XMLID_67_1" serif:id="XMLID_67_">
                <path d="M467.3,98.6C467.3,124.9 445.9,146.3 419.6,146.3C413.1,146.3 407,145 401.4,142.7C386,136.3 374.7,122.2 372.4,105.2C372.1,103.1 372,100.9 372,98.6C372,72.3 393.4,50.9 419.7,50.9C445.9,50.9 467.3,72.3 467.3,98.6Z" style="fill:rgb(249,219,64);fill-rule:nonzero;"/>
                <path d="M419.6,50.9C417.1,50.9 414.6,51.1 412.2,51.5C435,55.1 452.5,74.8 452.5,98.6C452.5,122.4 435,142.2 412.2,145.7C414.6,146.1 417.1,146.3 419.6,146.3C445.9,146.3 467.3,124.9 467.3,98.6C467.3,72.3 445.9,50.9 419.6,50.9Z" style="fill:rgb(240,174,7);fill-rule:nonzero;"/>
                <g id="XMLID_68_1" serif:id="XMLID_68_">
                    <path id="XMLID_76_1" serif:id="XMLID_76_" d="M390.9,124C386.6,122.5 383.7,118.5 383.7,113.9C383.7,111.9 384.3,109.9 385.3,108.2L410.8,63.8C412.8,60.1 416.3,57.9 420.3,57.9C421.5,57.9 422.7,58.1 423.8,58.5C426.5,59.4 428.7,61.5 430.2,64.4L455.1,107.2C456.3,109.2 457.3,111.1 457.3,113.7C457.3,116.6 456.2,119.3 454.2,121.3C452.4,123.1 450.1,124.2 447.6,124.4L393.8,124.5C392.8,124.5 391.8,124.4 390.9,124Z" style="fill:rgb(229,37,104);fill-rule:nonzero;"/>
                    <path id="XMLID_75_1" serif:id="XMLID_75_" d="M453.9,107.9L429,65C427.3,61.5 424.3,59.3 420.4,59.3C416.7,59.3 413.7,61.4 412.1,64.5L386.5,108.9C385.6,110.3 385.1,112.1 385.1,113.9C385.1,119 389.3,123.2 394.4,123.2L394.7,123.2L446.7,123.1C451.8,123.1 456,118.9 456,113.8C456,111.5 455.1,109.9 453.9,107.9Z" style="fill:white;fill-rule:nonzero;"/>
                    <path id="XMLID_74_1" serif:id="XMLID_74_" d="M394.4,120.3C390.9,120.3 388,117.4 388,113.9C388,112.7 388.3,111.5 389,110.5L413.7,67.4L414.7,65.8C416,63.6 418,62.2 420.4,62.2C423,62.2 424.9,63.5 426.3,66.1L451.7,109.7C452.3,110.8 453.1,112.2 453.1,113.7C453.1,117.2 450.3,120.1 446.7,120.1C446.7,120.2 394.4,120.3 394.4,120.3Z" style="fill:rgb(255,57,118);fill-rule:nonzero;"/>
                    <path id="XMLID_73_1" serif:id="XMLID_73_" d="M448.2,110.4L420.4,62.2L392.8,110.6C392.4,111.3 392.1,112.1 392.1,113C392.1,115.5 394.1,117.5 396.6,117.5L396.8,117.5L444.1,117.4L444.4,117.4C446.9,117.4 448.9,115.4 448.9,112.9C448.9,112 448.6,111.1 448.2,110.4Z" style="fill:rgb(229,37,104);fill-rule:nonzero;"/>
                    <path id="XMLID_72_1" serif:id="XMLID_72_" d="M396,120.3C393.2,120.2 391,117.9 391,115.1C391,113.8 391.5,112.6 392.3,111.7C392.4,111.3 392.6,110.9 392.8,110.6L420.3,62.3C417.9,62.3 415.9,63.6 414.6,65.9L413.6,67.5L388.9,110.6C388.3,111.6 387.9,112.8 387.9,114C387.9,117.5 390.8,120.4 394.3,120.4C394.4,120.3 395,120.3 396,120.3Z" style="fill:rgb(255,68,136);fill-rule:nonzero;"/>
                    <path id="XMLID_69_1" serif:id="XMLID_69_" d="M420.7,114.4C417.9,114.4 415.7,112.2 415.7,109.4C415.7,106.6 417.9,104.4 420.7,104.4C423.5,104.4 425.7,106.6 425.7,109.4C425.7,112.2 423.5,114.4 420.7,114.4ZM425.7,76.5C425.7,74.2 423.4,74.7 420.6,74.7C417.8,74.7 415.5,74.2 415.5,76.5L415.5,77L417.5,98C417.5,99.8 418.9,101.2 420.7,101.2C422.5,101.2 423.9,99.8 423.9,98L425.8,76.9C425.7,76.8 425.7,76.6 425.7,76.5Z" style="fill:white;fill-rule:nonzero;"/>
                </g>
            </g>
        </g>
        <g id="btn02" class="x-area x-hover" data-content="feed_B" data-view="2" cursor="pointer">
            <path d="M590.3,158.3L513.3,158.3C501.4,158.3 491.8,148.7 491.8,136.8L491.8,59.8C491.8,47.9 501.4,38.3 513.3,38.3L590.3,38.3C602.2,38.3 611.8,47.9 611.8,59.8L611.8,136.8C611.8,148.7 602.2,158.3 590.3,158.3Z" style="fill:rgb(0,119,193);fill-rule:nonzero;"/>
            <g>
                <path d="M599.4,98C599.4,124.3 578,145.7 551.7,145.7C545.2,145.7 539.1,144.4 533.5,142.1C518.1,135.7 506.8,121.6 504.5,104.6C504.2,102.5 504.1,100.3 504.1,98C504.1,71.7 525.5,50.3 551.8,50.3C578,50.3 599.4,71.6 599.4,98Z" style="fill:rgb(186,202,73);fill-rule:nonzero;"/>
                <path d="M551.7,50.3C549.2,50.3 546.7,50.5 544.3,50.9C567.1,54.5 584.6,74.2 584.6,98C584.6,121.8 567.1,141.6 544.3,145.1C546.7,145.5 549.2,145.7 551.7,145.7C578,145.7 599.4,124.3 599.4,98C599.4,71.6 578,50.3 551.7,50.3Z" style="fill:rgb(167,187,24);fill-rule:nonzero;"/>
                <path d="M585.9,72C585.9,70.8 584.9,69.8 583.7,69.8L519.8,69.8C518.6,69.8 517.6,70.8 517.6,72L517.6,113.5C517.6,114.7 518.6,115.7 519.8,115.7L583.7,115.7C584.9,115.7 585.9,114.7 585.9,113.5L585.9,72Z" style="fill:white;fill-rule:nonzero;"/>
                <path d="M529.4,104.9L529.4,78.3L527.1,78.3L527.1,107.2L576.3,107.2L576.3,104.9L529.4,104.9Z" style="fill:rgb(229,231,237);fill-rule:nonzero;"/>
                <rect x="532.3" y="90.4" width="3.6" height="12.2" style="fill:rgb(49,74,94);"/>
                <rect x="539.8" y="84.9" width="3.6" height="17.7" style="fill:rgb(130,217,253);"/>
                <rect x="547.3" y="88.1" width="3.6" height="14.4" style="fill:rgb(45,151,130);"/>
                <rect x="554.8" y="82.1" width="3.6" height="20.5" style="fill:rgb(253,206,92);"/>
                <rect x="562.3" y="88.1" width="3.6" height="14.4" style="fill:rgb(84,190,233);"/>
                <rect x="569.9" y="83.7" width="3.6" height="18.9" style="fill:rgb(253,112,88);"/>
                <path d="M584,124.4C582.5,125.9 580,125.9 578.5,124.2L564,108.1L567.7,104.4L583.8,118.9C585.5,120.3 585.6,122.9 584,124.4Z" style="fill:rgb(49,74,94);fill-rule:nonzero;"/>
                <path d="M560.4,108.9C562.7,110.6 565.9,110.4 567.9,108.3C570,106.2 570.1,103 568.5,100.8L560.4,108.9Z" style="fill:rgb(42,59,78);fill-rule:nonzero;"/>
                <path d="M542.2,82.6C535.6,89.2 535.5,100 542.2,106.5C548.9,113.2 559.6,113.1 566.1,106.5C572.8,99.8 572.8,89.1 566.1,82.6C559.6,76 548.9,76 542.2,82.6ZM563.6,104C558.4,109.2 550,109.2 544.8,104C539.6,98.8 539.6,90.4 544.8,85.2C550,80 558.4,80 563.6,85.2C568.8,90.4 568.8,98.8 563.6,104Z" style="fill:rgb(49,74,94);fill-rule:nonzero;"/>
            </g>
        </g>
        <g id="btn03" class="x-area x-hover" data-content="feed_C" data-view="3" cursor="pointer">
            <path d="M590.3,288.8L513.3,288.8C501.4,288.8 491.8,279.2 491.8,267.3L491.8,190.3C491.8,178.4 501.4,168.8 513.3,168.8L590.3,168.8C602.2,168.8 611.8,178.4 611.8,190.3L611.8,267.3C611.8,279.2 602.2,288.8 590.3,288.8Z" style="fill:rgb(167,187,24);fill-rule:nonzero;"/>
            <g>
                <path d="M598.4,228C598.4,254.3 577,275.7 550.7,275.7C544.2,275.7 538.1,274.4 532.5,272.1C517.1,265.7 505.8,251.6 503.5,234.6C503.2,232.5 503.1,230.3 503.1,228C503.1,201.7 524.5,180.3 550.8,180.3C577,180.3 598.4,201.6 598.4,228Z" style="fill:rgb(62,132,197);fill-rule:nonzero;"/>
                <path d="M550.7,180.3C548.2,180.3 545.7,180.5 543.3,180.9C566.1,184.5 583.6,204.2 583.6,228C583.6,251.8 566.1,271.6 543.3,275.1C545.7,275.5 548.2,275.7 550.7,275.7C577,275.7 598.4,254.3 598.4,228C598.4,201.6 577,180.3 550.7,180.3Z" style="fill:rgb(0,119,193);fill-rule:nonzero;"/>
                <g>
                    <path d="M593.8,201.8L593.8,247.5L507.9,247.5L507.9,201.8C507.9,198.5 510.6,195.7 514,195.7L587.8,195.7C591.1,195.7 593.8,198.5 593.8,201.8Z" style="fill:rgb(72,75,127);fill-rule:nonzero;"/>
                    <path d="M588.1,201.8L588.1,243.7L513.6,243.7L513.6,201.8C513.6,201.6 513.8,201.5 513.9,201.5L587.8,201.5C588,201.5 588.1,201.6 588.1,201.8Z" style="fill:rgb(238,238,238);fill-rule:nonzero;"/>
                    <path d="M588.1,240.1L588.1,242.6L583.5,241.5C583.2,241.4 582.9,241.2 582.8,241L576.7,231.8L570.8,237.8C570.5,238.1 570.2,238.2 569.8,238.2C569.4,238.2 569.1,238 568.9,237.7L562.8,228.5L556.9,234C556.6,234.2 556.3,234.4 555.9,234.3C555.5,234.3 555.2,234.1 555,233.8L549.1,225.2L543.2,233.3C542.9,233.7 542.5,233.9 542,233.8C541.5,233.7 541.2,233.4 541,233L535,214.5L529.4,225.2C529.2,225.6 528.7,225.9 528.2,225.9C527.7,225.9 527.3,225.6 527.1,225.1L520.9,208.6L513.6,217.5L513.6,213.6L520.4,205.4C520.7,205.1 521.1,204.9 521.6,205C522,205.1 522.4,205.4 522.6,205.8L528.6,221.7L534.3,210.8C534.5,210.4 535,210.1 535.5,210.1C536,210.1 536.4,210.5 536.6,211L542.8,230L548.3,222.4C548.5,222.1 548.9,221.9 549.3,221.9C549.7,221.9 550.1,222.1 550.3,222.4L556.4,231.3L562.3,225.8C562.6,225.6 562.9,225.4 563.3,225.5C563.7,225.5 564,225.7 564.2,226L570.3,235.2L576.2,229.2C576.5,228.9 576.8,228.8 577.2,228.8C577.6,228.8 577.9,229 578.1,229.3L584.8,239.4L588.1,240.1Z" style="fill:rgb(167,196,223);fill-rule:nonzero;"/>
                    <path d="M587.9,201.5L580.7,215C580.5,215.3 580.3,215.5 579.9,215.6C579.6,215.7 579.2,215.6 578.9,215.4L573,211.6L566.8,220.3C566.6,220.6 566.3,220.8 566,220.8C565.7,220.8 565.3,220.8 565.1,220.6L559.5,216.3L553.2,232.5C553,232.9 552.7,233.2 552.3,233.3C551.9,233.4 551.5,233.3 551.2,233L545.1,227L539,231.9C538.7,232.2 538.3,232.2 537.9,232.1L531.7,230.2L525.3,237.6C525.1,237.9 524.7,238 524.4,238C524.1,238 523.7,237.9 523.5,237.6L517.5,231.2L514,235.2L514,231.4L516.5,228.5C516.7,228.2 517.1,228.1 517.4,228.1C517.8,228.1 518.1,228.2 518.3,228.5L524.3,234.9L530.3,227.9C530.6,227.5 531.1,227.4 531.6,227.5L537.9,229.4L544.3,224.2C544.8,223.8 545.5,223.8 545.9,224.3L551.5,229.8L557.8,213.8C557.9,213.4 558.2,213.2 558.6,213.1C559,213 559.4,213.1 559.7,213.3L565.6,217.8L571.8,209.2C572.2,208.7 572.9,208.5 573.5,208.9L579.3,212.6L585.3,201.4L587.9,201.5C587.8,201.5 587.8,201.5 587.9,201.5Z" style="fill:rgb(237,72,125);fill-rule:nonzero;"/>
                    <rect x="507.9" y="243.4" width="85.9" height="4.5" style="fill:rgb(52,58,111);"/>
                    <path d="M594.5,246.8C592.9,251.1 590.6,255 587.9,258.6C587.2,258.7 586.6,258.8 585.9,258.8L516,258.8C515.3,258.8 514.6,258.7 514,258.6C511.3,255 509,251.1 507.4,246.8L594.5,246.8Z" style="fill:rgb(72,75,127);fill-rule:nonzero;"/>
                    <path d="M558.7,251.5L543,251.5C540.9,251.5 539.2,249.8 539.2,247.7L539.2,246.8L562.4,246.8L562.4,247.7C562.5,249.8 560.8,251.5 558.7,251.5Z" style="fill:rgb(52,58,111);fill-rule:nonzero;"/>
                    <path d="M532,185.4C529.5,184.3 526.8,183.7 524,183.7C513.1,183.7 504.3,192.5 504.3,203.4C504.3,210.5 508,216.7 513.6,220.2C516.6,222.1 520.2,223.2 524,223.2C534.9,223.2 543.7,214.4 543.7,203.5C543.7,195.3 538.9,188.4 532,185.4Z" style="fill:rgb(237,72,125);fill-rule:nonzero;"/>
                    <path d="M538.9,203.4C538.9,211.5 532.4,218.1 524.4,218.3L524.1,218.3C522.2,218.3 520.4,217.9 518.7,217.3C517.9,217 517,216.6 516.3,216.1C512,213.5 509.2,208.8 509.2,203.4C509.2,195.2 515.9,188.5 524.1,188.5C526.1,188.5 528.1,188.9 529.8,189.6C530.8,190 531.7,190.5 532.6,191.1C533.2,191.5 533.8,192 534.4,192.6C537.1,195.3 538.9,199.1 538.9,203.4Z" style="fill:rgb(238,238,238);fill-rule:nonzero;"/>
                    <path d="M524,219C519.8,219 515.9,217.4 513,214.4C510.1,211.5 508.4,207.5 508.4,203.4C508.4,194.8 515.4,187.8 524,187.8C532.6,187.8 539.6,194.8 539.6,203.4C539.6,207.6 538,211.5 535,214.4C532,217.3 528.2,219 524,219ZM524,189.2C516.2,189.2 509.8,195.6 509.8,203.4C509.8,211.2 516.2,217.6 524,217.6C531.8,217.6 538.2,211.2 538.2,203.4C538.2,195.6 531.8,189.2 524,189.2Z" style="fill:rgb(253,102,138);fill-rule:nonzero;"/>
                    <g>
                        <path d="M524,194.2C523.6,194.2 523.3,193.9 523.3,193.5L523.3,191C523.3,190.6 523.6,190.3 524,190.3C524.4,190.3 524.7,190.6 524.7,191L524.7,193.5C524.7,193.8 524.4,194.2 524,194.2Z" style="fill:rgb(52,58,111);fill-rule:nonzero;"/>
                        <path d="M524,216.5C523.6,216.5 523.3,216.2 523.3,215.8L523.3,213.3C523.3,212.9 523.6,212.6 524,212.6C524.4,212.6 524.7,212.9 524.7,213.3L524.7,215.8C524.7,216.2 524.4,216.5 524,216.5Z" style="fill:rgb(52,58,111);fill-rule:nonzero;"/>
                        <path d="M536.4,204.1L533.9,204.1C533.5,204.1 533.2,203.8 533.2,203.4C533.2,203 533.5,202.7 533.9,202.7L536.4,202.7C536.8,202.7 537.1,203 537.1,203.4C537.1,203.8 536.8,204.1 536.4,204.1Z" style="fill:rgb(52,58,111);fill-rule:nonzero;"/>
                        <path d="M514.1,204.1L511.6,204.1C511.2,204.1 510.9,203.8 510.9,203.4C510.9,203 511.2,202.7 511.6,202.7L514.1,202.7C514.5,202.7 514.8,203 514.8,203.4C514.8,203.8 514.5,204.1 514.1,204.1Z" style="fill:rgb(52,58,111);fill-rule:nonzero;"/>
                    </g>
                    <g>
                        <path d="M532.6,199.1C532.3,199.1 532,198.9 531.9,198.6C531.8,198.3 531.9,198 532.1,197.8C532.3,197.6 532.7,197.6 532.9,197.7C533.2,197.9 533.3,198.2 533.2,198.5C533.2,198.9 532.9,199.1 532.6,199.1Z" style="fill:rgb(72,75,127);fill-rule:nonzero;"/>
                        <path d="M515.4,209.1C515.1,209.1 514.8,208.9 514.7,208.7C514.6,208.4 514.7,208.1 514.9,207.9C515.1,207.7 515.5,207.7 515.7,207.8C516,207.9 516.1,208.3 516.1,208.5C516.1,208.8 515.7,209.1 515.4,209.1Z" style="fill:rgb(72,75,127);fill-rule:nonzero;"/>
                        <path d="M529,195.5C528.7,195.5 528.4,195.3 528.3,195C528.2,194.7 528.3,194.4 528.5,194.2C528.7,194 529.1,194 529.4,194.1C529.7,194.3 529.8,194.6 529.7,194.9C529.6,195.3 529.3,195.5 529,195.5Z" style="fill:rgb(72,75,127);fill-rule:nonzero;"/>
                        <path d="M519,212.7C518.7,212.7 518.4,212.5 518.3,212.2C518.2,211.9 518.3,211.6 518.5,211.4C518.7,211.2 519.1,211.2 519.3,211.3C519.6,211.5 519.7,211.8 519.7,212.1C519.7,212.4 519.4,212.7 519,212.7Z" style="fill:rgb(72,75,127);fill-rule:nonzero;"/>
                        <path d="M519,195.5C518.7,195.5 518.4,195.3 518.3,195C518.2,194.7 518.3,194.4 518.5,194.2C518.7,194 519,194 519.3,194.1C519.6,194.2 519.7,194.6 519.7,194.9C519.7,195.2 519.4,195.5 519,195.5Z" style="fill:rgb(72,75,127);fill-rule:nonzero;"/>
                        <path d="M529,212.7C528.7,212.7 528.4,212.5 528.3,212.2C528.2,211.9 528.3,211.6 528.5,211.4C528.7,211.2 529,211.2 529.3,211.3C529.6,211.4 529.7,211.8 529.7,212.1C529.6,212.4 529.3,212.7 529,212.7Z" style="fill:rgb(72,75,127);fill-rule:nonzero;"/>
                        <path d="M515.4,199.1C515.1,199.1 514.8,198.9 514.7,198.6C514.6,198.3 514.7,198 514.9,197.8C515.1,197.6 515.5,197.6 515.7,197.7C516,197.8 516.1,198.2 516.1,198.5C516.1,198.9 515.7,199.1 515.4,199.1Z" style="fill:rgb(72,75,127);fill-rule:nonzero;"/>
                        <path d="M532.6,209.1C532.3,209.1 532,208.9 531.9,208.6C531.8,208.3 531.9,208 532.1,207.8C532.3,207.6 532.7,207.6 533,207.7C533.3,207.9 533.4,208.2 533.3,208.5C533.2,208.8 532.9,209.1 532.6,209.1Z" style="fill:rgb(72,75,127);fill-rule:nonzero;"/>
                        <path d="M527.2,204.1L524,204.1C523.6,204.1 523.3,203.8 523.3,203.4L523.3,198.2C523.3,197.8 523.6,197.5 524,197.5C524.4,197.5 524.7,197.8 524.7,198.2L524.7,202.7L527.2,202.7C527.6,202.7 527.9,203 527.9,203.4C527.9,203.8 527.6,204.1 527.2,204.1Z" style="fill:rgb(72,75,127);fill-rule:nonzero;"/>
                    </g>
                    <path d="M525.6,203.4C525.6,204.3 524.9,205 524,205C523.8,205 523.6,205 523.4,204.9C523.3,204.9 523.2,204.8 523.1,204.8C522.6,204.5 522.3,204 522.3,203.4C522.3,202.5 523,201.8 523.9,201.8C524.1,201.8 524.3,201.8 524.5,201.9C524.6,201.9 524.7,202 524.8,202.1C524.9,202.1 524.9,202.2 525,202.3C525.4,202.5 525.6,202.9 525.6,203.4Z" style="fill:rgb(237,72,125);fill-rule:nonzero;"/>
                </g>
            </g>
        </g>
        <g id="btn04" class="x-area x-hover" data-content="feed_D" data-view="4" cursor="pointer">
            <path d="M724,288.8L647,288.8C635.1,288.8 625.5,279.2 625.5,267.3L625.5,190.3C625.5,178.4 635.1,168.8 647,168.8L724,168.8C735.9,168.8 745.5,178.4 745.5,190.3L745.5,267.3C745.5,279.2 735.9,288.8 724,288.8Z" style="fill:rgb(240,174,7);fill-rule:nonzero;"/>
            <g>
                <path d="M729.7,235C729.7,261.3 708.3,282.7 682,282.7C675.5,282.7 669.4,281.4 663.8,279.1C648.4,272.7 637.1,258.6 634.8,241.6C634.5,239.5 634.4,237.3 634.4,235C634.4,208.7 655.8,187.3 682.1,187.3C708.4,187.3 729.7,208.7 729.7,235Z" style="fill:rgb(120,88,164);fill-rule:nonzero;"/>
                <path d="M682,187.3C679.5,187.3 677,187.5 674.6,187.9C697.4,191.5 714.9,211.2 714.9,235C714.9,258.8 697.4,278.6 674.6,282.1C677,282.5 679.5,282.7 682,282.7C708.3,282.7 729.7,261.3 729.7,235C729.7,208.7 708.4,187.3 682,187.3Z" style="fill:rgb(110,62,158);fill-rule:nonzero;"/>
                <path d="M735.7,231.5L708.5,249.5C706.6,250.8 704.2,251.3 701.9,250.9C699.6,250.5 697.2,251 695.3,252.3L691.7,254.7L671.3,224.6L676.3,203C676.7,201.3 676.9,199.6 676.9,197.9C676.9,193.5 675.6,189.2 673.1,185.4C672.5,184.5 672.2,183.4 672.2,182.4C672.2,180.7 673,178.9 674.6,177.9C676.7,176.5 679.5,176.8 681.3,178.5L684.5,181.6C688.2,185.2 691.1,189.6 692.9,194.4L694.7,199.1L712.8,187.1C715.7,185.2 719.6,186 721.5,189C723.3,191.9 722.4,195.6 719.6,197.5L719.6,197.6L719.7,197.6C720.4,197.3 721.2,197.2 721.9,197.2C723.1,197.2 724.3,197.5 725.3,198.2C726,198.6 726.6,199.2 727.1,200C728,201.4 728.3,203.1 728,204.6C727.5,207 725.8,208.3 725.4,208.5C725.3,208.5 725.3,208.6 725.4,208.7C725.4,208.8 725.5,208.8 725.6,208.7C726.1,208.6 726.6,208.5 727.1,208.5C728.3,208.5 729.5,208.8 730.6,209.5C731.3,209.9 731.9,210.5 732.4,211.3C734.3,214.1 733.5,218 730.7,219.9C730.6,219.9 730.6,220 730.5,220C730.5,220 730.4,220.1 730.5,220.1L730.6,220.1C732.4,219.5 734.3,219.8 735.8,220.8C736.5,221.3 737.1,221.9 737.6,222.6C739.3,225.8 738.5,229.6 735.7,231.5Z" style="fill:rgb(252,213,187);fill-rule:nonzero;"/>
                <path d="M691.9,260.5L680.4,268.1L663.8,279.1C648.4,272.7 637.1,258.6 634.8,241.6L654.1,228.8L665.8,221C667.1,220.1 669,220.5 669.9,221.8L692.8,256.4C693.6,257.8 693.2,259.6 691.9,260.5Z" style="fill:rgb(133,217,253);fill-rule:nonzero;"/>
                <path d="M691.9,260.5L680.4,268.1L654,228.8L665.7,221C667,220.1 668.9,220.5 669.8,221.8L692.7,256.4C693.6,257.8 693.2,259.6 691.9,260.5Z" style="fill:rgb(110,197,253);fill-rule:nonzero;"/>
                <g>
                    <path d="M725.2,198.5L716.1,203.4C714.8,204.1 713.2,203.7 712.4,202.6L719.5,198L719.6,198C720.3,197.7 721.1,197.6 721.8,197.6C723,197.5 724.1,197.8 725.2,198.5Z" style="fill:rgb(248,195,168);fill-rule:nonzero;"/>
                    <path d="M730.4,209.8L721.5,214.5C720.2,215.2 718.6,214.8 717.8,213.7L724.9,209.1L725.2,209C725.2,209.1 725.3,209.1 725.4,209C725.9,208.9 726.4,208.8 726.9,208.8C728.1,208.8 729.4,209.2 730.4,209.8Z" style="fill:rgb(248,195,168);fill-rule:nonzero;"/>
                    <path d="M735.6,221.1L727.8,225.3C726.5,226 724.9,225.6 724.1,224.5L730.3,220.5L730.4,220.5C732.1,219.8 734,220.1 735.6,221.1Z" style="fill:rgb(248,195,168);fill-rule:nonzero;"/>
                </g>
            </g>
        </g>
    </g>
</svg>
