<?xml version="1.0" encoding="utf-8"?>
<!-- Generator: Adobe Illustrator 24.0.1, SVG Export Plug-In . SVG Version: 6.00 Build 0)  -->
<svg version="1.1" id="Layer_1" xmlns="http://www.w3.org/2000/svg" xmlns:xlink="http://www.w3.org/1999/xlink" x="0px" y="0px"
	 width="287px" height="140px" viewBox="0 0 287 140" style="enable-background:new 0 0 287 140;" xml:space="preserve">
<style type="text/css">
	.st0{fill:#FFFFFF;}
	.st1{fill:#A2CA39;}
	.st2{clip-path:url(#SVGID_2_);fill:#A2CA39;}
	.st3{clip-path:url(#SVGID_4_);fill:#009F4C;}
	.st4{fill:#009F4C;}
	.st5{fill:#2275B8;}
	.st6{fill:#2BA8DF;}
	.st7{fill:#1D75B8;}
	.st8{fill:#231F20;}
	.st9{fill:#03A04B;}
	.st10{opacity:0.4;fill:#FFFFFF;}
</style>
<g>
	<rect x="7" y="8.5" class="st0" width="272" height="124"/>
	<g>
		<path class="st1" d="M56.8,96.4c-0.1,0-0.2-0.1-0.3-0.1c-6.6-5.4-10.4-13.5-10.4-22.2c0.1-8.7,3.9-16.7,10.6-22
			c0.2-0.1,0.4-0.1,0.7,0.1c0.1,0.2,0.1,0.4-0.1,0.7c-6.4,5-10.2,12.8-10.2,21.1c-0.1,8.5,3.6,16.2,10,21.4c0.2,0.1,0.3,0.4,0.1,0.7
			C57.1,96.3,57,96.4,56.8,96.4"/>
		<g>
			<g>
				<g>
					<g>
						<g>
							<defs>
								<rect id="SVGID_1_" x="52.7" y="45.1" width="56.3" height="56.3"/>
							</defs>
							<clipPath id="SVGID_2_">
								<use xlink:href="#SVGID_1_"  style="overflow:visible;"/>
							</clipPath>
							<path class="st2" d="M81,101.3c-10.5,0-20.5-5.9-25.3-15.9c-0.9-1.9-1.6-3.7-2.1-5.7c-0.4-1.8-0.7-3.6-0.7-5.4
								c0-0.3,0.2-0.4,0.4-0.4c0.3,0,0.4,0.2,0.4,0.4c0.1,1.7,0.4,3.5,0.7,5.1c0.4,1.9,1.1,3.7,2,5.5c6.5,13.5,22.9,19.2,36.3,12.7
								c6.5-3.1,11.4-8.7,13.8-15.5c2.4-6.9,2-14.3-1.3-20.8c-4.2-9-13.1-14.9-23.3-15.3c-0.3,0-0.4-0.2-0.4-0.4
								c0-0.3,0.3-0.4,0.4-0.4c10.4,0.4,19.6,6.5,24.2,15.9c3.3,6.8,3.7,14.4,1.3,21.6c-2.5,7.1-7.6,12.9-14.3,16.1
								C89.2,100.5,85.1,101.3,81,101.3"/>
						</g>
					</g>
				</g>
			</g>
		</g>
		<g>
			<g>
				<g>
					<g>
						<g>
							<defs>
								<rect id="SVGID_3_" x="54.7" y="38.4" width="48.7" height="56.3"/>
							</defs>
							<clipPath id="SVGID_4_">
								<use xlink:href="#SVGID_3_"  style="overflow:visible;"/>
							</clipPath>
							<path class="st3" d="M82.9,94.7c-3.7,0-7.5-0.7-11.1-2.2c-6.9-2.9-12.3-8.5-15.1-15.4S54,62.5,57,55.6s8.5-12.3,15.4-15.1
								c7-2.8,14.6-2.8,21.6,0.2c1.9,0.8,3.6,1.8,5.3,2.9c1.4,1,2.8,2.2,4.1,3.6c0.2,0.2,0.2,0.4,0,0.7c-0.2,0.2-0.4,0.2-0.7,0
								c-1.2-1.3-2.5-2.4-3.9-3.4c-1.6-1.1-3.3-2.1-5.1-2.9c-6.7-2.9-14-2.9-20.8-0.2S60.9,49.3,58,56c-2.8,6.7-2.9,14-0.2,20.8
								s7.9,12,14.6,14.9c9.2,3.9,19.8,2.5,27.7-3.7c0.2-0.1,0.4-0.1,0.7,0.1c0.1,0.2,0.1,0.4-0.1,0.7
								C95.4,92.6,89.2,94.7,82.9,94.7"/>
						</g>
					</g>
				</g>
			</g>
		</g>
		<path class="st4" d="M46.4,63.4c0-7.1,5.6-12.7,12.7-12.7s12.7,5.6,12.7,12.7s-5.6,12.7-12.7,12.7C52.1,76.1,46.4,70.4,46.4,63.4"
			/>
		<path class="st4" d="M75.1,56.8c0-7.1,5.6-12.7,12.7-12.7s12.7,5.6,12.7,12.7s-5.6,12.7-12.7,12.7C80.8,69.5,75.1,63.8,75.1,56.8"
			/>
		<path class="st1" d="M85.3,92.7c-0.5-5.4,3.3-10,8.6-10.6c5.4-0.5,10,3.3,10.6,8.6c0.5,5.4-3.3,10-8.6,10.6
			C90.6,101.8,85.8,97.9,85.3,92.7"/>
		<path class="st1" d="M76.7,39.3c0-5.4,4.3-9.7,9.7-9.7s9.7,4.3,9.7,9.7S91.8,49,86.4,49S76.7,44.6,76.7,39.3"/>
		<path class="st1" d="M53.2,103.7c0-5.4,4.3-9.7,9.7-9.7s9.7,4.3,9.7,9.7s-4.3,9.7-9.7,9.7C57.6,113.3,53.2,109,53.2,103.7"/>
		<path class="st5" d="M72,83.2c0-1.9,1.5-3.3,3.3-3.3c1.9,0,3.3,1.5,3.3,3.3c0,1.9-1.5,3.3-3.3,3.3C73.4,86.6,72,85,72,83.2"/>
		<path class="st6" d="M115.3,48.3c-0.3,0-0.4-0.2-0.4-0.4C113.3,34.8,102.2,24.5,89,24c-0.3,0-0.4-0.2-0.4-0.4s0.2-0.4,0.4-0.4
			c13.7,0.6,25.2,11.2,26.8,24.8C115.8,48,115.6,48.2,115.3,48.3L115.3,48.3"/>
		<path class="st6" d="M97.7,82.8c0-6.1,4.9-11.1,11.1-11.1c6.1,0,11.1,4.9,11.1,11.1c0,6.1-4.9,11.1-11.1,11.1
			C102.7,93.8,97.7,88.9,97.7,82.8"/>
		<path class="st6" d="M106.4,43.7c0-4,3.3-7.4,7.4-7.4c4,0,7.4,3.3,7.4,7.4c0,4-3.3,7.4-7.4,7.4C109.7,51,106.4,47.8,106.4,43.7"/>
		<path class="st6" d="M58,39.3c0-1.9,1.5-3.3,3.3-3.3s3.3,1.5,3.3,3.3c0,1.9-1.5,3.3-3.3,3.3S58,41.1,58,39.3"/>
		<path class="st4" d="M89.9,117.3c-1.2-0.4-1.8-1.9-1.3-3c0.4-1.2,1.9-1.8,3-1.3c1.2,0.4,1.8,1.9,1.3,3
			C92.5,117.3,91.2,117.8,89.9,117.3"/>
		<path class="st7" d="M77.9,99.9c0-4,3.3-7.4,7.4-7.4c4,0,7.4,3.3,7.4,7.4c0,4-3.3,7.4-7.4,7.4C81.3,107.2,77.9,104,77.9,99.9"/>
		<path class="st7" d="M40.4,86.6c0-4,3.3-7.4,7.4-7.4s7.4,3.3,7.4,7.4c0,4-3.3,7.4-7.4,7.4C43.7,93.9,40.4,90.6,40.4,86.6"/>
		<path class="st4" d="M35.5,49.2c-1.3-0.4-1.8-1.9-1.3-3c0.4-1.3,1.9-1.8,3-1.3c1.3,0.4,1.8,1.9,1.3,3
			C38.1,49.1,36.8,49.6,35.5,49.2"/>
	</g>
	<g id="XMLID_65_">
		<g id="XMLID_66_">
			<g>
				<path class="st8" d="M141.6,92.9h2.7c0.4,0,0.4,0.1,0.4,0.4v3.8c0,0.3-0.1,0.4-0.3,0.5c-1.1,0.4-2,0.7-3.4,0.7
					c-3.7,0-5.3-2.2-5.3-5.3c0-3.3,1.5-5.5,5.4-5.5c1.6,0,2.6,0.4,3.1,0.7c0.3,0.3,0.4,0.6,0.4,0.7c0,0.3-0.1,0.3-0.3,0.3
					c-0.7-0.4-1.7-0.8-3.3-0.8c-3.2,0-4.2,1.8-4.2,4.4s1.1,4.4,4.2,4.4c0.7,0,1.6-0.1,2.6-0.5v-3.1h-1.8c-0.4,0-0.7-0.3-0.7-0.7
					C141.3,92.9,141.5,92.9,141.6,92.9z"/>
				<path class="st8" d="M147.7,95.2v2.7c0,0.4-0.1,0.4-0.4,0.4H147c-0.3,0-0.4-0.1-0.4-0.4v-6c0-0.3,0-0.4,0.3-0.4
					c0.6,0,0.8,0.3,0.8,0.8v0.4c0.4-1.1,1.1-1.4,1.9-1.4c0.8,0,1.1,0.3,1.1,0.7c0,0.3,0,0.3-0.3,0.3c-0.3-0.1-0.5-0.1-0.8-0.1
					C148.3,92.2,147.7,93.3,147.7,95.2z"/>
				<path class="st8" d="M156.3,97.5L156.3,97.5c-0.4,0.5-1.1,1-2.3,1c-1.7,0-2.4-1-2.4-2.6v-4c0-0.3,0-0.4,0.3-0.4
					c0.6,0,0.8,0.3,0.8,0.8v3.4c0,0.9,0.4,1.6,1.6,1.6c1.3,0,1.9-0.7,2-1.8v-3.8c0-0.3,0-0.4,0.3-0.4c0.6,0,0.8,0.3,0.8,0.8v5.7
					c0,0.3,0,0.4-0.3,0.4C156.6,98.3,156.3,98.1,156.3,97.5z"/>
				<path class="st8" d="M160.4,97.2v4c0,0.4-0.1,0.4-0.4,0.4h-0.3c-0.3,0-0.4-0.1-0.4-0.4v-9.4c0-0.3,0-0.4,0.3-0.4
					c0.6,0,0.8,0.3,0.8,0.8v0.4c0.4-0.7,1.3-1.3,2.5-1.3c2,0,3.2,1.4,3.2,3.4s-1.1,3.4-3.3,3.4C161.7,98.3,160.9,97.9,160.4,97.2z
					 M162.6,97.4c1.6,0,2.4-1.1,2.4-2.5s-0.7-2.6-2.4-2.6s-2.4,1.3-2.4,2.6C160.3,96.2,161,97.4,162.6,97.4z"/>
				<path class="st8" d="M170.9,91.4c2.2,0,3.4,1.3,3.4,3.4s-1.3,3.4-3.4,3.4c-2.3,0-3.4-1.3-3.4-3.4
					C167.4,92.8,168.6,91.4,170.9,91.4z M170.9,97.5c1.6,0,2.4-1.1,2.4-2.6s-0.8-2.6-2.4-2.6c-1.6,0-2.4,1.1-2.4,2.6
					C168.4,96.4,169.2,97.5,170.9,97.5z"/>
				<path class="st9" d="M176.1,97.9v-9.4c0-0.4,0.1-0.5,0.4-0.5h5c0.3,0,0.3,0,0.3,0.3c0,0.4-0.3,0.7-1,0.7H177v3.5h3.5
					c0.3,0,0.3,0,0.3,0.3c0,0.4-0.3,0.7-1,0.7h-3v4h4.3c0.3,0,0.4,0.1,0.4,0.4v0.3c0,0.3-0.1,0.4-0.4,0.4h-4.9
					C176.1,98.3,176.1,98.2,176.1,97.9z"/>
				<path class="st9" d="M188.5,98.3h-0.3c-0.3,0-0.4-0.1-0.4-0.4v-3.8c0-1.1-0.4-1.8-1.7-1.8s-1.8,0.7-1.9,1.9v3.7
					c0,0.4-0.1,0.4-0.4,0.4h-0.3c-0.3,0-0.4-0.1-0.4-0.4v-6c0-0.3,0-0.4,0.3-0.4c0.6,0,0.8,0.3,0.8,0.8v0.1c0.4-0.6,1.1-1.1,2.2-1.1
					c1.8,0,2.4,1.1,2.4,2.6v3.8C188.9,98.2,188.7,98.3,188.5,98.3z"/>
				<path class="st9" d="M191.6,95.3c0.1,1.6,1,2,2.4,2c1.2,0,1.8-0.3,2.6-0.6c0.3-0.1,0.3,0,0.3,0.1c0,0.3-0.1,0.7-0.6,0.8
					c-0.5,0.3-1.4,0.5-2.4,0.5c-2,0-3.4-0.9-3.4-3.4c0-2.4,1.1-3.6,3.3-3.6s3.2,1.3,3.2,3.4c0,0.3-0.1,0.6-0.5,0.6L191.6,95.3
					L191.6,95.3z M191.6,94.5h4.3c-0.1-1.3-0.7-2.3-2.1-2.3S191.7,93.1,191.6,94.5z"/>
				<path class="st9" d="M199.6,95.2v2.7c0,0.4-0.1,0.4-0.4,0.4h-0.3c-0.3,0-0.4-0.1-0.4-0.4v-6c0-0.3,0-0.4,0.3-0.4
					c0.6,0,0.8,0.3,0.8,0.8v0.4c0.4-1.1,1.1-1.4,1.9-1.4c0.8,0,1.1,0.3,1.1,0.7c0,0.3,0,0.3-0.3,0.3c-0.3-0.1-0.5-0.1-0.8-0.1
					C200.2,92.2,199.6,93.3,199.6,95.2z"/>
				<path class="st9" d="M203.6,101.1c-0.4-0.3-0.5-0.4-0.5-0.7c0-0.3,0.1-0.3,0.4-0.3c0.5,0.3,1.3,0.6,2.6,0.6
					c1.2,0,2.6-0.4,2.6-2.8v-0.7c-0.4,0.7-1.3,1.2-2.6,1.2c-2,0-3.3-1.3-3.3-3.4s1.2-3.5,3.2-3.5c1.2,0,2,0.5,2.6,1.3v-0.3
					c0-0.6,0.3-0.9,0.8-0.9c0.3,0,0.3,0.1,0.3,0.4v6c0,3-1.8,3.6-3.5,3.6C204.9,101.6,204,101.3,203.6,101.1z M206.3,92.3
					c-1.6,0-2.4,1.1-2.4,2.6c0,1.4,0.7,2.6,2.4,2.6s2.4-1.2,2.4-2.5C208.7,93.6,208,92.3,206.3,92.3z"/>
				<path class="st9" d="M212.5,88.1c0.1-0.3,0.3-0.3,0.5-0.3h0.5c0.3,0,0.3,0.1,0.1,0.3l-1.4,1.5c-0.1,0.1-0.3,0.1-0.4,0.1h-0.4
					c-0.1,0-0.1-0.1-0.1-0.1L212.5,88.1z M212.7,92.3v5.5c0,0.4-0.1,0.4-0.4,0.4h-0.2c-0.3,0-0.4-0.1-0.4-0.4v-6
					c0-0.3,0-0.4,0.3-0.4C212.5,91.5,212.7,91.7,212.7,92.3z"/>
				<path class="st9" d="M216.9,94.6c0.6,0,1.4,0.1,2.1,0.1v-0.9c0-1.4-1.1-1.6-2-1.6c-0.7,0-1.3,0.1-1.8,0.3
					c-0.4,0.1-0.4,0.1-0.4-0.1c0-0.4,0.1-0.6,0.5-0.7s1.2-0.3,2-0.3c1,0,2.8,0.3,2.8,2.3V98c0,0.3,0,0.4-0.3,0.4
					c-0.5,0-0.7-0.3-0.8-0.7c-0.4,0.3-1.1,0.7-2.5,0.7c-1.5,0-2.3-0.7-2.3-2C214.2,95,215.2,94.6,216.9,94.6z M219,95.5
					c-0.6-0.1-1.3-0.1-1.9-0.1c-1.1,0-1.8,0.1-1.8,1s0.5,1.1,1.5,1.1c1.2,0,1.8-0.4,2.3-0.7L219,95.5L219,95.5z"/>
				<path class="st9" d="M222.8,98.3c-0.3,0-0.4-0.1-0.4-0.4v-9.5c0-0.4,0.1-0.4,0.4-0.4h2.8c2,0,2.8,1.1,2.8,2.6
					c0,1.3-0.6,2-1.5,2.4c1.5,0.3,2.3,1.1,2.3,2.6c0,1.7-1.1,2.8-3.4,2.8L222.8,98.3L222.8,98.3z M223.4,88.8v3.6h2.2
					c1.2,0,1.8-0.7,1.8-1.8c0-1-0.5-1.8-2-1.8L223.4,88.8L223.4,88.8z M223.4,93.3v4.1h2.4c1.8,0,2.4-0.8,2.4-2c0-1.3-0.8-2-2.4-2
					L223.4,93.3L223.4,93.3z"/>
				<path class="st9" d="M234.2,91.4c2.2,0,3.4,1.3,3.4,3.4s-1.3,3.4-3.4,3.4c-2.3,0-3.4-1.3-3.4-3.4
					C230.5,92.8,231.9,91.4,234.2,91.4z M234.2,97.5c1.6,0,2.4-1.1,2.4-2.6s-0.8-2.6-2.4-2.6c-1.6,0-2.4,1.1-2.4,2.6
					C231.6,96.4,232.5,97.5,234.2,97.5z"/>
				<path class="st9" d="M239.6,101.1c-0.4-0.3-0.5-0.4-0.5-0.7c0-0.3,0.1-0.3,0.4-0.3c0.5,0.3,1.3,0.6,2.6,0.6
					c1.2,0,2.6-0.4,2.6-2.8v-0.7c-0.4,0.7-1.3,1.2-2.6,1.2c-2,0-3.3-1.3-3.3-3.4s1.2-3.5,3.2-3.5c1.2,0,2,0.5,2.6,1.3v-0.3
					c0-0.6,0.3-0.9,0.8-0.9c0.3,0,0.3,0.1,0.3,0.4v6c0,3-1.8,3.6-3.5,3.6C240.7,101.6,240,101.3,239.6,101.1z M242.2,92.3
					c-1.6,0-2.4,1.1-2.4,2.6c0,1.4,0.7,2.6,2.4,2.6s2.4-1.2,2.4-2.5C244.6,93.6,243.9,92.3,242.2,92.3z"/>
				<path class="st9" d="M250.7,91.4c2.2,0,3.4,1.3,3.4,3.4s-1.3,3.4-3.4,3.4c-2.3,0-3.4-1.3-3.4-3.4
					C247.2,92.8,248.5,91.4,250.7,91.4z M250.7,97.5c1.6,0,2.4-1.1,2.4-2.6s-0.8-2.6-2.4-2.6s-2.4,1.1-2.4,2.6
					S249.2,97.5,250.7,97.5z"/>
				<path class="st9" d="M257.2,89.9v1.6h1.8c0.3,0,0.3,0.1,0.3,0.3v0.3c0,0.3-0.1,0.3-0.3,0.3h-1.8v3.8c0,1,0.5,1.2,1,1.2
					c0.4,0,0.7-0.1,1-0.3c0.1-0.1,0.3,0,0.3,0.3c0,0.1,0,0.3-0.1,0.4c-0.3,0.3-0.7,0.5-1.4,0.5c-1.1,0-1.8-0.7-1.8-2.1v-3.8h-0.8
					c-0.3,0-0.3,0-0.3-0.3v-0.3c0-0.3,0.1-0.3,0.3-0.3h0.8v-0.4c0-1.1,0.3-1.5,0.8-1.5C257.2,89.5,257.2,89.6,257.2,89.9z"/>
				<path class="st9" d="M262.9,94.6c0.6,0,1.4,0.1,2.1,0.1v-0.9c0-1.4-1.1-1.6-2-1.6c-0.7,0-1.3,0.1-1.8,0.3
					c-0.4,0.1-0.4,0.1-0.4-0.1c0-0.4,0.1-0.6,0.5-0.7s1.2-0.3,2-0.3c1,0,2.8,0.3,2.8,2.3V98c0,0.3,0,0.4-0.3,0.4
					c-0.5,0-0.7-0.3-0.8-0.7c-0.4,0.3-1.1,0.7-2.5,0.7c-1.5,0-2.3-0.7-2.3-2C260.2,95,261.1,94.6,262.9,94.6z M265,95.5
					c-0.6-0.1-1.3-0.1-1.9-0.1c-1.1,0-1.8,0.1-1.8,1s0.5,1.1,1.5,1.1c1.2,0,1.8-0.4,2.3-0.7L265,95.5L265,95.5z M263.6,88.1
					c0.1-0.3,0.3-0.3,0.5-0.3h0.5c0.3,0,0.3,0.1,0.1,0.3l-1.4,1.5c-0.1,0.1-0.3,0.1-0.4,0.1h-0.4c-0.1,0-0.1-0.1-0.1-0.1L263.6,88.1
					z"/>
			</g>
		</g>
	</g>
	<g>
		<path class="st9" d="M138.6,63.3h-4.4v-1.6h10.6v1.6h-4.4v12.9h-1.8L138.6,63.3L138.6,63.3z"/>
		<path class="st9" d="M147.4,61.7h4.5c2.9,0,5.1,1.1,5.1,4.1c0,2.9-2.1,4.3-5.1,4.3h-2.7v6.1h-1.8V61.7z M151.7,68.6
			c2.2,0,3.5-0.9,3.5-2.8s-1.2-2.6-3.5-2.6h-2.4v5.4H151.7z M151.6,69.6l1.4-1l4.4,7.6h-2.1L151.6,69.6z"/>
		<path class="st9" d="M162.8,61.7h2.1l4.9,14.4h-1.9l-2.5-8.1c-0.5-1.6-1-3.2-1.4-4.9h-0.1c-0.4,1.7-0.9,3.3-1.4,4.9l-2.5,8.1h-1.9
			L162.8,61.7z M160.5,70.3h6.6v1.5h-6.6V70.3z"/>
		<path class="st9" d="M171.7,61.7h1.9l5.2,9.1l1.6,3h0.1c-0.1-1.5-0.2-3.1-0.2-4.6v-7.5h1.7v14.4h-1.9l-5.2-9.1l-1.6-3h-0.1
			c0.1,1.5,0.2,3,0.2,4.5v7.6h-1.7V61.7z"/>
		<path class="st9" d="M184.9,74.3L186,73c1,1.1,2.5,1.8,4,1.8c1.9,0,3-0.9,3-2.3c0-1.5-1-1.9-2.4-2.5l-2.1-0.9
			c-1.3-0.6-2.9-1.6-2.9-3.7c0-2.2,1.9-3.8,4.5-3.8c1.7,0,3.2,0.7,4.3,1.8l-1,1.2c-0.9-0.8-1.9-1.4-3.3-1.4c-1.6,0-2.7,0.8-2.7,2.1
			c0,1.4,1.3,1.9,2.4,2.4l2.1,0.9c1.7,0.7,3,1.7,3,3.9c0,2.3-1.9,4.1-4.9,4.1C188,76.4,186.2,75.6,184.9,74.3z"/>
		<path class="st9" d="M197.7,61.7h2.2l2.8,7.7c0.3,1,0.7,2,1,3h0.1c0.3-1,0.7-2,1-3l2.7-7.7h2.2v14.4H208v-8c0-1.3,0.1-3,0.2-4.3
			h-0.1l-1.1,3.3l-2.7,7.5h-1.2l-2.7-7.5l-1.1-3.3h-0.1c0.1,1.3,0.2,3,0.2,4.3v8h-1.7L197.7,61.7L197.7,61.7z"/>
		<path class="st9" d="M213.7,61.7h1.8v14.4h-1.8V61.7z"/>
		<path class="st9" d="M218.5,74.3l1.1-1.3c1,1.1,2.5,1.8,4,1.8c1.9,0,3-0.9,3-2.3c0-1.5-1-1.9-2.4-2.5l-2.1-0.9
			c-1.3-0.6-2.9-1.6-2.9-3.7c0-2.2,1.9-3.8,4.5-3.8c1.7,0,3.2,0.7,4.3,1.8l-1,1.2c-0.9-0.8-1.9-1.4-3.3-1.4c-1.6,0-2.7,0.8-2.7,2.1
			c0,1.4,1.3,1.9,2.4,2.4l2.1,0.9c1.7,0.7,3,1.7,3,3.9c0,2.3-1.9,4.1-4.9,4.1C221.5,76.4,219.7,75.6,218.5,74.3z"/>
		<path class="st9" d="M231.3,61.7h1.8v14.4h-1.8V61.7z"/>
		<path class="st9" d="M236.2,68.9c0-4.6,2.5-7.4,6.2-7.4s6.2,2.8,6.2,7.4s-2.5,7.5-6.2,7.5S236.2,73.5,236.2,68.9z M246.6,68.9
			c0-3.6-1.7-5.8-4.3-5.8s-4.3,2.2-4.3,5.8s1.7,5.9,4.3,5.9C245,74.8,246.6,72.5,246.6,68.9z M241.2,59.9l3.1-2.8l1,1.2l-3.3,2.5
			L241.2,59.9z"/>
		<path class="st9" d="M251.6,61.7h1.9l5.2,9.1l1.6,3h0.1c-0.1-1.5-0.2-3.1-0.2-4.6v-7.5h1.7v14.4H260l-5.2-9.1l-1.6-3h-0.1
			c0.1,1.5,0.2,3,0.2,4.5v7.6h-1.7L251.6,61.7L251.6,61.7z"/>
	</g>
</g>
<rect x="7.5" y="8.5" class="st10" width="272" height="124"/>
</svg>
