<?xml version="1.0" encoding="utf-8"?>
<!-- Generator: Adobe Illustrator 24.0.1, SVG Export Plug-In . SVG Version: 6.00 Build 0)  -->
<svg version="1.1" id="Layer_1" xmlns="http://www.w3.org/2000/svg" xmlns:xlink="http://www.w3.org/1999/xlink" x="0px" y="0px"
	 width="287px" height="140px" viewBox="0 0 287 140" style="enable-background:new 0 0 287 140;" xml:space="preserve">
<style type="text/css">
	.st0{fill:#FFFFFF;}
	.st1{fill:#231F20;}
	.st2{fill:#03A04B;}
	.st3{fill:#A3CB3A;}
	.st4{fill:#2275B9;}
	.st5{fill:#2DA9E0;}
	.st6{fill:#1D75B9;}
</style>
<g>
	<rect x="7.5" y="8.5" class="st0" width="272" height="124"/>
	<g>
		<g id="XMLID_370_">
			<g id="XMLID_407_">
				<g id="XMLID_410_">
					<g>
						<path class="st1" d="M125.2,92h2.4c0.3,0,0.4,0.1,0.4,0.4v3.4c0,0.3-0.1,0.3-0.3,0.5c-1,0.4-1.8,0.5-2.9,0.5
							c-3.3,0-4.7-2-4.7-4.7c0-2.8,1.3-4.7,4.7-4.7c1.4,0,2.2,0.3,2.8,0.7c0.3,0.2,0.3,0.5,0.3,0.7c0,0.2-0.1,0.3-0.2,0.2
							c-0.7-0.3-1.4-0.8-2.8-0.8c-2.8,0-3.8,1.6-3.8,4c0,2.2,0.9,3.8,3.7,3.8c0.7,0,1.4-0.1,2.3-0.4v-2.8h-1.5
							c-0.4,0-0.7-0.3-0.7-0.7C125,92,125.1,92,125.2,92z"/>
						<path class="st1" d="M130.6,93.9v2.4c0,0.3-0.1,0.3-0.3,0.3h-0.2c-0.3,0-0.3-0.1-0.3-0.3V91c0-0.3,0-0.3,0.2-0.3
							c0.5,0,0.7,0.2,0.7,0.7v0.4c0.3-1,0.9-1.3,1.6-1.3c0.8,0,1,0.3,1,0.7c0,0.2,0,0.3-0.2,0.2c-0.3-0.1-0.4-0.1-0.7-0.1
							C131.1,91.4,130.6,92.4,130.6,93.9z"/>
						<path class="st1" d="M138.2,96v-0.1c-0.3,0.5-1.1,0.9-2,0.9c-1.4,0-2.1-0.9-2.1-2.2V91c0-0.3,0-0.3,0.2-0.3
							c0.5,0,0.7,0.2,0.7,0.7v3.1c0,0.9,0.4,1.4,1.4,1.4c1.1,0,1.6-0.7,1.7-1.5v-3.4c0-0.3,0-0.3,0.2-0.3c0.5,0,0.8,0.2,0.8,0.7v4.9
							c0,0.3,0,0.3-0.2,0.3C138.4,96.7,138.2,96.5,138.2,96z"/>
						<path class="st1" d="M141.8,95.7v3.6c0,0.3-0.1,0.3-0.3,0.3h-0.2c-0.3,0-0.3-0.1-0.3-0.3V91c0-0.3,0-0.3,0.2-0.3
							c0.5,0,0.7,0.2,0.7,0.7v0.3c0.4-0.7,1.1-1.1,2.2-1.1c1.8,0,2.8,1.3,2.8,3.1s-1,3.1-2.8,3.1C142.9,96.7,142.2,96.3,141.8,95.7z
							 M143.8,95.9c1.4,0,2.1-1,2.1-2.2s-0.7-2.3-2-2.3c-1.4,0-2.1,1.1-2.1,2.3C141.7,94.9,142.4,95.9,143.8,95.9z"/>
						<path class="st1" d="M151,90.6c2,0,3.1,1.3,3.1,3.1c0,1.9-1.1,3.1-3.1,3.1c-2,0-3.1-1.2-3.1-3.1
							C147.9,91.8,148.9,90.6,151,90.6z M151,96c1.4,0,2.2-0.9,2.2-2.2c0-1.3-0.8-2.3-2.2-2.3c-1.4,0-2.2,1-2.2,2.3
							C148.8,95.1,149.6,96,151,96z"/>
						<path class="st2" d="M155.6,96.3v-8.4c0-0.3,0.1-0.4,0.4-0.4h4.4c0.2,0,0.3,0,0.3,0.1c0,0.3-0.3,0.7-0.9,0.7h-3.3v3.2h3.2
							c0.2,0,0.3,0,0.3,0.1c0,0.3-0.3,0.7-0.9,0.7h-2.5v3.6h3.8c0.3,0,0.3,0.1,0.3,0.3v0.2c0,0.3-0.1,0.3-0.3,0.3h-4.3
							C155.7,96.6,155.6,96.6,155.6,96.3z"/>
						<path class="st2" d="M166.5,96.6h-0.2c-0.3,0-0.3-0.1-0.3-0.3v-3.4c0-0.9-0.3-1.6-1.4-1.6c-1.1,0-1.6,0.7-1.6,1.6v3.3
							c0,0.3-0.1,0.3-0.3,0.3h-0.2c-0.3,0-0.3-0.1-0.3-0.3V91c0-0.3,0-0.3,0.2-0.3c0.5,0,0.7,0.2,0.7,0.7v0.1c0.3-0.5,1-0.9,2-0.9
							c1.5,0,2.2,0.9,2.2,2.3v3.4C166.8,96.6,166.7,96.6,166.5,96.6z"/>
						<path class="st2" d="M169.2,94.1c0.1,1.4,0.9,1.8,2.2,1.8c1.1,0,1.6-0.3,2.3-0.5c0.2-0.1,0.3,0,0.3,0.1c0,0.3-0.1,0.7-0.5,0.8
							c-0.5,0.2-1.3,0.4-2.2,0.4c-1.8,0-3-0.9-3-2.9c0-2.1,1.1-3.2,2.8-3.2c1.9,0,2.8,1.2,2.8,3c0,0.3-0.1,0.5-0.5,0.5h-4.3
							L169.2,94.1L169.2,94.1z M169.2,93.4h3.8c-0.1-1.2-0.7-2-1.9-2C170,91.4,169.3,92.2,169.2,93.4z"/>
						<path class="st2" d="M176.3,93.9v2.4c0,0.3-0.1,0.3-0.3,0.3h-0.2c-0.3,0-0.3-0.1-0.3-0.3V91c0-0.3,0-0.3,0.2-0.3
							c0.5,0,0.7,0.2,0.7,0.7v0.4c0.3-1,0.9-1.3,1.6-1.3c0.8,0,1,0.3,1,0.7c0,0.2,0,0.3-0.2,0.2c-0.3-0.1-0.4-0.1-0.7-0.1
							C176.9,91.4,176.3,92.4,176.3,93.9z"/>
						<path class="st2" d="M179.9,99.1c-0.3-0.1-0.5-0.3-0.5-0.7c0-0.2,0.1-0.3,0.3-0.1c0.4,0.2,1.2,0.5,2.3,0.5s2.3-0.3,2.3-2.6
							v-0.7c-0.4,0.7-1.1,1.1-2.2,1.1c-1.8,0-2.8-1.3-2.8-3.1s1.1-3.2,2.8-3.2c1.1,0,1.8,0.4,2.2,1.1v-0.2c0-0.5,0.2-0.8,0.7-0.8
							c0.1,0,0.2,0.1,0.2,0.3v5.4c0,2.6-1.5,3.2-3.2,3.2C180.9,99.6,180.3,99.4,179.9,99.1z M182.3,91.4c-1.4,0-2,1-2,2.3
							c0,1.3,0.7,2.2,2.1,2.2c1.4,0,2.1-1.1,2.1-2.2C184.4,92.6,183.8,91.4,182.3,91.4z"/>
						<path class="st2" d="M187.8,87.7c0.1-0.2,0.2-0.3,0.5-0.3h0.5c0.2,0,0.3,0.1,0.1,0.3l-1.3,1.3c-0.1,0.1-0.2,0.1-0.3,0.1h-0.4
							c-0.1,0-0.1-0.1-0.1-0.1L187.8,87.7z M187.9,91.4v4.9c0,0.3-0.1,0.3-0.3,0.3h-0.2c-0.3,0-0.3-0.1-0.3-0.3V91
							c0-0.3,0-0.3,0.2-0.3C187.7,90.6,187.9,90.8,187.9,91.4z"/>
						<path class="st2" d="M191.5,93.4c0.5,0,1.3,0.1,1.9,0.1v-0.8c0-1.3-1-1.4-1.7-1.4c-0.7,0-1.2,0.1-1.6,0.2
							c-0.3,0.1-0.3,0.1-0.3-0.1c0-0.3,0.1-0.5,0.4-0.7c0.3-0.1,1.1-0.3,1.6-0.3c0.9,0,2.5,0.2,2.5,2v3.8c0,0.3,0,0.3-0.2,0.3
							c-0.5,0-0.7-0.2-0.8-0.7c-0.3,0.3-1,0.7-2.2,0.7c-1.3,0-2-0.5-2-1.7C189.2,93.8,190,93.4,191.5,93.4z M193.5,94.2
							c-0.5-0.1-1.3-0.1-1.6-0.1c-1,0-1.6,0.1-1.6,0.9s0.5,1,1.3,1c1.1,0,1.6-0.3,2-0.7L193.5,94.2L193.5,94.2z"/>
						<path class="st2" d="M196.8,96.6c-0.3,0-0.3-0.1-0.3-0.3v-8.4c0-0.3,0.1-0.4,0.4-0.4h2.5c1.8,0,2.5,1.1,2.5,2.2
							s-0.5,1.8-1.3,2.1c1.3,0.2,2,1,2,2.3c0,1.4-0.9,2.5-2.9,2.5L196.8,96.6L196.8,96.6z M197.3,88.3v3.2h2c1.1,0,1.6-0.7,1.6-1.6
							s-0.4-1.6-1.8-1.6C199,88.3,197.3,88.3,197.3,88.3z M197.3,92.3v3.6h2.1c1.5,0,2.1-0.7,2.1-1.8c0-1.2-0.8-1.8-2.1-1.8h-2.1
							V92.3z"/>
						<path class="st2" d="M206.7,90.6c2,0,3.1,1.3,3.1,3.1c0,1.9-1.1,3.1-3.1,3.1c-2,0-3.1-1.2-3.1-3.1
							C203.6,91.8,204.7,90.6,206.7,90.6z M206.7,96c1.4,0,2.2-0.9,2.2-2.2c0-1.3-0.8-2.3-2.2-2.3s-2.2,1-2.2,2.3
							C204.6,95.1,205.3,96,206.7,96z"/>
						<path class="st2" d="M211.5,99.1c-0.3-0.1-0.5-0.3-0.5-0.7c0-0.2,0.1-0.3,0.3-0.1c0.4,0.2,1.2,0.5,2.3,0.5s2.3-0.3,2.3-2.6
							v-0.7c-0.4,0.7-1.1,1.1-2.2,1.1c-1.8,0-2.8-1.3-2.8-3.1s1.1-3.2,2.8-3.2c1.1,0,1.8,0.4,2.2,1.1v-0.2c0-0.5,0.2-0.8,0.7-0.8
							c0.1,0,0.2,0.1,0.2,0.3v5.4c0,2.6-1.5,3.2-3.2,3.2C212.5,99.6,211.9,99.4,211.5,99.1z M213.9,91.4c-1.4,0-2,1-2,2.3
							c0,1.3,0.7,2.2,2.1,2.2c1.4,0,2.1-1.1,2.1-2.2C216,92.6,215.3,91.4,213.9,91.4z"/>
						<path class="st2" d="M221.4,90.6c2,0,3.1,1.3,3.1,3.1c0,1.9-1.1,3.1-3.1,3.1c-2,0-3.1-1.2-3.1-3.1
							C218.3,91.8,219.4,90.6,221.4,90.6z M221.4,96c1.4,0,2.2-0.9,2.2-2.2c0-1.3-0.8-2.3-2.2-2.3s-2.2,1-2.2,2.3
							C219.3,95.1,220,96,221.4,96z"/>
						<path class="st2" d="M227.1,89.3v1.4h1.5c0.3,0,0.3,0.1,0.3,0.3v0.2c0,0.3-0.1,0.3-0.3,0.3h-1.5v3.4c0,0.9,0.5,1.1,0.9,1.1
							c0.3,0,0.7-0.1,0.9-0.2c0.1-0.1,0.2,0,0.2,0.2c0,0.1,0,0.3-0.1,0.3c-0.2,0.3-0.7,0.5-1.3,0.5c-1.1,0-1.5-0.7-1.5-1.9v-3.4
							h-0.7c-0.3,0-0.3,0-0.3-0.3v-0.2c0-0.3,0.1-0.3,0.3-0.3h0.7v-0.3c0-0.9,0.3-1.3,0.7-1.3C227.1,88.9,227.1,89,227.1,89.3z"/>
						<path class="st2" d="M232,93.4c0.5,0,1.3,0.1,1.9,0.1v-0.8c0-1.3-1-1.4-1.7-1.4c-0.7,0-1.2,0.1-1.6,0.2
							c-0.3,0.1-0.3,0.1-0.3-0.1c0-0.3,0.1-0.5,0.4-0.7c0.3-0.1,1.1-0.3,1.6-0.3c0.9,0,2.5,0.2,2.5,2v3.8c0,0.3,0,0.3-0.2,0.3
							c-0.5,0-0.7-0.2-0.8-0.7c-0.3,0.3-1,0.7-2.2,0.7c-1.3,0-2-0.5-2-1.7C229.8,93.8,230.5,93.4,232,93.4z M233.9,94.2
							c-0.5-0.1-1.3-0.1-1.6-0.1c-1,0-1.6,0.1-1.6,0.9s0.5,1,1.3,1c1.1,0,1.6-0.3,2-0.7L233.9,94.2L233.9,94.2z M232.7,87.7
							c0.1-0.2,0.2-0.3,0.5-0.3h0.5c0.2,0,0.3,0.1,0.1,0.3l-1.3,1.3c-0.1,0.1-0.2,0.1-0.3,0.1h-0.4c-0.1,0-0.1-0.1-0.1-0.1
							L232.7,87.7z"/>
					</g>
				</g>
			</g>
			<g id="XMLID_403_">
				<g id="XMLID_404_">
					<g>
						<path class="st2" d="M130.8,55.2c2.7,0,4.8,0.7,6.1,1.4c1.3,0.7,1.4,1.4,1.4,2.3c0,0.5-0.1,0.7-0.8,0.3
							c-1.4-0.7-3.2-1.7-6.8-1.7c-7,0-10.1,4.6-10.1,11.3c0,6.6,2.9,10.7,10,10.7c3.4,0,5-0.7,7.2-1.5c0.5-0.3,0.7-0.1,0.7,0.5
							c0,0.3-0.1,1.3-1.1,1.9c-1.2,0.8-3.6,1.4-6.8,1.4c-8.2,0-12.8-4.1-12.8-13C118.1,60,122.7,55.2,130.8,55.2z"/>
						<path class="st2" d="M149.9,64.3c5.5,0,8.6,3.4,8.6,8.7s-3.2,8.6-8.6,8.6c-5.7,0-8.7-3.4-8.7-8.6S144.3,64.3,149.9,64.3z
							 M149.9,79.4c3.9,0,6-2.6,6-6.3s-2.1-6.5-6-6.5s-6.1,2.7-6.1,6.5C143.8,76.8,146,79.4,149.9,79.4z"/>
						<path class="st2" d="M175.5,81.3H175c-0.9,0-1.1-0.1-1.1-1.1V71c0-2.6-1.1-4.5-4.1-4.5c-3,0-4.5,2-4.7,4.6v9.2
							c0,0.9-0.1,1.1-1.1,1.1h-0.5c-0.9,0-1.1-0.1-1.1-1.1V65.4c0-0.7,0-0.9,0.5-0.9c1.4,0,2,0.7,2,2v0.3c1-1.4,2.7-2.5,5.5-2.5
							c4.3,0,6,2.5,6,6.6v9.5C176.6,81.2,176.3,81.3,175.5,81.3z"/>
						<path class="st2" d="M213.5,88.4c-1-0.5-1.4-1.1-1.4-1.9c0-0.7,0.3-0.8,0.9-0.5c1.3,0.7,3.4,1.4,6.4,1.4c3,0,6.5-1,6.5-7.2
							l0.1-1.6c-1.2,1.8-3.2,3-6.3,3c-5.1,0-8-3.4-8-8.6s2.9-8.7,8-8.7c3.1,0,5.1,1.3,6.3,3.2v-0.7c0-1.5,0.5-2.2,2-2.2
							c0.5,0,0.5,0.2,0.5,1.1v15.1c0,7.4-4.3,9.1-8.8,9.1C216.4,89.6,214.5,89,213.5,88.4z M220.1,66.6c-3.9,0-5.8,2.8-5.8,6.4
							c0,3.6,1.9,6.3,5.8,6.3c4.2,0,5.9-3.1,5.9-6.3C226,69.8,224.3,66.6,220.1,66.6z"/>
						<path class="st2" d="M238.7,72.2c1.5,0,3.5,0.1,5.2,0.3v-2.2c0-3.6-2.8-3.9-4.9-3.9c-1.7,0-3.4,0.3-4.6,0.7
							c-0.9,0.3-1.1,0.1-1.1-0.3c0-1,0.4-1.5,1.3-1.8c1-0.3,2.9-0.7,4.8-0.7c2.4,0,7,0.5,7,5.7v10.6c0,0.7-0.1,0.9-0.5,0.9
							c-1.3,0-2-0.5-2.1-1.6c-1,0.7-2.8,1.7-6.1,1.7c-3.8,0-5.6-1.6-5.6-4.9C232.3,73.4,234.4,72.2,238.7,72.2z M244.1,74.5
							c-1.5-0.3-3.4-0.3-4.7-0.3c-2.8,0-4.5,0.3-4.5,2.4c0,2.1,1.4,2.8,3.7,2.8c3,0,4.5-0.9,5.6-1.6L244.1,74.5L244.1,74.5z"/>
						<path class="st2" d="M253.5,68.7c0,3.9,10,1.3,10,7.9c0,4.1-3.4,4.9-6.8,4.9c-2.3,0-3.9-0.3-5-0.9c-1-0.3-1.3-1-1.3-2
							c0-0.7,0.1-0.7,1.1-0.3c1.3,0.5,3.2,1.1,5.1,1.1c2.4,0,4.3-0.5,4.3-2.8c0-4.5-10-1.9-10-7.9c0-3.7,3.4-4.5,6.5-4.5
							c1.6,0,2.8,0.2,4,0.7c1,0.3,1.4,0.8,1.4,1.7c0,0.7-0.2,0.7-1.1,0.4c-1.1-0.3-2.3-0.7-4.3-0.7
							C255.1,66.4,253.5,67.1,253.5,68.7z"/>
					</g>
				</g>
			</g>
			<g id="XMLID_371_">
				<g id="XMLID_373_">
					<path id="XMLID_400_" class="st3" d="M43.7,93.7c-0.1,0-0.2,0-0.3-0.1c-5.9-4.7-9.3-11.9-9.2-19.8s3.5-14.9,9.5-19.6
						c0.2-0.1,0.5-0.1,0.7,0.1c0.1,0.2,0.1,0.5-0.1,0.7c-5.8,4.5-9.1,11.5-9.2,18.9c-0.1,7.5,3.2,14.5,9,19c0.2,0.1,0.2,0.4,0.1,0.7
						C43.9,93.7,43.8,93.7,43.7,93.7z"/>
					<path id="XMLID_397_" class="st3" d="M65.1,98.2c-9.3,0-18.3-5.2-22.6-14.2c-0.8-1.6-1.4-3.4-1.8-5.1c-0.3-1.5-0.7-3.2-0.7-4.7
						c0-0.2,0.1-0.4,0.4-0.4c0.2,0,0.4,0.1,0.4,0.4c0.1,1.5,0.3,3.1,0.7,4.6c0.4,1.6,1,3.4,1.7,4.9c5.8,12,20.3,17.1,32.3,11.3
						c5.9-2.8,10.3-7.8,12.3-13.9c2.2-6.1,1.7-12.7-1.1-18.6c-3.9-8.1-11.9-13.3-20.9-13.7c-0.2,0-0.4-0.2-0.4-0.4s0.2-0.4,0.4-0.4
						c9.3,0.4,17.5,5.8,21.5,14.2c2.9,6.1,3.4,12.8,1.1,19.2s-6.8,11.5-12.8,14.4C72.6,97.4,68.9,98.2,65.1,98.2z"/>
					<path id="XMLID_394_" class="st2" d="M66.9,92.4c-3.4,0-6.7-0.7-9.8-2c-6.1-2.6-10.9-7.5-13.4-13.8c-2.5-6.3-2.4-13,0.2-19.2
						c2.6-6.1,7.5-10.9,13.8-13.4c6.3-2.5,13-2.4,19.2,0.2c1.6,0.7,3.3,1.6,4.7,2.6c1.3,0.9,2.5,2,3.6,3.2c0.1,0.1,0.1,0.4,0,0.7
						c-0.1,0.1-0.4,0.1-0.7,0c-1.1-1.1-2.2-2.2-3.5-3c-1.4-1-2.9-1.9-4.5-2.6C70.6,42.5,64,42.4,58,44.8c-6,2.4-10.7,7-13.2,13
						c-2.5,5.9-2.6,12.6-0.2,18.6c2.4,6,7,10.7,13,13.2c8.2,3.5,17.7,2.2,24.7-3.4c0.2-0.1,0.4-0.1,0.7,0.1c0.1,0.2,0.1,0.4-0.1,0.7
						C78,90.4,72.6,92.4,66.9,92.4z"/>
					<circle id="XMLID_393_" class="st2" cx="45.8" cy="64.4" r="11.3"/>
					<circle id="XMLID_390_" class="st2" cx="71.3" cy="58.6" r="11.3"/>
					<circle id="XMLID_387_" class="st3" cx="77.6" cy="89.5" r="8.6"/>
					<circle id="XMLID_384_" class="st3" cx="69.9" cy="43" r="8.6"/>
					<circle id="XMLID_383_" class="st3" cx="49.1" cy="100.3" r="8.6"/>
					<circle id="XMLID_382_" class="st4" cx="60.1" cy="82" r="2.9"/>
					<g id="XMLID_377_">
						<path id="XMLID_381_" class="st5" d="M95.8,50.9c-0.2,0-0.4-0.1-0.4-0.3C94,38.9,84,29.7,72.3,29.2c-0.2,0-0.4-0.2-0.4-0.4
							c0-0.2,0.2-0.4,0.4-0.4c12.1,0.5,22.4,10,23.9,22.1C96.3,50.6,96.2,50.9,95.8,50.9C95.8,50.9,95.8,50.9,95.8,50.9z"/>
						<circle id="XMLID_380_" class="st5" cx="89.9" cy="81.7" r="9.8"/>
						<circle id="XMLID_379_" class="st5" cx="94.4" cy="46.9" r="6.6"/>
						<circle id="XMLID_378_" class="st5" cx="47.8" cy="43" r="2.9"/>
					</g>
					<circle id="XMLID_376_" class="st2" cx="74" cy="110.5" r="2.1"/>
					<circle id="XMLID_375_" class="st6" cx="69.2" cy="96.9" r="6.6"/>
					<circle id="XMLID_374_" class="st6" cx="35.6" cy="85" r="6.6"/>
				</g>
				<path id="XMLID_372_" class="st2" d="M24.8,51.7c-1.1-0.4-1.6-1.6-1.1-2.7c0.4-1.1,1.6-1.6,2.7-1.1c1.1,0.4,1.6,1.6,1.1,2.7
					C27.1,51.6,25.8,52.2,24.8,51.7"/>
			</g>
		</g>
		<g>
			<path class="st5" d="M182.9,56.2c-1.4,0.5-2.9,1.1-4.3,1.6c-2.3,0.9-4.5,1.8-6.8,2.8c-0.3,0.1-0.8,0.3-1-0.2
				c-0.2-0.4,0-0.9,0.5-1.1c3.6-1.4,7.3-2.9,10.9-4.4c0.5-0.2,1-0.3,0.9-1.1c0-0.3,0.1-0.7,0.5-0.7c0.4,0,0.5,0.3,0.5,0.7
				c0,0.1,0,0.1,0.1,0.3c0.9-0.3,1.7-0.7,2.6-1c2-0.7,4-1.3,6-1.8c0.8-0.2,1.6-0.1,2.4-0.1c0.5,0,0.7,0.4,0.5,0.9
				c-0.1,0.3-0.3,0.5-0.5,0.8c-1,0.9-2.1,1.5-3.4,1.7c-1.2,0.2-1.4,0-1.1-1.3c-2.3,0.8-4.5,1.5-6.8,2.4c0,0.2,0,0.5,0,0.7
				c0.1,4,0.1,8.1,0.3,12.1c0.1,2,0.5,3.9,0.9,5.9c0.3,1.4,0.5,2.8,0.9,4.3c0.1,0.4,0.3,0.9,0.5,1.3c0.5,0.9,0.5,1.7,0.1,2.7
				c-0.1,0.2-0.3,0.4-0.5,0.4c-0.2,0-0.5-0.2-0.5-0.4c-0.3-0.9-0.5-1.7-0.7-2.6c-0.5-2.8-1.1-5.5-1.4-8.3c-0.3-3.1-0.5-6.1-0.7-9.2
				c-0.1-2-0.1-4-0.1-5.9C182.9,56.5,182.9,56.4,182.9,56.2z"/>
			<path class="st5" d="M188.5,63.5c0.1,0.9,0.1,1.6,0.2,2.5c0.3,2.6,1.1,5,2.4,7.2c1.4,2.4,3.4,4.3,6.2,4.7c2,0.3,3.8-0.5,5.4-1.7
				c2.1-1.7,3.3-4,4.1-6.6c0.7-1.9,0.9-3.8,1-5.6c-0.3,0-0.8,0.1-1,0c-0.4-0.3-0.2-0.8,0.1-1.1c0.7-0.9,2.3-0.7,2.9,0.5
				c0.2,0.3,0.3,0.9,0.3,1.3c0,0.3-0.1,0.8-0.5,0.7c-0.4-0.1-0.5-0.4-0.4-0.9c0.1-0.4,0-0.7-0.4-1c-0.1,0.7-0.1,1.4-0.2,2
				c-0.4,3.9-1.6,7.5-4.2,10.6c-1.8,2.1-4,3.4-6.9,3.1c-2-0.2-3.6-1.2-4.9-2.6c-2.4-2.5-3.7-5.7-4.3-9.1c-0.2-1.2-0.3-2.4-0.7-3.7
				c0,0.3-0.1,0.5-0.1,0.8s0,0.8-0.4,0.8s-0.5-0.3-0.5-0.7c-0.1-1.3,1-2.4,2.2-2.3c0.5,0.1,1.2,0.4,1.3,1c0.1,0.3-0.1,0.7-0.3,0.9
				c-0.3,0.2-0.5-0.1-0.7-0.3c-0.1-0.1-0.1-0.2-0.2-0.3C188.6,63.5,188.6,63.5,188.5,63.5z"/>
		</g>
	</g>
</g>
</svg>
