<?xml version="1.0" encoding="utf-8"?>
<!-- Generator: Adobe Illustrator 24.0.0, SVG Export Plug-In . SVG Version: 6.00 Build 0)  -->
<svg version="1.1" id="Layer_1" xmlns="http://www.w3.org/2000/svg" xmlns:xlink="http://www.w3.org/1999/xlink" x="0px" y="0px"
	 width="170px" height="190px" viewBox="0 0 170 190" style="enable-background:new 0 0 170 190;" xml:space="preserve">
<style type="text/css">
	.st0{fill:none;stroke:#000000;stroke-linecap:round;stroke-miterlimit:10;}
	.st1{fill:#ACBA40;stroke:#FFFFFF;stroke-width:6;stroke-miterlimit:10;}
	.st2{fill:#231F20;}
	.st3{opacity:0.3;fill:#FFFFFF;}
	.st4{fill:#FFFFFF;}
</style>
<title>Artboard 23 copy 4</title>
<g>
	<polyline class="st0" points="11,36 85,7 160,36 	"/>
	<rect x="10" y="35" class="st1" width="150" height="150"/>
	<circle class="st2" cx="86" cy="8" r="3"/>
	<g>
		<polygon class="st3" points="144.3,184 119.2,184 15,38 40.1,38 		"/>
		<polygon class="st3" points="158,176.3 158,184 155.4,184 51.2,38 59.3,38 		"/>
		<polygon class="st3" points="158,163.1 158,168.8 64.7,38 68.7,38 		"/>
	</g>
	<g>
		<g>
			<g>
				<rect x="38.3" y="66.2" class="st4" width="24" height="3.7"/>
			</g>
		</g>
		<g>
			<g>
				<rect x="38.3" y="73.6" class="st4" width="24" height="3.7"/>
			</g>
		</g>
		<g>
			<g>
				<rect x="38.3" y="81" class="st4" width="16.6" height="3.7"/>
			</g>
		</g>
		<g>
			<g>
				<rect x="38.3" y="88.4" class="st4" width="16.6" height="3.7"/>
			</g>
		</g>
		<g>
			<g>
				<rect x="29" y="162.4" class="st4" width="111" height="3.7"/>
			</g>
		</g>
		<g>
			<g>
				<path class="st4" d="M136.1,70.9l-7.4-14.8c-0.5-0.9-1.6-1.3-2.5-0.8c0,0,0,0,0,0l-14.8,7.4c-0.9,0.5-1.3,1.6-0.8,2.5
					c0.5,0.9,1.6,1.3,2.5,0.8l10.7-5.4l-2.9,8.4c-12.9,36.6-46,62.3-84.6,65.6l0.3,3.7c40.1-3.5,74.5-30.1,87.8-68.1l3-8.5l5.4,10.9
					c0.5,0.9,1.6,1.3,2.5,0.8C136.2,73,136.6,71.8,136.1,70.9z"/>
			</g>
		</g>
		<g>
			<g>
				<path class="st4" d="M51.2,143.9H38.3c-1,0-1.8,0.8-1.8,1.8v11.1c0,1,0.8,1.8,1.8,1.8h12.9c1,0,1.8-0.8,1.8-1.8v-11.1
					C53.1,144.7,52.2,143.9,51.2,143.9z M49.4,155h-9.2v-7.4h9.2V155z"/>
			</g>
		</g>
		<g>
			<g>
				<path class="st4" d="M71.6,138.3H58.6c-1,0-1.8,0.8-1.8,1.8v16.6c0,1,0.8,1.8,1.8,1.8h12.9c1,0,1.8-0.8,1.8-1.8v-16.6
					C73.4,139.2,72.6,138.3,71.6,138.3z M69.7,155h-9.2V142h9.2V155z"/>
			</g>
		</g>
		<g>
			<g>
				<path class="st4" d="M91.9,129.1H79c-1,0-1.8,0.8-1.8,1.8v25.9c0,1,0.8,1.8,1.8,1.8h12.9c1,0,1.8-0.8,1.8-1.8v-25.9
					C93.8,129.9,92.9,129.1,91.9,129.1z M90.1,155h-9.2v-22.2h9.2V155z"/>
			</g>
		</g>
		<g>
			<g>
				<path class="st4" d="M112.3,116.1H99.3c-1,0-1.8,0.8-1.8,1.8v38.8c0,1,0.8,1.8,1.8,1.8h12.9c1,0,1.8-0.8,1.8-1.8V118
					C114.1,117,113.3,116.1,112.3,116.1z M110.4,155h-9.2v-35.1h9.2V155z"/>
			</g>
		</g>
		<g>
			<g>
				<path class="st4" d="M132.6,90.3h-12.9c-1,0-1.8,0.8-1.8,1.8v64.7c0,1,0.8,1.8,1.8,1.8h12.9c1,0,1.8-0.8,1.8-1.8V92.1
					C134.5,91.1,133.6,90.3,132.6,90.3z M130.8,155h-9.2V94h9.2V155z"/>
			</g>
		</g>
	</g>
</g>
</svg>
