<?xml version="1.0" encoding="UTF-8" standalone="no"?>
<!DOCTYPE svg PUBLIC "-//W3C//DTD SVG 1.1//EN" "http://www.w3.org/Graphics/SVG/1.1/DTD/svg11.dtd">
<svg width="100%" height="100%" viewBox="0 0 170 190" version="1.1" xmlns="http://www.w3.org/2000/svg" xmlns:xlink="http://www.w3.org/1999/xlink" xml:space="preserve" xmlns:serif="http://www.serif.com/" style="fill-rule:evenodd;clip-rule:evenodd;stroke-linecap:round;stroke-miterlimit:10;">
    <g>
        <path d="M11,36L85,7L160,36" style="fill:none;fill-rule:nonzero;stroke:black;stroke-width:1px;"/>
        <rect x="10" y="35" width="150" height="150" style="fill:rgb(153,35,105);stroke:white;stroke-width:6px;stroke-linecap:butt;"/>
        <rect x="10" y="35" width="150" height="150" style="fill:white;fill-opacity:0.5;"/>
        <circle cx="86" cy="8" r="3" style="fill:rgb(35,31,32);"/>
        <g>
            <path d="M144.3,184L119.2,184L15,38L40.1,38L144.3,184Z" style="fill:white;fill-opacity:0.3;fill-rule:nonzero;"/>
            <path d="M158,176.3L158,184L155.4,184L51.2,38L59.3,38L158,176.3Z" style="fill:white;fill-opacity:0.3;fill-rule:nonzero;"/>
            <path d="M158,163.1L158,168.8L64.7,38L68.7,38L158,163.1Z" style="fill:white;fill-opacity:0.3;fill-rule:nonzero;"/>
        </g>
        <g>
            <path d="M132.9,93.5L129.2,93.5C126.7,87.9 123,83 118.2,79.1L118.2,78.9L118.2,60.9C118.2,59.9 117.5,59 116.6,58.7C116.3,58.6 113.2,57.7 109,58.7C105.2,59.6 99.8,62.3 95.3,70L93,70L70.5,70C58.5,70 47.7,75.4 40.4,83.9L37,83.9C35.7,83.9 34.6,82.8 34.6,81.5L34.6,78C34.6,76.7 35.7,75.6 37,75.6C38.3,75.6 39.3,74.6 39.3,73.3C39.3,72 38.3,71 37,71C33.1,71 30,74.2 30,78L30,81.5C30,85.4 33.2,88.5 37,88.5C33.1,94.6 30.9,101.9 30.9,109.6C30.9,123.7 38.3,136.2 49.5,143.2L49.5,153.9C49.5,157.8 52.7,160.9 56.5,160.9L65.2,160.9C69.1,160.9 72.2,157.7 72.2,153.9L72.2,149.3L87.4,149.3L87.4,153.9C87.4,157.8 90.6,160.9 94.4,160.9L103.1,160.9C107,160.9 110.1,157.7 110.1,153.9L110.1,145.3C111.9,144.4 113.7,143.4 115.4,142.2C121.4,138 126.1,132.3 129.1,125.7L132.8,125.7C136.7,125.7 139.8,122.5 139.8,118.7L139.8,100.5C139.9,96.6 136.8,93.5 132.9,93.5ZM113.6,62.9L113.6,75.7C109.5,73.2 105,71.5 100.4,70.6C105.3,63.5 110.9,62.8 113.6,62.9ZM65.2,156.2L56.5,156.2C55.2,156.2 54.1,155.1 54.1,153.8L54.1,145.6C58.3,147.5 62.8,148.7 67.6,149L67.6,153.7C67.6,155.1 66.5,156.2 65.2,156.2ZM105.6,153.8C105.6,155.1 104.5,156.2 103.2,156.2L94.5,156.2C93.2,156.2 92.1,155.1 92.1,153.8L92.1,149.2L93,149.2C97.3,149.2 101.6,148.5 105.6,147.2L105.6,153.8ZM135.3,118.7C135.3,120 134.2,121.1 132.9,121.1L127.7,121.1C126.8,121.1 125.9,121.7 125.5,122.6C120.2,136 107.4,144.6 93,144.6L70.5,144.6C51.2,144.6 35.5,128.9 35.5,109.6C35.5,90.3 51.2,74.6 70.5,74.6L93,74.6C107.4,74.6 120.2,83.3 125.5,96.6C125.9,97.5 126.7,98.1 127.7,98.1L132.9,98.1C134.2,98.1 135.3,99.2 135.3,100.5L135.3,118.7Z" style="fill:white;fill-rule:nonzero;"/>
            <path d="M107.4,87.9C103.7,87.9 100.6,90.9 100.6,94.7C100.6,98.5 103.6,101.5 107.4,101.5C111.1,101.5 114.2,98.5 114.2,94.7C114.2,90.9 111.2,87.9 107.4,87.9ZM107.4,96.8C106.2,96.8 105.2,95.8 105.2,94.6C105.2,93.4 106.2,92.4 107.4,92.4C108.6,92.4 109.6,93.4 109.6,94.6C109.6,95.8 108.6,96.8 107.4,96.8Z" style="fill:white;fill-rule:nonzero;"/>
            <path d="M90.2,79.4L72.8,79.4C71.5,79.4 70.5,80.4 70.5,81.7C70.5,83 71.5,84 72.8,84L90.2,84C91.5,84 92.5,83 92.5,81.7C92.5,80.4 91.5,79.4 90.2,79.4Z" style="fill:white;fill-rule:nonzero;"/>
        </g>
    </g>
</svg>
