<?xml version="1.0" encoding="utf-8"?>
<!-- Generator: Adobe Illustrator 24.0.0, SVG Export Plug-In . SVG Version: 6.00 Build 0)  -->
<svg version="1.1" id="Layer_1" xmlns="http://www.w3.org/2000/svg" xmlns:xlink="http://www.w3.org/1999/xlink" x="0px" y="0px"
	 width="170px" height="190px" viewBox="0 0 170 190" style="enable-background:new 0 0 170 190;" xml:space="preserve">
<style type="text/css">
	.st0{fill:none;stroke:#000000;stroke-linecap:round;stroke-miterlimit:10;}
	.st1{fill:#E08C3D;stroke:#FFFFFF;stroke-width:6;stroke-miterlimit:10;}
	.st2{fill:#231F20;}
	.st3{opacity:0.3;fill:#FFFFFF;}
	.st4{fill:#FFFFFF;}
</style>
<g>
	<polyline class="st0" points="11,36 85,7 160,36 	"/>
	<rect x="10" y="35" class="st1" width="150" height="150"/>
	<circle class="st2" cx="86" cy="8" r="3"/>
	<g>
		<polygon class="st3" points="144.3,184 119.2,184 15,38 40.1,38 		"/>
		<polygon class="st3" points="158,176.3 158,184 155.4,184 51.2,38 59.3,38 		"/>
		<polygon class="st3" points="158,163.1 158,168.8 64.7,38 68.7,38 		"/>
	</g>
	<g>
		<path class="st4" d="M139.6,89.8c-1.6-17.7-14.1-30.5-29.8-30.5c-10.4,0-20,5.6-25.4,14.6C79.2,64.8,70,59.3,59.8,59.3
			c-15.7,0-28.2,12.8-29.8,30.5c-0.1,0.8-0.6,4.9,0.9,11.6c2.3,9.7,7.5,18.5,15.2,25.4l38.3,34.8l39-34.8c7.7-7,12.9-15.8,15.2-25.4
			C140.3,94.7,139.8,90.6,139.6,89.8z M134.6,100.5c-2.1,8.8-6.9,16.9-13.9,23.2l-36.1,32.2L49,123.7c-7-6.4-11.9-14.4-14-23.2
			c-1.5-6.3-0.9-9.9-0.9-9.9l0-0.2c1.4-15.5,12.1-26.7,25.6-26.7c9.9,0,18.6,6.1,22.8,15.9l1.9,4.6l1.9-4.6
			c4.1-9.7,13.3-15.9,23.4-15.9c13.4,0,24.2,11.2,25.6,26.9C135.5,90.5,136.1,94.1,134.6,100.5z"/>
	</g>
</g>
</svg>
