<?xml version="1.0" encoding="utf-8"?>
<!-- Generator: Adobe Illustrator 24.0.1, SVG Export Plug-In . SVG Version: 6.00 Build 0)  -->
<svg version="1.1" id="Layer_1" xmlns="http://www.w3.org/2000/svg" xmlns:xlink="http://www.w3.org/1999/xlink" x="0px" y="0px"
	 width="287px" height="140px" viewBox="0 0 287 140" style="enable-background:new 0 0 287 140;" xml:space="preserve">
<style type="text/css">
	.st0{fill:#FFFFFF;}
	.st1{fill:#231F20;}
	.st2{fill:#009F4C;}
	.st3{fill:#A2CA39;}
	.st4{clip-path:url(#SVGID_2_);fill:#A2CA39;}
	.st5{clip-path:url(#SVGID_4_);fill:#009F4C;}
	.st6{fill:#2275B8;}
	.st7{fill:#2BA8DF;}
	.st8{fill:#1D75B8;}
</style>
<g>
	<rect x="7.5" y="8.5" class="st0" width="272" height="124"/>
	<g>
		<path class="st1" d="M155.4,44.9h5.6c0.9,0,0.9,0.1,0.9,1v8c0,0.7-0.1,0.9-0.6,1.1c-2.2,0.9-4.3,1.3-6.9,1.3c-7.7,0-11-4.5-11-11
			c0-6.7,3.2-11.2,11.1-11.2c3.3,0,5.3,0.8,6.5,1.6c0.7,0.5,0.9,1.3,0.9,1.6c0,0.4-0.1,0.6-0.4,0.4c-1.5-0.9-3.5-1.8-6.7-1.8
			c-6.6,0-8.9,3.7-8.9,9.3c0,5.3,2.1,9.1,8.6,9.1c1.4,0,3.3-0.1,5.4-1.1v-6.5h-3.5c-1,0-1.6-0.6-1.6-1.4
			C154.5,44.9,154.8,44.9,155.4,44.9"/>
		<path class="st1" d="M167.8,49.4V55c0,0.7-0.1,0.9-0.9,0.9h-0.4c-0.7,0-0.9-0.1-0.9-0.9V42.6c0-0.6,0-0.8,0.4-0.8
			c1.2,0,1.7,0.5,1.7,1.7v1c0.8-2.2,2.1-3,3.9-3c1.8,0,2.2,0.6,2.2,1.6c0,0.4-0.1,0.6-0.4,0.5c-0.6-0.1-1.1-0.3-1.7-0.3
			C169.1,43.5,167.8,45.7,167.8,49.4"/>
		<path class="st1" d="M185.7,54.3v-0.4c-0.9,1.2-2.4,2.1-4.7,2.1c-3.5,0-4.9-2-4.9-5.3v-8.1c0-0.6,0-0.8,0.4-0.8
			c1.2,0,1.7,0.5,1.7,1.7v7.2c0,2,0.9,3.4,3.3,3.4c2.7,0,3.9-1.6,4.2-3.6v-7.8c0-0.6,0-0.8,0.4-0.8c1.2,0,1.8,0.5,1.8,1.7v11.7
			c0,0.6,0,0.8-0.4,0.8C186.3,56,185.7,55.5,185.7,54.3"/>
		<path class="st1" d="M194.2,53.7V62c0,0.7-0.1,0.9-0.9,0.9H193c-0.7,0-0.9-0.1-0.9-0.9V42.6c0-0.6,0-0.8,0.4-0.8
			c1.2,0,1.7,0.5,1.7,1.7v0.7c1-1.6,2.7-2.6,5.2-2.6c4.3,0,6.7,3,6.7,7.3s-2.3,7.2-6.7,7.2C196.9,56.2,195.2,55.2,194.2,53.7
			 M199,54.2c3.3,0,4.9-2.2,4.9-5.2c0-3-1.6-5.3-4.8-5.3c-3.5,0-4.9,2.7-4.9,5.3C194.1,51.6,195.4,54.2,199,54.2"/>
		<path class="st1" d="M215.9,41.6c4.6,0,7.2,2.8,7.2,7.3c0,4.4-2.7,7.2-7.2,7.2c-4.7,0-7.3-2.8-7.3-7.2S211.2,41.6,215.9,41.6
			 M215.9,54.2c3.3,0,5-2.1,5-5.3c0-3.1-1.8-5.4-5-5.4s-5.1,2.2-5.1,5.4C210.8,52.1,212.6,54.2,215.9,54.2"/>
		<path class="st2" d="M144.5,82.4V62.8c0-0.9,0.1-1.1,1-1.1h10.4c0.5,0,0.6,0,0.6,0.4c0,0.8-0.6,1.5-2.1,1.5h-7.8v7.5h7.5
			c0.5,0,0.6,0,0.6,0.4c0,0.8-0.6,1.5-2.1,1.5h-6v8.3h8.9c0.6,0,0.8,0.1,0.8,0.7v0.4c0,0.6-0.1,0.7-0.8,0.7h-10.2
			C144.7,83.2,144.5,83.1,144.5,82.4"/>
		<path class="st2" d="M170.2,83.2h-0.4c-0.7,0-0.9-0.1-0.9-0.9v-7.8c0-2.2-0.9-3.7-3.5-3.7s-3.8,1.6-4,3.8v7.7
			c0,0.7-0.1,0.9-0.9,0.9h-0.4c-0.7,0-0.9-0.1-0.9-0.9V69.9c0-0.6,0-0.8,0.4-0.8c1.2,0,1.7,0.5,1.7,1.7v0.2c0.9-1.2,2.3-2.1,4.5-2.1
			c3.5,0,5,2.1,5,5.5v8C171.1,83.1,170.9,83.2,170.2,83.2"/>
		<path class="st2" d="M176.7,77.2c0.3,3.3,2.1,4.3,5,4.3c2.5,0,3.8-0.6,5.3-1.2c0.4-0.2,0.6-0.1,0.6,0.4c0,0.7-0.4,1.3-1.2,1.8
			c-1.1,0.5-2.9,1.1-5.1,1.1c-4.3,0-7-1.9-7-6.9c0-4.9,2.4-7.5,6.7-7.5c4.5,0,6.6,2.8,6.6,7c0,0.6-0.2,1.2-1.2,1.2L176.7,77.2
			L176.7,77.2z M176.7,75.5h9c-0.1-2.8-1.4-4.7-4.5-4.7C178.4,70.8,177,72.6,176.7,75.5"/>
		<path class="st2" d="M193.3,76.8v5.6c0,0.7-0.1,0.9-0.9,0.9H192c-0.7,0-0.9-0.1-0.9-0.9V69.9c0-0.6,0-0.8,0.4-0.8
			c1.2,0,1.7,0.5,1.7,1.7v1c0.8-2.2,2.1-3,3.9-3s2.2,0.6,2.2,1.6c0,0.4-0.1,0.6-0.4,0.5c-0.6-0.1-1.1-0.3-1.7-0.3
			C194.7,70.8,193.4,73,193.3,76.8"/>
		<path class="st2" d="M201.8,89.2c-0.8-0.4-1.2-0.9-1.2-1.6c0-0.5,0.3-0.6,0.7-0.4c1.1,0.5,2.8,1.2,5.3,1.2s5.4-0.9,5.4-6V81
			c-1,1.5-2.7,2.6-5.3,2.6c-4.3,0-6.7-2.8-6.7-7.2c0-4.3,2.5-7.3,6.7-7.3c2.6,0,4.3,1.1,5.3,2.6v-0.5c0-1.3,0.4-1.8,1.7-1.8
			c0.4,0,0.4,0.2,0.4,0.9v12.6c0,6.2-3.5,7.5-7.4,7.5C204.2,90.2,202.7,89.6,201.8,89.2 M207.4,70.9c-3.3,0-4.8,2.3-4.8,5.3
			s1.6,5.3,4.9,5.3c3.5,0,4.9-2.6,4.9-5.2C212.3,73.6,210.8,70.9,207.4,70.9"/>
		<path class="st2" d="M220.4,62.1c0.4-0.5,0.5-0.6,1.1-0.6h1.1c0.4,0,0.6,0.3,0.2,0.6l-2.9,3.1c-0.3,0.3-0.4,0.4-0.9,0.4h-1
			c-0.3,0-0.4-0.1-0.1-0.4L220.4,62.1z M220.7,70.9v11.5c0,0.7-0.1,0.9-0.9,0.9h-0.4c-0.7,0-0.9-0.1-0.9-0.9V69.9
			c0-0.6,0-0.8,0.4-0.8C220.3,69.2,220.7,69.7,220.7,70.9"/>
		<path class="st2" d="M229.3,75.6c1.3,0,2.9,0.1,4.4,0.3v-1.8c0-3-2.3-3.3-4.1-3.3c-1.4,0-2.8,0.3-3.8,0.5
			c-0.8,0.2-0.9,0.1-0.9-0.3c0-0.9,0.4-1.3,1.1-1.5c0.8-0.3,2.5-0.6,4-0.6c2.1,0,5.9,0.4,5.9,4.8v8.9c0,0.6,0,0.8-0.4,0.8
			c-1.1,0-1.6-0.4-1.8-1.3c-0.9,0.6-2.3,1.4-5.2,1.4c-3.1,0-4.7-1.3-4.7-4C223.8,76.5,225.7,75.6,229.3,75.6 M233.7,77.5
			c-1.3-0.2-2.8-0.3-4-0.3c-2.3,0-3.7,0.3-3.7,2.1s1.2,2.3,3.1,2.3c2.6,0,3.8-0.7,4.6-1.3V77.5z"/>
		<path class="st2" d="M145.4,110.6c-0.7,0-0.9-0.1-0.9-0.8V90.1c0-0.9,0.1-1,1-1h6c4.3,0,6,2.4,6,5.3c0,2.8-1.2,4.3-3.1,4.9
			c3.1,0.5,4.7,2.2,4.7,5.4c0,3.5-2.1,6-6.8,6L145.4,110.6L145.4,110.6z M146.7,90.9v7.6h4.6c2.6,0,3.8-1.3,3.8-3.8
			c0-2.1-1.1-3.7-4.2-3.7L146.7,90.9L146.7,90.9z M146.7,100.2v8.4h5c3.5,0,5-1.7,5-4.3c0-2.8-1.8-4.2-5-4.2L146.7,100.2
			L146.7,100.2z"/>
		<path class="st2" d="M168.8,96.3c4.6,0,7.2,2.8,7.2,7.3c0,4.4-2.7,7.2-7.2,7.2c-4.7,0-7.3-2.8-7.3-7.2
			C161.5,99.2,164.1,96.3,168.8,96.3 M168.8,108.9c3.3,0,5-2.1,5-5.3c0-3.1-1.8-5.4-5-5.4s-5.1,2.2-5.1,5.4
			C163.7,106.7,165.6,108.9,168.8,108.9"/>
		<path class="st2" d="M180.2,116.4c-0.8-0.4-1.2-0.9-1.2-1.6c0-0.5,0.3-0.6,0.7-0.4c1.1,0.5,2.8,1.2,5.3,1.2s5.4-0.9,5.4-6v-1.4
			c-1,1.5-2.7,2.6-5.3,2.6c-4.3,0-6.7-2.8-6.7-7.2s2.5-7.3,6.7-7.3c2.6,0,4.3,1.1,5.3,2.6v-0.6c0-1.3,0.4-1.8,1.7-1.8
			c0.4,0,0.4,0.2,0.4,0.9V110c0,6.2-3.5,7.5-7.4,7.5C182.5,117.5,181,116.9,180.2,116.4 M185.7,98.2c-3.3,0-4.8,2.3-4.8,5.3
			c0,3,1.6,5.3,4.9,5.3c3.5,0,4.9-2.6,4.9-5.2C190.6,100.9,189.2,98.2,185.7,98.2"/>
		<path class="st2" d="M203.4,96.3c4.6,0,7.2,2.8,7.2,7.3c0,4.4-2.7,7.2-7.2,7.2c-4.7,0-7.3-2.8-7.3-7.2
			C196.1,99.2,198.6,96.3,203.4,96.3 M203.4,108.9c3.3,0,5-2.1,5-5.3c0-3.1-1.8-5.4-5-5.4s-5.1,2.2-5.1,5.4
			C198.4,106.7,200.1,108.9,203.4,108.9"/>
		<path class="st2" d="M216.9,93.1v3.3h3.6c0.6,0,0.6,0.1,0.6,0.7v0.4c0,0.6-0.1,0.7-0.6,0.7h-3.6v7.9c0,2.1,1.1,2.6,2,2.6
			s1.4-0.2,2.1-0.5c0.4-0.1,0.4-0.1,0.4,0.4c0,0.4-0.1,0.6-0.2,0.9c-0.4,0.7-1.3,1.1-2.9,1.1c-2.4,0-3.5-1.4-3.5-4.5v-8H213
			c-0.6,0-0.6-0.1-0.6-0.7v-0.4c0-0.6,0.1-0.7,0.6-0.7h1.7v-1c0-2.2,0.7-3.1,1.7-3.1C216.9,92.4,216.9,92.5,216.9,93.1"/>
		<path class="st2" d="M228.5,102.9c1.3,0,2.9,0.1,4.4,0.3v-1.8c0-3-2.3-3.3-4.1-3.3c-1.4,0-2.8,0.3-3.8,0.5
			c-0.8,0.2-0.9,0.1-0.9-0.3c0-0.9,0.4-1.3,1.1-1.5c0.8-0.3,2.5-0.6,4-0.6c2.1,0,5.9,0.4,5.9,4.8v8.9c0,0.6,0,0.8-0.4,0.8
			c-1.1,0-1.6-0.4-1.8-1.3c-0.9,0.6-2.3,1.4-5.2,1.4c-3.1,0-4.7-1.3-4.7-4C223.1,103.9,224.8,102.9,228.5,102.9 M232.9,104.9
			c-1.3-0.2-2.8-0.3-4-0.3c-2.3,0-3.7,0.3-3.7,2.1s1.2,2.3,3.1,2.3c2.6,0,3.8-0.7,4.6-1.3V104.9z M230,89.5c0.4-0.5,0.5-0.6,1.1-0.6
			h1.1c0.4,0,0.6,0.3,0.2,0.6l-2.9,3.1c-0.3,0.3-0.4,0.4-0.9,0.4h-0.9c-0.3,0-0.4-0.1-0.1-0.4L230,89.5z"/>
		<path class="st3" d="M68.6,96.8c-0.1,0-0.2-0.1-0.3-0.1c-6.3-5.1-9.9-12.9-9.9-21.2c0.1-8.3,3.8-16,10.2-21
			c0.2-0.1,0.4-0.1,0.6,0.1c0.1,0.2,0.1,0.4-0.1,0.6c-6.2,4.8-9.8,12.3-9.8,20.2c-0.1,8.1,3.5,15.5,9.6,20.4
			c0.2,0.1,0.3,0.4,0.1,0.6C68.9,96.8,68.8,96.8,68.6,96.8"/>
		<g>
			<g>
				<g>
					<g>
						<defs>
							<rect id="SVGID_1_" x="64.7" y="47.9" width="53.8" height="53.8"/>
						</defs>
						<clipPath id="SVGID_2_">
							<use xlink:href="#SVGID_1_"  style="overflow:visible;"/>
						</clipPath>
						<path class="st4" d="M91.7,101.6c-10,0-19.6-5.6-24.2-15.2c-0.9-1.8-1.5-3.5-2-5.5c-0.4-1.7-0.6-3.4-0.7-5.1
							c0-0.3,0.2-0.4,0.4-0.4c0.3,0,0.4,0.2,0.4,0.4c0.1,1.6,0.4,3.3,0.7,4.9c0.4,1.8,1.1,3.5,1.9,5.3c6.2,12.9,21.9,18.3,34.7,12.1
							c6.2-3,10.9-8.3,13.2-14.8c2.3-6.6,1.9-13.6-1.2-19.9c-4.2-8.7-12.7-14.3-22.4-14.7c-0.3,0-0.4-0.2-0.4-0.4
							c0-0.3,0.3-0.4,0.4-0.4c9.9,0.4,18.7,6.2,23.1,15.2c3.1,6.5,3.5,13.8,1.2,20.6c-2.3,6.7-7.2,12.3-13.7,15.4
							C99.6,100.7,95.6,101.6,91.7,101.6"/>
					</g>
				</g>
			</g>
		</g>
		<g>
			<g>
				<g>
					<g>
						<defs>
							<rect id="SVGID_3_" x="66.6" y="41.5" width="46.5" height="53.8"/>
						</defs>
						<clipPath id="SVGID_4_">
							<use xlink:href="#SVGID_3_"  style="overflow:visible;"/>
						</clipPath>
						<path class="st5" d="M93.6,95.3c-3.5,0-7.2-0.7-10.6-2.1c-6.6-2.8-11.7-8.1-14.4-14.7s-2.6-14,0.2-20.6
							c2.8-6.6,8.1-11.7,14.7-14.4c6.7-2.7,14-2.6,20.6,0.2c1.8,0.8,3.5,1.7,5,2.8c1.3,1,2.7,2.1,3.9,3.4c0.2,0.2,0.2,0.4,0,0.6
							c-0.2,0.2-0.4,0.2-0.6,0c-1.1-1.2-2.4-2.3-3.7-3.3c-1.5-1.1-3.1-2-4.9-2.8c-6.4-2.8-13.4-2.8-19.9-0.2
							c-6.5,2.6-11.5,7.5-14.2,13.9S66.9,71.6,69.5,78S77,89.5,83.4,92.2c8.8,3.8,19,2.4,26.5-3.5c0.2-0.1,0.4-0.1,0.6,0.1
							c0.1,0.2,0.1,0.4-0.1,0.6C105.5,93.2,99.5,95.3,93.6,95.3"/>
					</g>
				</g>
			</g>
		</g>
		<path class="st2" d="M58.7,65.3c0-6.7,5.4-12.1,12.1-12.1S83,58.6,83,65.3s-5.4,12.1-12.1,12.1C64.2,77.5,58.7,72.1,58.7,65.3"/>
		<path class="st2" d="M86.1,59.1c0-6.7,5.4-12.1,12.1-12.1s12.1,5.4,12.1,12.1S105,71.2,98.2,71.2C91.6,71.2,86.1,65.7,86.1,59.1"
			/>
		<path class="st3" d="M95.8,93.3c-0.5-5.1,3.1-9.6,8.2-10.2c5.1-0.5,9.6,3.1,10.2,8.2c0.5,5.1-3.1,9.6-8.2,10.2
			C100.9,102,96.3,98.3,95.8,93.3"/>
		<path class="st3" d="M87.6,42.3c0-5.1,4.1-9.2,9.2-9.2s9.2,4.1,9.2,9.2s-4.1,9.2-9.2,9.2C91.7,51.6,87.6,47.4,87.6,42.3"/>
		<path class="st3" d="M65.2,103.8c0-5.1,4.1-9.2,9.2-9.2s9.2,4.1,9.2,9.2c0,5.1-4.1,9.2-9.2,9.2C69.4,113,65.2,108.9,65.2,103.8"/>
		<path class="st6" d="M83.1,84.3c0-1.8,1.4-3.1,3.1-3.1c1.8,0,3.1,1.4,3.1,3.1c0,1.8-1.4,3.1-3.1,3.1C84.5,87.5,83.1,86,83.1,84.3"
			/>
		<path class="st7" d="M124.5,50.9c-0.3,0-0.4-0.2-0.4-0.4C122.6,38,112,28.1,99.3,27.6c-0.3,0-0.4-0.2-0.4-0.4
			c0-0.2,0.2-0.4,0.4-0.4c13.1,0.6,24.1,10.7,25.6,23.7C125,50.6,124.8,50.8,124.5,50.9L124.5,50.9"/>
		<path class="st7" d="M107.7,83.8c0-5.8,4.7-10.6,10.6-10.6c5.8,0,10.6,4.7,10.6,10.6c0,5.8-4.7,10.6-10.6,10.6
			C112.4,94.4,107.7,89.7,107.7,83.8"/>
		<path class="st7" d="M116,46.5c0-3.8,3.1-7,7-7c3.8,0,7,3.1,7,7c0,3.8-3.1,7-7,7C119.2,53.5,116,50.4,116,46.5"/>
		<path class="st7" d="M69.8,42.3c0-1.8,1.4-3.1,3.1-3.1s3.1,1.4,3.1,3.1c0,1.8-1.4,3.1-3.1,3.1S69.8,44.1,69.8,42.3"/>
		<path class="st2" d="M100.2,116.9c-1.1-0.4-1.7-1.8-1.2-2.9c0.4-1.1,1.8-1.7,2.9-1.2c1.1,0.4,1.7,1.8,1.2,2.9
			C102.7,116.8,101.4,117.3,100.2,116.9"/>
		<path class="st8" d="M88.8,100.2c0-3.8,3.1-7,7-7c3.8,0,7,3.1,7,7c0,3.8-3.1,7-7,7C92,107.2,88.8,104.1,88.8,100.2"/>
		<path class="st8" d="M53,87.5c0-3.8,3.1-7,7-7s7,3.1,7,7c0,3.8-3.1,7-7,7C56.1,94.5,53,91.4,53,87.5"/>
		<path class="st2" d="M48.3,51.8c-1.2-0.4-1.7-1.8-1.2-2.9c0.4-1.2,1.8-1.7,2.9-1.2c1.2,0.4,1.7,1.8,1.2,2.9
			C50.8,51.7,49.5,52.2,48.3,51.8"/>
	</g>
</g>
</svg>
