<?xml version="1.0" encoding="utf-8"?>
<!-- Generator: Adobe Illustrator 24.0.0, SVG Export Plug-In . SVG Version: 6.00 Build 0)  -->
<svg version="1.1" id="Layer_1" xmlns="http://www.w3.org/2000/svg" xmlns:xlink="http://www.w3.org/1999/xlink" x="0px" y="0px"
	 width="170px" height="190px" viewBox="0 0 170 190" style="enable-background:new 0 0 170 190;" xml:space="preserve">
<style type="text/css">
	.st0{fill:none;stroke:#000000;stroke-linecap:round;stroke-miterlimit:10;}
	.st1{fill:#992369;stroke:#FFFFFF;stroke-width:6;stroke-miterlimit:10;}
	.st2{fill:#231F20;}
	.st3{opacity:0.3;fill:#FFFFFF;}
	.st4{fill:#FFFFFF;}
</style>
<g>
	<polyline class="st0" points="11,36 85,7 160,36 	"/>
	<rect x="10" y="35" class="st1" width="150" height="150"/>
	<circle class="st2" cx="86" cy="8" r="3"/>
	<g>
		<polygon class="st3" points="144.3,184 119.2,184 15,38 40.1,38 		"/>
		<polygon class="st3" points="158,176.3 158,184 155.4,184 51.2,38 59.3,38 		"/>
		<polygon class="st3" points="158,163.1 158,168.8 64.7,38 68.7,38 		"/>
	</g>
	<g>
		<path class="st4" d="M132.9,93.5h-3.7c-2.5-5.6-6.2-10.5-11-14.4c0-0.1,0-0.1,0-0.2V60.9c0-1-0.7-1.9-1.6-2.2
			c-0.3-0.1-3.4-1-7.6,0c-3.8,0.9-9.2,3.6-13.7,11.3C94.5,70,93.7,70,93,70H70.5c-12,0-22.8,5.4-30.1,13.9h-3.4
			c-1.3,0-2.4-1.1-2.4-2.4v-3.5c0-1.3,1.1-2.4,2.4-2.4c1.3,0,2.3-1,2.3-2.3s-1-2.3-2.3-2.3c-3.9,0-7,3.2-7,7v3.5c0,3.9,3.2,7,7,7h0
			c-3.9,6.1-6.1,13.4-6.1,21.1c0,14.1,7.4,26.6,18.6,33.6v10.7c0,3.9,3.2,7,7,7h8.7c3.9,0,7-3.2,7-7v-4.6h15.2v4.6c0,3.9,3.2,7,7,7
			h8.7c3.9,0,7-3.2,7-7v-8.6c1.8-0.9,3.6-1.9,5.3-3.1c6-4.2,10.7-9.9,13.7-16.5h3.7c3.9,0,7-3.2,7-7v-18.2
			C139.9,96.6,136.8,93.5,132.9,93.5z M113.6,62.9v12.8c-4.1-2.5-8.6-4.2-13.2-5.1C105.3,63.5,110.9,62.8,113.6,62.9z M65.2,156.2
			h-8.7c-1.3,0-2.4-1.1-2.4-2.4v-8.2c4.2,1.9,8.7,3.1,13.5,3.4v4.7C67.6,155.1,66.5,156.2,65.2,156.2z M105.6,153.8
			c0,1.3-1.1,2.4-2.4,2.4h-8.7c-1.3,0-2.4-1.1-2.4-2.4v-4.6H93c4.3,0,8.6-0.7,12.6-2V153.8z M135.3,118.7c0,1.3-1.1,2.4-2.4,2.4
			h-5.2c-0.9,0-1.8,0.6-2.2,1.5c-5.3,13.4-18.1,22-32.5,22H70.5c-19.3,0-35-15.7-35-35c0-19.3,15.7-35,35-35H93
			c14.4,0,27.2,8.7,32.5,22c0.4,0.9,1.2,1.5,2.2,1.5h5.2c1.3,0,2.4,1.1,2.4,2.4V118.7L135.3,118.7z"/>
		<path class="st4" d="M107.4,87.9c-3.7,0-6.8,3-6.8,6.8s3,6.8,6.8,6.8c3.7,0,6.8-3,6.8-6.8S111.2,87.9,107.4,87.9z M107.4,96.8
			c-1.2,0-2.2-1-2.2-2.2s1-2.2,2.2-2.2c1.2,0,2.2,1,2.2,2.2S108.6,96.8,107.4,96.8z"/>
		<path class="st4" d="M90.2,79.4H72.8c-1.3,0-2.3,1-2.3,2.3s1,2.3,2.3,2.3h17.4c1.3,0,2.3-1,2.3-2.3S91.5,79.4,90.2,79.4z"/>
	</g>
</g>
</svg>
