<?xml version="1.0" encoding="utf-8"?>
<!-- Generator: Adobe Illustrator 24.0.0, SVG Export Plug-In . SVG Version: 6.00 Build 0)  -->
<svg version="1.1" id="Layer_1" xmlns="http://www.w3.org/2000/svg" xmlns:xlink="http://www.w3.org/1999/xlink" x="0px" y="0px"
	 width="170px" height="190px" viewBox="0 0 170 190" style="enable-background:new 0 0 170 190;" xml:space="preserve">
<style type="text/css">
	.st0{fill:none;stroke:#000000;stroke-linecap:round;stroke-miterlimit:10;}
	.st1{fill:#3C6DA4;stroke:#FFFFFF;stroke-width:6;stroke-miterlimit:10;}
	.st2{fill:#231F20;}
	.st3{opacity:0.3;fill:#FFFFFF;}
	.st4{fill:#FFFFFF;}
</style>
<title>Artboard 23 copy 4</title>
<g>
	<polyline class="st0" points="11,36 85,7 160,36 	"/>
	<rect x="10" y="35" class="st1" width="150" height="150"/>
	<circle class="st2" cx="86" cy="8" r="3"/>
	<g>
		<polygon class="st3" points="144.3,184 119.2,184 15,38 40.1,38 		"/>
		<polygon class="st3" points="158,176.3 158,184 155.4,184 51.2,38 59.3,38 		"/>
		<polygon class="st3" points="158,163.1 158,168.8 64.7,38 68.7,38 		"/>
	</g>
	<path class="st4" d="M140.1,122.8L140.1,122.8c-0.8-21.9-15-41.1-35.6-48.3c-0.4-2.9-2.9-5-5.8-5H74.9c-2.9,0-5.4,2.1-5.8,5
		c-20.7,7.2-34.8,26.4-35.6,48.3h-0.1c-3.3,0-5.9,2.7-5.9,5.9v3.9c0,3.3,2.7,5.9,5.9,5.9h106.6c3.3,0,5.9-2.7,5.9-5.9v-3.9
		C146,125.4,143.3,122.8,140.1,122.8z M69,78.7v34.2c0,1.1,0.9,2,2,2s2-0.9,2-2V75.4c0-1.1,0.9-2,2-2h9.9v43.4c0,1.1,0.9,2,2,2
		s2-0.9,2-2V73.4h9.9c1.1,0,2,0.9,2,2v37.5c0,1.1,0.9,2,2,2s2-0.9,2-2V78.7c18.4,7,30.8,24.4,31.5,44.1H37.5
		C38.2,103.1,50.6,85.8,69,78.7z M142.1,132.6c0,1.1-0.9,2-2,2H33.4c-1.1,0-2-0.9-2-2v-3.9c0-1.1,0.9-2,2-2h106.6c1.1,0,2,0.9,2,2
		V132.6z"/>
</g>
</svg>
