<?xml version="1.0" encoding="utf-8"?>
<!-- Generator: Adobe Illustrator 24.0.1, SVG Export Plug-In . SVG Version: 6.00 Build 0)  -->
<svg version="1.1" id="Layer_1" xmlns="http://www.w3.org/2000/svg" xmlns:xlink="http://www.w3.org/1999/xlink" x="0px" y="0px"
	 width="287px" height="140px" viewBox="0 0 287 140" style="enable-background:new 0 0 287 140;" xml:space="preserve">
<style type="text/css">
	.st0{fill:#FFFFFF;}
	.st1{fill:#231F20;}
	.st2{fill:#03A04B;}
	.st3{fill:#A3CB3A;}
	.st4{fill:#2275B9;}
	.st5{fill:#2DA9E0;}
	.st6{fill:#1D75B9;}
</style>
<g>
	<rect x="7.5" y="8.5" class="st0" width="272" height="124"/>
	<g>
		<g>
			<g>
				<g>
					<path class="st1" d="M139.1,95.7h2.7c0.4,0,0.5,0.1,0.5,0.5v3.8c0,0.3-0.1,0.4-0.3,0.5c-1.1,0.5-2,0.6-3.3,0.6
						c-3.7,0-5.3-2.2-5.3-5.3c0-3.2,1.6-5.4,5.3-5.4c1.6,0,2.5,0.4,3.2,0.8c0.3,0.2,0.4,0.6,0.4,0.8c0,0.2-0.1,0.3-0.2,0.2
						c-0.7-0.4-1.8-0.9-3.3-0.9c-3.2,0-4.2,1.8-4.2,4.4c0,2.5,1,4.3,4.2,4.3c0.7,0,1.6-0.1,2.6-0.5v-3.2h-1.8
						c-0.5,0-0.7-0.3-0.7-0.7C138.7,95.8,138.8,95.7,139.1,95.7z"/>
					<path class="st1" d="M145.1,98v2.7c0,0.3-0.1,0.4-0.4,0.4h-0.2c-0.3,0-0.4-0.1-0.4-0.4v-6c0-0.3,0-0.4,0.2-0.4
						c0.5,0,0.8,0.2,0.8,0.8v0.5c0.4-1.1,1-1.4,1.9-1.4c0.9,0,1.1,0.3,1.1,0.8c0,0.2,0,0.3-0.2,0.2c-0.3-0.1-0.5-0.1-0.8-0.1
						C145.7,95.1,145.1,96.1,145.1,98z"/>
					<path class="st1" d="M153.7,100.4v-0.1c-0.4,0.5-1.1,1-2.3,1c-1.6,0-2.4-0.9-2.4-2.6v-3.9c0-0.3,0-0.4,0.2-0.4
						c0.5,0,0.8,0.2,0.8,0.8v3.4c0,0.9,0.5,1.6,1.6,1.6c1.3,0,1.9-0.7,2-1.8v-3.8c0-0.3,0-0.4,0.2-0.4c0.5,0,0.9,0.2,0.9,0.8v5.7
						c0,0.3,0,0.4-0.2,0.4C154,101.1,153.7,100.9,153.7,100.4z"/>
					<path class="st1" d="M157.8,100v4c0,0.3-0.1,0.4-0.4,0.4h-0.2c-0.3,0-0.4-0.1-0.4-0.4v-9.4c0-0.3,0-0.4,0.2-0.4
						c0.5,0,0.8,0.2,0.8,0.8v0.3c0.5-0.7,1.3-1.3,2.5-1.3c2,0,3.2,1.4,3.2,3.5c0,2.1-1.1,3.4-3.2,3.4
						C159.1,101.2,158.3,100.8,157.8,100z M160.1,100.3c1.6,0,2.4-1.1,2.4-2.5c0-1.4-0.8-2.6-2.4-2.6c-1.6,0-2.4,1.3-2.4,2.6
						C157.7,99,158.4,100.3,160.1,100.3z"/>
					<path class="st1" d="M168.2,94.2c2.2,0,3.4,1.4,3.4,3.5c0,2.1-1.3,3.4-3.4,3.4c-2.3,0-3.5-1.3-3.5-3.4
						C164.7,95.6,166,94.2,168.2,94.2z M168.2,100.3c1.6,0,2.4-1,2.4-2.6c0-1.5-0.9-2.6-2.4-2.6c-1.6,0-2.4,1.1-2.4,2.6
						C165.8,99.2,166.7,100.3,168.2,100.3z"/>
					<path class="st2" d="M173.4,100.6v-9.4c0-0.4,0.1-0.5,0.5-0.5h5.1c0.2,0,0.3,0,0.3,0.1c0,0.4-0.3,0.7-1,0.7h-3.8v3.6h3.6
						c0.2,0,0.3,0,0.3,0.1c0,0.4-0.3,0.7-1,0.7h-2.9v4h4.3c0.3,0,0.4,0.1,0.4,0.3v0.2c0,0.3-0.1,0.3-0.4,0.3H174
						C173.5,101,173.4,101,173.4,100.6z"/>
					<path class="st2" d="M185.8,101h-0.2c-0.3,0-0.4-0.1-0.4-0.4v-3.8c0-1-0.4-1.8-1.6-1.8c-1.3,0-1.8,0.8-1.9,1.9v3.7
						c0,0.3-0.1,0.4-0.4,0.4h-0.2c-0.3,0-0.4-0.1-0.4-0.4v-6c0-0.3,0-0.4,0.2-0.4c0.5,0,0.8,0.2,0.8,0.8v0.1c0.4-0.5,1.1-1,2.2-1
						c1.8,0,2.4,1,2.4,2.7v3.8C186.2,101,186.2,101,185.8,101z"/>
					<path class="st2" d="M188.9,98.1c0.1,1.6,1,2,2.4,2c1.1,0,1.8-0.3,2.6-0.5c0.2-0.1,0.3,0,0.3,0.1c0,0.3-0.1,0.7-0.5,0.9
						c-0.5,0.2-1.4,0.5-2.4,0.5c-2,0-3.4-0.9-3.4-3.3s1.1-3.6,3.3-3.6c2.2,0,3.2,1.3,3.2,3.4c0,0.3-0.1,0.6-0.5,0.6H188.9
						L188.9,98.1L188.9,98.1z M188.9,97.3h4.3c-0.1-1.3-0.7-2.3-2.1-2.3C189.7,95.1,189.1,95.9,188.9,97.3z"/>
					<path class="st2" d="M197,98v2.7c0,0.3-0.1,0.4-0.4,0.4h-0.2c-0.3,0-0.4-0.1-0.4-0.4v-6c0-0.3,0-0.4,0.2-0.4
						c0.5,0,0.8,0.2,0.8,0.8v0.5c0.4-1.1,1-1.4,1.9-1.4c0.9,0,1.1,0.3,1.1,0.8c0,0.2,0,0.3-0.2,0.2c-0.3-0.1-0.5-0.1-0.8-0.1
						C197.6,95.1,197,96.1,197,98z"/>
					<path class="st2" d="M201,103.9c-0.4-0.1-0.5-0.4-0.5-0.8c0-0.2,0.1-0.3,0.3-0.1c0.5,0.2,1.3,0.5,2.6,0.5
						c1.2,0,2.6-0.4,2.6-2.9v-0.7c-0.5,0.7-1.3,1.1-2.5,1.1c-2,0-3.2-1.4-3.2-3.4s1.1-3.5,3.2-3.5c1.3,0,2,0.5,2.5,1.3v-0.2
						c0-0.6,0.2-0.9,0.8-0.9c0.1,0,0.2,0.1,0.2,0.4v6.1c0,3-1.8,3.6-3.5,3.6C202.2,104.4,201.4,104.1,201,103.9z M203.7,95.2
						c-1.6,0-2.4,1.1-2.4,2.6c0,1.4,0.8,2.5,2.4,2.5c1.6,0,2.4-1.3,2.4-2.5C206.1,96.4,205.4,95.2,203.7,95.2z"/>
					<path class="st2" d="M210,90.9c0.1-0.2,0.2-0.3,0.5-0.3h0.5c0.2,0,0.3,0.1,0.1,0.3l-1.4,1.5c-0.1,0.1-0.2,0.1-0.4,0.1h-0.5
						c-0.1,0-0.1-0.1-0.1-0.1L210,90.9z M210.2,95.1v5.6c0,0.3-0.1,0.4-0.4,0.4h-0.2c-0.3,0-0.4-0.1-0.4-0.4v-6c0-0.3,0-0.4,0.2-0.4
						C209.9,94.3,210.2,94.5,210.2,95.1z"/>
					<path class="st2" d="M214.2,97.3c0.6,0,1.4,0.1,2.1,0.1v-0.9c0-1.4-1.1-1.6-2-1.6c-0.7,0-1.3,0.1-1.8,0.2
						c-0.4,0.1-0.4,0.1-0.4-0.1c0-0.4,0.1-0.6,0.5-0.7c0.4-0.1,1.1-0.3,2-0.3c1,0,2.8,0.2,2.8,2.3v4.2c0,0.3,0,0.4-0.2,0.4
						c-0.5,0-0.8-0.2-0.9-0.7c-0.4,0.3-1.1,0.7-2.5,0.7c-1.5,0-2.3-0.6-2.3-2C211.7,97.8,212.5,97.3,214.2,97.3z M216.4,98.3
						c-0.6-0.1-1.4-0.1-1.9-0.1c-1.1,0-1.8,0.1-1.8,1s0.5,1.1,1.5,1.1c1.1,0,1.8-0.3,2.2-0.7V98.3z"/>
					<path class="st2" d="M220.2,101c-0.3,0-0.4-0.1-0.4-0.4v-9.5c0-0.4,0.1-0.5,0.5-0.5h2.8c2,0,2.8,1.1,2.8,2.6
						c0,1.3-0.6,2-1.5,2.4c1.5,0.2,2.3,1.1,2.3,2.6c0,1.8-1,2.8-3.3,2.8L220.2,101L220.2,101z M220.8,91.6v3.6h2.2
						c1.1,0,1.8-0.7,1.8-1.8c0-1-0.5-1.8-2-1.8H220.8z M220.8,96.1v4.1h2.4c1.8,0,2.4-0.8,2.4-2c0-1.3-0.9-2-2.4-2L220.8,96.1
						L220.8,96.1z"/>
					<path class="st2" d="M231.5,94.2c2.2,0,3.4,1.4,3.4,3.5c0,2.1-1.3,3.4-3.4,3.4c-2.3,0-3.5-1.3-3.5-3.4
						C227.9,95.6,229.2,94.2,231.5,94.2z M231.5,100.3c1.6,0,2.4-1,2.4-2.6c0-1.5-0.9-2.6-2.4-2.6c-1.6,0-2.4,1.1-2.4,2.6
						C229.1,99.2,229.9,100.3,231.5,100.3z"/>
					<path class="st2" d="M236.9,103.9c-0.4-0.1-0.5-0.4-0.5-0.8c0-0.2,0.1-0.3,0.3-0.1c0.5,0.2,1.3,0.5,2.6,0.5
						c1.2,0,2.6-0.4,2.6-2.9v-0.7c-0.5,0.7-1.3,1.1-2.5,1.1c-2,0-3.2-1.4-3.2-3.4s1.1-3.5,3.2-3.5c1.3,0,2,0.5,2.5,1.3v-0.2
						c0-0.6,0.2-0.9,0.8-0.9c0.1,0,0.2,0.1,0.2,0.4v6.1c0,3-1.8,3.6-3.5,3.6C238.1,104.4,237.3,104.1,236.9,103.9z M239.6,95.2
						c-1.6,0-2.4,1.1-2.4,2.6c0,1.4,0.8,2.5,2.4,2.5c1.6,0,2.4-1.3,2.4-2.5C242,96.4,241.3,95.2,239.6,95.2z"/>
					<path class="st2" d="M248.1,94.2c2.2,0,3.4,1.4,3.4,3.5c0,2.1-1.3,3.4-3.4,3.4c-2.3,0-3.5-1.3-3.5-3.4
						C244.6,95.6,245.8,94.2,248.1,94.2z M248.1,100.3c1.6,0,2.4-1,2.4-2.6c0-1.5-0.9-2.6-2.4-2.6c-1.6,0-2.4,1.1-2.4,2.6
						C245.7,99.2,246.6,100.3,248.1,100.3z"/>
					<path class="st2" d="M254.7,92.7v1.6h1.8c0.3,0,0.3,0.1,0.3,0.3v0.2c0,0.3-0.1,0.3-0.3,0.3h-1.8v3.8c0,1,0.5,1.3,0.9,1.3
						c0.4,0,0.7-0.1,1-0.2c0.1-0.1,0.2,0,0.2,0.2c0,0.1,0,0.3-0.1,0.4c-0.2,0.3-0.7,0.5-1.4,0.5c-1.1,0-1.8-0.7-1.8-2.1v-3.8h-0.8
						c-0.3,0-0.3,0-0.3-0.3v-0.2c0-0.3,0.1-0.3,0.3-0.3h0.8v-0.5c0-1,0.3-1.5,0.8-1.5C254.7,92.3,254.7,92.4,254.7,92.7z"/>
					<path class="st2" d="M260.3,97.3c0.6,0,1.4,0.1,2.1,0.1v-0.9c0-1.4-1.1-1.6-2-1.6c-0.7,0-1.3,0.1-1.8,0.2
						c-0.4,0.1-0.4,0.1-0.4-0.1c0-0.4,0.1-0.6,0.5-0.7c0.4-0.1,1.1-0.3,2-0.3c1,0,2.8,0.2,2.8,2.3v4.2c0,0.3,0,0.4-0.2,0.4
						c-0.5,0-0.8-0.2-0.9-0.7c-0.4,0.3-1.1,0.7-2.5,0.7c-1.5,0-2.3-0.6-2.3-2C257.6,97.8,258.4,97.3,260.3,97.3z M262.4,98.3
						c-0.6-0.1-1.4-0.1-1.9-0.1c-1.1,0-1.8,0.1-1.8,1s0.5,1.1,1.5,1.1c1.1,0,1.8-0.3,2.2-0.7V98.3z M260.9,90.9
						c0.1-0.2,0.2-0.3,0.5-0.3h0.5c0.2,0,0.3,0.1,0.1,0.3l-1.4,1.5c-0.1,0.1-0.2,0.1-0.4,0.1h-0.5c-0.1,0-0.1-0.1-0.1-0.1
						L260.9,90.9z"/>
				</g>
			</g>
		</g>
		<g>
			<g>
				<g>
					<path class="st2" d="M147.6,58h-6.3v25.5c0,0.9-0.2,1.1-1.1,1.1h-0.8c-0.9,0-1.1-0.2-1.1-1.1V58h-8.1c-0.9,0-1.1-0.1-1.1-1
						v-0.6c0-0.8,0.2-1,1.1-1h19.1c0.7,0,0.9,0.1,0.9,0.5C150.2,57,149.4,58,147.6,58z"/>
					<path class="st2" d="M152.7,75.8v7.6c0,1-0.1,1.1-1.1,1.1h-0.5c-0.9,0-1.1-0.1-1.1-1.1V66.5c0-0.8,0-1,0.5-1
						c1.6,0,2.3,0.7,2.3,2.3v1.3c1-3,2.9-4.1,5.3-4.1c2.4,0,3,0.9,3,2.2c0,0.6-0.1,0.8-0.6,0.7c-0.9-0.2-1.4-0.3-2.3-0.3
						C154.6,67.5,152.8,70.6,152.7,75.8z"/>
					<path class="st2" d="M165.3,76.3c0.3,4.4,2.8,5.8,6.7,5.8c3.4,0,5.1-0.8,7.3-1.6c0.5-0.2,0.9-0.1,0.9,0.5
						c0,0.9-0.5,1.9-1.6,2.4c-1.5,0.7-4,1.4-6.8,1.4c-5.8,0-9.5-2.6-9.5-9.4c0-6.6,3.3-10.2,9.2-10.2c6.1,0,8.9,3.8,8.9,9.4
						c0,0.9-0.2,1.6-1.6,1.6L165.3,76.3L165.3,76.3z M165.3,73.9h12.2c-0.1-3.8-2-6.3-6.1-6.3C167.5,67.6,165.6,70.1,165.3,73.9z"/>
					<path class="st2" d="M183.8,75.2c0-6.1,3-10,9.6-10c2.4,0,4,0.6,5.1,1.1c0.6,0.4,1.1,0.8,1.1,2.1c0,0.6-0.2,0.8-1,0.5
						c-0.9-0.5-2.4-1.1-4.8-1.1c-4.9,0-6.8,3.2-6.8,7.3c0,3.8,1.8,7.1,7.1,7.1c2.4,0,4-0.6,4.9-1c0.9-0.2,1-0.2,1,0.3
						c0,0.8-0.1,1.6-1.3,2.3c-1.1,0.5-3,1-5.3,1C186.5,84.8,183.8,80.8,183.8,75.2z"/>
					<path class="st2" d="M205.9,70.2c0,4.4,11.4,1.5,11.4,9c0,4.7-3.8,5.6-7.6,5.6c-2.7,0-4.4-0.4-5.7-0.9
						c-1.1-0.4-1.4-1.1-1.4-2.2c0-0.8,0.1-0.8,1.1-0.4c1.4,0.5,3.5,1.1,5.9,1.1c2.8,0,4.9-0.6,4.9-3.2c0-5.1-11.4-2.1-11.4-9
						c0-4.2,3.8-5.1,7.3-5.1c1.8,0,3.2,0.2,4.6,0.7c1.1,0.3,1.6,0.9,1.6,2c0,0.7-0.2,0.7-1.3,0.5c-1.3-0.3-2.7-0.7-4.9-0.7
						C207.8,67.5,205.9,68.3,205.9,70.2z"/>
					<path class="st2" d="M227.7,74.1c1.8,0,4,0.1,6,0.4v-2.4c0-4-3.2-4.4-5.6-4.4c-2,0-3.8,0.4-5.2,0.7c-1,0.3-1.1,0.1-1.1-0.4
						c0-1.1,0.5-1.8,1.4-2c1.1-0.4,3.3-0.8,5.4-0.8c2.8,0,8,0.6,8,6.5v12c0,0.8-0.1,1-0.5,1c-1.5,0-2.2-0.5-2.4-1.9
						c-1.1,0.8-3.2,2-7,2c-4.2,0-6.3-1.9-6.3-5.5C220.3,75.5,222.7,74.1,227.7,74.1z M233.6,76.8c-1.8-0.3-3.9-0.3-5.4-0.3
						c-3.2,0-5.1,0.4-5.1,2.8c0,2.4,1.6,3.2,4.2,3.2c3.4,0,5.1-1,6.3-1.9V76.8L233.6,76.8z"/>
				</g>
			</g>
		</g>
		<g>
			<g>
				<path id="XMLID_463_" class="st3" d="M46.4,97c-0.1,0-0.2,0-0.3-0.1c-6.7-5.4-10.5-13.5-10.4-22.4s4-16.9,10.8-22.2
					c0.2-0.1,0.5-0.1,0.7,0.1c0.1,0.2,0.1,0.5-0.1,0.7C40.5,58.2,36.7,66,36.7,74.5c-0.1,8.5,3.6,16.4,10.1,21.6
					c0.2,0.1,0.2,0.5,0.1,0.7C46.8,96.9,46.6,97,46.4,97z"/>
				<path id="XMLID_460_" class="st3" d="M70.9,102c-10.6,0-20.8-5.9-25.7-16c-0.9-1.8-1.6-3.8-2-5.7c-0.4-1.8-0.7-3.5-0.8-5.3
					c0-0.2,0.1-0.5,0.5-0.5c0.2,0,0.5,0.1,0.5,0.5c0.1,1.8,0.3,3.4,0.7,5.2c0.5,1.9,1.1,3.8,2,5.6c6.6,13.7,23.1,19.4,36.7,12.8
					c6.6-3.2,11.5-8.8,14-15.7c2.4-6.9,2-14.4-1.1-21C91.2,52.7,82.2,46.7,72,46.3c-0.2,0-0.5-0.2-0.5-0.5c0-0.3,0.2-0.5,0.5-0.5
					c10.5,0.5,19.9,6.6,24.5,16c3.3,6.8,3.8,14.6,1.3,21.8c-2.5,7.1-7.6,12.9-14.5,16.2C79.2,101.1,75.1,102,70.9,102z"/>
				<path id="XMLID_457_" class="st2" d="M72.9,95.3c-3.8,0-7.6-0.8-11.2-2.3c-7-3-12.4-8.5-15.2-15.6c-2.8-7.1-2.8-14.8,0.2-21.8
					s8.5-12.4,15.6-15.2S77,37.7,84,40.6c1.9,0.8,3.7,1.8,5.3,3c1.5,1,2.8,2.3,4.1,3.5c0.1,0.1,0.1,0.5,0,0.7
					c-0.1,0.1-0.5,0.1-0.7,0c-1.1-1.3-2.5-2.4-3.9-3.4c-1.6-1.1-3.3-2.1-5.2-2.9c-6.7-2.9-14.2-3-21.1-0.2c-6.8,2.8-12.2,8-15,14.7
					c-2.9,6.7-3,14.2-0.2,21.1c2.8,6.8,8,12.2,14.7,15c9.4,4,20,2.5,28-3.8c0.2-0.1,0.5-0.1,0.7,0.1c0.1,0.2,0.1,0.5-0.1,0.7
					C85.5,93.2,79.2,95.3,72.9,95.3z"/>
				<circle id="XMLID_454_" class="st2" cx="48.8" cy="63.7" r="12.8"/>
				<circle id="XMLID_453_" class="st2" cx="77.8" cy="57" r="12.8"/>
				<circle id="XMLID_450_" class="st3" cx="85" cy="92.1" r="9.8"/>
				<circle id="XMLID_447_" class="st3" cx="76.3" cy="39.3" r="9.8"/>
				<circle id="XMLID_444_" class="st3" cx="52.6" cy="104.3" r="9.8"/>
				<circle id="XMLID_443_" class="st4" cx="65.2" cy="83.6" r="3.3"/>
				<g>
					<path id="XMLID_440_" class="st5" d="M105.6,48.3c-0.2,0-0.5-0.1-0.5-0.4c-1.6-13.2-12.8-23.7-26.2-24.2
						c-0.2,0-0.5-0.2-0.5-0.5s0.2-0.5,0.5-0.5c13.8,0.6,25.5,11.4,27.1,25.1C106.1,48.1,106,48.3,105.6,48.3
						C105.6,48.3,105.6,48.3,105.6,48.3z"/>
					<circle id="XMLID_437_" class="st5" cx="99" cy="83.3" r="11.2"/>
					<circle id="XMLID_434_" class="st5" cx="104.1" cy="43.7" r="7.4"/>
					<circle id="XMLID_433_" class="st5" cx="51.1" cy="39.3" r="3.3"/>
				</g>
				<circle id="XMLID_424_" class="st2" cx="80.9" cy="115.9" r="2.4"/>
				<circle id="XMLID_423_" class="st6" cx="75.3" cy="100.5" r="7.4"/>
				<circle id="XMLID_420_" class="st6" cx="37.3" cy="87.1" r="7.4"/>
			</g>
			<path id="XMLID_417_" class="st2" d="M25,49.2c-1.1-0.5-1.8-1.9-1.3-3.2s1.9-1.8,3.2-1.3c1.3,0.5,1.8,1.9,1.3,3.2
				C27.6,49.1,26.2,49.8,25,49.2"/>
		</g>
	</g>
</g>
</svg>
