<?xml version="1.0" encoding="utf-8"?>
<!-- Generator: Adobe Illustrator 24.0.1, SVG Export Plug-In . SVG Version: 6.00 Build 0)  -->
<svg version="1.1" id="Layer_1" xmlns="http://www.w3.org/2000/svg" xmlns:xlink="http://www.w3.org/1999/xlink" x="0px" y="0px"
	 width="287px" height="140px" viewBox="0 0 287 140" style="enable-background:new 0 0 287 140;" xml:space="preserve">
<style type="text/css">
	.st0{fill:#FFFFFF;}
	.st1{fill:#231F20;}
	.st2{fill:#009F4C;}
	.st3{fill:#A2CA39;}
	.st4{clip-path:url(#SVGID_2_);fill:#A2CA39;}
	.st5{clip-path:url(#SVGID_4_);fill:#009F4C;}
	.st6{fill:#2275B8;}
	.st7{fill:#2BA8DF;}
	.st8{fill:#1D75B8;}
	.st9{opacity:0.4;fill:#FFFFFF;enable-background:new    ;}
</style>
<g>
	<rect x="7.5" y="8" class="st0" width="272" height="124"/>
	<g>
		<path class="st1" d="M155.4,44.4h5.6c0.9,0,0.9,0.1,0.9,1v8c0,0.7-0.1,0.9-0.6,1.1c-2.2,0.9-4.3,1.3-6.9,1.3c-7.7,0-11-4.5-11-11
			c0-6.7,3.2-11.2,11.1-11.2c3.3,0,5.3,0.8,6.5,1.6c0.7,0.5,0.9,1.3,0.9,1.6c0,0.4-0.1,0.6-0.4,0.4c-1.5-0.9-3.5-1.8-6.7-1.8
			c-6.6,0-8.9,3.7-8.9,9.3c0,5.3,2.1,9.1,8.6,9.1c1.4,0,3.3-0.1,5.4-1.1v-6.5h-3.5c-1,0-1.6-0.6-1.6-1.4
			C154.5,44.4,154.8,44.4,155.4,44.4"/>
		<path class="st1" d="M167.8,48.9v5.6c0,0.7-0.1,0.9-0.9,0.9h-0.4c-0.7,0-0.9-0.1-0.9-0.9V42.1c0-0.6,0-0.8,0.4-0.8
			c1.2,0,1.7,0.5,1.7,1.7v1c0.8-2.2,2.1-3,3.9-3c1.8,0,2.2,0.6,2.2,1.6c0,0.4-0.1,0.6-0.4,0.5c-0.6-0.1-1.1-0.3-1.7-0.3
			C169.1,43,167.8,45.2,167.8,48.9"/>
		<path class="st1" d="M185.7,53.8v-0.4c-0.9,1.2-2.4,2.1-4.7,2.1c-3.5,0-4.9-2-4.9-5.3v-8.1c0-0.6,0-0.8,0.4-0.8
			c1.2,0,1.7,0.5,1.7,1.7v7.2c0,2,0.9,3.4,3.3,3.4c2.7,0,3.9-1.6,4.2-3.6v-7.8c0-0.6,0-0.8,0.4-0.8c1.2,0,1.8,0.5,1.8,1.7v11.7
			c0,0.6,0,0.8-0.4,0.8C186.3,55.5,185.7,55,185.7,53.8"/>
		<path class="st1" d="M194.2,53.2v8.3c0,0.7-0.1,0.9-0.9,0.9H193c-0.7,0-0.9-0.1-0.9-0.9V42.1c0-0.6,0-0.8,0.4-0.8
			c1.2,0,1.7,0.5,1.7,1.7v0.7c1-1.6,2.7-2.6,5.2-2.6c4.3,0,6.7,3,6.7,7.3s-2.3,7.2-6.7,7.2C196.9,55.7,195.2,54.7,194.2,53.2
			 M199,53.7c3.3,0,4.9-2.2,4.9-5.2c0-3-1.6-5.3-4.8-5.3c-3.5,0-4.9,2.7-4.9,5.3C194.1,51.1,195.4,53.7,199,53.7"/>
		<path class="st1" d="M215.9,41.1c4.6,0,7.2,2.8,7.2,7.3c0,4.4-2.7,7.2-7.2,7.2c-4.7,0-7.3-2.8-7.3-7.2S211.2,41.1,215.9,41.1
			 M215.9,53.7c3.3,0,5-2.1,5-5.3c0-3.1-1.8-5.4-5-5.4s-5.1,2.2-5.1,5.4C210.8,51.6,212.6,53.7,215.9,53.7"/>
		<path class="st2" d="M144.5,81.9V62.3c0-0.9,0.1-1.1,1-1.1h10.4c0.5,0,0.6,0,0.6,0.4c0,0.8-0.6,1.5-2.1,1.5h-7.8v7.5h7.5
			c0.5,0,0.6,0,0.6,0.4c0,0.8-0.6,1.5-2.1,1.5h-6v8.3h8.9c0.6,0,0.8,0.1,0.8,0.7v0.4c0,0.6-0.1,0.7-0.8,0.7h-10.2
			C144.7,82.7,144.5,82.6,144.5,81.9"/>
		<path class="st2" d="M170.2,82.7h-0.4c-0.7,0-0.9-0.1-0.9-0.9V74c0-2.2-0.9-3.7-3.5-3.7s-3.8,1.6-4,3.8v7.7c0,0.7-0.1,0.9-0.9,0.9
			h-0.4c-0.7,0-0.9-0.1-0.9-0.9V69.4c0-0.6,0-0.8,0.4-0.8c1.2,0,1.7,0.5,1.7,1.7v0.2c0.9-1.2,2.3-2.1,4.5-2.1c3.5,0,5,2.1,5,5.5v8
			C171.1,82.6,170.9,82.7,170.2,82.7"/>
		<path class="st2" d="M176.7,76.7c0.3,3.3,2.1,4.3,5,4.3c2.5,0,3.8-0.6,5.3-1.2c0.4-0.2,0.6-0.1,0.6,0.4c0,0.7-0.4,1.3-1.2,1.8
			c-1.1,0.5-2.9,1.1-5.1,1.1c-4.3,0-7-1.9-7-6.9c0-4.9,2.4-7.5,6.7-7.5c4.5,0,6.6,2.8,6.6,7c0,0.6-0.2,1.2-1.2,1.2L176.7,76.7
			L176.7,76.7z M176.7,75h9c-0.1-2.8-1.4-4.7-4.5-4.7C178.4,70.3,177,72.1,176.7,75"/>
		<path class="st2" d="M193.3,76.3v5.6c0,0.7-0.1,0.9-0.9,0.9H192c-0.7,0-0.9-0.1-0.9-0.9V69.4c0-0.6,0-0.8,0.4-0.8
			c1.2,0,1.7,0.5,1.7,1.7v1c0.8-2.2,2.1-3,3.9-3s2.2,0.6,2.2,1.6c0,0.4-0.1,0.6-0.4,0.5c-0.6-0.1-1.1-0.3-1.7-0.3
			C194.7,70.3,193.4,72.5,193.3,76.3"/>
		<path class="st2" d="M201.8,88.7c-0.8-0.4-1.2-0.9-1.2-1.6c0-0.5,0.3-0.6,0.7-0.4c1.1,0.5,2.8,1.2,5.3,1.2s5.4-0.9,5.4-6v-1.4
			c-1,1.5-2.7,2.6-5.3,2.6c-4.3,0-6.7-2.8-6.7-7.2c0-4.3,2.5-7.3,6.7-7.3c2.6,0,4.3,1.1,5.3,2.6v-0.5c0-1.3,0.4-1.8,1.7-1.8
			c0.4,0,0.4,0.2,0.4,0.9v12.6c0,6.2-3.5,7.5-7.4,7.5C204.2,89.7,202.7,89.1,201.8,88.7 M207.4,70.4c-3.3,0-4.8,2.3-4.8,5.3
			s1.6,5.3,4.9,5.3c3.5,0,4.9-2.6,4.9-5.2C212.3,73.1,210.8,70.4,207.4,70.4"/>
		<path class="st2" d="M220.4,61.6c0.4-0.5,0.5-0.6,1.1-0.6h1.1c0.4,0,0.6,0.3,0.2,0.6l-2.9,3.1c-0.3,0.3-0.4,0.4-0.9,0.4h-1
			c-0.3,0-0.4-0.1-0.1-0.4L220.4,61.6z M220.7,70.4v11.5c0,0.7-0.1,0.9-0.9,0.9h-0.4c-0.7,0-0.9-0.1-0.9-0.9V69.4
			c0-0.6,0-0.8,0.4-0.8C220.3,68.7,220.7,69.2,220.7,70.4"/>
		<path class="st2" d="M229.3,75.1c1.3,0,2.9,0.1,4.4,0.3v-1.8c0-3-2.3-3.3-4.1-3.3c-1.4,0-2.8,0.3-3.8,0.5
			c-0.8,0.2-0.9,0.1-0.9-0.3c0-0.9,0.4-1.3,1.1-1.5c0.8-0.3,2.5-0.6,4-0.6c2.1,0,5.9,0.4,5.9,4.8v8.9c0,0.6,0,0.8-0.4,0.8
			c-1.1,0-1.6-0.4-1.8-1.3c-0.9,0.6-2.3,1.4-5.2,1.4c-3.1,0-4.7-1.3-4.7-4C223.8,76,225.7,75.1,229.3,75.1 M233.7,77
			c-1.3-0.2-2.8-0.3-4-0.3c-2.3,0-3.7,0.3-3.7,2.1s1.2,2.3,3.1,2.3c2.6,0,3.8-0.7,4.6-1.3V77z"/>
		<path class="st2" d="M145.4,110.1c-0.7,0-0.9-0.1-0.9-0.8V89.6c0-0.9,0.1-1,1-1h6c4.3,0,6,2.4,6,5.3c0,2.8-1.2,4.3-3.1,4.9
			c3.1,0.5,4.7,2.2,4.7,5.4c0,3.5-2.1,6-6.8,6L145.4,110.1L145.4,110.1z M146.7,90.4V98h4.6c2.6,0,3.8-1.3,3.8-3.8
			c0-2.1-1.1-3.7-4.2-3.7L146.7,90.4L146.7,90.4z M146.7,99.7v8.4h5c3.5,0,5-1.7,5-4.3c0-2.8-1.8-4.2-5-4.2L146.7,99.7L146.7,99.7z"
			/>
		<path class="st2" d="M168.8,95.8c4.6,0,7.2,2.8,7.2,7.3c0,4.4-2.7,7.2-7.2,7.2c-4.7,0-7.3-2.8-7.3-7.2
			C161.5,98.7,164.1,95.8,168.8,95.8 M168.8,108.4c3.3,0,5-2.1,5-5.3c0-3.1-1.8-5.4-5-5.4s-5.1,2.2-5.1,5.4
			C163.7,106.2,165.6,108.4,168.8,108.4"/>
		<path class="st2" d="M180.2,115.9c-0.8-0.4-1.2-0.9-1.2-1.6c0-0.5,0.3-0.6,0.7-0.4c1.1,0.5,2.8,1.2,5.3,1.2s5.4-0.9,5.4-6v-1.4
			c-1,1.5-2.7,2.6-5.3,2.6c-4.3,0-6.7-2.8-6.7-7.2s2.5-7.3,6.7-7.3c2.6,0,4.3,1.1,5.3,2.6v-0.6c0-1.3,0.4-1.8,1.7-1.8
			c0.4,0,0.4,0.2,0.4,0.9v12.6c0,6.2-3.5,7.5-7.4,7.5C182.5,117,181,116.4,180.2,115.9 M185.7,97.7c-3.3,0-4.8,2.3-4.8,5.3
			c0,3,1.6,5.3,4.9,5.3c3.5,0,4.9-2.6,4.9-5.2C190.6,100.4,189.2,97.7,185.7,97.7"/>
		<path class="st2" d="M203.4,95.8c4.6,0,7.2,2.8,7.2,7.3c0,4.4-2.7,7.2-7.2,7.2c-4.7,0-7.3-2.8-7.3-7.2
			C196.1,98.7,198.6,95.8,203.4,95.8 M203.4,108.4c3.3,0,5-2.1,5-5.3c0-3.1-1.8-5.4-5-5.4s-5.1,2.2-5.1,5.4
			C198.4,106.2,200.1,108.4,203.4,108.4"/>
		<path class="st2" d="M216.9,92.6v3.3h3.6c0.6,0,0.6,0.1,0.6,0.7v0.4c0,0.6-0.1,0.7-0.6,0.7h-3.6v7.9c0,2.1,1.1,2.6,2,2.6
			s1.4-0.2,2.1-0.5c0.4-0.1,0.4-0.1,0.4,0.4c0,0.4-0.1,0.6-0.2,0.9c-0.4,0.7-1.3,1.1-2.9,1.1c-2.4,0-3.5-1.4-3.5-4.5v-8H213
			c-0.6,0-0.6-0.1-0.6-0.7v-0.4c0-0.6,0.1-0.7,0.6-0.7h1.7v-1c0-2.2,0.7-3.1,1.7-3.1C216.9,91.9,216.9,92,216.9,92.6"/>
		<path class="st2" d="M228.5,102.4c1.3,0,2.9,0.1,4.4,0.3v-1.8c0-3-2.3-3.3-4.1-3.3c-1.4,0-2.8,0.3-3.8,0.5
			c-0.8,0.2-0.9,0.1-0.9-0.3c0-0.9,0.4-1.3,1.1-1.5c0.8-0.3,2.5-0.6,4-0.6c2.1,0,5.9,0.4,5.9,4.8v8.9c0,0.6,0,0.8-0.4,0.8
			c-1.1,0-1.6-0.4-1.8-1.3c-0.9,0.6-2.3,1.4-5.2,1.4c-3.1,0-4.7-1.3-4.7-4C223.1,103.4,224.8,102.4,228.5,102.4 M232.9,104.4
			c-1.3-0.2-2.8-0.3-4-0.3c-2.3,0-3.7,0.3-3.7,2.1s1.2,2.3,3.1,2.3c2.6,0,3.8-0.7,4.6-1.3V104.4z M230,89c0.4-0.5,0.5-0.6,1.1-0.6
			h1.1c0.4,0,0.6,0.3,0.2,0.6l-2.9,3.1c-0.3,0.3-0.4,0.4-0.9,0.4h-0.9c-0.3,0-0.4-0.1-0.1-0.4L230,89z"/>
		<path class="st3" d="M68.6,96.3c-0.1,0-0.2-0.1-0.3-0.1C62,91.1,58.4,83.3,58.4,75c0.1-8.3,3.8-16,10.2-21
			c0.2-0.1,0.4-0.1,0.6,0.1c0.1,0.2,0.1,0.4-0.1,0.6C63,59.6,59.3,67,59.3,75c-0.1,8.1,3.5,15.5,9.6,20.4c0.2,0.1,0.3,0.4,0.1,0.6
			C68.9,96.3,68.8,96.3,68.6,96.3"/>
		<g>
			<g>
				<g>
					<g>
						<defs>
							<rect id="SVGID_1_" x="64.7" y="47.4" width="53.8" height="53.8"/>
						</defs>
						<clipPath id="SVGID_2_">
							<use xlink:href="#SVGID_1_"  style="overflow:visible;"/>
						</clipPath>
						<path class="st4" d="M91.7,101.1c-10,0-19.6-5.6-24.2-15.2c-0.9-1.8-1.5-3.5-2-5.5c-0.4-1.7-0.6-3.4-0.7-5.1
							c0-0.3,0.2-0.4,0.4-0.4c0.3,0,0.4,0.2,0.4,0.4c0.1,1.6,0.4,3.3,0.7,4.9c0.4,1.8,1.1,3.5,1.9,5.3c6.2,12.9,21.9,18.3,34.7,12.1
							c6.2-3,10.9-8.3,13.2-14.8c2.3-6.6,1.9-13.6-1.2-19.9c-4.2-8.7-12.7-14.3-22.4-14.7c-0.3,0-0.4-0.2-0.4-0.4
							c0-0.3,0.3-0.4,0.4-0.4c9.9,0.4,18.7,6.2,23.1,15.2c3.1,6.5,3.5,13.8,1.2,20.6c-2.3,6.7-7.2,12.3-13.7,15.4
							C99.6,100.2,95.6,101.1,91.7,101.1"/>
					</g>
				</g>
			</g>
		</g>
		<g>
			<g>
				<g>
					<g>
						<defs>
							<rect id="SVGID_3_" x="66.6" y="41" width="46.5" height="53.8"/>
						</defs>
						<clipPath id="SVGID_4_">
							<use xlink:href="#SVGID_3_"  style="overflow:visible;"/>
						</clipPath>
						<path class="st5" d="M93.6,94.8c-3.5,0-7.2-0.7-10.6-2.1c-6.6-2.8-11.7-8.1-14.4-14.7s-2.6-14,0.2-20.6
							c2.8-6.6,8.1-11.7,14.7-14.4c6.7-2.7,14-2.6,20.6,0.2c1.8,0.8,3.5,1.7,5,2.8c1.3,1,2.7,2.1,3.9,3.4c0.2,0.2,0.2,0.4,0,0.6
							c-0.2,0.2-0.4,0.2-0.6,0c-1.1-1.2-2.4-2.3-3.7-3.3c-1.5-1.1-3.1-2-4.9-2.8c-6.4-2.8-13.4-2.8-19.9-0.2
							c-6.5,2.6-11.5,7.5-14.2,13.9s-2.8,13.4-0.2,19.9S77,89,83.4,91.7c8.8,3.8,19,2.4,26.5-3.5c0.2-0.1,0.4-0.1,0.6,0.1
							c0.1,0.2,0.1,0.4-0.1,0.6C105.5,92.7,99.5,94.8,93.6,94.8"/>
					</g>
				</g>
			</g>
		</g>
		<path class="st2" d="M58.7,64.8c0-6.7,5.4-12.1,12.1-12.1S83,58.1,83,64.8S77.6,77,70.8,77C64.2,77,58.7,71.6,58.7,64.8"/>
		<path class="st2" d="M86.1,58.6c0-6.7,5.4-12.1,12.1-12.1s12.1,5.4,12.1,12.1S105,70.7,98.2,70.7C91.6,70.7,86.1,65.2,86.1,58.6"
			/>
		<path class="st3" d="M95.8,92.8c-0.5-5.1,3.1-9.6,8.2-10.2c5.1-0.5,9.6,3.1,10.2,8.2c0.5,5.1-3.1,9.6-8.2,10.2
			C100.9,101.5,96.3,97.8,95.8,92.8"/>
		<path class="st3" d="M87.6,41.8c0-5.1,4.1-9.2,9.2-9.2s9.2,4.1,9.2,9.2s-4.1,9.2-9.2,9.2C91.7,51.1,87.6,46.9,87.6,41.8"/>
		<path class="st3" d="M65.2,103.3c0-5.1,4.1-9.2,9.2-9.2s9.2,4.1,9.2,9.2c0,5.1-4.1,9.2-9.2,9.2C69.4,112.5,65.2,108.4,65.2,103.3"
			/>
		<path class="st6" d="M83.1,83.8c0-1.8,1.4-3.1,3.1-3.1c1.8,0,3.1,1.4,3.1,3.1c0,1.8-1.4,3.1-3.1,3.1C84.5,87,83.1,85.5,83.1,83.8"
			/>
		<path class="st7" d="M124.5,50.4c-0.3,0-0.4-0.2-0.4-0.4c-1.5-12.5-12.1-22.4-24.8-22.9c-0.3,0-0.4-0.2-0.4-0.4
			c0-0.2,0.2-0.4,0.4-0.4c13.1,0.6,24.1,10.7,25.6,23.7C125,50.1,124.8,50.3,124.5,50.4L124.5,50.4"/>
		<path class="st7" d="M107.7,83.3c0-5.8,4.7-10.6,10.6-10.6c5.8,0,10.6,4.7,10.6,10.6c0,5.8-4.7,10.6-10.6,10.6
			C112.4,93.9,107.7,89.2,107.7,83.3"/>
		<path class="st7" d="M116,46c0-3.8,3.1-7,7-7c3.8,0,7,3.1,7,7c0,3.8-3.1,7-7,7C119.2,53,116,49.9,116,46"/>
		<path class="st7" d="M69.8,41.8c0-1.8,1.4-3.1,3.1-3.1s3.1,1.4,3.1,3.1c0,1.8-1.4,3.1-3.1,3.1S69.8,43.6,69.8,41.8"/>
		<path class="st2" d="M100.2,116.4c-1.1-0.4-1.7-1.8-1.2-2.9c0.4-1.1,1.8-1.7,2.9-1.2c1.1,0.4,1.7,1.8,1.2,2.9
			C102.7,116.3,101.4,116.8,100.2,116.4"/>
		<path class="st8" d="M88.8,99.7c0-3.8,3.1-7,7-7c3.8,0,7,3.1,7,7c0,3.8-3.1,7-7,7C92,106.7,88.8,103.6,88.8,99.7"/>
		<path class="st8" d="M53,87c0-3.8,3.1-7,7-7s7,3.1,7,7c0,3.8-3.1,7-7,7C56.1,94,53,90.9,53,87"/>
		<path class="st2" d="M48.3,51.3c-1.2-0.4-1.7-1.8-1.2-2.9c0.4-1.2,1.8-1.7,2.9-1.2c1.2,0.4,1.7,1.8,1.2,2.9
			C50.8,51.2,49.5,51.7,48.3,51.3"/>
	</g>
</g>
<rect x="7.5" y="8" class="st9" width="272" height="124"/>
</svg>
