<?xml version="1.0" encoding="UTF-8" standalone="no"?>
<!DOCTYPE svg PUBLIC "-//W3C//DTD SVG 1.1//EN" "http://www.w3.org/Graphics/SVG/1.1/DTD/svg11.dtd">
<svg width="100%" height="100%" viewBox="0 0 170 190" version="1.1" xmlns="http://www.w3.org/2000/svg" xmlns:xlink="http://www.w3.org/1999/xlink" xml:space="preserve" xmlns:serif="http://www.serif.com/" style="fill-rule:evenodd;clip-rule:evenodd;stroke-linecap:round;stroke-miterlimit:10;">
    <g>
        <path d="M11,36L85,7L160,36" style="fill:none;fill-rule:nonzero;stroke:black;stroke-width:1px;"/>
        <rect x="10" y="35" width="150" height="150" style="fill:rgb(172,186,64);stroke:white;stroke-width:6px;stroke-linecap:butt;"/>
        <circle cx="86" cy="8" r="3" style="fill:rgb(35,31,32);"/>
        <rect x="10" y="35" width="150" height="150" style="fill:white;fill-opacity:0.5;"/>
        <g>
            <path d="M144.3,184L119.2,184L15,38L40.1,38L144.3,184Z" style="fill:white;fill-opacity:0.3;fill-rule:nonzero;"/>
            <path d="M158,176.3L158,184L155.4,184L51.2,38L59.3,38L158,176.3Z" style="fill:white;fill-opacity:0.3;fill-rule:nonzero;"/>
            <path d="M158,163.1L158,168.8L64.7,38L68.7,38L158,163.1Z" style="fill:white;fill-opacity:0.3;fill-rule:nonzero;"/>
        </g>
        <g>
            <rect x="38.3" y="66.2" width="24" height="3.7" style="fill:white;"/>
            <rect x="38.3" y="73.6" width="24" height="3.7" style="fill:white;"/>
            <rect x="38.3" y="81" width="16.6" height="3.7" style="fill:white;"/>
            <rect x="38.3" y="88.4" width="16.6" height="3.7" style="fill:white;"/>
            <rect x="29" y="162.4" width="111" height="3.7" style="fill:white;"/>
            <path d="M136.1,70.9L128.7,56.1C128.2,55.2 127.1,54.8 126.2,55.3L111.4,62.7C110.5,63.2 110.1,64.3 110.6,65.2C111.1,66.1 112.2,66.5 113.1,66L123.8,60.6L120.9,69C108,105.6 74.9,131.3 36.3,134.6L36.6,138.3C76.7,134.8 111.1,108.2 124.4,70.2L127.4,61.7L132.8,72.6C133.3,73.5 134.4,73.9 135.3,73.4C136.2,73 136.6,71.8 136.1,70.9Z" style="fill:white;fill-rule:nonzero;"/>
            <path d="M51.2,143.9L38.3,143.9C37.3,143.9 36.5,144.7 36.5,145.7L36.5,156.8C36.5,157.8 37.3,158.6 38.3,158.6L51.2,158.6C52.2,158.6 53,157.8 53,156.8L53,145.7C53.1,144.7 52.2,143.9 51.2,143.9ZM49.4,155L40.2,155L40.2,147.6L49.4,147.6L49.4,155Z" style="fill:white;fill-rule:nonzero;"/>
            <path d="M71.6,138.3L58.6,138.3C57.6,138.3 56.8,139.1 56.8,140.1L56.8,156.7C56.8,157.7 57.6,158.5 58.6,158.5L71.5,158.5C72.5,158.5 73.3,157.7 73.3,156.7L73.3,140.1C73.4,139.2 72.6,138.3 71.6,138.3ZM69.7,155L60.5,155L60.5,142L69.7,142L69.7,155Z" style="fill:white;fill-rule:nonzero;"/>
            <path d="M91.9,129.1L79,129.1C78,129.1 77.2,129.9 77.2,130.9L77.2,156.8C77.2,157.8 78,158.6 79,158.6L91.9,158.6C92.9,158.6 93.7,157.8 93.7,156.8L93.7,130.9C93.8,129.9 92.9,129.1 91.9,129.1ZM90.1,155L80.9,155L80.9,132.8L90.1,132.8L90.1,155Z" style="fill:white;fill-rule:nonzero;"/>
            <path d="M112.3,116.1L99.3,116.1C98.3,116.1 97.5,116.9 97.5,117.9L97.5,156.7C97.5,157.7 98.3,158.5 99.3,158.5L112.2,158.5C113.2,158.5 114,157.7 114,156.7L114,118C114.1,117 113.3,116.1 112.3,116.1ZM110.4,155L101.2,155L101.2,119.9L110.4,119.9L110.4,155Z" style="fill:white;fill-rule:nonzero;"/>
            <path d="M132.6,90.3L119.7,90.3C118.7,90.3 117.9,91.1 117.9,92.1L117.9,156.8C117.9,157.8 118.7,158.6 119.7,158.6L132.6,158.6C133.6,158.6 134.4,157.8 134.4,156.8L134.4,92.1C134.5,91.1 133.6,90.3 132.6,90.3ZM130.8,155L121.6,155L121.6,94L130.8,94L130.8,155Z" style="fill:white;fill-rule:nonzero;"/>
        </g>
    </g>
</svg>
