<?xml version="1.0" encoding="utf-8"?>
<!-- Generator: Adobe Illustrator 24.0.1, SVG Export Plug-In . SVG Version: 6.00 Build 0)  -->
<svg version="1.1" id="Layer_1" xmlns="http://www.w3.org/2000/svg" xmlns:xlink="http://www.w3.org/1999/xlink" x="0px" y="0px"
	 width="287px" height="140px" viewBox="0 0 287 140" style="enable-background:new 0 0 287 140;" xml:space="preserve">
<style type="text/css">
	.st0{fill:#FFFFFF;}
	.st1{fill:#7B8082;}
	.st2{fill-rule:evenodd;clip-rule:evenodd;fill:url(#SVGID_1_);}
	.st3{fill-rule:evenodd;clip-rule:evenodd;fill:url(#SVGID_2_);}
	.st4{fill-rule:evenodd;clip-rule:evenodd;fill:url(#SVGID_3_);}
	.st5{fill-rule:evenodd;clip-rule:evenodd;fill:url(#SVGID_4_);}
	.st6{fill-rule:evenodd;clip-rule:evenodd;fill:url(#SVGID_5_);}
	.st7{fill-rule:evenodd;clip-rule:evenodd;fill:url(#SVGID_6_);}
	.st8{fill-rule:evenodd;clip-rule:evenodd;fill:url(#SVGID_7_);}
	.st9{fill-rule:evenodd;clip-rule:evenodd;fill:url(#SVGID_8_);}
	.st10{fill:#343F8F;}
	.st11{fill:#231F20;}
	.st12{fill:#03A04B;}
	.st13{opacity:0.4;fill:#FFFFFF;}
</style>
<g>
	<rect x="7.5" y="8.5" class="st0" width="272" height="124"/>
	<g>
		<g>
			<g>
				<path class="st1" d="M132.9,56.1c-1.7-1.6-4.8-2.6-8.3-2.6c-6,0-11,5.3-11.4,12.4c-0.4,7.3,4.7,12.3,10.2,12.3
					c3.3,0,5.5-0.6,9.1-2.7l1.2,4.2c-3,1.7-6.3,2.8-11.1,2.8c-11.2,0-15.6-9.3-15.2-16.2c0.6-9.9,7.8-17.1,17.4-17.1
					c3.1,0,6.1,0.8,8.3,2.4L132.9,56.1z"/>
				<rect x="178.8" y="57.5" class="st1" width="4.4" height="24.7"/>
				<path class="st1" d="M205.4,76.9c0,0-1,1-4.5,1c-4.9,0-7-3.5-7-8.3c0-5.3,2.9-8.7,7.3-8.7c2.5,0,2.7,0.5,4.2,1.1V76.9
					L205.4,76.9z M209.9,79.1V43.8h-4.5v13.6c-1.8-0.8-3.2-1.1-4.8-1.1c-6.7,0-11.3,5.3-11.3,12.5c0,8.2,4.3,13.2,11.1,13.2h1.4
					C204.6,82.1,207.6,80.8,209.9,79.1L209.9,79.1z"/>
				<path class="st1" d="M232.7,76.9c0,0-1,1-4.5,1c-4.9,0-7-3.5-7-8.3c0-5.3,2.9-8.7,7.3-8.7c2.5,0,2.7,0.5,4.2,1.1V76.9
					L232.7,76.9z M237.2,79.1V43.8h-4.5v13.6c-1.8-0.8-3.2-1.1-4.8-1.1c-6.6,0-11.3,5.3-11.3,12.5c0,8.2,4.3,13.2,11.1,13.2h1.4
					C232.1,82.1,235,80.8,237.2,79.1L237.2,79.1z"/>
				<path class="st1" d="M172.2,77.7c-0.3,0.2-0.9,0.3-1.3,0.3c-1.4,0-2.6-1.1-2.6-2.4v-32H164v33.9c0,2.5,2.3,4.6,4.9,4.6
					c1.6,0,3.1-0.8,4-1.9L172.2,77.7z"/>
				<path class="st1" d="M184.5,50.4c0,1.9-1.5,3.5-3.5,3.5s-3.5-1.6-3.5-3.5s1.5-3.5,3.5-3.5S184.5,48.4,184.5,50.4z"/>
				<path class="st1" d="M153.2,77.7c-1.1,0.4-2.3,0.8-3.8,0.8c-3.8,0-6.8-1.9-6.8-4.4c0-2.4,3-4.4,6.8-4.4c1.4,0,2.7,0.2,3.8,0.6
					V77.7L153.2,77.7z M148.8,55.5c-5.9,0-9.1,4.3-9.1,4.3l1.6,2.6c0,0,2.3-2,7.5-2s4.4,6.4,4.4,6.4c-1.2-0.2-2.4-1-3.7-1
					c-8.7,0-11.3,5-11.3,8.4c0,4.4,2.4,7.8,11.3,7.8c3.4,0,6.7-1.2,8.7-2.8v-16C158.3,59.5,154.7,55.5,148.8,55.5z"/>
				<path class="st1" d="M258.5,77.7c-1.1,0.4-2.4,0.8-3.8,0.8c-3.8,0-6.8-1.9-6.8-4.4c0-2.4,3-4.4,6.8-4.4c1.4,0,2.7,0.2,3.8,0.6
					V77.7L258.5,77.7z M254,55.5c-5.9,0-9.1,4.3-9.1,4.3l1.6,2.6c0,0,2.3-2,7.5-2c5.2,0,4.4,6.4,4.4,6.4c-1.1-0.2-2.4-1-3.7-1
					c-8.7,0-11.3,5-11.3,8.4c0,4.4,2.4,7.8,11.3,7.8c3.4,0,6.7-1.2,8.7-2.8v-16C263.7,59.5,259.9,55.5,254,55.5z"/>
				
					<linearGradient id="SVGID_1_" gradientUnits="userSpaceOnUse" x1="55.1202" y1="-437.2988" x2="53.3102" y2="-402.764" gradientTransform="matrix(1 0 0 -1 0 -372)">
					<stop  offset="0" style="stop-color:#EBEDF0"/>
					<stop  offset="1" style="stop-color:#007FBF"/>
				</linearGradient>
				<path class="st2" d="M53.1,31.4c0,0-8.4,13.2-7.9,19.8l0,0c0.6,11.1,8.3,13.6,8.3,13.6l3.5-0.2c0,0,7.2-3.6,6.5-14.6l0,0
					C63,43.4,53.1,31.4,53.1,31.4L53.1,31.4L53.1,31.4z"/>
				
					<linearGradient id="SVGID_2_" gradientUnits="userSpaceOnUse" x1="65.6112" y1="-446.1368" x2="103.1854" y2="-435.3625" gradientTransform="matrix(1 0 0 -1 0 -372)">
					<stop  offset="0" style="stop-color:#EBEDF0"/>
					<stop  offset="1" style="stop-color:#007FBF"/>
				</linearGradient>
				<path class="st3" d="M79.1,60.3c-10.5,3.2-11.2,11.6-11.2,11.6l1.1,3.5c0,0,5.3,6.4,15.8,3.2l0,0c6.3-1.9,15.6-14.8,15.6-14.8
					l0,0l0,0c0,0-10.6-3.8-17.7-3.8l0,0C81.3,59.9,80.1,60.1,79.1,60.3L79.1,60.3z"/>
				
					<linearGradient id="SVGID_3_" gradientUnits="userSpaceOnUse" x1="60.6763" y1="-442.7881" x2="89.7351" y2="-401.2878" gradientTransform="matrix(1 0 0 -1 0 -372)">
					<stop  offset="0" style="stop-color:#EBEDF0"/>
					<stop  offset="1" style="stop-color:#007FBF"/>
				</linearGradient>
				<path class="st4" d="M63.8,46.4C56.3,58,62,66.3,62,66.3l0,0l3.7,2.4c0,0,9.9,1.7,17.3-9.9l0,0c4.4-7,3.4-26.4,3.4-26.4l0,0l0,0
					C86.4,32.3,68.2,39.5,63.8,46.4L63.8,46.4z"/>
				
					<linearGradient id="SVGID_4_" gradientUnits="userSpaceOnUse" x1="48.5849" y1="-442.1423" x2="22.3717" y2="-423.0973" gradientTransform="matrix(1 0 0 -1 0 -372)">
					<stop  offset="0" style="stop-color:#EBEDF0"/>
					<stop  offset="1" style="stop-color:#007FBF"/>
				</linearGradient>
				<path class="st5" d="M24.8,52.8L24.8,52.8c0,0.1,4.1,11.5,8.3,14.6l0,0c7.1,5.2,12.3,2,12.3,2l0,0l1.5-2.1c0,0,1.3-6-5.8-11.1
					l0,0C37,53,24.8,52.8,24.8,52.8L24.8,52.8L24.8,52.8z"/>
				
					<linearGradient id="SVGID_5_" gradientUnits="userSpaceOnUse" x1="67.2798" y1="-455.8312" x2="93.3132" y2="-469.6735" gradientTransform="matrix(1 0 0 -1 0 -372)">
					<stop  offset="0" style="stop-color:#EBEDF0"/>
					<stop  offset="1" style="stop-color:#007FBF"/>
				</linearGradient>
				<path class="st6" d="M69.4,83.2l-1.3,2.3c0,0-0.6,6.1,7,10.3l0,0c4.5,2.6,16.7,1.5,16.7,1.5l0,0l0,0c0,0-5.3-11-9.9-13.5l0,0
					c-2.8-1.6-5.3-2.1-7.3-2.1l0,0C71.4,81.7,69.4,83.2,69.4,83.2L69.4,83.2z"/>
				
					<linearGradient id="SVGID_6_" gradientUnits="userSpaceOnUse" x1="41.811" y1="-450.001" x2="23.2792" y2="-452.6056" gradientTransform="matrix(1 0 0 -1 0 -372)">
					<stop  offset="0" style="stop-color:#EBEDF0"/>
					<stop  offset="1" style="stop-color:#007FBF"/>
				</linearGradient>
				<path class="st7" d="M23.5,80.4L23.5,80.4c0,0,7.4,3.9,11,3.4l0,0c5.9-0.6,7.2-4.7,7.2-4.7l0,0l-0.2-1.8c0,0-1.8-3-6.5-3l0,0
					c-0.5,0-1.1,0-1.5,0.1l0,0C29.8,74.9,23.5,80.4,23.5,80.4z"/>
				
					<linearGradient id="SVGID_7_" gradientUnits="userSpaceOnUse" x1="60.1245" y1="-463.5677" x2="66.1128" y2="-483.1545" gradientTransform="matrix(1 0 0 -1 0 -372)">
					<stop  offset="0" style="stop-color:#EBEDF0"/>
					<stop  offset="1" style="stop-color:#007FBF"/>
				</linearGradient>
				<path class="st8" d="M65.9,109.6L65.9,109.6c0,0,2.3-7.7,1.1-11l0,0c-1.9-5.4-5.8-5.7-5.8-5.7l0,0l-1.6,0.6c0,0-3,2.7-1.1,8.2
					l0,0C59.4,104.9,65.9,109.6,65.9,109.6z"/>
				<path class="st1" d="M146.3,53.1c0,0,1.3-4.5,2.8-5.8c2.6-2.1,4.7-1.1,4.7-1.1l0.6,0.8c0,0,0.6,2.3-1.9,4.4
					C151,52.7,146.3,53.1,146.3,53.1L146.3,53.1z"/>
				
					<linearGradient id="SVGID_8_" gradientUnits="userSpaceOnUse" x1="48.5189" y1="-462.0539" x2="37.9228" y2="-477.1868" gradientTransform="matrix(1 0 0 -1 0 -372)">
					<stop  offset="0" style="stop-color:#EBEDF0"/>
					<stop  offset="1" style="stop-color:#007FBF"/>
				</linearGradient>
				<path class="st9" d="M38.6,104L38.6,104c0.1,0,6.9-2.4,8.6-4.9l0,0c3-4.2,1.2-7.3,1.2-7.3l0,0l-1.3-1c0,0-0.2-0.1-0.6-0.1l0,0
					c-1.2,0-3.7,0.4-5.9,3.5l0,0C38.8,96.8,38.6,104,38.6,104z"/>
				<path class="st10" d="M63.7,50c-0.1-0.6-0.2-1.5-0.4-2.3c-3.2,5.7-3.4,10.6-2.7,14C62.3,59.3,64,55.7,63.7,50z"/>
				<path class="st10" d="M82.4,60c-1.1,0-2.3,0.2-3.1,0.4c-6.1,1.9-9,5.6-10.2,8.3C72.5,68.2,77.8,66.4,82.4,60z"/>
			</g>
		</g>
		<g id="XMLID_413_">
			<g id="XMLID_414_">
				<g>
					<path class="st11" d="M114.8,96.6h3c0.4,0,0.5,0.1,0.5,0.5v4.3c0,0.3-0.1,0.4-0.3,0.6c-1.2,0.5-2.3,0.8-3.7,0.8
						c-4.1,0-5.9-2.4-5.9-5.9c0-3.6,1.7-6,5.9-6c1.7,0,2.8,0.4,3.5,0.9c0.3,0.2,0.4,0.6,0.4,0.9c0,0.2-0.1,0.3-0.2,0.2
						c-0.8-0.4-1.9-1-3.6-1c-3.5,0-4.7,1.9-4.7,4.9c0,2.8,1.1,4.8,4.6,4.8c0.8,0,1.8-0.1,2.9-0.6v-3.5h-1.9c-0.5,0-0.9-0.3-0.9-0.8
						C114.4,96.6,114.6,96.6,114.8,96.6z"/>
					<path class="st11" d="M121.6,99v3c0,0.4-0.1,0.4-0.4,0.4H121c-0.3,0-0.4-0.1-0.4-0.4v-6.7c0-0.3,0-0.4,0.2-0.4c0.6,0,1,0.2,1,1
						v0.5c0.4-1.2,1.1-1.6,2-1.6c1,0,1.2,0.3,1.2,0.9c0,0.2,0,0.3-0.2,0.2c-0.3-0.1-0.5-0.2-0.9-0.2C122.2,95.8,121.6,97,121.6,99z"
						/>
					<path class="st11" d="M131.2,101.6v-0.2c-0.4,0.6-1.3,1.1-2.5,1.1c-1.9,0-2.7-1.1-2.7-2.8v-4.4c0-0.3,0-0.4,0.2-0.4
						c0.6,0,1,0.2,1,1v3.9c0,1.1,0.5,1.8,1.7,1.8c1.5,0,2-0.9,2.3-1.9v-4.2c0-0.3,0-0.4,0.2-0.4c0.6,0,1,0.2,1,1v6.2
						c0,0.3,0,0.4-0.2,0.4C131.4,102.6,131.2,102.3,131.2,101.6z"/>
					<path class="st11" d="M135.7,101.3v4.4c0,0.4-0.1,0.4-0.4,0.4h-0.2c-0.3,0-0.4-0.1-0.4-0.4V95.4c0-0.3,0-0.4,0.2-0.4
						c0.6,0,1,0.2,1,1v0.4c0.5-0.9,1.4-1.4,2.8-1.4c2.3,0,3.5,1.6,3.5,3.9s-1.3,3.9-3.6,3.9C137.1,102.6,136.2,102.1,135.7,101.3z
						 M138.1,101.5c1.7,0,2.6-1.2,2.6-2.8s-0.9-2.8-2.6-2.8c-1.9,0-2.7,1.4-2.7,2.8C135.6,100.2,136.3,101.5,138.1,101.5z"/>
					<path class="st11" d="M147.3,94.9c2.5,0,3.9,1.5,3.9,3.9c0,2.3-1.4,3.9-3.9,3.9s-3.9-1.5-3.9-3.9
						C143.4,96.4,144.8,94.9,147.3,94.9z M147.3,101.5c1.7,0,2.7-1.1,2.7-2.8s-1-2.9-2.7-2.9s-2.7,1.2-2.7,2.9
						C144.5,100.5,145.5,101.5,147.3,101.5z"/>
					<path class="st12" d="M153,102.1V91.6c0-0.4,0.1-0.5,0.5-0.5h5.6c0.2,0,0.3,0,0.3,0.2c0,0.4-0.3,0.8-1.1,0.8H154v4h4
						c0.2,0,0.3,0,0.3,0.2c0,0.4-0.3,0.8-1.1,0.8H154v4.4h4.8c0.3,0,0.4,0.1,0.4,0.4v0.2c0,0.3-0.1,0.4-0.4,0.4h-5.4
						C153.1,102.5,153,102.4,153,102.1z"/>
					<path class="st12" d="M166.7,102.5h-0.2c-0.3,0-0.4-0.1-0.4-0.4v-4.2c0-1.2-0.4-1.9-1.8-1.9c-1.4,0-1.9,0.9-2.1,2v4.1
						c0,0.4-0.1,0.4-0.4,0.4h-0.2c-0.3,0-0.4-0.1-0.4-0.4v-6.7c0-0.3,0-0.4,0.2-0.4c0.6,0,1,0.2,1,1l0,0c0.4-0.6,1.2-1.1,2.4-1.1
						c1.9,0,2.7,1.1,2.7,2.9v4.3C167.1,102.4,167.1,102.5,166.7,102.5z"/>
					<path class="st12" d="M170.1,99.3c0.2,1.7,1.1,2.3,2.7,2.3c1.4,0,2-0.3,2.9-0.6c0.2-0.1,0.3,0,0.3,0.2c0,0.3-0.2,0.8-0.6,1
						c-0.6,0.2-1.5,0.5-2.7,0.5c-2.3,0-3.8-1.1-3.8-3.7s1.3-4,3.6-4c2.4,0,3.5,1.5,3.5,3.8c0,0.3-0.1,0.6-0.6,0.6L170.1,99.3
						L170.1,99.3L170.1,99.3z M170.1,98.3h4.8c-0.1-1.5-0.8-2.5-2.4-2.5C171,95.8,170.3,96.8,170.1,98.3z"/>
					<path class="st12" d="M178.9,99v3c0,0.4-0.1,0.4-0.4,0.4h-0.2c-0.3,0-0.4-0.1-0.4-0.4v-6.7c0-0.3,0-0.4,0.2-0.4
						c0.6,0,1,0.2,1,1v0.5c0.4-1.2,1.1-1.6,2-1.6c1,0,1.2,0.3,1.2,0.9c0,0.2,0,0.3-0.2,0.2c-0.3-0.1-0.5-0.2-0.9-0.2
						C179.8,95.8,179.1,97,178.9,99z"/>
					<path class="st12" d="M183.6,105.7c-0.4-0.2-0.6-0.4-0.6-0.9c0-0.2,0.2-0.3,0.4-0.2c0.6,0.2,1.5,0.6,2.8,0.6
						c1.4,0,2.9-0.4,2.9-3.2v-0.8c-0.5,0.8-1.5,1.4-2.8,1.4c-2.3,0-3.6-1.5-3.6-3.9c0-2.3,1.3-4,3.5-4c1.4,0,2.3,0.6,2.8,1.4v-0.2
						c0-0.6,0.2-1.1,1-1.1c0.2,0,0.2,0.1,0.2,0.4v6.8c0,3.2-1.9,4-4,4C184.9,106.1,184,105.9,183.6,105.7z M186.5,95.9
						c-1.7,0-2.6,1.3-2.6,2.8c0,1.6,0.9,2.8,2.6,2.8c1.9,0,2.7-1.4,2.7-2.8S188.4,95.9,186.5,95.9z"/>
					<path class="st12" d="M193.4,91.2c0.2-0.2,0.2-0.3,0.6-0.3h0.6c0.2,0,0.3,0.2,0.1,0.3l-1.5,1.6C193,93,193,93,192.8,93h-0.5
						c-0.2,0-0.2-0.1-0.1-0.2L193.4,91.2z M193.7,95.9v6.1c0,0.4-0.1,0.4-0.4,0.4H193c-0.3,0-0.4-0.1-0.4-0.4v-6.7
						c0-0.3,0-0.4,0.2-0.4C193.3,95,193.7,95.2,193.7,95.9z"/>
					<path class="st12" d="M198.3,98.4c0.6,0,1.5,0.1,2.3,0.2v-1c0-1.6-1.3-1.7-2.3-1.7c-0.8,0-1.5,0.2-2,0.2
						c-0.4,0.1-0.4,0.1-0.4-0.2c0-0.4,0.2-0.6,0.6-0.8c0.4-0.2,1.3-0.3,2.1-0.3c1.1,0,3.2,0.2,3.2,2.6v4.7c0,0.3,0,0.4-0.2,0.4
						c-0.6,0-0.9-0.2-1-0.8c-0.4,0.3-1.3,0.8-2.7,0.8c-1.7,0-2.5-0.8-2.5-2.1C195.4,98.9,196.2,98.4,198.3,98.4z M200.5,99.4
						c-0.6-0.1-1.5-0.2-2.1-0.2c-1.2,0-1.9,0.2-1.9,1.1s0.6,1.3,1.6,1.3c1.4,0,1.9-0.4,2.5-0.8L200.5,99.4L200.5,99.4z"/>
					<path class="st12" d="M204.7,102.5c-0.3,0-0.4-0.1-0.4-0.4V91.6c0-0.4,0.1-0.5,0.5-0.5h3.2c2.3,0,3.2,1.3,3.2,2.8
						s-0.6,2.3-1.7,2.6c1.7,0.2,2.5,1.2,2.5,2.9c0,1.9-1.1,3.2-3.7,3.2L204.7,102.5L204.7,102.5z M205.5,92v4h2.5c1.4,0,2-0.8,2-2
						c0-1.1-0.5-1.9-2.3-1.9C207.7,92,205.5,92,205.5,92z M205.5,97v4.4h2.7c1.9,0,2.7-1,2.7-2.3c0-1.5-1-2.3-2.7-2.3L205.5,97
						L205.5,97z"/>
					<path class="st12" d="M217.3,94.9c2.5,0,3.9,1.5,3.9,3.9c0,2.3-1.4,3.9-3.9,3.9s-3.9-1.5-3.9-3.9
						C213.4,96.4,214.8,94.9,217.3,94.9z M217.3,101.5c1.7,0,2.7-1.1,2.7-2.8s-1-2.9-2.7-2.9s-2.7,1.2-2.7,2.9
						C214.6,100.5,215.6,101.5,217.3,101.5z"/>
					<path class="st12" d="M223.3,105.7c-0.4-0.2-0.6-0.4-0.6-0.9c0-0.2,0.2-0.3,0.4-0.2c0.6,0.2,1.5,0.6,2.8,0.6
						c1.4,0,2.9-0.4,2.9-3.2v-0.8c-0.5,0.8-1.5,1.4-2.8,1.4c-2.3,0-3.6-1.5-3.6-3.9c0-2.3,1.3-4,3.5-4c1.4,0,2.3,0.6,2.8,1.4v-0.2
						c0-0.6,0.2-1.1,1-1.1c0.2,0,0.2,0.1,0.2,0.4v6.8c0,3.2-1.9,4-4,4C224.6,106.1,223.8,105.9,223.3,105.7z M226.3,95.9
						c-1.7,0-2.6,1.3-2.6,2.8c0,1.6,0.9,2.8,2.6,2.8c1.9,0,2.7-1.4,2.7-2.8S228.1,95.9,226.3,95.9z"/>
					<path class="st12" d="M235.8,94.9c2.5,0,3.9,1.5,3.9,3.9c0,2.3-1.4,3.9-3.9,3.9s-3.9-1.5-3.9-3.9
						C231.9,96.4,233.3,94.9,235.8,94.9z M235.8,101.5c1.7,0,2.7-1.1,2.7-2.8s-1-2.9-2.7-2.9s-2.7,1.2-2.7,2.9
						C233.1,100.5,234,101.5,235.8,101.5z"/>
					<path class="st12" d="M243,93.1v1.8h1.9c0.3,0,0.3,0.1,0.3,0.3v0.2c0,0.3-0.1,0.3-0.3,0.3H243v4.2c0,1.1,0.6,1.4,1.1,1.4
						c0.4,0,0.8-0.1,1.1-0.2c0.2-0.1,0.2,0,0.2,0.2s0,0.3-0.1,0.4c-0.2,0.3-0.8,0.6-1.5,0.6c-1.3,0-1.9-0.8-1.9-2.4v-4.2h-1
						c-0.3,0-0.3,0-0.3-0.3v-0.2c0-0.3,0.1-0.3,0.3-0.3h1v-0.5c0-1.2,0.3-1.6,1-1.6C242.9,92.8,243,92.8,243,93.1z"/>
					<path class="st12" d="M249.2,98.4c0.6,0,1.5,0.1,2.3,0.2v-1c0-1.6-1.3-1.7-2.3-1.7c-0.8,0-1.5,0.2-2,0.2
						c-0.4,0.1-0.4,0.1-0.4-0.2c0-0.4,0.2-0.6,0.6-0.8c0.4-0.2,1.3-0.3,2.1-0.3c1.1,0,3.2,0.2,3.2,2.6v4.7c0,0.3,0,0.4-0.2,0.4
						c-0.6,0-0.9-0.2-1-0.8c-0.4,0.3-1.3,0.8-2.7,0.8c-1.7,0-2.5-0.8-2.5-2.1C246.3,98.9,247.2,98.4,249.2,98.4z M251.5,99.4
						c-0.6-0.1-1.5-0.2-2.1-0.2c-1.2,0-1.9,0.2-1.9,1.1s0.6,1.3,1.6,1.3c1.4,0,1.9-0.4,2.5-0.8L251.5,99.4L251.5,99.4z M249.9,91.2
						c0.2-0.2,0.2-0.3,0.6-0.3h0.6c0.2,0,0.3,0.2,0.1,0.3l-1.5,1.6c-0.2,0.2-0.2,0.2-0.4,0.2h-0.5c-0.2,0-0.2-0.1-0.1-0.2
						L249.9,91.2z"/>
				</g>
			</g>
		</g>
	</g>
</g>
<rect x="7.5" y="8.5" class="st13" width="272" height="124"/>
</svg>
