<?xml version="1.0" encoding="utf-8"?>
<!-- Generator: Adobe Illustrator 24.0.1, SVG Export Plug-In . SVG Version: 6.00 Build 0)  -->
<svg version="1.1" id="Layer_1" xmlns="http://www.w3.org/2000/svg" xmlns:xlink="http://www.w3.org/1999/xlink" x="0px" y="0px"
	 width="287px" height="140px" viewBox="0 0 287 140" style="enable-background:new 0 0 287 140;" xml:space="preserve">
<style type="text/css">
	.st0{fill:#FFFFFF;}
	.st1{fill:#03A04B;}
	.st2{fill:#231F20;}
	.st3{fill:#A3CB3A;}
	.st4{fill:#2275B9;}
	.st5{fill:#2DA9E0;}
	.st6{fill:#1D75B9;}
</style>
<g>
	<rect x="7.5" y="8" class="st0" width="272" height="124"/>
	<g id="XMLID_513_">
		<g id="XMLID_536_">
			<g id="XMLID_537_">
				<g>
					<path class="st1" d="M149.2,57.4h-6.3v25.5c0,0.9-0.3,1.1-1.1,1.1H141c-0.9,0-1.1-0.3-1.1-1.1V57.4h-8.1c-0.9,0-1.1-0.1-1.1-1
						v-0.6c0-0.8,0.3-1,1.1-1h19.1c0.7,0,1,0.1,1,0.6C151.9,56.3,151,57.4,149.2,57.4z"/>
					<path class="st1" d="M169.5,68.9h7.6c1.1,0,1.2,0.1,1.2,1.3v10.9c0,1-0.1,1.2-0.9,1.5c-3,1.3-5.7,1.9-9.4,1.9
						c-10.4,0-14.9-6.2-14.9-15c0-9.1,4.3-15.3,15-15.3c4.4,0,7.1,1.1,8.8,2.2c1,0.7,1.1,1.8,1.1,2.1c0,0.6-0.1,0.8-0.6,0.7
						c-2-1.1-4.8-2.4-9.2-2.4c-8.9,0-12,5-12,12.6c0,7.1,2.8,12.3,11.7,12.3c2,0,4.5-0.1,7.3-1.4v-8.8h-4.9c-1.3,0-2.1-0.8-2.1-2
						C168.4,69.1,168.6,68.9,169.5,68.9z"/>
					<path class="st1" d="M187.7,82.9c0,0.9-0.1,1.1-1.1,1.1h-0.7c-1,0-1.1-0.3-1.1-1.1V56.1c0-1.1,0.1-1.3,1.2-1.3h0.5
						c1.1,0,1.2,0.1,1.2,1.3L187.7,82.9L187.7,82.9z"/>
				</g>
			</g>
		</g>
		<g id="XMLID_534_">
			<g id="XMLID_535_">
				<g>
					<path class="st2" d="M139,95.2h2.7c0.4,0,0.4,0.1,0.4,0.4v3.8c0,0.3-0.1,0.4-0.3,0.5c-1.1,0.4-2,0.7-3.4,0.7
						c-3.7,0-5.3-2.2-5.3-5.3c0-3.3,1.5-5.5,5.4-5.5c1.6,0,2.6,0.4,3.1,0.7c0.3,0.3,0.4,0.6,0.4,0.7c0,0.3-0.1,0.3-0.3,0.3
						c-0.7-0.4-1.7-0.8-3.3-0.8c-3.2,0-4.2,1.8-4.2,4.4c0,2.6,1.1,4.4,4.2,4.4c0.7,0,1.6-0.1,2.6-0.5V96h-1.8
						c-0.4,0-0.7-0.3-0.7-0.7C138.6,95.2,138.8,95.2,139,95.2z"/>
					<path class="st2" d="M145,97.5v2.7c0,0.4-0.1,0.4-0.4,0.4h-0.3c-0.3,0-0.4-0.1-0.4-0.4v-6c0-0.3,0-0.4,0.3-0.4
						c0.6,0,0.8,0.3,0.8,0.8V95c0.4-1.1,1.1-1.4,1.9-1.4c0.8,0,1.1,0.3,1.1,0.7c0,0.3,0,0.3-0.3,0.3c-0.3-0.1-0.5-0.1-0.8-0.1
						C145.7,94.5,145,95.6,145,97.5z"/>
					<path class="st2" d="M153.7,99.8v-0.1c-0.4,0.6-1.1,1.1-2.3,1.1c-1.7,0-2.4-1-2.4-2.6v-4c0-0.3,0-0.4,0.3-0.4
						c0.6,0,0.8,0.3,0.8,0.8v3.4c0,0.9,0.4,1.6,1.6,1.6c1.3,0,1.9-0.7,2-1.8V94c0-0.3,0-0.4,0.3-0.4c0.6,0,0.8,0.3,0.8,0.8v5.7
						c0,0.3,0,0.4-0.3,0.4C154,100.6,153.7,100.4,153.7,99.8z"/>
					<path class="st2" d="M157.8,99.5v4c0,0.4-0.1,0.4-0.4,0.4h-0.3c-0.3,0-0.4-0.1-0.4-0.4v-9.4c0-0.3,0-0.4,0.3-0.4
						c0.6,0,0.8,0.3,0.8,0.8V95c0.4-0.7,1.3-1.3,2.5-1.3c2,0,3.2,1.4,3.2,3.4s-1.1,3.4-3.3,3.4C159.1,100.6,158.3,100.2,157.8,99.5z
						 M160,99.7c1.6,0,2.4-1.1,2.4-2.5s-0.7-2.6-2.4-2.6c-1.7,0-2.4,1.3-2.4,2.6C157.7,98.5,158.4,99.7,160,99.7z"/>
					<path class="st2" d="M168.2,93.7c2.2,0,3.4,1.3,3.4,3.4s-1.3,3.4-3.4,3.4c-2.3,0-3.4-1.3-3.4-3.4
						C164.7,95.1,165.9,93.7,168.2,93.7z M168.2,99.8c1.6,0,2.4-1.1,2.4-2.6c0-1.5-0.8-2.6-2.4-2.6c-1.6,0-2.4,1.1-2.4,2.6
						C165.8,98.7,166.6,99.8,168.2,99.8z"/>
					<path class="st1" d="M173.4,100.2v-9.4c0-0.4,0.1-0.5,0.4-0.5h5c0.3,0,0.3,0,0.3,0.3c0,0.4-0.3,0.7-1,0.7h-3.8v3.5h3.5
						c0.3,0,0.3,0,0.3,0.3c0,0.4-0.3,0.7-1,0.7h-3v4h4.3c0.3,0,0.4,0.1,0.4,0.4v0.3c0,0.3-0.1,0.4-0.4,0.4h-4.9
						C173.5,100.6,173.4,100.5,173.4,100.2z"/>
					<path class="st1" d="M185.8,100.6h-0.3c-0.3,0-0.4-0.1-0.4-0.4v-3.8c0-1.1-0.4-1.8-1.7-1.8c-1.3,0-1.8,0.7-1.9,1.9v3.7
						c0,0.4-0.1,0.4-0.4,0.4h-0.3c-0.3,0-0.4-0.1-0.4-0.4v-6c0-0.3,0-0.4,0.3-0.4c0.6,0,0.8,0.3,0.8,0.8v0.1
						c0.4-0.6,1.1-1.1,2.2-1.1c1.8,0,2.4,1.1,2.4,2.6v3.8C186.2,100.5,186.1,100.6,185.8,100.6z"/>
					<path class="st1" d="M188.9,97.6c0.1,1.6,1,2,2.4,2c1.2,0,1.8-0.3,2.6-0.6c0.3-0.1,0.3,0,0.3,0.1c0,0.3-0.1,0.7-0.6,0.8
						c-0.5,0.3-1.4,0.5-2.4,0.5c-2,0-3.4-0.9-3.4-3.4c0-2.4,1.1-3.6,3.3-3.6c2.2,0,3.2,1.3,3.2,3.4c0,0.3-0.1,0.6-0.5,0.6
						L188.9,97.6L188.9,97.6z M188.9,96.8h4.3c-0.1-1.3-0.7-2.3-2.1-2.3C189.7,94.5,189.1,95.4,188.9,96.8z"/>
					<path class="st1" d="M197,97.5v2.7c0,0.4-0.1,0.4-0.4,0.4h-0.3c-0.3,0-0.4-0.1-0.4-0.4v-6c0-0.3,0-0.4,0.3-0.4
						c0.6,0,0.8,0.3,0.8,0.8V95c0.4-1.1,1.1-1.4,1.9-1.4c0.8,0,1.1,0.3,1.1,0.7c0,0.3,0,0.3-0.3,0.3c-0.3-0.1-0.5-0.1-0.8-0.1
						C197.6,94.5,197,95.6,197,97.5z"/>
					<path class="st1" d="M201,103.4c-0.4-0.3-0.5-0.4-0.5-0.7c0-0.3,0.1-0.3,0.4-0.3c0.5,0.3,1.3,0.6,2.6,0.6
						c1.2,0,2.6-0.4,2.6-2.8v-0.7c-0.4,0.7-1.3,1.2-2.6,1.2c-2,0-3.3-1.3-3.3-3.4s1.2-3.5,3.2-3.5c1.2,0,2,0.5,2.6,1.3v-0.3
						c0-0.6,0.3-0.9,0.8-0.9c0.3,0,0.3,0.1,0.3,0.4v6.1c0,3-1.8,3.6-3.5,3.6C202.3,103.9,201.4,103.6,201,103.4z M203.7,94.6
						c-1.6,0-2.4,1.1-2.4,2.6c0,1.4,0.7,2.6,2.4,2.6c1.7,0,2.4-1.2,2.4-2.5C206.1,95.9,205.4,94.6,203.7,94.6z"/>
					<path class="st1" d="M209.9,90.4c0.1-0.3,0.3-0.3,0.5-0.3h0.5c0.3,0,0.3,0.1,0.1,0.3l-1.4,1.5c-0.1,0.1-0.3,0.1-0.4,0.1h-0.4
						c-0.1,0-0.1-0.1-0.1-0.1L209.9,90.4z M210.1,94.6v5.5c0,0.4-0.1,0.4-0.4,0.4h-0.2c-0.3,0-0.4-0.1-0.4-0.4v-6
						c0-0.3,0-0.4,0.3-0.4C209.8,93.8,210.1,94,210.1,94.6z"/>
					<path class="st1" d="M214.3,96.9c0.6,0,1.4,0.1,2.1,0.1v-0.9c0-1.4-1.1-1.6-2-1.6c-0.7,0-1.3,0.1-1.8,0.3
						c-0.4,0.1-0.4,0.1-0.4-0.1c0-0.4,0.1-0.6,0.5-0.7c0.4-0.1,1.2-0.3,2-0.3c1,0,2.8,0.3,2.8,2.3v4.3c0,0.3,0,0.4-0.3,0.4
						c-0.5,0-0.7-0.3-0.8-0.7c-0.4,0.3-1.1,0.7-2.5,0.7c-1.5,0-2.3-0.7-2.3-2C211.6,97.3,212.5,96.9,214.3,96.9z M216.4,97.8
						c-0.6-0.1-1.3-0.1-1.9-0.1c-1.1,0-1.8,0.1-1.8,1s0.5,1.1,1.5,1.1c1.2,0,1.8-0.4,2.3-0.7L216.4,97.8L216.4,97.8z"/>
					<path class="st1" d="M220.2,100.6c-0.3,0-0.4-0.1-0.4-0.4v-9.5c0-0.4,0.1-0.4,0.4-0.4h2.8c2,0,2.8,1.1,2.8,2.6
						c0,1.3-0.6,2-1.5,2.4c1.5,0.3,2.3,1.1,2.3,2.6c0,1.7-1.1,2.8-3.4,2.8L220.2,100.6L220.2,100.6z M220.8,91.1v3.6h2.2
						c1.2,0,1.8-0.7,1.8-1.8c0-1-0.5-1.8-2-1.8H220.8L220.8,91.1z M220.8,95.6v4.1h2.4c1.8,0,2.4-0.8,2.4-2c0-1.3-0.8-2-2.4-2
						L220.8,95.6L220.8,95.6z"/>
					<path class="st1" d="M231.5,93.7c2.2,0,3.4,1.3,3.4,3.4s-1.3,3.4-3.4,3.4c-2.3,0-3.4-1.3-3.4-3.4
						C227.9,95.1,229.3,93.7,231.5,93.7z M231.5,99.8c1.6,0,2.4-1.1,2.4-2.6c0-1.5-0.8-2.6-2.4-2.6c-1.6,0-2.4,1.1-2.4,2.6
						C229,98.7,229.9,99.8,231.5,99.8z"/>
					<path class="st1" d="M236.9,103.4c-0.4-0.3-0.5-0.4-0.5-0.7c0-0.3,0.1-0.3,0.4-0.3c0.5,0.3,1.3,0.6,2.6,0.6
						c1.2,0,2.6-0.4,2.6-2.8v-0.7c-0.4,0.7-1.3,1.2-2.6,1.2c-2,0-3.3-1.3-3.3-3.4s1.2-3.5,3.2-3.5c1.2,0,2,0.5,2.6,1.3v-0.3
						c0-0.6,0.3-0.9,0.8-0.9c0.3,0,0.3,0.1,0.3,0.4v6.1c0,3-1.8,3.6-3.5,3.6C238.1,103.9,237.3,103.6,236.9,103.4z M239.6,94.6
						c-1.6,0-2.4,1.1-2.4,2.6c0,1.4,0.7,2.6,2.4,2.6c1.7,0,2.4-1.2,2.4-2.5C242,95.9,241.3,94.6,239.6,94.6z"/>
					<path class="st1" d="M248.1,93.7c2.2,0,3.4,1.3,3.4,3.4s-1.3,3.4-3.4,3.4c-2.3,0-3.4-1.3-3.4-3.4
						C244.6,95.1,245.9,93.7,248.1,93.7z M248.1,99.8c1.6,0,2.4-1.1,2.4-2.6c0-1.5-0.8-2.6-2.4-2.6s-2.4,1.1-2.4,2.6
						S246.6,99.8,248.1,99.8z"/>
					<path class="st1" d="M254.6,92.2v1.6h1.8c0.3,0,0.3,0.1,0.3,0.3v0.3c0,0.3-0.1,0.3-0.3,0.3h-1.8v3.8c0,1,0.5,1.2,1,1.2
						c0.4,0,0.7-0.1,1-0.3c0.1-0.1,0.3,0,0.3,0.3c0,0.1,0,0.3-0.1,0.4c-0.3,0.3-0.7,0.5-1.4,0.5c-1.1,0-1.8-0.7-1.8-2.1v-3.8h-0.8
						c-0.3,0-0.3,0-0.3-0.3v-0.3c0-0.3,0.1-0.3,0.3-0.3h0.8v-0.4c0-1.1,0.3-1.5,0.8-1.5C254.6,91.8,254.6,91.9,254.6,92.2z"/>
					<path class="st1" d="M260.3,96.9c0.6,0,1.4,0.1,2.1,0.1v-0.9c0-1.4-1.1-1.6-2-1.6c-0.7,0-1.3,0.1-1.8,0.3
						c-0.4,0.1-0.4,0.1-0.4-0.1c0-0.4,0.1-0.6,0.5-0.7c0.4-0.1,1.2-0.3,2-0.3c1,0,2.8,0.3,2.8,2.3v4.3c0,0.3,0,0.4-0.3,0.4
						c-0.5,0-0.7-0.3-0.8-0.7c-0.4,0.3-1.1,0.7-2.5,0.7c-1.5,0-2.3-0.7-2.3-2C257.6,97.3,258.5,96.9,260.3,96.9z M262.4,97.8
						c-0.6-0.1-1.3-0.1-1.9-0.1c-1.1,0-1.8,0.1-1.8,1s0.5,1.1,1.5,1.1c1.2,0,1.8-0.4,2.3-0.7L262.4,97.8L262.4,97.8z M261,90.4
						c0.1-0.3,0.3-0.3,0.5-0.3h0.5c0.3,0,0.3,0.1,0.1,0.3l-1.4,1.5c-0.1,0.1-0.3,0.1-0.4,0.1h-0.4c-0.1,0-0.1-0.1-0.1-0.1L261,90.4z
						"/>
				</g>
			</g>
		</g>
		<g id="XMLID_514_">
			<g id="XMLID_516_">
				<path id="XMLID_533_" class="st3" d="M46.5,96.5c-0.1,0-0.3,0-0.3-0.1C39.4,91,35.6,82.8,35.7,74s4-17,10.7-22.2
					c0.3-0.1,0.5-0.1,0.7,0.1c0.1,0.3,0.1,0.5-0.1,0.7C40.6,57.6,36.8,65.4,36.7,74c-0.1,8.6,3.6,16.4,10.2,21.6
					c0.3,0.1,0.3,0.4,0.1,0.7C46.8,96.4,46.6,96.5,46.5,96.5z"/>
				<path id="XMLID_532_" class="st3" d="M70.9,101.5c-10.6,0-20.8-5.9-25.7-16.1c-0.9-1.8-1.6-3.8-2-5.7c-0.4-1.8-0.7-3.5-0.7-5.4
					c0-0.3,0.3-0.5,0.4-0.5c0.3,0,0.5,0.3,0.5,0.4c0.1,1.8,0.3,3.4,0.7,5.2c0.4,1.9,1.1,3.8,2,5.6c6.5,13.7,23.1,19.4,36.7,12.7
					c6.7-3.2,11.6-8.8,14-15.7c2.4-6.9,2-14.4-1.2-21C91.2,51.8,82.1,45.8,72,45.5c-0.3,0-0.4-0.3-0.4-0.5s0.3-0.4,0.5-0.4
					c10.5,0.4,19.9,6.5,24.5,16c3.4,6.9,3.8,14.6,1.3,21.8c-2.5,7.1-7.6,12.9-14.6,16.2C79.2,100.6,74.9,101.5,70.9,101.5z"/>
				<path id="XMLID_531_" class="st1" d="M72.8,94.8c-3.8,0-7.6-0.7-11.2-2.3c-7.1-3-12.4-8.6-15.3-15.6c-2.8-7.1-2.7-14.8,0.3-21.8
					c3-7.1,8.6-12.4,15.6-15.3c7.1-2.8,14.8-2.7,21.8,0.3c1.9,0.8,3.7,1.8,5.4,3c1.5,1.1,2.8,2.3,4.1,3.5c0.1,0.3,0.1,0.5,0,0.7
					c-0.3,0.1-0.5,0.1-0.7,0c-1.2-1.3-2.6-2.4-4-3.4c-1.6-1.1-3.4-2.1-5.1-2.8c-6.7-2.8-14.2-3-21-0.3c-6.8,2.7-12.2,7.9-15,14.7
					c-2.8,6.7-3,14.2-0.3,21c2.7,6.8,7.9,12.2,14.7,15c9.3,4,20,2.5,28-3.8c0.3-0.1,0.5-0.1,0.7,0.1c0.1,0.3,0.1,0.5-0.1,0.7
					C85.5,92.7,79.2,94.8,72.8,94.8z"/>
				<circle id="XMLID_530_" class="st1" cx="48.8" cy="63.1" r="12.9"/>
				<circle id="XMLID_529_" class="st1" cx="77.8" cy="56.5" r="12.9"/>
				<ellipse id="XMLID_528_" class="st3" cx="85" cy="91.7" rx="9.8" ry="9.8"/>
				<circle id="XMLID_527_" class="st3" cx="76.3" cy="38.8" r="9.8"/>
				<circle id="XMLID_526_" class="st3" cx="52.6" cy="103.9" r="9.8"/>
				<circle id="XMLID_525_" class="st4" cx="65" cy="83.2" r="3.4"/>
				<g id="XMLID_520_">
					<path id="XMLID_524_" class="st5" d="M105.6,47.8c-0.3,0-0.4-0.1-0.4-0.4C103.6,34.2,92.3,23.7,79,23.2c-0.3,0-0.4-0.3-0.4-0.5
						c0-0.3,0.3-0.4,0.5-0.4c13.9,0.6,25.5,11.3,27,25.1C106.1,47.5,105.9,47.7,105.6,47.8L105.6,47.8z"/>
					<circle id="XMLID_523_" class="st5" cx="98.9" cy="82.8" r="11.1"/>
					<circle id="XMLID_522_" class="st5" cx="104.1" cy="43.2" r="7.4"/>
					<circle id="XMLID_521_" class="st5" cx="51" cy="38.8" r="3.4"/>
				</g>
				<ellipse id="XMLID_519_" class="st1" cx="80.8" cy="115.4" rx="2.4" ry="2.4"/>
				<ellipse id="XMLID_518_" class="st6" cx="75.3" cy="100" rx="7.4" ry="7.4"/>
				<circle id="XMLID_517_" class="st6" cx="37.2" cy="86.5" r="7.4"/>
			</g>
			<path id="XMLID_515_" class="st1" d="M25,48.7c-1.2-0.5-1.8-1.9-1.3-3.1c0.5-1.2,1.9-1.8,3.1-1.3c1.1,0.5,1.8,1.9,1.3,3.1
				C27.5,48.7,26.2,49.2,25,48.7"/>
		</g>
	</g>
</g>
</svg>
