<?xml version="1.0" encoding="utf-8"?>
<!-- Generator: Adobe Illustrator 23.1.1, SVG Export Plug-In . SVG Version: 6.00 Build 0)  -->
<svg version="1.1" id="Layer_1" xmlns="http://www.w3.org/2000/svg" xmlns:xlink="http://www.w3.org/1999/xlink" x="0px" y="0px"
	 width="70px" height="70px" viewBox="0 0 70 70" style="enable-background:new 0 0 70 70;" xml:space="preserve">
<style type="text/css">
	.st0{fill:#FFFFFF;}
	.st1{fill-rule:evenodd;clip-rule:evenodd;fill:#FFFFFF;}
</style>
<title>Artboard 23 copy 4</title>
<g>
	<g>
		<g>
			<path class="st0" d="M30,13.3c0,0.1,0.1,0.2,0.3,0.2h2.1l-0.1,5.2c0,0.2,0.1,0.3,0.3,0.3l4.7,0.1c0.2,0,0.3-0.1,0.3-0.3l0.1-5.2
				h2.2c0.1,0,0.2-0.1,0.3-0.2c0-0.1,0-0.2-0.1-0.3L35.4,5c-0.1,0-0.2,0-0.3,0C35,5,35,5,34.9,5.1L30,13
				C29.9,13.1,29.9,13.2,30,13.3z"/>
		</g>
	</g>
	<g>
		<g>
			<path class="st0" d="M52.9,21.5c-0.1,0.1-0.1,0.2,0,0.3l1,1.9l-4.6,2.4c-0.1,0.1-0.2,0.3-0.1,0.4l2.2,4.1
				c0.1,0.1,0.3,0.2,0.4,0.1l4.6-2.4l1,1.9c0.1,0.1,0.2,0.2,0.3,0.2s0.2-0.1,0.3-0.2l4.8-8c0-0.1,0-0.2,0-0.2c0-0.1-0.1-0.1-0.2-0.1
				l-9.3-0.4C53.1,21.4,53,21.4,52.9,21.5z"/>
		</g>
	</g>
	<g>
		<g>
			<path class="st0" d="M51.6,53.9l9.3-0.4c0.1,0,0.1-0.1,0.2-0.1s0-0.1,0-0.2l-4.8-8c0-0.1-0.1-0.2-0.3-0.2c-0.1,0-0.2,0-0.3,0.2
				l-1,1.9l-4.6-2.4c-0.1-0.1-0.3,0-0.4,0.1l-2.2,4.1c-0.1,0.1,0,0.3,0.1,0.4l4.6,2.4l-1,1.9c-0.1,0.1,0,0.2,0,0.3
				C51.4,53.9,51.5,53.9,51.6,53.9z"/>
		</g>
	</g>
	<g>
		<g>
			<path class="st0" d="M16.8,21.4l-9.3,0.4c-0.1,0-0.1,0.1-0.2,0.1c0,0.1,0,0.1,0,0.2l4.8,8c0,0.1,0.1,0.2,0.3,0.2
				c0.1,0,0.2,0,0.3-0.2l1-1.9l4.6,2.4c0.1,0.1,0.3,0,0.4-0.1l2.2-4.1c0.1-0.1,0-0.3-0.1-0.4l-4.6-2.4l1-1.9c0.1-0.1,0-0.2,0-0.3
				C17,21.4,16.9,21.4,16.8,21.4z"/>
		</g>
	</g>
	<g>
		<g>
			<path class="st0" d="M18.7,53.8c0.1-0.1,0.1-0.2,0-0.3l-1-1.9l4.6-2.4c0.1-0.1,0.2-0.3,0.1-0.4l-2.2-4.1
				c-0.1-0.1-0.3-0.2-0.4-0.1L15.2,47l-1-1.9c-0.1-0.1-0.2-0.2-0.3-0.2s-0.2,0.1-0.3,0.2l-4.8,8c0,0.1,0,0.2,0,0.2
				c0,0.1,0.1,0.1,0.2,0.1l9.3,0.4C18.5,53.9,18.6,53.9,18.7,53.8z"/>
		</g>
	</g>
	<g>
		<path class="st1" d="M24.2,33.6c0.5,0.2,1-0.1,1.2-0.6c1.4-4.4,5.5-7.3,10.1-7.3c5.9,0,10.6,4.8,10.6,10.6c0,4.5-2,7.2-3.7,9.4
			c-1.2,1.6-2.2,3-2.2,4.6c0,0.1,0,0.2,0,0.3h-3.8v-2.1c0-0.5-0.4-0.9-0.9-0.9s-0.9,0.4-0.9,0.9v2.1h-3.8c0-0.1,0-0.2,0-0.3
			c0-1.7-1-3-2.2-4.6s-2.6-3.4-3.2-6c-0.1-0.5-0.6-0.8-1.1-0.7s-0.8,0.6-0.7,1.1c0.8,2.9,2.3,5,3.6,6.6c1,1.4,1.8,2.5,1.8,3.5
			c0,0.4,0,0.9,0.1,1.3v7.8c0,0,0,0,0,0.1l0,0v0.1l0,0c0.3,1.5,1.1,2.9,2.3,3.8c1.2,1,2.7,1.5,4.2,1.5s3-0.5,4.2-1.5s2-2.3,2.3-3.8
			l0,0v-0.1l0,0c0,0,0,0,0-0.1v-7.8c0-0.4,0.1-0.8,0.1-1.3c0-1,0.8-2.1,1.8-3.5c1.7-2.3,4-5.4,4-10.5c0-6.9-5.6-12.5-12.5-12.5
			c-5.4,0-10.2,3.4-11.9,8.6C23.4,32.9,23.7,33.4,24.2,33.6z M35.5,63.2c-1.9,0-3.6-1.1-4.4-2.8h8.7C39,62,37.3,63.2,35.5,63.2z
			 M40.2,58.5h-9.4v-2.1h9.4V58.5z M40.2,54.6h-9.4v-2.1h9.4V54.6z"/>
		<path class="st1" d="M39.7,38.2c0-0.5-0.4-0.9-0.9-0.9h-6.6c-0.5,0-0.9,0.4-0.9,0.9s0.4,0.9,0.9,0.9h2.4v2.1
			c0,0.5,0.4,0.9,0.9,0.9s0.9-0.4,0.9-0.9v-2.1h2.4C39.3,39.1,39.7,38.7,39.7,38.2z"/>
		<path class="st1" d="M35.5,44c-0.5,0-0.9,0.4-0.9,0.9s0.4,0.9,0.9,0.9s0.9-0.4,0.9-0.9S36,44,35.5,44z"/>
		<path class="st1" d="M24.8,36.3c0-0.5-0.4-0.9-0.9-0.9S23,35.8,23,36.3s0.4,0.9,0.9,0.9S24.8,36.8,24.8,36.3z"/>
	</g>
</g>
</svg>
