<?xml version="1.0" encoding="utf-8"?>
<!-- Generator: Adobe Illustrator 23.1.1, SVG Export Plug-In . SVG Version: 6.00 Build 0)  -->
<svg version="1.1" id="Layer_1" xmlns="http://www.w3.org/2000/svg" xmlns:xlink="http://www.w3.org/1999/xlink" x="0px" y="0px"
	 width="140px" height="406px" viewBox="0 0 140 406" style="enable-background:new 0 0 140 406;" xml:space="preserve">
<style type="text/css">
	.st0{fill:#F6F6F7;}
	.st1{fill:#EB9D00;}
	.st2{fill:#F6BE38;}
	.st3{fill:#FFFFFF;}
</style>
<title>Artboard 23 copy 4</title>
<g>
	<g>
		<path class="st0" d="M56.9,278.6l30.9,0c1.2,0,2.2-1.1,2.2-2.6c0-1.4-1-2.6-2.2-2.6l-30.9,0c-1.2,0-2.2,1.1-2.2,2.6
			C54.7,277.5,55.7,278.6,56.9,278.6z"/>
		<path class="st0" d="M56.9,271.5l31,0c1.2,0,2.2-1.2,2.2-2.6c0-1.4-1-2.6-2.2-2.6l-3.3,0l-3.3-6.8c0,0-1.6-2.2-2.4-2.4
			c-0.8-0.2-10.3-1.3-13.3,0c0,0-1.4,0.4-2.6,2.6c-0.9,1.7-2.7,5.1-3.5,6.6l-2.5,0c-1.2,0-2.2,1.2-2.2,2.6
			C54.7,270.3,55.7,271.5,56.9,271.5z"/>
		<path class="st0" d="M56.9,285.7l30.9,0c1.2,0,2.2-1.1,2.2-2.6c0-1.4-1-2.6-2.2-2.6l-30.9,0c-1.2,0-2.2,1.1-2.2,2.6
			C54.7,284.6,55.7,285.7,56.9,285.7z"/>
		<g>
			<path class="st1" d="M15.1,310.2c2.6,1.3,5.2,2.6,7.8,3.9c1.5,0.8,3.6,0.5,4.5-1.2c0,0,0,0,0,0c0.8-1.5,0.5-3.6-1.2-4.5
				c-2.6-1.3-5.2-2.6-7.8-3.9c-1.5-0.8-3.7-0.4-4.5,1.2c-0.3,0.6-0.5,1.2-0.4,1.9C13.6,308.7,14.1,309.7,15.1,310.2z"/>
			<path class="st1" d="M117.5,312.9c0.8,1.7,3,1.9,4.5,1.2c2.6-1.3,5.2-2.6,7.8-3.9c1-0.5,1.5-1.6,1.6-2.6c0-0.7-0.1-1.3-0.4-1.9
				c-0.8-1.6-3-2-4.5-1.2c-2.6,1.3-5.2,2.6-7.8,3.9C116.9,309.2,116.7,311.3,117.5,312.9C117.5,312.9,117.5,312.9,117.5,312.9z"/>
			<path class="st1" d="M12.6,351.5c2.9-0.6,5.7-1.2,8.6-1.8c0.8-0.2,1.4-0.7,1.8-1.3c0.2-0.3,0.4-0.6,0.4-1
				c0.2-0.6,0.2-1.2,0.1-1.7c0,0,0-0.1,0-0.1c-0.4-1.6-1.5-2.3-2.8-2.4c-0.4-0.1-0.8,0-1.3,0.1c-2.8,0.6-5.7,1.3-8.5,1.9
				C6.8,346.1,8.5,352.4,12.6,351.5z"/>
			<path class="st1" d="M121.5,346c-0.3,1.5,0.4,3.1,2.3,3.5c2.8,0.6,5.7,1.3,8.5,1.9c1.7,0.4,3.6-0.5,4-2.3c0,0,0-0.1,0-0.1
				c0.4-1.7-0.5-3.6-2.3-4c-2.8-0.6-5.7-1.2-8.6-1.8C123.3,342.7,121.8,344.3,121.5,346z"/>
			<path class="st1" d="M31.3,385.7C31.3,385.7,31.3,385.7,31.3,385.7c1.3,1.1,3.5,1.5,4.7,0c1.8-2.3,3.6-4.6,5.4-6.8
				c1.1-1.4,1.3-3.3,0-4.6c-0.1-0.1-0.2-0.1-0.2-0.2c-1.2-1-3.3-1.1-4.4,0.2c-1.8,2.3-3.7,4.5-5.5,6.8
				C30.2,382.3,29.8,384.5,31.3,385.7z"/>
			<path class="st1" d="M103.6,378.8c1.8,2.3,3.6,4.6,5.4,6.8c1.2,1.5,3.4,1,4.6,0c0,0,0,0,0.1-0.1c1.5-1.2,1-3.4,0-4.6
				c-1.8-2.3-3.7-4.5-5.5-6.8c-0.6-0.8-1.6-1-2.5-0.9c-0.8,0.1-1.6,0.4-2.1,1c-0.5,0.6-0.8,1.2-0.9,1.8
				C102.6,377,103,378,103.6,378.8z"/>
			<path class="st1" d="M72.5,400.3C72.5,400.3,72.5,400.3,72.5,400.3c1.8,0,3.3-1.5,3.3-3.3c0-2.9,0-5.8,0-8.7
				c0-1.8-1.5-3.3-3.3-3.3c0,0,0,0,0,0c-0.9,0-1.7,0.3-2.2,0.8c-0.7,0.5-1.1,1.3-1.1,2.4c0,2.9,0,5.8,0,8.7
				C69.2,398.8,70.7,400.3,72.5,400.3z"/>
		</g>
		<g>
			<path class="st2" d="M61.8,330.7c-0.3,0.6-0.4,1.1-0.2,1.4c0.2,0.3,0.4,0.5,0.6,0.5c0.5,0,1.1-0.6,1.4-1.2c0.4-0.9,0.4-2,0.2-2.9
				C62.9,329.1,62.2,329.9,61.8,330.7z"/>
			<path class="st2" d="M75.1,331.9c-0.2,0.5-0.3,1.3-0.1,1.7c0,0.1,0.1,0.1,0.2,0.1c0.1,0,0.2,0,0.5-0.1c0.6-0.2,1.1-0.8,1.4-1.4
				c0.5-1.2,0.6-2.4,0.2-3.4c-0.1,0.1-0.2,0.2-0.2,0.3C76.4,330,75.6,330.9,75.1,331.9z"/>
			<path class="st2" d="M85,318.2c-4.2-9-7.8-19.1-11.1-30.7l-4.7,0c-3,10.9-6.4,20.5-10.2,29.1c3.1,1.4,5.5,4.1,6.8,7.6
				c2.1-0.9,4.3-1.2,6.6-1c1.9,0.2,3.6,0.7,4.9,1.4C78.5,323.1,81.4,319.9,85,318.2z"/>
			<path class="st2" d="M92,323.8c0.1,0,0.1,0,0.2,0c0.4,0,0.8-0.2,0.9-0.5c0.2-0.7-0.2-1.3-0.5-1.7c-0.8-1-2.2-1.7-3.3-1.7
				c-0.1,0-0.2,0-0.3,0c0.2,0.5,0.5,1,0.8,1.5C90.4,322.5,91,323.6,92,323.8z"/>
			<path class="st2" d="M52.1,322.9L52.1,322.9c0.1,0,0.4-0.1,1.2-1.3l0.1-0.1c0.5-0.9,0.9-1.8,1.4-2.8c-1,0.1-1.9,0.5-2.4,1
				c-0.5,0.5-0.7,1.1-0.6,1.9C51.8,322.5,52,322.8,52.1,322.9z"/>
			<path class="st2" d="M72.5,377.6c23,0,41.7-18.7,41.6-41.8c0-16.8-10-31.2-24.3-37.8l0-8.1c0-1.4-1.1-2.5-2.5-2.5l-10.5,0
				c3.2,11.3,6.8,21.1,10.8,29.8c2.4-0.4,4.4,0.1,6.1,1.6c1.2,1.1,2.3,2.9,2.2,4.6c-0.1,1.1-0.7,2-1.6,2.6c-0.7,0.4-1.4,0.7-2.2,0.7
				c-2.3,0-4.1-2.1-5-3.9c-0.3-0.7-0.7-1.3-1-2c-2.4,1.1-4.8,3.1-6.8,5.6c0.6,0.8,0.9,1.7,1.1,2.8c0.2,1.8-0.6,4.4-2,6
				c-1.5,1.7-3.4,2-5,0.8c-0.9-0.7-1.5-1.5-1.6-2.5c-0.3-2.3,1.7-4.7,3.1-6.4c0.1-0.1,0.1-0.2,0.2-0.2c-0.4-0.2-0.8-0.3-1.3-0.4
				c-2.5-0.5-4.7-0.5-6.4,0.2c-0.3,0.1-0.6,0.2-0.9,0.4c0.1,0.6,0.2,1.2,0.3,1.8c0.3,2.6-0.5,4.5-2.3,5.9c-0.7,0.6-1.6,0.9-2.5,0.9
				c-0.9,0-1.6-0.3-2.2-0.9c-1-1-1.4-2.2-1.3-3.4c0.2-2.5,2.5-4.4,3.5-5.1c0.3-0.2,0.6-0.4,0.9-0.6c-0.8-2.1-2.3-5.2-5.3-6.4
				c-0.6,1.3-1.2,2.6-1.9,3.8c0,0.1-0.1,0.2-0.2,0.2c-0.5,0.8-2,2.7-3.7,2.7c-0.6,0-1.2-0.2-1.8-0.7c-1.7-1.5-1.7-4-1.1-5.8
				c0.8-2.3,3.1-3.6,6-3.7c0.3,0,0.6,0,0.9,0c3.8-8.3,7.1-17.6,10.1-28.3l-8.7,0c-1.4,0-2.5,1.1-2.5,2.5l0,8.1
				c-14.3,6.6-24.2,21.1-24.2,37.9C30.8,358.9,49.5,377.6,72.5,377.6z"/>
		</g>
	</g>
	<rect x="71.5" y="-3.3" class="st3" width="2" height="262.1"/>
</g>
</svg>
