<?xml version="1.0" encoding="utf-8"?>
<!-- Generator: Adobe Illustrator 23.1.1, SVG Export Plug-In . SVG Version: 6.00 Build 0)  -->
<svg version="1.1" id="Layer_1" xmlns="http://www.w3.org/2000/svg" xmlns:xlink="http://www.w3.org/1999/xlink" x="0px" y="0px"
	 width="70px" height="70px" viewBox="0 0 70 70" style="enable-background:new 0 0 70 70;" xml:space="preserve">
<style type="text/css">
	.st0{fill:#FFFFFF;stroke:#FFFFFF;stroke-width:1.1589;stroke-linecap:round;stroke-linejoin:round;stroke-miterlimit:10;}
</style>
<title>Artboard 23 copy 4</title>
<g>
	<path class="st0" d="M58.5,52.2v6.3h-8.5c-1.1,0-1.7,1.4-0.9,2.2c0.5,0.5,0.7,1.1,0.7,1.8c0,1.4-1.1,2.5-2.5,2.5
		c-1.4,0-2.5-1.1-2.5-2.5c0-0.7,0.3-1.3,0.7-1.8c0.8-0.8,0.2-2.2-0.9-2.2c0,0-8.3,0-8.3,0v-6.2c0.4,0.1,0.9,0.2,1.4,0.2
		c2.8,0,5.1-2.3,5.1-5.1c0-2.8-2.3-5.1-5.1-5.1c-0.5,0-1,0.1-1.4,0.2v-6.3h8.5c1.1,0,1.7-1.4,0.9-2.2c-0.5-0.5-0.7-1.1-0.7-1.8
		c0-1.4,1.1-2.5,2.5-2.5c1.4,0,2.5,1.1,2.5,2.5c0,0.7-0.3,1.3-0.7,1.8c-0.8,0.8-0.2,2.2,0.9,2.2c0,0,8.3,0,8.3,0v6.2
		c-0.4-0.1-0.9-0.2-1.4-0.2c-2.8,0-5.1,2.3-5.1,5.1c0,2.8,2.3,5.1,5.1,5.1C57.6,52.4,58.1,52.3,58.5,52.2z"/>
	<path class="st0" d="M58.5,25.4c0,0,0,8.3,0,8.3h-6.2c0.1-0.4,0.2-0.9,0.2-1.4c0-2.8-2.3-5.1-5.1-5.1c-2.8,0-5.1,2.3-5.1,5.1
		c0,0.5,0.1,1,0.2,1.4h-6.3v-8.5c0-1.1-1.4-1.7-2.2-0.9c-0.5,0.5-1.1,0.7-1.8,0.7c-1.4,0-2.5-1.1-2.5-2.5c0-1.4,1.1-2.5,2.5-2.5
		c0.7,0,1.3,0.3,1.8,0.7c0.8,0.8,2.2,0.2,2.2-0.9c0,0,0-8.3,0-8.3h22.2v8.5C58.5,21,58.5,24.3,58.5,25.4z"/>
	<path class="st0" d="M37.7,44.9c1.4,0,2.5,1.1,2.5,2.5c0,1.4-1.1,2.5-2.5,2.5c-0.7,0-1.3-0.3-1.8-0.7c-0.8-0.8-2.2-0.2-2.2,0.9
		c0,0,0,8.3,0,8.3H11.5V36.3h6.7C18,36.7,18,37.2,18,37.7c0,2.8,2.3,5.1,5.1,5.1s5.1-2.3,5.1-5.1c0-0.5-0.1-1-0.2-1.4h5.8v8.5
		c0,1.1,1.4,1.7,2.2,0.9C36.4,45.2,37,44.9,37.7,44.9z"/>
	<path class="st0" d="M33.7,27.4v6.3h-7.9c-1.1,0-1.7,1.4-0.9,2.2c0.5,0.5,0.7,1.1,0.7,1.8c0,1.4-1.1,2.5-2.5,2.5
		c-1.4,0-2.5-1.1-2.5-2.5c0-0.7,0.3-1.3,0.7-1.8c0.8-0.8,0.2-2.2-0.9-2.2c0,0-8.8,0-8.8,0v-6.2c0.5,0.1,0.9,0.2,1.4,0.2
		c2.8,0,5.1-2.3,5.1-5.1s-2.3-5.1-5.1-5.1c-0.5,0-0.9,0.1-1.4,0.2v-6.3h9c1.1,0,1.7-1.4,0.9-2.2c-0.5-0.5-0.7-1.1-0.7-1.8
		c0-1.4,1.1-2.5,2.5-2.5c1.4,0,2.5,1.1,2.5,2.5c0,0.7-0.3,1.3-0.7,1.8c-0.8,0.8-0.2,2.2,0.9,2.2c0,0,7.8,0,7.8,0v6.2
		c-0.4-0.1-0.9-0.2-1.4-0.2c-2.8,0-5.1,2.3-5.1,5.1s2.3,5.1,5.1,5.1C32.8,27.6,33.3,27.6,33.7,27.4z"/>
</g>
</svg>
