<?xml version="1.0" encoding="utf-8"?>
<!-- Generator: Adobe Illustrator 23.1.1, SVG Export Plug-In . SVG Version: 6.00 Build 0)  -->
<svg version="1.1" id="Layer_1" xmlns="http://www.w3.org/2000/svg" xmlns:xlink="http://www.w3.org/1999/xlink" x="0px" y="0px"
	 width="70px" height="70px" viewBox="0 0 70 70" style="enable-background:new 0 0 70 70;" xml:space="preserve">
<style type="text/css">
	.st0{fill:#FFFFFF;}
</style>
<title>Artboard 23 copy 4</title>
<g>
	<g>
		<path class="st0" d="M62.9,38.3c1.4-1.6,2.1-3.6,2.1-5.8c0-2-0.7-3.8-2.1-5.2c-1.4-1.5-3.1-2.2-5.1-2.2H47.4
			c0.1-0.4,0.2-0.7,0.3-0.9c0.1-0.3,0.2-0.5,0.4-0.9c0.2-0.3,0.3-0.5,0.4-0.7c0.4-0.9,0.8-1.6,1-2.2c0.2-0.6,0.5-1.3,0.7-2.3
			c0.2-1,0.4-2,0.4-3c0-0.6,0-1.1,0-1.5c0-0.4-0.1-1-0.2-1.7c-0.1-0.8-0.3-1.4-0.5-1.9c-0.2-0.5-0.5-1.1-0.9-1.7
			c-0.4-0.6-0.9-1.2-1.5-1.6c-0.6-0.4-1.9-1.4-3-1.4c-0.6,0-1.2,0.2-1.7,0.7c-0.5,0.5-0.9,1.2-1.3,1.9c-0.4,0.8-0.6,1.5-0.7,2
			c-0.1,0.6-0.3,1.4-0.5,2.4c-0.2,1.1-0.4,1.9-0.5,2.4c-0.1,0.5-0.3,1.1-0.7,1.9c-0.3,0.8-0.7,1.4-1.2,1.9c-0.8,0.9-2.1,2.4-3.8,4.7
			c-1.2,1.7-8.4,6.9-9,7c-0.6,0.1-1.2,0.3-1.6,0.8c-0.5,0.5-0.7,1-0.7,1.7v24.9c0,0.7,0.2,1.2,0.7,1.7c0.5,0.5,1,0.7,1.7,0.8
			c0.9,0,2.8,0.6,5.9,1.7c1.9,0.7,3.4,1.2,4.5,1.5c1.1,0.3,2.6,0.7,4.6,1.1c2,0.4,3.8,0.6,5.4,0.6h0.6h2.9h1.3
			c3.3-0.1,5.8-1.1,7.4-3c1.4-1.8,2.1-4.1,1.8-7c1-1,1.7-2.2,2-3.7c0.4-1.6,0.4-3.1,0-4.5c1.1-1.6,1.7-3.4,1.6-5.3
			C63.5,40.4,63.3,39.4,62.9,38.3z"/>
		<path class="st0" d="M18.2,30H7.4c-0.7,0-1.2,0.2-1.7,0.7C5.2,31.3,5,31.8,5,32.5v24.9c0,0.7,0.2,1.3,0.7,1.7
			c0.5,0.5,1,0.7,1.7,0.7h10.8c0.6,0,1.2-0.2,1.7-0.7c0.5-0.5,0.7-1.1,0.7-1.7V32.5c0-0.7-0.2-1.3-0.7-1.7
			C19.4,30.3,18.9,30,18.2,30z"/>
	</g>
</g>
</svg>
