<?xml version="1.0" encoding="UTF-8" standalone="no"?>
<!DOCTYPE svg PUBLIC "-//W3C//DTD SVG 1.1//EN" "http://www.w3.org/Graphics/SVG/1.1/DTD/svg11.dtd">
<svg width="100%" height="100%" viewBox="0 0 1250 230" version="1.1" xmlns="http://www.w3.org/2000/svg" xmlns:xlink="http://www.w3.org/1999/xlink" xml:space="preserve" xmlns:serif="http://www.serif.com/" style="fill-rule:evenodd;clip-rule:evenodd;stroke-linejoin:round;stroke-miterlimit:2;">
    <g transform="matrix(1,0,0,1,6.2,12.95)">
        <g>
            <g>
                <g>
                    <path d="M1227.4,93.2L1172.1,16C1168.9,10.2 1162.7,6.5 1156.1,6.5L879.1,6.5C869,6.5 860.8,14.7 860.8,24.8L860.8,179.1C860.8,189.2 869,197.4 879.1,197.4L1156.1,197.4C1162.8,197.4 1168.9,193.8 1172.1,187.9L1227.4,110.7C1230.4,105.4 1230.4,98.7 1227.4,93.2Z" style="fill:rgb(229,37,104);fill-rule:nonzero;"/>
                    <path d="M1227.6,110.9L1167.2,197.5L1148.7,197.5L1209,110.9C1212,105.4 1212,98.7 1209,93.3L1148.5,6.7L1166.8,6.7L1227.5,93.3C1230.6,98.7 1230.6,105.4 1227.6,110.9Z" style="fill:white;fill-rule:nonzero;"/>
                    <path d="M1147.9,6.9C1117.2,45.3 1018.9,110.6 945.9,129.1C913.6,137.3 887.8,136.4 860.7,135.4L860.7,24.9C860.7,14.8 868.9,6.6 879,6.6L1147.9,6.9Z" style="fill:white;fill-opacity:0.11;fill-rule:nonzero;"/>
                </g>
                <g transform="matrix(0.868002,0,0,0.868002,78.4861,43.1333)">
                    <path d="M1064.3,133.7L1054.1,133.7L1054.1,154.8L1036.5,154.8L1036.5,133.7L1003.7,133.7L1003.7,118.5L1034.1,54.3L1054.1,54.3L1054.1,118.2L1064.3,118.2L1064.3,133.7ZM1036.5,118.2L1036.5,97.1L1036.8,87.8L1037.3,78.9L1036.8,78.9C1035.2,83.9 1033.5,88.4 1031.6,92.4L1019.5,118.3L1036.5,118.3L1036.5,118.2Z" style="fill:white;fill-rule:nonzero;"/>
                </g>
            </g>
            <g>
                <g>
                    <path d="M933.3,93.2L878,16C874.8,10.2 868.6,6.5 862,6.5L585,6.5C574.9,6.5 566.7,14.7 566.7,24.8L566.7,179.1C566.7,189.2 574.9,197.4 585,197.4L862,197.4C868.7,197.4 874.8,193.8 878,187.9L933.3,110.7C936.3,105.4 936.3,98.7 933.3,93.2Z" style="fill:rgb(167,187,24);fill-rule:nonzero;"/>
                    <path d="M933.5,110.9L873.1,197.5L854.6,197.5L914.9,110.9C917.9,105.4 917.9,98.7 914.9,93.3L854.5,6.6L872.8,6.6L933.5,93.2C936.5,98.7 936.5,105.4 933.5,110.9Z" style="fill:white;fill-rule:nonzero;"/>
                    <path d="M853.8,6.9C823.1,45.3 724.8,110.6 651.8,129.1C619.5,137.3 593.7,136.4 566.6,135.4L566.6,24.9C566.6,14.8 574.8,6.6 584.9,6.6L853.8,6.9Z" style="fill:white;fill-opacity:0.11;fill-rule:nonzero;"/>
                </g>
                <g transform="matrix(0.868002,0,0,0.868002,38.4861,42.0917)">
                    <path d="M764.1,76.9C764.1,83.2 762.5,88.5 759.4,92.8C756.3,97.1 751.9,100.1 746.2,101.7L746.2,102.2C752.5,103.2 757.4,105.7 760.9,109.6C764.4,113.5 766.1,118.9 766.1,125.7C766.1,135 763.2,142.3 757.5,147.8C751.7,153.3 743.9,156 733.9,156C725,156 717.5,154.4 711.5,151.3L711.5,134.5C714.5,136.3 717.8,137.8 721.3,138.8C724.8,139.9 728.2,140.4 731.5,140.4C736.8,140.4 740.8,139.2 743.5,136.7C746.2,134.2 747.6,130.4 747.6,125C747.6,115 741.4,109.9 729.1,109.9L723.4,109.9L723.4,95.9L728.8,95.9C734.3,95.9 738.4,94.6 741.3,92.1C744.2,89.5 745.7,85.7 745.7,80.6C745.7,76.6 744.8,73.6 742.9,71.6C741,69.6 738.4,68.5 735,68.5C729.8,68.5 724.8,70.7 719.9,75.1L711.4,63C718.2,56.2 726.7,52.8 737,52.8C745.5,52.8 752.1,54.9 756.9,59.2C761.7,63.6 764.1,69.4 764.1,76.9Z" style="fill:white;fill-rule:nonzero;"/>
                </g>
            </g>
            <g>
                <g>
                    <path d="M640.3,93.2L585.1,16C581.9,10.2 575.7,6.5 569.1,6.5L292.1,6.5C282,6.5 273.8,14.7 273.8,24.8L273.8,179.1C273.8,189.2 282,197.4 292.1,197.4L569.1,197.4C575.8,197.4 581.9,193.8 585.1,187.9L640.4,110.7C643.4,105.4 643.4,98.7 640.3,93.2Z" style="fill:rgb(110,62,158);fill-rule:nonzero;"/>
                    <path d="M640.6,110.9L580.2,197.5L561.7,197.5L622,110.9C625,105.4 625,98.7 622,93.3L561.5,6.6L579.8,6.6L640.5,93.2C643.6,98.7 643.6,105.4 640.6,110.9Z" style="fill:white;fill-rule:nonzero;"/>
                    <path d="M560.9,6.9C530.2,45.3 431.9,110.6 358.9,129.1C326.6,137.3 300.8,136.4 273.7,135.4L273.7,24.9C273.7,14.8 281.9,6.6 292,6.6L560.9,6.9Z" style="fill:white;fill-opacity:0.11;fill-rule:nonzero;"/>
                </g>
                <g transform="matrix(0.868002,0,0,0.868002,14.8681,43.1333)">
                    <path d="M468.1,154.8L414.2,154.8L414.2,140.8L432.1,115.5C437,108.5 440.4,103.4 442.2,100C444,96.6 445.4,93.4 446.3,90.3C447.2,87.2 447.6,84 447.6,80.7C447.6,76.9 446.7,74 445,72C443.3,70 441,69.1 438.3,69.1C435.9,69.1 433.6,69.7 431.5,71C429.4,72.3 426.8,74.6 423.8,77.9L413.4,66.9C418.2,61.4 422.7,57.7 426.8,55.7C430.9,53.7 435.4,52.7 440.2,52.7C448.3,52.7 454.6,55.1 459.2,59.8C463.8,64.6 466,71.2 466,79.7C466,83.5 465.6,87.2 464.8,90.6C464,94 462.7,97.5 461.1,100.9C459.4,104.4 457.3,108 454.8,111.7C452.3,115.4 445.8,124 435.3,137.4L435.3,138L468.2,138L468.2,154.8L468.1,154.8Z" style="fill:white;fill-rule:nonzero;"/>
                </g>
            </g>
            <g>
                <g>
                    <path d="M351.3,93.2L296,16C292.8,10.2 286.6,6.5 280,6.5L26,6.5C15.9,6.5 7.7,14.7 7.7,24.8L7.7,179.1C7.7,189.2 15.9,197.4 26,197.4L280,197.4C286.7,197.4 292.8,193.8 296,187.9L351.3,110.7C354.3,105.4 354.3,98.7 351.3,93.2Z" style="fill:rgb(0,119,193);fill-rule:nonzero;"/>
                    <path d="M351.5,110.9L291.1,197.5L272.6,197.5L332.9,110.9C335.9,105.4 335.9,98.7 332.9,93.3L272.5,6.6L290.8,6.6L351.5,93.2C354.5,98.7 354.5,105.4 351.5,110.9Z" style="fill:white;fill-rule:nonzero;"/>
                    <path d="M271.8,6.9C241.1,45.3 165.8,110.6 92.9,129.1C60.6,137.3 34.8,136.4 7.7,135.4L7.7,24.9C7.7,14.8 15.9,6.6 26,6.6L271.8,6.9Z" style="fill:white;fill-opacity:0.11;fill-rule:nonzero;"/>
                </g>
                <g transform="matrix(0.868002,0,0,0.868002,-80.7134,43.1333)">
                    <path d="M168.2,154.8L149.8,154.8L149.8,95.8C149.8,89.4 150.1,82 150.8,73.7C150.5,74.2 149.3,75.6 147.3,77.9C145.3,80.2 141.3,84.4 135.4,90.5L124.9,79L151.6,54.3L168.2,54.3L168.2,154.8Z" style="fill:white;fill-rule:nonzero;"/>
                </g>
            </g>
        </g>
        <g id="btn01" class="x-area" data-content="feed_A" fill-opacity="0" cursor="pointer" transform="matrix(1,0,0,1,-81.2,-22.95)">
            <path d="M361.2,29.45C361.831,29.45 362.457,29.484 363.078,29.55L372,29.55L432.7,116.15C435.7,121.65 435.7,128.35 432.7,133.85L372.3,220.45L353.8,220.45L353.87,220.35L107.2,220.35C97.1,220.35 88.9,212.15 88.9,202.05L88.9,47.75C88.9,37.65 97.1,29.45 107.2,29.45L361.2,29.45Z" style="fill:white;fill-rule:nonzero;"/>
        </g>
        <g id="btn02" class="x-area" data-content="feed_B" fill-opacity="0" cursor="pointer" transform="matrix(1,0,0,1,-81.2,-22.95)">
            <path d="M642.97,220.35L373.3,220.35C371.183,220.35 369.15,219.99 367.257,219.327C371.442,217.865 375.004,214.899 377.2,210.85L432.5,133.65C435.5,128.35 435.5,121.65 432.5,116.15L377.2,38.95C375.003,34.967 371.391,31.975 367.206,30.491C369.113,29.817 371.163,29.45 373.3,29.45L650.3,29.45C650.93,29.45 651.557,29.484 652.177,29.55L661,29.55L721.7,116.15C724.8,121.65 724.8,128.35 721.8,133.85L661.4,220.45L642.9,220.45L642.97,220.35Z" style="fill:white;fill-rule:nonzero;"/>
        </g>
        <g id="btn03" class="x-area" data-content="feed_C" fill-opacity="0" cursor="pointer" transform="matrix(1,0,0,1,-81.2,-22.95)">
            <path d="M935.87,220.35L666.2,220.35C663.355,220.35 660.661,219.699 658.258,218.539C661.615,216.918 664.445,214.271 666.3,210.85L721.6,133.65C724.6,128.35 724.6,121.65 721.5,116.15L666.3,38.95C664.443,35.584 661.575,32.925 658.206,31.287C660.621,30.11 663.334,29.45 666.2,29.45L943.2,29.45C943.83,29.45 944.457,29.484 945.077,29.55L954,29.55L1014.7,116.15C1017.7,121.65 1017.7,128.35 1014.7,133.85L954.3,220.45L935.8,220.45L935.87,220.35Z" style="fill:white;fill-rule:nonzero;"/>
        </g>
        <g id="btn04" class="x-area" data-content="feed_D" fill-opacity="0" cursor="pointer" transform="matrix(1,0,0,1,-81.2,-22.95)">
            <path d="M1229.97,220.35L960.3,220.35C957.216,220.35 954.309,219.585 951.758,218.235C954.852,216.597 957.456,214.065 959.2,210.85L1014.5,133.65C1017.5,128.35 1017.5,121.65 1014.5,116.15L959.2,38.95C957.454,35.786 954.816,33.247 951.706,31.593C954.269,30.225 957.194,29.45 960.3,29.45L1237.3,29.45C1238.19,29.45 1239.08,29.518 1239.95,29.65L1248,29.65L1308.7,116.25C1311.8,121.65 1311.8,128.35 1308.8,133.85L1248.4,220.45L1229.9,220.45L1229.97,220.35Z" style="fill:white;fill-rule:nonzero;"/>
        </g>
    </g>
</svg>
