<?xml version="1.0" encoding="utf-8"?>
<!-- Generator: Adobe Illustrator 23.1.1, SVG Export Plug-In . SVG Version: 6.00 Build 0)  -->
<svg version="1.1" id="Layer_1" xmlns="http://www.w3.org/2000/svg" xmlns:xlink="http://www.w3.org/1999/xlink" x="0px" y="0px"
	 width="70px" height="70px" viewBox="0 0 70 70" style="enable-background:new 0 0 70 70;" xml:space="preserve">
<style type="text/css">
	.st0{fill:#FFFFFF;}
</style>
<title>Artboard 23 copy 4</title>
<g>
	<g>
		<g>
			<path class="st0" d="M5,37.6c0,5.3,4.1,10,10.6,12.2c-0.8,3.2-1.5,4.4-1.7,4.6c-0.8,0.4-0.7,1.2-0.7,1.3c0,0.2,0.3,0.9,1.3,0.9
				l0,0c1.2,0,8.6-1.6,10.9-5.6c6.6-0.5,12.2-3.3,14.8-7.5c0.6,0.1,1.2,0.2,1.9,0.2c2.5,4.6,10.9,6.4,12.3,6.4c1,0,1.2-0.7,1.3-0.9
				c0-0.2,0.2-0.9-0.7-1.4c-0.3-0.2-1.1-1.6-2.1-5.4C60.3,39.9,65,34.6,65,28.5c0-8.4-9.4-15.2-20.9-15.2c-7,0-13.5,2.4-17.3,6.5
				c-1.3,1.3-2.2,2.8-2.8,4.4c-0.2,0-0.4,0-0.6,0C13.3,24.1,5,30.2,5,37.6z M54.3,47.9C54.3,47.9,54.3,47.9,54.3,47.9V49V47.9z
				 M14.5,55.6l0-1.1h0V55.6z M25.5,28.5c-0.1-2.6,0.9-5.1,2.9-7.2c3.4-3.6,9.3-5.8,15.7-5.8c10.3,0,18.6,5.8,18.6,13
				c0,5.3-4.5,10-11.6,12c-0.6,0.2-0.9,0.7-0.8,1.3c0.6,2.7,1.2,4.4,1.7,5.6c-2.8-0.8-7.2-2.6-8.3-5.3c-0.2-0.4-0.5-0.7-1-0.7
				C33.3,41,25.8,35.4,25.5,28.5z"/>
		</g>
		<g id="XMLID_11_">
			<g>
				<path class="st0" d="M37.7,43.2c-2.6,3.3-7.4,5.4-13.1,5.7c-0.4,0-0.8,0.3-1,0.7c-0.9,2.3-4.5,3.8-6.9,4.5
					c0.4-1,0.9-2.5,1.4-4.7c0.1-0.6-0.2-1.2-0.8-1.3c-6.1-1.8-10-5.9-10-10.4c0-6.2,7.2-11.2,16-11.3c-0.1,0.7-0.2,1.4-0.2,2.1
					C23.1,35.2,29.1,41.2,37.7,43.2z"/>
			</g>
		</g>
	</g>
	<circle class="st0" cx="37" cy="30.3" r="2.8"/>
	<circle class="st0" cx="45.4" cy="30.3" r="2.8"/>
	<circle class="st0" cx="53.8" cy="30.3" r="2.8"/>
</g>
</svg>
