<?xml version="1.0" encoding="utf-8"?>
<!-- Generator: Adobe Illustrator 23.1.1, SVG Export Plug-In . SVG Version: 6.00 Build 0)  -->
<svg version="1.1" id="Layer_1" xmlns="http://www.w3.org/2000/svg" xmlns:xlink="http://www.w3.org/1999/xlink" x="0px" y="0px"
	 width="100px" height="100px" viewBox="0 0 100 100" style="enable-background:new 0 0 100 100;" xml:space="preserve">
<style type="text/css">
	.st0{fill:#FFFFFF;}
</style>
<title>Artboard 23</title>
<g>
	<path class="st0" d="M76.5,10.4C73.6,7,69.3,5,64.8,5c-4.3,0-8.3,1.7-11.2,4.8c-2.9,3.1-4.5,7.2-4.3,11.4c0,0.5,0.1,1.1,0.1,1.6
		c0.1,1.6,0.2,3.2,0.1,4.7c-0.1,9.5-0.7,32.2-3.3,39.4c-1.1,2.9-3.4,5.1-6.4,5.9l-12.6,3.4c-4.4,1.2-7.5,5.3-7.5,9.9V89
		c0,3.3,2.7,6,6,6h20.7c2.6,0,5.1-0.5,7.5-1.4l6.8-2.3v2.2c0,0.9,0.7,1.6,1.6,1.6h11.1c0.9,0,1.6-0.7,1.6-1.6L75,77
		c0-0.1,0-0.1,0-0.2c-0.9-7-0.8-14.1,0.2-21.1l4.9-33C80.8,18.3,79.5,13.8,76.5,10.4L76.5,10.4z M67.1,8.4v17.9
		c0,1.3-1.1,2.4-2.4,2.4c-1.3,0-2.4-1.1-2.4-2.4V8.4c0.8-0.2,1.6-0.2,2.5-0.2C65.6,8.2,66.3,8.2,67.1,8.4z M63.9,91.8V89
		c0-0.5-0.2-1-0.7-1.3c-0.4-0.3-0.9-0.4-1.4-0.2l-8.9,3.1c0,0,0,0-0.1,0c-2,0.8-4.2,1.2-6.4,1.2H25.7c-1.2,0-2.3-0.8-2.7-1.9h23.5
		c2.3,0,4.7-0.5,7-1.6c7.7-3.6,15.3-3.3,18.3-3v6.5L63.9,91.8z M77,22.3l-4.9,33c-1.1,7.2-1.2,14.6-0.3,21.8l-0.1,5
		c-3.5-0.3-11.5-0.5-19.7,3.3c-1.9,0.9-3.8,1.3-5.7,1.3H22.8v-0.6c0-3.2,2.1-6,5.2-6.8l12.6-3.4c3.9-1.1,7.1-4,8.5-7.9
		c2.7-7.4,3.3-28.5,3.5-40.4c0-1.7-0.1-3.3-0.1-4.9c0-0.5-0.1-1.1-0.1-1.6c-0.1-3.3,1.1-6.6,3.4-9.1c1-1,2.1-1.8,3.3-2.5v16.8
		c0,3,2.5,5.5,5.5,5.5c3,0,5.5-2.5,5.5-5.5V9.4c1.5,0.7,2.8,1.7,3.9,3C76.5,15.2,77.5,18.8,77,22.3L77,22.3z"/>
	<path class="st0" d="M64.7,33.4c-3.9,0-7.1,3.2-7.1,7.1s3.2,7.1,7.1,7.1s7.1-3.2,7.1-7.1S68.6,33.4,64.7,33.4z M64.7,44.5
		c-2.2,0-3.9-1.8-3.9-3.9s1.8-3.9,3.9-3.9c2.2,0,3.9,1.8,3.9,3.9C68.6,42.7,66.9,44.5,64.7,44.5z"/>
</g>
</svg>
