<?xml version="1.0" encoding="UTF-8" standalone="no"?>
<!DOCTYPE svg PUBLIC "-//W3C//DTD SVG 1.1//EN" "http://www.w3.org/Graphics/SVG/1.1/DTD/svg11.dtd">
<svg width="100%" height="100%" viewBox="0 0 1151 537" version="1.1" xmlns="http://www.w3.org/2000/svg" xmlns:xlink="http://www.w3.org/1999/xlink" xml:space="preserve" xmlns:serif="http://www.serif.com/" style="fill-rule:evenodd;clip-rule:evenodd;stroke-miterlimit:10;">
    <g>
        <path d="M440.1,472.8L614.8,472.8" style="fill:none;fill-rule:nonzero;stroke:rgb(208,70,53);stroke-width:9.92px;"/>
        <path d="M696.1,472.8L870.8,472.8" style="fill:none;fill-rule:nonzero;stroke:rgb(153,35,105);stroke-width:9.92px;"/>
        <path d="M676.3,338L961,338" style="fill:none;fill-rule:nonzero;stroke:rgb(83,161,206);stroke-width:9.92px;"/>
        <path d="M857.8,203.2L582.4,203.2" style="fill:none;fill-rule:nonzero;stroke:rgb(208,70,53);stroke-width:9.92px;"/>
        <path d="M493.8,203.2L224.4,203.2" style="fill:none;fill-rule:nonzero;stroke:rgb(224,140,61);stroke-width:9.92px;"/>
        <path d="M301.3,338L590,338" style="fill:none;fill-rule:nonzero;stroke:rgb(71,162,158);stroke-width:9.92px;"/>
        <path d="M104.8,472.8L20.1,472.8" style="fill:none;fill-rule:nonzero;stroke:rgb(172,186,64);stroke-width:9.92px;"/>
        <path d="M20.7,461.6C14.5,461.6 9.5,466.6 9.5,472.8C9.5,479 14.5,484 20.7,484C26.9,484 31.9,479 31.9,472.8C31.9,466.6 26.9,461.6 20.7,461.6Z" style="fill:rgb(172,186,64);fill-rule:nonzero;"/>
        <path d="M299.7,68.5L587.4,68.5" style="fill:none;fill-rule:nonzero;stroke:rgb(83,161,206);stroke-width:9.92px;"/>
        <path d="M676.3,68.5L961,68.5" style="fill:none;fill-rule:nonzero;stroke:rgb(60,109,164);stroke-width:9.92px;"/>
        <path d="M1050.5,68.5L1067.8,68.5C1105,68.5 1135.2,98.7 1135.2,135.9C1135.2,173.1 1106.4,203.8 1069.2,203.8L942.4,203.3" style="fill:none;fill-rule:nonzero;stroke:rgb(153,35,105);stroke-width:9.92px;"/>
        <path d="M208.9,68.5L146.8,68.5C124.3,68.5 105.5,52.8 100.7,31.8" style="fill:none;fill-rule:nonzero;stroke:rgb(71,162,158);stroke-width:9.92px;"/>
        <path d="M112,30.9C111.2,24.8 105.7,20.4 99.5,21.2C93.4,22 89,27.5 89.8,33.7C90.6,39.8 96.1,44.2 102.3,43.4C108.4,42.7 112.7,37.1 112,30.9Z" style="fill:rgb(71,162,158);fill-rule:nonzero;"/>
        <path d="M186.1,472.8L360.8,472.8" style="fill:none;fill-rule:nonzero;stroke:rgb(224,140,61);stroke-width:9.92px;"/>
        <path d="M1050.5,338L1067.8,338C1105,338 1135.2,368.2 1135.2,405.4C1135.2,442.6 1105,472.8 1067.8,472.8L951,472.8" style="fill:none;fill-rule:nonzero;stroke:rgb(60,109,164);stroke-width:9.92px;"/>
        <path d="M209.9,338L116.9,338C79.7,338 49.5,307.8 49.5,270.6C49.5,233.4 79.7,203.2 116.9,203.2L133.7,203.2" style="fill:none;fill-rule:nonzero;stroke:rgb(172,186,64);stroke-width:9.92px;"/>
        <g>
            <path d="M526.7,86.4C526.7,87.8 525.5,89 524.1,89C522.7,89 521.5,87.8 521.5,86.4C521.5,85 522.7,83.8 524.1,83.8C525.5,83.8 526.7,84.9 526.7,86.4Z" style="fill:rgb(83,161,206);fill-rule:nonzero;"/>
            <path d="M524,91.1C521.4,91.1 519.3,89 519.3,86.4C519.3,83.8 521.4,81.7 524,81.7C526.6,81.7 528.7,83.8 528.7,86.4C528.8,89 526.7,91.1 524,91.1ZM524,85.9C523.7,85.9 523.5,86.1 523.5,86.4C523.5,86.7 523.7,86.9 524,86.9C524.3,86.9 524.5,86.7 524.5,86.4C524.5,86.1 524.3,85.9 524,85.9Z" style="fill:rgb(83,161,206);fill-rule:nonzero;"/>
        </g>
        <g>
            <path d="M567.5,94.2L537.5,94.2C536.3,94.2 535.4,93.2 535.4,92.1C535.4,90.9 536.4,90 537.5,90L567.5,90C568.7,90 569.6,91 569.6,92.1C569.6,93.3 568.7,94.2 567.5,94.2Z" style="fill:rgb(83,161,206);fill-rule:nonzero;"/>
            <path d="M566.3,85L547.8,85C546.6,85 545.7,84 545.7,82.9C545.7,81.7 546.7,80.8 547.8,80.8L566.3,80.8C567.5,80.8 568.4,81.8 568.4,82.9C568.4,84.1 567.5,85 566.3,85Z" style="fill:rgb(83,161,206);fill-rule:nonzero;"/>
        </g>
        <g>
            <path d="M518.9,319.5C518.9,320.9 517.7,322.1 516.3,322.1C514.9,322.1 513.7,320.9 513.7,319.5C513.7,318.1 514.9,316.9 516.3,316.9C517.7,316.9 518.9,318.1 518.9,319.5Z" style="fill:rgb(71,162,158);fill-rule:nonzero;"/>
            <path d="M516.3,324.3C513.7,324.3 511.6,322.2 511.6,319.6C511.6,317 513.7,314.9 516.3,314.9C518.9,314.9 521,317 521,319.6C521,322.1 518.9,324.3 516.3,324.3ZM516.3,319C516,319 515.8,319.2 515.8,319.5C515.8,319.8 516,320 516.3,320C516.6,320 516.8,319.8 516.8,319.5C516.8,319.3 516.6,319 516.3,319Z" style="fill:rgb(71,162,158);fill-rule:nonzero;"/>
        </g>
        <g>
            <path d="M559.8,327.3L529.8,327.3C528.6,327.3 527.7,326.3 527.7,325.2C527.7,324.1 528.7,323.1 529.8,323.1L559.8,323.1C561,323.1 561.9,324.1 561.9,325.2C561.9,326.3 560.9,327.3 559.8,327.3Z" style="fill:rgb(71,162,158);fill-rule:nonzero;"/>
            <path d="M558.6,318.2L540.1,318.2C538.9,318.2 538,317.2 538,316.1C538,314.9 539,314 540.1,314L558.6,314C559.8,314 560.7,315 560.7,316.1C560.7,317.2 559.7,318.2 558.6,318.2Z" style="fill:rgb(71,162,158);fill-rule:nonzero;"/>
        </g>
        <g>
            <path d="M495.3,489C495.3,490.4 494.1,491.6 492.7,491.6C491.3,491.6 490.1,490.4 490.1,489C490.1,487.6 491.3,486.4 492.7,486.4C494.1,486.4 495.3,487.6 495.3,489Z" style="fill:rgb(208,70,53);fill-rule:nonzero;"/>
            <path d="M492.7,493.8C490.1,493.8 488,491.7 488,489.1C488,486.5 490.1,484.4 492.7,484.4C495.3,484.4 497.4,486.5 497.4,489.1C497.4,491.6 495.3,493.8 492.7,493.8ZM492.7,488.5C492.4,488.5 492.2,488.7 492.2,489C492.2,489.3 492.4,489.5 492.7,489.5C493,489.5 493.2,489.3 493.2,489C493.2,488.7 493,488.5 492.7,488.5Z" style="fill:rgb(208,70,53);fill-rule:nonzero;"/>
        </g>
        <path d="M469,493.8L459.9,493.8C458.7,493.8 457.8,492.8 457.8,491.7C457.8,490.5 458.8,489.6 459.9,489.6L469,489.6C470.2,489.6 471.1,490.6 471.1,491.7C471.1,492.8 470.2,493.8 469,493.8Z" style="fill:rgb(208,70,53);fill-rule:nonzero;"/>
        <g>
            <path d="M631.3,219C631.3,220.4 630.1,221.6 628.7,221.6C627.3,221.6 626.1,220.4 626.1,219C626.1,217.6 627.3,216.4 628.7,216.4C630.1,216.4 631.3,217.6 631.3,219Z" style="fill:rgb(208,70,53);fill-rule:nonzero;"/>
            <path d="M628.7,223.8C626.1,223.8 624,221.7 624,219.1C624,216.5 626.1,214.4 628.7,214.4C631.3,214.4 633.4,216.5 633.4,219.1C633.4,221.6 631.3,223.8 628.7,223.8ZM628.7,218.5C628.4,218.5 628.2,218.7 628.2,219C628.2,219.3 628.4,219.5 628.7,219.5C629,219.5 629.2,219.3 629.2,219C629.2,218.7 629,218.5 628.7,218.5Z" style="fill:rgb(208,70,53);fill-rule:nonzero;"/>
        </g>
        <path d="M605,223.8L595.9,223.8C594.7,223.8 593.8,222.8 593.8,221.7C593.8,220.5 594.8,219.6 595.9,219.6L605,219.6C606.2,219.6 607.1,220.6 607.1,221.7C607.1,222.8 606.2,223.8 605,223.8Z" style="fill:rgb(208,70,53);fill-rule:nonzero;"/>
        <g>
            <path d="M256.2,190.7C256.2,192.1 255,193.3 253.6,193.3C252.2,193.3 251,192.1 251,190.7C251,189.3 252.2,188.1 253.6,188.1C255.1,188.1 256.2,189.2 256.2,190.7Z" style="fill:rgb(224,140,61);fill-rule:nonzero;"/>
            <path d="M253.6,195.4C251,195.4 248.9,193.3 248.9,190.7C248.9,188.1 251,186 253.6,186C256.2,186 258.3,188.1 258.3,190.7C258.3,193.3 256.2,195.4 253.6,195.4ZM253.6,190.2C253.3,190.2 253.1,190.4 253.1,190.7C253.1,191 253.3,191.2 253.6,191.2C253.9,191.2 254.1,191 254.1,190.7C254.1,190.4 253.9,190.2 253.6,190.2Z" style="fill:rgb(224,140,61);fill-rule:nonzero;"/>
        </g>
        <path d="M248.7,220.5L239.6,220.5C238.4,220.5 237.5,219.5 237.5,218.4C237.5,217.2 238.5,216.3 239.6,216.3L248.7,216.3C249.9,216.3 250.8,217.3 250.8,218.4C250.8,219.6 249.8,220.5 248.7,220.5Z" style="fill:rgb(224,140,61);fill-rule:nonzero;"/>
        <path d="M262.4,239.8L253.3,239.8C252.1,239.8 251.2,238.8 251.2,237.7C251.2,236.5 252.2,235.6 253.3,235.6L262.4,235.6C263.6,235.6 264.5,236.6 264.5,237.7C264.6,238.8 263.6,239.8 262.4,239.8Z" style="fill:rgb(224,140,61);fill-rule:nonzero;"/>
        <g>
            <path d="M931.2,322.7C931.2,324.1 930,325.3 928.6,325.3C927.2,325.3 926,324.1 926,322.7C926,321.3 927.2,320.1 928.6,320.1C930.1,320.1 931.2,321.2 931.2,322.7Z" style="fill:rgb(83,161,206);fill-rule:nonzero;"/>
            <path d="M928.6,327.4C926,327.4 923.9,325.3 923.9,322.7C923.9,320.1 926,318 928.6,318C931.2,318 933.3,320.1 933.3,322.7C933.3,325.3 931.2,327.4 928.6,327.4ZM928.6,322.2C928.3,322.2 928.1,322.4 928.1,322.7C928.1,323 928.3,323.2 928.6,323.2C928.9,323.2 929.1,323 929.1,322.7C929.1,322.4 928.9,322.2 928.6,322.2Z" style="fill:rgb(83,161,206);fill-rule:nonzero;"/>
        </g>
        <path d="M923.7,352.5L914.6,352.5C913.4,352.5 912.5,351.5 912.5,350.4C912.5,349.2 913.5,348.3 914.6,348.3L923.7,348.3C924.9,348.3 925.8,349.3 925.8,350.4C925.8,351.6 924.8,352.5 923.7,352.5Z" style="fill:rgb(83,161,206);fill-rule:nonzero;"/>
        <path d="M937.4,371.8L928.3,371.8C927.1,371.8 926.2,370.8 926.2,369.7C926.2,368.5 927.2,367.6 928.3,367.6L937.4,367.6C938.6,367.6 939.5,368.6 939.5,369.7C939.6,370.8 938.6,371.8 937.4,371.8Z" style="fill:rgb(83,161,206);fill-rule:nonzero;"/>
        <g>
            <path d="M87.9,287C87.9,288.4 86.7,289.6 85.3,289.6C83.9,289.6 82.7,288.4 82.7,287C82.7,285.6 83.9,284.4 85.3,284.4C86.7,284.3 87.9,285.5 87.9,287Z" style="fill:rgb(172,186,64);fill-rule:nonzero;"/>
            <path d="M85.2,291.7C82.6,291.7 80.5,289.6 80.5,287C80.5,284.4 82.6,282.3 85.2,282.3C87.8,282.3 89.9,284.4 89.9,287C90,289.6 87.9,291.7 85.2,291.7ZM85.2,286.5C84.9,286.5 84.7,286.7 84.7,287C84.7,287.3 84.9,287.5 85.2,287.5C85.5,287.5 85.7,287.3 85.7,287C85.7,286.7 85.5,286.5 85.2,286.5Z" style="fill:rgb(172,186,64);fill-rule:nonzero;"/>
        </g>
        <path d="M88.9,277.8L79.8,277.8C78.6,277.8 77.7,276.8 77.7,275.7C77.7,274.5 78.7,273.6 79.8,273.6L88.9,273.6C90.1,273.6 91,274.6 91,275.7C91,276.9 90.1,277.8 88.9,277.8Z" style="fill:rgb(172,186,64);fill-rule:nonzero;"/>
        <path d="M89.8,260.1L80.7,260.1C79.5,260.1 78.6,259.1 78.6,258C78.6,256.8 79.6,255.9 80.7,255.9L89.8,255.9C91,255.9 91.9,256.9 91.9,258C91.9,259.2 91,260.1 89.8,260.1Z" style="fill:rgb(172,186,64);fill-rule:nonzero;"/>
        <g>
            <path d="M921.9,103.1C921.9,104.5 920.7,105.7 919.3,105.7C917.9,105.7 916.7,104.5 916.7,103.1C916.7,101.7 917.9,100.5 919.3,100.5C920.8,100.5 921.9,101.6 921.9,103.1Z" style="fill:rgb(60,109,164);fill-rule:nonzero;"/>
            <path d="M919.3,107.8C916.7,107.8 914.6,105.7 914.6,103.1C914.6,100.5 916.7,98.4 919.3,98.4C921.9,98.4 924,100.5 924,103.1C924.1,105.7 921.9,107.8 919.3,107.8ZM919.3,102.6C919,102.6 918.8,102.8 918.8,103.1C918.8,103.4 919,103.6 919.3,103.6C919.6,103.6 919.8,103.4 919.8,103.1C919.8,102.8 919.6,102.6 919.3,102.6Z" style="fill:rgb(60,109,164);fill-rule:nonzero;"/>
        </g>
        <path d="M895.7,107.8L886.6,107.8C885.4,107.8 884.5,106.8 884.5,105.7C884.5,104.5 885.5,103.6 886.6,103.6L895.7,103.6C896.9,103.6 897.8,104.6 897.8,105.7C897.8,106.9 896.8,107.8 895.7,107.8Z" style="fill:rgb(60,109,164);fill-rule:nonzero;"/>
        <path d="M941.7,84.6L932.6,84.6C931.4,84.6 930.5,83.6 930.5,82.5C930.5,81.3 931.5,80.4 932.6,80.4L941.7,80.4C942.9,80.4 943.8,81.4 943.8,82.5C943.8,83.6 942.8,84.6 941.7,84.6Z" style="fill:rgb(60,109,164);fill-rule:nonzero;"/>
        <g>
            <path d="M174.4,100.7C174.4,102.1 173.2,103.3 171.8,103.3C170.4,103.3 169.2,102.1 169.2,100.7C169.2,99.3 170.4,98.1 171.8,98.1C173.2,98.1 174.4,99.3 174.4,100.7Z" style="fill:rgb(71,162,158);fill-rule:nonzero;"/>
            <path d="M171.8,105.5C169.2,105.5 167.1,103.4 167.1,100.8C167.1,98.2 169.2,96.1 171.8,96.1C174.4,96.1 176.5,98.2 176.5,100.8C176.5,103.4 174.4,105.5 171.8,105.5ZM171.8,100.3C171.5,100.3 171.3,100.5 171.3,100.8C171.3,101.1 171.5,101.3 171.8,101.3C172.1,101.3 172.3,101.1 172.3,100.8C172.3,100.5 172.1,100.3 171.8,100.3Z" style="fill:rgb(71,162,158);fill-rule:nonzero;"/>
        </g>
        <path d="M194.1,82.3L185,82.3C183.8,82.3 182.9,81.3 182.9,80.2C182.9,79 183.9,78.1 185,78.1L194.1,78.1C195.3,78.1 196.2,79.1 196.2,80.2C196.2,81.3 195.3,82.3 194.1,82.3Z" style="fill:rgb(71,162,158);fill-rule:nonzero;"/>
        <path d="M1038.9,192.8L1029.8,192.8C1028.6,192.8 1027.7,191.8 1027.7,190.7C1027.7,189.5 1028.7,188.6 1029.8,188.6L1038.9,188.6C1040.1,188.6 1041,189.6 1041,190.7C1041,191.9 1040.1,192.8 1038.9,192.8Z" style="fill:rgb(153,35,105);fill-rule:nonzero;"/>
        <g>
            <path d="M1012.3,188.4C1012.3,189.8 1011.1,191 1009.7,191C1008.3,191 1007.1,189.8 1007.1,188.4C1007.1,187 1008.3,185.8 1009.7,185.8C1011.1,185.8 1012.3,187 1012.3,188.4Z" style="fill:rgb(153,35,105);fill-rule:nonzero;"/>
            <path d="M1009.7,193.2C1007.1,193.2 1005,191.1 1005,188.5C1005,185.9 1007.1,183.8 1009.7,183.8C1012.3,183.8 1014.4,185.9 1014.4,188.5C1014.4,191.1 1012.3,193.2 1009.7,193.2ZM1009.7,188C1009.4,188 1009.2,188.2 1009.2,188.5C1009.2,188.8 1009.4,189 1009.7,189C1010,189 1010.2,188.8 1010.2,188.5C1010.2,188.2 1010,188 1009.7,188Z" style="fill:rgb(153,35,105);fill-rule:nonzero;"/>
        </g>
        <g>
            <path d="M991.9,193L961.9,193C960.7,193 959.8,192 959.8,190.9C959.8,189.7 960.8,188.8 961.9,188.8L991.9,188.8C993.1,188.8 994,189.8 994,190.9C994,192.1 993.1,193 991.9,193Z" style="fill:rgb(153,35,105);fill-rule:nonzero;"/>
            <path d="M990.7,183.9L972.2,183.9C971,183.9 970.1,182.9 970.1,181.8C970.1,180.6 971.1,179.7 972.2,179.7L990.7,179.7C991.9,179.7 992.8,180.7 992.8,181.8C992.8,182.9 991.9,183.9 990.7,183.9Z" style="fill:rgb(153,35,105);fill-rule:nonzero;"/>
        </g>
        <g>
            <path d="M762.3,496.4C762.3,497.8 761.1,499 759.7,499C758.3,499 757.1,497.8 757.1,496.4C757.1,495 758.3,493.8 759.7,493.8C761.1,493.8 762.3,495 762.3,496.4Z" style="fill:rgb(153,35,105);fill-rule:nonzero;"/>
            <path d="M759.7,501.2C757.1,501.2 755,499.1 755,496.5C755,493.9 757.1,491.8 759.7,491.8C762.3,491.8 764.4,493.9 764.4,496.5C764.4,499.1 762.3,501.2 759.7,501.2ZM759.7,496C759.4,496 759.2,496.2 759.2,496.5C759.2,496.8 759.4,497 759.7,497C760,497 760.2,496.8 760.2,496.5C760.2,496.2 760,496 759.7,496Z" style="fill:rgb(153,35,105);fill-rule:nonzero;"/>
        </g>
        <g>
            <path d="M741.9,501L711.9,501C710.7,501 709.8,500 709.8,498.9C709.8,497.7 710.8,496.8 711.9,496.8L741.9,496.8C743.1,496.8 744,497.8 744,498.9C744,500.1 743.1,501 741.9,501Z" style="fill:rgb(153,35,105);fill-rule:nonzero;"/>
            <path d="M740.7,491.9L722.2,491.9C721,491.9 720.1,490.9 720.1,489.8C720.1,488.7 721.1,487.7 722.2,487.7L740.7,487.7C741.9,487.7 742.8,488.7 742.8,489.8C742.8,490.9 741.9,491.9 740.7,491.9Z" style="fill:rgb(153,35,105);fill-rule:nonzero;"/>
        </g>
        <g>
            <path d="M270.6,456.8C270.6,458.2 269.4,459.4 268,459.4C266.6,459.4 265.4,458.2 265.4,456.8C265.4,455.4 266.6,454.2 268,454.2C269.4,454.2 270.6,455.4 270.6,456.8Z" style="fill:rgb(224,140,61);fill-rule:nonzero;"/>
            <path d="M268,461.5C265.4,461.5 263.3,459.4 263.3,456.8C263.3,454.2 265.4,452.1 268,452.1C270.6,452.1 272.7,454.2 272.7,456.8C272.8,459.4 270.6,461.5 268,461.5ZM268,456.3C267.7,456.3 267.5,456.5 267.5,456.8C267.5,457.1 267.7,457.3 268,457.3C268.3,457.3 268.5,457.1 268.5,456.8C268.5,456.5 268.3,456.3 268,456.3Z" style="fill:rgb(224,140,61);fill-rule:nonzero;"/>
        </g>
        <g>
            <path d="M250.2,461.4L220.2,461.4C219,461.4 218.1,460.4 218.1,459.3C218.1,458.1 219.1,457.2 220.2,457.2L250.2,457.2C251.4,457.2 252.3,458.2 252.3,459.3C252.3,460.4 251.4,461.4 250.2,461.4Z" style="fill:rgb(224,140,61);fill-rule:nonzero;"/>
            <path d="M249,452.2L230.5,452.2C229.3,452.2 228.4,451.2 228.4,450.1C228.4,448.9 229.4,448 230.5,448L249,448C250.2,448 251.1,449 251.1,450.1C251.2,451.3 250.2,452.2 249,452.2Z" style="fill:rgb(224,140,61);fill-rule:nonzero;"/>
        </g>
        <g>
            <circle cx="1012.5" cy="458.3" r="2.6" style="fill:rgb(60,109,164);"/>
            <path d="M1012.5,463.1C1009.9,463.1 1007.8,461 1007.8,458.4C1007.8,455.8 1009.9,453.7 1012.5,453.7C1015.1,453.7 1017.2,455.8 1017.2,458.4C1017.2,460.9 1015.1,463.1 1012.5,463.1ZM1012.5,457.8C1012.2,457.8 1012,458 1012,458.3C1012,458.6 1012.2,458.8 1012.5,458.8C1012.8,458.8 1013,458.6 1013,458.3C1013,458.1 1012.8,457.8 1012.5,457.8Z" style="fill:rgb(60,109,164);fill-rule:nonzero;"/>
        </g>
        <path d="M1041.7,462.7L1032.6,462.7C1031.4,462.7 1030.5,461.7 1030.5,460.6C1030.5,459.4 1031.5,458.5 1032.6,458.5L1041.7,458.5C1042.9,458.5 1043.8,459.5 1043.8,460.6C1043.8,461.7 1042.9,462.7 1041.7,462.7Z" style="fill:rgb(60,109,164);fill-rule:nonzero;"/>
        <path d="M1103,108C1109.4,115.5 1113.3,125.2 1113.3,135.8C1113.3,159.4 1094.2,178.5 1070.6,178.5" style="fill:none;fill-rule:nonzero;stroke:rgb(153,35,105);stroke-width:5.67px;stroke-linecap:round;stroke-linejoin:round;"/>
        <path d="M1079.8,192.7L1065.7,178.6L1079.8,164.5" style="fill:none;fill-rule:nonzero;stroke:rgb(153,35,105);stroke-width:5.67px;stroke-linecap:round;stroke-linejoin:round;"/>
        <path d="M1103,378.9C1109.4,386.4 1113.3,396.1 1113.3,406.7C1113.3,430.3 1094.2,449.4 1070.6,449.4" style="fill:none;fill-rule:nonzero;stroke:rgb(60,109,164);stroke-width:5.67px;stroke-linecap:round;stroke-linejoin:round;"/>
        <path d="M1079.8,463.6L1065.7,449.5L1079.8,435.3" style="fill:none;fill-rule:nonzero;stroke:rgb(60,109,164);stroke-width:5.67px;stroke-linecap:round;stroke-linejoin:round;"/>
        <g>
            <path d="M543,152L543,168C560.6,170.3 574.2,185.3 574.2,203.5C574.2,221.7 560.6,236.8 543,239L543,255C569.4,252.7 590.2,230.5 590.2,203.5C590.2,176.5 569.4,154.3 543,152Z" style="fill:rgb(208,70,53);fill-rule:nonzero;"/>
            <path d="M533.8,239.1C516.2,236.8 502.6,221.8 502.6,203.6C502.6,185.4 516.2,170.3 533.8,168.1L533.8,152.1C507.4,154.4 486.6,176.6 486.6,203.6C486.6,230.6 507.3,252.8 533.8,255.1L533.8,239.1Z" style="fill:rgb(208,70,53);fill-rule:nonzero;"/>
        </g>
        <circle cx="538.4" cy="203.6" r="32.5" style="fill:rgb(208,70,53);"/>
        <g>
            <path d="M523.7,190L525.3,190.9C525.6,190.4 525.9,189.8 526.3,189.3L524.8,188.2C524.4,188.8 524,189.4 523.7,190Z" style="fill:white;fill-rule:nonzero;"/>
            <path d="M521.8,196.1L523.6,196.3C523.7,194.9 524.1,193.5 524.7,192.1L523,191.4C522.4,192.9 522,194.5 521.8,196.1Z" style="fill:white;fill-rule:nonzero;"/>
            <path d="M518.3,212.6L518.3,213.5C518.3,221.6 524.9,228.1 532.9,228.1C533.8,229.2 535.1,229.9 536.5,229.9L540.2,229.9C541.6,229.9 543,229.2 543.8,228.1C551.9,228.1 558.4,221.5 558.4,213.5L558.4,206.2C560.4,206.2 562.1,204.6 562.1,202.5C562.1,200.5 560.5,198.8 558.4,198.8L558.3,198.8L558.1,195.9C557.7,190.9 555.4,186.3 551.7,183C550.7,182.1 549.5,181.2 548.3,180.5C548.1,180.4 548,180.3 547.8,180.2C546.2,179.3 544.4,178.6 542.6,178.2C542,176.3 540.3,175 538.3,175C536.3,175 534.5,176.3 534,178.2C532.2,178.6 530.4,179.3 528.8,180.2C528.6,180.3 528.5,180.4 528.3,180.5C522.7,183.7 519.1,189.5 518.6,195.9L518.4,198.8L518.3,198.8C516.3,198.8 514.6,200.4 514.6,202.5C514.6,204.5 516.2,206.2 518.3,206.2L518.3,212.6ZM553,206.2L553,213.5C553,218.5 548.9,222.6 543.9,222.6L532.9,222.6C527.9,222.6 523.8,218.5 523.8,213.5L523.8,206.2L553,206.2ZM556.7,211.7L554.9,211.7L554.9,209.9L556.7,209.9L556.7,211.7ZM521.9,211.7L520.1,211.7L520.1,209.9L521.9,209.9L521.9,211.7ZM520.1,213.5L521.9,213.5C521.9,219.2 526.3,223.9 532,224.4L532,225.4C532,225.7 532,226 532.1,226.3C525.3,225.9 520.1,220.3 520.1,213.5ZM542.9,225.4C542.9,226.9 541.7,228.1 540.2,228.1L536.5,228.1C535,228.1 533.8,226.9 533.8,225.4L533.8,224.5L542.9,224.5L542.9,225.4ZM544.7,226.3C544.8,226 544.8,225.7 544.8,225.4L544.8,224.4C550.5,223.9 554.9,219.2 554.9,213.5L556.7,213.5C556.7,220.3 551.4,225.9 544.7,226.3ZM556.7,208.1L554.9,208.1L554.9,206.3L556.7,206.3L556.7,208.1ZM535.6,179.7C535.6,178.2 536.8,177 538.3,177C539.8,177 541,178.2 541,179.7L541,189.8C541,191.3 539.8,192.5 538.3,192.5C536.8,192.5 535.6,191.3 535.6,189.8L535.6,179.7ZM520.4,196.2C520.9,190.8 523.8,185.8 528.3,182.8L528.3,193.4L530.1,193.4L530.1,181.7C531.3,181.1 532.5,180.6 533.8,180.3L533.8,189.8C533.8,192.3 535.8,194.4 538.4,194.4C540.9,194.4 543,192.4 543,189.8L543,180.3C544.3,180.6 545.5,181.1 546.7,181.7L546.7,193.4L548.5,193.4L548.5,182.8C549.2,183.3 550,183.9 550.6,184.5C553.9,187.5 556,191.7 556.4,196.2L556.6,198.9L520.2,198.9L520.4,196.2ZM516.4,202.6C516.4,201.6 517.2,200.8 518.2,200.8L558.4,200.8C559.4,200.8 560.2,201.6 560.2,202.6C560.2,203.6 559.4,204.4 558.4,204.4L518.2,204.4C517.2,204.4 516.4,203.6 516.4,202.6ZM521.9,206.2L521.9,208L520.1,208L520.1,206.2L521.9,206.2Z" style="fill:white;fill-rule:nonzero;"/>
        </g>
        <g>
            <path d="M903.4,152L903.4,168C921,170.3 934.6,185.3 934.6,203.5C934.6,221.7 921,236.8 903.4,239L903.4,255C929.8,252.7 950.6,230.5 950.6,203.5C950.6,176.5 929.8,154.3 903.4,152Z" style="fill:rgb(153,35,105);fill-rule:nonzero;"/>
            <path d="M894.2,239.1C876.6,236.8 863,221.8 863,203.6C863,185.4 876.6,170.3 894.2,168.1L894.2,152.1C867.8,154.4 847,176.6 847,203.6C847,230.6 867.7,252.8 894.2,255.1L894.2,239.1Z" style="fill:rgb(153,35,105);fill-rule:nonzero;"/>
        </g>
        <circle cx="898.8" cy="203.6" r="32.5" style="fill:rgb(153,35,105);"/>
        <g>
            <path d="M919,188.4L915.1,188.4L915.1,190L919,190C920.3,190 921.3,191 921.3,192.3L921.3,213.2L876.3,213.2L876.3,192.3C876.3,191 877.3,190 878.6,190L882.5,190L882.5,188.4L878.6,188.4C876.5,188.4 874.7,190.1 874.7,192.3L874.7,217.1C874.7,219.2 876.4,221 878.6,221L888.7,221L888.7,224.1L885.6,224.1L885.6,225.7L912,225.7L912,224.1L908.9,224.1L908.9,221L919,221C921.1,221 922.9,219.3 922.9,217.1L922.9,192.3C922.9,190.1 921.1,188.4 919,188.4ZM907.3,224.1L890.2,224.1L890.2,221L907.3,221L907.3,224.1ZM919,219.4L878.7,219.4C877.4,219.4 876.4,218.4 876.4,217.1L876.4,214.8L921.4,214.8L921.4,217.1C921.3,218.4 920.3,219.4 919,219.4Z" style="fill:white;fill-rule:nonzero;"/>
            <rect x="912" y="216.3" width="1.6" height="1.6" style="fill:white;fill-rule:nonzero;"/>
            <rect x="915.1" y="216.3" width="1.6" height="1.6" style="fill:white;fill-rule:nonzero;"/>
            <rect x="918.2" y="216.3" width="1.6" height="1.6" style="fill:white;fill-rule:nonzero;"/>
            <rect x="908.9" y="210.1" width="10.9" height="1.6" style="fill:white;fill-rule:nonzero;"/>
            <rect x="908.9" y="207" width="10.9" height="1.6" style="fill:white;fill-rule:nonzero;"/>
            <rect x="910.4" y="203.9" width="9.3" height="1.6" style="fill:white;fill-rule:nonzero;"/>
            <rect x="913.5" y="200.8" width="6.2" height="1.6" style="fill:white;fill-rule:nonzero;"/>
            <path d="M884.1,189.3L884.1,191.5L877.9,191.5L877.9,211.7L893.4,211.7L893.4,203.4C894,203.7 894.6,203.9 895.2,204.1L895.9,207L901.8,207L902.5,204.1C903.2,203.9 903.9,203.6 904.6,203.2L907.2,204.7L911.3,200.6L909.8,198C910.2,197.3 910.4,196.6 910.7,195.9L913.6,195.2L913.6,189.3L910.7,188.6C910.5,187.9 910.2,187.2 909.8,186.5L911.3,183.9L907.2,179.8L904.6,181.3C903.9,180.9 903.2,180.7 902.5,180.4L901.8,177.5L895.9,177.5L895.2,180.4C894.5,180.6 893.8,180.9 893.1,181.3L890.5,179.8L886.4,183.9L887.9,186.5C887.5,187.2 887.3,187.9 887,188.6L884.1,189.3ZM879.4,210.1L879.4,193L884.1,193L884.1,195.2L887,195.9C887.2,196.6 887.5,197.3 887.9,198L886.4,200.6L890.5,204.7L891.9,203.9L891.9,210.1L879.4,210.1ZM888.2,189.9L888.3,189.5C888.5,188.6 888.9,187.7 889.4,186.9L889.6,186.5L888.2,184.2L890.6,181.8L892.9,183.2L893.3,183C894.1,182.5 895,182.2 895.9,181.9L896.3,181.8L897,179.2L900.5,179.2L901.2,181.8L901.6,181.9C902.5,182.1 903.4,182.5 904.2,183L904.6,183.2L906.9,181.8L909.3,184.2L907.9,186.5L908.1,186.9C908.6,187.7 908.9,188.6 909.2,189.5L909.3,189.9L911.9,190.6L911.9,194.1L909.3,194.8L909.2,195.2C909,196.1 908.6,197 908.1,197.8L907.9,198.2L909.3,200.5L906.9,202.9L904.6,201.5L904.2,201.7C903.4,202.2 902.5,202.5 901.6,202.8L901.2,202.9L900.5,205.5L897,205.5L896.3,202.9L895.9,202.8C895,202.6 894.1,202.2 893.3,201.7L892.9,201.5L890.6,202.9L888.2,200.5L889.6,198.2L889.4,197.8C888.9,197 888.6,196.1 888.3,195.2L888.2,194.8L885.6,194.1L885.6,190.6L888.2,189.9Z" style="fill:white;fill-rule:nonzero;"/>
            <path d="M898.8,201.6C903.9,201.6 908.1,197.4 908.1,192.3C908.1,187.2 903.9,183 898.8,183C893.7,183 889.5,187.2 889.5,192.3C889.5,197.4 893.7,201.6 898.8,201.6ZM898.8,184.5C903.1,184.5 906.6,188 906.6,192.3C906.6,196.6 903.1,200.1 898.8,200.1C894.5,200.1 891,196.6 891,192.3C891,188 894.5,184.5 898.8,184.5Z" style="fill:white;fill-rule:nonzero;"/>
            <path d="M898.8,198.5C902.2,198.5 905,195.7 905,192.3C905,188.9 902.2,186.1 898.8,186.1C895.4,186.1 892.6,188.9 892.6,192.3C892.6,195.7 895.4,198.5 898.8,198.5ZM898.8,187.6C901.4,187.6 903.5,189.7 903.5,192.3C903.5,194.9 901.4,197 898.8,197C896.2,197 894.1,194.9 894.1,192.3C894.1,189.7 896.2,187.6 898.8,187.6Z" style="fill:white;fill-rule:nonzero;"/>
            <rect x="896.5" y="191.5" width="1.6" height="1.6" style="fill:white;fill-rule:nonzero;"/>
            <rect x="899.6" y="191.5" width="1.6" height="1.6" style="fill:white;fill-rule:nonzero;"/>
            <rect x="881" y="194.6" width="1.6" height="1.6" style="fill:white;fill-rule:nonzero;"/>
            <rect x="881" y="197.7" width="3.1" height="1.6" style="fill:white;fill-rule:nonzero;"/>
            <rect x="881" y="200.8" width="3.1" height="1.6" style="fill:white;fill-rule:nonzero;"/>
            <rect x="881" y="203.9" width="6.2" height="1.6" style="fill:white;fill-rule:nonzero;"/>
            <rect x="881" y="207" width="9.3" height="1.6" style="fill:white;fill-rule:nonzero;"/>
        </g>
        <g>
            <path d="M635.4,16.7L635.4,32.7C653,35 666.6,50 666.6,68.3C666.6,86.5 653,101.6 635.4,103.8L635.4,119.8C661.8,117.5 682.6,95.3 682.6,68.3C682.6,41.3 661.8,19 635.4,16.7Z" style="fill:rgb(83,161,206);fill-rule:nonzero;"/>
            <path d="M626.2,103.8C608.6,101.5 595,86.5 595,68.3C595,50.1 608.6,35 626.2,32.8L626.2,16.8C599.7,19 579,41.2 579,68.3C579,95.4 599.7,117.5 626.2,119.8L626.2,103.8Z" style="fill:rgb(83,161,206);fill-rule:nonzero;"/>
        </g>
        <circle cx="630.8" cy="68.3" r="32.5" style="fill:rgb(83,161,206);"/>
        <g>
            <path d="M651.9,75.1L651.9,69.9C651.9,68.7 650.9,67.7 649.7,67.7L648.2,67.7C647,67.7 646,68.7 646,69.9L646,75L644,75C643.6,74.6 643,74.3 642.4,74.3L640.2,74.3L640.2,71.3C641,71 641.7,70.2 641.7,69.3L641.7,60.6L644.6,60.6L644.6,56.2L641.7,56.2L641.7,53.3C641.7,52.1 640.7,51.1 639.5,51.1L638.8,51.1L638.8,46C638.8,44.8 637.8,43.8 636.6,43.8L630.8,43.8C629.9,43.8 629.1,44.4 628.8,45.3L617.8,45.3C615,45.3 612.7,47.6 612.7,50.4L612.7,70L611.2,70L611.2,74.4L610.5,74.4C609.3,74.4 608.3,75.4 608.3,76.6L608.3,86.8C608.3,88 609.3,89 610.5,89L619.2,89C620.4,89 621.4,88 621.4,86.8L621.4,76.4C621.4,75.2 620.4,74.2 619.2,74.2L618.5,74.2L618.5,69.8L617,69.8L617,50.2C617,49.8 617.3,49.5 617.7,49.5L628.6,49.5L628.6,51L627.9,51C626.7,51 625.7,52 625.7,53.2L625.7,56.1L622.8,56.1L622.8,60.5L625.7,60.5L625.7,69.2C625.7,70.1 626.3,70.9 627.2,71.2L627.2,74.2L625,74.2C623.8,74.2 622.8,75.2 622.8,76.4L622.8,88.8L644.6,88.8L644.6,82.3L651.1,82.3C652.3,82.3 653.3,81.3 653.3,80.1L653.3,77.2C653.3,76.2 652.7,75.4 651.9,75.1ZM641.7,57.5L643.2,57.5L643.2,59L641.7,59L641.7,57.5ZM625.7,59L624.2,59L624.2,57.5L625.7,57.5L625.7,59ZM630,45.9C630,45.5 630.3,45.2 630.7,45.2L636.5,45.2C636.9,45.2 637.2,45.5 637.2,45.9L637.2,46.6L630,46.6L630,45.9ZM612.6,71.3L617,71.3L617,74.2L612.6,74.2L612.6,71.3ZM619.1,75.7C619.5,75.7 619.8,76 619.8,76.4L619.8,86.6C619.8,87 619.5,87.3 619.1,87.3L610.4,87.3C610,87.3 609.7,87 609.7,86.6L609.7,76.4C609.7,76 610,75.7 610.4,75.7L619.1,75.7ZM617.7,48.1C616.5,48.1 615.5,49.1 615.5,50.3L615.5,69.9L614,69.9L614,50.2C614,48.2 615.6,46.6 617.6,46.6L628.5,46.6L628.5,48.1L617.7,48.1ZM627.1,53.2C627.1,52.8 627.4,52.5 627.8,52.5L634.3,52.5L634.3,51L630,51L630,49.5L630,48L637.3,48L637.3,51L635.8,51L635.8,52.5L639.4,52.5C639.8,52.5 640.1,52.8 640.1,53.2L640.1,69.2C640.1,69.6 639.8,69.9 639.4,69.9L627.8,69.9C627.4,69.9 627.1,69.6 627.1,69.2L627.1,53.2ZM638.8,71.3L638.8,74.2L637.3,74.2L637.3,71.3L638.8,71.3ZM635.8,71.3L635.8,74.2L631.4,74.2L631.4,71.3L635.8,71.3ZM630,71.3L630,74.2L628.5,74.2L628.5,71.3L630,71.3ZM643.1,87.3L624.2,87.3L624.2,80L643.1,80L643.1,87.3ZM643.1,78.6L624.2,78.6L624.2,76.4C624.2,76 624.5,75.7 624.9,75.7L642.4,75.7C642.8,75.7 643.1,76 643.1,76.4L643.1,78.6ZM647.5,69.9C647.5,69.5 647.8,69.2 648.2,69.2L649.7,69.2C650.1,69.2 650.4,69.5 650.4,69.9L650.4,70.6L647.5,70.6L647.5,69.9ZM647.5,72.1L650.4,72.1L650.4,75L647.5,75L647.5,72.1ZM651.9,80.1C651.9,80.5 651.6,80.8 651.2,80.8L644.7,80.8L644.7,76.4L651.2,76.4C651.6,76.4 651.9,76.7 651.9,77.1L651.9,80.1Z" style="fill:white;fill-rule:nonzero;"/>
            <path d="M631.5,64.1L635.9,64.1L635.9,61.2L637.4,61.2L637.4,55.4L630,55.4L630,61.2L631.5,61.2L631.5,64.1ZM634.4,62.6L632.9,62.6L632.9,61.1L634.4,61.1L634.4,62.6ZM631.5,56.8L635.9,56.8L635.9,59.7L631.5,59.7L631.5,56.8Z" style="fill:white;fill-rule:nonzero;"/>
            <rect x="626.4" y="81.5" width="1.5" height="1.5" style="fill:white;"/>
            <rect x="626.4" y="84.4" width="1.5" height="1.5" style="fill:white;"/>
            <rect x="630.8" y="81.5" width="1.5" height="1.5" style="fill:white;"/>
            <rect x="630.8" y="84.4" width="1.5" height="1.5" style="fill:white;"/>
            <rect x="635.1" y="81.5" width="1.5" height="1.5" style="fill:white;"/>
            <rect x="635.1" y="84.4" width="1.5" height="1.5" style="fill:white;"/>
            <rect x="639.5" y="81.5" width="1.5" height="1.5" style="fill:white;"/>
            <rect x="639.5" y="84.4" width="1.5" height="1.5" style="fill:white;"/>
            <rect x="616.9" y="77.2" width="1.5" height="5.8" style="fill:white;"/>
            <rect x="616.9" y="84.4" width="1.5" height="1.5" style="fill:white;"/>
        </g>
        <g>
            <path d="M259.5,16.7L259.5,32.7C277.1,35 290.7,50 290.7,68.2C290.7,86.4 277.1,101.5 259.5,103.7L259.5,119.7C285.9,117.4 306.7,95.2 306.7,68.2C306.7,41.2 286,19 259.5,16.7Z" style="fill:rgb(71,162,158);fill-rule:nonzero;"/>
            <path d="M250.3,103.8C232.7,101.5 219.1,86.5 219.1,68.3C219.1,50.1 232.7,35 250.3,32.8L250.3,16.8C223.9,19.1 203.1,41.3 203.1,68.3C203.1,95.3 223.8,117.5 250.3,119.8L250.3,103.8Z" style="fill:rgb(71,162,158);fill-rule:nonzero;"/>
        </g>
        <circle cx="254.9" cy="68.3" r="32.5" style="fill:rgb(71,162,158);"/>
        <g>
            <path d="M270.9,90.1L268.4,82.8C268.3,82.4 267.9,82.1 267.5,82.1L267.4,82.1L267.4,67.9C267.4,61 261.8,55.4 254.9,55.4C248,55.4 242.4,61 242.4,67.9L242.4,82.1L242.3,82.1C241.9,82.1 241.5,82.4 241.4,82.8L238.9,90.1C238.8,90.4 238.8,90.7 239,91C239.2,91.3 239.5,91.4 239.8,91.4L270,91.4C270.3,91.4 270.6,91.2 270.8,91C271,90.7 271,90.4 270.9,90.1ZM244.4,67.9C244.4,62.1 249.1,57.4 254.9,57.4C260.7,57.4 265.4,62.1 265.4,67.9L265.4,82.1L244.4,82.1L244.4,67.9ZM241.2,89.4L243,84.1L266.8,84.1L268.6,89.4L241.2,89.4Z" style="fill:white;fill-rule:nonzero;"/>
            <path d="M254.9,41.1C254.4,41.1 253.9,41.5 253.9,42.1L253.9,48C253.9,48.5 254.3,49 254.9,49C255.4,49 255.9,48.6 255.9,48L255.9,42.1C255.9,41.6 255.5,41.1 254.9,41.1Z" style="fill:white;fill-rule:nonzero;"/>
            <path d="M255.6,51.1C255.4,50.9 255.2,50.8 254.9,50.8C254.6,50.8 254.4,50.9 254.2,51.1C254,51.3 253.9,51.5 253.9,51.8C253.9,52.1 254,52.3 254.2,52.5C254.4,52.7 254.6,52.8 254.9,52.8C255.2,52.8 255.4,52.7 255.6,52.5C255.8,52.3 255.9,52.1 255.9,51.8C255.9,51.6 255.8,51.3 255.6,51.1Z" style="fill:white;fill-rule:nonzero;"/>
            <path d="M239.2,67.4L234.7,67.4C234.2,67.4 233.7,67.8 233.7,68.4C233.7,69 234.1,69.4 234.7,69.4L239.2,69.4C239.7,69.4 240.2,69 240.2,68.4C240.2,67.8 239.7,67.4 239.2,67.4Z" style="fill:white;fill-rule:nonzero;"/>
            <path d="M231.5,67.7C231.3,67.5 231.1,67.4 230.8,67.4C230.5,67.4 230.3,67.5 230.1,67.7C229.9,67.9 229.8,68.1 229.8,68.4C229.8,68.7 229.9,68.9 230.1,69.1C230.3,69.3 230.5,69.4 230.8,69.4C231.1,69.4 231.3,69.3 231.5,69.1C231.7,68.9 231.8,68.7 231.8,68.4C231.8,68.1 231.6,67.9 231.5,67.7Z" style="fill:white;fill-rule:nonzero;"/>
            <path d="M248.3,49.9L247,46.7C246.8,46.2 246.2,46 245.7,46.2C245.2,46.4 245,47 245.2,47.5L246.5,50.7C246.7,51.1 247,51.3 247.4,51.3C247.5,51.3 247.7,51.3 247.8,51.2C248.3,50.9 248.5,50.4 248.3,49.9Z" style="fill:white;fill-rule:nonzero;"/>
            <path d="M237.1,60L233.9,58.7C233.4,58.5 232.8,58.7 232.6,59.2C232.4,59.7 232.6,60.3 233.1,60.5L236.3,61.8C236.4,61.9 236.6,61.9 236.7,61.9C237.1,61.9 237.5,61.7 237.6,61.3C237.9,60.7 237.6,60.2 237.1,60Z" style="fill:white;fill-rule:nonzero;"/>
            <path d="M275.6,67.4L271.1,67.4C270.6,67.4 270.1,67.8 270.1,68.4C270.1,69 270.5,69.4 271.1,69.4L275.6,69.4C276.1,69.4 276.6,69 276.6,68.4C276.6,67.8 276.1,67.4 275.6,67.4Z" style="fill:white;fill-rule:nonzero;"/>
            <path d="M279.8,67.7C279.6,67.5 279.4,67.4 279.1,67.4C278.8,67.4 278.6,67.5 278.4,67.7C278.2,67.9 278.1,68.1 278.1,68.4C278.1,68.7 278.2,68.9 278.4,69.1C278.6,69.3 278.8,69.4 279.1,69.4C279.4,69.4 279.6,69.3 279.8,69.1C280,68.9 280.1,68.7 280.1,68.4C280.1,68.1 280,67.9 279.8,67.7Z" style="fill:white;fill-rule:nonzero;"/>
            <path d="M274.3,49C273.9,48.6 273.3,48.6 272.9,49L268.1,53.8C267.7,54.2 267.7,54.8 268.1,55.2C268.3,55.4 268.5,55.5 268.8,55.5C269.1,55.5 269.3,55.4 269.5,55.2L274.3,50.4C274.7,50 274.7,49.3 274.3,49Z" style="fill:white;fill-rule:nonzero;"/>
            <path d="M241.7,53.8L236.9,49C236.5,48.6 235.9,48.6 235.5,49C235.1,49.4 235.1,50 235.5,50.4L240.3,55.2C240.5,55.4 240.7,55.5 241,55.5C241.3,55.5 241.5,55.4 241.7,55.2C242.1,54.8 242.1,54.2 241.7,53.8Z" style="fill:white;fill-rule:nonzero;"/>
            <path d="M264.1,46.1C263.6,45.9 263,46.1 262.8,46.6L261.5,49.8C261.3,50.3 261.5,50.9 262,51.1C262.1,51.2 262.3,51.2 262.4,51.2C262.8,51.2 263.2,51 263.3,50.6L264.6,47.4C264.9,46.9 264.6,46.3 264.1,46.1Z" style="fill:white;fill-rule:nonzero;"/>
            <path d="M277.2,59.2C277,58.7 276.4,58.5 275.9,58.7L272.7,60C272.2,60.2 272,60.8 272.2,61.3C272.4,61.7 272.7,61.9 273.1,61.9C273.2,61.9 273.4,61.9 273.5,61.8L276.7,60.5C277.2,60.2 277.4,59.7 277.2,59.2Z" style="fill:white;fill-rule:nonzero;"/>
            <path d="M254.9,61.6C253.3,61.6 252,62.9 252,64.5L252,69.2C252,70.8 253.3,72.1 254.9,72.1C256.5,72.1 257.8,70.8 257.8,69.2L257.8,64.5C257.9,63 256.5,61.6 254.9,61.6ZM255.9,69.3C255.9,69.8 255.5,70.3 254.9,70.3C254.4,70.3 253.9,69.9 253.9,69.3L253.9,64.6C253.9,64.1 254.3,63.6 254.9,63.6C255.4,63.6 255.9,64 255.9,64.6L255.9,69.3Z" style="fill:white;fill-rule:nonzero;"/>
            <path d="M254.9,74.2C253.3,74.2 252,75.5 252,77.1C252,78.7 253.3,80 254.9,80C256.5,80 257.8,78.7 257.8,77.1C257.9,75.5 256.5,74.2 254.9,74.2ZM254.9,78.1C254.4,78.1 253.9,77.7 253.9,77.1C253.9,76.5 254.3,76.1 254.9,76.1C255.4,76.1 255.9,76.5 255.9,77.1C255.9,77.7 255.5,78.1 254.9,78.1Z" style="fill:white;fill-rule:nonzero;"/>
        </g>
        <g>
            <path d="M904.8,522.1L904.8,506.1C887.2,503.8 873.6,488.8 873.6,470.6C873.6,452.4 887.2,437.3 904.8,435.1L904.8,419.1C878.4,421.4 857.6,443.6 857.6,470.6C857.6,497.6 878.4,519.7 904.8,522.1Z" style="fill:rgb(60,109,164);fill-rule:nonzero;"/>
            <path d="M914,435C931.6,437.3 945.2,452.3 945.2,470.5C945.2,488.7 931.6,503.8 914,506L914,522C940.4,519.7 961.2,497.5 961.2,470.5C961.2,443.5 940.5,421.3 914,419L914,435Z" style="fill:rgb(60,109,164);fill-rule:nonzero;"/>
        </g>
        <circle cx="909.4" cy="470.5" r="32.5" style="fill:rgb(60,109,164);"/>
        <path d="M936.2,471.4L935.2,471.4C934.7,460.4 927.1,450.9 916.3,448.3C916.2,446.8 914.9,445.6 913.4,445.6L905.3,445.6C903.8,445.6 902.5,446.8 902.4,448.3C891.6,450.9 883.9,460.4 883.5,471.4L882.5,471.4C882,471.4 881.5,471.8 881.5,472.4L881.5,476.9C881.5,477.4 881.9,477.9 882.5,477.9L885.5,477.9L885.5,482.9C885.5,486.5 888.4,489.4 892,489.4L903.3,489.4C903.8,489.4 904.3,489 904.3,488.4C904.3,483.3 906.6,479 909.4,479C912.1,479 914.4,483.3 914.5,488.4C914.5,488.9 914.9,489.4 915.5,489.4L926.8,489.4C930.4,489.4 933.3,486.5 933.3,482.9L933.3,477.9L936.3,477.9C936.8,477.9 937.3,477.5 937.3,476.9L937.3,472.4C937.2,471.9 936.8,471.4 936.2,471.4L936.2,471.4ZM905.4,447.5L913.5,447.5C914,447.5 914.5,448 914.5,448.5C914.5,449 914.1,449.5 913.5,449.5L905.4,449.5C904.9,449.5 904.4,449.1 904.4,448.5C904.4,447.9 904.8,447.6 905.4,447.5C905.3,447.5 905.4,447.5 905.4,447.5ZM903,450.1C903.5,450.9 904.4,451.4 905.4,451.4L913.5,451.4C914.5,451.4 915.4,450.9 915.9,450.1C925.8,452.6 932.8,461.2 933.3,471.4L933.2,471.4C932.7,468.2 930,465.8 926.8,465.8L892.2,465.8C889,465.8 886.2,468.2 885.8,471.4L885.7,471.4C885.9,461.2 893,452.5 903,450.1ZM883.5,475.9L883.5,473.3L885.6,473.3L885.6,475.9L883.5,475.9ZM898.1,483.7L903.3,471.7L903.7,471.7L898.5,483.7L898.1,483.7ZM891.3,482.7L891.3,472.6C891.3,472.1 891.7,471.6 892.3,471.6L896.9,471.6L891.8,483.5C891.5,483.3 891.3,483 891.3,482.7ZM899,471.6L901.2,471.6L896,483.6L893.8,483.6L899,471.6ZM905.8,471.6L906.9,471.6L901.7,483.6L900.6,483.6L905.8,471.6ZM909.4,477.2C908.1,477.2 906.9,477.8 905.9,478.7L908.9,471.7L926.4,471.7C926.9,471.7 927.4,472.1 927.4,472.7L927.4,482.8C927.4,483.3 927,483.8 926.4,483.8L915.6,483.8C914.6,479.8 912.2,477.2 909.4,477.2ZM931.3,482.9C931.3,485.4 929.2,487.5 926.7,487.5L916.4,487.5C916.4,486.9 916.3,486.2 916.2,485.6L926.5,485.6C928.1,485.6 929.4,484.3 929.4,482.7L929.4,472.6C929.4,471 928.1,469.7 926.5,469.7L892.4,469.7C890.8,469.7 889.5,471 889.5,472.6L889.5,482.7C889.5,484.3 890.8,485.6 892.4,485.6L902.7,485.6C902.6,486.2 902.5,486.9 902.5,487.5L892.2,487.5C889.7,487.5 887.6,485.4 887.6,482.9L887.6,472.4C887.6,469.9 889.7,467.8 892.2,467.8L926.8,467.8C929.3,467.8 931.4,469.9 931.4,472.4L931.4,482.9L931.3,482.9ZM935.3,475.9L933.2,475.9L933.2,473.3L935.3,473.3L935.3,475.9Z" style="fill:white;fill-rule:nonzero;"/>
        <g>
            <path d="M658.4,419L658.4,435C676,437.3 689.6,452.3 689.6,470.5C689.6,488.7 676,503.8 658.4,506L658.4,522C684.8,519.7 705.6,497.5 705.6,470.5C705.6,443.5 684.9,421.3 658.4,419Z" style="fill:rgb(153,35,105);fill-rule:nonzero;"/>
            <path d="M649.2,506.1C631.6,503.8 618,488.8 618,470.6C618,452.4 631.6,437.3 649.2,435.1L649.2,419.1C622.8,421.4 602,443.6 602,470.6C602,497.6 622.7,519.8 649.2,522.1L649.2,506.1Z" style="fill:rgb(153,35,105);fill-rule:nonzero;"/>
        </g>
        <circle cx="653.8" cy="470.5" r="32.5" style="fill:rgb(153,35,105);"/>
        <path d="M673.5,449.8C673.5,448.7 672.6,447.8 671.5,447.8L670,447.8C669.6,447.8 669.3,448.1 669.3,448.5C669.3,448.9 669.6,449.2 670,449.2L671.5,449.2C671.9,449.2 672.2,449.5 672.2,449.9C672.2,450.3 671.9,450.6 671.5,450.6L664.5,450.6L664.5,449.3L667.1,449.3C667.5,449.3 667.8,449 667.8,448.6C667.8,448.2 667.5,447.9 667.1,447.9L655.9,447.9C655.5,447.9 655.2,448.2 655.2,448.6L655.2,449.3L650.8,449.3C647.5,449.3 644.9,452 644.9,455.2L644.9,473.6C644.9,474.7 644,475.5 643,475.5L641.9,475.5C641.9,475.2 641.6,475 641.4,474.9L633.4,473.5C633,473.4 632.7,473.7 632.6,474C632.5,474.4 632.8,474.7 633.1,474.8L640.6,476.2L640.6,478.9L629.5,480.9L629.5,474L630.3,474.1C630.7,474.2 631,473.9 631.1,473.6C631.2,473.2 630.9,472.9 630.6,472.8L629,472.5C628.6,472.4 628.2,472.7 628.2,473.2L628.2,481.5C628.2,481.9 628.5,482.2 628.9,482.2L629,482.2L641.4,480C641.7,479.9 641.9,479.7 641.9,479.4L643,479.4C646.3,479.4 648.9,476.7 648.9,473.5L648.9,455.1C648.9,454 649.8,453.2 650.8,453.2L655.2,453.2L655.2,453.9C655.2,454.3 655.5,454.6 655.9,454.6L656.1,454.6L656.1,454.7C656.1,455.8 656.6,456.9 657.4,457.6C653.6,458.7 650.9,462.2 650.9,466.3L650.9,492.7C650.9,493.1 651.2,493.4 651.6,493.4L668.4,493.4C668.8,493.4 669.1,493.1 669.1,492.7L669.1,487.7C669.1,487.3 668.8,487 668.4,487C668,487 667.7,487.3 667.7,487.7L667.7,489.4L652.2,489.4L652.2,480.3L667.7,480.3L667.7,484.8C667.7,485.2 668,485.5 668.4,485.5C668.8,485.5 669.1,485.2 669.1,484.8L669.1,466.3C669.1,462.2 666.3,458.7 662.6,457.6C663.4,456.9 663.9,455.9 663.9,454.7L668.7,459.5C669.5,460.3 670.7,460.3 671.5,459.5C672.3,458.7 672.3,457.5 671.5,456.7L666.8,452L671.7,452C672.6,451.8 673.5,450.9 673.5,449.8ZM650.8,451.8C649,451.8 647.5,453.3 647.5,455.1L647.5,473.5C647.5,476 645.4,478.1 642.9,478.1L641.8,478.1L641.8,476.8L642.9,476.8C644.7,476.8 646.2,475.3 646.2,473.5L646.2,455.1C646.2,452.6 648.3,450.5 650.8,450.5L655.2,450.5L655.2,451.8L650.8,451.8ZM656.5,449.2L663.1,449.2L663.1,452.7C662.4,451.5 661.2,450.8 659.8,450.8C658.4,450.8 657.1,451.6 656.5,452.7L656.5,449.2ZM667.6,490.6L667.6,491.9L652.1,491.9L652.1,490.6L667.6,490.6ZM652.1,478.8L652.1,473L667.6,473L667.6,478.8L652.1,478.8ZM667.6,466.1L667.6,471.7L652.1,471.7L652.1,466.1C652.1,461.8 655.6,458.3 659.9,458.3C664.2,458.3 667.6,461.9 667.6,466.1ZM657.4,454.6C657.4,454.4 657.4,454.2 657.5,454C657.8,452.9 658.8,452.1 659.9,452.1C661,452.1 662.1,452.9 662.3,454C662.3,454.2 662.4,454.4 662.4,454.6C662.4,456 661.3,457.1 659.9,457.1C658.5,457.1 657.4,455.9 657.4,454.6ZM670.3,457.5C670.6,457.8 670.6,458.2 670.3,458.4C670,458.7 669.6,458.7 669.4,458.4L664.5,453.5L664.5,451.8L664.7,451.8L670.3,457.5Z" style="fill:white;fill-rule:nonzero;"/>
        <g>
            <path d="M1009.2,286.5L1009.2,302.5C1026.8,304.8 1040.4,319.8 1040.4,338C1040.4,356.2 1026.8,371.3 1009.2,373.5L1009.2,389.5C1035.6,387.2 1056.4,365 1056.4,338C1056.3,311 1035.6,288.9 1009.2,286.5Z" style="fill:rgb(83,161,206);fill-rule:nonzero;"/>
            <path d="M1000,373.6C982.4,371.3 968.8,356.3 968.8,338.1C968.8,319.9 982.4,304.8 1000,302.6L1000,286.6C973.6,288.9 952.8,311.1 952.8,338.1C952.8,365.1 973.5,387.3 1000,389.6L1000,373.6Z" style="fill:rgb(83,161,206);fill-rule:nonzero;"/>
        </g>
        <circle cx="1004.6" cy="338.1" r="32.5" style="fill:rgb(83,161,206);"/>
        <g>
            <path d="M1022.4,345.5L1022.4,339.7L1027.6,339.7C1028.3,339.7 1028.8,339.2 1028.8,338.5L1028.8,336.5C1028.8,335.8 1028.3,335.3 1027.6,335.3L1022.4,335.3L1022.4,334.9C1022.4,334.3 1022.1,333.8 1021.6,333.5L1019.4,332.1C1018.1,331.2 1017.3,329.8 1017.3,328.2L1017.3,321.1C1017.3,320.2 1016.6,319.4 1015.6,319.4L1011,319.4C1010.1,319.4 1009.3,319.8 1008.7,320.5L1005.7,324.2L1005.6,324.3L1003.7,324.3L1003.6,324.2L1000.6,320.5C1000,319.8 999.2,319.4 998.3,319.4L993.6,319.4C992.7,319.4 991.9,320.1 991.9,321.1L991.9,323.4C991.9,323.8 992.2,324.1 992.6,324.1C993,324.1 993.3,323.8 993.3,323.4L993.3,321.1C993.3,321 993.4,320.9 993.5,320.9L998.2,320.9C998.7,320.9 999.1,321.1 999.4,321.5L1002.4,325.2C1002.4,325.3 1002.5,325.3 1002.5,325.3L1002.5,329.4C1002.5,330.3 1003.1,331 1003.9,331.3L1003.9,355.4L1002.9,355.4C1002.5,355.4 1002.2,355.7 1002.2,356.1C1002.2,356.5 1002.5,356.8 1002.9,356.8L1019.8,356.8C1021.2,356.8 1022.4,355.7 1022.4,354.2L1027.6,354.2C1028.3,354.2 1028.8,353.7 1028.8,353L1028.8,351C1028.8,350.3 1028.3,349.8 1027.6,349.8L1022.4,349.8L1022.4,346.9L1027.6,346.9C1028.3,346.9 1028.8,346.4 1028.8,345.7L1028.8,343.7C1028.8,343 1028.3,342.5 1027.6,342.5L1025.5,342.5C1025.1,342.5 1024.8,342.8 1024.8,343.2C1024.8,343.6 1025.1,343.9 1025.5,343.9L1027.4,343.9L1027.4,345.4L1022.4,345.5ZM1027.3,336.7L1027.3,338.2L1022.3,338.2L1022.3,336.7L1027.3,336.7ZM1004.6,329.9C1004.2,329.9 1004,329.6 1004,329.3L1004,325.8L1005.3,325.8L1005.3,329.3C1005.3,329.6 1005,329.9 1004.6,329.9ZM1021,354.1C1021,354.8 1020.5,355.3 1019.8,355.3L1005.3,355.3L1005.3,331.2C1006.1,330.9 1006.7,330.2 1006.7,329.3L1006.7,325.4L1006.7,325.2L1006.8,325.1L1009.8,321.4C1010.1,321 1010.5,320.8 1011,320.8L1015.6,320.8C1015.7,320.8 1015.8,320.9 1015.8,321L1015.8,328.1C1015.8,330.2 1016.8,332.1 1018.6,333.2L1020.8,334.6C1020.9,334.6 1020.9,334.7 1020.9,334.8L1020.9,354.1L1021,354.1ZM1027.3,351.2L1027.3,352.7L1022.3,352.7L1022.3,351.2L1027.3,351.2Z" style="fill:white;fill-rule:nonzero;"/>
            <path d="M999.5,355.3L989.4,355.3C988.7,355.3 988.2,354.8 988.2,354.1L988.2,334.9C988.2,334.8 988.2,334.7 988.3,334.7L990.5,333.3C992.2,332.2 993.3,330.2 993.3,328.2L993.3,326.8C993.3,326.4 993,326.1 992.6,326.1C992.2,326.1 991.9,326.4 991.9,326.8L991.9,328.2C991.9,329.8 991.1,331.3 989.8,332.1L987.6,333.5C987.1,333.8 986.8,334.3 986.8,334.9L986.8,335.3L981.6,335.3C980.9,335.3 980.4,335.8 980.4,336.5L980.4,338.5C980.4,339.2 980.9,339.7 981.6,339.7L986.8,339.7L986.8,342.6L981.6,342.6C980.9,342.6 980.4,343.1 980.4,343.8L980.4,345.8C980.4,346.5 980.9,347 981.6,347L986.8,347L986.8,349.9L981.6,349.9C980.9,349.9 980.4,350.4 980.4,351.1L980.4,353.1C980.4,353.8 980.9,354.3 981.6,354.3L986.8,354.3C986.8,355.7 988,356.9 989.4,356.9L999.5,356.9C999.9,356.9 1000.2,356.6 1000.2,356.2C1000.2,355.6 999.9,355.3 999.5,355.3ZM981.8,338.3L981.8,336.8L986.8,336.8L986.8,338.3L981.8,338.3ZM981.8,345.5L981.8,344L986.8,344L986.8,345.5L981.8,345.5ZM981.8,351.2L986.8,351.2L986.8,352.7L981.8,352.7L981.8,351.2Z" style="fill:white;fill-rule:nonzero;"/>
            <path d="M999.7,337.4L991.7,337.4C991,337.4 990.5,337.9 990.5,338.6L990.5,342C990.5,342.7 991,343.2 991.7,343.2L999.7,343.2C1000.4,343.2 1000.9,342.7 1000.9,342L1000.9,338.6C1000.9,337.9 1000.4,337.4 999.7,337.4ZM999.5,341.7L992,341.7L992,338.8L999.5,338.8L999.5,341.7Z" style="fill:white;fill-rule:nonzero;"/>
            <path d="M999.7,346.4L991.7,346.4C991,346.4 990.5,346.9 990.5,347.6L990.5,351C990.5,351.7 991,352.2 991.7,352.2L999.7,352.2C1000.4,352.2 1000.9,351.7 1000.9,351L1000.9,347.6C1000.9,347 1000.4,346.4 999.7,346.4ZM999.5,350.8L992,350.8L992,347.9L999.5,347.9L999.5,350.8Z" style="fill:white;fill-rule:nonzero;"/>
            <path d="M1017.4,337.4L1009.5,337.4C1008.8,337.4 1008.3,337.9 1008.3,338.6L1008.3,342C1008.3,342.7 1008.8,343.2 1009.5,343.2L1017.4,343.2C1018.1,343.2 1018.6,342.7 1018.6,342L1018.6,338.6C1018.6,337.9 1018,337.4 1017.4,337.4ZM1017.2,341.7L1009.8,341.7L1009.8,338.8L1017.2,338.8L1017.2,341.7Z" style="fill:white;fill-rule:nonzero;"/>
            <path d="M1017.4,346.4L1009.5,346.4C1008.8,346.4 1008.3,346.9 1008.3,347.6L1008.3,351C1008.3,351.7 1008.8,352.2 1009.5,352.2L1017.4,352.2C1018.1,352.2 1018.6,351.7 1018.6,351L1018.6,347.6C1018.6,347 1018,346.4 1017.4,346.4ZM1017.2,350.8L1009.8,350.8L1009.8,347.9L1017.2,347.9L1017.2,350.8Z" style="fill:white;fill-rule:nonzero;"/>
            <path d="M1011,334.5C1012.5,334.5 1013.7,333.3 1013.7,331.8L1013.7,330.7C1013.7,330.3 1013.4,330 1013,330C1012.6,330 1012.3,330.3 1012.3,330.7L1012.3,331.8C1012.3,332.5 1011.7,333.1 1011,333.1C1010.3,333.1 1009.7,332.5 1009.7,331.8L1009.7,330.7C1009.7,330.3 1009.4,330 1009,330C1008.6,330 1008.3,330.3 1008.3,330.7L1008.3,331.8C1008.3,333.2 1009.5,334.5 1011,334.5Z" style="fill:white;fill-rule:nonzero;"/>
        </g>
        <g>
            <path d="M1009.7,16.7L1009.7,32.7C1027.3,35 1040.9,50 1040.9,68.2C1040.9,86.4 1027.3,101.5 1009.7,103.7L1009.7,119.7C1036.1,117.4 1056.9,95.2 1056.9,68.2C1056.9,41.2 1036.1,19 1009.7,16.7Z" style="fill:rgb(60,109,164);fill-rule:nonzero;"/>
            <path d="M1000.5,103.8C982.9,101.5 969.3,86.5 969.3,68.3C969.3,50.1 982.9,35 1000.5,32.8L1000.5,16.8C974,19 953.3,41.2 953.3,68.3C953.3,95.4 974,117.5 1000.5,119.8L1000.5,103.8Z" style="fill:rgb(60,109,164);fill-rule:nonzero;"/>
        </g>
        <circle cx="1005.1" cy="68.3" r="32.5" style="fill:rgb(60,109,164);"/>
        <g>
            <path d="M1018.7,47.5L1018.7,45.9C1018.7,45.5 1018.3,45.1 1017.9,45.1L1014.7,45.1C1014.3,45.1 1013.9,45.5 1013.9,45.9L1013.9,47.5L996.2,47.5L996.2,45.9C996.2,45.5 995.8,45.1 995.4,45.1L992.2,45.1C991.8,45.1 991.4,45.5 991.4,45.9L991.4,47.5C985.6,47.5 981,52.2 981,57.9C981,63.6 985.7,68.3 991.4,68.3L998.6,68.3C1000.7,68.3 1002.8,66.6 1004.3,63.6C1004.5,63.2 1005,63.1 1005.4,63.3C1005.5,63.4 1005.6,63.5 1005.7,63.6C1007.2,66.6 1009.3,68.3 1011.4,68.3L1018.6,68.3C1024.4,68.3 1029,63.6 1029,57.9C1029,52.2 1024.5,47.5 1018.7,47.5ZM1015.5,46.7L1017.1,46.7L1017.1,47.5L1015.5,47.5L1015.5,46.7ZM993,46.7L994.6,46.7L994.6,47.5L993,47.5L993,46.7ZM1018.7,66.7L1011.5,66.7C1010,66.7 1008.4,65.3 1007.2,62.8C1006.6,61.6 1005.2,61.1 1004,61.7C1003.5,61.9 1003.2,62.3 1002.9,62.8C1001.7,65.2 1000.1,66.7 998.6,66.7L991.4,66.7C986.5,66.7 982.6,62.7 982.6,57.9C982.6,53.1 986.6,49.1 991.4,49.1L1018.7,49.1C1023.6,49.1 1027.5,53.1 1027.5,57.9C1027.5,62.7 1023.6,66.7 1018.7,66.7Z" style="fill:white;fill-rule:nonzero;"/>
            <path d="M1018.7,49.9L991.4,49.9C987,49.9 983.4,53.5 983.4,57.9C983.4,62.3 987,65.9 991.4,65.9L998.6,65.9C999.7,65.9 1001.1,64.6 1002.2,62.5C1003,60.9 1004.9,60.3 1006.5,61.1C1007.1,61.4 1007.6,61.9 1007.9,62.5C1008.9,64.6 1010.3,65.9 1011.5,65.9L1018.7,65.9C1023.1,65.9 1026.7,62.3 1026.7,57.9C1026.7,53.5 1023.2,49.9 1018.7,49.9ZM1018.7,64.3L1011.5,64.3C1011.3,64.3 1010.3,63.6 1009.4,61.8C1008.2,59.4 1005.3,58.5 1002.9,59.7C1002,60.2 1001.2,60.9 1000.8,61.8C999.9,63.6 998.9,64.3 998.7,64.3L991.5,64.3C988,64.3 985.1,61.4 985.1,57.9C985.1,54.4 988,51.5 991.5,51.5L1018.8,51.5C1022.3,51.5 1025.2,54.4 1025.2,57.9C1025.1,61.5 1022.3,64.3 1018.7,64.3Z" style="fill:white;fill-rule:nonzero;"/>
            <path d="M1005.1,80.4C1002.9,80.4 1001.1,82.2 1001.1,84.4C1001.1,86.6 1002.9,88.4 1005.1,88.4C1007.3,88.4 1009.1,86.6 1009.1,84.4C1009.1,82.2 1007.3,80.4 1005.1,80.4ZM1005.1,86.8C1003.8,86.8 1002.7,85.7 1002.7,84.4C1002.7,83.1 1003.8,82 1005.1,82C1006.4,82 1007.5,83.1 1007.5,84.4C1007.5,85.7 1006.4,86.8 1005.1,86.8Z" style="fill:white;fill-rule:nonzero;"/>
            <path d="M1016.7,87.8C1017.5,86.5 1017.9,85.1 1017.9,83.6C1017.9,81.7 1016.7,79.4 1014.5,76.8L1016.3,75C1016.6,74.7 1016.6,74.2 1016.3,73.9L1014,71.6C1013.7,71.3 1013.2,71.3 1012.9,71.6L1011.1,73.4C1010.3,72.6 1009.5,71.6 1008.7,70.7C1008,69.7 1007.2,68.9 1006.2,68.1C1005.5,67.7 1004.5,67.7 1003.8,68.1C1002.9,68.8 1002,69.7 1001.3,70.7C1000.6,71.6 999.8,72.5 998.9,73.4L997.1,71.7C996.8,71.4 996.3,71.4 996,71.7L993.7,74C993.4,74.3 993.4,74.8 993.7,75.1L995.5,76.9C993.2,79.5 992.1,81.8 992.1,83.7C992.1,85.2 992.5,86.7 993.3,87.9L991.3,89.9C991,90.2 991,90.7 991.3,91L993.6,93.3C993.9,93.6 994.4,93.6 994.7,93.3L996.8,91.2C1001.9,94 1008,94 1013.1,91.2L1015.2,93.3C1015.5,93.6 1016,93.6 1016.3,93.3L1018.6,91C1018.9,90.7 1018.9,90.2 1018.6,89.9L1016.7,87.8ZM1013.4,73.3L1014.5,74.4L1013.3,75.6C1013.2,75.5 1013.1,75.4 1013,75.3C1012.9,75.2 1012.8,75.1 1012.8,75L1012.2,74.4L1013.4,73.3ZM995.6,74.4L996.7,73.3L997.9,74.5C997.8,74.6 997.7,74.7 997.7,74.7C997.6,74.8 997.5,74.9 997.3,75.1C997.2,75.2 997.2,75.2 997.1,75.3C997,75.4 996.9,75.5 996.8,75.6L995.6,74.4ZM994.3,91.5L993.2,90.4L994.4,89.2L994.9,89.7C995.1,89.9 995.3,90.1 995.5,90.2L994.3,91.5ZM1012.9,89.5C1010.6,91 1007.8,91.7 1005.1,91.7C1002.3,91.7 999.6,91 997.3,89.5C996.5,89 995.7,88.3 995.1,87.5C994.3,86.4 993.8,85 993.8,83.7C993.8,82.1 995,79.9 997.3,77.4C997.6,77.1 999.4,75.3 999.5,75.2C1000.6,74.1 1001.6,73 1002.6,71.8C1003.2,71 1003.9,70.3 1004.6,69.6C1004.7,69.5 1004.9,69.5 1005,69.5C1005.1,69.5 1005.3,69.5 1005.4,69.6C1006.2,70.3 1006.8,71 1007.4,71.8C1008.3,73 1009.4,74.1 1010.5,75.2C1011.4,76 1012.1,76.7 1012.7,77.4C1015,79.9 1016.2,82.1 1016.2,83.7C1016.2,85.1 1015.8,86.4 1014.9,87.6C1014.8,87.8 1014.6,88 1014.5,88.1C1014.1,88.6 1013.5,89 1012.9,89.5ZM1015.8,91.5L1014.5,90.2C1014.7,90 1014.9,89.8 1015.1,89.7C1015.2,89.6 1015.2,89.6 1015.3,89.5C1015.4,89.4 1015.6,89.2 1015.7,89.1L1016.9,90.3L1015.8,91.5Z" style="fill:white;fill-rule:nonzero;"/>
        </g>
        <g>
            <path d="M181.2,152L181.2,168C198.8,170.3 212.4,185.3 212.4,203.5C212.4,221.7 198.8,236.8 181.2,239L181.2,255C207.6,252.7 228.4,230.5 228.4,203.5C228.4,176.5 207.6,154.3 181.2,152Z" style="fill:rgb(224,140,61);fill-rule:nonzero;"/>
            <path d="M172,239.1C154.4,236.8 140.8,221.8 140.8,203.6C140.8,185.4 154.4,170.3 172,168.1L172,152.1C145.6,154.4 124.8,176.6 124.8,203.6C124.8,230.6 145.5,252.8 172,255.1L172,239.1Z" style="fill:rgb(224,140,61);fill-rule:nonzero;"/>
        </g>
        <circle cx="176.6" cy="203.6" r="32.5" style="fill:rgb(224,140,61);"/>
        <g>
            <path d="M190.9,181.3C189.3,179.5 187,178.4 184.6,178.4C182.3,178.4 180.2,179.3 178.6,181C177,182.6 176.2,184.9 176.3,187.1L176.3,188C176.3,188.9 176.4,189.7 176.4,190.5C176.3,195.6 176,207.8 174.6,211.7C174,213.3 172.7,214.4 171.2,214.9L164.4,216.7C162,217.4 160.3,219.5 160.3,222L160.3,223.5C160.3,225.3 161.7,226.7 163.5,226.7L174.6,226.7C176,226.7 177.4,226.4 178.7,225.9L182.4,224.6L182.4,225.8C182.4,226.3 182.8,226.6 183.2,226.6L189.1,226.6C189.6,226.6 189.9,226.2 189.9,225.8L189.9,217L189.9,216.9C189.4,213.1 189.5,209.3 190,205.6L192.6,187.9C193.2,185.5 192.5,183.1 190.9,181.3ZM185.8,180.2L185.8,189.9C185.8,190.6 185.2,191.2 184.5,191.2C183.8,191.2 183.2,190.6 183.2,189.9L183.2,180.3C183.6,180.2 184.1,180.2 184.5,180.2C185,180.1 185.4,180.1 185.8,180.2ZM184.1,225.1L184.1,223.6C184.1,223.3 184,223.1 183.7,222.9C183.5,222.7 183.2,222.7 182.9,222.8L178.1,224.5C177,224.9 175.8,225.2 174.7,225.2L163.6,225.2C162.9,225.2 162.4,224.8 162.2,224.2L174.8,224.2C176,224.2 177.3,223.9 178.6,223.3C182.7,221.4 186.9,221.5 188.5,221.7L188.5,225.2L184.1,225.1ZM191.1,187.7L188.5,205.4C187.9,209.3 187.9,213.2 188.4,217.1L188.4,219.8C186.5,219.6 182.2,219.5 177.8,221.6C176.8,222.1 175.7,222.3 174.8,222.3L162,222.3L162,222C162,220.3 163.2,218.8 164.8,218.3L171.6,216.5C173.7,215.9 175.4,214.3 176.2,212.3C177.6,208.3 178,197 178.1,190.5C178.1,189.6 178.1,188.7 178,187.9L178,187C177.9,185.2 178.6,183.4 179.8,182.1C180.3,181.6 180.9,181.1 181.6,180.8L181.6,189.8C181.6,191.4 182.9,192.8 184.6,192.8C186.2,192.8 187.6,191.5 187.6,189.8L187.6,180.7C188.4,181.1 189.1,181.6 189.7,182.3C190.8,183.8 191.4,185.8 191.1,187.7Z" style="fill:white;fill-rule:nonzero;"/>
            <path d="M184.5,193.7C182.4,193.7 180.7,195.4 180.7,197.5C180.7,199.6 182.4,201.3 184.5,201.3C186.6,201.3 188.3,199.6 188.3,197.5C188.3,195.4 186.6,193.7 184.5,193.7ZM184.5,199.6C183.3,199.6 182.4,198.6 182.4,197.5C182.4,196.4 183.4,195.4 184.5,195.4C185.6,195.4 186.6,196.4 186.6,197.5C186.6,198.6 185.7,199.6 184.5,199.6Z" style="fill:white;fill-rule:nonzero;"/>
        </g>
        <g>
            <path d="M151.7,419L151.7,435C169.3,437.3 182.9,452.3 182.9,470.5C182.9,488.7 169.3,503.8 151.7,506L151.7,522C178.1,519.7 198.9,497.5 198.9,470.5C198.8,443.5 178.1,421.3 151.7,419Z" style="fill:rgb(224,140,61);fill-rule:nonzero;"/>
            <path d="M142.5,506.1C124.9,503.8 111.3,488.8 111.3,470.6C111.3,452.4 124.9,437.3 142.5,435.1L142.5,419.1C116.1,421.4 95.3,443.6 95.3,470.6C95.3,497.6 116,519.8 142.5,522.1L142.5,506.1Z" style="fill:rgb(224,140,61);fill-rule:nonzero;"/>
        </g>
        <circle cx="147.1" cy="470.5" r="32.5" style="fill:rgb(224,140,61);"/>
        <path d="M168.5,461.3C168.1,461.2 167.7,461.2 167.3,461.3L167.9,459C168.4,457.2 166.7,455.4 164.9,455.8C165.1,454.3 163.8,452.9 162.2,453C160.8,453.1 160.1,454.1 159.8,455.4C158.4,454.1 156.1,454.8 155.6,456.6L151.7,470.5C151.7,470.6 151.5,470.6 151.5,470.5L150.1,466.1C149.8,465.1 148.9,464.4 147.9,464.3L148.1,463.8C148.7,462.5 148.1,461 146.8,460.4C145.5,459.8 144,460.4 143.4,461.7L141.5,465.9C141.5,466 141.3,466 141.3,465.9L139.1,451.6C138.8,449.8 136.6,448.8 135.1,449.9C134.9,448.6 134.4,447.5 133,447.3C131.5,447 130,448.2 130,449.8C128.2,449.2 126.4,450.7 126.6,452.6L127,455C125.2,454.4 123.4,455.9 123.7,457.8L125.8,471.7C126.1,473.8 126.8,475.7 127.8,477.6L127.4,486.4C127.4,487.4 128.3,488.2 129.2,488L144.6,485.6C145.6,485.4 146.2,484.4 145.8,483.4L142.6,475.5L145.5,469.1L149,479.8L144.9,487.3C144.4,488.2 144.9,489.3 145.9,489.6L160.9,493.8C161.8,494.1 162.8,493.4 162.9,492.4L163.6,483.7C164.8,482 165.7,480.1 166.3,478.1L167,475.6C167.2,474.8 165.9,474.4 165.7,475.2L165,477.7C164.5,479.6 163.6,481.4 162.4,483C162.3,483.1 162.3,483.2 162.3,483.3L161.9,488.7L147.9,484.8L150.4,480.2C150.5,480 150.5,479.8 150.5,479.7L146.5,467.3C146,465.9 148.3,465.1 148.7,466.6L150.1,471C150.5,472.4 152.5,472.3 152.9,471L156.8,457.1C157.2,455.7 159.5,456.2 159.1,457.7L155.8,469.7C155.6,470.5 156.9,470.9 157.1,470.1L160.4,458.1L161.1,455.4C161.5,454 163.8,454.5 163.4,456L159.3,470.6C159.1,471.5 160.4,471.8 160.6,471L164.2,458.1C164.6,456.6 166.9,457.3 166.5,458.7L165.3,463.2L163,471.6C162.8,472.4 164.1,472.8 164.3,472L166.6,463.6C167,462.1 169.3,462.8 168.9,464.2L167,471.2C166.8,472 168.1,472.4 168.3,471.6L170.2,464.6C170.6,463.1 169.8,461.7 168.5,461.3ZM161.9,490.1L161.7,492.3C161.7,492.4 161.5,492.5 161.4,492.5L146.4,488.3C146.3,488.3 146.2,488.1 146.3,488L147.3,486.1L161.9,490.1ZM141.5,475.7L143.5,480.6L141.3,480.9C140.4,481 140.6,482.4 141.5,482.2L144,481.8L144.8,483.8C144.9,483.9 144.8,484.1 144.6,484.1L129.2,486.5C129.1,486.5 128.9,486.4 128.9,486.3L129,484.1L137.2,482.8C138.1,482.7 137.9,481.3 137,481.5L129,482.7L129.2,477.3C129.2,477.2 129.2,477 129.1,476.9C128.1,475.2 127.5,473.3 127.2,471.3L125.1,457.4C124.9,455.9 127.2,455.5 127.4,457L128.7,465.6C128.8,466.4 130.2,466.3 130,465.4L128.7,456.8L128,452.2C127.8,450.7 130.1,450.3 130.3,451.8L132.3,465C132.4,465.8 133.8,465.7 133.6,464.8L131.3,449.8C131.1,448.3 133.4,447.9 133.6,449.4L135.9,464.4C136,465.3 137.4,465.1 137.2,464.2L135.3,451.9C135.1,450.4 137.4,450 137.6,451.5L139.8,465.8C140,467.2 142,467.5 142.6,466.2L144.5,462C145.1,460.6 147.3,461.6 146.6,463C146.4,463.4 146,464 146,464.5C145.3,465 144.8,465.9 144.9,466.8L141.2,474.9C141.4,475.3 141.4,475.5 141.5,475.7Z" style="fill:white;fill-rule:nonzero;"/>
        <g>
            <path d="M262.6,286.5L262.6,302.5C280.2,304.8 293.8,319.8 293.8,338C293.8,356.2 280.2,371.3 262.6,373.5L262.6,389.5C289,387.2 309.8,365 309.8,338C309.7,311 289,288.9 262.6,286.5Z" style="fill:rgb(172,186,64);fill-rule:nonzero;"/>
            <path d="M253.4,373.6C235.8,371.3 222.2,356.3 222.2,338.1C222.2,319.9 235.8,304.8 253.4,302.6L253.4,286.6C227,288.9 206.2,311.1 206.2,338.1C206.2,365.1 226.9,387.3 253.4,389.6L253.4,373.6Z" style="fill:rgb(172,186,64);fill-rule:nonzero;"/>
        </g>
        <circle cx="258" cy="338.1" r="32.5" style="fill:rgb(172,186,64);"/>
        <g>
            <path d="M277,332.8C275.4,332.8 274.1,334.1 274.1,335.7C274.1,337 274.9,338 276,338.4L276,346.3C276,350.3 272.7,353.6 268.7,353.6L267.8,353.6L267.8,351.3C267.8,350.5 267.4,349.7 266.7,349.3C266,348.8 265.2,348.8 264.4,349.1C264.3,349.1 264.3,349.2 264.2,349.2L264.2,346.5C269.5,343.8 273.1,338.4 273.1,332.1C273.1,323.2 265.9,315.9 256.9,315.9C247.9,315.9 240.7,323.1 240.7,332.1C240.7,338.4 244.3,343.9 249.6,346.5L249.6,349.2C249.5,349.2 249.5,349.1 249.4,349.1C248.6,348.8 247.8,348.9 247.1,349.3C246.4,349.8 246,350.5 246,351.3L246,360.3C246,361.8 247.2,363 248.7,363L265,363C266.5,363 267.7,361.8 267.7,360.3L267.7,355.5L268.6,355.5C273.7,355.5 277.8,351.4 277.8,346.3L277.8,338.4C278.9,338 279.7,336.9 279.7,335.7C279.9,334.1 278.6,332.8 277,332.8ZM242.8,332C242.8,324.2 249.2,317.8 257,317.8C264.8,317.8 271.2,324.2 271.2,332C271.2,337.2 268.4,341.7 264.3,344.2C263.7,344.6 263,344.9 262.3,345.2C260.7,345.9 258.9,346.2 257,346.2C255.1,346.2 253.3,345.8 251.7,345.2C251,344.9 250.4,344.6 249.7,344.2C245.5,341.7 242.8,337.2 242.8,332ZM262.3,347.3L262.3,349.9C260.6,350.4 258.8,350.6 257,350.6C255.2,350.6 253.4,350.4 251.7,349.9L251.7,347.3C253.4,347.9 255.1,348.2 257,348.2C258.8,348.2 260.6,347.9 262.3,347.3ZM265.9,354.6L265.9,360.4C265.9,360.8 265.6,361.2 265.1,361.2L248.8,361.2C248.4,361.2 248,360.9 248,360.4L248,351.4C248,351.2 248.2,351 248.2,351C248.3,351 248.4,350.9 248.5,350.9L248.7,350.9C249,351 249.3,351.2 249.7,351.3C250.3,351.5 251,351.7 251.7,351.9C253.4,352.3 255.2,352.6 257,352.6C258.8,352.6 260.6,352.4 262.3,351.9C263,351.7 263.6,351.5 264.3,351.3C264.6,351.2 265,351.1 265.3,350.9C265.5,350.8 265.7,350.9 265.8,350.9C265.9,350.9 266,351.1 266,351.3L266,354.6L265.9,354.6ZM277,336.7C276.5,336.7 276,336.3 276,335.7C276,335.1 276.4,334.7 277,334.7C277.6,334.7 278,335.1 278,335.7C278,336.3 277.5,336.7 277,336.7Z" style="fill:white;fill-rule:nonzero;"/>
            <path d="M248.6,314.9C249.1,314.7 249.3,314.1 249,313.6C248.8,313.1 248.2,312.9 247.7,313.2C244.2,314.9 241.3,317.5 239.2,320.8C237.1,324.2 235.9,328 235.9,332C235.9,332.5 236.3,333 236.9,333C237.5,333 237.9,332.6 237.9,332C238,324.7 242.1,318.1 248.6,314.9Z" style="fill:white;fill-rule:nonzero;"/>
            <path d="M260,322.5C264.3,324 267.1,328 267.1,332.5C267.1,333 267.5,333.5 268.1,333.5C268.6,333.5 269.1,333.1 269.1,332.5C269.1,327.2 265.7,322.4 260.7,320.7C260.2,320.5 259.6,320.8 259.5,321.3C259.2,321.7 259.5,322.3 260,322.5Z" style="fill:white;fill-rule:nonzero;"/>
            <path d="M257,336.5C259.5,336.5 261.5,334.5 261.5,332C261.5,329.5 259.5,327.5 257,327.5C254.5,327.5 252.5,329.5 252.5,332C252.4,334.5 254.5,336.5 257,336.5ZM257,329.4C258.4,329.4 259.6,330.6 259.6,332C259.6,333.4 258.4,334.6 257,334.6C255.6,334.6 254.4,333.4 254.4,332C254.4,330.6 255.5,329.4 257,329.4Z" style="fill:white;fill-rule:nonzero;"/>
            <path d="M251.5,358.9C251.5,358.8 251.4,358.8 251.4,358.7C251.4,358.6 251.3,358.6 251.3,358.6C251.1,358.4 250.7,358.3 250.4,358.3C250.3,358.3 250.3,358.3 250.2,358.4C250.1,358.4 250.1,358.5 250,358.5C249.9,358.5 249.9,358.6 249.9,358.6L249.8,358.7C249.8,358.8 249.7,358.8 249.7,358.9C249.7,359 249.7,359 249.6,359.1L249.6,359.5C249.6,359.6 249.6,359.6 249.7,359.7C249.7,359.8 249.8,359.8 249.8,359.9C249.8,360 249.9,360 249.9,360L250,360.1C250.1,360.1 250.1,360.2 250.2,360.2C250.3,360.2 250.3,360.2 250.4,360.3L250.6,360.3C250.9,360.3 251.1,360.2 251.3,360L251.4,359.9C251.4,359.8 251.5,359.8 251.5,359.7C251.5,359.6 251.5,359.6 251.6,359.5L251.6,359.3L251.6,359.1C251.6,359 251.5,359 251.5,358.9Z" style="fill:white;fill-rule:nonzero;"/>
            <path d="M264.2,358.9C264.2,358.8 264.1,358.8 264.1,358.7C264.1,358.6 264,358.6 264,358.6L263.9,358.5C263.8,358.5 263.8,358.4 263.7,358.4C263.6,358.4 263.6,358.4 263.5,358.3L263.1,358.3C263,358.3 263,358.3 262.9,358.4C262.8,358.4 262.8,358.5 262.7,358.5C262.6,358.5 262.6,358.6 262.6,358.6L262.5,358.7C262.5,358.8 262.4,358.8 262.4,358.9C262.4,359 262.4,359 262.3,359.1L262.3,359.5C262.3,359.6 262.3,359.6 262.4,359.7C262.4,359.8 262.5,359.8 262.5,359.9C262.5,360 262.6,360 262.6,360L262.7,360.1C262.8,360.1 262.8,360.2 262.9,360.2C263,360.2 263,360.2 263.1,360.3L263.5,360.3C263.6,360.3 263.6,360.3 263.7,360.2C263.8,360.2 263.8,360.1 263.9,360.1C264,360.1 264,360 264,360L264.1,359.9C264.1,359.8 264.2,359.8 264.2,359.7C264.2,359.6 264.2,359.6 264.3,359.5L264.3,359.3L264.3,359.1C264.2,359 264.2,359 264.2,358.9Z" style="fill:white;fill-rule:nonzero;"/>
            <path d="M255.5,355.6L258.3,355.6C258.8,355.6 259.2,355.2 259.3,354.7L259.3,354.6C259.3,354.1 258.9,353.6 258.3,353.6L255.5,353.6C255,353.6 254.5,354 254.5,354.6L254.5,354.7C254.6,355.2 255,355.6 255.5,355.6Z" style="fill:white;fill-rule:nonzero;"/>
            <path d="M259.5,357L254.3,357C253.8,357 253.3,357.4 253.3,358C253.3,358.5 253.7,359 254.3,359L259.5,359C260,359 260.5,358.6 260.5,358C260.5,357.4 260.1,357 259.5,357Z" style="fill:white;fill-rule:nonzero;"/>
            <path d="M256,321.7C256.1,321.7 256.1,321.8 256.2,321.8C256.3,321.8 256.3,321.8 256.4,321.9L256.8,321.9C256.9,321.9 256.9,321.9 257,321.8C257.1,321.8 257.1,321.7 257.2,321.7C257.3,321.7 257.3,321.6 257.3,321.6C257.5,321.4 257.6,321.2 257.6,320.9L257.6,320.7C257.6,320.6 257.6,320.6 257.5,320.5C257.5,320.4 257.4,320.4 257.4,320.3C257.4,320.2 257.3,320.2 257.3,320.2L257.2,320.1C257.1,320.1 257.1,320 257,320C256.9,320 256.9,320 256.8,319.9L256.4,319.9C256.3,319.9 256.3,319.9 256.2,320C256.1,320 256.1,320.1 256,320.1C255.9,320.1 255.9,320.2 255.9,320.2L255.8,320.3C255.8,320.4 255.7,320.4 255.7,320.5C255.7,320.6 255.7,320.6 255.6,320.7L255.6,320.9C255.6,321.2 255.7,321.4 255.9,321.6C255.9,321.6 255.9,321.7 256,321.7Z" style="fill:white;fill-rule:nonzero;"/>
        </g>
        <g>
            <path d="M635.9,286.5L635.9,302.5C653.5,304.8 667.1,319.8 667.1,338C667.1,356.2 653.5,371.3 635.9,373.5L635.9,389.5C662.3,387.2 683.1,365 683.1,338C683.1,311 662.3,288.9 635.9,286.5Z" style="fill:rgb(71,162,158);fill-rule:nonzero;"/>
            <path d="M626.7,373.6C609.1,371.3 595.5,356.3 595.5,338.1C595.5,319.9 609.1,304.8 626.7,302.6L626.7,286.6C600.3,288.9 579.5,311.1 579.5,338.1C579.5,365.1 600.2,387.3 626.7,389.6L626.7,373.6Z" style="fill:rgb(71,162,158);fill-rule:nonzero;"/>
        </g>
        <circle cx="631.3" cy="338.1" r="32.5" style="fill:rgb(71,162,158);"/>
        <g>
            <path d="M642.1,309.8C641.9,309.6 641.6,309.5 641.3,309.5C641,309.5 640.7,309.6 640.5,309.8C640.3,310 640.2,310.3 640.2,310.6C640.2,310.9 640.3,311.2 640.5,311.4C640.7,311.6 641,311.7 641.3,311.7C641.6,311.7 641.9,311.6 642.1,311.4C642.3,311.2 642.4,310.9 642.4,310.6C642.4,310.3 642.3,310 642.1,309.8Z" style="fill:white;fill-rule:nonzero;"/>
            <path d="M636.8,309.5L624.8,309.5C624.2,309.5 623.7,310 623.7,310.6C623.7,311.2 624.2,311.7 624.8,311.7L626.6,311.7L626.6,315.1C626.6,315.7 627.1,316.2 627.7,316.2L634.8,316.2C635.4,316.2 635.9,315.7 635.9,315.1L635.9,311.7L636.7,311.7C637.3,311.7 637.8,311.2 637.8,310.6C637.9,310 637.4,309.5 636.8,309.5ZM633.8,313.9L628.9,313.9L628.9,311.7L633.8,311.7L633.8,313.9Z" style="fill:white;fill-rule:nonzero;"/>
            <path d="M620.3,356.7C620.1,356.1 619.4,355.9 618.8,356.1C618.2,356.3 618,357 618.2,357.6C618.4,358 618.8,358.3 619.2,358.3C619.3,358.3 619.5,358.3 619.6,358.2C620.2,357.9 620.5,357.3 620.3,356.7Z" style="fill:white;fill-rule:nonzero;"/>
            <path d="M639.3,335.9C638.8,336.1 638.6,336.6 638.7,337.1C639.1,338.9 639,340.7 638.5,342.4C638.5,342.2 638.4,341.9 638.4,341.6C637.9,338.5 636,334.1 629.9,331C629.5,330.8 629,330.9 628.7,331.2C628.4,331.5 628.2,332 628.4,332.4C630.3,337.9 628.4,339.6 627.1,340.7C626.1,341.6 625.4,342.6 624.9,343.5C624.1,341.6 622.6,339.6 620.1,338.4C619.8,338.2 619.3,338.3 619,338.5C618.7,338.7 618.5,339.1 618.5,339.4C618.5,344.1 618.1,345.6 617.8,347C617.5,348.2 617.2,349.3 617.2,351.9L617.2,352.6C617.2,353.2 617.8,353.7 618.4,353.7C619,353.7 619.5,353.1 619.5,352.5L619.5,351.9C619.5,349.6 619.7,348.6 620,347.5C620.3,346.2 620.7,344.8 620.8,341.4C623.4,343.6 623.8,347.2 623.9,348.1L623.9,348.4C624,349 624.5,349.4 625.1,349.4C625.7,349.4 626.2,348.9 626.2,348.3L626.2,347.9C626.2,347.1 626.4,344.4 628.8,342.3C630.6,340.7 632.2,338.5 631.4,334.3C634.2,336.3 635.9,338.8 636.4,341.8C636.9,344.7 636.2,347 636.2,347C636,347.5 636.2,348 636.7,348.3C637.2,348.6 637.7,348.5 638.1,348.1C638.2,347.9 641,345 641.4,340.5C643.5,344 644.6,347.8 644.6,351.8C644.6,356.4 642.1,360.4 638.4,362.6C638.8,361.7 639.1,360.7 639.1,359.6C639.1,358.7 638.9,357.8 638.6,356.9C638.4,356.5 638.2,356.1 638,355.8C637.8,355.4 637.6,355.1 637.4,354.7C636.2,352.7 635,350.8 635.5,348.9C635.6,348.5 635.5,348.1 635.1,347.8C634.8,347.5 634.3,347.5 634,347.6C632.3,348.3 630.9,349.8 630.1,351.3C629,350.4 627.9,350.2 627.8,350.2C627.4,350.2 627,350.3 626.8,350.6C626.6,350.9 626.5,351.3 626.7,351.7C626.7,351.8 627.5,353.7 626.5,355.9C626.4,356.1 626.2,356.4 626.1,356.6L626.1,356.7C625.7,357.6 625.5,358.6 625.5,359.6C625.5,360.7 625.7,361.7 626.2,362.6C625,361.9 624,361.1 623.1,360.1C622.7,359.6 622,359.6 621.5,360C621,360.4 621,361.1 621.4,361.6C624.2,364.7 628.2,366.5 632.4,366.5C640.5,366.5 647.1,359.9 647.1,351.8C647.1,346 645.1,340.5 641.3,336C640.3,335.8 639.7,335.6 639.3,335.9ZM631.8,364.4C629.2,364.4 627.1,362.3 627.1,359.7C627.1,359 627.2,358.3 627.5,357.7C627.6,357.5 627.7,357.4 627.8,357.2C627.8,357.2 627.8,357.1 627.9,357.1C628.5,355.9 628.7,354.7 628.7,353.7C628.9,353.9 629,354.2 629.1,354.6C629.3,355.2 629.9,355.5 630.5,355.3C631.1,355.1 631.4,354.5 631.2,353.9C631.1,353.4 631.6,352 632.6,350.9C632.9,352.8 633.9,354.5 634.9,356C635.1,356.3 635.3,356.7 635.5,357.1L635.5,357.2C635.7,357.5 635.8,357.7 635.9,358C636.1,358.6 636.3,359.2 636.3,359.8C636.4,362.3 634.4,364.4 631.8,364.4Z" style="fill:white;fill-rule:nonzero;"/>
            <path d="M617,334.1C616.6,333.7 615.9,333.7 615.4,334.1L614.1,335.4C613.7,335.8 613.7,336.5 614.1,337C614.3,337.2 614.6,337.3 614.9,337.3C615.2,337.3 615.5,337.2 615.7,337L617,335.7C617.5,335.3 617.5,334.5 617,334.1Z" style="fill:white;fill-rule:nonzero;"/>
            <path d="M610.3,336.8C610.5,337 610.8,337.1 611.1,337.1C611.4,337.1 611.7,337 611.9,336.8C612.3,336.4 612.3,335.7 611.9,335.2L610.8,334.1C610.4,333.7 609.7,333.7 609.2,334.1C608.8,334.5 608.8,335.2 609.2,335.7L610.3,336.8Z" style="fill:white;fill-rule:nonzero;"/>
            <path d="M610.3,339.3L609.1,340.5C608.7,340.9 608.7,341.6 609.1,342.1C609.3,342.3 609.6,342.4 609.9,342.4C610.2,342.4 610.5,342.3 610.7,342.1L611.9,340.9C612.3,340.5 612.3,339.8 611.9,339.3C611.4,338.8 610.7,338.8 610.3,339.3Z" style="fill:white;fill-rule:nonzero;"/>
            <path d="M647.2,334.1C646.8,333.7 646.1,333.7 645.6,334.1C645.2,334.5 645.2,335.2 645.6,335.7L646.9,337C647.1,337.2 647.4,337.3 647.7,337.3C648,337.3 648.3,337.2 648.5,337C648.9,336.6 648.9,335.9 648.5,335.4L647.2,334.1Z" style="fill:white;fill-rule:nonzero;"/>
            <path d="M651.6,337.1C651.9,337.1 652.2,337 652.4,336.8L653.5,335.7C653.9,335.3 653.9,334.6 653.5,334.1C653.1,333.7 652.4,333.7 651.9,334.1L650.8,335.2C650.4,335.6 650.4,336.3 650.8,336.8C651,337 651.3,337.1 651.6,337.1Z" style="fill:white;fill-rule:nonzero;"/>
            <path d="M652.3,339.3C651.9,338.9 651.2,338.9 650.7,339.3C650.3,339.7 650.3,340.4 650.7,340.9L651.9,342.1C652.1,342.3 652.4,342.4 652.7,342.4C653,342.4 653.3,342.3 653.5,342.1C653.9,341.7 653.9,341 653.5,340.5L652.3,339.3Z" style="fill:white;fill-rule:nonzero;"/>
            <path d="M623.8,324C623.3,323.6 622.6,323.7 622.2,324.2L621.9,324.6C621.5,325.1 621.6,325.8 622.1,326.2C622.3,326.3 622.5,326.4 622.8,326.4C623.1,326.4 623.5,326.2 623.7,325.9L624,325.4C624.4,325 624.3,324.3 623.8,324Z" style="fill:white;fill-rule:nonzero;"/>
            <path d="M626.1,320.8C625.6,320.4 624.9,320.5 624.5,321L624.2,321.5C623.8,322 623.9,322.7 624.4,323.1C624.6,323.2 624.8,323.3 625.1,323.3C625.4,323.3 625.8,323.1 626,322.8L626.3,322.3C626.7,321.9 626.6,321.2 626.1,320.8Z" style="fill:white;fill-rule:nonzero;"/>
            <path d="M626.8,319.9C627,320 627.2,320.1 627.5,320.1C627.8,320.1 628.2,319.9 628.4,319.6L628.7,319.2C629.1,318.7 629,318 628.5,317.6C628,317.2 627.3,317.3 626.9,317.8L626.6,318.3C626.2,318.9 626.3,319.6 626.8,319.9Z" style="fill:white;fill-rule:nonzero;"/>
            <path d="M621.5,327.1C621,326.7 620.3,326.8 619.9,327.3L619.6,327.8C619.2,328.3 619.3,329 619.8,329.4C620,329.5 620.2,329.6 620.5,329.6C620.8,329.6 621.2,329.4 621.4,329.1L621.7,328.6C622.1,328.2 622,327.5 621.5,327.1Z" style="fill:white;fill-rule:nonzero;"/>
            <path d="M635.8,317.9C635.4,317.4 634.7,317.3 634.2,317.7C633.7,318.1 633.6,318.8 634,319.3L634.3,319.8C634.5,320.1 634.9,320.3 635.2,320.3C635.4,320.3 635.7,320.2 635.9,320.1C636.4,319.7 636.5,319 636.1,318.5L635.8,317.9Z" style="fill:white;fill-rule:nonzero;"/>
            <path d="M641.2,329.2C641.4,329.5 641.8,329.7 642.1,329.7C642.3,329.7 642.6,329.6 642.8,329.5C643.3,329.1 643.4,328.4 643,327.9L642.7,327.4C642.3,326.9 641.6,326.8 641.1,327.2C640.6,327.6 640.5,328.3 640.9,328.8L641.2,329.2Z" style="fill:white;fill-rule:nonzero;"/>
            <path d="M638.1,321.1C637.7,320.6 637,320.5 636.5,320.9C636,321.3 635.9,322 636.3,322.5L636.6,323C636.8,323.3 637.2,323.5 637.5,323.5C637.7,323.5 638,323.4 638.2,323.3C638.7,322.9 638.8,322.2 638.4,321.7L638.1,321.1Z" style="fill:white;fill-rule:nonzero;"/>
            <path d="M640.4,324.2C640,323.7 639.3,323.6 638.8,324C638.3,324.4 638.2,325.1 638.6,325.6L638.9,326.1C639.1,326.4 639.5,326.6 639.8,326.6C640,326.6 640.3,326.5 640.5,326.4C641,326 641.1,325.3 640.7,324.8L640.4,324.2Z" style="fill:white;fill-rule:nonzero;"/>
            <path d="M630.2,327.4C630.2,328 630.7,328.5 631.3,328.5C631.9,328.5 632.4,328 632.4,327.4L632.4,326.8C632.4,326.2 631.9,325.7 631.3,325.7C630.7,325.7 630.2,326.2 630.2,326.8L630.2,327.4Z" style="fill:white;fill-rule:nonzero;"/>
            <path d="M631.3,320.7C631.9,320.7 632.4,320.2 632.4,319.6L632.4,319C632.4,318.4 631.9,317.9 631.3,317.9C630.7,317.9 630.2,318.4 630.2,319L630.2,319.6C630.2,320.2 630.7,320.7 631.3,320.7Z" style="fill:white;fill-rule:nonzero;"/>
            <path d="M630.2,323.5C630.2,324.1 630.7,324.6 631.3,324.6C631.9,324.6 632.4,324.1 632.4,323.5L632.4,322.9C632.4,322.3 631.9,321.8 631.3,321.8C630.7,321.8 630.2,322.3 630.2,322.9L630.2,323.5Z" style="fill:white;fill-rule:nonzero;"/>
        </g>
        <g>
            <path d="M396.6,522.1L396.6,506.1C379,503.8 365.4,488.8 365.4,470.6C365.4,452.4 379,437.3 396.6,435.1L396.6,419.1C370.2,421.4 349.4,443.6 349.4,470.6C349.4,497.6 370.2,519.7 396.6,522.1Z" style="fill:rgb(208,70,53);fill-rule:nonzero;"/>
            <path d="M405.8,435C423.4,437.3 437,452.3 437,470.5C437,488.7 423.4,503.8 405.8,506L405.8,522C432.2,519.7 453,497.5 453,470.5C453,443.5 432.3,421.3 405.8,419L405.8,435Z" style="fill:rgb(208,70,53);fill-rule:nonzero;"/>
        </g>
        <circle cx="401.2" cy="470.5" r="32.5" style="fill:rgb(208,70,53);"/>
        <path d="M421.9,473.9L421.9,470.8C421.9,470 421.2,469.3 420.4,469.3L420.4,464.9C420.4,454.3 411.8,445.7 401.2,445.7C390.6,445.7 382,454.3 382,464.9L382,469.3C381.2,469.3 380.5,470 380.5,470.8L380.5,473.9C379.6,474.2 379,475 379,476L379,484.9C379,486.1 380,487.1 381.2,487.1L383.4,487.1C383.4,488.3 384.4,489.3 385.6,489.3L390,489.3C391.2,489.3 392.2,488.3 392.2,487.1L392.2,473.8C392.2,472.6 391.2,471.6 390,471.6L385.6,471.6C385.3,471.6 385.1,471.6 384.9,471.7L384.9,470.8C384.9,470 384.2,469.3 383.4,469.3L383.4,465.6L384.2,465.6C385,465.6 385.7,465 385.7,464.2C386.1,455.6 393.3,449 401.9,449.4C409.9,449.8 416.4,456.2 416.7,464.2C416.7,465 417.4,465.6 418.2,465.6L419,465.6L419,469.3C418.2,469.3 417.5,470 417.5,470.8L417.5,471.7C417.3,471.6 417,471.6 416.8,471.6L412.4,471.6C411.2,471.6 410.2,472.6 410.2,473.8L410.2,487.1C410.2,488.3 411.2,489.3 412.4,489.3L416.8,489.3C418,489.3 419,488.3 419,487.1L421.2,487.1C422.4,487.1 423.4,486.1 423.4,484.9L423.4,476C423.4,475.1 422.8,474.3 421.9,473.9ZM384.9,473.8C384.9,473.4 385.2,473.1 385.6,473.1L390,473.1C390.4,473.1 390.7,473.4 390.7,473.8L390.7,487.1C390.7,487.5 390.4,487.8 390,487.8L385.6,487.8C385.2,487.8 384.9,487.5 384.9,487.1L384.9,473.8ZM383.5,485.6L381.3,485.6C380.9,485.6 380.6,485.3 380.6,484.9L380.6,476C380.6,475.6 380.9,475.3 381.3,475.3L383.5,475.3L383.5,485.6ZM383.5,473.8L382,473.8L382,470.8L383.5,470.8L383.5,473.8ZM418.2,464.2C417.8,455.1 410.3,447.9 401.2,447.9C392.1,447.9 384.6,455.1 384.2,464.2L383.5,464.2C383.9,454.4 392.3,446.8 402,447.3C411.2,447.7 418.5,455.1 418.9,464.2L418.2,464.2ZM417.5,487.1C417.5,487.5 417.2,487.8 416.8,487.8L412.4,487.8C412,487.8 411.7,487.5 411.7,487.1L411.7,473.8C411.7,473.4 412,473.1 412.4,473.1L416.8,473.1C417.2,473.1 417.5,473.4 417.5,473.8L417.5,487.1ZM419,470.9L420.5,470.9L420.5,473.9L419,473.9L419,470.9ZM421.9,484.9C421.9,485.3 421.6,485.6 421.2,485.6L419,485.6L419,475.2L421.2,475.2C421.6,475.2 421.9,475.5 421.9,475.9L421.9,484.9Z" style="fill:white;fill-rule:nonzero;"/>
    </g>
    <g id="btn01" class="x-area" data-content="m2/m2_12a" cursor="pointer" fill-opacity="0" fill-color="#000000" transform="matrix(1.69231,0,0,1.69231,-176.469,-47.2846)">
        <circle cx="254.9" cy="68.3" r="32.5" style="fill:black;"/>
    </g>
    <g id="btn02" class="x-area" data-content="m2/m2_12b" cursor="pointer" fill-opacity="0" fill-color="#000000" transform="matrix(1.69231,0,0,1.69231,-436.708,-47.2846)">
        <circle cx="630.8" cy="68.3" r="32.5" style="fill:black;"/>
    </g>
    <g id="btn03" class="x-area" data-content="m2/m2_12c" cursor="pointer" fill-opacity="0" fill-color="#000000" transform="matrix(1.69231,0,0,1.69231,-695.838,-47.2846)">
        <circle cx="1005.1" cy="68.3" r="32.5" style="fill:black;"/>
    </g>
    <g id="btn04" class="x-area" data-content="m2/m2_12d" cursor="pointer" fill-opacity="0" fill-color="#000000" transform="matrix(1.69231,0,0,1.69231,-622.246,-140.954)">
        <circle cx="898.8" cy="203.6" r="32.5" style="fill:black;"/>
    </g>
    <g id="btn05" class="x-area" data-content="m2/m2_12e" cursor="pointer" fill-opacity="0" fill-color="#000000" transform="matrix(1.69231,0,0,1.69231,-372.738,-140.954)">
        <circle cx="538.4" cy="203.6" r="32.5" style="fill:black;"/>
    </g>
    <g id="btn06" class="x-area" data-content="m2/m2_12f" cursor="pointer" fill-opacity="0" fill-color="#000000" transform="matrix(1.69231,0,0,1.69231,-122.262,-140.954)">
        <circle cx="176.6" cy="203.6" r="32.5" style="fill:black;"/>
    </g>
    <g id="btn07" class="x-area" data-content="m2/m2_12g" cursor="pointer" fill-opacity="0" fill-color="#000000" transform="matrix(1.69231,0,0,1.69231,-178.615,-234.069)">
        <circle cx="258" cy="338.1" r="32.5" style="fill:black;"/>
    </g>
    <g id="btn08" class="x-area" data-content="m2/m2_12h" cursor="pointer" fill-opacity="0" fill-color="#000000" transform="matrix(1.69231,0,0,1.69231,-437.054,-234.069)">
        <circle cx="631.3" cy="338.1" r="32.5" style="fill:black;"/>
    </g>
    <g id="btn09" class="x-area" data-content="m2/m2_12i" cursor="pointer" fill-opacity="0" fill-color="#000000" transform="matrix(1.69231,0,0,1.69231,-695.492,-234.069)">
        <circle cx="1004.6" cy="338.1" r="32.5" style="fill:black;"/>
    </g>
    <g id="btn11" class="x-area" data-content="m2/m2_12j" cursor="pointer" fill-opacity="0" fill-color="#000000" transform="matrix(1.69231,0,0,1.69231,-629.585,-325.731)">
        <circle cx="909.4" cy="470.5" r="32.5" style="fill:black;"/>
    </g>
    <g id="btn12" class="x-area" data-content="m2/m2_12k" cursor="pointer" fill-opacity="0" fill-color="#000000"  transform="matrix(1.69231,0,0,1.69231,-452.631,-325.731)">
        <circle cx="653.8" cy="470.5" r="32.5" style="fill:black;"/>
    </g>
    <g id="btn13" class="x-area" data-content="m2/m2_12l" cursor="pointer" fill-opacity="0" fill-color="#000000" transform="matrix(1.69231,0,0,1.69231,-277.754,-325.731)">
        <circle cx="401.2" cy="470.5" r="32.5" style="fill:black;"/>
    </g>
    <g id="btn14" class="x-area" data-content="m2/m2_12m" cursor="pointer" fill-opacity="0" fill-color="#000000" transform="matrix(1.69231,0,0,1.69231,-101.838,-325.731)">
        <circle cx="147.1" cy="470.5" r="32.5" style="fill:black;"/>
    </g>
</svg>
