<?xml version="1.0" encoding="utf-8"?>
<!-- Generator: Adobe Illustrator 23.1.1, SVG Export Plug-In . SVG Version: 6.00 Build 0)  -->
<svg version="1.1" id="Layer_1" xmlns="http://www.w3.org/2000/svg" xmlns:xlink="http://www.w3.org/1999/xlink" x="0px" y="0px"
	 width="100px" height="100px" viewBox="0 0 100 100" style="enable-background:new 0 0 100 100;" xml:space="preserve">
<style type="text/css">
	.st0{fill:#FFFFFF;}
</style>
<title>Artboard 23</title>
<g>
	<path class="st0" d="M87.7,25.3h-7.3v2.9h7.3c2.4,0,4.4,2,4.4,4.4v39.2H7.9V32.6c0-2.4,2-4.4,4.4-4.4h7.3v-2.9h-7.3
		c-4,0-7.3,3.3-7.3,7.3V79c0,4,3.3,7.3,7.3,7.3h18.9v5.8h-5.8V95h49.4v-2.9h-5.8v-5.8h18.9c4,0,7.3-3.3,7.3-7.3V32.6
		C95,28.6,91.7,25.3,87.7,25.3z M66,92.1H34v-5.8H66V92.1z M87.7,83.4H12.3c-2.4,0-4.4-2-4.4-4.4v-4.4h84.2V79
		C92.1,81.4,90.1,83.4,87.7,83.4z"/>
	<path class="st0" d="M74.7,77.6h2.9v2.9h-2.9V77.6z"/>
	<path class="st0" d="M80.5,77.6h2.9v2.9h-2.9V77.6z"/>
	<path class="st0" d="M86.3,77.6h2.9v2.9h-2.9V77.6z"/>
	<path class="st0" d="M68.9,66h20.3v2.9H68.9V66z"/>
	<path class="st0" d="M68.9,60.2h20.3v2.9H68.9V60.2z"/>
	<path class="st0" d="M71.8,54.4h17.4v2.9H71.8V54.4z"/>
	<path class="st0" d="M77.6,48.5h11.6v2.9H77.6V48.5z"/>
	<path class="st0" d="M22.4,27.1v4H10.8v37.7h29V53.4c1.1,0.5,2.2,1,3.3,1.3l1.4,5.4h11l1.4-5.4c1.4-0.4,2.7-1,4-1.6l4.8,2.8
		l7.8-7.8l-2.8-4.8c0.7-1.3,1.2-2.6,1.6-4l5.4-1.4v-11l-5.4-1.4c-0.4-1.4-1-2.7-1.6-4l2.8-4.8l-7.8-7.8L60.8,12
		c-1.3-0.7-2.6-1.2-4-1.6L55.5,5h-11l-1.4,5.4c-1.4,0.4-2.7,1-4,1.6l-4.8-2.8L26.6,17l2.8,4.8c-0.7,1.3-1.2,2.6-1.6,4L22.4,27.1z
		 M13.7,66V34h8.7v4l5.4,1.4c0.4,1.4,1,2.7,1.6,4l-2.8,4.8l7.8,7.8l2.6-1.5V66H13.7z M30.2,28.1l0.2-0.8c0.5-1.7,1.1-3.3,2-4.8
		l0.4-0.7l-2.6-4.3l4.6-4.6l4.3,2.6l0.7-0.4c1.5-0.9,3.1-1.5,4.8-2l0.8-0.2l1.2-4.9h6.5l1.2,4.9l0.8,0.2c1.7,0.5,3.3,1.1,4.8,2
		l0.7,0.4l4.3-2.6l4.6,4.6l-2.6,4.3l0.4,0.7c0.9,1.5,1.5,3.1,2,4.8l0.2,0.8l4.9,1.2v6.5l-4.9,1.2l-0.2,0.8c-0.5,1.7-1.1,3.3-2,4.8
		l-0.4,0.7l2.6,4.3l-4.6,4.6l-4.3-2.6l-0.7,0.4c-1.5,0.9-3.1,1.5-4.8,2l-0.8,0.2l-1.2,4.9h-6.5l-1.2-4.9l-0.8-0.2
		c-1.7-0.5-3.3-1.1-4.8-2l-0.7-0.4l-4.3,2.6l-4.6-4.6l2.6-4.3l-0.4-0.7c-0.9-1.5-1.5-3.1-2-4.8l-0.2-0.8l-4.9-1.2v-6.5L30.2,28.1z"
		/>
	<path class="st0" d="M50,50c9.6,0,17.4-7.8,17.4-17.4S59.6,15.2,50,15.2S32.6,23,32.6,32.6S40.4,50,50,50z M50,18.1
		c8,0,14.5,6.5,14.5,14.5S58,47.1,50,47.1s-14.5-6.5-14.5-14.5S42,18.1,50,18.1z"/>
	<path class="st0" d="M50,44.2c6.4,0,11.6-5.2,11.6-11.6S56.4,21,50,21s-11.6,5.2-11.6,11.6S43.6,44.2,50,44.2z M50,23.9
		c4.8,0,8.7,3.9,8.7,8.7s-3.9,8.7-8.7,8.7s-8.7-3.9-8.7-8.7S45.2,23.9,50,23.9z"/>
	<path class="st0" d="M45.6,31.1h2.9V34h-2.9V31.1z"/>
	<path class="st0" d="M51.5,31.1h2.9V34h-2.9V31.1z"/>
	<path class="st0" d="M16.6,36.9h2.9v2.9h-2.9V36.9z"/>
	<path class="st0" d="M16.6,42.7h5.8v2.9h-5.8V42.7z"/>
	<path class="st0" d="M16.6,48.5h5.8v2.9h-5.8V48.5z"/>
	<path class="st0" d="M16.6,54.4h11.6v2.9H16.6V54.4z"/>
	<path class="st0" d="M16.6,60.2H34v2.9H16.6V60.2z"/>
</g>
</svg>
