<?xml version="1.0" encoding="utf-8"?>
<!-- Generator: Adobe Illustrator 23.1.1, SVG Export Plug-In . SVG Version: 6.00 Build 0)  -->
<svg version="1.1" id="Layer_1" xmlns="http://www.w3.org/2000/svg" xmlns:xlink="http://www.w3.org/1999/xlink" x="0px" y="0px"
	 width="100px" height="100px" viewBox="0 0 100 100" style="enable-background:new 0 0 100 100;" xml:space="preserve">
<style type="text/css">
	.st0{fill:#FFFFFF;}
</style>
<title>Artboard 23</title>
<g>
	<g>
		<path class="st0" d="M92,63v-6.3c0-1.7-1.3-3-3-3v-9c0-21.5-17.5-39-39-39s-39,17.5-39,39v9c-1.7,0-3,1.3-3,3V63
			c-1.8,0.6-3,2.3-3,4.2v18c0,2.5,2,4.5,4.5,4.5H14c0,2.5,2,4.5,4.5,4.5h9c2.5,0,4.5-2,4.5-4.5v-27c0-2.5-2-4.5-4.5-4.5h-9
			c-0.5,0-1,0.1-1.5,0.3v-1.8c0-1.7-1.3-3-3-3v-7.5h1.5c1.6,0,2.9-1.3,3-2.9C19.3,26,34,12.5,51.4,13.3C67.7,14,80.7,27.1,81.5,43.4
			c0.1,1.6,1.4,2.9,3,2.9H86v7.5c-1.7,0-3,1.3-3,3v1.8c-0.5-0.2-1-0.3-1.5-0.3h-9c-2.5,0-4.5,2-4.5,4.5v27c0,2.5,2,4.5,4.5,4.5h9
			c2.5,0,4.5-2,4.5-4.5h4.5c2.5,0,4.5-2,4.5-4.5v-18C95,65.3,93.8,63.7,92,63z M17,62.8c0-0.8,0.7-1.5,1.5-1.5h9
			c0.8,0,1.5,0.7,1.5,1.5v27c0,0.8-0.7,1.5-1.5,1.5h-9c-0.8,0-1.5-0.7-1.5-1.5V62.8z M14,86.8H9.5c-0.8,0-1.5-0.7-1.5-1.5v-18
			c0-0.8,0.7-1.5,1.5-1.5H14V86.8z M14,62.8h-3v-6h3V62.8z M84.5,43.2c-0.8-18.5-16-33-34.5-33c-18.5,0-33.7,14.5-34.5,33H14
			C14.9,23.4,31.8,8,51.7,8.9C70.2,9.8,85.1,24.7,86,43.2L84.5,43.2z M83,89.8c0,0.8-0.7,1.5-1.5,1.5h-9c-0.8,0-1.5-0.7-1.5-1.5v-27
			c0-0.8,0.7-1.5,1.5-1.5h9c0.8,0,1.5,0.7,1.5,1.5V89.8z M86,56.8h3v6h-3V56.8z M92,85.2c0,0.8-0.7,1.5-1.5,1.5H86v-21h4.5
			c0.8,0,1.5,0.7,1.5,1.5V85.2z"/>
	</g>
</g>
</svg>
