<?xml version="1.0" encoding="utf-8"?>
<!-- Generator: Adobe Illustrator 23.1.1, SVG Export Plug-In . SVG Version: 6.00 Build 0)  -->
<svg version="1.1" id="Layer_1" xmlns="http://www.w3.org/2000/svg" xmlns:xlink="http://www.w3.org/1999/xlink" x="0px" y="0px"
	 width="100px" height="100px" viewBox="0 0 100 100" style="enable-background:new 0 0 100 100;" xml:space="preserve">
<style type="text/css">
	.st0{fill:#FFFFFF;}
</style>
<title>Artboard 23</title>
<g>
	<g>
		<g>
			<path class="st0" d="M92.1,67.7V57.3c0-2.4-2-4.4-4.4-4.4h-2.9c-2.4,0-4.4,2-4.4,4.4v10.2h-4c-0.8-0.9-1.9-1.5-3.2-1.5h-4.4v-6.1
				c1.7-0.6,2.9-2.2,2.9-4.1V38.4h5.8v-8.7h-5.8v-5.8c0-2.4-2-4.4-4.4-4.4H66V9.4C66,7,64,5,61.6,5H50c-1.9,0-3.5,1.2-4.1,2.9h-22
				c-5.6,0-10.2,4.6-10.2,10.2v39.2h-2.9V66H9.4C7,66,5,67.9,5,70.3v20.3C5,93,7,95,9.4,95h17.4c2.4,0,4.4-2,4.4-4.4V70.3
				c0-2.4-2-4.4-4.4-4.4h-1.5v-8.7h-2.9V18.1c0-0.8,0.7-1.5,1.5-1.5h21.8v2.9h-1.5c-2.4,0-4.4,2-4.4,4.4v5.8H34v8.7h5.8v17.4
				c0,1.9,1.2,3.5,2.9,4.1V66h-4.4c-2.4,0-4.4,2-4.4,4.4V95h43.5V81.9h13.1c2.4,0,4.4-2,4.4-4.4v-5.8C95,69.9,93.8,68.3,92.1,67.7z
				 M71.8,32.6h2.9v2.9h-2.9V32.6z M39.8,35.5h-2.9v-2.9h2.9V35.5z M48.5,9.4c0-0.8,0.7-1.5,1.5-1.5h11.6c0.8,0,1.5,0.7,1.5,1.5v1.5
				H48.5V9.4z M13.7,60.2h8.7V66h-8.7V60.2z M26.8,68.9c0.8,0,1.5,0.7,1.5,1.5v20.3c0,0.8-0.7,1.5-1.5,1.5H9.4
				c-0.8,0-1.5-0.7-1.5-1.5V70.3c0-0.8,0.7-1.5,1.5-1.5H26.8z M23.9,13.7c-2.4,0-4.4,2-4.4,4.4v39.2h-2.9V18.1c0-4,3.3-7.3,7.3-7.3
				h21.8v2.9H23.9z M42.7,23.9c0-0.8,0.7-1.5,1.5-1.5h13.1v-2.9h-8.7v-2.9v-2.9h14.5v5.8h-2.9v2.9h7.3c0.8,0,1.5,0.7,1.5,1.5v31.9
				c0,0.8-0.7,1.5-1.5,1.5H44.2c-0.8,0-1.5-0.7-1.5-1.5V23.9z M66,60.2V66h-2.9v-5.8H66z M60.2,60.2V66h-8.7v-5.8H60.2z M48.5,60.2
				V66h-2.9v-5.8H48.5z M74.7,92.1H36.9V77.6h37.7V92.1z M74.7,74.7H36.9v-4.4c0-0.8,0.7-1.5,1.5-1.5h34.8c0.8,0,1.5,0.7,1.5,1.5
				V74.7z M83.4,57.3c0-0.8,0.7-1.5,1.5-1.5h2.9c0.8,0,1.5,0.7,1.5,1.5v1.5h-5.8V57.3z M83.4,61.6h5.8v5.8h-5.8V61.6z M92.1,77.6
				c0,0.8-0.7,1.5-1.5,1.5H77.6v-8.7h13.1c0.8,0,1.5,0.7,1.5,1.5V77.6z"/>
			<path class="st0" d="M51.5,45.6h8.7v-5.8h2.9V28.2H48.5v11.6h2.9V45.6z M57.3,42.7h-2.9v-2.9h2.9V42.7z M51.5,31.1h8.7v5.8h-8.7
				V31.1z"/>
			<rect x="41.3" y="80.5" class="st0" width="2.9" height="2.9"/>
			<rect x="41.3" y="86.3" class="st0" width="2.9" height="2.9"/>
			<rect x="50" y="80.5" class="st0" width="2.9" height="2.9"/>
			<rect x="50" y="86.3" class="st0" width="2.9" height="2.9"/>
			<rect x="58.7" y="80.5" class="st0" width="2.9" height="2.9"/>
			<rect x="58.7" y="86.3" class="st0" width="2.9" height="2.9"/>
			<rect x="67.4" y="80.5" class="st0" width="2.9" height="2.9"/>
			<rect x="67.4" y="86.3" class="st0" width="2.9" height="2.9"/>
			<rect x="22.4" y="71.8" class="st0" width="2.9" height="11.6"/>
			<rect x="22.4" y="86.3" class="st0" width="2.9" height="2.9"/>
		</g>
	</g>
</g>
</svg>
