<?xml version="1.0" encoding="utf-8"?>
<!-- Generator: Adobe Illustrator 23.1.1, SVG Export Plug-In . SVG Version: 6.00 Build 0)  -->
<svg version="1.1" id="Layer_1" xmlns="http://www.w3.org/2000/svg" xmlns:xlink="http://www.w3.org/1999/xlink" x="0px" y="0px"
	 width="100px" height="100px" viewBox="0 0 100 100" style="enable-background:new 0 0 100 100;" xml:space="preserve">
<style type="text/css">
	.st0{fill:#FFFFFF;}
</style>
<title>Artboard 23</title>
<g>
	<g>
		<g>
			<path class="st0" d="M84.3,40.6c-2.9,0-5.2,2.4-5.2,5.2c0,2.3,1.5,4.2,3.5,4.9v14.2c0,7.2-5.9,13.1-13.1,13.1h-1.6v-4.1
				c0-1.5-0.7-2.9-2-3.7c-1.2-0.8-2.8-1-4.2-0.4c-0.1,0.1-0.3,0.1-0.4,0.2v-4.9c9.5-4.8,16-14.6,16-26C77.3,23,64.2,10,48.2,10
				S19.1,23,19.1,39.1c0,11.3,6.5,21.2,16,26V70c-0.1-0.1-0.3-0.1-0.4-0.2c-1.4-0.6-2.9-0.4-4.2,0.4c-1.2,0.8-2,2.2-2,3.7v16.2
				c0,2.7,2.2,4.9,4.9,4.9h29.4c2.7,0,4.9-2.2,4.9-4.9v-8.6h1.6C78.6,81.5,86,74,86,64.9V50.7c2-0.7,3.5-2.7,3.5-4.9
				C89.5,42.9,87.2,40.6,84.3,40.6z M22.6,39.1c0-14.1,11.5-25.6,25.6-25.6S73.8,25,73.8,39.1c0,9.3-5,17.5-12.5,22
				c-1.1,0.7-2.3,1.3-3.5,1.7c-3,1.2-6.2,1.9-9.6,1.9s-6.6-0.7-9.6-1.9c-1.2-0.5-2.4-1.1-3.5-1.7C27.6,56.6,22.6,48.4,22.6,39.1z
				 M57.7,66.6v4.6c-3.1,0.9-6.3,1.3-9.6,1.3c-3.3,0-6.5-0.4-9.6-1.3v-4.6c3,1,6.2,1.6,9.6,1.6C51.5,68.2,54.8,67.6,57.7,66.6z
				 M64.3,79.7v10.4c0,0.8-0.6,1.4-1.4,1.4H33.5c-0.8,0-1.4-0.6-1.4-1.4V73.9c0-0.4,0.3-0.7,0.4-0.8c0.1-0.1,0.3-0.2,0.5-0.2
				c0.1,0,0.2,0,0.4,0.1c0.6,0.2,1.2,0.5,1.8,0.7c1.2,0.4,2.3,0.8,3.5,1.1c3.1,0.8,6.3,1.2,9.6,1.2c3.3,0,6.5-0.4,9.6-1.2
				c1.2-0.3,2.4-0.7,3.5-1.1c0.6-0.2,1.2-0.4,1.8-0.7c0.4-0.2,0.7,0,0.8,0.1c0.1,0.1,0.4,0.3,0.4,0.8V79.7z M84.3,47.5
				c-1,0-1.7-0.8-1.7-1.7c0-1,0.8-1.7,1.7-1.7c1,0,1.7,0.8,1.7,1.7C86,46.8,85.2,47.5,84.3,47.5z"/>
			<path class="st0" d="M33.2,8.3C34.1,7.9,34.5,6.9,34,6c-0.4-0.9-1.5-1.2-2.4-0.8C25.4,8.2,20.1,13,16.4,18.8
				c-3.9,6-5.9,13-5.9,20.2c0,1,0.8,1.8,1.8,1.8s1.8-0.8,1.8-1.8C14,25.9,21.4,14.1,33.2,8.3z"/>
			<path class="st0" d="M53.6,21.9c7.7,2.6,12.8,9.9,12.8,18c0,1,0.8,1.8,1.8,1.8c1,0,1.8-0.8,1.8-1.8c0-9.6-6.1-18.2-15.2-21.3
				c-0.9-0.3-1.9,0.2-2.2,1.1C52.2,20.6,52.7,21.6,53.6,21.9z"/>
			<path class="st0" d="M48.2,47.2c4.5,0,8.1-3.6,8.1-8.1S52.7,31,48.2,31s-8.1,3.6-8.1,8.1S43.7,47.2,48.2,47.2z M48.2,34.5
				c2.5,0,4.6,2.1,4.6,4.6c0,2.5-2.1,4.6-4.6,4.6c-2.5,0-4.6-2.1-4.6-4.6C43.6,36.5,45.6,34.5,48.2,34.5z"/>
			<path class="st0" d="M38.4,87.5c0-0.1-0.1-0.2-0.2-0.3C38.2,87.1,38.1,87,38,87c-0.4-0.4-1-0.6-1.6-0.5c-0.1,0-0.2,0.1-0.3,0.1
				c-0.1,0-0.2,0.1-0.3,0.2c-0.1,0.1-0.2,0.1-0.3,0.2s-0.2,0.2-0.2,0.3c-0.1,0.1-0.1,0.2-0.2,0.3c0,0.1-0.1,0.2-0.1,0.3
				c0,0.1,0,0.2,0,0.3c0,0.1,0,0.2,0,0.3c0,0.1,0.1,0.2,0.1,0.3c0,0.1,0.1,0.2,0.2,0.3c0.1,0.1,0.1,0.2,0.2,0.3
				c0.1,0.1,0.2,0.2,0.3,0.2c0.1,0.1,0.2,0.1,0.3,0.2c0.1,0,0.2,0.1,0.3,0.1c0.1,0,0.2,0,0.3,0c0.5,0,0.9-0.2,1.2-0.5
				c0.1-0.1,0.2-0.2,0.2-0.3c0.1-0.1,0.1-0.2,0.2-0.3c0-0.1,0.1-0.2,0.1-0.3c0-0.1,0-0.2,0-0.3c0-0.1,0-0.2,0-0.3
				C38.5,87.7,38.5,87.6,38.4,87.5z"/>
			<path class="st0" d="M61.2,87.5c0-0.1-0.1-0.2-0.2-0.3C61,87.1,60.9,87,60.8,87c-0.1-0.1-0.2-0.2-0.3-0.2
				c-0.1-0.1-0.2-0.1-0.3-0.2c-0.1,0-0.2-0.1-0.3-0.1c-0.2,0-0.5,0-0.7,0c-0.1,0-0.2,0.1-0.3,0.1c-0.1,0-0.2,0.1-0.3,0.2
				c-0.1,0.1-0.2,0.1-0.3,0.2c-0.1,0.1-0.2,0.2-0.2,0.3c-0.1,0.1-0.1,0.2-0.2,0.3c0,0.1-0.1,0.2-0.1,0.3c0,0.1,0,0.2,0,0.3
				s0,0.2,0,0.3c0,0.1,0.1,0.2,0.1,0.3c0,0.1,0.1,0.2,0.2,0.3c0.1,0.1,0.1,0.2,0.2,0.3c0.1,0.1,0.2,0.2,0.3,0.2
				c0.1,0.1,0.2,0.1,0.3,0.2c0.1,0,0.2,0.1,0.3,0.1c0.1,0,0.2,0,0.3,0c0.1,0,0.2,0,0.3,0s0.2-0.1,0.3-0.1c0.1,0,0.2-0.1,0.3-0.2
				c0.1-0.1,0.2-0.1,0.3-0.2s0.2-0.2,0.2-0.3c0.1-0.1,0.1-0.2,0.2-0.3c0-0.1,0.1-0.2,0.1-0.3c0-0.1,0-0.2,0-0.3c0-0.1,0-0.2,0-0.3
				C61.3,87.7,61.3,87.6,61.2,87.5z"/>
			<path class="st0" d="M45.6,81.5h5.1c0.9,0,1.7-0.7,1.8-1.6c0,0,0-0.1,0-0.1c0-1-0.8-1.8-1.8-1.8h-5.1c-1,0-1.8,0.8-1.8,1.8
				c0,0,0,0.1,0,0.1C43.9,80.8,44.7,81.5,45.6,81.5z"/>
			<path class="st0" d="M52.8,84.1h-9.3c-1,0-1.8,0.8-1.8,1.8c0,1,0.8,1.8,1.8,1.8h9.3c1,0,1.8-0.8,1.8-1.8
				C54.6,84.8,53.8,84.1,52.8,84.1z"/>
			<path class="st0" d="M46.4,20.5c0.1,0.1,0.2,0.1,0.3,0.2s0.2,0.1,0.3,0.1c0.1,0,0.2,0,0.3,0c0.1,0,0.2,0,0.3,0
				c0.1,0,0.2-0.1,0.3-0.1s0.2-0.1,0.3-0.2c0.1-0.1,0.2-0.1,0.3-0.2c0.3-0.3,0.5-0.8,0.5-1.2c0-0.1,0-0.2,0-0.3s-0.1-0.2-0.1-0.3
				c0-0.1-0.1-0.2-0.2-0.3c-0.1-0.1-0.1-0.2-0.2-0.3c-0.1-0.1-0.2-0.2-0.3-0.2c-0.1-0.1-0.2-0.1-0.3-0.2c-0.1,0-0.2-0.1-0.3-0.1
				c-0.2,0-0.5,0-0.7,0c-0.1,0-0.2,0.1-0.3,0.1c-0.1,0-0.2,0.1-0.3,0.2c-0.1,0.1-0.2,0.1-0.3,0.2C46.1,17.9,46,18,46,18.1
				c-0.1,0.1-0.1,0.2-0.2,0.3c0,0.1-0.1,0.2-0.1,0.3c0,0.1,0,0.2,0,0.3c0,0.5,0.2,0.9,0.5,1.2C46.3,20.4,46.3,20.5,46.4,20.5z"/>
		</g>
	</g>
</g>
</svg>
