<?xml version="1.0" encoding="utf-8"?>
<!-- Generator: Adobe Illustrator 23.1.1, SVG Export Plug-In . SVG Version: 6.00 Build 0)  -->
<svg version="1.1" id="Layer_1" xmlns="http://www.w3.org/2000/svg" xmlns:xlink="http://www.w3.org/1999/xlink" x="0px" y="0px"
	 width="100px" height="100px" viewBox="0 0 100 100" style="enable-background:new 0 0 100 100;" xml:space="preserve">
<style type="text/css">
	.st0{fill:#FFFFFF;}
</style>
<title>Artboard 23</title>
<g>
	<g>
		<g>
			<path class="st0" d="M75.5,9.3v-3c0-0.8-0.7-1.5-1.5-1.5h-6c-0.8,0-1.5,0.7-1.5,1.5v3h-33v-3c0-0.8-0.7-1.5-1.5-1.5h-6
				c-0.8,0-1.5,0.7-1.5,1.5v3C13.7,9.3,5,18.1,5,28.8s8.7,19.5,19.5,19.5H38c3.9,0,7.8-3.2,10.7-8.9c0.4-0.7,1.4-1,2.1-0.6
				c0.2,0.1,0.5,0.3,0.6,0.6c2.8,5.6,6.7,8.9,10.7,8.9h13.5c10.8,0,19.5-8.7,19.5-19.5S86.3,9.3,75.5,9.3z M69.5,7.8h3v1.5h-3V7.8z
				 M27.5,7.8h3v1.5h-3V7.8z M75.5,45.3H62c-2.7,0-5.7-2.7-8-7.2c-1.1-2.2-3.8-3.1-6-2c-0.9,0.4-1.6,1.1-2,2c-2.3,4.5-5.2,7.2-8,7.2
				H24.5C15.4,45.3,8,37.9,8,28.8s7.4-16.5,16.5-16.5h51c9.1,0,16.5,7.4,16.5,16.5S84.6,45.3,75.5,45.3z"/>
			<path class="st0" d="M75.5,13.8h-51c-8.3,0-15,6.7-15,15s6.7,15,15,15H38c2.1,0,4.7-2.5,6.6-6.4c1.5-3,5.1-4.2,8.1-2.7
				c1.2,0.6,2.1,1.5,2.7,2.7c1.9,3.9,4.6,6.4,6.6,6.4h13.5c8.3,0,15-6.7,15-15S83.8,13.8,75.5,13.8z M75.5,40.8H62
				c-0.5-0.1-2.2-1.3-4-4.7c-2.2-4.4-7.6-6.2-12.1-4c-1.7,0.9-3.1,2.3-4,4c-1.7,3.4-3.5,4.7-4,4.7H24.5c-6.6,0-12-5.4-12-12
				s5.4-12,12-12h51c6.6,0,12,5.4,12,12C87.5,35.4,82.1,40.8,75.5,40.8z"/>
			<path class="st0" d="M50,70.8c-4.1,0-7.5,3.4-7.5,7.5c0,4.1,3.4,7.5,7.5,7.5s7.5-3.4,7.5-7.5C57.5,74.2,54.1,70.8,50,70.8z
				 M50,82.8c-2.5,0-4.5-2-4.5-4.5s2-4.5,4.5-4.5s4.5,2,4.5,4.5S52.5,82.8,50,82.8z"/>
			<path class="st0" d="M71.8,84.7c1.5-2.4,2.3-5.1,2.2-7.9c0-3.5-2.2-7.8-6.4-12.7l3.3-3.3c0.6-0.6,0.6-1.5,0-2.1l-4.2-4.2
				c-0.6-0.6-1.5-0.6-2.1,0l-3.3,3.3c-1.5-1.6-3-3.4-4.4-5c-1.3-1.8-2.9-3.4-4.6-4.8c-1.4-0.8-3.1-0.8-4.5,0c-1.7,1.4-3.3,3-4.6,4.8
				c-1.4,1.6-2.9,3.5-4.4,5l-3.3-3.3c-0.6-0.6-1.5-0.6-2.1,0l-4.2,4.2c-0.6,0.6-0.6,1.5,0,2.1l3.3,3.3C28.2,69,26,73.3,26,76.8
				c0,2.8,0.8,5.5,2.2,7.9l-3.7,3.6c-0.6,0.6-0.6,1.5,0,2.1l4.2,4.2c0.6,0.6,1.5,0.6,2.1,0l3.9-3.9c9.5,5.2,20.9,5.2,30.4,0l3.8,3.9
				c0.6,0.6,1.5,0.6,2.1,0l4.2-4.2c0.6-0.6,0.6-1.5,0-2.1L71.8,84.7z M65.6,57.6l2.1,2.1l-2.2,2.2c-0.2-0.2-0.3-0.3-0.5-0.5
				c-0.2-0.2-0.3-0.3-0.5-0.5c-0.2-0.2-0.4-0.4-0.6-0.6c-0.2-0.2-0.3-0.3-0.5-0.5l0,0L65.6,57.6z M32.3,59.7l2.1-2.1l2.2,2.2l0,0
				c-0.2,0.1-0.3,0.3-0.4,0.4c-0.2,0.2-0.5,0.5-0.7,0.7c-0.1,0.1-0.3,0.3-0.4,0.4c-0.2,0.2-0.4,0.4-0.6,0.6L32.3,59.7z M29.9,91.6
				l-2.1-2.1l2.3-2.3c0.2,0.3,0.5,0.5,0.8,0.8c0.1,0.1,0.1,0.2,0.2,0.2c0.4,0.3,0.8,0.7,1.2,1L29.9,91.6z M64.6,87.7
				c-4.4,2.7-9.4,4.1-14.6,4.1c-5.2,0.1-10.2-1.3-14.6-4.1h0c-1.6-1-2.9-2.3-4-3.8c-1.6-2.1-2.4-4.6-2.4-7.2c0-3,2.3-7.1,6.6-11.8
				c0.6-0.6,3.9-3.9,4.2-4.2c2-2,3.9-4.1,5.7-6.3c1.1-1.5,2.4-2.9,3.8-4.1c0.2-0.1,0.5-0.2,0.8-0.2c0.3,0,0.5,0.1,0.8,0.2
				c1.4,1.2,2.7,2.6,3.8,4.1c1.8,2.2,3.7,4.3,5.7,6.3c1.6,1.5,3,2.9,4.2,4.2c4.3,4.7,6.6,8.8,6.6,11.8c0,2.6-0.8,5.1-2.4,7.2
				c-0.2,0.3-0.5,0.7-0.8,1C66.9,86.1,65.8,87,64.6,87.7z M70.1,91.6l-2.4-2.4c0.4-0.3,0.8-0.7,1.2-1c0.1-0.1,0.2-0.2,0.3-0.3
				c0.2-0.2,0.5-0.5,0.7-0.7l2.3,2.3L70.1,91.6z"/>
		</g>
	</g>
</g>
</svg>
