<?xml version="1.0" encoding="utf-8"?>
<!-- Generator: Adobe Illustrator 23.1.1, SVG Export Plug-In . SVG Version: 6.00 Build 0)  -->
<svg version="1.1" id="Layer_1" xmlns="http://www.w3.org/2000/svg" xmlns:xlink="http://www.w3.org/1999/xlink" x="0px" y="0px"
	 width="100px" height="100px" viewBox="0 0 100 100" style="enable-background:new 0 0 100 100;" xml:space="preserve">
<style type="text/css">
	.st0{fill:#FFFFFF;}
</style>
<title>Artboard 23</title>
<g>
	<g>
		<g>
			<path class="st0" d="M78.7,92.7l-4.4-13c-0.2-0.7-0.9-1.2-1.7-1.2h-0.3V53c0-12.3-10-22.3-22.3-22.3S27.7,40.7,27.7,53v25.5h-0.3
				c-0.8,0-1.4,0.5-1.7,1.2l-4.4,13c-0.2,0.5-0.1,1.1,0.2,1.6c0.3,0.5,0.9,0.7,1.4,0.7h54c0.6,0,1.1-0.3,1.4-0.7
				C78.7,93.8,78.8,93.2,78.7,92.7z M31.2,53c0-10.4,8.4-18.8,18.8-18.8S68.8,42.6,68.8,53v25.5H31.2V53z M25.5,91.5l3.2-9.5h42.6
				l3.2,9.5L25.5,91.5L25.5,91.5z"/>
		</g>
	</g>
	<g>
		<g>
			<path class="st0" d="M50,5c-1,0-1.8,0.8-1.8,1.8v10.5c0,1,0.8,1.8,1.8,1.8c1,0,1.8-0.8,1.8-1.8V6.8C51.8,5.8,51,5,50,5z"/>
		</g>
	</g>
	<g>
		<g>
			<path class="st0" d="M51.2,22.9c-0.3-0.3-0.8-0.5-1.2-0.5s-0.9,0.2-1.2,0.5c-0.3,0.3-0.5,0.8-0.5,1.2c0,0.5,0.2,0.9,0.5,1.2
				c0.3,0.3,0.8,0.5,1.2,0.5s0.9-0.2,1.2-0.5c0.3-0.3,0.5-0.8,0.5-1.2C51.8,23.7,51.6,23.2,51.2,22.9z"/>
		</g>
	</g>
	<g>
		<g>
			<path class="st0" d="M21.8,52h-8.1c-1,0-1.8,0.8-1.8,1.8s0.8,1.8,1.8,1.8h8.1c1,0,1.8-0.8,1.8-1.8S22.8,52,21.8,52z"/>
		</g>
	</g>
	<g>
		<g>
			<path class="st0" d="M8,52.6C7.7,52.2,7.2,52,6.8,52s-0.9,0.2-1.2,0.5C5.2,52.9,5,53.3,5,53.8s0.2,0.9,0.5,1.2
				c0.3,0.3,0.8,0.5,1.2,0.5s0.9-0.2,1.2-0.5c0.3-0.3,0.5-0.8,0.5-1.2S8.3,52.9,8,52.6z"/>
		</g>
	</g>
	<g>
		<g>
			<path class="st0" d="M38.2,20.6l-2.4-5.8c-0.4-0.9-1.4-1.3-2.3-1c-0.9,0.4-1.3,1.4-1,2.3l2.4,5.8c0.3,0.7,0.9,1.1,1.6,1.1
				c0.2,0,0.5,0,0.7-0.1C38.1,22.6,38.5,21.5,38.2,20.6z"/>
		</g>
	</g>
	<g>
		<g>
			<path class="st0" d="M18.2,38.7l-5.8-2.4c-0.9-0.4-1.9,0.1-2.3,1c-0.4,0.9,0.1,1.9,1,2.3l5.8,2.4c0.2,0.1,0.4,0.1,0.7,0.1
				c0.7,0,1.3-0.4,1.6-1.1C19.5,40.1,19.1,39.1,18.2,38.7z"/>
		</g>
	</g>
	<g>
		<g>
			<path class="st0" d="M87,52h-8.1c-1,0-1.8,0.8-1.8,1.8s0.8,1.8,1.8,1.8H87c1,0,1.8-0.8,1.8-1.8S88,52,87,52z"/>
		</g>
	</g>
	<g>
		<g>
			<path class="st0" d="M94.5,52.6c-0.3-0.3-0.8-0.5-1.2-0.5s-0.9,0.2-1.2,0.5c-0.3,0.3-0.5,0.8-0.5,1.2s0.2,0.9,0.5,1.2
				c0.3,0.3,0.8,0.5,1.2,0.5s0.9-0.2,1.2-0.5c0.3-0.3,0.5-0.8,0.5-1.2S94.8,52.9,94.5,52.6z"/>
		</g>
	</g>
	<g>
		<g>
			<path class="st0" d="M84.8,19c-0.7-0.7-1.8-0.7-2.5,0l-8.6,8.6c-0.7,0.7-0.7,1.8,0,2.5c0.3,0.3,0.8,0.5,1.2,0.5
				c0.5,0,0.9-0.2,1.2-0.5l8.6-8.6C85.4,20.8,85.4,19.7,84.8,19z"/>
		</g>
	</g>
	<g>
		<g>
			<path class="st0" d="M26.4,27.7L17.7,19c-0.7-0.7-1.8-0.7-2.5,0c-0.7,0.7-0.7,1.8,0,2.5l8.6,8.6c0.3,0.3,0.8,0.5,1.2,0.5
				c0.4,0,0.9-0.2,1.2-0.5C27.1,29.5,27.1,28.4,26.4,27.7z"/>
		</g>
	</g>
	<g>
		<g>
			<path class="st0" d="M66.5,13.9c-0.9-0.4-1.9,0.1-2.3,1l-2.4,5.8c-0.4,0.9,0.1,1.9,1,2.3c0.2,0.1,0.4,0.1,0.7,0.1
				c0.7,0,1.3-0.4,1.6-1.1l2.4-5.8C67.8,15.3,67.4,14.3,66.5,13.9z"/>
		</g>
	</g>
	<g>
		<g>
			<path class="st0" d="M89.9,37.3c-0.4-0.9-1.4-1.3-2.3-1l-5.8,2.4c-0.9,0.4-1.3,1.4-1,2.3c0.3,0.7,0.9,1.1,1.6,1.1
				c0.2,0,0.5,0,0.7-0.1l5.8-2.4C89.8,39.2,90.2,38.2,89.9,37.3z"/>
		</g>
	</g>
	<g>
		<g>
			<path class="st0" d="M50,41.7c-2.9,0-5.3,2.4-5.3,5.3v8.4c0,2.9,2.4,5.3,5.3,5.3c2.9,0,5.3-2.4,5.3-5.3V47
				C55.3,44.1,52.9,41.7,50,41.7z M51.8,55.5c0,1-0.8,1.8-1.8,1.8c-1,0-1.8-0.8-1.8-1.8V47c0-1,0.8-1.8,1.8-1.8c1,0,1.8,0.8,1.8,1.8
				V55.5z"/>
		</g>
	</g>
	<g>
		<g>
			<path class="st0" d="M50,64.2c-2.9,0-5.3,2.4-5.3,5.3c0,2.9,2.4,5.3,5.3,5.3c2.9,0,5.3-2.4,5.3-5.3C55.3,66.6,52.9,64.2,50,64.2z
				 M50,71.3c-1,0-1.8-0.8-1.8-1.8s0.8-1.8,1.8-1.8c1,0,1.8,0.8,1.8,1.8S51,71.3,50,71.3z"/>
		</g>
	</g>
</g>
</svg>
