<?xml version="1.0" encoding="utf-8"?>
<!-- Generator: Adobe Illustrator 23.1.1, SVG Export Plug-In . SVG Version: 6.00 Build 0)  -->
<svg version="1.1" id="Layer_1" xmlns="http://www.w3.org/2000/svg" xmlns:xlink="http://www.w3.org/1999/xlink" x="0px" y="0px"
	 width="100px" height="100px" viewBox="0 0 100 100" style="enable-background:new 0 0 100 100;" xml:space="preserve">
<style type="text/css">
	.st0{fill:#FFFFFF;}
</style>
<title>Artboard 23</title>
<g>
	<path class="st0" d="M67,5.5C66.6,5.2,66.2,5,65.7,5c-0.5,0-0.9,0.2-1.2,0.5C64.1,5.8,64,6.3,64,6.8c0,0.5,0.2,0.9,0.5,1.2
		c0.3,0.3,0.8,0.5,1.2,0.5c0.5,0,0.9-0.2,1.2-0.5c0.3-0.3,0.5-0.8,0.5-1.2C67.5,6.3,67.3,5.8,67,5.5z"/>
	<path class="st0" d="M58.7,5H39.8c-1,0-1.8,0.8-1.8,1.8s0.8,1.8,1.8,1.8h2.8v5.3c0,1,0.8,1.8,1.8,1.8h11.3c1,0,1.8-0.8,1.8-1.8V8.5
		h1.3c1,0,1.8-0.8,1.8-1.8S59.7,5,58.7,5z M53.9,12h-7.7V8.5h7.7V12z"/>
	<path class="st0" d="M32.6,79.3c-0.4-0.9-1.4-1.3-2.3-1c-0.9,0.4-1.3,1.4-1,2.3l0,0.1c0.3,0.7,0.9,1.1,1.6,1.1c0.2,0,0.4,0,0.7-0.1
		C32.6,81.3,33,80.3,32.6,79.3L32.6,79.3z"/>
	<path class="st0" d="M62.5,46.5c-0.7,0.4-1.1,1.2-0.9,1.9c0.6,2.8,0.5,5.6-0.3,8.4c0-0.4-0.1-0.8-0.2-1.2
		c-0.8-4.9-3.8-11.9-13.4-16.7c-0.6-0.3-1.4-0.2-1.9,0.2c-0.5,0.5-0.7,1.2-0.5,1.9c3,8.7,0,11.4-2,13.1c-1.6,1.4-2.7,3-3.5,4.5
		c-1.3-3-3.6-6.1-7.5-8c-0.5-0.3-1.2-0.2-1.7,0.1c-0.5,0.3-0.8,0.9-0.8,1.5c0,7.3-0.6,9.8-1.1,11.9c-0.5,1.9-0.9,3.6-0.9,7.7
		c0,0.4,0,0.8,0,1.1c0,1,0.9,1.7,1.8,1.7c1,0,1.7-0.9,1.7-1.8c0-0.3,0-0.6,0-1c0-3.7,0.4-5.1,0.8-6.9c0.5-2,1-4.2,1.2-9.5
		C37.2,59,37.9,64.6,38,66c0,0.3,0,0.5,0,0.5c0.1,0.9,0.9,1.6,1.8,1.6c0.9-0.1,1.7-0.8,1.7-1.8c0-0.1,0-0.3,0-0.6
		c0-1.3,0.3-5.5,4.1-8.9c2.9-2.6,5.3-6,4.1-12.6c4.4,3.1,7,7.1,7.9,11.8c0.8,4.5-0.4,8.1-0.4,8.2c-0.3,0.8,0.1,1.6,0.8,2.1
		c0.7,0.4,1.6,0.3,2.2-0.3c0.2-0.2,4.5-4.9,5.2-12c3.3,5.4,5,11.5,5,17.9c0,7.2-4,13.6-9.8,17c0.7-1.4,1.1-3,1.1-4.7
		c0-1.5-0.3-2.9-0.9-4.2c0,0,0,0,0,0c-0.3-0.6-0.6-1.2-1-1.8c-0.3-0.6-0.7-1.1-1-1.7c-1.9-3.2-3.7-6.1-3-9.2
		c0.1-0.6-0.1-1.3-0.6-1.7c-0.5-0.4-1.2-0.5-1.8-0.3c-2.7,1.1-4.9,3.4-6.1,5.8c-1.7-1.5-3.5-1.7-3.6-1.7c-0.6-0.1-1.2,0.2-1.6,0.7
		c-0.4,0.5-0.4,1.2-0.2,1.7c0.1,0.1,1.3,3.2-0.3,6.6c-0.2,0.4-0.4,0.7-0.6,1.1c0,0,0,0.1-0.1,0.1c-0.7,1.4-1,3-1,4.6
		c0,1.7,0.4,3.3,1.1,4.7c-1.8-1-3.5-2.4-4.9-4c-0.6-0.7-1.8-0.8-2.5-0.2c-0.7,0.6-0.8,1.8-0.2,2.5c4.4,5,10.7,7.8,17.3,7.8
		c12.7,0,23.1-10.4,23.1-23.1c0-9.1-3.2-17.7-9.2-24.9C64.1,46.4,63.2,46.2,62.5,46.5z M50.7,91.5c-4,0-7.3-3.3-7.3-7.3
		c0-1.1,0.2-2.1,0.7-3.1c0,0,0,0,0,0c0.1-0.3,0.3-0.5,0.5-0.8c0-0.1,0.1-0.1,0.1-0.2c0.9-1.9,1.2-3.8,1.2-5.4
		c0.3,0.4,0.5,0.8,0.7,1.4c0.3,0.9,1.3,1.4,2.2,1.1c0.9-0.3,1.4-1.2,1.2-2.1c-0.2-0.7,0.6-3,2.3-4.8c0.4,2.9,2.1,5.6,3.6,8.1
		c0.3,0.5,0.7,1.1,1,1.7c0,0,0,0.1,0.1,0.1c0.3,0.4,0.5,0.8,0.7,1.3c0,0,0,0,0,0c0.4,0.9,0.6,1.9,0.6,2.9
		C58.1,88.2,54.8,91.5,50.7,91.5z"/>
	<path class="st0" d="M27.5,43.8c-0.7-0.7-1.8-0.7-2.5,0l-2,2c-0.7,0.7-0.7,1.8,0,2.5c0.3,0.3,0.8,0.5,1.2,0.5s0.9-0.2,1.2-0.5l2-2
		C28.2,45.6,28.2,44.4,27.5,43.8z"/>
	<path class="st0" d="M16.9,48c0.3,0.3,0.8,0.5,1.2,0.5c0.4,0,0.9-0.2,1.2-0.5c0.7-0.7,0.7-1.8,0-2.5l-1.8-1.8
		c-0.7-0.7-1.8-0.7-2.5,0c-0.7,0.7-0.7,1.8,0,2.5L16.9,48z"/>
	<path class="st0" d="M16.9,51.9L15,53.8c-0.7,0.7-0.7,1.8,0,2.5c0.3,0.3,0.8,0.5,1.2,0.5s0.9-0.2,1.2-0.5l1.9-1.9
		c0.7-0.7,0.7-1.8,0-2.5C18.7,51.2,17.6,51.2,16.9,51.9z"/>
	<path class="st0" d="M75,43.8c-0.7-0.7-1.8-0.7-2.5,0c-0.7,0.7-0.7,1.8,0,2.5l2,2c0.3,0.3,0.8,0.5,1.2,0.5c0.4,0,0.9-0.2,1.2-0.5
		c0.7-0.7,0.7-1.8,0-2.5L75,43.8z"/>
	<path class="st0" d="M81.9,48.5c0.4,0,0.9-0.2,1.2-0.5l1.8-1.8c0.7-0.7,0.7-1.8,0-2.5c-0.7-0.7-1.8-0.7-2.5,0l-1.8,1.8
		c-0.7,0.7-0.7,1.8,0,2.5C81,48.3,81.5,48.5,81.9,48.5z"/>
	<path class="st0" d="M83.1,51.9c-0.7-0.7-1.8-0.7-2.5,0c-0.7,0.7-0.7,1.8,0,2.5l1.9,1.9c0.3,0.3,0.8,0.5,1.2,0.5
		c0.4,0,0.9-0.2,1.2-0.5c0.7-0.7,0.7-1.8,0-2.5L83.1,51.9z"/>
	<path class="st0" d="M38.2,27.8c-0.8-0.6-1.9-0.4-2.5,0.4l-0.5,0.7c-0.6,0.8-0.4,1.9,0.4,2.5c0.3,0.2,0.7,0.3,1,0.3
		c0.5,0,1.1-0.2,1.4-0.7l0.5-0.7C39.1,29.5,39,28.4,38.2,27.8z"/>
	<path class="st0" d="M41.8,22.9c-0.8-0.6-1.9-0.4-2.5,0.4l-0.5,0.7c-0.6,0.8-0.4,1.9,0.4,2.5c0.3,0.2,0.7,0.3,1,0.3
		c0.5,0,1.1-0.2,1.4-0.7l0.5-0.7C42.8,24.5,42.6,23.4,41.8,22.9z"/>
	<path class="st0" d="M42.9,21.4c0.3,0.2,0.7,0.3,1,0.3c0.5,0,1.1-0.2,1.4-0.7l0.5-0.7c0.6-0.8,0.4-1.9-0.4-2.5
		c-0.8-0.6-1.9-0.4-2.5,0.4L42.5,19C41.9,19.8,42.1,20.9,42.9,21.4z"/>
	<path class="st0" d="M34.5,32.8c-0.8-0.6-1.9-0.4-2.5,0.4l-0.5,0.7c-0.6,0.8-0.4,1.9,0.4,2.5c0.3,0.2,0.7,0.3,1,0.3
		c0.5,0,1.1-0.2,1.4-0.7l0.5-0.7C35.5,34.5,35.3,33.4,34.5,32.8z"/>
	<path class="st0" d="M57,18.3c-0.6-0.8-1.7-1-2.5-0.4c-0.8,0.6-1,1.7-0.4,2.5l0.5,0.7c0.3,0.5,0.9,0.7,1.4,0.7c0.4,0,0.7-0.1,1-0.3
		c0.8-0.6,1-1.7,0.4-2.5L57,18.3z"/>
	<path class="st0" d="M65.5,36c0.3,0.5,0.9,0.7,1.4,0.7c0.4,0,0.7-0.1,1-0.3c0.8-0.6,1-1.7,0.4-2.5l-0.5-0.7c-0.6-0.8-1.7-1-2.5-0.4
		c-0.8,0.6-1,1.7-0.4,2.5L65.5,36z"/>
	<path class="st0" d="M60.6,23.3c-0.6-0.8-1.7-1-2.5-0.4c-0.8,0.6-1,1.7-0.4,2.5l0.5,0.7c0.3,0.5,0.9,0.7,1.4,0.7
		c0.4,0,0.7-0.1,1-0.3c0.8-0.6,1-1.7,0.4-2.5L60.6,23.3z"/>
	<path class="st0" d="M64.2,28.2c-0.6-0.8-1.7-1-2.5-0.4c-0.8,0.6-1,1.7-0.4,2.5l0.5,0.7c0.3,0.5,0.9,0.7,1.4,0.7
		c0.4,0,0.7-0.1,1-0.3c0.8-0.6,1-1.7,0.4-2.5L64.2,28.2z"/>
	<path class="st0" d="M48.2,33.2c0,1,0.8,1.8,1.8,1.8s1.8-0.8,1.8-1.8v-0.9c0-1-0.8-1.8-1.8-1.8s-1.8,0.8-1.8,1.8V33.2z"/>
	<path class="st0" d="M50,22.6c1,0,1.8-0.8,1.8-1.8V20c0-1-0.8-1.8-1.8-1.8S48.2,19,48.2,20v0.9C48.2,21.9,49,22.6,50,22.6z"/>
	<path class="st0" d="M48.2,27c0,1,0.8,1.8,1.8,1.8s1.8-0.8,1.8-1.8v-0.9c0-1-0.8-1.8-1.8-1.8s-1.8,0.8-1.8,1.8V27z"/>
</g>
</svg>
