<?xml version="1.0" encoding="utf-8"?>
<!-- Generator: Adobe Illustrator 23.1.1, SVG Export Plug-In . SVG Version: 6.00 Build 0)  -->
<svg version="1.1" id="Layer_1" xmlns="http://www.w3.org/2000/svg" xmlns:xlink="http://www.w3.org/1999/xlink" x="0px" y="0px"
	 width="100px" height="100px" viewBox="0 0 100 100" style="enable-background:new 0 0 100 100;" xml:space="preserve">
<style type="text/css">
	.st0{fill:#FFFFFF;}
</style>
<title>Artboard 23</title>
<g>
	<path class="st0" d="M25.9,29.3l2.6,1.4c0.5-0.9,1-1.7,1.6-2.5l-2.4-1.8C27,27.4,26.4,28.3,25.9,29.3z"/>
	<path class="st0" d="M22.8,39.3l3,0.3c0.2-2.3,0.8-4.6,1.7-6.8l-2.8-1.2C23.7,34.1,23.1,36.7,22.8,39.3z"/>
	<path class="st0" d="M17,66.5V68c0,13.2,10.8,24,24,24h0c1.4,1.9,3.6,3,6,3h6c2.3,0,4.6-1.1,6-3h0c13.2,0,24-10.8,24-24V56
		c3.3,0,6-2.7,6-6c0-3.3-2.7-6-6-6h-0.1l-0.4-4.7C81.8,31.1,78,23.6,72,18.1c-1.7-1.5-3.5-2.9-5.5-4.1v0h0c-0.3-0.2-0.5-0.3-0.8-0.4
		c-2.7-1.5-5.6-2.6-8.6-3.3C56.2,7.2,53.3,5,50,5s-6.2,2.2-7.1,5.3c-3,0.7-5.9,1.8-8.6,3.2c-0.3,0.1-0.5,0.3-0.8,0.5h0v0
		c-9.1,5.3-15.1,14.7-16,25.3L17.1,44H17c-3.3,0-6,2.7-6,6c0,3.3,2.7,6,6,6V66.5z M74,56v12c0,8.3-6.7,15-15,15H41
		c-8.3,0-15-6.7-15-15V56H74z M80,65h-3v-3h3V65z M23,65h-3v-3h3V65z M20,68h3c0,9.4,7.2,17.1,16.5,17.9v1.6c0,0.5,0.1,1,0.2,1.4
		C28.6,88.2,20,79.1,20,68z M57.5,87.5c0,2.5-2,4.5-4.5,4.5h-6c-2.5,0-4.5-2-4.5-4.5V86h15V87.5z M60.3,88.9
		c0.1-0.5,0.1-0.9,0.2-1.4v-1.6C69.8,85.1,77,77.4,77,68h3C80,79.1,71.4,88.2,60.3,88.9z M80,59h-3v-3h3V59z M45.5,12.5
		c0-2.5,2-4.5,4.5-4.5s4.5,2,4.5,4.5V29c0,2.5-2,4.5-4.5,4.5s-4.5-2-4.5-4.5V12.5z M20.5,39.5c0.8-8.9,5.5-17,13-22V35h3V15.8
		c1.9-1,3.9-1.8,6-2.3V29c0,4.1,3.4,7.5,7.5,7.5c4.1,0,7.5-3.4,7.5-7.5V13.5c2.1,0.5,4.1,1.3,6,2.3V35h3V17.5
		c1.2,0.8,2.4,1.7,3.5,2.7c5.5,5,8.9,11.9,9.5,19.2l0.4,4.5H20.1L20.5,39.5z M14,50c0-1.7,1.3-3,3-3h66c1.7,0,3,1.3,3,3
		c0,1.7-1.3,3-3,3H17C15.3,53,14,51.7,14,50z M23,56v3h-3v-3H23z"/>
</g>
</svg>
