<?xml version="1.0" encoding="utf-8"?>
<!-- Generator: Adobe Illustrator 23.1.1, SVG Export Plug-In . SVG Version: 6.00 Build 0)  -->
<svg version="1.1" id="Layer_1" xmlns="http://www.w3.org/2000/svg" xmlns:xlink="http://www.w3.org/1999/xlink" x="0px" y="0px"
	 width="100px" height="100px" viewBox="0 0 100 100" style="enable-background:new 0 0 100 100;" xml:space="preserve">
<style type="text/css">
	.st0{fill:#FFFFFF;}
</style>
<title>Artboard 23</title>
<path class="st0" d="M91.4,32.2c-0.8-0.2-1.6-0.2-2.3-0.1l1.2-4.5c1-3.5-2.2-6.9-5.8-6.1c0.4-3-2.2-5.7-5.2-5.5
	c-2.7,0.2-4.1,2.2-4.7,4.6c-2.6-2.5-7.1-1.2-8.1,2.3L59,49.8c0,0.2-0.3,0.2-0.4,0L56,41.4c-0.6-1.9-2.3-3.2-4.2-3.4l0.4-0.9
	c1.1-2.5,0-5.4-2.4-6.5c-2.4-1.1-5.4,0-6.5,2.4l-3.6,8c-0.1,0.2-0.3,0.1-0.4,0L35,13.4c-0.5-3.6-4.9-5.4-7.8-3.2
	c-0.4-2.4-1.4-4.6-4.1-5.1c-3-0.6-5.8,1.8-5.8,4.8c-3.4-1.2-7.1,1.8-6.5,5.4l0.7,4.6c-3.4-1.2-7,1.8-6.4,5.4l4.1,26.9
	c0.6,4,1.9,7.8,3.8,11.3l-0.7,17c-0.1,1.9,1.7,3.5,3.5,3.2L45.6,79c1.9-0.3,3.1-2.4,2.4-4.2l-6.2-15.3l5.7-12.4l6.7,20.7l-7.9,14.5
	c-0.9,1.7,0,3.9,1.9,4.4l29,8.1c1.8,0.5,3.7-0.8,3.9-2.7l1.3-16.9c2.3-3.3,4.1-6.9,5.2-10.8l1.3-4.8c0.5-1.6-2.1-2.3-2.5-0.7
	L85,63.8c-1,3.7-2.7,7.1-5,10.2c-0.1,0.2-0.2,0.4-0.3,0.7l-0.8,10.4l-27-7.5l4.9-8.9c0.2-0.3,0.2-0.7,0.1-1l-7.8-24
	c-0.9-2.8,3.4-4.2,4.3-1.4l2.7,8.4c0.8,2.6,4.7,2.5,5.4-0.1l7.5-26.9c0.8-2.8,5.2-1.7,4.4,1.2L67,48c-0.5,1.6,2.1,2.3,2.5,0.7
	L76,25.5v0l1.4-5.2c0.8-2.8,5.2-1.7,4.4,1.2l-7.9,28.3c-0.5,1.7,2.1,2.3,2.5,0.7l6.9-24.9c0.8-2.8,5.2-1.6,4.4,1.2l-2.4,8.7
	c0,0,0,0,0,0l-4.5,16.2c-0.5,1.6,2.1,2.3,2.5,0.7l4.5-16.2c0.8-2.8,5.2-1.6,4.4,1.2l-3.8,13.5c-0.5,1.6,2.1,2.3,2.5,0.7l3.8-13.5
	C95.5,35.6,94,32.9,91.4,32.2L91.4,32.2z M78.7,87.8L78.4,92c0,0.3-0.3,0.5-0.6,0.4l-29-8.1c-0.3-0.1-0.4-0.4-0.3-0.6l2-3.7
	L78.7,87.8z M39.2,60l3.8,9.4l-4.3,0.7c-1.7,0.3-1.3,2.9,0.4,2.6l4.9-0.8l1.6,3.9c0.1,0.3-0.1,0.6-0.3,0.6L15.5,81
	c-0.3,0-0.5-0.2-0.5-0.5l0.2-4.2L31,73.9c1.7-0.3,1.3-2.9-0.4-2.6l-15.4,2.4l0.4-10.5c0-0.2,0-0.5-0.2-0.7c-1.9-3.3-3.1-7-3.7-10.8
	L7.7,24.9c-0.4-2.9,4.1-3.6,4.5-0.7l2.6,16.6c0.2,1.6,2.9,1.4,2.6-0.4l-2.6-16.6c0,0,0,0,0,0l-1.4-8.9c-0.4-2.9,4.1-3.6,4.5-0.7
	l3.9,25.5c0.2,1.6,2.9,1.4,2.6-0.4L20,10.3c-0.4-2.9,4.1-3.6,4.5-0.7l4.5,29.1c0.3,1.7,2.9,1.3,2.6-0.4l-3.7-23.7
	c-0.4-2.9,4.1-3.6,4.5-0.7l4.2,27.6c0.4,2.7,4.2,3.2,5.4,0.7l3.6-8c1.2-2.7,5.4-0.8,4.1,1.9c-0.4,0.9-1.1,1.9-1.3,2.9
	c-1.4,1-2.2,2.7-2.1,4.4L39.2,59C39.1,59.3,39.1,59.7,39.2,60L39.2,60z"/>
</svg>
