<?xml version="1.0" encoding="utf-8"?>
<!-- Generator: Adobe Illustrator 23.1.1, SVG Export Plug-In . SVG Version: 6.00 Build 0)  -->
<svg version="1.1" id="Layer_1" xmlns="http://www.w3.org/2000/svg" xmlns:xlink="http://www.w3.org/1999/xlink" x="0px" y="0px"
	 width="100px" height="100px" viewBox="0 0 100 100" style="enable-background:new 0 0 100 100;" xml:space="preserve">
<style type="text/css">
	.st0{fill:#FFFFFF;}
</style>
<title>Artboard 23</title>
<g>
	<path class="st0" d="M93.4,56.3h-1.7C91,38.5,78.6,23.2,61.2,18.8c-0.2-2.4-2.2-4.3-4.7-4.3H43.5c-2.4,0-4.5,1.9-4.7,4.3
		C21.3,23.1,8.9,38.4,8.2,56.3H6.6C5.7,56.3,5,57,5,57.9v7.3c0,0.9,0.7,1.6,1.6,1.6h4.9v8.2c0,5.8,4.7,10.5,10.6,10.6h18.3
		c0.9,0,1.5-0.7,1.6-1.5c0-8.2,3.8-15.2,8.2-15.2s8.2,6.9,8.2,15.2c0,0.9,0.7,1.5,1.6,1.5H78c5.8,0,10.5-4.7,10.6-10.6v-8.2h4.9
		c0.9,0,1.6-0.7,1.6-1.6v-7.3C95,57,94.3,56.3,93.4,56.3C93.4,56.3,93.4,56.3,93.4,56.3z M43.5,17.6h13.1c0.9,0,1.6,0.8,1.6,1.6
		c0,0.9-0.7,1.5-1.6,1.6H43.5c-0.9,0-1.6-0.7-1.6-1.6C41.8,18.4,42.5,17.7,43.5,17.6C43.4,17.6,43.4,17.6,43.5,17.6z M39.5,21.9
		c0.9,1.3,2.3,2.1,3.9,2.1h13.1c1.6,0,3-0.8,3.9-2.1c16,4,27.4,18,28.2,34.5h-0.2c-0.8-5.2-5.2-9-10.4-9H22c-5.2,0-9.7,3.8-10.4,9
		h-0.2C12,39.8,23.5,25.7,39.5,21.9z M8.1,63.6v-4.2h3.3v4.2H8.1z M31.6,76.2L40,56.7h0.7l-8.4,19.5H31.6z M20.7,74.5V58.3
		c0-0.9,0.7-1.6,1.6-1.6h7.4l-8.3,19.2C21,75.6,20.7,75.1,20.7,74.5z M33.1,56.7h3.5l-8.4,19.5h-3.5L33.1,56.7z M44.1,56.7h1.8
		l-8.4,19.5h-1.8L44.1,56.7z M50,65.7c-2.1,0.1-4.1,0.9-5.6,2.4l4.9-11.4h28.4c0.9,0,1.6,0.7,1.6,1.6v16.3c0,0.9-0.7,1.6-1.6,1.6
		H60.2C58.4,69.9,54.6,65.7,50,65.7z M85.5,74.9c0,4.1-3.3,7.4-7.4,7.4H61.3c-0.1-1-0.2-2.1-0.3-3.1h16.7c2.6,0,4.7-2.1,4.7-4.7
		V58.3c0-2.6-2.1-4.7-4.7-4.7H22.3c-2.6,0-4.7,2.1-4.7,4.7v16.3c0,2.6,2.1,4.7,4.7,4.7h16.7c-0.2,1-0.3,2.1-0.3,3.1H22
		c-4.1,0-7.4-3.3-7.4-7.4v-17c0-4.1,3.3-7.4,7.4-7.4h56c4.1,0,7.4,3.3,7.4,7.4V74.9z M91.9,63.6h-3.3v-4.2h3.3V63.6z"/>
</g>
</svg>
