<?xml version="1.0" encoding="utf-8"?>
<!-- Generator: Adobe Illustrator 23.1.1, SVG Export Plug-In . SVG Version: 6.00 Build 0)  -->
<svg version="1.1" id="Layer_1" xmlns="http://www.w3.org/2000/svg" xmlns:xlink="http://www.w3.org/1999/xlink" x="0px" y="0px"
	 width="100px" height="100px" viewBox="0 0 100 100" style="enable-background:new 0 0 100 100;" xml:space="preserve">
<style type="text/css">
	.st0{fill:#FFFFFF;}
</style>
<title>Artboard 23</title>
<g>
	<path class="st0" d="M83.1,63.8V53h9.7c1.2,0,2.2-1,2.2-2.2v-3.8c0-1.2-1-2.2-2.2-2.2h-9.7v-0.8c0-1-0.5-2-1.4-2.6l-4.1-2.6
		c-2.5-1.6-4-4.4-4-7.3V18.4c0-1.7-1.4-3.1-3.1-3.1H62c-1.7,0-3.2,0.7-4.3,2l-5.7,6.9c-0.1,0.1-0.1,0.2-0.2,0.2h-3.6
		c-0.1-0.1-0.1-0.1-0.2-0.2l-5.7-6.9c-1-1.3-2.6-2-4.3-2h-8.7c-1.7,0-3.1,1.4-3.1,3.1v4.2c0,0.7,0.6,1.3,1.3,1.3
		c0.7,0,1.3-0.6,1.3-1.3v-4.2c0-0.3,0.2-0.5,0.5-0.5h8.7c0.9,0,1.7,0.4,2.2,1.1l5.7,6.9c0.1,0.1,0.2,0.2,0.2,0.3c0,0.1,0,0.2,0,0.3
		v7.2c0,1.7,1.1,3.1,2.5,3.6v44.8h-1.8c-0.7,0-1.3,0.6-1.3,1.3s0.6,1.3,1.3,1.3h31.3c2.6,0,4.8-2.1,4.8-4.8h9.7c1.2,0,2.2-1,2.2-2.2
		V74c0-1.2-1-2.2-2.2-2.2h-9.7v-5.3h9.7c1.2,0,2.2-1,2.2-2.2v-3.8c0-1.2-1-2.2-2.2-2.2h-3.9c-0.7,0-1.3,0.6-1.3,1.3
		c0,0.7,0.6,1.3,1.3,1.3h3.5v2.9L83.1,63.8L83.1,63.8z M92.4,47.5v2.9h-9.2v-2.9H92.4z M50.1,34.8c-0.7,0-1.2-0.5-1.2-1.2v-6.5h2.4
		v6.5C51.3,34.3,50.8,34.8,50.1,34.8L50.1,34.8z M80.5,79.9c0,1.2-1,2.2-2.2,2.2H51.4V37.3c1.5-0.5,2.5-2,2.5-3.6v-7.2l0-0.3
		c0,0,0.1-0.2,0.2-0.2l5.7-6.9c0.5-0.7,1.4-1.1,2.2-1.1h8.5c0.3,0,0.5,0.2,0.5,0.5v13.1c0,3.9,1.9,7.4,5.2,9.6l4.1,2.6
		c0.1,0.1,0.2,0.2,0.2,0.4L80.5,79.9z M92.4,74.4v2.9h-9.2v-2.9H92.4z"/>
	<path class="st0" d="M40.6,82.1H21.7c-1.2,0-2.2-1-2.2-2.2V44.1c0-0.1,0.1-0.3,0.2-0.4l4.1-2.6C27,39,29,35.4,29,31.5v-2.6
		c0-0.7-0.6-1.3-1.3-1.3c-0.7,0-1.3,0.6-1.3,1.3v2.6c0,3-1.5,5.7-4,7.3l-4.1,2.6c-0.9,0.6-1.4,1.5-1.4,2.6v0.8H7.2
		c-1.2,0-2.2,1-2.2,2.2v3.8C5,52,6,53,7.2,53h9.7v5.3H7.2c-1.2,0-2.2,1-2.2,2.2v3.8c0,1.2,1,2.2,2.2,2.2h9.7v5.3H7.2
		C6,71.8,5,72.8,5,74v3.8c0,1.2,1,2.2,2.2,2.2h9.7c0,2.6,2.2,4.8,4.8,4.8h18.9c0.7,0,1.3-0.6,1.3-1.3C41.9,82.7,41.3,82.1,40.6,82.1
		z M7.6,50.4v-2.9h9.2v2.9H7.6z M7.6,63.8V61h9.2v2.9H7.6z M7.6,74.4h9.2v2.9H7.6L7.6,74.4z"/>
	<path class="st0" d="M41,48.7H26.2c-1.2,0-2.2,1-2.2,2.2v6.3c0,1.2,1,2.2,2.2,2.2H41c1.2,0,2.2-1,2.2-2.2v-6.3
		C43.2,49.7,42.2,48.7,41,48.7L41,48.7z M40.6,56.8h-14v-5.5h14V56.8z"/>
	<path class="st0" d="M41,65.6H26.2c-1.2,0-2.2,1-2.2,2.2v6.3c0,1.2,1,2.2,2.2,2.2H41c1.2,0,2.2-1,2.2-2.2v-6.3
		C43.2,66.6,42.2,65.6,41,65.6z M40.6,73.7h-14v-5.5h14V73.7z"/>
	<path class="st0" d="M73.8,48.7H59.2c-1.2,0-2.2,1-2.2,2.2v6.3c0,1.2,1,2.2,2.2,2.2h14.7c1.2,0,2.2-1,2.2-2.2v-6.3
		C76,49.7,75.1,48.7,73.8,48.7L73.8,48.7z M73.4,56.8H59.6v-5.5h13.8V56.8z"/>
	<path class="st0" d="M73.8,65.6H59.2c-1.2,0-2.2,1-2.2,2.2v6.3c0,1.2,1,2.2,2.2,2.2h14.7c1.2,0,2.2-1,2.2-2.2v-6.3
		C76,66.6,75.1,65.6,73.8,65.6z M73.4,73.7H59.6v-5.5h13.8V73.7z"/>
	<path class="st0" d="M62,43.3c2.8,0,5-2.3,5-5v-2.1c0-0.7-0.6-1.3-1.3-1.3s-1.3,0.6-1.3,1.3v2.1c0,1.3-1.1,2.4-2.4,2.4
		c-1.3,0-2.4-1.1-2.4-2.4v-2.1c0-0.7-0.6-1.3-1.3-1.3c-0.7,0-1.3,0.6-1.3,1.3v2.1C57,41,59.2,43.3,62,43.3z"/>
</g>
</svg>
