<?xml version="1.0" encoding="utf-8"?>
<!-- Generator: Adobe Illustrator 23.1.1, SVG Export Plug-In . SVG Version: 6.00 Build 0)  -->
<svg version="1.1" id="Layer_1" xmlns="http://www.w3.org/2000/svg" xmlns:xlink="http://www.w3.org/1999/xlink" x="0px" y="0px"
	 width="100px" height="100px" viewBox="0 0 100 100" style="enable-background:new 0 0 100 100;" xml:space="preserve">
<style type="text/css">
	.st0{fill:#FFFFFF;}
</style>
<title>Artboard 23</title>
<path class="st0" d="M95,9c0-2.2-1.8-4-4-4h-3c-0.7,0-1.3,0.6-1.3,1.3s0.6,1.3,1.3,1.3h3c0.7,0,1.3,0.6,1.3,1.3s-0.6,1.3-1.3,1.3
	H77.2V7.6h5.1c0.7,0,1.3-0.6,1.3-1.3S83,5,82.3,5H60c-0.7,0-1.3,0.6-1.3,1.3v1.3H50c-6.5,0-11.7,5.3-11.7,11.7v36.5
	c0,2.1-1.7,3.8-3.8,3.8h-2.1c-0.1-0.6-0.5-1-1.1-1.1l-15.9-2.9c-0.7-0.1-1.4,0.3-1.5,1.1s0.3,1.4,1.1,1.5L29.6,61v5.4l-22,4V57
	l1.6,0.3c0.7,0.1,1.4-0.3,1.5-1.1s-0.3-1.4-1.1-1.5l-3.2-0.6C5.7,54,5,54.6,5,55.4v16.5c0,0.7,0.6,1.3,1.3,1.3c0.1,0,0.2,0,0.2,0
	l24.6-4.5c0.6-0.1,1-0.6,1.1-1.1h2.1c6.5,0,11.7-5.3,11.7-11.7V19.4c0-2.1,1.7-3.8,3.8-3.8h8.7v1.3c0,0.7,0.6,1.3,1.3,1.3h0.3
	c0,0.1,0,0.1,0,0.2c0,2.3,1,4.3,2.6,5.7c-7.5,2.2-13,9.1-13,17.3v52.4c0,0.7,0.6,1.3,1.3,1.3h33.4c0.7,0,1.3-0.6,1.3-1.3v-10
	c0-0.7-0.6-1.3-1.3-1.3c-0.7,0-1.3,0.6-1.3,1.3v3.4H52.5v-18h30.8v9c0,0.7,0.6,1.3,1.3,1.3c0.7,0,1.3-0.6,1.3-1.3V41.3
	c0-8.2-5.5-15.1-13-17.3c1.6-1.4,2.5-3.4,2.5-5.7l9.5,9.5c1.5,1.5,4.1,1.5,5.6,0c1.5-1.5,1.5-4.1,0-5.6l-9.3-9.3H91
	C93.2,12.9,95,11.1,95,9z M50,12.9c-3.6,0-6.5,2.9-6.5,6.5v36.5c0,5-4.1,9.1-9.1,9.1h-2.1v-2.6h2.1c3.6,0,6.5-2.9,6.5-6.5V19.4
	c0-5,4.1-9.1,9.1-9.1h8.7v2.6H50z M61.3,7.6h13.2v7c-1.3-2.3-3.8-3.8-6.6-3.8s-5.3,1.5-6.6,3.8V7.6z M83.3,89.7v2.6H52.5v-2.6H83.3z
	 M52.5,66.4V55h30.8v11.4H52.5z M83.3,41.3v11.1H52.5V41.3c0-8.5,6.9-15.4,15.4-15.4S83.3,32.8,83.3,41.3z M63,18.3
	c0-0.4,0-0.8,0.1-1.2c0,0,0,0,0,0c0.5-2.2,2.5-3.8,4.8-3.8s4.3,1.6,4.8,3.8c0,0,0,0,0,0c0.1,0.4,0.1,0.8,0.1,1.2c0,2.7-2.2,5-5,5
	S63,21.1,63,18.3z M88.7,24.1c0.5,0.5,0.5,1.3,0,1.9c-0.5,0.5-1.3,0.5-1.9,0l-9.7-9.7v-3.4h0.4L88.7,24.1z"/>
</svg>
