<?xml version="1.0" encoding="utf-8"?>
<!-- Generator: Adobe Illustrator 23.1.1, SVG Export Plug-In . SVG Version: 6.00 Build 0)  -->
<svg version="1.1" id="Layer_1" xmlns="http://www.w3.org/2000/svg" xmlns:xlink="http://www.w3.org/1999/xlink" x="0px" y="0px"
	 width="140px" height="140px" viewBox="0 0 140 140" style="enable-background:new 0 0 140 140;" xml:space="preserve">
<style type="text/css">
	.st0{fill:#FEC150;}
	.st1{fill:#F7934B;}
	.st2{fill:#FFFFFF;}
	.st3{fill:#D1D1D1;}
	.st4{fill:#E0E0E0;}
	.st5{fill:#F8963E;}
	.st6{fill:#4FA958;}
</style>
<title>Artboard 23 copy 4</title>
<g>
	<ellipse transform="matrix(0.7071 -0.7071 0.7071 0.7071 -29.3485 70.1465)" class="st0" cx="70" cy="70.5" rx="64.5" ry="64.5"/>
	<g>
		<path class="st1" d="M70,125.5c-30.3,0-55-24.7-55-55c0-30.3,24.7-55,55-55s55,24.7,55,55C125,100.8,100.3,125.5,70,125.5z
			 M70,19.7c-28,0-50.8,22.8-50.8,50.8c0,28,22.8,50.8,50.8,50.8c28,0,50.8-22.8,50.8-50.8C120.8,42.5,98,19.7,70,19.7z"/>
	</g>
</g>
<g>
	<g>
		<g>
			<path class="st2" d="M41.3,40.2L41.3,40.2v63.7h41.6c2.6,0,4.7-2.1,4.7-4.7v-59v-0.5c0-3,2.4-5.4,5.4-5.4H47.2
				C43.9,34.3,41.3,36.9,41.3,40.2z"/>
			<path class="st3" d="M108.1,83.8V49.9H97.9v34.2c0,2.7,2.2,4.9,4.9,4.9l0,0h0C105.6,89,108,86.7,108.1,83.8z"/>
			<path class="st4" d="M97.9,84.1v-2V49.9V39.1c0-2.7-2.2-4.9-4.9-4.9h0l0,0c-3,0-5.4,2.4-5.4,5.4v0.5v41.9v0.9V89h15.1
				C100,89,97.9,86.8,97.9,84.1z"/>
			<path class="st4" d="M77.3,99v-9.1H31.3V99c0,2.7,2.2,4.9,4.9,4.9l0,0h0h46C79.5,103.8,77.3,101.7,77.3,99z"/>
		</g>
		<g>
			<g>
				<path class="st5" d="M50.5,50.9h-4.8c-0.7,0-1.3-0.6-1.3-1.3v-4.8c0-0.7,0.6-1.3,1.3-1.3h4.8c0.7,0,1.3,0.6,1.3,1.3v4.8
					C51.8,50.3,51.2,50.9,50.5,50.9z M45.7,44.2c-0.3,0-0.5,0.2-0.5,0.5v4.8c0,0.3,0.2,0.5,0.5,0.5h4.8c0.3,0,0.5-0.2,0.5-0.5v-4.8
					c0-0.3-0.2-0.5-0.5-0.5H45.7z"/>
			</g>
			<g>
				<g>
					<polygon class="st6" points="48.2,49.8 45.6,45.9 46.6,45.2 48,47.3 50.9,40.8 52,41.3 					"/>
				</g>
			</g>
			<g>
				<path class="st5" d="M50.5,64h-4.8c-0.7,0-1.3-0.6-1.3-1.3v-4.8c0-0.7,0.6-1.3,1.3-1.3h4.8c0.7,0,1.3,0.6,1.3,1.3v4.8
					C51.8,63.4,51.2,64,50.5,64z M45.7,57.3c-0.3,0-0.5,0.2-0.5,0.5v4.8c0,0.3,0.2,0.5,0.5,0.5h4.8c0.3,0,0.5-0.2,0.5-0.5v-4.8
					c0-0.3-0.2-0.5-0.5-0.5H45.7z"/>
			</g>
			<g>
				<g>
					<polygon class="st6" points="48.2,62.9 45.6,59 46.6,58.3 48,60.4 50.9,53.9 52,54.4 					"/>
				</g>
			</g>
			<g>
				<path class="st5" d="M50.5,77.1h-4.8c-0.7,0-1.3-0.6-1.3-1.3V71c0-0.7,0.6-1.3,1.3-1.3h4.8c0.7,0,1.3,0.6,1.3,1.3v4.8
					C51.8,76.5,51.2,77.1,50.5,77.1z M45.7,70.4c-0.3,0-0.5,0.2-0.5,0.5v4.8c0,0.3,0.2,0.5,0.5,0.5h4.8c0.3,0,0.5-0.2,0.5-0.5V71
					c0-0.3-0.2-0.5-0.5-0.5H45.7z"/>
			</g>
			<g>
				<g>
					<polygon class="st6" points="48.2,76 45.6,72.1 46.6,71.4 48,73.5 50.9,67 52,67.5 					"/>
				</g>
			</g>
			<g>
				<rect x="55.5" y="74.1" class="st4" width="28.2" height="2"/>
				<rect x="55.5" y="70.7" class="st4" width="15.4" height="2"/>
			</g>
			<g>
				<rect x="55.5" y="61" class="st4" width="28.2" height="2"/>
				<rect x="55.5" y="57.6" class="st4" width="15.4" height="2"/>
			</g>
			<g>
				<rect x="55.5" y="47.9" class="st4" width="28.2" height="2"/>
				<rect x="55.5" y="44.5" class="st4" width="15.4" height="2"/>
			</g>
		</g>
	</g>
</g>
</svg>
